<?xml version="1.0" encoding="UTF-8" standalone="no"?>
<svg
   xmlns:dc="http://purl.org/dc/elements/1.1/"
   xmlns:cc="http://creativecommons.org/ns#"
   xmlns:rdf="http://www.w3.org/1999/02/22-rdf-syntax-ns#"
   xmlns:svg="http://www.w3.org/2000/svg"
   xmlns="http://www.w3.org/2000/svg"
   xmlns:sodipodi="http://sodipodi.sourceforge.net/DTD/sodipodi-0.dtd"
   xmlns:inkscape="http://www.inkscape.org/namespaces/inkscape"
   width="450.01099"
   height="500"
   viewBox="0 0 675 750"
   version="1.1"
   id="svg4334"
   inkscape:version="0.48.5 r10040"
   sodipodi:docname="Modificado_Símbolo_da_Chapecoense.svg">
  <metadata
     id="metadata4501">
    <rdf:RDF>
      <cc:Work
         rdf:about="">
        <dc:format>image/svg+xml</dc:format>
        <dc:type
           rdf:resource="http://purl.org/dc/dcmitype/StillImage" />
      </cc:Work>
    </rdf:RDF>
  </metadata>
  <defs
     id="defs4499" />
  <sodipodi:namedview
     pagecolor="#ffffff"
     bordercolor="#666666"
     borderopacity="1"
     objecttolerance="10"
     gridtolerance="10"
     guidetolerance="10"
     inkscape:pageopacity="0"
     inkscape:pageshadow="2"
     inkscape:window-width="1366"
     inkscape:window-height="705"
     id="namedview4497"
     showgrid="false"
     inkscape:zoom="2"
     inkscape:cx="435.80197"
     inkscape:cy="132.62957"
     inkscape:window-x="-8"
     inkscape:window-y="-8"
     inkscape:window-maximized="1"
     inkscape:current-layer="svg4334" />
  <g
     id="#026b38ff"
     transform="matrix(1.0000244,0,0,1.0000267,-0.00823975,5.2512e-5)">
    <path
       d="m 289.95,130.14 c 42.43,-5.96 85.99,-3.85 127.61,6.36 41.49,10.16 80.99,28.36 115.67,53.3 66.2,47.1 114.5,118.85 132.54,198.14 5.92,24.37 8.01,49.45 9.23,74.44 l 0,4.29 c -1.01,19.52 -2.41,39.08 -5.99,58.32 -11.08,61.79 -40.19,120.15 -82.78,166.26 -13.25,14.42 -27.76,27.68 -43.27,39.63 -8.37,6.43 -16.83,12.74 -25.25,19.1 0.04,-22.26 0.14,-44.51 0.17,-66.77 -29.29,24.05 -63.31,42.37 -99.68,53.12 -40.03,11.94 -82.72,14.78 -124.01,8.48 -39.37,-5.96 -77.37,-20.51 -110.8,-42.13 -10.74,-6.84 -20.79,-14.69 -30.67,-22.71 0.84,23.2 2.09,46.38 3.06,69.57 -14.67,-11.4 -29.75,-22.3 -43.58,-34.73 C 65.33,673.09 30.42,618.04 13.17,557.67 4.89,529.09 0.66,499.4 0,469.66 l 0,-9.28 C 0.6,420.22 8.03,380.11 22.64,342.67 49.88,271.75 102.01,210.81 167.68,172.66 205.14,150.7 246.95,136.2 289.95,130.14 m -37.99,19.38 C 209.87,160.88 170.12,180.85 135.88,207.83 78.39,252.67 36.53,317.23 19.62,388.2 6.45,442.59 7.54,500.38 22.8,554.22 c 10.09,35.72 26.41,69.66 48.01,99.84 20.31,28.56 45.46,53.51 73.51,74.44 -0.83,-18.56 -1.69,-37.12 -2.52,-55.67 4.89,-0.9 9.76,-1.91 14.67,-2.69 32.61,28.86 72.24,49.74 114.5,60.24 46.99,11.84 97.14,10.8 143.59,-3.01 37.35,-10.95 72.21,-30.14 101.67,-55.56 4.05,0.77 8.09,1.58 12.14,2.38 -0.04,18.57 -0.11,37.14 -0.14,55.72 36.83,-26.82 68.43,-60.95 91.41,-100.35 22.72,-38.64 37.13,-82.11 42.21,-126.64 5.45,-47.65 0.57,-96.55 -14.85,-142 -23.35,-70.09 -71.54,-131.48 -133.82,-171.17 -41.51,-26.77 -89.25,-43.76 -138.32,-49.37 -41.05,-4.71 -83,-1.68 -122.9,9.14 z"
       id="path4346"
       inkscape:connector-curvature="0"
       style="fill:#026b38" />
    <path
       d="m 261.88,154.17 c 36.62,-8.9 74.81,-11.17 112.23,-6.86 49.22,5.6 97.03,23 138.39,50.26 32.26,21.19 60.65,48.26 83.37,79.46 24.26,33.22 41.97,71.19 51.86,111.12 11.7,47.61 12.43,97.92 1.85,145.82 -7.99,36.43 -22.56,71.41 -42.77,102.76 -19.27,29.92 -43.6,56.56 -71.56,78.57 0.05,-15.61 0.07,-31.22 0.14,-46.83 -14.77,-2.93 -29.54,-5.82 -44.31,-8.71 27.11,-21.72 49.94,-48.86 66.07,-79.67 21.76,-40.89 31.7,-88 28.07,-134.19 -3.21,-43.99 -18.62,-86.99 -43.94,-123.09 -23.52,-33.73 -55.49,-61.53 -92.23,-80.01 -54.69,-27.89 -119.9,-34.08 -178.94,-17.35 -35.75,9.97 -69.14,28.21 -96.97,52.74 -29.77,26.14 -53.24,59.45 -67.62,96.37 -21.03,53.37 -22.54,114.1 -4.38,168.49 12.77,38.63 35.46,73.9 65.11,101.74 4.79,4.8 10.2,8.91 15.18,13.5 -15.6,3 -31.23,5.84 -46.85,8.77 0.69,15.39 1.41,30.78 2.1,46.17 C 110.43,691.82 87.22,666.59 68.79,638.13 50.81,610.64 37.2,580.29 28.62,548.58 15.65,501.59 14.13,451.62 23.32,403.8 31.2,363.26 47.07,324.3 69.8,289.82 91,257.48 118.14,229.07 149.39,206.31 183,181.8 221.45,163.95 261.88,154.17 m 76.56,11.3 c -4.72,4.12 -6.91,10.42 -7.41,16.53 -0.59,6.69 0.36,13.98 4.72,19.35 5.76,7.06 16.55,8.66 24.66,5.07 5.6,-2.51 8.85,-8.17 10.43,-13.86 -3.11,-0.17 -6.22,-0.32 -9.33,-0.48 -0.94,2.07 -1.76,4.34 -3.57,5.84 -4.27,3.58 -11.61,2.68 -14.75,-1.99 -2.39,-3.44 -2.87,-7.81 -2.68,-11.88 0.29,-4.33 1.21,-9.02 4.36,-12.22 3.43,-3.58 9.42,-3.78 13.45,-1.13 2.27,1.42 3,4.13 3.92,6.47 3.14,0.17 6.28,0.32 9.43,0.42 -0.68,-5.55 -3.49,-11.03 -8.47,-13.85 -7.56,-4.34 -18.07,-4.19 -24.76,1.73 m -49.52,-0.51 c 1.57,14.97 3.22,29.93 4.75,44.91 11.4,-1.12 22.78,-2.42 34.17,-3.6 -0.28,-2.65 -0.56,-5.29 -0.84,-7.94 -8.31,0.88 -16.62,1.76 -24.93,2.64 -0.43,-3.88 -0.84,-7.77 -1.21,-11.66 7.3,-0.78 14.62,-1.47 21.9,-2.38 -0.29,-2.63 -0.58,-5.26 -0.86,-7.89 -7.31,0.78 -14.61,1.56 -21.92,2.33 -0.33,-3.15 -0.66,-6.3 -1,-9.45 7.96,-0.84 15.91,-1.7 23.86,-2.54 -0.28,-2.65 -0.56,-5.3 -0.84,-7.96 -11.02,1.18 -22.05,2.35 -33.08,3.54 m 103.27,2.25 c -7.03,1.18 -12.58,6.77 -14.9,13.34 -2.77,7.52 -3.87,16.54 0.43,23.71 6.25,9.82 20.71,13.06 30.59,6.96 6.14,-3.96 9.09,-11.22 10.21,-18.17 1.04,-6.14 0.38,-13 -3.65,-17.99 -5.33,-6.56 -14.46,-9.53 -22.68,-7.85 m -146.5,8.01 c 3.77,14.59 7.56,29.17 11.34,43.76 3.05,-0.78 6.1,-1.57 9.16,-2.35 -1.36,-5.26 -2.72,-10.53 -4.1,-15.78 5.66,-1.82 12.1,-2.18 16.9,-6.01 6.61,-5.81 5.35,-17.27 -1.13,-22.69 -3.26,-2.73 -7.86,-3.15 -11.87,-2.13 -6.79,1.61 -13.52,3.5 -20.3,5.2 m 170.57,43.37 c 10.62,4.23 21.28,8.37 31.91,12.6 0.96,-2.39 2.06,-4.73 2.78,-7.21 -7.41,-3.65 -15.45,-6.19 -23.11,-9.39 1.39,-3.66 2.82,-7.29 4.27,-10.93 6.83,2.69 13.67,5.37 20.49,8.1 1,-2.48 1.98,-4.98 2.95,-7.48 -6.85,-2.65 -13.67,-5.38 -20.5,-8.06 1.16,-2.95 2.33,-5.9 3.5,-8.85 7.44,2.95 14.87,5.88 22.31,8.82 0.98,-2.49 1.96,-4.97 2.93,-7.46 -10.32,-4.04 -20.62,-8.13 -30.93,-12.18 -5.54,14.01 -11.05,28.03 -16.6,42.04 M 212.65,188.38 c 1.12,15.94 2.08,31.89 3.18,47.82 3.05,-1.3 6.1,-2.62 9.14,-3.96 -0.08,-3.26 -1.11,-6.72 -0.43,-9.88 4.91,-2.33 9.98,-4.32 14.96,-6.51 2.09,2.48 4.2,4.95 6.33,7.4 3.11,-1.35 6.23,-2.69 9.35,-4.02 -10.71,-11.86 -21.69,-23.46 -32.5,-35.23 -3.36,1.43 -6.71,2.87 -10.03,4.38 m 238.27,44.12 c 2.53,1.47 5.06,2.95 7.58,4.44 5.49,-9.31 10.91,-18.65 16.4,-27.95 -0.1,12.44 -0.22,24.88 -0.34,37.32 2.7,1.6 5.42,3.19 8.14,4.78 7.62,-13 15.24,-26.01 22.85,-39.02 -2.54,-1.48 -5.08,-2.96 -7.61,-4.44 -5.35,9.08 -10.62,18.2 -15.99,27.26 0.09,-12.1 0.21,-24.2 0.41,-36.3 -2.84,-1.75 -5.72,-3.44 -8.61,-5.12 -7.61,13.01 -15.25,26 -22.83,39.03 M 182.41,204.06 c 3.06,4.84 6.21,9.62 9.19,14.5 -4.98,3.09 -9.9,6.27 -14.83,9.43 -3.09,-4.8 -6.15,-9.62 -9.21,-14.44 -2.67,1.69 -5.33,3.38 -7.98,5.09 8.12,12.69 16.2,25.4 24.31,38.09 2.66,-1.69 5.31,-3.38 7.97,-5.07 -3.61,-5.73 -7.34,-11.39 -10.88,-17.16 4.99,-3.09 9.9,-6.31 14.88,-9.41 3.6,5.72 7.23,11.42 10.9,17.1 2.64,-1.71 5.29,-3.4 7.94,-5.1 -8.1,-12.7 -16.22,-25.38 -24.3,-38.09 -2.68,1.67 -5.34,3.36 -7.99,5.06 m 327.78,20.06 c -5.08,2.71 -9.08,9.04 -6.77,14.82 2.64,6.46 8.39,10.99 11.46,17.2 1.95,3.49 -2.44,7.44 -5.86,6.05 -5.98,-1.78 -12.85,-8.4 -8.61,-14.91 -2.34,-1.93 -4.69,-3.84 -7.12,-5.64 -1.62,2.89 -3.33,5.99 -3.1,9.42 0.18,5.61 3.93,10.3 8.02,13.8 4.41,3.79 10.27,6.72 16.23,5.58 6.56,-1.57 12.45,-8.88 9.83,-15.73 -2.7,-6.45 -8.12,-11.24 -11.65,-17.19 -1.88,-2.95 1.11,-6.92 4.4,-6.51 6.02,0.86 12.31,7.58 8.65,13.73 2.33,1.91 4.66,3.82 7.05,5.66 1.74,-3.11 3.29,-6.59 2.8,-10.26 -0.69,-6.48 -5.72,-11.46 -11.02,-14.7 -4.2,-2.65 -9.77,-3.77 -14.31,-1.32 m -380.65,29.75 c 0.97,6.61 5.02,12.34 9.78,16.83 4.43,4.18 10.37,7.23 16.6,6.73 8.28,-0.79 15.78,-7.04 18.26,-14.94 1.67,-5.44 -0.1,-11.1 -2.6,-15.96 -2.38,2.03 -4.71,4.11 -7.03,6.2 0.7,2.04 1.67,4.09 1.53,6.31 -0.34,5.73 -6.4,10.44 -12.05,9.23 -4.44,-0.92 -8.04,-4.06 -10.86,-7.46 -2.7,-3.3 -5.04,-7.37 -4.67,-11.78 0.38,-4.55 4.19,-8.29 8.52,-9.32 2.68,-0.7 5.21,0.74 7.54,1.86 2.39,-2.05 4.75,-4.13 7.07,-6.25 -2.34,-1.67 -4.76,-3.37 -7.62,-4 -12.78,-3.08 -26.53,9.51 -24.47,22.55 m 386.14,24.23 c 7.73,8.44 15.48,16.85 23.23,25.27 1.96,-1.8 3.92,-3.6 5.89,-5.4 -5.65,-6.16 -11.33,-12.29 -16.96,-18.47 2.88,-2.63 5.75,-5.28 8.65,-7.9 4.94,5.42 9.93,10.81 14.88,16.23 1.96,-1.81 3.92,-3.61 5.89,-5.4 -4.94,-5.44 -9.94,-10.83 -14.9,-16.24 2.33,-2.16 4.66,-4.31 7.02,-6.43 5.37,5.91 10.82,11.73 16.18,17.64 1.98,-1.79 3.95,-3.59 5.93,-5.39 -7.5,-8.17 -15,-16.33 -22.5,-24.49 -11.11,10.19 -22.21,20.39 -33.31,30.58 m -414.25,0.5 c -11.53,4.09 -19.04,18.81 -13.01,30.07 4.31,7.52 12.05,13.11 20.5,14.99 14.48,2.83 27.82,-12.98 24.23,-26.86 -1.78,-6.64 -7.09,-11.63 -12.73,-15.17 -5.54,-3.53 -12.64,-5.43 -18.99,-3.03 m 448.1,39.09 c 3.47,5.76 6.8,11.6 10.33,17.32 2.43,3.98 6.41,7.17 11.1,7.86 6.51,1.11 13.09,-1.11 18.65,-4.39 5.12,-3.08 9.82,-7.59 11.41,-13.52 1.23,-4.35 -0.03,-8.97 -2.21,-12.79 -3.37,-5.88 -6.95,-11.64 -10.32,-17.53 -13.03,7.61 -25.97,15.37 -38.96,23.05 M 59.44,314.35 c -0.58,1.15 -1.14,2.3 -1.7,3.47 0.37,1.2 1.42,2.46 0.84,3.77 -1.83,3.36 -6.17,5.21 -6.6,9.34 -0.54,3.34 2.16,5.76 4.18,7.98 0.57,-1.14 1.14,-2.26 1.7,-3.39 -0.59,-1.14 -0.99,-2.33 -1.18,-3.58 1.84,-3.43 5.69,-5.49 6.86,-9.32 0.9,-3.44 -1.95,-6.06 -4.1,-8.27 m 8.78,11.27 c -1.59,3.26 -3.2,6.51 -4.82,9.76 11.14,11.5 22.3,22.97 33.44,34.46 1.47,-2.98 2.94,-5.95 4.41,-8.93 -2.32,-2.32 -4.64,-4.63 -6.97,-6.94 2.43,-4.97 4.93,-9.9 7.28,-14.91 3.26,0.42 6.49,0.95 9.74,1.47 1.51,-3.07 3.02,-6.14 4.54,-9.21 -15.87,-1.91 -31.75,-3.82 -47.62,-5.7 m 501.85,27.73 c 4.25,10.62 8.52,21.24 12.8,31.85 2.47,-0.99 4.94,-1.98 7.41,-2.98 -3.12,-7.75 -6.22,-15.5 -9.32,-23.25 3.61,-1.46 7.23,-2.91 10.85,-4.36 2.74,6.82 5.48,13.64 8.22,20.45 2.47,-0.99 4.94,-1.99 7.42,-2.98 -2.73,-6.82 -5.46,-13.64 -8.2,-20.45 2.93,-1.19 5.87,-2.37 8.81,-3.55 2.99,7.43 5.97,14.85 8.96,22.28 2.47,-1 4.94,-1.99 7.42,-2.99 -4.14,-10.28 -8.26,-20.57 -12.39,-30.85 -14,5.61 -27.99,11.23 -41.98,16.83 m -511.85,7.89 c -8.12,3.25 -12.44,12.5 -12.07,20.89 0.32,7.36 5.58,13.65 12.04,16.74 7.48,3.59 16.68,5.48 24.47,1.77 4.85,-2.28 7.98,-6.95 9.81,-11.83 1.8,1.18 3.6,2.36 5.42,3.53 -0.02,-2.34 -0.05,-4.68 -0.09,-7.01 -1.37,-0.88 -2.74,-1.77 -4.1,-2.66 0.34,-7.75 -4.66,-14.53 -11.31,-18.01 -0.93,2.97 -1.84,5.95 -2.73,8.93 1.77,1.45 3.81,2.81 4.79,4.98 2.37,5.12 -0.46,12.06 -5.89,13.82 -3.77,1.26 -7.89,0.75 -11.63,-0.37 -4.18,-1.3 -8.51,-3.31 -10.93,-7.14 -2.79,-4.28 -1.44,-10.32 2.25,-13.62 1.94,-1.73 4.67,-1.75 7.1,-2.04 0.94,-3.01 1.88,-6.02 2.74,-9.04 -3.31,-0.22 -6.77,-0.33 -9.87,1.06 m 529.3,41.25 c 0.57,3.09 1.15,6.18 1.71,9.27 6.24,-1.12 12.48,-2.31 18.73,-3.46 1.2,6.52 2.43,13.03 3.63,19.56 2.61,-0.49 5.24,-0.98 7.86,-1.47 -1.21,-6.52 -2.43,-13.04 -3.63,-19.56 3.33,-0.63 6.68,-1.26 10.03,-1.87 1.37,7.45 2.76,14.9 4.15,22.35 2.62,-0.49 5.25,-0.98 7.87,-1.47 -1.98,-10.54 -3.88,-21.11 -5.93,-31.64 -14.8,2.78 -29.62,5.52 -44.42,8.29 M 38.79,414.34 c -0.54,3.59 -1.06,7.18 -1.59,10.77 14.14,7.51 28.27,15 42.4,22.52 0.49,-3.28 0.97,-6.55 1.45,-9.82 -2.92,-1.51 -5.85,-3.01 -8.77,-4.5 0.81,-5.5 1.61,-11 2.43,-16.5 3.21,-0.5 6.42,-1.01 9.63,-1.51 0.5,-3.39 1,-6.77 1.5,-10.16 -15.69,3.06 -31.37,6.14 -47.05,9.2 m 560.01,24.42 c -4.21,3.37 -5.65,9.03 -5.66,14.2 0.05,5.26 1.15,11.01 5.09,14.8 3.31,3.31 8.24,4.15 12.76,4.02 9.74,-0.3 19.47,-0.72 29.21,-1.06 -0.12,-3.22 -0.24,-6.43 -0.36,-9.64 -9.64,0.35 -19.28,0.73 -28.92,1.1 -2.74,0.09 -5.9,-0.12 -7.77,-2.41 -2.04,-2.6 -2.45,-6.26 -1.66,-9.39 1.04,-3.65 5,-5.38 8.54,-5.35 9.72,-0.44 19.45,-0.73 29.17,-1.12 -0.12,-3.21 -0.24,-6.42 -0.35,-9.62 -9.27,0.32 -18.54,0.68 -27.8,1.01 -4.25,0.17 -8.86,0.63 -12.25,3.46 m -563.63,8.82 c -0.12,3.14 -0.24,6.29 -0.35,9.43 15.06,0.58 30.12,1.15 45.18,1.72 0.12,-3.15 0.24,-6.29 0.36,-9.43 -15.06,-0.58 -30.13,-1.15 -45.19,-1.72 m 28.58,15.21 c 0.2,3.11 0.42,6.23 0.66,9.35 2,0.68 4.19,1.14 5.85,2.56 4.5,3.79 4.47,11.75 -0.18,15.42 -3.64,2.97 -8.52,3.85 -13.11,3.88 -3.82,0.01 -7.92,-0.61 -10.95,-3.12 -3.89,-3.1 -4.63,-9.07 -2.35,-13.34 1.22,-2.23 3.69,-3.22 5.83,-4.36 -0.21,-3.13 -0.42,-6.26 -0.68,-9.38 -3.11,0.91 -6.26,2.04 -8.65,4.33 -6.69,6.04 -7.43,16.63 -3.74,24.47 3.15,6.73 10.51,10.48 17.7,10.91 7.47,0.48 15.61,-0.83 21.43,-5.87 7.53,-6.55 8.07,-18.8 2.7,-26.84 -3.26,-4.84 -8.98,-7.07 -14.51,-8.01 M 632,477.63 c -0.49,4.52 -0.99,9.05 -1.5,13.58 -12.34,-1.35 -24.67,-2.69 -37,-4.02 -0.34,3.13 -0.68,6.26 -1.01,9.4 12.33,1.34 24.67,2.67 37.01,4.01 -0.5,4.52 -0.99,9.05 -1.49,13.58 2.65,0.29 5.3,0.58 7.96,0.87 1.32,-12.19 2.65,-24.38 3.96,-36.57 -2.65,-0.29 -5.29,-0.57 -7.93,-0.85 M 59.46,508.59 c -6.32,1.59 -12.68,5.02 -15.79,11 -4.88,9.6 -1.73,22.44 7.03,28.7 5.31,3.7 12.23,3.95 18.37,2.61 6.69,-1.36 13.57,-4.57 17.17,-10.65 5.51,-9.7 2.32,-23.26 -6.83,-29.6 -5.84,-3.91 -13.38,-3.78 -19.95,-2.06 m 522.66,36.27 c 2.56,0.66 5.12,1.32 7.68,2.01 2.2,-8.07 4.17,-16.2 6.26,-24.3 3.78,0.95 7.57,1.92 11.36,2.89 -1.82,7.12 -3.63,14.23 -5.43,21.35 2.57,0.65 5.16,1.31 7.74,1.97 1.81,-7.11 3.64,-14.22 5.43,-21.33 3.07,0.76 6.15,1.53 9.23,2.31 -1.97,7.76 -3.96,15.51 -5.92,23.26 2.58,0.65 5.16,1.32 7.75,1.98 2.73,-10.75 5.47,-21.49 8.2,-32.24 -14.61,-3.71 -29.22,-7.42 -43.82,-11.14 -2.84,11.08 -5.64,22.16 -8.48,33.24 m -10.18,24.99 c -1.43,3.81 -1.8,8.25 0.29,11.9 3.37,6.73 13.39,9.86 19.12,4.18 0.52,7.29 9.45,11.44 15.69,8.28 3.6,-1.76 5.7,-5.39 7.26,-8.91 2.78,-6.46 5.52,-12.94 8.29,-19.41 -13.86,-5.92 -27.72,-11.85 -41.58,-17.77 -3,7.25 -6.36,14.36 -9.07,21.73 M 73.45,559.09 c -1.02,7.36 1.93,14.53 2.03,21.85 -0.17,3.38 -4.74,5.01 -7.23,2.92 -4.71,-3.75 -6.81,-12.32 -0.87,-15.99 -1.12,-2.8 -2.3,-5.58 -3.63,-8.29 -2.75,1.89 -5.6,3.99 -6.97,7.17 -2.74,5.94 -0.81,12.82 2.26,18.24 2.41,4.41 6.71,8.27 11.98,8.38 5.68,0.11 12.24,-3.37 13.2,-9.41 1.01,-7.39 -2.5,-14.56 -1.82,-21.93 0.78,-3.52 5.89,-4.19 8.06,-1.56 2.82,3.12 4.81,7.36 4.45,11.63 -0.18,2.47 -2.28,4.02 -4,5.51 1.13,2.73 2.27,5.46 3.41,8.2 3.06,-1.61 6.06,-3.77 7.47,-7.04 2.76,-6 0.76,-12.91 -1.97,-18.54 -2.63,-5.25 -7.58,-10.3 -13.86,-10.13 -5.37,0.12 -11.48,3.27 -12.51,8.99 m 16.81,37.8 c 0.18,7.36 4.09,13.96 5.23,21.15 0.2,3.18 -3.68,5.39 -6.42,4.01 -5.41,-2.87 -8.97,-11.3 -3.5,-15.87 -1.55,-2.54 -3.09,-5.1 -4.65,-7.64 -2.71,2.18 -5.23,4.85 -6.08,8.33 -1.7,6.17 1.16,12.49 4.87,17.33 3.06,4.13 8.05,7.45 13.4,6.63 5.8,-0.77 11.79,-5.56 11.45,-11.86 -0.41,-6.97 -4.27,-13.17 -5.02,-20.06 -0.43,-3.66 4.49,-5.82 7.24,-3.75 3.55,2.49 6.14,6.57 6.62,10.91 0.3,2.59 -1.61,4.52 -3.2,6.28 1.56,2.56 3.12,5.12 4.69,7.67 4.55,-3.1 7.78,-8.47 6.73,-14.11 -1.35,-7.58 -5.76,-15.11 -12.7,-18.8 -7.2,-4 -18.4,1.17 -18.66,9.78 m 474.11,-4.42 c -11.87,4.16 -19.26,19.62 -12.67,30.92 4.83,7.68 13.39,13.11 22.39,14.23 14.35,1.2 26.17,-15.1 21.7,-28.49 -2.23,-6.46 -7.77,-11.09 -13.59,-14.29 -5.36,-2.95 -11.91,-4.47 -17.83,-2.37 m -462.58,61.16 c 2.33,2.8 4.67,5.59 7.04,8.37 14.97,-5.62 29.98,-11.11 44.96,-16.69 -2.12,-2.54 -4.25,-5.08 -6.35,-7.63 -3.08,1.17 -6.14,2.37 -9.21,3.57 -3.57,-4.27 -7.15,-8.53 -10.71,-12.81 1.77,-2.73 3.53,-5.46 5.29,-8.19 -2.19,-2.62 -4.38,-5.24 -6.56,-7.86 -8.21,13.71 -16.32,27.49 -24.46,41.24 m 416.9,-6.72 c 2.05,1.79 4.1,3.59 6.18,5.36 4.94,-5.63 9.86,-11.27 14.87,-16.83 9.19,8.22 18.49,16.31 27.72,24.5 2.09,-2.36 4.17,-4.73 6.25,-7.09 -11.29,-9.89 -22.44,-19.95 -33.83,-29.71 -7.34,7.65 -14.1,15.88 -21.19,23.77 z"
       id="path4348"
       inkscape:connector-curvature="0"
       style="fill:#026b38" />
    <path
       d="m 393.44,175.62 c 6.05,-2.53 13.86,1.04 15.47,7.51 1.47,6.4 -0.05,13.59 -3.97,18.86 -4.06,5.47 -12.92,5.56 -17.42,0.61 -3.64,-3.89 -3.68,-9.76 -2.56,-14.67 1.04,-4.96 3.52,-10.26 8.48,-12.31 z"
       id="path4350"
       inkscape:connector-curvature="0"
       style="fill:#026b38" />
    <path
       d="m 256.84,180.38 c 3.7,-0.9 7.36,-2.14 11.19,-2.38 6.08,-0.64 8.44,9.58 3.08,12.07 -3.49,1.56 -7.3,2.18 -10.97,3.2 -1.13,-4.29 -2.26,-8.58 -3.3,-12.89 z"
       id="path4352"
       inkscape:connector-curvature="0"
       style="fill:#026b38" />
    <path
       d="m 223.36,214.29 c -0.61,-6.31 -1.2,-12.61 -1.8,-18.91 4.12,4.78 8.25,9.57 12.38,14.35 -3.53,1.52 -7.05,3.05 -10.58,4.56 z"
       id="path4354"
       inkscape:connector-curvature="0"
       style="fill:#026b38" />
    <path
       d="m 283.92,229.13 c 57.97,-13.27 120.76,-4.15 172.38,25.45 34.65,19.62 64.31,47.95 85.53,81.65 23.18,36.54 36.16,79.47 37.06,122.74 1.2,46.24 -11.5,92.69 -35.77,132.04 -17.36,28.66 -41.03,53.25 -68.29,72.65 10.88,2.14 21.75,4.28 32.62,6.43 -30.87,25.56 -67.48,44.21 -106.44,53.74 -45.66,11.36 -94.35,10.23 -139.43,-3.24 -35.33,-10.42 -68.33,-28.41 -96.47,-52.14 10.9,-2.03 21.8,-4.07 32.71,-6.08 C 167.77,640.53 142,612.5 124.43,579.67 102.61,539.66 92.89,493.3 96.12,447.88 98.35,414.84 107.59,382.3 123,352.99 c 16.24,-31.03 39.35,-58.44 67.12,-79.76 27.59,-21.25 59.82,-36.48 93.8,-44.1 m 26.16,13.82 c -36.46,4.38 -71.75,18.03 -101.68,39.29 -32.75,23.1 -59.18,55.12 -75.46,91.76 -13.75,30.63 -20.31,64.43 -19.19,97.98 1.22,43.58 15.79,86.65 41.14,122.11 23.02,32.46 54.82,58.62 91.15,74.86 39.55,17.89 84.36,23.47 127.18,16.63 -0.74,2.1 -1.47,4.2 -2.19,6.32 1.71,-0.3 3.42,-0.59 5.13,-0.88 0.73,-2.13 1.47,-4.26 2.22,-6.38 49.06,-9.05 94.67,-35.29 127.35,-72.95 26.78,-30.53 44.99,-68.52 51.86,-108.55 7.58,-43.5 2.02,-89.26 -16.19,-129.51 C 525.08,337.08 498.66,305.15 465.94,282.11 421.25,250.27 364.51,236.1 310.08,242.95 m 133.94,433.07 c 0.29,5.78 3.48,11.43 8.22,14.74 6.03,4.22 15.02,0.89 18.03,-5.49 1.48,-2.96 0.83,-6.32 0.31,-9.42 -1.69,0.91 -3.37,1.83 -5.05,2.77 0.96,3.86 -1.32,8.14 -5.45,8.62 -5.2,0.3 -8.39,-4.97 -9.86,-9.27 -1.57,-3.82 0.77,-8.41 4.83,-9.23 2.2,-0.8 4.08,0.88 5.89,1.85 1.67,-0.94 3.34,-1.89 5,-2.84 -1.69,-1.63 -3.42,-3.4 -5.77,-3.99 -7.53,-2.12 -16.55,4.19 -16.15,12.26 M 211.34,665.19 c -5.35,3.66 -9.03,10.33 -8.33,16.89 1.12,7.3 9.91,12.47 16.79,9.57 2,-0.86 3.59,-2.41 5.25,-3.76 -1.67,-0.99 -3.33,-1.96 -5.01,-2.92 -1.3,0.78 -2.53,1.74 -4.01,2.18 -3.98,0.64 -8.05,-3.04 -7.3,-7.13 0.66,-3.98 2.79,-7.88 6.13,-10.21 3.14,-2.25 7.88,-0.67 9.53,2.67 0.49,1.44 0.22,3.01 0.34,4.53 1.65,0.96 3.31,1.89 4.99,2.83 0.34,-1.92 0.98,-3.85 0.7,-5.81 -1.1,-8.32 -12.01,-13.61 -19.08,-8.84 m 25.14,7.74 c -3.68,8.6 -7.43,17.15 -11.07,25.76 1.78,0.74 3.57,1.51 5.36,2.27 1.66,-3.85 3.32,-7.68 4.98,-11.52 3.34,1.44 6.69,2.88 10.03,4.33 -1.66,3.83 -3.32,7.68 -4.98,11.52 1.79,0.77 3.58,1.54 5.37,2.32 3.7,-8.57 7.4,-17.14 11.09,-25.72 -1.79,-0.77 -3.58,-1.55 -5.37,-2.31 -1.4,3.24 -2.8,6.49 -4.2,9.74 -3.35,-1.44 -6.69,-2.88 -10.03,-4.32 1.39,-3.25 2.78,-6.48 4.21,-9.71 -1.8,-0.8 -3.59,-1.58 -5.39,-2.36 m 185.19,7.68 c -3.56,3.88 -1.7,11.28 3.39,12.81 4.65,0.86 9.2,-1.39 13.86,-1.16 1.99,0.18 3.12,2.84 1.79,4.39 -2.6,3.52 -8.38,4.91 -11.34,1.04 -1.65,0.75 -3.29,1.49 -4.92,2.25 4.07,8.06 15.43,5.62 20.32,-0.24 3.38,-3.77 2.02,-10.92 -2.83,-12.71 -4.99,-1.24 -9.94,1.25 -14.93,1.05 -1.73,-0.58 -2.51,-2.89 -1.35,-4.35 2.38,-3.13 7.44,-4.09 10.09,-0.74 1.68,-0.72 3.35,-1.45 5.03,-2.19 -1.69,-2.27 -3.72,-4.66 -6.73,-4.97 -4.55,-0.54 -9.31,1.48 -12.38,4.82 m -170.68,28.87 c 1.96,0.58 3.93,1.18 5.9,1.77 1.18,-1.67 2.36,-3.32 3.55,-4.97 3.29,0.99 6.58,1.97 9.88,2.94 0.02,2.02 0.05,4.04 0.08,6.07 2.03,0.59 4.05,1.19 6.08,1.8 -0.51,-9.9 -0.88,-19.81 -1.5,-29.71 -2.14,-0.62 -4.27,-1.25 -6.4,-1.87 -5.88,7.98 -11.73,15.98 -17.59,23.97 m 35.64,-18.9 c -1.66,9.2 -3.32,18.4 -4.96,27.61 1.9,0.26 3.81,0.81 5.75,0.68 0.75,-3.17 1.19,-6.41 1.77,-9.62 3.55,0.5 7.14,1.72 10.76,1.09 7.14,-1.67 9.02,-13.37 2.09,-16.55 -4.94,-1.83 -10.29,-2.09 -15.41,-3.21 m 83.63,2.73 c -9.5,3.5 -9.67,16.56 -4.4,23.7 5.57,7.33 18.67,5.62 22.4,-2.72 2.21,-5.42 1.2,-11.87 -1.78,-16.8 -3.38,-5.24 -10.72,-6.56 -16.22,-4.18 m 25.29,5.37 c 0.53,1.9 1.06,3.82 1.59,5.74 5.85,-1.6 11.72,-3.14 17.56,-4.83 -0.55,-1.9 -1.08,-3.79 -1.61,-5.67 -5.86,1.52 -11.7,3.16 -17.54,4.76 m -86.78,23.94 c 7.07,0.48 14.13,1 21.2,1.49 0.11,-1.66 0.22,-3.3 0.34,-4.94 -5.16,-0.37 -10.32,-0.73 -15.48,-1.09 0.17,-2.42 0.34,-4.82 0.51,-7.23 4.54,0.31 9.09,0.63 13.63,0.96 0.11,-1.66 0.22,-3.31 0.34,-4.95 -4.54,-0.32 -9.07,-0.65 -13.6,-0.97 0.13,-1.96 0.26,-3.92 0.4,-5.87 4.94,0.35 9.88,0.7 14.83,1.06 0.11,-1.66 0.23,-3.31 0.35,-4.96 -6.85,-0.48 -13.7,-0.98 -20.55,-1.44 -0.64,9.31 -1.35,18.62 -1.97,27.94 m 27.58,-21.32 c -2.6,5.29 -2.42,11.91 0.25,17.14 3.66,7.21 14.88,8.11 20.06,2.15 1.75,-1.91 2.33,-4.5 3.15,-6.87 -1.94,0.05 -3.87,0.13 -5.8,0.22 -0.96,1.94 -1.77,4.4 -4.1,5.05 -3.17,1.3 -7.02,-0.31 -8.26,-3.5 -1.38,-3.69 -1.69,-8.01 -0.08,-11.68 1.48,-3.55 6.29,-4.7 9.46,-2.78 1.21,0.95 1.82,2.42 2.67,3.69 1.94,-0.12 3.89,-0.22 5.84,-0.34 -0.9,-2.23 -1.69,-4.64 -3.54,-6.27 -5.65,-5.09 -16.09,-3.77 -19.65,3.19 z"
       id="path4356"
       inkscape:connector-curvature="0"
       style="fill:#026b38" />
    <path
       d="m 321.57,248.84 c 52.59,-4.04 106.38,12.14 147.96,44.59 31.16,24.01 55.64,56.63 69.82,93.33 15.83,40.56 18.79,85.96 8.68,128.28 -8.7,36.81 -27.43,71.15 -53.46,98.57 -26.62,28.24 -60.96,49.15 -98.32,59.67 -34.8,9.81 -72.05,10.84 -107.3,2.72 -37.87,-8.57 -73.22,-27.74 -101.25,-54.59 -27.32,-26.01 -47.7,-59.26 -58.32,-95.46 -7.65,-25.84 -10.3,-53.12 -7.97,-79.95 2.92,-34.53 14.43,-68.27 33.13,-97.44 20.26,-31.8 48.98,-58.14 82.38,-75.64 26.15,-13.75 55.17,-22.02 84.65,-24.08 m 47.29,46.03 c -2.53,4.13 -2.36,9.23 -2.79,13.9 -4.52,1.22 -6.81,5.55 -10.5,7.97 -4.2,0.62 -8.4,-1.14 -12.61,-0.42 -4.38,0.75 -8.49,2.57 -12.83,3.47 -4.37,1.05 -8.95,0.73 -13.29,1.92 -5.59,1.49 -11.31,3.49 -15.65,7.47 -3.89,3.58 -4.79,9.07 -7.58,13.37 -3.29,4.1 -6.38,8.35 -9.76,12.37 -1.31,3.87 -0.73,8.14 -1.35,12.17 2.05,2.56 4.04,5.47 3.95,8.91 0.22,4.32 -2.44,8.57 -6.54,10.03 -2.46,1.34 -6.47,1.59 -6.98,4.97 -1.29,6.89 3.79,12.55 6.71,18.3 5.36,8.17 4.87,18.44 8.62,27.21 4.23,7.24 11.52,12.11 15.67,19.44 3.62,-1.06 7.68,-1.83 10.42,-4.64 1.9,-2.78 3.54,-5.76 4.93,-8.83 1.53,-3.34 -1.34,-6.32 -2.84,-9.07 -2.53,-3.64 -4.05,-7.88 -4.54,-12.28 -2.56,-20.52 -2.99,-41.69 2.64,-61.76 1.09,-4.09 3.66,-7.53 6.2,-10.84 4.21,-5.33 9.1,-10.3 15.06,-13.67 4.76,-2.71 10.88,-3.06 15.84,-0.65 2.77,1.31 3.98,4.27 5.64,6.64 1.8,2.89 5.27,3.96 7.66,6.25 4.8,4.14 6.96,10.77 5.97,16.98 -1.04,7.5 -3.58,15.25 -9.1,20.67 -3.23,3.33 -8.8,3.5 -11.25,7.7 -1.1,1.57 -0.05,3.7 1.58,4.38 3.62,1.78 7.98,1.88 11.8,0.71 4.56,-1.49 7.79,-5.22 11.28,-8.3 2.24,-2.12 4.86,-3.86 6.8,-6.29 2.3,-2.97 1.64,-7.11 3.71,-10.18 2.32,-3.44 2.74,-7.73 2.53,-11.76 -0.37,-3.54 -2.96,-6.44 -3.18,-10 0.6,-4.12 3.59,-7.67 3.22,-11.98 -0.25,-5.57 -4.31,-9.88 -5.79,-15.06 -0.78,-5.86 0.92,-11.78 0.07,-17.62 -1.35,-2.8 -4.48,-4.33 -5.67,-7.25 -0.91,-1.73 -1.08,-4.03 -2.89,-5.12 -1.58,-1.27 -4.14,-0.91 -5.16,0.89 m -142.89,81.61 c -4.35,0.42 -8.68,-1.08 -13.02,-0.4 -1.69,0.14 -3.38,1.78 -2.69,3.57 2.13,1.52 6.11,1.92 5.91,5.31 -0.42,8.51 -5.32,15.85 -8.71,23.42 -2.9,6.68 -1.64,14.15 -3.05,21.12 -1.46,3.03 -4.45,4.97 -6.16,7.85 -3.18,4.78 -2.34,10.97 -4.9,15.99 -2.27,2.97 -6.27,4.73 -7.26,8.59 -0.73,3.7 1.12,7.38 0.64,11.11 -0.54,3.58 -1.4,7.11 -2.29,10.62 -1.11,4.25 -5.71,6.29 -7.17,10.37 -0.76,4.32 -0.33,8.76 -1.1,13.08 -0.78,5.57 -4.24,10.19 -7.07,14.88 -3.08,4.6 -5.68,9.6 -9.51,13.64 -2.14,2.51 -5.9,2.43 -8.16,4.76 -1.34,1.37 -2.78,3.24 -2.1,5.28 1.99,1.23 4.46,0.88 6.68,0.99 14.3,-0.12 28.6,0.12 42.9,-0.11 3.46,-0.32 7.8,-4.69 5.75,-8.04 -6.08,-0.61 -13.22,-2.43 -15.9,-8.61 -1.32,-3.5 2.89,-5.67 3.24,-8.89 0.53,-3.9 0.85,-8.12 3.76,-11.1 23.07,0.11 46.15,0 69.22,0.05 4.85,-0.2 10.67,2.63 11.06,8.02 0.37,3.83 1.2,8.01 -0.04,11.72 -4.19,3.29 -9.55,6.11 -11.35,11.48 0.63,2.45 3.68,2.13 5.66,2.39 11.23,0.12 22.47,-0.01 33.7,0.06 5.1,0.56 8.9,-4.72 14.06,-3.54 3.67,0.99 6.97,3.39 10.92,3.28 4.66,-0.05 10.42,0.27 13.68,-3.74 1.28,-1.7 2.6,-5.04 0.01,-6.2 -3.45,-1.42 -7.28,-0.63 -10.87,-1.17 -1.66,-1.04 -2.62,-2.83 -3.68,-4.4 -5.15,-8.69 -8.92,-18.11 -13.94,-26.86 -2.06,-3.79 -5.97,-6.62 -6.65,-11.09 -0.28,-3.23 -0.48,-6.96 1.95,-9.47 2.28,-2.49 3.64,-6.02 2.39,-9.33 -1.14,-3.81 -5.48,-4.68 -8.55,-6.34 -2.75,-1.16 -4.49,-3.67 -5.97,-6.13 -4.21,-6.89 -11.33,-11.48 -15.15,-18.64 -3.54,-7.19 -3.61,-15.47 -6.44,-22.9 -3.04,-7.16 -8.69,-13.25 -9.89,-21.13 -0.39,-4.32 -0.01,-9.43 3.56,-12.41 2.67,-2.39 6.36,-2.93 9.3,-4.84 2.81,-5.03 -3.42,-9.13 -7.75,-9.89 -4.77,-1.76 -8.29,3.81 -12.94,2.76 -3.41,-2.14 -6.58,-5.18 -10.89,-5.18 -8.65,-1.4 -13.8,7.46 -21.19,10.07 m 183.19,-2.46 c -2.81,1.41 -7.04,2.18 -7.53,5.93 0.39,2.91 3.54,4.19 5.26,6.28 3.83,3.46 3.42,8.99 3.86,13.67 0.74,10.72 4.41,21.38 2.44,32.17 -0.78,4.32 -1.01,8.7 -1.37,13.06 -0.43,4.6 -3.45,8.38 -4.56,12.78 -0.63,4.9 4.39,8.32 4.27,13.16 -0.21,15.99 -0.41,31.98 -0.76,47.97 0.07,4.32 -2.39,8.02 -3.87,11.93 -1.19,2.99 -3.74,5.63 -7.03,6.1 -2.27,0.37 -4.42,1.25 -5.92,3.06 1.8,1.57 3.93,2.68 6.07,3.75 1.04,1.53 1.81,3.75 4.08,3.6 7.38,0.46 12.73,-6.38 19.92,-6.85 3.53,0.41 5.67,3.87 9.01,4.82 2.35,0.56 4.77,-0.08 7.06,-0.67 5.44,-1.55 11.3,-1.84 16.84,-0.57 3.82,0.86 7.2,3.04 11.03,3.87 3.33,0.44 7.19,0.13 9.64,-2.46 2.51,-2.7 4.71,-5.93 5.47,-9.58 0.56,-1.76 -1.25,-3.46 -2.93,-2.71 -1.99,1.09 -2.49,4.17 -4.96,4.51 -4.39,0.56 -8.85,-0.08 -13.18,-0.79 -3.02,-0.58 -5.05,-3.18 -5.9,-5.99 -1.14,-3.76 -5.38,-5.88 -5.68,-9.96 -0.6,-5.31 0.16,-10.73 -1.01,-15.98 -0.73,-3.36 -1.91,-6.8 -0.98,-10.25 0.87,-3.89 1.93,-7.81 1.58,-11.83 0.05,-3.25 -1,-7.03 1.19,-9.8 1.83,-2.29 3.31,-5.06 5.87,-6.61 3.09,-0.5 5.54,1.76 7.71,3.61 2.63,2.35 6.19,3.33 8.76,5.79 -1.05,4.86 -0.65,10.64 3.6,13.91 2.01,1.55 4.56,-0.62 5.11,-2.64 0.75,-2.82 1.19,-5.72 2.28,-8.44 1.52,-3.3 -1.35,-6.42 -1.16,-9.78 -0.69,-4.16 2.42,-7.33 3.63,-11.01 0.44,-3.59 -3.94,-5.47 -3.84,-8.97 -0.14,-6.51 1.16,-13.53 -1.87,-19.59 -1.63,-3 -7.02,-4.83 -9.03,-1.32 -1.06,4.65 1.6,9.18 1.15,13.83 -0.86,4.45 -5.59,5.97 -8.49,8.82 -2.75,3.82 -8.68,4.17 -12.31,1.6 -2.6,-3.19 -2.75,-7.54 -2.92,-11.46 -0.23,-15.58 -0.45,-31.34 2.68,-46.68 1.55,-3.33 5.46,-4.16 8.58,-5.34 3.88,-1.28 6.72,-5.13 11.07,-5.04 7.44,-0.21 14.41,2.91 20.94,6.14 5.94,2.7 11.02,8.35 11.55,15.05 0.9,5.77 4.15,11.01 4.27,16.91 -0.51,6.05 -9.58,7.67 -8.98,14 2.81,2.84 7.82,3.36 11.15,0.98 9.91,-4.27 17.15,-14.18 17.61,-25.04 0.39,-5.99 -2.78,-11.33 -4.08,-17.01 -1.33,-6.43 0.2,-12.95 1.97,-19.13 0.69,-1.85 -0.3,-4.38 -2.49,-4.43 -1.86,-0.12 -2.4,2.04 -3.42,3.19 -1.79,3.17 -6.03,4.96 -9.4,3.23 -3.58,-1.47 -7.74,-0.83 -11.07,-2.99 -7.42,-4.65 -16.58,-4.82 -25.03,-4.01 -3.78,0.29 -7.31,1.82 -10.4,3.95 -3.66,2.66 -8.77,2.32 -12.58,0.17 -3.16,-1.69 -6.21,-4.2 -10,-4.02 -6.37,-0.47 -10.57,6.44 -17.02,5.44 -3.55,-0.09 -5.54,-3.32 -8.15,-5.19 -3.04,-1.56 -5.18,1.84 -7.73,2.86 m -47.68,125.8 c 0.95,2.71 2.93,4.8 4.64,7.05 1.95,2.35 0.59,5.94 2.7,8.23 2.12,2.52 3.33,5.65 3.35,8.97 0.15,5.38 2.76,10.43 2.11,15.87 -0.16,7.16 -3.79,13.49 -6.47,19.94 -1.16,2.3 -2.2,5.17 -4.9,6.06 -3.75,1.38 -6.62,4.91 -10.84,4.95 -4.54,0.18 -9.49,0.05 -13.36,-2.62 -3.85,-2.52 -5.68,-7.01 -9.24,-9.85 -4.41,-3.66 -9.46,-6.74 -12.66,-11.65 -3.6,1.34 -7.14,2.99 -10.94,3.7 -6.71,0.37 -13.44,-0.14 -20.15,0.19 -3.25,2.56 -7.23,5.8 -6.97,10.38 1.09,3.02 4.44,4.46 5.8,7.36 2.91,5.54 6.98,10.34 10.91,15.18 3.63,4 7.27,8.38 12.37,10.55 3.65,1.53 6.98,4.06 11.05,4.42 9.04,0.96 18.44,0.89 27.13,-2.07 4.3,-1.4 8.46,-3.65 13.1,-3.62 3.51,-0.05 7.09,-0.16 10.53,0.66 1.8,0.37 2.28,2.37 3.27,3.67 1.45,2.66 4.4,4.48 4.64,7.74 0.27,2.12 1.5,6.02 4.33,4.19 4.26,-2.98 6.07,-8.09 9.07,-12.13 1.27,-1.63 2.05,-3.56 2.24,-5.61 1.55,-12.1 0.4,-24.38 2.05,-36.48 0.53,-3.93 -3.52,-6.01 -5.35,-8.92 -3.86,-4.52 -2.35,-10.76 -1.6,-16.07 -0.81,-2.81 -4.43,-3.8 -4.94,-6.77 -0.84,-3.1 -1.97,-6.13 -3.68,-8.85 -2.45,-4.43 -6.84,-7.47 -8.74,-12.24 -1.39,-3.88 -6.33,-3.74 -9.45,-2.23 m -61.52,122.69 c -2.37,3.82 -6,6.55 -9.96,8.56 0.01,1.34 0.02,2.69 0.04,4.04 2.96,-1.36 5.78,-3 8.39,-4.96 -0.09,8.83 -0.02,17.65 -0.04,26.48 1.39,-0.01 2.79,-0.02 4.19,-0.01 -0.01,-11.41 0,-22.83 -0.01,-34.24 -0.87,0.03 -1.74,0.07 -2.61,0.13 m 18.11,1.62 c -7,4.62 -6.34,17.28 1.81,20.31 4.3,1.8 8.88,-0.39 11.8,-3.61 -0.55,3.47 -0.63,7.28 -2.82,10.22 -1.7,2.49 -5.28,3.41 -8,2.15 -1.88,-0.87 -2.36,-3.08 -3.2,-4.75 -1.34,0.09 -2.67,0.19 -4,0.3 0.84,2.44 1.56,5.26 3.89,6.74 4.3,2.87 10.81,2.14 14.16,-1.88 3.15,-3.75 3.73,-8.89 3.9,-13.6 0,-4.61 -0.16,-9.71 -3.12,-13.5 -3.31,-4.28 -9.91,-5.39 -14.42,-2.38 m 21.9,-1.09 c 0,1.35 0,2.7 0,4.05 5.52,-0.01 11.05,0.03 16.57,-0.02 -6.82,8.34 -11.12,18.77 -11.92,29.54 1.43,0 2.86,0.01 4.29,0.03 0.99,-10.53 5.18,-20.69 11.84,-28.9 1.3,-1.24 1.25,-3.05 1.44,-4.69 -7.41,-0.02 -14.82,0 -22.22,-0.01 m 30.02,1.86 c -1.9,1.6 -2.6,4.06 -3.46,6.29 1.36,0.27 2.72,0.55 4.09,0.84 0.88,-2.28 1.74,-5.14 4.4,-5.86 3.67,-1.46 8.4,1.68 7.5,5.81 -0.36,3.74 -4.43,4.83 -7.55,5.07 -0.13,0.8 -0.38,2.41 -0.51,3.21 3.22,-0.42 7.27,-0.2 8.87,3.17 2.78,4.85 -1.92,11.46 -7.42,10.24 -3.37,-0.34 -4.76,-3.79 -5.64,-6.57 -1.4,0.18 -2.79,0.37 -4.18,0.57 0.76,2.42 1.44,5.06 3.46,6.78 5.33,4.89 15.21,3.01 18.16,-3.67 2.23,-4.72 0.1,-11.3 -5.29,-12.6 3.24,-1.73 5.35,-5.39 4.15,-9.06 -1.83,-6.88 -11.56,-8.78 -16.58,-4.22 z"
       id="path4358"
       inkscape:connector-curvature="0"
       style="fill:#026b38" />
    <path
       d="m 102.32,287.47 c 5.61,-2.19 11.56,0.73 15.94,4.2 4.07,3.11 7.63,8.03 6.63,13.42 -0.95,6.28 -7.59,11.04 -13.86,9.45 -6.02,-1.52 -11.58,-5.51 -14.71,-10.91 -3.37,-5.79 -0.16,-13.83 6,-16.16 z"
       id="path4360"
       inkscape:connector-curvature="0"
       style="fill:#026b38" />
    <path
       d="m 561.01,321.63 c 8.49,-4.98 16.94,-10.02 25.41,-15.05 2.15,4.1 5.53,7.78 6.28,12.46 0.24,5.78 -5.18,9.53 -9.63,12.11 -4.49,2.46 -10.66,4.43 -15.15,0.97 -3.07,-2.92 -4.7,-6.95 -6.91,-10.49 z"
       id="path4362"
       inkscape:connector-curvature="0"
       style="fill:#026b38" />
    <path
       d="m 74.79,335.03 c 6.23,0.95 12.46,1.93 18.69,2.89 -1.69,3.43 -3.38,6.86 -5.07,10.3 -4.59,-4.35 -9.09,-8.79 -13.62,-13.19 z"
       id="path4364"
       inkscape:connector-curvature="0"
       style="fill:#026b38" />
    <path
       d="m 227.94,419.99 c 2.05,-2.72 7.27,-5.21 9.59,-1.65 2.03,10.24 7.13,19.47 11,29.07 4.08,8.68 -0.18,19.04 4.46,27.56 2.3,4.58 7.08,7.12 9.87,11.31 1.47,2.18 -0.04,4.58 -0.89,6.67 -19.49,0.11 -38.99,0.03 -58.49,0.04 0.09,-2.55 0.47,-5.07 1.12,-7.52 1.12,-4.34 1.61,-8.98 4.16,-12.79 1.71,-3.15 5.03,-5.46 5.55,-9.19 0.54,-4.47 0,-9.16 1.86,-13.38 1.26,-3.99 4.85,-6.83 5.58,-11.02 1.75,-6.42 2.14,-13.57 6.19,-19.1 z"
       id="path4366"
       inkscape:connector-curvature="0"
       style="fill:#026b38" />
    <path
       d="m 47.92,421.26 c 6.22,-0.99 12.45,-1.98 18.67,-2.96 -0.55,3.79 -1.11,7.57 -1.65,11.37 -5.69,-2.77 -11.37,-5.57 -17.02,-8.41 z"
       id="path4368"
       inkscape:connector-curvature="0"
       style="fill:#026b38" />
    <path
       d="m 425.92,451.93 c 0.58,-3.27 2.07,-6.32 3.94,-9.04 2.46,2.7 5.94,5.12 6.13,9.11 0.07,2.78 3.25,4.33 3.27,7.02 -2.65,2.22 -6.75,2.71 -9.94,1.56 -2.07,-2.35 -3.71,-5.43 -3.4,-8.65 z"
       id="path4370"
       inkscape:connector-curvature="0"
       style="fill:#026b38" />
    <path
       d="m 195.96,461.06 c 2.69,-1.15 4.78,-3.2 7.04,-4.99 0.4,2.69 2.1,5.15 2.16,7.84 -2.01,1.83 -4.1,3.58 -6.22,5.27 -4.76,1.87 -6.92,-6.16 -2.98,-8.12 z"
       id="path4372"
       inkscape:connector-curvature="0"
       style="fill:#026b38" />
    <path
       d="m 272.31,457.35 c 2.08,-1.55 3.63,1.28 5.33,2.16 1.54,1.58 4.98,0.75 5.26,3.42 0.26,2.42 2.96,5.09 1.39,7.36 -3.89,0.75 -9.13,4.09 -12.46,0.62 0.3,-4.49 -2.87,-9.7 0.48,-13.56 z"
       id="path4374"
       inkscape:connector-curvature="0"
       style="fill:#026b38" />
    <path
       d="m 62.49,517.6 c 4.83,-1.14 10.61,-1.24 14.52,2.29 5.18,4.45 5.12,13.53 -0.46,17.64 -5.21,3.84 -12.2,5.51 -18.55,4.16 -6.57,-1.48 -10.35,-9.4 -7.72,-15.52 2.01,-4.95 7.3,-7.43 12.21,-8.57 z"
       id="path4376"
       inkscape:connector-curvature="0"
       style="fill:#026b38" />
    <path
       d="m 579.32,572.98 c 1.14,-4.7 3.55,-8.96 5.31,-13.44 3.72,1.57 7.44,3.15 11.13,4.8 -2.31,4.54 -3.49,9.74 -6.63,13.82 -3.4,4.18 -11.15,-0.08 -9.81,-5.18 z"
       id="path4378"
       inkscape:connector-curvature="0"
       style="fill:#026b38" />
    <path
       d="m 597.58,581.07 c 0.73,-4.9 3.46,-9.2 5.17,-13.79 3.04,1.29 6.08,2.58 9.09,3.92 -2.16,4.42 -3.4,9.37 -6.37,13.35 -2.47,3.36 -8.52,0.53 -7.89,-3.48 z"
       id="path4380"
       inkscape:connector-curvature="0"
       style="fill:#026b38" />
    <path
       d="m 565.3,601.45 c 4.89,-1.83 10.17,0.18 14.33,2.86 4.09,2.63 8.08,6.53 8.5,11.66 0.63,6.6 -5.33,13.02 -12.04,12.46 -6.58,-0.69 -12.79,-4.63 -16.5,-10.05 -4,-5.84 -0.84,-14.59 5.71,-16.93 z"
       id="path4382"
       inkscape:connector-curvature="0"
       style="fill:#026b38" />
    <path
       d="m 322.19,626.29 c 4.87,-2.09 9.37,3.12 8.79,7.78 0.31,4.59 -4.35,8.8 -8.88,6.98 -6.35,-2.18 -5.84,-12.37 0.09,-14.76 z"
       id="path4384"
       inkscape:connector-curvature="0"
       style="fill:#026b38" />
    <path
       d="m 123.21,635.51 c 2.49,2.93 4.97,5.87 7.42,8.83 -5.86,2.37 -11.72,4.74 -17.58,7.09 3.37,-5.32 6.79,-10.6 10.16,-15.92 z"
       id="path4386"
       inkscape:connector-curvature="0"
       style="fill:#026b38" />
    <path
       d="m 263.3,702.09 c 2.22,-3.23 4.44,-6.46 6.67,-9.67 0.07,3.89 0.12,7.79 0.16,11.7 -2.28,-0.68 -4.55,-1.36 -6.83,-2.03 z"
       id="path4388"
       inkscape:connector-curvature="0"
       style="fill:#026b38" />
    <path
       d="m 291.54,696.35 c 2.42,0.5 4.96,0.72 7.24,1.75 3.21,1.49 1.78,7.57 -1.8,7.4 -2.33,-0.07 -4.61,-0.62 -6.9,-0.98 0.48,-2.73 0.97,-5.45 1.46,-8.17 z"
       id="path4390"
       inkscape:connector-curvature="0"
       style="fill:#026b38" />
    <path
       d="m 373.38,697.54 c 3.24,-1.12 7,0.42 8.51,3.49 1.84,3.75 2.62,8.6 0.47,12.39 -2.63,4.37 -10.02,4.25 -12.29,-0.44 -2.73,-4.85 -3.18,-13.5 3.31,-15.44 z"
       id="path4392"
       inkscape:connector-curvature="0"
       style="fill:#026b38" />
  </g>
  <g
     id="#ffffffff"
     transform="matrix(1.0000244,0,0,1.0000267,-0.00823975,5.2512e-5)">
    <path
       d="m 251.96,149.52 c 39.9,-10.82 81.85,-13.85 122.9,-9.14 49.07,5.61 96.81,22.6 138.32,49.37 62.28,39.69 110.47,101.08 133.82,171.17 15.42,45.45 20.3,94.35 14.85,142 -5.08,44.53 -19.49,88 -42.21,126.64 -22.98,39.4 -54.58,73.53 -91.41,100.35 0.03,-18.58 0.1,-37.15 0.14,-55.72 -4.05,-0.8 -8.09,-1.61 -12.14,-2.38 -29.46,25.42 -64.32,44.61 -101.67,55.56 -46.45,13.81 -96.6,14.85 -143.59,3.01 -42.26,-10.5 -81.89,-31.38 -114.5,-60.24 -4.91,0.78 -9.78,1.79 -14.67,2.69 0.83,18.55 1.69,37.11 2.52,55.67 C 116.27,707.57 91.12,682.62 70.81,654.06 49.21,623.88 32.89,589.94 22.8,554.22 7.54,500.38 6.45,442.59 19.62,388.2 36.53,317.23 78.39,252.67 135.88,207.83 c 34.24,-26.98 73.99,-46.95 116.08,-58.31 m 9.92,4.65 C 221.45,163.95 183,181.8 149.39,206.31 118.14,229.07 91,257.48 69.8,289.82 47.07,324.3 31.2,363.26 23.32,403.8 c -9.19,47.82 -7.67,97.79 5.3,144.78 8.58,31.71 22.19,62.06 40.17,89.55 18.43,28.46 41.64,53.69 67.89,75.1 -0.69,-15.39 -1.41,-30.78 -2.1,-46.17 15.62,-2.93 31.25,-5.77 46.85,-8.77 -4.98,-4.59 -10.39,-8.7 -15.18,-13.5 -29.65,-27.84 -52.34,-63.11 -65.11,-101.74 -18.16,-54.39 -16.65,-115.12 4.38,-168.49 14.38,-36.92 37.85,-70.23 67.62,-96.37 27.83,-24.53 61.22,-42.77 96.97,-52.74 59.04,-16.73 124.25,-10.54 178.94,17.35 36.74,18.48 68.71,46.28 92.23,80.01 25.32,36.1 40.73,79.1 43.94,123.09 3.63,46.19 -6.31,93.3 -28.07,134.19 -16.13,30.81 -38.96,57.95 -66.07,79.67 14.77,2.89 29.54,5.78 44.31,8.71 -0.07,15.61 -0.09,31.22 -0.14,46.83 27.96,-22.01 52.29,-48.65 71.56,-78.57 20.21,-31.35 34.78,-66.33 42.77,-102.76 10.58,-47.9 9.85,-98.21 -1.85,-145.82 -9.89,-39.93 -27.6,-77.9 -51.86,-111.12 -22.72,-31.2 -51.11,-58.27 -83.37,-79.46 -41.36,-27.26 -89.17,-44.66 -138.39,-50.26 -37.42,-4.31 -75.61,-2.04 -112.23,6.86 m 22.04,74.96 c -33.98,7.62 -66.21,22.85 -93.8,44.1 -27.77,21.32 -50.88,48.73 -67.12,79.76 -15.41,29.31 -24.65,61.85 -26.88,94.89 -3.23,45.42 6.49,91.78 28.31,131.79 17.57,32.83 43.34,60.86 73.39,82.7 -10.91,2.01 -21.81,4.05 -32.71,6.08 28.14,23.73 61.14,41.72 96.47,52.14 45.08,13.47 93.77,14.6 139.43,3.24 38.96,-9.53 75.57,-28.18 106.44,-53.74 -10.87,-2.15 -21.74,-4.29 -32.62,-6.43 27.26,-19.4 50.93,-43.99 68.29,-72.65 24.27,-39.35 36.97,-85.8 35.77,-132.04 -0.9,-43.27 -13.88,-86.2 -37.06,-122.74 -21.22,-33.7 -50.88,-62.03 -85.53,-81.65 -51.62,-29.6 -114.41,-38.72 -172.38,-25.45 z"
       id="path4395"
       inkscape:connector-curvature="0"
       style="fill:#ffffff" />
    <path
       d="m 338.44,165.47 c 6.69,-5.92 17.2,-6.07 24.76,-1.73 4.98,2.82 7.79,8.3 8.47,13.85 -3.15,-0.1 -6.29,-0.25 -9.43,-0.42 -0.92,-2.34 -1.65,-5.05 -3.92,-6.47 -4.03,-2.65 -10.02,-2.45 -13.45,1.13 -3.15,3.2 -4.07,7.89 -4.36,12.22 -0.19,4.07 0.29,8.44 2.68,11.88 3.14,4.67 10.48,5.57 14.75,1.99 1.81,-1.5 2.63,-3.77 3.57,-5.84 3.11,0.16 6.22,0.31 9.33,0.48 -1.58,5.69 -4.83,11.35 -10.43,13.86 -8.11,3.59 -18.9,1.99 -24.66,-5.07 -4.36,-5.37 -5.31,-12.66 -4.72,-19.35 0.5,-6.11 2.69,-12.41 7.41,-16.53 z"
       id="path4397"
       inkscape:connector-curvature="0"
       style="fill:#ffffff" />
    <path
       d="m 288.92,164.96 c 11.03,-1.19 22.06,-2.36 33.08,-3.54 0.28,2.66 0.56,5.31 0.84,7.96 -7.95,0.84 -15.9,1.7 -23.86,2.54 0.34,3.15 0.67,6.3 1,9.45 7.31,-0.77 14.61,-1.55 21.92,-2.33 0.28,2.63 0.57,5.26 0.86,7.89 -7.28,0.91 -14.6,1.6 -21.9,2.38 0.37,3.89 0.78,7.78 1.21,11.66 8.31,-0.88 16.62,-1.76 24.93,-2.64 0.28,2.65 0.56,5.29 0.84,7.94 -11.39,1.18 -22.77,2.48 -34.17,3.6 -1.53,-14.98 -3.18,-29.94 -4.75,-44.91 z"
       id="path4399"
       inkscape:connector-curvature="0"
       style="fill:#ffffff" />
    <path
       d="m 392.19,167.21 c 8.22,-1.68 17.35,1.29 22.68,7.85 4.03,4.99 4.69,11.85 3.65,17.99 -1.12,6.95 -4.07,14.21 -10.21,18.17 -9.88,6.1 -24.34,2.86 -30.59,-6.96 -4.3,-7.17 -3.2,-16.19 -0.43,-23.71 2.32,-6.57 7.87,-12.16 14.9,-13.34 m 1.25,8.41 c -4.96,2.05 -7.44,7.35 -8.48,12.31 -1.12,4.91 -1.08,10.78 2.56,14.67 4.5,4.95 13.36,4.86 17.42,-0.61 3.92,-5.27 5.44,-12.46 3.97,-18.86 -1.61,-6.47 -9.42,-10.04 -15.47,-7.51 z"
       id="path4401"
       inkscape:connector-curvature="0"
       style="fill:#ffffff" />
    <path
       d="m 245.69,175.22 c 6.78,-1.7 13.51,-3.59 20.3,-5.2 4.01,-1.02 8.61,-0.6 11.87,2.13 6.48,5.42 7.74,16.88 1.13,22.69 -4.8,3.83 -11.24,4.19 -16.9,6.01 1.38,5.25 2.74,10.52 4.1,15.78 -3.06,0.78 -6.11,1.57 -9.16,2.35 -3.78,-14.59 -7.57,-29.17 -11.34,-43.76 m 11.15,5.16 c 1.04,4.31 2.17,8.6 3.3,12.89 3.67,-1.02 7.48,-1.64 10.97,-3.2 5.36,-2.49 3,-12.71 -3.08,-12.07 -3.83,0.24 -7.49,1.48 -11.19,2.38 z"
       id="path4403"
       inkscape:connector-curvature="0"
       style="fill:#ffffff" />
    <path
       d="m 416.26,218.59 c 5.55,-14.01 11.06,-28.03 16.6,-42.04 10.31,4.05 20.61,8.14 30.93,12.18 -0.97,2.49 -1.95,4.97 -2.93,7.46 -7.44,-2.94 -14.87,-5.87 -22.31,-8.82 -1.17,2.95 -2.34,5.9 -3.5,8.85 6.83,2.68 13.65,5.41 20.5,8.06 -0.97,2.5 -1.95,5 -2.95,7.48 -6.82,-2.73 -13.66,-5.41 -20.49,-8.1 -1.45,3.64 -2.88,7.27 -4.27,10.93 7.66,3.2 15.7,5.74 23.11,9.39 -0.72,2.48 -1.82,4.82 -2.78,7.21 -10.63,-4.23 -21.29,-8.37 -31.91,-12.6 z"
       id="path4405"
       inkscape:connector-curvature="0"
       style="fill:#ffffff" />
    <path
       d="m 212.65,188.38 c 3.32,-1.51 6.67,-2.95 10.03,-4.38 10.81,11.77 21.79,23.37 32.5,35.23 -3.12,1.33 -6.24,2.67 -9.35,4.02 -2.13,-2.45 -4.24,-4.92 -6.33,-7.4 -4.98,2.19 -10.05,4.18 -14.96,6.51 -0.68,3.16 0.35,6.62 0.43,9.88 -3.04,1.34 -6.09,2.66 -9.14,3.96 -1.1,-15.93 -2.06,-31.88 -3.18,-47.82 m 10.71,25.91 c 3.53,-1.51 7.05,-3.04 10.58,-4.56 -4.13,-4.78 -8.26,-9.57 -12.38,-14.35 0.6,6.3 1.19,12.6 1.8,18.91 z"
       id="path4407"
       inkscape:connector-curvature="0"
       style="fill:#ffffff" />
    <path
       d="m 450.92,232.5 c 7.58,-13.03 15.22,-26.02 22.83,-39.03 2.89,1.68 5.77,3.37 8.61,5.12 -0.2,12.1 -0.32,24.2 -0.41,36.3 5.37,-9.06 10.64,-18.18 15.99,-27.26 2.53,1.48 5.07,2.96 7.61,4.44 -7.61,13.01 -15.23,26.02 -22.85,39.02 -2.72,-1.59 -5.44,-3.18 -8.14,-4.78 0.12,-12.44 0.24,-24.88 0.34,-37.32 -5.49,9.3 -10.91,18.64 -16.4,27.95 -2.52,-1.49 -5.05,-2.97 -7.58,-4.44 z"
       id="path4409"
       inkscape:connector-curvature="0"
       style="fill:#ffffff" />
    <path
       d="m 182.41,204.06 c 2.65,-1.7 5.31,-3.39 7.99,-5.06 8.08,12.71 16.2,25.39 24.3,38.09 -2.65,1.7 -5.3,3.39 -7.94,5.1 -3.67,-5.68 -7.3,-11.38 -10.9,-17.1 -4.98,3.1 -9.89,6.32 -14.88,9.41 3.54,5.77 7.27,11.43 10.88,17.16 -2.66,1.69 -5.31,3.38 -7.97,5.07 -8.11,-12.69 -16.19,-25.4 -24.31,-38.09 2.65,-1.71 5.31,-3.4 7.98,-5.09 3.06,4.82 6.12,9.64 9.21,14.44 4.93,-3.16 9.85,-6.34 14.83,-9.43 -2.98,-4.88 -6.13,-9.66 -9.19,-14.5 z"
       id="path4411"
       inkscape:connector-curvature="0"
       style="fill:#ffffff" />
    <path
       d="m 510.19,224.12 c 4.54,-2.45 10.11,-1.33 14.31,1.32 5.3,3.24 10.33,8.22 11.02,14.7 0.49,3.67 -1.06,7.15 -2.8,10.26 -2.39,-1.84 -4.72,-3.75 -7.05,-5.66 3.66,-6.15 -2.63,-12.87 -8.65,-13.73 -3.29,-0.41 -6.28,3.56 -4.4,6.51 3.53,5.95 8.95,10.74 11.65,17.19 2.62,6.85 -3.27,14.16 -9.83,15.73 -5.96,1.14 -11.82,-1.79 -16.23,-5.58 -4.09,-3.5 -7.84,-8.19 -8.02,-13.8 -0.23,-3.43 1.48,-6.53 3.1,-9.42 2.43,1.8 4.78,3.71 7.12,5.64 -4.24,6.51 2.63,13.13 8.61,14.91 3.42,1.39 7.81,-2.56 5.86,-6.05 -3.07,-6.21 -8.82,-10.74 -11.46,-17.2 -2.31,-5.78 1.69,-12.11 6.77,-14.82 z"
       id="path4413"
       inkscape:connector-curvature="0"
       style="fill:#ffffff" />
    <path
       d="m 129.54,253.87 c -2.06,-13.04 11.69,-25.63 24.47,-22.55 2.86,0.63 5.28,2.33 7.62,4 -2.32,2.12 -4.68,4.2 -7.07,6.25 -2.33,-1.12 -4.86,-2.56 -7.54,-1.86 -4.33,1.03 -8.14,4.77 -8.52,9.32 -0.37,4.41 1.97,8.48 4.67,11.78 2.82,3.4 6.42,6.54 10.86,7.46 5.65,1.21 11.71,-3.5 12.05,-9.23 0.14,-2.22 -0.83,-4.27 -1.53,-6.31 2.32,-2.09 4.65,-4.17 7.03,-6.2 2.5,4.86 4.27,10.52 2.6,15.96 -2.48,7.9 -9.98,14.15 -18.26,14.94 -6.23,0.5 -12.17,-2.55 -16.6,-6.73 -4.76,-4.49 -8.81,-10.22 -9.78,-16.83 z"
       id="path4415"
       inkscape:connector-curvature="0"
       style="fill:#ffffff" />
    <path
       d="m 310.08,242.95 c 54.43,-6.85 111.17,7.32 155.86,39.16 32.72,23.04 59.14,54.97 75.46,91.52 18.21,40.25 23.77,86.01 16.19,129.51 -6.87,40.03 -25.08,78.02 -51.86,108.55 -32.68,37.66 -78.29,63.9 -127.35,72.95 -0.75,2.12 -1.49,4.25 -2.22,6.38 -1.71,0.29 -3.42,0.58 -5.13,0.88 0.72,-2.12 1.45,-4.22 2.19,-6.32 -42.82,6.84 -87.63,1.26 -127.18,-16.63 -36.33,-16.24 -68.13,-42.4 -91.15,-74.86 -25.35,-35.46 -39.92,-78.53 -41.14,-122.11 -1.12,-33.55 5.44,-67.35 19.19,-97.98 16.28,-36.64 42.71,-68.66 75.46,-91.76 29.93,-21.26 65.22,-34.91 101.68,-39.29 m 11.49,5.89 c -29.48,2.06 -58.5,10.33 -84.65,24.08 -33.4,17.5 -62.12,43.84 -82.38,75.64 -18.7,29.17 -30.21,62.91 -33.13,97.44 -2.33,26.83 0.32,54.11 7.97,79.95 10.62,36.2 31,69.45 58.32,95.46 28.03,26.85 63.38,46.02 101.25,54.59 35.25,8.12 72.5,7.09 107.3,-2.72 37.36,-10.52 71.7,-31.43 98.32,-59.67 26.03,-27.42 44.76,-61.76 53.46,-98.57 10.11,-42.32 7.15,-87.72 -8.68,-128.28 -14.18,-36.7 -38.66,-69.32 -69.82,-93.33 -41.58,-32.45 -95.37,-48.63 -147.96,-44.59 z"
       id="path4417"
       inkscape:connector-curvature="0"
       style="fill:#ffffff" />
    <path
       d="m 515.68,278.1 c 11.1,-10.19 22.2,-20.39 33.31,-30.58 7.5,8.16 15,16.32 22.5,24.49 -1.98,1.8 -3.95,3.6 -5.93,5.39 -5.36,-5.91 -10.81,-11.73 -16.18,-17.64 -2.36,2.12 -4.69,4.27 -7.02,6.43 4.96,5.41 9.96,10.8 14.9,16.24 -1.97,1.79 -3.93,3.59 -5.89,5.4 -4.95,-5.42 -9.94,-10.81 -14.88,-16.23 -2.9,2.62 -5.77,5.27 -8.65,7.9 5.63,6.18 11.31,12.31 16.96,18.47 -1.97,1.8 -3.93,3.6 -5.89,5.4 -7.75,-8.42 -15.5,-16.83 -23.23,-25.27 z"
       id="path4419"
       inkscape:connector-curvature="0"
       style="fill:#ffffff" />
    <path
       d="m 101.43,278.6 c 6.35,-2.4 13.45,-0.5 18.99,3.03 5.64,3.54 10.95,8.53 12.73,15.17 3.59,13.88 -9.75,29.69 -24.23,26.86 -8.45,-1.88 -16.19,-7.47 -20.5,-14.99 -6.03,-11.26 1.48,-25.98 13.01,-30.07 m 0.89,8.87 c -6.16,2.33 -9.37,10.37 -6,16.16 3.13,5.4 8.69,9.39 14.71,10.91 6.27,1.59 12.91,-3.17 13.86,-9.45 1,-5.39 -2.56,-10.31 -6.63,-13.42 -4.38,-3.47 -10.33,-6.39 -15.94,-4.2 z"
       id="path4421"
       inkscape:connector-curvature="0"
       style="fill:#ffffff" />
    <path
       d="m 368.86,294.87 c 1.02,-1.8 3.58,-2.16 5.16,-0.89 1.81,1.09 1.98,3.39 2.89,5.12 1.19,2.92 4.32,4.45 5.67,7.25 0.85,5.84 -0.85,11.76 -0.07,17.62 1.48,5.18 5.54,9.49 5.79,15.06 0.37,4.31 -2.62,7.86 -3.22,11.98 0.22,3.56 2.81,6.46 3.18,10 0.21,4.03 -0.21,8.32 -2.53,11.76 -2.07,3.07 -1.41,7.21 -3.71,10.18 -1.94,2.43 -4.56,4.17 -6.8,6.29 -3.49,3.08 -6.72,6.81 -11.28,8.3 -3.82,1.17 -8.18,1.07 -11.8,-0.71 -1.63,-0.68 -2.68,-2.81 -1.58,-4.38 2.45,-4.2 8.02,-4.37 11.25,-7.7 5.52,-5.42 8.06,-13.17 9.1,-20.67 0.99,-6.21 -1.17,-12.84 -5.97,-16.98 -2.39,-2.29 -5.86,-3.36 -7.66,-6.25 -1.66,-2.37 -2.87,-5.33 -5.64,-6.64 -4.96,-2.41 -11.08,-2.06 -15.84,0.65 -5.96,3.37 -10.85,8.34 -15.06,13.67 -2.54,3.31 -5.11,6.75 -6.2,10.84 -5.63,20.07 -5.2,41.24 -2.64,61.76 0.49,4.4 2.01,8.64 4.54,12.28 1.5,2.75 4.37,5.73 2.84,9.07 -1.39,3.07 -3.03,6.05 -4.93,8.83 -2.74,2.81 -6.8,3.58 -10.42,4.64 -4.15,-7.33 -11.44,-12.2 -15.67,-19.44 -3.75,-8.77 -3.26,-19.04 -8.62,-27.21 -2.92,-5.75 -8,-11.41 -6.71,-18.3 0.51,-3.38 4.52,-3.63 6.98,-4.97 4.1,-1.46 6.76,-5.71 6.54,-10.03 0.09,-3.44 -1.9,-6.35 -3.95,-8.91 0.62,-4.03 0.04,-8.3 1.35,-12.17 3.38,-4.02 6.47,-8.27 9.76,-12.37 2.79,-4.3 3.69,-9.79 7.58,-13.37 4.34,-3.98 10.06,-5.98 15.65,-7.47 4.34,-1.19 8.92,-0.87 13.29,-1.92 4.34,-0.9 8.45,-2.72 12.83,-3.47 4.21,-0.72 8.41,1.04 12.61,0.42 3.69,-2.42 5.98,-6.75 10.5,-7.97 0.43,-4.67 0.26,-9.77 2.79,-13.9 z"
       id="path4423"
       inkscape:connector-curvature="0"
       style="fill:#ffffff" />
    <path
       d="m 549.53,317.69 c 12.99,-7.68 25.93,-15.44 38.96,-23.05 3.37,5.89 6.95,11.65 10.32,17.53 2.18,3.82 3.44,8.44 2.21,12.79 -1.59,5.93 -6.29,10.44 -11.41,13.52 -5.56,3.28 -12.14,5.5 -18.65,4.39 -4.69,-0.69 -8.67,-3.88 -11.1,-7.86 -3.53,-5.72 -6.86,-11.56 -10.33,-17.32 m 11.48,3.94 c 2.21,3.54 3.84,7.57 6.91,10.49 4.49,3.46 10.66,1.49 15.15,-0.97 4.45,-2.58 9.87,-6.33 9.63,-12.11 -0.75,-4.68 -4.13,-8.36 -6.28,-12.46 -8.47,5.03 -16.92,10.07 -25.41,15.05 z"
       id="path4425"
       inkscape:connector-curvature="0"
       style="fill:#ffffff" />
    <path
       d="m 59.44,314.35 c 2.15,2.21 5,4.83 4.1,8.27 -1.17,3.83 -5.02,5.89 -6.86,9.32 0.19,1.25 0.59,2.44 1.18,3.58 -0.56,1.13 -1.13,2.25 -1.7,3.39 -2.02,-2.22 -4.72,-4.64 -4.18,-7.98 0.43,-4.13 4.77,-5.98 6.6,-9.34 0.58,-1.31 -0.47,-2.57 -0.84,-3.77 0.56,-1.17 1.12,-2.32 1.7,-3.47 z"
       id="path4427"
       inkscape:connector-curvature="0"
       style="fill:#ffffff" />
    <path
       d="m 68.22,325.62 c 15.87,1.88 31.75,3.79 47.62,5.7 -1.52,3.07 -3.03,6.14 -4.54,9.21 -3.25,-0.52 -6.48,-1.05 -9.74,-1.47 -2.35,5.01 -4.85,9.94 -7.28,14.91 2.33,2.31 4.65,4.62 6.97,6.94 -1.47,2.98 -2.94,5.95 -4.41,8.93 -11.14,-11.49 -22.3,-22.96 -33.44,-34.46 1.62,-3.25 3.23,-6.5 4.82,-9.76 m 6.57,9.41 c 4.53,4.4 9.03,8.84 13.62,13.19 1.69,-3.44 3.38,-6.87 5.07,-10.3 -6.23,-0.96 -12.46,-1.94 -18.69,-2.89 z"
       id="path4429"
       inkscape:connector-curvature="0"
       style="fill:#ffffff" />
    <path
       d="m 570.07,353.35 c 13.99,-5.6 27.98,-11.22 41.98,-16.83 4.13,10.28 8.25,20.57 12.39,30.85 -2.48,1 -4.95,1.99 -7.42,2.99 -2.99,-7.43 -5.97,-14.85 -8.96,-22.28 -2.94,1.18 -5.88,2.36 -8.81,3.55 2.74,6.81 5.47,13.63 8.2,20.45 -2.48,0.99 -4.95,1.99 -7.42,2.98 -2.74,-6.81 -5.48,-13.63 -8.22,-20.45 -3.62,1.45 -7.24,2.9 -10.85,4.36 3.1,7.75 6.2,15.5 9.32,23.25 -2.47,1 -4.94,1.99 -7.41,2.98 -4.28,-10.61 -8.55,-21.23 -12.8,-31.85 z"
       id="path4431"
       inkscape:connector-curvature="0"
       style="fill:#ffffff" />
    <path
       d="m 58.22,361.24 c 3.1,-1.39 6.56,-1.28 9.87,-1.06 -0.86,3.02 -1.8,6.03 -2.74,9.04 -2.43,0.29 -5.16,0.31 -7.1,2.04 -3.69,3.3 -5.04,9.34 -2.25,13.62 2.42,3.83 6.75,5.84 10.93,7.14 3.74,1.12 7.86,1.63 11.63,0.37 5.43,-1.76 8.26,-8.7 5.89,-13.82 -0.98,-2.17 -3.02,-3.53 -4.79,-4.98 0.89,-2.98 1.8,-5.96 2.73,-8.93 6.65,3.48 11.65,10.26 11.31,18.01 1.36,0.89 2.73,1.78 4.1,2.66 0.04,2.33 0.07,4.67 0.09,7.01 -1.82,-1.17 -3.62,-2.35 -5.42,-3.53 -1.83,4.88 -4.96,9.55 -9.81,11.83 -7.79,3.71 -16.99,1.82 -24.47,-1.77 -6.46,-3.09 -11.72,-9.38 -12.04,-16.74 -0.37,-8.39 3.95,-17.64 12.07,-20.89 z"
       id="path4433"
       inkscape:connector-curvature="0"
       style="fill:#ffffff" />
    <path
       d="m 225.97,376.48 c 7.39,-2.61 12.54,-11.47 21.19,-10.07 4.31,0 7.48,3.04 10.89,5.18 4.65,1.05 8.17,-4.52 12.94,-2.76 4.33,0.76 10.56,4.86 7.75,9.89 -2.94,1.91 -6.63,2.45 -9.3,4.84 -3.57,2.98 -3.95,8.09 -3.56,12.41 1.2,7.88 6.85,13.97 9.89,21.13 2.83,7.43 2.9,15.71 6.44,22.9 3.82,7.16 10.94,11.75 15.15,18.64 1.48,2.46 3.22,4.97 5.97,6.13 3.07,1.66 7.41,2.53 8.55,6.34 1.25,3.31 -0.11,6.84 -2.39,9.33 -2.43,2.51 -2.23,6.24 -1.95,9.47 0.68,4.47 4.59,7.3 6.65,11.09 5.02,8.75 8.79,18.17 13.94,26.86 1.06,1.57 2.02,3.36 3.68,4.4 3.59,0.54 7.42,-0.25 10.87,1.17 2.59,1.16 1.27,4.5 -0.01,6.2 -3.26,4.01 -9.02,3.69 -13.68,3.74 -3.95,0.11 -7.25,-2.29 -10.92,-3.28 -5.16,-1.18 -8.96,4.1 -14.06,3.54 -11.23,-0.07 -22.47,0.06 -33.7,-0.06 -1.98,-0.26 -5.03,0.06 -5.66,-2.39 1.8,-5.37 7.16,-8.19 11.35,-11.48 1.24,-3.71 0.41,-7.89 0.04,-11.72 -0.39,-5.39 -6.21,-8.22 -11.06,-8.02 -23.07,-0.05 -46.15,0.06 -69.22,-0.05 -2.91,2.98 -3.23,7.2 -3.76,11.1 -0.35,3.22 -4.56,5.39 -3.24,8.89 2.68,6.18 9.82,8 15.9,8.61 2.05,3.35 -2.29,7.72 -5.75,8.04 -14.3,0.23 -28.6,-0.01 -42.9,0.11 -2.22,-0.11 -4.69,0.24 -6.68,-0.99 -0.68,-2.04 0.76,-3.91 2.1,-5.28 2.26,-2.33 6.02,-2.25 8.16,-4.76 3.83,-4.04 6.43,-9.04 9.51,-13.64 2.83,-4.69 6.29,-9.31 7.07,-14.88 0.77,-4.32 0.34,-8.76 1.1,-13.08 1.46,-4.08 6.06,-6.12 7.17,-10.37 0.89,-3.51 1.75,-7.04 2.29,-10.62 0.48,-3.73 -1.37,-7.41 -0.64,-11.11 0.99,-3.86 4.99,-5.62 7.26,-8.59 2.56,-5.02 1.72,-11.21 4.9,-15.99 1.71,-2.88 4.7,-4.82 6.16,-7.85 1.41,-6.97 0.15,-14.44 3.05,-21.12 3.39,-7.57 8.29,-14.91 8.71,-23.42 0.2,-3.39 -3.78,-3.79 -5.91,-5.31 -0.69,-1.79 1,-3.43 2.69,-3.57 4.34,-0.68 8.67,0.82 13.02,0.4 m 1.97,43.51 c -4.05,5.53 -4.44,12.68 -6.19,19.1 -0.73,4.19 -4.32,7.03 -5.58,11.02 -1.86,4.22 -1.32,8.91 -1.86,13.38 -0.52,3.73 -3.84,6.04 -5.55,9.19 -2.55,3.81 -3.04,8.45 -4.16,12.79 -0.65,2.45 -1.03,4.97 -1.12,7.52 19.5,-0.01 39,0.07 58.49,-0.04 0.85,-2.09 2.36,-4.49 0.89,-6.67 -2.79,-4.19 -7.57,-6.73 -9.87,-11.31 -4.64,-8.52 -0.38,-18.88 -4.46,-27.56 -3.87,-9.6 -8.97,-18.83 -11,-29.07 -2.32,-3.56 -7.54,-1.07 -9.59,1.65 m -31.98,41.07 c -3.94,1.96 -1.78,9.99 2.98,8.12 2.12,-1.69 4.21,-3.44 6.22,-5.27 -0.06,-2.69 -1.76,-5.15 -2.16,-7.84 -2.26,1.79 -4.35,3.84 -7.04,4.99 m 76.35,-3.71 c -3.35,3.86 -0.18,9.07 -0.48,13.56 3.33,3.47 8.57,0.13 12.46,-0.62 1.57,-2.27 -1.13,-4.94 -1.39,-7.36 -0.28,-2.67 -3.72,-1.84 -5.26,-3.42 -1.7,-0.88 -3.25,-3.71 -5.33,-2.16 z"
       id="path4435"
       inkscape:connector-curvature="0"
       style="fill:#ffffff" />
    <path
       d="m 409.16,374.02 c 2.55,-1.02 4.69,-4.42 7.73,-2.86 2.61,1.87 4.6,5.1 8.15,5.19 6.45,1 10.65,-5.91 17.02,-5.44 3.79,-0.18 6.84,2.33 10,4.02 3.81,2.15 8.92,2.49 12.58,-0.17 3.09,-2.13 6.62,-3.66 10.4,-3.95 8.45,-0.81 17.61,-0.64 25.03,4.01 3.33,2.16 7.49,1.52 11.07,2.99 3.37,1.73 7.61,-0.06 9.4,-3.23 1.02,-1.15 1.56,-3.31 3.42,-3.19 2.19,0.05 3.18,2.58 2.49,4.43 -1.77,6.18 -3.3,12.7 -1.97,19.13 1.3,5.68 4.47,11.02 4.08,17.01 -0.46,10.86 -7.7,20.77 -17.61,25.04 -3.33,2.38 -8.34,1.86 -11.15,-0.98 -0.6,-6.33 8.47,-7.95 8.98,-14 -0.12,-5.9 -3.37,-11.14 -4.27,-16.91 -0.53,-6.7 -5.61,-12.35 -11.55,-15.05 -6.53,-3.23 -13.5,-6.35 -20.94,-6.14 -4.35,-0.09 -7.19,3.76 -11.07,5.04 -3.12,1.18 -7.03,2.01 -8.58,5.34 -3.13,15.34 -2.91,31.1 -2.68,46.68 0.17,3.92 0.32,8.27 2.92,11.46 3.63,2.57 9.56,2.22 12.31,-1.6 2.9,-2.85 7.63,-4.37 8.49,-8.82 0.45,-4.65 -2.21,-9.18 -1.15,-13.83 2.01,-3.51 7.4,-1.68 9.03,1.32 3.03,6.06 1.73,13.08 1.87,19.59 -0.1,3.5 4.28,5.38 3.84,8.97 -1.21,3.68 -4.32,6.85 -3.63,11.01 -0.19,3.36 2.68,6.48 1.16,9.78 -1.09,2.72 -1.53,5.62 -2.28,8.44 -0.55,2.02 -3.1,4.19 -5.11,2.64 -4.25,-3.27 -4.65,-9.05 -3.6,-13.91 -2.57,-2.46 -6.13,-3.44 -8.76,-5.79 -2.17,-1.85 -4.62,-4.11 -7.71,-3.61 -2.56,1.55 -4.04,4.32 -5.87,6.61 -2.19,2.77 -1.14,6.55 -1.19,9.8 0.35,4.02 -0.71,7.94 -1.58,11.83 -0.93,3.45 0.25,6.89 0.98,10.25 1.17,5.25 0.41,10.67 1.01,15.98 0.3,4.08 4.54,6.2 5.68,9.96 0.85,2.81 2.88,5.41 5.9,5.99 4.33,0.71 8.79,1.35 13.18,0.79 2.47,-0.34 2.97,-3.42 4.96,-4.51 1.68,-0.75 3.49,0.95 2.93,2.71 -0.76,3.65 -2.96,6.88 -5.47,9.58 -2.45,2.59 -6.31,2.9 -9.64,2.46 -3.83,-0.83 -7.21,-3.01 -11.03,-3.87 -5.54,-1.27 -11.4,-0.98 -16.84,0.57 -2.29,0.59 -4.71,1.23 -7.06,0.67 -3.34,-0.95 -5.48,-4.41 -9.01,-4.82 -7.19,0.47 -12.54,7.31 -19.92,6.85 -2.27,0.15 -3.04,-2.07 -4.08,-3.6 -2.14,-1.07 -4.27,-2.18 -6.07,-3.75 1.5,-1.81 3.65,-2.69 5.92,-3.06 3.29,-0.47 5.84,-3.11 7.03,-6.1 1.48,-3.91 3.94,-7.61 3.87,-11.93 0.35,-15.99 0.55,-31.98 0.76,-47.97 0.12,-4.84 -4.9,-8.26 -4.27,-13.16 1.11,-4.4 4.13,-8.18 4.56,-12.78 0.36,-4.36 0.59,-8.74 1.37,-13.06 1.97,-10.79 -1.7,-21.45 -2.44,-32.17 -0.44,-4.68 -0.03,-10.21 -3.86,-13.67 -1.72,-2.09 -4.87,-3.37 -5.26,-6.28 0.49,-3.75 4.72,-4.52 7.53,-5.93 m 16.76,77.91 c -0.31,3.22 1.33,6.3 3.4,8.65 3.19,1.15 7.29,0.66 9.94,-1.56 -0.02,-2.69 -3.2,-4.24 -3.27,-7.02 -0.19,-3.99 -3.67,-6.41 -6.13,-9.11 -1.87,2.72 -3.36,5.77 -3.94,9.04 z"
       id="path4437"
       inkscape:connector-curvature="0"
       style="fill:#ffffff" />
    <path
       d="m 587.52,402.49 c 14.8,-2.77 29.62,-5.51 44.42,-8.29 2.05,10.53 3.95,21.1 5.93,31.64 -2.62,0.49 -5.25,0.98 -7.87,1.47 -1.39,-7.45 -2.78,-14.9 -4.15,-22.35 -3.35,0.61 -6.7,1.24 -10.03,1.87 1.2,6.52 2.42,13.04 3.63,19.56 -2.62,0.49 -5.25,0.98 -7.86,1.47 -1.2,-6.53 -2.43,-13.04 -3.63,-19.56 -6.25,1.15 -12.49,2.34 -18.73,3.46 -0.56,-3.09 -1.14,-6.18 -1.71,-9.27 z"
       id="path4439"
       inkscape:connector-curvature="0"
       style="fill:#ffffff" />
    <path
       d="m 38.79,414.34 c 15.68,-3.06 31.36,-6.14 47.05,-9.2 -0.5,3.39 -1,6.77 -1.5,10.16 -3.21,0.5 -6.42,1.01 -9.63,1.51 -0.82,5.5 -1.62,11 -2.43,16.5 2.92,1.49 5.85,2.99 8.77,4.5 -0.48,3.27 -0.96,6.54 -1.45,9.82 -14.13,-7.52 -28.26,-15.01 -42.4,-22.52 0.53,-3.59 1.05,-7.18 1.59,-10.77 m 9.13,6.92 c 5.65,2.84 11.33,5.64 17.02,8.41 0.54,-3.8 1.1,-7.58 1.65,-11.37 -6.22,0.98 -12.45,1.97 -18.67,2.96 z"
       id="path4441"
       inkscape:connector-curvature="0"
       style="fill:#ffffff" />
    <path
       d="m 598.8,438.76 c 3.39,-2.83 8,-3.29 12.25,-3.46 9.26,-0.33 18.53,-0.69 27.8,-1.01 0.11,3.2 0.23,6.41 0.35,9.62 -9.72,0.39 -19.45,0.68 -29.17,1.12 -3.54,-0.03 -7.5,1.7 -8.54,5.35 -0.79,3.13 -0.38,6.79 1.66,9.39 1.87,2.29 5.03,2.5 7.77,2.41 9.64,-0.37 19.28,-0.75 28.92,-1.1 0.12,3.21 0.24,6.42 0.36,9.64 -9.74,0.34 -19.47,0.76 -29.21,1.06 -4.52,0.13 -9.45,-0.71 -12.76,-4.02 -3.94,-3.79 -5.04,-9.54 -5.09,-14.8 0.01,-5.17 1.45,-10.83 5.66,-14.2 z"
       id="path4443"
       inkscape:connector-curvature="0"
       style="fill:#ffffff" />
    <path
       d="m 35.17,447.58 c 15.06,0.57 30.13,1.14 45.19,1.72 -0.12,3.14 -0.24,6.28 -0.36,9.43 -15.06,-0.57 -30.12,-1.14 -45.18,-1.72 0.11,-3.14 0.23,-6.29 0.35,-9.43 z"
       id="path4445"
       inkscape:connector-curvature="0"
       style="fill:#ffffff" />
    <path
       d="m 63.75,462.79 c 5.53,0.94 11.25,3.17 14.51,8.01 5.37,8.04 4.83,20.29 -2.7,26.84 -5.82,5.04 -13.96,6.35 -21.43,5.87 -7.19,-0.43 -14.55,-4.18 -17.7,-10.91 -3.69,-7.84 -2.95,-18.43 3.74,-24.47 2.39,-2.29 5.54,-3.42 8.65,-4.33 0.26,3.12 0.47,6.25 0.68,9.38 -2.14,1.14 -4.61,2.13 -5.83,4.36 -2.28,4.27 -1.54,10.24 2.35,13.34 3.03,2.51 7.13,3.13 10.95,3.12 4.59,-0.03 9.47,-0.91 13.11,-3.88 4.65,-3.67 4.68,-11.63 0.18,-15.42 -1.66,-1.42 -3.85,-1.88 -5.85,-2.56 -0.24,-3.12 -0.46,-6.24 -0.66,-9.35 z"
       id="path4447"
       inkscape:connector-curvature="0"
       style="fill:#ffffff" />
    <path
       d="m 632,477.63 c 2.64,0.28 5.28,0.56 7.93,0.85 -1.31,12.19 -2.64,24.38 -3.96,36.57 -2.66,-0.29 -5.31,-0.58 -7.96,-0.87 0.5,-4.53 0.99,-9.06 1.49,-13.58 -12.34,-1.34 -24.68,-2.67 -37.01,-4.01 0.33,-3.14 0.67,-6.27 1.01,-9.4 12.33,1.33 24.66,2.67 37,4.02 0.51,-4.53 1.01,-9.06 1.5,-13.58 z"
       id="path4449"
       inkscape:connector-curvature="0"
       style="fill:#ffffff" />
    <path
       d="m 361.48,499.82 c 3.12,-1.51 8.06,-1.65 9.45,2.23 1.9,4.77 6.29,7.81 8.74,12.24 1.71,2.72 2.84,5.75 3.68,8.85 0.51,2.97 4.13,3.96 4.94,6.77 -0.75,5.31 -2.26,11.55 1.6,16.07 1.83,2.91 5.88,4.99 5.35,8.92 -1.65,12.1 -0.5,24.38 -2.05,36.48 -0.19,2.05 -0.97,3.98 -2.24,5.61 -3,4.04 -4.81,9.15 -9.07,12.13 -2.83,1.83 -4.06,-2.07 -4.33,-4.19 -0.24,-3.26 -3.19,-5.08 -4.64,-7.74 -0.99,-1.3 -1.47,-3.3 -3.27,-3.67 -3.44,-0.82 -7.02,-0.71 -10.53,-0.66 -4.64,-0.03 -8.8,2.22 -13.1,3.62 -8.69,2.96 -18.09,3.03 -27.13,2.07 -4.07,-0.36 -7.4,-2.89 -11.05,-4.42 -5.1,-2.17 -8.74,-6.55 -12.37,-10.55 -3.93,-4.84 -8,-9.64 -10.91,-15.18 -1.36,-2.9 -4.71,-4.34 -5.8,-7.36 -0.26,-4.58 3.72,-7.82 6.97,-10.38 6.71,-0.33 13.44,0.18 20.15,-0.19 3.8,-0.71 7.34,-2.36 10.94,-3.7 3.2,4.91 8.25,7.99 12.66,11.65 3.56,2.84 5.39,7.33 9.24,9.85 3.87,2.67 8.82,2.8 13.36,2.62 4.22,-0.04 7.09,-3.57 10.84,-4.95 2.7,-0.89 3.74,-3.76 4.9,-6.06 2.68,-6.45 6.31,-12.78 6.47,-19.94 0.65,-5.44 -1.96,-10.49 -2.11,-15.87 -0.02,-3.32 -1.23,-6.45 -3.35,-8.97 -2.11,-2.29 -0.75,-5.88 -2.7,-8.23 -1.71,-2.25 -3.69,-4.34 -4.64,-7.05 z"
       id="path4451"
       inkscape:connector-curvature="0"
       style="fill:#ffffff" />
    <path
       d="m 59.46,508.59 c 6.57,-1.72 14.11,-1.85 19.95,2.06 9.15,6.34 12.34,19.9 6.83,29.6 -3.6,6.08 -10.48,9.29 -17.17,10.65 -6.14,1.34 -13.06,1.09 -18.37,-2.61 -8.76,-6.26 -11.91,-19.1 -7.03,-28.7 3.11,-5.98 9.47,-9.41 15.79,-11 m 3.03,9.01 c -4.91,1.14 -10.2,3.62 -12.21,8.57 -2.63,6.12 1.15,14.04 7.72,15.52 6.35,1.35 13.34,-0.32 18.55,-4.16 5.58,-4.11 5.64,-13.19 0.46,-17.64 -3.91,-3.53 -9.69,-3.43 -14.52,-2.29 z"
       id="path4453"
       inkscape:connector-curvature="0"
       style="fill:#ffffff" />
    <path
       d="m 582.12,544.86 c 2.84,-11.08 5.64,-22.16 8.48,-33.24 14.6,3.72 29.21,7.43 43.82,11.14 -2.73,10.75 -5.47,21.49 -8.2,32.24 -2.59,-0.66 -5.17,-1.33 -7.75,-1.98 1.96,-7.75 3.95,-15.5 5.92,-23.26 -3.08,-0.78 -6.16,-1.55 -9.23,-2.31 -1.79,7.11 -3.62,14.22 -5.43,21.33 -2.58,-0.66 -5.17,-1.32 -7.74,-1.97 1.8,-7.12 3.61,-14.23 5.43,-21.35 -3.79,-0.97 -7.58,-1.94 -11.36,-2.89 -2.09,8.1 -4.06,16.23 -6.26,24.3 -2.56,-0.69 -5.12,-1.35 -7.68,-2.01 z"
       id="path4455"
       inkscape:connector-curvature="0"
       style="fill:#ffffff" />
    <path
       d="m 571.94,569.85 c 2.71,-7.37 6.07,-14.48 9.07,-21.73 13.86,5.92 27.72,11.85 41.58,17.77 -2.77,6.47 -5.51,12.95 -8.29,19.41 -1.56,3.52 -3.66,7.15 -7.26,8.91 -6.24,3.16 -15.17,-0.99 -15.69,-8.28 -5.73,5.68 -15.75,2.55 -19.12,-4.18 -2.09,-3.65 -1.72,-8.09 -0.29,-11.9 m 7.38,3.13 c -1.34,5.1 6.41,9.36 9.81,5.18 3.14,-4.08 4.32,-9.28 6.63,-13.82 -3.69,-1.65 -7.41,-3.23 -11.13,-4.8 -1.76,4.48 -4.17,8.74 -5.31,13.44 m 18.26,8.09 c -0.63,4.01 5.42,6.84 7.89,3.48 2.97,-3.98 4.21,-8.93 6.37,-13.35 -3.01,-1.34 -6.05,-2.63 -9.09,-3.92 -1.71,4.59 -4.44,8.89 -5.17,13.79 z"
       id="path4457"
       inkscape:connector-curvature="0"
       style="fill:#ffffff" />
    <path
       d="m 73.45,559.09 c 1.03,-5.72 7.14,-8.87 12.51,-8.99 6.28,-0.17 11.23,4.88 13.86,10.13 2.73,5.63 4.73,12.54 1.97,18.54 -1.41,3.27 -4.41,5.43 -7.47,7.04 -1.14,-2.74 -2.28,-5.47 -3.41,-8.2 1.72,-1.49 3.82,-3.04 4,-5.51 0.36,-4.27 -1.63,-8.51 -4.45,-11.63 -2.17,-2.63 -7.28,-1.96 -8.06,1.56 -0.68,7.37 2.83,14.54 1.82,21.93 -0.96,6.04 -7.52,9.52 -13.2,9.41 -5.27,-0.11 -9.57,-3.97 -11.98,-8.38 -3.07,-5.42 -5,-12.3 -2.26,-18.24 1.37,-3.18 4.22,-5.28 6.97,-7.17 1.33,2.71 2.51,5.49 3.63,8.29 -5.94,3.67 -3.84,12.24 0.87,15.99 2.49,2.09 7.06,0.46 7.23,-2.92 -0.1,-7.32 -3.05,-14.49 -2.03,-21.85 z"
       id="path4459"
       inkscape:connector-curvature="0"
       style="fill:#ffffff" />
    <path
       d="m 90.26,596.89 c 0.26,-8.61 11.46,-13.78 18.66,-9.78 6.94,3.69 11.35,11.22 12.7,18.8 1.05,5.64 -2.18,11.01 -6.73,14.11 -1.57,-2.55 -3.13,-5.11 -4.69,-7.67 1.59,-1.76 3.5,-3.69 3.2,-6.28 -0.48,-4.34 -3.07,-8.42 -6.62,-10.91 -2.75,-2.07 -7.67,0.09 -7.24,3.75 0.75,6.89 4.61,13.09 5.02,20.06 0.34,6.3 -5.65,11.09 -11.45,11.86 -5.35,0.82 -10.34,-2.5 -13.4,-6.63 -3.71,-4.84 -6.57,-11.16 -4.87,-17.33 0.85,-3.48 3.37,-6.15 6.08,-8.33 1.56,2.54 3.1,5.1 4.65,7.64 -5.47,4.57 -1.91,13 3.5,15.87 2.74,1.38 6.62,-0.83 6.42,-4.01 -1.14,-7.19 -5.05,-13.79 -5.23,-21.15 z"
       id="path4461"
       inkscape:connector-curvature="0"
       style="fill:#ffffff" />
    <path
       d="m 564.37,592.47 c 5.92,-2.1 12.47,-0.58 17.83,2.37 5.82,3.2 11.36,7.83 13.59,14.29 4.47,13.39 -7.35,29.69 -21.7,28.49 -9,-1.12 -17.56,-6.55 -22.39,-14.23 -6.59,-11.3 0.8,-26.76 12.67,-30.92 m 0.93,8.98 c -6.55,2.34 -9.71,11.09 -5.71,16.93 3.71,5.42 9.92,9.36 16.5,10.05 6.71,0.56 12.67,-5.86 12.04,-12.46 -0.42,-5.13 -4.41,-9.03 -8.5,-11.66 -4.16,-2.68 -9.44,-4.69 -14.33,-2.86 z"
       id="path4463"
       inkscape:connector-curvature="0"
       style="fill:#ffffff" />
    <path
       d="m 101.79,653.63 c 8.14,-13.75 16.25,-27.53 24.46,-41.24 2.18,2.62 4.37,5.24 6.56,7.86 -1.76,2.73 -3.52,5.46 -5.29,8.19 3.56,4.28 7.14,8.54 10.71,12.81 3.07,-1.2 6.13,-2.4 9.21,-3.57 2.1,2.55 4.23,5.09 6.35,7.63 -14.98,5.58 -29.99,11.07 -44.96,16.69 -2.37,-2.78 -4.71,-5.57 -7.04,-8.37 m 21.42,-18.12 c -3.37,5.32 -6.79,10.6 -10.16,15.92 5.86,-2.35 11.72,-4.72 17.58,-7.09 -2.45,-2.96 -4.93,-5.9 -7.42,-8.83 z"
       id="path4465"
       inkscape:connector-curvature="0"
       style="fill:#ffffff" />
    <path
       d="m 297.416,622.51022 c 0.87,-0.06 1.74,-0.1 2.61,-0.13 0.01,11.41 0,22.83 0.01,34.24 -1.4,-0.01 -2.8,0 -4.19,0.01 0.02,-8.83 -0.05,-17.65 0.04,-26.48 -2.61,1.96 -5.43,3.6 -8.39,4.96 -0.02,-1.35 -0.03,-2.7 -0.04,-4.04 3.96,-2.01 7.59,-4.74 9.96,-8.56 z"
       id="path4467"
       inkscape:connector-curvature="0"
       style="fill:#ffffff" />
    <path
       d="m 315.526,624.13022 c 4.51,-3.01 11.11,-1.9 14.42,2.38 2.96,3.79 3.12,8.89 3.12,13.5 -0.17,4.71 -0.75,9.85 -3.9,13.6 -3.35,4.02 -9.86,4.75 -14.16,1.88 -2.33,-1.48 -3.05,-4.3 -3.89,-6.74 1.33,-0.11 2.66,-0.21 4,-0.3 0.84,1.67 1.32,3.88 3.2,4.75 2.72,1.26 6.3,0.34 8,-2.15 2.19,-2.94 2.27,-6.75 2.82,-10.22 -2.92,3.22 -7.5,5.41 -11.8,3.61 -8.15,-3.03 -8.81,-15.69 -1.81,-20.31 m 4.12,2.16 c -5.93,2.39 -6.44,12.58 -0.09,14.76 4.53,1.82 9.19,-2.39 8.88,-6.98 0.58,-4.66 -3.92,-9.87 -8.79,-7.78 z"
       id="path4469"
       inkscape:connector-curvature="0"
       style="fill:#ffffff" />
    <path
       d="m 337.426,623.04022 c 7.4,0.01 14.81,-0.01 22.22,0.01 -0.19,1.64 -0.14,3.45 -1.44,4.69 -6.66,8.21 -10.85,18.37 -11.84,28.9 -1.43,-0.02 -2.86,-0.03 -4.29,-0.03 0.8,-10.77 5.1,-21.2 11.92,-29.54 -5.52,0.05 -11.05,0.01 -16.57,0.02 0,-1.35 0,-2.7 0,-4.05 z"
       id="path4471"
       inkscape:connector-curvature="0"
       style="fill:#ffffff" />
    <path
       d="m 367.446,624.90022 c 5.02,-4.56 14.75,-2.66 16.58,4.22 1.2,3.67 -0.91,7.33 -4.15,9.06 5.39,1.3 7.52,7.88 5.29,12.6 -2.95,6.68 -12.83,8.56 -18.16,3.67 -2.02,-1.72 -2.7,-4.36 -3.46,-6.78 1.39,-0.2 2.78,-0.39 4.18,-0.57 0.88,2.78 2.27,6.23 5.64,6.57 5.5,1.22 10.2,-5.39 7.42,-10.24 -1.6,-3.37 -5.65,-3.59 -8.87,-3.17 0.13,-0.8 0.38,-2.41 0.51,-3.21 3.12,-0.24 7.19,-1.33 7.55,-5.07 0.9,-4.13 -3.83,-7.27 -7.5,-5.81 -2.66,0.72 -3.52,3.58 -4.4,5.86 -1.37,-0.29 -2.73,-0.57 -4.09,-0.84 0.86,-2.23 1.56,-4.69 3.46,-6.29 z"
       id="path4473"
       inkscape:connector-curvature="0"
       style="fill:#ffffff" />
    <path
       d="m 518.69,646.91 c 7.09,-7.89 13.85,-16.12 21.19,-23.77 11.39,9.76 22.54,19.82 33.83,29.71 -2.08,2.36 -4.16,4.73 -6.25,7.09 -9.23,-8.19 -18.53,-16.28 -27.72,-24.5 -5.01,5.56 -9.93,11.2 -14.87,16.83 -2.08,-1.77 -4.13,-3.57 -6.18,-5.36 z"
       id="path4475"
       inkscape:connector-curvature="0"
       style="fill:#ffffff" />
    <path
       d="m 444.02,676.02 c -0.4,-8.07 8.62,-14.38 16.15,-12.26 2.35,0.59 4.08,2.36 5.77,3.99 -1.66,0.95 -3.33,1.9 -5,2.84 -1.81,-0.97 -3.69,-2.65 -5.89,-1.85 -4.06,0.82 -6.4,5.41 -4.83,9.23 1.47,4.3 4.66,9.57 9.86,9.27 4.13,-0.48 6.41,-4.76 5.45,-8.62 1.68,-0.94 3.36,-1.86 5.05,-2.77 0.52,3.1 1.17,6.46 -0.31,9.42 -3.01,6.38 -12,9.71 -18.03,5.49 -4.74,-3.31 -7.93,-8.96 -8.22,-14.74 z"
       id="path4477"
       inkscape:connector-curvature="0"
       style="fill:#ffffff" />
    <path
       d="m 211.34,665.19 c 7.07,-4.77 17.98,0.52 19.08,8.84 0.28,1.96 -0.36,3.89 -0.7,5.81 -1.68,-0.94 -3.34,-1.87 -4.99,-2.83 -0.12,-1.52 0.15,-3.09 -0.34,-4.53 -1.65,-3.34 -6.39,-4.92 -9.53,-2.67 -3.34,2.33 -5.47,6.23 -6.13,10.21 -0.75,4.09 3.32,7.77 7.3,7.13 1.48,-0.44 2.71,-1.4 4.01,-2.18 1.68,0.96 3.34,1.93 5.01,2.92 -1.66,1.35 -3.25,2.9 -5.25,3.76 -6.88,2.9 -15.67,-2.27 -16.79,-9.57 -0.7,-6.56 2.98,-13.23 8.33,-16.89 z"
       id="path4479"
       inkscape:connector-curvature="0"
       style="fill:#ffffff" />
    <path
       d="m 236.48,672.93 c 1.8,0.78 3.59,1.56 5.39,2.36 -1.43,3.23 -2.82,6.46 -4.21,9.71 3.34,1.44 6.68,2.88 10.03,4.32 1.4,-3.25 2.8,-6.5 4.2,-9.74 1.79,0.76 3.58,1.54 5.37,2.31 -3.69,8.58 -7.39,17.15 -11.09,25.72 -1.79,-0.78 -3.58,-1.55 -5.37,-2.32 1.66,-3.84 3.32,-7.69 4.98,-11.52 -3.34,-1.45 -6.69,-2.89 -10.03,-4.33 -1.66,3.84 -3.32,7.67 -4.98,11.52 -1.79,-0.76 -3.58,-1.53 -5.36,-2.27 3.64,-8.61 7.39,-17.16 11.07,-25.76 z"
       id="path4481"
       inkscape:connector-curvature="0"
       style="fill:#ffffff" />
    <path
       d="m 421.67,680.61 c 3.07,-3.34 7.83,-5.36 12.38,-4.82 3.01,0.31 5.04,2.7 6.73,4.97 -1.68,0.74 -3.35,1.47 -5.03,2.19 -2.65,-3.35 -7.71,-2.39 -10.09,0.74 -1.16,1.46 -0.38,3.77 1.35,4.35 4.99,0.2 9.94,-2.29 14.93,-1.05 4.85,1.79 6.21,8.94 2.83,12.71 -4.89,5.86 -16.25,8.3 -20.32,0.24 1.63,-0.76 3.27,-1.5 4.92,-2.25 2.96,3.87 8.74,2.48 11.34,-1.04 1.33,-1.55 0.2,-4.21 -1.79,-4.39 -4.66,-0.23 -9.21,2.02 -13.86,1.16 -5.09,-1.53 -6.95,-8.93 -3.39,-12.81 z"
       id="path4483"
       inkscape:connector-curvature="0"
       style="fill:#ffffff" />
    <path
       d="m 250.99,709.48 c 5.86,-7.99 11.71,-15.99 17.59,-23.97 2.13,0.62 4.26,1.25 6.4,1.87 0.62,9.9 0.99,19.81 1.5,29.71 -2.03,-0.61 -4.05,-1.21 -6.08,-1.8 -0.03,-2.03 -0.06,-4.05 -0.08,-6.07 -3.3,-0.97 -6.59,-1.95 -9.88,-2.94 -1.19,1.65 -2.37,3.3 -3.55,4.97 -1.97,-0.59 -3.94,-1.19 -5.9,-1.77 m 12.31,-7.39 c 2.28,0.67 4.55,1.35 6.83,2.03 -0.04,-3.91 -0.09,-7.81 -0.16,-11.7 -2.23,3.21 -4.45,6.44 -6.67,9.67 z"
       id="path4485"
       inkscape:connector-curvature="0"
       style="fill:#ffffff" />
    <path
       d="m 286.63,690.58 c 5.12,1.12 10.47,1.38 15.41,3.21 6.93,3.18 5.05,14.88 -2.09,16.55 -3.62,0.63 -7.21,-0.59 -10.76,-1.09 -0.58,3.21 -1.02,6.45 -1.77,9.62 -1.94,0.13 -3.85,-0.42 -5.75,-0.68 1.64,-9.21 3.3,-18.41 4.96,-27.61 m 4.91,5.77 c -0.49,2.72 -0.98,5.44 -1.46,8.17 2.29,0.36 4.57,0.91 6.9,0.98 3.58,0.17 5.01,-5.91 1.8,-7.4 -2.28,-1.03 -4.82,-1.25 -7.24,-1.75 z"
       id="path4487"
       inkscape:connector-curvature="0"
       style="fill:#ffffff" />
    <path
       d="m 370.26,693.31 c 5.5,-2.38 12.84,-1.06 16.22,4.18 2.98,4.93 3.99,11.38 1.78,16.8 -3.73,8.34 -16.83,10.05 -22.4,2.72 -5.27,-7.14 -5.1,-20.2 4.4,-23.7 m 3.12,4.23 c -6.49,1.94 -6.04,10.59 -3.31,15.44 2.27,4.69 9.66,4.81 12.29,0.44 2.15,-3.79 1.37,-8.64 -0.47,-12.39 -1.51,-3.07 -5.27,-4.61 -8.51,-3.49 z"
       id="path4489"
       inkscape:connector-curvature="0"
       style="fill:#ffffff" />
    <path
       d="m 395.55,698.68 c 5.84,-1.6 11.68,-3.24 17.54,-4.76 0.53,1.88 1.06,3.77 1.61,5.67 -5.84,1.69 -11.71,3.23 -17.56,4.83 -0.53,-1.92 -1.06,-3.84 -1.59,-5.74 z"
       id="path4491"
       inkscape:connector-curvature="0"
       style="fill:#ffffff" />
    <path
       d="m 308.77,722.62 c 0.62,-9.32 1.33,-18.63 1.97,-27.94 6.85,0.46 13.7,0.96 20.55,1.44 -0.12,1.65 -0.24,3.3 -0.35,4.96 -4.95,-0.36 -9.89,-0.71 -14.83,-1.06 -0.14,1.95 -0.27,3.91 -0.4,5.87 4.53,0.32 9.06,0.65 13.6,0.97 -0.12,1.64 -0.23,3.29 -0.34,4.95 -4.54,-0.33 -9.09,-0.65 -13.63,-0.96 -0.17,2.41 -0.34,4.81 -0.51,7.23 5.16,0.36 10.32,0.72 15.48,1.09 -0.12,1.64 -0.23,3.28 -0.34,4.94 -7.07,-0.49 -14.13,-1.01 -21.2,-1.49 z"
       id="path4493"
       inkscape:connector-curvature="0"
       style="fill:#ffffff" />
    <path
       d="m 336.35,701.3 c 3.56,-6.96 14,-8.28 19.65,-3.19 1.85,1.63 2.64,4.04 3.54,6.27 -1.95,0.12 -3.9,0.22 -5.84,0.34 -0.85,-1.27 -1.46,-2.74 -2.67,-3.69 -3.17,-1.92 -7.98,-0.77 -9.46,2.78 -1.61,3.67 -1.3,7.99 0.08,11.68 1.24,3.19 5.09,4.8 8.26,3.5 2.33,-0.65 3.14,-3.11 4.1,-5.05 1.93,-0.09 3.86,-0.17 5.8,-0.22 -0.82,2.37 -1.4,4.96 -3.15,6.87 -5.18,5.96 -16.4,5.06 -20.06,-2.15 -2.67,-5.23 -2.85,-11.85 -0.25,-17.14 z"
       id="path4495"
       inkscape:connector-curvature="0"
       style="fill:#ffffff" />
  </g>
</svg>
