<?xml version="1.0" encoding="iso-8859-1"?><!-- Generator: Adobe Illustrator 16.0.0, SVG Export Plug-In . SVG Version: 6.00 Build 0) --><!DOCTYPE svg PUBLIC "-//W3C//DTD SVG 1.1//EN" "http://www.w3.org/Graphics/SVG/1.1/DTD/svg11.dtd"><svg version="1.1" id="Layer_1" xmlns="http://www.w3.org/2000/svg" xmlns:xlink="http://www.w3.org/1999/xlink" x="0px" y="0px" width="192.756px" height="192.756px" viewBox="0 0 192.756 192.756" style="enable-background:new 0 0 192.756 192.756;" xml:space="preserve"><g><polygon style="fill-rule:evenodd;clip-rule:evenodd;fill:#FFFFFF;" points="0,0 192.756,0 192.756,192.756 0,192.756 0,0	"/><path style="fill-rule:evenodd;clip-rule:evenodd;" d="M177.932,118.346L177.932,118.346c-0.215-14.59-5.039-25.487-9.707-36.025	c-3.316-7.975-4.729-13.566-5.195-20.588c0.367-8.451,3.02-15.114,7.18-23.12l3.518-6.766L143.582,2.834l-0.539,0.325l-6.16,3.703	c-11.562,6.952-25.932,10.922-40.459,11.181c-15.197,0.27-29.264-3.427-40.678-10.69l-6.735-4.286l-30.14,28.721l3.491,6.786	c2.968,5.771,5.043,10.947,6.529,16.284c0.334,2.287,0.499,4.416,0.499,6.505c0,7.939-2.418,14.768-5.032,20.965	c-3.158,7.147-7.095,16.059-8.978,25.674l-0.076,0.387l-0.045,0.393c-0.293,2.512-0.442,5.064-0.442,7.588	c0,10.705,2.615,20.982,7.562,29.717l0.342,0.605l0.421,0.551c3.769,4.945,7.913,8.855,12.667,11.957l0.237,0.156l0.246,0.141	c7.984,4.596,16.337,7.699,24.415,10.703c10.666,3.963,20.737,7.705,28.922,14.451l6.392,5.27l6.47-5.176	c5.275-4.221,10.596-7.332,17.254-10.09c3.602-1.475,7.305-2.816,11.223-4.236c8.359-3.031,17-6.162,25.297-10.904l0.352-0.199	l0.336-0.23c16.328-11.133,19.715-25.66,20.943-39.701l0.045-0.518L177.932,118.346L177.932,118.346z"/><path style="fill-rule:evenodd;clip-rule:evenodd;fill:#FFFFFF;" d="M139.596,11.375c-12.342,7.42-27.641,11.658-43.08,11.932	c-16.233,0.288-31.309-3.693-43.597-11.512L49.66,9.722L25.354,32.883l1.689,3.284c3.199,6.219,5.428,11.82,7.011,17.601	c0.4,2.625,0.591,5.121,0.591,7.521c0,8.241-2.192,15.395-5.443,23.102c-3.075,6.96-6.891,15.609-8.656,24.625l-0.037,0.188	l-0.022,0.189c-0.272,2.334-0.407,4.668-0.407,6.986c0,9.719,2.367,19.148,6.879,27.115l0.166,0.291l0.204,0.268	c3.445,4.52,7.053,7.932,11.356,10.74l0.116,0.074l0.119,0.07c7.604,4.377,15.751,7.404,23.629,10.332	c11.087,4.119,21.559,8.01,30.428,15.32l3.093,2.549l3.131-2.504c5.678-4.543,11.393-7.889,18.527-10.844	c3.719-1.521,7.646-2.945,11.445-4.322c8.146-2.953,16.572-6.006,24.479-10.523l0.17-0.098l0.162-0.111	c13.709-9.348,17.375-21.076,18.666-35.811l0.021-0.25l-0.004-0.252c-0.199-13.488-4.811-23.93-9.281-34.023	c-3.615-8.689-5.152-14.861-5.637-22.631c0.361-9.503,3.246-16.848,7.787-25.584l1.701-3.274l-24.4-23.485L139.596,11.375	L139.596,11.375z"/><path style="fill-rule:evenodd;clip-rule:evenodd;" d="M169.049,118.477c-0.176-11.891-3.68-20.66-9.002-32.68	c-3.768-9.048-5.434-15.793-5.926-24.006c0.361-10.224,3.541-18.3,8.203-27.274l0.455-0.873l-20.453-19.686l-0.865,0.52	c-12.877,7.743-28.816,12.165-44.88,12.45c-16.945,0.301-32.715-3.876-45.604-12.078l-0.869-0.553L29.812,33.635l0.45,0.876	c3.354,6.521,5.688,12.404,7.342,18.506c0.456,2.92,0.668,5.682,0.668,8.333c0,8.773-2.313,16.339-5.743,24.467	c-2.998,6.784-6.739,15.253-8.43,23.894l-0.01,0.051l-0.006,0.049c-0.257,2.199-0.384,4.396-0.384,6.576	c0,9.094,2.206,17.9,6.41,25.322l0.044,0.078l0.054,0.072c3.187,4.18,6.509,7.326,10.456,9.902l0.031,0.02l0.032,0.018	c7.342,4.227,15.345,7.201,23.084,10.076c10.88,4.043,22.13,8.225,31.469,15.922l0.825,0.68l0.835-0.668	c5.958-4.766,11.942-8.27,19.405-11.361c3.801-1.557,7.764-2.992,11.596-4.381c8.004-2.902,16.281-5.9,23.916-10.266l0.045-0.025	l0.045-0.029c12.531-8.547,15.898-19.428,17.098-33.135l0.006-0.066V118.477L169.049,118.477z M156.07,41.586l-7.711,3.312V23.417	c4.729,4.552,10.43,10.039,11.18,10.762C158.256,36.686,157.094,39.133,156.07,41.586L156.07,41.586z M66.085,24.95	c6.13,2.091,12.623,3.489,19.368,4.161v42.81l-19.368,8.32V24.95L66.085,24.95z M106.955,28.82	c6.84-0.855,13.549-2.43,19.904-4.657v29.971l-19.904,8.55V28.82L106.955,28.82z M34.946,86.861	c3.564-8.445,5.964-16.311,5.964-25.467c0-2.812-0.227-5.744-0.715-8.854l-0.012-0.07l-0.018-0.068	c-1.629-6.032-3.908-11.847-7.12-18.212c0.777-0.74,6.778-6.459,11.538-10.994v66.28l-13.178,5.661	C32.588,92.201,33.819,89.412,34.946,86.861L34.946,86.861z M26.694,110.166c0.773-3.928,1.998-7.848,3.384-11.594l124.659-53.548	c-1.865,5.219-3.041,10.595-3.25,16.738l-0.002,0.061l0.004,0.062c0.408,6.909,1.656,12.528,3.484,17.965l-0.025-0.059	L29.396,133.902c-2.016-5.449-3.063-11.406-3.063-17.51C26.333,114.328,26.453,112.25,26.694,110.166L26.694,110.166z M85.454,168.195c-6.267-3.338-12.866-5.861-19.368-8.283v-38.955l19.368-8.348V168.195L85.454,168.195z M32.362,140.34	c-0.726-1.287-1.388-2.621-1.986-3.992l14.208-6.123v20.691c-0.846-0.447-1.684-0.904-2.511-1.381	C38.423,147.148,35.334,144.223,32.362,140.34L32.362,140.34z M115.34,164.014c-2.996,1.24-5.76,2.551-8.385,3.977v-64.648	l19.904-8.578v64.893C123.059,161.035,119.135,162.459,115.34,164.014L115.34,164.014z M150.5,149.543	c-0.707,0.402-1.422,0.791-2.141,1.172V85.498l7.471-3.22c0.559,1.513,1.158,3.023,1.799,4.558	c5.193,11.729,8.605,20.256,8.785,31.616C165.244,131.732,162.162,141.572,150.5,149.543L150.5,149.543z"/><path style="fill-rule:evenodd;clip-rule:evenodd;" d="M32.855,128.623l3.731-27.543l5.332-2.311l12.793,20.258l-5.332,2.309	l-2.309-4.262l-8.53,3.73l-0.711,5.684L32.855,128.623L32.855,128.623z M39.073,116.004l5.686-2.488l-4.62-8.348L39.073,116.004	L39.073,116.004z M62.176,110.498l0.887,4.797l-4.796,2.131l-1.068-4.797L62.176,110.498L62.176,110.498z M66.261,113.873	l3.555-27.366l5.509-2.487l12.794,20.433l-5.332,2.137l-2.309-4.088l-8.53,3.553l-0.533,5.688L66.261,113.873L66.261,113.873z M72.482,101.434l5.686-2.664l-4.62-8.353L72.482,101.434L72.482,101.434z M95.584,95.749l0.887,4.798l-4.975,2.312l-0.889-4.979	L95.584,95.749L95.584,95.749z M101.623,98.414l-4.619-23.813l10.131-4.442c2.129-1.066,3.73-1.066,5.152-0.533	c1.244,0.533,2.309,1.601,3.021,3.02c0.531,1.601,0.709,3.022,0.531,4.799c-0.178,1.601-0.887,3.199-1.773,4.442	c-1.07,1.422-2.314,2.487-4.088,3.376l-5.332,2.309l1.773,8.708L101.623,98.414L101.623,98.414z M103.934,83.664l4.623-2.131	c0.707-0.178,1.242-0.889,1.6-1.422c0.709-0.533,0.887-1.422,0.887-2.133c0-0.887,0-1.599-0.357-2.487	c-0.355-0.711-1.064-1.244-1.6-1.422c-0.709,0-1.596,0.178-2.666,0.533l-4.086,1.778L103.934,83.664L103.934,83.664z M123.129,83.664l0.887,4.977l-4.975,2.133l-0.893-4.978L123.129,83.664L123.129,83.664z M128.99,86.329l-4.439-23.811	l10.127-4.442c1.953-1.068,3.553-1.068,4.975-0.536c1.422,0.536,2.488,1.601,3.023,3.023c0.709,1.598,0.887,3.198,0.709,4.796	c-0.18,1.601-0.889,3.201-1.775,4.621c-1.07,1.246-2.312,2.312-4.088,3.201l-5.51,2.31l1.953,8.708L128.99,86.329L128.99,86.329z M131.477,71.581l4.623-2.133c0.709-0.178,1.244-0.887,1.602-1.422c0.529-0.533,0.887-1.419,0.887-2.131	c0-0.889,0-1.601-0.535-2.312c-0.352-0.887-0.887-1.422-1.422-1.598c-0.709,0-1.596,0.176-2.666,0.533l-4.084,1.776L131.477,71.581	L131.477,71.581z M150.494,71.581l1.064,4.975l-4.975,2.133l-0.891-4.975L150.494,71.581L150.494,71.581z"/></g></svg>