<?xml version="1.0" encoding="iso-8859-1"?><!-- Generator: Adobe Illustrator 16.0.0, SVG Export Plug-In . SVG Version: 6.00 Build 0) --><!DOCTYPE svg PUBLIC "-//W3C//DTD SVG 1.1//EN" "http://www.w3.org/Graphics/SVG/1.1/DTD/svg11.dtd"><svg version="1.1" id="Layer_1" xmlns="http://www.w3.org/2000/svg" xmlns:xlink="http://www.w3.org/1999/xlink" x="0px" y="0px" width="192.756px" height="192.756px" viewBox="0 0 192.756 192.756" style="enable-background:new 0 0 192.756 192.756;" xml:space="preserve"><g><polygon style="fill-rule:evenodd;clip-rule:evenodd;fill:#FFFFFF;" points="0,0 192.756,0 192.756,192.756 0,192.756 0,0	"/><polygon style="fill-rule:evenodd;clip-rule:evenodd;fill:#FFFFFF;stroke:#000000;stroke-width:0.9639;stroke-miterlimit:2.6131;" points="	187.732,6.268 130.113,6.268 62.642,6.268 5.024,6.268 5.024,74.241 97.699,186.488 187.732,74.242 187.732,6.268	"/><path style="fill-rule:evenodd;clip-rule:evenodd;fill:#CD3529;" d="M84.088,155.209c0-87.068,0-87.068,0-87.068H12.921	L84.088,155.209L84.088,155.209z"/><path style="fill-rule:evenodd;clip-rule:evenodd;" d="M108.381,155.209c0-87.068,0-87.068,0-87.068h71.168L108.381,155.209	L108.381,155.209z"/><polygon style="fill-rule:evenodd;clip-rule:evenodd;" points="179.42,61.766 179.42,12.404 12.793,12.404 12.793,61.766	179.42,61.766	"/><polygon style="fill-rule:evenodd;clip-rule:evenodd;fill:#FFFFFF;" points="30.808,27.839 49.684,27.839 49.684,20.975	24.516,20.975 24.516,41.007 43.113,41.007 43.113,46.891 24.516,46.891 24.516,53.475 49.684,53.475 49.684,33.723 30.808,33.723	30.808,27.839	"/><path style="fill-rule:evenodd;clip-rule:evenodd;fill:#FFFFFF;" d="M88.835,40.868V20.975H63.667v32.5h6.432V40.868H88.835	L88.835,40.868z M70.099,27.419h13.143v7.004H70.099V27.419L70.099,27.419z"/><polygon style="fill-rule:evenodd;clip-rule:evenodd;fill:#FFFFFF;" points="108.969,34.143 108.969,27.7 127.705,27.7	127.705,20.695 102.537,20.695 102.537,53.195 108.969,53.195 108.969,40.868 127.705,40.868 127.705,34.143 108.969,34.143	"/><polygon style="fill-rule:evenodd;clip-rule:evenodd;fill:#FFFFFF;" points="148.959,27.7 167.697,27.7 167.697,20.695	142.527,20.695 142.527,53.195 167.697,53.195 167.697,46.19 148.959,46.19 148.959,27.7	"/></g></svg>