<svg xmlns="http://www.w3.org/2000/svg" viewBox="-417.7 606.8 160.4 187.3"><path d="M-388.7 765.6c-2.9-1.6-5.7-3.2-8.3-5.1-1.4-1-2.6-1.9-3.9-3-1.7-1.4-3.3-2.8-4.8-4.4-1.3-1.5-2.6-3-3.7-4.6-1.3-1.8-2.5-3.6-3.5-5.6-.8-1.5-1.5-3.1-2.1-4.6-.5-1.4-1-2.8-1.3-4.3-.5-2.5-.8-4.9-.9-7.4v-3.3l.2-3.3c.2-1.6.4-3.2.7-4.9.3-1.6.6-3.2 1-4.8.7-2.7 1.5-5.3 2.3-7.9 1.9-6.2 4.1-12.2 6.2-18.3 1-3.5 2.1-6.9 2.7-10.5.3-1.9.5-3.7.5-5.6 0-.7-.1-1.4-.1-2.1-.3-1.8-.7-3.5-1.2-5.2-.2-.7-.5-1.4-.7-2-1.4-3.4-3.2-6.5-5.2-9.7-2.2-3.6-4.6-7.1-6.9-10.6l26.7-31.3c2.5 1.4 4.9 2.8 7.4 4.1.5.3 1 .5 1.5.7 2.4 1.1 4.8 2 7.3 2.6 2.1.5 4.1.9 6.3 1.1.6 0 1.3.1 1.9.1 3.9.1 7.7-.3 11.5-1.2 1.2-.3 2.3-.6 3.5-1 3.7-1.3 7.2-3 10.8-4.8 1.1-.6 2.3-1.2 3.5-1.9 3.3 1.7 6.5 3.4 9.9 4.9 2 .8 4 1.6 6 2.2l2.3.6c2.6.6 5.3 1.1 8 1.1 1.7 0 3.4-.1 5-.2 2.1-.2 4-.5 6-1 1.6-.4 3.1-.9 4.6-1.4 1.8-.7 3.5-1.5 5.2-2.3l6.7-3.8 26.3 31.5-5.5 8.4c-.3.4-.5.9-.8 1.3-1.7 2.8-3.3 5.7-4.7 8.7-.7 1.6-1.3 3.2-1.8 5l-.3 1.3c-.4 1.9-.6 3.8-.5 5.8 0 .6 0 1.3.1 1.9.5 4.5 1.6 8.8 3 13.1 1.7 5.2 3.6 10.4 5.3 15.6 1 3.1 2 6.3 2.8 9.5.5 1.9.9 3.7 1.2 5.6.4 1.9.6 3.7.8 5.7.1 1.4.2 2.8.2 4.3v2.9c-.1 1.4-.2 2.8-.4 4.3l-.3 1.5c-.3 1.3-.6 2.6-1 3.8-.5 1.2-.9 2.4-1.4 3.6-.5 1.1-1.1 2.3-1.7 3.4l-2 3.2-2.3 3.1c-.8 1-1.6 1.9-2.5 2.8-.9.9-1.8 1.7-2.7 2.6-1.5 1.4-3.2 2.7-4.9 4-1 .7-2.1 1.5-3.1 2.1-1.5 1-3.1 1.9-4.6 2.7-1.8 1-3.6 1.9-5.5 2.8-7.7 3.6-15.7 6.7-23.5 10.4-2.3 1-4.5 2.1-6.7 3.3l-2.6 1.5c-1.3.8-2.5 1.5-3.7 2.4-3.8 2.8-7.4 5.9-11 9.1-3.5-3.1-6.9-6.1-10.7-8.8-.8-.5-1.5-1-2.3-1.6-4-2.6-8.3-4.7-12.7-6.7-7.5-3.4-15.2-6.4-22.7-9.9-.9-.5-1.9-1-2.9-1.5z"/><path fill="#FFF" d="M-397.1 756c-2.3-1.8-4.5-3.6-6.4-5.8-1.4-1.5-2.6-3.1-3.8-4.8-1-1.5-1.9-3-2.7-4.6-.7-1.4-1.3-2.8-1.8-4.3-.4-1-.7-2.1-1-3.2-.3-1.2-.4-2.4-.6-3.6l-.2-3.1v-3.1c.1-1.5.2-3.1.4-4.6.2-1.6.5-3.1.8-4.6s.7-3.1 1.1-4.6c1-3.6 2.1-7.2 3.3-10.8 2.3-6.7 4.8-13.4 6.6-20.3.6-2.5 1.1-4.9 1.4-7.4.1-1.5.1-2.9 0-4.4l-.1-1.2c-.3-2.3-.9-4.5-1.6-6.7-.6-1.7-1.4-3.4-2.1-5-1.4-2.7-3-5.4-4.7-8-1.5-2.4-3.1-4.7-4.6-7.1l23.1-27c2.1 1.2 4.1 2.3 6.2 3.4 2.6 1.3 5.4 2.2 8.2 3 1.6.4 3.2.7 4.8 1 2.1.3 4.2.4 6.3.4 1.6 0 3.3-.1 4.9-.4 1.6-.2 3.1-.5 4.7-.8 1.5-.4 3.1-.8 4.5-1.3 3-1 5.7-2.2 8.6-3.6 1.6-.8 3-1.6 4.6-2.4 3.2 1.7 6.6 3.4 10 4.8 1.6.6 3.2 1.2 4.8 1.7l1.7.5c3.1.8 6.4 1.4 9.7 1.5 1.8 0 3.6 0 5.4-.2 2-.2 3.9-.5 5.8-1s3.8-1 5.6-1.7c2-.7 3.8-1.6 5.7-2.5l4.2-2.4 22.6 27.1-3.9 6c-.4.5-.7 1.1-1 1.6-1.6 2.7-3.2 5.5-4.6 8.4-.8 1.8-1.6 3.6-2.1 5.4-.4 1.2-.6 2.4-.9 3.6-.1 1-.3 2-.4 3-.2 5.1.9 10.1 2.3 14.9 2.1 7.3 4.9 14.4 7.2 21.7 1 3.1 1.8 6.2 2.6 9.3.4 1.8.7 3.5 1 5.3.1 1.3.3 2.6.4 4 0 1.3.1 2.6.1 4l-.1 2.6-.5 3.9-.9 3.5c-.4 1.1-.8 2.2-1.3 3.2-.5 1.1-1 2.1-1.5 3.1-.6 1-1.2 2-1.8 2.9-.7 1-1.4 1.9-2.1 2.8-1 1.2-2 2.3-3.1 3.5-1.1 1.1-2.3 2.1-3.5 3.1-1.2 1-2.5 2-3.8 2.9-1.3.9-2.7 1.8-4.1 2.6-2.5 1.5-5 2.7-7.6 4-6.8 3.2-13.8 6-20.7 9.1-2.3 1-4.6 2.1-6.9 3.3-3.7 1.9-7.4 3.9-10.7 6.4-2.6 2-5.1 4.1-7.7 6.3-4.5-4-9.2-7.8-14.5-10.8-2.5-1.4-5-2.6-7.5-3.8-7.8-3.6-15.9-6.7-23.7-10.4-4.6-2.2-8.9-4.6-13-7.6l-1.1-.7z"/><path d="M-406.4 739.8l138.6-98.9c-6.1 9.3-10.8 17.7-10.8 27.5 0 20.2 20.7 48.8 11.1 69.6-12.7 26.9-46.7 25.3-70 46.4-22.7-20.6-55.6-19.6-68.9-44.6zm1.3-37.9l119.7-85h.1l-.2-.3c-16.3 9.4-33.6 9-52-1.2-18.3 10.3-35.6 10.6-51.9 1.2l-19.2 22.5c6.6 10 12.3 18.8 12.3 29.3 0 9.9-4.8 21.7-8.8 33.5zm114.6-50l-2.6-3.7 3.7-2.6 2.6 3.7m-10.9-1.6c1.3 2.1 1.7 4.3 1.1 6.6-.6 2.2-2.1 4.2-4.4 5.8-2.6 1.9-5.3 2.5-8 1.9-2.6-.6-5.1-2.4-7.2-5.4-2.2-3.1-3.1-5.9-2.7-8.7.4-2.7 2-5.1 4.8-7.1 2.3-1.6 4.5-2.4 6.7-2.2 2.1.2 4 1.2 5.6 3.2l-3.6 2.6c-.9-.9-1.9-1.4-2.9-1.5-1 0-2.2.4-3.3 1.2-1.6 1.1-2.5 2.6-2.6 4.2-.1 1.6.6 3.5 2 5.5s2.9 3.2 4.5 3.6c1.6.5 3.2.1 4.7-1 1.1-.8 1.8-1.7 2.1-2.8.3-1.1.2-2.2-.4-3.5l3.6-2.4zm-18.6 22.5l-2.6-3.7 3.7-2.6 2.6 3.7m-14.7 10.4l-12.8-18 12.6-8.9 2.3 3.1-9 6.3 2.9 4.1 7.8-5.5 2.3 3.1-7.9 5.6 5.5 7.7m-18.1 3.5c1.3 2.1 1.6 4.3 1.1 6.6-.6 2.2-2.1 4.1-4.4 5.8-2.6 1.9-5.3 2.6-8 2-2.7-.6-5.1-2.4-7.2-5.4-2.2-3.1-3.1-6-2.7-8.7.3-2.7 1.9-5.1 4.7-7.1 2.3-1.6 4.6-2.4 6.7-2.2 2.1.1 4 1.2 5.6 3.2l-3.6 2.6c-.9-.9-1.8-1.4-2.9-1.5-1.1 0-2.2.3-3.3 1.1-1.6 1.2-2.5 2.6-2.6 4.2s.5 3.5 2 5.5c1.4 2 2.9 3.1 4.5 3.6s3.2.1 4.8-1c1.1-.8 1.8-1.8 2.1-2.8.3-1.1.2-2.2-.4-3.5l3.6-2.4zm-29.1 30l-12.8-18.1 8.5-6c1.9-1.3 3.6-1.9 5.1-1.8s2.8.9 3.9 2.4c.6.9 1 1.8 1.1 2.6 0 .9-.1 1.7-.6 2.6 1.2-.3 2.3-.2 3.2.1 1 .4 1.8 1.1 2.6 2.1 1.2 1.7 1.6 3.5 1.1 5.3-.5 1.7-1.7 3.4-3.8 4.9l-8.3 5.9zm-25.5-9l4.3-3 19.3 13.4-3.9 2.7-3.9-2.8-6.9 4.9 1.4 4.6-3.9 2.8"/><path fill="#FFF22D" d="M-309.1 730.3l-3.5 12.2 11.1-7.2 11.1 7.2-4.1-12.2 10-7.6h-12.4l-4.7-12.3-4.7 12.3h-12.6l9.8 7.6zm-85.2-90.1l-1.7 5.9 5.4-3.5 5.4 3.5-2-5.9 4.8-3.7h-5.9l-2.3-6-2.3 6h-6.1l4.7 3.7zm18 0l-1.7 5.9 5.4-3.5 5.4 3.5-2-5.9 4.8-3.7h-6l-2.3-6-2.3 6h-6.1l4.8 3.7zm18 0l-1.6 5.9 5.4-3.5 5.4 3.5-1.9-5.9 4.8-3.7h-6l-2.3-6-2.3 6h-6.1l4.6 3.7zm18 0l-1.7 5.9 5.3-3.5 5.4 3.5-2-5.9 4.9-3.7h-6l-2.3-6-2.3 6h-6l4.7 3.7z"/><path fill="#FFF" d="M-375.1 695.5l4.2-3c1-.6 1.5-1.3 1.7-1.9.2-.6 0-1.2-.4-1.9-.5-.7-1-1-1.6-1-.6 0-1.4.3-2.4 1l-4.2 3 2.7 3.8zm5.5 7.8l4.4-3.1c1-.8 1.7-1.5 1.9-2.2.2-.7 0-1.5-.5-2.3-.6-.9-1.2-1.3-2-1.3s-1.6.3-2.7 1.1l-4.4 3.1 3.3 4.7zm-22-1.2l3 9.4 5-3.5"/></svg>