<svg xmlns="http://www.w3.org/2000/svg" viewBox="-417.5 618 160.3 175.7"><path fill="#FFF" d="M-337.8 620.2s37.8 25.1 77.3 7.8c14.6 120.7-77.7 163.6-77.7 163.6s-87.1-38.3-77.5-163.6c47.8 17.7 77.9-7.8 77.9-7.8z"/><path fill="#55AB55" d="M-413.9 626.4c10.9 4.7 22.4 7.1 34.8 6.1 12.5-1 25.8-5.3 40.5-13.9l1-.6 1 .6c14.6 8.6 28 12.9 40.5 13.9 12.4 1 23.9-1.4 34.8-6.1l2.5-1.1.3 2.7c1 9.7 1.4 19.1 1.2 28.4-.2 9.3-1 18.4-2.5 27.3-7.5 45.8-31.9 85-76.7 109.5l-.9.5-.9-.5c-8.7-4.7-16.6-10-23.8-15.7-7.2-5.8-13.6-12.1-19.4-18.8-29.4-34.7-39.9-81.1-34.8-130.7l.3-2.7 2.1 1.1zm35.1 10.1c-12.1.9-23.4-1.1-34.2-5.4-4.3 47.6 6 92 34.2 125.1 5.6 6.6 11.8 12.7 18.8 18.3 6.7 5.4 14.2 10.4 22.3 14.8 43-23.9 66.5-61.9 73.8-106.2 1.4-8.7 2.2-17.6 2.4-26.8.2-8.3-.1-16.8-.9-25.3-10.7 4.3-22 6.4-34.2 5.4-12.7-1-26.3-5.3-41.2-13.8-14.6 8.6-28.3 12.9-41 13.9z"/><path fill="#55AB55" d="M-357.4 676.1h37.8c10.2 21.6 16.1 43.7 16.5 66.3-2.1 4.5-7.1 4.6-8.8 0 .1-5.7-.4-11.7-2.2-18.4h-48.4c-1 6.1-1.5 12.3-1.5 18.4-1.3 4.8-6.8 4.5-8.9 0 .7-24 5-46.3 15.5-66.3z"/><path fill="#FFF" d="M-361.8 716.2h46.2c-1.3-11.3-4.9-21.8-9.2-32H-352c-5 10.1-7.7 20.9-9.8 32z"/><path fill="#55AB55" d="M-336.8 698.9h32.3c3.6 2.4 3.6 5.1 0 8.1h-34.1l1.8-8.1z"/><path fill="#55AB55" d="M-361.1 643.3c-4.1 1.7-3.8 6.4 0 7.7h18.3v112c1.5 5.4 8 4 8.8 0l-.4-112h26.8c4.2-1.2 4.2-6.6 0-7.7h-53.5z"/><path fill="#55AB55" d="M-307.9 676.7c-30.8-28.6-65.5-6.7-67.5 23.9.4 30 36.7 55.2 69.4 22.8 4.8-1.6 7.6 1.5 5.5 5.9-47.2 42.8-84.5-3.7-82.9-28-.9-35.4 44.5-65.7 80.6-30.1 1.5 4.5-1.1 7.1-5.1 5.5z"/></svg>