<svg id="svg2527" xmlns="http://www.w3.org/2000/svg" viewBox="-23 95.4 565 603.6"><style>.st0{fill:none;} .st1{fill:#FFFFFF;} .st2{fill:#EE4120;}</style><g id="layer1"><g id="g3517"><path id="path2660" d="M120.25 496.55l-143.2-202.5V95.45h565v198.5l-135.2 196.4c-74.3 108.1-137 199.2-139.2 202.6l-4.1 6.1-143.3-202.5zm274.8-17.2l131-190.5v-177.6h-533v177.6l132.6 187.4c73 103.1 133.6 188.9 134.7 190.7 1.2 1.8 2.5 3.1 2.9 3 .5 0 59.8-85.9 131.8-190.6zm-122-19.3v-158.7h111.1c88.6 0 110.9.3 110.3 1.2-1.6 2.7-219.6 314.3-220.4 315.2-.7.6-1-63.5-1-157.7zm-258-251.7v-79h489v158h-489v-79zm473 .5v-62.5h-457v125h457v-62.5zm-255.7 50.4c-27.6-4.6-43.4-28.9-36.8-56.8 4-16.9 16.7-28.7 35.3-32.6 17.6-3.7 36.2.3 47.2 10.2 3.6 3.2 10 14.1 10 16.8 0 .6-5.2 2.2-11.8 3.5-6.5 1.3-12.2 2.5-12.8 2.7-.6.2-2-1.9-3.3-4.6-3-6.5-8-9.1-17.6-9.1-14.2 0-21.5 8.3-21.6 24.2-.1 16.6 7.4 25.8 21.2 25.8 10 0 15.3-3.6 18.7-12.6 1-2.7 2.2-4.9 2.7-4.9s6.2 1.3 12.6 3c11.5 2.9 11.8 3 11.2 5.5-2.4 10.1-13.2 22.2-22.9 25.9-10 3.8-21.2 4.8-32.1 3zm140.2-.4c-13.6-2.8-25.2-10.3-31.7-20.5-6-9.4-8.3-23.7-5.7-34.9 2.5-10.9 10.5-21.7 20.1-27.4 14.7-8.6 39-10.1 56.6-3.6 8 3 17.3 12.2 19.7 19.6 1 2.9 1.6 5.5 1.3 5.8-.5.5-24.9 4.6-25.3 4.2-.1-.1-1-1.8-1.9-3.8-2.7-5.8-7.7-8.4-16.9-8.9-10.4-.5-16 1.2-21.3 6.3-5.2 5-6.8 10.3-6.2 20.3.6 9.8 3.7 15.7 10.2 19.8 4.6 2.8 5.4 3 15.4 3 8.8 0 11.4-.4 15.3-2.2 4.2-1.9 4.8-2.6 4.8-5.2v-3.1h-23v-20h50l-.3 19.2-.3 19.2-9 4.5c-5 2.5-12.4 5.4-16.5 6.4-9.9 2.6-26.4 3.2-35.3 1.3zm-321.4-11.2c2.8-5.9 12-25.7 20.6-44l15.6-33.3 12.9.3 12.9.3 21.4 43.8 21.4 43.8h-28.4l-4.3-9-4.3-9h-36.6l-3.9 9-3.9 9h-28.4l5-10.9zm57.9-28.7c0-1.2-8.2-17.6-8.8-17.6-.6 0-5.2 9.9-7.9 16.8-.4.9 1.6 1.2 8.1 1.2 4.7 0 8.6-.2 8.6-.4zm53 28.4v-11h25v22h-25v-11zm136 0v-11h26v22h-26v-11zm148 0v-11h25v22h-25v-11z"/><path id="path3490" class="st1" d="M260.55 667.15c-1.2-1.8-61.8-87.6-134.7-190.7l-132.7-187.3v-177.6h533v177.4l-130.9 190.5c-72 104.8-131.3 190.6-131.8 190.7-.4.1-1.8-1.2-2.9-3zm-7.9-365.5c-.4-1-23.6-1.2-111.6-1.2-98.8 0-111.1.2-110.6 1.5.6 1.6 217.9 312.7 220.5 315.8 1.5 1.7 1.6-11.3 1.9-156.5.2-87 .1-158.9-.2-159.6zm131.7 158.8c60.1-86.1 109.7-157.1 110.1-157.8.6-1-21.7-1.2-110.3-1.2h-111v158.7c0 94.2.4 158.3.9 157.8.5-.6 50.1-71.4 110.3-157.5zm119.8-252v-79h-489v158h489v-79zm-473 .5v-62.5h457v125h-457v-62.5zm221.8 50.5c10.2-1.7 16.7-4.6 23-10.5 5.4-5 10.3-12.8 11.7-18.5.6-2.5.3-2.6-11.2-5.5-6.5-1.6-12.2-3-12.6-3s-1.7 2.2-2.7 4.9c-3.4 9.1-8.7 12.6-18.7 12.6-13.8 0-21.3-9.2-21.2-25.8.1-15.9 7.5-24.2 21.6-24.2 9.6 0 14.6 2.6 17.6 9.1 1.2 2.7 2.7 4.8 3.3 4.6.6-.2 6.3-1.4 12.8-2.7 6.6-1.3 11.8-2.9 11.8-3.5 0-2.8-6.4-13.6-10-16.8-13.9-12.6-40.1-15.3-59.4-6.1-7.2 3.4-15.4 11-18.9 17.2-7.2 13.2-7.5 32.1-.7 45.3 8.6 17.2 30.7 26.6 53.6 22.9zm155.2-1.6c4.1-1 11.5-3.9 16.5-6.4l9-4.5.3-19.2.3-19.2h-50v20h22.9v3.1c0 2.7-.6 3.3-4.8 5.2-3.9 1.8-6.6 2.2-15.3 2.2-10 0-10.8-.2-15.4-3-6.5-4-9.6-10-10.2-19.8-.6-10 1-15.3 6.2-20.3 5.3-5.1 10.9-6.8 21.3-6.3 9.2.4 14.1 3 16.9 8.9.9 1.9 1.7 3.6 1.9 3.8.3.4 24.7-3.7 25.3-4.2.2-.2-.3-2.8-1.3-5.8-2.5-7.4-11.8-16.7-19.7-19.6-17.6-6.6-41.9-5-56.6 3.6-24.7 14.5-28.5 50.2-7.6 70.6 5.1 5 16.2 10.4 24.9 12.2 8.8 1.6 25.4 1.1 35.4-1.3zm-329.6-8.4l3.9-9h36.4l4.3 9 4.3 9h28.4l-21.4-43.8-21.2-43.7-12.9-.3-12.9-.3-15.6 33.3c-8.6 18.3-17.8 38.1-20.6 44l-5 10.8h28.4l3.9-9zm13.8-31.3c2.7-6.9 7.3-16.7 7.9-16.7.6 0 8.8 16.4 8.8 17.6 0 .2-3.9.4-8.6.4-6.4 0-8.4-.3-8.1-1.3zm94.8 29.3v-11h-25v22h25v-11zm137 0v-11h-26v22h26v-11zm147 0v-11h-25v22h25v-11z"/><path id="path3505" class="st2" d="M250.95 617.95c-2.7-3.1-219.9-314.3-220.5-315.9-.5-1.3 11.8-1.5 110.6-1.5 88 0 111.2.3 111.6 1.2.3.7.4 72.5.2 159.6-.3 145.3-.4 158.3-1.9 156.6z"/></g></g></svg>