<svg id="Layer_1" xmlns="http://www.w3.org/2000/svg" viewBox="-200.4 308.7 175.6 175.7"><style>.st0{fill:#2762A6;} .st1{fill:#FFFFFF;} .st2{fill:#CD3529;}</style><path class="st0" d="M-200.4 484.5zm87.9-.2c48.3 0 87.7-39.5 87.7-87.8s-39.4-87.8-87.7-87.8c-48.4 0-87.8 39.5-87.8 87.8 0 48.4 39.5 87.8 87.8 87.8z"/><path class="st1" d="M-193.9 396.6c0 44.9 36.6 81.5 81.6 81.5 44.9 0 81.5-36.6 81.5-81.5 0-45-36.6-81.6-81.5-81.6-45 0-81.6 36.6-81.6 81.6zm5.1 0c0-42.2 34.3-76.5 76.5-76.5 42.1 0 76.4 34.3 76.4 76.5 0 42.1-34.3 76.4-76.4 76.4-42.2.1-76.5-34.2-76.5-76.4z"/><path class="st1" d="M-112.3 442.2c-25.1 0-45.5-20.4-45.5-45.4s20.4-45.4 45.5-45.4c24.9 0 45.4 20.4 45.4 45.4s-20.5 45.4-45.4 45.4z"/><path class="st1" d="M-166.6 396.8c0 29.8 24.3 54.1 54.1 54.1s54-24.3 54-54.1-24.3-54.1-54-54.1c-29.8 0-54.1 24.3-54.1 54.1zm5 0c0-27.1 22-49.1 49.1-49.1 27 0 49 22 49 49.1s-22 49.1-49 49.1-49.1-22-49.1-49.1z"/><path class="st2" d="M-144.8 361.4c17.2-8.1 25.5.2 38.1 1.6 11.6 4.3 22.6-.7 33.1-2.2-8.3 33.7 3.6 48.9 5.6 73.3-23.3-1.1-42.1-16.4-69.7-2.9 3.2-23.4.6-46.9-7.1-69.8z"/><path class="st1" d="M-108.1 362.5v16.4h32l2.7-18.2c-13.4 3.1-24.2 5.2-34.7 1.8zm68.6 44.5l.5-3.1-9.1-1.4-6-.9-.4-.1-.4 3.1.8.2 5.9.9-.9 6.1-5-.8-1.8-.3-.5 3.1 2.3.4 6 1 7.2 1.1.5-3.1-6.1-1 .9-6.1zm-14.6 10.9l-3.8-1.3-1 2.9 4.8 1.7 6 2.1 4 1.3 1-2.9-5-1.7zm0-33.1l-1-.3.1 3.3.9.3 2.7.9.2 6.2-2.9 1.2-.5.3.1 3.4.4-.2 6-2.7 8.9-3.9-.1-3.3-8.8-3.1-6-2.1zm11.3 6.9l-5.2 2.1-.5.3-.2-4.3.7.3 5.2 1.6zm-16.4 29.4l-1.7 2.9 2.4 2.9-3.2 5.3-3.7-.6-1.8 2.9 13.2 2.2 3.4.5 1.7-2.9-5.2-6.6-5.1-6.6zm6.3 12.8l-1.2-.3-4.9-.9 2.2-3.6 2.7 3.3 1.2 1.5zm-9.9-72.4l-5.8-6.5 3.1-2.8 5.2 5.8 2-1.7-5.3-5.9 2.6-2.3 5.7 6.2 1.2-1.1.7-.6-.7-.8-7-7.8-9.5 8.5-2.1 1.9 2.1 2.4 5.8 6.5zm2.3 9.8l1.9 5c.7 1.9 1.2 3.1 1.5 3.6.4.7.9 1.3 1.4 1.7.4.3 1 .5 1.6.6h.4c.7.1 1.4 0 2.1-.2.9-.4 1.5-.9 1.9-1.6.4-.7.6-1.6.6-2.5.3.3.6.5 1 .7.3.1.6.2.9.2.7.2 1.4.1 2-.1.6-.2 1.2-.6 1.6-1.1.4-.5.7-1.1.8-1.6.1-.6.1-1.1 0-1.7s-.4-1.5-.9-2.6l-2.2-5.8-2.2.8-6 2.3-6.4 2.3zm12.4-1.4l.9-.3.7 1.7.9 2.5c.1.6.1 1-.1 1.3-.2.4-.5.6-.9.8-.5.2-.9.2-1.3 0h-.1c-.3-.2-.6-.6-.9-1-.1-.2-.4-.9-.9-2.1l-.7-1.9 2.4-1zm-4.8 1.9l.9 2.4c.5 1.4.7 2.2.7 2.7.1.5-.1.8-.3 1.2-.2.3-.5.5-1 .7-.5.2-.9.2-1.4.1 0 0 0-.1-.1-.1-.4-.2-.6-.4-.9-.8-.2-.2-.5-.9-.9-2l-1-2.7 2.8-1.1 1.2-.4zM-72 348.4c.4-.8.6-1.6.5-2.4-.1-.9-.5-1.6-1.2-2.4.7 0 1.4-.1 2-.3l.1-.1c.6-.3 1.2-.8 1.6-1.4.3-.5.5-1.2.5-1.8 0-.6-.1-1.2-.3-1.7-.3-.5-.6-1-1.1-1.4-.2-.2-.4-.4-.7-.5-.4-.3-.9-.6-1.6-1.1l-2.6-1.6-2.7-1.6-7.1 11.8-1 1.6 1 .6 3.6 2.2c1.7 1 2.8 1.6 3.3 1.9.8.3 1.6.5 2.2.4.2 0 .4-.1.7-.1.4-.1.9-.3 1.3-.6.6-.3 1.1-.9 1.5-1.5zm-2.7-1.8v.1c-.3.4-.6.7-1 .8-.4.1-.9.1-1.3-.1-.3 0-.9-.4-1.9-1l-2.5-1.5 2.2-3.5 2.2 1.3c1.2.7 2 1.2 2.3 1.6 0 0 .1 0 .1.1.2.3.4.7.4 1-.1.4-.3.8-.5 1.2zm.5-5.3c-.1-.1-.3-.1-.5-.2-.3-.3-.8-.5-1.4-.9l-1.8-1.1 1.9-3.1 1.4.8.2.1c1.3.7 2.1 1.2 2.3 1.4.4.3.7.7.7 1 0 .4 0 .8-.3 1.2-.3.4-.6.7-1.1.8-.5.3-.9.2-1.4 0zm-9.4-12l-.9-.3-2.1-.7-2.9 8.1c-.4 1.2-.7 2-1 2.5-.3.5-.7.8-1.2 1-.5.3-1.2.2-2.1-.1-.9-.2-1.4-.7-1.8-1.2-.4-.5-.5-1.1-.4-1.7 0-.4.2-1.2.7-2.5l2.8-8-3-1-2.7 7.9c-.5 1.7-.9 2.9-1 3.8 0 .6 0 1.2.3 1.9.2.7.7 1.3 1.2 1.9.6.5 1.6 1.1 3 1.6 1.2.4 2.2.6 3.1.5.8 0 1.5-.2 2.1-.5.6-.4 1.1-.9 1.6-1.5.4-.7.9-1.9 1.5-3.7l1.7-5 1.1-3zm-62.5 17.7l-2.1-3.6 6.6-4.1-1.3-2.2-6.7 4-1.8-3 7.2-4.3-1.3-2.2-8.5 5-1.4.9 1.4 2.5 6.5 10.9 10.2-6.1-1.3-2.3zm25-10.3c-.5.6-1.2 1-2 1.1-1.1.2-2.1-.1-3-.8-.8-.7-1.4-2.1-1.7-4-.3-1.9-.2-3.2.4-4.2.5-.9 1.4-1.5 2.6-1.7.8-.1 1.6 0 2.2.4.7.4 1.2.9 1.5 1.7l2.9-1.2c-.5-1.2-1.2-2-2-2.6-1.4-.9-3-1.2-4.9-1-2.2.4-3.8 1.4-4.9 3-1.1 1.6-1.4 3.7-1 6.3.4 2.4 1.3 4.2 2.9 5.4 1.6 1.2 3.3 1.6 5.4 1.3 1.7-.3 3-.9 3.9-1.9.9-1 1.5-2.4 1.7-4.1l-3.2-.5c0 1.3-.3 2.1-.8 2.8zm11.2-12.8h-3.1l-.6 15.4 11 .4.1-2.6-7.9-.3zm-52.5 23l3-3.5-2.1-1.8-2.2 2.7-5.7 6.8 2 1.8 3-3.6.7.6 9.3 7.7.4-.6 1.5-1.8-1.5-1.3zm-1.3 14.8c-.4.1-.8.1-1 .2-.6.2-1.3.4-2 .9.5-1.3.5-2.4.2-3.4s-1-1.7-2.1-2.3c-.8-.5-1.6-.7-2.5-.6-.3 0-.6.1-.9.2-.4.1-.9.4-1.2.7-.6.5-1.4 1.5-2.2 3l-3.1 5.8 6.6 3.6 7.1 3.9 1.1-2.1.4-.7-.4-.2-5.3-3 .3-.6c.3-.6.6-1 .9-1.3.3-.3.6-.4 1-.5.4-.1 1.4-.3 2.8-.4h.3l3.8-.3 1.9-3.3-3.6.2c-.9.1-1.6.2-2.1.2zm-5.2.2c-.1.4-.5 1.3-1.2 2.6l-1.2 2.1-.7-.4-2.8-1.5 1.2-2.2 1.1-2 .4-.4c.3-.1.5-.2.7-.3.4 0 .9 0 1.4.3.4.2.7.5.9.9.2.2.3.5.2.9zm4.7 59.6l-2.3 1.4 2.8 4.7 1.7 2.7-1.7 1.1-2 1.2-4-6.8-2.2 1.4h-.1l.1.1 3.9 6.6-2.9 1.8-1-1.7-3.3-5.5-2.3 1.3 5.6 9.4.3.6 7.9-4.8 5.5-3.3-5.5-9.3zm-7.7-16.2l2.6-.2-.2-3.1-2.4.2-3.5.2-.1-2.1c-.1-1.4-.2-2.5-.4-3.3-.2-.5-.5-1.1-.9-1.6s-1-.9-1.6-1.2c-.6-.2-1.2-.4-1.9-.4h-.5c-1.2.1-2.2.5-3 1.1-.7.6-1.2 1.4-1.4 2.3-.1.6-.1 1.9 0 3.8l.3 5 4.5-.3 8.5-.4zm-10.6-2.4l-.1-1.6c-.1-1.1-.1-1.9 0-2.2 0-.5.2-1 .5-1.4.4-.3.8-.5 1.4-.5h.3c.4 0 .7.1.9.2.4.2.7.5.9.9.2.4.3 1.2.4 2.5v1.7l-2.3.1-2 .3zm6.3 19.6c1.2-.4 2.1-1.2 2.6-2.3.4-.8.5-2.1.4-3.9 0-1.4-.1-2.2-.1-2.6 0-.5.1-1 .3-1.3.2-.3.4-.5.8-.6.1 0 .2-.1.4-.1.5 0 .9.1 1.3.4.5.4 1 1 1.3 2 .3.9.3 1.7 0 2.4s-.9 1.2-1.8 1.7l1.2 2.9c1.6-.8 2.7-1.7 3.2-3.1.5-1.3.5-2.9-.1-4.8-.4-1.3-.9-2.3-1.6-3-.6-.8-1.4-1.2-2.3-1.5-.4 0-.8-.1-1.2-.1-.4 0-.9.1-1.4.2-.9.3-1.7.8-2.2 1.4-.5.6-.9 1.3-1 2.2-.1.8-.1 2 0 3.5.1 1.6 0 2.6-.1 3.1-.1.4-.4.6-.7.7-.4.1-.7.1-1.1-.2-.5-.4-.9-1-1.2-1.9-.2-.9-.3-1.6-.1-2.1.2-.6.7-1 1.4-1.4l-1.1-3c-.4.1-.7.3-1 .4-.8.5-1.4 1.2-1.8 2.1-.6 1.2-.5 2.7.1 4.7.4 1.1.9 2.1 1.5 2.7.1 0 .1.2.2.2.6.6 1.2.9 1.9 1.1.6.4 1.4.4 2.2.2zm-6.7-37.5c.4.8 1 1.4 1.6 2 .3.3.6.4.8.6.8.5 1.7.9 2.9 1.2 2.2.6 4 .6 5.6-.1l.6-.3c1.7-.9 2.9-2.5 3.6-4.7.6-2.2.4-4.1-.6-5.9-.7-1.3-1.9-2.3-3.6-3-.4-.2-1-.4-1.6-.5-2.4-.7-4.5-.6-6.2.4-.3.1-.4.3-.7.4-1.4 1-2.4 2.4-2.9 4.3-.3 1.2-.4 2.4-.3 3.4.1.7.4 1.5.8 2.2zm2.1-5c.1-.3.2-.5.3-.8.4-.8 1-1.4 1.8-1.8 1.1-.5 2.5-.5 4.2 0 1 .3 1.9.7 2.5 1.2.5.3.8.7 1.1 1.1.6 1 .7 2.2.4 3.3-.2.9-.8 1.7-1.6 2.2-.2.1-.4.2-.6.4-1.1.6-2.5.6-4.2.1-1.7-.5-2.9-1.2-3.6-2.2 0 0 0-.1-.1-.2-.4-1-.5-2.1-.2-3.3zm85.1 71.7l-2.3.6c0 1.1-.5 2-1.1 2.9-.6.9-1.2 1.5-1.9 1.9-.1.1-.1.1-.2.1l.2.7.5 1.9c1.3-.9 2.3-1.9 3.1-3.2l2.9 10.9 2.8-.7-4-15.1zm-6.1 10.6c-.6-.6-1.3-1-2.2-1.2 1.5-.9 2.2-2 2.1-3.4 0-1-.5-1.9-1.2-2.5-.9-.9-2.2-1.3-3.6-1.2-.9 0-1.6.2-2.3.6-.6.4-1.2.8-1.5 1.4-.4.5-.6 1.3-.7 2.3l2.7.3c0-.7.2-1.2.6-1.6.3-.4.7-.5 1.2-.5.5-.1 1 0 1.3.4.3.3.5.8.6 1.2 0 .6-.2 1.1-.6 1.6-.4.4-1 .6-1.8.6l-.2 2.4c.5-.2 1-.3 1.4-.3.5 0 1.1.2 1.5.6.4.4.7 1 .7 1.7 0 .8-.1 1.4-.5 1.9s-.9.7-1.6.8c-.6 0-1-.1-1.5-.5-.4-.4-.7-.9-.8-1.7l-2.9.5c.3 1.3.8 2.4 1.8 3.1 1 .7 2.1 1.1 3.6 1 1.5-.1 2.6-.6 3.7-1.7.5-.6.9-1.2 1.1-1.9.1-.6.2-1.1.2-1.7 0-.5-.1-.8-.2-1.1-.3-.3-.5-.7-.9-1.1zm-15.6-8.3h-.3c-1.3 0-2.4.4-3.3 1.3-1 .9-1.6 2.2-1.6 3.7s.3 2.8 1.1 3.8c.9 1 1.9 1.5 3.1 1.6.3.1.6 0 .7 0 .8-.1 1.6-.5 2.2-1.1-.2 1.7-.5 2.9-1 3.5-.3.4-.7.6-1.1.7h-.5c-.5 0-.9-.2-1.1-.5-.3-.3-.4-.8-.5-1.3l-2.9.2c.1 1.3.5 2.3 1.3 3 .7.7 1.7 1 2.9 1.1h.8c1.4-.1 2.5-.7 3.4-1.7 1.1-1.2 1.7-3.2 1.9-6.1.1-2.8-.2-4.8-1.2-6.1-1-1.4-2.3-2.1-3.9-2.1zm1.1 7.6c-.4.4-.8.5-1.4.5h-.1c-.5 0-1-.2-1.4-.7-.4-.5-.5-1.2-.5-2.2 0-1 .3-1.7.7-2.2.4-.4.9-.6 1.4-.6h.1c.5.1 1 .3 1.5.9.4.5.6 1.3.6 2.3-.2.9-.5 1.6-.9 2zm-12.2-6.9c-1.1.4-2.1.7-2.9.7l-.7 2.6c1.6 0 3-.4 4.3-1.2l-3 10.9 2.9.8 4.1-15.1-2.4-.6c-.4.7-1.2 1.4-2.3 1.9zm52.7-1.8c2.4 0 4.3-1.9 4.3-4.3s-1.9-4.3-4.3-4.3c-2.3 0-4.2 1.9-4.2 4.3s1.9 4.3 4.2 4.3zm-74.1 1.6c2.3 0 4.2-1.9 4.2-4.3s-1.9-4.3-4.2-4.3c-2.4 0-4.3 1.9-4.3 4.3.1 2.3 2 4.3 4.3 4.3zm3.9-96.4l-7.2.9 11 95.5 8-.9-11-95.6z"/><path class="st0" d="M-67.3 434c-.7-8.1-2.5-15.2-4.1-22.2-3.5-14-7-28.5-1.5-50.9l.2-.9-.9.1c-2.8.4-5.6 1.1-8.4 1.7-7.9 1.8-16 3.7-24.4.6h-.2c-3.7-.4-7.1-1.5-10.4-2.5-7.8-2.4-15.8-4.8-28 1l-.5.2.2.5c7.8 23.4 10.2 46.7 7.1 69.5l-.1 1.1 1.1-.5c18.3-8.9 32.3-5.2 47.2-1.2 7.1 1.9 14.5 3.8 22.3 4.2h.7l-.3-.7zm-22.6-4.7c-14.2-3.8-28.8-7.6-47 .9.8-6.1 1.2-12.3 1.2-18.4v-1.3c0-4.4-.3-8.8-.7-13.3 9.1-3.5 18.6-4.7 28.8-3l-.2-30.7c.3 0 .7.1 1 .1 8.7 3.2 17 1.3 25.1-.5 2.6-.6 5-1.1 7.4-1.5-1.9 8.2-2.7 15.3-2.7 21.7 0 4.7.4 9 1 13.2.8 5.4 2 10.4 3.2 15.3 0 .1.1.3.1.5 1.6 6.7 3.3 13.6 4.1 21.3-7.4-.7-14.4-2.5-21.3-4.3z"/><path class="st0" d="M-152.2 359.7l10.8 93.8 6.3-.7-10.8-93.8z"/><path class="st1" d="M-72.8 411.6c-1.2-4.9-2.4-9.9-3.2-15.3-10.7.5-31.6-2.2-31.6-2.2-10.2-1.8-19.7-.5-28.8 3 .4 4.4.7 8.9.7 13.3 22.5-5.7 41.1 2.3 62.9 1.2zm-52.3-20.6c-6.6 0-11.9-6.4-11.9-14.2 0-7.9 5.3-14.3 11.9-14.3 6.5 0 11.9 6.4 11.9 14.3 0 7.8-5.3 14.2-11.9 14.2z"/><path class="st2" d="M-131.6 369.1c3.4-1.6 5.1 0 7.6.3 2.3.9 4.5-.1 6.6-.5-1.6 6.7.7 9.8 1.1 14.7-4.7-.2-8.4-3.3-14-.6.8-4.6.3-9.3-1.3-13.9z"/><path class="st1" d="M-124.2 369.3v3.3h6.4l.5-3.6c-2.7.6-4.8 1-6.9.3zm-7.6-.9l-1.4.2 2.2 19.1 1.6-.2-2.2-19.1z"/><path class="st0" d="M-116.1 383.6c-.1-1.6-.5-3.1-.8-4.4-.7-2.8-1.4-5.7-.3-10.2v-.2h-.2l-1.7.3c-1.6.4-3.2.7-4.9.1-.7-.1-1.4-.3-2.1-.5-1.6-.5-3.1-1-5.6.2h-.1v.1c1.6 4.7 2 9.4 1.4 13.9v.2l.2-.1c3.6-1.8 6.5-1 9.4-.2 1.4.4 2.9.8 4.4.8h.3zm-4.5-.9c-2.8-.7-5.8-1.5-9.4.2.1-1.2.2-2.4.2-3.7v-.3c0-.9-.1-1.8-.1-2.7 1.8-.7 3.7-1 5.7-.6v-6.1h.2c1.7.6 3.4.3 5-.1l1.5-.3c-.4 1.6-.5 3.1-.5 4.3 0 1 .1 1.8.2 2.6.2 1.1.4 2.1.6 3.1v.1c.3 1.3.7 2.7.8 4.2-1.4 0-2.8-.4-4.2-.7z"/><path class="st0" d="M-133 368.8l2.1 18.7 1.3-.1-2.2-18.8z"/><path class="st1" d="M-117.2 379.1c-.2-1-.5-2-.6-3.1-2.1.1-6.3-.5-6.3-.5-2-.4-3.9-.1-5.7.6.1.9.1 1.8.1 2.7 4.5-1 8.2.6 12.5.3zm-10.4-4.1c-1.3 0-2.4-1.3-2.4-2.8 0-1.6 1.1-2.9 2.4-2.9 1.3 0 2.4 1.3 2.4 2.9 0 1.5-1.1 2.8-2.4 2.8z"/></svg>