<svg id="Layer_1" xmlns="http://www.w3.org/2000/svg" viewBox="-201 281.4 208.1 231.6"><style>.st0{fill:#FFFFFF;}</style><path d="M7 335.5l.1-32c-31.8 8.2-64.6-11.5-64.6-11.5-22.9-11.5-39.4-10.6-39.4-10.6s-16.6-.9-39.5 10.6c0 0-32.9 19.8-64.6 11.5l.1 32C-201.6 461.5-96.8 513-96.8 513S7.7 461.5 7 335.5z"/><path class="st0" d="M-96.8 501.7s-95.6-54.6-95.7-161.3l-.1-25.4c39.6-.2 61.5-14.6 61.5-14.6 21-10.6 34.3-9.8 34.3-9.8s13.3-.8 34.3 9.8c0 0 21.9 14.4 61.5 14.6l-.1 25.4c-.2 106.8-95.7 161.3-95.7 161.3zm84.2-158.6l.1-16.4c-30.1.1-54.1-14.8-54.1-14.8-18.5-9.3-30.3-8.6-30.3-8.6s-11.7-.7-30.2 8.6c0 0-24 14.9-54.1 14.8l.1 16.4c-.3 91.4 84.2 145.9 84.2 145.9s84.7-54.5 84.3-145.9z"/><path class="st0" d="M-96.9 319.7l13.5 41.4h43.5l-35.2 25.6 13.5 41.4-35.3-25.6-35.2 25.6 13.5-41.4-35.3-25.6h43.6z"/></svg>