<svg xmlns="http://www.w3.org/2000/svg" viewBox="-417 618.2 186.9 175.7"><path fill="#FFF" d="M-323.6 789.5c-24.6-21.2-67.7-13.3-80.9-33.2-20-30.5 1.6-52.1 1.6-76.5 0-6-1.6-21.4-10.2-29.1l13.9-27.9c27 15.8 51.8 18.4 75.6-.2 23.7 18.6 48.5 16 75.5.2l13.9 27.9c-8.6 7.7-10.2 23-10.2 29.1 0 24.4 21.6 46 1.6 76.5-13.2 20-56.2 12.1-80.8 33.2z"/><path d="M-241.1 679.8c0-6.9 1.9-20.2 9.1-26.6l1.9-1.7-16.6-33.3-3 1.8c-28.1 16.5-50.9 16.5-71.8 0l-2-1.6-2 1.6c-21 16.4-43.8 16.4-71.9 0l-3-1.8-16.6 33.3 1.9 1.7c7.2 6.4 9.1 19.8 9.1 26.6 0 7.7-2.3 15.2-4.8 23.2-4.9 15.8-10.4 33.6 3.7 55.1 7.5 11.3 22.8 14.5 39.1 17.8 15.2 3.1 31 6.3 42.4 16.2l2.1 1.8 2.1-1.8c11.4-9.8 27.2-13.1 42.4-16.2 16.2-3.3 31.6-6.5 39.1-17.8 14.1-21.5 8.6-39.4 3.7-55.1-2.6-8-4.9-15.5-4.9-23.2zm-163.6 25.1c2.5-8.1 5.1-16.4 5.1-25.1 0-2.1-.3-19.5-9.5-29.7 1.6-3.2 9.1-18.3 11.4-22.7 28.1 15.5 52.4 15.3 74.2-.7 18.1 13.3 37.9 15.7 60.2 7.2l-146.3 97.3v-1.5c-.1-8.5 2.4-16.6 4.9-24.8zm104.5 69.2c-5.1 1.5-10.1 3.4-14.8 5.8v-77.3l14.8-10v81.5zm-30.6 6.5c-4.7-2.6-9.7-4.5-14.9-6.1V723l14.9-10v67.6zm-60.9-18.1c-2.5-1.2-4.8-2.6-6.7-4.3l6.7-4.6v8.9zm14.9 4.8V744l15.3-10.2v36.8c-1.8-.4-3.6-.7-5.4-1.1-3.4-.8-6.7-1.5-9.9-2.2zm96.4 2.1c-1.5.3-3 .6-4.4.9v-88l15.8-10.7v95.3c-3.6.9-7.4 1.7-11.4 2.5zm34.9-14.9c-2.1 3.1-5 5.5-8.6 7.4v-100l13.6-8.7c-6.9 10.3-7.1 24.7-7.1 26.6 0 8.7 2.6 17 5.1 25.1 2.6 8.3 5 16.3 5 24.8 0 7.7-2.1 15.8-8 24.8z"/><path fill="none" stroke="#000" stroke-width="2.62" stroke-miterlimit="2.61" d="M-370.2 648.3c11.4 0 20.7 9.3 20.7 20.7 0 11.4-9.3 20.7-20.7 20.7-11.4 0-20.7-9.3-20.7-20.7s9.3-20.7 20.7-20.7m-10.2 2.4c1.4 2.6 1.9 5.8 1.2 10-3.7 1.9-2.1 5.1-2.6 8.1-2.1 3.3-3 5.8-1.4 8.6-.5 1.9-1.2 4.2-.9 6.5m-5.4-22.1c2.3 1.4 5.1 2.3 7.4 3.5m-.2 3.5c8.8 5.1 15.1 4.2 23.7 1.4m-1.4-18.6c-1.6 3.3-2.1 6.7-.5 10.7-6.3.5-12.8.2-19.3-.7m10.1-13.7c0 2.6 0 4.6.2 7.2m19.1 8.8c-3.7 1.4-7.2.9-10.2-1.4 3.3 1.2 2.6 4.4 1.9 7.7 1.9 5.1.7 7.4-1.2 9.8.7 1.6 1.6 4 1.9 5.8m-2.4-6.3c-7.9 2.1-16 1.2-22.8-2.1m11.8 3.5c0 2.8.5 5.8 1.2 8.8"/><path fill="#FFF" d="M-394 734.4c-.7-.6-2-1.7-4.1-.3-1.2.8-2.5 2.8-.2 6.2 1.4 2.2 3.6 3.5 5.7 2.1 1.4-.9 1.8-2.4 1.2-4l2.5-1.7c1.2 3 .7 5.9-2.3 7.9-3.2 2.1-7 1.5-9.7-2.7-2.8-4.2-1.8-8 1.3-10.1 3.6-2.4 6.7-.9 8 .8l-2.4 1.8zm12.3 3.5l-2.5 1.7-1.6-2.5 2.5-1.7m2.7-11.7l4.7 3.8-3.1 2-1.6-5.8zm2.4 8.3l4.5-3 2.4 2 2.7-1.8-12.3-9.2-2.9 1.9 3.7 14.9 2.7-1.8-.8-3zm13.7-5.5l-2.5 1.7-1.7-2.5 2.6-1.7m7.2-8.9l3.2-2.1c.9-.6 2.1-.8 2.8.3.8 1.2.5 2.2-.8 3l-3.1 2.1-2.1-3.3zm1.1 7l5.1-3.4c2.5-1.6 2.8-2.5 3.1-3.6.2-1 0-2.2-.6-3.2-.8-1.2-2-2.1-3.8-1.7.3-.6 1-1.7-.2-3.5-.8-1.2-2.8-2.6-5.8-.6l-5.9 3.9 8.1 12.1zm-4.2-11.6l2.9-1.9c1.1-.8 2.1-.9 2.7.1.6 1 .1 1.9-.9 2.5l-3 2-1.7-2.7zm14.5-5l-2.1-3.2 3.1-2.1c1.5-1 2.4-.2 2.8.4.8 1.2.5 2.1-.9 2.9l-2.9 2zm2 8.4l2.5-1.6-3.1-4.7 2.6-1.7c1.9-1.2 2.4-.7 3.5 1 .8 1.2 1.3 1.8 1.9 2.3l2.8-1.9-.2-.3c-.7.2-1-.3-2.1-2-1.5-2.3-2.3-2.3-3.6-2 .9-1.2.8-2.8 0-4.1-.7-1-2.9-3-6.1-.9l-6.1 4.1 7.9 11.8zm10.8-20.7l4.7 3.8-3.1 2-1.6-5.8zm2.4 8.3l4.5-3 2.4 2 2.7-1.8-12.3-9.2-2.9 1.9 3.7 14.9 2.7-1.8-.8-3zm11.9-13.7l5-3.4 4.3 6.5-1.7 1.1-1.3-1.3c-.1 1.2-.3 2.9-2.5 4.3-2.9 1.9-6.9 1.6-9.7-2.6-2.2-3.3-2.4-7.6 1.7-10.3 3.7-2.5 6.8-1 8 .6l-2.5 1.7c-.3-.5-2.2-1.4-4-.2-1.8 1.2-2.6 3.5-.6 6.6 2.2 3.3 4.6 3 6.3 1.8.6-.4 2.3-1.8 1.2-4.6l-2.8 1.9-1.4-2.1zm10.5-11l4.7 3.8-3.1 2-1.6-5.8zm2.3 8.3l4.5-3 2.4 2 2.7-1.8-12.3-9.2-2.9 1.9 3.7 14.9 2.7-1.8-.8-3zm10.7-20.9l2.4-1.6 8 12.1-2.5 1.6-10.7-5.3 5.7 8.6-2.3 1.6-8-12.1 2.6-1.7 10.4 5.2m12.5-3.1l-2.5 1.7-6.6-9.9-3.6 2.4-1.5-2.1 9.9-6.6 1.4 2.2-3.7 2.4m14.3 4.9l-2.6 1.6-8-12 2.5-1.7m9.9-6.6l2.4-1.5 8 12-2.5 1.7-10.7-5.3 5.7 8.6-2.3 1.6-8.1-12.1 2.7-1.8 10.4 5.3v-.1m5.4-6.9c-2.2-3.4-.9-5.5.5-6.4 1.4-.9 3.8-1.3 6.1 2 2.2 3.4.9 5.5-.5 6.4-1.4.9-3.9 1.3-6.1-2zm-2.6 1.6c3.8 5.7 8.4 3.6 10 2.5 1.6-1.1 5.3-4.5 1.6-10.2-3.8-5.7-8.4-3.6-10-2.5-1.6 1.1-5.3 4.6-1.6 10.2z"/></svg>