<svg xmlns="http://www.w3.org/2000/svg" width="325.14" height="361.26" viewBox="139.073 242.73 325.138 361.262"><path fill="#1C1A19" d="M160.7 494.26v-61.2c.27-3.68.7-7 1.4-9.2 7.1.1 3.25 1.23 5.27-3.5 4.47-10.8 3.6-6.32-5.87-5.18l.17-2.1c3.95 1.57 8.85.6 12.88-1.85 7.7-4.82 14.1-26.4 18.58-35.85l.6-.62.36-1.5c3.7-8.67-.4-18.57 0-28.92l.2-1.23-.3-.8v-2.5c-.27-25.17-1.5-39.98-15.25-51.2-2-1.67-4.4-2.46-6.57-2.55l1.75-2.36c1.3.85 2.9 1.4 4.54 1.47 6.04.46 11.12-4.45 11.47-10.94.1-1.74-.17-3.4-.8-4.9l1.33-1.05c1.9 1.3 4.47 2.2 7.37 2.27h176.7c3.08.1 6.14-.62 8.77-2.72 7.64-.26 14.3 1.58 20.08 5.17l14.8 16.1c12.7 22.2 13.96 56.65 1.34 79.1 8.4-8.08 21.02-5.53 21.54 9.55 3.88 94.7-28.36 214.1-141.9 215.4-77.97 4.9-128.6-35.94-138.5-98.8z"/><path fill="#D10123" d="M388.5 267.8v288.7c-10 10.17-21.56 18.67-34.97 24.9V270.44h21.12c3.06.1 6.13-.62 8.85-2.72 1.66 0 3.4 0 5 .1zm-175.05 2.72V568.6c0 2.54.35 4.9.96 7.1 10.2 5.88 21.5 10.43 34 13.4V270.55h-34.9zm104.95 0v321.14c-6.13.87-12.52 1.4-19.18 1.5-5.44.34-10.7.42-15.77.34V270.52h34.95zm-140 270.98V427.1l-10.94-7.1-.18.35c-1.93 4.73 1.93 3.6-5.17 3.5-1.5 4.92-2.1 15.7-1.5 22.9-5 37.07 1.5 69.7 17.9 94.76zm-14.2-126.76l.1-.96c-.87-.18-1.84-.36-2.7-.7l-.2 2.1c1.06-.18 2.03-.26 2.8-.44zm11.05-128.26l.18-2.1c-.53-.18-.97-.44-1.5-.7l-1.66 2.27c.97.1 2.02.18 2.98.53zM423.53 499.6V365.3c7.9-4.04 17.1-.45 17.6 12.44 1.68 39.8-3.14 83.9-17.6 121.86z"/><path fill="#FFF" d="M303.86 334.6c51.16 0 92.7 40.6 92.7 90.75s-41.54 90.82-92.7 90.82c-51.25 0-92.78-40.67-92.78-90.82 0-50.15 41.53-90.74 92.78-90.74z"/><path fill="#1C1A19" d="M303.77 332.33c26.98 0 51.34 10.52 68.77 27.62 17.17 16.74 27.7 39.9 27.7 65.4h.08-.1c0 25.5-10.5 48.57-27.68 65.3-17.43 17.1-41.8 27.7-68.77 27.7-26.98 0-51.33-10.6-68.77-27.7-17.08-16.73-27.68-39.8-27.68-65.3s10.6-48.66 27.68-65.4c17.44-17.1 41.8-27.62 68.77-27.62zm0 4.38v.1-.1c-24.18 0-46.34 9.9-62.37 25.6-16.47 16.1-26.72 38.4-26.72 63.1h.08-.08c0 24.67 10.25 46.9 26.72 63.07 16.03 15.78 38.2 25.5 62.37 25.5 24.27 0 46.35-9.72 62.47-25.5 16.38-16.13 26.63-38.4 26.63-63.03s-10.25-47-26.63-63.03c-16.12-15.8-38.2-25.6-62.47-25.6z"/><path fill="#1C1A19" d="M259 495.05c-7.8-5-14.62-11.3-20.4-18.6-.62-.87-.8-1.92-.7-2.97.26-1.05.87-1.93 1.83-2.46 11.74-6.66 25.67-10.78 38.8-12.88L259 495.04zm40.04 13.05c-11.65-.7-22.7-3.76-32.6-8.85l20.5-38.92c1.24-2.28 3.43-3.68 5.97-3.86 2.1-.17 4.2-.26 6.2-.26v51.9zm42.14-8.85c-9.9 5.1-20.94 8.16-32.6 8.86v-51.9c2.03 0 4.13.1 6.15.3 2.54.2 4.72 1.6 5.86 3.9l20.5 38.9zm27.77-22.8c-5.7 7.3-12.6 13.6-20.4 18.6l-19.46-36.9c13.3 2.2 26.9 6.13 38.8 12.9.9.5 1.5 1.4 1.7 2.43.23 1.05 0 2.1-.7 2.98zm-90.4-83.8c-13.4-2.2-26.9-6.23-38.8-12.98-.98-.52-1.6-1.3-1.86-2.45-.1-1.06 0-2.02.7-2.9 5.7-7.27 12.6-13.58 20.4-18.58l19.5 36.9zm20.5 1.93c-2-.1-4.13-.18-6.14-.35-2.5-.18-4.7-1.58-5.9-3.86l-20.5-38.93c9.9-5.08 20.98-8.15 32.6-8.76v51.9zm49.5-38.84c7.8 5 14.7 11.3 20.4 18.58.7.8.9 1.84.7 2.9-.26 1.14-.87 1.93-1.75 2.45-12 6.75-25.4 10.8-38.8 12.98l19.44-36.9zm-39.95-13.06c11.64.6 22.68 3.68 32.58 8.76l-20.6 38.93c-1.12 2.28-3.3 3.68-5.85 3.86-2.02.17-4.12.26-6.14.35v-51.9z"/><path fill="#1C1A19" d="M230.44 463.66c-6.04-11.48-9.37-24.46-9.37-38.3 0-13.86 3.33-26.84 9.38-38.32.43-.97 1.13-1.5 2.2-1.85.95-.2 1.9-.1 2.8.3 20.3 11.7 45.2 16.3 68.32 16.3 23.22 0 48-4.68 68.42-16.3.8-.48 1.8-.57 2.8-.4.9.35 1.6.87 2.2 1.84 5.9 11.5 9.3 24.46 9.3 38.3 0 13.86-3.4 26.84-9.4 38.32-.54.87-1.24 1.5-2.2 1.74-.97.36-1.93.2-2.8-.25-20.4-11.75-45.2-16.3-68.43-16.3-23.2 0-48 4.55-68.33 16.3-.88.44-1.84.6-2.8.26-1.06-.23-1.76-.84-2.2-1.72z"/><path fill="#D10123" d="M231.76 460.15c-5-10.52-7.8-22.35-7.8-34.8 0-12.45 2.8-24.3 7.8-34.8.44-.97 1.14-1.6 2.1-1.85 1.05-.26 2.02-.17 2.9.26 20.06 11.05 44.33 15.43 67 15.43 22.97 0 46.8-4.3 67.04-15.5.87-.46 1.84-.5 2.9-.3.95.26 1.65.88 2.1 1.84 5.07 10.52 7.87 22.36 7.87 34.8 0 12.46-2.8 24.3-7.88 34.8-.5 1-1.2 1.6-2.1 1.94-1.1.27-2.1.2-2.9-.35-20.1-11.06-44.4-15.44-67.1-15.44-22.97 0-46.8 4.3-67 15.42-.9.5-1.88.6-2.9.33-1-.34-1.7-.95-2.1-1.92z"/><path fill="#1C1A19" d="M338.2 407.73v35.33h13.5c5.43 0 12.6-1.23 13.92-7.63.1-.44.18-.96.18-1.4.26-5.52-4.3-8.77-9.3-9.65 4.04-.96 7.8-3.6 7.8-8.24-.08-6.3-6.47-8.4-12.43-8.4H338.2zm7.8 19.54h5.78c3.07 0 6.3 1.4 6.3 5.18 0 4.64-4.37 5.43-7.87 5.43H346v-10.6zm0-14.46h3.86c3.4 0 6.47.9 6.65 4.4.4 4.8-4.8 4.9-8 4.9H346v-9.3zm-50.73-3.9V442h22.96v-4.82h-15.6V426.2h11.66v-4.83h-11.7v-7.72h15.1v-4.72h-22.5zm-21.37 33v-17.6h-14.8c0 1.77.34 4.75 2.53 5.2H266v8.32c-2.53.6-5.33 1.06-7.87.6-5.35-1.03-8.4-5.5-8.6-11.9-.25-6.3 1.5-13.86 9.3-14.3 4.2-.26 7.45 1.4 7.53 6.58h7.8c-.1-9.3-7.7-11.84-15.07-11.75-10 .18-16.9 7.37-17.4 16.92-.2 5.35.83 11.14 4.8 15 3.6 3.6 8.74 4.73 13.73 4.82 4.56.1 9.2-.45 13.6-1.94z"/><path fill="#FFF" d="M375.52 254.66c-50.1 7-124.3 12-167.85 0-3.16-12.72-21.38-11.84-22.6 2-.53 7.03 4.2 13.43 12.7 13.7h176.7l1.84-8.16 1.2-5.53s-1.9-1.58-1.9-2z"/><path fill="#1C1A19" d="M375.17 253l3.33-.45-.26 2.37c-.1.26 1.23.7 1.23.7l.8.62-.2.87-1.13 5.5v.1l-1.84 8.18-.35 1.57H197.68c-.35-.1-.7-.1-1.05-.1-4.73-.43-8.32-2.36-10.78-5.2-2.27-2.6-3.4-6.02-3.33-9.6v-.8c.44-4.9 2.9-8.4 6.05-10.43 2-1.32 4.38-2.1 6.83-2.3 2.46-.1 5 .27 7.27 1.24 3.24 1.5 6.05 4.2 7.27 8.24 30.93 8.24 77 7.98 118.8 4.64 8.32-.6 16.38-1.4 24.1-2.26 7.88-.9 15.32-1.86 22.24-2.8h.1zm-.96 3.85c-6.4.87-13.4 1.75-20.5 2.54-7.8.8-16.1 1.6-24.4 2.3-43 3.4-90.6 3.5-122.5-5.3l-1.4-.36-.2-1.05c-.8-3.5-2.9-5.8-5.25-6.85-1.23-.5-2.63-.8-3.94-.7-1.32.1-2.63.55-3.86 1.34-2.3 1.5-4.04 4.2-4.4 8.06v.62c-.1 2.9.77 5.6 2.6 7.6 1.6 1.92 3.95 3.24 6.93 3.5H372.4l1.5-6.58.86-4.73-.52-.5z"/><path fill="#FFF" d="M179.72 262.72c5.96.35 10.52 5.44 10.16 11.3-.35 5.9-5.5 10.36-11.47 10-5.9-.34-10.4-5.43-10.1-11.4.38-5.87 5.47-10.25 11.5-9.9z"/><path fill="#1C1A19" d="M179.98 260.97c1.14.1 2.2.26 3.25.52.96.3 1.84.7 2.7 1.2 4.22 2.3 6.85 6.6 6.58 11.5-.1 3.3-1.8 6.3-4.2 8.4-2.6 2.3-6.1 3.5-10 3.3v-.1h-.1c-1.02 0-2.1-.3-3.12-.55-.96-.26-1.93-.7-2.8-1.14-4.12-2.36-6.75-6.75-6.5-11.5v-.1c.2-3.3 1.77-6.3 4.2-8.3 2.56-2.3 6.15-3.5 10-3.33h.1zm-.43 3.6h-.1c-2-.1-4.02.7-5.5 2-1.76 1.5-2.9 3.7-3.08 6.23-.17 3.7 1.67 6.93 4.56 8.5.52.27 1.05.53 1.58.7.6.2 1.2.27 1.7.27 2.1.1 4.1-.6 5.6-1.93 1.8-1.57 2.9-3.77 3.1-6.3.2-3.6-1.63-6.85-4.52-8.5-.53-.28-1.06-.45-1.6-.63l-1.64-.3z"/><path fill="#FFF" d="M297.56 602c-91.64 2.45-151.48-68.38-155.77-139.83-1-17.7 3.5-35.6 10.8-43.3 10.6-11.32 28.7-2.73 24.1 13.14-1.97 6.4-7.67 10.2-15.2 11.2-.8 5.1-1.6 9.4-1.15 16.6 3.77 64.8 54.23 131.25 137.1 130.1 109.34-1.4 148.23-105.45 143-212.14-.7-15.1-13.07-17.63-21.56-9.56 20.4-34.3 2.27-99.34-38.8-100.4-2.64 2.1-5.8 2.9-8.78 2.7-8.5-.33-14.36-10.5-9.8-18.3 1.13-2.2 2.88-3.68 4.9-4.8 8.76-4.75 18.83-3.17 28.03 2.6 44 27.7 65.37 83.46 66.94 136.4 3.16 106-43.45 212.4-163.9 215.67z"/><path fill="#1C1A19" d="M297.64 603.93h-.08c-13.15.35-25.6-.8-37.4-3.15-11.75-2.37-22.8-6.06-33.04-10.8-52.57-24-84.8-75.73-87.96-127.63v-.1c-.1-2.45-.1-5-.1-7.44.1-2.5.28-5 .54-7.3 1.4-12.5 5.34-23.64 10.77-29.42 3.86-4.04 8.6-5.97 13.23-6.05 3.16 0 6.13.7 8.76 2.2 2.46 1.3 4.56 3.3 5.87 5.77 1.84 3.34 2.46 7.64.97 12.55-.27.97-.62 1.94-1.06 2.8-.52.9-1.05 1.68-1.66 2.47-2.8 3.6-7.18 5.95-12.53 7-.7 4.47-1.3 8.6-.96 15 .5 9 1.9 18.05 4.2 26.9 2.3 8.85 5.42 17.53 9.45 25.95 20.42 42.7 62.4 76.27 120.73 75.48 1.84 0 3.85-.1 5.86-.17 49-2.37 82.97-26.57 104.6-62.5 21.82-36.2 31.1-84.35 30.4-134.06-.08-4.47-.17-9.03-.43-13.6-.17-4.55-1.6-7.8-3.5-9.9-.8-.87-1.76-1.5-2.8-1.84-.9-.36-1.85-.53-2.9-.44-2.45.1-5.17 1.3-7.62 3.7l-12.8 12.2 8.35-13.96c5.27-8.88 7.9-19.84 8.16-31.23.36-12.36-2.1-25.1-6.9-36.2C413 289.2 406 279.9 397 274.6c-4.73-2.8-10.07-4.56-15.85-4.9-.1.07-.26.25-.43.34-.47.27-1 .5-1.5.8-2.56 1.2-5.37 1.66-8 1.57-2.45-.1-4.65-.8-6.5-1.9-2.35-1.3-4.3-3.23-5.5-5.6-1.32-2.2-1.94-4.8-1.85-7.35.1-2 .62-4.1 1.76-5.95.2-.36.37-.7.6-.97.2-.35.47-.7.64-.97 1.23-1.5 2.8-2.72 4.47-3.6 1.4-.8 2.8-1.4 4.2-1.92 1.5-.43 2.98-.87 4.47-1.04 7.6-1.08 15.5 1.03 22.8 5.6v.1-.1.1-.1c6.3 4.02 12.1 8.5 17.5 13.5 5.38 5 10.28 10.42 14.7 16.2 22.9 29.8 34.4 69.6 35.5 108l.1 1.07c1.4 52.95-9.53 106-36 146.3-26.62 40.6-68.93 68.3-129.82 70.15h-.1l-.5.1zm-.26-3.68h.6c58.7-1.76 99.53-28.67 125.38-68.03 26.1-39.8 36.88-92.32 35.48-144.83v-1c-1.14-37.9-12.44-77.1-34.87-106.4-4.38-5.6-9.2-10.97-14.37-15.8-5.17-4.82-10.77-9.12-16.82-13l1.76-1.3-1.76 1.3c-6.04-3.75-12.35-5.6-18.13-4.7-1.14.1-2.2.34-3.33.8-1.05.34-2.2.8-3.24 1.4-1.23.7-2.28 1.5-3.16 2.62-.17.27-.35.44-.52.7-.1.2-.27.44-.44.7-.88 1.5-1.3 3.16-1.4 4.74-.1 2.1.52 4.2 1.5 5.96.95 1.76 2.35 3.25 3.93 4.13 1.1.6 2.2 1.04 3.5 1.04 1.6.1 3.2-.16 4.8-.95.3-.1.6-.3.9-.46.25-.28.6-.46.86-.7h.1l.8-.6h1.2c7.46.14 14.2 2.24 20.08 5.75 9.8 5.9 17.42 15.7 22.5 27.27 4.9 11.47 7.45 24.62 7.1 37.33-.17 9.2-1.9 18.25-5.34 26.14 1.2-.38 2.53-.56 3.76-.65 2.02-.08 3.95.18 5.8.88 1.8.7 3.35 1.75 4.66 3.07 2.45 2.68 4.12 6.5 4.38 11.88.18 4.55.36 9.1.36 13.6.7 50.2-8.66 98.8-30.83 135.52-22.34 37.16-57.73 62.23-108.98 64.8-2.05.06-4.06.15-6.16.15-61 .8-104.7-33.94-125.75-78.04-4.12-8.5-7.36-17.32-9.64-26.44-2.4-9.02-3.87-18.14-4.4-27.34v-.1c-.43-7.1.27-11.4 1.14-16.4v-.3l.28-1.4 1.86-.27c4.64-.52 8.5-2.36 10.86-5.43.54-.6.98-1.25 1.3-1.95.38-.7.65-1.5.9-2.27v-.1c1.24-4.1.8-7.7-.7-10.43-1.04-1.83-2.53-3.32-4.3-4.3-1.56-.86-3.5-1.4-5.33-1.3-3 .1-6.23 1.4-9.03 4.38-5 5.25-8.7 15.77-10 27.7-.26 2.36-.44 4.73-.53 7.1-.07 2.45 0 4.9.2 7.36 2.97 50.85 34.42 101.44 85.5 124.75 9.9 4.56 20.4 8.07 31.7 10.35 11.2 2.3 23.13 3.34 35.75 3z"/><path fill="#FFF" d="M181.12 286.04c13.58 10.7 20.5 34.9 20.68 61.72.52 23.5-13.67 53.92-29.8 63.38-5.86 3.5-14.36 3.6-18.2-2.36-7.28-11.4 6.73-23.76 15.5-15.08 9.8.53 20.76-27.53 10.95-38.57 14-9.65 8.67-46.64-3.25-52-7.18 3-14.28-1.48-14.36-8.58-.1-8.6 11.47-13.94 18.48-8.5z"/><path fill="#1C1A19" d="M183.05 284.8l.17.1c2.02 1.58 3.86 3.5 5.6 5.6 1.68 2.12 3.25 4.4 4.66 6.94 7.18 12.7 10.77 30.86 10.86 50.23v.1c.1 3.32-.18 6.83-.6 10.42-.45 3.5-1.24 7.1-2.2 10.7-4.9 18.5-15.86 36.5-27.86 43.6-.97.6-2.02 1-3.07 1.5-1.1.3-2.1.7-3.3.9-6.1 1.23-12.5-.17-15.9-5.52-2.7-4.47-2.6-9.03-1.02-12.63.87-1.84 2.1-3.5 3.6-4.73 1.65-1.4 3.6-2.37 5.7-2.9 3.57-.78 7.43-.25 10.76 2.46.7-.24 1.4-.8 2.28-1.5 2.2-1.9 4.2-5.14 5.88-8.9 1.58-3.93 2.7-8.3 2.9-12.53.26-5-.7-9.55-3.42-12.6L177 354.8l1.5-1.04c2.1-1.47 3.66-3.66 4.9-6.4 2.53-5.6 3.14-13.04 2.35-20.32-.8-7.2-2.9-14.03-5.97-18.5-.96-1.4-2-2.54-3.06-3.33-1.4.48-2.7.6-4.1.6-2.73.1-5.27-.7-7.37-2-1.93-1.2-3.42-2.94-4.4-5.1-.5-1.3-.8-2.7-.8-4.2-.06-2.6.9-5 2.4-6.9 1.3-1.63 3.15-3.03 5.08-4 2.1-1.1 4.48-1.6 6.93-1.6 3.05 0 6.12.8 8.66 2.8zm-3.77 2.56l-.1-.1c-1.47-1.13-3.14-1.66-4.8-1.66-1.32 0-2.63.35-3.94.97-1.32.7-2.55 1.58-3.42 2.8-1.14 1.4-1.84 3.16-1.84 5.17 0 1.14.26 2.2.6 3.16.63 1.5 1.68 2.63 2.9 3.42 1.14.8 2.46 1.14 3.86 1.14.96 0 2-.26 3.06-.7l1.4-.62 1.4.62c2.28 1.05 4.3 2.98 6.05 5.43 3.33 4.8 5.6 12.1 6.4 19.9.87 7.6.17 15.5-2.54 21.5-1.2 2.7-2.8 5.1-4.9 6.9 2.6 3.6 3.5 8.4 3.2 13.4-.13 4.56-1.4 9.3-3.02 13.4-1.84 4.22-4.2 7.9-6.84 10.27-2.27 2.02-4.9 3.16-7.62 3h-1.2l-.7-.7c-1.9-1.94-4.03-2.47-5.87-2-1.24.25-2.38.9-3.34 1.65-1.05.96-2 2.2-2.62 3.5-1.4 2.9-1.4 6.58.8 10.1 2.18 3.32 6.12 4.2 9.8 3.5.8-.18 1.5-.44 2.2-.7.78-.27 1.56-.62 2.18-1.06h.1c11.1-6.56 21.36-23.75 26.1-41.54.96-3.52 1.66-6.94 2.1-10.36.43-3.4.7-6.8.6-10v-.03c-.08-19.03-3.58-36.65-10.5-49-1.32-2.38-2.8-4.48-4.38-6.4-1.5-1.93-3.16-3.6-5-5z"/></svg>