<svg id="Layer_1" xmlns="http://www.w3.org/2000/svg" viewBox="-51 89.8 508.6 614.2"><style>.st0{fill:#FFFFFF;}</style><path class="st0" d="M269.5 650.6c40.3-18.5 83.1-28.2 119.2-55.5 33.4-24.5 56-61.2 61-102.3 1.9-21.3-.5-43.2-3.6-64.1-6.9-44.6-24.9-88.8-24.9-134.4 1.6-35.9 11.1-61.9 26.1-95.4l-74.6-89.3c-23.3 5.4-44.9 10.5-68.9 10.5-28.5-.9-52.5-5.9-79.8-14.9l-20.7-7.8c-38 14.3-75 25.9-116.5 21.8-18.3-1-34.9-5.7-52.9-9.7L-41 198.9c10.5 23.8 19.4 44.6 23.7 70 6.6 41.5-3.8 80.9-14.3 120.6-9.3 48.4-21.4 96.6-1 144.1C-16 565.2 3 586.8 33.2 606c39.2 21.6 82.6 34.4 122.9 53.6 17.5 10 30.9 21.8 47.2 35.1 23.6-19.8 38.8-32.2 66.2-44.1z"/><path d="M335 188.3l-11.1-6.7-12.3 9-3.6 2.8 3.6 14.2 13.3 51.2 10-7.4 5.2-3.8-3.6-11.6 18.8-14.2 10.4 6.6 15.7-11.8-46.4-28.3zm0 32.5l-2.8 2.1-6.9-21.8 9.7 6.2 9.7 6.2-9.7 7.3zm-23.3-37.1l.5-.4 3.3-21.7-3.8 2.5-7.3 5.6 1.9 18.1zm-14 81.9l-3.3-4c-2.9-3.5-5.4-5.5-7.4-6.2-2.1-.7-4.7-.5-7.8.5 1.9-3.6 2.9-7.1 2.9-10 0-3.1-1.2-6-3.3-9-3.5-4.7-7.8-6.9-13-6.6-3.3.2-6.9 1.4-11.1 3.6-2.4 1.2-4.8 2.9-7.4 4.8l-18.7 14-8.5 6.2 8.5 11.4 26.1 34.7 2.9 4 14.3-10.9-14-18.7 9.8-7.3c2.4-1.9 4.7-2.9 6.6-2.9 1.9 0 3.8.9 5.5 2.6.7.9 2.2 2.6 4.7 5.7 2.4 2.9 4.7 5 6.7 6.2l15.2-11.4-1.4-1.7c-1.6.7-4-1-7.3-5zm-30.8-10.2c-.5 1.9-2.4 4-5.4 6.2l-6.7 5.2-4 2.9-8.6-11.4 11.2-8.5c.5-.3.9-.7 1.4-.9 2.1-1.6 4.1-2.2 5.7-2.4 2.1 0 3.8.9 5.2 2.6 1.6 2.1 1.9 4.2 1.2 6.3zm-76 40.8l-11.1-6.9-15.7 11.9 16.9 65.3 9.9-7.4 5.2-3.8-3.6-11.6 19-14.2 10.2 6.6 7.1-5.4 8.6-6.4-8.6-5.2-37.9-22.9zm0 32.5l-2.8 2.1-6.9-21.8 9.7 6.2 9.7 6.2-9.7 7.3zm-65 63.2l-7.9-10.7 26.1-19.5-7.4-10.1-26.1 19.6-6.8-8.8 28.7-21.5-7.6-10.2-41 30.6-2.2 1.6 2.2 2.9 35.3 47.2 43.9-33-7.6-10.2zm-43.2 20.9L69.3 423c1.4 2.9 1.7 5.9.9 8.8-1 2.9-3.1 5.5-6.4 7.9-4 3.1-8.1 4.1-12.4 3.1-4.1-1-8.1-4-11.9-9-3.6-4.8-5.4-9.7-5-14.2.2-4.7 2.4-8.5 6.4-11.6 3.1-2.2 5.9-3.5 8.6-3.6 2.8-.2 5.5.7 7.9 2.6L71 396.9c-4.8-5-10.5-7.6-17.3-7.6-6.7.2-13.5 2.8-20.4 8-8.8 6.4-13.8 14-15.4 22.8-.3 1.7-.5 3.5-.5 5.2v.2c0 6.7 2.4 13.3 7.3 19.9 5.7 7.8 13 12.1 21.8 13.1 8.6.9 17.1-1.7 25.4-7.9 5.7-4.3 9.7-9 12.1-14.3.3-1 .9-2.2 1.2-3.3 1.6-5.7 1.2-11.6-1.2-17.5-.4-1-.9-1.8-1.3-2.7zM266.5 644s.1 0 .1-.1l-.1.1z"/><path d="M203.2 105.1c3.9 1.5 18.3 6.9 18.3 6.9h.1c29.9 9.8 54.4 14.4 81.9 15.2h.2c23.3 0 44.2-4.7 66.3-9.7l68.9 82.5c-15 33.9-23.4 59.5-24.9 93.9v.4c0 29.2 7.2 57.9 14.1 85.6 4.1 16.4 8.3 33.4 10.9 49.9 2.2 14.5 4.2 31 4.2 47.3 0 5-.2 10-.6 14.9-4.7 38.1-25.8 73.5-58.1 97.3-23.6 17.8-49.8 27.8-77.5 38.3-13.3 5-27 10.3-40.4 16.4-26.9 11.7-43 24.3-63.4 41.3-.5-.4-1.4-1.2-1.4-1.2-13.6-11.2-26.4-21.8-42.1-30.8l-.2-.1-.2-.1c-17.2-8.2-35.1-15.3-52.5-22.2-23.6-9.3-47.8-18.9-70-31.1-28.3-18-46.6-38.1-63-69.3-7.7-18-10.5-36.1-10.5-54.4 0-24 4.8-48.5 9.8-73.7 0 0 2.1-10.9 2.2-11.3 8.2-30.9 16.6-62.6 16.6-95.5 0-9.2-.7-18.5-2.1-27.8-4.1-24.3-11.9-43.8-22.4-67.7 5.1-6.1 64.1-76.5 69.1-82.5 3.1.7 6.4 1.5 6.4 1.5 14.5 3.4 28.1 6.5 43.4 7.4H86c43.4 4.2 81.7-8.1 117.2-21.4zm-2.6-14.4C166 103.8 128.7 116.2 87.4 112H87c-14-.8-27.1-3.8-40.9-7.1L31 101.5l-2.8 3.4-77.7 92.8 1.8 4.1c11 24.9 19.1 44.3 23.2 68.3 1.3 8.5 1.9 17 1.9 25.4 0 31.3-8.2 62.2-16.1 92.2l-.1.2-2.3 11.8c-5 25.1-10 50.7-10 76.5 0 20.1 3.1 40.3 11.7 60.3l.1.3.1.2c17.5 33.4 38 55.9 68.4 75.1l.2.1.2.1c23.1 12.7 47.8 22.5 71.6 32 17 6.8 34.7 13.7 51.3 21.7 14.6 8.4 26.4 18.1 39.9 29.3l10.6 8.8 4.6-3.8c22.6-18.8 37.6-31.2 64.6-43l.1-.1c12.9-5.9 26.5-11.1 39.5-16 27.5-10.4 55.9-21.2 81-40.2 35.4-26 58.7-65.1 63.8-107.2v-.2c.5-5.4.7-10.9.7-16.3 0-17.3-2.1-34.4-4.4-49.5-2.7-17.2-7-34.5-11.2-51.2-6.7-26.8-13.6-54.6-13.6-82 1.5-33.5 9.7-57.5 25.5-92.6l1.8-4.1-80.4-96.2-7 1.6c-21.8 5-42.3 9.7-64.6 9.7-26-.8-49.2-5.1-77.6-14.5-.3-.1-23.1-8.7-23.1-8.7l-2.1.9z"/><path d="M413.6 381.9c-7.4-30.8-14.4-59.9-14.4-85 0-33.1 7-65.1 20.8-95l1.4-3.1-55-65.9-3.3.8c-50.7 12.7-103.9 8.1-158-13.6l-2-.8-2 .8c-54.2 21.7-107.4 26.3-158 13.6l-3.3-.8-55 65.9 1.5 3.1C-.1 231.7 7 263.7 7 296.9c0 25.2-7 54.3-14.5 85.1-12.3 50.9-25 103.5-6.4 143.5 26.2 55.8 76.3 74.6 124.8 92.8 31.1 11.7 63.3 23.7 88.6 45.6l3.6 3.1 3.6-3.1c25.3-21.8 57.5-33.9 88.6-45.6 48.5-18.2 98.7-37 124.8-92.8 18.5-40.1 5.8-92.7-6.5-143.6zM30.7 510.5l50.6-38v122.6c-18.4-7.8-35.7-16.8-50.6-29.1v-55.5zm99.7-74.9l49.2-37v238.2c-15.7-9.1-32.4-16.2-49.2-22.7V435.6zm99-74.4l48.4-36.3v288.4c-16.5 6.3-32.9 13.1-48.4 21.7V361.2zm97.7-73.3l49.8-37.4v314.1c-14.7 12.5-31.6 21.6-49.8 29.4V287.9zM130.4 149.6c16.3-2 32.7-5.5 49.2-10.6v116.3l-49.2 37.3v-143zm99-9.6c16.2 4.8 32.4 8.1 48.4 9.9V181l-48.4 36.6V140zm-185.7 4.9c12.4 2.9 25 4.9 37.7 5.8v179.1l-50.6 38.3V160.5c6.4-7.8 11.6-14.1 12.9-15.6zM-2.1 406l.3.4 337.7-255.7-.7-.9c9.1-1.1 18.2-2.7 27.2-4.8 3.7 4.4 42.6 51.1 46.4 55.6-2.6 5.8-4.9 11.7-7 17.7l-405 304.3c-.2-.5-.5-1-.8-1.5-6-12.9-8.3-27.7-8.3-43.4-.1-22.6 4.6-47 10.2-71.7z"/></svg>