<svg xmlns="http://www.w3.org/2000/svg" viewBox="-80 415.6 530.5 379.3"><path fill="#FFF22D" d="M211.1 544.4v141L346 537.6l-65.7-68.5"/><path d="M277.5 466.5l-70.3 76.4v152.3l144-157.6-70.9-74.1-2.8 3zm2.9 8.1c5 5.2 56 58.5 60.4 63-4.4 4.8-114.1 125-125.9 137.8V545.8c1.8-2 60.5-65.7 65.5-71.2z"/><path fill="#FFF22D" d="M240.3 714.7h136.6l68.3-75.3-65.7-68.5"/><path d="M376.8 568.2L231.3 718.6h147.4l71.8-79.2-70.9-74-2.8 2.8zm2.7 8.2c4.8 5 56.1 58.6 60.5 63.1-4.4 4.8-62.6 69.1-64.7 71.4h-126c11.2-11.5 125.2-129.3 130.2-134.5z"/><path fill="#FFF22D" d="M159.5 544.4v141L24.4 537.6l65.5-68.5"/><path d="M87.2 466.4l-68 71.1 144.1 157.6V542.9L90 463.5l-2.8 2.9zm2.7 8.2c5 5.4 63.9 69.2 65.8 71.2v129.7c-11.8-12.9-121.6-133-126-137.9 4.3-4.5 55.3-57.8 60.2-63z"/><path fill="#FFF22D" d="M130.1 714.7H-6.7l-68.1-75.3 65.7-68.5"/><path d="M-11.9 568.2L-80 639.4l71.6 79.2h147.5L-9.1 565.4l-2.8 2.8zm2.8 8.2c5.1 5.2 119 123 130.2 134.5H-5c-2.1-2.3-60.2-66.6-64.6-71.4 4.4-4.5 55.7-58.1 60.5-63.1zm254.7 167.4H242l-18.4 49.7h6.9l5.3-15h19.6l5.3 15h7.3l-18.5-49.7h-3.9zm0 29h-7.8l7.8-21.7.1-.1 7.6 21.9h-7.7v-.1zM382.8 785c-2.6 2.6-5.9 3.9-9.9 3.9-4.8 0-8.6-1.9-11.5-5.6-2.9-3.6-4.3-8.5-4.3-14.7 0-6.3 1.3-11.4 4.2-15 2.7-3.3 6.6-5.2 11.7-5.2 3.9 0 6.9 1 9.2 2.7 2.4 1.6 3.9 4.2 4.6 7.5h6.6c-.6-5-2.7-8.9-6.3-11.8-3.6-2.9-8.2-4.3-13.8-4.3-7.1 0-12.7 2.3-16.8 6.8-4.2 4.5-6.3 10.7-6.3 18.6 0 8.4 2 15 6 19.9 4 4.8 9.5 7.1 16.4 7.1 6.2 0 11.1-1.7 15-5.3s5.9-8.5 6.2-14.5H387c-.1 4-1.4 7.3-4.2 9.9zm17.5.9v7.6h6.9v-7.6m-108.3-15.4h26.6v-5.8h-26.6V750h28.8v-6.2h-35.6v49.7h36.2v-6.2h-29.4m37.1 6.2h7v-7.6h-7m-181.3-58.3H148l-6.9 11.8h4M40.7 790.2c-.4-.9-.6-2.2-.7-3.9l-.6-8.2c-.3-3-.7-5.3-1.6-6.5-.7-1.3-2.2-2.3-4.2-2.9 2.3-1 4-2.4 5.2-4.5 1.2-1.9 1.7-4.2 1.7-6.9s-.6-5.2-1.6-7.1c-1.2-2-2.7-3.6-4.9-4.8-1.2-.7-2.4-1.2-3.9-1.4-1.4-.1-3.7-.3-6.9-.3H4v49.7h6.6v-21.3h11.5c4.5 0 7.3.4 8.5 1.4s1.9 3.2 2 6.5l.4 6.5v.3c.3 3.3.7 5.6 1.3 6.6h7.9V792c-.6-.2-1.2-.9-1.5-1.8zm-9.6-25.9c-1.7 1.4-4.8 2.2-8.9 2.2H10.6v-16.8h11.5c4.3 0 7.3.7 9.1 1.9 1.6 1 2.4 3.2 2.4 6 0 3.1-.8 5.4-2.5 6.7zM48 793.5h6.8v-49.7H48m150.1 37.9c-.3.7-.4 1.3-.6 1.9-.3.7-.4 1.4-.6 2.3-.1-.4-.3-1-.4-1.6-.1-.6-.4-1.4-.7-2.6l-12.4-37.9h-9.6v49.7h6.2v-42.3c.1.7.3 1.4.4 2.2.3.7.4 1.4.7 2l12.5 38.2h6.3l12.8-38.2c.3-.7.4-1.4.7-2.2.1-.7.3-1.4.4-2v42.3h6.6v-49.7h-9.6l-12.7 37.9zM94.3 785c-2.6 2.6-5.9 3.9-10.1 3.9-4.8 0-8.6-1.9-11.5-5.6-2.9-3.6-4.3-8.5-4.3-14.7 0-6.3 1.4-11.4 4.2-15 2.7-3.3 6.8-5.2 11.8-5.2 3.7 0 6.8 1 9.2 2.7 2.3 1.6 3.9 4.2 4.5 7.5h6.6c-.6-5-2.6-8.9-6.2-11.8-3.6-2.9-8.2-4.3-13.8-4.3-7.2 0-12.8 2.3-17 6.8s-6.2 10.7-6.2 18.6c0 8.4 2 15 5.9 19.9 4 4.8 9.5 7.1 16.6 7.1 6 0 11.1-1.7 14.8-5.3 3.9-3.6 6-8.5 6.3-14.5h-6.6c-.2 4-1.6 7.3-4.2 9.9zm64.3-10.4c0 4.6-1.2 8.1-3.2 10.2-2.2 2.3-5.3 3.5-9.6 3.5s-7.5-1.2-9.6-3.3c-2-2.3-3-5.8-3-10.4v-30.8h-6.8v30.7c0 6.8 1.6 12 4.6 15.3 3.2 3.5 7.8 5 14.1 5 6.6 0 11.7-1.6 15.1-5 3.5-3.5 5.2-8.5 5.2-15.3v-30.7h-6.8v30.8zm-47.5 18.9h6.8v-49.7h-6.8M-12.7 785c-2.6 2.6-5.9 3.9-10.1 3.9-4.8 0-8.6-1.9-11.5-5.6-2.9-3.6-4.3-8.5-4.3-14.7 0-6.3 1.4-11.4 4.2-15 2.7-3.3 6.8-5.2 11.8-5.2 3.7 0 6.8 1 9.2 2.7 2.3 1.6 3.9 4.2 4.5 7.5h6.6c-.6-5-2.6-8.9-6.2-11.8-3.6-2.9-8.2-4.3-13.8-4.3-7.2 0-12.8 2.3-17 6.8s-6.2 10.7-6.2 18.6c0 8.4 2 15 5.9 19.9 4 4.8 9.5 7.1 16.6 7.1 6 0 11.1-1.7 14.8-5.3 3.9-3.6 5.9-8.5 6.2-14.5h-6.5c-.2 4-1.6 7.3-4.2 9.9zm175.9-312.8L153 506.9l31.8-20.5 31.4 20.5-11.3-34.7 28.2-21.8h-34.9l-13.4-34.8-13.5 34.8h-35.4"/></svg>