<svg id="Layer_1" xmlns="http://www.w3.org/2000/svg" viewBox="-40 207.8 530.4 379.2"><style>.st0{fill:#FFF22D;}</style><path class="st0" d="M251.1 336.6v141L386 329.8l-65.7-68.5z"/><path d="M317.5 258.7l-70.3 76.4v152.3l144-157.6-70.9-74.1-2.8 3zm2.9 8.1c5 5.2 56 58.5 60.4 63-4.4 4.8-114.1 125-125.9 137.8V338c1.8-2 60.5-65.7 65.5-71.2z"/><path class="st0" d="M280.3 506.9h136.6l68.3-75.3-65.7-68.5z"/><path d="M416.8 360.4L271.3 510.8h147.4l71.8-79.2-70.9-74-2.8 2.8zm2.7 8.2c4.8 5 56.1 58.6 60.5 63.1-4.4 4.8-62.6 69.1-64.7 71.4h-126c11.2-11.5 125.2-129.3 130.2-134.5z"/><path class="st0" d="M199.5 336.6v141L64.4 329.8l65.5-68.5z"/><path d="M127.2 258.6l-68 71.1 144.1 157.6V335.1L130 255.7l-2.8 2.9zm2.7 8.2c5 5.4 63.9 69.2 65.8 71.2v129.7c-11.8-12.9-121.6-133-126-137.9 4.3-4.5 55.3-57.8 60.2-63z"/><path class="st0" d="M170.1 506.9H33.3l-68.1-75.3 65.7-68.5z"/><path d="M28.1 360.4L-40 431.6l71.6 79.2h147.5L30.9 357.6l-2.8 2.8zm2.8 8.2c5.1 5.2 119 123 130.2 134.5H35c-2.1-2.3-60.2-66.6-64.6-71.4 4.4-4.5 55.7-58.1 60.5-63.1zM285.6 536H282l-18.4 49.7h6.9l5.3-15h19.6l5.3 15h7.3L289.5 536h-3.9zm0 29h-7.8l7.8-21.7.1-.1 7.6 21.9h-7.7v-.1zm137.2 12.2c-2.6 2.6-5.9 3.9-9.9 3.9-4.8 0-8.6-1.9-11.5-5.6-2.9-3.6-4.3-8.5-4.3-14.7 0-6.3 1.3-11.4 4.2-15 2.7-3.3 6.6-5.2 11.7-5.2 3.9 0 6.9 1 9.2 2.7 2.4 1.6 3.9 4.2 4.6 7.5h6.6c-.6-5-2.7-8.9-6.3-11.8-3.6-2.9-8.2-4.3-13.8-4.3-7.1 0-12.7 2.3-16.8 6.8-4.2 4.5-6.3 10.7-6.3 18.6 0 8.4 2 15 6 19.9 4 4.8 9.5 7.1 16.4 7.1 6.2 0 11.1-1.7 15-5.3 3.9-3.6 5.9-8.5 6.2-14.5H427c-.1 4-1.4 7.3-4.2 9.9zm17.5.9v7.6h6.9v-7.6zm-101.4-15.4h26.6v-5.8h-26.6v-14.7h28.8V536h-35.6v49.7h36.2v-6.2h-29.4zm37.1 23h7v-7.6h-7zm-181.3-65.9H188l-6.9 11.8h4zm-114 62.6c-.4-.9-.6-2.2-.7-3.9l-.6-8.2c-.3-3-.7-5.3-1.6-6.5-.7-1.3-2.2-2.3-4.2-2.9 2.3-1 4-2.4 5.2-4.5 1.2-1.9 1.7-4.2 1.7-6.9s-.6-5.2-1.6-7.1c-1.2-2-2.7-3.6-4.9-4.8-1.2-.7-2.4-1.2-3.9-1.4-1.4-.1-3.7-.3-6.9-.3H44v49.7h6.6v-21.3h11.5c4.5 0 7.3.4 8.5 1.4 1.2 1 1.9 3.2 2 6.5l.4 6.5v.3c.3 3.3.7 5.6 1.3 6.6h7.9v-1.4c-.6-.2-1.2-.9-1.5-1.8zm-9.6-25.9c-1.7 1.4-4.8 2.2-8.9 2.2H50.6v-16.8h11.5c4.3 0 7.3.7 9.1 1.9 1.6 1 2.4 3.2 2.4 6 0 3.1-.8 5.4-2.5 6.7zM88 585.7h6.8V536H88zm150.1-11.8c-.3.7-.4 1.3-.6 1.9-.3.7-.4 1.4-.6 2.3-.1-.4-.3-1-.4-1.6-.1-.6-.4-1.4-.7-2.6L223.4 536h-9.6v49.7h6.2v-42.3c.1.7.3 1.4.4 2.2.3.7.4 1.4.7 2l12.5 38.2h6.3l12.8-38.2c.3-.7.4-1.4.7-2.2.1-.7.3-1.4.4-2v42.3h6.6V536h-9.6l-12.7 37.9zm-103.8 3.3c-2.6 2.6-5.9 3.9-10.1 3.9-4.8 0-8.6-1.9-11.5-5.6-2.9-3.6-4.3-8.5-4.3-14.7 0-6.3 1.4-11.4 4.2-15 2.7-3.3 6.8-5.2 11.8-5.2 3.7 0 6.8 1 9.2 2.7 2.3 1.6 3.9 4.2 4.5 7.5h6.6c-.6-5-2.6-8.9-6.2-11.8-3.6-2.9-8.2-4.3-13.8-4.3-7.2 0-12.8 2.3-17 6.8-4.2 4.5-6.2 10.7-6.2 18.6 0 8.4 2 15 5.9 19.9 4 4.8 9.5 7.1 16.6 7.1 6 0 11.1-1.7 14.8-5.3 3.9-3.6 6-8.5 6.3-14.5h-6.6c-.2 4-1.6 7.3-4.2 9.9zm64.3-10.4c0 4.6-1.2 8.1-3.2 10.2-2.2 2.3-5.3 3.5-9.6 3.5s-7.5-1.2-9.6-3.3c-2-2.3-3-5.8-3-10.4V536h-6.8v30.7c0 6.8 1.6 12 4.6 15.3 3.2 3.5 7.8 5 14.1 5 6.6 0 11.7-1.6 15.1-5 3.5-3.5 5.2-8.5 5.2-15.3V536h-6.8v30.8zm-47.5 18.9h6.8V536h-6.8zm-123.8-8.5c-2.6 2.6-5.9 3.9-10.1 3.9-4.8 0-8.6-1.9-11.5-5.6-2.9-3.6-4.3-8.5-4.3-14.7 0-6.3 1.4-11.4 4.2-15 2.7-3.3 6.8-5.2 11.8-5.2 3.7 0 6.8 1 9.2 2.7 2.3 1.6 3.9 4.2 4.5 7.5h6.6c-.6-5-2.6-8.9-6.2-11.8-3.6-2.9-8.2-4.3-13.8-4.3-7.2 0-12.8 2.3-17 6.8-4.2 4.5-6.2 10.7-6.2 18.6 0 8.4 2 15 5.9 19.9 4 4.8 9.5 7.1 16.6 7.1 6 0 11.1-1.7 14.8-5.3 3.9-3.6 5.9-8.5 6.2-14.5h-6.5c-.2 4-1.6 7.3-4.2 9.9zm175.9-312.8L193 299.1l31.8-20.5 31.4 20.5-11.3-34.7 28.2-21.8h-34.9l-13.4-34.8-13.5 34.8h-35.4z"/></svg>