<svg xmlns="http://www.w3.org/2000/svg" width="565" height="351.5" viewBox="0 0 565 351.5"><path fill-rule="evenodd" clip-rule="evenodd" fill="#1F150A" d="M276.5 85.2v190.1L96.4 95.1l95-95.1"/><path fill="#F4CF16" d="M267.9 254.2L108.7 95.1l82.7-82.8 76.5 76.5v165.4z"/><path fill-rule="evenodd" clip-rule="evenodd" fill="#1F150A" d="M88.3 105.6l4.4 4.5 174.9 174.8H91l-91-91"/><path fill="#F4CF16" d="M246.7 276.2h-152l-82.4-82.4 76-75.9 158.4 158.3z"/><path fill-rule="evenodd" clip-rule="evenodd" fill="#1F150A" d="M288.4 85.2v190.1L468.6 95.1 373.5 0"/><path fill="#F4CF16" d="M297.1 254.2V88.8l76.4-76.5 82.8 82.8-159.2 159.1z"/><path fill-rule="evenodd" clip-rule="evenodd" fill="#1F150A" d="M297.2 284.9H474l91-91-83.9-83.8-4.4-4.5-4.5 4.5"/><path fill="#F4CF16" d="M470.3 276.2h-152l158.4-158.3 76 75.9-82.4 82.4z"/><path fill-rule="evenodd" clip-rule="evenodd" fill="#1F150A" d="M78 312.7h6.2c2.6 0 4.4.4 5.4 1.3.9.8 1.4 1.9 1.4 3.5 0 1.1-.4 1.9-.9 2.7-.6.8-1.4 1.3-2.4 1.5-1.8.4-3.2.6-3.8.6h-6v-9.6zm0 38v-19.3h1.2c1.3 0 2.5.4 3.5 1.1.7.6 1.6 1.8 2.5 3.7l7.6 14.6H109l-6.9-13.8c-.4-.7-1-1.7-2-3s-1.8-2.1-2.3-2.5c-.8-.6-2-1.2-3.7-1.8 2.1-.5 3.8-1.1 5-1.9 1.9-1.1 3.4-2.7 4.5-4.7 1.1-1.9 1.7-4.1 1.7-6.8 0-3-.7-5.5-2.1-7.6-1.5-2.1-3.3-3.6-5.7-4.3-2.3-.8-5.7-1.2-10.1-1.2H63.6v47.6H78zm38.4 0h14.3v-47.6h-14.3v47.6zm54.4-12.5c-1.4 1.6-3.5 2.4-6.2 2.4-2.8 0-5-1.1-6.6-3-1.5-1.9-2.3-5.5-2.3-10.8 0-4.3.6-7.4 1.9-9.4 1.8-2.7 4.2-4 7.5-4 1.4 0 2.7.4 3.9.9 1.1.6 2.1 1.5 2.9 2.6.5.7 1 1.8 1.4 3.2l12.6-2.9c-1.7-5-4.1-8.7-7.5-11.2-3.3-2.4-7.9-3.6-13.7-3.6-7.5 0-13.2 2.1-17.3 6.3-4 4.2-6.1 10.3-6.1 18.2 0 5.9 1.1 10.7 3.4 14.5 2.4 3.8 5.1 6.4 8.3 7.9 3.2 1.6 7.3 2.3 12.3 2.3 4.1 0 7.6-.6 10.3-1.8 2.6-1.2 4.9-3.1 6.8-5.4 1.8-2.5 3.1-5.4 4-9l-12.6-4c-.6 2.9-1.6 5.2-3 6.8m25.2 12.5h14.3v-47.6H196v47.6zm56.8-18.5c0 2.6-.7 4.7-2.1 6.1-1.4 1.5-3.3 2.2-5.8 2.2s-4.4-.8-5.8-2.2c-1.4-1.5-2.1-3.5-2.1-6.1v-29.1h-14.2v28.4c0 2.4.4 5 1.3 8 .5 1.9 1.6 3.8 3.1 5.5 1.5 1.8 3.1 3.2 4.9 4.1 1.8 1 4 1.6 6.7 1.9 2.6.3 5.1.4 7.3.4 4 0 7.3-.5 10-1.6 2-.8 4-2.1 5.7-4 1.8-1.8 3.2-4 4-6.5.9-2.5 1.2-5.2 1.2-8v-28.4h-14.1v29.3zm25.6 18.5h11.7v-36.3l9 36.3h10.5l9-36.3v36.3h11.7v-47.6h-18.8l-7.2 29-7.2-29h-18.8v47.6zm78.6-18.2l5-17.1 5.2 17.1H357zm15.3 18.2h15L370 303.1h-15.6L337 350.7h14.6l2.2-7.9h16.3l2.2 7.9zm45.4 0h39v-10.8H432v-9.4h22.2v-9.7H432v-7.6h24V303h-38.3v47.7zm48.3 0h13.2v-13.3H466v13.3zm51.9-12.5c-1.4 1.6-3.4 2.4-6.1 2.4-2.8 0-5-1.1-6.6-3-1.6-1.9-2.4-5.5-2.4-10.8 0-4.3.7-7.4 2-9.4 1.7-2.7 4.2-4 7.4-4 1.5 0 2.7.4 4 .9 1.1.6 2.1 1.5 2.9 2.6.4.7 1 1.8 1.4 3.2l12.6-2.9c-1.6-5-4-8.7-7.4-11.2-3.3-2.4-7.9-3.6-13.8-3.6-7.4 0-13.2 2.1-17.2 6.3-4 4.2-6.1 10.3-6.1 18.2 0 5.9 1.2 10.7 3.5 14.5 2.3 3.8 5.1 6.4 8.3 7.9 3.2 1.6 7.3 2.3 12.3 2.3 4.1 0 7.6-.6 10.2-1.8 2.7-1.2 4.9-3.1 6.8-5.4 1.8-2.5 3.2-5.4 4-9l-12.5-4c-.9 2.9-1.9 5.2-3.3 6.8m24.9 12.5H556v-13.3h-13.2v13.3zm-302.9-50.2h5.1l10.9-9.8h-11.2l-4.8 9.8zM38.7 338.2c-1.3 1.6-3.4 2.4-6.1 2.4-2.8 0-5-1.1-6.6-3-1.5-1.9-2.3-5.5-2.3-10.8 0-4.3.6-7.4 1.9-9.4 1.8-2.7 4.2-4 7.5-4 1.4 0 2.7.4 3.9.9 1.1.6 2.1 1.5 2.9 2.6.5.7 1 1.8 1.4 3.2l12.6-2.9c-1.7-5-4.1-8.7-7.5-11.2-3.3-2.4-7.9-3.6-13.7-3.6-7.5 0-13.2 2.1-17.3 6.3-4 4.2-6.1 10.3-6.1 18.2 0 5.9 1.1 10.7 3.4 14.5 2.4 3.8 5.1 6.4 8.3 7.9 3.2 1.6 7.3 2.3 12.3 2.3 4.1 0 7.6-.6 10.3-1.8 2.6-1.2 4.9-3.1 6.7-5.4 1.8-2.5 3.2-5.4 4-9l-12.6-4c-.5 2.9-1.6 5.2-3 6.8"/></svg>