<svg xmlns="http://www.w3.org/2000/svg" width="493.41" height="564.81" viewBox="153.297 156.071 493.408 564.806"><path fill="#0093D8" d="M384.55 710.6C307 658.9 162.68 562.74 153.9 268.5l-.6-20.25 19.08-6.82c.43-.15.8-.3 1.17-.46l.62-.26.62-.2c33.7-12.5 63.1-34.3 85.2-63l16.4-21.34 21.9 15.68c4.4 3.2 45.1 31.16 101.3 31.16h.6c56.22 0 96.9-27.96 101.36-31.15l21.9-15.7 16.5 21.34c22.03 28.7 51.5 50.5 85.22 63.02l.64.24.63.3c.4.18.8.3 1.2.48l19.07 6.83-.6 20.24c-8.8 294.2-153.17 390.3-230.7 442L400 720.9l-15.45-10.3z"/><path fill="#FFF" d="M615.5 266.6c-39-14.52-72.72-39.78-97.62-72.2-7.78 5.58-53.82 36.47-117.87 36.36-64 .1-110.1-30.78-117.8-36.35-24.9 32.5-58.62 57.7-97.6 72.2-.84.4-1.74.8-2.75 1.1 8.34 279.8 143 369.6 218.25 419.7 75.2-50.1 209.9-139.9 218.23-419.7-1-.3-1.9-.7-2.75-1.1z"/><path fill="#0093D8" d="M276.5 437.8v-43.58h30.84v8.16h-21.56v9.15h21.1v8.17h-21.1v9.93h21.56v8.17H276.5zm174.92 128.8c0-12.95 9.75-21.68 22.38-21.68 9.18 0 14.52 4.97 17.48 10.24l-7.67 3.77c-1.7-3.4-5.5-6.1-9.8-6.1-7.6 0-13.2 5.85-13.2 13.77 0 7.9 5.6 13.76 13.2 13.76 4.3 0 8.1-2.7 9.8-6.1l7.7 3.72c-2.9 5.2-8.3 10.3-17.5 10.3-12.6 0-22.3-8.8-22.3-21.68zM228.46 357.97l-18.42-45.56 9.77-3.9 15 37.08 19.3-7.8 3.48 8.55L228.5 358zm25.44-36.8c-3.8-14.33 3.98-27.35 18.38-31.15 14.33-3.77 27.5 3.74 31.28 18.06 3.78 14.32-4 27.35-18.32 31.12-14.4 3.8-27.58-3.7-31.35-18.03zm39.25-10.35c-2.34-8.9-9.74-14.13-18.5-11.82-8.83 2.33-12.7 10.52-10.36 19.42 2.3 8.84 9.7 14.13 18.5 11.8 8.75-2.3 12.6-10.56 10.3-19.4zm57.75 15.26l-27.55-28.6 4.34 31.77-10.4 1.42-6.7-48.7 10.64-1.45 26.74 27.5-4.18-30.6 10.35-1.4 6.65 48.7-10 1.36zm20.2-2.18l-1.6-49.12 19.36-.65c15.4-.5 26.4 8.94 26.9 23.68.48 14.9-9.9 25-25.2 25.5l-19.46.7zm33.96-25.74c-.28-8.62-5.8-15.15-15.82-14.82l-9 .3 1.02 30.7 8.92-.28c9.72-.32 15.17-7.5 14.88-15.9zm47.12 26.38l-8.5-18.06-7.65-.5-1.14 17.44-10.5-.68 3.2-49.04 22.9 1.5c10.2.65 16.1 7.76 15.5 16.87-.56 8.6-6.4 12.95-11.76 13.86l9.9 19.4-12.06-.8zm3.2-33.24c.25-4.04-2.75-6.75-6.86-7l-11.03-.73-.9 13.23 11 .72c4.1.27 7.4-2.02 7.7-6.22zm17.07 35.42l6.73-48.7 10.37 1.44-6.73 48.7-10.37-1.44zm53.78 10.05l-15.76-36.44-7.1 31.26-10.2-2.4 10.87-47.95 10.5 2.4 15.37 35.13 6.9-30.1L547 291l-10.9 48-9.85-2.24zm50.9 17.1l.07-8.9-19.7-7.48-5.85 6.6-11.08-4.25 35.18-39.2 12.25 4.7.23 52.7-11.1-4.24zm1.03-41l-14.7 17.02 14.33 5.4.3-22.5z"/><path fill="#231F20" d="M482.62 370.77c-.48-.4-1.05-.72-1.66-.9-2.02-.66-4.2 0-5.55 1.62L314.3 569.2c-.72.9-1.13 2-1.14 3.14-.1 5.45.45 15.13 5.05 18.9.2.13.3.23.5.33 2.2 1.57 5.27 1.16 6.97-.96l158.53-198c.76-.92 1.17-2.2 1.1-3.4l-.77-14.7c-.1-1.46-.8-2.8-1.9-3.7"/><path fill="#059E4F" d="M319.8 589.34c-4-3.32-4.15-13.77-4.1-16.9 0-.57.2-1.13.57-1.58L477.4 373.1c.66-.82 1.76-1.14 2.77-.8.3.08.6.24.82.45.5.44.8 1.1.9 1.84l.7 14.6c.04.6-.17 1.23-.56 1.7L323.54 589c-.86 1.06-2.4 1.28-3.5.5-.1-.1-.2-.15-.3-.22"/><path fill="#059E4F" d="M518.43 391.18c-4.64 13.7-15.43 23-28.42 28.8-9.7 4.36-23.8 7.5-32.9.34-.3-.27-.1-1.1-.4-.96-.92.4-2.75-.2-1.4-.63.55-.17.37-.15.5-.87 2.26-11.64 15.34-20.28 25.24-24.9 19.6-9.1 37.9-3 37.5-1.78"/><path d="M485.13 393.83zm-4.43-1.43c-5.76 2.7-16.3 8.45-22.38 16.86-2.2 3.03-3.6 6.18-4.23 9.34-.4 1.65 2.7 6.77 15.9 6.77 9 0 16.83-3.4 20-4.8 15.2-6.8 25.54-17.3 30-30.38-1-.9-7.3-3.1-15.98-3.1h-.54c-7.9.1-15.6 1.83-22.87 5.22zm8.64-.98c2.15-.66 4.82-1.48 6.94-1.9l.47-.07.2.16c.1.1 2.32 1.9 1.7 6.1l-.05.4-.1.8c0 .2-.02.4-.05.7l-.04.44c-.1 1.06-.2 2.35-.1 3.5l.1.57-.42.3c-1.72 1.1-3.22 2.04-4.6 2.8l-1.2.7-.14-1.4c-.24-2.1-.76-4.35-1.52-6.73-.44-1.4-1.06-3.34-2.1-4.7l-.76-1.03 1.78-.54zm-10.42 4.02c1.56-.77 3.04-1.43 4.37-1.95.5-.3 1.6-.3 1.7-.3h.1c.3 0 .5 0 .7.1 1.5.6 2.4 3.3 3 6.14l.1.54c.55 2.06 1.03 4.12 1.08 6.22v.54l-.46.3c-.6.3-1.2.6-1.8.85l-2.4 1.1-4.07 1.8-1.2.54-.07-1.33c0-.8.1-1.53.2-2.33l.1-.8c.14-1.3.16-2.7.05-4.4l-.02-.25c-.06-1.22-.14-2.85-.8-4-.2-.35-.42-.7-.65-1l-1-1.4 1-.46zm-12.6 8.16c2.7-2.27 5.88-4.48 9.2-6.36l.7-.4.6.82c.35.44.68.9.9 1.42.65 1.56.72 3.26.72 5.02 0 .76-.07 1.5-.15 2.3l-.1.53c-.2 1.56-.4 3.1-.1 4.5l.2.77-.78.28c-1.63.7-3.28 1.34-5 2.02l-.9.3-.3-.86c-.2-.55-.3-1.17-.38-1.7-.07-.42-.15-.86-.25-1.2-.44-1.53-1.63-3.02-2.3-3.78l-.24-.27c-.6-.7-1.2-1.4-1.93-2l-.8-.7.8-.7zm-10.3 15.3l.38-1.36c1.02-3.77 4.08-9 7.8-11.78 0 0 1.97 1.9 2.2 2.15l.28.4c.88 1 1.96 2.24 2.25 3.57l.2 1 .02.2c.1.56.2 1.14.37 1.7l.27.83-.9.3c-4.3 1.44-8.1 2.4-11.6 2.87l-1.37.2zm17 4.27c-1.17.1-2.16.15-3.05.17h-.3c-9.47-.32-11.5-2.67-11.5-2.67l2.98-.6c2.84-.58 5.74-1.36 8.87-2.4l.76-.26.34.8c.63 1.28 1.46 2.46 2.47 3.5l1.2 1.37-1.8.2zm11.15-2.56l-.22.1c-2.08.7-4.1 1.3-6.1 1.7l-.62.2-.34-.52-.3-.23c-1.4-1.06-2.6-2.5-3.5-4.07l-.5-.93.94-.4c1.73-.66 3.67-1.44 6.3-2.56l.43-.2.7.4c2.05 1.28 4.2 2.6 4.2 4.24 0 1.34-.68 2.07-1.1 2.28zm11.6-5.1c-1.62 1-3.1 1.7-4.6 2.4-.8.4-1.72.8-2.67 1.2l-1.1.44-.15-1.17c-.25-1.87-2.13-3.52-3.52-4.6l-1.18-.9 1.35-.66c2.4-1.1 4.5-2.1 6.4-3.06l.55-.3.48.45c.95.9 1.84 1.85 2.65 2.76.64.7 1.3 1.46 2 2.14l.85.83-1.05.6zm10.65-7.8c-2.22 2.1-4.64 4.1-7.22 5.8l-.55.4-.54-.45c-1.1-.97-2.1-2.1-3-3.1-.5-.62-1-1.15-1.5-1.67l-.8-.84 1-.57c.7-.4 1.9-1.1 3-1.8l.84-.5c1.53-.97 2-1.28 2.23-1.36l.2-.1.3.03.4.1 1.23.4c.8.35 1.55.7 2.36 1.16l.7.4 2.3 1.3-.88.83zm9.92-13.7c-1.78 3.87-4.18 7.5-7.14 10.8l-.48.5-.62-.3-.56-.3-.34-.2c-1.03-.62-2.28-1.37-3.55-2l-1.4-.65 4.67-3.3c2.45-1.73 4.84-3.4 7.24-5.03.27-.2.55-.37.78-.57l3.17-2.6-1.7 3.7zm-2.82-4.3l1.95.5-1.64 1.16c-3.27 2.38-7.57 5.36-11.35 7.95l-2.3 1.58.3-3.2c.1-1.05.2-2.17.17-3.24 0-.63-.04-2.53-.75-3.92l-.6-1.16 1.33-.13c4.7-.53 9.14-.35 12.9.53z" fill="#231F20"/><path fill="#059E4F" d="M445.92 345.96c-10.33 10.9-13.6 25.3-12.63 40.02.7 11.05 4.7 25.5 15.6 30.36.4.18.8.1 1.1-.06.1-.03.16-.08.25-.12.35.47.96.7 1.56.22 9.57-7.7 11.13-23.88 10.55-35.2-1.12-22.38-15.6-36.2-16.5-35.22"/><path d="M457.16 377.1zm.94 31.75c4.6-9.3 4.73-21.32 4.4-27.66-1.1-22-14.17-35-16.37-35.8-9.55 9.9-14 24-12.9 40.6.4 5.72 2.66 24.93 15.88 30.8.5.2 1.8 2.2 6.6-4.1.9-1.2 1.8-2.74 2.4-3.95zm2.56-20.8c-.1 3.78-.57 7.6-1.32 11.07l-.22 1.06-1.03-.42c-.9-.34-1.8-.57-2.6-.75h-.4c-1.2-.26-3.3-.5-4.4-.26-.4.08-.8.2-1.2.35l-.5.14c-.42.1-.85.24-1.25.3l-.95.17-.1-.95c-.22-1.7-.4-3.45-.6-5.4l-.07-.7.7-.24c1.5-.4 2.8-1.33 4-2.16l.18-.1c.78-.53 1.5-1 2.25-1.4 1.63-.85 3.12-1.57 4.75-1.7.5-.05.96 0 1.46.1l1.24.2-.02.8zm0-3.85l.02 1.4-1.5-.2c-.46-.06-.92-.13-1.36-.14-1.35 0-2.77.64-3.9 1.17l-.2.1c-1.6.7-2.84 1.38-3.9 2.1l-.62.43c-.76.53-1.36.94-2.04 1.27l-1.2.6-.07-1.7c-.1-.97-.2-1.94-.2-2.9l-.3-4.17c-.1-.64-.1-1.3-.1-1.95v-.5l.5-.23c1.82-.92 3.9-1.46 6-2l.5-.1c1-.25 3.1-.8 4.8-.8 1 .05 1.7.27 2.14.68.43.33 1 1.7 1.03 2.28.2 1.54.3 3.14.33 4.78zm-1.34-11.2l.37 1.93-1.3-.23c-.3-.04-.6-.07-1-.08h-.2c-1.3-.02-2.67.2-3.9.42-2.6.46-4.86 1.07-6.8 1.83l-1.3.52.06-1.4c.07-1.9.2-3.7.34-5.4l.05-.6.52-.2c1.04-.4 2.05-1.1 2.95-1.7l1.86-1.26.17-.1c1.3-.9 2.9-2 4.2-1.97h.03c.56 0 2.5.64 3.8 8.13zm-11.04-23.6l1.3 1.48c2.55 2.9 4.75 6.64 6.54 11.16l.5 1.22-1.33.03c-1.6 0-3.3.8-3.9 1.1-.9.4-1.8 1-2.66 1.6l-2.9 1.9.32-2.3c.5-4.43 1.14-10.08 1.76-14.3l.26-1.96zm-10 12.35c1.57-4.15 3.64-7.97 6.18-11.34l2.33-3.1-.7 3.9c-.1.3-.2.64-.2.98-.3 2.56-.6 5.26-1.1 8.76l-.15 1.1-.38 3-.2 1.58-1.25-.93c-1.25-.95-2.6-1.76-3.35-2.2l-.22-.15c-.3-.16-.53-.32-.7-.43l-.62-.4.27-.7zm-3 12.9c.32-3.1.9-6.16 1.74-9.07l.34-1.2 1.03.7.5.35.13.13c.36.2.77.48 1.16.76.75.5 1.44 1 2.07 1.5l.6.54.83.82.04.22c0 .3-.02.7-.12 1.98l-.1 1.4c-.1 1.38-.2 2.9-.22 3.77v1.17l-1.1-.33c-.53-.2-1.06-.3-1.6-.4l-.5-.2c-1.4-.37-2.86-.7-4.25-1.28l-.64-.27.1-.68zm.08 12.1c-.1-1-.2-1.97-.25-2.9-.1-1.62-.1-3.26 0-5.2l.06-1.2 1.15.37c.96.3 1.94.54 2.83.76l.3.08c1.07.27 2.27.58 3.38.98l.58.2.05.6c.02 2.15.1 4.4.26 7.13l.05 1.5-1.33-.6c-2.6-1.2-4.34-1.5-5.74-.97l-1.1.42-.12-1.17zm2.14 11.5l-.15-.5c-.55-1.96-1.2-4.76-1.56-7-.6-4 7.9.13 7.9.13l.2 1.02c.2 2.6.4 4.73.7 6.74l.1 1.06-1.1-.02c-1.83-.05-5.74-1.27-5.9-1.33l-.3-.1zm8.26 14.1c-2.8-2.35-5.1-5.72-6.83-9.98l-.7-1.72 1.8.5c1.43.4 2.86.58 4.23.54l.78-.1.14.74c.56 3.27 1.23 6.2 2.03 8.97l.9 2.93-2.3-1.98zm5.9 2.1l-1 .9-.46-1.28c-1.2-3.32-2.13-7.1-2.86-11.55l-.14-.86.85-.2c.6-.1 1.18-.3 1.75-.47l.37-.2.73-.2c1.07-.3 2.9 0 4.2.3l.4.1c.3.1 1.53.43 2.2.7l.4.15.1.5c-.04.3-.8 7.05-6.55 12z" fill="#231F20"/><path fill="#059E4F" d="M318.5 462.2c-12.6 15.7-15.38 35.23-12.5 54.8 2.2 14.65 9.08 33.52 24.26 38.8.56.2 1.06.06 1.44-.2.12-.05.24-.1.34-.18.53.58 1.36.8 2.1.12 11.96-11.3 12.28-33.08 10.28-48.13-3.97-29.7-24.8-46.6-25.92-45.2"/><path d="M334.63 486.83zm-21.5 34.77zm20.57 14.04zm11.42-28.26c-4.02-30.04-23.42-46.44-26.53-47.3l-.2-.04c-11.9 14.8-16.4 34.63-13 57.32 1.1 7.85 6.4 33.97 25.2 40.53h.46c.2 0 .4-.08.6-.2l.67-.37.63.43c.2.12.38.2.54.2.35 0 .6-.1.84-.36 3.22-3.05 5.82-7.03 7.72-11.83 5.25-13.3 4.1-29.8 2.96-38.46zm-2.4 24.96l-.2 1.46-1.4-.45c-1.2-.4-2.55-.6-3.63-.75l-.6-.08c-1.1-.17-2.2-.25-3.2-.25-1.2 0-2.1.13-2.9.38-.5.14-1 .36-1.6.6-.7.32-1.5.64-2.3.83l-1.25.3-.27-1.24c-.58-2.85-1.03-5.2-1.4-7.35l-.17-1 .96-.4c1.9-.7 3.55-2.1 5.15-3.4l.23-.2c1-.82 1.92-1.6 2.96-2.23 2.03-1.3 4.05-2.48 6.33-2.88.3-.07.62-.1.94-.1h.2c.3 0 .66.03 1 .05l1.1.05.5 1.15c.26 5.34.06 10.65-.6 15.4zm.15-20.63l.17 1.5-1.86-.1h-.28c-.8-.02-1.43-.1-1.74 0-1.87.1-3.77 1.16-5.28 2l-.32.2c-2.1 1.17-3.73 2.23-5.1 3.3l-.8.68c-.8.67-1.67 1.38-2.63 1.96l-1.58.94-.27-1.82c-.4-2.65-.8-5.3-1.16-7.83l-.27-1.8c-.12-.9-.23-1.8-.32-2.66l-.1-.8.7-.4c2.44-1.47 5.2-2.44 8.04-3.37l.6-.24c1.58-.54 4.7-1.6 7.03-1.64h.12c1.03 0 1.82.2 2.42.64.6.45 1.5 2.2 1.66 3 .36 1.86.68 4.06.97 6.53zM321 488c.16-4.33.47-13.3.87-19.9l.16-2.68 1.92 1.9c3.8 3.65 7.23 8.55 10.2 14.54l.8 1.6-1.8.17c-1.88.2-3.7 1.2-5.1 2.05-1.34.83-2.6 1.8-3.73 2.68l-1.03.8c-.1.06-.2.1-.2.16l-2.2 1.8.1-3.08zm-.14 6.1l.7-.33c1.4-.7 2.8-1.8 3.9-2.7l.45-.36.9-.63.68-.5c2.78-2.14 5.2-3.22 7.18-3.24h.07c.5 0 .86.07 1.08.1l.7.07.4.65c1.16 2.85 2.16 6.46 3.04 9.63l.66 2.35-1.76-.1c-.3-.03-.57-.03-.84-.03-2.1 0-4.35.6-6.16 1.1-3.44.9-6.45 2-8.97 3.24l-1.7.86-.1-1.9c-.1-2.3-.15-4.8-.12-7.4l.04-.75zm-11.2-10.6c1.67-5.87 4.1-11.35 7.2-16.3l2.9-4.57-.63 5.37c-.05.43-.08.88-.08 1.32-.1 4.14-.28 8.3-.48 12.16l-.32 7.84-1.8-1.14c-1.6-1-3.33-1.86-4.6-2.48l-.23-.13c-.62-.3-1.12-.55-1.4-.73l-.8-.47.23-.9zm-2.66 18c.07-4.2.52-8.45 1.35-12.64l.3-1.62 1.5.8.6.35 2.1 1.1c1.15.67 2.15 1.28 3.05 1.9l1.72 1.4.36.3.07.47c.04.26.05.95.07 3.24v.2c0 2.3.04 4.85.12 6.25l.08 1.57-1.55-.3c-.97-.2-1.93-.37-2.9-.5-2-.32-4.05-.64-6-1.25l-.9-.26.03-.93zm1.44 16.6c-.24-1.4-.47-2.7-.66-4-.32-2.2-.54-4.46-.68-7.1l-.08-1.62 1.6.36c1.16.26 2.3.46 3.6.66l.36.08c1.66.26 3.44.56 5.16 1.02l.8.22.1.83c.3 2.85.67 6 1.16 9.74l.28 2-1.9-.7c-2.18-.8-5.56-1.66-8-.68l-1.43.7-.3-1.58zm5.07 15.66h-.8l-.3-.8c-.9-2.4-1.7-5.1-2.5-8.34-.5-1.44.57-2.75 1.9-3.28.4-.15.8-.23 1.36-.25h.06c2.1 0 4.94 1.32 6.83 2.2l.6.3.14.6c.6 3.66 1.16 6.57 1.74 9.2l.3 1.4-1.4.1-1 .04h-.22c-2.13 0-4.27-.4-6.18-1.1-.1-.03-.3-.06-.45-.06zm12.1 18.35c-4.1-2.9-7.6-7.24-10.5-12.9l-1.1-2.25 2.5.5c1.3.23 2.63.35 3.9.35h.14l1.86-.1 1.05-.17.27 1.06c1.14 4.42 2.38 8.36 3.8 12.06l1.45 3.82-3.33-2.4zm16.2-14.2c-1.56 6.9-4.2 12.4-7.8 16.4l-1.25 1.38-.8-1.7c-1.97-4.4-3.7-9.5-5.2-15.53l-.27-1.14 1.14-.3c.74-.23 1.48-.53 2.3-.86l.87-.37c.23-.1.45-.18.67-.25.6-.2 1.3-.32 2.27-.33h.08c1.13 0 2.32.16 3.43.35l.5.06c2.3.36 3.84 1.74 3.9 1.8l.25.23-.1.3z" fill="#231F20"/><path fill="#059E4F" d="M424.53 548.37c-10.66 17.06-28.2 26.1-47.62 29.82-14.5 2.7-34.6 2.4-44.6-10.2-.3-.5-.4-1-.3-1.45 0-.13.1-.26.1-.38-.7-.33-1.2-1.03-.8-1.96 6.8-15 27.2-22.47 42.1-25.53 29.4-6.03 52.17 8.1 51.2 9.6"/><path d="M395.97 541.24zM370.2 573v-.02zm-20-14.8zm-12.44-4.62c-3.9 3.37-6.82 7.14-8.64 11.2-.15.32-.17.6-.06.9.06.16.17.3.35.43l.7.5-.1.8c-.04.23 0 .44.04.64.05.15.13.3.23.4 12.4 15.67 38.8 12 46.6 10.5 22.53-4.3 39.8-15.04 49.85-31.1 0-.06-.03-.1-.07-.2-1.86-2.62-23.74-15.54-53.4-9.45-8.58 1.75-24.54 6.1-35.38 15.47zm26.9-10.6l1.27-.4c.14.32.66 2.13.77 2.45l.06.2c.1.3.2.6.25.9.4 2.3 0 4.6-.6 6.94-.2 1.18-.7 2.32-1.1 3.54l-.1.3c-.7 2-1.4 4-1.43 6l-.04 1-1 .2c-2.15.38-4.5.7-7.4 1.1l-1.26.17-.1-1.27c-.1-.8-.05-1.6 0-2.4.05-.6.1-1.2.06-1.68-.05-.83-.24-1.8-.6-2.87-.37-1-.8-2-1.3-2.94l-.28-.5c-.5-.97-1.13-2.16-1.9-3.2l-.88-1.17 1.3-.66c4.28-2.15 9.23-4.1 14.35-5.6zm11.6-2.57c.76-.1 2.58-.5 3.2 0 .6.4 1.23 1.8 1.57 2.76l.04.1c.74 2.2.76 5.5.77 7.17v.66c.04 3 .03 5.9-.55 8.7l-.2.8-.8.16c-.88.2-1.7.36-2.65.56l-1.8.34c-2.5.5-5.13.98-7.78 1.48l-1.8.35.35-1.8c.23-1.1.6-2.16 1-3.13l.34-.98c.6-1.66 1.05-3.54 1.47-5.93l.06-.35c.3-1.7.66-3.85.14-5.65-.06-.3-.3-.9-.6-1.63l-.1-.28-.73-1.72 1.45-.3c2.43-.54 4.6-.96 6.5-1.24zm20.3 15.2l.96-2.6.1-.22.4-1.22c.43-1.33.94-2.86 1.28-4.4.35-1.6.68-3.64.24-5.5l-.43-1.73 1.8.24c6.7.84 12.4 2.47 17.1 4.85l2.4 1.2-2.4 1.03c-6.1 2.57-14.45 5.8-18.5 7.38l-2.86 1.1zm-3.56 1.3c-2.43.9-4.8 1.7-7.02 2.3l-1.8.6.23-1.85c.4-2.8.4-6 .2-9.53-.13-1.86-.3-4.2-1-6.2l-.3-.8s-.5-.96-.7-1.6c5.84-1.2 13.28-.3 13.28-.3l.28.6c.1.2.3.5.47 1v.06c.65 1.88.4 4.52-.7 7.85l-.25.77c-.1.33-.23.66-.36 1l-.2.54c-.5 1.3-1.1 3-1.26 4.6l-.1.73-.7.27zm13.64 7.4l-.7-.6c-.27-.2-.68-.6-1.16-1.1l-.18-.15c-1-1-2.4-2.35-3.86-3.52l-1.65-1.33 7.2-2.88c3.6-1.47 7.44-3 11.32-4.47.42-.15.83-.32 1.22-.5l4.35-1.73-2.9 3.6c-3.6 4.56-8 8.66-13 12.17l-.77.52zm-16.27 8.27l-.55-.75c-1.2-1.65-2.2-3.5-3.15-5.26-.45-.9-.92-1.73-1.43-2.57l-.8-1.36 1.52-.42c1.34-.4 3.76-1.2 5.93-1.94l.2-.07c2.1-.76 2.8-1 3-1.03l.5-.1.4.26c1 .6 1.6.97 1.82 1.15.87.64 1.8 1.4 2.8 2.25l1.75 1.6.53.46 1.25 1.12-1.47.8c-3.7 2.2-7.53 4-11.5 5.5l-.85.3zm-16.83 3.98l.17-1.56c.2-2.64-1.7-5.55-3.2-7.33l-1.3-1.57 2-.45c3.7-.75 6.8-1.43 9.6-2.1l.85-.2.48.7c1 1.48 1.87 3.06 2.67 4.54l.2.32c.6 1.15 1.16 2.17 1.82 3.18l.86 1.4-1.58.48c-2.53.74-4.73 1.28-6.93 1.7-1.3.24-2.6.47-4 .7l-1.56.2zm-15.1-.22c-1.3-1.57-2.35-3.46-3.06-5.47l-.07-.2-.3-.95-.3-1.36 1.4-.16c2.7-.3 5.66-.76 9.3-1.4l.63-.06.46.5c1.44 1.5 3.65 3.74 4.34 5.7v.06c.18.5.25.94.2 1.35-.03 1.45-.9 2.9-2.44 2.87-3.33.3-6.2.4-8.75.36H359l-.3-.8c-.06-.14-.14-.28-.2-.37zm-24.4-7.32l4.1.1c3.96.17 8.1 0 12.65-.35l1-.1.2 1.04c.14.6.32 1.2.5 1.8l.06.13c.4 1.2.96 2.4 1.6 3.57l1.27 2.13-2.48-.3c-6.3-.85-11.57-2.75-15.65-5.64l-3.36-2.38zm11.73-17.73l.3.18c.07.06 1.9 1.04 2.97 3.1l.24.47c.54 1 1.1 2.06 1.47 3.14l.03.07c.3.9.4 1.63.4 2.25l-.03.74-.05.93c-.05.9-.07 1.7-.04 2.45l.06 1.2-1.18.1c-6.2.55-11.57.62-16.4.2l-1.83-.2.9-1.63c2.6-4.73 6.9-9.02 12.9-12.77l.3-.2z" fill="#231F20"/><path fill="#059E4F" d="M362.42 413.98c-13.75 13.4-18.64 31.58-18.15 50.44.37 14.14 4.72 32.8 18.48 39.55.52.25 1 .2 1.4-.02.12-.03.23-.08.35-.12.43.6 1.2.92 1.97.35 12.63-9.34 15.45-29.92 15.28-44.4-.33-28.63-18.1-47-19.33-45.8"/><path d="M374.86 439.16zm-24.38 30.46zm17.85 15.65zm14.1-25.44c-.36-28.9-16.83-46.7-19.68-47.87l-.18-.05c-12.92 12.7-19.48 31-18.9 52.8.18 7.6 2.13 33 19.24 41.3.2.1.3.1.5.2.2 0 .4 0 .6-.1l.7-.24.56.5c.15.13.3.2.46.2.3.05.57-.02.83-.22 3.43-2.5 6.35-6 8.7-10.32 6.53-12 7.35-27.76 7.26-36.1zm-5.16 23.36l-.36 1.3-1.2-.6c-1.1-.5-2.32-.88-3.32-1.1l-.55-.2c-1-.3-2-.5-3-.6-1.07-.1-2-.1-2.8.03-.45.1-1 .23-1.55.4-.74.2-1.5.42-2.25.5l-1.2.16-.1-1.2c-.26-2.78-.4-5.04-.5-7.1l-.06-.98.96-.24c1.87-.45 3.6-1.5 5.28-2.6l.23-.1c1.03-.7 2-1.3 3.05-1.8 2.08-.98 4.13-1.88 6.34-2 .3 0 .6.02.9.05h.2l.93.16 1.03.2.32 1.14c-.4 5.07-1.2 10.08-2.35 14.5zm2.5-19.6v1.4l-1.74-.3c-.1 0-.18-.06-.26-.08-.76-.14-1.34-.24-1.65-.24-1.78-.1-3.7.66-5.23 1.3l-.4.12c-2.16.86-3.8 1.68-5.2 2.56l-.87.53c-.83.54-1.74 1.1-2.7 1.56l-1.6.7-.07-1.73-.2-7.57-.04-1.72v-3.3l.7-.3c2.5-1.13 5.2-1.73 8-2.3l.6-.12c1.57-.34 4.66-1 6.85-.75h.1c1 .1 1.72.4 2.24.9.5.5 1.17 2.3 1.23 3 .12 1.8.17 3.94.15 6.3zm-17.94-25.07c.65-4.08 1.97-12.55 3.1-18.74l.47-2.53 1.6 2c3.17 3.93 5.86 8.97 7.98 15l.57 1.6-1.72-.04c-1.8-.07-3.65.7-5.06 1.32-1.36.6-2.68 1.4-3.85 2.1l-1.06.6-.2.12-2.3 1.44.47-2.9zm-.85 5.75l.7-.23c1.43-.5 2.86-1.4 4.02-2.1l.47-.3c.3-.2.57-.36.86-.5l.66-.4c2.8-1.73 5.3-2.48 7.1-2.26h.04c.47.05.8.16 1 .23l.64.15.32.65c.74 2.83 1.27 6.37 1.73 9.47l.35 2.3-1.62-.3c-.26-.07-.53-.1-.8-.14-2-.24-4.2.1-5.95.32-3.35.45-6.33 1.14-8.85 2.03l-1.7.6.13-1.8c.15-2.2.4-4.57.7-7l.1-.74zM351.6 433c2.26-5.37 5.18-10.27 8.7-14.6l3.27-4-1.2 5.02c-.1.4-.2.82-.24 1.24-.57 3.9-1.22 7.8-1.86 11.45l-1.2 7.4-1.6-1.22c-1.38-1.13-2.92-2.14-4.05-2.88l-.2-.16c-.56-.33-1-.63-1.25-.83l-.7-.52.33-.83zm-4.6 16.8c.55-3.98 1.47-7.96 2.74-11.84l.5-1.55 1.3.98c.18.14.35.25.53.4l1.85 1.3c1.02.76 1.9 1.46 2.68 2.14.22.2.7.7 1.47 1.5l.3.3v.5c.03.23-.05.9-.3 3.06l-.02.2c-.24 2.17-.52 4.58-.6 5.9l-.1 1.52-1.45-.48c-.88-.3-1.77-.6-2.7-.8-1.84-.56-3.74-1.1-5.53-1.9l-.8-.37.12-.88zm-.55 15.86c-.07-1.35-.13-2.6-.17-3.86-.05-2.15 0-4.3.18-6.8l.1-1.57 1.47.52c1.08.4 2.15.7 3.34 1.06l.34.1c1.6.5 3.2 1 4.8 1.6l.8.3v.8c-.06 2.7-.1 5.8-.02 9.36l.03 1.98-1.74-.9c-1.96-1-5.06-2.2-7.5-1.52l-1.4.5-.13-1.5zm3 15.4l-.8-.1-.18-.8c-.56-2.37-1.03-5.06-1.44-8.2-.34-1.4.84-2.54 2.16-2.9.3-.1.8-.1 1.3-.06 2 .25 4.5 1.84 6.2 2.9l.53.34.05.6c.15 3.5.33 6.33.6 8.9l.12 1.36-1.37-.08c-.3-.02-.6-.06-.93-.1l-.2-.02c-2.03-.24-4-.85-5.73-1.74-.1-.05-.25-.1-.4-.12zm9.3 18.73c-3.53-3.2-6.36-7.8-8.43-13.5l-.8-2.25 2.26.73c1.23.37 2.46.63 3.64.8h.15c.6.06 1.2.1 1.78.1h1l.14 1.04c.5 4.33 1.2 8.2 2.2 11.9l.9 3.8-2.9-2.67zm16.94-11.6c-2.3 6.3-5.4 11.22-9.3 14.6L365 504l-.55-1.67c-1.38-4.4-2.4-9.42-3.15-15.33l-.13-1.1 1.1-.2c.74-.1 1.48-.3 2.3-.52l.85-.26c.22-.06.44-.12.65-.16.6-.16 1.3-.2 2.2-.1h.07c1.08.14 2.2.45 3.22.75l.46.2c2.15.6 3.43 2.1 3.48 2.15l.22.25-.1.3z" fill="#231F20"/><path fill="#059E4F" d="M467.5 500.93c-11.7 16.46-29.8 24.5-49.5 27.06-14.76 1.9-34.87.4-44.1-12.8-.36-.5-.37-1-.23-1.5l.08-.4c-.7-.38-1.15-1.1-.7-2 7.67-14.66 28.6-20.9 43.7-23.1 29.8-4.3 51.8 11.2 50.75 12.64"/><path d="M439.3 492.08zm-15.66 1.12zm-12.04 29.18zm-19.2-16.02h.02zM380.23 501c-4.12 3.14-7.26 6.75-9.33 10.72-.17.3-.2.57-.1.9.04.16.14.3.3.45l.6.48-.17.75c-.04.22-.04.43 0 .63.05.15.12.3.22.43 11.5 16.44 38.16 14.34 46.06 13.3 22.9-2.96 40.8-12.74 51.9-28.23l-.1-.17c-1.7-2.77-22.82-17.02-52.93-12.68-8.7 1.26-24.94 4.68-36.35 13.42zm27.6-9.03l1.3-.33c.1.34.52 2.2.6 2.5l.06.2.2.94c.2 2.3-.4 4.58-1.1 6.9-.4 1.18-.88 2.3-1.4 3.5l-.1.24c-.84 1.9-1.7 3.88-1.85 5.9l-.1 1.02-1 .12c-2.2.22-4.56.43-7.48.65l-1.3.1-.04-1.3c0-.7.1-1.6.2-2.4.1-.6.13-1.1.14-1.6 0-.82-.13-1.8-.43-2.9-.3-1.02-.63-2.04-1.1-3.02l-.22-.54c-.45-1-1-2.23-1.7-3.3l-.83-1.22 1.35-.6c4.4-1.9 9.5-3.54 14.7-4.75zm11.77-1.88c.76-.1 2.6-.4 3.2.1.58.4 1.13 1.8 1.42 2.8l.03.1c.62 2.2.44 5.52.34 7.2l-.1.64c-.17 3-.3 5.93-1.1 8.7l-.2.77-.8.1c-.86.17-1.74.3-2.66.45l-1.8.23-7.9 1.02-1.83.23.48-1.8c.3-1.1.75-2.12 1.2-3.07l.4-.97c.7-1.6 1.27-3.47 1.82-5.83l.1-.34c.4-1.7.9-3.83.47-5.66-.04-.3-.25-.9-.5-1.67l-.1-.26-.6-1.78 1.45-.23c2.47-.4 4.68-.7 6.6-.86zm19.43 16.3l1.14-2.6c.02-.08.04-.14.1-.24l.47-1.2c.52-1.33 1.12-2.83 1.55-4.34.4-1.58.9-3.6.5-5.5l-.36-1.76 1.77.35c6.6 1.23 12.28 3.2 16.86 5.86l2.34 1.34-2.53.9c-6.24 2.18-14.83 4.94-18.97 6.27l-2.94.95zm-3.63 1.1c-2.5.73-4.9 1.36-7.18 1.9l-1.84.4.36-1.85c.5-2.78.74-5.98.67-9.54 0-1.86 0-4.2-.6-6.24 0-.26-.1-.53-.2-.8 0 0-.5-1-.6-1.66 5.9-.87 13.3.48 13.3.48l.26.63c.1.2.27.57.4 1.05v.04c.5 1.9.15 4.53-1.16 7.8l-.3.75-.4 1-.23.5c-.55 1.33-1.25 3-1.52 4.54l-.12.75-.73.2zm13.22 8.2l-.66-.66c-.25-.23-.64-.65-1.1-1.16l-.17-.2c-1-1.04-2.3-2.47-3.7-3.73l-1.6-1.43 7.44-2.45c3.7-1.26 7.65-2.58 11.62-3.8.42-.14.85-.28 1.24-.45l4.48-1.48-3.1 3.43c-3.9 4.4-8.53 8.2-13.74 11.46l-.8.47zm-16.8 7.3l-.5-.8c-1.12-1.7-2-3.6-2.83-5.45-.5-.9-.9-1.8-1.3-2.67l-.7-1.4 1.5-.35c1.3-.32 3.8-1 6-1.6l.2-.06c2.2-.6 2.88-.8 3.13-.8l.5-.1.37.28c1 .63 1.57 1.1 1.8 1.24.85.7 1.7 1.5 2.67 2.43l1.67 1.7.5.5 1.18 1.2-1.52.8c-3.8 1.94-7.8 3.55-11.84 4.76l-.9.27zm-17.1 3l.27-1.6c.3-2.62-1.5-5.65-2.9-7.53l-1.2-1.66 2.02-.3c3.72-.5 6.9-1.02 9.7-1.5l.84-.16.43.73c.92 1.56 1.7 3.2 2.4 4.7l.17.37c.57 1.18 1.07 2.24 1.67 3.3l.77 1.43-1.6.4c-2.56.56-4.8 1-7.03 1.3-1.3.12-2.64.3-4.03.4l-1.6.15zm-15.1-1.16c-1.22-1.64-2.16-3.6-2.75-5.66l-.05-.2c-.1-.3-.18-.63-.26-.96l-.3-1.4 1.44-.1c2.7-.16 5.68-.43 9.36-.85l.64-.06.44.5c1.38 1.6 3.45 4 4.03 6v.05c.15.5.18.94.14 1.34-.1 1.43-1.1 2.83-2.6 2.72-3.3.1-6.2.02-8.8-.18l-.8-.1-.2-.8c-.05-.15-.1-.3-.18-.4zm-24.02-8.8l4.1.37c3.96.36 8.1.47 12.7.35l1.1-.03.14 1.05c.1.6.26 1.22.4 1.82l.05.13c.3 1.2.8 2.43 1.4 3.65l1.1 2.23-2.5-.45c-6.28-1.25-11.4-3.46-15.37-6.6l-3.2-2.58zm12.8-17.1l.3.2c.06.04 1.82 1.14 2.78 3.27l.2.48c.5 1.03 1 2.13 1.3 3.23l.02.07c.25.9.33 1.64.26 2.26 0 .25-.03.5-.05.7l-.1.97c-.1.88-.1 1.67-.2 2.45v1.2h-1.1c-6.25.2-11.63-.04-16.44-.76l-1.83-.3.98-1.6c2.87-4.6 7.47-8.64 13.68-12.04l.3-.17z" fill="#231F20"/><path fill="#059E4F" d="M412.48 368.93c-12.9 12.47-17.56 29.45-17.18 47.1.3 13.22 4.27 30.7 17.1 37.05.5.24.95.18 1.32 0 .1-.04.2-.1.32-.13.4.56 1.1.87 1.85.34 11.8-8.7 14.5-28 14.4-41.5-.2-26.8-16.77-44-17.9-42.9"/><path d="M424 392.53zm-22.9 28.37zm16.62 14.72zM431 411.9c-.2-27.05-15.55-43.74-18.2-44.85-.07-.04-.12-.05-.17-.05-12.14 11.77-18.34 28.82-17.9 49.28.14 7.08 1.86 30.8 17.83 38.7.13.06.26.1.4.13.2.1.38 0 .56 0l.63-.24.5.46c.15.13.3.2.44.2.3.06.5 0 .7-.2 3.2-2.34 5.94-5.6 8.16-9.62 6.15-11.2 7-25.92 6.94-33.7zm-4.93 21.8l-.34 1.28-1.2-.55c-1-.48-2.18-.8-3.12-1.07l-.4-.14c-.92-.27-1.86-.46-2.8-.58-1-.1-1.9-.1-2.62.02-.43.08-.92.2-1.46.36-.67.2-1.4.4-2.1.48l-1.12.14-.1-1.14c-.2-2.6-.33-4.7-.42-6.66l-.03-.9.9-.22c1.76-.4 3.38-1.42 4.95-2.4l.2-.12c.97-.62 1.9-1.2 2.87-1.65 1.95-.9 3.87-1.74 5.94-1.84.3 0 .57.1.85.1h.18c.3.1.6.1.9.2l1 .18.3 1.1c-.37 4.73-1.14 9.4-2.24 13.53zm2.44-18.24v1.32l-1.6-.3-.2-.06c-.7-.13-1.24-.23-1.53-.22-1.66-.12-3.46.6-4.9 1.18l-.3.12c-2 .82-3.55 1.57-4.9 2.4l-.8.48c-.75.5-1.6 1.04-2.52 1.45l-1.5.65-.02-1.63-.14-7.08-.08-1.62v-3.1l.7-.3c2.3-1 4.86-1.56 7.5-2.07l.55-.13c1.45-.3 4.34-.9 6.4-.66h.1c.9.1 1.6.4 2.07.8.5.42 1.1 2.1 1.14 2.8.1 1.7.14 3.7.1 5.9zm-16.6-23.5c.6-3.8 1.9-11.72 3-17.5l.45-2.36 1.5 1.88c2.94 3.68 5.43 8.4 7.4 14.04l.5 1.5-1.6-.05c-1.7-.04-3.4.64-4.74 1.23-1.26.58-2.5 1.3-3.6 1.95l-1 .57-.16.12-2.17 1.34.43-2.7zm-.8 5.38l.66-.2c1.33-.46 2.7-1.3 3.77-1.96l.43-.27.8-.4.6-.4c2.72-1.6 4.97-2.23 6.73-2.02h.06c.45.07.76.17.95.23l.6.13.3.6c.7 2.65 1.18 5.95 1.6 8.86l.3 2.15-1.5-.3c-.26-.05-.5-.1-.77-.12-1.88-.2-3.94.07-5.6.3-3.14.4-5.92 1.03-8.3 1.86l-1.6.55.16-1.7c.15-2.05.4-4.26.7-6.54l.1-.67zm-8.72-10.63c2.14-5 4.9-9.5 8.2-13.6l3.07-3.7-1.14 4.7c-.1.4-.16.8-.22 1.2-.54 3.66-1.17 7.3-1.8 10.7l-1.14 6.9-1.5-1.2c-1.3-1.04-2.73-2-3.8-2.7l-.2-.12c-.5-.32-.9-.6-1.14-.8l-.68-.5.3-.8zM398 402.4c.53-3.7 1.4-7.4 2.62-11l.46-1.43 1.2.88.5.37 1.73 1.25c.98.7 1.8 1.37 2.5 2l1.4 1.4.3.3v.45c0 .2-.07.82-.3 2.86l-.04.18c-.23 2.04-.5 4.3-.6 5.55l-.1 1.4-1.32-.43c-.83-.3-1.65-.54-2.5-.78-1.73-.5-3.5-1-5.17-1.77l-.76-.35.1-.8zm-.57 14.9l-.14-3.6c-.08-2 0-4.03.14-6.36l.1-1.46 1.4.5c1 .38 2 .68 3.1 1l.33.1c1.4.43 2.95.9 4.42 1.5l.7.28v.77c-.08 2.54-.1 5.4-.08 8.73v1.83l-1.6-.88c-1.84-.95-4.73-2.1-7-1.5l-1.34.45-.1-1.4zm2.73 14.42l-.74-.12-.17-.73c-.5-2.2-.96-4.72-1.3-7.67-.33-1.33.77-2.37 2-2.7.36-.08.76-.1 1.23-.06h.05c1.86.26 4.24 1.76 5.8 2.75l.5.3.07.56c.14 3.3.3 5.92.5 8.33l.13 1.27-1.3-.07c-.3 0-.6-.03-.87-.1l-.2-.02c-1.9-.25-3.73-.8-5.35-1.66-.1 0-.2-.1-.34-.1zm8.62 17.55c-3.3-3.02-5.93-7.26-7.84-12.6l-.72-2.1 2.1.7c1.16.35 2.3.6 3.4.75h.15c.54.05 1.1.1 1.66.1h.96l.1.98c.5 4.04 1.14 7.67 2 11.1l.9 3.55-2.7-2.5zm15.88-10.74c-2.16 5.9-5.1 10.5-8.75 13.63l-1.22 1.06-.5-1.58c-1.3-4.1-2.23-8.8-2.9-14.32l-.1-1.05 1.03-.17c.7-.1 1.4-.3 2.15-.5l.8-.2c.22-.07.43-.12.64-.16.52-.15 1.2-.18 2-.08h.1c1 .12 2.02.4 3 .7l.44.1c2 .57 3.2 1.97 3.25 2.03l.2.2-.1.3z" fill="#231F20"/><path fill="#059E4F" d="M505.53 445c-9.22 15.77-24.9 24.47-42.45 28.36-13.16 2.9-31.4 3.18-40.8-8-.35-.4-.4-.87-.3-1.28 0-.12.02-.24.04-.35-.66-.27-1.13-.9-.78-1.75 5.72-13.8 24.1-21.15 37.52-24.33 26.53-6.27 47.6 5.94 46.77 7.34"/><path d="M479.4 439.3v-.02zm-22.55 29.5zm-18.58-12.88zm-11.4-3.86c-3.47 3.17-6 6.67-7.56 10.4-.1.3-.1.54 0 .83l.3.3.6.4-.1.7c0 .2 0 .4.1.54.08.13.16.26.26.37 11.7 13.9 35.55 9.86 42.6 8.3 20.34-4.5 35.7-14.76 44.44-29.6 0-.05-.05-.1-.1-.15-1.74-2.34-21.96-13.5-48.75-7.16-7.75 1.83-22.1 6.22-31.7 15zM451 441.7l1.13-.4c.13.3.65 1.93.77 2.22l.06.17c.1.2.2.5.25.8.4 2 .1 4.1-.4 6.3-.2 1.1-.5 2.1-.9 3.2v.22c-.6 1.8-1.2 3.64-1.2 5.47v.92l-.9.2c-1.93.36-4.06.74-6.7 1.16l-1.12.2-.12-1.16c-.1-.7-.06-1.45-.03-2.16.03-.57.04-1.07 0-1.53-.03-.76-.25-1.63-.6-2.6-.35-.9-.77-1.78-1.26-2.63l-.24-.47c-.5-.85-1.1-1.92-1.84-2.83l-.8-1.04 1.16-.6c3.8-2.1 8.26-4 12.88-5.5zm10.46-2.63c.68-.12 2.32-.54 2.9-.16.55.4 1.17 1.6 1.5 2.5l.04.1c.73 2 .83 5 .9 6.5v.6c.12 2.7.2 5.4-.25 7.9l-.12.77-.7.17-2.37.6-1.6.35c-2.3.53-4.66 1.04-7.06 1.57l-1.62.36.28-1.65c.2-1 .5-2 .82-2.87l.3-.9c.5-1.5.86-3.2 1.18-5.4l.04-.3c.23-1.56.52-3.5 0-5.13-.07-.28-.3-.8-.6-1.47l-.1-.23-.7-1.55 1.3-.34c2.18-.57 4.15-1 5.86-1.3zm18.83 13.2l.8-2.43v-.2l.34-1.13c.37-1.2.8-2.6 1.06-4s.5-3.3.07-5l-.45-1.6 1.6.2c6.06.6 11.33 1.9 15.68 3.98l2.23 1.03-2.23 1c-5.48 2.48-13 5.65-16.6 7.18l-2.6 1.1zm-3.2 1.3c-2.2.86-4.3 1.63-6.3 2.28l-1.6.53.1-1.7c.23-2.54.2-5.45-.17-8.65-.2-1.7-.4-3.8-1.08-5.6l-.3-.7s-.53-.88-.7-1.44c5.27-1.3 12.05-.7 12.05-.7l.25.52c.1.17.27.46.44.9v.04c.6 1.7.48 4.1-.43 7.15l-.25.7-.28.9-.14.5c-.4 1.24-.9 2.78-1.02 4.2l-.05.7-.65.26zm12.6 6.3l-.7-.52c-.26-.18-.65-.53-1.1-.96l-.17-.2c-.95-.9-2.23-2.1-3.6-3.1l-1.53-1.2 6.54-2.8c3.25-1.45 6.7-2.96 10.2-4.38.4-.15.75-.3 1.1-.5l3.9-1.68-2.5 3.34c-3.2 4.25-7.05 8.1-11.5 11.4l-.68.5zm-14.6 7.94l-.5-.6c-1.18-1.43-2.1-3.1-3-4.7-.46-.8-.9-1.52-1.4-2.3l-.76-1.2 1.37-.43c1.2-.4 3.38-1.2 5.35-1.92l.2-.06c1.92-.73 2.5-.95 2.74-1l.43-.1.35.23c.92.53 1.5.86 1.7 1 .8.58 1.64 1.23 2.6 2l1.63 1.43.5.4 1.15 1-1.3.8c-3.3 2.05-6.76 3.8-10.3 5.23l-.8.32zm-15.2 4.1l.12-1.4c.02-2.4-1.8-5-3.17-6.53l-1.2-1.4 1.8-.42c3.32-.77 6.14-1.5 8.63-2.15l.74-.2.44.63c.94 1.3 1.8 2.73 2.53 4.04l.16.3c.6 1.02 1.13 1.94 1.76 2.84l.8 1.26-1.4.47c-2.27.7-4.25 1.26-6.24 1.7l-3.6.7-1.44.28zm-13.7.2c-1.24-1.4-2.25-3.1-2.94-4.9l-.07-.2-.3-.8-.38-1.2 1.27-.2c2.43-.36 5.1-.84 8.37-1.5l.6-.1.43.43c1.4 1.3 3.44 3.3 4.1 5.1l.04.03c.15.47.22.87.22 1.24 0 1.3-.8 2.64-2.17 2.65-3 .34-5.6.52-7.96.55l-.76.02-.3-.7c-.05-.14-.13-.27-.2-.36zm-22.37-6h3.72c3.6 0 7.34-.2 11.47-.7l1-.1.23.98c.17.53.35 1.1.54 1.6l.04.15c.4 1.06.93 2.14 1.55 3.18l1.2 1.93-2.25-.24c-5.75-.6-10.58-2.2-14.37-4.7l-3.1-2.06zM434 449.7l.3.15c.07.04 1.74.9 2.8 2.73l.2.43c.54.9 1.06 1.84 1.44 2.8v.07c.3.8.43 1.48.42 2.04.02.2 0 .43 0 .66l-.02.85c0 .8 0 1.54.05 2.25l.1 1.08-1.07.15c-5.63.66-10.5.87-14.9.6l-1.67-.1.74-1.5c2.24-4.38 6.06-8.4 11.4-11.96l.3-.14z" fill="#231F20"/><path fill="#E5292E" d="M343.62 569.7c-1.85-1.5-2.92-3.74-2.95-6.13-.04-4.44 3.54-8.07 7.97-8.12 1.9-.02 3.73.63 5.18 1.84 1.85 1.5 2.92 3.7 2.94 6.1.02 2.1-.8 4.1-2.3 5.7-1.5 1.5-3.52 2.4-5.66 2.4-1.9 0-3.72-.68-5.18-1.88"/><path fill="#231F20" d="M353 558.26c1.5 1.22 2.46 3.08 2.47 5.17.04 3.73-2.96 6.8-6.7 6.83-1.64.02-3.16-.56-4.34-1.54-1.5-1.23-2.46-3.08-2.48-5.16-.04-3.74 2.96-6.8 6.7-6.83 1.66 0 3.17.57 4.36 1.53m1.7-1.97c-1.7-1.4-3.8-2.2-6-2.2-5.12.02-9.26 4.26-9.2 9.4.02 2.76 1.27 5.36 3.4 7.1 1.7 1.4 3.82 2.13 6 2.1 2.5 0 4.83-1 6.57-2.8 1.75-1.75 2.7-4.1 2.67-6.6-.02-2.76-1.26-5.36-3.4-7.1"/><path fill="#E5292E" d="M351.85 559.9c-1.84-1.52-2.92-3.77-2.95-6.14 0-2.16.8-4.2 2.3-5.72 1.5-1.54 3.52-2.4 5.68-2.4 1.88-.04 3.72.62 5.17 1.82 1.85 1.5 2.9 3.75 2.94 6.13 0 2.1-.8 4.1-2.3 5.7-1.6 1.5-3.6 2.4-5.7 2.4-1.9 0-3.7-.6-5.2-1.8"/><path fill="#231F20" d="M361.23 548.44c1.5 1.22 2.46 3.08 2.48 5.18.1 3.73-2.9 6.78-6.7 6.8-1.6.03-3.1-.55-4.3-1.52-1.5-1.23-2.4-3.08-2.5-5.17 0-3.73 3-6.78 6.7-6.83 1.7 0 3.2.56 4.4 1.54m1.6-1.98c-1.7-1.37-3.8-2.14-6-2.12-2.5.03-4.8 1.03-6.54 2.8-1.74 1.77-2.7 4.13-2.66 6.63.02 2.75 1.25 5.35 3.4 7.1 1.7 1.4 3.82 2.14 6 2.12 2.5-.1 4.82-1.1 6.56-2.8 1.75-1.8 2.7-4.2 2.68-6.7 0-2.77-1.26-5.38-3.4-7.1"/><path fill="#E5292E" d="M322.5 557.77c-1.84-1.5-2.9-3.76-2.93-6.15-.05-4.43 3.53-8.06 7.96-8.1 1.9-.03 3.72.63 5.18 1.8 1.9 1.53 3 3.77 3 6.15 0 2.15-.8 4.18-2.3 5.7-1.5 1.55-3.5 2.4-5.62 2.42-1.9 0-3.73-.7-5.2-1.9"/><path fill="#231F20" d="M331.9 546.32c1.5 1.23 2.45 3.08 2.47 5.17.04 3.7-2.96 6.7-6.7 6.8-1.65 0-3.17-.6-4.35-1.6-1.5-1.24-2.45-3.1-2.48-5.17-.03-3.74 2.97-6.8 6.7-6.83 1.66 0 3.17.56 4.35 1.53m1.6-2c-1.7-1.37-3.8-2.12-6-2.1-5.2.05-9.3 4.28-9.3 9.4.02 2.78 1.26 5.37 3.4 7.13 1.7 1.37 3.8 2.1 6 2.1 2.5 0 4.8-1 6.55-2.8 1.75-1.77 2.7-4.12 2.7-6.6-.04-2.78-1.28-5.36-3.4-7.13"/><path fill="#E5292E" d="M330.63 571.22c-1.85-1.52-2.92-3.75-2.95-6.15-.02-2.14.8-4.16 2.3-5.7 1.5-1.53 3.53-2.4 5.67-2.4 1.88-.04 3.72.62 5.17 1.8 1.86 1.54 2.92 3.77 2.95 6.16.02 2.14-.8 4.17-2.3 5.7-1.5 1.54-3.52 2.4-5.67 2.42-1.88 0-3.72-.63-5.17-1.83"/><path fill="#231F20" d="M340.02 559.78c1.5 1.22 2.45 3.07 2.47 5.16 0 3.74-3 6.8-6.7 6.82-1.7.02-3.2-.56-4.4-1.52-1.5-1.23-2.5-3.1-2.5-5.18-.06-3.73 3-6.8 6.7-6.82 1.62-.02 3.14.56 4.33 1.54m1.62-1.98c-1.7-1.38-3.83-2.14-6-2.1-2.5 0-4.84 1-6.58 2.77-1.75 1.78-2.7 4.13-2.67 6.62.03 2.7 1.27 5.3 3.4 7.1 1.7 1.4 3.8 2.1 6 2.1 2.5-.1 4.8-1 6.58-2.8 1.75-1.8 2.7-4.1 2.68-6.6-.02-2.8-1.26-5.4-3.4-7.1"/><path fill="#E5292E" d="M337.24 559.47c-2.4-1.97-3.8-4.87-3.82-7.97-.03-2.8 1.03-5.42 2.98-7.4 1.96-2 4.57-3.12 7.35-3.14 2.45-.02 4.84.8 6.72 2.36 2.4 1.97 3.8 4.88 3.83 7.98.02 2.8-1.04 5.42-3 7.4-1.94 2-4.56 3.1-7.34 3.14-2.45.02-4.84-.82-6.72-2.37"/><path fill="#231F20" d="M349.66 544.3c2.03 1.67 3.33 4.18 3.35 7.02.1 5.05-4 9.2-9 9.24-2.2.02-4.3-.75-5.9-2.07-2-1.7-3.3-4.2-3.32-7-.04-5.1 4-9.2 9.08-9.3 2.24 0 4.3.7 5.9 2.02m1.63-1.97c-2.16-1.74-4.8-2.7-7.58-2.66-3.13.03-6.06 1.3-8.25 3.5-2.2 2.24-3.4 5.2-3.35 8.33 0 3.5 1.56 6.76 4.26 8.96 2.12 1.75 4.8 2.7 7.54 2.66 3.15 0 6.08-1.27 8.27-3.5 2.2-2.24 3.37-5.2 3.33-8.33 0-3.47-1.55-6.74-4.24-8.94"/><path fill="#E5292E" d="M382.7 521.18c-1.85-1.52-2.92-3.76-2.95-6.15-.02-2.15.8-4.18 2.3-5.7 1.5-1.54 3.52-2.4 5.67-2.4 1.88-.03 3.72.62 5.18 1.8 1.84 1.53 2.92 3.77 2.94 6.16.02 2.1-.8 4.1-2.3 5.7-1.5 1.5-3.52 2.3-5.66 2.4-1.9 0-3.73-.7-5.18-1.9"/><path fill="#231F20" d="M392.08 509.73c1.5 1.22 2.46 3.07 2.48 5.16.04 3.7-2.97 6.8-6.7 6.8-1.65 0-3.17-.6-4.35-1.6-1.5-1.24-2.4-3.1-2.4-5.2 0-3.7 2.98-6.77 6.7-6.8 1.67 0 3.18.56 4.37 1.53m1.63-1.98c-1.7-1.4-3.8-2.14-6-2.1-2.5 0-4.83 1-6.57 2.76-1.75 1.8-2.7 4.14-2.66 6.6.03 2.8 1.28 5.38 3.4 7.14 1.7 1.37 3.83 2.13 6 2.1 2.5 0 4.83-1 6.58-2.8 1.76-1.76 2.7-4.1 2.68-6.6 0-2.77-1.26-5.36-3.4-7.12"/><path fill="#E5292E" d="M388.16 509.88c-1.86-1.5-2.92-3.75-2.95-6.13 0-4.44 3.6-8.1 8-8.13 1.9-.02 3.7.64 5.2 1.83 1.9 1.5 2.97 3.75 2.98 6.14.05 4.4-3.52 8-7.97 8.1-1.87 0-3.7-.7-5.16-1.9"/><path fill="#231F20" d="M397.54 498.44c1.5 1.22 2.46 3.08 2.48 5.17.03 3.8-2.96 6.8-6.7 6.9-1.65.04-3.16-.55-4.35-1.52-1.5-1.22-2.46-3.1-2.48-5.16-.1-3.74 2.9-6.8 6.7-6.83 1.6 0 3.1.56 4.3 1.54m1.6-2c-1.7-1.4-3.8-2.1-6-2.1-5.17.06-9.3 4.28-9.26 9.4.03 2.8 1.27 5.4 3.4 7.1 1.7 1.4 3.83 2.17 6 2.16 5.15-.08 9.3-4.3 9.24-9.44 0-2.76-1.26-5.35-3.4-7.1"/><path fill="#E5292E" d="M377.35 500.6c-1.85-1.5-2.9-3.74-2.94-6.13 0-4.43 3.6-8.07 8-8.12 1.9-.02 3.7.64 5.2 1.82 1.9 1.53 2.9 3.76 3 6.15.03 4.43-3.53 8.07-7.97 8.12-1.9.02-3.72-.63-5.2-1.83"/><path fill="#231F20" d="M386.74 489.16c1.5 1.23 2.45 3.08 2.47 5.17.1 3.73-2.9 6.8-6.6 6.82-1.65.02-3.2-.56-4.35-1.52-1.5-1.23-2.45-3.08-2.5-5.17-.02-3.73 2.98-6.8 6.7-6.83 1.66 0 3.2.56 4.37 1.53m1.6-1.97c-1.7-1.4-3.8-2.2-6-2.2-5.13.03-9.26 4.3-9.22 9.4.03 2.75 1.27 5.34 3.4 7.1 1.7 1.4 3.82 2.14 6 2.12 5.15-.06 9.3-4.28 9.24-9.43-.03-2.76-1.3-5.36-3.4-7.1"/><path fill="#E5292E" d="M361.54 512.2c-1.85-1.5-2.93-3.74-2.95-6.13-.1-4.44 3.5-8.07 7.9-8.1 1.85-.04 3.7.6 5.15 1.8 1.85 1.52 2.9 3.76 2.94 6.15.02 2.14-.8 4.17-2.3 5.7-1.5 1.54-3.5 2.4-5.67 2.42-1.88 0-3.7-.63-5.17-1.83"/><path fill="#231F20" d="M370.93 500.76c1.5 1.23 2.45 3.08 2.46 5.18 0 3.73-3 6.8-6.7 6.82-1.7 0-3.2-.56-4.4-1.53-1.5-1.23-2.5-3.1-2.5-5.17-.05-3.73 2.95-6.8 6.7-6.83 1.63 0 3.15.57 4.34 1.53m1.62-1.97c-1.7-1.4-3.83-2.2-6-2.2-5.14.04-9.3 4.25-9.24 9.4.02 2.8 1.26 5.4 3.4 7.12 1.7 1.36 3.82 2.13 6 2.1 2.5-.02 4.82-1.02 6.57-2.8 1.73-1.76 2.67-4.1 2.65-6.6 0-2.77-1.27-5.37-3.4-7.1"/><path fill="#E5292E" d="M368.4 523.6c-1.83-1.52-2.9-3.75-2.94-6.15-.02-2.15.8-4.17 2.3-5.7 1.5-1.53 3.53-2.38 5.68-2.4 1.87-.02 3.72.62 5.17 1.8 1.9 1.53 3 3.77 3 6.16 0 2.2-.8 4.2-2.3 5.7-1.5 1.6-3.5 2.4-5.62 2.5-1.9 0-3.73-.6-5.2-1.8"/><path fill="#231F20" d="M377.8 512.15c1.5 1.22 2.45 3.08 2.46 5.17.05 3.73-2.95 6.8-6.68 6.82-1.66.02-3.17-.56-4.35-1.54-1.5-1.2-2.46-3.07-2.5-5.16-.02-3.73 2.98-6.8 6.7-6.83 1.67 0 3.18.6 4.36 1.6m1.6-2c-1.7-1.4-3.8-2.1-6-2.1-2.5 0-4.8 1-6.6 2.8-1.78 1.8-2.7 4.17-2.7 6.6 0 2.8 1.26 5.4 3.4 7.16 1.7 1.4 3.8 2.14 6 2.1 2.5 0 4.8-1 6.56-2.8 1.75-1.75 2.7-4.1 2.67-6.6 0-2.75-1.27-5.34-3.4-7.1"/><path fill="#E5292E" d="M373.55 513.94c-2.4-1.98-3.8-4.87-3.82-7.97-.03-2.8 1.03-5.42 2.98-7.4 2-2 4.6-3.12 7.4-3.14 2.5-.02 4.88.82 6.7 2.36 2.4 1.9 3.8 4.8 3.8 7.9.1 5.73-4.5 10.45-10.3 10.5-2.4.03-4.8-.8-6.7-2.36"/><path fill="#231F20" d="M385.97 498.78c2.03 1.67 3.33 4.17 3.35 7 .05 5.06-4 9.2-9.07 9.25-2.24 0-4.3-.77-5.9-2.08-2.02-1.66-3.32-4.17-3.35-7-.05-5.05 4.02-9.2 9.08-9.23 2.23-.03 4.3.75 5.9 2.06m1.6-1.97c-2.1-1.7-4.8-2.6-7.52-2.6-3.14 0-6.07 1.3-8.26 3.5-2.2 2.28-3.38 5.2-3.35 8.3.03 3.5 1.6 6.8 4.28 9 2.12 1.75 4.8 2.7 7.54 2.67 6.47-.06 11.67-5.37 11.6-11.82-.03-3.47-1.6-6.74-4.28-8.94"/><path fill="#E5292E" d="M407.26 460.8c-1.48-1.2-2.33-3-2.35-4.9 0-3.55 2.9-6.46 6.4-6.5 1.5 0 3 .5 4.2 1.47 1.48 1.2 2.34 3 2.36 4.9 0 1.72-.64 3.34-1.84 4.55-1.2 1.23-2.82 1.93-4.53 1.94-1.5 0-2.97-.5-4.14-1.45"/><path fill="#231F20" d="M414.6 451.85c1.13.94 1.86 2.36 1.9 3.94 0 2.8-2.28 5.1-5.12 5.2-1.25 0-2.4-.5-3.3-1.2-1.15-1-1.88-2.4-1.9-4-.02-2.84 2.27-5.18 5.1-5.2 1.26 0 2.42.42 3.3 1.16m1.64-1.97c-1.4-1.14-3.16-1.77-4.97-1.75-4.24.03-7.66 3.52-7.62 7.8.02 2.25 1.05 4.4 2.82 5.85 1.4 1.16 3.15 1.77 4.96 1.75 2.1 0 4-.8 5.5-2.3 1.45-1.47 2.24-3.4 2.2-5.46 0-2.3-1.02-4.46-2.8-5.9"/><path fill="#E5292E" d="M405.48 473.26c-2.15-1.76-3.4-4.38-3.43-7.16-.05-5.17 4.12-9.4 9.28-9.46 2.2-.03 4.35.73 6.05 2.12 2.14 1.77 3.4 4.38 3.42 7.16.02 2.5-.93 4.87-2.68 6.65-1.75 1.8-4.1 2.78-6.6 2.8-2.2.04-4.34-.72-6.04-2.1"/><path fill="#231F20" d="M416.56 459.75c1.8 1.47 2.93 3.7 2.96 6.18.04 4.47-3.55 8.13-8.02 8.17-1.97.02-3.8-.65-5.2-1.82-1.8-1.48-2.94-3.7-2.97-6.2-.04-4.47 3.55-8.12 8.02-8.16 1.98-.02 3.8.67 5.2 1.83m1.62-1.98c-1.92-1.58-4.35-2.44-6.84-2.4-5.87.04-10.6 4.87-10.55 10.75.03 3.16 1.45 6.12 3.9 8.13 1.92 1.58 4.35 2.44 6.86 2.4 2.83-.02 5.5-1.15 7.5-3.18 1.98-2.03 3.06-4.72 3.03-7.57-.02-3.16-1.44-6.1-3.9-8.13"/><path fill="#E5292E" d="M419.9 466.67c-2.14-1.76-3.4-4.37-3.42-7.15-.05-5.17 4.1-9.4 9.3-9.46 2.17-.03 4.32.73 6.02 2.12 2.15 1.76 3.4 4.37 3.42 7.16.02 2.5-.93 4.87-2.68 6.66-1.76 1.78-4.1 2.78-6.6 2.8-2.2.02-4.34-.73-6.03-2.13"/><path fill="#231F20" d="M431 453.17c1.77 1.46 2.93 3.68 2.94 6.18.05 4.48-3.54 8.13-8 8.18-2 0-3.8-.67-5.22-1.83-1.8-1.48-2.93-3.7-2.96-6.2-.04-4.46 3.55-8.12 8.02-8.17 1.98-.02 3.8.68 5.2 1.84m1.63-1.97c-1.9-1.6-4.3-2.45-6.8-2.42-5.9.04-10.6 4.88-10.5 10.75.03 3.16 1.46 6.13 3.9 8.14 1.9 1.57 4.36 2.43 6.85 2.4 2.85-.02 5.5-1.14 7.5-3.18s3.08-4.8 3.04-7.6c-.03-3.2-1.44-6.1-3.9-8.2"/><path fill="#E5292E" d="M428.8 455.9c-2.15-1.8-3.4-4.4-3.43-7.17-.02-2.5.93-4.87 2.68-6.65 1.76-1.8 4.1-2.8 6.6-2.8 2.2-.03 4.35.72 6.04 2.1 2.1 1.78 3.4 4.4 3.4 7.17 0 2.5-1 4.86-2.7 6.65-1.8 1.8-4.1 2.78-6.6 2.8-2.2.05-4.4-.7-6-2.1"/><path fill="#231F20" d="M439.88 442.37c1.8 1.48 2.94 3.7 2.96 6.2.05 4.46-3.55 8.12-8 8.16-2 .02-3.8-.67-5.22-1.83-1.8-1.46-2.95-3.7-2.97-6.18-.03-4.47 3.55-8.14 8.02-8.18 1.98-.02 3.8.67 5.2 1.83m1.64-1.96c-1.9-1.5-4.3-2.4-6.8-2.4-2.8.1-5.5 1.2-7.5 3.2-2 2.1-3.1 4.7-3.02 7.6.04 3.2 1.46 6.1 3.9 8.1 1.93 1.6 4.37 2.5 6.87 2.4 2.83 0 5.5-1.1 7.5-3.2 2-2 3.06-4.7 3.04-7.5-.03-3.16-1.45-6.12-3.9-8.12"/><path fill="#E5292E" d="M410.36 453.98c-2.15-1.76-3.4-4.37-3.44-7.16-.05-5.16 4.12-9.4 9.3-9.46 2.18-.02 4.33.73 6.02 2.13 2.15 1.7 3.4 4.3 3.44 7.1.03 5.12-4.13 9.4-9.3 9.42-2.2 0-4.32-.74-6.02-2.13"/><path fill="#231F20" d="M421.44 440.48c1.8 1.47 2.93 3.7 2.96 6.18.04 4.47-3.55 8.13-8.02 8.16-1.97.02-3.8-.66-5.2-1.83-1.8-1.5-2.95-3.7-2.97-6.2 0-4.5 3.6-8.2 8.1-8.2 2 0 3.8.62 5.2 1.8m1.65-2c-1.93-1.6-4.36-2.44-6.85-2.42-5.88.07-10.6 4.9-10.56 10.76 0 3.15 1.43 6.12 3.9 8.13 1.9 1.6 4.34 2.44 6.83 2.42 5.88-.08 10.6-4.9 10.56-10.76-.05-3.16-1.5-6.13-3.9-8.13"/><path fill="#E5292E" d="M426.46 443.77c-2.16-1.77-3.4-4.38-3.44-7.16-.05-5.1 4.12-9.4 9.3-9.4 2.18 0 4.33.77 6.02 2.1 2.16 1.8 3.4 4.4 3.43 7.2.03 2.5-.93 4.9-2.7 6.67-1.74 1.8-4.1 2.78-6.6 2.8-2.18.03-4.32-.72-6-2.1"/><path fill="#231F20" d="M437.53 430.25c1.8 1.47 2.94 3.7 2.97 6.2.03 4.46-3.56 8.12-8.04 8.15-1.97.03-3.78-.66-5.2-1.82-1.78-1.48-2.93-3.7-2.96-6.2-.04-4.46 3.55-8.12 8.02-8.16 1.97-.02 3.8.68 5.2 1.83m1.63-1.97c-1.94-1.58-4.36-2.44-6.85-2.4-5.88.04-10.6 4.86-10.55 10.74.02 3.16 1.44 6.12 3.9 8.14 1.92 1.58 4.36 2.43 6.84 2.4 2.8-.02 5.5-1.15 7.5-3.2 2-2 3-4.7 3-7.54 0-3.17-1.5-6.13-3.9-8.14"/></svg>