<svg xmlns="http://www.w3.org/2000/svg" viewBox="-360.5 443.5 245 352.5"><path fill="#FFF" d="M-312.8 577.3s20.8 47.7 50 72.2l121.3-45.9 11-19 13.2-42.9-3-24.5-192.5 60.1z"/><path fill="#FFF" d="M-148.5 517.1c10.5 0 20.9.6 31 1.8v-2.3c-.3-12.4-1.9-25.5-5-39.4-37.9-5.8-62.9-34.8-102.7-31.4-34 2.9-56.8 28.9-91.9 31.4-10.1 40.2-7.3 74.4 3.6 102.9 38.6-38.4 98.1-63 165-63z"/><path fill="none" stroke="#526C3A" stroke-width="4.15" d="M-148.5 517.1c10.5 0 20.9.6 31 1.8v-2.3c-.3-12.4-1.9-25.5-5-39.4-37.9-5.8-62.9-34.8-102.7-31.4-34 2.9-56.8 28.9-91.9 31.4-10.1 40.2-7.3 74.4 3.6 102.9 38.6-38.4 98.1-63 165-63z"/><path fill="#9FC54D" d="M-322.1 794.9c-.8-3.8-10.6-26-11-47.6-.8-43.5 21.5-83.1 56.5-112.5 36.5-30.7 87.7-50.4 144.7-52.3 3.3-6.9 6.1-14.2 8.3-21.8-2.7-.1-5.4-.1-8.1-.1-63.9 0-121.2 22.5-159.6 57.9-31.3 28.8-50.2 66.2-50.2 107.1 0 8.8.9 17.4 2.6 25.8-2-3.5-3.9-7-5.7-10.6 2.1 7.4 20.4 50.6 22.5 54.1"/><path fill="none" stroke="#9FC54D" stroke-width="4.15" d="M-322.1 794.9c-.8-3.8-10.6-26-11-47.6-.8-43.5 21.5-83.1 56.5-112.5 36.5-30.7 87.7-50.4 144.7-52.3 3.3-6.9 6.1-14.2 8.3-21.8-2.7-.1-5.4-.1-8.1-.1-63.9 0-121.2 22.5-159.6 57.9-31.3 28.8-50.2 66.2-50.2 107.1 0 8.8.9 17.4 2.6 25.8-2-3.5-3.9-7-5.7-10.6 2.1 7.4 20.4 50.6 22.5 54.1z"/><path fill="#526C3A" d="M-140 538.9c7.1 0 14.1.3 21 .8.9-6.7 1.5-13.6 1.5-20.8-10.1-1.2-20.5-1.8-31-1.8-66.9 0-126.5 24.6-164.9 62.9-28.2 28.1-45 63.5-45 102 0 20.7 4.9 40.5 13.7 58.8-3.5-11.9-5.3-24.3-5.3-37 0-39.2 17.4-75.1 46.4-103.4 38.5-37.5 97.5-61.5 163.6-61.5"/><path fill="none" stroke="#526C3A" stroke-width="4.15" d="M-140 538.9c7.1 0 14.1.3 21 .8.9-6.7 1.5-13.6 1.5-20.8-10.1-1.2-20.5-1.8-31-1.8-66.9 0-126.5 24.6-164.9 62.9-28.2 28.1-45 63.5-45 102 0 20.7 4.9 40.5 13.7 58.8-3.5-11.9-5.3-24.3-5.3-37 0-39.2 17.4-75.1 46.4-103.4 38.5-37.5 97.5-61.5 163.6-61.5z"/><path fill="#526C3A" d="M-225.1 670.8c30.1-14.9 59.2-36.3 79.5-64.9-43.8 5.1-83.2 20.8-113.8 43.6 10.8 8.3 22.3 15.4 34.3 21.3"/><path fill="none" stroke="#526C3A" stroke-width="4.15" d="M-225.1 670.8c30.1-14.9 59.2-36.3 79.5-64.9-43.8 5.1-83.2 20.8-113.8 43.6 10.8 8.3 22.3 15.4 34.3 21.3z"/><path fill="#526C3A" d="M-245.5 508.4h-1.6s-2.3 0-3.8-.2-3.1-.5-4.9-1c-1.7-.5-3.3-1.3-4.8-2.3s-2.7-2.4-3.7-4.2c-1-1.7-1.5-3.9-1.5-6.5v-25.6h9.3v25.5c0 3 .9 5.2 2.8 6.4 1.8 1.3 4.6 1.9 8.2 2v5.9zm10.7-19.5c2.9-.1 5.5-.4 7.8-1 1-.2 1.9-.6 2.8-1s1.8-.9 2.5-1.4c.7-.6 1.3-1.2 1.8-2s.7-1.6.7-2.7c0-.4 0-.9-.1-1.4-.1-.5-.3-1.1-.5-1.7-.4-.9-1.2-1.7-2.2-2.4-1-.7-2.6-1.1-4.8-1.1-1.7 0-3.1.3-4.2 1-1.1.6-1.9 1.4-2.4 2.3-.6.9-.9 1.8-1.1 2.8s-.2 1.7-.2 2.3l-.1 6.3zm24.8-7.4c0 1.8-.4 3.3-1.1 4.6-.7 1.3-1.7 2.5-2.8 3.4-1.2 1-2.5 1.7-4 2.4-1.5.6-3 1.1-4.5 1.5-3.6.9-7.8 1.4-12.3 1.5.2 1.8.8 3.1 1.8 4.2 1 1 2.2 1.8 3.4 2.3s2.4.8 3.4.9c1.1.1 1.7.2 2 .2h6.9v4.2c-.5.3-1.2.6-2 .9-.7.2-1.5.5-2.5.6-1 .2-2.2.3-3.6.3-3.3 0-6-.4-8.2-1.1-2.2-.7-4-1.7-5.4-2.8-1.4-1.1-2.4-2.3-3.2-3.6-.7-1.3-1.2-2.5-1.5-3.7-.3-1.2-.4-2.2-.5-3v-9c0-.2 0-.7.1-1.6 0-.9.2-2 .5-3.2s.8-2.6 1.5-4 1.7-2.7 3-3.9c1.3-1.2 2.9-2.1 4.9-2.9s4.4-1.2 7.3-1.2c1.9 0 3.8.2 5.8.7s3.8 1.2 5.4 2.2c1.6 1 3 2.4 4 4 1.1 1.6 1.6 3.7 1.6 6.1zm3.5.8c0-1.5.2-2.9.6-4.1.4-1.2.9-2.4 1.6-3.3.7-1 1.5-1.8 2.4-2.5.9-.7 1.9-1.2 2.8-1.7 2-1 4-1.6 6.1-1.8 2-.2 3.8-.4 5.4-.4l3.7-.1c1 0 1.8 0 2.5.1l2 .3c.6.1 1.1.2 1.6.4s.9.4 1.3.6l.8.4v4.2h-9.9c-.6 0-1.3 0-2 .1-.7 0-1.4.1-2.2.3-.8.1-1.5.3-2.2.6-.7.2-1.3.6-1.9.9-.8.5-1.5 1.2-1.9 2-.8 1.1-1.1 2.5-1.1 4.4v11.6c0 .7.1 1.4.2 2s.3 1.1.5 1.5c.4.9 1 1.7 1.7 2.3.7.6 1.5 1.1 2.4 1.5.9.3 1.9.6 2.9.7.7.1 1.3.2 1.9.2.6.1 1.2.1 1.7.1h9.7v4.2l-.8.4c-.4.2-.8.4-1.3.5-.5.2-1 .3-1.6.4l-2 .3c-.7.1-1.5.1-2.5.1l-3.7-.1c-.9 0-1.8 0-2.9-.1-1.1 0-2.1-.2-3.2-.4-1.2-.2-2.3-.5-3.5-.9-1.1-.4-2.3-.9-3.3-1.5-1.5-.9-2.7-2.1-3.7-3.4-.7-1-1.2-2.1-1.6-3.3-.4-1.2-.6-2.6-.6-4.1l.1-12.4z"/><path fill="#FFF" d="M-140.1 558.5c6.9 0 12.6-.1 19.3.4.9-6.7 3.4-10 3.4-17.2-9.8-1.2-20.2-.3-30.4-.3-63.4.6-115.4 25.2-155.6 61.5-27.3 28.1-39.3 50.6-43.9 90-1.2 20.2-.6 26.5 4.4 45.6-.9-12.7-.6-1-.6-13.7 0-39.2 17-73.6 45.2-101.9 37.3-37.4 94.1-62.3 158.2-64.4"/></svg>