<svg xmlns="http://www.w3.org/2000/svg" viewBox="0 0 566 549.3"><path d="M565.9 389.9c-9.1-19.2-22.6-29.8-40.9-29.8-1.8 0-3.6.1-5.4.3 10.9-6.9 15.5-15.8 15.5-25.9 0-3.4-.5-6.8-1.4-10.4-.1-.3-.3-.5-.5-.5-.3-.1-.5 0-.7.2-21.9 20.7-43.9 41.4-65.8 62.1-2.2 2.5-3.6 4.7-3.6 6.9 0 1.4.7 2.6 1.9 3.5 0 0 .1 0 .1.1.1.1.2.1.3.2.1.1.2.1.3.2l19.5 12.6c-3.8.5-8.1.9-12.8 1.2-9.5.6-19 1.7-28.4 2.5-3.4.3-5.6.9-7.5 2.1-2.3 1.5-3.6 3.5-3.6 5.6 0 1.4.6 2.7 1.7 3.8l.1.1h.1c.4.4.8.7 1.3 1 9 6.9 18.3 13.8 27.4 20.6-7.6 5-19.8 9.8-36.9 13.8-12.1 2.8-26.5 5.3-43.3 7.3C478 372 475.4 289 481.8 110.1 417.4 89.5 376 58.1 361.5.1H205c-14.4 58.1-55.9 89.4-120.3 110C91.2 289 88.6 372 183.2 467.4c-16.8-2-31.3-4.4-43.3-7.3-17-4-29.3-8.8-36.9-13.8 9.1-6.9 18.4-13.7 27.4-20.6.5-.3.9-.6 1.3-1h.1l.1-.1c1.1-1.1 1.6-2.4 1.7-3.8 0-2.1-1.3-4.1-3.6-5.6-1.9-1.2-4.1-1.8-7.5-2.1-9.5-.8-18.9-1.9-28.4-2.5-4.7-.3-9-.7-12.8-1.2 6.5-4.2 12.9-8.4 19.4-12.6.1-.1.2-.1.3-.2.1-.1.2-.1.3-.2h.1c1.2-.9 1.9-2.2 1.9-3.5 0-2.2-1.4-4.4-3.6-6.8-22-20.8-43.9-41.5-65.9-62.2-.2-.2-.5-.3-.7-.2-.3.1-.5.3-.5.5-.9 3.6-1.4 7.1-1.4 10.4 0 10.1 4.5 19 15.5 25.9-1.8-.2-3.7-.3-5.4-.3C23 360.2 9.5 370.8.4 390c-.1.3-.1.6.1.8.2.2.5.3.8.2 8.8-3.6 15.8-5.4 21.1-5.4 8.5.1 12.5 4.3 13.2 13.7 0 .7.1 1.5.1 2.3 0 4.2-.5 10-1.7 15.2-5 3.5-10 6.9-14.9 10.5-1.6 1-2.7 2.3-2.7 4 .1 2.9 3.2 5.7 10.6 8.5 10.1 3.8 23.2 5.3 37 5.3h2.8v.1c-1.2 3.5-1.7 7-1.7 10.4C65.2 478.5 91 496 131 508c32.4 9.7 74.4 15.7 119.9 17.7 10.2 7.8 21 15.7 32.5 23.9 11.5-8.2 22.3-16.1 32.5-23.9 45.6-1.9 87.5-8 119.9-17.7 40-12 65.8-29.5 65.9-52.4 0-3.4-.6-6.8-1.7-10.4v-.1h2.8c13.9 0 26.9-1.5 37-5.3 7.4-2.8 10.5-5.5 10.6-8.5 0-1.7-1.2-3-2.7-4-5-3.6-10-7-15-10.5-1.1-5.1-1.7-10.9-1.7-15.2 0-.8 0-1.6.1-2.3.7-9.4 4.7-13.6 13.2-13.7 5.3 0 12.3 1.8 21.1 5.4.3.1.6 0 .8-.2-.2-.3-.1-.6-.3-.9z" fill="#164397"/><path d="M110.1 131c56.1-17.9 98.1-56.8 110.7-107.3h124.4c12.6 50.6 54.6 89.4 110.7 107.3-6.3 173.4-2.8 243.4-117.2 339.9 8.1-.4 15.9-.9 23.3-1.6 103.9-95.7 100.8-172.7 107.2-349.2-60.4-19.3-101.7-52.9-115.3-107.3H212.2c-13.5 54.4-54.9 88-115.3 107.3 6.4 176.5 3.4 253.5 107.2 349.2 7.4.6 15.1 1.1 23.3 1.6-114.5-96.5-111-166.5-117.3-339.9zm164.7 395.1c2.7 2 5.5 3.9 8.2 5.9 2.8-2 5.5-3.9 8.2-5.9H283c-2.8.1-5.5 0-8.2 0z" fill="#FD0"/><path d="M455.9 131c-56.1-17.9-98.1-56.8-110.7-107.3H220.8c-12.6 50.6-54.6 89.4-110.7 107.3 6.3 173.4 2.8 243.4 117.2 339.9 16.9.9 35.4 1.4 55.6 1.4 20.2 0 38.7-.5 55.6-1.4C453.1 374.4 449.6 304.4 455.9 131z" fill="#FFF"/><path d="M36.9 399.1c-.5-9.8-5.5-15.1-14.5-15.1h-.2c-5.2 0-11.8 1.6-19.8 4.8 9-17.8 21.6-27.2 38.7-27.2 2.9 0 5.9.3 9 .8.4.1.7-.1.8-.5.1-.3 0-.7-.4-.9-13-7-18-15.9-18-26.5 0-2.8.4-5.7 1-8.8L98.4 387c2 2.3 3.2 4.4 3.1 5.8 0 .8-.3 1.5-1.2 2.2-4.1.8-8.1 1.6-11.9 1.6-2.1 0-4.1-.2-6-.9-3.7-1-7.4-1.6-10.8-1.6-2.5 0-4.9.3-7.1 1.2-1.6.6-2.3 1.7-3.3 2.4l-.1.1c-8.5 6-17 11.8-25.6 17.7.9-4.8 1.4-10 1.4-13.9v-2.5zm507-15.1c-9.1-.1-14.2 5.3-14.7 15.1 0 .7-.1 1.5-.1 2.4 0 3.9.5 9.1 1.4 13.9-8.6-5.9-17.1-11.7-25.6-17.7l-.1-.1c-1-.7-1.8-1.8-3.3-2.4-2.1-.8-4.5-1.2-7.1-1.2-3.4 0-7.1.6-10.8 1.6-1.9.6-4 .9-6 .9-3.8 0-7.8-.8-11.9-1.6-.8-.7-1.1-1.4-1.2-2.2 0-1.4 1.1-3.5 3.2-5.8l64.8-61.2c.7 3 1 6 1 8.8 0 10.6-5 19.6-18 26.5-.3.2-.5.6-.4.9.1.3.5.6.8.5 3.1-.5 6.1-.8 9-.8 17.1 0 29.7 9.4 38.7 27.2-7.9-3.2-14.5-4.8-19.7-4.8z" fill="#FD0"/><path d="M27.2 438.3c-7.3-2.7-9.7-5.5-9.6-7.1 0-.9.7-1.9 2-2.7l-.4-.6.4.6c14.2-10.2 28.7-19.8 43-29.9-.3.9-.5 1.8-.5 2.6 0 3.8 3.5 6.2 9 7.8 5.5 1.6 13.2 2.5 22.6 3.1 9.5.6 18.9 1.7 28.4 2.5 3.3.3 5.2.9 6.8 1.9 2 1.3 2.9 2.9 2.9 4.3 0 1.2-.6 2.5-2.1 3.4-1.5 1-3.7 1.7-6.9 1.7-.8 0-1.7 0-2.6-.1-5.2-.9-12.2-2.3-17.8-2.3-3 0-5.5.4-7.4 1.5-8.6 5.8-17.9 12.6-26.6 18.5-1.6 0-3.2.1-4.8.1-13.7-.1-26.6-1.6-36.4-5.3zm511.6 0c-9.8 3.7-22.7 5.2-36.5 5.2-1.6 0-3.2 0-4.8-.1-8.7-5.9-17.9-12.7-26.5-18.5-1.9-1.2-4.4-1.5-7.4-1.5-5.6 0-12.5 1.4-17.8 2.3-.9.1-1.7.1-2.6.1-3.1 0-5.4-.7-6.9-1.7s-2.1-2.2-2.1-3.4c0-1.4.9-3.1 2.9-4.3 1.7-1.1 3.5-1.6 6.8-1.9 9.5-.8 18.9-1.9 28.4-2.5 9.3-.6 17.1-1.5 22.6-3.1 5.4-1.6 8.9-3.9 9-7.8 0-.8-.2-1.7-.5-2.6 14.3 10.2 28.8 19.7 43 29.9l.4-.6-.4.6c1.4.8 2 1.8 2 2.7.1 1.7-2.3 4.5-9.6 7.2z" fill="#FD0"/><path d="M435 506.4c-39.8 11.9-94.2 18.3-152 18.3-57.9 0-112.2-6.4-152-18.3-39.9-11.9-64.9-29.4-64.8-51 0-3.1.5-6.3 1.6-9.7 8.2-5.5 17-12 25.3-17.6-.8 1.7-1.2 3.4-1.2 5.1.2 11 16 20.8 47.5 28.3 31.6 7.4 79.3 12.3 143.7 12.3 64.4 0 112.1-4.9 143.7-12.3 31.5-7.5 47.3-17.3 47.5-28.3 0-1.7-.4-3.4-1.2-5.1 8.3 5.7 17.1 12.1 25.3 17.6 1.1 3.3 1.6 6.5 1.6 9.7-.1 21.6-25.1 39.1-65 51z" fill="#FD0"/><path d="M385.2 474.8c-.1 0-.2 1.4-.3 4.2l-.3 4.5c-.1 1.6-.2 3.2-.4 5-.3 4.1-.6 6.7-.7 7.9-.1 1.1-.3 2.1-.5 2.8-.2.8-.4 1.4-.7 2-.2.5-.5.9-.8 1.2-.3.4-.7.7-1.1.9-.5.3-1.1.5-1.7.6-.7.1-1.4 0-2-.2-.7-.2-1.2-.6-1.5-1.2-.3-.6-.6-1.3-.7-2.2-.1-.9-.2-2-.1-3.3 0-.7.2-2 .3-3.8.1-1.8.2-3.8.4-5.9.1-1.9.3-3.7.5-5.6.1-1.9.3-3.7.4-5.6-1.7.2-3 .4-4 .5-.8.1-2.2.3-4.1.5l-.3 5.2-.3 5.2c-.1 2.1-.2 3.8-.3 4.9l-.3 4.2c-.2 1.6-.3 2.8-.3 3.7 0 .8-.1 1.5-.1 1.9 0 1.3 0 2.4.2 3.5.2.9.4 1.7.7 2.4.3.7.8 1.3 1.4 1.8.7.6 1.6 1.1 2.5 1.5.9.4 2 .7 3.2.8 1.3.1 2.7.1 4-.1 1.6-.2 3.1-.6 4.6-1.2 1.5-.6 2.9-1.4 4.1-2.5 1.2-1.1 2.1-2.2 2.8-3.4.7-1.2 1.1-2.6 1.4-4.1.3-1.5.6-4.1.7-7.7 0-.2 0-.5.1-.9.2-3.1.5-6.2.8-9.3.2-3.1.5-6.2.7-9.4l-3.8.6c-1.1.1-2.6.3-4.5.6zm-33 31.8c.1-1.2.1-2.4.2-3.7.1-2.5.3-5 .4-7.5.1-2.5.3-5 .4-7.5l.3-4.8.3-4.8c-1.7.2-2.9.3-3.8.4-1.3.1-2.8.3-4.5.4 0 1.5 0 3.2-.1 5.2 0 1.9-.1 4.1-.3 6.4-.1 2.4-.2 4.7-.4 7.1-.1 2.4-.2 4.8-.4 7.2-.1 1.3-.3 2.8-.4 4.5-.1 1.7-.2 3.6-.4 5.7 3-.3 6.4-.7 10.4-1.1 2.9-.3 6.1-.6 9.3-.9.1-2.7.3-5.3.5-8-1.6.3-4.1.6-7.3.9-.7.2-2 .3-4.2.5zm-21.8-17.4c1.4-1 2.8-1.6 4.5-1.7.8-.1 1.6 0 2.5.1.9.1 2.1.4 3.5.7-.1-1-.1-2-.1-3-.1-1.2-.1-2.2-.1-3.2v-2.2c-2.7-.5-5-.6-6.8-.5-2 .1-4 .7-5.9 1.5-1.9.9-3.6 2.2-5.2 4-1.5 1.8-2.8 3.9-3.6 6.5-.9 2.6-1.2 5.4-1.3 8.6 0 2.7.2 5.1.8 7.3.6 2.1 1.6 4 3 5.6 1.4 1.6 3 2.7 4.7 3.2 1.8.6 3.6.8 5.6.7 2.1-.2 4.4-.6 7-1.3.1-1 .2-2.5.5-4.3.2-1.9.5-3.3.6-4.4-1.5.7-2.8 1.2-3.9 1.4-1 .3-2 .4-2.9.5-1.6.1-2.9-.2-4-.9s-2-1.7-2.6-3.1c-.7-1.4-.9-3.1-.9-5.1 0-2.2.4-4.2 1.2-6.1 1-1.8 2-3.2 3.4-4.3zm87.9-17.4c-.4-.5-.9-.9-1.6-1.2-.6-.3-1.4-.4-2.3-.4-.7 0-1.8.1-3.4.4-1.3.2-2.9.5-4.7.9-1.8.4-3.4.7-4.8.9-1 .1-2.3.3-4 .5 0 1.4-.1 2.5-.1 3.2 0 1.1 0 2.5-.1 4.4-.1 1.8-.2 4.1-.4 6.7-.2 2.6-.3 5-.5 7-.1 2.1-.2 3.8-.4 5.3-.2 2.2-.4 5.2-.7 9.1l3.6-.6c1.6-.3 3.3-.5 4.9-.8 1.9-.3 3.7-.7 5.4-1.1 1.7-.4 2.9-.7 3.6-1 .8-.3 1.6-.8 2.3-1.5.7-.6 1.4-1.3 1.9-2.2.6-.9 1-2 1.4-3.2.4-1.2.5-2.5.6-3.8 0-1 .1-1.8-.1-2.7-.2-.8-.4-1.5-.7-2.2-.3-.6-.7-1.1-1.1-1.5-.5-.4-.8-.6-1.2-.7-.4-.1-.9-.2-1.6-.2.7-.4 1.2-.8 1.6-1.1.4-.3.9-.8 1.3-1.3s.8-1.2 1.2-1.9c.4-.8.7-1.6.9-2.5.2-.9.3-1.9.4-2.8.1-1.3 0-2.4-.3-3.5-.2-.8-.6-1.6-1.1-2.2zm-7.1 24.8c-.2.6-.4 1-.7 1.4-.3.4-.7.7-1.3 1-.5.2-1.1.5-2.1.6-1.2.2-2.4.4-3.5.6.2-2.5.3-5 .5-7.5 1.3-.2 2.6-.5 3.9-.7.8-.2 1.5-.2 1.9-.2.4.1.7.2 1 .4.3.2.5.6.6 1 .1.4.2.9.1 1.5-.1.7-.2 1.3-.4 1.9zm.5-14.6c-.1.5-.3.9-.6 1.3s-.6.7-.9.9c-.4.2-.7.4-1.1.5-.4.1-1 .3-1.9.4-.9.2-1.8.3-2.7.5.2-2.3.3-4.7.5-7 1.1-.2 2.2-.4 3.4-.6 1-.2 1.7-.2 2.2 0 .5.2.9.5 1 .9.2.5.3 1 .2 1.7.1.5.1.9-.1 1.4zm-116.6 27.8v-3.6c0-2.4.2-4.9.2-7.4 0-2.4.2-4.9.3-7.4 0-1.6.1-3.1.2-4.7 0-1.6.1-3.1.3-4.7-1.7.1-2.9.1-3.8.1h-4.5c0 1.5 0 3.2-.1 5.1 0 1.9 0 4-.1 6.3 0 2.3-.1 4.7-.2 7l-.3 7c-.1 1.3-.2 2.8-.3 4.4-.1 1.7-.2 3.5-.4 5.5 3-.1 6.4-.1 10.4-.2 2.9 0 6 0 9.3-.1.1-2.6.3-5.3.4-7.9-1.6.2-4.1.3-7.4.4-.5.2-1.9.2-4 .2zM436 466.3c-4.2.8-7.8 1.5-10.8 2.1v2.3c0 .8-.1 2-.2 3.7-.1 1.6-.2 3.7-.4 6.2s-.4 4.7-.6 6.7c-.2 2-.3 3.8-.5 5.2-.2 1.5-.3 3.2-.5 5.1-.2 1.9-.4 3.9-.6 6.2l2.7-.6c2.7-.6 5.4-1.3 8.2-1.9 3.6-.8 7-1.6 10.1-2.2.1-2.7.4-5.3.6-7.8-1.3.4-2.3.7-2.9.8-1.3.3-2.6.7-3.9 1-2 .5-3.4.8-4 1-.7.2-1.4.3-2.1.5l.6-6.3c2.1-.6 4.1-1.1 5.8-1.4 1.2-.3 2.9-.6 5-1 .3-3 .6-5.6.8-7.8-3.1.8-5 1.2-5.7 1.4-2 .4-3.7.7-5.2 1 .2-2 .4-3.9.5-5.9 1.3-.3 2.4-.6 3-.7.6-.1 1.9-.4 3.7-.8 1.6-.3 3.7-.7 6.1-1 0-.6.1-1.2.1-1.8.1-.9.1-1.9.2-2.8.1-1.3.2-2 .2-2.2 0-.3 0-.6.1-.8-2.9.3-6.4 1-10.3 1.8zm-186.9 35.5c-.3-.7-.7-1.3-1.2-1.7-.5-.5-.9-.8-1.3-1-.4-.2-.9-.4-1.6-.6.7-.2 1.1-.5 1.5-.7.4-.2.8-.6 1.2-1 .4-.4.7-1 1-1.7.3-.7.6-1.4.7-2.3.1-.9.2-1.8.2-2.8 0-1.2-.2-2.4-.5-3.5-.3-1-.7-1.8-1.2-2.5-.4-.6-1-1.1-1.6-1.5-.6-.4-1.4-.7-2.3-.9-.7-.1-1.7-.3-3.3-.3-1.3 0-2.9-.1-4.7-.1-1.8-.1-3.4-.1-4.7-.2-1-.1-2.3-.2-3.9-.4 0 1.3 0 2.4.1 3.1V501c0 2 .1 3.7 0 5.1-.1 2.1-.1 5-.4 8.7l3.6.3c1.6.1 3.2.3 4.9.4 1.9.2 3.7.3 5.4.3 1.7.1 2.9.1 3.5 0 .8-.1 1.6-.4 2.3-.9.7-.5 1.3-1 1.8-1.7.5-.8 1-1.7 1.3-2.9.3-1.1.4-2.3.4-3.6 0-.9-.1-1.8-.3-2.7-.2-.8-.6-1.5-.9-2.2zm-14.1-14c1.1.1 2.3.2 3.4.2 1 .1 1.7.2 2.2.5.5.3.9.6 1.1 1.1.2.5.3 1.1.3 1.7 0 .4 0 .9-.1 1.3s-.3.8-.5 1.2c-.3.3-.6.6-.9.7l-1 .3h-1.9c-.9-.1-1.8-.1-2.7-.2 0-2.3 0-4.6.1-6.8zm7.4 19.1c-.2.5-.4.9-.6 1.2-.3.3-.7.5-1.2.6-.5.1-1.1.1-2.1.1l-3.5-.3v-7.2l3.9.3c.8.1 1.5.1 1.9.3.4.2.7.4 1 .7.3.3.5.7.6 1.1.1.4.2.9.3 1.5-.1.6-.1 1.2-.3 1.7zm-69.1-23.8c0-2.9 0-5.8.2-8.6-1.3-.2-2.5-.4-3.8-.7-1.1-.2-2.6-.5-4.5-.8-.1 0-.1 1.3-.1 3.9 0 1.3 0 2.7.1 4.2v11.8c0 1-.2 1.9-.3 2.5-.1.7-.4 1.2-.6 1.6-.2.4-.4.7-.7.9-.3.3-.7.4-1.1.5-.5.1-1 .1-1.6 0-.7-.1-1.4-.4-2.1-.8-.7-.4-1.2-1-1.6-1.6-.4-.7-.7-1.4-.9-2.3-.2-.9-.4-1.9-.4-3.2 0-.6 0-1.8-.1-3.5s-.1-3.5-.1-5.5v-5.2c0-1.7 0-3.4.1-5.1-1.7-.3-3-.6-4-.8-.8-.2-2.2-.5-4.2-.9-.1 1.6-.1 3.2 0 4.8 0 1.6 0 3.2.1 4.8.1 2 .1 3.5.1 4.5v7.3c0 .8.1 1.4.1 1.8.1 1.2.2 2.3.5 3.3.2.9.6 1.8.9 2.5.4.7.9 1.5 1.6 2.2.7.8 1.6 1.6 2.6 2.3.9.7 2 1.3 3.3 1.8 1.3.5 2.7.9 4 1.2 1.6.3 3.1.4 4.6.4 1.5-.1 2.8-.4 4-1 1.1-.6 2-1.4 2.6-2.3.6-.9 1-2.1 1.2-3.4.2-1.4.2-3.7.1-7.1v-9.5zm26.3-5c-.8-.1-1.6-.1-2.4-.2l-4.5-.6-4.7-.6c-4.7-.6-8.9-1.2-12.4-1.8v7.5c2.6.4 5.3.7 8 .9.1 4.8.2 9.4.2 13.8s0 8.5-.2 12.5c2.3.3 3.7.5 4.3.6l3.9.6v-8.1c0-1.7-.1-3.3-.2-5.1-.1-1.7 0-3.4 0-5.2v-8c.4.1.8.1 1.3.2 1.8.2 4 .6 6.6 1.1v-5.1c.1-.9.1-1.7.1-2.5zm2.7.2v5.7c0 1.6.1 3.6.1 5.9v11.4c0 1.4-.1 3-.1 4.8 0 1.8-.1 3.7-.3 5.8l2.6.3 8.2.9c3.6.4 6.9.8 9.9 1.2 0-2.6.1-5.2.2-7.6-1.4 0-2.2-.1-2.8-.1l-3.8-.3c-2-.2-3.3-.3-3.9-.3-.7-.1-1.4-.2-2.1-.2v-6c2.1.1 4 .3 5.7.4 1.2.1 2.8.3 4.9.6 0-2.9 0-5.5.1-7.6-3-.1-4.8-.3-5.5-.3-2-.2-3.7-.4-5.1-.6v-5.7c1.3.1 2.3.1 2.9.2.7.1 1.9.2 3.7.4 1.6.2 3.6.4 6 .7v-4.5c0-1.3.1-2 .1-2.2v-.8c-2.9-.2-6.3-.4-10.2-.8-4.1-.5-7.7-.9-10.6-1.3zm77.1 8c-1.4-1.6-3-2.8-4.9-3.6-1.9-.8-3.7-1.2-5.7-1.2-3.1 0-6 .7-8.5 2.3-2.4 1.5-4.3 3.7-5.5 6.4-.6 1.4-1.1 2.9-1.3 4.5-.2 1.6-.4 3.4-.4 5.2 0 2.5.4 4.8 1.1 7 .6 2.1 1.7 4 3.1 5.8 1.4 1.8 3.1 3.1 5 3.9 1.9.8 3.9 1.3 6 1.3s4.1-.3 6-1c1.9-.8 3.6-1.9 5-3.6 1.4-1.7 2.5-3.7 3.2-6.1.7-2.4 1.1-5.1 1.1-8 0-2.8-.4-5.2-1.1-7.3-.6-2.1-1.7-3.9-3.1-5.6zm-4.6 18.5c-.6 1.7-1.4 3-2.6 4-1.1.9-2.4 1.4-3.7 1.4-1.3 0-2.5-.5-3.7-1.3-1.2-.9-2-2.1-2.6-3.6-.6-1.5-.9-3.2-.9-5 0-2 .2-3.8.8-5.5.6-1.7 1.5-3 2.6-4 1.1-.9 2.4-1.4 3.8-1.4s2.6.5 3.6 1.3c1.1.9 1.9 2.1 2.5 3.6.6 1.6.9 3.3.9 5.1.1 1.9-.1 3.7-.7 5.4zm-140.3-38.2c-3.3-.8-6.8-1.8-10.6-2.8v2.7c0 .9.1 2.2.2 4 .1 1.8.2 4 .3 6.6.1 2.6.2 5 .3 7 .1 2.1.2 3.8.2 5.3 0 2 0 4.7-.2 8 2.6.6 4.1.9 4.4 1 1.4.3 2.7.7 4 1v-1.1c-.1-1.1-.1-2.2-.1-3.3 0-1.5-.1-3-.1-4.4 0-1.5-.2-2.9-.3-4.4 2 .4 3.7.8 5.4 1.2 1 .2 2.5.6 4.5 1.2-.1-1.8-.2-4.2-.3-7.3-1.8-.3-3.1-.6-4-.8-1-.3-2.1-.5-3.1-.8-.9-.3-1.9-.5-2.8-.7-.1-1.9-.1-3.8-.2-5.7l3.8.9c1.2.3 2.4.6 3.7.9l1.3.3c.5.1.9.2 1.3.3.5.1 1.1.3 1.6.4-.1-1.2-.1-3.6 0-7.3-2.8-.6-6-1.3-9.3-2.2zm135.1-321c-2.3-2.7-5.4-4.4-9-5.5-3.4-1-7-1.5-10.9-1.5-3.3 0-6.7.2-10.1.7-3.5.5-7.5 1.3-11.9 2.4-1.8.4-3.1 1.9-3.3 3.7-.3 2-.5 3.5-.6 4.6-.1.8-.4 2.4-.8 4.8-.3 1.6.3 3.3 1.6 4.3s3 1.3 4.5.6c6.6-2.8 12.3-4.1 17.3-4.1 1.2 0 2.2.1 3 .4.6.2.8.3 1 .6 0 .1 0 0 .1.4v.3s-.1.2-.3.4c-.2.2-.4.4-.8.5-.5.2-1.3.5-2.5.9-1.2.3-2.3.6-3.4.9-4.7 1.1-8.4 2.1-11.5 3.3-3 1.1-5.4 2.3-7.4 3.8-1.7 1.3-3.2 2.7-4.4 4.2-1.2 1.6-2.2 3.4-2.8 5.3-.6 1.8-.9 3.8-.9 5.7 0 3.3.8 6.5 2.3 9.5 1.6 3.4 4.4 6.1 7.9 7.6 3.3 1.5 7.2 2.1 11.6 2.1 1.3 0 2.6-.1 4.1-.2 1.6-.1 3.5-.4 5.8-.8 1-.2 1.8-.7 2.4-1.3.8.7 1.9 1.1 3.1 1.1 2.6-.1 4.8-.1 6.7-.1 2 0 4.1 0 6.5.1 1.2 0 2.4-.4 3.2-1.3.9-.8 1.4-2 1.4-3.2.1-8.3.4-16.4.9-24.2.5-7.9.8-12.7.8-15-.1-4.1-1.1-8-3.6-11zm-19.5 35.8c0 .5-.1 1.1-.1 1.6-.6 0-1.2 0-1.8.2-1.7.6-3.1 1-3.6 1-1 .2-1.8.2-2.6.2-1.2 0-2.1-.2-2.7-.4-.3-.1-.5-.2-.8-.6-.2-.2-.2-.4-.3-1 0-.4.1-.6.1-.8v-.1c0-.1.1-.3.5-.7.3-.3.8-.7 1.5-1.1.7-.4 1.5-.8 2.6-1.2 1-.4 2.6-.9 4.5-1.4 1.2-.3 2.1-.6 2.9-.9l-.2 5.2zm122-35.8c-2.3-2.7-5.4-4.4-8.9-5.5-3.4-1-7-1.5-10.9-1.5-3.3 0-6.7.2-10.1.7-3.5.5-7.5 1.3-11.9 2.4-1.8.4-3.1 1.9-3.3 3.7-.3 2-.5 3.5-.6 4.6-.1.8-.4 2.4-.8 4.8-.3 1.6.3 3.3 1.6 4.3s3 1.3 4.5.6c6.6-2.8 12.3-4.1 17.3-4.1 1.2 0 2.2.1 3 .4.6.2.8.3 1 .6 0 .1 0 0 .1.4v.3s-.1.2-.3.4c-.2.2-.4.4-.7.5-.5.2-1.3.5-2.5.9-1.2.3-2.3.6-3.4.9-4.7 1.1-8.4 2.1-11.5 3.3-3 1.1-5.4 2.3-7.4 3.8-1.7 1.3-3.2 2.7-4.4 4.2-1.2 1.6-2.2 3.4-2.8 5.3-.4 1.2-.7 2.5-.8 3.8-1.2-.8-2.7-1-4.1-.5-2.1.8-4 1.4-5.7 1.7-1.9.4-3.3.5-4.4.5-2.2 0-4-.5-5.6-1.3-1.5-.9-2.3-1.8-2.9-3.2-.7-1.7-1.1-3.9-1.1-6.7 0-1.9.2-3.7.7-5.6.4-1.6 1.1-2.9 2.1-4.1 1-1.2 1.9-1.9 3.2-2.4 1.4-.6 2.8-.8 4.4-.8 2.8 0 6.4.7 10.8 2.3 1.4.5 3 .3 4.2-.6 1.2-.9 1.9-2.4 1.8-3.9l-.7-11.1c-.1-1.9-1.5-3.6-3.3-4.1-3.1-.8-5.9-1.4-8.3-1.6-2.3-.3-4.6-.4-6.9-.4-4.1 0-7.9.5-11.4 1.5-3.8 1.1-7.2 3.3-10.1 6.2-3 3-5.2 6.9-6.7 11.3-1.4 4.4-2.1 8.9-2.1 13.6 0 3.6.4 7.1 1.3 10.4.9 3.5 2.2 6.6 4.2 9.2 1.8 2.5 4.1 4.7 6.6 6.3 2.5 1.6 5.2 2.7 8.1 3.3 2.7.6 5.4.9 8.3.9 4.8 0 9.6-.6 14.4-1.8 1.8-.4 3.1-1.9 3.4-3.8.3-2.5.7-4.7 1-6.3.3.8.6 1.5 1 2.2 1.6 3.4 4.4 6.1 7.9 7.6 3.3 1.5 7.2 2.1 11.6 2.1 1.3 0 2.6-.1 4.1-.2 1.6-.1 3.5-.4 5.8-.8 1-.2 1.8-.7 2.4-1.3.8.7 1.9 1.1 3.1 1.1 2.6-.1 4.8-.1 6.7-.1 2 0 4.1 0 6.5.1 1.2 0 2.4-.4 3.2-1.3.9-.8 1.4-2 1.4-3.2.1-8.3.4-16.4.9-24.2.5-7.9.8-12.7.8-15-.3-3.9-1.3-7.8-3.8-10.8zm-19.5 35.8c0 .5-.1 1.1-.1 1.6-.6 0-1.2 0-1.8.2-1.7.6-3.1 1-3.6 1-1 .2-1.8.2-2.6.2-1.2 0-2.1-.2-2.7-.4-.3-.1-.5-.2-.8-.6-.2-.2-.3-.4-.3-1 0-.4.1-.6.1-.8v-.1c0-.1.2-.3.5-.7.3-.3.8-.7 1.5-1.1.7-.4 1.5-.8 2.6-1.2 1-.4 2.6-.9 4.5-1.4 1.2-.3 2.1-.6 2.9-.9l-.2 5.2zm-136-22.4c.2-11.7.5-22.4 1-32.1.1-1.2-.4-2.4-1.3-3.3-.9-.9-2.1-1.4-3.3-1.4-4.3.1-7.4.1-9.3.1-2.9 0-6.2 0-10-.1-2 0-3.8 1.3-4.4 3.2-.8 2.7-1.3 4.6-1.7 5.6-.3 1-.6 1.8-.9 2.5l-9.3 24.1-.1.2-1.4 4.2c-1.3-5.3-2.8-10.7-4.5-16.1-1.2-3.6-2.1-6.6-2.8-9.1-.7-2.5-1.2-4.3-1.4-5.3-.2-1-.6-2.9-1.1-5.6-.4-2.2-2.3-3.7-4.5-3.7-4.4.1-7.5.1-9.1.1-2 0-5.3 0-9.8-.1-2.4 0-4.4 1.8-4.6 4.2l-1.1 17.5-3.1 40-1.2 11.4c-.1 1.3.3 2.6 1.2 3.5.9 1 2.1 1.5 3.4 1.5 3-.1 5.1-.1 6-.1l6.1.1c1.2 0 2.3-.4 3.2-1.3.9-.8 1.3-2 1.4-3.2 0-3 .1-5.3.1-6.7l1.3-21.7 7.7 29.5c.5 2 2.4 3.4 4.4 3.4 3-.1 5.2-.1 6.6-.1 1.1 0 3.2 0 6.2.1 2 0 3.7-1.2 4.4-3l2-6 8.4-23.5-.5 19.5c-.1 2.2-.2 5-.4 8.4-.1 1.2.4 2.5 1.3 3.4.8.9 2 1.4 3.2 1.4h.1c2.7-.1 4.9-.1 6.4-.1 1.1 0 3.2 0 6.3.1 1.2 0 2.4-.4 3.3-1.3.9-.9 1.3-2 1.3-3.3-.1-4.2-.1-7.7-.1-10.4.3-6 .4-14.8.6-26.5zm214.6-5c-1.3-3.3-3.1-6.2-5.6-8.6-2.5-2.5-5.7-4.3-9.2-5.3-.9-.3-1.8-.5-2.8-.7l3.5-5.1c1-1.5 2.5-3.7 4.6-6.4 1-1.4 1.2-3.2.4-4.8-.8-1.5-2.4-2.5-4.1-2.4-3 .1-5.3.1-7 .1-2.1 0-4.4 0-7-.1-1.9-.1-3.6 1.1-4.3 2.9-.5 1.3-1 2.6-1.5 4-.5 1.5-.9 2.6-1.3 3.6l-1.7 4.7c-.5 1.4-.3 3 .5 4.2-.4.1-.8.2-1.1.3-3.8 1.3-7.3 3.4-10.2 6.4-3 3-5.2 6.8-6.7 11.2-1.5 4.4-2.3 8.9-2.3 13.5 0 4.2.7 8.3 2 12.2 1.4 4 3.6 7.6 6.6 10.4 3 2.8 6.6 4.9 10.5 5.9 3.7 1 7.8 1.5 12.3 1.5 2.6 0 5.1-.1 7.6-.4 2.6-.3 5.6-.9 9.1-1.7 1.8-.4 3.2-1.9 3.4-3.7.8-5.1 1.3-8.7 1.7-10.5.3-1.6-.2-3.2-1.4-4.3-1.2-1.1-2.9-1.4-4.4-.9-3.4 1.2-6.2 2-8.5 2.4-2.3.5-4.4.7-6.2.7-1.4 0-2.8-.2-4.3-.7-1.3-.4-2.3-1-3.2-1.9-.9-.9-1.6-1.9-2.1-3.1-.4-1-.6-2-.7-3.1h30.3c2.2 0 4-1.6 4.4-3.7.3-1.9.5-3.8.5-5.7.1-3.9-.5-7.6-1.8-10.9zm-31.3 5.4c.4-.6.9-1.2 1.6-1.7.7-.5 1.4-.9 2.1-1.2.8-.3 1.6-.4 2.4-.4.8 0 1.5.1 2.1.3.5.1 1 .4 1.3.6.3.2.6.5.9.8.3.4.5.8.7 1.4 0 .1.1.2.1.3l-11.2-.1z" fill="#164397"/><path d="M260.3 141.2c-3.3-1-6.8-1.4-10.5-1.4-3.2 0-6.6.2-10 .7-3.5.5-7.4 1.2-11.8 2.4-1.3.3-2.3 1.4-2.5 2.8-.3 2-.5 3.5-.6 4.6-.1.8-.4 2.5-.8 4.9-.2 1.2.2 2.5 1.2 3.2 1 .8 2.3 1 3.4.5 6.7-2.8 12.6-4.1 17.8-4.1 1.3 0 2.4.1 3.3.4.8.2 1.2.5 1.5.9.2.3.3.5.4 1.1 0 .2 0 .4-.1.6-.1.2-.3.5-.6.8-.3.3-.6.5-1.1.8-.5.2-1.4.6-2.6.9-1.2.4-2.4.7-3.5.9-4.6 1.1-8.4 2.1-11.3 3.2-2.9 1.1-5.3 2.3-7.1 3.6-1.7 1.3-3.1 2.6-4.2 4-1.2 1.5-2.1 3.2-2.6 4.9-.6 1.7-.9 3.5-.9 5.4 0 3.1.8 6.1 2.2 9 1.5 3.2 4.1 5.6 7.3 7.1 3.2 1.4 6.9 2 11.2 2 1.3 0 2.6-.1 4-.2 1.5-.1 3.4-.4 5.7-.8 1.2-.2 2.2-1.1 2.6-2.2.1.3.3.6.6.9.7.7 1.6 1.1 2.6 1.1 2.6-.1 4.8-.1 6.7-.1 2 0 4.2 0 6.5.1.9 0 1.8-.3 2.4-.9.6-.6 1-1.5 1-2.4.1-8.3.4-16.4.9-24.2.5-7.9.8-12.8.8-14.9 0-4-.9-7.6-3.3-10.3-2.3-2.6-5.2-4.3-8.6-5.3zm-9.1 40.3c0 1-.1 2-.2 2.9-.8-.3-1.7-.4-2.5-.1-1.8.6-3.2 1-3.9 1.1-1 .2-1.9.2-2.7.2-1.3 0-2.3-.2-3-.4-.5-.2-.9-.5-1.3-1-.3-.4-.5-.8-.5-1.6 0-.5.1-.9.2-1.2.1-.3.3-.7.7-1.1.4-.4 1-.9 1.7-1.3.8-.4 1.7-.9 2.7-1.3 1.1-.4 2.6-.9 4.6-1.5 2-.6 3.5-1.1 4.3-1.4h.1l-.2 6.7zm178.9-27.1c-1.2-3.2-3-5.9-5.3-8.2-2.4-2.4-5.4-4.1-8.8-5.1-1.5-.4-3-.8-4.6-1 .3-.2.6-.5.8-.8l3.9-5.7c1-1.5 2.6-3.7 4.7-6.5.8-1 .9-2.4.3-3.6-.6-1.1-1.8-1.9-3.1-1.8-3 .1-5.3.1-7 .1-2.1 0-4.5 0-7-.1-1.4 0-2.7.8-3.2 2.2-.5 1.3-1 2.6-1.5 4-.5 1.5-.9 2.7-1.3 3.7l-1.7 4.6c-.4 1.1-.2 2.2.4 3.2.4.5.9.9 1.5 1.2-1.1.2-2.2.5-3.2.9-3.6 1.2-6.9 3.3-9.7 6.1-2.8 2.9-5 6.5-6.5 10.8-1.5 4.2-2.2 8.6-2.2 13.2 0 4.1.6 8.1 1.9 11.8 1.3 3.9 3.5 7.2 6.3 10 2.9 2.7 6.3 4.6 10.1 5.7 3.6 1 7.6 1.4 12 1.4 2.5 0 5-.1 7.4-.4 2.5-.3 5.5-.8 9-1.6 1.4-.3 2.4-1.4 2.6-2.8.8-5.1 1.3-8.7 1.7-10.5.2-1.2-.2-2.4-1.1-3.2-.9-.8-2.2-1-3.3-.7-3.4 1.2-6.3 2-8.6 2.5-2.4.5-4.5.7-6.4.7-1.5 0-3-.2-4.7-.8-1.5-.5-2.6-1.2-3.7-2.1-1-1-1.8-2.1-2.3-3.6-.5-1.4-.8-2.9-.9-4.7h31.5c1.6 0 3-1.2 3.3-2.8.3-1.9.5-3.7.5-5.5.1-3.9-.5-7.4-1.8-10.6zm-31.1 4.4c.5-.7 1-1.4 1.8-2 .8-.6 1.6-1.1 2.4-1.4.9-.3 1.8-.5 2.8-.5.9 0 1.7.1 2.3.3.7.2 1.2.4 1.6.7.4.3.8.6 1.1 1.1.3.5.6 1 .9 1.7.2.7.4 1.3.4 1.8H398c.3-.5.6-1.1 1-1.7zm-83.6 22.1c-2.1.8-4.1 1.4-5.9 1.7-1.9.4-3.5.5-4.6.5-2.4 0-4.4-.5-6.1-1.5-1.7-1-2.7-2.1-3.3-3.8-.7-1.9-1.2-4.2-1.2-7.1 0-2 .3-3.9.8-5.9.5-1.8 1.2-3.2 2.3-4.5 1.1-1.3 2.2-2.1 3.6-2.7 1.5-.6 3.1-.9 4.8-.9 3 0 6.7.7 11.2 2.4 1.1.4 2.3.2 3.2-.5.9-.7 1.4-1.8 1.3-2.9l-.7-11.1c-.1-1.5-1.1-2.7-2.5-3-3.1-.8-5.8-1.3-8.2-1.6-2.3-.3-4.6-.4-6.7-.4-4 0-7.7.5-11 1.5-3.6 1-6.9 3.1-9.7 5.9-2.9 2.9-5 6.6-6.4 10.9-1.4 4.2-2.1 8.7-2.1 13.3 0 3.5.4 6.9 1.3 10.2.9 3.3 2.2 6.3 4 8.9 1.8 2.4 3.9 4.5 6.3 6s5 2.6 7.7 3.2c2.6.6 5.3.8 8.1.8 4.7 0 9.4-.6 14.2-1.8 1.3-.3 2.3-1.5 2.5-2.8.3-2.6.7-4.7 1-6.4.3-1.8.6-3.5.7-4.9.1-1.2-.3-2.3-1.3-3.1-1-.6-2.2-.8-3.3-.4zm-102.3-57.5c-4.3.1-7.4.1-9.3.1-2.9 0-6.2 0-10-.1-1.5 0-2.9 1-3.3 2.4-.8 2.7-1.4 4.6-1.7 5.7-.3.9-.6 1.8-.9 2.6l-9.2 24.1v.1l-2.7 7.8-.8-3.4c-1.3-5.4-2.9-10.8-4.5-16.4-1.2-3.6-2.1-6.6-2.8-9.2-.7-2.5-1.2-4.3-1.4-5.3-.2-1-.6-3-1.1-5.7-.3-1.6-1.7-2.8-3.4-2.8-4.4.1-7.5.1-9.1.1-2.1 0-5.3 0-9.9-.1-1.8 0-3.3 1.4-3.4 3.2l-1.1 17.5-3.1 40.1-1.2 11.4c-.1 1 .2 1.9.9 2.6.7.7 1.6 1.1 2.6 1.1 3.1-.1 5.2-.1 6.1-.1l6.1.1c.9 0 1.8-.3 2.4-1 .6-.6 1-1.5 1-2.4 0-3 .1-5.3.1-6.8l1.7-28.4c.7 2.4 1.2 4 1.4 4.8l8.2 31.2c.4 1.5 1.8 2.5 3.3 2.5 3-.1 5.2-.1 6.6-.1 1.1 0 3.2 0 6.2.1 1.5 0 2.8-.9 3.3-2.3l2-6 10.7-30.2-.7 26.6c-.1 2.2-.2 5-.4 8.4-.1.9.3 1.9.9 2.5.6.7 1.5 1 2.4 1h.1c2.7-.1 4.9-.1 6.5-.1 1.1 0 3.2 0 6.3.1.9 0 1.8-.3 2.4-1 .6-.6 1-1.5 1-2.4-.1-4.2-.1-7.7-.1-10.5 0-5.8.1-14.5.3-26.3.2-11.7.6-22.4 1-32.1 0-.9-.3-1.8-.9-2.5-.7-.6-1.6-1-2.5-.9zm149.7 17.8c-3.3-1-6.8-1.4-10.5-1.4-3.2 0-6.6.2-10 .7-3.5.5-7.4 1.2-11.8 2.4-1.3.3-2.3 1.4-2.5 2.8-.3 2-.5 3.5-.6 4.6-.1.8-.4 2.5-.8 4.9-.2 1.2.2 2.5 1.2 3.2 1 .8 2.3 1 3.4.5 6.7-2.8 12.6-4.1 17.8-4.1 1.3 0 2.4.1 3.3.4.8.2 1.2.5 1.5.9.2.3.3.5.4 1.1 0 .2 0 .4-.1.6v.1c-.1.2-.2.4-.5.8-.3.3-.6.5-1.1.8-.5.2-1.4.6-2.6.9-1.2.4-2.4.7-3.5.9-4.6 1.1-8.4 2.1-11.3 3.2-2.9 1.1-5.3 2.3-7.1 3.6-1.7 1.3-3.1 2.6-4.2 4-1.2 1.5-2 3.2-2.6 4.9-.6 1.7-.9 3.5-.9 5.4 0 3.1.8 6.1 2.2 9 1.5 3.2 4.1 5.6 7.3 7.1 3.2 1.4 6.9 2 11.2 2 1.2 0 2.6-.1 4-.2 1.5-.1 3.4-.4 5.7-.8 1.2-.2 2.2-1.1 2.6-2.2.1.3.3.6.6.9.7.7 1.6 1.1 2.6 1.1 2.6-.1 4.8-.1 6.7-.1 2 0 4.2 0 6.5.1.9 0 1.8-.3 2.4-.9.6-.6 1-1.5 1-2.4.1-8.3.4-16.4.9-24.2.5-7.9.8-12.8.8-14.9 0-4-.9-7.6-3.3-10.3-2.4-2.7-5.3-4.4-8.7-5.4zm-9.1 40.3c0 1-.1 2-.2 2.9-.8-.3-1.7-.4-2.5-.1-1.8.6-3.2 1-3.9 1.1-1 .2-1.9.2-2.7.2-1.3 0-2.3-.2-3-.4-.5-.2-.9-.5-1.3-1-.3-.4-.5-.8-.5-1.6 0-.5.1-.9.2-1.2.1-.3.3-.7.7-1.1.4-.4 1-.9 1.7-1.3.8-.4 1.7-.9 2.8-1.3 1.1-.4 2.6-.9 4.6-1.5 2-.6 3.5-1.1 4.3-1.4h.1l-.3 6.7z" fill="#FFF"/><path d="M361.9 144.4c-2.9-.9-6.1-1.3-9.6-1.3-3.1 0-6.2.2-9.5.7-3.3.4-7.1 1.2-11.4 2.3-.3 2-.5 3.5-.6 4.5-.1 1-.4 2.7-.8 5.1 7-2.9 13.3-4.4 19.1-4.4 1.6 0 3 .2 4.2.5 1.3.3 2.3 1 3.1 1.9.8.9 1.2 2 1.2 3.3 0 .7-.1 1.3-.4 2-.3.6-.7 1.3-1.2 1.8s-1.2 1.1-2 1.5c-.8.4-1.8.7-3.1 1.1-1.3.4-2.5.7-3.7 1-4.5 1-8.2 2.1-10.9 3.1-2.8 1-4.9 2.1-6.3 3.2-1.5 1.1-2.6 2.2-3.6 3.4-.9 1.2-1.6 2.5-2.1 3.9s-.7 2.8-.7 4.3c0 2.5.6 5 1.8 7.5 1.2 2.5 3.1 4.3 5.7 5.5 2.6 1.2 5.8 1.7 9.8 1.7 1.1 0 2.4-.1 3.7-.2 1.3-.1 3.1-.3 5.4-.8.9-3.8 1.7-6.7 2.3-8.6-1.9.7-3.4 1.1-4.5 1.3-1.1.2-2.2.3-3.2.3-1.6 0-3-.2-4.1-.6-1.2-.4-2.1-1.1-2.9-2.2-.8-1-1.2-2.2-1.2-3.7 0-.9.1-1.7.5-2.5.3-.8.8-1.5 1.4-2.2.7-.7 1.5-1.3 2.4-1.9 1-.6 2.1-1.1 3.3-1.5 1.2-.4 2.8-1 4.8-1.5 2-.6 3.4-1 4.2-1.3.8-.3 1.5-.6 2.1-.9.6-.3 1.6-.9 2.8-1.8l-.6 12.6c-.3 5.4-.6 10.1-1 14.2 2.6-.1 4.9-.1 6.8-.1 2 0 4.2 0 6.6.1.1-8.4.4-16.5.9-24.4.5-7.9.8-12.8.8-14.7 0-3.5-.8-6.3-2.5-8.2-1.9-1.8-4.1-3.1-7-4zm66.2 25.3c.3-1.7.5-3.3.5-4.9 0-3.4-.5-6.4-1.6-9.2-1.1-2.7-2.6-5.1-4.5-7.1-2-2-4.4-3.4-7.3-4.2-2.9-.9-6-1.3-9.2-1.3-3.4 0-6.7.5-9.8 1.5-3.1 1-5.9 2.8-8.4 5.3-2.4 2.5-4.4 5.7-5.7 9.6-1.4 3.9-2 7.9-2 12.1 0 3.7.6 7.3 1.7 10.7 1.2 3.4 3 6.3 5.5 8.6s5.3 4 8.6 4.8c3.3.9 7 1.3 11.1 1.3 2.4 0 4.7-.1 7.1-.4 2.3-.3 5.2-.8 8.6-1.6.8-5.2 1.3-8.7 1.7-10.7-3.5 1.2-6.5 2.1-9.1 2.6-2.5.5-4.9.8-7.1.8-1.9 0-3.8-.3-5.7-.9-1.9-.6-3.6-1.6-5-2.9-1.4-1.3-2.5-2.9-3.2-4.8-.7-1.9-1.1-4-1.1-6.2 0-.7 0-1.7.1-3l34.8-.1zm-33.4-9.7c.3-1 .8-2 1.4-3 .6-1.1 1.5-2 2.5-2.8 1-.8 2.2-1.5 3.4-1.9 1.3-.4 2.5-.7 3.9-.7 1.1 0 2.2.1 3.2.4 1 .3 1.9.7 2.6 1.2.8.5 1.4 1.1 2 1.9.6.8 1 1.6 1.4 2.6.3 1 .5 1.9.6 2.7.1.8.1 2 .1 3.6l-22.2-.1c.5-1.7.8-2.9 1.1-3.9zm-99.9-1.6c1.4-1.7 3-2.9 4.9-3.7 1.9-.8 3.9-1.2 6.1-1.2 3.5 0 7.6.9 12.3 2.6l-.7-11.1c-3-.8-5.5-1.3-7.7-1.5-2.2-.3-4.3-.4-6.3-.4-3.7 0-7.1.4-10.1 1.3s-5.8 2.6-8.2 5.1c-2.5 2.5-4.3 5.7-5.6 9.6-1.3 3.9-1.9 8-1.9 12.2 0 3.2.4 6.3 1.2 9.3.8 3 1.9 5.6 3.5 7.7 1.6 2.1 3.3 3.8 5.4 5.1 2 1.3 4.2 2.2 6.6 2.7 2.4.5 4.8.8 7.4.8 4.4 0 8.9-.6 13.4-1.7.3-2.6.7-4.8 1-6.5.3-1.8.5-3.3.7-4.7-2.3.9-4.4 1.5-6.5 1.9-2 .4-3.8.6-5.2.6-2.9 0-5.5-.6-7.8-1.9-2.3-1.3-3.9-3.1-4.8-5.4-.9-2.3-1.4-5.1-1.4-8.3 0-2.3.3-4.5.9-6.7.4-2.2 1.4-4.2 2.8-5.8zm-101.1-31.7c-.8 2.7-1.4 4.6-1.7 5.7-.3 1.1-.7 2-1 2.8l-9.3 24.1-6.3 18.6-3.6-14.5c-1.3-5.3-2.8-10.7-4.5-16.2-1.1-3.6-2.1-6.7-2.8-9.2-.7-2.5-1.2-4.4-1.5-5.5-.3-1.2-.6-3.1-1.1-5.8-4.4.1-7.5.1-9.2.1-2.1 0-5.4 0-9.9-.1l-1.1 17.5-3.1 40.2-1.2 11.4c3.1-.1 5.2-.1 6.2-.1l6.1.1c0-3 .1-5.3.1-6.9l1.8-31.4c.3-4.8.6-8.3.7-10.3l.6-6.5c.5 2.2.8 3.5.9 4.2.1.6.4 1.4.6 2.4l2.9 10.3c1.1 3.5 1.7 5.9 2 7l8.2 31.2c3-.1 5.3-.1 6.7-.1 1.1 0 3.2 0 6.3.1l2-6 17.5-49.2v4.1c0 4.1 0 8.3-.1 12.6l-.8 30.1c-.1 2.2-.2 5.1-.4 8.5 2.7-.1 4.9-.1 6.6-.1 1.1 0 3.3 0 6.4.1-.1-4.2-.1-7.7-.1-10.5 0-5.8.1-14.6.3-26.3.2-11.8.6-22.5 1-32.2-4.3.1-7.4.1-9.4.1-2.7-.2-6.1-.2-9.8-.3zm215.8 10.7l3.9-5.7c1.1-1.6 2.6-3.8 4.7-6.6-3 .1-5.3.1-7.1.1-2.2 0-4.5 0-7.1-.1-.5 1.2-1 2.6-1.5 4s-.9 2.6-1.3 3.6l-1.7 4.7c1.7-.1 3.3-.1 4.9-.1 1.8 0 3.6 0 5.2.1zm-150.1 7c-2.9-.9-6.1-1.3-9.6-1.3-3.1 0-6.2.2-9.5.7-3.3.4-7.1 1.2-11.4 2.3-.3 2-.5 3.5-.6 4.5-.1 1-.4 2.7-.8 5.1 7-2.9 13.3-4.4 19.1-4.4 1.6 0 3 .2 4.2.5 1.3.3 2.3 1 3.1 1.9.8.9 1.2 2 1.2 3.3 0 .7-.1 1.3-.4 2-.3.6-.7 1.3-1.2 1.8-.6.6-1.2 1.1-2 1.5-.8.4-1.8.7-3.1 1.1-1.3.4-2.5.7-3.7 1-4.5 1-8.2 2.1-10.9 3.1-2.8 1-4.9 2.1-6.3 3.2-1.5 1.1-2.6 2.2-3.6 3.4-.9 1.2-1.6 2.5-2.1 3.9s-.7 2.8-.7 4.3c0 2.5.6 5 1.8 7.5 1.2 2.5 3.1 4.3 5.7 5.5 2.6 1.2 5.8 1.7 9.8 1.7 1.1 0 2.4-.1 3.7-.2 1.3-.1 3.1-.3 5.4-.8.9-3.8 1.7-6.7 2.3-8.6-1.9.7-3.4 1.1-4.5 1.3-1.1.2-2.2.3-3.2.3-1.6 0-3-.2-4.1-.6-1.2-.4-2.1-1.1-2.9-2.2-.8-1-1.2-2.2-1.2-3.7 0-.9.1-1.7.5-2.5.3-.8.8-1.5 1.4-2.2.7-.7 1.5-1.3 2.4-1.9 1-.6 2.1-1.1 3.3-1.5 1.2-.4 2.8-1 4.8-1.5 2-.6 3.4-1 4.2-1.3.8-.3 1.5-.6 2.1-.9.6-.3 1.6-.9 2.8-1.8l-.6 12.6c-.3 5.4-.6 10.1-1 14.2 2.6-.1 4.9-.1 6.8-.1 2 0 4.2 0 6.6.1.1-8.4.4-16.5.9-24.4.5-7.9.8-12.8.8-14.7 0-3.5-.8-6.3-2.5-8.2-1.9-1.8-4.1-3.1-7-4zm140 238.8c.3-1.2.4-2.5.4-3.8 0-2.5-.4-4.9-1.4-7.1-1-2.2-2.3-4.1-4.1-5.7-1.9-1.7-4.2-2.8-6.6-3.4-2.3-.6-4.7-.9-7.2-.9-2.6 0-5.2.4-7.7 1.1-2.7.8-5.2 2.1-7.2 4l-.6.6-4.4-4.7h-3.3c0-.9.1-1.8.1-2.7l-5.5-4.6c-2.2.5-3.6.8-4.2.9l-3.7.7-3.7 4.2c0 .5-.1 1-.1 1.5h-.5l-.8.8-1.1-1.4c-1.1-.3-2.3-.4-3.5-.4-1.2 0-2.4.1-3.6.4-1.2.3-2.4.7-3.4 1.3-.2.1-.3.2-.5.3l-1.2-1.3c-1.7 0-3.1.1-4.1.1-.9 0-2.3 0-4.2-.1l-4.6 4.6c0 1.5.1 2.5.1 2.7v1.6c-1-1.7-2.2-3.2-3.7-4.5-2-1.8-4.5-3.1-7.2-3.9-2.6-.8-5.3-1.2-8.2-1.2-3.1 0-6.1.5-9 1.5-2.9 1-5.5 2.5-7.6 4.6-1.3 1.3-2.4 2.8-3.3 4.4-.8-1.8-2-3.5-3.4-5-2.1-2.1-4.7-3.6-7.7-4.4-2.8-.7-5.7-1.1-8.8-1.1-2.3 0-4.6.1-6.9.3-2.4.2-5.5.7-9.5 1.4l-2.6 3-3.4-3.7c-3.7-.6-7.1-1-10.2-1-2.8 0-5.3.3-7.6 1.1-2.5.8-4.7 2.3-6.3 4.5-1.4 1.9-2.2 4.3-2.2 6.7 0 1.4.3 2.7.8 4 .5 1.2 1.2 2.4 2 3.5.8 1 1.8 1.9 2.8 2.8.9.7 2.2 1.7 3.8 2.9-.3-.1-.7-.1-1.1-.2-1.1-.2-2.6-.7-4.5-1.4l-4.4 3.3-2.9-3-4.5.2-6.7.1c-2.4 0-4.3 0-5.5.1l.1-2.2c1.8 0 3.5-.1 4.9-.1.7 0 3.9 0 9.5.1l4.5-4.2c.1-2.4.3-4.5.4-6.2l-4.6-4.9c-4.7.1-8.1.2-10 .2h-3.9l.1-1.6h10.6c1.4 0 2.5 0 3.2.1l2.9.2 4.7-4.2.4-6.3-4.5-4.7h-15c-5.5 0-10.9 0-16-.1l-4.5 4.5v3.9l-.4 11.8-.6 12.9-.9 11.2 4.5 4.8h16.4c4.3 0 9.2 0 14.5.1l3.4-3.2 2.2 2.5c2.2.5 4.3.9 6.3 1.1 1.9.2 3.5.3 5 .3 2.8 0 5.5-.4 8-1.3s4.7-2.3 6.3-4.3c-.3 5.3-.6 9.8-1 13.5l4.5 4.9h8.9l4.5-4.5v-4.7l.2-4.8c.8.3 1.6.5 2.4.7 1.5.3 3.1.5 4.6.5 2.6 0 5.1-.5 7.4-1.4 2.5-1 4.6-2.6 6.4-4.7 1.1-1.3 2-2.7 2.7-4.2 1 1.9 2.4 3.7 4 5.1 2 1.8 4.5 3.1 7.2 4 2.6.8 5.4 1.2 8.2 1.2 3 0 6-.4 8.7-1.4 2.9-.9 5.4-2.4 7.5-4.5 1-1 1.9-2.1 2.6-3.2l-.2 3.6 4.6 4.8c1.8 0 3.3-.1 4.5-.1 1.3 0 2.7 0 4.2.1l4.6-4.7c-.1-1.3-.1-2.4-.1-3.3 0-2.3.1-4.7.2-7.1.1-2.4.3-4.1.4-4.7.2-1.1.4-1.7.5-2 .3-.6.6-1 .8-1.2.4-.3.6-.5 1-.6.3-.1.9-.2 1.6-.2.5 0 1.3.1 2.2.3l2.2-1.8 1 1.1-.5 7.8c-.1 2.4-.2 3.7-.2 4.2v1.3c0 1.4.2 2.8.6 4.2.5 1.7 1.6 3.3 2.9 4.5 1.4 1.2 3.2 2.1 5 2.5 1.6.4 3.3.5 5.1.5 1 0 2.1-.1 3.3-.2 1.3-.1 2.8-.4 4.6-.8l3.5-3.6c.1-.6.2-1.2.3-1.7.5.6 1.1 1.1 1.7 1.6 2.2 1.8 4.7 3.1 7.5 3.7 2.6.6 5.3.9 8.3.9 1.7 0 3.4-.1 5.1-.2 1.8-.2 3.8-.5 6.1-1l3.5-3.7c.5-3 .9-5 1.1-6l-5.3-5h3.5l4.5-3.8zm-166 .6c-.3-.6-.7-1.1-1.2-1.7-.9-1.1-1.9-2-3.1-2.9-.8-.6-1.7-1.3-2.8-2.1 1 .2 2.1.5 3.2.9l4.1-3c0 2.7-.1 5.7-.2 8.8zm24.7-1.8c0 1.3-.2 2.4-.7 3.5-.4 1-.9 1.5-1.3 1.8-.6.4-1.1.5-1.9.5-.5 0-.9-.1-1.5-.3-.5-.2-.8-.5-1.2-.9-.3-.4-.5-.8-.6-1.1-.2-.7-.3-1.5-.3-2.4 0-.5 0-1.5.1-2.8l.2-2.7c1.1-.2 2-.3 2.9-.3 1.1 0 1.8.2 2.5.5.4.2.7.5 1.2 1.2.3.6.6 1.5.6 3zm31.6-2.4c.4-.9.8-1.2 1.3-1.6.7-.4 1.4-.6 2.6-.6 1.2 0 1.8.2 2.3.5.6.4.8.6 1 1.1.3.7.5 1.6.5 2.7 0 1.5-.3 2.7-.7 3.8-.4.9-.8 1.3-1.3 1.7-.6.4-1.3.6-2.5.6-1.1 0-1.7-.2-2.2-.5-.6-.4-.8-.7-1.1-1.2-.3-.7-.5-1.6-.5-2.8-.1-1.4.2-2.6.6-3.7zm69.6 7.7l-.4-.4c-1.3.3-2.3.5-2.5.6h-.3v-.2c0-.7.1-4 .4-9.4h3c-.4 1.7-.6 3.5-.6 5.3.1 1.5.2 2.8.4 4.1zm26.5.6c-1.5.3-2.8.4-3.9.4-.8 0-1.6-.1-2.5-.4-.7-.2-1.2-.5-1.6-.8-.1-.1-.2-.2-.3-.2h12.7c-1.7.4-3.2.8-4.4 1z" fill="#164397"/><path d="M230.8 383.3c-.8-.9-1.7-1.8-2.8-2.7-1-.8-2.1-1.6-3.4-2.5-1.3-.9-2.1-1.5-2.5-1.8-.3-.2-.5-.4-.7-.6 0 0 0-.1-.1-.1.1 0 .2-.1.4-.1.6-.2 1.5-.3 2.5-.3 1.8 0 3.8.4 6 1.2.9.3 1.8.2 2.6-.3.7-.5 1.1-1.4 1.1-2.3l-.4-6.1c-.1-1.2-1-2.3-2.2-2.5-3.7-.6-6.9-1-9.9-1-2.6 0-5 .3-7.1 1-2.2.7-4.1 2-5.4 3.8-1.2 1.7-1.9 3.6-1.9 5.6 0 1.1.2 2.3.6 3.4.4 1 1 2.1 1.7 3 .7.9 1.6 1.7 2.6 2.5.9.7 2.2 1.7 3.8 2.9l1.7 1.2.1.1c.5.4.9.7 1.1.9.3.2.4.4.4.4.1.1.1.2.2.2 0 0 0 .1-.5.3-.5.2-1.2.3-2.2.3-1 0-2.1-.1-3.3-.4-1.2-.3-2.8-.8-4.8-1.5-.9-.3-1.9-.2-2.6.4-.7.6-1.1 1.5-1 2.4l.7 6.5c.1 1.1 1 2.1 2.1 2.3 2.1.5 4.1.8 6.1 1 1.8.2 3.4.3 4.8.3 2.6 0 5.1-.4 7.4-1.2 2.3-.8 4.2-2.1 5.5-3.8 1.3-1.6 2-3.7 2-5.7 0-1.2-.2-2.4-.7-3.6-.4-1.1-1.1-2.2-1.9-3.2zm165.9-10.2c-.9-1.9-2.1-3.7-3.7-5-1.7-1.4-3.7-2.4-5.9-3-2.1-.6-4.4-.8-6.7-.8-2.5 0-4.9.3-7.2 1-2.4.7-4.6 1.9-6.5 3.6-1.6 1.4-2.9 3.2-3.8 5.2v-.4c0-1 .1-2.9.2-5.5 0-.7-.2-1.5-.7-2-.5-.5-1.2-.8-2-.8h-5.2c0-1.5.1-3 .2-4.6 0-.8-.3-1.7-1-2.2-.6-.5-1.5-.8-2.3-.6-2.2.5-3.6.8-4.3.9l-3.7.7c-1.2.2-2.1 1.3-2.2 2.5-.1 1.2-.1 2.3-.2 3.2h-2.2c-.3 0-.6.1-.9.2-.4-.4-.8-.7-1.4-.8-1-.2-2.1-.4-3.1-.4-1.1 0-2.2.1-3.2.4-1.1.3-2.1.6-3 1.1-.1.1-.3.2-.4.2l-.2-.2c-.5-.5-1.2-.8-2-.8-1.7 0-3.1.1-4.1.1-.9 0-2.3 0-4.2-.1-.7 0-1.4.3-2 .8-.5.5-.8 1.2-.8 2 0 1.5.1 2.5.1 2.7 0 1.7 0 3.3-.1 5l-.2 8.1-.9 13.9c0 .8.2 1.5.7 2 .5.5 1.2.8 2 .8 1.8 0 3.3-.1 4.5-.1 1.3 0 2.7 0 4.3.1.7 0 1.5-.3 2-.8s.8-1.3.8-2c-.1-1.4-.1-2.5-.1-3.3 0-2.3.1-4.7.2-7.2.1-2.4.3-4.1.4-4.9.2-1.2.4-2 .6-2.4.4-.8.8-1.3 1.2-1.8.5-.5 1-.8 1.6-1 .6-.2 1.3-.3 2.3-.3.7 0 1.6.1 2.7.4.8.2 1.7 0 2.4-.5.2 0 .4.1.6.1h1.6l-.6 9.4c-.1 2.4-.2 3.7-.2 4.2v1.2c0 1.2.2 2.5.5 3.7.4 1.4 1.3 2.7 2.4 3.7 1.2 1 2.6 1.7 4.2 2.1 1.4.3 3 .5 4.7.5 1 0 2-.1 3.1-.2 1.2-.1 2.6-.4 4.4-.7 1.1-.2 1.9-1.1 2.1-2.1.5-2.9.9-4.9 1.2-5.9.9 1.8 2.2 3.4 3.8 4.8 1.9 1.6 4.2 2.8 6.8 3.4 2.4.6 5 .8 7.9.8 1.7 0 3.3-.1 4.9-.2 1.7-.2 3.6-.5 5.9-1 1.1-.2 1.9-1.1 2.1-2.2.5-3 .9-5 1.1-6.1.2-.9-.1-1.9-.8-2.6-.7-.7-1.7-.9-2.6-.6-2.2.7-4.1 1.2-5.6 1.4-1.5.3-2.9.4-4.2.4-1 0-1.9-.1-3-.4-.9-.3-1.7-.7-2.3-1.2-.6-.5-1-1.1-1.3-1.8-.2-.5-.4-1-.4-1.6h20.1c1.3 0 2.4-.9 2.6-2.1.2-1.1.4-2.3.4-3.4-.1-2.9-.5-5.1-1.4-7zm-34.4 2.3c-1 2.6-1.5 5.2-1.5 8 0 2 .3 3.9.8 5.8-.6-.4-1.4-.6-2.2-.4-1.4.3-2.3.5-2.7.6-.5.1-.9.1-1.3.1-.3 0-.6-.1-.8-.2-.1-.1-.2-.8-.2-1.8 0-.9.2-4.8.5-11.2h5.4c.7 0 1.4-.3 1.9-.8l.2-.2c-.1 0-.1 0-.1.1zm20.6-.4c.2.1.4.3.6.5.2.2.3.4.4.7h-7.6c.2-.3.5-.5.9-.8.5-.3.9-.6 1.5-.7.6-.2 1.2-.3 1.8-.3.6 0 1.1.1 1.5.2.4.1.7.3.9.4zm-71-.3c-.9-2.3-2.3-4.3-4.2-5.9-1.8-1.6-4-2.8-6.6-3.5-2.4-.8-5-1.1-7.6-1.1-2.9 0-5.7.5-8.4 1.4-2.7.9-5.1 2.3-6.9 4.2-1.8 1.8-3.2 3.9-4 6.2-.3.8-.5 1.5-.7 2.3-.2-1.1-.5-2.1-.8-3.1-.8-2.3-2-4.3-3.7-6.1-1.8-1.9-4.1-3.2-6.9-3.9-2.6-.7-5.4-1-8.4-1-2.2 0-4.5.1-6.7.3-2.3.2-5.4.7-9.3 1.3-1.3.2-2.2 1.3-2.2 2.6 0 5.4-.2 12.4-.6 21.1-.4 8.7-.9 15.7-1.4 21.1-.1.8.2 1.5.7 2.1.5.6 1.2.9 2 .9h9c.7 0 1.4-.3 1.9-.8s.8-1.2.8-1.9v-5l.3-7.4c.2.1.5.3.7.4 1.1.6 2.4 1 3.7 1.3 1.4.3 2.8.5 4.2.5 2.4 0 4.7-.4 6.7-1.3 2.2-.9 4.1-2.3 5.7-4.2 1.5-1.8 2.7-3.9 3.4-6.2l.6-2.2c.2 1.1.6 2.2 1 3.2.9 2.3 2.4 4.3 4.2 5.9 1.8 1.6 4 2.8 6.5 3.6 2.4.8 5 1.1 7.7 1.1 2.9 0 5.6-.4 8.2-1.3 2.6-.9 4.9-2.2 6.8-4.1 1.8-1.8 3.2-3.9 4.1-6.3.9-2.4 1.4-4.9 1.4-7.4.2-2.2-.3-4.5-1.2-6.8zm-62.9 5.4l.2-3.3c0-.2 0-.5.1-.8 1.7-.4 3.2-.6 4.6-.6 1.3 0 2.4.2 3.3.7.8.4 1.4 1 2 2 .5.9.8 2.2.8 3.9 0 1.5-.3 2.9-.8 4.2-.5 1.3-1.2 2-2 2.6-.9.6-1.7.8-2.8.8-.8 0-1.5-.2-2.2-.5-.7-.3-1.3-.8-1.8-1.4-.5-.6-.8-1.2-1-1.9-.2-.9-.3-1.8-.3-2.8-.2-.5-.2-1.5-.1-2.9zm41.1-3.6c1-.6 2.1-.9 3.5-.9s2.4.3 3.2.8c.9.5 1.3 1.1 1.7 1.9.4 1 .6 2.1.6 3.4 0 1.7-.3 3.1-.8 4.4-.5 1.2-1.2 2-2 2.5-.9.6-2 .9-3.4.9s-2.4-.3-3.2-.8c-.9-.6-1.4-1.2-1.8-2-.4-1-.6-2.1-.6-3.5 0-1.6.3-3 .8-4.3.5-1.2 1.1-1.9 2-2.4z" fill="#FFF"/><path d="M202 388.4l-4.5.2-6.7.1c-3.5 0-5.8.1-6.8.1h-.6l.3-5.7c2.5-.1 4.7-.1 6.6-.1.8 0 4 0 9.5.1 1.4 0 2.6-1.1 2.7-2.5.1-2.5.3-4.6.4-6.3.1-.8-.2-1.5-.7-2.1-.5-.6-1.3-.9-2-.9-4.7.1-8.1.2-10 .2h-5.8l.2-5.2h12.2c1.4 0 2.5 0 3.3.1l2.9.2c1.5.1 2.7-1.1 2.8-2.5l.4-6.3c0-.7-.2-1.5-.7-2-.5-.5-1.2-.8-2-.8h-15c-5.5 0-10.9 0-16-.1-.7 0-1.4.3-1.9.8s-.8 1.2-.8 1.9v3.9l-.4 11.8-.6 12.9-.9 11.2c-.1.7.2 1.5.7 2 .5.5 1.2.9 2 .9H187c4.3 0 9.2 0 14.6.1 1.4 0 2.6-1.1 2.7-2.6.1-2 .2-4.1.4-6.3.1-.8-.2-1.5-.7-2.1-.5-.8-1.3-1.1-2-1z" fill="#FFF"/><path d="M352.8 360.5c-2.2.5-3.7.8-4.4 1l-3.7.7c-.1 2.7-.3 4.7-.4 5.8h-4.7c-.1 2.6-.2 4.5-.3 5.7h4.5l-.7 12.2c-.1 2.3-.2 3.7-.2 4.2v1c0 1 .1 2 .4 2.9.3.9.8 1.7 1.6 2.4s1.8 1.2 3 1.5c1.2.3 2.6.4 4.1.4.9 0 1.8 0 2.8-.2 1-.1 2.4-.3 4.1-.7.5-2.9.9-4.9 1.2-6-1.4.4-2.4.6-3 .7-.6.1-1.1.1-1.6.1-.7 0-1.4-.1-2-.4-.6-.3-1.1-.8-1.3-1.4-.3-.7-.4-1.6-.4-2.8 0-1.3.2-5.9.7-13.8h7.9c0-1.1.1-3 .2-5.7h-7.9c-.1-2.5-.1-5 .1-7.6zm42.2 21.8c.2-1 .3-1.9.3-2.8 0-2-.3-3.7-1-5.3-.7-1.6-1.7-3-3-4.1-1.3-1.1-2.9-1.9-4.8-2.4s-3.9-.8-6-.8c-2.2 0-4.4.3-6.4.9-2 .6-3.9 1.6-5.5 3.1-1.6 1.4-2.9 3.3-3.7 5.6-.9 2.3-1.3 4.6-1.3 7 0 2.2.4 4.3 1.1 6.2.8 2 2 3.6 3.6 5s3.5 2.3 5.6 2.8c2.1.5 4.6.8 7.3.8 1.6 0 3.1-.1 4.6-.2 1.5-.2 3.4-.5 5.7-.9.5-3 .9-5.1 1.1-6.2-2.3.7-4.3 1.2-6 1.5-1.7.3-3.2.4-4.6.4-1.2 0-2.5-.2-3.7-.5-1.3-.4-2.3-.9-3.3-1.7-.9-.8-1.6-1.7-2.1-2.8-.5-1.1-.7-2.3-.7-3.6 0-.4 0-1 .1-1.7l22.7-.3zm-21.9-5.6c.2-.6.5-1.1.9-1.7.4-.6 1-1.2 1.7-1.7s1.4-.9 2.2-1.1c.8-.3 1.7-.4 2.5-.4s1.5.1 2.1.2c.7.2 1.2.4 1.7.7.5.3.9.7 1.3 1.1.4.4.7.9.9 1.5.2.6.3 1.1.4 1.5.1.5.1 1.1.1 2.1h-14.6c.4-.9.6-1.7.8-2.2zm-38.9-9.8c-.9 0-1.8.1-2.6.3-.8.2-1.6.5-2.3.9-.7.4-1.3.8-1.9 1.3-.6.5-1.2 1.3-2 2.4l.2-4.1c-1.7 0-3.1.1-4.2.1-.9 0-2.3 0-4.3-.1 0 1.6.1 2.5.1 2.8 0 1.7 0 3.4-.1 5l-.2 8.1-.9 14c1.8 0 3.3-.1 4.6-.1 1.3 0 2.8 0 4.3.1-.1-1.4-.1-2.5-.1-3.5 0-2.4.1-4.8.2-7.3s.3-4.2.4-5.2c.2-1.3.5-2.4.9-3.2.5-1 1.1-1.9 1.8-2.6.7-.7 1.6-1.2 2.5-1.6.9-.3 2-.5 3.2-.5 1 0 2.1.2 3.3.5-.2-2.8-.3-5.1-.3-6.9-.9-.3-1.8-.4-2.6-.4zm-145.5-9.5c-5.6 0-10.9 0-16-.1v4l-.4 11.8-.6 13-.9 11.2h16.4c4.3 0 9.2 0 14.6.1.1-2 .2-4.2.4-6.4l-4.5.2-6.7.1c-3.6 0-5.8.1-6.8.1h-3.4l.5-11c3.7-.1 6.7-.2 9.1-.2.8 0 4 0 9.5.1.1-2.5.3-4.6.4-6.4-4.7.1-8.1.2-10.1.2-2.9 0-5.8 0-8.6-.1l.5-10.4c1.9-.1 3.3-.1 4.3-.1h10.7c1.4 0 2.5.1 3.4.1l3 .2.4-6.3h-9l-6.2-.1zm32.4 15.5c.9-.2 2-.3 3.2-.3 2.2 0 4.5.5 6.9 1.4l-.4-6.1c-3.5-.6-6.7-.9-9.4-.9-2.4 0-4.5.3-6.2.9-1.8.6-3.1 1.5-4 2.8-.9 1.3-1.4 2.7-1.4 4.1 0 .8.1 1.6.5 2.4.3.8.7 1.5 1.3 2.3.6.7 1.3 1.4 2.1 2.1.8.7 2.1 1.6 3.7 2.8l1.7 1.3c.6.4 1 .8 1.3 1 .3.3.6.5.7.7.2.2.3.4.5.7.1.2.2.5.3.7.1.2.1.5.1.7 0 .6-.2 1.1-.6 1.6-.4.5-1 .9-1.8 1.2-.8.3-1.8.4-3 .4s-2.5-.2-3.9-.5-3.1-.9-5.2-1.6l.7 6.5c2 .5 3.9.8 5.7 1 1.8.2 3.3.3 4.5.3 2.4 0 4.5-.4 6.5-1.1 1.9-.7 3.4-1.7 4.3-2.9 1-1.3 1.4-2.6 1.4-4.1 0-.9-.2-1.7-.5-2.6-.3-.9-.8-1.7-1.4-2.4-.6-.8-1.4-1.5-2.4-2.2-1-.7-2.1-1.6-3.4-2.5-1.3-.9-2.1-1.5-2.5-1.9-.4-.3-.8-.6-1.1-1-.3-.4-.5-.7-.6-1-.1-.3-.2-.7-.2-1 0-.6.2-1.1.6-1.5.5-.8 1.1-1.1 2-1.3zm84.9-2c-1.5-1.3-3.4-2.3-5.6-3-2.2-.7-4.5-1-6.8-1-2.6 0-5.1.4-7.5 1.3-2.4.8-4.4 2-5.9 3.5s-2.7 3.3-3.4 5.2c-.7 2-1.1 4-1.1 6.2 0 2.1.4 4.1 1.2 6.1.8 1.9 2 3.6 3.5 4.9 1.5 1.3 3.4 2.4 5.6 3 2.2.7 4.5 1 6.9 1 2.6 0 5-.4 7.3-1.1 2.3-.8 4.2-1.9 5.7-3.4s2.7-3.3 3.5-5.4c.8-2.1 1.2-4.2 1.2-6.5 0-2.1-.4-4.1-1.1-6-.8-1.9-2-3.5-3.5-4.8zm-5.3 16.4c-.7 1.7-1.7 2.9-3.1 3.8-1.4.9-3 1.3-4.8 1.3-1.8 0-3.3-.4-4.6-1.2-1.3-.8-2.2-1.9-2.8-3.2-.6-1.3-.9-2.8-.9-4.6 0-1.9.3-3.7 1-5.4.7-1.6 1.8-2.9 3.2-3.7 1.4-.8 3-1.2 4.8-1.2 1.8 0 3.4.4 4.6 1.2 1.3.8 2.2 1.9 2.7 3.2.5 1.3.8 2.8.8 4.4.2 1.9-.2 3.7-.9 5.4zM267.1 371c-1.4-1.5-3.3-2.5-5.6-3.1-2.3-.6-4.9-.9-7.7-.9-2.1 0-4.3.1-6.4.3-2.2.2-5.2.7-9.2 1.3 0 5.4-.2 12.5-.6 21.2-.4 8.7-.9 15.8-1.4 21.2h9v-4.9l.5-12.8c.9.9 1.6 1.6 2.2 2.1.6.5 1.3.9 2.2 1.4.9.5 1.9.8 3.1 1.1 1.2.3 2.4.4 3.6.4 2.1 0 4-.4 5.7-1.1 1.8-.7 3.3-1.9 4.6-3.4 1.3-1.6 2.3-3.3 3-5.3.6-2 1-4 1-6.2 0-2.1-.3-4.1-1-6.1-.6-2.1-1.6-3.8-3-5.2zm-5.6 16.3c-.7 1.6-1.7 2.9-3 3.8-1.3.9-2.7 1.3-4.3 1.3-1.1 0-2.2-.2-3.3-.7-1.1-.5-2-1.2-2.8-2.1-.8-.9-1.3-1.9-1.5-3-.3-1.1-.4-2.2-.4-3.4 0-.7 0-1.7.1-3.1l.2-3.3c.1-.8.2-1.7.3-2.7 2.5-.8 4.9-1.2 7-1.2 1.7 0 3.1.3 4.5 1 1.3.6 2.3 1.7 3.1 3.1.8 1.4 1.2 3.2 1.2 5.2 0 1.7-.4 3.4-1.1 5.1z" fill="#164397"/><path fill="#FD0" d="M196.1 282.1L283 206l86.9 76.1-86.9 76"/><path d="M280.5 253.6c13.1-12.5 25.1-12.1 39-7L283 214.5l-25.5 22.4c9 .8 17.9 5.9 23 16.7z" fill="#164397"/><path d="M323.8 250.4l-9.5 4.9c-13.8 8-19-6.8-31.6 1l.1 1.3c11.9-.3 16.3 9.2 10.1 20.6-2.8-9.7-7.2-15.7-15.6-19.8l-.2-.1c-9.5.1-22.3-.7-21 17.1.5 9.1-16.5 16.3-15 2.4 2.5-13.7 9.1-24 30.1-22.1 1.5.1 2.8.4 3.8.8l.1-.3c-4.8-8.5-14.3-12.2-23.9-13.9L206 282l24.5 21.5c.8-.5 1.7-1 2.7-1.4 5-2.2 12.6-3.6 20.5-1.3 3.1.9 5.8 1.4 8.3 1.5 2.3 0 4.5-.3 6.7-1.1 1.4-.5 2.8-1 4.3-1.4-3.6-11.4-4-27.6.5-37.8 2.8-5.6 5.2-3.2 4.1 2-1.2 9.1-.7 23.8 5.8 35 2.6.3 5.4.9 8.3 2.1 2.9 1.1 5.6 1.8 8.2 1.9 2.6.1 5.3-.5 8.3-1.8h.1c1.3-.6 2.6-1 4.1-1.4 1.4-.3 2.9-.6 4.4-.8 6.7-.7 14.4.3 20.1 3l22.6-19.9-35.7-31.7zm-5.7 57.3c-1.1.1-2.2.3-3.3.6-1 .2-1.9.5-2.7.9-4.3 1.9-8.3 2.7-12.2 2.6-3.8-.1-7.4-1-11.2-2.5-3.4-1.3-6.4-1.7-9-1.6-2.7.1-5.2.9-7.7 1.8-3.3 1.2-6.5 1.8-10 1.7-3.3-.1-6.8-.7-10.6-1.8-5.2-1.5-10.1-.8-13.6.5l45.1 39.7 46.7-41c-3.5-1-7.7-1.3-11.5-.9zM293.3 62l10.3-11.9-15.5 3-5.1-14.9-5.1 14.9-15.5-3L272.7 62l-10.3 11.9 15.5-3 5.1 14.9 5.1-14.9 15.5 3" fill="#164397"/></svg>