<svg xmlns="http://www.w3.org/2000/svg" width="611.9" height="594.2" viewBox="-21.6 221.8 611.9 594.2"><path fill="#271674" d="M589.9 643.3c-9.8-20.8-24.4-32.2-44.2-32.2-1.9 0-3.9.1-5.8.3 11.8-7.5 16.8-17.1 16.8-28 0-3.7-.5-7.4-1.5-11.2-.1-.3-.3-.5-.5-.5-.3-.1-.5 0-.8.2-23.7 22.4-47.5 44.8-71.1 67.1-2.4 2.7-3.9 5.1-3.9 7.5 0 1.5.8 2.8 2.1 3.8 0 0 .1 0 .1.1.1.1.2.1.3.2.1.1.2.1.3.2l21.1 13.6c-4.1.5-8.8 1-13.8 1.3-10.3.6-20.5 1.8-30.7 2.7-3.7.3-6.1 1-8.1 2.3-2.5 1.6-3.9 3.8-3.9 6.1 0 1.5.6 2.9 1.8 4.1l.1.1h.1c.4.4.9.8 1.4 1.1 9.7 7.5 19.8 14.9 29.6 22.3-8.2 5.4-21.4 10.6-39.9 14.9-13.1 3-28.7 5.7-46.8 7.9C494.8 624 492 534.2 499 340.8c-69.6-22.3-114.4-56.2-130.1-118.9H199.7c-15.6 62.8-60.4 96.7-130.1 118.9 7 193.4 4.2 283.2 106.5 386.3-18.2-2.2-33.8-4.8-46.8-7.9-18.4-4.3-31.7-9.5-39.9-14.9 9.8-7.5 19.9-14.8 29.6-22.3.5-.3 1-.6 1.4-1.1h.1l.1-.1c1.2-1.2 1.7-2.6 1.8-4.1 0-2.3-1.4-4.4-3.9-6.1-2.1-1.3-4.4-1.9-8.1-2.3-10.3-.9-20.4-2.1-30.7-2.7-5.1-.3-9.7-.8-13.8-1.3 7-4.5 13.9-9.1 21-13.6.1-.1.2-.1.3-.2.1-.1.2-.1.3-.2h.1c1.3-1 2.1-2.4 2.1-3.8 0-2.4-1.5-4.8-3.9-7.4C62 616.7 38.3 594.3 14.5 572c-.2-.2-.5-.3-.8-.2-.3.1-.5.3-.5.5-1 3.9-1.5 7.7-1.5 11.2 0 10.9 4.9 20.5 16.8 28-1.9-.2-4-.3-5.8-.3-19.8 0-34.4 11.5-44.2 32.2-.1.3-.1.6.1.9.2.2.5.3.9.2 9.5-3.9 17.1-5.8 22.8-5.8 9.2.1 13.5 4.6 14.3 14.8 0 .8.1 1.6.1 2.5 0 4.5-.5 10.8-1.8 16.4-5.4 3.8-10.8 7.5-16.1 11.4-1.7 1.1-2.9 2.5-2.9 4.3.1 3.1 3.5 6.2 11.5 9.2 10.9 4.1 25.1 5.7 40 5.7h3v.1c-1.3 3.8-1.8 7.6-1.8 11.2.1 24.8 28 43.7 71.3 56.7 35 10.5 80.4 17 129.6 19.1 11 8.4 22.7 17 35.1 25.8 12.4-8.9 24.1-17.4 35.1-25.8 49.3-2.1 94.6-8.7 129.6-19.1 43.3-13 71.1-31.9 71.3-56.7 0-3.7-.6-7.4-1.8-11.2v-.1h3c15 0 29.1-1.6 40-5.7 8-3 11.4-5.9 11.5-9.2 0-1.8-1.3-3.2-2.9-4.3-5.4-3.9-10.8-7.6-16.2-11.4-1.2-5.5-1.8-11.8-1.8-16.4 0-.9 0-1.7.1-2.5.8-10.2 5.1-14.7 14.3-14.8 5.7 0 13.3 1.9 22.8 5.8.3.1.6 0 .9-.2-.5-.3-.4-.7-.6-1z"/><path fill="#FD0" d="M97 363.4c60.7-19.4 106.1-61.4 119.7-116h134.5c13.6 54.7 59 96.7 119.7 116-6.8 187.5-3 263.2-126.7 367.5 8.8-.4 17.2-1 25.2-1.7 112.3-103.5 109-186.7 115.9-377.6-65.3-20.9-110-57.2-124.7-116H207.4c-14.6 58.8-59.4 95.2-124.7 116 6.9 190.8 3.7 274.1 115.9 377.6 8 .6 16.3 1.2 25.2 1.7C100.1 626.6 103.9 550.9 97 363.4zm178.1 427.2c2.9 2.2 5.9 4.2 8.9 6.4 3-2.2 5.9-4.2 8.9-6.4H284c-3 .1-5.9 0-8.9 0z"/><path fill="#FFF" d="M471 363.4c-60.7-19.4-106.1-61.4-119.7-116H216.8c-13.6 54.7-59 96.7-119.7 116 6.8 187.5 3 263.2 126.7 367.5 18.3 1 38.3 1.5 60.1 1.5 21.8 0 41.8-.5 60.1-1.5 123.9-104.3 120.1-180 127-367.5z"/><path fill="#FD0" d="M17.9 653.3C17.4 642.7 12 637 2.2 637H2c-5.6 0-12.8 1.7-21.4 5.2C-9.7 623 4 612.8 22.4 612.8c3.1 0 6.4.3 9.7.9.4.1.8-.1.9-.5.1-.3 0-.8-.4-1-14.1-7.6-19.5-17.2-19.5-28.7 0-3 .4-6.2 1.1-9.5 23.4 22 46.7 44 70.2 66.2 2.2 2.5 3.5 4.8 3.4 6.3 0 .9-.3 1.6-1.3 2.4-4.4.9-8.8 1.7-12.9 1.7-2.3 0-4.4-.2-6.5-1-4-1.1-8-1.7-11.7-1.7-2.7 0-5.3.3-7.7 1.3-1.7.6-2.5 1.8-3.6 2.6l-.1.1c-9.2 6.5-18.4 12.8-27.7 19.1 1-5.2 1.5-10.8 1.5-15 .1-1 .1-1.9.1-2.7zm548.2-16.4c-9.8-.1-15.4 5.7-15.9 16.3 0 .8-.1 1.6-.1 2.6 0 4.2.5 9.8 1.5 15-9.3-6.4-18.5-12.7-27.7-19.1l-.1-.1c-1.1-.8-1.9-1.9-3.6-2.6-2.3-.9-4.9-1.3-7.7-1.3-3.7 0-7.7.6-11.7 1.7-2.1.6-4.3 1-6.5 1-4.1 0-8.4-.9-12.9-1.7-.9-.8-1.2-1.5-1.3-2.4 0-1.5 1.2-3.8 3.5-6.3l70.1-66.2c.8 3.2 1.1 6.5 1.1 9.5 0 11.5-5.4 21.2-19.5 28.7-.3.2-.5.6-.4 1 .1.3.5.6.9.5 3.4-.5 6.6-.9 9.7-.9 18.5 0 32.1 10.2 41.8 29.4-8.4-3.3-15.6-5.1-21.2-5.1z"/><path fill="#FD0" d="M7.4 695.7C-.5 692.8-3.1 689.8-3 688c0-1 .8-2.1 2.2-2.9l-.4-.6.4.6c15.4-11 31-21.4 46.5-32.3-.3 1-.5 1.9-.5 2.8 0 4.1 3.8 6.7 9.7 8.4 5.9 1.7 14.3 2.7 24.4 3.4 10.3.6 20.4 1.8 30.7 2.7 3.6.3 5.6 1 7.4 2.1 2.2 1.4 3.1 3.1 3.1 4.6 0 1.3-.6 2.7-2.3 3.7-1.6 1.1-4 1.8-7.5 1.8-.9 0-1.8 0-2.8-.1-5.6-1-13.2-2.5-19.2-2.5-3.2 0-5.9.4-8 1.6-9.3 6.3-19.4 13.6-28.8 20-1.7 0-3.5.1-5.2.1-14.7-.1-28.7-1.7-39.3-5.7zm553.2 0c-10.6 4-24.5 5.6-39.5 5.6-1.7 0-3.5 0-5.2-.1-9.4-6.4-19.4-13.7-28.7-20-2.1-1.3-4.8-1.6-8-1.6-6.1 0-13.5 1.5-19.2 2.5-1 .1-1.8.1-2.8.1-3.4 0-5.8-.8-7.5-1.8s-2.3-2.4-2.3-3.7c0-1.5 1-3.4 3.1-4.6 1.8-1.2 3.8-1.7 7.4-2.1 10.3-.9 20.4-2.1 30.7-2.7 10.1-.6 18.5-1.6 24.4-3.4 5.8-1.7 9.6-4.2 9.7-8.4 0-.9-.2-1.8-.5-2.8 15.5 11 31.1 21.3 46.5 32.3l.4-.6-.4.6c1.5.9 2.2 1.9 2.2 2.9.2 1.8-2.4 4.8-10.3 7.8z"/><path fill="#FD0" d="M448.4 769.3c-43 12.9-101.9 19.8-164.4 19.8-62.6 0-121.3-6.9-164.4-19.8-43.1-12.9-70.2-31.8-70.1-55.1 0-3.4.5-6.8 1.7-10.5 8.9-5.9 18.4-13 27.4-19-.9 1.8-1.3 3.7-1.3 5.5.2 11.9 17.3 22.5 51.4 30.6 34.2 8 85.7 13.3 155.4 13.3 69.6 0 121.2-5.3 155.4-13.3 34.1-8.1 51.1-18.7 51.4-30.6 0-1.8-.4-3.7-1.3-5.5 9 6.2 18.5 13.1 27.4 19 1.2 3.6 1.7 7 1.7 10.5-.2 23.3-27.2 42.2-70.3 55.1z"/><path fill="#271674" d="M394.5 735.1c-.1 0-.2 1.5-.3 4.5l-.3 4.9c-.1 1.7-.2 3.5-.4 5.4-.3 4.4-.6 7.2-.8 8.5-.1 1.2-.3 2.3-.5 3-.2.9-.4 1.5-.8 2.2-.2.5-.5 1-.9 1.3-.3.4-.8.8-1.2 1-.5.3-1.2.5-1.8.6-.8.1-1.5 0-2.2-.2-.8-.2-1.3-.6-1.6-1.3-.3-.6-.6-1.4-.8-2.4-.1-1-.2-2.2-.1-3.6 0-.8.2-2.2.3-4.1.1-1.9.2-4.1.4-6.4.1-2.1.3-4 .5-6.1.1-2.1.3-4 .4-6.1-1.8.2-3.2.4-4.3.5-.9.1-2.4.3-4.4.5l-.3 5.6-.3 5.6c-.1 2.3-.2 4.1-.3 5.3l-.3 4.5c-.2 1.7-.3 3-.3 4 0 .9-.1 1.6-.1 2.1 0 1.4 0 2.6.2 3.8.2 1 .4 1.8.8 2.6s.9 1.4 1.5 1.9c.8.6 1.7 1.2 2.7 1.6 1 .4 2.2.8 3.5.9 1.4.1 2.9.1 4.3-.1 1.7-.2 3.4-.6 5-1.3 1.6-.6 3.1-1.5 4.4-2.7 1.3-1.2 2.3-2.4 3-3.7.8-1.3 1.2-2.8 1.5-4.4.3-1.6.6-4.4.8-8.3 0-.2 0-.5.1-1 .2-3.4.5-6.7.9-10.1.2-3.4.5-6.7.8-10.2l-4.1.6c-1.3.6-2.9.8-5 1.1zm-35.7 34.4c.1-1.3.1-2.6.2-4 .1-2.7.3-5.4.4-8.1s.3-5.4.4-8.1l.3-5.2.3-5.2c-1.8.2-3.1.3-4.1.4-1.4.1-3 .3-4.9.4 0 1.6 0 3.5-.1 5.6 0 2.1-.1 4.4-.3 6.9-.1 2.6-.2 5.1-.4 7.7-.1 2.6-.2 5.2-.4 7.8-.1 1.4-.3 3-.4 4.9s-.2 3.9-.4 6.2c3.2-.3 6.9-.8 11.2-1.2 3.1-.3 6.6-.6 10.1-1 .1-2.9.3-5.7.5-8.7-1.7.3-4.4.6-7.9 1-.7.3-2.1.4-4.5.6zm-23.5-18.8c1.5-1.1 3-1.7 4.9-1.8.9-.1 1.7 0 2.7.1 1 .1 2.3.4 3.8.8-.1-1.1-.1-2.2-.1-3.2-.1-1.3-.1-2.4-.1-3.5v-2.4c-2.9-.5-5.4-.6-7.4-.5-2.2.1-4.3.8-6.4 1.6-2.1 1-3.9 2.4-5.6 4.3-1.6 1.9-3 4.2-3.9 7-1 2.8-1.3 5.8-1.4 9.3 0 2.9.2 5.5.9 7.9.6 2.3 1.7 4.3 3.2 6.1 1.5 1.7 3.2 2.9 5.1 3.5 1.9.6 3.9.9 6.1.8 2.3-.2 4.8-.6 7.6-1.4.1-1.1.2-2.7.5-4.6.2-2.1.5-3.6.6-4.8-1.6.8-3 1.3-4.2 1.5-1.1.3-2.2.4-3.1.5-1.7.1-3.1-.2-4.3-1s-2.2-1.8-2.8-3.4c-.8-1.5-1-3.4-1-5.5 0-2.4.4-4.5 1.3-6.6 1-2 2-3.5 3.6-4.7zm95-18.8c-.4-.5-1-1-1.7-1.3-.6-.3-1.5-.4-2.5-.4-.8 0-1.9.1-3.7.4-1.4.2-3.1.5-5.1 1-1.9.4-3.7.8-5.2 1-1.1.1-2.5.3-4.3.5 0 1.5-.1 2.7-.1 3.5 0 1.2 0 2.7-.1 4.8-.1 1.9-.2 4.4-.4 7.2s-.3 5.4-.5 7.6c-.1 2.3-.2 4.1-.4 5.7-.2 2.4-.4 5.6-.8 9.8l3.9-.6c1.7-.3 3.6-.5 5.3-.9 2.1-.3 4-.8 5.8-1.2 1.8-.4 3.1-.8 3.9-1.1.9-.3 1.7-.9 2.5-1.6.8-.6 1.5-1.4 2.1-2.4.6-1 1.1-2.2 1.5-3.5.4-1.3.5-2.7.6-4.1 0-1.1.1-1.9-.1-2.9-.2-.9-.4-1.6-.8-2.4-.3-.6-.8-1.2-1.2-1.6-.5-.4-.9-.6-1.3-.8-.4-.1-1-.2-1.7-.2.8-.4 1.3-.9 1.7-1.2.4-.3 1-.9 1.4-1.4s.9-1.3 1.3-2.1c.4-.9.8-1.7 1-2.7.2-1 .3-2.1.4-3 .1-1.4 0-2.6-.3-3.8-.2-.8-.7-1.7-1.2-2.3zm-7.7 26.8c-.2.6-.4 1.1-.8 1.5s-.8.8-1.4 1.1c-.5.2-1.2.5-2.3.6-1.3.2-2.6.4-3.8.6.2-2.7.3-5.4.5-8.1 1.4-.2 2.8-.5 4.2-.8.9-.2 1.6-.2 2.1-.2.4.1.8.2 1.1.4s.5.6.6 1.1.2 1 .1 1.6c0 .9-.1 1.5-.3 2.2zm.6-15.8c-.1.5-.3 1-.6 1.4s-.6.8-1 1c-.4.2-.8.4-1.2.5s-1.1.3-2.1.4c-1 .2-1.9.3-2.9.5.2-2.5.3-5.1.5-7.6 1.2-.2 2.4-.4 3.7-.6 1.1-.2 1.8-.2 2.4 0 .5.2 1 .5 1.1 1 .2.5.3 1.1.2 1.8.1.6.1 1.1-.1 1.6zM297.1 773v-3.9c0-2.6.2-5.3.2-8 0-2.6.2-5.3.3-8 0-1.7.1-3.4.2-5.1 0-1.7.1-3.4.3-5.1-1.8.1-3.1.1-4.1.1h-4.9c0 1.6 0 3.5-.1 5.5 0 2.1 0 4.3-.1 6.8 0 2.5-.1 5.1-.2 7.6l-.3 7.6c-.1 1.4-.2 3-.3 4.8-.1 1.8-.2 3.8-.4 5.9 3.2-.1 6.9-.1 11.2-.2 3.1 0 6.5 0 10.1-.1.1-2.8.3-5.7.4-8.5-1.7.2-4.4.3-8 .4-.5.2-2 .2-4.3.2zm152.3-47.1c-4.5.9-8.4 1.6-11.7 2.3v2.5l-.2 4c-.1 1.7-.2 4-.4 6.7s-.4 5.1-.6 7.2c-.2 2.2-.3 4.1-.5 5.6-.2 1.6-.3 3.5-.5 5.5-.2 2.1-.4 4.2-.6 6.7l2.9-.6c2.9-.6 5.8-1.4 8.9-2.1 3.9-.9 7.6-1.7 10.9-2.4.1-2.9.4-5.7.6-8.4-1.4.4-2.5.8-3.1.9-1.4.3-2.8.8-4.2 1.1-2.2.5-3.7.9-4.3 1.1-.8.2-1.5.3-2.3.5l.6-6.8c2.3-.6 4.4-1.2 6.3-1.5 1.3-.3 3.1-.6 5.4-1.1.3-3.2.6-6.1.9-8.4-3.4.9-5.4 1.3-6.2 1.5-2.2.4-4 .8-5.6 1.1.2-2.2.4-4.2.5-6.4 1.4-.3 2.6-.6 3.2-.8.6-.1 2.1-.4 4-.9 1.7-.3 4-.8 6.6-1.1 0-.6.1-1.3.1-1.9.1-1 .1-2.1.2-3 .1-1.4.2-2.2.2-2.4 0-.3 0-.6.1-.9-3.2.4-6.9 1.2-11.2 2zm-202.1 38.4c-.3-.8-.8-1.4-1.3-1.8-.5-.5-1-.9-1.4-1.1-.4-.2-1-.4-1.7-.6.8-.2 1.2-.5 1.6-.8.4-.2.9-.6 1.3-1.1s.8-1.1 1.1-1.8c.3-.8.6-1.5.8-2.5.1-1 .2-1.9.2-3 0-1.3-.2-2.6-.5-3.8-.3-1.1-.8-1.9-1.3-2.7-.4-.6-1.1-1.2-1.7-1.6s-1.5-.8-2.5-1c-.8-.1-1.8-.3-3.6-.3-1.4 0-3.1-.1-5.1-.1-1.9-.1-3.7-.1-5.1-.2-1.1-.1-2.5-.2-4.2-.4 0 1.4 0 2.6.1 3.4v18.6c0 2.2.1 4 0 5.5-.1 2.3-.1 5.4-.4 9.4l3.9.3c1.7.1 3.5.3 5.3.4 2.1.2 4 .3 5.8.3 1.8.1 3.1.1 3.8 0 .9-.1 1.7-.4 2.5-1s1.4-1.1 1.9-1.8c.5-.9 1.1-1.8 1.4-3.1.3-1.2.4-2.5.4-3.9 0-1-.1-1.9-.3-2.9-.2-.9-.6-1.6-1-2.4zm-15.2-15.1c1.2.1 2.5.2 3.7.2 1.1.1 1.8.2 2.4.5.5.3 1 .6 1.2 1.2.2.5.3 1.2.3 1.8 0 .4 0 1-.1 1.4-.1.4-.3.9-.5 1.3-.3.3-.6.6-1 .8-.3.1-.8.2-1.1.3h-2.1c-1-.1-1.9-.1-2.9-.2 0-2.5 0-4.9.1-7.3zm8 20.6c-.2.5-.4 1-.6 1.3-.3.3-.8.5-1.3.6-.5.1-1.2.1-2.3.1l-3.8-.3v-7.8l4.2.3c.9.1 1.6.1 2.1.3.4.2.8.4 1.1.8.3.3.5.8.6 1.2.1.4.2 1 .3 1.6-.1.7-.1 1.4-.3 1.9zm-74.7-25.7c0-3.1 0-6.3.2-9.3-1.4-.2-2.7-.4-4.1-.8-1.2-.2-2.8-.5-4.9-.9-.1 0-.1 1.4-.1 4.2 0 1.4 0 2.9.1 4.5v12.8s-.2 2.1-.3 2.7c-.1.8-.4 1.3-.6 1.7s-.4.8-.8 1c-.3.3-.8.4-1.2.5-.5.1-1.1.1-1.7 0-.8-.1-1.5-.4-2.3-.9s-1.3-1.1-1.7-1.7c-.4-.8-.8-1.5-1-2.5s-.4-2.1-.4-3.5c0-.6 0-1.9-.1-3.8-.1-1.8-.1-3.8-.1-5.9v-5.6c0-1.8 0-3.7.1-5.5-1.8-.3-3.2-.6-4.3-.9-.9-.2-2.4-.5-4.5-1-.1 1.7-.1 3.5 0 5.2 0 1.7 0 3.5.1 5.2.1 2.2.1 3.8.1 4.9v7.9s.1 1.5.1 1.9c.1 1.3.2 2.5.5 3.6.2 1 .6 1.9 1 2.7.4.8 1 1.6 1.7 2.4.8.9 1.7 1.7 2.8 2.5 1 .8 2.2 1.4 3.6 1.9s2.9 1 4.3 1.3c1.7.3 3.4.4 5 .4 1.6-.1 3-.4 4.3-1.1 1.2-.6 2.2-1.5 2.8-2.5.6-1 1.1-2.3 1.3-3.7.2-1.5.2-4 .1-7.7v-10zm28.4-5.4c-.9-.1-1.7-.1-2.6-.2l-4.9-.6-5.1-.6c-5.1-.6-9.6-1.3-13.4-1.9v8.1c2.8.4 5.7.8 8.6 1 .1 5.2.2 10.2.2 14.9 0 4.8 0 9.2-.2 13.5 2.5.3 4 .5 4.6.6.6.1 2.1.3 4.2.6v-8.8c0-1.8-.1-3.6-.2-5.5-.1-1.8 0-3.7 0-5.6v-8.7c.4.1.9.1 1.4.2 1.9.2 4.3.6 7.1 1.2v-5.6c.3-.9.3-1.8.3-2.6zm2.9.2v6.2c0 1.7.1 3.9.1 6.4v12.3s-.1 3.2-.1 5.2c0 1.9-.1 4-.3 6.3l2.8.3c2.9.3 5.8.6 8.9 1 3.9.4 7.5.9 10.7 1.3 0-2.8.1-5.6.2-8.2-1.5 0-2.4-.1-3-.1l-4.1-.3c-2.2-.2-3.6-.3-4.2-.3-.8-.1-1.5-.2-2.3-.2v-6.5c2.3.1 4.3.3 6.2.4 1.3.1 3 .3 5.3.6 0-3.1 0-5.9.1-8.2-3.2-.1-5.2-.3-5.9-.3-2.2-.2-4-.4-5.5-.6V748c1.4.1 2.5.1 3.1.2.8.1 2.1.2 4 .4 1.7.2 3.9.4 6.5.8v-4.8c0-1.4.1-2.2.1-2.4v-.9c-3.1-.2-6.8-.4-11-.9-4.5-.6-8.4-1.1-11.6-1.5zm83.4 8.7c-1.5-1.7-3.2-3-5.3-3.9-2.1-.9-4-1.3-6.2-1.3-3.4 0-6.5.8-9.2 2.5-2.6 1.6-4.6 4-5.9 6.9-.6 1.5-1.2 3.1-1.4 4.9-.2 1.7-.4 3.7-.4 5.6 0 2.7.4 5.2 1.2 7.6.6 2.3 1.8 4.3 3.4 6.3s3.4 3.4 5.4 4.2c2.1.9 4.2 1.4 6.5 1.4s4.4-.3 6.5-1.1c2.1-.9 3.9-2.1 5.4-3.9 1.5-1.8 2.7-4 3.5-6.6.8-2.6 1.2-5.5 1.2-8.7 0-3-.4-5.6-1.2-7.9-.8-2.3-2-4.2-3.5-6zm-5 20c-.6 1.8-1.5 3.2-2.8 4.3-1.2 1-2.6 1.5-4 1.5s-2.7-.5-4-1.4c-1.3-1-2.2-2.3-2.8-3.9-.6-1.6-1-3.5-1-5.4 0-2.2.2-4.1.9-5.9s1.6-3.2 2.8-4.3c1.2-1 2.6-1.5 4.1-1.5 1.5 0 2.8.5 3.9 1.4 1.2 1 2.1 2.3 2.7 3.9.6 1.7 1 3.6 1 5.5.1 2-.1 3.9-.8 5.8zm-151.7-41.4c-3.6-.9-7.4-1.9-11.5-3v2.9c0 1 .1 2.4.2 4.3s.2 4.3.3 7.1.2 5.4.3 7.6c.1 2.3.2 4.1.2 5.7 0 2.2 0 5.1-.2 8.7 2.8.6 4.4 1 4.8 1.1 1.5.3 2.9.8 4.3 1.1v-1.2c-.1-1.2-.1-2.4-.1-3.6 0-1.6-.1-3.2-.1-4.8 0-1.6-.2-3.1-.3-4.8 2.2.4 4 .9 5.8 1.3 1.1.2 2.7.6 4.9 1.3-.1-1.9-.2-4.5-.3-7.9-1.9-.3-3.4-.6-4.3-.9-1.1-.3-2.3-.5-3.4-.9-1-.3-2.1-.5-3-.8-.1-2.1-.1-4.1-.2-6.2 2.3.5 3.7.9 4.1 1 1.3.3 2.6.6 4 1 .4.1 1 .2 1.4.3.5.1 1 .2 1.4.3.5.1 1.2.3 1.7.4-.1-1.3-.1-3.9 0-7.9-2.9-.3-6.4-1.1-10-2.1zm146.1-347c-2.5-2.9-5.8-4.8-9.7-5.9-3.7-1.1-7.6-1.6-11.8-1.6-3.6 0-7.2.2-10.9.8-3.8.5-8.1 1.4-12.9 2.6-1.9.4-3.4 2.1-3.6 4-.3 2.2-.5 3.8-.6 5-.1.9-.4 2.6-.9 5.2-.3 1.7.3 3.6 1.7 4.6 1.4 1.1 3.2 1.4 4.9.6 7.1-3 13.3-4.4 18.7-4.4 1.3 0 2.4.1 3.2.4.6.2.9.3 1.1.6 0 .1 0 0 .1.4v.3s-.1.2-.3.4-.4.4-.9.5c-.5.2-1.4.5-2.7 1-1.3.3-2.5.6-3.7 1-5.1 1.2-9.1 2.3-12.4 3.6-3.2 1.2-5.8 2.5-8 4.1-1.8 1.4-3.5 2.9-4.8 4.5-1.3 1.7-2.4 3.7-3 5.7-.6 1.9-1 4.1-1 6.2 0 3.6.9 7 2.5 10.3 1.7 3.7 4.8 6.6 8.5 8.2 3.6 1.6 7.8 2.3 12.5 2.3 1.4 0 2.8-.1 4.4-.2 1.7-.1 3.8-.4 6.3-.9 1.1-.2 1.9-.8 2.6-1.4.9.8 2.1 1.2 3.4 1.2 2.8-.1 5.2-.1 7.2-.1 2.2 0 4.4 0 7 .1 1.3 0 2.6-.4 3.5-1.4 1-.9 1.5-2.2 1.5-3.5.1-9 .4-17.7 1-26.2.5-8.5.9-13.7.9-16.2 0-4.4-1.1-8.6-3.8-11.8zm-21.1 38.7c0 .5-.1 1.2-.1 1.7-.6 0-1.3 0-1.9.2-1.8.6-3.4 1.1-3.9 1.1-1.1.2-1.9.2-2.8.2-1.3 0-2.3-.2-2.9-.4-.3-.1-.5-.2-.9-.6-.2-.2-.2-.4-.3-1.1 0-.4.1-.6.1-.9v-.1c0-.1.1-.3.5-.8.3-.3.9-.8 1.6-1.2s1.6-.9 2.8-1.3c1.1-.4 2.8-1 4.9-1.5 1.3-.3 2.3-.6 3.1-1l-.2 5.7zm131.9-38.7c-2.5-2.9-5.8-4.8-9.6-5.9-3.7-1.1-7.6-1.6-11.8-1.6-3.6 0-7.2.2-10.9.8-3.8.5-8.1 1.4-12.9 2.6-1.9.4-3.4 2.1-3.6 4-.3 2.2-.5 3.8-.6 5-.1.9-.4 2.6-.9 5.2-.3 1.7.3 3.6 1.7 4.6 1.4 1.1 3.2 1.4 4.9.6 7.1-3 13.3-4.4 18.7-4.4 1.3 0 2.4.1 3.2.4.6.2.9.3 1.1.6 0 .1 0 0 .1.4v.3s-.1.2-.3.4c-.2.2-.4.4-.8.5-.5.2-1.4.5-2.7 1-1.3.3-2.5.6-3.7 1-5.1 1.2-9.1 2.3-12.4 3.6-3.2 1.2-5.8 2.5-8 4.1-1.8 1.4-3.5 2.9-4.8 4.5-1.3 1.7-2.4 3.7-3 5.7-.4 1.3-.8 2.7-.9 4.1-1.3-.9-2.9-1.1-4.4-.5-2.3.9-4.3 1.5-6.2 1.8-2.1.4-3.6.5-4.8.5-2.4 0-4.3-.5-6.1-1.4-1.6-1-2.5-1.9-3.1-3.5-.8-1.8-1.2-4.2-1.2-7.2 0-2.1.2-4 .8-6.1.4-1.7 1.2-3.1 2.3-4.4 1.1-1.3 2.1-2.1 3.5-2.6 1.5-.6 3-.9 4.8-.9 3 0 6.9.8 11.7 2.5 1.5.5 3.2.3 4.5-.6s2.1-2.6 1.9-4.2l-.8-12c-.1-2.1-1.6-3.9-3.6-4.4-3.4-.9-6.4-1.5-9-1.7-2.5-.3-5-.4-7.5-.4-4.4 0-8.5.5-12.3 1.6-4.1 1.2-7.8 3.6-10.9 6.7-3.2 3.2-5.6 7.5-7.2 12.2-1.5 4.8-2.3 9.6-2.3 14.7 0 3.9.4 7.7 1.4 11.2 1 3.8 2.4 7.1 4.5 9.9 1.9 2.7 4.4 5.1 7.1 6.8 2.7 1.7 5.6 2.9 8.8 3.6 2.9.6 5.8 1 9 1 5.2 0 10.4-.6 15.6-1.9 1.9-.4 3.4-2.1 3.7-4.1.3-2.7.8-5.1 1.1-6.8.3.9.6 1.6 1.1 2.4 1.7 3.7 4.8 6.6 8.5 8.2 3.6 1.6 7.8 2.3 12.5 2.3 1.4 0 2.8-.1 4.4-.2 1.7-.1 3.8-.4 6.3-.9 1.1-.2 1.9-.8 2.6-1.4.9.8 2.1 1.2 3.4 1.2 2.8-.1 5.2-.1 7.2-.1 2.2 0 4.4 0 7 .1 1.3 0 2.6-.4 3.5-1.4 1-.9 1.5-2.2 1.5-3.5.1-9 .4-17.7 1-26.2.5-8.5.9-13.7.9-16.2-.2-4.2-1.3-8.4-4-11.6zm-21 38.7c0 .5-.1 1.2-.1 1.7-.6 0-1.3 0-1.9.2-1.8.6-3.4 1.1-3.9 1.1-1.1.2-1.9.2-2.8.2-1.3 0-2.3-.2-2.9-.4-.3-.1-.5-.2-.9-.6-.2-.2-.3-.4-.3-1.1 0-.4.1-.6.1-.9v-.1c0-.1.2-.3.5-.8.3-.3.9-.8 1.6-1.2s1.6-.9 2.8-1.3c1.1-.4 2.8-1 4.9-1.5 1.3-.3 2.3-.6 3.1-1l-.2 5.7z"/><path fill="#271674" d="M212.2 393.7c.2-12.7.5-24.2 1.1-34.7.1-1.3-.4-2.6-1.4-3.6-1-1-2.3-1.5-3.6-1.5-4.6.1-8 .1-10.1.1-3.1 0-6.7 0-10.8-.1-2.2 0-4.1 1.4-4.8 3.5-.9 2.9-1.4 5-1.8 6.1-.3 1.1-.6 1.9-1 2.7l-10.1 26.1-.1.2-1.5 4.5c-1.4-5.7-3-11.6-4.9-17.4-1.3-3.9-2.3-7.1-3-9.8-.8-2.7-1.3-4.6-1.5-5.7-.2-1.1-.6-3.1-1.2-6.1-.4-2.4-2.5-4-4.9-4-4.8.1-8.1.1-9.8.1-2.2 0-5.7 0-10.6-.1-2.6 0-4.8 1.9-5 4.5l-1.2 18.9-3.4 43.3-1.3 12.3c-.1 1.4.3 2.8 1.3 3.8 1 1.1 2.3 1.6 3.7 1.6 3.2-.1 5.5-.1 6.5-.1l6.6.1c1.3 0 2.5-.4 3.5-1.4 1-.9 1.4-2.2 1.5-3.5 0-3.2.1-5.7.1-7.2l1.4-23.5 8.3 31.9c.5 2.2 2.6 3.7 4.8 3.7 3.2-.1 5.6-.1 7.1-.1 1.2 0 3.5 0 6.7.1 2.2 0 4-1.3 4.8-3.2l2.2-6.5 9.1-25.4-.5 21.1c-.1 2.4-.2 5.4-.4 9.1-.1 1.3.4 2.7 1.4 3.7.9 1 2.2 1.5 3.5 1.5h.1c2.9-.1 5.3-.1 6.9-.1 1.2 0 3.5 0 6.8.1 1.3 0 2.6-.4 3.6-1.4 1-1 1.4-2.2 1.4-3.6-.1-4.5-.1-8.3-.1-11.2.3-6.7.4-16.2.6-28.8zm232-5.5c-1.4-3.6-3.4-6.7-6.1-9.3-2.7-2.7-6.2-4.6-9.9-5.7-1-.3-1.9-.5-3-.8l3.8-5.5c1.1-1.6 2.7-4 5-6.9 1.1-1.5 1.3-3.5.4-5.2-.9-1.6-2.6-2.7-4.4-2.6-3.2.1-5.7.1-7.6.1-2.3 0-4.8 0-7.6-.1-2.1-.1-3.9 1.2-4.6 3.1-.5 1.4-1.1 2.8-1.6 4.3-.5 1.6-1 2.8-1.4 3.9l-1.8 5.1c-.5 1.5-.3 3.2.5 4.5-.4.1-.9.2-1.2.3-4.1 1.4-7.9 3.7-11 6.9-3.2 3.2-5.6 7.4-7.2 12.1-1.6 4.8-2.5 9.6-2.5 14.6 0 4.5.8 9 2.2 13.2 1.5 4.3 3.9 8.2 7.1 11.2 3.2 3 7.1 5.3 11.4 6.4 4 1.1 8.4 1.6 13.3 1.6 2.8 0 5.5-.1 8.2-.4 2.8-.3 6.1-1 9.8-1.8 1.9-.4 3.5-2.1 3.7-4 .9-5.5 1.4-9.4 1.8-11.4.3-1.7-.2-3.5-1.5-4.6-1.3-1.2-3.1-1.5-4.8-1-3.7 1.3-6.7 2.2-9.2 2.6-2.5.5-4.8.8-6.7.8-1.5 0-3-.2-4.6-.8-1.4-.4-2.5-1.1-3.5-2.1s-1.7-2.1-2.3-3.4c-.4-1.1-.6-2.2-.8-3.4h32.8c2.4 0 4.3-1.7 4.8-4 .3-2.1.5-4.1.5-6.2.1-3.9-.5-7.9-2-11.5zm-33.8 5.9c.4-.6 1-1.3 1.7-1.8s1.5-1 2.3-1.3c.9-.3 1.7-.4 2.6-.4.9 0 1.6.1 2.3.3.5.1 1.1.4 1.4.6s.6.5 1 .9c.3.4.5.9.8 1.5 0 .1.1.2.1.3l-12.2-.1z"/><path fill="#FFF" d="M259.5 374.4c-3.6-1.1-7.4-1.5-11.4-1.5-3.5 0-7.1.2-10.8.8-3.8.5-8 1.3-12.8 2.6-1.4.3-2.5 1.5-2.7 3-.3 2.2-.5 3.8-.6 5-.1.9-.4 2.7-.9 5.3-.2 1.3.2 2.7 1.3 3.5 1.1.9 2.5 1.1 3.7.5 7.2-3 13.6-4.4 19.2-4.4 1.4 0 2.6.1 3.6.4.9.2 1.3.5 1.6 1 .2.3.3.5.4 1.2 0 .2 0 .4-.1.6-.1.2-.3.5-.6.9-.3.3-.6.5-1.2.9-.5.2-1.5.6-2.8 1-1.3.4-2.6.8-3.8 1-5 1.2-9.1 2.3-12.2 3.5-3.1 1.2-5.7 2.5-7.7 3.9-1.8 1.4-3.4 2.8-4.5 4.3-1.3 1.6-2.3 3.5-2.8 5.3-.6 1.8-1 3.8-1 5.8 0 3.4.9 6.6 2.4 9.7 1.6 3.5 4.4 6.1 7.9 7.7 3.5 1.5 7.5 2.2 12.1 2.2 1.4 0 2.8-.1 4.3-.2 1.6-.1 3.7-.4 6.2-.9 1.3-.2 2.4-1.2 2.8-2.4.1.3.3.6.6 1 .8.8 1.7 1.2 2.8 1.2 2.8-.1 5.2-.1 7.2-.1 2.2 0 4.5 0 7 .1 1 0 1.9-.3 2.6-1 .6-.6 1.1-1.6 1.1-2.6.1-9 .4-17.7 1-26.2.5-8.5.9-13.8.9-16.1 0-4.3-1-8.2-3.6-11.1-2.4-3-5.6-4.8-9.2-5.9zm-9.9 43.6c0 1.1-.1 2.2-.2 3.1-.9-.3-1.8-.4-2.7-.1-1.9.6-3.5 1.1-4.2 1.2-1.1.2-2.1.2-2.9.2-1.4 0-2.5-.2-3.2-.4-.5-.2-1-.5-1.4-1.1-.3-.4-.5-.9-.5-1.7 0-.5.1-1 .2-1.3.1-.3.3-.8.8-1.2s1.1-1 1.8-1.4c.9-.4 1.8-1 2.9-1.4 1.2-.4 2.8-1 5-1.6 2.2-.6 3.8-1.2 4.6-1.5h.1l-.3 7.2zm193.5-29.3c-1.3-3.5-3.2-6.4-5.7-8.9-2.6-2.6-5.8-4.4-9.5-5.5-1.6-.4-3.2-.9-5-1.1.3-.2.6-.5.9-.9l4.2-6.2c1.1-1.6 2.8-4 5.1-7 .9-1.1 1-2.6.3-3.9-.6-1.2-1.9-2.1-3.4-1.9-3.2.1-5.7.1-7.6.1-2.3 0-4.9 0-7.6-.1-1.5 0-2.9.9-3.5 2.4-.5 1.4-1.1 2.8-1.6 4.3-.5 1.6-1 2.9-1.4 4l-1.8 5c-.4 1.2-.2 2.4.4 3.5.4.5 1 1 1.6 1.3-1.2.2-2.4.5-3.5 1-3.9 1.3-7.5 3.6-10.5 6.6-3 3.1-5.4 7-7 11.7-1.6 4.5-2.4 9.3-2.4 14.3 0 4.4.6 8.8 2.1 12.8 1.4 4.2 3.8 7.8 6.8 10.8 3.1 2.9 6.8 5 10.9 6.2 3.9 1.1 8.2 1.5 13 1.5 2.7 0 5.4-.1 8-.4 2.7-.3 5.9-.9 9.7-1.7 1.5-.3 2.6-1.5 2.8-3 .9-5.5 1.4-9.4 1.8-11.4.2-1.3-.2-2.6-1.2-3.5-1-.9-2.4-1.1-3.6-.8-3.7 1.3-6.8 2.2-9.3 2.7-2.6.5-4.9.8-6.9.8-1.6 0-3.2-.2-5.1-.9-1.6-.5-2.8-1.3-4-2.3-1.1-1.1-1.9-2.3-2.5-3.9-.5-1.5-.9-3.1-1-5.1h34.1c1.7 0 3.2-1.3 3.6-3 .3-2.1.5-4 .5-5.9.3-4.4-.3-8.2-1.7-11.6zm-33.7 4.7c.5-.8 1.1-1.5 1.9-2.2.9-.6 1.7-1.2 2.6-1.5 1-.3 1.9-.5 3-.5 1 0 1.8.1 2.5.3.8.2 1.3.4 1.7.8.4.3.9.6 1.2 1.2.3.5.6 1.1 1 1.8.2.8.4 1.4.4 1.9h-15.5c.5-.5.8-1.1 1.2-1.8zM319 417.3c-2.3.9-4.4 1.5-6.4 1.8-2.1.4-3.8.5-5 .5-2.6 0-4.8-.5-6.6-1.6-1.8-1.1-2.9-2.3-3.6-4.1-.8-2.1-1.3-4.5-1.3-7.7 0-2.2.3-4.2.9-6.4.5-1.9 1.3-3.5 2.5-4.9 1.2-1.4 2.4-2.3 3.9-2.9 1.6-.6 3.4-1 5.2-1 3.2 0 7.2.8 12.1 2.6 1.2.4 2.5.2 3.5-.5 1-.8 1.5-1.9 1.4-3.1l-.8-12c-.1-1.6-1.2-2.9-2.7-3.2-3.4-.9-6.3-1.4-8.9-1.7-2.5-.3-5-.4-7.2-.4-4.3 0-8.3.5-11.9 1.6-3.9 1.1-7.5 3.4-10.5 6.4-3.1 3.1-5.4 7.1-6.9 11.8-1.5 4.5-2.3 9.4-2.3 14.4 0 3.8.4 7.5 1.4 11 1 3.6 2.4 6.8 4.3 9.6 1.9 2.6 4.2 4.9 6.8 6.5 2.6 1.6 5.4 2.8 8.3 3.5 2.8.6 5.7.9 8.8.9 5.1 0 10.2-.6 15.4-1.9 1.4-.3 2.5-1.6 2.7-3 .3-2.8.8-5.1 1.1-6.9.3-1.9.6-3.8.8-5.3.1-1.3-.3-2.5-1.4-3.4-1.1-.8-2.4-1-3.6-.6zm-110.6-62.1c-4.6.1-8 .1-10.1.1-3.1 0-6.7 0-10.8-.1-1.6 0-3.1 1.1-3.6 2.6-.9 2.9-1.5 5-1.8 6.2-.3 1-.6 1.9-1 2.8l-9.9 26.1v.1l-2.9 8.4-.9-3.7c-1.4-5.8-3.1-11.7-4.9-17.7-1.3-3.9-2.3-7.1-3-9.9-.8-2.7-1.3-4.6-1.5-5.7s-.6-3.2-1.2-6.2c-.3-1.7-1.8-3-3.7-3-4.8.1-8.1.1-9.8.1-2.3 0-5.7 0-10.7-.1-1.9 0-3.6 1.5-3.7 3.5l-1.2 18.9-3.4 43.4-1.3 12.3c-.1 1.1.2 2.1 1 2.8.8.8 1.7 1.2 2.8 1.2 3.4-.1 5.6-.1 6.6-.1l6.6.1c1 0 1.9-.3 2.6-1.1.6-.6 1.1-1.6 1.1-2.6 0-3.2.1-5.7.1-7.4l1.8-30.7c.8 2.6 1.3 4.3 1.5 5.2l8.9 33.7c.4 1.6 1.9 2.7 3.6 2.7 3.2-.1 5.6-.1 7.1-.1 1.2 0 3.5 0 6.7.1 1.6 0 3-1 3.6-2.5l2.2-6.5 11.6-32.7-.8 28.8c-.1 2.4-.2 5.4-.4 9.1-.1 1 .3 2.1 1 2.7.6.8 1.6 1.1 2.6 1.1h.1c2.9-.1 5.3-.1 7-.1 1.2 0 3.5 0 6.8.1 1 0 1.9-.3 2.6-1.1.6-.6 1.1-1.6 1.1-2.6-.1-4.5-.1-8.3-.1-11.4 0-6.3.1-15.7.3-28.4.2-12.7.6-24.2 1.1-34.7 0-1-.3-1.9-1-2.7-.7-.7-1.7-1.2-2.7-1zm161.9 19.2c-3.6-1.1-7.4-1.5-11.4-1.5-3.5 0-7.1.2-10.8.8-3.8.5-8 1.3-12.8 2.6-1.4.3-2.5 1.5-2.7 3-.3 2.2-.5 3.8-.6 5-.1.9-.4 2.7-.9 5.3-.2 1.3.2 2.7 1.3 3.5 1.1.9 2.5 1.1 3.7.5 7.2-3 13.6-4.4 19.2-4.4 1.4 0 2.6.1 3.6.4.9.2 1.3.5 1.6 1 .2.3.3.5.4 1.2 0 .2 0 .4-.1.6v.1c-.1.2-.2.4-.5.9-.3.3-.6.5-1.2.9-.5.2-1.5.6-2.8 1-1.3.4-2.6.8-3.8 1-5 1.2-9.1 2.3-12.2 3.5s-5.7 2.5-7.7 3.9c-1.8 1.4-3.4 2.8-4.5 4.3-1.3 1.6-2.2 3.5-2.8 5.3-.6 1.8-1 3.8-1 5.8 0 3.4.9 6.6 2.4 9.7 1.6 3.5 4.4 6.1 7.9 7.7 3.5 1.5 7.5 2.2 12.1 2.2 1.3 0 2.8-.1 4.3-.2 1.6-.1 3.7-.4 6.2-.9 1.3-.2 2.4-1.2 2.8-2.4.1.3.3.6.6 1 .8.8 1.7 1.2 2.8 1.2 2.8-.1 5.2-.1 7.2-.1 2.2 0 4.5 0 7 .1 1 0 1.9-.3 2.6-1 .6-.6 1.1-1.6 1.1-2.6.1-9 .4-17.7 1-26.2.5-8.5.9-13.8.9-16.1 0-4.3-1-8.2-3.6-11.1-2.5-3.1-5.6-4.9-9.3-6zm-9.9 43.6c0 1.1-.1 2.2-.2 3.1-.9-.3-1.8-.4-2.7-.1-1.9.6-3.5 1.1-4.2 1.2-1.1.2-2.1.2-2.9.2-1.4 0-2.5-.2-3.2-.4-.5-.2-1-.5-1.4-1.1-.3-.4-.5-.9-.5-1.7 0-.5.1-1 .2-1.3.1-.3.3-.8.8-1.2s1.1-1 1.8-1.4c.9-.4 1.8-1 3-1.4 1.2-.4 2.8-1 5-1.6 2.2-.6 3.8-1.2 4.6-1.5h.1l-.4 7.2z"/><path fill="#271674" d="M369.3 377.9c-3.1-1-6.6-1.4-10.4-1.4-3.4 0-6.7.2-10.3.8-3.6.4-7.7 1.3-12.3 2.5-.3 2.2-.5 3.8-.6 4.9-.1 1.1-.4 2.9-.9 5.5 7.6-3.1 14.4-4.8 20.7-4.8 1.7 0 3.2.2 4.5.5 1.4.3 2.5 1.1 3.4 2.1.9 1 1.3 2.2 1.3 3.6 0 .8-.1 1.4-.4 2.2-.3.6-.8 1.4-1.3 1.9s-1.3 1.2-2.2 1.6-1.9.8-3.4 1.2c-1.4.4-2.7.8-4 1.1-4.9 1.1-8.9 2.3-11.8 3.4-3 1.1-5.3 2.3-6.8 3.5-1.6 1.2-2.8 2.4-3.9 3.7-1 1.3-1.7 2.7-2.3 4.2-.5 1.5-.8 3-.8 4.6 0 2.7.6 5.4 1.9 8.1 1.3 2.7 3.4 4.6 6.2 5.9 2.8 1.3 6.3 1.8 10.6 1.8 1.2 0 2.6-.1 4-.2s3.4-.3 5.8-.9c1-4.1 1.8-7.2 2.5-9.3-2.1.8-3.7 1.2-4.9 1.4s-2.4.3-3.5.3c-1.7 0-3.2-.2-4.4-.6-1.3-.4-2.3-1.2-3.1-2.4-.9-1.1-1.3-2.4-1.3-4 0-1 .1-1.8.5-2.7.3-.9.9-1.6 1.5-2.4.8-.8 1.6-1.4 2.6-2.1 1.1-.6 2.3-1.2 3.6-1.6 1.3-.4 3-1.1 5.2-1.6 2.2-.6 3.7-1.1 4.5-1.4.9-.3 1.6-.6 2.3-1 .6-.3 1.7-1 3-1.9l-.6 13.6c-.3 5.8-.6 10.9-1.1 15.4 2.8-.1 5.3-.1 7.4-.1 2.2 0 4.5 0 7.1.1.1-9.1.4-17.8 1-26.4.5-8.5.9-13.8.9-15.9 0-3.8-.9-6.8-2.7-8.9-2-2-4.4-3.4-7.5-4.3zm71.6 27.3c.3-1.8.5-3.6.5-5.3 0-3.7-.5-6.9-1.7-9.9-1.2-2.9-2.8-5.5-4.9-7.7-2.2-2.2-4.8-3.7-7.9-4.5-3.1-1-6.5-1.4-9.9-1.4-3.7 0-7.2.5-10.6 1.6-3.4 1.1-6.4 3-9.1 5.7-2.6 2.7-4.8 6.2-6.2 10.4-1.5 4.2-2.2 8.5-2.2 13.1 0 4 .6 7.9 1.8 11.6 1.3 3.7 3.2 6.8 5.9 9.3 2.7 2.5 5.7 4.3 9.3 5.2 3.6 1 7.6 1.4 12 1.4 2.6 0 5.1-.1 7.7-.4 2.5-.3 5.6-.9 9.3-1.7.9-5.6 1.4-9.4 1.8-11.6-3.8 1.3-7 2.3-9.8 2.8-2.7.5-5.3.9-7.7.9-2.1 0-4.1-.3-6.2-1-2.1-.6-3.9-1.7-5.4-3.1-1.5-1.4-2.7-3.1-3.5-5.2s-1.2-4.3-1.2-6.7c0-.8 0-1.8.1-3.2l37.9-.3zm-36.1-10.5c.3-1.1.9-2.2 1.5-3.2.6-1.2 1.6-2.2 2.7-3 1.1-.9 2.4-1.6 3.7-2.1 1.4-.4 2.7-.8 4.2-.8 1.2 0 2.4.1 3.5.4s2.1.8 2.8 1.3c.9.5 1.5 1.2 2.2 2.1.6.9 1.1 1.7 1.5 2.8.3 1.1.5 2.1.6 2.9.1.9.1 2.2.1 3.9l-24-.1c.5-1.8.9-3.1 1.2-4.2zm-108-1.7c1.5-1.8 3.2-3.1 5.3-4 2.1-.9 4.2-1.3 6.6-1.3 3.8 0 8.2 1 13.3 2.8l-.8-12c-3.2-.9-5.9-1.4-8.3-1.6-2.4-.3-4.6-.4-6.8-.4-4 0-7.7.4-10.9 1.4-3.2 1-6.3 2.8-8.9 5.5-2.7 2.7-4.6 6.2-6.1 10.4-1.4 4.2-2.1 8.7-2.1 13.2 0 3.5.4 6.8 1.3 10.1.9 3.2 2.1 6.1 3.8 8.3s3.6 4.1 5.8 5.5c2.2 1.4 4.5 2.4 7.1 2.9 2.6.5 5.2.9 8 .9 4.8 0 9.6-.6 14.5-1.8.3-2.8.8-5.2 1.1-7 .3-1.9.5-3.6.8-5.1-2.5 1-4.8 1.6-7 2.1-2.2.4-4.1.6-5.6.6-3.1 0-5.9-.6-8.4-2.1-2.5-1.4-4.2-3.4-5.2-5.8-1-2.5-1.5-5.5-1.5-9 0-2.5.3-4.9 1-7.2.4-2.5 1.4-4.7 3-6.4zm-109.4-34.3c-.9 2.9-1.5 5-1.8 6.2-.3 1.2-.8 2.2-1.1 3l-10 26.1-6.8 20.1-3.9-15.7c-1.4-5.7-3-11.6-4.9-17.5-1.2-3.9-2.3-7.2-3-9.9s-1.3-4.8-1.6-5.9c-.3-1.3-.6-3.4-1.2-6.3-4.8.1-8.1.1-9.9.1-2.3 0-5.8 0-10.7-.1l-1.2 18.9-3.4 43.5-1.3 12.3c3.4-.1 5.6-.1 6.7-.1l6.6.1c0-3.2.1-5.7.1-7.5l1.9-34c.3-5.2.6-9 .8-11.1l.6-7c.5 2.4.9 3.8 1 4.5.1.6.4 1.5.6 2.6l3.1 11.1c1.2 3.8 1.8 6.4 2.2 7.6l8.9 33.7c3.2-.1 5.7-.1 7.2-.1 1.2 0 3.5 0 6.8.1l2.2-6.5 18.9-53.2v4.4c0 4.4 0 9-.1 13.6l-.9 32.5c-.1 2.4-.2 5.5-.4 9.2 2.9-.1 5.3-.1 7.1-.1 1.2 0 3.6 0 6.9.1-.1-4.5-.1-8.3-.1-11.4 0-6.3.1-15.8.3-28.4.2-12.8.6-24.3 1.1-34.8-4.6.1-8 .1-10.2.1-2.8-.1-6.5-.1-10.5-.2zm233.4 11.6l4.2-6.2c1.2-1.7 2.8-4.1 5.1-7.1-3.2.1-5.7.1-7.7.1-2.4 0-4.9 0-7.7-.1-.5 1.3-1.1 2.8-1.6 4.3s-1 2.8-1.4 3.9l-1.8 5.1c1.8-.1 3.6-.1 5.3-.1 1.9 0 3.9 0 5.6.1zm-162.3 7.6c-3.1-1-6.6-1.4-10.4-1.4-3.4 0-6.7.2-10.3.8-3.6.4-7.7 1.3-12.3 2.5-.3 2.2-.5 3.8-.6 4.9-.1 1.1-.4 2.9-.9 5.5 7.6-3.1 14.4-4.8 20.7-4.8 1.7 0 3.2.2 4.5.5 1.4.3 2.5 1.1 3.4 2.1.9 1 1.3 2.2 1.3 3.6 0 .8-.1 1.4-.4 2.2-.3.6-.8 1.4-1.3 1.9-.6.6-1.3 1.2-2.2 1.6s-1.9.8-3.4 1.2-2.7.8-4 1.1c-4.9 1.1-8.9 2.3-11.8 3.4-3 1.1-5.3 2.3-6.8 3.5-1.6 1.2-2.8 2.4-3.9 3.7-1 1.3-1.7 2.7-2.3 4.2s-.8 3-.8 4.6c0 2.7.6 5.4 1.9 8.1 1.3 2.7 3.4 4.6 6.2 5.9 2.8 1.3 6.3 1.8 10.6 1.8 1.2 0 2.6-.1 4-.2s3.4-.3 5.8-.9c1-4.1 1.8-7.2 2.5-9.3-2.1.8-3.7 1.2-4.9 1.4-1.2.2-2.4.3-3.5.3-1.7 0-3.2-.2-4.4-.6-1.3-.4-2.3-1.2-3.1-2.4-.9-1.1-1.3-2.4-1.3-4 0-1 .1-1.8.5-2.7.3-.9.9-1.6 1.5-2.4.8-.8 1.6-1.4 2.6-2.1 1.1-.6 2.3-1.2 3.6-1.6 1.3-.4 3-1.1 5.2-1.6 2.2-.6 3.7-1.1 4.5-1.4.9-.3 1.6-.6 2.3-1s1.7-1 3-1.9l-.6 13.6c-.3 5.8-.6 10.9-1.1 15.4 2.8-.1 5.3-.1 7.4-.1 2.2 0 4.5 0 7.1.1.1-9.1.4-17.8 1-26.4s.9-13.8.9-15.9c0-3.8-.9-6.8-2.7-8.9-2-2-4.4-3.4-7.5-4.3zm151.4 258.2c.3-1.3.4-2.7.4-4.1 0-2.7-.4-5.3-1.5-7.7-1.1-2.4-2.5-4.4-4.4-6.2-2.1-1.8-4.5-3-7.1-3.7-2.5-.6-5.1-1-7.8-1-2.8 0-5.6.4-8.3 1.2-2.9.9-5.6 2.3-7.8 4.3l-.6.6-4.8-5.1h-3.6c0-1 .1-1.9.1-2.9l-5.9-5c-2.4.5-3.9.9-4.5 1l-4 .8-4 4.5c0 .5-.1 1.1-.1 1.6h-.5l-.9.9-1.2-1.5c-1.2-.3-2.5-.4-3.8-.4-1.3 0-2.6.1-3.9.4-1.3.3-2.6.8-3.7 1.4-.2.1-.3.2-.5.3l-1.3-1.4c-1.8 0-3.4.1-4.4.1-1 0-2.5 0-4.5-.1l-5 5c0 1.6.1 2.7.1 2.9v1.7c-1.1-1.8-2.4-3.5-4-4.9-2.2-1.9-4.9-3.4-7.8-4.2-2.8-.9-5.7-1.3-8.9-1.3-3.4 0-6.6.5-9.7 1.6-3.1 1.1-5.9 2.7-8.2 5-1.4 1.4-2.6 3-3.6 4.8-.9-1.9-2.2-3.8-3.7-5.4-2.3-2.3-5.1-3.9-8.3-4.8-3-.8-6.2-1.2-9.5-1.2-2.5 0-5 .1-7.5.3-2.6.2-5.9.8-10.3 1.5l-2.8 3.2-3.7-4c-4-.6-7.7-1.1-11-1.1-3 0-5.7.3-8.2 1.2-2.7.9-5.1 2.5-6.8 4.9-1.5 2.1-2.4 4.6-2.4 7.2 0 1.5.3 2.9.9 4.3.5 1.3 1.3 2.6 2.2 3.8.9 1.1 1.9 2.1 3 3 1 .8 2.4 1.8 4.1 3.1-.3-.1-.8-.1-1.2-.2-1.2-.2-2.8-.8-4.9-1.5l-4.8 3.6-3.1-3.2-4.9.2-7.3.4c-2.6 0-4.6 0-5.9.1l.1-2.4c1.9 0 3.8-.1 5.3-.1.8 0 4.2 0 10.3.1l4.9-4.5c.1-2.6.3-4.9.4-6.7l-5-5.3c-5.1.1-8.8.2-10.8.2h-4.2l.1-1.7h11.4c1.5 0 2.7 0 3.5.1l3.1.2 5.1-4.5.4-6.8-4.9-5.1h-16.2c-5.9 0-11.8 0-17.3-.1l-4.9 4.9v4.2l-.4 12.8-.6 13.9-1 12.1 4.9 5.2H180c4.6 0 9.9 0 15.7.1l3.7-3.5 2.4 2.7c2.4.5 4.6 1 6.8 1.2 2.1.2 3.8.3 5.4.3 3 0 5.9-.4 8.6-1.4 2.7-1 5.1-2.5 6.8-4.6-.3 5.7-.6 10.6-1.1 14.6l4.9 5.3h9.6l4.9-4.9v-5.1l.2-5.2c.9.3 1.7.5 2.6.8 1.6.3 3.4.5 5 .5 2.8 0 5.5-.5 8-1.5 2.7-1.1 5-2.8 6.9-5.1 1.2-1.4 2.2-2.9 2.9-4.5 1.1 2.1 2.6 4 4.3 5.5 2.2 1.9 4.9 3.4 7.8 4.3 2.8.9 5.8 1.3 8.9 1.3 3.2 0 6.5-.4 9.4-1.5 3.1-1 5.8-2.6 8.1-4.9 1.1-1.1 2.1-2.3 2.8-3.5l-.2 3.9 5 5.2c1.9 0 3.6-.1 4.9-.1 1.4 0 2.9 0 4.5.1l5-5.1c-.1-1.4-.1-2.6-.1-3.6 0-2.5.1-5.1.2-7.7.1-2.6.3-4.4.4-5.1.2-1.2.4-1.8.5-2.2.3-.6.6-1.1.9-1.3.4-.3.6-.5 1.1-.6.3-.1 1-.2 1.7-.2.5 0 1.4.1 2.4.3l2.4-1.9 1.1 1.2-.5 8.4c-.1 2.6-.2 4-.2 4.5v1.4c0 1.5.2 3 .6 4.5.5 1.8 1.7 3.6 3.1 4.9 1.5 1.3 3.5 2.3 5.4 2.7 1.7.4 3.6.5 5.5.5 1.1 0 2.3-.1 3.6-.2 1.4-.1 3-.4 5-.9l3.8-3.9c.1-.6.2-1.3.3-1.8.5.6 1.2 1.2 1.8 1.7 2.4 1.9 5.1 3.4 8.1 4 2.8.6 5.7 1 9 1 1.8 0 3.7-.1 5.5-.2 1.9-.2 4.1-.5 6.6-1.1l3.8-4c.5-3.2 1-5.4 1.2-6.5l-5.7-5.4h3.8l4.8-3.9zm-179.5.6c-.3-.6-.8-1.2-1.3-1.8-1-1.2-2.1-2.2-3.4-3.1-.9-.6-1.8-1.4-3-2.3 1.1.2 2.3.5 3.5 1l4.4-3.2c0 2.8-.1 6.1-.2 9.4zm26.7-1.9c0 1.4-.2 2.6-.8 3.8-.4 1.1-1 1.6-1.4 1.9-.6.4-1.2.5-2.1.5-.5 0-1-.1-1.6-.3-.5-.2-.9-.5-1.3-1-.3-.4-.5-.9-.6-1.2-.2-.8-.3-1.6-.3-2.6 0-.5 0-1.6.1-3l.2-2.9c1.2-.2 2.2-.3 3.1-.3 1.2 0 1.9.2 2.7.5.4.2.8.5 1.3 1.3.4.7.7 1.7.7 3.3zm34.1-2.6c.4-1 .9-1.3 1.4-1.7.8-.4 1.5-.6 2.8-.6 1.3 0 1.9.2 2.5.5.6.4.9.6 1.1 1.2.3.8.5 1.7.5 2.9 0 1.6-.3 2.9-.8 4.1-.4 1-.9 1.4-1.4 1.8-.6.4-1.4.6-2.7.6-1.2 0-1.8-.2-2.4-.5-.6-.4-.9-.8-1.2-1.3-.3-.8-.5-1.7-.5-3 0-1.5.3-2.8.7-4zm75.3 8.3l-.4-.4c-1.4.3-2.5.5-2.7.6h-.3v-.2c0-.8.1-4.3.4-10.2h3.2c-.4 1.8-.6 3.8-.6 5.7.1 1.7.2 3.1.4 4.5zm28.7.7c-1.6.3-3 .4-4.2.4-.9 0-1.7-.1-2.7-.4-.8-.2-1.3-.5-1.7-.9-.1-.1-.2-.2-.3-.2H400c-1.9.4-3.5.8-4.8 1.1z"/><path fill="#FFF" d="M227.6 636.2c-.9-1-1.8-1.9-3-2.9-1.1-.9-2.3-1.7-3.7-2.7-1.4-1-2.3-1.6-2.7-1.9-.3-.2-.5-.4-.8-.6 0 0 0-.1-.1-.1.1 0 .2-.1.4-.1.6-.2 1.6-.3 2.7-.3 1.9 0 4.1.4 6.5 1.3 1 .3 1.9.2 2.8-.3.8-.5 1.2-1.5 1.2-2.5l-.4-6.6c-.1-1.3-1.1-2.5-2.4-2.7-4-.6-7.5-1.1-10.7-1.1-2.8 0-5.4.3-7.7 1.1-2.4.8-4.4 2.2-5.8 4.1-1.3 1.8-2.1 3.9-2.1 6.1 0 1.2.2 2.5.6 3.7.4 1.1 1.1 2.3 1.8 3.2.8 1 1.7 1.8 2.8 2.7 1 .8 2.4 1.8 4.1 3.1l1.8 1.3.1.1c.5.4 1 .8 1.2 1 .3.2.4.4.4.4.1.1.1.2.2.2 0 0 0 .1-.5.3-.5.2-1.3.3-2.4.3-1.1 0-2.3-.1-3.6-.4-1.3-.3-3-.9-5.2-1.6-1-.3-2.1-.2-2.8.4-.8.6-1.2 1.6-1.1 2.6l.8 7c.1 1.2 1.1 2.3 2.3 2.5 2.3.5 4.4.9 6.6 1.1 1.9.2 3.7.3 5.2.3 2.8 0 5.5-.4 8-1.3s4.5-2.3 5.9-4.1c1.4-1.7 2.2-4 2.2-6.2 0-1.3-.2-2.6-.8-3.9-.2-1.2-1-2.4-1.8-3.5zm179.3-11c-1-2.1-2.3-4-4-5.4-1.8-1.5-4-2.6-6.4-3.2-2.3-.6-4.8-.9-7.2-.9-2.7 0-5.3.3-7.8 1.1-2.6.8-5 2.1-7 3.9-1.7 1.5-3.1 3.5-4.1 5.6v-.4c0-1.1.1-3.1.2-5.9 0-.8-.2-1.6-.8-2.2-.5-.5-1.3-.9-2.2-.9H362c0-1.6.1-3.2.2-5 0-.9-.3-1.8-1.1-2.4-.6-.5-1.6-.9-2.5-.6-2.4.5-3.9.9-4.6 1l-4 .8c-1.3.2-2.3 1.4-2.4 2.7-.1 1.3-.1 2.5-.2 3.5H345c-.3 0-.6.1-1 .2-.4-.4-.9-.8-1.5-.9-1.1-.2-2.3-.4-3.4-.4-1.2 0-2.4.1-3.5.4-1.2.3-2.3.6-3.2 1.2-.1.1-.3.2-.4.2l-.2-.2c-.5-.5-1.3-.9-2.2-.9-1.8 0-3.4.1-4.4.1-1 0-2.5 0-4.5-.1-.8 0-1.5.3-2.2.9-.5.5-.9 1.3-.9 2.2 0 1.6.1 2.7.1 2.9 0 1.8 0 3.6-.1 5.4l-.2 8.8-1 15c0 .9.2 1.6.8 2.2.5.5 1.3.9 2.2.9 1.9 0 3.6-.1 4.9-.1 1.4 0 2.9 0 4.6.1.8 0 1.6-.3 2.2-.9.5-.5.9-1.4.9-2.2-.1-1.5-.1-2.7-.1-3.6 0-2.5.1-5.1.2-7.8.1-2.6.3-4.4.4-5.3.2-1.3.4-2.2.6-2.6.4-.9.9-1.4 1.3-1.9.5-.5 1.1-.9 1.7-1.1.6-.2 1.4-.3 2.5-.3.8 0 1.7.1 2.9.4.9.2 1.8 0 2.6-.5.2 0 .4.1.6.1h1.7l-.6 10.2c-.1 2.6-.2 4-.2 4.5v1.3c0 1.3.2 2.7.5 4 .4 1.5 1.4 2.9 2.6 4 1.3 1.1 2.8 1.8 4.5 2.3 1.5.3 3.2.5 5.1.5 1.1 0 2.2-.1 3.4-.2 1.3-.1 2.8-.4 4.8-.8 1.2-.2 2.1-1.2 2.3-2.3.5-3.1 1-5.3 1.3-6.4 1 1.9 2.4 3.7 4.1 5.2 2.1 1.7 4.5 3 7.4 3.7 2.6.6 5.4.9 8.5.9 1.8 0 3.6-.1 5.3-.2 1.8-.2 3.9-.5 6.4-1.1 1.2-.2 2.1-1.2 2.3-2.4.5-3.2 1-5.4 1.2-6.6.2-1-.1-2.1-.9-2.8s-1.8-1-2.8-.6c-2.4.8-4.4 1.3-6.1 1.5-1.6.3-3.1.4-4.5.4-1.1 0-2.1-.1-3.2-.4-1-.3-1.8-.8-2.5-1.3-.6-.5-1.1-1.2-1.4-1.9-.2-.5-.4-1.1-.4-1.7h21.7c1.4 0 2.6-1 2.8-2.3.2-1.2.4-2.5.4-3.7-.1-3.3-.5-5.7-1.5-7.7zm-37.2 2.4c-1.1 2.8-1.6 5.6-1.6 8.6 0 2.2.3 4.2.9 6.3-.6-.4-1.5-.6-2.4-.4-1.5.3-2.5.5-2.9.6-.5.1-1 .1-1.4.1-.3 0-.6-.1-.9-.2-.1-.1-.2-.9-.2-1.9 0-1 .2-5.2.5-12.1h5.8c.8 0 1.5-.3 2.1-.9l.2-.2c-.1 0-.1 0-.1.1zm22.3-.4c.2.1.4.3.6.5.2.2.3.4.4.8h-8.2c.2-.3.5-.5 1-.9.5-.3 1-.6 1.6-.8.6-.2 1.3-.3 1.9-.3.6 0 1.2.1 1.6.2.6.2.9.4 1.1.5zm-76.8-.3c-1-2.5-2.5-4.6-4.5-6.4-1.9-1.7-4.3-3-7.1-3.8-2.6-.9-5.4-1.2-8.2-1.2-3.1 0-6.2.5-9.1 1.5-2.9 1-5.5 2.5-7.5 4.5-1.9 1.9-3.5 4.2-4.3 6.7-.3.9-.5 1.6-.8 2.5-.2-1.2-.5-2.3-.9-3.4-.9-2.5-2.2-4.6-4-6.6-1.9-2.1-4.4-3.5-7.5-4.2-2.8-.8-5.8-1.1-9.1-1.1-2.4 0-4.9.1-7.2.3-2.5.2-5.8.8-10.1 1.4-1.4.2-2.4 1.4-2.4 2.8 0 5.8-.2 13.4-.6 22.8s-1 17-1.5 22.8c-.1.9.2 1.6.8 2.3.5.6 1.3 1 2.2 1h9.8c.8 0 1.5-.3 2.1-.9.5-.5.9-1.3.9-2.1v-5.4l.3-8c.2.1.5.3.8.4 1.2.6 2.6 1.1 4 1.4 1.5.3 3 .5 4.5.5 2.6 0 5.1-.4 7.2-1.4 2.4-1 4.4-2.5 6.2-4.5 1.6-1.9 2.9-4.2 3.7-6.7l.6-2.4c.2 1.2.6 2.4 1.1 3.5 1 2.5 2.6 4.6 4.5 6.4 1.9 1.7 4.3 3 7 3.9 2.6.9 5.4 1.2 8.3 1.2 3.1 0 6.1-.4 8.9-1.4s5.3-2.4 7.4-4.4c1.9-1.9 3.5-4.2 4.4-6.8 1-2.6 1.5-5.3 1.5-8 .2-2.2-.4-4.7-1.4-7.2zm-68 5.8l.2-3.6c0-.2 0-.5.1-.9 1.8-.4 3.5-.6 5-.6 1.4 0 2.6.2 3.6.8.9.4 1.5 1.1 2.2 2.2.5 1 .9 2.4.9 4.2 0 1.6-.3 3.1-.9 4.5-.5 1.4-1.3 2.2-2.2 2.8-1 .6-1.8.9-3 .9-.9 0-1.6-.2-2.4-.5-.8-.3-1.4-.9-1.9-1.5s-.9-1.3-1.1-2.1c-.2-1-.3-1.9-.3-3-.3-.6-.3-1.7-.2-3.2zm44.5-3.9c1.1-.6 2.3-1 3.8-1s2.6.3 3.5.9c1 .5 1.4 1.2 1.8 2.1.4 1.1.6 2.3.6 3.7 0 1.8-.3 3.4-.9 4.8-.5 1.3-1.3 2.2-2.2 2.7-1 .6-2.2 1-3.7 1s-2.6-.3-3.5-.9c-1-.6-1.5-1.3-1.9-2.2-.4-1.1-.6-2.3-.6-3.8 0-1.7.3-3.2.9-4.6.6-1.4 1.2-2.1 2.2-2.7zm-95.3 12.9l-4.9.2-7.2.1c-3.8 0-6.3.1-7.4.1h-.6l.3-6.2c2.7-.1 5.1-.1 7.1-.1.9 0 4.3 0 10.3.1 1.5 0 2.8-1.2 2.9-2.7.1-2.7.3-5 .4-6.8.1-.9-.2-1.6-.8-2.3-.5-.6-1.4-1-2.2-1-5.1.1-8.8.2-10.8.2h-6.3l.2-5.6h13.1s2.7 0 3.6.1l3.1.2c1.6.1 2.9-1.2 3-2.7l.4-6.8c0-.8-.2-1.6-.8-2.2-.5-.5-1.3-.9-2.2-.9h-16.2c-5.9 0-11.8 0-17.3-.1-.8 0-1.5.3-2.1.9-.5.5-.9 1.3-.9 2.1v4.2l-.4 12.8-.6 13.9-1 12.1c-.1.8.2 1.6.8 2.2.5.5 1.3 1 2.2 1h17.7c4.6 0 9.9 0 15.8.1 1.5 0 2.8-1.2 2.9-2.8.1-2.2.2-4.4.4-6.8.1-.9-.2-1.6-.8-2.3-.1-.8-.9-1.1-1.7-1z"/><path fill="#271674" d="M359.5 611.5c-2.4.5-4 .9-4.8 1.1l-4 .8c-.1 2.9-.3 5.1-.4 6.3h-5.1c-.1 2.8-.2 4.9-.3 6.2h4.9L349 639c-.1 2.5-.2 4-.2 4.5v1.1c0 1.1.1 2.2.4 3.1.3 1 .9 1.8 1.7 2.6s1.9 1.3 3.2 1.6c1.3.3 2.8.4 4.4.4 1 0 1.9 0 3-.2 1.1-.1 2.6-.3 4.4-.8.5-3.1 1-5.3 1.3-6.5-1.5.4-2.6.6-3.2.8-.6.1-1.2.1-1.7.1-.8 0-1.5-.1-2.2-.4-.6-.3-1.2-.9-1.4-1.5-.3-.8-.4-1.7-.4-3 0-1.4.2-6.4.8-14.9h8.5c0-1.2.1-3.2.2-6.2h-8.5c0-2.7 0-5.4.2-8.2zm45.6 23.6c.2-1.1.3-2.1.3-3 0-2.2-.3-4-1.1-5.7-.8-1.7-1.8-3.2-3.2-4.4-1.4-1.2-3.1-2.1-5.2-2.6s-4.2-.9-6.5-.9c-2.4 0-4.8.3-6.9 1-2.2.6-4.2 1.7-5.9 3.4-1.7 1.5-3.1 3.6-4 6.1-1 2.5-1.4 5-1.4 7.6 0 2.4.4 4.6 1.2 6.7.9 2.2 2.2 3.9 3.9 5.4 1.7 1.5 3.8 2.5 6.1 3s5 .9 7.9.9c1.7 0 3.4-.1 5-.2 1.6-.2 3.7-.5 6.2-1 .5-3.2 1-5.5 1.2-6.7-2.5.8-4.6 1.3-6.5 1.6-1.8.3-3.5.4-5 .4-1.3 0-2.7-.2-4-.5-1.4-.4-2.5-1-3.6-1.8-1-.9-1.7-1.8-2.3-3-.5-1.2-.8-2.5-.8-3.9 0-.4 0-1.1.1-1.8l24.5-.6zm-23.7-6.1c.2-.6.5-1.2 1-1.8.4-.6 1.1-1.3 1.8-1.8.8-.5 1.5-1 2.4-1.2.9-.3 1.8-.4 2.7-.4.9 0 1.6.1 2.3.2.8.2 1.3.4 1.8.8s1 .8 1.4 1.2c.4.4.8 1 1 1.6.2.6.3 1.2.4 1.6.1.5.1 1.2.1 2.3h-15.8c.5-1.1.7-1.9.9-2.5zm-42-10.6c-1 0-1.9.1-2.8.3-.9.2-1.7.5-2.5 1s-1.4.9-2.1 1.4c-.6.5-1.3 1.4-2.2 2.6l.2-4.4c-1.8 0-3.4.1-4.5.1-1 0-2.5 0-4.6-.1 0 1.7.1 2.7.1 3 0 1.8 0 3.7-.1 5.4l-.2 8.8-1 15.1c1.9 0 3.6-.1 5-.1s3 0 4.6.1c-.1-1.5-.1-2.7-.1-3.8 0-2.6.1-5.2.2-7.9s.3-4.5.4-5.6c.2-1.4.5-2.6 1-3.5.5-1.1 1.2-2.1 1.9-2.8s1.7-1.3 2.7-1.7c1-.3 2.2-.5 3.5-.5 1.1 0 2.3.2 3.6.5-.2-3-.3-5.5-.3-7.5-1-.2-2-.4-2.8-.4zM182 608.2c-6.1 0-11.8 0-17.3-.1v4.3l-.4 12.8-.6 14.1-1 12.1h17.7c4.6 0 9.9 0 15.8.1.1-2.2.2-4.5.4-6.9l-4.9.2-7.2.1c-3.9 0-6.3.1-7.4.1h-3.7l.6-12c4-.1 7.2-.2 9.8-.2.9 0 4.3 0 10.3.1.1-2.7.3-5 .4-6.9-5.1.1-8.8.2-10.9.2-3.1 0-6.3 0-9.3-.1l.5-11.2c2.1-.1 3.6-.1 4.6-.1H191s2.7.1 3.7.1l3.2.2.4-6.8h-9.7l-6.6-.1zm35.1 16.7c1-.2 2.2-.3 3.5-.3 2.4 0 4.9.5 7.5 1.5l-.4-6.6c-3.8-.6-7.2-1-10.2-1-2.6 0-4.9.3-6.7 1-1.9.6-3.4 1.6-4.3 3-1 1.4-1.5 2.9-1.5 4.4 0 .9.1 1.7.5 2.6.3.9.8 1.6 1.4 2.5.6.8 1.4 1.5 2.3 2.3s2.3 1.7 4 3l1.8 1.4c.6.4 1.1.9 1.4 1.1.3.3.6.5.8.8.2.2.3.4.5.8.1.2.2.5.3.8.1.2.1.5.1.8 0 .6-.2 1.2-.6 1.7-.4.5-1.1 1-1.9 1.3-.9.3-1.9.4-3.2.4s-2.7-.2-4.2-.5-3.4-1-5.6-1.7l.8 7c2.2.5 4.2.9 6.2 1.1 1.9.2 3.6.3 4.9.3 2.6 0 4.9-.4 7-1.2 2.1-.8 3.7-1.8 4.6-3.1 1.1-1.4 1.5-2.8 1.5-4.4 0-1-.2-1.8-.5-2.8-.3-1-.9-1.8-1.5-2.6-.6-.9-1.5-1.6-2.6-2.4-1.1-.8-2.3-1.7-3.7-2.7-1.4-1-2.3-1.6-2.7-2.1-.4-.3-.9-.6-1.2-1.1s-.5-.8-.6-1.1c-.1-.3-.2-.8-.2-1.1 0-.6.2-1.2.6-1.6.2-.9.9-1.2 1.9-1.5zm91.8-2.1c-1.6-1.4-3.7-2.5-6.1-3.2-2.4-.8-4.9-1.1-7.4-1.1-2.8 0-5.5.4-8.1 1.4-2.6.9-4.8 2.2-6.4 3.8-1.6 1.6-2.9 3.6-3.7 5.6-.8 2.2-1.2 4.3-1.2 6.7 0 2.3.4 4.4 1.3 6.6.9 2.1 2.2 3.9 3.8 5.3 1.6 1.4 3.7 2.6 6.1 3.2 2.4.8 4.9 1.1 7.5 1.1 2.8 0 5.4-.4 7.9-1.2 2.5-.9 4.5-2.1 6.2-3.7 1.6-1.6 2.9-3.6 3.8-5.8.9-2.3 1.3-4.5 1.3-7 0-2.3-.4-4.4-1.2-6.5-.9-2.1-2.2-3.8-3.8-5.2zm-5.8 17.7c-.8 1.8-1.8 3.1-3.4 4.1-1.5 1-3.2 1.4-5.2 1.4s-3.6-.4-5-1.3-2.4-2.1-3-3.5c-.6-1.4-1-3-1-5 0-2.1.3-4 1.1-5.8.8-1.7 1.9-3.1 3.5-4 1.5-.9 3.2-1.3 5.2-1.3s3.7.4 5 1.3c1.4.9 2.4 2.1 2.9 3.5s.9 3 .9 4.8c.2 2-.2 4-1 5.8zm-36.3-17.6c-1.5-1.6-3.6-2.7-6.1-3.4-2.5-.6-5.3-1-8.3-1-2.3 0-4.6.1-6.9.3-2.4.2-5.6.8-9.9 1.4 0 5.8-.2 13.5-.6 22.9-.4 9.4-1 17.1-1.5 22.9h9.8v-5.3l.5-13.8c1 1 1.7 1.7 2.4 2.3s1.4 1 2.4 1.5 2.1.9 3.4 1.2c1.3.3 2.6.4 3.9.4 2.3 0 4.3-.4 6.2-1.2 1.9-.8 3.6-2.1 5-3.7 1.4-1.7 2.5-3.6 3.2-5.7.6-2.2 1.1-4.3 1.1-6.7 0-2.3-.3-4.4-1.1-6.6-.9-2.2-2-4-3.5-5.5zm-6 17.6c-.8 1.7-1.8 3.1-3.2 4.1-1.4 1-2.9 1.4-4.6 1.4-1.2 0-2.4-.2-3.6-.8-1.2-.5-2.2-1.3-3-2.3-.9-1-1.4-2.1-1.6-3.2-.3-1.2-.4-2.4-.4-3.7 0-.8 0-1.8.1-3.4l.2-3.6c.1-.9.2-1.8.3-2.9 2.7-.9 5.3-1.3 7.6-1.3 1.8 0 3.4.3 4.9 1.1 1.4.6 2.5 1.8 3.4 3.4s1.3 3.5 1.3 5.6c-.3 1.9-.7 3.8-1.4 5.6z"/><path fill="#FD0" d="M190 526.8l94-82.3 94 82.3-94 82.1"/><path fill="#271674" d="M281.3 495.9c14.2-13.5 27.1-13.1 42.2-7.6L284 453.7l-27.6 24.2c9.8.8 19.4 6.4 24.9 18z"/><path fill="#271674" d="M328.1 492.5l-10.3 5.3c-14.9 8.7-20.5-7.4-34.2 1.1l.1 1.4c12.9-.3 17.6 9.9 10.9 22.3-3-10.5-7.8-17-16.9-21.4l-.2-.1c-10.3.1-24.1-.8-22.7 18.5.5 9.8-17.8 17.6-16.2 2.6 2.7-14.8 9.8-26 32.5-23.9 1.6.1 3 .4 4.1.9l.1-.3c-5.2-9.2-15.5-13.2-25.8-15l-48.9 42.9 26.5 23.2c.9-.5 1.8-1.1 2.9-1.5 5.4-2.4 13.6-3.9 22.2-1.4 3.4 1 6.3 1.5 9 1.6 2.5 0 4.9-.3 7.2-1.2 1.5-.5 3-1.1 4.6-1.5-3.9-12.3-4.3-29.8.5-40.9 3-6.1 5.6-3.5 4.4 2.2-1.3 9.8-.8 25.7 6.3 37.8 2.8.3 5.8 1 9 2.3 3.1 1.2 6.1 1.9 8.9 2.1 2.8.1 5.7-.5 9-1.9h.1c1.4-.6 2.8-1.1 4.4-1.5 1.5-.3 3.1-.6 4.8-.9 7.2-.8 15.6.3 21.7 3.2l24.4-21.5-38.4-34.4zm-6.1 61.9c-1.2.1-2.4.3-3.6.6-1.1.2-2.1.5-2.9 1-4.6 2.1-9 2.9-13.2 2.8-4.1-.1-8-1.1-12.1-2.7-3.7-1.4-6.9-1.8-9.7-1.7-2.9.1-5.6 1-8.3 1.9-3.6 1.3-7 1.9-10.8 1.8-3.6-.1-7.4-.8-11.5-1.9-5.6-1.6-10.9-.9-14.7.5l48.8 42.9 50.5-44.3c-3.9-1-8.4-1.3-12.5-.9zm-26.9-265.6l11.2-12.9-16.8 3.2L284 263l-5.5 16.1-16.8-3.2 11.2 12.9-11.2 12.8 16.8-3.2 5.5 16.1 5.5-16.1 16.8 3.2"/></svg>