<svg xmlns="http://www.w3.org/2000/svg" viewBox="-260.1 430.1 350.1 365.2"><path fill="#FFF" d="M-87.1 793.4c-.8 0-1.5-.5-1.5-1s-.6-1-1.3-1-1.9-.9-2.7-2c-.8-1.1-2-2-2.7-2s-1.3-.5-1.3-1-.7-1-1.5-1-2.1-.9-2.7-2c-.7-1.1-1.7-2-2.4-2-.6 0-2.5-1.3-4.3-3-1.7-1.6-3.6-3-4.1-3-.6 0-1-.5-1-1s-.5-1-1.1-1-2.4-1.3-3.9-3c-1.5-1.6-3.2-3-3.7-3s-1.5-.9-2.3-2c-.8-1.1-1.9-2-2.5-2s-1.7-.9-2.5-2-1.9-2-2.5-2c-.6 0-1.7-.9-2.5-2s-1.9-2-2.5-2c-.6 0-1.7-.9-2.5-2s-1.8-2-2.3-2-3.5-2.7-6.7-6-6.2-6-6.5-6-5-4.5-10.3-10c-5.3-5.5-11.6-12.1-14-14.7-2.4-2.6-5.5-6.2-7-7.9-1.5-1.7-3.4-4.1-4.2-5.4s-2.7-3.6-4.2-5.2-2.8-3.3-2.8-3.7-.9-1.8-2-3.1-2.4-2.9-2.9-3.5c-.5-.6-1.5-2.1-2.2-3.4s-1.7-2.9-2.2-3.4c-.5-.6-1.7-2.1-2.7-3.3-1-1.2-2.6-4-3.6-6.2s-2.1-4-2.4-4-3.8-6.6-7.7-14.8c-3.9-8.1-8.7-18.4-10.7-22.8-2-4.4-3.8-9.1-4.2-10.5-.4-1.4-1.2-4.1-2-6-.8-1.9-2.3-6.9-3.5-11-1.2-4.1-2.5-8.9-3-10.5-.5-1.6-1.6-5.5-2.5-8.7-.9-3.1-2.1-8.5-2.6-12s-1.4-8.8-1.9-11.8-2.1-14.3-3.5-25c-2.2-16.6-2.6-23.7-2.8-47.5-.1-15.4.2-29.3.6-30.8.8-2.8.9-2.8 6-2 2.9.5 19.2.8 36.2.8 18 0 35.2-.6 41-1.3 5.5-.7 13.2-1.5 17-1.8 3.9-.3 7.4-1 8-1.5.5-.5 2.6-.9 4.6-.9s4-.4 4.6-.9 2.8-1.2 4.9-1.5c2.1-.3 5.7-.9 7.8-1.2 2.1-.3 4-1 4.3-1.5s2.1-.9 3.9-.9c1.9 0 3.7-.4 4-1 .3-.5 2.2-1 4.1-1s3.4-.4 3.4-1c0-.5 1.8-1 4-1s4-.4 4-1c0-.5 1.6-1 3.5-1s3.5-.4 3.5-1c0-.5 1.3-1 2.9-1 1.6 0 3.2-.4 3.6-1 .3-.5 3-1 5.9-1 3.2 0 6.9.8 9.4 2 2.3 1.1 4.8 2 5.7 2s1.5.5 1.5 1c0 .6 1.4 1 3 1s3 .5 3 1c0 .6 1.4 1 3 1s3 .5 3 1c0 .6 1.4 1 3 1s3 .5 3 1c0 .6 1.1 1 2.5 1s2.5.5 2.5 1c0 .6 1.8 1 4 1s4 .5 4 1c0 .6 1.5 1 3.4 1s3.7.5 4.1 1c.3.6 2.4 1 4.6 1s3.9.5 3.9 1c0 .6 1.7 1 3.8 1s4.2.4 4.8.9c.5.5 8.2 1.2 17 1.5s27.4.8 41.4 1.2c17.7.4 25.7.3 26.5-.5.6-.6 3.2-1.1 5.8-1.1 3.1 0 5.1.5 6 1.7 1 1.2 1.5 6.6 1.7 21.8.2 11.1-.1 23.7-.7 28.1-.6 4.4-1.3 11.4-1.6 15.5-.3 4.1-.9 11.1-1.5 15.6s-1.7 11.9-2.5 16.5c-.9 4.6-2.5 12.5-3.6 17.4-1.1 4.9-2.5 10.8-3 13-.6 2.2-1.9 6.7-3 10s-2.4 7.6-2.8 9.5c-.5 1.9-1.8 6-3 9s-2.5 6.6-3 8c-.5 1.4-2.2 5.4-3.8 9-1.7 3.6-4.5 9.8-6.3 13.8s-3.7 7.2-4.1 7.2-.8.7-.8 1.5-.8 3.1-1.7 5c-.9 1.9-2 3.5-2.4 3.5s-1.3 1.4-1.9 3c-.6 1.6-1.6 3-2 3s-1.8 2.2-3 5-2.7 5-3 5-1.3 1.4-2 3-1.6 3-2 3-1.3 1.4-2 3-2.5 4.4-4.1 6.1-2.9 3.4-2.9 3.9-1.7 2.6-3.8 4.8c-2.1 2.2-4.4 5-5.2 6.2s-2.7 3.6-4.2 5.4c-1.5 1.7-4.2 4.8-6 6.9-1.8 2.1-8.1 8.7-14 14.8-5.9 6-11 11-11.3 11s-3.2 2.7-6.5 6-6.4 6-6.9 6-1.1.5-1.1 1-.5 1-1.1 1-2.4 1.4-3.9 3c-1.5 1.7-3.3 3-3.9 3s-1.1.5-1.1 1-.6 1-1.3 1-1.9.9-2.7 2c-.8 1.1-1.9 2-2.5 2s-1.7.9-2.5 2-1.9 2-2.5 2-1.7.9-2.5 2-2.2 2-3.2 2-2 .9-2.3 2-1.3 2-2.1 2-1.4.5-1.4 1-.8 1-1.8 1-2.4.9-3.2 2c-.8 1.1-2 2-2.7 2s-1.3.5-1.3 1-.6 1-1.3 1-2.3.9-3.5 2c-1.5.8-3.2 1.7-4 1.7z"/><path fill="#DB241C" d="M-86.5 795.3c-.7 0-8.7-5.7-17.7-12.6-9-6.9-20.8-16.2-26.2-20.5-5.4-4.4-14.9-12.6-21.1-18.3s-15-14.2-19.5-19-12-13.3-16.6-18.9c-4.6-5.6-10.6-13.3-13.4-17.2s-7.4-10.8-10.3-15.5c-2.9-4.7-8.3-14.4-11.9-21.5-3.6-7.1-9-18.9-11.8-26-2.8-7.1-6.3-17.1-7.7-22-1.4-5-3.7-13.1-5-18-1.3-5-3.3-13.7-4.4-19.5-1.1-5.8-2.5-13.9-3.1-18-.6-4.1-1.8-14.2-2.6-22.5-.8-8.2-1.7-27-2.1-41.6-.3-14.6-.3-27.8 0-29.2l.7-2.6 28.7.6c18.7.4 33.8.2 43.2-.6 8-.7 20.4-2 27.6-3.1 7.2-1.1 17.5-2.9 23-4 5.5-1.2 16.7-3.9 24.9-6.1s18.7-5.1 23.2-6.5l8.2-2.6 18.5 6.6c10.2 3.6 23.2 7.9 28.9 9.5 5.7 1.6 15 3.8 20.8 5s14.3 2.5 18.9 3c4.7.5 14.4 1.3 21.5 1.6s22 .1 33-.5 22-1.4 24.4-1.7l4.4-.6-.5 32.9c-.4 25.6-1 36.5-2.6 49-1.2 8.9-3.2 21.7-4.6 28.5s-4 18-5.9 24.9c-1.9 6.9-5.6 18.4-8.1 25.5-2.6 7.1-7.9 19.7-11.9 28s-10.5 20.4-14.5 27c-4 6.6-10.4 16.4-14.3 21.9-3.9 5.4-10.4 14-14.6 19s-12.8 14.5-19.1 21c-6.4 6.5-17.2 16.8-24.1 22.9s-18.7 15.6-26.2 21.2-17 12.5-21.2 15.4c-4.2 2.8-8.2 5.1-8.9 5.1zm.4-15c.4 0 5.3-3.3 10.9-7.2 5.6-4 16-12 23.2-17.7 7.2-5.8 19.8-17 28-25s18.3-18.6 22.6-23.5c4.2-5 10.4-12.6 13.7-17 3.3-4.4 8.3-11.4 11.1-15.5 2.8-4.1 8-12.6 11.6-18.7 3.5-6.2 8.9-16.8 11.9-23.5s7.2-16.7 9.2-22.1c2-5.4 5.4-16 7.6-23.5 2.2-7.5 5-19.5 6.4-26.7s3.2-18.4 4-25c.8-6.6 2-20.5 2.6-30.9.6-10.5 1-22.8.8-27.4l-.3-8.4-34-.1c-27.6-.1-36.1-.4-45-1.9-6.1-1-16.4-3.1-23-4.7s-17.4-4.6-24-6.8c-6.6-2.2-16.4-5.5-21.7-7.5l-9.7-3.5-10.3 3c-5.7 1.6-17.3 4.7-25.8 6.9-8.5 2.1-21.7 5-29.2 6.4-7.5 1.4-20.6 3.3-29 4.2-10.8 1.2-23.9 1.7-44.2 1.7h-28.9l.6 24.6c.3 13.5 1.3 31.1 2.1 39 .8 7.9 1.8 16 2.1 18 .3 2 1.5 8.5 2.6 14.6s3.8 17.8 6 26 6.3 21.1 9.1 28.5c2.8 7.4 8.1 19.6 11.8 27.1s8.7 16.7 11 20.5 6.7 10.5 9.8 14.9c3.1 4.4 8.8 12.1 12.8 17.1s12.5 14.6 19.1 21.4c6.5 6.8 17.1 16.9 23.4 22.5 6.3 5.6 15.8 13.6 21 17.7 5.2 4.1 13.9 11 19.4 15.2 5.5 3.8 10.3 7.3 10.7 7.3zm-.2-9c-.3 0-6.9-4.8-14.7-10.8-7.8-5.9-20.1-15.7-27.4-21.7-7.3-6-18.2-15.9-24.4-22-6.2-6.1-14-14.4-17.5-18.5s-9.3-11.5-13-16.5-9.4-13.6-12.7-19.1-8.1-14.2-10.7-19.2c-2.5-5.1-6.4-13.6-8.5-19-2.1-5.4-5.5-14.8-7.5-20.9-2-6.1-5-16.5-6.6-23.1-1.7-6.6-4.1-18.4-5.5-26.4-1.3-7.9-3.1-20.5-4-27.9-.9-7.4-1.8-20-2.1-28-.3-8-.8-16.9-1-19.8l-.5-5.2h26.3c15.7 0 32.1-.6 40.8-1.5 8-.8 20.1-2.4 27-3.6 6.9-1.2 19.3-3.8 27.6-5.9 8.3-2.1 20.9-5.7 28-8l13-4.2 14.5 5.4c8 3 18.8 6.8 24.2 8.5 5.3 1.7 14.8 4.2 21 5.6s15.3 3 20.2 3.6c4.9.6 18.3 1.1 29.9 1.1 11.5 0 24.7-.3 29.3-.7l8.4-.7v14.4c0 7.9-.7 22-1.5 31.4-.8 9.4-2.4 22.6-3.5 29.4s-3.1 17.3-4.5 23.2-3.9 15.4-5.6 21.1-5.3 15.7-7.9 22.3c-2.6 6.6-7.1 16.8-10 22.5s-8.4 15.8-12.4 22.3c-3.9 6.5-10.9 16.8-15.4 22.8S-5.4 698-10.6 703.9c-5.2 5.9-13.9 15-19.3 20.2-5.4 5.2-14.4 13.4-19.9 18.1s-15.8 13.2-23 18.8c-7.1 5.7-13.2 10.3-13.5 10.3zm-.2-10.1c.7 0 5.5-3.2 10.5-7.1 5-3.9 13.7-11 19.2-15.7s15.1-13.5 21.4-19.6c6.3-6.1 15.3-15.5 20.1-21 4.8-5.5 11.7-13.9 15.3-18.6s8.7-11.9 11.3-15.9 7.2-11.6 10.2-16.9 6.8-12.5 8.5-16.1c1.7-3.6 4.5-10.1 6.3-14.5 1.8-4.4 4.9-12.8 6.8-18.6 1.9-5.8 4.7-15.1 6-20.5 1.4-5.4 3.6-16 5-23.4 1.4-7.4 3.2-20.7 4-29.5s1.6-21.8 1.8-28.9l.3-12.9-28.5-.1c-22-.1-31-.5-39.4-1.9-6-1-15-2.8-20-4.1-5-1.3-14.5-4.2-21.1-6.4-6.6-2.2-16.4-5.6-21.7-7.6l-9.7-3.6-12.3 4c-6.8 2.2-15.7 4.9-19.8 5.9-4.1 1.1-11.8 2.9-17 4-5.2 1.1-13.4 2.8-18.2 3.6-4.8.9-14.9 2.2-22.5 3.1-7.6.8-25.2 1.8-39.1 2.1l-25.3.6.5 7.6c.3 4.2.8 11.9 1.1 17.1.3 5.2 1.5 16.9 2.5 26 1.1 9.1 3.3 23 4.9 31 1.6 8 4.5 20.1 6.5 27 2 6.9 5.4 17.4 7.6 23.5 2.2 6 7.4 17.8 11.4 26 4.1 8.2 10.2 19.3 13.6 24.5s8.3 12.2 10.8 15.5 8.4 10.5 13.2 16 12.7 13.8 17.6 18.5 14.1 12.8 20.4 18.1c6.3 5.3 17.1 13.9 24 19.2 6.8 5.3 13.1 9.6 13.8 9.6zm0-5.9c-.4 0-3.6-2.3-7-5.2-3.5-2.9-6.6-5.7-7-6.2-.4-.6-.7-40.1-.8-87.8v-86.8l14.7.3 14.8.3.3 85.8.3 85.8-7.2 7c-4.1 3.6-7.7 6.8-8.1 6.8zm-41-87.8l-.3 56.8L-143 709l-15.3-15.2v-46c0-25.3.3-53.1.7-61.7l.7-15.8h28.4l.7 20.2c.3 11.2.5 45.8.3 77zm93.7 39.9l-10.5 10.9-.3-73c-.1-40.1-.1-73.4.1-74 .2-.6 5.7-1 13.8-1h13.4v119.6l-3 3.4c-1.7 1.7-7.7 8.1-13.5 14.1zm-149.4-58.7c-.4.3-4.1-6.1-8.1-14.2-4-8-9-18.9-11.1-24.2-2.1-5.3-4.7-12.3-5.8-15.6-1.1-3.3-3-9.6-4.1-14-1.1-4.4-2.3-8.8-2.6-9.8-.5-1.7.5-1.8 15.8-1.5l16.3.3.2 39.2c.1 21.7-.1 39.5-.6 39.8zm195.6-5c-1.2 1.6-1.5-.4-2-15.5-.4-9.6-.7-26.1-.7-36.6v-19.2h16c8.8 0 16 .2 16 .4s-2.3 7.2-5 15.6c-2.8 8.3-6.6 19-8.6 23.8s-6 13.4-9 19.2c-3 5.8-6 11.2-6.7 12.3zm30-77.5c-.7 0-1.7-.2-2.3-.4-.5-.2-58.8-.5-129.4-.8-104.9-.4-128.5-.7-129.2-1.8-.4-.7-1.7-6.3-2.9-12.4-1.1-6.1-2.5-16.5-3.1-23.1-.6-6.6-.9-17.8-.8-25l.3-13 18.5-.7c10.2-.4 24.6-1.2 32-1.8 7.4-.6 18.2-1.8 24-2.7 5.8-.8 16.3-2.9 23.5-4.5 7.2-1.6 20.6-5.5 29.9-8.6l16.9-5.7 4.1 1.6c2.3.9 8.9 3.4 14.7 5.6 5.8 2.2 16.6 5.6 24 7.6 7.4 1.9 18.1 4.2 23.7 5.1 5.7.8 18 2 27.5 2.6 9.5.6 21.3 1 26.2.9 5-.1 9.6-.1 10.4-.1 1.2.1 1.3 3.6.8 20.8-.4 16-1.2 24.3-3.2 36.1-1.5 8.4-3.1 16.4-3.6 17.8-.5 1.4-1.3 2.5-2 2.5zM-6.7 558l45.1.2L40 549c.9-5.1 2.1-13.3 2.7-18.2.6-5 1.1-14.6 1.3-21.5l.3-12.5-21.5-.6c-11.8-.3-26.9-1.4-33.5-2.4s-18.8-3.5-27.2-5.6c-8.3-2.1-21.3-6.2-28.8-9l-13.6-5.1-16.7 5.5c-9.2 3-22.1 6.7-28.7 8.1-6.6 1.5-18 3.5-25.4 4.6-7.3 1-20.4 2.4-29 2.9-8.6.5-20.5 1.3-26.5 1.7l-10.9.6.6 19.1c.3 10.6 1.3 23.1 2.2 28.1.9 4.9 2.1 9.8 2.6 10.7.9 1.7 5 1.8 80.7 2.1 43.7.2 99.9.4 124.7.5zm-182.1-15.7c-4.2 0-5.5-.3-5.5-1.5 0-.8.9-1.5 2-1.5 1.9 0 2-.7 2-13.6 0-12.8-.1-13.6-2-14.1-1.1-.3-2-.9-2-1.4s3.1-.9 6.9-.9h6.9l4.3 9.5c2.4 5.2 4.6 9.7 5 10 .4.2 2.6-4.1 5-9.5l4.3-10h6.8c3.8 0 6.8.4 6.8.9s-.9 1.1-2 1.4c-1.9.5-2 1.4-2 14.1 0 12.9.1 13.6 2 13.6 1.1 0 2 .7 2 1.5 0 1.2-1.5 1.5-7.9 1.5-4.5 0-8.2-.5-8.6-1.1-.4-.6.3-1.3 1.4-1.6 2-.5 2.1-1.2 2-12.2-.1-10.9-.2-11.4-1.5-8.6-.8 1.7-3 6.5-4.9 10.8-2.9 6.6-3.8 7.8-5.9 7.8-1.3 0-2.9-.6-3.4-1.2-.6-.7-2.7-5.2-4.7-10s-4.1-8.8-4.6-8.8-.9 5-.9 11c0 10.3.1 11 2 11 1.1 0 2 .7 2 1.5 0 1-1.3 1.4-5.5 1.4zm50.2-.2c-2.1.3-2.7-.2-3.3-2.3-.4-1.5-.1-3.2.6-4.1.7-.8 2.2-1.4 3.3-1.2 1.1.2 2.5 1.1 3.1 2 .8 1.3.8 2.2 0 3.5-.6 1-2.3 1.9-3.7 2.1zm16.4.2c-2.6 0-5.1-.3-5.4-.7-.4-.4-.7-1-.7-1.5s.9-.8 2-.8c1.9 0 2-.7 2-14s-.1-14-2-14c-1.1 0-2-.4-2-1s3-1 7-1c6.4 0 7.1.2 7.9 2.2.5 1.2 2.5 5.9 4.6 10.2l3.7 8 4.4-9.4c2.4-5.2 4.4-9.8 4.4-10.2 0-.5 3.1-.9 7-.9s7 .4 7 .9-.9 1.1-2 1.4c-1.9.5-2 1.4-2 14.1 0 12.9.1 13.6 2 13.6 1.1 0 2 .7 2 1.5 0 1.2-1.5 1.5-7.9 1.5-4.4 0-8.2-.5-8.6-1-.3-.6.5-1.4 1.9-2 2.5-1 2.6-1.1 2.6-12 0-6.1-.3-11-.8-11s-2.8 4.6-5.3 10.2c-4 9.1-4.8 10.3-7.3 10.6-2.6.3-3-.3-6.6-8-2.1-4.6-4.1-9.2-4.5-10.3-.6-1.7-.9-1.7-1.6-.5-.5.8-.9 5.6-.9 10.7 0 9 .1 9.3 2.5 10.2 1.4.5 2.3 1.4 1.9 2-.3.7-2.7 1.2-5.3 1.2zm50 0c-1.5 0-3.1-.3-3.5-.7s-.7-1.6-.7-2.8c0-1.2.5-2.7 1.2-3.3.7-.7 2-1.2 2.9-1.2s2.2.7 2.9 1.5c.7.9 1 2.6.6 4-.4 1.9-1.2 2.5-3.4 2.5zm24.9 0c-12.7 0-15-.2-15-1.5 0-.8.9-1.5 2-1.5 1.9 0 2-.7 2-14s-.1-14-2-14c-1.1 0-2-.4-2-1s5.7-1 15-1h15v3.5c0 2.3-.5 3.5-1.4 3.5-.8 0-1.6-.9-1.9-2-.5-1.7-1.4-2-7.1-2h-6.6v10h3.9c3.1 0 4.1-.4 4.6-2.1.4-1.1 1.2-1.9 1.8-1.7.6.2 1.3 2.3 1.5 4.6.2 2.4-.2 4.9-.9 5.7-1.1 1.3-1.4 1.1-2.6-1.1-1.1-2.1-2-2.6-4.6-2.3l-3.2.3-.3 6.8-.3 6.8 6.8-.3c6.2-.3 6.8-.5 7.1-2.5.2-1.2 1-2.2 1.8-2.2 1 0 1.4 1.2 1.4 4v4h-15zm26.1 0c-1.5 0-3.1-.3-3.5-.7s-.7-1.6-.7-2.8c0-1.2.5-2.7 1.2-3.3.7-.7 2-1.2 2.9-1.2s2.2.7 2.9 1.5c.7.9 1 2.6.6 4-.4 1.9-1.2 2.5-3.4 2.5zm27.2-.1c-3.8 0-7.1-.7-9.6-2-2.1-1.1-4.7-3.4-5.7-5.2-1.3-2.2-2-5-2-9 0-3.2.5-6.8 1.1-8s2.3-3.4 3.7-4.9c1.6-1.8 4.4-3.1 7.9-3.9 4.2-.9 6.5-.9 10.8 0 3 .7 5.9 1.8 6.6 2.6.6.8 1 2.6.8 4.2-.2 1.5-.9 2.8-1.5 2.8s-2.2-1.6-3.5-3.5c-2-2.9-3-3.5-6.6-3.8-3.5-.3-4.6.1-6.6 2.3-1.5 1.7-2.7 4.4-3.1 7.5-.4 2.7-.4 6.8 0 9s1.7 5.3 3 6.7c1.7 2 3.2 2.6 6 2.6 3.1 0 4.3-.6 7-3.8 1.9-2.2 3.7-3.5 4.4-3.1.6.4 1.1 1.2 1.1 1.9s-.8 2.1-1.8 3.3c-1 1.2-2.7 2.6-3.9 3.2-1.3.7-4.9 1.2-8.1 1.1zm23.7.1c-2.3 0-3.1-.5-3.6-2.5-.4-1.4-.1-3.1.6-4 .7-.8 2-1.5 3-1.5s2.3.7 3 1.5c.7.9 1 2.6.6 4-.5 1.9-1.3 2.5-3.6 2.5z"/></svg>