<svg id="svg2" xmlns="http://www.w3.org/2000/svg" viewBox="-221 312.4 167.7 168.6"><style>.st0{fill:#FF0016;} .st1{fill:#FFFFFF;}</style><g id="layer2"><g id="g4262"><path id="path3959-7-1" d="M-219.78 312.42l-.5 3.9-.2 2.1s-4.8 42.5 16.3 89.4c21.3 47.5 63.8 71.2 63.8 71.2l1.2.7 2.1 1.2 2.1-1.2 1.2-.7s42.4-23.8 63.7-71.2c21.1-46.9 16.3-89.4 16.3-89.4l-.2-2.1-.5-3.9h-165.3z"/><path id="path3959-3" class="st0" d="M-213.78 319.22s-.1 1.2-.2 3c-.1 1.5-1.1 12.6.4 26.5.6 5.9 1.8 11.5 2.9 16.2.8 4 1.7 8.2 2.8 12.5h141.5c1.8-6.6 3-12.9 4-18.7h-92.2v-18.7h94.2c.8-12.8-.1-20.8-.1-20.8h-153.3zm12 76.9c1.1 3 2.4 6 3.8 9 1.5 3.3 3.1 6.5 4.8 9.6h112.2c1.7-3.1 3.3-6.3 4.8-9.6 1.4-3 2.6-6 3.8-9h-129.4zm20.8 37.3c5.5 7.2 11.3 13.4 16.8 18.7h54.2c5.5-5.2 11.2-11.5 16.8-18.7h-87.8z"/><path id="path2999" class="st1" d="M-203.98 326.22v3.6h6.8v2.2h-3.9s-1.1.1-2.1.7-2.1 2.1-2.3 4v26.7c.2 2 1.2 3.4 2.3 4s2.1.7 2.1.7h3.9v3.3h3.6v-3.2h2.6s1.1-.1 2.1-.7 2.1-2.1 2.3-4v-12h1.3v11.9c.2 2 1.2 3.4 2.3 4s2.1.7 2.1.7h14.2s1.1-.1 2.1-.7 2.1-2.1 2.3-4v-6.8h-3.6v6.4c-.1 1.1-.4 1.2-.6 1.4-.2.1-.3.1-.3.1h-14.1s-.1 0-.3-.1-.5-.3-.6-1.4v-11.5h4.7v-3.6h-4.7v-10.7c.1-1.1.4-1.2.6-1.4.2-.1.3-.1.3-.1h6.8v2h3.6v-2h3.7s.1 0 .3.1c.2.1.5.3.6 1.4v6.4h3.6v-6.8c-.2-2-1.2-3.4-2.3-4s-2.1-.7-2.1-.7h-3.8v-1.4s-.1-1.1-.7-2.1-2.1-2.1-4-2.3h-28.8zm10.3 3.6h18.2c1.1.1 1.2.4 1.4.6s.1.3.1.3v1.3h-6.8s-1.1.1-2.1.7-2.1 2.1-2.3 4v11.1h-1.3v-11.1c-.2-2-1.2-3.4-2.3-4s-2.1-.7-2.1-.7h-2.6v-2.2zm-7.5 5.9c.1 0 .1 0 0 0h3.9v12.2h-2.4v3.6h2.4v13h-3.8s-.1 0-.3-.1-.5-.3-.6-1.4v-25.8c.1-1.1.4-1.2.6-1.4.1 0 .2-.1.2-.1zm7.5 0h2.5s.1 0 .3.1c.2.1.5.3.6 1.4v10.7h-3.5v-12.2zm0 15.8h3.5v11.5c-.1 1.1-.4 1.2-.6 1.4-.2.1-.3.1-.3.1h-2.5v-13z"/><path id="path3959-7" class="st1" d="M-215.88 316.82l-.2 2.1s-4.7 41.3 15.9 87.1c20.7 46 61.9 69.2 61.9 69.2l1.2.7 1.2-.7s41.2-23.2 61.9-69.2c20.6-45.8 15.9-87.1 15.9-87.1l-.2-2.1h-157.6zm4.4 4.8h54.4v53.3h-49c-7.2-27.8-5.8-49.1-5.4-53.3zm56.9 0h91.8c.5 5.5 2.8 41.3-15.6 82.5-19 42.4-55.4 64.3-58.7 66.2-3.3-1.9-39.7-23.9-58.8-66.2-4.2-9.3-7.3-18.3-9.6-26.7h50.8v-55.8z"/></g></g></svg>