<svg xmlns="http://www.w3.org/2000/svg" viewBox="-418 618 112.8 175.8"><path fill="#CD3529" d="M-418 793.8zM-305.2 618v42.7c-6.1 0-11 4.9-11 11s4.9 11 11 11v71.7c0 12.2-13.9 26.2-26 26.2h-15.1c-3.4 0-10.8 2.2-14.3 10.8l-.9 2.3-1-2.3c-3.5-8.6-10.9-10.8-14.3-10.8h-15.1c-12.2 0-26-14-26-26.2v-71.7c6.1 0 11-4.9 11-11s-4.9-11-11-11V618h112.7z"/><path fill="#FFF" d="M-307.3 620.1v38.8c-6.2 1-10.9 6.3-10.9 12.8s4.7 11.8 10.9 12.8v69.9c0 11-13 24.1-23.9 24.1h-15.1c-5 0-11.6 3.4-15.2 10.5-3.7-7.1-10.3-10.5-15.3-10.5h-15.1c-11 0-24-13.1-24-24.1v-69.9c6.2-1 10.9-6.3 10.9-12.8s-4.7-11.8-10.9-12.8v-38.8h108.6z"/><path fill="#CD3529" d="M-315.6 628.6v23.5c-7 3.7-11.8 11.1-11.8 19.6s4.8 15.9 11.8 19.6v61.2c-.3 2.6-.8 4.8-1.6 6.8-1.6 3.9-4.2 6.5-7.3 8.2-3.5 1.9-7.7 2.3-12.1 2.4h-9.6s-1.9.1-4.3.7c-3.6.9-7.1 2.2-11 5.3-3.9-3.1-7.4-4.4-11-5.3-2.3-.6-4.3-.7-4.3-.7h-9.6c-4.4-.2-8.6-.6-12.1-2.4-3.1-1.7-5.7-4.3-7.3-8.2-.8-1.9-1.3-4.1-1.6-6.8v-61.2c7-3.7 11.8-11.1 11.8-19.6s-4.8-15.9-11.8-19.6v-23.5h91.8z"/><path fill="#304296" d="M-375.3 651.4l-.9.5c-.2 0-.2.3-.2.3s-.2.2-.2.3v6.1c0 .3.2.7.2.7s.2.2.5.2c.2 0 .3-.2.3-.2s.2-.3.2-.7l.1-7.2zm3.7-8.2v18.7h-3.6v-.6c-.2.2-.9.5-1.1.5-.3.2-.7.3-1.2.3-1 0-1.6-.3-1.9-.9-.5-.7-.7-1.9-.7-3.5v-5c0-.5.2-1.2.5-1.6.2-.3.7-.9 1.4-1.2l3-1.4v-5.4c0-.3-.2-.5-.2-.5s-.2-.2-.3-.2c-.3 0-.5.2-.5.2 0 .2-.2.5-.2.9v4h-3.7v-4.3c0-1.2.5-2.1 1.1-2.4.3-.5 1.6-.7 2.9-.7 1.7 0 2.9.2 3.5.7.6.3 1 1.2 1 2.4zm9.8 1.1v4.7h-3.8v-6.2c-.3 0-.5-.2-.5-.2-.2 0-.5.2-.5.2v19.3h-3.6v-21.8h3.6v.9c.2-.3.5-.5.7-.9.5-.2.9-.2 1.4-.2.9 0 1.6.2 1.9.9.3.5.8 1.7.8 3.3zm5.2 7.1l-.9.5-.2.3s-.2.2-.2.3v6.1c0 .3.2.7.2.7s.2.2.3.2c.2 0 .4-.2.4-.2.3 0 .3-.3.3-.7l.1-7.2zm3.5-8.2v18.7h-3.5v-.6c-.3.2-.7.5-1 .5-.4.2-.9.3-1.2.3-1 0-1.6-.3-2.1-.9-.2-.7-.5-1.9-.5-3.5v-5c0-.5.2-1.2.3-1.6.2-.3.9-.9 1.4-1.2l3.1-1.4v-5.9c-.3 0-.5-.2-.7-.2s-.3.2-.3.2c0 .2-.2.5-.2.9v4h-3.6v-4.3c0-1.2.3-2.1 1-2.4.5-.5 1.6-.7 3.1-.7 1.6 0 2.6.2 3.3.7.7.3.9 1.2.9 2.4zm9.9 1.1V662h-3.6v-18.7c0-.3-.2-.5-.2-.5s-.2-.2-.3-.2c-.2 0-.3.2-.3.2 0 .2-.3.5-.3.9v18.4h-3.5v-21.8h3.5v.9c.3-.3.7-.5 1-.9.2-.2.9-.2 1.2-.2.9 0 1.6.2 1.9.9.5.5.7 1.7.7 3.7l-.1-.4zm6.1 7.1l-.9.5-.2.3v7.1s.2.2.7.2l.2-.2c.2 0 .2-.3.2-.7v-7.2zm3.6-8.2v18.7h-3.6v-.6c-.2.2-.7.5-1 .5-.2.2-.9.3-1.2.3-.7 0-1.5-.3-1.9-.9-.3-.7-.5-1.9-.5-3.5v-5c0-.5 0-1.2.2-1.6.3-.3.9-.9 1.7-1.2l2.8-1.4v-5.9c-.2 0-.4-.2-.4-.2-.5 0-.7.2-.7.2v4.9h-3.7v-4.3c0-1.2.2-2.1.9-2.4.5-.5 1.7-.7 3.1-.7 1.7 0 3 .2 3.3.7.8.3 1 1.2 1 2.4zm-4.5-7.1h3.3l-2.1 2.8h-2.4l1.2-2.8zm-8.3 61.1c-5.9-6.1-20.5-7.6-26.4-2.8l-34.9 30-4.8 4.2h21.8c8.7 0 11.5 4.7 13.9 10.4l14.7 36.6c.1.1.3.2.4.3 3.8-3.1 7.4-4.4 11-5.3 2.3-.6 4.3-.7 4.3-.7h9.6c4.4-.2 8.6-.6 12.1-2.4 3.1-1.7 5.7-4.3 7.3-8.2.8-1.9 1.3-4.1 1.6-6.8v-24.1l-30.6-31.2zm-22.9 19.6c-2.6 0-4.7-2.1-4.7-4.5 0-2.6 2.1-4.5 4.7-4.5 2.4 0 4.3 1.9 4.3 4.5 0 2.4-1.9 4.5-4.3 4.5zm-16.8-74.1v8.5h.2c.2 0 .7-.3.7-.3.2 0 .2-.5.2-.9v-5.9c0-.5 0-1.2-.2-1.2 0-.2-.5-.2-.7-.2h-.2zm-3.8-2.9h4.3c1.9 0 2.9.2 3.3.7.5.5.9 1.9.9 3.8v5.2c0 2.1-.3 3.3-.7 3.8-.5.5-1.6.9-3.1.9h-.9v7.8h-3.8v-22.2zm1.3 49.4h1.4c0-.2.2-.5.2-.9 0-.3-.2-.7-.2-.7-.2-.2-.5-.5-1-.5h-.4v2.1zm0-3.3h.2c.3 0 .9-.2 1-.2.1 0 .2-.3.2-.7 0-.5 0-.7-.2-.7-.2-.2-.7-.3-1-.3h-.2v1.9zm-1.7 4.7v-7.8h1.4c.5 0 1.2.2 1.6.2.2 0 .5.2 1 .2 0 .2.3.7.5.7.2.3.2.7.2 1 0 .5 0 .9-.3 1-.3.3-.9.7-1.2.7.7 0 1.1.2 1.4.5.2.5.7.9.7 1.2 0 .5-.2.9-.5 1 0 .3-.3.7-.7.9-.2 0-.7.2-.9.2-.3 0-1.2.2-1.9.2h-1.3zm16.7 0h-2.3l-1.9-3.6v3.6h-1.6v-7.8h2.4c.9 0 1.6.2 2.1.3.3.5.7 1.2.7 2.1 0 .3-.2 1-.3 1.2-.3.3-.9.5-1.2.5l2.1 3.7zm-4.2-4.3h.3c.5 0 1.2-.3 1.4-.3 0 0 .2-.5.2-.7 0-.3-.2-.7-.2-.9-.2-.2-.9-.3-1.4-.3h-.3v2.2zm13.5 1.3l-1-2.4V684c0 .3-.2.5-.2.5 0 .3-.2.7-.2.7l-.9 2.4h2.3zm-4.8 3l2.8-7.8h1.9l3.1 7.8h-1.9l-.7-1.7h-3l-.5 1.7h-1.7zm12.4-1.1l1.1-1.2c0 .5.3.9.5.9 0 0 .5.2.9.2.2 0 .9-.2.9-.2.2 0 .3-.3.3-.9 0-.2-.3-.7-1-.9-.2 0-.3-.5-.5-.5-.7-.2-1.2-.5-1.2-.7-.5-.5-.7-.9-.7-1.4 0-.7.3-1.2.7-1.7.5-.2 1.4-.5 1.9-.5s1 .2 1.2.3c.3 0 .7.3 1 .9l-1 .7c0-.2-.3-.5-.3-.5-.2 0-.3-.2-.7-.2-.3 0-.5.2-.5.3-.2.2-.3.3-.3.7 0 .3.3.7.9 1l.3.3c.7.2 1 .5 1.4.7.3.5.7 1 .7 1.4 0 .7-.3 1.4-.7 1.7-.7.3-1.4.7-2.3.7-.3 0-1-.2-1.4-.2-.6 0-1.2-.3-1.2-.9zm11.5 1.1v-7.8h1.8v7.8h-1.8zm8 0v-7.8h1.7v6.4h2.6v1.4h-4.3z"/><path fill="#FFF" d="M-343.2 675.3c-.2.2-.3.9-.3 1-.2.2-.5.5-.7 1-.2.5-.2 1.2-.2 1.4.2.2.3.3.7.3.7 0 1.6-.3 2.6-1 1.2-.7 2.2-1.7 3.3-2.9 0-.2.2-.3.5-.7l.7-.7s.2 0 .2.2c.3.2.3.3.3.5-.3.3-.5.7-.9 1-.3.7-1.2 1.2-1.9 1.9-1 .9-2.1 1.7-2.9 2.1-1 .5-1.7.9-2.6.9-1.1 0-1.4-.3-1.7-.9-.4-.3-.4-1.2.2-2.1.3-1 1-2.4 1.9-4.2.9-1.4 2.1-2.8 3.3-4 .3-.2.9-.5 1-.7.3-.3.7-.3.9-.3h.5c.2 0 .2.3.3.5h.7c.5.2.9.5.7 1.4-.5 1.4-1.4 2.8-2.6 4-1.4 1-2.5 1.6-3.1 1.6h-.5c-.3 0-.3-.2-.4-.3zm1.4-.5c.2 0 .9-.5 1.4-1.2.9-.9 1.2-1.9 1.4-2.6.2 0 0-.3.2-.5-.2 0-.3-.2-.3-.2-.2 0-.7.3-1.6 1.2-.7 1-1.2 1.7-1.4 2.3-.2.3-.2.5 0 .7-.1.3.1.3.3.3zm-1.4-13.2c0-.2-.2-.3-.3-.5h-.3c-.2 0-.7.2-1 .7-.2.5-1 1.2-1.7 2.4-2.4 3.3-4.5 6.4-6.1 9.2-.3.4-.5.8-.7 1.1-.1.1-.2.2-.3.4l-.2.2c-1 1.2-1.9 2.1-2.4 2.8-.7.5-1 .7-1.4.7 0 0-.2 0-.2-.2.2 0 .2-.3.4-.9.3-1.6 1.7-3.8 3.8-6.4.3-.3.5-.7.5-.7.3-.2 0-.9 0-1-.2-.2-.5-.2-.7-.2s-.7.2-.9.3c-.4.2-.7.7-.7 1-2.1 2.8-3.6 4.9-4.7 6.1-1 1.2-2.1 1.7-2.4 1.7-.2 0-.3 0-.3-.2 0 0 0-.3.2-.9.2-.5.5-1.4 1.4-2.6s1.7-2.6 2.9-4c.2 0 .5-.2.5-.3l.2-.2v-1c-.2-.2-.5-.2-.8-.2-.2 0-.4 0-.5.2-.2 0-.7.3-.9.5-1.1 1.2-2.1 2.6-2.8 4-.4.6-.7 1.2-1 1.8-.4.3-.6.7-.9 1-.9.7-1.4 1.5-2.1 1.9-.3.2-1 .5-1.2.5-.2 0-.3-.3-.3-.5s0-1 .2-1.6c.2-.2.2-.7.3-.9 0-.3.3-.7.5-.9 3.1-3.1 5.9-6.2 8.2-9.2 2.2-2.8 3.4-4.7 3.8-5.7 0-.3 0-1-.3-1.4-.3-.5-.9-.9-1.2-.9-.4 0-.9.2-1.4.3-.5.3-.9.7-.9.9-.2.2 0 .3 0 .3l-.2.3c-1.4 2.1-3.1 4.5-4.7 6.8-1.6 2.4-2.9 4.9-4.5 7.5-.2.2-.9.5-1.2.5s-.7.2-.7.2v.7c0 .2.4.3.5.3h.2l.2-.2v.2c0 .2-.2.7-.3.9 0 .2-.2.5-.2.7-.4.9-.4 1.6 0 2.1.2.5.7 1 1.4 1 .4 0 .9-.2 1.2-.2.3-.3.7-.7 1.2-.9.3-.3.8-.8 1.4-1.2 0 0 0 .1-.1.1 0 .2.2.3.5.5 0 .3.2.7.3.7h.9c.3 0 .9-.2 1.7-.7.3-.3 1.2-1.2 2.2-2.1 0 .1-.1.2-.1.3 0 .2-.4.3-.4.3-.2.9-.2 1.4 0 1.9.4.5.7.7 1.2.7s.9-.2 1.2-.3c.4-.1.9-.4 1.4-.9 0 .2 0 .3.4.3 0 0 .3.2.9.3.3.2.7.7.9.7.2 0 .5.2.9.2.5 0 1.4-.2 1.9-.3.7-.5 1.2-.9 1.9-1.4.9-1 2.1-2.2 3-3.5.9-1.2 1.4-2.4 1.6-3.3.5-.7.5-1.6.2-1.9 0-.7-.3-.9-.9-.9-.7 0-1.2.2-2.1.7-.8.3-1.5.8-2.4 1.6 1.2-2.1 2.3-3.7 3.5-5.2 1.2-1.9 1.9-2.8 2.4-3.3 0 0 .3-.2.5-.3.5-.2.7-.3.7-.3v-.5c-.3.5-.5.3-.8.3zm-19.2 5.2c1.4-1.9 3.1-4.4 4.6-6.8h.7v.3c-.2.7-1.2 2.3-3.1 4.7-1.6 2.4-3.8 5-5.9 7.6l-.2.2c1.1-1.8 2.6-3.7 3.9-6zm16.1 3.8c.2 0 .3.2.3.5v.5c-.3.5-.7 1.5-1.6 2.6-.9 1-1.9 2.4-2.6 3.5-.7.5-1.2 1.2-1.6 1.4-.5.2-.9.2-1.2.2-.5 0-.7 0-.9-.2 0-.2 0-.7.2-1 .2-.9.7-1.6 1.2-2.6.7-.5 1.4-1.4 2.2-2.3.7-.7 1.7-1.5 2.4-1.9.7-.5 1.4-.7 1.6-.7zm-20.6-11.8c.9.2 1.6.7 1.9 1.4.2.5.5 1.2.2 1.9-.2.7-.5 1-.9 1.4-.3.2-.9.3-1.2.3-.2 0-.5 0-.5-.2-.2-.2-.2-.9 0-1.6 0-.3 0-.7-.2-1-.2-.2-.7-.2-1.1-.2-.7 0-1.7.2-2.9.9-1.2 1-2.6 2.1-3.8 3.7-2.1 1.6-4 3.8-5.2 5.9-1.6 2.4-2.8 4.7-3.3 6.4-.3 1.4-.3 2.3 0 3 .2.9 1.1 1.2 2.1 1.2.7 0 1.6 0 2.2-.3.9-.2 1.9-.9 3-1.4.5-.2 1.2-.7 2.1-1 .9-.5 1.2-1 1.6-1 .2 0 .3.3.3.3-.2 0 0 .2 0 .3-.2.3-.3.7-.9 1-.3.3-1.4.9-1.9 1.6-1.2.7-2.4 1.4-3.5 1.6-1.2.7-2.2 1-2.9 1-2.1 0-3.5-.7-4.3-1.7-.9-1-1-2.8-.3-4.5.3-1.9 1.7-4 3.5-6.6 1.7-2.8 4.2-5.6 6.8-8.1 1.4-1.9 2.8-3.3 4.2-4 1-.9 2.1-1.4 2.8-1.4.2 0 .7.3 1.1.3.5.2.9.7 1.1.8zm41.9 78.4c0 2.2-1.7 4-4 4-1.5 0-2.7-.7-3.4-1.8-.7 1.1-1.9 1.8-3.4 1.8s-2.8-.8-3.5-2c-.5.9-1.3 1.5-2.3 1.8v30.4h-2.1v-30.3c-1.2-.3-2.2-1-2.7-2.1-.6 1.3-2 2.2-3.6 2.2-1.5 0-2.7-.7-3.4-1.8-.7 1.1-1.9 1.8-3.4 1.8-2.2 0-4-1.7-4-4s1.7-4 4-4c1.5 0 2.7.7 3.4 1.9.7-1.1 1.9-1.9 3.4-1.9 1.6 0 2.9.9 3.6 2.2.6-1.3 2-2.2 3.5-2.2s2.8.8 3.5 2c.7-1.2 1.9-2 3.5-2 1.4 0 2.7.7 3.4 1.9.7-1.1 1.9-1.9 3.4-1.9 2.4 0 4.1 1.8 4.1 4z"/></svg>