<svg xmlns="http://www.w3.org/2000/svg" viewBox="-120 219.6 369.3 354.4"><path fill="#ED3237" d="M-76 354.6c-17.2 8.4-36.7 32.7-39 66.7-1.9 29 7.8 59.6 39 73.8V354.6zm276-1.3c17.2 8.4 39.1 34 41.4 68 1.9 29-8.7 57.3-39.9 71.4L200 353.3zm-59.2-66.8l-48.2 4.9v245.4l52.6-18.9M-14.6 286.5l48.1 4.9v245.4L-19 517.9"/><path fill="#FFF212" d="M-56.6 227.5c78.6 22.9 159.5 23.4 242.8-.6l24 38.2-6.9 5.1-16.4 46.6 8.1 27.3 1.1 156.7-54.5 21.6.2-237.4-52.8 9.4.5 250.7-24.8 18.5L38.5 545V291.5l-54-2.1-1.7 228.4-51.5-17.8-2.1-154.6 10.2-30.8-11.1-36.2-8-11.6 23.1-39.3z"/><path fill="#00A859" d="M-65.3 279c8.6 16.5 10.5 37.3 9 48.8-1 7.1-3.6 12.7-7.1 17.6v149.5c12.4 6 26.4 10.8 40.7 15.5V289.6c-14.1-2.8-28.3-6.4-42.6-10.6zm267.2 80.6v129.7c15-9.5 26.2-22.2 30.3-41.5 10.9-56-11.6-72.3-30.3-88.2zm0 144.6c-15.9 8.3-34.4 14.4-53 20.9-31.9 11.1-64.1 23.3-84.1 48.9l-.3-.5v.5c-9.1-11.7-20.8-20.6-33.9-27.9-31.8-17.7-68.1-24.4-100.6-40.6l-6.1-3.2c-20.1-11.2-35.5-26.3-40.7-50.7-14.5-74.5 21.4-82.2 40.7-104.4l4.3-5.7c3.1-4.8 5.4-10.4 6.4-17.4 2.1-16.5-10-41.4-23.2-56.3l28.7-48.2c39.8 13.5 81.4 18.4 124.5 20.2 43.5-.8 84.7-6.8 124.5-20.2l28.5 48.2c-13.1 14.9-25.3 39.8-23.2 56.3 6.6 46 69.9 32.7 51.4 127.5-5.3 25.9-22.1 41.2-43.9 52.6zm-12.6-7.9v-149c-4.3-5.4-7.6-11.6-8.7-19.6-1.5-11.4 5.6-33.4 14.3-49.4-15.2 4.8-30.6 8.8-46 11.9v221.2c14.2-4.6 28.1-9.3 40.4-15.1zm-53 19.3v-223c-13.3 2.3-26.6 3.9-40.1 4.9V532c12.4-6.7 26.2-11.7 40.1-16.4zm-52.7 24.1V298.2c-13.4.6-26.8.5-40.4-.2v240c8.2 5.4 15.4 11.7 21.4 19.4 5.5-6.9 11.9-12.7 19-17.7zm-52.9-9V297.2c-13.5-1.1-27.1-2.8-40.7-5.2v222.5c14 4.7 28 9.7 40.7 16.2zM-76 358.3c-18.4 15.9-41.2 31-30 88.3 4 18.9 15.1 31.6 30 41.2V358.3zm279.4-93.6c-94.3 29.2-187.1 28.4-278.7.4l20.4-33.2c36.3 12.3 77.7 17.3 117 19 39.6-.8 86.1-7.2 122.4-19.4l18.9 33.2z"/><path fill="#FFF212" d="M-75.3 265.1c26.3 10.1 49.8 15.7 68.3 19 6.9 1.2 34.9 6 72.5 5.5 11.5-.1 34.2-.9 62.5-5.5 20.4-3.3 46.3-9 75.4-19.4-6.3-11.1-12.6-22.1-18.9-33.2-22.4 7.5-50 14.4-82 17.6-14.4 1.4-27.9 1.9-40.4 1.8-11.8.3-24.7 0-38.6-1.3-5.6-.5-12.2-1.3-19.8-2.5-13.5-2.1-33.7-6.3-58.6-15.2"/><ellipse transform="rotate(163.97 182.4 259.9)" fill="#ED3237" cx="182.4" cy="259.9" rx="6.7" ry="4.3"/><ellipse transform="rotate(-173.12 -13.4 271.48)" fill="#ED3237" cx="-13.4" cy="271.5" rx="6.7" ry="4.3"/><path fill="#ED3237" d="M160.9 244.5c5 1.8 7.4 4.6 7.2 6.1-.3 1.7-3.1-.5-8.6-1.4-2.2-.4-7.9 1.3-9.8 2.9-3.7 3-2.1 9.9-.4 12.4 2.2 3.2 8.9 2.2 12 .9.8-.3 8.6-5.3 7.2-1.6-3.3 8.5-19.7 15.4-29 4.3-1.8-2.2-2.4-4.8-2.4-7.5 0-3.1 1-6.1 3.1-8.8 1.8-2.4 4.1-4.3 7-5.7 4.3-2.1 9.7-3 13.7-1.6zm-70.6 15.9c-.2 1.1-.2 2.1-.2 2.9 0 .5.2.9.5 1 2 1 12.9-3.1 13.2 1.6.3 5.5-8.3 2.7-12 3.1-.6.1-1 .2-1.3.5-2.7 3.1 6.2 15.3-3.4 13.5-1.9-.3-5.8 1.7-5.8-1.7-.2-7.6-1.8-16.2-2-24.8 0-.6.3-1.2.9-1.7.6-.5 1.3-.8 2.2-.9.6-.1 1.4-.1 2.4-.1 2.3-.1 5-.3 8.1-.6 1.8-.2 11.3-1.7 13 .2 1.3 1.4 1 1.9 1.1 3.8.2 4.2-15.9-.8-16.7 3.2z"/><ellipse fill="#ED3237" cx="54.5" cy="276.7" rx="6.8" ry="4.3"/><path fill="#ED3237" d="M34.8 254.5c4.4 3 6 6.4 5.3 7.8-.7 1.6-2.9-1.3-8-3.5-2.1-.9-8-.8-10.2.3-4.3 1.9-4.6 9.1-3.6 11.9 1.3 3.6 8 4.4 11.4 4 .8-.1 9.7-2.9 7.4.3-5.3 7.4-23 9.8-29.2-3.3-1.2-2.6-1.1-5.3-.4-7.9.8-3 2.5-5.6 5.2-7.7 2.3-1.8 5.1-3.1 8.2-3.7 5-1.1 10.4-.5 13.9 1.8z"/><ellipse transform="rotate(172.63 120.08 273.76)" fill="#ED3237" cx="120.1" cy="273.7" rx="6.8" ry="4.3"/><path fill="#ED3237" d="M-23.2 251.5c-2.4 2.3-3.2 1.8-5.6-.9-3.5-3.8-7.7-3.5-7.5.5.1 1.2.1 2.1 1.8 3.1 2.3 1.3 4.1 3.2 4.4 3.9 2.6 4.8.8 9.1-3.3 10.7-3 1.2-6.6.4-10.2-.5-1.6-.4-3.2-1-4.8-1.8-1.6-.8-2.7-1.5-3.3-2.2-.4-.5-.6-1.5-.5-2.9.6-4.4 4.7-.9 6.6.7.8.7 1.7 1.2 2.8 1.4.9.2 1.8.2 2.5 0s1.2-.5 1.5-1.1c1.9-4.8-4.7-4.2-6.3-7.8-1.2-2.8-.6-9.2 4.4-11.4 7.1-3.1 19.6 6.3 17.5 8.3z"/></svg>