<svg xmlns="http://www.w3.org/2000/svg" viewBox="0 0 369.3 354.4"><g fill-rule="evenodd" clip-rule="evenodd"><path d="M63.4 7.9c78.6 22.9 159.5 23.4 242.8-.6l24 38.2-6.9 5.1-16.4 46.6 8.1 27.3 1.1 156.7-54.5 21.6.2-237.4-52.8 9.4.5 250.7-24.8 18.5-26.2-18.6V71.9l-54-2.1-1.7 228.4-51.5-17.8-2.1-154.6L59.4 95 48.3 58.8l-8-11.6L63.4 7.9z" fill="#FFF212"/><path d="M96.8 31.9c-2.4 2.3-3.2 1.8-5.6-.9-3.5-3.8-7.7-3.5-7.5.5.1 1.2.1 2.1 1.8 3.1 2.3 1.3 4.1 3.2 4.4 3.9 2.6 4.8.8 9.1-3.3 10.7-3 1.2-6.6.4-10.2-.5-1.6-.4-3.2-1-4.8-1.8-1.6-.8-2.7-1.5-3.3-2.2-.4-.5-.6-1.5-.5-2.9.6-4.4 4.7-.9 6.6.7.8.7 1.7 1.2 2.8 1.4.9.2 1.8.2 2.5 0s1.2-.5 1.5-1.1c1.9-4.8-4.7-4.2-6.3-7.8-1.2-2.8-.6-9.2 4.4-11.4 7.1-3.1 19.6 6.3 17.5 8.3zm58 3c4.4 3 6 6.4 5.3 7.8-.7 1.6-2.9-1.3-8-3.5-2.1-.9-8-.8-10.2.3-4.3 1.9-4.6 9.1-3.6 11.9 1.3 3.6 8 4.4 11.4 4 .8-.1 9.7-2.9 7.4.3-5.3 7.4-23 9.8-29.2-3.3-1.2-2.6-1.1-5.3-.4-7.9.8-3 2.5-5.6 5.2-7.7 2.3-1.8 5.1-3.1 8.2-3.7 5-1.1 10.4-.5 13.9 1.8zm55.5 5.9c-.2 1.1-.2 2.1-.2 2.9 0 .5.2.9.5 1 2 1 12.9-3.1 13.2 1.6.3 5.5-8.3 2.7-12 3.1-.6.1-1 .2-1.3.5-2.7 3.1 6.2 15.3-3.4 13.5-1.9-.3-5.8 1.7-5.8-1.7-.2-7.6-1.8-16.2-2-24.8 0-.6.3-1.2.9-1.7.6-.5 1.3-.8 2.2-.9.6-.1 1.4-.1 2.4-.1 2.3-.1 5-.3 8.1-.6 1.8-.2 11.3-1.7 13 .2 1.3 1.4 1 1.9 1.1 3.8.2 4.2-15.9-.8-16.7 3.2z" fill="#ED3237"/><ellipse transform="rotate(-106.03 302.35 40.26)" cx="302.3" cy="40.3" rx="4.3" ry="6.7" fill="#ED3237"/><path d="M280.9 24.9c5 1.8 7.4 4.6 7.2 6.1-.3 1.7-3.1-.5-8.6-1.4-2.2-.4-7.9 1.3-9.8 2.9-3.7 3-2.1 9.9-.4 12.4 2.2 3.2 8.9 2.2 12 .9.8-.3 8.6-5.3 7.2-1.6-3.3 8.5-19.7 15.4-29 4.3-1.8-2.2-2.4-4.8-2.4-7.5 0-3.1 1-6.1 3.1-8.8 1.8-2.4 4.1-4.3 7-5.7 4.3-2.1 9.7-3 13.7-1.6zM44 135c-17.2 8.4-36.7 32.7-39 66.7-1.9 29 7.8 59.6 39 73.8V135z" fill="#ED3237"/><ellipse transform="rotate(-83.12 106.6 51.88)" cx="106.6" cy="51.9" rx="4.3" ry="6.7" fill="#ED3237"/><ellipse cx="174.5" cy="57.1" rx="6.8" ry="4.3" fill="#ED3237"/><ellipse transform="rotate(-97.37 240.1 54.13)" cx="240.1" cy="54.1" rx="4.3" ry="6.8" fill="#ED3237"/><path d="M320 133.7c17.2 8.4 39.1 34 41.4 68 1.9 29-8.7 57.3-39.9 71.4L320 133.7zm-59.2-66.8l-48.2 4.9v245.4l52.6-18.9M105.4 66.9l48.1 4.9v245.4L101 298.3" fill="#ED3237"/><path d="M54.7 59.4c8.6 16.5 10.5 37.3 9 48.8-1 7.1-3.6 12.7-7.1 17.6v149.5c12.4 6 26.4 10.8 40.7 15.5V70C83.2 67.2 69 63.6 54.7 59.4zM321.9 140v129.7c15-9.5 26.2-22.2 30.3-41.5 10.9-56-11.6-72.3-30.3-88.2zm0 144.6c-15.9 8.3-34.4 14.4-53 20.9-31.9 11.1-64.1 23.3-84.1 48.9l-.3-.5v.5c-9.1-11.7-20.8-20.6-33.9-27.9-31.8-17.7-68.1-24.4-100.6-40.6l-6.1-3.2C23.8 271.5 8.4 256.4 3.2 232c-14.5-74.5 21.4-82.2 40.7-104.4l4.3-5.7c3.1-4.8 5.4-10.4 6.4-17.4 2.1-16.5-10-41.4-23.2-56.3L60.1 0c39.8 13.5 81.4 18.4 124.5 20.2 43.5-.8 84.7-6.8 124.5-20.2l28.5 48.2c-13.1 14.9-25.3 39.8-23.2 56.3 6.6 46 69.9 32.7 51.4 127.5-5.3 25.9-22.1 41.2-43.9 52.6zm-12.6-7.9v-149c-4.3-5.4-7.6-11.6-8.7-19.6-1.5-11.4 5.6-33.4 14.3-49.4-15.2 4.8-30.6 8.8-46 11.9v221.2c14.2-4.6 28.1-9.3 40.4-15.1zm-53 19.3V73c-13.3 2.3-26.6 3.9-40.1 4.9v234.5c12.4-6.7 26.2-11.7 40.1-16.4zm-52.7 24.1V78.6c-13.4.6-26.8.5-40.4-.2v240c8.2 5.4 15.4 11.7 21.4 19.4 5.5-6.9 11.9-12.7 19-17.7zm-52.9-9V77.6c-13.5-1.1-27.1-2.8-40.7-5.2v222.5c14 4.7 28 9.7 40.7 16.2zM44 138.7c-18.4 15.9-41.2 31-30 88.3 4 18.9 15.1 31.6 30 41.2V138.7zm279.4-93.6c-94.3 29.2-187.1 28.4-278.7.4l20.4-33.2c36.3 12.3 77.7 17.3 117 19 39.6-.8 86.1-7.2 122.4-19.4l18.9 33.2z" fill="#00A859"/></g></svg>