<svg xmlns="http://www.w3.org/2000/svg" width="334.5" height="343" viewBox="0 0 334.5 343"><path fill-rule="evenodd" clip-rule="evenodd" fill="#FFF" d="M163.3 337.6c-19.9-28.9-46.6-37.2-77.4-46.9-13.8-4.3-28-8.8-42.5-15.4l-.2-.1-.2-.1C20.6 262.5 4.8 238.5.8 210.8c-3.9-27.3 4.6-54 23.4-73.3l.2-.2.2-.2c17-13.6 25.8-26.8 26.7-40.3C52.4 85 46.9 72.6 35.2 60l-2.1-2.2L60.4 0l3.7 1.1C100 11.8 133.7 17 167.1 17c33.4 0 67.1-5.2 103-15.9l3.7-1.1 27.3 57.8L299 60c-11.7 12.5-17.1 24.9-16.3 36.8 1 13.5 9.7 26.7 26.7 40.3l.2.2.2.2c18.8 19.2 27.3 45.9 23.4 73.3-4 27.7-19.7 51.7-42.2 64.3l-.2.1-.2.1c-14.5 6.6-28.7 11.1-42.5 15.4-30.9 9.7-57.6 18.1-77.5 46.9l-3.7 5.4-3.6-5.4z"/><path fill-rule="evenodd" clip-rule="evenodd" fill="#FFCB05" d="M163.6 337.6c-19.9-28.9-46.6-37.2-77.4-46.9-13.8-4.3-28-8.8-42.5-15.4l-.2-.1-.2-.1c-22.4-12.6-38.2-36.6-42.2-64.3-3.9-27.3 4.6-54 23.4-73.3l.2-.2.2-.2c17-13.6 25.8-26.8 26.7-40.3 1-11.8-4.5-24.2-16.2-36.8l-2.1-2.2L60.7 0l3.7 1.1C100.3 11.8 134 17 167.4 17c33.4 0 67.1-5.2 103-15.9l3.7-1.1 27.3 57.8-2.1 2.2c-11.7 12.6-17.2 25-16.3 36.9 1 13.5 9.7 26.7 26.7 40.3l.2.2.2.2c18.8 19.2 27.3 45.9 23.4 73.3-4 27.7-19.7 51.7-42.2 64.3l-.2.1-.2.1c-14.5 6.6-28.7 11.1-42.5 15.4-30.9 9.7-57.6 18.1-77.5 46.9l-3.7 5.4-3.6-5.5z"/><path fill-rule="evenodd" clip-rule="evenodd" fill="#004B1C" d="M167.3 335c-29.9-43.5-75.4-42.7-121.8-63.9-42-23.6-57.5-89.8-17.8-130.5C52 121.1 72 92.7 38.7 56.8L63.1 5.4c72 21.4 136.5 21.4 208.5 0L296 57c-33.3 35.8-13.3 64.3 11 83.8 39.8 40.7 24.3 106.9-17.8 130.5-46.3 21.1-91.8 20.3-121.9 63.7"/><path fill-rule="evenodd" clip-rule="evenodd" fill="#FFCB05" d="M53.4 55.4l16.5-34.8c66 19.3 128.7 19.3 194.6 0L281 55.4C203.7 78 130.7 78 53.4 55.4m9.8 14.4c10 2.6 19.9 5 30.1 6.9v198.2c-11.7-3.8-21.8-5.7-31.3-9.8V122.4c9.3-16.3 9.1-36.1 1.2-52.6m104.1 246.1c-4.8-5.1-9.8-10-16-14.5V83.6c10.6.5 21.3.5 32 0v217.7c-6.2 4.6-11.3 9.5-16 14.6M271.4 69.8c-10.1 2.6-19.9 5-30.1 6.9v198.2c11.7-3.8 21.8-5.7 31.4-9.8V122.4c-9.5-16.3-9.3-36.1-1.3-52.6"/><path fill-rule="evenodd" clip-rule="evenodd" fill="#D71920" d="M286.4 140.5v117.1c9.5-5.4 30.4-30.5 29.6-59.3-1.8-40.7-15.3-45.2-29.6-57.8m-58.8-61.3c-10.3 1.5-20.7 2.8-31.4 3.7v209.8c9.5-5.3 19.9-9.8 31.4-13.5v-200zm-120.6 0c10.3 1.5 20.7 2.8 31.4 3.7v209.8c-9.5-5.3-19.9-9.8-31.4-13.5v-200zm-58.8 61.3v117.1c-9.5-5.4-30.4-30.5-29.6-59.3 1.7-40.7 15.3-45.2 29.6-57.8"/><path fill="#D71920" d="M64.2 48.3c2.6-1.5 3.8-2.2 6.3-3.7 2.3 3.1 5.3 5.3 8.9 6.3 2.3.6 3.7.2 4-1v-.1c.3-1.2-.5-2.1-4.4-4.1-6-3.2-10.3-6.5-8.5-12.3v-.1c1.7-5.2 7-7.6 13.8-5.7 4.8 1.3 8.3 3.6 10.8 6.9-2.1 1.9-3.2 2.8-5.4 4.6-2.2-2.5-4.9-4.3-7.4-5-1.9-.5-3.1 0-3.4 1v.1c-.4 1.3.5 2.2 4.3 4.2 6.4 3.3 10.2 6.4 8.9 11.8v.1c-1.4 5.9-7.3 8.2-14.9 6.2-5.5-1.7-10.3-4.9-13-9.2m59 2.9c1.2-8.6 8.6-14.4 17.4-13.6 5.9.5 9.6 3.2 12.1 7-2.6 1.8-3.9 2.7-6.5 4.4-1.6-2.2-3.4-3.7-6.3-3.9-4.2-.4-7.5 2.8-8 7.1v.1c-.5 4.4 2.2 8.2 6.6 8.6 3.3.3 5.3-1 7.3-3.1 2.5 1.9 3.7 2.9 6.3 4.7-3.1 3.7-7.4 6.4-14.5 5.7-9.1-.8-15.6-8.2-14.4-17m59.4-12.3c9.4-.5 14-.9 23.3-2.1.4 2.9.6 4.3.9 7.1-6.2.8-9.3 1.1-15.6 1.6.2 2 .2 3 .4 5 5.7-.5 8.6-.7 14.3-1.4.3 2.7.5 4.1.8 6.8-5.8.7-8.8 1-14.6 1.5.3 4.2.5 6.3.8 10.5-3.5.3-5.3.4-8.9.6-.5-11.9-.8-17.8-1.4-29.6m54.9 7.4c-.1 0-.1 0 0 0-1.9-8.5 3-16.5 11.6-18.9 5.8-1.6 10.2-.4 13.9 2.3-1.8 2.6-2.7 3.9-4.6 6.5-2.3-1.5-4.6-2.3-7.3-1.5-4.1 1.1-6.1 5.3-5 9.4v.1c1.1 4.3 5 6.9 9.3 5.7 3.2-.9 4.7-2.8 5.8-5.4 3 .9 4.5 1.4 7.6 2.2-1.7 4.6-4.8 8.6-11.7 10.5-9 2.4-17.7-2.3-19.6-10.9"/></svg>