<svg id="Layer_1" xmlns="http://www.w3.org/2000/svg" viewBox="-206.2 310.3 187.1 172.6"><style>.st0{fill:#FFFFFF;} .st1{fill:#CD3529;}</style><path d="M-112.6 482.9c-18-17.3-31.4-10.5-49.6-28l-5 4.2c-15.2-10.6-25.1-24-31.3-39.5-11.9-2.1-9-15.2 3.1-14.2l20.6-39.4-17.6-9.3 23.7-42.9c23.2 5 25.9-13 56.1 3.5 30.3-16.5 33 1.6 56.2-3.5l23.7 42.9-17.6 9.3 20.6 39.4c12.1-1 15 12.1 3.1 14.2-6.2 15.5-16.1 28.9-31.3 39.5l-5-4.2c-18.2 17.5-31.7 10.7-49.7 28z"/><path class="st0" d="M-196.9 409.9h5.7l24.2-46.3-17.5-9.2 18.7-33.9c8.2 1.6 17.2-1.7 25-3.7 5.1-.9 9-.5 13.9.9s9.6 4 14 6.4c7.3-3.7 14.8-7.8 23.2-7.8 8 .8 15.2 4.1 23.3 4.6 2 0 4.7.1 6.6-.3l18.7 33.9-17.5 9.2 24.2 46.3h5.4c5.1 0 4.6 5.8 0 5.8h-2.6c-3.5 8-7.5 16.1-13.2 22.9-4.1 4.9-8.4 9-13.2 12.9l-5.5-4.8c-5.5 5.4-10.9 10.4-18.1 13.4-4.1 1.9-8.6 3.1-12.9 4.7-6.6 2.1-13.1 5.7-18.4 10.1-5.3-4.4-11.9-8-18.4-10.1-6.2-2.4-12.6-4.1-18.3-7.5-4.8-2.8-8.6-6.7-12.6-10.6l-5.5 4.8c-8.9-7.3-15.6-14.9-21.2-25-1.8-3.5-3.5-7.4-5-11h-3.1c-4.1 0-4.3-5.7.1-5.7z"/><path d="M-119 384.2v7h4.5v-7zm-1.4-25.5v7h10.6v-7zm1.1 14.3v6.9h10.8V373zm-2.5-25.3v6.9h18.3v-6.9zm-5.7 83.2v6.9h29v-6.9zm6-15.2v6.9h16.9v-6.9zm2.9-21.8v7h10.8v-7z"/><path d="M-185.1 409.9h2.6c1.8 0 3.2 1.3 3.2 2.8 0 1.7-1.4 3-3.2 3l-5.6-.1c4.7 11.1 11.4 20.8 20.5 28.9l5.6-4.8 4.3 4c2.1 2.1 8.2 9.1 12.7 9.1 37.2.8 35.3-107.9 14.3-129.5-1.8-1.9-6.4-1.8-9.2-1.2-7.6 2.1-15 4.4-22.9 4.2l-14.4 26 17.3 9.1-25.2 48.5z"/><path class="st1" d="M-40.5 409.9h-2.7c-1.8 0-3.2 1.3-3.2 2.8 0 1.7 1.4 3 3.2 3l5.7-.1c-4.6 11.1-11.3 20.8-20.5 28.9l-5.6-4.8-4.4 4c-2.1 2.1-8.2 9.1-12.6 9.1-37.3.8-35.3-107.9-14.3-129.5 1.8-1.9 6.4-1.8 9.2-1.2 7.6 2.1 15 4.4 22.9 4.2l14.4 26-17.4 9.1 25.3 48.5z"/><path class="st0" d="M-110.8 359.7h-16.5v4.9h16.5zm-31.1 5.9c.1-.3.7-.9 1-1h4.6v-4.9h-4.6c-2.9 0-5.9 3-5.9 5.9v6.5h4.9v-6.5zm53 8.4h-4.2v4.9h4.2zm-14 0h-24.2v4.9h24.2zm-45.7 4.9h12.5V374h-12.5c-5.6 0-9.7 5.1-10.1 12.4v1c0 6.8 4.1 11.9 9.5 12.5V395c-3.2-.3-4.6-4.1-4.6-7.6v-.7c.2-3.9 2-7.8 5.2-7.8zm8.9 21h3.3v-5h-3.3zm36.8-5h-23.8v5h23.8zm12.1 21.8h-2.3v4.9h2.3c5.8 0 9-7.3 9-14.1 0-2.2-.3-5.5-1.9-8.2-1.6-2.8-4.1-4.4-7.1-4.4h-2.3v4.9h2.3c.8 0 1.9.2 2.8 1.9.8 1.4 1.2 3.5 1.2 5.8.1 4.8-1.9 9.2-4 9.2zm-36.3 4.9h24.2v-4.9h-24.2zm-12.5 0h2.8v-4.9h-2.8zm-12.7 0h3v-4.9h-3z"/><path class="st0" d="M-129.4 354.5c0-.4.1-.9.8-.9h35c.7 0 1.4 0 1.4 2.1h4.9c0-4.4-2.4-7.1-6.3-7.1h-35c-3.3 0-5.7 2.5-5.7 5.8v27.7h4.9v-27.6zm37.5 75.1v.6c0 .5-.2 1.1-.5 1.5-.2.2-.3.2-.4.2h-35.8c-.5 0-.8-.3-.8-.9v-39h-4.9v39c0 3.3 2.5 5.8 5.7 5.8h35.8c1.6 0 3.1-.7 4.1-2 1-1.3 1.6-3 1.6-4.6 0-.4 0-.2-.1-.6h-4.7z"/><path class="st0" d="M-75.7 372.9v-9.3c0-3.2-2.4-5.8-5.4-5.8h-14.2c-3 0-5.5 2.6-5.5 5.8v58.3c0 3.2 2.5 5.8 5.5 5.8h14.2c3.2 0 5.4-2.3 5.4-5.8v-6.1h-4.9v6.1c0 .5-.1.8-.1.8h-14.5c-.2 0-.5-.3-.5-.9v-58.3c0-.5.3-.9.5-.9H-81c.2 0 .5.4.5.9v9.3l4.8.1zm-39.9 17.3v-4.9h-26.3V381h-5v46.2h5v-37z"/></svg>