<svg xmlns="http://www.w3.org/2000/svg" width="520.78" height="530.19" viewBox="30.849 134.73 520.779 530.193"><path d="M291.23 663.75C161.25 583.77 73.05 492.57 32.1 365.18c81.12-31.06 84.3-93.85 7-132.48l114.66-96.63c39.66 37.65 84.96 54.07 137.47 55.73 52.52-1.66 97.83-18.08 137.48-55.73l114.7 96.63c-77.3 38.63-74.1 101.42 7.1 132.48-41 127.4-129.2 218.6-259.18 298.57zm0-14.3C168.93 573.32 90.5 499.18 47.6 371.15c76.17-28.67 83.53-100.77 12.5-138.7l93.66-80.03c39.66 37.66 84.96 49.55 137.47 51.2 52.52-1.65 97.83-13.54 137.5-51.2l93.66 80.02c-71.1 37.95-63.7 110.05 12.4 138.7-42.86 128.06-121.3 202.2-243.6 278.34z"/><path fill="#FFF" d="M291.23 664.92l-.52-.32c-68.2-42-121.6-85.08-163.1-131.7-44.8-50.26-76.3-105.03-96.4-167.4l-.3-.9.9-.35c38.3-14.68 61-37.52 62.24-62.65 1.25-25.03-18.93-49.8-55.34-68l-1.37-.7 116.5-98.17.6.62c37.5 35.58 82.24 53.73 136.8 55.45 54.53-1.73 99.3-19.87 136.77-55.45l.64-.62 116.5 98.18-1.35.7c-36.4 18.2-56.6 43-55.36 68 1.23 25.2 23.93 48 62.27 62.7l.9.38-.3.9c-20.03 62.38-51.6 117.15-96.4 167.4-41.5 46.63-94.9 89.7-163.15 131.7l-.53.33zM33.33 365.78c38.55 119.1 118.14 210.7 257.9 296.8 139.78-86.1 219.36-177.7 257.9-296.8-38.57-15-61.4-38.32-62.66-64.1-1.25-25.52 18.8-50.7 55.1-69.2L428.75 137.4c-37.73 35.55-82.7 53.67-137.5 55.4-54.82-1.73-99.8-19.85-137.52-55.4L40.9 232.5C77.2 251 97.26 276.18 96 301.7c-1.25 25.78-24.08 49.1-62.67 64.1zm257.9 284.86l-.52-.33c-67.8-42.2-114.6-79.1-151.8-119.8-42-46-71.3-96.5-92.2-159l-.3-.9.9-.33c36.3-13.66 59.1-38.56 60.9-66.6 1.8-27.23-15.9-52.85-48.52-70.3l-1.3-.7 95.48-81.52.67.63c35.1 33.32 77.3 49.03 136.8 50.9C350.8 200.8 393 185.1 428.1 151.78l.65-.64 95.46 81.53-1.3.7c-32.62 17.45-50.32 43.07-48.54 70.3 1.86 28.04 24.6 52.94 60.95 66.6l.9.35-.3.9c-20.94 62.5-50.24 113.04-92.23 159-37.2 40.7-84 77.67-151.82 119.88l-.53.34zM48.87 371.74c44.4 131.74 129.02 205.9 242.38 276.55 113.35-70.7 197.98-144.8 242.38-276.6-36.55-14.1-59.44-39.4-61.32-68.08-1.8-27.65 15.8-53.65 48.4-71.45l-91.85-78.48c-35.4 33.3-77.84 49-137.54 50.87C231.6 202.7 189.15 187 153.8 153.73l-91.88 78.5c32.53 17.8 50.13 43.8 48.32 71.46-1.9 28.6-24.77 54-61.32 68z"/><path fill="#FFF" d="M70.53 222.4v15.24c-3.3-2.17-6.8-4.26-10.53-6.25l10.53-9zm0 136.52v68.04C61.95 409.2 54.3 390.33 47.5 370.1c8.56-3.22 16.23-6.98 23.03-11.18z"/><path d="M119.4 505.08V180.64l-48.85 41.74v15.27c52.46 34.52 50.6 90 0 121.26V427c13.84 28.63 30.1 54.36 48.86 78.08z"/><path fill="#FFF" d="M168.28 163.9v393.7c-17.9-16.58-34.15-33.94-48.87-52.53V180.64l34.3-29.26c4.8 4.54 9.7 8.7 14.6 12.53z"/><path d="M216.96 598.07V190.25c-17.1-5.97-33.3-14.48-48.68-26.34v393.7c15.07 14 31.28 27.4 48.68 40.5z"/><path fill="#FFF" d="M265.76 200.84v431.38c-17.23-11.3-33.52-22.64-48.87-34.2V190.2c15.5 5.43 31.7 8.77 48.8 10.63z"/><path d="M314.63 633.47V201.05c-7.67.78-15.5 1.27-23.5 1.52-8.64-.27-17.1-.82-25.37-1.73V632.2c8.25 5.42 16.7 10.82 25.4 16.23 8-5 15.83-9.97 23.47-14.96z"/><path fill="#FFF" d="M359.4 192.2v410.3c-14.15 10.44-29.07 20.72-44.77 30.97V201.04c15.57-1.58 30.48-4.38 44.77-8.83z"/><path d="M408.2 562.9V168.2c-15.44 10.94-31.7 18.68-48.86 24.03v410.3c17.44-12.87 33.7-26 48.87-39.63z"/><path fill="#FFF" d="M456.85 175.5v337.03c-14.7 17.76-30.9 34.4-48.64 50.37V168.2c7-4.93 13.8-10.5 20.5-16.82l28.2 24.1z"/><path d="M505.7 439v-84.1c-42.74-30.5-44.18-79.82 0-113v-24.7l-48.85-41.72v337.05c18.6-22.46 34.86-46.7 48.86-73.52z"/><path fill="#FFF" d="M505.83 438.78v-83.8c8.16 5.8 17.82 10.93 28.95 15.12-8.3 24.78-17.93 47.53-28.95 68.68zm0-196.97v-24.4l16.47 14.1c-6.07 3.22-11.54 6.72-16.47 10.4z"/><path d="M433.1 149.87l93.67 78.3-373.98 325.8L75.3 457l357.8-307.12zm4.9 10.35l78.1 65.65-362.5 315.1-63.2-81.24L438 160.23z"/><path fill="#FFF" d="M438 160.16l78.1 65.65-362.5 315.1-63.2-81.2"/><path d="M110.68 469.5l43.78-38.92 10.07 12.1-14.7 13.07 30.7 36.87-14.4 12.8-30.7-36.86-14.68 13.05-10.07-12.1zm80.62-71.68l14.38-12.8 24.3 29.2c2.42 2.9 4.25 6.02 5.54 9.36 1.27 3.33 1.8 6.78 1.58 10.34s-1.03 6.6-2.4 9.2c-1.9 3.56-4.8 7.1-8.72 10.6-2.27 2-4.88 4.05-7.84 6.1-2.96 2.04-5.75 3.37-8.37 3.98-2.63.6-5.46.66-8.47.17-3.02-.5-5.6-1.47-7.77-2.9-3.48-2.33-6.22-4.7-8.23-7.1l-24.3-29.2 14.38-12.8 24.88 29.9c2.23 2.68 4.67 4.14 7.32 4.4 2.66.24 5.24-.74 7.75-2.97 2.47-2.2 3.8-4.68 3.98-7.42.2-2.7-.8-5.45-3.1-8.16l-24.9-29.9zm23.86-21.2l23.94-21.3c5.2-4.63 10.2-6.8 14.96-6.5 4.76.3 9.15 2.85 13.15 7.65 4.2 4.95 6 10.07 5.5 15.37-.5 5.3-3.7 10.53-9.5 15.7l-7.86 7 15.13 18.18L256 425.58l-40.75-48.97zm31.84 8l3.52-3.13c2.78-2.5 4.3-4.7 4.6-6.8.26-2-.25-3.8-1.56-5.4-1.28-1.55-2.86-2.4-4.72-2.6-1.86-.2-4.14.9-6.83 3.3l-4.1 3.62 9.1 10.9zm15.8-50.4l14.44-12.82L318 370.37l-14.44 12.84-40.75-48.9zm46.55-41.38l35.62-31.67 8.76 10.52-21.15 18.8 7.12 8.5 18.06-16 8.22 9.83-18.05 16.06 16.65 20-14.47 12.87-40.7-48.93zm62 6.37l13.85-12.3 11.34 13.7-13.84 12.3-11.34-13.6zm69.96-73.3l16-7.2c2.3 4.5 3.5 8.8 3.8 12.9.26 4.1-.44 8-2.1 11.7-1.63 3.7-4.55 7.4-8.7 11.1-5.07 4.5-9.86 7.4-14.35 8.7-4.5 1.3-9.55 1.07-15.13-.75-5.56-1.83-10.9-5.77-15.94-11.85-6.75-8.1-9.9-16.18-9.4-24.17.48-8 4.47-15.34 11.97-22 5.85-5.23 11.5-8.1 16.94-8.6 5.45-.5 11.13 1.14 17.06 4.85l-10.24 14.3c-1.7-1.1-3.08-1.8-4.15-2.04-1.75-.43-3.5-.44-5.16-.04-1.7.42-3.26 1.27-4.7 2.55-3.26 2.9-4.6 6.5-4.06 10.8.4 3.25 2.4 7.05 6.06 11.44 4.53 5.4 8.4 8.42 11.66 9.05 3.25.63 6.3-.33 9.1-2.84 2.78-2.44 4.18-5.1 4.24-8 .08-2.86-.86-6.13-2.8-9.8zm25.3-11.3l13.85-12.3 11.34 13.6-13.84 12.3-11.34-13.6z"/></svg>