<svg xmlns="http://www.w3.org/2000/svg" width="520.85" height="617.29" viewBox="0 0 520.854 617.292"><path fill-rule="evenodd" clip-rule="evenodd" fill="#ED1D25" d="M166.97 1.25c62.56.05 125.1.1 187.66.2C383.53 75.92 435.68 113.77 518.7 103c12.65 304.76-107.4 430.55-259.66 512.85-208-110.96-272-292.83-255.28-514.53 84.68 5.28 141.03-25.6 163.2-100.07z"/><path fill-rule="evenodd" clip-rule="evenodd" fill="#FFF" d="M4.92 102.66C.76 158.9 1.98 211.66 8.6 259.5c7.03 50.82 20.37 97.97 39.7 140.1 20.22 44.13 47.7 84.3 81.66 119.35 35.27 36.4 78.7 68.52 129.1 95.48 41.68-22.57 76.27-45.98 105.76-71.53 34.62-30 62.38-62.94 84.82-100.7 12.07-20.27 22.63-42.18 31.44-65.14 9.2-24.02 16.8-50 22.58-77.2 5.98-28.27 10.2-58.83 12.5-90.8 2.38-32.7 2.8-67.9 1.33-104.65-8.8 1.2-17.5 1.7-25.7 1.7-16.8 0-32.5-2.3-46.7-6.9-14-4.5-26.9-11.3-38.4-20.2-22-17.16-39.8-42.76-52.97-76.2-31.3-.08-62.6-.1-93.9-.1-30.64-.06-61.3-.1-91.94-.15-5.1 16.87-12.1 31.8-20.76 44.37-8.75 12.68-19.46 23.34-31.8 31.7C91.2 94.92 59.7 103.2 21.7 103.2c-5.4 0-11.06-.17-16.76-.5zM259.06 617.3l-.6-.32c-50.88-27.16-94.7-59.53-130.32-96.28-34.14-35.26-61.8-75.66-82.16-120.06-19.4-42.32-32.83-89.72-39.88-140.8-6.67-48.35-7.86-101.7-3.6-158.6l.1-1.25h1.25c6.06.4 12.07.55 17.82.55 37.5 0 68.53-8.13 92.24-24.2 12.2-8.17 22.6-18.63 31.2-31 8.7-12.6 15.7-27.6 20.77-44.55l.26-.87h.93l92.9.1c31.6 0 63.17.02 94.76.1h.85l.3.8c13 33.4 30.63 58.94 52.47 75.9 11.3 8.75 23.9 15.42 37.6 19.84 13.97 4.5 29.44 6.77 45.96 6.77 8.55 0 17.5-.6 26.74-1.8l1.34-.2.05 1.4c1.55 37.34 1.1 73.1-1.3 106.3-2.32 32.08-6.54 62.75-12.55 91.16-5.8 27.33-13.42 53.4-22.68 77.56-8.87 23.1-19.5 45.14-31.6 65.55-22.62 38-50.53 71.17-85.37 101.3-29.8 25.8-64.7 49.45-106.8 72.18l-.6.35z"/><path fill-rule="evenodd" clip-rule="evenodd" fill="#FFF" d="M16.9 116.04C4.2 326.17 67.5 494.57 259 599.74c24-13.26 47.35-27.83 69.42-44.2 58.85-43.68 103.07-96.5 132.67-163.86 37.2-84.6 46.5-181.2 43.9-273.15C428.3 123.4 375.5 86.55 345 15.6l-167.88-.2C151.1 88.7 91.9 117.2 16.84 116z"/><path fill-rule="evenodd" clip-rule="evenodd" fill="#ED1D25" d="M466.6 223.6l10.27-4.14 3.8 9.83-10.28 4.1-3.8-9.9zm-16.6 1.36l10.5-.88c.4 2.92.3 5.55-.4 7.9-.64 2.33-1.8 4.37-3.44 6.1-1.68 1.7-4.06 3.2-7.14 4.45-3.77 1.5-7.06 2.2-9.86 2.04-2.84-.17-5.67-1.3-8.5-3.43-2.8-2.1-5.04-5.33-6.74-9.72-2.27-5.84-2.5-10.94-.68-15.28 1.84-4.37 5.55-7.68 11.13-9.92 4.35-1.73 8.12-2.2 11.32-1.42 3.2.8 6.1 2.8 8.7 6.04l-8.6 5.92c-.78-.93-1.44-1.58-1.97-1.92-.94-.6-1.93-.97-2.95-1.05-1.06-.2-2.13 0-3.18.4-2.44.94-3.9 2.7-4.42 5.22-.4 1.85 0 4.37 1.24 7.55 1.53 3.9 3.14 6.35 4.87 7.34 1.74.96 3.66 1 5.76.2 2.05-.82 3.35-2.04 3.95-3.63s.7-3.6.35-6zm-38 20.58l3.82 9.8 10.26-4.13-3.8-9.8-10.28 4.2zm-34.08-15.73l26.46-10.6 2.94 7.6-15.72 6.38 2.38 6.13 13.43-5.36 2.8 7.1-13.4 5.4 5.6 14.4-10.7 4.34-13.68-35.3zm-26.3 35.8l-8.75-11.1 1.1 14.2 7.66-3zm5.2 6.8l-12.22 4.9.6 6.5-10.94 4.4-.65-40.5 11.7-4.7 26.7 30-11.2 4.5-3.93-5.1zm-71.03-5.45l11.1-4.54 17.64 22.3-2.18-28.5 10.86-4.37.83 40.45-11.6 4.66-26.77-30zm-18.6 27.9c1.3 3.58 3 5.85 4.9 6.9 1.9 1 4 1.08 6.2.2 2.2-.94 3.7-2.4 4.4-4.42.65-2.03.22-5-1.3-8.95-1.28-3.34-2.9-5.5-4.8-6.5s-4-1.03-6.2-.12c-2.17.85-3.6 2.32-4.3 4.42-.7 2.06-.4 4.9 1.02 8.5zm-10.8 4.27c1.6 4.13 3.7 7.2 6.35 9.3 2.66 2.14 5.53 3.3 8.6 3.5 3.02.26 6.5-.42 10.4-2 3.85-1.53 6.76-3.55 8.8-6.04 2-2.52 3.15-5.36 3.5-8.53.36-3.16-.3-6.85-1.88-10.96-2.2-5.68-5.5-9.48-9.8-11.37-4.38-1.9-9.4-1.67-15.2.63-5.6 2.23-9.38 5.6-11.27 10.1-1.9 4.43-1.76 9.6.48 15.32zm-45.7-2.1l10-4.02 20.6 14.3-7.56-19.52 10.1-4.08 13.64 35.3-10 4.05L227 308.9l7.5 19.35-10.07 4.05-13.7-35.3zm-26.3 35.8l-8.8-11.13 1.1 14.2 7.67-3.07zm5.2 6.73l-12.2 4.93.6 6.5-11 4.4-.65-40.52 11.7-4.68 26.68 30.02-11.2 4.5-3.95-5.15zm-65-7.9l10.7-4.3 10.25 26.6 16.72-6.75 3.36 8.7-27.42 11.03-13.65-35.3zm-18.45 7.4l13.68 35.3 10.7-4.32-13.65-35.26-10.7 4.27zM64.7 355.67l11.2-4.48 17.6 22.2-2.14-28.5 10.88-4.3.82 40.4-11.62 4.62L64.7 355.6zm24 57.43L481.63 251c-6.3 46.22-17.67 91.6-36.23 133.77-28.4 64.6-70.74 115.07-127.2 156.97-18.9 14.03-38.8 26.68-59.2 38.33-78.74-44.94-134.04-101.1-170.3-166.98zM33.23 132.96c-3.18 75.72 4.05 145.52 24.53 208.43l430.47-182.9c.12-7.5.12-15 .03-22.5-70.9-1.17-122.64-37.8-154.17-103.35-48.4-.05-96.8-.08-145.2-.14-28.4 67-84.97 97.33-155.76 100.36z"/></svg>