<svg xmlns="http://www.w3.org/2000/svg" viewBox="-417.8 607 160.5 187.1"><path d="M-346 616c-18 19.5-38.8 31.1-61.8 34.3l-9.1 1.3-.6 9.2c-1.1 15 .9 30.9 5.5 46l.1.3c11.3 36.5 36.5 67.1 69.2 84.2l5.4 2.8 5.3-2.8c32.7-17 58-47.7 69.2-84.2l.1-.3v-.1c4.4-14.9 6.2-30.8 5.1-45.9l-.6-9.2-9.1-1.3c-23-3.3-43.2-14.5-61.9-34.4l-8.4-8.9-8.4 9z"/><path fill="#FFF" d="M-342.8 619c-18.7 20.3-40.4 32.3-64.4 35.7l-5.6.8-.4 5.7c-1 14.4.8 29.8 5.3 44.4l.1.3c10.9 35.4 35.4 65.1 67 81.6l3.3 1.7 3.3-1.7c31.7-16.5 56.1-46.2 67.1-81.6l.1-.3c4.3-14.4 6-29.8 4.9-44.3l-.4-5.7-5.6-.8c-24-3.4-45.1-15.1-64.5-35.8l-5.2-5.5-5 5.5z"/><path d="M-274 703.5h-127.2l.1.2c10.4 33.6 33.5 61.8 63.6 77.4h.2c30-15.6 53.2-43.9 63.6-77.4l.1-.2h-.4z"/><path fill="#CD3529" d="M-273.8 703.7c4.2-14 5.7-28.6 4.7-42.1-25.4-3.6-48.1-16.1-68.6-37.9-20.1 21.8-43.2 34.3-68.6 37.9-.9 13.5.8 28 5.1 42.1h127.4z"/><path fill="#FFF" d="M-387.3 666.4l14.6-7.6c-.2 4.5.4 10 2.5 14.4l14.2 30.7v17.2l-21.2-44.2c-2.1-4.1-6.5-7.1-10.1-10.5zm100.8 1.3l-14.6-7.6c.2 4.5-.6 10-2.5 14.4l-22.7 51.4 8.9-1.3 20.8-46.2c2-4.3 6.5-7.3 10.1-10.7zm-70.8 85.7h13.1v-45.1h13.6c2.8 0 4.5 3.6 6.6 5.5l.2-18.6c-2.3 1.7-3.8 4.9-6.6 4.9H-344l-.2-18.4-8.7 2.7V746c-.1 2.8-2.9 4.9-4.4 7.4zm4.5-82.9V658c0-2.8-2.7-4.9-4.4-7.2h40.6v12.5c-3.2-2.1-5.9-5.9-9.5-5.9h-18v11.4l-8.7 1.7zm27.7 83h13.5V741c-.6.6-.9 5.7-10.8 5.7l-2.7 6.8z"/><path fill="#FFF" d="M-341.2 741.8v12.3l6.4 12.7 12.5-28.2-7.7.2-5.7 14.4m-20.3-28.7c-10.4-4.6-20.1-12.1-26.9-20.8 2.1-4.4 6.3-8.7 9.9-10.8l-4.2-7.6c-5.1 3.8-10.6 8-13.1 13.6-.9 2.1-2.7 3.6-4.4 4.7 1.7.9 2.8.8 4.5 3.2 8.3 11.9 21 21.2 34.1 26 .1-3.1.1-5 .1-8.3zm-9.3-47l3.8 7.4c17.4-7.8 34.5-8 50.2-2.1l3-6.6c-17-7.4-37.9-6.8-57 1.3zm69.7 5.2l-2.8 6.6 5.3 2.7c1.5.6 2.1 2.7 3 4l4.7-10.4c-1.7 0-3.6.8-5.1 0l-5.1-2.9zm-45.8 44.7v7.2c19.1 4.2 37.1-1.5 53.8-11.4l-4.9-7.4c-11.8 10.1-31.9 15-48.9 11.6z"/></svg>