<svg id="Layer_1" xmlns="http://www.w3.org/2000/svg" viewBox="-190.777 301.078 156.875 191.088"><style>.st0{fill:#FFFFFF;} .st1{fill:none;stroke:#000000;stroke-width:1.0001;stroke-linejoin:round;stroke-miterlimit:2.6131;} .st2{stroke:#000000;stroke-width:1.0001;stroke-miterlimit:2.6131;} .st3{fill:none;stroke:#FFFFFF;stroke-width:10.0001;stroke-linejoin:round;stroke-miterlimit:2.6131;} .st4{fill:none;stroke:#000000;stroke-width:4;stroke-linejoin:round;stroke-miterlimit:2.6131;}</style><path class="st0" d="M-112.6 490.17c-85.5-52-76.08-155.3-76.08-155.3 57.98.7 76.1-31.8 76.1-31.8s18.1 32.5 76.08 31.8c0 0 9.42 103.3-76.1 155.3z"/><path class="st0" d="M-112.6 490.17c-85.5-52-76.08-155.3-76.08-155.3 57.98.7 76.1-31.8 76.1-31.8h-.02s18.12 32.5 76.1 31.8c0 0 9.42 103.28-76.1 155.3z"/><path class="st2" d="M-44.87 341.65c-51.5.65-67.66-28.16-67.72-28.28 0 .12-16.2 28.93-67.7 28.28 0 0-1.3 14 1.7 33.8h132.1c3-19.8 1.7-33.8 1.7-33.8zM-123 379.78v93.1c3.3 2.42 6.74 4.76 10.4 7 3.76-2.3 7.28-4.7 10.63-7.17v-92.9H-123zm-27.54 0v65.7c5.82 7.82 12.76 15.33 21.02 22.26v-87.96h-21.02zm-27.38 0c2.9 16.72 8.9 36.9 20.85 56.15v-56.15h-20.85zm110.02 0v55.8c11.82-19.15 17.74-39.18 20.64-55.8H-67.9zm-27.55 0v87.77c8.27-6.96 15.2-14.5 21.03-22.35v-65.42h-21.03z"/><path class="st0" d="M-140.77 362.43c-1.03 2.53-2.9 4.24-5.02 4.24-3.2 0-5.8-3.93-5.8-8.78 0-4.9 2.65-8.8 5.9-8.8 2.1 0 3.97 1.7 5 4.2h6.2c-1.53-5.5-6.04-9.1-11.74-9.1-7.1 0-11.24 6.2-11.24 14.1s4.5 13.2 11.6 13.2c5.54 0 9.7-3.7 11.28-9.1h-6.07zm33.47 8.17h5.8l-10.14-26.37h-5.34l-10.15 26.37h5.8l1.73-5.06h10.57l1.74 5.06zm-10.68-9.75l3.67-10.68 3.6 10.68h-7.3zm24.75 9.8v-26.4h8.03l4.78 18 4.77-18h8.04l-.1 26.4h-4.96l-.04-20.8-5.3 20.8h-5l-5.24-20.8-.04 20.8z"/><path class="st3" d="M-112.6 484.55c-80.37-48.9-71.52-145.98-71.52-145.98 54.5.68 71.53-29.88 71.53-29.88s17.1 30.5 71.6 29.8c0 0 8.9 97.1-71.5 145.95m0 0"/><path class="st4" d="M-112.6 490.17c-82.98-50.48-75.94-156.84-76.08-155.3 57.98.7 76.1-31.8 76.1-31.8s18.1 32.5 76.08 31.8c.14 1.53 11.94 101.75-76.1 155.3zm-10 0"/></svg>