<svg xmlns="http://www.w3.org/2000/svg" viewBox="-200.5 308.7 175.7 175.7"><path d="M-200.5 484.5zm88-175.8c-48.4 0-87.7 39.4-87.7 87.7 0 48.4 39.4 87.7 87.7 87.7 48.4 0 87.7-39.4 87.7-87.7 0-48.3-39.4-87.7-87.7-87.7z"/><path d="M-197.8 396.5c0 46.9 38.3 85.1 85.3 85.1 46.9 0 85.1-38.2 85.1-85.1 0-47.1-38.2-85.3-85.1-85.3-47.1 0-85.3 38.2-85.3 85.3zm2.5 0c0-45.6 37.1-82.7 82.7-82.7 45.5 0 82.6 37.1 82.6 82.7 0 45.5-37 82.6-82.6 82.6-45.5-.1-82.7-37.1-82.7-82.6z" fill="#CD3529"/><path d="M-183.1 412.5c-.3.2-.7.7-.9 1.2-.2.3-.2.9 0 1.6.2.9.7 1.6 1.2 1.9.9.4 1.7.5 2.6.2 1-.3 1.7-.9 2.1-1.6.3-.7.5-1.6.2-2.4-.2-.5-.3-.9-.7-1-.3-.3-.9-.7-1.6-.7l-.3-1.6c.9 0 1.9.2 2.6.7.9.7 1.4 1.4 1.6 2.3.3 1.2.3 2.6-.3 3.6-.7 1.2-1.6 1.9-3 2.4-1.4.3-2.6.2-3.7-.3-1-.7-1.9-1.6-2.3-3-.2-.5-.2-1-.2-1.6 0-.5.2-.9.3-1.2l-.7.3-.3-1.2 3-.9.4 1.3zm5.2-6.2l-1.4.2v-1l-6.6.5v1h-1.2l-.3-3.8 1.4-.2v1.2l6.6-.5-.2-2.3h-1.4l-.2-1.4 2.8-.3.5 6.6zm-4-11.4c.9 0 1.4-.2 1.6-.3.3-.3.5-.7.5-1.2 0-.7 0-1-.3-1.4-.3-.2-.9-.3-1.6-.3l-4.5-.2v.9h-1.4l.2-3.6h1.4l-.2 1 4.3.2c.7 0 1.2 0 1.6.2.3 0 .7.2 1 .3.3.3.7.7.9 1.2.2.5.3 1 .3 1.7-.2.5-.2 1.2-.3 1.6-.3.5-.5.9-.9 1-.3.3-.7.5-1 .5-.5.2-1 .2-1.7.2l-4.4-.2v.9h-1.4l.2-3.7h1.2v1l4.5.2zm.5-12.5l3 .7.2-.7c.2-.7.2-1 0-1.4-.2-.3-.5-.7-1-.7-.5-.2-1-.2-1.4.2-.2.2-.5.5-.7 1.2l-.1.7zm-3.5-.9l2.3.7.2-.7c0-.5 0-.9-.2-1.2-.2-.3-.3-.5-.5-.5-.5-.2-.9 0-1 .2-.3.2-.5.5-.5.9l-.3.6zm7.2 4.5l-1.2-.3.2-.9-6.4-1.6-.3 1-1.2-.3.7-3.3c.3-1 .7-1.7 1.2-2.3.5-.3 1.2-.5 1.7-.3s.9.3 1 .7c.3.3.5.7.5 1.4.2-.7.7-1 1-1.4.5-.2 1-.3 1.7-.2.9.2 1.4.7 1.7 1.4.3.7.3 1.6 0 2.8l-.6 3.3zm2.6-9.9l-1.2-.3.3-1-6.4-2.4-.3 1-1-.5 2.4-6.8 2.4 1-.5 1.4-1.2-.5-1 2.8 2.1.9 1-2.4 1.2.5-.9 2.4 2.8 1 1-2.8-1.4-.5.7-1.4 2.6 1-2.6 6.6zm5.2-19.9l1.2-1.7-3.3-1 2.1 2.7zm1.9 2.6l.5-.9 1.2.7-2.1 2.8-1-.7.5-.7-4.4-5.8-.5.7-1-.7 2.8-4 1 .9-.7.9 7 1.9.5-.7 1 .9-1.9 2.8-1.2-.7.7-.9-1.7-.5-1.7 2.4 1 1.6zm8.2-9.9l.9-.9 1 .9-3 3-.9-.9.9-.9-5.1-4.7-.9 1 1 .9-1 1-1.9-1.7 4.9-5.2 1.9 1.7-1 1-1-.9-.7.9 4.9 4.8zm5.1-2.8l-.7-1 .7-.5-4.2-5.4-.9.5-.7-1 3-2.3.9 1-.9.7 4.2 5.4 1.9-1.6-1-1.2 1.2-.9 1.7 2.3-5.2 4zm7.5-5.4l-.7-1.2.9-.5-3.3-5.9-.9.5-.7-1.2 6.3-3.5 1.2 2.3-1.2.7-.7-1-2.6 1.4 1.2 2.1 2.3-1.2.7 1.2-2.3 1.2 1.6 2.6 2.6-1.4-.9-1.4 1.4-.7 1.4 2.4-6.3 3.6zm-2.6-10.5v-2.6l1.2-.7-.5 2.8-.7.5zm15.5 2.8l1-.5.5 1.4-4 1.2-.3-1.2 1.2-.3-2.3-6.5-1.2.3.5 1.4-1.6.3-.9-2.4 6.8-2.4.9 2.6-1.4.5-.3-1.4-1.2.5 2.3 6.5zm8.2-2.2l.9-.2.3 1.2-3.7.9-.3-1.2 1-.3-1.6-6.6-.9.2-.3-1.2 3.7-.9.2 1.4-.9.2 1.6 6.5zm10.6-6.5c-.2-.5-.5-.9-1-1.2-.3-.2-.9-.3-1.4-.3-1 .2-1.7.5-2.3 1.2-.5.5-.7 1.4-.7 2.4.2 1 .5 1.7 1 2.3.7.5 1.4.9 2.4.7.5 0 1-.2 1.4-.5.3-.2.7-.7 1-1.2l1.6-.2c-.2 1-.5 1.7-1.2 2.4-.9.7-1.6 1-2.6 1.2-1.4 0-2.6-.3-3.7-1.2-1-.9-1.6-1.9-1.7-3.3-.2-1.4.2-2.6 1-3.7.9-1 1.9-1.6 3.3-1.7.5 0 1 0 1.6.2.3.2.9.3 1 .7v-.9l1.4-.2.2 3.1-1.3.2zm6.1 1.2c.2-1.4.7-2.4 1.7-3.3 1-.7 2.3-1 3.7-.9.7 0 1.4.2 1.9.5.5.2.9.5 1.2 1 .5.5.9 1.2 1 1.7.4.7.4 1.4.2 2.1 0 .7-.2 1.2-.5 1.7-.4.7-.7 1-1 1.6-.7.3-1.2.7-1.9.9-.5.2-1.2.2-1.9.2-1.4-.2-2.6-.9-3.5-1.9-.7-1-1-2.2-.9-3.6zm1.7.4c-.2.9 0 1.7.5 2.4s1.4 1 2.3 1.2c.9 0 1.6-.2 2.3-.7.7-.5 1-1.2 1.2-2.3.2-.9 0-1.7-.5-2.4s-1.4-1-2.3-1.2c-.9-.2-1.6.2-2.3.7-.6.5-1 1.2-1.2 2.3zm22 1.4l-1.4 3.1.5.2c.7.3 1.4.3 1.7.3.5-.2.9-.5 1-1 .2-.5.2-1 0-1.4-.4-.3-.7-.7-1.6-1l-.2-.2zm-2.6 6.3l1 .5-.3 1.2-3.7-1.6.4-1.2 1 .5 2.6-6.4-1-.3.5-1.2 3 1.2c1.2.5 2.1 1 2.6 1.7.4.9.4 1.6 0 2.6-.3.9-.9 1.4-1.7 1.6-.9.3-1.9.2-3.1-.3l-.5-.2-.8 1.9zm9.9 1.4l1.9 1 .7-3.3-2.6 2.3zm-2.4 2l.9.5-.5 1-3-1.7.7-1 .5.3 5.6-4.7-.9-.5.7-1.2 4.2 2.4-.7 1.2-1-.5-1.4 7.1.9.3-.7 1.2-3.1-1.9.7-1 .9.5.4-1.9-2.6-1.4-1.6 1.3zm14.3 1.3l-1.4 1.9.9.7c.5.3.9.7 1.2.7.4 0 .7-.2.9-.5.3-.3.3-.7.3-1-.2-.3-.3-.7-.9-1l-1-.8zm-4.2 5.4l.9.7-.7 1-3.1-2.4.9-1 .7.7 4.4-5.4-.9-.7.9-1 3 2.4c1 .7 1.6 1.4 1.7 2.1.2.7 0 1.2-.5 1.9-.4.3-.7.7-1 .9-.5 0-.9 0-1.4-.2.2.3.4.7.5 1 0 .3-.2.7-.5 1l-1.2 1.6.7.5-.9 1-2.1-1.6 1.6-1.9c.5-.7.7-1 .7-1.4s-.3-.9-.9-1.2l-.7-.5-2.1 2.5zm10.7 5.4l1.4 1.7 1.7-3-3.1 1.3zm-3 1.4l.7.7-1 .9-2.3-2.6 1-.9.5.5 6.6-2.6-.7-.7 1-.9 3.1 3.7-.9.9-.7-.9-3.7 6.3.5.7-1 .9-2.3-2.8.9-.9.7.7 1-1.6-2.1-2.1-1.3.7zm7.3 9.4l.5.9-1.2.7-1.9-3.1 1.2-.7.5.9 5.7-3.6-.5-.9 1.2-.7 1.4 2.4-3.2 6.2 4-2.6-.5-.9 1.2-.7 1.9 3.1-1.2.7-.5-.9-7.2 4.3-.7-1.2 4-7-4.7 3.1zm8.7 9.7l.7 1.9 2.6-2.1-3.3.2zm-3.1.2l.4.9-1.2.5-1.2-3.1 1.2-.5.2.7 7.3-.2-.4-1 1.2-.3 1.7 4.5-1.2.3-.5-1-5.4 4.7.2.9-1.2.3-1.2-3.3 1.2-.5.4 1 1.4-1.2-1-2.8-1.9.1zm1.7 8.9l1.2-.2.2.9 6.8-1.4-.3-1 1.4-.3 1.6 7.2-2.4.5-.3-1.4 1.2-.3-.7-3-2.4.5.7 2.4-1.4.3-.5-2.4-3 .7.5 3 1.6-.3.4 1.4-2.8.7-1.8-7.3zm3.7 12.7v1h-1.2l-.2-3.7h1.4v1l6.8-.2v-1h1.4v3l-6.1 3.5 4.9-.2v-1h1.2l.2 3.7h-1.4v-1l-8.4.2v-1.4l7.1-4-5.7.1zm-.7 11.2l-.9-.2.2-1.4 3.1.5-.2 1.2c-.7.2-1.2.3-1.6.7-.4.4-.7.9-.7 1.4 0 .3 0 .7.3 1 .2.3.5.5.9.7.3 0 .7-.2.9-.3.4-.2.5-.7.9-1.2l.4-1c.4-.9.7-1.4 1.2-1.7.5-.3 1-.5 1.7-.3.7 0 1.4.3 1.7 1 .5.5.7 1.2.5 2.1 0 .5-.2.9-.3 1.2-.2.3-.4.7-.7.9h.7l-.2 1.4-2.8-.3.2-1.4c.5 0 .9-.2 1.2-.5.4-.2.5-.7.5-1 .2-.5 0-.9-.2-1-.2-.3-.4-.5-.7-.5-.4 0-.5 0-.9.2-.2.2-.3.3-.5.7l-.4 1.2c-.5 1-1 1.7-1.4 2.1-.5.4-1.2.5-1.9.4-.9-.2-1.6-.5-2.1-1-.3-.5-.5-1.4-.5-2.3.2-.5.3-.9.5-1.4.4-.7.8-1 1.1-1.2zm-1.9 8.2l1.2.3-.2 1 6.6 1.6.2-.9 1.2.3-1.9 7-2.4-.7.4-1.4 1.2.3.9-3-2.3-.7-.7 2.4-1.4-.3.7-2.4-3-.9-.9 2.8 1.6.5-.5 1.4-2.6-.7 1.9-6.6zm-80.6 59.6l.2-1.2 1 .2 1.2-6.4-1-.2.2-1.4 2.6.5-1.4 7.8 1 .2-.2 1-3.6-.5zm11.4-6.6c-.3 0-.7.2-1 .4-.2.3-.3.7-.3 1.2 0 .3 0 .7.2 1 .3.4.5.5 1 .5.3 0 .7-.2.9-.3.3-.4.5-.7.5-1 0-.5 0-.9-.2-1.2-.4-.3-.8-.4-1.1-.6zm-1.6 5.4c0 .3 0 .7.2 1 .2.2.5.2.9.2.5 0 .9 0 1-.2.2-.3.3-.9.5-1.7v-.7c-.3.2-.5.4-.9.4-.3.2-.5.2-.9.2-.7 0-1.4-.3-1.7-1-.5-.5-.7-1.2-.5-2.1 0-.9.3-1.6.9-2.1.7-.5 1.4-.7 2.3-.7 1 .2 1.7.5 2.1 1 .5.7.7 1.6.5 2.8l-.2 2.8c-.2 1-.5 1.7-1 2.1-.5.5-1.2.9-2.3.7-.9 0-1.6-.4-1.9-.9-.5-.5-.7-1-.5-1.7v-.3l1.5.2zm11.5-.4h1.4l.3 2.4-6.1.5v-1.2l2.6-3.5c.5-.5.7-1 .9-1.4.2-.3.3-.7.3-1-.2-.4-.2-.5-.5-.7-.2-.2-.5-.3-.9-.2-.5 0-.9.2-1 .5-.3.4-.3.9-.2 1.7v.2l-1.6.2v-.4c-.2-1.2 0-2.1.5-2.6.3-.7 1-1 2.1-1 .9-.2 1.6 0 2.1.5.7.3.9.9 1 1.7 0 .3 0 .9-.3 1.4-.2.5-.5 1-1.2 1.9l-2.1 2.4 2.6-.2.1-1.2zm5.6-1l2.3-.3-.3-2.3c-.2-.3-.2-.5-.2-.9v-1l-1.8 4.5zm1.5 2.9l-.2-1 1.2-.2-.2-1-3.5.7-.4-1.2 2.6-6.4 1.4-.2 1 5.8 1-.2.3 1-1.2.3.2.9 1.2-.2.2 1.2-3.6.5z" fill="#FFF"/><path d="M-70.2 353.9c-11.4-11.4-26.5-17.6-42.5-17.6-15.9 0-31 6.3-42.4 17.7-11.4 11.4-17.6 26.4-17.6 42.4s6.3 31.1 17.6 42.5c11.4 11.4 26.4 17.7 42.4 17.7 33.2 0 60.2-27 60.2-60.2 0-16-6.3-31.1-17.7-42.5zm-84.3 81.8v-78.6c.4-.4.8-.9 1.3-1.3 4.6-4.6 9.8-8.3 15.5-11.1v103.5c-5.6-2.8-10.9-6.5-15.5-11.1-.5-.5-.9-1-1.3-1.4zm33.6 17.7v-114c2.7-.4 5.4-.6 8.2-.6 2.9 0 5.7.2 8.5.6v113.8c-2.8.4-5.6.6-8.5.6-2.8.1-5.5 0-8.2-.4zm33.7-5.4V344.8c5.6 2.8 10.7 6.4 15.3 11l1.5 1.5v78.2c-4.9 5.1-10.5 9.4-16.8 12.5z" fill="#CD3529"/><path d="M-112.3 356.9c-6.8.9-13.1 4-18.7 8.5-9.6-2.8-24.8 2.8-28.8 24.9-.3 2.6-.9 6.6-3 9.4 2.4 1.2 4.2 4 5.4 6.4 4.9 10.4 10.5 16.7 16.2 20.4.3 3.8-.7 8.4-5.2 11.3 3.3 3.3 7.9 3.1 11.2.2 4.5 2.3 9.3 2.3 12.4-1.6-3.5-.5-6.1-3.3-7.5-5.9 9.6 1.7 18.8 1 27.4-3.5 0 3.3-.9 6.8-4.7 7.3 1.7 3.8 6.5 4.5 10 .2 5.6 3.3 9.9 2.1 11.3-4.2-5.4 1.4-7.7-3.5-7.7-8.4 9.9-5.6 23.6-15.7 29.6-14.6-2.1-2.6-4.5-4.2-7-4.2.5-2.3 1.2-4.5 2.3-6.8-8.2 4-17.1 12.4-25.6 18.6V402c3.1 1.9 6.6 3.7 11 1 3.1-1.9 5.2-7.7 7.8-18.5.7-2.3 1.6-5.2 3.7-7-2.1-2.6-3.5-4.5-3.8-7.5-1.9-14.8-7-17.4-13.3-17.6-5.4-.3-7.9 2.1-11 4-3-1.6-5.4-1.7-8.4-2.1 4.9 11.7 4 23.6 1.4 35.4 2.6 3.8 3.3 15.2 3.3 29.4-8.7 5.1-17.8 4-28.1 1.4V410c4.5 0 8-1.9 10.6-5.2.9 5.4-.3 9.9-4.5 12.5 2.1 3.5 5.7 3.5 9.1.5 5.7 3.6 9.4 1.2 11.1-1.9-8-1.4-7.8-11.3-4.7-25.9-3.2-10.1-3.1-21.4-1.8-33.1zm16.3 8.6c1.7-7.8 8.9-6.8 10.6 0 1.2 4.2-.5 9.3-1.9 13.1 1.2 2.3 2.8 7.1 2.1 9.6-1.6 6.6-7.7 7.3-10.6.3-1.2-3 .5-7.1 2.1-9.9-1.4-3.7-3.3-9-2.3-13.1zm-40.9 6.4c-4.7 4.5-4.3 10.3-4.3 19.5 0 2.4-1 4-3 5.9 3.5 5 3 9.6 2.1 14.6-4-3.3-4.7-8-3.8-13.4-5.2-5.7-4-14.3.5-21.4 1.5-2.6 5-5.5 8.5-5.2zm4.5 30.5c-1.2-11.7-1-22 2.4-28.6 2.1.9 2.1 3.1.9 3.8-3 1.7-1.9 6.8 2.3 4.9 5.1-2.4 2.8-9.4 1-12.9.7-.5 1.4-1.2 2.3-1.7 3 6.8 3.5 19.4.3 27.4-1.7 4.3-4.8 7.1-9.2 7.1z" fill="#FFF"/><path d="M-99.1 355.2s-.9.6-1.3.8c-2.7-1.3-4.9-1.6-7.5-1.9l-.7-.1-.6.9c2.6 6.1 3.4 12.3 3.4 18.1 0 6.2-1 11.9-2.1 16.9v.3l.1.2c2.8 4.1 3.2 18.2 3.2 28.7-8 4.5-16.6 3.8-26.8 1.3v-9.3c3.7-.2 7-1.6 9.5-4.3 0 .6.1 1.1.1 1.6 0 4-1.5 7-4.5 8.8l-.5.3.3.6c1 1.7 2.4 2.7 4 2.9 1.8.3 3.8-.4 5.6-2 2.5 1.5 4.9 2 7 1.5 2.4-.6 3.9-2.5 4.7-3.9l-.4-1c-2-.3-3.4-1.2-4.4-2.7-2.4-3.6-2.3-10.5.2-22.5v-.4c-3.6-11.3-2.9-23.7-1.9-33.2l-.7-.7c-6.4.8-12.7 3.7-18.7 8.5-5.1-1.4-10.8-.4-15.7 2.6-4.8 3-11.1 9.4-13.6 22.9v.1c-.3 2.6-.9 6.4-2.8 9l.2 1c1.8.9 3.5 2.9 5.1 6.2 4.5 9.6 9.8 16.3 16.2 20.4v1c0 2.8-.8 6.8-5 9.5l-.1 1c3.3 3.3 8.1 3.5 11.7.5 5.1 2.4 9.8 1.7 12.8-1.9l-.4-1c-3.1-.5-5.2-2.8-6.3-4.4 9.6 1.5 17.9.4 25.4-3.3-.2 3.4-1.6 5.3-4.1 5.6l-.5.9c.9 2 2.5 3.3 4.5 3.5 2.1.3 4.4-.8 6.2-2.8 3 1.6 5.6 2 7.7 1.1 2-.9 3.4-2.9 4.1-6l-.8-.8c-1.7.4-3.1.2-4.3-.6-1.6-1.2-2.5-3.7-2.6-6.7 2.5-1.4 5.1-3 7.9-4.8 7.8-4.8 16.7-10.3 21-9.6l.6-1c-2.1-2.6-4.4-4.1-6.7-4.3.6-2.2 1.2-4.1 2-6l-.9-.9c-5.6 2.7-11.6 7.6-17.4 12.2-2.4 2-4.9 3.9-7.3 5.7v-10.5c3.1 1.8 6.5 3 10.7.5 3.5-2.2 5.6-8.6 8.1-18.9v-.1c.7-2.2 1.5-4.9 3.4-6.5l.5-.4-.4-.5c-2.1-2.6-3.4-4.4-3.7-7.2-1.9-14.8-6.9-18-13.9-18.2-4.5-.1-7.1 1.6-9.6 3.3zm-.9 2.1l1.6-1c2.4-1.6 4.8-3.2 9-2.9 5.1.1 10.6 1.6 12.6 17 .3 2.9 1.6 4.9 3.6 7.3-1.8 1.8-2.7 4.5-3.3 6.7v.2c-2.3 9.8-4.4 16.2-7.6 18.1-4 2.4-7.2.9-10.3-1l-1 .6v12.9l1 .5c2.8-2 5.6-4.3 8.4-6.5 5.2-4.2 10.5-8.4 15.6-11.2-.6 1.6-1.2 3.3-1.6 5.2l.6.8c1.8 0 3.7 1 5.5 2.8-5 .3-12.7 5.1-20.3 9.8-2.9 1.8-5.7 3.5-8.2 5l-.3.2v.4c0 3.6 1.1 6.6 3.1 8.1 1.2.9 2.6 1.3 4.3 1.1-.6 2.1-1.7 3.5-3.1 4.1-1.8.8-4.2.3-7-1.3l-.5-.3-.3.4c-1.6 2-3.5 2.9-5.3 2.7-1.3-.2-2.3-.9-3.1-2 2.1-.6 4.3-2.6 4.3-7.8l-1-.6c-7.8 4.2-16.7 5.3-26.9 3.4l-.7.9c1.6 3 4.1 5.2 6.8 6-3.6 3.4-8.3 1.9-10.9.6l-.4-.2-.3.3c-3 2.7-6.8 2.8-9.7.4 4-3 4.9-7.2 4.9-10 0-.5 0-1-.1-1.4v-.3l-.3-.2c-6.3-4-11.5-10.6-16-20.1-1.6-3.2-3.3-5.3-5.1-6.4 1.8-2.9 2.3-6.6 2.7-9.1 2.4-13 8.4-19.2 13-22 4.6-2.9 10.2-3.8 14.9-2.4l.3.1.3-.2c5.6-4.6 11.5-7.3 17.5-8.3-.4 3.9-.7 8.3-.7 12.9 0 6.5.7 13.3 2.7 19.9-1.3 6.2-2 11.1-2 14.9 0 3.8.7 6.5 2 8.4 1 1.5 2.5 2.6 4.3 3.1-.7 1-1.8 2.1-3.4 2.5-1.8.5-4-.1-6.3-1.6l-.4-.3-.4.3c-1.7 1.5-3.4 2.2-5 2-1.1-.2-2-.8-2.8-1.8 3-2.1 4.6-5.4 4.6-9.6 0-1-.1-2.1-.3-3.2l-1.1-.3c-2.6 3.3-6 5-10.1 5l-.7.6v11l.5.1c10.9 2.8 19.9 3.6 28.5-1.5l.3-.2v-.4c0-16.8-1-25.9-3.3-29.6 1.1-5 2.1-10.8 2.1-16.9 0-5.6-.8-11.6-3.2-17.6 2.4.3 4.6.6 7.1 1.9l.3.2.6-.2z" fill="#8E9192"/><path d="M-91 359.3c-2.7 0-4.8 2.3-5.6 6-.2.9-.3 1.8-.3 2.8 0 3.7 1.5 7.7 2.5 10.4-1.2 2.2-2.4 5.1-2.4 7.7 0 .9.1 1.7.5 2.5 1.5 3.6 4 5.5 6.6 5.3 2.5-.2 4.5-2.4 5.3-5.8.1-.5.2-1 .2-1.6 0-2.7-1.3-6.3-2.2-8.2 1.2-3.3 2.3-6.7 2.3-9.9 0-1.1-.1-2.2-.4-3.3-1.1-3.5-3.7-5.9-6.5-5.9zm-4.2 28.9c-1.2-2.8.8-7.1 2-9.4l.2-.3-.1-.3c-1.2-3.2-3.3-8.6-2.2-12.7.7-3.1 2.3-5 4.4-5 1.8 0 4.1 1.5 5 5 1.2 4.2-.7 9.3-1.9 12.7l-.1.3.1.3c1.3 2.3 2.7 7 2 9.1-.7 2.8-2.3 4.6-4.1 4.8-2 .2-4-1.5-5.3-4.5zm-1.4-22.9zm-49.4 11.5c-2.7 4.2-4 8.6-4 12.5 0 3.6 1.1 6.9 3.4 9.5-.2 1.3-.3 2.5-.3 3.7 0 4.3 1.4 7.6 4.4 10l1.1-.4c.3-2.1.7-4.1.7-6 0-2.9-.7-5.6-2.6-8.6 1.7-1.8 2.8-3.5 2.8-6V388c0-7.3.3-11.9 4.2-15.6l-.4-1.1c-3.8-.4-7.5 2.5-9.3 5.5zm.3 25.6c0-1.1.1-2.4.3-3.7v-.3l-.2-.2c-2.3-2.6-3.3-5.6-3.3-8.7 0-4.2 1.7-8.5 3.9-11.9 1.3-2.2 3.9-4.4 6.5-4.9-3.2 3.9-3.5 8.7-3.5 15.4v3.4c0 2.3-1 3.7-2.8 5.5l-.4.4.3.4c2 2.9 2.6 5.6 2.6 8.4 0 1.5-.2 3-.4 4.6-2-2.2-3-4.9-3-8.4zm20.3-33.9l-1.1.9.2.5c.7 1.3 2.8 6 1.7 9.4-.4 1.2-1.2 2.1-2.4 2.6-1.3.6-2.3.5-2.8-.4-.5-1-.2-2.5 1.2-3.3.8-.4 1.2-1.3 1.1-2.3-.1-1.2-.9-2.2-2.1-2.7l-.6-.2-.3.5c-3.2 6-4 15.2-2.5 29v.6h.6c4.4 0 7.9-2.7 9.9-7.6 3.3-8.5 2.5-21.3-.4-27.9l-.9-.3c-.6.4-1.2.9-1.6 1.2zm.8 1c.3-.2.5-.4.8-.6 1.3 3.5 2.1 8.3 2.1 13.4 0 4.5-.6 9-2.1 12.8-1.7 4.1-4.5 6.5-8.1 6.7-.4-4.1-.6-7.8-.6-11.1 0-6.9.9-12.1 2.8-15.9.4.3.7.8.7 1.3v.1c0 .4-.2.8-.5 1-1.4.8-2 2.2-2 3.5 0 .6.1 1.1.3 1.6.6 1.2 2.1 2.1 4.5 1 1.5-.7 2.5-1.9 3.1-3.4.3-.8.4-1.7.4-2.6 0-2.9-1.2-5.9-1.9-7.3l.5-.5z" fill="#8E9192"/></svg>