<svg xmlns="http://www.w3.org/2000/svg" viewBox="-417.5 622.1 175.8 171.7"><path fill="#FFF" d="M-416.2 625.4h172.1s16.5 115.2-85.6 165.4c-96.8-45.7-86.5-165.4-86.5-165.4z"/><path fill="#323991" d="M-414.6 622.1h172.4l.1 2.5c2.2 48.4-5.5 83.2-20.7 109.6-15.2 26.5-37.9 44.4-65.6 59l-1.2.6-1.2-.6c-27.7-14.6-50.4-32.5-65.6-59-15.2-26.4-22.9-61.2-20.7-109.6l.1-2.5h2.4zm2.6 32.2h164.8c.4-8.5.4-17.5.1-27H-412c-.4 9.5-.4 18.5 0 27zm164.5 5.2h-164.2c2 29.9 8.9 53.3 19.8 72.1 14.5 25.1 36 42.3 62.3 56.3 26.3-14 47.9-31.2 62.3-56.3 10.8-18.8 17.7-42.2 19.8-72.1z"/><path fill="#323991" d="M-392.2 656.9V736c-13.9-22.5-21.2-49.1-23-79.1h23zm17.9 0h17.9v117.6l-17.9-15m107.2-102.6h22c-1.4 32.4-9.5 57.7-22 78v-78zm-35.7 0h17.9v101.7l-17.9 15.8m-35.8-117.5h17.9v129.3l-8.9 4.6-9-4.2m-47.7-138.1h-7.9l-1.1 3.7h-7.1l8.4-22.4h7.5l8.4 22.4h-7.2l-1-3.7zm-1.4-4.8l-2.5-8-2.5 8h5zm8-13.8h7.2l5 16.1 5-16.1h7l-8.3 22.4h-7.5l-8.4-22.4zm38.5 18.6h-7.9l-1.1 3.7h-7.1l8.4-22.4h7.5l8.4 22.4h-7.2l-1-3.7zm-1.5-4.8l-2.5-8-2.5 8h5zm12.3-13.8h6.9v22.4h-6.9v-22.4zm32.7 0h17.1v4.8h-10.1v3.9h8.7v4.5h-8.7v9.1h-6.9v-22.3h-.1zm35.7 13.2l6.1 1.8c-.4 1.7-1 3.1-1.9 4.3-.9 1.1-2 2-3.3 2.6-1.3.6-2.9.9-4.9.9-2.4 0-4.4-.4-6-1.1-1.5-.7-2.9-2-4-3.7-1.1-1.8-1.7-4.1-1.7-6.8 0-3.7 1-6.5 2.9-8.5 2-2 4.8-3 8.4-3 2.8 0 5 .6 6.6 1.7 1.6 1.1 2.8 2.9 3.6 5.2l-6.1 1.4c-.2-.7-.4-1.2-.7-1.5-.4-.5-.9-.9-1.4-1.2-.6-.3-1.2-.4-1.9-.4-1.6 0-2.8.6-3.6 1.9-.6.9-.9 2.4-.9 4.4 0 2.5.4 4.2 1.1 5.1.8.9 1.8 1.4 3.2 1.4 1.3 0 2.3-.4 3-1.1.7-.9 1.2-2 1.5-3.4zm-67.6-14.6h3.9l4-2.7-3.8-.4"/></svg>