<svg id="Layer_1" xmlns="http://www.w3.org/2000/svg" viewBox="-200.501 310.789 175.758 171.666"><style>.st0{fill:#FFFFFF;} .st1{fill:#323991;}</style><path class="st0" d="M-199.2 314.05h172.15s16.55 115.2-85.57 165.4c-96.88-45.7-86.57-165.4-86.57-165.4z"/><path class="st1" d="M-197.55 310.8H-25.2l.1 2.46c2.2 48.38-5.5 83.2-20.7 109.6-15.22 26.48-37.9 44.4-65.6 58.96l-1.2.63-1.2-.63c-27.7-14.57-50.38-32.48-65.6-58.95-15.2-26.4-22.9-61.23-20.7-109.6l.1-2.48h2.47zm2.54 32.18h164.7c.4-8.48.4-17.48.03-27.03h-164.9c-.37 9.55-.34 18.55.06 27.03zm164.4 5.16h-164.1c2 29.93 8.9 53.3 19.72 72.15 14.46 25.1 36 42.3 62.33 56.3 26.34-14 47.87-31.2 62.32-56.4 10.83-18.84 17.73-42.2 19.77-72.14z"/><path class="st1" d="M-175.18 345.56v79.07c-13.9-22.5-21.2-49.1-23-79.07h23zm17.88 0h17.87V463.2l-17.87-15.08zm107.23 0h22.02c-1.42 32.43-9.46 57.67-22.02 78v-78zm-35.73 0h17.86V447.3l-17.87 15.73zm-35.76 0h17.87V474.9l-8.9 4.55-8.9-4.2zm-47.74-8.36h-7.87l-1.08 3.7h-7.06l8.4-22.36h7.5l8.4 22.35h-7.2l-1.1-3.7zm-1.44-4.84l-2.48-8.03-2.45 8.04h4.93zm8.05-13.83h7.3l5.05 16.1 4.96-16.1h7l-8.3 22.36h-7.5l-8.4-22.4zm38.5 18.67h-7.8l-1.06 3.7h-7.06l8.4-22.36h7.53l8.4 22.35H-123l-1.1-3.7zm-1.4-4.84l-2.45-8.03-2.46 8.04h4.93zm12.28-13.83h6.9v22.36h-6.9v-22.4zm32.74 0h17.08v4.8h-10.2v3.9h8.66v4.52h-8.66v9.14h-6.94v-22.4zm35.6 13.23l6.08 1.83c-.4 1.6-1.05 3.1-1.92 4.2-.88 1.1-1.96 2-3.26 2.6-1.3.5-3 .8-5 .8-2.46 0-4.4-.36-5.98-1.06-1.55-.7-2.88-1.94-4-3.7s-1.68-4.08-1.68-6.85c0-3.7 1-6.55 2.94-8.53 1.97-2 4.76-3 8.35-3 2.8 0 5.02.6 6.63 1.7 1.6 1.15 2.8 2.9 3.6 5.26l-6.1 1.34c-.24-.67-.46-1.17-.7-1.5-.38-.5-.86-.92-1.4-1.2-.57-.3-1.2-.43-1.9-.43-1.55 0-2.76.67-3.6 1.9-.6.96-.94 2.4-.94 4.4 0 2.5.4 4.2 1.14 5.1.77.95 1.8 1.4 3.18 1.4 1.33 0 2.33-.36 3-1.1.7-.74 1.17-1.82 1.47-3.24zm-67.6-14.58h3.93l3.95-2.7-3.74-.43z"/></svg>