<svg xmlns="http://www.w3.org/2000/svg" width="611.79" height="597.73" viewBox="-417.396 719.236 611.792 597.727"><path fill="#FFF" d="M-412.98 730.73h599.13s57.43 401.03-298 575.8c-336.98-159.1-301.13-575.8-301.13-575.8z"/><path fill="#016FB4" d="M-407.4 719.24h600.16l.35 8.7c7.7 168.5-19.1 289.64-72 381.54-52.9 92.25-131.9 154.57-228.33 205.4l-4.2 2.08-4.16-2.1c-96.43-50.8-175.45-113.13-228.37-205.38-52.9-91.9-79.72-213.05-72.06-381.54l.35-8.7h8.37zm9.05 112.1h573.7c1.4-29.6 1.4-60.93.35-94h-574.05c-1.4 33.07-1.4 64.4 0 94zm572.66 18.1h-571.6c7 104.08 31 185.54 69 251 50.5 87.37 125.3 147.25 216.9 195.98 91.56-48.73 166.75-108.6 216.9-196 37.6-65.44 61.6-146.9 68.9-251z"/><path fill="#016FB4" d="M-329.43 840.38v275.37c-48.38-78.33-73.8-170.93-80.06-275.37h80.1zm62.33 0h62.3v409.4l-62.3-52.22m373.18-357.18h76.58c-4.87 112.8-33.07 200.87-76.58 271.54V840.38zm-124.28 0h62.3v354.04l-62.3 55m-124.63-409.04h62.3v450.13l-30.97 16.1-31.33-14.6M-308.9 811.2h-27.5l-3.82 12.9h-24.7l29.23-78h26.2l29.25 78h-25.06l-3.5-12.9zm-4.86-16.7l-8.7-27.86-8.7 27.83h17.4zm27.85-48.05h25l17.4 56.04 17.4-56.06h24.34l-28.9 77.97h-26.1l-29.24-78zm134 64.74h-27.5l-3.8 12.86H-208l29.24-77.96h26.1l29.25 77.97h-25.07l-3.5-12.84zm-5.2-16.7l-8.7-27.87-8.7 27.86h17.4zm42.8-48.06h24v77.97h-24v-78zm113.8 0H59v16.7H23.9v13.58h30.3v15.67H23.9V824h-24v-77.6h-.35zm124.3 45.94l21.2 6.27c-1.4 5.9-3.48 10.8-6.6 14.95-3.14 3.82-6.97 6.95-11.5 9.04-4.5 2.1-10.1 3.12-17.05 3.12-8.36 0-15.3-1.4-20.9-3.83-5.2-2.4-10.1-6.96-13.92-12.88-3.84-6.26-5.93-14.27-5.93-23.67 0-12.88 3.5-22.63 10.1-29.6 6.96-6.95 16.7-10.43 29.24-10.43 9.78 0 17.44 2.1 23 5.92 5.58 3.83 9.76 10.1 12.54 18.1l-21.25 4.87c-.7-2.42-1.4-4.17-2.44-5.2-1.4-1.7-3.14-3.1-4.88-4.16-2.1-1.04-4.2-1.4-6.64-1.4-5.57 0-9.75 2.1-12.53 6.62-2.1 3.13-3.14 8.35-3.14 15.3 0 8.7 1.4 14.6 3.86 17.75 2.8 3.13 6.25 4.87 11.13 4.87 4.5 0 8-1.37 10.42-3.8 2.46-3.14 4.2-6.97 5.24-11.85zm-235.37-50.8H-98l13.93-9.4-13.24-1.4"/></svg>