<svg xmlns="http://www.w3.org/2000/svg" viewBox="-160 421.2 450.1 415.3"><g fill="#026B38"><path d="M33.3 423.4c28.3-4 57.3-2.6 85.1 4.2 27.7 6.8 54 18.9 77.1 35.5 44.1 31.4 76.3 79.2 88.4 132.12 3.9 16.2 5.3 33 6.2 49.6v2.9c-.7 13-1.6 26.1-4 38.9-7.4 41.2-26.8 80.1-55.2 110.8-8.8 9.6-18.5 18.5-28.8 26.4-5.6 4.3-11.2 8.5-16.8 12.7 0-14.8.1-29.7.1-44.5-19.5 16-42.2 28.2-66.5 35.4-26.7 8-55.1 9.9-82.7 5.7-26.2-4-51.6-13.7-73.9-28.1-7.2-4.6-13.9-9.8-20.4-15.1.6 15.5 1.4 30.9 2 46.4-9.8-7.6-19.8-14.9-29.1-23.2-31.2-27.8-54.5-64.5-66-104.8-5.5-19.1-8.3-38.8-8.8-58.7v-6.2c.4-26.8 5.4-53.5 15.1-78.5 18.2-47.3 52.9-87.9 96.7-113.3 25-14.5 52.8-24.2 81.5-28.2M8 436.3c-28.1 7.6-54.6 20.9-77.4 38.9-38.3 29.9-66.2 72.9-77.5 120.2-8.8 36.3-8.1 74.8 2.1 110.7 6.7 23.8 17.6 46.4 32 66.6 13.5 19 30.3 35.7 49 49.6-.6-12.4-1.1-24.7-1.7-37.1 3.3-.6 6.5-1.3 9.8-1.8 21.7 19.2 48.2 33.2 76.3 40.2 31.3 7.9 64.8 7.2 95.7-2 24.9-7.3 48.1-20.1 67.8-37 2.7.5 5.4 1.1 8.1 1.6 0 12.4-.1 24.8-.1 37.1 24.6-17.9 45.6-40.6 60.9-66.9 15.1-25.8 24.8-54.7 28.1-84.4 3.6-31.8.4-64.4-9.9-94.7-15.6-46.7-47.7-87.7-89.2-114.1-27.7-17.8-59.5-29.2-92.2-32.9-27.2-3.3-55.2-1.2-81.8 6z"/><path d="M14.6 439.4c24.4-5.9 49.9-7.4 74.8-4.6 32.8 3.7 64.7 15.3 92.3 33.5 21.5 14.1 40.4 32.2 55.6 53 16.2 22.1 28 47.52 34.6 74.12 7.8 31.7 8.3 65.3 1.2 97.2-5.3 24.3-15 47.6-28.5 68.5-12.8 19.9-29.1 37.7-47.7 52.4 0-10.4 0-20.8.1-31.2-9.8-2-19.7-3.9-29.5-5.8 18.1-14.5 33.3-32.6 44-53.1 14.5-27.3 21.1-58.7 18.7-89.5-2.1-29.3-12.4-58-29.3-82.1-15.7-22.5-37-41-61.5-53.3-36.5-18.6-79.9-22.7-119.3-11.6-23.8 6.6-46.1 18.8-64.6 35.2-19.8 17.4-35.5 39.6-45.1 64.2-14 35.6-15 76.1-2.9 112.3 8.5 25.8 23.6 49.3 43.4 67.8 3.2 3.2 6.8 5.9 10.1 9-10.4 2-20.8 3.9-31.2 5.8.5 10.3.9 20.5 1.4 30.8-17.5-14.3-33-31.1-45.3-50.1-12-18.3-21.1-38.6-26.8-59.7-8.6-31.3-9.7-64.6-3.5-96.5 5.3-27 15.8-53 31-76 14.1-21.6 32.2-40.5 53.1-55.7 22.3-16.2 47.9-28.1 74.9-34.6m51 7.5c-3.1 2.7-4.6 6.9-4.9 11-.4 4.5.2 9.3 3.1 12.9 3.8 4.7 11 5.8 16.4 3.4 3.7-1.7 5.9-5.4 7-9.2l-6.2-.3c-.6 1.4-1.2 2.9-2.4 3.9-2.8 2.4-7.7 1.8-9.8-1.3-1.6-2.3-1.9-5.2-1.8-7.9.2-2.9.8-6 2.9-8.1 2.3-2.4 6.3-2.5 9-.8 1.5.9 2 2.8 2.6 4.3l6.3.3c-.5-3.7-2.3-7.4-5.6-9.2-5.1-3-12.1-2.9-16.6 1m-33-.3c1 10 2.1 20 3.2 29.9 7.6-.7 15.2-1.6 22.8-2.4l-.6-5.3-16.6 1.8c-.3-2.6-.6-5.2-.8-7.8 4.9-.5 9.7-1 14.6-1.6l-.6-5.3c-4.9.5-9.7 1-14.6 1.6-.2-2.1-.4-4.2-.7-6.3 5.3-.6 10.6-1.1 15.9-1.7l-.6-5.3-22 2.4m68.9 1.5c-4.7.8-8.4 4.5-9.9 8.9-1.8 5-2.6 11 .3 15.8 4.2 6.5 13.8 8.7 20.4 4.6 4.1-2.6 6.1-7.5 6.8-12.1.7-4.1.3-8.7-2.4-12-3.7-4.4-9.7-6.4-15.2-5.2m-97.7 5.3c2.5 9.7 5 19.4 7.6 29.2 2-.5 4.1-1 6.1-1.6l-2.7-10.5c3.8-1.2 8.1-1.5 11.3-4 4.4-3.9 3.6-11.5-.8-15.1-2.2-1.8-5.2-2.1-7.9-1.4-4.6 1-9.1 2.3-13.6 3.4m113.7 28.9l21.3 8.4c.6-1.6 1.4-3.2 1.9-4.8-4.9-2.4-10.3-4.1-15.4-6.3.9-2.4 1.9-4.9 2.8-7.3 4.6 1.8 9.1 3.6 13.7 5.4.7-1.7 1.3-3.3 2-5-4.6-1.8-9.1-3.6-13.7-5.4.8-2 1.6-3.9 2.3-5.9 5 2 9.9 3.9 14.9 5.9.7-1.7 1.3-3.3 2-5-6.9-2.7-13.7-5.4-20.6-8.1-3.8 9.4-7.5 18.8-11.2 28.1m-135.7-20.1l2.1 31.9c2-.9 4.1-1.7 6.1-2.6-.1-2.2-.7-4.5-.3-6.6 3.3-1.6 6.7-2.9 10-4.3 1.4 1.7 2.8 3.3 4.2 4.9 2.1-.9 4.2-1.8 6.2-2.7-7.1-7.9-14.5-15.6-21.7-23.5-2.2.9-4.4 1.9-6.6 2.9m158.8 29.4l5.1 3c3.7-6.2 7.3-12.4 10.9-18.6-.1 8.3-.1 16.6-.2 24.9 1.8 1.1 3.6 2.1 5.4 3.2 5.1-8.7 10.2-17.3 15.2-26l-5.1-3c-3.6 6.1-7.1 12.1-10.7 18.2.1-8.1.1-16.1.3-24.2-1.9-1.2-3.8-2.3-5.7-3.4l-15.2 25.9m-179-19c2 3.2 4.1 6.4 6.1 9.7l-9.9 6.3c-2.1-3.2-4.1-6.4-6.1-9.6-1.8 1.1-3.6 2.3-5.3 3.4 5.4 8.5 10.8 16.9 16.2 25.4 1.8-1.1 3.5-2.3 5.3-3.4-2.4-3.8-4.9-7.6-7.3-11.4l9.9-6.3c2.4 3.8 4.8 7.6 7.3 11.4 1.8-1.1 3.5-2.3 5.3-3.4-5.4-8.5-10.8-16.9-16.2-25.4-1.7 1.1-3.5 2.2-5.3 3.3M180.1 486c-3.4 1.8-6.1 6-4.5 9.9 1.8 4.3 5.6 7.3 7.6 11.5 1.3 2.3-1.6 5-3.9 4-4-1.2-8.6-5.6-5.7-9.9-1.6-1.3-3.1-2.6-4.7-3.8-1.1 1.9-2.2 4-2.1 6.3.1 3.7 2.6 6.9 5.3 9.2 2.9 2.5 6.8 4.5 10.8 3.7 4.4-1 8.3-5.9 6.6-10.5-1.8-4.3-5.4-7.5-7.8-11.5-1.3-2 .7-4.6 2.9-4.3 4 .6 8.2 5.1 5.8 9.2l4.7 3.8c1.2-2.1 2.2-4.4 1.9-6.8-.5-4.3-3.8-7.6-7.3-9.8-2.8-1.9-6.5-2.6-9.6-1m-253.7 19.8c.6 4.4 3.3 8.2 6.5 11.2 3 2.8 6.9 4.8 11.1 4.5 5.5-.5 10.5-4.7 12.2-10 1.1-3.6-.1-7.4-1.7-10.6l-4.7 4.1c.5 1.4 1.1 2.7 1 4.2-.2 3.8-4.3 7-8 6.2-3-.6-5.4-2.7-7.2-5-1.8-2.2-3.4-4.9-3.1-7.9.3-3 2.8-5.5 5.7-6.2 1.8-.5 3.5.5 5 1.2 1.6-1.4 3.2-2.8 4.7-4.2-1.6-1.1-3.2-2.2-5.1-2.7-8.6-1.8-17.8 6.5-16.4 15.2M183.8 522c5.2 5.6 10.3 11.2 15.5 16.8l3.9-3.6c-3.8-4.1-7.6-8.2-11.3-12.3 1.9-1.8 3.8-3.5 5.8-5.3l9.9 10.8 3.9-3.6-9.9-10.8c1.6-1.4 3.1-2.9 4.7-4.3 3.6 3.9 7.2 7.8 10.8 11.8 1.3-1.2 2.6-2.4 4-3.6-5-5.4-10-10.9-15-16.3-7.5 6.8-14.9 13.6-22.3 20.4m-276.2.3c-7.7 2.7-12.7 12.5-8.7 20 2.9 5 8 8.7 13.7 10 9.7 1.9 18.5-8.7 16.2-17.9-1.2-4.4-4.7-7.8-8.5-10.1-3.7-2.3-8.4-3.6-12.7-2m298.8 26.1c2.3 3.8 4.5 7.7 6.9 11.5 1.6 2.7 4.3 4.8 7.4 5.2 4.3.7 8.7-.7 12.4-2.9 3.4-2.1 6.5-5.1 7.6-9 .8-2.9 0-6-1.5-8.5-2.2-3.9-4.6-7.8-6.9-11.7-8.6 5.1-17.3 10.3-25.9 15.4m-326.8-2.2c-.4.8-.8 1.5-1.1 2.3.2.8.9 1.6.6 2.5-1.2 2.2-4.1 3.5-4.4 6.2-.4 2.2 1.4 3.8 2.8 5.3.4-.8.8-1.5 1.1-2.3-.4-.8-.7-1.6-.8-2.4 1.2-2.3 3.8-3.7 4.6-6.2.6-2.2-1.3-4-2.8-5.4m5.9 7.5c-1.1 2.2-2.1 4.3-3.2 6.5 7.4 7.7 14.9 15.3 22.3 23 1-2 2-4 2.9-6l-4.6-4.6c1.6-3.3 3.3-6.6 4.9-9.9 2.2.3 4.3.6 6.5 1 1-2 2-4.1 3-6.1-10.6-1.4-21.2-2.7-31.8-3.9m334.6 18.5c2.8 7.1 5.7 14.2 8.5 21.2 1.6-.7 3.3-1.3 4.9-2-2.1-5.2-4.1-10.3-6.2-15.5 2.4-1 4.8-1.9 7.2-2.9 1.8 4.5 3.7 9.1 5.5 13.6 1.6-.7 3.3-1.3 4.9-2-1.8-4.5-3.6-9.1-5.5-13.6 2-.8 3.9-1.6 5.9-2.4 2 5 4 9.9 6 14.9 1.6-.7 3.3-1.3 4.9-2-2.8-6.9-5.5-13.7-8.3-20.6-9.2 3.8-18.5 7.5-27.8 11.3m-341.3 5.2c-5.4 2.2-8.3 8.3-8 13.9.2 4.9 3.7 9.1 8 11.2 5 2.4 11.1 3.7 16.3 1.2 3.2-1.5 5.3-4.6 6.5-7.9l3.6 2.4c0-1.6 0-3.1-.1-4.7l-2.7-1.8c.2-5.2-3.1-9.7-7.5-12l-1.8 6c1.2 1 2.5 1.9 3.2 3.3 1.6 3.4-.3 8-3.9 9.2-2.5.8-5.3.5-7.8-.2-2.8-.9-5.7-2.2-7.3-4.8-1.9-2.9-1-6.9 1.5-9.1 1.3-1.2 3.1-1.2 4.7-1.4.6-2 1.3-4 1.8-6-2.1-.1-4.4-.2-6.5.7m352.9 27.5c.4 2.1.8 4.1 1.1 6.2 4.2-.7 8.3-1.5 12.5-2.3l2.4 13c1.7-.3 3.5-.7 5.2-1l-2.4-13 6.7-1.2c.9 5 1.8 9.9 2.8 14.9 1.7-.3 3.5-.7 5.2-1-1.3-7-2.6-14.1-4-21.1-9.8 1.8-19.6 3.7-29.5 5.5m-365.8 7.9c-.4 2.4-.7 4.8-1.1 7.2 9.4 5 18.8 10 28.3 15 .3-2.2.6-4.4 1-6.5-1.9-1-3.9-2-5.8-3 .5-3.7 1.1-7.3 1.6-11 2.1-.3 4.3-.7 6.4-1 .3-2.3.7-4.5 1-6.8-10.5 2-21 4.1-31.4 6.1m373.3 16.3c-2.8 2.2-3.8 6-3.8 9.5s.8 7.3 3.4 9.9c2.2 2.2 5.5 2.8 8.5 2.7 6.5-.2 13-.5 19.5-.7-.1-2.1-.2-4.3-.2-6.4-6.4.2-12.9.5-19.3.7-1.8.1-3.9-.1-5.2-1.6-1.4-1.7-1.6-4.2-1.1-6.3.7-2.4 3.3-3.6 5.7-3.6 6.5-.3 13-.5 19.4-.7-.1-2.1-.2-4.3-.2-6.4-6.2.2-12.4.5-18.5.7-2.9 0-5.9.3-8.2 2.2m-375.7 5.9c-.1 2.1-.2 4.2-.2 6.3 10 .4 20.1.8 30.1 1.1.1-2.1.2-4.2.2-6.3-10.1-.4-20.1-.7-30.1-1.1m19 10.1c.1 2.1.3 4.2.4 6.2 1.3.5 2.8.8 3.9 1.7 3 2.5 3 7.8-.1 10.3-2.4 2-5.7 2.6-8.7 2.6-2.5 0-5.3-.4-7.3-2.1-2.6-2.1-3.1-6-1.6-8.9.8-1.5 2.5-2.1 3.9-2.9-.1-2.1-.3-4.2-.5-6.3-2.1.6-4.2 1.4-5.8 2.9-4.5 4-5 11.1-2.5 16.3 2.1 4.5 7 7 11.8 7.3 5 .3 10.4-.6 14.3-3.9 5-4.4 5.4-12.5 1.8-17.9-2.1-3.2-5.9-4.7-9.6-5.3m378.8 9.9c-.3 3-.7 6-1 9.1l-24.7-2.7c-.2 2.1-.5 4.2-.7 6.3l24.7 2.7c-.3 3-.7 6-1 9.1l5.3.6c.9-8.1 1.8-16.3 2.6-24.4-1.6-.3-3.4-.5-5.2-.7m-381.6 20.7c-4.2 1.1-8.5 3.3-10.5 7.3-3.3 6.4-1.2 15 4.7 19.1 3.5 2.5 8.2 2.6 12.2 1.7 4.5-.9 9-3 11.4-7.1 3.7-6.5 1.5-15.5-4.6-19.7-3.8-2.6-8.9-2.5-13.2-1.3m348.4 24.1c1.7.4 3.4.9 5.1 1.3 1.5-5.4 2.8-10.8 4.2-16.2 2.5.6 5 1.3 7.6 1.9l-3.6 14.2c1.7.4 3.4.9 5.2 1.3l3.6-14.2c2 .5 4.1 1 6.2 1.5l-3.9 15.5c1.7.4 3.4.9 5.2 1.3 1.8-7.2 3.6-14.3 5.5-21.5-9.7-2.5-19.5-4.9-29.2-7.4-2.1 7.6-4 14.9-5.9 22.3m-6.8 16.7c-1 2.5-1.2 5.5.2 7.9 2.2 4.5 8.9 6.6 12.7 2.8.3 4.9 6.3 7.6 10.5 5.5 2.4-1.2 3.8-3.6 4.8-5.9 1.9-4.3 3.7-8.6 5.5-12.9-9.2-3.9-18.5-7.9-27.7-11.8-1.9 4.7-4.2 9.5-6 14.4m-332.3-7.2c-.7 4.9 1.3 9.7 1.4 14.6-.1 2.3-3.2 3.3-4.8 1.9-3.1-2.5-4.5-8.2-.6-10.7-.7-1.9-1.5-3.7-2.4-5.5-1.8 1.3-3.7 2.7-4.6 4.8-1.8 4-.5 8.5 1.5 12.2 1.6 2.9 4.5 5.5 8 5.6 3.8.1 8.2-2.2 8.8-6.3.7-4.9-1.7-9.7-1.2-14.6.5-2.3 3.9-2.8 5.4-1 1.9 2.1 3.2 4.9 3 7.8-.1 1.6-1.5 2.7-2.7 3.7.8 1.8 1.5 3.6 2.3 5.5 2-1.1 4-2.5 5-4.7 1.8-4 .5-8.6-1.3-12.4-1.8-3.5-5.1-6.9-9.2-6.8-3.9 0-7.9 2.1-8.6 5.9m11.2 25.2c.1 4.9 2.7 9.3 3.5 14.1.1 2.1-2.5 3.6-4.3 2.7-3.6-1.9-6-7.5-2.3-10.6-1-1.7-2.1-3.4-3.1-5.1-1.8 1.5-3.5 3.2-4.1 5.6-1.1 4.1.8 8.3 3.2 11.6 2 2.8 5.4 5 8.9 4.4 3.9-.5 7.9-3.7 7.6-7.9-.3-4.6-2.8-8.8-3.3-13.4-.3-2.4 3-3.9 4.8-2.5 2.4 1.7 4.1 4.4 4.4 7.3.2 1.7-1.1 3-2.1 4.2 1 1.7 2.1 3.4 3.1 5.1 3-2.1 5.2-5.6 4.5-9.4-.9-5.1-3.8-10.1-8.5-12.5-4.7-2.8-12.1.7-12.3 6.4m316.1-2.9c-7.9 2.8-12.8 13.1-8.4 20.6 3.2 5.1 8.9 8.7 14.9 9.5 9.6.8 17.4-10.1 14.5-19-1.5-4.3-5.2-7.4-9.1-9.5-3.6-2-8-3-11.9-1.6m-308.4 40.7l4.7 5.6 30-11.1-4.2-5.1c-2.1.8-4.1 1.6-6.1 2.4-2.4-2.8-4.8-5.7-7.1-8.5 1.2-1.8 2.4-3.6 3.5-5.5-1.5-1.7-2.9-3.5-4.4-5.2-5.6 9.1-11 18.3-16.4 27.4m277.9-4.4c1.4 1.2 2.7 2.4 4.1 3.6 3.3-3.8 6.6-7.5 9.9-11.2 6.1 5.5 12.3 10.9 18.5 16.3 1.4-1.6 2.8-3.2 4.2-4.7-7.5-6.6-15-13.3-22.6-19.8-4.9 5-9.4 10.5-14.1 15.8z"/><path d="M102.3 453.7c4-1.7 9.2.7 10.3 5 1 4.3 0 9.1-2.6 12.6-2.7 3.6-8.6 3.7-11.6.4-2.4-2.6-2.5-6.5-1.7-9.8.6-3.3 2.3-6.9 5.6-8.2zm-91.1 3.1c2.5-.6 4.9-1.4 7.5-1.6 4.1-.4 5.6 6.4 2.1 8-2.3 1-4.9 1.5-7.3 2.1-.8-2.7-1.6-5.6-2.3-8.5zm-22.3 22.7l-1.2-12.6c2.7 3.2 5.5 6.4 8.3 9.6-2.4.9-4.7 1.9-7.1 3zm40.4 9.8c38.6-8.8 80.5-2.8 114.9 17 23.1 13.1 42.9 32 57 54.42 15.5 24.4 24.1 53 24.7 81.8.8 30.8-7.7 61.8-23.8 88-11.6 19.1-27.4 35.5-45.5 48.4 7.3 1.4 14.5 2.9 21.7 4.3-20.6 17-45 29.5-71 35.8-30.4 7.6-62.9 6.8-93-2.2-23.6-6.9-45.6-18.9-64.3-34.8 7.3-1.4 14.5-2.7 21.8-4.1-19.9-14.3-37.1-33-48.8-54.9-14.5-26.7-21-57.6-18.9-87.9 1.5-22 7.6-43.7 17.9-63.3 10.8-20.7 26.2-39 44.7-53.2 18.5-14 39.9-24.2 62.6-29.3m17.4 9.3c-24.3 2.9-47.8 12-67.8 26.2-21.8 15.4-39.5 36.7-50.3 61.2-9.2 20.4-13.5 43-12.8 65.3.8 29.1 10.5 57.8 27.4 81.4 15.4 21.6 36.6 39 60.8 49.9 26.4 11.9 56.2 15.6 84.8 11.1l-1.5 4.2 3.4-.6c.5-1.4 1-2.8 1.5-4.3 32.7-6 63.1-23.5 84.9-48.6 17.9-20.4 30-45.7 34.6-72.4 5.1-29 1.3-59.5-10.8-86.3-10.9-24.4-28.5-45.7-50.3-61C120.8 503.4 83 494 46.7 498.6M136 787.3c.2 3.9 2.3 7.6 5.5 9.8 4 2.8 10 .6 12-3.7 1-2 .6-4.2.2-6.3-1.1.6-2.2 1.2-3.4 1.8.6 2.6-.9 5.4-3.6 5.7-3.5.2-5.6-3.3-6.6-6.2-1-2.5.5-5.6 3.2-6.2 1.5-.5 2.7.6 3.9 1.2 1.1-.6 2.2-1.3 3.3-1.9-1.1-1.1-2.3-2.3-3.8-2.7-4.9-1.1-10.9 3.1-10.7 8.5m-155.1-7.2c-3.6 2.4-6 6.9-5.6 11.3.7 4.9 6.6 8.3 11.2 6.4 1.3-.6 2.4-1.6 3.5-2.5-1.1-.7-2.2-1.3-3.3-1.9-.9.5-1.7 1.2-2.7 1.5-2.7.4-5.4-2-4.9-4.8.4-2.7 1.9-5.3 4.1-6.8 2.1-1.5 5.3-.4 6.4 1.8.3 1 .1 2 .2 3 1.1.6 2.2 1.3 3.3 1.9.2-1.3.7-2.6.5-3.9-.7-5.7-8-9.2-12.7-6m16.8 5.1c-2.5 5.7-5 11.4-7.4 17.2l3.6 1.5c1.1-2.6 2.2-5.1 3.3-7.7 2.2 1 4.5 1.9 6.7 2.9-1.1 2.6-2.2 5.1-3.3 7.7l3.6 1.5c2.5-5.7 4.9-11.4 7.4-17.1L8 789.7c-.9 2.2-1.9 4.3-2.8 6.5-2.2-1-4.5-1.9-6.7-2.9.9-2.2 1.9-4.3 2.8-6.5-1.2-.5-2.4-1.1-3.6-1.6m123.4 5.1c-2.4 2.6-1.1 7.5 2.3 8.5 3.1.6 6.1-.9 9.2-.8 1.3.1 2.1 1.9 1.2 2.9-1.7 2.3-5.6 3.3-7.6.7l-3.3 1.5c2.7 5.4 10.3 3.7 13.5-.2 2.3-2.5 1.3-7.3-1.9-8.5-3.3-.8-6.6.8-10 .7-1.2-.4-1.7-1.9-.9-2.9 1.6-2.1 5-2.7 6.7-.5 1.1-.5 2.2-1 3.4-1.5-1.1-1.5-2.5-3.1-4.5-3.3-2.9-.1-6 1.2-8.1 3.4M7.3 809.62l3.9 1.2 2.4-3.3c2.2.7 4.4 1.3 6.6 2 0 1.3 0 2.7.1 4l4.1 1.2c-.3-6.6-.6-13.2-1-19.8-1.4-.4-2.8-.8-4.3-1.2-4 5.2-7.9 10.6-11.8 15.9m23.8-12.6l-3.3 18.4c1.3.2 2.5.5 3.8.5.5-2.1.8-4.3 1.2-6.4 2.4.3 4.8 1.1 7.2.7 4.8-1.1 6-8.9 1.4-11-3.3-1.3-6.9-1.5-10.3-2.2m55.8 1.8c-6.3 2.3-6.4 11-2.9 15.8 3.7 4.9 12.4 3.7 14.9-1.8 1.5-3.6.8-7.9-1.2-11.2-2.3-3.5-7.2-4.4-10.8-2.8m16.8 3.6c.4 1.3.7 2.5 1.1 3.8 3.9-1.1 7.8-2.1 11.7-3.2-.4-1.3-.7-2.5-1.1-3.8-3.9 1-7.8 2.1-11.7 3.2m-57.8 15.9c4.7.3 9.4.7 14.1 1 .1-1.1.1-2.2.2-3.3-3.4-.2-6.9-.5-10.3-.7l.3-4.8 9.1.6c.1-1.1.1-2.2.2-3.3l-9.1-.6.3-3.9c3.3.2 6.6.5 9.9.7.1-1.1.2-2.2.2-3.3-4.6-.3-9.1-.7-13.7-1l-1.2 18.6m18.3-14.2c-1.7 3.5-1.6 7.9.2 11.4 2.4 4.8 9.9 5.4 13.4 1.4 1.2-1.3 1.6-3 2.1-4.6-1.3 0-2.6.1-3.9.1-.6 1.3-1.2 2.9-2.7 3.4-2.1.9-4.7-.2-5.5-2.3-.9-2.5-1.1-5.3-.1-7.8 1-2.4 4.2-3.1 6.3-1.9.8.6 1.2 1.6 1.8 2.5 1.3-.1 2.6-.1 3.9-.2-.6-1.5-1.1-3.1-2.4-4.2-3.7-3.3-10.7-2.4-13.1 2.2z"/><path d="M54.4 502.5c35.1-2.7 70.9 8.1 98.6 29.7 20.8 16 37.1 37.82 46.5 62.22 10.6 27 12.5 57.3 5.8 85.5-5.8 24.5-18.3 47.4-35.6 65.7-17.7 18.8-40.6 32.8-65.5 39.8-23.2 6.5-48 7.2-71.5 1.8-25.2-5.7-48.8-18.5-67.5-36.4-18.2-17.3-31.8-39.5-38.9-63.6-5.1-17.2-6.9-35.4-5.3-53.3 1.9-23 9.6-45.5 22.1-65 13.5-21.2 32.7-38.8 54.9-50.4 17.4-9.1 36.7-14.6 56.4-16m31.5 30.7c-1.7 2.8-1.6 6.2-1.9 9.3-3 .8-4.5 3.7-7 5.3-2.8.4-5.6-.8-8.4-.3-2.9.5-5.7 1.7-8.6 2.3-2.9.7-6 .5-8.9 1.3-3.7 1-7.5 2.3-10.4 5-2.6 2.4-3.2 6-5.1 8.9-2.2 2.7-4.3 5.6-6.5 8.2-.9 2.6-.5 5.4-.9 8.1 1.4 1.7 2.7 3.6 2.6 5.9.1 2.9-1.6 5.7-4.4 6.7-1.6.9-4.3 1.1-4.7 3.3-.9 4.6 2.5 8.4 4.5 12.2 3.6 5.4 3.2 12.3 5.7 18.1 2.8 4.8 7.7 8.1 10.4 13 2.4-.7 5.1-1.2 6.9-3.1 1.3-1.9 2.4-3.8 3.3-5.9 1-2.2-.9-4.2-1.9-6-1.7-2.4-2.7-5.3-3-8.2-1.7-13.7-2-27.8 1.8-41.2.7-2.7 2.4-5 4.1-7.2 2.8-3.6 6.1-6.9 10-9.1 3.2-1.8 7.3-2 10.6-.4 1.8.9 2.7 2.8 3.8 4.4 1.2 1.9 3.5 2.6 5.1 4.2 3.2 2.8 4.6 7.2 4 11.3-.7 5-2.4 10.2-6.1 13.8-2.2 2.2-5.9 2.3-7.5 5.1-.7 1 0 2.5 1.1 2.9 2.4 1.2 5.3 1.3 7.9.5 3-1 5.2-3.5 7.5-5.5 1.5-1.4 3.2-2.6 4.5-4.2 1.5-2 1.1-4.7 2.5-6.8 1.5-2.3 1.8-5.2 1.7-7.8-.2-2.4-2-4.3-2.1-6.7.4-2.7 2.4-5.1 2.1-8-.2-3.7-2.9-6.6-3.9-10-.5-3.9.6-7.9 0-11.7-.9-1.9-3-2.9-3.8-4.8-.6-1.2-.7-2.7-1.9-3.4-.7-1-2.4-.7-3.1.5m-95.2 54.4c-2.9.3-5.8-.7-8.7-.3-1.1.1-2.3 1.2-1.8 2.4 1.4 1 4.1 1.3 3.9 3.5-.3 5.7-3.5 10.6-5.8 15.6-1.9 4.5-1.1 9.4-2 14.1-1 2-3 3.3-4.1 5.2-2.1 3.2-1.6 7.3-3.3 10.7-1.5 2-4.2 3.2-4.8 5.7-.5 2.5.7 4.9.4 7.4-.4 2.4-.9 4.7-1.5 7.1-.7 2.8-3.8 4.2-4.8 6.9-.5 2.9-.2 5.8-.7 8.7-.5 3.7-2.8 6.8-4.7 9.9-2.1 3.1-3.8 6.4-6.3 9.1-1.4 1.7-3.9 1.6-5.4 3.2-.9.9-1.9 2.2-1.4 3.5 1.3.8 3 .6 4.5.7 9.5-.1 19.1.1 28.6-.1 2.3-.2 5.2-3.1 3.8-5.4-4.1-.4-8.8-1.6-10.6-5.7-.9-2.3 1.9-3.8 2.2-5.9.4-2.6.6-5.4 2.5-7.4 15.4.1 30.8 0 46.1 0 3.2-.1 7.1 1.8 7.4 5.3.2 2.6.8 5.3 0 7.8-2.8 2.2-6.4 4.1-7.6 7.7.4 1.6 2.5 1.4 3.8 1.6 7.5.1 15 0 22.5 0 3.4.4 5.9-3.1 9.4-2.4 2.4.7 4.6 2.3 7.3 2.2 3.1 0 6.9.2 9.1-2.5.9-1.1 1.7-3.4 0-4.1-2.3-.9-4.9-.4-7.2-.8-1.1-.7-1.7-1.9-2.5-2.9-3.4-5.8-5.9-12.1-9.3-17.9-1.4-2.5-4-4.4-4.4-7.4-.2-2.2-.3-4.6 1.3-6.3 1.5-1.7 2.4-4 1.6-6.2-.8-2.5-3.7-3.1-5.7-4.2-1.8-.8-3-2.4-4-4.1-2.8-4.6-7.6-7.7-10.1-12.4-2.4-4.8-2.4-10.3-4.3-15.3-2-4.8-5.8-8.8-6.6-14.1-.3-2.9 0-6.3 2.4-8.3 1.8-1.6 4.2-2 6.2-3.2 1.9-3.4-2.3-6.1-5.2-6.6-3.2-1.2-5.5 2.5-8.6 1.8-2.3-1.4-4.4-3.5-7.3-3.5-6-.8-9.4 5.1-14.3 6.9m122.1-1.7c-1.9.9-4.7 1.5-5 4 .3 1.9 2.4 2.8 3.5 4.2 2.6 2.3 2.3 6 2.6 9.1.5 7.1 2.9 14.3 1.6 21.4-.5 2.9-.7 5.8-.9 8.7-.3 3.1-2.3 5.6-3 8.5-.4 3.3 2.9 5.5 2.8 8.8-.1 10.7-.3 21.3-.5 32 0 2.9-1.6 5.3-2.6 8-.8 2-2.5 3.8-4.7 4.1-1.5.2-2.9.8-3.9 2 1.2 1 2.6 1.8 4 2.5.7 1 1.2 2.5 2.7 2.4 4.9.3 8.5-4.3 13.3-4.6 2.4.3 3.8 2.6 6 3.2 1.6.4 3.2-.1 4.7-.4 3.6-1 7.5-1.2 11.2-.4 2.5.6 4.8 2 7.4 2.6 2.2.3 4.8.1 6.4-1.6 1.7-1.8 3.1-4 3.6-6.4.4-1.2-.8-2.3-2-1.8-1.3.7-1.7 2.8-3.3 3-2.9.4-5.9-.1-8.8-.5-2-.4-3.4-2.1-3.9-4-.8-2.5-3.6-3.9-3.8-6.6-.4-3.5.1-7.2-.7-10.7-.5-2.2-1.3-4.5-.7-6.8.6-2.6 1.3-5.2 1.1-7.9 0-2.2-.7-4.7.8-6.5 1.2-1.5 2.2-3.4 3.9-4.4 2.1-.3 3.7 1.2 5.1 2.4 1.8 1.6 4.1 2.2 5.8 3.9-.7 3.2-.4 7.1 2.4 9.3 1.3 1 3-.4 3.4-1.8.5-1.9.8-3.8 1.5-5.6 1-2.2-.9-4.3-.8-6.5-.5-2.8 1.6-4.9 2.4-7.3.3-2.4-2.6-3.6-2.6-6-.1-4.3.8-9-1.2-13.1-1.1-2-4.7-3.2-6-.9-.7 3.1 1.1 6.1.8 9.2-.6 3-3.7 4-5.7 5.9-1.8 2.5-5.8 2.8-8.2 1.1-1.7-2.1-1.8-5-1.9-7.6-.2-10.4-.3-20.9 1.8-31.1 1-2.2 3.6-2.8 5.7-3.6 2.6-.9 4.5-3.4 7.4-3.4 5-.1 9.6 1.9 14 4.1 4 1.8 7.3 5.6 7.7 10 .6 3.8 2.8 7.3 2.8 11.3-.3 4-6.4 5.1-6 9.3 1.9 1.9 5.2 2.2 7.4.7 6.6-2.8 11.4-9.5 11.7-16.7.3-4-1.9-7.6-2.7-11.3-.9-4.3.1-8.6 1.3-12.8.5-1.2-.2-2.9-1.7-3-1.2-.1-1.6 1.4-2.3 2.1-1.2 2.1-4 3.3-6.3 2.2-2.4-1-5.2-.6-7.4-2-4.9-3.1-11.1-3.2-16.7-2.7-2.5.2-4.9 1.2-6.9 2.6-2.4 1.8-5.8 1.5-8.4.1-2.1-1.1-4.1-2.8-6.7-2.7-4.2-.3-7 4.3-11.3 3.6-2.4-.1-3.7-2.2-5.4-3.5-1.7-1-3.1 1.3-4.8 1.9M81 669.82c.6 1.8 2 3.2 3.1 4.7 1.3 1.6.4 4 1.8 5.5 1.4 1.7 2.2 3.8 2.2 6 .1 3.6 1.8 7 1.4 10.6-.1 4.8-2.5 9-4.3 13.3-.8 1.5-1.5 3.4-3.3 4-2.5.9-4.4 3.3-7.2 3.3-3 .1-6.3 0-8.9-1.7-2.6-1.7-3.8-4.7-6.2-6.6-2.9-2.4-6.3-4.5-8.4-7.8-2.4.9-4.8 2-7.3 2.5-4.5.2-9-.1-13.4.1-2.2 1.7-4.8 3.9-4.6 6.9.7 2 3 3 3.9 4.9 1.9 3.7 4.7 6.9 7.3 10.1 2.4 2.7 4.8 5.6 8.2 7 2.4 1 4.7 2.7 7.4 2.9 6 .6 12.3.6 18.1-1.4 2.9-.9 5.6-2.4 8.7-2.4 2.3 0 4.7-.1 7 .4 1.2.2 1.5 1.6 2.2 2.4 1 1.8 2.9 3 3.1 5.2.2 1.4 1 4 2.9 2.8 2.8-2 4-5.4 6-8.1.8-1.1 1.4-2.4 1.5-3.7 1-8.1.3-16.3 1.4-24.3.4-2.6-2.3-4-3.6-5.9-2.6-3-1.6-7.2-1.1-10.7-.5-1.9-3-2.5-3.3-4.5-.6-2.1-1.3-4.1-2.5-5.9-1.6-3-4.6-5-5.8-8.2-.9-2.5-4.2-2.4-6.3-1.4m-41 81.8c-1.6 2.5-4 4.4-6.6 5.7v2.7c2-.9 3.9-2 5.6-3.3-.1 5.9 0 11.8 0 17.7h2.8v-22.8c-.7-.1-1.2 0-1.8 0m12.1 1.1c-4.7 3.1-4.2 11.5 1.2 13.5 2.9 1.2 5.9-.3 7.9-2.4-.4 2.3-.4 4.9-1.9 6.8-1.1 1.7-3.5 2.3-5.3 1.4-1.3-.6-1.6-2.1-2.1-3.2-.9.1-1.8.1-2.7.2.6 1.6 1 3.5 2.6 4.5 2.9 1.9 7.2 1.4 9.4-1.3 2.1-2.5 2.5-5.9 2.6-9.1 0-3.1-.1-6.5-2.1-9-2.2-2.7-6.6-3.4-9.6-1.4m14.6-.7v2.7h11c-4.5 5.6-7.4 12.5-7.9 19.7h2.9c.7-7 3.5-13.8 7.9-19.3.9-.8.8-2 1-3.1-5.1-.1-10 0-14.9 0m20 1.2c-1.3 1.1-1.7 2.7-2.3 4.2l2.7.6c.6-1.5 1.2-3.4 2.9-3.9 2.4-1 5.6 1.1 5 3.9-.2 2.5-3 3.2-5 3.4-.1.5-.3 1.6-.3 2.1 2.1-.3 4.8-.1 5.9 2.1 1.9 3.2-1.3 7.6-4.9 6.8-2.2-.2-3.2-2.5-3.8-4.4-.9.1-1.9.2-2.8.4.5 1.6 1 3.4 2.3 4.5 3.6 3.3 10.1 2 12.1-2.4 1.5-3.1.1-7.5-3.5-8.4 2.2-1.2 3.6-3.6 2.8-6-1.3-4.7-7.8-5.9-11.1-2.9zM-91.8 528.2c3.7-1.5 7.7.5 10.6 2.8 2.7 2.1 5.1 5.4 4.4 8.9-.6 4.2-5.1 7.4-9.2 6.3-4-1-7.7-3.7-9.8-7.3-2.2-3.7-.1-9.1 4-10.7zM214 551c5.7-3.3 11.3-6.7 16.9-10 1.4 2.7 3.7 5.2 4.2 8.3.2 3.9-3.5 6.4-6.4 8.1-3 1.6-7.1 3.02-10.1.6-2-1.9-3.1-4.6-4.6-7zm-324.1 8.92c4.2.6 8.3 1.3 12.5 1.9-1.1 2.3-2.3 4.6-3.4 6.9-3.1-2.9-6.1-5.8-9.1-8.8z"/><path d="M-8 616.62c1.4-1.8 4.8-3.5 6.4-1.1 1.4 6.8 4.8 13 7.3 19.4 2.7 5.8-.1 12.7 3 18.4 1.5 3.1 4.7 4.7 6.6 7.5 1 1.5 0 3.1-.6 4.4-13 .1-26 0-39 0 .1-1.7.3-3.4.7-5 .7-2.9 1.1-6 2.8-8.5 1.1-2.1 3.4-3.6 3.7-6.1.4-3 0-6.1 1.2-8.9.8-2.7 3.2-4.6 3.7-7.3 1.2-4.4 1.5-9.1 4.2-12.8zm-120 .8c4.1-.7 8.3-1.3 12.4-2-.4 2.5-.7 5-1.1 7.6-3.8-1.8-7.6-3.7-11.3-5.6zm252 20.5c.4-2.2 1.4-4.2 2.6-6 1.6 1.8 4 3.4 4.1 6.1 0 1.9 2.2 2.9 2.2 4.7-1.8 1.5-4.5 1.8-6.6 1-1.5-1.6-2.5-3.7-2.3-5.8zm-153.3 6.1c1.8-.8 3.2-2.1 4.7-3.3.3 1.8 1.4 3.4 1.4 5.2-1.3 1.2-2.7 2.4-4.1 3.5-3.2 1.2-4.7-4.1-2-5.4zm50.9-2.5c1.4-1 2.4.9 3.6 1.4 1 1.1 3.3.5 3.5 2.3.2 1.6 2 3.4.9 4.9-2.6.5-6.1 2.7-8.3.4.1-3-2-6.4.3-9zm-139.9 40.2c3.2-.8 7.1-.8 9.7 1.5 3.5 3 3.4 9-.3 11.8-3.5 2.6-8.1 3.7-12.4 2.8-4.4-1-6.9-6.3-5.1-10.3 1.3-3.4 4.8-5.1 8.1-5.8zm344.5 36.9c.8-3.1 2.4-6 3.5-9 2.5 1 5 2.1 7.4 3.2-1.5 3-2.3 6.5-4.4 9.2-2.2 2.8-7.4 0-6.5-3.4zm12.2 5.4c.5-3.3 2.3-6.1 3.4-9.2 2 .9 4.1 1.7 6.1 2.6-1.4 2.9-2.3 6.2-4.2 8.9-1.7 2.2-5.7.3-5.3-2.3zm-21.5 13.6c3.3-1.2 6.8.1 9.6 1.9 2.7 1.8 5.4 4.4 5.7 7.8.4 4.4-3.6 8.7-8 8.3-4.4-.5-8.5-3.1-11-6.7-2.8-3.9-.7-9.8 3.7-11.3zm-162.1 16.5c3.2-1.4 6.2 2.1 5.9 5.2.2 3.1-2.9 5.9-5.9 4.7-4.3-1.5-3.9-8.3 0-9.9zm-132.6 6.2c1.7 2 3.3 3.9 4.9 5.9-3.9 1.6-7.8 3.2-11.7 4.7 2.2-3.6 4.5-7.1 6.8-10.6zm93.3 44.4c1.5-2.2 3-4.3 4.4-6.4 0 2.6.1 5.2.1 7.8-1.4-.5-2.9-1-4.5-1.4zm18.9-3.9c1.6.3 3.3.5 4.8 1.2 2.1 1 1.2 5-1.2 4.9-1.6 0-3.1-.4-4.6-.7.3-1.7.6-3.6 1-5.4zm54.5.8c2.2-.7 4.7.3 5.7 2.3 1.2 2.5 1.7 5.7.3 8.3-1.8 2.9-6.7 2.8-8.2-.3-1.8-3.2-2.1-9 2.2-10.3z"/></g><g fill="#FFF"><path d="M8 436.3c26.6-7.2 54.6-9.2 81.9-6.1 32.7 3.7 64.5 15.1 92.2 32.9 41.5 26.5 73.6 67.4 89.2 114.12 10.3 30.3 13.5 62.9 9.9 94.7-3.4 29.7-13 58.7-28.1 84.4-15.3 26.3-36.4 49-60.9 66.9 0-12.4.1-24.8.1-37.1-2.7-.5-5.4-1.1-8.1-1.6-19.6 16.9-42.9 29.7-67.8 37-31 9.2-64.4 9.9-95.7 2-28.2-7-54.6-20.9-76.3-40.2-3.3.5-6.5 1.2-9.8 1.8.6 12.4 1.1 24.7 1.7 37.1-18.7-14-35.5-30.6-49-49.6-14.4-20.1-25.3-42.7-32-66.6-10.2-35.9-10.9-74.4-2.1-110.7 11.3-47.3 39.2-90.4 77.5-120.2 22.7-17.9 49.2-31.3 77.3-38.8m6.6 3.1c-27 6.5-52.6 18.4-75 34.8-20.8 15.2-38.9 34.1-53.1 55.7-15.2 23-25.7 49-31 76-6.1 31.9-5.1 65.2 3.5 96.5 5.7 21.1 14.8 41.4 26.8 59.7 12.3 19 27.8 35.8 45.3 50.1-.5-10.3-.9-20.5-1.4-30.8 10.4-2 20.8-3.8 31.2-5.8-3.3-3.1-6.9-5.8-10.1-9-19.7-18.7-34.8-42.2-43.4-68-12.1-36.3-11.1-76.7 2.9-112.3 9.6-24.6 25.2-46.8 45.1-64.2C-26 505.7-3.8 493.6 20 486.9c39.4-11.2 82.8-7 119.3 11.6 24.5 12.3 45.8 30.9 61.5 53.3 16.9 24.1 27.2 52.7 29.3 82.1 2.4 30.8-4.2 62.2-18.7 89.5-10.8 20.5-26 38.6-44 53.1 9.8 1.9 19.7 3.9 29.5 5.8 0 10.4-.1 20.8-.1 31.2 18.6-14.7 34.9-32.4 47.7-52.4 13.5-20.9 23.2-44.2 28.5-68.5 7.1-31.9 6.6-65.5-1.2-97.2-6.6-26.6-18.4-51.9-34.6-74.1-15.1-20.8-34.1-38.8-55.6-53-27.6-18.2-59.4-29.8-92.3-33.5-24.8-2.9-50.3-1.4-74.7 4.6m14.7 49.9c-22.7 5.1-44.1 15.2-62.5 29.4-18.6 14.3-34 32.5-44.8 53.2-10.3 19.5-16.4 41.2-17.9 63.3-2.2 30.3 4.3 61.2 18.9 87.9 11.7 21.9 28.9 40.6 48.9 55.1-7.3 1.3-14.5 2.7-21.8 4.1 18.8 15.8 40.8 27.8 64.3 34.8 30.1 9 62.5 9.7 93 2.2 26-6.4 50.4-18.8 71-35.8-7.2-1.4-14.5-2.9-21.7-4.3 18.2-12.9 34-29.3 45.5-48.4 16.2-26.2 24.6-57.2 23.8-88-.6-28.8-9.3-57.5-24.7-81.8-14.1-22.5-33.9-41.4-57-54.4-34.5-20-76.4-26.1-115-17.3z"/><path d="M65.6 446.9c4.5-3.9 11.5-4 16.5-1.2 3.3 1.9 5.2 5.5 5.6 9.2l-6.3-.3c-.6-1.6-1.1-3.4-2.6-4.3-2.7-1.8-6.7-1.6-9 .8-2.1 2.1-2.7 5.3-2.9 8.1-.1 2.7.2 5.6 1.8 7.9 2.1 3.1 7 3.7 9.8 1.3 1.2-1 1.8-2.5 2.4-3.9l6.2.3c-1.1 3.8-3.2 7.6-7 9.2-5.4 2.4-12.6 1.3-16.4-3.4-2.9-3.6-3.5-8.4-3.1-12.9.4-3.8 1.9-8 5-10.8zm-33-.3l22.1-2.4.6 5.3c-5.3.6-10.6 1.1-15.9 1.7.2 2.1.4 4.2.7 6.3 4.9-.5 9.7-1 14.6-1.6l.6 5.3c-4.9.6-9.7 1.1-14.6 1.6.2 2.6.5 5.2.8 7.8l16.6-1.8.6 5.3c-7.6.8-15.2 1.7-22.8 2.4l-3.3-29.9zm68.9 1.5c5.5-1.1 11.6.9 15.1 5.2 2.7 3.3 3.1 7.9 2.4 12-.7 4.6-2.7 9.5-6.8 12.1-6.6 4.1-16.2 1.9-20.4-4.6-2.9-4.8-2.1-10.8-.3-15.8 1.6-4.4 5.3-8.1 10-8.9m.8 5.6c-3.3 1.4-5 4.9-5.7 8.2-.7 3.3-.7 7.2 1.7 9.8 3 3.3 8.9 3.2 11.6-.4 2.6-3.5 3.6-8.3 2.6-12.6-1-4.3-6.2-6.7-10.2-5zm-98.5-.3c4.5-1.1 9-2.4 13.5-3.5 2.7-.7 5.7-.4 7.9 1.4 4.3 3.6 5.2 11.3.8 15.1-3.2 2.6-7.5 2.8-11.3 4l2.7 10.5c-2 .5-4.1 1-6.1 1.6-2.5-9.6-5-19.4-7.5-29.1m7.4 3.4c.7 2.9 1.4 5.7 2.2 8.6 2.4-.7 5-1.1 7.3-2.1 3.6-1.7 2-8.5-2.1-8-2.5.1-4.9.9-7.4 1.5zm106.3 25.5c3.7-9.3 7.4-18.7 11.1-28 6.9 2.7 13.7 5.4 20.6 8.1-.6 1.7-1.3 3.3-2 5-5-2-9.9-3.9-14.9-5.9-.8 2-1.6 3.9-2.3 5.9 4.6 1.8 9.1 3.6 13.7 5.4-.6 1.7-1.3 3.3-2 5-4.5-1.8-9.1-3.6-13.7-5.4-1 2.4-1.9 4.8-2.8 7.3 5.1 2.1 10.5 3.8 15.4 6.3-.5 1.7-1.2 3.2-1.9 4.8-7-2.9-14.1-5.7-21.2-8.5zm-135.7-20.1c2.2-1 4.4-2 6.7-2.9 7.2 7.8 14.5 15.6 21.7 23.5-2.1.9-4.2 1.8-6.2 2.7-1.4-1.6-2.8-3.3-4.2-4.9-3.3 1.5-6.7 2.8-10 4.3-.5 2.1.2 4.4.3 6.6-2 .9-4.1 1.8-6.1 2.6-.8-10.7-1.5-21.3-2.2-31.9m7.1 17.3c2.4-1 4.7-2 7.1-3-2.8-3.2-5.5-6.4-8.3-9.6l1.2 12.6zm151.7 12.1c5.1-8.7 10.1-17.3 15.2-26 1.9 1.1 3.8 2.2 5.7 3.4l-.3 24.2c3.6-6 7.1-12.1 10.7-18.2l5.1 3c-5.1 8.7-10.2 17.3-15.2 26-1.8-1.1-3.6-2.1-5.4-3.2.1-8.3.2-16.6.2-24.9-3.7 6.2-7.3 12.4-10.9 18.6-1.7-.9-3.4-1.9-5.1-2.9zm-179-19c1.8-1.1 3.5-2.3 5.3-3.4 5.4 8.5 10.8 16.9 16.2 25.4-1.8 1.1-3.5 2.3-5.3 3.4-2.4-3.8-4.9-7.6-7.3-11.4l-9.9 6.3c2.4 3.8 4.8 7.6 7.3 11.4-1.8 1.1-3.5 2.3-5.3 3.4-5.4-8.5-10.8-16.9-16.2-25.4 1.8-1.1 3.5-2.3 5.3-3.4 2 3.2 4.1 6.4 6.1 9.6l9.9-6.3c-1.9-3.2-4-6.3-6.1-9.6zM180.1 486c3-1.6 6.7-.9 9.5.9 3.5 2.2 6.9 5.5 7.3 9.8.3 2.4-.7 4.8-1.9 6.8-1.6-1.2-3.1-2.5-4.7-3.8 2.4-4.1-1.8-8.6-5.8-9.2-2.2-.3-4.2 2.4-2.9 4.3 2.4 4 6 7.2 7.8 11.5 1.7 4.6-2.2 9.4-6.6 10.5-4 .8-7.9-1.2-10.8-3.7-2.7-2.3-5.2-5.5-5.3-9.2-.2-2.3 1-4.4 2.1-6.3 1.6 1.2 3.2 2.5 4.7 3.8-2.8 4.3 1.8 8.8 5.7 9.9 2.3.9 5.2-1.7 3.9-4-2-4.1-5.9-7.2-7.6-11.5-1.4-3.8 1.3-8 4.6-9.8zm-253.7 19.8c-1.4-8.7 7.8-17.1 16.3-15 1.9.4 3.5 1.6 5.1 2.7-1.5 1.4-3.1 2.8-4.7 4.2-1.6-.7-3.2-1.7-5-1.2-2.9.7-5.4 3.2-5.7 6.2-.2 2.9 1.3 5.7 3.1 7.9 1.9 2.3 4.3 4.4 7.2 5 3.8.8 7.8-2.3 8-6.2.1-1.5-.6-2.8-1-4.2 1.5-1.4 3.1-2.8 4.7-4.1 1.7 3.2 2.8 7 1.7 10.6-1.7 5.3-6.7 9.4-12.2 10-4.2.3-8.1-1.7-11.1-4.5-3.1-3.1-5.8-7-6.4-11.4zm120.3-7.2c36.3-4.6 74.1 4.9 103.9 26.1 21.8 15.4 39.4 36.62 50.3 61.02 12.1 26.8 15.8 57.3 10.8 86.3-4.6 26.7-16.7 52-34.6 72.4-21.8 25.1-52.2 42.6-84.9 48.6-.5 1.4-1 2.8-1.5 4.3l-3.4.6 1.5-4.2c-28.5 4.6-58.4.8-84.8-11.1-24.2-10.8-45.4-28.3-60.8-49.9-16.8-23.7-26.5-52.4-27.4-81.5-.7-22.4 3.6-44.9 12.8-65.3 10.9-24.4 28.5-45.8 50.3-61.2 20-14.1 43.5-23.2 67.8-26.1m7.7 3.9c-19.7 1.4-39 6.9-56.4 16.1-22.3 11.7-41.4 29.2-54.9 50.4-12.5 19.4-20.1 41.9-22.1 65-1.6 17.9.2 36.1 5.3 53.3 7.1 24.1 20.7 46.3 38.9 63.6 18.7 17.9 42.3 30.7 67.5 36.4 23.5 5.4 48.3 4.7 71.5-1.8 24.9-7 47.8-21 65.5-39.8 17.4-18.3 29.8-41.2 35.6-65.7 6.7-28.2 4.8-58.5-5.8-85.5-9.5-24.5-25.8-46.2-46.5-62.2-27.7-21.7-63.5-32.5-98.6-29.8zM183.8 522l22.2-20.4c5 5.4 10 10.9 15 16.3-1.3 1.2-2.6 2.4-4 3.6-3.6-3.9-7.2-7.8-10.8-11.8-1.6 1.4-3.1 2.8-4.7 4.3l9.9 10.8-3.9 3.6-9.9-10.8c-1.9 1.7-3.8 3.5-5.8 5.3 3.8 4.1 7.5 8.2 11.3 12.3l-3.9 3.6c-5.1-5.6-10.2-11.2-15.4-16.8zm-276.2.3c4.2-1.6 9-.3 12.7 2 3.8 2.4 7.3 5.7 8.5 10.1 2.4 9.3-6.5 19.8-16.2 17.9-5.6-1.3-10.8-5-13.7-10-4-7.4 1-17.2 8.7-20m.6 5.9c-4.1 1.6-6.2 6.9-4 10.8 2.1 3.6 5.8 6.3 9.8 7.3 4.2 1.1 8.6-2.1 9.2-6.3.7-3.6-1.7-6.9-4.4-8.9-2.9-2.4-6.8-4.3-10.6-2.9z"/><path d="M85.9 533.2c.7-1.2 2.4-1.4 3.4-.6 1.2.7 1.3 2.3 1.9 3.4.8 1.9 2.9 3 3.8 4.8.6 3.9-.6 7.8 0 11.7 1 3.5 3.7 6.3 3.9 10.02.2 2.9-1.7 5.2-2.1 8 .1 2.4 1.9 4.3 2.1 6.7.1 2.7-.1 5.5-1.7 7.8-1.4 2-.9 4.8-2.5 6.8-1.3 1.6-3 2.8-4.5 4.2-2.3 2.1-4.5 4.5-7.5 5.5-2.5.8-5.5.7-7.9-.5-1.1-.5-1.8-1.9-1.1-2.9 1.6-2.8 5.3-2.9 7.5-5.1 3.7-3.6 5.4-8.8 6.1-13.8.7-4.1-.8-8.6-4-11.3-1.6-1.5-3.9-2.2-5.1-4.2-1.1-1.6-1.9-3.6-3.8-4.4-3.3-1.6-7.4-1.4-10.6.4-4 2.2-7.2 5.6-10 9.1-1.7 2.2-3.4 4.5-4.1 7.2-3.8 13.4-3.5 27.5-1.8 41.2.3 2.9 1.3 5.8 3 8.2 1 1.8 2.9 3.8 1.9 6-.9 2-2 4-3.3 5.9-1.8 1.9-4.5 2.4-6.9 3.1-2.8-4.9-7.6-8.1-10.4-13-2.5-5.8-2.2-12.7-5.7-18.1-1.9-3.8-5.3-7.6-4.5-12.2.3-2.3 3-2.4 4.7-3.3 2.7-1 4.5-3.8 4.4-6.7.1-2.3-1.3-4.2-2.6-5.9.4-2.7 0-5.5.9-8.1 2.3-2.7 4.3-5.5 6.5-8.2 1.9-2.9 2.5-6.5 5.1-8.9 2.9-2.7 6.7-4 10.4-5 2.9-.8 5.9-.6 8.9-1.3 2.9-.6 5.6-1.8 8.6-2.3 2.8-.5 5.6.7 8.4.3 2.5-1.6 4-4.5 7-5.3 0-3.1-.1-6.5 1.6-9.2zm120.5 15.2c8.7-5.1 17.3-10.3 26-15.4 2.2 3.9 4.6 7.8 6.9 11.7 1.5 2.5 2.3 5.6 1.5 8.5-1.1 4-4.2 7.02-7.6 9.02-3.7 2.2-8.1 3.7-12.4 2.9-3.1-.5-5.8-2.6-7.4-5.2-2.5-3.8-4.7-7.7-7-11.5m7.6 2.6c1.5 2.4 2.6 5 4.6 7 3 2.3 7.1 1 10.1-.6 3-1.7 6.6-4.2 6.4-8.1-.5-3.1-2.8-5.6-4.2-8.3-5.6 3.3-11.2 6.7-16.9 10zm-334.4-4.82c1.4 1.5 3.3 3.2 2.7 5.5-.8 2.6-3.3 3.9-4.6 6.2.1.8.4 1.6.8 2.42-.4.8-.8 1.5-1.1 2.3-1.3-1.5-3.1-3.1-2.8-5.3.3-2.8 3.2-4 4.4-6.2.4-.9-.3-1.7-.6-2.5.5-.9.9-1.7 1.2-2.4zm5.9 7.5c10.6 1.3 21.2 2.5 31.7 3.8-1 2-2 4.12-3 6.12-2.2-.3-4.3-.7-6.5-1-1.6 3.3-3.2 6.6-4.9 9.9 1.6 1.5 3.1 3.1 4.6 4.6-1 2-2 4-2.9 6-7.4-7.7-14.9-15.3-22.3-23 1.2-2.1 2.2-4.3 3.3-6.4m4.4 6.2c3 2.9 6 5.9 9.1 8.8 1.1-2.3 2.3-4.6 3.4-6.9-4.2-.6-8.4-1.2-12.5-1.9zm330.2 12.3c9.3-3.7 18.7-7.5 28-11.2 2.8 6.9 5.5 13.7 8.3 20.6-1.7.7-3.3 1.3-4.9 2-2-5-4-9.9-6-14.9-2 .8-3.9 1.6-5.9 2.4 1.8 4.5 3.6 9.1 5.5 13.6-1.7.7-3.3 1.3-4.9 2-1.8-4.5-3.7-9.1-5.5-13.6-2.4 1-4.8 1.9-7.2 2.9 2.1 5.2 4.1 10.3 6.2 15.5-1.6.7-3.3 1.3-4.9 2-3.1-7.2-5.9-14.3-8.7-21.3zm-341.3 5.2c2.1-.9 4.4-.9 6.6-.7l-1.8 6c-1.6.2-3.4.2-4.7 1.4-2.5 2.2-3.4 6.2-1.5 9.1 1.6 2.6 4.5 3.9 7.3 4.8 2.5.7 5.2 1.1 7.8.2 3.6-1.2 5.5-5.8 3.9-9.2-.7-1.4-2-2.4-3.2-3.3l1.8-6c4.4 2.3 7.8 6.8 7.5 12l2.7 1.8c0 1.6 0 3.1.1 4.7l-3.6-2.4c-1.2 3.3-3.3 6.4-6.5 7.9-5.2 2.5-11.3 1.2-16.3-1.2-4.3-2.1-7.8-6.3-8-11.2-.4-5.5 2.5-11.7 7.9-13.9z"/><path d="M-9.3 587.62c4.9-1.7 8.4-7.6 14.1-6.7 2.9 0 5 2 7.3 3.5 3.1.7 5.4-3 8.6-1.8 2.9.5 7 3.2 5.2 6.6-2 1.3-4.4 1.6-6.2 3.2-2.4 2-2.6 5.4-2.4 8.3.8 5.3 4.6 9.3 6.6 14.1 1.9 5 1.9 10.5 4.3 15.3 2.5 4.8 7.3 7.8 10.1 12.4 1 1.6 2.1 3.3 4 4.1 2 1.1 4.9 1.7 5.7 4.2.8 2.2-.1 4.6-1.6 6.2-1.6 1.7-1.5 4.2-1.3 6.3.5 3 3.1 4.9 4.4 7.4 3.3 5.8 5.9 12.1 9.3 17.9.7 1 1.3 2.2 2.5 2.9 2.4.4 4.9-.2 7.2.8 1.7.8.8 3 0 4.1-2.2 2.7-6 2.5-9.1 2.5-2.6.1-4.8-1.5-7.3-2.2-3.4-.8-6 2.7-9.4 2.4H20.2c-1.3-.2-3.4 0-3.8-1.6 1.2-3.6 4.8-5.5 7.6-7.7.8-2.5.3-5.3 0-7.8-.3-3.6-4.1-5.5-7.4-5.3h-46.1c-1.9 2-2.2 4.8-2.5 7.4-.2 2.1-3 3.6-2.2 5.9 1.8 4.1 6.5 5.3 10.6 5.7 1.4 2.2-1.5 5.1-3.8 5.4-9.5.2-19.1 0-28.6.1-1.5-.1-3.1.2-4.5-.7-.5-1.4.5-2.6 1.4-3.5 1.5-1.6 4-1.5 5.4-3.2 2.6-2.7 4.3-6 6.3-9.1 1.9-3.1 4.2-6.2 4.7-9.9.5-2.9.2-5.8.7-8.7 1-2.7 4-4.1 4.8-6.9.6-2.3 1.2-4.7 1.5-7.1.3-2.5-.9-4.9-.4-7.4.7-2.6 3.3-3.7 4.8-5.7 1.7-3.3 1.1-7.5 3.3-10.7 1.1-1.9 3.1-3.2 4.1-5.2.9-4.6.1-9.6 2-14.1 2.3-5 5.5-9.9 5.8-15.6.1-2.3-2.5-2.5-3.9-3.5-.5-1.2.7-2.3 1.8-2.4 3.1-.6 6 .4 8.9.1m1.3 29c-2.7 3.7-3 8.5-4.1 12.7-.5 2.8-2.9 4.7-3.7 7.3-1.2 2.8-.9 5.9-1.2 8.9-.3 2.5-2.6 4-3.7 6.1-1.7 2.5-2 5.6-2.8 8.5-.4 1.6-.7 3.3-.7 5h39c.6-1.4 1.6-3 .6-4.4-1.9-2.8-5-4.5-6.6-7.5-3.1-5.7-.3-12.6-3-18.4-2.6-6.4-6-12.6-7.3-19.4-1.7-2.3-5.2-.6-6.5 1.2m-21.3 27.4c-2.6 1.3-1.2 6.7 2 5.4 1.4-1.1 2.8-2.3 4.1-3.5 0-1.8-1.2-3.4-1.4-5.2-1.6 1.1-3 2.5-4.7 3.3m50.9-2.5c-2.2 2.6-.1 6-.3 9 2.2 2.3 5.7.1 8.3-.4 1-1.5-.8-3.3-.9-4.9-.2-1.8-2.5-1.2-3.5-2.3-1.2-.6-2.3-2.4-3.6-1.4zm91.2-55.6c1.7-.7 3.1-2.9 5.2-1.9 1.7 1.2 3.1 3.4 5.4 3.5 4.3.7 7.1-3.9 11.3-3.6 2.5-.1 4.6 1.6 6.7 2.7 2.5 1.4 5.9 1.7 8.4-.1 2.1-1.4 4.4-2.4 6.9-2.6 5.6-.5 11.7-.4 16.7 2.7 2.2 1.4 5 1 7.4 2 2.2 1.2 5.1 0 6.3-2.2.7-.8 1-2.2 2.3-2.1 1.5 0 2.1 1.7 1.7 3-1.2 4.1-2.2 8.5-1.3 12.8.9 3.8 3 7.3 2.7 11.3-.3 7.2-5.1 13.8-11.7 16.7-2.2 1.6-5.6 1.2-7.4-.7-.4-4.2 5.6-5.3 6-9.3-.1-3.9-2.2-7.4-2.8-11.3-.4-4.5-3.7-8.2-7.7-10-4.4-2.2-9-4.2-14-4.1-2.9-.1-4.8 2.5-7.4 3.4-2.1.8-4.7 1.3-5.7 3.6-2.1 10.2-1.9 20.7-1.8 31.1.1 2.6.2 5.5 1.9 7.6 2.4 1.7 6.4 1.5 8.2-1.1 1.9-1.9 5.1-2.9 5.7-5.9.3-3.1-1.5-6.1-.8-9.2 1.3-2.3 4.9-1.1 6 .9 2 4 1.2 8.7 1.2 13.1-.1 2.3 2.9 3.6 2.6 6-.8 2.5-2.9 4.6-2.4 7.3-.1 2.2 1.8 4.3.8 6.5-.7 1.8-1 3.7-1.5 5.6-.4 1.3-2.1 2.8-3.4 1.8-2.8-2.2-3.1-6-2.4-9.3-1.7-1.6-4.1-2.3-5.8-3.9-1.4-1.2-3.1-2.7-5.1-2.4-1.7 1-2.7 2.9-3.9 4.4-1.5 1.8-.8 4.4-.8 6.5.2 2.7-.5 5.3-1.1 7.9-.6 2.3.2 4.6.7 6.8.8 3.5.3 7.1.7 10.7.2 2.7 3 4.1 3.8 6.6.6 1.9 1.9 3.6 3.9 4 2.9.5 5.9.9 8.8.5 1.6-.2 2-2.3 3.3-3 1.1-.5 2.3.6 2 1.8-.5 2.4-2 4.6-3.6 6.4-1.6 1.7-4.2 1.9-6.4 1.6-2.6-.6-4.8-2-7.4-2.6-3.7-.8-7.6-.7-11.2.4-1.5.4-3.1.8-4.7.4-2.2-.6-3.7-2.9-6-3.2-4.8.3-8.4 4.9-13.3 4.6-1.5.1-2-1.4-2.7-2.4-1.4-.7-2.8-1.5-4-2.5 1-1.2 2.4-1.8 3.9-2 2.2-.3 3.9-2.1 4.7-4.1 1-2.6 2.6-5.1 2.6-8 .2-10.7.4-21.3.5-32 .1-3.2-3.3-5.5-2.8-8.8.7-2.9 2.8-5.5 3-8.5.2-2.9.4-5.8.9-8.7 1.3-7.2-1.1-14.3-1.6-21.4-.3-3.1 0-6.8-2.6-9.1-1.1-1.4-3.2-2.2-3.5-4.2-.1-2.5 2.7-3 4.6-4m11.2 52c-.2 2.1.9 4.2 2.3 5.8 2.1.8 4.9.4 6.6-1 0-1.8-2.1-2.8-2.2-4.7-.1-2.7-2.4-4.3-4.1-6.1-1.3 1.8-2.3 3.8-2.6 6zm107.7-33c9.9-1.8 19.7-3.7 29.6-5.5 1.4 7 2.6 14.1 4 21.1-1.7.3-3.5.7-5.2 1-.9-5-1.9-9.9-2.8-14.9l-6.7 1.2 2.4 13c-1.7.3-3.5.7-5.2 1-.8-4.4-1.6-8.7-2.4-13-4.2.8-8.3 1.6-12.5 2.3l-1.2-6.2zm-365.8 7.9c10.5-2 20.9-4.1 31.4-6.1-.3 2.3-.7 4.5-1 6.8-2.1.3-4.3.7-6.4 1-.5 3.7-1.1 7.3-1.6 11 1.9 1 3.9 2 5.8 3-.3 2.2-.6 4.4-1 6.5-9.4-5-18.8-10-28.3-15 .4-2.4.7-4.8 1.1-7.2m6.1 4.6c3.8 1.9 7.6 3.8 11.3 5.6.4-2.5.7-5.1 1.1-7.6-4.1.7-8.3 1.4-12.4 2zm367.2 11.7c2.3-1.9 5.3-2.2 8.2-2.3 6.2-.2 12.4-.5 18.5-.7.1 2.1.2 4.3.2 6.4-6.5.3-13 .5-19.4.7-2.4 0-5 1.1-5.7 3.6-.5 2.1-.3 4.5 1.1 6.3 1.2 1.5 3.4 1.7 5.2 1.6 6.4-.2 12.9-.5 19.3-.7.1 2.1.2 4.3.2 6.4-6.5.2-13 .5-19.5.7-3 .1-6.3-.5-8.5-2.7-2.6-2.5-3.4-6.4-3.4-9.9 0-3.4 1-7.2 3.8-9.4zm-375.7 5.9c10 .4 20.1.8 30.1 1.1-.1 2.1-.2 4.2-.2 6.3-10-.4-20.1-.8-30.1-1.1 0-2.1.1-4.2.2-6.3zm19 10.1c3.7.6 7.5 2.1 9.7 5.3 3.6 5.4 3.2 13.5-1.8 17.9-3.9 3.4-9.3 4.2-14.3 3.9-4.8-.3-9.7-2.8-11.8-7.3-2.5-5.2-2-12.3 2.5-16.3 1.6-1.5 3.7-2.3 5.8-2.9.2 2.1.3 4.2.5 6.3-1.4.8-3.1 1.4-3.9 2.9-1.5 2.8-1 6.8 1.6 8.9 2 1.7 4.8 2.1 7.3 2.1 3.1 0 6.3-.6 8.7-2.6 3.1-2.4 3.1-7.8.1-10.3-1.1-.9-2.6-1.3-3.9-1.7-.2-2-.4-4.1-.5-6.2zm378.8 9.9l5.3.6c-.9 8.1-1.8 16.3-2.6 24.4l-5.3-.6c.3-3 .7-6 1-9.1l-24.7-2.7c.2-2.1.4-4.2.7-6.3l24.7 2.7.9-9z"/><path d="M81 669.82c2.1-1 5.4-1.1 6.3 1.5 1.3 3.2 4.2 5.2 5.8 8.2 1.1 1.8 1.9 3.8 2.5 5.9.3 2 2.8 2.6 3.3 4.5-.5 3.5-1.5 7.7 1.1 10.7 1.2 1.9 3.9 3.3 3.6 5.9-1.1 8.1-.3 16.3-1.4 24.3-.1 1.4-.6 2.7-1.5 3.7-2 2.7-3.2 6.1-6 8.1-1.9 1.2-2.7-1.4-2.9-2.8-.2-2.2-2.1-3.4-3.1-5.2-.7-.9-1-2.2-2.2-2.4-2.3-.5-4.7-.5-7-.4-3.1 0-5.9 1.5-8.7 2.4-5.8 2-12.1 2-18.1 1.4-2.7-.2-4.9-1.9-7.4-2.9-3.4-1.4-5.8-4.4-8.2-7-2.6-3.2-5.3-6.4-7.3-10.1-.9-1.9-3.1-2.9-3.9-4.9-.2-3.1 2.5-5.2 4.6-6.9 4.5-.2 9 .1 13.4-.1 2.5-.5 4.9-1.6 7.3-2.5 2.1 3.3 5.5 5.3 8.4 7.8 2.4 1.9 3.6 4.9 6.2 6.6 2.6 1.8 5.9 1.9 8.9 1.7 2.8 0 4.7-2.4 7.2-3.3 1.8-.6 2.5-2.5 3.3-4 1.8-4.3 4.2-8.5 4.3-13.3.4-3.6-1.3-7-1.4-10.6 0-2.2-.8-4.3-2.2-6-1.4-1.5-.5-3.9-1.8-5.5-1.1-1.6-2.5-3-3.1-4.8zm-201.3 5.9c4.4-1.1 9.4-1.2 13.3 1.4 6.1 4.2 8.2 13.3 4.6 19.7-2.4 4.1-7 6.2-11.4 7.1-4.1.9-8.7.7-12.2-1.7-5.8-4.2-7.9-12.7-4.7-19.1 1.9-4.1 6.1-6.4 10.4-7.4m2 6c-3.3.8-6.8 2.4-8.1 5.7-1.8 4.1.8 9.4 5.1 10.3 4.2.9 8.9-.2 12.4-2.8 3.7-2.7 3.8-8.8.3-11.8-2.7-2.3-6.5-2.2-9.7-1.4zm346.4 18.1l5.7-22.2c9.7 2.5 19.5 5 29.2 7.4-1.8 7.2-3.6 14.3-5.5 21.5-1.7-.4-3.4-.9-5.2-1.3l3.9-15.5-6.2-1.5-3.6 14.2c-1.7-.4-3.4-.9-5.2-1.3l3.6-14.2c-2.5-.6-5.1-1.3-7.6-1.9-1.4 5.4-2.7 10.8-4.2 16.2-1.5-.5-3.2-.9-4.9-1.4zm-6.8 16.7c1.8-4.9 4-9.7 6-14.5 9.2 3.9 18.5 7.9 27.7 11.8-1.8 4.3-3.7 8.6-5.5 12.9-1 2.3-2.4 4.8-4.8 5.9-4.2 2.1-10.1-.7-10.5-5.5-3.8 3.8-10.5 1.7-12.7-2.8-1.4-2.3-1.1-5.3-.2-7.8m4.9 2.1c-.9 3.4 4.3 6.2 6.5 3.5 2.1-2.7 2.9-6.2 4.4-9.2-2.5-1.1-4.9-2.2-7.4-3.2-1.1 2.9-2.7 5.7-3.5 8.9m12.2 5.4c-.4 2.7 3.6 4.6 5.3 2.3 2-2.7 2.8-6 4.2-8.9-2-.9-4-1.8-6.1-2.6-1.1 3-2.9 5.9-3.4 9.2zm-349.4-14.7c.7-3.8 4.8-5.9 8.3-6 4.2-.1 7.5 3.3 9.2 6.8 1.8 3.8 3.2 8.4 1.3 12.4-.9 2.2-2.9 3.6-5 4.7-.8-1.8-1.5-3.6-2.3-5.5 1.1-1 2.5-2 2.7-3.7.2-2.8-1.1-5.7-3-7.8-1.4-1.8-4.9-1.3-5.4 1-.5 4.9 1.9 9.7 1.2 14.6-.6 4-5 6.3-8.8 6.3-3.5-.1-6.4-2.6-8-5.6-2-3.6-3.3-8.2-1.5-12.2.9-2.1 2.8-3.5 4.6-4.8.9 1.8 1.7 3.7 2.4 5.5-4 2.4-2.6 8.2.6 10.7 1.7 1.4 4.7.3 4.8-1.9.2-4.8-1.8-9.6-1.1-14.5zm11.2 25.2c.2-5.7 7.6-9.2 12.4-6.5 4.6 2.5 7.6 7.5 8.5 12.5.7 3.8-1.5 7.3-4.5 9.4-1-1.7-2.1-3.4-3.1-5.1 1.1-1.2 2.3-2.5 2.1-4.2-.3-2.9-2-5.6-4.4-7.3-1.8-1.4-5.1.1-4.8 2.5.5 4.6 3.1 8.7 3.3 13.4.2 4.2-3.8 7.4-7.6 7.9-3.6.5-6.9-1.7-8.9-4.4-2.5-3.2-4.4-7.4-3.2-11.6.6-2.3 2.2-4.1 4.1-5.6 1 1.7 2.1 3.4 3.1 5.1-3.6 3-1.3 8.7 2.3 10.6 1.8.9 4.4-.6 4.3-2.7-.9-4.7-3.5-9.1-3.6-14zm316.1-2.9c3.9-1.4 8.3-.4 11.9 1.6 3.9 2.1 7.6 5.2 9.1 9.5 3 8.9-4.9 19.8-14.5 19-6-.7-11.7-4.4-14.9-9.5-4.5-7.5.4-17.9 8.4-20.6m.6 6c-4.4 1.6-6.5 7.4-3.8 11.3 2.5 3.6 6.6 6.2 11 6.7 4.5.4 8.4-3.9 8-8.3-.3-3.4-2.9-6-5.7-7.8-2.7-1.8-6.3-3.2-9.5-1.9zm-309 34.7c5.4-9.2 10.8-18.4 16.3-27.5 1.5 1.7 2.9 3.5 4.4 5.2-1.2 1.8-2.3 3.6-3.5 5.5 2.4 2.9 4.8 5.7 7.1 8.5 2-.8 4.1-1.6 6.1-2.4l4.2 5.1-30 11.1c-1.5-1.7-3.1-3.6-4.6-5.5m14.3-12c-2.2 3.5-4.5 7.1-6.8 10.6 3.9-1.6 7.8-3.1 11.7-4.7-1.6-2-3.3-4-4.9-5.9zm116.1-8.7c.6 0 1.2-.1 1.7-.1v22.8h-2.8v-17.7c-1.7 1.3-3.6 2.4-5.6 3.3v-2.7c2.7-1.2 5.1-3.1 6.7-5.6zm12.1 1.1c3-2 7.4-1.3 9.6 1.6 2 2.5 2.1 5.9 2.1 9-.1 3.1-.5 6.6-2.6 9.1-2.2 2.7-6.6 3.2-9.4 1.3-1.6-1-2-2.9-2.6-4.5.9-.1 1.8-.1 2.7-.2.6 1.1.9 2.6 2.1 3.2 1.8.8 4.2.2 5.3-1.4 1.5-2 1.5-4.5 1.9-6.8-1.9 2.1-5 3.6-7.9 2.4-5.5-2.2-5.9-10.6-1.2-13.7m2.7 1.4c-4 1.6-4.3 8.4-.1 9.8 3 1.2 6.1-1.6 5.9-4.7.5-3-2.5-6.5-5.8-5.1zm11.9-2.1h14.8c-.1 1.1-.1 2.3-1 3.1-4.4 5.5-7.2 12.2-7.9 19.3H68c.5-7.2 3.4-14.1 7.9-19.7h-11c.1-.9.1-1.8.1-2.7zm20 1.2c3.3-3 9.8-1.8 11.1 2.8.8 2.4-.6 4.9-2.8 6 3.6.9 5 5.3 3.5 8.4-2 4.5-8.6 5.7-12.1 2.4-1.3-1.1-1.8-2.9-2.3-4.5.9-.1 1.9-.3 2.8-.4.6 1.9 1.5 4.2 3.8 4.4 3.7.8 6.8-3.6 4.9-6.8-1.1-2.2-3.8-2.4-5.9-2.1.1-.5.3-1.6.3-2.1 2.1-.2 4.8-.9 5-3.4.6-2.8-2.6-4.8-5-3.9-1.8.5-2.3 2.4-2.9 3.9l-2.7-.6c.5-1.4 1-3 2.3-4.1zm100.8 14.7c4.7-5.3 9.2-10.7 14.1-15.8 7.6 6.5 15 13.2 22.6 19.8-1.4 1.6-2.8 3.2-4.2 4.7-6.2-5.5-12.4-10.9-18.5-16.3-3.3 3.7-6.6 7.5-9.9 11.2-1.4-1.2-2.7-2.4-4.1-3.6zm-49.8 19.4c-.3-5.4 5.7-9.6 10.8-8.2 1.6.4 2.7 1.6 3.8 2.7-1.1.6-2.2 1.3-3.3 1.9-1.2-.6-2.5-1.8-3.9-1.2-2.7.5-4.3 3.6-3.2 6.2 1 2.9 3.1 6.4 6.6 6.2 2.8-.3 4.3-3.2 3.6-5.7 1.1-.6 2.2-1.2 3.4-1.8.3 2.1.8 4.3-.2 6.3-2 4.3-8 6.5-12 3.7-3.3-2.5-5.4-6.3-5.6-10.1zm-155.1-7.2c4.7-3.2 12 .3 12.7 5.9.2 1.3-.2 2.6-.5 3.9-1.1-.6-2.2-1.2-3.3-1.9-.1-1 .1-2.1-.2-3-1.1-2.2-4.3-3.3-6.4-1.8-2.2 1.6-3.6 4.2-4.1 6.8-.5 2.7 2.2 5.2 4.9 4.8 1-.3 1.8-.9 2.7-1.5 1.1.6 2.2 1.3 3.3 1.9-1.1.9-2.2 1.9-3.5 2.5-4.6 1.9-10.4-1.5-11.2-6.4-.4-4.4 2-8.8 5.6-11.2zm16.8 5.1c1.2.5 2.4 1 3.6 1.6-1 2.2-1.9 4.3-2.8 6.5 2.2 1 4.5 1.9 6.7 2.9.9-2.2 1.9-4.3 2.8-6.5l3.6 1.5c-2.5 5.7-4.9 11.4-7.4 17.1l-3.6-1.5c1.1-2.6 2.2-5.1 3.3-7.7-2.2-1-4.5-1.9-6.7-2.9-1.1 2.6-2.2 5.1-3.3 7.7l-3.6-1.5c2.4-5.8 4.9-11.5 7.4-17.2zm123.4 5.1c2-2.2 5.2-3.6 8.3-3.2 2 .2 3.4 1.8 4.5 3.3-1.1.5-2.2 1-3.4 1.5-1.8-2.2-5.1-1.6-6.7.5-.8 1-.3 2.5.9 2.9 3.3.1 6.6-1.5 10-.7 3.2 1.2 4.1 6 1.9 8.5-3.3 3.9-10.8 5.5-13.5.2l3.3-1.5c2 2.6 5.8 1.7 7.6-.7.9-1 .1-2.8-1.2-2.9-3.1-.2-6.1 1.3-9.2.8-3.6-1.1-4.8-6.1-2.5-8.7zM7.3 809.62c3.9-5.3 7.8-10.7 11.7-16 1.4.4 2.8.8 4.3 1.2.4 6.6.7 13.2 1 19.8l-4.1-1.2c0-1.4 0-2.7-.1-4-2.2-.6-4.4-1.3-6.6-2l-2.4 3.3c-1.1-.3-2.5-.7-3.8-1.1m8.2-4.9c1.5.4 3 .9 4.6 1.4 0-2.6-.1-5.2-.1-7.8-1.5 2-3 4.2-4.5 6.4zm15.6-7.7c3.4.7 7 .9 10.3 2.1 4.6 2.1 3.4 9.9-1.4 11-2.4.4-4.8-.4-7.2-.7-.4 2.1-.7 4.3-1.2 6.4-1.3.1-2.6-.3-3.8-.5l3.3-18.3m3.3 3.8c-.3 1.8-.7 3.6-1 5.4 1.5.2 3 .6 4.6.7 2.4.1 3.3-3.9 1.2-4.9-1.5-.7-3.2-.8-4.8-1.2zm52.5-2c3.7-1.6 8.6-.7 10.8 2.8 2 3.3 2.7 7.6 1.2 11.2-2.5 5.6-11.2 6.7-14.9 1.8-3.6-4.8-3.5-13.5 2.9-15.8m2 2.8c-4.3 1.3-4 7.1-2.2 10.3 1.5 3.1 6.4 3.2 8.2.3 1.4-2.5.9-5.8-.3-8.3-1-2-3.5-3-5.7-2.3zm14.8.8c3.9-1.1 7.8-2.2 11.7-3.2.4 1.3.7 2.5 1.1 3.8-3.9 1.1-7.8 2.2-11.7 3.2-.4-1.3-.7-2.6-1.1-3.8zm-57.8 15.9c.4-6.2.9-12.4 1.3-18.6 4.6.3 9.1.6 13.7 1-.1 1.1-.2 2.2-.2 3.3-3.3-.2-6.6-.5-9.9-.7l-.3 3.9 9.1.6c-.1 1.1-.2 2.2-.2 3.3l-9.1-.6-.3 4.8c3.4.2 6.9.5 10.3.7-.1 1.1-.2 2.2-.2 3.3-4.8-.3-9.5-.6-14.2-1zm18.3-14.2c2.4-4.6 9.3-5.5 13.1-2.1 1.2 1.1 1.8 2.7 2.4 4.2-1.3.1-2.6.1-3.9.2-.6-.8-1-1.8-1.8-2.5-2.1-1.3-5.3-.5-6.3 1.9-1.1 2.4-.9 5.3.1 7.8.8 2.1 3.4 3.2 5.5 2.3 1.6-.4 2.1-2.1 2.7-3.4 1.3-.1 2.6-.1 3.9-.1-.5 1.6-.9 3.3-2.1 4.6-3.5 4-10.9 3.4-13.4-1.4-1.8-3.5-1.9-7.9-.2-11.5z"/></g></svg>