<svg id="Layer_1" xmlns="http://www.w3.org/2000/svg" viewBox="-200.496 308.748 175.748 175.748"><style>.st0{fill:#3F7249;} .st1{fill:#FFFFFF;}</style><path class="st0" d="M-112.62 308.75c24.2 0 46.16 9.87 62.08 25.8 15.92 15.9 25.8 37.9 25.8 62.1 0 24.18-9.88 46.15-25.8 62.06-15.92 16-37.9 25.8-62.08 25.8-24.2 0-46.17-9.8-62.08-25.8-15.93-15.9-25.8-37.8-25.8-62 0-24.2 9.87-46.2 25.8-62.1 15.9-15.9 37.88-25.8 62.08-25.8zm0 1.44c-23.8 0-45.4 9.7-61.07 25.3-15.6 15.63-25.3 37.3-25.3 61.1 0 23.8 9.7 45.4 25.4 61 15.67 15.65 37.27 25.36 61.08 25.36 23.8 0 45.4-9.7 61.08-25.37 15.6-15.63 25.32-37.23 25.32-61.03 0-23.8-9.7-45.42-25.35-61.1-15.7-15.65-37.3-25.35-61.1-25.35z"/><path class="st1" d="M-112.62 310.2c47.57 0 86.4 38.8 86.4 86.4 0 47.55-38.83 86.37-86.4 86.37s-86.4-38.82-86.4-86.36c0-47.6 38.83-86.4 86.4-86.4z"/><path class="st0" d="M-112.62 312.76c46.18 0 83.86 37.68 83.86 83.9 0 46.14-37.68 83.82-83.86 83.82s-83.86-37.68-83.86-83.83c0-46.2 37.68-83.9 83.86-83.9z"/><path class="st1" d="M-183.16 416.88l-.03-2.63c1.5-.06 2.7.23 3.6.87.9.63 1.6 1.6 2.1 2.92.5 1.6.4 3.15-.4 4.53-.8 1.42-2.1 2.43-4.02 3.04-2.02.7-3.75.7-5.22 0-1.47-.6-2.5-1.9-3.03-3.6-.5-1.5-.43-2.8.15-4 .34-.7.95-1.4 1.85-1.96l1.32 2.26c-.58.35-1 .8-1.2 1.4-.22.56-.22 1.17 0 1.84.3.9.85 1.53 1.7 1.88.82.35 1.95.3 3.42-.17 1.55-.55 2.56-1.18 3.02-1.9.5-.8.57-1.6.3-2.5-.23-.68-.63-1.18-1.2-1.5-.56-.3-1.34-.5-2.3-.4zm-3.2-6.2c-1.3.16-2.44.1-3.36-.2-.67-.2-1.3-.5-1.88-.94-.58-.43-1.04-.92-1.36-1.5-.43-.75-.7-1.62-.83-2.66-.2-1.88.2-3.47 1.2-4.74 1.1-1.24 2.6-2.02 4.7-2.28 2.1-.23 3.76.1 5.06 1.1s2.08 2.4 2.3 4.24c.24 1.9-.16 3.5-1.17 4.74s-2.55 2-4.57 2.23zm-.4-2.6c1.4-.2 2.47-.65 3.14-1.4.66-.78.92-1.65.8-2.7-.14-1-.6-1.8-1.4-2.36-.85-.58-1.97-.78-3.48-.58-1.44.18-2.48.6-3.12 1.36-.66.72-.9 1.62-.78 2.66.14 1.07.6 1.88 1.42 2.43.8.5 1.93.7 3.4.5zm5.13-13.9l-12.7-1.78.77-5.4c.17-1.36.43-2.34.75-2.92.3-.58.7-1 1.4-1.3s1.3-.37 2-.3c.95.16 1.7.56 2.25 1.2.55.63.8 1.53.8 2.7.4-.54.85-.94 1.3-1.26.42-.3 1.2-.7 2.24-1.15l2.72-1.22-.45 3.07-3.03 1.47c-1.1.5-1.78.8-2.07 1.1-.3.2-.5.4-.63.6s-.25.66-.3 1.26l-.1.52 5.33.74-.38 2.55zm-6.96-3.6l.3-1.9c.2-1.22.3-2 .2-2.32s-.2-.58-.4-.8c-.23-.2-.54-.32-.9-.38-.45-.06-.8 0-1.1.17-.3.2-.5.5-.62.9-.06.2-.18.84-.32 1.88l-.3 2 3.26.45zm9.4-10.6l-12.22-3.76.75-2.48 12.25 3.75-.77 2.4zm2.86-8.9l-9.65-4.5-1.62 3.43-1.95-.9 4.3-9.2 1.98.9-1.6 3.5 9.68 4.5-1.1 2.36zm4.25-8.38l-11.13-6.42 1.3-2.25 11.1 6.4-1.26 2.27zm-6.44-14.42l3.44-3.82c.64-.75 1.2-1.27 1.6-1.6.4-.3.8-.5 1.26-.62.5-.12 1-.12 1.5-.03.5.2.96.4 1.4.8.43.4.72.9.9 1.5.14.6.14 1.16-.07 1.74.7-.44 1.4-.64 2.1-.6.7.07 1.3.36 1.8.85.44.37.78.87 1 1.44.24.56.3 1.1.24 1.7-.1.6-.32 1.12-.73 1.7-.23.34-.92 1.12-2.02 2.36l-2.94 3.23-9.52-8.57zm3.3-.5l2.2 2 1.17-1.27c.68-.7 1.08-1.2 1.23-1.4.25-.3.36-.7.36-1.1-.02-.3-.2-.6-.5-.9-.3-.23-.6-.4-.93-.4-.3 0-.65.17-1 .46-.2.17-.66.7-1.5 1.6l-1 1.1zm3.8 3.42l2.55 2.3 1.6-1.78c.65-.7 1-1.16 1.14-1.36.2-.35.3-.7.25-1.07-.06-.4-.24-.7-.58-1-.3-.3-.55-.4-.9-.5-.32 0-.64 0-.95.2-.38.16-.9.7-1.7 1.55l-1.4 1.56zm21.24-12.2l-2.24 1.73-2.63-1.6-4.05 3.14.95 2.94-2.17 1.8-3.96-13.2 2.18-1.7 11.93 6.98zm-6.9-1.07l-4.32-2.66 1.56 4.8 2.75-2.14zm12.7-2.14l-5.2-11.7 8.04-3.6.9 2-5.68 2.5 1.2 2.8 4.95-2.2.88 1.9-4.9 2.15 2.24 5-2.36 1.04zm9.48-11.1c-.3-1.28-.37-2.38-.17-3.3.1-.7.4-1.38.78-2 .4-.6.85-1.1 1.37-1.5.72-.5 1.56-.88 2.57-1.1 1.87-.45 3.5-.2 4.84.7 1.4.84 2.3 2.32 2.77 4.4.46 2 .26 3.7-.6 5.1-.8 1.4-2.16 2.3-4 2.7-1.83.45-3.45.2-4.8-.7-1.36-.85-2.3-2.3-2.72-4.3zm2.57-.67c.33 1.42.9 2.4 1.7 3 .86.55 1.78.73 2.76.5 1.05-.24 1.8-.8 2.26-1.65.5-.87.54-2.05.22-3.5-.34-1.4-.9-2.43-1.7-2.98-.8-.55-1.7-.73-2.7-.5-1.05.26-1.83.8-2.3 1.65-.47.86-.55 2-.2 3.46zm14-2.5c.03-1.3.26-2.4.66-3.3.3-.65.7-1.2 1.25-1.74s1.07-.9 1.67-1.13c.8-.3 1.74-.46 2.78-.46 1.88.03 3.38.66 4.48 1.85 1.1 1.2 1.66 2.82 1.63 4.9-.02 2.1-.63 3.7-1.8 4.83-1.1 1.14-2.62 1.7-4.5 1.66-1.9-.02-3.4-.62-4.5-1.8-1.1-1.2-1.65-2.8-1.62-4.8zm2.7-.07c-.04 1.47.3 2.57.94 3.32.63.77 1.5 1.14 2.5 1.17 1.05 0 1.9-.32 2.6-1.05.64-.75 1-1.84 1.02-3.35.02-1.44-.27-2.57-.9-3.3-.64-.7-1.47-1.1-2.54-1.1-1.1-.04-1.96.3-2.6 1.03-.7.74-1 1.83-1.06 3.3zm15.9 7.6l2.2-10.44-3.7-.78.4-2.15 9.98 2.12-.43 2.1-3.74-.77-2.2 10.45-2.5-.54zm18.7-7.78l4.54 2.33c.92.48 1.55.85 1.96 1.17.4.3.75.63.98 1.06.23.4.38.9.4 1.4.04.5-.08 1.02-.34 1.5-.25.53-.66.96-1.15 1.25-.53.3-1.1.43-1.7.4.6.58.94 1.2 1.06 1.88.15.66.04 1.32-.3 2-.27.5-.65.94-1.14 1.32-.5.4-1 .6-1.6.7-.56.1-1.17 0-1.8-.24-.4-.13-1.36-.6-2.84-1.35l-3.83-1.97 5.8-11.47zm1.33 3.1l-1.35 2.6 1.5.78c.9.47 1.48.73 1.7.8.44.2.8.2 1.16.07.3-.1.6-.36.8-.7.14-.38.2-.7.12-1-.1-.3-.32-.6-.67-.88-.2-.16-.86-.5-1.96-1.05l-1.3-.66zm-2.34 4.52l-1.54 3.1 2.13 1.1c.8.4 1.33.68 1.6.74.34.1.7.1 1.1-.04.3-.15.6-.4.8-.8.14-.36.2-.68.2-1-.1-.34-.2-.63-.5-.9-.24-.28-.9-.66-1.95-1.2l-1.88-.96zm16.9 17.75l-2.23-1.7.96-3-4.08-3.16-2.63 1.63-2.16-1.66 11.85-7.04 2.13 1.7-3.88 13.25zm-.64-6.9l1.56-4.87-4.3 2.7 2.73 2.17zm2.57 9.15l9.45-8.5 1.7 1.9-7.84 7.1 4.3 4.8-1.6 1.42-6.06-6.73zm7.86 9.5l11-6.4 1.3 2.26-9.12 5.3 3.2 5.6-1.85 1.05-4.5-7.8zm14.2 20.86l-.03 2.64c-1.43.02-2.6-.27-3.54-.94-.9-.65-1.56-1.63-1.96-2.96-.5-1.63-.33-3.13.45-4.5.8-1.4 2.15-2.4 4.1-3 2-.63 3.8-.57 5.2.12 1.5.72 2.47 1.94 3 3.64.46 1.5.4 2.84-.2 4.06-.36.72-1 1.35-1.9 1.93l-1.33-2.27c.62-.35 1.02-.8 1.25-1.4.2-.57.25-1.18.05-1.84-.3-.9-.83-1.54-1.64-1.9-.85-.4-1.98-.3-3.45.1-1.56.5-2.57 1.1-3.06 1.85-.5.77-.6 1.6-.35 2.47.2.68.58 1.17 1.15 1.5.56.36 1.34.5 2.3.45zm-3.4 7.65l12.67-1.12.25 2.6-10.56.9.52 6.43-2.15.2-.8-9zM-31 400.7l-.3 2.6-6.94-.83c-1.1-.14-1.8-.17-2.14-.17-.56.07-1 .27-1.4.65-.34.4-.57.93-.66 1.66-.1.74-.03 1.3.23 1.7s.6.68 1 .8c.45.14 1.17.3 2.2.4l7 .9-.3 2.56-6.7-.83c-1.53-.15-2.6-.35-3.2-.6-.6-.15-1.14-.5-1.5-.9-.4-.44-.68-.96-.88-1.62-.18-.65-.2-1.5-.1-2.5.15-1.2.4-2.1.78-2.7.38-.6.8-1.05 1.3-1.34.5-.3 1-.47 1.5-.53.76-.1 1.8-.03 3.27.14l6.8.8zm-2.7 16.5l-1.6 4.9c-.34 1-.6 1.68-.8 2.14-.26.43-.58.8-.96 1.1s-.8.5-1.3.6c-.5.12-1 .1-1.52-.1-.57-.2-1.03-.52-1.44-1-.38-.44-.58-.96-.66-1.6-.44.7-1.02 1.16-1.65 1.4-.67.23-1.34.23-2.06 0-.55-.2-1.04-.5-1.5-.93-.45-.4-.74-.9-.9-1.45-.18-.55-.18-1.15-.04-1.8.1-.45.37-1.46.86-3l1.35-4.2 12.2 4zm-2.86 1.84l-2.8-.9-.52 1.6c-.28.95-.5 1.56-.52 1.8-.07.45-.05.83.13 1.15.14.3.43.53.84.65.37.1.7.1 1 0 .3-.17.56-.4.73-.8.14-.26.37-.96.75-2.1l.46-1.4zm-4.82-1.6l-3.26-1.05-.73 2.3c-.3.85-.46 1.43-.5 1.7-.02.37.04.72.2 1.03.2.33.5.56.94.7.4.1.7.1 1 .03.33-.08.6-.3.8-.58.25-.3.54-1 .9-2.14l.65-2zM-172 441.1c1.45 0 2.64 1.22 2.64 2.66 0 1.45-1.2 2.63-2.63 2.63-1.46 0-2.64-1.2-2.64-2.65s1.18-2.67 2.66-2.67zm118.9 0c-1.46 0-2.64 1.22-2.64 2.66 0 1.45 1.16 2.63 2.6 2.63s2.64-1.2 2.64-2.65-1.18-2.67-2.63-2.67zM-160.27 463l6.96-10.74 3.5 2.25c1.3.9 2.1 1.5 2.45 1.9.52.58.78 1.28.87 2.08.06.83-.17 1.66-.75 2.5-.45.66-.9 1.15-1.46 1.44-.5.3-1.06.47-1.6.47-.52.03-1-.06-1.45-.23-.58-.23-1.36-.66-2.34-1.3l-1.4-.92-2.64 4.1-2.17-1.43zm7.97-7.53l-2 3.04 1.2.8c.9.6 1.5.9 1.8 1 .4.07.8.04 1.1-.1.3-.14.6-.4.8-.7.26-.4.35-.8.3-1.2s-.27-.72-.6-1c-.2-.24-.7-.6-1.5-1.1l-1.03-.7zm17 20.06l-2.62-1.07.07-3.13-4.74-1.9-2.1 2.28-2.5-1 9.42-10 2.54 1.1v13.8zm-2.54-6.5l.14-5.1-3.4 3.8 3.23 1.3zm9.7 7.77l1.8-12.7 5.4.74c1.35.2 2.34.46 2.9.78.6.32 1 .78 1.3 1.4.3.65.4 1.34.28 2.1-.1.95-.5 1.7-1.15 2.25-.67.53-1.56.82-2.7.82.53.4.94.8 1.23 1.2.3.4.7 1.15 1.17 2.22l1.2 2.7-3.1-.45-1.44-3c-.5-1.1-.9-1.78-1.1-2.07-.2-.3-.4-.5-.67-.63-.28-.15-.7-.27-1.3-.35l-.53-.07-.75 5.3-2.56-.4zm3.6-6.96l1.9.26c1.24.17 2 .23 2.33.17.3-.05.56-.22.76-.42.25-.23.37-.55.43-.93.04-.43 0-.78-.2-1.1-.2-.28-.5-.5-.9-.63-.2-.1-.8-.2-1.87-.3l-2-.3-.44 3.2zm26.45 7.45l-2.82.2-1.33-2.8-5.12.4-.73 3-2.76.26 3.8-13.23 2.76-.24 6.26 12.32zm-5.2-4.7l-2.15-4.6-1.34 4.9 3.5-.34zm12.3 3l-4.4-12.08 2.4-.86 7.85 6.27-2.9-8.04 2.26-.8 4.4 12.04-2.47.86-7.7-6.05 2.84 7.84-2.26.8zm27-13.38l-2.32 1.54-2.54-1.85-4.3 2.8.7 3-2.3 1.5-2.8-13.47 2.3-1.5 11.3 8.02zm-6.74-1.67l-4.04-3.06 1.16 4.94 2.9-1.9zm1.25-10.5l-1.77 1.1c-.34 1.2.47 3.6 1.2 4l.57-.4c-.4-1.8-.28-3.3 0-4.7z"/><path class="st1" d="M-112.62 330c36.67 0 66.6 29.95 66.6 66.65 0 36.64-29.93 66.58-66.6 66.58s-66.6-29.94-66.6-66.58c0-36.7 29.93-66.64 66.6-66.64z"/><path class="st0" d="M-112.62 333.1c34.96 0 63.52 28.56 63.52 63.55 0 34.94-28.56 63.5-63.52 63.5s-63.52-28.56-63.52-63.5c0-35 28.55-63.54 63.52-63.54z"/><path class="st1" d="M-69.88 443.52c-8.6-13.52-24.57-22.62-42.74-22.62-18.18 0-34.13 9.1-42.74 22.62 7.34 6.7 16.24 11.7 26.1 14.4 4.27-3.16 10.16-5.1 16.64-5.1 6.47 0 12.37 1.94 16.64 5.1 9.86-2.7 18.76-7.7 26.1-14.4zm0-93.8c-8.6 13.53-24.57 22.63-42.74 22.63-18.18 0-34.13-9.1-42.74-22.63 7.34-6.7 16.24-11.7 26.1-14.4 4.27 3.16 10.16 5.13 16.64 5.13 6.47 0 12.37-1.97 16.64-5.12 9.86 2.7 18.76 7.7 26.1 14.4z"/><path class="st0" d="M-80.02 361.52c-2.48-5.06-5.4-9.44-8.97-13.33-3.5-3.9-7.8-7.3-12.8-10.4l.6-.9c5.15 3.1 9.45 6.6 13.1 10.5 3.65 3.95 6.63 8.42 9.15 13.6l-.97.5zm-15.22 8.44c-.13-1.44-.34-2.9-.64-4.4-.3-1.5-.68-3.03-1.13-4.56-2.4-7.9-6.5-16.03-10.5-22.02l.9-.6c4 6.07 8.2 14.3 10.6 22.32.4 1.57.8 3.13 1.1 4.65.3 1.55.53 3.06.65 4.52l-1.07.1zm-17.92 3.24v-33.5h1.08v33.5zm-17.92-3.32c.13-1.47.35-2.98.66-4.53.3-1.52.7-3.08 1.15-4.65 2.36-8.02 6.55-16.25 10.6-22.32l.9.6c-4 6-8.14 14.12-10.46 22.02-.45 1.53-.83 3.06-1.14 4.56-.3 1.5-.5 2.96-.63 4.4l-1.08-.08zm-15.12-8.84c2.53-5.14 5.5-9.6 9.15-13.58 3.64-3.96 7.94-7.42 13.1-10.54l.57.92c-5.1 3.07-9.3 6.46-12.88 10.35-3.57 3.8-6.5 8.2-8.97 13.3l-.96-.5zm67.15 71.16c-2.52 5.16-5.5 9.63-9.15 13.6-3.65 3.96-7.95 7.4-13.1 10.52l-.56-.92c5.07-3.06 9.3-6.45 12.86-10.33s6.5-8.27 8.98-13.34l.97.47zm-15.12-8.83c-.12 1.46-.34 2.98-.65 4.52-.3 1.5-.7 3-1.16 4.6-2.36 8-6.55 16.22-10.6 22.3l-.88-.6c3.98-6 8.12-14.1 10.45-22 .4-1.57.8-3.1 1.1-4.6.3-1.5.5-2.97.6-4.4l1.1.1zm-17.9-3.34v33.55h-1.1v-33.55zm-17.93 3.25c.12 1.44.34 2.9.64 4.4.3 1.5.68 3.04 1.13 4.56 2.32 7.92 6.46 16.05 10.45 22.02l-.9.6c-4.04-6.05-8.23-14.3-10.6-22.3-.45-1.6-.84-3.14-1.14-4.67-.3-1.6-.54-3.1-.66-4.6l1.08-.1zm-15.22 8.45c2.47 5.07 5.4 9.45 8.96 13.34 3.57 3.88 7.8 7.27 12.88 10.33l-.56.92c-5.17-3.1-9.47-6.56-13.1-10.52-3.66-3.97-6.63-8.44-9.15-13.6l1-.47z"/><path class="st1" d="M-105.83 399.94h-6.27v11.45h-6.9V384h15.54v6.4h-8.64v3.6h6.27v5.93zm-26.13 4.95c0 5.4-1.53 7.6-3.84 10.5-2.22 2.8-5.86 4.3-10.75 4.3-4.94 0-8.75-2.36-11.5-6.2-2.74-3.88-4.1-8.88-4.1-15.9 0-7.1 1.15-11.83 3.9-15.67 2.74-3.87 6.9-6.5 12-6.24 9.2.5 14 8.14 13.95 16.05l-9 1.02c0-3-1.06-7.38-4.38-7.3-2.14.03-3.53 1.8-4.05 3.36-.5 1.57-.83 4.46-.83 8.65 0 2.4-.1 7 1.18 10.2.75 1.9 2 3.43 4.1 3.4 1.88-.06 2.92-1.68 3.44-3.5.4-1.4.52-2.87.52-3.97l9.36 1.15zm68.67 0c0 5.4-1.5 7.6-3.8 10.5-2.2 2.8-5.8 4.3-10.7 4.3-4.93 0-8.77-2.36-11.5-6.2-2.73-3.88-4.1-8.88-4.1-15.9 0-7.1 1.13-11.83 3.9-15.67 2.75-3.87 6.9-6.5 12-6.24 9.2.5 14 8.14 13.96 16.05l-9 1.02c0-3-1.1-7.38-4.4-7.3-2.15.03-3.5 1.8-4.03 3.36s-.86 4.46-.86 8.65c0 2.4-.06 7 1.18 10.2.77 1.9 2.04 3.43 4.1 3.4 1.9-.06 2.97-1.68 3.5-3.5.37-1.4.5-2.87.5-3.97l9.37 1.15z"/><path class="st0" d="M-112.62 332.4c17.68 0 33.74 7.2 45.38 18.85 11.64 11.64 18.85 27.7 18.85 45.4 0 17.67-7.2 33.72-18.8 45.36-11.6 11.7-27.7 18.9-45.33 18.9-17.7 0-33.74-7.2-45.4-18.8-11.62-11.63-18.84-27.7-18.84-45.35 0-17.7 7.2-33.76 18.86-45.4s27.7-18.86 45.4-18.86zm0 1.43c-17.3 0-33 7.05-44.36 18.43-11.38 11.38-18.44 27.1-18.44 44.4 0 17.26 7.06 32.96 18.43 44.33 11.4 11.3 27.1 18.4 44.4 18.4s33-7.1 44.4-18.5c11.4-11.38 18.47-27.08 18.47-44.35 0-17.3-7.06-33-18.44-44.4-11.4-11.37-27.1-18.43-44.36-18.43z"/></svg>