<svg xmlns="http://www.w3.org/2000/svg" viewBox="-233 309.3 144.8 175.7"><path d="M-93.3 413.7l-5.2 6.6-12.6 6.9 7.2 1.9-10.5 16.7-11.7-13c8.4-7.8 14-18.3 15.3-30.1 1.5.1 2.9 0 3.2 0 .8 0 1.5-.6 1.5-1.4s-.7-1.4-1.5-1.4c-.3 0-1.6 0-3 .1v-1.1c1.5.1 2.8 0 3.1 0 .8 0 1.5-.6 1.5-1.4 0-.8-.7-1.4-1.5-1.4-.3 0-1.7 0-3.1.1v-1.3h3c.8 0 1.5-.6 1.5-1.4 0-.8-.7-1.4-1.5-1.4-.3 0-1.7 0-3.2.1-1.2-11.2-6.3-21.2-13.9-28.8l2.5-1.2 10.3-1.6 15.3-12.9-14.9-14.9-12.3 15.5-2 14.2c-7.8-7.4-18-12.4-29.4-13.6v-6.5h11.1v-8.6h-33.1v8.6h10.8v6.5c-11.2 1.2-21.2 6-28.9 13.2l-1.2-2.9-1.2-10.9-12.7-17-16.4 14.8 15.6 13.6 15 2.8c-7.9 7.8-13.2 18-14.4 29.5-1.4-.1-2.7 0-3.1 0-.8 0-1.5.6-1.5 1.4 0 .8.7 1.4 1.5 1.4h2.8v1.1h-3c-.8 0-1.5.6-1.5 1.4s.7 1.4 1.5 1.4c.3 0 1.6 0 3-.1v1.3h-2.8c-.8 0-1.5.6-1.5 1.4 0 .8.7 1.4 1.5 1.4.3 0 1.6 0 3.1-.1 1.3 11.9 7.1 22.5 15.5 30.3l-12.4 12.1-10.5-15.1 6.7-2.8-17.1-13.4.8 18.5 1.6 6.1 3.9-5.7 4.6 6.9 6.9 9.6-10.1 10.8-.4 2.8 2.5-.1 10.2-10.5 6.5 6.2 14.4 8.2 19.2 6.8 7.7 7.2 3.5-6.8 14.5-4.6 19.7-8.3 9.9-8.8 10.1 10.2 3 .8.2-2.7-11.2-11.4 12.2-16.8 3.3 6.5 2.4-9.9-.3-15zm-86.9 49.4l-24.9-15 12.6-12.9c7.3 5.8 16.2 9.7 26.1 10.8v3.5l1.6 1 .5 2.1-15.9 10.5zm51.4-6.5l-27.6 4.8-.7-10.4 2.6-2.3-.1-2.8c9.8-1.1 18.7-5 25.9-10.8l12.2 12.5-12.3 9zm-32.7-126.2c5.5 0 10.1-4.5 10.1-10.1 0-5.5-4.6-10-10.1-10-5.6 0-10.1 4.5-10.1 10 0 5.6 4.5 10.1 10.1 10.1z" fill="#FFF"/><path d="M-166.7 348.7c-2.1-.1-4.3.4-5.6 1.4-2.7-.2-5.9.8-7.3 2.4-2.7.2-5.7 1.7-6.9 3.4-2.6.6-5.4 2.4-6.3 4.3-2.5 1-5 3.2-5.5 5.2-2.3 1.3-4.4 3.9-4.7 5.9-2.1 1.6-3.8 4.5-3.7 6.5-1.8 1.9-3.1 5.1-2.6 7.2-1.3 1.9-2 4.5-1.7 6.4h-2.8c-1 0-1.9.8-1.9 1.8s.8 1.9 1.9 1.9h2.4v.3h-2.4c-1 0-1.9.9-1.9 1.9s.8 1.8 1.9 1.8h2.4v.3h-2.4c-1 0-1.9.9-1.9 1.9s.8 1.9 1.9 1.9h3.1c-.6 2 .1 5.1 1.7 7.2-.4 2.1.9 5.1 2.7 7 0 2.1 1.7 4.9 3.8 6.5.3 2.1 2.5 4.6 4.8 5.9.6 2 3.2 4.2 5.6 5.1 1 1.9 3.8 3.7 6.4 4.3 1.2 1.7 4.3 3.2 6.9 3.3 1.5 1.6 4.9 2.5 7.5 2.2 1.1.8 2.9 1.3 4.7 1.4v2.7c0 1 .9 1.8 1.9 1.8 1.1 0 1.9-.8 1.9-1.8v-2.6h.4v2.6c0 1 .8 1.8 1.9 1.8 1 0 1.9-.8 1.9-1.8v-2.6h.3v2.6c0 1 .9 1.8 1.9 1.8 1.1 0 1.9-.8 1.9-1.8V446c2.1 0 4.3-.5 5.5-1.5 2.7.2 5.9-.8 7.3-2.3 2.7-.2 5.7-1.6 6.9-3.4 2.6-.6 5.4-2.4 6.3-4.3 2.5-1 5-3.2 5.6-5.2 2.3-1.3 4.4-3.9 4.7-5.9 2-1.6 3.7-4.5 3.7-6.5 1.8-1.9 3.1-5.1 2.6-7.2 1.3-1.8 2-4.5 1.7-6.4h2.9c1 0 1.8-.9 1.8-1.9s-.8-1.9-1.8-1.9h-2.6v-.3h2.6c1 0 1.8-.8 1.8-1.8s-.8-1.9-1.8-1.9h-2.6v-.3h2.6c1 0 1.8-.8 1.8-1.9 0-1-.8-1.8-1.8-1.8h-3.2c.6-2-.1-5.1-1.6-7.2.3-2-.9-5.1-2.8-7 0-2.1-1.7-4.9-3.8-6.5-.3-2.1-2.5-4.6-4.8-5.9-.6-2-3.2-4.2-5.6-5.1-.9-1.9-3.8-3.7-6.3-4.3-1.2-1.7-4.3-3.2-7-3.3-1.5-1.6-4.9-2.6-7.5-2.3-1.1-.8-2.9-1.3-4.7-1.3v-2.8c0-1-.9-1.8-1.9-1.8s-1.9.8-1.9 1.8v2.7h-.3v-2.7c0-1-.9-1.8-1.9-1.8-1.1 0-1.9.8-1.9 1.8v2.7h-.4v-2.7c0-1-.8-1.8-1.9-1.8-1 0-1.9.8-1.9 1.8v2.9zm5.5 25.4c.1 1.2.2 2.3.4 3.5 3.9-1.1 7.2-1.9 9.9 1.3-.1.6-.1 1.2-.2 1.9-2.6-1.6-5.3-1.8-9.2-.5.1.8.3 1.6.5 2.4 2.9-.8 5.2-1.2 8.4.1l-.2 2.2c0 .2-.1.3-.1.5-2.6-.9-4.9-.9-7.5 0 .2 1 .5 2 .8 3v.1-.1c2.4-.3 4.6-.2 6.4.5v2.4c-4.6-2.4-16.3 1.7-22.6 6.1l-.7-1.8-.1-.3c-.2.1-.4.2-.6.4 2.7 6.9 4.5 13.7 5.6 20.8l-12.2-35.5 1.4-.6-3.9-4.5c6-6.5 14.8-10.5 24.5-10.5 8.9 0 17.1 3.4 23 9.1-4.4 1.1-8.3 2.4-12.2 5 .2-5.5-4.6-6.7-10-5.7-.4 0-.9.1-1.4.2zm-46.9 12.2c-.1-.3-.3-.6-.4-.9-.5-1.2-.2-2.6.2-3.7l.2-.5c.4-.9.9-1.8 1.6-2.5.2.8.4 1.5.5 2.4.1 1-.2 2.1-.5 3.1-.4.9-.8 1.9-1.3 2.8-.1-.3-.2-.5-.3-.7zm37.7 30.3c2.9-2.1 6.5-4.2 10.6-6.1-.9 3.6-1 6.4.7 8.7 2.2 2.9 6.8 1.7 10.5-.5 7.2-4.2 12-8.1 19.2-11.5-4.4 12.6-16.8 21.8-31.3 21.8-1.9 0-3.8-.2-5.7-.5l-4-11.9zm41.5-10.7c-6.2-9.7-7.9-18.4-8.1-30.7 5.7 5.7 9.3 13.5 9.3 22.1 0 2.9-.4 5.8-1.2 8.6zm-40 22.2c-14.2-3.6-24.6-16.1-24.6-30.8 0-7.5 2.7-14.4 7.3-19.9l.3 5.2 1.3-.6 15.7 46.1zm10.1-74.5c.1-.1.1-.3.1-.4v-.4h.3v.4c0 .2 0 .3.1.4h-.5zm4.1.4c.1-.2.2-.5.2-.7v-1.2c1.8.9 4.6 1.1 6.5 1.1l-.1-.2v.1c1.5 1.4 4.8 2.2 7 2.5 1.3 1.6 4.4 2.9 6.4 3.4 1 1.7 3.9 3.5 5.8 4.3.7 1.8 3.3 4 5.1 5.1.5 1.9 2.6 4.4 4.2 5.8.2 2 1.9 4.7 3.3 6.3-.2 2 1.1 4.9 2.3 6.7-.3 1.2-.1 2.8.3 4.3h-1.2c-.3 0-.5.1-.8.2-2.7-19.6-18.8-35.2-39-37.7zm39.3 41.1c.1.1.3.1.4.1h.6v.3h-.6c-.1 0-.3.1-.4.1v-.5zm0 4h1v.3h-.6c-.1 0-.3.1-.4.1v-.4zm-.3 3.9c.2.1.5.2.8.2h1.1c-.3 1.3-.3 2.6-.1 3.6l.1.1c-1.1 1.8-2.4 4.8-2.2 6.7-1.3 1.6-3.1 4.4-3.2 6.3-1.6 1.4-3.8 3.9-4.2 5.8-1.8 1.2-4.3 3.3-5 5.2-2 .9-4.8 2.7-5.8 4.4-2.1.6-5.1 1.9-6.4 3.5-2.1.3-5.3 1.2-6.8 2.6-2.2-.1-5.5.4-7.2 1.5v-1.5c0-.3-.1-.5-.2-.7 20.3-2.6 36.4-18.2 39.1-37.7zm-42.6 38c-.1.1-.1.3-.1.4v.5h-.3v-.5c0-.1 0-.3-.1-.4h.5zm-4.2 0v.9h-.4v-.9h.4zm-4-.3c-.1.2-.2.5-.2.7v1.2c-1.8-.8-4.6-1.1-6.5-1l.1.1c-1.5-1.4-4.8-2.3-7-2.6-1.3-1.5-4.4-2.8-6.4-3.4-1-1.7-3.9-3.5-5.8-4.3-.7-1.9-3.3-4-5.1-5.1-.4-1.9-2.6-4.4-4.2-5.8-.1-2-1.9-4.7-3.3-6.3.2-2-1.2-5-2.3-6.7.3-1.2.1-2.8-.3-4.3h1.2c.2 0 .5-.1.7-.2 2.8 19.6 18.9 35.1 39.1 37.7zm-39.4-41.2c-.1 0-.2-.1-.4-.1h-.9v-.3h1.2c.1.1.1.3.1.4zm0-4c-.1-.1-.2-.1-.3-.1h-.9v-.3h1.3c-.1.1-.1.3-.1.4zm.4-3.9c-.2-.1-.5-.1-.7-.1h-1.2c.3-1.3.3-2.7.1-3.7l-.1-.1c1.1-1.8 2.4-4.7 2.2-6.7 1.3-1.6 3.1-4.4 3.2-6.3 1.6-1.4 3.8-3.9 4.2-5.8 1.8-1.1 4.3-3.3 5-5.2 2-.9 4.8-2.6 5.8-4.4 2.1-.6 5.1-1.9 6.4-3.5 2.1-.3 5.4-1.1 6.8-2.5 2.2 0 5.5-.4 7.2-1.6v1.5c0 .3.1.5.2.7-20.3 2.6-36.4 18.1-39.1 37.7zm42.6-38v-.8h.4v.8h-.4zm-3.8-2.8c-.1.1-.2.2-.4.3-.9.6-2 .9-3 1.1-1 .2-2.1.3-3.2.4.1-.2.2-.4.4-.6.2-.3.4-.5.6-.8.8-1 2.2-1.4 3.5-1.7l.6-.1c.5 0 1.1-.1 1.6-.1l-.1 1.5zm12.2-1.5c.2 0 .5 0 .8.1l.6.1c1.2.2 2.7.6 3.5 1.6.2.2.4.5.6.8.1.1.3.3.4.5-1.1 0-2.1-.1-3.2-.3-.9-.2-1.9-.4-2.7-.9v-1.9zm41.4 53.8h2.1c.2.8.1 1.7-.1 2.5l-.1.6c-.3.9-.6 1.8-1.1 2.7-.4-.7-.7-1.5-.9-2.2-.3-1.1-.2-2.1 0-3.2 0 0 .1-.2.1-.4zm-41.4 42.1v-1.5l.3-.2c.9-.6 2-.9 3-1.1 1-.2 2.1-.3 3.2-.3-.1.2-.3.4-.4.5-.2.3-.4.6-.6.8-.8 1.1-2.2 1.5-3.5 1.7l-.6.1h-1.4zm-12.2.1c-.3 0-.6-.1-.8-.1l-.6-.1c-1.2-.2-2.7-.6-3.5-1.7-.2-.3-.4-.6-.6-.8-.1-.2-.3-.3-.4-.5 1.1 0 2.1.1 3.2.3 1 .1 1.9.4 2.7.9v2zm-41.5-42.2c.1.3.1.7.2 1.1.2 1 .3 2.1.1 3.1-.2.8-.5 1.5-.9 2.2-.5-.8-.9-1.7-1.2-2.7l-.1-.6c-.2-1-.3-2.2.1-3.2l1.8.1zm0-11.7h-2.1c-.2-.9-.1-1.7.1-2.6l.1-.6c.3-.9.6-1.9 1.1-2.7.4.7.7 1.5.9 2.2.3 1 .2 2.1 0 3.1 0 .4 0 .5-.1.6zm95.2 0l-.3-1.1c-.2-1-.3-2.1-.1-3.1.2-.8.5-1.6.9-2.3.5.8.9 1.8 1.2 2.7l.1.5c.2 1.1.3 2.2-.1 3.2h-1.7v.1zm-92.7-11.9c-.1-.4-.2-.7-.2-1-.4-1.2.2-2.6.8-3.7l.2-.5c.6-.8 1.2-1.6 1.9-2.2.1.7.2 1.6.1 2.4-.1 1-.5 2-.9 2.9-.5.9-1.1 1.8-1.7 2.7-.1-.2-.1-.4-.2-.6zm3.5-6.4c-.1-.3-.1-.6-.1-1-.2-1.3.6-2.5 1.4-3.5l.3-.5c.7-.7 1.4-1.4 2.3-1.9 0 .8-.1 1.6-.2 2.4-.2 1-.8 1.9-1.4 2.8-.6.9-1.3 1.6-2.1 2.4-.1-.2-.2-.5-.2-.7zm4.4-5.8c0-.4.1-.7.1-1 .1-1.3 1-2.4 1.9-3.3l.4-.4c.7-.6 1.6-1.2 2.5-1.6-.1.8-.3 1.6-.6 2.3-.4 1-1.1 1.8-1.9 2.6-.8.7-1.6 1.4-2.5 2 .1-.2.1-.4.1-.6zm5.3-5.1c.1-.3.1-.7.2-1 .3-1.2 1.4-2.2 2.4-2.9l.5-.4c.8-.5 1.8-1 2.8-1.2-.2.8-.6 1.5-1 2.2-.5.9-1.4 1.7-2.2 2.3-.9.6-1.8 1.2-2.7 1.7-.2-.3-.1-.5 0-.7zm5.9-4.3c.2-.3.3-.7.4-1 .5-1.2 1.7-2 2.8-2.6l.6-.2c.9-.4 1.9-.7 2.9-.8-.4.7-.8 1.4-1.3 2-.7.9-1.6 1.4-2.6 1.9-.9.5-1.9.9-3 1.2.1-.1.2-.3.2-.5zm6.6-3.4c.2-.3.3-.6.5-.9.6-1.2 2-1.8 3.2-2.2l.6-.2c.9-.2 2-.4 3-.4-.4.7-1 1.3-1.6 1.9-.8.7-1.8 1.2-2.8 1.5-1 .4-2.1.6-3.1.8 0-.2.1-.3.2-.5zm-27.8 54.3l.3-.6c.5.9.9 1.9 1.3 2.9.3 1 .6 2 .5 3.1-.1.8-.2 1.6-.5 2.3-.6-.7-1.1-1.6-1.5-2.5l-.2-.5c-.4-1.2-.7-2.6-.2-3.7.1-.3.2-.6.3-1zm2.5 6.8c.1-.2.1-.4.2-.6.6.8 1.2 1.7 1.8 2.6.4.9.9 1.9 1 3 0 .8 0 1.6-.1 2.4-.7-.6-1.4-1.4-1.9-2.2l-.3-.5c-.6-1.1-1.2-2.4-.8-3.7-.1-.3 0-.6.1-1zm3.5 6.4c0-.2.1-.4.1-.6.8.7 1.5 1.5 2.2 2.4.6.8 1.2 1.7 1.5 2.7.1.8.2 1.6.2 2.4-.9-.5-1.6-1.2-2.3-1.9l-.4-.5c-.7-.9-1.5-2.2-1.4-3.4l.1-1.1zm4.5 5.8v-.7c.9.6 1.7 1.3 2.5 2 .8.8 1.5 1.6 1.9 2.6.3.7.5 1.5.6 2.3-.9-.4-1.8-.9-2.5-1.6l-.5-.4c-.9-.9-1.9-2-1.9-3.3-.1-.3-.1-.6-.1-.9zm5.3 5.1c-.1-.2-.1-.4-.1-.7.9.5 1.9 1.1 2.7 1.7.8.6 1.7 1.3 2.3 2.2.4.7.7 1.5 1 2.2-1-.3-1.9-.7-2.8-1.2l-.5-.4c-1-.7-2.1-1.7-2.4-2.9-.1-.3-.1-.6-.2-.9zm6 4.2c-.1-.2-.1-.4-.2-.6 1 .3 2 .7 2.9 1.2 1 .5 1.9 1.1 2.6 1.9.4.6.9 1.3 1.2 2-1-.1-1.9-.4-2.9-.8l-.5-.2c-1.2-.6-2.4-1.4-2.9-2.6.1-.3 0-.6-.2-.9zm6.7 3.4l-.3-.6c1.1.2 2.1.4 3.2.8 1 .4 2.1.8 2.9 1.5.6.6 1.1 1.2 1.6 1.9-1 0-2-.1-3-.4l-.5-.2c-1.2-.4-2.6-1-3.2-2.1-.4-.4-.6-.7-.7-.9zm65.8-54.7c-.1.2-.2.4-.2.6-.6-.9-1-1.8-1.4-2.8-.3-1-.7-2.1-.5-3.1.1-.8.2-1.6.5-2.4.6.7 1.1 1.6 1.6 2.5l.2.5c.4 1.2.8 2.6.3 3.7-.2.3-.3.7-.5 1zm-2.4-6.9c0 .2-.1.4-.2.6-.6-.8-1.2-1.7-1.7-2.6s-1-1.9-1.1-3c0-.8 0-1.6.2-2.4.7.6 1.4 1.4 1.9 2.2l.3.5c.6 1.1 1.2 2.4.8 3.6-.1.5-.2.8-.2 1.1zm-3.6-6.3c0 .2-.1.4-.1.6-.8-.7-1.5-1.5-2.1-2.3-.6-.9-1.2-1.8-1.5-2.8-.1-.8-.2-1.6-.2-2.4.9.5 1.6 1.2 2.3 1.9l.4.5c.7 1 1.5 2.2 1.4 3.5l-.2 1zm-4.4-5.8v.6c-.9-.6-1.7-1.2-2.5-2-.7-.7-1.5-1.6-1.9-2.5-.3-.8-.5-1.6-.6-2.4.9.4 1.8 1 2.5 1.6l.5.4c.9.9 1.8 2 1.9 3.3 0 .3.1.7.1 1zm-5.4-5.1c.1.2.1.4.1.6-.9-.4-1.9-1-2.7-1.6-.9-.6-1.7-1.3-2.3-2.2-.4-.7-.7-1.4-.9-2.2 1 .2 1.9.7 2.7 1.2l.5.3c1 .7 2.1 1.7 2.4 2.9.1.4.2.7.2 1zm-6-4.2l.2.6c-1.1-.3-2.1-.7-3-1.2-1-.5-1.9-1.1-2.6-1.9-.5-.7-1-1.4-1.3-2.1 1 .1 2 .4 2.9.8l.6.2c1.1.6 2.4 1.4 2.8 2.6.2.3.3.7.4 1zm-6.6-3.3c.1.1.2.3.3.5-1.1-.2-2.1-.4-3.1-.8-1-.3-2.1-.8-2.9-1.5-.6-.5-1.1-1.2-1.6-1.8 1-.1 2.1.1 3 .4l.6.2c1.2.4 2.6 1 3.2 2.1.1.2.3.5.5.9zm28.7 54.1c.2.3.3.7.4 1 .5 1.1.2 2.6-.2 3.7l-.2.6c-.4.9-.9 1.7-1.5 2.4-.3-.7-.5-1.5-.6-2.3-.1-1.1.2-2.1.5-3.1.4-1 .8-1.9 1.3-2.9l.3.6zm-2.4 6.8c.1.3.2.6.2 1 .4 1.2-.2 2.6-.7 3.6l-.3.5c-.5.8-1.1 1.6-1.9 2.2-.1-.8-.2-1.6-.1-2.4.1-1.1.5-2.1 1-3 .5-.9 1-1.8 1.7-2.6 0 .3.1.5.1.7zm-3.4 6.4c.1.4.1.7.1 1 .2 1.3-.6 2.5-1.4 3.5l-.3.5c-.7.7-1.4 1.4-2.2 1.9 0-.7.1-1.6.2-2.4.2-1 .8-1.9 1.4-2.7.6-.9 1.3-1.7 2.1-2.4 0 .2 0 .4.1.6zm-4.4 5.8c0 .3-.1.7-.1 1-.1 1.3-1 2.4-1.9 3.3l-.4.4c-.8.6-1.6 1.2-2.5 1.6.1-.8.3-1.6.6-2.3.4-1 1.1-1.8 1.9-2.6.7-.7 1.6-1.4 2.5-2-.1.2-.1.4-.1.6zm-5.3 5.1c-.1.3-.1.7-.2 1-.3 1.3-1.4 2.2-2.4 3l-.5.3c-.8.5-1.8 1-2.7 1.2.2-.8.5-1.6.9-2.2.5-.9 1.4-1.6 2.2-2.3.9-.6 1.8-1.2 2.7-1.6.1.2.1.4 0 .6zm-6 4.4c-.1.3-.3.6-.4.9-.4 1.2-1.7 2-2.8 2.6l-.6.2c-.9.4-1.9.7-2.9.8.4-.7.8-1.4 1.3-2.1.7-.8 1.6-1.4 2.6-1.9.9-.5 1.9-.9 3-1.2 0 .2-.1.4-.2.7zm-6.6 3.3c-.1.3-.3.6-.5.9-.6 1.1-2 1.8-3.2 2.2l-.6.1c-1 .2-2 .4-3 .4.5-.6 1-1.3 1.6-1.8.8-.7 1.8-1.2 2.8-1.6 1.1-.3 2.1-.6 3.2-.8l-.3.6zm-17.4-90.7h.3v2.5h-.3v-2.5zm-3.8 0v2.5h-.4v-2.5h.4zm3.8 93.3h.3v2.5h-.3v-2.5zm-3.8 0v2.5h-.4v-2.5h.4zm51.6-43.6v.3h-2.5v-.3h2.5zm0-3.7h-2.5v-.3h2.5v.3zm-97.1 3.7v.3h-2.5v-.3h2.5zm0-3.7h-2.5v-.3h2.5v.3zm25.8-15.1l-3.3 1.4-.3-5.6 3.6 4.2zm12.4 43.9l2 1 1.1 3.2-2-1-1.1-3.2zm-2.8-8l2 .9 1.1 3.2-2-1-1.1-3.1zm-2.8-8.1l2.1 1 1.1 3.1-2-.9-1.2-3.2zm-2.8-8.2l2 1 1.1 3.2-2-.9-1.1-3.3zm-2.8-8.1l2 1 1.1 3.2-2-1-1.1-3.2zm-2.7-8.1l2 1 1.1 3.2-1.9-1-1.2-3.2zm33.3-1.3c4.4-3.4 6.6-4.5 12.3-5.9 0 1 .1 1.9.1 2.8-5.5 1.3-7.8 2.4-12.6 5.8-.1.1 0-1.3.2-2.7zm-.6 6.1c4.4-3.4 7.6-4.6 13.1-6l.3 2.7c-5.4 1.2-8.7 2.6-13.4 6v-2.7zm-.1 5.5c4.6-3.2 8.3-4.8 14-6.3l.1.4c.1.9.3 1.7.5 2.6-5.6 1.3-9.4 2.9-14.2 6.4-.3-1.1-.5-2-.4-3.1zm.7 6.4c4.3-3.3 8.8-5.3 14.6-6.8l.9 2.9c-5.5 1.2-10.2 3.3-15 6.8l-.5-2.9zm2.1 8.3c-.3-.9-.6-1.7-.9-2.6 4.4-3.3 9.3-5.7 15.3-7.2v.1c.3.8.7 1.5 1 2.2-5.2 1.6-10.4 4.2-15.4 7.5zm-10.6 2.7c2.9-1.3 6-2.7 8.5-2.6l.2.7c-2.8 1.7-5.9 3.5-9 5.1-.1-.9.1-2.1.3-3.2zm.4 5.9c9.9-3.4 17.2-9.6 26.8-13.7.5.8.9 1.6 1.4 2.4-6.7 3.2-11.2 5.7-19.1 10.6-3.9 2.5-8.2 2.7-9.1.7zm-11.6-6.1c5.3-3.7 13.6-8.8 19.4-6.9.2.8.5 1.7.7 2.5-4.7-2.1-13.3 2.1-19.7 6.9l-.4-2.5zm-1.5-5.4c5.3-4 14.3-8.2 20.1-5.7.1.7.2 1.5.4 2.2-4.3-2.2-13.8 1.4-19.8 5.8l-.7-2.3zm-1.6-5c5.3-4.3 14.8-8.5 21.3-5.9 0 .8.1 1.7.1 2.6-4.6-2.4-14.5.9-20.8 5.5l-.6-2.2zm14.8 38l-.2-3.9s-.3.4-.7.6c-.3.1-.6-.1-.4-.6.2-.6.7-.6 1-2 .1-.4.1-.8.2-1.3.1-.7 1-.7 1.1 0l.3 7-1.3.2zm-37.2-36.1l-1.3.1-.1-1.2 1.3-.2.1 1.3zm5.9 14.2l-1.1.7-.7-1.1 1.1-.6.7 1zm3.8 8l-.8-.8c.4-.4.6-.7.6-1.1.1-.9-1.3-2.4-2.2-2.6-.5-.2-1 0-1.2.3-.5.5-.1 1.1.2 1.6.9 1.3 1.7 2.4 1.6 3.2-.1 1-1.2 1.9-2.4 1.7-1.5-.2-3.1-2.1-3.2-3.4-.1-.6.2-1.1.8-1.7l.7.8c-.3.3-.4.7-.4 1 0 .7 1.2 2 2 2.3.8.2 1.4-.3 1.3-.9-.1-1-2.1-2.9-2.1-4.2 0-1 1.1-2.1 2.5-1.8 1.5.2 3.5 2.2 3.5 3.7 0 .6-.3 1.3-.9 1.9zm-5.8-49.9l-1.2 1.4 2.6 2-.7.8-6-4.7 2.5-2.9c.9-1.1 2.1-1.9 3.4-1 1.4 1 1 2.5.1 3.5l4 .2-.9 1-3.8-.3zm-2.4-2.4l-1.5 1.7 1.9 1.6 1.4-1.7c.7-.9 1.5-1.8.4-2.6-.8-.7-1.6.1-2.2 1zm-4.2 32.4s2.1-.5 3.5 1.4c1 1.3 1.4 3.4.4 4.7-1.1 1.6-3.9 2.5-5.7 1.3-1.2-.8-2.1-2.7-1.9-4.3.2-1.9 1.9-2.5 1.9-2.4l.3 1.1c-1.2.6-1.4 1.9-1 3.1.5 1.4 1.8 2.5 3.8 1.9 2-.6 2.5-2.2 2-3.7-.7-2.3-2.9-1.9-2.9-1.9l-.4-1.2zm5.3-21c-1 2.7-3.4 3.3-5.5 2.4-1.8-.7-3-2.5-2.3-4.7.7-2.4 2.9-3.9 5.6-2.8 1.8.8 3.1 2.6 2.2 5.1zm-5.1 1.4c1.5.6 3.3.4 4.1-1.8.7-1.8-.3-3.2-1.8-3.7-2-.7-3.4.3-3.9 1.7-.6 1.5-.3 3 1.6 3.8zm12.7-12.4l-5.3-5.4.8-.7 5.2 5.5-.7.6zm2-2.2l-4.1-6.3 1.2-.8 7.6 2.9-3.5-5.3.9-.6 4.1 6.3-1.2.7-7.6-2.9 3.5 5.4-.9.6zm8.3-11.7l2.4 6-1 .4-2.4-6-2.7 1-.4-.9 6.5-2.4.4.9-2.8 1zm5.9 4.7l-1-7.4 1.1-.2.4 3 4.7-.6-.4-3 1.1-.1.9 7.4-1.1.1-.4-3.4-4.7.7.4 3.4-1 .1zm8.6-.7l.2-7.4h1.1l-.1 7.5-1.2-.1zm2-.2l4.9-6.7 1.2.2 2 7.9-1.1-.2-.6-2.2-3.8-.8-1.4 1.9-1.2-.1zm3.2-2.6l3 .5-.9-3.4-2.1 2.9zm5.8 4.4l3.1-6.8 1.3.6 1.8 7.7 2.7-5.8 1 .4-3.1 6.8-1.3-.6-1.9-7.7-2.7 5.8-.9-.4zm16.7 11.3l6.2-4.4 2 2.7c.9 1.2 1.4 2.5-.1 3.6s-2.7.2-3.6-1l-1.3-1.8-2.6 1.8-.6-.9zm3.9-1.5l1.1 1.5c.7.9 1.4 1.9 2.6.9.8-.7.3-1.6-.3-2.4l-1.2-1.6-2.2 1.6zm-.4 5.9l8.5.5.4 1-5.8 5.8-.4-1 1.7-1.7-1.5-3.5-2.4-.2-.5-.9zm3.9 1.2l1.1 2.7 2.5-2.5-3.6-.2zm8.1 12l-4.6.9c-2.5.5-3.5-1-3.8-2.6-.3-1.7-.1-3.4 2.6-3.9l4.5-.8.2 1.1-4.1.8c-1.7.3-2.5.9-2.1 2.7.2 1.1.9 2.1 3 1.7l4.2-.8.1.9zm-7.7 3.1l7.7.5-.1 1-6.7-.4-.3 4.5-1.1-.1.5-5.5zm-.7 6.6l7.6 1.3-.2 1-7.6-1.3.2-1zm.7 15.9l-5.7-3.4.6-.9 5.6 3.4 1.6-2.4.9.5-3.7 5.7-.9-.5 1.6-2.4zm-6.8-1.5l3.2 7.7-.8.8-8-2.6.7-.8 2.3.8 2.6-2.8-.9-2.2.9-.9zm.5 4l-2.1 2.2 3.4 1.1-1.3-3.3zm-37.8 14.3l1.4.2c0 .7.7 1.6 2.2 1.7 3 .3 3.1-2.9 3.1-2.9-1 .9-2.4 1-3.5.7-.9-.2-1.9-.5-2.6-1.5-.8-1.1-.5-2.6.9-3.2 1.8-.9 4.7-.2 5.9.9 1.3 1.3 1.1 4.8-.6 6.2-1.2 1-3.6.9-5.2.1-1.2-.5-1.6-1.5-1.6-2.2zm6.2-3.6c-.8-.9-2.7-1.3-3.9-.7-.9.5-1.2 1.5-.3 2.4.6.6 2.1 1.1 3.3.8 1.3-.4 1.7-1.6.9-2.5zm-9.7 4.7l1.1-3.8s-.5.3-.9.3c-.3 0-.5-.3-.2-.7.4-.5.8-.3 1.6-1.6.2-.3.4-.7.6-1.1.3-.6 1.2-.3 1 .4l-2 6.8-1.2-.3zm20.1-7.5c2.7-.6 5 1.2 5.4 3.4.4 2.4-1.2 4.2-3.1 4.7-2.6.7-4.9-.9-5.4-3.2-.6-2.1.8-4.3 3.1-4.9zm.4.9c-1.7.3-2.8 2-2.4 3.7.4 1.8 2 2.9 3.7 2.7 1.7-.3 2.8-2 2.5-3.7-.4-1.8-2.1-3-3.8-2.7zm-31.3 1.4l2.3-2-1.2-2.7 2.6 1.4 2.2-1.9-.7 2.8 2.6 1.5-3 .4-.6 2.9-1.2-2.7-3 .3zm46.9-.6l-3-.3-1.2 2.7-.7-2.9-3-.4 2.6-1.5-.6-2.8 2.2 1.9 2.6-1.5-1.2 2.7 2.3 2.1zm-61.5-43s2.1.5 2.6 2.8c.3 1.7-.3 3.6-1.7 4.4-1.7.9-4.6.5-5.7-1.4-.8-1.3-.7-3.3.2-4.7 1.1-1.6 2.8-1.3 2.8-1.3l-.2 1.1c-1.4 0-2.1 1.1-2.3 2.3-.2 1.5.4 3 2.5 3.4 2 .4 3.2-.8 3.5-2.4.4-2.4-1.8-3-1.7-3v-1.2zm58.1-22.1l.9.7c-.3.4-.4.8-.4 1.2.1.9 1.6 2.2 2.5 2.3.5.1 1-.2 1.2-.5.4-.6 0-1.1-.4-1.6-1.1-1.1-2-2.1-2.1-3-.1-1 .9-2.1 2.1-2 1.5 0 3.4 1.6 3.7 2.9.1.6-.1 1.2-.6 1.7l-.8-.7c.2-.3.3-.7.3-1.1-.1-.7-1.5-1.8-2.3-1.9-.8-.1-1.3.5-1.2 1 .2.9 2.5 2.6 2.7 3.9.2 1-.8 2.2-2.2 2.2-1.5 0-3.7-1.7-4-3.2-.1-.6.1-1.2.6-1.9zm16.2 40.2l-.3 1.1c-.5-.1-.9-.1-1.3 0-.9.4-1.5 2.2-1.3 3.1.1.5.5.8.8.9.7.2 1-.4 1.3-1 .7-1.4 1.3-2.6 2.1-3 .9-.4 2.2.2 2.6 1.3.5 1.4-.4 3.8-1.5 4.5-.5.3-1.1.3-1.9.1l.4-1c.4.1.8.1 1.1-.1.6-.3 1.2-2.1 1.1-2.9-.2-.8-.9-1.1-1.4-.8-.8.5-1.6 3.2-2.7 3.9-.9.5-2.3 0-2.8-1.3-.5-1.4.3-4.1 1.7-4.8.6-.2 1.3-.2 2.1 0zm-31.7-57.4c0 .1.1.2.2.2v2.8l-.2.2c0 .1.1.2.2.3v.5c0 1.5-2.4 1.5-2.4 0v-3.7l1 1.1c.2.2.4.4.7.2.2-.1.2-.4.1-.6l-1.7-2.4v-1.7c0-1.6 2.4-1.6 2.4 0v2.8c-.2.1-.3.2-.3.3zm-4.1 0c0 .1.1.2.2.2v2.8l-.2.2c0 .1.1.2.2.3v.5c0 1.5-2.4 1.5-2.4 0v-3.7l1 1.1c.2.2.4.4.6.2.2-.1.2-.4.1-.6l-1.7-2.4v-1.7c0-1.6 2.4-1.6 2.4 0v2.8c-.1.1-.2.2-.2.3zm-4.1 0c0 .1.1.2.2.2v2.8l-.2.2c0 .1.1.2.2.3v.5c0 1.5-2.4 1.5-2.4 0v-3.7l1 1.1c.2.2.4.4.7.2.2-.1.2-.4.1-.6l-1.7-2.4v-1.7c0-1.6 2.4-1.6 2.4 0v2.8c-.3.1-.3.2-.3.3zm-45.8 45.2c-.1 0-.2.1-.3.2h-2.9c-.1-.1-.2-.2-.3-.2s-.2.1-.3.2h-.6c-1.6 0-1.6-2.3 0-2.3h3.9l-1.1 1c-.2.2-.4.4-.2.6s.4.2.7.1l2.5-1.7h1.8c1.6 0 1.6 2.3-.1 2.3h-2.9c0-.1-.1-.2-.2-.2zm0 4c-.1 0-.2.1-.3.2h-2.9c-.1-.1-.2-.2-.3-.2s-.2.1-.3.2h-.6c-1.6 0-1.6-2.3 0-2.3h3.9l-1.1 1c-.2.2-.4.4-.2.6s.4.2.7.1l2.5-1.7h1.8c1.6 0 1.6 2.3-.1 2.3h-2.9c0-.1-.1-.2-.2-.2zm0 4.1c-.1 0-.2.1-.3.2h-2.9c-.1-.1-.2-.2-.3-.2s-.2.1-.3.2h-.6c-1.6 0-1.6-2.3 0-2.3h3.9l-1.1 1c-.2.2-.4.4-.2.6.2.2.4.2.7.1l2.5-1.7h1.8c1.6 0 1.6 2.3-.1 2.3h-2.9c0-.1-.1-.2-.2-.2zm98.9-8.1c-.1 0-.2.1-.3.2h-2.9c-.1-.1-.2-.2-.3-.2-.1 0-.2.1-.3.2h-.5c-1.6 0-1.6-2.3 0-2.3h3.9l-1.1 1c-.2.2-.4.4-.2.6.2.2.4.2.7.1l2.5-1.7h1.7c1.6 0 1.6 2.3 0 2.3h-2.9c-.1-.1-.2-.2-.3-.2zm0 4c-.1 0-.2.1-.3.2h-2.9c-.1-.1-.2-.2-.3-.2-.1 0-.2.1-.3.2h-.5c-1.6 0-1.6-2.3 0-2.3h3.9l-1.1 1c-.2.2-.4.4-.2.6.2.2.4.2.7.1l2.5-1.7h1.7c1.6 0 1.6 2.3 0 2.3h-2.9c-.1-.1-.2-.2-.3-.2zm0 4.1c-.1 0-.2.1-.3.2h-2.9c-.1-.1-.2-.2-.3-.2-.1 0-.2.1-.3.2h-.5c-1.6 0-1.6-2.3 0-2.3h3.9l-1.1 1c-.2.2-.4.4-.2.6.2.2.4.2.7.1l2.5-1.7h1.7c1.6 0 1.6 2.3 0 2.3h-2.9c-.1-.1-.2-.2-.3-.2zm-44.9 42.2c0 .1.1.2.2.3v2.8c-.1.1-.2.2-.2.3s.1.2.2.2v.5c0 1.5-2.4 1.5-2.4 0v-3.7l1 1.1c.2.2.4.3.7.2.2-.2.2-.4.1-.7l-1.7-2.4v-1.7c0-1.6 2.4-1.6 2.4 0v2.8c-.2.1-.3.3-.3.3zm-4.1 0c0 .1.1.2.2.3v2.8c-.1.1-.2.2-.2.3s.1.2.2.2v.5c0 1.5-2.4 1.5-2.4 0v-3.7l1 1.1c.2.2.4.3.6.2.2-.2.2-.4.1-.7l-1.7-2.4v-1.7c0-1.6 2.4-1.6 2.4 0v2.8c-.1.1-.2.3-.2.3h-4.2c0 .1.1.2.2.3v2.8c-.1.1-.2.2-.2.3s.1.2.2.2v.5c0 1.5-2.4 1.5-2.4 0v-3.7l1 1.1c.2.2.4.3.7.2.2-.2.2-.4.1-.7l-1.7-2.4v-1.7c0-1.6 2.4-1.6 2.4 0v2.8c-.1.1-.2.2-.2.3h4.1z"/><path fill="#ED1C24" d="M-193.3 434.4l-11.1 11.8-1.2-1.2 10.9-11.5-1.2-.9-10.8 11.3c-4.1-4.4-6.7-9.3-8.7-14.2 1.8-1.1 4.6-1.8 7-2.2-8.6-4.3-16.5-10.9-20.2-17.4-2.7 9.8-1.9 20.3 2.5 30.8 1-2.2 1.7-5 3.9-6.4 3.1 5.7 6.4 10.7 10 15.1l-10 10.4c-2.9 3.1 1.1 6 4 2.9l9-9.7c6.1 6.7 13 11.5 21 14.6 6.9 2.7 12.2 3.5 16.4 5.7 4.5 2.4 8.9 6.3 10.8 11.5 1.9-5.2 6.3-9.1 10.8-11.5 4.2-2.3 9.5-3 16.4-5.7 8-3.1 14.9-8 21.1-14.6l9 9.7c2.9 3.1 7 .3 4.1-2.9l-10-10.4c3.5-4.4 6.8-9.4 10-15.1 2.2 1.4 2.9 4.3 3.9 6.4 4.3-10.6 5.2-21 2.5-30.8-3.7 6.5-11.5 13.1-20.2 17.4 2.4.4 5.3 1.1 7 2.2-2 4.8-4.6 9.7-8.7 14.2l-10.8-11.3c-.4.3-.8.6-1.3.9l11 11.5-1.1 1.1-10.8-11.8c-.1 0-.2.1-.3.1-.1.3-.3.5-.5.8l11 11.8c-5.5 4.7-13.2 8.5-24.5 10.5-6 1.1-11.9-2.9-14-7.1h-.1c-1 0-1.9-.8-1.9-1.8v-1.2h-.3v1.2c0 1-.9 1.8-1.9 1.8-1.1 0-1.9-.8-1.9-1.8v-1.2h-.4v1.2c0 1-.8 1.8-1.9 1.8h-.1c-2.1 4.2-8 8.2-14 7.1-11.2-2-18.9-5.9-24.4-10.5l11.1-12c-.1-.1-.1-.2-.1-.2-.3-.1-.6-.3-1-.4zm-17.5 16.4c.4.5.7.9 1.1 1.3l-8.8 9.3c-.9 1-2.4 0-1.2-1.2l8.9-9.4zm-3.1-11.6c6.5 9.6 15 16.9 21 20.1 8.4 4.5 18.2 7 24 6.9 4.4-.1 7.1-6.5 8.3-9.8v21.2c-1-3-4.3-9.1-8-9.7-2.1-.3-14.8-1.2-26.2-7.7-6.2-3.6-13.4-9.4-20.9-20.2-2.2-3.1-4.1-6.2-5.6-9-.3-.6-.7-.7-1.2-.3-.7.6-1.8 2.2-2.8 4.3-.2.6-.7.4-.5-.2 2-5.3 2.1-10.2-.5-16.6-.6-1.4 0-1.7.6-.3 2.6 5.7 3.4 8 11.8 8.7.9.1.8.6-.1.7-1.1.1-3.5.2-4.8.9-.7.4-1 .9-.5 1.9 1.5 2.8 3.3 5.9 5.4 9.1zm112.3-9.7c.7-1.9-4-2.1-5.6-2.2-1.2-.1-.7-.6-.3-.6 8.7-.7 9.4-3 12.1-8.8.7-1.5 1.2-1.2.6.2-2.6 6.4-2.5 11.3-.5 16.7.2.5-.4.6-.5.4-1.7-3.6-3.4-5.7-3.9-4.4-.9 2.1-5 8.5-8 12.6-7.4 9.7-18.7 19.9-36.2 23.3-4.2.8-9.4 1.4-11 1.3-1.9-.1-2-1.1-.2-1.4 1.6-.3 5.2-.3 11-1.4 17.2-3.5 27.9-13.4 34.8-22.8 3-4.4 7-11 7.7-12.9l-8.6 21.3 9 9.4c1.1 1.2-.3 2.2-1.2 1.2l-8.8-9.3c.3-.4.7-.8 1.1-1.2l8.5-21.4zm-96-65.6c.7-1 1.6-1.9 2.7-2.6-1.8-3.6 0-10.4-3.5-14.7l-16.8-21.6c-6.6 4.5-12.5 9.7-17.8 15.7l20.7 18.4c4.1 3.6 10.5.5 14.7 4.8zm-15.5-19.7c4.7 4.6 10.7 8.8 13.8 8.1-.1 3.5.7 6.7 3.2 9.6-3.4-2.1-6.9-3.8-10.5-3.8.9-3.4-2.9-9.1-6.5-13.9zm-12.2 1.9c-.8-.7 0-1.6.7-.9l13.5 12.1c1.1 1 1.8 1.1 2.8 1.3 1.3.4 1.8.9.7.9-2.4.1-3.6-.8-4.5-1.6l-13.2-11.8zm99 15.2c1.1.8 2 1.8 2.5 2.7h.1c4.2-4.5 10.8-1.3 14.8-4.9l20.7-18.4c-5.3-6-11.2-11.2-17.8-15.7l-17 21.5c-3.3 4.4-1.5 11.1-3.3 14.8zm14.5-27.5c.6-.8 1.5-.1.9.6l-10.9 13.7c-.6.7-.8 1.4-.9 2.2-.3 1.5-.7 2.1-.8.8-.1-1.3-.2-2.5 1.1-4.1l10.6-13.2zm3.8 10.4c-3.7 4.8-7.5 10.4-6.5 13.9-3.7 0-7.2 1.7-10.5 3.8 2.5-2.9 3.2-6.1 3.2-9.6 3.1.7 9-3.5 13.8-8.1zm-58.7 2.9v-1.3c0-1 .9-1.8 1.9-1.8 1.1 0 1.9.8 1.9 1.8v2.1h.4v-2.1c0-1 .8-1.8 1.9-1.8 1 0 1.9.8 1.9 1.8v2.2h.3v-2.2c0-1 .9-1.8 1.9-1.8 1.1 0 1.9.8 1.9 1.8v1.6c4.1-1 7.7-2.9 11.6-6.1v-7.5c-3.9-2.1-7.8-3.3-11.6-4 3.1-2 5.2-5.4 5.2-9.4.1-6.1-4.9-11.1-11.2-11.1-6.2 0-11.2 5-11.2 11.1 0 3.9 2.1 7.4 5.2 9.4-3.9.7-7.8 2.1-11.9 4v7.5c3.9 2.8 8.1 4.8 11.8 5.8zm6-31.9c2.9 0 5.3 2.3 5.3 5.2s-2.4 5.2-5.3 5.2-5.3-2.4-5.3-5.2c0-2.8 2.4-5.2 5.3-5.2zm-6.7.8c-1.4 2-2 4.8-.8 7.6.4 1-1.1 1.8-1.5.8-1.6-3.3-1.3-6.8 1.1-9.7.6-.9 1.9.2 1.2 1.3zm12.9 2.4c-.6-1.1.5-1.8 1.2-.9 1.7 2.5 1.4 5-.5 7-.6.6-1.8.1-1.3-.6 1.4-1.8 1.6-3.8.6-5.5zm9.4 15.7c.4 0 .8.3.8.7s-.4.7-.8.7h-28c-.6 0-1.2.5-1.6 1.1-.6.9-.7 1.7-.8 2.1-.1.7-1.2.6-1.2-.1v-3.9c0-.5.5-.7.9-.7l30.7.1v6.1c.4 0 .8.3.8.7s-.4.7-.8.7h-30.7c-.5 0-.9-.4-.9-.7 0-.3.4-.7.9-.7h30.7v-6.1zm-16.1 40c-7.4 1.6-14.1 4.7-20.7 8.9 2.2 4.4 4.2 8.6 5.9 12.8 5.4-3.5 11.3-6.7 17.7-7.3-1.4-4.8-2.4-9.4-2.9-14.4zm-8.7 4.7c3.5 0 6.3 2.4 6.3 5.5 0 3-2.8 5.5-6.3 5.5s-6.3-2.5-6.3-5.5c0-3.1 2.8-5.5 6.3-5.5z"/><path fill="#F4E21C" d="M-178.9 385.4l.8-1.1 1.4.5-.9-1.2.9-1.1-1.4.4-.8-1.1v1.3l-1.4.4 1.4.5v1.4zm3.7 8.1l.7-1 1.2.4-.7-1 .7-1-1.2.4-.7-1v1.2l-1.2.4 1.2.4v1.2zm13.1-5.4l.8-1 1.2.4-.7-1 .7-1-1.2.4-.7-1v1.2l-1.2.3 1.2.4-.1 1.3-1.9-8.9.8-1.1 1.4.5-.8-1.2.8-1.1-1.4.4-.8-1.1v1.4l-1.3.4 1.3.5v1.4l1.9 8.8z"/><path fill="#474288" d="M-169.1 381.5c0-.1-.1-.1-.2 0-.1 0-.1.1-.1.1h-.1c-.1 0-.1 0-.1.1v.1c0 .2.1.2.2.1h.1l.1-.1.1-.1v-.2zm-.1 6.6c.1 0 .1 0 0 0 .2 0 .2.1.2.1h.1c.3 0 .2.2.4.3v.1h.1v-.1c0-.1.2-.5.2-.6v.1s0 .1-.1.1c0-.1.1-.1.1-.2.1-.2.2-.7.2-.9v-.1s0-.1-.1-.1v-.2c0-.3.4-.4.6-.6l.1-.1h.2c.5 0 .7-1.2.7-1.7 0-.1-.1-.1-.1-.2 0-.2-.1-.2-.1-.4v-.1h.1c.2 0 .6-1.1.6-1.2v-.4c-.1 0-.1-.1-.1-.1h-.1s-.1 0-.1.1h-.1c-.1-.1-.2-.1-.2-.1-.1 0-.1-.1-.1-.1h-.1c-.1-.1-.4-.1-.4-.1s0 .1-.1.1h-.2c0-.1 0 0 0 0h-.3c-.1 0-.2.2-.2.1v-.2h-.2v-.1h-.5c-.1 0-.1.1-.2.2-.1 0-.2.1-.2.1h-.2v-.1h-.1v-.1.1l-.1.1s-.1 0-.1.1v.2-.4s0-.1.1-.1h.1s0-.1.1-.1v-.2c-.1-.1-.1 0-.2-.1 0 0-.1-.1-.1-.2l-.1-.1c-.3-.3-.1-.1-.2 0 0 .1 0 .2-.1.3 0-.1 0 0-.1 0h-.3s0 .1-.1.1h.1v.1h-.1c-.1 0-.1 0-.2.1 0 0 0 .1-.1.1h-.4c-.2.2-.3-.3-.3-.3.1-.1 0-.2-.1-.2v-.2c-.1 0-.2.2-.2.2h-.2c0 .1-.1.1-.1.1h-.3v.1h.1s0 .1.1.1h.1c.2 0 .1.1 0 .2l-.1.1c-.1.1-.1.2-.2.2h-.2c-.1 0-.1-.1-.1-.1h-.1l-.7.5c-.1.1-.2.1-.3.1v.1h.1c0 .1 0 .1.1 0h.1v.1c-.4 0-.1.2-.1.3h.1s.1 0 .1.1l.1.7c0 .1 0 .1-.1.1-.4 0-.5.3-.5.6v.1c-.1 0-.1.2-.1.3 0 0 .1 0 .1.1 0 0 .1 0 .1.1h.1v.1c.1 0 .2-.1.2 0h.1c.1 0 .2-.1.3-.1v.1c0 .2.1.1.2.1h.1c.1 0 .4-.1.4-.2 0 0 0-.1.1-.1.1-.1.2-.1.3 0 0 .4.9.4 1.2.4.1 0 .1 0 .1.1v.1l.1.1v.2c-.1.1 0 .1.1.2.1 0 .2-.1.3-.1 0 0 .1 0 .1.1 0 0-.1.1 0 .1 0 .1.2.1.2.3v.1h.1c0 .1-.1.1 0 .1h.1s0 .1-.1.1l.1.1v.2s0 .1.1.1.2-.1.3-.1l.4.4v.2h.1c.3 0 .1.1.1.3-.4-.3-.5 0-.5.2-.1 0-.1 0 0 0z"/></svg>