<svg id="Layer_1" xmlns="http://www.w3.org/2000/svg" viewBox="-198.307 310.938 171.369 171.369"><style>.st0{fill:#305A8A;} .st1{fill:#FFFFFF;}</style><path class="st0" d="M-112.62 310.94c47.2 0 85.68 38.5 85.68 85.68 0 47.2-38.5 85.7-85.68 85.7-47.2 0-85.7-38.5-85.7-85.7s38.5-85.68 85.7-85.68z"/><path class="st1" d="M-112.62 313.44c45.8 0 83.18 37.37 83.18 83.18s-37.37 83.18-83.18 83.18-83.18-37.36-83.18-83.18 37.37-83.18 83.18-83.18z"/><path class="st0" d="M-112.62 337.67c32.47 0 58.95 26.48 58.95 58.95s-26.48 58.95-58.95 58.95-58.95-26.48-58.95-58.95 26.48-58.95 58.95-58.95z"/><path class="st0" d="M-191.37 385.32l16.36 1.43-1.3 14.58-3.5-.3.7-9.1-2.6-.24-.75 8.4-3.48-.3.72-8.5-3.2-.28-.83 9.45-3.57-.3 1.3-14.9zm5.82 24.6h-.04l-.4.07c-.6.1-1 .5-1.2 1.1-.2.6-.1 1.4.1 2.5.2.84.5 1.5.9 1.9.36.42.75.6 1.2.5.64-.17.95-1.25.93-3.25v-1.08c-.05-3.17.2-5.28.8-6.33.26-.5.63-.9 1.1-1.24.24-.16.5-.3.76-.42.24-.1.54-.2.9-.3 1.55-.34 2.9.08 4.06 1.27 1.15 1.2 2.04 3.12 2.66 5.8.6 2.64.68 4.7.2 6.14-.5 1.45-1.53 2.35-3.13 2.73l-.2.03-1.15-5h.08c.55-.13.9-.48 1.08-1.05.1-.27.14-.6.1-1 0-.36-.05-.8-.17-1.3-.18-.77-.4-1.33-.7-1.7-.3-.36-.64-.5-1.03-.4-.66.14-.97 1.37-.94 3.66v1.04c0 1.7 0 2.87-.1 3.56-.1.67-.27 1.3-.5 1.87-.27.64-.67 1.16-1.2 1.6-.53.42-1.14.7-1.84.87-1.65.4-3.07-.1-4.3-1.4-1.2-1.3-2.16-3.4-2.8-6.23-.67-2.8-.7-4.9-.16-6.36.57-1.43 1.77-2.4 3.6-2.8l.27-.04 1.2 5.25zm13.4 16.82l-2.97 1.72 1.56 2.7c.37.64.77 1.04 1.2 1.2.42.17.88.1 1.4-.2.47-.27.75-.64.82-1.1.07-.45-.08-1-.44-1.62l-1.56-2.7zm-14 1.7l14.22-8.2 5.04 8.73c1.1 1.9 1.6 3.5 1.4 4.76-.1 1.26-1 2.32-2.5 3.2-1.5.85-2.9 1.07-4.3.64-1.3-.43-2.5-1.46-3.4-3.08l-2.42-4.3-5.2 3-2.74-4.8zm20.83 16.63c-1.16 1.2-1.76 2.36-1.8 3.5-.04 1.1.48 2.2 1.55 3.24 1.1 1.1 2.2 1.6 3.33 1.5 1.13 0 2.26-.6 3.38-1.8 1.22-1.2 1.88-2.5 1.96-3.7.08-1.2-.43-2.3-1.52-3.4-1-1-2.12-1.4-3.33-1.3-1.2.18-2.4.8-3.57 2zm-2.75 8.95c-2.35-2.26-3.62-4.5-3.82-6.72-.2-2.2.7-4.33 2.7-6.34 1.9-1.95 3.98-2.83 6.27-2.64 2.3.2 4.65 1.45 7.05 3.77 2.37 2.2 3.66 4.5 3.9 6.8.2 2.2-.64 4.4-2.6 6.4-1.9 1.9-4 2.8-6.25 2.6-2.3-.2-4.68-1.56-7.17-3.97zm24.24 1.14l-1.5 2.92 2.78 1.42c.67.34 1.22.47 1.65.4.43-.08.77-.37 1.03-.87s.3-.96.12-1.35c-.2-.4-.62-.76-1.3-1.1l-2.78-1.42zm-10.85 9.17l7.46-14.64 8.4 4.2c.86.42 1.6.8 2.17 1.14.6.33 1.02.6 1.3.82.6.43 1 .9 1.28 1.4.27.47.4 1.04.38 1.7 0 .66-.1 1.3-.5 1.93-.5.96-1.2 1.57-2.1 1.85-.9.27-2 .16-3.2-.33.6.3 1.07.6 1.4.92.38.33.64.7.8 1.04.3.64.3 1.45-.1 2.43l-.95 2.58c-.13.35-.26.76-.37 1.2l-.32 1.54-5.07-2.6c0-.13.02-.3.05-.44.02-.15.1-.36.2-.64l.12-.45c.08-.2.18-.4.3-.64l.9-2.1c.14-.3.24-.6.3-.87 0-.3 0-.5-.1-.7-.13-.38-.6-.76-1.37-1.16l-3.1-1.57-2.9 5.72-4.9-2.5zm26.13 10.14l2.44-12.58-6-1.2.6-3.6 17.5 3.4-.7 3.53-6-1.17-2.45 12.6-5.5-1.08zm17.3 2.23l-2-16.3 14.53-1.78.43 3.5-9 1.12.3 2.6 8.4-1.03.4 3.5-8.4 1.1.4 3.17 9.4-1.15.5 3.56-14.88 1.83zm33.96-20.96c-.4-.63-1-1-1.7-1.13-.6-.1-1.3.1-2.1.5-1.25.67-2.02 1.57-2.3 2.7-.3 1.17-.03 2.5.7 3.97.75 1.4 1.65 2.35 2.7 2.77 1.08.43 2.2.3 3.5-.32.9-.45 1.52-1.04 1.85-1.75.33-.7.34-1.53.04-2.46l5.16-2.62c.8 2 .7 3.8-.24 5.47-.95 1.64-2.84 3.18-5.66 4.6-2.75 1.4-5.2 1.8-7.36 1.3s-3.83-1.9-5-4.2c-1.27-2.45-1.47-4.8-.6-6.95.88-2.18 2.77-4 5.66-5.47 2.55-1.3 4.7-1.85 6.45-1.66.9.1 1.7.34 2.4.8.73.44 1.3 1.1 1.73 1.9l-5.15 2.66zm22.9-9.65l2.5 2.5-10.2 9.83-11.4-11.8 4.04-3.9 8.9 9.23 6.18-5.96zm-8.04-10l2.73-4.7 8.1 4.66c1.17.67 2.2.9 3.1.7.87-.2 1.64-.9 2.3-2 .63-1.1.8-2.1.55-2.98-.26-.9-.97-1.68-2.13-2.35l-8.1-4.7 2.65-4.57 8.05 4.65c2.2 1.28 3.45 2.87 3.74 4.76.3 1.9-.36 4.23-1.97 7-1.6 2.77-3.27 4.48-5 5.13s-3.74.34-5.97-.95l-8.03-4.64zm14.13-22.25l3.34.77.66-2.8c.14-.7.12-1.25-.08-1.66-.2-.4-.6-.67-1.14-.8-.53-.1-1-.04-1.36.23-.37.3-.64.76-.8 1.44l-.64 2.8zm6 1.4l3.5.8.76-3.24c.16-.77.15-1.4-.06-1.84-.2-.46-.6-.76-1.2-.9-.57-.13-1.05-.03-1.44.3-.4.32-.67.86-.84 1.63l-.74 3.24zm5.56 6.75l-16-3.7 2.26-9.9c.14-.6.27-1.12.4-1.53.1-.4.2-.74.35-1 .1-.28.25-.5.37-.7s.3-.4.47-.6c.44-.5.97-.8 1.58-1 .6-.16 1.3-.16 2.04 0 .9.22 1.57.65 2.03 1.3.47.66.74 1.6.83 2.8.6-1.3 1.33-2.16 2.15-2.6.83-.47 1.8-.56 2.95-.3 1.4.32 2.38 1 2.93 2 .57 1.02.66 2.35.27 4l-2.6 11.26zm4.3-22.37l-16.4 1.4-1.3-14.57 3.55-.3.8 9.1 2.6-.2-.73-8.4 3.5-.3.74 8.4 3.17-.28-.82-9.45 3.6-.33 1.3 14.93zm-140.8-44.35c-.74-.33-1.42-.37-2.04-.15-.63.2-1.2.7-1.67 1.45-.8 1.2-1 2.36-.67 3.5.34 1.14 1.2 2.16 2.6 3.06 1.34.87 2.57 1.22 3.7 1.06 1.15-.17 2.1-.84 2.86-2 .56-.87.8-1.68.7-2.47-.06-.78-.46-1.5-1.2-2.16l3.2-4.9c1.66 1.34 2.5 2.96 2.5 4.86 0 1.9-.9 4.17-2.6 6.83-1.67 2.56-3.57 4.16-5.7 4.8-2.13.66-4.27.3-6.4-1.1-2.37-1.54-3.7-3.46-4.03-5.77-.32-2.3.4-4.87 2.17-7.6 1.56-2.4 3.14-3.93 4.76-4.64.82-.37 1.65-.55 2.45-.5.87.03 1.7.3 2.47.8l-3.14 4.87zm9.84-14.7l2.15 2.47 2.34-2.03c.55-.5.9-.96 1-1.4.06-.42-.08-.85-.45-1.27-.34-.43-.74-.63-1.2-.6-.4 0-.9.27-1.5.8l-2.34 2.04zm4.43 13.5l-10.77-12.4 7.1-6.2c.75-.64 1.38-1.17 1.9-1.58.53-.43.94-.73 1.26-.9.6-.4 1.2-.6 1.76-.68.55-.06 1.13.03 1.73.3.6.26 1.15.66 1.6 1.2.7.8 1 1.7.9 2.68-.1 1-.6 1.95-1.5 2.88.5-.42.96-.74 1.4-.94.4-.2.86-.3 1.27-.35.72-.07 1.46.25 2.23 1l2 1.83c.26.24.6.5.96.8l1.3.86-4.3 3.75c-.14-.07-.27-.15-.4-.24-.14-.05-.3-.2-.53-.4l-.35-.3c-.18-.13-.34-.3-.5-.5l-1.6-1.6c-.25-.3-.48-.5-.7-.6-.23-.12-.45-.2-.67-.2-.35 0-.9.28-1.53.85l-2.6 2.27 4.2 4.86-4.14 3.6zm9.06-27.6l5.02-2.04 3.5 8.66c.5 1.25 1.2 2.07 2 2.45.82.4 1.84.33 3.06-.16 1.15-.48 1.9-1.15 2.25-2 .36-.87.28-1.9-.22-3.16l-3.5-8.68 4.9-2 3.5 8.6c.95 2.37.96 4.4.03 6.06-.95 1.65-2.9 3.1-5.87 4.3-2.96 1.2-5.33 1.5-7.1.95-1.78-.56-3.15-2.03-4.1-4.43l-3.5-8.6zm32.6 4.07l9.96-.16.1 3.6-16.36.26-.06-4.5 9.1-8.45-8.73.16-.05-3.6 15.55-.26.06 4.38-9.55 8.66zm12.8 3.8l3.4-16.05 14.34 3.04-.76 3.45-8.95-1.9-.54 2.55 8.27 1.77-.73 3.43-8.24-1.73-.66 3.1 9.26 1.98-.75 3.5-14.63-3.1zm16.77 4.7l7.45-14.6 5 2.55-7.48 14.63-4.97-2.56zm20.42-3.03l-2.04 2.6 2.46 1.9c.6.47 1.1.7 1.55.7.44 0 .83-.2 1.18-.65s.47-.88.37-1.3c-.1-.4-.48-.86-1.1-1.33l-2.47-1.92zm-12.4 6.93L-69.6 330l7.4 5.8c.8.6 1.4 1.1 1.94 1.56.5.45.88.8 1.12 1.07.5.55.82 1.08 1 1.6.16.55.18 1.14.04 1.78-.16.66-.45 1.26-.88 1.8-.7.87-1.5 1.34-2.5 1.4-.97.1-2-.2-3.1-.9.5.4.9.8 1.2 1.2.3.4.5.8.6 1.2.16.7 0 1.46-.57 2.35l-1.44 2.33c-.2.3-.4.7-.6 1.1l-.6 1.45-4.5-3.5.17-.44.3-.6.24-.4c.1-.2.23-.4.4-.6l1.25-1.87c.24-.3.4-.56.47-.8.1-.24.1-.47.08-.7-.07-.37-.45-.83-1.14-1.36l-2.73-2.16-3.96 5.1-4.33-3.38zm24.6 12.5c-1.4.9-2.26 1.9-2.55 3-.3 1.1-.03 2.26.8 3.5.8 1.3 1.78 2 2.9 2.2 1.1.2 2.35-.13 3.7-1 1.48-.97 2.4-2.03 2.74-3.2.33-1.15.1-2.37-.7-3.65-.8-1.18-1.78-1.85-3-2-1.22-.16-2.52.22-3.94 1.14zm-4.7 8.1c-1.77-2.73-2.5-5.2-2.2-7.4.3-2.2 1.6-4.07 3.96-5.6 2.27-1.47 4.5-1.85 6.7-1.15 2.2.7 4.2 2.44 6 5.24 1.8 2.73 2.56 5.24 2.27 7.5-.3 2.25-1.6 4.14-3.96 5.7-2.3 1.5-4.53 1.84-6.7 1.12-2.16-.74-4.18-2.56-6.07-5.47z"/><path class="st1" d="M-108.4 429.7l2.18 6.8h7.18l-5.85 4.24 2.3 6.8-5.8-4.14-5.72 4.13 2.2-6.75-5.87-4.3h7.26l2.2-6.8zm31.8-49.16l2.2 6.8h7.18l-5.86 4.24 2.28 6.8-5.85-4.13-5.74 4.12 2.3-6.74-5.9-4.3h7.28l2.2-6.8zm-24.7 15.37l1.37 4.4h4.55l-3.7 2.7 1.44 4.3-3.7-2.6-3.64 2.6 1.4-4.28-3.72-2.72h4.6l1.4-4.3zm-12.44-46.5l2.2 6.9h7.17l-5.85 4.24 2.27 6.8-5.85-4.14-5.74 4.13 2.22-6.77-5.9-4.3h7.27l2.2-6.8zm-33.1 32.9l2.2 6.8h7.18l-5.85 4.3 2.2 6.8-5.88-4.14-5.74 4.1 2.2-6.73-5.87-4.3h7.26l2.2-6.8z"/></svg>