<svg xmlns="http://www.w3.org/2000/svg" viewBox="-418 607 166.7 187.2"><path d="M-259.4 655.5c.4-1.5 1.1-2.8 1.5-4.4.6-1.5 1.3-2.8 2-3.9 1.1-2 2.2-3.3 3.5-4.4.2-.4.7-.9 1.1-1.1L-287 607c-2.2 1.7-5.7 3.3-10.9 4.6-1.3.4-2.8.9-4.1 1.1-2 .4-3.9.9-6.1 1.3-6.5.9-13.9 1.5-22 1.5h-9.1c-8.5 0-16.1-.6-22.8-1.7-1.7-.4-3.5-.7-5-1.1-1.5-.2-2.8-.7-4.4-1.1-5-1.3-8.7-2.8-10.9-4.6l-35.7 34.8c.4.2.9.7 1.3 1.1 2 1.7 3.7 4.6 5.2 8.3 2.8 6.5 4.4 14.4 4.6 23.3v3.3c0 7.4-.7 14.1-2.4 20-.2.9-.4 1.5-.7 2.2-.4 1.3-.9 2.8-1.5 4.1-.4 1.1-.9 2.4-1.5 3.3 0 .4-.2.9-.4 1.1-.2.9-.4 1.5-.9 2.4 0 .4-.2.9-.4 1.3-1.3 4.6-2.2 9.6-2.4 14.8-.2 1.1-.2 2 0 2.8 0 2.2 0 4.1.4 6.1.4 4.1 1.7 8 3.3 11.7 2.8 6.3 6.7 12 11.5 16.7 5 4.8 10.7 8.1 17.4 9.6 6.5 1.7 13.3 2.8 20 3.5 1.3 0 2.4.2 3.5.4 5.7.9 10.7 2.8 15 5.9 4.1 2.8 7.6 6.1 10.9 9.6 0 .2.2.4.4.9.2-.4.4-.7.7-.9 2-2.2 4.1-4.6 6.7-6.5 1.3-1.1 2.6-2.2 3.9-3 2.8-2 5.9-3.5 9.4-4.6 2.8-.9 5.9-1.5 9.1-1.7 5.4-.4 10.7-1.3 15.9-2.4 1.3-.2 2.8-.7 4.4-1.1 5.2-1.3 10-3.7 14.4-7 .9-.9 2-1.7 2.8-2.6 3.7-3.7 6.7-7.6 9.4-12 .7-1.5 1.5-3 2.2-4.8v-.2c1.7-3.7 2.8-7.6 3.5-11.5v-.7c.4-2.8.4-5.4.4-8.3-.2-5.9-1.3-11.1-3-16.1-.2-.7-.4-1.5-.9-2.2v-.2s-1.3-3.3-2-4.4c-.2-.7-.4-1.3-.7-2-.2-.7-.7-1.5-.9-2.2-2-6.5-3-13.9-3-22.2v-.4c0-8.2 1.1-15.4 3-21.7z"/><path fill="#FFF" d="M-262.8 652.7c.2-1.1.7-2.2 1.1-3 .7-1.7 1.3-3 2.2-4.4 0-.2 0-.2.2-.2.4-1.3 1.1-2.2 2-3.3l-30.2-29.4c-2.2 1.3-5.2 2.4-8.9 3.5h-.7c-1.3.4-2.6.6-3.9 1.1-.9.2-1.7.4-2.6.4l40.8 35.3zm-149.7 81.1c0 .4 0 .9.2 1.3.4 3.7 1.5 7.2 3 10.7 2.4 5.7 5.9 10.7 10 15 .2 0 .4.2.4.2 4.4 4.4 9.6 7.2 15.4 8.7 5.2 1.3 10.9 2.4 16.5 3l-45.5-38.9zm5.4-83.7c3 7.6 4.6 16.8 4.6 27.6v.4l16.9 14.4c1.2-6.4 3.7-12.4 7.4-17.9l-28.9-24.5zm113.8 121.3c2.6-.7 5-1.1 7.6-1.7 4.4-1.1 8.5-3 12-5.7l-25.5-21.8c-5.1 4.5-10.6 7.8-16.7 9.9l22.6 19.3zm-95.1-152.5l-12 12 35.2 30c5.1-3.7 10.5-6.5 16.4-8.2l-39.6-33.8zm132.1 112.7l-25.2-21.5c-.8 6.3-2.6 12.1-5.5 17.4l25.5 21.8c.7-1.1 1.1-2.2 1.7-3.3 0-.2 0-.4.2-.4h-.2c1.5-3.3 2.4-7 2.8-10.4.3-1.4.5-2.5.7-3.6zm-32.2-55.6c.2.3.4.6.6 1l23.3 19.9c-1.5-5.7-2.2-12.2-2.2-19.1v-4.1l-62.9-53.7h-9.5c-5.9 0-11.5-.4-16.8-.9l41.3 35.2c3.8 1.5 7.5 3.4 10.9 5.8l16.2 2.4c.5 4.8.2 9.3-.9 13.5zm-96.4 51.5c.7-1.7 1.3-3.3 2-4.9-.4-1.1-.8-2.1-1.2-3.2l-21.5-18.4c-.2 0-.2 0-.2.2-.4 1.5-1.1 3-1.5 4.4-.7 1.3-1.1 2.4-1.5 3.5-.2.2-.2.4-.4.9v.2c-.2.4-.4 1.1-.7 1.7-.2.2-.2.2-.2.4-.2 1.1-.7 2-.9 2.8l80.3 68.7c1.5-1.3 3.3-2.6 5-3.9 2.4-1.5 5-2.8 7.8-3.9l-25.3-21.7c-8.8-1.5-16.7-5-23.8-10.8-.5.7-1 1.3-1.6 2l-16.3-18zm15.7-22.2c4.8-3.7 10.4-7.2 17.2-10 5.7-2.6 11.5-5.2 17.6-7.8 6.3-2.6 11.5-6.5 15.4-11.3 4-4.6 5.5-10.2 5.2-16.8-6.1-2.8-12.8-4.3-20-4.3-13.5 0-24.8 4.8-34.4 14.1v-.2c-9.4 9.4-14.1 20.7-14.1 33.9 0 5 .7 9.8 2.1 14.3 2.7-4.4 6.3-8.5 11-11.9z"/><path fill="#FFF" d="M-299.2 696.8c-3.7 4.8-8.9 8.5-15.2 11.1-6.3 2.4-12.4 4.8-18.3 7.6-6.1 2.6-12 5.7-17.6 9.6-5.7 3.7-10.2 8.5-13.7 14.1-.2.3-.4.5-.6.8 8.8 7.2 18.9 10.7 30.8 10.7 13.3 0 24.8-4.6 34.2-13.9 9.6-9.4 14.1-20.7 14.1-33.9 0-7.8-1.6-15-4.9-21.4-2.1 5.2-5.1 10.5-8.8 15.3z"/><path fill="#FFF" d="M-315.5 679c-4.6 5.4-10.2 9.6-17.2 12.6-6.1 2.4-12 5-17.6 7.6-6.3 2.8-11.7 5.9-16.3 9.6-4.8 3.5-8.3 7.8-10.9 12.4-.9 2-1.5 3.5-2.4 5.2l11.1 12.2c.2-.4.7-1.1 1.1-1.7 3.7-6.1 8.7-11.1 15.2-15.4 5.7-3.7 11.7-7.2 18.1-10 5.9-2.6 12-5 18.1-7.4 0 0 .2 0 .2-.2 5.7-2.2 10.2-5.4 13.5-9.6 3.9-5.2 6.7-10.7 8.9-16.1 0-.2.2-.4.2-.7 1.3-3.5 2-7.2 2-11.3l-17.8-2.6c-.5 6-2.5 11-6.2 15.4z"/><path d="M-316.3 691.4c-1.3-1.7-1.5-3.5-.9-5.2.4-1.5 2-3 3.9-4.6 1.7-1.1 3.3-1.5 4.6-1.7 1.3 0 2.6.2 3.7 1.1l-3.3 3c-.4-.4-.7-.4-.9-.4-.2-.2-.7-.2-1.1-.2-.7.2-1.1.2-1.3.6-1.1.4-1.5 1.3-1.5 2.2-.2.7 0 1.5.7 2.4.9 1.3 1.5 2 2.4 2 .4.2 1.3 0 2.2-.6.7-.4 1.3-.9 1.5-1.5 0-.7 0-1.3-.2-2.2l4.1-1.3c.4.9.4 1.7.2 2.6-.2.9-.7 1.7-1.3 2.6-.4.7-1.3 1.5-2.6 2.2-1.3 1.1-2.6 1.5-3.7 1.7s-2.4.2-3.7-.2c-1.1-.6-2.2-1.4-2.8-2.5zm-45.3 20.4l1.3 1.8 5.2-3.3 1.3 2-5.2 3.4 2.8 4.4-4.1 2.6-6.7-10.4 10-6.6 1.5 2.2m23.7-.2l-4.6 2-4.5-11.6 11.1-4.5 1.1 2.6-6.8 2.6.9 1.9 5.6-2.4 1.1 2.4-5.9 2.4"/><path fill="#738B60" d="M-352 695.3c5.7-2.6 11.5-5.2 17.6-7.8 6.3-2.6 11.5-6.5 15.4-11.3 1.9-2.2 3.2-4.6 4.1-7.3-2-.5-4-.7-5.8-.7-1.7 0-3.5.2-5 .9-1.1-2-2.8-3.3-5-3.5-3-.6-4.6.4-5 3-1.7 0-3.3.4-5 1.1h-.9c-1.5 0-3.3 0-4.8.4-2.8.4-4.8 1.7-6.3 3.7-.4-.2-.7-.2-.9-.2-.4 0-.7 0-.7.2-.9 1.3-2 2.8-3.3 4.1-1.3 1.5-2.4 3.3-3 5.2-.2-.2-.4-.4-.7-.4-2.8-1.3-4.6-.9-5 1.5-1.3-.2-1.7.4-1.3 1.7h-.9c-.2-.2-.4 0-.4 0-1.1 1.5-1.5 3.3-1.7 5-.9-.2-1.7 0-2.4.6-1.7 1.7-2.6 4.1-2 7.2.4 3.3 2 5.4 4.4 6.7v.8c.4-.3.8-.7 1.3-1 4.9-3.6 10.5-7.1 17.3-9.9zm37.6 12.6c-6.3 2.4-12.4 4.8-18.3 7.6-6.1 2.6-12 5.7-17.6 9.6-2.2 1.5-4.3 3.2-6.2 4.9.4.3.9.7 1.4.9 1.1.4 2.6.9 3.9.9 1.5 0 2.8 0 4.1-.4 1.5-.2 2-.7 1.3-1.5.7-.9 1.5-1.1 2.6-1.3 1.5 0 2.8.4 4.1 1.1.7.4 1.5.7 2.2.9v3.4c-1.1-.2-2.2.2-2.8 1.3-.2 0-.2.2-.2.2-1.1 0-2 0-2.8-.2-1.5-.2-2.6.4-3 1.7-.9 0-1.5.2-2.4.7-1.3.6-2.2 1.7-2 3.3.2.4.4.9.9.9.9.2 1.5.4 2.2.4-.4.7-.4 1.3 0 2.4 0 0 .2.2.7.2h6.1s2 0 3-.2c1.3 0 2.6-.2 3.9-.2.4-.2.9-.2 1.3-.4 1.5.2 2.4-.2 2.4-1.3h2.8c1.1.2 2.2.2 3.3.2 1.3.2 2.2 0 3-.7 1.3-.9 1.5-1.7.9-2.8-.4-.4-.9-.6-1.3-.6h-.4c-.7-.9-1.5-1.3-2.4-2-.4 0-.9-.2-1.3-.2s-.7.2-.9.2c0 0-.2 0-.2-.2-.7-.2-1.5-.4-2.4-.4h-2v-6.5c.9 0 1.7 0 2.4-.2h4.1c1.1-.2 2.2-.4 3.3-.7.7-.2 1.3-.7 1.5-1.3h2.6c1.1.2 2.2-.2 3-.9.2-.2.4-.2.9-.6.7-1.1 1.1-2.2 1.1-3.5 1.3 0 2.4-.2 3.5-.9 1.1-.4 2.2-1.3 3.3-2.2.2-.2.7-.7.9-1.3.7.2 1.3.4 2.2.4 1.1 0 1.7-.7 1.7-1.7 1.1 0 2-.9 2.4-2.4.2-.4.4-.9.4-1.5.2-.2.4-.4.7-.4.7 0 1.1-.2 1.3-.9 0-.2.4-.2 1.1-.2.7 0 .9-.9.9-2.2 0-1.5.4-2.6.9-3.7.7-1.3.7-2.6.2-4.1-.7-1.1-1.1-2.4-1.5-3.7-.2-.2-.2-.4-.4-.4-.4-1.1-1.3-2-2.6-2.4-.3-.1-.5-.3-.7-.4-.5.8-1.1 1.6-1.7 2.3-3.9 4.7-9.1 8.4-15.4 11z"/></svg>