<svg xmlns="http://www.w3.org/2000/svg" viewBox="-430 579.8 179.8 214.1"><path d="M-340.1 793.9c-27.8-10.9-50.2-25.9-65.7-46.7-16.2-21.7-24.2-49.6-24.2-88.5v-78.9h179.8v78.9c0 38.9-8 66.8-24.2 88.5-15.5 20.8-37.8 35.8-65.7 46.7z"/><path fill="#CD3529" d="M-340.1 787.7c-12.5-5-23.9-10.9-34-17.9h68c-10.1 7.1-21.5 12.9-34 17.9zm-60.5-43.3c-5.3-7.2-9.9-15.3-13.5-24.3h148c-3.6 9-8.1 17.1-13.5 24.3h-121zm-21.2-52.6c-1.2-7.4-2-15.3-2.3-23.7H-256c-.3 8.4-1.1 16.3-2.3 23.7h-163.5zm84.7-78.9h81.3v27.9h-81.3v-27.9zm-87.2-27.4h81.5v76.9h-81.5v-76.9z"/><path fill="#FFF" d="M-370 659c-2-.6-4.4-6-4.3-8.6v-.4c-2.6-4.4-5.2-7.9-7-10.1v11.4c-.1 3.8-1.1 6.3-3.8 7.6 2.3.3 5.7.8 7.8-2.3.5 1.3 4.4 3.4 7.3 2.4zm7-25.4c.7 1.6 1.2 4.4-3.2 7.9 5.3-.7 7.8-2.7 8-5.3.4-4.8-1.2-4.8-.1-11.3.4-2.2 1.7-3.7 4.1-5.7-5 .7-8 3.2-9.6 8.7h-10.5v-18.7h3.3c-.3-2.1-.9-4.1-2.2-6.3h-5.1c-2.5 0-3.7-1-6.1-.1 1.8 1 3.1 2.4 3.1 4v21.6c2.4 1.2 4.8 3.2 6.7 5.3l11.6-.1zm4.5-24.4h5.4c0 3 3.5 9 8.6 9.2-2.6-3.7-3.6-6.3-2.5-11.5 2.6-6.7.6-12-2.5-12.8.6 1.9.9 7.3-2.2 8.7h-10c1.1 3.3 2.5 5.9 3.2 6.4zm-24.4 38.4c-21.3 7.6-30.8-2.7-36.6-18.1-.8-2-.9-3.3-3.2-4.8 2.6-.8 3.1-2.4 3.5-4.1 1.4-10.4 7.9-19.2 18.1-22.4v5.1c-7.2 3.6-11.1 13.1-10.8 22 .3 10.1 9.7 20.5 19.2 20.3 3.1-.1 6.7-.4 9.9-2.8l-.1 4.8zm-8.1-51.1c1.6-.1 3.2-.2 5-.2-.4 2.3-1.2 11.1 2.3 14.1-.7 1.4-2.5 3.1-4.3 3-1.2 0-1.6-.6-2.2-1.5-.3-.4-.6-.9-.9-1.3l.1-14.1zm-1.6 36.5v11c-.7.1-1.5.1-2.6-.1s-2.8-.6-4.4-1.7v-45.8c0-2.8-2.1-5.4-5.7-6.8 3.5-2.3 10.1-.2 11.2 2.4 3.5-2.2 7.6-3.3 11.7-3.3 7.8.1 15.6 4.3 18.5 12.2 1.5 4.2 2.3 8.5 5.4 10.1-.8.5-1.5 1-2.1 1.8-1.6 2.1-2.6 5.3-5.2 9.1-1 1.5-2.3 3-3.9 4.5h-3.1v-3.7c2.2-3.5 3.4-8 3.3-12.3-.1-6.3-4.9-15.9-16.1-16.5-3.2-.2-5.9.8-7.2 1.6v31.7c6.5 0 11.2 2.3 14.8 5.4 3.4 3 5.7 6.8 7.8 10.7 3 5.6 5 10.5 8.7 10.4 2.7-.1 4-1.4 5.2-3.2 1.2 5.6-3.1 8-5.8 8-2.8.1-6.2-2.3-8.4-5.5-3.3-4.7-6.5-11.3-11-15.7-5-4.8-8.6-4.3-11.1-4.3zm.6 18.6c.8 3 2.2 6.7 4.8 8.3-6.7-.1-7.2-2.4-8.2-3.4-1.6 1.6-4.1 4.2-9.2 3.7 2.9-2.7 4.1-5.4 4.6-8.7 2.6.4 5.6.5 8 .1z"/></svg>