<svg id="svg2" xmlns="http://www.w3.org/2000/svg" viewBox="-153 222 305 350"><style>.st0{fill:#FFFFFF;} .st1{fill:none;stroke:#8E0927;stroke-width:6.7047;stroke-miterlimit:2.6131;} .st2{fill:#00613C;} .st3{fill:#870A28;}</style><g id="g10"><g id="g12"><g id="g3081"><path id="path14" class="st0" d="M1 229.38c-37.43 46.38-85.75 64.5-144.6 53.06C-144.97 434.27-74.95 506 1.02 563.74 76.2 506.7 147.5 433.8 145.52 282.54 84.38 293.9 38.77 276.3 1 229.4"/><path id="path16" class="st1" d="M1 229.38c-37.43 46.38-85.75 64.5-144.6 53.06C-144.97 434.27-74.95 506 1.02 563.74 76.2 506.7 147.5 433.8 145.52 282.54 84.38 293.9 38.77 276.3 1 229.4z"/><path id="path18" class="st2" d="M113.3 399.66C96.75 445.08 64.03 492.28.93 543.6c-62.34-51.05-95.05-98.63-111.78-143.94H113.3"/><path id="path20" class="st3" d="M-127.35 301.06c76.7.8 98.76-14.68 128.3-47.5 31.9 31.86 53.07 48.46 128.35 47.5-.3 30.16-3.25 60.37-13.48 91.34H-113.4c-10.5-31.32-13.6-61.64-13.95-91.34"/><path id="path22" class="st0" d="M-35.08 307.7c2.55.8 7.7-.93 10.47 4.48 1.3 2.7 3.8 5.68 4.6 11.4l15.84-2.48c-1.73-6.25-.5-6.4-2.04-11.27 9.8-.93 19.35-3.06 28.23-7.77 4.34 3.63 8.2 6.72 13.4 8.8-19.7 11.02-17.7 19.94-16.24 25.77l7.75 9.2c-.3-19.28 12.1-31.56 27.54-35.3-10.5-5.73-20.7-12.17-30.3-19.78-17.58 6.18-39.25 13.17-48.36 6.33L-35.1 307.7"/><path id="path24" class="st0" d="M-50.92 352.58c-.03.62 13.3-6.72 16.57-5.14l-1.23-7.57c15.6-7 31.47-9.92 53.06-6.33.16-3.4.04-5.95 1.6-9.35-7.2-1.3-14.34-1.6-21.68-2.2-5.1.44-12.63 1.25-18.15 3-5.52 1.73-11.5 4.1-16.57 4.6-5.1.5-7.53-1.1-12.17-2.3-3.8 4.4-6 6.33-11.8 11.47 4.7-1.08 11.7.6 10.7 11.3l-.23 2.42"/><path id="path26" class="st0" d="M32.9 326.6c15.17 5.63 15.56.34 22.1-.2l3.85 7.53c-20.05 5.94-29.43 29.8-14.72 43.4-14.32 2.8-22.82-15.06-11.4-36.8.67-1.27-.07-3.28.7-4.56l-4.24-1.12c.7-3.28 2.2-5.13 3.7-8.26"/><path id="path28" class="st0" d="M41.74 348.5c-1.66 2.57-3.13 6.05-3.32 9.9 7.8 2.72 12.24 7.08 15.3 17.47.07.3.22.62.34.93 3.94 10.15 23.48 10.42 26.88 7 .85-3.95-.3-6.4-3.86-7.4-4.1.05-3.63 4.14-7.38 3.14-4.6-1.62-7.14-3.63-8.22-7.5C59.8 366.3 63.1 360.08 71.9 358l-4.4-6.08c-8.73.54-17.5.54-25.76-3.43"/><path id="path30" class="st0" d="M29.77 345l-2-.53-.4 1.85-.93.4-2.58-3.14c-8.73-1.04-17.42-1.12-26.15-.2l-.5 10.13c10.3-.8 20.3-.3 29.6 1.3.8-3.4 1.4-6.7 3-9.7"/><path id="path32" class="st0" d="M-20.6 336.5l-.7 50.8 14.8-.73.7-8.1 10.93-.7 1.77 1.77c-7.76 21.36-3.28 34.3 13.4 38.78l.35-2.13c-11.04-7.8-12.67-27.4 1.78-37.8l-4.6-9.2c-8.57-2.27-16.8 3.94-23.63-.7l2.47-34.9c-5.37.46-11.16.23-17.27 2.8"/><path id="path34" class="st0" d="M-39.3 432.4l-1.77 13.4c20.05 4.34 42.02 5.34 67.7-3.5 13.06-4.48 25.73-9.27 39.13-7.07-2.55-3.86 10-27.5 20.82-13.75l6 .35c-2.72-5.4-2.6-8.34 5.63-13.05-9-1.05-15.6-.35-21.8-5.3-27.4 25.6-69.5 38.6-115.6 28.92"/><path id="path36" class="st0" d="M16.1 388c-2.28 3.98-3.37 6.4-2.83 10.4 5.76.53 10.82 3.35 13.06 7.56l.2-18.7-10.44.74"/><path id="path38" class="st0" d="M-20.9 399.16l-1.63 34.68c5.45.8 9.66 1 14.64.9l1.1-35.62-14.02.04"/><path id="path40" class="st0" d="M-22.88 449.52c6.18.77 11.5.47 16.23.7 1.27 21.1 9.23 29.58 26.88 35.18 3.55 1.12 7.88 2.32 10.46 3.94-42.1 3.94-42-23.13-60.8-2.47l-5.2-7.22c6.3-5.95 10.02-17.58 12.33-30.13"/><path id="path42" class="st0" d="M-22.6 346.36c-25.5 2.47-48.75 16.92-68.68 48.74-1.54 2.24-4.67 5.72-5.25 6.38 2.6.46 4.52 2.47 5.72 3.6 10.3 18.68 21.6 29.5 33.3 35.64 1.6-4.37 2-8.73 2.6-13.1-7.3-3.24-23-17.45-21.5-33.02 7.5-19.8 31.5-37.04 53.7-36.7v-11.54"/><path id="path44" class="st0" d="M-50.07 368.53c4.48-3.9 9.3-6.68 14.9-7.18l.55 29.04c12.05-2.9 25.38-3.2 37.43-2.4l-1 9.4c-12.3.24-25.9.24-38.5 4.4-1.9 18.9-3.6 36.96-9.1 55.04 9.2 3.05 13.8 7.07 16 11.55l-4.2 7.9c-5.9-8.05-11.62-12.35-22.55-10.45l-5.25-4.7C-50.3 439-51.6 396.1-50 368.48"/><path id="path46" class="st0" d="M-28.9 486.83c1.2-.38 4.7 6.3 10.74 8 .3.27 4.2-.16 2.24-.93-1.97-.77-5.64-5.76-7.88-11.66.04 0-6.26 4.98-5.1 4.6"/></g></g></g></svg>