<svg xmlns="http://www.w3.org/2000/svg" viewBox="-300 446 295.9 343.9"><path fill="#FFF" d="M-152 451.38c-37.4 46.38-85.73 64.5-144.6 53.06-1.34 151.83 68.68 223.55 144.65 281.3C-76.8 728.7-5.5 655.8-7.47 504.54-68.6 515.9-114.22 498.3-152 451.4"/><path fill="none" stroke="#8E0927" stroke-width="2.59" stroke-miterlimit="2.61" d="M-152 451.38c-37.4 46.38-85.73 64.5-144.6 53.06-1.34 151.83 68.68 223.55 144.65 281.3C-76.8 728.7-5.5 655.8-7.47 504.54-68.6 515.9-114.22 498.3-152 451.4z"/><path fill="#00613C" d="M-39.68 621.66c-16.57 45.42-49.28 92.62-112.4 143.95-62.32-51-95.04-98.6-111.76-143.9h224.16"/><path fill="#870A28" d="M-280.33 523.06c76.7.8 98.76-14.68 128.3-47.5 31.9 31.86 53.07 48.46 128.34 47.5-.3 30.16-3.2 60.37-13.4 91.34h-229.3c-10.5-31.32-13.55-61.64-13.9-91.34"/><path fill="#FFF" d="M-188.06 529.7c2.55.8 7.68-.92 10.46 4.48 1.4 2.7 3.87 5.68 4.68 11.4l15.87-2.48c-1.74-6.25-.5-6.4-2.05-11.27 9.8-.93 19.35-3.05 28.24-7.77 4.36 3.63 8.22 6.72 13.4 8.8-19.7 11.02-17.7 19.94-16.22 25.77l7.76 9.2c-.3-19.28 12.1-31.56 27.54-35.3-10.55-5.72-20.74-12.17-30.36-19.78-17.57 6.18-39.24 13.17-48.35 6.33L-188 529.7"/><path fill="#FFF" d="M-203.9 574.58c-.04.62 13.3-6.72 16.57-5.14l-1.24-7.57c15.6-7 31.48-9.92 53.07-6.33.16-3.4.04-5.95 1.6-9.35-7.2-1.3-14.34-1.6-21.68-2.2-5.1.44-12.63 1.25-18.15 3-5.53 1.73-11.5 4.1-16.57 4.6-5.1.5-7.53-1.1-12.17-2.3-3.82 4.4-6.06 6.33-11.82 11.47 4.7-1.08 11.7.6 10.7 11.3l-.2 2.42m83.8-25.98c15.2 5.63 15.57.34 22.1-.2l3.86 7.53c-20.05 5.93-29.43 29.8-14.72 43.4-14.32 2.8-22.8-15.06-11.4-36.8.67-1.28-.06-3.3.7-4.57l-4.24-1.1c.77-3.3 2.23-5.14 3.7-8.27"/><path fill="#FFF" d="M-111.24 570.5c-1.66 2.58-3.13 6.05-3.32 9.9 7.8 2.72 12.24 7.08 15.3 17.47.07.3.22.62.34.93 3.94 10.16 23.48 10.43 26.88 7 .85-3.95-.3-6.38-3.86-7.4-4.1.05-3.63 4.14-7.38 3.14-4.6-1.62-7.15-3.63-8.23-7.5-1.7-5.75 1.6-11.97 10.4-14.05l-4.4-6.1c-8.8.5-17.5.5-25.8-3.5m-12-3.48l-2-.54-.4 1.85-.9.4-2.6-3.14c-8.7-1.04-17.4-1.1-26.14-.2l-.54 10.13c10.3-.8 20.3-.38 29.6 1.3.73-3.5 1.4-6.74 2.97-9.8"/><path fill="#FFF" d="M-173.58 558.5l-.7 50.8 14.8-.73.7-8.1 10.92-.7 1.78 1.77c-7.76 21.36-3.28 34.3 13.4 38.78l.35-2.13c-11.05-7.8-12.67-27.4 1.78-37.8l-4.6-9.2c-8.57-2.27-16.8 3.94-23.64-.7l2.5-34.9c-5.3.46-11.1.23-17.2 2.8"/><path fill="#FFF" d="M-192.27 654.4l-1.78 13.42c20.05 4.32 42.02 5.33 67.7-3.52 13.06-4.48 25.73-9.27 39.13-7.07-2.55-3.86 10-27.5 20.82-13.75l5.98.35c-2.7-5.4-2.58-8.34 5.64-13.05-9.04-1.05-15.64-.35-21.86-5.3-27.42 25.6-69.48 38.6-115.63 28.93m55.37-44.4c-2.27 4-3.35 6.4-2.8 10.4 5.75.6 10.8 3.4 13.05 7.6l.2-18.7-10.44.78"/><path fill="#FFF" d="M-173.9 621.16l-1.6 34.68c5.43.8 9.64 1 14.63.9l1.04-35.62-14.06.04m-1.9 50.36c6.2.78 11.5.47 16.2.7 1.3 21.1 9.26 29.58 26.9 35.18 3.57 1.12 7.9 2.32 10.48 3.94-42.1 3.94-41.96-23.13-60.77-2.47l-5.14-7.22c6.34-5.95 10.04-17.57 12.36-30.13m.25-103.16c-25.47 2.48-48.72 16.92-68.65 48.74-1.56 2.24-4.7 5.72-5.27 6.38 2.57.46 4.5 2.47 5.7 3.6 10.3 18.68 21.62 29.5 33.33 35.64 1.66-4.37 2-8.73 2.62-13.1-7.27-3.24-23-17.45-21.48-33.02 7.5-19.8 31.5-37.04 53.7-36.7v-11.54"/><path fill="#FFF" d="M-203.05 590.53c4.48-3.9 9.3-6.68 14.9-7.18l.55 29.04c12.05-2.9 25.38-3.2 37.43-2.4l-1 9.4c-12.33.24-25.96.24-38.52 4.4-1.9 18.9-3.5 36.96-9.1 55.04 9.2 3.05 13.8 7.07 16 11.55l-4.2 7.87c-5.84-8.1-11.6-12.37-22.52-10.48l-5.26-4.7c11.5-22.15 10.24-65.06 11.8-92.68m21.18 118.3c1.2-.37 4.7 6.3 10.73 8 .3.28 4.2-.15 2.23-.92s-5.66-5.74-7.9-11.65c.04 0-6.25 5-5.1 4.6"/></svg>