<svg xmlns="http://www.w3.org/2000/svg" viewBox="-398 583.2 211.4 211.4"><path fill="#416F37" d="M-292.3 583.2c58.2 0 105.7 47.5 105.7 105.7s-47.5 105.7-105.7 105.7S-398 747.1-398 688.9s47.5-105.7 105.7-105.7z"/><path fill="#FFF" d="M-292.3 587.7c55.7 0 101.2 45.5 101.2 101.2s-45.4 101.2-101.2 101.2c-55.7 0-101.2-45.5-101.2-101.2 0-55.8 45.5-101.2 101.2-101.2z"/><path fill="#416F37" stroke="#416F37" stroke-width=".49" d="M-292.3 622.5c25.4 0 47.5 14.4 58.7 35.5h-21.5c-8.9-10.7-22.2-17.5-37.2-17.5-26.6 0-48.4 21.7-48.4 48.4s21.7 48.4 48.4 48.4c20.3 0 37.7-12.6 44.9-30.3h-62.8v-18h84.2c0 36.5-29.8 66.3-66.3 66.3s-66.3-29.8-66.3-66.3c0-36.7 29.8-66.5 66.3-66.5zM-329 760.3l-2.7-1.4c.3-.6.4-1 .3-1.5-.1-.4-.4-.8-.8-1-.5-.4-1.2-.4-1.9-.2s-1.6 1.1-2.7 2.6c1.1-.3 2.2-.2 3.1.4 1.1.7 1.7 1.7 2 3 .2 1.3-.1 2.6-.9 3.9-.9 1.4-2 2.2-3.4 2.5-1.4.3-2.7.1-3.9-.8-1.4-.9-2.1-2.1-2.3-3.8-.2-1.6.5-3.7 2.1-6.1 1.6-2.5 3.2-4 4.8-4.5s3.2-.3 4.6.7c1 .7 1.7 1.5 2 2.5.4 1.3.3 2.4-.3 3.7zm-9.5 1.8c-.5.8-.8 1.6-.7 2.3.1.7.4 1.2.9 1.5.5.3 1 .4 1.6.2.6-.2 1.1-.7 1.7-1.5.6-.9.8-1.6.7-2.3-.1-.6-.4-1.1-.9-1.5-.5-.3-1-.4-1.6-.2-.6.2-1.2.7-1.7 1.5zm9.8 6.7l1.3-2.8 5.5 2.6-1.3 2.8-5.5-2.6zm13.9 9.3l.9-3.1-6.3-1.8.7-2.6 9.5-7.9 2.5.7-2.8 9.8 1.9.6-.7 2.6-1.9-.6-.9 3.1-2.9-.8zm1.6-5.7l1.5-5.3-5.1 4.3 3.6 1zm8.8 3.3l.4-3.1 6 .8-.4 3.1-6-.8zm17.5 5.1l-3.1.1-.4-11.6c-1.1 1.1-2.4 1.9-3.9 2.5l-.1-2.8c.8-.3 1.7-.8 2.6-1.6.9-.8 1.5-1.6 1.9-2.6l2.5-.1.5 16.1zm7.2-4.4l2.9-.9c.2.6.5 1 .8 1.2.4.2.8.3 1.3.2.6-.1 1.1-.5 1.4-1.2s.4-1.9.1-3.7c-.6 1-1.5 1.7-2.6 1.9-1.2.2-2.4 0-3.5-.8s-1.8-1.9-2.1-3.5c-.3-1.6-.1-3 .7-4.2.8-1.2 1.9-1.9 3.4-2.2 1.6-.3 3 .1 4.3 1.1 1.3 1 2.2 3 2.7 5.8.6 2.9.4 5.1-.4 6.6s-2.1 2.4-3.8 2.7c-1.2.2-2.3.1-3.2-.4-.9-.5-1.5-1.4-2-2.6zm5.6-8c-.2-1-.6-1.7-1.1-2.1-.6-.5-1.1-.6-1.7-.5s-1 .4-1.3.9c-.3.5-.3 1.3-.1 2.3.2 1 .5 1.7 1 2.1s1 .5 1.6.4c.6-.1 1-.4 1.3-1 .4-.5.4-1.2.3-2.1zm16.1 5.8l-1.2-3-6.1 2.5-1-2.5 2.6-12.1 2.4-1 3.8 9.5 1.9-.7 1 2.5-1.9.7 1.2 3-2.7 1.1zm-2.2-5.5l-2.1-5.1-1.4 6.5 3.5-1.4zm8.7-2l2.4-1.8c.5.6 1 1 1.6 1.1.6.1 1.1 0 1.6-.3s.9-.8 1-1.4c.1-.6 0-1.3-.4-2s-.9-1.1-1.5-1.3-1.1-.1-1.7.2c-.3.2-.7.5-1.1.9l-1-2.3c.7-.4 1.2-.9 1.4-1.5.2-.6.1-1.1-.2-1.7-.3-.5-.6-.8-1.1-.9-.4-.1-.9 0-1.4.2-.5.3-.7.7-.9 1.2-.1.5-.1 1.1.2 1.7l-2.7 1.1c-.3-.9-.5-1.8-.4-2.5 0-.7.3-1.4.7-2 .4-.7 1-1.2 1.8-1.7 1.3-.8 2.6-1 3.9-.6 1.1.3 1.8.9 2.4 1.7.7 1.2.6 2.6-.2 4.1.9-.3 1.8-.3 2.6 0s1.5.9 2 1.7c.7 1.2.9 2.5.5 3.9s-1.2 2.5-2.5 3.3c-1.2.8-2.5 1-3.8.8-1.4-.2-2.4-.9-3.2-1.9zm-116.2-47.1l-2.5 1-2.5-6.5 6-2.3c.9.4 1.8 1.1 2.7 2.1s1.6 2.2 2.1 3.4c.6 1.6.8 3.1.6 4.5-.2 1.4-.8 2.7-1.8 3.7-1 1.1-2.2 1.9-3.7 2.4-1.6.6-3.1.8-4.6.6-1.5-.2-2.8-.8-3.9-1.8-.9-.8-1.6-1.9-2.1-3.3-.7-1.9-.9-3.5-.5-4.8.4-1.3 1.2-2.4 2.5-3.3l1.7 2.8c-.7.5-1.1 1.1-1.3 1.9s-.1 1.6.2 2.4c.5 1.3 1.3 2.2 2.5 2.7 1.1.5 2.5.4 4.2-.3 1.8-.7 3-1.6 3.6-2.7.6-1.1.6-2.3.1-3.6-.2-.6-.6-1.2-1.1-1.8-.5-.5-1-1-1.5-1.3l-1.9.7 1.2 3.5zm-6.2-12.5c-1.6.2-3 .1-4.2-.2-.9-.3-1.6-.7-2.4-1.2-.7-.5-1.3-1.2-1.7-1.9-.5-.9-.9-2.1-1.1-3.4-.3-2.4.2-4.3 1.5-5.9s3.2-2.5 5.8-2.9c2.6-.3 4.7.1 6.3 1.4 1.6 1.2 2.6 3 2.9 5.4.3 2.4-.2 4.4-1.5 5.9-1.2 1.5-3.1 2.5-5.6 2.8zm-.6-3.3c1.8-.2 3.1-.8 4-1.8.8-1 1.2-2.1 1-3.4s-.8-2.3-1.8-3-2.5-1-4.3-.7c-1.8.2-3.1.8-4 1.7-.8.9-1.1 2-1 3.4.2 1.3.8 2.3 1.8 3 1.1.8 2.5 1 4.3.8zm6.8-18.3l-16-1.4.3-3.2 16 1.4-.3 3.2zm4.2-23.2l-.8 3.4-3.9.5-1.4 6.3 3.3 2.1-.8 3.4-14.3-9.7.8-3.4 17.1-2.6zm-7.6 4.4l-6.3.8 5.3 3.5 1-4.3zm4.7-10l1.2-2.9c1 .3 1.9.4 2.6.1.7-.3 1.3-.9 1.8-1.7.5-.9.7-1.7.5-2.4-.1-.7-.5-1.2-1-1.4-.3-.2-.7-.2-1-.2-.3.1-.7.3-1.2.7-.3.3-.9.9-1.8 2-1.2 1.3-2.2 2.2-3.1 2.5-1.2.5-2.4.4-3.6-.2-.7-.4-1.3-.9-1.7-1.7-.4-.7-.6-1.6-.5-2.5.1-.9.4-2 1-3.1.9-1.8 2.1-2.9 3.3-3.4 1.3-.5 2.6-.4 3.9.2l-1.4 2.9c-.8-.3-1.5-.3-2 0-.5.2-1 .8-1.4 1.6s-.6 1.6-.5 2.2c.1.4.3.7.6.9.3.2.7.2 1.1 0 .5-.2 1.3-.9 2.4-2.1s2-2.1 2.7-2.6c.7-.5 1.5-.7 2.3-.8.8-.1 1.7.2 2.6.6.8.4 1.5 1.1 1.9 1.9.5.8.7 1.8.6 2.8-.1 1-.5 2.1-1.1 3.4-1 1.8-2.1 3-3.4 3.5-1.6.4-3.2.3-4.8-.3zm18.3-18.9l-11-11.8 8.7-8.1 1.9 2-6.4 5.9 2.4 2.6 5.9-5.5 1.9 2-5.9 5.5 3 3.2 6.6-6.1 1.8 2-8.9 8.3zm10.2-15.7l2.6-1.8c.7.8 1.4 1.3 2.1 1.5.8.2 1.6 0 2.4-.5.9-.5 1.5-1.1 1.7-1.7.2-.6.2-1.2-.1-1.7-.2-.3-.4-.6-.8-.7-.3-.1-.8-.1-1.4 0l-2.6.6c-1.7.5-3.1.6-4 .4-1.3-.3-2.2-1-2.9-2.1-.4-.7-.6-1.5-.5-2.4.1-.9.4-1.6 1-2.4s1.4-1.4 2.5-2c1.8-1 3.3-1.3 4.6-1.1 1.3.3 2.4 1.1 3.1 2.3l-2.8 1.7c-.5-.7-1.1-1-1.6-1.1-.6-.1-1.3.1-2.1.5-.8.5-1.4 1-1.7 1.6-.2.4-.2.8 0 1.1s.5.5.9.6c.5.1 1.6-.1 3.1-.5 1.6-.4 2.8-.7 3.6-.7.9 0 1.6.2 2.4.6.7.4 1.3 1 1.8 1.9.4.8.6 1.7.6 2.6-.1 1-.4 1.8-1 2.6s-1.6 1.5-2.8 2.2c-1.8 1-3.4 1.3-4.8 1-1-.2-2.3-1.1-3.3-2.5zm18.8-4.1l-4.4-15.5 5-1.4c1.9-.5 3.2-.8 3.8-.8 1 0 1.8.3 2.7.9.8.6 1.4 1.5 1.8 2.8.3 1 .3 1.8.2 2.5-.2.7-.4 1.4-.9 1.9-.4.5-.9.9-1.4 1.2-.7.4-1.8.7-3.2 1.2l-2 .6 1.7 5.8-3.3.8zm-.6-13.7l1.3 4.4 1.7-.5c1.2-.4 2-.7 2.4-1 .4-.3.6-.6.8-1 .1-.4.1-.8 0-1.3-.2-.6-.5-1-.9-1.3s-.9-.4-1.5-.3c-.4 0-1.2.2-2.3.5l-1.5.5zm17.1 1.5c0-1.6.2-3 .7-4.1.4-.8.8-1.6 1.5-2.2.6-.7 1.3-1.2 2.1-1.5 1-.4 2.1-.7 3.5-.7 2.4 0 4.3.7 5.7 2.1 1.4 1.4 2.2 3.5 2.2 6.1s-.6 4.6-2 6.1-3.3 2.3-5.6 2.3c-2.4 0-4.3-.7-5.7-2.1-1.6-1.4-2.3-3.4-2.4-6zm3.4-.2c0 1.8.5 3.2 1.3 4.1.9.9 1.9 1.4 3.2 1.4 1.3 0 2.4-.5 3.2-1.5.8-.9 1.2-2.4 1.2-4.2 0-1.8-.5-3.2-1.3-4.1s-1.9-1.3-3.2-1.3c-1.3 0-2.4.5-3.2 1.4-.9 1-1.3 2.4-1.2 4.2zm17.6 8.5l3.3-15.7 6.7 1.4c1.7.4 2.9.8 3.6 1.2s1.2 1.1 1.5 1.9c.3.8.4 1.7.2 2.6-.3 1.2-.8 2.1-1.7 2.7s-2 .9-3.4.8c.6.5 1.1 1.1 1.4 1.7s.8 1.6 1.3 2.9l1.3 3.5-3.8-.8-1.6-3.9c-.6-1.4-1-2.3-1.2-2.7-.2-.4-.5-.7-.8-.9-.3-.2-.8-.4-1.6-.5l-.6-.1-1.4 6.6-3.2-.7zm5.1-8.4l2.4.5c1.5.3 2.5.5 2.9.4.4 0 .8-.2 1-.5.3-.3.5-.6.6-1.1s.1-1-.1-1.4c-.2-.4-.6-.7-1.1-.9-.2-.1-1-.3-2.3-.5l-2.5-.5-.9 4zm16.2 14.9l6.1-11.9-4.3-2.2 1.2-2.4 11.4 5.8-1.2 2.4-4.2-2.2-6.1 11.9-2.9-1.4zm11.2 6.3l9.9-12.7 9.4 7.4-1.7 2.1-6.8-5.3-2.2 2.8 6.4 5-1.7 2.1-6.4-5-2.7 3.5 7.1 5.5-1.7 2.1-9.6-7.5zm28.1 22.4l.9 3.2c-1.7.6-3.3.6-4.6.1s-2.5-1.4-3.4-2.9c-1.2-1.8-1.5-3.7-1-5.6s1.8-3.6 3.9-5c2.2-1.5 4.4-2 6.4-1.7 2 .4 3.6 1.5 4.8 3.4 1.1 1.6 1.5 3.3 1.1 5-.2 1-.7 2-1.6 3l-2.4-2.3c.6-.6.9-1.3 1-2.1.1-.8-.1-1.5-.6-2.2-.6-1-1.5-1.6-2.7-1.7-1.1-.2-2.5.3-4.1 1.3-1.7 1.1-2.7 2.2-3 3.3s-.2 2.1.5 3.1c.5.7 1.1 1.2 1.9 1.4.8.2 1.7.2 2.9-.3zm-1.2 11.1l15.1-5.2 1.1 3.1-12.5 4.3 2.6 7.6-2.6.9-3.7-10.7zm20.5 14.3l.3 3.2-8.7.8c-1.4.1-2.3.2-2.7.4-.6.2-1.1.6-1.5 1.1-.4.6-.5 1.3-.4 2.2.1.9.3 1.6.7 2s.9.7 1.5.7 1.5 0 2.7-.1l8.9-.8.3 3.2-8.4.7c-1.9.2-3.3.2-4.1.1-.8-.1-1.5-.4-2.1-.8-.6-.4-1.1-1-1.5-1.8-.4-.8-.6-1.8-.8-3-.1-1.5-.1-2.7.2-3.5s.7-1.5 1.2-2 1.1-.9 1.7-1.1c.9-.3 2.2-.5 4-.7l8.7-.6zm.7 22.8l-1 6.4c-.2 1.3-.4 2.2-.6 2.8-.2.6-.5 1.1-.9 1.6-.4.4-.9.8-1.5 1s-1.2.3-1.9.2c-.7-.1-1.4-.4-2-.9-.6-.5-.9-1.1-1.1-1.9-.4.9-1 1.6-1.8 2s-1.6.5-2.5.4c-.7-.1-1.4-.4-2-.8-.6-.4-1.1-1-1.4-1.6s-.5-1.4-.4-2.3c0-.5.2-1.8.5-3.9l.9-5.4 15.7 2.4zm-3.2 2.8l-3.7-.6-.3 2.1c-.2 1.3-.3 2-.3 2.3 0 .6.1 1 .4 1.4.3.4.7.6 1.2.7s.9 0 1.3-.2c.3-.2.6-.6.8-1.1.1-.3.2-1.2.5-2.7l.1-1.9zm-6.3-1l-4.3-.7-.5 3c-.2 1.2-.3 1.9-.3 2.2 0 .5.2.9.5 1.3s.7.6 1.3.7c.5.1.9 0 1.3-.2s.7-.5.9-.9c.2-.4.4-1.4.7-2.8l.4-2.6zm-10.2 14.2l14.7 6.5-4.9 10.9-2.5-1.1 3.5-7.9-3.3-1.5-3.3 7.4-2.5-1.1 3.3-7.4-4-1.8-3.7 8.2-2.5-1.1 5.2-11.1zm-9.8 25.8c-3.4 0-6.1 2.7-6.1 6.1s2.7 6.1 6.1 6.1 6.1-2.7 6.1-6.1c0-3.3-2.7-6.1-6.1-6.1zm-123.6 0c3.4 0 6.1 2.7 6.1 6.1s-2.7 6.1-6.1 6.1-6.1-2.7-6.1-6.1c0-3.3 2.8-6.1 6.1-6.1zm-29.2-71.8l.8-2.9c-1.3-.6-1.5-2.2-1.5-3.2l-1.9.7c-.4 3.2 1.2 4.4 2.6 5.4z"/></svg>