<svg id="Layer_1" xmlns="http://www.w3.org/2000/svg" viewBox="-199 290 213 213"><style>.st0{fill:#FFFFFF;} .st1{fill:#2566AF;} .st2{stroke:#000000;stroke-width:0.4786;stroke-miterlimit:1;}</style><path d="M-92.5 290C-33.9 290 14 337.8 14 396.5S-33.8 503-92.5 503-199 455.2-199 396.5-151.2 290-92.5 290z"/><path class="st0" d="M-92.5 293.6c56.7 0 102.9 46.2 102.9 102.9S-35.8 499.4-92.5 499.4s-102.9-46.2-102.9-102.9 46.2-102.9 102.9-102.9z"/><path d="M-14.4 341.2c11.1 15.6 17.6 34.7 17.6 55.3 0 20.6-6.5 39.6-17.6 55.3-17.8-17.6-46.2-29.1-78.1-29.1s-60.3 11.4-78.1 29.1c-11.1-15.6-17.6-34.7-17.6-55.3 0-20.6 6.5-39.6 17.6-55.3 17.8 17.6 46.2 29.1 78.1 29.1s60.3-11.4 78.1-29.1z"/><path class="st1" d="M-92.5 492.2c9.4 0 18.5-1.4 27.1-3.9-5.1-5.5-15.3-9.3-27.1-9.3s-22 3.8-27.1 9.3c8.6 2.6 17.7 3.9 27.1 3.9zm33-5.9c16.4-6 30.7-16.5 41.4-29.8-9.2-9.4-21.8-16.9-36.3-21.8-4.2 18-11.1 32.7-19.8 41.5 6.4 2.4 11.6 5.9 14.7 10.1zm-71.2-51.6c-14.6 4.9-27.1 12.4-36.3 21.8 10.8 13.4 25.1 23.8 41.5 29.8 3.2-4.2 8.3-7.8 14.6-10.1-8.6-8.7-15.6-23.4-19.8-41.5zm38.2-133.9c9.4 0 18.5 1.4 27.1 3.9-5.1 5.5-15.3 9.3-27.1 9.3s-22-3.8-27.1-9.3c8.6-2.5 17.7-3.9 27.1-3.9zm33 5.9c16.4 6.1 30.7 16.5 41.4 29.8-9.2 9.4-21.8 16.9-36.3 21.8-4.2-18-11.1-32.7-19.8-41.5 6.4-2.4 11.6-5.9 14.7-10.1zm-71.2 51.6c-14.6-4.9-27.1-12.4-36.3-21.8 10.8-13.4 25.1-23.8 41.5-29.8 3.2 4.2 8.3 7.8 14.6 10.1-8.6 8.8-15.6 23.4-19.8 41.5z"/><path class="st2" d="M-115.6 436.7h9.4v1.9h-7.1v4.5h5.3v1.9h-5.3v7.1h-2.2l-.1-15.4zm13.9 8.2v5.3h2.8c1.2 0 2.1-.2 2.7-.6.6-.4.9-1.1.9-2 0-.9-.3-1.5-.9-2-.6-.5-1.5-.7-2.6-.7h-2.9zm0-6.4v4.6h2.9c1 0 1.8-.2 2.3-.6.5-.4.8-1 .8-1.8s-.3-1.3-.8-1.7c-.6-.4-1.4-.5-2.6-.5h-2.6zm-2.2-1.8h4.8c1.9 0 3.3.3 4.2 1 .9.7 1.4 1.6 1.4 2.9 0 .8-.2 1.5-.6 2.1-.4.6-1 1-1.8 1.3.9.3 1.6.8 2.1 1.5s.7 1.4.7 2.4c0 1.4-.5 2.5-1.5 3.2-1 .7-2.4 1.1-4.3 1.1h-5v-15.5zm16 1.8v5.1h2.4c1.2 0 2.1-.2 2.6-.6.5-.4.8-1.1.8-2 0-.9-.3-1.5-.8-1.9-.5-.4-1.4-.6-2.7-.6h-2.3zm-2.2-1.8h4.9c1.8 0 3.2.4 4.1 1.1.9.7 1.3 1.8 1.3 3.3 0 1.4-.4 2.5-1.3 3.3-.9.8-2.1 1.1-3.7 1.1h-3.1v6.6h-2.2v-15.4zm16.2 1.8L-76 446h4.4l-2.1-7.5h-.2zm-1.4-1.8h3l4.7 15.4h-2.3l-1.2-4.2h-5.6l-1.2 4.2H-80l4.7-15.4zm-36.2-96.1h1.5v14.1h2.5v1.7h-7.1v-1.7h2.5v-11.8l-2.8.2v-1.4c.6-.1 1.1-.3 1.7-.5.6-.1 1.1-.3 1.7-.6zm8.5 15l.9-1.7c.4.3.9.5 1.3.6.2.1.5.1.7.2.2 0 .5.1.7.1 1.2 0 2.2-.5 3-1.5.4-.5.7-1.1.9-1.8.2-.7.3-1.5.3-2.3-.6.5-1.1 1-1.8 1.2-.6.3-1.3.4-2 .4-1.4 0-2.5-.5-3.4-1.4-.9-.9-1.4-2.1-1.4-3.6s.5-2.8 1.4-3.7c1-.9 2.2-1.4 3.8-1.4 1.8 0 3.1.6 4.1 1.9.9 1.2 1.4 3 1.4 5.4 0 2.7-.6 4.9-1.7 6.4-1.2 1.6-2.7 2.4-4.7 2.4-.7 0-1.4-.1-2-.3-.5-.3-1-.5-1.5-.9zm7.9-9.1c0-.6-.1-1.2-.2-1.7-.2-.5-.4-.9-.7-1.3-.6-.7-1.4-1.1-2.4-1.1-.9 0-1.6.3-2.2.9-.6.6-.9 1.4-.9 2.4s.3 1.8.8 2.4c.6.6 1.3.9 2.2.9.7 0 1.4-.2 2-.7.6-.4 1.1-1 1.4-1.8zm9.9-4.1c-1.1 0-1.9.5-2.5 1.6-.6 1.1-.9 2.6-.9 4.6 0 2 .3 3.6.9 4.6.6 1 1.4 1.6 2.5 1.6s1.9-.5 2.5-1.6c.6-1 .8-2.6.8-4.6 0-2.1-.3-3.6-.8-4.6-.5-1.1-1.4-1.6-2.5-1.6zm0-1.8c1.8 0 3.2.7 4.1 2 .9 1.4 1.4 3.4 1.4 6s-.5 4.6-1.4 6c-.9 1.4-2.3 2.1-4.1 2.1-1.8 0-3.2-.7-4.1-2.1-.9-1.4-1.4-3.4-1.4-6s.5-4.6 1.4-6c1-1.3 2.3-2 4.1-2zm15.1 7.4c.9.3 1.6.8 2.1 1.5.2.3.4.7.5 1.1.1.4.2.9.2 1.4 0 1.4-.5 2.5-1.4 3.4-.9.8-2.2 1.3-3.8 1.3-1.2 0-2.3-.3-3.3-.8-.9-.5-1.7-1.3-2.3-2.3l1.7-1.1c.5.8 1 1.4 1.6 1.8.6.4 1.3.6 2.1.6 1 0 1.7-.3 2.3-.8.6-.5.8-1.2.8-2.1 0-1-.4-1.7-1.1-2.2-.7-.5-1.9-.7-3.5-.7h-.7v-1.9h.7c1.4 0 2.4-.2 3-.7.7-.4 1-1.1 1-2 0-.7-.2-1.2-.7-1.6-.5-.4-1.1-.6-2-.6-.6 0-1.2.2-1.7.5s-1 .8-1.5 1.4l-1.5-1.2c.6-.8 1.3-1.4 2.1-1.8.8-.4 1.8-.6 2.8-.6 1.4 0 2.5.4 3.4 1.1.8.7 1.2 1.7 1.2 2.9 0 .8-.2 1.5-.6 2.1-.1.5-.7 1-1.4 1.3z"/><path class="st0" d="M-30.4 401.3c0 3.9.9 6.9 2.7 8.9 1.8 2 4.1 3 6.9 3s5.1-1 6.9-3c1.8-2 2.7-5 2.7-9s-.9-6.9-2.6-8.9c-1.7-1.9-4-2.9-6.9-2.9-2.9 0-5.2 1-7 3-1.9 2-2.7 4.9-2.7 8.9zm-7.2.2c0-3.5.5-6.5 1.6-8.9.8-1.8 1.9-3.3 3.2-4.7 1.4-1.4 2.8-2.4 4.5-3.1 2.2-.9 4.6-1.4 7.4-1.4 5.1 0 9.2 1.6 12.2 4.7 3.1 3.2 4.6 7.5 4.6 13.2 0 5.6-1.5 9.9-4.6 13.1-3 3.2-7.1 4.7-12.2 4.7s-9.2-1.6-12.3-4.7c-2.9-3-4.4-7.4-4.4-12.9zm-9.3 17.1V384h7v34.6h-7zm-37.1 0V384h10.4l6.3 23.6 6.2-23.6h10.5v34.6h-6.5v-27.2l-6.9 27.2h-6.7l-6.8-27.2v27.2H-84zm-29.2 0V384h25.6v5.8h-18.6v7.7h17.3v5.8h-17.3v9.4h19.3v5.8h-26.3v.1zm-24.9-19.9h5.2c3.3 0 5.4-.1 6.3-.4.8-.3 1.5-.8 2-1.5s.7-1.6.7-2.6c0-1.2-.3-2.1-.9-2.8-.6-.7-1.5-1.2-2.6-1.4-.6-.1-2.3-.1-5.1-.1h-5.5l-.1 8.8zm-7 19.9V384h14.7c3.7 0 6.4.3 8.1.9 1.7.6 3 1.7 4 3.3 1 1.6 1.5 3.4 1.5 5.4 0 2.6-.8 4.7-2.3 6.4-1.5 1.7-3.8 2.8-6.8 3.2 1.5.9 2.8 1.8 3.7 2.9 1 1.1 2.3 2.9 4 5.6l4.2 6.7h-8.3l-5-7.5c-1.8-2.7-3-4.4-3.7-5.1-.7-.7-1.4-1.2-2.1-1.4-.7-.3-1.9-.4-3.5-.4h-1.4v14.4l-7.1.2zm-18.5-12.7v-5.8h15v13.8c-1.5 1.4-3.6 2.7-6.3 3.7-2.8 1.1-5.6 1.6-8.4 1.6-3.6 0-6.8-.8-9.5-2.3-2.7-1.5-4.7-3.7-6.1-6.5-1.4-2.8-2-5.9-2-9.2 0-3.6.8-6.8 2.3-9.6 1.5-2.8 3.7-4.9 6.6-6.4 2.2-1.1 5-1.7 8.3-1.7 4.3 0 7.6.9 10.1 2.7 2.4 1.8 4 4.3 4.7 7.5l-6.9 1.3c-.5-1.7-1.4-3-2.7-4-1.3-1-3-1.5-5-1.5-3.1 0-5.5 1-7.3 2.9-1.8 1.9-2.7 4.8-2.7 8.6 0 4.1.9 7.2 2.7 9.2 1.8 2 4.2 3.1 7.2 3.1 1.5 0 2.9-.3 4.4-.9 1.5-.6 2.7-1.3 3.8-2.1v-4.4h-8.2zm55.5-25.6h5.6l2.5-3.3 2.5 3.3h5.6l-4.6-6.5h-6.9l-4.7 6.5z"/></svg>