<svg id="svg2" xmlns="http://www.w3.org/2000/svg" viewBox="408.1 -122.1 996 996"><style>.st0{fill:#FFFFFF;stroke:#E5050F;stroke-width:12;} .st1{fill:#E5050F;} .st2{fill:#FFFFFF;} .st3{font-family:&apos;Arial-Black&apos;;} .st4{font-size:75.0134px;}</style><g id="layer1"><g id="g3460"><g id="g3313"><path id="path3294" class="st0" d="M1398.2 375.9c0 271.7-220.3 492-492 492s-492-220.3-492-492 220.3-492 492-492 492 220.3 492 492z"/><g id="g3296"><path id="path3278" class="st0" d="M1301.08 375.3c0 216.7-175.7 392.4-392.4 392.4S516.28 592 516.28 375.3s175.7-392.4 392.4-392.4 392.4 175.7 392.4 392.4z"/><path id="path2416" class="st1" d="M1284.98 375.1c0 208-168.6 376.6-376.6 376.7-208 0-376.6-168.6-376.7-376.6v-.1c0-208 168.6-376.6 376.6-376.7 208 0 376.7 168.6 376.7 376.6v.1z"/><g id="g3246"><path id="path3188" class="st2" d="M1060.55 279.4c2.2-17.3 9.5-33 18.1-48.2l24.9 11.2 22.5-30.5 22.5 6.8c.3 40.1-.8 81.5 14.1 109.2l-11.2 14.1c-25.6-24-52.8-47-90.9-62.6z"/><path id="path3190" class="st2" d="M1018.65 321c-49.8-.2-13.7-58.5-6.4-80.7 6.5-20-3.4-60.3-41.5-74.6v-51.2c75.1 21.8 83.5 71.8 126.7 48.8v25.3c-67.4 69.2-37.9 132-78.8 132.4z"/><path id="path3192" class="st2" d="M818.15 209.5c73.8-18.7 129.2-12.8 181.1-2.3 7.5 21.8 1 36.6-6 51.2-50.8-8.3-105.1-10.4-170.5 6.9-11-16.8-11.9-35.5-4.6-55.8z"/><path id="path3194" class="st2" d="M861.95 165.6c-88.5 15-68.6 119.9 0 148.2v91.5c-194.5-56.1-159.3-267.6 0-289v49.3z"/><path id="path3196" class="st2" d="M957.65 494.3c-26.3 3.6-53.7 2.9-81.7 0V265.6c27.2-2.8 54.5-3.7 81.7 0v228.7z"/><path id="path3202" class="st2" d="M589.35 380.2c47.4-22.9 57.8-73.2 126.8-123.8 2 23.5 4.7 46.4 14.6 63.4-29.2 42.2-27.3 82.4 16.5 131.1-10.2 23.3-22.6 40.1-36 53.7-61.5-36.6-75.7-84.2-121.9-124.4z"/><path id="path3204" class="st2" d="M809.55 549.1c17.5-19.4 22.4-33.7 29.9-49 46.6 9.8 100.8 13.8 182.2-2.8 8.5 17 5.3 33 2.4 49-48.2 17.3-138.1 21.4-214.5 2.8z"/><path id="path3206" class="st2" d="M675.15 541.5l6 25.9 35.9 2.4c41.4 29.3 85.6 56.8 145.9 74.6v-50.6c-32.7-5.6-53.7-22-69.4-43.5 46.4-50 55.9-112.7 26.5-125.5-39.1-17-56.6 23-78.9 59.1-14.5 23.6-35.5 47-66 57.6z"/><path id="path3208" class="st2" d="M957.85 113.2c.2-38.7 29.9-34 43.9-20.1-2-48.6-41.4-54.3-60.3-36.8-5.6-9.2-12.8-16.2-24.4-21.9-10.3 4.9-18.6 12.1-24.9 21.4-17.8-16.3-58.5-12.3-60.3 36.6 15-13 43.3-17.5 43.3 21l.2 74.1c26.5-2 54-2.2 82.5-.2v-74.1z"/><path id="path3216" class="st2" d="M957.95 646.2c.2 38.7 29.9 34 43.9 20.1-2 48.6-41.4 54.3-60.3 36.8-5.6 9.2-12.8 16.2-24.4 21.9-10.3-4.9-18.6-12.1-24.9-21.4-17.8 16.3-58.5 12.3-60.3-36.6 15 13 43.3 17.5 43.3-21l.2-74.1c26.5 2 54 2.2 82.5.2v74.1z"/><path id="path3218" class="st2" d="M969.95 350.6v87.6c100.2 33.3 84.3 158.1 1.3 155.1v50.4c107.4-10.6 149-77.3 149.6-142.2.8-74.3-58-127-150.9-150.9z"/><path id="path3222" class="st2" d="M1131.95 498.4c.1-11.4 1.1-21.6-6.4-44l23.1-15.4 26.1 21.4c-10.3 15.4-25.8 27.2-42.8 38z"/></g></g></g><text transform="rotate(-82.7 463 -84.68)" class="st1 st3 st4">S</text><text transform="rotate(-84.75 426.4 -108.58)" class="st1 st3 st4">.</text><text transform="rotate(-73.4 433.2 -206.3)" class="st1 st3 st4">C</text><text transform="rotate(-68.67 417.08 -281.4)" class="st1 st3 st4">.</text><text transform="rotate(-55.92 426.5 -437.26)" class="st1 st3 st4">I</text><text transform="rotate(-47.18 418.92 -615.12)" class="st1 st3 st4">N</text><text transform="rotate(-32.64 401.07 -1096.1)" class="st1 st3 st4">T</text><text transform="rotate(-22.82 367.44 -1802.04)" class="st1 st3 st4">E</text><text transform="rotate(-10.73 249.78 -4301.7)" class="st1 st3 st4">R</text><text transform="translate(897.32 -39.86)" class="st1 st3 st4">N</text><text transform="rotate(14.22 627.9 3978)" class="st1 st3 st4">A</text><text transform="rotate(32.97 550.26 1825.73)" class="st1 st3 st4">C</text><text transform="rotate(38.1 517.6 1700.58)" class="st1 st3 st4">I</text><text transform="rotate(46.65 506.7 1437.25)" class="st1 st3 st4">O</text><text transform="rotate(61.48 498.2 1142.44)" class="st1 st3 st4">N</text><text transform="rotate(76.2 494.54 958.3)" class="st1 st3 st4">A</text><text transform="rotate(87.45 486.4 860.64)" class="st1 st3 st4">L</text><text transform="rotate(14.58 -2834.75 3354.48)" class="st1 st3 st4">1</text><text transform="rotate(8 -5598.8 6413.55)" class="st1 st3 st4">9</text><text transform="rotate(-7.74 6750.08 -6454.24)" class="st1 st3 st4">0</text><text transform="rotate(-10.33 5113.34 -5190.12)" class="st1 st3 st4">9</text></g></g></svg>