<svg xmlns="http://www.w3.org/2000/svg" viewBox="600.2 -224.1 996 996"><path fill="#FFF" stroke="#E5050F" stroke-width="12" d="M1590.2 273.9c0 271.7-220.3 492-492 492s-492-220.3-492-492 220.3-492 492-492 492 220.3 492 492z"/><path fill="#FFF" stroke="#E5050F" stroke-width="12" d="M1493.08 273.3c0 216.7-175.7 392.4-392.4 392.4S708.28 490 708.28 273.3s175.7-392.4 392.4-392.4 392.4 175.7 392.4 392.4z"/><path fill="#E5050F" d="M1476.98 273.1c0 208-168.6 376.6-376.6 376.7-208 0-376.6-168.6-376.7-376.6v-.1c0-208 168.6-376.6 376.6-376.7 208 0 376.7 168.6 376.7 376.6v.1z"/><g fill="#FFF"><path d="M1252.55 177.4c2.2-17.3 9.5-33 18.1-48.2l24.9 11.2 22.5-30.5 22.5 6.8c.3 40.1-.8 81.5 14.1 109.2l-11.2 14.1c-25.6-24-52.8-47-90.9-62.6z"/><path d="M1210.65 219c-49.8-.2-13.7-58.5-6.4-80.7 6.5-20-3.4-60.3-41.5-74.6V12.5c75.1 21.8 83.5 71.8 126.7 48.8v25.3c-67.4 69.2-37.9 132-78.8 132.4z"/><path d="M1010.15 107.5c73.8-18.7 129.2-12.8 181.1-2.3 7.5 21.8 1 36.6-6 51.2-50.8-8.3-105.1-10.4-170.5 6.9-11-16.8-11.9-35.5-4.6-55.8z"/><path d="M1053.95 63.6c-88.5 15-68.6 119.9 0 148.2v91.5c-194.5-56.1-159.3-267.6 0-289v49.3zm95.7 328.7c-26.3 3.6-53.7 2.9-81.7 0V163.6c27.2-2.8 54.5-3.7 81.7 0v228.7z"/><path d="M781.35 278.2c47.4-22.9 57.8-73.2 126.8-123.8 2 23.5 4.7 46.4 14.6 63.4-29.2 42.2-27.3 82.4 16.5 131.1-10.2 23.3-22.6 40.1-36 53.7-61.5-36.6-75.7-84.2-121.9-124.4zm220.2 168.9c17.5-19.4 22.4-33.7 29.9-49 46.6 9.8 100.8 13.8 182.2-2.8 8.5 17 5.3 33 2.4 49-48.2 17.3-138.1 21.4-214.5 2.8z"/><path d="M867.15 439.5l6 25.9 35.9 2.4c41.4 29.3 85.6 56.8 145.9 74.6v-50.6c-32.7-5.6-53.7-22-69.4-43.5 46.4-50 55.9-112.7 26.5-125.5-39.1-17-56.6 23-78.9 59.1-14.5 23.6-35.5 47-66 57.6zm282.7-428.3c.2-38.7 29.9-34 43.9-20.1-2-48.6-41.4-54.3-60.3-36.8-5.6-9.2-12.8-16.2-24.4-21.9-10.3 4.9-18.6 12.1-24.9 21.4-17.8-16.3-58.5-12.3-60.3 36.6 15-13 43.3-17.5 43.3 21l.2 74.1c26.5-2 54-2.2 82.5-.2V11.2z"/><path d="M1149.95 544.2c.2 38.7 29.9 34 43.9 20.1-2 48.6-41.4 54.3-60.3 36.8-5.6 9.2-12.8 16.2-24.4 21.9-10.3-4.9-18.6-12.1-24.9-21.4-17.8 16.3-58.5 12.3-60.3-36.6 15 13 43.3 17.5 43.3-21l.2-74.1c26.5 2 54 2.2 82.5.2v74.1z"/><path d="M1161.95 248.6v87.6c100.2 33.3 84.3 158.1 1.3 155.1v50.4c107.4-10.6 149-77.3 149.6-142.2.8-74.3-58-127-150.9-150.9zm162 147.8c.1-11.4 1.1-21.6-6.4-44l23.1-15.4 26.1 21.4c-10.3 15.4-25.8 27.2-42.8 38z"/></g><text transform="rotate(-82.7 501.06 -244.77)" fill="#E5050F" font-family="'Arial-Black'" font-size="75.01">S</text><text transform="rotate(-84.75 466.5 -264.8)" fill="#E5050F" font-family="'Arial-Black'" font-size="75.01">.</text><text transform="rotate(-73.4 460.7 -386.1)" fill="#E5050F" font-family="'Arial-Black'" font-size="75.01">C</text><text transform="rotate(-68.67 438.4 -472.95)" fill="#E5050F" font-family="'Arial-Black'" font-size="75.01">.</text><text transform="rotate(-55.92 426.43 -669.13)" fill="#E5050F" font-family="'Arial-Black'" font-size="75.01">I</text><text transform="rotate(-47.18 398.13 -885.96)" fill="#E5050F" font-family="'Arial-Black'" font-size="75.01">N</text><text transform="rotate(-32.64 322.87 -1475)" fill="#E5050F" font-family="'Arial-Black'" font-size="75.01">T</text><text transform="rotate(-22.82 210.7 -2328.77)" fill="#E5050F" font-family="'Arial-Black'" font-size="75.02">E</text><text transform="rotate(-10.73 -197.16 -5374.84)" fill="#E5050F" font-family="'Arial-Black'" font-size="75.01">R</text><text transform="translate(1089.32 -141.86)" fill="#E5050F" font-family="'Arial-Black'" font-size="75.01">N</text><text transform="rotate(14.22 1132.72 4696.45)" fill="#E5050F" font-family="'Arial-Black'" font-size="75.02">A</text><text transform="rotate(32.97 818.6 2099.14)" fill="#E5050F" font-family="'Arial-Black'" font-size="75.02">C</text><text transform="rotate(38.1 761.3 1927.63)" fill="#E5050F" font-family="'Arial-Black'" font-size="75.01">I</text><text transform="rotate(46.65 720.98 1608.87)" fill="#E5050F" font-family="'Arial-Black'" font-size="75.01">O</text><text transform="rotate(61.48 679.96 1252.86)" fill="#E5050F" font-family="'Arial-Black'" font-size="75.01">N</text><text transform="rotate(76.2 655.6 1029.75)" fill="#E5050F" font-family="'Arial-Black'" font-size="75.01">A</text><text transform="rotate(87.45 635.7 910)" fill="#E5050F" font-family="'Arial-Black'" font-size="75.01">L</text><text transform="rotate(14.58 -2340.02 4054)" fill="#E5050F" font-family="'Arial-Black'" font-size="75.01">1</text><text transform="rotate(8 -4773.27 7736.3)" fill="#E5050F" font-family="'Arial-Black'" font-size="75.01">9</text><text transform="rotate(-7.74 6090.5 -7928.57)" fill="#E5050F" font-family="'Arial-Black'" font-size="75.01">0</text><text transform="rotate(-10.33 4644.83 -6303.9)" fill="#E5050F" font-family="'Arial-Black'" font-size="75.01">9</text></svg>