<svg xmlns="http://www.w3.org/2000/svg" width="1200" height="1200" viewBox="0 0 1200 1200"><path fill="#FFF" stroke="#E5050F" stroke-width="8" d="M1104.2 579.9c0 271.75-220.3 492.04-492.03 492.04S120.14 851.64 120.14 579.9c0-271.73 220.3-492 492.03-492s492.02 220.27 492.02 492z"/><path fill="#FFF" stroke="#E5050F" stroke-width="8" d="M1007.1 579.3c0 216.73-175.7 392.42-392.43 392.42s-392.4-175.7-392.4-392.42c0-216.72 175.68-392.4 392.4-392.4s392.42 175.68 392.42 392.4z"/><path fill="#E5050F" d="M990.97 579.14c.03 208-168.57 376.65-376.57 376.68S237.76 787.25 237.73 579.25v-.1c-.04-208 168.56-376.65 376.56-376.68 208-.03 376.6 168.56 376.6 376.56v.1z"/><g fill="#FFF"><path d="M766.5 483.38c2.24-17.33 9.5-32.98 18.1-48.2l24.9 11.26 22.47-30.53 22.5 6.9c.33 40.18-.76 81.5 14.05 109.27l-11.24 14.05c-25.48-24.07-52.6-47.03-90.77-62.65z"/><path d="M724.65 525c-49.75-.2-13.7-58.47-6.42-80.7 6.53-20-3.35-60.3-41.5-74.6v-51.16c75.12 21.77 83.5 71.84 126.73 48.85v25.3c-67.4 69.1-37.9 131.8-78.8 132.2z"/><path d="M524.2 413.47c73.8-18.67 129.18-12.8 181.1-2.3 7.46 21.78.98 36.58-6 51.15-50.77-8.3-105.07-10.43-170.5 6.9-11.05-16.67-11.98-35.38-4.6-55.75z"/><path d="M567.9 369.6c-88.53 15.06-68.63 119.88 0 148.18v91.46c-194.46-56.12-159.32-267.64 0-289.02v49.4zm95.74 328.67c-26.35 3.57-53.74 2.92-81.7 0V469.6c27.22-2.76 54.46-3.7 81.7 0v228.67z"/><path d="M295.34 584.24c47.37-22.9 57.84-73.18 126.83-123.78 1.98 23.46 4.66 46.36 14.64 63.42-29.2 42.25-27.2 82.35 16.5 131.1-10.2 23.33-22.5 40.05-36 53.66-61.5-36.62-75.7-84.22-121.9-124.4zm220.2 168.88c17.55-19.38 22.43-33.7 29.9-49.04 46.6 9.8 100.83 13.8 182.23-2.8 8.5 17.06 5.26 33.04 2.4 49.05-48.24 17.33-138.1 21.4-214.52 2.8z"/><path d="M381.17 745.55l5.98 25.9 35.9 2.4c41.37 29.3 85.63 56.83 145.93 74.57v-50.64c-32.65-5.56-53.7-22-69.38-43.46 46.44-49.97 55.86-112.7 26.47-125.46-39.1-16.98-56.55 23-78.88 59.1-14.6 23.52-35.6 46.97-66.1 57.6zM663.9 317.2c.18-38.73 29.87-34.04 43.88-20.1-1.96-48.55-41.36-54.33-60.25-36.8-5.6-9.2-12.84-16.22-24.36-21.96-10.33 4.86-18.57 12.06-24.92 21.4-17.84-16.3-58.46-12.27-60.26 36.62 15-12.96 43.3-17.54 43.3 21.02l.2 74.13c26.5-1.9 53.9-2.1 82.4-.2l-.1-74.1z"/><path d="M663.98 850.18c.18 38.72 29.87 34.03 43.9 20.08-1.98 48.56-41.38 54.34-60.27 36.82-5.6 9.2-12.8 16.2-24.3 21.95-10.3-4.86-18.52-12.07-24.9-21.4-17.8 16.3-58.44 12.27-60.24-36.63 15.03 12.97 43.34 17.55 43.34-21l.2-74.14c26.52 1.98 53.94 2.18 82.46.2l-.1 74.12z"/><path d="M675.96 554.58v87.6c100.2 33.33 84.33 158.12 1.28 155.14v50.42c107.4-10.64 149-77.26 149.65-142.18.7-74.4-58.1-127.06-151-150.98zm161.97 147.86c.13-11.43 1.15-21.6-6.4-44l23.06-15.4 26 21.37c-10.2 15.4-25.77 27.2-42.76 38.1z"/></g><text transform="rotate(14.58 -3779.2 2307.24)" fill="#E5050F" font-family="'Arial-Black'" font-size="75.01">1</text><text transform="rotate(8 -7204.94 4411.97)" fill="#E5050F" font-family="'Arial-Black'" font-size="75.01">9</text><text transform="rotate(-7.72 8113.38 -4175.17)" fill="#E5050F" font-family="'Arial-Black'" font-size="75.01">0</text><text transform="rotate(-10.33 6095.4 -3460.7)" fill="#E5050F" font-family="'Arial-Black'" font-size="75.01">9</text><path fill="#E5050F" d="M1045.2 586.5l-.95-26.53 40-1.4-.6-17.34-51.16 1.77 1.5 43.88 11.1-.38zm-2.02-104.35l-4.08-16.24 20.18 3.9-16.1 12.4zm-26.1-20.24l9.96 1.8 6.43 25.6-8.04 5.9 4.63 18.5 43.54-36.7-4.6-18.35-56.1-13.27 4.2 16.6zm-43.3-98l7.7 14.4 30.45-16.1-19.9 35.8 10.55 19.7 45.2-23.83-7.7-14.4-30.33 16 19.4-36.4-10.18-19-45.2 23.87zm-30.5-81.4c8.03-6.9 15.94-6.8 21.63-.3 6.2 7.04 5.1 14.6-3.3 21.84-7.6 6.63-14.7 6.4-20.9-.7-6.1-7-5.24-14 2.66-20.8m-11 26.88c14.24 16.26 28.38 18.84 41.3 7.67 13.16-11.35 13.1-25.7-.46-41.2-13.73-15.68-28.38-18-41.05-7.07-13.1 11.3-13.15 25.37.2 40.6m-60.3-58.2l13.8 10.7 31.5-40.04-13.8-10.7-31.5 40.05zm-29.3-59.9l15.8 8.7c5.07-10.7-.1-20.47-15.6-29-17.9-9.85-32.6-6.56-41.04 8.57-7.65 13.7-2.73 27.3 14.1 36.6 17.05 9.36 28.6 8.86 36.3-2.3l-15.82-8.75c-3.7 4.74-8.64 5.58-14.24 2.5-7.65-4.2-9.25-11.4-4.4-20.1 5.1-9.07 12.3-11.64 20-7.4 4.85 2.67 6.5 6.4 4.9 11.17m-99.54-28.57l-16.3-4.34 13.2-15.63 3.08 19.97zm-30.5 12.85l6.4-7.8 25.66 6.84 1.32 9.83 18.48 4.9-11.2-55.6-18.4-4.9-38.9 42.3 16.64 4.4zm-106.37-10.7l16.4-.2.1-34.24 21.87 34.38 22.44 1.65 2.94-52.04-16.44-.07-2.64 34.1-22.9-34.75-21.7-.15-.1 51.33zm-78.7-32.24l9.6-1.65c4.6-.8 6.87.16 7.53 3.84.6 3.47-1.2 5.37-5.76 6.16l-9.6 1.67-1.8-10zm-9.8 42.9l16.88-2.97-3.5-19.6 10.64-1.84c4.84-.87 6.72-.4 7.88 4.5l1.75 6.84c.58 2.5 1.27 4.73 2.42 6.75l17.5-3.08c-1.8-3.56-2.86-6.3-3.4-8.1l-2.4-8.1c-1.84-6.34-5.52-8-13.6-7 7.9-2.03 11.7-7.36 10.56-13.82-.8-4.43-3.26-7.8-6.63-9.3-4.2-1.83-9.9-.83-18.1.6l-28.9 5.06 8.9 50.07zm-77.66 26.67l43.6-16.6-4-10.36-27.6 10.5-3.57-9.2 24.6-9.4-3.9-10.1-24.64 9.4-2.93-7.55 26.62-10.16-3.95-10.2-42.6 16.23 18.35 47.45zM378.6 237.7l14.82-9.2-21.14-33.6 16.15-10.03-5.95-9.5-47.17 29.26 5.94 9.46L357.4 204l21.17 33.66zM294 314.2l11.4-11.73-24.8-23.78 40.4 7.7 15.62-16.08-36.83-35.3-11.5 11.72L313 270.4l-40.86-7.06-15.07 15.48 36.83 35.3zm-31.88 45.28l9.53-14.56-42.94-27.7-9.5 14.57 43 27.62zm-19 34.26l-10.97-5.07-6.52 13.88 10.96 5.08 6.5-13.87zm-49.3 28.9l5.9-16.97c-11.5-3.1-20.3 3.67-26.07 20.3-6.66 19.2-.84 33 15.63 38.63 14.92 5.1 27.58-2.07 33.85-20.16 6.34-18.3 3.83-29.55-8.6-35.14l-5.9 17.02c5.35 2.8 7.04 7.47 4.96 13.48-2.9 8.2-9.7 11.02-19.2 7.78-9.9-3.38-13.7-9.98-10.8-18.25 1.8-5.2 5.2-7.5 10.2-6.73m11.5 86.47l-12-1.67-2.18 15.17 11.96 1.67 2.15-15.15zm-22.6 58.86l-.6 16.72.8.03c12.1.42 17.2-7.3 17.8-24.74.65-18.32-5-28.12-15.23-28.5-4.54-.13-8.5 1.6-11.13 4.9-3.2 4.16-4.6 9.48-6.24 15.78-2.4 9.17-2.96 13.46-6.6 13.33-2.33-.05-3.66-2.7-3.5-7.65.24-6.2 2.27-9.38 5.75-9.26h.2l.6-15.88h-.6c-10.36-.36-15.4 7.5-16 24.17-.6 17.13 4.57 26.14 14.6 26.5 4.05.13 7.44-1.1 9.95-3.7 4.13-4.24 5.65-10.97 7.96-19.93 1.8-7 2.43-10.58 5.84-10.46 2.7.1 4.37 3.26 4.17 8.76-.23 6.98-2.2 10.3-6.25 10.17-.5 0-1-.1-1.56-.2"/></svg>