<svg xmlns="http://www.w3.org/2000/svg" width="333.72" height="393.49" viewBox="0 0 333.718 393.488"><path fill-rule="evenodd" clip-rule="evenodd" fill="#2C2925" d="M332.58 61.85l-.25-.63-.32-.63-.2-.7-.4-.66-.3-.57-.4-.57-.3-.57-.45-.5-.37-.6-.44-.44-.5-.5-.5-.5-.45-.46-.5-.38-.58-.46-.56-.37-.6-.38-.56-.3-.55-.34-.65-.3-.62-.25-.63-.26-.66-.27-.7-.2-.63-.18-.7-.2-.7-.13-.7-.1-.75-.04-.7-.05-.77-.07H255.5l-1.77-2.77-1.8-2.73-1.9-2.7-1.96-2.6-2.1-2.56-2.12-2.46-2.2-2.4-2.3-2.34-2.4-2.28-2.4-2.2-2.5-2.1-2.6-2.02-2.67-1.94-2.67-1.9-2.77-1.77-2.86-1.7-2.84-1.6-2.96-1.5-2.95-1.46-3.04-1.34-3.1-1.2-3.15-1.13-3.15-1.08-3.3-.97-3.22-.8-3.35-.7-3.36-.6-3.4-.5-3.4-.45-3.47-.25-3.47-.2h-3.53l-3.4.05-3.55.2-3.4.24-3.44.43-3.4.5-3.37.65-3.27.67-3.3.82-3.3.93-3.14 1.08L130 6.7l-3.1 1.2-3.04 1.35-2.96 1.45-2.9 1.5-2.9 1.6-2.88 1.7-2.8 1.75-2.65 1.9-2.7 1.97-2.6 2.04-2.55 2.1-2.4 2.2-2.4 2.3-2.3 2.35-2.2 2.4-2.17 2.44-2.1 2.6-1.95 2.58-1.95 2.75-1.76 2.72-1.76 2.76H17.7l-.78.08-.7.06-.76.06-.68.13-.7.1-.7.2-.62.17-.7.2-.63.23-.63.25-.63.26-.6.33-.58.32-.6.3-.6.4-.6.37-.56.47-.5.36-.44.44-.5.5-.5.5-.45.45-.36.56-.45.5-.38.56-.4.56-.3.6-.4.62-.3.64-.26.62-.24.62-.2.7-.18.65-.2.7-.13.7-.1.75-.1.76-.08.75-.07.78-.06.83v1.64l.06.82.07.85.07.86.1.9.12.83.1.9.2.8.2.9.2.8.23.83.22.83.3.8.3.76.34.82.36.7.38.74.44.7.44.7.44.62.47.6.55.58.05.2.43.43.57.63.64.75.7.78.67.7.5.65.4.45.1.25.2.3.15.37.2.37.14.44.1.38.1.38v122.9l.07.8.05.77.07.82.1.8.06.8.1.8.2.8.2.82.2.8.2.83.2.83.22.82.28.87.32.75.24.8.32.83.38.74.3.8.33.75.35.76.4.77.38.7.45.75.45.7.44.7.44.63.46.7.45.64.5.6.5.57.45.55 131.5 146.4.4.43.4.43.43.4.4.4.43.37.46.35.48.3.43.4.45.3.46.34.43.3.5.27.5.3.46.3.5.27.5.18.52.28.5.2.5.2.5.2.5.1.5.2.57.1.5.13.58.15.5.07.57.14.58.07h.52l.5.05h2.22l.57-.1h.6l.5-.06.55-.15.5-.05.56-.13.5-.1.6-.13.5-.2.5-.14.5-.2.5-.17.5-.2.5-.27.5-.18.54-.27.43-.25.5-.3.5-.28.44-.33.46-.33.43-.3.43-.4.43-.3.46-.4.43-.36.4-.4.4-.36.4-.44.37-.44 131.5-146.4.5-.6.5-.57.45-.64.46-.63.5-.7.47-.62.37-.7.44-.7.44-.74.37-.7.4-.73.4-.76.3-.75.3-.8.4-.75.3-.82.27-.8.3-.76.2-.88.25-.85.3-.8.2-.85.18-.8.2-.83.18-.83.06-.8.12-.84.13-.8.05-.8.1-.76v-.82l.07-.8v-122l.13-.36.1-.38.1-.44.2-.32.12-.38.2-.33.1-.26 4.06-4.54.5-.57.44-.64.47-.63.4-.7.46-.7.4-.72.4-.7.3-.8.32-.75.3-.83.27-.8.25-.8.2-.8.2-.9.2-.8.1-.9.13-.84.1-.9.06-.8.04-.9.05-.8v-1.7l-.1-.82-.06-.74-.07-.75-.14-.78-.14-.77-.13-.7-.2-.7-.18-.6"/><path fill-rule="evenodd" clip-rule="evenodd" fill="#FFF" d="M323.6 66.66c-.82-1.6-1.6-3.27-3.05-4.43-1.54-1.22-3.03-1.94-4.9-2.48-2.3-.66-4.95-.42-7.32-.42h-57.58c-.42 0-.42-.33-.63-.7-4.37-7.84-9.85-14.8-16.1-21.2-6-6.18-13.15-11.45-20.66-15.63-7.48-4.16-15.63-7.67-24.03-9.5-8.5-1.82-17.27-3.12-26-2.63-8.7.5-17.43 1.72-25.74 4.5-8.3 2.74-16.3 6.36-23.5 11.28-7.4 5.05-14.08 10.8-19.9 17.58-2.9 3.32-5.5 6.9-7.9 10.57-1.2 1.8-2.27 3.65-3.3 5.53-.27.43-1.4.2-1.8.2H21.5c-3.17 0-6.6 1-8.83 3.35C10 65.55 9 69.44 9.4 73.35c.23 2.08.57 4.06 1.18 6.07.52 1.76 1.44 3.77 2.76 5.08 1.5 1.5 2.97 3.17 4.27 4.84 1.1 1.4 1.9 3.5 2.2 5.25.2 1.5.1 3 .1 4.5v116.2c0 3.83 1 7.6 2.3 11.2 1.6 4.3 4.4 7.8 7.4 11.1L43 252.57c7.24 8.07 14.5 16.13 21.72 24.2 8.7 9.63 17.34 19.27 26 28.9l26.1 29.1 22.18 24.7 14.17 15.78 2.8 3.12c1.84 2.04 4.52 4.2 7.3 4.7 4.1.73 8.3.47 11.74-2.2 1.3-1 2.4-2.1 3.5-3.3 3.68-4.08 7.3-8.15 11-12.22l20.2-22.5 25.37-28.26 26.44-29.45 23.4-26.1c5.46-6.05 10.9-12.1 16.34-18.17 2.47-2.78 4.95-5.4 7.1-8.3 1.2-1.58 2.1-3.5 2.86-5.3.7-1.75 1.5-3.64 1.82-5.5.45-2.5.82-4.9.82-7.47V96.8c0-2.4.68-4.5 1.74-6.65.36-.75.96-1.35 1.52-1.96l2.96-3.3c1.23-1.4 2.02-3 2.76-4.6.95-2.1 1.2-4.6 1.47-6.8.22-2.3 0-4.7-.7-6.9z"/><path fill-rule="evenodd" clip-rule="evenodd" fill="#2C2925" d="M69.37 103.3v-2.4l.07-1.2.06-1.14.06-1.2.06-1.2.07-1.14.1-1.2.1-1.13.1-1.2.1-1.2.2-1.18.2-1.14.1-1.13.26-1.14.2-1.14.2-1.14.24-1.1.26-1.14.33-1.1.24-1.1.24-1.12.3-1.07.32-1.15.3-1.07.4-1.07.3-1.06.38-1.08.4-1 .38-1.1.4-1.07.43-1.08H20.1l-.32.06h-.32l-.38.03h-.25l-.32.06-.2.06-.2.1-.25.07-.2.12-.2.1-.2.13-.1.2-.14.1-.12.2-.06.12-.1.2-.07.16v.2l-.06.23v.2l.06.22v.2l.06.24.05.26.14.26.1.22.14.23.12.25.26.3.2.27.18.25.24.3 4.1 4.56.5.65.5.7.44.7.44.73.44.83.4.8.44.9.32.9.32.93.25.9.3.93.2.9.16.94.06.88.1.9v126.6l.15.88.13.9.14.9.2.94.26.86.3.95.32.9.3.94.4.9.42.8.45.8.4.77.45.7.25.37.24.3.25.35.24.24 71.9 80.5V177.6l-2.03-1.7-1.9-1.76-1.8-1.78-1.82-1.9-1.75-1.9-1.7-1.96-1.66-1.96-1.66-2-1.6-2.1-1.44-2.17-1.45-2.1-1.4-2.2-1.3-2.27-1.32-2.3-1.2-2.33-1.13-2.32-1.16-2.33-1-2.47-.97-2.45-.9-2.46-.8-2.55-.82-2.57-.7-2.6-.6-2.6-.5-2.65-.5-2.66-.45-2.66-.32-2.7-.3-2.75-.2-2.7-.13-2.8"/><path fill-rule="evenodd" clip-rule="evenodd" fill="#E93531" d="M313.3 67.22h-56.1l.45 1.08.38 1.07.38 1.08.4 1 .4 1.08.3 1.08.4 1.1.3 1.1.3 1.18.3 1.07.3 1.14.3 1.1.3 1.1.25 1.16.25 1.1.17 1.13.26 1.12.2 1.17.17 1.13.1 1.15.2 1.14.1 1.2.14 1.13.14 1.13.13 1.2.07 1.15.07 1.2.15 1.2v1.16l.06 1.2v5.2L264 109l-.2 2.7-.3 2.8-.33 2.65-.44 2.75-.45 2.63-.57 2.64-.6 2.6-.7 2.6-.76 2.5-.9 2.53-.86 2.45-.93 2.48-1.07 2.4-1.1 2.4-1.12 2.34-1.26 2.33-1.26 2.27-1.33 2.27-1.4 2.15-1.4 2.2-1.5 2.1-1.6 2.02-1.6 2.1-1.64 1.95-1.8 1.95-1.76 1.9-1.85 1.82-1.84 1.77-1.9 1.77-2.02 1.7v131.8l71.9-80.5.25-.22.2-.3.25-.3.25-.4.5-.7.44-.76.45-.8.4-.83.4-.9.34-.92.3-.9.25-.94.27-.87.26-.95.15-.9.12-.9.12-.86V89.9l.05-.88.14-.88.17-.95.2-.9.25-.9.35-1 .3-.97.33-.88.43-.9.4-.8.45-.84.43-.75.46-.7.26-.36.25-.3.25-.33.27-.3 4.1-4.56.24-.3.2-.25.2-.26.16-.3.2-.28.13-.28.14-.26.05-.27.04-.25.13-.25v-1l-.1-.17-.07-.2-.06-.12-.14-.2-.1-.1-.2-.2-.2-.1-.13-.1-.27-.12-.17-.07-.26-.12-.3-.07-.28-.05h-.3l-.36-.05h-.3"/><path fill-rule="evenodd" clip-rule="evenodd" fill="#2C2925" d="M150.94 69.18v54.72h.12v.06h-.12v1l-.06.52-.13.44-.06.5-.2.5-.2.45-.2.44-.2.5-.2.5-.25.44-.26.38-.3.4-.27.4-.33.36-.35.3-.3.4-.4.3-.36.27-.4.3-.45.24-.37.17-.44.26-.45.2-.44.18-.42.16-.54.1-.43.15-.5.13-.5.04h-2l-.52-.06-.5-.13-.5-.15-.44-.14-.42-.13-.5-.18-.45-.2-.37-.24-.46-.2-.46-.22-.4-.33-.36-.25-.38-.34-.32-.38-.3-.3-.3-.4-.3-.4-.25-.37-.24-.37-.3-.46-.2-.45-.25-.45-.2-.4-.13-.46-.12-.5-.1-.5-.06-.46-.05-.5-.1-.53V111h-15v13.55l.06 1.24.14 1.23.2 1.2.24 1.2.3 1.13.3 1.2.46 1.1.44 1.07.5 1.07.58 1.1.63 1 .65.96.7.9.75.97.76.9.8.8.9.83.88.75.95.7.93.7 1 .65 1.02.56 1.07.58 1.07.47 1.14.42 1.14.36 1.2.37 1.12.24 1.27.2 1.2.2 1.25.03 1.27.08 1.23-.06 1.27-.1 1.27-.16 1.26-.27 1.2-.25 1.14-.33 1.2-.43 1.13-.45 1.07-.47 1.1-.57 1.06-.66.95-.62 1-.7 1-.74.9-.78.9-.8.8-.9.82-.86.7-.95.7-1 .7-1.03.56-1 .57-1.1.5-1.1.46-1.14.38-1.16.3-1.2.33-1.2.2-1.2.1-1.25.05-1.3.08-1.3V69.2m-7.44-2.08l.43-.06h.42l.37-.07.46-.1.38-.1.38-.1.48-.2.38-.1.32-.2.38-.1.38-.2.3-.27.34-.2.3-.3.33-.26.3-.27.25-.3.25-.32.27-.22.25-.4.2-.3.2-.4.1-.3.2-.4.13-.36.13-.36.1-.38.15-.44.1-.42.05-.38v-.45l.06-.4-.05-.46v-.4l-.08-.44-.07-.4-.13-.38-.1-.45-.13-.4-.13-.37-.2-.38-.1-.33-.2-.4-.2-.33-.23-.3-.26-.32-.24-.3-.24-.3-.32-.26-.3-.26-.3-.22-.34-.25-.3-.17-.4-.2-.37-.24-.33-.1-.36-.15-.44-.2-.38-.05-.4-.1-.44-.07-.38-.05h-1.7l-.45.04-.4.06-.4.14-.4.05-.4.2-.35.1-.4.12-.36.23-.3.2-.34.17-.37.28-.3.25-.35.28-.27.3-.33.3-.2.32-.3.3-.2.3-.24.35-.2.4-.17.3-.14.4-.18.36-.14.38-.12.43-.06.4-.05.37-.08.4v.48l-.05.43.06.4v.45l.06.37.06.44.07.45.1.37.13.37.2.4.12.37.2.3.18.4.25.3.2.4.3.26.2.32.3.3.25.26.3.24.3.3.4.2.3.27.34.2.35.1.36.2.4.13.4.2.35.06.43.12.4.05.42.07h.44"/><path fill-rule="evenodd" clip-rule="evenodd" fill="#E93531" d="M201.48 91.55l-.25.5-.32.57-.3.5-.3.5-.4.52-.42.44-.37.44-.5.45-.45.37-.5.38-.56.38-.5.32-.58.3-.56.33-.64.25-.5.2-.5.18-.5.13-.6.2-.5.15-.57.06-.5.07h-.5l-.58.06h-.5l-.5-.06-.5-.1h-.2l-.3-.05-.53-.05-.6-.13-.4-.12-.5-.13-.5-.2-.46-.17-.5-.25-.44-.2-.5-.26-.46-.26-.37-.33-.45-.27-.4-.3-.43-.4-.4-.3-.4-.4-.3-.4-.4-.42-.3-.35 8.6-3.46 7.28-2.9 7.13-2.95 7.9-3.16-.2-.82-.22-.84-.24-.72-.33-.84-.4-1-.5-.95-.5-.94-.6-.9-.56-.9-.7-.83-.7-.83-.68-.7-.7-.75-.83-.66-.76-.62-.9-.62-.8-.5-.9-.5-.94-.5-.86-.4-.96-.36-.95-.38-1-.27-1.03-.27-.94-.2-1.08-.12-1-.03-1.02-.07h-1l-1 .03h-.07l-1 .13-1.1.1-1 .27-1.02.26-1.06.3-1 .4-1.03.4-.93.45-.95.56-.85.58-.9.56-.8.63-.77.7-.76.7-.7.74-.7.78-.64.8-.6.8-.56.9-.5.9-.44.9-.45.87-.37 1-.35.97-.3.96-.27 1-.2 1.04-.1 1-.08 1.02-.08 1v1.1l.06 1 .12 1.07.2 1 .17 1 .25 1.1.3 1 .37 1 .46 1 .5.98.5.94.58.9.6.86.7.84.62.8.7.7.76.75.84.6.76.6.82.6.87.58.9.45.87.5.95.38.94.4.94.4 1 .24.94.25 1.02.2 1 .1.76.07.24.05h3.1l1.1-.14 1-.2 1.07-.2 1-.3 1.03-.34 1.06-.4.5-.26.55-.24.5-.25.6-.23.5-.23.5-.3.5-.3.46-.33.5-.37.45-.3.5-.4.38-.36.45-.38.44-.4.4-.45.38-.37.44-.45.3-.44.4-.47.3-.44.32-.48.3-.44.4-.5.24-.43.25-.5.3-.5.27-.53.27-.5.2-.5.2-.57.2-.5.2-.5-8.3-1.6-.27.58zm-24.4-5.37v-1.45l.08-.5.06-.45.13-.5.12-.45.07-.5.2-.45.1-.44.2-.44.2-.44.18-.45.25-.4.2-.4.24-.4.4-.4.27-.4.3-.4.3-.32.35-.3.38-.4.32-.3.36-.32.38-.3.4-.3.43-.26.43-.26.48-.32.46-.2.45-.23.45-.18.5-.2.5-.1.47-.2.5-.06.5-.12.5-.12h.44l.5-.05.5-.1h.97l.5.08.46.06.5.07.5.07.44.1.47.13.5.12.46.2.44.1.45.2.43.2.4.24.46.2.43.24.36.3.37.27.4.32.4.3.4.3.35.33.3.4-11.2 4.5-11.2 4.47zm13.8 56.8l-.7-.07h-.7l-.63-.1-.64-.1-.6-.1-.62-.2-.57-.15-.63-.26-.6-.25-.56-.34-.57-.3-.5-.33-.57-.37-.5-.4-.44-.45-.5-.43-.43-.43-.36-.5-.4-.5-.36-.56-.38-.5-.3-.56-.33-.58-.24-.55-.2-.64-.23-.6-.2-.63-.12-.65-.1-.6-.08-.7-.06-.63V129l.05-.68.05-.63.14-.7.12-.7.2-.6.26-.64.2-.63.23-.57.3-.55.34-.57.36-.5.37-.5.38-.6.4-.44.44-.44.5-.46.45-.44.5-.38.55-.37.5-.4.6-.3.57-.24.58-.3.63-.2.57-.27.64-.1.7-.2.62-.1.62-.1.7-.06h1.4l.76.05.74.12.7.15.7.2.7.24.7.27.63.26.62.38.6.3.58.4.6.44.5.46.5.5.5.52.53.56 5.8-5.9-.36-.37-.4-.4-.43-.36-.4-.37-.35-.38-.4-.4-.45-.3-.45-.34-.44-.3-.43-.4-.5-.24-.44-.3-.5-.24-.5-.24-.5-.24-.44-.25-.57-.26-.5-.2-.5-.2-.5-.2-.6-.2-.54-.2-.58-.04-.54-.2-.57-.04-.56-.1-.58-.06-.58-.13h-.56l-.65-.06-.55-.08h-.58l-1.15.05-1.08.05-1.1.12-1.1.2-1 .2-1 .33-1 .3-.95.37-.95.45-.97.43-.86.5-.9.58-.88.64-.78.64-.76.7-.75.7-.7.74-.7.77-.63.8-.62.85-.57.9-.5.9-.43.94-.44.94-.4.95-.33 1-.27 1-.24 1-.2 1.1-.14 1.07-.05 1.08-.07 1.16.07 1.1.06 1.14.14 1.07.2 1 .23 1.1.27 1 .4 1.02.4.93.42.96.43.93.5.9.58.87.64.85.64.8.7.8.7.76.8.7.77.7.75.64.87.57.9.56.87.5.97.5.95.45.94.38 1 .34 1.02.3 1 .2 1.07.27 1.1.04 1.1.16h2.34l.57-.07.56-.06.58-.06.63-.07.6-.13.56-.1.6-.14.58-.12.5-.2.6-.1.5-.26.5-.2.56-.17.5-.23.5-.24.53-.27.5-.24.5-.25.43-.33.5-.3.46-.34.43-.3.42-.37.45-.32.46-.4.37-.4.36-.36.43-.4.38-.42.4-.36-5.8-5.88-.5.56-.45.56-.56.43-.5.5-.65.47-.55.4-.65.37-.63.3-.7.3-.7.33-.7.2-.7.17-.8.2-.75.05-.75.05"/><path fill-rule="evenodd" clip-rule="evenodd" fill="#2C2925" d="M236.42 99.7l-.25-3.54-.44-3.47-.63-3.5-.76-3.4-.95-3.38-1.2-3.2-1.2-3.18-1.4-3.17-1.5-2.93-1.7-2.9-1.82-2.85-1.95-2.7-2.1-2.68-2.2-2.52-2.27-2.46-2.4-2.3-2.5-2.2-2.66-2.1-2.78-1.9-2.85-1.85-2.9-1.7-2.96-1.54-3.1-1.4-3.2-1.27-3.23-1.15-3.27-.96-3.4-.75-3.42-.57-3.46-.47-3.6-.3-3.54-.05h-.05l-3.48.05-3.6.3-3.48.44-3.4.56-3.46.76-3.3.94-3.2 1.15-3.15 1.25-3.18 1.4-2.96 1.5-2.9 1.7-2.83 1.85-2.78 1.9-2.6 2.1-2.6 2.2-2.4 2.28-2.3 2.46-2.2 2.5-2.07 2.67-2 2.7-1.84 2.88-1.66 2.9-1.58 2.96-1.4 3.18-1.2 3.15-1.13 3.2-.94 3.36-.77 3.36-.6 3.5-.45 3.45-.26 3.54-.15 3.6.13 3.6.25 3.53.44 3.5.6 3.4.77 3.42.94 3.26 1.14 3.3 1.2 3.16 1.4 3.1 1.6 3.04 1.64 2.9 1.86 2.85 1.96 2.7 2.1 2.68 2.2 2.53 2.3 2.4 2.4 2.35 2.6 2.17 2.6 2.07 2.77 1.97 2.83 1.85 2.9 1.7 3 1.53 3.15 1.4 3.15 1.25 3.2 1.1 3.3.95 3.4.76 3.4.65 3.46.43 3.6.23 3.46.1h.07l3.52-.1 3.6-.26 3.5-.45 3.4-.64 3.4-.77 3.3-.96 3.22-1.1 3.22-1.25 3.1-1.4 2.96-1.5 2.9-1.74 2.86-1.83 2.77-1.97 2.64-2.07 2.5-2.15 2.4-2.34 2.28-2.4 2.2-2.5 2.1-2.67 1.96-2.72 1.8-2.83 1.64-2.9 1.6-3.04 1.4-3.1 1.2-3.15 1.13-3.3.97-3.3.76-3.4.63-3.42.43-3.47.2-3.5.13-3.6-.14-3.6zm-4.8 6.95l-.26 3.28-.37 3.23-.6 3.22-.8 3.16-.9 3.1-1 2.96-1.16 2.97-1.33 2.9-1.45 2.8-1.5 2.7-1.7 2.66-1.86 2.53-1.9 2.46-2.1 2.4-2.14 2.2-2.26 2.16-2.32 2.08-2.45 1.9-2.54 1.83-2.65 1.7-2.7 1.5-2.8 1.4-2.9 1.3-2.96 1.14-3.04 1-3.04.9-3.16.76-3.2.56-3.23.4-3.35.25-3.3.1h-.1l-3.27-.1-3.3-.25-3.2-.4-3.23-.55-3.15-.77-3.04-.9-3.03-1-3-1.17-2.84-1.33-2.85-1.4-2.7-1.56-2.65-1.7-2.52-1.83-2.46-1.9-2.32-2.07-2.28-2.14-2.15-2.2-2.07-2.4-1.9-2.47-1.83-2.5-1.62-2.67-1.6-2.74-1.45-2.76-1.27-2.9-1.2-2.97-1-2.97-.9-3.1-.7-3.15-.56-3.2-.43-3.22-.26-3.26-.02-3.34.07-3.36.26-3.33.44-3.24.57-3.22.7-3.14.9-3.02 1-3.04 1.2-2.97 1.28-2.83 1.44-2.84 1.6-2.73 1.64-2.64 1.83-2.5 1.9-2.44 2.07-2.35 2.16-2.26 2.28-2.15 2.35-2.1 2.5-1.9 2.5-1.83 2.67-1.7 2.7-1.53 2.87-1.46 2.82-1.27 2.97-1.2 3.02-1 3.04-.9 3.14-.7 3.24-.62 3.23-.35 3.3-.25 3.26-.06h.06l3.3.04 3.32.23 3.23.38 3.2.65 3.16.7 3 .9 3.05 1 2.97 1.2 2.9 1.26 2.8 1.47 2.7 1.53 2.67 1.7 2.55 1.83 2.45 1.9 2.33 2.1 2.26 2.13 2.12 2.28 2.1 2.36 1.9 2.46 1.8 2.53 1.7 2.65 1.54 2.7 1.44 2.85 1.34 2.83 1.15 2.96 1 3 .9 3.04.72 3.16.6 3.2.36 3.25.25 3.34.12 3.35-.12 3.34zM196.8 303.33c-3.97.05-7.95.8-11.65 2.2-1 .4-1.93.88-2.84 1.43-.4.26-.6.64-1 .2-.3-.35-.8-.7-1.2-1-1.6-1.2-3.5-2.24-5.3-3.06-1.7-.78-3.64-1.6-5.6-1.6-.92 0-1.86-.23-2.8-.12-1.06.12-2.1.16-3.2.3-2 .3-3.94.75-5.93.96-1.92.2-3.94-.3-5.74-.97-1.85-.7-3.77-1.68-5.34-2.9-.78-.6-1.48-1.28-2.37-1.73-.88-.42-1.8-.68-2.75-.9-3.94-1-8.2.1-12.03 1.06-4.23 1.07-8.4 2.3-12.5 3.8-.93.32-1.85.64-2.77 1-.92.37-1.9.95-2.84 1.2-.32.1-.35.25-.42-.15-.03-.2-.1-.42-.1-.62 0-.5 0-1 .1-1.5.23-1 .44-1.92.9-2.86 1.77-3.52 5.16-5.8 8.88-6.8.97-.27 1.95-.46 2.96-.53.97-.06 2.17-.22 3.1-.03 2 .4 3.96.9 6 .7 1.5-.13 2.87-.4 4.2-1.1 1.5-.72 2.9-1.6 4.3-2.5.3 1.7 1.23 3.4 3.25 3.4-1.23-1.54-2.1-3.1-2.65-5-.1-.4-.1-.9-.1-1.3 0-.24-.1-.42.14-.42h.85c1.1 0 2.2.08 3.26.13 1.03.04 2 .28 3 .34.4 0 1.26.3 1.6.23.45-.1 1.1-.96 1.44-1.27 1.52-1.37 3.12-2.6 4.73-3.9 1.23-.97 2.54-1.87 3.86-2.68 1.23-.8 2.6-1.7 4.03-2.1-1.75-1.6-3.28-3.15-4.67-5.06 5.4-2.2 11.06-2.97 16.86-2.97-8.3-1-16.7-3.2-24.1-7.1-2.67-1.4-5.3-2.86-7.87-4.4 3.27-.87 6.9-.98 10.3-.98 3.43 0 6.95.37 10.35.9-1.75-1.5-3.35-3.47-4.66-5.37-.7-1.04-1.4-2.1-2.06-3.16-.6-1-1.1-2.3-1.8-3.17 4.2.55 8.27 1.83 12.2 3.45 3.9 1.6 7.72 3.4 11.3 5.65 3.4 2.12 6.7 4.38 9.86 6.86 1.5 1.2 3.1 2.5 4.5 3.87.64.66 1.67 1.4 2.2 2.2.44.7.17 2.04.17 2.9-5.84-6.5-12.8-11.73-20.43-15.97-2.6-1.44-5.3-2.63-8.05-3.8-2.6-1.1-5.5-2.24-8.28-2.7 1 1.8 2.4 3.36 3.66 5l2.12 2.7c.4.5 1.23 1.9 1.9 2 4.15.8 8.2 2.02 12.17 3.4 2 .7 4 1.52 5.93 2.4 2.08.9 4.1 1.8 5.86 3.25-1.66-1.13-3.84-1.78-5.68-2.52-1.93-.75-3.95-1.42-5.95-2-4.1-1.1-8.2-1.94-12.4-2.6-5.76-.93-11.6-1.2-17.45-1.2.7.72 1.9 1.2 2.78 1.64.85.43 1.66.95 2.55 1.34 1.9.84 3.9 1.7 5.9 2.37 4.16 1.3 8.3 2.44 12.63 3.16 6 1 12 1.2 18 1.05-4.02 1.04-8.2 1.03-12.35 1.03 2.35.9 4.9 2.7 5.6 5.25-2.8-2.8-6.6-4.6-10.6-4.22-4.04.4-8.3.88-12.13 2.27l-.53.2c.67.63 1.2 1.4 1.9 2 .8.7 1.6 1.42 2.47 2.1.8.6 1.6 1.2 2.47 1.72.88.54 1.88 1 2.66 1.7 1.57 1.34 2.88 2.86 4.27 4.4 1.36 1.45 2.4 3.3 4.05 4.45.7.5 1.65 1.2 2.54 1.32.46.05.93.16 1.4.23.26.05 1.37.2 1.56-.06.3-.44-.77-2.3-.97-2.74-.4-.85-1-1.62-1.57-2.4-2.42-3.3-6.1-5.52-9.64-7.4-2.74-1.4-5.34-3.04-7.6-5.05l1.65.8c.36.2 1.3.86 1.73.77 1.14-.2 2.25-.33 3.4-.42 2-.15 5-.33 6.7 1.02-2.5.03-4.95-.38-7.33.63 1.85.95 3.7 1.74 5.45 2.87 1.86 1.18 3.6 2.45 5.18 4l1.5-1.6c.28-.3.23-.3.6-.1.32.18.63.33.95.5 1.1.54 2.3.93 3.4 1.43 2.3 1 5.3 1.66 7.83 1.6l-1.6 1.97c.77.2 1.1 0 1.7-.46v1.7c0 .2-.9.63-1.1.7-.4.16-.9-.27-1.3-.47l-1.55-.84 1.1-1.4c-2.08 0-4.03-.86-5.98-1.48-1.07-.34-2.1-.7-3.13-1.17-.57-.26-.8.2-1.2.56-.36.3.32.84.57 1.15 1.2 1.56 2.18 3.5 2.66 5.4.1.44.12.9.12 1.37 0 .6-.66.6-1.15.75-.9.27-2 .2-2.9.07-1.8-.3-3.45-1.26-4.83-2.46-.37-.3-.56-.8-.95-.4-.4.4-.8.7-1.2 1.05-.7.6-1.4 1.1-2.18 1.6 1.8 1.36 3.22 3.18 4.7 4.9.7.85 1.3 1.78 1.93 2.68.64.9 1.38 1.86 1.84 2.86 4.67-2.5 9.3-4.45 14.54-5.26v1.75c0 .4-.85.3-1.2.33-1 .13-1.97.4-2.93.7-1.9.56-3.8 1.17-5.57 2.06-1 .5-1.98.94-2.9 1.46-.47.23-.9.5-1.3.76-.2.12-.4.25-.6.35-.4.2-.34.17-.56-.2-1.13-1.83-2.23-3.7-3.53-5.42-3.2-4.26-6.77-8.75-11.9-10.65 1.94.35 3.65.9 5.3 2 .4.26.88.8 1.3.57s.8-.5 1.23-.76c.87-.53 1.6-1.3 2.35-1.96.2-.2-3.47-4.44-3.84-4.9-1.26-1.55-3.14-2.65-4.82-3.73-.35-.2-2.3-1.83-2.53-1.72-.9.38-1.8.74-2.65 1.2-1.96 1.08-3.7 2.43-5.5 3.76-1.65 1.24-3.23 2.6-4.8 3.93l-1.2 1.06c-.16.1-1.1 1.04-1.2 1-1.04-.3-2.1-.5-3.16-.6-.62-.08-1.24-.1-1.86-.15-.6-.04-1.44-.26-2.02-.04 1.2 2.16 2.3 4.18 4.05 5.95-1.74.4-4.1 1-5.73-.1-.35-.27-.6-.56-.9-.86-.43-.46-.05-.7-.87-.3-.93.4-1.8.82-2.8 1.2-1.94.6-4.02 1.22-6.1.93-2-.3-4-.58-6-.58-2.53 0-5.3 1.04-7.46 2.26-1 .58-2.32 1.5-2.96 2.5-.7 1.06-1.73 2.17-1.9 3.48 7.8-3.3 16.15-6.2 24.66-6.66 2-.1 4.23-.12 6.14.52.87.3 1.85.6 2.57 1.2.72.57 1.3 1.3 2.02 1.9 3 2.5 7.63 3.6 11.5 2.77 3.9-.85 8.1-1.86 12.1-.77 2.03.53 4 1.13 5.9 2.13.9.5 1.8.96 2.63 1.5.4.3.8.57 1.2.88.46.4.7.8 1.3.55 2.7-1.14 5.3-2 8.13-2.77 1.35-.37 2.8-.47 4.17-.6.7-.1 1.4-.1 2.1-.1.34 0 .16 1.7.16 2.07zm0-26.98c-.87-.3-1.76-.6-2.65-.88l-.25 2.08 2.2-.14c.9 0 .7-.1.7-1zm5.38-4.5v3.62c-1.03-1.44-2.08-2.87-3.22-4.22-.7-.8-1.36-1.63-2.12-2.38-.18-.18-.03-1.06-.03-1.3v-1.45c.4.36.8 1 1.2 1.26.6.32 1.5.44 2.1.63l1.8.6c.66.3.4 1.2.4 1.9l-1.98-.6 1.96 2.06zm-5.37 4.5c1 .08 2 .6 3 .82l-2.9.2v-1.02zm0 7.77c1.9-1.12 3.9-2.43 5.4-3.98 0 .4.3 1.85 0 2.12-.42.46-1.12.83-1.7 1.22-1.2.85-2.33 1.63-3.6 2.35v-1.7zm0 11.3c1-.34 2.7.12 3.7.32.4.07 1.5.12 1.7.4.3.3 0 1.6 0 2-1.1-.36-2.3-.75-3.5-.75h-1.8c-.1 0 0-1.8 0-2zm.4 5.82c1.2.07 2.4.08 3.6.2.5.07 1.47-.07 1.47.52v1.23c0 .3 0 .3-.35.3-1.23-.1-2.44-.2-3.66-.2-.5 0-1.36.2-1.36-.4 0-.4-.3-1.97.4-1.76zm5.3-29.06c.7.06 1.3.38 1.9.67.5.25.27 1.43.27 1.98-.35-.2-.73-.45-1.1-.63.27.34 1.1 1.1 1.1 1.53v4.16c0 .3-.23.4-.52.7-.6.5-1.24 1.1-1.87 1.6v-1.6c0-.6.13-.6.6-1l1.1-1.06c.36-.36.03-.54-.24-.95-.34-.53-1.5-1.73-1.5-2.4v-3.4l.3.33zm-.3-1.7v-1.7c.6.07 1.3.4 1.8.64.5.22.67.17.67.67v1.2l-2.4-.9zm0 25.65c.8.28 1.6.55 2.3.86.3.1.1 1.9.1 2.3-.7-.4-1.3-.8-2.1-1.1-.6-.24-.3-1.57-.3-2.16zm.7 5.56c.25 0 1.6.1 1.78.3.2.2 0 1.4 0 1.8-.65-.2-1.35-.2-2.02-.3-.5-.1-.36-.2-.36-.7v-1.27l.63.07zm1.78-30.4v-1.68c3.96 1.6 7.97 3.46 11.28 6.17 1.55 1.26 2.76 3 4 4.53.5.63.8 1.43.8 2.2 0 .9-1.06 1.1-1.73 1.17-3.34.4-6.2-1.3-8.6-3.4-1.22-1.1-2.12-2.5-3.36-3.58-.57-.5-1.2-.97-1.8-1.46-.32-.3-.55-.36-.55-.8v-1.56c1.55 1.2 3 2.34 4.45 3.64 1.55 1.4 2.94 3 4.7 4.15.86.53 1.7.93 2.7 1.22.38.1 2.43.44 2.07-.3-.8-1.63-2.12-3.06-3.5-4.27-1.46-1.3-3.03-2.3-4.7-3.26-1-.58-2-1.08-3.05-1.56-.8-.4-1.94-.64-2.65-1.2zm0 4.33v4.42c.36-.35 1.67-1.5 1.4-1.9-.5-.84-.85-1.75-1.4-2.53zm.64 21.73c3.54 1.76 5.9 5.1 7.6 8.53-1.5-.58-3.12-1.26-4.72-1.5-.85-.15-1.7-.3-2.55-.47-.35-.08-.94 0-.94-.4V302c1.37.5 2.98.4 4.3 1-.72-1.04-1.8-1.87-2.75-2.67-.37-.3-1.3-.65-1.53-1.04-.24-.5 0-1.8 0-2.3l.65.4zM148.64 346c-.4 0-3.34.08-3.34-.06v-12.5c-1.3 1.12-2.7 1.88-4.3 2.52 0-.66-.37-2.9.2-3.15.86-.3 1.68-.8 2.4-1.4.75-.6 1.5-1.2 1.94-2.1.13-.2.26-.8.57-.8h2.24c.5 0 .28.8.28 1.2V346zm10.37-2.46c2.3-.07 2.48-3.2 2.6-4.86-.8.87-1.5 1.1-2.6 1.4v-1.76c0-.76.1-.5.7-.75.78-.3 1.5-1.14 1.5-2 0-.42.1-.85.1-1.3 0-.53-.2-.94-.33-1.45-.1-.37-.53-.75-.8-1-.1-.1-1.15-.62-1.15-.53v-1.9c0-.66-.2-1 .57-.87.42.1.86.07 1.3.2.4.15.74.4 1.12.6 1.73.9 2.3 2.87 2.77 4.56.4 1.3.27 2.75.27 4.1 0 1.24-.03 2.9-.6 4.02-.6 1.17-.93 2.2-2.05 3.04-.5.37-.98.56-1.5.84-.63.3-1.2.24-1.85.4v-2.8zm-5.2-1.57l3.2-.33c-.03.55.3.94.55 1.4.2.4.8.38 1.16.5.2.07.3-.12.3.15v2.5c0 .2-.6.03-.75 0-1.1-.15-2.22-.34-3.05-1.2-.88-.8-1.3-1.96-1.47-3.1zm5.24-1.9c-.7.33-2-.1-2.64-.4-.8-.4-1.45-1.03-1.97-1.76-1.1-1.5-1.16-3.7-.72-5.5.4-1.5 1.7-3 3.24-3.5.4-.17.83-.26 1.24-.3.5-.1.87-.3.87.3v2.1c0 .4-.53.3-.9.4-1.74.6-1.58 3.2-1.2 4.6.2.9.85 1.24 1.6 1.6.52.28.5-.1.5.67v1.8zm8.15-8.16c0-.3 0-3.1.02-3.1h10.97c.12 0 .42 0 .42.1v2.1c0 .44-.37.7-.67 1-.33.32-.6.78-.87 1.16-1.22 1.64-2.23 3.6-2.9 5.5-.68 1.98-1.18 4.07-1.38 6.14 0 .1 0 1.27-.03 1.27h-1.9c-.13 0-1.3.07-1.3-.04 0-.6.03-1.2.1-1.77.56-4.1 2-8.1 4.48-11.43l.65-.88h-7.6zm24.84 1l-1.9.18c-.37.04-.74.08-1.1.1-.38.05-.2-.12-.3-.4-.27-.82-1.02-1.72-1.95-1.46V330c0-.2-.16-1.32 0-1.47.36-.36 2.15.26 2.52.44 1.7.8 2.3 2.2 2.75 3.92zm-5.25 1.8c.97 0 1.8.1 2.65.5.88.45 1.3 1.1 1.97 1.78.58.52.88 1.7.96 2.42.1.9.1 1.9-.16 2.8-.53 1.85-1.7 2.92-3.36 3.76-.38.2-1 .3-1.4.3-.7 0-.64.12-.64-.68v-2c0-.05.84-.2 1-.3 1.5-.72 1.6-3.2 1.05-4.55-.32-.8-.77-1.25-1.6-1.53-.57-.2-.45-.15-.45-.83v-1.7zm0-3.4c-2.26.1-2.6 3.1-2.6 4.87.74-.73 1.53-1.32 2.6-1.45v2.43c0 .04-.6.06-.7.1-.87.28-1.35 1.1-1.53 1.96-.3 1.44.15 4.33 2.17 4.33.13 0 .06 1.34.06 1.5v1.04c0 .33-.05.2-.4.23-.74.1-1.95-.33-2.54-.77-1.5-1.1-2.6-2.55-2.87-4.46-.4-2.75-.5-5.47.25-8.16.36-1.2 1.1-2.4 2.08-3.15.48-.35 1-.63 1.52-.9.6-.3 1.27-.2 1.9-.34v2.8z"/><path fill-rule="evenodd" clip-rule="evenodd" fill="#E8262B" d="M77.65 103.5l-.07-3.3 7.37-.1c1.77 0 3.8-.26 5.52.17 2 .5 3.12 2.24 3.36 4.18.12.98.12 2.14-.2 3.08-.3.93-.92 1.43-1.56 2.07-.6.6-1.93.9-2.74.9-.22 0-.55.12-.58-.13l-.13-1.03-.23-1.93c1.5-.1 2.8-.5 2.7-2.3-.1-1.7-1.8-1.7-3.2-1.7-3.5.1-6.9.1-10.3.1zm11-19.66c3.56-.15 6.64 3.46 5.95 6.93-.38 1.9-1.1 3.28-2.64 4.5-.7.58-1.85.83-2.74.83-.57 0-.58.08-.58-.47v-2.76c.9.3 2.33-.2 2.9-.95.55-.74.95-2.2.34-3.03-.72-1-1.5-1.6-2.73-1.8-.1 0-.5 0-.5-.1v-3.2zM87.3 95.9c-3.85-.63-5.66-4.84-4.28-8.33.6-1.5 1.72-2.74 3.22-3.35.2-.07 2.4-.6 2.4-.36v3.2c-2.58-.72-4.48 2.38-2.97 4.43.37.4.84.6 1.35.9.28.16 1.62.34 1.62.5v2.63c0 .36.1.46-.28.46-.35 0-.7-.1-1.05-.2zm-3.84-17.37l-2.65-.88.9-2.97 2.7.9-.9 2.95zM95.9 82.7l-11-3.66 1.03-2.97 11 3.66-1.02 2.97zm6-15.92l-1.25 2.84-5.37-2.46-.83-.38-.63-.25-.25-.06-.25-.07-.2-.06h-.7l-.24.06-.25.13-.2.2-.18.18-.2.3-.12.3-.12.2v.57l-.03.2v.2l.06.17v.2l.07.2v.2l.12.17.05.13.06.17.15.2.1.1.16.1.2.1.2.16.2.14.23.2.7.34.83.38 4.72 2.23-1.2 2.84-10.58-4.9 1.15-2.65 1.56.7-.2-.27-.12-.25-.02-.3-.13-.27-.08-.36-.05-.24v-.6l-.06-.26.1-.27v-.32l.06-.23.07-.24.1-.3.04-.26.14-.2.2-.44.3-.43.14-.2.14-.2.17-.2.15-.1.33-.33.38-.2.2-.1.1-.1.2-.07.2-.07.3-.07h.7l.4.02.45.13.46.14.5.2.58.27m10.07-2.36L93.55 58l1.96-2.66 6 1.9 1.97.7-.2-.3-.2-.25-.13-.2-.12-.1-.13-.2-.13-.27-.2-.2-.1-.28-3.35-5.44 1.9-2.6 6.44 10.96m-3.7-17.44l.5.5-.5.5v-1zm0 4.38v-1l1.62-1.78 8.3 8.27-2.16 2.26-7.77-7.77zm-1.67-1.64l-2.1-2.02 2.07-2.2 1.6 1.5v1l-1.65 1.73zm1.64.63v1l-.5-.5.5-.5zm12.3 4.3l-10.22-12.5 2.38-2 10 12.6m2.42-1.97l-8.9-13.65 2.52-1.7 8.9 13.58m6.58-8.6c1-.3 1.98-.63 2.97-.94.3 2.12-.8 4.43-2.7 5.4-1 .5-2 .9-3.1.9-.8 0-.7-.12-.7-.9v-2.18c1.8 1.28 3.93-.18 3.44-2.28zm-3.48-7v2.45c0 .2.32.1.45.2.8.3 1.2.8 1.7 1.6l-2.2 1.2c-.2.1 0 1.87 0 2.16l3.6-1.97 1.86-1c.4-.2 0-.68-.2-1.03-1.2-2-2.85-3.5-5.3-3.5zm0 12.3c-1.77.05-3.44-2.05-4.17-3.46-.43-.84-.68-1.78-.86-2.7-.2-.98.1-1.8.4-2.73.4-1.5 2.1-2.76 3.5-3.16.16 0 1.2-.2 1.2-.2v2.1c0 .7-.2.3-.7.57-.4.2-.8.37-1.03.78-.72 1.03-.45 1.9-.07 2.98l1.84-1v1.85c0 .5-.6.63-1 .87.2.27 1 1.05 1 1.34v2.9zm16.06-6.76l-3.55-15.97 11.5-2.72.64 2.8-8.5 1.98.75 3.53 7.84-1.83.63 2.63-7.84 1.9.95 4.3 8.7-2.05.64 2.67m1.57-3.92l3.03-.62.1.25.06.2.14.16.05.2.14.1.1.2.14.1.1.12.2.1.2.14.2.07.17.07.27.08h1.03l.26-.08.27-.07.25-.07.2-.06.2-.07.2-.13.1-.13.06-.07.1-.07.07-.13.08-.14V27l.04-.13v-.45l-.05-.13-.07-.2-.1-.1-.2-.1-.18-.1-.3-.16-.38-.07-.88-.2-.77-.1-.8-.2-.63-.13-.58-.2-.45-.1-.4-.2-.3-.1-.3-.26-.33-.26-.12-.12-.13-.2-.06-.12-.15-.2-.07-.1-.1-.2-.08-.18-.1-.18-.05-.38V21l.06-.37.15-.32.12-.3.26-.3.2-.3.25-.3.16-.1.2-.13.2-.07.1-.14.44-.25.38-.13.5-.13.5-.1.57-.04.63-.08h1.5l.43.06.43.13.38.15.4.15.3.2.26.17.36.2.2.25.24.27.2.3.16.32.2.4.1.3-2.84.7-.07-.1-.07-.2-.13-.1-.08-.15-.12-.13-.1-.1-.07-.06-.13-.14-.2-.04-.13-.06-.2-.06h-.18l-.2-.08h-.2l-.2-.06-.27.03-.57.06-.47.06-.25.04-.14.1-.2.06-.1.06-.16.2-.12.1-.04.2v.3l.04.2.14.13.13.04.1.1.27.08.27.06.3.1.84.2 1.13.2.6.12.57.12.5.1.44.2.4.13.3.17.4.13.27.26.25.18.2.2.1.26.1.3.17.26.05.3.14.4v.74l-.08.4-.06.38-.13.38-.16.3-.13.4-.26.3-.3.32-.14.13-.2.2-.17.14-.2.12-.45.2-.42.17-.5.2-.56.04-.56.12-.6.06H160l-.5-.06-.5-.13-.46-.05-.47-.1-.38-.25-.4-.2-.3-.26-.36-.26-.3-.3-.2-.3-.25-.3-.26-.4-.12-.4m19.53-9.35l.2-.06h.24l.3-.05h.5l.32.06h.25l.23.08.2.06.3.1.16.13.25.07.2.1.25.14.2.13.12.15.24.2.14.1.38.4.3.43.17.2.1.23.12.27.14.24.06.27.13.26v.3l.12.26v.3l.06.3v.3l.1.33-.04.7-.1.63-.1.77-.08.62-.15.3-.14.33-.05.3-.12.25-.1.33-.13.2-.2.25-.1.3-.2.24-.2.2-.1.17-.2.2-.46.37-.43.26-.16.15-.2.13-.26.07-.2.06-.25.1h-.25l-.2.08-.24.08h-.94l-.14-.03v-2.6h.2l.2-.04.25-.05.26-.06.2-.13.26-.2.2-.14.2-.25.18-.25.14-.25.18-.37.07-.3.13-.4.06-.44.04-.44.06-.44V23l-.06-.4v-.37l-.13-.34-.1-.3-.13-.22-.2-.25-.1-.2-.2-.18-.24-.12-.2-.2-.23-.04-.18-.06-.3-.07h-.4V18zm-4.86-.63l2.82.4-.2 1.7.14-.2.2-.18.17-.2.25-.12.2-.2.2-.1.23-.12.26-.13.25-.07.26-.14h.1v2.26h-.3l-.3.06-.26.1-.2.14-.24.13-.2.2-.26.23-.2.2-.12.3-.12.33-.1.3-.15.4-.06.37-.07.38-.05.5v.9l.06.38.08.4.04.3.14.3.18.26.12.26.2.2.18.24.26.12.2.13.26.1.25.08.26.07h.37v2.53h-.12l-.23-.07-.2-.03-.22-.07-.2-.05-.17-.12-.2-.04-.18-.13-.2-.1-.2-.1-.2-.2.12-.16-.4-.45-.37-.46-.7 5.96-3.02-.4 1.9-16.3zm18.36 2.9c3.85-.2 6.46 3.5 5.93 7.1-.3 1.84-1.27 3-2.55 4.3-.54.53-1.77.9-2.5 1-.4.02-.9.14-.9-.3v-2.1c0-.27.62-.25.88-.4.36-.2.75-.42 1.02-.72.62-.7.8-1.74.96-2.63.2-1.07-.15-1.76-.6-2.67-.3-.6-1.63-1.2-2.25-.96v-2.6zM182.9 25c.2-1.94 1.74-3.55 3.4-4.4.4-.2.87-.2 1.3-.3.26-.03.5-.03.76-.03.37 0 .28.04.28.4v2.02c0 .3-.8.3-1.07.5-.8.6-1.2 1.2-1.53 2.2-.28.9-.35 2 0 2.9.27.7.96 1.43 1.72 1.6.26.03.92 0 .92.25v2.17c0 .65-1.86 0-2.27-.2-.8-.43-1.6-.84-2.3-1.55-1.4-1.47-1.6-3.75-1.14-5.6zm15.22 11l-2.84-1.2 4.48-10.87 2.66 1.08-.63 1.6.5-.35.5-.26.2-.13.13-.07.3-.05.1-.03h.7l.3.07.4.12.25.13.2.13.24.12.2.2.17.2.2.2.2.16.2.17-1.98 2.15-.26-.3-.24-.33-.12-.15-.2-.1-.1-.13-.1-.08-.34-.13-.32-.05h-.37l-.1.05-.2.1-.13.05-.13.07-.1.12-.3.24-.3.37-.13.26-.2.27-.2.38-.2.38-.5 1-.5 1.28m14.03-1.96l-1.16 2.2-1.83-1.06-2.24 4.2-.3.64-.2.44-.14.26-.1.26v.24l.07.07v.1l.06.14.13.1.06.1.12.04.24.12.3.04.3.13.38.05-.9 2.26-.3-.05-.26-.08-.3-.07-.25-.02-.35-.13-.3-.1-.26-.13-.3-.2-.34-.17-.3-.27-.3-.25-.26-.3-.2-.25-.12-.22-.1-.32v-.24l-.07-.3.03-.3.05-.34.14-.38.13-.32.2-.44.23-.5.4-.7 2.4-4.54-1.2-.7 1.2-2.15 1.2.65 1.14-2.02 3.53-.06-1.95 3.65m5.93 14.04l1.9 1.8-.4.24-.35.27-.35.1-.38.2-.3.13h-.06v-2.76zm0-9.55v2.66h.4l.25.06.2.07.26.12.2.13.2.1.2.2.1.18.13.2.05.17.12.2.04.18v.3l.04.24v.23l-.07.26-.04.26-.05.26-.1.25-.14.3-.2.25-1.56-1.08V42l3.03 2.15.24-.38.2-.38.23-.3.2-.4.1-.3.17-.4.13-.3.15-.4.13-.3.1-.33.06-.3.05-.33.06-.3v-.9l-.05-.3-.05-.27-.06-.23-.1-.34-.1-.24-.13-.25-.13-.24-.12-.25-.14-.2-.2-.23-.2-.23-.2-.2-.24-.18-.2-.28-.26-.2-.24-.2-.25-.13-.26-.2-.26-.1-.2-.06-.24-.13-.25-.1-.25-.08-.22-.07h-.24l-.26-.05zm-.3 9.17l.33.4v2.76l-.32.06-.36.1h-.8l-.38-.08-.37-.1-.4-.14-.4-.14-.37-.2-.46-.24-.33-.25-.32-.26-.3-.2-.25-.23-.27-.26-.2-.24-.23-.26-.2-.25-.13-.25-.2-.26-.1-.32-.1-.23-.13-.35-.06-.26-.06-.33v-1.7l.13-.57.2-.44.1-.5.3-.5.24-.5.34-.52.2-.3.17-.33.26-.2.2-.22.25-.3.2-.24.25-.2.24-.18.2-.2.23-.15.24-.12.26-.2.24-.06.24-.13.3-.06.28-.06.25-.08.25-.06h.26l.3-.07.27.06h.27v2.65h-.26l-.25.1h-.2l-.22.12-.26.14-.2.1-.2.2-.2.26-.16.2-.2.26 2.15 1.57V42l-3.3-2.4-.2.3-.1.27-.14.32-.04.2-.07.3-.08.23v.25l.08.32v.2l.06.26.1.28.1.17.13.2.12.3.2.1.25.2.16.12.12.07.2.02.1.05h.15l.2.07h.32l.1-.05h.2l.2-.1.1-.06.2-.08.1-.13.2-.1.2-.12zM234.4 60l1 3.24-.57.2-.62.18-.54.14h-.6l-.26.07h-.58l-.24-.1h-.25l-.25-.05-.26-.06-.33-.1-.26-.06-.2-.13-.22-.04-.24-.16-.44-.3-.46-.33-.44-.3-.45-.5-.37-.42-.4-.5-.24-.4-.2-.33-.2-.3-.2-.4-.1-.3-.15-.4-.1-.3-.07-.3-.07-.4-.06-.36-.05-.37V55.8l.07-.4.06-.37.1-.38.1-.3.06-.4.2-.37.1-.32.17-.38.2-.3.2-.4.25-.3.3-.32.23-.32.3-.25.3-.4.33-.3.37-.3.3-.3.46-.32.4-.25.44-.26.4-.2.36-.24.38-.2.4-.1.45-.15.38-.1.4-.14.4-.05.38-.07h1.17l.4.06h.38l.37.15.32.05.36.1.3.16.3.13.4.2.23.2.35.2.3.24.33.25.23.24.28.25.27.32.3.32.28.3.2.33.2.3.18.32.14.32.2.32.1.32.06.22.13.3.07.3.06.33.06.3v.3l.03.3v.34l-.05.3v.33l-.1.4-.05.43-.2.36-.1.4-.2.36-.25.4-.24.43-.22.36-2.5-2.2.2-.23.17-.27.1-.26.1-.26.17-.28.07-.3.06-.26V54l-.08-.3-.04-.26-.13-.3-.1-.27-.12-.25-.2-.27-.23-.37-.3-.32-.3-.24-.33-.2-.4-.2-.4-.1-.36-.13-.35-.1h-.7l-.2.04h-.24l-.22.12-.2.03-.23.06-.5.27-.56.25-.5.35-.6.4-.64.43-.5.44-.42.44-.4.45-.16.24-.12.2-.1.26-.13.2-.14.18-.07.25-.06.2-.06.2-.1.43v.8l.07.4.13.36.1.4.2.37.25.4.2.25.17.25.26.2.2.17.24.14.33.14.24.12.3.07.3.07h.66l.3-.05.4-.07.37-.07.4-.12m-1.64 8.8l14.64-6.47 1.2 2.9-14.65 6.47M237.42 82l1.7-.5-.3-.05-.26-.15-.26-.12-.2-.1-.2-.2-.2-.1-.25-.2-.2-.24-.2-.2-.2-.25-.17-.2-.13-.3-.13-.3-.1-.26-.07-.24-.1-.24-.08-.3-.07-.25v-.3l-.05-.25V77l.06-.3v-.26l.07-.24.06-.25.03-.26.14-.24.13-.2.16-.25.1-.2.2-.17.17-.14.2-.2.25-.17.26-.13.25-.2.3-.02.33-.2.4-.1.35-.14 7.03-2 .8 2.96-5.07 1.5-1.07.3-.8.34-.3.14-.26.07-.26.13-.14.05-.2.2-.2.17-.17.26-.05.23-.12.25v.63l.13.3.07.2.07.2.1.12.14.2.1.2.12.12.1.13.14.1.2.14.1.06.13.12.2.04.1.05.2.05h.7l.33-.04.38-.05.83-.2 1.13-.3 4.67-1.4.82 2.96-11.1 3.3m7.23 1.8l8.98-1.64.6 3.1-5.7 1.08.47.25.38.3.2.2.14.2.2.12.1.2.14.18.1.2.14.27.07.2.1.18.1.25.05.24v.24l.1.5v.77l-.07.24-.06.26v.25l-.05.2-.06.28-.1.2-.06.2-.14.2-.12.24-.1.2-.2.24-.1.2-.2.2-.2.2-.2.17-.22.13-.2.2-.25.13-.24.2-.26.1-.26.14-.3.12-.32.02-.56.2-.68.1-.77.12-.3.05v-3.1l.33-.06.5-.1.44-.15.38-.1.38-.2.33-.2.24-.1.27-.25.16-.2.2-.25.13-.2.1-.25.06-.25.07-.23V92l-.08-.25-.04-.25-.14-.27-.14-.2-.2-.18-.16-.18-.2-.2-.26-.12-.24-.2-.27-.05-.34-.13h-.3l-.4-.06-.3.1h-.43l-.13.1v-3.3zm-6.8 1.3l6.76-1.26V90h-.24l-.47.08-.4.12-.37.13-.33.12-.3.1-.26.2-.25.13-.2.2-.26.25-.2.25-.2.26-.1.3-.07.34-.06.3v.33l.1.34.06.24.05.25.13.2.12.16.12.27.18.12.27.2.18.1.26.12.3.12.3.08h.36l.38.07.38-.06h.54v3.22h-1.26l-.3-.07-.3-.08h-.3l-.33-.12-.26-.02-.25-.1-.26-.1-.27-.14-.2-.13-.26-.1-.18-.2-.2-.1-.2-.2-.2-.2-.18-.2-.12-.1-.13-.27-.13-.16-.13-.2-.1-.22-.07-.2-.1-.25-.07-.27-.07-.2-.08-.26v-1.4l.06-.2.07-.32.06-.24.07-.22.13-.3.04-.25.2-.26.16-.25.2-.2.1-.26.26-.25-1.7.3-.5-2.85zm10.05 13.65l.17.06.35.14.25.1.25.14.25.2.24.1.2.2.26.2.2.2.18.2.2.16.12.2.2.24.1.2.14.26.14.25.12.27.06.26.08.2.07.3.07.26.05.24v.34l.03.23v.3l-.04.3v.35l-.05.3v.26l-.14.3-.05.35-.06.26-.14.25-.1.24-.13.25-.12.23-.13.25-.2.2-.16.2-.2.2-.17.17-.26.2-.26.2-.24.2-.27.1-.26.13-.34.15-.3.06-.08.05v-2.96l.04-.06.16-.14.2-.1.18-.18.2-.2.12-.2.13-.2.05-.18.13-.2.04-.25v-.2l.05-.24-.07-.25v-.2l-.04-.24-.1-.24-.1-.2-.14-.18-.12-.2-.2-.2-.2-.13-.2-.2-.2-.1h-.06v-3.14zm-4.5 7.4l-.57 3.1-.36-.2-.4-.13-.4-.3-.3-.2-.32-.3-.25-.26-.25-.3-.27-.35-.17-.3-.2-.4-.12-.35-.12-.4-.05-.45-.06-.42-.1-.44v-.8l.1-.4.07-.35.05-.34.07-.37.05-.3.13-.3.13-.3.1-.28.15-.25.2-.24.17-.25.2-.26.2-.2.26-.18.24-.26.4-.2.4-.22.46-.2.5-.2.5-.1.52-.1.56-.05h1l.3.06h.33l.3.1.33.06.3.07.3.1.1.04v3.16l-.2-.1-.26-.03-.3-.06h-.27l-.3-.06-.05 4.74.3-.07h.35l.25-.05.3-.08.2-.05v3l-.28.05-.32.07-.36.1-.34.06-.35.06h-.8l-.4.06-.42-.08.15-7.83h-.38l-.35.05-.25.04-.3.06-.26.1-.2.1-.23.2-.18.1-.2.2-.14.2-.2.23-.04.17-.1.27-.08.26v1l.05.2.05.1.04.14.05.2.08.13.13.1.14.06.1.12.14.13.2.07.2.05.2.15.2.05z"/><path fill-rule="evenodd" clip-rule="evenodd" fill="#2C2925" d="M89.34 137.35l.44-.06.44-.1.38-.2.44-.12.38-.2.38-.18.32-.27.3-.3.27-.34.3-.37.2-.3.1-.4.12-.45.12-.4.06-.44v-.87l-.07-.5-.13-.4-.1-.43-.2-.4-.2-.37-.3-.3-.25-.3-.3-.3-.33-.2-.36-.24-.37-.2-.46-.1-.38-.14-.46-.05-.44-.06-.5.03-.46.08-.4.14-.4.13-.4.2-.4.24-.3.2-.32.3-.25.33-.3.3-.2.38-.2.4-.1.43-.1.38-.1.5v.9l.1.45.1.36.15.45.2.4.2.3.33.4.28.3.3.3.33.27.4.2.4.18.4.14.4.13.46.06m152.93.05l.42-.03.48-.08.43-.14.45-.12.37-.2.4-.15.3-.27.33-.3.32-.32.2-.37.24-.3.2-.4.14-.44.13-.4.06-.43.1-.45-.05-.45-.1-.5-.1-.4-.14-.42-.2-.37-.24-.4-.2-.3-.3-.32-.33-.3-.3-.2-.4-.26-.4-.2-.45-.1-.45-.1-.45-.07-.45-.06-.43.07-.43.1-.4.12-.43.12-.4.2-.3.25-.4.2-.3.3-.3.34-.26.3-.2.38-.15.4-.2.45-.08.37-.07.5-.05.47.05.42.03.45.04.38.2.44.18.38.2.3.24.4.3.3.3.32.4.26.3.2.4.18.42.14.38.15.47.05"/><path fill-rule="evenodd" clip-rule="evenodd" fill="#ED1C24" d="M226.82 170.02v-2.46c0-.4.1-.2.46-.38.9-.47 1.43-1.67 1.1-2.62-.23-.72-.85-1.28-1.37-1.8l-.1.3v-4.6c2.17 1.74 3.66 4.84 6.4 5.75l-1.4 1.4-.7.68c-.2.17-.88-.6-1.1-.6-.2 1.93-1.25 3.8-3.18 4.43m0-11.56v4.25c0 .87-.9 1.63-1.3 2.35-.3.46-.5.9-.3 1.46.2.54 1.03 1.1 1.6.8v2.47c0 .4-.23.32-.63.37-2.78.3-4.25-2.7-3.03-4.9.63-1.15 1.5-2.1 2.16-3.2.18-.3.44-.57.2-.87-.26-.37-.73-.65-1.2-.65-.9 0-1.76 1.1-2.06 1.85-.08.37.32 1.2.1 1.36l-.7.48v-4.7c0-.3 1.23-1.04 1.5-1.2 1.2-.75 2.53-.74 3.6.17M221.7 174c.67-.5 1.35-.97 2-1.46l-2-2.78V174zm0-14.47v3.68c0 .2.1 1-.02 1.1-.48.3-.96.6-1.43.97-.5-1-.8-2.2-.36-3.3.2-.5 1.2-2.37 1.8-2.37m0 10.2c-1-1.4-2-2.9-3.2-4.15-1.16-1.2-2.98-1.02-4.27-.2-1.37.88-2 2.25-2.1 3.85l-.94-1.35c-.6.2-.26 2.56-.26 3.1 0 .93 0 1.13.5 1.85l4.07 5.58 2.04-1.48c.5-.4-.05-.7-.4-1.2-1.1-1.57-2.8-3.35-3.5-5.17-.62-1.67 1.08-3.75 2.8-2.72.8.5 1.3 1.5 1.83 2.2l3.04 4.17c.6-.27.33-1.48.33-1.98v-2.53zM211 180.9v-4.76l1.62 3.1c.22.4.44.5.04.72l-1.7.92zm0-12.78v4.1l-2-2.7 1.97-1.4zm0 8.03l-3.2-6c0-.03-2.45 1-2.45 1.27 0 .74.58 1.46.92 2.1l3.92 7.4c.2.35.2.2.6 0 .3-.15.13-.8.13-1.13v-3.7zm-5.65 7.7v-.43c.12.16.16.33 0 .43zm0-14.2v-1.55c0-.3-.18-1.28 0-1.55.4-.62.73.35.85.6.3.53.58 1.07.87 1.6l-1.7.9zm0-3.1V169c0 .25.1.57-.14.7-.2.1-.63.5-.8.23-.1-.2-1.2-2.2-1.14-2.2l2.13-1.2zm0 4.8v.44c-.08-.1-.14-.3-.2-.4l.2-.1zm0 12.07c.2.8-1.9 1.3-2.53 1.57-.95-2.2-1.9-4.37-2.87-6.5-.35-.8-.3-1.4-.3-2.3v-1.86c0-.2.96-.52 1.15-.62l.64 1.5c.12-.8.3-1.67.9-2.25.38-.36.8-.58 1.32-.68.13 0 1.3-.17 1.32-.04.1.9.16 1.8.24 2.7-1.33-.3-2.5.5-2.43 1.9.02 1 .5 1.96.9 2.9.5 1.22 1.1 2.44 1.62 3.7zm-5.7 3.15c.46-.14.9-.3 1.34-.43-.6-.62-1.08-1.32-1.36-2.15v2.6zm0-12.25v3.54l-1.3-2.98c.43-.2.87-.38 1.3-.57zm0 9.67c-.5-1.3-.83-2.7-1.24-4-.5-1.7-1-3.47-3.1-3.6-.9-.1-.6.62-.6 1.4v1c0 .3.36.3.5.6.3.5.47.8 0 1.1-.4.23-.5.2-.5.6v1.73c.5-.24.95-.54 1.4-.82.5 1.44.84 2.9-.7 3.83-.73.42-.7.24-.7 1.08v1.37c1.2-.4 2.2-1.3 2.78-2.4.44.44.46 1.14 1.14.94.1-.03 1.1-.25 1.1-.34v-2.57zm-4.98-7.56V179c-.4-.35-1.47-.03-1.93.17-.77.35-1.1.95-1.1 1.78-.15.18-.95.1-1.15.16l-1.18.16c0-.93-.2-1.9.3-2.67 1.1-1.34 3.3-2.1 5-2.1m0 4.36c-1.25.9-2.9 1.3-3.94 2.5-1.1 1.27-.97 3.18.2 4.35.44.46 1.02.76 1.7.86.2.04 2.02.05 2.02-.2v-2.13c-.77.13-1.6-.3-1.84-1.07-.3-.87.5-1.37 1.1-1.75.64-.43.7-.4.7-1.13v-1.4zm-5.3 8.68v-1.57c.1.22.16.46.25.7.2.54.26.53-.26.87m0-10.42c0 .58.4 2.3-.42 2.2 0-.73.1-1.5.44-2.2m0 8.86l-.3-.9c-.74.55-1.66.94-2.03-.17-.2-.6-.33-1.25-.47-1.9-.3-1.2-.55-2.4-.83-3.6.2-.03 1.97-.4 1.96-.45l-.5-2.25-1.5.32c-.53.1-.44.1-.57-.42l-.76-3.28-1.67 1.55-.78.74c-.14.1.1.68.13.8l.3 1.3c.07.24-.47.03-.47.27v2.33l1-.25c.4 1.65.74 3.34 1.16 5 .47 1.8 1 3.43 3.26 3.13.36-.06 2.1-.4 2.1-.83-.03-.5-.03-.97-.03-1.45zm-7.5 3.4v-1.95c0 .58.46 1.4.76 1.88l-.74.1zm0-11.43v2.33c0 .1-.3.13-.3.1l-.4-1.83c-.16-.63.1-.5.7-.63zm0 9.5c-.4-1.5-.4-3.2-.53-4.75-.08-.85-.17-1.8-.55-2.6-.54-1.2-2.05-1.54-3.25-1.6-.44 0-.7-.14-.7.3v1.98c0-.17 1.2.4 1.33.6.13.2.4.86.24 1.13-.2.1-1.6.55-1.6.65v1.9c.6-.13 1.2-.4 1.78-.63.16 1.37.4 2.6-.98 3.4-.72.4-.8.2-.8 1v1.3c.96-.2 1.9-.9 2.48-1.63 0 .5.33 1.2.85 1.15l1.55-.2c.4-.05.2-1.57.2-1.98zm-5.05-8.93v1.7c0 .06.07.5 0 .56-.54 0-1.34.1-1.76.5-.16.1-.6 1.13-.6 1.14l-.87-.06c-.6-.04-1.22-.1-1.83-.12.16-1.1.64-2.2 1.62-2.8 1.1-.67 2.25-.55 3.4-.93m0 4.6v1.7c0 .5-1.65.7-1.9 1.47-.16.58.07 1.18.5 1.5.28.2.57.35.9.37-.1 0 .5-.04.5-.02.2.2 0 1.5 0 1.77 0 .7-2.18.4-2.65.23-1.1-.35-1.93-1.3-2.1-2.44-.5-3.14 2.44-3.8 4.74-4.56m-31.5 4.74v-.9c0-.5-.17-.8.36-.95 1.3-.4 1.5-1.6 1.8-2.8h-1.9c-.5 0-.28-1.4-.28-1.84.7.02 1.38.05 2.06 0 .62-.06.7-.3.66-.96-.04-1.24-1.74-1.6-2.72-1.42v-2.33c1.5 0 3.7.44 4.8 1.55 1.14 1.1.9 2.6.58 4-.5 2.1-1.62 4.8-.92 6.9l-2-.42-.83-.17c-.1-.03-.12-1.13-.12-1.27-.5.22-.96.5-1.48.6m22.4-2.9c.9.3 1.82.6 2.74.92.5.18-.27 1.42-.47 1.8-.5.85-1.14 1.56-1.95 2.1-3.48 2.4-8.52.6-10-3.23-1.4-3.6-.6-8.6 2.9-10.7 3.67-2.14 8.73-.6 9.8 3.68l-3.1.7c-.33-2.14-2.6-3.15-4.52-2.4-2.1.8-2.53 3.3-2.48 5.24.04 1.9.42 4.2 2.5 4.9 2.37.76 3.98-.96 4.57-3.06m-22.3-8.37v2.23c0 .12-.7.43-.8.57-.2.2-.3.54-.56.4l-.84-.34c-.5-.2-1-.4-1.5-.64.78-1.43 2-2.2 3.6-2.2m0 4.66v1.8c0 .02-1 .1-1.14.13-2.04.4-.66 3.2 1.14 2.8v1.47c0 .77-1.25.5-1.82.4-.4-.03-2.46-.5-2.46-1.12v-4.4c0-.45 1.4-.9 1.7-.94.87-.1 1.75-.06 2.6-.06zm-4.3-3.4c.06 0 .1.03.15.06l.7-2.25-.84-.24v2.4zm0-6c-.02-.2-.03-.42.15-.52l-.14.5zm0-.45c.1 1.16-.7 2.56-1.05 3.65 0 .03 1.06.23 1.06.66v2.1c-.2-.06-1.73-.6-1.76-.5l-.75 2.25-.64 1.94c-.15.48-.58 1.26-.4 1.77.2.7 1.15.66 1.72.6l-.3 1.52-.16.7c-.03.22-1.1.03-1.3 0-1.08-.2-2.2-.56-2.8-1.5-.3-.47-.13-1.3-.13-1.83 0-1 .6-2.2.9-3.15l1.1-3.2-1.35-.45.76-2.2 1.27.46c.13-.5.33-2 .9-2.1l2.92-.66zm0 10.86c-1.02 1.2-1.2 3.2 0 4.4v-4.4zm-6.5-6.78v-1.9 1.9zm0-1.9v1.7c0 .6-.45 1.27-.7 1.82l-1.55 3.2-1.4 2.9-2.67-1.25c1.1-2.27 2.46-4.57 3.25-6.96.36-1.1-.47-2-1.48-2.24-1.2-.3-2.1.5-2.7 1.4-.72 1.25-1.3 2.57-1.9 3.85-.3.6-.56 1.17-.84 1.76-.24.5-.55.1-1.02-.1-.5-.22-.4-.35-.4-.9v-2.37c0-.77.5-1.43.83-2.12l2.04-4.14c.1-.15.53-1.28.7-1.2l2.4 1.1-.77 1.5c2.1-1.1 5.36-.47 6.2 2.03m0 8.9c-.15.42-.4 1.45 0 1.83v-1.83zM123 173.8c.54-.7 1.15-1.54 1.36-2.4.25-1.13-.6-2.33-1.38-3v5.42zm-5.5-13.94c.5 1.14.52 2.4 0 3.53v-3.58zm5.5 8.52v5.4c0 .14-.3.4-.38.53l-1.1 1.5c-.83 1.16-1.72 2.47-1.9 3.9l-1.8-1.25c-.62-.45-.2-1-.2-1.64-.05 0-.1.04-.13.08v-.78c0-.5-.2-.77.3-.85.96-.15 1.44-1.25 2.02-1.93-.48-.18-2.34-.65-2.34-1.1v-1.83c.9.3 1.74.8 2.66 1.1.73.25 1.13.14 1.3-.77.14-.9-.93-1.63-1.63-1.94-.34-.14-.73-.2-1.1-.07-.35.1-.64.5-.9.2-.6-.57-.3-1.76-.3-2.54 0-.6 2.2-.1 2.5 0 1.06.4 2.2 1.1 3 1.92m0 9.6l-1.18 2.4c-.16.3-.33.4 0 .54l1.17.6V178zm-7.97-21.1c.97.64 1.82 1.65 2.34 2.7.2.4.1.9.1 1.35v2c0 .7-.36 1.17-.8 1.7l-1.63-1.37c-.15-.12 0-1.3 0-1.5v-4.9zm2.46 9.53v2.28l-1.45-1.45c.45-.37.93-.66 1.45-.85m0 4.05v2.03c-.95-.4-2.35-.3-2.3 1.05 0 .55.3 1.05.74 1.34.14.1 1.57.6 1.57.5v.93c0 .67 0 .63-.75.64-.2 0-1.73-.1-1.73-.3V170c0-.52 2.2.3 2.48.4m0 6.88v.9c-.42-.15-.12-.6 0-.9M104 160.8l2.35 1.8c-.1-.08-.72 2.04-.65 2.43.1 1.1 1.02 2.08 1.92 2.66.75.4 1.9.6 2.62 0 .84-.7.67-1.57.2-2.4-.93-1.77-2.48-3.4-2.76-5.4-.3-2.1.9-4.1 3-4.58 1.1-.28 2.22.02 3.2.53.48.25 1.3.6 1.3 1.2v6.1c-.15-.13-.66-.45-.7-.63.46-.64.7-1.5.38-2.25-.42-1-2.48-3.1-3.7-2.1-1.14.97.1 2.6.7 3.5.96 1.4 2.23 3.16 2.16 4.94-.06 1.67-1.15 3.3-2.68 3.97-1.75.78-3.47.36-5-.67-1.43-.96-2.78-2.34-3.4-4-.68-1.8-.04-3.7 1.06-5.22m11.18 9.16c-1.54 0-2.8 1.74-2.8 3.16 0 1.63 1.37 2.96 2.8 3.53v-6.7z"/></svg>