<svg id="Layer_1" xmlns="http://www.w3.org/2000/svg" viewBox="-190.4 303.1 155.6 187.1"><style>.st0{fill:#FFFFFF;} .st1{fill:#CD3529;} .st2{fill:none;stroke:#000000;stroke-width:2.0521;stroke-miterlimit:2.6131;} .st3{fill:none;stroke:#000000;stroke-width:1.0256;stroke-linecap:round;stroke-linejoin:round;stroke-miterlimit:2.6131;}</style><path d="M-153.8 326.4h-26.4c-3.6 0-10.3 2.5-10.3 11.3 0 .6.2 6.3 4.4 9.5v59.6c0 .3.2 6.2 4.2 10.2l-.1-.1 61.6 69.5c.1.2 3.4 3.8 7.8 3.8s7.6-3.6 7.8-3.8l61.6-69.5-.1.1c4-4 4.2-9.9 4.2-10.1v-59.6c4.2-3.1 4.4-8.8 4.4-9.5v-.1c0-8.8-6.7-11.2-10.2-11.3h-26.4C-80 312-95.6 303-112.5 303c-17 .1-32.6 9-41.3 23.4zm36.5 157.3l-61.6-69.5c-2.8-2.8-3-7.3-3-7.3v-61.8l-1.1-.6c-3.3-1.8-3.3-6.6-3.3-6.6 0-6.7 5.2-7.2 6.2-7.2h28.6l.6-1c7.8-13.8 22.5-22.3 38.3-22.3 15.8 0 30.5 8.5 38.3 22.3l.6 1H-45c1 0 6.2.5 6.2 7.2 0 .1 0 4.9-3.3 6.6l-1.1.6v61.8s-.2 4.5-3 7.3l-61.6 69.6s-2.2 2.4-4.7 2.4c-2.6-.1-4.8-2.5-4.8-2.5z"/><path class="st0" d="M-45.1 328.5h-27.5c-.1-.1-.1-.2-.2-.4-.4-.6-.7-1.2-1.1-1.9-.1-.2-.2-.3-.3-.5-.5-.8-1-1.5-1.6-2.3l-.1-.1c-.5-.7-1.1-1.4-1.6-2-.1-.2-.3-.3-.4-.5-.5-.6-1-1.2-1.6-1.7l-.3-.3c-.7-.7-1.3-1.3-2-1.9l-.2-.2-1.9-1.6c-.2-.1-.3-.3-.5-.4-.6-.5-1.3-1-1.9-1.4-.1-.1-.2-.1-.3-.2l-2.4-1.5c-.1-.1-.2-.1-.4-.2-.7-.4-1.4-.8-2-1.1l-.6-.3c-.7-.4-1.5-.7-2.2-1-.1 0-.2-.1-.3-.1-.9-.4-1.7-.7-2.6-1-.2-.1-.4-.1-.6-.2-.7-.2-1.4-.5-2.1-.7-.2-.1-.5-.1-.7-.2l-2.5-.6c-.1 0-.2 0-.2-.1-.9-.2-1.8-.3-2.8-.5-.3 0-.5-.1-.8-.1-.7-.1-1.4-.2-2.1-.2-.3 0-.5 0-.8-.1-.9-.1-1.9-.1-2.9-.1s-1.9 0-2.9.1c-.3 0-.5 0-.8.1-.7.1-1.4.1-2.1.2-.3 0-.5.1-.8.1-.9.1-1.9.3-2.8.5-.1 0-.2 0-.2.1l-2.5.6c-.2.1-.5.1-.7.2-.7.2-1.4.4-2.1.7-.2.1-.4.1-.6.2-.9.3-1.7.6-2.6 1-.1 0-.2.1-.3.1-.8.3-1.5.7-2.2 1l-.6.3c-.7.4-1.4.7-2 1.1-.1.1-.3.1-.4.2-.8.5-1.6 1-2.3 1.5-.1.1-.2.1-.3.2-.7.5-1.3.9-1.9 1.4-.2.1-.3.3-.5.4-.6.5-1.3 1-1.9 1.6l-.2.2c-.7.6-1.4 1.3-2 1.9l-.3.3c-.5.6-1.1 1.1-1.6 1.7-.1.2-.3.3-.4.5-.6.7-1.1 1.3-1.6 2l-.1.1c-.6.7-1.1 1.5-1.6 2.3-.1.2-.2.3-.3.5-.4.6-.8 1.2-1.1 1.9-.1.1-.2.2-.2.4H-180s-8.2.1-8.2 9.2c0 0-.1 6.1 4.4 8.5v60.6s.1 5.3 3.6 8.7l61.6 69.5s2.7 3.1 6.2 3.1 6.2-3.1 6.2-3.1l61.6-69.5c3.5-3.5 3.6-8.7 3.6-8.7v-60.6c4.4-2.4 4.4-8.5 4.4-8.5-.3-9.1-8.5-9.2-8.5-9.2zm-97.4 119.9l-30.6-34.2c-3.8-3.8-4.1-11.5-4.1-11.5v-54c0-9.7-5.3-13.7-5.3-13.7h26.7c-1.9 5-2.9 10.4-2.9 16.1 0 14 6.3 26.6 16.2 35v62.3zm94.4-99.6v54s-.3 7.7-4.1 11.5l-30.6 34.2v-62.3c9.9-8.4 16.2-21 16.2-35 0-5.7-1-11.1-2.9-16.1h26.7s-5.3 3.9-5.3 13.7z"/><path class="st0" d="M-89.4 311.4c.1.1.2.1.4.2-.1 0-.3-.1-.4-.2zm-32.8-5.3c.1 0 .2 0 .2-.1-.1.1-.1.1-.2.1zM-92 310l.6.3-.6-.3zm5.3 3.1c.1.1.2.1.3.2-.1 0-.2-.1-.3-.2zm2.3 1.7c.2.1.3.3.5.4-.2-.2-.4-.3-.5-.4zm-43.7-7c.2-.1.4-.1.6-.2-.2.1-.4.1-.6.2zm2.7-.8c.2-.1.5-.1.7-.2-.2 0-.5.1-.7.2zm9.1-1.7c.3 0 .5 0 .8-.1-.3 0-.5.1-.8.1zm15.8 1.4c.2.1.5.1.7.2-.3 0-.5-.1-.7-.2zm-9.3-1.5c.3 0 .5 0 .8.1-.2 0-.5-.1-.8-.1zm3 .3c.3 0 .5.1.8.1-.3 0-.5-.1-.8-.1zm9.1 2.1c.2.1.4.1.6.2-.2-.1-.4-.1-.6-.2zm-21.5-2c.3 0 .5-.1.8-.1-.3 0-.6.1-.8.1zm24.7 3.2c.1 0 .2.1.3.1-.2 0-.3 0-.3-.1zm-36.5.1c.1 0 .2-.1.3-.1-.1.1-.2.1-.3.1zm-14.7 10.3l.3-.3-.3.3zm-2 2.2c.1-.2.3-.3.4-.5-.1.2-.3.3-.4.5zm4.3-4.5l.2-.2c-.1.1-.1.2-.2.2zm-6 6.6l.1-.1-.1.1zm67.3-6.7l.2.2c0-.1-.1-.2-.2-.2zm7.9 9c.1.2.2.3.3.5-.1-.2-.2-.4-.3-.5zm-77.1.5c.1-.2.2-.3.3-.5-.1.1-.2.3-.3.5zm48-20.2c.1 0 .2 0 .2.1 0-.1-.1-.1-.2-.1zm23.5 12.8l.3.3-.3-.3zm-56.4-7.3c.1-.1.3-.1.4-.2-.2.1-.3.2-.4.2zm2.4-1.3l.6-.3-.6.3zm57.9 13.1l.1.1c-.1 0-.1-.1-.1-.1zm-2.1-2.5c.1.2.3.3.4.5-.1-.2-.2-.3-.4-.5zm-63.3-5.7c.2-.1.3-.3.5-.4-.2.1-.3.2-.5.4zm2.4-1.8c.1-.1.2-.1.3-.2-.1 0-.2.1-.3.2z"/><path d="M-158.6 351.2c0-5.7 1-11.1 2.9-16.1h-26.7s5.3 3.9 5.3 13.7v54s.3 7.7 4.1 11.5l30.6 34.2v-62.3c-10-8.5-16.2-21-16.2-35z"/><path class="st1" d="M-82.8 386.2v62.3l30.6-34.2c3.8-3.8 4.1-11.5 4.1-11.5v-54c0-9.7 5.3-13.7 5.3-13.7h-26.7c1.9 5 2.9 10.4 2.9 16.1 0 14-6.3 26.5-16.2 35z"/><path class="st0" d="M-77.5 321.4c.6.7 1.1 1.3 1.6 2-.5-.7-1.1-1.4-1.6-2zm-63.3-6.6c.6-.5 1.3-1 1.9-1.4-.6.4-1.3.9-1.9 1.4zm2.2-1.7c.8-.5 1.6-1 2.3-1.5-.7.5-1.5 1-2.3 1.5zm2.8-1.7c.7-.4 1.3-.8 2-1.1-.7.4-1.4.7-2 1.1zm60 12.1c.6.7 1.1 1.5 1.6 2.3-.6-.8-1.1-1.6-1.6-2.3zm-6.1-6.6c.7.6 1.4 1.3 2 1.9-.6-.6-1.3-1.2-2-1.9zm2.4 2.3c.5.6 1.1 1.1 1.6 1.7-.6-.6-1.1-1.2-1.6-1.7zm-69.8 4.2c.5-.7 1.1-1.3 1.6-2-.6.6-1.1 1.3-1.6 2zm6.1-6.6c.6-.5 1.2-1.1 1.9-1.6-.6.5-1.3 1-1.9 1.6zm10-6.8c.7-.4 1.5-.7 2.2-1-.7.3-1.5.6-2.2 1zm-19.3 18.1c.4-.6.7-1.2 1.1-1.9-.3.7-.7 1.3-1.1 1.9zm1.5-2.3c.5-.8 1-1.5 1.6-2.3-.6.7-1.1 1.5-1.6 2.3zm77.1.5c.4.6.8 1.2 1.1 1.9-.3-.7-.7-1.3-1.1-1.9zm-73.4-5.4c.5-.6 1-1.1 1.6-1.7-.6.5-1.1 1.1-1.6 1.7zm1.9-2c.7-.7 1.3-1.3 2-1.9-.7.6-1.4 1.2-2 1.9zm29.9-13.7c1-.1 1.9-.1 2.9-.1-1 0-1.9.1-2.9.1zm18.4 2.6c.9.3 1.7.6 2.6 1-.9-.3-1.8-.7-2.6-1zm-8.9-2.2c.9.1 1.9.3 2.8.5-1-.2-1.9-.4-2.8-.5zm-12.5-.1c.7-.1 1.4-.2 2.1-.2-.6 0-1.3.1-2.1.2zm5.9-.4c1 0 1.9 0 2.9.1-1 0-2-.1-2.9-.1zm18.3 3.8c.8.3 1.5.7 2.2 1-.7-.3-1.4-.6-2.2-1zm-14.6-3.6c.7.1 1.4.1 2.1.2-.7-.1-1.4-.2-2.1-.2zm9.1 1.7c.7.2 1.4.4 2.1.7-.7-.3-1.4-.5-2.1-.7zm15.8 8.2c.6.5 1.3 1 1.9 1.6-.6-.6-1.2-1.1-1.9-1.6zm-2.4-1.8c.7.5 1.3.9 1.9 1.4-.6-.5-1.2-1-1.9-1.4zm-2.6-1.8l2.4 1.5-2.4-1.5zm-33-5.5c.9-.2 1.8-.3 2.8-.5-.9.1-1.9.3-2.8.5zm-5.5 1.5c.7-.2 1.4-.5 2.1-.7-.7.3-1.4.5-2.1.7zm-3.2 1.2c.9-.4 1.7-.7 2.6-1-.9.3-1.7.7-2.6 1zm27.7-2.7l2.5.6c-.9-.2-1.7-.4-2.5-.6zm11.6 4.2c.7.4 1.4.7 2 1.1-.7-.4-1.3-.7-2-1.1zm-33.3-3.6c.8-.2 1.6-.4 2.5-.6l-2.5.6z"/><path class="st2" d="M-80.4 351.2c0 17.8-14.4 32.2-32.2 32.2-17.8 0-32.2-14.4-32.2-32.2 0-17.8 14.4-32.2 32.2-32.2 17.8-.1 32.2 14.4 32.2 32.2"/><path class="st1" d="M-141.9 319.5l1 3.3h3.6l-2.9 2.1 1.1 3.3-2.8-2-2.9 2 1.1-3.3-2.9-2.1h3.6zm17.9-11.3l1.1 3.3h3.5l-2.8 2.1 1.1 3.4-2.9-2.1-2.8 2.1 1-3.4-2.8-2.1h3.5zm-27.2 30.3l1.1 3.3h3.5l-2.8 2.1 1.1 3.3-2.9-2-2.8 2 1.1-3.3-2.9-2.1h3.5zm1 20.5l1.1 3.3h3.6l-2.9 2.1 1.1 3.3-2.9-2-2.8 2 1.1-3.3-2.9-2.1h3.6zm10.8 16.4l1.1 3.3h3.5l-2.8 2.1 1.1 3.4-2.9-2.1-2.8 2.1 1.1-3.4-2.9-2.1h3.5zm56.1-55.9l-1.1 3.3h-3.5l2.8 2.1-1 3.3 2.8-2 2.8 2-1-3.3 2.8-2.1h-3.5zm-18-11.3l-1 3.3h-3.6l2.9 2.1-1.1 3.4 2.8-2.1 2.9 2.1-1.1-3.4 2.9-2.1h-3.6zm27.2 30.3l-1.1 3.3h-3.5l2.9 2.1-1.1 3.3 2.8-2 2.9 2-1.1-3.3 2.8-2.1H-73zm-1 20.5l-1.1 3.3h-3.5l2.8 2.1-1 3.3 2.8-2 2.9 2-1.1-3.3 2.8-2.1H-74zm-10.8 16.4l-1.1 3.3h-3.5l2.9 2.1-1.1 3.4 2.8-2.1 2.9 2.1-1.1-3.4 2.8-2.1h-3.5z"/><path d="M-126 459.6h.2c1.7 0 2.1-.9 2.1-1.5h1.4v8.7h-1.7v-6h-2.1l.1-1.2zm8 1.4c0-1.3.8-1.5 1.2-1.5.9 0 1.3.6 1.3 1.6s-.7 1.5-1.3 1.5c-.5 0-1.2-.3-1.2-1.6zm-1.5 3.8c.1 1.4 1.2 2.3 2.7 2.3 1.6 0 3.2-1.1 3.2-4.5 0-1.2-.1-4.5-3.1-4.5-1.7 0-3 1-3 3.1 0 1.5 1 2.7 2.6 2.7.6 0 1.3-.1 1.7-.7 0 1.8-.7 2.4-1.4 2.4-.5 0-.9-.3-1-.9l-1.7.1zm12.7-5.2c-.8.9-3 3.5-3.2 7.3h-1.8c.2-3.5 2.4-6.3 3.1-7.1h-4.3v-1.5h6.2v1.3zm4.9 4.4c0 1.2-.6 1.7-1.2 1.7-.8 0-1.4-.7-1.4-1.6 0-1.1.7-1.5 1.3-1.5.6 0 1.3.3 1.3 1.4zm1.6-3.7c-.2-.9-.3-1.2-.8-1.6-.4-.4-1.4-.6-1.8-.6-3 0-3.2 2.9-3.2 4.6 0 2.2.5 4.4 3.2 4.4 1.7 0 2.9-1.3 2.9-3.2 0-1.3-.9-2.7-2.7-2.7-1 0-1.4.4-1.6.7.1-1.1.3-2.4 1.4-2.4.6 0 1 .3 1 .8h1.6z"/><path class="st1" d="M-93 343.5c-.3.8-.6 1.2-1.3 1.9-1 .8-2.1 1.4-3.2 1.8-1.1.4-2.2.5-3.2.3-.9-.1-1.7-.4-2.3-.8-.6-.4-1.2-1.1-1.6-1.8L-90 338c-.8-2.1-1.9-3.8-3.4-5.1-1.5-1.3-3.1-2.1-5-2.3-2.9-.4-5.5.3-7.8 2s-3.6 4.1-4.1 7.1c-.4 3.1.2 5.8 1.9 8.2 1.7 2.4 3.9 3.8 6.8 4.2 1.5.2 3 .1 4.5-.3s2.8-1.1 4-2c0 0 2.3-1.6 3.4-4.5l-3.3-1.8zm-12.5-3.1c0-.2 0-.5.1-.7.2-1.6.9-2.8 2.2-3.7 1.2-.9 2.7-1.3 4.2-1.1.6.1 1.2.3 1.7.5.5.3 1 .6 1.4 1.1l-9.6 4.7v-.8zm13.1 14.9l-2.2 4.2c-1-.6-1.8-1-2.5-1.3s-1.5-.4-2.2-.4c-1.6 0-3 .6-4 1.7s-1.6 2.6-1.6 4.3c0 1.7.5 3.2 1.6 4.3 1.1 1.1 2.4 1.7 4 1.7.8 0 1.6-.2 2.4-.5.9-.4 1.8-.9 2.8-1.6l1.9 4.7c-1.1.8-2.3 1.3-3.6 1.8s-2.4.6-3.5.6c-3.1 0-5.7-1-7.7-3.1-2.1-2.1-3.1-4.6-3.1-7.7 0-3.1 1-5.6 3.1-7.7 2.1-2.1 4.7-3.1 7.8-3.1 1 0 2.2.2 3.3.6 1.1.2 2.3.8 3.5 1.5z"/><path d="M-112.2 333.2h-7.1v26.7c0 5.5-5.1 5.6-5.1 5.6-6.4 0-5.8-5.6-5.8-5.6v-5.1h-7.1v7.1s.8 10.7 12.7 10.7c0 0 12.3-.1 12.3-10.7v-28.7h.1zm.3-4.7c0 2.2-1.8 4.1-4.1 4.1-2.2 0-4.1-1.8-4.1-4.1 0-2.2 1.8-4.1 4.1-4.1s4.1 1.8 4.1 4.1z"/><path class="st3" d="M-123.1 426.7s11.6-4.6 19-2.6c0 0-7.4 6.3-20 4.8m2.2 2.4s1.5-1.7 4.8-1.7c0 0 6.1.1 6.1 1.9 0 0-.1.7-1.7 1.4-.5.2-1 .5-2.2 1.4-.7.6-4.1 5.9-6.7 5.9m0 .1h-.8v-.9m.1 0s.2-4.2 7.2-7.2m-.1 0h-4.1m.1 0s1.7.3 2.4.8m3.5-8.9s3.1-1.9 3.6-5.4c0 0-12 2.4-20.9 13.2 0 0-.9 1.2-.9 2.3 0 0-.1 3.5 4.2 4.2m-1 1s2.2-3.1 5.6-3.1c0 0 1.3.1 1.7.5m-7.8-6.8s-4.3-.1-9.3 5.2c0 0-.8.8-.8 1.3 0 0 0 .9 1 .9 0 0 .8-.1 1.4-.6.6-.6 3.6-4.1 5.9-4.8m15.1 3.1c1-1 3.2-.9 3.2-.9 3.2 0 6.8 4.2 6.8 4.2m0 0h3.8m0 0s-.3 2.2-1.4 3.1c0 0 1.3-.3 1.7-1.2 0 0 1.8.1 2.6.5s2.1 1 4.2.4c2.2-.6 4.1-.1 5.4.9 1.3 1 1.9 2.4 1.9 3.5 0 0-6.4-2.8-10.9-2.8 0 0-3.7-.1-5.5 1.3-2.1 1.6-3.8 2.8-6.7 1.7-2.8-1.2-6.2-.5-8.1.6-1.9 1.2-2.9 1.5-5.5.4-2.6-1.2-9.9.1-10.8.8 0 0 2.3-4.1 6.2-4.1s5.1 1.2 5.1 1.2 1.9 1.2 2.6 1.2c0 0 3.1-4.7 6.3-6.5m-3.7-1s.2 2.8 2.2 1.8m-12.4-5.7s.9-.8 1.8-.9"/></svg>