<svg xmlns="http://www.w3.org/2000/svg" width="612" height="612" viewBox="-417.5 708.1 612 612"><path fill="#006238" d="M-417.5 1320.1zm306.17-.35c168.6 0 305.83-137.6 305.83-305.82 0-168.24-137.6-305.83-305.83-305.83-168.58 0-305.82 137.6-305.82 305.83 0 168.58 137.24 305.82 305.82 305.82z"/><path fill="#FFF" d="M-111.33 1310c-81.5 0-155.35-33.44-209-87.08s-86.72-127.83-86.72-209c0-81.5 33.44-155.34 86.73-209 54-53.63 127.84-87.07 209-87.07 81.5 0 155.7 33.44 209 87.08 53.63 53.65 87.07 127.84 87.07 209 0 81.5-33.44 155.35-87.08 209-53.3 53.63-127.5 87.07-209 87.07z"/><path fill="#006238" d="M-111.33 1303.73c79.77 0 152.22-32.74 204.82-85.34 52.2-52.3 84.9-125.1 84.9-204.9 0-79.4-32.76-152.2-85-204.48-52.6-52.6-125.05-85.33-204.8-85.33-79.4 0-151.88 32.74-204.48 85.33-52.6 52.27-85.34 125.07-85.34 204.5 0 79.76 32.74 152.2 85.34 204.8 52.6 52.6 125.07 85.34 204.48 85.34z"/><path fill="#FFF" d="M-267.72 806.33l-3.48 8.36 6.6 5.9-9.04-1.1-3.84 8.33-1.74-9.05-8.7-.7 7.66-4.53-2.1-9.06 6.98 6.25m-12.55 19.86l-3.48 10.8 9.7 6.63-11.9.33-2.8 10.8-4.16-10.44-11.5.36 9.06-6.98-3.83-11.15 9.4 6.62m-12.54 28.55l-.36 13.93 13.25 4.52-13.6 4.17v13.6l-8.37-11.15-12.87 3.83 8-10.8-8-11.84 13.57 4.9m-7.3 33.1l3.83 20.2 20.2 2.76-18.12 9.75 3.5 20.2-14.64-14.3-18.1 9.77 8.7-18.47-14.63-14.3 20.54 2.8M45 806.33l3.84 8.35-6.96 5.9 9.4-1.1 3.48 8.37 2.1-9.05 8.7-.7-7.66-4.53 2.1-9.06-6.98 6.28m12.54 19.86l3.14 10.8-9.4 6.62 11.5.32 3.12 10.8 3.83-10.45 11.5.37-9.04-6.97 4.2-11.1-9.7 6.63m12.85 28.56v13.9l-12.87 4.53 13.23 4.17v13.6l8.36-11.14 13.24 3.84-8.36-10.8 8-11.82-13.23 4.9m6.97 33.1l-3.5 20.2-20.54 2.77 18.48 9.76-3.8 20.2 14.96-14.25 18.1 9.75-9.04-18.5 15-14.3-20.54 2.8m-324.3 127.15c-.7-.35-1.73-.35-2.43.35l-97.2 128.9c-1.05 1.73-.7 3.82.34 5.2 16.7 18.13 33.76 33.8 53.6 47.73 1.4.7 3.5 2.8 4.5.35l10.43-24.4c.7-1.4 0-3.5-1.03-4.2-10.48-6.96-19.18-15-28.2-23.33-1.4-1.4-1.08-4.2 0-5.93l76.6-111.1c.34-.36 0-1.4-.7-1.75-5.58-4.2-11.15-7.7-16-11.87zm90.57 227.1c1.4 0 1.4-1.04 1.4-1.73l1.4-188.42c0-.7-.7-1.4-1.4-1.4-4.52 0-9.4-.7-14.27-1.4-.7-.34-1.4 0-1.77 1.05l-22.7 52.25c-.7 1.4-1.02 1.05-1.4-.35l-1.7-58.86c0-.7-.36-1.4-.7-1.4-5.58-2.1-11.15-4.2-16.38-7-.34-.37-1.4-.37-1.73.7l-68.3 164.4c-.37.7 0 1.74.7 2.1 6.6 4.17 13.2 8 20.2 11.5.7.34 2.42.7 2.8-.7l42.1-117.73c.35-1.4.7-1.8.7.3l1.74 99.96c0 5.22.37 5.22 2.8.34l40.06-88.8c.34-1 .7-1 .7.4l-10.46 129.9c0 .7.7 1.73 1.75 2.1 8 1.7 16 2.4 24.36 2.77zm68.3-179.37c-8.37 2.8-17.78 4.9-31 7.3-.7 0-1.4 1.07-1.4 1.77l1.04 49.46c0 .7.7 2.1 2.1 1.76 12.17-1.75 24.36-4.2 36.55-6.63 1.76-.35 2.1 0 2.8 2.1l3.14 19.5c.34 1.04.34 2.44-1.05 2.8-13.25 3.12-26.83 5.9-40.77 8-1.06.35-2.1.7-2.1 2.44l1.4 51.2c0 2.8 1.73 4.17 3.12 3.8 15.68-1 31.35-5.2 46.33-9.03 1.07 0 2.47-.7 2.8 1.75l4.2 26.8c.35 1.4-1.05 2.8-2.8 3.15-25.42 8-49.8 12.54-77.67 13.24-2.1 0-3.47-.7-3.47-2.45l1.4-187.05c0-1.07 1.73-1.77 3.12-1.77 17.76-1.05 33.1-3.48 48.42-9.4 1.75-.7 2.44-.35 2.44.34l3.13 18.8c0 1.4-.7 1.72-1.74 2.1zm40.04 160.6c-.7 0-1.75 0-1.75-.7L-49 1080.1c0-.32 0-.7.7-.7 5.2-2.06 10.1-4.85 14.97-7.63.36-.35 1.4-.35 1.4 0L14.8 1248.7c.34 1.4.34 2.1-.35 2.44-9.4 4.88-18.1 9.06-27.87 13.24zm146.6-239c-1.4 5.9-2.8 11.83-4.54 17.4-.35.36-.7 1.4-1.74 1.05l-4.2-2.1c-.68-.34-1.38.36-1.73.7l-6.3 15.68c-.37 1.05-.37 2.1 1.02 3.14l28.2 18.8c1.06.7 2.8.7 3.5-1.73 5.57-22.64 8-45.28 7.66-68.27 0-1.05-.37-2.1-1.76-2.44L106.7 991.6c-1.75-.7-4.54-.7-5.93 1.75-4.18 8-8 14.28-11.5 20.2-.7.7-1.74 1.74-3.13 1.04l-23-11.2c-1.02-.7-1.72-1.05-1.02-3.14l3.82-8c.35-1.05 1.74-.7 2.8-.36l8 3.15c.7.33 1.74.33 2.1-.7l3.47-9.77c.4-.7-.7-1.74-1.7-2.1l-30.65-10.4c-1.04-.36-2.1.34-2.43 1.4-3.47 10.43-7.65 20.2-12.87 30.3-1.07 1.73 0 3.12.7 4.17L93.47 1047c1.03.7 2.77.7 3.82-1.4 5.9-9.4 11.12-18.8 16.7-28.2.34-.7 1.03-1.4 2.43-.7l16.04 6.97c.35-.7 1.04.34.7 1.73zm-494.98 78.7c-.35-1.03.7-2.1 1.74-2.8l117.4-74.17c.68-.35 1.73 0 2.08.35 3.48 4.2 6.96 8.05 10.45 12.2.3.7 1 1.77.7 2.8l-85.7 140.7c-.7.7-2.8 0-3.2-.7-3.47-4.5-6.95-8.7-9.74-13.54-.7-.7-.35-2.1 0-3.13l20.2-32.4c1.05-1.7 1.05-2.8.35-4.5-3.47-9-6.6-18.1-9.4-27.12 0-.7-2.1-1.03-2.8-.7l-32.03 21.6c-.7.36-2.43 0-2.78-.7-2.8-5.9-5.24-11.83-7.33-17.75zm95.8-39.35l-33.45 22.3c-.7.34-1.4 1.73-.7 2.78 1.75 5.92 3.5 11.15 5.58 16.37.37 1.4 1.76 2.1 2.46.7l26.18-42.15c.35 0 .35 0 0 0zM88.2 1191.92c-.7.7-1.73 1.4-2.43.35l-51.9-62.7c-.34-.7-1.4-1.4-2.1-.7l-9.04 6.27c-.7.7-1.74 1.4-1.4 3.14l32.05 85c.35 1.03 0 1.73-.7 2.08-8.36 6.62-16.72 12.54-25.77 18.1-.7.36-1.7.7-1.7-.34l-50.8-175.2 1.05-1.4c13.24-8.7 23-16.02 33.44-27.86 3.83-4.18 8.35-1.4 10.1 1.74l34.13 56.08c3.15 5.22 3.15 12.54-.7 17.07l-1.03 1.04 50.84 56.7c1.05 1.02.7 2.1 0 2.8-4.2 5.9-8.7 11.5-13.93 17.74zm-62.7-92.65l-13.92-27.52c-.35-1.05-1.4-1.4-2.1-.7-3.12 2.1-6.26 4.53-9.4 6.62-.34.35-.34.7 0 1.4l11.5 31c.35.34.7.7 1.4.34l12.2-8.7c.33-.7 1.03-1.4.33-2.4zm112.87 7.3c0 .7-.7 1.4-1.4.7l-27.86-19.15c-.7 0-1.4 0-1.7.35l-11.5 29.26c-.3.7 0 1.74.4 2.1l19.15 32.03c.35.7.35 1.4.35 1.74-3.5 5.58-6.98 10.8-10.46 16.02-.37.35-1.07.7-1.4 0l-85.3-141.76c-.36-.7-.36-1.05 0-1.74 3.47-4.53 6.95-9.4 10.1-14.28 0-.35.7-.7 1.4-.35l114.23 73.4c.35.34.7 1.04.7 1.73-2.1 6.97-4.18 13.6-6.62 19.86zm-50.5-32.4l-31.36-21.23c-1-.7-1.4-.7-.7.7l24.4 40.75c.4.6 1.4 2 2.1 0 .7-2.1 4.9-11.9 6.6-17.8.7-1.1-.3-2.1-1-2.5zm-397.8-14.6c-9.05-11.5-16.7-24.05-24.37-37.98-.7-1.4-1.74-1.4-2.8-1.1l-37.26 12.5c-2.1.7-2.8-.7-2.8-1.75-.7-8.7-.7-17.4-.7-25.77 0-2.1 1.04-2.8 2.1-3.14l106.57-20.9c1.4-.35 2.1.35 2.5 1.05 5.26 12.9 11.5 24.03 18.8 35.53.7.7 0 2.1-.7 2.8l-58.12 39.7c-.7.32-1.74.32-3.13-1.07zm34.15-42.16c-3.14-4.8-6.27-9.4-9.06-14.2-.33-.33-.7-.33-1.02 0l-27.52 9.4c-1.4 0-1.05 1.07-.7 1.4 3.48 6.98 7.66 13.25 12.2 19.17.7.7 2.08 1.4 2.78.7l23.34-15.67c.35 0 .35-.7 0-.7zm164.4 49.9c85.34 0 155-69.66 155-155s-69.66-155.35-155-155.35c-85.33 0-155 70-155 155.35 0 85.67 69.66 155 155 155z"/><path fill="#006238" d="M-111.33 1060.95c-40.75 0-78.02-16.72-105.2-43.9-27.16-26.8-43.53-64.08-43.53-105.18 0-82.2 66.88-149.08 148.73-149.08 40.76 0 78.03 16.7 105.2 43.8s43.9 64.1 43.9 105.2c-.36 82.53-67.24 149.06-149.1 149.06z"/><path fill="#FFF" d="M-154.52 795.18c16.02-9.4 28.56-19.5 37.62-27.52-42.15 1.74-79.42 21.6-105.2 51.9 22.65-3.48 45.3-11.5 67.58-24.38zm86.4 0c22.3 12.9 44.92 20.9 67.56 24.04-2.8-3.14-5.57-6.28-8.36-9.06-25.08-25.08-58.87-41.1-96.48-42.5 8.7 8 21.6 18.12 37.27 27.52zM-202.92 954c-20.57-41.78-31-87.76-27.9-122.94-15.67 23-25.07 51.2-25.07 81.16 0 40.05 16.1 75.93 42.5 102.05 24.8 24.73 58.2 40.76 95.1 42.5-44.2-32.74-70.3-73.5-84.6-102.75zM8.5 831.4C11.28 866.25.83 912.23-19.72 954c-20.2 41.46-49.46 76.64-85 102.77 76.3-3.48 137.6-66.88 137.6-144.55.35-29.96-8.7-57.83-24.38-80.8z"/><path fill="#FFF" d="M-111.33 1056.07c40.06-28.2 68.62-65.83 87.78-104.15C-.2 904.55 8.15 856.48 3.27 824.8c-28.9-3.5-53.64-13.95-73.14-25.44-18.8-11.15-33.1-23-41.1-30.65-8.02 7.7-21.95 19.5-40.76 30.7-19.5 11.5-44.6 22-73.5 25.48-4.52 32.04 3.5 80.1 26.82 127.48 18.4 37.98 47.3 75.6 87 103.8z"/><path fill="#006238" d="M-111.33 1050.85c-3.83-2.8-7.66-5.57-11.5-8.7-31.34-24.74-54.68-56.8-71.4-89.53-19.5-39-28.9-79.07-29.6-109.37 0-5.23 0-10.8.7-16.02 7.66-.7 14.97-2.1 22.63-4.18 12.9-3.14 24.73-7.67 35.88-12.9 17.07-8.35 31-18.1 40.76-25.77 4.52-3.83 8.7-7.3 12.53-11.5 3.84 3.84 8.02 7.67 12.54 11.15 9.8 8 23.7 17.77 41.2 25.78 12.2 6 26.1 11.2 41.1 14.3 5.58 1.4 11.5 2.1 17.4 2.8.37 5.2.7 10.1.7 15-.33 30.3-9.73 70.7-29.6 110.4-16.36 32.8-40.04 64.8-71.74 89.9-3.83 3.15-7.66 5.9-11.5 8.7z"/><path fill="#FFF" d="M-94.6 793.1c-7.32-5.58-12.9-10.46-16.73-13.94-3.48 3.48-9.05 8.36-16.37 13.93h33.1zm26.8 16.7c-7.65-4.17-14.62-8.35-20.9-12.53h-45.27c-5.92 4.18-13.23 8.36-20.9 12.54h87.08zm42.86 17.08c-12.54-3.14-24.04-7.66-34.48-12.9h-103.8c-10.45 5.23-22.3 9.4-34.5 12.9h172.78zM-3 844.3c0-4.53 0-8.7-.35-12.9h-215.6c-.36 4.2-.36 8.36-.36 12.9H-3zm-1.4 17.06c.36-4.18.7-8.36 1.05-12.9H-219.3c.34 4.2.7 8.37 1.4 12.9H-4.4zm-2.78 17.07c1.05-4.18 1.74-8.36 2.1-12.54H-217.9l2.07 12.5H-7.18zM-11 895.15c1.04-4.18 2.08-8.36 3.13-12.9h-206.9c1.04 4.2 2.08 8.37 3.13 12.9H-11zm-5.23 17.07c1.4-4.18 2.78-8.36 4.18-12.9h-198.2c1.4 4.2 2.44 8.37 3.83 12.9h190.2zm-6.27 17.4c1.74-4.5 3.13-8.7 4.87-12.9h-187.05c1.4 4.2 3.14 8.38 4.88 12.9h177.3zm-7.67 17.08c2.1-4.18 4.18-8.36 5.92-12.9h-173.8c1.73 4.2 3.47 8.37 5.56 12.9h162.4zm-9.05 17.07c2.43-4.18 4.52-8.36 6.96-12.9h-157.8c2.1 4.2 4.54 8.37 6.63 12.9h144.2zm-10.45 17.07c2.78-4.2 5.57-8.36 8-12.9h-138.97c2.44 4.2 4.87 8.37 8 12.9h122.97zm-12.2 17.06c3.14-4.18 6.28-8.36 9.4-12.88h-117.37c3.13 4.52 5.92 8.35 9.4 12.88h98.58zm-14.63 16.72c3.84-3.83 7.67-8 11.15-12.54h-91.95c3.48 4.53 7.3 8.7 11.14 12.54h69.67zm-17.4 17.08c4.87-4.2 9.05-8.37 13.23-12.55h-61.3c4.17 4.18 8.7 8.7 13.58 12.54h34.5zm-17.43 13.58c4.18-3.14 8.36-6.28 12.2-9.4h-24.4c4.2 3.47 8.02 6.6 12.2 9.4z"/><path fill="#006238" d="M-168.1 980.84c6.27 0 13.23.34 17.07-5.58 2.1-3.13 2.1-6.6 2.1-7.66v-72.45c0-.7-.7-2.1-1.76-3.14-2.4-2-7.6-4.1-10.7-4.5 3.14-.7 8.37-2.4 11.15-4.5 1.05-1 1.74-2.1 1.74-2.8V836c0-1.4-.34-2.44-.7-3.5-.7-1.73-2.08-2.77-3.48-3.82-4.2-2.1-10.8-1.4-14.62-.35.35-1.74 2.1-5.22 2.8-6.27 4.87-8.7 11.14-10.44 17.06-9.74 5.57.7 10.45 3.82 13.93 6.26 5.2-4.88 11.13-8.36 17.05-11.15 8.35-3.12 16.7-4.5 23-4.5 14.96 0 28.9 6.6 38.64 16.7 10.42 10.47 16.7 24.4 16.7 39.37 0 13.23-6.63 28.56-17.77 39.7-9.75 10.1-22.63 17.42-36.9 17.77-7.33 0-14.64-1.73-19.87-5.56-4.88-3.5-8.37-8.7-8.37-14.93 0-.7 0-1.76.3-2.46 0-4.87 1.76-9.4 4.9-12.53 3.13-3.12 7.3-5.56 13.23-5.56h2.1c4.2.35 7.68 1.4 9.4 3.13 2.8 2.45 3.5 5.6 3.5 8.37 0 5.2-3.13 10.42-8.7 10.8 1.04.32 2.08.7 3.8.7 9.07 0 21.26-8.4 23-17.8.7-3.48 0-6.6-1.04-10.1-1.05-2.8-1.74-5.57-1.74-8.7-.35-5.23 1.4-8 2.78-11.15 1.75-3.12 3.14-5.9 1.05-11.83-2.1-5.57-5.57-10.45-10.45-13.93-4.53-3.16-10.1-4.9-17.07-4.9-5.6 0-11.86 2.8-16.7 6.96-4.57 3.85-8 8.7-8 13.26v157.8c-4.9-1.4-9.4-2.8-13.3-6.63-2.1-1.75-3.5-4.2-4.52-6.63-3.1 2.8-6.6 4.53-10.43 4.88-6.97 2.43-16.72-2.44-19.16-8.7z"/><path fill="#FFF" d="M-159.05 984.32c3.5 2.1 6.62 3.13 9.4 3.13 5.58-.35 10.8-5.57 12.9-8.7 0 3.13 1.74 8.35 5.22 11.84 1.74 1.7 3.83 2.7 6.27 3.8V842.2c0-5.92 4.18-12.2 9.4-16.72 5.58-4.87 13.24-8.36 19.5-8 8.02 0 14.64 2.08 19.52 5.56 5.57 4.2 9.4 9.76 11.84 16.03 2.8 7.3.7 10.8-1.4 14.98-1.04 2.43-2.43 4.87-2.08 9.05 0 2.8.7 5.23 1.74 7.67 1.4 3.83 2.44 7.66 1.4 12.54-2.44 11.2-16.03 20.9-27.52 20.9-3.14-.3-5.58-1.4-7.67-2.4-4.87-3.5-5.57-8.3-4.52-11.8.7 1.4 3.48 3.84 5.92 4.54.7.35 1.4.35 2.1.35 3.82 0 5.2-3.14 5.2-6.6 0-2.1-.34-3.85-2.08-5.24-1.4-1.04-3.5-2.1-7-2.1h-1.8c-4.88 0-8 1.76-10.1 4.2-2.44 2.78-3.84 6.27-3.84 10.1-.35.7-.35 1.4-.35 2.1 0 4.87 2.8 8.7 6.27 11.5 4.9 3.12 11.15 4.86 17.77 4.86 12.9-.33 25.1-6.95 33.8-16.35 10.1-10.46 16.4-24.74 16.4-36.6 0-13.92-5.97-26.8-15.37-36.56-9.05-9.4-21.93-15.32-35.87-15.32-6.27 0-13.93 1.06-21.6 4.2-5.9 2.43-11.84 6.27-17.06 11.14l-1.4 1.4-1.4-1.04c-3.1-2.1-8.35-6.26-13.9-6.96-4.2-.35-8.37 1.04-11.85 6.6 3.13-.37 6.6.33 9.4 1.7 2.44 1.4 4.53 3.16 5.6 5.6.7 1.75 1.4 3.14 1.4 5.23v44.23c0 2.1-1.08 4.18-3.17 5.9-.7.35-1.4.7-1.77 1.4.7.34 1.4.7 1.74 1.4 2.1 2.1 3.15 4.5 3.15 6.26v72.45c0 1.4-.34 5.56-2.8 9.74-1.72 2.8-5.2 5.56-11.5 6.26z"/></svg>