<svg xmlns="http://www.w3.org/2000/svg" viewBox="-417.5 618.1 175.7 175.7"><path fill="#3F7249" d="M-417.5 793.8zm87.9-.1c48.4 0 87.8-39.5 87.8-87.8s-39.5-87.8-87.8-87.8c-48.4 0-87.8 39.5-87.8 87.8 0 48.4 39.4 87.8 87.8 87.8z"/><path fill="#FFF" d="M-329.6 790.9c-23.4 0-44.6-9.6-60-25-15.4-15.4-24.9-36.7-24.9-60 0-23.4 9.6-44.6 24.9-60 15.5-15.4 36.7-25 60-25 23.4 0 44.7 9.6 60 25 15.4 15.4 25 36.7 25 60 0 23.4-9.6 44.6-25 60-15.3 15.4-36.6 25-60 25z"/><path fill="#3F7249" d="M-329.6 789.1c22.9 0 43.7-9.4 58.8-24.5 15-15 24.4-35.9 24.4-58.8 0-22.8-9.4-43.7-24.4-58.7-15.1-15.1-35.9-24.5-58.8-24.5-22.8 0-43.6 9.4-58.7 24.5-15.1 15-24.5 35.9-24.5 58.7 0 22.9 9.4 43.7 24.5 58.8 15.1 15.1 35.9 24.5 58.7 24.5z"/><path fill="#FFF" d="M-374.5 646.3l-1 2.4 1.9 1.7-2.6-.3-1.1 2.4-.5-2.6-2.5-.2 2.2-1.3-.6-2.6 2 1.8m-3.6 5.7l-1 3.1 2.8 1.9-3.4.1-.8 3.1-1.2-3-3.3.1 2.6-2-1.1-3.2 2.7 1.9m-3.6 8.2l-.1 4 3.8 1.3-3.9 1.2v3.9l-2.4-3.2-3.7 1.1 2.3-3.1-2.3-3.4 3.9 1.4m-2.1 9.5l1.1 5.8 5.8.8-5.2 2.8 1 5.8-4.2-4.1-5.2 2.8 2.5-5.3-4.2-4.1 5.9.8m108.9-35.2l1.1 2.4-2 1.7 2.7-.3 1 2.4.6-2.6 2.5-.2-2.2-1.3.6-2.6-2 1.8m3.6 5.7l.9 3.1-2.7 1.9 3.3.1.9 3.1 1.1-3 3.3.1-2.6-2 1.2-3.2-2.8 1.9m3.7 8.2v4l-3.7 1.3 3.8 1.2v3.9l2.4-3.2 3.8 1.1-2.4-3.1 2.3-3.4-3.8 1.4m2 9.5l-1 5.8-5.9.8 5.3 2.8-1.1 5.8 4.3-4.1 5.2 2.8-2.6-5.3 4.3-4.1-5.9.8m-93.1 36.5c-.2-.1-.5-.1-.7.1l-27.9 37c-.3.5-.2 1.1.1 1.5 4.8 5.2 9.7 9.7 15.4 13.7.4.2 1 .8 1.3.1l3-7c.2-.4 0-1-.3-1.2-3-2-5.5-4.3-8.1-6.7-.4-.4-.3-1.2 0-1.7l22-31.9c.1-.1 0-.4-.2-.5-1.6-1.2-3.2-2.2-4.6-3.4zm26 65.2c.4 0 .4-.3.4-.5l.4-54.1c0-.2-.2-.4-.4-.4-1.3 0-2.7-.2-4.1-.4-.2-.1-.4 0-.5.3l-6.5 15c-.2.4-.3.3-.4-.1l-.5-16.9c0-.2-.1-.4-.2-.4-1.6-.6-3.2-1.2-4.7-2-.1-.1-.4-.1-.5.2l-19.6 47.2c-.1.2 0 .5.2.6 1.9 1.2 3.8 2.3 5.8 3.3.2.1.7.2.8-.2l12.1-33.8c.1-.4.2-.5.2.1l.5 28.7c0 1.5.1 1.5.8.1l11.5-25.5c.1-.3.2-.3.2.1l-3 37.3c0 .2.2.5.5.6 2.3.5 4.6.7 7 .8zm19.6-51.5c-2.4.8-5.1 1.4-8.9 2.1-.2 0-.4.3-.4.5l.3 14.2c0 .2.2.6.6.5 3.5-.5 7-1.2 10.5-1.9.5-.1.6 0 .8.6l.9 5.6c.1.3.1.7-.3.8-3.8.9-7.7 1.7-11.7 2.3-.3.1-.6.2-.6.7l.4 14.7c0 .8.5 1.2.9 1.1 4.5-.3 9-1.5 13.3-2.6.3 0 .7-.2.8.5l1.2 7.7c.1.4-.3.8-.8.9-7.3 2.3-14.3 3.6-22.3 3.8-.6 0-1-.2-1-.7l.4-53.7c0-.3.5-.5.9-.5 5.1-.3 9.5-1 13.9-2.7.5-.2.7-.1.7.1l.9 5.4c0 .4-.2.5-.5.6zm11.5 46.1c-.2 0-.5 0-.5-.2l-9.7-52.7c0-.1 0-.2.2-.2 1.5-.6 2.9-1.4 4.3-2.2.1-.1.4-.1.4 0l13.4 50.8c.1.4.1.6-.1.7-2.7 1.4-5.2 2.6-8 3.8zm42.1-68.6c-.4 1.7-.8 3.4-1.3 5-.1.1-.2.4-.5.3l-1.2-.6c-.2-.1-.4.1-.5.2l-1.8 4.5c-.1.3-.1.6.3.9l8.1 5.4c.3.2.8.2 1-.5 1.6-6.5 2.3-13 2.2-19.6 0-.3-.1-.6-.5-.7l-13.4-4.6c-.5-.2-1.3-.2-1.7.5-1.2 2.3-2.3 4.1-3.3 5.8-.2.2-.5.5-.9.3l-6.6-3.2c-.3-.2-.5-.3-.3-.9l1.1-2.3c.1-.3.5-.2.8-.1l2.3.9c.2.1.5.1.6-.2l1-2.8c.1-.2-.2-.5-.5-.6l-8.8-3c-.3-.1-.6.1-.7.4-1 3-2.2 5.8-3.7 8.7-.3.5 0 .9.2 1.2l16.7 11.2c.3.2.8.2 1.1-.4 1.7-2.7 3.2-5.4 4.8-8.1.1-.2.3-.4.7-.2l4.6 2c.1-.2.3.1.2.5zm-142.1 22.6c-.1-.3.2-.6.5-.8l33.7-21.3c.2-.1.5 0 .6.1 1 1.2 2 2.3 3 3.5.1.2.3.5.2.8l-24.6 40.4c-.2.2-.8 0-.9-.2-1-1.3-2-2.5-2.8-3.9-.2-.2-.1-.6 0-.9l5.8-9.3c.3-.5.3-.8.1-1.3-1-2.6-1.9-5.2-2.7-7.8 0-.2-.6-.3-.8-.2l-9.2 6.2c-.2.1-.7 0-.8-.2-.8-1.7-1.5-3.4-2.1-5.1zm27.5-11.3l-9.6 6.4c-.2.1-.4.5-.2.8.5 1.7 1 3.2 1.6 4.7.1.4.5.6.7.2l7.5-12.1c.1 0 .1 0 0 0zm101.7 36.5c-.2.2-.5.4-.7.1l-14.9-18c-.1-.2-.4-.4-.6-.2l-2.6 1.8c-.2.2-.5.4-.4.9l9.2 24.4c.1.3 0 .5-.2.6-2.4 1.9-4.8 3.6-7.4 5.2-.2.1-.5.2-.5-.1l-14.6-50.3.3-.4c3.8-2.5 6.6-4.6 9.6-8 1.1-1.2 2.4-.4 2.9.5l9.8 16.1c.9 1.5.9 3.6-.2 4.9l-.3.3 14.6 16.3c.3.3.2.6 0 .8-1.2 1.7-2.5 3.3-4 5.1zm-18-26.6l-4-7.9c-.1-.3-.4-.4-.6-.2-.9.6-1.8 1.3-2.7 1.9-.1.1-.1.2 0 .4l3.3 8.9c.1.1.2.2.4.1l3.5-2.5c.1-.2.3-.4.1-.7zm32.4 2.1c0 .2-.2.4-.4.2l-8-5.5c-.2 0-.4 0-.5.1l-3.3 8.4c-.1.2 0 .5.1.6l5.5 9.2c.1.2.1.4.1.5-1 1.6-2 3.1-3 4.6-.1.1-.3.2-.4 0l-24.5-40.7c-.1-.2-.1-.3 0-.5 1-1.3 2-2.7 2.9-4.1 0-.1.2-.2.4-.1l32.8 21.1c.1.1.2.3.2.5-.6 2-1.2 3.9-1.9 5.7zm-14.5-9.3l-9-6.1c-.3-.2-.4-.2-.2.2l7 11.7c.1.2.4.6.6 0s1.4-3.4 1.9-5.1c.2-.3-.1-.6-.3-.7zm-114.2-4.2c-2.6-3.3-4.8-6.9-7-10.9-.2-.4-.5-.4-.8-.3l-10.7 3.6c-.6.2-.8-.2-.8-.5-.2-2.5-.2-5-.2-7.4 0-.6.3-.8.6-.9l30.6-6c.4-.1.6.1.7.3 1.5 3.7 3.3 6.9 5.4 10.2.2.2 0 .6-.2.8l-16.7 11.4c-.2.1-.5.1-.9-.3zm9.8-12.1c-.9-1.4-1.8-2.7-2.6-4.1-.1-.1-.2-.1-.3 0l-7.9 2.7c-.4 0-.3.3-.2.4 1 2 2.2 3.8 3.5 5.5.2.2.6.4.8.2l6.7-4.5c.1 0 .1-.2 0-.2zm47.2 14.3c24.5 0 44.5-20 44.5-44.5s-20-44.6-44.5-44.6-44.5 20.1-44.5 44.6c0 24.6 20 44.5 44.5 44.5z"/><path fill="#3F7249" d="M-329.6 719.4c-11.7 0-22.4-4.8-30.2-12.6-7.8-7.7-12.5-18.4-12.5-30.2 0-23.6 19.2-42.8 42.7-42.8 11.7 0 22.4 4.8 30.2 12.6 7.8 7.8 12.6 18.4 12.6 30.2-.1 23.7-19.3 42.8-42.8 42.8z"/><path fill="#FFF" d="M-342 643.1c4.6-2.7 8.2-5.6 10.8-7.9-12.1.5-22.8 6.2-30.2 14.9 6.5-1 13-3.3 19.4-7zm24.8 0c6.4 3.7 12.9 6 19.4 6.9-.8-.9-1.6-1.8-2.4-2.6-7.2-7.2-16.9-11.8-27.7-12.2 2.5 2.3 6.2 5.2 10.7 7.9zm-38.7 45.6c-5.9-12-8.9-25.2-8-35.3-4.5 6.6-7.2 14.7-7.2 23.3 0 11.5 4.6 21.8 12.2 29.3 7.1 7.1 16.7 11.7 27.3 12.2-12.7-9.4-20.2-21.1-24.3-29.5zm60.7-35.2c.8 10-2.2 23.2-8.1 35.2-5.8 11.9-14.2 22-24.4 29.5 21.9-1 39.5-19.2 39.5-41.5.1-8.6-2.5-16.6-7-23.2z"/><path fill="#FFF" d="M-329.6 718c11.5-8.1 19.7-18.9 25.2-29.9 6.7-13.6 9.1-27.4 7.7-36.5-8.3-1-15.4-4-21-7.3-5.4-3.2-9.5-6.6-11.8-8.8-2.3 2.2-6.3 5.6-11.7 8.8-5.6 3.3-12.8 6.3-21.1 7.3-1.3 9.2 1 23 7.7 36.6 5.3 10.9 13.6 21.7 25 29.8z"/><path fill="#3F7249" d="M-329.6 716.5c-1.1-.8-2.2-1.6-3.3-2.5-9-7.1-15.7-16.3-20.5-25.7-5.6-11.2-8.3-22.7-8.5-31.4 0-1.5 0-3.1.2-4.6 2.2-.2 4.3-.6 6.5-1.2 3.7-.9 7.1-2.2 10.3-3.7 4.9-2.4 8.9-5.2 11.7-7.4 1.3-1.1 2.5-2.1 3.6-3.3 1.1 1.1 2.3 2.2 3.6 3.2 2.8 2.3 6.8 5.1 11.8 7.4 3.5 1.7 7.5 3.2 11.8 4.1 1.6.4 3.3.6 5 .8.1 1.5.2 2.9.2 4.3-.1 8.7-2.8 20.3-8.5 31.7-4.7 9.4-11.5 18.6-20.6 25.8-1.1.9-2.2 1.7-3.3 2.5z"/><path fill="#FFF" d="M-324.8 642.5c-2.1-1.6-3.7-3-4.8-4-1 1-2.6 2.4-4.7 4h9.5zm7.7 4.8c-2.2-1.2-4.2-2.4-6-3.6h-13c-1.7 1.2-3.8 2.4-6 3.6h25zm12.3 4.9c-3.6-.9-6.9-2.2-9.9-3.7h-29.8c-3 1.5-6.4 2.7-9.9 3.7h49.6zm6.3 5c0-1.3 0-2.5-.1-3.7h-61.9c-.1 1.2-.1 2.4-.1 3.7h62.1zm-.4 4.9l.3-3.7h-62c.1 1.2.2 2.4.4 3.7h61.3zm-.8 4.9c.3-1.2.5-2.4.6-3.6h-61.1l.6 3.6h59.9zm-1.1 4.8c.3-1.2.6-2.4.9-3.7h-59.4c.3 1.2.6 2.4.9 3.7h57.6zm-1.5 4.9c.4-1.2.8-2.4 1.2-3.7H-358c.4 1.2.7 2.4 1.1 3.7h54.6zm-1.8 5c.5-1.3.9-2.5 1.4-3.7h-53.7c.4 1.2.9 2.4 1.4 3.7h50.9zm-2.2 4.9c.6-1.2 1.2-2.4 1.7-3.7h-49.9c.5 1.2 1 2.4 1.6 3.7h46.6zm-2.6 4.9c.7-1.2 1.3-2.4 2-3.7h-45.3c.6 1.2 1.3 2.4 1.9 3.7h41.4zm-3 4.9c.8-1.2 1.6-2.4 2.3-3.7h-39.9c.7 1.2 1.4 2.4 2.3 3.7h35.3zm-3.5 4.9c.9-1.2 1.8-2.4 2.7-3.7h-33.7c.9 1.3 1.7 2.4 2.7 3.7h28.3zm-4.2 4.8c1.1-1.1 2.2-2.3 3.2-3.6h-26.4c1 1.3 2.1 2.5 3.2 3.6h20zm-5 4.9c1.4-1.2 2.6-2.4 3.8-3.6h-17.6c1.2 1.2 2.5 2.5 3.9 3.6h9.9zm-5 3.9c1.2-.9 2.4-1.8 3.5-2.7h-7c1.2 1 2.3 1.9 3.5 2.7z"/><path fill="#3F7249" d="M-345.9 696.4c1.8 0 3.8.1 4.9-1.6.6-.9.6-1.9.6-2.2v-20.8c0-.2-.2-.6-.5-.9-.7-.6-2.2-1.2-3.1-1.3.9-.2 2.4-.7 3.2-1.3.3-.3.5-.6.5-.8v-12.7c0-.4-.1-.7-.2-1-.2-.5-.6-.8-1-1.1-1.2-.6-3.1-.4-4.2-.1.1-.5.6-1.5.8-1.8 1.4-2.5 3.2-3 4.9-2.8 1.6.2 3 1.1 4 1.8 1.5-1.4 3.2-2.4 4.9-3.2 2.4-.9 4.8-1.3 6.6-1.3 4.3 0 8.3 1.9 11.1 4.8 3 3 4.8 7 4.8 11.3 0 3.8-1.9 8.2-5.1 11.4-2.8 2.9-6.5 5-10.6 5.1-2.1 0-4.2-.5-5.7-1.6-1.4-1-2.4-2.5-2.4-4.3 0-.2 0-.5.1-.7 0-1.4.5-2.7 1.4-3.6.9-.9 2.1-1.6 3.8-1.6h.6c1.2.1 2.2.4 2.7.9.8.7 1 1.6 1 2.4 0 1.5-.9 3-2.5 3.1.3.1.6.2 1.1.2 2.6 0 6.1-2.4 6.6-5.1.2-1 0-1.9-.3-2.9-.3-.8-.5-1.6-.5-2.5-.1-1.5.4-2.3.8-3.2.5-.9.9-1.7.3-3.4-.6-1.6-1.6-3-3-4-1.3-.9-2.9-1.4-4.9-1.4-1.6 0-3.4.8-4.8 2-1.3 1.1-2.3 2.5-2.3 3.8v45.3c-1.4-.4-2.7-.8-3.8-1.9-.6-.5-1-1.2-1.3-1.9-.9.8-1.9 1.3-3 1.4-2 .7-4.8-.7-5.5-2.5z"/><path fill="#FFF" d="M-343.3 697.4c1 .6 1.9.9 2.7.9 1.6-.1 3.1-1.6 3.7-2.5 0 .9.5 2.4 1.5 3.4.5.5 1.1.8 1.8 1.1v-43.7c0-1.7 1.2-3.5 2.7-4.8 1.6-1.4 3.8-2.4 5.6-2.3 2.3 0 4.2.6 5.6 1.6 1.6 1.2 2.7 2.8 3.4 4.6.8 2.1.2 3.1-.4 4.3-.3.7-.7 1.4-.6 2.6 0 .8.2 1.5.5 2.2.4 1.1.7 2.2.4 3.6-.7 3.2-4.6 6-7.9 6-.9-.1-1.6-.4-2.2-.7-1.4-1-1.6-2.4-1.3-3.4.2.4 1 1.1 1.7 1.3.2.1.4.1.6.1 1.1 0 1.5-.9 1.5-1.9 0-.6-.1-1.1-.6-1.5-.4-.3-1-.6-2-.6h-.5c-1.4 0-2.3.5-2.9 1.2-.7.8-1.1 1.8-1.1 2.9-.1.2-.1.4-.1.6 0 1.4.8 2.5 1.8 3.3 1.4.9 3.2 1.4 5.1 1.4 3.7-.1 7.2-2 9.7-4.7 2.9-3 4.7-7.1 4.7-10.5 0-4-1.7-7.7-4.4-10.5-2.6-2.7-6.3-4.4-10.3-4.4-1.8 0-4 .3-6.2 1.2-1.7.7-3.4 1.8-4.9 3.2l-.4.4-.4-.3c-.9-.6-2.4-1.8-4-2-1.2-.1-2.4.3-3.4 1.9.9-.1 1.9.1 2.7.5.7.4 1.3.9 1.6 1.6.2.5.4.9.4 1.5v12.7c0 .6-.3 1.2-.9 1.7-.2.1-.4.2-.5.4.2.1.4.2.5.4.6.6.9 1.3.9 1.8v20.8c0 .4-.1 1.6-.8 2.8-.5.8-1.5 1.6-3.3 1.8z"/></svg>