<svg xmlns="http://www.w3.org/2000/svg" viewBox="-417.6 624.4 176.1 169.6"><path d="M-417.5 794zm87.9-.1l-3.3-3.4-1.8-1.5-2-1.4-2.2-1.3-2.4-1.2-2.5-1.2-2.7-1.1-2.8-1.1-2.9-1-3-.9-3.1-.9-3.1-.9-3.2-.9-3.3-1-3.2-.9-3.3-1-3.3-1.1-3.2-1.1-3.2-1.2-3.2-1.3-3.1-1.4-3-1.6-2.9-1.7-2.9-1.9-2.7-2-2.6-2.2-2.4-2.4-2.2-2.6-2.1-2.8-1.8-3.1-1.6-3.4-1.3-3.6-.7-2.4-.5-2.4-.4-2.4-.1-2.3.1-2.4.2-2.2.3-2.3.5-2.2.6-2.2.7-2.1.8-2.1.8-2.1 1-2 1-2 1-1.9 1.1-2 1-1.9 1.1-1.9 1.1-1.9 1.1-1.9 1.1-1.9 1.1-1.9 1.1-1.8 1-1.8 1-1.8.9-1.8.8-1.8.7-1.8.7-1.7.5-1.8.4-1.8.3-1.8.1-.8.1-.8.1-.8v-2.4l-.1-.8-.1-.8-.1-.8-.1-.8-.1-.8-.2-.8-.2-.8-.2-.8-.3-.8-.2-.8-.3-.8-.3-.8-.3-.8-.3-.8-.4-.7-.3-.8-.4-.8-.4-.8-.4-.7-.5-.7-.4-.7-.5-.7-.5-.7-.5-.7-.5-.7-2-2.3 26.4-25.8 2.9 1.5 1.4.6 1.4.7 1.4.6 1.4.6 1.4.6 1.5.6 1.4.6 1.5.5 1.4.5 1.5.5 1.5.5 1.5.5 1.5.4 1.5.4 1.5.4 1.5.3 1.5.4 1.5.3 1.5.3 1.5.2 1.5.3 1.5.2 1.5.2 1.6.2 1.6.2 1.5.1 1.6.1 1.5.1h1.6l1.5.1h3.1l1.5-.1h1.6l1.5-.1 1.5-.1 1.6-.1 1.6-.2 1.5-.2 1.5-.2 1.6-.2 1.5-.3 1.6-.2 1.5-.3 1.5-.3 1.6-.4 1.5-.3 1.5-.4 1.5-.4 1.5-.4 1.5-.5 1.5-.5 1.5-.5 1.4-.5 1.5-.5 1.4-.6 1.5-.6 1.4-.6 1.4-.6 1.4-.6 1.4-.7 1.4-.6 2.9-1.5 26.3 25.8-2 2.3-.6.7-.5.7-.5.7-.5.7-.5.7-.5.7-.4.7-.4.8-.4.8-.3.8-.4.7-.3.8-.3.8-.3.8-.3.8-.3.8-.2.8-.2.8-.2.8-.2.8-.1.8-.1.8-.1.8-.1.8v4l.1.8.1.8.3 1.8.4 1.8.5 1.8.6 1.7.7 1.8.8 1.8.9 1.8.9 1.8 1 1.8 1.1 1.8 1.1 1.9 1.1 1.9 1.1 1.9 1.1 1.9 1.1 1.9 1 1.9 1.1 2 1 1.9 1 2 1 2 .8 2.1.8 2.1.6 2.1.6 2.2.5 2.2.3 2.3.2 2.2.1 2.4-.1 2.3-.4 2.4-.5 2.4-.7 2.4-1.3 3.6-1.6 3.4-1.8 3.1-2.1 2.8-2.1 2.6-2.4 2.4-2.6 2.2-2.7 2-2.8 1.9-3 1.7-3 1.6-3.1 1.4-3.2 1.3-3.2 1.2-3.2 1.1-3.3 1.1-3.3 1-3.2.9-3.2 1-3.2.9-3.5.8-3.1.9-3 .9-2.9 1-2.8 1.1-2.7 1.1-2.5 1.2-2.4 1.2-2.2 1.3-2 1.4-1.8 1.5-3.2 3.5z"/><path fill="#FFF" d="M-335.7 784.1l-1.5-.9-2.5-1.3-2.7-1.2-2.8-1.1-2.9-1.1-1.2-.4v-54.9l13.6-10.2v71.1zm-27.5-50.5v40.2l-.4-.1-3.3-1-3.2-.9-3.2-1-2.3-.8v-27l12.4-9.4zM-389 753v11.8l-2.8-1.5-2.8-1.6-2.7-1.8-.6-.4 8.9-6.5zm-24.6-27.5l.1-.6.5-2 .5-2 .6-2 .8-1.9.8-1.9.9-1.9 1-1.9 1-1.9 1-1.9 1.1-1.9 1.1-1.9 1.1-1.9 1.1-1.8 1.1-1.9 1.1-1.9 1.1-1.9 1-1.8 1-1.9 1-1.9.8-1.9.8-1.9.6-2 .6-1.9.5-1.9.3-2 .1-.9v-.9l.1-.9.1-.9v-1l-.1-.9-.1-.8v-.9l-.1-.9-.1-.9-.2-.9-.2-.9-.2-.9-.2-.8-.2-.9-.3-.9-.3-.9-.3-.8-.3-.9-.4-.8-.3-.8-.5-.9-.4-.8-.4-.8-.5-.8-.5-.8-.5-.8-.5-.8-.6-.8-.6-.8-.5-.6 22.2-21.8.7.3 1.4.7 1.4.7 1.5.7 1.5.6 1.5.6 1.5.6 1.4.6 1.5.5 1.6.5 1.5.5 1.5.5 1.5.5 1.5.4 1.6.5 1.5.3 1.6.4 1.5.3 1.6.4 1.6.3 1.6.3 1.5.3 1.6.2 1.6.2 1.6.2 1.6.2 1.6.1 1.6.1 1.6.1 1.6.1h6.4l1.6-.1 1.6-.1 1.6-.1 1.6-.1 1.6-.2 1.6-.2 1.6-.2 1.6-.2 1.6-.3 1.6-.3 1.6-.3 1.6-.4 1.5-.3 1.6-.4 1.5-.3 1.6-.5 1.5-.4 1.5-.5 1.5-.5 1.5-.5 1.5-.5 1.5-.5 1.5-.6 1.5-.6.5-.2-125.3 93.2zm139-58.7v99.9l-1.7.8-3.1 1.2-3.2 1.1-3.2 1.1-3.2 1-.5.1v-93.8l14.9-11.4zm-31.1 23.4v86.4l-2.5.8-2.9 1-3 1.1-2.7 1.1-2.7 1.2-1.2.6v-81l15-11.2zm47.3 7.7l.1.2 1.1 1.9 1.1 1.8 1.1 1.9 1.1 1.9 1.1 1.9 1.1 1.9 1 1.9.9 1.9.9 1.9.8 1.9.7 1.9.7 2 .5 2 .4 2 .3 2 .2 2.1.1 2.1-.2 2.1-.3 2.1-.4 2.1-.6 2.2-1.2 3.3-1.5 3-1.6 2.9-1.8 2.6-2.1 2.4-2.2 2.2-1.3 1.1v-59.2zm-125.7 34.4l4.6-2.8c0 1.1.4 2.1 1.8 2.5 1.2.3 5.5-2.5 6.5-4.3 1.4-2.4.9-6.7-.7-6.7-2 0-6.4 4.8-9.2 4.8-.3 0-2.1.6-2.8-2.1-.2-.7-.2-7.5-.2-8.8 0-5.6 2.1-6.7 6.6-9.6 1.6-1 5.5-2.8 8.2-3.4l.8-2.8 2.9-1.6v10.2l-4.4 1.7c0-1-.8-1.3-1.2-1.2-1.8.3-4.8 2.2-6.6 4.3 0 0-1.2 4.6.3 5.7.8.7 7.5-5.5 10.2-4.8 0 0 2.1.7 2.3 1.3.8 2.3.7 11.2 0 12.7-1.4 3.2-7.2 6.9-10.1 8.2-.1 0-4.3 1.2-5.2 2.3v2.4l-3.8 2.2v-10.2zm25-12.6c.3-.1.6-.3.9-.5.3 0 .5.1.7.3.1.2.3.4.3.8 0 .3-.1.7-.3 1.1-.2.4-.4.8-.7 1.2s-.6.8-.9 1c-.5.3-.9.4-1.3.3-.3-.2-.5-.5-.5-.9s.1-.8.2-1.2c.2-.4.4-.8.7-1.2.3-.3.6-.7.9-.9zm9.2-33l20.9-15.4v8.9l-4.2 2.7v-1.2c0-.7-.2-2-.2-2.1 0-.2-.3-.3-.7-.3-.5 0-5.8 4.3-7.3 5.8v8.3l4.7-3.4v5.2l-4.8 3.2.1 4.1c0 .5-.2 2.5 1.2 2.4.3 0 2-1.6 3.1-2.2l.1 3.9-12.7 9.4v-3.9c1.7-1.1 2.6-1.6 2.6-4.3v-16.7c0-1.9-.8-2.4-2.7-1.7l-.1-2.7zm20.2 11.1c.3-.3.6-.3.9-.5.3 0 .5.1.7.2.1.2.2.4.2.8 0 .3-.1.7-.2 1-.2.5-.4.8-.7 1.3-.3.4-.6.7-.9.9-.5.4-.9.5-1.3.4-.3-.2-.4-.4-.4-1 0-.4.1-.8.2-1.2.3-.4.4-.8.7-1.2.2-.1.5-.5.8-.7zm27.8-37.9l.2-2c.2-1.4-.7-1.8-1.9-1.1-1.1.6-3 1.4-5.2 3.2-1.1.9-1.3 3.4-1.3 5.3v11.9c0 3.2 1.5 3 1.5 3 2.7-.2 6.8-3.4 6.7-4.6l-.2-5.3 5.3-3.7-.3 8.1c-.1 3.4-4.9 6.5-8.3 9-2.5 1.8-5 3.3-6.2 3.9-3 1.5-5.1.5-5.1-5.1l-.1-12.7c0-11.2 2.9-13 10.3-17 .9-.5 3.3-1.4 4.8-1.2.3-.7.1-3 .9-4l4-2.1-.1 10.6-5 3.8zm12.7 7.9c.3-.2.5-.3.8-.5.3 0 .5.1.7.2.1.2.2.4.2.8 0 .3-.1.7-.2 1.1-.2.4-.4.8-.7 1.2-.3.5-.6.8-.8 1-.5.4-.9.4-1.4.4-.3-.3-.5-.5-.5-1 0-.4.1-.8.2-1.2.2-.4.4-.8.7-1.2.3-.2.6-.6 1-.8z"/><path d="M-365.3 672.1c-.3.5-.6.9-1 1.3-.5.6-1 1.1-1.5 1.6-2.2 1.9-4.8 3.2-7.1 3.8 1.7.5 3.4.8 5.3.8 2 0 4-.3 5.8-1 .6-1.5 1-3.1 1-4.8v-1.1c0-.2 0-.4-.1-.5-.9.2-1.7.1-2.4-.1zm-11.5 5.9c2.5-.2 5.7-1.5 8.3-3.8.5-.4 1-.9 1.4-1.5.3-.4.6-.8.9-1.1-.1-.1-.2-.2-.3-.4-.1-.1-.2-.3-.2-.4-4.1 1-7.8.8-11.2-.2-3.1-.8-5.9-2.2-8.6-3.8.9 2.9 2.4 5.5 4.5 7.5 1.4 1.5 3.2 2.8 5.2 3.7zm7.1-35c5.2 0 9.9 2.1 13.4 5.5s5.6 8.1 5.6 13.3c0 5.2-2.2 9.9-5.6 13.3-3.5 3.4-8.2 5.5-13.4 5.5-5.1 0-9.8-2.1-13.2-5.5-2.4-2.5-4.2-5.6-5-9.1-.1 0-.1-.1-.2-.1l.1-.2c-.3-1.3-.4-2.6-.4-4 0-5.2 2.1-9.9 5.5-13.3 3.4-3.4 8.1-5.4 13.2-5.4zm0 1c-1.2 0-2.4.1-3.5.4 2.5 3.1 4.5 6.3 6.2 9.7s3.1 6.8 4.5 10.4c.6-.2 1.2-.4 1.8-.4h.3c.8-3.1 1.2-6.1 1-9.1-.2-3.1-1-6.1-2.7-9.1l.2-.1c-2.4-1.2-5-1.8-7.8-1.8zm-4.6.6c-3 .8-5.7 2.4-7.9 4.6-.8.8-1.6 1.7-2.2 2.7 3.7 4.8 8 8.8 12.9 12 1 .6 1.9 1.2 3 1.8.8.5 1.7.9 2.6 1.4.5-.6 1.1-1.2 1.8-1.7.3-.2.5-.3.8-.5-1.4-3.5-2.8-7-4.5-10.4-1.8-3.4-3.9-6.8-6.5-9.9zm-10.7 8.3c-1.5 2.6-2.4 5.6-2.4 8.9 0 1.2.1 2.4.4 3.6 2.9 1.8 5.9 3.4 9.2 4.3 3.3.9 6.9 1.1 10.8.2v-.2c0-.5.2-1 .4-1.5-.9-.4-1.7-.9-2.5-1.4-1-.6-2-1.2-3-1.9-4.9-3.3-9.2-7.3-12.9-12zm22.5 25.1c2.1-.9 3.9-2.2 5.5-3.7 1.1-1.1 2.1-2.4 2.9-3.8-1.1-.1-2.2-.3-3.4-.6l-1.3-.3c-.3.4-.7.7-1.2 1.1-.1.1-.2.2-.4.3-.3.2-.6.4-1 .6-.2.1-.5.2-.7.3 0 .3.1.5.1.8v1.1c.2 1.4-.1 2.9-.5 4.2zm9-8.5c1.2-2.3 1.8-5 1.8-7.8v-.5c-.9 1.2-2.2 2.4-3.7 3.4-.4.3-.8.5-1.2.7-.3.1-.6.3-.8.4.2.7.1 1.5-.2 2.3-.1.2-.2.5-.4.7.3.1.6.1.8.2 1.3.3 2.5.6 3.7.6zm1.7-9.9c-.5-4.1-2.4-7.7-5.2-10.4-1.1-1-2.3-2-3.6-2.7 1.4 2.8 2.1 5.6 2.3 8.4.2 3.1-.2 6.1-1 9.3.5.1.9.4 1.2.7.3-.1.6-.3.9-.4.4-.2.8-.4 1.1-.7 1.9-1.2 3.4-2.8 4.3-4.2zm-11.8 6.6c-1.4 1-2.3 2.3-2.4 3.4v.5c0 .2.1.3.2.4.6.7 1.8.8 3.2.4.3-.1.6-.2.8-.4.3-.1.6-.3.8-.5.1-.1.2-.2.3-.2.9-.7 1.6-1.5 1.9-2.3.3-.7.3-1.3 0-1.8-.4-.5-1.1-.7-1.9-.7-.8.1-1.9.5-2.9 1.2zm2.7 3.9z"/></svg>