<svg xmlns="http://www.w3.org/2000/svg" width="542.79" height="542.25" viewBox="0 0 542.789 542.249"><path d="M0 0v210.24l271.35 332 271.44-332V0"/><path fill="#FFF" d="M3.6 3.6v205.38l267.75 327.5L539.2 209V3.6"/><path d="M314.64 198.63v241.1l197.2-241.1"/><path fill="#ED1C24" d="M30.96 198.63l197.28 241.1v-241.1"/><path d="M30.96 28.44h480.87v144.54H30.96z"/><path d="M490.6 85.6V70.46c0-11.07-9.1-20.16-20.17-20.16H419.5c-11.08 0-20.17 9.1-20.17 20.17v60.48c0 11.07 9.1 20.16 20.16 20.16h50.9c11 0 20.1-9 20.1-20.1v-15.1h-20.1V126c0 2.8-2.25 5.04-5.04 5.04H424.5c-2.8 0-5.04-2.25-5.04-5.04V75.5c0-2.78 2.24-5.03 5.03-5.03h40.8c2.8 0 5 2.25 5 5.04v10.1h20.16zM52.3 70.47v20.16c0 11.07 9 20.16 20.15 20.16h45.9c2.7 0 5.04 2.2 5.04 5v10.1c0 2.8-2.4 5-5.1 5h-66v20.13h71.1c11 0 20.1-9.08 20.1-20.15v-20.1c0-11.1-9.1-20.18-20.16-20.18H77.5c-2.8 0-5.05-2.25-5.05-5.04V75.5c0-2.78 2.25-5.03 5.04-5.03h66V50.3H72.4c-11.15 0-20.15 9.1-20.15 20.17M239.13 50.3h-71.1v100.8h20.16v-40.3h50.9c11 0 20-9.1 20-20.17V70.47c0-11.07-9-20.16-20.07-20.16m0 35.3c0 2.8-2.35 5.1-5.05 5.1h-45.9V70.5H234c2.7 0 5.04 2.34 5.04 5.04v10.1zm44.47 65.5h20.16v-40.3h50.93V90.7h-50.9V70.5h71.1V50.3h-91.2" fill="#FFF"/></svg>