<svg xmlns="http://www.w3.org/2000/svg" viewBox="-417.5 612.5 183.7 181.4"><path fill="#FFF" stroke="#000" stroke-width=".96" stroke-miterlimit="2.61" d="M-234.3 613H-417v68l92.7 112.2 90-112.2z"/><path fill="#CD3529" d="M-337.9 762v-87.1h-71.2l71.2 87.1z"/><path d="M-313.6 762v-87.1h71.2l-71.2 87.1zm71-93.5v-49.4h-166.6v49.4"/><path fill="#FFF" d="M-391.2 634.6h18.9v-6.9h-25.2v20.1h18.6v5.8h-18.6v6.6h25.2v-19.7h-18.9m58 7.1v-19.9h-25.2v32.5h6.4v-12.6h18.8zm-18.7-13.4h13.1v7h-13.1v-7zm38.9 6.7v-6.5h18.7v-7h-25.2v32.5h6.5v-12.3h18.7v-6.7m21.3-6.5h18.7v-7h-25.2v32.5h25.2v-7H-273"/></svg>