<svg id="Layer_1" xmlns="http://www.w3.org/2000/svg" viewBox="-204.5 306 183.7 181.5"><style>.st0{fill:#FFFFFF;stroke:#000000;stroke-width:0.9639;stroke-miterlimit:2.6131;} .st1{fill:#CD3529;} .st2{fill:#FFFFFF;}</style><path class="st0" d="M-21.3 306.5H-204v68l92.7 112.2 90-112.2z"/><path class="st1" d="M-124.9 455.5v-87.1h-71.2l71.2 87.1z"/><path d="M-100.6 455.5v-87.1h71.2l-71.2 87.1zm71-93.5v-49.4h-166.6V362z"/><path class="st2" d="M-178.2 328.1h18.9v-6.9h-25.2v20.1h18.6v5.8h-18.6v6.6h25.2V334h-18.9zm58 13v-19.9h-25.2v32.5h6.4v-12.6h18.8zm-18.7-13.4h13.1v7h-13.1v-7zm38.9 6.7v-6.5h18.7v-7h-25.2v32.5h6.5v-12.3h18.7v-6.7zm40-6.5h18.7v-7h-25.2v32.5h25.2v-7H-60z"/></svg>