<svg xmlns="http://www.w3.org/2000/svg" xmlns:xlink="http://www.w3.org/1999/xlink" viewBox="0 0 133.5 149.5"><defs><path id="a" d="M67.4 149.2l-.6.3-.6-.3c-9.7-4.7-18.2-10.5-25.7-17.2-7.8-7-14.4-14.9-19.8-23.5-6.9-11-12-23.2-15.4-36.4C1.7 58.5 0 43.8 0 28.5v-1.2l1.2-.1c20.3-2.6 33.7-6 43.5-10.2 9.6-4.2 15.6-9.3 21-15.6l1-1.2 1.1 1.2c5.4 6.3 11.4 11.4 21 15.6 9.7 4.3 23.2 7.6 43.5 10.2l1.2.1v1.2c0 15.4-1.7 30.1-5.2 43.7-3.4 13.2-8.5 25.4-15.5 36.4-5.5 8.6-12 16.5-19.8 23.5-7.4 6.6-15.9 12.4-25.6 17.1z"/></defs><clipPath id="b"><use xlink:href="#a" overflow="visible"/></clipPath><g clip-path="url(#b)"><defs><path id="c" d="M0 0h133.5v149.5H0z"/></defs><clipPath id="d"><use xlink:href="#c" overflow="visible"/></clipPath><path clip-path="url(#d)" fill="#FFCF01" d="M-3.1-7.2h140.2v160H-3.1z"/></g><path fill-rule="evenodd" clip-rule="evenodd" d="M34.9 23.3c-8.3 2.5-18.8 4.6-32.1 6.3 0 8.7.7 17.2 1.8 25.3l30.3-31.6zm31.9 123.1c9.2-4.6 17.3-10.1 24.4-16.4 7.6-6.8 14-14.5 19.3-22.9 6.8-10.7 11.8-22.7 15.1-35.6.4-1.4.7-2.9 1-4.3l-70.2 73.4c3.3 2.1 6.8 4 10.4 5.8zM130.6 35c.1-1.8.1-3.6.1-5.4-7-.9-13.2-2-18.8-3.1L28 114.3c3.8 5.1 8.2 9.9 13 14.4L130.6 35zM90.8 20.7c-1.1-.4-2.1-.9-3.1-1.3-5.8-2.5-10.3-5.3-14.2-8.6L9.7 77.7c2.1 6.9 4.7 13.5 7.9 19.7l73.2-76.7z"/><defs><path id="e" d="M126.6 67.2c2.3-10.2 3.6-21 4-32.1L41 128.8c.4.4.9.8 1.3 1.2 4.3 3.9 9 7.4 14.1 10.6l70.2-73.4z"/></defs><clipPath id="f"><use xlink:href="#e" overflow="visible"/></clipPath><g clip-path="url(#f)"><defs><path id="g" d="M41 35h89.6v105.5H41z"/></defs><clipPath id="h"><use xlink:href="#g" overflow="visible"/></clipPath><path clip-path="url(#h)" fill="#D91921" d="M16.1 27.6h114.5v115.9H16.1z"/></g><defs><path id="i" d="M111.9 26.6c-8.5-1.7-15.4-3.7-21.1-5.9L17.6 97.4c1.7 3.3 3.5 6.5 5.5 9.7 1.6 2.5 3.3 4.9 5.1 7.3l83.7-87.8z"/></defs><clipPath id="j"><use xlink:href="#i" overflow="visible"/></clipPath><g clip-path="url(#j)"><defs><path id="k" d="M17.6 20.7H112v93.7H17.6z"/></defs><clipPath id="l"><use xlink:href="#k" overflow="visible"/></clipPath><path clip-path="url(#l)" fill="#D91921" d="M14.1 3.5h114.5v115.9H14.1z"/></g><defs><path id="m" d="M73.5 10.8c-2.5-2-4.7-4.2-6.8-6.6-5.4 6-11.5 11-21 15.1-3.2 1.4-6.8 2.7-10.9 3.9L4.6 55c.8 5.6 1.9 11.2 3.3 16.5.5 2.1 1.1 4.2 1.8 6.2l63.8-66.9z"/></defs><clipPath id="n"><use xlink:href="#m" overflow="visible"/></clipPath><g clip-path="url(#n)"><defs><path id="o" d="M4.6 4.3h68.9v73.4H4.6z"/></defs><clipPath id="p"><use xlink:href="#o" overflow="visible"/></clipPath><path clip-path="url(#p)" fill="#D91921" d="M2.5-2h104.1v105.4H2.5z"/></g><path fill-rule="evenodd" clip-rule="evenodd" fill="#FFDA00" d="M32 52.9c-6.7-4-9.9-10.3-10.2-20.1 5.3-.2 8.4-1.8 10.2-4.1 1.8 2.3 4.6 3.4 10 3.7-.3 10.4-3.2 16.4-10 20.5z"/><path fill-rule="evenodd" clip-rule="evenodd" d="M78.7 64.6v2.1c0 2.3-.1 4.6.3 6.5.2 1.2.5 2.3 1 3.5s1.2 2.4 2.3 3.8c.4.5.9 1.2 1.5 1.8.9 1 1.7 2 2.3 3 .1.2.3.4.4.6.5.8 1.4 1.4 2.4 1.8 1.1.5 2.2.7 3.4.7 1.3 0 2.7-.5 3.7-1.4.9-.8 1.4-2 1.5-3.5.2-3.5-2-7.4-4.4-11.7-1.2-2.1-2.4-4.2-3.4-6.4-1-2.1-1.7-4.2-2.2-6.4-.4-2.2-.6-4.4-.4-6.8.1-1.6.6-3.1 1.3-4.3.7-1.3 1.7-2.4 2.8-3.1.5-.3 1.1-.6 1.7-.8.6-.2 1.3-.3 1.9-.3 2.2 0 4.3 1.1 5.7 3.1 1.3 1.8 2.1 4.3 2.2 7.5.4.5.8 1.2 1.2 2.1.4 1 .8 2.2 1 3.2.2.8.2 1.6.2 2.4 0 .8 0 1.5.2 2.1.1.5.3 1 .6 1.5.5 1.1 1 2.3 1 4 0 .4-.4.6-.8.4-.4-.3-.7-.5-.9-.6-.4-.3-.7-.5-1.4-1-.2-.1-.5-.3-.9-.5-.1 0-.1-.1-.2-.1-.8-.4-1.7-.9-2.1-1.3-.6-.6-1.1-1.3-1.5-2.2-.4-1-.8-2.1-1-3.1-.2-1-.2-2.4-.1-3.6.1-1.3.3-2.5.6-3.2 0-.3.2-.7.4-1.2s.4-.9.4-1.2c-.1-1.1-.7-2.4-1.6-3.3-.7-.7-1.7-1.2-2.8-1.1-1 .1-1.7.5-2.2 1.2-.6.7-.9 1.6-1.2 2.5-.3.9-.4 2.1-.3 3.4.1 1.4.3 2.9.7 4.5 1 4.2 2.9 7.2 4.9 10.3.9 1.4 1.8 2.9 2.7 4.5.8 1.5 1.6 3.3 2 5.1.4 1.6.7 3.3.6 5-.1 2.8-1.1 5.3-2.9 7.1-1.7 1.7-4 2.8-6.8 2.8-1 0-2-.1-2.9-.3-.7-.2-1.4-.5-2.1-1-.1.3-.1.5-.2.8-.1.4-.1.9 0 1.5.1.7.3 1.4.6 2.1.4.9.8 1.7 1.1 2.4.3.6.5 1 .7 1.2.2.2.5.4.7.7 1.1 1.1 2.1 2.1 3.1 2.5.2.1.5.1.7.2.7.1 1.2.3 1.2 1 0 .5-.1.7-.2 1.1-.1.2-.1.4-.2.6-.1.5-.2 1.1-.3 1.7-.1.6-.1 1.2-.1 1.6 0 .6.1 1.4.3 2.2.2.8.4 1.6.6 2.3.1.3.2.6.4 1 .3.6.5 1.3.8 2.3v.1c.1 0 .2.1.4.2.6.3 1.2.6 1.2 1.3 0 .5-.6 1.1-1.2 1.6-.3.3-.6.5-.8.8 0 .1-.3.2-.3.2h-1.6c-.4 0-1.1.6-1.6.9-.1.1-.3.2-.3.3-.5.4-1.6.5-2.6.3-.7-.1-1.4-.4-1.8-.9-.2.1-.4.1-.6.1-.3.1-.6.1-.9.1-.4 0-.9-.1-1.3-.2-.1 0-.2-.1-.3-.1v.2c0 .3 0 .5.1.9 0 .2-.1.5-.3.6-.5.1-1 .1-1.4-.1-.3-.1-.6-.4-.8-.6-.2-.3-.4-.6-.5-.8 0-.2-.1-.4-.1-.5l-.3.3-.2.2c-.3.3-.6.4-1 .1-.5-.6-.7-1.3-.7-2 0-.9.2-1.8.5-2.2 0-.2.1-.4.2-.5v-.1c.1-.3.3-.7.8-1.2.4-.5 1.2-1 2.3-1.5.7-.3 2.2.9 3.4.8h.3v-.4c.1-3.8.1-5.1-.8-6.3-.4-.5-.8-.9-1.4-1.3-.5-.4-1.2-.6-1.9-.9-1.3-.4-2.5-.9-3.6-1.4-1.1-.5-2.2-1.1-3.3-1.8-2.5-1.5-4-3.5-5-5.8-.2-.5-.4-1.1-.6-1.6-.6.3-1.6.6-2.9 1-.1 0-.1.1-.2.1-1 .4-2.7 1.6-4 2.9-1 1-1.7 2-1.8 2.8-.1.6 0 1.2.1 1.7.3 1.6.5 3.2-2.1 5.2-.1.5-.4 1-.5 1.5-.4 1-.8 2.1-.8 3.4.5.5.7 1.2.6 1.9 0 .6-.4 1.3-.9 1.8s-1.1.9-1.7.9h-.8c-.4-.1-.9-.1-1.1 0-1.6.7-2.8.8-3.7.7-.9-.1-1.4-.4-1.7-.7-.4.1-.8.3-1.1.4H48c-.1 0-.2 0-.3-.1l-.7.6c-.1.1-.4.1-.5.1-.4-.1-.8-.4-1-.8-.1-.1-.1-.2-.2-.3-.1.4-.2.7-.7.8-.4.1-1-.1-1.6-.7-.4-.4-.8-.9-1-1.5v-.1c0-.1-.1-.2-.1-.3v-.1c0-.1-.1-.2-.1-.3l-.3-.6c-.3-.6-.3-1.3-.3-1.9.1-.6.3-1.2.7-1.8.4-.5 1-1 1.6-1.4.6-.3 1.3-.5 2-.6 1.1 0 2 .5 2.8 1.1.7.4 1.4.9 2.1.8.3 0 .5-.1.8-.3.3-.2.5-.4.7-.7.2-.3.2-.7.2-1.1v-2.4c0-.7 0-1.5-.1-2.3 0-.8 0-1.6-.1-2.3 0-1.6 0-3.1-.3-4.7-.1-.8-.3-1.6-.3-2.4-.1-1.4 0-2.9.4-4.2.4-1.4 1.1-2.8 2.3-4 3.1-3.2 7.4-3.5 12.5-3.8.3 0 .7 0 1-.1-.1-.2-.3-.5-.4-.7-1-2-2.7-3.6-4.6-5.5-2.6-2.6-5.7-5.6-8.5-11-.7-.1-1.5-.3-2.2-.6-.9-.3-1.8-.8-2.8-1.4-.9-.5-1.4-.9-2-1.4-.7-.5-3-2.3-4-2.3-.2 0-.6.4-1 .7-.3.3-.6.5-.9.7-.5.3-.9.2-1.2-.4-.1-.2-.1-.5-.1-.8-.2.1-.5.2-.8.4-.7.4-1.3.6-1.9.7-.6 0-1.2-.2-1.8-.7-.7-.6-1.5-1.4-2.2-2.3-.6-.8-1.1-1.7-1.4-2.3-.1-1-.7-2.7.3-3.2-.4-.6-.7-1.7-.6-2.4.3-.3.9-.4 1.3-.5-.1-.5-.4-1.2-.5-1.7.4-.4 1.4-.5 1.7-.5 0-.1-.1-.1-.1-.2-.1-.4-.2-.8-.2-1.3 1.2-.9 4-.4 4.2.2.4.4.7 1 .9 1.6.1.4.3.9.4 1.3.3.9.5 1.8 1 2.2l.1.1c.7.8 1.4 1.1 2.1 1.5.3.1.6.3 1 .5.3.2.8.4 1.2.6 1.6.8 3 1.6 5.1 2.9.1-.1.2-.1.3-.2-.4-1.7-1.1-3.9-1.8-6-.6-1.7-1.2-3.2-1.7-4.2-.3-.5-.4-.8-.5-1-.1-.4-.2-.5-.8-.9-.1-.1-.3-.1-.4-.2-.4-.2-.7-.3-.8-.8-.1-.3 0-.7.3-1l.1-.1c-.5-.3-.9-.7-1.3-1.1-.6-.7-1.2-1.7-1.6-2.7-.3-.7-.4-1.4-.5-2-.1-.9-.2-1.7-.2-2.3 0-.2.2-.5.4-.5.6 0 1.1 0 1.5.1v-.1c-.1-.3-.1-.6-.3-.9-.1-.3.1-.7.5-.7h1.1c.2 0 .4 0 .7-.1v-.1c-.1-.3-.2-.7-.1-.9 0-.1.2-.2.3-.3.7-.2 1.3-.3 1.9-.2h.3c0-.2.1-.4.2-.5 0-.1.3-.2.4-.2.6 0 1.1 0 1.6.1s.9.2 1.2.5c.4.2.8.5 1.1.9.8.8 1.3 1.9 1.4 3 .2 1.1 0 2.3-.5 3.2-.2.4-.5.7-.8 1-.1.1-.3.2-.4.3-.4.4-.7.6-.6 1.3.3.8 1.1 2.1 2.1 3.6.8 1.3 1.8 2.6 2.8 3.7 1.6-1.4 3-2.6 4.5-3.6.9-.6 1.9-1.1 2.9-1.5-.1-.1 0-.1-.1-.1s-.2.1-.4.1c-.4.2-.9.5-1.8.4-.2 0-.3 0-.5-.1-.5-.2-.8-.5-1-.9-.1-.5-.1-.9-.1-1.3 0-.2.1-.5.1-.7 0-.2-.1-.4-.2-.7-.1-.3-.3-.7-.3-1.1 0-.6.6-1.1 1.2-1.5.1 0 .1-.1.2-.1.1-.3.2-.6.4-.9l.1-.1c-.3-.1-.5-.4-.7-.7-.2-.3-.3-.6-.3-.8l-.1-.1c-.4-.2-1.1-.6-1.4-2-.2-.9 0-1.5.1-2.2.1-.4.2-.8.1-1.2-.1-.5-.2-.9.1-1.3.2-.4.7-.6 1.8-.6.4 0 1.1-.1 2-.4.6-.2 1.2-.4 1.7-.7.5-.7 1-1.1 1.7-1.4.7-.3 1.5-.5 2.6-.7.1 0 .3 0 .6-.1.5-.1 1.2-.2 1.8-.2.3-.5.5-1 .9-1.4.4-.6 1-.9 1.6-1 1.1 0 2.2.7 2.9 1.7.4.5.7 1.1.8 1.7.1.4.1.7.1 1.1 0 .1.1.1.1.2.1.4.4.8.7 1.2.3.3.5.6.8.7.6.2 1.1.7 1.6 1.1.6.5 1.1 1.1 1.4 1.7.2.4.3.7.5 1.1.1.2.1.5.3.7.2.4.5.7.8 1.1.4.4.8.7 1.3 1.1.6.5 1 1 1.3 1.6.5 1.1.5 2.3.6 3.5 0 .7.2 1.4.5 2 .4.5.9 1 1.9 1.3.1.1.3.3.3.4v.3c-.1.3-.3.7-.5.9-.3.2-.6.3-1 .4.1 1.2-.1 2.6-.4 3.9-.2 1.3-.5 2.5-1 3.8-.2.4-1 2.3-1.4 2.5-.1 2.1.3 4 .7 5 .1.2.2.4.1.5-.1.1-.4.2-.6.2-.6 0-1.1-.1-1.7-.5.1.3.2.5.4.8v.4c.3.3.7.4.7.4.2.1.4.1.4.3 0 .1-.2.5-.3.6-.7.5-1.5.8-2.4.8-1.1 0-2.2-.3-2.7-.6H79c-.1-.2-.2-.2-.3-.2z"/><path fill-rule="evenodd" clip-rule="evenodd" fill="#F8ABAD" d="M77.7 91c0 1.6.2 3.3 1.2 5.1.5 1 1.3 2 2.4 3.2-.7-1.3-1.3-2.6-1.7-3.9-.1-.2-.3-.6.2-.8.4-.2.6.3.7.5.5 1.3 1 2.6 1.8 3.9.8 1.3 1.7 2.5 3 3.6.2.1.3.5.1.7-.1.2-.5.2-.7 0-3.6-2.6-5.6-4.8-6.7-6.8-1.1-2.1-1.3-3.9-1.3-5.6 0-.2 0-.6.5-.6.5.1.5.5.5.7zm7.4 2.9c0 1 0 2.4.4 3.8s1.2 2.8 2.9 3.8c.2.1.6.4.4.8-.3.4-.7.1-.9 0-1.9-1.2-2.8-2.8-3.3-4.3-.4-1.6-.4-3-.4-4.1 0-.2 0-.6.5-.6.4 0 .4.4.4.6z"/><path fill-rule="evenodd" clip-rule="evenodd" d="M28 47.6v-.3c.1 0 .3-.1.4-.2 0-.1.1-.3.1-.5V35.7c0-.2 0-.4-.1-.5 0-.1-.1-.2-.3-.2v-.3h4.4c2 0 3.4 1.6 3.4 3.6 0 1-.4 2.5-1.3 3.2l1.6 4.5.3.6c.1.2.3.4.5.6v.3h-2.3v-.3c.1 0 .2-.1.2-.1.2-.3 0-.7-.1-.9l-1.4-4.1c-.4 0-.7.1-1 .1h-2.7v4.4c0 .2 0 .4.1.5 0 .1.2.1.4.2v.3H28z"/><path fill-rule="evenodd" clip-rule="evenodd" fill="#FFDA00" d="M32 36h-2.3v4.8H32c1.9 0 2.6-.9 2.6-2.5 0-1.5-.8-2.3-2.6-2.3z"/><path fill-rule="evenodd" clip-rule="evenodd" d="M36.3 42.7l.2-.1.8 2.4-.2.1c-.4-.4-.4-.5-1.2-.1-1.3.6-2.7.8-4.8.8-1.4 0-2.8-.3-3.7-.9-1.3-.9-1.7-2.3-1.7-3.4 0-1.8.9-4.4 5.5-4.4 1.2 0 2.7.3 3.7.5.9.2 1.3.5 1.4.5.1 0 .3 0 .4-.1.1-.1.3-.3.4-.3l.2.1-.8 2.5-.2-.1c.1-.5-.4-.8-1-1.1-.9-.4-2.4-.7-3.9-.7-3.2 0-4.3 1.5-4.3 3 0 1 .7 2.1 1.8 2.7.5.2 2 .3 3.2.3.8 0 3.1-.4 4-1.3.1 0 .3-.2.2-.4z"/><path fill-rule="evenodd" clip-rule="evenodd" d="M30.6 47.3h.2c.2.9.7.7 1.2-.1.4-.6.5-1.4.4-2.2-.1-1.3-.5-2.7-1-4-.5-1.6-1-3.2-1-4.8 0-1.2.3-2.3 1-3.1.5-.6 1.2-1 2-1.1.3 0 .6-.1.6-.5h.2v2.4H34c-.2-.7-.6-.6-1.1-.4-.3.1-.5.3-.7.5-.5.5-.7 1.3-.7 2.2 0 1.4.5 2.9.9 4.4.5 1.4.9 2.9 1 4.4.1 1.1-.1 2.2-.6 3.1-.3.6-.8 1-1.5 1.3-.5.2-.6.4-.7.7h-.2v-2.8h.2z"/><path fill-rule="evenodd" clip-rule="evenodd" fill="#FFDA00" d="M82.7 122.2c.1.2.1.4.3.5.1.2.3.3.5.4.1 0 .2.1.3.1v-1h-.4c-.2-.1-.4-.1-.7 0zm-35.8-3.3c-.1-.2-.3-.4-.4-.5h-.6c.1.2.1.4.2.5l.3.3.5-.3zm-2.4-.5c-.1-.1-.3-.1-.4-.1-.3 0-.5 0-.8.1.1.1.2.3.3.4.3.3.6.5.7.4.1 0-.1 0 0-.1 0-.3.1-.5.2-.7zm25.3-24.9c-.1-.5-.3-1.1-.4-1.6-.2.4-.4.9-.3 1.2 0 .1.1.2.3.3.1 0 .3 0 .4.1z"/><path fill-rule="evenodd" clip-rule="evenodd" fill="#FFDA00" d="M70.3 95.2c-.1-.3-.1-.5-.2-.8-.5 0-.8-.1-1.1-.3-.5-.3-.7-.6-.8-1.1-.1-.6.3-1.3.6-2 .2-.3.3-.7.4-.9V90c-.3-1.5-.6-3-1.2-4.4-.4 0-.9.1-1.4.1-4.9.3-9 .6-11.9 3.5-1.1 1.1-1.7 2.3-2.1 3.6-.4 1.3-.5 2.6-.4 3.9 0 1 .3 2 .4 3 .2 1.3.8 2 1.6 3 .1.2.3.3.3.4.1.2.3.4 0 .7-.4.3-.6 0-.7-.2-.3-.4-.7-.8-1-1.2v1.3c0 .8 0 1.6.1 2.3 0 .7 0 1.5.1 2.3v2.4c0 .6 0 1.2-.4 1.7-.3.3-.6.6-1 .9-.3.2-.7.4-1.2.4-1 .1-1.8-.4-2.7-.9-.7-.4-1.5-.9-2.3-.9-.5 0-1.1.2-1.6.4-.5.3-1 .7-1.3 1.1-.3.4-.5.9-.5 1.3v.4c.2-.4.4-.7.7-1 .5-.5 1.2-.8 1.8-.9h.8c.2 0 .6 0 .5.5 0 .5-.4.5-.6.4h-.5c-.5.1-.9.3-1.3.6-.4.4-.6.8-.7 1.5v.8c0 .1.1.1.1.2.5-.2.9-.3 1.4-.2.3 0 .5.1.7.2 0-.6 0-1.2.3-1.7.3-.7 1-1.3 2.5-1.6.2 0 .6-.1.6.4.1.5-.3.5-.5.6-1 .2-1.5.5-1.7 1-.2.4-.2 1-.1 1.6.1-.1.2-.1.3-.2.2 0 .4-.1.4-.1h.1c.4.1.6.5.9.9v.1c.1 0 .2.1.3.2l.9-.3c.8-.3 1.8-.7 2.6-.8.3 0 .6 0 .6.4 0 .5-.3.5-.5.5-.4 0-.9.2-1.4.3.2.1.4.1.7.2.7.1 1.8 0 3.2-.7.4-.2 1-.1 1.6 0 .3 0 .5.1.7.1.3 0 .7-.3 1-.6.4-.4.6-.8.6-1.2.1-1.3-1-1.8-2.1-1.9-.1 0-.2 0-.4.1s-.4.3-.5.5c-.2.2-.4.5-.8.2s-.1-.6 0-.8c.3-.3.5-.5.8-.7.3-.2.6-.3.9-.2.6 0 1 .2 1.4.3.1-1.2.5-2.1.9-3.1.3-.8.7-1.8.8-2.6.1-.9 0-1.8-.3-3-.1-.2-.2-.6.3-.7.5-.1.6.2.6.4.4 1.2.5 2.3.4 3.2 1.2-1.3 1-2.4.9-3.5-.1-.6-.2-1.2-.1-2 .1-1.1.9-2.3 2.1-3.4.5-.5 1.1-1 1.7-1.5-1.3.3-2.5.4-3.5.3-1.3-.2-2.2-.7-2.5-1.8-.4-1.3.3-2.3 1.2-3.2.8-.8 1.9-1.4 2.8-1.6.2-.1.6-.2.7.3.1.5-.3.6-.5.6-.8.6-1.8 1.2-2.5 1.8-.6.6-1.2 1.3-.9 2.2.2.7.8 1 1.7 1.1 1 .1 2.3 0 3.6-.3 2.3-.4 4.6-1.3 5.6-1.8zm10.3 24.3c-.1.3-.1.6-.1 1s.1.8.3 1.1c.1-.2.3-.4.6-.5-.1-.4-.1-.7-.1-1.1-.3-.1-.5-.3-.7-.5 0 .1 0 .1 0 0zM87.3 88c.1.3.2.6.2.9.1.8.1 1.7 0 2.7.7.5 1.4.9 2.1 1.1.8.2 1.7.3 2.7.3 2.5 0 4.6-1 6.1-2.5 1.6-1.6 2.5-3.9 2.6-6.5 0-1.6-.2-3.2-.6-4.7-.5-1.8-1.2-3.4-2-4.9-.9-1.6-1.8-3-2.6-4.4-2.1-3.3-3.9-6.3-5-10.6-.4-1.6-.6-3.2-.7-4.7-.1-1.4 0-2.6.3-3.6s.7-2 1.3-2.9c.7-.8 1.6-1.4 2.9-1.5 1.4-.1 2.6.5 3.5 1.4 1.1 1.1 1.7 2.6 1.8 3.9 0 .4-.2 1-.4 1.6-.1.4-.3.8-.3 1v.2c-.3.5-.4 1.7-.5 2.9-.1 1.2-.1 2.5.1 3.4l.3 1.2c.2-1.4.7-2.7 1-3.3.1-.2.4-.6.8-.4.4.3.2.7 0 .9-.3.5-.8 1.9-.9 3.3-.1.9 0 1.8.5 2.5.1.1.1.1.1.2.1.1.2.3.3.4.1 0 .1.1.2.2-.1-.3-.1-.5-.2-.8-.2-1.4 0-3 .2-4 .1-.2.2-.7.7-.6.5.1.3.6.3.8-.2.9-.4 2.3-.2 3.6.1.8.5 1.6 1 2.1 0 0 .1 0 .1.1.1 0 .1.1.2.1-.1-.3-.2-.5-.3-.8-.4-1.3-.5-2.8-.1-4.7 0-.2.1-.7.6-.6.5.1.4.5.4.8-.3 1.7-.3 3.1.1 4.2.3 1.1.9 1.9 1.7 2.6-.1-1-.5-1.8-.8-2.6-.3-.6-.5-1.1-.6-1.7-.1-.7-.2-1.5-.2-2.3 0-.8 0-1.6-.2-2.2-.2-1-.6-2.1-1-3-.4-.9-.8-1.6-1.1-2l-.1-.3c0-3-.8-5.4-2-7.1-1.3-1.8-3-2.7-5-2.7-.6 0-1.1.1-1.7.2-.5.1-1 .4-1.4.6-1 .6-1.8 1.6-2.5 2.7-.6 1.1-1 2.5-1.2 3.9-.2 2.3-.1 4.5.4 6.5.4 2.1 1.2 4.1 2.1 6.2 1 2.2 2.2 4.3 3.4 6.4 2.5 4.4 4.8 8.4 4.6 12.2-.1 1.8-.8 3.2-1.8 4.1-1.2 1.1-2.7 1.6-4.3 1.6-1.2 0-2.6-.3-3.8-.8-.4-.2-.8-.4-1.1-.6z"/><path fill-rule="evenodd" clip-rule="evenodd" d="M61.5 37.3c.2.1.3.3.4.5.2.3 1.1 1.8 1.2 1.8.7.1 2.1-.9 2.2-1.6 0-.3-.2-.6-.6-1-.7-.7-1.7-1.4-2.7-.8l-.5 1.1zm-7.1 16.8c0-.1.1-.3.2-.5 0-.1.1-.2.1-.2.1-.4.3-.8.5-1.2.1-.4.3-.8.4-1.2-.9.8-1.6 1.6-2 2.5-.4.8-.7 1.6-.7 2.7.6-.5 1-1.2 1.5-2.1z"/><path fill-rule="evenodd" clip-rule="evenodd" fill="#FFDA00" d="M85 38.8c-.2-.5-.5-1-.9-1.4 0 .5 0 1.2-.1 1.8 0 .2 0 .4-.1.6.4-.3.8-.6 1.1-1zm-5.2 25c.4.2 1.3.4 2.2.4.4 0 .7 0 1.1-.2-.1-.1-.3-.2-.5-.4-1.3 0-4.4-1.4-5.1-5.4.1.6.2 1.3.4 1.9.3 1.2.9 2.4 1.9 3.7zm-12.1-3.5c1.1 2.9 3.1 7.5 4.8 11.5.7 1.7 1.4 3.3 2 4.7.1.2.2.4-.3.6-.4.2-.5 0-.6-.3-.3-.6-.6-1.3-1-2.2-.3.2-.7.4-.8.5-.2 0-.6.2-.7-.3-.1-.5.3-.5.5-.7.3-.1.5-.3.6-.4-.2-.5-.4-.9-.6-1.4-.3.4-.8.7-1.3 1-.5.3-1.1.5-1.7.6-.2 0-.6.2-.7-.3.1-.5.4-.6.7-.6.5-.1 1-.3 1.5-.5.4-.2 1.1-.7 1.3-1.1-1-2.4-2.2-5-3.1-7.3-.2.7-.5 1.3-.8 1.9-.7 1.1-1.8 1.9-2.9 2-.9.1-1.7-.2-2.4-.6-.6-.3-1.1-.7-1.5-1-.1 0-.2 0-.3.1-2 .5-3.5 1-5.2 1 2.7 4.9 5.6 7.8 8.1 10.3 2 1.9 3.6 3.5 4.8 5.7 1.2 2 1.6 4.2 2.1 6.4 0 .1 0 .2.1.5.5 2.5 1 4.9 1.9 7.1.9 2.1 2.3 4 4.6 5.3 1.1.7 2.1 1.3 3.2 1.8s2.2 1 3.5 1.4c.8.3 1.4.6 2.1 1 .6.4 1.2.9 1.6 1.5 1.1 1.5 1 2.9.9 6.9v.4c.7.1.8.3 1.4.1.3-.1.5-.1.8-.1.3 0 .6.1.9.2.3.1.5.3.7.5.1.2.4.5 0 .8-.4.3-.6 0-.8-.2l-.3-.3c-.1-.1-.3-.1-.5-.1-.1 0-.3 0-.5.1-.9.3-1.1 0-1.9-.1H87c-.9.1-3.1-.9-3.1-.9-1.1.5-1.7.9-2 1.3-.3.4-.5.7-.5.9 0 0 0 .1-.1.2 0 .1-.1.2-.1.2v.1c0 .1.1.3.3.4l.2.2.3-.6c.3-.5.8-.8 1.3-1.1.8-.4 1.9-.4 3.1 0 .2.1.6.2.4.7-.2.4-.5.3-.7.2-.9-.4-1.7-.3-2.3 0-.4.2-.7.5-.9.8-.2.3-.4.7-.4 1 0 .4 0 .7.2 1 .1 0 .1.1.1.2.3 0 .6-.1.9-.1h.7c.1-.4.4-.7.9-1 .4-.3 1-.5 1.7-.5.4 0 .7 0 1.1.1.2.1.5.1.4.6-.1.5-.4.4-.7.3-.3-.1-.6-.1-.8-.1-.5 0-.9.1-1.2.3-.2.1-.4.3-.5.5.1.1.2.1.4.1.3.1.7.1 1 .2.2 0 .5 0 .7-.1.2 0 .5-.1.7-.2.4-.1.8-.4 1.1-.5.3-.1.5-.3.7-.3.2-.1.5-.2.7.3.2.4-.2.6-.4.7-.1 0-.3.1-.6.3-.2.1-.3.2-.5.3.3.2.6.3 1 .4.8.2 1.5.1 1.8-.1.1 0 .1-.1.3-.2.5-.5 1.4-1.2 2.2-1.2h1.3l.7-.7c.4-.4.9-.8.9-1l-.6-.4c-.3-.1-.5-.3-.7-.4-.3-.3-.7-.4-1.3-.4-.5 0-1.1.2-1.7.7-.2.1-.5.4-.8 0-.3-.4 0-.7.3-.8.7-.5 1.5-.8 2.2-.8.3 0 .5 0 .8.1-.1-.2-.2-.3-.3-.4-.3-.2-.5-.3-.8-.4h-1c-.2 0-.5 0-.5-.4 0-.5.2-.5.4-.5.4 0 .8-.1 1.2 0 .1 0 .2 0 .3.1-.1-.3-.2-.5-.3-.7-.2-.7-.5-1.6-.7-2.4-.1-.3-.1-.6-.2-.9 0 .2-.1.6-.6.6-.5-.1-.4-.5-.3-.7.2-1.3.1-2.7-.4-3.9-.5-1-1.2-1.9-2.2-2.4-.2-.1-.5-.3-.4-.7.2-.4.5-.3.7-.2 1.3.6 2.2 1.6 2.7 2.9.2.5.3.9.4 1.4v-.3c.1-.6.2-1.3.3-1.8.1-.3.1-.5.2-.8.1-.2.2-.4.2-.8 0 0-.2 0-.4-.1-.3-.1-.5-.1-.8-.3-1.2-.5-2.2-1.5-3.4-2.7l-.7-.7c-.3-.2-.5-.7-.9-1.4-.3-.6-.7-1.5-1.1-2.5-.3-.8-.6-1.6-.7-2.3-.1-.7-.1-1.3 0-1.9.5-1.6.6-3 .4-4.2-.2-1.2-.7-2.3-1.4-3.3-.5-.9-1.4-1.9-2.2-2.9L81.5 81c-1.1-1.4-1.9-2.7-2.4-3.9-.5-1.2-.9-2.4-1.1-3.7-.4-2.1-.3-4.4-.3-6.7v-2.1c-.9-.1-1.7-.4-2.5-1.2l-.5-.5h-.8c-1.6-.2-3.2-1-4.4-2.5-.5-.6-.9-1.3-1.2-2l.3 1.6c.1.3-.1.6-.5.6-.1-.3-.2-.3-.4-.3z"/><path fill-rule="evenodd" clip-rule="evenodd" fill="#FFDA00" d="M52.6 57.3l-.2.2c-.4.5-.9 1.2-1.9 1.9h.1c1.4-.4 2.9-.6 4-.4.2 0 .6.1.5.5-.1.5-.4.5-.7.4-.9-.2-2.2 0-3.5.4-1.2.4-2.4.9-3.2 1.6-.2.2-.5.4-.8 0-.3-.4 0-.6.2-.8.6-.5 1.4-1 2.2-1.3-2.2-1.4-3.7-2.2-5.2-3-.4-.2-.7-.4-1.2-.6-.3-.2-.6-.3-.9-.5-.8-.4-1.5-.7-2.4-1.7-.7-.5-1-1.6-1.3-2.7-.1-.4-.2-.8-.4-1.2-.2-.5-.4-.9-.7-1.2-.4-.4-.9-.4-1.4-.4-.8.2-.5.1-.8 1 .7 0 1.4.2 1.9.7.5.4.8.9.8 1.3 0 .2.1.6-.4.7-.5.1-.5-.3-.6-.5 0-.2-.2-.5-.5-.7-.3-.2-.6-.3-1.1-.4h-.7c-.6.3-.6.4-.6 1.5 1.6.4 2.2 1.2 2.7 2 .3.3 1 .9.5 1.4-.5.5-1-.5-1.3-.8-.5-.7-1.1-1.4-2.7-1.7-.8 0-.3 1.4-.3 1.5.3.2.4.4.8.6.4.2 1 .4 1.9 1 .2.1.5.3.3.7-.3.4-.6.2-.8.1-.9-.5-1.4-.8-1.8-.9-.8.3-.7 1.2-.5 1.5.2.6.6 1.3 1.2 2.1s1.3 1.6 2 2.1c.4.3.8.5 1.2.5.4 0 .9-.2 1.4-.5.4-.3.9-.5 1.2-.5 1.1-.3 1 .5 1.1 1.2.2-.1.4-.3.6-.5.5-.5 1.1-.9 1.6-.9 1.3 0 3.5 1.7 4.5 2.5.6.4 1.1.9 2 1.3.9.5 1.8 1 2.6 1.3.8.3 1.6.5 2.4.5 1.7.1 3.4-.3 5.5-.9.2-.1.4-.1.5-.1.1 0 .3 0 .4.1.4.3 1 .8 1.6 1.1.6.3 1.2.5 1.8.5.8 0 1.6-.7 2.2-1.6.4-.5.6-1.2.8-1.8.2-.9.2-1.3-.1-2.1-.1-.8-.4-1.4-.5-1.8-1.8-.9-3.1-3.3-3.7-5.5-.1 1.2 0 2.4.2 3.1.1.4-.3.7-.6.6-1.9-.7-2.7-1.4-3.1-2.3-.4.5-.8.7-1.1.9-.1.1-.2.1-.2.1-.2.2-.7.1-.8-.1-.2-.5-.4-1-.4-1.5-.4.7-.9 1.3-1.6 1.7-.2.1-.5 0-.7-.2-.1-.2-.2-.4-.3-.7-.4.5-.9.9-1.6 1.2h-.1z"/><path fill-rule="evenodd" clip-rule="evenodd" fill="#FFDA00" d="M54.8 50.4c-1-1.2-2.1-2.6-2.9-3.9-1-1.5-1.9-3-2.2-3.8v-.1c-.1-1.2.3-1.6.9-2.2l.3-.3c.3-.2.4-.5.6-.8.5-.8.6-1.7.4-2.6-.1-.9-.6-1.8-1.2-2.5-.3-.3-.5-.5-.9-.7-.3-.2-.6-.3-.9-.4-.1 0-.4-.1-.4.3 1 .5 1.8 1.3 2.2 2.4.3.9.3 2-.3 3.3-.1.2-.2.4-.6.3-.4-.2-.3-.4-.3-.6.5-1 .5-1.9.2-2.6-.3-.9-1-1.5-1.8-1.9-.5-.3-1-.4-1.5-.5-.6-.1-.8.1-.9.6 1.1.2 2 .8 2.6 1.8.5.8.7 2 .5 3.5 0 .3-.1.5-.5.4-.5-.1-.4-.3-.4-.5.2-1.3 0-2.2-.4-2.9-.4-.7-1.1-1.1-2-1.3-.5-.1-1-.1-1.5 0-.2 0-.4.8-.3 1 .9.3 1.5.9 2 1.6.9 1.2 1.3 2.7 1.6 3.9.1.2.1.5-.4.6-.5.1-.5-.1-.6-.4-.3-1.1-.7-2.5-1.4-3.5-.5-.6-1.1-1.1-2-1.4-.3-.1-1.2.5-1.2.9 0 .2.1.4.1.6.1.6.3 1.3.5 1.9.4.9.8 1.7 1.4 2.4.5.6 1.1 1 1.7 1.2.4.1.4.8 0 .9-.2.1-.3.1-.4.3-.1.1-.1.2-.1.3 0 0 .1 0 .2.1s.3.1.5.3c.9.5 1 .8 1.2 1.3.1.2.2.5.4.9.5 1 1.2 2.6 1.8 4.3.7 1.9 1.3 4 1.7 5.6.4-.4.7-.8 1-1.1.1-.1.1-.2.2-.3v-.1c0-1.5.3-2.6.9-3.7.6-1 1.3-1.8 2.2-2.6zm17.2-25c.2-.5.6-.7.9-.8.3-.1.6 0 .8 0 .4.1.9.4 1.2.8.3.4.5.9.6 1.4.1.7 0 1.3-.3 1.8-.1.2-.2.3-.3.4.5-.3.8-.7.9-1.1.1-.4.1-.9 0-1.3-.1-.5-.4-1-.7-1.4-.6-.8-1.4-1.4-2.1-1.4-.3 0-.6.3-.9.6-.3.4-.6 1-.9 1.5-.1.1-.3.3-.4.3-.6 0-1.4.1-2 .2-.2 0-.4 0-.6.1-1 .1-1.7.3-2.3.6-.5.3-1 .7-1.4 1.2l-.1.1c-.5.3-1.3.6-2 .8-.9.3-1.8.4-2.2.4-.7 0-.9 0-1 .1 0 .1 0 .3.1.7v.1c0 .5-.1 1-.2 1.5s-.2 1.1-.1 1.8c.2.9.6 1.2.9 1.3.3.1.4.3.5.6 0 .3.1.5.3.8 0-.1.1-.1.1-.2.2-.4.3-.8.6-.9.6-.4 1.2-.4 1.9-.3.5.1 1.4.6 2 1.2.6.6.9 1.3.9 1.9-.1.6-.7 1.3-1.3 1.7-.7.4-1.4.7-2 .6-.8-.1-1.4-1.6-1.7-2.2l-.3.6s-.1.2-.2.3c-.1.1-.2.2-.4.3-.4.3-.8.6-.8.7 0 .2.1.5.2.7.1.3.3.7.3 1.1v.2c0 .1-.1.3-.1.5 0 .3 0 .5.1.8.1.2.2.3.4.4h.2c.7 0 1-.1 1.4-.3.3-.1.5-.3.9-.2.3 0 .5.2.7.4l.3.3c.5-.2 1.1-.3 1.7-.4.8-.2 1.7-.6 2.4-1.2.8-.7 1.4-1.5 1.9-2.4.4-.8.6-1.5.6-2.3.1-.8 0-1.6-.2-2.3-.1-.2-.2-.5.2-.7.5-.1.6.1.6.4.3.8.4 1.7.3 2.7-.1.8-.3 1.7-.7 2.6-.5 1-1.2 2-2.1 2.7-.8.7-1.8 1.2-2.8 1.4-.6.1-1.2.3-1.7.4-.1.1-.2.1-.2.1-1.2.4-2.3 1-3.3 1.6-1.5 1-2.9 2.2-4.5 3.6h.2c.4.2.3.4.3.7-.2.5-.3.9-.5 1.3-.3.7-.5 1.3-.7 1.9-.1.3-.1.6-.1.9 0 .2 0 .3.1.5.9-.8 1.4-2.4 1.8-3.6l.3-.9c.1-.3.4-.4.6-.3.2.1.4.4.3.6l-.3.9c0 .1-.1.3-.1.5 0 .3-.1.7-.1 1.1 0 .6 0 1.2.2 1.8.4-.2.9-.7 1.1-2.2v-1.6c0-.2.2-.4.4-.4.3 0 .5.2.5.4 0 .6 0 1.2-.1 1.6-.1 1.5.1 2.5 1.9 3.3-.1-.8-.1-1.8 0-2.8.1-1.2.3-2.2.8-2.7.1-.2.4-.3.6-.2.2.1.3.3.2.5-.3 2.4 1.3 6.9 3.9 7.5-.2-1-.3-2.1-.3-3.2 0-1.4.1-2.7.4-3.9.1-.2.3-.4.5-.4s.4.3.4.5c-.1.6-.1 1.1-.1 1.6 0 2.5.7 4.3 1.7 5.6 1 1.3 2.4 2 3.8 2.2-.3-.5-.8-1.5-1.1-2.5-.6-2-.9-4.1-.8-5.7 0-.2 0-.6.5-.6s.5.4.5.6c-.1 1.6.2 3.6.8 5.4.5 1.6 1.3 3 2.2 3.9.8.8 1.7.9 2.6 1-.7-1.1-1.3-2.2-1.6-3.3-.4-1.4-.5-2.8-.5-4.3 0-1.1.2-2.1.5-3.1.1-.2.2-.5.7-.4.5.1.3.5.3.7-.3.9-.5 1.9-.5 2.9v1c0-.1.1-.2.4-.2.5 0 .5.2.5.4.3 3.9 2.9 5.2 4.1 5.4-.3-.7-.6-1.6-.8-2.5-.3-1.1-.4-2.3-.4-3.4 0-.8 0-1.6.1-2.4.1-.8.2-1.5.4-2 .1-.2.2-.6.7-.5.5.1.3.6.3.8-.2.5-.3 1.1-.4 1.8-.1.7-.1 1.4-.1 2.1 0-.4.1-.7.2-1.1.1-.4.2-.8.3-1.3 0-.3.1-.7.6-.6.5.1.4.5.4.7-.1.5-.2 1-.3 1.4-.2.9-.3 1.7-.1 2.7.1.5 1 1.8.5 2.1-.4.3-.6-.1-.7-.3-.3-.5-.5-1-.7-1.5 0 .3.1.6.2.9.4.8.8 1.2 1.2 1.5.2.1.3.2.5.2-.3-1.2-.5-2.9-.5-4.7 0-1.8.4-3.6 1-5.1.1-.2.4-.4.6-.4.2 0 .3.4.3.6 0 .4 0 .8-.1 1.3.3-.9.5-1.8.6-2.7.3-1.5.5-2.9.3-4.2v-.4c.2-.2.6-.1.9-.1.2 0 .4-.1.6-.3-.9-.4-1.6-.9-2-1.6-.5-.7-.7-1.6-.7-2.4 0-.5 0-1-.1-1.5l-.4.4c-.5.4-.9.7-1.5.9-.4.2-.9-.3-.7-.7.1-.1.1-.3.2-.5l-.1.1c-.8.7-1.7.9-2.7.9-.4 0-.6-.4-.5-.7.1-.2.1-.3.2-.5-.8.9-1.8 1.7-3.1 2.1-.4.1-.8-.3-.6-.6.2-.4.3-.8.4-1.2-.7.9-1.7 1.6-2.7 2-.4.1-.7-.3-.6-.6.3-.9.5-1.8.5-2.7 0-.9-.3-1.8-.9-2.7-.1-.2-.3-.5.1-.7.4-.3.6 0 .7.2.7 1.1 1 2.2 1 3.2 0 .7-.1 1.3-.2 2 .5-.3.9-.7 1.3-1.2.6-.7.9-1.5 1-2.3 0-.2.3-.5.5-.5s.5.2.5.5c0 .8 0 1.6-.1 2.4-.1.4-.1.7-.2 1 .7-.4 1.3-.9 1.8-1.5.7-.9 1.1-1.8 1-2.4 0-.2.1-.5.3-.5.2-.1.5 0 .6.3.2.5.2 1.2.1 2-.1.5-.2 1-.4 1.6.5-.1 1-.3 1.4-.6.5-.5.9-1.4.9-3-.2-.2-.4-.4-.7-.6-.4-.4-.8-.9-1-1.4-.1-.3-.2-.5-.3-.7-.1-.3-.2-.6-.4-.9-.3-.5-.8-1-1.3-1.5-.4-.4-.9-.7-1.3-.9-.4-.2-.8-.5-1.2-.9-.2-.2-.3-.4-.4-.6-.4.6-.9 1.1-1.8 1.4-.2.1-.4.1-.6-.3-.1-.1-.1-.3 0-.3h-.1c-.2.1-.5.1-.6-.3-.1-.5.1-.5.3-.6.4-.1.7-.3.8-.6.2-.3.3-.7.2-1.2 0-.4-.2-.7-.4-1-.2-.3-.4-.4-.6-.5h-.5c-.1 0-.2.1-.3.3-.1.2-.2.4-.6.2-.4-.3-.3-.5-.2-.7z"/><path fill-rule="evenodd" clip-rule="evenodd" d="M63.9 29.8c-.2-.2-.2-.6.1-.8.3-.2.9-.6 1.6-.8.3-.1.5-.1.7-.1.2 0 .5.1.7.2.3.1.5.3.8.4.3.2.6.5.7.6 0 .1.1.3.1.4-.1.4-.4.5-.9.6-.3 0-.7.1-1 .3-1.6.8-1.9.4-2.4-.3-.2-.2-.3-.4-.4-.5z"/><path fill-rule="evenodd" clip-rule="evenodd" fill="#FFDA00" d="M64.9 29.5c.1.1.1.1 0 0 .3.3.4.5 1.3 0 .3-.2.6-.3.9-.3-.1-.1-.3-.1-.4-.2h-.3c-.1 0-.3 0-.4.1-.5.1-.8.3-1.1.4z"/><path fill-rule="evenodd" clip-rule="evenodd" d="M65.7 31.9c1.6.8 2.5 2.2 3 3.6.3 1 .3 2.1.1 3-.2 1-.7 1.9-1.4 2.6-1 1-2.3 1.6-4.2 1.6-.2 0-.5 0-.5-.5s.3-.5.5-.5c1.5 0 2.7-.5 3.5-1.3.6-.6 1-1.3 1.2-2.2.2-.8.1-1.7-.1-2.6-.4-1.2-1.2-2.3-2.5-3-.2-.1-.4-.2-.2-.7.2-.2.4-.1.6 0zm6.8 12.9c-.1.7-.1 1.6.1 2.5.1.6.4 1.1.8 1.6 0-.6 0-1.2.1-1.8.1-1 .4-1.9.7-2.7.1-.2.2-.4.6-.3.5.2.4.4.3.6-.3.7-.5 1.5-.7 2.4-.1.8-.1 1.7 0 2.7 0 .4-.4.7-.7.5-1.2-.7-1.7-1.7-2-2.8-.3-1-.2-2.1-.1-2.9 0-.2.1-.5.5-.4.5.1.5.4.4.6zm5.2-1.3c0 .2-.1.5-.1.7-.1 1 .1 2.2.6 3.2.4.8.9 1.4 1.7 1.7-.2-.6-.3-1.2-.3-1.8 0-1.2.3-2.5.8-3.4.1-.2.2-.4.6-.2.4.2.3.4.2.7-.4.8-.7 1.8-.7 2.9 0 .8.2 1.6.7 2.2.1.2.2.4.1.5-.2.4-.8.3-1.1.2-1.4-.3-2.3-1.2-2.9-2.4-.6-1.1-.8-2.5-.7-3.7 0-.3.1-.5.1-.8 0-.2.1-.5.6-.4.5.1.5.3.4.6zm-11.8 8.6c-.1.5-.1 1-.1 1.6 0 .7.2 1.4.4 1.9.1.2.2.4-.2.6-.4.2-.5 0-.6-.2-.3-.7-.5-1.5-.5-2.3-.1-1 0-1.9.2-2.5-.3-.4-.4-.8-.6-1.3-.3-1.1-.1-2.2.2-3.1.1-.2.2-.6.7-.4.5.1.3.5.2.7-.3.8-.4 1.7-.2 2.5.1.3.2.6.4.9 0-.4 0-.8.1-1.2.1-.7.4-1.3.7-1.8.1-.2.4-.5.8-.3.4.3.2.6.1.8-.3.4-.5.9-.6 1.4-.1.6-.1 1.3 0 2.2.1.4-.4.7-.8.5-.1.1-.2.1-.2 0zm5.4 1.8v.5c-.1 1.1-.2 3.6.9 4.6.2.1.4.3.1.7-.3.4-.5.2-.7 0-1.5-1.3-1.3-4.1-1.2-5.4v-.4c0-.3 0-.6.5-.6.4 0 .4.3.4.6zm3 1.2c-.1.9 0 1.7.1 2.4s.4 1.4.7 2.2c.1.2.2.4-.3.6-.4.2-.5-.1-.6-.3-.3-.8-.5-1.5-.7-2.3-.2-.8-.2-1.7-.2-2.6 0-.2 0-.6.5-.6.5.1.5.4.5.6zm5.7-.8c-.2 1.1 0 2.3.2 3.4 0 .3.1.6-.3.7-.5.1-.5-.3-.6-.5-.3-1.2-.4-2.5-.2-3.8 0-.2.1-.7.6-.6.4.1.3.5.3.8zm-9.8 16.1c-.2.4-.6.8-1.1 1.2-.4.3-.9.5-1.3.6-.3 0-.6.1-.7-.4-.1-.5.3-.5.5-.5.3 0 .6-.2.9-.4.4-.3.7-.6.9-.9.1-.2.3-.5.7-.3.4.2.2.5.1.7zm-.7-1.9c-.3.6-.9 1.1-1.4 1.4-.6.4-1.2.6-1.7.6-.3 0-.6 0-.6-.5s.3-.5.6-.5c.4 0 .8-.1 1.2-.4.4-.3.8-.7 1.1-1.1.1-.2.3-.5.7-.3.4.3.2.6.1.8zm-18.7-4.8c1 .1 2.2.2 3.8.2 1.5 0 3.3-.2 5.4-.6.2 0 .5-.1.6.4.1.5-.1.5-.4.6-2.1.4-4 .6-5.6.6-1.6 0-2.9-.1-3.9-.2-.2 0-.5 0-.4-.5 0-.5.2-.5.5-.5z"/></svg>