<svg xmlns="http://www.w3.org/2000/svg" viewBox="-400.8 210.3 126.4 141.6"><path fill="#FFDF00" d="M-337.6 210.3c13.9 17.3 34.5 21.6 63.2 25.8.3 50.8-16.5 91.4-63.2 115.8-46.8-24.4-63.5-65-63.2-115.8 28.6-4.2 49.3-8.5 63.2-25.8z"/><path fill="#D91A21" d="M-398.2 238.4c.2 48.3 16.4 86.9 60.5 110.4 44.1-23.5 60.3-62.1 60.5-110.4-9.2-1.4-18.6-2.9-27.6-5.3-8.4-2.3-16.6-5.5-23.7-10.5-3.4-2.4-6.5-5.1-9.2-8.1-2.8 3.1-5.8 5.8-9.2 8.1-7.2 5-15.3 8.2-23.7 10.5-9 2.4-18.3 3.9-27.6 5.3z"/><path d="M-398.2 238.4c0 8.2.5 16.2 1.6 23.8l29.3-30.1c-1.1.3-2.2.6-3.3 1-9 2.4-18.3 3.9-27.6 5.3zm6.2 45.4c2 6.5 4.4 12.8 7.4 18.7l70.1-72.6c-4.9-1.9-9.6-4.3-14-7.3-.9-.6-1.7-1.2-2.6-1.9l-60.9 63.1zm17.5 34.6c3.7 4.8 7.8 9.2 12.5 13.5l84.9-88c.1-1.8.1-3.6.1-5.4-5.8-.9-11.6-1.8-17.4-2.9l-80.1 82.8zm27.2 24.8c3.1 2 6.3 3.9 9.7 5.7 32.5-17.4 49.9-42.9 56.8-74.5-.1-.1-.2-.3-.1-.4l-66.4 69.2z"/><path fill="#FFDA00" d="M-370.5 260.3c-6.3-3.8-9.4-9.7-9.6-19 5-.2 7.9-1.7 9.7-3.9 1.7 2.1 4.3 3.2 9.5 3.5-.4 10-3.2 15.6-9.6 19.4z"/><path d="M-326.4 271.4v2c0 2.2-.1 4.3.3 6.2.2 1.1.5 2.2 1 3.3s1.1 2.3 2.1 3.6l1.4 1.7c.8 1 1.6 1.9 2.2 2.8l.3.6c.5.7 1.3 1.3 2.2 1.7 1 .5 2.1.7 3.2.7 1.3 0 2.5-.4 3.5-1.3.8-.8 1.4-1.8 1.5-3.3.2-3.4-1.9-7-4.2-11.1-1.1-1.9-2.3-4-3.2-6.1-.9-2-1.6-4-2.1-6-.4-2-.6-4.2-.3-6.5.1-1.5.6-2.9 1.2-4.1.7-1.3 1.6-2.3 2.6-2.9.5-.3 1-.6 1.6-.7.6-.2 1.2-.2 1.8-.2 2.1 0 4 1 5.4 3 1.2 1.7 2 4.1 2 7.1.4.4.8 1.2 1.1 2 .4 1 .8 2.1 1 3 .2.7.2 1.5.2 2.2 0 .7 0 1.4.2 2 .1.4.3.9.5 1.4.4 1 .9 2.2 1 3.8 0 .4-.4.6-.7.4-.4-.3-.6-.5-.9-.6-.4-.3-.6-.5-1.4-1-.2-.1-.5-.3-.9-.5-.1 0-.1-.1-.2-.1-.7-.4-1.6-.9-2-1.3-.6-.5-1-1.3-1.4-2.1-.4-.9-.7-2-.9-2.9-.2-1-.2-2.3-.1-3.5.1-1.2.3-2.4.6-3 0-.3.2-.7.4-1.1.2-.4.3-.9.3-1.1-.1-1.1-.6-2.3-1.5-3.1-.7-.7-1.6-1.1-2.6-1.1-1 .1-1.6.5-2.1 1.1-.5.7-.9 1.5-1.1 2.4-.3.9-.3 2-.3 3.2.1 1.3.3 2.8.7 4.2 1 4 2.7 6.8 4.6 9.8.8 1.3 1.7 2.7 2.5 4.2.8 1.4 1.5 3.1 1.9 4.8.4 1.6.6 3.2.6 4.7-.1 2.7-1.1 5-2.7 6.7-1.6 1.6-3.8 2.7-6.4 2.7-1 0-1.9-.1-2.8-.3-.7-.2-1.4-.5-2-.9-.1.3-.1.5-.2.8-.1.4-.1.9 0 1.4.1.6.3 1.3.6 2 .4.9.7 1.6 1 2.2.3.6.5.9.7 1.1.2.2.4.4.7.6 1.1 1.1 2 1.9 2.9 2.4.2.1.4.1.6.2.6.1 1.1.3 1.1 1 0 .4-.1.7-.2 1-.1.2-.1.4-.2.6-.1.5-.2 1-.3 1.6-.1.6-.1 1.1-.1 1.5 0 .6.1 1.3.3 2.1.2.8.4 1.5.6 2.2.1.3.2.6.4.9.2.6.5 1.2.8 2.2v.1c.1 0 .2.1.4.2.5.3 1.2.6 1.1 1.2 0 .5-.6 1-1.1 1.5-.3.3-.6.5-.7.7 0 .1-.2.2-.3.2h-1.5c-.4 0-1.1.5-1.5.9-.1.1-.3.2-.3.3-.5.4-1.5.5-2.4.3-.7-.1-1.3-.4-1.7-.9-.2.1-.4.1-.6.1-.3.1-.6.1-.9.1-.4 0-.8-.1-1.2-.2-.1 0-.2-.1-.3-.1v.2c0 .3 0 .5.1.8 0 .2-.1.5-.3.5-.5.1-.9.1-1.3-.1-.3-.1-.6-.3-.8-.6-.2-.3-.4-.5-.5-.8 0-.2-.1-.3-.1-.5l-.3.3-.2.2c-.3.3-.6.4-1 .1-.4-.5-.6-1.2-.7-1.9 0-.9.2-1.7.4-2.1 0-.2.1-.3.2-.5v-.1c.1-.3.3-.7.7-1.1.4-.4 1.1-.9 2.2-1.4.6-.3 2.1.9 3.2.8h.3v-.4c.1-3.6.1-4.8-.7-6-.4-.5-.8-.9-1.3-1.2-.5-.3-1.1-.6-1.8-.8-1.2-.4-2.3-.9-3.4-1.4s-2.1-1.1-3.1-1.7c-2.4-1.4-3.8-3.3-4.7-5.5l-.6-1.5c-.6.2-1.5.6-2.7 1-.1 0-.1.1-.2.1-.9.4-2.5 1.5-3.8 2.7-.9.9-1.6 1.9-1.7 2.7-.1.6 0 1.1.1 1.6.2 1.6.5 3-2 4.9-.1.5-.3 1-.5 1.4-.4 1-.8 1.9-.8 3.2.5.5.6 1.1.6 1.8 0 .6-.4 1.2-.9 1.7s-1 .8-1.6.8h-.8c-.4-.1-.9-.1-1 0-1.5.7-2.7.8-3.5.7s-1.4-.4-1.6-.7c-.4.1-.8.3-1.1.3h-.1c-.1 0-.2 0-.3-.1l-.7.6c-.1.1-.3.1-.4.1-.4-.1-.7-.4-1-.7-.1-.1-.1-.2-.2-.3-.1.4-.2.7-.6.8-.3.1-.9-.1-1.5-.7-.4-.3-.7-.8-1-1.4v-.1c0-.1-.1-.2-.1-.3v-.1c0-.1-.1-.2-.1-.3-.1-.2-.2-.3-.3-.5-.2-.6-.3-1.2-.2-1.8.1-.6.3-1.2.7-1.7s.9-1 1.5-1.3c.6-.3 1.3-.5 1.9-.5 1.1 0 1.9.5 2.7 1 .7.4 1.4.8 2 .8.3 0 .5-.1.7-.2.3-.2.5-.4.7-.6.2-.3.2-.7.2-1.1v-2.3c0-.7 0-1.4-.1-2.1 0-.7 0-1.5-.1-2.2 0-1.5 0-3-.3-4.5-.1-.8-.3-1.5-.3-2.2-.1-1.3 0-2.7.4-4 .4-1.3 1.1-2.6 2.2-3.8 2.9-3.1 7-3.3 11.8-3.6.3 0 .6 0 1-.1-.1-.2-.2-.5-.4-.7-1-1.9-2.5-3.4-4.3-5.2-2.5-2.4-5.4-5.3-8.1-10.4-.7-.1-1.4-.3-2.1-.5-.9-.3-1.7-.8-2.6-1.3-.8-.5-1.4-.9-1.9-1.3-.7-.5-2.8-2.1-3.8-2.2-.2 0-.6.3-.9.7-.3.3-.6.5-.8.7-.5.2-.9.2-1.1-.3-.1-.2-.1-.4-.1-.8-.2.1-.5.2-.8.4-.7.4-1.2.6-1.8.6-.6 0-1.1-.2-1.7-.7-.7-.6-1.4-1.4-2-2.2-.6-.8-1.1-1.6-1.3-2.2-.2-.7-.8-2.3.2-2.8-.4-.6-.6-1.6-.5-2.3.3-.3.8-.4 1.2-.4-.1-.4-.4-1.2-.5-1.6.4-.4 1.4-.5 1.6-.5 0-.1-.1-.1-.1-.2-.1-.4-.2-.8-.2-1.2 1.1-.8 3.8-.4 4 .2.4.4.7.9.9 1.5.1.4.3.8.4 1.2.3.9.5 1.7 1 2.1l.1.1c.7.8 1.3 1.1 2 1.4.3.1.6.3.9.5.3.2.7.4 1.1.6 1.5.8 2.8 1.5 4.8 2.8.1-.1.2-.1.3-.2-.2-1.8-.9-3.9-1.5-5.9-.6-1.6-1.1-3-1.6-3.9-.2-.4-.3-.7-.4-1-.1-.3-.2-.5-.7-.8-.1-.1-.2-.1-.4-.2-.4-.2-.7-.3-.8-.8-.1-.3 0-.7.3-1l.1-.1c-.4-.3-.9-.6-1.2-1-.6-.7-1.1-1.6-1.5-2.5-.2-.6-.4-1.3-.5-1.9-.1-.8-.2-1.6-.2-2.2 0-.2.2-.4.4-.4.5 0 1 0 1.4.1v-.1c-.1-.2-.1-.5-.3-.8-.1-.3.1-.6.4-.6h1.1c.2 0 .4 0 .6-.1v-.1c-.1-.3-.2-.6-.1-.9 0-.1.2-.2.3-.3.6-.2 1.2-.3 1.8-.2h.3c0-.2.1-.4.2-.5 0-.1.3-.2.4-.2.6 0 1.1 0 1.5.1.4.1.8.2 1.2.4s.7.5 1 .8c.7.8 1.2 1.8 1.4 2.8.2 1.1 0 2.1-.5 3.1-.2.3-.4.6-.7.9l-.3.3c-.4.3-.7.6-.6 1.2.3.8 1.1 2 2 3.4.8 1.2 1.7 2.5 2.7 3.5 1.5-1.3 2.8-2.5 4.3-3.4.9-.6 1.8-1 2.8-1.4-.1-.1 0-.1-.1-.1s-.2.1-.3.1c-.4.2-.9.4-1.7.4-.2 0-.3 0-.5-.1-.5-.2-.8-.5-.9-.9-.2-.4-.2-.8-.2-1.2 0-.2.1-.4.1-.6s-.1-.4-.2-.6c-.1-.3-.3-.7-.3-1.1 0-.6.6-1 1.1-1.4.1 0 .1-.1.2-.1.1-.3.2-.6.4-.8l.1-.1c-.3-.1-.5-.4-.6-.7-.2-.3-.2-.6-.3-.8l-.1-.1c-.4-.2-1-.6-1.3-1.9-.2-.8 0-1.4.1-2 .1-.4.2-.7.1-1.1-.1-.5-.2-.8.1-1.2.2-.4.7-.6 1.7-.5.4 0 1.1-.1 1.8-.4.6-.2 1.1-.4 1.6-.7.5-.6 1-1.1 1.6-1.4s1.4-.5 2.5-.6c.1 0 .3 0 .5-.1.5-.1 1.1-.2 1.7-.2.2-.5.5-1 .8-1.4.4-.5.9-.9 1.5-.9 1 0 2.1.7 2.8 1.6.4.5.6 1 .8 1.6.1.3.1.7.1 1 0 .1.1.1.1.2.1.4.4.8.7 1.1.2.3.5.5.8.7.5.2 1.1.6 1.5 1.1.5.5 1 1.1 1.4 1.6.2.3.3.7.5 1 .1.2.1.4.2.7.2.4.4.7.8 1 .4.3.8.7 1.2 1 .6.4 1 .9 1.2 1.5.5 1.1.5 2.1.6 3.3 0 .7.2 1.3.5 1.9.4.5.9 1 1.8 1.2.1.1.3.3.3.4v.3c-.1.3-.2.6-.5.8-.3.2-.6.3-1 .3.1 1.2-.1 2.4-.4 3.7-.2 1.3-.4 2.4-1 3.6-.2.4-1 2.2-1.4 2.3-.1 1.9.2 3.8.6 4.7.1.2.2.4.1.5-.1.1-.4.2-.5.2-.6 0-1.1-.1-1.6-.4.1.3.2.5.3.7v.4c.3.2.7.4.7.4.2.1.4.1.4.2s-.2.4-.3.5c-.6.5-1.5.7-2.2.7-1 0-2-.3-2.6-.6h-.2c-.3.2-.5.2-.6.2z"/><path d="M-374.3 255.4v-.3c.1 0 .3-.1.3-.2s.1-.2.1-.5v-10.3c0-.2 0-.4-.1-.5 0-.1-.1-.2-.3-.2v-.3h4.1c1.9 0 3.2 1.5 3.2 3.4 0 .9-.4 2.4-1.3 3l1.5 4.3.3.6c.1.2.3.4.5.6v.3h-2.2v-.3c.1 0 .2-.1.2-.1.2-.3 0-.6-.1-.9l-1.3-3.9c-.3 0-.7.1-1 .1h-2.5v4.2c0 .2 0 .4.1.5 0 .1.2.1.3.2v.3h-1.8z"/><path fill="#FFDA00" d="M-370.6 244.4h-2.2v4.5h2.2c1.8 0 2.5-.9 2.5-2.4 0-1.4-.7-2.1-2.5-2.1z"/><path d="M-366.4 250.8l.2-.1.7 2.3-.2.1c-.3-.4-.4-.5-1.1-.1-1.3.6-2.6.8-4.5.8-1.4 0-2.6-.2-3.5-.9-1.2-.9-1.6-2.2-1.6-3.2 0-1.7.9-4.2 5.2-4.2 1.2 0 2.6.2 3.5.5.8.2 1.3.5 1.3.5.1 0 .3 0 .3-.1.1-.1.3-.2.4-.3l.2.1-.8 2.4-.2-.1c.1-.4-.4-.8-.9-1-.9-.4-2.3-.7-3.7-.7-3 0-4.1 1.4-4.1 2.9 0 1 .6 2 1.7 2.5.5.2 1.9.3 3 .3.7 0 2.9-.3 3.8-1.2.2-.2.3-.4.3-.5z"/><path d="M-371.9 255h.2c.2.9.6.7 1.1-.1.3-.5.4-1.3.4-2.1-.1-1.3-.5-2.6-.9-3.8-.5-1.5-1-3-1-4.6 0-1.1.3-2.2 1-3 .5-.5 1.1-.9 1.9-1 .3 0 .6-.1.6-.4h.2v2.3h-.2c-.2-.7-.6-.6-1-.4-.3.1-.5.3-.7.5-.4.5-.6 1.3-.6 2.1 0 1.4.5 2.7.9 4.2.4 1.4.9 2.7 1 4.2.1 1.1-.1 2.1-.6 2.9-.3.5-.8 1-1.4 1.2-.5.2-.6.4-.6.7h-.2V255h-.1z"/><path fill="#FFDA00" d="M-356.4 322.9c-.1-.2-.3-.4-.3-.5h-.6c.1.2.1.3.2.5l.3.3.4-.3zm-2.3-.5c-.1-.1-.3-.1-.4-.1-.2 0-.5 0-.8.1.1.1.2.3.3.4.3.3.6.4.7.4s-.1 0 0-.1c0-.3.1-.5.2-.7zm24.4-21.9c-.1-.3-.1-.5-.2-.8-.4 0-.8-.1-1.1-.3-.4-.2-.7-.6-.7-1-.1-.6.3-1.3.5-1.9.2-.3.3-.6.4-.9v-.1c-.3-1.4-.6-2.8-1.1-4.2-.4 0-.9.1-1.3.1-4.6.3-8.5.5-11.2 3.3-1 1.1-1.6 2.2-2 3.4-.3 1.2-.4 2.5-.4 3.7 0 1 .3 1.9.4 2.9.2 1.2.7 1.9 1.5 2.9.1.2.3.3.3.4.1.2.3.4 0 .7-.4.3-.6 0-.7-.2l-.9-1.2v1.3c0 .7 0 1.5.1 2.2 0 .7 0 1.4.1 2.1v2.3c0 .6 0 1.1-.4 1.6-.2.3-.5.6-.9.9-.3.2-.7.3-1.1.4-1 .1-1.7-.4-2.6-.9-.7-.4-1.4-.9-2.2-.9-.5 0-1 .2-1.5.4-.5.3-.9.6-1.2 1-.3.4-.5.8-.5 1.2v.4c.2-.4.4-.7.6-.9.5-.5 1.1-.7 1.7-.8h.7s.6 0 .5.5c0 .5-.4.4-.6.4h-.5c-.4.1-.9.2-1.2.6-.3.3-.6.8-.6 1.5v.7c0 .1.1.1.1.2.5-.2.9-.2 1.3-.2.2 0 .5.1.7.2 0-.6 0-1.1.2-1.6.3-.7 1-1.3 2.3-1.5.2 0 .5-.1.6.3.1.5-.3.5-.5.6-1 .2-1.4.5-1.6.9-.2.4-.2.9-.1 1.5.1-.1.2-.1.3-.2.2 0 .3-.1.4-.1h.1c.4.1.6.5.9.8v.1c.1 0 .2.1.2.2.2-.1.5-.2.9-.3.8-.3 1.7-.7 2.4-.7.2 0 .5 0 .6.4 0 .5-.3.5-.5.5-.4 0-.8.2-1.3.3.2.1.4.1.7.2.7.1 1.7 0 3-.6.4-.2 1-.1 1.5 0 .3 0 .5.1.6.1.3 0 .7-.3 1-.6.3-.3.6-.8.6-1.1.1-1.2-.9-1.7-2-1.8-.1 0-.2 0-.4.1s-.3.2-.5.4-.4.4-.7.2c-.3-.3-.1-.6 0-.8.3-.3.5-.5.8-.6.3-.2.6-.2.9-.2.5 0 1 .2 1.3.3.1-1.1.5-2 .8-2.9.3-.7.7-1.7.8-2.5.1-.8 0-1.7-.3-2.8-.1-.2-.2-.5.3-.7.4-.1.5.2.6.4.4 1.2.4 2.1.4 3 1.2-1.2 1-2.2.8-3.3-.1-.6-.2-1.2-.1-1.8.1-1 .9-2.2 1.9-3.2.5-.5 1-1 1.6-1.4-1.2.2-2.4.4-3.3.2-1.2-.2-2.1-.7-2.4-1.7-.3-1.2.2-2.2 1.1-3 .8-.7 1.8-1.3 2.6-1.5.2-.1.6-.2.7.3s-.2.6-.5.6c-.7.1-1.5.7-2.2 1.3-.6.6-1.1 1.3-.9 2.1.2.6.8 1 1.6 1.1 1 .1 2.1 0 3.4-.3 2.3-.5 4.5-1.3 5.4-1.7zm16.1-6.9c.1.3.2.6.2.9.1.8.1 1.6 0 2.6.6.5 1.3.8 2 1 .8.2 1.6.3 2.5.3 2.4 0 4.3-.9 5.7-2.4 1.5-1.6 2.4-3.7 2.5-6.1 0-1.5-.2-3-.5-4.5-.4-1.7-1.1-3.3-1.8-4.6-.8-1.5-1.7-2.9-2.5-4.2-1.9-3.1-3.7-5.9-4.7-10.1-.4-1.5-.6-3-.7-4.4-.1-1.3 0-2.5.3-3.5s.7-1.9 1.3-2.7 1.5-1.4 2.8-1.5c1.4-.1 2.5.5 3.3 1.3 1 1 1.6 2.4 1.7 3.7 0 .4-.2 1-.4 1.5-.1.4-.3.7-.3.9v.2c-.2.5-.4 1.6-.5 2.8-.1 1.1-.1 2.3.1 3.2l.3 1.2c.2-1.3.6-2.6 1-3.1.1-.2.3-.6.7-.3.4.2.2.6 0 .8-.3.5-.8 1.8-.9 3.1-.1.9 0 1.7.5 2.3.1.1.1.1.1.2.1.1.2.3.3.4.1 0 .1.1.2.2-.1-.3-.1-.5-.2-.8-.2-1.4 0-2.9.2-3.8.1-.2.2-.7.6-.6.4.1.3.6.3.8-.2.8-.4 2.2-.2 3.4.1.8.4 1.5 1 1.9 0 0 .1 0 .1.1.1 0 .1.1.2.1-.1-.3-.2-.5-.3-.8-.4-1.2-.5-2.6-.1-4.4 0-.2.1-.7.6-.6.5.1.4.5.3.7-.3 1.6-.2 2.9.1 4 .3 1 .9 1.8 1.6 2.4-.1-1-.5-1.7-.8-2.5-.2-.6-.5-1.1-.6-1.6-.1-.7-.2-1.4-.2-2.1 0-.7 0-1.5-.2-2.1-.2-.9-.5-2-.9-2.9-.3-.9-.7-1.5-1-1.9 0 0-.1-.2-.1-.3 0-2.9-.8-5.1-1.9-6.8-1.2-1.7-2.9-2.6-4.7-2.6-.5 0-1.1.1-1.6.2s-.9.3-1.4.6c-.9.6-1.7 1.5-2.3 2.6-.6 1.1-1 2.3-1.1 3.7-.2 2.2-.1 4.3.3 6.2.4 2 1.1 3.9 2 5.8 1 2.1 2.1 4.1 3.2 6 2.4 4.2 4.5 7.9 4.3 11.6-.1 1.7-.8 3-1.7 3.9-1.1 1-2.6 1.5-4.1 1.5-1.2 0-2.4-.3-3.6-.8-.4.3-.7.1-1-.1z"/><path d="M-342.6 245.6c.2.1.3.3.4.5.2.2 1 1.7 1.1 1.7.7.1 2-.8 2.1-1.5 0-.2-.2-.6-.6-1-.6-.7-1.6-1.3-2.6-.8-.1.2-.3 1-.4 1.1zm-6.7 15.9c0-.1.1-.3.2-.4 0-.1.1-.2.1-.2.1-.4.3-.7.4-1.2.1-.4.3-.8.4-1.1-.9.8-1.5 1.5-1.9 2.3-.4.7-.6 1.5-.7 2.6.6-.5 1-1.1 1.5-2z"/><path fill="#FFDA00" d="M-320.4 247c-.2-.5-.4-1-.9-1.4 0 .5 0 1.1-.1 1.7 0 .2 0 .4-.1.6.5-.2.8-.5 1.1-.9zm-4.9 23.7c.4.2 1.2.4 2 .4.3 0 .7 0 1-.2-.1-.1-.3-.2-.4-.4-1.2 0-4.2-1.3-4.8-5.1.1.6.2 1.2.4 1.8.3 1.1.9 2.3 1.8 3.5zm-11.4-3.3c1.1 2.7 3 7.1 4.6 10.9.7 1.6 1.4 3.1 1.9 4.5.1.2.2.4-.2.6-.4.2-.5 0-.6-.3-.2-.6-.6-1.3-.9-2.1-.3.2-.6.4-.8.4-.2 0-.6.2-.7-.3-.1-.4.3-.5.5-.6.2-.1.5-.3.6-.4-.2-.4-.4-.9-.6-1.3-.3.4-.7.7-1.2.9-.5.3-1.1.4-1.6.5-.2 0-.6.2-.6-.3-.1-.4.3-.6.5-.6.5-.1 1-.2 1.4-.4.4-.2 1-.7 1.2-1.1-1-2.3-2-4.7-2.9-6.9-.2.7-.4 1.3-.8 1.8-.7 1.1-1.7 1.8-2.8 1.9-.8.1-1.6-.2-2.2-.5-.6-.3-1.1-.7-1.5-1-.1 0-.2 0-.3.1-1.8.5-3.3.9-4.9.9 2.5 4.7 5.3 7.4 7.7 9.7 1.8 1.8 3.5 3.4 4.5 5.4 1.1 1.9 1.5 3.9 1.9 6 0 .1 0 .2.1.5.5 2.4.9 4.7 1.8 6.7s2.2 3.8 4.3 5.1c1 .6 2 1.2 3.1 1.7 1 .5 2.1.9 3.3 1.3.7.2 1.4.5 2 .9s1.1.9 1.5 1.4c1 1.4 1 2.7.9 6.6v.4c.7.1.7.2 1.3.1.2-.1.5-.1.7-.1.3 0 .6.1.8.2.3.1.5.3.7.5.1.2.4.4 0 .7-.3.3-.6 0-.7-.2-.1-.1-.2-.2-.3-.2-.1-.1-.3-.1-.4-.1s-.3 0-.5.1c-.9.2-1.1 0-1.8-.1h-.9c-.9.1-3-.8-3-.8-1 .4-1.6.8-1.9 1.2-.3.3-.4.6-.5.8 0 0 0 .1-.1.2 0 .1-.1.2-.1.2v.1c0 .1.1.3.3.4l.2.2c.1-.2.2-.4.3-.5.3-.4.7-.8 1.2-1 .8-.4 1.8-.4 2.9 0 .2.1.5.2.4.6-.2.4-.5.3-.7.2-.9-.3-1.6-.3-2.2 0-.4.2-.7.4-.9.7-.2.3-.3.7-.4 1 0 .3 0 .7.2.9.1 0 .1.1.1.2.3 0 .6-.1.8-.1h.6c.1-.4.4-.7.8-.9.4-.3 1-.4 1.6-.4.3 0 .7 0 1.1.1.2.1.5.1.4.6-.1.4-.4.4-.6.3-.3-.1-.5-.1-.8-.1-.5 0-.8.1-1.1.3-.2.1-.4.3-.4.4.1.1.2.1.4.1.3.1.7.1 1 .2.2 0 .5 0 .7-.1.2 0 .5-.1.7-.2.4-.1.8-.3 1.1-.5.2-.1.5-.2.6-.3.2-.1.5-.2.7.2.2.4-.2.5-.4.6-.1 0-.3.1-.5.3-.2.1-.3.2-.5.2.3.2.6.3 1 .4.7.2 1.4.1 1.7-.1.1 0 .1-.1.3-.2.5-.4 1.4-1.1 2.1-1.1h1.3l.7-.7c.4-.4.8-.8.8-.9l-.6-.4c-.3-.1-.5-.2-.7-.4-.3-.3-.7-.4-1.2-.4s-1 .2-1.6.6c-.2.1-.5.4-.8 0-.3-.4 0-.6.2-.7.7-.5 1.4-.8 2-.8.3 0 .5 0 .8.1-.1-.2-.2-.3-.3-.4-.3-.2-.5-.3-.8-.4h-.9c-.2 0-.5 0-.5-.4s.2-.5.4-.5c.4 0 .7-.1 1.1 0 .1 0 .2 0 .3.1-.1-.2-.2-.5-.2-.7-.2-.7-.4-1.5-.6-2.3-.1-.3-.1-.6-.2-.9 0 .2-.1.6-.6.5-.4-.1-.4-.5-.3-.7.2-1.2.1-2.5-.4-3.7-.4-1-1.2-1.8-2.1-2.2-.2-.1-.5-.3-.3-.7.2-.4.5-.2.7-.2 1.2.5 2.1 1.5 2.6 2.7.2.4.3.9.4 1.3v-.2c.1-.6.2-1.2.3-1.7.1-.3.1-.5.2-.7.1-.2.2-.4.2-.7 0 0-.2 0-.4-.1s-.5-.1-.8-.3c-1.1-.5-2.1-1.4-3.2-2.5l-.7-.7c-.2-.2-.5-.7-.9-1.3-.3-.6-.7-1.4-1.1-2.3-.3-.7-.5-1.5-.7-2.2-.1-.6-.1-1.2 0-1.8.5-1.5.6-2.8.4-3.9-.2-1.1-.7-2.1-1.3-3.2-.5-.8-1.3-1.8-2.1-2.7l-1.4-1.7c-1.1-1.4-1.8-2.6-2.3-3.7-.5-1.2-.8-2.3-1.1-3.5-.4-1.9-.3-4.1-.3-6.4v-2c-.8-.1-1.6-.3-2.4-1.1l-.5-.5h-.7c-1.5-.2-3.1-1-4.2-2.4-.5-.6-.8-1.2-1.1-1.9l.3 1.5c.1.3-.1.6-.4.6 0 .1-.1.1-.2.1z"/><path fill="#FFDA00" d="M-351.1 264.6l-.2.2c-.4.5-.9 1.1-1.8 1.8h.1c1.4-.4 2.7-.6 3.8-.4.2 0 .6.1.5.5-.1.5-.4.4-.6.4-.9-.2-2.1 0-3.3.3-1.2.4-2.3.9-3.1 1.5-.2.2-.5.4-.8 0-.3-.3 0-.6.2-.7.6-.5 1.3-.9 2.1-1.3-2.1-1.3-3.5-2.1-5-2.9-.3-.2-.7-.3-1.2-.6-.3-.2-.6-.3-.9-.4-.8-.4-1.5-.7-2.3-1.6-.7-.5-1-1.5-1.3-2.5-.1-.4-.2-.8-.4-1.2-.2-.5-.4-.9-.7-1.1-.4-.4-.8-.4-1.3-.4-.7.2-.4.1-.8.9.6 0 1.3.2 1.8.6.5.4.7.8.8 1.2 0 .2.1.6-.4.7-.1.3-.1-.1-.2-.3 0-.2-.2-.5-.4-.7-.2-.2-.6-.3-1.1-.4h-.7c-.6.3-.5.4-.5 1.4 1.5.4 2.1 1.2 2.6 1.8.3.3 1 .9.5 1.3s-1-.4-1.2-.8c-.5-.6-1-1.4-2.5-1.6-.7 0-.3 1.3-.3 1.4.3.2.4.4.8.6.4.2.9.4 1.8 1 .2.1.5.3.3.7-.2.4-.6.2-.8.1-.8-.5-1.3-.7-1.7-.9-.8.3-.6 1.1-.5 1.4.2.5.6 1.3 1.1 1.9.6.8 1.3 1.5 1.9 2 .4.3.7.5 1.1.5.4 0 .8-.2 1.4-.5.4-.2.8-.4 1.1-.5 1-.2 1 .5 1 1.2.2-.1.4-.3.6-.5.5-.4 1-.9 1.5-.9 1.2 0 3.4 1.6 4.3 2.4.6.4 1.1.8 1.8 1.3.8.5 1.7.9 2.5 1.2.8.3 1.5.5 2.3.5 1.6.1 3.2-.3 5.2-.9.2-.1.3-.1.5-.1.1 0 .3 0 .4.1.4.3.9.7 1.5 1 .5.3 1.2.5 1.7.4.8 0 1.5-.7 2.1-1.5.3-.5.6-1.1.7-1.7.2-.8.2-1.3-.1-2-.2-.6-.4-1.1-.6-1.5-1.7-.8-3-3.1-3.5-5.2-.1 1.1 0 2.2.2 2.9.1.3-.2.7-.6.6-1.8-.6-2.6-1.3-2.9-2.1-.3.5-.7.7-1 .8-.1.1-.2.1-.2.1-.2.2-.6.1-.7-.1-.2-.5-.3-1-.4-1.4-.4.7-.9 1.2-1.5 1.6-.2.1-.5 0-.6-.2-.1-.2-.2-.4-.2-.6-.4.5-.9.9-1.5 1.1-.2 0-.3.1-.4.1z"/><path fill="#FFDA00" d="M-349 258c-1-1.1-1.9-2.4-2.8-3.7-1-1.4-1.8-2.8-2.1-3.6v-.1c-.1-1.2.3-1.5.9-2l.3-.3c.2-.2.4-.5.6-.7.4-.7.5-1.6.4-2.5-.1-.9-.5-1.7-1.1-2.4-.2-.3-.5-.5-.8-.7-.3-.2-.6-.3-.9-.3-.1 0-.4-.1-.3.2.9.5 1.7 1.3 2.1 2.3.3.9.3 1.9-.2 3.1-.1.2-.2.4-.6.2-.4-.2-.3-.4-.2-.6.4-1 .5-1.8.2-2.4-.3-.8-1-1.4-1.7-1.8-.5-.3-1-.4-1.5-.5-.5-.1-.8.1-.9.6 1 .2 1.9.7 2.4 1.7.4.8.6 1.8.5 3.3 0 .2-.1.5-.5.4-.4-.1-.4-.3-.4-.5.2-1.2 0-2.1-.3-2.7-.4-.7-1.1-1.1-1.8-1.2-.5-.1-.9-.1-1.4 0-.2 0-.3.7-.3.9.8.3 1.4.8 1.9 1.5.8 1.1 1.2 2.5 1.5 3.7.1.2.1.5-.3.6-.4.1-.5-.1-.5-.4-.3-1.1-.6-2.4-1.4-3.3-.4-.6-1.1-1.1-1.9-1.3-.3-.1-1.1.5-1.1.9 0 .2.1.4.1.6.1.6.2 1.2.5 1.8.3.9.8 1.6 1.3 2.3.5.6 1.1 1 1.6 1.1.4.1.4.8 0 .9-.2.1-.3.1-.4.3-.1.1-.1.2-.1.3 0 0 .1 0 .2.1s.3.1.5.2c.8.5.9.7 1.1 1.3.1.2.2.5.4.9.5 1 1.1 2.4 1.7 4.1.6 1.8 1.2 3.8 1.6 5.3.4-.4.7-.8.9-1 .1-.1.1-.2.2-.2v-.1c0-1.4.3-2.5.8-3.5.3-1.2 1-2 1.8-2.8zm16.4-23.6c.2-.4.6-.6.9-.7.3-.1.6 0 .8 0 .4.1.8.4 1.1.8s.5.9.6 1.4c.1.7 0 1.3-.3 1.7-.1.2-.2.3-.3.4.5-.3.7-.7.9-1.1.1-.4.1-.8 0-1.3s-.3-.9-.6-1.3c-.6-.8-1.3-1.3-2-1.3-.3 0-.6.2-.9.6-.3.4-.6.9-.8 1.4-.1.1-.3.3-.4.3-.6 0-1.3.1-1.8.2-.2 0-.3 0-.6.1-1 .1-1.6.3-2.2.6-.5.3-.9.6-1.3 1.2l-.1.1c-.5.3-1.2.6-1.8.8-.9.3-1.7.4-2.1.4-.6 0-.9 0-.9.1s0 .3.1.6v.1c0 .5-.1 1-.2 1.4-.1.5-.2 1-.1 1.7.2.9.6 1.1.9 1.3.2.1.4.2.5.5 0 .3.1.5.2.8 0-.1.1-.1.1-.2.2-.3.3-.7.6-.9.6-.4 1.2-.4 1.8-.3.5.1 1.3.6 1.9 1.2.5.6.9 1.2.8 1.8-.1.6-.6 1.2-1.3 1.6-.6.4-1.4.7-1.9.6-.7-.1-1.3-1.5-1.6-2-.1.2-.2.4-.2.6 0 0-.1.2-.2.2l-.3.3c-.3.3-.8.6-.8.7 0 .2.1.5.2.7.1.3.3.7.3 1.1v.2c0 .1-.1.3-.1.5 0 .3 0 .5.1.7s.2.3.4.4h.2c.6 0 1-.1 1.3-.3.3-.1.5-.2.8-.2.3 0 .4.2.6.4l.3.3c.5-.2 1-.3 1.6-.4.8-.2 1.6-.6 2.3-1.2.7-.6 1.4-1.4 1.8-2.2.3-.7.5-1.4.6-2.1.1-.8 0-1.5-.2-2.2-.1-.2-.2-.5.2-.6.4-.1.6.1.6.4.3.8.4 1.6.3 2.6-.1.8-.3 1.6-.7 2.5-.5.9-1.2 1.8-2 2.5s-1.7 1.2-2.7 1.4c-.6.1-1.1.3-1.6.4-.1.1-.2.1-.2.1-1.2.4-2.2.9-3.2 1.5-1.4.9-2.7 2.1-4.2 3.4h.2c.4.2.3.4.2.6-.2.4-.3.8-.5 1.2-.3.7-.5 1.3-.7 1.8-.1.3-.1.6-.1.9 0 .2 0 .3.1.4.9-.8 1.3-2.3 1.7-3.4l.3-.9c.1-.3.4-.4.6-.3s.4.3.3.6c-.1.3-.2.5-.3.9 0 .1-.1.3-.1.4 0 .3-.1.7-.1 1.1 0 .5 0 1.1.2 1.7.4-.2.9-.6 1.1-2.1V260c0-.2.2-.4.4-.4s.5.2.5.4c0 .6 0 1.1-.1 1.5-.1 1.4.1 2.4 1.8 3.1-.1-.8-.1-1.7 0-2.6.1-1.1.3-2.1.8-2.6.1-.2.4-.2.6-.2.2.1.2.3.2.5-.3 2.3 1.3 6.6 3.7 7.1-.2-.9-.3-2-.3-3 0-1.3.1-2.6.4-3.7.1-.2.3-.4.5-.3.2 0 .4.3.4.5-.4.1-.4.6-.4 1.1 0 2.3.7 4.1 1.6 5.3 1 1.2 2.3 1.9 3.6 2-.5-.8-.9-1.7-1.2-2.6-.6-1.8-.9-3.9-.8-5.4 0-.2 0-.6.5-.5.5 0 .5.4.4.6-.1 1.5.2 3.4.8 5.1.5 1.5 1.2 2.8 2.1 3.7.8.8 1.6.9 2.5.9-.7-1-1.2-2.1-1.5-3.1-.4-1.3-.5-2.6-.5-4.1 0-1 .2-2 .5-3 .1-.2.2-.5.6-.4s.3.4.3.7c-.3.9-.5 1.8-.5 2.7v1c0-.1.1-.2.4-.2.5 0 .5.2.5.4.3 3.7 2.7 4.9 3.9 5.1-.3-.7-.6-1.5-.8-2.4-.3-1.1-.4-2.2-.4-3.2 0-.8 0-1.5.1-2.3.1-.7.2-1.4.4-1.9.1-.2.2-.6.6-.5.4.1.3.6.2.8-.2.4-.3 1-.4 1.7-.1.6-.1 1.4-.1 2 0-.4.1-.7.2-1.1.1-.4.2-.8.2-1.2 0-.2.1-.6.6-.6.5.1.4.5.3.7-.1.5-.2.9-.3 1.3-.2.9-.3 1.6-.1 2.5.1.5 1 1.7.4 2-.4.2-.6-.1-.7-.3-.3-.5-.5-.9-.6-1.4 0 .3.1.6.2.8.4.8.8 1.2 1.1 1.4.2.1.3.2.5.2-.3-1.1-.5-2.7-.5-4.4 0-1.7.3-3.5 1-4.8.1-.2.4-.4.6-.4.2 0 .3.4.3.6 0 .3 0 .8-.1 1.3.3-.9.4-1.7.6-2.6.3-1.4.5-2.8.3-4v-.4c.2-.2.5-.1.9-.1.2 0 .4-.1.5-.2-.9-.3-1.5-.9-1.9-1.5-.5-.7-.6-1.5-.7-2.3 0-.5 0-.9-.1-1.4-.1.1-.3.2-.4.4-.4.3-.9.6-1.4.9-.4.2-.8-.3-.6-.6.1-.1.1-.3.2-.4l-.1.1c-.7.7-1.6.8-2.6.9-.3 0-.6-.3-.4-.7.1-.2.1-.3.2-.5-.7.9-1.7 1.6-2.9 2-.4.1-.7-.3-.6-.6.2-.4.3-.8.4-1.2-.7.9-1.6 1.5-2.5 1.9-.3.1-.7-.2-.6-.6.3-.9.5-1.7.5-2.6 0-.8-.3-1.7-.8-2.6-.1-.2-.3-.5.1-.7s.6 0 .7.2c.7 1.1 1 2.1 1 3.1 0 .6-.1 1.3-.2 1.9.5-.3.9-.7 1.3-1.2.5-.7.9-1.5.9-2.2 0-.2.2-.4.5-.4.2 0 .4.2.5.4 0 .7 0 1.5-.1 2.3-.1.3-.1.7-.2 1 .7-.4 1.2-.9 1.7-1.4.7-.8 1-1.7.9-2.3 0-.2.1-.5.3-.5.2-.1.5 0 .6.3.2.5.2 1.2.1 1.9-.1.5-.2 1-.4 1.5.5-.1.9-.3 1.3-.6.5-.5.9-1.3.9-2.8l-.6-.6c-.4-.4-.8-.8-1-1.3-.1-.3-.2-.5-.3-.7-.1-.3-.2-.6-.4-.9-.3-.5-.7-1-1.2-1.4-.4-.4-.8-.7-1.3-.9-.4-.2-.8-.5-1.1-.9-.2-.2-.3-.4-.4-.6-.3.6-.9 1-1.7 1.4-.2.1-.4.1-.6-.3-.1-.1-.1-.2 0-.3h-.1c-.2.1-.4.1-.6-.3-.1-.4.1-.5.3-.6.4-.1.6-.3.8-.5.2-.3.2-.7.2-1.1 0-.3-.2-.7-.4-.9-.2-.2-.4-.4-.6-.4h-.4c-.1 0-.2.1-.3.2-.1.2-.2.4-.6.2-.3-.1-.2-.3-.1-.5z"/><path d="M-340.4 238.5c-.2-.2-.2-.6.1-.7.2-.2.8-.6 1.5-.8.2-.1.4-.1.7-.1s.4.1.7.2c.3.1.5.2.7.4.3.2.6.4.6.5 0 .1.1.3.1.3-.1.4-.4.5-.9.6-.3 0-.6.1-1 .3-1.5.8-1.8.4-2.3-.2.1-.2 0-.4-.2-.5z"/><path fill="#FFDA00" d="M-339.4 238.3c.1 0 .1 0 0 0 .2.3.4.5 1.2 0 .3-.2.6-.2.9-.3-.1-.1-.2-.1-.3-.2s-.3-.1-.4-.1-.3 0-.4.1c-.4.1-.7.3-1 .5z"/><path d="M-338.7 240.5c1.5.8 2.4 2 2.8 3.4.3 1 .3 1.9.1 2.9-.2.9-.7 1.8-1.4 2.5-.9.9-2.2 1.5-3.9 1.5-.2 0-.5 0-.5-.5 0-.4.2-.4.5-.4 1.5 0 2.5-.5 3.3-1.3.6-.6.9-1.3 1.1-2 .2-.8.1-1.6-.1-2.4-.3-1.2-1.1-2.2-2.4-2.9-.2-.1-.4-.2-.2-.6.3-.4.5-.3.7-.2zm6.5 12.2c-.1.6-.1 1.5.1 2.4.1.5.4 1.1.7 1.5 0-.6 0-1.2.1-1.7.1-1 .4-1.8.7-2.5.1-.2.2-.4.6-.2.4.2.3.4.3.6-.3.7-.5 1.4-.6 2.3-.1.8-.1 1.6 0 2.6 0 .4-.4.6-.7.4-1.2-.8-1.7-1.8-2-2.8-.2-1-.2-2-.1-2.7 0-.2.1-.5.5-.4.5.1.5.3.4.5zm4.9-1.3c0 .2-.1.5-.1.7-.1 1 .1 2.1.6 3 .4.7.9 1.3 1.6 1.6-.2-.5-.3-1.1-.3-1.7 0-1.2.3-2.3.8-3.2.1-.2.2-.4.6-.2.4.2.3.4.2.6-.4.7-.7 1.7-.7 2.7 0 .8.2 1.5.7 2.1.1.2.2.3.1.5-.2.4-.7.2-1.1.2-1.3-.3-2.2-1.2-2.8-2.2-.5-1.1-.7-2.3-.6-3.5 0-.3.1-.5.1-.8 0-.2.1-.4.5-.4.5.2.5.4.4.6zm-11.2 8.2c-.1.5-.1 1-.1 1.5 0 .6.2 1.3.4 1.8.1.2.2.4-.2.6s-.5 0-.6-.2c-.3-.7-.5-1.4-.5-2.1-.1-.9 0-1.8.2-2.4-.3-.4-.4-.8-.5-1.2-.3-1-.1-2.1.2-2.9.1-.2.2-.6.7-.4.4.1.3.5.2.7-.2.7-.4 1.6-.2 2.4.1.3.2.6.3.8 0-.4 0-.8.1-1.1.1-.7.4-1.2.7-1.7.1-.2.3-.5.7-.2.4.2.2.5.1.7-.3.4-.5.8-.6 1.4-.1.6-.1 1.2 0 2.1.1.4-.4.7-.7.4 0-.1-.1-.1-.2-.2zm5.2 1.7v.5c-.1 1.1-.2 3.5.9 4.4.2.1.4.3.1.6-.3.3-.5.2-.6 0-1.4-1.2-1.2-3.9-1.2-5.1v-.4c0-.2 0-.6.4-.6s.4.4.4.6zm2.8 1.2c-.1.9 0 1.6.1 2.3.1.7.4 1.3.7 2 .1.2.2.4-.3.6-.4.2-.5-.1-.6-.3-.3-.8-.5-1.4-.7-2.2-.2-.8-.2-1.6-.2-2.5 0-.2 0-.6.5-.5s.5.4.5.6zm5.4-.8c-.2 1.1 0 2.2.2 3.3 0 .2.1.6-.3.7-.5.1-.5-.3-.6-.5-.3-1.2-.4-2.4-.2-3.6 0-.2.1-.7.6-.6.4 0 .3.4.3.7zm-9.3 15.2c-.2.4-.6.8-1.1 1.1-.4.3-.8.5-1.3.6-.2 0-.6.1-.6-.4-.1-.5.3-.5.5-.5.3 0 .6-.2.9-.4.4-.3.7-.6.8-.9.1-.2.3-.5.7-.3.4.3.2.6.1.8zm-.6-1.7c-.3.5-.8 1-1.3 1.4s-1.1.6-1.6.6c-.2 0-.5 0-.5-.4 0-.5.3-.5.5-.5.4 0 .8-.1 1.2-.4.4-.3.8-.7 1.1-1.1.1-.2.3-.5.7-.3.2.2 0 .5-.1.7zm-17.8-4.6c.9.1 2.1.2 3.6.2 1.4 0 3.2-.2 5.1-.6.2 0 .4-.1.5.4.1.4-.1.5-.4.5-2 .4-3.8.6-5.3.6s-2.7-.1-3.7-.2c-.2 0-.5 0-.4-.5.2-.4.4-.4.6-.4z"/></svg>