<svg id="Layer_1" xmlns="http://www.w3.org/2000/svg" viewBox="-184.5 305.7 143.8 181.9"><style>.st0{fill:#FFFFFF;stroke:#000000;stroke-width:2.9999;stroke-miterlimit:2.6131;} .st1{fill:#FFFFFF;} .st2{fill:none;stroke:#000000;stroke-width:1.0001;stroke-miterlimit:2.6131;} .st3{fill:#FFFFFF;stroke:#000000;stroke-width:1.0001;stroke-miterlimit:2.6131;} .st4{fill:none;stroke:#000000;stroke-width:2.0001;stroke-miterlimit:2.6131;stroke-dasharray:10.0006,6.0004;} .st5{fill:none;stroke:#000000;stroke-width:2.9999;stroke-miterlimit:2.6131;stroke-dasharray:14.9996,8.9997;} .st6{fill:none;stroke:#000000;stroke-width:1.0001;stroke-miterlimit:2.6131;stroke-dasharray:5.0003,3.0002;} .st7{fill:#CD3529;} .st8{fill:none;stroke:#FFFFFF;stroke-width:2.9999;stroke-miterlimit:2.6131;} .st9{fill:none;stroke:#000000;stroke-width:5;stroke-miterlimit:2.6131;} .st10{fill:none;stroke:#000000;stroke-width:2.0001;stroke-miterlimit:2.6131;} .st11{stroke:#000000;stroke-width:1.0001;stroke-miterlimit:2.6131;} .st12{fill:#DFA055;stroke:#000000;stroke-width:1.0001;stroke-miterlimit:2.6131;} .st13{fill:#DFA055;}</style><path class="st0" d="M-183 380.8V348c49.5 11.9 32.2-34.4 32.2-34.4 12-5.8 38.2-6.4 38.2-6.4s26.3.5 38.2 6.4c0 0-15.4 46.8 32.2 34.4v32.8c.1 82.2-70.4 105.3-70.4 105.3s-70.6-23.2-70.4-105.3z"/><path d="M-176.6 382.2V356c44.1 6.9 34.7-36.7 34.7-36.7 10.9-5.3 29.4-4.9 29.4-4.9s18.5-.4 29.3 4.9c0 0-9.4 43.6 34.7 36.7v26.2c.1 74.7-64 95.7-64 95.7s-64.3-21.1-64.1-95.7z"/><path class="st1" d="M-46.6 356.8c-29.2-.4-32.8-14.9-32.8-14.9l-93.4 80.8 17.8 27.9 108.4-93.8z"/><path class="st2" d="M-176.6 382.2V356m0-.1c44.1 6.9 34.7-36.7 34.7-36.7 10.9-5.3 29.4-4.9 29.4-4.9s18.5-.4 29.3 4.9c0 0-9.4 43.6 34.7 36.7m-.1 0v26.2m0 .1c.1 74.7-64 95.7-64 95.7s-64.1-21-64-95.7"/><path class="st1" d="M-124 322.2l1.1 3.9 6-4.2s1.9-1.5 1.9 2.2c0 0-2 1.1-2 2.4 0 0-.2 3.1-.1 4.6v4.9s-3.5 2.6-4.3 4.5h14.9s-1.5-2.7-4.5-4.5c0 0-2.8-3.6 1.1-5l.9-6.3-1.9-.7-5.5-5.1-7.6 3.3z"/><path d="M-116 329.4s1 .7 1.1 1.5c0 0 .8.7.9-.1 0 0 .5-1.6-.9-2.5 0-.1-1.6-.4-1.1 1.1zm2.6 5.2s-.2 1.7 1 3.3c0 0 .7.7.9-.2 0 0-.6-1.2-.8-2.2 0 0-.2-2.1-1.1-.9zm-3.4 4.2s.4-3.1 1.1-3.6c0 0 1-1.1.9 1.3 0 0-.4 2.3-1.1 2.7-.1 0-.6.4-.9-.4z"/><path class="st3" d="M-105.5 367.6h-26.6c0-8.7-4.6-12.9-4.6-12.9h30.4l.8 12.9z"/><path class="st4" d="M-130.5 358h25.5"/><path class="st3" d="M-125.7 406.8c14.2 0 23 6.9 23 6.9 19.8-22.6 7.1-47.4 7.1-47.4h-48.7s12.7 24.7-7.1 47.4c0 0 11.5-6.9 25.7-6.9z"/><path class="st4" d="M-138.5 370.9h42.4"/><path class="st3" d="M-98.8 340.1H-128s4.3 3.8 2 12.2c0 0 11.8-7.2 27.6 0 0 .1 2.2-7.9-.4-12.2z"/><path class="st3" d="M-83.2 351.1h-39.4s8 13.1-.4 21.5c0 0 24.7-10.8 36.3 1.7.1.1 8.6-11.1 3.5-23.2z"/><path class="st3" d="M-119.2 415.5c-11.6.1-24.2 5.9-24.2 5.9 24.4-22.8 6-48.6 6-48.6h61.6s8.2 39.4-25 48.6c0 .1-6.8-5.9-18.4-5.9z"/><path class="st5" d="M-129.5 377.8h52.3"/><path class="st4" d="M-116.6 355.1h33.4"/><path class="st6" d="M-122.6 343.2h23.5"/><path class="st7" d="M-95.3 399.4s-3.9-2.9-7.9-2.9c0 4 2.9 7.9 2.9 7.9h-9.9s2.9-3.9 2.9-7.9c-4 0-7.9 2.9-7.9 2.9v-9.8s3.9 2.9 7.9 2.9c0-4-2.9-7.9-2.9-7.9h9.9s-2.9 3.9-2.9 7.9c4 0 7.9-2.9 7.9-2.9v9.8z"/><path class="st8" d="M-163.8 390.5v-26.6m0 0s9.9-.2 9.9 7.9c0 0 1.4 6.5-9.9 6.5"/><path class="st9" d="M-149.2 372.1c-2.1-2.2-5.5-3.7-9.3-3.7-6.5 0-11.7 4.2-11.7 9.3 0 5.2 5.2 9.3 11.7 9.3 4.5 0 8.3-2 10.3-4.9"/><path class="st8" d="M-149.2 372.1c-2.1-2.2-5.5-3.7-9.3-3.7-6.5 0-11.7 4.2-11.7 9.3 0 5.2 5.2 9.3 11.7 9.3 4.5 0 8.4-2 10.4-5"/><path class="st9" d="M-148.9 391.5s-4 0-4-4.9c0 0 .4-3.5-2-6"/><path class="st8" d="M-148.9 391.5s-4 0-4-4.9c0 0 1.1-8.5-9.4-8.5"/><path class="st9" d="M-163.8 375.7v-9.9"/><path class="st8" d="M-163.8 375.7v-9.9"/><path class="st1" d="M-162.4 365.4l-2.9 1c0-3.1-2.1-4-2.1-4h3.7l1.3 3zm2 27.6h-6.9s2-1 2-3h2.9c0 2 2 3 2 3z"/><path class="st8" d="M-103.5 450.9c-1.8-2.2-4.4-3.5-7.2-3.5-5.5 0-9.9 5-9.9 11.2 0 6.2 4.4 11.2 9.9 11.2 3.1 0 5.9-1.6 7.8-4.2m-.3 4.1l-6.8.1"/><path class="st9" d="M-114.2 462.8l3 6.7 2.8-6.5m4.2-8.1l3.3-6.7"/><path class="st8" d="M-122.4 446.5l11.2 23.1 11.4-23.6"/><path class="st10" d="M-103.7 457.8h-4.4m0 0s.1 2 3.5 2m-.1 0l.9-2"/><path class="st1" d="M-103.7 457.8h-4.4s.1 2 3.5 2l.9-2z"/><path class="st8" d="M-103.2 457.8v12"/><path class="st9" d="M-110.7 447.4c-5.5 0-9.9 5-9.9 11.2"/><path class="st8" d="M-110.7 447.4c-5.5 0-9.9 5-9.9 11.2"/><path class="st1" d="M-99.3 447.4c2.1 0 3-2.4 3-2.4h-6.9s.7 2.4 2.3 2.4h1.6zm-23.9 0c-2.1 0-3-2.4-3-2.4h6.9s-.7 2.4-2.3 2.4h-1.6z"/><path class="st11" d="M-135.4 422.6s-1.8 8.3 21.1 8.3c0 0 9.4.6 14-4.6l8.8-9.5s-4.3-9.1-9.5-9.1c0 .1-12.9-.4-34.4 14.9z"/><path class="st12" d="M-108.1 430.5s2.2-13.4 4.5-16.8c0 0-3.7-5.3 2.3-5.8 0 0 2.6-.3 3.3 2.6 0 0 .2 2.9-2.3 4 0 0-2.6 2.1-4.5 15.1 0-.1-1.8.6-3.3.9z"/><path class="st13" d="M-122.6 416s8.2-4 13.3-5.5c0 0 2.4-.8 3.1 0 0 0 1.5 1.9-1.6 3.1 0 0-7.6 1-24 10.6 0 0-1.4.9-2-.1 0 0-.3-.7 1.1-1.8 0-.1 6.3-4.5 10.1-6.3z"/><path class="st13" d="M-113.2 416.4s3.7-1.4 5-1.5c0 0 1.7.1 1.7 1.4 0 0 .4 1.8-2.3 2.6 0 0-6.8 1.1-18.7 7.5 0 0-2.2 1.6-3.5.3 0 0-.7-1 1-2.1-.1 0 9.9-5.8 16.8-8.2zm-2.2 5.7s4.8-1.7 7-1.8c0 0 1.2.1 1 1.4 0 0 .4 2.1-1.9 2.5 0 0-6.4.8-12.4 4.3 0 0-1.6 1-3.2.8 0 0-1-.2-1.8-.6 0 0-1.7-.3 2.6-2.5-.2 0 5.5-3.2 8.7-4.1zm.1 7.8s-3.8 0-5.3-.2c0 0-1-.2.7-1.2 0 0 4.5-1.9 8.6-2.9 0 0 2.6-.7 2.6 1.2 0 0 .4 2.7-3 2.9l-3.6.2zm20.3-16.6s2.7 3 1.4 4.4c0 0-1.4 1.8-3.2-.2 0 0-2.2-1.9-1.2-3.6-.1-.1 1.1-3.5 3-.6zm-3.9 3.4s1.7 1.6 2.2 2.7c0 0 .9 1.7-1.1 2.4 0 0-2.4-.9-3.6-3.1 0 0 .1-3.1 2.5-2zm-2 4.4s2.6 1.6 1.1 3.2c0 0-1.1 1.2-2 0 0 0-1.3-.7-.7-2.5-.1.1.4-1.6 1.6-.7zm-2.1 3.8s2 1.1.7 2.1c0 0-1.7 2-1.5 0 0 0-.2-1.8.8-2.1z"/><path class="st1" d="M-120.5 437.3s8 .2 9.5-1.2c0 0-5.5 6.8-9.5 1.2zm20.9-6.1s5.8 1.3 9.7.9c0 0-6.8 4.8-9.7-.9zm17.2.8s3.6.1 6.2-1c0 0-2.4 4.2-6.2 1zm-6.7 6.5s3.5-.4 5-.2c0 0-2.2-2.8-5 .2zm-16.6-6.3s-2.7.8-4.1.6c-.1 0 1.3 2.4 4.1-.6zm-.9 4.5s2.9.6 6.7.4c0 0-1.9 3.7-6.7-.4zm-19.8-3.6s5.1.2 7.9-.4c-.1 0-2.8 4.4-7.9.4z"/><path d="M-141.4 432.8s4.1-.2 6-.2c1.9 0 3.5.4 4.5 1.2 0 0-1-1.7-3.5-2.5 0 0-2.9-1.1-5.7-.5 0 0-2.6.5-5.8-1.6-.1 0 1.9 3.4 4.5 3.6zm2 2.9s-2.2-.6-4.9-.1c-1.9.3-5.6-.1-6.5-.9 0 0 .2 2.4 3.5 2.9 0 0 2.3 0 5.6-.2 0 0 3.1-.3 6.2 1.3-.1.1-2.8-2.7-3.9-3z"/></svg>