<?xml version="1.0" encoding="utf-8"?><!-- Generator: Adobe Illustrator 16.0.0, SVG Export Plug-In . SVG Version: 6.00 Build 0) --><!DOCTYPE svg PUBLIC "-//W3C//DTD SVG 1.1//EN" "http://www.w3.org/Graphics/SVG/1.1/DTD/svg11.dtd"><svg version="1.1" id="Layer_1" xmlns:cc="http://creativecommons.org/ns#" xmlns:inkscape="http://www.inkscape.org/namespaces/inkscape" xmlns:sodipodi="http://sodipodi.sourceforge.net/DTD/sodipodi-0.dtd" xmlns:dc="http://purl.org/dc/elements/1.1/" xmlns:rdf="http://www.w3.org/1999/02/22-rdf-syntax-ns#" xmlns:svg="http://www.w3.org/2000/svg" sodipodi:docname="Chelsea_FC.svg" inkscape:version="0.47 r22583" xmlns="http://www.w3.org/2000/svg" xmlns:xlink="http://www.w3.org/1999/xlink" x="0px" y="0px" width="209.477px" height="209.476px" viewBox="0 0 209.477 209.476" enable-background="new 0 0 209.477 209.476" xml:space="preserve"><defs><inkscape:perspective inkscape:vp_z="475.35101 : 237.67551 : 1" inkscape:vp_x="0 : 237.67551 : 1" sodipodi:type="inkscape:persp3d" id="perspective3563" inkscape:vp_y="0 : 1000 : 0" inkscape:persp3d-origin="237.67551 : 158.45034 : 1"></inkscape:perspective></defs><sodipodi:namedview pagecolor="#ffffff" inkscape:cy="104.73836" guidetolerance="10" objecttolerance="10" showgrid="false" inkscape:cx="104.73836" borderopacity="1" bordercolor="#666666" inkscape:zoom="1" gridtolerance="10" id="namedview3557" inkscape:pageshadow="2" inkscape:window-x="-4" inkscape:window-y="-4" inkscape:pageopacity="0" inkscape:window-maximized="1" inkscape:window-width="1280" inkscape:current-layer="Layer_1" inkscape:window-height="710"></sodipodi:namedview><path id="path3381" fill="#DBA111" d="M209.477,104.738c0,57.851-46.895,104.738-104.737,104.738	C46.892,209.477,0,162.588,0,104.738C0,46.895,46.892,0,104.738,0C162.582,0,209.477,46.895,209.477,104.738"/><path id="path3383" fill="#034694" d="M205.982,104.738c0,55.917-45.327,101.244-101.245,101.244S3.491,160.656,3.491,104.738	C3.491,48.82,48.82,3.492,104.738,3.492C160.654,3.492,205.982,48.82,205.982,104.738"/><path id="path3385" fill="#DBA111" d="M176.889,104.738c0,39.849-32.304,72.146-72.151,72.146c-39.85,0-72.153-32.298-72.153-72.146	c0-39.852,32.304-72.153,72.153-72.153C144.586,32.584,176.889,64.887,176.889,104.738"/><path id="path3387" fill="#FFFFFF" d="M174.705,104.738c0,38.644-31.33,69.968-69.968,69.968c-38.643,0-69.967-31.325-69.967-69.968	c0-38.642,31.325-69.968,69.967-69.968C143.376,34.771,174.705,66.096,174.705,104.738"/><path id="path3389" fill="#DBA111" d="M44.787,165.101c0.773,0.739,2.679,2.553,2.679,2.553l1.826-1.923l-5.446-5.19l-0.701,0.733	l-7.312,7.666l2.775,2.644c0,0,2.346-2.459,3.203-3.355c0.717,0.683,2.438,2.321,2.438,2.321l1.827-1.918	c0,0-1.719-1.64-2.435-2.325C44.096,165.826,44.327,165.584,44.787,165.101"/><path id="path3391" fill="#DBA111" d="M57.92,173.855c-0.246-1.471-1.072-2.77-2.32-3.655c-1.243-0.885-2.734-1.232-4.206-0.991	c-1.583,0.269-3.006,1.191-4.008,2.595c-0.999,1.411-1.402,3.057-1.133,4.646c0.248,1.466,1.066,2.756,2.312,3.644	c1.246,0.886,2.749,1.24,4.218,0.993c1.583-0.268,3.006-1.19,4.004-2.599c0.799-1.114,1.216-2.393,1.216-3.67	C58.003,174.499,57.976,174.172,57.92,173.855 M50.1,177.927c-1.271-0.9-0.222-2.782,0.521-3.817	c0.738-1.043,2.173-2.655,3.444-1.756c1.328,0.949,0.087,3.002-0.508,3.836C52.958,177.031,51.431,178.877,50.1,177.927z"/><path id="path3393" fill="#DBA111" d="M66.48,176.762c-2.931-1.482-6.319-0.268-7.877,2.818c-0.779,1.542-0.932,3.234-0.43,4.759	c0.464,1.415,1.47,2.571,2.834,3.257c1.364,0.694,2.899,0.815,4.317,0.35c1.522-0.495,2.793-1.621,3.567-3.162	C70.455,181.69,69.416,178.244,66.48,176.762 M63.239,185.337c-0.344,0.112-0.67,0.077-1.039-0.106	c-0.582-0.297-0.786-0.826-0.786-1.417c0-0.817,0.394-1.781,0.727-2.439c0.578-1.144,1.752-2.948,3.146-2.245	c0.367,0.188,0.587,0.431,0.698,0.771c0.233,0.703-0.001,1.859-0.629,3.097C64.73,184.23,63.939,185.105,63.239,185.337z"/><path id="path3395" fill="#DBA111" d="M72.532,181.005l-0.54,1.546c0,0,1.379,0.484,1.798,0.622	c-0.528,1.51-2.961,8.456-2.961,8.456l3.612,1.267c0,0,2.438-6.938,2.964-8.449c0.422,0.147,1.802,0.627,1.802,0.627l0.875-2.494	l-7.215-2.531L72.532,181.005"/><path id="path3397" fill="#DBA111" d="M87.534,184.357l-4.884-1.03l-0.209,0.992l-2.182,10.362l4.969,1.055	c1.588,0.328,2.634-0.062,3.23-0.447c0.757-0.493,1.288-1.305,1.492-2.272c0.056-0.264,0.083-0.519,0.083-0.77	c0-0.699-0.223-1.33-0.623-1.872c0.56-0.444,0.959-1.071,1.125-1.854c0.042-0.203,0.066-0.432,0.066-0.67	C90.604,186.523,89.846,184.84,87.534,184.357 M86.189,192.269c-0.052,0.237-0.146,0.55-0.326,0.667	c-0.166,0.107-0.483,0.121-0.896,0.032c0,0-0.188-0.042-0.41-0.085c0.158-0.748,0.265-1.246,0.419-1.994	c0.212,0.05,0.484,0.104,0.484,0.104c0.641,0.135,0.764,0.608,0.764,0.952C86.224,192.084,86.207,192.201,86.189,192.269	L86.189,192.269z M85.856,186.723c0.43,0.098,0.744,0.254,0.865,0.438c0.055,0.084,0.083,0.203,0.083,0.342	c0,0.084-0.011,0.182-0.033,0.299c-0.065,0.304-0.154,0.725-1,0.552c0,0-0.104-0.027-0.25-0.059	C85.655,187.666,85.719,187.354,85.856,186.723L85.856,186.723z"/><path id="path3399" fill="#DBA111" d="M96.548,186.045l-5.304,10.859l3.028,0.232c0,0,0.82-1.729,1.147-2.419	c0.641,0.053,1.283,0.098,1.911,0.148c0.234,0.726,0.827,2.565,0.827,2.565l4.028,0.313l-4.502-13.956L96.548,186.045"/><path id="path3401" fill="#DBA111" d="M108.506,194.714c-0.066-1.587-0.371-8.812-0.371-8.812l-3.827,0.161l0.484,11.597	l7.669-0.318l-0.115-2.783C112.346,194.558,109.606,194.674,108.506,194.714"/><path id="path3403" fill="#DBA111" d="M119.004,193.604c-0.248-1.569-1.367-8.713-1.367-8.713l-1.003,0.16l-2.784,0.434	l1.797,11.472l7.586-1.191l-0.434-2.752C122.799,193.012,120.092,193.438,119.004,193.604"/><path id="path3405" fill="#DBA111" d="M140.965,185.889c-0.031,0.994-0.617,1.851-1.531,2.212c-0.507,0.202-0.99,0.202-1.476-0.004	c-0.743-0.318-1.434-1.124-1.848-2.159c-0.485-1.221-0.586-2.259-0.267-2.986c0.22-0.512,0.649-0.893,1.308-1.155	c0.714-0.283,1.39-0.022,2.316,0.522l0.85,0.502l1.413-2.228l-0.839-0.551c-1.54-1.014-3.447-1.219-5.098-0.561	c-1.531,0.61-2.719,1.752-3.347,3.213c-0.637,1.48-0.637,3.177,0.011,4.783c1.219,3.047,4.662,4.549,7.674,3.342	c2.177-0.868,3.408-2.521,3.564-4.78l0.071-1.008l-2.771-0.205L140.965,185.889"/><path id="path3407" fill="#DBA111" d="M149.898,182.721c-0.784-1.393-4.307-7.711-4.307-7.711l-0.881,0.498l-2.465,1.376	l5.664,10.133l6.694-3.74l-1.354-2.433C153.25,180.844,150.854,182.18,149.898,182.721"/><path id="path3409" fill="#DBA111" d="M157.346,167.094l-0.82,0.6l-1.438,1.059l4.701,6.407c0.215,0.289,0.215,0.482,0.194,0.596	c-0.045,0.331-0.389,0.688-0.692,0.908c-0.145,0.103-0.477,0.241-0.816,0.188c-0.242-0.035-0.434-0.168-0.604-0.397l-4.646-6.334	l-3.096,2.266l4.623,6.304c0.686,0.934,1.537,1.484,2.531,1.637c1.115,0.174,2.384-0.205,3.562-1.076	c2.424-1.771,2.384-4.125,1.326-5.567L157.346,167.094"/><path id="path3411" fill="#DBA111" d="M171.449,164.764c-0.714-0.738-1.593-1.071-2.515-1.021c-0.055-0.718-0.332-1.402-0.887-1.977	c-0.969-0.999-3.133-1.777-5.126,0.161l-3.585,3.468l8.078,8.339l3.646-3.534c1.166-1.13,1.422-2.224,1.435-2.93	C172.515,166.363,172.143,165.477,171.449,164.764 M165.347,164.482c0.12,0.129,0.269,0.279,0.269,0.487	c0,0.171-0.094,0.382-0.373,0.649c0,0-0.075,0.075-0.179,0.18c-0.452-0.47-0.667-0.689-1.126-1.162	C164.746,163.896,165.082,164.213,165.347,164.482L165.347,164.482z M167.26,167.354c0.654-0.631,1.285-0.076,1.465,0.112	c0.174,0.175,0.371,0.421,0.371,0.634c0,0,0,0,0,0.008c-0.004,0.197-0.17,0.471-0.471,0.762c0,0-0.14,0.136-0.306,0.291	c-0.526-0.546-0.885-0.913-1.413-1.456C167.062,167.547,167.26,167.354,167.26,167.354L167.26,167.354z"/><path id="path3413" fill="#FFFFFF" d="M44.761,164.025c0.316,0.304,2.675,2.554,2.675,2.554l0.778-0.82l-4.346-4.145l-0.176,0.184	l-6.782,7.115l1.671,1.596c0,0,2.89-3.029,3.201-3.36c0.315,0.301,2.441,2.325,2.441,2.325l0.779-0.817c0,0-2.126-2.022-2.442-2.323	C42.844,166.036,44.482,164.316,44.761,164.025"/><path id="path3415" fill="#FFFFFF" d="M55.156,170.818c-1.077-0.768-2.366-1.073-3.632-0.861c-1.389,0.238-2.635,1.05-3.517,2.29	c-0.884,1.245-1.239,2.688-1.003,4.071c0.212,1.27,0.925,2.39,2.003,3.152c1.083,0.771,2.378,1.072,3.649,0.859	c1.381-0.231,2.629-1.046,3.509-2.278c0.704-0.995,1.076-2.12,1.076-3.235c0-0.277-0.024-0.561-0.069-0.838	C56.957,172.712,56.242,171.589,55.156,170.818 M54.175,176.633c-0.729,1.02-2.626,3.26-4.514,1.916	c-1.883-1.335-0.389-3.86,0.338-4.887c0.728-1.025,2.626-3.263,4.505-1.927C56.393,173.084,54.903,175.61,54.175,176.633z"/><path id="path3417" fill="#FFFFFF" d="M66.137,177.444c-2.543-1.285-5.489-0.216-6.854,2.485c-0.688,1.358-0.824,2.836-0.388,4.177	c0.401,1.219,1.272,2.213,2.455,2.809c1.186,0.604,2.513,0.713,3.737,0.311c1.331-0.438,2.441-1.426,3.13-2.783	C69.58,181.74,68.687,178.729,66.137,177.444 M61.856,185.906c-2.059-1.036-0.963-3.761-0.395-4.88	c0.566-1.124,2.107-3.62,4.164-2.575c0.547,0.272,0.913,0.681,1.086,1.214c0.404,1.232-0.251,2.827-0.679,3.675	c-0.426,0.84-1.323,2.313-2.559,2.719C62.947,186.238,62.4,186.184,61.856,185.906z"/><path id="path3419" fill="#FFFFFF" d="M73.253,181.254l-0.292,0.826c0,0,1.438,0.506,1.799,0.633	c-0.16,0.451-2.964,8.448-2.964,8.448l2.18,0.767c0,0,2.808-7.997,2.963-8.45c0.361,0.126,1.799,0.628,1.799,0.628l0.377-1.062	l-5.782-2.029L73.253,181.254"/><path id="path3421" fill="#FFFFFF" d="M87.38,185.1l-4.139-0.873l-0.056,0.25l-2.022,9.624l4.223,0.887	c1.074,0.226,1.967,0.112,2.658-0.34c0.598-0.39,0.999-1.013,1.163-1.787c0.042-0.212,0.066-0.412,0.066-0.609	c0-0.842-0.417-1.556-1.163-2.064c0.863-0.248,1.481-0.883,1.681-1.826c0.034-0.146,0.054-0.32,0.054-0.518	C89.844,186.879,89.337,185.512,87.38,185.1 M85.933,185.951c0.696,0.146,1.177,0.413,1.422,0.792	c0.142,0.215,0.211,0.467,0.211,0.759c0,0.143-0.019,0.291-0.052,0.452c-0.269,1.28-1.304,1.268-1.898,1.138	c0,0-0.631-0.13-0.995-0.207c0.085-0.395,0.564-2.679,0.647-3.072C85.532,185.866,85.933,185.951,85.933,185.951L85.933,185.951z M85.615,190.247c1.176,0.247,1.36,1.175,1.36,1.737c0,0.241-0.038,0.415-0.042,0.443c-0.119,0.556-0.331,0.933-0.656,1.142	c-0.344,0.23-0.84,0.274-1.467,0.146c0,0-0.753-0.161-1.156-0.241c0.088-0.414,0.649-3.079,0.735-3.484	C84.733,190.06,85.615,190.247,85.615,190.247L85.615,190.247z"/><path id="path3423" fill="#FFFFFF" d="M97.234,186.379l-4.812,9.854l1.386,0.104c0,0,1.02-2.144,1.154-2.416	c0.293,0.022,2.648,0.206,2.938,0.229c0.093,0.282,0.827,2.566,0.827,2.566l2.389,0.185l-3.576-11.084L97.234,186.379 M96.706,190.341c0.231,0.744,0.68,2.179,0.829,2.646c-0.477-0.034-1.571-0.119-2.042-0.155	C95.708,192.39,96.365,191.041,96.706,190.341z"/><path id="path3425" fill="#FFFFFF" d="M107.775,195.508c-0.02-0.48-0.373-8.812-0.373-8.812l-0.245,0.01l-2.061,0.084l0.423,10.081	l6.149-0.263l-0.055-1.258C111.615,195.35,108.22,195.493,107.775,195.508"/><path id="path3427" fill="#FFFFFF" d="M118.371,194.482c-0.076-0.476-1.37-8.724-1.37-8.724l-0.247,0.04l-2.033,0.321l1.562,9.965	l6.079-0.96l-0.194-1.245C122.168,193.881,118.807,194.408,118.371,194.482"/><path id="path3429" fill="#FFFFFF" d="M141.723,185.906c-0.036,1.312-0.807,2.424-2.008,2.907c-0.699,0.277-1.389,0.269-2.056-0.019	c-0.94-0.397-1.762-1.339-2.26-2.575c-0.561-1.411-0.649-2.646-0.259-3.572c0.304-0.697,0.883-1.221,1.729-1.557	c1.105-0.443,2.123,0.062,2.981,0.572l0.215,0.125l0.619-0.973l-0.207-0.14c-1.334-0.874-2.982-1.057-4.401-0.488	c-1.345,0.539-2.39,1.533-2.931,2.807c-0.557,1.29-0.552,2.785,0.019,4.195c1.061,2.662,4.057,3.971,6.688,2.922	c1.908-0.766,2.944-2.149,3.082-4.127l0.02-0.254l-1.22-0.084L141.723,185.906"/><path id="path3431" fill="#FFFFFF" d="M149.604,183.756c-0.237-0.416-4.307-7.706-4.307-7.706l-0.224,0.125l-1.793,1.003	l4.914,8.801l5.373-3l-0.61-1.102C152.958,181.879,149.983,183.535,149.604,183.756"/><path id="path3433" fill="#FFFFFF" d="M157.18,168.155l-0.207,0.152l-0.824,0.604l4.252,5.793c0.285,0.391,0.396,0.778,0.336,1.16	c-0.102,0.689-0.729,1.221-0.993,1.407c-0.302,0.229-0.854,0.416-1.382,0.33c-0.448-0.065-0.815-0.303-1.11-0.698l-4.197-5.726	l-1.859,1.371l4.171,5.686c0.562,0.767,1.245,1.22,2.033,1.335c1.241,0.188,2.407-0.503,2.993-0.931	c2.012-1.479,2.039-3.33,1.17-4.508L157.18,168.155"/><path id="path3435" fill="#FFFFFF" d="M170.902,165.293c-0.78-0.808-1.778-0.991-2.813-0.593c0.082-0.241,0.131-0.487,0.131-0.733	c0-0.6-0.238-1.184-0.719-1.677c-0.648-0.668-2.33-1.493-4.049,0.179l-3.038,2.943l7.015,7.241l3.106-3.012	c0.781-0.752,1.191-1.562,1.201-2.383C171.748,166.543,171.457,165.865,170.902,165.293 M166.372,164.979	c0,0.508-0.33,0.924-0.598,1.185c0,0-0.466,0.453-0.729,0.712c-0.283-0.29-1.909-1.966-2.188-2.264	c0.189-0.183,0.486-0.465,0.486-0.465c0.949-0.926,1.782-0.985,2.547-0.192C166.243,164.316,166.372,164.66,166.372,164.979z M168.305,170.234c-0.288-0.297-2.184-2.258-2.475-2.555c0.251-0.24,0.899-0.872,0.899-0.872c1.237-1.191,2.492,0.071,2.545,0.13	c0.392,0.402,0.582,0.784,0.582,1.163c0,0.007,0,0.011,0,0.016c-0.005,0.416-0.246,0.852-0.704,1.305	C169.154,169.42,168.55,170.001,168.305,170.234z"/><path id="path3437" fill="#DBA111" d="M58.205,35.74l-4.233,1.142l0.486,1.516c0.585,1.839,0.056,3.765-1.377,5.021	c-0.797,0.699-1.719,1.02-2.733,0.95c-1.543-0.104-3.285-1.103-4.657-2.673c-1.616-1.853-2.424-3.636-2.32-5.146	c0.07-1.104,0.606-2.07,1.635-2.971c1.136-0.995,2.576-0.956,4.529-0.568l1.448,0.286l0.938-4.055l-1.458-0.355	c-3.137-0.776-6.407-0.014-8.741,2.029c-4.57,3.999-4.942,10.528-0.867,15.189c3.788,4.33,10.359,4.803,14.644,1.056	c3.085-2.695,4.16-6.144,3.111-9.96L58.205,35.74"/><path id="path3439" fill="#DBA111" d="M69.701,14.505l-4.324,2.036c0,0,2.414,5.116,3.244,6.879	c-1.233,0.58-2.429,1.144-3.663,1.727c-0.833-1.762-3.248-6.879-3.248-6.879l-5.694,2.688l8.671,18.394l5.699-2.687	c0,0-2.687-5.689-3.551-7.534c1.233-0.578,2.428-1.143,3.665-1.726c0.867,1.84,3.55,7.53,3.55,7.53l5.697-2.688l-8.669-18.39	L69.701,14.505"/><path id="path3441" fill="#DBA111" d="M88.981,25.9c-0.277-1.369-0.56-2.763-0.834-4.131c1.76-0.354,6.435-1.298,6.435-1.298	l-0.822-4.085c0,0-4.677,0.945-6.438,1.301c-0.253-1.252-0.463-2.304-0.718-3.555c1.827-0.369,6.83-1.379,6.83-1.379l-0.825-4.084	L91.111,8.97l-11.507,2.327l4.023,19.935l13.108-2.649L95.913,24.5C95.913,24.5,90.82,25.526,88.981,25.9"/><path id="path3443" fill="#DBA111" d="M107.574,8.196l-6.305-0.131l-0.031,1.521l-0.394,18.811l13.233,0.277l0.096-4.404	c0,0-5.081-0.108-6.938-0.146C107.289,21.632,107.574,8.196,107.574,8.196"/><path id="path3445" fill="#DBA111" d="M128.004,18.452c-1.636-1.201-2.114-1.684-1.949-2.34c0.082-0.34,0.452-1.426,1.627-1.135	c0.707,0.182,1.41,0.555,1.725,2.075l0.344,1.688l4.163-1.407l-0.261-1.312c-0.512-2.573-2.688-4.765-5.422-5.447	c-1.957-0.486-3.918-0.227-5.527,0.74c-1.479,0.886-2.519,2.283-2.93,3.938c-1.045,4.169,1.767,6.176,3.623,7.506	c1.904,1.362,2.39,1.895,2.1,3.033c-0.092,0.354-0.302,0.636-0.628,0.835c-0.383,0.224-0.86,0.305-1.25,0.204	c-1-0.247-1.435-0.72-1.855-2.015l-0.511-1.551l-4.177,1.708l0.403,1.326c0.783,2.577,2.652,4.201,5.712,4.967	c3.438,0.86,7.608-0.721,8.647-4.85C132.922,22.069,129.962,19.89,128.004,18.452"/><path id="path3447" fill="#DBA111" d="M143.043,29.298c1.604,0.811,5.856,2.961,5.856,2.961l1.881-3.718c0,0-4.256-2.15-5.854-2.959	c0.572-1.141,1.059-2.1,1.629-3.237c1.66,0.838,6.222,3.143,6.222,3.143l1.876-3.718l-11.838-5.981l-0.684,1.354l-8.491,16.794	l11.938,6.028l1.882-3.716c0,0-4.639-2.343-6.313-3.188C141.771,31.814,142.416,30.546,143.043,29.298"/><path id="path3449" fill="#DBA111" d="M166.618,31.198l-18.969,9.813l3.629,3.156c0,0,3.132-1.665,4.27-2.263	c0.847,0.737,2.093,1.822,2.926,2.546c-0.408,1.21-1.566,4.612-1.566,4.612l4.998,4.351l8.109-23.913L166.618,31.198"/><path id="path3451" fill="#FFFFFF" d="M57.494,36.977l-2.236,0.607l0.164,0.506c0.71,2.232,0.069,4.566-1.678,6.094	c-1.003,0.88-2.174,1.284-3.467,1.201c-1.833-0.123-3.78-1.223-5.354-3.022c-1.798-2.059-2.69-4.094-2.572-5.887	c0.093-1.36,0.76-2.594,1.983-3.664c1.605-1.403,3.629-1.146,5.395-0.798l0.485,0.094l0.489-2.118l-0.486-0.121	c-2.818-0.692-5.743-0.017-7.831,1.812c-4.131,3.618-4.463,9.527-0.769,13.754c3.418,3.909,9.344,4.337,13.212,0.959	c2.805-2.46,3.748-5.459,2.797-8.924L57.494,36.977"/><path id="path3453" fill="#FFFFFF" d="M70.133,15.418l-3.402,1.607c0,0,2.864,6.078,3.241,6.876	c-0.728,0.346-4.769,2.252-5.502,2.595c-0.375-0.801-3.238-6.877-3.238-6.877l-3.866,1.821l7.807,16.555l3.864-1.819	c0,0-3.169-6.718-3.552-7.531c0.733-0.345,4.77-2.247,5.502-2.594c0.381,0.811,3.552,7.533,3.552,7.533l3.858-1.824L70.59,15.205	L70.133,15.418"/><path id="path3455" fill="#FFFFFF" d="M88.184,27.096c-0.159-0.795-1.074-5.324-1.231-6.12c0.846-0.17,6.433-1.299,6.433-1.299	l-0.422-2.091c0,0-5.585,1.124-6.437,1.296c-0.154-0.78-0.961-4.765-1.114-5.544c0.853-0.175,6.824-1.377,6.824-1.377l-0.423-2.092	L80.8,12.09l3.623,17.943l11.118-2.245l-0.422-2.093C95.117,25.696,89.044,26.922,88.184,27.096"/><path id="path3457" fill="#FFFFFF" d="M106.537,9.191l-4.271-0.092l-0.009,0.504L101.88,27.4l11.208,0.238l0.051-2.376	c0,0-6.068-0.128-6.938-0.146C106.225,24.167,106.537,9.192,106.537,9.191"/><path id="path3459" fill="#FFFFFF" d="M127.928,13.996c1.357,0.34,2.142,1.247,2.474,2.853l0.116,0.562l2.228-0.752l-0.084-0.439	c-0.44-2.193-2.316-4.067-4.675-4.66c-1.693-0.422-3.382-0.201-4.758,0.625c-1.245,0.748-2.123,1.927-2.469,3.317	c-0.877,3.497,1.402,5.125,3.23,6.432c1.85,1.323,2.965,2.228,2.489,4.104c-0.188,0.78-0.698,1.228-1.093,1.462	c-0.61,0.365-1.358,0.479-2.016,0.317c-1.351-0.338-2.044-1.063-2.571-2.683l-0.172-0.518l-2.312,0.942l0.136,0.443	c0.671,2.208,2.304,3.607,4.99,4.281c2.951,0.736,6.528-0.599,7.41-4.114c0.918-3.687-1.502-5.469-3.459-6.9	c-1.662-1.227-2.666-2.047-2.324-3.401C125.369,14.656,126.373,13.606,127.928,13.996"/><path id="path3461" fill="#FFFFFF" d="M146.108,20.983c0.779,0.393,6.216,3.14,6.216,3.14l0.967-1.907l-10.025-5.064l-0.229,0.452	l-8.027,15.888l10.119,5.113l0.964-1.905c0,0-5.524-2.793-6.308-3.19c0.364-0.725,2.449-4.844,2.812-5.57	c0.771,0.391,5.855,2.959,5.855,2.959l0.969-1.906c0,0-5.09-2.567-5.861-2.959C143.918,25.323,145.751,21.691,146.108,20.983"/><path id="path3463" fill="#FFFFFF" d="M167.085,32.101l-17.639,9.128l1.972,1.714c0,0,3.74-1.982,4.27-2.263	c0.439,0.383,3.539,3.08,3.97,3.454c-0.188,0.558-1.572,4.608-1.572,4.608l3.348,2.909l6.814-20.096L167.085,32.101 M157.729,39.629	c0.835-0.432,2.966-1.539,4.268-2.215c-0.484,1.382-1.282,3.658-1.588,4.543C159.731,41.365,158.407,40.214,157.729,39.629z"/><path id="path3465" fill="#D1D3D4" d="M154.777,101.99c-1.446-3.832-6.428-5.496-11.137-3.72c-1.963,0.739-3.572,1.975-4.668,3.432	c3.109-8.874,15.773-10.757,15.773-19.013c0-13.837-19.65-9.961-16.791,0.002c0-4.521,7.193-5.349,7.193,0	c0,5.351-12.544,8.858-12.544,17.896c0,9.964,9.965,10.886,8.955,19.997c-0.171,1.572-1.859,3.637-4.307,3.637	c-15.262,0-9.814-18.789-15.146-24.507l0.278-3.86c3.083,1.892,11.263-2.538,5.878-9.289c0,3.32-6.913,3.137-6.913-3.137	c0-8.487,7.936-4.059,8.32-2.184c-0.38-3.092-0.524-5.054-0.015-6.834c-4.277,1.379-4.678-1.094-4.137-2.051	c0.62-1.105,1.448-2.398,3.115-2.398c0.9,0,1.441,0.125,1.76,0.345c0.533,0.365,0.923-0.468,0.847,0.307	c0.457-0.696,0.273,0.174,0.717-0.525c0.449-0.694,1.056-1.479,2.12-2.525l-0.046-1.564l1.246,0.457l1.195-1.936	c-1.291-2.677-3.043-1.388-4.333-4.707c-1.079-0.279-17.888,1.548-17.399-5.157c-1.37,0-4.616,0.752-2.607,3.481	c-1.562,0.188-2.688-1.586-5.043,3.212c2.95-0.553,1.423,2.745,1.423,3.684c0,6.078-8.093,5.977-8.093,3.129	c-1.951,1.896-0.844,6.04,2.105,7.061c0,0-1.122,4.433-3.891,7.244c-4.111-0.164-10.706-0.878-14.5-4.464	c-1.636-1.545-2.935-2.389-4.042-2.82v-2.009c1.62-0.793,3.396-2.196,5.242-4.541c1.439-1.759,2.22-4.014,2.01-6.409	c-0.027-0.286-0.069-0.568-0.12-0.844c-0.016-0.088-0.037-0.173-0.058-0.26c-0.04-0.193-0.087-0.378-0.144-0.569	c-0.026-0.092-0.052-0.188-0.081-0.277c-0.062-0.19-0.131-0.375-0.206-0.556c-0.031-0.076-0.054-0.158-0.09-0.229	c-0.103-0.244-0.217-0.475-0.341-0.707c-0.053-0.094-0.109-0.181-0.161-0.268c-0.085-0.139-0.166-0.28-0.255-0.415	c-0.072-0.105-0.147-0.214-0.225-0.322c-0.078-0.103-0.161-0.208-0.242-0.311c-0.089-0.11-0.178-0.228-0.273-0.336	c-0.062-0.072-0.132-0.143-0.198-0.208c-0.24-0.266-0.5-0.511-0.771-0.747c-0.022-0.02-0.049-0.044-0.076-0.064	c-0.151-0.13-0.312-0.253-0.473-0.372c-0.041-0.03-0.083-0.061-0.128-0.093c-0.17-0.12-0.344-0.236-0.526-0.349	c-0.011-0.007-0.021-0.012-0.029-0.021c-1.728-1.058-3.814-1.61-6.02-1.437c-5.308,0.423-9.254,4.857-8.811,9.908	c0.345,3.934,3.245,7.076,7.019,8.078c-1.323,0.737-2.441,1.165-2.694,1.165c0.042,0.026,0.097,0.058,0.156,0.097	c0.016,0.007,0.034,0.018,0.052,0.026c0.052,0.033,0.112,0.067,0.174,0.101c0.017,0.009,0.035,0.018,0.05,0.027	c0.085,0.043,0.173,0.087,0.271,0.135c0.017,0.007,0.034,0.013,0.05,0.02c0.087,0.041,0.177,0.083,0.271,0.119	c0.027,0.012,0.056,0.023,0.085,0.033c0.23,0.096,0.491,0.183,0.775,0.264c0.041,0.012,0.083,0.021,0.117,0.031	c0.115,0.029,0.232,0.056,0.354,0.085c0.04,0.007,0.08,0.016,0.123,0.024c0.151,0.026,0.312,0.054,0.472,0.073	c0.014,0,0.027,0.008,0.04,0.008v1.143c-0.06,0.013-0.114,0.02-0.17,0.028c-1.727,0.283-2.849,0.814-3.356,2.353	c-0.504,1.543,0.015,2.102,0.823,3.184c-0.683,1.221-2.473,1.678-0.137,4.375c-0.17,1.019,0.045,2.642,1.528,3.134	c0.483,0.164,0.887,0.251,1.312,0.325l-0.002,20.225c-1.479,0.783-2.208,1.762-2.612,2.672c0,0-1.187-2.635-1.107,2.586	c1.349-1.047,0.817,1.212,0.817,1.212c-1.837,2.38,0.496,2.251,0.496,2.251c1.582-1.581,1.259,0.715,1.259,0.715	c0,2.802,1.139,3.896,1.147,3.901v15.408l-1.343,0.005l0.013,4.251l2.351-0.004c-1.318,0.548-2.188,1.85-2.062,3.288	c0.16,1.813,1.835,3.163,3.744,3.016c1.907-0.153,3.324-1.744,3.161-3.562c-0.108-1.255-0.939-2.279-2.07-2.75l2.168-0.006	l-0.009-4.253l-1.293,0.007l0.002-13.67c0.267,0.146,0.555,0.247,0.868,0.315c0.125,0.023,0.249,0.04,0.375,0.049	c0.056,0.008,0.113,0.008,0.17,0.011c-0.349-1.798,0.726-2.988,0.726-2.988c0.551-0.83,1.35-1.478,2.256-1.935	c2.713-1.359,6.416-1.017,7.522,1.199c7.012-1.848,13.037-8.896,13.037-8.896l3.451,5.874c-7.317,2.446-23.257,16.303-12.192,21.102	c-0.004,1.396-0.191,11.765-6.839,10.941c-9.574-1.181-11.962,2.78-10.124,7.233c-0.864,3.756,2.028,5.06,2.028,5.06	c-0.435-2.169,0.608-3.966,4.564-3.943c-0.02,3.957,2.536,4.67,2.536,4.67c0.018-3.388,2.373-4.643,4.464-4.633	c-0.016,2.791,3.229,3.853,3.229,3.853s-0.822-3.218,2.844-3.853c9.283-1.618,0.564-11.165,14.681-13.796	c0,0-7.028-1.061-7.028-4.902c0-3.497,6.362-5.89,8.553-5.89c4.493,8.584,9.375,8.652,10.653,8.713	c1.988,2.223,1.322,9.714-1.551,9.566c-10.514-0.564-10.13,5.832-8.951,7.14c-0.135,2.483,1.798,3.917,1.798,3.917	c0-2.661,2.531-3.41,5.778-3.234c-0.17,3.252,1.9,3.737,1.9,3.737c0.057-3.271,2.478-3.827,4.197-3.737	c-0.126,2.293,2.149,2.97,2.149,2.97s-0.225-2.91,2.84-2.91c5.812-0.004-2.629-12.459,8.713-24.777	c-9.963,4.613-15.264-6.916-15.264-9.129c5.121,5.992,21.726,7.189,21.726-3.048c0-9.779-10.748-13.423-5.721-17.164	c2.925-2.175,8.677,2.219,5.387,6.757c4.719-1.748,7.349-6.318,5.903-10.146 M91.089,102.298c-3.756,2.208-6.275,5.002-9.699,6.225	c-0.52,0.184-0.935,0.234-1.295,0.211V89.646c0.907,0.085,3.262,0.407,6.015,1.545c2.727,1.488,2.727,4.563-0.714,5.292	c2.174,4.164,9.708,2.125,11.351-1.266c0.804-0.071,1.515,1.365,2.184,2.722C97.871,98.488,95.708,99.579,91.089,102.298z M133.133,70.654c-0.412,0.562-0.82,1.118-1.177,1.597c0.952,1.583,2.745,2.573,4.708,2.392c2.715-0.257,4.712-2.666,4.463-5.382	c-0.017-0.099-0.029-0.188-0.042-0.284c-0.29,1.407-1.948,2.599-4.059,2.792C135.432,71.918,133.986,71.459,133.133,70.654z"/><path id="path3467" fill="#034694" d="M72.442,59.167c0,0.003-0.007,0.01-0.007,0.017h-0.002c0.042-0.101,0.087-0.202,0.138-0.301	C72.522,58.978,72.478,59.069,72.442,59.167 M72.615,139.229c0.004-0.003,0.011-0.003,0.013-0.008h-0.001	C72.624,139.228,72.62,139.228,72.615,139.229L72.615,139.229z M72.496,51.018h0.005H72.496z M71.06,138.76l2.351-0.003	c-0.287,0.12-0.547,0.277-0.782,0.465c0.232-0.089,0.48-0.144,0.744-0.144c1.178,0,2.132,0.955,2.132,2.134	c0,1.177-0.954,2.132-2.132,2.132c-0.954,0-1.752-0.626-2.022-1.492v0.193c0.161,1.817,1.833,3.168,3.744,3.011	c1.905-0.148,3.322-1.743,3.165-3.558c-0.112-1.25-0.941-2.275-2.072-2.746l2.167-0.009l-0.01-4.253l-1.293,0.008v-13.672	c-1.263-0.655-1.993-2.084-1.711-3.552c0.809,0,1.533,0.21,2.017,0.541c-0.747,1.645,1.111,3.386,1.111,3.386	c-0.348-1.798,0.724-2.984,0.724-2.984c0.557-0.832,1.354-1.48,2.257-1.938c2.717-1.361,6.417-1.018,7.522,1.197	c7.012-1.846,13.038-8.896,13.038-8.896l3.453,5.871c8.094,0,5.275-6.062,4.748-6.591c1.861,0,4.482,1.371,4.482,4.406	c0,7.455-21.67,8.518-21.67,17.565c0,3.799,3.767,5.244,3.767,5.244c0,8.249-5.665,13.149-9.54,13.149	c-6.196,0-10.941-1.255-10.941,5.501h2.16c-2.052,2.053-0.137,5.062-0.137,5.062c-0.433-2.167,0.613-3.961,4.569-3.941h2.469	c-1.568,1.567-0.652,3.947,0.069,4.674c0.015-3.393,2.366-4.646,4.46-4.635c0.761,0,1.792,0,1.792,0	c-0.487,0.48,0.295,2.711,1.438,3.85c0,0-0.826-3.215,2.845-3.85c9.279-1.617,0.561-11.164,14.677-13.799	c0,0-7.024-1.058-7.024-4.904c0-3.491,6.359-5.889,8.546-5.889c1.725-0.246,3.367-0.185,4.771,0.117	c0.571,5.543,6.935,5.272,8.32,5.272c5.397,5.398-1.372,14.063-1.372,14.063c-8.284,0-11.562,1.144-11.562,5.968h1.567	c-0.879,0.883-0.381,3.311,0.226,3.916c0-2.662,2.536-3.406,5.783-3.234h1.707c-0.832,0.832-0.687,2.857,0.196,3.736	c0.048-3.272,2.473-3.828,4.193-3.736h1.424c-0.533,0.537,0,2.244,0.73,2.976c0,0-0.226-2.913,2.837-2.916	c5.812,0-2.633-12.459,8.718-24.777c-9.963,4.615-15.27-6.918-15.27-9.131c5.122,5.995,21.729,7.191,21.729-3.043	c0-8.258-7.66-12.139-7.025-15.398c0.222-2.496,2.313-4.451,4.869-4.451c2.699,0,4.886,2.191,4.886,4.891	c0,2.058-1.263,3.813-3.062,4.536c0.004,0,0.004-0.004,0.004-0.004c-0.004,0.004-0.01,0.01-0.01,0.018	c4.715-1.748,7.348-6.319,5.91-10.147c-1.451-3.831-6.434-5.5-11.139-3.724c-1.972,0.744-3.572,1.975-4.669,3.435	c3.104-8.873,15.771-10.753,15.771-19.013c0-13.836-19.651-9.959-16.792,0.004c0-0.149,0.009-0.298,0.026-0.441	c0.501-5.632,10.568-6.783,10.568,0.559c0,6.272-12.894,9.749-12.894,18.188c0,8.667,9.523,10.834,9.523,19.955	c0,1.086-0.574,5.763-6.901,5.763c-6.104,0-9.039-3.412-10.706-7.866l0,0c-3.109-6.008-1.968-15.386-5.47-19.136l0.277-3.857	c3.085,1.894,11.268-2.54,5.893-9.291c0,3.324-6.919,3.136-6.919-3.135c0-8.487,7.932-4.059,8.315-2.186	c-0.381-3.089-0.529-5.057-0.008-6.831c-4.283,1.375-4.678-1.096-4.146-2.055c0.627-1.108,1.455-2.398,3.119-2.398	c2.404,0,2.252,0.883,2.125,2.126c0.919-1.389,1.18-2.434,3.316-4.523l-0.045-1.569l1.239,0.461l1.205-1.938	c-1.289-2.677-3.042-1.383-4.338-4.705c-1.074-0.281-15.205-1.586-14.717-8.293c-1.25,0-4.654,4.312-2.353,6.62c0,0-1.821,0-2.934,0	c-1.569,0.187-5.23-0.909-7.582,3.887c5.787-5.785,9.542,8.018-1.115,8.018V67l0,0c-1.572,0.004-2.921-0.652-3.013-1.761	c-1.062,4.658,5.652,6.108,5.652,6.108c0,1.384-3.363,8.877-4.998,10.51c1.102,1.103,1.443,7.755-3.65,7.755	c1.837-4.967-3.564-9.175-8.812-11.959c0.005,0,0.005,0,0.007,0c-0.95-0.36-1.854-0.8-2.693-1.328	c-3.221-1.473-5.84-2.301-5.84-2.301v-3.894c1.62-0.794,3.396-2.198,5.242-4.542c1.441-1.757,2.218-4.012,2.007-6.409	c-0.022-0.287-0.064-0.563-0.122-0.845c-0.013-0.087-0.033-0.17-0.051-0.257c-0.042-0.193-0.09-0.384-0.146-0.568	c-0.024-0.095-0.052-0.184-0.085-0.278c-0.061-0.19-0.131-0.378-0.202-0.56c-0.031-0.077-0.058-0.151-0.09-0.228	c-0.104-0.239-0.221-0.476-0.342-0.701c-0.049-0.097-0.108-0.184-0.159-0.275c-0.085-0.138-0.167-0.275-0.256-0.41	c-0.074-0.106-0.146-0.218-0.226-0.325c-0.078-0.103-0.157-0.208-0.24-0.307c-0.089-0.117-0.179-0.231-0.275-0.34	c-0.062-0.072-0.13-0.143-0.196-0.21c-0.242-0.262-0.5-0.509-0.771-0.74c-0.027-0.021-0.05-0.052-0.077-0.071	c-0.151-0.128-0.312-0.251-0.475-0.368c-0.043-0.027-0.083-0.063-0.126-0.094c-0.172-0.123-0.344-0.235-0.526-0.349	c-0.011-0.005-0.021-0.014-0.032-0.019c-1.727-1.062-3.814-1.61-6.019-1.438c-0.475,0.038-0.937,0.123-1.388,0.22	c-3.057,1.171-5.28,4.749-5.28,8.983c0,3.99,1.978,7.392,4.76,8.75c0.038,0.01,0.078,0.025,0.118,0.036	c-1.326,0.737-2.444,1.165-2.698,1.165c0.043,0.026,0.1,0.058,0.16,0.099c0.017,0.007,0.032,0.016,0.049,0.025	c0.054,0.03,0.109,0.062,0.177,0.098c0.017,0.009,0.031,0.018,0.05,0.024c0.079,0.042,0.172,0.092,0.268,0.139	c0.019,0.005,0.036,0.013,0.049,0.022c0.084,0.04,0.176,0.075,0.273,0.116c0.027,0.012,0.052,0.023,0.082,0.034	c0.235,0.093,0.493,0.184,0.78,0.264c0.04,0.01,0.077,0.021,0.118,0.032c0.111,0.029,0.229,0.056,0.35,0.081	c0.041,0.011,0.083,0.018,0.126,0.027c0.152,0.028,0.309,0.056,0.473,0.076c0.013,0,0.024,0.002,0.036,0.01	c1.012,0.083,2.209-0.168,2.209-0.168v2.259c-0.182,0-1.771-0.513-2.209-0.949c-0.054,0.008-0.112,0.019-0.17,0.029	c-1.723,0.282-2.846,0.812-3.352,2.352c-0.505,1.543,0.014,2.101,0.821,3.184c-0.688,1.217-2.473,1.676-0.141,4.375	c-0.166,1.017,0.047,2.643,1.528,3.136c0.484,0.164,0.889,0.247,1.312,0.322c0.878,0,2.209,0.732,2.209,2.555v17.382	c0.799,0.046,1.667,0.154,2.455,0.223V86.605c0.908,0.087,3.264,0.41,6.013,1.544c0.032,0.017,0.057,0.033,0.083,0.052	c-0.002-0.002-0.005-0.002-0.005-0.005c0.251,0.031,0.506,0.086,0.759,0.161c1.831,0.562,2.971,2.151,2.542,3.559	c-0.427,1.403-2.265,2.088-4.092,1.526c2.17,4.167,9.708,2.128,11.351-1.263c0.8-0.071,1.512,1.365,2.182,2.72	c0,0,1.888,0.724,6.562,0.724c0,0-18.929,12.085-24.402,12.085c-2.339,0-7.527,0-7.527,1.769c-1.426,0-3.48,2.423-3.48,3.809	c1.348-1.053,2.445-1.053,2.445-1.053c1.149,0,1.796,0.344,1.796,0.344c-0.421,0.416-2.31,2.549-2.31,4.202	c1.582-1.584,2.272-1.577,2.272-1.577s1.652-0.214,2.241,0.38c-0.397,0.396-1.095,1.828-1.095,3.522c0,0,0.981-1.894,2.208-1.894	v18.169c0,0.556-2.507,1.088-3.54,1.088 M71.831,83.791c-0.468,0.018-0.688-0.589-0.692-0.809c-0.011-0.222,0.164-0.84,0.629-0.857	c1.109-0.038,3.327,0.494,3.335,0.712C75.112,83.053,72.939,83.75,71.831,83.791L71.831,83.791z M71.116,80.792	c-0.644-0.045-0.855-0.915-0.833-1.221c0.02-0.299,0.357-1.13,1.001-1.082c1.534,0.114,4.51,1.185,4.484,1.486	C75.749,80.282,72.648,80.905,71.116,80.792z M70.852,76.95c-0.681-0.18-0.736-1.154-0.655-1.477	c0.086-0.321,0.612-1.143,1.296-0.965c1.623,0.425,4.604,2.17,4.521,2.49C75.93,77.319,72.476,77.375,70.852,76.95L70.852,76.95z M75.879,66.124c0.282-0.673,0.222-1.591,0.047-2.455c-0.029,0-0.058,0.002-0.087,0.002c-1.953,0-3.535-1.583-3.535-3.533	c-0.029-0.333,0.018-0.657,0.13-0.954h0.002c0-0.007,0.004-0.014,0.007-0.016c0.423-1.479,1.779-2.566,3.396-2.566	c1.947,0,3.533,1.583,3.533,3.537C79.372,62.391,77.786,64.465,75.879,66.124L75.879,66.124z"/><path id="path3469" fill="#ED1C24" d="M128.918,69.21c0.944,1.583,2.742,2.573,4.705,2.39c2.719-0.254,4.711-2.664,4.462-5.383	c-0.01-0.096-0.028-0.189-0.04-0.285c-0.289,1.405-1.954,2.6-4.06,2.794c-1.602,0.15-3.044-0.309-3.896-1.113	C129.68,68.176,129.268,68.732,128.918,69.21"/><path id="path3471" fill="#FFFFFF" d="M122.318,60.045l1.707,0.09l-0.854,1.171C123.171,61.307,122.031,61.667,122.318,60.045 M118.247,60.045h2.459c0,0-0.089,1.983,1.707,2.162l-0.382,0.632C122.031,62.839,117.206,61.578,118.247,60.045z"/><path id="path3473" fill="#6A7AB5" d="M76.014,76.999c0.085-0.32-2.897-2.065-4.521-2.49c-0.685-0.177-1.21,0.645-1.295,0.966	c-0.083,0.322-0.027,1.297,0.653,1.477C72.476,77.375,75.931,77.319,76.014,76.999 M75.769,79.976	c0.025-0.302-2.95-1.372-4.484-1.486c-0.644-0.048-0.981,0.783-1.001,1.082c-0.021,0.307,0.189,1.175,0.834,1.221	C72.649,80.905,75.75,80.283,75.769,79.976z M72.391,70.998v1.141c0.437,0.438,2.027,0.949,2.208,0.949v-2.259	C74.6,70.83,73.404,71.081,72.391,70.998z M71.769,82.124c-0.466,0.019-0.641,0.636-0.629,0.857c0.004,0.22,0.227,0.826,0.692,0.809	c1.107-0.04,3.28-0.737,3.271-0.955C75.095,82.618,72.877,82.085,71.769,82.124z M69.486,112.23	c-1.835,2.377-0.514,4.546-0.514,4.546c0-1.654,1.889-3.785,2.311-4.201C71.282,112.574,70.635,112.23,69.486,112.23z M75.339,117.274c-0.282,1.468,0.448,2.896,1.711,3.553c0.269,0.139,0.561,0.249,0.867,0.31c0.131,0.03,0.254,0.046,0.382,0.061	c0.056,0.002,0.112,0.003,0.168,0.005c0,0-1.858-1.739-1.111-3.385C76.871,117.484,76.148,117.274,75.339,117.274L75.339,117.274z M71.981,68.751c-2.781-1.357-4.76-4.76-4.76-8.75c0-4.234,2.224-7.812,5.28-8.983c-4.588,1.018-7.825,5.094-7.42,9.69	C65.424,64.603,68.269,67.716,71.981,68.751z M101.517,58.986c2.953-0.556,3.954,2.069,3.954,3.01c0,3.559-2.771,4.992-5.069,5.006	v0.002C111.061,67.003,107.305,53.201,101.517,58.986L101.517,58.986z M94.393,89.615c5.094,0,4.751-6.653,3.65-7.757	c1.634-1.633,4.998-9.126,4.998-10.51c0,0-6.724-1.45-5.649-6.115c-0.002-0.003-0.002-0.005-0.002-0.009l-0.09-0.016	c-1.833,1.933-0.718,5.965,2.188,6.971c0,0-1.121,4.433-3.891,7.245c-2.757-0.107-6.622-0.47-10.016-1.769	C90.828,80.44,96.23,84.649,94.393,89.615L94.393,89.615z M74.495,57.671c1.316-0.105,2.477,0.829,2.589,2.087	c0.108,1.252-0.872,2.359-2.191,2.464c-1.322,0.106-2.483-0.828-2.589-2.085c0,1.949,1.582,3.532,3.535,3.532	c0.029,0,0.059-0.002,0.088-0.002c0.175,0.864,0.235,1.783-0.047,2.455c1.907-1.658,3.493-3.732,3.493-5.986	c0-1.954-1.586-3.537-3.534-3.537c-1.626,0-2.988,1.095-3.404,2.583C72.743,58.365,73.524,57.75,74.495,57.671L74.495,57.671z M112.033,55.1c-2.305-2.307,1.1-6.62,2.352-6.62c-1.369,0-7.3,3.883-5.286,6.62C110.209,55.1,112.033,55.1,112.033,55.1z M82.355,93.441c1.827,0.562,3.665-0.123,4.092-1.526c0.429-1.407-0.712-2.995-2.542-3.559c-0.252-0.074-0.508-0.129-0.759-0.161	C85.789,89.703,85.758,92.726,82.355,93.441z M77.055,74.026c0,0,2.619,0.829,5.84,2.301c-0.646-0.401-1.254-0.854-1.799-1.366	c-1.635-1.545-2.936-2.388-4.041-2.816V74.026L77.055,74.026L77.055,74.026z M78.048,107.706c5.475,0,24.403-12.085,24.403-12.085	c-4.676,0-6.563-0.724-6.563-0.724c-1.056,0.551-3.222,1.638-7.838,4.356c-3.757,2.211-6.275,5.007-9.7,6.228	c-0.521,0.189-0.937,0.233-1.294,0.214c-0.788-0.067-1.656-0.176-2.455-0.223V88.092c0-1.823-1.331-2.556-2.208-2.556v20.227	c-1.48,0.785-2.209,1.761-2.609,2.672c0,0-2.822-0.376-2.742,4.849c0-1.387,2.056-3.81,3.48-3.81	C70.521,107.706,75.709,107.706,78.048,107.706z M125.264,135.688c-1.387,0-7.75,0.27-8.32-5.272	c-1.405-0.303-3.049-0.362-4.771-0.117c4.498,8.584,9.381,8.652,10.658,8.719c1.987,2.218,1.321,9.707-1.551,9.558	c-10.516-0.562-10.13,5.838-8.95,7.146c0-4.823,3.277-5.967,11.562-5.967C123.891,149.751,130.661,141.086,125.264,135.688z M127.426,156.4h-1.424c-0.12,2.299,2.154,2.976,2.154,2.976C127.426,158.645,126.893,156.938,127.426,156.4z M114.119,159.636	c-0.604-0.606-1.104-3.034-0.226-3.918h-1.566C112.196,158.205,114.119,159.636,114.119,159.636z M145.508,79.77	c0-7.343-10.071-6.188-10.568-0.551c0.444-4.133,7.173-4.743,7.173,0.434c0,5.351-12.549,8.854-12.549,17.896	c0,9.964,9.962,10.886,8.954,19.994c-0.17,1.577-1.858,3.638-4.306,3.638c-5.245,0-8.052-2.227-9.683-5.372	c1.667,4.453,4.602,7.866,10.707,7.866c6.327,0,6.901-4.676,6.901-5.762c0-9.12-9.525-11.289-9.525-19.956	C132.615,89.519,145.508,86.042,145.508,79.77z M71.244,115.199c0,2.812,1.146,3.901,1.146,3.901c0-1.694,0.697-3.128,1.095-3.522	C72.897,114.986,71.244,115.199,71.244,115.199z M144.016,99.657c-2.557,0-4.649,1.955-4.87,4.451	c0.116-0.599,0.517-1.181,1.295-1.764c2.93-2.177,8.669,2.208,5.396,6.739c1.799-0.724,3.062-2.479,3.062-4.536	C148.9,101.849,146.713,99.657,144.016,99.657z M121.611,156.4h-1.707c-0.176,3.248,1.903,3.736,1.903,3.736	C120.926,159.258,120.778,157.232,121.611,156.4z M73.372,139.078c-0.265,0-0.511,0.055-0.745,0.145	c-0.812,0.617-1.308,1.577-1.277,2.63c0.271,0.866,1.068,1.491,2.022,1.491c1.178,0,2.132-0.954,2.132-2.131	C75.504,140.033,74.55,139.078,73.372,139.078z M85.368,154.85H82.9c-0.021,3.956,2.538,4.674,2.538,4.674	C84.715,158.797,83.8,156.417,85.368,154.85L85.368,154.85z M93.022,129.833c0-9.048,21.67-10.11,21.67-17.565	c0-3.035-2.62-4.406-4.482-4.406c0.526,0.528,3.346,6.591-4.748,6.591c-7.319,2.448-23.258,16.304-12.194,21.105	c-0.005,1.394-0.192,11.761-6.837,10.946c-9.572-1.186-11.96,2.771-10.123,7.226c0-6.757,4.745-5.501,10.941-5.501	c3.875,0,9.54-4.899,9.54-13.15C96.788,135.077,93.022,133.633,93.022,129.833z M74.6,135.379v-18.17	c-1.228,0-2.208,1.895-2.208,1.895v15.501v-0.1l-1.342,0.004l0.011,1.958C72.093,136.466,74.6,135.933,74.6,135.379L74.6,135.379z M78.33,158.791c0,0-1.916-3.01,0.137-5.062h-2.16C75.439,157.488,78.33,158.791,78.33,158.791z M91.689,154.889	c0,0-1.031,0-1.792,0c-0.014,2.793,3.23,3.851,3.23,3.851C91.985,157.601,91.202,155.369,91.689,154.889z"/><line id="line3475" fill="none" x1="179.756" y1="83.968" x2="179.756" y2="83.968"/><path id="path3477" fill="#FFFFFF" d="M31.431,124.725l-0.119-0.367l-0.051-0.381c-0.175-1.307-0.491-3.741-2.37-4.177	c-0.502-0.116-1.021-0.057-1.576,0.171c0.151-0.578,0.134-1.102-0.048-1.581c-0.692-1.802-3.145-1.778-4.463-1.762h-0.387	l-0.382-0.07c-1.294-0.238-3.708-0.688-4.699,0.964c-0.267,0.441-0.372,0.953-0.327,1.549c-0.501-0.323-1.007-0.469-1.517-0.443	c-1.93,0.103-2.666,2.441-3.061,3.702l-0.121,0.364l-0.179,0.341c-0.632,1.16-1.804,3.312-0.538,4.769	c0.338,0.39,0.793,0.65,1.374,0.788c-0.459,0.38-0.756,0.813-0.885,1.312c-0.504,1.86,1.496,3.283,2.566,4.047l0.314,0.23	l0.271,0.273c0.907,0.961,2.594,2.736,4.369,1.984c0.471-0.202,0.859-0.553,1.171-1.062c0.223,0.555,0.542,0.967,0.973,1.25	c1.616,1.048,3.586-0.412,4.646-1.191l0.313-0.229l0.348-0.171c1.19-0.569,3.406-1.622,3.239-3.544	c-0.044-0.517-0.26-0.988-0.646-1.441c0.595-0.035,1.084-0.216,1.483-0.539C32.632,128.299,31.851,125.975,31.431,124.725"/><path id="path3479" fill="#ED1C24" d="M22.983,126.283c10.789,6.377,7.467-0.637,7.229-1.674	C29.973,123.577,29.882,115.82,22.983,126.283"/><path id="path3481" fill="#ED1C24" d="M22.305,127.879c-2.729,12.227,2.912,6.904,3.822,6.361	C27.036,133.693,34.385,131.209,22.305,127.879"/><path id="path3483" fill="#ED1C24" d="M20.573,127.73c-12.478,1.179-5.668,4.901-4.867,5.598	C16.508,134.021,21.138,140.245,20.573,127.73"/><path id="path3485" fill="#ED1C24" d="M20.181,126.033c-4.979-11.5-6.416-3.874-6.831-2.896	C12.936,124.109,8.447,130.441,20.181,126.033"/><path id="path3487" fill="#FFFFFF" d="M198.388,123.035l-0.179-0.341l-0.121-0.365c-0.396-1.261-1.133-3.601-3.055-3.702	c-0.517-0.024-1.021,0.119-1.521,0.438c0.046-0.592-0.064-1.103-0.325-1.544c-0.995-1.653-3.405-1.203-4.7-0.965l-0.386,0.07h-0.386	c-1.312-0.018-3.767-0.04-4.457,1.762c-0.188,0.479-0.202,1.004-0.055,1.581c-0.546-0.227-1.065-0.286-1.571-0.17	c-1.877,0.434-2.199,2.869-2.365,4.176l-0.059,0.381l-0.116,0.367c-0.422,1.25-1.2,3.574,0.301,4.789	c0.398,0.322,0.886,0.502,1.483,0.538c-0.387,0.453-0.603,0.927-0.646,1.442c-0.166,1.922,2.047,2.974,3.239,3.543l0.345,0.171	l0.312,0.229c1.062,0.78,3.034,2.238,4.646,1.191c0.437-0.284,0.753-0.695,0.974-1.251c0.313,0.509,0.698,0.858,1.174,1.062	c1.773,0.752,3.463-1.023,4.369-1.983l0.271-0.273l0.311-0.231c1.073-0.763,3.071-2.187,2.57-4.046	c-0.135-0.498-0.425-0.934-0.888-1.312c0.578-0.138,1.035-0.398,1.371-0.788C200.193,126.346,199.023,124.195,198.388,123.035"/><path id="path3489" fill="#ED1C24" d="M188.85,125.141c-9.395-8.288-1.702-7.299-0.645-7.393	C189.258,117.66,196.667,115.347,188.85,125.141"/><path id="path3491" fill="#ED1C24" d="M187.542,126.283c-10.788,6.377-7.474-0.637-7.23-1.674	C180.548,123.577,180.637,115.82,187.542,126.283"/><path id="path3493" fill="#ED1C24" d="M188.218,127.879c2.731,12.227-2.911,6.904-3.823,6.361	C183.486,133.693,176.141,131.209,188.218,127.879"/><path id="path3495" fill="#ED1C24" d="M189.948,127.73c12.477,1.179,5.672,4.901,4.868,5.598	C194.02,134.021,189.383,140.245,189.948,127.73"/><path id="path3497" fill="#ED1C24" d="M190.336,126.033c4.981-11.5,6.416-3.874,6.832-2.896	C197.581,124.109,202.07,130.441,190.336,126.033"/><path id="path3499" fill="#FFFFFF" d="M192.76,126.392c-0.012-0.101-0.044-0.188-0.058-0.286c1.002-0.735,2.084-1.523,2.084-1.523	l-0.104-0.233c0,0-1.262,0.221-2.473,0.433c-0.607-0.996-1.646-1.673-2.83-1.787c-0.377-1.134-0.754-2.286-0.754-2.286l-0.254,0.021	c0,0-0.17,1.202-0.343,2.38c-0.729,0.197-1.383,0.609-1.881,1.199c-0.266,0.318-0.457,0.679-0.608,1.055	c-1.221,0-2.51,0.005-2.51,0.005l-0.054,0.252c0,0,1.201,0.585,2.312,1.129c0.004,0.102-0.01,0.201,0,0.303	c0.085,0.979,0.543,1.854,1.28,2.496c-0.39,1.219-0.828,2.582-0.828,2.582l0.215,0.129c0,0,1.013-1.048,1.914-1.973	c0.471,0.153,0.972,0.215,1.479,0.17c0.51-0.039,0.994-0.191,1.434-0.42c1.045,0.752,2.224,1.604,2.224,1.604l0.192-0.167	c0,0-0.669-1.263-1.264-2.393C192.551,128.316,192.842,127.367,192.76,126.392"/><path id="path3501" fill="#ED1C24" d="M188.831,124.515c-0.591,0.046-1.124,0.325-1.505,0.782c-0.381,0.453-0.564,1.024-0.511,1.613	c0.104,1.219,1.183,2.124,2.396,2.017c0.596-0.055,1.124-0.333,1.51-0.784c0.377-0.457,0.561-1.024,0.51-1.617	C191.127,125.307,190.047,124.404,188.831,124.515"/><path id="path3503" fill="#ED1C24" d="M21.672,125.141c9.397-8.288,1.701-7.299,0.646-7.393	C21.261,117.66,13.853,115.347,21.672,125.141"/><path id="path3505" fill="#FFFFFF" d="M25.23,126.746c1.118-0.543,2.314-1.13,2.314-1.13l-0.057-0.251c0,0-1.286-0.005-2.509-0.005	c-0.147-0.376-0.341-0.735-0.606-1.055c-0.497-0.59-1.151-1.002-1.882-1.199c-0.167-1.179-0.339-2.38-0.339-2.38l-0.258-0.021	c0,0-0.374,1.152-0.745,2.286c-1.193,0.114-2.23,0.791-2.838,1.786c-1.206-0.211-2.476-0.432-2.476-0.432l-0.099,0.233	c0,0,1.08,0.788,2.081,1.523c-0.016,0.099-0.045,0.188-0.056,0.285c-0.083,0.981,0.215,1.926,0.832,2.688	c-0.601,1.13-1.269,2.393-1.269,2.393l0.197,0.166c0,0,1.177-0.853,2.221-1.604c0.438,0.229,0.922,0.377,1.432,0.42	c0.51,0.046,1.01-0.017,1.479-0.171c0.898,0.927,1.91,1.974,1.91,1.974l0.223-0.13c0,0-0.44-1.362-0.832-2.577	c0.736-0.646,1.193-1.522,1.28-2.5C25.246,126.947,25.23,126.848,25.23,126.746"/><path id="path3507" fill="#ED1C24" d="M23.197,125.297c-0.381-0.457-0.911-0.737-1.506-0.782c-1.214-0.11-2.294,0.792-2.399,2.011	c-0.05,0.594,0.133,1.162,0.51,1.619c0.38,0.451,0.916,0.729,1.507,0.783c1.214,0.107,2.294-0.799,2.399-2.017	C23.756,126.322,23.575,125.75,23.197,125.297"/><path id="path3509" fill="#FFFFFF" d="M23.046,73.003c-5.252-0.928-10.282,2.598-11.21,7.851	c-0.927,5.256,2.595,10.285,7.848,11.212c5.257,0.928,10.289-2.597,11.214-7.852C31.828,78.961,28.304,73.932,23.046,73.003"/><path id="path3511" fill="#ED1C24" d="M25.237,80.323c-0.085-0.053-0.232-0.148-0.412-0.268c-0.794-0.526-2.351-1.555-2.394-1.586	c-0.215-0.148-0.425-0.289-0.632-0.428c-0.692-0.464-1.312-0.867-1.892-1.203c-0.226-0.127-0.441-0.247-0.659-0.354	c-0.925-0.467-1.812-0.749-2.858-0.841c-0.807,0.583-1.507,1.305-2.074,2.139c2.406,0.868,4.756,2.261,9.648,5.299	C24.245,82.437,25.181,80.444,25.237,80.323"/><path id="path3513" fill="#ED1C24" d="M22.981,85.511c0.099-0.244,0.528-1.332,0.704-1.751c-5.014-3.114-7.342-4.492-9.753-5.345	c-0.374,0.672-0.654,1.404-0.837,2.185C14.471,82.49,18.16,84.346,22.981,85.511"/><path id="path3515" fill="#ED1C24" d="M22.438,77.597c1.877-1.11,4.011-0.808,5.657-0.246c-0.614-0.793-1.357-1.485-2.222-2.024	c-1.556-0.311-3.703-0.358-5.413,1.001C21.082,76.692,21.724,77.118,22.438,77.597"/><path id="path3517" fill="#ED1C24" d="M14.948,86.566c0.251,0.172,0.509,0.336,0.781,0.49c0.554,0.305,1.151,0.569,1.771,0.795	c0.262,0.101,0.528,0.191,0.797,0.278c0.939,0.31,3.099,0.87,3.259,0.907c0.033-0.083,0.842-2.083,1.148-2.843	c-3.738-0.927-7.831-2.55-9.775-4.659c-0.117,0.974-0.072,1.938,0.134,2.852C13.474,85.281,14.132,85.993,14.948,86.566"/><path id="path3519" fill="#ED1C24" d="M21.682,89.818l-0.78-0.2c-0.723-0.185-1.507-0.391-2.304-0.635	c0.389,0.829,1,1.475,1.652,1.975c0.874,0.116,1.735,0.094,2.564-0.049C22.217,90.442,21.682,89.818,21.682,89.818"/><path id="path3521" fill="#ED1C24" d="M29.5,80.066c-0.179-0.581-0.411-1.143-0.704-1.667c-1.475-0.656-3.718-1.299-5.678-0.34	l2.702,1.785c0.564-0.05,1.083-0.066,1.558-0.054c0.259,0.004,0.5,0.018,0.729,0.041C28.638,79.878,29.089,79.963,29.5,80.066"/><path id="path3523" fill="#ED1C24" d="M28.116,80.561c-0.079,4.443-2.174,7.87-3.979,10.015c2.825-0.982,5.053-3.417,5.609-6.562	c0.189-1.075,0.156-2.132-0.042-3.138C29.265,80.738,28.74,80.624,28.116,80.561"/><path id="path3525" fill="#ED1C24" d="M19.785,75.95c1.265-1.115,2.759-1.492,4.138-1.523c-0.35-0.112-0.707-0.208-1.078-0.271	c-1.965-0.348-3.887,0.019-5.52,0.902C18.194,75.229,18.98,75.534,19.785,75.95"/><path id="path3527" fill="#ED1C24" d="M25.925,80.565c-0.643,1.339-1.021,2.159-1.335,2.905c-0.097,0.226-0.19,0.445-0.285,0.674	c-0.15,0.374-0.612,1.537-0.612,1.537l-0.274,0.684l-1.194,2.956c0.33,0.438,0.729,0.794,1.121,1.071	c1.773-2.022,3.981-5.423,4.048-9.874C26.946,80.502,26.455,80.519,25.925,80.565"/><path id="path3529" fill="#ED1C24" d="M17.703,88.689c-0.596-0.205-1.189-0.438-1.751-0.712c0.21,0.647,0.512,1.224,0.815,1.716	c0.637,0.409,1.336,0.73,2.082,0.96C18.367,90.11,17.95,89.465,17.703,88.689"/><path id="path3531" fill="#ED1C24" d="M15.076,87.499c-0.404-0.242-0.779-0.512-1.127-0.808c0.394,0.704,0.889,1.35,1.464,1.915	C15.277,88.254,15.157,87.888,15.076,87.499"/><path id="path3533" fill="#FFFFFF" d="M178.575,84.214c0.929,5.255,5.956,8.779,11.21,7.852c5.256-0.927,8.776-5.957,7.854-11.212	c-0.928-5.252-5.957-8.777-11.213-7.851C181.17,73.932,177.648,78.961,178.575,84.214"/><path id="path3535" fill="#ED1C24" d="M184.235,80.323c0.083-0.053,0.231-0.148,0.415-0.268c0.795-0.526,2.349-1.555,2.389-1.586	c0.221-0.148,0.431-0.289,0.637-0.428c0.685-0.464,1.309-0.867,1.892-1.203c0.225-0.127,0.443-0.247,0.657-0.354	c0.923-0.467,1.813-0.749,2.858-0.841c0.807,0.583,1.51,1.305,2.068,2.139c-2.404,0.868-4.747,2.261-9.646,5.299	C185.225,82.437,184.293,80.444,184.235,80.323"/><path id="path3537" fill="#ED1C24" d="M186.492,85.511c-0.1-0.244-0.532-1.332-0.698-1.751c5.004-3.114,7.339-4.492,9.749-5.345	c0.372,0.672,0.654,1.404,0.838,2.185C195.002,82.49,191.312,84.346,186.492,85.511"/><path id="path3539" fill="#ED1C24" d="M187.035,77.597c-1.879-1.11-4.011-0.808-5.658-0.246c0.614-0.793,1.362-1.485,2.227-2.024	c1.554-0.311,3.699-0.358,5.407,1.001C188.394,76.692,187.747,77.118,187.035,77.597"/><path id="path3541" fill="#ED1C24" d="M194.521,86.566c-0.246,0.172-0.502,0.336-0.779,0.49c-0.551,0.305-1.147,0.569-1.766,0.795	c-0.265,0.101-0.533,0.191-0.801,0.278c-0.936,0.31-3.096,0.87-3.258,0.907c-0.037-0.083-0.849-2.083-1.148-2.843	c3.736-0.927,7.826-2.55,9.777-4.659c0.116,0.974,0.065,1.938-0.137,2.852C195.999,85.281,195.342,85.993,194.521,86.566"/><path id="path3543" fill="#ED1C24" d="M187.793,89.818l0.774-0.2c0.726-0.185,1.515-0.391,2.312-0.635	c-0.396,0.829-1.004,1.475-1.654,1.975c-0.872,0.116-1.737,0.094-2.562-0.049C187.255,90.442,187.793,89.818,187.793,89.818"/><path id="path3545" fill="#ED1C24" d="M179.974,80.066c0.179-0.581,0.408-1.143,0.708-1.667c1.47-0.656,3.709-1.299,5.67-0.34	l-2.7,1.785c-0.563-0.05-1.083-0.066-1.559-0.054c-0.256,0.004-0.497,0.018-0.731,0.041	C180.834,79.878,180.387,79.963,179.974,80.066"/><path id="path3547" fill="#ED1C24" d="M181.358,80.561c0.077,4.443,2.178,7.87,3.983,10.015c-2.833-0.982-5.063-3.417-5.613-6.562	c-0.188-1.075-0.162-2.132,0.044-3.138C180.208,80.738,180.736,80.624,181.358,80.561"/><path id="path3549" fill="#ED1C24" d="M189.691,75.95c-1.266-1.115-2.764-1.492-4.14-1.523c0.349-0.112,0.704-0.208,1.079-0.271	c1.963-0.348,3.885,0.019,5.517,0.902C191.281,75.229,190.494,75.534,189.691,75.95"/><path id="path3551" fill="#ED1C24" d="M183.55,80.565c0.645,1.339,1.016,2.159,1.341,2.905c0.092,0.226,0.183,0.445,0.276,0.674	c0.152,0.374,0.614,1.537,0.614,1.537l0.272,0.684l1.196,2.956c-0.331,0.438-0.729,0.794-1.12,1.071	c-1.773-2.022-3.984-5.423-4.047-9.874C182.528,80.502,183.021,80.519,183.55,80.565"/><path id="path3553" fill="#ED1C24" d="M191.771,88.689c0.597-0.205,1.187-0.438,1.752-0.712c-0.216,0.647-0.512,1.224-0.819,1.716	c-0.638,0.409-1.335,0.73-2.078,0.96C191.107,90.11,191.524,89.465,191.771,88.689"/><path id="path3555" fill="#ED1C24" d="M194.4,87.499c0.398-0.242,0.775-0.512,1.125-0.808c-0.395,0.704-0.887,1.35-1.465,1.915	C194.195,88.254,194.315,87.888,194.4,87.499"/></svg>