<?xml version="1.0" encoding="iso-8859-1"?><!-- Generator: Adobe Illustrator 16.0.0, SVG Export Plug-In . SVG Version: 6.00 Build 0) --><!DOCTYPE svg PUBLIC "-//W3C//DTD SVG 1.1//EN" "http://www.w3.org/Graphics/SVG/1.1/DTD/svg11.dtd"><svg version="1.1" id="Ebene_1" xmlns="http://www.w3.org/2000/svg" xmlns:xlink="http://www.w3.org/1999/xlink" x="0px" y="0px" width="559.078px" height="566px" viewBox="0 0 559.078 566" style="enable-background:new 0 0 559.078 566;" xml:space="preserve"	><path d="M358.605,4.713c-26.059,18.091-51.183,26.518-79.061,26.518c-27.881,0-53.005-8.427-79.066-26.518L193.689,0l-6.89,4.563	c-29.455,19.504-53.387,23.072-89.904,23.072c-12.59,0-26.127-2.376-39.145-6.872l-8.672-2.994l-5.276,7.504	c-2.806,3.991-4.891,6.526-6.906,8.977c-2.483,3.019-4.829,5.872-7.584,10.3L24.9,51.642l5.022,6.674	c22.317,29.658,30.739,60.17,30.739,88.892c0,53.56-29.285,100.889-52.35,124.822L0,280.654l8.477,8.46	c4.547,4.538,12.646,12.941,19.344,19.981c-0.02,0.273-0.269,3.691-0.269,3.691l-0.059,0.672	c-0.277,5.202-0.416,10.325-0.416,15.369c0,54.393,16.077,99.616,47.894,134.593c36.836,40.498,94.434,64.675,162.507,68.438	c16.904,15.395,34.083,28.173,34.852,28.744l7.277,5.397l7.268-5.416c0.763-0.57,17.849-13.34,34.733-28.728	c68.071-3.762,125.667-27.938,162.504-68.437c31.815-34.977,47.894-80.2,47.894-134.589c0-5.045-0.14-10.169-0.416-15.373	l-0.008-0.121l-0.061-0.667c0,0-0.24-3.303-0.258-3.574c6.2-6.518,14.562-15.211,19.342-19.983l8.474-8.46l-8.308-8.623	c-23.062-23.935-52.348-71.268-52.348-124.828c0-28.72,8.42-59.231,30.734-88.886l5.021-6.671l-4.407-7.091	c-2.756-4.432-5.102-7.285-7.585-10.306c-2.014-2.45-4.099-4.984-6.902-8.974l-5.275-7.507l-8.672,2.995	c-13.021,4.496-26.557,6.872-39.146,6.872c-36.52,0-60.453-3.568-89.905-23.072L365.394,0L358.605,4.713z"/><path style="fill:#E2B900;" d="M279.59,550.813c0,0-19.458-14.434-37.037-30.854c-115-4.768-210.16-69.259-202.889-205.854	c0.43-3.604,0.065-3.361,0.689-9.51c-6.594-6.977-17.505-18.36-23.267-24.11c41.25-42.805,89.384-140.716,22.573-229.5	c4.393-7.063,7.573-9.405,14.111-18.705c13.354,4.611,28.203,7.54,43.123,7.54c38.313,0,64.472-3.802,96.633-25.099	c25.426,17.65,52.999,28.694,86.018,28.694c33.017,0,60.588-11.044,86.012-28.694c32.16,21.296,58.319,25.099,96.635,25.099	c14.916,0,29.769-2.928,43.123-7.54c6.537,9.299,9.717,11.642,14.107,18.705c-66.808,88.784-18.671,186.695,22.575,229.5	c-5.761,5.75-16.674,17.133-23.267,24.11c0.621,6.148,0.26,5.906,0.689,9.51c7.271,136.595-87.893,201.084-202.886,205.854	C298.952,536.38,279.59,550.813,279.59,550.813L279.59,550.813z"/><path d="M61.478,305.958h-1.623l-0.692,5.877l-0.499,3.783c-2.684,52.618,10.435,95.126,38.984,126.439	c32.746,35.92,85.798,56.385,153.421,59.187c0.066,0.002,1.136,0.008,1.136,0.008c20.29,0.11,39.453,0.214,55.757-0.006	c67.674-2.803,120.726-23.269,153.471-59.188c28.55-31.312,41.668-73.819,38.992-126.343c-0.007-0.095-0.509-3.896-0.509-3.896	l-0.686-5.791l-1.63-0.069H61.478z"/><path style="fill:#004B95;" d="M63.1,309.61c-0.154,1.309-0.329,2.789-0.329,2.789s-0.462,3.505-0.467,3.505	c-0.224,4.385-0.336,8.698-0.336,12.939c0,45.576,12.885,82.788,38.38,110.753c6.093,6.685,12.916,12.819,20.421,18.395V309.61	C86.349,309.61,63.828,309.61,63.1,309.61z"/><path style="fill:#004B95;" d="M496.782,315.997l-0.475-3.616c0,0-0.173-1.469-0.328-2.771c-0.729,0-23.248,0-57.668,0v148.382	c7.507-5.575,14.33-11.71,20.422-18.395c25.5-27.97,38.384-65.19,38.384-110.707C497.116,324.666,497.007,320.367,496.782,315.997z"	/><path style="fill:#A4234B;" d="M184.278,309.61c-23.542,0-45.209,0-63.508,0v148.382c17.573,13.06,38.914,23.035,63.508,29.753	V309.61z"/><path style="fill:#A4234B;" d="M374.804,309.61v178.132c24.6-6.72,45.938-16.694,63.507-29.75V309.61	C420.013,309.61,398.345,309.61,374.804,309.61z"/><path style="fill:#004B95;" d="M218.665,401.004c0-21.983,11.655-41.242,29.122-51.942V309.61c-21.924,0-43.399,0-63.51,0v178.135	c19.253,5.26,40.502,8.516,63.51,9.681v-44.478C230.321,442.248,218.665,422.988,218.665,401.004z"/><path style="fill:#004B95;" d="M311.295,309.61v39.451c17.466,10.7,29.122,29.959,29.122,51.942s-11.656,41.244-29.122,51.944	v44.476c23.011-1.168,44.259-4.425,63.509-9.682V309.61C354.696,309.61,333.219,309.61,311.295,309.61z"/><path style="fill:#A4234B;" d="M311.295,349.062V309.61c-21.034,0-42.475,0-63.508,0v39.451c9.244-5.666,20.115-8.934,31.752-8.934	C291.177,340.128,302.05,343.397,311.295,349.062z"/><path style="fill:#A4234B;" d="M247.787,452.948v44.478c1.121,0.058,2.237,0.121,3.367,0.167l1.07,0.006	c20.272,0.109,39.419,0.213,55.637-0.004c1.151-0.048,2.289-0.113,3.434-0.171v-44.476c-9.246,5.663-20.119,8.933-31.756,8.933	C267.903,461.882,257.031,458.612,247.787,452.948z"/><path style="fill:#E2B900;" d="M248.474,412.051c-11.015-10.032-11.049-30.418-8.09-43.959c0.822-3.771,1.857-7.462,2.925-11.681	c-12.95,10.533-21.223,26.598-21.223,44.593c0,7.618,1.48,14.887,4.173,21.541c0.979,0.128,1.974,0.197,2.984,0.197	C237.751,422.742,244.698,418.812,248.474,412.051L248.474,412.051z"/><path style="fill:#E2B900;" d="M307.624,416.448c-1.885,9.629-12.183,16.844-21.887,22.631c-9.999,5.965-26.126,9.047-38.261,9.609	c9.158,6.169,20.191,9.772,32.063,9.772c21.669,0,40.536-11.997,50.318-29.706C328.144,414.58,314.669,412.915,307.624,416.448	L307.624,416.448z"/><path style="fill:#E2B900;" d="M243.021,445.36c11.986,0.093,30.407-2.922,40.966-9.219c13.648-8.144,24.251-16.833,19.213-28.879	c-2.546-6.087-11.01-13.132-21.983-5.361c-0.701,8.992-11.801,16.923-19.771,15.901c-4.038-0.518-7.422-1.792-10.241-3.637	c-4.479,7.653-12.498,11.997-21.959,11.997c-0.466,0-0.931-0.013-1.39-0.039C231.484,433.583,236.682,440.137,243.021,445.36	L243.021,445.36z"/><path style="fill:#E2B900;" d="M279.392,365.199c9.503-3.94,22.675,1.181,32.711,6.784c9.475,5.294,19.368,15.173,24.79,25.548	c-1.786-29.957-26.517-53.725-56.857-53.981C270.97,349.504,272.208,360.728,279.392,365.199L279.392,365.199z"/><path style="fill:#E2B900;" d="M277.785,401.858c-11.765-8.581-11.042-22.083-5.98-30.104c1.242-1.968,2.688-3.515,4.294-4.699	c-6.84-5.46-8.209-16.054-1.583-23.292c-9.902,0.861-19.088,4.228-26.915,9.475c-2.509,10.79-5.703,20.644-5.543,31.914	c0.215,15.188,6.502,27.552,19.822,29.26C268.096,415.208,277.065,408.594,277.785,401.858L277.785,401.858z"/><path style="fill:#E2B900;" d="M336.757,406.288c-3.279-11.887-15.065-25.028-26.322-31.316	c-13.879-7.754-29.062-11.97-35.738-1.389c-4.285,6.79-4.881,18.006,4.84,25.316c13.214-9.127,23.769-0.252,26.817,7.046	c0.979,2.337,1.475,4.56,1.562,6.675c7.799-2.744,20.475-0.977,24.378,11.195C334.653,418.36,336.196,412.465,336.757,406.288	L336.757,406.288z"/><path d="M227.165,239.72h-40.162v56.47h12.237c0,0,0-22.18,0-23.298c1.098,0,16.664,0,16.664,0v-11.923c0,0-15.565,0-16.664,0	c0-0.986,0-8.261,0-9.247c1.131,0,28.514,0,28.514,0v-12L227.165,239.72L227.165,239.72z"/><path d="M250.521,267.954c0,17.681,9.718,29.104,24.758,29.104c9.805,0,16.867-4.312,20.988-12.812l0.236-0.488l-10.292-6.104	l-0.301,0.504c-2.936,4.915-5.73,6.742-10.314,6.742c-7.489,0-12.522-6.811-12.522-16.946c0-10.452,4.769-16.945,12.444-16.945	c4.458,0,7.592,1.86,9.584,5.688l0.26,0.499l11.328-5.227l-0.262-0.54c-3.979-8.228-11.155-12.577-20.754-12.577	C260.864,238.851,250.521,250.819,250.521,267.954z"/><path d="M364.759,265.606c3.42-2.425,5.427-6.231,5.427-10.685c0-9.518-6.777-15.201-18.126-15.201h-25.353h-0.591v56.47h25.705	c12.686,0,20.257-6.894,20.257-18.44C372.078,272.342,369.377,268.01,364.759,265.606z M338.115,251.09c1.082,0,13.471,0,13.471,0	c5.496,0,6.2,2.512,6.2,4.701c0,3.112-1.847,4.625-5.647,4.625c0,0-12.938,0-14.023,0	C338.115,259.427,338.115,252.078,338.115,251.09z M352.216,284.506c0,0-13.013,0-14.101,0c0-1.036,0-12.081,0-13.117	c1.088,0,14.101,0,14.101,0c4.988,0,7.311,2.072,7.311,6.519C359.527,282.224,357,284.506,352.216,284.506z"/><path d="M364.925,37.842c-27.359,16.55-55.29,24.606-85.388,24.628c-30.095-0.021-58.023-8.078-85.383-24.628l-0.914-0.553	l-0.929,0.526c-31.167,17.613-58.589,21.058-95.423,21.058c-8.852,0-17.984-0.889-27.146-2.643l-3.948-0.756l2.028,3.471	c37.842,64.758,24.408,127.366,6.476,168.486l-1.115,2.557h412.715l-1.117-2.557c-17.931-41.12-31.365-103.728,6.475-168.486	l2.028-3.471l-3.946,0.756c-9.161,1.754-18.295,2.643-27.146,2.643c-36.834,0-64.257-3.445-95.423-21.058l-0.93-0.526	L364.925,37.842z"/><path style="fill:#FFFFFF;" d="M152.957,57.315c-17.286,4.101-35.198,5.211-56.068,5.211c-7.893,0-16.01-0.817-24.159-2.178	c9.669,17.289,15.821,34.397,19.311,50.979c22.415,0,59.98,0,60.917,0C152.957,110.542,152.957,81.344,152.957,57.315z"/><path style="fill:#FFFFFF;" d="M277.715,111.327V66.091c-21.855-0.249-42.595-4.685-62.809-13.438c0,24.731,0,57.837,0,58.674	C215.528,111.327,245.547,111.327,277.715,111.327z"/><path style="fill:#FFFFFF;" d="M93.769,173.277c-2.877,19.829-8.618,37.803-15.066,53.057c1.452,0,31.356,0,74.255,0	c0-22.707,0-52.237,0-53.057C152.044,173.277,116.332,173.277,93.769,173.277z"/><path style="fill:#FFFFFF;" d="M214.906,226.334c20.272,0,41.526,0,62.809,0v-53.057c-32.167,0-62.188,0-62.809,0	C214.906,174.097,214.906,203.627,214.906,226.334z"/><path style="fill:#DB2F36;" d="M214.906,111.327c0-0.836,0-33.943,0-58.674c-7.304-3.162-14.542-6.873-21.734-11.175	c-13.754,7.668-26.795,12.653-40.214,15.836c0,24.029,0,53.228,0,54.012c-0.937,0-38.502,0-60.917,0	c2.55,12.129,3.683,23.978,3.683,35.4c0,9.151-0.716,18.02-1.954,26.55c22.563,0,58.275,0,59.188,0c0,0.82,0,30.35,0,53.057	c18.622,0,39.693,0,61.949,0c0-22.707,0-52.237,0-53.057c0.621,0,30.642,0,62.809,0v-61.95	C245.547,111.327,215.528,111.327,214.906,111.327z"/><path style="fill:#FFDF00;" d="M365.906,41.478c-0.028,0.017-0.059,0.034-0.088,0.051v184.804c7.476,0,14.75,0,21.777,0V51.614	C380.461,48.909,373.287,45.592,365.906,41.478z"/><path style="fill:#FFDF00;" d="M322.263,60.38v165.954c7.353,0,14.625,0,21.777,0V52.709	C336.857,55.812,329.607,58.364,322.263,60.38z"/><path style="fill:#FFDF00;" d="M281.365,66.091v160.243c6.386,0,12.767,0,19.12,0V64.747	C294.198,65.555,287.834,66.017,281.365,66.091z"/><path style="fill:#FFDF00;" d="M409.376,58.023v168.311c7.744,0,15.029,0,21.776,0V61.296	C423.662,60.601,416.453,59.544,409.376,58.023z"/><path style="fill:#FFDF00;" d="M463.357,146.727c0-27.036,6.251-56.444,22.994-86.379c-8.149,1.36-16.268,2.178-24.159,2.178	c-3.16,0-6.229-0.037-9.261-0.095v163.903c16.508,0,26.617,0,27.447,0C471.155,204.516,463.357,177.15,463.357,146.727z"/><path style="fill:#DB2F36;" d="M431.153,61.296v165.038c8.097,0,15.416,0,21.777,0V62.431	C445.343,62.287,438.119,61.942,431.153,61.296z"/><path style="fill:#DB2F36;" d="M300.486,64.747v161.587c7.311,0,14.582,0,21.777,0V60.38	C315.101,62.346,307.849,63.8,300.486,64.747z"/><path style="fill:#DB2F36;" d="M344.041,52.709v173.625c7.404,0,14.68,0,21.777,0V41.529	C358.612,45.835,351.359,49.548,344.041,52.709z"/><path style="fill:#DB2F36;" d="M387.596,51.614v174.72c7.574,0,14.858,0,21.779,0V58.023	C402.039,56.446,394.832,54.357,387.596,51.614z"/></svg>