<?xml version="1.0" encoding="UTF-8"?>
<!DOCTYPE svg PUBLIC "-//W3C//DTD SVG 1.1//EN" "http://www.w3.org/Graphics/SVG/1.1/DTD/svg11.dtd">
<!-- Creator: CorelDRAW -->
<svg xmlns="http://www.w3.org/2000/svg" xml:space="preserve" width="2088px" height="3407px" shape-rendering="geometricPrecision" text-rendering="geometricPrecision" image-rendering="optimizeQuality" fill-rule="evenodd" clip-rule="evenodd"
viewBox="0 0 2174.08 3547.71"
 xmlns:xlink="http://www.w3.org/1999/xlink">
 <g id="Ebene_x0020_1">
  <metadata id="CorelCorpID_0Corel-Layer"/>
  <path fill="#1F1A17" d="M1087.04 0c600.256,0 1087.04,794.356 1087.04,1773.86 0,979.507 -486.787,1773.86 -1087.04,1773.86 -600.25,0 -1087.04,-794.35 -1087.04,-1773.86 0,-979.501 486.787,-1773.86 1087.04,-1773.86z"/>
  <path fill="white" d="M1087.04 136.639c564.19,0 1021.72,723.974 1021.72,1616.7 0,892.725 -457.535,1616.7 -1021.72,1616.7 -564.184,0 -1021.72,-723.974 -1021.72,-1616.7 0,-892.731 457.535,-1616.7 1021.72,-1616.7z"/>
  <path fill="#1F1A17" d="M1087.03 187.41c63.1489,0 124.857,9.80849 184.652,28.3248l0 569.379c-63.0972,-4.68658 -127.471,-7.10673 -192.858,-7.10673 -59.7326,0 -118.591,2.04876 -176.442,5.95691l0 -568.229c59.7966,-18.5163 121.498,-28.3248 184.648,-28.3248zm454.209 182.199c151.247,129.388 278.736,321.171 369.294,554.01l0 0.852217c-108.428,-42.4178 -227.705,-76.7561 -355.023,-101.516 -4.29183,-69.112 -9.03497,-136.976 -14.2712,-203.513l0 -249.834zm-1277.71 547.55c87.0737,-221.521 207.701,-405.383 350.371,-533.175l0 235.608c-5.23013,66.4914 -9.98557,134.303 -14.2651,203.37 -119.947,23.3111 -232.776,55.126 -336.105,94.1976z"/>
  <path fill="#1F1A17" d="M582.878 1526.6c-117.504,57.026 -227.855,133.456 -328.817,226.247l0 684.491c88.1214,232.679 215.999,425.416 369.3,556.413l0 -301.435c-26.3904,-319.953 -41.0331,-672.527 -41.0331,-1042.99 0,-41.1413 0.194301,-82.0489 0.549698,-122.722zm697.011 -101.196c-63.1095,-10.9866 -127.46,-16.7603 -192.858,-16.7603 -59.7339,0 -118.591,4.85259 -176.442,14.0364l0 652.534c56.1799,-27.8957 115.324,-42.8531 176.442,-42.8531 67.0915,0 131.837,18.0134 192.858,51.4011l0 -658.358zm640.111 327.443c-100.961,-92.7957 -211.307,-169.198 -328.811,-226.247 0.354168,40.6728 0.549698,81.5804 0.549698,122.722 0,370.519 -14.6377,723.15 -41.0343,1043.14l0 315.003c151.247,-123.415 278.736,-306.352 369.295,-528.432l0 -726.182z"/>
  <path fill="#F5B400" d="M1073.5 1305.18c355.641,0 697.383,80.2805 974.866,217.4 3.86142,54.2344 5.92248,109.321 5.92248,165.141 0,20.7422 -0.361547,41.3479 -0.905096,61.8847 -278.42,-238.487 -621.725,-378.221 -979.883,-378.221 -358.154,0 -680.154,131.042 -953.38,355.933 -0.217666,-13.1608 -0.3431,-26.3511 -0.3431,-39.5967 0,-60.4828 2.40908,-120.107 6.93456,-178.709 271.921,-128.821 591.152,-203.832 946.788,-203.832z"/>
  <path fill="#1F1A17" d="M1289.53 2479.06l-202.499 0 -202.5 0c-47.7401,0 -86.7933,35.3283 -86.7933,78.5245l0 134.997c0,194.454 68.8033,305.617 289.294,489.046 220.495,-183.428 289.293,-294.592 289.293,-489.046l0 -134.997c0,-43.1962 -39.0483,-78.5245 -86.7933,-78.5245z"/>
  <path fill="white" d="M952.733 2525.45c0,0 15.244,24.0441 11.2092,26.7385 -6.11063,4.00653 -26.1556,-8.63408 -26.1556,-8.63408 0,0 13.1952,28.5708 20.7717,39.8771 3.06085,4.4517 10.0532,7.70192 12.1708,13.5039 8.50864,22.7 -18.9,57.6568 6.88906,73.3976 8.49142,5.25964 19.3636,2.34636 29.0516,-2.50008 0,0 3.03871,-1.73887 4.80094,-0.806716 4.72593,2.3808 -0.657916,14.013 -1.33305,15.7986 -10.6841,24.6393 -19.9195,11.7072 -31.7817,1.28755 -24.0613,-21.1542 -25.8346,8.7841 -33.3533,11.4896 -27.2377,9.63632 -24.199,-1.5335 -33.1258,2.44351 -5.62488,2.35251 -6.52382,13.8359 -8.17169,19.387 -3.34738,11.2043 -11.2719,39.9288 13.5617,31.2885 14.4938,-5.04075 18.9,-41.2225 32.9647,-22.8537 16.9263,22.1207 -5.93354,44.5809 17.0874,70.8398 6.30001,7.18051 13.6121,10.4935 20.9881,2.94033 2.60338,-2.65995 5.36171,-6.51153 6.40823,-10.0815 1.17933,-4.15533 1.6823,-10.9866 -0.377533,-17.155 -4.71978,-13.6416 -16.3766,-14.2602 -12.2852,-33.1491 5.07026,-1.14367 5.74539,-1.44127 10.8378,1.397 8.74967,4.85259 21.7444,7.79907 28.8401,14.7742 11.5523,11.2325 20.8676,24.0441 35.3676,32.0153 4.34348,9.39529 -5.70481,21.3546 -8.99439,26.5626 -5.72203,9.12598 -13.5223,21.0853 -15.6904,32.2317 -4.24018,20.8516 15.7642,42.253 -7.10673,49.554 -26.511,8.35369 -69.9076,1.69951 -72.6364,30.4363 -0.555847,5.34941 -1.77453,14.1102 2.40908,19.2776 3.3646,4.0508 12.6627,7.49533 18.4991,7.52484 22.2991,-0.206598 2.46073,-24.1941 20.3302,-29.7895 8.75582,-2.66733 18.9689,3.2158 26.0129,3.78763 7.75972,0.58905 17.8301,0.0971503 24.5544,-0.1488 26.7102,-0.864514 30.9848,-11.6273 44.2083,-19.8211 17.2694,-10.7923 32.6794,19.0082 38.8072,30.2064 4.83046,9.17885 17.476,13.2985 21.1947,23.3985 4.05695,11.0149 4.40619,27.9129 3.10143,37.1987 -1.17318,7.9491 -9.31536,6.79806 -12.5877,12.8238 -5.33343,9.78512 -7.28996,51.1674 8.92061,56.6952 12.857,4.2451 35.0024,-10.689 30.5212,-22.529 -1.31583,-3.7077 -7.54206,-6.55088 -8.31926,-10.7911 -5.42443,-27.9362 41.948,-51.5683 43.1901,-58.2397 2.04876,-10.6152 -15.7642,-9.02391 -11.856,-31.5689 2.68331,-16.4393 19.6096,-27.5353 27.3349,-40.7699 4.15901,-7.06737 2.5628,-20.3708 7.73636,-26.7569 4.3029,-5.28793 11.7244,-7.16944 15.0091,-13.1891 17.915,-33.2057 -2.8272,-84.9684 -16.0224,-121.83 -3.80485,-10.6951 -24.29,-53.7364 -10.8489,-58.8411 3.39903,-1.3269 5.56216,0.269315 7.42154,0.377533 7.77079,8.21227 2.7239,20.8234 6.73411,30.0071 5.46501,12.3651 21.4874,18.0244 32.72,23.0541 -1.19655,0.98503 2.40908,0.389831 2.5173,0.429183 -3.22686,-7.14116 -6.00241,-12.5533 -6.14014,-21.0804 -0.319735,-23.5054 -3.7532,-42.0341 -18.8029,-52.5398 -7.57526,-5.26456 -20.8221,-9.35594 -31.7116,-3.58226 -44.6498,23.364 -0.668984,96.1947 10.7406,135.036 5.08133,17.0751 -6.86078,27.1455 -20.9316,20.8111 -11.4502,-5.15511 -17.401,-32.4039 -20.9316,-45.593 -14.013,-52.7243 -33.555,-147.711 -57.9876,-175.314 -22.3913,-25.43 -81.7747,-37.4914 -121.573,-44.742 -6.40208,-1.1781 -16.6225,-2.50623 -23.0086,-5.06903 -5.20061,-2.10656 -31.1791,-19.2148 -31.1791,-19.2148z"/>
  <path fill="#1F1A17" d="M1856.91 1294.68l0.0467305 -0.0516495 -0.0122975 -0.0172165 -0.034433 0.068866zm-0.0799338 -203.627l70.3024 23.5571 0 -6.10571c0,-14.436 -0.623483,-26.9623 -1.89996,-37.5246 -1.24205,-10.3631 -3.08421,-18.8029 -5.51543,-25.2689 -2.41523,-6.42667 -6.12293,-12.8411 -11.1182,-19.2382 -5.07026,-6.50046 -11.5191,-13.012 -19.3292,-19.5235l0.004919 -0.00614875c-11.1526,-9.28707 -24.0957,-17.2005 -38.7728,-23.701 -2.95878,-1.31091 -5.89911,-2.5296 -8.80009,-3.65113 -2.96493,-1.14367 -6.02578,-2.24798 -9.16779,-3.3068l-0.125435 -0.0405818 -0.0455008 -0.0221355c-14.4889,-4.85259 -27.3804,-7.36497 -38.6301,-7.57034 -2.08935,-0.034433 -4.21804,0.0172165 -6.35166,0.1488 -1.96268,0.119286 -3.94873,0.3431 -5.91633,0.6407l-0.263167 0.039352 0 -0.0172165c-6.63204,1.07603 -12.3196,3.07315 -17.0357,5.96306 -4.57098,2.80998 -8.26269,6.51153 -11.0432,11.0899l0 0.0282843c-2.90713,4.72593 -5.12683,11.6162 -6.65541,20.6168 -1.59007,9.41251 -2.39678,21.0398 -2.39678,34.8413 0,9.55024 0.560766,18.4032 1.6823,26.5282l0 0.0172165c1.10432,8.02289 2.78661,15.4272 5.0346,22.1736l0 0.0282843c3.19981,9.72732 7.03909,18.3331 11.433,25.7387 0.83623,1.40683 1.71673,2.8149 2.60953,4.1541l0 0.0282843c0.7895,1.19532 1.7278,2.51238 2.7239,3.86264l-4.72593 3.71876 4.75421 -3.67326 0.00614875 0.0110678 0.00614875 -0.004919c3.46175,4.61156 8.79394,10.9571 16.004,19.0427 7.28996,8.18276 16.4172,18.0478 27.3582,29.6062l-0.00614875 0.00614875c11.1637,11.6839 20.1937,21.4579 27.0311,29.2681l-0.0172165 0.0110678c7.11287,8.10897 12.1598,14.4323 15.1124,18.9578l0.0172165 0.0233653c2.67717,4.16516 4.76036,9.54409 6.23729,16.0851 0.24595,1.05267 0.502968,2.34021 0.766134,3.80977l0.00614875 0c1.41913,7.83474 2.13977,17.3788 2.15698,28.5831l0.0233653 0 0 0.325884c0,7.74128 -0.853447,14.0192 -2.55788,18.8029 -0.377533,1.06373 -0.801797,2.05368 -1.24205,2.94033l-0.00614875 0c-0.416885,0.864514 -0.960435,1.72903 -1.5335,2.56403l0.0122975 0.0172165 -0.0811635 0.114367 -4.86366 -3.53061 4.81816 3.58226c-2.29963,3.28958 -5.29284,5.37893 -8.93167,6.24221 -3.25638,0.773513 -6.87799,0.486981 -10.8439,-0.841149l-0.0221355 0c-5.24242,-1.74502 -9.4248,-4.4972 -12.5262,-8.12496l0 -0.0233653c-0.617335,-0.720634 -1.20761,-1.49907 -1.7278,-2.28242 -0.515265,-0.772283 -1.01331,-1.61958 -1.45356,-2.4718l-0.0627173 -0.1488 -0.0516495 -0.0971503c-2.73005,-5.64824 -4.10859,-15.8281 -4.10859,-30.6085l0 -40.4772 -70.2962 -23.5645 0 15.6904c0,13.6355 0.634551,25.8924 1.89382,36.7363 1.24205,10.7345 3.1125,20.1298 5.57938,28.181l-0.0172165 0.00614875c2.39186,7.75357 6.16228,15.4088 11.3186,22.9398 5.24119,7.66134 11.8905,15.18 19.9121,22.5216l0.029514 0c11.5806,10.6091 24.9135,19.4153 39.957,26.356 2.75833,1.27648 5.77368,2.5751 9.03005,3.85773 3.16415,1.25312 6.31108,2.40908 9.40636,3.4556l0 -0.00614875 0.120516 0.0405818 0.0516495 0.0172165c10.4197,3.49003 20.1593,5.73924 29.1881,6.72919 8.86896,0.9838 17.1378,0.766134 24.7536,-0.612416 10.443,-1.90488 18.3688,-5.48223 23.7182,-10.6779l0.00614875 0.0172165c0.955516,-0.938299 1.88275,-1.9799 2.71775,-3.07806l0 -0.0282843c0.847298,-1.11046 1.5913,-2.25536 2.20371,-3.38181l0.0172165 -0.0750148 0.0799338 -0.136502 0.004919 0.004919c1.60236,-3.0092 2.99321,-6.88291 4.12581,-11.5756 0.59028,-2.4718 1.11661,-5.1379 1.55071,-7.94787 1.37978,-8.86896 2.08935,-19.6723 2.10041,-32.3646l-0.0282843 0 0 -0.371385c0,-17.7564 -1.2359,-33.4344 -3.71999,-46.9961 -2.43736,-13.3502 -6.08234,-24.6909 -10.9177,-33.978 -4.92638,-9.45801 -13.4522,-21.298 -25.5382,-35.4943 -12.2446,-14.3733 -28.1748,-31.168 -47.8016,-50.3718 -7.01572,-6.89521 -12.7095,-13.0231 -17.0357,-18.3565 -4.50826,-5.56216 -7.65519,-10.448 -9.38422,-14.6254 -1.45848,-3.45683 -2.6083,-7.34776 -3.42116,-11.6568l0 -0.0676363 -0.405818 -2.34021 -0.0233653 -0.0922313c-0.801797,-5.12068 -1.21868,-10.946 -1.22975,-17.3837l0 -0.325884c0,-7.57034 0.811635,-13.6478 2.42015,-18.1622l0.0110678 0.00614875c0.366466,-1.0539 0.772283,-1.9799 1.16211,-2.7694 0.479603,-0.978881 1.01208,-1.85446 1.53842,-2.60953l-0.0455008 0.068866 0.0516495 -0.068866 -0.00614875 0 0.00614875 0 0.0282843 -0.0467305 0.068866 -0.0971503c2.21478,-3.11865 5.04689,-5.10961 8.46929,-5.95568 3.10143,-0.778432 6.52874,-0.544779 10.2303,0.709566 3.15923,1.04652 5.91141,2.55173 8.24547,4.47383 2.4263,2.00818 4.36684,4.4517 5.78597,7.32439l-0.0172165 0.00614875c1.14367,2.31193 2.03647,5.39614 2.64273,9.20714l0.0233653 0.119286 0.286532 1.97498 0 0.073785c0.54355,4.36561 0.841149,9.86505 0.852217,16.4393l0.0282843 0 0 0.475913 0 22.877zm-150.24 95.0498l0 -242.086 -78.4962 -20.1704 0 264.316c0,9.21821 -0.211517,16.8402 -0.629632,22.8254 -0.434102,6.28279 -1.16703,10.855 -2.16805,13.6871l-0.0455008 0.120516c-2.10041,5.63594 -6.04914,8.65129 -11.8339,8.99562l-0.0282843 0c-0.944448,0.0504198 -1.95161,0.0221355 -2.96985,-0.0922313 -1.00717,-0.108218 -1.99711,-0.303748 -2.9637,-0.537401l-0.0971503 -0.0172165 -0.154949 -0.0405818c-3.45068,-0.897718 -6.39716,-2.47795 -8.80624,-4.72593l-0.0282843 0c-2.3808,-2.23815 -4.15533,-5.08133 -5.28793,-8.50864l-0.00614875 0c-1.01208,-2.9182 -1.75608,-7.32439 -2.20248,-13.1448 -0.429183,-5.49206 -0.6407,-12.3307 -0.6407,-20.479l0 -272.15 -78.4101 -20.1531 0 210.666 -0.0282843 0c0,20.7705 0.170935,38.0399 0.514036,51.7958 0.332033,13.4707 0.864514,23.53 1.58515,30.1621l0 0.0221355c0.6407,6.18072 2.07213,12.434 4.24633,18.7684 2.20863,6.42667 5.1834,12.9148 8.88617,19.4276l-0.0110678 0.004919c3.69048,6.38609 8.35984,12.5656 14.0019,18.5225 5.65931,5.98027 12.3246,11.7134 19.9699,17.2128l0 0.0172165c10.8784,7.83351 23.0603,14.1962 36.5076,19.0833 2.62552,0.955516 5.31006,1.85323 8.01059,2.68946 2.70668,0.841149 5.48714,1.63065 8.32541,2.35743l0.154949 0.039352c12.7427,3.27359 24.2728,4.75544 34.5043,4.45784 1.9676,-0.0577983 3.92536,-0.194301 5.81303,-0.377533 1.74625,-0.177084 3.60563,-0.452548 5.50559,-0.7895l0 0.0110678 0.479603 -0.0860825c6.27173,-1.17318 11.92,-3.1703 16.9435,-5.96798 4.93868,-2.75833 9.31044,-6.31723 13.0809,-10.6656l-0.0172165 -0.0172165c3.89093,-4.49228 6.98129,-9.0817 9.26494,-13.7277 2.25413,-4.60049 3.78763,-9.32151 4.55991,-14.1446 0.664065,-4.24018 1.19532,-9.95729 1.59622,-17.1034l0.228734 -4.50949c0.429183,-9.50474 0.664065,-20.9943 0.670214,-34.4182l-0.0233653 0 0 -1.27033zm-228.21 -231.259l0 -61.5072 -189.591 -27.4948 0 61.5072 49.4384 7.16944 5.14527 0.750148 0 5.3322 0 290.129 80.2756 11.6334 0 -288.395 0 -7.05508 6.77961 0.972732 47.9516 6.95793zm-223.083 270.067l0 -357.106 -65.8777 -2.3685 0 159.995 -11.6273 1.87168 -50.9559 -164.122 -67.4518 -2.43122 0 357.106 65.8777 2.3685 0 -161.547 11.674 -1.7278 47.247 165.398 71.114 2.56403zm-241.17 -363.091l-143.036 10.3164 0 357.06 149.217 -10.7579 0 -61.5982 -61.8109 4.45784 -6.36273 0.463616 0 -6.58654 0 -81.2139 0 -5.71711 5.57323 -0.411966 52.4316 -3.78148 0 -58.011 -51.6421 3.71876 -6.36273 0.463616 0 -6.58531 0 -70.0109 0 -5.71588 5.57323 -0.411966 56.4197 -4.07416 0 -61.6043zm-215.964 372.939l45.0556 -365.083 -84.3375 15.3473 -5.90034 65.146 0 0.0233653c-3.69663,39.9005 -7.34653,84.1948 -10.8944,132.862l-2.04876 28.7479 -2.01433 29.6579 -0.039352 0.582902 -11.8794 0.0516495c-3.4679,-49.7655 -8.53815,-107.341 -15.2329,-172.579 -1.22975,-12.0503 -2.6206,-25.1373 -4.10859,-39.0938 -1.20638,-11.1858 -2.47672,-22.882 -3.85035,-35.225l-84.7962 15.4161 51.1613 347.595 128.885 -23.4489zm-260.363 48.3169l-0.0455008 0.0233653 0.00614875 0.0172165 0.039352 -0.0405818zm48.3525 -131.133l0 -238.709 -77.655 22.968 0 267.543c0,9.18992 -0.217666,16.9152 -0.623483,23.1353 -0.429183,6.43651 -1.11538,11.2436 -2.0254,14.3733l-0.029514 0.068866c-1.6245,5.31006 -4.70256,9.37807 -9.21206,12.1536l0.00614875 0.0110678c-0.910015,0.560766 -1.81388,1.04775 -2.69561,1.43143 -0.903866,0.39475 -1.88767,0.766134 -2.89483,1.0748l-0.068866 0.0233653 -0.137732 0.0405818c-3.7532,1.10432 -7.07229,1.09202 -9.94499,-0.0233653 -3.26745,-1.2814 -5.63594,-3.77041 -7.08336,-7.43876l0.0221355 -0.00614875c-1.06988,-2.63167 -1.85323,-6.76363 -2.29963,-12.3307 -0.424264,-5.25349 -0.64193,-11.9938 -0.64193,-20.1642l0 -268.768 -77.5628 22.9398 0 213.887 -0.0282843 0c0,20.7717 0.166016,37.955 0.509117,51.5216 0.325884,13.2297 0.858366,22.9742 1.57408,29.2176l0 0.0577983c0.623483,5.70973 1.97867,11.0198 4.02743,15.9068 2.05491,4.88703 4.85874,9.48137 8.39427,13.7793l-0.004919 0c3.37566,4.03358 7.65519,7.38096 12.7943,10.0077 5.35556,2.72882 11.6962,4.73823 18.9627,5.96183 10.523,1.80281 22.2941,1.488 35.2938,-0.938299 2.44351,-0.446399 5.09362,-1.0293 7.89131,-1.69951 2.56403,-0.623483 5.31006,-1.36748 8.19997,-2.20863l0.0282843 0 0.452548 -0.131583 0 -0.004919c12.8054,-3.79378 24.4733,-8.7841 34.8536,-14.9119l0.0221355 0c2.0254,-1.1904 4.01144,-2.43245 5.90526,-3.68556 1.92825,-1.2814 3.79993,-2.58002 5.57938,-3.90815l-0.00614875 -0.0172165 0.103299 -0.073785 3.51954 4.94851 -3.47404 -4.97188c6.50046,-4.84644 12.3824,-10.1971 17.6297,-16.0679 5.24734,-5.86468 9.86014,-12.2274 13.8371,-19.0722 3.97578,-6.84356 7.17436,-13.4289 9.58344,-19.7289 2.34144,-6.10571 3.92044,-11.9077 4.72101,-17.3899l0.00614875 0c0.668984,-4.74315 1.20761,-10.7923 1.60236,-18.1044l0.228734 -4.61279c0.423034,-9.73839 0.657916,-21.3657 0.668984,-34.813l-0.0282843 0 0 -1.27033zm-237.766 70.124l0 -238.103 -75.6628 28.3998 0 255.578 0.0221355 0c0,6.42544 -0.0627173,12.3196 -0.205368,17.7896 -0.125435,5.07026 -0.3431,8.90954 -0.623483,11.4736 -0.355398,3.18136 -1.16703,6.26558 -2.44351,9.25879 -1.21868,2.85425 -2.91328,5.68759 -5.05304,8.48528l0 0.0233653c-2.15698,2.79153 -4.70871,5.26456 -7.65642,7.38711 -2.89483,2.08812 -6.13891,3.81591 -9.73224,5.16126 -1.70566,0.6407 -4.24018,1.4757 -7.49656,2.44843l0 51.1785 35.8657 -13.4695c13.6133,-5.10961 24.7832,-10.1221 33.4172,-14.998l-0.004919 -0.004919c1.73395,-0.98503 3.3068,-1.91718 4.68658,-2.78169 1.41298,-0.88665 2.72267,-1.73887 3.89093,-2.5628l-0.00614875 -0.0110678 0.0516495 -0.0405818 0.159868 -0.137732c6.32952,-4.53163 11.754,-9.98434 16.1933,-16.2794l0.0172165 0c0.806716,-1.1326 1.64295,-2.40293 2.4841,-3.78763l0 -0.0282843c0.88665,-1.43635 1.65401,-2.7694 2.28856,-3.97701l0.0405818 -0.0750148c3.64498,-6.89521 6.17335,-13.8359 7.55804,-20.7938l-0.0172165 -0.00614875c0.286532,-1.48677 0.532482,-2.9059 0.709566,-4.18853 0.178314,-1.34412 0.332033,-2.69438 0.435332,-4.04465l0 -0.103299 0.00614875 0 0.034433 -0.515265 0 -0.0282843c0.354168,-5.44779 0.628402,-14.0425 0.800567,-25.7092 0.159868,-10.7529 0.239801,-25.9785 0.239801,-45.5376z"/>
  <path fill="#1F1A17" d="M1267.21 2377.25c0.692349,-3.32401 11.5289,-21.298 24.2617,-43.591 32.5293,-56.9805 77.4423,-142.264 -2.99321,-84.0301 -21.1947,15.3411 -34.647,38.9855 -59.6306,31.1692l-0.0282843 -0.0233653c-24.9307,-7.82244 -39.4602,-34.8191 -31.1164,-59.6134 21.9498,-65.2259 -54.0807,-56.7001 -55.1555,-5.77368 -1.3392,63.8191 -109.688,63.8191 -111.027,0 -1.07603,-50.9264 -77.1053,-59.4523 -55.1555,5.77368 8.33771,24.7942 -6.18564,51.7909 -31.1225,59.6134l-0.0233653 0.0233653c-24.9824,7.81629 -38.4346,-15.8281 -59.6294,-31.1692 -111.92,-81.0245 18.8029,115.776 21.2685,127.621 97.4479,-29.1193 210.608,-38.9044 360.351,0z"/>
 </g>
</svg>
