<?xml version="1.0" encoding="iso-8859-1"?><!-- Generator: Adobe Illustrator 16.0.0, SVG Export Plug-In . SVG Version: 6.00 Build 0) --><!DOCTYPE svg PUBLIC "-//W3C//DTD SVG 1.1//EN" "http://www.w3.org/Graphics/SVG/1.1/DTD/svg11.dtd"><svg version="1.1" id="Layer_1" xmlns="http://www.w3.org/2000/svg" xmlns:xlink="http://www.w3.org/1999/xlink" x="0px" y="0px" width="192.756px" height="192.756px" viewBox="0 0 192.756 192.756" style="enable-background:new 0 0 192.756 192.756;" xml:space="preserve"><g><polygon style="fill-rule:evenodd;clip-rule:evenodd;fill:#FFFFFF;" points="0,0 192.756,0 192.756,192.756 0,192.756 0,0	"/><path style="fill-rule:evenodd;clip-rule:evenodd;fill:#EDDF3F;stroke:#000000;stroke-width:0.4764;stroke-linecap:round;stroke-linejoin:round;stroke-miterlimit:2.6131;" d="	M61.106,92.192c0.388,3.726,0.605,7.597,0.557,11.54c-0.097,11.18-2.082,20.881-5.084,27.582c-0.992,2.203-2.082,4.09-3.292,5.613	c-0.629-5.734-0.993-11.855-0.993-18.219c0-2.686,0.073-5.346,0.194-7.91l3.244-19.792L61.106,92.192L61.106,92.192z"/><path style="fill-rule:evenodd;clip-rule:evenodd;fill:#EDDF3F;stroke:#000000;stroke-width:0.4764;stroke-linecap:round;stroke-linejoin:round;stroke-miterlimit:2.6131;" d="	M133.344,92.192c-0.387,3.726-0.582,7.597-0.557,11.54c0.121,11.18,2.082,20.881,5.084,27.582c0.992,2.203,2.105,4.09,3.291,5.613	c0.654-5.734,0.994-11.855,0.994-18.219c0-2.686-0.074-5.346-0.195-7.91l-3.242-19.792L133.344,92.192L133.344,92.192z"/><path style="fill-rule:evenodd;clip-rule:evenodd;fill:#EDDF3F;stroke:#000000;stroke-width:0.4764;stroke-linecap:round;stroke-linejoin:round;stroke-miterlimit:2.6131;" d="	M56.895,88.587c-1.428,20.008-4.454,37.938-8.4,51.461c-0.412,1.139-0.944,2.082-1.501,2.686	c-3.341,3.775-7.093,6.654-11.136,8.492c4.551-4.959,7.722-15.387,8.376-28.016c3.026-8.033,5.06-19.188,5.641-31.914	c0.145,0.702,0.217,1.548,0.145,2.492c0.63-1.186,1.38-2.057,2.106-2.42c0.581-0.387,1.234-1.137,1.791-2.104	c0.291-0.508,0.509-1.04,0.654-1.524c0.048-0.145,0.097-0.29,0.145-0.436L56.895,88.587L56.895,88.587z"/><path style="fill-rule:evenodd;clip-rule:evenodd;fill:#EDDF3F;stroke:#000000;stroke-width:0.4764;stroke-linecap:round;stroke-linejoin:round;stroke-miterlimit:2.6131;" d="	M137.58,88.587c1.404,20.008,4.43,37.938,8.377,51.461c0.41,1.139,0.943,2.082,1.5,2.686c3.365,3.775,7.117,6.654,11.135,8.492	c-4.551-4.959-7.721-15.387-8.375-28.016c-3.002-8.033-5.035-19.188-5.641-31.914c-0.145,0.702-0.193,1.548-0.145,2.492	c-0.631-1.186-1.381-2.057-2.082-2.42c-0.605-0.387-1.26-1.137-1.816-2.104c-0.291-0.508-0.508-1.04-0.654-1.524	c-0.047-0.145-0.096-0.29-0.121-0.436L137.58,88.587L137.58,88.587z"/><path style="fill-rule:evenodd;clip-rule:evenodd;fill:#EDDF3F;stroke:#000000;stroke-width:0.4764;stroke-linecap:round;stroke-linejoin:round;stroke-miterlimit:2.6131;" d="	M49.996,79.999c0.605,28.21-5.714,51.558-14.695,55.697c-1.646,0.58-3.147,1.451-4.357,2.492c-0.242,0.193-0.436,0.387-0.63,0.58	c2.833-3.363,5.181-8.928,6.875-16.018c1.453-6.049,2.421-13.211,2.784-21.072l3.026-14.3L49.996,79.999L49.996,79.999z"/><path style="fill-rule:evenodd;clip-rule:evenodd;fill:#EDDF3F;stroke:#000000;stroke-width:0.4764;stroke-linecap:round;stroke-linejoin:round;stroke-miterlimit:2.6131;" d="	M144.455,79.999c-0.605,28.21,5.713,51.558,14.719,55.697c1.621,0.58,3.146,1.451,4.357,2.492c0.217,0.193,0.412,0.387,0.629,0.58	c-2.855-3.363-5.205-8.928-6.898-16.018c-1.453-6.049-2.396-13.211-2.785-21.072l-3.025-14.3L144.455,79.999L144.455,79.999z"/><path style="fill-rule:evenodd;clip-rule:evenodd;fill:#EDDF3F;stroke:#000000;stroke-width:0.4764;stroke-linecap:round;stroke-linejoin:round;stroke-miterlimit:2.6131;" d="	M44.282,80.506c0.073,8.202-0.75,16.017-2.396,22.767c-2.735,11.25-7.625,19.041-13.871,19.646	c-0.871,0.072-1.743,0.023-2.614-0.193c3.97-3.074,7.093-9.436,9.078-17.613c0.678-2.807,1.21-5.807,1.622-8.953	C39.223,93.063,42.031,87.62,44.282,80.506L44.282,80.506z"/><path style="fill-rule:evenodd;clip-rule:evenodd;fill:#EDDF3F;stroke:#000000;stroke-width:0.4764;stroke-linecap:round;stroke-linejoin:round;stroke-miterlimit:2.6131;" d="	M150.168,80.506c-0.072,8.202,0.75,16.017,2.396,22.767c2.736,11.25,7.625,19.041,13.871,19.646	c0.896,0.072,1.744,0.023,2.615-0.193c-3.945-3.074-7.094-9.436-9.078-17.613c-0.678-2.807-1.211-5.807-1.598-8.953	C155.229,93.063,152.42,87.62,150.168,80.506L150.168,80.506z"/><path style="fill-rule:evenodd;clip-rule:evenodd;fill:#EDDF3F;stroke:#000000;stroke-width:0.4764;stroke-linecap:round;stroke-linejoin:round;stroke-miterlimit:2.6131;" d="	M48.107,63.57c-3.195,20.928-10.07,35.469-18.011,35.469h-0.024c2.397-3.411,4.479-8.419,6.101-14.637	c0.727-2.782,1.356-5.782,1.888-9c3.341-2.177,6.27-6.048,8.085-10.887c0.073-0.339,0.411-0.605,0.848-0.653h0.024	C47.429,63.861,47.816,63.764,48.107,63.57L48.107,63.57z"/><path style="fill-rule:evenodd;clip-rule:evenodd;fill:#EDDF3F;stroke:#000000;stroke-width:0.4764;stroke-linecap:round;stroke-linejoin:round;stroke-miterlimit:2.6131;" d="	M146.367,63.57c3.172,20.928,10.047,35.469,17.986,35.469c0.025,0,0.025,0,0.025,0c-2.396-3.411-4.479-8.419-6.076-14.637	c-0.727-2.782-1.355-5.782-1.889-9c-3.365-2.177-6.295-6.048-8.109-10.887c-0.049-0.339-0.412-0.605-0.848-0.653h-0.023	C147.021,63.861,146.633,63.764,146.367,63.57L146.367,63.57z"/><path style="fill-rule:evenodd;clip-rule:evenodd;fill:#EDDF3F;stroke:#000000;stroke-width:0.4764;stroke-linecap:round;stroke-linejoin:round;stroke-miterlimit:2.6131;" d="	M65.271,96.185v20.856c-1.985-0.969-3.752-5.203-4.212-10.355c-0.242-2.734-0.072-5.299,0.412-7.283	c0.072,0.266,0.121,0.533,0.169,0.822c0.63-1.523,1.452-2.637,2.251-2.977L65.271,96.185L65.271,96.185z"/><path style="fill-rule:evenodd;clip-rule:evenodd;fill:#EDDF3F;stroke:#000000;stroke-width:0.4764;stroke-linecap:round;stroke-linejoin:round;stroke-miterlimit:2.6131;" d="	M129.18,96.185v20.856c1.984-0.969,3.777-5.203,4.213-10.355c0.242-2.734,0.072-5.299-0.412-7.283	c-0.072,0.266-0.121,0.533-0.17,0.822c-0.605-1.523-1.428-2.637-2.25-2.977L129.18,96.185L129.18,96.185z"/><path style="fill-rule:evenodd;clip-rule:evenodd;fill:#EDDF3F;stroke:#000000;stroke-width:0.4764;stroke-linecap:round;stroke-linejoin:round;stroke-miterlimit:2.6131;" d="	M66.674,85.321h-1.404v10.863l-1.38,1.063c-0.799,0.34-1.622,1.453-2.251,2.977c-0.169-1.186-0.533-2.105-1.065-2.564	c-0.436-0.484-0.92-1.451-1.234-2.613c-0.218-0.774-0.315-1.5-0.315-2.104c0-1.234,0.073-2.541,0.218-3.847	c0.436-3.75,1.404-7.065,2.663-9.412c0-0.024,0-0.024,0.024-0.049c0.146,0.17,0.291,0.363,0.436,0.557	c1.5,1.911,2.324,4.088,3.292-0.242C65.004,83.87,65.852,84.45,66.674,85.321L66.674,85.321z"/><path style="fill-rule:evenodd;clip-rule:evenodd;fill:#EDDF3F;stroke:#000000;stroke-width:0.4764;stroke-linecap:round;stroke-linejoin:round;stroke-miterlimit:2.6131;" d="	M127.775,85.321h1.404v10.863l1.381,1.063c0.822,0.34,1.645,1.453,2.25,2.977c0.17-1.186,0.533-2.105,1.066-2.564	c0.459-0.484,0.92-1.451,1.234-2.613c0.217-0.774,0.314-1.5,0.314-2.104h0.023c0-1.234-0.072-2.541-0.242-3.847	c-0.436-3.75-1.404-7.065-2.639-9.412c-0.023-0.024-0.023-0.024-0.047-0.049c-0.123,0.17-0.291,0.363-0.438,0.557	c-1.5,1.911-2.299,4.088-3.291-0.242C129.445,83.87,128.6,84.45,127.775,85.321L127.775,85.321z"/><path style="fill-rule:evenodd;clip-rule:evenodd;fill:#EDDF3F;stroke:#000000;stroke-width:0.4764;stroke-linecap:round;stroke-linejoin:round;stroke-miterlimit:2.6131;" d="	M89.479,83.507c-0.968,0.702-2.082,1.307-3.341,1.814h-5.083c1.041-3,3.269-5.129,5.907-6.436c1.792,0.194,3.583,0.073,4.454,0.073	C90.447,79.83,88.946,81.039,89.479,83.507L89.479,83.507z"/><path style="fill-rule:evenodd;clip-rule:evenodd;fill:#EDDF3F;stroke:#000000;stroke-width:0.4764;stroke-linecap:round;stroke-linejoin:round;stroke-miterlimit:2.6131;" d="	M112.307,75.087c1.67,3.339,1.26,7.186,0.945,10.234h-0.605c-1.041-0.944-2.664-2.903-2.76-3.484c0.605-4.815-1.115-7.331-3.1-8.71	C108.797,73.635,110.709,74.313,112.307,75.087L112.307,75.087z"/><path style="fill-rule:evenodd;clip-rule:evenodd;fill:#EDDF3F;stroke:#000000;stroke-width:0.4764;stroke-linecap:round;stroke-linejoin:round;stroke-miterlimit:2.6131;" d="	M44.088,51.788c1.816-2.201,4.382-3.557,7.214-3.557c4.236,0,7.892,3.073,9.32,7.379c3.316,11.057,9.32,21.92,17.963,29.711H66.674	c-0.822-0.871-1.67-1.452-1.017-5.371c-0.968,4.331-1.792,2.153-3.292,0.242c-1.065-1.355-1.864-1.766-0.993-5.275	c-0.968,3.46-1.864,1.379-3.268-0.847c-1.307-2.057-0.702-2.976-0.291-4.718c-0.847,2.734-1.5,1.5-2.784-1.186	c-1.138-2.419-0.92-2.541,0.145-5.153c-1.622,3.363-2.3,0.387-3.099-1.742c-0.581-1.548,0.266-2.71,0.533-3.75	c-1.501,2.468-1.187,1.283-1.21,0.557c0-1.065,0.242-2.009,0.629-2.637c0.048-0.122,0.097-0.242,0.097-0.387	c0-0.291-0.146-0.605-0.484-0.605c-1.718,0-3.123,3.169-3.123,7.041c0,0.436,0.073,0.847,0.073,1.282	c0,0.605-0.702,1.089-1.574,1.089h-0.024c-0.437,0.048-0.775,0.314-0.848,0.653c-2.59,6.92-7.504,11.855-12.588,12.726	c3.002-6.048,4.31-11.903,6.439-18.17C40.99,56.143,42.442,53.651,44.088,51.788L44.088,51.788z"/><path style="fill-rule:evenodd;clip-rule:evenodd;fill:#EDDF3F;stroke:#000000;stroke-width:0.4764;stroke-linecap:round;stroke-linejoin:round;stroke-miterlimit:2.6131;" d="	M150.361,51.788c-1.814-2.201-4.381-3.557-7.213-3.557c-4.236,0-7.893,3.073-9.32,7.379c-3.316,11.057-9.297,21.92-17.939,29.711	h11.887c0.824-0.871,1.67-1.452,1.018-5.371c0.992,4.331,1.791,2.153,3.291,0.242c1.066-1.355,1.865-1.766,0.994-5.275	c0.967,3.46,1.863,1.379,3.268-0.847c1.307-2.057,0.701-2.976,0.291-4.718c0.846,2.734,1.5,1.5,2.783-1.186	c1.139-2.419,0.92-2.541-0.145-5.153c1.621,3.363,2.324,0.387,3.121-1.742c0.582-1.548-0.289-2.71-0.557-3.75	c1.502,2.468,1.188,1.283,1.211,0.557c0-1.065-0.242-2.009-0.629-2.637c-0.049-0.122-0.072-0.242-0.072-0.387	c0-0.291,0.121-0.605,0.459-0.605c1.719,0,3.123,3.169,3.123,7.041c0,0.436-0.049,0.847-0.049,1.282	c0,0.605,0.703,1.089,1.551,1.089h0.023c0.436,0.048,0.799,0.314,0.848,0.653c2.59,6.92,7.504,11.855,12.588,12.726	c-2.979-6.048-4.309-11.903-6.439-18.17C153.461,56.143,152.008,53.651,150.361,51.788L150.361,51.788z"/><path style="fill-rule:evenodd;clip-rule:evenodd;fill:#EDDF3F;stroke:#000000;stroke-width:0.4764;stroke-linecap:round;stroke-linejoin:round;stroke-miterlimit:2.6131;" d="	M100.93,85.321H87.082c-0.024-0.121-0.024-0.266,0-0.412c0.872-0.411,1.67-0.871,2.396-1.403c0.121,0.266,0.146,0.363,0.194,0.677	c2.154-0.701,6.294-1.621,8.304-5.274C98.217,80.192,98.701,83.555,100.93,85.321L100.93,85.321z"/><path style="fill-rule:evenodd;clip-rule:evenodd;fill:#FFF22D;stroke:#000000;stroke-width:0.4764;stroke-linecap:round;stroke-linejoin:round;stroke-miterlimit:2.6131;" d="	M101.752,85.321c1.961-2.081,2.639-5.129,1.283-9.194c0.799,1.839,3.219,4.186,6.852,5.71c0.096,0.557,1.693,2.492,2.734,3.436	C112.621,85.346,102.527,85.321,101.752,85.321L101.752,85.321z"/><path style="fill-rule:evenodd;clip-rule:evenodd;fill:#EDDF3F;stroke:#000000;stroke-width:0.4764;stroke-linecap:round;stroke-linejoin:round;stroke-miterlimit:2.6131;" d="	M88.728,50.675c9.95-0.823,12.516,5.25,25.225,4.403c-0.557,3.871-2.711,4.524-4.406,4.936c2.396,0.702,4.141,4.766,4.309,7.21	c-0.701,0.145-1.281-0.217-2.371-0.121c2.881,1.766,3.098,5.903,3.146,9.363c-1.768-1.306-4.672-2.564-7.844-3.338	c1.984,1.379,3.705,3.895,3.1,8.71c-3.633-1.524-6.053-3.871-6.852-5.71c1.428,4.282,0.58,7.452-1.621,9.533	c-2.641-1.646-3.172-5.371-3.438-6.75c-2.01,3.653-6.15,4.573-8.304,5.274c-0.993-2.927,0.678-4.282,1.743-5.226	c-1.041,0-3.365,0.169-5.447-0.193c1.017-2.734,4.551-2.855,5.883-3.412c1.332-0.532,1.961-1.572,1.912-2.734	c-0.072-1.185-4.139-0.798-6.947-1.113c-2.833-0.291-5.568-2.202-5.253-4.888c1.114,0.872,3.075,1.597,5.011,1.863	c2.033,0.266,6.487,0.339,7.577,0.339c3.001-0.024,4.503,0.726,7.287,2.25c-1.137-0.896-4.624-2.347-7.892-4.258	c-3.244-1.911-3.413-3.581-6.052-4.476c-1.549-0.532-2.445-0.048-3.438,1.96c-0.823-1.21-1.138-2.637-2.275-2.25	c-1.549,0.532-0.678,2.25-0.582,3.581c-0.896-0.073-3.752-1.912-3.946-4.524c-0.169-2.662,0.654-5.637,3.729-5.783	C81.974,52.659,86.138,50.869,88.728,50.675L88.728,50.675z"/><path style="fill:none;stroke:#000000;stroke-width:0.4764;stroke-linecap:round;stroke-linejoin:round;stroke-miterlimit:2.6131;" d="	M105.867,79.539c1.139,1.621,1.984,3.436,2.324,5.396"/><path style="fill-rule:evenodd;clip-rule:evenodd;fill:#277FBE;" d="M65.271,85.321h63.909v47.761v0.023	c0,13.814-12.781,25.961-31.93,32.832c-19.173-6.871-31.979-19.018-31.979-32.832v-0.023V85.321L65.271,85.321z"/><polygon style="fill-rule:evenodd;clip-rule:evenodd;" points="129.18,111.863 129.18,127.977 65.271,127.977 65.271,111.863	129.18,111.863	"/><path style="fill-rule:evenodd;clip-rule:evenodd;fill:#EDDF3F;" d="M70.596,124.541v-0.58c0.508-0.025,0.799-0.074,0.896-0.098	c0.048-0.025,0.097-0.049,0.121-0.098c0.024-0.049,0.073-0.119,0.073-0.24c0.024-0.268,0.072-0.799,0.072-1.67	c0.024-0.412,0.024-1.113,0.024-2.129c0-1.791-0.024-3.34-0.096-3.605c-0.049-0.121-0.097-0.193-0.291-0.219	c-0.291-0.047-0.557-0.096-0.799-0.096v-0.557c0.896,0.025,1.549,0.025,1.888,0.025c0.46,0,0.92,0,1.38-0.025l0.582,1.307	l0.459,1.016l2.13,4.332c0.436-0.873,0.775-1.549,0.993-2.033l0.896-1.84c0.968-2.055,0.968-2.08,1.259-2.781	c0.557,0.025,0.943,0.049,1.113,0.049l1.961-0.049v0.557h-0.073c-0.896,0-1.017,0.17-1.017,0.799c0,0.361-0.024,0.629-0.024,0.822	l-0.048,1.863v2.346c0,0.557,0,0.896,0.024,0.992c0.048,0.557,0.072,0.896,0.097,1.018c0.024,0.145,0.097,0.191,0.218,0.24	c0.072,0.025,0.339,0.074,0.823,0.074v0.58l-2.106-0.049l-2.058,0.049v-0.58c1.09-0.025,1.017-0.074,1.09-0.412	c0.024-0.145,0.048-0.701,0.048-1.645v-4.84l-1.55,3.121l-0.726,1.549c-0.193,0.41-0.484,1.016-0.823,1.766	c-0.218,0.484-0.387,0.848-0.508,1.162h-0.46c-0.145-0.387-0.387-0.896-0.702-1.549c-0.484-1.088-0.896-1.936-1.138-2.467	l-1.768-3.582v3.266c0,1.113,0.048,3.025,0.072,3.219c0.024,0.193,0.097,0.266,0.267,0.338c0.121,0.025,0.388,0.074,0.823,0.074	v0.58c-0.484-0.049-0.993-0.049-1.525-0.049C71.541,124.492,70.984,124.492,70.596,124.541L70.596,124.541z M85.436,122.605	c0.557,0,1.017,0.459,1.017,1.041c0,0.58-0.484,1.039-1.017,1.039c-0.605,0-1.065-0.459-1.065-1.039	C84.371,123.064,84.831,122.605,85.436,122.605L85.436,122.605z M96.451,123.186l0.146,0.145l-0.291,0.678	c-1.113,0.58-1.815,0.75-3.146,0.75c-0.945,0-1.768-0.145-2.494-0.436c-1.138-0.484-1.912-1.307-2.348-2.225	c-0.315-0.703-0.484-1.451-0.484-2.275c0-2.781,1.985-4.742,5.471-4.742c1.186,0,2.009,0.17,3.268,0.605l0.024,0.096	c-0.049,0.195-0.098,0.461-0.146,0.775c-0.073,0.508-0.097,0.967-0.121,1.402h-0.533c0-0.484-0.024-0.895-0.048-1.186	c-0.605-0.604-1.283-0.918-2.421-0.918c-2.106,0-3.462,1.379-3.462,3.725c0,1.451,0.46,2.518,1.162,3.193	c0.363,0.363,0.702,0.605,1.065,0.775c0.484,0.193,1.065,0.314,1.743,0.314C94.756,123.863,95.482,123.67,96.451,123.186	L96.451,123.186z M98.629,122.605c0.582,0,1.041,0.459,1.041,1.041c0,0.58-0.484,1.039-1.041,1.039	c-0.58,0-1.016-0.459-1.016-1.039C97.613,123.064,98.049,122.605,98.629,122.605L98.629,122.605z M106.787,121.299h-0.533	c-0.023-0.557-0.047-0.871-0.119-0.992c-0.025-0.072-0.121-0.098-0.244-0.121c-0.314-0.049-0.822-0.096-1.549-0.096	c-0.096,0-0.289,0-0.531,0v0.75c0,2.104,0.049,2.807,0.145,2.951c0.049,0.096-0.023,0.121,1.211,0.217v0.533l-2.615-0.049	c-0.363,0-0.969,0-1.791,0.049v-0.557c0.533,0,0.822-0.023,0.896-0.049c0.047-0.023,0.072-0.049,0.096-0.098	c0.049-0.047,0.072-0.145,0.098-0.338c0.023-0.193,0.096-1.645,0.096-2.105v-2.758c0-0.072-0.049-0.678-0.072-1.863	c-0.023-0.338-0.023-0.58-0.072-0.725c-0.025-0.098-0.049-0.146-0.266-0.17c-0.098-0.023-0.34-0.049-0.775-0.072v-0.557	l2.373,0.025l3.195-0.049c0.436,0,0.871,0.023,1.258,0.072l0.072,0.096c-0.096,0.508-0.193,1.404-0.193,1.984h-0.531	c0-0.121-0.025-0.363-0.049-0.727c0-0.193,0-0.312-0.025-0.338c-0.023-0.049-0.049-0.049-0.072-0.072	c-0.17-0.121-0.799-0.242-1.572-0.242c-0.146,0-1.09,0.049-1.332,0.049c-0.049,0.459-0.072,1.258-0.072,2.42v0.918	c0.557,0.025,0.943,0.025,1.162,0.025c0.557,0,0.943-0.025,1.088-0.074c0.049-0.023,0.098-0.072,0.121-0.168	c0.049-0.098,0.049-0.338,0.072-0.75h0.557C106.787,119.17,106.787,120.137,106.787,121.299L106.787,121.299z M109.596,122.605	c0.58,0,1.041,0.459,1.041,1.041c0,0.58-0.484,1.039-1.041,1.039c-0.58,0-1.041-0.459-1.041-1.039	C108.555,123.064,109.016,122.605,109.596,122.605L109.596,122.605z M120.635,123.186l0.145,0.145l-0.291,0.678	c-1.113,0.58-1.814,0.75-3.146,0.75c-0.943,0-1.768-0.145-2.492-0.436c-1.139-0.484-1.914-1.307-2.35-2.225	c-0.314-0.703-0.484-1.451-0.484-2.275c0-2.781,1.986-4.742,5.471-4.742c1.188,0,2.01,0.17,3.27,0.605l0.023,0.096	c-0.049,0.195-0.098,0.461-0.145,0.775c-0.072,0.508-0.121,0.967-0.121,1.402h-0.533c0-0.484-0.023-0.895-0.049-1.186	c-0.604-0.604-1.283-0.918-2.42-0.918c-2.105,0-3.461,1.379-3.461,3.725c0,1.451,0.459,2.518,1.16,3.193	c0.363,0.363,0.703,0.605,1.066,0.775c0.484,0.193,1.064,0.314,1.742,0.314C118.939,123.863,119.666,123.67,120.635,123.186	L120.635,123.186z M122.838,122.605c0.58,0,1.041,0.459,1.041,1.041c0,0.58-0.484,1.039-1.041,1.039	c-0.582,0-1.041-0.459-1.041-1.039C121.797,123.064,122.256,122.605,122.838,122.605L122.838,122.605z"/><path style="fill-rule:evenodd;clip-rule:evenodd;fill:#FFFFFF;" d="M127.533,141.574c-0.895,2.299-2.154,4.5-3.752,6.629	l-15.541-20.227h8.859L127.533,141.574L127.533,141.574z"/><path style="fill-rule:evenodd;clip-rule:evenodd;fill:#FFFFFF;" d="M119.133,153.332c-1.646,1.523-3.486,3-5.471,4.379	l-22.828-29.734h8.835L119.133,153.332L119.133,153.332z"/><path style="fill-rule:evenodd;clip-rule:evenodd;fill:#FFFFFF;" d="M107.805,161.268c-2.033,1.09-4.213,2.129-6.488,3.072	l-27.912-36.363h8.86L107.805,161.268L107.805,161.268z"/><path style="fill-rule:evenodd;clip-rule:evenodd;fill:#EDDF3F;" d="M121.555,108.549c-0.873,0-1.549,0.145-1.791,0.387	c-0.484,0.629-1.67,1.064-3.076,1.064c-0.846,0-1.598-0.146-2.178-0.412c-0.557-0.217-1.211-0.338-1.936-0.338	c-0.945,0-1.768,0.217-2.373,0.531c-0.557,0.363-1.381,0.582-2.301,0.582c-0.799,0-1.549-0.17-2.08-0.461	c-0.533-0.266-1.211-0.41-1.938-0.41c-0.799,0-1.525,0.193-2.082,0.482c-0.533,0.34-1.283,0.533-2.105,0.533	c-0.824,0-1.598-0.217-2.107-0.557c-0.58-0.314-1.403-0.531-2.299-0.531c-0.75,0-1.453,0.145-2.009,0.387	c-0.581,0.291-1.38,0.484-2.276,0.484c-0.896,0-1.718-0.193-2.324-0.533c-0.557-0.242-1.283-0.387-2.082-0.387	c-0.848,0-1.622,0.168-2.203,0.459c-0.678,0.387-1.719,0.629-2.881,0.629c-1.428,0-2.663-0.361-3.292-0.92	c-0.121-0.096-0.314-0.145-0.557-0.145c-0.048-0.023-0.097-0.023-0.121-0.023c-0.46,0.049-0.944,0.121-1.453,0.242	c-0.532,0.121-1.041,0.266-1.477,0.436c-0.024,0.023-0.048,0.023-0.048,0.023c-0.218,0-0.363-0.242-0.363-0.508	c0-0.193,0.073-0.363,0.194-0.461c0.484-0.193,1.065-0.387,1.694-0.531c0.509-0.098,0.993-0.193,1.453-0.217	c0.024,0,0.073,0,0.121,0c0.243,0.023,0.436,0.072,0.557,0.145c0.63,0.557,1.864,0.943,3.292,0.943	c1.162,0,2.203-0.242,2.881-0.654c0.581-0.266,1.355-0.459,2.203-0.459c0.799,0,1.525,0.17,2.082,0.412	c0.605,0.314,1.428,0.531,2.324,0.531c0.896,0,1.695-0.193,2.276-0.508c0.557-0.242,1.259-0.363,2.009-0.363	c0.896,0,1.719,0.193,2.299,0.533c0.51,0.338,1.283,0.557,2.107,0.557c0.822,0,1.572-0.219,2.105-0.533	c0.557-0.314,1.283-0.484,2.082-0.484c0.727,0,1.404,0.146,1.938,0.389c0.531,0.289,1.281,0.484,2.08,0.484	c0.92,0,1.744-0.244,2.301-0.605c0.605-0.314,1.428-0.508,2.373-0.508c0.725,0,1.379,0.121,1.936,0.314	c0.58,0.266,1.332,0.436,2.178,0.436c1.406,0,2.592-0.461,3.076-1.09c0.242-0.242,0.918-0.387,1.791-0.387	c0.168,0.049,0.314,0.266,0.314,0.531C121.869,108.307,121.723,108.523,121.555,108.549L121.555,108.549z"/><path style="fill-rule:evenodd;clip-rule:evenodd;fill:#EDDF3F;" d="M88.946,96.668c0.605,0.025,1.21,0.121,1.718,0.291	c0.339,0.701,0.581,1.549,0.654,2.492c-0.654-0.291-1.453-0.484-2.348-0.533c0,0.193,0,0.363,0,0.557	c0.992,0.025,1.864,0.219,2.59,0.51c0.412,0.99,0.678,2.129,0.775,3.387c-0.848-0.484-2.01-0.799-3.316-0.848	c0.024,0.727,0.024,1.525,0.048,2.371h9.853c0-0.217,0-0.436,0.023-0.652c-0.773-0.484-2.275-0.701-3.946-0.461	c-1.113,0.17-2.081,0.484-2.784,0.896l1.816-5.105c1.477-0.436,3.195-0.701,5.035-0.75c0-0.193,0-0.363,0-0.557	c-0.193-0.17-0.508-0.291-0.92-0.363c-0.629-0.096-1.5-0.023-2.396,0.217c-0.775,0.219-1.453,0.533-1.961,0.896l1.452-4.355	c1.138-0.387,2.495-0.629,3.922-0.677c0-0.073,0-0.169,0-0.242c-0.484-0.266-1.283-0.411-2.131-0.29	c-0.629,0.097-1.186,0.314-1.573,0.556l0.92-3c0.847-0.29,1.815-0.459,2.856-0.508c0-0.436,0.025-0.847,0.025-1.234	c-0.195-0.169-0.461-0.266-0.752-0.29c-0.338-0.024-0.678,0.072-0.871,0.266c-0.145,0.121-0.34,0.193-0.557,0.242	c-0.412,0.072-0.92,0.024-1.428-0.193c-0.436-0.218-0.799-0.509-1.041-0.847c0.29,0.145,0.605,0.242,0.968,0.266	c0.702,0.048,1.332-0.194,1.622-0.556c0.266-0.242,0.654-0.388,1.137-0.363c0.389,0.024,0.727,0.169,0.945,0.363	c0-0.122,0-0.266,0.023-0.388c0-0.097,0.074-0.145,0.17-0.145c0.098,0,0.17,0.048,0.193,0.121c0,0.798,0.025,1.693,0.025,2.758	c1.113,0,2.154,0.169,3.049,0.484l0.896,3.073c-0.412-0.291-1.018-0.532-1.695-0.629c-0.92-0.121-1.742,0-2.203,0.314	c0,0.073,0,0.146,0,0.242c1.646,0,3.195,0.266,4.479,0.701l1.453,4.38c-0.17-0.17-0.363-0.314-0.654-0.461	c-0.58-0.338-1.404-0.58-2.324-0.652c-0.943-0.072-1.814,0-2.42,0.242c-0.193,0.047-0.338,0.121-0.484,0.217	c0,0.121,0,0.266,0,0.412c2.059,0,3.971,0.289,5.592,0.773l1.381,5.033c-0.703-0.412-1.719-0.775-2.857-0.943	c-1.742-0.242-3.316-0.025-4.043,0.531c0,0.219,0,0.436,0,0.678h7.578c0.023-4.209,0.072-6.992,0.096-8.976	c0-1.451,0.025-2.589,0.025-3.508c0.023-0.024,0.072-0.073,0.145-0.073s0.145,0.049,0.145,0.097c0,0.097,0,0.194,0.025,0.315	c0.219-0.193,0.557-0.338,0.943-0.338c0.484,0,0.92,0.218,1.113,0.508c0.219,0.387,0.824,0.653,1.525,0.653	c0.17,0,0.314,0,0.484-0.024c-0.072,0.339-0.629,0.629-1.307,0.629c-0.387,0-0.75-0.097-0.992-0.266	c-0.219-0.169-0.533-0.29-0.922-0.314c-0.312-0.024-0.604,0.048-0.822,0.169c0,0.46,0.025,0.992,0.025,1.573	c0.895,0.411,2.25,0.701,3.752,0.701c1.961,0,3.631-0.459,4.406-1.113c-0.799,0.968-1.283,2.468-1.283,4.162	c0,1.766,0.557,3.314,1.404,4.307c-0.533-0.072-0.969-0.193-1.309-0.363c-0.773-0.436-1.814-0.773-2.977-0.918	c-1.525-0.17-2.904,0.047-3.801,0.531c0.023,0.701,0.049,1.451,0.049,2.25h6.076l2.057-1.402c0.049-0.025,0.098-0.025,0.145-0.025	c0.17,0,0.316,0.121,0.316,0.242c0,0.023-0.025,0.072-0.025,0.098l-2.396,3.482c0.557,0.242,1.307,0.389,2.105,0.389	c1.381,0,2.566-0.436,3.051-1.066c0.242-0.266,0.945-0.387,1.865-0.387c0.145,0.049,0.266,0.195,0.266,0.387	c0,0.195-0.121,0.363-0.266,0.389c-0.775,0.023-1.381,0.145-1.598,0.387c-0.484,0.629-1.67,1.064-3.076,1.064	c-0.846,0-1.598-0.145-2.178-0.412c-0.557-0.193-1.211-0.314-1.936-0.314c-0.945,0-1.768,0.195-2.373,0.51	c-0.557,0.361-1.381,0.58-2.301,0.58c-0.799,0-1.549-0.17-2.08-0.459c-0.533-0.242-1.211-0.412-1.938-0.412	c-0.799,0-1.525,0.193-2.082,0.508c-0.533,0.314-1.283,0.508-2.105,0.508c-0.824,0-1.598-0.193-2.107-0.557	c-0.58-0.314-1.403-0.531-2.299-0.531c-0.75,0-1.453,0.145-2.009,0.387c-0.581,0.314-1.38,0.508-2.276,0.508	c-0.896,0-1.718-0.217-2.324-0.531c-0.557-0.268-1.283-0.412-2.082-0.412c-0.848,0-1.622,0.17-2.203,0.459	c-0.678,0.389-1.719,0.654-2.881,0.654c-1.428,0-2.663-0.387-3.292-0.943c-0.121-0.072-0.314-0.146-0.557-0.146	c-0.048,0-0.097,0-0.121,0c-0.46,0.025-0.944,0.098-1.453,0.219c-0.557,0.121-1.065,0.291-1.501,0.459	c-0.048,0.025-0.121,0.025-0.169,0.025c-0.267,0-0.46-0.146-0.46-0.34c0-0.096,0.048-0.193,0.145-0.242	c0.532-0.266,1.21-0.508,1.96-0.678c0.509-0.121,0.993-0.193,1.453-0.217c0.024,0,0.072,0,0.121,0c0.218,0,0.412,0.072,0.557,0.145	c0.629,0.557,1.864,0.943,3.268,0.943c0.315,0,0.605-0.023,0.896-0.047l-3.341-3.146l-7.069-3c-0.072-0.049-0.145-0.121-0.145-0.17	c0-0.145,0.267-0.266,0.557-0.266c0.121,0,0.242,0.025,0.314,0.049l5.181,2.201c0.944,0.34,2.058,0.629,3.268,0.799l-4.042-3.822	c0.896-2.564,3.752-4.839,7.432-5.638c1.041-0.242,2.106-0.339,3.098-0.291l0.92,0.581v-0.024c0.024-0.702,0.024-1.355,0.048-1.911	c-0.218-0.169-0.509-0.291-0.847-0.291c-0.339,0-0.654,0.122-0.872,0.339c-0.145,0.121-0.315,0.217-0.533,0.266	c-0.411,0.121-0.92,0.097-1.428-0.097c-0.46-0.169-0.847-0.46-1.089-0.774c0.266,0.121,0.605,0.193,0.968,0.193	c0.702,0,1.307-0.266,1.598-0.653c0.243-0.266,0.629-0.436,1.114-0.436c0.46,0,0.871,0.169,1.113,0.436c0-0.169,0-0.339,0-0.484	c0.024-0.048,0.073-0.072,0.121-0.072c0.073,0,0.121,0.024,0.146,0.072c0,0.871,0.024,2.008,0.048,3.46	C88.922,95.797,88.922,96.209,88.946,96.668L88.946,96.668z M88.462,98.918c-1.283,0.025-2.445,0.389-3.147,0.943	c0.072-1.016,0.29-1.934,0.653-2.686c0.678-0.314,1.574-0.508,2.542-0.531c0.024-0.411,0.024-0.798,0.024-1.162	c-1.912,0.339-3.631,1.404-4.915,2.976c-1.332,1.621-2.227,3.775-2.396,6.146c1.089,0.168,2.275,0.266,3.51,0.289h3.631	c0-0.846,0.024-1.645,0.049-2.395c-1.694,0.047-3.147,0.531-3.97,1.232c0.121-1.281,0.412-2.467,0.823-3.482	c0.049-0.025,0.097-0.049,0.121-0.074c0.848-0.41,1.937-0.652,3.075-0.701C88.462,99.281,88.462,99.111,88.462,98.918	L88.462,98.918z M107.949,95.604c0,0.097,0,0.218,0,0.314c0.049,1.574,0.098,3.628,0.17,6.484c0.459-0.871,0.75-2.008,0.75-3.266	C108.869,97.758,108.506,96.475,107.949,95.604L107.949,95.604z"/><polygon style="fill-rule:evenodd;clip-rule:evenodd;fill:#EDDF3F;stroke:#000000;stroke-width:0.4764;stroke-linecap:round;stroke-linejoin:round;stroke-miterlimit:2.6131;" points="	61.421,29.794 65.61,42.715 54.643,34.731 43.653,42.715 47.841,29.794 36.875,21.835 50.431,21.835 54.643,8.915 58.831,21.835	72.412,21.835 61.421,29.794	"/><path style="fill-rule:evenodd;clip-rule:evenodd;stroke:#000000;stroke-width:0.4764;stroke-linecap:round;stroke-linejoin:round;stroke-miterlimit:2.6131;" d="	M53.433,27.207c0.218-0.678,0.919-1.041,1.598-0.823c0.678,0.217,1.041,0.943,0.823,1.621c-0.218,0.653-0.944,1.016-1.622,0.799	C53.578,28.585,53.215,27.884,53.433,27.207L53.433,27.207z"/><path style="fill:none;stroke:#000000;stroke-width:0.4764;stroke-linecap:round;stroke-linejoin:round;stroke-miterlimit:2.6131;" d="	M43.653,42.715l15.178-20.88L43.653,42.715L43.653,42.715z M72.412,21.835l-24.571,7.959L72.412,21.835L72.412,21.835z M65.61,42.715l-15.179-20.88L65.61,42.715L65.61,42.715z M54.643,8.915v25.816V8.915L54.643,8.915z M36.875,21.835l24.547,7.959	L36.875,21.835L36.875,21.835z"/><polygon style="fill-rule:evenodd;clip-rule:evenodd;fill:#EDDF3F;stroke:#000000;stroke-width:0.4764;stroke-linecap:round;stroke-linejoin:round;stroke-miterlimit:2.6131;" points="	104.004,29.794 108.191,42.715 97.25,34.731 86.259,42.715 90.447,29.794 79.457,21.835 93.037,21.835 97.25,8.915 101.414,21.835	114.994,21.835 104.004,29.794	"/><path style="fill-rule:evenodd;clip-rule:evenodd;stroke:#000000;stroke-width:0.4764;stroke-linecap:round;stroke-linejoin:round;stroke-miterlimit:2.6131;" d="	M96.039,27.207c0.194-0.678,0.919-1.041,1.598-0.823c0.629,0.217,1.018,0.943,0.799,1.621c-0.219,0.653-0.92,1.016-1.598,0.799	C96.185,28.585,95.821,27.884,96.039,27.207L96.039,27.207z"/><path style="fill:none;stroke:#000000;stroke-width:0.4764;stroke-linecap:round;stroke-linejoin:round;stroke-miterlimit:2.6131;" d="	M86.259,42.715l15.155-20.88L86.259,42.715L86.259,42.715z M114.994,21.835l-24.547,7.959L114.994,21.835L114.994,21.835z M108.191,42.715l-15.154-20.88L108.191,42.715L108.191,42.715z M97.25,8.915v25.816V8.915L97.25,8.915z M79.457,21.835	l24.547,7.959L79.457,21.835L79.457,21.835z"/><polygon style="fill-rule:evenodd;clip-rule:evenodd;fill:#EDDF3F;stroke:#000000;stroke-width:0.4764;stroke-linecap:round;stroke-linejoin:round;stroke-miterlimit:2.6131;" points="	146.609,29.794 150.797,42.715 139.807,34.731 128.84,42.715 133.029,29.794 122.039,21.835 135.619,21.835 139.807,8.915	144.02,21.835 157.6,21.835 146.609,29.794	"/><path style="fill-rule:evenodd;clip-rule:evenodd;stroke:#000000;stroke-width:0.4764;stroke-linecap:round;stroke-linejoin:round;stroke-miterlimit:2.6131;" d="	M138.598,27.207c0.217-0.678,0.943-1.041,1.621-0.823c0.654,0.217,1.018,0.943,0.822,1.621c-0.217,0.653-0.943,1.016-1.621,0.799	C138.766,28.585,138.379,27.884,138.598,27.207L138.598,27.207z"/><polygon style="fill-rule:evenodd;clip-rule:evenodd;fill:#EDDF3F;stroke:#000000;stroke-width:0.4764;stroke-linecap:round;stroke-linejoin:round;stroke-miterlimit:2.6131;" points="	128.84,42.715 144.02,21.835 128.84,42.715	"/><path style="fill:none;stroke:#000000;stroke-width:0.4764;stroke-linecap:round;stroke-linejoin:round;stroke-miterlimit:2.6131;" d="	M157.6,21.835l-24.57,7.959L157.6,21.835L157.6,21.835z M150.797,42.715l-15.178-20.88L150.797,42.715L150.797,42.715z M139.807,8.915v25.816V8.915L139.807,8.915z M122.039,21.835l24.57,7.959L122.039,21.835L122.039,21.835z"/><path style="fill-rule:evenodd;clip-rule:evenodd;" d="M46.509,88.757c0.484-1.258,0.436-2.783,0.92-4.209	c-0.267,3.048-0.605,6.267-0.969,9.314c-1.234,9.582-2.396,19.404-5.35,28.501C43.871,111.379,45.517,100.055,46.509,88.757	L46.509,88.757z"/><path style="fill-rule:evenodd;clip-rule:evenodd;" d="M147.965,88.757c-0.508-1.258-0.459-2.783-0.943-4.209	c0.291,3.048,0.605,6.267,0.969,9.314c1.234,9.582,2.42,19.404,5.373,28.501C150.58,111.379,148.934,100.055,147.965,88.757	L147.965,88.757z"/><path style="fill-rule:evenodd;clip-rule:evenodd;fill:#EDDF3F;stroke:#000000;stroke-width:0.4764;stroke-linecap:round;stroke-linejoin:round;stroke-miterlimit:2.6131;" d="	M53.771,65.458c-0.992,6.848-2.445,13.065-4.236,18.34h-0.024c0,0.048-0.024,0.097-0.049,0.145	c-0.944,2.734-2.445,4.815-3.704,5.299c-0.654,0.218-1.332,0.629-1.937,1.234c0.194-1.137,0.145-2.226-0.073-3.145	c-0.218-1.161-0.266-2.589-0.072-4.113c0.048-0.581,0.145-1.137,0.266-1.645c1.719-5.154,3.123-11.25,4.164-18.001	c0.291-0.217,0.484-0.484,0.484-0.798c0-0.436-0.073-0.847-0.073-1.282c0-3.871,1.404-7.041,3.123-7.041	c0.339,0,0.484,0.314,0.484,0.605c0,0.145-0.048,0.266-0.097,0.387c-0.388,0.628-0.629,1.572-0.629,2.637	c0.024,0.726-0.291,1.911,1.21-0.557c-0.267,1.041-1.114,2.202-0.533,3.75c0.799,2.129,1.477,5.105,3.099,1.742	C55.152,63.062,53.844,65.095,53.771,65.458L53.771,65.458z"/><path style="fill-rule:evenodd;clip-rule:evenodd;fill:#EDDF3F;stroke:#000000;stroke-width:0.4764;stroke-linecap:round;stroke-linejoin:round;stroke-miterlimit:2.6131;" d="	M140.68,65.458c1.016,6.848,2.443,13.065,4.234,18.34h0.025c0.025,0.048,0.025,0.097,0.049,0.145	c0.943,2.734,2.469,4.815,3.703,5.299c0.678,0.218,1.332,0.629,1.938,1.234c-0.17-1.137-0.146-2.226,0.072-3.145	c0.217-1.161,0.266-2.589,0.096-4.113c-0.072-0.581-0.168-1.137-0.289-1.645c-1.695-5.154-3.123-11.25-4.141-18.001	c-0.314-0.217-0.484-0.484-0.484-0.798c0-0.436,0.049-0.847,0.049-1.282c0-3.871-1.404-7.041-3.123-7.041	c-0.338,0-0.459,0.314-0.459,0.605c0,0.145,0.023,0.266,0.072,0.387c0.387,0.628,0.629,1.572,0.629,2.637	c-0.023,0.726,0.291,1.911-1.211-0.557c0.268,1.041,1.139,2.202,0.557,3.75c-0.797,2.129-1.5,5.105-3.121,1.742	C139.299,63.062,140.605,65.095,140.68,65.458L140.68,65.458z"/><path style="fill-rule:evenodd;clip-rule:evenodd;" d="M47.816,78.982c0.048-0.556,0.121-1.137,0.242-1.718	c1.767-5.347,3.002-10.888,3.921-16.453c0.073,0.218,0.146,0.412,0.218,0.605c-0.775,4.936-1.816,9.847-3.317,14.637	c-0.314,0.992-0.629,2.057-1.065,3.024V78.982L47.816,78.982z"/><path style="fill-rule:evenodd;clip-rule:evenodd;" d="M146.633,78.982c-0.047-0.556-0.119-1.137-0.24-1.718	c-1.768-5.347-3.002-10.888-3.922-16.453c-0.074,0.218-0.146,0.412-0.219,0.605c0.775,4.936,1.816,9.871,3.316,14.637	c0.314,0.992,0.631,2.057,1.064,3.024V78.982L146.633,78.982z"/><path style="fill-rule:evenodd;clip-rule:evenodd;fill:#EDDF3F;stroke:#000000;stroke-width:0.4764;stroke-linecap:round;stroke-linejoin:round;stroke-miterlimit:2.6131;" d="	M57.427,72.861c-0.557,5.323-1.525,10.355-2.856,14.88c-0.146,0.484-0.363,1.016-0.654,1.524c-0.557,0.968-1.21,1.718-1.791,2.104	c-0.726,0.363-1.477,1.234-2.106,2.42c0.097-1.622-0.121-2.976-0.653-3.726c-0.436-0.871-0.678-2.323-0.533-3.919	c0-0.291,0.048-0.557,0.073-0.823c0.218-0.436,0.388-0.895,0.557-1.379c0.024-0.048,0.049-0.096,0.049-0.145h0.024	c1.792-5.274,3.244-11.492,4.236-18.34c0.097-0.363,0.194-0.678,0.291-0.968c0.315-0.145,0.702-0.581,1.114-1.476	c-1.065,2.613-1.283,2.734-0.145,5.153c1.283,2.686,1.937,3.919,2.784,1.186c-0.315,1.331-0.726,2.177-0.339,3.411	C57.451,72.789,57.451,72.812,57.427,72.861L57.427,72.861z"/><path style="fill-rule:evenodd;clip-rule:evenodd;fill:#EDDF3F;stroke:#000000;stroke-width:0.4764;stroke-linecap:round;stroke-linejoin:round;stroke-miterlimit:2.6131;" d="	M137.023,72.861c0.557,5.323,1.549,10.355,2.855,14.88c0.146,0.484,0.363,1.016,0.654,1.524c0.557,0.968,1.211,1.718,1.816,2.104	c0.701,0.363,1.451,1.234,2.082,2.42c-0.098-1.622,0.121-2.976,0.652-3.726c0.436-0.871,0.678-2.323,0.557-3.919	c-0.023-0.291-0.072-0.557-0.096-0.823c-0.193-0.436-0.387-0.895-0.557-1.379c-0.023-0.048-0.023-0.096-0.049-0.145h-0.025	c-1.791-5.274-3.219-11.492-4.234-18.34c-0.098-0.363-0.195-0.678-0.291-0.968c-0.314-0.145-0.678-0.581-1.113-1.476	c1.064,2.613,1.283,2.734,0.145,5.153c-1.283,2.686-1.938,3.919-2.783,1.186c0.314,1.331,0.75,2.177,0.363,3.411	C137,72.789,137.023,72.812,137.023,72.861L137.023,72.861z"/><path style="fill-rule:evenodd;clip-rule:evenodd;" d="M55.417,69.086c0.098,0.17,0.17,0.339,0.267,0.509	c-0.557,4.597-1.355,9.193-2.542,13.669c-0.29,1.016-0.557,2.081-0.944,3.073c0.024-0.604,0.072-1.209,0.169-1.814	C53.796,79.466,54.74,74.289,55.417,69.086L55.417,69.086z"/><path style="fill-rule:evenodd;clip-rule:evenodd;" d="M139.033,69.086c-0.098,0.17-0.17,0.339-0.268,0.509	c0.557,4.597,1.355,9.193,2.543,13.669c0.291,1.016,0.557,2.081,0.943,3.073v-0.097c-0.023-0.557-0.072-1.137-0.17-1.718	C140.654,79.466,139.711,74.289,139.033,69.086L139.033,69.086z"/><path style="fill-rule:evenodd;clip-rule:evenodd;fill:#EDDF3F;" d="M54.111,88.877c0.193-0.387,0.363-0.773,0.46-1.137	c1.331-4.524,2.3-9.557,2.856-14.88c0-0.024,0-0.072,0-0.193c0.121,0.411,0.339,0.871,0.678,1.403	c1.404,2.226,2.3,4.307,3.268,0.847c-0.75,3-0.267,3.726,0.557,4.718c-0.024,0.024-0.024,0.024-0.024,0.049	c-1.258,2.347-2.227,5.662-2.663,9.412c-0.145,1.307-0.218,2.613-0.218,3.847c0,0.097,0,0.169,0,0.266	c-0.823,0.436-1.671,1.5-2.324,2.928c-0.387-1.307-0.968-2.444-1.598-3.218C54.522,92.023,54.111,90.547,54.111,88.877	L54.111,88.877z M57.548,70.321c0.024-0.073,0.024-0.169,0.024-0.242c0.073-0.193,0.145-0.435,0.242-0.726	C57.717,69.716,57.645,70.031,57.548,70.321L57.548,70.321z"/><path style="fill-rule:evenodd;clip-rule:evenodd;fill:#EDDF3F;" d="M140.34,88.877c-0.193-0.387-0.363-0.773-0.461-1.137	c-1.307-4.524-2.299-9.557-2.855-14.88c0-0.024,0-0.072,0-0.193c-0.121,0.411-0.34,0.871-0.678,1.403	c-1.404,2.226-2.301,4.307-3.268,0.847c0.75,3,0.266,3.726-0.557,4.718c0.023,0.024,0.023,0.024,0.047,0.049	c1.234,2.347,2.203,5.662,2.639,9.412c0.17,1.307,0.242,2.613,0.242,3.847h-0.023c0,0.097,0,0.169,0,0.266	c0.822,0.436,1.67,1.5,2.324,2.928c0.387-1.307,0.969-2.444,1.598-3.218C139.953,92.023,140.34,90.547,140.34,88.877L140.34,88.877	z M136.902,70.321c0-0.073,0-0.169,0-0.242c-0.098-0.193-0.17-0.435-0.266-0.726C136.732,69.716,136.805,70.031,136.902,70.321	L136.902,70.321z"/><path style="fill-rule:evenodd;clip-rule:evenodd;" d="M59.243,75.861c0.121,0.169,0.218,0.314,0.314,0.484	c-0.411,3.581-0.992,7.162-1.815,10.67c-0.242,1.016-0.484,2.105-0.847,3.097v-0.097c0.024-0.557,0.048-1.138,0.121-1.718	C58.032,84.208,58.734,80.047,59.243,75.861L59.243,75.861z"/><path style="fill-rule:evenodd;clip-rule:evenodd;" d="M135.207,75.861c-0.096,0.169-0.217,0.314-0.314,0.484	c0.412,3.581,0.992,7.162,1.816,10.67c0.242,1.016,0.484,2.105,0.846,3.097v-0.097c0-0.557-0.047-1.138-0.119-1.718	C136.418,84.208,135.717,80.047,135.207,75.861L135.207,75.861z"/><path style="fill-rule:evenodd;clip-rule:evenodd;" d="M39.658,91.418c0.436-0.75,0.266-0.823,0.678-1.646	c-0.146,1.863-0.436,3.605-0.654,5.468c-1.138,6.774-1.622,10.573-3.946,16.548C38.012,105.232,39.005,99.16,39.658,91.418	L39.658,91.418z"/><path style="fill-rule:evenodd;clip-rule:evenodd;" d="M154.791,91.418c-0.436-0.75-0.266-0.823-0.678-1.646	c0.146,1.863,0.438,3.605,0.678,5.468c1.115,6.774,1.598,10.573,3.922,16.548C156.463,105.232,155.471,99.16,154.791,91.418	L154.791,91.418z"/><path style="fill-rule:evenodd;clip-rule:evenodd;" d="M42.66,70.998c0-0.024,0-0.024,0-0.024c0.169-0.218,0.339-0.46,0.508-0.702	c-0.218,1.354-0.436,2.831-0.629,3.798c-1.332,5.734-2.445,11.105-5.447,16.234C39.828,84.16,41.546,77.627,42.66,70.998	L42.66,70.998z"/><path style="fill-rule:evenodd;clip-rule:evenodd;" d="M151.814,70.998c0-0.024-0.025-0.024-0.025-0.024	c-0.168-0.218-0.338-0.46-0.482-0.702c0.193,1.354,0.41,2.831,0.605,3.798c1.33,5.734,2.469,11.105,5.445,16.234	C154.623,84.16,152.904,77.627,151.814,70.998L151.814,70.998z"/><path style="fill-rule:evenodd;clip-rule:evenodd;" d="M52.465,91.104c-0.194,2.831-0.388,6.291-0.582,8.082	c-1.453,13.186-2.784,25.766-5.955,38.42c3.002-15.219,4.914-30.752,6.149-46.211c0.024-0.024,0.024-0.024,0.048-0.024	C52.222,91.297,52.343,91.201,52.465,91.104L52.465,91.104z"/><path style="fill-rule:evenodd;clip-rule:evenodd;" d="M141.986,91.104c0.193,2.831,0.387,6.291,0.58,8.082	c1.453,13.186,2.785,25.766,5.98,38.42c-3.027-15.219-4.939-30.752-6.174-46.211c0-0.024-0.023-0.024-0.023-0.024	C142.229,91.297,142.107,91.201,141.986,91.104L141.986,91.104z"/><path style="fill-rule:evenodd;clip-rule:evenodd;" d="M57.572,94.66c0.073-0.169,0.169-0.29,0.315-0.459	c0.097,2.057,0.218,4.161,0.169,5.975c-0.387,9.654-0.75,19.139-2.88,28.453C56.967,117.404,57.597,106.008,57.572,94.66	L57.572,94.66z"/><path style="fill-rule:evenodd;clip-rule:evenodd;" d="M136.879,94.66c-0.049-0.169-0.17-0.29-0.291-0.459	c-0.121,2.057-0.242,4.161-0.193,5.975c0.387,9.654,0.75,19.139,2.881,28.453C137.508,117.404,136.854,106.008,136.879,94.66	L136.879,94.66z"/><path style="fill-rule:evenodd;clip-rule:evenodd;" d="M64.665,82.394c-0.387,3.242-1.041,6.483-1.574,9.726	c-0.193,1.041-0.363,2.129-0.677,3.146c-0.024-0.605-0.024-1.209,0.024-1.814c0.678-3.702,1.428-7.331,1.864-11.008	C64.423,82.466,64.544,82.466,64.665,82.394L64.665,82.394z"/><path style="fill-rule:evenodd;clip-rule:evenodd;" d="M129.809,82.394c0.363,3.242,1.018,6.483,1.574,9.726	c0.193,1.041,0.338,2.129,0.654,3.146c0.023-0.605,0.023-1.209-0.025-1.814c-0.652-3.702-1.404-7.331-1.863-11.008	C130.027,82.466,129.906,82.466,129.809,82.394L129.809,82.394z"/><path style="fill-rule:evenodd;clip-rule:evenodd;" d="M100.01,76.224c0.314,0.508,0.871,1.258,1.041,2.396	c0.168,1.112,0.096,1.718,0,2.83C101.051,80.216,100.01,77.458,100.01,76.224L100.01,76.224z"/><path style="fill-rule:evenodd;clip-rule:evenodd;" d="M104.342,74.216c0.557,0.266,1.479,0.629,2.203,1.524	c0.703,0.872,0.896,1.282,1.404,2.298C107.174,77.071,104.973,75.281,104.342,74.216L104.342,74.216z"/><path style="fill-rule:evenodd;clip-rule:evenodd;fill:#EDDF3F;stroke:#000000;stroke-width:0.4764;stroke-linecap:round;stroke-linejoin:round;stroke-miterlimit:2.6131;" d="	M71.419,63.619c4.479,2.008,13.678,2.25,17.042,2.25c1.283-0.024,3.946,0.484,5.083,0.944c3.269,1.912,6.125,2.928,6.681,3.653	c-1.5-0.919-3.074-1.669-6.076-1.645c-2.179-0.484-4.769-1.452-8.062-1.524C81.345,67.151,73.38,66.329,71.419,63.619	L71.419,63.619z"/><path style="fill:none;stroke:#000000;stroke-width:0.4764;stroke-linecap:round;stroke-linejoin:round;stroke-miterlimit:2.6131;" d="	M92.118,71.821c2.009,0.218,6.367-0.146,6.341,1.984 M92.118,71.821c2.009,0.218,5.519,0.024,5.326,2.202 M92.118,71.821	c2.009,0.218,4.599,0.146,4.236,2.468 M92.118,71.821c2.009,0.218,3.825,0.508,3.122,2.686 M92.118,71.821	c2.009,0.218,3.219,1.064,1.815,3.073 M90.205,56.651c2.445-0.072,3.171,1.064,3.849,1.572c-0.387,0.654-1.259,2.372-3.195,2.372	c-2.785,0.024-2.905-1.355-3.704-2.492C87.687,57.473,87.784,56.699,90.205,56.651 M90.52,60.595	c3.316,0.363,6.342,6.314,9.805,7.766c1.332,0.557,3.049,1.646,5.471,0.823c-2.324-1.137-0.629-2.25-3.025-3.532	c2.783,1.209,4.309,2.298,6.221,3.411c0.17-2.177-0.121-4.548-3.945-6.024c2.082,0.46,3.922,1.186,3.824,0.363	c-0.193-1.839-3.293-3.145-5.18-3.871c2.518-0.508,5.93,0.484,7.043,0.097 M94.005,58.175c0.436,0.362,1.065,0.774,1.598,1.04"/><path style="fill-rule:evenodd;clip-rule:evenodd;stroke:#000000;stroke-width:0.4764;stroke-linecap:round;stroke-linejoin:round;stroke-miterlimit:2.6131;" d="	M89.89,56.505c2.566,0.218,3.074-2.468,5.544-0.242c-0.63-0.798-1.259-1.186-2.203-1.307C92.214,54.836,90.859,55.828,89.89,56.505	L89.89,56.505z"/><path style="fill:none;stroke:#000000;stroke-width:0.4764;stroke-linecap:round;stroke-linejoin:round;stroke-miterlimit:2.6131;" d="	M108.627,62.651c0.533,1.162,1.139,2.081,3.268,2.032 M108.941,69.038c1.188,0.654,2.301,1.742,3.002,2.783 M105.746,69.159	c2.664,1.113,3.656,4.041,5.447,5.444 M82.313,55.683c1.719,0.774,2.614,2.854,2.445,4.79c0.992,0.581,2.639,0.484,4.938,0.024 M83.354,56.409c0.75,0.702,2.784,2.468,4.043,1.379"/><path style="fill-rule:evenodd;clip-rule:evenodd;" d="M82.289,58.151c0.581,0,0.146,0.992,0.63,1.403	c-0.605,0.218-1.695-0.048-2.033,0.992c-0.412-0.702-0.412-0.871-0.218-1.5C80.885,58.417,81.684,58.151,82.289,58.151	L82.289,58.151z"/><path style="fill-rule:evenodd;clip-rule:evenodd;" d="M90.205,56.651c0.678-0.024,1.21,0.048,1.646,0.169	c0.218,0.242,0.314,0.557,0.314,0.871c0,0.799-0.702,1.452-1.549,1.452c-0.871,0-1.573-0.653-1.573-1.452	c0-0.387,0.169-0.75,0.436-0.992C89.697,56.675,89.938,56.651,90.205,56.651L90.205,56.651z"/><path d="M64.508,84.559h65.433v48.546c0,6.986-3.154,13.543-8.689,19.234c-5.686,5.844-13.887,10.777-23.746,14.314h-0.512	c-9.874-3.537-18.088-8.471-23.782-14.316c-5.542-5.691-8.704-12.246-8.704-19.232V84.559L64.508,84.559z M66.033,86.083v47.022	c0,6.57,3.003,12.766,8.269,18.172c5.479,5.625,13.402,10.395,22.946,13.85c9.533-3.453,17.443-8.223,22.914-13.848	c5.258-5.406,8.256-11.604,8.256-18.174V86.083H66.033L66.033,86.083z"/><path style="fill-rule:evenodd;clip-rule:evenodd;fill:#FFFFFF;stroke:#000000;stroke-width:0.4764;stroke-linecap:round;stroke-linejoin:round;stroke-miterlimit:2.6131;" d="	M149.998,160.688c7.699,0,14.477,3.049,18.375,7.621c-0.945-0.266-1.961-0.436-3.002-0.508c-4.02-0.291-7.625,0.967-9.611,3.072	c5.254,3.072,8.957,7.742,9.998,12.969c-3.994-3.17-9.609-5.154-15.807-5.154c-2.518,0-4.939,0.34-7.191,0.92	c-1.887,0.387-3.801,0.557-5.471,0.484c-2.469-0.121-4.26-0.727-4.574-1.768c-0.34-0.99,0.773-2.08,2.613-3.023	c1.672-0.822,4.02-1.5,6.246-1.84c0.678-0.096,1.332-0.168,1.938-0.193c0.049,0,0.096,0,0.145-0.023	c0.459-0.049,0.943-0.145,1.453-0.266c1.113-0.291,2.08-0.703,2.711-1.137c0.145-0.121,0.291-0.219,0.41-0.34	c1.066-0.895,1.768-2.031,1.889-3.096c0-0.121,0.025-0.268,0-0.389h0.025c-0.049-1.016-0.121-2.057-0.219-3.096	c-0.121-1.428-0.314-2.832-0.557-4.211C149.588,160.711,149.805,160.688,149.998,160.688L149.998,160.688z"/><path style="fill-rule:evenodd;clip-rule:evenodd;fill:#FFFFFF;stroke:#000000;stroke-width:0.4764;stroke-linecap:round;stroke-linejoin:round;stroke-miterlimit:2.6131;" d="	M59.582,174.6c0.291,0.145,0.581,0.289,0.823,0.41c0.581,0.314,1.041,0.629,1.355,0.943v0.025c0.049,0.023,0.073,0.072,0.097,0.096	l0.024,0.025c0.048,0.023,0.072,0.072,0.072,0.096l0.049,0.049c0.024,0.023,0.024,0.049,0.049,0.072l0.048,0.049	c0,0.023,0.024,0.049,0.024,0.072l0.048,0.049c0,0.023,0,0.049,0.024,0.072l0.024,0.072c0,0,0,0.025,0.024,0.049v0.072	c0.024,0,0.024,0.025,0.024,0.049v0.072c0,0,0,0.023,0,0.049v0.072c0,0,0,0,0,0.023c-0.024,0.605-0.775,1.09-2.01,1.381	c-1.283,0.314-3.171,0.434-5.446,0.266c-0.63-0.049-1.259-0.121-1.889-0.193c-1.864-0.314-3.776-0.533-5.737-0.58	c-7.142-0.242-13.774,1.426-19.076,4.426c2.542-5.371,6.464-9.773,11.184-12.58c-2.493-1.984-5.81-3.193-9.465-3.193	c-2.179,0-4.26,0.459-6.124,1.232c5.761-5.371,14.162-9,23.675-9.678l-2.735,9.412v-0.023c0.17-0.389,0.654-0.654,1.38-0.799	h-0.072l-0.121,0.049l-0.121,0.023l-0.121,0.023l-0.121,0.049l-0.097,0.049l-0.097,0.025l-0.097,0.047l-0.073,0.049l-0.072,0.049	l-0.073,0.072l-0.073,0.049l-0.072,0.049l-0.048,0.072l-0.049,0.072l-0.048,0.049l-0.024,0.072l-0.048,0.121l-0.024,0.145v0.121	l0.024,0.145l0.024,0.146l0.048,0.145l0.073,0.145l0.097,0.17l0.097,0.145l0.145,0.17l0.122,0.17l0.169,0.168l0.17,0.17l0.193,0.17	l0.218,0.193l0.218,0.17l0.121,0.072l0.121,0.096l0.121,0.074l0.146,0.072l0.145,0.096l0.146,0.072l0.146,0.098l0.169,0.072	l0.17,0.098l0.169,0.072l0.17,0.096l0.193,0.074l0.169,0.096l0.194,0.072l0.218,0.098l0.193,0.072l0.219,0.098l0.193,0.072	l0.218,0.096l0.218,0.072l0.242,0.098l0.218,0.072l0.242,0.096l0.242,0.074l0.242,0.072l0.242,0.098l0.243,0.072l0.241,0.072	l0.267,0.072l0.242,0.072l0.266,0.072l0.266,0.098l0.146,0.023l0.121,0.049l0.145,0.023l0.145,0.049l0.146,0.025l0.121,0.047	l0.146,0.025l0.145,0.049l0.121,0.023l0.145,0.023l0.146,0.049l0.121,0.023l0.145,0.025l0.121,0.023l0.145,0.049l0.122,0.023	l0.242,0.049l0.242,0.049l0.218,0.049l0.218,0.047l0.242,0.049l0.194,0.049l0.218,0.072l0.217,0.049l0.194,0.049l0.218,0.049	l0.194,0.072l0.193,0.049l0.169,0.047l0.194,0.072l0.194,0.049l0.169,0.072l0.17,0.049l0.169,0.072l0.169,0.049l0.169,0.072	l0.145,0.049l0.17,0.072l0.145,0.049l0.146,0.072l0.145,0.072L59.582,174.6L59.582,174.6z"/><path style="fill-rule:evenodd;clip-rule:evenodd;fill:#FFFFFF;stroke:#000000;stroke-width:0.4764;stroke-linecap:round;stroke-linejoin:round;stroke-miterlimit:2.6131;" d="	M55.708,146.559c8.424,7.67,24.595,12.895,43.065,12.895c16.801,0,31.664-4.307,40.574-10.84v0.025	c0.773-0.557,1.814-0.896,2.93-0.896c1.961,0,3.654,1.064,4.236,2.518c1.742,4.475,2.928,9.412,3.412,14.662	c0.098,1.039,0.17,2.08,0.219,3.096h-0.025c0-0.797-0.387-1.451-0.992-1.863c-0.652-0.436-1.598-0.629-2.688-0.482	c-1.064,0.121-2.154,0.557-3.074,1.186c-0.072,0.049-0.121,0.096-0.193,0.145c-1.258,0.848-2.566,1.67-3.945,2.469	c-10.24,5.732-24.451,9.217-40.137,9.047c-13.703-0.145-26.436-3.047-36.434-7.766c-1.743-0.943-3.946-1.887-6.367-2.637	c-2.905-0.92-5.641-1.451-7.723-1.572c-2.106-0.098-3.583,0.193-3.922,0.943v0.023l5.979-20.469	c0.267-0.701,1.38-1.258,2.711-1.258C54.353,145.783,55.224,146.098,55.708,146.559L55.708,146.559z"/><path style="fill-rule:evenodd;clip-rule:evenodd;" d="M89.672,171.768c-0.097,0.121-0.314,0.363-0.605,0.727	c-0.121,0.098-0.605,0.459-0.774,0.531c-0.145,0.049-0.242,0.049-0.339,0.025c-0.243-0.025-0.46-0.193-0.678-0.484	c-0.29-0.387-0.363-0.943-0.242-1.67c0.121-0.604,0.363-1.426,0.75-2.418c0.266-0.703,0.436-0.871,1.017-1.404	c0.242-0.242,0.266-0.242,0.823-0.363c0.193-0.023,0.363-0.047,0.412-0.047c0.266,0.047,0.339,0.119,0.653,0.557	c0.048,0.096,0.072,0.119,0.097,0.119c0.097,0,0.146-0.023,0.17-0.023c0.169,0.266,0.193,0.266,0.605,0.338	c0.363,0.049,0.484,0.17,0.508,0.484c0.049,0.072,0.049,0.121,0.049,0.146c0,0.047-0.049,0.096-0.073,0.145	c-0.048,0.049-0.097,0.096-0.097,0.121l-0.048,0.289c0,0,0,0.049-0.073,0.121c-0.169,0.291-0.169,0.314-0.508,1.381	c-0.097,0.24-0.145,0.436-0.169,0.555c-0.048,0.195-0.048,0.363-0.048,0.51c0.048,0.314,0.121,0.506,0.266,0.531	c0.121,0.023,0.896-0.629,1.138-0.92c0.024-0.096,0.097-0.145,0.145-0.121c0.024,0,0.048,0.025,0.024,0.098	c0,0.023-0.024,0.098-0.048,0.193c-0.024,0.049-0.024,0.121-0.048,0.17c0,0.072-0.024,0.121-0.024,0.168c0,0.098,0,0.121,0,0.146	c-0.024,0.193-0.267,0.459-0.702,0.773c-0.169,0.098-0.267,0.146-0.363,0.146c0,0-0.121,0.047-0.291,0.145	c-0.048,0.049-0.169,0.072-0.338,0.096c-0.122,0-0.243,0-0.291,0.025c-0.024,0.023-0.048,0.023-0.072,0	c0,0-0.121-0.098-0.412-0.266C89.89,172.494,89.769,172.229,89.672,171.768L89.672,171.768z M90.132,167.607	c-0.097,0-0.194,0.047-0.267,0.217c0,0.025-0.072,0.072-0.169,0.219c-0.073,0.096-0.267,0.482-0.558,1.137	c-0.338,0.701-0.532,1.281-0.604,1.717c-0.049,0.291-0.049,0.533,0,0.727c0.024,0.193,0.072,0.266,0.145,0.289	c0.048,0,0.097-0.047,0.194-0.119c0.097-0.098,0.146-0.17,0.169-0.17c0.121-0.098,0.169-0.17,0.218-0.193	c0-0.023,0.048-0.121,0.145-0.266c0.218-0.387,0.339-0.678,0.363-0.775l0.073-0.193l0.073-0.291	c0.048-0.047,0.072-0.121,0.097-0.193c-0.024-0.072,0.024-0.193,0.097-0.338c0.121-0.291,0.194-0.533,0.242-0.701	c0.048-0.17,0.097-0.291,0.121-0.314c0.024-0.146,0.024-0.291,0-0.436c-0.024-0.098-0.024-0.098-0.193-0.17	C90.181,167.654,90.157,167.631,90.132,167.607L90.132,167.607z"/><path style="fill-rule:evenodd;clip-rule:evenodd;" d="M86.404,165.236l-0.169-0.049l-0.242-0.049	c-0.146-0.023-0.412-0.338-0.508-0.58c-0.097-0.145-0.097-0.314-0.048-0.461c0.048-0.168,0.145-0.338,0.314-0.557	c0.097-0.119,0.218-0.191,0.339-0.168c0.073-0.023,0.17-0.023,0.363-0.023l0.194,0.096c0.314,0.121,0.314,0.121,0.412,0.291	c0.169,0.291,0.169,0.217,0.121,0.557c-0.024,0.168-0.024,0.266-0.024,0.289c-0.024,0.072-0.049,0.098-0.121,0.193	c-0.121,0.074-0.193,0.146-0.242,0.17C86.549,165.236,86.501,165.283,86.404,165.236L86.404,165.236z"/><path style="fill-rule:evenodd;clip-rule:evenodd;" d="M85.557,172.592l-0.218-0.025h-0.218c-0.218-0.023-0.557-0.41-0.75-0.799	c-0.122-0.314-0.17-0.629-0.146-0.943c0.024-0.193,0.049-0.41,0.098-0.652c0.097-0.484,0.145-0.799,0.169-0.943	c0.024-0.146,0.024-0.314,0.073-0.484c0.097-0.629,0.073-0.533,0.218-1.016c0.048-0.074,0.073-0.17,0.073-0.242	c0.024-0.193,0.024-0.193-0.097-0.34l0.024-0.072c0-0.023,0-0.049,0.024-0.121c0-0.047,0.146-0.145,0.218-0.121l0.17,0.049	c0,0,0.048-0.023,0.121-0.049c0.121-0.096,0.314-0.096,0.605-0.072c0.072,0,0.121,0.049,0.217,0.146	c0.073,0.145,0.242,0.289,0.387,0.459c0.073,0.049,0.098,0.096,0.073,0.17c0,0.047-0.049,0.145-0.17,0.266	c-0.048,0.096-0.097,0.291-0.145,0.605c-0.048,0.096-0.121,0.387-0.266,0.918c-0.121,0.387-0.194,0.75-0.242,1.113	c-0.073,0.701,0.048,1.064,0.314,1.088c0.194,0.025,0.509-0.217,0.702-0.531c0.169-0.266,0.267-0.387,0.291-0.387	c0.073,0,0.073,0.072,0.073,0.24c0,0.025-0.024,0.074-0.049,0.123c0,0.047,0,0.096,0,0.121l-0.048,0.41	c0,0.023-0.024,0.096-0.122,0.193l-0.072,0.121l-0.169,0.145l-0.072,0.074l-0.17,0.072l-0.291,0.266l-0.169,0.049	C85.775,172.566,85.629,172.592,85.557,172.592L85.557,172.592z"/><path style="fill-rule:evenodd;clip-rule:evenodd;" d="M82.362,170.582c-0.388,0.51-0.388,0.51-1.211,1.016	c-0.145,0.123-0.29,0.195-0.387,0.17c-0.097-0.023-0.339-0.121-0.654-0.266c-0.145-0.096-0.145-0.096-0.363-0.654	c-0.145-0.361-0.193-0.797-0.121-1.209c0.024-0.145,0.097-0.314,0.121-0.482c0.097-0.412,0.17-0.654,0.17-0.703l0.169-0.773	c0-0.049,0.048-0.145,0.097-0.266c0.048-0.219,0.217-0.775,0.459-1.67c0.581-2.08,0.436-1.598,0.678-2.178	c0.048-0.049,0.048-0.121,0.072-0.217c0,0,0.024-0.049,0.121-0.146c0,0-0.024-0.023-0.024-0.072	c-0.024-0.023-0.024-0.121-0.024-0.242c-0.048-0.145-0.073-0.242-0.048-0.266c0-0.023,0.024-0.072,0.097-0.146	c0.048-0.314,0.024-0.289,0.436-0.338c0.073,0,0.146-0.049,0.242-0.096c0.073-0.049,0.363-0.025,0.484,0	c0.193,0.023,0.363,0.119,0.533,0.361c0.072,0.121,0.121,0.219,0.097,0.268l-0.048,0.217c0,0.025,0,0.049,0,0.072	c0.048,0.049,0.072,0.072,0.072,0.098l-0.048,0.096v0.121c0,0.025-0.072,0.098-0.218,0.17c-0.048,0.049-0.097,0.17-0.169,0.412	c-0.024,0.023-0.073,0.121-0.146,0.314c-0.097,0.168-0.29,0.725-0.557,1.621c-0.121,0.41-0.314,0.918-0.532,1.5	c-0.194,0.41-0.291,0.676-0.291,0.773c-0.097,0.459-0.29,1.766-0.29,1.936c0.024,0.34,0.096,0.533,0.314,0.58	c0.121,0.025,0.267-0.096,0.412-0.41c0.024-0.098,0.097-0.242,0.242-0.412c0.073-0.072,0.097-0.145,0.097-0.193	c0.024-0.023,0-0.072,0-0.17c0-0.145,0.024-0.436,0.121-0.895c0.122-0.652,0.146-1.113,0.073-1.307	c-0.049-0.217-0.097-0.338-0.121-0.387c-0.049-0.072-0.049-0.098-0.049-0.098c0-0.023,0.073-0.096,0.267-0.242	c0.097-0.096,0.266-0.168,0.484-0.217c0.121-0.072,0.218-0.098,0.242-0.098l0.169,0.074h0.121c0.146,0.023,0.557,0.822,0.532,1.016	l-0.096,0.291l-0.048,0.168c-0.291,1.018-0.218,0.775-0.388,1.09c0-0.025-0.024,0.072-0.121,0.24	c-0.097,0.363-0.218,0.605-0.339,0.75c-0.072,0.098-0.121,0.17-0.145,0.242c0,0.049,0.048,0.121,0.097,0.242	c0,0.074,0.024,0.074,0.194,0.098l0.314,0.121c0.121,0.023,0.412-0.17,0.896-0.605c0.024-0.049,0.048-0.072,0.048-0.072	c0.024,0.023,0.048,0.072,0.024,0.145c-0.024,0.098-0.024,0.17-0.073,0.242c0,0.072-0.024,0.121-0.024,0.193	c-0.024,0.049-0.024,0.121-0.049,0.193c0,0.049-0.024,0.098-0.024,0.121c-0.024,0.098-0.145,0.193-0.436,0.363	c-0.266,0.145-0.533,0.193-0.727,0.145C82.87,171.188,82.821,171.139,82.362,170.582L82.362,170.582z"/><path style="fill-rule:evenodd;clip-rule:evenodd;" d="M77.108,166.229c-0.048,0.119-0.121,0.314-0.242,0.604	c-0.121,0.363-0.605,1.162-0.896,1.428c-0.266,0.314-0.436,0.484-0.436,0.533c-0.121,0.121-0.169,0.168-0.218,0.168	c-0.048-0.023-0.072-0.072-0.048-0.145c0-0.023,0.048-0.096,0.073-0.217c0.048-0.025,0.048-0.074,0.072-0.121	c0.024-0.121,0.049-0.219,0.049-0.314c0-0.049,0.024-0.121,0.048-0.17c0-0.072,0.073-0.193,0.169-0.363	c0.072-0.121,0.145-0.291,0.218-0.533c0.145-0.434,0.242-0.652,0.266-0.652c0.048-0.121,0.097-0.17,0.097-0.193	c0.024-0.098,0.024-0.266-0.024-0.533c-0.024-0.193-0.049-0.289-0.024-0.361l0.146-0.484l0.121-0.363l0.146-0.531l0.048-0.146	c0-0.072,0-0.072,0.194-0.121l0.218-0.121c0.194-0.049,0.315-0.096,0.339-0.096c0,0,0.048,0.023,0.072,0.072	c0.024,0.049,0.097,0.072,0.145,0.098c0.267,0.096,0.267,0.119,0.218,0.387c-0.024,0.047-0.048,0.121-0.121,0.193	c-0.024,0.023-0.097,0.193-0.242,0.508c0.024,0.049,0.024,0.072,0.024,0.072l-0.048,0.121c0,0.049,0.048,0.098,0.145,0.121	c0.314,0.072,0.726-0.023,0.944-0.193c0.097-0.072,0.097-0.072,0.387-0.049c0.024,0,0.073,0.072,0.121,0.145	c0.146,0.195,0.146,0.195,0.509,0.412c0.048,0.023,0.145,0.121,0.169,0.242c0.024,0.096,0.073,0.17,0.073,0.17	c-0.218,0.121-0.315,0.217-0.339,0.289c-0.121,0.219-0.17,0.363-0.218,0.412c-0.024,0.049-0.073,0.096-0.097,0.193	c-0.097,0.17-0.169,0.242-0.169,0.291l-0.048,0.217c-0.024,0.072-0.073,0.17-0.194,0.34c-0.048,0.24-0.121,0.434-0.193,0.629	c-0.098,0.168-0.146,0.361-0.194,0.557c-0.169,0.629-0.097,0.797,0.388,0.967l0.121,0.049c0.048,0.023,0.146-0.072,0.242-0.193	c0.363-0.242,0.267-0.146,0.532-0.412c0.049-0.072,0.073-0.098,0.097-0.098c0.049,0,0.097,0.074,0.073,0.195l-0.121,0.314	c-0.121,0.482-0.121,0.482-0.314,0.629c-0.63,0.436-1.404,0.799-1.671,0.725c-0.146-0.049-0.581-0.314-0.702-0.482	c-0.122-0.17-0.218-0.363-0.267-0.582c-0.097-0.289-0.121-0.531-0.073-0.701c0.169-0.75,0.267-1.039,0.484-1.5l0.387-0.871	c0.097-0.145,0.145-0.217,0.145-0.242c0.024-0.072-0.072-0.266-0.121-0.266c-0.024-0.023-0.072,0-0.145,0	C77.35,166.301,77.253,166.301,77.108,166.229L77.108,166.229z"/><path style="fill-rule:evenodd;clip-rule:evenodd;" d="M72.969,163.131c0.218,0.023,0.024,0.072,0.775-0.121	c0.169,0,0.436,0.023,0.798,0.049l0.484,0.049c0.122,0.023,0.242,0.145,0.387,0.387c0.097,0.145,0.194,0.289,0.315,0.41	c0.121,0.17,0.218,0.92,0.121,1.379c-0.097,0.559-0.436,1.139-0.775,1.381c-0.605,0.459-0.605,0.434-0.774,0.482	c-0.17,0.049-0.267,0.074-0.291,0.074c-0.024,0-0.048,0-0.097,0c-0.072,0.023-0.169,0.023-0.218,0.023	c-0.048-0.023-0.169-0.049-0.387-0.121c-0.048-0.025-0.121-0.049-0.146-0.049c-0.097-0.023-0.145,0.049-0.169,0.146	c-0.097,0.58,0.169,1.16,0.63,1.232c0.314,0.072,0.629,0,1.041-0.168c0.073-0.025,0.218-0.121,0.46-0.316	c0,0,0.072-0.047,0.218-0.145c0.193-0.121,0.314-0.217,0.363-0.266c0.073-0.121,0.146-0.193,0.194-0.242	c0.072-0.049,0.121-0.072,0.145-0.072s0.048,0.049,0.024,0.096c0,0.025,0,0.074-0.024,0.121c-0.024,0.025-0.024,0.098-0.048,0.146	c0,0.047,0,0.145-0.024,0.242c0,0.096-0.023,0.168-0.023,0.242c-0.049,0.266-0.509,0.652-1.017,0.869	c-0.146,0.072-0.363,0.219-0.654,0.412c-0.218,0.145-0.992,0.242-1.428,0.17c-0.291-0.049-0.581-0.268-0.872-0.629	c-0.169-0.242-0.29-0.412-0.339-0.533c-0.169-0.363-0.218-0.799-0.121-1.307c0.218-1.137,0.436-1.814,1.041-3.145	C72.702,163.615,72.848,163.373,72.969,163.131L72.969,163.131z M74.542,163.736l-0.096-0.072	c-0.097-0.025-0.363,0.387-0.702,1.186c-0.315,0.725-0.509,1.209-0.557,1.451c0,0.096,0,0.096,0.121,0.145	c0.024,0.023,0.048,0.049,0.097,0.072c0.073,0.049,0.097,0.072,0.121,0.072c0.339,0.074,0.968-0.943,1.162-1.861	c0.048-0.242,0.024-0.461,0.024-0.701C74.688,163.857,74.688,163.832,74.542,163.736L74.542,163.736z"/><path style="fill-rule:evenodd;clip-rule:evenodd;" d="M69.604,163.35c0.122-0.098,0.291-0.268,0.533-0.436	c0.073-0.049,0.121-0.123,0.169-0.195c0.048-0.096,0.63-0.072,0.993,0.049c0.218,0.072,0.242,0.098,0.46,0.436	c0.048,0.098,0.097,0.193,0.145,0.219c0.122,0.557,0.024,1.258-0.242,2.129c-0.267,0.871-0.363,1.039-1.065,1.91l-0.121,0.146	l-0.387,0.217l-0.218,0.17l-0.218,0.049c-0.097,0.023-0.217,0.072-0.29,0.096c-0.146,0.049-0.194,0.072-0.194,0.072l-0.267-0.145	c0,0-0.024,0.025-0.096,0c-0.024,0.025-0.097,0-0.146-0.023c-0.146-0.025-0.242-0.098-0.314-0.146	c-0.073-0.072-0.121-0.096-0.146-0.096c-0.049-0.025-0.169,0.049-0.169,0.072l0.024,0.242l-0.217,0.459l-0.048,0.266l-0.17,0.557	c-0.048,0.219-0.097,0.436-0.146,0.654c-0.024,0.049-0.024,0.121,0,0.217c-0.024,0.146-0.024,0.242-0.024,0.242	c0,0.025-0.073,0.072-0.218,0.098c-0.169,0.047-0.291,0.072-0.315,0.047c-0.145-0.023-0.218-0.119-0.266-0.266	c-0.024-0.145,0.048-0.072-0.242-0.289c-0.024-0.049-0.097-0.195-0.17-0.436c-0.024-0.098-0.048,0.072,0.267-1.525l0.29-0.773	l0.484-1.646l0.654-1.959l0.266-0.871c0.242-0.508,0.363-0.822,0.363-0.871c0.024-0.072,0.048-0.168,0.097-0.266	c0-0.098,0.024-0.17,0.024-0.193c0.024-0.072,0.048-0.146,0.097-0.193c0-0.049,0.048-0.098,0.048-0.146	c0.024-0.047,0-0.121-0.048-0.193c-0.024,0-0.024-0.023-0.024-0.049c0.024-0.072,0.073-0.072,0.218-0.096c0.072,0,0.145,0,0.193,0	c0.243-0.049,0.387-0.072,0.412-0.072c0.024,0.023,0.048,0.023,0.146,0.072c0.048,0.049,0.169,0.096,0.387,0.145	c0.121,0.049,0.169,0.121,0.217,0.219c0.073,0.266,0.121,0.41,0.121,0.436c0,0.023-0.048,0.049-0.121,0.096	c-0.121,0.121-0.097,0.074-0.193,0.34c0,0.047-0.072,0.145-0.169,0.338c-0.145,0.193-0.242,0.412-0.315,0.678	C69.628,163.18,69.628,163.227,69.604,163.35L69.604,163.35z M68.394,166.906c0.121,0.096,0.169,0.168,0.194,0.191	c0.048,0.049,0.048,0.074,0.048,0.074h0.169l0.096,0.072c0,0,0.025,0,0.049-0.023c0.024-0.025,0.073-0.074,0.169-0.146	c0.267-0.168,0.291-0.193,0.557-0.895l0.218-0.461l0.121-0.289l0.194-0.654l0.145-0.436c0.048-0.193-0.048-0.482-0.169-0.531	c-0.121-0.025-0.315,0.121-0.63,0.436c-0.291,0.338-0.291,0.338-0.436,0.678c0,0.047-0.097,0.266-0.242,0.629	C68.732,165.865,68.611,166.324,68.394,166.906L68.394,166.906z"/><path style="fill-rule:evenodd;clip-rule:evenodd;" d="M64.738,164.582c-0.557,0.484-0.968,0.775-1.21,0.896	c-0.242,0.096-0.629,0.121-0.847,0.047c-0.048-0.023-0.097-0.047-0.169-0.121c-0.048-0.072-0.097-0.121-0.218-0.168	c-0.097-0.049-0.169-0.387-0.217-1.018c0-0.266,0.048-0.555,0.145-0.822c0.267-0.678,0.46-1.186,0.63-1.451	c0.097-0.17,0.145-0.217,0.145-0.242l0.242-0.654c0.073-0.168,0.146-0.312,0.242-0.387c0.073-0.072,0.121-0.121,0.121-0.121	l0.024-0.314l0.097-0.217l0.193-0.533c0.049-0.168,0.412-0.314,0.581-0.242c0.024,0,0.073,0.025,0.097,0.049	c0.073,0.025,0.122,0.074,0.146,0.074c0.097,0.047,0.218,0.023,0.339,0c0.049-0.025,0.073-0.049,0.073-0.049l0.145,0.145	l0.049,0.049c0.242,0.58,0.218,0.58,0.169,0.652c-0.024,0.072-0.048,0.146-0.122,0.219c-0.048,0.072-0.097,0.098-0.097,0.098	l-0.024,0.191c-0.024,0.025-0.048,0.049-0.097,0.074c-0.121,0.072-0.242,0.266-0.363,0.604c-0.024,0.072-0.266,0.484-0.654,1.211	c-0.169,0.314-0.314,0.629-0.436,0.967c-0.121,0.34-0.169,0.557-0.145,0.75c0.024,0.17,0.073,0.266,0.121,0.266	c0.073,0.049,0.169,0,0.315-0.119c0.315-0.268,0.46-0.412,0.484-0.461c0.194-0.242,0.388-0.58,0.581-0.967	c0.291-0.557,0.436-0.871,0.46-0.896c0.218-0.361,0.339-0.652,0.436-0.895c0-0.023,0-0.049,0.024-0.049c0-0.098,0-0.145,0-0.145	l0.073-0.145c-0.048-0.121-0.024-0.195-0.024-0.242c0.048-0.098,0.097-0.145,0.146-0.193c0.121-0.098,0.194-0.121,0.218-0.098	l0.193,0.072c0.097,0.049,0.218,0.098,0.29,0.145c0.097,0.098,0.218,0.146,0.267,0.17c0.024,0,0.097,0.049,0.266,0.072	c0.048-0.023,0.073,0,0.097,0c0.073,0.049,0.097,0.074,0.073,0.121l-0.097,0.193c0,0.025,0.024,0.146,0.073,0.34	c0.024,0.049,0,0.072,0,0.121c-0.024,0.049-0.097,0.096-0.194,0.17c-0.024,0-0.072,0.121-0.169,0.338	c-0.024,0.049-0.145,0.266-0.363,0.605c-0.242,0.387-0.411,0.678-0.508,0.943l-0.243,0.58c-0.121,0.338-0.024,0.895,0.17,0.992	c0.218,0.072,0.532-0.145,1.089-0.654c0.072-0.072,0.121-0.096,0.145-0.096c0.024,0.023,0.049,0.072,0.024,0.193	c0,0-0.097,0.266-0.291,0.773c-0.024,0.074-0.121,0.121-0.315,0.219c-0.121,0.049-0.266,0.121-0.411,0.17	c-0.097,0.023-0.146,0.049-0.194,0.072c-0.363,0.168-0.194,0.121-0.605,0.168c-0.17,0.025-0.267,0.025-0.339,0	C64.883,165.865,64.689,165.43,64.738,164.582L64.738,164.582z"/><path style="fill-rule:evenodd;clip-rule:evenodd;" d="M61.688,154.977c-0.024,0-0.097-0.023-0.242-0.047	c-0.121-0.025-0.146-0.074-0.169-0.074c-0.194-0.072-0.46,0-0.823,0.193c-0.387,0.195-0.629,0.484-0.726,0.824	c-0.17,0.531-0.049,0.967,0.557,1.766c0.267,0.412,0.799,1.088,1.574,2.033c0.508,0.629,0.702,1.523,0.484,2.225	c-0.097,0.314-0.145,0.314-0.75,0.943c-0.557,0.51-0.654,0.557-1.186,0.75c-0.605,0.219-1.283,0.219-1.937,0	c-0.823-0.266-1.428-0.725-1.768-1.354c-0.29-0.533-0.436-1.379-0.314-1.766c0.024-0.074,0.097-0.123,0.242-0.146	c0.097-0.023,0.169-0.072,0.169-0.121c0,0,0.024-0.023,0-0.072c0.024-0.023,0.024-0.072,0.024-0.098	c0.073-0.168,0.169-0.217,0.291-0.193c0.097,0.049,0.145,0.098,0.145,0.193c0.024,0.098,0,0.049,0.097,0.146	c0.049,0.047,0.073,0.121,0.049,0.266c0.024,0.17,0.267,0.629,0.509,0.943c0.314,0.363,0.75,0.629,1.283,0.799	c0.314,0.096,0.557,0.145,0.75,0.145c0.145,0,0.291,0,0.363,0.025c0.122,0,0.122,0.047,0.218-0.17l0.339-0.605	c0-0.023-0.146-0.338-0.484-0.895c-0.363-0.629-0.436-0.727-1.138-1.525c-0.653-0.797-1.065-1.426-1.187-1.934	c-0.121-0.484-0.096-0.992,0.073-1.525c0.388-1.209,1.138-1.766,2.421-1.887c0.411-0.049,0.411-0.049,1.403,0.168	c0.46,0.195,0.751,0.34,0.824,0.412s0.097,0.121,0.097,0.121l0.339,0.023c0.024-0.023,0.194,0.242,0.218,0.314	c0.048,0.098,0.048,0.219,0.024,0.389c-0.097,0.531-0.073,0.361-0.073,1.258c0,0.531,0,0.799,0,0.822	c-0.024,0.145-0.146,0.193-0.339,0.145c-0.073,0-0.218,0.049-0.363,0.121c-0.121,0.072-0.242,0.072-0.339,0.049	c-0.072-0.023-0.121-0.049-0.193-0.098c-0.072-0.047-0.146-0.072-0.17-0.072c-0.169-0.072-0.169-0.049-0.193-0.678	c-0.024-0.121,0-0.459,0.024-0.918c0-0.412,0.024-0.58,0.048-0.605C61.905,155.074,61.881,155.049,61.688,154.977L61.688,154.977z"	/><path style="fill-rule:evenodd;clip-rule:evenodd;" d="M142.494,160.518c-0.023,0.145-0.098,0.459-0.17,0.92	c-0.047,0.145-0.314,0.678-0.436,0.822c-0.096,0.121-0.17,0.17-0.266,0.193c-0.219,0.072-0.484,0.023-0.799-0.121	c-0.436-0.193-0.75-0.652-0.992-1.355c-0.17-0.58-0.34-1.426-0.461-2.467c-0.096-0.773-0.023-0.992,0.219-1.742	c0.096-0.314,0.121-0.314,0.557-0.678c0.17-0.145,0.289-0.242,0.338-0.266c0.268-0.072,0.34-0.049,0.824,0.193	c0.072,0.049,0.121,0.072,0.145,0.072c0.072-0.072,0.121-0.096,0.121-0.121c0.266,0.17,0.291,0.146,0.678,0.025	c0.34-0.121,0.508-0.074,0.654,0.168c0.072,0.074,0.121,0.098,0.121,0.121c0.023,0.049,0,0.098,0,0.146	c-0.025,0.096-0.025,0.145-0.025,0.168l0.098,0.268c0,0,0,0.049-0.025,0.145c0,0.363,0,0.387,0.195,1.451	c0.047,0.266,0.072,0.461,0.121,0.582c0.047,0.191,0.121,0.338,0.193,0.459c0.193,0.291,0.338,0.412,0.484,0.363	c0.121-0.049,0.484-0.992,0.531-1.355c0-0.098,0.025-0.17,0.072-0.17c0.025-0.023,0.049,0,0.074,0.072	c0.023,0.025,0.023,0.098,0.049,0.195c0,0.047,0.023,0.119,0.047,0.168c0.025,0.072,0.049,0.121,0.049,0.17	c0.049,0.072,0.074,0.098,0.074,0.121c0.047,0.193-0.025,0.531-0.268,1.016c-0.098,0.145-0.145,0.242-0.242,0.314	c0,0-0.072,0.074-0.17,0.242c-0.023,0.072-0.121,0.145-0.266,0.242c-0.098,0.072-0.193,0.121-0.219,0.168	c-0.023,0.025-0.047,0.025-0.072,0.049c0,0-0.145-0.023-0.484-0.049C143.051,161.049,142.809,160.857,142.494,160.518	L142.494,160.518z M140.994,156.623c-0.098,0.047-0.121,0.145-0.121,0.314c0,0.023-0.025,0.096-0.049,0.266	c-0.023,0.145-0.023,0.557,0.049,1.283c0.047,0.773,0.121,1.379,0.266,1.789c0.072,0.266,0.193,0.484,0.34,0.654	c0.096,0.145,0.168,0.193,0.24,0.168c0.049-0.023,0.074-0.072,0.121-0.193c0.025-0.145,0.049-0.217,0.074-0.217	c0.047-0.146,0.072-0.242,0.072-0.291c0-0.023,0-0.121,0.023-0.289c0-0.461-0.023-0.75-0.049-0.873l-0.023-0.191l-0.072-0.291	c0-0.072,0-0.145-0.025-0.219c-0.023-0.047-0.047-0.168-0.047-0.338c-0.025-0.314-0.074-0.557-0.121-0.75	c-0.025-0.17-0.025-0.291-0.049-0.314c-0.049-0.146-0.098-0.266-0.193-0.387c-0.049-0.074-0.049-0.074-0.242-0.074	C141.066,156.646,141.018,156.623,140.994,156.623L140.994,156.623z"/><path style="fill-rule:evenodd;clip-rule:evenodd;" d="M136.562,157.373l-0.145,0.047l-0.217,0.121	c-0.121,0.074-0.533,0-0.775-0.121c-0.17-0.047-0.266-0.168-0.34-0.312c-0.072-0.146-0.121-0.34-0.121-0.631	c0.025-0.145,0.049-0.289,0.17-0.361c0.025-0.025,0.098-0.098,0.268-0.219l0.191-0.072c0.34-0.098,0.34-0.098,0.51-0.023	c0.314,0.096,0.266,0.047,0.459,0.338c0.074,0.121,0.146,0.193,0.146,0.219c0.023,0.072,0.023,0.119,0.023,0.24	c-0.023,0.146-0.049,0.242-0.049,0.291C136.684,157.252,136.684,157.324,136.562,157.373L136.562,157.373z M139.492,163.445	l-0.193,0.096l-0.17,0.123c-0.193,0.096-0.701-0.049-1.064-0.314c-0.266-0.195-0.484-0.436-0.605-0.727	c-0.098-0.17-0.17-0.363-0.266-0.605c-0.17-0.459-0.268-0.75-0.34-0.895c-0.072-0.146-0.145-0.291-0.193-0.461	c-0.242-0.58-0.193-0.482-0.314-0.967c-0.025-0.098-0.049-0.193-0.072-0.266c-0.098-0.17-0.098-0.17-0.268-0.219l-0.023-0.072	c0-0.023,0-0.049-0.049-0.096c-0.023-0.049,0.072-0.219,0.146-0.242l0.168-0.049c0,0,0.025-0.049,0.072-0.121	c0.049-0.121,0.195-0.219,0.461-0.338c0.072-0.049,0.145-0.049,0.291,0c0.145,0.096,0.338,0.119,0.557,0.168	c0.096,0.025,0.121,0.049,0.17,0.121c0.023,0.049,0,0.145-0.025,0.314c0,0.121,0.072,0.314,0.17,0.605	c0.023,0.096,0.121,0.387,0.266,0.92c0.098,0.387,0.219,0.75,0.363,1.088c0.314,0.629,0.582,0.871,0.824,0.75	c0.168-0.072,0.338-0.436,0.338-0.822c0.023-0.291,0.023-0.461,0.049-0.484c0.049-0.023,0.121,0.023,0.193,0.193	c0,0.025,0.023,0.049,0.023,0.121c0.025,0.049,0.025,0.072,0.049,0.098l0.17,0.387c0.023,0.023,0.023,0.098,0,0.217v0.146	l-0.072,0.217l-0.025,0.098l-0.096,0.145l-0.121,0.387l-0.121,0.146C139.686,163.301,139.564,163.422,139.492,163.445	L139.492,163.445z"/><path style="fill-rule:evenodd;clip-rule:evenodd;" d="M135.014,162.744c0.025,0.145,0.072,0.242,0.098,0.314	c0.121,0.242,0.266,0.482,0.482,0.652c0.244,0.17,0.461,0.242,0.654,0.17c0.049-0.023,0.098-0.072,0.121-0.145	c0.072-0.049,0.121-0.098,0.193-0.146c0.049-0.023,0.195-0.289,0.389-0.799c0.096-0.361,0.096-0.314,0.145-0.773	c0-0.096,0.025-0.168,0.049-0.168c0.072-0.049,0.096-0.025,0.145,0.072c0,0.023,0,0.072,0.025,0.145l0.168,0.291	c0,0.023,0,0.023,0,0.047c0.098,0.219,0.121,0.242,0.072,0.461c-0.096,0.652-0.047,0.459-0.217,0.967	c-0.242,0.799-0.242,0.848-0.605,1.064l-0.531,0.363c-0.219,0.098-0.969,0-1.26-0.17c-0.291-0.145-0.75-0.629-0.945-1.016	c-0.07-0.17-0.508-1.16-1.305-3.025c-0.268-0.627-0.922-2.926-0.994-3.41c-0.049-0.338-0.096-0.557-0.121-0.629l-0.098-0.242	c-0.072-0.145-0.047-0.17,0.146-0.363c0.314-0.289,0.484-0.484,0.605-0.531c0.049,0,0.242-0.072,0.605-0.146	c0.121-0.047,0.072-0.047,0.168,0c0.025,0,0.146,0,0.291,0.025c0.291,0,0.631,0.291,1.064,0.918	c0.242,0.34,0.412,0.654,0.533,0.945C135.475,158.969,135.523,160.711,135.014,162.744L135.014,162.744z M134.506,161.607	c0.193-1.113,0.072-2.25-0.436-3.412c-0.049-0.121-0.219-0.508-0.533-1.088c-0.219-0.389-0.412-0.582-0.508-0.533	c-0.146,0.049-0.025,0.678,0.363,1.863C133.877,159.914,134.24,160.977,134.506,161.607L134.506,161.607z"/><path style="fill-rule:evenodd;clip-rule:evenodd;" d="M128.963,161.631c0.193-0.121,0.047,0.023,0.604-0.533	c0.121-0.121,0.363-0.24,0.703-0.387l0.436-0.217c0.098-0.049,0.266-0.023,0.508,0.121c0.17,0.072,0.314,0.145,0.484,0.168	c0.219,0.074,0.678,0.678,0.848,1.09c0.217,0.531,0.242,1.186,0.098,1.596c-0.268,0.703-0.291,0.678-0.412,0.824	c-0.098,0.121-0.17,0.217-0.193,0.217c-0.025,0-0.049,0.023-0.098,0.049c-0.049,0.047-0.098,0.121-0.145,0.121	c-0.074,0.023-0.193,0.072-0.412,0.121c-0.049,0-0.121,0.023-0.145,0.023c-0.074,0.025-0.098,0.121-0.049,0.242	c0.217,0.533,0.75,0.871,1.186,0.701c0.291-0.121,0.533-0.363,0.775-0.725c0.072-0.074,0.121-0.219,0.217-0.484	c0,0,0.049-0.098,0.121-0.266c0.098-0.195,0.146-0.34,0.146-0.412c0.023-0.145,0.023-0.242,0.047-0.314	c0.025-0.072,0.074-0.121,0.098-0.145c0,0,0.049,0.047,0.072,0.072c0,0.023,0.025,0.072,0.049,0.121	c-0.023,0.023,0,0.096,0.025,0.145c0.023,0.049,0.07,0.121,0.119,0.219c0.025,0.096,0.049,0.145,0.074,0.217	c0.096,0.242-0.049,0.848-0.363,1.283c-0.098,0.121-0.193,0.387-0.34,0.701c-0.098,0.242-0.701,0.75-1.113,0.895	c-0.266,0.121-0.629,0.098-1.064-0.049c-0.291-0.119-0.461-0.193-0.582-0.266c-0.338-0.217-0.605-0.58-0.799-1.041	c-0.436-1.088-0.605-1.766-0.822-3.217C128.986,162.162,128.986,161.873,128.963,161.631L128.963,161.631z M130.607,161.268h-0.121	c-0.096,0.049-0.096,0.508,0.049,1.355c0.121,0.799,0.219,1.307,0.314,1.549c0.049,0.096,0.049,0.096,0.193,0.047	c0.025,0,0.049,0.025,0.098,0.025c0.072,0,0.145,0,0.17-0.025c0.314-0.121,0.291-1.305-0.049-2.176	c-0.098-0.242-0.219-0.412-0.34-0.605C130.803,161.293,130.803,161.268,130.607,161.268L130.607,161.268z"/><path style="fill-rule:evenodd;clip-rule:evenodd;" d="M127.51,167.34c-0.025,0.146-0.098,0.461-0.17,0.92	c-0.049,0.146-0.291,0.701-0.412,0.848c-0.096,0.096-0.168,0.168-0.266,0.193c-0.217,0.072-0.484,0.049-0.822-0.098	c-0.461-0.193-0.799-0.629-1.041-1.307c-0.219-0.604-0.412-1.428-0.557-2.492c-0.121-0.75-0.074-0.967,0.168-1.717	c0.098-0.314,0.121-0.338,0.557-0.701c0.146-0.146,0.268-0.242,0.34-0.268c0.242-0.096,0.338-0.072,0.822,0.17	c0.098,0.049,0.121,0.049,0.146,0.049c0.096-0.049,0.121-0.098,0.145-0.098c0.266,0.121,0.291,0.121,0.703-0.023	c0.338-0.121,0.508-0.072,0.678,0.17c0.047,0.047,0.096,0.096,0.096,0.121c0.025,0.023,0.025,0.096,0.025,0.145	c-0.025,0.072-0.049,0.145-0.025,0.17l0.098,0.266c0,0,0.023,0.049,0,0.121c0,0.363,0,0.387,0.242,1.451	c0.023,0.266,0.072,0.459,0.121,0.582c0.072,0.168,0.145,0.338,0.217,0.459c0.193,0.266,0.363,0.387,0.51,0.338	c0.119-0.049,0.459-0.992,0.508-1.379c0-0.096,0.023-0.145,0.072-0.17c0.023,0,0.049,0,0.072,0.074	c0,0.023,0.025,0.096,0.049,0.193c0,0.047,0.023,0.121,0.049,0.168c0.023,0.074,0.049,0.121,0.072,0.17	c0.049,0.072,0.049,0.098,0.072,0.121c0.049,0.193-0.023,0.531-0.242,1.016c-0.096,0.17-0.17,0.266-0.242,0.314	c0,0-0.072,0.074-0.17,0.268c-0.023,0.072-0.121,0.145-0.266,0.266c-0.096,0.049-0.193,0.096-0.219,0.145	c-0.023,0.025-0.047,0.049-0.072,0.049c0,0-0.145-0.023-0.484-0.023C128.066,167.85,127.824,167.68,127.51,167.34L127.51,167.34z M125.84,163.494c-0.098,0.047-0.121,0.145-0.121,0.314c0,0.023-0.025,0.096-0.025,0.266c-0.023,0.145,0,0.557,0.072,1.283	c0.074,0.773,0.195,1.379,0.34,1.789c0.098,0.268,0.219,0.484,0.34,0.629c0.145,0.146,0.217,0.193,0.266,0.17	s0.072-0.072,0.121-0.193c0.023-0.145,0.049-0.217,0.072-0.242c0.049-0.145,0.072-0.217,0.072-0.266c0-0.023-0.023-0.121,0-0.291	c0-0.459-0.049-0.75-0.072-0.871l-0.023-0.193l-0.074-0.289c0-0.074,0-0.146-0.023-0.219c-0.049-0.072-0.072-0.193-0.072-0.338	c-0.049-0.314-0.098-0.557-0.146-0.75c-0.023-0.17-0.047-0.291-0.072-0.314c-0.047-0.121-0.121-0.268-0.193-0.389	c-0.072-0.072-0.072-0.072-0.266-0.049C125.912,163.494,125.863,163.494,125.84,163.494L125.84,163.494z"/><path style="fill-rule:evenodd;clip-rule:evenodd;" d="M120.9,166.615c0,0.121,0.049,0.338,0.121,0.652	c0.098,0.363,0.121,1.283,0.049,1.67c-0.072,0.412-0.121,0.629-0.098,0.678c-0.023,0.168-0.047,0.242-0.096,0.266	c-0.025,0.023-0.072-0.023-0.098-0.098c0-0.023,0-0.096-0.049-0.217c0-0.049,0-0.096-0.023-0.145	c-0.049-0.098-0.072-0.193-0.121-0.266c-0.023-0.049-0.049-0.123-0.072-0.17c-0.025-0.072-0.049-0.219-0.049-0.412	c0-0.121-0.049-0.314-0.096-0.557c-0.123-0.459-0.17-0.678-0.146-0.701c-0.023-0.121-0.023-0.193-0.049-0.219	c-0.023-0.096-0.121-0.24-0.289-0.434c-0.121-0.121-0.219-0.195-0.242-0.268l-0.146-0.482l-0.098-0.389l-0.168-0.531l-0.049-0.121	c-0.023-0.072-0.023-0.072,0.121-0.219l0.096-0.217c0.146-0.17,0.219-0.266,0.244-0.266c0,0,0.049,0,0.096,0	c0.049,0.047,0.121,0.023,0.193,0.023c0.242-0.072,0.291-0.049,0.363,0.193c0.025,0.049,0.025,0.121,0.025,0.242	c-0.025,0.023,0.023,0.219,0.072,0.557c0.049,0.023,0.049,0.049,0.049,0.049l0.047,0.121c0.025,0.047,0.074,0.047,0.193,0	c0.291-0.098,0.582-0.412,0.68-0.678c0.023-0.121,0.023-0.121,0.291-0.242c0.023-0.023,0.096,0,0.168,0.049	c0.242,0.072,0.242,0.072,0.654,0.072c0.072,0,0.193,0.023,0.266,0.096c0.098,0.074,0.17,0.098,0.17,0.098	c-0.121,0.217-0.145,0.363-0.145,0.436c0.047,0.242,0.072,0.412,0.072,0.459c-0.025,0.049,0,0.146,0.023,0.219	c0,0.193,0,0.289,0,0.338l0.072,0.193c0.025,0.072,0.049,0.193,0.049,0.412c0.072,0.217,0.121,0.436,0.17,0.629	c0.023,0.193,0.098,0.387,0.145,0.557c0.219,0.629,0.363,0.727,0.848,0.605l0.145-0.025c0.049-0.023,0.098-0.145,0.121-0.289	c0.146-0.412,0.121-0.291,0.195-0.654c0-0.072,0.023-0.121,0.047-0.121c0.025-0.023,0.098,0,0.146,0.121l0.072,0.314	c0.17,0.461,0.17,0.461,0.072,0.703c-0.291,0.725-0.727,1.451-0.969,1.523c-0.17,0.072-0.678,0.072-0.846,0	c-0.219-0.072-0.412-0.193-0.559-0.34c-0.266-0.193-0.387-0.387-0.459-0.531c-0.242-0.727-0.34-1.041-0.412-1.525l-0.145-0.943	c-0.025-0.193-0.025-0.266-0.025-0.289c-0.023-0.074-0.193-0.195-0.266-0.17c-0.023,0.023-0.023,0.049-0.096,0.096	C121.119,166.543,121.045,166.59,120.9,166.615L120.9,166.615z"/><path style="fill-rule:evenodd;clip-rule:evenodd;" d="M116.035,161.945l0.072,0.314c-0.023,0.145-0.049,0.266-0.072,0.387	c-0.023,0.145-0.023,0.291-0.049,0.436c0,0.098,0,0.219,0,0.314c0.025,0.193,0.049,0.387,0.098,0.557l0.049,0.219	c0.119,0.434,0.266,0.846,0.434,1.258c0.121,0.266,0.268,0.557,0.389,0.822l0.17-0.098l0.168-0.121l0.121-0.119l0.146-0.146	l0.096-0.145l0.098-0.17l0.096-0.17l0.049-0.168l0.072-0.193l0.025-0.17l0.023-0.219v-0.193l-0.023-0.217l-0.025-0.242l-0.072-0.34	c-0.049-0.119-0.072-0.217-0.121-0.338c-0.047-0.096-0.121-0.193-0.17-0.289c-0.072-0.098-0.121-0.17-0.193-0.268	c-0.096-0.072-0.17-0.145-0.242-0.217c-0.096-0.072-0.168-0.146-0.266-0.193l-0.193-0.098	C116.494,162.043,116.277,161.969,116.035,161.945L116.035,161.945z M115.646,161.922c-0.193,0-0.387,0.047-0.557,0.072	l-0.289,0.096l-0.291,0.098l-0.266,0.145l-0.242,0.145l-0.242,0.17l-0.219,0.219l-0.217,0.217c-0.146,0.17-0.268,0.363-0.389,0.557	l-0.096,0.145l-0.072,0.17l-0.074,0.145l-0.047,0.17l-0.049,0.17l-0.072,0.338l-0.025,0.17l-0.023,0.17l0.023,0.338l0.025,0.34	l0.049,0.168l0.047,0.193l0.072,0.193l0.074,0.146l0.072,0.17l0.096,0.119l0.098,0.146l0.098,0.096l0.121,0.098l0.119,0.072	l0.121,0.072l0.121,0.049l0.121,0.049l0.121,0.023h0.121h0.146l0.145-0.023l0.17-0.049c0.096-0.049,0.17-0.096,0.242-0.145	l0.17-0.121l0.387-0.363l0.145,0.629l-0.193,0.266c-0.072,0.098-0.145,0.193-0.242,0.268c-0.072,0.072-0.17,0.145-0.242,0.217	c-0.096,0.072-0.193,0.121-0.291,0.17l-0.193,0.096c-0.121,0.049-0.217,0.074-0.338,0.098l-0.193,0.049l-0.219,0.023l-0.217-0.023	l-0.195-0.025l-0.193-0.047l-0.193-0.074l-0.193-0.072l-0.17-0.121l-0.145-0.121l-0.17-0.145l-0.121-0.145l-0.121-0.193	l-0.121-0.195l-0.098-0.193l-0.072-0.217l-0.096-0.314c-0.025-0.146-0.049-0.268-0.049-0.387c0-0.17,0-0.34,0-0.51	c0-0.096,0.023-0.217,0.049-0.314c0.023-0.24,0.096-0.482,0.168-0.725l0.074-0.219c0.168-0.387,0.363-0.773,0.629-1.137	c0.098-0.145,0.193-0.266,0.314-0.387c0.17-0.193,0.34-0.387,0.533-0.557c0.17-0.121,0.338-0.266,0.508-0.387	s0.363-0.219,0.533-0.34c0.193-0.096,0.387-0.193,0.605-0.266c0.168-0.072,0.314-0.121,0.482-0.17	c0.146-0.047,0.291-0.072,0.436-0.096l0.316-0.049l0.314-0.025h0.314l0.291,0.025l0.289,0.072l0.291,0.072l0.268,0.121l0.24,0.146	l0.242,0.145l0.195,0.193l0.193,0.193l0.193,0.242l0.145,0.242l0.121,0.266l0.098,0.291l0.072,0.291l0.049,0.266v0.289v0.291	l-0.049,0.266l-0.072,0.268l-0.098,0.266l-0.121,0.242c-0.072,0.145-0.145,0.242-0.217,0.363c-0.098,0.119-0.17,0.242-0.291,0.338	c-0.098,0.121-0.193,0.217-0.314,0.314c-0.121,0.121-0.268,0.193-0.387,0.291c-0.17,0.121-0.34,0.217-0.533,0.314	c0.072,0.193,0.121,0.387,0.193,0.58c0.049,0.242,0.096,0.484,0.121,0.75l0.049,0.412v0.387l-0.049,0.41l-0.049,0.363l-0.096,0.363	l-0.123,0.363l-0.145,0.314l-0.193,0.314l-0.193,0.266l-0.219,0.266l-0.145,0.121l-0.121,0.098l-0.121,0.121l-0.145,0.072	l-0.146,0.098l-0.17,0.072l-0.145,0.072l-0.17,0.049l-0.168,0.047l-0.219,0.049l-0.242,0.023l-0.217,0.025l-0.219-0.025	l-0.217-0.023l-0.219-0.023l-0.193-0.049l-0.17-0.072l-0.193-0.096l-0.17-0.098l-0.145-0.098l-0.121-0.145l-0.121-0.145	l-0.098-0.146l-0.096-0.168l-0.049-0.195l-0.025-0.168v-0.195l0.049-0.193l0.074-0.168l0.096-0.145l0.145-0.146l0.146-0.096	l0.193-0.074l0.121-0.023l1.211,0.193l-0.533,0.459l-0.121,0.098l-0.072,0.072l-0.049,0.098l-0.023,0.072v0.072v0.098v0.096	l0.023,0.072l0.049,0.049l0.023,0.072l0.121,0.121l0.146,0.098l0.168,0.096l0.193,0.049h0.242h0.121h0.121l0.219-0.072	c0.121-0.023,0.193-0.049,0.291-0.098c0.096-0.049,0.168-0.096,0.266-0.168c0.072-0.049,0.145-0.121,0.217-0.193	c0.074-0.074,0.123-0.146,0.17-0.219c0.074-0.096,0.121-0.17,0.146-0.266c0.047-0.098,0.096-0.193,0.121-0.314	c0.023-0.098,0.047-0.219,0.072-0.34c0-0.121,0.023-0.242,0.023-0.363c0-0.145,0-0.266-0.023-0.387	c-0.025-0.145-0.049-0.289-0.072-0.436c-0.025-0.145-0.074-0.289-0.121-0.436c-0.268-0.822-0.605-1.596-0.873-2.395l-0.096-0.314	c-0.049-0.242-0.098-0.484-0.121-0.727c-0.025-0.193-0.049-0.41-0.049-0.604c0-0.219,0-0.412,0.023-0.605	c0.025-0.193,0.049-0.412,0.098-0.605c0.023-0.145,0.072-0.314,0.121-0.459c0.072-0.242,0.145-0.484,0.242-0.701L115.646,161.922	L115.646,161.922z"/><path style="fill-rule:evenodd;clip-rule:evenodd;" d="M102.648,172.518c0.023-0.193,0.023-0.387,0.023-0.58l0.023-3.92l1.43-0.652	l-0.025,0.629c-0.023,0.072-0.072,0.145-0.096,0.193c-0.025,0.098-0.025,0.17-0.049,0.242c0,0.219,0,0.436,0,0.652	c0.145-0.193,0.291-0.361,0.436-0.557l0.242-0.24l0.121-0.098l0.096-0.096l0.123-0.074l0.121-0.072l0.121-0.049l0.119-0.023	l0.146-0.023l0.193,0.023l0.193,0.096l0.17,0.123l0.121,0.145l0.096,0.193l0.074,0.193l0.047,0.217v0.219v2.902v0.17l0.025,0.121	l0.023,0.098l0.023,0.047c0.146-0.023,0.268-0.145,0.34-0.217c0.387-0.387,0.654-0.871,0.896-1.332	c0.145-0.312,0.289-0.627,0.412-0.943c0.119-0.338,0.24-0.652,0.361-0.99l0.533,0.338c-0.098,0.266-0.193,0.557-0.291,0.822	c-0.096,0.268-0.217,0.533-0.338,0.799c-0.121,0.242-0.242,0.484-0.363,0.701c-0.098,0.17-0.193,0.314-0.291,0.461	c-0.096,0.145-0.193,0.289-0.289,0.41c-0.098,0.121-0.195,0.242-0.291,0.34l-0.219,0.193c-0.098,0.096-0.193,0.168-0.314,0.242	l-0.193,0.119l-0.219,0.074l-0.121,0.023l-0.096,0.023h-0.121l-0.17-0.023l-0.17-0.098l-0.121-0.119l-0.096-0.146l-0.072-0.168	l-0.049-0.195l-0.049-0.193v-0.217v-2.83c0-0.17,0-0.314-0.049-0.461c-0.049-0.049-0.049-0.049-0.096-0.049	c-0.049,0-0.098,0.049-0.123,0.072c-0.193,0.17-0.361,0.412-0.508,0.631c-0.145,0.217-0.266,0.41-0.387,0.629v2.928l-1.549,0.676	v-0.701l0.096-0.121C102.6,172.906,102.623,172.711,102.648,172.518L102.648,172.518z"/><path style="fill-rule:evenodd;clip-rule:evenodd;" d="M97.395,172.711l0.072,0.121l0.098,0.121l0.121,0.098l0.145,0.096	l0.17,0.049l0.217,0.025c0.146,0.023,0.291,0,0.438,0l0.266-0.049l0.266-0.049l0.242-0.098l0.193-0.119l0.219-0.146l0.17-0.168	l0.168-0.195l0.123-0.217l0.145-0.268l0.096-0.266l0.098-0.314c0.023-0.193,0.072-0.361,0.096-0.531	c0.025-0.219,0.049-0.412,0.049-0.605c0.025-0.531,0-1.064,0-1.596c0-0.389-0.023-0.75,0-1.139c0-0.217,0.025-0.436,0.049-0.652	c0.025-0.193,0.049-0.412,0.098-0.605l0.072-0.242c0.17-0.557,0.412-1.088,0.701-1.572c-0.436,0.145-0.846,0.363-1.258,0.58	c-0.17,0.098-0.34,0.219-0.508,0.314c-0.17,0.121-0.316,0.242-0.461,0.363c-0.145,0.098-0.266,0.219-0.387,0.34l-0.219,0.242	l-0.17,0.24l-0.168,0.268l-0.098,0.242l-0.098,0.242l-0.047,0.24l-0.025,0.242l0.025,0.121v0.121l0.023,0.121l0.049,0.121	l0.047,0.098l0.049,0.096l0.074,0.098l0.047,0.072l0.074,0.072l0.096,0.072l0.072,0.072l0.098,0.049l0.096,0.023l0.098,0.025	l0.098,0.023h0.096h0.121l0.098-0.023l0.096-0.025l0.098-0.047l0.096-0.049l0.098-0.072l0.098-0.098l0.678-0.725l-0.291,1.475	l-0.049,0.146l-0.096,0.145l-0.146,0.121l-0.145,0.096l-0.17,0.072l-0.17,0.049l-0.193,0.025l-0.217,0.023l-0.195-0.023	l-0.193-0.025l-0.168-0.049l-0.17-0.047l-0.17-0.098l-0.145-0.096l-0.146-0.098l-0.145-0.121l-0.098-0.145l-0.096-0.145	l-0.098-0.17l-0.072-0.17l-0.072-0.168l-0.025-0.195l-0.023-0.193l-0.023-0.193v-0.193l0.023-0.17l0.023-0.168l0.049-0.17	l0.049-0.193l0.049-0.17l0.072-0.145l0.17-0.34l0.17-0.314l0.24-0.314l0.291-0.289l0.314-0.291l0.34-0.291l0.387-0.242l0.412-0.266	l0.436-0.242l0.484-0.217l0.508-0.219c0.242-0.096,0.508-0.193,0.75-0.266c0.098-0.121,0.195-0.217,0.316-0.291l0.072-0.049	l0.072-0.047h0.145l0.121,0.023l0.072,0.049l0.074,0.098v0.119v0.121l-0.025,0.074l-0.049,0.072l-0.096,0.145	c-0.072,0.049-0.121,0.098-0.17,0.121c-0.096,0.145-0.17,0.291-0.242,0.436c-0.049,0.145-0.096,0.291-0.145,0.436	c-0.025,0.145-0.072,0.291-0.098,0.459l-0.049,0.34c-0.023,0.289-0.047,0.604-0.047,0.895c0.023,0.605,0.096,1.209,0.168,1.814	c0.025,0.363,0.074,0.701,0.074,1.041c0.023,0.266,0,0.531-0.025,0.822l-0.072,0.41l-0.049,0.219l-0.121,0.412l-0.072,0.168	l-0.098,0.193l-0.096,0.195l-0.098,0.168l-0.096,0.17l-0.121,0.145l-0.121,0.17l-0.121,0.145l-0.146,0.146l-0.119,0.121	l-0.17,0.119l-0.146,0.121l-0.145,0.121l-0.17,0.098l-0.17,0.096l-0.193,0.074l-0.17,0.072l-0.193,0.072l-0.193,0.049l-0.193,0.049	l-0.193,0.047l-0.219,0.025h-0.193l-0.219,0.023l-0.217-0.023l-0.217-0.025l-0.195-0.023l-0.193-0.049l-0.193-0.072l-0.17-0.072	l-0.17-0.098l-0.168-0.096l-0.145-0.121l-0.122-0.121l-0.121-0.121l-0.097-0.145l-0.072-0.146l-0.048-0.168l-0.048-0.17v-0.17	v-0.217l0.072-0.193l0.073-0.195l0.121-0.168l0.121-0.121l0.17-0.121l0.169-0.072l0.194-0.025l0.193,0.025l0.193,0.047l0.219,0.098	l0.072,0.049l0.436,0.266l-0.484,0.314l-0.145,0.098l-0.098,0.072l-0.072,0.098l-0.049,0.07l-0.047,0.074v0.072l-0.025,0.072	l0.025,0.145L97.395,172.711L97.395,172.711z"/><path style="fill-rule:evenodd;clip-rule:evenodd;fill:#FFFFFF;stroke:#000000;stroke-width:0.4764;stroke-linecap:round;stroke-linejoin:round;stroke-miterlimit:2.6131;" d="	M63.77,171.26c-0.387,2.08-0.896,4.064-1.5,5.879c0-0.049,0-0.072,0-0.121c0.048-0.629-0.63-1.33-1.864-2.008	c-1.283-0.701-3.099-1.354-5.665-1.863c-0.702-0.145-1.428-0.338-2.179-0.531c-2.808-0.799-5.181-1.791-6.391-2.637	c-1.234-0.969-1.815-1.84-1.525-2.492c0.339-0.75,1.815-1.041,3.922-0.943c2.082,0.121,4.817,0.652,7.723,1.572	c2.3,0.725,4.406,1.596,6.1,2.492h0.024c0,0.023,0,0.023,0.024,0.023c0,0,0,0,0.024,0c0,0.023,0,0.023,0,0.023h0.024	c0.024,0,0.024,0.025,0.048,0.025c0.024,0.023,0.024,0.023,0.049,0.023c0,0.025,0.024,0.025,0.024,0.025s0,0,0.024,0	c0,0,0,0.023,0.024,0.023C63.019,170.922,63.382,171.092,63.77,171.26L63.77,171.26z"/><path style="fill-rule:evenodd;clip-rule:evenodd;fill:#FFFFFF;stroke:#000000;stroke-width:0.4764;stroke-linecap:round;stroke-linejoin:round;stroke-miterlimit:2.6131;" d="	M131.164,173.195c2.881-1.088,5.594-2.348,8.062-3.725c1.379-0.799,2.688-1.621,3.945-2.469c0.072-0.049,0.121-0.096,0.193-0.145	c0.92-0.629,2.01-1.064,3.074-1.186c1.09-0.146,2.035,0.047,2.688,0.482c0.605,0.412,0.992,1.066,0.992,1.863	c0.025,0.121,0,0.268,0,0.389c-0.121,1.064-0.822,2.201-1.889,3.096c-0.119,0.121-0.266,0.219-0.41,0.34	c-0.631,0.434-1.598,0.846-2.711,1.137c-0.51,0.121-0.994,0.217-1.453,0.266c-0.654,0.049-1.355,0.121-2.082,0.217	c-2.227,0.34-4.574,1.018-6.246,1.84c-1.791,0.92-2.904,1.984-2.637,2.977C132.158,176.607,131.648,174.938,131.164,173.195	L131.164,173.195z"/></g></svg>