<?xml version="1.0" encoding="iso-8859-1"?><!-- Generator: Adobe Illustrator 16.0.0, SVG Export Plug-In . SVG Version: 6.00 Build 0) --><!DOCTYPE svg PUBLIC "-//W3C//DTD SVG 1.1//EN" "http://www.w3.org/Graphics/SVG/1.1/DTD/svg11.dtd"><svg version="1.1" id="Layer_1" xmlns="http://www.w3.org/2000/svg" xmlns:xlink="http://www.w3.org/1999/xlink" x="0px" y="0px" width="192.756px" height="192.756px" viewBox="0 0 192.756 192.756" style="enable-background:new 0 0 192.756 192.756;" xml:space="preserve"><g><polygon style="fill-rule:evenodd;clip-rule:evenodd;fill:#FFFFFF;" points="0,0 192.756,0 192.756,192.756 0,192.756 0,0	"/><path style="fill-rule:evenodd;clip-rule:evenodd;fill:#FFFFFF;" d="M96.378,185.121c28.924,0,53.057-39.732,53.057-88.743	c0-49.01-24.133-88.743-53.057-88.743c-28.925,0-53.059,39.732-53.059,88.743C43.32,145.389,67.454,185.121,96.378,185.121	L96.378,185.121z"/><path d="M96.378,180.32c12.711,0,24.573-9.102,33.364-23.805c9.166-15.334,14.893-36.578,14.893-60.138	c0-23.559-5.727-44.804-14.893-60.136c-8.791-14.704-20.652-23.806-33.364-23.806c-12.712,0-24.572,9.102-33.363,23.806	c-9.167,15.332-14.895,36.578-14.895,60.136c0,23.56,5.728,44.806,14.895,60.138C71.806,171.219,83.667,180.32,96.378,180.32	L96.378,180.32z M96.378,189.922c-16.307,0-31.055-10.895-41.577-28.494c-10.021-16.76-16.283-39.758-16.283-65.05	s6.261-48.289,16.283-65.05C65.324,13.729,80.072,2.834,96.378,2.834c16.307,0,31.053,10.895,41.577,28.494	c10.021,16.761,16.281,39.758,16.281,65.05s-6.26,48.288-16.281,65.05C127.432,179.027,112.686,189.922,96.378,189.922	L96.378,189.922z"/><path style="fill:#CA2E31;" d="M96.378,183.406c13.868,0,26.655-9.678,36.002-25.312c9.441-15.791,15.342-37.6,15.342-61.716	c0-24.116-5.9-45.924-15.342-61.716C123.033,19.028,110.246,9.35,96.378,9.35c-13.867,0-26.656,9.678-36.003,25.312	c-9.442,15.792-15.341,37.6-15.341,61.716c0,24.116,5.898,45.925,15.341,61.716C69.722,173.729,82.511,183.406,96.378,183.406	L96.378,183.406z M96.378,186.836c-15.151,0-28.971-10.318-38.937-26.986c-9.747-16.303-15.837-38.736-15.837-63.472	c0-24.735,6.09-47.168,15.837-63.47C67.407,16.239,81.227,5.921,96.378,5.921c15.151,0,28.971,10.318,38.936,26.987	c9.746,16.302,15.836,38.735,15.836,63.47c0,24.735-6.09,47.169-15.836,63.472C125.35,176.518,111.529,186.836,96.378,186.836	L96.378,186.836z"/><polygon style="fill-rule:evenodd;clip-rule:evenodd;" points="87.452,145.412 87.452,48.944 78.559,48.944 78.559,141.984	87.452,145.412	"/><polygon style="fill-rule:evenodd;clip-rule:evenodd;fill:#CA2E31;" points="78.536,141.984 78.536,48.944 69.643,54.43	69.643,138.555 78.536,141.984	"/><polygon style="fill-rule:evenodd;clip-rule:evenodd;" points="69.621,138.555 69.621,54.43 60.728,61.289 60.728,131.697	69.621,138.555	"/><polygon style="fill-rule:evenodd;clip-rule:evenodd;fill:#CA2E31;" points="60.705,131.697 60.705,61.289 51.813,75.004	51.813,117.98 60.705,131.697	"/><polygon style="fill-rule:evenodd;clip-rule:evenodd;" points="51.79,119.352 51.79,72.947 47.698,83.234 47.698,111.123	51.79,119.352	"/><polygon points="115.238,50.944 115.238,143.697 111.809,143.697 111.809,49.23 115.238,49.23 115.238,50.944	"/><polygon points="127.582,57.459 127.582,137.184 124.152,137.184 124.152,55.745 127.582,55.745 127.582,57.459	"/><polygon points="98.109,100.854 146.355,100.854 146.355,104.281 96.395,104.281 96.395,100.854 98.109,100.854	"/><polygon points="98.109,88.508 146.355,88.508 146.355,91.938 96.395,91.938 96.395,88.508 98.109,88.508	"/><polygon style="fill-rule:evenodd;clip-rule:evenodd;fill:#CA2E31;" points="146.67,91.909 124.141,91.909 124.141,56.488	115.248,51.001 115.248,91.909 96.367,91.909 96.367,46.201 87.474,47.572 87.474,145.412 96.367,145.412 96.367,100.801	115.248,100.801 115.248,141.984 124.141,138.555 124.141,100.801 146.67,100.801 146.67,91.909	"/><polygon points="99.807,47.515 99.807,147.299 96.377,147.299 96.377,45.801 99.807,45.801 99.807,47.515	"/><path d="M96.378,144.127c13.184,0,25.122-5.346,33.762-13.986s13.986-20.578,13.986-33.763c0-13.185-5.346-25.123-13.986-33.763	s-20.578-13.985-33.762-13.985c-13.186,0-25.123,5.345-33.764,13.985c-8.64,8.641-13.985,20.578-13.985,33.763	c0,13.187,5.345,25.124,13.985,33.763C71.255,138.781,83.193,144.127,96.378,144.127L96.378,144.127z M96.378,147.557	c-14.132,0-26.927-5.729-36.188-14.99s-14.99-22.057-14.99-36.188c0-14.131,5.729-26.926,14.99-36.188s22.056-14.99,36.188-14.99	c14.131,0,26.926,5.729,36.188,14.99c9.26,9.261,14.988,22.056,14.988,36.188c0,14.132-5.729,26.927-14.988,36.188	C123.305,141.828,110.51,147.557,96.378,147.557L96.378,147.557z"/><path style="fill-rule:evenodd;clip-rule:evenodd;" d="M71.49,148.479l0.454,0.164c3.064,1.109,4.404-0.041,4.868-1.109l2.61,0.943	l-5.299,14.652l-3.178-1.148l3.65-10.092l-3.836-1.387L71.49,148.479L71.49,148.479z"/><path style="fill-rule:evenodd;clip-rule:evenodd;" d="M86.53,156.521c-1.432-0.217-2.021-1.326-1.884-2.238	c0.171-1.127,1.077-1.789,2.58-1.562c1.075,0.162,1.846,1.033,1.669,2.205C88.727,156.033,87.842,156.721,86.53,156.521	L86.53,156.521z M91.685,161.984c0.302-1.996-0.458-3.109-1.968-4.092c1.459-0.445,2.226-1.484,2.426-2.809	c0.322-2.125-1.254-4.295-4.763-4.826c-2.959-0.447-5.515,0.787-5.912,3.412c-0.217,1.432,0.352,2.518,1.596,3.326	c-2.742,0.695-3.05,2.734-3.168,3.516c-0.318,2.105,0.794,4.914,5.163,5.576C89.545,166.766,91.389,163.938,91.685,161.984	L91.685,161.984z M88.228,161.596c-0.161,1.062-1.036,2.328-2.778,2.064c-1.528-0.23-2.311-1.348-2.088-2.824	c0.253-1.67,1.531-2.209,2.748-2.025C87.972,159.092,88.392,160.51,88.228,161.596L88.228,161.596z"/><path style="fill-rule:evenodd;clip-rule:evenodd;" d="M98.104,156.053c-0.184-2.23,1.348-2.754,2.213-2.826	c1.732-0.145,2.664,0.879,2.812,2.65c0.152,1.838-1.084,2.711-2.264,2.809C99.592,158.791,98.299,158.393,98.104,156.053	L98.104,156.053z M95.637,163.105c0.494,2.447,2.714,3.805,5.625,3.562c3.08-0.254,6.045-2.461,5.547-8.475	c-0.182-2.188-0.758-7.975-6.676-7.484c-3.345,0.277-5.675,2.254-5.36,6.061c0.216,2.602,2.303,4.697,5.575,4.426	c1.154-0.096,2.455-0.469,3.139-1.582l0.053,0.039c0.246,3.262-1.061,4.449-2.457,4.564c-1.035,0.086-1.818-0.312-2.1-1.367	l-0.002-0.021L95.637,163.105L95.637,163.105z"/><path style="fill-rule:evenodd;clip-rule:evenodd;" d="M112.504,153.705c-0.723-2.119,0.635-3,1.457-3.281	c1.646-0.561,2.799,0.205,3.373,1.887c0.596,1.746-0.391,2.893-1.51,3.275C114.613,156,113.264,155.926,112.504,153.705	L112.504,153.705z M111.83,161.146c1.074,2.254,3.559,3.029,6.322,2.086c2.926-0.998,5.264-3.861,3.316-9.572	c-0.709-2.076-2.68-7.549-8.299-5.633c-3.176,1.084-4.955,3.57-3.723,7.184c0.844,2.473,3.379,3.996,6.486,2.936	c1.096-0.375,2.268-1.053,2.658-2.299l0.061,0.025c1.033,3.104,0.055,4.572-1.27,5.025c-0.982,0.334-1.84,0.141-2.369-0.814	l-0.008-0.021L111.83,161.146L111.83,161.146z"/><path style="fill-rule:evenodd;clip-rule:evenodd;" d="M97.207,22.138c-4.764,0.079-8.955,3.827-8.879,8.376	c0.075,4.519,4.352,8.127,9.151,8.047c2.365-0.039,4.58-0.886,6.135-2.346l2.402,2.205c-2.162,2-5.193,3.234-8.52,3.289	c-6.856,0.113-12.562-4.874-12.666-11.138c-0.104-6.264,5.332-11.466,12.326-11.582c3.324-0.055,6.326,1.018,8.52,3.008	l-2.328,2.283C101.746,22.874,99.607,22.099,97.207,22.138L97.207,22.138z"/><polygon style="fill-rule:evenodd;clip-rule:evenodd;" points="111.465,22.998 105.979,42.115 108.723,42.8 112.15,31.827	114.895,44.857 116.18,44.857 119.695,36.628 123.896,49.058 127.84,51.801 121.666,30.542 119.182,29.084 116.523,36.285	114.123,24.369 111.465,22.998	"/><path style="fill-rule:evenodd;clip-rule:evenodd;" d="M86.52,42.2l-5.315-19.203l-4.629,2.658L63.46,52.401l5.315-3.429	l3.429-6.943l9.43-3.601l1.372,4.629L86.52,42.2L86.52,42.2z M73.918,37.914l5.144-10.372l1.8,7.629L73.918,37.914L73.918,37.914z"	/></g></svg>