<?xml version="1.0" encoding="iso-8859-1"?><!-- Generator: Adobe Illustrator 16.0.0, SVG Export Plug-In . SVG Version: 6.00 Build 0) --><!DOCTYPE svg PUBLIC "-//W3C//DTD SVG 1.1//EN" "http://www.w3.org/Graphics/SVG/1.1/DTD/svg11.dtd"><svg version="1.1" id="Layer_1" xmlns="http://www.w3.org/2000/svg" xmlns:xlink="http://www.w3.org/1999/xlink" x="0px" y="0px" width="192.756px" height="192.756px" viewBox="0 0 192.756 192.756" style="enable-background:new 0 0 192.756 192.756;" xml:space="preserve"><g><polygon style="fill-rule:evenodd;clip-rule:evenodd;fill:#FFFFFF;" points="0,0 192.756,0 192.756,192.756 0,192.756 0,0	"/><path style="fill-rule:evenodd;clip-rule:evenodd;fill:#353A8E;" d="M96.378,189.922c51.663,0,93.543-41.883,93.543-93.544	c0-51.662-41.881-93.543-93.543-93.543c-51.662,0-93.544,41.882-93.544,93.543C2.834,148.039,44.716,189.922,96.378,189.922	L96.378,189.922z"/><path style="fill-rule:evenodd;clip-rule:evenodd;fill:#FFFFFF;" d="M85.14,15.986c0,0,6.69,84.208-58.564,132.672l18.699,12.975	l49.99-103.797V16.241L85.14,15.986L85.14,15.986z"/><path style="fill-rule:evenodd;clip-rule:evenodd;fill:#FFFFFF;" d="M106.918,15.986c0,0-6.691,84.208,58.562,132.672	l-18.699,12.975L96.791,57.835V16.241L106.918,15.986L106.918,15.986z"/><path style="fill-rule:evenodd;clip-rule:evenodd;fill:#A93230;" d="M102.135,120.037l4.387,1.145l6.297,1.908l7.824,4.961	l7.441,14.311v31.865L158.611,154l-3.053-5.979c0,0-51.135-39.846-51.135-113.369V14.714H87.633v19.939	c0,73.523-51.136,113.369-51.136,113.369L33.445,154l30.528,20.227v-31.865l7.441-14.311l7.823-4.961l6.296-1.908l4.388-1.145	H102.135L102.135,120.037z"/><polygon style="fill:#FFFFFF;" points="69.697,99.049 122.359,99.049 122.359,101.34 69.697,101.34 69.697,99.049	"/><path style="fill-rule:evenodd;clip-rule:evenodd;fill:#FFFFFF;" d="M95.933,120.514c-27.381,0-28.334,28.145-28.334,28.145	c0,12.402,5.533,24.424,5.533,24.424l-11.639,0.189v-18.316c0-37.016,34.535-36.254,34.535-36.254h0.572	c0,0,34.534-0.762,34.534,36.254v18.316l-11.639-0.189c0,0,5.533-12.021,5.533-24.424c0,0-0.762-28.145-28.238-28.145H95.933	L95.933,120.514z"/><path style="fill:#FFFFFF;" d="M96.283,174.635c21.609,0,41.174-8.76,55.336-22.922c14.16-14.16,22.92-33.725,22.92-55.335	c0-21.61-8.76-41.174-22.92-55.335c-14.162-14.16-33.727-22.92-55.336-22.92c-21.61,0-41.175,8.76-55.336,22.92	c-14.161,14.161-22.92,33.726-22.92,55.335c0,21.61,8.76,41.175,22.92,55.335C55.108,165.875,74.673,174.635,96.283,174.635	L96.283,174.635z M96.283,188.371c-25.403,0-48.401-10.297-65.049-26.945C14.586,144.779,4.289,121.781,4.289,96.378	c0-25.402,10.298-48.401,26.945-65.048C47.882,14.682,70.88,4.384,96.283,4.384c25.402,0,48.4,10.298,65.049,26.945	c16.646,16.647,26.945,39.646,26.945,65.048c0,25.403-10.299,48.401-26.945,65.048C144.684,178.074,121.686,188.371,96.283,188.371	L96.283,188.371z"/><path style="fill-rule:evenodd;clip-rule:evenodd;fill:#353A8E;" d="M8.417,97.127l0.001-0.537c0-0.635,0.088-1.078,0.261-1.328	c0.174-0.25,0.465-0.375,0.873-0.375c0.422,0.001,0.72,0.129,0.895,0.385c0.175,0.255,0.262,0.705,0.261,1.349l-0.001,0.51	L8.417,97.127L8.417,97.127z M12.876,97.135l0.001-0.482l0.001-0.457c0.002-0.828-0.044-1.43-0.138-1.806	c-0.093-0.376-0.247-0.704-0.461-0.982c-0.286-0.367-0.651-0.646-1.096-0.834c-0.445-0.189-0.96-0.284-1.546-0.285	c-0.551-0.001-1.051,0.093-1.501,0.282c-0.45,0.19-0.825,0.466-1.125,0.828c-0.26,0.308-0.444,0.685-0.553,1.127	c-0.108,0.443-0.163,1.213-0.165,2.309L6.29,99.627l9.826,0.018l0.004-2.504L12.876,97.135L12.876,97.135z"/><path style="fill-rule:evenodd;clip-rule:evenodd;fill:#353A8E;" d="M10.546,81.203c-0.188-0.093-0.384-0.186-0.591-0.28	c-0.205-0.094-0.422-0.191-0.65-0.292c0.354-0.022,0.645-0.041,0.87-0.054c0.226-0.013,0.39-0.027,0.492-0.041l3.369-0.408	l-0.474,2.622L10.546,81.203L10.546,81.203z M16.97,84.471l-1.626-0.812l0.677-3.745l1.806-0.179l0.473-2.622L8.037,78.71	l-0.597,3.302l9.059,5.071L16.97,84.471L16.97,84.471z"/><path style="fill-rule:evenodd;clip-rule:evenodd;fill:#353A8E;" d="M13.894,65.694l0.193-0.504	c0.212-0.549,0.46-0.903,0.743-1.062c0.284-0.158,0.655-0.149,1.114,0.027c0.393,0.151,0.632,0.387,0.719,0.707	c0.087,0.321,0.027,0.751-0.181,1.292l-0.179,0.466L13.894,65.694L13.894,65.694z M21.144,68.483l-3.601-1.385l4.412-0.723	l1.088-2.829l-4.67,1.079c0.112-0.726,0.013-1.348-0.295-1.867c-0.309-0.52-0.816-0.915-1.523-1.187	c-0.465-0.179-0.926-0.254-1.381-0.225c-0.455,0.029-0.871,0.161-1.247,0.395c-0.333,0.208-0.624,0.496-0.873,0.863	c-0.249,0.367-0.57,1.063-0.964,2.087l-1.002,2.608l9.158,3.521L21.144,68.483L21.144,68.483z"/><polygon style="fill-rule:evenodd;clip-rule:evenodd;fill:#353A8E;" points="26.201,57.501 17.698,52.575 19.052,50.237	27.555,55.164 26.201,57.501	"/><path style="fill-rule:evenodd;clip-rule:evenodd;fill:#353A8E;" d="M29.735,46.217c0.605-0.024,1.117-0.116,1.535-0.276	c0.418-0.16,0.748-0.389,0.989-0.689c0.224-0.279,0.333-0.568,0.328-0.869c-0.006-0.3-0.125-0.543-0.356-0.729	c-0.255-0.205-0.514-0.286-0.777-0.242s-0.688,0.28-1.275,0.709c-0.804,0.587-1.493,0.904-2.066,0.954	c-0.573,0.049-1.142-0.152-1.706-0.606c-0.73-0.588-1.13-1.312-1.198-2.173c-0.067-0.86,0.213-1.681,0.841-2.461	c0.339-0.421,0.717-0.775,1.134-1.062c0.417-0.287,0.877-0.506,1.379-0.659l0.983,1.867c-0.395,0.072-0.745,0.19-1.05,0.355	c-0.305,0.166-0.555,0.37-0.751,0.613c-0.202,0.251-0.306,0.503-0.312,0.757c-0.005,0.254,0.086,0.457,0.275,0.608	c0.193,0.155,0.402,0.209,0.627,0.165c0.227-0.044,0.55-0.222,0.972-0.531c0.026-0.019,0.061-0.043,0.102-0.073	c0.913-0.665,1.615-1.021,2.105-1.067c0.333-0.03,0.67,0.014,1.008,0.131c0.338,0.118,0.667,0.305,0.988,0.563	c0.811,0.653,1.248,1.443,1.312,2.373c0.063,0.929-0.261,1.837-0.976,2.725c-0.429,0.533-0.909,0.946-1.441,1.237	c-0.533,0.292-1.154,0.484-1.865,0.578L29.735,46.217L29.735,46.217z"/><path style="fill-rule:evenodd;clip-rule:evenodd;fill:#353A8E;" d="M47.383,28.936c0.584,0.152,1.1,0.212,1.546,0.181	s0.828-0.156,1.146-0.372c0.296-0.201,0.484-0.447,0.566-0.735c0.082-0.289,0.04-0.556-0.126-0.8	c-0.184-0.271-0.408-0.423-0.672-0.458c-0.264-0.034-0.739,0.068-1.425,0.307c-0.94,0.326-1.692,0.43-2.255,0.31	c-0.563-0.121-1.048-0.479-1.456-1.079c-0.529-0.776-0.7-1.586-0.514-2.429s0.692-1.547,1.521-2.11	c0.447-0.304,0.912-0.533,1.394-0.685c0.483-0.153,0.987-0.229,1.511-0.229l0.396,2.071c-0.399-0.046-0.768-0.034-1.107,0.035	c-0.339,0.07-0.638,0.192-0.896,0.368c-0.266,0.181-0.438,0.392-0.518,0.633s-0.051,0.461,0.085,0.662	c0.139,0.204,0.323,0.317,0.552,0.34c0.229,0.023,0.591-0.051,1.084-0.225c0.03-0.01,0.07-0.023,0.118-0.04	c1.067-0.37,1.842-0.506,2.326-0.408c0.328,0.068,0.637,0.208,0.926,0.419c0.289,0.211,0.55,0.486,0.781,0.826	c0.585,0.86,0.773,1.743,0.563,2.651c-0.21,0.907-0.787,1.681-1.728,2.323c-0.566,0.385-1.146,0.639-1.74,0.764	c-0.594,0.124-1.244,0.127-1.952,0.011L47.383,28.936L47.383,28.936z"/><path style="fill-rule:evenodd;clip-rule:evenodd;fill:#353A8E;" d="M60.905,16.891c-0.028-0.208-0.061-0.423-0.098-0.646	c-0.038-0.223-0.078-0.456-0.122-0.701c0.216,0.281,0.393,0.51,0.531,0.689c0.138,0.178,0.241,0.307,0.309,0.384l2.223,2.561	l-2.438,1.075L60.905,16.891L60.905,16.891z M61.795,24.055l-0.247-1.828l3.482-1.535l1.169,1.421l2.438-1.075l-7.071-7.622	l-3.07,1.354l0.864,10.357L61.795,24.055L61.795,24.055z"/><polygon style="fill-rule:evenodd;clip-rule:evenodd;fill:#353A8E;" points="75.059,19.126 72.625,9.61 75.249,8.938	77.683,18.455 75.059,19.126	"/><path style="fill-rule:evenodd;clip-rule:evenodd;fill:#353A8E;" d="M85.398,16.901l-0.734-9.802l2.576-0.193l4.079,4.765	c0.078,0.097,0.211,0.295,0.397,0.593s0.393,0.654,0.621,1.068c-0.083-0.402-0.149-0.761-0.197-1.076	c-0.049-0.315-0.082-0.595-0.101-0.84l-0.362-4.841l2.552-0.192l0.735,9.802l-2.552,0.192l-4.08-4.785	c-0.083-0.097-0.218-0.295-0.404-0.593c-0.187-0.298-0.391-0.649-0.614-1.055c0.084,0.408,0.151,0.768,0.199,1.083	c0.049,0.314,0.082,0.595,0.1,0.841l0.363,4.841L85.398,16.901L85.398,16.901z"/><polygon style="fill-rule:evenodd;clip-rule:evenodd;fill:#353A8E;" points="104.109,16.673 104.955,9.231 102.762,8.981	103.025,6.668 110.084,7.472 109.822,9.786 107.627,9.536 106.779,16.977 104.109,16.673	"/><polygon style="fill-rule:evenodd;clip-rule:evenodd;fill:#353A8E;" points="115.082,16.161 115.639,14.038 120.051,15.196	119.494,17.319 115.082,16.161	"/><path style="fill-rule:evenodd;clip-rule:evenodd;fill:#353A8E;" d="M132.355,20.833l0.891-1.86l4.732,2.265	c-0.023,0.062-0.053,0.13-0.086,0.205s-0.084,0.181-0.15,0.322c-0.732,1.528-1.701,2.521-2.91,2.979	c-1.209,0.458-2.543,0.337-4.004-0.362c-0.719-0.345-1.307-0.758-1.762-1.242c-0.457-0.484-0.799-1.052-1.025-1.707	c-0.217-0.625-0.303-1.282-0.258-1.972c0.045-0.691,0.219-1.354,0.521-1.987c0.316-0.662,0.721-1.216,1.213-1.663	s1.068-0.786,1.729-1.016c0.65-0.219,1.316-0.302,1.998-0.249s1.355,0.239,2.021,0.558c0.867,0.415,1.553,0.954,2.057,1.615	c0.506,0.662,0.824,1.439,0.957,2.333l-2.582,0.01c-0.084-0.465-0.242-0.857-0.475-1.176c-0.232-0.318-0.541-0.57-0.93-0.755	c-0.721-0.346-1.406-0.376-2.053-0.091c-0.648,0.286-1.172,0.848-1.574,1.686c-0.404,0.847-0.516,1.612-0.332,2.297	c0.182,0.684,0.635,1.199,1.357,1.544c0.611,0.293,1.195,0.386,1.75,0.279c0.555-0.109,0.988-0.399,1.299-0.872L132.355,20.833	L132.355,20.833z"/><polygon style="fill-rule:evenodd;clip-rule:evenodd;fill:#353A8E;" points="141.633,30.308 147.477,22.414 152.318,25.998	151.039,27.727 148.295,25.697 147.281,27.068 149.867,28.982 148.613,30.675 146.027,28.761 145.039,30.097 147.781,32.127	146.475,33.892 141.633,30.308	"/><path style="fill-rule:evenodd;clip-rule:evenodd;fill:#353A8E;" d="M159.436,35.297l0.369,0.388	c0.402,0.424,0.615,0.797,0.635,1.12c0.02,0.322-0.148,0.654-0.506,0.992c-0.305,0.29-0.619,0.406-0.945,0.349	c-0.326-0.057-0.686-0.293-1.082-0.711l-0.342-0.359L159.436,35.297L159.436,35.297z M153.809,40.646l2.789-2.652l-1.242,4.281	l2.078,2.187l1.037-4.662c0.605,0.409,1.209,0.585,1.811,0.527s1.178-0.349,1.729-0.872c0.361-0.345,0.629-0.729,0.799-1.153	c0.17-0.423,0.232-0.855,0.184-1.296c-0.043-0.389-0.178-0.775-0.4-1.156c-0.225-0.381-0.713-0.968-1.467-1.762l-1.932-2.033	l-7.119,6.766L153.809,40.646L153.809,40.646z"/><path style="fill-rule:evenodd;clip-rule:evenodd;fill:#353A8E;" d="M167.518,59.213l-1.322-2.124l3.299-2.734	c0.232-0.192,0.496-0.399,0.789-0.622c0.295-0.222,0.617-0.459,0.973-0.711c-0.387,0.167-0.893,0.336-1.518,0.51	c-0.131,0.034-0.229,0.06-0.291,0.078l-4.611,1.299l-0.943-1.515l3.201-3.565c0.043-0.048,0.111-0.122,0.203-0.221	c0.428-0.488,0.801-0.865,1.119-1.132c-0.328,0.173-0.658,0.341-0.986,0.503s-0.658,0.318-0.992,0.469l-3.908,1.754l-1.316-2.112	l9.137-3.903l1.4,2.249l-3.514,3.935c-0.027,0.026-0.066,0.072-0.121,0.137c-0.311,0.357-0.592,0.636-0.846,0.836	c0.156-0.077,0.338-0.151,0.545-0.222s0.459-0.148,0.758-0.234l5.078-1.4l1.404,2.255L167.518,59.213L167.518,59.213z"/><path style="fill-rule:evenodd;clip-rule:evenodd;fill:#353A8E;" d="M178.102,66.625c0.207-0.013,0.424-0.031,0.648-0.052	c0.225-0.021,0.461-0.045,0.707-0.073c-0.295,0.197-0.535,0.357-0.723,0.482c-0.188,0.124-0.322,0.218-0.404,0.281l-2.699,2.038	l-0.906-2.508L178.102,66.625L178.102,66.625z M170.898,67.017l1.842-0.123l1.293,3.583l-1.502,1.07l0.906,2.508l8.076-6.526	l-1.139-3.159l-10.379,0.145L170.898,67.017L170.898,67.017z"/><polygon style="fill-rule:evenodd;clip-rule:evenodd;fill:#353A8E;" points="174.865,80.602 184.525,78.831 185.01,81.478	175.352,83.249 174.865,80.602	"/><path style="fill-rule:evenodd;clip-rule:evenodd;fill:#353A8E;" d="M176.391,91.057l9.826-0.067l0.018,2.576l-5.029,3.735	c-0.102,0.072-0.309,0.189-0.617,0.355c-0.311,0.164-0.68,0.348-1.107,0.547c0.406-0.057,0.77-0.1,1.086-0.125	c0.318-0.027,0.6-0.041,0.846-0.043l4.854-0.033l0.018,2.576l-9.828,0.066l-0.016-2.576l5.049-3.734	c0.102-0.077,0.309-0.198,0.617-0.362c0.311-0.166,0.676-0.345,1.094-0.539c-0.412,0.055-0.775,0.097-1.092,0.124	c-0.318,0.026-0.602,0.041-0.846,0.042l-4.854,0.034L176.391,91.057L176.391,91.057z"/><polygon style="fill-rule:evenodd;clip-rule:evenodd;fill:#353A8E;" points="71.113,183.016 73.13,175.791 71.106,175.225	72.814,173.389 76.091,174.303 73.475,183.676 71.113,183.016	"/><path style="fill-rule:evenodd;clip-rule:evenodd;fill:#353A8E;" d="M87.113,180.713c-0.24-0.291-0.337-0.672-0.292-1.135	c0.044-0.465,0.212-0.818,0.504-1.062c0.291-0.244,0.665-0.346,1.12-0.301c0.455,0.043,0.802,0.213,1.042,0.508	c0.238,0.295,0.336,0.676,0.292,1.139c-0.045,0.465-0.212,0.818-0.501,1.061s-0.663,0.342-1.123,0.297	C87.7,181.176,87.352,181.008,87.113,180.713L87.113,180.713z M85.531,185.973l2.713,0.262l1.552-1.936	c0.746-0.926,1.28-1.699,1.601-2.318c0.32-0.619,0.509-1.217,0.564-1.797c0.104-1.082-0.147-1.977-0.753-2.682	c-0.606-0.707-1.477-1.113-2.613-1.223s-2.073,0.127-2.813,0.713c-0.739,0.586-1.161,1.42-1.266,2.502	c-0.085,0.891,0.114,1.652,0.601,2.285c0.487,0.635,1.143,0.99,1.971,1.07c0.187,0.018,0.368,0.021,0.541,0.012	s0.338-0.031,0.494-0.061L85.531,185.973L85.531,185.973z"/><polygon style="fill-rule:evenodd;clip-rule:evenodd;fill:#353A8E;" points="100.449,186.566 103.551,178.768 99.414,179.09	99.242,176.895 106.732,176.312 106.768,176.781 103.217,186.352 100.449,186.566	"/><path style="fill-rule:evenodd;clip-rule:evenodd;fill:#353A8E;" d="M116.252,177.004c0.07-0.525,0.32-0.844,0.75-0.955	c0.416-0.109,0.783,0.057,1.105,0.492c0.32,0.436,0.615,1.168,0.881,2.199c0.27,1.039,0.367,1.824,0.299,2.357	c-0.07,0.533-0.314,0.854-0.73,0.961c-0.426,0.109-0.799-0.049-1.117-0.48c-0.32-0.43-0.613-1.166-0.883-2.209	C116.283,178.318,116.182,177.529,116.252,177.004L116.252,177.004z M119.49,174.748c-0.857-0.715-1.854-0.926-2.99-0.631	c-1.117,0.289-1.885,0.955-2.303,1.998c-0.416,1.043-0.426,2.33-0.029,3.865c0.4,1.539,1.033,2.666,1.904,3.377	s1.865,0.922,2.984,0.633c1.117-0.289,1.885-0.947,2.301-1.977c0.416-1.027,0.43-2.297,0.039-3.807	C120.982,176.617,120.35,175.463,119.49,174.748L119.49,174.748z"/><path style="fill-rule:evenodd;clip-rule:evenodd;fill:#FFFFFF;" d="M104.328,152.76h-27.38c0,0-0.858,0.955,0,1.623	c0,0,1.432-0.383,1.432,1.812c0,0,0.858,7.25,6.201,7.25h0.763c0,0,1.431,3.625,3.053,0h15.168c0,0,1.527,3.625,3.148,0	c0,0,9.73,1.336,9.73-10.779c0,0,1.719-15.17-12.115-15.17V152.76L104.328,152.76z"/><path style="fill-rule:evenodd;clip-rule:evenodd;fill:#FFFFFF;" d="M84.867,139.777c0.628,0,1.136-0.508,1.136-1.137	c0-0.627-0.508-1.137-1.136-1.137s-1.137,0.51-1.137,1.137C83.73,139.27,84.239,139.777,84.867,139.777L84.867,139.777z"/><path style="fill-rule:evenodd;clip-rule:evenodd;fill:#FFFFFF;" d="M95.075,139.969c-0.628,0-1.137-0.51-1.137-1.137	s0.509-1.137,1.137-1.137c0.627,0,1.136,0.51,1.136,1.137S95.702,139.969,95.075,139.969L95.075,139.969z"/><path style="fill-rule:evenodd;clip-rule:evenodd;fill:#FFFFFF;" d="M89.732,147.418c-1.145,0-1.049-0.764-1.049-0.764	c0-4.865-3.721-6.965-3.721-6.965l0.955-0.762l2.29,2.289c0-0.953,1.335-1.336,1.335-1.336v-1.43c0,0-3.339-3.055,0.096-7.441	c0.333-0.426,0.822,0,0.822,0c3.472,4.482,0.132,7.441,0.132,7.441v1.43c0,0,1.24,0.383,1.24,1.336l2.48-2.576l0.764,0.859	c0,0-3.625,2.289-3.663,7.154c0,0,0.096,0.764-1.049,0.764H89.732L89.732,147.418z"/></g></svg>