<svg xmlns="http://www.w3.org/2000/svg" width="192.76" height="192.76" viewBox="0 0 192.756 192.756"><g fill-rule="evenodd" clip-rule="evenodd"><path fill="#FFF" d="M0 0h192.76v192.76H0V0"/><path d="M8.54 184.25zM96.47 8.5C48.1 8.5 8.74 47.86 8.74 96.25 8.74 144.63 48.1 184 96.48 184c48.36 0 87.74-39.37 87.74-87.75S144.84 8.5 96.48 8.5z"/><path d="M11.15 96.25c0 46.93 38.27 85.13 85.33 85.13 46.94 0 85.14-38.2 85.14-85.13 0-47.06-38.2-85.33-85.14-85.33-47.06 0-85.33 38.27-85.33 85.33zm2.58 0c0-45.62 37.13-82.75 82.75-82.75 45.52 0 82.56 37.13 82.56 82.75 0 45.52-37.04 82.55-82.56 82.55-45.62 0-82.75-37.03-82.75-82.55z" fill="#CD3529"/><path d="M25.87 112.27c-.35.18-.7.7-.88 1.23-.2.35-.2.86 0 1.56.1.88.6 1.58 1.2 1.93.8.3 1.7.5 2.6.1 1-.4 1.7-.9 2.1-1.6s.5-1.6.2-2.45c-.2-.54-.4-.88-.7-1.05-.4-.34-.9-.7-1.6-.7l-.4-1.56c.9 0 1.9.2 2.6.7.86.7 1.4 1.4 1.56 2.26.35 1.2.35 2.6-.35 3.66-.7 1.23-1.54 1.93-2.93 2.44-1.4.35-2.63.2-3.68-.35-1.05-.7-1.9-1.55-2.26-2.94-.2-.5-.2-1.02-.2-1.6 0-.5.2-.8.35-1.2l-.7.4-.37-1.2 3-.9.34 1.2zM31.1 106l-1.4.2v-1.05l-6.62.5v1.06h-1.23l-.35-3.8 1.4-.1v1.2l6.62-.5-.16-2.3h-1.4l-.18-1.4 2.8-.34.52 6.6zm-4.02-11.3c.88 0 1.4-.2 1.58-.36.35-.35.5-.7.5-1.23 0-.7 0-1-.34-1.4-.35-.1-.86-.3-1.55-.3l-4.54-.1v.86h-1.4l.17-3.65h1.4l-.17 1.06 4.35.17c.7 0 1.23 0 1.58.2.35 0 .7.16 1.05.35.4.35.7.7.9 1.2.2.55.4 1.06.4 1.76-.16.55-.16 1.25-.34 1.6-.35.5-.52.86-.86 1.05-.35.3-.7.5-1.05.5-.55.2-1.07.2-1.76.2l-4.4-.2v.9h-1.4l.2-3.7h1.2v1.02l4.54.2zm.54-12.57l2.95.7.18-.7c.17-.7.17-1.04 0-1.4-.18-.34-.53-.7-1.04-.7-.5-.18-1-.18-1.4.17-.1.2-.5.54-.6 1.24v.7zm-3.5-.88l2.26.7.2-.7c0-.5 0-.86-.2-1.2-.16-.36-.35-.54-.5-.54-.54-.1-.9 0-1.06.2-.34.2-.53.5-.53.9l-.2.7zm7.14 4.53l-1.2-.34.16-.86-6.44-1.6-.35 1.06-1.23-.35.7-3.3c.35-1.1.7-1.8 1.23-2.3.5-.4 1.2-.5 1.74-.4.5.2.86.32 1.05.7.35.32.5.7.5 1.4.2-.7.7-1.08 1.05-1.4.54-.2 1.05-.38 1.75-.2.88.16 1.4.7 1.74 1.4s.35 1.55 0 2.78l-.7 3.3zm2.63-9.92l-1.3-.35.32-1-6.44-2.4-.35 1.06-1.05-.54 2.46-6.8L30 66.85l-.53 1.4-1.2-.53-1.06 2.8 2.1.9 1.07-2.46 1.2.5-.83 2.44 2.8 1.04 1.05-2.8-1.4-.5.7-1.4 2.6 1.05-2.6 6.62zm5.2-19.88l1.2-1.74L37 53.2l2.1 2.77zm1.9 2.6l.5-.86 1.2.7-2.1 2.8-1.05-.7.53-.7-4.37-5.77-.5.7-1.06-.7 2.8-4 1.04.86-.7.9 7 1.9.52-.7 1.05.9-1.9 2.8-1.23-.7.7-.9-1.74-.5L40 57l1.03 1.56zm8.2-9.92l.8-.9 1.04.9-2.95 2.95-.9-.8.9-.9L43 45.2l-.86 1.1 1.05.86-1.04 1.04-1.92-1.75 4.86-5.26 1.96 1.72-1.03 1.04L45 43.1l-.7.85 4.9 4.73zm5-2.8l-.7-1.04.7-.54-4.2-5.4-.86.52-.7-1.04 2.95-2.26.87 1.05-.9.7 4.2 5.4 1.92-1.57-1.05-1.23 1.2-.86 1.75 2.2-5.2 4zm7.5-5.4l-.7-1.22.86-.54-3.3-5.92-.88.53-.7-1.2 6.27-3.5 1.25 2.3-1.23.7-.7-1L60 32l1.2 2.1 2.3-1.25.7 1.23-2.28 1.22 1.58 2.62 2.6-1.4-.83-1.4 1.4-.7 1.4 2.46-6.3 3.65zM59.1 30v-2.63l1.27-.7-.6 2.8-.7.5zm15.56 2.77l1.03-.52.5 1.4-4 1.2-.33-1.2 1.2-.35-2.25-6.45-1.23.35.6 1.4-1.6.34-.86-2.44 6.8-2.44.88 2.63-1.4.5-.33-1.4-1.25.5 2.26 6.4zm8.17-2.26l.88-.1.35 1.24-3.7.86-.38-1.2 1.04-.37-1.56-6.65-.9.17-.33-1.2 3.7-.9.16 1.4-.85.2 1.55 6.63zm10.64-6.4c-.2-.5-.5-.82-1-1.2-.36-.2-.9-.32-1.4-.32-1.05.16-1.75.5-2.28 1.2-.5.54-.7 1.4-.7 2.45.2 1.05.54 1.74 1.06 2.28.7.5 1.4.87 2.43.7.5 0 1.03-.2 1.4-.53.33-.17.7-.7 1.03-1.22l1.58-.16c-.2 1.02-.52 1.72-1.2 2.42-.87.7-1.57 1.04-2.6 1.23-1.4 0-2.64-.36-3.7-1.24-1.02-.86-1.53-1.9-1.72-3.3-.17-1.4.2-2.63 1.04-3.7.9-1.02 1.93-1.54 3.33-1.72.5 0 1.05 0 1.56.2.34.17.88.35 1.04.7v-.9l1.4-.15.2 3.13-1.4.15zm6.1 1.27c.2-1.4.7-2.45 1.74-3.34 1.05-.7 2.3-1.04 3.68-.86.7 0 1.4.15 1.93.5.53.2.88.53 1.23 1.04.5.55.85 1.25 1.03 1.76.35.7.35 1.4.16 2.1 0 .7-.16 1.2-.5 1.7-.36.7-.7 1.06-1.06 1.6-.7.36-1.2.7-1.9.87-.5.2-1.2.2-1.9.2-1.4-.2-2.64-.9-3.5-1.96-.7-1.05-1.03-2.26-.9-3.65zm1.74.34c-.15.86 0 1.74.54 2.44.5.7 1.4 1.06 2.25 1.2.88 0 1.58-.14 2.28-.7.7-.5 1.07-1.2 1.2-2.23.2-.9.04-1.75-.5-2.44-.5-.7-1.4-1.07-2.25-1.26-.86-.2-1.55.2-2.25.7-.7.5-1.02 1.2-1.2 2.25zm21.98 1.4l-1.4 3.13.56.18c.7.35 1.4.35 1.73.35.5-.15.85-.5 1.04-1.03.17-.5.17-1.04 0-1.4-.34-.34-.7-.7-1.57-1.03l-.36-.2zm-2.6 6.27l1.06.5-.36 1.25-3.66-1.6.36-1.2 1.03.5 2.63-6.4-1.1-.35.5-1.26 3 1.24c1.2.5 2.1 1.05 2.6 1.75.38.86.38 1.56 0 2.6-.32.9-.83 1.4-1.72 1.6-.86.33-1.9.15-3.14-.36l-.5-.2-.7 1.93zm9.94 1.4l1.94 1.05.7-3.3-2.62 2.27zm-2.43 2.1l.88.5-.5 1.06-2.92-1.74.7-1.03.5.35 5.6-4.7-.88-.52.7-1.25 4.17 2.45-.7 1.2-1.04-.5-1.4 7.12.86.34-.7 1.2-3.16-1.9.7-1.06.87.54.37-1.94-2.6-1.4-1.4 1.24zm14.3 1.2l-1.4 1.94.9.7c.5.34.85.7 1.2.7.34 0 .7-.2.9-.54.33-.38.33-.7.33-1.08-.2-.35-.36-.7-.9-1.04l-1.04-.7zm-4.2 5.4l.9.7-.7 1.07-3.14-2.43.8-1.05.7.7 4.4-5.42-.9-.7.9-1.04 2.95 2.46c1.05.7 1.6 1.4 1.75 2.1.2.7 0 1.2-.5 1.9-.34.35-.7.7-1.03.86-.55 0-.9 0-1.4-.14l.5 1.03c0 .36-.16.7-.5 1.06l-1.24 1.54.7.52-.86 1.05-2.1-1.57 1.56-1.9c.53-.7.7-1.06.7-1.4s-.36-.9-.87-1.24l-.7-.5-1.94 2.43zM149 48.8l1.4 1.76 1.73-2.95-3.16 1.28zm-3 1.4l.7.7-1.06.88-2.26-2.63 1.05-.86.5.5 6.63-2.6-.7-.7 1.04-.9 3.13 3.7-.84.8-.7-.88-3.7 6.27.5.7-1.07.86-2.3-2.8.9-.85.7.7 1.04-1.6-2.1-2.1-1.56.7zm7.3 9.4l.54.9-1.23.7-1.9-3.14 1.2-.7.6.86 5.76-3.65-.5-.88 1.2-.7 1.4 2.4-3.3 6.3 4-2.6-.52-.9 1.2-.7 1.95 3.1-1.2.7-.54-.87-7.16 4.35-.7-1.2 4.02-6.98-4.72 2.95zm8.7 9.8l.7 1.92 2.6-2.1-3.3.17zm-3.14.18l.35.86-1.2.54-1.2-3.14 1.2-.54.2.7 7.33-.16-.34-1.05 1.22-.4 1.73 4.5-1.23.35-.5-1.05-5.44 4.7.2.9-1.24.35-1.2-3.34 1.2-.5.33 1.06 1.4-1.23-1.06-2.8-1.75.2zm1.74 8.88l1.2-.16.18.86 6.8-1.4-.35-1.04 1.4-.35 1.55 7.16-2.44.5-.36-1.4 1.24-.32-.7-2.9-2.44.5.7 2.48-1.4.35-.54-2.44-2.95.7.5 3 1.6-.37.3 1.4-2.8.7-1.6-7.18zm3.66 12.74v1.05h-1.24l-.16-3.68h1.4v1.05l6.8-.16V88.4h1.38v2.96l-6.1 3.5 4.9-.17v-1.1h1.2l.2 3.6h-1.4v-1l-8.38.16V95l7.14-4-5.73.18zm-.7 11.16l-.9-.18.2-1.4 3.15.53-.2 1.2c-.6.2-1.2.4-1.5.7-.3.4-.7.9-.7 1.4 0 .4 0 .7.4 1.1.15.38.5.57.85.7.35 0 .7-.13.9-.32.33-.14.5-.7.84-1.2l.34-1.04c.34-.9.7-1.4 1.2-1.74.5-.34 1.06-.5 1.76-.34.7 0 1.4.35 1.73 1.05.5.54.7 1.24.5 2.1 0 .5-.15.88-.34 1.2-.18.38-.37.7-.7.9h.7l-.18 1.4-2.8-.36.15-1.4c.53 0 .88-.2 1.22-.54.32-.16.5-.7.5-1.05.2-.5 0-.87-.18-1.05-.15-.36-.32-.5-.7-.5-.3 0-.5 0-.85.14-.17.18-.36.35-.52.7l-.34 1.23c-.54 1.04-1.05 1.72-1.4 2.06-.54.36-1.23.5-1.93.36-.85-.2-1.55-.55-2.1-1.06-.33-.5-.5-1.35-.5-2.24.17-.5.35-.86.5-1.4.2-.34.55-.7.9-.85zm-1.93 8.16l1.23.35-.2 1.05 6.64 1.58.2-.9 1.2.36-1.9 6.98-2.44-.7.34-1.4 1.2.35.9-3-2.3-.7-.68 2.4-1.4-.33.7-2.43-2.95-.9-.88 2.8 1.5.54-.54 1.4-2.6-.7 1.9-6.8zm-80.5 59.66l.2-1.2 1.03.15 1.2-6.42-1.04-.2.2-1.3 2.6.5-1.4 7.85 1.04.18-.16 1.07-3.66-.56zm11.34-6.63c-.35 0-.7.18-1.05.35-.18.35-.35.7-.35 1.23 0 .37 0 .7.17 1.07.35.35.53.5 1.04.5.33 0 .7-.15.87-.34.35-.35.5-.7.5-1.05 0-.5 0-.8-.15-1.2-.35-.2-.7-.3-1.05-.5zm-1.58 5.42c0 .35 0 .7.1 1.04.17.2.52.2.87.2.53 0 .9 0 1.04-.14.18-.36.34-.9.53-1.75v-.7c-.36.16-.55.35-.9.35-.35.14-.5.14-.86.14-.7 0-1.4-.36-1.72-1.05-.53-.5-.7-1.2-.53-2.1 0-.84.34-1.54.9-2.1.67-.5 1.37-.67 2.23-.67 1.05.18 1.75.53 2.1 1.04.53.7.7 1.6.53 2.8l-.2 2.8c-.13 1.04-.5 1.73-1 2.1-.53.52-1.2.87-2.27.7-.87 0-1.57-.37-1.92-.88-.5-.53-.7-1.05-.5-1.74v-.2l1.56.2zm11.4-.35h1.4l.35 2.44-6.07.5v-1.2l2.6-3.5c.53-.52.7-1.03.9-1.38.15-.35.33-.7.33-1.05-.17-.33-.17-.5-.52-.67-.14-.2-.5-.35-.84-.2-.53 0-.88.2-1.02.54-.35.35-.35.86-.2 1.75v.17l-1.55.2v-.37c-.2-1.22 0-2.1.5-2.62.35-.7 1.05-1.04 2.07-1.04.87-.2 1.56 0 2.1.5.67.3.86.82 1.02 1.7 0 .36 0 .87-.37 1.4-.17.52-.5 1.05-1.2 1.9l-2.1 2.46 2.6-.17v-1.4zm5.6-1.05l2.26-.35-.35-2.28c-.2-.34-.2-.5-.2-.86v-1.04l-1.73 4.53zm1.56 2.95l-.18-1.04 1.22-.17-.2-1-3.5.7-.34-1.2 2.62-6.45 1.4-.2 1.03 5.77 1.06-.2.36 1.05-1.22.36.2.9 1.2-.2.18 1.23-3.83.5z" fill="#FFF"/><path d="M138.84 53.68C127.42 42.3 112.3 36.03 96.32 36.03c-15.95 0-31.02 6.28-42.4 17.67-11.4 11.37-17.66 26.44-17.66 42.38 0 16 6.26 31.1 17.65 42.53 11.4 11.4 26.5 17.7 42.5 17.7 33.2 0 60.2-27 60.2-60.2 0-15.9-6.27-31-17.66-42.4zm-84.37 81.77v-78.6c.4-.45.83-.9 1.28-1.34 4.6-4.6 9.8-8.3 15.46-11v103.4c-5.6-2.75-10.8-6.5-15.4-11.1l-1.3-1.33zM88.1 153.1V39.2c2.7-.38 5.45-.6 8.22-.6 2.88 0 5.72.22 8.5.64v113.83c-2.78.42-5.6.62-8.5.62-2.77 0-5.5-.2-8.2-.6zm33.65-5.33V44.54c5.56 2.77 10.72 6.44 15.25 10.97l1.5 1.6v78.27c-4.78 5.1-10.45 9.37-16.75 12.5z" fill="#CD3529"/><path d="M96.67 56.68c-6.82.86-13.1 4-18.67 8.53-9.58-2.7-24.76 2.8-28.76 25-.35 2.6-.9 6.67-2.98 9.4 2.44 1.2 4.2 4 5.42 6.5 4.88 10.44 10.46 16.72 16.2 20.4.35 3.83-.7 8.36-5.23 11.3 3.33 3.33 7.86 3.14 11.16.2 4.6 2.24 9.3 2.24 12.4-1.6-3.4-.5-6.1-3.3-7.5-5.92 9.6 1.74 18.9 1.04 27.4-3.5 0 3.34-.9 6.82-4.7 7.34 1.77 3.84 6.5 4.54 9.98.2 5.58 3.3 9.93 2.1 11.3-4.2-5.37 1.4-7.65-3.5-7.65-8.4 9.95-5.6 23.55-15.65 29.64-14.63-2.1-2.6-4.53-4.17-6.97-4.17.54-2.3 1.24-4.52 2.3-6.8-8.2 4-17.1 12.37-25.66 18.64V102c3.16 1.92 6.65 3.66 11 1.06 3.16-1.93 5.25-7.67 7.85-18.48.7-2.28 1.6-5.24 3.7-6.98-2.1-2.63-3.5-4.53-3.87-7.5-1.93-14.82-6.97-17.45-13.25-17.6-5.4-.36-7.86 2.08-11 4-2.95-1.57-5.4-1.75-8.37-2.1 4.88 11.7 4 23.55 1.4 35.4 2.6 3.84 3.3 15.17 3.3 29.44-8.7 5.07-17.74 4.02-28.04 1.4v-10.47c4.52 0 8-1.9 10.64-5.2.85 5.4-.36 9.92-4.54 12.53 2.1 3.48 5.74 3.48 9.06.53 5.75 3.65 9.4 1.2 11.15-1.93-8-1.4-7.85-11.3-4.7-25.94-3.3-10.47-3.15-21.8-1.9-33.48zm16.36 8.53c1.75-7.8 8.88-6.7 10.63 0 1.23 4.2-.5 9.3-1.9 13.1 1.2 2.3 2.78 7.2 2.08 9.6-1.58 6.6-7.67 7.3-10.64.4-1.2-2.94.53-7.12 2.1-9.9-1.4-3.67-3.3-8.9-2.27-13.1zm-40.96 6.5c-4.7 4.6-4.35 10.3-4.35 19.6 0 2.45-1.05 4-2.98 5.94 3.5 5.05 2.98 9.58 2.1 14.6-4-3.3-4.7-8-3.84-13.4-5.23-5.74-4-14.3.54-21.44 1.55-2.6 5.04-5.58 8.53-5.23zm4.53 30.5c-1.2-11.6-1.04-21.9 2.44-28.6 2.1.9 2.1 3.2.88 3.9-2.97 1.76-1.93 6.8 2.26 4.9 5.07-2.43 2.8-9.4 1.05-12.9.7-.5 1.4-1.2 2.27-1.74 2.96 6.8 3.5 19.37.35 27.4-1.74 4.34-4.88 7.13-9.25 7.13z" fill="#FFF"/><path d="M109.87 54.96l-1.26.8c-2.6-1.34-4.9-1.62-7.5-1.92l-.7-.07-.6.88c2.57 6.14 3.45 12.3 3.45 18.1 0 6.18-1 11.94-2.1 16.92l-.04.28.15.23c2.84 4.14 3.2 18.23 3.2 28.7-8.03 4.52-16.54 3.8-26.75 1.27v-9.35c3.72-.16 6.93-1.6 9.5-4.32.07.55.1 1.1.1 1.65 0 4-1.5 6.95-4.5 8.83l-.52.33.32.5c1 1.7 2.4 2.7 4.05 2.9 1.8.3 3.8-.46 5.66-2 2.56 1.5 4.9 2.04 7 1.5 2.44-.62 3.9-2.46 4.7-3.87l-.45-.97c-2-.35-3.45-1.23-4.4-2.7-2.4-3.57-2.35-10.47.2-22.47l.05-.2-.05-.16c-3.6-11.28-2.9-23.67-1.9-33.2l-.73-.73c-6.44.85-12.74 3.7-18.7 8.5-5.08-1.37-10.78-.42-15.7 2.63-4.84 3-11.12 9.4-13.6 22.9v.1c-.33 2.54-.85 6.4-2.82 9.02l.25.96c1.8.9 3.5 2.95 5.1 6.18 4.5 9.6 9.77 16.3 16.16 20.43.07.3.1.6.1.98 0 2.77-.83 6.77-5 9.5l-.1 1c3.3 3.3 8.1 3.47 11.74.45 5.1 2.42 9.74 1.75 12.74-1.9l-.4-1.05c-3.15-.47-5.25-2.84-6.34-4.44 9.57 1.5 17.9.45 25.4-3.27-.23 3.4-1.56 5.3-4.12 5.6l-.47.9c.9 2 2.53 3.28 4.5 3.54 2.15.24 4.38-.8 6.17-2.8 2.93 1.6 5.6 2.04 7.7 1.14 2.02-.9 3.4-2.9 4.1-6l-.8-.78c-1.7.45-3.15.24-4.27-.64-1.56-1.2-2.52-3.73-2.6-6.75 2.48-1.4 5.13-3.04 7.9-4.8 7.8-4.82 16.67-10.3 20.97-9.6l.6-1c-2.08-2.6-4.38-4.1-6.68-4.37.55-2.24 1.2-4.15 2.04-5.96l-.9-.86c-5.6 2.75-11.58 7.56-17.37 12.2-2.4 1.95-4.9 3.93-7.3 5.74V103c3.07 1.8 6.47 2.98 10.65.5 3.5-2.16 5.64-8.56 8.13-18.9l.05-.12c.67-2.2 1.5-4.93 3.4-6.5l.5-.4-.42-.5c-2.04-2.6-3.35-4.4-3.7-7.18-1.9-14.8-6.9-18-13.85-18.18-4.7-.3-7.26 1.43-9.8 3.1zm-.86 2.1l1.6-1.04c2.5-1.62 4.8-3.16 9-2.88 5.1.14 10.7 1.58 12.7 17.04.4 2.93 1.7 4.9 3.6 7.35-1.8 1.84-2.62 4.5-3.3 6.7l-.04.18h-.02c-2.34 9.8-4.43 16.2-7.55 18.1-4 2.4-7.16.9-10.3-1l-1 .6V115l1.05.5c2.77-2.03 5.63-4.33 8.4-6.54 5.2-4.16 10.5-8.4 15.55-11.2-.64 1.6-1.18 3.3-1.6 5.24l.6.8c1.84 0 3.75 1 5.54 2.82-4.96.3-12.75 5.13-20.28 9.8-2.9 1.8-5.68 3.5-8.2 4.96l-.34.2v.37c0 3.6 1.14 6.56 3.1 8.1 1.2.92 2.67 1.3 4.34 1.06-.62 2.16-1.66 3.55-3.1 4.16-1.78.8-4.23.3-7-1.33l-.5-.3-.34.43c-1.55 1.95-3.5 2.93-5.34 2.72-1.25-.17-2.32-.9-3.1-2.05 2.16-.65 4.37-2.58 4.37-7.8l-.95-.57c-7.83 4.17-16.66 5.28-26.94 3.42l-.66.93c1.6 3.07 4.1 5.2 6.83 6.04-3.57 3.44-8.26 1.9-10.84.6l-.4-.16-.3.28c-3 2.68-6.8 2.78-9.7.36 4.03-3.04 4.87-7.2 4.87-10.07 0-.5-.02-.97-.06-1.4v-.3l-.27-.18c-6.3-4-11.53-10.58-15.97-20.1-1.6-3.15-3.26-5.24-5.1-6.38 1.84-2.87 2.35-6.57 2.7-9.08v-.05c2.37-13 8.37-19.16 13-22.02 4.62-2.88 10.22-3.77 14.94-2.4l.35.1.26-.2c5.6-4.6 11.5-7.34 17.55-8.3-.4 3.94-.75 8.3-.75 12.87 0 6.5.7 13.36 2.73 19.9-1.36 6.23-2 11.08-2 14.88 0 3.76.64 6.46 1.96 8.4 1 1.55 2.45 2.57 4.3 3.08-.7 1.03-1.8 2.1-3.4 2.5-1.82.5-3.96-.05-6.33-1.56l-.44-.28-.36.34c-1.7 1.5-3.42 2.2-4.96 1.96-1.07-.17-2.02-.82-2.8-1.85 3-2.13 4.57-5.4 4.57-9.6 0-1-.1-2.06-.3-3.18l-1.12-.3c-2.63 3.3-6.03 4.95-10.14 4.95l-.65.63v10.96l.5.12c10.87 2.77 19.9 3.58 28.54-1.47l.3-.2v-.35c0-16.77-1-25.9-3.24-29.55 1.07-5 2.05-10.8 2.05-16.97 0-5.63-.83-11.6-3.15-17.6 2.4.3 4.57.6 7.05 1.9l.34.2.3-.2z" fill="#8E9192"/><path d="M118.03 59.07c-2.7.05-4.8 2.28-5.63 6-.23.88-.32 1.8-.32 2.77 0 3.72 1.5 7.7 2.5 10.4-1.22 2.24-2.43 5.13-2.43 7.73 0 .86.14 1.72.46 2.5 1.6 3.57 4 5.55 6.6 5.34 2.5-.2 4.5-2.4 5.3-5.7.2-.5.2-1 .2-1.6 0-2.7-1.3-6.3-2.2-8.2 1.2-3.3 2.3-6.7 2.3-9.9 0-1.1-.12-2.22-.42-3.26-.93-3.6-3.45-6.03-6.26-6zm-4.23 28.9c-1.2-2.84.8-7.1 2.05-9.37l.16-.26-.1-.27c-1.2-3.2-3.3-8.58-2.2-12.7v-.02c.7-3.1 2.38-4.95 4.4-4.98 1.88-.04 4.1 1.52 5 5 1.2 4.17-.63 9.3-1.9 12.7l-.1.28.15.25c1.3 2.35 2.66 6.95 2.06 9.12-.7 2.8-2.26 4.62-4.14 4.8-2.02.17-4-1.53-5.3-4.55zm-1.4-22.9zm-49.42 11.5c-2.7 4.24-4.05 8.56-4.05 12.5 0 3.6 1.14 6.87 3.4 9.48-.2 1.3-.3 2.53-.3 3.67 0 4.35 1.43 7.58 4.4 10.02l1.06-.37c.3-2.14.6-4.14.6-6.04 0-2.9-.7-5.65-2.6-8.63 1.7-1.8 2.8-3.5 2.8-6v-3.44c0-7.28.2-11.86 4.12-15.62l-.37-1.12c-3.63-.35-7.35 2.5-9.16 5.56zm.35 25.6c0-1.14.1-2.4.32-3.72l.05-.3-.2-.23c-2.34-2.58-3.3-5.63-3.3-8.74 0-4.16 1.68-8.46 3.87-11.93 1.32-2.2 3.88-4.4 6.46-4.86-3.23 3.9-3.46 8.7-3.46 15.4v3.4c0 2.2-.98 3.6-2.77 5.4l-.4.4.3.42c1.98 2.85 2.63 5.55 2.63 8.36 0 1.47-.18 3-.44 4.6-2.1-2.1-3.1-4.78-3.1-8.3zM83.58 68.3l-1.14.9.2.5c.68 1.34 2.8 6.02 1.66 9.36-.4 1.2-1.2 2.07-2.4 2.65-1.32.7-2.35.5-2.8-.4-.52-.9-.17-2.5 1.15-3.3.77-.4 1.2-1.3 1.14-2.3-.1-1.2-.9-2.2-2.1-2.7l-.6-.2-.3.5c-3.17 6-3.96 15.2-2.5 29l.03.6h.6c4.4 0 7.9-2.7 9.84-7.56 3.32-8.53 2.5-21.3-.37-27.9l-.93-.3c-.6.37-1.1.8-1.58 1.2zm.8.98l.82-.63c1.33 3.46 2.14 8.35 2.14 13.37 0 4.5-.63 9.04-2.1 12.8-1.64 4.1-4.5 6.45-8.06 6.68-.4-4.12-.63-7.8-.63-11.1 0-6.9.93-12.08 2.8-15.9.44.3.72.78.74 1.3v.08c0 .42-.2.8-.5.98-1.4.8-2 2.2-2 3.48 0 .56.1 1.1.3 1.56.6 1.2 2.1 2.07 4.5 1 1.5-.74 2.5-1.88 3.1-3.4.3-.85.4-1.7.4-2.6 0-2.9-1.2-5.88-1.9-7.32.2-.14.3-.3.3-.3z" fill="#8E9192"/></g></svg>