<svg xmlns="http://www.w3.org/2000/svg" width="192.76" height="192.76" viewBox="0 0 192.756 192.756"><path fill-rule="evenodd" clip-rule="evenodd" fill="#FFF" d="M0 0h192.76v192.76H0V0"/><path d="M96.38 189.92c-85.5-52-76.1-155.3-76.1-155.3 57.98.72 76.1-31.8 76.1-31.8s18.1 32.52 76.1 31.8c0 0 9.4 103.3-76.1 155.3z" fill-rule="evenodd" clip-rule="evenodd" fill="#FFF"/><path d="M164.1 41.4c-51.5.65-67.66-28.15-67.72-28.27-.07.12-16.23 28.92-67.72 28.28 0 0-1.28 14 1.68 33.8H162.4c2.97-19.8 1.7-33.8 1.7-33.8zM85.97 79.54v93.1c3.3 2.42 6.74 4.76 10.4 7 3.75-2.3 7.28-4.7 10.63-7.17V79.54H85.97zm-27.54 0v65.7c5.82 7.8 12.76 15.33 21.02 22.25v-88H58.43zm-27.38 0c2.9 16.72 8.9 36.9 20.85 56.14V79.54H31.05zm110.02 0v55.8c11.82-19.16 17.74-39.18 20.64-55.8h-20.6zm-27.55 0v87.77c8.27-6.9 15.2-14.5 21.03-22.3V79.56h-21.03z" fill-rule="evenodd" clip-rule="evenodd" stroke="#000" stroke-miterlimit="2.61"/><path d="M68.2 62.18c-1.03 2.54-2.9 4.25-5.02 4.25-3.25 0-5.9-3.94-5.9-8.8 0-4.84 2.64-8.77 5.9-8.77 2.12 0 3.97 1.7 5 4.2h6.2C72.85 47.56 68.34 44 62.63 44c-7.07 0-11.23 6.18-11.23 14.08s4.52 13.2 11.6 13.2c5.53 0 9.72-3.7 11.28-9.1H68.2zm33.48 8.18h5.8L97.33 44H92L81.83 70.35h5.8l1.73-5.06h10.57l1.74 5zm-10.7-9.76l3.68-10.68 3.67 10.68H91zm24.76 9.8V44h8.03l4.78 18 4.77-18h8.03v26.4h-4.95l-.04-20.8-5.3 20.8h-5.1l-5.23-20.8-.03 20.8h-4.96" fill-rule="evenodd" clip-rule="evenodd" fill="#FFF"/><path d="M96.38 184.3C16 135.43 24.85 38.33 24.85 38.33 79.35 39 96.38 8.45 96.38 8.45S113.4 39 167.9 38.32c0 0 8.86 97.1-71.52 146m0 0" fill="none" stroke="#FFF" stroke-width="10" stroke-linejoin="round" stroke-miterlimit="2.61"/><path d="M96.38 189.92c-85.5-52-76.1-155.3-76.1-155.3 57.98.72 76.1-31.8 76.1-31.8s18.1 32.52 76.1 31.8c0 0 9.4 103.3-76.1 155.3m0 0" fill="none" stroke="#000" stroke-width="4" stroke-linejoin="round" stroke-miterlimit="2.61"/></svg>