<svg xmlns="http://www.w3.org/2000/svg" width="192.76" height="192.76" viewBox="0 0 192.756 192.756"><path fill-rule="evenodd" clip-rule="evenodd" fill="#FFF" d="M0 0h192.76v192.76H0V0"/><path d="M33.82 45.32v79.07c-13.9-22.5-21.2-49.1-23-79.1h23zm17.88 0h17.87v117.64L51.7 147.88V45.32m107.23 0h22.02c-1.42 32.43-9.46 57.67-22.02 77.98V45.32zm-35.73 0h17.86v101.74l-17.87 15.72V45.33m-35.8 0h17.83v129.33l-8.9 4.55-8.96-4.2V45.4M39.64 37H31.8l-1.08 3.7H23.7l8.4-22.35h7.52l8.4 22.33H40.8l-1.1-3.7zm-1.45-4.82l-2.48-8.03-2.45 8h4.9zm8.1-13.85h7.22l5.04 16.1 4.95-16.1h7l-8.27 22.35h-7.5l-8.4-22.38zm38.5 18.65h-7.9l-1.1 3.7h-7.04l8.4-22.36h7.53l8.4 22.33h-7.2l-1.1-3.7zm-1.46-4.83l-2.47-8-2.48 8h4.92zM95.6 18.3h6.9v22.34h-6.9V18.3zm32.73 0h17.08v4.8h-10.1V27h8.7v4.5h-8.62v9.14h-6.93V18.3zM164 31.5l6.07 1.84c-.4 1.7-1.05 3.12-1.92 4.26-.88 1.13-1.96 2-3.26 2.57-1.3.58-3 .87-5 .87-2.48 0-4.4-.35-6-1.06-1.55-.7-2.88-1.95-4-3.73-1.1-1.77-1.68-4.05-1.68-6.83 0-3.7 1-6.54 2.94-8.53 1.97-2 4.76-3 8.35-3 2.8 0 5.03.5 6.64 1.7 1.6 1.1 2.8 2.9 3.6 5.2l-6.1 1.33c-.24-.68-.46-1.18-.7-1.5-.38-.5-.86-.93-1.4-1.2-.57-.3-1.2-.44-1.9-.44-1.55 0-2.76.63-3.6 1.9-.6.92-.94 2.4-.94 4.4 0 2.47.4 4.2 1.15 5.1.77.9 1.8 1.4 3.18 1.4 1.33 0 2.33-.4 3-1.1.7-.76 1.17-1.85 1.47-3.26zM96.38 16.94h3.94l3.95-2.7-3.74-.43-4.15 3.2" fill-rule="evenodd" clip-rule="evenodd" fill="#323991"/><path d="M11.45 10.54H183.8l.1 2.48c2.2 48.38-5.5 83.2-20.7 109.6-15.22 26.48-37.9 44.4-65.6 58.96l-1.2.63-1.2-.6c-27.72-14.6-50.4-32.5-65.62-58.9-15.2-26.4-22.9-61.2-20.7-109.6l.1-2.47h2.47zM14 42.74h164.76c.4-8.5.44-17.47.07-27.02H13.93c-.37 9.56-.34 18.55.06 27.04zm164.47 5.17H14.3c2 30 8.9 53.3 19.75 72.2 14.46 25.17 36 42.3 62.33 56.38 26.34-14.03 47.87-31.2 62.32-56.35 10.84-18.84 17.74-42.2 19.77-72.14z" fill="#323991"/></svg>