<svg xmlns="http://www.w3.org/2000/svg" width="450.01" height="500" viewBox="0 0 675 750"><g fill="#026b38"><path d="M289.95 130.14c42.43-5.96 86-3.85 127.6 6.36 41.5 10.16 81 28.36 115.68 53.3 66.2 47.1 114.5 118.86 132.55 198.15 5.92 24.37 8 49.45 9.23 74.44v4.2c-1 19.5-2.4 39.1-5.9 58.3-11.1 61.8-40.2 120.16-82.8 166.27-13.3 14.44-27.8 27.7-43.3 39.65-8.4 6.42-16.8 12.73-25.23 19.1.05-22.27.15-44.5.18-66.78-29.3 24.03-63.3 42.35-99.66 53.1-40.04 11.94-82.73 14.8-124 8.5-39.4-5.98-77.4-20.5-110.8-42.15-10.76-6.86-20.8-14.7-30.7-22.7.84 23.2 2.1 46.35 3.06 69.54-14.66-11.4-29.75-22.3-43.6-34.72-46.85-41.72-81.76-96.77-99-157.15C4.86 529.1.66 499.4 0 469.7v-9.3c.6-40.13 8-80.24 22.62-117.67 27.25-70.95 79.38-131.9 145.06-170.05 37.46-21.96 79.27-36.46 122.27-42.52m-38 19.38c-42.08 11.36-81.83 31.33-116.07 58.32-57.5 44.84-99.36 109.4-116.27 180.37C6.5 442.6 7.6 500.4 22.8 554.3c10.1 35.73 26.4 69.67 48 99.85 20.3 28.56 45.5 53.5 73.56 74.44-.83-18.6-1.7-37.16-2.52-55.7 4.9-.9 9.77-1.9 14.68-2.7 32.6 28.85 72.25 49.73 114.5 60.23 47 11.86 97.15 10.8 143.6-3 37.35-10.94 72.2-30.13 101.67-55.55 4 .75 8.1 1.56 12.1 2.36l-.1 55.73c36.8-26.85 68.4-61 91.4-100.4 22.7-38.62 37.1-82.1 42.2-126.63 5.44-47.65.6-96.55-14.86-142-23.34-70.1-71.53-131.48-133.82-171.17C471.7 163 423.96 146 374.9 140.4c-41.03-4.7-83-1.7-122.9 9.17z"/><path d="M261.88 154.17c36.62-8.9 74.8-11.17 112.23-6.86 49.3 5.6 97.1 23 138.4 50.3 32.3 21.2 60.7 48.3 83.4 79.5 24.3 33.2 42 71.2 51.9 111.1 11.7 47.6 12.46 97.9 1.88 145.8-8 36.5-22.56 71.4-42.77 102.8-19.27 29.9-43.6 56.58-71.57 78.6.05-15.6.07-31.23.14-46.84-14.8-2.92-29.56-5.8-44.33-8.7 27.1-21.72 49.94-48.86 66.08-79.67 21.78-40.9 31.7-88 28.1-134.2-3.25-44-18.68-87-44-123.1-23.55-33.73-55.5-61.53-92.26-80-54.7-27.9-119.9-34.1-178.94-17.36-35.73 9.98-69.12 28.2-96.95 52.75-29.77 26.14-53.25 59.45-67.63 96.37-21 53.37-22.5 114.1-4.35 168.5 12.76 38.63 35.46 73.9 65.1 101.74 4.8 4.8 10.2 8.93 15.14 13.5-15.6 3-31.23 5.86-46.85 8.8l2.1 46.16c-26.28-21.4-49.5-46.64-67.9-75.1-18-27.5-31.6-57.84-40.2-89.56-12.95-47-14.47-97-5.3-144.8 7.9-40.56 23.77-79.5 46.5-114 21.2-32.34 48.34-60.75 79.6-83.5 33.6-24.53 72.06-42.38 112.5-52.16m76.57 11.3c-4.73 4.13-6.9 10.43-7.4 16.54-.6 6.7.34 14 4.7 19.37 5.76 7.07 16.55 8.67 24.66 5.08 5.6-2.5 8.86-8.16 10.44-13.85l-9.33-.46c-.93 2.06-1.75 4.33-3.56 5.83-4.3 3.58-11.6 2.68-14.77-2-2.4-3.43-2.87-7.8-2.7-11.88.3-4.36 1.23-9.05 4.38-12.25 3.44-3.6 9.43-3.8 13.46-1.14 2.27 1.44 3 4.15 3.92 6.5 3.13.17 6.27.32 9.42.42-.7-5.56-3.5-11.04-8.48-13.86-7.57-4.34-18.08-4.2-24.77 1.73m-49.53-.5c1.57 14.94 3.22 29.9 4.75 44.9 11.4-1.1 22.78-2.4 34.17-3.6l-.85-7.95-24.95 2.6c-.43-3.88-.84-7.77-1.2-11.66 7.3-.78 14.6-1.47 21.9-2.38-.3-2.64-.6-5.27-.87-7.9l-21.93 2.3-1-9.46 23.87-2.5-.86-7.96-33.08 3.56m103.27 2.24c-7.04 1.2-12.6 6.78-14.9 13.35-2.78 7.54-3.88 16.56.42 23.7 6.22 9.8 20.7 13.08 30.6 6.98 6.1-3.94 9.05-11.2 10.2-18.15 1-6.14.35-13-3.68-18-5.37-6.56-14.5-9.53-22.7-7.85m-146.5 8.02c3.74 14.6 7.53 29.17 11.3 43.76 3.06-.8 6.1-1.6 9.17-2.38l-4.1-15.8c5.64-1.83 12.1-2.2 16.9-6 6.6-5.83 5.33-17.3-1.15-22.7-3.26-2.8-7.86-3.2-11.86-2.2-6.8 1.6-13.5 3.5-20.3 5.2m170.6 43.38c10.62 4.24 21.28 8.38 31.9 12.6.97-2.4 2.07-4.72 2.8-7.2-7.42-3.65-15.46-6.2-23.12-9.4 1.4-3.65 2.83-7.3 4.28-10.92 6.86 2.7 13.7 5.37 20.5 8.1 1-2.48 2-4.98 2.97-7.48-6.86-2.66-13.68-5.4-20.5-8.07l3.5-8.9 22.3 8.83c1-2.5 1.96-4.97 2.93-7.46-10.32-4.05-20.62-8.14-30.93-12.2-5.54 14.03-11.05 28.05-16.6 42.06m-203.6-30.2c1.1 15.93 2.07 31.88 3.17 47.8 3.04-1.3 6.1-2.6 9.13-3.95-.06-3.26-1.1-6.7-.4-9.88 4.9-2.33 9.97-4.32 14.95-6.5 2.1 2.47 4.2 4.94 6.34 7.4 3.1-1.36 6.22-2.7 9.34-4.03-10.7-11.85-21.7-23.45-32.5-35.23-3.38 1.44-6.7 2.88-10.05 4.4m238.27 44.1l7.58 4.45c5.5-9.3 10.9-18.64 16.4-27.94-.1 12.43-.2 24.87-.32 37.3l8.15 4.8c7.63-13 15.25-26 22.86-39.04l-7.6-4.45c-5.37 9.1-10.64 18.2-16 27.27.1-12.1.2-24.2.4-36.3-2.84-1.76-5.7-3.45-8.6-5.13-7.6 13-15.26 26-22.84 39.04M182.36 204c3.06 4.84 6.2 9.62 9.2 14.5-4.98 3.1-9.9 6.27-14.83 9.43-3.1-4.8-6.14-9.64-9.2-14.46l-8 5.1c8.14 12.7 16.2 25.4 24.33 38.1 2.65-1.7 5.3-3.38 7.96-5.07-3.6-5.73-7.36-11.4-10.9-17.16 5-3.1 9.9-6.3 14.9-9.4 3.6 5.7 7.2 11.4 10.9 17.1l7.92-5.1c-8.1-12.7-16.25-25.4-24.3-38.1-2.7 1.68-5.37 3.37-8 5.07m327.8 20.07c-5.1 2.7-9.1 9.05-6.8 14.83 2.63 6.46 8.4 11 11.45 17.2 1.93 3.5-2.46 7.44-5.88 6.05-5.97-1.8-12.84-8.4-8.6-14.9-2.34-1.94-4.7-3.85-7.12-5.65-1.6 2.9-3.32 6-3.1 9.42.2 5.6 3.94 10.3 8 13.8 4.44 3.8 10.3 6.72 16.26 5.58 6.57-1.57 12.46-8.88 9.84-15.73-2.7-6.44-8.1-11.23-11.64-17.2-1.88-2.93 1.1-6.9 4.4-6.5 6.02.87 12.3 7.6 8.65 13.74 2.36 1.9 4.7 3.83 7.08 5.67 1.75-3.1 3.3-6.58 2.8-10.25-.7-6.48-5.7-11.46-11-14.7-4.2-2.65-9.77-3.77-14.3-1.32M129.5 253.9c1 6.6 5.04 12.34 9.8 16.83 4.43 4.2 10.37 7.27 16.6 6.77 8.3-.8 15.8-7.04 18.26-14.94 1.68-5.43-.1-11.1-2.6-15.95-2.37 2.07-4.7 4.1-7.02 6.2.7 2.08 1.67 4.1 1.53 6.3-.33 5.78-6.4 10.5-12.04 9.28-4.4-.92-8-4.06-10.83-7.46-2.7-3.3-5.05-7.37-4.68-11.8.37-4.53 4.2-8.3 8.5-9.3 2.7-.7 5.2.74 7.55 1.86 2.4-2.06 4.75-4.14 7.07-6.26-2.33-1.7-4.75-3.4-7.6-4-12.78-3.1-26.54 9.5-24.48 22.53m386.14 24.2c7.7 8.5 15.47 16.9 23.2 25.3l5.9-5.4-16.94-18.45c2.88-2.63 5.75-5.28 8.65-7.9 4.98 5.42 9.98 10.8 14.9 16.23l5.9-5.4c-4.92-5.43-9.92-10.82-14.9-16.23 2.35-2.16 4.68-4.3 7.04-6.43 5.35 5.9 10.8 11.73 16.16 17.64l5.92-5.4-22.5-24.5-33.33 30.6m-414.28.5c-11.53 4.1-19.04 18.8-13 30.08 4.3 7.54 12.04 13.1 20.5 15 14.47 2.84 27.8-13 24.23-26.85-1.8-6.65-7.1-11.64-12.74-15.18-5.55-3.54-12.65-5.44-19-3.04m448.1 39.1c3.5 5.77 6.8 11.6 10.35 17.3 2.43 4 6.4 7.2 11.1 7.9 6.5 1.1 13.1-1.1 18.65-4.4 5.14-3.08 9.84-7.6 11.4-13.5 1.26-4.37 0-9-2.2-12.8-3.35-5.9-6.93-11.65-10.3-17.54-13.03 7.6-25.97 15.38-38.96 23.06m-490.1-3.35c-.6 1.17-1.15 2.3-1.7 3.5.36 1.2 1.4 2.44.83 3.75-1.84 3.38-6.18 5.2-6.6 9.36-.55 3.34 2.15 5.76 4.17 7.98l1.7-3.4c-.6-1.13-1-2.32-1.18-3.57 1.83-3.43 5.7-5.5 6.85-9.3.9-3.46-1.93-6.08-4.1-8.3m8.8 11.3c-1.56 3.23-3.2 6.5-4.8 9.73L96.86 370l4.4-8.94-6.97-6.93c2.42-4.96 4.92-9.9 7.27-14.9 3.26.4 6.5.95 9.74 1.47l4.5-9.2c-15.9-1.93-31.76-3.84-47.63-5.7m501.9 27.7c4.24 10.63 8.5 21.25 12.8 31.86l7.4-2.96L581 359l10.83-4.35 8.22 20.45 7.42-3-8.2-20.45c2.93-1.2 5.87-2.38 8.8-3.56l8.97 22.2 7.42-3-12.4-30.84c-14 5.6-27.98 11.23-41.97 16.83m-511.9 8c-8.1 3.23-12.44 12.5-12.07 20.87.32 7.36 5.58 13.65 12.04 16.74 7.4 3.6 16.6 5.5 24.4 1.78 4.85-2.3 8-7 9.8-11.9 1.8 1.2 3.6 2.35 5.43 3.52l-.1-7-4.1-2.68c.35-7.76-4.65-14.54-11.3-18-.93 2.95-1.84 5.93-2.73 8.9 1.77 1.46 3.8 2.8 4.8 5 2.36 5.1-.47 12.05-5.9 13.8-3.77 1.27-7.9.76-11.63-.36-4.18-1.3-8.5-3.3-10.93-7.14-2.8-4.3-1.43-10.32 2.26-13.62 1.93-1.73 4.66-1.75 7.1-2.04.93-3 1.9-6 2.73-9.02-3.3-.23-6.77-.34-9.87 1.05m529.38 41.3c.58 3.1 1.16 6.17 1.7 9.26 6.26-1.13 12.5-2.3 18.75-3.47 1.2 6.52 2.43 13.03 3.63 19.56 2.6-.5 5.24-.98 7.86-1.47l-3.63-19.57c3.34-.63 6.7-1.26 10.04-1.87 1.37 7.45 2.76 14.9 4.15 22.35l7.9-1.46c-2-10.54-3.9-21.1-5.95-31.64-14.8 2.8-29.62 5.6-44.42 8.3M38.78 414.3l-1.6 10.8 42.4 22.5c.5-3.27.98-6.54 1.46-9.8l-8.77-4.5c.8-5.5 1.6-11 2.43-16.5l9.63-1.5 1.5-10.18-47.05 9.2m560.03 24.42c-4.2 3.37-5.6 9.03-5.6 14.2.1 5.26 1.2 11 5.1 14.8 3.3 3.3 8.27 4.15 12.8 4.02 9.74-.3 19.47-.74 29.2-1.08-.1-3.22-.23-6.43-.35-9.64-9.64.34-19.3.72-28.92 1.1-2.73.08-5.9-.13-7.76-2.42-2.04-2.6-2.45-6.26-1.66-9.4 1.06-3.64 5-5.37 8.56-5.34 9.7-.44 19.44-.73 29.16-1.12-.1-3.2-.23-6.42-.34-9.62-9.24.32-18.5.68-27.8 1-4.22.18-8.83.64-12.22 3.47m-563.7 8.9l-.36 9.4 45.2 1.8c.1-3.16.24-6.3.36-9.44l-45.2-1.7m28.6 15.2c.2 3.1.4 6.2.65 9.34 2 .67 4.2 1.13 5.86 2.55 4.5 3.8 4.47 11.74-.2 15.4-3.62 2.98-8.5 3.86-13.1 3.9-3.8.02-7.9-.6-10.94-3.1-3.86-3.1-4.6-9.08-2.32-13.35 1.22-2.24 3.7-3.23 5.83-4.37-.2-3.15-.4-6.3-.7-9.4-3.1.9-6.23 2.04-8.62 4.33-6.7 6.04-7.42 16.63-3.73 24.47 3.14 6.75 10.5 10.5 17.7 10.93 7.46.48 15.6-.83 21.42-5.87 7.5-6.58 8.05-18.8 2.7-26.87-3.28-4.83-9-7.06-14.5-8m568.2 14.8l-1.5 13.6c-12.34-1.36-24.67-2.7-37-4.03l-1 9.4 37 4-1.5 13.6 7.97.86L640 478.5l-7.95-.9m-572.52 31c-6.3 1.6-12.66 5.02-15.8 11-4.85 9.6-1.7 22.44 7.06 28.7 5.3 3.7 12.2 3.95 18.34 2.6 6.7-1.35 13.56-4.56 17.16-10.64 5.5-9.7 2.3-23.26-6.83-29.6-5.84-3.9-13.38-3.78-19.95-2.06m522.68 36.27c2.57.66 5.13 1.32 7.7 2 2.2-8.06 4.2-16.2 6.3-24.3l11.34 2.9c-1.83 7.12-3.64 14.23-5.44 21.35 2.6.64 5.18 1.3 7.76 1.96 1.8-7.15 3.66-14.26 5.45-21.37l9.28 2.3c-1.97 7.78-3.96 15.5-5.9 23.28l7.73 2 8.2-32.24c-14.6-3.7-29.22-7.4-43.82-11.13-2.82 11.07-5.62 22.15-8.46 33.23m-10.2 25c-1.4 3.8-1.8 8.26.3 11.9 3.4 6.74 13.4 9.87 19.1 4.2.56 7.3 9.5 11.44 15.7 8.3 3.6-1.78 5.7-5.4 7.3-8.9 2.8-6.5 5.53-12.97 8.3-19.44-13.86-5.9-27.7-11.85-41.58-17.77-3 7.26-6.36 14.38-9.07 21.75M73.43 559.1c-1.02 7.37 1.93 14.54 2.03 21.86-.17 3.38-4.74 5-7.23 2.92-4.7-3.75-6.8-12.32-.87-16-1.12-2.8-2.3-5.57-3.63-8.3-2.75 1.9-5.6 4-6.97 7.2-2.74 5.93-.8 12.8 2.26 18.23 2.4 4.5 6.7 8.3 11.98 8.4 5.7.1 12.3-3.3 13.2-9.4 1.07-7.4-2.5-14.5-1.8-21.9.8-3.5 5.9-4.2 8.1-1.52 2.8 3.1 4.8 7.36 4.45 11.63-.17 2.47-2.27 4-4 5.5l3.4 8.2c3.08-1.6 6.08-3.76 7.5-7.03 2.75-6 .75-12.93-1.98-18.56-2.62-5.26-7.57-10.3-13.85-10.14-5.37.13-11.5 3.28-12.5 9m16.8 37.8c.18 7.37 4.1 13.97 5.23 21.16.2 3.2-3.68 5.4-6.42 4-5.4-2.84-8.96-11.3-3.5-15.84L81 598.6c-2.7 2.16-5.23 4.83-6.08 8.3-1.7 6.16 1.15 12.48 4.86 17.3 3.06 4.15 8.05 7.47 13.4 6.65 5.8-.77 11.8-5.56 11.45-11.86-.4-7-4.26-13.2-5-20.1-.44-3.66 4.5-5.8 7.23-3.75 3.55 2.5 6.14 6.56 6.62 10.9.3 2.6-1.62 4.52-3.2 6.3 1.55 2.54 3.1 5.1 4.68 7.65 4.55-3.1 7.78-8.46 6.73-14.1-1.4-7.6-5.8-15.1-12.7-18.8-7.2-4-18.4 1.17-18.7 9.78m474.14-4.4c-11.86 4.12-19.25 19.6-12.66 30.9 4.84 7.7 13.4 13.1 22.4 14.2 14.35 1.2 26.17-15.1 21.7-28.5-2.23-6.44-7.77-11.07-13.6-14.27-5.35-2.93-11.9-4.45-17.8-2.35M101.9 653.6c2.32 2.8 4.66 5.6 7.03 8.38 14.95-5.63 30-11.1 44.95-16.7-2.14-2.54-4.27-5.1-6.37-7.63-3.1 1.17-6.12 2.37-9.2 3.57-3.6-4.27-7.2-8.53-10.7-12.8l5.3-8.2c-2.2-2.62-4.4-5.24-6.57-7.86-8.2 13.7-16.3 27.5-24.45 41.23m416.9-6.7c2.06 1.8 4.1 3.6 6.2 5.32 4.93-5.64 9.85-11.28 14.86-16.84 9.2 8.23 18.5 16.3 27.76 24.5 2.1-2.35 4.17-4.7 6.25-7.1-11.3-9.87-22.4-19.93-33.8-29.7-7.34 7.66-14.1 15.9-21.2 23.8z"/><path d="M393.44 175.62c6.05-2.53 13.86 1.04 15.47 7.5 1.5 6.42 0 13.6-3.9 18.88-4.03 5.47-12.9 5.56-17.4.6-3.63-3.88-3.7-9.75-2.55-14.66 1.04-4.97 3.5-10.27 8.48-12.32zm-136.6 4.76c3.7-.9 7.36-2.14 11.2-2.38 6.07-.64 8.43 9.6 3.07 12.08-3.4 1.56-7.3 2.18-10.9 3.2-1.1-4.3-2.23-8.6-3.3-12.9zm-33.48 33.92l-1.8-18.9 12.38 14.34c-3.53 1.52-7.05 3.05-10.58 4.56zm60.56 14.84C341.9 215.87 404.68 225 456.3 254.6c34.65 19.6 64.3 47.94 85.53 81.64 23.2 36.54 36.17 79.47 37.07 122.74 1.2 46.24-11.5 92.7-35.77 132.05-17.37 28.66-41.04 53.25-68.3 72.65l32.62 6.43c-30.87 25.6-67.48 44.3-106.44 53.8-45.6 11.4-94.3 10.27-139.4-3.2-35.3-10.4-68.3-28.4-96.4-52.13l32.7-6.1c-30.04-21.83-55.8-49.86-73.4-82.7-21.8-40-31.53-86.4-28.3-131.8 2.2-33.03 11.47-65.6 26.88-94.9 16.25-31 39.36-58.42 67.13-79.74 27.6-21.25 59.8-36.5 93.8-44.1m26.14 13.8c-36.46 4.4-71.75 18.04-101.7 39.3-32.73 23.1-59.16 55.1-75.44 91.76-13.8 30.63-20.36 64.43-19.2 98 1.2 43.56 15.8 86.63 41.1 122.1 23 32.46 54.8 58.62 91.16 74.86 39.54 17.9 84.35 23.45 127.17 16.6l-2.2 6.33 5.14-.9 2.2-6.37c49.06-9.08 94.67-35.3 127.35-72.98 26.78-30.52 45-68.52 51.87-108.55 7.6-43.5 2-89.28-16.2-129.5-16.3-36.58-42.75-68.5-75.47-91.55-44.7-31.84-101.44-46-155.87-39.16M444 676.04c.3 5.78 3.5 11.43 8.23 14.74 6.03 4.2 15.02.9 18.03-5.5 1.5-2.97.82-6.3.3-9.4-1.7.9-3.37 1.8-5.05 2.74.98 3.86-1.3 8.14-5.43 8.62-5.2.3-8.4-4.98-9.85-9.28-1.56-3.86.78-8.45 4.84-9.27 2.2-.8 4.07.9 5.9 1.88l5-2.83c-1.7-1.63-3.44-3.4-5.8-4-7.53-2.1-16.55 4.2-16.15 12.27M211.3 665.2c-5.35 3.66-9.03 10.33-8.33 16.9 1.17 7.3 9.96 12.46 16.8 9.56 2-.85 3.6-2.4 5.3-3.75l-5-2.9c-1.3.8-2.56 1.8-4.04 2.2-3.98.67-8.05-3-7.3-7.1.66-4 2.8-7.9 6.13-10.2 3.13-2.26 7.87-.7 9.52 2.66.5 1.45.2 3 .34 4.54 1.65.95 3.3 1.9 5 2.82.33-1.9.97-3.84.7-5.8-1.1-8.32-12.02-13.6-19.1-8.84M236.5 673c-3.7 8.6-7.44 17.14-11.08 25.75 1.8.75 3.6 1.52 5.38 2.28l4.98-11.5c3.34 1.43 6.7 2.87 10.03 4.32l-5 11.5 5.4 2.33 11.1-25.72-5.4-2.3-4.2 9.74-10-4.32 4.2-9.7c-1.8-.8-3.6-1.6-5.4-2.37m185.2 7.7c-3.52 3.9-1.7 11.3 3.4 12.8 4.68.9 9.2-1.4 13.9-1.1 2 .2 3.1 2.86 1.8 4.4-2.6 3.5-8.4 4.9-11.36 1.05l-4.92 2.26c4.08 8.06 15.44 5.6 20.33-.24 3.36-3.75 2-10.9-2.85-12.7-5-1.23-9.94 1.26-14.93 1.06-1.7-.56-2.5-2.9-1.33-4.33 2.35-3.13 7.4-4.1 10.1-.74l5-2.2c-1.7-2.26-3.74-4.65-6.75-4.96-4.56-.52-9.3 1.5-12.4 4.84M251 709.5l5.9 1.77c1.17-1.67 2.35-3.32 3.54-4.97 3.3 1 6.58 1.97 9.88 2.94l.08 6.07 6.08 1.8c-.5-9.9-.88-19.8-1.5-29.7l-6.4-1.8c-5.88 8-11.73 16-17.6 24m35.65-18.9c-1.66 9.2-3.32 18.4-4.96 27.6 1.9.27 3.8.82 5.75.7.75-3.18 1.2-6.4 1.77-9.63 3.5.5 7.1 1.73 10.7 1.1 7.1-1.67 9-13.37 2.1-16.55-5-1.82-10.3-2.1-15.4-3.2m83.6 2.73c-9.5 3.5-9.7 16.57-4.4 23.7 5.55 7.34 18.65 5.63 22.4-2.7 2.2-5.4 1.2-11.87-1.8-16.8-3.38-5.24-10.7-6.56-16.2-4.18m25.3 5.37l1.6 5.75c5.83-1.6 11.7-3.15 17.54-4.84-.56-1.9-1.1-3.77-1.6-5.65-5.88 1.53-11.7 3.17-17.56 4.77m-86.77 23.95l21.2 1.5c.1-1.66.23-3.3.35-4.94l-15.47-1.1.5-7.22c4.6.3 9.1.64 13.7.97.1-1.66.2-3.3.33-4.95l-13.6-.95.4-5.87 14.86 1.07c.1-1.66.23-3.3.35-4.96-6.9-.46-13.7-.96-20.6-1.42-.62 9.3-1.33 18.6-1.95 27.94m27.58-21.3c-2.6 5.3-2.42 11.9.25 17.1 3.64 7.2 14.86 8.1 20.04 2.16 1.75-1.9 2.33-4.5 3.15-6.86-1.95.04-3.88.12-5.8.2-.97 1.95-1.78 4.4-4.1 5.06-3.18 1.3-7-.3-8.27-3.5-1.38-3.67-1.7-8-.08-11.66 1.48-3.55 6.3-4.7 9.46-2.8 1.2.97 1.85 2.44 2.7 3.7l5.85-.33c-.9-2.22-1.7-4.63-3.54-6.26-5.64-5.1-16.1-3.77-19.64 3.2z"/><path d="M321.57 248.85c52.6-4.04 106.38 12.14 147.96 44.6 31.16 24 55.64 56.62 69.82 93.32 15.84 40.56 18.8 85.96 8.7 128.28-8.72 36.8-27.45 71.16-53.48 98.58-26.62 28.24-60.96 49.15-98.32 59.67-34.8 9.8-72.05 10.84-107.3 2.72-37.87-8.57-73.22-27.74-101.25-54.6-27.32-26-47.7-59.25-58.33-95.46-7.65-25.84-10.3-53.12-7.97-79.95 2.92-34.5 14.44-68.2 33.14-97.4 20.26-31.8 48.98-58.1 82.38-75.6 26.15-13.73 55.17-22 84.65-24.1m47.3 46.06c-2.54 4.13-2.37 9.23-2.8 13.9-4.52 1.2-6.8 5.55-10.5 7.97-4.2.6-8.4-1.15-12.6-.43-4.4.74-8.5 2.56-12.84 3.46-4.37 1.07-8.95.75-13.3 1.94-5.58 1.5-11.3 3.5-15.64 7.47-3.9 3.58-4.8 9.07-7.6 13.37-3.3 4.1-6.4 8.37-9.8 12.4-1.3 3.85-.77 8.12-1.4 12.15 2.05 2.55 4.04 5.46 3.95 8.9.22 4.32-2.44 8.6-6.54 10.03-2.44 1.33-6.45 1.6-6.96 4.96-1.3 6.9 3.8 12.56 6.7 18.3 5.37 8.2 4.9 18.45 8.63 27.22 4.22 7.2 11.5 12.1 15.66 19.4 3.65-1.05 7.7-1.82 10.45-4.63 1.9-2.8 3.54-5.77 4.93-8.84 1.54-3.35-1.33-6.33-2.83-9.08-2.53-3.65-4.05-7.9-4.54-12.3-2.57-20.53-3-41.7 2.63-61.77 1.1-4.1 3.65-7.53 6.2-10.84 4.2-5.34 9.1-10.3 15.05-13.68 4.74-2.7 10.86-3.07 15.8-.66 2.8 1.3 4 4.3 5.66 6.66 1.8 2.9 5.3 3.96 7.68 6.25 4.8 4.18 6.97 10.8 5.98 17-1.04 7.5-3.58 15.27-9.1 20.7-3.2 3.32-8.8 3.5-11.25 7.7-1.1 1.56-.03 3.7 1.6 4.37 3.63 1.78 8 1.88 11.8.7 4.57-1.48 7.8-5.2 11.3-8.3 2.24-2.1 4.86-3.85 6.8-6.28 2.3-2.98 1.64-7.1 3.7-10.2 2.33-3.44 2.75-7.73 2.54-11.76-.36-3.54-2.95-6.44-3.17-10 .6-4.12 3.6-7.67 3.2-11.98-.24-5.58-4.3-9.9-5.8-15.07-.76-5.86.94-11.8.1-17.62-1.36-2.8-4.5-4.32-5.68-7.24-.9-1.72-1.08-4.02-2.9-5.1-1.57-1.28-4.13-.92-5.15.88m-142.9 81.6c-4.33.45-8.66-1.05-13-.4-1.7.17-3.4 1.8-2.7 3.6 2.14 1.5 6.1 1.9 5.9 5.3-.4 8.5-5.3 15.86-8.7 23.43-2.9 6.68-1.63 14.15-3.04 21.1-1.44 3.05-4.43 5-6.14 7.87-3.18 4.76-2.34 10.95-4.9 16-2.27 2.94-6.27 4.7-7.26 8.56-.74 3.7 1.1 7.38.63 11.1-.54 3.6-1.4 7.12-2.3 10.63-1.1 4.25-5.7 6.3-7.16 10.37-.78 4.3-.35 8.75-1.1 13.07-.8 5.57-4.26 10.2-7.1 14.88-3.1 4.6-5.7 9.6-9.5 13.65-2.15 2.5-5.9 2.42-8.17 4.75-1.3 1.38-2.75 3.25-2.1 5.3 2 1.22 4.5.87 6.7 1 14.3-.14 28.6.1 42.9-.13 3.5-.3 7.8-4.7 5.78-8.05-6.1-.6-13.23-2.43-15.9-8.6-1.33-3.5 2.9-5.68 3.23-8.9.5-3.9.83-8.1 3.74-11.1 23.06.1 46.14 0 69.2.05 4.86-.2 10.68 2.64 11.07 8.03.4 3.82 1.2 8 0 11.7-4.2 3.3-9.57 6.12-11.37 11.5.63 2.44 3.68 2.12 5.66 2.38 11.2.14 22.43 0 33.7.08 5.1.58 8.9-4.7 14.02-3.52 3.68 1 6.98 3.4 10.93 3.28 4.64-.05 10.4.27 13.66-3.74 1.28-1.7 2.6-5.04 0-6.2-3.44-1.4-7.27-.63-10.86-1.17-1.65-1.02-2.6-2.8-3.67-4.4-5.14-8.7-8.9-18.1-13.93-26.84-2.08-3.78-6-6.6-6.67-11.08-.3-3.23-.5-6.96 1.94-9.47 2.28-2.5 3.64-6 2.4-9.3-1.15-3.8-5.5-4.68-8.56-6.34-2.74-1.17-4.5-3.7-5.96-6.14-4.2-6.9-11.3-11.47-15.14-18.63-3.54-7.17-3.6-15.45-6.44-22.9-3.03-7.14-8.7-13.23-9.9-21.1-.37-4.33 0-9.44 3.58-12.4 2.68-2.4 6.37-2.95 9.3-4.86 2.8-5.03-3.4-9.13-7.74-9.9-4.78-1.75-8.3 3.8-12.95 2.77-3.4-2.12-6.6-5.16-10.9-5.16-8.65-1.4-13.8 7.46-21.2 10.07m183.2-2.45c-2.8 1.4-7.05 2.17-7.54 5.92.4 2.9 3.54 4.2 5.26 6.28 3.84 3.46 3.4 9 3.87 13.67.72 10.73 4.4 21.4 2.42 32.2-.8 4.3-1 8.7-1.36 13.04-.43 4.6-3.45 8.4-4.56 12.8-.62 4.9 4.4 8.3 4.28 13.16-.2 16-.4 31.97-.77 47.96.08 4.3-2.4 8-3.86 11.9-1.2 3-3.74 5.64-7.03 6.1-2.27.38-4.42 1.26-5.92 3.07 1.8 1.57 3.94 2.7 6.08 3.75 1.04 1.52 1.8 3.74 4.08 3.6 7.4.45 12.74-6.4 19.93-6.86 3.53.4 5.67 3.85 9 4.8 2.36.56 4.78-.08 7.07-.67 5.44-1.57 11.3-1.86 16.84-.6 3.82.87 7.2 3.05 11.03 3.88 3.34.44 7.2.1 9.65-2.46 2.5-2.7 4.7-5.93 5.48-9.58.57-1.77-1.24-3.47-2.92-2.7-2 1.07-2.5 4.15-4.95 4.5-4.4.55-8.84-.1-13.17-.8-3.02-.58-5.05-3.18-5.9-6-1.14-3.75-5.4-5.87-5.7-9.95-.6-5.3.18-10.7-1-15.95-.72-3.35-1.9-6.8-1-10.24.9-3.9 1.96-7.8 1.6-11.83.06-3.25-1-7.03 1.2-9.8 1.83-2.3 3.3-5.06 5.87-6.6 3.1-.5 5.53 1.75 7.7 3.6 2.63 2.35 6.2 3.33 8.76 5.8-1.04 4.85-.64 10.63 3.6 13.9 2 1.55 4.57-.62 5.1-2.64.77-2.8 1.2-5.7 2.3-8.43 1.5-3.3-1.35-6.4-1.16-9.77-.7-4.17 2.4-7.34 3.62-11.02.43-3.6-3.95-5.44-3.85-8.94-.13-6.5 1.17-13.5-1.86-19.56-1.63-3-7.02-4.83-9.03-1.32-1.04 4.66 1.6 9.2 1.17 13.84-.85 4.44-5.6 5.96-8.5 8.8-2.73 3.83-8.66 4.18-12.3 1.6-2.6-3.2-2.74-7.53-2.9-11.45-.25-15.6-.47-31.34 2.66-46.7 1.53-3.3 5.44-4.14 8.56-5.32 3.87-1.27 6.7-5.12 11.06-5.03 7.44-.2 14.4 2.9 20.94 6.13 5.92 2.7 11 8.35 11.53 15.05.9 5.76 4.14 11 4.26 16.9-.5 6.05-9.6 7.67-9 14 2.8 2.84 7.8 3.36 11.12 1 9.9-4.3 17.15-14.2 17.6-25.06.4-6-2.77-11.34-4.07-17-1.33-6.45.2-12.97 1.97-19.15.7-1.84-.3-4.37-2.5-4.4-1.86-.14-2.4 2.02-3.4 3.2-1.8 3.14-6.05 4.93-9.4 3.2-3.6-1.47-7.76-.83-11.1-3-7.4-4.64-16.57-4.8-25.02-4-3.77.3-7.3 1.82-10.4 3.95-3.65 2.67-8.76 2.33-12.57.18-3.16-1.7-6.2-4.2-10-4-6.37-.46-10.57 6.45-17.02 5.45-3.53-.1-5.52-3.3-8.13-5.2-3.05-1.54-5.2 1.86-7.74 2.88M361.3 500c.96 2.7 2.94 4.8 4.65 7.05 1.94 2.35.6 5.94 2.7 8.23 2.1 2.53 3.32 5.66 3.34 9 .1 5.36 2.7 10.4 2.1 15.85-.2 7.16-3.8 13.5-6.5 19.95-1.2 2.3-2.2 5.18-4.9 6.07-3.78 1.38-6.6 4.9-10.87 4.95-4.55.2-9.5.06-13.37-2.6-3.84-2.53-5.67-7.02-9.23-9.87-4.4-3.66-9.46-6.74-12.66-11.65-3.6 1.34-7.13 3-10.93 3.7-6.7.37-13.45-.14-20.16.2-3.25 2.55-7.23 5.8-6.97 10.38 1.1 3.02 4.44 4.46 5.8 7.36 2.9 5.54 6.98 10.34 10.9 15.18 3.64 4 7.28 8.38 12.38 10.55 3.66 1.53 7 4.06 11.06 4.42 9.02.94 18.42.9 27.1-2.1 4.3-1.4 8.48-3.64 13.1-3.6 3.53-.06 7.1-.17 10.55.65 1.8.37 2.3 2.37 3.3 3.67 1.44 2.6 4.4 4.5 4.63 7.7.27 2.1 1.5 6 4.33 4.2 4.27-3 6.08-8.1 9.08-12.16 1.28-1.63 2.06-3.56 2.25-5.6 1.54-12.1.4-24.4 2.04-36.5.53-3.93-3.52-6-5.35-8.9-3.86-4.54-2.35-10.78-1.6-16.1-.8-2.8-4.43-3.8-4.94-6.76-.83-3.1-1.96-6.14-3.67-8.86-2.46-4.44-6.85-7.48-8.75-12.25-1.4-3.88-6.35-3.74-9.47-2.23M299.8 622.7c-2.37 3.82-6 6.55-9.96 8.56 0 1.34.03 2.7.05 4.04 2.9-1.36 5.7-3 8.4-4.96-.1 8.83-.1 17.65-.1 26.48 1.4 0 2.8-.02 4.2 0V622.4c-.9.03-1.78.07-2.6.13m18.1 1.62c-7 4.62-6.38 17.28 1.8 20.3 4.3 1.8 8.9-.38 11.8-3.6-.58 3.47-.66 7.28-2.8 10.22-1.7 2.5-5.3 3.4-8 2.15-1.9-.87-2.4-3.08-3.2-4.75l-4 .3c.8 2.44 1.5 5.26 3.9 6.74 4.3 2.9 10.8 2.2 14.1-1.8 3.2-3.73 3.76-8.9 3.9-13.6 0-4.6-.13-9.7-3.1-13.5-3.3-4.3-9.9-5.4-14.4-2.4m21.9-1.1v4.1c5.5 0 11.04.03 16.56 0-6.8 8.32-11.1 18.75-11.9 29.52 1.4 0 2.84 0 4.3.03.96-10.52 5.15-20.7 11.8-28.9 1.3-1.23 1.26-3.04 1.45-4.7h-22.1m30.02 1.87c-1.9 1.6-2.6 4.04-3.48 6.3 1.36.24 2.72.52 4.1.8.87-2.3 1.73-5.14 4.4-5.86 3.66-1.46 8.4 1.68 7.5 5.8-.37 3.75-4.44 4.84-7.56 5.08l-.5 3.2c3.2-.4 7.26-.2 8.86 3.2 2.78 4.85-1.92 11.46-7.42 10.24-3.36-.35-4.75-3.8-5.63-6.58l-4.2.56c.7 2.4 1.4 5.06 3.4 6.78 5.3 4.9 15.2 3 18.14-3.66 2.22-4.72.1-11.3-5.3-12.6 3.24-1.73 5.35-5.4 4.15-9.06-1.83-6.88-11.56-8.78-16.58-4.22zM102.3 287.45c5.62-2.2 11.57.74 15.95 4.2 4.07 3.1 7.63 8.04 6.63 13.43-.95 6.27-7.6 11.03-13.86 9.44-6.02-1.52-11.58-5.5-14.7-10.9-3.38-5.8-.17-13.84 6-16.17zm458.72 34.17c8.5-4.98 16.94-10.02 25.4-15.05 2.16 4.1 5.54 7.7 6.3 12.4.23 5.8-5.2 9.52-9.64 12.1-4.5 2.46-10.66 4.43-15.15 1-3.07-2.9-4.7-6.97-6.9-10.5zm-486.24 13.4c6.23.95 12.46 1.93 18.7 2.9-1.7 3.42-3.4 6.85-5.08 10.3-4.6-4.36-9.1-8.8-13.62-13.2z"/><path d="M227.94 420c2.05-2.72 7.27-5.2 9.6-1.65 2.02 10.24 7.12 19.47 11 29.07 4.07 8.68-.2 19.04 4.45 27.56 2.3 4.58 7 7.12 9.8 11.3 1.44 2.2-.07 4.6-.9 6.68-19.5.1-39 .03-58.5.04.1-2.55.46-5.07 1.1-7.52 1.1-4.34 1.6-8.98 4.16-12.8 1.7-3.14 5.03-5.45 5.55-9.18.56-4.47 0-9.16 1.88-13.38 1.25-4 4.84-6.83 5.57-11.02 1.77-6.42 2.16-13.57 6.2-19.1zM47.9 421.27c6.23-1 12.46-1.98 18.68-2.96l-1.65 11.4c-5.7-2.7-11.37-5.5-17.02-8.4zm378.02 30.67c.58-3.27 2.07-6.32 3.94-9.04 2.46 2.7 5.94 5.12 6.13 9.1 0 2.8 3.2 4.34 3.2 7.03-2.68 2.22-6.78 2.7-9.97 1.56-2.07-2.4-3.7-5.5-3.4-8.7zm-229.96 9.13c2.7-1.15 4.78-3.2 7.04-5 .4 2.7 2.1 5.16 2.16 7.85-2 1.83-4.1 3.58-6.22 5.27-4.76 1.8-6.92-6.2-2.98-8.2zm76.34-3.7c2.1-1.56 3.64 1.27 5.34 2.15 1.54 1.58 4.98.75 5.26 3.42.26 2.42 2.96 5.1 1.4 7.36-3.9.75-9.14 4.1-12.47.62.3-4.5-2.87-9.7.48-13.56zM62.48 517.6c4.83-1.13 10.6-1.23 14.52 2.3 5.18 4.45 5.12 13.53-.46 17.64-5.2 3.84-12.2 5.5-18.55 4.16-6.6-1.48-10.4-9.4-7.8-15.52 2-4.95 7.3-7.43 12.2-8.57zM579.33 573c1.14-4.7 3.55-8.96 5.3-13.45 3.73 1.58 7.45 3.16 11.14 4.8-2.3 4.55-3.5 9.75-6.63 13.83-3.4 4.18-11.15-.08-9.8-5.18zm18.27 8.1c.72-4.9 3.45-9.2 5.16-13.8 3.04 1.3 6.08 2.58 9.1 3.92-2.17 4.42-3.4 9.37-6.38 13.35-2.47 3.36-8.52.53-7.9-3.48zm-32.3 20.37c4.9-1.83 10.18.18 14.34 2.86 4.1 2.63 8.08 6.53 8.5 11.66.63 6.6-5.33 13-12.04 12.4-6.58-.7-12.8-4.67-16.5-10.1-4-5.84-.84-14.6 5.7-16.93zM322.2 626.3c4.86-2.08 9.36 3.13 8.78 7.8.3 4.58-4.35 8.8-8.88 6.97-6.35-2.18-5.84-12.37.1-14.76zm-199 9.23c2.5 2.93 4.97 5.87 7.42 8.83l-17.58 7.1c3.37-5.33 6.8-10.6 10.16-15.93zm140.1 66.57c2.22-3.22 4.44-6.45 6.67-9.66.07 3.9.12 7.8.16 11.7l-6.83-2.03zm28.24-5.73c2.42.5 4.96.72 7.24 1.75 3.2 1.5 1.78 7.57-1.8 7.4-2.33-.07-4.6-.62-6.9-.98l1.46-8.17zm81.84 1.2c3.24-1.13 7 .4 8.5 3.5 1.85 3.73 2.63 8.6.48 12.37-2.63 4.37-10.02 4.25-12.3-.44-2.72-4.85-3.17-13.5 3.32-15.44z"/></g><g fill="#fff"><path d="M251.96 149.52c39.9-10.82 81.85-13.85 122.9-9.14 49.07 5.6 96.8 22.6 138.32 49.38 62.3 39.7 110.48 101.08 133.83 171.17 15.5 45.45 20.3 94.35 14.9 142-5.1 44.53-19.5 88-42.2 126.65-23 39.4-54.6 73.53-91.4 100.35l.16-55.72c-4.05-.8-8.1-1.6-12.14-2.3-29.46 25.4-64.32 44.6-101.67 55.58-46.45 13.8-96.6 14.85-143.6 3-42.25-10.5-81.9-31.37-114.5-60.23-4.9.78-9.77 1.8-14.66 2.7.83 18.54 1.7 37.1 2.52 55.66-28.08-20.93-53.2-45.9-73.54-74.44-21.6-30.2-37.9-64.1-48-99.84-15.3-53.9-16.4-111.7-3.26-166.1 16.93-70.94 58.8-135.5 116.3-180.34 34.24-27 74-46.96 116.08-58.32m9.92 4.65c-40.43 9.78-78.88 27.63-112.5 52.15-31.25 22.76-58.4 51.17-79.6 83.5-22.72 34.5-38.6 73.45-46.47 114-9.18 47.8-7.66 97.78 5.3 144.77 8.6 31.7 22.2 62.07 40.18 89.56 18.5 28.46 41.7 53.7 67.9 75.1l-2.1-46.17c15.7-2.93 31.3-5.77 46.9-8.77-5-4.5-10.4-8.7-15.2-13.5C136.7 617 114 581.7 101.2 543.1c-18.15-54.4-16.64-115.1 4.4-168.5 14.4-36.9 37.86-70.2 67.63-96.33 27.8-24.52 61.2-42.76 96.96-52.73C329.2 208.8 394.42 215 449.1 242.9c36.76 18.5 68.7 46.3 92.25 80C566.67 359 582.1 402 585.3 446c3.6 46.17-6.3 93.3-28.1 134.2-16.13 30.8-38.96 57.93-66.07 79.65 14.77 2.9 29.54 5.78 44.3 8.7-.06 15.62-.08 31.23-.13 46.84 27.98-22 52.3-48.7 71.58-78.6 20.2-31.4 34.77-66.37 42.76-102.8 10.57-47.9 9.84-98.2-1.86-145.8-9.9-39.96-27.6-77.9-51.86-111.15-22.72-31.2-51.1-58.28-83.38-79.47-41.36-27.25-89.17-44.65-138.4-50.25-37.4-4.3-75.6-2.03-112.22 6.87m22.04 74.98c-33.98 7.6-66.2 22.86-93.8 44.1-27.77 21.3-50.88 48.74-67.13 79.77-15.42 29.3-24.66 61.85-26.9 94.9-3.22 45.4 6.5 91.77 28.32 131.8 17.58 32.82 43.35 60.85 73.4 82.7-10.9 2-21.8 4.04-32.7 6.07 28.13 23.73 61.13 41.72 96.46 52.14 45.1 13.47 93.8 14.6 139.5 3.24 38.98-9.52 75.6-28.2 106.46-53.73l-32.62-6.44c27.26-19.4 50.93-44 68.3-72.65 24.27-39.37 36.97-85.8 35.77-132.06-.9-43.27-13.9-86.2-37.07-122.74-21.24-33.7-50.9-62.05-85.55-81.67C404.76 225 341.98 215.9 284 229.16z"/><path d="M338.44 165.47c6.7-5.92 17.2-6.07 24.76-1.73 4.98 2.82 7.8 8.3 8.47 13.85-3.15-.1-6.3-.3-9.43-.5-.92-2.36-1.65-5.07-3.92-6.5-4.03-2.65-10.02-2.45-13.45 1.13-3.15 3.2-4.07 7.9-4.36 12.2-.1 4.1.3 8.46 2.7 11.9 3.2 4.67 10.5 5.57 14.8 2 1.8-1.5 2.66-3.78 3.6-5.85 3.1.15 6.23.3 9.34.47-1.6 5.7-4.83 11.34-10.43 13.85-8.1 3.6-18.9 2-24.65-5.07-4.35-5.37-5.3-12.66-4.7-19.36.5-6.1 2.7-12.4 7.4-16.54zm-49.52-.5c11.03-1.2 22.06-2.37 33.08-3.55l.84 7.96-23.86 2.54 1 9.45 21.92-2.33.86 7.9c-7.28.9-14.6 1.6-21.9 2.38.37 3.9.78 7.78 1.2 11.66l24.94-2.64.84 7.94c-11.4 1.18-22.77 2.48-34.17 3.6-1.53-14.98-3.18-29.95-4.75-44.92zm103.28 2.23c8.2-1.67 17.34 1.3 22.67 7.86 4.03 5 4.7 11.86 3.65 18-1.12 6.95-4.07 14.2-10.2 18.17-9.9 6.1-24.35 2.86-30.6-6.96-4.3-7.17-3.2-16.2-.43-23.72 2.3-6.57 7.8-12.16 14.9-13.34m1.2 8.5c-5 2.06-7.5 7.36-8.5 12.3-1.1 4.9-1.1 10.8 2.53 14.7 4.5 4.95 13.36 4.86 17.42-.6 3.9-5.28 5.43-12.47 3.96-18.88-1.6-6.5-9.4-10.05-15.46-7.5zm-147.78-.4c6.76-1.7 13.5-3.6 20.3-5.2 4-1.02 8.6-.6 11.85 2.1 6.5 5.4 7.74 16.9 1.13 22.7-4.8 3.85-11.25 4.2-16.9 6l4.1 15.8-9.17 2.36-11.34-43.8m11.13 5.18c1.04 4.3 2.17 8.6 3.3 12.9 3.67-1 7.48-1.62 10.97-3.2 5.37-2.5 3-12.7-3.07-12.06-3.84.22-7.5 1.46-11.2 2.36zm159.44 38.25c5.55-14 11.06-28.03 16.6-42.05 10.3 4.05 20.6 8.14 30.93 12.2l-2.94 7.45-22.3-8.8c-1.2 2.93-2.38 5.9-3.5 8.83 6.8 2.67 13.6 5.4 20.5 8.05-1 2.5-2 5-3 7.45-6.82-2.75-13.66-5.4-20.5-8.1-1.44 3.62-2.87 7.25-4.26 10.9 7.65 3.2 15.7 5.74 23.1 9.4-.7 2.47-1.8 4.8-2.78 7.2-10.64-4.23-21.3-8.37-31.9-12.6zm-203.6-30.2c3.3-1.5 6.66-2.96 10.02-4.4 10.8 11.8 21.8 23.4 32.5 35.24-3.13 1.32-6.25 2.66-9.36 4-2.13-2.44-4.24-4.9-6.33-7.4-4.97 2.2-10.04 4.2-14.95 6.5-.7 3.18.33 6.64.4 9.9-3.03 1.34-6.1 2.66-9.13 3.96-1.1-15.9-2.06-31.86-3.18-47.8m10.7 25.9c3.53-1.5 7.05-3.03 10.6-4.55l-12.4-14.34 1.8 18.9zm227.56 18.2c7.58-13 15.2-26 22.83-39 2.9 1.66 5.76 3.35 8.6 5.1-.2 12.1-.3 24.2-.4 36.3 5.36-9.06 10.63-18.18 16-27.26l7.6 4.46c-7.6 13-15.24 26-22.86 39-2.73-1.6-5.45-3.17-8.15-4.77.12-12.45.24-24.9.34-37.33-5.5 9.3-10.9 18.65-16.4 27.96-2.53-1.5-5.06-2.97-7.6-4.44zm-268.4-28.5c2.66-1.7 5.32-3.4 8-5.07 8.08 12.74 16.2 25.4 24.3 38.1l-7.94 5.1c-3.67-5.66-7.3-11.36-10.9-17.1-4.98 3.1-9.9 6.34-14.88 9.4 3.54 5.8 7.27 11.46 10.88 17.2l-7.97 5.06c-8.2-12.7-16.2-25.4-24.4-38.1 2.64-1.7 5.3-3.4 8-5.1l9.2 14.4c4.92-3.16 9.84-6.34 14.82-9.4-3-4.9-6.14-9.68-9.2-14.5zm327.8 20.05c4.53-2.45 10.1-1.33 14.3 1.32 5.3 3.24 10.33 8.22 11.02 14.7.5 3.67-1.06 7.15-2.8 10.26-2.4-1.8-4.72-3.72-7.05-5.63 3.66-6.15-2.63-12.87-8.65-13.73-3.3-.4-6.28 3.56-4.4 6.5 3.53 5.96 8.95 10.75 11.65 17.2 2.62 6.85-3.27 14.16-9.83 15.73-5.96 1.14-11.82-1.8-16.23-5.58-4-3.5-7.8-8.2-8-13.8-.2-3.44 1.5-6.54 3.1-9.43 2.5 1.8 4.8 3.7 7.1 5.6-4.2 6.5 2.7 13.1 8.7 14.9 3.4 1.4 7.8-2.58 5.87-6.07-3.07-6.2-8.82-10.75-11.46-17.2-2.3-5.8 1.7-12.1 6.77-14.83zM129.53 253.9c-2.06-13.04 11.7-25.63 24.48-22.55 2.9.63 5.3 2.33 7.7 4-2.3 2.12-4.7 4.2-7.05 6.25-2.33-1.12-4.86-2.56-7.54-1.86-4.33 1.03-8.14 4.77-8.52 9.32-.36 4.4 1.98 8.48 4.68 11.78 2.84 3.4 6.44 6.54 10.88 7.46 5.65 1.2 11.7-3.5 12.05-9.23.13-2.22-.84-4.27-1.54-6.3 2.3-2.1 4.64-4.18 7.02-6.2 2.5 4.85 4.26 10.5 2.6 15.95-2.5 7.9-10 14.15-18.27 14.94-6.23.5-12.17-2.55-16.6-6.73-4.76-4.46-8.82-10.2-9.8-16.8zm180.55-10.92c54.43-6.85 111.17 7.32 155.86 39.16 32.72 23.04 59.14 54.97 75.46 91.52 18.22 40.25 23.78 86 16.2 129.5-6.87 40.04-25.1 78.04-51.87 108.57-32.68 37.7-78.3 63.9-127.35 72.98l-2.22 6.4-5.13.9c.72-2.1 1.45-4.2 2.2-6.3-42.83 6.86-87.64 1.28-127.2-16.6-36.32-16.25-68.12-42.4-91.14-74.87-25.4-35.46-40-78.53-41.2-122.1-1.1-33.56 5.4-67.36 19.2-98 16.3-36.63 42.7-68.65 75.4-91.75 29.93-21.27 65.2-34.9 101.68-39.3m11.5 5.9C292 251 263 259.25 236.85 273c-33.4 17.5-62.1 43.85-82.38 75.65-18.7 29.17-30.23 62.9-33.15 97.44-2.34 26.8.3 54.1 7.96 79.92 10.6 36.2 31 69.45 58.3 95.46 28.04 26.83 63.4 46 101.26 54.6 35.25 8.1 72.5 7.06 107.3-2.75 37.36-10.52 71.7-31.43 98.32-59.67 26-27.45 44.74-61.8 53.45-98.6 10.1-42.3 7.15-87.7-8.7-128.3-14.17-36.7-38.65-69.3-69.8-93.3-41.6-32.45-95.4-48.63-147.97-44.6zm194.1 29.22l33.36-30.6 22.5 24.5-5.94 5.37c-5.36-5.9-10.8-11.72-16.18-17.63-2.4 2.1-4.7 4.26-7.07 6.4 4.97 5.4 9.97 10.8 14.9 16.26l-5.88 5.4c-4.96-5.42-9.96-10.8-14.9-16.23-2.9 2.65-5.77 5.3-8.65 7.9 5.63 6.2 11.3 12.34 16.97 18.5l-5.9 5.4c-7.76-8.4-15.5-16.82-23.24-25.26zm-414.25.5c6.34-2.4 13.44-.5 19 3.03 5.62 3.54 10.93 8.53 12.72 15.17 3.6 13.9-9.77 29.7-24.25 26.88-8.44-1.87-16.18-7.46-20.5-15-6-11.24 1.5-25.96 13.02-30.05m.9 8.85c-6.17 2.33-9.38 10.37-6 16.16 3.12 5.4 8.68 9.4 14.7 10.9 6.27 1.6 12.9-3.15 13.86-9.43 1-5.4-2.55-10.3-6.62-13.4-4.4-3.47-10.34-6.4-15.95-4.2z"/><path d="M368.86 294.88c1.02-1.8 3.58-2.16 5.16-.9 1.8 1.1 1.98 3.4 2.9 5.13 1.18 3 4.3 4.5 5.66 7.3.85 5.9-.85 11.8-.07 17.6 1.5 5.2 5.6 9.5 5.8 15.1.4 4.3-2.6 7.88-3.2 12 .2 3.56 2.8 6.46 3.2 10 .2 4.03-.2 8.3-2.5 11.76-2.05 3.06-1.4 7.2-3.7 10.17-1.93 2.43-4.55 4.17-6.8 6.3-3.5 3.07-6.7 6.8-11.3 8.3-3.8 1.16-8.15 1.06-11.8-.72-1.6-.67-2.65-2.8-1.55-4.37 2.45-4.2 8-4.4 11.25-7.7 5.52-5.44 8.06-13.2 9.1-20.7 1-6.23-1.17-12.86-5.97-17-2.4-2.3-5.86-3.36-7.66-6.25-1.65-2.37-2.86-5.33-5.63-6.64-4.97-2.4-11.1-2.03-15.85.68-5.98 3.38-10.87 8.35-15.08 13.68-2.56 3.3-5.1 6.75-6.2 10.84-5.65 20.05-5.2 41.22-2.66 61.74.5 4.4 2 8.64 4.54 12.28 1.5 2.8 4.37 5.77 2.84 9.1-1.4 3.06-3 6.04-4.9 8.8-2.74 2.8-6.8 3.6-10.4 4.66-4.17-7.33-11.46-12.2-15.7-19.44-3.75-8.76-3.26-19.03-8.62-27.2-2.92-5.75-8-11.4-6.7-18.3.5-3.4 4.5-3.63 6.97-4.97 4.1-1.46 6.75-5.7 6.53-10.03.1-3.45-1.9-6.36-3.96-8.9.62-4.05.04-8.3 1.35-12.2 3.37-4 6.46-8.26 9.75-12.36 2.8-4.3 3.7-9.8 7.6-13.36 4.33-4 10.05-6 15.64-7.5 4.3-1.2 8.9-.85 13.3-1.9 4.3-.9 8.4-2.72 12.8-3.47 4.2-.74 8.4 1.02 12.6.4 3.7-2.4 6-6.75 10.5-7.97.44-4.68.27-9.78 2.8-13.9zm180.68 22.82c13-7.68 25.93-15.44 38.96-23.05 3.37 5.9 6.95 11.65 10.32 17.53 2.18 3.82 3.44 8.44 2.2 12.8-1.58 5.92-6.28 10.43-11.4 13.5-5.56 3.3-12.14 5.5-18.65 4.4-4.7-.7-8.67-3.88-11.1-7.86-3.53-5.72-6.86-11.56-10.33-17.32m11.48 3.94c2.2 3.54 3.84 7.57 6.9 10.5 4.5 3.45 10.67 1.48 15.16-.98 4.45-2.58 9.87-6.33 9.63-12.1-.7-4.7-4.1-8.37-6.2-12.47l-25.4 15zm-501.6-7.28c2.16 2.2 5 4.83 4.1 8.27-1.16 3.83-5 5.9-6.85 9.32.2 1.25.6 2.44 1.18 3.58l-1.7 3.4c-2.02-2.23-4.72-4.65-4.18-8 .43-4.12 4.77-5.97 6.6-9.33.58-1.3-.47-2.57-.84-3.77.56-1.17 1.12-2.32 1.7-3.47zm8.78 11.27c15.88 1.88 31.76 3.8 47.63 5.7l-4.54 9.2c-3.3-.5-6.5-1.04-9.8-1.46-2.4 5-4.9 9.94-7.3 14.9l6.95 6.95-4.4 8.93L63.3 335.4c1.6-3.3 3.23-6.5 4.8-9.8m6.6 9.4c4.53 4.4 9.03 8.8 13.62 13.2l5.07-10.3-18.7-2.9zM570 353.3l42-16.8 12.4 30.85-7.42 3-8.94-22.3-8.8 3.56 8.2 20.48c-2.5.97-4.96 1.97-7.43 2.96l-8.2-20.44-10.8 4.35 9.3 23.25-7.43 3c-4.28-10.6-8.55-21.26-12.8-31.88zm-511.88 7.9c3.1-1.4 6.56-1.3 9.87-1.08-.86 3-1.8 6-2.74 9.02-2.4.3-5.14.3-7.1 2.03-3.7 3.3-5.02 9.34-2.23 13.62 2.4 3.8 6.73 5.8 10.9 7.1 3.75 1.13 7.87 1.64 11.64.38 5.43-1.77 8.26-8.7 5.9-13.83-1-2.15-3-3.5-4.8-4.96.9-2.98 1.8-5.96 2.73-8.93 6.66 3.5 11.66 10.27 11.3 18l4.1 2.7c.06 2.3.1 4.65.1 7-1.8-1.18-3.6-2.36-5.4-3.5-1.8 4.84-4.95 9.5-9.8 11.8-7.8 3.7-17 1.8-24.47-1.78-6.46-3.1-11.72-9.38-12.04-16.74-.37-8.4 3.95-17.65 12.1-20.9z"/><path d="M225.97 376.5c7.4-2.62 12.54-11.48 21.2-10.08 4.3 0 7.47 3.04 10.88 5.18 4.65 1.05 8.17-4.52 12.94-2.76 4.3.76 10.5 4.86 7.7 9.9-3 1.9-6.68 2.44-9.3 4.83-3.6 2.98-4 8.1-3.6 12.4 1.2 7.9 6.84 13.98 9.9 21.14 2.8 7.5 2.9 15.8 6.42 22.9 3.82 7.2 10.94 11.8 15.15 18.7 1.5 2.5 3.22 5 5.97 6.17 3.06 1.66 7.4 2.53 8.54 6.34 1.25 3.3-.1 6.84-2.4 9.33-2.4 2.5-2.2 6.24-1.94 9.47.7 4.45 4.6 7.3 6.66 11.1 5 8.72 8.77 18.14 13.92 26.83 1.06 1.58 2.02 3.37 3.68 4.4 3.6.55 7.43-.24 10.88 1.18 2.6 1.18 1.28 4.5 0 6.2-3.26 4-9.02 3.7-13.7 3.76-3.93.1-7.23-2.3-10.9-3.3-5.16-1.17-8.96 4.1-14.06 3.55-11.2-.06-22.46.07-33.7-.05-1.97-.27-5 .05-5.65-2.4 1.8-5.37 7.14-8.2 11.33-11.5 1.25-3.7.4-7.86.05-11.7-.4-5.4-6.2-8.2-11.07-8-23.1-.07-46.16.04-69.23-.07-2.9 3-3.24 7.2-3.77 11.1-.34 3.24-4.55 5.4-3.23 8.9 2.7 6.2 9.84 8 15.9 8.6 2.07 3.37-2.3 7.74-5.73 8.06-14.3.22-28.6 0-42.9.1-2.2-.1-4.68.24-6.67-1-.67-2.03.77-3.9 2.1-5.27 2.27-2.34 6.03-2.26 8.17-4.77 3.84-4.06 6.44-9.06 9.5-13.66 2.85-4.7 6.3-9.3 7.1-14.9.76-4.3.33-8.75 1.1-13.07 1.45-4.08 6.05-6.12 7.16-10.37.9-3.5 1.75-7.04 2.3-10.62.47-3.73-1.38-7.4-.65-11.1 1-3.87 5-5.63 7.25-8.6 2.56-5.02 1.72-11.2 4.9-16 1.7-2.87 4.7-4.8 6.16-7.84 1.4-6.97.15-14.44 3.05-21.1 3.4-7.6 8.3-14.93 8.7-23.44.2-3.4-3.78-3.8-5.9-5.3-.7-1.8 1-3.45 2.7-3.6 4.32-.7 8.65.8 13 .4m1.97 43.5c-4.05 5.54-4.44 12.7-6.2 19.1-.72 4.2-4.3 7.04-5.57 11.03-1.85 4.2-1.3 8.9-1.85 13.37-.5 3.73-3.8 6.04-5.53 9.2-2.56 3.8-3.05 8.44-4.17 12.78-.62 2.45-1 4.97-1.1 7.52 19.5 0 39 .07 58.5-.04.85-2.1 2.36-4.5.9-6.67-2.8-4.2-7.58-6.77-9.88-11.3-4.63-8.57-.4-18.9-4.45-27.6-3.87-9.6-8.97-18.86-11-29.1-2.32-3.55-7.54-1.06-9.6 1.66M196 461.06c-3.94 1.95-1.78 10 2.98 8.1 2.12-1.7 4.2-3.44 6.22-5.27-.06-2.7-1.76-5.18-2.16-7.87-2.25 1.8-4.34 3.84-7.03 5m76.4-3.72c-3.3 3.87-.14 9.08-.44 13.57 3.33 3.46 8.57.12 12.46-.63 1.57-2.27-1.13-4.94-1.4-7.36-.27-2.67-3.7-1.84-5.25-3.4-1.7-.9-3.24-3.7-5.32-2.18zM409.2 374c2.55-1 4.7-4.4 7.73-2.85 2.6 1.87 4.6 5.1 8.13 5.2 6.45 1 10.65-5.92 17.02-5.45 3.8-.18 6.84 2.33 10 4.02 3.8 2.15 8.92 2.5 12.58-.17 3.1-2.13 6.62-3.66 10.4-3.95 8.45-.8 17.6-.64 25.03 4 3.3 2.17 7.5 1.53 11 3 3.36 1.73 7.6-.06 9.4-3.23 1-1.17 1.55-3.33 3.4-3.2 2.2.04 3.2 2.57 2.5 4.42-1.77 6.1-3.3 12.7-1.97 19.1 1.3 5.7 4.46 11 4.07 17-.45 10.82-7.7 20.8-17.6 25-3.33 2.4-8.34 1.87-11.15-.97-.6-6.34 8.46-7.96 8.97-14-.13-5.9-3.38-11.15-4.28-16.9-.53-6.7-5.6-12.37-11.55-15.07-6.54-3.23-13.5-6.35-20.95-6.14-4.34-.1-7.2 3.75-11.06 5.03-3.1 1.17-7 2-8.57 5.33-3.14 15.35-2.9 31.1-2.7 46.7.16 3.9.3 8.26 2.9 11.45 3.64 2.56 9.57 2.2 12.3-1.6 2.9-2.86 7.65-4.38 8.5-8.83.46-4.64-2.2-9.17-1.14-13.82 2-3.5 7.4-1.67 9 1.33 3 6.07 1.7 13.1 1.86 19.6-.1 3.5 4.3 5.38 3.85 8.97-1.2 3.65-4.32 6.82-3.63 11-.2 3.34 2.7 6.5 1.17 9.8-1.1 2.7-1.52 5.6-2.27 8.4-.54 2.03-3.1 4.2-5.1 2.65-4.25-3.25-4.65-9.03-3.6-13.9-2.57-2.45-6.13-3.43-8.76-5.8-2.16-1.83-4.6-4.1-7.7-3.6-2.56 1.56-4.04 4.3-5.87 6.6-2.2 2.8-1.14 6.57-1.2 9.8.36 4.04-.7 7.96-1.57 11.85-.94 3.46.24 6.9 1 10.26 1.15 5.25.4 10.67 1 16 .3 4.1 4.53 6.2 5.7 9.96.82 2.8 2.85 5.4 5.9 6 4.3.7 8.8 1.33 13.15.77 2.48-.34 2.98-3.42 4.97-4.5 1.7-.76 3.5.94 2.95 2.7-.77 3.65-2.97 6.88-5.48 9.58-2.46 2.6-6.3 2.9-9.65 2.46-3.83-.84-7.2-3.02-11.03-3.9-5.53-1.25-11.4-.96-16.83.6-2.3.6-4.72 1.2-7.07.65-3.33-.95-5.47-4.4-9-4.82-7.2.47-12.54 7.3-19.92 6.85-2.26.15-3.03-2.1-4.07-3.6-2.15-1.1-4.28-2.2-6.08-3.75 1.5-1.8 3.66-2.7 5.93-3.06 3.3-.48 5.84-3.1 7.03-6.1 1.5-3.9 3.95-7.6 3.9-11.94.33-16 .53-32 .74-48 .13-4.83-4.9-8.25-4.26-13.15 1.1-4.4 4.1-8.16 4.54-12.76.36-4.36.6-8.74 1.37-13.06 2-10.8-1.7-21.45-2.43-32.17-.45-4.66-.04-10.2-3.87-13.65-1.7-2.1-4.86-3.37-5.25-6.28.5-3.75 4.7-4.52 7.52-5.93m16.75 77.9c-.3 3.23 1.33 6.3 3.4 8.66 3.2 1.15 7.3.66 9.94-1.56 0-2.7-3.2-4.23-3.26-7-.2-3.97-3.68-6.4-6.14-9.1-1.87 2.73-3.36 5.8-3.94 9.05zm161.65-49.44c14.8-2.76 29.63-5.5 44.43-8.3 2.07 10.55 3.97 21.1 5.95 31.66-2.6.5-5.25 1-7.87 1.48l-4.14-22.36c-3.35.6-6.7 1.24-10.03 1.87l3.65 19.56-7.84 1.5-3.7-19.56c-6.23 1.16-12.5 2.35-18.7 3.47l-1.7-9.27zM38.8 414.35l47.06-9.2-1.5 10.16-9.63 1.57-2.43 16.5 8.77 4.5-1.45 9.82c-14.18-7.53-28.3-15-42.4-22.53.5-3.6 1-7.18 1.54-10.77m9.13 6.9c5.6 2.8 11.3 5.6 17 8.4.5-3.8 1.1-7.6 1.6-11.4-6.2 1-12.44 2-18.66 2.97zm550.9 17.5c3.4-2.88 8-3.3 12.2-3.5 9.26-.3 18.53-.68 27.8-1 .1 3.2.23 6.4.35 9.62-9.7.4-19.44.68-29.16 1.12-3.54-.03-7.5 1.7-8.54 5.35-.8 3.1-.37 6.8 1.67 9.4 1.87 2.3 5.03 2.5 7.77 2.4l28.94-1.1.36 9.63c-9.74.34-19.47.76-29.2 1.06-4.53.1-9.46-.7-12.77-4-3.94-3.8-5.04-9.55-5.1-14.8.02-5.18 1.46-10.84 5.67-14.2zm-563.7 8.8l45.2 1.7-.37 9.4-45.2-1.7.34-9.43zm28.58 15.2c5.55.9 11.27 3.14 14.5 8 5.4 8.02 4.86 20.3-2.7 26.82-5.8 5.04-13.93 6.35-21.4 5.87-7.2-.44-14.55-4.2-17.7-10.9-3.7-7.86-2.95-18.45 3.74-24.5 2.4-2.3 5.54-3.4 8.65-4.32.3 3.16.5 6.3.7 9.4-2.15 1.16-4.6 2.15-5.84 4.4-2.28 4.25-1.54 10.22 2.35 13.32 3.05 2.5 7.15 3.13 10.97 3.1 4.6 0 9.44-.9 13.1-3.86 4.63-3.67 4.7-11.63.2-15.42-1.7-1.4-3.9-1.86-5.9-2.54-.23-3.1-.45-6.2-.65-9.32zM632 477.6l7.94.85c-1.3 12.13-2.64 24.32-3.96 36.5l-7.96-.86 1.5-13.6-37.02-4 1-9.4 37 4.02c.52-4.54 1.02-9.07 1.5-13.6z"/><path d="M361.48 499.83c3.12-1.5 8.06-1.65 9.45 2.23 1.9 4.77 6.3 7.8 8.74 12.24 1.7 2.72 2.84 5.75 3.68 8.85.5 2.97 4.13 3.96 4.94 6.77-.8 5.3-2.3 11.55 1.6 16.07 1.8 2.9 5.8 4.9 5.3 8.9-1.7 12.1-.5 24.4-2.1 36.5-.2 2-.98 3.9-2.25 5.6-3 4-4.8 9.1-9.07 12.1-2.83 1.8-4.06-2.1-4.33-4.2-.22-3.3-3.2-5.1-4.62-7.78-1-1.3-1.47-3.3-3.27-3.67-3.4-.8-7-.7-10.5-.66-4.65-.03-8.8 2.22-13.1 3.62-8.7 2.95-18.1 3.02-27.14 2.06-4.07-.38-7.4-2.9-11.05-4.44-5.1-2.15-8.7-6.53-12.35-10.53-3.93-4.84-8-9.64-10.9-15.2-1.37-2.9-4.72-4.32-5.8-7.34-.27-4.6 3.7-7.83 6.96-10.4 6.7-.3 13.46.2 20.17-.18 3.8-.7 7.32-2.36 10.92-3.7 3.2 4.9 8.25 8 12.66 11.65 3.55 2.85 5.4 7.34 9.23 9.86 3.9 2.65 8.84 2.8 13.4 2.6 4.2-.04 7.1-3.57 10.8-4.95 2.7-.9 3.77-3.76 4.9-6.06 2.7-6.48 6.34-12.8 6.5-19.97.66-5.44-1.95-10.5-2.1-15.87-.02-3.3-1.23-6.44-3.35-8.96-2.1-2.27-.75-5.86-2.7-8.2-1.7-2.26-3.7-4.35-4.64-7.06zM59.45 508.6c6.57-1.72 14.1-1.85 19.95 2.06 9.15 6.34 12.34 19.9 6.83 29.6-3.6 6.08-10.48 9.3-17.17 10.65-6.14 1.4-13.06 1.1-18.37-2.6-8.8-6.2-12-19.1-7.1-28.7 3.1-5.9 9.44-9.4 15.8-11m3 9c-4.9 1.2-10.2 3.7-12.2 8.6-2.65 6.1 1.13 14.1 7.7 15.5 6.35 1.4 13.34-.3 18.55-4.1 5.6-4.1 5.64-13.2.46-17.6-3.9-3.53-9.7-3.43-14.52-2.3zm519.65 27.3c2.84-11.1 5.64-22.1 8.5-33.2l43.82 11.15-8.2 32.24c-2.6-.65-5.18-1.3-7.76-1.97 1.95-7.74 3.94-15.5 5.9-23.25l-9.22-2.3-5.43 21.34-7.74-2c1.8-7.1 3.6-14.2 5.45-21.33L596 522.7c-2.1 8.1-4.06 16.23-6.26 24.3-2.57-.7-5.1-1.35-7.7-2zm-10.18 25c2.7-7.32 6.06-14.5 9.06-21.7l41.6 17.8c-2.8 6.5-5.5 12.96-8.3 19.42-1.57 3.5-3.67 7.15-7.27 8.9-6.25 3.17-15.18-1-15.7-8.27-5.73 5.68-15.75 2.55-19.1-4.2-2.1-3.63-1.74-8.1-.3-11.9m7.37 3.15c-1.33 5.1 6.4 9.37 9.8 5.2 3.16-4.1 4.34-9.3 6.65-13.83-3.7-1.63-7.4-3.2-11.14-4.8-1.77 4.5-4.18 8.76-5.3 13.46m18.24 8.1c-.65 4 5.4 6.85 7.87 3.5 2.98-4 4.2-8.94 6.38-13.36-3-1.34-6.05-2.63-9.1-3.92-1.7 4.6-4.43 8.9-5.16 13.8zm-524.16-22c1.03-5.7 7.14-8.86 12.5-9 6.3-.15 11.24 4.9 13.87 10.16 2.72 5.62 4.72 12.53 2 18.53-1.4 3.23-4.4 5.4-7.5 7l-3.4-8.2c1.7-1.5 3.8-3.05 4-5.5.35-4.3-1.64-8.53-4.46-11.65-2.17-2.63-7.28-1.96-8.06 1.57-.7 7.36 2.8 14.53 1.8 21.92-.96 6.03-7.5 9.5-13.2 9.4-5.27-.1-9.57-3.97-11.98-8.38-3.07-5.4-5-12.3-2.26-18.25 1.38-3.18 4.23-5.28 6.98-7.18 1.33 2.7 2.5 5.5 3.63 8.3-5.93 3.66-3.83 12.23.88 15.98 2.5 2.1 7.07.46 7.24-2.92-.1-7.3-3.06-14.5-2.04-21.85zM90.2 597c.27-8.6 11.47-13.77 18.67-9.77 6.93 3.7 11.34 11.2 12.7 18.8 1.04 5.64-2.2 11-6.7 14.1l-4.7-7.66c1.6-1.75 3.5-3.7 3.2-6.27-.5-4.36-3.1-8.44-6.6-10.93-2.8-2.07-7.7.1-7.3 3.75.76 6.9 4.6 13.1 5.03 20.05.35 6.3-5.64 11.1-11.44 11.86-5.35.8-10.34-2.5-13.4-6.63-3.7-4.84-6.57-11.16-4.87-17.33.8-3.5 3.33-6.16 6.1-8.34l4.6 7.62c-5.46 4.57-1.9 13 3.5 15.87 2.75 1.36 6.63-.85 6.43-4-1.15-7.2-5.06-13.8-5.24-21.18zm474.14-4.4c5.92-2.1 12.47-.6 17.83 2.36 5.8 3.2 11.35 7.84 13.6 14.3 4.45 13.4-7.37 29.7-21.7 28.5-9-1.13-17.58-6.56-22.4-14.24-6.6-11.3.8-26.74 12.7-30.9m.9 8.98c-6.55 2.34-9.7 11.1-5.7 16.93 3.7 5.43 9.9 9.37 16.5 10.06 6.7.52 12.66-5.9 12.03-12.5-.4-5.15-4.4-9.05-8.5-11.68-4.15-2.7-9.43-4.7-14.32-2.87zm-463.5 52.1c8.13-13.75 16.24-27.53 24.45-41.24 2.18 2.64 4.37 5.26 6.57 7.88l-5.3 8.2 10.7 12.8c3.07-1.2 6.13-2.4 9.2-3.57 2.1 2.56 4.24 5.1 6.36 7.64-15 5.6-30 11.1-44.97 16.7-2.37-2.8-4.7-5.5-7.04-8.3m21.4-18.12c-3.37 5.33-6.8 10.6-10.16 15.93l17.6-7.1c-2.45-2.95-4.93-5.9-7.42-8.82zm174.22-13c.85-.06 1.72-.1 2.6-.13v34.24h-4.2c.02-8.8-.05-17.64.04-26.47-2.6 1.97-5.46 3.6-8.4 4.97 0-1.36-.05-2.7-.06-4.05 3.95-2.05 7.6-4.78 9.96-8.6zm18.1 1.6c4.5-3 11.1-1.9 14.4 2.4 2.97 3.8 3.13 8.9 3.13 13.5-.16 4.7-.74 9.85-3.9 13.6-3.34 4-9.85 4.75-14.15 1.88-2.3-1.45-3-4.3-3.85-6.7l4-.3c.84 1.66 1.32 3.87 3.2 4.74 2.72 1.26 6.3.34 8-2.15 2.2-2.95 2.27-6.76 2.82-10.23-2.92 3.2-7.5 5.4-11.8 3.6-8.15-3.02-8.8-15.7-1.8-20.3m4.1 2.16c-5.92 2.4-6.43 12.6-.08 14.77 4.52 1.8 9.2-2.4 8.87-7 .6-4.66-3.9-9.87-8.8-7.8zm17.78-3.26h22.22c-.2 1.63-.14 3.44-1.44 4.7-6.63 8.2-10.82 18.35-11.8 28.9-1.43-.04-2.86-.05-4.3-.05.8-10.76 5.1-21.2 11.93-29.53-5.5.05-11.03 0-16.55 0v-4.03zm30.02 1.84c5.02-4.56 14.75-2.66 16.58 4.22 1.2 3.67-.9 7.33-4.15 9.06 5.4 1.3 7.5 7.9 5.3 12.6-2.94 6.7-12.82 8.58-18.15 3.7-2-1.73-2.7-4.37-3.44-6.8l4.2-.6c.86 2.8 2.25 6.25 5.62 6.6 5.5 1.2 10.2-5.4 7.44-10.26-1.6-3.37-5.66-3.6-8.88-3.17l.5-3.2c3.12-.25 7.2-1.34 7.55-5.1.9-4.12-3.8-7.26-7.5-5.8-2.65.7-3.5 3.58-4.4 5.86-1.36-.3-2.7-.57-4.1-.84.9-2.22 1.6-4.7 3.5-6.3zm151.25 22c7.1-7.9 13.84-16.1 21.2-23.76 11.4 9.75 22.53 19.8 33.82 29.7l-6.26 7.1c-9.2-8.2-18.5-16.3-27.7-24.5-5 5.55-9.93 11.2-14.87 16.82l-6.2-5.4zM444 676.18c-.4-8.07 8.62-14.38 16.15-12.26 2.38.6 4.1 2.35 5.8 4-1.66.93-3.33 1.9-5 2.8-1.8-.94-3.7-2.62-5.9-1.82-4.05.82-6.4 5.4-4.82 9.23 1.47 4.3 4.66 9.6 9.86 9.3 4.12-.5 6.4-4.77 5.44-8.63 1.68-.94 3.36-1.86 5.05-2.77.5 3.1 1.17 6.45-.3 9.4-3 6.35-12 9.7-18.04 5.46-4.76-3.3-7.95-8.98-8.24-14.76zm-232.7-10.92c7.08-4.76 18 .53 19.1 8.85.27 1.96-.37 3.9-.7 5.8-1.7-.93-3.35-1.86-5-2.82-.1-1.52.15-3.1-.34-4.53-1.68-3.34-6.4-4.92-9.56-2.67-3.34 2.33-5.47 6.23-6.13 10.2-.74 4.1 3.33 7.78 7.3 7.14 1.5-.42 2.7-1.4 4-2.16 1.7.93 3.36 1.9 5.03 2.9-1.66 1.34-3.25 2.9-5.25 3.75-6.9 2.9-15.66-2.3-16.8-9.6-.7-6.55 3-13.22 8.35-16.9zm25.2 7.74c1.8.78 3.6 1.56 5.4 2.36l-4.2 9.74 10.04 4.32 4.2-9.74 5.34 2.3-11.1 25.74-5.36-2.32 4.98-11.5c-3.34-1.46-6.7-2.9-10.03-4.34l-4.96 11.5-5.32-2.27c3.65-8.6 7.4-17.2 11.08-25.8zm185.2 7.68c3.1-3.34 7.85-5.36 12.4-4.82 3 .34 5.04 2.7 6.73 5l-5.02 2.2c-2.6-3.36-7.7-2.4-10.1.73-1.1 1.42-.32 3.73 1.4 4.3 5 .2 9.98-2.3 14.97-1.05 4.85 1.8 6.2 8.94 2.83 12.7-4.9 5.85-16.27 8.3-20.34.23 1.63-.77 3.27-1.5 4.92-2.26 2.95 3.88 8.73 2.5 11.33-1.03 1.35-1.53.2-4.2-1.8-4.4-4.64-.2-9.2 2.05-13.84 1.2-5.1-1.54-6.95-8.94-3.4-12.8zM251 709.5c5.85-8 11.7-16 17.58-23.97l6.4 1.87c.62 9.9 1 19.8 1.5 29.7l-6.08-1.8-.08-6.06c-3.3-.97-6.6-1.95-9.88-2.94-1.2 1.65-2.37 3.3-3.55 4.97l-5.9-1.77m12.3-7.4l6.8 2.04c-.1-3.9-.1-7.8-.2-11.7-2.25 3.2-4.47 6.44-6.7 9.67zm23.3-11.5c5.1 1.12 10.42 1.38 15.4 3.2 6.9 3.2 5 14.9-2.1 16.56-3.6.63-7.2-.6-10.8-1.1-.6 3.22-1.03 6.46-1.8 9.63-1.92.1-3.83-.5-5.73-.7 1.64-9.2 3.3-18.4 4.96-27.6m4.9 5.7l-1.47 8.2c2.3.33 4.57.9 6.9 1 3.6.13 5-5.9 1.8-7.4-2.28-1.07-4.8-1.3-7.24-1.8zm78.73-3.05c5.5-2.38 12.84-1.06 16.22 4.2 2.97 4.93 4 11.4 1.77 16.8-3.7 8.34-16.8 10.05-22.4 2.72-5.24-7.15-5.1-20.2 4.4-23.7m3.15 4.22c-6.5 1.93-6.04 10.6-3.3 15.43 2.26 4.7 9.65 4.8 12.28.45 2.16-3.8 1.38-8.64-.46-12.4-1.53-3.06-5.3-4.6-8.53-3.48zm22.17 1.12c5.84-1.6 11.7-3.26 17.54-4.78.5 1.88 1.05 3.77 1.6 5.67-5.84 1.7-11.7 3.26-17.56 4.86l-1.6-5.75zm-86.78 23.92c.6-9.32 1.32-18.63 1.96-27.94 6.84.46 13.7.96 20.54 1.44-.14 1.65-.26 3.3-.37 4.96L316 700l-.4 5.87 13.6 1-.33 4.95c-4.5-.33-9.1-.65-13.6-.96l-.5 7.2 15.5 1.1-.32 4.95-21.2-1.5zm27.57-21.32c3.57-6.95 14-8.27 19.66-3.2 1.83 1.65 2.62 4.06 3.52 6.3l-5.84.33c-.85-1.27-1.46-2.74-2.67-3.7-3.18-1.9-8-.76-9.47 2.8-1.6 3.66-1.3 8 .07 11.67 1.26 3.2 5.1 4.8 8.28 3.5 2.34-.62 3.15-3.1 4.1-5.02 1.94-.1 3.87-.16 5.8-.2-.8 2.37-1.4 4.96-3.14 6.87-5.18 5.98-16.4 5.08-20.06-2.13-2.68-5.26-2.86-11.88-.26-17.17z"/></g></svg>