<svg xmlns="http://www.w3.org/2000/svg" width="192.76" height="192.76" viewBox="0 0 192.756 192.756"><path fill-rule="evenodd" clip-rule="evenodd" fill="#FFF" d="M0 0h192.76v192.76H0V0"/><path d="M96.38 8.5c24.2 0 46.16 9.88 62.08 25.8 15.92 15.92 25.8 37.9 25.8 62.1 0 24.2-9.88 46.15-25.8 62.07s-37.9 25.78-62.08 25.78c-24.2 0-46.17-9.87-62.08-25.78C18.38 142.55 8.5 120.6 8.5 96.4c0-24.2 9.87-46.18 25.8-62.1C50.2 18.38 72.17 8.5 96.37 8.5zm0 1.44c-23.8 0-45.4 9.7-61.07 25.37C19.7 51 10 72.6 10 96.4c0 23.8 9.7 45.4 25.37 61.05 15.6 15.65 37.2 25.35 61.03 25.35 23.8 0 45.4-9.7 61.07-25.35C173.1 141.8 182.8 120.2 182.8 96.4c0-23.8-9.7-45.43-25.35-61.1C141.8 19.66 120.18 9.95 96.38 9.95z" fill="#3F7249"/><path d="M96.38 12.52c46.18 0 83.86 37.68 83.86 83.9 0 46.14-37.68 83.82-83.86 83.82S12.52 142.56 12.52 96.4c0-46.2 37.68-83.88 83.86-83.88z" fill-rule="evenodd" clip-rule="evenodd" fill="#3F7249"/><path d="M25.84 116.64L25.8 114c1.48-.05 2.67.24 3.6.87.9.64 1.58 1.62 2.02 2.92.52 1.6.4 3.1-.38 4.5s-2.1 2.4-4.04 3c-2.03.64-3.76.64-5.23-.06-1.48-.66-2.5-1.87-3.04-3.58-.5-1.5-.43-2.87.15-4.08.34-.74.95-1.4 1.85-1.98l1.35 2.25c-.57.35-.98.8-1.18 1.4-.23.6-.23 1.2 0 1.85.3.9.84 1.52 1.68 1.87.83.34 1.96.3 3.43-.18 1.6-.5 2.6-1.15 3.1-1.9.5-.78.6-1.6.3-2.48-.2-.67-.6-1.16-1.2-1.5-.54-.33-1.32-.47-2.3-.38zm-3.2-6.22c-1.3.18-2.44.12-3.36-.17-.67-.2-1.3-.52-1.88-.96-.58-.5-1.04-1-1.36-1.5-.43-.8-.7-1.7-.83-2.7-.2-1.9.2-3.5 1.2-4.8 1.1-1.25 2.6-2.03 4.7-2.3 2.1-.2 3.76.13 5.06 1.1s2.08 2.4 2.3 4.26c.24 1.9-.16 3.5-1.17 4.74s-2.55 2-4.57 2.23zm-.4-2.6c1.4-.17 2.47-.63 3.14-1.4.66-.77.92-1.63.8-2.67-.14-1-.6-1.82-1.4-2.37-.85-.58-1.98-.78-3.48-.58-1.44.17-2.48.6-3.12 1.36-.66.72-.9 1.6-.78 2.66.15 1.06.6 1.87 1.42 2.42.8.58 1.93.75 3.4.58zm5.13-13.9l-12.7-1.76.77-5.4c.17-1.36.43-2.35.75-2.92s.7-1 1.4-1.3 1.3-.38 2-.3c.95.15 1.7.56 2.25 1.2s.8 1.52.8 2.68c.4-.52.85-.92 1.3-1.24.42-.3 1.2-.7 2.24-1.16l2.72-1.2-.44 3.05-3.06 1.48c-1.1.52-1.78.9-2.07 1.1-.3.2-.5.43-.64.7-.12.25-.24.65-.3 1.26l-.1.6 5.34.77-.4 2.54zm-6.96-3.58l.3-1.9c.2-1.22.3-2 .2-2.32-.03-.32-.2-.58-.4-.8-.23-.2-.54-.33-.9-.4-.45-.04-.8 0-1.1.2-.3.2-.5.48-.62.88-.06.2-.18.84-.32 1.88l-.3 2 3.26.46zm9.4-10.6l-12.3-3.77.78-2.5 12.25 3.77-.8 2.48zm2.86-8.9L23 66.32l-1.63 3.44-1.95-.9 4.3-9.24 1.98.93-1.6 3.43 9.67 4.5-1.1 2.35zm4.25-8.4l-11.13-6.4 1.3-2.26 11.1 6.42-1.26 2.25zm-6.44-14.4l3.44-3.82c.64-.75 1.2-1.27 1.6-1.6.4-.3.8-.5 1.26-.63.5-.2 1-.2 1.5-.1s.96.32 1.4.7c.43.4.72.9.9 1.46.14.6.14 1.16-.07 1.73.7-.44 1.4-.64 2.1-.58.7.04 1.3.33 1.8.82.44.37.78.86 1 1.44s.3 1.12.24 1.7c-.1.6-.32 1.12-.73 1.7-.23.35-.92 1.13-2.02 2.4l-2.94 3.2L30.4 48zm3.3-.5l2.2 2 1.17-1.27c.68-.76 1.08-1.22 1.23-1.42.25-.38.36-.72.36-1.1-.02-.35-.2-.66-.5-.95-.3-.26-.6-.4-.93-.4-.3 0-.65.14-1 .43-.2.17-.66.72-1.5 1.62l-1 1.1zm3.8 3.4l2.55 2.32 1.6-1.8c.65-.68 1-1.15 1.14-1.35.2-.3.3-.6.25-1-.06-.3-.24-.7-.58-1-.3-.22-.55-.4-.9-.42-.32-.02-.64.04-.95.24-.38.17-.9.7-1.7 1.56L37.55 51zM58.8 38.76l-2.3 1.74-2.66-1.63-4.04 3.15.95 2.95-2.17 1.7-3.96-13.17 2.17-1.7 11.9 6.96zm-6.9-1.06L47.52 35l1.57 4.8 2.7-2.14zm12.7-2.2l-5.22-11.7 8.03-3.6.9 2-5.6 2.52 1.2 2.77 4.94-2.2.88 1.96-4.9 2.2 2.25 5-2.36 1.02zm9.46-11c-.3-1.28-.36-2.38-.16-3.33.1-.7.37-1.36.75-2 .4-.6.86-1.1 1.38-1.5.72-.5 1.56-.87 2.57-1.1 1.85-.43 3.47-.2 4.83.7 1.38.86 2.28 2.34 2.77 4.4.46 2 .26 3.7-.58 5.07-.8 1.4-2.18 2.3-4 2.74-1.85.43-3.47.2-4.8-.7-1.38-.86-2.3-2.3-2.74-4.3zm2.58-.68c.33 1.42.9 2.4 1.7 2.98.86.6 1.78.76 2.76.53 1-.23 1.77-.78 2.23-1.65.5-.86.54-2.05.22-3.5-.33-1.4-.9-2.4-1.7-2.97-.8-.5-1.7-.7-2.7-.5-1.04.3-1.82.88-2.3 1.7-.46.88-.54 2-.2 3.5zm14-2.5c.03-1.3.26-2.4.66-3.3.3-.64.7-1.22 1.22-1.74s1.07-.9 1.67-1.1c.8-.3 1.7-.48 2.73-.48 1.88.03 3.38.67 4.48 1.85 1.1 1.17 1.67 2.8 1.64 4.9-.03 2.1-.64 3.66-1.8 4.82-1.1 1.15-2.63 1.7-4.5 1.67-1.9-.02-3.4-.63-4.5-1.8-1.1-1.2-1.66-2.82-1.63-4.84zm2.7-.07c-.04 1.47.3 2.56.94 3.3.65.8 1.5 1.17 2.52 1.2 1.05 0 1.9-.35 2.58-1.07.66-.75 1-1.85 1.04-3.35.02-1.46-.27-2.58-.9-3.3-.64-.73-1.47-1.13-2.54-1.13-1.07-.03-1.94.32-2.6 1.04-.67.72-1 1.82-1.04 3.3zm15.9 7.6l2.2-10.44-3.7-.73.4-2.15 9.98 2.14-.43 2.1-3.78-.78-2.2 10.42-2.5-.57zm18.7-7.78l4.54 2.33c.94.47 1.57.85 1.98 1.17.4.3.75.62.98 1.06.23.4.38.9.4 1.37.04.52-.08 1.04-.34 1.53-.27.53-.68.97-1.17 1.26-.53.3-1.1.4-1.7.4.6.52.94 1.2 1.06 1.82.1.67 0 1.34-.37 2-.25.5-.63.96-1.12 1.33-.5.37-1 .6-1.6.66-.55.1-1.16 0-1.8-.22-.4-.15-1.36-.6-2.83-1.36l-3.86-1.95 5.8-11.45zm1.34 3.1l-1.35 2.6 1.5.8c.9.45 1.47.7 1.7.8.43.17.8.17 1.15.06.33-.1.6-.36.8-.7.16-.38.22-.7.14-1-.1-.33-.33-.6-.68-.88-.2-.16-.84-.5-1.93-1.05l-1.3-.67zm-2.33 4.52l-1.53 3 2.14 1.1c.8.4 1.37.67 1.6.73.38.12.75.12 1.1-.03.3-.13.6-.4.8-.8.18-.34.24-.66.2-1-.05-.33-.2-.62-.45-.9s-.9-.64-1.9-1.2l-1.9-.94zm16.9 17.72l-2.22-1.74.93-3-4.04-3.17-2.62 1.65-2.17-1.7 11.85-7.05 2.2 1.7-3.88 13.28zm-.63-6.95l1.57-4.86-4.3 2.7 2.7 2.15zm2.58 9.16l9.46-8.5 1.74 1.9-7.84 7.1 4.3 4.8-1.6 1.44-6.08-6.72zm7.87 9.5l11-6.37 1.3 2.25-9.1 5.3 3.2 5.58-1.87 1.1-4.5-7.8zM167.87 79v2.64c-1.46.02-2.64-.26-3.57-.93-.9-.64-1.55-1.63-1.95-2.96-.48-1.6-.34-3.1.44-4.5.8-1.4 2.12-2.4 4.1-2.97 2-.62 3.8-.56 5.2.14 1.43.7 2.4 1.93 3 3.64.4 1.5.4 2.86-.26 4.07-.34.73-.97 1.37-1.87 1.95l-1.34-2.26c.6-.34 1-.8 1.24-1.38.2-.58.27-1.2.07-1.85-.3-.9-.83-1.52-1.64-1.9-.82-.4-1.95-.32-3.42.1-1.57.5-2.58 1.1-3.07 1.87-.5.8-.55 1.6-.3 2.5.2.65.6 1.14 1.16 1.5.56.33 1.34.47 2.3.42zm-3.34 7.64l12.66-1.13.2 2.6-10.54.9.55 6.4-2.13.2-.77-8.96zm13.56 13.8l-.3 2.6-6.9-.85c-1.1-.15-1.8-.18-2.2-.18-.54.06-1 .26-1.37.63-.35.4-.58.92-.67 1.64s-.03 1.3.23 1.7.6.65 1 .8c.44.1 1.16.25 2.17.4l7.04.84-.3 2.54-6.7-.84c-1.5-.15-2.6-.35-3.2-.6-.6-.16-1.12-.5-1.5-.9-.4-.44-.66-.96-.86-1.63-.16-.64-.2-1.5-.07-2.5.14-1.2.4-2.1.78-2.7.35-.6.8-1.06 1.28-1.35.5-.3.98-.5 1.5-.55.75-.06 1.82 0 3.26.17l6.8.8zm-2.7 16.5l-1.6 4.9c-.3 1-.6 1.67-.8 2.13-.3.44-.6.8-.98 1.1s-.8.5-1.33.6c-.5.1-1 .1-1.55-.1-.57-.2-1.04-.5-1.44-.95-.36-.48-.56-1-.65-1.6-.44.66-1 1.12-1.65 1.36-.65.24-1.3.24-2.03 0-.56-.2-1.05-.5-1.5-.9-.45-.46-.74-.95-.9-1.5-.18-.56-.18-1.17-.04-1.83.1-.43.38-1.44.87-3l1.34-4.16 12.2 4zm-2.9 1.83l-2.8-.92-.54 1.6c-.3.97-.5 1.57-.5 1.8-.1.47-.08.84.1 1.16.14.3.43.55.84.67.37.1.7.1 1 0 .3-.16.56-.4.73-.8.12-.26.35-.95.72-2.1l.45-1.4zm-4.84-1.6l-3.26-1.02-.73 2.27c-.3.88-.44 1.46-.5 1.7 0 .4.06.74.2 1.06.2.3.5.55.96.7.38.12.7.12 1 .03.33-.07.6-.27.8-.56.25-.32.54-1 .9-2.14l.65-2zM37 140.9c1.44 0 2.63 1.2 2.63 2.67 0 1.43-1.2 2.62-2.63 2.62-1.48 0-2.66-1.2-2.66-2.68 0-1.46 1.18-2.67 2.66-2.67zm118.88 0c-1.45 0-2.63 1.2-2.63 2.67 0 1.43 1.16 2.62 2.6 2.62s2.63-1.2 2.63-2.68c0-1.46-1.18-2.67-2.63-2.67zM48.8 162.76L55.77 152l3.5 2.26c1.3.83 2.1 1.43 2.45 1.8.52.56.78 1.25.87 2.06 0 .8-.2 1.64-.8 2.48-.46.66-.9 1.15-1.47 1.44-.5.3-1.05.45-1.6.45-.52 0-1-.1-1.44-.27-.6-.23-1.37-.66-2.35-1.3l-1.4-.92-2.64 4.1-2.15-1.4zm7.98-7.54l-2 3.07 1.2.73c.87.55 1.48.87 1.8.96.4.06.75.03 1.06-.1.3-.13.57-.36.77-.68.3-.38.4-.78.3-1.2s-.22-.74-.6-1.03c-.2-.24-.7-.58-1.5-1.1l-1-.7zm16.95 20.1l-2.64-1.1.02-3.1-4.72-1.9-2.1 2.27-2.52-1 9.43-10.08 2.56 1.04-.02 13.85zm-2.55-6.5l.12-5.08-3.38 3.78 3.23 1.3zm9.7 7.8l1.8-12.74 5.4.76c1.34.2 2.32.46 2.9.77.57.4 1 .8 1.3 1.5.3.63.37 1.32.26 2.07-.13.97-.53 1.72-1.17 2.26-.65.5-1.55.8-2.7.8.54.4.95.8 1.24 1.28.3.44.77 1.2 1.2 2.26l1.2 2.7-3.1-.45-1.4-3c-.5-1.1-.9-1.75-1.1-2.04-.2-.32-.4-.52-.7-.64-.24-.17-.7-.3-1.25-.4l-.53-.02-.76 5.26-2.57-.34zm3.6-7l1.87.27c1.24.1 2.02.2 2.33.1.33-.05.6-.2.8-.43.23-.23.35-.55.4-.9.07-.44 0-.8-.2-1.1-.17-.3-.5-.5-.9-.65-.2-.06-.8-.14-1.84-.3v.02l-2.03-.3-.4 3.22zm26.44 7.47l-2.84.2-1.34-2.8-5.13.4-.7 3-2.77.27 3.8-13.25 2.75-.23 6.25 12.33zm-5.2-4.7l-2.17-4.6-1.34 4.9 3.5-.3zm12.33 2.94l-4.4-12.05 2.37-.85 7.86 6.26-2.9-8.04 2.25-.8 4.4 12.04-2.46.87-7.7-6.05 2.82 7.87-2.3.8zM144.98 162l-2.34 1.54-2.52-1.87-4.3 2.8.72 3-2.33 1.5-2.8-13.45 2.3-1.5 11.3 7.96zm-6.76-1.66l-4.1-3.06 1.16 4.94 2.92-1.9zm1.2-10.5l-1.77 1.1c-.34 1.23.47 3.6 1.2 4.03l.57-.43c-.4-1.8-.25-3.32 0-4.7z" fill-rule="evenodd" clip-rule="evenodd" fill="#FFF"/><path d="M96.38 29.77c36.67 0 66.6 29.94 66.6 66.64S133.05 163 96.38 163s-66.6-29.9-66.6-66.6c0-36.7 29.93-66.6 66.6-66.6z" fill-rule="evenodd" clip-rule="evenodd" fill="#FFF"/><path d="M96.38 32.86c34.96 0 63.52 28.55 63.52 63.55s-28.56 63.5-63.52 63.5-63.52-28.5-63.52-63.5S61.4 32.9 96.38 32.9z" fill-rule="evenodd" clip-rule="evenodd" fill="#3F7249"/><path d="M139.12 143.28c-8.6-13.53-24.57-22.63-42.74-22.63-18.18 0-34.13 9.1-42.74 22.63 7.34 6.7 16.24 11.7 26.1 14.4 4.27-3.16 10.16-5.1 16.64-5.1 6.47 0 12.37 1.94 16.64 5.1 9.86-2.7 18.76-7.7 26.1-14.4zm0-93.8C130.52 63 114.55 72.1 96.38 72.1c-18.18 0-34.13-9.1-42.74-22.62 7.34-6.7 16.24-11.7 26.1-14.4C84 38.25 89.9 40.2 96.37 40.2c6.47 0 12.37-1.96 16.64-5.1 9.9 2.67 18.8 7.67 26.1 14.38z" fill-rule="evenodd" clip-rule="evenodd" fill="#FFF"/><path d="M128.98 61.27c-2.48-5.05-5.4-9.44-8.97-13.33-3.5-3.88-7.8-7.28-12.8-10.34l.58-.92c5.16 3.12 9.46 6.57 13.1 10.54 3.65 3.96 6.64 8.43 9.16 13.58l-.97.47zm-15.22 8.45c-.13-1.44-.34-2.9-.64-4.4-.3-1.5-.68-3.03-1.13-4.56-2.4-7.9-6.5-16.03-10.5-22.03l.9-.6c4 6.08 8.2 14.3 10.6 22.33.4 1.57.8 3.13 1.1 4.65.3 1.6.53 3.1.65 4.6l-1.07.1zm-17.92 3.25V39.45h1.08v33.52h-1.08m-17.92-3.34c.12-1.46.35-2.97.66-4.52.3-1.5.7-3 1.15-4.6 2.36-8 6.55-16.2 10.6-22.3l.9.6c-4 6-8.14 14.1-10.46 22-.45 1.57-.83 3.1-1.14 4.6-.3 1.5-.5 2.96-.63 4.4l-1.08-.1zM62.8 60.8c2.53-5.15 5.5-9.62 9.15-13.58 3.64-3.97 7.94-7.43 13.1-10.54l.57.92c-5.1 3.06-9.3 6.46-12.88 10.34-3.57 3.9-6.5 8.28-8.96 13.33l-.97-.47zm67.15 71.16c-2.52 5.16-5.5 9.63-9.15 13.6-3.65 3.95-7.95 7.4-13.1 10.52l-.56-.92c5.07-3.07 9.3-6.45 12.86-10.34s6.5-8.27 8.98-13.34l.97.48zm-15.12-8.84c-.12 1.47-.34 2.98-.65 4.53-.3 1.52-.7 3.08-1.16 4.65-2.36 8.03-6.55 16.27-10.6 22.32l-.88-.6c3.98-5.97 8.12-14.1 10.45-22.02.4-1.53.8-3.05 1.1-4.56.3-1.5.5-2.96.6-4.4l1.1.08zm-17.9-3.34v33.56h-1.1v-33.56h1.1M79 123.03c.12 1.45.34 2.92.64 4.4.3 1.52.68 3.04 1.13 4.57 2.32 7.92 6.46 16.05 10.45 22.02l-.9.6c-4.04-6.05-8.23-14.3-10.58-22.32-.47-1.57-.86-3.13-1.16-4.65-.3-1.55-.53-3.06-.66-4.52l1.08-.1zm-15.23 8.45c2.48 5.07 5.4 9.46 8.97 13.34 3.57 3.9 7.8 7.27 12.88 10.34l-.56.92c-5.17-3.12-9.47-6.57-13.1-10.53-3.66-3.96-6.63-8.43-9.15-13.6l1-.47z" fill="#3F7249"/><path d="M103.17 99.7H96.9v11.44H90V83.8h15.54v6.4H96.9v3.58h6.27v5.92zm-26.13 4.94c0 5.44-1.53 7.63-3.84 10.58-2.22 2.83-5.86 4.3-10.75 4.3-4.94 0-8.75-2.34-11.5-6.2-2.74-3.85-4.1-8.85-4.1-15.87 0-7.1 1.15-11.82 3.9-15.66 2.74-3.9 6.9-6.6 12-6.3 9.2.5 14 8.1 13.95 16.02l-9 1c0-3-1.06-7.36-4.38-7.27-2.14.03-3.53 1.8-4.05 3.35-.5 1.55-.83 4.44-.83 8.63 0 2.4-.1 7.02 1.18 10.2.75 1.88 2 3.44 4.1 3.4 1.88-.04 2.92-1.66 3.44-3.48.4-1.4.52-2.87.52-3.97l9.36 1.13zm68.67 0c0 5.44-1.5 7.63-3.8 10.58-2.2 2.83-5.8 4.3-10.7 4.3-4.93 0-8.77-2.34-11.5-6.2-2.73-3.85-4.1-8.85-4.1-15.87 0-7.1 1.13-11.82 3.9-15.66 2.75-3.9 6.9-6.6 12-6.3 9.2.5 14 8.1 13.96 16.02l-9 1c0-3-1.1-7.36-4.4-7.27-2.15.03-3.5 1.8-4.03 3.35s-.86 4.44-.86 8.63c0 2.4-.06 7.02 1.18 10.2.77 1.88 2.04 3.44 4.1 3.4 1.9-.04 2.97-1.66 3.5-3.48.37-1.4.5-2.87.5-3.97l9.38 1.13z" fill-rule="evenodd" clip-rule="evenodd" fill="#FFF"/><path d="M96.38 32.14c17.68 0 33.74 7.22 45.38 18.87 11.64 11.7 18.84 27.7 18.84 45.4s-7.2 33.8-18.82 45.4-27.7 18.9-45.37 18.9c-17.7 0-33.7-7.2-45.4-18.85-11.6-11.63-18.8-27.7-18.8-45.35 0-17.7 7.2-33.76 18.88-45.4C62.68 39.4 78.7 32.2 96.4 32.2zm0 1.44c-17.3 0-33 7.06-44.36 18.44-11.38 11.38-18.44 27.1-18.44 44.4 0 17.26 7.06 32.95 18.43 44.33 11.4 11.37 27.1 18.43 44.4 18.43s33-7.06 44.4-18.44c11.4-11.37 18.47-27.06 18.47-44.33 0-17.3-7.06-33-18.44-44.3-11.4-11.4-27.1-18.43-44.35-18.43z" fill="#3F7249"/></svg>