<svg xmlns="http://www.w3.org/2000/svg" width="192.76" height="192.76" viewBox="0 0 192.756 192.756"><g fill-rule="evenodd" clip-rule="evenodd"><path fill="#FFF" d="M0 0h192.76v192.76H0V0"/><path d="M90.3 47.9c-2.13-.05-4.32.44-5.57 1.44-2.66-.2-5.9.8-7.34 2.36-2.7.2-5.8 1.66-7 3.38-2.6.58-5.4 2.4-6.3 4.3-2.5.97-5 3.2-5.57 5.18-2.3 1.33-4.44 3.86-4.7 5.94-2.07 1.6-3.76 4.46-3.73 6.54-1.83 1.9-3.1 5.1-2.6 7.18-1.27 1.86-1.97 4.52-1.66 6.43h-2.8c-1.04 0-1.88.84-1.88 1.83 0 1.03.83 1.86 1.85 1.86h2.37v.3h-2.3c-1.03 0-1.87.86-1.87 1.86s.84 1.83 1.86 1.83h2.33v.3h-2.3c-1.05 0-1.9.87-1.9 1.86s.85 1.8 1.87 1.8h3.1c-.7 2 .1 5.1 1.6 7.2-.37 2.02.9 5.1 2.7 6.93-.02 2.1 1.7 4.93 3.78 6.52.3 2.06 2.46 4.6 4.77 5.86.63 2 3.16 4.2 5.6 5.1.97 1.9 3.77 3.76 6.4 4.28 1.2 1.75 4.27 3.17 6.9 3.33 1.5 1.6 4.86 2.56 7.55 2.3 1.1.83 2.93 1.27 4.74 1.36v2.7c0 1 .9 1.8 1.9 1.8 1.07 0 1.9-.8 1.9-1.8v-2.6h.37v2.63c0 1 .83 1.8 1.9 1.8 1.03 0 1.9-.8 1.9-1.76v-2.63h.33v2.66c0 .97.86 1.78 1.88 1.78 1.08 0 1.94-.8 1.94-1.77v-2.8c2.1 0 4.28-.5 5.53-1.5 2.65.2 5.9-.8 7.34-2.32 2.62-.2 5.7-1.63 6.9-3.4 2.6-.56 5.4-2.42 6.3-4.3 2.45-.97 4.95-3.2 5.55-5.2 2.3-1.26 4.4-3.84 4.74-5.92 2-1.6 3.7-4.45 3.7-6.5 1.8-1.95 3.1-5.13 2.6-7.2 1.26-1.84 1.95-4.5 1.64-6.4h2.92c1 0 1.8-.88 1.8-1.88s-.8-1.86-1.8-1.86H147v-.36h2.64c1 0 1.8-.82 1.8-1.82s-.8-1.84-1.8-1.84H147v-.36h2.64c1 0 1.8-.83 1.8-1.86 0-1-.8-1.85-1.8-1.85h-3.2c.62-2-.13-5.12-1.6-7.22.3-2.03-.92-5.08-2.77-6.96 0-2.07-1.7-4.9-3.78-6.5-.3-2.03-2.5-4.6-4.8-5.9-.6-2-3.2-4.17-5.6-5.1-1-1.87-3.8-3.73-6.4-4.26-1.24-1.74-4.3-3.18-6.95-3.3-1.5-1.6-4.85-2.57-7.5-2.3-1.15-.8-2.9-1.26-4.7-1.3V45c0-1-.9-1.76-1.97-1.76-1 0-1.88.8-1.88 1.78v2.72c-.06 0-.14-.03-.23-.03-.03 0-.1 0-.1.07v-2.72c0-1-.88-1.77-1.9-1.77-1.08 0-1.9.8-1.9 1.78v2.72c-.1 0-.15-.03-.2-.03-.06 0-.1.03-.18.03v-2.72c0-1-.84-1.77-1.9-1.77-1.03 0-1.9.8-1.9 1.77v2.86zm5.47 25.37c.1 1.17.25 2.33.4 3.47 3.95-1.06 7.22-1.95 9.88 1.33-.05.63-.13 1.24-.25 1.85-2.55-1.63-5.3-1.83-9.17-.52.14.8.3 1.58.5 2.35 2.88-.8 5.2-1.24 8.37.06l-.2 2.3c0 .18-.05.3-.05.5-2.63-.9-4.85-.9-7.46.03.2 1 .5 2 .8 3.05v.08l-.07-.07c2.4-.3 4.6-.2 6.4.5-.07.8-.07 1.7-.1 2.5-4.58-2.44-16.3 1.72-22.57 6.1l-.7-1.8-.1-.28c-.2.14-.4.25-.6.4 2.7 6.9 4.56 13.7 5.6 20.8L74.32 80.4l1.35-.63-3.9-4.44c6.07-6.5 14.8-10.6 24.5-10.6 8.92 0 17.04 3.45 23 9.08-4.43 1.1-8.3 2.4-12.2 5 .17-5.5-4.6-6.7-9.95-5.75-.47.07-.94.2-1.4.26zM48.9 85.52c-.13-.3-.3-.6-.43-.94-.5-1.16-.2-2.55.22-3.74l.2-.5c.4-.9.9-1.77 1.5-2.5.2.78.4 1.53.5 2.36.1 1.03-.2 2.08-.5 3.08-.38.94-.8 1.9-1.3 2.83l-.3-.5zm37.66 30.3c2.86-2.1 6.46-4.18 10.62-6.1-.9 3.58-1 6.4.72 8.74 2.17 2.88 6.77 1.7 10.54-.47 7.23-4.2 12-8.2 19.16-11.5-4.38 12.6-16.78 21.7-31.28 21.7-1.9 0-3.82-.16-5.68-.47l-4.08-12zm41.5-10.75c-6.23-9.7-7.92-18.38-8.1-30.7 5.75 5.75 9.33 13.54 9.33 22.13 0 2.94-.5 5.85-1.3 8.57zM88.04 127.3c-14.16-3.57-24.64-16.05-24.64-30.8 0-7.5 2.7-14.4 7.25-19.85l.28 5.2 1.33-.62 15.77 46.08zM98.2 52.8c.06-.1.06-.27.06-.38V52h.1c.1 0 .18 0 .24-.02v.44c0 .17 0 .28.05.4h-.44zm4.06.37c.08-.25.16-.47.16-.75v-1.2c1.8.87 4.6 1.12 6.5 1.1l-.12-.2c.03 0 .03 0 .03.05 1.46 1.36 4.77 2.25 6.95 2.52 1.28 1.5 4.36 2.8 6.44 3.4 1 1.7 3.85 3.4 5.8 4.3.74 1.8 3.26 4 5.07 5.1.4 1.9 2.6 4.4 4.2 5.7.1 2 1.9 4.74 3.2 6.35-.17 1.97 1.14 4.93 2.27 6.7-.28 1.2-.08 2.8.3 4.3H142c-.26 0-.5.1-.76.2C138.6 71.2 122.5 55.6 102.26 53.1zm39.3 41.1c.15.04.3.07.45.07h.7v.3h-.6c-.14 0-.3.06-.4.06l-.03-.44zm.04 4.04l.4.1h.62v.3h-.6c-.15 0-.3.07-.45.1 0-.14.03-.3.03-.4zm-.36 3.9c.25.1.47.2.77.2h1.1c-.2 1.3-.3 2.68-.1 3.6l.1.1c-1.1 1.9-2.3 4.8-2.1 6.7-1.3 1.6-3.1 4.4-3.2 6.4-1.6 1.4-3.74 3.9-4.15 5.8-1.8 1.2-4.27 3.3-5 5.2-1.96.9-4.77 2.66-5.76 4.4-2.08.56-5.13 1.9-6.4 3.47-2.1.3-5.33 1.17-6.83 2.56-2.14-.06-5.44.4-7.13 1.5v-1.47c0-.3-.1-.5-.16-.72 20.23-2.54 36.34-18.1 38.98-37.67zm-42.6 38c-.04.1-.04.3-.04.4v.5h-.33v-.5c0-.1 0-.3-.06-.4h.5zm-4.15 0c0 .1-.1.3-.1.4v.5H94v-.5c0-.1 0-.3-.03-.4h.4zm-4-.3c-.2.2-.2.5-.2.7v1.2c-1.8-.8-4.7-1.1-6.6-1l.1.15c-1.5-1.4-4.8-2.3-7-2.6-1.3-1.5-4.37-2.8-6.45-3.4-1-1.7-3.85-3.46-5.8-4.3-.74-1.85-3.26-4-5.06-5.12-.46-1.9-2.65-4.4-4.26-5.76-.1-2-1.9-4.75-3.28-6.3.17-2.03-1.16-4.97-2.27-6.74.3-1.2.1-2.8-.3-4.3h1.24c.23 0 .5-.1.73-.17 2.66 19.53 18.77 35.1 39.04 37.63zM51.1 98.7c-.1 0-.25-.06-.36-.06h-.88v-.3h.88l.34-.02c.02.12.02.28.02.4zm-.02-4c-.12-.06-.23-.06-.34-.06h-.88v-.3h.88l.36-.03c0 .2 0 .3-.02.4zm.38-3.9c-.22-.12-.5-.15-.72-.15h-1.16c.27-1.3.33-2.66.08-3.66l-.08-.2c1.08-1.78 2.35-4.75 2.16-6.7 1.33-1.6 3.08-4.4 3.2-6.35 1.6-1.38 3.76-3.88 4.18-5.8 1.77-1.16 4.27-3.3 5-5.18 1.95-.87 4.75-2.64 5.75-4.4 2.08-.55 5.13-1.9 6.38-3.5 2.13-.27 5.4-1.13 6.85-2.5 2.16 0 5.54-.4 7.2-1.57v1.5c0 .3.06.5.2.76-20.27 2.6-36.38 18.1-39.04 37.7zm42.62-38c.02-.1.02-.2.02-.38V52h.17l.2-.02v.44l.02.4H94zm-3.77-2.76c-.1.08-.2.2-.3.27-.9.7-1.96.9-3.04 1.2-1.03.2-2.1.3-3.2.37.1-.2.23-.36.4-.55l.6-.8c.8-1.03 2.25-1.42 3.5-1.7l.58-.1c.5-.02 1.07-.05 1.57-.05v1.45zm12.2-1.53c.26 0 .54.1.8.1l.6.1c1.25.2 2.7.6 3.5 1.68.22.24.42.5.64.8.14.14.28.33.4.5-1.1 0-2.15-.1-3.23-.3-.93-.17-1.84-.4-2.7-.86v-2zm41.46 53.9h2.1c.17.88.1 1.7-.1 2.57l-.1.58c-.27.9-.6 1.84-1.1 2.7-.4-.72-.7-1.47-.92-2.22-.27-1.05-.16-2.13.04-3.15 0-.1 0-.3.07-.42zm-41.45 42.1V143l.33-.24c.9-.6 1.98-.85 3.06-1.1 1.03-.2 2.1-.3 3.22-.3l-.4.5-.62.8c-.8 1.05-2.25 1.46-3.5 1.68l-.58.1c-.5.05-1 .08-1.5.08zm-12.1.1c-.3 0-.57-.05-.82-.05l-.63-.06c-1.24-.25-2.7-.64-3.5-1.66-.2-.3-.4-.56-.65-.8-.16-.17-.3-.3-.4-.5 1.1 0 2.13.1 3.2.3.98.14 1.95.4 2.76.9v1.88zm-41.6-42.2c.1.36.15.74.24 1.1.2 1 .3 2.1.1 3.14-.23.77-.5 1.5-.9 2.24-.5-.82-.88-1.73-1.16-2.65l-.14-.6c-.2-1.02-.32-2.2.07-3.2h1.8zm.04-11.7h-2.1c-.16-.84-.1-1.72.1-2.53l.1-.55c.3-.95.6-1.86 1.14-2.67.36.7.66 1.5.88 2.27.3 1 .18 2.07 0 3.13-.02.14-.04.25-.1.4zm95.16 0c-.16-.34-.2-.7-.3-1.06-.2-1.02-.3-2.1-.1-3.1.3-.8.5-1.56.9-2.3.58.8.9 1.8 1.2 2.7l.15.53c.2 1.06.3 2.26-.1 3.25H144zM51.3 78.75c-.06-.36-.2-.67-.25-1-.36-1.25.2-2.58.8-3.66l.25-.5c.56-.8 1.17-1.6 1.94-2.2.14.73.2 1.54.14 2.37-.05 1.03-.5 2.02-.94 2.94-.5.9-1.08 1.8-1.75 2.63-.1-.22-.2-.42-.2-.6zm3.44-6.43c-.06-.3-.06-.6-.1-1-.15-1.24.6-2.5 1.37-3.5l.4-.43c.7-.72 1.4-1.42 2.3-1.92 0 .8-.1 1.6-.22 2.4-.25 1-.83 1.9-1.44 2.8-.64.85-1.33 1.62-2.1 2.34-.03-.2-.1-.4-.12-.67zm4.4-5.8c0-.33.06-.7.06-1 .05-1.3 1-2.4 1.88-3.24l.45-.4c.75-.65 1.58-1.2 2.5-1.6-.12.8-.3 1.6-.56 2.3-.4 1-1.14 1.8-1.86 2.6-.7.7-1.5 1.4-2.4 2v-.63zm5.27-5.1c.1-.33.2-.7.2-1 .3-1.24 1.4-2.2 2.4-2.93l.5-.36c.88-.5 1.8-.97 2.8-1.2-.23.78-.6 1.5-.95 2.2-.52.9-1.4 1.66-2.2 2.27-.87.6-1.8 1.2-2.76 1.66 0-.12.06-.4.1-.6zm6-4.3c.2-.32.3-.66.4-.96.5-1.2 1.7-2 2.8-2.6l.6-.2c.9-.4 1.9-.7 2.9-.8-.36.7-.78 1.4-1.28 2-.66.9-1.6 1.4-2.6 1.9-.9.5-1.9 1-2.95 1.3.08-.2.16-.4.2-.6zm6.7-3.4c.2-.3.33-.6.5-.9.63-1.15 2-1.76 3.2-2.15l.56-.2c.94-.22 1.97-.4 2.96-.38-.44.7-.97 1.3-1.6 1.85-.75.7-1.8 1.2-2.8 1.5-1.03.33-2.06.6-3.14.8l.3-.6zm-27.8 54.37c.07-.2.16-.4.27-.6.5.93.95 1.9 1.3 2.87.34 1 .65 2.1.54 3.1-.05.8-.22 1.6-.5 2.38-.63-.72-1.13-1.6-1.52-2.46l-.24-.53c-.4-1.15-.74-2.54-.24-3.73.13-.3.24-.6.4-.94zm2.46 6.8c.08-.2.1-.43.2-.62.63.8 1.2 1.7 1.77 2.6.44.95.9 1.94 1 2.97 0 .8 0 1.6-.14 2.33-.77-.6-1.44-1.4-1.96-2.2l-.3-.5c-.6-1.1-1.16-2.4-.83-3.65l.28-1zm3.5 6.34c0-.2.06-.42.1-.6.77.68 1.5 1.5 2.16 2.35.6.83 1.2 1.7 1.46 2.74.15.77.24 1.57.24 2.37-.88-.5-1.6-1.2-2.3-1.9l-.4-.48c-.7-.95-1.48-2.2-1.37-3.45l.1-1.05zm4.46 5.8l-.02-.66c.88.6 1.7 1.28 2.5 2 .77.78 1.5 1.58 1.88 2.55.28.74.5 1.52.6 2.32-.9-.3-1.76-.9-2.5-1.5l-.48-.35c-.88-.9-1.85-2.02-1.87-3.27-.02-.35-.1-.66-.1-1zm5.33 5.08c-.08-.25-.1-.44-.1-.66.9.5 1.85 1.1 2.7 1.7.88.6 1.7 1.3 2.3 2.2.4.7.7 1.5.96 2.3-1-.3-1.9-.7-2.77-1.2l-.5-.35c-1-.72-2.1-1.7-2.4-2.9-.1-.37-.15-.67-.2-1zm6 4.27c-.06-.25-.15-.44-.17-.63 1.02.4 2 .8 2.93 1.2.97.5 1.94 1.1 2.64 2 .44.6.9 1.3 1.25 2-1-.1-1.96-.4-2.9-.8l-.5-.2c-1.2-.6-2.4-1.35-2.88-2.57-.1-.3-.24-.6-.4-.93zm6.65 3.33c-.12-.2-.23-.4-.3-.58 1.07.1 2.13.4 3.15.7 1 .34 2.05.8 2.86 1.5.55.6 1.1 1.15 1.58 1.84-1.03.03-2.03-.1-3.03-.4l-.5-.16c-1.2-.36-2.6-1-3.24-2.1-.15-.3-.35-.6-.5-.9zm65.87-54.7c-.1.2-.18.36-.24.55-.55-.9-1-1.83-1.36-2.82-.3-1-.64-2.05-.5-3.07.06-.78.23-1.58.5-2.36.64.75 1.14 1.6 1.6 2.5l.15.5c.44 1.16.77 2.57.27 3.74-.1.3-.3.67-.4.98zm-2.48-6.82c-.04.22-.13.4-.2.6-.65-.8-1.23-1.68-1.73-2.6-.5-.9-.97-1.9-1.05-2.97-.06-.8 0-1.6.13-2.4.74.6 1.4 1.45 1.93 2.26l.3.5c.6 1.08 1.17 2.38.8 3.6-.05.36-.13.7-.2 1zm-3.54-6.35c0 .2-.03.45-.1.6-.74-.67-1.5-1.5-2.1-2.3-.63-.87-1.2-1.75-1.5-2.8-.13-.76-.2-1.56-.2-2.36.84.52 1.6 1.2 2.26 1.9l.4.48c.7 1 1.45 2.2 1.34 3.5l-.1 1zM133.1 66c.02.23.02.42.02.64-.9-.55-1.74-1.24-2.5-2-.74-.74-1.5-1.57-1.9-2.52-.3-.77-.5-1.55-.6-2.35.9.38 1.75.97 2.5 1.58l.47.38c.9.9 1.8 2 1.9 3.28l.02 1zm-5.33-5.07c.06.22.1.42.12.64-1-.44-1.9-1.02-2.8-1.64-.85-.63-1.7-1.3-2.26-2.24-.4-.7-.7-1.5-.94-2.2.96.2 1.87.7 2.73 1.2l.5.3c1.03.7 2.1 1.7 2.4 2.9.07.3.12.7.2 1zm-6.04-4.24l.24.5c-1.04-.3-2.04-.7-2.98-1.2-1-.5-2-1.1-2.6-1.9-.5-.67-1-1.36-1.3-2.08 1 .1 2 .4 2.84.8l.56.24c1.17.55 2.4 1.36 2.86 2.55.1.33.24.64.35.97zm-6.63-3.4c.1.1.22.3.3.5-1.08-.18-2.13-.43-3.13-.8-1.02-.3-2.07-.76-2.87-1.48-.6-.54-1.1-1.18-1.6-1.84 1-.07 2.07.13 3.04.35l.57.16c1.2.43 2.6 1 3.27 2.12.12.3.3.6.5.93zm28.75 54.1c.16.3.27.63.4.93.5 1.14.2 2.6-.2 3.72l-.2.55c-.4.87-.9 1.7-1.53 2.4-.3-.7-.5-1.5-.57-2.3-.1-1.06.18-2.1.5-3.1.37-.95.78-1.92 1.3-2.84l.3.6zm-2.42 6.8c.13.3.2.64.26.97.3 1.22-.2 2.55-.8 3.64l-.34.5c-.53.8-1.14 1.65-1.9 2.26-.16-.78-.2-1.58-.16-2.38.06-1.07.5-2.07 1-2.98.5-.92 1-1.8 1.7-2.6.05.2.13.38.2.6zm-3.43 6.4c.07.37.07.67.1 1 .17 1.28-.6 2.5-1.36 3.5l-.33.47c-.63.72-1.4 1.42-2.2 1.92-.04-.8.04-1.6.2-2.4.23-1 .8-1.9 1.42-2.77.64-.87 1.33-1.68 2.1-2.4.03.22.1.42.1.64zm-4.4 5.83c0 .32-.05.7-.05 1.02-.02 1.26-1 2.37-1.85 3.26l-.44.4c-.76.6-1.6 1.2-2.5 1.6.1-.8.3-1.6.54-2.34.4-1 1.14-1.8 1.9-2.6.74-.7 1.57-1.4 2.46-2 0 .2 0 .46-.04.65zm-5.23 5.12c-.1.32-.15.66-.23.96-.28 1.3-1.36 2.28-2.36 3l-.5.3c-.8.5-1.75.97-2.7 1.25.23-.8.53-1.57.9-2.26.54-.9 1.4-1.6 2.24-2.28.9-.6 1.78-1.2 2.75-1.62 0 .2-.05.4-.08.6zm-6 4.32c-.1.3-.28.6-.4.93-.4 1.2-1.68 2-2.8 2.58l-.54.26c-.9.38-1.9.7-2.9.8.34-.7.8-1.4 1.3-2.05.65-.8 1.6-1.4 2.54-1.9s1.9-.9 2.96-1.2c-.1.1-.14.3-.2.6zm-6.63 3.37c-.13.3-.33.6-.5.88-.63 1.15-2 1.8-3.18 2.2l-.6.14c-.98.24-1.97.44-2.97.4.43-.65 1-1.3 1.54-1.85.8-.7 1.8-1.1 2.8-1.5 1.06-.32 2.1-.6 3.17-.8l-.3.6zM98.3 48.6h.1c.1 0 .17 0 .23-.02v2.5l-.22-.02h-.1V48.6zm-3.8-.02v2.5l-.2-.02-.17.02V48.6h.17l.2-.02zm3.8 93.33h.33v2.5h-.34V142zm-3.8 0v2.5h-.37V142h.37zm51.62-43.6v.3h-2.54v-.3h2.52zm0-3.7h-2.54v-.2h2.52v.3zm-97.2 3.7v.3h-2.5v-.3h2.5zm0-3.7h-2.5v-.2h2.5v.3zm25.8-15.1L71.4 81l-.26-5.6 3.6 4.16zm12.38 44l2 1 1.08 3.2-1.97-.95-1.1-3.2zm-2.77-8.04l2 .95 1.08 3.16-1.9-1-1.1-3.13zm-2.82-8.12l2.1.98 1.1 3.14-1.95-.9-1.16-3.2zm-2.7-8.1l2.07.96 1.08 3.2-1.96-.94-1.13-3.2zM76 91.1l2.04 1 1.1 3.14-1.98-.96-1.14-3.2zM73.26 83l2.02.96 1.08 3.16-1.94-.98L73.2 83zm33.32-1.35c4.36-3.3 6.63-4.4 12.3-5.8 0 .98.07 1.9.1 2.78-5.5 1.27-7.85 2.35-12.65 5.8-.04.02.1-1.34.26-2.73v.02zm-.55 6.1c4.4-3.4 7.58-4.6 13.15-5.93.08.87.2 1.8.3 2.73-5.37 1.2-8.73 2.58-13.44 6v-2.8zm-.13 5.57c4.62-3.2 8.33-4.83 13.96-6.33l.1.33c.12.9.32 1.7.5 2.58-5.56 1.28-9.36 2.9-14.2 6.4-.3-1.03-.42-1.95-.37-3zm.74 6.34c4.3-3.33 8.8-5.32 14.6-6.82l.95 2.88c-5.58 1.17-10.2 3.3-15 6.85l-.5-2.9zm2.1 8.35c-.3-.83-.6-1.7-.83-2.53 4.4-3.27 9.37-5.65 15.3-7.2l.04.07c.3.8.68 1.53 1 2.26-5.26 1.47-10.44 4.15-15.43 7.43zm-10.6 2.7c2.98-1.3 6.08-2.64 8.5-2.55l.2.7c-2.73 1.7-5.9 3.5-9 5.06-.1-.86.1-2.05.3-3.2zm.4 5.88c9.9-3.38 17.2-9.64 26.8-13.7.5.8.95 1.6 1.4 2.36-6.7 3.2-11.2 5.67-19.05 10.66-4 2.5-8.2 2.73-9.16.7zM86.9 110.5c5.27-3.7 13.6-8.84 19.44-6.9.24.84.46 1.7.74 2.53-4.74-2.1-13.28 2.07-19.7 6.92l-.5-2.55zm-1.5-5.45c5.27-4.03 14.25-8.25 20.1-5.72.1.74.25 1.52.4 2.24-4.3-2.24-13.84 1.4-19.8 5.77l-.7-2.3zm-1.6-5.03c5.32-4.27 14.83-8.54 21.26-5.94.06.84.1 1.7.17 2.58-4.6-2.3-14.53.9-20.77 5.5l-.65-2.1zm14.86 38l-.14-3.93s-.33.4-.7.6c-.27.1-.57-.17-.4-.6.2-.66.7-.58.96-2 .1-.4.1-.8.2-1.26.13-.7 1-.67 1.05 0l.3 7.04-1.24.1zm-37.2-36.1l-1.3.15-.12-1.22 1.27-.17.2 1.25zm5.9 14.26l-1.1.67-.7-1.08 1.1-.64.7 1.06zm3.77 7.93l-.8-.8c.35-.33.55-.72.58-1.1.1-.95-1.24-2.37-2.13-2.64-.5-.2-.96 0-1.2.24-.5.5-.15 1.07.2 1.63.87 1.3 1.7 2.38 1.65 3.24-.06 1.05-1.2 1.94-2.4 1.77-1.5-.22-3.12-2.1-3.2-3.44-.05-.6.2-1.13.78-1.65l.72.77c-.3.3-.46.67-.46 1 0 .72 1.26 2.03 2 2.3.78.2 1.4-.35 1.34-.87-.08-.96-2.07-2.93-2.1-4.24-.06-.95 1.05-2.03 2.5-1.8 1.44.22 3.43 2.2 3.43 3.74 0 .7-.3 1.35-.9 1.9zm-5.8-49.9l-1.2 1.48 2.6 2-.7.8-6.02-4.7 2.5-2.9c.9-1.05 2.1-1.9 3.4-.97 1.37 1 1 2.47.16 3.5l4 .2-.9.93-3.8-.3v-.05zm-2.44-2.4l-1.48 1.7 1.96 1.6 1.44-1.75c.74-.9 1.5-1.82.35-2.57-.9-.58-1.64.22-2.3 1.05zm-4.2 32.46c-.08 0 2.1-.5 3.5 1.4 1 1.34 1.33 3.4.4 4.75-1.1 1.6-3.84 2.5-5.73 1.3-1.26-.82-2.14-2.65-1.9-4.3.23-1.93 1.84-2.46 1.86-2.43l.35 1.06c-1.25.6-1.4 1.9-1.03 3.1.5 1.4 1.76 2.47 3.76 1.9 2-.6 2.5-2.2 2-3.7-.7-2.3-2.9-1.9-2.9-1.95l-.33-1.06zm5.24-20.9c-1 2.74-3.4 3.26-5.45 2.43-1.84-.73-3-2.5-2.3-4.7.74-2.38 2.87-3.96 5.62-2.8 1.86.75 3.1 2.53 2.16 5.05zm-5.06 1.4c1.52.6 3.27.42 4.13-1.8.7-1.8-.3-3.16-1.76-3.7-2-.76-3.36.26-3.94 1.73-.57 1.4-.35 2.93 1.57 3.74zm12.7-12.5l-5.3-5.43.8-.73 5.23 5.47-.75.7zm2-2.16l-4.08-6.3 1.2-.77 7.6 2.9-3.48-5.35.9-.57 4.07 6.34-1.26.74L71 64.1l3.46 5.35-.9.6zm8.3-11.7l2.4 6.04-1 .36-2.44-6.04-2.72 1.03-.33-.9 6.45-2.4.4.9-2.72 1zm5.9 4.74l-.98-7.4 1.05-.15.4 3 4.63-.6-.37-3 1.1-.1.9 7.4-1.07.1L93 59l-4.64.5.42 3.4-1.07.2zm8.67-.72l.17-7.42h1.1l-.12 7.45-1.1-.04h-.02zm2-.24l4.94-6.67 1.15.2 2.02 7.9-1.1-.2-.6-2.24-3.9-.7-1.4 1.93-1.17-.2zm3.16-2.57l2.98.5-.84-3.4-2.1 2.9zm5.84 4.4l3.1-6.8 1.32.6 1.76 7.72 2.66-5.83.96.4-3.15 6.77-1.3-.57-1.77-7.7-2.66 5.8-.95-.4h-.03zm16.65 11.27l6.24-4.4 2 2.68c.9 1.16 1.46 2.52-.1 3.57-1.5 1.1-2.7.2-3.6-.97l-1.3-1.83-2.57 1.8-.66-.86zm3.93-1.5l1.1 1.46c.7.95 1.46 1.86 2.57.95.85-.7.3-1.58-.32-2.4l-1.17-1.57-2.16 1.54zm-.46 5.95l8.5.47.4 1.04-5.86 5.8-.42-1 1.67-1.7-1.48-3.5-2.4-.14-.47-1zm3.93 1.2l1.14 2.68 2.5-2.5-3.65-.2zm8.07 11.9l-4.6.87c-2.5.5-3.45-.95-3.8-2.56-.32-1.7-.1-3.4 2.6-3.9l4.5-.83.2 1.05-4.13.8c-1.66.3-2.5.9-2.13 2.7.25 1.1.9 2.06 3 1.67l4.18-.76.2 1.04zm-7.67 3.14l7.64.5-.05 1.04-6.7-.44-.3 4.5-1.05-.04.4-5.6zm-.76 6.6l7.6 1.35-.2 1-7.56-1.3.18-1.03zm.7 15.88L126.2 115l.6-.86 5.6 3.4 1.6-2.36.83.5-3.7 5.7-.84-.56 1.52-2.38zm-6.82-1.45l3.16 7.63-.77.8-7.96-2.63.75-.8 2.3.75 2.64-2.76-.9-2.2.8-.8zm.55 3.94l-2.1 2.1 3.4 1.1-1.34-3.25zm-37.84 14.3l1.4.2c0 .74.73 1.57 2.23 1.74 2.94.3 3.1-2.9 3.1-2.9-1.05.9-2.38 1-3.55.73-.92-.2-1.92-.53-2.6-1.53-.8-1.12-.5-2.57.9-3.23 1.8-.93 4.63-.24 5.82.95 1.3 1.3 1.05 4.8-.6 6.2-1.2.97-3.64.92-5.2.14-1.13-.6-1.52-1.56-1.52-2.28zm6.24-3.6c-.8-.9-2.74-1.26-3.9-.7-.95.5-1.23 1.54-.34 2.37.64.6 2.05 1.1 3.3.77 1.33-.33 1.72-1.55.94-2.44zm-9.73 4.7l1.1-3.75c0-.03-.46.3-.85.33-.28 0-.5-.3-.2-.7.4-.5.83-.3 1.55-1.6.2-.32.3-.7.6-1.13.3-.6 1.12-.27.92.36l-2 6.77-1.2-.3zm20.1-7.52c2.72-.65 4.97 1.16 5.38 3.43.42 2.4-1.16 4.2-3.13 4.7-2.56.7-4.86-.9-5.4-3.1s.8-4.43 3.14-5zm.45.9c-1.7.28-2.8 1.98-2.45 3.7.3 1.77 2 2.93 3.7 2.66 1.7-.3 2.8-2 2.4-3.72-.34-1.75-2-2.94-3.7-2.63zm-31.37 1.4l2.3-2-1.22-2.7 2.6 1.45 2.26-1.9-.65 2.76 2.64 1.43-3.02.38-.64 2.9-1.27-2.7-3 .38zm46.9-.6l-2.98-.32-1.28 2.68-.67-2.9-3-.37 2.6-1.5-.6-2.8 2.2 1.9 2.6-1.45-1.2 2.72 2.3 1.96zm-61.48-43c0-.02 2.1.48 2.5 2.78.3 1.66-.3 3.62-1.76 4.43-1.7.9-4.6.5-5.7-1.4-.8-1.3-.73-3.3.2-4.7 1.1-1.6 2.8-1.4 2.8-1.4l-.2 1.1c-1.4 0-2.12 1.1-2.3 2.3-.2 1.5.46 3 2.5 3.4 2.03.37 3.2-.85 3.47-2.4.35-2.4-1.78-3-1.75-3.05l.14-1.1zM117 65.42l.92.7c-.3.4-.44.8-.42 1.2.06.94 1.58 2.16 2.47 2.33.53.08.97-.17 1.17-.48.44-.55.02-1.08-.42-1.58-1.05-1.2-2.02-2.1-2.08-3-.08-1.1.92-2.1 2.14-2 1.5 0 3.38 1.6 3.66 2.9.1.6-.1 1.2-.56 1.7l-.8-.65c.22-.35.33-.7.27-1.07-.1-.7-1.52-1.83-2.3-1.94-.8-.16-1.33.5-1.22 1 .2.95 2.47 2.64 2.7 3.9.16.96-.8 2.2-2.23 2.15-1.5 0-3.74-1.7-3.96-3.2-.08-.7.14-1.37.67-2.04zm16.14 40.24l-.33 1.08c-.5-.14-.9-.14-1.2.03-.84.4-1.5 2.22-1.3 3.13.1.5.5.8.83.93.67.2 1.03-.36 1.34-.98.73-1.35 1.3-2.6 2.1-2.96.95-.5 2.26.1 2.65 1.3.5 1.4-.35 3.7-1.5 4.4-.52.3-1.13.3-1.85.1l.35-1c.4.1.8.03 1.1-.1.6-.35 1.17-2.1 1.04-2.87-.17-.77-.92-1.05-1.4-.77-.8.5-1.63 3.2-2.73 3.85-.85.46-2.32 0-2.8-1.34-.5-1.4.34-4.1 1.7-4.8.6-.32 1.3-.34 2.1-.1zM101.5 48.2c0 .12.1.2.2.26v2.82c-.1.06-.2.2-.2.25 0 .1.1.2.2.28v.6c0 1.5-2.38 1.5-2.38 0v-3.7l1 1.05c.2.25.38.36.66.2.22-.15.22-.42.05-.64l-1.7-2.4v-1.7c0-1.52 2.37-1.52 2.37.06V48c-.1.08-.2.2-.2.28zm-4.12 0c0 .12.08.2.2.26v2.82c-.12.06-.2.2-.2.25 0 .1.08.2.2.28v.6c0 1.5-2.4 1.5-2.4 0v-3.7l1 1.05c.2.25.4.36.64.2.25-.15.25-.42.08-.64l-1.7-2.4v-1.7c0-1.52 2.37-1.52 2.37.06V48c-.1.08-.2.2-.2.28zm-4.16 0c0 .12.08.2.2.26v2.82c-.12.06-.2.2-.2.25 0 .1.08.2.2.28v.6c0 1.5-2.4 1.5-2.4 0v-3.7l1 1.05c.2.25.4.36.67.2.2-.15.2-.42 0-.64L91 46.9v-1.7c0-1.54 2.4-1.54 2.4.04V48c-.1.08-.2.2-.2.28zM47.44 93.44c-.1 0-.2.08-.27.2h-2.92c-.08-.12-.2-.2-.27-.2-.1 0-.2.08-.28.2h-.55c-1.58 0-1.58-2.34.02-2.34h3.88l-1.1.96c-.25.2-.36.36-.23.64.17.22.45.22.7.08l2.46-1.7h1.78c1.6 0 1.6 2.34-.06 2.34h-2.85c-.1-.1-.22-.2-.3-.2zm0 4c-.1 0-.2.07-.27.18h-2.92c-.08-.1-.2-.18-.27-.18-.1 0-.2.08-.28.2h-.55c-1.58 0-1.58-2.34.02-2.34h3.88l-1.1.97c-.25.2-.36.4-.23.64.17.2.45.2.7.1l2.46-1.7h1.78c1.6 0 1.6 2.4-.06 2.4h-2.85c-.1-.1-.22-.2-.3-.2zm0 4.06c-.1 0-.2.08-.27.2h-2.92c-.08-.12-.2-.2-.27-.2-.1 0-.2.08-.28.2h-.55c-1.58 0-1.58-2.34.02-2.34h3.88l-1.1.97c-.25.2-.36.36-.23.64.17.22.45.22.7.08l2.46-1.7h1.78c1.6 0 1.6 2.34-.06 2.34h-2.85c-.1-.2-.22-.2-.3-.2zm98.96-8.07c-.12 0-.2.08-.28.2h-2.9c-.1-.12-.24-.2-.3-.2-.07 0-.2.08-.3.2h-.52c-1.58 0-1.58-2.34.02-2.34h3.9l-1.15.9c-.22.2-.36.33-.2.6.17.2.45.2.7.08l2.47-1.7h1.74c1.64 0 1.64 2.34-.02 2.34h-2.9c-.07-.1-.18-.2-.26-.2zm0 4c-.12 0-.2.07-.28.18h-2.9c-.1-.1-.24-.1-.3-.1-.07 0-.2.1-.3.2h-.52c-1.58 0-1.58-2.33.02-2.33h3.9l-1.15.97c-.22.2-.36.4-.2.64.17.2.45.2.7.1l2.47-1.7h1.74c1.64 0 1.64 2.32-.02 2.32h-2.9c-.07-.1-.18-.17-.26-.17zm0 4.06c-.12 0-.2 0-.28.2h-2.9c-.1-.2-.24-.2-.3-.2-.07 0-.2 0-.3.2h-.52c-1.58 0-1.58-2.4.02-2.4h3.9l-1.15.94c-.22.2-.36.36-.2.64.17.22.45.22.7.1l2.47-1.7h1.74c1.64 0 1.64 2.32-.02 2.32h-2.9c-.07-.12-.18-.2-.26-.2zm-44.9 42.2c0 .1.1.2.2.23v2.8c-.1.1-.2.2-.2.3 0 .04.1.2.2.23v.53c0 1.52-2.38 1.52-2.38-.03v-3.7l1 1.1c.2.2.38.33.66.2.22-.17.22-.44.05-.67l-1.7-2.36v-1.7c0-1.54 2.37-1.54 2.37.04v2.74c-.1.1-.2.2-.2.3zm-4.12 0c0 .1.08.2.2.23v2.8c-.12.1-.2.2-.2.3 0 .04.08.2.2.23v.53c0 1.52-2.4 1.52-2.4-.03v-3.7l1 1.1c.2.2.4.33.64.2.25-.17.25-.44.08-.67l-1.7-2.36v-1.7c0-1.54 2.37-1.54 2.37.04v2.74c-.1.1-.2.2-.2.3h-4.15c0 .1.08.2.2.26v2.8c-.12.1-.2.2-.2.3 0 .03.08.2.2.22v.53c0 1.53-2.4 1.53-2.4-.02v-3.7l1 1.1c.2.2.4.34.67.2.2-.14.2-.4 0-.64L91 142.4v-1.7c0-1.55 2.4-1.55 2.4.03v2.78c-.1.1-.2.2-.2.3h4.16z"/><path d="M63.7 133.57l-11.1 11.8c-.44-.38-.8-.76-1.16-1.15l10.9-11.48c-.42-.28-.8-.6-1.17-.92l-10.76 11.3c-4-4.45-6.6-9.36-8.6-14.18 1.8-1.14 4.6-1.8 7.06-2.2-8.65-4.3-16.5-10.9-20.2-17.43-2.7 9.9-1.85 20.3 2.5 30.9 1-2.13 1.7-5 3.97-6.4 3.1 5.75 6.38 10.74 9.95 15.1l-9.94 10.4c-2.94 3.15 1.14 5.98 4 2.87l9-9.73c6.1 6.65 13.05 11.5 21.04 14.64 6.94 2.73 12.2 3.47 16.45 5.75 4.45 2.4 8.86 6.38 10.83 11.5 1.9-5.12 6.35-9.1 10.8-11.5 4.2-2.3 9.55-3 16.4-5.7 8.06-3.14 14.94-8 21.1-14.64l8.95 9.74c2.9 3.1 7 .28 4.08-2.86l-9.94-10.42c3.53-4.36 6.86-9.35 9.96-15.1 2.2 1.4 2.9 4.28 3.94 6.44 4.34-10.58 5.2-21 2.5-30.85-3.7 6.52-11.53 13.12-20.2 17.44 2.46.4 5.3 1.05 7.04 2.2-2.02 4.8-4.6 9.72-8.67 14.16l-10.76-11.3c-.4.34-.84.64-1.28.9l11 11.55c-.35.4-.74.8-1.1 1.15l-11.32-11.9c-.07.03-.18.1-.3.12-.1.26-.27.5-.5.8l11.02 11.83c-5.56 4.67-13.24 8.5-24.47 10.54-6.06 1.15-11.88-2.9-14-7.05h-.1c-1.03 0-1.9-.8-1.9-1.78v-1.2h-.3v1.2c0 .97-.88 1.8-1.9 1.8-1.1 0-1.9-.8-1.9-1.8v-1.22h-.38v1.24c0 .98-.82 1.8-1.87 1.8h-.1c-2.12 4.2-7.94 8.2-14 7.1-11.22-2.04-18.9-5.9-24.4-10.55l11.13-12-.12-.23c-.3-.1-.65-.26-1-.43zm-17.6 16.4c.4.5.73.9 1.12 1.32l-8.8 9.3c-.96 1-2.43 0-1.26-1.3l8.95-9.4zm-3.07-11.6c6.46 9.6 15.03 16.85 21.05 20.1 8.37 4.46 18.16 7.04 23.95 6.87 4.36-.1 7.07-6.48 8.3-9.8v21.2c-1.03-3.02-4.33-9.1-8-9.68-2.04-.33-14.82-1.22-26.2-7.73-6.23-3.58-13.4-9.43-20.9-20.2-2.16-3.12-4.07-6.22-5.6-9.02-.33-.6-.66-.7-1.22-.3-.7.6-1.7 2.2-2.7 4.3-.22.6-.7.4-.5-.2 2-5.3 2.08-10.2-.5-16.5-.6-1.4 0-1.62.6-.23 2.6 5.68 3.4 7.95 11.8 8.7.96.08.8.58-.1.67-1.1.14-3.54.2-4.82.86-.74.4-.96.94-.46 1.9 1.5 2.9 3.3 6 5.4 9.16zm112.35-9.68c.7-2-4-2.1-5.63-2.3-1.17-.1-.7-.6-.28-.68 8.68-.75 9.4-3 12.06-8.76.67-1.47 1.22-1.2.6.25-2.62 6.37-2.5 11.34-.5 16.66.18.5-.35.66-.46.38-1.66-3.6-3.38-5.7-3.94-4.43-.88 2.1-4.96 8.55-8.04 12.57-7.4 9.75-18.7 19.9-36.2 23.37-4.3.8-9.4 1.42-11 1.3-1.97-.13-2-1.05-.2-1.4 1.6-.3 5.2-.28 10.9-1.45 17.2-3.5 27.86-13.4 34.8-22.8 3.1-4.2 7.07-10.8 7.8-12.76L146.7 150l8.97 9.38c1.13 1.2-.28 2.2-1.25 1.2l-8.8-9.35c.33-.43.72-.84 1.08-1.26l8.6-21.37zm-96-65.6c.65-1 1.62-1.9 2.73-2.7-1.8-3.65 0-10.4-3.4-14.7L41.8 24.2c-6.6 4.46-12.5 9.7-17.8 15.7l20.7 18.4c4.02 3.58 10.42.5 14.66 4.8zM43.8 43.4c4.73 4.6 10.7 8.8 13.82 8.1-.06 3.54.7 6.73 3.2 9.62-3.37-2.08-6.9-3.8-10.55-3.78 1.03-3.52-2.77-9.17-6.46-13.94zm-12.13 1.9c-.83-.74 0-1.54.75-.87L45.86 56.5c1.1.97 1.83 1.08 2.78 1.33 1.33.4 1.8.9.7.9-2.42.07-3.62-.76-4.5-1.57L31.67 45.32zm98.98 15.15c1.08.8 2 1.77 2.52 2.75l.05.03c4.22-4.5 10.76-1.3 14.84-4.93l20.73-18.4c-5.4-6-11.3-11.24-17.8-15.7l-17 21.54c-3.4 4.32-1.6 11.1-3.4 14.72zm14.5-27.42c.63-.8 1.5-.1.85.6L135.14 47.3c-.6.7-.78 1.45-.9 2.2-.27 1.5-.7 2.08-.82.83-.14-1.3-.17-2.5 1.05-4.08l10.68-13.22zm3.8 10.4c-3.7 4.77-7.55 10.42-6.47 13.94-3.66-.02-7.23 1.7-10.53 3.77 2.47-2.88 3.2-6.07 3.2-9.62 3.06.7 9.03-3.5 13.8-8.1zm-58.64 2.9v-1.3c0-.96.9-1.77 2-1.77 1.06 0 1.9.78 1.9 1.78v2.08l.37.02v-2.1c0-.97.84-1.78 1.9-1.78 1.04 0 1.9.78 1.9 1.78v2.2h.34v-2.2c0-.97.86-1.78 1.9-1.78 1.07 0 1.93.78 1.93 1.78v1.6c4.1-.97 7.65-2.9 11.65-6.1V33c-3.85-2.04-7.84-3.3-11.6-4 3.15-1.98 5.23-5.44 5.23-9.38 0-6.1-5.07-11.12-11.3-11.12-6.17 0-11.2 5.02-11.2 11.12 0 3.94 2.1 7.4 5.24 9.37-3.87.7-7.76 2-11.9 4v7.5c3.84 2.7 8.03 4.73 11.8 5.8zm6-31.9c3 0 5.3 2.3 5.3 5.18 0 2.9-2.4 5.3-5.3 5.3S91 22.5 91 19.66c0-2.87 2.4-5.17 5.28-5.17zm-6.7.72c-1.4 1.97-1.95 4.77-.8 7.62.4 1-1.1 1.78-1.5.78-1.6-3.27-1.3-6.8 1.1-9.7.68-.8 2 .22 1.2 1.3zm12.97 2.44c-.64-1.2.5-1.8 1.13-.9 1.72 2.5 1.45 5-.47 7-.6.6-1.77.1-1.27-.6 1.36-1.9 1.6-3.9.6-5.6zm9.4 15.6c.44 0 .83.3.83.7 0 .4-.4.7-.83.7h-28c-.57 0-1.2.5-1.62 1.1-.63.85-.74 1.74-.77 2.05-.1.72-1.2.64-1.2-.06v-3.8c0-.47.5-.67.92-.67h30.63v6.2c.44 0 .83.3.83.68s-.4.76-.84.76H81.2c-.5 0-.88-.37-.88-.76s.4-.7.86-.7h30.72v-6.1zm-16.2 40.05C88.35 74.82 81.67 78 75.1 82.2c2.26 4.35 4.2 8.6 5.86 12.8 5.35-3.5 11.34-6.7 17.7-7.34-1.4-4.77-2.45-9.4-2.9-14.4zM87.07 78c3.47 0 6.27 2.45 6.27 5.53 0 3.05-2.8 5.54-6.27 5.54-3.5 0-6.3-2.5-6.3-5.54 0-3.08 2.8-5.52 6.3-5.52z" fill="#CC2229"/><path d="M78.08 84.6l.8-1.1 1.4.47-.87-1.16.9-1.1-1.4.4-.7-1.1-.02 1.4-1.35.4 1.36.5v1.4zm3.7 8.08l.7-1 1.2.44-.72-1 .72-1.02-1.2.36-.7-.97v1.1l-1.18.4 1.2.4-.03 1.23zm13.05-5.4l.77-.98 1.2.4-.73-1 .72-1-1.2.38-.7-1-.1 1.2-1.2.33 1.2.5-.06 1.26-1.9-8.8.84-1.12 1.36.48-.8-1.16.8-1.1-1.35.4-.77-1.1-.07 1.34-1.3.4 1.32.46v1.4l1.9 8.8z" fill="#EFE13C"/><path d="M87.9 80.7c0-.08-.12-.08-.23 0l-.08.06c0-.03-.1 0-.1-.03-.1.03-.2 0-.2.1 0 .07.02.1.02.1-.04.16.05.2.16.1l.1-.02c0 .1.14 0 .14 0l.06-.1v-.1zm-.17 6.63c.05-.03.08.02.14.02.05.03.1.06.13.1h.06c0-.04.03-.04.06-.04.27.1.25.2.38.3 0 .1.03.1.03.1.03.1.06.1.06 0v-.1l.2-.5h.02v.05c.02 0 0 .03-.04.06h-.03c0 .05-.03.1-.06.16v.04c-.05.02-.05.02-.05.05h.05c.04-.04.04-.04.04-.07 0-.06.1-.1.1-.2.1-.24.2-.66.2-.85v-.1c.02 0-.04-.06-.06-.06 0-.04-.06-.04 0-.07v-.06c.02-.25.4-.42.55-.6h.03l.07-.08s.04-.04.07-.04c.04 0 .04-.04.07-.04.53 0 .72-1.2.72-1.72-.06-.06-.1-.12-.1-.2-.02-.17-.05-.17-.05-.36V83h.04c.15-.04.6-1.1.6-1.26v-.06c0-.02 0-.02-.04-.02l.03-.06c-.03 0-.03-.03-.03-.06H91c0-.02 0-.05-.03-.08-.07-.03-.07-.08-.1-.1l-.02-.04-.04-.02s-.03.02-.03.05c-.02 0-.02 0-.02-.02-.07-.02-.07 0-.13 0-.05-.05-.2-.08-.25-.08v-.03c-.04-.02-.07-.05-.13-.05-.02 0-.05 0-.05-.03-.06-.1-.36-.15-.4-.15h-.25c-.05-.07-.05 0-.05 0h-.03s-.04 0-.04 0H89c-.05 0-.24.17-.2.12l.02-.06h-.02c0-.03-.02-.03-.02-.03v-.05h.03v-.06l-.02-.02h-.13s0-.06-.03-.06h-.5c-.07 0-.13.14-.15.2v.02h-.02v.03H87.52c-.06 0 0-.06 0-.06h-.06V81c0-.03 0-.06-.03-.06s0 .02 0 .02V81l-.1.03s-.06.02-.06.05-.02 0-.02.04c0 .05 0 .08.06.08l.05.04h.02c.04.03.04.03.04.06h-.07c-.03 0-.03 0-.03-.05-.05 0-.05-.02-.05-.02l-.02-.06v-.06l.02-.1c.03 0 .03-.1.03-.13l.03-.04.07-.08v-.04c0-.03 0-.03.03-.03l.04-.04v-.02c.03-.02 0-.05.05-.1v-.03c0-.04.04-.1 0-.1-.04-.05-.1 0-.2-.05 0 0-.04-.06-.06-.15l-.08-.05s0-.04-.04-.04c-.3-.33-.1-.1-.24.03 0 .1-.03.27-.14.3h-.04c0-.07-.04 0-.07 0s-.05 0-.05.03c-.02 0-.02.03-.02.03v.02c-.06 0-.25 0-.28-.04-.03 0-.03.05-.08.07h-.08c-.04 0-.04 0-.04.04 0 0 0 .03.04.03 0 0 .04 0 0 0v.06h-.02l-.05.02c-.05 0-.05-.02-.07-.02-.08 0-.1 0-.2.05l-.03.05c0 .03 0 .05-.06.05h-.07l-.02.02s-.04-.05-.04 0h-.03c-.03 0-.03.04-.05.04h-.1c-.17.2-.25-.28-.25-.28.06-.1-.02-.2-.1-.25v-.1c0-.02 0-.05-.03-.05-.06.04-.2.18-.2.23l-.08.03h-.08s-.02 0-.02.04v.03c0 .04-.04.04-.1.04l-.02.03v.02c0 .04-.06.04-.1.04h-.32s-.03.04 0 .04h.02v.02h.04v.07c.04.04.04.04.06.04 0 .04.03.06.06.1v.1h.07c.2 0 .16.07 0 .24-.03.05-.1.05-.1.08-.04.1-.1.2-.15.2-.03.06-.06 0-.14 0h-.12c-.08 0-.13-.05-.16-.13v-.03l-.04.04-.1.08c-.1.1-.2.07-.3.1h-.03v.08c.04.04.04.04.07.04 0 .05.04.05.07.02h.1c.02.04.02.04 0 .04-.4 0-.14.23-.1.3h.1v.04c.04 0 .07.04.07.07l.1.67c.04.07 0 .07-.04.07-.36.04-.47.34-.47.6 0 .07 0 .07-.06.07-.1 0-.05.25-.05.3 0 .04.04.04.12.1 0 0 .04 0 .04.05l.04.02h.02s0 .05-.03.08l.03.03c.05-.03.16-.06.2 0v.02h.05c.1 0 .2-.1.3-.12v.14c0 .23.1.07.2.07h.07v-.03h.03c.05-.04.35-.16.35-.24v-.07l.05-.05s.03-.06.06-.06c0 0 0-.04.03-.04.1-.1.2-.1.26-.04v.02c0 .4.83.42 1.2.42.02 0 .1 0 .05.03 0 .03 0 .05.02.05.02.02.05.05.1.05v.05c0 .03-.05.06-.05.06-.05.1.04.17.1.2.1.05.2-.03.3-.1h.03l.08.05c.04.05-.05.1 0 .1.04.14.2.14.23.3 0 .04-.04.07-.04.1 0 .05.08 0 .08.05 0 .07-.05.07-.02.1.03.02.06.02.08.02.04.03 0 .05-.04.1-.03 0-.03 0 0 0v.05h.1c.02 0 .02 0 .02.05l.07.05v.2s.03.04.06.04c.14 0 .2-.14.33-.1l.4.37s.04.06.04.1v.13h-.02v.04h.1c.25.03.05.14.05.33v.04c-.2.1-.35.47-.43.67 0 .05.04 0 .07 0z" fill="#474485"/></g></svg>