<svg xmlns="http://www.w3.org/2000/svg" width="192.76" height="192.76" viewBox="0 0 192.756 192.756"><g fill-rule="evenodd" clip-rule="evenodd"><path fill="#FFF" d="M0 0h192.76v192.76H0V0"/><path d="M96.38 10.7c47.2 0 85.68 38.48 85.68 85.68 0 47.2-38.5 85.68-85.68 85.68-47.2 0-85.7-38.5-85.7-85.68 0-47.2 38.5-85.7 85.7-85.7z" fill="#305A8A"/><path d="M96.38 13.2c45.8 0 83.18 37.37 83.18 83.18 0 45.8-37.37 83.18-83.18 83.18S13.2 142.2 13.2 96.38c0-45.8 37.36-83.18 83.18-83.18z" fill="#FFF"/><path d="M96.38 37.43c32.47 0 58.95 26.48 58.95 58.95s-26.48 58.95-58.95 58.95-58.95-26.48-58.95-58.95S63.9 37.43 96.38 37.43z" fill="#305A8A"/><path d="M17.63 85.07L34 86.5l-1.3 14.6-3.5-.32.78-9.1-2.6-.24-.74 8.42-3.48-.3.73-8.42-3.2-.28-.8 9.45-3.6-.3 1.3-14.9zm5.82 24.6h-.05l-.45.07c-.62.15-1 .52-1.2 1.12-.18.6-.15 1.46.1 2.57.2.86.5 1.5.85 1.9s.75.6 1.2.5c.64-.16.95-1.23.93-3.23v-1.08c-.05-3.17.2-5.28.8-6.33.26-.5.63-1 1.1-1.3.24-.2.5-.3.76-.4.2-.1.5-.2.9-.3 1.5-.4 2.9 0 4 1.2s2.02 3.12 2.64 5.8c.6 2.64.7 4.7.2 6.14-.5 1.45-1.53 2.36-3.13 2.73l-.2.04-1.14-5 .06-.03c.53-.1.9-.45 1.06-1.02.1-.3.1-.63.1-1 0-.4-.08-.83-.2-1.34-.17-.76-.4-1.33-.7-1.7-.3-.35-.63-.5-1-.4-.68.15-1 1.37-.96 3.67l.03 1.02c0 1.66-.02 2.84-.12 3.53-.1.67-.24 1.3-.5 1.87-.24.64-.64 1.17-1.2 1.6-.5.46-1.1.76-1.8.9-1.63.4-3.05-.1-4.28-1.4-1.2-1.3-2.15-3.4-2.8-6.2-.65-2.8-.7-4.95-.14-6.4.56-1.46 1.76-2.4 3.6-2.83l.26-.04 1.24 5.27zm13.4 16.82l-2.97 1.7 1.56 2.7c.37.6.77 1 1.2 1.2.42.1.88.1 1.4-.2.47-.3.75-.7.82-1.1.07-.5-.08-1-.44-1.7l-1.56-2.7zm-14 1.7l14.22-8.2 5.04 8.7c1.1 1.9 1.6 3.5 1.4 4.7-.1 1.25-1 2.3-2.5 3.17-1.5.87-2.9 1.1-4.3.66-1.3-.43-2.5-1.46-3.4-3.1L30.8 130l-5.2 3-2.75-4.8zm20.83 16.6c-1.16 1.2-1.76 2.3-1.8 3.5-.04 1.1.47 2.2 1.55 3.2 1.1 1.02 2.2 1.52 3.33 1.5 1.13-.1 2.26-.7 3.38-1.86 1.22-1.27 1.88-2.5 1.96-3.7.08-1.23-.43-2.36-1.52-3.4-1-1-2.12-1.4-3.33-1.3-1.2.13-2.4.8-3.57 2zm-2.75 8.9c-2.34-2.28-3.62-4.5-3.82-6.7-.2-2.25.7-4.36 2.7-6.37 1.9-1.95 3.98-2.83 6.27-2.64 2.3.2 4.65 1.44 7.05 3.76 2.37 2.3 3.66 4.55 3.9 6.8.2 2.28-.64 4.4-2.6 6.43-1.9 1.97-4 2.85-6.25 2.63-2.3-.2-4.68-1.53-7.17-3.94zm24.24 1.12l-1.5 2.93 2.78 1.4c.67.35 1.22.5 1.65.4.43-.07.78-.36 1.03-.86.26-.5.3-.96.12-1.34-.18-.4-.62-.74-1.3-1.1l-2.78-1.4zM54.32 164l7.46-14.62 8.4 4.27c.86.45 1.6.84 2.17 1.17.6.3 1.02.6 1.3.8.6.43 1 .9 1.28 1.4.27.5.4 1.05.38 1.7 0 .67-.1 1.3-.5 1.94-.5.95-1.2 1.6-2.1 1.84s-2 .16-3.2-.33c.6.3 1.07.6 1.4.94.38.37.64.7.8 1.1.3.65.3 1.46-.1 2.44l-.95 2.58c-.13.35-.26.75-.37 1.2l-.36 1.6-5.07-2.57c0-.15.03-.3.06-.46.04-.17.1-.38.2-.65.07-.27.1-.43.14-.46.07-.23.17-.45.28-.67l.9-2.1c.16-.3.26-.6.3-.85.03-.25 0-.48-.07-.7-.13-.35-.6-.73-1.37-1.12l-3.08-1.58-2.93 5.74-4.9-2.5zm26.13 10.16l2.44-12.6-6-1.16.6-3.53 17.5 3.4-.7 3.56-6-1.2-2.45 12.6-5.5-1.08zm17.3 2.22l-2-16.3 14.53-1.8.43 3.5-9 1.13.3 2.6 8.4-1 .4 3.45-8.4 1.02.4 3.15 9.4-1.16.5 3.57-14.88 1.83zm33.96-20.97c-.4-.62-1-1-1.7-1.12-.6-.1-1.3.02-2.1.43-1.25.64-2.02 1.53-2.3 2.7-.3 1.14-.03 2.45.7 3.93.75 1.43 1.65 2.35 2.7 2.78s2.2.35 3.5-.3c.9-.45 1.52-1.04 1.85-1.76.33-.72.34-1.54.04-2.47l5.16-2.65c.8 2 .7 3.86-.24 5.5-.95 1.64-2.84 3.18-5.66 4.6-2.75 1.4-5.2 1.8-7.36 1.3s-3.83-1.9-5-4.2c-1.27-2.45-1.47-4.8-.6-6.95.88-2.16 2.77-3.98 5.66-5.46 2.55-1.3 4.7-1.84 6.45-1.64.9.1 1.7.35 2.4.78.73.5 1.3 1.1 1.73 1.97l-5.15 2.64zm22.9-9.63l2.5 2.6-10.2 9.84-11.4-11.8 4.03-3.9 8.9 9.23 6.18-5.96zm-8.04-9.9l2.73-4.7 8.1 4.66c1.17.68 2.2.9 3.1.7s1.64-.9 2.3-2.02c.63-1.1.8-2.06.55-2.95-.26-.87-.97-1.65-2.13-2.3l-8.1-4.7 2.65-4.57 8.05 4.62c2.2 1.25 3.45 2.83 3.74 4.72s-.36 4.24-1.97 7c-1.6 2.77-3.27 4.48-5 5.14s-3.74.34-5.97-.95l-8.03-4.63zm14.13-22.25l3.34.76.66-2.8c.14-.7.12-1.25-.08-1.65-.2-.4-.6-.65-1.14-.8-.53-.1-1-.03-1.35.25-.37.26-.64.73-.8 1.4l-.64 2.83zm6 1.38l3.5.8.76-3.24c.16-.8.15-1.4-.06-1.87-.2-.5-.6-.78-1.2-.9-.57-.15-1.05-.05-1.44.3-.4.3-.67.84-.84 1.6l-.74 3.24zm5.56 6.75l-16-3.7 2.26-9.9c.14-.62.27-1.13.4-1.53s.2-.77.35-1.04c.1-.3.25-.54.37-.74s.3-.4.47-.6c.44-.5.97-.8 1.58-.98.6-.18 1.3-.17 2.04 0 .9.2 1.57.64 2.03 1.3.47.64.74 1.57.8 2.8.66-1.3 1.38-2.17 2.2-2.63.8-.42 1.8-.52 2.94-.25 1.4.32 2.37 1 2.92 2 .56 1.02.64 2.35.26 4l-2.6 11.26zm4.3-22.37l-16.4 1.44-1.3-14.6 3.55-.3.8 9.1 2.6-.24-.73-8.4 3.5-.3.74 8.42 3.17-.28-.82-9.46 3.6-.3 1.3 14.9zm-140.9-44.2c-.73-.3-1.4-.37-2.03-.16-.6.2-1.14.7-1.63 1.43-.8 1.2-1 2.36-.67 3.5.33 1.13 1.2 2.15 2.6 3.06 1.3.9 2.56 1.23 3.7 1.07 1.13-.17 2.1-.84 2.85-2.02.55-.85.8-1.66.72-2.45-.08-.8-.48-1.5-1.2-2.2l3.17-4.86c1.68 1.33 2.52 2.94 2.52 4.84s-.9 4.15-2.6 6.8c-1.7 2.54-3.58 4.15-5.7 4.8-2.14.64-4.28.3-6.4-1.1-2.38-1.55-3.7-3.47-4.04-5.8-.32-2.3.4-4.8 2.17-7.54 1.56-2.38 3.14-3.93 4.76-4.63.83-.4 1.66-.54 2.46-.5.87.06 1.7.3 2.47.85l-3.16 4.85zm9.85-14.7l2.15 2.46L50 40.9c.58-.5.9-.96 1-1.38.1-.45-.05-.88-.42-1.3-.37-.44-.77-.64-1.2-.6-.43 0-.93.3-1.5.8l-2.38 2zm4.44 13.5L39.2 41.5l7.1-6.18 1.9-1.6c.53-.4.94-.7 1.26-.9.6-.36 1.2-.6 1.76-.65.55-.08 1.13.02 1.74.28.6.27 1.13.66 1.6 1.2.7.8 1 1.7.9 2.7-.1.97-.6 1.93-1.5 2.86.5-.4.96-.7 1.4-.9.44-.2.86-.3 1.27-.3.72-.06 1.46.27 2.23.98l2.02 1.87c.27.25.6.5.97.8l1.3.87-4.3 3.74c-.14-.05-.27-.14-.4-.22l-.53-.4-.37-.3-.5-.5-1.6-1.62c-.25-.26-.48-.47-.7-.6-.23-.12-.44-.2-.67-.2-.38 0-.9.28-1.56.86L49.9 45.5l4.23 4.85-4.16 3.6zM59 26.34l5.05-2.05 3.5 8.7c.52 1.24 1.2 2.06 2 2.43.84.38 1.86.33 3.08-.16 1.16-.5 1.92-1.2 2.26-2 .3-.9.2-1.98-.3-3.2l-3.5-8.68 4.9-2 3.5 8.6c.92 2.38.94 4.4 0 6.06-.93 1.67-2.9 3.1-5.86 4.3-2.96 1.2-5.33 1.52-7.1.96-1.78-.55-3.15-2.03-4.1-4.4L59 26.36zm32.6 4.05l10-.16.07 3.58-16.37.3-.07-4.53 9.1-8.4-8.74.14-.1-3.62 15.5-.26.06 4.38-9.53 8.65zm12.83 3.8l3.4-16.05 14.34 3.04-.75 3.5-8.94-1.9-.54 2.56 8.27 1.78-.7 3.43-8.2-1.77-.67 3.1 9.28 2-.73 3.5-14.65-3.1zm16.77 4.72l7.45-14.64 5 2.53-7.45 14.65-5-2.55zm20.42-3.06l-2.02 2.6 2.46 1.9c.6.47 1.1.7 1.54.7.44.02.83-.2 1.18-.64.35-.45.47-.9.37-1.3-.1-.42-.46-.86-1.07-1.34l-2.46-1.94zm-12.4 6.94l10.12-12.93 7.42 5.8c.77.6 1.4 1.13 1.92 1.56.5.45.88.8 1.12 1.07.5.58.82 1.1 1 1.6.16.58.18 1.1.03 1.8-.14.66-.43 1.26-.86 1.8-.68.86-1.5 1.3-2.48 1.4-1 .1-2.1-.2-3.1-.9.5.4.9.8 1.2 1.2.2.4.4.8.5 1.17.2.7 0 1.5-.57 2.4l-1.4 2.3c-.2.3-.4.68-.6 1.1l-.6 1.44-4.5-3.5.15-.42.3-.6.24-.42c.1-.2.24-.4.4-.6l1.26-1.87c.25-.3.4-.56.48-.8.07-.25.1-.47.06-.7-.07-.4-.45-.84-1.14-1.4l-2.74-2.12-3.97 5.1-4.36-3.4zm24.62 12.5c-1.4.9-2.25 1.9-2.54 3-.3 1.1-.03 2.27.8 3.5.8 1.3 1.78 2 2.9 2.2 1.1.2 2.35-.12 3.7-1 1.48-.95 2.4-2 2.74-3.2.35-1.14.12-2.36-.7-3.63-.78-1.18-1.76-1.84-2.97-2-1.22-.15-2.53.23-3.94 1.14zm-4.7 8.1c-1.76-2.7-2.5-5.2-2.2-7.4.3-2.2 1.62-4.05 3.97-5.6 2.3-1.45 4.5-1.84 6.7-1.14 2.2.7 4.2 2.46 6 5.25 1.8 2.78 2.6 5.3 2.3 7.54-.3 2.25-1.6 4.14-3.9 5.67-2.3 1.5-4.53 1.9-6.7 1.2-2.16-.72-4.2-2.53-6.07-5.44z" fill="#305A8A"/><path d="M100.6 129.45l2.18 6.82h7.18l-5.85 4.22 2.3 6.8-5.8-4.2-5.72 4.1 2.2-6.76-5.87-4.3h7.26l2.2-6.8zm31.8-49.15l2.2 6.8h7.18l-5.86 4.24 2.28 6.8-5.85-4.14-5.74 4.13 2.3-6.75-5.9-4.3h7.28l2.2-6.78zm-24.7 15.36l1.37 4.32h4.55l-3.7 2.67 1.44 4.3-3.7-2.6-3.64 2.6 1.4-4.27-3.72-2.72h4.6l1.4-4.3zm-12.44-46.5l2.2 6.82h7.17l-5.85 4.23 2.27 6.8-5.85-4.1-5.74 4.1 2.22-6.7-5.9-4.3h7.27l2.2-6.8zm-33.1 32.86l2.2 6.8h7.18l-5.86 4.25 2.28 6.8-5.85-4.14-5.7 4.12 2.2-6.74-5.8-4.3 7.26.1 2.2-6.8z" fill="#FFF"/></g></svg>