<svg xmlns="http://www.w3.org/2000/svg" width="192.76" height="192.76" viewBox="0 0 192.756 192.756"><g fill-rule="evenodd" clip-rule="evenodd"><path fill="#FFF" d="M0 0h192.76v192.76H0V0"/><path d="M171.65 51.35c.43-1.53 1.1-2.83 1.52-4.36.65-1.6 1.3-2.9 1.96-4 1.08-1.97 2.17-3.27 3.48-4.36.3-.44.7-.87 1.1-1.1L144.1 2.8c-2.18 1.75-5.65 3.28-10.88 4.58-1.3.43-2.83.86-4.14 1.1-1.95.4-3.9.85-6.08 1.3-6.53.86-13.92 1.5-21.97 1.5h-9.2c-8.46 0-16.1-.64-22.8-1.73-1.75-.44-3.5-.66-5-1.1-1.54-.2-2.84-.64-4.37-1.08-5-1.3-8.7-2.84-10.82-4.58L13.1 37.6c.44.2.88.63 1.3 1.1 1.97 1.7 3.7 4.54 5.23 8.24 2.83 6.5 4.36 14.34 4.57 23.26v3.28c0 7.4-.65 14.12-2.4 20-.2.86-.43 1.5-.64 2.2-.43 1.3-.86 2.8-1.5 4.1-.45 1.1-.88 2.4-1.54 3.26 0 .45-.2.88-.44 1.1-.22.87-.44 1.5-.87 2.4 0 .43-.2.86-.4 1.3-1.3 4.56-2.17 9.57-2.4 14.8-.2 1.1-.2 1.95 0 2.82 0 2.16 0 4.12.45 6.1.4 4.1 1.7 8.03 3.24 11.73 2.82 6.3 6.73 11.9 11.52 16.7 5 4.8 10.66 8.06 17.4 9.6 6.53 1.72 13.27 2.8 20 3.46 1.3 0 2.4.22 3.48.44 5.65.88 10.66 2.84 15 5.88 4.14 2.82 7.62 6.1 10.88 9.56 0 .2.22.43.44.86.2-.42.4-.64.62-.86 1.98-2.16 4.15-4.56 6.76-6.5 1.3-1.1 2.6-2.2 3.9-3.06 2.82-1.95 5.86-3.47 9.34-4.56 2.84-.86 5.9-1.5 9.15-1.73 5.4-.4 10.63-1.3 15.85-2.4 1.3-.2 2.84-.65 4.36-1.08 5.2-1.3 10-3.7 14.36-6.98.85-.88 1.94-1.75 2.8-2.6 3.7-3.7 6.74-7.63 9.35-12 .68-1.5 1.55-3.03 2.2-4.77v-.2c1.75-3.7 2.84-7.6 3.5-11.54v-.64c.43-2.83.43-5.44.43-8.26-.2-5.87-1.3-11.1-3.03-16.1-.25-.65-.47-1.52-.9-2.17v-.2c0-.2-1.3-3.24-1.97-4.33l-.65-1.96c-.2-.63-.65-1.5-.87-2.15-1.93-6.53-3.02-13.93-3.02-22.2v-.43c0-8.24 1.1-15.4 3.03-21.72z"/><path d="M168.17 48.52c.22-1.1.65-2.18 1.08-3.05.66-1.74 1.3-3.04 2.18-4.35 0-.22 0-.22.22-.22.43-1.3 1.1-2.17 1.96-3.26L143.4 8.27c-2.18 1.3-5.23 2.4-8.92 3.5-.22-.02-.44-.02-.65-.02-1.3.44-2.6.65-3.9 1.1-.88.2-1.75.43-2.6.43l40.9 35.24zM18.5 129.66c0 .44 0 .87.22 1.3.43 3.7 1.52 7.2 3.04 10.67 2.4 5.65 5.87 10.66 10 15 .22 0 .44.23.44.23 4.35 4.35 9.57 7.18 15.45 8.7 5.22 1.3 10.88 2.4 16.53 3.04L18.5 129.66zm5.44-83.76c3.04 7.62 4.57 16.76 4.57 27.64v.43l16.9 14.4c1.3-6.43 3.78-12.4 7.4-17.87L24 45.9zM137.7 167.3c2.62-.66 5.02-1.1 7.62-1.74 4.35-1.1 8.5-3.05 11.97-5.66l-25.5-21.76c-5.1 4.48-10.6 7.76-16.7 9.88l22.52 19.28zM42.65 14.8L30.68 26.76l35.2 30c5.05-3.7 10.5-6.46 16.4-8.14L42.64 14.8zM174.7 127.5l-25.25-21.55c-.77 6.26-2.6 12.05-5.5 17.4l25.52 21.76c.65-1 1.1-2.1 1.74-3.2 0-.2 0-.4.3-.4h-.2c1.54-3.26 2.4-6.95 2.84-10.43.2-1.3.44-2.4.65-3.5zm-32.18-55.64c.2.33.42.64.6.96l23.3 19.86c-1.52-5.66-2.17-12.18-2.17-19.15V69.4l-62.87-53.73H91.8c-5.87 0-11.52-.44-16.74-.87l41.34 35.24c3.85 1.5 7.5 3.44 10.93 5.85l16.25 2.4c.34 4.9 0 9.3-1.06 13.5zm-96.4 51.5c.65-1.7 1.3-3.3 2-4.94-.4-1.06-.82-2.12-1.17-3.2l-21.5-18.4c-.2 0-.2 0-.2.2-.44 1.53-1.1 3.06-1.53 4.36-.65 1.3-1.1 2.4-1.52 3.48-.22.22-.22.44-.44.87v.22c-.22.44-.44 1.1-.65 1.74-.2.2-.2.2-.2.4-.2 1.1-.6 1.9-.8 2.8l80.3 68.7c1.52-1.3 3.26-2.6 5-3.92 2.4-1.5 5-2.83 7.83-3.9L87.9 150.1c-8.8-1.44-16.7-5-23.8-10.73-.48.67-1 1.34-1.56 1.97L46.2 123.3h-.02zm15.68-22.2c4.78-3.7 10.43-7.18 17.17-10 5.66-2.6 11.54-5.22 17.63-7.83 6.3-2.6 11.53-6.53 15.44-11.32 3.98-4.6 5.52-10.2 5.24-16.8-6.12-2.8-12.8-4.2-20.03-4.2-13.5 0-24.8 4.8-34.37 14.15v-.2c-9.36 9.3-14.14 20.63-14.14 33.9 0 5.04.7 9.8 2.06 14.26 2.7-4.42 6.28-8.47 11-11.87z" fill="#FFF"/><path d="M131.84 92.68c-3.7 4.8-8.92 8.48-15.23 11.1-6.3 2.4-12.4 4.78-18.2 7.6-6.1 2.62-11.94 5.67-17.6 9.58-5.64 3.7-10.2 8.5-13.7 14.14l-.54.8c8.78 7.2 18.94 10.73 30.8 10.73 13.26 0 24.8-4.57 34.14-13.92 9.56-9.3 14.13-20.6 14.13-33.9 0-7.8-1.62-14.9-4.9-21.4-2.14 5.3-5.1 10.5-8.8 15.37z" fill="#FFF"/><path d="M115.52 74.84c-4.57 5.44-10.22 9.57-17.18 12.62-6.1 2.4-11.97 5-17.63 7.6-6.3 2.84-11.7 5.9-16.3 9.6-4.8 3.47-8.2 7.82-10.8 12.4-.86 1.94-1.5 3.47-2.4 5.2l11.1 12.2c.2-.45.67-1.1 1.1-1.75 3.7-6 8.7-11 15.2-15.4 5.68-3.7 11.77-7.2 18.08-10 5.88-2.6 11.97-5 18.06-7.4 0 0 .2 0 .2-.2 5.7-2.14 10.26-5.4 13.5-9.54 3.9-5.22 6.76-10.66 8.9-16.1 0-.2.26-.43.26-.65 1.3-3.5 1.95-7.2 1.95-11.3l-17.9-2.64c-.4 6.1-2.37 11.1-6.07 15.45z" fill="#FFF"/><path d="M114.65 87.24c-1.3-1.74-1.52-3.48-.87-5.22.43-1.52 1.96-3.04 3.92-4.57 1.74-1.1 3.26-1.52 4.56-1.74 1.3 0 2.62.3 3.7 1.1l-3.26 3.1c-.44-.4-.65-.4-.87-.4-.22-.2-.65-.2-1.1-.2-.64.2-1.08.2-1.3.64-1.08.44-1.52 1.3-1.52 2.18-.2.66 0 1.53.7 2.4.9 1.3 1.5 1.96 2.4 1.96.4.2 1.3 0 2.2-.65.68-.43 1.3-.86 1.5-1.5 0-.66 0-1.3-.2-2.2l4.15-1.3c.44.88.44 1.75.2 2.6s-.64 1.76-1.3 2.63c-.43.63-1.3 1.5-2.6 2.15-1.3 1.1-2.6 1.54-3.7 1.76-1.1.2-2.4.2-3.7-.22-1.1-.42-2.2-1.3-2.83-2.4zM69.4 107.7l1.3 1.73 5.23-3.26 1.3 1.95L72 111.6l2.84 4.36-4.13 2.6-6.7-10.44 10-6.52 1.6 2.17-6.1 3.92m29.8-4.2l-4.56 1.94-4.57-11.54 11.1-4.55 1.1 2.6-6.75 2.64.9 1.95 5.65-2.4 1.1 2.4-5.9 2.4 2 4.55"/><path d="M78.97 91.16c5.66-2.6 11.54-5.22 17.63-7.83 6.3-2.6 11.53-6.53 15.44-11.32 1.9-2.2 3.23-4.6 4.08-7.3-2-.5-4-.7-5.82-.7-1.74 0-3.48.2-5 .9-1.1-1.93-2.83-3.24-5-3.5-3.05-.6-4.57.48-5 3.1-1.75 0-3.27.44-5 1.1h-.88c-1.53 0-3.27 0-4.8.42-2.82.44-4.78 1.74-6.3 3.7-.43-.2-.65-.2-.87-.2-.43 0-.65 0-.65.2-.87 1.3-1.96 2.83-3.27 4.14-1.3 1.5-2.4 3.26-3.04 5.2-.3-.2-.5-.43-.7-.43-2.88-1.3-4.6-.87-5 1.5-1.3-.2-1.8.45-1.3 1.75h-.9c-.2-.2-.47 0-.47 0-1.08 1.54-1.5 3.28-1.74 5-.87-.2-1.74 0-2.4.67-1.73 1.75-2.6 4.1-1.95 7.2.44 3.25 1.96 5.43 4.35 6.73l.05.77c.42-.34.84-.67 1.3-1 4.77-3.7 10.42-7.2 17.16-10zm37.63 12.6c-6.3 2.4-12.4 4.8-18.26 7.63-6.1 2.6-11.97 5.6-17.63 9.5-2.2 1.44-4.2 3.12-6.1 4.92.4.35.9.66 1.4.92 1.1.43 2.6.86 3.9.86 1.56 0 2.86 0 4.17-.43 1.5-.23 1.96-.67 1.3-1.53.65-.86 1.53-1.1 2.6-1.3 1.54 0 2.84.44 4.15 1.1.65.42 1.5.64 2.17.86v3.48c-1.1-.2-2.16.23-2.8 1.3-.2 0-.2.23-.2.23-1.1 0-2 0-2.86-.2-1.5-.2-2.6.44-3.04 1.74-.88 0-1.53.23-2.4.67-1.3.67-2.18 1.75-1.96 3.28.2.4.43.85.86.85.9.24 1.54.46 2.2.46-.44.64-.44 1.3 0 2.4 0 0 .2.2.65.2h6.1c1.1 0 1.97 0 3.06-.2 1.3 0 2.6-.24 3.9-.24.44-.23.87-.23 1.3-.44 1.5.2 2.4-.2 2.4-1.3h2.8c1.1.23 2.2.23 3.3.23 1.3.22 2.18 0 3.05-.65 1.3-.88 1.5-1.75.86-2.83-.44-.44-.87-.65-1.3-.65h-.44c-.64-.9-1.5-1.3-2.4-1.98-.42 0-.86-.2-1.3-.2s-.64.2-.86.2c0 0-.23 0-.23-.2-.62-.2-1.5-.43-2.4-.43h-1.92v-6.55c.9 0 1.76 0 2.4-.23h4.15c1.1-.2 2.18-.4 3.27-.62.65-.23 1.3-.66 1.52-1.3h2.6c1.1.2 2.2-.24 3.03-.9.2-.22.4-.22.85-.65.65-1.1 1.1-2.16 1.1-3.47 1.3 0 2.4-.24 3.47-.9 1.1-.44 2.2-1.3 3.28-2.2.2-.2.65-.63.87-1.3.64.24 1.3.45 2.16.45 1.1 0 1.73-.64 1.73-1.73 1.1 0 1.95-.86 2.4-2.4.2-.4.42-.86.42-1.5.2-.23.43-.45.65-.45.65 0 1.08-.2 1.3-.85 0-.2.44-.2 1.1-.2s.86-.87.86-2.18c0-1.55.44-2.6.9-3.7.63-1.3.63-2.6.2-4.17-.66-1.1-1.1-2.4-1.5-3.7-.24-.2-.24-.44-.46-.44-.42-1.06-1.3-1.93-2.6-2.37l-.73-.4c-.54.8-1.07 1.6-1.65 2.34-3.7 4.75-8.9 8.45-15.23 11.1z" fill="#738B60"/></g></svg>