<svg xmlns="http://www.w3.org/2000/svg" width="179.84" height="214.08" viewBox="0 0 179.844 214.084"><path d="M89.92 214.08c-27.84-10.87-50.16-25.88-65.74-46.73C8 145.68 0 117.75 0 78.87V0h179.84v78.87c0 38.88-8 66.8-24.18 88.48-15.57 20.85-37.9 35.86-65.74 46.73z"/><path d="M89.92 207.9c-12.5-5-23.9-10.85-34-17.9h68.02c-10.1 7.05-21.52 12.9-34.02 17.9zm-60.5-43.32c-5.34-7.22-9.86-15.26-13.48-24.27H163.9c-3.6 9.1-8.14 17.1-13.48 24.3h-121zM8.18 112c-1.23-7.4-2.02-15.27-2.33-23.7H174c-.32 8.43-1.1 16.3-2.33 23.7H8.17zm84.7-78.93h81.27v27.87H92.87V33.07zM5.68 5.7h81.47v76.92H5.7V5.72z" fill="#CD3529"/><path d="M59.98 79.16c-1.98-.63-4.4-6.02-4.3-8.6v-.38c-2.57-4.38-5.2-7.9-7-10.12v11.4c-.13 3.82-1.06 6.27-3.83 7.6 2.26.32 5.72.78 7.78-2.3.57 1.34 4.47 3.4 7.35 2.4zm7-25.38c.7 1.6 1.18 4.38-3.2 7.9 5.33-.7 7.76-2.67 7.98-5.26.42-4.8-1.18-4.85-.07-11.32.3-2.2 1.7-3.73 4.1-5.66-5 .75-8 3.2-9.6 8.7l-10.5-.04V29.4l3.3-.02c-.3-2.06-.9-4.1-2.2-6.34h-5.1c-2.55-.02-3.68-1-6.15-.12 1.8 1.05 3.1 2.45 3.1 4V48.5c2.35 1.2 4.8 3.15 6.73 5.27h11.54zm4.5-24.4h5.4c0 3 3.47 9 8.64 9.15-2.6-3.74-3.64-6.35-2.5-11.46 2.58-6.7.57-12-2.44-12.75.57 1.87.95 7.32-2.17 8.73h-10c1 3.2 2.4 5.8 3.1 6.32zM47.1 67.75C25.8 75.4 16.3 65.02 10.48 49.6c-.84-1.96-.9-3.3-3.2-4.8 2.6-.8 3.04-2.4 3.45-4.05 1.44-10.4 7.93-19.24 18.06-22.44v5.2C21.5 27.1 17.7 36.7 17.9 45.6c.3 10.07 9.72 20.54 19.24 20.3 3.13-.07 6.7-.44 9.87-2.82v4.8zm-8.08-51.1c1.55-.1 3.2-.17 5-.2-.42 2.27-1.2 11.08 2.33 14.05-.67 1.46-2.52 3.08-4.3 3.03-1.2-.02-1.56-.58-2.18-1.46-.3-.42-.58-.86-.85-1.3v-14.1zm-1.65 36.5l-.02 10.97c-.7.08-1.55.08-2.6-.12-1.13-.2-2.77-.64-4.37-1.65V16.52c0-2.82-2.12-5.36-5.7-6.8 3.48-2.24 10.14-.16 11.22 2.36 3.5-2.24 7.64-3.32 11.75-3.28 7.84.08 15.56 4.25 18.5 12.23 1.54 4.22 2.3 8.53 5.42 10.12-.84.45-1.5 1.03-2.08 1.78-1.6 2.1-2.7 5.26-5.3 9.13-1.08 1.53-2.3 3.04-3.9 4.48h-3.1v-3.7c2.2-3.54 3.38-7.96 3.33-12.26-.08-6.26-4.95-15.87-16.1-16.5-3.2-.2-5.9.78-7.15 1.58V47.4c6.5 0 11.23 2.3 14.75 5.4 3.38 2.94 5.74 6.75 7.8 10.67 3 5.63 5.05 10.54 8.7 10.43 2.73-.13 4-1.45 5.2-3.16 1.2 5.6-3.1 7.96-5.77 8.02-2.85.05-6.2-2.35-8.4-5.5-3.3-4.66-6.48-11.3-11-15.67-5.1-4.9-8.7-4.5-11.2-4.5zm.63 18.6c.75 3.04 2.23 6.66 4.82 8.28-6.72-.07-7.2-2.4-8.17-3.43-1.6 1.62-4.08 4.26-9.18 3.75 2.88-2.68 4.12-5.36 4.62-8.66 2.5.3 5.5.4 7.9 0z" fill="#FFF"/></svg>