<svg xmlns="http://www.w3.org/2000/svg" width="192.76" height="192.76" viewBox="0 0 192.756 192.756"><g fill-rule="evenodd" clip-rule="evenodd"><path fill="#FFF" d="M0 0h192.76v192.76H0V0"/><path d="M22.82 184.25zm147.1-146.68c-29.03 5.5-53.57-4.17-73.55-29.07C76.4 33.42 51.9 43.1 22.87 37.57c-.05 20.7 1.4 39.62 6 56.77.2 1.06.63 2.57 1.3 4.6 10.54 35.85 32.6 64.28 66.2 85.24 33.5-20.96 55.56-49.4 66.27-85.25.62-2.52 1-4.02 1.2-4.6 4.54-17.06 6.33-36 6.08-56.76z" fill="#A92E5A"/><path d="M165.36 42.97c-26.77 3.52-49.73-5.58-68.93-27.3-19.28 21.72-42.28 30.87-69.05 27.3-.12 18.12 1.84 34.9 5.92 50.2 0 .03 0 .1.04.17.2.94.62 2.35 1.2 4.17 0 .1 0 .1.06.1 9.97 34 30.56 61 61.77 81.2 31.13-20.12 51.7-47.2 61.84-81.12.6-2.27 1-3.8 1.2-4.45 4-15.2 6-31.96 6-50.2z" fill="#FFF"/><path d="M159.4 93.14l.05-.16-.06.16z" fill="#FFF"/><path d="M96.43 24.83c-18 18.06-38.92 26.45-62.7 25.05.37 14.95 2.24 28.83 5.64 41.64.04.22.08.46.1.66.16.56.4 1.3.68 2.18h12.03c.3-.4.6-.78.8-1.16 4.55-7.76 10.35-13.55 17.38-17.4.22-.1.42-.23.62-.33 2.6-1.37 5.4-2.45 8.27-3.3.2-.07.4-.15.62-.2 1.64-.45 3.35-.85 5.1-1.13v6.93c-1.78.38-3.46.86-5.1 1.36-.22.02-.42.12-.62.2-3.06.98-5.8 2.18-8.27 3.6-.2.14-.4.24-.62.34-4.88 2.9-8.55 6.57-11.1 11.1H71v-10.7C73.48 82.2 76.2 81 79.27 80v13.97c1.64-.32 3.54-.62 5.73-.82.2-.06.42-.06.62-.1 2.32-.26 4.98-.46 7.85-.58.2-.06.42-.06.62-.06 1 0 2.1-.1 3.2-.1h.63c0-.2.05-.4.1-.6.3-1.4.7-2.82 1.2-4.4H93.4v4.58c-2.86.17-5.52.37-7.84.6V67.4c2.58-.7 5.2-1.15 7.87-1.4v17.6h11.13l3.1 4.07c-1.3 1.26-2.3 2.52-3.05 3.82l-.3.6h4.65l.62 2.2h43.03c.2-1 .42-1.9.6-2.47.04-.1.04-.2.1-.3 3.36-12.8 5.24-26.7 5.7-41.7-23.78 1.32-44.64-7-62.58-25.07zM85.6 66.76c-.2.04-.42.12-.62.16-1.97.56-3.85 1.26-5.73 2.12v2.48c-2.88.78-5.65 1.88-8.27 3.26v-4.8c-1.12-1.42-2.76-2.12-4.92-2.1l4.9-4.87c5.55.4 9.5.1 11.85-.8.7-.3 1.5-.5 2.3-.7.2-.1.4-.1.7-.1 2-.44 4.3-.9 7.07-1.2.2-.03.48-.03.68-.03.2-.02.4-.02.63-.02 3.4-.2 7.7.2 12.8 1.2-.38 1.46-.4 3-.14 4.63-4.4-.7-8.63-.87-12.7-.6-.2 0-.4 0-.6.04-2.7.3-5.3.73-7.87 1.44zm23.54 9.1c-4.98-.78-9.97-.66-15.07.33v-6.3c4.64-.16 9.36.06 14.15.72.3.62.56 1.2.92 1.82.04.13.18.2.3.25.02.02.12.02.18.02-.24 1.06-.38 2.06-.48 3.02zm-.18-5.02c-.12-.28-.2-.48-.32-.68-.56-1.22-.94-2.38-1.14-3.53-.04-.2-.1-.4-.12-.62-.26-1.6-.22-3.1.18-4.6.02-.2.1-.4.14-.6.76-2.4 2.32-4.6 4.72-6.6-1.68-1.15-3.08-2.45-4.2-3.93-3.5 1.6-8.43 3.06-14.76 4.18v5.1c-.26 0-.5 0-.76.06-2.66.3-4.96.7-6.86 1.15.12-4.9-2.33-7.66-7.27-8.2l4.72-4.7c8.4.8 17.3-.3 26.3-3.37 3.43 3.36 8.06 6.4 13.96 9.1-1.26.35-1.86 1.05-1.8 2.15-1.9-.6-3.3-.6-4.3 0-2.17 1.27-3.86 3.27-5.16 6-.13.24-.23.4-.3.6-.55 1.3-1.05 2.78-1.43 4.4 0 .24-.12.38-.16.6-.2.96-.4 2-.54 3.1 0 .2 0 .4-.07.63 0 .4-.1.83-.14 1.25-.3-.47-.5-.9-.72-1.37zM110.14 81c-.38-1.4-.52-2.87-.4-4.4 0-.2 0-.4.02-.63.14-1.56.44-3.17 1-4.85.04-.2.14-.4.24-.64.38-1.12.9-2.24 1.5-3.42-.42-.14-.86-.2-1.2-.3.34-1.64.84-3.1 1.44-4.4 4.07.57 7.55.27 10.35-.9l2.3 4.34c-3.96 1.3-6.76 3.3-8.46 6.12-.16.18-.2.32-.3.54-.8 1.44-1.3 3.06-1.54 4.87-.02.2-.02.42-.02.62v.02c-.04.56-.1 1.06-.1 1.62 0 3 1.16 5.3 3.4 7.1-4.56.4-7.33-1.6-8.33-5.78zm24.9 10.16c-4.04.62-7.16.14-9.38-1.44-1.28-1.22-2.2-2.5-2.7-3.93-.85-2.5-1.8-4.3-2.87-5.4-1.1-1-2.5-2-4.3-2.9.2-1.8.7-3.45 1.42-4.87 3.72 1.46 8.15 2.2 13.33 2.36-.38.82 0 2 1.22 3.5-3.07.37-4.67 1.3-4.75 2.73-.7 4.6 1.45 6.53 6.35 5.8 2.14.1 3.24.7 3.26 1.8-.3 1.27-.8 2-1.67 2.25z" fill="#A92E5A"/><path d="M135 98.95c-.3-.44-.5-.88-.6-1.36-.05-.5-.15-1-.2-1.5l-1.03 1.2c-.36.5-.8 1-1.24 1.6h-21.87c.06 1.3-.04 2.6-.22 3.9-.7-1.73-1.7-3.03-3.08-3.95-.94-.6-2.04-1.1-3.24-1.38-.24-.07-.42-.1-.6-.13V98c.07.3.07.6.12.9.5 2.2 2.06 4.46 4.66 6.9l-1.38.8c-.56.83-.56 1.7 0 2.5-3.98-1.6-6.7-4.07-8.05-7.44-.4-.86-.58-1.78-.72-2.78-.04-.44-.06-.86-.12-1.3V97c-.22-.03-.42-.03-.62-.03-.8 0-1.7.04-2.7.06-.2 0-.4 0-.6.07-2.3.1-4.9.4-7.8.93-.2.04-.4.04-.6.06-1.4.2-2.87.5-4.3.8-.55.02-1.05.1-1.55.22-.1 4.6-.5 9.17-1.3 13.8-.02.2-.1.37-.1.57-.5 2.73-1.16 5.5-1.9 8.2-.04.2-.14.43-.16.65l-1.2 3.9c3 .27 5.26 2.2 7 5.8-.88 1.86-1.88 3.54-3.06 4.96l-.02-.1c-2.23-4.5-5.9-6.32-11-5.5l-2.92-3.54c1.74-1.56 3.18-4.2 4.24-8.03l.16-.65c.64-2.35 1.08-5.07 1.44-8.1 0-.3 0-.5.05-.7.33-3.4.55-7.3.57-11.58h-12.2c2.44 5.57 6.06 9.56 10.9 11.94-.37 3.1-.83 5.83-1.37 8.13-6.85-3.46-12.45-8.98-16.8-16.6-1.02-1.75-2.02-2.93-3.02-3.5h-7c9.5 29.76 27.82 53.86 54.83 72.24 26.9-18.37 45.2-42.47 54.8-72.22H135zm-49.4-.3c2.92-.46 5.5-.82 7.86-.9v16.7c-2.76.12-5.38.1-7.86-.1v-15.7zm-6.23 40.1c1.56-.38 3.12-.54 4.55-.58 1.32 2.86 3 5.42 5.04 7.6-4.18-1.17-7.35-3.48-9.6-7.02zm14.78 1.52c-3.07-1.84-6.35-2.78-9.85-2.78h-.63c-1.54 0-3.06.2-4.62.6-.22.02-.42.1-.62.2-.16 0-.24 0-.3.1.06-.1.14-.2.2-.2l.44-.5c1.16-1.4 2.18-3 3.12-4.8l.3-.8c1.1-2.48 1.9-5.3 2.5-8.4 2.66.1 5.4 0 8.3-.3-.12 2.3.24 4.36.97 6.16 1.96 4.9 7.96 9.3 17.9 13.2-7.03 1.16-12.98.3-17.8-2.54zm48.67-29.83c-3.05-.6-5.85-1.6-8.47-3-3.47 1.7-5.23 4.8-5.27 9.3-6.38-.3-12.33.4-17.84 2.1-6.24 2.03-12.07 3.33-17.46 3.93-.2.02-.4.02-.62.08-2.86.3-5.6.38-8.22.24-.2-.1-.43-.1-.64-.1-2.7-.2-5.35-.6-7.83-1.1.78-2.76 1.4-5.5 1.9-8.2 2.06.5 4.26.9 6.6 1.1.2.05.43.05.63.1 2.48.2 5.12.2 7.85.1.2 0 .42 0 .62-.1 4.74-.3 9.8-1.04 15.3-2.3 10.04-2.4 17.83-7 23.38-13.73.36-.44.68-.86 1-1.3.06.45.22.9.44 1.3 1.2 2.05 5 3.23 11.4 3.43-3.4 2.47-4.4 5.1-2.8 8.1z" fill="#556931"/></g></svg>