<svg xmlns="http://www.w3.org/2000/svg" width="305" height="350" viewBox="0 0 305 350"><path d="M154 7.37c-37.4 46.4-85.75 64.5-144.6 53.05C8 212.22 78.04 283.96 154 341.72c75.18-57 146.48-129.93 144.5-281.16C237.4 71.9 191.77 54.3 154 7.36" fill="#fff" fill-rule="evenodd"/><path d="M154 7.37c-37.4 46.4-85.75 64.5-144.6 53.05C8 212.22 78.04 283.96 154 341.72c75.18-57 146.48-129.93 144.5-281.16C237.4 71.9 191.77 54.3 154 7.36z" fill="none" stroke="#8e0927" stroke-width="2.59" stroke-miterlimit="2.61"/><path d="M266.32 177.65c-16.57 45.4-49.3 92.62-112.38 143.95-62.35-51.06-95.06-98.63-111.8-143.95h224.18" fill="#00613c" fill-rule="evenodd"/><path d="M25.64 79.07c76.7.8 98.74-14.67 128.3-47.5 31.92 31.86 53.08 48.5 128.35 47.5-.3 30.16-3.3 60.37-13.5 91.36H39.6c-10.5-31.37-13.62-61.68-13.96-91.36" fill="#870a28" fill-rule="evenodd"/><path d="M117.94 85.7c2.56.8 7.7-.94 10.48 4.47 1.4 2.7 3.86 5.67 4.7 11.4L149 99.1c-1.8-6.25-.57-6.4-2.14-11.3 9.82-.93 19.35-3.05 28.23-7.75 4.3 3.64 8.2 6.7 13.4 8.82-19.7 11.02-17.7 19.94-16.3 25.76l7.75 9.17c-.3-19.25 12.1-31.55 27.53-35.3-10.5-5.7-20.7-12.16-30.3-19.75-17.56 6.18-39.25 13.16-48.35 6.36L117.9 85.7" fill="#fff" fill-rule="evenodd"/><path d="M102.1 130.57c-.07.6 13.28-6.73 16.56-5.13l-1.23-7.58c15.58-6.98 31.48-9.94 53.06-6.35.1-3.4 0-5.9 1.5-9.3-7.18-1.3-14.35-1.5-21.7-2.1-5.1.5-12.65 1.3-18.16 3-5.5 1.78-11.5 4.1-16.58 4.6-5.1.5-7.53-1.1-12.17-2.3-3.8 4.4-6.05 6.38-11.8 11.5 4.65-1.07 11.67.56 10.63 11.3l-.24 2.5m83.82-26c15.2 5.63 15.56.3 22.1-.2l3.85 7.54c-20.02 5.95-29.4 29.8-14.7 43.44-14.33 2.7-22.83-15.14-11.4-36.9.66-1.23-.1-3.24.7-4.52l-4.22-1.1c.74-3.3 2.2-5.14 3.68-8.3" fill="#fff" fill-rule="evenodd"/><path d="M194.75 126.5c-1.66 2.57-3.13 6.06-3.32 9.93 7.82 2.7 12.26 7.07 15.28 17.47.1.3.3.62.4.93 4 10.17 23.5 10.43 26.9 7 .9-3.93-.3-6.38-3.83-7.37-4.1.04-3.62 4.14-7.36 3.13-4.6-1.7-7.13-3.7-8.24-7.5-1.67-5.8 1.6-12 10.43-14.1l-4.47-6c-8.72.4-17.5.4-25.74-3.5m-12-3.5l-2.04-.56-.37 1.84-1 .37-2.6-3.13c-8.7-1.04-17.43-1.1-26.14-.18l-.55 10.12c10.33-.8 20.33-.37 29.65 1.3.7-3.45 1.35-6.7 2.95-9.76" fill="#fff" fill-rule="evenodd"/><path d="M132.4 114.5l-.7 50.78 14.8-.7.72-8.1 10.93-.72 1.76 1.76c-7.7 21.4-3.2 34.32 13.4 38.8l.4-2.13c-11-7.8-12.7-27.4 1.8-37.8l-4.6-9.2c-8.55-2.3-16.8 3.9-23.6-.7l2.48-34.9c-5.4.46-11.17.2-17.3 2.8" fill="#fff" fill-rule="evenodd"/><path d="M113.73 210.4l-1.77 13.4c20.06 4.32 42 5.35 67.7-3.52 13.04-4.46 25.73-9.28 39.13-7.05-2.6-3.88 9.9-27.5 20.8-13.75l6 .36c-2.8-5.4-2.6-8.35 5.6-13.05-9.1-1.1-15.7-.4-21.9-5.3-27.46 25.6-69.5 38.5-115.66 28.9M169 166c-2.3 3.9-3.34 6.4-2.8 10.4 5.76.5 10.8 3.3 13.04 7.5l.16-18.7-10.4.72" fill="#fff" fill-rule="evenodd"/><path d="M132.1 177.15l-1.63 34.67c5.44.83 9.67 1 14.63.88l1.06-35.6-14.06.05m-1.98 50.35c6.2.8 11.5.47 16.22.7 1.28 21.07 9.24 29.57 26.86 35.2 3.54 1.13 7.88 2.3 10.46 3.95-42.08 3.94-41.97-23.15-60.77-2.46l-5.2-7.3c6.3-5.98 10.02-17.6 12.33-30.18m.3-103.14c-25.5 2.5-48.75 16.9-68.67 48.74-1.55 2.25-4.66 5.73-5.24 6.38 2.6.45 4.5 2.47 5.7 3.6 10.3 18.7 21.63 29.53 33.34 35.64 1.68-4.37 2-8.73 2.64-13.1-7.24-3.23-22.97-17.47-21.5-33 7.53-19.85 31.55-37.06 53.74-36.7v-11.5" fill="#fff" fill-rule="evenodd"/><path d="M102.92 146.54c4.47-3.9 9.3-6.67 14.9-7.2l.53 29.06c12.05-2.88 25.37-3.15 37.42-2.35l-1 9.42c-12.3.27-25.94.27-38.52 4.46-1.92 18.87-3.58 36.95-9.17 55.03 9.17 3.05 13.8 7.07 15.98 11.53l-4.2 7.8c-5.84-8.1-11.6-12.4-22.53-10.5l-5.24-4.7c11.5-22.1 10.2-65 11.8-92.6m21.2 118.3c1.2-.4 4.7 6.3 10.7 8 .3.23 4.2-.2 2.2-.96-1.96-.77-5.64-5.76-7.86-11.65 0 0-6.3 4.97-5.1 4.6" fill="#fff" fill-rule="evenodd"/></svg>