<svg xmlns="http://www.w3.org/2000/svg" width="212.99" height="212.99" viewBox="0 0 212.989 212.989"><path d="M106.5 0C165.15 0 213 47.84 213 106.5c0 58.65-47.85 106.5-106.5 106.5S0 165.14 0 106.5C0 47.84 47.84 0 106.5 0z"/><path d="M106.5 3.6c56.67 0 102.9 46.22 102.9 102.9 0 56.67-46.23 102.9-102.9 102.9-56.68 0-102.9-46.23-102.9-102.9C3.6 49.8 49.8 3.6 106.5 3.6z" fill="#FFF"/><path d="M184.58 51.23c11.1 15.63 17.64 34.7 17.64 55.27s-6.54 39.63-17.64 55.26c-17.8-17.62-46.2-29.07-78.1-29.07s-60.28 11.4-78.08 29c-11.1-15.67-17.62-34.7-17.62-55.3S17.3 66.8 28.4 51.2c17.8 17.66 46.2 29.1 78.1 29.1s60.28-11.45 78.08-29.07z"/><path d="M106.5 202.22c9.4 0 18.5-1.37 27.1-3.92-5.08-5.5-15.33-9.28-27.1-9.28-11.8 0-22.04 3.77-27.12 9.28 8.6 2.55 17.7 3.92 27.12 3.92zm33.02-5.9c16.37-6.04 30.66-16.45 41.44-29.8-9.24-9.36-21.76-16.92-36.32-21.8-4.16 18.05-11.15 32.73-19.76 41.48 6.35 2.35 11.5 5.9 14.64 10.13zm-71.17-51.6c-14.57 4.86-27.1 12.42-36.34 21.78 10.8 13.36 25.1 23.78 41.5 29.83 3.2-4.24 8.3-7.78 14.7-10.13-8.6-8.75-15.6-23.43-19.75-41.48zM106.5 10.77c9.4 0 18.5 1.37 27.1 3.92-5.08 5.5-15.33 9.2-27.1 9.2-11.8 0-22.04-3.8-27.12-9.3 8.6-2.56 17.7-3.93 27.12-3.93zm33.02 5.9c16.37 6.04 30.66 16.45 41.44 29.8-9.24 9.36-21.76 16.92-36.32 21.8-4.16-18.05-11.15-32.73-19.76-41.48 6.35-2.4 11.5-5.9 14.64-10.2zm-71.17 51.6C53.78 63.4 41.25 55.85 32 46.5c10.8-13.37 25.1-23.8 41.47-29.84 3.15 4.24 8.3 7.77 14.64 10.13-8.6 8.7-15.6 23.4-19.7 41.4z" fill="#2566AF"/><path d="M83.43 146.65h9.36v1.92h-7.2v4.47h5.3v1.93h-5.3v7.1h-2.2v-15.42zm13.83 8.23v5.32h2.83c1.2 0 2.1-.2 2.7-.63.5-.43.8-1.1.8-2.03 0-.86-.3-1.5-.9-1.97-.6-.46-1.5-.7-2.6-.7h-2.9zm0-6.4v4.6h2.9c1 0 1.77-.2 2.3-.6.53-.42.8-1 .8-1.77s-.28-1.3-.83-1.6c-.56-.35-1.43-.54-2.62-.54h-2.5zm-2.2-1.83h4.82c1.86 0 3.26.32 4.2.97.94.65 1.4 1.63 1.4 2.92 0 .83-.18 1.53-.58 2.1-.4.55-1 1-1.82 1.33.93.33 1.63.82 2.1 1.47.48.66.72 1.45.72 2.4 0 1.4-.5 2.46-1.46 3.17-.96.8-2.4 1.1-4.34 1.1h-5.03v-15.4zm16.08 1.86v5.1h2.44c1.24 0 2.13-.2 2.64-.6.52-.4.78-1 .78-2 0-.8-.26-1.5-.8-1.9-.53-.4-1.43-.6-2.7-.6h-2.36zm-2.2-1.8h4.93c1.82 0 3.17.4 4.06 1.1.88.7 1.33 1.8 1.33 3.3 0 1.46-.43 2.56-1.3 3.3-.86.8-2.1 1.17-3.7 1.17h-3.1v6.6h-2.23V146.7zm16.2 1.88l-2.2 7.54h4.45l-2.1-7.54h-.2zm-1.42-1.84h3.05l4.7 15.4h-2.27l-1.22-4.14h-5.56l-1.18 4.17H119l4.72-15.42zM87.46 50.6h1.48v14.07h2.5v1.74h-7.1v-1.7h2.53V52.9l-2.8.24v-1.4c.57-.12 1.15-.27 1.73-.47.6-.2 1.14-.42 1.66-.68zM96 65.63l.9-1.68c.43.27.87.48 1.34.65.24.08.47.13.7.16.22.04.46.06.72.06 1.24 0 2.25-.52 3-1.54.4-.53.7-1.14.9-1.84.2-.7.32-1.48.32-2.34-.56.54-1.14.95-1.76 1.22-.62.27-1.3.4-1.98.4-1.38 0-2.52-.46-3.42-1.4-.9-.93-1.35-2.13-1.35-3.6 0-1.5.48-2.75 1.44-3.7 1-.94 2.3-1.4 3.8-1.4 1.8 0 3.2.6 4.1 1.85 1 1.23 1.4 3.03 1.4 5.38 0 2.7-.5 4.85-1.7 6.44-1.12 1.5-2.7 2.3-4.7 2.3-.7 0-1.4-.1-2-.3-.6-.17-1.15-.43-1.62-.77zm7.92-9.15c0-.64-.08-1.2-.25-1.67-.16-.5-.4-.9-.73-1.3-.6-.7-1.4-1.1-2.37-1.1-.88 0-1.6.3-2.2 1-.57.6-.86 1.4-.86 2.38 0 1 .3 1.8.9 2.4.6.6 1.3.9 2.2.9.7 0 1.4-.23 2-.67.6-.44 1.1-1.05 1.4-1.83zm9.9-4.08c-1.08 0-1.9.53-2.5 1.58-.56 1.05-.85 2.6-.85 4.62 0 2.03.28 3.58.85 4.62.57 1.05 1.4 1.57 2.5 1.57s1.94-.5 2.5-1.6c.56-1.08.85-2.6.85-4.67s-.28-3.6-.84-4.65c-.57-1.03-1.4-1.55-2.5-1.55zm0-1.83c1.8 0 3.17.67 4.1 2.04.93 1.4 1.4 3.4 1.4 6s-.47 4.7-1.4 6c-.92 1.4-2.3 2.1-4.1 2.1-1.78 0-3.15-.7-4.1-2.03-.94-1.37-1.4-3.37-1.4-6s.46-4.62 1.4-6c.93-1.35 2.3-2.03 4.1-2.03zm15.03 7.4c.94.3 1.65.8 2.12 1.5.23.33.4.7.52 1.13.1.42.1.9.1 1.4 0 1.4-.5 2.53-1.4 3.38-.97.85-2.2 1.27-3.8 1.27-1.26 0-2.35-.25-3.27-.75-.9-.5-1.7-1.28-2.3-2.33l1.74-1.15c.46.77 1 1.36 1.63 1.76.63.42 1.3.62 2.08.62.98 0 1.74-.26 2.3-.76.56-.5.84-1.2.84-2.1 0-1-.38-1.74-1.12-2.2-.73-.5-1.9-.73-3.44-.73h-.65v-1.8l.4.07h.38c1.35 0 2.36-.22 3.02-.65.66-.44 1-1.1 1-1.96 0-.7-.25-1.25-.73-1.64-.45-.4-1.12-.6-2-.6-.6 0-1.15.14-1.7.46-.52.3-1 .78-1.45 1.4l-1.52-1.2c.6-.8 1.3-1.4 2.15-1.83.84-.42 1.77-.63 2.8-.63 1.42 0 2.54.36 3.36 1.06.87.7 1.3 1.7 1.3 2.9 0 .8-.2 1.48-.6 2.08-.4.6-.96 1.05-1.7 1.4z" stroke="#000" stroke-width=".48" stroke-miterlimit="1"/><path d="M168.56 111.3c0 3.9.9 6.88 2.7 8.9 1.83 2.02 4.12 3.03 6.9 3.03 2.78 0 5.06-1 6.85-3 1.8-2 2.7-5.02 2.7-9.02 0-3.9-.8-6.9-2.6-8.8-1.7-1.9-4-2.9-6.9-2.9-2.9 0-5.2 1-6.9 2.97-1.75 1.97-2.63 4.95-2.63 8.9zm-7.18.24c0-3.52.52-6.48 1.57-8.87.8-1.76 1.86-3.33 3.22-4.73 1.36-1.4 2.85-2.44 4.47-3.12 2.16-.9 4.64-1.36 7.45-1.36 5 0 9.1 1.57 12.2 4.74 3 3.15 4.6 7.55 4.6 13.18 0 5.57-1.6 9.94-4.6 13.1-3.06 3.14-7.1 4.72-12.2 4.72-5.14 0-9.2-1.57-12.25-4.7-3.04-3.14-4.55-7.47-4.55-12.96zm-9.26 17.06V94.04h6.97v34.56h-7zm-37.16 0V94.04h10.45l6.3 23.58 6.2-23.58h10.5v34.56h-6.5v-27.2l-6.8 27.2h-6.72l-6.82-27.2v27.2H115zm-29.15 0V94.04h25.7v5.85H92.8v7.6h17.34v5.8H92.8v9.4h19.3v5.8H85.8zm-24.9-19.94h5.2c3.4 0 5.5-.14 6.3-.42.86-.3 1.5-.77 1.98-1.46.47-.7.7-1.56.7-2.6 0-1.16-.3-2.1-.92-2.82-.6-.7-1.5-1.16-2.62-1.35-.55 0-2.26-.1-5.1-.1h-5.5v8.8zM54 128.6V94.04h14.7c3.68 0 6.36.32 8.04.94 1.68.62 3 1.73 4 3.3 1 1.6 1.5 3.4 1.5 5.45 0 2.6-.75 4.74-2.3 6.43-1.5 1.7-3.8 2.75-6.8 3.2 1.5.87 2.75 1.84 3.73 2.9 1 1.05 2.3 2.9 4 5.6l4.2 6.74H76.7l-5.05-7.52c-1.8-2.68-3-4.38-3.68-5.08-.66-.7-1.35-1.17-2.1-1.43-.73-.26-1.9-.4-3.5-.4H60.9v14.43h-6.98zm-18.6-12.7v-5.82h15v13.76c-1.45 1.4-3.57 2.66-6.34 3.74-2.77 1.07-5.6 1.62-8.43 1.62-3.6 0-6.76-.77-9.45-2.28-2.7-1.52-4.7-3.7-6.06-6.5-1.35-2.83-2.02-5.9-2.02-9.2 0-3.6.75-6.8 2.26-9.6 1.5-2.8 3.72-4.94 6.62-6.43 2.22-1.2 4.98-1.8 8.28-1.8 4.3 0 7.64.9 10.05 2.7 2.5 1.8 4 4.3 4.7 7.44l-6.9 1.3c-.5-1.7-1.4-3.03-2.72-4-1.34-1-3.02-1.48-5.03-1.48-3.05 0-5.5.95-7.3 2.9-1.8 1.92-2.7 4.8-2.7 8.6 0 4.1.9 7.17 2.75 9.22 1.8 2.04 4.2 3.06 7.16 3.06 1.46 0 2.9-.3 4.4-.86 1.46-.6 2.72-1.27 3.77-2.1v-4.37h-8zm55.5-25.58h5.64l2.45-3.3 2.4 3.3H107l-4.64-6.53h-6.9l-4.63 6.5z" fill="#FFF"/></svg>