<svg xmlns="http://www.w3.org/2000/svg" width="1200" height="1200" version="1"><path d="M1104.2 579.9a492.02 492.02 0 1 1-984.06 0 492.02 492.02 0 1 1 984.05 0z" fill="#FFF" stroke="#E5050F" stroke-width="14.08"/><path d="M1007.1 579.3a392.4 392.4 0 1 1-784.84 0 392.4 392.4 0 1 1 784.83 0z" fill="#FFF" stroke="#E5050F" stroke-width="11.23"/><path d="M990.97 579.14a376.62 376.62 0 1 1-753.25 0 376.62 376.62 0 1 1 753.25 0z" fill="#E5050F"/><g fill="#FFF" fill-rule="evenodd"><path d="M766.5 483.38c2.24-17.33 9.5-32.98 18.1-48.2l24.9 11.26 22.47-30.53 22.5 6.9c.33 40.17-.76 81.5 14.05 109.27l-11.24 14.05c-25.48-24.07-52.6-47.03-90.77-62.65z"/><path d="M724.65 525c-49.75-.2-13.7-58.46-6.42-80.7 6.53-20-3.35-60.3-41.5-74.6v-51.16c75.12 21.77 83.5 71.84 126.73 48.85v25.3c-67.42 69.1-37.9 131.8-78.8 132.2z"/><path d="M524.2 413.47c73.8-18.67 129.18-12.8 181.1-2.3 7.46 21.78.98 36.58-6 51.15-50.77-8.3-105.07-10.43-170.5 6.9-11.05-16.67-11.98-35.38-4.6-55.75z"/><path d="M567.9 369.6c-88.53 15.06-68.63 119.88 0 148.18v91.47c-194.46-56.13-159.32-267.64 0-289.03v49.4zm95.74 328.67c-26.35 3.57-53.74 2.92-81.7 0V469.6c27.22-2.76 54.46-3.7 81.7 0v228.67z"/><path d="M295.34 584.25c47.37-22.92 57.84-73.2 126.83-123.8 1.98 23.47 4.66 46.37 14.64 63.43-29.2 42.25-27.2 82.35 16.5 131.1-10.2 23.33-22.5 40.05-36 53.66-61.5-36.62-75.7-84.22-121.9-124.4zm220.2 168.87c17.55-19.38 22.42-33.7 29.9-49.04 46.6 9.8 100.83 13.8 182.23-2.8 8.5 17.06 5.26 33.04 2.4 49.05-48.24 17.33-138.1 21.4-214.53 2.8z"/><path d="M381.17 745.55l5.98 25.9 35.9 2.4c41.37 29.3 85.63 56.83 145.93 74.57v-50.64c-32.66-5.56-53.7-22-69.38-43.46 46.45-49.97 55.86-112.7 26.47-125.46-39.1-16.98-56.55 23-78.88 59.1-14.6 23.52-35.6 46.97-66.1 57.6zM663.9 317.2c.18-38.73 29.87-34.04 43.88-20.1-1.96-48.55-41.37-54.33-60.25-36.8-5.6-9.2-12.84-16.22-24.36-21.96-10.33 4.86-18.57 12.07-24.93 21.4-17.83-16.3-58.45-12.27-60.25 36.63 15-12.97 43.3-17.55 43.3 21l.2 74.14c26.5-1.9 53.9-2.1 82.4-.2l-.1-74.1z"/><path d="M663.98 850.18c.18 38.72 29.87 34.03 43.9 20.08-1.98 48.56-41.38 54.34-60.27 36.82-5.6 9.2-12.8 16.2-24.3 21.95-10.3-4.86-18.52-12.06-24.9-21.4-17.8 16.3-58.44 12.27-60.24-36.62 15.03 13 43.33 17.6 43.33-21l.2-74.1c26.53 2 53.95 2.2 82.47.2l-.1 74.1z"/><path d="M675.96 554.58v87.6c100.2 33.33 84.33 158.12 1.28 155.14v50.42c107.4-10.64 149-77.25 149.65-142.18.7-74.4-58.1-127.06-151-150.98zm161.97 147.86c.13-11.43 1.15-21.6-6.4-44l23.06-15.4 26 21.37c-10.2 15.4-25.78 27.2-42.76 38.1z"/></g><text transform="rotate(-82.7)" y="267.48" x="-559.88" style="text-align:start;line-height:100%" font-size="75.01" font-weight="900" fill="#E5050F" font-family="Arial Black"><tspan y="267.48" x="-559.88">S</tspan></text><text transform="rotate(-84.75)" y="249.15" x="-509.29" style="text-align:start;line-height:100%" font-size="75.01" font-weight="900" fill="#E5050F" font-family="Arial Black"><tspan y="249.15" x="-509.29">.</tspan></text><text transform="rotate(-73.38)" y="339.01" x="-391.17" style="text-align:start;line-height:100%" font-size="75.01" font-weight="900" fill="#E5050F" font-family="Arial Black"><tspan y="339.01" x="-391.17">C</tspan></text><text transform="rotate(-68.67)" y="367.89" x="-300.22" style="text-align:start;line-height:100%" font-size="75.01" font-weight="900" fill="#E5050F" font-family="Arial Black"><tspan y="367.89" x="-300.22">.</tspan></text><text transform="rotate(-55.92)" y="416.28" x="-159.06" style="text-align:start;line-height:100%" font-size="75.01" font-weight="900" fill="#E5050F" font-family="Arial Black"><tspan y="416.28" x="-159.06">I</tspan></text><text transform="rotate(-47.18)" y="427.32" x="-32.48" style="text-align:start;line-height:100%" font-size="75.01" font-weight="900" fill="#E5050F" font-family="Arial Black"><tspan y="427.32" x="-32.48">N</tspan></text><text transform="rotate(-32.64)" y="402.58" x="170.22" style="text-align:start;line-height:100%" font-size="75.01" font-weight="900" fill="#E5050F" font-family="Arial Black"><tspan y="402.58" x="170.22">T</tspan></text><text transform="rotate(-22.82)" y="357.53" x="319.98" style="text-align:start;line-height:100%" font-size="75.01" font-weight="900" fill="#E5050F" font-family="Arial Black"><tspan y="357.53" x="319.98">E</tspan></text><text transform="rotate(-10.73)" y="267.39" x="469.76" style="text-align:start;line-height:100%" font-size="75.01" font-weight="900" fill="#E5050F" font-family="Arial Black"><tspan y="267.39" x="469.76">R</tspan></text><text transform="rotate(.16)" y="162.49" x="603.77" style="text-align:start;line-height:100%" font-size="75.01" font-weight="900" fill="#E5050F" font-family="Arial Black"><tspan y="162.49" x="603.77">N</tspan></text><text transform="rotate(14.22)" y="-6.22" x="723.28" style="text-align:start;line-height:100%" font-size="75.01" font-weight="900" fill="#E5050F" font-family="Arial Black"><tspan y="-6.22" x="723.28">A</tspan></text><text transform="rotate(32.97)" y="-262.31" x="769.31" style="text-align:start;line-height:100%" font-size="75.01" font-weight="900" fill="#E5050F" font-family="Arial Black"><tspan y="-262.31" x="769.31">C</tspan></text><text transform="rotate(38.1)" y="-339.77" x="833.43" style="text-align:start;line-height:100%" font-size="75.01" font-weight="900" fill="#E5050F" font-family="Arial Black"><tspan y="-339.77" x="833.43">I</tspan></text><text transform="rotate(46.65)" y="-465.29" x="832.87" style="text-align:start;line-height:100%" font-size="75.01" font-weight="900" fill="#E5050F" font-family="Arial Black"><tspan y="-465.29" x="832.87">O</tspan></text><text transform="rotate(61.48)" y="-679.07" x="782.41" style="text-align:start;line-height:100%" font-size="75.01" font-weight="900" fill="#E5050F" font-family="Arial Black"><tspan y="-679.07" x="782.41">N</tspan></text><text transform="rotate(76.2)" y="-875.74" x="682.01" style="text-align:start;line-height:100%" font-size="75.01" font-weight="900" fill="#E5050F" font-family="Arial Black"><tspan y="-875.74" x="682.01">A</tspan></text><text transform="rotate(87.45)" y="-1005.52" x="585.75" style="text-align:start;line-height:100%" font-size="75.01" font-weight="900" fill="#E5050F" font-family="Arial Black"><tspan y="-1005.52" x="585.75">L</tspan></text><text transform="rotate(14.58)" y="876.96" x="702.39" style="text-align:start;line-height:100%" font-size="75.01" font-weight="900" fill="#E5050F" font-family="Arial Black"><tspan y="876.96" x="702.39">1</tspan></text><text transform="rotate(8)" y="959.21" x="683.87" style="text-align:start;line-height:100%" font-size="75.01" font-weight="900" fill="#E5050F" font-family="Arial Black"><tspan y="959.21" x="683.87">9</tspan></text><text transform="rotate(-7.72)" y="1127.43" x="487.27" style="text-align:start;line-height:100%" font-size="75.01" font-weight="900" fill="#E5050F" font-family="Arial Black"><tspan y="1127.43" x="487.27">0</tspan></text><text transform="rotate(-10.32)" y="1148.28" x="521.59" style="text-align:start;line-height:100%" font-size="75.01" font-weight="900" fill="#E5050F" font-family="Arial Black"><tspan y="1148.28" x="521.59">9</tspan></text></svg>