<svg xmlns="http://www.w3.org/2000/svg" width="192.76" height="192.76" viewBox="0 0 192.756 192.756"><path fill-rule="evenodd" clip-rule="evenodd" fill="#FFF" d="M0 0h192.76v192.76H0V0"/><path d="M55.22 26.2H28.84c-3.56.04-10.26 2.45-10.26 11.3v.04c0 .63.18 6.34 4.36 9.46v59.57c0 .3.2 6.17 4.2 10.17l-.1-.1 61.56 69.5c.14.17 3.4 3.78 7.78 3.78 4.37 0 7.64-3.6 7.77-3.76l61.56-69.5v.08c4-4 4.2-9.88 4.2-10.13V47c4.2-3.1 4.37-8.8 4.37-9.4v-.06c0-8.8-6.7-11.23-10.23-11.27h-26.4C128.9 11.8 113.27 2.87 96.4 2.87c-16.85 0-32.47 8.93-41.15 23.34zm36.45 157.2l-61.6-69.54-.04-.04c-2.8-2.82-2.98-7.3-3-7.33V44.7l-1.06-.6c-3.28-1.75-3.3-6.57-3.3-6.62 0-6.7 5.17-7.17 6.2-7.2H57.5l.6-1.04c7.8-13.76 22.5-22.3 38.3-22.3s30.45 8.54 38.27 22.3l.58 1.04h28.68c1 .03 6.15.5 6.15 7.2 0 .15-.03 4.9-3.28 6.65l-1.1.6v61.83s-.16 4.45-2.98 7.27l-.04.04-61.6 69.52s-2.2 2.4-4.7 2.4c-2.52 0-4.7-2.4-4.7-2.4h-.02z" fill-rule="evenodd" clip-rule="evenodd"/><path d="M163.92 28.25h-27.48l-.22-.37c-.37-.63-.74-1.24-1.14-1.85-.1-.17-.2-.34-.32-.5-.5-.78-1.04-1.54-1.6-2.27l-.08-.12c-.52-.68-1.07-1.35-1.62-2l-.42-.5c-.5-.57-1.03-1.14-1.57-1.7l-.3-.32c-.66-.66-1.33-1.3-2.03-1.93-.06-.1-.13-.2-.2-.2-.6-.6-1.24-1.1-1.9-1.6l-.48-.4c-.64-.5-1.28-1-1.94-1.48l-.3-.2c-.75-.53-1.54-1.03-2.34-1.5-.12-.1-.25-.15-.37-.2-.6-.4-1.3-.8-2-1.15l-.6-.3c-.7-.38-1.5-.73-2.2-1.06l-.25-.12c-.85-.37-1.72-.7-2.6-1l-.6-.2c-.7-.25-1.4-.47-2.1-.67l-.72-.2-2.5-.6-.2-.04c-.9-.2-1.84-.34-2.77-.48l-.78-.1c-.7-.08-1.4-.15-2.13-.2-.3-.03-.6-.06-.85-.07-.96-.06-1.9-.1-2.88-.1-1 0-1.94.04-2.9.1l-.8.07c-.7.1-1.45.16-2.15.25l-.77.1c-.94.13-1.86.28-2.77.47l-.23.06c-.84.13-1.66.33-2.5.6l-.72.2c-.7.2-1.4.4-2.1.63l-.58.2c-.88.3-1.75.65-2.6 1l-.3.2c-.76.3-1.5.65-2.23 1.02l-.6.3c-.7.37-1.38.74-2.05 1.13l-.36.23c-.8.44-1.6.94-2.35 1.5l-.3.2c-.6.43-1.3.9-1.9 1.4l-.5.4c-.62.5-1.3 1.02-1.9 1.6l-.2.14c-.7.6-1.33 1.26-2 1.92l-.3.33c-.53.55-1.05 1.12-1.56 1.7l-.4.5c-.55.64-1.1 1.3-1.6 2l-.1.1c-.56.75-1.1 1.5-1.6 2.27-.1.17-.22.34-.33.5-.4.62-.77 1.24-1.13 1.86l-.22.37h-27.5s-8.2.1-8.2 9.27c0 0-.1 6.06 4.36 8.45v60.62s.1 5.25 3.58 8.7l61.56 69.5s2.75 3.07 6.26 3.07c3.5 0 6.23-3.08 6.23-3.08l61.54-69.5c3.46-3.48 3.6-8.74 3.6-8.74V46c4.43-2.4 4.35-8.47 4.35-8.47 0-9.2-8.2-9.28-8.2-9.28zM66.54 148.2L35.94 114c-3.77-3.76-4.1-11.45-4.1-11.45V48.52c0-9.75-5.3-13.68-5.3-13.68h26.7c-1.86 5-2.9 10.4-2.9 16.07 0 14.1 6.3 26.6 16.2 35.1v62.3zm94.38-99.68v54.03s-.34 7.7-4.1 11.45l-30.6 34.2V85.94c9.9-8.44 16.18-21 16.18-35.03 0-5.6-1.02-11-2.9-16h26.72s-5.3 3.96-5.3 13.7z" fill-rule="evenodd" clip-rule="evenodd" fill="#FFF"/><path d="M119.6 11.2l.38.2-.37-.2zM86.8 5.9l.22-.06-.23.05zm30.16 3.85l.6.3-.6-.3zm5.37 3.15l.28.2-.2-.2zm2.23 1.64l.5.38-.5-.38zM80.9 7.57l.58-.2-.6.2zm2.67-.87l.74-.2-.7.2zm9.12-1.65c.2-.02.5-.05.8-.06h-.9zm15.7 1.45l.7.2-.74-.2zM99.2 5c.3 0 .58.03.85.05-.27-.02-.54-.05-.82-.06zm2.98.27l.77.1-.76-.1zm9.08 2.1l.58.2-.58-.2zm-21.5-2l.77-.1-.77.1zm24.68 3.2l.27.13-.24-.12zM78 8.7l.28-.12-.27.12zM63.3 18.95l.3-.33-.3.33zm-1.98 2.18l.42-.48-.42.48zm4.3-4.43c.08-.07.15-.13.2-.2-.05.07-.12.13-.2.2zm-6 6.56l.08-.13c-.03.05-.06.1-.1.13zm67.35-6.74l.2.17-.2-.2zm7.8 9l.33.5-.32-.5zm-77.08.5l.3-.5-.32.5zm48.04-20.18l.23.05-.23-.1zm23.43 12.78l.3.32-.3-.32zm-56.4-7.22l.37-.22-.38.22zm2.42-1.34l.6-.3-.6.3zm57.87 13.08c.02.04.06.08.1.12-.04-.04-.08-.08-.1-.12zm-2.04-2.5c.14.17.28.33.4.5-.12-.17-.26-.33-.4-.5zm-63.34-5.7l.5-.4-.5.4zm2.42-1.83l.3-.2-.3.2z" fill-rule="evenodd" clip-rule="evenodd" fill="#FFF"/><path d="M50.35 50.9c0-5.64 1.03-11.06 2.9-16.06H26.52s5.3 3.93 5.3 13.68v54.03s.34 7.7 4.1 11.46l30.6 34.2V86c-9.9-8.44-16.18-21-16.18-35.03z" fill-rule="evenodd" clip-rule="evenodd"/><path d="M126.22 85.94v62.26l30.6-34.2c3.76-3.76 4.1-11.45 4.1-11.45V48.52c0-9.75 5.3-13.68 5.3-13.68h-26.7c1.86 5 2.88 10.4 2.88 16.07 0 14.1-6.28 26.6-16.2 35.1h.02z" fill-rule="evenodd" clip-rule="evenodd" fill="#CD3529"/><path d="M131.46 21.13c.55.66 1.1 1.33 1.62 2-.52-.67-1.07-1.34-1.63-2zm-63.26-6.6c.63-.5 1.28-.96 1.93-1.42l-1.93 1.5zm2.22-1.63c.77-.52 1.56-1.02 2.35-1.5-.8.48-1.58.98-2.34 1.5zm2.73-1.72c.67-.4 1.35-.76 2.04-1.12-.7.36-1.4.73-2.1 1.12zm60.02 12.08c.55.73 1.08 1.5 1.6 2.26-.52-.77-1.05-1.53-1.6-2.26zm-6.03-6.56c.7.6 1.37 1.26 2.02 1.92-.65-.66-1.32-1.3-2.02-1.93zm2.33 2.24c.54.56 1.06 1.13 1.57 1.7-.5-.57-1.03-1.14-1.57-1.7zm-69.78 4.2c.5-.7 1-1.35 1.6-2-.6.65-1.1 1.3-1.6 2h-.1zm6.1-6.64l1.9-1.58c-.7.52-1.3 1.05-1.9 1.6zm10-6.75c.7-.37 1.4-.72 2.2-1.05-.8.33-1.5.68-2.28 1.05zM56.5 27.88c.36-.63.74-1.24 1.13-1.85-.4.6-.77 1.22-1.13 1.85zm1.5-2.36c.5-.77 1.03-1.53 1.6-2.26-.56.73-1.1 1.5-1.6 2.26zm77.08.5c.4.6.77 1.23 1.14 1.86-.37-.63-.74-1.25-1.14-1.86zm-73.36-5.37c.5-.58 1.03-1.15 1.56-1.7-.53.55-1.05 1.12-1.56 1.7zm1.88-2.03c.65-.66 1.32-1.3 2-1.93-.68.6-1.35 1.2-2 1.9zM93.5 5c.96-.07 1.9-.1 2.88-.1-.97 0-1.92.03-2.87.08zm18.36 2.57c.88.3 1.75.64 2.6 1-.85-.36-1.72-.7-2.6-1zm-8.9-2.2c.94.13 1.86.3 2.78.47-.92-.2-1.84-.34-2.77-.48zm-12.4-.1c.7-.1 1.4-.16 2.12-.22-.7.06-1.42.13-2.13.22zm5.82-.37c.96 0 1.92.03 2.87.08-.95-.05-1.9-.1-2.87-.1zm18.35 3.8c.75.33 1.5.68 2.23 1.05-.73-.37-1.48-.72-2.23-1.05zm-14.66-3.65c.72.06 1.43.13 2.14.22-.7-.1-1.4-.16-2.1-.22zm9.1 1.65c.7.2 1.4.43 2.1.67-.7-.24-1.4-.46-2.1-.66zm15.88 8.22c.65.52 1.28 1.05 1.9 1.6-.62-.55-1.26-1.08-1.9-1.6zm-2.44-1.82c.7.47 1.4.94 2 1.44-.6-.5-1.3-.97-1.9-1.43zm-2.6-1.7c.8.48 1.6.98 2.4 1.5-.75-.52-1.53-1.02-2.33-1.5zM87.1 5.84c.9-.2 1.84-.34 2.77-.48-.96.14-1.9.3-2.8.48zM81.5 7.37c.7-.24 1.4-.46 2.1-.66-.7.2-1.4.5-2.1.7zm-3.2 1.2c.86-.36 1.73-.7 2.6-1-.87.3-1.74.64-2.6 1zm27.67-2.67c.84.17 1.67.37 2.5.6-.83-.22-1.66-.43-2.5-.6zm11.6 4.16c.7.36 1.37.73 2.05 1.12-.63-.4-1.32-.76-2-1.12zM84.3 6.5c.83-.22 1.65-.43 2.5-.6-.84.17-1.67.38-2.5.6z" fill-rule="evenodd" clip-rule="evenodd" fill="#FFF"/><path d="M128.6 50.9c0 17.8-14.43 32.23-32.22 32.23-17.8 0-32.22-14.43-32.22-32.22 0-17.7 14.42-32.2 32.22-32.2 17.8 0 32.2 14.5 32.2 32.2" fill="none" stroke="#000" stroke-width="2.05" stroke-miterlimit="2.61"/><path fill-rule="evenodd" clip-rule="evenodd" fill="#CD3529" d="M67.05 19.24l1.1 3.35h3.5l-2.85 2 1.1 3.4-2.85-2.1L64.2 28l1.1-3.34-2.86-2.07h3.53l1.08-3.4M85 7.9l1.1 3.35h3.52l-2.85 2.07 1.1 3.35L85 14.64l-2.84 2.07 1.1-3.34-2.86-2.07h3.52l1.1-3.36M57.82 38.2l1.1 3.36h3.5l-2.84 2.07 1.1 3.34-2.86-2.06-2.85 2.07 1.1-3.34-2.86-2.07h3.6l1.1-3.35m1 20.53l1.1 3.34h3.5l-2.8 2.07 1.1 3.35-2.85-2.08L56 67.5l1.1-3.35-2.86-2.07h3.52l1.1-3.34m10.76 16.4l1.1 3.36h3.5l-2.84 2.07 1.1 3.35-2.86-2.07-2.85 2.07 1.1-3.35L65 78.5h3.53l1.1-3.35m56.07-55.9l-1.1 3.34h-3.5l2.84 2-1.1 3.3 2.86-2.06 2.85 2.06-1.1-3.34 2.86-2.07h-3.5l-1.1-3.37m-17.9-11.2l-1.1 3.34h-3.5l2.85 2.06-1.1 3.35 2.85-2.1 2.8 2.06-1.1-3.35 2.85-2.07h-3.52l-1.1-3.37m27.2 30.27l-1.1 3.36h-3.5l2.84 2.07-1.1 3.35 2.84-2.06 2.87 2.1-1.1-3.35 2.83-2.06H136l-1.07-3.36m-1.03 20.5l-1.08 3.34h-3.52l2.85 2.06-1.1 3.35 2.86-2.06 2.9 2.07-1.1-3.35 2.9-2.08H135l-1.1-3.35m-10.76 16.4l-1.1 3.37h-3.5l2.84 2.05-1.1 3.34 2.86-2.05 2.84 2.06-1.08-3.35 2.85-2.1h-3.53l-1.08-3.34"/><path d="M83.04 159.35h.24c1.66 0 2.1-.86 2.14-1.5h1.42v8.73h-1.72v-6.02h-2.08v-1.2zm8 1.38c0-1.25.8-1.47 1.23-1.47.9 0 1.32.6 1.32 1.6 0 1.04-.7 1.47-1.3 1.47-.7 0-1.3-.28-1.3-1.6zm-1.57 3.83c.15 1.4 1.22 2.26 2.7 2.26 1.6 0 3.2-1.1 3.2-4.48 0-1.24-.06-4.5-3.1-4.5-1.7 0-2.97 1-2.97 3.14 0 1.47.97 2.73 2.65 2.73.6 0 1.27-.1 1.66-.7h.1c0 1.9-.7 2.5-1.42 2.5-.53 0-.9-.23-1-.83v-.02H89.5zm12.7-5.24c-.83.9-2.97 3.5-3.2 7.26h-1.75c.18-3.5 2.38-6.28 3.1-7.06H96l.03-1.53h6.15v1.3zm4.93 4.46c0 1.18-.57 1.66-1.2 1.66-.83 0-1.37-.68-1.37-1.63 0-1 .67-1.5 1.32-1.5.54 0 1.25.4 1.25 1.5zm1.55-3.72c-.16-.93-.33-1.2-.8-1.65-.44-.4-1.44-.5-1.8-.5-3.02 0-3.24 2.9-3.24 4.6 0 2.2.6 4.4 3.2 4.4 1.7 0 2.9-1.3 2.9-3.2 0-1.3-.84-2.7-2.65-2.7-1 0-1.4.4-1.64.75l-.03-.02c.07-1.13.3-2.4 1.44-2.4.64 0 .96.34 1 .83h1.7z" fill-rule="evenodd" clip-rule="evenodd"/><path d="M116.04 43.3c-.33.78-.58 1.16-1.3 1.87-1.04.83-2.1 1.42-3.2 1.77-1.1.36-2.2.46-3.25.3-1-.12-1.7-.4-2.4-.84-.67-.44-1.18-1.05-1.58-1.84L119 37.8c-.8-2.08-1.92-3.77-3.4-5.05-1.45-1.3-3.12-2.07-4.97-2.33-2.9-.4-5.5.26-7.8 2-2.3 1.75-3.65 4.1-4.07 7.1-.45 3.07.17 5.8 1.85 8.2 1.7 2.4 4 3.8 6.8 4.2 1.5.2 3 .12 4.5-.27 1.5-.4 2.8-1.06 4-2 0 0 2.3-1.6 3.5-4.48L116 43.3zm-12.57-3.12c0-.25.03-.5.06-.73.22-1.56.95-2.8 2.2-3.73 1.23-.93 2.64-1.28 4.22-1.06.6.1 1.18.26 1.7.53.53.2 1 .6 1.45 1l-9.63 4.7v-.8zm13.17 14.92l-2.24 4.2c-.97-.6-1.82-1-2.53-1.24-.7-.24-1.45-.35-2.22-.35-1.6 0-2.95.6-4 1.7-1.07 1.2-1.6 2.6-1.6 4.3 0 1.8.53 3.2 1.58 4.3 1.05 1.1 2.4 1.7 4.03 1.7.76 0 1.57-.2 2.42-.52.85-.37 1.77-.9 2.76-1.64l1.9 4.67c-1.13.76-2.3 1.35-3.56 1.76s-2.42.63-3.53.63c-3.08 0-5.66-1.03-7.74-3.1-2-2.1-3.1-4.65-3.1-7.7s1.1-5.6 3.1-7.7c2.1-2.1 4.7-3.16 7.8-3.16 1.08 0 2.2.2 3.3.58 1.2.4 2.4.96 3.7 1.7z" fill-rule="evenodd" clip-rule="evenodd" fill="#CD3529"/><path d="M96.8 32.96h-7.05v26.67c0 5.5-5.08 5.64-5.08 5.64-6.4 0-5.82-5.64-5.82-5.64V54.5H71.8v7.05s.83 10.75 12.7 10.75c0 0 12.3-.1 12.3-10.75v-28.6zm.34-4.76c0 2.25-1.8 4.07-4.05 4.07S89 30.45 89 28.2c0-2.22 1.82-4.03 4.06-4.03 2.23 0 4.04 1.8 4.04 4.05z" fill-rule="evenodd" clip-rule="evenodd"/><path d="M85.86 126.5s11.63-4.63 18.98-2.58c0 0-7.35 6.33-20 4.8m2.22 2.38s1.54-1.7 4.8-1.7c0 0 6.1.12 6.1 1.92 0 0-.15.73-1.67 1.4-.6.25-1.1.5-2.2 1.45-.8.6-4.1 5.87-6.7 5.87m0 0h-.8v-.9m0 0s.23-4.25 7.15-7.2m0 0l-4.1.02m0 0s1.7.25 2.45.77m3.55-8.92s3.12-1.9 3.63-5.3c0 0-11.98 2.4-20.87 13.2 0 0-.92 1.25-.92 2.27 0 0-.1 3.5 4.17 4.18m-1 1.1s2.22-3.1 5.55-3.1c0 0 1.23.1 1.67.54m-7.77-6.9s-4.3-.05-9.3 5.2c0 0-.77.84-.77 1.3 0 0 0 .9 1 .9 0 0 .84-.08 1.4-.66.6-.57 3.6-4.14 5.96-4.83m14.95 3.24c1-1 3.2-.94 3.2-.94 3.2 0 6.8 4.2 6.8 4.2m0 0h3.83m0 0s-.27 2.2-1.4 3.1c0 0 1.26-.27 1.65-1.16 0 0 1.8.14 2.56.5s2.04 1.05 4.22.4c2.16-.63 4.05-.1 5.4.9 1.32 1.04 1.9 2.45 1.9 3.47 0 0-6.4-2.73-10.9-2.73 0 0-3.66-.14-5.5 1.33-2.1 1.63-3.87 2.8-6.7 1.65s-6.15-.5-8.1.64c-1.9 1.13-2.93 1.5-5.5.36-2.56-1.15-9.9.14-10.8.78 0 0 2.34-4.1 6.2-4.1s5.1 1.15 5.1 1.15 1.93 1.14 2.57 1.14c0 0 3.1-4.75 6.3-6.54m-3.67-.8s.24 2.86 2.2 1.86m-12.4-5.75s.9-.8 1.8-.9" fill="none" stroke="#000" stroke-width="1.03" stroke-linecap="round" stroke-linejoin="round" stroke-miterlimit="2.61"/></svg>