<svg xmlns="http://www.w3.org/2000/svg" width="192.76" height="192.76" viewBox="0 0 192.756 192.756"><g fill-rule="evenodd" clip-rule="evenodd"><path fill="#FFF" d="M0 0h192.76v192.76H0V0"/><path d="M8.5 184.23zm87.9-.05c48.4 0 87.85-39.46 87.85-87.85 0-48.35-39.45-87.8-87.85-87.8-48.37 0-87.8 39.45-87.8 87.8 0 48.4 39.43 87.85 87.8 87.85z" fill="#3F7249"/><path d="M96.4 181.33c-23.37 0-44.57-9.56-60.02-24.95C21 140.94 11.45 119.73 11.45 96.33c0-23.35 9.56-44.57 24.93-60 15.46-15.4 36.65-24.96 60.02-24.96 23.4 0 44.68 9.57 60.05 24.96 15.4 15.43 24.96 36.65 24.96 60 0 23.4-9.5 44.6-24.9 60.05-15.33 15.4-36.6 24.95-60 24.95z" fill="#FFF"/><path d="M96.4 179.57c22.93 0 43.75-9.38 58.83-24.46 15.03-15 24.42-35.9 24.42-58.7 0-22.82-9.4-43.7-24.42-58.72-15.08-15.1-35.9-24.46-58.83-24.46-22.84 0-43.63 9.4-58.73 24.46-15.1 15-24.47 35.9-24.47 58.7 0 22.9 9.37 43.75 24.47 58.78 15.1 15.1 35.9 24.48 58.73 24.48z" fill="#3F7249"/><path fill="#FFF" d="M51.55 36.73l-1.07 2.38 1.93 1.8-2.6-.3-1 2.4-.54-2.52-2.5-.3 2.2-1.27-.54-2.56 1.9 1.77 2.3-1.3m-5.9 6.97l-.93 3.17 2.72 1.86-3.3.1-.9 3.1-1.2-3.06-3.3.06 2.6-1.96-1.1-3.16L43 45.7l2.6-2.04M39.4 53.9l-.13 4.03 3.83 1.27-3.9 1.24v3.96l-2.4-3.2-3.78 1.1 2.38-3.13-2.3-3.38 3.84 1.3 2.45-3.2m-4.5 12.7l1.1 5.8 5.8.83L36.55 76l1.03 5.8-4.24-4.03-5.2 2.73 2.57-5.2-4.25-4.2 5.9.8 2.5-5.24m106.33-29.9l1.13 2.37-2 1.8 2.63-.3 1.05 2.4.6-2.57 2.58-.3-2.26-1.27.57-2.58-1.98 1.73-2.3-1.3m5.92 6.97l.9 3.18-2.76 1.86 3.33.1.9 3.14 1.15-3.04 3.3.06-2.55-1.97 1.1-3.16-2.73 1.83-2.6-2.05m6.25 10.23l.02 4.03-3.78 1.27 3.83 1.27.03 3.95 2.33-3.2 3.8 1.1-2.4-3.12 2.35-3.4-3.84 1.3-2.38-3.2m4.4 12.8l-1 5.76-5.87.82 5.24 2.77-1.04 5.77 4.3-4.03 5.14 2.75-2.58-5.24 4.3-4.2-5.93.8-2.57-5.2m-90.43 41.7c-.17-.1-.53-.1-.7.08l-27.9 37c-.34.48-.23 1.1.13 1.54 4.78 5.26 9.67 9.7 15.37 13.7.36.26 1 .77 1.3.08l2.98-7c.15-.4.04-1-.3-1.22-2.97-1.98-5.53-4.3-8.04-6.7-.36-.35-.3-1.22 0-1.68l21.97-31.95c.1-.1 0-.4-.18-.46-1.66-1.05-3.2-2.14-4.6-3.3zm25.94 65.2c.4 0 .4-.3.4-.52l.4-54.03c0-.18-.2-.36-.4-.36-1.3-.04-2.72-.2-4.12-.4-.18-.06-.4.05-.53.3l-6.5 15.03c-.2.38-.3.3-.36-.04l-.5-16.9c0-.25-.06-.36-.2-.36-1.6-.6-3.13-1.2-4.7-2-.1-.05-.34-.05-.45.2l-19.6 47.24c-.1.26 0 .55.18.66 1.95 1.23 3.88 2.27 5.86 3.34.23.1.7.2.8-.2l12.08-33.8c.12-.4.23-.5.23.05l.52 28.66c0 1.5.1 1.5.74.1l11.5-25.5c.1-.35.2-.35.17.05l-2.96 37.3c-.04.2.25.5.47.55 2.4.35 4.77.53 7.1.64zm19.68-51.5c-2.45.77-5.12 1.45-8.85 2.1-.2 0-.4.3-.4.53l.3 14.22c0 .22.2.57.6.53 3.55-.5 7.06-1.15 10.55-1.9.47-.1.65 0 .76.64l.88 5.6c.06.3.1.7-.3.8-3.84.97-7.73 1.7-11.65 2.3-.28.07-.64.18-.64.7l.35 14.76c0 .74.48 1.14.88 1.1 4.5-.3 9-1.53 13.34-2.65.3-.03.7-.14.82.48l1.13 7.7c.13.43-.3.83-.8.94-7.35 2.26-14.35 3.62-22.33 3.8-.6 0-1.04-.18-1.04-.7l.37-53.75c0-.3.5-.48.86-.48 5.14-.35 9.45-1.06 13.93-2.75.53-.2.7-.1.7.13l.87 5.4c.08.34-.05.4-.34.52zm11.43 46.16c-.17 0-.46 0-.52-.26l-9.68-52.73c-.05-.1 0-.17.17-.2 1.47-.66 2.9-1.4 4.32-2.17.1-.08.4-.1.4.03l13.4 50.82c.1.4.05.56-.1.7-2.65 1.4-5.2 2.6-8 3.8zm42.14-68.65c-.37 1.76-.84 3.38-1.35 5-.05.14-.16.4-.5.3l-1.17-.63c-.18-.14-.4.04-.53.15l-1.8 4.5c-.13.28-.13.57.27.86l8.1 5.46c.3.18.83.23 1-.46 1.6-6.56 2.28-13.03 2.2-19.64 0-.27-.1-.56-.46-.7l-13.4-4.65c-.5-.25-1.3-.2-1.63.5-1.18 2.27-2.27 4.14-3.32 5.83-.18.17-.47.53-.93.3l-6.6-3.2c-.3-.2-.52-.35-.3-.9l1.1-2.33c.1-.3.5-.2.76-.1l2.26.87c.27.1.56.1.7-.23l1.04-2.8c.1-.22-.24-.54-.46-.65l-8.8-3.1c-.33-.1-.6.1-.7.35-1 3.06-2.2 5.86-3.72 8.7-.3.55-.04.95.25 1.17l16.65 11.24c.3.16.83.16 1.1-.37 1.7-2.7 3.27-5.4 4.8-8.1.1-.2.3-.38.7-.2l4.6 2.05c.22.04.35.26.3.7v-.02zm-142.1 22.6c-.1-.3.2-.63.46-.8l33.67-21.3c.2-.14.54 0 .66.1l3 3.5c.14.2.3.5.2.75l-24.65 40.4c-.18.2-.76.02-.94-.2-1-1.3-1.96-2.5-2.82-3.9-.18-.24-.14-.66.04-.88l5.8-9.27c.3-.53.3-.8.1-1.35-1-2.63-1.86-5.2-2.7-7.82-.03-.24-.57-.3-.8-.17l-9.2 6.2c-.24.1-.7 0-.8-.2-.7-1.6-1.4-3.4-2-5.07zM52 111l-9.55 6.4c-.25.12-.36.48-.25.77.47 1.7 1 3.25 1.65 4.7.1.42.47.66.7.24l7.5-12c.07-.02 0-.1-.04-.02zm101.72 36.42c-.18.17-.47.35-.7.06l-14.85-18c-.13-.2-.35-.37-.6-.2l-2.56 1.8c-.2.2-.5.43-.3.9l9.2 24.4c.2.3 0 .47-.12.64-2.4 1.87-4.83 3.63-7.4 5.25-.16.1-.45.22-.52-.06l-14.74-50.4.3-.4c3.84-2.5 6.58-4.5 9.6-7.9 1.1-1.2 2.4-.4 2.94.48l9.77 16.13c.94 1.46.87 3.56-.24 4.9l-.3.35 14.64 16.26c.3.3.24.58.06.76-1.36 1.8-2.63 3.38-4.1 5.14zm-18-26.58l-4.02-7.92c-.14-.3-.35-.36-.65-.18-.86.58-1.75 1.34-2.7 1.92-.1.13-.1.24-.03.35l3.3 8.9c.08.2.2.3.37.2l3.4-2.5c.2-.1.4-.37.24-.66zM168.1 123c-.04.17-.17.35-.4.24l-7.98-5.5c-.18-.04-.4-.04-.53.14l-3.4 8.4c-.08.2 0 .45.1.63l5.53 9.3c.1.16.1.4.07.5-1 1.6-2 3.1-3.03 4.6-.06.14-.3.2-.4 0l-24.47-40.65c-.1-.16-.1-.34 0-.52 1.05-1.3 2-2.65 2.9-4.05.07-.1.24-.22.4-.1L169.7 117c.1.1.23.27.17.5-.5 1.8-1.1 3.66-1.8 5.53zm-14.45-9.4l-9.03-6.1c-.33-.23-.4-.18-.22.17l7.05 11.72c.1.1.4.5.64 0 .2-.6 1.4-3.48 1.9-5.1 0-.36-.2-.6-.4-.78zm-114.23-4.17c-2.58-3.27-4.84-6.94-7-10.94-.18-.4-.5-.4-.8-.3l-10.68 3.6c-.64.2-.75-.2-.75-.5-.3-2.5-.2-5-.2-7.44 0-.58.3-.8.6-.9l30.6-6c.33-.07.62.1.7.3 1.5 3.73 3.3 6.86 5.4 10.2.13.22 0 .62-.2.75L40.4 109.6c-.35.25-.7.18-1.05-.22zm9.8-12.1c-.94-1.36-1.8-2.73-2.63-4.14-.1-.1-.2-.1-.3 0l-7.9 2.7c-.4 0-.3.3-.2.4.9 2 2.1 3.7 3.5 5.5.1.2.5.3.8.13l6.7-4.47v-.2zM96.4 111.7c24.5 0 44.55-19.97 44.55-44.55 0-24.53-20.04-44.6-44.55-44.6-24.53 0-44.52 20.07-44.52 44.6 0 24.58 20 44.55 44.52 44.55z"/><path d="M96.4 109.9c-11.72 0-22.44-4.85-30.18-12.57-7.76-7.7-12.52-18.37-12.52-30.18 0-23.55 19.17-42.8 42.7-42.8 11.75 0 22.42 4.86 30.16 12.6 7.76 7.76 12.6 18.4 12.6 30.2 0 23.6-19.25 42.75-42.76 42.75z" fill="#3F7249"/><path d="M84 33.55c4.58-2.7 8.22-5.6 10.8-7.92-12.07.47-22.84 6.16-30.16 14.85 6.45-.93 12.97-3.24 19.35-6.93zm24.84 0c6.38 3.7 12.87 6 19.35 6.93-.8-.9-1.6-1.8-2.5-2.64-7.2-7.2-16.9-11.77-27.7-12.2 2.52 2.28 6.2 5.2 10.75 7.9zM70.1 79.15c-5.94-12.04-8.9-25.25-8-35.3-4.53 6.64-7.17 14.67-7.17 23.3 0 11.5 4.64 21.84 12.16 29.3 7 7.06 16.7 11.65 27.3 12.16-12.7-9.3-20.2-21-24.3-29.4zm60.7-35.17c.83 10-2.15 23.2-8.04 35.16-5.78 11.85-14.17 22-24.35 29.47 21.9-1 39.6-19.2 39.6-41.4 0-8.6-2.6-16.53-7.1-23.13z" fill="#FFF"/><path d="M96.4 108.5c11.46-8.1 19.73-18.86 25.2-29.94 6.65-13.57 9.06-27.38 7.65-36.54-8.27-.98-15.4-4-21.04-7.34-5.4-3.2-9.4-6.63-11.8-8.78-2.2 2.15-6.3 5.58-11.7 8.78-5.6 3.34-12.8 6.3-21.1 7.3-1.3 9.2 1 23 7.7 36.58 5.4 11 13.7 21.84 25.1 29.94z" fill="#FFF"/><path d="M96.4 106.92c-1.1-.83-2.22-1.63-3.3-2.52-9-7.14-15.76-16.28-20.47-25.66-5.58-11.2-8.34-22.66-8.5-31.36 0-1.5.05-3.1.23-4.6 2.15-.23 4.3-.58 6.47-1.16 3.67-.87 7.1-2.23 10.25-3.74C85.98 35.5 90 32.7 92.8 30.5c1.27-1.07 2.5-2.1 3.6-3.27 1.14 1.1 2.32 2.2 3.6 3.2 2.8 2.27 6.8 5.07 11.77 7.45 3.54 1.7 7.52 3.2 11.77 4.1 1.62.4 3.3.64 5 .8.1 1.46.18 2.86.18 4.26-.06 8.68-2.8 20.33-8.5 31.7-4.73 9.43-11.54 18.6-20.57 25.8-1.05.8-2.16 1.62-3.25 2.38z" fill="#3F7249"/><path d="M101.16 32.95c-2.1-1.58-3.73-2.98-4.76-4.03-1 1.05-2.62 2.45-4.7 4.03h9.46zm7.74 4.82c-2.2-1.16-4.25-2.44-6-3.6H89.93c-1.73 1.16-3.78 2.44-6 3.6h24.97zm12.26 4.9c-3.56-.94-6.9-2.2-9.86-3.67H81.55c-3.03 1.46-6.36 2.73-9.92 3.66h49.53zm6.34 4.95c0-1.3 0-2.5-.12-3.66h-61.9c-.12 1.15-.12 2.37-.12 3.66h62.14zm-.36 4.9c.13-1.23.25-2.45.3-3.67H65.4c.07 1.22.18 2.44.36 3.67h61.38zm-.8 4.88c.3-1.2.47-2.44.62-3.6h-61.1c.2 1.16.4 2.4.65 3.6h59.9zm-1.1 4.9c.3-1.22.56-2.44.85-3.67H66.7c.3 1.23.6 2.45.93 3.67h57.56zm-1.52 4.9c.4-1.23.8-2.45 1.15-3.67H68.03c.35 1.22.68 2.44 1.1 3.66h54.6-.02zm-1.82 4.96c.48-1.3.92-2.52 1.4-3.67H69.6c.4 1.1.87 2.3 1.4 3.6h50.9zm-2.2 4.9c.57-1.23 1.14-2.46 1.68-3.68H71.52c.53 1.22 1.04 2.45 1.64 3.67h46.53zm-2.57 4.88c.7-1.22 1.34-2.45 1.98-3.67H73.8c.6 1.22 1.28 2.45 1.92 3.67h41.4zm-3.05 4.9c.83-1.23 1.58-2.45 2.34-3.68H76.48c.7 1.23 1.44 2.45 2.27 3.67h35.33zm-3.48 4.9c.93-1.24 1.8-2.4 2.68-3.68h-33.7c.85 1.3 1.72 2.44 2.66 3.67h28.35zm-4.2 4.83c1.1-1.1 2.2-2.33 3.22-3.62H83.24c1.04 1.3 2.1 2.5 3.2 3.62h19.97zm-5 4.87c1.34-1.18 2.6-2.4 3.83-3.64H87.6c1.22 1.24 2.5 2.47 3.9 3.65h9.9zm-5 3.96c1.2-.86 2.36-1.75 3.54-2.7H92.9c1.17.95 2.35 1.84 3.5 2.7z" fill="#FFF"/><path d="M80.15 86.83c1.75 0 3.84.07 4.9-1.62.63-.8.63-1.9.63-2.1V62.3c0-.22-.17-.58-.53-.87-.7-.64-2.2-1.17-3.1-1.3.9-.16 2.4-.68 3.17-1.28.3-.3.46-.57.46-.8V45.4c0-.4-.06-.7-.24-.98-.22-.47-.58-.82-1.05-1.1-1.2-.6-3.1-.4-4.3-.12.1-.47.6-1.47.8-1.76 1.42-2.5 3.2-3.02 4.9-2.8 1.55.18 3 1.1 4 1.82 1.5-1.4 3.23-2.44 4.92-3.16 2.37-.93 4.75-1.3 6.62-1.3 4.3 0 8.27 1.88 11.1 4.86 3 2.98 4.8 7 4.8 11.3 0 3.78-1.9 8.16-5.08 11.43-2.8 2.9-6.5 5-10.6 5-2.1.02-4.2-.56-5.7-1.67-1.4-.98-2.4-2.5-2.4-4.3 0-.24 0-.48.08-.7.04-1.4.5-2.7 1.4-3.6.87-.94 2.07-1.6 3.83-1.6.17 0 .33 0 .57.06 1.24.06 2.17.42 2.75.93.75.7 1 1.6 1 2.45 0 1.45-.9 2.96-2.48 3.1.3.1.65.15 1.07.22 2.62.02 6.1-2.48 6.63-5.1.23-1.04-.06-1.93-.35-2.87-.3-.74-.53-1.55-.53-2.5-.08-1.45.34-2.3.74-3.14.46-.94.86-1.74.3-3.4-.6-1.54-1.6-3-2.97-4-1.3-.9-2.86-1.4-4.9-1.4-1.56 0-3.4.8-4.8 2.03-1.34 1.1-2.34 2.5-2.34 3.85v45.3c-1.44-.37-2.73-.77-3.85-1.88-.55-.5-1.02-1.22-1.3-1.87-.95.76-1.9 1.3-3.04 1.36-1.8.1-4.6-1.34-5.24-3.15z" fill="#3F7249"/><path d="M82.66 87.88c.98.64 1.87.93 2.67.9 1.58-.15 3.1-1.66 3.73-2.53.05.94.47 2.38 1.52 3.4.53.45 1.1.8 1.8 1.1V47.1c0-1.74 1.18-3.5 2.73-4.8 1.7-1.37 3.9-2.37 5.7-2.3 2.3 0 4.2.62 5.6 1.62 1.66 1.16 2.77 2.8 3.48 4.6.76 2.1.23 3.14-.35 4.32-.3.7-.72 1.44-.65 2.56 0 .82.23 1.5.45 2.15.34 1.1.7 2.16.4 3.56-.7 3.2-4.67 6.1-7.94 6.1-.87-.06-1.63-.35-2.23-.7-1.43-.97-1.54-2.44-1.32-3.38.26.43 1 1.1 1.7 1.3.18.1.36.1.58.1 1.08 0 1.55-.93 1.55-1.86 0-.6-.16-1.1-.6-1.52-.4-.3-1.07-.55-2.05-.62-.2-.03-.36-.03-.48-.03-1.4 0-2.34.46-2.9 1.15-.7.77-1.06 1.8-1.1 2.93-.08.16-.08.4-.08.56 0 1.4.75 2.5 1.77 3.33 1.4.9 3.26 1.43 5.1 1.4 3.74-.1 7.2-2 9.74-4.76 2.94-3.02 4.74-7.05 4.74-10.54 0-3.95-1.7-7.7-4.4-10.46-2.62-2.7-6.3-4.46-10.25-4.46-1.75 0-3.95.3-6.15 1.2-1.73.7-3.42 1.77-4.9 3.24l-.35.4-.4-.3c-.93-.65-2.44-1.76-3.96-1.98-1.15-.1-2.4.3-3.44 1.9.94-.1 1.94.08 2.74.55.7.36 1.3.94 1.57 1.63.25.45.36.9.36 1.5V58.1c0 .6-.27 1.23-.85 1.74l-.54.38c.2.1.36.24.47.35.67.6.96 1.28.96 1.8V83.1c0 .35-.05 1.62-.8 2.84-.6.94-1.64 1.77-3.44 2z" fill="#FFF"/></g></svg>