<svg xmlns="http://www.w3.org/2000/svg" width="192.76" height="192.76" viewBox="0 0 192.756 192.756"><g fill-rule="evenodd" clip-rule="evenodd"><path fill="#FFF" d="M0 0h192.76v192.76H0V0"/><path d="M177.93 118.35c-.2-14.6-5.04-25.5-9.7-36.03-3.32-7.97-4.73-13.56-5.2-20.6.37-8.44 3.02-15.1 7.18-23.1l3.6-6.77-30.2-29.02-.52.33-6.16 3.7c-11.6 6.94-26 10.92-40.5 11.18-15.2.27-29.3-3.42-40.7-10.7L49 3.08 18.88 31.8l3.5 6.77c2.96 5.77 5.04 10.95 6.52 16.3.33 2.27.5 4.4.5 6.5 0 7.93-2.43 14.76-5.04 20.96-3.16 7.15-7.1 16.06-8.98 25.67l-.08.4-.04.38c-.3 2.5-.44 5.07-.44 7.6 0 10.7 2.6 20.97 7.56 29.7l.34.6.42.56c3.77 4.95 7.92 8.86 12.67 11.96l.3.16.28.14c8 4.6 16.34 7.7 24.4 10.7 10.68 3.96 20.75 7.7 28.94 14.45l6.4 5.27 6.46-5.18c5.26-4.22 10.6-7.33 17.24-10.1 3.6-1.46 7.3-2.8 11.2-4.22 8.35-3.03 17-6.16 25.3-10.9l.34-.2.35-.23c16.3-11.2 19.7-25.7 20.9-39.8l.05-.5v-.54z"/><path d="M139.6 11.38c-12.35 7.4-27.64 11.65-43.08 11.93-16.24.3-31.3-3.7-43.6-11.5l-3.26-2L25.36 33l1.68 3.3c3.2 6.2 5.43 11.8 7 17.6.4 2.6.6 5.1.6 7.5 0 8.25-2.2 15.4-5.44 23.1-3.07 6.97-6.9 15.6-8.65 24.64l-.04.2v.2c-.2 2.34-.4 4.67-.4 7 0 9.7 2.4 19.14 6.9 27.1l.2.3.2.26c3.46 4.5 7.06 7.9 11.36 10.7l.1.1.14.06c7.6 4.37 15.74 7.4 23.62 10.33 11.1 4.1 21.56 8 30.43 15.3l3.1 2.55 3.1-2.5c5.7-4.55 11.4-7.9 18.53-10.85 3.72-1.54 7.64-2.96 11.44-4.34 8.13-2.95 16.56-6 24.46-10.52l.17-.1.16-.1c13.7-9.35 17.37-21.1 18.66-35.8l.02-.23v-.26c-.2-13.46-4.8-23.9-9.28-34-3.66-8.7-5.2-14.86-5.68-22.63.37-9.5 3.25-16.85 7.8-25.58l1.7-3.3-24.4-23.48-3.24 1.95z" fill="#FFF"/><path d="M169.05 118.48c-.18-11.9-3.68-20.66-9-32.68-3.77-9.05-5.44-15.8-5.93-24 .36-10.23 3.54-18.3 8.2-27.28l.46-.88-20.45-19.68-.87.52c-12.88 7.74-28.8 12.16-44.88 12.45-16.94.3-32.7-3.88-45.6-12.08l-.87-.55-20.3 19.33.5.88c3.4 6.6 5.7 12.4 7.4 18.6.46 2.9.67 5.7.67 8.34 0 8.77-2.3 16.34-5.73 24.47-3 6.78-6.74 15.25-8.43 23.9v.1c-.26 2.2-.4 4.4-.4 6.6 0 9.07 2.2 17.9 6.4 25.3l.06.1.05.05c3.2 4.2 6.53 7.3 10.47 9.9h.05l.05.05c7.33 4.2 15.33 7.2 23.07 10.05 10.9 4.05 22.13 8.23 31.47 15.93l.8.67.84-.66c6-4.78 11.97-8.28 19.4-11.37 3.8-1.57 7.8-3 11.6-4.4 8-2.9 16.3-5.9 23.95-10.26l.03-.03h.05c12.54-8.55 15.9-19.43 17.1-33.14v-.13zm-12.98-76.9l-7.7 3.32V23.42l11.17 10.76c-1.28 2.5-2.45 4.95-3.47 7.4zM66.1 24.96c6.1 2.1 12.6 3.5 19.35 4.16v42.82l-19.37 8.32v-55.3zm40.86 3.87c6.84-.85 13.54-2.43 19.9-4.66v29.97l-19.9 8.55V28.8zm-72 58.04c3.55-8.44 5.95-16.3 5.95-25.47 0-2.82-.2-5.75-.7-8.86v-.14c-1.6-6.03-3.9-11.84-7.1-18.2l11.57-11v66.28l-13.2 5.66c1.2-2.94 2.43-5.73 3.56-8.28zm-8.27 23.3c.7-3.92 2-7.84 3.3-11.6l124.7-53.54c-1.88 5.22-3.05 10.6-3.26 16.74l-.02.06v.07c.42 6.9 1.66 12.5 3.5 17.95l-.03-.06-125.5 54.1c-2-5.5-3.04-11.4-3.04-17.5 0-2.1.12-4.2.36-6.3zm58.7 58.03c-6.3-3.34-12.9-5.87-19.4-8.3v-38.94l19.34-8.35v55.6zm-53.1-27.86c-.7-1.3-1.4-2.62-2-4l14.2-6.1v20.68c-.86-.45-1.7-.9-2.5-1.38-3.68-2.4-6.77-5.32-9.7-9.2zm83 23.67c-3 1.3-5.8 2.6-8.4 4v-64.6l19.9-8.53v64.9c-3.8 1.37-7.7 2.8-11.5 4.34zm35.1-14.4l-2.15 1.2V85.5l7.46-3.22c.56 1.5 1.16 3.02 1.8 4.56 5.2 11.73 8.6 20.25 8.78 31.6-1.16 13.3-4.24 23.13-15.9 31.1z"/><path d="M32.85 128.62l3.74-27.54 5.3-2.3 12.8 20.25-5.4 2.3-2.3-4.26-8.55 3.73-.7 5.7-5 2.12zM39.07 116l5.7-2.48-4.63-8.35L39.07 116zm23.1-5.5l.9 4.8-4.8 2.13-1.07-4.8 4.98-2.13zm4.1 3.37L69.8 86.5l5.5-2.48 12.8 20.43-5.33 2.14-2.32-4.1-8.53 3.5-.53 5.7-5.2 2.1zm6.2-12.44l5.7-2.66-4.62-8.35-1.07 11zm23.1-5.68l.9 4.8-4.97 2.3-.9-4.97 4.98-2.13zm6.05 2.66L97 74.6l10.14-4.44c2.12-1.07 3.73-1.07 5.15-.53 1.2.53 2.3 1.6 3 3.02.5 1.6.7 3.02.5 4.8-.2 1.6-.9 3.2-1.8 4.44-1.1 1.4-2.3 2.4-4.1 3.3l-5.3 2.3 1.74 8.7-4.8 2.12zm2.3-14.7l4.64-2.1c.7-.15 1.24-.9 1.6-1.4.7-.52.88-1.4.88-2.12 0-.9 0-1.6-.35-2.5-.4-.7-1.1-1.22-1.6-1.4-.8 0-1.6.18-2.7.53l-4.1 1.78 1.6 7.3zm19.2 0l.9 5-4.98 2.16-.9-4.97 5-2.14zm5.88 2.7l-4.5-23.8 10.13-4.42c1.95-1.07 3.55-1.07 4.97-.54 1.44.54 2.5 1.6 3.04 3 .7 1.6.88 3.2.7 4.8-.17 1.6-.88 3.2-1.77 4.64-1.07 1.23-2.3 2.3-4.1 3.2l-5.5 2.3 1.96 8.7-4.98 2.13zm2.43-14.72l4.62-2.13c.7-.2 1.23-.9 1.6-1.43.52-.54.9-1.42.9-2.13 0-.9 0-1.6-.56-2.3-.4-.9-.9-1.43-1.4-1.6-.7 0-1.6.17-2.7.53l-4.1 1.78 1.6 7.3zm19 0l1.08 4.98-4.93 2.14-.9-5 4.8-2.1z"/></g></svg>