<svg xmlns="http://www.w3.org/2000/svg" width="192.76" height="192.76" viewBox="0 0 192.756 192.756"><path fill-rule="evenodd" clip-rule="evenodd" fill="#FFF" d="M0 0h192.76v192.76H0V0"/><path d="M8.5 181zm87.9-.17l-3.28-3.43-1.83-1.5-2.1-1.45-2.2-1.25-2.36-1.3-2.47-1.2-2.73-1.08-2.74-1.08-2.9-1-3.02-.93-3.12-.9-3.1-.9-3.2-.9-3.3-.95-3.2-.92-3.3-1-3.3-1.06-3.24-1.13-3.2-1.24-3.18-1.3-3.15-1.4-3.04-1.6-2.9-1.66-2.87-1.9-2.7-2-2.6-2.2-2.42-2.46-2.2-2.6-2.06-2.8-1.8-3.16-1.6-3.36-1.3-3.6-.7-2.4-.46-2.45-.34-2.4-.14-2.3.07-2.35.17-2.2.36-2.3.48-2.17.6-2.2.66-2.1.83-2.06.8-2.07.96-2 1-2 1-1.93 1.13-1.94 1.02-1.95 1.12-1.9 1.2-1.8 1.1-1.9 1.15-1.85 1.04-1.85 1-1.8 1-1.84.97-1.8.9-1.8.8-1.8.7-1.8.67-1.76.5-1.8.4-1.72.3-1.8.1-.74.08-.77.07-.77v-2.4l-.1-.8-.06-.84-.1-.76-.15-.82-.1-.76-.16-.8-.2-.83-.18-.76-.25-.75-.24-.85-.3-.8-.26-.77-.3-.73-.35-.84-.4-.7-.33-.75-.43-.8-.4-.73-.4-.66-.5-.7-.42-.75-.5-.7-.54-.7-.54-.66-.53-.7-1.9-2.3 26.4-25.7 2.9 1.46 1.36.65 1.4.7 1.4.6 1.4.7 1.4.6 1.5.6 1.44.57 1.43.55 1.43.53 1.46.5 1.5.47 1.46.5 1.5.4 1.44.4 1.5.4 1.5.37 1.54.4 1.5.23 1.5.34 1.53.24 1.48.3 1.54.26 1.5.2 1.56.15 1.58.2 1.54.1 1.53.1 1.5.17 1.6.06 1.5.06h3.1l1.5-.06 1.6-.02 1.5-.14 1.56-.1 1.58-.13 1.58-.2 1.54-.17 1.5-.2 1.57-.22 1.47-.3 1.57-.24 1.5-.34 1.48-.27 1.57-.36 1.43-.36 1.5-.4 1.5-.4 1.47-.4 1.5-.5 1.5-.47 1.45-.5 1.4-.55 1.48-.54 1.44-.55 1.45-.6 1.4-.6 1.4-.63 1.4-.6 1.4-.7 1.37-.64 2.9-1.46 26.4 25.77-2 2.3-.54.7-.5.63-.55.7-.5.7-.4.72-.5.72-.4.7-.4.74-.4.8-.38.8-.35.7-.35.85-.3.76-.3.76-.3.8-.25.84-.23.76-.17.77-.17.86-.16.8-.1.75-.14.8-.1.76-.07.8-.04.8v2.4l.05.8.08.8.13.76.3 1.8.4 1.76.53 1.8.65 1.7.73 1.8.84 1.82.87 1.8.94 1.8 1 1.84 1.04 1.82 1.08 1.84 1.12 1.86 1.1 1.9 1.14 1.9 1.15 1.9 1 1.93 1.17 1.96.97 1.9 1 2 1 2 .84 2.06.82 2.05.63 2.1.6 2.2.5 2.15.32 2.24.16 2.2.06 2.4-.1 2.26-.37 2.4-.46 2.46-.73 2.4-1.27 3.6-1.58 3.37-1.8 3.12-2.07 2.84-2.15 2.64-2.45 2.44-2.57 2.23-2.7 2-2.8 1.9-2.95 1.67-3 1.6-3.1 1.4-3.2 1.3-3.2 1.24-3.22 1.13-3.3 1.07-3.28 1-3.26.9-3.23.97-3.22.9-3.13.9-3.1.9-3.04.93-2.88 1-2.8 1.06-2.7 1.03-2.47 1.2-2.4 1.24-2.16 1.25-2.03 1.44-1.8 1.5-3.3 3.42z" fill-rule="evenodd" clip-rule="evenodd"/><path d="M90.3 171.02l-1.48-.9-2.54-1.32-2.7-1.24-2.8-1.14-2.87-1.05-1.1-.4V110l13.5-10.13v71.16zm-27.5-50.44v40.2l-.42-.12-3.28-.96-3.22-.92-3.25-1-2.3-.78v-27.04l12.46-9.38zM37 139.98v11.82l-2.8-1.46-2.77-1.58-2.66-1.78-.57-.4 8.8-6.6zm-24.56-27.52l.07-.62.5-2 .6-1.95.58-2 .75-2 .83-1.9.9-1.9.96-1.97 1-1.9 1-1.87 1.14-1.9 1.04-1.88 1.1-1.9 1.16-1.8 1.12-1.9 1.1-1.9 1.07-1.9 1-1.8 1-1.9.95-1.93.82-1.9.8-1.85.64-1.97.6-1.94.5-1.94.33-2 .13-.9v-.9l.1-.9.06-.85v-.96l-.08-.9-.08-.84-.02-.9-.14-.9-.12-.92-.13-.9-.2-.86-.2-.9-.22-.85-.2-.9-.3-.9-.3-.9-.34-.8-.34-.9-.4-.8-.34-.82-.47-.88-.4-.8-.45-.8-.46-.8-.5-.83-.54-.77-.52-.8-.56-.75-.6-.76-.46-.6L48 16l.68.34 1.44.7 1.42.7 1.46.66 1.5.64 1.45.6 1.5.64 1.43.6 1.46.54 1.56.5 1.53.55 1.5.53 1.5.48 1.53.4 1.56.5 1.5.33 1.6.5 1.52.36 1.55.37 1.5.27 1.6.32 1.5.26 1.62.23 1.6.2 1.6.2 1.56.18 1.57.14 1.63.1 1.6.1 1.6.1h6.46l1.6-.1 1.57-.1 1.6-.1 1.6-.13 1.6-.2 1.6-.23 1.6-.2 1.6-.2 1.6-.3 1.6-.3 1.52-.28 1.6-.4 1.54-.35 1.55-.42 1.5-.33 1.6-.46 1.5-.43 1.5-.45 1.54-.53 1.5-.54 1.5-.5 1.5-.56 1.54-.6 1.47-.62.5-.2-124.9 93zm138.94-58.7v99.94l-1.74.76-3.13 1.2-3.1 1.06-3.2 1.05-3.2 1-.53.1v-93.8l15-11.3zm-31.04 23.4v86.38l-2.54.82-2.95 1-2.95 1.06-2.74 1.15-2.68 1.23-1.17.64V88.5l15.1-11.34zm47.2 7.67l.13.22 1.12 1.9 1.1 1.8 1.1 1.9 1.1 1.88 1.1 1.9 1 1.88 1 1.9.93 2 .9 1.9.8 1.9.7 2 .68 1.97.5 2 .4 2 .33 2 .16 2.05.1 2.07-.15 2.13-.28 2.1-.4 2.15-.64 2.24L178 130l-1.44 3.02-1.63 2.9-1.8 2.62-2.05 2.45-2.2 2.2-1.33 1.1V84.9zM41.88 119.2l4.6-2.8c0 1.14.4 2.12 1.78 2.46 1.17.32 5.47-2.53 6.45-4.32 1.4-2.42 1-6.68-.7-6.68-1.9 0-6.3 4.8-9.1 4.8-.32 0-2.1.58-2.75-2.12-.2-.7-.2-7.46-.2-8.8 0-5.57 2.1-6.67 6.64-9.62 1.6-.98 5.5-2.8 8.17-3.36l.77-2.84 2.9-1.57.06 10.15-4.4 1.67c0-.98-.8-1.26-1.16-1.23-1.8.32-4.8 2.17-6.56 4.25 0 0-1.2 4.5.26 5.7.83.7 7.55-5.5 10.16-4.8 0 0 2.1.7 2.3 1.3.8 2.3.7 11.2 0 12.7-1.4 3.14-7.26 6.9-10.14 8.22-.15 0-4.27 1.17-5.2 2.33V127l-3.8 2.2.02-10.1zm25.05-12.55c.32-.14.6-.28.9-.46.26 0 .52 0 .68.2.2.1.3.4.3.8 0 .3-.1.7-.2 1.1-.15.4-.4.7-.7 1.2-.3.4-.56.7-.9 1-.5.3-.9.4-1.3.3-.28-.2-.47-.47-.47-.95 0-.4.08-.8.2-1.16.2-.44.4-.78.68-1.2.3-.34.6-.7.94-.93zm9.13-33L97 58.3v8.9l-4.2 2.7v-1.2c0-.7-.23-2-.23-2.1 0-.23-.34-.28-.7-.28-.47 0-5.8 4.33-7.24 5.8v8.27l4.7-3.4v5.2l-4.77 3.2.07 4.1c0 .5-.23 2.5 1.17 2.4.27 0 1.97-1.67 3.06-2.27l.1 3.9-12.72 9.4v-3.9c1.67-1.1 2.6-1.6 2.6-4.27V78.2c0-1.93-.82-2.36-2.74-1.68l-.04-2.86zm20.22 11.1c.3-.24.57-.34.9-.47.26 0 .5.07.68.2.1.2.22.44.22.85 0 .27-.13.7-.22 1.03-.2.48-.42.82-.7 1.28-.3.4-.6.7-.88.92-.53.4-.94.48-1.35.4-.28-.15-.44-.43-.44-.95 0-.3 0-.7.1-1.1.2-.4.4-.72.7-1.2l.9-.84zm27.8-37.92l.22-2c.16-1.36-.73-1.77-1.95-1.1-1.1.6-3.02 1.43-5.17 3.17-1.1.94-1.3 3.4-1.3 5.33V64.1c0 3.18 1.46 3.02 1.46 3.02 2.68-.18 6.8-3.36 6.73-4.64l-.16-5.3 5.3-3.7-.2 8.15c-.1 3.4-4.9 6.48-8.3 9.02-2.5 1.83-5 3.27-6.24 3.9-3 1.5-5.12.47-5.12-5.1l-.06-12.67c0-11.18 2.93-13.03 10.34-17 .9-.56 3.3-1.4 4.8-1.25.36-.7.15-3.02.9-3.98l3.98-2.15-.1 10.57-5 3.86zm12.73 7.94c.3-.2.6-.34.9-.46.3 0 .5.1.7.2.1.3.3.5.3.9 0 .3-.1.76-.23 1.1-.2.45-.43.8-.7 1.2-.3.48-.57.76-.85 1-.54.4-.9.44-1.34.4-.3-.24-.47-.5-.47-1 0-.4.07-.75.2-1.16.15-.4.4-.76.7-1.2.26-.3.5-.65.9-.9z" fill-rule="evenodd" clip-rule="evenodd" fill="#FFF"/><path d="M60.67 59.05c-.3.46-.63.9-.97 1.3-.47.56-.98 1.08-1.52 1.56-2.16 2-4.8 3.2-7.1 3.8 1.66.6 3.43.8 5.26.8 2.03 0 4-.3 5.83-.9.64-1.5.97-3.1.96-4.8 0-.3 0-.67-.04-1.04l-.1-.54c-.9.2-1.7.17-2.4-.07zm-11.5 5.9c2.5-.24 5.74-1.53 8.32-3.82l1.4-1.45c.3-.37.6-.76.8-1.15-.1-.1-.25-.23-.35-.36v-.02c-.1-.13-.17-.26-.23-.4-4.07.97-7.8.75-11.25-.2-3.08-.82-5.9-2.22-8.6-3.83.84 2.88 2.4 5.46 4.47 7.54 1.55 1.54 3.36 2.8 5.36 3.7zm7.17-35.04c5.18 0 9.93 2.1 13.4 5.5 3.44 3.4 5.6 8.1 5.6 13.3 0 5.2-2.16 9.9-5.6 13.38-3.47 3.4-8.22 5.54-13.4 5.54-5.14 0-9.83-2.12-13.24-5.54-2.44-2.47-4.22-5.6-5.03-9.1l-.18-.1.1-.2c-.3-1.26-.5-2.6-.5-3.95 0-5.2 2.1-9.87 5.52-13.27 3.4-3.4 8.1-5.5 13.23-5.5zm0 1.1c-1.2 0-2.38.17-3.5.4 2.53 3.08 4.52 6.34 6.22 9.7 1.7 3.38 3.1 6.86 4.5 10.4.62-.25 1.22-.4 1.78-.46h.3c.8-3.1 1.2-6.1 1-9.1-.2-3.05-1.03-6.07-2.7-9.06l.15-.1c-2.4-1.1-5-1.74-7.8-1.74zm-4.65.67c-3 .8-5.7 2.4-7.9 4.55-.88.83-1.6 1.75-2.3 2.73 3.65 4.76 7.96 8.78 12.9 12.04.95.63 1.94 1.24 2.96 1.82.83.46 1.7.9 2.55 1.35.5-.65 1.1-1.25 1.84-1.77.26-.2.52-.36.8-.5-1.4-3.54-2.8-7-4.5-10.37-1.76-3.44-3.8-6.8-6.45-9.9zM41 39.8c-1.5 2.6-2.37 5.63-2.37 8.86 0 1.24.13 2.44.37 3.6 2.88 1.8 5.93 3.4 9.24 4.3 3.3.88 6.86 1.1 10.76.16v-.2c.04-.5.2-1.02.46-1.54-.86-.43-1.7-.88-2.52-1.36-1.02-.58-2.03-1.2-3.02-1.86-4.92-3.25-9.24-7.24-12.9-11.95zM63.5 65c2.05-.9 3.9-2.2 5.5-3.75 1.13-1.13 2.12-2.4 2.93-3.8-1.07-.07-2.16-.32-3.4-.6l-1.3-.3c-.33.38-.7.74-1.15 1.07l-.36.25c-.3.22-.63.42-.95.6l-.72.33.1.77c.02.37.03.75.03 1.14 0 1.5-.23 3-.7 4.3zm8.98-8.58c1.16-2.35 1.82-4.98 1.82-7.76v-.5c-.96 1.2-2.23 2.44-3.73 3.42-.4.26-.82.5-1.24.7-.27.15-.55.28-.84.4.2.66.1 1.45-.2 2.25-.1.24-.3.48-.4.72.3.06.5.12.8.2 1.35.3 2.54.57 3.7.57zm1.7-9.85c-.5-4.06-2.4-7.7-5.18-10.43-1.07-1.05-2.26-1.96-3.55-2.72 1.36 2.77 2.06 5.55 2.25 8.36.2 3.06-.2 6.15-1 9.27.47.12.9.36 1.24.72l.93-.4c.4-.2.77-.43 1.13-.67 1.8-1.17 3.26-2.77 4.17-4.13zM62.42 53.2c-1.42 1-2.3 2.3-2.38 3.4 0 .18 0 .36.05.52 0 .15.1.3.1.43.6.75 1.82.84 3.15.37.3-.1.56-.23.84-.37.3-.15.55-.33.83-.52.04-.03 0 0 0 0l.02-.02.32-.2c.9-.6 1.54-1.5 1.87-2.2.3-.7.34-1.33.05-1.8l-.05-.03v-.02c-.36-.52-1.06-.73-1.9-.65-.9.1-2 .5-3 1.2zm2.68 3.83z"/></svg>