<svg xmlns="http://www.w3.org/2000/svg" width="192.76" height="192.76" viewBox="0 0 192.756 192.756"><g fill-rule="evenodd" clip-rule="evenodd"><path fill="#FFF" d="M0 0h192.76v192.76H0V0"/><path fill="#FFF" stroke="#000" stroke-width=".96" stroke-miterlimit="2.61" d="M187.73 6.27H5.03v67.97L97.7 186.5l90.03-112.26V6.27z"/><path d="M84.1 155.2V68.15H12.9l71.2 87.05z" fill="#CD3529"/><path d="M108.38 155.2V68.15h71.17l-71.17 87.07zm71.04-93.43V12.4H12.8v49.37h166.6"/><path fill="#FFF" d="M30.8 27.84h18.9v-6.86H24.52V41h18.6v5.9H24.5v6.58h25.16V33.72H30.8v-5.88m58.03 13.03v-19.9H63.67v32.5h6.43v-12.6h18.73zM70.1 27.42h13.14v7H70.1v-7zm38.87 6.72V27.7h18.73v-7h-25.16v32.5h6.43V40.87h18.73v-6.73h-18.73m40-6.44h18.73v-7h-25.17v32.5h25.17v-7h-18.74V27.7"/></g></svg>