<svg xmlns="http://www.w3.org/2000/svg" width="192.76" height="192.76" viewBox="0 0 192.756 192.756"><path fill-rule="evenodd" clip-rule="evenodd" fill="#FFF" d="M0 0h192.76v192.76H0V0"/><path d="M25.97 80.5V47.73c49.55 11.94 32.17-34.4 32.17-34.4C70.1 7.5 96.4 6.98 96.4 6.98s26.25.5 38.2 6.36c0 0-15.35 46.82 32.2 34.4v32.8c.1 82.14-70.4 105.26-70.4 105.26S25.82 162.66 25.95 80.5z" fill-rule="evenodd" clip-rule="evenodd" fill="#FFF" stroke="#000" stroke-width="3" stroke-miterlimit="2.61"/><path d="M32.37 81.9V55.7c44.12 6.92 34.67-36.66 34.67-36.66 10.87-5.32 29.35-4.9 29.35-4.9s18.4-.42 29.3 4.9c0 0-9.5 43.58 34.6 36.66v26.2c.1 74.7-64 95.7-64 95.7s-64.15-21-64.03-95.7z" fill-rule="evenodd" clip-rule="evenodd"/><path d="M162.37 56.55c-29.2-.36-32.78-14.9-32.78-14.9l-93.4 80.8 17.7 27.87 108.4-93.77z" fill-rule="evenodd" clip-rule="evenodd" fill="#FFF"/><path d="M32.37 81.9V55.7m0 0c44.12 6.92 34.67-36.66 34.67-36.66 10.87-5.32 29.35-4.9 29.35-4.9s18.4-.42 29.3 4.9c0 0-9.5 43.58 34.6 36.66m0 0v26.2m0 0c.12 74.7-64 95.72-64 95.72s-64.14-21.02-64-95.7" fill="none" stroke="#000" stroke-miterlimit="2.61"/><path d="M84.96 22l1.06 3.9 5.96-4.2s1.86-1.5 1.93 2.16c0 0-1.9 1.1-1.9 2.4 0 0-.24 3.1-.05 4.65v5s-3.54 2.6-4.35 4.5h14.9S101 37.7 98 36c0 0-2.8-3.57 1.1-5l.96-6.3-1.87-.74-5.55-5.1L85 22z" fill-rule="evenodd" clip-rule="evenodd" fill="#FFF"/><path d="M92.97 29.18s1 .68 1.06 1.48c0 0 .8.74.93-.13 0 0 .5-1.6-.87-2.53 0 0-1.7-.3-1.2 1.18zm2.67 5.12s-.18 1.74 1 3.35c0 0 .68.74.87-.2 0 0-.6-1.23-.8-2.22 0 0-.2-2.04-1-.92zm-3.47 4.27s.37-3.1 1.05-3.58c0 0 1-1.2.87 1.3 0 0-.5 2.2-1.2 2.6 0 0-.5.4-.8-.4z" fill-rule="evenodd" clip-rule="evenodd"/><path d="M103.5 67.32H76.93c0-8.65-4.64-12.94-4.64-12.94h30.4l.8 12.94z" fill-rule="evenodd" clip-rule="evenodd" fill="#FFF" stroke="#000" stroke-miterlimit="2.61"/><path fill="none" stroke="#000" stroke-width="2" stroke-miterlimit="2.61" stroke-dasharray="10.0006,6.0004" d="M78.5 57.8h25.47"/><path d="M83.3 106.52c14.25-.04 23.03 6.92 23.03 6.92 19.76-22.62 7.08-47.35 7.08-47.35H64.7s12.68 24.7-7.08 47.3c0 0 11.43-6.9 25.68-6.9z" fill-rule="evenodd" clip-rule="evenodd" fill="#FFF" stroke="#000" stroke-miterlimit="2.61"/><path fill="none" stroke="#000" stroke-width="2" stroke-miterlimit="2.61" stroke-dasharray="10.0006,6.0004" d="M70.54 70.66h42.38"/><path d="M110.18 39.87h-29.2s4.35 3.83 2 12.24c0 0 11.8-7.1 27.58 0 0 0 2.23-7.9-.38-12.2z" fill-rule="evenodd" clip-rule="evenodd" fill="#FFF" stroke="#000" stroke-miterlimit="2.61"/><path d="M125.84 50.88h-39.4s7.96 13.1-.36 21.5c0 0 24.73-10.75 36.28 1.74 0 0 8.57-11.13 3.48-23.24z" fill-rule="evenodd" clip-rule="evenodd" fill="#FFF" stroke="#000" stroke-miterlimit="2.61"/><path d="M89.76 115.3c-11.6.08-24.2 5.93-24.2 5.93 24.37-22.75 5.98-48.6 5.98-48.6h61.63s8.2 39.45-24.97 48.6c0 0-6.84-6.02-18.44-5.93z" fill-rule="evenodd" clip-rule="evenodd" fill="#FFF" stroke="#000" stroke-miterlimit="2.61"/><path fill="none" stroke="#000" stroke-width="3" stroke-miterlimit="2.61" stroke-dasharray="14.9996,8.9997" d="M79.5 77.58h52.3"/><path fill="none" stroke="#000" stroke-width="2" stroke-miterlimit="2.61" stroke-dasharray="10.0006,6.0004" d="M92.42 54.83h33.42"/><path fill="none" stroke="#000" stroke-miterlimit="2.61" stroke-dasharray="5.0003,3.0002" d="M86.45 42.96h23.48"/><path d="M113.72 99.16s-3.9-2.9-7.9-2.9c0 3.96 2.93 7.86 2.93 7.86h-9.88s2.92-3.9 2.92-7.85c-4 0-7.9 2.9-7.9 2.9v-9.83s3.9 2.9 7.9 2.9c0-3.96-3-7.86-3-7.86h9.9s-2.9 3.9-2.9 7.86c4 0 7.9-2.9 7.9-2.9v9.82z" fill-rule="evenodd" clip-rule="evenodd" fill="#CD3529"/><path d="M45.2 90.26V63.6m0 0s9.94-.18 9.94 7.86c0 0 1.43 6.5-9.94 6.5" fill="none" stroke="#FFF" stroke-width="3" stroke-miterlimit="2.61"/><path d="M59.8 71.84c-2.14-2.25-5.53-3.7-9.35-3.7-6.47 0-11.72 4.17-11.72 9.32s5.25 9.33 11.72 9.33c4.46 0 8.34-2 10.32-5" fill="none" stroke="#000" stroke-width="5" stroke-miterlimit="2.61"/><path d="M59.8 71.84c-2.14-2.25-5.53-3.7-9.35-3.7-6.47 0-11.72 4.17-11.72 9.32s5.25 9.33 11.72 9.33c4.5 0 8.4-2.1 10.37-5" fill="none" stroke="#FFF" stroke-width="3" stroke-miterlimit="2.61"/><path d="M60.1 91.25s-4.03 0-4.03-4.9c0 0 .44-3.5-2.04-6" fill="none" stroke="#000" stroke-width="5" stroke-miterlimit="2.61"/><path d="M60.1 91.25s-4.03 0-4.03-4.9c0 0 1.05-8.46-9.38-8.46" fill="none" stroke="#FFF" stroke-width="3" stroke-miterlimit="2.61"/><path fill="none" stroke="#000" stroke-width="5" stroke-miterlimit="2.61" d="M45.2 75.42V65.6"/><path fill="none" stroke="#FFF" stroke-width="3" stroke-miterlimit="2.61" d="M45.2 75.42V65.6"/><path d="M46.63 65.16l-2.93 1c0-3.1-2.05-4.03-2.05-4.03h3.67l1.3 3.03zm1.97 27.57h-6.88s1.98-1 1.98-2.97h2.92c0 2.04 2 2.97 2 2.97z" fill-rule="evenodd" clip-rule="evenodd" fill="#FFF"/><path d="M105.5 150.68c-1.8-2.18-4.4-3.54-7.25-3.54-5.48 0-9.92 5-9.92 11.2 0 6.17 4.44 11.18 9.92 11.18 3.14 0 5.94-1.65 7.77-4.2m-.2 4.14v.06h-6.76" fill="none" stroke="#FFF" stroke-width="3" stroke-miterlimit="2.61"/><path d="M94.84 162.6l2.98 6.73 2.8-6.5m4.16-8.2l3.3-6.7" fill="none" stroke="#000" stroke-width="5" stroke-miterlimit="2.61"/><path fill="none" stroke="#FFF" stroke-width="3" stroke-miterlimit="2.61" d="M86.64 146.27l11.18 23.06 11.37-23.62"/><path d="M105.28 157.58h-4.42m0 0s.07 1.98 3.48 1.98m0 0l.94-1.98" fill="none" stroke="#000" stroke-width="2" stroke-miterlimit="2.61"/><path d="M105.28 157.58h-4.42s.07 1.98 3.48 1.98l.94-1.98z" fill-rule="evenodd" clip-rule="evenodd" fill="#FFF"/><path fill="none" stroke="#FFF" stroke-width="3" stroke-miterlimit="2.61" d="M105.83 157.58v11.94"/><path d="M98.25 147.14c-5.48 0-9.92 5-9.92 11.2" fill="none" stroke="#000" stroke-width="5" stroke-miterlimit="2.61"/><path d="M98.25 147.14c-5.48 0-9.92 5-9.92 11.2" fill="none" stroke="#FFF" stroke-width="3" stroke-miterlimit="2.61"/><path d="M109.75 147.14c2.05 0 3.04-2.4 3.04-2.4h-6.9c0-.02.7 2.4 2.3 2.4h1.5zm-23.92 0c-2.05 0-3.05-2.4-3.05-2.4h6.9c0-.02-.74 2.4-2.3 2.4h-1.55z" fill-rule="evenodd" clip-rule="evenodd" fill="#FFF"/><path d="M73.6 122.34s-1.8 8.3 21.1 8.3c0 0 9.46.6 14-4.6l8.8-9.45s-4.34-9.1-9.5-9.1c0 0-12.9-.5-34.4 14.8z" fill-rule="evenodd" clip-rule="evenodd" stroke="#000" stroke-miterlimit="2.61"/><path d="M100.86 130.22s2.16-13.36 4.48-16.82c0 0-3.73-5.27 2.32-5.77 0 0 2.56-.33 3.3 2.56 0 0 .26 2.8-2.3 3.9 0 0-2.58 2.1-4.48 15.1 0 0-1.83.7-3.32 1z" fill-rule="evenodd" clip-rule="evenodd" fill="#DFA055" stroke="#000" stroke-miterlimit="2.61"/><path d="M86.45 115.8s8.2-4.05 13.34-5.53c0 0 2.4-.83 3 0 0 0 1.5 1.9-1.6 3.05 0 0-7.6 1-24.04 10.55 0 0-1.4.9-1.98-.08 0 0-.34-.8 1.06-1.9 0 0 6.3-4.38 10.1-6.2zm9.35.32s3.74-1.4 4.98-1.48c0 0 1.66.08 1.66 1.4 0 0 .4 1.8-2.32 2.64 0 0-6.8 1.07-18.72 7.5 0 0-2.16 1.65-3.48.33 0 0-.67-.9 1-2.1 0 0 9.93-5.72 16.9-8.2zm-2.23 5.68s4.8-1.72 6.96-1.8c0 0 1.16.08 1 1.4 0 0 .4 2.14-1.9 2.47 0 0-6.4.82-12.44 4.3 0 0-1.6.98-3.3.8 0 0-1-.24-1.8-.57 0 0-1.7-.33 2.53-2.47 0 0 5.72-3.22 8.86-4.12zm.17 7.84s-3.8 0-5.3-.16c0 0-1-.25.74-1.16 0 0 4.48-1.9 8.62-2.88 0 0 2.57-.75 2.57 1.23 0 0 .4 2.72-3 2.9l-3.63.07zm20.2-16.57s2.66 2.97 1.4 4.37c0 0-1.4 1.8-3.2-.25 0 0-2.25-1.9-1.25-3.7 0 0 1.2-3.4 3-.5zm-3.88 3.38s1.65 1.65 2.15 2.72c0 0 1 1.73-1 2.4 0 0-2.4-.92-3.53-3.14 0 0 .08-3.05 2.48-1.98zm-2 4.45s2.58 1.65 1.1 3.22c0 0-1.1 1.15-2 0 0 0-1.33-.75-.75-2.48 0 0 .5-1.65 1.7-.74zm-2.06 3.7s2 1.08.66 2.15c0 0-1.65 1.98-1.5 0 0 0-.15-1.8.84-2.14z" fill-rule="evenodd" clip-rule="evenodd" fill="#DFA055"/><path d="M88.52 137.06s7.95.24 9.53-1.24c0 0-5.55 6.84-9.53 1.24zm20.88-6.1s5.8 1.32 9.7.9c0 0-6.8 4.8-9.7-.9zm17.23.82s3.56.08 6.2-1c0 0-2.4 4.14-6.2 1zm-6.7 6.45s3.53-.4 5-.16c0 0-2.26-2.8-5 .16zM103.28 132s-2.65.83-4.14.58c0 0 1.4 2.4 4.14-.57zm-.9 4.48s2.9.58 6.7.4c0 0-1.83 3.64-6.7-.4zm-19.8-3.63s5.04.17 7.86-.4c0 0-2.74 4.36-7.87.4z" fill-rule="evenodd" clip-rule="evenodd" fill="#FFF"/><path d="M67.56 132.53s4.06-.17 5.97-.17c1.9 0 3.52.37 4.5 1.2 0 0-1.02-1.7-3.5-2.52 0 0-2.9-1.07-5.72-.5 0 0-2.5.5-5.8-1.56 0 0 2 3.38 4.6 3.55zm2.07 2.97s-2.23-.6-4.88-.1c-1.88.36-5.55-.07-6.55-.9 0 0 .17 2.4 3.48 2.9 0 0 2.32 0 5.55-.18 0 0 3.15-.33 6.2 1.32 0 0-2.72-2.8-3.8-3.05z" fill-rule="evenodd" clip-rule="evenodd"/></svg>