<?xml version="1.0" encoding="iso-8859-1"?><!-- Generator: Adobe Illustrator 16.0.0, SVG Export Plug-In . SVG Version: 6.00 Build 0) --><!DOCTYPE svg PUBLIC "-//W3C//DTD SVG 1.1//EN" "http://www.w3.org/Graphics/SVG/1.1/DTD/svg11.dtd"><svg version="1.1" id="Layer_1" xmlns="http://www.w3.org/2000/svg" xmlns:xlink="http://www.w3.org/1999/xlink" x="0px" y="0px" width="192.756px" height="192.756px" viewBox="0 0 192.756 192.756" style="enable-background:new 0 0 192.756 192.756;" xml:space="preserve"><g><polygon style="fill-rule:evenodd;clip-rule:evenodd;fill:#FFFFFF;" points="0,0 192.756,0 192.756,192.756 0,192.756 0,0	"/><path style="fill-rule:evenodd;clip-rule:evenodd;" d="M8.535,184.252L8.535,184.252L8.535,184.252L8.535,184.252z M96.479,8.504	c-48.381,0-87.742,39.36-87.742,87.742c0,48.383,39.361,87.742,87.742,87.742c48.359,0,87.742-39.359,87.742-87.742	C184.221,47.865,144.838,8.504,96.479,8.504L96.479,8.504z"/><path style="fill-rule:evenodd;clip-rule:evenodd;fill:#CD3529;" d="M11.154,96.246c0,46.939,38.269,85.139,85.325,85.139	c46.939,0,85.139-38.199,85.139-85.139c0-47.056-38.199-85.324-85.139-85.324C49.422,10.922,11.154,49.19,11.154,96.246	L11.154,96.246z M13.735,96.246c0-45.615,37.129-82.744,82.744-82.744c45.521,0,82.559,37.129,82.559,82.744	c0,45.521-37.037,82.559-82.559,82.559C50.864,178.805,13.735,141.768,13.735,96.246L13.735,96.246z"/><path style="fill-rule:evenodd;clip-rule:evenodd;fill:#FFFFFF;" d="M25.871,112.266c-0.349,0.186-0.698,0.697-0.884,1.232	c-0.163,0.348-0.163,0.859,0,1.557c0.186,0.885,0.698,1.582,1.232,1.93c0.86,0.35,1.744,0.512,2.604,0.162	c1.046-0.348,1.744-0.859,2.092-1.557s0.535-1.58,0.186-2.441c-0.186-0.535-0.349-0.883-0.698-1.047	c-0.349-0.348-0.883-0.697-1.581-0.697l0,0l-0.349-1.58l0,0c0.883,0,1.929,0.186,2.627,0.697c0.86,0.697,1.395,1.395,1.558,2.279	c0.349,1.209,0.349,2.604-0.349,3.648c-0.697,1.232-1.558,1.93-2.953,2.441c-1.395,0.35-2.627,0.188-3.673-0.348	c-1.046-0.697-1.906-1.559-2.255-2.953c-0.186-0.535-0.186-1.047-0.186-1.58c0-0.512,0.186-0.861,0.349-1.209l0,0l-0.697,0.348	l-0.349-1.232l2.976-0.859L25.871,112.266L25.871,112.266L25.871,112.266z M31.102,106.012l-1.395,0.186v-1.047l-6.626,0.512v1.047	h-1.232l-0.349-3.836l1.395-0.164v1.209l6.626-0.51l-0.163-2.279h-1.395l-0.186-1.395l2.79-0.35L31.102,106.012L31.102,106.012	L31.102,106.012z M27.08,94.689c0.883,0,1.395-0.187,1.581-0.349c0.349-0.349,0.512-0.698,0.512-1.232c0-0.698,0-1.046-0.349-1.395	c-0.349-0.163-0.86-0.349-1.558-0.349l0,0l-4.534-0.163v0.86h-1.395l0.163-3.65h1.395l-0.163,1.046l4.348,0.163l0,0	c0.697,0,1.232,0,1.581,0.186c0.349,0,0.698,0.163,1.046,0.349c0.349,0.349,0.697,0.697,0.86,1.209	c0.186,0.535,0.349,1.046,0.349,1.744c-0.163,0.534-0.163,1.232-0.349,1.581c-0.349,0.511-0.512,0.86-0.86,1.046	c-0.349,0.349-0.698,0.511-1.046,0.511c-0.534,0.186-1.046,0.186-1.743,0.186l0,0l-4.371-0.186v0.885h-1.395l0.186-3.674h1.209	v1.046L27.08,94.689L27.08,94.689L27.08,94.689z M27.615,82.134l2.953,0.697l0.186-0.697l0,0c0.163-0.698,0.163-1.046,0-1.396	c-0.186-0.349-0.535-0.697-1.046-0.697c-0.535-0.186-1.046-0.186-1.395,0.163c-0.186,0.186-0.535,0.534-0.697,1.232l0,0V82.134	L27.615,82.134L27.615,82.134z M24.127,81.25l2.255,0.697l0.186-0.697l0,0c0-0.512,0-0.86-0.186-1.209	c-0.163-0.349-0.349-0.535-0.511-0.535c-0.535-0.163-0.884,0-1.046,0.186c-0.349,0.163-0.535,0.512-0.535,0.86l0,0L24.127,81.25	L24.127,81.25L24.127,81.25z M31.265,85.784l-1.209-0.349l0.163-0.86l-6.439-1.581l-0.349,1.046l-1.232-0.349l0.697-3.302l0,0	c0.349-1.046,0.697-1.743,1.232-2.278c0.511-0.349,1.209-0.511,1.744-0.349c0.511,0.186,0.86,0.349,1.046,0.698	c0.349,0.349,0.511,0.697,0.511,1.395c0.186-0.698,0.698-1.046,1.046-1.395c0.534-0.163,1.046-0.349,1.743-0.163	c0.884,0.163,1.396,0.697,1.744,1.395s0.349,1.558,0,2.79l0,0L31.265,85.784L31.265,85.784L31.265,85.784z M33.892,75.857	l-1.232-0.349l0.349-1.046l-6.44-2.441l-0.349,1.046l-1.046-0.535l2.441-6.789l2.441,1.046l-0.535,1.395l-1.209-0.535l-1.046,2.79	l2.092,0.883l1.046-2.441l1.209,0.511l-0.86,2.441l2.79,1.046l1.046-2.79l-1.395-0.512l0.697-1.395l2.604,1.046L33.892,75.857	L33.892,75.857L33.892,75.857z M39.123,55.979l1.209-1.744l-3.301-1.046L39.123,55.979L39.123,55.979L39.123,55.979z M41.03,58.583	l0.534-0.86l1.209,0.697l-2.092,2.79l-1.046-0.698l0.535-0.697l-4.371-5.766l-0.512,0.697l-1.046-0.697l2.79-3.999l1.046,0.86	l-0.697,0.883l6.975,1.907l0.512-0.698l1.046,0.883l-1.906,2.79l-1.232-0.697l0.697-0.884l-1.743-0.512l-1.744,2.441L41.03,58.583	L41.03,58.583L41.03,58.583z M49.236,48.655l0.86-0.883l1.046,0.883l-2.953,2.953l-0.883-0.86l0.883-0.883l-5.068-4.696	l-0.86,1.046l1.046,0.86l-1.046,1.046l-1.93-1.744l4.882-5.231l1.93,1.744l-1.046,1.046l-1.046-0.86l-0.698,0.86L49.236,48.655	L49.236,48.655L49.236,48.655z M54.282,45.866l-0.698-1.046l0.698-0.535l-4.185-5.394l-0.86,0.512l-0.698-1.046l2.953-2.255	l0.883,1.046l-0.883,0.698l4.185,5.394l1.93-1.558l-1.046-1.232l1.209-0.86l1.744,2.255L54.282,45.866L54.282,45.866L54.282,45.866	z M61.791,40.448l-0.697-1.209l0.86-0.535l-3.301-5.928l-0.883,0.535l-0.698-1.232l6.277-3.487l1.232,2.278l-1.232,0.698	l-0.698-1.046l-2.604,1.395l1.209,2.092l2.278-1.232l0.697,1.232l-2.278,1.209l1.581,2.627l2.604-1.395l-0.86-1.396l1.395-0.697	l1.395,2.441L61.791,40.448L61.791,40.448L61.791,40.448z M59.164,29.986v-2.604l1.232-0.697l-0.535,2.79L59.164,29.986	L59.164,29.986L59.164,29.986z M74.694,32.776l1.046-0.512l0.512,1.395l-3.999,1.209l-0.349-1.209l1.209-0.349l-2.255-6.463	l-1.232,0.349l0.535,1.395L68.58,28.94l-0.86-2.441l6.789-2.441l0.883,2.627l-1.395,0.511l-0.349-1.395l-1.232,0.535L74.694,32.776	L74.694,32.776L74.694,32.776z M82.878,30.521l0.884-0.186l0.349,1.232l-3.673,0.86l-0.349-1.209l1.046-0.349l-1.558-6.626	l-0.884,0.163l-0.349-1.209l3.673-0.884l0.163,1.395l-0.86,0.186L82.878,30.521L82.878,30.521L82.878,30.521z M93.526,24.058	c-0.186-0.512-0.534-0.86-1.046-1.209c-0.349-0.186-0.883-0.349-1.395-0.349c-1.046,0.163-1.744,0.511-2.279,1.209	c-0.511,0.535-0.697,1.395-0.697,2.441c0.186,1.046,0.535,1.744,1.046,2.278c0.697,0.512,1.395,0.86,2.441,0.698	c0.535,0,1.046-0.186,1.395-0.535c0.349-0.163,0.697-0.697,1.046-1.209l0,0l1.581-0.186l0,0c-0.187,1.046-0.535,1.744-1.232,2.441	c-0.86,0.698-1.558,1.047-2.604,1.232c-1.395,0-2.627-0.349-3.674-1.232c-1.046-0.86-1.558-1.906-1.744-3.301	c-0.163-1.395,0.186-2.627,1.046-3.674c0.883-1.046,1.93-1.558,3.325-1.744c0.511,0,1.046,0,1.558,0.186	c0.349,0.163,0.883,0.349,1.046,0.697l0,0v-0.883l1.395-0.163l0.186,3.139L93.526,24.058L93.526,24.058L93.526,24.058z M99.594,25.29c0.186-1.395,0.697-2.441,1.744-3.325c1.047-0.697,2.279-1.046,3.674-0.86c0.697,0,1.395,0.163,1.906,0.512	c0.535,0.186,0.883,0.535,1.232,1.046c0.512,0.535,0.859,1.232,1.045,1.744c0.35,0.697,0.35,1.395,0.164,2.092	c0,0.697-0.164,1.232-0.512,1.744c-0.35,0.697-0.697,1.046-1.047,1.581c-0.697,0.349-1.232,0.697-1.93,0.86	c-0.512,0.186-1.209,0.186-1.906,0.186c-1.395-0.186-2.627-0.884-3.486-1.93C99.779,27.894,99.455,26.685,99.594,25.29	L99.594,25.29L99.594,25.29z M101.338,25.639c-0.162,0.86,0,1.744,0.535,2.441c0.512,0.698,1.395,1.046,2.254,1.209	c0.885,0,1.582-0.163,2.279-0.697c0.697-0.512,1.047-1.209,1.209-2.255c0.186-0.884,0-1.744-0.512-2.441	c-0.535-0.697-1.395-1.046-2.277-1.232c-0.861-0.163-1.559,0.186-2.256,0.698C101.873,23.895,101.523,24.592,101.338,25.639	L101.338,25.639L101.338,25.639z M123.309,27.034l-1.395,3.139l0.533,0.163l0,0c0.699,0.349,1.396,0.349,1.744,0.349	c0.512-0.163,0.861-0.512,1.047-1.047c0.162-0.511,0.162-1.046,0-1.395c-0.35-0.349-0.697-0.697-1.582-1.046l0,0L123.309,27.034	L123.309,27.034L123.309,27.034z M120.705,33.311l1.045,0.511l-0.348,1.232l-3.674-1.581l0.35-1.209l1.045,0.512l2.627-6.44	l-1.045-0.349l0.51-1.232l2.977,1.232l0,0c1.209,0.512,2.092,1.046,2.604,1.744c0.35,0.86,0.35,1.558,0,2.604	c-0.348,0.883-0.859,1.395-1.742,1.581c-0.861,0.349-1.906,0.163-3.139-0.349l0,0l-0.512-0.186L120.705,33.311L120.705,33.311	L120.705,33.311z M130.633,34.706l1.928,1.047l0.699-3.325L130.633,34.706L130.633,34.706L130.633,34.706z M128.191,36.798	l0.883,0.512l-0.535,1.046l-2.953-1.744l0.697-1.046l0.512,0.349l5.58-4.696l-0.859-0.534l0.697-1.209l4.186,2.441l-0.697,1.209	l-1.047-0.512l-1.395,7.138l0.859,0.349l-0.697,1.232l-3.139-1.929l0.697-1.046l0.883,0.535l0.35-1.929l-2.627-1.396	L128.191,36.798L128.191,36.798L128.191,36.798z M142.488,38.007l-1.395,1.93l0.883,0.697l0,0c0.512,0.349,0.861,0.697,1.209,0.697	c0.35,0,0.699-0.186,0.885-0.534c0.348-0.349,0.348-0.698,0.348-1.046c-0.186-0.349-0.348-0.698-0.883-1.046l0,0L142.488,38.007	L142.488,38.007L142.488,38.007z M138.305,43.424l0.883,0.697l-0.697,1.046l-3.139-2.441l0.859-1.047l0.697,0.698l4.371-5.417	l-0.883-0.698l0.883-1.046l2.953,2.441l0,0c1.047,0.697,1.582,1.395,1.744,2.092c0.186,0.697,0,1.232-0.512,1.929	c-0.35,0.349-0.697,0.698-1.047,0.86c-0.533,0-0.883,0-1.395-0.162c0.162,0.349,0.35,0.697,0.512,1.046	c0,0.349-0.162,0.697-0.512,1.046l0,0l-1.232,1.558l0.697,0.535l-0.859,1.046l-2.094-1.581l1.559-1.907l0,0	c0.535-0.697,0.697-1.046,0.697-1.395s-0.348-0.884-0.859-1.232l0,0l-0.697-0.512L138.305,43.424L138.305,43.424L138.305,43.424z M148.953,48.818l1.395,1.744l1.742-2.953L148.953,48.818L148.953,48.818L148.953,48.818z M145.977,50.213l0.697,0.697	l-1.047,0.883l-2.254-2.627l1.045-0.86l0.512,0.511l6.627-2.604l-0.697-0.698l1.045-0.883l3.139,3.673l-0.859,0.86l-0.697-0.86	l-3.674,6.277l0.535,0.698l-1.047,0.859l-2.279-2.79l0.885-0.86l0.697,0.697l1.047-1.581l-2.094-2.093L145.977,50.213	L145.977,50.213L145.977,50.213z M153.299,59.629l0.535,0.883l-1.232,0.698l-1.906-3.139l1.209-0.698l0.535,0.86l5.742-3.65	l-0.512-0.883l1.209-0.698l1.396,2.441l-3.303,6.277l4-2.604l-0.512-0.884l1.209-0.697l1.93,3.139l-1.232,0.697l-0.512-0.86	l-7.16,4.348l-0.697-1.209l4.021-6.975L153.299,59.629L153.299,59.629L153.299,59.629z M162.018,69.394l0.697,1.93l2.627-2.092	L162.018,69.394L162.018,69.394L162.018,69.394z M158.879,69.58l0.35,0.86l-1.209,0.535l-1.232-3.139l1.232-0.535l0.162,0.697	l7.324-0.163l-0.35-1.046l1.232-0.349l1.744,4.534l-1.232,0.349l-0.512-1.046l-5.416,4.696l0.186,0.884l-1.232,0.349l-1.209-3.325	l1.209-0.511l0.35,1.046l1.395-1.232l-1.047-2.79L158.879,69.58L158.879,69.58L158.879,69.58z M160.623,78.461l1.232-0.163	l0.162,0.86l6.812-1.395l-0.348-1.046l1.395-0.349l1.557,7.161l-2.441,0.511l-0.348-1.395l1.232-0.349l-0.697-2.953l-2.441,0.512	l0.697,2.441l-1.395,0.349l-0.535-2.441l-2.953,0.697l0.512,2.976l1.58-0.349l0.35,1.395l-2.789,0.697L160.623,78.461	L160.623,78.461L160.623,78.461z M164.297,91.201v1.046h-1.232l-0.162-3.674h1.395v1.047l6.789-0.163v-1.046h1.395v2.953	l-6.092,3.487l4.883-0.162v-1.047h1.209l0.186,3.651h-1.395v-1.047l-8.369,0.186v-1.394l7.137-4.022L164.297,91.201L164.297,91.201	L164.297,91.201z M163.6,102.361l-0.885-0.186l0.188-1.396l3.139,0.535l-0.188,1.209l0,0c-0.697,0.186-1.209,0.35-1.557,0.697	c-0.35,0.35-0.697,0.885-0.697,1.396c0,0.348,0,0.697,0.348,1.045c0.164,0.35,0.512,0.535,0.861,0.697	c0.348,0,0.697-0.162,0.883-0.348c0.35-0.164,0.512-0.697,0.859-1.209l0,0l0.35-1.047l0,0c0.35-0.883,0.697-1.395,1.232-1.744	c0.512-0.348,1.047-0.535,1.744-0.348c0.697,0,1.395,0.348,1.742,1.045c0.512,0.512,0.699,1.209,0.512,2.094	c0,0.512-0.162,0.859-0.348,1.209c-0.164,0.348-0.35,0.697-0.697,0.859l0,0h0.697l-0.164,1.395l-2.789-0.348l0.162-1.373l0,0	c0.535,0,0.885-0.186,1.232-0.533c0.35-0.164,0.512-0.697,0.512-1.047c0.186-0.512,0-0.859-0.162-1.047	c-0.186-0.348-0.35-0.51-0.697-0.51c-0.35,0-0.535,0-0.885,0.162c-0.162,0.186-0.348,0.348-0.51,0.697l0,0l-0.35,1.232l0,0	c-0.535,1.045-1.047,1.721-1.395,2.068c-0.535,0.35-1.232,0.512-1.93,0.35c-0.861-0.186-1.559-0.535-2.094-1.047	c-0.348-0.512-0.51-1.371-0.51-2.254c0.162-0.512,0.348-0.861,0.51-1.396C162.902,102.873,163.25,102.523,163.6,102.361	L163.6,102.361L163.6,102.361z M161.67,110.521l1.232,0.348l-0.188,1.047l6.627,1.582l0.186-0.885l1.209,0.35l-1.906,6.975	l-2.441-0.697l0.35-1.395l1.209,0.348l0.883-2.953l-2.279-0.697l-0.697,2.441l-1.395-0.348l0.697-2.441l-2.951-0.885l-0.885,2.791	l1.582,0.535l-0.535,1.395l-2.604-0.697L161.67,110.521L161.67,110.521L161.67,110.521z"/><path style="fill-rule:evenodd;clip-rule:evenodd;fill:#FFFFFF;" d="M81.134,170.156l0.186-1.209l1.046,0.162l1.209-6.439	l-1.046-0.188l0.186-1.395l2.604,0.535l-1.395,7.834l1.046,0.188l-0.163,1.045L81.134,170.156L81.134,170.156L81.134,170.156z M92.48,163.529c-0.349,0-0.697,0.186-1.046,0.35c-0.186,0.348-0.349,0.697-0.349,1.232c0,0.348,0,0.697,0.163,1.045	c0.349,0.35,0.535,0.512,1.046,0.512c0.349,0,0.698-0.162,0.883-0.348c0.349-0.35,0.512-0.699,0.512-1.047	c0-0.512,0-0.859-0.163-1.209C93.177,163.879,92.829,163.715,92.48,163.529L92.48,163.529L92.48,163.529z M90.899,168.947	c0,0.348,0,0.697,0.186,1.045c0.163,0.164,0.512,0.164,0.86,0.164c0.535,0,0.883,0,1.046-0.164	c0.186-0.348,0.349-0.883,0.534-1.742l0,0v-0.699l0,0c-0.349,0.164-0.534,0.35-0.883,0.35c-0.349,0.162-0.511,0.162-0.86,0.162	c-0.698,0-1.395-0.348-1.744-1.045c-0.535-0.512-0.697-1.209-0.535-2.094c0-0.859,0.349-1.557,0.884-2.092	c0.697-0.512,1.395-0.697,2.255-0.697c1.046,0.186,1.744,0.535,2.092,1.047c0.535,0.697,0.697,1.58,0.535,2.789l0,0l-0.186,2.789	l0,0c-0.163,1.047-0.511,1.744-1.046,2.094c-0.512,0.535-1.209,0.883-2.255,0.697c-0.884,0-1.582-0.35-1.93-0.861	c-0.511-0.533-0.697-1.045-0.511-1.742l0,0v-0.188L90.899,168.947L90.899,168.947L90.899,168.947z M102.385,168.598h1.395	l0.348,2.441l-6.066,0.512v-1.209l2.58-3.488l0,0c0.535-0.533,0.697-1.045,0.883-1.395c0.162-0.348,0.35-0.697,0.35-1.045	c-0.188-0.35-0.188-0.535-0.535-0.699c-0.162-0.186-0.512-0.348-0.859-0.186c-0.535,0-0.885,0.186-1.023,0.535	c-0.35,0.35-0.35,0.859-0.186,1.744l0,0v0.162l-1.559,0.186l0,0v-0.186v-0.162c-0.186-1.232,0-2.094,0.512-2.627	c0.348-0.699,1.047-1.047,2.068-1.047c0.885-0.162,1.582,0,2.094,0.535c0.697,0.348,0.883,0.859,1.045,1.744	c0,0.348,0,0.859-0.348,1.395c-0.164,0.512-0.512,1.045-1.209,1.906l0,0l-2.094,2.441l2.605-0.164V168.598L102.385,168.598	L102.385,168.598z M107.965,167.551l2.277-0.348l-0.348-2.279l0,0c-0.188-0.348-0.188-0.51-0.188-0.859s0-0.697,0-1.047l0,0	L107.965,167.551L107.965,167.551L107.965,167.551z M109.545,170.504l-0.186-1.047l1.232-0.162l-0.188-1.045l-3.486,0.697	l-0.35-1.232l2.627-6.441l1.396-0.186l1.045,5.766l1.047-0.186l0.348,1.047l-1.23,0.348l0.186,0.885l1.209-0.188l0.186,1.232	L109.545,170.504L109.545,170.504L109.545,170.504z"/><path style="fill-rule:evenodd;clip-rule:evenodd;fill:#CD3529;" d="M138.838,53.677c-11.414-11.369-26.527-17.646-42.522-17.646	c-15.949,0-31.015,6.277-42.406,17.67C42.518,65.069,36.263,80.135,36.263,96.084c0,15.994,6.254,31.107,17.646,42.521	c11.392,11.393,26.434,17.693,42.406,17.693c33.176,0,60.192-27.039,60.192-60.215C156.508,80.135,150.23,65.069,138.838,53.677	L138.838,53.677z M54.467,135.445V56.839c0.418-0.442,0.837-0.884,1.279-1.326c4.603-4.603,9.811-8.323,15.461-11.09v103.459	c-5.65-2.766-10.858-6.51-15.461-11.113C55.305,136.328,54.886,135.887,54.467,135.445L54.467,135.445z M88.109,153.113V39.193	c2.697-0.372,5.44-0.581,8.207-0.581c2.883,0,5.719,0.209,8.51,0.627v113.829c-2.791,0.418-5.604,0.627-8.51,0.627	C93.549,153.695,90.806,153.51,88.109,153.113L88.109,153.113z M121.75,147.768V44.541c5.557,2.767,10.719,6.44,15.252,10.973	c0.512,0.512,1,1.023,1.488,1.535v78.233C133.725,140.396,128.051,144.65,121.75,147.768L121.75,147.768z"/><path style="fill-rule:evenodd;clip-rule:evenodd;fill:#FFFFFF;" d="M96.665,56.676c-6.812,0.86-13.089,3.999-18.669,8.532	c-9.579-2.79-24.76,2.79-28.759,24.947c-0.349,2.604-0.883,6.626-2.976,9.415c2.441,1.209,4.185,4,5.417,6.441	c4.882,10.438,10.462,16.715,16.205,20.389c0.349,3.836-0.697,8.369-5.231,11.322c3.325,3.324,7.858,3.139,11.16,0.186	c4.533,2.256,9.253,2.256,12.392-1.58c-3.487-0.512-6.114-3.301-7.51-5.928c9.602,1.742,18.833,1.045,27.364-3.488	c0,3.324-0.883,6.812-4.719,7.324c1.744,3.836,6.463,4.533,9.951,0.186c5.58,3.301,9.926,2.092,11.322-4.186	c-5.395,1.395-7.672-3.486-7.672-8.369c9.949-5.58,23.551-15.67,29.643-14.646c-2.094-2.604-4.535-4.162-6.975-4.162	c0.533-2.279,1.23-4.533,2.277-6.812c-8.207,4.021-17.088,12.369-25.645,18.646l0,0v-12.881l0,0	c3.141,1.906,6.627,3.65,10.998,1.047c3.139-1.93,5.23-7.672,7.834-18.483c0.697-2.278,1.582-5.231,3.674-6.975	c-2.092-2.627-3.486-4.534-3.836-7.509c-1.93-14.81-6.975-17.437-13.252-17.6c-5.418-0.349-7.857,2.092-10.996,3.999	c-2.953-1.558-5.395-1.744-8.371-2.092c4.883,11.694,4.023,23.551,1.395,35.408c2.629,3.836,3.326,15.159,3.326,29.434	c-8.696,5.068-17.763,4.021-28.062,1.395l0,0v-10.463l0,0c4.534,0,8.021-1.906,10.648-5.207c0.86,5.395-0.349,9.928-4.533,12.531	c2.093,3.488,5.742,3.488,9.067,0.535c5.742,3.65,9.392,1.209,11.136-1.93c-7.998-1.395-7.835-11.299-4.697-25.946	C95.27,79.693,95.432,68.347,96.665,56.676L96.665,56.676L96.665,56.676z M113.031,65.208c1.744-7.835,8.883-6.789,10.625,0	c1.232,4.185-0.51,9.253-1.906,13.09c1.209,2.255,2.791,7.137,2.094,9.578c-1.582,6.626-7.672,7.324-10.648,0.349	c-1.209-2.952,0.535-7.137,2.092-9.927C113.893,74.625,111.986,69.394,113.031,65.208L113.031,65.208L113.031,65.208z M72.067,71.672c-4.696,4.534-4.348,10.276-4.348,19.529c0,2.441-1.046,3.999-2.976,5.93c3.487,5.045,2.976,9.578,2.093,14.623	C62.837,108.43,62.14,103.756,63,98.34c-5.23-5.744-3.998-14.299,0.535-21.437C65.092,74.276,68.58,71.323,72.067,71.672	L72.067,71.672L72.067,71.672z M76.601,102.176c-1.209-11.672-1.046-21.971,2.441-28.597c2.092,0.883,2.092,3.139,0.883,3.836	c-2.976,1.744-1.93,6.812,2.255,4.882c5.068-2.441,2.79-9.416,1.046-12.903c0.698-0.511,1.395-1.209,2.279-1.744	c2.952,6.812,3.487,19.366,0.349,27.388C84.11,99.385,80.971,102.176,76.601,102.176L76.601,102.176L76.601,102.176z"/><path style="fill-rule:evenodd;clip-rule:evenodd;fill:#8E9192;" d="M109.871,54.956c0,0-0.861,0.558-1.256,0.813	c-2.674-1.348-4.93-1.627-7.533-1.93l-0.721-0.07l-0.65,0.884c2.557,6.138,3.439,12.299,3.439,18.111	c0,6.161-0.998,11.927-2.092,16.902l-0.047,0.279l0.141,0.232c2.836,4.139,3.186,18.228,3.207,28.689	c-8.043,4.535-16.552,3.814-26.759,1.279c0-0.883,0-8.322,0-9.346c3.743-0.162,6.951-1.605,9.532-4.324	c0.047,0.557,0.093,1.115,0.093,1.65c0,3.998-1.511,6.951-4.51,8.834l-0.535,0.326l0.326,0.559	c0.999,1.674,2.394,2.674,4.045,2.928c1.79,0.279,3.767-0.441,5.626-1.975c2.534,1.51,4.883,2.045,6.975,1.51	c2.418-0.627,3.883-2.463,4.674-3.881l-0.441-0.955c-2-0.348-3.441-1.23-4.418-2.719c-2.395-3.559-2.326-10.463,0.232-22.459	l0.047-0.186l-0.047-0.163c-3.581-11.276-2.907-23.668-1.906-33.2l-0.721-0.721c-6.44,0.837-12.74,3.697-18.716,8.486	c-5.068-1.372-10.764-0.418-15.693,2.627c-4.836,2.999-11.113,9.416-13.578,22.901c0,0.023,0,0.093,0,0.093	c-0.349,2.558-0.86,6.417-2.836,9.044l0.232,0.977c1.813,0.906,3.487,2.93,5.115,6.16c4.487,9.58,9.765,16.275,16.158,20.438	c0.023,0.301,0.047,0.604,0.047,0.953c0,2.766-0.837,6.766-4.999,9.484l-0.093,1c3.302,3.303,8.067,3.488,11.718,0.465	c5.138,2.418,9.764,1.744,12.764-1.906l-0.395-1.045c-3.139-0.467-5.231-2.838-6.324-4.441c9.555,1.512,17.901,0.441,25.387-3.277	c-0.232,3.416-1.557,5.277-4.115,5.625l-0.488,0.906c0.908,1.977,2.535,3.256,4.512,3.512c2.139,0.256,4.371-0.768,6.16-2.791	c2.953,1.629,5.604,2.047,7.695,1.141c2.047-0.885,3.441-2.906,4.115-5.998l-0.791-0.768c-1.697,0.441-3.139,0.232-4.254-0.65	c-1.557-1.209-2.512-3.721-2.58-6.744c2.465-1.395,5.115-3.021,7.904-4.766c7.812-4.836,16.67-10.322,20.971-9.602l0.605-1.023	c-2.07-2.58-4.371-4.068-6.674-4.348c0.559-2.23,1.209-4.137,2.047-5.951l-0.885-0.86c-5.602,2.743-11.578,7.556-17.367,12.183	c-2.418,1.953-4.904,3.93-7.322,5.742c0-1.883,0-8.764,0-10.461c3.092,1.789,6.486,2.975,10.672,0.488	c3.51-2.162,5.648-8.557,8.137-18.879c0-0.023,0.047-0.14,0.047-0.14c0.674-2.185,1.51-4.928,3.416-6.51l0.488-0.395l-0.418-0.488	c-2.068-2.604-3.371-4.395-3.697-7.185c-1.906-14.81-6.928-17.995-13.879-18.181C114.984,51.538,112.404,53.282,109.871,54.956	L109.871,54.956z M109.01,57.048l1.582-1.023c2.439-1.627,4.766-3.162,9.02-2.883c5.092,0.14,10.648,1.581,12.648,17.042	c0.348,2.93,1.65,4.882,3.604,7.347c-1.838,1.837-2.674,4.51-3.348,6.696l-0.047,0.186h-0.023	c-2.348,9.765-4.441,16.181-7.557,18.087c-3.998,2.395-7.16,0.885-10.299-1.045l-1,0.557v12.881l1.047,0.512	c2.766-2.023,5.627-4.324,8.393-6.533c5.186-4.162,10.508-8.416,15.555-11.184c-0.629,1.582-1.164,3.279-1.605,5.23l0.629,0.791	c1.812,0,3.719,1,5.51,2.836c-4.953,0.326-12.74,5.139-20.273,9.812c-2.906,1.812-5.674,3.51-8.207,4.951l-0.326,0.186v0.373	c0,3.627,1.117,6.58,3.092,8.113c1.209,0.93,2.65,1.303,4.324,1.07c-0.627,2.139-1.674,3.533-3.115,4.139	c-1.789,0.789-4.23,0.324-6.998-1.326l-0.488-0.279l-0.348,0.441c-1.559,1.953-3.512,2.93-5.348,2.721	c-1.256-0.162-2.324-0.906-3.068-2.045c2.139-0.629,4.348-2.559,4.348-7.789l-0.953-0.559c-7.836,4.162-16.67,5.277-26.946,3.418	l-0.674,0.93c1.604,3.047,4.115,5.209,6.835,6.021c-3.58,3.418-8.276,1.906-10.857,0.605l-0.395-0.186l-0.326,0.277	c-2.999,2.674-6.789,2.768-9.671,0.35c4.045-3.021,4.882-7.16,4.882-10.043c0-0.512-0.023-0.977-0.07-1.396l-0.023-0.301	l-0.279-0.188c-6.3-3.998-11.531-10.578-15.972-20.086c-1.581-3.162-3.255-5.254-5.092-6.395c1.837-2.859,2.348-6.556,2.697-9.067	v-0.046c2.372-12.996,8.37-19.157,12.997-22.017c4.626-2.883,10.229-3.766,14.949-2.395l0.326,0.093l0.279-0.209	c5.603-4.58,11.508-7.323,17.53-8.276c-0.395,3.929-0.744,8.3-0.744,12.856c0,6.486,0.675,13.345,2.72,19.878	c-1.348,6.231-1.999,11.089-1.999,14.88c0,3.766,0.651,6.463,1.976,8.416c1.023,1.533,2.465,2.557,4.324,3.068	c-0.721,1.023-1.812,2.092-3.395,2.512c-1.836,0.465-3.975-0.07-6.346-1.582l-0.418-0.256l-0.372,0.326	c-1.674,1.488-3.417,2.186-4.952,1.953c-1.069-0.164-2.023-0.814-2.79-1.838c2.999-2.139,4.557-5.393,4.557-9.602	c0-1-0.093-2.068-0.279-3.186l-1.139-0.301c-2.627,3.301-6.021,4.975-10.137,4.975l-0.651,0.627v10.975l0.488,0.115	c10.88,2.768,19.901,3.582,28.549-1.463l0.303-0.188v-0.371c0-16.764-1-25.9-3.254-29.55c1.092-4.999,2.068-10.764,2.068-16.925	c0-5.649-0.836-11.625-3.162-17.6c2.418,0.279,4.58,0.582,7.068,1.907l0.348,0.186L109.01,57.048L109.01,57.048z"/><path style="fill-rule:evenodd;clip-rule:evenodd;fill:#8E9192;" d="M118.031,59.071c-2.697,0.047-4.812,2.278-5.627,5.998	c-0.232,0.884-0.326,1.814-0.326,2.767c0,3.72,1.488,7.718,2.512,10.416c-1.232,2.232-2.441,5.115-2.441,7.719	c0,0.86,0.141,1.721,0.465,2.511c1.512,3.557,3.953,5.534,6.58,5.324c2.465-0.209,4.486-2.418,5.277-5.766	c0.139-0.488,0.186-1.023,0.186-1.604c0-2.72-1.277-6.324-2.209-8.184c1.186-3.301,2.279-6.696,2.279-9.927	c0-1.116-0.139-2.232-0.441-3.278C123.355,61.442,120.844,59.024,118.031,59.071L118.031,59.071z M113.799,87.97	c-1.186-2.836,0.791-7.091,2.047-9.37l0.162-0.255l-0.115-0.279c-1.232-3.208-3.279-8.579-2.232-12.694v-0.023	c0.674-3.092,2.324-4.952,4.395-4.975c1.836-0.046,4.092,1.511,4.975,4.999c1.209,4.162-0.65,9.3-1.883,12.694l-0.117,0.279	l0.141,0.255c1.277,2.349,2.65,6.952,2.045,9.114c-0.674,2.813-2.254,4.626-4.139,4.79	C117.055,92.689,115.078,90.992,113.799,87.97L113.799,87.97z M112.404,65.069L112.404,65.069L112.404,65.069L112.404,65.069z"/><path style="fill-rule:evenodd;clip-rule:evenodd;fill:#8E9192;" d="M62.977,76.578c-2.697,4.231-4.046,8.556-4.046,12.508	c0,3.581,1.139,6.858,3.395,9.463c-0.186,1.301-0.302,2.533-0.302,3.672c0,4.348,1.441,7.58,4.394,10.021l1.069-0.373	c0.349-2.139,0.651-4.137,0.651-6.043c0-2.885-0.651-5.65-2.581-8.627c1.744-1.79,2.79-3.487,2.79-5.998v-1.79	c0-0.558,0-1.116,0-1.651c0-7.277,0.256-11.857,4.162-15.623l-0.372-1.116C68.51,70.672,64.79,73.532,62.977,76.578L62.977,76.578z M63.326,102.176c0-1.141,0.093-2.395,0.325-3.721l0.046-0.303l-0.209-0.232c-2.325-2.58-3.278-5.626-3.278-8.741	c0-4.162,1.674-8.463,3.859-11.927c1.325-2.209,3.882-4.394,6.463-4.859c-3.231,3.906-3.464,8.695-3.464,15.415	c0,0.534,0,1.069,0,1.604v1.79c0,2.255-0.976,3.673-2.766,5.463l-0.396,0.396l0.302,0.441c1.976,2.859,2.627,5.557,2.627,8.369	c0,1.465-0.187,3-0.442,4.604C64.325,108.383,63.326,105.686,63.326,102.176L63.326,102.176z"/><path style="fill-rule:evenodd;clip-rule:evenodd;fill:#8E9192;" d="M83.575,68.301l-1.139,0.907l0.209,0.488	c0.674,1.349,2.79,6.021,1.651,9.369c-0.396,1.209-1.186,2.069-2.395,2.65c-1.325,0.605-2.348,0.465-2.813-0.418	c-0.511-0.977-0.163-2.534,1.163-3.325c0.767-0.418,1.186-1.302,1.139-2.278c-0.07-1.186-0.86-2.186-2.093-2.697l-0.558-0.233	l-0.256,0.512c-3.162,5.998-3.953,15.205-2.511,28.968l0.046,0.582h0.581c4.394,0,7.905-2.674,9.858-7.556	c3.324-8.532,2.488-21.296-0.372-27.876l-0.93-0.279C84.552,67.464,84.041,67.906,83.575,68.301L83.575,68.301z M84.389,69.277	c0.256-0.209,0.535-0.418,0.813-0.627c1.325,3.464,2.139,8.346,2.139,13.368c0,4.487-0.627,9.044-2.092,12.787	c-1.651,4.115-4.511,6.462-8.068,6.695c-0.395-4.115-0.627-7.811-0.627-11.112c0-6.882,0.93-12.066,2.79-15.902	c0.442,0.326,0.721,0.791,0.744,1.302c0.023,0.023,0.023,0.07,0.023,0.093c0,0.418-0.209,0.79-0.512,0.976	c-1.372,0.814-1.999,2.208-1.999,3.487c0,0.558,0.116,1.093,0.349,1.558c0.628,1.186,2.139,2.069,4.51,1	c1.511-0.744,2.534-1.883,3.069-3.417c0.279-0.837,0.395-1.697,0.395-2.581c0-2.907-1.209-5.882-1.883-7.324	C84.227,69.44,84.389,69.277,84.389,69.277L84.389,69.277z"/></g></svg>