<?xml version="1.0" encoding="iso-8859-1"?><!-- Generator: Adobe Illustrator 16.0.0, SVG Export Plug-In . SVG Version: 6.00 Build 0) --><!DOCTYPE svg PUBLIC "-//W3C//DTD SVG 1.1//EN" "http://www.w3.org/Graphics/SVG/1.1/DTD/svg11.dtd"><svg version="1.1" id="Layer_1" xmlns="http://www.w3.org/2000/svg" xmlns:xlink="http://www.w3.org/1999/xlink" x="0px" y="0px" width="192.756px" height="192.756px" viewBox="0 0 192.756 192.756" style="enable-background:new 0 0 192.756 192.756;" xml:space="preserve"><g><polygon style="fill-rule:evenodd;clip-rule:evenodd;fill:#FFFFFF;" points="0,0 192.756,0 192.756,192.756 0,192.756 0,0	"/><path style="fill-rule:evenodd;clip-rule:evenodd;fill:#FFFFFF;" d="M96.381,189.922C10.867,137.912,20.289,34.618,20.289,34.618	C78.264,35.34,96.381,2.834,96.381,2.834h-0.007c0,0,18.118,32.505,76.092,31.783c0,0,9.422,103.294-76.092,155.304H96.381	L96.381,189.922z"/><path style="fill:none;stroke:#000000;stroke-width:1.0001;stroke-linejoin:round;stroke-miterlimit:2.6131;" d="M96.381,179.631	c-0.001,0-0.002-0.002-0.003-0.002s-0.002,0.002-0.003,0.002 M96.375,179.631h0.006"/><path style="fill-rule:evenodd;clip-rule:evenodd;stroke:#000000;stroke-width:1.0001;stroke-miterlimit:2.6131;" d="	M164.098,41.411c-51.494,0.642-67.654-28.164-67.72-28.282c-0.066,0.118-16.227,28.923-67.72,28.282c0,0-1.275,13.986,1.685,33.792	c76.186,0,113.643,0,132.069,0C165.373,55.397,164.098,41.411,164.098,41.411L164.098,41.411z"/><path style="fill-rule:evenodd;clip-rule:evenodd;stroke:#000000;stroke-width:1.0001;stroke-miterlimit:2.6131;" d="	M85.975,79.538c0,48.063,0,76.405,0,93.089c3.284,2.428,6.736,4.771,10.403,7.002c3.747-2.279,7.274-4.678,10.622-7.162	c0-16.703,0-45.014,0-92.929C100.568,79.538,93.586,79.538,85.975,79.538L85.975,79.538z"/><path style="fill-rule:evenodd;clip-rule:evenodd;stroke:#000000;stroke-width:1.0001;stroke-miterlimit:2.6131;" d="	M58.427,79.538c0,28.114,0,49.485,0,65.712c5.823,7.803,12.765,15.316,21.025,22.242c0-17.168,0-44.494,0-87.954	C72.882,79.538,65.882,79.538,58.427,79.538L58.427,79.538z"/><path style="fill-rule:evenodd;clip-rule:evenodd;stroke:#000000;stroke-width:1.0001;stroke-miterlimit:2.6131;" d="	M31.047,79.538c2.916,16.72,8.896,36.888,20.857,56.144c0-14.812,0-33.244,0-56.144C45.295,79.538,38.356,79.538,31.047,79.538	L31.047,79.538z"/><path style="fill-rule:evenodd;clip-rule:evenodd;stroke:#000000;stroke-width:1.0001;stroke-miterlimit:2.6131;" d="	M141.07,79.538c0,22.718,0,41.042,0,55.794c11.816-19.15,17.74-39.176,20.639-55.794C156.457,79.538,149.717,79.538,141.07,79.538	L141.07,79.538z"/><path style="fill-rule:evenodd;clip-rule:evenodd;stroke:#000000;stroke-width:1.0001;stroke-miterlimit:2.6131;" d="	M113.521,79.538c0,43.306,0,70.591,0,87.771c8.268-6.961,15.211-14.512,21.025-22.348c0-16.191,0-37.475,0-65.423	C128.4,79.538,121.436,79.538,113.521,79.538L113.521,79.538z"/><path style="fill-rule:evenodd;clip-rule:evenodd;fill:#FFFFFF;" d="M68.199,62.184c-1.033,2.534-2.886,4.243-5.02,4.243	c-3.254,0-5.892-3.933-5.892-8.785c0-4.852,2.638-8.785,5.892-8.785c2.124,0,3.97,1.692,5.006,4.207c2.647,0,4.681,0,6.199,0	c-1.534-5.517-6.044-9.074-11.75-9.074c-7.075,0-11.233,6.187-11.233,14.085s4.52,13.218,11.595,13.218	c5.539,0,9.722-3.711,11.282-9.11C72.739,62.184,70.751,62.184,68.199,62.184L68.199,62.184z"/><path style="fill-rule:evenodd;clip-rule:evenodd;fill:#FFFFFF;" d="M101.676,70.356h5.799L97.328,43.99c0,0-0.008,0-0.633,0	c-2.309,0-3.477,0-4.077,0c-0.624,0-0.633,0-0.633,0L81.838,70.356h5.798l1.737-5.057h10.566L101.676,70.356L101.676,70.356z M90.987,60.604l3.669-10.681l3.67,10.681H90.987L90.987,60.604z"/><polygon style="fill-rule:evenodd;clip-rule:evenodd;fill:#FFFFFF;" points="115.74,70.401 115.74,43.99 123.77,43.99	128.547,62.006 133.322,43.99 141.354,43.99 141.354,70.401 136.395,70.401 136.361,49.611 131.047,70.401 125.973,70.401	120.734,49.611 120.699,70.401 115.74,70.401	"/><path style="fill:none;stroke:#FFFFFF;stroke-width:10.0001;stroke-linejoin:round;stroke-miterlimit:2.6131;" d="M96.381,184.309	C15.998,135.42,24.854,38.323,24.854,38.323C79.351,39.001,96.375,8.447,96.375,8.447s17.03,30.555,71.528,29.876	c0,0,8.855,97.097-71.528,145.986 M96.375,184.309h0.007"/><path style="fill:none;stroke:#000000;stroke-width:4;stroke-linejoin:round;stroke-miterlimit:2.6131;" d="M96.381,189.922	C10.867,137.912,20.289,34.618,20.289,34.618C78.264,35.34,96.375,2.834,96.375,2.834s18.118,32.505,76.092,31.783	c0,0,9.422,103.294-76.092,155.304 M96.375,189.922h0.007"/></g></svg>