<?xml version="1.0" encoding="iso-8859-1"?><!-- Generator: Adobe Illustrator 16.0.0, SVG Export Plug-In . SVG Version: 6.00 Build 0) --><!DOCTYPE svg PUBLIC "-//W3C//DTD SVG 1.1//EN" "http://www.w3.org/Graphics/SVG/1.1/DTD/svg11.dtd"><svg version="1.1" id="Layer_1" xmlns="http://www.w3.org/2000/svg" xmlns:xlink="http://www.w3.org/1999/xlink" x="0px" y="0px" width="192.756px" height="192.756px" viewBox="0 0 192.756 192.756" style="enable-background:new 0 0 192.756 192.756;" xml:space="preserve"><g><polygon style="fill-rule:evenodd;clip-rule:evenodd;fill:#FFFFFF;" points="0,0 192.756,0 192.756,192.756 0,192.756 0,0	"/><path style="fill-rule:evenodd;clip-rule:evenodd;fill:#323991;" d="M33.823,45.318v79.069	c-13.916-22.5-21.209-49.089-23.017-79.069H33.823L33.823,45.318z"/><polygon style="fill-rule:evenodd;clip-rule:evenodd;fill:#323991;" points="51.696,45.318 69.569,45.318 69.569,162.957	51.696,147.879 51.696,45.318	"/><path style="fill-rule:evenodd;clip-rule:evenodd;fill:#323991;" d="M158.934,45.318h22.016	c-1.424,32.43-9.457,57.668-22.016,77.987V45.318L158.934,45.318z"/><polygon style="fill-rule:evenodd;clip-rule:evenodd;fill:#323991;" points="123.188,45.318 141.061,45.318 141.061,147.062	123.188,162.785 123.188,45.318	"/><polygon style="fill-rule:evenodd;clip-rule:evenodd;fill:#323991;" points="87.441,45.318 105.314,45.318 105.314,174.664	96.378,179.205 87.441,175.014 87.441,45.318	"/><path style="fill-rule:evenodd;clip-rule:evenodd;fill:#323991;" d="M39.705,36.952l-7.871,0.004l-1.083,3.688h-7.06l8.403-22.352	h7.53l8.403,22.352H40.8L39.705,36.952L39.705,36.952z M38.256,32.12l-2.475-8.034l-2.455,8.038L38.256,32.12L38.256,32.12z M46.307,18.288l7.226,0.004l5.032,16.087l4.954-16.087h7.016L62.24,40.644h-7.49L46.307,18.288L46.307,18.288z M84.78,36.952	l-7.872,0.004l-1.083,3.688h-7.06l8.403-22.352h7.53l8.403,22.352h-7.227L84.78,36.952L84.78,36.952z M83.332,32.12l-2.476-8.034	l-2.454,8.038L83.332,32.12L83.332,32.12z M95.589,18.288l6.923,0.004v22.352h-6.923V18.288L95.589,18.288z M128.328,18.288	l17.078,0.004v4.804h-10.139v3.902h8.662v4.512h-8.662v9.133h-6.939V18.288L128.328,18.288z M164.014,31.511l6.051,1.83	c-0.406,1.696-1.047,3.12-1.92,4.256c-0.871,1.136-1.959,2-3.254,2.576c-1.299,0.576-2.949,0.869-4.949,0.869	c-2.428,0-4.416-0.353-5.953-1.059c-1.541-0.706-2.873-1.952-3.988-3.729c-1.119-1.777-1.68-4.058-1.68-6.833	c0-3.701,0.986-6.544,2.949-8.529c1.969-1.988,4.756-2.982,8.352-2.982c2.814,0,5.031,0.572,6.637,1.708	c1.611,1.136,2.812,2.889,3.596,5.247l-6.104,1.354c-0.211-0.682-0.434-1.181-0.67-1.493c-0.385-0.527-0.859-0.938-1.414-1.222	c-0.561-0.284-1.189-0.426-1.879-0.426c-1.562,0-2.764,0.633-3.6,1.891c-0.629,0.933-0.945,2.406-0.945,4.406	c0,2.479,0.377,4.184,1.129,5.101c0.754,0.917,1.812,1.379,3.172,1.379c1.322,0,2.326-0.374,2.998-1.112	c0.674-0.738,1.17-1.822,1.469-3.234H164.014L164.014,31.511z"/><polygon style="fill-rule:evenodd;clip-rule:evenodd;fill:#323991;" points="96.378,16.937 100.324,16.937 104.27,14.227	100.531,13.81 96.378,16.937	"/><path style="fill:#323991;" d="M11.448,10.545h169.861h2.469l0.113,2.471c2.189,48.38-5.52,83.201-20.709,109.611	c-15.225,26.469-37.895,44.381-65.604,58.953l-1.2,0.631l-1.2-0.631c-27.71-14.572-50.378-32.482-65.603-58.953	C14.385,96.217,6.676,61.396,8.866,13.016l0.112-2.471H11.448L11.448,10.545z M13.993,42.736h164.769	c0.406-8.485,0.436-17.479,0.068-27.028H13.926C13.558,25.257,13.587,34.251,13.993,42.736L13.993,42.736z M178.467,47.899H14.29	c2.023,29.929,8.924,53.302,19.763,72.146c14.455,25.133,35.984,42.318,62.326,56.342c26.341-14.023,47.87-31.209,62.325-56.342	C169.543,101.201,176.443,77.828,178.467,47.899L178.467,47.899z"/></g></svg>