<?xml version="1.0" encoding="iso-8859-1"?><!-- Generator: Adobe Illustrator 16.0.0, SVG Export Plug-In . SVG Version: 6.00 Build 0) --><!DOCTYPE svg PUBLIC "-//W3C//DTD SVG 1.1//EN" "http://www.w3.org/Graphics/SVG/1.1/DTD/svg11.dtd"><svg version="1.1" id="Layer_1" xmlns="http://www.w3.org/2000/svg" xmlns:xlink="http://www.w3.org/1999/xlink" x="0px" y="0px" width="192.756px" height="192.756px" viewBox="0 0 192.756 192.756" style="enable-background:new 0 0 192.756 192.756;" xml:space="preserve"><g><polygon style="fill-rule:evenodd;clip-rule:evenodd;fill:#FFFFFF;" points="0,0 192.756,0 192.756,192.756 0,192.756 0,0	"/><path style="fill:#3F7249;" d="M96.378,8.504L96.378,8.504c24.196,0,46.165,9.871,62.085,25.795	c15.92,15.922,25.789,37.896,25.789,62.107l0,0v0.002c0,24.182-9.871,46.143-25.791,62.059s-37.887,25.785-62.082,25.785h-0.001h0	c-24.196,0-46.164-9.869-62.082-25.785C18.375,142.551,8.504,120.59,8.504,96.408v-0.002l0,0c0-24.21,9.87-46.185,25.789-62.107	C50.213,18.375,72.181,8.504,96.376,8.504H96.378L96.378,8.504z M96.378,9.942L96.378,9.942h-0.002	c-23.802,0-45.41,9.708-61.066,25.368C19.651,50.972,9.943,72.589,9.942,96.406l0,0v0.002c0,23.787,9.708,45.389,25.364,61.041	c15.659,15.656,37.269,25.365,61.071,25.365h0h0.001c23.802,0,45.412-9.709,61.07-25.363	c15.656-15.654,25.365-37.256,25.365-61.043v-0.002l0,0c0-23.817-9.709-45.434-25.367-61.096	C141.789,19.65,120.182,9.943,96.378,9.942L96.378,9.942z"/><path style="fill-rule:evenodd;clip-rule:evenodd;fill:#3F7249;" d="M96.378,12.518c46.179,0,83.86,37.682,83.86,83.889	c0,46.15-37.682,83.832-83.86,83.832c-46.178,0-83.861-37.682-83.861-83.832C12.517,50.2,50.2,12.518,96.378,12.518L96.378,12.518	L96.378,12.518z"/><path style="fill-rule:evenodd;clip-rule:evenodd;fill:#FFFFFF;" d="M25.839,116.635l-0.029-2.629l0,0	c1.474-0.059,2.659,0.23,3.583,0.867c0.896,0.635,1.589,1.617,2.023,2.918c0.52,1.619,0.404,3.15-0.375,4.537	c-0.781,1.416-2.11,2.428-4.046,3.035c-2.023,0.664-3.756,0.664-5.23-0.029c-1.474-0.666-2.485-1.879-3.034-3.584	c-0.491-1.502-0.434-2.861,0.145-4.074c0.347-0.723,0.954-1.387,1.85-1.965l0,0l1.358,2.254l0,0	c-0.578,0.346-0.982,0.809-1.185,1.387c-0.231,0.578-0.231,1.186,0,1.85c0.289,0.896,0.838,1.531,1.676,1.879	c0.838,0.346,1.965,0.289,3.439-0.174c1.531-0.52,2.543-1.156,3.005-1.908c0.491-0.779,0.578-1.588,0.289-2.484	c-0.203-0.664-0.607-1.156-1.185-1.502C27.573,116.693,26.793,116.549,25.839,116.635L25.839,116.635L25.839,116.635z M22.631,110.422c-1.3,0.174-2.427,0.115-3.352-0.174c-0.665-0.201-1.3-0.52-1.878-0.953c-0.578-0.434-1.04-0.924-1.358-1.502	c-0.433-0.752-0.694-1.619-0.838-2.658c-0.231-1.879,0.173-3.469,1.185-4.74c1.041-1.242,2.601-2.021,4.653-2.283	c2.052-0.23,3.728,0.117,5.028,1.1s2.081,2.398,2.312,4.246c0.231,1.908-0.174,3.498-1.185,4.74S24.654,110.191,22.631,110.422	L22.631,110.422L22.631,110.422z M22.227,107.822c1.416-0.174,2.485-0.637,3.15-1.389c0.665-0.779,0.925-1.646,0.809-2.686	c-0.145-1.012-0.607-1.822-1.416-2.371c-0.838-0.578-1.965-0.779-3.468-0.578c-1.445,0.174-2.485,0.607-3.121,1.359	c-0.665,0.723-0.896,1.617-0.781,2.658c0.145,1.068,0.607,1.879,1.416,2.428C19.626,107.822,20.753,107.994,22.227,107.822	L22.227,107.822L22.227,107.822z M27.371,93.922l-12.715-1.763l0.78-5.403l0,0c0.174-1.358,0.434-2.341,0.751-2.919	s0.78-1.011,1.416-1.3s1.329-0.375,2.081-0.289c0.954,0.145,1.705,0.549,2.254,1.185s0.81,1.531,0.81,2.688	c0.404-0.521,0.838-0.925,1.271-1.243c0.434-0.289,1.185-0.693,2.254-1.156l0,0l2.716-1.214l-0.434,3.063l-3.034,1.474l0,0	c-1.069,0.52-1.763,0.896-2.052,1.098c-0.289,0.203-0.52,0.434-0.636,0.694c-0.144,0.26-0.26,0.665-0.317,1.271l0,0l-0.087,0.52	l5.317,0.751L27.371,93.922L27.371,93.922L27.371,93.922z M20.406,90.338l0.26-1.907l0,0c0.173-1.213,0.231-1.994,0.173-2.312	c-0.058-0.318-0.202-0.578-0.434-0.81c-0.231-0.202-0.549-0.317-0.924-0.375c-0.434-0.058-0.78,0-1.069,0.173	c-0.318,0.202-0.521,0.491-0.636,0.896c-0.058,0.203-0.173,0.838-0.318,1.878l0,0l-0.289,1.994L20.406,90.338L20.406,90.338	L20.406,90.338z M29.74,79.733l-12.252-3.756l0.751-2.485l12.252,3.757L29.74,79.733L29.74,79.733L29.74,79.733z M32.572,70.833	l-9.652-4.508l-1.618,3.439l-1.965-0.896l4.306-9.247l1.965,0.924l-1.618,3.439l9.681,4.508L32.572,70.833L32.572,70.833	L32.572,70.833z M36.82,62.453l-11.125-6.416l1.3-2.254l11.097,6.415L36.82,62.453L36.82,62.453L36.82,62.453z M30.376,48.033	l3.439-3.814l0,0c0.665-0.751,1.214-1.271,1.618-1.59c0.405-0.317,0.81-0.52,1.271-0.636c0.462-0.115,0.954-0.115,1.474-0.028	c0.491,0.115,0.954,0.347,1.387,0.722c0.434,0.405,0.723,0.896,0.896,1.474c0.145,0.578,0.145,1.156-0.058,1.734	c0.694-0.434,1.387-0.636,2.081-0.578c0.694,0.058,1.301,0.347,1.85,0.838c0.434,0.375,0.78,0.867,1.012,1.445	s0.289,1.127,0.231,1.705c-0.087,0.578-0.318,1.127-0.723,1.705c-0.231,0.347-0.925,1.127-2.023,2.369l0,0l-2.919,3.237	L30.376,48.033L30.376,48.033L30.376,48.033z M33.7,47.542l2.196,1.994l1.156-1.271l0,0c0.665-0.751,1.069-1.213,1.214-1.416	c0.26-0.375,0.376-0.722,0.376-1.098c-0.029-0.347-0.203-0.664-0.492-0.953c-0.318-0.26-0.607-0.405-0.954-0.405	c-0.318,0-0.665,0.145-0.982,0.433c-0.202,0.174-0.693,0.723-1.503,1.619l0,0L33.7,47.542L33.7,47.542L33.7,47.542z M37.485,50.951	l2.543,2.312l1.618-1.792l0,0c0.636-0.693,1.012-1.156,1.127-1.358c0.202-0.347,0.289-0.694,0.26-1.069	c-0.058-0.347-0.231-0.693-0.578-0.982c-0.289-0.26-0.578-0.405-0.896-0.462c-0.347-0.029-0.665,0.029-0.982,0.231	c-0.347,0.173-0.896,0.693-1.676,1.56l0,0L37.485,50.951L37.485,50.951L37.485,50.951z M58.725,38.756L56.5,40.49l-2.659-1.618	l-4.045,3.15l0.954,2.947l-2.167,1.705l-3.959-13.177l2.167-1.705L58.725,38.756L58.725,38.756L58.725,38.756z M51.847,37.687	l-4.335-2.658l1.561,4.797L51.847,37.687L51.847,37.687L51.847,37.687z M64.562,35.549l-5.23-11.704l8.033-3.583l0.896,1.994	l-5.664,2.514l1.214,2.774l4.913-2.167l0.867,1.965l-4.884,2.167l2.225,4.999L64.562,35.549L64.562,35.549L64.562,35.549z M74.011,24.539c-0.318-1.271-0.375-2.369-0.173-3.323c0.115-0.694,0.375-1.358,0.751-1.994c0.375-0.607,0.838-1.099,1.358-1.503	c0.722-0.491,1.561-0.867,2.572-1.098c1.849-0.433,3.467-0.203,4.826,0.693c1.387,0.867,2.283,2.341,2.774,4.393	c0.462,1.994,0.26,3.699-0.578,5.086c-0.809,1.416-2.167,2.312-3.988,2.746c-1.85,0.433-3.468,0.202-4.826-0.694	C75.37,27.978,74.445,26.533,74.011,24.539L74.011,24.539L74.011,24.539z M76.583,23.875c0.318,1.416,0.896,2.398,1.705,2.977	c0.838,0.578,1.763,0.751,2.746,0.52c1.011-0.231,1.763-0.781,2.225-1.647c0.491-0.867,0.549-2.052,0.231-3.497	c-0.347-1.416-0.896-2.428-1.676-2.977c-0.809-0.549-1.705-0.722-2.745-0.491c-1.041,0.26-1.821,0.81-2.283,1.647	C76.323,21.274,76.236,22.429,76.583,23.875L76.583,23.875L76.583,23.875z M90.57,21.36c0.028-1.3,0.26-2.398,0.665-3.294	c0.289-0.636,0.694-1.214,1.214-1.734s1.069-0.896,1.676-1.127c0.809-0.318,1.734-0.462,2.774-0.462	c1.879,0.029,3.381,0.665,4.479,1.85c1.098,1.185,1.648,2.832,1.619,4.912c-0.029,2.081-0.637,3.67-1.793,4.826	c-1.098,1.156-2.629,1.705-4.507,1.676c-1.907-0.029-3.41-0.636-4.508-1.821C91.09,25.001,90.541,23.383,90.57,21.36L90.57,21.36	L90.57,21.36z M93.257,21.302c-0.029,1.474,0.289,2.572,0.953,3.323c0.636,0.78,1.503,1.156,2.514,1.185	c1.041,0,1.908-0.347,2.572-1.069c0.664-0.751,1.012-1.849,1.041-3.352c0.027-1.445-0.262-2.572-0.896-3.294	c-0.637-0.722-1.475-1.127-2.543-1.127c-1.069-0.029-1.936,0.318-2.601,1.041C93.633,18.731,93.286,19.829,93.257,21.302	L93.257,21.302L93.257,21.302z M109.15,28.902l2.197-10.432l-3.699-0.78l0.434-2.139l9.969,2.139l-0.434,2.109l-3.727-0.78	l-2.227,10.432L109.15,28.902L109.15,28.902L109.15,28.902z M127.848,21.129l4.566,2.341l0,0c0.924,0.462,1.561,0.838,1.965,1.156	c0.404,0.289,0.723,0.636,0.953,1.069c0.23,0.404,0.375,0.896,0.404,1.387c0.029,0.521-0.086,1.041-0.348,1.532	c-0.26,0.52-0.664,0.954-1.154,1.243c-0.521,0.318-1.098,0.434-1.705,0.404c0.607,0.578,0.953,1.185,1.068,1.879	c0.145,0.664,0.029,1.329-0.316,1.994c-0.262,0.52-0.637,0.954-1.129,1.33c-0.49,0.375-1.01,0.606-1.588,0.665	c-0.578,0.086-1.186,0-1.82-0.231c-0.406-0.144-1.359-0.606-2.832-1.358l0,0l-3.873-1.965L127.848,21.129L127.848,21.129	L127.848,21.129z M129.205,24.221l-1.357,2.63l1.502,0.78l0,0c0.896,0.462,1.475,0.723,1.705,0.809	c0.434,0.173,0.809,0.173,1.156,0.058c0.318-0.087,0.578-0.347,0.779-0.694c0.174-0.375,0.232-0.693,0.146-1.011	c-0.088-0.318-0.318-0.607-0.666-0.867c-0.201-0.145-0.867-0.491-1.965-1.041l0,0L129.205,24.221L129.205,24.221L129.205,24.221z M126.865,28.758l-1.531,3.063l2.139,1.099l0,0c0.809,0.404,1.357,0.665,1.588,0.722c0.377,0.116,0.752,0.116,1.1-0.029	c0.316-0.145,0.605-0.404,0.809-0.81c0.174-0.347,0.23-0.664,0.201-0.982c-0.057-0.347-0.201-0.636-0.461-0.896	c-0.26-0.289-0.926-0.665-1.965-1.214l0,0L126.865,28.758L126.865,28.758L126.865,28.758z M143.77,46.53l-2.225-1.733l0.924-2.977	l-4.045-3.179l-2.629,1.647l-2.168-1.676l11.848-7.051l2.168,1.705L143.77,46.53L143.77,46.53L143.77,46.53z M143.135,39.594	l1.561-4.854l-4.307,2.688L143.135,39.594L143.135,39.594L143.135,39.594z M145.705,48.755l9.451-8.496l1.732,1.907l-7.83,7.08	l4.305,4.797l-1.617,1.445L145.705,48.755L145.705,48.755L145.705,48.755z M153.566,58.262l11.01-6.386l1.301,2.254l-9.133,5.289	l3.209,5.577l-1.879,1.069L153.566,58.262L153.566,58.262L153.566,58.262z M167.756,79.126l-0.029,2.629l0,0	c-1.445,0.029-2.631-0.26-3.555-0.925c-0.896-0.665-1.561-1.647-1.965-2.976c-0.492-1.618-0.348-3.121,0.434-4.508	c0.809-1.388,2.166-2.399,4.104-2.977c2.021-0.635,3.785-0.578,5.23,0.116c1.443,0.723,2.428,1.937,2.977,3.641	c0.434,1.502,0.375,2.861-0.232,4.075c-0.346,0.723-0.982,1.358-1.877,1.936l0,0l-1.33-2.254l0,0	c0.607-0.347,1.012-0.809,1.242-1.387c0.203-0.578,0.23-1.185,0.029-1.85c-0.289-0.896-0.838-1.531-1.646-1.907	c-0.838-0.375-1.965-0.317-3.439,0.116c-1.561,0.492-2.572,1.098-3.062,1.85c-0.492,0.78-0.578,1.589-0.318,2.485	c0.201,0.665,0.578,1.156,1.156,1.503C166.021,79.04,166.801,79.184,167.756,79.126L167.756,79.126L167.756,79.126z M164.402,86.755l12.658-1.127l0.23,2.601l-10.518,0.896l0.549,6.416l-2.139,0.202L164.402,86.755L164.402,86.755L164.402,86.755z M177.955,100.568l-0.316,2.572l-6.908-0.838l0,0c-1.098-0.145-1.791-0.174-2.137-0.174c-0.521,0.059-0.982,0.26-1.359,0.635	c-0.346,0.377-0.578,0.926-0.664,1.648s-0.029,1.301,0.23,1.705s0.607,0.664,1.012,0.809c0.434,0.115,1.156,0.26,2.168,0.375l0,0	l7.021,0.867l-0.289,2.543l-6.703-0.838l0,0c-1.533-0.174-2.602-0.375-3.209-0.607c-0.605-0.172-1.127-0.49-1.502-0.924	c-0.404-0.434-0.664-0.953-0.867-1.619c-0.174-0.664-0.201-1.502-0.086-2.514c0.145-1.213,0.404-2.109,0.779-2.717	c0.348-0.576,0.781-1.039,1.271-1.328c0.492-0.318,0.982-0.492,1.502-0.549c0.752-0.088,1.822-0.029,3.266,0.145l0,0	L177.955,100.568L177.955,100.568L177.955,100.568z M175.24,117.068l-1.59,4.885l0,0c-0.318,0.982-0.578,1.676-0.809,2.137	c-0.232,0.434-0.551,0.811-0.926,1.1s-0.809,0.49-1.33,0.605c-0.49,0.117-1.01,0.088-1.531-0.086	c-0.578-0.201-1.039-0.52-1.443-0.982c-0.377-0.463-0.578-0.982-0.666-1.59c-0.434,0.666-1.012,1.127-1.646,1.359	c-0.664,0.23-1.33,0.23-2.053,0c-0.549-0.203-1.039-0.492-1.473-0.926c-0.463-0.434-0.752-0.924-0.926-1.473	c-0.172-0.551-0.172-1.156-0.027-1.82c0.086-0.434,0.375-1.445,0.865-3.006l0,0l1.359-4.162L175.24,117.068L175.24,117.068	L175.24,117.068z M172.408,118.889l-2.805-0.924l-0.549,1.617l0,0c-0.289,0.955-0.49,1.561-0.52,1.793	c-0.086,0.463-0.059,0.838,0.115,1.156c0.145,0.316,0.434,0.549,0.838,0.664c0.377,0.115,0.693,0.115,1.012,0	c0.289-0.145,0.549-0.404,0.723-0.809c0.115-0.232,0.346-0.926,0.723-2.082l0,0L172.408,118.889L172.408,118.889L172.408,118.889z M167.553,117.301l-3.266-1.041l-0.723,2.283l0,0c-0.289,0.867-0.463,1.445-0.49,1.705c-0.029,0.375,0.027,0.723,0.201,1.039	c0.174,0.318,0.492,0.551,0.926,0.693c0.375,0.117,0.723,0.117,1.012,0.029c0.316-0.086,0.578-0.289,0.809-0.578	c0.23-0.316,0.52-1.01,0.895-2.137l0,0L167.553,117.301L167.553,117.301L167.553,117.301z"/><path style="fill-rule:evenodd;clip-rule:evenodd;fill:#FFFFFF;" d="M36.936,140.938c1.445,0,2.629,1.215,2.629,2.66	c0,1.443-1.185,2.629-2.629,2.629c-1.474,0-2.659-1.186-2.659-2.629C34.277,142.152,35.462,140.938,36.936,140.938L36.936,140.938	L36.936,140.938z M155.82,140.938c-1.445,0-2.629,1.215-2.629,2.66c0,1.443,1.184,2.629,2.629,2.629s2.629-1.186,2.629-2.629	C158.449,142.152,157.266,140.938,155.82,140.938L155.82,140.938L155.82,140.938z M48.726,162.785l6.964-10.75l3.497,2.254l0,0	c1.329,0.867,2.139,1.473,2.485,1.85c0.52,0.549,0.781,1.242,0.867,2.051c0.058,0.811-0.173,1.648-0.751,2.486	c-0.434,0.664-0.896,1.154-1.445,1.443c-0.52,0.289-1.069,0.463-1.589,0.463c-0.549,0.029-1.011-0.057-1.474-0.23	c-0.578-0.232-1.358-0.664-2.341-1.301l0,0l-1.416-0.924l-2.63,4.074L48.726,162.785L48.726,162.785L48.726,162.785z M56.702,155.242l-1.994,3.062l1.185,0.781l0,0c0.866,0.549,1.474,0.867,1.82,0.953c0.375,0.059,0.723,0.029,1.04-0.086	c0.318-0.145,0.578-0.377,0.78-0.693c0.26-0.377,0.347-0.781,0.289-1.186s-0.26-0.752-0.578-1.041	c-0.202-0.23-0.722-0.576-1.502-1.098l0,0L56.702,155.242L56.702,155.242L56.702,155.242z M73.636,175.326l-2.63-1.068l0.058-3.121	l-4.739-1.908l-2.081,2.283l-2.543-1.012l9.421-10.027l2.543,1.041L73.636,175.326L73.636,175.326L73.636,175.326z M71.093,168.824	l0.145-5.086l-3.381,3.785L71.093,168.824L71.093,168.824L71.093,168.824z M80.802,176.598l1.792-12.715l5.403,0.752l0,0	c1.358,0.201,2.341,0.461,2.919,0.779c0.578,0.318,1.012,0.781,1.3,1.416c0.289,0.637,0.375,1.33,0.26,2.08	c-0.115,0.955-0.52,1.705-1.156,2.254c-0.665,0.521-1.561,0.811-2.688,0.811c0.521,0.404,0.925,0.809,1.214,1.271	c0.318,0.434,0.723,1.184,1.185,2.254l0,0l1.214,2.688l-3.092-0.434l-1.445-3.006l0,0c-0.52-1.098-0.896-1.762-1.098-2.051	c-0.203-0.318-0.434-0.521-0.694-0.637c-0.26-0.145-0.693-0.26-1.271-0.346l0,0l-0.521-0.059l-0.751,5.289L80.802,176.598	L80.802,176.598L80.802,176.598z M84.415,169.633l1.878,0.26l0,0c1.243,0.174,2.023,0.232,2.341,0.174	c0.318-0.057,0.578-0.23,0.78-0.434c0.231-0.23,0.347-0.549,0.405-0.924c0.058-0.434,0-0.781-0.203-1.098	c-0.173-0.289-0.491-0.492-0.896-0.637c-0.202-0.059-0.81-0.145-1.85-0.289l0,0l-2.022-0.289L84.415,169.633L84.415,169.633	L84.415,169.633z M110.855,177.09l-2.832,0.23l-1.357-2.803l-5.115,0.461l-0.752,2.977l-2.744,0.262l3.814-13.236l2.744-0.23	L110.855,177.09L110.855,177.09L110.855,177.09z M105.654,172.436l-2.168-4.594l-1.328,4.912L105.654,172.436L105.654,172.436	L105.654,172.436z M117.994,175.412l-4.393-12.049l2.369-0.867l7.859,6.27l-2.918-8.062l2.254-0.809l4.393,12.051l-2.457,0.867	l-7.715-6.068l2.861,7.859L117.994,175.412L117.994,175.412L117.994,175.412z M144.984,162.062l-2.342,1.531l-2.543-1.85	l-4.305,2.803l0.723,3.006l-2.312,1.502l-2.803-13.465l2.311-1.504L144.984,162.062L144.984,162.062L144.984,162.062z M138.223,160.387l-4.076-3.035l1.156,4.941L138.223,160.387L138.223,160.387L138.223,160.387z M139.436,149.896l-1.764,1.127l0,0	c-0.346,1.213,0.463,3.584,1.186,4.016l0,0l0.578-0.432l0,0C139.031,152.814,139.176,151.283,139.436,149.896L139.436,149.896	L139.436,149.896z"/><path style="fill-rule:evenodd;clip-rule:evenodd;fill:#FFFFFF;" d="M96.378,29.769c36.671,0,66.608,29.938,66.608,66.637	c0,36.643-29.938,66.58-66.608,66.58s-66.609-29.938-66.609-66.58C29.769,59.707,59.707,29.769,96.378,29.769L96.378,29.769	L96.378,29.769z"/><path style="fill-rule:evenodd;clip-rule:evenodd;fill:#3F7249;" d="M96.378,32.861c34.966,0,63.517,28.551,63.517,63.545	c0,34.938-28.551,63.488-63.517,63.488s-63.517-28.551-63.517-63.488C32.861,61.412,61.412,32.861,96.378,32.861L96.378,32.861	L96.378,32.861z"/><path style="fill-rule:evenodd;clip-rule:evenodd;fill:#FFFFFF;" d="M139.117,143.279c-8.611-13.525-24.562-22.627-42.739-22.627	c-18.176,0-34.128,9.102-42.739,22.627c7.34,6.703,16.24,11.703,26.094,14.391c4.277-3.15,10.172-5.086,16.645-5.086	c6.474,0,12.368,1.936,16.646,5.086C122.877,154.982,131.777,149.982,139.117,143.279L139.117,143.279L139.117,143.279z M139.117,49.478c-8.611,13.524-24.562,22.626-42.739,22.626c-18.176,0-34.128-9.103-42.739-22.626	c7.34-6.705,16.24-11.704,26.094-14.391c4.277,3.15,10.172,5.115,16.645,5.115c6.474,0,12.368-1.965,16.646-5.115	C122.877,37.774,131.777,42.773,139.117,49.478L139.117,49.478L139.117,49.478z"/><path style="fill:#3F7249;" d="M128.98,61.272c-2.477-5.054-5.402-9.441-8.975-13.327c-3.572-3.888-7.797-7.281-12.867-10.346	l0.557-0.923c5.158,3.119,9.459,6.575,13.104,10.54c3.646,3.967,6.629,8.438,9.152,13.584L128.98,61.272L128.98,61.272z"/><path style="fill:#3F7249;" d="M113.756,69.721l-0.002-0.007c-0.119-1.438-0.336-2.908-0.633-4.394	c-0.303-1.509-0.684-3.034-1.133-4.56c-2.324-7.91-6.463-16.03-10.453-22.025l0.898-0.595c4.039,6.07,8.229,14.296,10.588,22.316	c0.461,1.573,0.854,3.13,1.156,4.653c0.311,1.546,0.533,3.058,0.656,4.516v0.006L113.756,69.721L113.756,69.721z"/><polygon style="fill:#3F7249;" points="95.838,72.971 95.838,39.45 96.917,39.45 96.917,72.971 95.838,72.971	"/><path style="fill:#3F7249;" d="M77.922,69.632l0-0.006c0.123-1.458,0.346-2.97,0.655-4.516c0.305-1.523,0.695-3.08,1.158-4.653	c2.358-8.02,6.548-16.246,10.588-22.316l0.897,0.595c-3.99,5.995-8.128,14.115-10.453,22.025c-0.449,1.526-0.831,3.051-1.132,4.56	c-0.297,1.485-0.513,2.956-0.634,4.394L79,69.721L77.922,69.632L77.922,69.632z"/><path style="fill:#3F7249;" d="M62.806,60.8c2.521-5.146,5.498-9.617,9.141-13.584c3.64-3.965,7.941-7.421,13.114-10.54	l0.557,0.923c-5.086,3.065-9.31,6.458-12.879,10.346c-3.567,3.886-6.486,8.272-8.964,13.327L62.806,60.8L62.806,60.8z"/><path style="fill:#3F7249;" d="M129.951,131.955c-2.523,5.162-5.506,9.633-9.152,13.596c-3.645,3.961-7.945,7.41-13.104,10.529	l-0.557-0.924c5.07-3.064,9.295-6.451,12.867-10.334s6.498-8.27,8.975-13.338L129.951,131.955L129.951,131.955z"/><path style="fill:#3F7249;" d="M114.834,123.123v0.008c-0.123,1.457-0.346,2.971-0.656,4.518c-0.303,1.523-0.695,3.082-1.156,4.656	c-2.357,8.025-6.549,16.262-10.59,22.312l-0.895-0.6c3.988-5.971,8.125-14.1,10.451-22.018c0.449-1.527,0.83-3.053,1.133-4.562	c0.297-1.486,0.514-2.957,0.633-4.396l0.002-0.006L114.834,123.123L114.834,123.123z"/><polygon style="fill:#3F7249;" points="96.917,119.785 96.917,153.336 95.838,153.336 95.838,119.785 96.917,119.785	"/><path style="fill:#3F7249;" d="M79,123.035l0.001,0.006c0.121,1.439,0.337,2.91,0.634,4.396c0.302,1.51,0.684,3.035,1.132,4.562	c2.326,7.918,6.463,16.047,10.451,22.018l-0.893,0.6c-4.041-6.051-8.233-14.287-10.59-22.312c-0.462-1.574-0.853-3.133-1.158-4.656	c-0.309-1.547-0.532-3.061-0.655-4.518l0-0.008L79,123.035L79,123.035z"/><path style="fill:#3F7249;" d="M63.775,131.484c2.478,5.068,5.396,9.455,8.964,13.338c3.569,3.883,7.793,7.27,12.879,10.334	l-0.557,0.924c-5.173-3.119-9.474-6.568-13.114-10.529c-3.643-3.963-6.619-8.434-9.141-13.596L63.775,131.484L63.775,131.484z"/><path style="fill-rule:evenodd;clip-rule:evenodd;fill:#FFFFFF;" d="M103.17,99.701h-6.272v11.443h-6.906V83.808h15.547v6.386	h-8.641v3.583h6.272V99.701L103.17,99.701L103.17,99.701z M77.045,104.643c0,5.434-1.531,7.629-3.843,10.576	c-2.225,2.832-5.866,4.307-10.75,4.307c-4.942,0-8.756-2.342-11.501-6.213c-2.745-3.844-4.104-8.844-4.104-15.865	c0-7.109,1.156-11.819,3.901-15.663c2.745-3.872,6.906-6.502,11.992-6.241c9.218,0.491,14.015,8.148,13.958,16.066l0,0	l-8.987,1.012l0,0c0-3.006-1.069-7.369-4.392-7.282c-2.139,0.029-3.525,1.792-4.045,3.352c-0.491,1.561-0.838,4.45-0.838,8.641	c0,2.398-0.087,7.021,1.185,10.201c0.751,1.877,1.994,3.438,4.103,3.381c1.878-0.029,2.919-1.648,3.439-3.469	c0.405-1.387,0.521-2.859,0.521-3.959l0,0L77.045,104.643L77.045,104.643L77.045,104.643z M145.705,104.643	c0,5.434-1.559,7.629-3.842,10.576c-2.227,2.832-5.867,4.307-10.75,4.307c-4.941,0-8.785-2.342-11.502-6.213	c-2.744-3.844-4.104-8.844-4.104-15.865c0-7.109,1.127-11.819,3.902-15.663c2.744-3.872,6.906-6.502,11.992-6.241	c9.189,0.491,13.986,8.148,13.957,16.066l0,0l-8.986,1.012l0,0c0-3.006-1.1-7.369-4.393-7.282	c-2.168,0.029-3.525,1.792-4.047,3.352c-0.52,1.561-0.867,4.45-0.867,8.641c0,2.398-0.057,7.021,1.186,10.201	c0.752,1.877,2.023,3.438,4.104,3.381c1.908-0.029,2.947-1.648,3.469-3.469c0.375-1.387,0.52-2.859,0.52-3.959l0,0L145.705,104.643	L145.705,104.643L145.705,104.643z"/><path style="fill:#3F7249;" d="M96.378,32.142L96.378,32.142c17.681,0,33.739,7.22,45.38,18.863	c11.637,11.642,18.855,27.707,18.855,45.401l0,0v0.002c0,17.664-7.219,33.717-18.859,45.354	c-11.639,11.633-27.695,18.852-45.375,18.852h-0.001h0c-17.68,0-33.738-7.219-45.376-18.852	c-11.64-11.637-18.859-27.689-18.859-45.354v-0.002l0,0c0-17.694,7.219-33.759,18.857-45.401	c11.64-11.644,27.699-18.862,45.377-18.863H96.378L96.378,32.142z M96.378,33.581L96.378,33.581h-0.002	c-17.285,0-32.984,7.056-44.36,18.436c-11.378,11.382-18.436,27.089-18.436,44.39l0,0v0.002c0,17.271,7.056,32.963,18.432,44.336	c11.378,11.375,27.079,18.432,44.365,18.432h0h0.001c17.285,0,32.986-7.057,44.363-18.432	c11.377-11.373,18.434-27.064,18.434-44.336v-0.002l0,0c0-17.301-7.057-33.007-18.436-44.389	C129.363,40.637,113.664,33.581,96.378,33.581L96.378,33.581z"/></g></svg>