<?xml version="1.0" encoding="iso-8859-1"?><!-- Generator: Adobe Illustrator 16.0.0, SVG Export Plug-In . SVG Version: 6.00 Build 0) --><!DOCTYPE svg PUBLIC "-//W3C//DTD SVG 1.1//EN" "http://www.w3.org/Graphics/SVG/1.1/DTD/svg11.dtd"><svg version="1.1" id="Layer_1" xmlns="http://www.w3.org/2000/svg" xmlns:xlink="http://www.w3.org/1999/xlink" x="0px" y="0px" width="192.756px" height="192.756px" viewBox="0 0 192.756 192.756" style="enable-background:new 0 0 192.756 192.756;" xml:space="preserve"><g><polygon style="fill-rule:evenodd;clip-rule:evenodd;fill:#FFFFFF;" points="0,0 192.756,0 192.756,192.756 0,192.756 0,0	"/><path style="fill-rule:evenodd;clip-rule:evenodd;" d="M171.648,51.346c0.436-1.521,1.088-2.827,1.523-4.351	c0.65-1.521,1.303-2.828,1.955-3.916c1.088-1.957,2.176-3.263,3.482-4.351c0.217-0.436,0.652-0.869,1.088-1.088L144.02,2.834	c-2.176,1.74-5.654,3.264-10.877,4.57c-1.305,0.433-2.828,0.869-4.135,1.087c-1.957,0.433-3.914,0.869-6.09,1.304	c-6.527,0.871-13.922,1.521-21.971,1.521c0,0,0,0-0.219,0c-0.869,0-1.74,0-2.393,0h-3.699c-0.652,0-1.088,0-1.74,0	c-0.217,0-0.652,0-1.087,0c-8.485,0-16.099-0.65-22.842-1.738c-1.74-0.438-3.479-0.655-5.003-1.088	c-1.523-0.219-2.828-0.654-4.351-1.087c-5.003-1.307-8.702-2.83-10.877-4.57L13.059,37.642c0.435,0.219,0.871,0.652,1.306,1.088	c1.957,1.74,3.697,4.57,5.22,8.266c2.828,6.526,4.351,14.357,4.57,23.277c0,1.088,0,2.176,0,3.263	c0,7.396-0.654,14.14-2.394,20.014c-0.217,0.871-0.436,1.521-0.652,2.176c-0.436,1.305-0.871,2.827-1.523,4.133	c-0.436,1.088-0.869,2.393-1.523,3.264c0,0.434-0.217,0.869-0.433,1.088c-0.219,0.869-0.436,1.521-0.871,2.393	c0,0.434-0.217,0.871-0.436,1.305c-1.305,4.566-2.176,9.572-2.393,14.795c-0.219,1.086-0.219,1.955,0,2.824	c0,2.176,0,4.135,0.436,6.094c0.434,4.133,1.74,8.047,3.264,11.748c2.827,6.307,6.743,11.965,11.529,16.748	c5.003,4.787,10.658,8.051,17.403,9.574c6.526,1.738,13.269,2.826,20.014,3.479c1.304,0,2.392,0.217,3.48,0.436	c5.655,0.869,10.66,2.828,15.011,5.875c4.132,2.828,7.614,6.09,10.877,9.572c0,0.217,0.217,0.434,0.433,0.869	c0.219-0.436,0.436-0.652,0.655-0.869c1.957-2.176,4.133-4.57,6.742-6.525c1.305-1.088,2.611-2.176,3.916-3.047	c2.828-1.959,5.875-3.48,9.354-4.568c2.83-0.871,5.875-1.525,9.139-1.742c5.438-0.434,10.66-1.305,15.879-2.391	c1.307-0.217,2.83-0.656,4.352-1.088c5.221-1.305,10.008-3.699,14.357-6.963c0.869-0.869,1.957-1.74,2.828-2.611	c3.699-3.695,6.744-7.613,9.354-11.965c0.654-1.52,1.523-3.047,2.176-4.783c0,0,0,0,0-0.219c1.74-3.699,2.828-7.615,3.482-11.529	c0-0.217,0-0.436,0-0.654c0.434-2.826,0.434-5.439,0.434-8.264c-0.217-5.877-1.305-11.098-3.045-16.1	c-0.219-0.654-0.436-1.523-0.871-2.176c0,0,0,0,0-0.217c0-0.219-1.305-3.264-1.955-4.352c-0.221-0.654-0.436-1.307-0.654-1.957	c-0.217-0.656-0.652-1.524-0.869-2.176c-1.959-6.526-3.047-13.923-3.047-22.19c0-0.219,0-0.219,0-0.435	C168.602,64.834,169.689,57.656,171.648,51.346L171.648,51.346z"/><path style="fill-rule:evenodd;clip-rule:evenodd;fill:#FFFFFF;" d="M168.166,48.519c0.219-1.088,0.654-2.176,1.088-3.045	c0.654-1.742,1.307-3.046,2.176-4.351c0-0.219,0-0.219,0.219-0.219c0.436-1.307,1.088-2.175,1.957-3.263L143.367,8.273	c-2.176,1.307-5.223,2.394-8.92,3.482c-0.217,0-0.434,0-0.652,0c-1.305,0.434-2.611,0.65-3.916,1.088	c-0.871,0.217-1.74,0.433-2.611,0.433L168.166,48.519L168.166,48.519z"/><path style="fill-rule:evenodd;clip-rule:evenodd;fill:#FFFFFF;" d="M18.497,129.662c0,0.436,0,0.871,0.219,1.305	c0.433,3.701,1.521,7.18,3.044,10.66c2.394,5.654,5.874,10.66,10.008,15.012c0.217,0,0.434,0.217,0.434,0.217	c4.351,4.35,9.573,7.18,15.447,8.701c5.22,1.305,10.877,2.393,16.533,3.047L18.497,129.662L18.497,129.662z"/><path style="fill-rule:evenodd;clip-rule:evenodd;fill:#FFFFFF;" d="M23.936,45.908c3.046,7.614,4.57,16.751,4.57,27.628	c0,0,0,0.219,0,0.436l16.855,14.404c1.249-6.435,3.728-12.392,7.351-17.872L23.936,45.908L23.936,45.908z"/><path style="fill-rule:evenodd;clip-rule:evenodd;fill:#FFFFFF;" d="M137.709,167.299c2.611-0.654,5.006-1.088,7.615-1.742	c4.35-1.088,8.484-3.047,11.965-5.654l-25.457-21.762c-5.062,4.475-10.627,7.756-16.686,9.877L137.709,167.299L137.709,167.299z"/><path style="fill-rule:evenodd;clip-rule:evenodd;fill:#FFFFFF;" d="M42.646,14.799L30.681,26.765l35.191,30.007	c5.057-3.718,10.506-6.471,16.401-8.155L42.646,14.799L42.646,14.799z"/><path style="fill-rule:evenodd;clip-rule:evenodd;fill:#FFFFFF;" d="M174.691,127.486l-25.242-21.541	c-0.773,6.264-2.586,12.053-5.498,17.4l25.521,21.76c0.652-1.086,1.088-2.174,1.74-3.262c0-0.217,0-0.434,0.217-0.434h-0.217	c1.523-3.264,2.393-6.963,2.826-10.443C174.258,129.662,174.475,128.574,174.691,127.486L174.691,127.486z"/><path style="fill-rule:evenodd;clip-rule:evenodd;fill:#FFFFFF;" d="M142.521,71.864c0.197,0.321,0.416,0.633,0.605,0.956	l23.299,19.859c-1.523-5.655-2.176-12.182-2.176-19.144c0-1.523,0-2.828,0-4.132l-62.869-53.736c-0.217,0-0.217,0-0.434,0	c0,0,0,0-0.219,0c-0.869,0-1.74,0-2.393,0h-3.699c-0.652,0-1.088,0-1.74,0c-0.217,0-0.652,0-1.087,0	c-5.875,0-11.53-0.433-16.751-0.869l41.348,35.245c3.848,1.483,7.488,3.442,10.93,5.847l16.248,2.417	C143.922,63.186,143.586,67.667,142.521,71.864L142.521,71.864z"/><path style="fill-rule:evenodd;clip-rule:evenodd;fill:#FFFFFF;" d="M46.125,123.352c0.65-1.684,1.315-3.305,2.011-4.93	c-0.431-1.057-0.834-2.125-1.191-3.215L25.458,96.814c-0.216,0-0.216,0-0.216,0.217c-0.436,1.521-1.088,3.045-1.523,4.35	c-0.652,1.305-1.088,2.393-1.523,3.48c-0.217,0.219-0.217,0.438-0.436,0.871c0,0,0,0,0,0.217c-0.217,0.438-0.436,1.088-0.652,1.742	c-0.217,0.217-0.217,0.217-0.217,0.434c-0.219,1.088-0.654,1.959-0.871,2.83l80.275,68.742c1.52-1.305,3.262-2.609,5.002-3.916	c2.393-1.523,5.004-2.828,7.832-3.916l-25.32-21.676c-8.802-1.455-16.713-5.025-23.798-10.752c-0.495,0.674-1.005,1.338-1.57,1.973	L46.125,123.352L46.125,123.352z"/><path style="fill-rule:evenodd;clip-rule:evenodd;fill:#FFFFFF;" d="M61.789,101.164c4.787-3.699,10.442-7.18,17.185-10.005	c5.658-2.613,11.532-5.222,17.622-7.833c6.307-2.611,11.53-6.526,15.446-11.312c3.975-4.6,5.514-10.219,5.242-16.83	c-6.123-2.802-12.811-4.27-20.035-4.27c-13.488,0-24.801,4.784-34.372,14.14v-0.219c-9.354,9.354-14.141,20.667-14.141,33.937	c0,5.035,0.697,9.783,2.063,14.256C53.508,108.609,57.075,104.559,61.789,101.164L61.789,101.164z"/><path style="fill-rule:evenodd;clip-rule:evenodd;fill:#FFFFFF;" d="M131.838,92.68c-3.699,4.785-8.92,8.484-15.229,11.094	c-6.309,2.395-12.4,4.789-18.273,7.613c-6.091,2.613-11.965,5.658-17.621,9.574c-5.657,3.697-10.225,8.484-13.707,14.139	c-0.189,0.271-0.367,0.541-0.552,0.811c8.784,7.193,18.947,10.723,30.792,10.723c13.27,0,24.801-4.57,34.154-13.924	c9.57-9.357,14.141-20.668,14.141-33.938c0-7.83-1.637-14.957-4.906-21.424C138.486,82.599,135.535,87.814,131.838,92.68	L131.838,92.68z"/><path style="fill-rule:evenodd;clip-rule:evenodd;fill:#FFFFFF;" d="M115.521,74.843c-4.568,5.438-10.225,9.571-17.186,12.615	c-6.091,2.395-11.965,5.005-17.621,7.614c-6.31,2.831-11.748,5.875-16.315,9.573c-4.787,3.48-8.269,7.83-10.877,12.4	c-0.871,1.957-1.523,3.482-2.394,5.221l11.096,12.182c0.217-0.436,0.652-1.086,1.088-1.738c3.696-6.094,8.702-11.094,15.228-15.445	c5.656-3.701,11.747-7.18,18.056-10.008c5.875-2.611,11.965-5.004,18.057-7.396c0,0,0.217,0,0.217-0.217	c5.656-2.178,10.225-5.439,13.486-9.572c3.916-5.222,6.746-10.66,8.922-16.098c0-0.217,0.217-0.436,0.217-0.655	c1.303-3.48,1.957-7.176,1.957-11.311l-17.838-2.611C121.178,65.487,119.219,70.492,115.521,74.843L115.521,74.843z"/><path style="fill-rule:evenodd;clip-rule:evenodd;" d="M114.652,87.241c-1.305-1.74-1.523-3.48-0.873-5.222	c0.436-1.521,1.959-3.044,3.918-4.567c1.74-1.087,3.264-1.521,4.568-1.74c1.305,0,2.611,0.219,3.699,1.088l-3.264,3.044	c-0.436-0.434-0.652-0.434-0.871-0.434c-0.217-0.216-0.652-0.216-1.088-0.216c-0.652,0.216-1.088,0.216-1.305,0.65	c-1.088,0.438-1.523,1.307-1.523,2.175c-0.217,0.654,0,1.525,0.652,2.395c0.871,1.306,1.523,1.957,2.395,1.957	c0.434,0.219,1.305,0,2.176-0.65c0.652-0.438,1.305-0.871,1.521-1.525c0-0.65,0-1.305-0.217-2.176l4.133-1.304	c0.434,0.871,0.434,1.742,0.217,2.611s-0.652,1.74-1.305,2.611c-0.436,0.652-1.305,1.521-2.609,2.175	c-1.307,1.088-2.611,1.521-3.699,1.74c-1.088,0.218-2.393,0.218-3.699-0.219C116.391,89.2,115.303,88.329,114.652,87.241	L114.652,87.241z"/><polygon style="fill-rule:evenodd;clip-rule:evenodd;" points="69.403,107.691 70.707,109.432 75.929,106.168 77.233,108.125	72.014,111.605 74.841,115.957 70.707,118.568 63.964,108.125 73.97,101.598 75.494,103.773 69.403,107.691	"/><polygon style="fill-rule:evenodd;clip-rule:evenodd;" points="99.207,103.557 94.637,105.516 90.069,93.984 101.164,89.417	102.25,92.027 95.508,94.638 96.376,96.598 102.033,94.203 103.121,96.598 97.248,98.988 99.207,103.557	"/><path style="fill-rule:evenodd;clip-rule:evenodd;fill:#738B60;" d="M78.973,91.159c5.658-2.613,11.532-5.222,17.622-7.833	c6.307-2.611,11.53-6.526,15.446-11.312c1.9-2.201,3.225-4.64,4.084-7.3c-2.012-0.546-4.012-0.748-5.824-0.748	c-1.74,0-3.48,0.217-5.004,0.869c-1.088-1.957-2.826-3.263-5.002-3.482c-3.047-0.65-4.57,0.438-5.006,3.046	c-1.74,0-3.263,0.436-5.003,1.088c-0.217,0-0.436,0-0.869,0c-1.523,0-3.263,0-4.786,0.436c-2.828,0.436-4.787,1.74-6.31,3.698	c-0.436-0.216-0.652-0.216-0.869-0.216c-0.436,0-0.655,0-0.655,0.216c-0.869,1.305-1.957,2.828-3.263,4.135	c-1.304,1.521-2.392,3.263-3.044,5.22c-0.219-0.219-0.436-0.436-0.652-0.436c-2.83-1.305-4.57-0.871-5.005,1.523	c-1.305-0.219-1.74,0.436-1.305,1.74c-0.217,0-0.436,0-0.871,0c-0.217-0.217-0.434,0-0.434,0c-1.087,1.523-1.523,3.263-1.742,5.005	c-0.869-0.219-1.739,0-2.392,0.649c-1.74,1.742-2.611,4.134-1.959,7.181c0.436,3.264,1.959,5.438,4.351,6.743	c0,0.26,0.023,0.506,0.034,0.76c0.419-0.33,0.833-0.66,1.272-0.977C66.575,97.465,72.23,93.984,78.973,91.159L78.973,91.159z"/><path style="fill-rule:evenodd;clip-rule:evenodd;fill:#738B60;" d="M116.609,103.773c-6.309,2.395-12.4,4.789-18.273,7.613	c-6.091,2.613-11.965,5.658-17.621,9.574c-2.246,1.467-4.271,3.152-6.171,4.949c0.414,0.348,0.858,0.66,1.385,0.924	c1.088,0.436,2.61,0.869,3.915,0.869c1.523,0,2.828,0,4.134-0.434c1.521-0.217,1.957-0.654,1.304-1.523	c0.652-0.869,1.523-1.088,2.611-1.307c1.523,0,2.827,0.438,4.132,1.088c0.654,0.438,1.523,0.654,2.175,0.871	c0,0.217,0,0.217,0,0.436c0,0.869,0,1.957,0,3.045c-1.087-0.217-2.175,0.219-2.828,1.307c-0.217,0-0.217,0.219-0.217,0.219	c-1.087,0-1.958,0-2.827-0.219c-1.523-0.219-2.611,0.436-3.047,1.74c-0.871,0-1.523,0.215-2.392,0.654	c-1.306,0.648-2.175,1.736-1.958,3.262c0.217,0.434,0.436,0.869,0.871,0.869c0.869,0.219,1.521,0.436,2.175,0.436	c-0.436,0.652-0.436,1.305,0,2.393c0,0,0.217,0.217,0.652,0.217c0.869,0,1.957,0,2.828,0c1.087,0,2.175,0,3.263,0	c1.088,0,1.959,0,3.047-0.217c1.304,0,2.608-0.217,3.916-0.217c0.436-0.217,0.869-0.217,1.305-0.436	c1.521,0.219,2.393-0.219,2.393-1.307c1.09,0,1.957,0,2.828,0c1.088,0.219,2.176,0.219,3.264,0.219	c1.305,0.219,2.176,0,3.045-0.652c1.307-0.871,1.523-1.742,0.871-2.83c-0.436-0.434-0.871-0.648-1.305-0.648	c-0.219,0-0.436,0-0.436,0c-0.652-0.873-1.523-1.307-2.395-1.959c-0.434,0-0.869-0.217-1.305-0.217s-0.652,0.217-0.871,0.217	c0,0-0.217,0-0.217-0.217c-0.652-0.219-1.523-0.438-2.391-0.438c-0.656,0-1.307,0-1.961,0c0-0.434,0-1.088,0-1.738	c0-1.525,0-2.83,0-4.135c0-0.217,0-0.436,0-0.654c0.871,0,1.74,0,2.393-0.217c1.523,0,2.83,0,4.135,0	c1.088-0.217,2.176-0.434,3.264-0.652c0.652-0.219,1.305-0.652,1.523-1.307c0.867,0,1.523,0,2.609,0	c1.088,0.219,2.176-0.217,3.045-0.869c0.219-0.217,0.436-0.217,0.871-0.65c0.652-1.088,1.088-2.176,1.088-3.48	c1.305,0,2.393-0.219,3.48-0.871c1.088-0.436,2.176-1.305,3.264-2.176c0.219-0.217,0.65-0.654,0.869-1.305	c0.652,0.217,1.305,0.434,2.176,0.434c1.088,0,1.74-0.652,1.74-1.74c1.088,0,1.959-0.867,2.393-2.395	c0.219-0.432,0.436-0.867,0.436-1.52c0.219-0.217,0.436-0.436,0.652-0.436c0.654,0,1.088-0.219,1.307-0.869	c0-0.219,0.436-0.219,1.088-0.219s0.867-0.869,0.867-2.176c0-1.523,0.436-2.611,0.871-3.699c0.652-1.305,0.652-2.609,0.217-4.135	c-0.652-1.087-1.088-2.391-1.52-3.696c-0.219-0.216-0.219-0.435-0.436-0.435c-0.436-1.088-1.307-1.957-2.611-2.395	c-0.256-0.127-0.498-0.257-0.736-0.387c-0.547,0.783-1.074,1.577-1.656,2.346C128.139,97.465,122.918,101.164,116.609,103.773	L116.609,103.773z"/></g></svg>