<?xml version="1.0" encoding="iso-8859-1"?><!-- Generator: Adobe Illustrator 16.0.0, SVG Export Plug-In . SVG Version: 6.00 Build 0) --><!DOCTYPE svg PUBLIC "-//W3C//DTD SVG 1.1//EN" "http://www.w3.org/Graphics/SVG/1.1/DTD/svg11.dtd"><svg version="1.1" id="Layer_1" xmlns="http://www.w3.org/2000/svg" xmlns:xlink="http://www.w3.org/1999/xlink" x="0px" y="0px" width="192.756px" height="192.756px" viewBox="0 0 192.756 192.756" style="enable-background:new 0 0 192.756 192.756;" xml:space="preserve"><g><polygon style="fill-rule:evenodd;clip-rule:evenodd;fill:#FFFFFF;" points="0,0 192.756,0 192.756,192.756 0,192.756 0,0	"/><path style="fill-rule:evenodd;clip-rule:evenodd;fill:#A92E5A;" d="M22.817,184.252L22.817,184.252L22.817,184.252L22.817,184.252	z M169.916,37.574c-29.029,5.495-53.564-4.176-73.544-29.07c-19.979,24.914-44.474,34.584-73.504,29.07	c-0.051,20.699,1.398,39.619,5.994,56.761c0.2,1.06,0.639,2.579,1.298,4.596c10.549,35.863,32.607,64.293,66.212,85.252	c33.505-20.959,55.563-49.389,66.272-85.252c0.619-2.518,0.998-4.017,1.197-4.596C168.379,77.273,170.166,58.333,169.916,37.574	L169.916,37.574z"/><path style="fill-rule:evenodd;clip-rule:evenodd;fill:#FFFFFF;" d="M165.361,42.968c-26.773,3.517-49.729-5.574-68.929-27.312	c-19.28,21.737-42.277,30.888-69.049,27.312c-0.12,18.122,1.838,34.904,5.914,50.189c0,0.04,0,0.12,0.04,0.18	c0.2,0.939,0.62,2.357,1.199,4.175c0,0.061,0,0.061,0.06,0.08c9.97,33.926,30.569,60.998,61.776,81.137	c31.128-20.139,51.708-47.211,61.837-81.137c0.559-2.277,0.959-3.795,1.178-4.455v0.02C163.383,77.953,165.4,61.19,165.361,42.968	L165.361,42.968z"/><path style="fill-rule:evenodd;clip-rule:evenodd;fill:#FFFFFF;" d="M159.387,93.137l0.061-0.16	C159.428,93.017,159.408,93.077,159.387,93.137L159.387,93.137z"/><path style="fill-rule:evenodd;clip-rule:evenodd;fill:#A92E5A;" d="M96.432,24.828C78.431,42.889,57.512,51.28,33.716,49.881	c0.38,14.945,2.258,28.831,5.654,41.637c0.04,0.22,0.08,0.459,0.1,0.66c0.16,0.56,0.399,1.298,0.679,2.178h12.028	c0.299-0.4,0.599-0.779,0.799-1.159c4.555-7.752,10.349-13.546,17.382-17.402c0.22-0.1,0.419-0.22,0.619-0.32	c2.618-1.378,5.395-2.457,8.271-3.316c0.2-0.06,0.4-0.14,0.62-0.2c1.638-0.439,3.356-0.839,5.115-1.119v6.933	c-1.798,0.379-3.477,0.859-5.115,1.358c-0.22,0.02-0.419,0.12-0.62,0.2c-3.057,0.979-5.794,2.178-8.271,3.596	c-0.2,0.14-0.399,0.24-0.619,0.34c-4.875,2.897-8.551,6.573-11.089,11.089h11.708V83.667c2.478-1.458,5.215-2.657,8.271-3.656	v13.946c1.639-0.32,3.537-0.619,5.734-0.819c0.2-0.06,0.419-0.06,0.619-0.1c2.318-0.259,4.975-0.459,7.852-0.58	c0.2-0.06,0.419-0.06,0.62-0.06c1.059-0.04,2.138-0.1,3.257-0.12c0.219-0.04,0.418-0.04,0.658-0.04	c0.02-0.2,0.061-0.379,0.121-0.579c0.279-1.379,0.699-2.857,1.197-4.416h-5.854v4.555c-2.877,0.16-5.534,0.359-7.852,0.6V67.383	c2.558-0.699,5.175-1.158,7.852-1.398v17.622h11.129l3.117,4.056c-1.299,1.259-2.299,2.518-3.057,3.816	c-0.121,0.199-0.24,0.419-0.32,0.619c0.199,0,0.439,0,0.699,0c1.258-0.02,2.557-0.02,3.916-0.02c0.199,0.759,0.4,1.499,0.619,2.278	h43.035c0.221-1.019,0.439-1.878,0.6-2.458c0.061-0.12,0.061-0.22,0.1-0.319c3.377-12.807,5.256-26.692,5.715-41.697	C135.232,51.22,114.373,42.889,96.432,24.828L96.432,24.828z M85.603,66.764c-0.2,0.04-0.419,0.12-0.619,0.16	c-1.978,0.56-3.856,1.259-5.734,2.118v2.477c-2.877,0.779-5.654,1.878-8.271,3.257v-4.795c-1.119-1.419-2.757-2.118-4.915-2.098	l4.895-4.875c5.554,0.359,9.49,0.06,11.848-0.819c0.679-0.3,1.418-0.5,2.258-0.72c0.22-0.08,0.419-0.1,0.679-0.14	c1.978-0.459,4.295-0.879,7.033-1.179c0.2-0.06,0.479-0.06,0.679-0.06c0.2-0.02,0.419-0.02,0.62-0.02	c3.416-0.199,7.693,0.2,12.828,1.179c-0.381,1.459-0.4,2.997-0.141,4.636c-4.416-0.7-8.631-0.879-12.687-0.58	c-0.2,0-0.42,0-0.62,0.02C90.778,65.605,88.161,66.045,85.603,66.764L85.603,66.764z M109.139,75.855	c-4.975-0.779-9.969-0.66-15.064,0.339v-6.213c4.634-0.14,9.351,0.08,14.146,0.739c0.299,0.619,0.559,1.199,0.918,1.818	c0.041,0.14,0.18,0.2,0.301,0.26c0.02,0.04,0.119,0.04,0.18,0.04C109.379,73.897,109.238,74.896,109.139,75.855L109.139,75.855z M108.959,70.84c-0.119-0.28-0.199-0.479-0.318-0.679c-0.561-1.219-0.939-2.377-1.141-3.536c-0.039-0.2-0.1-0.399-0.119-0.62	c-0.26-1.618-0.221-3.177,0.18-4.635c0.02-0.22,0.1-0.399,0.141-0.599c0.758-2.378,2.316-4.616,4.715-6.653	c-1.68-1.159-3.076-2.458-4.195-3.936c-3.498,1.618-8.432,3.057-14.766,4.176v5.115c-0.26,0-0.5,0-0.759,0.04	c-2.657,0.3-4.955,0.68-6.853,1.139c0.119-4.915-2.338-7.672-7.273-8.191l4.715-4.715c8.491,0.799,17.302-0.319,26.392-3.376	c3.438,3.376,8.072,6.434,13.967,9.091c-1.26,0.379-1.857,1.079-1.818,2.178c-1.898-0.6-3.297-0.6-4.275,0	c-2.178,1.258-3.877,3.256-5.176,6.014c-0.139,0.22-0.238,0.379-0.299,0.599c-0.561,1.299-1.059,2.757-1.439,4.376	c-0.02,0.239-0.139,0.379-0.18,0.599c-0.199,0.959-0.398,2.018-0.559,3.117c0,0.2,0,0.4-0.061,0.62	c-0.02,0.399-0.1,0.839-0.16,1.258C109.379,71.739,109.18,71.299,108.959,70.84L108.959,70.84z M110.139,81.009	c-0.381-1.418-0.52-2.877-0.4-4.415c0-0.2,0-0.4,0.02-0.62c0.141-1.559,0.439-3.176,1-4.855c0.039-0.2,0.139-0.399,0.24-0.64	c0.379-1.119,0.898-2.237,1.498-3.416c-0.42-0.14-0.859-0.2-1.199-0.3c0.34-1.638,0.84-3.117,1.439-4.396	c4.074,0.56,7.551,0.26,10.348-0.899l2.379,4.336c-3.936,1.299-6.734,3.296-8.432,6.114c-0.16,0.18-0.221,0.32-0.301,0.54	c-0.799,1.438-1.299,3.057-1.537,4.875c-0.02,0.2-0.02,0.419-0.02,0.619v0.02c-0.041,0.56-0.102,1.06-0.102,1.619	c0,3.017,1.16,5.394,3.396,7.152C113.914,87.124,111.137,85.185,110.139,81.009L110.139,81.009z M135.053,91.159	c-4.057,0.62-7.174,0.141-9.391-1.438c-1.279-1.219-2.197-2.498-2.697-3.936c-0.859-2.478-1.799-4.236-2.877-5.335	c-1.059-1.019-2.438-1.998-4.236-2.877c0.201-1.798,0.68-3.436,1.459-4.854c3.717,1.458,8.152,2.197,13.326,2.357	c-0.379,0.819,0,1.998,1.219,3.496c-3.057,0.38-4.654,1.299-4.734,2.737c-0.68,4.615,1.457,6.533,6.354,5.814	c2.137,0.1,3.236,0.679,3.256,1.778C136.432,90.18,135.912,90.919,135.053,91.159L135.053,91.159z"/><path style="fill-rule:evenodd;clip-rule:evenodd;fill:#556931;" d="M134.992,98.951c-0.299-0.439-0.5-0.879-0.578-1.359	c-0.061-0.498-0.16-0.998-0.221-1.457l-1.02,1.197c-0.359,0.561-0.799,1.061-1.238,1.619h-21.877	c0.061,1.299-0.041,2.617-0.221,3.936c-0.699-1.719-1.697-3.016-3.076-3.936c-0.939-0.619-2.039-1.119-3.236-1.379	c-0.24-0.061-0.42-0.1-0.619-0.119c0,0.059,0,0.139,0,0.299c0,0.08,0,0.18,0.02,0.32c0.061,0.299,0.061,0.578,0.119,0.879	c0.5,2.178,2.059,4.455,4.656,6.893l-1.379,0.799c-0.561,0.84-0.561,1.699,0,2.498c-3.977-1.598-6.713-4.057-8.053-7.432	c-0.398-0.84-0.578-1.76-0.719-2.758c-0.039-0.439-0.061-0.859-0.119-1.318c0-0.18,0-0.42,0-0.619	c-0.221-0.041-0.42-0.041-0.62-0.041c-0.879,0-1.778,0.041-2.737,0.061c-0.2,0-0.42,0-0.62,0.061	c-2.357,0.119-4.935,0.418-7.852,0.938c-0.2,0.041-0.419,0.041-0.619,0.061c-1.379,0.24-2.857,0.539-4.315,0.859	c-0.52,0.061-1.019,0.141-1.519,0.26c-0.08,4.576-0.5,9.17-1.279,13.785c-0.04,0.201-0.1,0.381-0.12,0.58	c-0.5,2.736-1.159,5.514-1.878,8.211c-0.061,0.201-0.16,0.42-0.18,0.641c-0.379,1.299-0.779,2.596-1.179,3.895	c2.977,0.281,5.254,2.199,6.993,5.795c-0.879,1.877-1.878,3.557-3.057,4.975c0-0.039,0-0.039-0.02-0.1	c-2.238-4.477-5.894-6.314-11.009-5.475l-2.917-3.557c1.738-1.559,3.177-4.195,4.236-8.031c0.04-0.199,0.12-0.439,0.16-0.639	c0.639-2.318,1.079-5.035,1.438-8.092c0.02-0.26,0.02-0.48,0.06-0.68c0.34-3.377,0.56-7.293,0.579-11.568H58.831	c2.438,5.574,6.054,9.57,10.909,11.947c-0.38,3.098-0.839,5.834-1.379,8.133c-6.853-3.457-12.447-8.971-16.803-16.584	c-1.019-1.758-2.018-2.938-3.017-3.496h-7.013c9.51,29.75,27.832,53.844,54.844,72.227c26.913-18.383,45.233-42.477,54.823-72.227	H134.992L134.992,98.951z M85.603,98.65c2.917-0.459,5.495-0.818,7.852-0.898v16.703c-2.757,0.119-5.375,0.1-7.852-0.1V98.65	L85.603,98.65z M79.37,138.75c1.559-0.379,3.117-0.539,4.555-0.58c1.319,2.857,2.997,5.416,5.035,7.613	C84.784,144.604,81.607,142.287,79.37,138.75L79.37,138.75z M94.155,140.27c-3.077-1.84-6.354-2.777-9.851-2.777	c-0.199,0-0.439,0-0.639,0.059c-1.538,0.041-3.057,0.24-4.615,0.619c-0.22,0.041-0.419,0.121-0.619,0.18	c-0.16,0.021-0.24,0.021-0.3,0.08c0.06-0.08,0.14-0.18,0.2-0.219c0.12-0.16,0.3-0.34,0.439-0.52	c1.159-1.379,2.178-2.996,3.117-4.775c0.12-0.279,0.22-0.539,0.339-0.779c1.079-2.457,1.958-5.295,2.578-8.41	c2.657,0.119,5.414,0.039,8.291-0.26c-0.12,2.297,0.24,4.355,0.979,6.152c1.958,4.895,7.953,9.311,17.882,13.207	C104.943,143.965,98.99,143.105,94.155,140.27L94.155,140.27z M142.824,110.439c-3.057-0.6-5.854-1.598-8.471-2.996	c-3.477,1.697-5.234,4.795-5.275,9.309c-6.373-0.318-12.326,0.381-17.842,2.1c-6.232,2.018-12.066,3.316-17.461,3.916	c-0.2,0.02-0.399,0.02-0.619,0.078c-2.857,0.301-5.595,0.381-8.212,0.24c-0.2-0.039-0.439-0.039-0.64-0.039	c-2.697-0.18-5.354-0.561-7.832-1.08c0.779-2.736,1.398-5.494,1.898-8.211c2.058,0.539,4.256,0.92,6.613,1.119	c0.2,0.061,0.419,0.061,0.619,0.08c2.478,0.219,5.115,0.219,7.852,0.1c0.2,0,0.419,0,0.62-0.061	c4.736-0.299,9.81-1.039,15.304-2.316c10.029-2.418,17.822-7.014,23.375-13.727c0.361-0.439,0.68-0.859,1-1.318	c0.061,0.459,0.219,0.879,0.439,1.318c1.219,2.037,5.016,3.217,11.428,3.416C142.205,104.824,141.266,107.482,142.824,110.439	L142.824,110.439z"/></g></svg>