<?xml version="1.0" encoding="UTF-8" standalone="no"?>
<!-- Created with Inkscape (http://www.inkscape.org/) -->
<svg xmlns:dc="http://purl.org/dc/elements/1.1/" xmlns:cc="http://creativecommons.org/ns#" xmlns:rdf="http://www.w3.org/1999/02/22-rdf-syntax-ns#" xmlns:svg="http://www.w3.org/2000/svg" xmlns="http://www.w3.org/2000/svg" xmlns:sodipodi="http://sodipodi.sourceforge.net/DTD/sodipodi-0.dtd" xmlns:inkscape="http://www.inkscape.org/namespaces/inkscape" width="1200" height="1200" id="svg2" sodipodi:version="0.32" inkscape:version="0.46" version="1.0" sodipodi:docname="novo-escudo.svg" inkscape:output_extension="org.inkscape.output.svg.inkscape">
  <defs id="defs4">
    <inkscape:perspective sodipodi:type="inkscape:persp3d" inkscape:vp_x="0 : 526.18109 : 1" inkscape:vp_y="0 : 1000 : 0" inkscape:vp_z="744.09448 : 526.18109 : 1" inkscape:persp3d-origin="372.04724 : 350.78739 : 1" id="perspective10"/>
    <inkscape:perspective id="perspective2410" inkscape:persp3d-origin="372.04724 : 350.78739 : 1" inkscape:vp_z="744.09448 : 526.18109 : 1" inkscape:vp_y="0 : 1000 : 0" inkscape:vp_x="0 : 526.18109 : 1" sodipodi:type="inkscape:persp3d"/>
  </defs>
  <sodipodi:namedview id="base" pagecolor="#ffffff" bordercolor="#666666" borderopacity="1.0" inkscape:pageopacity="0.0" inkscape:pageshadow="2" inkscape:zoom="0.1726111" inkscape:cx="575.0953" inkscape:cy="590.29421" inkscape:document-units="px" inkscape:current-layer="layer1" showgrid="false" inkscape:window-width="1280" inkscape:window-height="753" inkscape:window-x="-4" inkscape:window-y="-4" showguides="true" inkscape:guide-bbox="true"/>
  <metadata id="metadata7">
    <rdf:RDF>
      <cc:Work rdf:about="">
        <dc:format>image/svg+xml</dc:format>
        <dc:type rdf:resource="http://purl.org/dc/dcmitype/StillImage"/>
      </cc:Work>
    </rdf:RDF>
  </metadata>
  <g inkscape:label="Camada 1" inkscape:groupmode="layer" id="layer1">
    <g id="g3460">
      <g id="g3313">
        <path sodipodi:type="arc" style="opacity: 1; fill: rgb(255, 255, 255); fill-opacity: 1; stroke: rgb(229, 5, 15); stroke-width: 12; stroke-miterlimit: 4; stroke-dasharray: none; stroke-opacity: 1;" id="path3294" sodipodi:cx="-1224.0469" sodipodi:cy="682.94574" sodipodi:rx="419.44708" sodipodi:ry="419.44708" d="M -804.59979,682.94574 A 419.44708,419.44708 0 1 1 -1643.494,682.94574 A 419.44708,419.44708 0 1 1 -804.59979,682.94574 z" transform="matrix(1.17303, 0, 0, 1.17303, 2048.01, -221.204)"/>
        <g id="g3296" transform="translate(1259.98, 3.93111e-07)">
          <path transform="matrix(0.935552, 0, 0, 0.935552, 499.852, -59.6308)" d="M -804.59979,682.94574 A 419.44708,419.44708 0 1 1 -1643.494,682.94574 A 419.44708,419.44708 0 1 1 -804.59979,682.94574 z" sodipodi:ry="419.44708" sodipodi:rx="419.44708" sodipodi:cy="682.94574" sodipodi:cx="-1224.0469" id="path3278" style="opacity: 1; fill: rgb(255, 255, 255); fill-opacity: 1; stroke: rgb(229, 5, 15); stroke-width: 12; stroke-miterlimit: 4; stroke-dasharray: none; stroke-opacity: 1;" sodipodi:type="arc"/>
          <path transform="matrix(0.777218, 0, 0, 0.777218, -945.06, -26.0259)" d="M 869.82751,778.63025 A 484.5752,484.5752 0 1 1 -99.322876,778.63025 A 484.5752,484.5752 0 1 1 869.82751,778.63025 z" sodipodi:ry="484.5752" sodipodi:rx="484.5752" sodipodi:cy="778.63025" sodipodi:cx="385.25232" id="path2416" style="opacity: 1; fill: rgb(229, 5, 15); fill-opacity: 1; stroke: none; stroke-width: 22.2; stroke-miterlimit: 4; stroke-dasharray: none; stroke-opacity: 1;" sodipodi:type="arc"/>
          <g transform="translate(220.968, 51.6129)" id="g3246">
            <path style="fill: rgb(255, 255, 255); fill-opacity: 1; fill-rule: evenodd; stroke: none; stroke-width: 1px; stroke-linecap: butt; stroke-linejoin: miter; stroke-opacity: 1;" d="M -714.43486,431.77035 C -712.21206,414.439 -704.9601,398.78403 -696.36257,383.57758 L -671.46297,394.82256 L -648.97301,364.30047 L -626.48305,371.12778 C -626.15132,411.27182 -627.24088,452.63411 -612.42683,480.36473 L -623.67181,494.42096 C -649.14733,470.35154 -676.27586,447.38412 -714.43486,431.77035 z" id="path3188" sodipodi:nodetypes="cccccccc"/>
            <path style="fill: rgb(255, 255, 255); fill-opacity: 1; fill-rule: evenodd; stroke: none; stroke-width: 1px; stroke-linecap: butt; stroke-linejoin: miter; stroke-opacity: 1;" d="M -756.29447,473.37641 C -806.04874,473.18144 -769.99023,414.92267 -762.7178,392.67972 C -756.18517,372.69948 -766.07259,332.37895 -804.22073,318.07687 L -804.22073,266.9248 C -729.10231,288.69762 -720.72006,338.77007 -677.49262,315.77272 L -677.49262,341.11835 C -744.90303,410.24032 -715.37893,472.9785 -756.29447,473.37641 z" id="path3190" sodipodi:nodetypes="csccccc"/>
            <path style="fill: rgb(255, 255, 255); fill-opacity: 1; fill-rule: evenodd; stroke: none; stroke-width: 1px; stroke-linecap: butt; stroke-linejoin: miter; stroke-opacity: 1;" d="M -956.7553,361.85567 C -882.96094,343.1867 -827.56986,349.05544 -775.6493,359.55153 C -768.18393,381.33337 -774.67123,396.13887 -781.64009,410.7036 C -832.41523,402.40188 -886.71917,400.27556 -952.147,417.61604 C -963.20058,400.93275 -964.13079,382.22478 -956.7553,361.85567 z" id="path3192" sodipodi:nodetypes="ccccc"/>
            <path style="fill: rgb(255, 255, 255); fill-opacity: 1; fill-rule: evenodd; stroke: none; stroke-width: 1px; stroke-linecap: butt; stroke-linejoin: miter; stroke-opacity: 1;" d="M -913.04393,317.99819 C -1001.5809,333.04353 -981.67449,437.86692 -913.04393,466.16892 L -913.04393,557.63234 C -1107.5049,501.50343 -1072.3665,289.99257 -913.04393,268.60795 L -913.04393,317.99819 z" id="path3194" sodipodi:nodetypes="cccc"/>
            <path style="fill: rgb(255, 255, 255); fill-opacity: 1; fill-rule: evenodd; stroke: none; stroke-width: 1px; stroke-linecap: butt; stroke-linejoin: miter; stroke-opacity: 1;" d="M -817.31222,646.65673 C -843.65639,650.22315 -871.0527,649.58101 -899.01954,646.65673 L -899.01954,417.99819 C -871.78377,415.2291 -844.54799,414.2921 -817.31222,417.99819 L -817.31222,646.65673 z" id="path3196" sodipodi:nodetypes="ccccc"/>
            <path style="fill: rgb(255, 255, 255); fill-opacity: 1; fill-rule: evenodd; stroke: none; stroke-width: 1px; stroke-linecap: butt; stroke-linejoin: miter; stroke-opacity: 1;" d="M -1185.6049,532.63234 C -1138.2373,509.71979 -1127.7679,459.44244 -1058.7756,408.85185 C -1056.7976,432.31008 -1054.1173,455.20648 -1044.1415,472.26649 C -1073.3892,514.51537 -1071.4139,554.62103 -1027.6781,603.36405 C -1037.8544,626.69683 -1050.2352,643.41628 -1063.6537,657.02258 C -1125.1686,620.41156 -1139.3571,572.80632 -1185.6049,532.63234 z" id="path3202" sodipodi:nodetypes="cccccc"/>
            <path style="fill: rgb(255, 255, 255); fill-opacity: 1; fill-rule: evenodd; stroke: none; stroke-width: 1px; stroke-linecap: butt; stroke-linejoin: miter; stroke-opacity: 1;" d="M -965.40302,701.50973 C -947.85532,682.12996 -942.98344,667.82051 -935.49812,652.46569 C -888.92125,662.26509 -834.68166,666.25941 -753.27757,649.67456 C -744.77002,666.72349 -748.01431,682.70408 -750.88518,698.71861 C -799.11644,716.04435 -888.96786,720.11577 -965.40302,701.50973 z" id="path3204" sodipodi:nodetypes="ccccc"/>
            <path style="fill: rgb(255, 255, 255); fill-opacity: 1; fill-rule: evenodd; stroke: none; stroke-width: 1px; stroke-linecap: butt; stroke-linejoin: miter; stroke-opacity: 1;" d="M -1099.7757,693.93382 L -1093.7947,719.85141 L -1057.9089,722.2438 C -1016.5322,751.54004 -972.26819,779.07181 -911.97293,796.80669 L -911.97293,746.16772 C -944.62348,740.6093 -965.65973,724.16247 -981.3523,702.70593 C -934.90299,652.73914 -925.48838,590.01592 -954.87578,577.25029 C -993.96909,560.26851 -1011.4259,600.25421 -1033.7554,636.33629 C -1048.3179,659.8676 -1069.3408,683.31617 -1099.7757,693.93382 z" id="path3206" sodipodi:nodetypes="ccccccssc"/>
            <path style="fill: rgb(255, 255, 255); fill-opacity: 1; fill-rule: evenodd; stroke: none; stroke-width: 1px; stroke-linecap: butt; stroke-linejoin: miter; stroke-opacity: 1;" d="M -817.05438,265.58125 C -816.86841,226.85893 -787.17917,231.54811 -773.16464,245.49612 C -775.12933,196.93437 -814.53362,191.15557 -833.42004,208.67337 C -839.01739,199.47827 -846.2547,192.46414 -857.78257,186.7285 C -868.10673,191.58797 -876.34605,198.79288 -882.70301,208.11545 C -900.5353,191.8367 -941.16093,195.85747 -942.95842,244.75222 C -927.93458,231.78658 -899.6266,227.20514 -899.6266,265.76723 L -899.44078,339.89944 C -872.90507,337.91897 -845.4812,337.71483 -816.96227,339.7008 L -817.05438,265.58125 z" id="path3208" sodipodi:nodetypes="cccccccccc"/>
            <path style="fill: rgb(255, 255, 255); fill-opacity: 1; fill-rule: evenodd; stroke: none; stroke-width: 1px; stroke-linecap: butt; stroke-linejoin: miter; stroke-opacity: 1;" d="M -816.97112,798.56393 C -816.78515,837.28625 -787.09591,832.59707 -773.08138,818.64906 C -775.04607,867.21081 -814.45036,872.98961 -833.33678,855.47181 C -838.93413,864.66691 -846.17144,871.68104 -857.69931,877.41668 C -868.02347,872.55721 -876.26279,865.3523 -882.61975,856.02973 C -900.45204,872.30848 -941.07767,868.28771 -942.87516,819.39296 C -927.85132,832.3586 -899.54334,836.94004 -899.54334,798.37795 L -899.35752,724.24574 C -872.82181,726.22621 -845.39794,726.43035 -816.87901,724.44438 L -816.97112,798.56393 z" id="path3216" sodipodi:nodetypes="cccccccccc"/>
            <path style="fill: rgb(255, 255, 255); fill-opacity: 1; fill-rule: evenodd; stroke: none; stroke-width: 1px; stroke-linecap: butt; stroke-linejoin: miter; stroke-opacity: 1;" d="M -804.98681,502.96797 L -804.98681,590.5748 C -704.80129,623.90094 -720.66138,748.68924 -803.70476,745.70301 L -803.70476,796.13036 C -696.29469,785.48435 -654.72078,718.87233 -654.06048,653.95194 C -653.31132,579.55259 -712.11082,526.88648 -804.98681,502.96797 z" id="path3218" sodipodi:nodetypes="ccccsc"/>
            <path style="fill: rgb(255, 255, 255); fill-opacity: 1; fill-rule: evenodd; stroke: none; stroke-width: 1px; stroke-linecap: butt; stroke-linejoin: miter; stroke-opacity: 1;" d="M -643.021,650.83121 C -642.89177,639.39597 -641.87107,629.23425 -649.43126,606.81412 L -626.35433,591.4295 L -600.28596,612.79703 C -610.48967,628.16929 -626.03325,639.98164 -643.021,650.83121 z" id="path3222" sodipodi:nodetypes="ccccc"/>
          </g>
        </g>
      </g>
      <text transform="matrix(0.127091, -0.991891, 0.991891, 0.127091, 0, 0)" sodipodi:linespacing="100%" id="text3332" y="267.484" x="-559.883" style="font-size: 75.0134px; font-style: normal; font-variant: normal; font-weight: 900; font-stretch: normal; text-align: start; line-height: 100%; text-anchor: start; fill: rgb(229, 5, 15); fill-opacity: 1; stroke: none; stroke-width: 1px; stroke-linecap: butt; stroke-linejoin: miter; stroke-opacity: 1; font-family: Arial Black;" xml:space="preserve"><tspan y="267.484" x="-559.883" id="tspan3342" sodipodi:role="line">S</tspan></text>
      <text transform="matrix(0.0915601, -0.9958, 0.9958, 0.0915601, 0, 0)" sodipodi:linespacing="100%" id="text3344" y="249.152" x="-509.287" style="font-size: 75.0134px; font-style: normal; font-variant: normal; font-weight: 900; font-stretch: normal; text-align: start; line-height: 100%; text-anchor: start; fill: rgb(229, 5, 15); fill-opacity: 1; stroke: none; stroke-width: 1px; stroke-linecap: butt; stroke-linejoin: miter; stroke-opacity: 1; font-family: Arial Black;" xml:space="preserve"><tspan y="249.152" x="-509.287" id="tspan3348" sodipodi:role="line">.</tspan></text>
      <text transform="matrix(0.285942, -0.958247, 0.958247, 0.285942, 0, 0)" sodipodi:linespacing="100%" id="text3350" y="339.011" x="-391.167" style="font-size: 75.0134px; font-style: normal; font-variant: normal; font-weight: 900; font-stretch: normal; text-align: start; line-height: 100%; text-anchor: start; fill: rgb(229, 5, 15); fill-opacity: 1; stroke: none; stroke-width: 1px; stroke-linecap: butt; stroke-linejoin: miter; stroke-opacity: 1; font-family: Arial Black;" xml:space="preserve"><tspan y="339.011" x="-391.167" id="tspan3354" sodipodi:role="line">C</tspan></text>
      <text transform="matrix(0.36378, -0.931485, 0.931485, 0.36378, 0, 0)" sodipodi:linespacing="100%" id="text3356" y="367.886" x="-300.223" style="font-size: 75.0134px; font-style: normal; font-variant: normal; font-weight: 900; font-stretch: normal; text-align: start; line-height: 100%; text-anchor: start; fill: rgb(229, 5, 15); fill-opacity: 1; stroke: none; stroke-width: 1px; stroke-linecap: butt; stroke-linejoin: miter; stroke-opacity: 1; font-family: Arial Black;" xml:space="preserve"><tspan y="367.886" x="-300.223" id="tspan3358" sodipodi:role="line">.</tspan></text>
      <text transform="matrix(0.560403, -0.82822, 0.82822, 0.560403, 0, 0)" sodipodi:linespacing="100%" id="text3360" y="416.281" x="-159.056" style="font-size: 75.0134px; font-style: normal; font-variant: normal; font-weight: 900; font-stretch: normal; text-align: start; line-height: 100%; text-anchor: start; fill: rgb(229, 5, 15); fill-opacity: 1; stroke: none; stroke-width: 1px; stroke-linecap: butt; stroke-linejoin: miter; stroke-opacity: 1; font-family: Arial Black;" xml:space="preserve"><tspan y="416.281" x="-159.056" id="tspan3364" sodipodi:role="line">I</tspan></text>
      <text transform="matrix(0.679665, -0.733523, 0.733523, 0.679665, 0, 0)" sodipodi:linespacing="100%" id="text3366" y="427.316" x="-32.4816" style="font-size: 75.0134px; font-style: normal; font-variant: normal; font-weight: 900; font-stretch: normal; text-align: start; line-height: 100%; text-anchor: start; fill: rgb(229, 5, 15); fill-opacity: 1; stroke: none; stroke-width: 1px; stroke-linecap: butt; stroke-linejoin: miter; stroke-opacity: 1; font-family: Arial Black;" xml:space="preserve"><tspan y="427.316" x="-32.4816" id="tspan3370" sodipodi:role="line">N</tspan></text>
      <text transform="matrix(0.84212, -0.53929, 0.53929, 0.84212, 0, 0)" sodipodi:linespacing="100%" id="text3372" y="402.58" x="170.221" style="font-size: 75.0134px; font-style: normal; font-variant: normal; font-weight: 900; font-stretch: normal; text-align: start; line-height: 100%; text-anchor: start; fill: rgb(229, 5, 15); fill-opacity: 1; stroke: none; stroke-width: 1px; stroke-linecap: butt; stroke-linejoin: miter; stroke-opacity: 1; font-family: Arial Black;" xml:space="preserve"><tspan y="402.58" x="170.221" id="tspan3376" sodipodi:role="line">T</tspan></text>
      <text transform="matrix(0.921758, -0.387765, 0.387765, 0.921758, 0, 0)" sodipodi:linespacing="100%" id="text3378" y="357.53" x="319.981" style="font-size: 75.0134px; font-style: normal; font-variant: normal; font-weight: 900; font-stretch: normal; text-align: start; line-height: 100%; text-anchor: start; fill: rgb(229, 5, 15); fill-opacity: 1; stroke: none; stroke-width: 1px; stroke-linecap: butt; stroke-linejoin: miter; stroke-opacity: 1; font-family: Arial Black;" xml:space="preserve"><tspan y="357.53" x="319.981" id="tspan3382" sodipodi:role="line">E</tspan></text>
      <text transform="matrix(0.982505, -0.186237, 0.186237, 0.982505, 0, 0)" sodipodi:linespacing="100%" id="text3384" y="267.395" x="469.765" style="font-size: 75.0134px; font-style: normal; font-variant: normal; font-weight: 900; font-stretch: normal; text-align: start; line-height: 100%; text-anchor: start; fill: rgb(229, 5, 15); fill-opacity: 1; stroke: none; stroke-width: 1px; stroke-linecap: butt; stroke-linejoin: miter; stroke-opacity: 1; font-family: Arial Black;" xml:space="preserve"><tspan y="267.395" x="469.765" id="tspan3388" sodipodi:role="line">R</tspan></text>
      <text transform="matrix(0.999996, 0.00273449, -0.00273449, 0.999996, 0, 0)" sodipodi:linespacing="100%" id="text3390" y="162.492" x="603.769" style="font-size: 75.0134px; font-style: normal; font-variant: normal; font-weight: 900; font-stretch: normal; text-align: start; line-height: 100%; text-anchor: start; fill: rgb(229, 5, 15); fill-opacity: 1; stroke: none; stroke-width: 1px; stroke-linecap: butt; stroke-linejoin: miter; stroke-opacity: 1; font-family: Arial Black;" xml:space="preserve"><tspan y="162.492" x="603.769" id="tspan3394" sodipodi:role="line">N</tspan></text>
      <text transform="matrix(0.969353, 0.245673, -0.245673, 0.969353, 0, 0)" sodipodi:linespacing="100%" id="text3396" y="-6.21926" x="723.28" style="font-size: 75.0134px; font-style: normal; font-variant: normal; font-weight: 900; font-stretch: normal; text-align: start; line-height: 100%; text-anchor: start; fill: rgb(229, 5, 15); fill-opacity: 1; stroke: none; stroke-width: 1px; stroke-linecap: butt; stroke-linejoin: miter; stroke-opacity: 1; font-family: Arial Black;" xml:space="preserve"><tspan y="-6.21926" x="723.28" id="tspan3400" sodipodi:role="line">A</tspan></text>
      <text transform="matrix(0.838982, 0.544159, -0.544159, 0.838982, 0, 0)" sodipodi:linespacing="100%" id="text3402" y="-262.307" x="769.312" style="font-size: 75.0134px; font-style: normal; font-variant: normal; font-weight: 900; font-stretch: normal; text-align: start; line-height: 100%; text-anchor: start; fill: rgb(229, 5, 15); fill-opacity: 1; stroke: none; stroke-width: 1px; stroke-linecap: butt; stroke-linejoin: miter; stroke-opacity: 1; font-family: Arial Black;" xml:space="preserve"><tspan y="-262.307" x="769.312" id="tspan3406" sodipodi:role="line">C</tspan></text>
      <text transform="matrix(0.786954, 0.617012, -0.617012, 0.786954, 0, 0)" sodipodi:linespacing="100%" id="text3408" y="-339.766" x="833.428" style="font-size: 75.0134px; font-style: normal; font-variant: normal; font-weight: 900; font-stretch: normal; text-align: start; line-height: 100%; text-anchor: start; fill: rgb(229, 5, 15); fill-opacity: 1; stroke: none; stroke-width: 1px; stroke-linecap: butt; stroke-linejoin: miter; stroke-opacity: 1; font-family: Arial Black;" xml:space="preserve"><tspan y="-339.766" x="833.428" id="tspan3412" sodipodi:role="line">I</tspan></text>
      <text transform="matrix(0.686449, 0.727178, -0.727178, 0.686449, 0, 0)" sodipodi:linespacing="100%" id="text3414" y="-465.289" x="832.866" style="font-size: 75.0134px; font-style: normal; font-variant: normal; font-weight: 900; font-stretch: normal; text-align: start; line-height: 100%; text-anchor: start; fill: rgb(229, 5, 15); fill-opacity: 1; stroke: none; stroke-width: 1px; stroke-linecap: butt; stroke-linejoin: miter; stroke-opacity: 1; font-family: Arial Black;" xml:space="preserve"><tspan y="-465.289" x="832.866" id="tspan3418" sodipodi:role="line">O</tspan></text>
      <text transform="matrix(0.477441, 0.878664, -0.878664, 0.477441, 0, 0)" sodipodi:linespacing="100%" id="text3420" y="-679.069" x="782.414" style="font-size: 75.0134px; font-style: normal; font-variant: normal; font-weight: 900; font-stretch: normal; text-align: start; line-height: 100%; text-anchor: start; fill: rgb(229, 5, 15); fill-opacity: 1; stroke: none; stroke-width: 1px; stroke-linecap: butt; stroke-linejoin: miter; stroke-opacity: 1; font-family: Arial Black;" xml:space="preserve"><tspan y="-679.069" x="782.414" id="tspan3424" sodipodi:role="line">N</tspan></text>
      <text transform="matrix(0.238557, 0.971128, -0.971128, 0.238557, 0, 0)" sodipodi:linespacing="100%" id="text3426" y="-875.736" x="682.015" style="font-size: 75.0134px; font-style: normal; font-variant: normal; font-weight: 900; font-stretch: normal; text-align: start; line-height: 100%; text-anchor: start; fill: rgb(229, 5, 15); fill-opacity: 1; stroke: none; stroke-width: 1px; stroke-linecap: butt; stroke-linejoin: miter; stroke-opacity: 1; font-family: Arial Black;" xml:space="preserve"><tspan y="-875.736" x="682.015" id="tspan3430" sodipodi:role="line">A</tspan></text>
      <text transform="matrix(0.0444341, 0.999012, -0.999012, 0.0444341, 0, 0)" sodipodi:linespacing="100%" id="text3432" y="-1005.52" x="585.75" style="font-size: 75.0134px; font-style: normal; font-variant: normal; font-weight: 900; font-stretch: normal; text-align: start; line-height: 100%; text-anchor: start; fill: rgb(229, 5, 15); fill-opacity: 1; stroke: none; stroke-width: 1px; stroke-linecap: butt; stroke-linejoin: miter; stroke-opacity: 1; font-family: Arial Black;" xml:space="preserve"><tspan y="-1005.52" x="585.75" id="tspan3436" sodipodi:role="line">L</tspan></text>
      <text transform="matrix(0.967804, 0.251705, -0.251705, 0.967804, 0, 0)" sodipodi:linespacing="100%" id="text3438" y="876.96" x="702.392" style="font-size: 75.0134px; font-style: normal; font-variant: normal; font-weight: 900; font-stretch: normal; text-align: start; line-height: 100%; text-anchor: start; fill: rgb(229, 5, 15); fill-opacity: 1; stroke: none; stroke-width: 1px; stroke-linecap: butt; stroke-linejoin: miter; stroke-opacity: 1; font-family: Arial Black;" xml:space="preserve"><tspan y="876.96" x="702.392" id="tspan3442" sodipodi:role="line">1</tspan></text>
      <text transform="matrix(0.990281, 0.13908, -0.13908, 0.990281, 0, 0)" sodipodi:linespacing="100%" id="text3444" y="959.214" x="683.871" style="font-size: 75.0134px; font-style: normal; font-variant: normal; font-weight: 900; font-stretch: normal; text-align: start; line-height: 100%; text-anchor: start; fill: rgb(229, 5, 15); fill-opacity: 1; stroke: none; stroke-width: 1px; stroke-linecap: butt; stroke-linejoin: miter; stroke-opacity: 1; font-family: Arial Black;" xml:space="preserve"><tspan y="959.214" x="683.871" id="tspan3448" sodipodi:role="line">9</tspan></text>
      <text transform="matrix(0.990946, -0.134258, 0.134258, 0.990946, 0, 0)" sodipodi:linespacing="100%" id="text3450" y="1127.43" x="487.275" style="font-size: 75.0134px; font-style: normal; font-variant: normal; font-weight: 900; font-stretch: normal; text-align: start; line-height: 100%; text-anchor: start; fill: rgb(229, 5, 15); fill-opacity: 1; stroke: none; stroke-width: 1px; stroke-linecap: butt; stroke-linejoin: miter; stroke-opacity: 1; font-family: Arial Black;" xml:space="preserve"><tspan y="1127.43" x="487.275" id="tspan3454" sodipodi:role="line">0</tspan></text>
      <text transform="matrix(0.983814, -0.179191, 0.179191, 0.983814, 0, 0)" sodipodi:linespacing="100%" id="text3456" y="1148.28" x="521.586" style="font-size: 75.0134px; font-style: normal; font-variant: normal; font-weight: 900; font-stretch: normal; text-align: start; line-height: 100%; text-anchor: start; fill: rgb(229, 5, 15); fill-opacity: 1; stroke: none; stroke-width: 1px; stroke-linecap: butt; stroke-linejoin: miter; stroke-opacity: 1; font-family: Arial Black;" xml:space="preserve"><tspan y="1148.28" x="521.586" id="tspan3458" sodipodi:role="line">9</tspan></text>
    </g>
  </g>
</svg>