<?xml version="1.0" encoding="iso-8859-1"?><!-- Generator: Adobe Illustrator 16.0.0, SVG Export Plug-In . SVG Version: 6.00 Build 0) --><!DOCTYPE svg PUBLIC "-//W3C//DTD SVG 1.1//EN" "http://www.w3.org/Graphics/SVG/1.1/DTD/svg11.dtd"><svg version="1.1" id="Layer_1" xmlns="http://www.w3.org/2000/svg" xmlns:xlink="http://www.w3.org/1999/xlink" x="0px" y="0px" width="192.756px" height="192.756px" viewBox="0 0 192.756 192.756" style="enable-background:new 0 0 192.756 192.756;" xml:space="preserve"><g><polygon style="fill-rule:evenodd;clip-rule:evenodd;fill:#FFFFFF;" points="0,0 192.756,0 192.756,192.756 0,192.756 0,0	"/><path style="fill-rule:evenodd;clip-rule:evenodd;" d="M55.219,26.188c-2.026,0.001-26.38,0.007-26.38,0.007	c-3.563,0.04-10.259,2.453-10.259,11.298c0,0.009,0,0.024,0,0.049c0,0.632,0.175,6.337,4.359,9.459c0,2.028,0,59.564,0,59.564	c0.008,0.299,0.196,6.174,4.192,10.17l-0.085-0.09l61.555,69.506c0.139,0.156,3.401,3.77,7.777,3.77	c4.375,0,7.637-3.613,7.774-3.766l61.557-69.51l-0.084,0.09c3.996-3.996,4.184-9.871,4.189-10.121c0,0,0.002-57.585,0.002-59.613	c4.184-3.121,4.359-8.824,4.359-9.485c0-0.025,0-0.053,0-0.053c0-8.816-6.695-11.229-10.234-11.269c0,0-24.379-0.006-26.404-0.007	c-8.682-14.411-24.303-23.353-41.159-23.353C79.522,2.835,63.899,11.777,55.219,26.188L55.219,26.188z M91.665,183.422	l-61.588-69.543l-0.044-0.043c-2.816-2.818-2.988-7.281-2.99-7.326l0.001-61.784l-1.079-0.582	c-3.271-1.761-3.281-6.583-3.281-6.631c0-6.716,5.159-7.188,6.193-7.214l28.637-0.008l0.589-1.039	c7.81-13.764,22.476-22.313,38.276-22.313c15.799,0,30.465,8.55,38.276,22.313l0.588,1.039l28.674,0.008	c0.998,0.026,6.156,0.498,6.156,7.194c0,0,0,0,0,0.002c0,0.144-0.035,4.902-3.281,6.649l-1.078,0.582v61.84	c-0.002,0-0.176,4.457-2.99,7.27l-0.043,0.043l-61.596,69.553c-0.014,0.014-2.191,2.387-4.706,2.387	C93.863,185.818,91.686,183.445,91.665,183.422L91.665,183.422z"/><path style="fill-rule:evenodd;clip-rule:evenodd;fill:#FFFFFF;" d="M163.918,28.247l-27.48-0.007	c-0.068-0.122-0.148-0.237-0.219-0.359c-0.365-0.628-0.742-1.246-1.135-1.855c-0.109-0.168-0.215-0.339-0.326-0.507	c-0.51-0.769-1.037-1.525-1.592-2.261c-0.029-0.039-0.061-0.076-0.09-0.115c-0.521-0.686-1.064-1.354-1.621-2.011	c-0.137-0.162-0.275-0.321-0.416-0.479c-0.51-0.583-1.031-1.154-1.57-1.71c-0.102-0.106-0.201-0.215-0.305-0.321	c-0.654-0.665-1.326-1.31-2.02-1.934c-0.064-0.057-0.131-0.111-0.195-0.168c-0.619-0.55-1.254-1.082-1.9-1.599	c-0.164-0.128-0.326-0.257-0.49-0.384c-0.635-0.493-1.281-0.97-1.943-1.43c-0.094-0.066-0.188-0.136-0.283-0.202	c-0.768-0.526-1.553-1.028-2.354-1.507c-0.123-0.073-0.248-0.142-0.371-0.212c-0.672-0.394-1.354-0.77-2.045-1.129	c-0.199-0.104-0.4-0.207-0.602-0.309c-0.734-0.368-1.479-0.719-2.234-1.048c-0.092-0.039-0.18-0.083-0.27-0.122	c-0.852-0.364-1.719-0.699-2.594-1.013c-0.193-0.069-0.389-0.131-0.582-0.197c-0.691-0.237-1.391-0.458-2.1-0.662	c-0.242-0.07-0.484-0.141-0.73-0.208c-0.82-0.224-1.65-0.428-2.488-0.605c-0.076-0.016-0.152-0.037-0.229-0.053	c-0.912-0.188-1.834-0.343-2.764-0.476c-0.254-0.036-0.51-0.065-0.762-0.097c-0.709-0.089-1.42-0.162-2.137-0.219	c-0.275-0.021-0.547-0.046-0.822-0.063c-0.949-0.059-1.906-0.099-2.872-0.099c-0.966,0-1.921,0.04-2.873,0.099	c-0.274,0.017-0.548,0.042-0.821,0.063c-0.717,0.057-1.429,0.13-2.136,0.219c-0.254,0.032-0.51,0.062-0.763,0.097	c-0.93,0.133-1.853,0.288-2.763,0.476c-0.077,0.017-0.152,0.037-0.229,0.053c-0.838,0.178-1.667,0.381-2.487,0.604	c-0.246,0.067-0.489,0.138-0.732,0.208c-0.706,0.204-1.405,0.425-2.097,0.661c-0.193,0.067-0.389,0.128-0.583,0.198	c-0.875,0.313-1.741,0.649-2.592,1.013c-0.092,0.039-0.182,0.084-0.274,0.124c-0.753,0.329-1.497,0.678-2.229,1.045	c-0.203,0.103-0.404,0.206-0.605,0.31c-0.69,0.36-1.371,0.734-2.04,1.126c-0.124,0.073-0.252,0.143-0.376,0.216	c-0.799,0.479-1.583,0.981-2.35,1.505c-0.099,0.068-0.193,0.14-0.291,0.208c-0.657,0.458-1.302,0.933-1.934,1.423	c-0.166,0.129-0.332,0.259-0.496,0.39c-0.645,0.514-1.276,1.043-1.892,1.591c-0.066,0.059-0.136,0.115-0.202,0.174	c-0.692,0.624-1.363,1.268-2.017,1.931c-0.106,0.107-0.207,0.219-0.312,0.328c-0.535,0.554-1.055,1.121-1.562,1.701	c-0.142,0.161-0.283,0.323-0.422,0.486c-0.554,0.653-1.096,1.318-1.613,2.002c-0.031,0.042-0.065,0.081-0.097,0.124	c-0.554,0.734-1.081,1.489-1.59,2.257c-0.112,0.169-0.218,0.343-0.329,0.513c-0.391,0.607-0.769,1.225-1.131,1.852	c-0.071,0.121-0.15,0.237-0.22,0.359l-27.479,0.007c0,0-8.207,0.093-8.207,9.247c0,0-0.085,6.063,4.36,8.458v60.615	c0,0,0.128,5.258,3.59,8.721l61.555,69.504c0,0,2.736,3.078,6.242,3.078c3.504,0,6.241-3.078,6.241-3.078l61.555-69.504	c3.463-3.463,3.59-8.721,3.59-8.721V45.951c4.445-2.394,4.361-8.458,4.361-8.458C172.125,28.34,163.918,28.247,163.918,28.247	L163.918,28.247z M66.541,148.201l-30.605-34.197c-3.762-3.762-4.104-11.457-4.104-11.457V48.516	c0-9.746-5.301-13.679-5.301-13.679h26.714c-1.865,5.004-2.89,10.418-2.89,16.073c0,14.03,6.285,26.585,16.186,35.026V148.201	L66.541,148.201z M160.924,48.516v54.031c0,0-0.34,7.695-4.104,11.457l-30.605,34.197V85.937c9.9-8.44,16.186-20.996,16.186-35.026	c0-5.655-1.023-11.069-2.889-16.073h26.713C166.225,34.837,160.924,38.77,160.924,48.516L160.924,48.516z"/><path style="fill-rule:evenodd;clip-rule:evenodd;fill:#FFFFFF;" d="M119.607,11.186c0.123,0.071,0.248,0.139,0.371,0.212	C119.855,11.325,119.73,11.256,119.607,11.186L119.607,11.186z"/><path style="fill-rule:evenodd;clip-rule:evenodd;fill:#FFFFFF;" d="M86.792,5.894c0.077-0.016,0.152-0.037,0.229-0.053	C86.945,5.857,86.87,5.877,86.792,5.894L86.792,5.894z"/><path style="fill-rule:evenodd;clip-rule:evenodd;fill:#FFFFFF;" d="M116.961,9.748c0.201,0.102,0.402,0.205,0.602,0.309	C117.361,9.952,117.162,9.849,116.961,9.748L116.961,9.748z"/><path style="fill-rule:evenodd;clip-rule:evenodd;fill:#FFFFFF;" d="M122.332,12.905c0.096,0.065,0.189,0.135,0.283,0.202	C122.52,13.041,122.428,12.971,122.332,12.905L122.332,12.905z"/><path style="fill-rule:evenodd;clip-rule:evenodd;fill:#FFFFFF;" d="M124.559,14.537c0.164,0.127,0.326,0.255,0.49,0.384	C124.885,14.791,124.723,14.664,124.559,14.537L124.559,14.537z"/><path style="fill-rule:evenodd;clip-rule:evenodd;fill:#FFFFFF;" d="M80.893,7.565c0.194-0.069,0.39-0.131,0.583-0.198	C81.283,7.434,81.086,7.496,80.893,7.565L80.893,7.565z"/><path style="fill-rule:evenodd;clip-rule:evenodd;fill:#FFFFFF;" d="M83.573,6.706c0.243-0.07,0.487-0.141,0.732-0.208	C84.06,6.565,83.817,6.636,83.573,6.706L83.573,6.706z"/><path style="fill-rule:evenodd;clip-rule:evenodd;fill:#FFFFFF;" d="M92.685,5.048c0.273-0.021,0.547-0.046,0.821-0.063	C93.231,5.002,92.958,5.026,92.685,5.048L92.685,5.048z"/><path style="fill-rule:evenodd;clip-rule:evenodd;fill:#FFFFFF;" d="M108.451,6.499c0.246,0.066,0.488,0.137,0.73,0.208	C108.939,6.635,108.697,6.565,108.451,6.499L108.451,6.499z"/><path style="fill-rule:evenodd;clip-rule:evenodd;fill:#FFFFFF;" d="M99.25,4.985c0.275,0.017,0.547,0.042,0.822,0.063	C99.797,5.026,99.525,5.002,99.25,4.985L99.25,4.985z"/><path style="fill-rule:evenodd;clip-rule:evenodd;fill:#FFFFFF;" d="M102.209,5.267c0.252,0.032,0.508,0.062,0.762,0.097	C102.717,5.327,102.461,5.299,102.209,5.267L102.209,5.267z"/><path style="fill-rule:evenodd;clip-rule:evenodd;fill:#FFFFFF;" d="M111.281,7.368c0.193,0.066,0.389,0.127,0.582,0.197	C111.67,7.496,111.475,7.434,111.281,7.368L111.281,7.368z"/><path style="fill-rule:evenodd;clip-rule:evenodd;fill:#FFFFFF;" d="M89.785,5.364c0.253-0.036,0.509-0.065,0.763-0.097	C90.294,5.299,90.039,5.327,89.785,5.364L89.785,5.364z"/><path style="fill-rule:evenodd;clip-rule:evenodd;fill:#FFFFFF;" d="M114.457,8.578c0.09,0.039,0.178,0.083,0.27,0.122	C114.635,8.661,114.547,8.617,114.457,8.578L114.457,8.578z"/><path style="fill-rule:evenodd;clip-rule:evenodd;fill:#FFFFFF;" d="M78.026,8.702c0.092-0.04,0.182-0.085,0.274-0.124	C78.208,8.617,78.119,8.662,78.026,8.702L78.026,8.702z"/><path style="fill-rule:evenodd;clip-rule:evenodd;fill:#FFFFFF;" d="M63.282,18.947c0.105-0.108,0.207-0.22,0.312-0.328	C63.488,18.727,63.387,18.838,63.282,18.947L63.282,18.947z"/><path style="fill-rule:evenodd;clip-rule:evenodd;fill:#FFFFFF;" d="M61.298,21.134c0.139-0.163,0.28-0.325,0.422-0.486	C61.579,20.809,61.438,20.971,61.298,21.134L61.298,21.134z"/><path style="fill-rule:evenodd;clip-rule:evenodd;fill:#FFFFFF;" d="M65.611,16.688c0.066-0.059,0.136-0.115,0.202-0.174	C65.747,16.573,65.677,16.629,65.611,16.688L65.611,16.688z"/><path style="fill-rule:evenodd;clip-rule:evenodd;fill:#FFFFFF;" d="M59.588,23.259c0.031-0.042,0.065-0.082,0.097-0.124	C59.654,23.177,59.62,23.217,59.588,23.259L59.588,23.259z"/><path style="fill-rule:evenodd;clip-rule:evenodd;fill:#FFFFFF;" d="M126.949,16.519c0.064,0.058,0.131,0.111,0.195,0.168	C127.08,16.63,127.014,16.577,126.949,16.519L126.949,16.519z"/><path style="fill-rule:evenodd;clip-rule:evenodd;fill:#FFFFFF;" d="M134.758,25.518c0.111,0.167,0.217,0.339,0.326,0.507	C134.975,25.857,134.869,25.686,134.758,25.518L134.758,25.518z"/><path style="fill-rule:evenodd;clip-rule:evenodd;fill:#FFFFFF;" d="M57.669,26.029c0.11-0.17,0.216-0.343,0.329-0.513	C57.886,25.686,57.78,25.857,57.669,26.029L57.669,26.029z"/><path style="fill-rule:evenodd;clip-rule:evenodd;fill:#FFFFFF;" d="M105.734,5.84c0.076,0.017,0.152,0.037,0.229,0.053	C105.887,5.877,105.811,5.857,105.734,5.84L105.734,5.84z"/><path style="fill-rule:evenodd;clip-rule:evenodd;fill:#FFFFFF;" d="M129.164,18.621c0.104,0.105,0.203,0.214,0.305,0.321	C129.367,18.835,129.268,18.727,129.164,18.621L129.164,18.621z"/><path style="fill-rule:evenodd;clip-rule:evenodd;fill:#FFFFFF;" d="M72.775,11.398c0.125-0.074,0.252-0.143,0.376-0.216	C73.028,11.255,72.9,11.325,72.775,11.398L72.775,11.398z"/><path style="fill-rule:evenodd;clip-rule:evenodd;fill:#FFFFFF;" d="M75.192,10.056c0.202-0.104,0.403-0.207,0.605-0.31	C75.595,9.849,75.394,9.952,75.192,10.056L75.192,10.056z"/><path style="fill-rule:evenodd;clip-rule:evenodd;fill:#FFFFFF;" d="M133.076,23.142c0.029,0.039,0.061,0.076,0.09,0.115	C133.137,23.218,133.105,23.181,133.076,23.142L133.076,23.142z"/><path style="fill-rule:evenodd;clip-rule:evenodd;fill:#FFFFFF;" d="M131.039,20.652c0.141,0.158,0.279,0.317,0.416,0.479	C131.318,20.969,131.18,20.811,131.039,20.652L131.039,20.652z"/><path style="fill-rule:evenodd;clip-rule:evenodd;fill:#FFFFFF;" d="M67.705,14.923c0.164-0.13,0.33-0.26,0.496-0.39	C68.035,14.663,67.869,14.792,67.705,14.923L67.705,14.923z"/><path style="fill-rule:evenodd;clip-rule:evenodd;fill:#FFFFFF;" d="M70.134,13.111c0.098-0.068,0.192-0.139,0.291-0.208	C70.327,12.972,70.233,13.043,70.134,13.111L70.134,13.111z"/><path style="fill-rule:evenodd;clip-rule:evenodd;" d="M50.355,50.911c0-5.655,1.024-11.069,2.89-16.073H26.53	c0,0,5.301,3.933,5.301,13.679v54.031c0,0,0.342,7.695,4.104,11.457l30.605,34.197V85.937C56.64,77.496,50.355,64.94,50.355,50.911	L50.355,50.911z"/><path style="fill-rule:evenodd;clip-rule:evenodd;fill:#CD3529;" d="M126.215,85.937v62.265l30.605-34.197	c3.764-3.762,4.104-11.457,4.104-11.457V48.516c0-9.746,5.301-13.679,5.301-13.679h-26.713c1.865,5.004,2.889,10.418,2.889,16.073	C142.4,64.94,136.115,77.496,126.215,85.937L126.215,85.937z"/><path style="fill-rule:evenodd;clip-rule:evenodd;fill:#FFFFFF;" d="M131.455,21.131c0.557,0.656,1.1,1.325,1.621,2.011	C132.557,22.456,132.012,21.787,131.455,21.131L131.455,21.131z"/><path style="fill-rule:evenodd;clip-rule:evenodd;fill:#FFFFFF;" d="M68.201,14.534c0.631-0.49,1.276-0.965,1.934-1.423	C69.476,13.569,68.833,14.043,68.201,14.534L68.201,14.534z"/><path style="fill-rule:evenodd;clip-rule:evenodd;fill:#FFFFFF;" d="M70.425,12.903c0.767-0.524,1.551-1.026,2.35-1.505	C71.976,11.877,71.192,12.379,70.425,12.903L70.425,12.903z"/><path style="fill-rule:evenodd;clip-rule:evenodd;fill:#FFFFFF;" d="M73.152,11.182c0.669-0.392,1.35-0.766,2.04-1.126	C74.501,10.416,73.821,10.791,73.152,11.182L73.152,11.182z"/><path style="fill-rule:evenodd;clip-rule:evenodd;fill:#FFFFFF;" d="M133.166,23.257c0.555,0.736,1.082,1.492,1.592,2.261	C134.248,24.749,133.721,23.993,133.166,23.257L133.166,23.257z"/><path style="fill-rule:evenodd;clip-rule:evenodd;fill:#FFFFFF;" d="M127.145,16.688c0.693,0.624,1.365,1.269,2.02,1.934	C128.51,17.957,127.838,17.311,127.145,16.688L127.145,16.688z"/><path style="fill-rule:evenodd;clip-rule:evenodd;fill:#FFFFFF;" d="M129.469,18.942c0.539,0.556,1.061,1.127,1.57,1.71	C130.529,20.068,130.008,19.498,129.469,18.942L129.469,18.942z"/><path style="fill-rule:evenodd;clip-rule:evenodd;fill:#FFFFFF;" d="M59.685,23.136c0.518-0.684,1.059-1.349,1.613-2.002	C60.744,21.787,60.203,22.452,59.685,23.136L59.685,23.136z"/><path style="fill-rule:evenodd;clip-rule:evenodd;fill:#FFFFFF;" d="M65.813,16.514c0.616-0.548,1.248-1.077,1.892-1.591	C67.06,15.437,66.429,15.966,65.813,16.514L65.813,16.514z"/><path style="fill-rule:evenodd;clip-rule:evenodd;fill:#FFFFFF;" d="M75.797,9.747c0.732-0.367,1.476-0.716,2.229-1.045	C77.272,9.029,76.529,9.38,75.797,9.747L75.797,9.747z"/><path style="fill-rule:evenodd;clip-rule:evenodd;fill:#FFFFFF;" d="M56.538,27.88c0.363-0.627,0.741-1.244,1.131-1.852	C57.279,26.636,56.901,27.253,56.538,27.88L56.538,27.88z"/><path style="fill-rule:evenodd;clip-rule:evenodd;fill:#FFFFFF;" d="M57.998,25.516c0.51-0.768,1.037-1.523,1.59-2.257	C59.036,23.993,58.508,24.749,57.998,25.516L57.998,25.516z"/><path style="fill-rule:evenodd;clip-rule:evenodd;fill:#FFFFFF;" d="M135.084,26.025c0.393,0.609,0.77,1.228,1.135,1.855	C135.855,27.252,135.477,26.634,135.084,26.025L135.084,26.025z"/><path style="fill-rule:evenodd;clip-rule:evenodd;fill:#FFFFFF;" d="M61.72,20.648c0.507-0.58,1.026-1.147,1.562-1.701	C62.747,19.5,62.227,20.068,61.72,20.648L61.72,20.648z"/><path style="fill-rule:evenodd;clip-rule:evenodd;fill:#FFFFFF;" d="M63.594,18.619c0.653-0.663,1.325-1.307,2.017-1.931	C64.919,17.312,64.248,17.956,63.594,18.619L63.594,18.619z"/><path style="fill-rule:evenodd;clip-rule:evenodd;fill:#FFFFFF;" d="M93.506,4.985c0.951-0.059,1.907-0.099,2.873-0.099	C95.413,4.886,94.457,4.926,93.506,4.985L93.506,4.985z"/><path style="fill-rule:evenodd;clip-rule:evenodd;fill:#FFFFFF;" d="M111.863,7.565c0.875,0.313,1.742,0.649,2.594,1.013	C113.605,8.214,112.738,7.878,111.863,7.565L111.863,7.565z"/><path style="fill-rule:evenodd;clip-rule:evenodd;fill:#FFFFFF;" d="M102.971,5.364c0.93,0.133,1.852,0.288,2.764,0.476	C104.822,5.652,103.9,5.498,102.971,5.364L102.971,5.364z"/><path style="fill-rule:evenodd;clip-rule:evenodd;fill:#FFFFFF;" d="M90.548,5.267c0.708-0.089,1.419-0.162,2.136-0.219	C91.967,5.105,91.256,5.178,90.548,5.267L90.548,5.267z"/><path style="fill-rule:evenodd;clip-rule:evenodd;fill:#FFFFFF;" d="M96.378,4.886c0.965,0,1.922,0.04,2.872,0.099	C98.299,4.926,97.344,4.886,96.378,4.886L96.378,4.886z"/><path style="fill-rule:evenodd;clip-rule:evenodd;fill:#FFFFFF;" d="M114.727,8.7c0.756,0.329,1.5,0.68,2.234,1.048	C116.227,9.38,115.482,9.029,114.727,8.7L114.727,8.7z"/><path style="fill-rule:evenodd;clip-rule:evenodd;fill:#FFFFFF;" d="M100.072,5.048c0.717,0.057,1.428,0.13,2.137,0.219	C101.5,5.178,100.789,5.105,100.072,5.048L100.072,5.048z"/><path style="fill-rule:evenodd;clip-rule:evenodd;fill:#FFFFFF;" d="M109.182,6.706c0.709,0.204,1.408,0.425,2.1,0.662	C110.59,7.131,109.891,6.91,109.182,6.706L109.182,6.706z"/><path style="fill-rule:evenodd;clip-rule:evenodd;fill:#FFFFFF;" d="M125.049,14.92c0.646,0.517,1.281,1.049,1.9,1.599	C126.33,15.969,125.695,15.437,125.049,14.92L125.049,14.92z"/><path style="fill-rule:evenodd;clip-rule:evenodd;fill:#FFFFFF;" d="M122.615,13.107c0.662,0.46,1.309,0.937,1.943,1.43	C123.924,14.043,123.277,13.567,122.615,13.107L122.615,13.107z"/><path style="fill-rule:evenodd;clip-rule:evenodd;fill:#FFFFFF;" d="M119.979,11.398c0.801,0.479,1.586,0.981,2.354,1.507	C121.564,12.379,120.779,11.877,119.979,11.398L119.979,11.398z"/><path style="fill-rule:evenodd;clip-rule:evenodd;fill:#FFFFFF;" d="M87.022,5.84c0.911-0.188,1.833-0.343,2.763-0.476	C88.855,5.498,87.933,5.652,87.022,5.84L87.022,5.84z"/><path style="fill-rule:evenodd;clip-rule:evenodd;fill:#FFFFFF;" d="M81.476,7.367c0.692-0.236,1.392-0.457,2.097-0.661	C82.866,6.91,82.168,7.131,81.476,7.367L81.476,7.367z"/><path style="fill-rule:evenodd;clip-rule:evenodd;fill:#FFFFFF;" d="M78.301,8.578c0.851-0.364,1.716-0.699,2.592-1.013	C80.017,7.878,79.151,8.214,78.301,8.578L78.301,8.578z"/><path style="fill-rule:evenodd;clip-rule:evenodd;fill:#FFFFFF;" d="M105.963,5.894c0.838,0.177,1.668,0.381,2.488,0.605	C107.631,6.275,106.801,6.071,105.963,5.894L105.963,5.894z"/><path style="fill-rule:evenodd;clip-rule:evenodd;fill:#FFFFFF;" d="M117.562,10.056c0.691,0.36,1.373,0.735,2.045,1.129	C118.936,10.792,118.254,10.416,117.562,10.056L117.562,10.056z"/><path style="fill-rule:evenodd;clip-rule:evenodd;fill:#FFFFFF;" d="M84.305,6.498c0.82-0.223,1.649-0.426,2.487-0.604	C85.955,6.071,85.125,6.275,84.305,6.498L84.305,6.498z"/><path style="fill:none;stroke:#000000;stroke-width:2.0521;stroke-miterlimit:2.6131;" d="M128.594,50.911	c0,17.792-14.424,32.216-32.215,32.216c-17.793,0-32.216-14.424-32.216-32.216c0-17.793,14.422-32.217,32.216-32.217	C114.17,18.693,128.594,33.117,128.594,50.911"/><polygon style="fill-rule:evenodd;clip-rule:evenodd;fill:#CD3529;" points="67.054,19.238 68.142,22.586 71.664,22.586	68.815,24.657 69.902,28.005 67.054,25.936 64.206,28.005 65.293,24.657 62.444,22.586 65.966,22.586 67.054,19.238	"/><polygon style="fill-rule:evenodd;clip-rule:evenodd;fill:#CD3529;" points="85.007,7.954 86.095,11.302 89.617,11.302	86.769,13.372 87.856,16.721 85.007,14.651 82.159,16.721 83.248,13.372 80.398,11.302 83.919,11.302 85.007,7.954	"/><polygon style="fill-rule:evenodd;clip-rule:evenodd;fill:#CD3529;" points="57.821,38.218 58.909,41.566 62.43,41.566	59.582,43.636 60.669,46.985 57.821,44.915 54.972,46.985 56.06,43.636 53.211,41.566 56.733,41.566 57.821,38.218	"/><polygon style="fill-rule:evenodd;clip-rule:evenodd;fill:#CD3529;" points="58.846,58.736 59.935,62.084 63.456,62.084	60.608,64.154 61.695,67.503 58.846,65.434 55.998,67.503 57.086,64.154 54.237,62.084 57.758,62.084 58.846,58.736	"/><polygon style="fill-rule:evenodd;clip-rule:evenodd;fill:#CD3529;" points="69.619,75.151 70.707,78.499 74.228,78.499	71.38,80.569 72.467,83.918 69.619,81.848 66.77,83.918 67.858,80.569 65.009,78.499 68.531,78.499 69.619,75.151	"/><polygon style="fill-rule:evenodd;clip-rule:evenodd;fill:#CD3529;" points="125.703,19.238 124.613,22.586 121.092,22.586	123.941,24.657 122.854,28.005 125.703,25.936 128.549,28.005 127.463,24.657 130.312,22.586 126.791,22.586 125.703,19.238	"/><polygon style="fill-rule:evenodd;clip-rule:evenodd;fill:#CD3529;" points="107.748,7.954 106.66,11.302 103.139,11.302	105.986,13.372 104.9,16.721 107.748,14.651 110.596,16.721 109.508,13.372 112.357,11.302 108.836,11.302 107.748,7.954	"/><polygon style="fill-rule:evenodd;clip-rule:evenodd;fill:#CD3529;" points="134.936,38.218 133.848,41.566 130.326,41.566	133.174,43.636 132.088,46.985 134.936,44.915 137.783,46.985 136.697,43.636 139.545,41.566 136.023,41.566 134.936,38.218	"/><polygon style="fill-rule:evenodd;clip-rule:evenodd;fill:#CD3529;" points="133.91,58.736 132.822,62.084 129.299,62.084	132.148,64.154 131.061,67.503 133.91,65.434 136.756,67.503 135.67,64.154 138.52,62.084 134.998,62.084 133.91,58.736	"/><polygon style="fill-rule:evenodd;clip-rule:evenodd;fill:#CD3529;" points="123.137,75.151 122.049,78.499 118.527,78.499	121.377,80.569 120.289,83.918 123.137,81.848 125.984,83.918 124.898,80.569 127.746,78.499 124.225,78.499 123.137,75.151	"/><path style="fill-rule:evenodd;clip-rule:evenodd;" d="M83.036,159.355h0.246c1.663,0,2.105-0.861,2.143-1.514h1.416v8.74h-1.723	v-6.02h-2.081V159.355L83.036,159.355z"/><path style="fill-rule:evenodd;clip-rule:evenodd;" d="M91.025,160.734c0-1.256,0.8-1.477,1.244-1.477	c0.886,0,1.317,0.615,1.317,1.611c0,1.035-0.666,1.467-1.269,1.467C91.666,162.336,91.025,162.051,91.025,160.734L91.025,160.734z M89.475,164.562c0.147,1.391,1.218,2.254,2.708,2.254c1.576,0,3.176-1.096,3.176-4.48c0-1.232-0.05-4.494-3.078-4.494	c-1.711,0-2.979,0.996-2.979,3.139c0,1.465,0.972,2.732,2.647,2.732c0.59,0,1.267-0.146,1.661-0.738L93.635,163	c-0.012,1.834-0.727,2.438-1.441,2.438c-0.529,0-0.911-0.26-1.008-0.861v-0.014H89.475L89.475,164.562z"/><path style="fill-rule:evenodd;clip-rule:evenodd;" d="M102.18,159.318c-0.838,0.91-2.98,3.496-3.189,7.264h-1.771	c0.184-3.496,2.375-6.279,3.113-7.066h-4.345l0.037-1.527h6.156V159.318L102.18,159.318z"/><path style="fill-rule:evenodd;clip-rule:evenodd;" d="M107.104,163.775c0,1.182-0.578,1.662-1.207,1.662	c-0.824,0-1.365-0.678-1.365-1.625c0-1.096,0.664-1.502,1.316-1.502C106.389,162.311,107.104,162.666,107.104,163.775	L107.104,163.775z M108.654,160.057c-0.16-0.922-0.332-1.182-0.812-1.648c-0.432-0.432-1.428-0.566-1.785-0.566	c-3.027,0-3.25,2.918-3.25,4.58c0,2.178,0.518,4.395,3.164,4.395c1.688,0,2.855-1.281,2.855-3.189c0-1.305-0.861-2.695-2.67-2.695	c-0.973,0-1.404,0.406-1.639,0.727l-0.023-0.025c0.061-1.133,0.318-2.412,1.439-2.412c0.641,0,0.961,0.344,1.01,0.836H108.654	L108.654,160.057z"/><path style="fill-rule:evenodd;clip-rule:evenodd;fill:#CD3529;" d="M116.039,43.299c-0.326,0.785-0.578,1.157-1.297,1.875	c-1.043,0.829-2.115,1.419-3.213,1.77c-1.1,0.352-2.18,0.452-3.244,0.303c-0.91-0.128-1.684-0.411-2.322-0.849	c-0.639-0.438-1.154-1.051-1.551-1.84l14.631-6.757c-0.797-2.083-1.93-3.767-3.396-5.056c-1.469-1.287-3.133-2.063-4.992-2.324	c-2.908-0.409-5.508,0.26-7.799,2.002c-2.289,1.744-3.643,4.109-4.062,7.095c-0.432,3.074,0.189,5.809,1.869,8.205	c1.678,2.398,3.943,3.797,6.797,4.198c1.494,0.21,2.982,0.118,4.467-0.275c1.484-0.394,2.824-1.057,4.025-1.987	c0,0,2.305-1.603,3.432-4.489L116.039,43.299L116.039,43.299z M103.467,40.177c0.008-0.243,0.029-0.484,0.062-0.726	c0.219-1.561,0.949-2.804,2.189-3.733c1.242-0.929,2.65-1.282,4.23-1.06c0.617,0.087,1.186,0.265,1.709,0.53	c0.521,0.266,1.004,0.63,1.447,1.094l-9.635,4.709C103.459,40.693,103.459,40.422,103.467,40.177L103.467,40.177z"/><path style="fill-rule:evenodd;clip-rule:evenodd;fill:#CD3529;" d="M116.643,55.087L114.4,59.31	c-0.975-0.604-1.816-1.021-2.529-1.253c-0.713-0.232-1.451-0.35-2.217-0.35c-1.615,0-2.953,0.563-4.014,1.689	c-1.061,1.126-1.59,2.556-1.59,4.287c0,1.732,0.525,3.157,1.576,4.274c1.053,1.118,2.395,1.676,4.029,1.676	c0.764,0,1.572-0.181,2.424-0.545c0.852-0.363,1.773-0.908,2.764-1.635l1.902,4.668c-1.131,0.761-2.318,1.348-3.562,1.763	s-2.422,0.622-3.535,0.622c-3.08,0-5.658-1.04-7.738-3.122c-2.078-2.082-3.117-4.639-3.117-7.675c0-3.053,1.035-5.629,3.105-7.728	c2.068-2.098,4.652-3.148,7.75-3.148c1.043,0,2.152,0.188,3.326,0.563C114.15,53.773,115.371,54.336,116.643,55.087L116.643,55.087	z"/><path style="fill-rule:evenodd;clip-rule:evenodd;" d="M96.805,32.957h-7.053V59.63c0,5.515-5.086,5.643-5.086,5.643	c-6.384,0-5.814-5.643-5.814-5.643v-5.129h-7.053v7.053c0,0,0.834,10.748,12.688,10.748c0,0,12.318-0.104,12.318-10.748V32.957	L96.805,32.957z"/><path style="fill-rule:evenodd;clip-rule:evenodd;" d="M97.139,28.212c0,2.238-1.813,4.053-4.052,4.053	c-2.238,0-4.053-1.814-4.053-4.053c0-2.239,1.814-4.052,4.053-4.052C95.326,24.16,97.139,25.973,97.139,28.212L97.139,28.212z"/><path style="fill:none;stroke:#000000;stroke-width:1.0256;stroke-linecap:round;stroke-linejoin:round;stroke-miterlimit:2.6131;" d="	M85.863,126.486c0,0,11.627-4.617,18.979-2.564c0,0-7.352,6.326-20.005,4.787 M87.059,131.104c0,0,1.539-1.711,4.788-1.711	c0,0,6.112,0.129,6.112,1.924c0,0-0.145,0.73-1.667,1.41c-0.541,0.242-1.04,0.484-2.194,1.439c-0.713,0.59-4.09,5.871-6.654,5.871 M87.444,140.037h-0.77v-0.898 M86.674,139.139c0,0,0.243-4.246,7.167-7.195 M93.841,131.943l-4.089,0.014 M89.752,131.957	c0,0,1.667,0.258,2.437,0.77 M95.743,123.811c0,0,3.114-1.941,3.626-5.361c0,0-11.968,2.395-20.859,13.166	c0,0-0.941,1.24-0.941,2.266c0,0-0.107,3.484,4.179,4.18 M80.733,139.139c0,0,2.222-3.078,5.556-3.078c0,0,1.253,0.096,1.687,0.527 M80.196,129.709c0,0-4.294-0.061-9.295,5.197c0,0-0.77,0.834-0.77,1.283c0,0,0,0.898,1.026,0.898c0,0,0.833-0.064,1.411-0.643	c0.577-0.576,3.584-4.148,5.942-4.83 M93.477,134.822c1.008-1.008,3.2-0.941,3.2-0.941c3.206,0,6.798,4.232,6.798,4.232 M103.475,138.113h3.846 M107.32,138.113c0,0-0.256,2.18-1.41,3.078c0,0,1.283-0.258,1.668-1.154c0,0,1.795,0.127,2.564,0.512	s2.051,1.025,4.23,0.385c2.182-0.641,4.07-0.104,5.387,0.898c1.346,1.025,1.924,2.436,1.924,3.463c0,0-6.412-2.758-10.9-2.758	c0,0-3.654-0.129-5.514,1.346c-2.07,1.645-3.848,2.822-6.67,1.668c-2.82-1.154-6.154-0.514-8.078,0.641	c-1.924,1.154-2.95,1.539-5.515,0.385c-2.565-1.154-9.875,0.129-10.772,0.77c0,0,2.309-4.104,6.156-4.104s5.129,1.154,5.129,1.154	s1.924,1.154,2.565,1.154c0,0,3.078-4.746,6.284-6.541 M90.71,138.176c0,0,0.243,2.846,2.208,1.84 M80.519,134.266	c0,0,0.897-0.77,1.795-0.898"/></g></svg>