<?xml version="1.0" encoding="iso-8859-1"?><!-- Generator: Adobe Illustrator 16.0.0, SVG Export Plug-In . SVG Version: 6.00 Build 0) --><!DOCTYPE svg PUBLIC "-//W3C//DTD SVG 1.1//EN" "http://www.w3.org/Graphics/SVG/1.1/DTD/svg11.dtd"><svg version="1.1" id="Layer_1" xmlns="http://www.w3.org/2000/svg" xmlns:xlink="http://www.w3.org/1999/xlink" x="0px" y="0px" width="192.756px" height="192.756px" viewBox="0 0 192.756 192.756" style="enable-background:new 0 0 192.756 192.756;" xml:space="preserve"><g><polygon style="fill-rule:evenodd;clip-rule:evenodd;fill:#FFFFFF;" points="0,0 192.756,0 192.756,192.756 0,192.756 0,0	"/><path style="fill-rule:evenodd;clip-rule:evenodd;fill:#3F7249;" d="M8.504,184.23L8.504,184.23L8.504,184.23L8.504,184.23z M96.404,184.178c48.395,0,87.848-39.453,87.848-87.848c0-48.35-39.453-87.804-87.848-87.804C48.032,8.526,8.6,47.98,8.6,96.33	C8.6,144.725,48.032,184.178,96.404,184.178L96.404,184.178z"/><path style="fill-rule:evenodd;clip-rule:evenodd;fill:#FFFFFF;" d="M96.404,181.332c-23.374,0-44.569-9.564-60.025-24.953	C21.01,140.943,11.447,119.727,11.447,96.33c0-23.352,9.563-44.569,24.932-60.004c15.457-15.39,36.651-24.953,60.025-24.953	c23.397,0,44.68,9.563,60.049,24.953c15.389,15.435,24.953,36.652,24.953,60.004c0,23.396-9.564,44.613-24.953,60.049	C141.084,171.768,119.801,181.332,96.404,181.332L96.404,181.332z"/><path style="fill-rule:evenodd;clip-rule:evenodd;fill:#3F7249;" d="M96.404,179.574c22.93,0,43.747-9.385,58.825-24.465	c15.035-15.033,24.42-35.895,24.42-58.779c0-22.841-9.385-43.702-24.42-58.736C140.15,22.515,119.334,13.13,96.404,13.13	c-22.84,0-43.635,9.385-58.736,24.464C22.567,52.628,13.204,73.489,13.204,96.33c0,22.885,9.363,43.746,24.464,58.779	C52.769,170.189,73.563,179.574,96.404,179.574L96.404,179.574z"/><polygon style="fill-rule:evenodd;clip-rule:evenodd;fill:#FFFFFF;" points="51.546,36.727 50.478,39.106 52.413,40.863	49.789,40.574 48.744,42.954 48.165,40.396 45.652,40.107 47.876,38.817 47.342,36.259 49.255,38.016 51.546,36.727	"/><polygon style="fill-rule:evenodd;clip-rule:evenodd;fill:#FFFFFF;" points="45.652,43.71 44.718,46.868 47.454,48.736	44.14,48.847 43.272,51.983 42.094,48.958 38.825,49.025 41.404,47.046 40.292,43.888 43.028,45.756 45.652,43.71	"/><polygon style="fill-rule:evenodd;clip-rule:evenodd;fill:#FFFFFF;" points="39.425,53.918 39.292,57.943 43.139,59.211	39.247,60.435 39.247,64.393 36.845,61.19 33.064,62.302 35.444,59.167 33.131,55.786 36.979,57.121 39.425,53.918	"/><polygon style="fill-rule:evenodd;clip-rule:evenodd;fill:#FFFFFF;" points="34.933,66.684 35.978,72.444 41.805,73.267	36.556,76.047 37.601,81.829 33.354,77.804 28.171,80.54 30.729,75.291 26.481,71.109 32.375,71.91 34.933,66.684	"/><polygon style="fill-rule:evenodd;clip-rule:evenodd;fill:#FFFFFF;" points="141.307,36.727 142.418,39.106 140.439,40.863	143.064,40.574 144.109,42.954 144.688,40.396 147.244,40.107 144.977,38.817 145.555,36.259 143.576,38.016 141.307,36.727	"/><polygon style="fill-rule:evenodd;clip-rule:evenodd;fill:#FFFFFF;" points="147.244,43.71 148.135,46.868 145.377,48.736	148.713,48.847 149.58,51.983 150.736,48.958 154.006,49.025 151.447,47.046 152.561,43.888 149.824,45.756 147.244,43.71	"/><polygon style="fill-rule:evenodd;clip-rule:evenodd;fill:#FFFFFF;" points="153.494,53.918 153.539,57.943 149.758,59.211	153.605,60.435 153.65,64.393 155.984,61.19 159.787,62.302 157.387,59.167 159.721,55.786 155.873,57.121 153.494,53.918	"/><polygon style="fill-rule:evenodd;clip-rule:evenodd;fill:#FFFFFF;" points="157.92,66.684 156.92,72.444 151.047,73.267	156.273,76.047 155.229,81.829 159.543,77.804 164.682,80.54 162.102,75.291 166.416,71.109 160.479,71.91 157.92,66.684	"/><path style="fill-rule:evenodd;clip-rule:evenodd;fill:#FFFFFF;" d="M67.447,108.428c-0.178-0.111-0.534-0.111-0.711,0.068	L38.825,145.48c-0.334,0.467-0.223,1.111,0.133,1.535c4.782,5.227,9.674,9.652,15.368,13.678c0.356,0.244,1.001,0.756,1.29,0.066	l2.98-7.006c0.156-0.4,0.044-0.979-0.289-1.223c-2.98-1.98-5.538-4.293-8.051-6.695c-0.356-0.355-0.289-1.223,0-1.689	l21.973-31.938c0.111-0.111,0-0.4-0.178-0.467C70.405,110.697,68.849,109.607,67.447,108.428L67.447,108.428z"/><path style="fill-rule:evenodd;clip-rule:evenodd;fill:#FFFFFF;" d="M93.379,173.637c0.4,0,0.4-0.289,0.4-0.535l0.4-54.064	c0-0.178-0.223-0.355-0.4-0.355c-1.334-0.045-2.736-0.223-4.137-0.4c-0.178-0.066-0.4,0.043-0.534,0.289l-6.516,15.033	c-0.178,0.355-0.289,0.289-0.356-0.066l-0.511-16.881c0-0.244-0.067-0.355-0.178-0.355c-1.624-0.578-3.158-1.223-4.715-1.979	c-0.134-0.066-0.356-0.066-0.467,0.178l-19.638,47.238c-0.111,0.244,0,0.533,0.178,0.645c1.913,1.223,3.847,2.268,5.827,3.336	c0.223,0.111,0.689,0.223,0.801-0.178l12.076-33.805c0.111-0.4,0.223-0.467,0.223,0.066l0.534,28.668	c0,1.512,0.111,1.512,0.756,0.111l11.476-25.531c0.111-0.334,0.222-0.334,0.178,0.066l-2.98,37.295	c-0.044,0.223,0.245,0.512,0.467,0.58C88.665,173.348,91.044,173.525,93.379,173.637L93.379,173.637z"/><path style="fill-rule:evenodd;clip-rule:evenodd;fill:#FFFFFF;" d="M113.039,122.129c-2.445,0.756-5.115,1.445-8.852,2.09	c-0.178,0-0.4,0.289-0.4,0.533l0.334,14.213c0,0.221,0.178,0.578,0.602,0.533c3.535-0.533,7.049-1.18,10.541-1.936	c0.467-0.111,0.645,0,0.756,0.645l0.867,5.584c0.066,0.311,0.111,0.711-0.289,0.822c-3.848,0.934-7.738,1.689-11.654,2.268	c-0.289,0.068-0.645,0.178-0.645,0.713l0.355,14.744c0,0.756,0.469,1.156,0.867,1.09c4.494-0.289,8.986-1.512,13.346-2.623	c0.289-0.045,0.711-0.156,0.822,0.467l1.156,7.693c0.133,0.424-0.289,0.824-0.801,0.936c-7.34,2.268-14.344,3.625-22.328,3.803	c-0.578,0-1.046-0.178-1.046-0.711l0.356-53.732c0-0.289,0.512-0.467,0.867-0.467c5.137-0.334,9.451-1.045,13.922-2.736	c0.533-0.178,0.711-0.111,0.711,0.133l0.867,5.404C113.463,121.951,113.328,122.018,113.039,122.129L113.039,122.129z"/><path style="fill-rule:evenodd;clip-rule:evenodd;fill:#FFFFFF;" d="M124.471,168.277c-0.178,0.043-0.467,0.043-0.533-0.246	l-9.674-52.73c-0.045-0.111,0-0.178,0.178-0.223c1.467-0.645,2.912-1.4,4.314-2.156c0.111-0.068,0.4-0.111,0.4,0.043l13.41,50.818	c0.111,0.4,0.066,0.578-0.111,0.713C129.83,165.875,127.273,167.098,124.471,168.277L124.471,168.277z"/><path style="fill-rule:evenodd;clip-rule:evenodd;fill:#FFFFFF;" d="M166.594,99.645c-0.355,1.734-0.822,3.357-1.334,5.004	c-0.066,0.111-0.178,0.4-0.535,0.289l-1.156-0.646c-0.178-0.111-0.4,0.068-0.533,0.178l-1.801,4.494	c-0.111,0.289-0.111,0.578,0.289,0.867l8.096,5.426c0.289,0.178,0.822,0.223,1-0.467c1.578-6.539,2.268-13.01,2.201-19.616	c0-0.289-0.111-0.578-0.467-0.712l-13.389-4.648c-0.533-0.245-1.334-0.178-1.689,0.511c-1.18,2.269-2.27,4.137-3.314,5.828	c-0.178,0.178-0.467,0.533-0.934,0.289l-6.584-3.203c-0.311-0.178-0.533-0.334-0.311-0.868l1.066-2.335	c0.111-0.289,0.512-0.222,0.758-0.111l2.268,0.868c0.223,0.111,0.512,0.111,0.645-0.223l1.047-2.803	c0.111-0.222-0.246-0.534-0.469-0.645l-8.807-3.024c-0.334-0.112-0.578,0.111-0.689,0.355c-1,3.024-2.225,5.827-3.736,8.674	c-0.289,0.534-0.045,0.934,0.244,1.156l16.658,11.232c0.289,0.178,0.824,0.178,1.113-0.357c1.689-2.668,3.246-5.404,4.781-8.072	c0.111-0.178,0.289-0.355,0.689-0.178l4.604,2.047C166.527,98.998,166.66,99.221,166.594,99.645L166.594,99.645z"/><path style="fill-rule:evenodd;clip-rule:evenodd;fill:#FFFFFF;" d="M24.502,122.24c-0.111-0.289,0.222-0.646,0.467-0.824	l33.671-21.328c0.178-0.111,0.534,0,0.645,0.135c1.001,1.156,1.979,2.312,3.025,3.49c0.133,0.223,0.289,0.512,0.178,0.756	l-24.642,40.389c-0.178,0.223-0.756,0.045-0.934-0.178c-1.001-1.289-1.979-2.514-2.847-3.914c-0.178-0.223-0.133-0.645,0.045-0.867	l5.782-9.273c0.289-0.512,0.289-0.801,0.111-1.336c-1.001-2.623-1.868-5.182-2.691-7.807c-0.044-0.244-0.578-0.289-0.801-0.178	l-9.207,6.184c-0.245,0.111-0.712,0.045-0.823-0.178C25.792,125.688,25.08,123.93,24.502,122.24L24.502,122.24z M52.013,110.986	l-9.563,6.428c-0.245,0.111-0.356,0.467-0.245,0.756c0.467,1.689,1,3.246,1.646,4.715c0.111,0.4,0.467,0.645,0.69,0.223	l7.517-12.055C52.124,110.986,52.057,110.941,52.013,110.986L52.013,110.986z"/><path style="fill-rule:evenodd;clip-rule:evenodd;fill:#FFFFFF;" d="M153.717,147.416c-0.178,0.178-0.467,0.355-0.689,0.066	l-14.857-18.016c-0.133-0.178-0.355-0.355-0.6-0.178l-2.559,1.803c-0.221,0.178-0.533,0.422-0.355,0.889l9.209,24.398	c0.133,0.289,0,0.467-0.18,0.645c-2.379,1.867-4.824,3.625-7.383,5.248c-0.178,0.111-0.467,0.223-0.533-0.066l-14.746-50.396	l0.289-0.4c3.848-2.514,6.584-4.559,9.631-7.984c1.09-1.223,2.379-0.422,2.912,0.467l9.787,16.125	c0.934,1.467,0.867,3.559-0.246,4.914l-0.289,0.334l14.635,16.258c0.289,0.289,0.223,0.578,0.045,0.756	C156.453,144.102,155.184,145.658,153.717,147.416L153.717,147.416z M135.725,120.838l-4.025-7.916	c-0.135-0.291-0.355-0.357-0.645-0.18c-0.867,0.578-1.758,1.336-2.691,1.914c-0.111,0.133-0.111,0.244-0.045,0.355l3.314,8.852	c0.066,0.133,0.178,0.244,0.355,0.133l3.492-2.514C135.658,121.373,135.881,121.127,135.725,120.838L135.725,120.838z"/><path style="fill-rule:evenodd;clip-rule:evenodd;fill:#FFFFFF;" d="M168.105,122.996c-0.045,0.178-0.178,0.355-0.4,0.244	l-7.984-5.492c-0.178-0.045-0.4-0.045-0.533,0.133l-3.314,8.385c-0.066,0.221,0,0.467,0.111,0.645l5.539,9.207	c0.111,0.156,0.111,0.4,0.066,0.512c-1.002,1.578-1.98,3.092-3.025,4.604c-0.066,0.111-0.311,0.178-0.422,0l-24.465-40.678	c-0.111-0.154-0.111-0.332,0-0.512c1.045-1.311,1.98-2.668,2.914-4.069c0.045-0.111,0.223-0.223,0.4-0.111l32.76,21.084	c0.111,0.109,0.223,0.289,0.156,0.51C169.396,119.26,168.818,121.127,168.105,122.996L168.105,122.996z M153.65,113.609	l-9.029-6.115c-0.334-0.223-0.4-0.178-0.223,0.178l7.049,11.721c0.111,0.178,0.4,0.578,0.646,0.045	c0.223-0.578,1.445-3.426,1.912-5.07C154.072,114.033,153.828,113.789,153.65,113.609L153.65,113.609z"/><path style="fill-rule:evenodd;clip-rule:evenodd;fill:#FFFFFF;" d="M39.425,109.43c-2.58-3.27-4.848-6.939-7.005-10.943	c-0.178-0.4-0.512-0.4-0.801-0.289l-10.675,3.648c-0.645,0.244-0.757-0.178-0.757-0.467c-0.222-2.492-0.178-4.982-0.178-7.429	c0-0.578,0.29-0.823,0.645-0.89l30.581-6.049c0.355-0.067,0.645,0.111,0.711,0.289c1.513,3.736,3.27,6.872,5.36,10.208	c0.178,0.223,0,0.623-0.178,0.756L40.47,109.652C40.115,109.896,39.758,109.83,39.425,109.43L39.425,109.43z M49.21,97.33	c-0.934-1.356-1.801-2.735-2.624-4.136c-0.067-0.066-0.178-0.066-0.289,0l-7.873,2.735c-0.356,0.045-0.289,0.29-0.223,0.401	c0.979,1.979,2.157,3.758,3.492,5.516c0.178,0.244,0.579,0.355,0.801,0.178l6.716-4.471C49.255,97.508,49.255,97.375,49.21,97.33	L49.21,97.33z"/><path style="fill-rule:evenodd;clip-rule:evenodd;fill:#FFFFFF;" d="M96.404,111.697c24.508,0,44.547-19.971,44.547-44.546	c0-24.531-20.039-44.591-44.547-44.591c-24.531,0-44.524,20.061-44.524,44.591C51.879,91.726,71.873,111.697,96.404,111.697	L96.404,111.697z"/><path style="fill-rule:evenodd;clip-rule:evenodd;fill:#3F7249;" d="M96.404,109.896c-11.721,0-22.44-4.848-30.18-12.566	c-7.762-7.694-12.521-18.37-12.521-30.179c0-23.552,19.171-42.79,42.701-42.79c11.743,0,22.418,4.849,30.157,12.588	c7.762,7.762,12.588,18.415,12.588,30.202C139.148,90.748,119.912,109.896,96.404,109.896L96.404,109.896z"/><path style="fill-rule:evenodd;clip-rule:evenodd;fill:#FFFFFF;" d="M83.994,33.546c4.581-2.691,8.229-5.604,10.808-7.917	c-12.076,0.467-22.84,6.161-30.157,14.856C71.095,39.551,77.611,37.238,83.994,33.546L83.994,33.546z"/><path style="fill-rule:evenodd;clip-rule:evenodd;fill:#FFFFFF;" d="M108.836,33.546c6.383,3.691,12.877,6.005,19.35,6.938	c-0.779-0.912-1.58-1.801-2.447-2.646c-7.184-7.206-16.924-11.765-27.666-12.209C100.607,27.919,104.254,30.855,108.836,33.546	L108.836,33.546z"/><path style="fill-rule:evenodd;clip-rule:evenodd;fill:#FFFFFF;" d="M70.094,79.138c-5.938-12.032-8.896-25.242-8.007-35.295	c-4.515,6.65-7.161,14.679-7.161,23.308c0,11.476,4.648,21.84,12.165,29.291c7.073,7.072,16.703,11.654,27.333,12.164	C81.726,99.266,74.208,87.523,70.094,79.138L70.094,79.138z"/><path style="fill-rule:evenodd;clip-rule:evenodd;fill:#FFFFFF;" d="M130.809,43.977c0.824,10.008-2.156,23.196-8.051,35.161	c-5.781,11.854-14.166,21.995-24.352,29.467c21.906-1.045,39.52-19.237,39.52-41.455C137.926,58.566,135.303,50.582,130.809,43.977	L130.809,43.977z"/><path style="fill-rule:evenodd;clip-rule:evenodd;fill:#FFFFFF;" d="M96.404,108.496c11.454-8.096,19.727-18.86,25.198-29.936	c6.65-13.566,9.053-27.377,7.65-36.54c-8.273-0.979-15.389-4.004-21.039-7.34c-5.426-3.202-9.496-6.627-11.809-8.784	c-2.269,2.157-6.294,5.582-11.721,8.784c-5.648,3.336-12.81,6.294-21.083,7.295c-1.334,9.208,0.979,23.019,7.695,36.585	C76.699,89.569,84.973,100.4,96.404,108.496L96.404,108.496z"/><path style="fill-rule:evenodd;clip-rule:evenodd;fill:#3F7249;" d="M96.404,106.916c-1.112-0.822-2.224-1.623-3.313-2.514	c-8.985-7.139-15.746-16.279-20.461-25.665c-5.582-11.187-8.34-22.662-8.496-31.358c0-1.512,0.044-3.091,0.222-4.604	c2.157-0.222,4.314-0.578,6.472-1.157c3.67-0.867,7.095-2.224,10.253-3.736c4.893-2.379,8.918-5.182,11.721-7.383	c1.268-1.068,2.491-2.113,3.603-3.27c1.135,1.112,2.313,2.202,3.581,3.203c2.803,2.269,6.828,5.071,11.787,7.45	c3.537,1.69,7.518,3.203,11.766,4.092c1.623,0.4,3.312,0.645,5.004,0.801c0.111,1.468,0.178,2.869,0.178,4.27	c-0.066,8.674-2.803,20.327-8.496,31.692c-4.736,9.43-11.543,18.592-20.572,25.799C98.605,105.338,97.494,106.16,96.404,106.916	L96.404,106.916z"/><path style="fill-rule:evenodd;clip-rule:evenodd;fill:#FFFFFF;" d="M101.164,32.946c-2.092-1.579-3.736-2.98-4.76-4.025	c-1,1.045-2.624,2.446-4.715,4.025H101.164L101.164,32.946z"/><path style="fill-rule:evenodd;clip-rule:evenodd;fill:#FFFFFF;" d="M108.902,37.772c-2.201-1.157-4.248-2.446-6.004-3.603H89.932	c-1.735,1.157-3.781,2.446-6.005,3.603H108.902L108.902,37.772z"/><path style="fill-rule:evenodd;clip-rule:evenodd;fill:#FFFFFF;" d="M121.156,42.665c-3.557-0.934-6.893-2.202-9.852-3.67H81.548	c-3.025,1.468-6.361,2.736-9.919,3.67H121.156L121.156,42.665z"/><path style="fill-rule:evenodd;clip-rule:evenodd;fill:#FFFFFF;" d="M127.496,47.624c0-1.29,0-2.513-0.111-3.669H65.468	c-0.111,1.156-0.111,2.379-0.111,3.669H127.496L127.496,47.624z"/><path style="fill-rule:evenodd;clip-rule:evenodd;fill:#FFFFFF;" d="M127.141,52.517c0.133-1.224,0.244-2.447,0.289-3.67H65.401	c0.067,1.223,0.178,2.446,0.356,3.67H127.141L127.141,52.517z"/><path style="fill-rule:evenodd;clip-rule:evenodd;fill:#FFFFFF;" d="M126.34,57.41c0.289-1.223,0.467-2.446,0.623-3.603H65.869	c0.178,1.156,0.4,2.379,0.645,3.603H126.34L126.34,57.41z"/><path style="fill-rule:evenodd;clip-rule:evenodd;fill:#FFFFFF;" d="M125.227,62.302c0.289-1.223,0.578-2.446,0.867-3.669H66.736	c0.312,1.223,0.601,2.446,0.934,3.669H125.227L125.227,62.302z"/><path style="fill-rule:evenodd;clip-rule:evenodd;fill:#FFFFFF;" d="M123.715,67.195c0.4-1.223,0.801-2.447,1.156-3.669H68.026	c0.355,1.223,0.689,2.446,1.112,3.669H123.715L123.715,67.195z"/><path style="fill-rule:evenodd;clip-rule:evenodd;fill:#FFFFFF;" d="M121.914,72.155c0.467-1.29,0.91-2.513,1.379-3.67H69.605	c0.4,1.157,0.867,2.38,1.401,3.67H121.914L121.914,72.155z"/><path style="fill-rule:evenodd;clip-rule:evenodd;fill:#FFFFFF;" d="M119.689,77.048c0.578-1.223,1.156-2.447,1.689-3.67H71.517	c0.534,1.223,1.046,2.447,1.646,3.67H119.689L119.689,77.048z"/><path style="fill-rule:evenodd;clip-rule:evenodd;fill:#FFFFFF;" d="M117.131,81.94c0.689-1.223,1.336-2.446,1.98-3.669H73.786	c0.601,1.223,1.29,2.446,1.935,3.669H117.131L117.131,81.94z"/><path style="fill-rule:evenodd;clip-rule:evenodd;fill:#FFFFFF;" d="M114.084,86.833c0.824-1.224,1.58-2.446,2.336-3.67H76.477	c0.689,1.224,1.445,2.446,2.269,3.67H114.084L114.084,86.833z"/><path style="fill-rule:evenodd;clip-rule:evenodd;fill:#FFFFFF;" d="M110.594,91.726c0.934-1.223,1.801-2.38,2.691-3.67H79.568	c0.867,1.29,1.735,2.447,2.668,3.67H110.594L110.594,91.726z"/><path style="fill-rule:evenodd;clip-rule:evenodd;fill:#FFFFFF;" d="M106.412,96.574c1.09-1.112,2.201-2.335,3.203-3.625H83.238	c1.045,1.29,2.091,2.513,3.203,3.625H106.412L106.412,96.574z"/><path style="fill-rule:evenodd;clip-rule:evenodd;fill:#FFFFFF;" d="M101.387,101.445c1.355-1.18,2.623-2.402,3.846-3.648H87.597	c1.223,1.246,2.513,2.469,3.915,3.648H101.387L101.387,101.445z"/><path style="fill-rule:evenodd;clip-rule:evenodd;fill:#FFFFFF;" d="M96.404,105.404c1.202-0.867,2.358-1.758,3.536-2.691h-7.027	C94.069,103.646,95.248,104.537,96.404,105.404L96.404,105.404z"/><path style="fill-rule:evenodd;clip-rule:evenodd;fill:#3F7249;" d="M80.146,86.833c1.757,0,3.848,0.066,4.893-1.624	c0.645-0.89,0.645-1.935,0.645-2.158v-20.75c0-0.222-0.178-0.578-0.534-0.867c-0.689-0.645-2.202-1.179-3.091-1.29	c0.89-0.178,2.402-0.69,3.158-1.29c0.289-0.29,0.467-0.579,0.467-0.801V45.4c0-0.4-0.066-0.689-0.244-0.979	c-0.223-0.467-0.579-0.823-1.046-1.112c-1.156-0.578-3.091-0.4-4.248-0.111c0.111-0.467,0.645-1.468,0.823-1.757	c1.445-2.513,3.203-3.025,4.893-2.802c1.58,0.178,3.025,1.112,4.026,1.823c1.512-1.4,3.247-2.446,4.937-3.158	c2.38-0.934,4.759-1.29,6.628-1.29c4.314,0,8.273,1.868,11.119,4.848c2.98,2.98,4.781,6.983,4.781,11.298	c0,3.781-1.912,8.162-5.07,11.431c-2.803,2.914-6.516,5.004-10.607,5.071c-2.092,0.044-4.182-0.534-5.672-1.646	c-1.401-0.979-2.401-2.49-2.401-4.314c0-0.222,0-0.467,0.066-0.689c0.044-1.401,0.512-2.69,1.401-3.603	c0.867-0.934,2.069-1.579,3.825-1.579c0.178,0,0.334,0,0.578,0.044l0,0c1.225,0.067,2.158,0.422,2.736,0.934	c0.756,0.712,1,1.579,1,2.446c0,1.468-0.889,2.98-2.469,3.092c0.312,0.111,0.646,0.178,1.068,0.244	c2.625,0.045,6.115-2.446,6.627-5.07c0.244-1.045-0.045-1.935-0.334-2.869c-0.289-0.756-0.533-1.557-0.533-2.491	c-0.066-1.468,0.355-2.335,0.756-3.158c0.467-0.934,0.867-1.735,0.289-3.38c-0.578-1.557-1.578-3.025-2.957-4.003	c-1.291-0.889-2.869-1.401-4.916-1.401c-1.557,0-3.424,0.801-4.803,2.023c-1.334,1.112-2.335,2.513-2.335,3.848v45.281	c-1.446-0.356-2.736-0.756-3.848-1.868c-0.578-0.512-1.045-1.223-1.334-1.868c-0.934,0.756-1.913,1.29-3.025,1.356	C83.594,90.103,80.792,88.635,80.146,86.833L80.146,86.833z"/><path style="fill-rule:evenodd;clip-rule:evenodd;fill:#FFFFFF;" d="M82.66,87.878c0.979,0.645,1.868,0.935,2.669,0.89	c1.579-0.133,3.091-1.646,3.736-2.513c0.044,0.934,0.467,2.38,1.512,3.381c0.534,0.467,1.112,0.823,1.802,1.112V47.09	c0-1.735,1.179-3.492,2.735-4.782c1.624-1.378,3.826-2.379,5.626-2.313c2.291,0,4.16,0.623,5.605,1.624	c1.623,1.157,2.734,2.802,3.447,4.604c0.756,2.09,0.223,3.136-0.355,4.314c-0.289,0.689-0.713,1.446-0.646,2.558	c0,0.823,0.246,1.513,0.467,2.157c0.357,1.112,0.689,2.157,0.4,3.559c-0.689,3.202-4.646,6.049-7.916,6.005	c-0.867-0.067-1.625-0.356-2.225-0.712c-1.445-0.979-1.557-2.446-1.334-3.38c0.244,0.422,1,1.112,1.689,1.29l0,0	c0.178,0.111,0.355,0.111,0.578,0.111c1.068,0,1.535-0.934,1.535-1.868c0-0.578-0.133-1.089-0.6-1.512	c-0.4-0.333-1.047-0.578-2.025-0.645l0,0l0,0l0,0c-0.178-0.044-0.355-0.044-0.467-0.044c-1.4,0-2.335,0.467-2.891,1.156	c-0.711,0.756-1.067,1.802-1.112,2.914c-0.067,0.178-0.067,0.423-0.067,0.578c0,1.401,0.756,2.514,1.779,3.336	c1.357,0.935,3.224,1.446,5.072,1.401c3.736-0.067,7.184-1.979,9.74-4.737c2.914-3.024,4.715-7.05,4.715-10.542	c0-3.958-1.689-7.695-4.426-10.475c-2.625-2.691-6.293-4.448-10.252-4.448c-1.758,0-3.959,0.312-6.161,1.224	c-1.735,0.711-3.425,1.757-4.893,3.225l-0.356,0.4l-0.4-0.289c-0.934-0.645-2.446-1.757-3.959-1.979	c-1.156-0.111-2.402,0.289-3.447,1.913c0.935-0.112,1.935,0.066,2.736,0.533c0.711,0.356,1.29,0.935,1.579,1.624	c0.245,0.467,0.356,0.934,0.356,1.512v12.655c0,0.579-0.29,1.223-0.868,1.735c-0.178,0.133-0.356,0.244-0.534,0.356	c0.178,0.111,0.355,0.245,0.467,0.355c0.645,0.579,0.935,1.268,0.935,1.801v20.75c0,0.356-0.067,1.624-0.823,2.847	C85.506,86.833,84.461,87.656,82.66,87.878L82.66,87.878z"/></g></svg>