<?xml version="1.0" encoding="iso-8859-1"?><!-- Generator: Adobe Illustrator 16.0.0, SVG Export Plug-In . SVG Version: 6.00 Build 0) --><!DOCTYPE svg PUBLIC "-//W3C//DTD SVG 1.1//EN" "http://www.w3.org/Graphics/SVG/1.1/DTD/svg11.dtd"><svg version="1.1" id="Layer_1" xmlns="http://www.w3.org/2000/svg" xmlns:xlink="http://www.w3.org/1999/xlink" x="0px" y="0px" width="192.756px" height="192.756px" viewBox="0 0 192.756 192.756" style="enable-background:new 0 0 192.756 192.756;" xml:space="preserve"><g><polygon style="fill-rule:evenodd;clip-rule:evenodd;fill:#FFFFFF;" points="0,0 192.756,0 192.756,192.756 0,192.756 0,0	"/><path style="fill-rule:evenodd;clip-rule:evenodd;" d="M8.504,180.99L8.504,180.99L8.504,180.99L8.504,180.99z M96.414,180.832	L93.12,177.4l-1.83-1.51l-2.013-1.441l-2.173-1.258l-2.356-1.236l-2.471-1.211l-2.722-1.053l-2.768-1.076l-2.882-0.982l-3.02-0.938	l-3.134-0.893l-3.111-0.916l-3.225-0.891l-3.271-0.961l-3.225-0.938l-3.293-0.984l-3.317-1.076l-3.226-1.119l-3.202-1.236	l-3.18-1.303l-3.133-1.42l-3.042-1.578l-2.882-1.67l-2.859-1.898l-2.699-1.99l-2.584-2.219l-2.425-2.447l-2.173-2.631l-2.059-2.812	l-1.784-3.135l-1.578-3.361l-1.304-3.592l-0.709-2.402l-0.458-2.447l-0.366-2.402l-0.114-2.287l0.068-2.379l0.183-2.219	l0.344-2.266l0.48-2.172l0.572-2.195l0.664-2.105l0.823-2.059l0.824-2.059l0.96-1.99l0.984-2.014l1.006-1.92l1.121-1.968	l1.03-1.944l1.144-1.898l1.121-1.875l1.098-1.899l1.144-1.853l1.052-1.853l1.075-1.807l0.983-1.83l0.961-1.807l0.869-1.784	l0.824-1.83l0.709-1.784l0.663-1.739l0.503-1.784l0.412-1.761l0.32-1.784l0.091-0.755l0.069-0.778l0.068-0.755v-0.824v-0.755	v-0.823l-0.068-0.801l-0.069-0.823l-0.091-0.755l-0.138-0.824l-0.114-0.755l-0.16-0.823l-0.183-0.824l-0.16-0.777l-0.252-0.755	l-0.229-0.824l-0.32-0.8l-0.274-0.755l-0.297-0.755l-0.343-0.824l-0.389-0.709l-0.343-0.755l-0.412-0.8l-0.412-0.755l-0.412-0.686	l-0.48-0.709l-0.435-0.732l-0.48-0.686l-0.549-0.709l-0.526-0.664l-0.549-0.686l-1.99-2.288l26.352-25.78l2.882,1.487l1.373,0.641	l1.418,0.687l1.396,0.617l1.418,0.618l1.396,0.618l1.486,0.595l1.441,0.572l1.464,0.526l1.418,0.549l1.464,0.503l1.487,0.48	l1.464,0.48l1.487,0.411l1.464,0.412l1.51,0.412l1.486,0.343l1.533,0.389l1.487,0.274l1.509,0.343l1.533,0.229l1.487,0.32	l1.533,0.229l1.51,0.183l1.555,0.16l1.579,0.183l1.533,0.138l1.555,0.091l1.51,0.137l1.601,0.045l1.51,0.069h1.556h1.532	l1.51-0.069l1.602-0.045l1.51-0.137l1.533-0.091l1.555-0.138l1.578-0.183l1.533-0.16l1.51-0.183l1.557-0.229l1.463-0.32	l1.557-0.229l1.51-0.343l1.463-0.274l1.555-0.389l1.465-0.343l1.51-0.412l1.486-0.412l1.465-0.411l1.486-0.48l1.486-0.48	l1.465-0.503l1.395-0.549l1.488-0.526l1.439-0.572l1.465-0.595l1.418-0.618l1.418-0.618l1.396-0.617l1.395-0.687l1.373-0.641	l2.904-1.487l26.328,25.78l-1.988,2.288l-0.551,0.686l-0.502,0.664l-0.549,0.709l-0.48,0.686l-0.457,0.732l-0.48,0.709	l-0.412,0.686l-0.412,0.755l-0.412,0.8l-0.344,0.755l-0.365,0.709l-0.344,0.824l-0.297,0.755l-0.297,0.755l-0.297,0.8l-0.252,0.824	l-0.229,0.755l-0.184,0.777l-0.16,0.824l-0.16,0.823l-0.115,0.755l-0.137,0.824l-0.113,0.755l-0.07,0.823l-0.045,0.801v0.823v0.755	v0.824l0.045,0.755l0.07,0.778l0.113,0.755l0.297,1.784l0.412,1.761l0.527,1.784l0.641,1.739l0.73,1.784l0.824,1.83l0.869,1.784	l0.938,1.807l1.008,1.83l1.051,1.807l1.076,1.853l1.121,1.853l1.098,1.899l1.143,1.875l1.145,1.898l1.029,1.944l1.121,1.968	l0.982,1.92l1.008,2.014l0.961,1.99l0.822,2.059l0.824,2.059l0.641,2.105l0.594,2.195l0.48,2.172l0.344,2.266l0.16,2.219	l0.068,2.379l-0.092,2.287l-0.365,2.402l-0.457,2.447l-0.732,2.402l-1.281,3.592l-1.578,3.361l-1.807,3.135l-2.059,2.812	l-2.15,2.631l-2.449,2.447l-2.561,2.219l-2.723,1.99l-2.836,1.898l-2.951,1.67l-2.996,1.578l-3.111,1.42l-3.203,1.303l-3.18,1.236	l-3.225,1.119l-3.34,1.076l-3.271,0.984l-3.248,0.938l-3.248,0.961l-3.225,0.891l-3.135,0.916l-3.111,0.893l-3.02,0.938	l-2.881,0.982l-2.791,1.076l-2.699,1.053l-2.471,1.211l-2.379,1.236l-2.15,1.258l-2.035,1.441l-1.807,1.51L96.414,180.832	L96.414,180.832L96.414,180.832z"/><path style="fill-rule:evenodd;clip-rule:evenodd;fill:#FFFFFF;" d="M90.306,171.018l-1.487-0.893l-2.539-1.326l-2.699-1.234	l-2.791-1.145l-2.882-1.053l-1.167-0.41v-54.945l13.565-10.156V171.018L90.306,171.018L90.306,171.018z M62.788,120.58v40.189	l-0.412-0.113l-3.271-0.961l-3.225-0.916l-3.249-1.006l-2.31-0.777v-27.039L62.788,120.58L62.788,120.58L62.788,120.58z M37.008,139.977v11.826l-2.813-1.463l-2.768-1.578l-2.653-1.785l-0.572-0.412L37.008,139.977L37.008,139.977L37.008,139.977z M12.441,112.459l0.069-0.617l0.458-1.99l0.549-1.967l0.572-1.969l0.755-1.943l0.824-1.922l0.892-1.898l0.961-1.945l1.007-1.898	l0.983-1.875l1.144-1.898l1.052-1.876l1.098-1.898l1.144-1.807l1.121-1.898l1.098-1.876l1.075-1.898l0.983-1.807l1.007-1.898	l0.961-1.944l0.823-1.899l0.823-1.875l0.641-1.967l0.595-1.922l0.48-1.944l0.343-1.99l0.137-0.892l0.023-0.892l0.068-0.892	l0.069-0.869v-0.961l-0.069-0.892l-0.068-0.846l-0.023-0.892l-0.137-0.892l-0.114-0.938l-0.16-0.892l-0.206-0.892l-0.183-0.892	l-0.229-0.847l-0.206-0.892l-0.32-0.893l-0.297-0.892l-0.343-0.824l-0.343-0.892l-0.389-0.823l-0.344-0.824l-0.48-0.869	l-0.412-0.824l-0.435-0.778l-0.48-0.823l-0.48-0.824l-0.526-0.755l-0.549-0.8l-0.572-0.755l-0.595-0.755l-0.48-0.572l22.234-21.754	l0.687,0.343l1.441,0.709l1.418,0.686l1.464,0.664l1.487,0.64l1.464,0.595l1.487,0.64l1.441,0.595l1.464,0.549l1.556,0.503	l1.532,0.549l1.487,0.526l1.51,0.48l1.533,0.412l1.556,0.48l1.51,0.343l1.601,0.412l1.51,0.343l1.556,0.367l1.578,0.274	l1.602,0.321l1.51,0.274l1.624,0.229l1.579,0.183l1.601,0.229l1.579,0.183l1.578,0.137l1.624,0.092l1.579,0.068l1.578,0.114h1.602	h1.646h1.578h1.648l1.602-0.114l1.578-0.068l1.602-0.092l1.578-0.137l1.578-0.183l1.623-0.229l1.578-0.183l1.578-0.229l1.602-0.274	l1.578-0.321l1.557-0.274l1.578-0.367l1.533-0.343l1.555-0.412l1.51-0.343l1.602-0.48l1.486-0.412l1.51-0.48l1.533-0.526	l1.51-0.549l1.486-0.503l1.486-0.549l1.533-0.595l1.486-0.64l0.504-0.183L12.441,112.459L12.441,112.459L12.441,112.459z M151.381,53.763v99.938l-1.738,0.756l-3.133,1.189l-3.18,1.074l-3.203,1.053l-3.225,1.006l-0.527,0.092V65.085L151.381,53.763	L151.381,53.763L151.381,53.763z M120.34,77.163v86.374l-2.539,0.824l-2.949,1.006l-2.951,1.053l-2.746,1.145l-2.676,1.234	l-1.166,0.641V88.486L120.34,77.163L120.34,77.163L120.34,77.163z M167.553,84.826l0.115,0.229l1.121,1.898l1.121,1.807	l1.098,1.898l1.145,1.876l1.074,1.898l1.053,1.875l0.982,1.898l0.939,1.945l0.891,1.898l0.824,1.922l0.709,1.943l0.664,1.969	l0.502,1.967l0.412,1.99l0.32,2.012l0.16,2.059l0.092,2.059l-0.16,2.129l-0.275,2.127l-0.41,2.127l-0.619,2.242l-1.234,3.293	l-1.465,3.043l-1.646,2.859l-1.83,2.631l-2.059,2.447l-2.195,2.219l-1.328,1.098V84.826L167.553,84.826L167.553,84.826z"/><path style="fill-rule:evenodd;clip-rule:evenodd;fill:#FFFFFF;" d="M41.88,119.207l4.598-2.814l0,0	c0,1.145,0.412,2.129,1.784,2.471c1.167,0.32,5.467-2.539,6.451-4.322c1.35-2.426,0.938-6.68-0.709-6.68	c-1.967,0-6.359,4.803-9.172,4.803c-0.343,0-2.127,0.572-2.768-2.127c-0.184-0.686-0.184-7.457-0.184-8.807	c0-5.559,2.104-6.656,6.634-9.607c1.578-0.984,5.49-2.814,8.166-3.363l0,0l0.755-2.836l2.905-1.579l0.046,10.156l-4.392,1.67l0,0	c0-0.983-0.823-1.258-1.167-1.235c-1.784,0.32-4.804,2.172-6.565,4.254c0,0-1.189,4.574,0.252,5.742	c0.823,0.686,7.549-5.467,10.156-4.781c0,0,2.127,0.732,2.288,1.305c0.824,2.309,0.732,11.207,0,12.717	c-1.373,3.158-7.229,6.887-10.111,8.236c-0.137,0-4.255,1.166-5.192,2.332l0,0v2.357l-3.797,2.195L41.88,119.207L41.88,119.207	L41.88,119.207z M66.928,106.648c0.32-0.137,0.595-0.273,0.892-0.457c0.274,0,0.526,0.068,0.686,0.252	c0.114,0.16,0.252,0.389,0.252,0.801c0,0.342-0.138,0.686-0.252,1.098c-0.16,0.412-0.412,0.754-0.686,1.189	c-0.297,0.412-0.572,0.754-0.892,1.006c-0.503,0.344-0.915,0.436-1.327,0.344c-0.274-0.184-0.458-0.457-0.458-0.938	c0-0.412,0.068-0.824,0.183-1.168c0.229-0.434,0.412-0.777,0.686-1.189C66.311,107.244,66.585,106.855,66.928,106.648	L66.928,106.648L66.928,106.648z M76.055,73.664l20.931-15.372v8.898l-4.187,2.699V68.7l0,0c0-0.687-0.229-1.99-0.229-2.104	c0-0.229-0.343-0.274-0.687-0.274c-0.48,0-5.81,4.323-7.251,5.81l0,0v8.258l4.712-3.363v5.192l-4.781,3.226l0.069,4.072l0,0	c0,0.549-0.229,2.539,1.167,2.448c0.274,0,1.967-1.647,3.065-2.242l0,0l0.092,3.912l-12.718,9.378v-3.889l0,0	c1.67-1.098,2.608-1.602,2.608-4.278l0,0V78.193l0,0c0-1.922-0.824-2.356-2.745-1.67l0,0L76.055,73.664L76.055,73.664	L76.055,73.664z M96.276,84.758c0.297-0.251,0.572-0.343,0.892-0.48c0.275,0,0.504,0.068,0.688,0.206	c0.09,0.206,0.229,0.435,0.229,0.847c0,0.274-0.139,0.686-0.229,1.029c-0.184,0.48-0.412,0.823-0.688,1.281	c-0.32,0.412-0.594,0.709-0.892,0.915c-0.526,0.412-0.938,0.48-1.35,0.412c-0.274-0.16-0.435-0.435-0.435-0.96	c0-0.366,0.068-0.755,0.16-1.167c0.251-0.412,0.412-0.755,0.686-1.235C95.659,85.33,96.002,84.987,96.276,84.758L96.276,84.758	L96.276,84.758z M124.068,46.832l0.23-1.99l0,0c0.158-1.373-0.732-1.784-1.945-1.121c-1.098,0.618-3.02,1.441-5.17,3.18	c-1.098,0.938-1.303,3.408-1.303,5.33l0,0v11.872l0,0c0,3.179,1.463,3.02,1.463,3.02c2.676-0.184,6.795-3.363,6.725-4.644l0,0	l-0.16-5.284l5.285-3.706l-0.252,8.144l0,0c-0.092,3.386-4.895,6.474-8.326,9.013c-2.516,1.83-4.986,3.271-6.244,3.912	c-2.998,1.487-5.125,0.458-5.125-5.101l0,0l-0.068-12.672l0,0c0-11.186,2.928-13.039,10.34-17.019	c0.914-0.549,3.293-1.396,4.803-1.235c0.344-0.686,0.137-3.02,0.893-3.98l0,0l3.98-2.15l-0.115,10.568L124.068,46.832	L124.068,46.832L124.068,46.832z M136.811,54.769c0.273-0.206,0.549-0.343,0.846-0.458c0.275,0,0.525,0.069,0.709,0.183	c0.115,0.229,0.229,0.435,0.229,0.846c0,0.32-0.113,0.732-0.229,1.075c-0.184,0.435-0.434,0.778-0.709,1.189	c-0.297,0.48-0.572,0.755-0.846,1.006c-0.549,0.412-0.916,0.435-1.35,0.412c-0.297-0.252-0.48-0.48-0.48-1.007	c0-0.412,0.068-0.755,0.184-1.167c0.16-0.412,0.41-0.755,0.73-1.189C136.146,55.341,136.422,54.998,136.811,54.769L136.811,54.769	L136.811,54.769z"/><path d="M60.67,59.051c-0.302,0.458-0.626,0.892-0.969,1.298c-0.469,0.556-0.98,1.076-1.521,1.557	c-2.164,1.924-4.785,3.188-7.108,3.766c1.666,0.527,3.435,0.811,5.264,0.811h0.001h0.001c2.037,0,4.002-0.347,5.837-0.983	c0.634-1.489,0.963-3.098,0.959-4.787c0-0.333-0.016-0.684-0.047-1.054c-0.015-0.186-0.033-0.367-0.054-0.541	C62.173,59.311,61.354,59.293,60.67,59.051L60.67,59.051z M49.182,64.953c2.485-0.246,5.729-1.537,8.304-3.826	c0.498-0.443,0.973-0.926,1.415-1.451c0.311-0.369,0.601-0.752,0.867-1.15c-0.118-0.105-0.227-0.223-0.325-0.352l-0.016-0.024	l-0.001,0.001c-0.087-0.129-0.16-0.264-0.22-0.405c-4.071,0.974-7.792,0.75-11.244-0.188c-3.07-0.833-5.917-2.227-8.603-3.839	c0.854,2.883,2.418,5.465,4.483,7.539C45.375,62.796,47.183,64.056,49.182,64.953L49.182,64.953z M56.337,29.908L56.337,29.908	c5.185,0,9.936,2.094,13.39,5.484c3.456,3.391,5.615,8.08,5.616,13.269v0.001v0c0,5.188-2.159,9.905-5.614,13.325	c-3.455,3.42-8.206,5.543-13.391,5.543h-0.001h-0.001c-5.141,0-9.83-2.118-13.233-5.537c-2.444-2.455-4.225-5.58-5.035-9.073	c-0.059-0.037-0.117-0.074-0.176-0.112l0.112-0.175c-0.276-1.281-0.421-2.609-0.421-3.971v-0.001v-0.001	c0-5.187,2.119-9.875,5.522-13.268c3.403-3.391,8.09-5.485,13.23-5.485H56.337L56.337,29.908z M56.338,30.954L56.338,30.954h-0.002	c-1.2,0-2.374,0.121-3.51,0.352c2.542,3.078,4.531,6.338,6.236,9.719c1.699,3.368,3.112,6.846,4.508,10.377	c0.609-0.246,1.209-0.398,1.77-0.449c0.1-0.009,0.199-0.015,0.296-0.017c0.814-3.061,1.217-6.087,1.014-9.081	c-0.206-3.052-1.043-6.073-2.717-9.063l0.155-0.087C61.733,31.582,59.101,30.954,56.338,30.954L56.338,30.954z M51.692,31.575	c-3.004,0.82-5.7,2.414-7.851,4.558c-0.834,0.832-1.587,1.747-2.244,2.731c3.653,4.75,7.965,8.771,12.896,12.029	c0.96,0.635,1.949,1.243,2.968,1.826c0.833,0.477,1.684,0.935,2.551,1.372c0.465-0.625,1.079-1.222,1.813-1.738l0.002-0.002	l0.006-0.004h0.002c0.261-0.181,0.525-0.345,0.792-0.493c-1.397-3.534-2.808-7.013-4.496-10.359	C56.384,38.031,54.337,34.7,51.692,31.575L51.692,31.575z M41.008,39.808c-1.511,2.603-2.379,5.625-2.379,8.853v0.001v0.001	c0,1.234,0.126,2.44,0.366,3.604c2.882,1.803,5.939,3.386,9.241,4.282c3.304,0.896,6.867,1.109,10.766,0.17	c0-0.066,0.001-0.133,0.006-0.199c0.032-0.495,0.187-1.017,0.449-1.539c-0.853-0.433-1.691-0.885-2.515-1.356	c-1.026-0.587-2.036-1.208-3.025-1.863C48.997,48.512,44.681,44.516,41.008,39.808L41.008,39.808z M63.489,64.987	c2.06-0.901,3.926-2.177,5.505-3.74c1.141-1.128,2.131-2.407,2.938-3.801c-1.071-0.067-2.161-0.315-3.389-0.594	c-0.42-0.095-0.858-0.195-1.305-0.29c-0.333,0.373-0.719,0.729-1.155,1.054H66.08c-0.12,0.089-0.24,0.174-0.359,0.254v0	c-0.31,0.224-0.63,0.423-0.954,0.595l0,0c-0.238,0.127-0.479,0.238-0.719,0.335c0.038,0.272,0.067,0.529,0.087,0.772	c0.03,0.368,0.046,0.749,0.047,1.14C64.184,62.202,63.948,63.634,63.489,64.987L63.489,64.987z M72.483,56.416	c1.16-2.348,1.814-4.98,1.814-7.754v0V48.66c0-0.165-0.002-0.33-0.007-0.494c-0.949,1.189-2.216,2.434-3.719,3.411	c-0.403,0.262-0.817,0.502-1.24,0.715c-0.271,0.136-0.551,0.263-0.839,0.379c0.226,0.669,0.147,1.458-0.192,2.259	c-0.101,0.238-0.226,0.478-0.374,0.716c0.292,0.064,0.572,0.128,0.846,0.19C70.14,56.147,71.328,56.417,72.483,56.416	L72.483,56.416z M74.171,46.569c-0.49-4.06-2.384-7.695-5.175-10.434c-1.063-1.043-2.256-1.956-3.551-2.713	c1.36,2.765,2.062,5.552,2.252,8.362c0.207,3.06-0.193,6.146-1.009,9.262c0.486,0.128,0.912,0.366,1.25,0.722	c0.312-0.121,0.622-0.26,0.927-0.413c0.399-0.2,0.778-0.42,1.138-0.653C71.813,49.526,73.256,47.931,74.171,46.569L74.171,46.569z M62.429,53.203L62.429,53.203l-0.006,0.005v0c-1.417,0.995-2.299,2.296-2.369,3.378c-0.012,0.192,0,0.371,0.041,0.532	c0.037,0.152,0.101,0.297,0.19,0.434c0.579,0.749,1.824,0.839,3.154,0.364c0.277-0.099,0.559-0.223,0.837-0.371h0.002	c0.278-0.148,0.556-0.321,0.829-0.519l0,0c0.041-0.03,0.01-0.007,0,0l0,0c0.001-0.001,0.004-0.002,0.006-0.004l0.016-0.012	c0.117-0.077,0.226-0.154,0.327-0.229l0-0.001c0.903-0.673,1.553-1.483,1.882-2.259c0.296-0.696,0.326-1.344,0.03-1.791	c-0.006-0.01-0.019-0.026-0.036-0.05l-0.01-0.016c0-0.001-0.001-0.001-0.001-0.001l-0.002,0.001	c-0.373-0.536-1.064-0.74-1.889-0.666C64.505,52.081,63.436,52.504,62.429,53.203L62.429,53.203z M65.105,57.029L65.105,57.029	C65.105,57.029,65.105,57.029,65.105,57.029L65.105,57.029z"/></g></svg>