<?xml version="1.0" encoding="iso-8859-1"?><!-- Generator: Adobe Illustrator 16.0.0, SVG Export Plug-In . SVG Version: 6.00 Build 0) --><!DOCTYPE svg PUBLIC "-//W3C//DTD SVG 1.1//EN" "http://www.w3.org/Graphics/SVG/1.1/DTD/svg11.dtd"><svg version="1.1" id="Layer_1" xmlns="http://www.w3.org/2000/svg" xmlns:xlink="http://www.w3.org/1999/xlink" x="0px" y="0px" width="192.756px" height="192.756px" viewBox="0 0 192.756 192.756" style="enable-background:new 0 0 192.756 192.756;" xml:space="preserve"><g><polygon style="fill-rule:evenodd;clip-rule:evenodd;fill:#FFFFFF;" points="0,0 192.756,0 192.756,192.756 0,192.756 0,0	"/><path style="fill-rule:evenodd;clip-rule:evenodd;fill:#FFFFFF;stroke:#000000;stroke-width:2.9999;stroke-miterlimit:2.6131;" d="	M25.972,80.514V47.723c49.543,11.932,32.17-34.394,32.17-34.394c11.96-5.848,38.25-6.361,38.25-6.361s26.262,0.513,38.221,6.361	c0,0-15.359,46.82,32.172,34.394v32.792c0.137,82.152-70.393,105.275-70.393,105.275S25.835,162.666,25.972,80.514L25.972,80.514z"	/><path style="fill-rule:evenodd;clip-rule:evenodd;" d="M32.373,81.912V55.698c44.112,6.924,34.668-36.662,34.668-36.662	c10.873-5.316,29.351-4.884,29.351-4.884s18.451-0.432,29.324,4.884c0,0-9.443,43.586,34.67,36.662v26.213	c0.123,74.684-63.994,95.704-63.994,95.704S32.249,156.596,32.373,81.912L32.373,81.912z"/><path style="fill-rule:evenodd;clip-rule:evenodd;fill:#FFFFFF;" d="M162.365,56.548c-29.193-0.355-32.775-14.902-32.775-14.902	l-93.405,80.795l17.771,27.881L162.365,56.548L162.365,56.548z"/><path style="fill:none;stroke:#000000;stroke-width:1.0001;stroke-miterlimit:2.6131;" d="M32.373,81.912V55.698 M32.373,55.698	c44.112,6.924,34.668-36.662,34.668-36.662c10.873-5.316,29.351-4.884,29.351-4.884s18.451-0.432,29.324,4.884	c0,0-9.443,43.586,34.67,36.662 M160.385,55.698v26.213 M160.385,81.912c0.123,74.684-63.994,95.704-63.994,95.704	s-64.143-21.02-64.019-95.704"/><path style="fill-rule:evenodd;clip-rule:evenodd;fill:#FFFFFF;" d="M84.959,22.004l1.056,3.894l5.964-4.204	c0,0,1.864-1.483,1.927,2.164c0,0-1.988,1.113-1.988,2.411c0,0-0.249,3.091-0.062,4.637v4.946c0,0-3.541,2.596-4.349,4.513h14.912	c0,0-1.492-2.72-4.475-4.451c0,0-2.795-3.586,1.119-5.008l0.932-6.306l-1.863-0.742l-5.53-5.07L84.959,22.004L84.959,22.004z"/><path style="fill-rule:evenodd;clip-rule:evenodd;" d="M92.974,29.175c0,0,0.994,0.681,1.056,1.484c0,0,0.808,0.742,0.932-0.124	c0,0,0.497-1.608-0.869-2.535C94.092,28,92.476,27.691,92.974,29.175L92.974,29.175z"/><path style="fill-rule:evenodd;clip-rule:evenodd;" d="M95.645,34.307c0,0-0.187,1.731,0.994,3.339c0,0,0.684,0.742,0.871-0.186	c0,0-0.623-1.236-0.809-2.226C96.701,35.234,96.453,33.194,95.645,34.307L95.645,34.307z"/><path style="fill-rule:evenodd;clip-rule:evenodd;" d="M92.166,38.573c0,0,0.373-3.091,1.056-3.586c0,0,0.994-1.113,0.87,1.298	c0,0-0.435,2.288-1.118,2.659C92.974,38.944,92.476,39.376,92.166,38.573L92.166,38.573z"/><path style="fill-rule:evenodd;clip-rule:evenodd;fill:#FFFFFF;stroke:#000000;stroke-width:1.0001;stroke-miterlimit:2.6131;" d="	M103.514,67.321h-26.59c0-8.655-4.639-12.941-4.639-12.941h30.401L103.514,67.321L103.514,67.321z"/><line style="fill:none;stroke:#000000;stroke-width:2.0001;stroke-miterlimit:2.6131;stroke-dasharray:10.0006,6.0004;" x1="78.498" y1="57.8" x2="103.971" y2="57.8"/><path style="fill-rule:evenodd;clip-rule:evenodd;fill:#FFFFFF;stroke:#000000;stroke-width:1.0001;stroke-miterlimit:2.6131;" d="	M83.302,106.518c14.249-0.041,23.03,6.924,23.03,6.924c19.756-22.627,7.082-47.357,7.082-47.357H64.705	c0,0,12.675,24.729-7.083,47.357C57.622,113.441,69.054,106.559,83.302,106.518L83.302,106.518z"/><line style="fill:none;stroke:#000000;stroke-width:2.0001;stroke-miterlimit:2.6131;stroke-dasharray:10.0006,6.0004;" x1="70.544" y1="70.66" x2="112.916" y2="70.66"/><path style="fill-rule:evenodd;clip-rule:evenodd;fill:#FFFFFF;stroke:#000000;stroke-width:1.0001;stroke-miterlimit:2.6131;" d="	M110.184,39.871H80.982c0,0,4.349,3.833,1.988,12.241c0,0,11.804-7.171,27.586,0C110.557,52.112,112.793,44.199,110.184,39.871	L110.184,39.871z"/><path style="fill-rule:evenodd;clip-rule:evenodd;fill:#FFFFFF;stroke:#000000;stroke-width:1.0001;stroke-miterlimit:2.6131;" d="	M125.84,50.876H86.45c0,0,7.953,13.107-0.373,21.515c0,0,24.728-10.757,36.284,1.73C122.361,74.121,130.934,62.993,125.84,50.876	L125.84,50.876z"/><path style="fill-rule:evenodd;clip-rule:evenodd;fill:#FFFFFF;stroke:#000000;stroke-width:1.0001;stroke-miterlimit:2.6131;" d="	M89.764,115.297c-11.597,0.082-24.189,5.934-24.189,5.934c24.354-22.75,5.964-48.592,5.964-48.592h61.633	c0,0,8.201,39.444-24.977,48.592C108.195,121.23,101.361,115.213,89.764,115.297L89.764,115.297z"/><line style="fill:none;stroke:#000000;stroke-width:2.9999;stroke-miterlimit:2.6131;stroke-dasharray:14.9996,8.9997;" x1="79.492" y1="77.584" x2="131.805" y2="77.584"/><line style="fill:none;stroke:#000000;stroke-width:2.0001;stroke-miterlimit:2.6131;stroke-dasharray:10.0006,6.0004;" x1="92.415" y1="54.833" x2="125.84" y2="54.833"/><line style="fill:none;stroke:#000000;stroke-width:1.0001;stroke-miterlimit:2.6131;stroke-dasharray:5.0003,3.0002;" x1="86.45" y1="42.961" x2="109.934" y2="42.961"/><path style="fill-rule:evenodd;clip-rule:evenodd;fill:#CD3529;" d="M113.725,99.16c0,0-3.914-2.904-7.891-2.904v0.012	c0,3.957,2.92,7.852,2.92,7.852h-9.879c0,0,2.92-3.895,2.92-7.852v-0.012c-3.975,0-7.889,2.904-7.889,2.904v-9.818	c0,0,3.915,2.906,7.889,2.906v-0.013c0-3.956-2.92-7.852-2.92-7.852h9.879c0,0-2.92,3.896-2.92,7.852v0.013	c3.977,0,7.891-2.906,7.891-2.906V99.16L113.725,99.16z"/><path style="fill:none;stroke:#FFFFFF;stroke-width:2.9999;stroke-miterlimit:2.6131;" d="M45.196,90.257V63.611 M45.196,63.611	c0,0,9.941-0.186,9.941,7.852c0,0,1.429,6.491-9.941,6.491"/><path style="fill:none;stroke:#000000;stroke-width:5;stroke-miterlimit:2.6131;" d="M59.796,71.836	c-2.14-2.25-5.53-3.702-9.347-3.702c-6.47,0-11.715,4.175-11.715,9.326c0,5.15,5.245,9.326,11.715,9.326	c4.463,0,8.343-1.986,10.32-4.909"/><path style="fill:none;stroke:#FFFFFF;stroke-width:2.9999;stroke-miterlimit:2.6131;" d="M59.796,71.836	c-2.14-2.25-5.53-3.702-9.347-3.702c-6.47,0-11.715,4.175-11.715,9.326c0,5.15,5.245,9.326,11.715,9.326	c4.499,0,8.405-2.019,10.369-4.98"/><path style="fill:none;stroke:#000000;stroke-width:5;stroke-miterlimit:2.6131;" d="M60.107,91.247c0,0-4.039,0-4.039-4.884	c0,0,0.438-3.511-2.036-6.011"/><path style="fill:none;stroke:#FFFFFF;stroke-width:2.9999;stroke-miterlimit:2.6131;" d="M60.107,91.247c0,0-4.039,0-4.039-4.884	c0,0,1.056-8.47-9.382-8.47"/><line style="fill:none;stroke:#000000;stroke-width:5;stroke-miterlimit:2.6131;" x1="45.196" y1="75.42" x2="45.196" y2="65.59"/><line style="fill:none;stroke:#FFFFFF;stroke-width:2.9999;stroke-miterlimit:2.6131;" x1="45.196" y1="75.42" x2="45.196" y2="65.59"/><path style="fill-rule:evenodd;clip-rule:evenodd;fill:#FFFFFF;" d="M46.625,65.157l-2.92,0.989c0-3.091-2.05-4.019-2.05-4.019	h3.666L46.625,65.157L46.625,65.157z"/><path style="fill-rule:evenodd;clip-rule:evenodd;fill:#FFFFFF;" d="M48.613,92.731h-6.896c0,0,1.988-0.989,1.988-2.968h2.92	C46.625,91.803,48.613,92.731,48.613,92.731L48.613,92.731z"/><path style="fill:none;stroke:#FFFFFF;stroke-width:2.9999;stroke-miterlimit:2.6131;" d="M105.502,150.678	c-1.812-2.18-4.389-3.541-7.248-3.541c-5.483,0-9.928,5.01-9.928,11.189c0,6.182,4.445,11.191,9.928,11.191	c3.141,0,5.941-1.643,7.762-4.209 M105.834,169.455v0.061h-6.771"/><path style="fill:none;stroke:#000000;stroke-width:5;stroke-miterlimit:2.6131;" d="M94.837,162.592l2.983,6.738l2.795-6.49 M104.777,154.617l3.293-6.678"/><polyline style="fill:none;stroke:#FFFFFF;stroke-width:2.9999;stroke-miterlimit:2.6131;" points="86.637,146.27 97.82,169.33	109.189,145.713	"/><path style="fill:none;stroke:#000000;stroke-width:2.0001;stroke-miterlimit:2.6131;" d="M105.275,157.584h-4.412 M100.863,157.584c0,0,0.062,1.979,3.48,1.979 M104.344,159.562l0.932-1.979"/><path style="fill-rule:evenodd;clip-rule:evenodd;fill:#FFFFFF;" d="M105.275,157.584h-4.412c0,0,0.062,1.979,3.48,1.979	L105.275,157.584L105.275,157.584z"/><line style="fill:none;stroke:#FFFFFF;stroke-width:2.9999;stroke-miterlimit:2.6131;" x1="105.834" y1="157.584" x2="105.834" y2="169.516"/><path style="fill:none;stroke:#000000;stroke-width:5;stroke-miterlimit:2.6131;" d="M98.254,147.137	c-5.483,0-9.928,5.01-9.928,11.189"/><path style="fill:none;stroke:#FFFFFF;stroke-width:2.9999;stroke-miterlimit:2.6131;" d="M98.254,147.137	c-5.483,0-9.928,5.01-9.928,11.189"/><path style="fill-rule:evenodd;clip-rule:evenodd;fill:#FFFFFF;" d="M109.748,147.137c2.051,0,3.045-2.412,3.045-2.412h-6.896	c0,0,0.746,2.412,2.299,2.412H109.748L109.748,147.137z"/><path style="fill-rule:evenodd;clip-rule:evenodd;fill:#FFFFFF;" d="M85.829,147.137c-2.05,0-3.044-2.412-3.044-2.412h6.896	c0,0-0.745,2.412-2.299,2.412H85.829L85.829,147.137z"/><path style="fill-rule:evenodd;clip-rule:evenodd;stroke:#000000;stroke-width:1.0001;stroke-miterlimit:2.6131;" d="	M73.589,122.344c0,0-1.802,8.285,21.124,8.285c0,0,9.443,0.617,13.978-4.576l8.822-9.459c0,0-4.348-9.088-9.504-9.088	C108.01,107.506,95.106,107.053,73.589,122.344L73.589,122.344z"/><path style="fill-rule:evenodd;clip-rule:evenodd;fill:#DFA055;stroke:#000000;stroke-width:1.0001;stroke-miterlimit:2.6131;" d="	M100.863,130.217c0,0,2.154-13.354,4.475-16.816c0,0-3.729-5.275,2.318-5.77c0,0,2.568-0.33,3.314,2.555	c0,0,0.248,2.885-2.32,3.957c0,0-2.568,2.143-4.473,15.084C104.178,129.227,102.355,129.969,100.863,130.217L100.863,130.217z"/><path style="fill-rule:evenodd;clip-rule:evenodd;fill:#DFA055;" d="M86.45,115.791c0,0,8.201-4.039,13.337-5.523	c0,0,2.402-0.824,3.064,0c0,0,1.492,1.896-1.574,3.051c0,0-7.62,0.988-24.023,10.551c0,0-1.408,0.906-1.987-0.082	c0,0-0.332-0.742,1.077-1.814C76.344,121.973,82.639,117.605,86.45,115.791L86.45,115.791z"/><path style="fill-rule:evenodd;clip-rule:evenodd;fill:#DFA055;" d="M95.811,116.121c0,0,3.728-1.402,4.97-1.484	c0,0,1.656,0.082,1.656,1.402c0,0,0.414,1.812-2.318,2.637c0,0-6.793,1.072-18.723,7.502c0,0-2.153,1.648-3.479,0.33	c0,0-0.663-0.99,0.994-2.145C78.911,124.363,88.852,118.594,95.811,116.121L95.811,116.121z"/><path style="fill-rule:evenodd;clip-rule:evenodd;fill:#DFA055;" d="M93.574,121.809c0,0,4.805-1.73,6.959-1.814	c0,0,1.158,0.084,0.994,1.402c0,0,0.414,2.143-1.906,2.473c0,0-6.378,0.824-12.426,4.287c0,0-1.574,0.988-3.23,0.824	c0,0-0.994-0.248-1.823-0.578c0,0-1.656-0.33,2.568-2.473C84.71,125.93,90.426,122.715,93.574,121.809L93.574,121.809z"/><path style="fill-rule:evenodd;clip-rule:evenodd;fill:#DFA055;" d="M93.74,129.639c0,0-3.811,0-5.302-0.164	c0,0-0.994-0.248,0.746-1.154c0,0,4.474-1.896,8.615-2.885c0,0,2.568-0.742,2.568,1.236c0,0,0.414,2.721-2.982,2.885L93.74,129.639	L93.74,129.639z"/><path style="fill-rule:evenodd;clip-rule:evenodd;fill:#DFA055;" d="M113.953,113.07c0,0,2.65,2.969,1.408,4.369	c0,0-1.408,1.812-3.232-0.248c0,0-2.236-1.895-1.242-3.627C110.887,113.564,112.129,110.186,113.953,113.07L113.953,113.07z"/><path style="fill-rule:evenodd;clip-rule:evenodd;fill:#DFA055;" d="M110.059,116.451c0,0,1.656,1.648,2.154,2.719	c0,0,0.91,1.732-1.076,2.391c0,0-2.402-0.906-3.562-3.133C107.574,118.428,107.656,115.379,110.059,116.451L110.059,116.451z"/><path style="fill-rule:evenodd;clip-rule:evenodd;fill:#DFA055;" d="M108.07,120.902c0,0,2.568,1.648,1.078,3.215	c0,0-1.078,1.152-1.988,0c0,0-1.326-0.742-0.746-2.473C106.414,121.645,106.91,119.994,108.07,120.902L108.07,120.902z"/><path style="fill-rule:evenodd;clip-rule:evenodd;fill:#DFA055;" d="M106,124.611c0,0,1.988,1.072,0.662,2.143	c0,0-1.656,1.979-1.49,0C105.172,126.754,105.006,124.941,106,124.611L106,124.611z"/><path style="fill-rule:evenodd;clip-rule:evenodd;fill:#FFFFFF;" d="M88.521,137.059c0,0,7.953,0.246,9.526-1.236	C98.047,135.822,92.498,142.664,88.521,137.059L88.521,137.059z"/><path style="fill-rule:evenodd;clip-rule:evenodd;fill:#FFFFFF;" d="M109.396,130.957c0,0,5.799,1.32,9.691,0.908	C119.088,131.865,112.295,136.646,109.396,130.957L109.396,130.957z"/><path style="fill-rule:evenodd;clip-rule:evenodd;fill:#FFFFFF;" d="M126.627,131.783c0,0,3.562,0.082,6.213-0.99	C132.84,130.793,130.438,134.916,126.627,131.783L126.627,131.783z"/><path style="fill-rule:evenodd;clip-rule:evenodd;fill:#FFFFFF;" d="M119.938,138.232c0,0,3.521-0.412,5.012-0.164	C124.949,138.068,122.672,135.266,119.938,138.232L119.938,138.232z"/><path style="fill-rule:evenodd;clip-rule:evenodd;fill:#FFFFFF;" d="M103.266,132.006c0,0-2.65,0.826-4.141,0.578	C99.125,132.584,100.533,134.975,103.266,132.006L103.266,132.006z"/><path style="fill-rule:evenodd;clip-rule:evenodd;fill:#FFFFFF;" d="M102.355,136.48c0,0,2.898,0.578,6.709,0.412	C109.064,136.893,107.242,140.52,102.355,136.48L102.355,136.48z"/><path style="fill-rule:evenodd;clip-rule:evenodd;fill:#FFFFFF;" d="M82.557,132.854c0,0,5.053,0.166,7.869-0.412	C90.426,132.441,87.693,136.811,82.557,132.854L82.557,132.854z"/><path style="fill-rule:evenodd;clip-rule:evenodd;" d="M67.563,132.525c0,0,4.059-0.166,5.964-0.166	c1.906,0,3.521,0.371,4.515,1.195c0,0-1.035-1.689-3.52-2.514c0,0-2.9-1.072-5.716-0.494c0,0-2.568,0.494-5.798-1.566	C63.007,128.98,64.995,132.359,67.563,132.525L67.563,132.525z"/><path style="fill-rule:evenodd;clip-rule:evenodd;" d="M69.633,135.492c0,0-2.237-0.578-4.887-0.082	c-1.873,0.348-5.55-0.082-6.544-0.906c0,0,0.166,2.391,3.479,2.885c0,0,2.319,0,5.551-0.166c0,0,3.147-0.33,6.212,1.32	C73.444,138.543,70.711,135.74,69.633,135.492L69.633,135.492z"/></g></svg>