<?xml version="1.0" encoding="utf-8"?>
<!-- Generator: Adobe Illustrator 19.1.0, SVG Export Plug-In . SVG Version: 6.00 Build 0)  -->
<svg version="1.1" id="Camada_1" xmlns="http://www.w3.org/2000/svg" xmlns:xlink="http://www.w3.org/1999/xlink" x="0px" y="0px"
	 viewBox="-100 169 410 455" enable-background="new -100 169 410 455" xml:space="preserve">
<g>
	<path fill="#1F211D" d="M-38.2,544.3c-21.9-11.8-35.1-28.8-42.4-48.2c-7.1-18.7-8.6-39.2-7.2-58.8c1.8-25.2,11-45.8,19.6-65.3
		c15.3-34.4,28.7-64.6-22.2-111.6l-8.6-7.9l7.1-9.3l33.5-43.9l5.1-6.7l8.2,2.1c13.5,3.5,27.1,6.5,40.9,8.2c13,1.6,26,2,38.9,0.5
		c-0.5,0.1-0.6,0.1,0.6-0.1c0.2,0,0.4-0.1,0.7-0.1l0,0c-0.3,0-0.5,0.1-0.7,0.1c-0.2,0-0.4,0-0.5,0.1c0,0,0,0,0,0c0,0,0,0,0,0
		c0.4-0.1,0.9-0.1,1.3-0.2l0,0c0.7-0.1,0.5-0.1,0,0l0,0c2.6-0.3,5.4-0.8,8.4-1.4c2.8-0.5,5.5-1.2,8.1-1.9c13.4-3.6,25.5-9.4,36-17.2
		l0.4-0.3l8.8-6l7.3-5l7.3,5l8.8,6l0.4,0.2l0,0l0.1,0c1.6,1.2,3.7,2.6,6.4,4.3c2.6,1.7,4.8,3,6.6,3.9c11.8,6.3,25,10.4,39.6,12.2
		c13.4,1.7,26.8,1.3,40.2-0.4c13.8-1.7,27.4-4.7,40.9-8.2l8.2-2.1l5.1,6.7l33.5,43.9l7.1,9.3l-8.6,7.9c-52,48-37.9,78.9-21.7,114.4
		c8.5,18.7,17.6,38.5,20.6,62.3l0,0c0.7,5.3,1.1,10.7,1.1,16c0.1,5.4-0.2,10.8-0.8,16.4c-3.4,28.9-17.5,56.5-51.4,74.8l-137.1,73.9
		l-6.1,3.3l-6.1-3.3L-38.2,544.3z M-56.7,487c5.3,14,14.8,26.3,30.6,34.8L105,592.4l131.1-70.6c25.1-13.5,35.6-34,38.1-55.3
		c0.5-4.2,0.7-8.6,0.6-13.1c-0.1-4.4-0.4-8.9-0.9-13.2l0,0c-2.5-20.1-10.7-38-18.4-54.8c-19.4-42.5-36.5-79.7,19.2-135.7l-21.5-28.2
		c-12,2.9-23.9,5.4-35.9,6.9c-15.1,1.9-30.6,2.3-46.5,0.3c-17.7-2.2-33.9-7.3-48.5-15c-3.4-1.8-6.1-3.4-8.4-4.8
		c-2.1-1.3-4.6-3.1-7.5-5.2l-1.5-1l-1.5,1c-13.1,9.8-28,16.9-44.4,21.3c-3.2,0.9-6.5,1.6-9.8,2.3c-3,0.6-6.4,1.1-10,1.6l0,0
		c0,0-0.1,0-0.1,0l0,0c-15.9,2-31.3,1.6-46.4-0.3c-12-1.5-23.9-3.9-35.9-6.9l-21.5,28.2c54.4,54.9,38.2,91.4,19.8,132.7
		c-7.7,17.3-15.9,35.6-17.3,56.6C-63.4,455.6-62.3,472.4-56.7,487L-56.7,487z M36,203.3C36,203.3,36,203.3,36,203.3L36,203.3
		L36,203.3C36,203.3,36,203.3,36,203.3L36,203.3C36,203.3,36,203.3,36,203.3L36,203.3L36,203.3L36,203.3z M39.1,228.7
		C34.8,229.3,41.3,228.4,39.1,228.7L39.1,228.7z"/>
	<path fill="#FFFFFF" d="M-32.1,533.1c-37.7-20.3-45.5-58.7-42.9-94.9C-70,366.4,3.2,329.5-81.7,251l33.5-43.9
		c28.2,7.3,56.6,12.6,85.9,8.9c22.5-2.8,42.2-10.6,58.7-22.9l8.8-6l8.8,6c16.5,12.4,36.2,20.1,58.7,22.9c29.3,3.7,57.6-1.6,85.9-8.9
		l33.5,43.9c-85,78.4-14.1,116.1-5.2,187.7c4.3,34.5-3.5,72.3-44.4,94.4L105,607L-32.1,533.1z"/>
	<path fill="#1F211D" d="M246.9,222.7L-40.7,376.4c6.2-11.8,10.5-25.2,11.9-39.2c4.6-25.8-1.6-53-35.9-87.5l21.3-27.9c0,0,0,0,0,0
		c11.7,3,23.2,5.1,34.3,6.4c0.6,0.1,1.2,0.2,1.8,0.2c15.1,1.9,30.5,2.3,46.4,0.3l0,0c0,0,0.1,0,0.1,0l0,0c3.7-0.5,7-1,10-1.6
		c3.3-0.6,6.5-1.4,9.8-2.3c3.7-1,7.3-2.1,10.8-3.3c0,0-0.1,0-0.1,0c13-4.4,24.8-10.4,35.2-18.2c23.7,17.8,52.8,26.9,86.8,26.7
		c8.6,0,17.1-0.6,25.5-1.6c9.5-1.2,18.9-3,28.4-5.1L246.9,222.7z M39.1,228.7C34.8,229.3,41.3,228.4,39.1,228.7L39.1,228.7z"/>
	<path fill="#1F211D" d="M-3.7,404.5l12.3-6.7c1.1,1.9,1.9,3.2,2.2,3.8c1.7,3.1,2.6,5.8,2.6,8.1c0.1,2.5-1.2,5-3.8,7.3
		c-2.6,2.3-7.6,5.5-14.9,9.5c-7.7,4.2-13.3,7-16.7,8.5c-3.4,1.5-6.2,2.2-8.3,2.3c-1.9,0-3.6-0.4-5-1.3c-1.4-0.9-2.9-2.4-4.3-4.6
		c-1.2-1.7-3.1-5-5.7-9.8c-2.5-4.7-4.3-8.1-5.2-10.3c-0.9-2.2-1.5-4-1.6-5.4c-0.3-3.2,1.1-6.1,4.1-8.7c3-2.6,9.7-6.8,20.2-12.4
		c5.2-2.8,9.1-4.8,11.6-5.8c2.5-1,4.6-1.6,6.4-1.7c2.3-0.1,4.3,0.5,6,1.8c1.7,1.3,3.4,3.6,5.2,6.9c0.1,0.2,0.5,0.9,1.1,2l-12.3,6.7
		c-0.8-1.3-1.4-2.2-1.7-2.6c-0.4-0.4-0.8-0.6-1.3-0.8c-0.7-0.2-2.1,0.2-4.1,1.1c-2,0.8-5,2.3-8.9,4.5c-3.9,2.1-6.5,3.6-7.9,4.6
		c-1.4,1-2.3,1.9-2.6,2.7c-0.4,1-0.4,2.3,0.1,3.8c0.5,1.6,1.6,3.9,3.2,6.9c1.7,3.1,3,5.1,3.9,6.3c0.9,1.1,1.9,1.7,3,1.9
		c1,0.2,2.3-0.1,3.9-0.7c1.6-0.7,4.3-2,8.2-4.1c4.7-2.6,7.8-4.4,9.3-5.4c1.5-1,2.4-1.9,2.6-2.8C-1.9,408.9-2.4,407.1-3.7,404.5
		L-3.7,404.5z M1.6,369.5l44.8-24.4l5.2,9.5l-32.6,17.8l3.2,5.8l31-16.9l4.8,8.9l-31,16.9l3.5,6.5l32.9-17.9l5.3,9.7l-45,24.5
		L1.6,369.5z M118.4,358.3l-7.2-5l-26.7,14.5l0.3,8.7l-14.1,7.7l-0.6-52.1l19.1-10.4l43.1,28.9L118.4,358.3z M102,346.9l-16.1-11.1
		l-2.5,1.3l0.5,19.5L102,346.9z M136.2,348.6l-22-40.4L144,292c7-3.8,11.2-6,12.7-6.6c1.5-0.6,3-0.9,4.8-0.8c2,0.1,3.8,0.8,5.3,2.1
		c1.5,1.3,3.1,3.7,5,7.2c1.6,2.9,2.6,5.2,3,6.8c0.4,1.6,0.3,3.1-0.3,4.4c-0.6,1.5-1.9,3-3.9,4.5c2.7-1.2,4.9-1.5,6.8-0.8
		c1.1,0.4,2,1.1,2.8,2.1c0.8,1,2.1,3.3,4,6.8l2,3.8l-12.1,6.6l-1.2-2.2c-1.2-2.3-2.2-3.8-2.9-4.7c-0.7-0.9-1.4-1.4-2.1-1.7
		c-0.7-0.2-1.5-0.2-2.4,0.1c-0.9,0.3-2.6,1.2-5.1,2.5l-17.4,9.4l5.6,10.3L136.2,348.6z M137.5,321.5l17.3-9.4c3-1.7,4.8-2.7,5.3-3.1
		c0.5-0.4,1-0.8,1.2-1.3c0.3-0.6,0.5-1.3,0.3-2.1c-0.2-0.8-0.6-1.8-1.3-3.2c-0.7-1.3-1.4-2.2-2-2.8c-0.6-0.5-1.3-0.8-2.1-0.7
		c-0.5,0-1.1,0.2-1.7,0.5c-0.6,0.3-2.4,1.2-5.2,2.7l-17.3,9.4L137.5,321.5z M236.8,293.9l-7.2-5l-26.7,14.5l0.3,8.7l-14.1,7.7
		l-0.6-52.1l19.1-10.4l43.1,28.9L236.8,293.9z M220.4,282.5l-16.1-11.1l-2.5,1.3l0.5,19.5L220.4,282.5z M216.9,257.9l2.9-12.6
		l9.9-2.2L219.3,260L216.9,257.9z"/>
	<path fill="#FFFFFF" d="M124.8,234.3c0.9,1.6,1.7,3.2,2.6,4.8c0.9,1.6,1.7,3.2,2.6,4.8h16.8c-2.3,1-4.5,2-6.8,2.9
		c-2.3,1-4.5,2-6.8,2.9c0.9,1.6,1.7,3.2,2.6,4.8c0.9,1.6,1.7,3.2,2.6,4.8c-2.3-1-4.5-2-6.8-2.9c-2.3-1-4.5-2-6.8-2.9
		c-2.3,1-4.5,2-6.8,2.9c-2.3,1-4.5,2-6.8,2.9c0.9-1.6,1.7-3.2,2.6-4.8s1.7-3.2,2.6-4.8c-2.3-1-4.5-2-6.8-2.9c-2.3-1-4.5-2-6.8-2.9
		h16.8c0.9-1.6,1.7-3.2,2.6-4.8C123.1,237.5,123.9,235.9,124.8,234.3L124.8,234.3z"/>
	<path fill="#FFFFFF" d="M80.3,224.7c1.1,1.7,2.2,3.5,3.3,5.2c1.1,1.7,2.2,3.5,3.3,5.2h21.5c-2.9,1.1-5.8,2.1-8.7,3.2
		c-2.9,1.1-5.8,2.1-8.7,3.2c1.1,1.7,2.2,3.5,3.3,5.2c1.1,1.7,2.2,3.5,3.3,5.2c-2.9-1.1-5.8-2.1-8.7-3.2c-2.9-1.1-5.8-2.1-8.7-3.2
		c-2.9,1.1-5.8,2.1-8.7,3.2c-2.9,1.1-5.8,2.1-8.7,3.2c1.1-1.7,2.2-3.5,3.3-5.2c1.1-1.7,2.2-3.5,3.3-5.2c-2.9-1.1-5.8-2.1-8.7-3.2
		c-2.9-1.1-5.8-2.1-8.7-3.2h21.5c1.1-1.7,2.2-3.5,3.3-5.2C78.1,228.1,79.2,226.4,80.3,224.7L80.3,224.7z"/>
	<path fill="#FFFFFF" d="M27.6,233c1.2,1.8,2.4,3.5,3.6,5.3c1.2,1.8,2.4,3.5,3.6,5.3h23.4c-3.2,1.1-6.3,2.2-9.5,3.3
		c-3.2,1.1-6.3,2.2-9.5,3.3c1.2,1.8,2.4,3.5,3.6,5.3c1.2,1.8,2.4,3.5,3.6,5.3c-3.2-1.1-6.3-2.2-9.5-3.3c-3.2-1.1-6.3-2.2-9.5-3.3
		c-3.2,1.1-6.3,2.2-9.5,3.3c-3.2,1.1-6.3,2.2-9.5,3.3c1.2-1.8,2.4-3.5,3.6-5.3c1.2-1.8,2.4-3.5,3.6-5.3c-3.2-1.1-6.3-2.2-9.5-3.3
		c-3.2-1.1-6.3-2.2-9.5-3.3h23.4c1.2-1.8,2.4-3.5,3.6-5.3S26.4,234.8,27.6,233L27.6,233z"/>
	<path fill="#FFFFFF" d="M-10.8,255.2c1.2,2.1,2.5,4.3,3.7,6.4c1.2,2.1,2.5,4.2,3.7,6.4h24.1c-3.3,1.3-6.5,2.6-9.8,3.9
		c-3.3,1.3-6.5,2.6-9.8,3.9c1.2,2.1,2.5,4.3,3.7,6.4c1.2,2.1,2.5,4.2,3.7,6.4c-3.3-1.3-6.5-2.6-9.8-3.9c-3.3-1.3-6.5-2.6-9.8-3.9
		c-3.3,1.3-6.5,2.6-9.8,3.9c-3.3,1.3-6.5,2.6-9.8,3.9c1.2-2.1,2.5-4.2,3.7-6.4c1.2-2.1,2.5-4.2,3.7-6.4c-3.3-1.3-6.5-2.6-9.8-3.9
		c-3.3-1.3-6.5-2.6-9.8-3.9h24.1c1.2-2.1,2.5-4.2,3.7-6.4C-13.3,259.5-12,257.3-10.8,255.2L-10.8,255.2z"/>
	<path fill="#1F211D" d="M25.7,549.3V422.6l-87.1,46.1c0.9,6.4,2.5,12.6,4.7,18.4c5.3,14,14.8,26.3,30.6,34.8l1.5,0.8l-1-0.5
		L25.7,549.3z M105,591.2L57,564.9V406l94.1-49.8v209.1L105,591.2z M181.9,339.8l56.2-29.5c-4.5,26.2,5.9,50.2,17.4,75.2
		c4.7,10.3,9.6,21.1,13.3,32.5c2.2,7.5,4,15.1,5.1,22.8c0.5,4.2,0.8,8.5,0.9,12.8c0.1,4.4-0.1,8.8-0.6,13.1
		c-1.9,15.9-8.2,31.4-21.8,43.8c-4.7,4.2-10.3,8.1-16.8,11.7l-9.5,5.2l0,0l-39.7,21.5l39.7-21.5L181.9,551L181.9,339.8L181.9,339.8z
		"/>
	<path fill="#FFFFFF" d="M24.5,282.6c1.5,2.6,3,5.1,4.5,7.7c1.5,2.6,3,5.1,4.6,7.7H63c-4,1.6-7.9,3.2-11.9,4.8
		c-4,1.6-7.9,3.2-11.9,4.8c1.5,2.6,3,5.1,4.5,7.7s3,5.1,4.6,7.7c-4-1.6-7.9-3.2-11.9-4.7c-4-1.6-7.9-3.2-11.9-4.8
		c-4,1.6-7.9,3.2-11.9,4.8c-4,1.6-7.9,3.2-11.9,4.7c1.5-2.6,3-5.1,4.5-7.7s3-5.1,4.6-7.7c-4-1.6-7.9-3.2-11.9-4.8
		c-4-1.6-7.9-3.2-11.9-4.8h29.4c1.5-2.6,3-5.1,4.5-7.7S22.9,285.2,24.5,282.6L24.5,282.6z"/>
</g>
<g>
	<polygon fill="#FFFFFF" points="83,564.1 83,546.4 79.1,546.4 80.8,543.1 87,543.1 87,564.1 	"/>
	<polygon fill="#FFFFFF" points="108.6,564.1 108.6,546.4 104.7,546.4 106.3,543.1 112.6,543.1 112.6,564.1 	"/>
	<path fill="#FFFFFF" d="M101.3,544.6c-1.2-1.2-2.8-1.8-4.8-1.8c-2.1,0-3.8,0.6-5.1,1.8c-1.3,1.2-1.9,2.9-1.9,4.9
		c0,1.8,0.5,3.2,1.6,4.4c1.1,1.1,2.4,1.7,4.1,1.7c0.5,0,1,0,1.4-0.1c0.4-0.1,0.8-0.2,1.2-0.4l-5.6,9.1h4.7c2.4-3.6,4-6.6,5.6-10.7
		c0.5-1.4,0.8-2.7,0.8-3.9C103.1,547.4,102.5,545.8,101.3,544.6z M98.4,551.6c-0.5,0.6-1.2,0.9-2.1,0.9c-1,0-1.7-0.3-2.3-0.8
		c-0.5-0.6-0.8-1.3-0.8-2.3c0-0.9,0.3-1.7,0.8-2.2c0.6-0.6,1.3-0.9,2.2-0.9c0.9,0,1.6,0.3,2.2,0.8c0.5,0.6,0.8,1.3,0.8,2.3
		C99.2,550.2,99,551,98.4,551.6z"/>
	<path fill="#FFFFFF" d="M127.6,556v-13.3H124l-9.5,14.3v1.8h9.5v5.2h3.6v-5.2h2.1V556H127.6z M124,547.8c0,0.3,0,0.8,0,1.5v6.8
		h-5.5l4.2-6.5c0.3-0.4,0.5-0.9,0.8-1.3c0.2-0.5,0.4-0.9,0.6-1.4C124.1,547.1,124.1,547.4,124,547.8z"/>
</g>
</svg>
