<?xml version="1.0" encoding="utf-8"?>
<!-- Generator: Adobe Illustrator 19.1.0, SVG Export Plug-In . SVG Version: 6.00 Build 0)  -->
<svg version="1.1" id="Layer_1" xmlns="http://www.w3.org/2000/svg" xmlns:xlink="http://www.w3.org/1999/xlink" x="0px" y="0px"
	 viewBox="-80 415.6 530.5 379.3" enable-background="new -80 415.6 530.5 379.3" xml:space="preserve">
<g>
	<polygon fill="#FFF22D" points="211.1,544.4 211.1,685.4 346,537.6 280.3,469.1 	"/>
	<path d="M277.5,466.5l-70.3,76.4v152.3l144-157.6l-70.9-74.1L277.5,466.5L277.5,466.5z M280.4,474.6L280.4,474.6
		c5,5.2,56,58.5,60.4,63c-4.4,4.8-114.1,125-125.9,137.8c0-16.8,0-126.9,0-129.6C216.7,543.8,275.4,480.1,280.4,474.6L280.4,474.6z"
		/>
	<polygon fill="#FFF22D" points="240.3,714.7 376.9,714.7 445.2,639.4 379.5,570.9 	"/>
	<path d="M376.8,568.2L231.3,718.6h147.4l71.8-79.2l-70.9-74L376.8,568.2L376.8,568.2z M379.5,576.4L379.5,576.4
		c4.8,5,56.1,58.6,60.5,63.1c-4.4,4.8-62.6,69.1-64.7,71.4c-3.1,0-110.5,0-126,0C260.5,699.4,374.5,581.6,379.5,576.4L379.5,576.4z"
		/>
	<polygon fill="#FFF22D" points="159.5,544.4 159.5,685.4 24.4,537.6 89.9,469.1 	"/>
	<path d="M87.2,466.4l-68,71.1l144.1,157.6V542.9L90,463.5L87.2,466.4L87.2,466.4z M89.9,474.6L89.9,474.6
		c5,5.4,63.9,69.2,65.8,71.2c0,2.7,0,112.8,0,129.7c-11.8-12.9-121.6-133-126-137.9C34,533.1,85,479.8,89.9,474.6L89.9,474.6z"/>
	<polygon fill="#FFF22D" points="130.1,714.7 -6.7,714.7 -74.8,639.4 -9.1,570.9 	"/>
	<path d="M-11.9,568.2L-80,639.4l71.6,79.2h147.5L-9.1,565.4L-11.9,568.2L-11.9,568.2z M-9.1,576.4L-9.1,576.4
		c5.1,5.2,119,123,130.2,134.5c-15.5,0-123,0-126.1,0c-2.1-2.3-60.2-66.6-64.6-71.4C-65.2,635-13.9,581.4-9.1,576.4L-9.1,576.4z"/>
	<path d="M245.6,743.8H242l-18.4,49.7h6.9l5.3-15h9.8h9.8l5.3,15h7.3l-18.5-49.7H245.6L245.6,743.8z M245.6,772.8L245.6,772.8h-7.8
		l7.8-21.7l0.1-0.1l7.6,21.9h-7.7V772.8z"/>
	<path d="M382.8,785c-2.6,2.6-5.9,3.9-9.9,3.9c-4.8,0-8.6-1.9-11.5-5.6c-2.9-3.6-4.3-8.5-4.3-14.7c0-6.3,1.3-11.4,4.2-15
		c2.7-3.3,6.6-5.2,11.7-5.2c3.9,0,6.9,1,9.2,2.7c2.4,1.6,3.9,4.2,4.6,7.5h6.6c-0.6-5-2.7-8.9-6.3-11.8c-3.6-2.9-8.2-4.3-13.8-4.3
		c-7.1,0-12.7,2.3-16.8,6.8c-4.2,4.5-6.3,10.7-6.3,18.6c0,8.4,2,15,6,19.9c4,4.8,9.5,7.1,16.4,7.1c6.2,0,11.1-1.7,15-5.3
		s5.9-8.5,6.2-14.5H387C386.9,779.1,385.6,782.4,382.8,785L382.8,785z"/>
	<polygon points="400.3,785.9 400.3,793.5 407.2,793.5 407.2,785.9 	"/>
	<polygon points="298.9,770.5 325.5,770.5 325.5,764.7 298.9,764.7 298.9,750 327.7,750 327.7,743.8 292.1,743.8 292.1,793.5 
		328.3,793.5 328.3,787.3 298.9,787.3 	"/>
	<polygon points="336,793.5 343,793.5 343,785.9 336,785.9 	"/>
	<polygon points="154.7,727.6 148,727.6 141.1,739.4 145.1,739.4 	"/>
	<path d="M40.7,790.2c-0.4-0.9-0.6-2.2-0.7-3.9l-0.6-8.2c-0.3-3-0.7-5.3-1.6-6.5c-0.7-1.3-2.2-2.3-4.2-2.9c2.3-1,4-2.4,5.2-4.5
		c1.2-1.9,1.7-4.2,1.7-6.9s-0.6-5.2-1.6-7.1c-1.2-2-2.7-3.6-4.9-4.8c-1.2-0.7-2.4-1.2-3.9-1.4c-1.4-0.1-3.7-0.3-6.9-0.3H22H4v49.7
		h6.6v-21.3h10.9c0.1,0,0.3,0,0.6,0c4.5,0,7.3,0.4,8.5,1.4s1.9,3.2,2,6.5l0.4,6.5c0,0,0,0.1,0,0.3c0.3,3.3,0.7,5.6,1.3,6.6h7.9V792
		C41.6,791.8,41,791.1,40.7,790.2L40.7,790.2z M31.1,764.3L31.1,764.3c-1.7,1.4-4.8,2.2-8.9,2.2H10.6v-16.8h11.5
		c4.3,0,7.3,0.7,9.1,1.9c1.6,1,2.4,3.2,2.4,6C33.6,760.7,32.8,763,31.1,764.3L31.1,764.3z"/>
	<polygon points="48,793.5 54.8,793.5 54.8,743.8 48,743.8 	"/>
	<path d="M198.1,781.7c-0.3,0.7-0.4,1.3-0.6,1.9c-0.3,0.7-0.4,1.4-0.6,2.3c-0.1-0.4-0.3-1-0.4-1.6c-0.1-0.6-0.4-1.4-0.7-2.6
		l-12.4-37.9h-9.6v49.7h6.2v-42.3c0.1,0.7,0.3,1.4,0.4,2.2c0.3,0.7,0.4,1.4,0.7,2l12.5,38.2h6.3l12.8-38.2c0.3-0.7,0.4-1.4,0.7-2.2
		c0.1-0.7,0.3-1.4,0.4-2v42.3h6.6v-49.7h-9.6L198.1,781.7L198.1,781.7z"/>
	<path d="M94.3,785c-2.6,2.6-5.9,3.9-10.1,3.9c-4.8,0-8.6-1.9-11.5-5.6c-2.9-3.6-4.3-8.5-4.3-14.7c0-6.3,1.4-11.4,4.2-15
		c2.7-3.3,6.8-5.2,11.8-5.2c3.7,0,6.8,1,9.2,2.7c2.3,1.6,3.9,4.2,4.5,7.5h6.6c-0.6-5-2.6-8.9-6.2-11.8c-3.6-2.9-8.2-4.3-13.8-4.3
		c-7.2,0-12.8,2.3-17,6.8s-6.2,10.7-6.2,18.6c0,8.4,2,15,5.9,19.9c4,4.8,9.5,7.1,16.6,7.1c6,0,11.1-1.7,14.8-5.3
		c3.9-3.6,6-8.5,6.3-14.5h-6.6C98.3,779.1,96.9,782.4,94.3,785L94.3,785z"/>
	<path d="M158.6,774.6c0,4.6-1.2,8.1-3.2,10.2c-2.2,2.3-5.3,3.5-9.6,3.5s-7.5-1.2-9.6-3.3c-2-2.3-3-5.8-3-10.4v-30.8h-6.8v30.7
		c0,6.8,1.6,12,4.6,15.3c3.2,3.5,7.8,5,14.1,5c6.6,0,11.7-1.6,15.1-5c3.5-3.5,5.2-8.5,5.2-15.3v-30.7h-6.8V774.6L158.6,774.6z"/>
	<polygon points="111.1,793.5 117.9,793.5 117.9,743.8 111.1,743.8 	"/>
	<path d="M-12.7,785c-2.6,2.6-5.9,3.9-10.1,3.9c-4.8,0-8.6-1.9-11.5-5.6c-2.9-3.6-4.3-8.5-4.3-14.7c0-6.3,1.4-11.4,4.2-15
		c2.7-3.3,6.8-5.2,11.8-5.2c3.7,0,6.8,1,9.2,2.7c2.3,1.6,3.9,4.2,4.5,7.5h6.6c-0.6-5-2.6-8.9-6.2-11.8c-3.6-2.9-8.2-4.3-13.8-4.3
		c-7.2,0-12.8,2.3-17,6.8s-6.2,10.7-6.2,18.6c0,8.4,2,15,5.9,19.9c4,4.8,9.5,7.1,16.6,7.1c6,0,11.1-1.7,14.8-5.3
		c3.9-3.6,5.9-8.5,6.2-14.5h-6.5C-8.7,779.1-10.1,782.4-12.7,785L-12.7,785z"/>
	<polygon points="163.2,472.2 153,506.9 184.8,486.4 216.2,506.9 204.9,472.2 233.1,450.4 198.2,450.4 184.8,415.6 171.3,450.4 
		135.9,450.4 	"/>
</g>
</svg>
