<?xml version="1.0" encoding="utf-8"?>
<!-- Generator: Adobe Illustrator 19.1.0, SVG Export Plug-In . SVG Version: 6.00 Build 0)  -->
<svg version="1.1" id="Layer_1" xmlns="http://www.w3.org/2000/svg" xmlns:xlink="http://www.w3.org/1999/xlink" x="0px" y="0px"
	 viewBox="-360.5 443.5 245 352.5" enable-background="new -360.5 443.5 245 352.5" xml:space="preserve">
<g id="Camada_2">
</g>
<g id="Camada_1">
	<path fill="#FFFFFF" d="M-312.8,577.3c0,0,20.8,47.7,50,72.2l121.3-45.9l11-19l13.2-42.9l-3-24.5L-312.8,577.3z"/>
	<path fill="#FFFFFF" d="M-148.5,517.1c10.5,0,20.9,0.6,31,1.8c0-0.8,0-1.6,0-2.3c-0.3-12.4-1.9-25.5-5-39.4
		c-37.9-5.8-62.9-34.8-102.7-31.4c-34,2.9-56.8,28.9-91.9,31.4c-10.1,40.2-7.3,74.4,3.6,102.9C-274.9,541.7-215.4,517.1-148.5,517.1
		z"/>
	<path fill="none" stroke="#526C3A" stroke-width="4.146" d="M-148.5,517.1c10.5,0,20.9,0.6,31,1.8c0-0.8,0-1.6,0-2.3
		c-0.3-12.4-1.9-25.5-5-39.4c-37.9-5.8-62.9-34.8-102.7-31.4c-34,2.9-56.8,28.9-91.9,31.4c-10.1,40.2-7.3,74.4,3.6,102.9
		C-274.9,541.7-215.4,517.1-148.5,517.1z"/>
	<path fill="#9FC54D" d="M-322.1,794.9c-0.8-3.8-10.6-26-11-47.6c-0.8-43.5,21.5-83.1,56.5-112.5c36.5-30.7,87.7-50.4,144.7-52.3
		c3.3-6.9,6.1-14.2,8.3-21.8c-2.7-0.1-5.4-0.1-8.1-0.1c-63.9,0-121.2,22.5-159.6,57.9c-31.3,28.8-50.2,66.2-50.2,107.1
		c0,8.8,0.9,17.4,2.6,25.8c-2-3.5-3.9-7-5.7-10.6C-342.5,748.2-324.2,791.4-322.1,794.9"/>
	<path fill="none" stroke="#9FC54D" stroke-width="4.146" d="M-322.1,794.9c-0.8-3.8-10.6-26-11-47.6
		c-0.8-43.5,21.5-83.1,56.5-112.5c36.5-30.7,87.7-50.4,144.7-52.3c3.3-6.9,6.1-14.2,8.3-21.8c-2.7-0.1-5.4-0.1-8.1-0.1
		c-63.9,0-121.2,22.5-159.6,57.9c-31.3,28.8-50.2,66.2-50.2,107.1c0,8.8,0.9,17.4,2.6,25.8c-2-3.5-3.9-7-5.7-10.6
		C-342.5,748.2-324.2,791.4-322.1,794.9z"/>
	<path fill="#526C3A" d="M-140,538.9c7.1,0,14.1,0.3,21,0.8c0.9-6.7,1.5-13.6,1.5-20.8c-10.1-1.2-20.5-1.8-31-1.8
		c-66.9,0-126.5,24.6-164.9,62.9c-28.2,28.1-45,63.5-45,102c0,20.7,4.9,40.5,13.7,58.8c-3.5-11.9-5.3-24.3-5.3-37
		c0-39.2,17.4-75.1,46.4-103.4C-265.1,562.9-206.1,538.9-140,538.9"/>
	<path fill="none" stroke="#526C3A" stroke-width="4.146" d="M-140,538.9c7.1,0,14.1,0.3,21,0.8c0.9-6.7,1.5-13.6,1.5-20.8
		c-10.1-1.2-20.5-1.8-31-1.8c-66.9,0-126.5,24.6-164.9,62.9c-28.2,28.1-45,63.5-45,102c0,20.7,4.9,40.5,13.7,58.8
		c-3.5-11.9-5.3-24.3-5.3-37c0-39.2,17.4-75.1,46.4-103.4C-265.1,562.9-206.1,538.9-140,538.9z"/>
	<path fill="#526C3A" d="M-225.1,670.8c30.1-14.9,59.2-36.3,79.5-64.9c-43.8,5.1-83.2,20.8-113.8,43.6
		C-248.6,657.8-237.1,664.9-225.1,670.8"/>
	<path fill="none" stroke="#526C3A" stroke-width="4.146" d="M-225.1,670.8c30.1-14.9,59.2-36.3,79.5-64.9
		c-43.8,5.1-83.2,20.8-113.8,43.6C-248.6,657.8-237.1,664.9-225.1,670.8z"/>
	<path fill="#526C3A" d="M-245.5,508.4c0,0-0.6,0-1.6,0s-2.3,0-3.8-0.2s-3.1-0.5-4.9-1c-1.7-0.5-3.3-1.3-4.8-2.3s-2.7-2.4-3.7-4.2
		c-1-1.7-1.5-3.9-1.5-6.5v-25.6h9.3v25.5c0,3,0.9,5.2,2.8,6.4c1.8,1.3,4.6,1.9,8.2,2C-245.5,502.6-245.5,508.4-245.5,508.4z"/>
	<path fill="#526C3A" d="M-234.8,488.9c2.9-0.1,5.5-0.4,7.8-1c1-0.2,1.9-0.6,2.8-1s1.8-0.9,2.5-1.4c0.7-0.6,1.3-1.2,1.8-2
		s0.7-1.6,0.7-2.7c0-0.4,0-0.9-0.1-1.4c-0.1-0.5-0.3-1.1-0.5-1.7c-0.4-0.9-1.2-1.7-2.2-2.4c-1-0.7-2.6-1.1-4.8-1.1
		c-1.7,0-3.1,0.3-4.2,1c-1.1,0.6-1.9,1.4-2.4,2.3c-0.6,0.9-0.9,1.8-1.1,2.8s-0.2,1.7-0.2,2.3L-234.8,488.9L-234.8,488.9z
		 M-210,481.5c0,1.8-0.4,3.3-1.1,4.6c-0.7,1.3-1.7,2.5-2.8,3.4c-1.2,1-2.5,1.7-4,2.4c-1.5,0.6-3,1.1-4.5,1.5
		c-3.6,0.9-7.8,1.4-12.3,1.5c0.2,1.8,0.8,3.1,1.8,4.2c1,1,2.2,1.8,3.4,2.3s2.4,0.8,3.4,0.9c1.1,0.1,1.7,0.2,2,0.2h6.9v4.2
		c-0.5,0.3-1.2,0.6-2,0.9c-0.7,0.2-1.5,0.5-2.5,0.6c-1,0.2-2.2,0.3-3.6,0.3c-3.3,0-6-0.4-8.2-1.1c-2.2-0.7-4-1.7-5.4-2.8
		c-1.4-1.1-2.4-2.3-3.2-3.6c-0.7-1.3-1.2-2.5-1.5-3.7c-0.3-1.2-0.4-2.2-0.5-3c0-0.8,0-1.3,0-1.4v-7.6c0-0.2,0-0.7,0.1-1.6
		c0-0.9,0.2-2,0.5-3.2s0.8-2.6,1.5-4s1.7-2.7,3-3.9c1.3-1.2,2.9-2.1,4.9-2.9s4.4-1.2,7.3-1.2c1.9,0,3.8,0.2,5.8,0.7s3.8,1.2,5.4,2.2
		c1.6,1,3,2.4,4,4C-210.5,477-210,479.1-210,481.5z"/>
	<path fill="#526C3A" d="M-206.5,482.3c0-1.5,0.2-2.9,0.6-4.1c0.4-1.2,0.9-2.4,1.6-3.3c0.7-1,1.5-1.8,2.4-2.5
		c0.9-0.7,1.9-1.2,2.8-1.7c2-1,4-1.6,6.1-1.8c2-0.2,3.8-0.4,5.4-0.4l3.7-0.1c1,0,1.8,0,2.5,0.1s1.4,0.2,2,0.3
		c0.6,0.1,1.1,0.2,1.6,0.4c0.5,0.2,0.9,0.4,1.3,0.6l0.8,0.4v4.2h-9.9c-0.6,0-1.3,0-2,0.1c-0.7,0-1.4,0.1-2.2,0.3
		c-0.8,0.1-1.5,0.3-2.2,0.6c-0.7,0.2-1.3,0.6-1.9,0.9c-0.8,0.5-1.5,1.2-1.9,2c-0.8,1.1-1.1,2.5-1.1,4.4v11.6c0,0.7,0.1,1.4,0.2,2
		s0.3,1.1,0.5,1.5c0.4,0.9,1,1.7,1.7,2.3c0.7,0.6,1.5,1.1,2.4,1.5c0.9,0.3,1.9,0.6,2.9,0.7c0.7,0.1,1.3,0.2,1.9,0.2
		c0.6,0.1,1.2,0.1,1.7,0.1h9.7v4.2l-0.8,0.4c-0.4,0.2-0.8,0.4-1.3,0.5c-0.5,0.2-1,0.3-1.6,0.4c-0.6,0.1-1.3,0.2-2,0.3
		c-0.7,0.1-1.5,0.1-2.5,0.1l-3.7-0.1c-0.9,0-1.8,0-2.9-0.1c-1.1,0-2.1-0.2-3.2-0.4c-1.2-0.2-2.3-0.5-3.5-0.9
		c-1.1-0.4-2.3-0.9-3.3-1.5c-1.5-0.9-2.7-2.1-3.7-3.4c-0.7-1-1.2-2.1-1.6-3.3c-0.4-1.2-0.6-2.6-0.6-4.1L-206.5,482.3L-206.5,482.3z"
		/>
	<path fill="#FFFFFF" d="M-140.1,558.5c6.9,0,12.6-0.1,19.3,0.4c0.9-6.7,3.4-10,3.4-17.2c-9.8-1.2-20.2-0.3-30.4-0.3
		c-63.4,0.6-115.4,25.2-155.6,61.5c-27.3,28.1-39.3,50.6-43.9,90c-1.2,20.2-0.6,26.5,4.4,45.6c-0.9-12.7-0.6-1-0.6-13.7
		c0-39.2,17-73.6,45.2-101.9C-261,585.5-204.2,560.6-140.1,558.5"/>
</g>
</svg>
