<?xml version="1.0" encoding="utf-8"?>
<!-- Generator: Adobe Illustrator 19.1.0, SVG Export Plug-In . SVG Version: 6.00 Build 0)  -->
<svg version="1.1" id="Layer_1" xmlns="http://www.w3.org/2000/svg" xmlns:xlink="http://www.w3.org/1999/xlink" x="0px" y="0px"
	 viewBox="-22 122.7 566 549.3" enable-background="new -22 122.7 566 549.3" xml:space="preserve">
<path fill="#164397" d="M543.9,512.6c-9.1-19.2-22.6-29.8-40.9-29.8c-1.8,0-3.6,0.1-5.4,0.3c10.9-6.9,15.5-15.8,15.5-25.9
	c0-3.4-0.5-6.8-1.4-10.4c-0.1-0.3-0.3-0.5-0.5-0.5c-0.3-0.1-0.5,0-0.7,0.2c-21.9,20.7-43.9,41.4-65.8,62.1c-2.2,2.5-3.6,4.7-3.6,6.9
	c0,1.4,0.7,2.6,1.9,3.5l0,0c0,0,0.1,0,0.1,0.1c0.1,0.1,0.2,0.1,0.3,0.2c0.1,0.1,0.2,0.1,0.3,0.2c6.5,4.2,13,8.4,19.5,12.6
	c-3.8,0.5-8.1,0.9-12.8,1.2c-9.5,0.6-19,1.7-28.4,2.5c-3.4,0.3-5.6,0.9-7.5,2.1c-2.3,1.5-3.6,3.5-3.6,5.6c0,1.4,0.6,2.7,1.7,3.8
	c0,0,0,0,0.1,0.1c0,0,0,0,0.1,0c0.4,0.4,0.8,0.7,1.3,1c9,6.9,18.3,13.8,27.4,20.6c-7.6,5-19.8,9.8-36.9,13.8
	c-12.1,2.8-26.5,5.3-43.3,7.3c94.7-95.4,92.1-178.4,98.5-357.3c-64.4-20.6-105.8-52-120.3-110c-25.1,0-131.4,0-156.5,0
	c-14.4,58.1-55.9,89.4-120.3,110c6.5,178.9,3.9,261.9,98.5,357.3c-16.8-2-31.3-4.4-43.3-7.3c-17-4-29.3-8.8-36.9-13.8
	c9.1-6.9,18.4-13.7,27.4-20.6c0.5-0.3,0.9-0.6,1.3-1c0,0,0,0,0.1,0c0,0,0,0,0.1-0.1c1.1-1.1,1.6-2.4,1.7-3.8c0-2.1-1.3-4.1-3.6-5.6
	c-1.9-1.2-4.1-1.8-7.5-2.1c-9.5-0.8-18.9-1.9-28.4-2.5c-4.7-0.3-9-0.7-12.8-1.2c6.5-4.2,12.9-8.4,19.4-12.6c0.1-0.1,0.2-0.1,0.3-0.2
	c0.1-0.1,0.2-0.1,0.3-0.2c0,0,0,0,0.1,0l0,0c1.2-0.9,1.9-2.2,1.9-3.5c0-2.2-1.4-4.4-3.6-6.8c-22-20.8-43.9-41.5-65.9-62.2
	c-0.2-0.2-0.5-0.3-0.7-0.2c-0.3,0.1-0.5,0.3-0.5,0.5c-0.9,3.6-1.4,7.1-1.4,10.4c0,10.1,4.5,19,15.5,25.9c-1.8-0.2-3.7-0.3-5.4-0.3
	c-18.3,0-31.8,10.6-40.9,29.8c-0.1,0.3-0.1,0.6,0.1,0.8c0.2,0.2,0.5,0.3,0.8,0.2c8.8-3.6,15.8-5.4,21.1-5.4
	c8.5,0.1,12.5,4.3,13.2,13.7c0,0.7,0.1,1.5,0.1,2.3c0,4.2-0.5,10-1.7,15.2C7,543,2,546.4-2.9,550c-1.6,1-2.7,2.3-2.7,4
	c0.1,2.9,3.2,5.7,10.6,8.5c10.1,3.8,23.2,5.3,37,5.3c0.9,0,1.8,0,2.8,0c0,0,0,0,0,0.1c-1.2,3.5-1.7,7-1.7,10.4
	c0.1,22.9,25.9,40.4,65.9,52.4c32.4,9.7,74.4,15.7,119.9,17.7c10.2,7.8,21,15.7,32.5,23.9c11.5-8.2,22.3-16.1,32.5-23.9
	c45.6-1.9,87.5-8,119.9-17.7c40-12,65.8-29.5,65.9-52.4c0-3.4-0.6-6.8-1.7-10.4c0,0,0,0,0-0.1c0.9,0,1.9,0,2.8,0
	c13.9,0,26.9-1.5,37-5.3c7.4-2.8,10.5-5.5,10.6-8.5c0-1.7-1.2-3-2.7-4c-5-3.6-10-7-15-10.5c-1.1-5.1-1.7-10.9-1.7-15.2
	c0-0.8,0-1.6,0.1-2.3c0.7-9.4,4.7-13.6,13.2-13.7c5.3,0,12.3,1.8,21.1,5.4c0.3,0.1,0.6,0,0.8-0.2C544,513.2,544.1,512.9,543.9,512.6
	z"/>
<path fill="#FFDD00" d="M88.1,253.7c56.1-17.9,98.1-56.8,110.7-107.3c21.9,0,102.5,0,124.4,0c12.6,50.6,54.6,89.4,110.7,107.3
	c-6.3,173.4-2.8,243.4-117.2,339.9c8.1-0.4,15.9-0.9,23.3-1.6c103.9-95.7,100.8-172.7,107.2-349.2
	c-60.4-19.3-101.7-52.9-115.3-107.3H190.2c-13.5,54.4-54.9,88-115.3,107.3c6.4,176.5,3.4,253.5,107.2,349.2
	c7.4,0.6,15.1,1.1,23.3,1.6C90.9,497.1,94.4,427.1,88.1,253.7z"/>
<path fill="#FFDD00" d="M252.8,648.8c2.7,2,5.5,3.9,8.2,5.9c2.8-2,5.5-3.9,8.2-5.9c-2.7,0-5.5,0-8.2,0
	C258.2,648.9,255.5,648.8,252.8,648.8z"/>
<path fill="#FFFFFF" d="M433.9,253.7c-56.1-17.9-98.1-56.8-110.7-107.3c-21.9,0-102.5,0-124.4,0c-12.6,50.6-54.6,89.4-110.7,107.3
	c6.3,173.4,2.8,243.4,117.2,339.9c16.9,0.9,35.4,1.4,55.6,1.4s38.7-0.5,55.6-1.4C431.1,497.1,427.6,427.1,433.9,253.7z"/>
<path fill="#FFDD00" d="M14.9,521.8c-0.5-9.8-5.5-15.1-14.5-15.1c-0.1,0-0.2,0-0.2,0c-5.2,0-11.8,1.6-19.8,4.8
	c9-17.8,21.6-27.2,38.7-27.2c2.9,0,5.9,0.3,9,0.8c0.4,0.1,0.7-0.1,0.8-0.5c0.1-0.3,0-0.7-0.4-0.9c-13-7-18-15.9-18-26.5
	c0-2.8,0.4-5.7,1-8.8c21.6,20.4,43.2,40.8,64.9,61.3c2,2.3,3.2,4.4,3.1,5.8c0,0.8-0.3,1.5-1.2,2.2c-4.1,0.8-8.1,1.6-11.9,1.6
	c-2.1,0-4.1-0.2-6-0.9c-3.7-1-7.4-1.6-10.8-1.6c-2.5,0-4.9,0.3-7.1,1.2c-1.6,0.6-2.3,1.7-3.3,2.4c0,0,0,0-0.1,0.1
	c-8.5,6-17,11.8-25.6,17.7c0.9-4.8,1.4-10,1.4-13.9C14.9,523.4,14.9,522.6,14.9,521.8z"/>
<path fill="#FFDD00" d="M521.9,506.7c-9.1-0.1-14.2,5.3-14.7,15.1c0,0.7-0.1,1.5-0.1,2.4c0,3.9,0.5,9.1,1.4,13.9
	c-8.6-5.9-17.1-11.7-25.6-17.7c0,0,0,0-0.1-0.1c-1-0.7-1.8-1.8-3.3-2.4c-2.1-0.8-4.5-1.2-7.1-1.2c-3.4,0-7.1,0.6-10.8,1.6
	c-1.9,0.6-4,0.9-6,0.9c-3.8,0-7.8-0.8-11.9-1.6c-0.8-0.7-1.1-1.4-1.2-2.2c0-1.4,1.1-3.5,3.2-5.8c21.6-20.4,43.2-40.8,64.8-61.2
	c0.7,3,1,6,1,8.8c0,10.6-5,19.6-18,26.5c-0.3,0.2-0.5,0.6-0.4,0.9s0.5,0.6,0.8,0.5c3.1-0.5,6.1-0.8,9-0.8c17.1,0,29.7,9.4,38.7,27.2
	C533.7,508.3,527.1,506.7,521.9,506.7z"/>
<path fill="#FFDD00" d="M5.2,561c-7.3-2.7-9.7-5.5-9.6-7.1c0-0.9,0.7-1.9,2-2.7l-0.4-0.6l0.4,0.6c14.2-10.2,28.7-19.8,43-29.9
	c-0.3,0.9-0.5,1.8-0.5,2.6c0,3.8,3.5,6.2,9,7.8c5.5,1.6,13.2,2.5,22.6,3.1c9.5,0.6,18.9,1.7,28.4,2.5c3.3,0.3,5.2,0.9,6.8,1.9
	c2,1.3,2.9,2.9,2.9,4.3c0,1.2-0.6,2.5-2.1,3.4c-1.5,1-3.7,1.7-6.9,1.7c-0.8,0-1.7,0-2.6-0.1c-5.2-0.9-12.2-2.3-17.8-2.3
	c-3,0-5.5,0.4-7.4,1.5l0,0l0,0c-8.6,5.8-17.9,12.6-26.6,18.5c-1.6,0-3.2,0.1-4.8,0.1C27.9,566.2,15,564.7,5.2,561z"/>
<path fill="#FFDD00" d="M516.8,561c-9.8,3.7-22.7,5.2-36.5,5.2c-1.6,0-3.2,0-4.8-0.1c-8.7-5.9-17.9-12.7-26.5-18.5l0,0l0,0l0,0l0,0
	c-1.9-1.2-4.4-1.5-7.4-1.5c-5.6,0-12.5,1.4-17.8,2.3c-0.9,0.1-1.7,0.1-2.6,0.1c-3.1,0-5.4-0.7-6.9-1.7s-2.1-2.2-2.1-3.4
	c0-1.4,0.9-3.1,2.9-4.3c1.7-1.1,3.5-1.6,6.8-1.9c9.5-0.8,18.9-1.9,28.4-2.5c9.3-0.6,17.1-1.5,22.6-3.1c5.4-1.6,8.9-3.9,9-7.8
	c0-0.8-0.2-1.7-0.5-2.6c14.3,10.2,28.8,19.7,43,29.9l0.4-0.6l-0.4,0.6c1.4,0.8,2,1.8,2,2.7C526.5,555.5,524.1,558.3,516.8,561z"/>
<path fill="#FFDD00" d="M413,629.1c-39.8,11.9-94.2,18.3-152,18.3c-57.9,0-112.2-6.4-152-18.3c-39.9-11.9-64.9-29.4-64.8-51
	c0-3.1,0.5-6.3,1.6-9.7c8.2-5.5,17-12,25.3-17.6c-0.8,1.7-1.2,3.4-1.2,5.1c0.2,11,16,20.8,47.5,28.3c31.6,7.4,79.3,12.3,143.7,12.3
	s112.1-4.9,143.7-12.3c31.5-7.5,47.3-17.3,47.5-28.3c0-1.7-0.4-3.4-1.2-5.1c8.3,5.7,17.1,12.1,25.3,17.6c1.1,3.3,1.6,6.5,1.6,9.7
	C477.9,599.7,452.9,617.2,413,629.1z"/>
<path fill="#164397" d="M363.2,597.5c-0.1,0-0.2,1.4-0.3,4.2c-0.1,1.4-0.2,3-0.3,4.5c-0.1,1.6-0.2,3.2-0.4,5
	c-0.3,4.1-0.6,6.7-0.7,7.9c-0.1,1.1-0.3,2.1-0.5,2.8c-0.2,0.8-0.4,1.4-0.7,2c-0.2,0.5-0.5,0.9-0.8,1.2c-0.3,0.4-0.7,0.7-1.1,0.9
	c-0.5,0.3-1.1,0.5-1.7,0.6c-0.7,0.1-1.4,0-2-0.2c-0.7-0.2-1.2-0.6-1.5-1.2c-0.3-0.6-0.6-1.3-0.7-2.2s-0.2-2-0.1-3.3
	c0-0.7,0.2-2,0.3-3.8c0.1-1.8,0.2-3.8,0.4-5.9c0.1-1.9,0.3-3.7,0.5-5.6c0.1-1.9,0.3-3.7,0.4-5.6c-1.7,0.2-3,0.4-4,0.5
	c-0.8,0.1-2.2,0.3-4.1,0.5c-0.1,1.7-0.2,3.5-0.3,5.2c-0.1,1.7-0.2,3.5-0.3,5.2c-0.1,2.1-0.2,3.8-0.3,4.9c-0.1,1.4-0.2,2.8-0.3,4.2
	c-0.2,1.6-0.3,2.8-0.3,3.7c0,0.8-0.1,1.5-0.1,1.9c0,1.3,0,2.4,0.2,3.5c0.2,0.9,0.4,1.7,0.7,2.4c0.3,0.7,0.8,1.3,1.4,1.8
	c0.7,0.6,1.6,1.1,2.5,1.5c0.9,0.4,2,0.7,3.2,0.8c1.3,0.1,2.7,0.1,4-0.1c1.6-0.2,3.1-0.6,4.6-1.2s2.9-1.4,4.1-2.5s2.1-2.2,2.8-3.4
	c0.7-1.2,1.1-2.6,1.4-4.1s0.6-4.1,0.7-7.7c0-0.2,0-0.5,0.1-0.9c0.2-3.1,0.5-6.2,0.8-9.3c0.2-3.1,0.5-6.2,0.7-9.4
	c-1.3,0.2-2.5,0.4-3.8,0.6C366.6,597,365.1,597.2,363.2,597.5z"/>
<path fill="#164397" d="M330.2,629.3c0.1-1.2,0.1-2.4,0.2-3.7c0.1-2.5,0.3-5,0.4-7.5s0.3-5,0.4-7.5c0.1-1.6,0.2-3.2,0.3-4.8
	c0.1-1.6,0.2-3.2,0.3-4.8c-1.7,0.2-2.9,0.3-3.8,0.4c-1.3,0.1-2.8,0.3-4.5,0.4c0,1.5,0,3.2-0.1,5.2c0,1.9-0.1,4.1-0.3,6.4
	c-0.1,2.4-0.2,4.7-0.4,7.1c-0.1,2.4-0.2,4.8-0.4,7.2c-0.1,1.3-0.3,2.8-0.4,4.5c-0.1,1.7-0.2,3.6-0.4,5.7c3-0.3,6.4-0.7,10.4-1.1
	c2.9-0.3,6.1-0.6,9.3-0.9c0.1-2.7,0.3-5.3,0.5-8c-1.6,0.3-4.1,0.6-7.3,0.9C333.7,629,332.4,629.1,330.2,629.3z"/>
<path fill="#164397" d="M308.4,611.9c1.4-1,2.8-1.6,4.5-1.7c0.8-0.1,1.6,0,2.5,0.1c0.9,0.1,2.1,0.4,3.5,0.7c-0.1-1-0.1-2-0.1-3
	c-0.1-1.2-0.1-2.2-0.1-3.2c0-0.7,0-1.5,0-2.2c-2.7-0.5-5-0.6-6.8-0.5c-2,0.1-4,0.7-5.9,1.5c-1.9,0.9-3.6,2.2-5.2,4
	c-1.5,1.8-2.8,3.9-3.6,6.5c-0.9,2.6-1.2,5.4-1.3,8.6c0,2.7,0.2,5.1,0.8,7.3c0.6,2.1,1.6,4,3,5.6s3,2.7,4.7,3.2
	c1.8,0.6,3.6,0.8,5.6,0.7c2.1-0.2,4.4-0.6,7-1.3c0.1-1,0.2-2.5,0.5-4.3c0.2-1.9,0.5-3.3,0.6-4.4c-1.5,0.7-2.8,1.2-3.9,1.4
	c-1,0.3-2,0.4-2.9,0.5c-1.6,0.1-2.9-0.2-4-0.9c-1.1-0.7-2-1.7-2.6-3.1c-0.7-1.4-0.9-3.1-0.9-5.1c0-2.2,0.4-4.2,1.2-6.1
	C306,614.4,307,613,308.4,611.9z"/>
<path fill="#164397" d="M396.3,594.5c-0.4-0.5-0.9-0.9-1.6-1.2c-0.6-0.3-1.4-0.4-2.3-0.4c-0.7,0-1.8,0.1-3.4,0.4
	c-1.3,0.2-2.9,0.5-4.7,0.9c-1.8,0.4-3.4,0.7-4.8,0.9c-1,0.1-2.3,0.3-4,0.5c0,1.4-0.1,2.5-0.1,3.2c0,1.1,0,2.5-0.1,4.4
	c-0.1,1.8-0.2,4.1-0.4,6.7c-0.2,2.6-0.3,5-0.5,7c-0.1,2.1-0.2,3.8-0.4,5.3c-0.2,2.2-0.4,5.2-0.7,9.1c1.2-0.2,2.4-0.4,3.6-0.6
	c1.6-0.3,3.3-0.5,4.9-0.8c1.9-0.3,3.7-0.7,5.4-1.1c1.7-0.4,2.9-0.7,3.6-1c0.8-0.3,1.6-0.8,2.3-1.5c0.7-0.6,1.4-1.3,1.9-2.2
	c0.6-0.9,1-2,1.4-3.2s0.5-2.5,0.6-3.8c0-1,0.1-1.8-0.1-2.7c-0.2-0.8-0.4-1.5-0.7-2.2c-0.3-0.6-0.7-1.1-1.1-1.5
	c-0.5-0.4-0.8-0.6-1.2-0.7c-0.4-0.1-0.9-0.2-1.6-0.2c0.7-0.4,1.2-0.8,1.6-1.1c0.4-0.3,0.9-0.8,1.3-1.3s0.8-1.2,1.2-1.9
	c0.4-0.8,0.7-1.6,0.9-2.5c0.2-0.9,0.3-1.9,0.4-2.8c0.1-1.3,0-2.4-0.3-3.5C397.2,595.9,396.8,595.1,396.3,594.5z M389.2,619.3
	c-0.2,0.6-0.4,1-0.7,1.4c-0.3,0.4-0.7,0.7-1.3,1c-0.5,0.2-1.1,0.5-2.1,0.6c-1.2,0.2-2.4,0.4-3.5,0.6c0.2-2.5,0.3-5,0.5-7.5
	c1.3-0.2,2.6-0.5,3.9-0.7c0.8-0.2,1.5-0.2,1.9-0.2c0.4,0.1,0.7,0.2,1,0.4c0.3,0.2,0.5,0.6,0.6,1c0.1,0.4,0.2,0.9,0.1,1.5
	C389.5,618.1,389.4,618.7,389.2,619.3z M389.7,604.7c-0.1,0.5-0.3,0.9-0.6,1.3c-0.3,0.4-0.6,0.7-0.9,0.9c-0.4,0.2-0.7,0.4-1.1,0.5
	c-0.4,0.1-1,0.3-1.9,0.4c-0.9,0.2-1.8,0.3-2.7,0.5c0.2-2.3,0.3-4.7,0.5-7c1.1-0.2,2.2-0.4,3.4-0.6c1-0.2,1.7-0.2,2.2,0
	c0.5,0.2,0.9,0.5,1,0.9c0.2,0.5,0.3,1,0.2,1.7C389.9,603.8,389.9,604.2,389.7,604.7z"/>
<path fill="#164397" d="M273.1,632.5c0-1.2,0-2.4,0-3.6c0-2.4,0.2-4.9,0.2-7.4c0-2.4,0.2-4.9,0.3-7.4c0-1.6,0.1-3.1,0.2-4.7
	c0-1.6,0.1-3.1,0.3-4.7c-1.7,0.1-2.9,0.1-3.8,0.1c-1.3,0-2.8,0-4.5,0c0,1.5,0,3.2-0.1,5.1c0,1.9,0,4-0.1,6.3c0,2.3-0.1,4.7-0.2,7
	c-0.1,2.3-0.2,4.7-0.3,7c-0.1,1.3-0.2,2.8-0.3,4.4c-0.1,1.7-0.2,3.5-0.4,5.5c3-0.1,6.4-0.1,10.4-0.2c2.9,0,6,0,9.3-0.1
	c0.1-2.6,0.3-5.3,0.4-7.9c-1.6,0.2-4.1,0.3-7.4,0.4C276.6,632.5,275.2,632.5,273.1,632.5z"/>
<path fill="#164397" d="M414,589c-4.2,0.8-7.8,1.5-10.8,2.1c0,0.8,0,1.5,0,2.3c0,0.8-0.1,2-0.2,3.7c-0.1,1.6-0.2,3.7-0.4,6.2
	c-0.2,2.5-0.4,4.7-0.6,6.7s-0.3,3.8-0.5,5.2c-0.2,1.5-0.3,3.2-0.5,5.1s-0.4,3.9-0.6,6.2c0.9-0.2,1.8-0.4,2.7-0.6
	c2.7-0.6,5.4-1.3,8.2-1.9c3.6-0.8,7-1.6,10.1-2.2c0.1-2.7,0.4-5.3,0.6-7.8c-1.3,0.4-2.3,0.7-2.9,0.8c-1.3,0.3-2.6,0.7-3.9,1
	c-2,0.5-3.4,0.8-4,1c-0.7,0.2-1.4,0.3-2.1,0.5c0.2-2.1,0.4-4.2,0.6-6.3c2.1-0.6,4.1-1.1,5.8-1.4c1.2-0.3,2.9-0.6,5-1
	c0.3-3,0.6-5.6,0.8-7.8c-3.1,0.8-5,1.2-5.7,1.4c-2,0.4-3.7,0.7-5.2,1c0.2-2,0.4-3.9,0.5-5.9c1.3-0.3,2.4-0.6,3-0.7
	c0.6-0.1,1.9-0.4,3.7-0.8c1.6-0.3,3.7-0.7,6.1-1c0-0.6,0.1-1.2,0.1-1.8c0.1-0.9,0.1-1.9,0.2-2.8c0.1-1.3,0.2-2,0.2-2.2
	c0-0.3,0-0.6,0.1-0.8C421.4,587.5,417.9,588.2,414,589z"/>
<path fill="#164397" d="M227.1,624.5c-0.3-0.7-0.7-1.3-1.2-1.7c-0.5-0.5-0.9-0.8-1.3-1c-0.4-0.2-0.9-0.4-1.6-0.6
	c0.7-0.2,1.1-0.5,1.5-0.7c0.4-0.2,0.8-0.6,1.2-1c0.4-0.4,0.7-1,1-1.7c0.3-0.7,0.6-1.4,0.7-2.3c0.1-0.9,0.2-1.8,0.2-2.8
	c0-1.2-0.2-2.4-0.5-3.5c-0.3-1-0.7-1.8-1.2-2.5c-0.4-0.6-1-1.1-1.6-1.5c-0.6-0.4-1.4-0.7-2.3-0.9c-0.7-0.1-1.7-0.3-3.3-0.3
	c-1.3,0-2.9-0.1-4.7-0.1c-1.8-0.1-3.4-0.1-4.7-0.2c-1-0.1-2.3-0.2-3.9-0.4c0,1.3,0,2.4,0.1,3.1c0,1,0,2.4,0,4.2c0,1.8,0,3.9,0,6.4
	s0,4.7,0,6.7s0.1,3.7,0,5.1c-0.1,2.1-0.1,5-0.4,8.7c1.2,0.1,2.3,0.2,3.6,0.3c1.6,0.1,3.2,0.3,4.9,0.4c1.9,0.2,3.7,0.3,5.4,0.3
	c1.7,0.1,2.9,0.1,3.5,0c0.8-0.1,1.6-0.4,2.3-0.9s1.3-1,1.8-1.7c0.5-0.8,1-1.7,1.3-2.9c0.3-1.1,0.4-2.3,0.4-3.6
	c0-0.9-0.1-1.8-0.3-2.7C227.8,625.9,227.4,625.2,227.1,624.5z M213,610.5c1.1,0.1,2.3,0.2,3.4,0.2c1,0.1,1.7,0.2,2.2,0.5
	s0.9,0.6,1.1,1.1c0.2,0.5,0.3,1.1,0.3,1.7c0,0.4,0,0.9-0.1,1.3c-0.1,0.4-0.3,0.8-0.5,1.2c-0.3,0.3-0.6,0.6-0.9,0.7
	c-0.3,0.1-0.7,0.2-1,0.3c-0.4,0-1,0-1.9,0c-0.9-0.1-1.8-0.1-2.7-0.2C212.9,615,212.9,612.7,213,610.5z M220.4,629.6
	c-0.2,0.5-0.4,0.9-0.6,1.2c-0.3,0.3-0.7,0.5-1.2,0.6s-1.1,0.1-2.1,0.1c-1.2-0.1-2.4-0.2-3.5-0.3c0-2.4,0-4.8,0-7.2
	c1.3,0.1,2.6,0.2,3.9,0.3c0.8,0.1,1.5,0.1,1.9,0.3c0.4,0.2,0.7,0.4,1,0.7c0.3,0.3,0.5,0.7,0.6,1.1s0.2,0.9,0.3,1.5
	C220.6,628.5,220.6,629.1,220.4,629.6z"/>
<path fill="#164397" d="M151.3,605.8c0-2.9,0-5.8,0.2-8.6c-1.3-0.2-2.5-0.4-3.8-0.7c-1.1-0.2-2.6-0.5-4.5-0.8
	c-0.1,0-0.1,1.3-0.1,3.9c0,1.3,0,2.7,0.1,4.2c0,1.5,0,3,0,4.6c0,3.8,0,6.2,0,7.2s-0.2,1.9-0.3,2.5c-0.1,0.7-0.4,1.2-0.6,1.6
	c-0.2,0.4-0.4,0.7-0.7,0.9c-0.3,0.3-0.7,0.4-1.1,0.5c-0.5,0.1-1,0.1-1.6,0c-0.7-0.1-1.4-0.4-2.1-0.8c-0.7-0.4-1.2-1-1.6-1.6
	c-0.4-0.7-0.7-1.4-0.9-2.3c-0.2-0.9-0.4-1.9-0.4-3.2c0-0.6,0-1.8-0.1-3.5c-0.1-1.7-0.1-3.5-0.1-5.5c0-1.7,0-3.4,0-5.2
	c0-1.7,0-3.4,0.1-5.1c-1.7-0.3-3-0.6-4-0.8c-0.8-0.2-2.2-0.5-4.2-0.9c-0.1,1.6-0.1,3.2,0,4.8c0,1.6,0,3.2,0.1,4.8
	c0.1,2,0.1,3.5,0.1,4.5c0,1.3,0,2.6,0,3.9c0,1.5,0,2.6,0,3.4c0,0.8,0.1,1.4,0.1,1.8c0.1,1.2,0.2,2.3,0.5,3.3
	c0.2,0.9,0.6,1.8,0.9,2.5c0.4,0.7,0.9,1.5,1.6,2.2c0.7,0.8,1.6,1.6,2.6,2.3c0.9,0.7,2,1.3,3.3,1.8s2.7,0.9,4,1.2
	c1.6,0.3,3.1,0.4,4.6,0.4c1.5-0.1,2.8-0.4,4-1c1.1-0.6,2-1.4,2.6-2.3s1-2.1,1.2-3.4c0.2-1.4,0.2-3.7,0.1-7.1c0-0.2,0-0.5,0-0.8
	C151.3,611.5,151.3,608.6,151.3,605.8z"/>
<path fill="#164397" d="M177.6,600.8c-0.8-0.1-1.6-0.1-2.4-0.2c-1.5-0.2-3-0.4-4.5-0.6c-1.6-0.2-3.1-0.4-4.7-0.6
	c-4.7-0.6-8.9-1.2-12.4-1.8c0,1.7,0,3.3,0,4.8c0,0.9,0,1.8,0,2.7c2.6,0.4,5.3,0.7,8,0.9c0.1,4.8,0.2,9.4,0.2,13.8s0,8.5-0.2,12.5
	c2.3,0.3,3.7,0.5,4.3,0.6c0.6,0.1,1.9,0.3,3.9,0.6c0-2.1,0-4.7,0-8.1c0-1.7-0.1-3.3-0.2-5.1c-0.1-1.7,0-3.4,0-5.2c0-2.4,0-5.1,0-8
	c0.4,0.1,0.8,0.1,1.3,0.2c1.8,0.2,4,0.6,6.6,1.1c0-0.4,0-1.1,0-1.9c0-0.9,0-1.9,0-3.2C177.6,602.4,177.6,601.6,177.6,600.8z"/>
<path fill="#164397" d="M180.3,601c0,0.7,0,1.5,0,2.2c0,0.8,0,2,0,3.5c0,1.6,0.1,3.6,0.1,5.9c0,2.4,0,4.5,0,6.4s0,3.6,0,5
	s-0.1,3-0.1,4.8s-0.1,3.7-0.3,5.8c0.9,0.1,1.8,0.2,2.6,0.3c2.7,0.3,5.4,0.6,8.2,0.9c3.6,0.4,6.9,0.8,9.9,1.2c0-2.6,0.1-5.2,0.2-7.6
	c-1.4,0-2.2-0.1-2.8-0.1c-1.3-0.1-2.6-0.2-3.8-0.3c-2-0.2-3.3-0.3-3.9-0.3c-0.7-0.1-1.4-0.2-2.1-0.2c0-2,0-4,0-6
	c2.1,0.1,4,0.3,5.7,0.4c1.2,0.1,2.8,0.3,4.9,0.6c0-2.9,0-5.5,0.1-7.6c-3-0.1-4.8-0.3-5.5-0.3c-2-0.2-3.7-0.4-5.1-0.6
	c0-1.9,0-3.8,0-5.7c1.3,0.1,2.3,0.1,2.9,0.2c0.7,0.1,1.9,0.2,3.7,0.4c1.6,0.2,3.6,0.4,6,0.7c0-0.6,0-1.2,0-1.8c0-0.9,0-1.8,0-2.7
	c0-1.3,0.1-2,0.1-2.2c0-0.3,0-0.6,0-0.8c-2.9-0.2-6.3-0.4-10.2-0.8C186.8,601.8,183.2,601.4,180.3,601z"/>
<path fill="#164397" d="M257.4,609c-1.4-1.6-3-2.8-4.9-3.6c-1.9-0.8-3.7-1.2-5.7-1.2c-3.1,0-6,0.7-8.5,2.3c-2.4,1.5-4.3,3.7-5.5,6.4
	c-0.6,1.4-1.1,2.9-1.3,4.5s-0.4,3.4-0.4,5.2c0,2.5,0.4,4.8,1.1,7c0.6,2.1,1.7,4,3.1,5.8s3.1,3.1,5,3.9c1.9,0.8,3.9,1.3,6,1.3
	s4.1-0.3,6-1c1.9-0.8,3.6-1.9,5-3.6c1.4-1.7,2.5-3.7,3.2-6.1c0.7-2.4,1.1-5.1,1.1-8c0-2.8-0.4-5.2-1.1-7.3
	C259.9,612.5,258.8,610.7,257.4,609z M252.8,627.5c-0.6,1.7-1.4,3-2.6,4c-1.1,0.9-2.4,1.4-3.7,1.4c-1.3,0-2.5-0.5-3.7-1.3
	c-1.2-0.9-2-2.1-2.6-3.6s-0.9-3.2-0.9-5c0-2,0.2-3.8,0.8-5.5c0.6-1.7,1.5-3,2.6-4c1.1-0.9,2.4-1.4,3.8-1.4s2.6,0.5,3.6,1.3
	c1.1,0.9,1.9,2.1,2.5,3.6c0.6,1.6,0.9,3.3,0.9,5.1C253.6,624,253.4,625.8,252.8,627.5z"/>
<path fill="#164397" d="M112.5,589.3c-3.3-0.8-6.8-1.8-10.6-2.8c0,0.9,0,1.8,0,2.7c0,0.9,0.1,2.2,0.2,4c0.1,1.8,0.2,4,0.3,6.6
	c0.1,2.6,0.2,5,0.3,7c0.1,2.1,0.2,3.8,0.2,5.3c0,2,0,4.7-0.2,8c2.6,0.6,4.1,0.9,4.4,1c1.4,0.3,2.7,0.7,4,1c0-0.4,0-0.7,0-1.1
	c-0.1-1.1-0.1-2.2-0.1-3.3c0-1.5-0.1-3-0.1-4.4c0-1.5-0.2-2.9-0.3-4.4c2,0.4,3.7,0.8,5.4,1.2c1,0.2,2.5,0.6,4.5,1.2
	c-0.1-1.8-0.2-4.2-0.3-7.3c-1.8-0.3-3.1-0.6-4-0.8c-1-0.3-2.1-0.5-3.1-0.8c-0.9-0.3-1.9-0.5-2.8-0.7c-0.1-1.9-0.1-3.8-0.2-5.7
	c2.1,0.5,3.4,0.8,3.8,0.9c1.2,0.3,2.4,0.6,3.7,0.9c0.4,0.1,0.9,0.2,1.3,0.3c0.5,0.1,0.9,0.2,1.3,0.3c0.5,0.1,1.1,0.3,1.6,0.4
	c-0.1-1.2-0.1-3.6,0-7.3C119,590.9,115.8,590.2,112.5,589.3z"/>
<path fill="#164397" d="M247.6,268.3c-2.3-2.7-5.4-4.4-9-5.5c-3.4-1-7-1.5-10.9-1.5c-3.3,0-6.7,0.2-10.1,0.7
	c-3.5,0.5-7.5,1.3-11.9,2.4c-1.8,0.4-3.1,1.9-3.3,3.7c-0.3,2-0.5,3.5-0.6,4.6c-0.1,0.8-0.4,2.4-0.8,4.8c-0.3,1.6,0.3,3.3,1.6,4.3
	s3,1.3,4.5,0.6c6.6-2.8,12.3-4.1,17.3-4.1c1.2,0,2.2,0.1,3,0.4c0.6,0.2,0.8,0.3,1,0.6c0,0.1,0,0,0.1,0.4c0,0.1,0,0.1,0,0.2v0.1
	c0,0-0.1,0.2-0.3,0.4c-0.2,0.2-0.4,0.4-0.8,0.5c-0.5,0.2-1.3,0.5-2.5,0.9c-1.2,0.3-2.3,0.6-3.4,0.9c-4.7,1.1-8.4,2.1-11.5,3.3
	c-3,1.1-5.4,2.3-7.4,3.8c-1.7,1.3-3.2,2.7-4.4,4.2c-1.2,1.6-2.2,3.4-2.8,5.3c-0.6,1.8-0.9,3.8-0.9,5.7c0,3.3,0.8,6.5,2.3,9.5
	c1.6,3.4,4.4,6.1,7.9,7.6c3.3,1.5,7.2,2.1,11.6,2.1c1.3,0,2.6-0.1,4.1-0.2c1.6-0.1,3.5-0.4,5.8-0.8c1-0.2,1.8-0.7,2.4-1.3
	c0.8,0.7,1.9,1.1,3.1,1.1c2.6-0.1,4.8-0.1,6.7-0.1c2,0,4.1,0,6.5,0.1c1.2,0,2.4-0.4,3.2-1.3c0.9-0.8,1.4-2,1.4-3.2
	c0.1-8.3,0.4-16.4,0.9-24.2c0.5-7.9,0.8-12.7,0.8-15C251.1,275.2,250.1,271.3,247.6,268.3z M228.1,304.1c0,0.5-0.1,1.1-0.1,1.6
	c-0.6,0-1.2,0-1.8,0.2c-1.7,0.6-3.1,1-3.6,1c-1,0.2-1.8,0.2-2.6,0.2c-1.2,0-2.1-0.2-2.7-0.4c-0.3-0.1-0.5-0.2-0.8-0.6
	c-0.2-0.2-0.2-0.4-0.3-1c0-0.4,0.1-0.6,0.1-0.8v-0.1c0-0.1,0.1-0.3,0.5-0.7c0.3-0.3,0.8-0.7,1.5-1.1s1.5-0.8,2.6-1.2
	c1-0.4,2.6-0.9,4.5-1.4c1.2-0.3,2.1-0.6,2.9-0.9L228.1,304.1z"/>
<path fill="#164397" d="M350.1,268.3c-2.3-2.7-5.4-4.4-8.9-5.5c-3.4-1-7-1.5-10.9-1.5c-3.3,0-6.7,0.2-10.1,0.7
	c-3.5,0.5-7.5,1.3-11.9,2.4c-1.8,0.4-3.1,1.9-3.3,3.7c-0.3,2-0.5,3.5-0.6,4.6c-0.1,0.8-0.4,2.4-0.8,4.8c-0.3,1.6,0.3,3.3,1.6,4.3
	c1.3,1,3,1.3,4.5,0.6c6.6-2.8,12.3-4.1,17.3-4.1c1.2,0,2.2,0.1,3,0.4c0.6,0.2,0.8,0.3,1,0.6c0,0.1,0,0,0.1,0.4c0,0.1,0,0.1,0,0.2
	v0.1c0,0-0.1,0.2-0.3,0.4c-0.2,0.2-0.4,0.4-0.7,0.5c-0.5,0.2-1.3,0.5-2.5,0.9c-1.2,0.3-2.3,0.6-3.4,0.9c-4.7,1.1-8.4,2.1-11.5,3.3
	c-3,1.1-5.4,2.3-7.4,3.8c-1.7,1.3-3.2,2.7-4.4,4.2c-1.2,1.6-2.2,3.4-2.8,5.3c-0.4,1.2-0.7,2.5-0.8,3.8c-1.2-0.8-2.7-1-4.1-0.5
	c-2.1,0.8-4,1.4-5.7,1.7c-1.9,0.4-3.3,0.5-4.4,0.5c-2.2,0-4-0.5-5.6-1.3c-1.5-0.9-2.3-1.8-2.9-3.2c-0.7-1.7-1.1-3.9-1.1-6.7
	c0-1.9,0.2-3.7,0.7-5.6c0.4-1.6,1.1-2.9,2.1-4.1c1-1.2,1.9-1.9,3.2-2.4c1.4-0.6,2.8-0.8,4.4-0.8c2.8,0,6.4,0.7,10.8,2.3
	c1.4,0.5,3,0.3,4.2-0.6s1.9-2.4,1.8-3.9l-0.7-11.1c-0.1-1.9-1.5-3.6-3.3-4.1c-3.1-0.8-5.9-1.4-8.3-1.6c-2.3-0.3-4.6-0.4-6.9-0.4
	c-4.1,0-7.9,0.5-11.4,1.5c-3.8,1.1-7.2,3.3-10.1,6.2c-3,3-5.2,6.9-6.7,11.3c-1.4,4.4-2.1,8.9-2.1,13.6c0,3.6,0.4,7.1,1.3,10.4
	c0.9,3.5,2.2,6.6,4.2,9.2c1.8,2.5,4.1,4.7,6.6,6.3s5.2,2.7,8.1,3.3c2.7,0.6,5.4,0.9,8.3,0.9c4.8,0,9.6-0.6,14.4-1.8
	c1.8-0.4,3.1-1.9,3.4-3.8c0.3-2.5,0.7-4.7,1-6.3l0,0c0.3,0.8,0.6,1.5,1,2.2c1.6,3.4,4.4,6.1,7.9,7.6c3.3,1.5,7.2,2.1,11.6,2.1
	c1.3,0,2.6-0.1,4.1-0.2c1.6-0.1,3.5-0.4,5.8-0.8c1-0.2,1.8-0.7,2.4-1.3c0.8,0.7,1.9,1.1,3.1,1.1c2.6-0.1,4.8-0.1,6.7-0.1
	c2,0,4.1,0,6.5,0.1c1.2,0,2.4-0.4,3.2-1.3c0.9-0.8,1.4-2,1.4-3.2c0.1-8.3,0.4-16.4,0.9-24.2c0.5-7.9,0.8-12.7,0.8-15
	C353.6,275.2,352.6,271.3,350.1,268.3z M330.6,304.1c0,0.5-0.1,1.1-0.1,1.6c-0.6,0-1.2,0-1.8,0.2c-1.7,0.6-3.1,1-3.6,1
	c-1,0.2-1.8,0.2-2.6,0.2c-1.2,0-2.1-0.2-2.7-0.4c-0.3-0.1-0.5-0.2-0.8-0.6c-0.2-0.2-0.3-0.4-0.3-1c0-0.4,0.1-0.6,0.1-0.8v-0.1
	c0-0.1,0.2-0.3,0.5-0.7c0.3-0.3,0.8-0.7,1.5-1.1s1.5-0.8,2.6-1.2c1-0.4,2.6-0.9,4.5-1.4c1.2-0.3,2.1-0.6,2.9-0.9L330.6,304.1z"/>
<path fill="#164397" d="M194.6,281.7c0.2-11.7,0.5-22.4,1-32.1c0.1-1.2-0.4-2.4-1.3-3.3c-0.9-0.9-2.1-1.4-3.3-1.4
	c-4.3,0.1-7.4,0.1-9.3,0.1c-2.9,0-6.2,0-10-0.1c-2,0-3.8,1.3-4.4,3.2c-0.8,2.7-1.3,4.6-1.7,5.6c-0.3,1-0.6,1.8-0.9,2.5l-9.3,24.1
	l-0.1,0.2l-1.4,4.2c-1.3-5.3-2.8-10.7-4.5-16.1c-1.2-3.6-2.1-6.6-2.8-9.1s-1.2-4.3-1.4-5.3s-0.6-2.9-1.1-5.6
	c-0.4-2.2-2.3-3.7-4.5-3.7c-4.4,0.1-7.5,0.1-9.1,0.1c-2,0-5.3,0-9.8-0.1c-2.4,0-4.4,1.8-4.6,4.2l-1.1,17.5l-3.1,40l-1.2,11.4
	c-0.1,1.3,0.3,2.6,1.2,3.5c0.9,1,2.1,1.5,3.4,1.5c3-0.1,5.1-0.1,6-0.1l6.1,0.1c1.2,0,2.3-0.4,3.2-1.3c0.9-0.8,1.3-2,1.4-3.2
	c0-3,0.1-5.3,0.1-6.7l0,0l1.3-21.7l7.7,29.5c0.5,2,2.4,3.4,4.4,3.4c3-0.1,5.2-0.1,6.6-0.1c1.1,0,3.2,0,6.2,0.1c2,0,3.7-1.2,4.4-3
	l2-6l8.4-23.5l-0.5,19.5c-0.1,2.2-0.2,5-0.4,8.4c-0.1,1.2,0.4,2.5,1.3,3.4c0.8,0.9,2,1.4,3.2,1.4h0.1c2.7-0.1,4.9-0.1,6.4-0.1
	c1.1,0,3.2,0,6.3,0.1c1.2,0,2.4-0.4,3.3-1.3c0.9-0.9,1.3-2,1.3-3.3c-0.1-4.2-0.1-7.7-0.1-10.4C194.3,302.2,194.4,293.4,194.6,281.7z
	"/>
<path fill="#164397" d="M409.2,276.7c-1.3-3.3-3.1-6.2-5.6-8.6c-2.5-2.5-5.7-4.3-9.2-5.3c-0.9-0.3-1.8-0.5-2.8-0.7l3.5-5.1
	c1-1.5,2.5-3.7,4.6-6.4c1-1.4,1.2-3.2,0.4-4.8c-0.8-1.5-2.4-2.5-4.1-2.4c-3,0.1-5.3,0.1-7,0.1c-2.1,0-4.4,0-7-0.1
	c-1.9-0.1-3.6,1.1-4.3,2.9c-0.5,1.3-1,2.6-1.5,4c-0.5,1.5-0.9,2.6-1.3,3.6l-1.7,4.7c-0.5,1.4-0.3,3,0.5,4.2
	c-0.4,0.1-0.8,0.2-1.1,0.3c-3.8,1.3-7.3,3.4-10.2,6.4c-3,3-5.2,6.8-6.7,11.2s-2.3,8.9-2.3,13.5c0,4.2,0.7,8.3,2,12.2
	c1.4,4,3.6,7.6,6.6,10.4s6.6,4.9,10.5,5.9c3.7,1,7.8,1.5,12.3,1.5c2.6,0,5.1-0.1,7.6-0.4c2.6-0.3,5.6-0.9,9.1-1.7
	c1.8-0.4,3.2-1.9,3.4-3.7c0.8-5.1,1.3-8.7,1.7-10.5c0.3-1.6-0.2-3.2-1.4-4.3c-1.2-1.1-2.9-1.4-4.4-0.9c-3.4,1.2-6.2,2-8.5,2.4
	c-2.3,0.5-4.4,0.7-6.2,0.7c-1.4,0-2.8-0.2-4.3-0.7c-1.3-0.4-2.3-1-3.2-1.9c-0.9-0.9-1.6-1.9-2.1-3.1c-0.4-1-0.6-2-0.7-3.1h30.3
	c2.2,0,4-1.6,4.4-3.7c0.3-1.9,0.5-3.8,0.5-5.7C411.1,283.7,410.5,280,409.2,276.7z M377.9,282.1L377.9,282.1
	c0.4-0.6,0.9-1.2,1.6-1.7s1.4-0.9,2.1-1.2c0.8-0.3,1.6-0.4,2.4-0.4s1.5,0.1,2.1,0.3c0.5,0.1,1,0.4,1.3,0.6s0.6,0.5,0.9,0.8
	c0.3,0.4,0.5,0.8,0.7,1.4c0,0.1,0.1,0.2,0.1,0.3L377.9,282.1z"/>
<path fill="#FFFFFF" d="M238.3,263.9c-3.3-1-6.8-1.4-10.5-1.4c-3.2,0-6.6,0.2-10,0.7c-3.5,0.5-7.4,1.2-11.8,2.4
	c-1.3,0.3-2.3,1.4-2.5,2.8c-0.3,2-0.5,3.5-0.6,4.6c-0.1,0.8-0.4,2.5-0.8,4.9c-0.2,1.2,0.2,2.5,1.2,3.2c1,0.8,2.3,1,3.4,0.5
	c6.7-2.8,12.6-4.1,17.8-4.1c1.3,0,2.4,0.1,3.3,0.4c0.8,0.2,1.2,0.5,1.5,0.9c0.2,0.3,0.3,0.5,0.4,1.1c0,0.2,0,0.4-0.1,0.6
	s-0.3,0.5-0.6,0.8c-0.3,0.3-0.6,0.5-1.1,0.8c-0.5,0.2-1.4,0.6-2.6,0.9c-1.2,0.4-2.4,0.7-3.5,0.9c-4.6,1.1-8.4,2.1-11.3,3.2
	c-2.9,1.1-5.3,2.3-7.1,3.6c-1.7,1.3-3.1,2.6-4.2,4c-1.2,1.5-2.1,3.2-2.6,4.9c-0.6,1.7-0.9,3.5-0.9,5.4c0,3.1,0.8,6.1,2.2,9
	c1.5,3.2,4.1,5.6,7.3,7.1c3.2,1.4,6.9,2,11.2,2c1.3,0,2.6-0.1,4-0.2c1.5-0.1,3.4-0.4,5.7-0.8c1.2-0.2,2.2-1.1,2.6-2.2
	c0.1,0.3,0.3,0.6,0.6,0.9c0.7,0.7,1.6,1.1,2.6,1.1c2.6-0.1,4.8-0.1,6.7-0.1c2,0,4.2,0,6.5,0.1c0.9,0,1.8-0.3,2.4-0.9
	c0.6-0.6,1-1.5,1-2.4c0.1-8.3,0.4-16.4,0.9-24.2c0.5-7.9,0.8-12.8,0.8-14.9c0-4-0.9-7.6-3.3-10.3
	C244.6,266.6,241.7,264.9,238.3,263.9z M229.2,304.2c0,1-0.1,2-0.2,2.9c-0.8-0.3-1.7-0.4-2.5-0.1c-1.8,0.6-3.2,1-3.9,1.1
	c-1,0.2-1.9,0.2-2.7,0.2c-1.3,0-2.3-0.2-3-0.4c-0.5-0.2-0.9-0.5-1.3-1c-0.3-0.4-0.5-0.8-0.5-1.6c0-0.5,0.1-0.9,0.2-1.2
	c0.1-0.3,0.3-0.7,0.7-1.1c0.4-0.4,1-0.9,1.7-1.3c0.8-0.4,1.7-0.9,2.7-1.3c1.1-0.4,2.6-0.9,4.6-1.5s3.5-1.1,4.3-1.4h0.1L229.2,304.2z
	"/>
<path fill="#FFFFFF" d="M408.1,277.1c-1.2-3.2-3-5.9-5.3-8.2c-2.4-2.4-5.4-4.1-8.8-5.1c-1.5-0.4-3-0.8-4.6-1
	c0.3-0.2,0.6-0.5,0.8-0.8l3.9-5.7c1-1.5,2.6-3.7,4.7-6.5c0.8-1,0.9-2.4,0.3-3.6c-0.6-1.1-1.8-1.9-3.1-1.8c-3,0.1-5.3,0.1-7,0.1
	c-2.1,0-4.5,0-7-0.1c-1.4,0-2.7,0.8-3.2,2.2c-0.5,1.3-1,2.6-1.5,4c-0.5,1.5-0.9,2.7-1.3,3.7l-1.7,4.6c-0.4,1.1-0.2,2.2,0.4,3.2
	c0.4,0.5,0.9,0.9,1.5,1.2c-1.1,0.2-2.2,0.5-3.2,0.9c-3.6,1.2-6.9,3.3-9.7,6.1c-2.8,2.9-5,6.5-6.5,10.8c-1.5,4.2-2.2,8.6-2.2,13.2
	c0,4.1,0.6,8.1,1.9,11.8c1.3,3.9,3.5,7.2,6.3,10c2.9,2.7,6.3,4.6,10.1,5.7c3.6,1,7.6,1.4,12,1.4c2.5,0,5-0.1,7.4-0.4
	c2.5-0.3,5.5-0.8,9-1.6c1.4-0.3,2.4-1.4,2.6-2.8c0.8-5.1,1.3-8.7,1.7-10.5c0.2-1.2-0.2-2.4-1.1-3.2c-0.9-0.8-2.2-1-3.3-0.7
	c-3.4,1.2-6.3,2-8.6,2.5c-2.4,0.5-4.5,0.7-6.4,0.7c-1.5,0-3-0.2-4.7-0.8c-1.5-0.5-2.6-1.2-3.7-2.1c-1-1-1.8-2.1-2.3-3.6
	c-0.5-1.4-0.8-2.9-0.9-4.7h31.5c1.6,0,3-1.2,3.3-2.8c0.3-1.9,0.5-3.7,0.5-5.5C410,283.8,409.4,280.3,408.1,277.1z M377,281.5
	c0.5-0.7,1-1.4,1.8-2c0.8-0.6,1.6-1.1,2.4-1.4c0.9-0.3,1.8-0.5,2.8-0.5c0.9,0,1.7,0.1,2.3,0.3c0.7,0.2,1.2,0.4,1.6,0.7
	c0.4,0.3,0.8,0.6,1.1,1.1c0.3,0.5,0.6,1,0.9,1.7c0.2,0.7,0.4,1.3,0.4,1.8H376C376.3,282.7,376.6,282.1,377,281.5z"/>
<path fill="#FFFFFF" d="M293.4,303.6c-2.1,0.8-4.1,1.4-5.9,1.7c-1.9,0.4-3.5,0.5-4.6,0.5c-2.4,0-4.4-0.5-6.1-1.5s-2.7-2.1-3.3-3.8
	c-0.7-1.9-1.2-4.2-1.2-7.1c0-2,0.3-3.9,0.8-5.9c0.5-1.8,1.2-3.2,2.3-4.5c1.1-1.3,2.2-2.1,3.6-2.7c1.5-0.6,3.1-0.9,4.8-0.9
	c3,0,6.7,0.7,11.2,2.4c1.1,0.4,2.3,0.2,3.2-0.5c0.9-0.7,1.4-1.8,1.3-2.9l-0.7-11.1c-0.1-1.5-1.1-2.7-2.5-3c-3.1-0.8-5.8-1.3-8.2-1.6
	c-2.3-0.3-4.6-0.4-6.7-0.4c-4,0-7.7,0.5-11,1.5c-3.6,1-6.9,3.1-9.7,5.9c-2.9,2.9-5,6.6-6.4,10.9c-1.4,4.2-2.1,8.7-2.1,13.3
	c0,3.5,0.4,6.9,1.3,10.2c0.9,3.3,2.2,6.3,4,8.9c1.8,2.4,3.9,4.5,6.3,6s5,2.6,7.7,3.2c2.6,0.6,5.3,0.8,8.1,0.8
	c4.7,0,9.4-0.6,14.2-1.8c1.3-0.3,2.3-1.5,2.5-2.8c0.3-2.6,0.7-4.7,1-6.4c0.3-1.8,0.6-3.5,0.7-4.9c0.1-1.2-0.3-2.3-1.3-3.1
	C295.7,303.4,294.5,303.2,293.4,303.6z"/>
<path fill="#FFFFFF" d="M191.1,246.1c-4.3,0.1-7.4,0.1-9.3,0.1c-2.9,0-6.2,0-10-0.1c-1.5,0-2.9,1-3.3,2.4c-0.8,2.7-1.4,4.6-1.7,5.7
	c-0.3,0.9-0.6,1.8-0.9,2.6l-9.2,24.1v0.1l-2.7,7.8l-0.8-3.4c-1.3-5.4-2.9-10.8-4.5-16.4c-1.2-3.6-2.1-6.6-2.8-9.2
	c-0.7-2.5-1.2-4.3-1.4-5.3s-0.6-3-1.1-5.7c-0.3-1.6-1.7-2.8-3.4-2.8c-4.4,0.1-7.5,0.1-9.1,0.1c-2.1,0-5.3,0-9.9-0.1
	c-1.8,0-3.3,1.4-3.4,3.2l-1.1,17.5l-3.1,40.1l-1.2,11.4c-0.1,1,0.2,1.9,0.9,2.6s1.6,1.1,2.6,1.1c3.1-0.1,5.2-0.1,6.1-0.1l6.1,0.1
	c0.9,0,1.8-0.3,2.4-1c0.6-0.6,1-1.5,1-2.4c0-3,0.1-5.3,0.1-6.8l1.7-28.4c0.7,2.4,1.2,4,1.4,4.8l8.2,31.2c0.4,1.5,1.8,2.5,3.3,2.5
	c3-0.1,5.2-0.1,6.6-0.1c1.1,0,3.2,0,6.2,0.1c1.5,0,2.8-0.9,3.3-2.3l2-6l10.7-30.2l-0.7,26.6c-0.1,2.2-0.2,5-0.4,8.4
	c-0.1,0.9,0.3,1.9,0.9,2.5c0.6,0.7,1.5,1,2.4,1h0.1c2.7-0.1,4.9-0.1,6.5-0.1c1.1,0,3.2,0,6.3,0.1c0.9,0,1.8-0.3,2.4-1
	c0.6-0.6,1-1.5,1-2.4c-0.1-4.2-0.1-7.7-0.1-10.5c0-5.8,0.1-14.5,0.3-26.3c0.2-11.7,0.6-22.4,1-32.1c0-0.9-0.3-1.8-0.9-2.5
	C192.9,246.4,192,246,191.1,246.1z"/>
<path fill="#FFFFFF" d="M340.8,263.9c-3.3-1-6.8-1.4-10.5-1.4c-3.2,0-6.6,0.2-10,0.7c-3.5,0.5-7.4,1.2-11.8,2.4
	c-1.3,0.3-2.3,1.4-2.5,2.8c-0.3,2-0.5,3.5-0.6,4.6c-0.1,0.8-0.4,2.5-0.8,4.9c-0.2,1.2,0.2,2.5,1.2,3.2c1,0.8,2.3,1,3.4,0.5
	c6.7-2.8,12.6-4.1,17.8-4.1c1.3,0,2.4,0.1,3.3,0.4c0.8,0.2,1.2,0.5,1.5,0.9c0.2,0.3,0.3,0.5,0.4,1.1c0,0.2,0,0.4-0.1,0.6v0.1
	c-0.1,0.2-0.2,0.4-0.5,0.8c-0.3,0.3-0.6,0.5-1.1,0.8c-0.5,0.2-1.4,0.6-2.6,0.9c-1.2,0.4-2.4,0.7-3.5,0.9c-4.6,1.1-8.4,2.1-11.3,3.2
	c-2.9,1.1-5.3,2.3-7.1,3.6c-1.7,1.3-3.1,2.6-4.2,4c-1.2,1.5-2,3.2-2.6,4.9c-0.6,1.7-0.9,3.5-0.9,5.4c0,3.1,0.8,6.1,2.2,9
	c1.5,3.2,4.1,5.6,7.3,7.1c3.2,1.4,6.9,2,11.2,2c1.2,0,2.6-0.1,4-0.2c1.5-0.1,3.4-0.4,5.7-0.8c1.2-0.2,2.2-1.1,2.6-2.2
	c0.1,0.3,0.3,0.6,0.6,0.9c0.7,0.7,1.6,1.1,2.6,1.1c2.6-0.1,4.8-0.1,6.7-0.1c2,0,4.2,0,6.5,0.1c0.9,0,1.8-0.3,2.4-0.9s1-1.5,1-2.4
	c0.1-8.3,0.4-16.4,0.9-24.2c0.5-7.9,0.8-12.8,0.8-14.9c0-4-0.9-7.6-3.3-10.3C347.1,266.6,344.2,264.9,340.8,263.9z M331.7,304.2
	c0,1-0.1,2-0.2,2.9c-0.8-0.3-1.7-0.4-2.5-0.1c-1.8,0.6-3.2,1-3.9,1.1c-1,0.2-1.9,0.2-2.7,0.2c-1.3,0-2.3-0.2-3-0.4
	c-0.5-0.2-0.9-0.5-1.3-1c-0.3-0.4-0.5-0.8-0.5-1.6c0-0.5,0.1-0.9,0.2-1.2s0.3-0.7,0.7-1.1c0.4-0.4,1-0.9,1.7-1.3
	c0.8-0.4,1.7-0.9,2.8-1.3c1.1-0.4,2.6-0.9,4.6-1.5s3.5-1.1,4.3-1.4h0.1L331.7,304.2z"/>
<path fill="#164397" d="M339.9,267.1c-2.9-0.9-6.1-1.3-9.6-1.3c-3.1,0-6.2,0.2-9.5,0.7c-3.3,0.4-7.1,1.2-11.4,2.3
	c-0.3,2-0.5,3.5-0.6,4.5s-0.4,2.7-0.8,5.1c7-2.9,13.3-4.4,19.1-4.4c1.6,0,3,0.2,4.2,0.5c1.3,0.3,2.3,1,3.1,1.9
	c0.8,0.9,1.2,2,1.2,3.3c0,0.7-0.1,1.3-0.4,2c-0.3,0.6-0.7,1.3-1.2,1.8s-1.2,1.1-2,1.5c-0.8,0.4-1.8,0.7-3.1,1.1
	c-1.3,0.4-2.5,0.7-3.7,1c-4.5,1-8.2,2.1-10.9,3.1c-2.8,1-4.9,2.1-6.3,3.2c-1.5,1.1-2.6,2.2-3.6,3.4c-0.9,1.2-1.6,2.5-2.1,3.9
	s-0.7,2.8-0.7,4.3c0,2.5,0.6,5,1.8,7.5c1.2,2.5,3.1,4.3,5.7,5.5c2.6,1.2,5.8,1.7,9.8,1.7c1.1,0,2.4-0.1,3.7-0.2
	c1.3-0.1,3.1-0.3,5.4-0.8c0.9-3.8,1.7-6.7,2.3-8.6c-1.9,0.7-3.4,1.1-4.5,1.3c-1.1,0.2-2.2,0.3-3.2,0.3c-1.6,0-3-0.2-4.1-0.6
	c-1.2-0.4-2.1-1.1-2.9-2.2c-0.8-1-1.2-2.2-1.2-3.7c0-0.9,0.1-1.7,0.5-2.5c0.3-0.8,0.8-1.5,1.4-2.2c0.7-0.7,1.5-1.3,2.4-1.9
	c1-0.6,2.1-1.1,3.3-1.5c1.2-0.4,2.8-1,4.8-1.5c2-0.6,3.4-1,4.2-1.3c0.8-0.3,1.5-0.6,2.1-0.9s1.6-0.9,2.8-1.8l-0.6,12.6
	c-0.3,5.4-0.6,10.1-1,14.2c2.6-0.1,4.9-0.1,6.8-0.1c2,0,4.2,0,6.6,0.1c0.1-8.4,0.4-16.5,0.9-24.4s0.8-12.8,0.8-14.7
	c0-3.5-0.8-6.3-2.5-8.2C345,269.3,342.8,268,339.9,267.1z"/>
<path fill="#164397" d="M406.1,292.4c0.3-1.7,0.5-3.3,0.5-4.9c0-3.4-0.5-6.4-1.6-9.2c-1.1-2.7-2.6-5.1-4.5-7.1c-2-2-4.4-3.4-7.3-4.2
	c-2.9-0.9-6-1.3-9.2-1.3c-3.4,0-6.7,0.5-9.8,1.5c-3.1,1-5.9,2.8-8.4,5.3c-2.4,2.5-4.4,5.7-5.7,9.6c-1.4,3.9-2,7.9-2,12.1
	c0,3.7,0.6,7.3,1.7,10.7c1.2,3.4,3,6.3,5.5,8.6s5.3,4,8.6,4.8c3.3,0.9,7,1.3,11.1,1.3c2.4,0,4.7-0.1,7.1-0.4
	c2.3-0.3,5.2-0.8,8.6-1.6c0.8-5.2,1.3-8.7,1.7-10.7c-3.5,1.2-6.5,2.1-9.1,2.6c-2.5,0.5-4.9,0.8-7.1,0.8c-1.9,0-3.8-0.3-5.7-0.9
	c-1.9-0.6-3.6-1.6-5-2.9s-2.5-2.9-3.2-4.8c-0.7-1.9-1.1-4-1.1-6.2c0-0.7,0-1.7,0.1-3L406.1,292.4z M372.7,282.7c0.3-1,0.8-2,1.4-3
	c0.6-1.1,1.5-2,2.5-2.8c1-0.8,2.2-1.5,3.4-1.9c1.3-0.4,2.5-0.7,3.9-0.7c1.1,0,2.2,0.1,3.2,0.4s1.9,0.7,2.6,1.2
	c0.8,0.5,1.4,1.1,2,1.9c0.6,0.8,1,1.6,1.4,2.6c0.3,1,0.5,1.9,0.6,2.7s0.1,2,0.1,3.6l-22.2-0.1C372.1,284.9,372.4,283.7,372.7,282.7z
	"/>
<path fill="#164397" d="M272.8,281.1c1.4-1.7,3-2.9,4.9-3.7c1.9-0.8,3.9-1.2,6.1-1.2c3.5,0,7.6,0.9,12.3,2.6l-0.7-11.1
	c-3-0.8-5.5-1.3-7.7-1.5c-2.2-0.3-4.3-0.4-6.3-0.4c-3.7,0-7.1,0.4-10.1,1.3c-3,0.9-5.8,2.6-8.2,5.1c-2.5,2.5-4.3,5.7-5.6,9.6
	c-1.3,3.9-1.9,8-1.9,12.2c0,3.2,0.4,6.3,1.2,9.3c0.8,3,1.9,5.6,3.5,7.7s3.3,3.8,5.4,5.1c2,1.3,4.2,2.2,6.6,2.7s4.8,0.8,7.4,0.8
	c4.4,0,8.9-0.6,13.4-1.7c0.3-2.6,0.7-4.8,1-6.5c0.3-1.8,0.5-3.3,0.7-4.7c-2.3,0.9-4.4,1.5-6.5,1.9c-2,0.4-3.8,0.6-5.2,0.6
	c-2.9,0-5.5-0.6-7.8-1.9s-3.9-3.1-4.8-5.4c-0.9-2.3-1.4-5.1-1.4-8.3c0-2.3,0.3-4.5,0.9-6.7C270.4,284.7,271.4,282.7,272.8,281.1z"/>
<path fill="#164397" d="M171.7,249.4c-0.8,2.7-1.4,4.6-1.7,5.7c-0.3,1.1-0.7,2-1,2.8l-9.3,24.1l-6.3,18.6l-3.6-14.5
	c-1.3-5.3-2.8-10.7-4.5-16.2c-1.1-3.6-2.1-6.7-2.8-9.2s-1.2-4.4-1.5-5.5c-0.3-1.2-0.6-3.1-1.1-5.8c-4.4,0.1-7.5,0.1-9.2,0.1
	c-2.1,0-5.4,0-9.9-0.1l-1.1,17.5l-3.1,40.2l-1.2,11.4c3.1-0.1,5.2-0.1,6.2-0.1l6.1,0.1c0-3,0.1-5.3,0.1-6.9l1.8-31.4
	c0.3-4.8,0.6-8.3,0.7-10.3l0.6-6.5c0.5,2.2,0.8,3.5,0.9,4.2c0.1,0.6,0.4,1.4,0.6,2.4l2.9,10.3c1.1,3.5,1.7,5.9,2,7l8.2,31.2
	c3-0.1,5.3-0.1,6.7-0.1c1.1,0,3.2,0,6.3,0.1l2-6l17.5-49.2v4.1c0,4.1,0,8.3-0.1,12.6l-0.8,30.1c-0.1,2.2-0.2,5.1-0.4,8.5
	c2.7-0.1,4.9-0.1,6.6-0.1c1.1,0,3.3,0,6.4,0.1c-0.1-4.2-0.1-7.7-0.1-10.5c0-5.8,0.1-14.6,0.3-26.3c0.2-11.8,0.6-22.5,1-32.2
	c-4.3,0.1-7.4,0.1-9.4,0.1C178.8,249.5,175.4,249.5,171.7,249.4z"/>
<path fill="#164397" d="M387.5,260.1l3.9-5.7c1.1-1.6,2.6-3.8,4.7-6.6c-3,0.1-5.3,0.1-7.1,0.1c-2.2,0-4.5,0-7.1-0.1
	c-0.5,1.2-1,2.6-1.5,4c-0.5,1.4-0.9,2.6-1.3,3.6l-1.7,4.7c1.7-0.1,3.3-0.1,4.9-0.1C384.1,260,385.9,260,387.5,260.1z"/>
<path fill="#164397" d="M237.4,267.1c-2.9-0.9-6.1-1.3-9.6-1.3c-3.1,0-6.2,0.2-9.5,0.7c-3.3,0.4-7.1,1.2-11.4,2.3
	c-0.3,2-0.5,3.5-0.6,4.5s-0.4,2.7-0.8,5.1c7-2.9,13.3-4.4,19.1-4.4c1.6,0,3,0.2,4.2,0.5c1.3,0.3,2.3,1,3.1,1.9
	c0.8,0.9,1.2,2,1.2,3.3c0,0.7-0.1,1.3-0.4,2c-0.3,0.6-0.7,1.3-1.2,1.8c-0.6,0.6-1.2,1.1-2,1.5c-0.8,0.4-1.8,0.7-3.1,1.1
	c-1.3,0.4-2.5,0.7-3.7,1c-4.5,1-8.2,2.1-10.9,3.1c-2.8,1-4.9,2.1-6.3,3.2c-1.5,1.1-2.6,2.2-3.6,3.4c-0.9,1.2-1.6,2.5-2.1,3.9
	s-0.7,2.8-0.7,4.3c0,2.5,0.6,5,1.8,7.5s3.1,4.3,5.7,5.5c2.6,1.2,5.8,1.7,9.8,1.7c1.1,0,2.4-0.1,3.7-0.2c1.3-0.1,3.1-0.3,5.4-0.8
	c0.9-3.8,1.7-6.7,2.3-8.6c-1.9,0.7-3.4,1.1-4.5,1.3c-1.1,0.2-2.2,0.3-3.2,0.3c-1.6,0-3-0.2-4.1-0.6c-1.2-0.4-2.1-1.1-2.9-2.2
	c-0.8-1-1.2-2.2-1.2-3.7c0-0.9,0.1-1.7,0.5-2.5c0.3-0.8,0.8-1.5,1.4-2.2c0.7-0.7,1.5-1.3,2.4-1.9c1-0.6,2.1-1.1,3.3-1.5
	c1.2-0.4,2.8-1,4.8-1.5c2-0.6,3.4-1,4.2-1.3s1.5-0.6,2.1-0.9s1.6-0.9,2.8-1.8l-0.6,12.6c-0.3,5.4-0.6,10.1-1,14.2
	c2.6-0.1,4.9-0.1,6.8-0.1c2,0,4.2,0,6.6,0.1c0.1-8.4,0.4-16.5,0.9-24.4s0.8-12.8,0.8-14.7c0-3.5-0.8-6.3-2.5-8.2
	C242.5,269.3,240.3,268,237.4,267.1z"/>
<path fill="#164397" d="M377.4,505.9c0.3-1.2,0.4-2.5,0.4-3.8c0-2.5-0.4-4.9-1.4-7.1s-2.3-4.1-4.1-5.7c-1.9-1.7-4.2-2.8-6.6-3.4
	c-2.3-0.6-4.7-0.9-7.2-0.9c-2.6,0-5.2,0.4-7.7,1.1c-2.7,0.8-5.2,2.1-7.2,4c-0.2,0.2-0.4,0.4-0.6,0.6l-4.4-4.7h-3.3
	c0-0.9,0.1-1.8,0.1-2.7l-5.5-4.6c-2.2,0.5-3.6,0.8-4.2,0.9l-3.7,0.7l-3.7,4.2c0,0.5-0.1,1-0.1,1.5h-0.5l-0.8,0.8l-1.1-1.4
	c-1.1-0.3-2.3-0.4-3.5-0.4s-2.4,0.1-3.6,0.4s-2.4,0.7-3.4,1.3c-0.2,0.1-0.3,0.2-0.5,0.3l-1.2-1.3c-1.7,0-3.1,0.1-4.1,0.1
	c-0.9,0-2.3,0-4.2-0.1l-4.6,4.6c0,1.5,0.1,2.5,0.1,2.7c0,0.5,0,1.1,0,1.6c-1-1.7-2.2-3.2-3.7-4.5c-2-1.8-4.5-3.1-7.2-3.9
	c-2.6-0.8-5.3-1.2-8.2-1.2c-3.1,0-6.1,0.5-9,1.5s-5.5,2.5-7.6,4.6c-1.3,1.3-2.4,2.8-3.3,4.4c-0.8-1.8-2-3.5-3.4-5
	c-2.1-2.1-4.7-3.6-7.7-4.4c-2.8-0.7-5.7-1.1-8.8-1.1c-2.3,0-4.6,0.1-6.9,0.3c-2.4,0.2-5.5,0.7-9.5,1.4l-2.6,3l-3.4-3.7
	c-3.7-0.6-7.1-1-10.2-1c-2.8,0-5.3,0.3-7.6,1.1c-2.5,0.8-4.7,2.3-6.3,4.5c-1.4,1.9-2.2,4.3-2.2,6.7c0,1.4,0.3,2.7,0.8,4
	c0.5,1.2,1.2,2.4,2,3.5c0.8,1,1.8,1.9,2.8,2.8c0.9,0.7,2.2,1.7,3.8,2.9c-0.3-0.1-0.7-0.1-1.1-0.2c-1.1-0.2-2.6-0.7-4.5-1.4l-4.4,3.3
	l-2.9-3l-4.5,0.2l-6.7,0.1c-2.4,0-4.3,0-5.5,0.1l0.1-2.2c1.8,0,3.5-0.1,4.9-0.1c0.7,0,3.9,0,9.5,0.1l4.5-4.2
	c0.1-2.4,0.3-4.5,0.4-6.2l-4.6-4.9c-4.7,0.1-8.1,0.2-10,0.2c-1.3,0-2.6,0-3.9,0l0.1-1.6c0,0,0,0,0.1,0c0.9,0,3,0,6.2,0
	c1.5,0,2.9,0,4.3,0c1.4,0,2.5,0,3.2,0.1l2.9,0.2l4.7-4.2l0.4-6.3l-4.5-4.7h-9h-6c-5.5,0-10.9,0-16-0.1l-4.5,4.5v3.9l-0.4,11.8
	l-0.6,12.9l-0.9,11.2l4.5,4.8h6.2h10.2c4.3,0,9.2,0,14.5,0.1l3.4-3.2l2.2,2.5c2.2,0.5,4.3,0.9,6.3,1.1c1.9,0.2,3.5,0.3,5,0.3
	c2.8,0,5.5-0.4,8-1.3c2.5-0.9,4.7-2.3,6.3-4.3c-0.3,5.3-0.6,9.8-1,13.5l4.5,4.9h4.6c1,0,2.4,0,4.3,0l4.5-4.5c0-0.8,0-1.5,0-2
	c0-0.2,0-0.4,0-0.5v-0.1l0,0l0,0v-0.2v-1.9l0.2-4.8c0.8,0.3,1.6,0.5,2.4,0.7c1.5,0.3,3.1,0.5,4.6,0.5c2.6,0,5.1-0.5,7.4-1.4
	c2.5-1,4.6-2.6,6.4-4.7c1.1-1.3,2-2.7,2.7-4.2c1,1.9,2.4,3.7,4,5.1c2,1.8,4.5,3.1,7.2,4c2.6,0.8,5.4,1.2,8.2,1.2c3,0,6-0.4,8.7-1.4
	c2.9-0.9,5.4-2.4,7.5-4.5c1-1,1.9-2.1,2.6-3.2l-0.2,3.6l4.6,4.8c1.8,0,3.3-0.1,4.5-0.1c1.3,0,2.7,0,4.2,0.1l4.6-4.7
	c-0.1-1.3-0.1-2.4-0.1-3.3c0-2.3,0.1-4.7,0.2-7.1s0.3-4.1,0.4-4.7c0.2-1.1,0.4-1.7,0.5-2c0.3-0.6,0.6-1,0.8-1.2
	c0.4-0.3,0.6-0.5,1-0.6c0.3-0.1,0.9-0.2,1.6-0.2c0.5,0,1.3,0.1,2.2,0.3l2.2-1.8l1,1.1l-0.5,7.8c-0.1,2.4-0.2,3.7-0.2,4.2
	s0,0.9,0,1.3c0,1.4,0.2,2.8,0.6,4.2c0.5,1.7,1.6,3.3,2.9,4.5c1.4,1.2,3.2,2.1,5,2.5c1.6,0.4,3.3,0.5,5.1,0.5c1,0,2.1-0.1,3.3-0.2
	c1.3-0.1,2.8-0.4,4.6-0.8l3.5-3.6c0.1-0.6,0.2-1.2,0.3-1.7c0.5,0.6,1.1,1.1,1.7,1.6c2.2,1.8,4.7,3.1,7.5,3.7
	c2.6,0.6,5.3,0.9,8.3,0.9c1.7,0,3.4-0.1,5.1-0.2c1.8-0.2,3.8-0.5,6.1-1l3.5-3.7c0.5-3,0.9-5,1.1-6l-5.3-5h3.5L377.4,505.9z
	 M211.4,506.5c-0.3-0.6-0.7-1.1-1.2-1.7c-0.9-1.1-1.9-2-3.1-2.9c-0.8-0.6-1.7-1.3-2.8-2.1c1,0.2,2.1,0.5,3.2,0.9l4.1-3
	C211.6,500.4,211.5,503.4,211.4,506.5z M236.1,504.7c0,1.3-0.2,2.4-0.7,3.5c-0.4,1-0.9,1.5-1.3,1.8c-0.6,0.4-1.1,0.5-1.9,0.5
	c-0.5,0-0.9-0.1-1.5-0.3c-0.5-0.2-0.8-0.5-1.2-0.9c-0.3-0.4-0.5-0.8-0.6-1.1c-0.2-0.7-0.3-1.5-0.3-2.4c0-0.5,0-1.5,0.1-2.8l0.2-2.7
	c1.1-0.2,2-0.3,2.9-0.3c1.1,0,1.8,0.2,2.5,0.5c0.4,0.2,0.7,0.5,1.2,1.2C235.8,502.3,236.1,503.2,236.1,504.7z M267.7,502.3
	c0.4-0.9,0.8-1.2,1.3-1.6c0.7-0.4,1.4-0.6,2.6-0.6s1.8,0.2,2.3,0.5c0.6,0.4,0.8,0.6,1,1.1c0.3,0.7,0.5,1.6,0.5,2.7
	c0,1.5-0.3,2.7-0.7,3.8c-0.4,0.9-0.8,1.3-1.3,1.7c-0.6,0.4-1.3,0.6-2.5,0.6c-1.1,0-1.7-0.2-2.2-0.5c-0.6-0.4-0.8-0.7-1.1-1.2
	c-0.3-0.7-0.5-1.6-0.5-2.8C267,504.6,267.3,503.4,267.7,502.3z M337.3,510l-0.4-0.4c-1.3,0.3-2.3,0.5-2.5,0.6c-0.1,0-0.2,0-0.3,0
	c0-0.1,0-0.1,0-0.2c0-0.7,0.1-4,0.4-9.4h3c-0.4,1.7-0.6,3.5-0.6,5.3C337,507.4,337.1,508.7,337.3,510z M363.8,510.6
	c-1.5,0.3-2.8,0.4-3.9,0.4c-0.8,0-1.6-0.1-2.5-0.4c-0.7-0.2-1.2-0.5-1.6-0.8c-0.1-0.1-0.2-0.2-0.3-0.2h12.7
	C366.5,510,365,510.4,363.8,510.6z"/>
<path fill="#FFFFFF" d="M208.8,506c-0.8-0.9-1.7-1.8-2.8-2.7c-1-0.8-2.1-1.6-3.4-2.5c-1.3-0.9-2.1-1.5-2.5-1.8
	c-0.3-0.2-0.5-0.4-0.7-0.6c0,0,0-0.1-0.1-0.1c0.1,0,0.2-0.1,0.4-0.1c0.6-0.2,1.5-0.3,2.5-0.3c1.8,0,3.8,0.4,6,1.2
	c0.9,0.3,1.8,0.2,2.6-0.3c0.7-0.5,1.1-1.4,1.1-2.3l-0.4-6.1c-0.1-1.2-1-2.3-2.2-2.5c-3.7-0.6-6.9-1-9.9-1c-2.6,0-5,0.3-7.1,1
	c-2.2,0.7-4.1,2-5.4,3.8c-1.2,1.7-1.9,3.6-1.9,5.6c0,1.1,0.2,2.3,0.6,3.4c0.4,1,1,2.1,1.7,3s1.6,1.7,2.6,2.5
	c0.9,0.7,2.2,1.7,3.8,2.9l1.7,1.2l0.1,0.1c0.5,0.4,0.9,0.7,1.1,0.9c0.3,0.2,0.4,0.4,0.4,0.4c0.1,0.1,0.1,0.2,0.2,0.2l0,0l0,0
	c0,0,0,0.1-0.5,0.3s-1.2,0.3-2.2,0.3s-2.1-0.1-3.3-0.4c-1.2-0.3-2.8-0.8-4.8-1.5c-0.9-0.3-1.9-0.2-2.6,0.4c-0.7,0.6-1.1,1.5-1,2.4
	l0.7,6.5c0.1,1.1,1,2.1,2.1,2.3c2.1,0.5,4.1,0.8,6.1,1c1.8,0.2,3.4,0.3,4.8,0.3c2.6,0,5.1-0.4,7.4-1.2c2.3-0.8,4.2-2.1,5.5-3.8
	c1.3-1.6,2-3.7,2-5.7c0-1.2-0.2-2.4-0.7-3.6C210.3,508.1,209.6,507,208.8,506z"/>
<path fill="#FFFFFF" d="M374.7,495.8c-0.9-1.9-2.1-3.7-3.7-5c-1.7-1.4-3.7-2.4-5.9-3c-2.1-0.6-4.4-0.8-6.7-0.8c-2.5,0-4.9,0.3-7.2,1
	c-2.4,0.7-4.6,1.9-6.5,3.6c-1.6,1.4-2.9,3.2-3.8,5.2c0-0.1,0-0.3,0-0.4c0-1,0.1-2.9,0.2-5.5c0-0.7-0.2-1.5-0.7-2s-1.2-0.8-2-0.8
	h-5.2c0-1.5,0.1-3,0.2-4.6c0-0.8-0.3-1.7-1-2.2c-0.6-0.5-1.5-0.8-2.3-0.6c-2.2,0.5-3.6,0.8-4.3,0.9l-3.7,0.7
	c-1.2,0.2-2.1,1.3-2.2,2.5s-0.1,2.3-0.2,3.2h-2.2c-0.3,0-0.6,0.1-0.9,0.2c-0.4-0.4-0.8-0.7-1.4-0.8c-1-0.2-2.1-0.4-3.1-0.4
	c-1.1,0-2.2,0.1-3.2,0.4c-1.1,0.3-2.1,0.6-3,1.1c-0.1,0.1-0.3,0.2-0.4,0.2c-0.1-0.1-0.1-0.1-0.2-0.2c-0.5-0.5-1.2-0.8-2-0.8
	c-1.7,0-3.1,0.1-4.1,0.1c-0.9,0-2.3,0-4.2-0.1c-0.7,0-1.4,0.3-2,0.8c-0.5,0.5-0.8,1.2-0.8,2c0,1.5,0.1,2.5,0.1,2.7
	c0,1.7,0,3.3-0.1,5l-0.2,8.1l-0.9,13.9c0,0.8,0.2,1.5,0.7,2s1.2,0.8,2,0.8c1.8,0,3.3-0.1,4.5-0.1c1.3,0,2.7,0,4.3,0.1
	c0.7,0,1.5-0.3,2-0.8s0.8-1.3,0.8-2c-0.1-1.4-0.1-2.5-0.1-3.3c0-2.3,0.1-4.7,0.2-7.2c0.1-2.4,0.3-4.1,0.4-4.9c0.2-1.2,0.4-2,0.6-2.4
	c0.4-0.8,0.8-1.3,1.2-1.8c0.5-0.5,1-0.8,1.6-1s1.3-0.3,2.3-0.3c0.7,0,1.6,0.1,2.7,0.4c0.8,0.2,1.7,0,2.4-0.5l0,0
	c0.2,0,0.4,0.1,0.6,0.1h1.6l-0.6,9.4c-0.1,2.4-0.2,3.7-0.2,4.2s0,0.8,0,1.2c0,1.2,0.2,2.5,0.5,3.7c0.4,1.4,1.3,2.7,2.4,3.7
	c1.2,1,2.6,1.7,4.2,2.1c1.4,0.3,3,0.5,4.7,0.5c1,0,2-0.1,3.1-0.2c1.2-0.1,2.6-0.4,4.4-0.7c1.1-0.2,1.9-1.1,2.1-2.1
	c0.5-2.9,0.9-4.9,1.2-5.9l0,0c0.9,1.8,2.2,3.4,3.8,4.8c1.9,1.6,4.2,2.8,6.8,3.4c2.4,0.6,5,0.8,7.9,0.8c1.7,0,3.3-0.1,4.9-0.2
	c1.7-0.2,3.6-0.5,5.9-1c1.1-0.2,1.9-1.1,2.1-2.2c0.5-3,0.9-5,1.1-6.1c0.2-0.9-0.1-1.9-0.8-2.6c-0.7-0.7-1.7-0.9-2.6-0.6
	c-2.2,0.7-4.1,1.2-5.6,1.4c-1.5,0.3-2.9,0.4-4.2,0.4c-1,0-1.9-0.1-3-0.4c-0.9-0.3-1.7-0.7-2.3-1.2c-0.6-0.5-1-1.1-1.3-1.8
	c-0.2-0.5-0.4-1-0.4-1.6h20.1c1.3,0,2.4-0.9,2.6-2.1c0.2-1.1,0.4-2.3,0.4-3.4C376,499.9,375.6,497.7,374.7,495.8z M340.3,498.1
	c-1,2.6-1.5,5.2-1.5,8c0,2,0.3,3.9,0.8,5.8c-0.6-0.4-1.4-0.6-2.2-0.4c-1.4,0.3-2.3,0.5-2.7,0.6c-0.5,0.1-0.9,0.1-1.3,0.1
	c-0.3,0-0.6-0.1-0.8-0.2l0,0c-0.1-0.1-0.2-0.8-0.2-1.8c0-0.9,0.2-4.8,0.5-11.2h5.4c0.7,0,1.4-0.3,1.9-0.8c0.1-0.1,0.1-0.1,0.2-0.2
	C340.3,498,340.3,498,340.3,498.1z M360.9,497.7c0.2,0.1,0.4,0.3,0.6,0.5s0.3,0.4,0.4,0.7h-7.6c0.2-0.3,0.5-0.5,0.9-0.8
	c0.5-0.3,0.9-0.6,1.5-0.7c0.6-0.2,1.2-0.3,1.8-0.3c0.6,0,1.1,0.1,1.5,0.2C360.4,497.4,360.7,497.6,360.9,497.7z"/>
<path fill="#FFFFFF" d="M289.9,497.4c-0.9-2.3-2.3-4.3-4.2-5.9c-1.8-1.6-4-2.8-6.6-3.5c-2.4-0.8-5-1.1-7.6-1.1
	c-2.9,0-5.7,0.5-8.4,1.4c-2.7,0.9-5.1,2.3-6.9,4.2c-1.8,1.8-3.2,3.9-4,6.2c-0.3,0.8-0.5,1.5-0.7,2.3c-0.2-1.1-0.5-2.1-0.8-3.1
	c-0.8-2.3-2-4.3-3.7-6.1c-1.8-1.9-4.1-3.2-6.9-3.9c-2.6-0.7-5.4-1-8.4-1c-2.2,0-4.5,0.1-6.7,0.3c-2.3,0.2-5.4,0.7-9.3,1.3
	c-1.3,0.2-2.2,1.3-2.2,2.6c0,5.4-0.2,12.4-0.6,21.1c-0.4,8.7-0.9,15.7-1.4,21.1c-0.1,0.8,0.2,1.5,0.7,2.1s1.2,0.9,2,0.9h4.6
	c1,0,2.5,0,4.4,0l0,0c0.7,0,1.4-0.3,1.9-0.8s0.8-1.2,0.8-1.9c0-0.8,0-1.5,0-2c0-0.2,0-0.4,0-0.6c0-0.1,0-0.2,0-0.2v-0.2v-2l0.3-7.4
	c0.2,0.1,0.5,0.3,0.7,0.4c1.1,0.6,2.4,1,3.7,1.3c1.4,0.3,2.8,0.5,4.2,0.5c2.4,0,4.7-0.4,6.7-1.3c2.2-0.9,4.1-2.3,5.7-4.2
	c1.5-1.8,2.7-3.9,3.4-6.2c0.2-0.7,0.4-1.5,0.6-2.2c0.2,1.1,0.6,2.2,1,3.2c0.9,2.3,2.4,4.3,4.2,5.9c1.8,1.6,4,2.8,6.5,3.6
	c2.4,0.8,5,1.1,7.7,1.1c2.9,0,5.6-0.4,8.2-1.3s4.9-2.2,6.8-4.1c1.8-1.8,3.2-3.9,4.1-6.3s1.4-4.9,1.4-7.4
	C291.3,502,290.8,499.7,289.9,497.4z M227,502.8l0.2-3.3c0-0.2,0-0.5,0.1-0.8c1.7-0.4,3.2-0.6,4.6-0.6c1.3,0,2.4,0.2,3.3,0.7
	c0.8,0.4,1.4,1,2,2c0.5,0.9,0.8,2.2,0.8,3.9c0,1.5-0.3,2.9-0.8,4.2c-0.5,1.3-1.2,2-2,2.6c-0.9,0.6-1.7,0.8-2.8,0.8
	c-0.8,0-1.5-0.2-2.2-0.5s-1.3-0.8-1.8-1.4s-0.8-1.2-1-1.9c-0.2-0.9-0.3-1.8-0.3-2.8C226.9,505.2,226.9,504.2,227,502.8z
	 M268.1,499.2c1-0.6,2.1-0.9,3.5-0.9s2.4,0.3,3.2,0.8c0.9,0.5,1.3,1.1,1.7,1.9c0.4,1,0.6,2.1,0.6,3.4c0,1.7-0.3,3.1-0.8,4.4
	c-0.5,1.2-1.2,2-2,2.5c-0.9,0.6-2,0.9-3.4,0.9s-2.4-0.3-3.2-0.8c-0.9-0.6-1.4-1.2-1.8-2c-0.4-1-0.6-2.1-0.6-3.5c0-1.6,0.3-3,0.8-4.3
	C266.6,500.4,267.2,499.7,268.1,499.2z"/>
<path fill="#FFFFFF" d="M180,511.1l-4.5,0.2l-6.7,0.1c-3.5,0-5.8,0.1-6.8,0.1h-0.6l0.3-5.7c2.5-0.1,4.7-0.1,6.6-0.1
	c0.8,0,4,0,9.5,0.1c1.4,0,2.6-1.1,2.7-2.5c0.1-2.5,0.3-4.6,0.4-6.3c0.1-0.8-0.2-1.5-0.7-2.1s-1.3-0.9-2-0.9c-4.7,0.1-8.1,0.2-10,0.2
	s-3.9,0-5.8,0l0.2-5.2c0.7,0,1.3,0,1.7,0c0.9,0,3,0,6.2,0c1.5,0,2.9,0,4.3,0c1.4,0,2.5,0,3.3,0.1l2.9,0.2c1.5,0.1,2.7-1.1,2.8-2.5
	l0.4-6.3c0-0.7-0.2-1.5-0.7-2s-1.2-0.8-2-0.8h-9h-6c-5.5,0-10.9,0-16-0.1c-0.7,0-1.4,0.3-1.9,0.8s-0.8,1.2-0.8,1.9v3.9l-0.4,11.8
	l-0.6,12.9l-0.9,11.2c-0.1,0.7,0.2,1.5,0.7,2s1.2,0.9,2,0.9h6.2H165c4.3,0,9.2,0,14.6,0.1l0,0c1.4,0,2.6-1.1,2.7-2.6
	c0.1-2,0.2-4.1,0.4-6.3c0.1-0.8-0.2-1.5-0.7-2.1C181.5,511.3,180.7,511,180,511.1z"/>
<path fill="#164397" d="M330.8,483.2c-2.2,0.5-3.7,0.8-4.4,1l-3.7,0.7c-0.1,2.7-0.3,4.7-0.4,5.8h-4.7c-0.1,2.6-0.2,4.5-0.3,5.7h4.5
	l-0.7,12.2c-0.1,2.3-0.2,3.7-0.2,4.2c0,0.4,0,0.8,0,1c0,1,0.1,2,0.4,2.9c0.3,0.9,0.8,1.7,1.6,2.4c0.8,0.7,1.8,1.2,3,1.5
	s2.6,0.4,4.1,0.4c0.9,0,1.8,0,2.8-0.2c1-0.1,2.4-0.3,4.1-0.7c0.5-2.9,0.9-4.9,1.2-6c-1.4,0.4-2.4,0.6-3,0.7
	c-0.6,0.1-1.1,0.1-1.6,0.1c-0.7,0-1.4-0.1-2-0.4c-0.6-0.3-1.1-0.8-1.3-1.4c-0.3-0.7-0.4-1.6-0.4-2.8c0-1.3,0.2-5.9,0.7-13.8h7.9
	c0-1.1,0.1-3,0.2-5.7h-7.9C330.6,488.3,330.6,485.8,330.8,483.2z"/>
<path fill="#164397" d="M373,505c0.2-1,0.3-1.9,0.3-2.8c0-2-0.3-3.7-1-5.3c-0.7-1.6-1.7-3-3-4.1s-2.9-1.9-4.8-2.4s-3.9-0.8-6-0.8
	c-2.2,0-4.4,0.3-6.4,0.9s-3.9,1.6-5.5,3.1c-1.6,1.4-2.9,3.3-3.7,5.6c-0.9,2.3-1.3,4.6-1.3,7c0,2.2,0.4,4.3,1.1,6.2
	c0.8,2,2,3.6,3.6,5c1.6,1.4,3.5,2.3,5.6,2.8s4.6,0.8,7.3,0.8c1.6,0,3.1-0.1,4.6-0.2c1.5-0.2,3.4-0.5,5.7-0.9c0.5-3,0.9-5.1,1.1-6.2
	c-2.3,0.7-4.3,1.2-6,1.5s-3.2,0.4-4.6,0.4c-1.2,0-2.5-0.2-3.7-0.5c-1.3-0.4-2.3-0.9-3.3-1.7c-0.9-0.8-1.6-1.7-2.1-2.8
	c-0.5-1.1-0.7-2.3-0.7-3.6c0-0.4,0-1,0.1-1.7L373,505z M351.1,499.4c0.2-0.6,0.5-1.1,0.9-1.7s1-1.2,1.7-1.7s1.4-0.9,2.2-1.1
	c0.8-0.3,1.7-0.4,2.5-0.4s1.5,0.1,2.1,0.2c0.7,0.2,1.2,0.4,1.7,0.7c0.5,0.3,0.9,0.7,1.3,1.1s0.7,0.9,0.9,1.5
	c0.2,0.6,0.3,1.1,0.4,1.5c0.1,0.5,0.1,1.1,0.1,2.1h-14.6C350.7,500.7,350.9,499.9,351.1,499.4z"/>
<path fill="#164397" d="M312.2,489.6c-0.9,0-1.8,0.1-2.6,0.3c-0.8,0.2-1.6,0.5-2.3,0.9c-0.7,0.4-1.3,0.8-1.9,1.3s-1.2,1.3-2,2.4
	l0.2-4.1c-1.7,0-3.1,0.1-4.2,0.1c-0.9,0-2.3,0-4.3-0.1c0,1.6,0.1,2.5,0.1,2.8c0,1.7,0,3.4-0.1,5l-0.2,8.1l-0.9,14
	c1.8,0,3.3-0.1,4.6-0.1c1.3,0,2.8,0,4.3,0.1c-0.1-1.4-0.1-2.5-0.1-3.5c0-2.4,0.1-4.8,0.2-7.3s0.3-4.2,0.4-5.2
	c0.2-1.3,0.5-2.4,0.9-3.2c0.5-1,1.1-1.9,1.8-2.6c0.7-0.7,1.6-1.2,2.5-1.6c0.9-0.3,2-0.5,3.2-0.5c1,0,2.1,0.2,3.3,0.5
	c-0.2-2.8-0.3-5.1-0.3-6.9C313.9,489.7,313,489.6,312.2,489.6z"/>
<path fill="#164397" d="M166.7,480.1c-5.6,0-10.9,0-16-0.1v4l-0.4,11.8l-0.6,13l-0.9,11.2h6.2h10.2c4.3,0,9.2,0,14.6,0.1
	c0.1-2,0.2-4.2,0.4-6.4l-4.5,0.2L169,514c-3.6,0-5.8,0.1-6.8,0.1h-3.4l0.5-11c3.7-0.1,6.7-0.2,9.1-0.2c0.8,0,4,0,9.5,0.1
	c0.1-2.5,0.3-4.6,0.4-6.4c-4.7,0.1-8.1,0.2-10.1,0.2c-2.9,0-5.8,0-8.6-0.1l0.5-10.4c1.9-0.1,3.3-0.1,4.3-0.1c0.9,0,3,0,6.3,0
	c1.5,0,3,0,4.4,0s2.5,0.1,3.4,0.1l3,0.2l0.4-6.3h-9L166.7,480.1z"/>
<path fill="#164397" d="M199.1,495.6c0.9-0.2,2-0.3,3.2-0.3c2.2,0,4.5,0.5,6.9,1.4l-0.4-6.1c-3.5-0.6-6.7-0.9-9.4-0.9
	c-2.4,0-4.5,0.3-6.2,0.9c-1.8,0.6-3.1,1.5-4,2.8s-1.4,2.7-1.4,4.1c0,0.8,0.1,1.6,0.5,2.4c0.3,0.8,0.7,1.5,1.3,2.3
	c0.6,0.7,1.3,1.4,2.1,2.1s2.1,1.6,3.7,2.8l1.7,1.3c0.6,0.4,1,0.8,1.3,1c0.3,0.3,0.6,0.5,0.7,0.7c0.2,0.2,0.3,0.4,0.5,0.7
	c0.1,0.2,0.2,0.5,0.3,0.7s0.1,0.5,0.1,0.7c0,0.6-0.2,1.1-0.6,1.6c-0.4,0.5-1,0.9-1.8,1.2c-0.8,0.3-1.8,0.4-3,0.4s-2.5-0.2-3.9-0.5
	s-3.1-0.9-5.2-1.6l0.7,6.5c2,0.5,3.9,0.8,5.7,1c1.8,0.2,3.3,0.3,4.5,0.3c2.4,0,4.5-0.4,6.5-1.1c1.9-0.7,3.4-1.7,4.3-2.9
	c1-1.3,1.4-2.6,1.4-4.1c0-0.9-0.2-1.7-0.5-2.6s-0.8-1.7-1.4-2.4c-0.6-0.8-1.4-1.5-2.4-2.2s-2.1-1.6-3.4-2.5
	c-1.3-0.9-2.1-1.5-2.5-1.9c-0.4-0.3-0.8-0.6-1.1-1s-0.5-0.7-0.6-1s-0.2-0.7-0.2-1c0-0.6,0.2-1.1,0.6-1.5
	C197.6,496.1,198.2,495.8,199.1,495.6z"/>
<path fill="#164397" d="M284,493.6c-1.5-1.3-3.4-2.3-5.6-3s-4.5-1-6.8-1c-2.6,0-5.1,0.4-7.5,1.3c-2.4,0.8-4.4,2-5.9,3.5
	s-2.7,3.3-3.4,5.2c-0.7,2-1.1,4-1.1,6.2c0,2.1,0.4,4.1,1.2,6.1c0.8,1.9,2,3.6,3.5,4.9c1.5,1.3,3.4,2.4,5.6,3c2.2,0.7,4.5,1,6.9,1
	c2.6,0,5-0.4,7.3-1.1c2.3-0.8,4.2-1.9,5.7-3.4s2.7-3.3,3.5-5.4c0.8-2.1,1.2-4.2,1.2-6.5c0-2.1-0.4-4.1-1.1-6
	C286.7,496.5,285.5,494.9,284,493.6z M278.7,510c-0.7,1.7-1.7,2.9-3.1,3.8s-3,1.3-4.8,1.3s-3.3-0.4-4.6-1.2
	c-1.3-0.8-2.2-1.9-2.8-3.2c-0.6-1.3-0.9-2.8-0.9-4.6c0-1.9,0.3-3.7,1-5.4c0.7-1.6,1.8-2.9,3.2-3.7c1.4-0.8,3-1.2,4.8-1.2
	s3.4,0.4,4.6,1.2c1.3,0.8,2.2,1.9,2.7,3.2c0.5,1.3,0.8,2.8,0.8,4.4C279.8,506.5,279.4,508.3,278.7,510z"/>
<path fill="#164397" d="M245.1,493.7c-1.4-1.5-3.3-2.5-5.6-3.1c-2.3-0.6-4.9-0.9-7.7-0.9c-2.1,0-4.3,0.1-6.4,0.3
	c-2.2,0.2-5.2,0.7-9.2,1.3c0,5.4-0.2,12.5-0.6,21.2c-0.4,8.7-0.9,15.8-1.4,21.2h4.6c1,0,2.5,0,4.4,0c0-1.7,0-2.7,0-2.9v-2l0.5-12.8
	c0.9,0.9,1.6,1.6,2.2,2.1c0.6,0.5,1.3,0.9,2.2,1.4s1.9,0.8,3.1,1.1c1.2,0.3,2.4,0.4,3.6,0.4c2.1,0,4-0.4,5.7-1.1
	c1.8-0.7,3.3-1.9,4.6-3.4c1.3-1.6,2.3-3.3,3-5.3c0.6-2,1-4,1-6.2c0-2.1-0.3-4.1-1-6.1C247.5,496.8,246.5,495.1,245.1,493.7z
	 M239.5,510c-0.7,1.6-1.7,2.9-3,3.8s-2.7,1.3-4.3,1.3c-1.1,0-2.2-0.2-3.3-0.7s-2-1.2-2.8-2.1c-0.8-0.9-1.3-1.9-1.5-3
	c-0.3-1.1-0.4-2.2-0.4-3.4c0-0.7,0-1.7,0.1-3.1l0.2-3.3c0.1-0.8,0.2-1.7,0.3-2.7c2.5-0.8,4.9-1.2,7-1.2c1.7,0,3.1,0.3,4.5,1
	c1.3,0.6,2.3,1.7,3.1,3.1c0.8,1.4,1.2,3.2,1.2,5.2C240.6,506.6,240.2,508.3,239.5,510z"/>
<polygon fill="#FFDD00" points="174.1,404.8 261,328.7 347.9,404.8 261,480.8 "/>
<path fill="#164397" d="M258.5,376.3c13.1-12.5,25.1-12.1,39-7L261,337.2l-25.5,22.4C244.5,360.4,253.4,365.5,258.5,376.3z"/>
<path fill="#164397" d="M301.8,373.1l-9.5,4.9c-13.8,8-19-6.8-31.6,1l0.1,1.3c11.9-0.3,16.3,9.2,10.1,20.6
	c-2.8-9.7-7.2-15.7-15.6-19.8l-0.2-0.1c-9.5,0.1-22.3-0.7-21,17.1c0.5,9.1-16.5,16.3-15,2.4c2.5-13.7,9.1-24,30.1-22.1
	c1.5,0.1,2.8,0.4,3.8,0.8l0.1-0.3c-4.8-8.5-14.3-12.2-23.9-13.9L184,404.7l24.5,21.5c0.8-0.5,1.7-1,2.7-1.4c5-2.2,12.6-3.6,20.5-1.3
	c3.1,0.9,5.8,1.4,8.3,1.5c2.3,0,4.5-0.3,6.7-1.1c1.4-0.5,2.8-1,4.3-1.4c-3.6-11.4-4-27.6,0.5-37.8c2.8-5.6,5.2-3.2,4.1,2
	c-1.2,9.1-0.7,23.8,5.8,35c2.6,0.3,5.4,0.9,8.3,2.1c2.9,1.1,5.6,1.8,8.2,1.9s5.3-0.5,8.3-1.8h0.1l0,0c1.3-0.6,2.6-1,4.1-1.4
	c1.4-0.3,2.9-0.6,4.4-0.8c6.7-0.7,14.4,0.3,20.1,3l22.6-19.9L301.8,373.1z"/>
<path fill="#164397" d="M296.1,430.4c-1.1,0.1-2.2,0.3-3.3,0.6c-1,0.2-1.9,0.5-2.7,0.9l0,0l0,0c-4.3,1.9-8.3,2.7-12.2,2.6
	c-3.8-0.1-7.4-1-11.2-2.5c-3.4-1.3-6.4-1.7-9-1.6c-2.7,0.1-5.2,0.9-7.7,1.8c-3.3,1.2-6.5,1.8-10,1.7c-3.3-0.1-6.8-0.7-10.6-1.8
	c-5.2-1.5-10.1-0.8-13.6,0.5l45.1,39.7l46.7-41C304.1,430.3,299.9,430,296.1,430.4z"/>
<polygon fill="#164397" points="271.3,184.7 281.6,172.8 266.1,175.8 261,160.9 255.9,175.8 240.4,172.8 250.7,184.7 240.4,196.6 
	255.9,193.6 261,208.5 266.1,193.6 281.6,196.6 "/>
</svg>
