<?xml version="1.0" encoding="utf-8"?>
<!-- Generator: Adobe Illustrator 19.1.0, SVG Export Plug-In . SVG Version: 6.00 Build 0)  -->
<svg version="1.1"
	 id="svg2" sodipodi:docname="Oeste.svg" inkscape:version="0.48.4 r9939" inkscape:export-xdpi="268.30453" inkscape:export-ydpi="268.30453" inkscape:export-filename="C:\Users\StryfeUAC\Desktop\Pablo\Vestores\Oeste.png" xmlns:inkscape="http://www.inkscape.org/namespaces/inkscape" xmlns:dc="http://purl.org/dc/elements/1.1/" xmlns:rdf="http://www.w3.org/1999/02/22-rdf-syntax-ns#" xmlns:sodipodi="http://sodipodi.sourceforge.net/DTD/sodipodi-0.dtd" xmlns:svg="http://www.w3.org/2000/svg" xmlns:cc="http://creativecommons.org/ns#"
	 xmlns="http://www.w3.org/2000/svg" xmlns:xlink="http://www.w3.org/1999/xlink" x="0px" y="0px" viewBox="-442 624.8 167.6 168.5"
	 enable-background="new -442 624.8 167.6 168.5" xml:space="preserve">
<defs>
	
	
		<inkscape:perspective  inkscape:persp3d-origin="100 : 66.666667 : 1" inkscape:vp_x="0 : 100 : 1" inkscape:vp_y="0 : 1000 : 0" sodipodi:type="inkscape:persp3d" inkscape:vp_z="200 : 100 : 1" id="perspective4238">
		</inkscape:perspective>
</defs>
<sodipodi:namedview  inkscape:document-units="px" fit-margin-bottom="0" fit-margin-right="0" inkscape:pageshadow="2" inkscape:window-width="1366" inkscape:current-layer="layer2" inkscape:pageopacity="0.0" inkscape:window-x="-4" inkscape:window-y="-4" inkscape:window-height="705" inkscape:window-maximized="1" fit-margin-top="0" showgrid="false" bordercolor="#666666" pagecolor="#ffffff" inkscape:zoom="1" id="base" inkscape:cx="188.58011" inkscape:cy="115.83549" borderopacity="1.0" fit-margin-left="0">
	</sodipodi:namedview>
<g id="layer2" transform="translate(-15.78067,-14.78125)" inkscape:groupmode="layer" inkscape:label="Forma">
	<g id="g4262">
		<path id="path3959-7-1" inkscape:connector-curvature="0" d="M-425,639.6l-0.5,3.9l-0.2,2.1c0,0-4.8,42.5,16.3,89.4
			c21.3,47.5,63.8,71.2,63.8,71.2l0,0l1.2,0.7l2.1,1.2l2.1-1.2l1.2-0.7l0,0c0,0,42.4-23.8,63.7-71.2c21.1-46.9,16.3-89.4,16.3-89.4
			l-0.2-2.1l-0.5-3.9h-3.9h-2.1H-419h-2.1H-425L-425,639.6z"/>
		<path id="path3959-3" sodipodi:nodetypes="ccsccccccccccccsccsccccccc" inkscape:connector-curvature="0" fill="#FF0016" d="
			M-419,646.4c0,0-0.1,1.2-0.2,3c-0.1,1.5-1.1,12.6,0.4,26.5c0.6,5.9,1.8,11.5,2.9,16.2c0.8,4,1.7,8.2,2.8,12.5h0.8h52.5h88.2
			c1.8-6.6,3-12.9,4-18.7h-92.2v-18.7h94.2c0.8-12.8-0.1-20.8-0.1-20.8H-419z M-407,723.3c1.1,3,2.4,6,3.8,9
			c1.5,3.3,3.1,6.5,4.8,9.6h112.2c1.7-3.1,3.3-6.3,4.8-9.6c1.4-3,2.6-6,3.8-9H-407z M-386.2,760.6c5.5,7.2,11.3,13.4,16.8,18.7h54.2
			c5.5-5.2,11.2-11.5,16.8-18.7H-386.2z"/>
		
			<path id="path2999" sodipodi:nodetypes="cccccccsccccccsccccccccccsccccccccsccccccsccccccsccscccccccsccccccsccccccscccccccsccccccscccccsccccccccsccccccccccccccsccscccscccccccsccc" inkscape:connector-curvature="0" fill="#FFFFFF" d="
			M-409.2,653.4v3.6h6.8v2.2h-3.9l0,0l0,0c0,0-1.1,0.1-2.1,0.7s-2.1,2.1-2.3,4v0.1v0.1v26.3v0.1v0.1c0.2,2,1.2,3.4,2.3,4
			c1.1,0.6,2.1,0.7,2.1,0.7l0,0l0,0h3.9v3.3h3.6v-3.2h2.6l0,0l0,0c0,0,1.1-0.1,2.1-0.7c1-0.6,2.1-2.1,2.3-4v-0.1v-0.2v-11.7h1.3
			v11.7v0.1v0.1c0.2,2,1.2,3.4,2.3,4c1.1,0.6,2.1,0.7,2.1,0.7l0,0l0,0c4.7,0,9.5,0,14.2,0l0,0l0,0c0,0,1.1-0.1,2.1-0.7
			c1-0.6,2.1-2.1,2.3-4v-0.1v-0.1v-6.6h-3.6v6.4c-0.1,1.1-0.4,1.2-0.6,1.4c-0.2,0.1-0.3,0.1-0.3,0.1c-4.7,0-9.4,0-14.1,0
			c0,0-0.1,0-0.3-0.1c-0.2-0.1-0.5-0.3-0.6-1.4v-11.5h4.7v-1.8v-1.8h-4.7v-10.7c0.1-1.1,0.4-1.2,0.6-1.4c0.2-0.1,0.3-0.1,0.3-0.1
			h6.8v2h3.6v-2h3.7c0,0,0.1,0,0.3,0.1c0.2,0.1,0.5,0.3,0.6,1.4v6.4h3.6v-6.6v-0.1V664c-0.2-2-1.2-3.4-2.3-4
			c-1.1-0.6-2.1-0.7-2.1-0.7l0,0l0,0h-3.8v-1.4l0,0l0,0c0,0-0.1-1.1-0.7-2.1c-0.6-1-2.1-2.1-4-2.3h-0.1h-0.1L-409.2,653.4
			L-409.2,653.4z M-398.9,657h18.2c1.1,0.1,1.2,0.4,1.4,0.6c0.2,0.2,0.1,0.3,0.1,0.3v1.3h-6.8l0,0l0,0c0,0-1.1,0.1-2.1,0.7
			c-1,0.6-2.1,2.1-2.3,4v0.1v0.1V675h-1.3v-10.9V664v-0.1c-0.2-2-1.2-3.4-2.3-4c-1.1-0.6-2.1-0.7-2.1-0.7l0,0l0,0h-2.6V657H-398.9z
			 M-406.4,662.9C-406.3,662.9-406.3,662.9-406.4,662.9h3.9v12.2h-2.4v3.6h2.4v13h-3.8c0,0-0.1,0-0.3-0.1c-0.2-0.1-0.5-0.3-0.6-1.4
			v-25.8c0.1-1.1,0.4-1.2,0.6-1.4C-406.5,663-406.4,662.9-406.4,662.9z M-398.9,662.9h2.5c0,0,0.1,0,0.3,0.1
			c0.2,0.1,0.5,0.3,0.6,1.4v10.7h-3.5v-12.2H-398.9z M-398.9,678.7h3.5v11.5c-0.1,1.1-0.4,1.2-0.6,1.4c-0.2,0.1-0.3,0.1-0.3,0.1
			h-2.5L-398.9,678.7L-398.9,678.7z"/>
		<path id="path3959-7" inkscape:connector-curvature="0" fill="#FFFFFF" d="M-421.1,644l-0.2,2.1c0,0-4.7,41.3,15.9,87.1
			c20.7,46,61.9,69.2,61.9,69.2l1.2,0.7l1.2-0.7c0,0,41.2-23.2,61.9-69.2c20.6-45.8,15.9-87.1,15.9-87.1l-0.2-2.1h-2.1H-419H-421.1
			L-421.1,644z M-416.7,648.8h54.4v53.3h-49C-418.5,674.3-417.1,653-416.7,648.8z M-359.8,648.8h91.8c0.5,5.5,2.8,41.3-15.6,82.5
			c-19,42.4-55.4,64.3-58.7,66.2c-3.3-1.9-39.7-23.9-58.8-66.2c-4.2-9.3-7.3-18.3-9.6-26.7h48.3h0.9h1.6v-55.8H-359.8z"/>
	</g>
</g>
</svg>
