<?xml version="1.0" encoding="utf-8"?>
<!-- Generator: Adobe Illustrator 19.1.0, SVG Export Plug-In . SVG Version: 6.00 Build 0)  -->
<svg version="1.1" id="Layer_1" xmlns="http://www.w3.org/2000/svg" xmlns:xlink="http://www.w3.org/1999/xlink" x="0px" y="0px"
	 viewBox="-418 618 112.8 175.8" enable-background="new -418 618 112.8 175.8" xml:space="preserve">
<g>
	<path fill="#CD3529" d="M-418,793.8L-418,793.8L-418,793.8L-418,793.8z M-305.2,618v42.7c-6.1,0-11,4.9-11,11s4.9,11,11,11v71.7
		c0,12.2-13.9,26.2-26,26.2h-15.1c-3.4,0-10.8,2.2-14.3,10.8l-0.9,2.3l-1-2.3c-3.5-8.6-10.9-10.8-14.3-10.8h-15.1
		c-12.2,0-26-14-26-26.2v-71.7c6.1,0,11-4.9,11-11s-4.9-11-11-11V618H-305.2L-305.2,618z"/>
	<path fill="#FFFFFF" d="M-307.3,620.1c0,0.2,0,17.1,0,38.8c-6.2,1-10.9,6.3-10.9,12.8s4.7,11.8,10.9,12.8c0,34.5,0,69.9,0,69.9
		c0,11-13,24.1-23.9,24.1h-15.1c-5,0-11.6,3.4-15.2,10.5c-3.7-7.1-10.3-10.5-15.3-10.5h-15.1c-11,0-24-13.1-24-24.1
		c0,0,0-35.5,0-69.9c6.2-1,10.9-6.3,10.9-12.8s-4.7-11.8-10.9-12.8c0-21.7,0-38.5,0-38.8H-307.3L-307.3,620.1z"/>
	<path fill="#CD3529" d="M-315.6,628.6v23.5c-7,3.7-11.8,11.1-11.8,19.6s4.8,15.9,11.8,19.6v61.2c-0.3,2.6-0.8,4.8-1.6,6.8
		c-1.6,3.9-4.2,6.5-7.3,8.2c-3.5,1.9-7.7,2.3-12.1,2.4h-9.6c0,0-1.9,0.1-4.3,0.7c-3.6,0.9-7.1,2.2-11,5.3c-3.9-3.1-7.4-4.4-11-5.3
		c-2.3-0.6-4.3-0.7-4.3-0.7h-9.6c-4.4-0.2-8.6-0.6-12.1-2.4c-3.1-1.7-5.7-4.3-7.3-8.2c-0.8-1.9-1.3-4.1-1.6-6.8v-61.2
		c7-3.7,11.8-11.1,11.8-19.6s-4.8-15.9-11.8-19.6v-23.5H-315.6L-315.6,628.6z"/>
	<path fill="#304296" d="M-375.3,651.4l-0.9,0.5l0,0c-0.2,0-0.2,0.3-0.2,0.3s-0.2,0.2-0.2,0.3l0,0v0.2v5.9l0,0
		c0,0.3,0.2,0.7,0.2,0.7s0.2,0.2,0.5,0.2c0.2,0,0.3-0.2,0.3-0.2s0.2-0.3,0.2-0.7l0,0L-375.3,651.4L-375.3,651.4L-375.3,651.4z
		 M-371.6,643.2v18.7h-3.6v-0.6l0,0c-0.2,0.2-0.9,0.5-1.1,0.5c-0.3,0.2-0.7,0.3-1.2,0.3c-1,0-1.6-0.3-1.9-0.9
		c-0.5-0.7-0.7-1.9-0.7-3.5l0,0v-5l0,0c0-0.5,0.2-1.2,0.5-1.6c0.2-0.3,0.7-0.9,1.4-1.2l0,0l3-1.4v-5.4l0,0c0-0.3-0.2-0.5-0.2-0.5
		s-0.2-0.2-0.3-0.2c-0.3,0-0.5,0.2-0.5,0.2c0,0.2-0.2,0.5-0.2,0.9l0,0v4h-3.7v-4.3l0,0c0-1.2,0.5-2.1,1.1-2.4
		c0.3-0.5,1.6-0.7,2.9-0.7c1.7,0,2.9,0.2,3.5,0.7C-372,641.1-371.6,642-371.6,643.2L-371.6,643.2L-371.6,643.2L-371.6,643.2z
		 M-361.8,644.3v4.7h-3.8v-5.7l0,0c0-0.3,0-0.5,0-0.5c-0.3,0-0.5-0.2-0.5-0.2c-0.2,0-0.5,0.2-0.5,0.2c0,0.2,0,0.5,0,0.9l0,0v18.4
		h-3.6v-21.8h3.6v0.9l0,0c0.2-0.3,0.5-0.5,0.7-0.9c0.5-0.2,0.9-0.2,1.4-0.2c0.9,0,1.6,0.2,1.9,0.9
		C-362.3,641.5-361.8,642.7-361.8,644.3L-361.8,644.3L-361.8,644.3z M-356.6,651.4l-0.9,0.5l0,0l-0.2,0.3c0,0-0.2,0.2-0.2,0.3l0,0
		v0.2v5.9l0,0c0,0.3,0.2,0.7,0.2,0.7s0.2,0.2,0.3,0.2c0.2,0,0.4-0.2,0.4-0.2c0.3,0,0.3-0.3,0.3-0.7l0,0L-356.6,651.4L-356.6,651.4
		L-356.6,651.4z M-353.1,643.2v18.7h-3.5v-0.6l0,0c-0.3,0.2-0.7,0.5-1,0.5c-0.4,0.2-0.9,0.3-1.2,0.3c-1,0-1.6-0.3-2.1-0.9
		c-0.2-0.7-0.5-1.9-0.5-3.5l0,0v-5l0,0c0-0.5,0.2-1.2,0.3-1.6c0.2-0.3,0.9-0.9,1.4-1.2l0,0l3.1-1.4v-5.4l0,0c0-0.3,0-0.5,0-0.5
		c-0.3,0-0.5-0.2-0.7-0.2s-0.3,0.2-0.3,0.2c0,0.2-0.2,0.5-0.2,0.9l0,0v4h-3.6v-4.3l0,0c0-1.2,0.3-2.1,1-2.4c0.5-0.5,1.6-0.7,3.1-0.7
		c1.6,0,2.6,0.2,3.3,0.7C-353.3,641.1-353.1,642-353.1,643.2L-353.1,643.2L-353.1,643.2L-353.1,643.2z M-343.2,644.3V662h-3.6v-18.7
		l0,0c0-0.3-0.2-0.5-0.2-0.5s-0.2-0.2-0.3-0.2c-0.2,0-0.3,0.2-0.3,0.2c0,0.2-0.3,0.5-0.3,0.9l0,0v18.4h-3.5v-21.8h3.5v0.9l0,0
		c0.3-0.3,0.7-0.5,1-0.9c0.2-0.2,0.9-0.2,1.2-0.2c0.9,0,1.6,0.2,1.9,0.9c0.5,0.5,0.7,1.7,0.7,3.7l0,0L-343.2,644.3L-343.2,644.3
		L-343.2,644.3z M-337.1,651.4l-0.9,0.5l0,0l-0.2,0.3c0,0,0,0.2,0,0.3l0,0v0.2v5.9l0,0c0,0.3,0,0.7,0,0.7s0.2,0.2,0.7,0.2l0.2-0.2
		c0.2,0,0.2-0.3,0.2-0.7l0,0V651.4L-337.1,651.4L-337.1,651.4z M-333.5,643.2v18.7h-3.6v-0.6l0,0c-0.2,0.2-0.7,0.5-1,0.5
		c-0.2,0.2-0.9,0.3-1.2,0.3c-0.7,0-1.5-0.3-1.9-0.9c-0.3-0.7-0.5-1.9-0.5-3.5l0,0v-5l0,0c0-0.5,0-1.2,0.2-1.6
		c0.3-0.3,0.9-0.9,1.7-1.2l0,0l2.8-1.4v-5.4l0,0c0-0.3,0-0.5,0-0.5c-0.2,0-0.4-0.2-0.4-0.2c-0.5,0-0.7,0.2-0.7,0.2
		c0,0.2,0,0.5,0,0.9l0,0v4h-3.7v-4.3l0,0c0-1.2,0.2-2.1,0.9-2.4c0.5-0.5,1.7-0.7,3.1-0.7c1.7,0,3,0.2,3.3,0.7
		C-333.7,641.1-333.5,642-333.5,643.2L-333.5,643.2L-333.5,643.2L-333.5,643.2z M-338,636.1h3.3l-2.1,2.8h-2.4L-338,636.1
		L-338,636.1L-338,636.1z"/>
	<path fill="#304296" d="M-346.3,697.2c-5.9-6.1-20.5-7.6-26.4-2.8l-34.9,30l-4.8,4.2h4.8h17c8.7,0,11.5,4.7,13.9,10.4l14.7,36.6
		c0.1,0.1,0.3,0.2,0.4,0.3c3.8-3.1,7.4-4.4,11-5.3c2.3-0.6,4.3-0.7,4.3-0.7h9.6c4.4-0.2,8.6-0.6,12.1-2.4c3.1-1.7,5.7-4.3,7.3-8.2
		c0.8-1.9,1.3-4.1,1.6-6.8v-9v-15.1L-346.3,697.2L-346.3,697.2z M-369.2,716.8c-2.6,0-4.7-2.1-4.7-4.5c0-2.6,2.1-4.5,4.7-4.5
		c2.4,0,4.3,1.9,4.3,4.5C-364.9,714.7-366.8,716.8-369.2,716.8L-369.2,716.8z"/>
	<path fill="#304296" d="M-386,642.7v8.5h0.2l0,0c0.2,0,0.7-0.3,0.7-0.3c0.2,0,0.2-0.5,0.2-0.9l0,0v-5.9l0,0c0-0.5,0-1.2-0.2-1.2
		c0-0.2-0.5-0.2-0.7-0.2l0,0H-386L-386,642.7L-386,642.7z M-389.8,639.8h4.3l0,0c1.9,0,2.9,0.2,3.3,0.7c0.5,0.5,0.9,1.9,0.9,3.8l0,0
		v5.2l0,0c0,2.1-0.3,3.3-0.7,3.8c-0.5,0.5-1.6,0.9-3.1,0.9l0,0h-0.9v7.8h-3.8V639.8L-389.8,639.8L-389.8,639.8z"/>
	<path fill="#304296" d="M-388.5,689.2h0.4l0,0c0.5,0,0.9,0,1,0c0-0.2,0.2-0.5,0.2-0.9c0-0.3-0.2-0.7-0.2-0.7
		c-0.2-0.2-0.5-0.5-1-0.5l0,0h-0.4V689.2L-388.5,689.2L-388.5,689.2z M-388.5,685.9h0.2l0,0c0.3,0,0.9-0.2,1-0.2
		c0.1,0,0.2-0.3,0.2-0.7c0-0.5,0-0.7-0.2-0.7c-0.2-0.2-0.7-0.3-1-0.3l0,0h-0.2V685.9L-388.5,685.9L-388.5,685.9z M-390.2,690.6v-7.8
		h1.4l0,0c0.5,0,1.2,0.2,1.6,0.2c0.2,0,0.5,0.2,1,0.2c0,0.2,0.3,0.7,0.5,0.7c0.2,0.3,0.2,0.7,0.2,1c0,0.5,0,0.9-0.3,1
		c-0.3,0.3-0.9,0.7-1.2,0.7c0.7,0,1.1,0.2,1.4,0.5c0.2,0.5,0.7,0.9,0.7,1.2c0,0.5-0.2,0.9-0.5,1c0,0.3-0.3,0.7-0.7,0.9
		c-0.2,0-0.7,0.2-0.9,0.2c-0.3,0-1.2,0.2-1.9,0.2l0,0h-0.3L-390.2,690.6L-390.2,690.6L-390.2,690.6z M-373.5,690.6h-2.3l-1.9-3.6
		v3.6h-1.6v-7.8h2.4l0,0c0.9,0,1.6,0.2,2.1,0.3c0.3,0.5,0.7,1.2,0.7,2.1c0,0.3-0.2,1-0.3,1.2c-0.3,0.3-0.9,0.5-1.2,0.5l0,0
		L-373.5,690.6L-373.5,690.6L-373.5,690.6z M-377.7,686.3h0.3l0,0c0.5,0,1.2-0.3,1.4-0.3c0,0,0.2-0.5,0.2-0.7c0-0.3-0.2-0.7-0.2-0.9
		c-0.2-0.2-0.9-0.3-1.4-0.3l0,0h-0.3V686.3L-377.7,686.3L-377.7,686.3z M-364.2,687.6l-1-2.4l0,0v-0.3c0-0.3,0-0.5,0-0.9
		c0,0.3-0.2,0.5-0.2,0.5c0,0.3-0.2,0.7-0.2,0.7l0,0l-0.9,2.4H-364.2L-364.2,687.6L-364.2,687.6z M-369,690.6l2.8-7.8h1.9l3.1,7.8
		h-1.9l-0.7-1.7h-3l-0.5,1.7H-369L-369,690.6L-369,690.6z M-356.6,689.5l1.1-1.2l0,0c0,0.5,0.3,0.9,0.5,0.9c0,0,0.5,0.2,0.9,0.2
		c0.2,0,0.9-0.2,0.9-0.2c0.2,0,0.3-0.3,0.3-0.9c0-0.2-0.3-0.7-1-0.9c-0.2,0-0.3-0.5-0.5-0.5c-0.7-0.2-1.2-0.5-1.2-0.7
		c-0.5-0.5-0.7-0.9-0.7-1.4c0-0.7,0.3-1.2,0.7-1.7c0.5-0.2,1.4-0.5,1.9-0.5s1,0.2,1.2,0.3c0.3,0,0.7,0.3,1,0.9l0,0l-1,0.7l0,0
		c0-0.2-0.3-0.5-0.3-0.5c-0.2,0-0.3-0.2-0.7-0.2c-0.3,0-0.5,0.2-0.5,0.3c-0.2,0.2-0.3,0.3-0.3,0.7c0,0.3,0.3,0.7,0.9,1l0.3,0.3
		c0.7,0.2,1,0.5,1.4,0.7c0.3,0.5,0.7,1,0.7,1.4c0,0.7-0.3,1.4-0.7,1.7c-0.7,0.3-1.4,0.7-2.3,0.7c-0.3,0-1-0.2-1.4-0.2
		C-356,690.4-356.6,690.1-356.6,689.5L-356.6,689.5L-356.6,689.5z M-345.1,690.6v-7.8h1.8v7.8H-345.1L-345.1,690.6L-345.1,690.6z
		 M-337.1,690.6v-7.8h1.7v6.4h2.6v1.4H-337.1L-337.1,690.6L-337.1,690.6z"/>
	<path fill="#FFFFFF" d="M-343.2,675.3c-0.2,0.2-0.3,0.9-0.3,1c-0.2,0.2-0.5,0.5-0.7,1c-0.2,0.5-0.2,1.2-0.2,1.4
		c0.2,0.2,0.3,0.3,0.7,0.3c0.7,0,1.6-0.3,2.6-1c1.2-0.7,2.2-1.7,3.3-2.9c0-0.2,0.2-0.3,0.5-0.7c0.3-0.3,0.7-0.7,0.7-0.7
		s0.2,0,0.2,0.2c0.3,0.2,0.3,0.3,0.3,0.5c-0.3,0.3-0.5,0.7-0.9,1c-0.3,0.7-1.2,1.2-1.9,1.9c-1,0.9-2.1,1.7-2.9,2.1
		c-1,0.5-1.7,0.9-2.6,0.9c-1.1,0-1.4-0.3-1.7-0.9c-0.4-0.3-0.4-1.2,0.2-2.1c0.3-1,1-2.4,1.9-4.2c0.9-1.4,2.1-2.8,3.3-4
		c0.3-0.2,0.9-0.5,1-0.7c0.3-0.3,0.7-0.3,0.9-0.3c0.4,0,0.5,0,0.5,0c0.2,0,0.2,0.3,0.3,0.5c0.2,0,0.3,0,0.7,0
		c0.5,0.2,0.9,0.5,0.7,1.4c-0.5,1.4-1.4,2.8-2.6,4c-1.4,1-2.5,1.6-3.1,1.6c-0.4,0-0.5,0-0.5,0C-343.1,675.6-343.1,675.4-343.2,675.3
		L-343.2,675.3L-343.2,675.3L-343.2,675.3L-343.2,675.3z M-341.8,674.8c0.2,0,0.9-0.5,1.4-1.2c0.9-0.9,1.2-1.9,1.4-2.6
		c0.2,0,0-0.3,0.2-0.5c-0.2,0-0.3-0.2-0.3-0.2c-0.2,0-0.7,0.3-1.6,1.2c-0.7,1-1.2,1.7-1.4,2.3c-0.2,0.3-0.2,0.5,0,0.7
		C-342.2,674.8-342,674.8-341.8,674.8L-341.8,674.8L-341.8,674.8z"/>
	<path fill="#FFFFFF" d="M-343.2,661.6c0-0.2-0.2-0.3-0.3-0.5c0,0-0.2,0-0.3,0c-0.2,0-0.7,0.2-1,0.7c-0.2,0.5-1,1.2-1.7,2.4
		c-2.4,3.3-4.5,6.4-6.1,9.2c-0.3,0.4-0.5,0.8-0.7,1.1c-0.1,0.1-0.2,0.2-0.3,0.4l-0.2,0.2c-1,1.2-1.9,2.1-2.4,2.8
		c-0.7,0.5-1,0.7-1.4,0.7c0,0-0.2,0-0.2-0.2c0.2,0,0.2-0.3,0.4-0.9c0.3-1.6,1.7-3.8,3.8-6.4c0.3-0.3,0.5-0.7,0.5-0.7
		c0.3-0.2,0-0.9,0-1c-0.2-0.2-0.5-0.2-0.7-0.2s-0.7,0.2-0.9,0.3c-0.4,0.2-0.7,0.7-0.7,1c-2.1,2.8-3.6,4.9-4.7,6.1
		c-1,1.2-2.1,1.7-2.4,1.7c-0.2,0-0.3,0-0.3-0.2c0,0,0-0.3,0.2-0.9c0.2-0.5,0.5-1.4,1.4-2.6s1.7-2.6,2.9-4c0.2,0,0.5-0.2,0.5-0.3
		l0.2-0.2c0-0.3,0-0.9,0-1c-0.2-0.2-0.5-0.2-0.8-0.2c-0.2,0-0.4,0-0.5,0.2c-0.2,0-0.7,0.3-0.9,0.5c-1.1,1.2-2.1,2.6-2.8,4
		c-0.4,0.6-0.7,1.2-1,1.8c-0.4,0.3-0.6,0.7-0.9,1c-0.9,0.7-1.4,1.5-2.1,1.9c-0.3,0.2-1,0.5-1.2,0.5c-0.2,0-0.3-0.3-0.3-0.5
		c0-0.2,0-1,0.2-1.6c0.2-0.2,0.2-0.7,0.3-0.9c0-0.3,0.3-0.7,0.5-0.9c3.1-3.1,5.9-6.2,8.2-9.2c2.2-2.8,3.4-4.7,3.8-5.7
		c0-0.3,0-1-0.3-1.4c-0.3-0.5-0.9-0.9-1.2-0.9c-0.4,0-0.9,0.2-1.4,0.3c-0.5,0.3-0.9,0.7-0.9,0.9c-0.2,0.2,0,0.3,0,0.3l-0.2,0.3
		c-1.4,2.1-3.1,4.5-4.7,6.8c-1.6,2.4-2.9,4.9-4.5,7.5c-0.2,0.2-0.9,0.5-1.2,0.5s-0.7,0.2-0.7,0.2c0,0.3,0,0.5,0,0.7
		c0,0.2,0.4,0.3,0.5,0.3h0.2l0.2-0.2v0.2c0,0.2-0.2,0.7-0.3,0.9c0,0.2-0.2,0.5-0.2,0.7c-0.4,0.9-0.4,1.6,0,2.1c0.2,0.5,0.7,1,1.4,1
		c0.4,0,0.9-0.2,1.2-0.2c0.3-0.3,0.7-0.7,1.2-0.9c0.3-0.3,0.8-0.8,1.4-1.2c0,0,0,0.1-0.1,0.1c0,0.2,0.2,0.3,0.5,0.5
		c0,0.3,0.2,0.7,0.3,0.7s0.5,0,0.9,0c0.3,0,0.9-0.2,1.7-0.7c0.3-0.3,1.2-1.2,2.2-2.1c0,0.1-0.1,0.2-0.1,0.3c0,0.2-0.4,0.3-0.4,0.3
		c-0.2,0.9-0.2,1.4,0,1.9c0.4,0.5,0.7,0.7,1.2,0.7s0.9-0.2,1.2-0.3c0.4-0.1,0.9-0.4,1.4-0.9l0,0c0,0.2,0,0.3,0.4,0.3
		c0,0,0.3,0.2,0.9,0.3c0.3,0.2,0.7,0.7,0.9,0.7c0.2,0,0.5,0.2,0.9,0.2c0.5,0,1.4-0.2,1.9-0.3c0.7-0.5,1.2-0.9,1.9-1.4
		c0.9-1,2.1-2.2,3-3.5c0.9-1.2,1.4-2.4,1.6-3.3c0.5-0.7,0.5-1.6,0.2-1.9c0-0.7-0.3-0.9-0.9-0.9c-0.7,0-1.2,0.2-2.1,0.7
		c-0.8,0.3-1.5,0.8-2.4,1.6c1.2-2.1,2.3-3.7,3.5-5.2c1.2-1.9,1.9-2.8,2.4-3.3c0,0,0.3-0.2,0.5-0.3c0.5-0.2,0.7-0.3,0.7-0.3
		s0-0.3,0-0.5C-342.7,661.8-342.9,661.6-343.2,661.6L-343.2,661.6z M-362.4,666.8c1.4-1.9,3.1-4.4,4.6-6.8c0.2,0,0.5,0,0.5,0h0.2
		c0,0,0,0.2,0,0.3c-0.2,0.7-1.2,2.3-3.1,4.7c-1.6,2.4-3.8,5-5.9,7.6l-0.2,0.2C-365.2,671-363.7,669.1-362.4,666.8L-362.4,666.8z
		 M-346.3,670.6c0.2,0,0.3,0.2,0.3,0.5c0,0,0,0.3,0,0.5c-0.3,0.5-0.7,1.5-1.6,2.6c-0.9,1-1.9,2.4-2.6,3.5c-0.7,0.5-1.2,1.2-1.6,1.4
		c-0.5,0.2-0.9,0.2-1.2,0.2c-0.5,0-0.7,0-0.9-0.2c0-0.2,0-0.7,0.2-1c0.2-0.9,0.7-1.6,1.2-2.6c0.7-0.5,1.4-1.4,2.2-2.3
		c0.7-0.7,1.7-1.5,2.4-1.9C-347.2,670.8-346.5,670.6-346.3,670.6L-346.3,670.6z"/>
	<path fill="#FFFFFF" d="M-366.9,658.8c0.9,0.2,1.6,0.7,1.9,1.4c0.2,0.5,0.5,1.2,0.2,1.9c-0.2,0.7-0.5,1-0.9,1.4
		c-0.3,0.2-0.9,0.3-1.2,0.3c-0.2,0-0.5,0-0.5-0.2c-0.2-0.2-0.2-0.9,0-1.6c0-0.3,0-0.7-0.2-1c-0.2-0.2-0.7-0.2-1.1-0.2
		c-0.7,0-1.7,0.2-2.9,0.9c-1.2,1-2.6,2.1-3.8,3.7c-2.1,1.6-4,3.8-5.2,5.9c-1.6,2.4-2.8,4.7-3.3,6.4c-0.3,1.4-0.3,2.3,0,3
		c0.2,0.9,1.1,1.2,2.1,1.2c0.7,0,1.6,0,2.2-0.3c0.9-0.2,1.9-0.9,3-1.4c0.5-0.2,1.2-0.7,2.1-1c0.9-0.5,1.2-1,1.6-1
		c0.2,0,0.3,0.3,0.3,0.3c-0.2,0,0,0.2,0,0.3c-0.2,0.3-0.3,0.7-0.9,1c-0.3,0.3-1.4,0.9-1.9,1.6c-1.2,0.7-2.4,1.4-3.5,1.6
		c-1.2,0.7-2.2,1-2.9,1c-2.1,0-3.5-0.7-4.3-1.7c-0.9-1-1-2.8-0.3-4.5c0.3-1.9,1.7-4,3.5-6.6c1.7-2.8,4.2-5.6,6.8-8.1
		c1.4-1.9,2.8-3.3,4.2-4c1-0.9,2.1-1.4,2.8-1.4c0.2,0,0.7,0.3,1.1,0.3C-367.5,658.2-367.1,658.7-366.9,658.8L-366.9,658.8
		L-366.9,658.8L-366.9,658.8L-366.9,658.8z"/>
	<path fill="#FFFFFF" d="M-325,737.2c0,2.2-1.7,4-4,4c-1.5,0-2.7-0.7-3.4-1.8c-0.7,1.1-1.9,1.8-3.4,1.8s-2.8-0.8-3.5-2
		c-0.5,0.9-1.3,1.5-2.3,1.8v30.4h-2.1v-30.3c-1.2-0.3-2.2-1-2.7-2.1c-0.6,1.3-2,2.2-3.6,2.2c-1.5,0-2.7-0.7-3.4-1.8
		c-0.7,1.1-1.9,1.8-3.4,1.8c-2.2,0-4-1.7-4-4c0-2.3,1.7-4,4-4c1.5,0,2.7,0.7,3.4,1.9c0.7-1.1,1.9-1.9,3.4-1.9c1.6,0,2.9,0.9,3.6,2.2
		c0.6-1.3,2-2.2,3.5-2.2s2.8,0.8,3.5,2c0.7-1.2,1.9-2,3.5-2c1.4,0,2.7,0.7,3.4,1.9c0.7-1.1,1.9-1.9,3.4-1.9
		C-326.7,733.2-325,735-325,737.2L-325,737.2z"/>
</g>
</svg>
