<?xml version="1.0" encoding="utf-8"?>
<!-- Generator: Adobe Illustrator 19.1.0, SVG Export Plug-In . SVG Version: 6.00 Build 0)  -->
<svg version="1.1" id="Layer_1" xmlns="http://www.w3.org/2000/svg" xmlns:xlink="http://www.w3.org/1999/xlink" x="0px" y="0px"
	 viewBox="-417.5 622.1 175.8 171.7" enable-background="new -417.5 622.1 175.8 171.7" xml:space="preserve">
<g>
	<path fill="#FFFFFF" d="M-416.2,625.4h172.1c0,0,16.5,115.2-85.6,165.4C-426.5,745.1-416.2,625.4-416.2,625.4z"/>
	<path fill="#323991" d="M-414.6,622.1h169.9h2.5l0.1,2.5c2.2,48.4-5.5,83.2-20.7,109.6c-15.2,26.5-37.9,44.4-65.6,59l-1.2,0.6
		l-1.2-0.6c-27.7-14.6-50.4-32.5-65.6-59c-15.2-26.4-22.9-61.2-20.7-109.6l0.1-2.5H-414.6L-414.6,622.1z M-412,654.3h164.8
		c0.4-8.5,0.4-17.5,0.1-27h-164.9C-412.4,636.8-412.4,645.8-412,654.3L-412,654.3z M-247.5,659.5h-164.2c2,29.9,8.9,53.3,19.8,72.1
		c14.5,25.1,36,42.3,62.3,56.3c26.3-14,47.9-31.2,62.3-56.3C-256.5,712.8-249.6,689.4-247.5,659.5L-247.5,659.5z"/>
	<path fill="#323991" d="M-392.2,656.9V736c-13.9-22.5-21.2-49.1-23-79.1H-392.2L-392.2,656.9z"/>
	<polygon fill="#323991" points="-374.3,656.9 -356.4,656.9 -356.4,774.5 -374.3,759.5 	"/>
	<path fill="#323991" d="M-267.1,656.9h22c-1.4,32.4-9.5,57.7-22,78V656.9L-267.1,656.9z"/>
	<polygon fill="#323991" points="-302.8,656.9 -284.9,656.9 -284.9,758.6 -302.8,774.4 	"/>
	<polygon fill="#323991" points="-338.6,656.9 -320.7,656.9 -320.7,786.2 -329.6,790.8 -338.6,786.6 	"/>
	<path fill="#323991" d="M-386.3,648.5l-7.9,0l-1.1,3.7h-7.1l8.4-22.4h7.5l8.4,22.4h-7.2L-386.3,648.5L-386.3,648.5z M-387.7,643.7
		l-2.5-8l-2.5,8L-387.7,643.7L-387.7,643.7z M-379.7,629.9l7.2,0l5,16.1l5-16.1h7l-8.3,22.4h-7.5L-379.7,629.9L-379.7,629.9z
		 M-341.2,648.5l-7.9,0l-1.1,3.7h-7.1l8.4-22.4h7.5l8.4,22.4h-7.2L-341.2,648.5L-341.2,648.5z M-342.7,643.7l-2.5-8l-2.5,8
		L-342.7,643.7L-342.7,643.7z M-330.4,629.9l6.9,0v22.4h-6.9V629.9L-330.4,629.9z M-297.7,629.9l17.1,0v4.8h-10.1v3.9h8.7v4.5h-8.7
		v9.1h-6.9V629.9L-297.7,629.9z M-262,643.1l6.1,1.8c-0.4,1.7-1,3.1-1.9,4.3c-0.9,1.1-2,2-3.3,2.6c-1.3,0.6-2.9,0.9-4.9,0.9
		c-2.4,0-4.4-0.4-6-1.1c-1.5-0.7-2.9-2-4-3.7c-1.1-1.8-1.7-4.1-1.7-6.8c0-3.7,1-6.5,2.9-8.5c2-2,4.8-3,8.4-3c2.8,0,5,0.6,6.6,1.7
		c1.6,1.1,2.8,2.9,3.6,5.2l-6.1,1.4c-0.2-0.7-0.4-1.2-0.7-1.5c-0.4-0.5-0.9-0.9-1.4-1.2c-0.6-0.3-1.2-0.4-1.9-0.4
		c-1.6,0-2.8,0.6-3.6,1.9c-0.6,0.9-0.9,2.4-0.9,4.4c0,2.5,0.4,4.2,1.1,5.1c0.8,0.9,1.8,1.4,3.2,1.4c1.3,0,2.3-0.4,3-1.1
		C-262.8,645.6-262.3,644.5-262,643.1L-262,643.1C-262,643.1-262,643.1-262,643.1z"/>
	<polygon fill="#323991" points="-329.6,628.5 -325.7,628.5 -321.7,625.8 -325.5,625.4 	"/>
</g>
</svg>
