<?xml version="1.0" encoding="utf-8"?>
<!-- Generator: Adobe Illustrator 19.1.0, SVG Export Plug-In . SVG Version: 6.00 Build 0)  -->
<svg version="1.1" id="Layer_1" xmlns="http://www.w3.org/2000/svg" xmlns:xlink="http://www.w3.org/1999/xlink" x="0px" y="0px"
	 viewBox="-417.5 618 175.7 175.7" enable-background="new -417.5 618 175.7 175.7" xml:space="preserve">
<g>
	<path fill="#3F7249" d="M-329.6,618L-329.6,618c24.2,0,46.2,9.9,62.1,25.8c15.9,15.9,25.8,37.9,25.8,62.1l0,0v0
		c0,24.2-9.9,46.1-25.8,62.1s-37.9,25.8-62.1,25.8h0l0,0c-24.2,0-46.2-9.9-62.1-25.8c-15.9-15.9-25.8-37.9-25.8-62.1v0l0,0
		c0-24.2,9.9-46.2,25.8-62.1C-375.8,627.9-353.8,618-329.6,618L-329.6,618L-329.6,618z M-329.6,619.4L-329.6,619.4L-329.6,619.4
		c-23.8,0-45.4,9.7-61.1,25.4c-15.7,15.7-25.4,37.3-25.4,61.1l0,0v0c0,23.8,9.7,45.4,25.4,61c15.7,15.7,37.3,25.4,61.1,25.4l0,0h0
		c23.8,0,45.4-9.7,61.1-25.4c15.7-15.7,25.4-37.3,25.4-61v0l0,0c0-23.8-9.7-45.4-25.4-61.1C-284.2,629.1-305.8,619.4-329.6,619.4
		L-329.6,619.4z"/>
	<path fill="#FFFFFF" d="M-329.6,619.4c47.6,0,86.4,38.8,86.4,86.4c0,47.5-38.8,86.4-86.4,86.4s-86.4-38.8-86.4-86.4
		C-416,658.3-377.2,619.4-329.6,619.4L-329.6,619.4L-329.6,619.4z"/>
	<path fill="#3F7249" d="M-329.6,622c46.2,0,83.9,37.7,83.9,83.9c0,46.1-37.7,83.8-83.9,83.8s-83.9-37.7-83.9-83.8
		C-413.5,659.7-375.8,622-329.6,622L-329.6,622L-329.6,622z"/>
	<path fill="#FFFFFF" d="M-400.2,726.1l0-2.6l0,0c1.5-0.1,2.7,0.2,3.6,0.9c0.9,0.6,1.6,1.6,2,2.9c0.5,1.6,0.4,3.2-0.4,4.5
		c-0.8,1.4-2.1,2.4-4,3c-2,0.7-3.8,0.7-5.2,0c-1.5-0.7-2.5-1.9-3-3.6c-0.5-1.5-0.4-2.9,0.1-4.1c0.3-0.7,1-1.4,1.9-2l0,0l1.4,2.3l0,0
		c-0.6,0.3-1,0.8-1.2,1.4c-0.2,0.6-0.2,1.2,0,1.8c0.3,0.9,0.8,1.5,1.7,1.9c0.8,0.3,2,0.3,3.4-0.2c1.5-0.5,2.5-1.2,3-1.9
		c0.5-0.8,0.6-1.6,0.3-2.5c-0.2-0.7-0.6-1.2-1.2-1.5C-398.4,726.2-399.2,726-400.2,726.1L-400.2,726.1L-400.2,726.1z M-403.4,719.9
		c-1.3,0.2-2.4,0.1-3.4-0.2c-0.7-0.2-1.3-0.5-1.9-1c-0.6-0.4-1-0.9-1.4-1.5c-0.4-0.8-0.7-1.6-0.8-2.7c-0.2-1.9,0.2-3.5,1.2-4.7
		c1-1.2,2.6-2,4.7-2.3c2.1-0.2,3.7,0.1,5,1.1s2.1,2.4,2.3,4.2c0.2,1.9-0.2,3.5-1.2,4.7C-399.8,718.9-401.3,719.7-403.4,719.9
		L-403.4,719.9L-403.4,719.9z M-403.8,717.3c1.4-0.2,2.5-0.6,3.2-1.4c0.7-0.8,0.9-1.6,0.8-2.7c-0.1-1-0.6-1.8-1.4-2.4
		c-0.8-0.6-2-0.8-3.5-0.6c-1.4,0.2-2.5,0.6-3.1,1.4c-0.7,0.7-0.9,1.6-0.8,2.7c0.1,1.1,0.6,1.9,1.4,2.4
		C-406.4,717.3-405.2,717.5-403.8,717.3L-403.8,717.3L-403.8,717.3z M-398.6,703.4l-12.7-1.8l0.8-5.4l0,0c0.2-1.4,0.4-2.3,0.8-2.9
		s0.8-1,1.4-1.3c0.6-0.3,1.3-0.4,2.1-0.3c1,0.1,1.7,0.5,2.3,1.2c0.5,0.6,0.8,1.5,0.8,2.7c0.4-0.5,0.8-0.9,1.3-1.2
		c0.4-0.3,1.2-0.7,2.3-1.2l0,0l2.7-1.2l-0.4,3.1l-3,1.5l0,0c-1.1,0.5-1.8,0.9-2.1,1.1c-0.3,0.2-0.5,0.4-0.6,0.7
		c-0.1,0.3-0.3,0.7-0.3,1.3l0,0l-0.1,0.5l5.3,0.8L-398.6,703.4L-398.6,703.4L-398.6,703.4z M-405.6,699.8l0.3-1.9l0,0
		c0.2-1.2,0.2-2,0.2-2.3c-0.1-0.3-0.2-0.6-0.4-0.8c-0.2-0.2-0.5-0.3-0.9-0.4c-0.4-0.1-0.8,0-1.1,0.2c-0.3,0.2-0.5,0.5-0.6,0.9
		c-0.1,0.2-0.2,0.8-0.3,1.9l0,0l-0.3,2L-405.6,699.8L-405.6,699.8L-405.6,699.8z M-396.3,689.2l-12.3-3.8l0.8-2.5l12.3,3.8
		L-396.3,689.2L-396.3,689.2L-396.3,689.2z M-393.4,680.3l-9.7-4.5l-1.6,3.4l-2-0.9l4.3-9.2l2,0.9l-1.6,3.4l9.7,4.5L-393.4,680.3
		L-393.4,680.3L-393.4,680.3z M-389.2,671.9l-11.1-6.4l1.3-2.3l11.1,6.4L-389.2,671.9L-389.2,671.9L-389.2,671.9z M-395.6,657.5
		l3.4-3.8l0,0c0.7-0.8,1.2-1.3,1.6-1.6c0.4-0.3,0.8-0.5,1.3-0.6c0.5-0.1,1-0.1,1.5,0c0.5,0.1,1,0.3,1.4,0.7c0.4,0.4,0.7,0.9,0.9,1.5
		c0.1,0.6,0.1,1.2-0.1,1.7c0.7-0.4,1.4-0.6,2.1-0.6c0.7,0.1,1.3,0.3,1.9,0.8c0.4,0.4,0.8,0.9,1,1.4s0.3,1.1,0.2,1.7
		c-0.1,0.6-0.3,1.1-0.7,1.7c-0.2,0.3-0.9,1.1-2,2.4l0,0l-2.9,3.2L-395.6,657.5L-395.6,657.5L-395.6,657.5z M-392.3,657l2.2,2
		l1.2-1.3l0,0c0.7-0.8,1.1-1.2,1.2-1.4c0.3-0.4,0.4-0.7,0.4-1.1c0-0.3-0.2-0.7-0.5-1c-0.3-0.3-0.6-0.4-1-0.4c-0.3,0-0.7,0.1-1,0.4
		c-0.2,0.2-0.7,0.7-1.5,1.6l0,0L-392.3,657L-392.3,657L-392.3,657z M-388.5,660.4l2.5,2.3l1.6-1.8l0,0c0.6-0.7,1-1.2,1.1-1.4
		c0.2-0.3,0.3-0.7,0.3-1.1c-0.1-0.3-0.2-0.7-0.6-1c-0.3-0.3-0.6-0.4-0.9-0.5c-0.3,0-0.7,0-1,0.2c-0.3,0.2-0.9,0.7-1.7,1.6l0,0
		L-388.5,660.4L-388.5,660.4L-388.5,660.4z M-367.3,648.3l-2.2,1.7l-2.7-1.6l-4,3.1l1,2.9l-2.2,1.7l-4-13.2l2.2-1.7L-367.3,648.3
		L-367.3,648.3L-367.3,648.3z M-374.2,647.2l-4.3-2.7l1.6,4.8L-374.2,647.2L-374.2,647.2L-374.2,647.2z M-361.4,645l-5.2-11.7l8-3.6
		l0.9,2l-5.7,2.5l1.2,2.8l4.9-2.2l0.9,2l-4.9,2.2l2.2,5L-361.4,645L-361.4,645L-361.4,645z M-352,634c-0.3-1.3-0.4-2.4-0.2-3.3
		c0.1-0.7,0.4-1.4,0.8-2c0.4-0.6,0.8-1.1,1.4-1.5c0.7-0.5,1.6-0.9,2.6-1.1c1.8-0.4,3.5-0.2,4.8,0.7c1.4,0.9,2.3,2.3,2.8,4.4
		c0.5,2,0.3,3.7-0.6,5.1c-0.8,1.4-2.2,2.3-4,2.7c-1.9,0.4-3.5,0.2-4.8-0.7C-350.6,637.5-351.6,636-352,634L-352,634L-352,634z
		 M-349.4,633.4c0.3,1.4,0.9,2.4,1.7,3c0.8,0.6,1.8,0.8,2.7,0.5c1-0.2,1.8-0.8,2.2-1.6c0.5-0.9,0.5-2.1,0.2-3.5
		c-0.3-1.4-0.9-2.4-1.7-3c-0.8-0.5-1.7-0.7-2.7-0.5c-1,0.3-1.8,0.8-2.3,1.6C-349.7,630.8-349.8,631.9-349.4,633.4L-349.4,633.4
		L-349.4,633.4z M-335.4,630.9c0-1.3,0.3-2.4,0.7-3.3c0.3-0.6,0.7-1.2,1.2-1.7s1.1-0.9,1.7-1.1c0.8-0.3,1.7-0.5,2.8-0.5
		c1.9,0,3.4,0.7,4.5,1.8c1.1,1.2,1.6,2.8,1.6,4.9c0,2.1-0.6,3.7-1.8,4.8c-1.1,1.2-2.6,1.7-4.5,1.7c-1.9,0-3.4-0.6-4.5-1.8
		C-334.9,634.5-335.5,632.9-335.4,630.9L-335.4,630.9L-335.4,630.9z M-332.7,630.8c0,1.5,0.3,2.6,1,3.3c0.6,0.8,1.5,1.2,2.5,1.2
		c1,0,1.9-0.3,2.6-1.1c0.7-0.8,1-1.8,1-3.4c0-1.4-0.3-2.6-0.9-3.3c-0.6-0.7-1.5-1.1-2.5-1.1c-1.1,0-1.9,0.3-2.6,1
		C-332.4,628.2-332.7,629.3-332.7,630.8L-332.7,630.8L-332.7,630.8z M-316.9,638.4l2.2-10.4l-3.7-0.8l0.4-2.1l10,2.1l-0.4,2.1
		l-3.7-0.8l-2.2,10.4L-316.9,638.4L-316.9,638.4L-316.9,638.4z M-298.2,630.6l4.6,2.3l0,0c0.9,0.5,1.6,0.8,2,1.2
		c0.4,0.3,0.7,0.6,1,1.1c0.2,0.4,0.4,0.9,0.4,1.4c0,0.5-0.1,1-0.3,1.5c-0.3,0.5-0.7,1-1.2,1.2c-0.5,0.3-1.1,0.4-1.7,0.4
		c0.6,0.6,1,1.2,1.1,1.9c0.1,0.7,0,1.3-0.3,2c-0.3,0.5-0.6,1-1.1,1.3c-0.5,0.4-1,0.6-1.6,0.7c-0.6,0.1-1.2,0-1.8-0.2
		c-0.4-0.1-1.4-0.6-2.8-1.4l0,0l-3.9-2L-298.2,630.6L-298.2,630.6L-298.2,630.6z M-296.8,633.7l-1.4,2.6l1.5,0.8l0,0
		c0.9,0.5,1.5,0.7,1.7,0.8c0.4,0.2,0.8,0.2,1.2,0.1c0.3-0.1,0.6-0.3,0.8-0.7c0.2-0.4,0.2-0.7,0.1-1c-0.1-0.3-0.3-0.6-0.7-0.9
		c-0.2-0.1-0.9-0.5-2-1l0,0L-296.8,633.7L-296.8,633.7L-296.8,633.7z M-299.1,638.3l-1.5,3.1l2.1,1.1l0,0c0.8,0.4,1.4,0.7,1.6,0.7
		c0.4,0.1,0.8,0.1,1.1,0c0.3-0.1,0.6-0.4,0.8-0.8c0.2-0.3,0.2-0.7,0.2-1c-0.1-0.3-0.2-0.6-0.5-0.9c-0.3-0.3-0.9-0.7-2-1.2l0,0
		L-299.1,638.3L-299.1,638.3L-299.1,638.3z M-282.2,656l-2.2-1.7l0.9-3l-4-3.2l-2.6,1.6l-2.2-1.7l11.8-7.1l2.2,1.7L-282.2,656
		L-282.2,656L-282.2,656z M-282.9,649.1l1.6-4.9l-4.3,2.7L-282.9,649.1L-282.9,649.1L-282.9,649.1z M-280.3,658.3l9.5-8.5l1.7,1.9
		l-7.8,7.1l4.3,4.8l-1.6,1.4L-280.3,658.3L-280.3,658.3L-280.3,658.3z M-272.4,667.8l11-6.4l1.3,2.3l-9.1,5.3l3.2,5.6l-1.9,1.1
		L-272.4,667.8L-272.4,667.8L-272.4,667.8z M-258.2,688.6l0,2.6l0,0c-1.4,0-2.6-0.3-3.6-0.9c-0.9-0.7-1.6-1.6-2-3
		c-0.5-1.6-0.3-3.1,0.4-4.5c0.8-1.4,2.2-2.4,4.1-3c2-0.6,3.8-0.6,5.2,0.1c1.4,0.7,2.4,1.9,3,3.6c0.4,1.5,0.4,2.9-0.2,4.1
		c-0.3,0.7-1,1.4-1.9,1.9l0,0l-1.3-2.3l0,0c0.6-0.3,1-0.8,1.2-1.4c0.2-0.6,0.2-1.2,0-1.9c-0.3-0.9-0.8-1.5-1.6-1.9
		c-0.8-0.4-2-0.3-3.4,0.1c-1.6,0.5-2.6,1.1-3.1,1.9c-0.5,0.8-0.6,1.6-0.3,2.5c0.2,0.7,0.6,1.2,1.2,1.5
		C-260,688.5-259.2,688.7-258.2,688.6L-258.2,688.6L-258.2,688.6z M-261.6,696.3l12.7-1.1l0.2,2.6l-10.5,0.9l0.5,6.4l-2.1,0.2
		L-261.6,696.3L-261.6,696.3L-261.6,696.3z M-248,710.1l-0.3,2.6l-6.9-0.8l0,0c-1.1-0.1-1.8-0.2-2.1-0.2c-0.5,0.1-1,0.3-1.4,0.6
		c-0.3,0.4-0.6,0.9-0.7,1.6c-0.1,0.7,0,1.3,0.2,1.7s0.6,0.7,1,0.8c0.4,0.1,1.2,0.3,2.2,0.4l0,0l7,0.9l-0.3,2.5l-6.7-0.8l0,0
		c-1.5-0.2-2.6-0.4-3.2-0.6c-0.6-0.2-1.1-0.5-1.5-0.9c-0.4-0.4-0.7-1-0.9-1.6c-0.2-0.7-0.2-1.5-0.1-2.5c0.1-1.2,0.4-2.1,0.8-2.7
		c0.3-0.6,0.8-1,1.3-1.3c0.5-0.3,1-0.5,1.5-0.5c0.8-0.1,1.8,0,3.3,0.1l0,0L-248,710.1L-248,710.1L-248,710.1z M-250.8,726.6
		l-1.6,4.9l0,0c-0.3,1-0.6,1.7-0.8,2.1c-0.2,0.4-0.6,0.8-0.9,1.1s-0.8,0.5-1.3,0.6c-0.5,0.1-1,0.1-1.5-0.1c-0.6-0.2-1-0.5-1.4-1
		c-0.4-0.5-0.6-1-0.7-1.6c-0.4,0.7-1,1.1-1.6,1.4c-0.7,0.2-1.3,0.2-2.1,0c-0.5-0.2-1-0.5-1.5-0.9c-0.5-0.4-0.8-0.9-0.9-1.5
		c-0.2-0.6-0.2-1.2,0-1.8c0.1-0.4,0.4-1.4,0.9-3l0,0l1.4-4.2L-250.8,726.6L-250.8,726.6L-250.8,726.6z M-253.6,728.4l-2.8-0.9
		l-0.5,1.6l0,0c-0.3,1-0.5,1.6-0.5,1.8c-0.1,0.5-0.1,0.8,0.1,1.2c0.1,0.3,0.4,0.5,0.8,0.7c0.4,0.1,0.7,0.1,1,0
		c0.3-0.1,0.5-0.4,0.7-0.8c0.1-0.2,0.3-0.9,0.7-2.1l0,0L-253.6,728.4L-253.6,728.4L-253.6,728.4z M-258.4,726.8l-3.3-1l-0.7,2.3l0,0
		c-0.3,0.9-0.5,1.4-0.5,1.7c0,0.4,0,0.7,0.2,1c0.2,0.3,0.5,0.6,0.9,0.7c0.4,0.1,0.7,0.1,1,0c0.3-0.1,0.6-0.3,0.8-0.6
		c0.2-0.3,0.5-1,0.9-2.1l0,0L-258.4,726.8L-258.4,726.8L-258.4,726.8z"/>
	<path fill="#FFFFFF" d="M-389.1,750.4c1.4,0,2.6,1.2,2.6,2.7c0,1.4-1.2,2.6-2.6,2.6c-1.5,0-2.7-1.2-2.7-2.6
		C-391.7,751.6-390.5,750.4-389.1,750.4L-389.1,750.4L-389.1,750.4z M-270.2,750.4c-1.4,0-2.6,1.2-2.6,2.7c0,1.4,1.2,2.6,2.6,2.6
		s2.6-1.2,2.6-2.6C-267.6,751.6-268.7,750.4-270.2,750.4L-270.2,750.4L-270.2,750.4z M-377.3,772.3l7-10.8l3.5,2.3l0,0
		c1.3,0.9,2.1,1.5,2.5,1.8c0.5,0.5,0.8,1.2,0.9,2.1c0.1,0.8-0.2,1.6-0.8,2.5c-0.4,0.7-0.9,1.2-1.4,1.4c-0.5,0.3-1.1,0.5-1.6,0.5
		c-0.5,0-1-0.1-1.5-0.2c-0.6-0.2-1.4-0.7-2.3-1.3l0,0l-1.4-0.9l-2.6,4.1L-377.3,772.3L-377.3,772.3L-377.3,772.3z M-369.3,764.7
		l-2,3.1l1.2,0.8l0,0c0.9,0.5,1.5,0.9,1.8,1c0.4,0.1,0.7,0,1-0.1c0.3-0.1,0.6-0.4,0.8-0.7c0.3-0.4,0.3-0.8,0.3-1.2s-0.3-0.8-0.6-1
		c-0.2-0.2-0.7-0.6-1.5-1.1l0,0L-369.3,764.7L-369.3,764.7L-369.3,764.7z M-352.4,784.8l-2.6-1.1l0.1-3.1l-4.7-1.9l-2.1,2.3l-2.5-1
		l9.4-10l2.5,1L-352.4,784.8L-352.4,784.8L-352.4,784.8z M-354.9,778.3l0.1-5.1l-3.4,3.8L-354.9,778.3L-354.9,778.3L-354.9,778.3z
		 M-345.2,786.1l1.8-12.7l5.4,0.8l0,0c1.4,0.2,2.3,0.5,2.9,0.8s1,0.8,1.3,1.4c0.3,0.6,0.4,1.3,0.3,2.1c-0.1,1-0.5,1.7-1.2,2.3
		c-0.7,0.5-1.6,0.8-2.7,0.8c0.5,0.4,0.9,0.8,1.2,1.3c0.3,0.4,0.7,1.2,1.2,2.3l0,0l1.2,2.7l-3.1-0.4l-1.4-3l0,0
		c-0.5-1.1-0.9-1.8-1.1-2.1c-0.2-0.3-0.4-0.5-0.7-0.6c-0.3-0.1-0.7-0.3-1.3-0.3l0,0l-0.5-0.1l-0.8,5.3L-345.2,786.1L-345.2,786.1
		L-345.2,786.1z M-341.6,779.1l1.9,0.3l0,0c1.2,0.2,2,0.2,2.3,0.2c0.3-0.1,0.6-0.2,0.8-0.4c0.2-0.2,0.3-0.5,0.4-0.9
		c0.1-0.4,0-0.8-0.2-1.1c-0.2-0.3-0.5-0.5-0.9-0.6c-0.2-0.1-0.8-0.1-1.9-0.3l0,0l-2-0.3L-341.6,779.1L-341.6,779.1L-341.6,779.1z
		 M-315.1,786.6l-2.8,0.2l-1.4-2.8l-5.1,0.5l-0.8,3l-2.7,0.3l3.8-13.2l2.7-0.2L-315.1,786.6L-315.1,786.6L-315.1,786.6z
		 M-320.3,781.9l-2.2-4.6l-1.3,4.9L-320.3,781.9L-320.3,781.9L-320.3,781.9z M-308,784.9l-4.4-12l2.4-0.9l7.9,6.3l-2.9-8.1l2.3-0.8
		l4.4,12.1l-2.5,0.9l-7.7-6.1l2.9,7.9L-308,784.9L-308,784.9L-308,784.9z M-281,771.6l-2.3,1.5l-2.5-1.8l-4.3,2.8l0.7,3l-2.3,1.5
		l-2.8-13.5l2.3-1.5L-281,771.6L-281,771.6L-281,771.6z M-287.8,769.9l-4.1-3l1.2,4.9L-287.8,769.9L-287.8,769.9L-287.8,769.9z
		 M-286.6,759.4l-1.8,1.1l0,0c-0.3,1.2,0.5,3.6,1.2,4l0,0l0.6-0.4l0,0C-287,762.3-286.8,760.8-286.6,759.4L-286.6,759.4
		L-286.6,759.4z"/>
	<path fill="#FFFFFF" d="M-329.6,639.3c36.7,0,66.6,29.9,66.6,66.6c0,36.6-29.9,66.6-66.6,66.6s-66.6-29.9-66.6-66.6
		C-396.2,669.2-366.3,639.3-329.6,639.3L-329.6,639.3L-329.6,639.3z"/>
	<path fill="#3F7249" d="M-329.6,642.4c35,0,63.5,28.6,63.5,63.5c0,34.9-28.6,63.5-63.5,63.5s-63.5-28.6-63.5-63.5
		C-393.1,670.9-364.6,642.4-329.6,642.4L-329.6,642.4L-329.6,642.4z"/>
	<path fill="#FFFFFF" d="M-286.9,752.8c-8.6-13.5-24.6-22.6-42.7-22.6c-18.2,0-34.1,9.1-42.7,22.6c7.3,6.7,16.2,11.7,26.1,14.4
		c4.3-3.2,10.2-5.1,16.6-5.1c6.5,0,12.4,1.9,16.6,5.1C-303.1,764.5-294.2,759.5-286.9,752.8L-286.9,752.8L-286.9,752.8z M-286.9,659
		c-8.6,13.5-24.6,22.6-42.7,22.6c-18.2,0-34.1-9.1-42.7-22.6c7.3-6.7,16.2-11.7,26.1-14.4c4.3,3.2,10.2,5.1,16.6,5.1
		c6.5,0,12.4-2,16.6-5.1C-303.1,647.3-294.2,652.3-286.9,659L-286.9,659L-286.9,659z"/>
	<path fill="#3F7249" d="M-297,670.8c-2.5-5.1-5.4-9.4-9-13.3c-3.6-3.9-7.8-7.3-12.9-10.3l0.6-0.9c5.2,3.1,9.5,6.6,13.1,10.5
		c3.6,4,6.6,8.4,9.2,13.6L-297,670.8L-297,670.8z"/>
	<path fill="#3F7249" d="M-312.2,679.2L-312.2,679.2c-0.1-1.4-0.3-2.9-0.6-4.4c-0.3-1.5-0.7-3-1.1-4.6c-2.3-7.9-6.5-16-10.5-22
		l0.9-0.6c4,6.1,8.2,14.3,10.6,22.3c0.5,1.6,0.9,3.1,1.2,4.7c0.3,1.5,0.5,3.1,0.7,4.5v0L-312.2,679.2L-312.2,679.2z"/>
	<polygon fill="#3F7249" points="-330.2,682.5 -330.2,648.9 -329.1,648.9 -329.1,682.5 	"/>
	<path fill="#3F7249" d="M-348.1,679.1L-348.1,679.1c0.1-1.5,0.3-3,0.7-4.5c0.3-1.5,0.7-3.1,1.2-4.7c2.4-8,6.5-16.2,10.6-22.3
		l0.9,0.6c-4,6-8.1,14.1-10.5,22c-0.4,1.5-0.8,3.1-1.1,4.6c-0.3,1.5-0.5,3-0.6,4.4l0,0L-348.1,679.1L-348.1,679.1z"/>
	<path fill="#3F7249" d="M-363.2,670.3c2.5-5.1,5.5-9.6,9.1-13.6c3.6-4,7.9-7.4,13.1-10.5l0.6,0.9c-5.1,3.1-9.3,6.5-12.9,10.3
		c-3.6,3.9-6.5,8.3-9,13.3L-363.2,670.3L-363.2,670.3z"/>
	<path fill="#3F7249" d="M-296,741.5c-2.5,5.2-5.5,9.6-9.2,13.6c-3.6,4-7.9,7.4-13.1,10.5l-0.6-0.9c5.1-3.1,9.3-6.5,12.9-10.3
		c3.6-3.9,6.5-8.3,9-13.3L-296,741.5L-296,741.5z"/>
	<path fill="#3F7249" d="M-311.2,732.6L-311.2,732.6c-0.1,1.5-0.3,3-0.7,4.5c-0.3,1.5-0.7,3.1-1.2,4.7c-2.4,8-6.5,16.3-10.6,22.3
		l-0.9-0.6c4-6,8.1-14.1,10.5-22c0.4-1.5,0.8-3.1,1.1-4.6c0.3-1.5,0.5-3,0.6-4.4l0,0L-311.2,732.6L-311.2,732.6z"/>
	<polygon fill="#3F7249" points="-329.1,729.3 -329.1,762.8 -330.2,762.8 -330.2,729.3 	"/>
	<path fill="#3F7249" d="M-347,732.5L-347,732.5c0.1,1.4,0.3,2.9,0.6,4.4c0.3,1.5,0.7,3,1.1,4.6c2.3,7.9,6.5,16,10.5,22l-0.9,0.6
		c-4-6.1-8.2-14.3-10.6-22.3c-0.5-1.6-0.9-3.1-1.2-4.7c-0.3-1.5-0.5-3.1-0.7-4.5v0L-347,732.5L-347,732.5z"/>
	<path fill="#3F7249" d="M-362.2,741c2.5,5.1,5.4,9.5,9,13.3c3.6,3.9,7.8,7.3,12.9,10.3l-0.6,0.9c-5.2-3.1-9.5-6.6-13.1-10.5
		c-3.6-4-6.6-8.4-9.1-13.6L-362.2,741L-362.2,741z"/>
	<path fill="#FFFFFF" d="M-322.8,709.2h-6.3v11.4h-6.9v-27.3h15.5v6.4h-8.6v3.6h6.3V709.2L-322.8,709.2L-322.8,709.2z M-349,714.1
		c0,5.4-1.5,7.6-3.8,10.6c-2.2,2.8-5.9,4.3-10.8,4.3c-4.9,0-8.8-2.3-11.5-6.2c-2.7-3.8-4.1-8.8-4.1-15.9c0-7.1,1.2-11.8,3.9-15.7
		c2.7-3.9,6.9-6.5,12-6.2c9.2,0.5,14,8.1,14,16.1l0,0l-9,1l0,0c0-3-1.1-7.4-4.4-7.3c-2.1,0-3.5,1.8-4,3.4c-0.5,1.6-0.8,4.5-0.8,8.6
		c0,2.4-0.1,7,1.2,10.2c0.8,1.9,2,3.4,4.1,3.4c1.9,0,2.9-1.6,3.4-3.5c0.4-1.4,0.5-2.9,0.5-4l0,0L-349,714.1L-349,714.1L-349,714.1z
		 M-280.3,714.1c0,5.4-1.6,7.6-3.8,10.6c-2.2,2.8-5.9,4.3-10.8,4.3c-4.9,0-8.8-2.3-11.5-6.2c-2.7-3.8-4.1-8.8-4.1-15.9
		c0-7.1,1.1-11.8,3.9-15.7c2.7-3.9,6.9-6.5,12-6.2c9.2,0.5,14,8.1,14,16.1l0,0l-9,1l0,0c0-3-1.1-7.4-4.4-7.3c-2.2,0-3.5,1.8-4,3.4
		c-0.5,1.6-0.9,4.5-0.9,8.6c0,2.4-0.1,7,1.2,10.2c0.8,1.9,2,3.4,4.1,3.4c1.9,0,2.9-1.6,3.5-3.5c0.4-1.4,0.5-2.9,0.5-4l0,0
		L-280.3,714.1L-280.3,714.1L-280.3,714.1z"/>
	<path fill="#3F7249" d="M-329.6,641.6L-329.6,641.6c17.7,0,33.7,7.2,45.4,18.9c11.6,11.6,18.9,27.7,18.9,45.4l0,0v0
		c0,17.7-7.2,33.7-18.9,45.4c-11.6,11.6-27.7,18.9-45.4,18.9h0l0,0c-17.7,0-33.7-7.2-45.4-18.9c-11.6-11.6-18.9-27.7-18.9-45.4v0
		l0,0c0-17.7,7.2-33.8,18.9-45.4C-363.4,648.9-347.3,641.6-329.6,641.6L-329.6,641.6L-329.6,641.6z M-329.6,643.1L-329.6,643.1
		L-329.6,643.1c-17.3,0-33,7.1-44.4,18.4c-11.4,11.4-18.4,27.1-18.4,44.4l0,0v0c0,17.3,7.1,33,18.4,44.3
		c11.4,11.4,27.1,18.4,44.4,18.4l0,0h0c17.3,0,33-7.1,44.4-18.4c11.4-11.4,18.4-27.1,18.4-44.3v0l0,0c0-17.3-7.1-33-18.4-44.4
		C-296.6,650.1-312.3,643.1-329.6,643.1L-329.6,643.1z"/>
</g>
</svg>
