<?xml version="1.0" encoding="utf-8"?>
<!-- Generator: Adobe Illustrator 16.0.0, SVG Export Plug-In . SVG Version: 6.00 Build 0)  -->
<!DOCTYPE svg PUBLIC "-//W3C//DTD SVG 1.1//EN" "http://www.w3.org/Graphics/SVG/1.1/DTD/svg11.dtd">
<svg version="1.1" id="Layer_1" xmlns="http://www.w3.org/2000/svg" xmlns:xlink="http://www.w3.org/1999/xlink" x="0px" y="0px"
	 width="276.507px" height="353.342px" viewBox="0 0 276.507 353.342" enable-background="new 0 0 276.507 353.342"
	 xml:space="preserve">
<g>
	<path fill="#FFFFFF" d="M221.227,177.177c0,46.022-36.489,83.331-81.5,83.331s-81.5-37.309-81.5-83.331s36.489-83.331,81.5-83.331
		S221.227,131.155,221.227,177.177"/>
	<path fill="#ED3526" d="M276.354,64.82c-9.973-14.715-18.795-24.101-32.564-34.627l-0.217-0.168l-0.174,0.207l-36.428,41.994
		c-1.248,0.895-2.55,4.877-2.604,7.286c-0.055,2.149,0.075,3.684,0.194,5.041c0.163,1.904,0.293,3.407-0.13,5.8
		c-0.011,0-0.174,0.976-0.174,0.976c-0.292,1.775-0.51,3.06-1.465,4.791l-6.923,6.815c2.897,2.208,5.665,4.579,8.279,7.102
		c2.582-2.442,6.587-6.229,6.651-6.294c0.131-0.032,1.238-0.353,1.238-0.353c1.519-0.45,2.723-0.814,4.567-1.074
		c2.398-0.341,3.896-0.163,5.795,0.071c1.346,0.168,2.875,0.352,5.035,0.374c2.409,0.016,6.435-1.139,7.422-2.398l41.647-35.326
		L276.354,64.82z"/>
	<path fill="#ED3526" d="M55.218,103.444c1.888-0.201,3.386-0.353,5.784,0.027l1.004,0.157c1.763,0.261,3.032,0.456,4.758,1.362
		c0.043,0.039,3.966,3.885,6.521,6.386c2.561-2.566,5.269-4.986,8.11-7.254c-2.37-2.414-7.037-7.183-7.112-7.259
		c-0.037-0.125-0.38-1.232-0.38-1.232c-0.477-1.514-0.856-2.702-1.149-4.546c-0.174-1.075-0.239-1.964-0.239-2.795
		c0-1.02,0.098-1.942,0.206-2.995c0.131-1.28,0.282-2.718,0.282-4.693v-0.358c-0.021-2.376-1.227-6.321-2.485-7.341
		c-0.01-0.005-36.091-41.05-36.091-41.05L34.215,32C19.68,42.228,10.451,51.217,0.17,65.167L0,65.383
		c0,0,42.804,35.842,42.826,35.858c1.008,1.259,4.959,2.464,7.336,2.485C52.32,103.742,53.861,103.585,55.218,103.444"/>
	<path fill="#ED3526" d="M267.186,203.667l-0.206-0.792l-0.337,0.748c-0.076,0.163-7.563,16.299-34.734,35.977l-0.488,0.364
		c0,0,11.024,2.941,11.729,3.125c-3.721,6.115-6.195,9.604-10.797,15.257c-1.974,2.437-3.83,4.715-5.642,6.858l-20.563-22.836
		c-2.268,2.321-4.666,4.536-7.162,6.607l21.171,23.521c-5.458,5.583-11.459,10.319-20.28,14.963l-2.844,1.514
		c-7.422,3.967-12.771,6.83-21.833,7.156l-0.662,0.021c-4.773,0.18-7.921,0.299-12.5-1.535c-5.166-2.066-8.041-4.367-11.394-9.115
		c-1.812-2.566-1.704-5.615-1.606-8.567c0.088-2.501,0.174-4.91-0.917-6.852c-2.869,0.265-5.777,0.407-8.719,0.407
		c-3.276,0-6.516-0.175-9.712-0.499c-0.835,1.437-1.014,3.141-1.014,4.947c0,0.656,0.021,1.324,0.048,1.996
		c0.021,0.689,0.044,1.373,0.044,2.062c0,2.284-0.261,4.536-1.65,6.504c-3.353,4.748-6.228,7.049-11.393,9.115
		c-4.58,1.834-7.726,1.715-12.501,1.535l-0.662-0.021c-9.061-0.326-14.41-3.189-21.822-7.156l-2.854-1.514
		c-7.683-4.043-13.228-8.155-18.132-12.836l21.811-24.231c-2.55-2.013-4.991-4.167-7.313-6.435l-0.099,0.108l-21.115,23.449
		c-2.453-2.805-4.916-5.837-7.629-9.169c-4.596-5.647-7.063-9.137-10.797-15.257c0.705-0.184,11.741-3.125,11.741-3.125
		l-0.499-0.364c-27.167-19.678-34.659-35.814-34.73-35.977l-0.34-0.748l-0.207,0.792c-0.098,0.369-9.397,36.737,4.037,59.871
		l0.238,0.418c0,0,5.799-9.24,6.271-9.983c5.763,9.945,9.652,15.513,17.069,24.459c0.819,0.987,1.617,1.953,2.409,2.897
		l-20.965,23.287l-0.012,0.098c-0.004,0.141-0.184,3.363,1.895,5.256c1.242,1.135,3.012,1.531,5.257,1.178l0.099-0.016
		l20.113-22.332c9.331,10.57,17.844,18.23,32.623,26.314c11.015,6.018,18.078,8.188,30.627,11.801
		c1.678,0.488,3.109,0.727,4.498,0.967c2.094,0.352,4.08,0.689,6.479,1.834c5.307,2.533,7.835,5.045,11.177,9.385
		c3.516,4.58,4.758,7.781,6.207,13.211l0.277,1.031l0.286-1.031c1.596-5.689,2.812-8.783,6.214-13.211
		c3.342-4.34,5.864-6.857,11.171-9.385c2.402-1.145,4.384-1.482,6.478-1.834c1.39-0.24,2.821-0.479,4.503-0.967
		c12.556-3.613,19.619-5.789,30.622-11.801c15.832-8.658,24.47-16.83,34.627-28.609l20.227,22.469l0.108,0.021
		c2.246,0.346,4.016-0.049,5.252-1.178c2.072-1.898,1.899-5.121,1.889-5.264v-0.102l-21.139-23.472
		c0.152-0.185,0.304-0.363,0.456-0.548c7.422-8.952,11.317-14.524,17.068-24.459c0.467,0.743,6.271,9.983,6.271,9.983l0.239-0.418
		C276.582,240.404,267.282,204.035,267.186,203.667"/>
	<path fill="#FFFFFF" d="M74.283,104.155c-3.766-3.337-9.651-8.567-9.651-8.567s-3.979-5.056-10.255,1.216
		c2.143-2.149,4.048-6.886,0.472-10.998L36.494,66.371l19.43,18.35c4.123,3.58,8.859,1.676,11.002-0.467
		c-6.272,6.278-1.215,10.254-1.215,10.254S70.941,100.395,74.283,104.155"/>
	<path fill="#FFFFFF" d="M6.724,64.125l39.552,32.868c2.523,1.682,5.887,2.225,5.887,2.225s-3.705,1.009-6.559-1.096
		c0,0-40.062-32.988-39.977-32.733L6.724,64.125z"/>
	<path fill="#FFFFFF" d="M203.369,103.634c3.407-3.706,8.747-9.5,8.747-9.5s5.121-3.891-1.042-10.276
		c2.104,2.186,6.813,4.166,10.992,0.661l19.749-18.007l-18.697,19.109c-3.646,4.053-1.823,8.822,0.283,11.003
		c-6.164-6.381-10.233-1.389-10.233-1.389S207.189,100.357,203.369,103.634"/>
	<path fill="#FFFFFF" d="M244.582,36.785L211.02,75.757c-1.726,2.491-2.322,5.844-2.322,5.844s-0.944-3.711,1.204-6.538
		c0,0,33.694-39.477,33.433-39.395L244.582,36.785z"/>
	<path fill="#ED3526" d="M106.739,65.948c0,0-0.336-14.79,0-15.051c8.757-6.847,24.616-9.994,24.616-9.994
		c-7.606-3.353-12.148-10.422-12.148-19.266C119.207,9.684,128.897,0,140.845,0c11.952,0,21.528,9.684,21.528,21.637
		c0,8.844-4.535,15.913-12.142,19.266c0,0,15.854,3.147,24.609,9.994c0.349,0.261,0,15.051,0,15.051s-6.543,6.983-20.367,7.938
		c-1.193,0.081-2.821,7.015-3.569,10.503c-3.147-0.325-6.337-0.488-9.571-0.488c-3.597,0-7.14,0.206-10.623,0.602
		c-0.738-3.439-2.388-10.531-3.603-10.617C113.288,72.931,106.739,65.948,106.739,65.948 M130.026,21.637
		c0,5.974,4.845,10.818,10.818,10.818c5.979,0,10.818-4.844,10.818-10.818c0-5.979-4.839-10.819-10.818-10.819
		C134.871,10.818,130.026,15.658,130.026,21.637"/>
	<path fill="#FFFFFF" d="M122.159,12.191c-1.617,2.865-2.475,6.136-2.475,9.446c0,2.854,0.608,5.599,1.764,8.095
		c0.113,0.108,0.482,0.396,0.732,0.32c0.195-0.06,0.304-0.347,0.358-0.597c-1.172-2.447-1.78-5.078-1.78-7.818
		c0-3.695,1.118-7.233,3.196-10.266c-0.114-0.075-0.288-0.157-0.537-0.141C123.011,11.269,122.577,11.599,122.159,12.191"/>
	<path fill="#FFFFFF" d="M151.686,15.696c-0.587-0.602-0.944-0.748-1.097-0.689c-0.151,0.065-0.217,0.396-0.228,0.619
		c0.993,1.839,1.524,3.912,1.524,6.011c0,3.31-1.27,6.43-3.564,8.806c0,0.027-0.005,0.049-0.005,0.076
		c0,0.13,0.026,0.266,0.113,0.325c0.249,0.169,0.938-0.076,1.275-0.238c2.132-2.502,3.298-5.686,3.298-8.969
		C153.003,19.538,152.542,17.519,151.686,15.696"/>
	<path fill="#FFFFFF" d="M111.492,64.82c-0.32,0-0.581,0.254-0.581,0.58c0,0.321,0.261,0.586,0.581,0.586h58.162
		c0.326,0,0.586-0.265,0.586-0.586c0-0.326-0.26-0.58-0.586-0.58H111.492z"/>
	<path fill="#FFFFFF" d="M109.17,50.762h-0.586v11.356c0,0.32,0.26,0.586,0.586,0.586c0.32,0,0.581-0.266,0.581-0.586v-10.19h59.904
		c0.325,0,0.586-0.26,0.586-0.58c0-0.326-0.261-0.586-0.586-0.586H109.17z"/>
	<path fill="#FFFFFF" d="M58.018,272.918l16.353-18.214l-0.51-1.009L57.279,272.16C57.529,272.415,57.768,272.669,58.018,272.918"/>
	<path fill="#FFFFFF" d="M44.697,286.174l-19,21.154c0,0-4.553,1.117,0.516,1.004l19.179-21.35
		C45.158,286.711,44.931,286.439,44.697,286.174"/>
	<path fill="#FFFFFF" d="M222.555,269.945l-16.526-18.409l-0.521,1.01l16.331,18.187
		C222.088,270.477,222.315,270.211,222.555,269.945"/>
	<path fill="#FFFFFF" d="M254.186,305.168l-19.141-21.316c-0.229,0.271-0.468,0.541-0.695,0.814l19.326,21.506
		C258.742,306.287,254.186,305.168,254.186,305.168"/>
	<path fill="#FFFFFF" d="M24.162,245.78c0.841,1.661,1.752,3.337,2.729,5.066c7.895,13.961,13.667,21.378,25.305,32.261
		c13.923,13.018,23.238,19.869,41.089,26.119c10.097,3.531,18.295,5.23,30.312,5.697c0,0,12.907,2.236,15.284,20.547v-43.91
		c-0.499,21.502-14.53,21.764-14.53,21.764c-12.022-0.473-18.946-1.775-30.317-5.709c-17.938-6.201-27.161-13.092-41.084-26.114
		c-11.643-10.884-17.361-18.333-25.305-32.255c-0.803-1.405-1.552-2.783-2.268-4.14c-4.096-8.089,9.82-6.082,13.13-6.299
		l-0.83-0.641l-16.396-1.15c-2.768-6.468-5.22-14.015-7.168-20.287c0,0-0.971,0.147-0.521,1.607
		c1.828,5.903,4.178,13.276,6.646,19.32l-4.346,17.541l0.424,0.972C17.271,252.925,21.004,239.133,24.162,245.78"/>
	<path fill="#FFFFFF" d="M253.61,245.78c-0.846,1.661-1.758,3.337-2.735,5.066c-7.898,13.961-13.66,21.378-25.305,32.261
		c-13.921,13.018-23.231,19.869-41.093,26.119c-10.092,3.531-18.284,5.23-30.318,5.697l-0.749-1.6
		c12.023-0.473,18.946-1.775,30.318-5.709c17.948-6.201,27.172-13.092,41.083-26.114c11.643-10.884,17.362-18.333,25.305-32.255
		c0.804-1.405,1.563-2.783,2.269-4.14c4.102-8.089-9.821-6.082-13.13-6.299l0.835-0.641l16.396-1.15
		c2.767-6.468,5.219-14.015,7.161-20.287c0,0,0.977,0.147,0.532,1.607c-1.834,5.903-4.189,13.276-6.652,19.32l4.341,17.541
		l-0.423,0.972C260.49,252.925,256.758,239.133,253.61,245.78"/>
	<path fill="#231F20" d="M241.576,181.844c0.825-0.683,1.292-1.491,1.346-2.327c0.163-2.68-2.626-4.086-5.285-4.253
		c-0.434-0.028-0.955-0.039-1.529-0.023c-0.011-0.238-0.011-0.487-0.021-0.737c1.964,0.211,4.112-0.391,5.501-1.552
		c0.814-0.684,1.281-1.486,1.335-2.317c0.163-2.686-2.626-4.091-5.285-4.259c-0.889-0.054-2.451-0.049-4.004,0.174
		c0.087-0.223,0.12-0.472,0.12-0.684c0-0.092,0-0.157-0.011-0.228c0.087-0.276,0.499-1.85,0.499-4.069
		c0-1.698-0.249-3.749-1.107-5.822c-0.543-1.323-1.183-2.311-1.854-3.125c0-0.005,0-0.005,0.01-0.011
		c0.347-0.168,0.445-0.52,0.445-0.868c0-0.271-0.055-0.51-0.099-0.678c0-0.087,0.022-0.331,0.022-0.743
		c0-1.622-0.282-5.415-2.593-8.855c-1.054-1.568-2.105-2.572-3.147-3.347c0.25-0.174,0.337-0.434,0.337-0.7
		c0-0.358-0.142-0.706-0.228-0.912c-0.033-0.515-0.479-5.284-3.961-9.088c-1.596-1.758-3.071-2.653-4.504-3.32
		c0.044-0.027,0.108-0.027,0.142-0.065c0.173-0.163,0.238-0.364,0.238-0.57c0-0.396-0.228-0.792-0.368-1.031
		c-0.12-0.483-1.259-5.149-5.263-8.404c-1.368-1.112-2.638-1.758-3.843-2.203c0.109-0.141,0.152-0.298,0.152-0.445
		c0-0.439-0.358-0.863-0.564-1.096c-0.184-0.45-2.115-4.856-6.63-7.373c-2.008-1.112-3.668-1.476-5.209-1.628
		c0.012-0.032,0.022-0.065,0.022-0.092c0-0.483-0.456-0.895-0.716-1.112c-0.25-0.407-2.812-4.487-7.661-6.316
		c-1.335-0.504-2.496-0.71-3.56-0.77c0-0.005,0.011-0.011,0.011-0.016c0.021-0.077,0.032-0.147,0.032-0.223
		c0-0.559-0.65-0.939-0.954-1.106c-0.358-0.392-3.668-3.831-8.746-4.651c-1.866-0.298-3.32-0.206-4.602,0.028v-0.011
		c0.012-0.038,0.012-0.076,0.012-0.114c0-0.624-0.771-0.933-1.118-1.058c-0.412-0.336-4.188-3.255-9.344-3.31
		c-2.359-0.027-4.015,0.445-5.474,1.026c0.005-0.044,0.022-0.087,0.022-0.13c0-0.711-0.858-0.918-1.265-0.999
		c-0.142-0.076-0.581-0.325-1.248-0.613c0-0.092,0.011-0.184,0.011-0.271c0-1.736-0.587-3.527-1.596-4.731
		c-0.683-0.819-1.485-1.281-2.321-1.335c-2.594-0.163-3.988,2.441-4.232,5.03c-0.114,0.01-0.229,0.016-0.347,0.032
		c-0.163,0.027-0.31,0.049-0.468,0.076c-0.161-1.422-0.683-2.811-1.513-3.803c-0.684-0.819-1.492-1.281-2.328-1.335
		c-2.68-0.168-4.08,2.621-4.254,5.279c-0.097,0.022-0.2,0.038-0.303,0.065c-0.12,0.033-0.223,0.065-0.337,0.092
		c-0.119-1.546-0.689-3.081-1.59-4.161c-0.705-0.841-1.535-1.318-2.393-1.373c-2.751-0.173-4.188,2.664-4.361,5.377
		c-0.018,0.293-0.028,0.662-0.028,1.085c0,0.163,0.006,0.337,0.006,0.51c-1.894-0.184-4.644-0.125-7.449,1.026
		c-1.324,0.548-2.316,1.183-3.131,1.861v-0.011c-0.309-0.635-1.167-0.445-1.552-0.347c-0.435-0.033-5.279-0.337-9.604,2.571
		c-1.562,1.047-2.571,2.1-3.342,3.147c-0.006,0-0.006-0.005-0.006-0.005c-0.401-0.586-1.242-0.261-1.611-0.109
		c-0.51,0.044-5.273,0.478-9.088,3.956c-1.752,1.6-2.642,3.081-3.314,4.508c-0.022-0.043-0.033-0.103-0.065-0.135
		c-0.482-0.516-1.243-0.082-1.595,0.135c-0.489,0.108-5.155,1.248-8.415,5.258c-1.113,1.367-1.753,2.631-2.198,3.835
		c-0.563-0.412-1.23,0.136-1.541,0.418c-0.45,0.185-4.861,2.111-7.379,6.636c-1.105,1.996-1.464,3.646-1.622,5.186
		c-0.515-0.075-0.971,0.435-1.204,0.712c-0.407,0.238-4.486,2.804-6.316,7.655c-0.504,1.34-0.709,2.496-0.774,3.559
		c0,0-0.006-0.005-0.011-0.005c-0.68-0.212-1.141,0.575-1.329,0.922c-0.392,0.358-3.837,3.668-4.651,8.746
		c-0.135,0.841-0.195,1.601-0.195,2.295c0,0.852,0.094,1.601,0.224,2.301h-0.006c-0.705-0.109-1.052,0.738-1.183,1.106
		c-0.33,0.413-3.25,4.194-3.31,9.343v0.185c0,2.262,0.466,3.868,1.03,5.29c-0.043-0.011-0.086-0.027-0.135-0.027
		c-0.705,0.005-0.912,0.862-0.994,1.269c-0.129,0.228-0.715,1.275-1.226,2.86c-1.378-0.163-2.702-0.174-3.493-0.12
		c-2.664,0.168-5.459,1.573-5.285,4.259c0.049,0.831,0.511,1.639,1.334,2.317c1.406,1.178,3.598,1.785,5.578,1.547
		c0.506-0.06,0.944-0.18,1.346-0.321c0.064,0.342,0.131,0.668,0.217,0.977c-0.016,0.065-0.032,0.13-0.043,0.184
		c-1.194-0.114-2.338-0.124-3.146-0.075c-2.664,0.167-5.459,1.573-5.285,4.253c0.049,0.841,0.511,1.644,1.334,2.327
		c1.412,1.173,3.604,1.78,5.578,1.542c0.607-0.071,1.129-0.234,1.596-0.408c0.125,0.473,0.271,0.907,0.423,1.314
		c-1.362-0.169-2.724-0.201-3.646-0.141c-2.664,0.167-5.459,1.573-5.285,4.253c0.049,0.836,0.511,1.644,1.334,2.328
		c1.412,1.172,3.598,1.779,5.578,1.546c0.862-0.109,1.547-0.385,2.148-0.629c0,0,0.51-0.174,0.863-0.294
		c-0.038,0.478-0.071,1.004-0.071,1.574c0,1.709,0.25,3.754,1.106,5.827c0.543,1.324,1.184,2.317,1.856,3.13h-0.011
		c-0.354,0.174-0.451,0.527-0.451,0.874c0,0.277,0.061,0.51,0.104,0.678c0,0.092-0.021,0.331-0.021,0.744
		c0,1.616,0.281,5.414,2.594,8.86c1.053,1.562,2.105,2.566,3.146,3.342c-0.249,0.179-0.336,0.434-0.336,0.705
		c0,0.353,0.141,0.7,0.227,0.907c0.039,0.51,0.479,5.279,3.956,9.093c1.6,1.747,3.076,2.642,4.509,3.315
		c-0.049,0.027-0.108,0.032-0.141,0.065c-0.174,0.168-0.239,0.363-0.239,0.569c0,0.391,0.229,0.793,0.38,1.026
		c0.108,0.494,1.242,5.154,5.252,8.41c1.367,1.111,2.626,1.758,3.842,2.202c-0.108,0.146-0.152,0.299-0.152,0.444
		c0,0.445,0.357,0.869,0.563,1.096c0.186,0.45,2.111,4.852,6.637,7.374c1.996,1.112,3.65,1.471,5.191,1.622
		c-0.011,0.038-0.016,0.065-0.016,0.099c0,0.481,0.461,0.89,0.721,1.111c0.25,0.407,2.807,4.487,7.661,6.315
		c1.335,0.5,2.496,0.711,3.554,0.776c0,0.005-0.005,0.005-0.005,0.005c-0.021,0.076-0.033,0.158-0.033,0.229
		c0,0.559,0.646,0.938,0.955,1.106c0.358,0.391,3.668,3.831,8.746,4.645c1.867,0.298,3.321,0.217,4.602-0.017h-0.005
		c-0.007,0.038-0.007,0.082-0.007,0.12c0,0.624,0.766,0.933,1.113,1.062c0.417,0.331,4.194,3.25,9.348,3.311
		c2.355,0.021,4.016-0.451,5.47-1.026c-0.012,0.038-0.022,0.082-0.022,0.13c0,0.706,0.857,0.912,1.271,0.994
		c0.054,0.032,0.163,0.092,0.304,0.167c-0.479,1.53-0.657,3.511-0.657,5.021c0,0.39,0.005,0.741,0.027,1.057
		c0.174,2.659,1.574,5.447,4.254,5.281c0.835-0.051,1.638-0.512,2.327-1.336c1.004-1.205,1.596-2.99,1.596-4.721
		c0-0.287-0.017-0.58-0.049-0.861c-0.104-0.863-0.385-1.548-0.63-2.149c0,0-0.076-0.211-0.157-0.461
		c0.57,0.033,1.167,0.017,1.77-0.027c-0.175,1.107-0.25,2.251-0.25,3.206c0,0.397,0.011,0.754,0.026,1.069
		c0.174,2.659,1.574,5.447,4.254,5.281c0.836-0.051,1.64-0.512,2.328-1.336c1.003-1.205,1.589-2.99,1.589-4.721
		c0-0.287-0.011-0.58-0.043-0.861c-0.103-0.857-0.385-1.541-0.629-2.144c0,0-0.076-0.217-0.158-0.467
		c0.581-0.027,1.179-0.092,1.791-0.201c-0.201,1.178-0.276,2.404-0.276,3.369c0,0.418,0.016,0.782,0.032,1.08
		c0.174,2.659,1.573,5.447,4.254,5.281c0.836-0.051,1.639-0.512,2.321-1.336c1.009-1.205,1.602-2.99,1.602-4.726
		c0-0.293-0.017-0.575-0.05-0.856c-0.103-0.857-0.38-1.548-0.629-2.149c0,0-0.293-0.852-0.38-1.117
		c0.392-0.461,0.689-0.961,0.917-1.53c1.497,0.314,5.328,0.862,9.272-0.76c1.324-0.548,2.312-1.178,3.125-1.854v0.005
		c0.314,0.64,1.161,0.444,1.552,0.347c0.434,0.033,5.274,0.336,9.604-2.571c1.562-1.048,2.561-2.105,3.343-3.146
		c0.4,0.591,1.247,0.265,1.616,0.114c0.51-0.039,5.273-0.484,9.083-3.956c1.758-1.601,2.647-3.081,3.319-4.509
		c0.022,0.044,0.033,0.104,0.065,0.136c0.478,0.51,1.236,0.087,1.596-0.136c0.488-0.114,5.154-1.248,8.409-5.258
		c1.118-1.366,1.758-2.626,2.203-3.841c0.563,0.417,1.226-0.13,1.541-0.407c0.456-0.189,4.86-2.115,7.379-6.635
		c1.106-1.997,1.465-3.652,1.617-5.187c0.521,0.07,0.976-0.44,1.204-0.717c0.411-0.244,4.492-2.805,6.314-7.661
		c0.51-1.34,0.717-2.496,0.782-3.548h0.011c0.672,0.212,1.14-0.575,1.324-0.917c0.39-0.364,3.841-3.668,4.655-8.757
		c0.13-0.835,0.194-1.595,0.194-2.289c0-0.853-0.098-1.601-0.228-2.301h0.011c0.705,0.103,1.042-0.732,1.183-1.107
		c0.325-0.412,3.256-4.194,3.299-9.343c0.012-0.059,0.012-0.119,0.012-0.184c0-2.263-0.467-3.874-1.032-5.29
		c0.044,0.01,0.087,0.022,0.13,0.022c0.359,0,0.587-0.223,0.739-0.494c0.01,0.005,0.032,0.011,0.032,0.011
		c0.597,0.244,1.281,0.52,2.138,0.629c1.986,0.233,4.177-0.374,5.588-1.551c0.814-0.679,1.281-1.487,1.335-2.323
		c0.163-2.68-2.626-4.086-5.285-4.253c-0.444-0.028-0.976-0.039-1.572-0.022c0.021-0.239,0.032-0.483,0.032-0.738
		C238.062,183.597,240.198,183,241.576,181.844 M152.054,90.846c0-0.797-0.049-1.481-0.146-2.099
		c2.447,0.537,5.068,0.916,6.777,0.851c0.031,0,0.89-0.043,2.115-0.151c1.834,1.372,8.519,4.036,11.904,4.41
		c0.011,0,0.478,0.044,1.182,0.098c1.803,1.676,7.641,5.203,10.722,6.142c0.033,0.011,1.335,0.407,3.061,0.836
		c1.66,2.061,6.749,6.38,9.592,7.753c0.021,0.016,0.629,0.298,1.541,0.705c1.204,2.273,5.72,7.694,8.409,9.603
		c0.023,0.027,1.075,0.765,2.485,1.671c0.607,2.268,4.178,8.508,6.598,10.906c0.011,0.016,0.641,0.618,1.541,1.438
		c0.25,2.273,2.865,8.979,4.895,11.708c0.011,0.016,0.292,0.38,0.737,0.939c0,2.458,1.4,9.136,2.811,12.023
		c0.021,0.032,0.619,1.259,1.486,2.821c-0.195,1.313-0.206,3.657-0.055,6.044h-0.119c-1.009,0.082-1.866,0.337-2.82,0.798
		c-0.425-0.157-0.891-0.277-1.378-0.374c-4.623-37.871-34.279-68.005-71.929-73.344C151.783,92.702,152.054,91.611,152.054,90.846
		 M228.6,174.921c-0.013,0.18-0.013,0.348-0.023,0.521c-0.314-0.021-0.64-0.038-0.987-0.011c-1.009,0.082-1.866,0.337-2.82,0.798
		c-0.239-0.086-0.499-0.163-0.761-0.233c-0.011-0.651-0.031-1.297-0.054-1.942c0.998,0.417,2.583,0.906,3.603,0.906
		C227.926,174.96,228.273,174.943,228.6,174.921 M143.297,87.662c0.022,0,0.392-0.076,0.977-0.207
		c-0.211,0.445-0.651,1.541-0.651,2.908c0,0.147,0.011,0.293,0.022,0.451c0.054,0.743,0.212,1.405,0.478,2.083
		c-0.434-0.016-0.868-0.032-1.308-0.054c0.201-0.711,0.353-1.443,0.353-1.997c0-1.258-0.114-2.257-0.357-3.103
		C142.971,87.721,143.146,87.694,143.297,87.662 M134.117,88.161c0.385-0.087,0.743-0.174,1.052-0.272
		c0.006,0,0.022-0.011,0.038-0.011c-0.211,0.559-0.472,1.449-0.472,2.48c0,0.147,0.011,0.298,0.021,0.456
		c0.055,0.732,0.206,1.389,0.468,2.067c-0.407,0.016-0.814,0.049-1.222,0.07c0.211-0.738,0.374-1.508,0.374-2.105
		C134.377,89.788,134.29,88.915,134.117,88.161 M51.821,155.715c1.378-1.829,4.037-8.518,4.411-11.898
		c0.006-0.022,0.049-0.478,0.098-1.189c1.676-1.796,5.208-7.634,6.147-10.71c0.011-0.038,0.4-1.345,0.836-3.076
		c2.061-1.655,6.38-6.739,7.753-9.582c0.016-0.021,0.298-0.629,0.699-1.546c2.284-1.199,7.699-5.718,9.608-8.404
		c0.022-0.027,0.76-1.069,1.666-2.485c2.269-0.608,8.507-4.178,10.906-6.592c0.021-0.022,0.618-0.646,1.442-1.558
		c2.279-0.243,8.979-2.854,11.708-4.888c0.017-0.016,0.381-0.287,0.934-0.743c2.464,0.005,9.137-1.394,12.029-2.811
		c0.037-0.016,1.259-0.619,2.815-1.476c0.743,0.109,1.823,0.158,3.038,0.152c-0.092,0.434-0.162,0.928-0.162,1.454
		c0,0.153,0.01,0.299,0.021,0.451c0.075,1.009,0.331,1.872,0.792,2.821c-0.017,0.038-0.027,0.087-0.043,0.125
		c-37.117,5.708-66.269,35.565-70.924,73.012c-0.955,0.114-1.871,0.282-2.647,0.57c-0.793-0.385-1.519-0.619-2.312-0.733
		c0.771-2.902,1.422-6.586,1.34-8.784C51.973,157.798,51.93,156.941,51.821,155.715 M91.151,148.786l27.682,87.635
		c-24.426-8.535-41.956-31.773-41.956-59.107c0-13.406,4.227-25.82,11.404-36.004l0.38,8.627L91.151,148.786z M50.27,174.954
		c1.227-0.038,3.211-0.716,4.037-1.15c0.228,0.076,0.465,0.141,0.705,0.206c-0.021,0.581-0.037,1.156-0.05,1.736
		c-0.721,0.114-1.409,0.266-2.012,0.483c-0.901-0.434-1.715-0.684-2.647-0.776C50.291,175.285,50.281,175.111,50.27,174.954
		 M50.742,183.803c1.215-0.157,2.837-0.732,3.564-1.107c0.26,0.087,0.543,0.163,0.824,0.233c0.038,0.554,0.081,1.108,0.131,1.661
		c-0.836,0.114-1.627,0.277-2.312,0.526c-0.722-0.353-1.396-0.58-2.116-0.71C50.807,184.205,50.773,183.998,50.742,183.803
		 M126.564,265.669c-2.322-0.487-4.742-0.823-6.358-0.765c-0.028,0-0.885,0.043-2.111,0.152c-1.834-1.378-8.513-4.037-11.897-4.411
		c-0.022,0-0.479-0.043-1.189-0.099c-1.795-1.67-7.633-5.202-10.71-6.141c-0.038-0.017-1.345-0.407-3.07-0.847
		c-1.654-2.057-6.744-6.375-9.587-7.742c-0.021-0.017-0.63-0.298-1.541-0.706c-1.204-2.278-5.719-7.693-8.404-9.603
		c-0.032-0.027-1.08-0.759-2.49-1.671c-0.608-2.262-4.178-8.507-6.592-10.905c-0.018-0.022-0.646-0.619-1.557-1.438
		c-0.239-2.279-2.854-8.98-4.883-11.709c-0.018-0.016-0.293-0.379-0.738-0.938c0-2.452-1.405-9.137-2.817-12.029
		c-0.017-0.032-0.623-1.258-1.481-2.81c0.056-0.386,0.099-0.868,0.121-1.406c1.129-0.222,2.42-0.694,3.049-1.019
		c0.59,0.189,1.236,0.347,1.92,0.488c6.208,35.266,34.279,62.997,69.72,68.699c0.059,1.627,0.239,3.357,0.716,4.677
		C126.629,265.523,126.597,265.594,126.564,265.669 M134.975,266.972c-0.229,0.049-0.488,0.108-0.814,0.189
		c-0.228-1.129-0.705-2.44-1.031-3.071c0.239-0.737,0.435-1.557,0.581-2.436c0.391,0.027,0.781,0.049,1.177,0.071
		c0.088,1.335,0.277,2.657,0.662,3.722C135.3,265.974,135.11,266.467,134.975,266.972 M143.997,266.538
		c-0.092,0.027-0.189,0.049-0.277,0.071c-0.005,0.005-0.081,0.027-0.194,0.071c-0.201-0.018-0.402-0.028-0.598-0.044
		c-0.25-0.982-0.635-2.009-0.911-2.546c0.228-0.698,0.412-1.464,0.559-2.3c0.396-0.017,0.798-0.026,1.199-0.043
		c0.087,1.323,0.276,2.642,0.662,3.7C144.252,265.822,144.116,266.18,143.997,266.538 M139.478,239.919
		c-4.622,0-9.132-0.515-13.473-1.47l0.028-0.033l-30.221-91.779l2.234-1.031l-6.813-8.182
		c11.479-13.873,28.831-22.712,48.244-22.712c34.583,0,62.611,28.024,62.611,62.601c0,7.075-1.193,13.874-3.353,20.216
		c-11.817-18.941-17.134-40.35-16.224-65.389l-0.293-0.223c-10.611,3.538-17.546,7.015-24.816,10.846
		c0.055-0.662,0.114-1.356,0.114-2.111c0-3.879-1.308-8.502-10.228-9.256c-12.034-1.085-28.44,4.683-50.17,17.628l-0.06,0.331
		c7.741,10.282,19.386,49.546,21.746,66.512l0.362,0.141c6.402-5.007,13.342-9.038,18.682-10.861l-0.007,0.016
		c-0.189,1.763-0.428,4.091-0.428,6.516c0,4.188,0.728,8.676,3.722,11.128c2.745,2.246,7.031,2.474,12.75,0.678
		c7.097-2.214,13.857-6.538,21.019-11.117c7.271-4.65,14.769-9.441,22.755-11.92C188.449,223.568,165.889,239.919,139.478,239.919
		 M227.079,198.789c-1.378,1.839-4.036,8.513-4.416,11.893c0,0.022-0.044,0.483-0.098,1.199c-1.671,1.79-5.198,7.634-6.143,10.704
		c-0.011,0.044-0.4,1.346-0.835,3.072c-2.062,1.654-6.381,6.743-7.759,9.587c-0.011,0.021-0.293,0.624-0.694,1.54
		c-2.29,1.205-7.705,5.724-9.604,8.41c-0.021,0.027-0.76,1.069-1.671,2.485c-2.269,0.602-8.507,4.178-10.905,6.592
		c-0.021,0.021-0.619,0.646-1.444,1.552c-2.277,0.249-8.983,2.859-11.708,4.888c-0.021,0.018-0.38,0.298-0.943,0.743
		c-2.452,0-9.126,1.4-12.019,2.812c-0.038,0.016-1.264,0.624-2.827,1.48c-1.024-0.151-2.685-0.189-4.503-0.13
		c-0.199-0.619-0.428-1.178-0.606-1.525c0.298-0.922,0.531-1.958,0.683-3.103c36.223-5.192,65.021-33.335,71.206-69.225
		c0.206-0.06,0.423-0.114,0.629-0.179c0.781,0.401,2.583,1.03,3.82,1.128c-0.229,1.497-0.358,2.903-0.326,3.966
		C226.916,196.705,226.971,197.562,227.079,198.789 M229.423,184.454c-0.543-0.114-1.161-0.184-1.834-0.136
		c-1.009,0.082-1.866,0.337-2.82,0.798c-0.337-0.125-0.706-0.222-1.085-0.309c0.064-0.635,0.107-1.275,0.15-1.921
		c0.988,0.434,2.67,0.961,3.723,0.961c0.694,0,1.303-0.039,1.855-0.109c0.044,0.152,0.087,0.304,0.119,0.467
		C229.499,184.281,229.456,184.367,229.423,184.454"/>
	<path fill="#FFFFFF" d="M86.773,100.683c0.78-1.828,1.519-3.554,3.679-5.523c3.678-3.359,8.529-3.706,8.572-3.711h0.087
		l0.076-0.033c0.205-0.092,0.336-0.13,0.434-0.157c-0.223,1.177-3.722,5.626-6.364,8.285c-2.187,2.208-7.124,4.97-9.474,5.984
		C85.373,103.834,86.111,102.234,86.773,100.683"/>
	<path fill="#FFFFFF" d="M74.349,111.041c0.499-2.035,0.966-3.955,2.81-6.218c3.147-3.874,7.89-4.931,7.938-4.943l0.081-0.016
		l0.071-0.038c0.194-0.124,0.319-0.179,0.406-0.217c-0.098,1.199-2.8,5.941-5.072,9.142c-1.851,2.604-6.158,6.061-8.361,7.552
		C73.459,114.442,73.937,112.707,74.349,111.041"/>
	<path fill="#FFFFFF" d="M64.518,122.027c0.108-2.013,0.206-3.906,1.622-6.457c2.425-4.356,6.907-6.223,6.956-6.239l0.081-0.033
		l0.06-0.054c0.173-0.157,0.287-0.233,0.369-0.282c0.005,0.033,0.016,0.049,0.016,0.098c0,1.405-1.812,6.434-3.429,9.777
		c-1.312,2.713-4.916,6.863-6.813,8.686C64.289,125.456,64.431,123.709,64.518,122.027"/>
	<path fill="#FFFFFF" d="M56.781,138.32c0-0.971-0.119-1.861-0.24-2.74c-0.119-0.884-0.228-1.752-0.228-2.675
		c0-1.15,0.174-2.398,0.738-3.912c1.758-4.666,5.919-7.172,5.958-7.194l0.075-0.049l0.055-0.06c0.135-0.168,0.222-0.244,0.298-0.314
		c0.038,0.135,0.076,0.249,0.076,0.499c0,1.807-0.949,6.424-1.969,9.755c-0.874,2.876-3.614,7.276-5.155,9.397
		C56.634,140.056,56.781,139.145,56.781,138.32"/>
	<path fill="#FFFFFF" d="M51.707,153.132c0-1.785-0.396-3.179-0.787-4.536c-0.39-1.378-0.758-2.696-0.758-4.416
		c0-0.646,0.053-1.357,0.172-2.149c0.793-4.926,4.373-8.209,4.406-8.241l0.065-0.06l0.043-0.076c0.098-0.19,0.174-0.293,0.239-0.369
		c0.304,0.575,0.455,2.545,0.455,4.872c0,1.867-0.098,3.912-0.276,5.556c-0.336,3.055-2.447,8.236-3.646,10.493
		C51.647,153.843,51.707,153.463,51.707,153.132"/>
	<path fill="#FFFFFF" d="M113.581,85.843c0.233-0.065,0.342-0.071,0.439-0.076c-0.401,1.139-4.504,5.002-7.504,7.244
		c-2.458,1.828-7.688,3.819-10.156,4.486c1.817-1.437,2.762-2.908,3.619-4.335c1.02-1.687,1.985-3.277,4.405-4.904
		c4.146-2.778,8.984-2.404,9.028-2.398l0.087,0.005L113.581,85.843z"/>
	<path fill="#231F20" d="M108.128,92.582"/>
	<path fill="#FFFFFF" d="M167.918,88.546c1.899-0.537,3.689-1.047,6.565-0.586c4.926,0.787,8.214,4.367,8.247,4.4l0.054,0.065
		l0.076,0.043c0.195,0.098,0.293,0.179,0.38,0.239c-1.053,0.559-6.694,0.591-10.438,0.179c-3.05-0.336-8.236-2.447-10.493-3.645
		C164.619,89.43,166.312,89.002,167.918,88.546"/>
	<path fill="#FFFFFF" d="M180.94,94.161c1.985-0.255,3.862-0.504,6.575,0.516c4.678,1.757,7.184,5.913,7.205,5.957l0.043,0.076
		l0.065,0.049c0.163,0.141,0.239,0.222,0.304,0.298c-1.117,0.304-6.467-0.738-10.243-1.894c-2.876-0.873-7.27-3.607-9.396-5.154
		C177.598,94.541,179.312,94.383,180.94,94.161"/>
	<path fill="#FFFFFF" d="M197.684,107.817c-2.713-1.313-6.858-4.916-8.682-6.82c2.062,0.911,3.81,1.052,5.491,1.139
		c2.007,0.109,3.906,0.207,6.456,1.622c4.353,2.426,6.218,6.913,6.239,6.962l0.033,0.075l0.055,0.061
		c0.151,0.173,0.227,0.287,0.281,0.374C206.343,111.344,201.123,109.478,197.684,107.817"/>
	<path fill="#FFFFFF" d="M207.765,118.202c-2.594-1.85-6.056-6.153-7.554-8.36c1.867,1.236,3.604,1.714,5.264,2.126
		c2.04,0.499,3.961,0.972,6.218,2.81c3.874,3.153,4.937,7.89,4.937,7.938l0.022,0.082l0.043,0.076
		c0.12,0.19,0.174,0.314,0.217,0.407C215.707,123.178,210.966,120.475,207.765,118.202"/>
	<path fill="#FFFFFF" d="M216.977,130.876c-2.202-2.181-4.97-7.118-5.989-9.468c1.692,1.59,3.299,2.328,4.839,2.99
		c1.834,0.776,3.56,1.514,5.523,3.673c3.363,3.684,3.711,8.529,3.711,8.578l0.012,0.081l0.032,0.076
		c0.087,0.206,0.131,0.342,0.151,0.445C224.085,137.029,219.635,133.524,216.977,130.876"/>
	<path fill="#FFFFFF" d="M223.509,144.136c-1.833-2.458-3.819-7.683-4.492-10.151c1.433,1.812,2.908,2.761,4.341,3.619
		c1.682,1.02,3.276,1.98,4.904,4.4c2.182,3.25,2.42,6.928,2.42,8.388c0,0.401-0.021,0.635-0.021,0.64l-0.011,0.087l0.021,0.081
		c0.065,0.239,0.076,0.347,0.076,0.445C229.618,151.238,225.745,147.143,223.509,144.136"/>
	<path fill="#FFFFFF" d="M227.155,157.25c-1.324-2.697-2.311-7.737-2.626-10.352c1.041,1.893,2.333,3.017,3.592,4.053
		c1.541,1.28,3.005,2.479,4.113,5.165c0.791,1.921,1.019,3.847,1.019,5.442c0,2.252-0.455,3.863-0.466,3.885l-0.021,0.081
		l0.011,0.087v0.239c0,0.097-0.011,0.146-0.011,0.206C231.768,165.421,228.88,160.788,227.155,157.25"/>
	<path fill="#FFFFFF" d="M223.347,216.405c0-1.866,0.098-3.939,0.281-5.615c0.337-3.049,2.453-8.236,3.646-10.488
		c-0.021,0.358-0.087,0.738-0.087,1.069c0,1.79,0.401,3.179,0.781,4.541c0.392,1.367,0.771,2.686,0.771,4.411
		c0,0.651-0.054,1.362-0.173,2.148c-0.793,4.927-4.373,8.21-4.406,8.242l-0.064,0.06l-0.043,0.071
		c-0.099,0.2-0.175,0.303-0.239,0.379C223.509,220.648,223.347,218.711,223.347,216.405"/>
	<path fill="#FFFFFF" d="M215.381,232.633c0-1.812,0.955-6.429,1.976-9.76c0.879-2.876,3.614-7.276,5.155-9.398
		c-0.239,0.972-0.392,1.883-0.392,2.708c0,0.965,0.119,1.86,0.239,2.74c0.119,0.884,0.227,1.752,0.227,2.68
		c0,1.15-0.173,2.392-0.736,3.901c-1.758,4.671-5.925,7.178-5.97,7.2l-0.064,0.048l-0.054,0.06
		c-0.142,0.163-0.229,0.244-0.305,0.309C215.426,232.991,215.381,232.872,215.381,232.633"/>
	<path fill="#FFFFFF" d="M205.279,245.449c0-1.411,1.812-6.439,3.429-9.788c1.356-2.81,4.926-6.836,6.805-8.643
		c-0.901,2.045-1.042,3.787-1.13,5.453c-0.108,2.012-0.205,3.917-1.616,6.462c-2.432,4.362-6.912,6.218-6.967,6.239l-0.075,0.032
		l-0.066,0.061c-0.173,0.15-0.281,0.227-0.368,0.281C205.29,245.508,205.279,245.487,205.279,245.449"/>
	<path fill="#FFFFFF" d="M198.323,245.752c1.845-2.593,6.143-6.05,8.355-7.553c-1.236,1.867-1.714,3.592-2.126,5.269
		c-0.499,2.029-0.978,3.95-2.812,6.219c-3.146,3.867-7.889,4.926-7.932,4.931l-0.087,0.022l-0.076,0.043
		c-0.195,0.12-0.314,0.174-0.401,0.212C193.343,253.691,196.045,248.948,198.323,245.752"/>
	<path fill="#FFFFFF" d="M185.639,254.959c2.191-2.207,7.129-4.97,9.473-5.984c-1.584,1.693-2.322,3.294-2.984,4.84
		c-0.78,1.828-1.519,3.554-3.679,5.524c-3.678,3.362-8.528,3.705-8.572,3.71l-0.087,0.006l-0.075,0.038
		c-0.206,0.087-0.337,0.13-0.435,0.151C179.496,262.068,183.001,257.618,185.639,254.959"/>
	<path fill="#FFFFFF" d="M172.389,261.493c2.452-1.828,7.684-3.82,10.146-4.487c-1.812,1.438-2.756,2.908-3.624,4.335
		c-1.01,1.683-1.975,3.277-4.395,4.899c-4.146,2.783-8.985,2.409-9.028,2.409l-0.087-0.012l-0.076,0.022
		c-0.239,0.059-0.347,0.064-0.445,0.076C165.292,267.607,169.416,263.701,172.389,261.493"/>
	<path fill="#FFFFFF" d="M106.094,261.612c3.055,0.342,8.236,2.452,10.488,3.651c-2.302-0.189-3.999,0.238-5.61,0.694
		c-1.888,0.538-3.679,1.047-6.56,0.586c-4.927-0.792-8.209-4.368-8.241-4.4l-0.056-0.064l-0.075-0.044
		c-0.195-0.103-0.299-0.173-0.38-0.239C96.701,261.249,102.404,261.21,106.094,261.612"/>
	<path fill="#FFFFFF" d="M94.011,255.334c2.876,0.879,7.271,3.613,9.397,5.16c-2.11-0.532-3.82-0.369-5.447-0.158
		c-1.986,0.266-3.863,0.51-6.587-0.51c-4.666-1.758-7.173-5.919-7.194-5.957l-0.044-0.076l-0.064-0.054
		c-0.162-0.137-0.244-0.224-0.31-0.3C84.885,253.137,90.234,254.183,94.011,255.334"/>
	<path fill="#FFFFFF" d="M81.217,246.686c2.719,1.312,6.858,4.921,8.682,6.819c-2.062-0.911-3.81-1.053-5.491-1.139
		c-2.007-0.109-3.906-0.206-6.456-1.628c-4.357-2.425-6.218-6.907-6.239-6.95l-0.032-0.076l-0.056-0.064
		c-0.157-0.18-0.231-0.288-0.281-0.369C72.547,243.16,77.772,245.026,81.217,246.686"/>
	<path fill="#FFFFFF" d="M73.421,242.536c-2.035-0.494-3.955-0.973-6.218-2.816c-3.868-3.141-4.927-7.883-4.938-7.932l-0.017-0.082
		l-0.043-0.076c-0.124-0.19-0.18-0.315-0.218-0.407c1.205,0.109,5.947,2.805,9.143,5.079c2.604,1.85,6.061,6.158,7.558,8.361
		C76.822,243.424,75.092,242.948,73.421,242.536"/>
	<path fill="#FFFFFF" d="M63.068,230.11c-1.828-0.781-3.553-1.519-5.523-3.679c-3.363-3.684-3.705-8.528-3.711-8.572l-0.006-0.087
		l-0.031-0.076c-0.088-0.206-0.131-0.342-0.152-0.439c1.172,0.222,5.621,3.722,8.285,6.364c2.197,2.181,4.959,7.124,5.979,9.473
		C66.221,231.505,64.614,230.772,63.068,230.11"/>
	<path fill="#FFFFFF" d="M55.543,216.905c-1.682-1.02-3.277-1.986-4.904-4.406c-2.182-3.25-2.42-6.928-2.42-8.388
		c0-0.401,0.021-0.629,0.021-0.646l0.005-0.081l-0.021-0.081c-0.061-0.239-0.071-0.348-0.076-0.445
		c1.123,0.417,5.035,4.541,7.242,7.509c1.834,2.463,3.82,7.683,4.487,10.152C58.44,218.712,56.975,217.762,55.543,216.905"/>
	<path fill="#FFFFFF" d="M126.293,271.139L126.293,271.139c-0.033-0.104-0.076-0.223-0.107-0.347
		c-0.137,0.081-0.25,0.156-0.326,0.228C125.957,271.057,126.076,271.096,126.293,271.139"/>
	<path fill="#FFFFFF" d="M125.892,269.414c-0.021-0.229-0.038-0.456-0.038-0.694c0-0.146,0.005-0.299,0.017-0.451
		c0.044-0.591,0.163-1.133,0.337-1.676c-2.127-0.445-4.363-0.776-5.958-0.716c-3.754,0.141-9.332,1.009-10.297,1.714
		c0.086,0.055,0.199,0.108,0.411,0.186l0.076,0.031l0.065,0.055c0.043,0.026,3.82,3.082,8.811,3.137
		c2.919,0.032,4.635-0.729,6.451-1.531C125.805,269.452,125.849,269.43,125.892,269.414"/>
	<path fill="#FFFFFF" d="M130.579,266.75c-2.094,0.749-4.037,8.052-3.813,11.497c0.097,1.541,0.873,4.427,3.12,4.287
		c0.678-0.043,1.226-0.548,1.572-0.96c0.978-1.173,1.497-3.087,1.303-4.77c-0.087-0.716-0.315-1.274-0.56-1.866l-0.189-0.586
		c-0.835,1.221-1.726,2.219-2.36,2.768l-0.765-0.879c1.508-1.298,4.33-5.193,4.33-8.009c0-0.673-0.229-1.715-0.479-2.571
		c-0.157-0.456-0.32-0.848-0.455-1.107c-0.434,0.738-0.923,1.427-1.471,2.04L130.579,266.75z"/>
	<path fill="#FFFFFF" d="M152.049,268.1c0.83-0.563,1.785-1.085,2.968-1.496c-0.836-0.045-1.975-0.061-3.218-0.022
		C151.935,267.124,152.032,267.656,152.049,268.1"/>
	<path fill="#FFFFFF" d="M135.007,271.866l0.076,0.038c0,0.006,0.081,0.038,0.222,0.093c0.038-0.104,0.071-0.207,0.109-0.31
		c-0.049-0.104-0.119-0.261-0.195-0.461c-0.348,0.217-0.608,0.406-0.738,0.563c0.092,0.028,0.217,0.049,0.439,0.071L135.007,271.866
		z"/>
	<path fill="#FFFFFF" d="M143.623,268.719c0-0.146,0.011-0.299,0.021-0.45c0.011-0.217,0.043-0.429,0.076-0.635
		c-0.186,0.06-0.38,0.125-0.575,0.189c0.01,0.142,0.021,0.277,0.021,0.407c0,2.251-0.369,3.684-1.216,4.85
		c0.641-0.037,1.308-0.107,1.986-0.249c0.097-0.401,0.217-0.787,0.363-1.145C144.1,271.28,143.623,270.141,143.623,268.719"/>
	<path fill="#FFFFFF" d="M135.023,272.935c-0.125-0.05-0.229-0.098-0.277-0.119c-0.331-0.027-0.938-0.114-1.215-0.488
		c-0.142,0.26-0.293,0.515-0.467,0.754c0.618,0.037,1.27,0.027,1.932-0.033C135.007,273.017,135.018,272.973,135.023,272.935"/>
	<path fill="#FFFFFF" d="M134.931,270.288c-0.108-0.456-0.195-0.988-0.195-1.568c0-0.146,0.012-0.299,0.021-0.45
		c0.006-0.087,0.021-0.174,0.033-0.255c-0.174,0.032-0.336,0.07-0.516,0.108c0.005,0.038,0.005,0.069,0.005,0.108
		c0,1.063-0.087,1.942-0.26,2.696C134.264,270.715,134.584,270.504,134.931,270.288"/>
	<path fill="#FFFFFF" d="M139.516,266.75c-2.089,0.749-4.031,8.052-3.81,11.497c0.099,1.541,0.874,4.427,3.12,4.287
		c0.673-0.043,1.227-0.548,1.573-0.96c0.978-1.173,1.498-3.087,1.303-4.77c-0.087-0.716-0.314-1.274-0.554-1.866l-0.201-0.586
		c-0.83,1.221-1.72,2.219-2.359,2.768l-0.76-0.879c1.509-1.298,4.324-5.193,4.324-8.009c0-0.673-0.223-1.715-0.472-2.571
		c-0.163-0.456-0.32-0.848-0.456-1.107c-0.435,0.738-0.922,1.427-1.47,2.04L139.516,266.75z"/>
	<path fill="#FFFFFF" d="M148.359,266.75c-2.089,0.749-4.031,8.052-3.814,11.497c0.098,1.541,0.879,4.427,3.125,4.287
		c0.673-0.043,1.227-0.548,1.568-0.96c0.981-1.173,1.503-3.087,1.308-4.77c-0.087-0.716-0.314-1.274-0.559-1.866l-0.196-0.586
		c-0.83,1.221-1.72,2.219-2.359,2.768l-0.76-0.879c1.508-1.298,4.324-5.193,4.324-8.009c0-0.673-0.223-1.715-0.472-2.571
		c-0.163-0.456-0.32-0.848-0.456-1.107c-0.435,0.738-0.922,1.427-1.477,2.04L148.359,266.75z"/>
	<path fill="#FFFFFF" d="M159.271,265.138c-2.464,1.199-5.453,2.962-7.26,4.265c-0.044,0.564-0.108,1.074-0.217,1.535
		c1.476,0.299,5.056,0.749,8.604-0.711c2.691-1.112,3.896-2.572,5.166-4.123c1.041-1.259,2.158-2.545,4.058-3.592
		C167.007,262.833,161.961,263.82,159.271,265.138"/>
	<path fill="#FFFFFF" d="M49.25,192.712c-1.53-0.087-2.638-0.386-3.56-0.949c-0.032,0.368-0.049,0.759-0.049,1.182
		c0,1.601,0.233,3.522,1.026,5.442c1.101,2.686,2.565,3.89,4.111,5.165c1.26,1.037,2.545,2.154,3.592,4.048
		c-0.319-2.615-1.308-7.656-2.625-10.352C51.041,195.799,50.14,194.177,49.25,192.712"/>
	<path fill="#FFFFFF" d="M50.178,192.734c0.037,0.092,0.07,0.173,0.103,0.266c0.005-0.087,0.011-0.19,0.011-0.277
		C50.258,192.723,50.215,192.734,50.178,192.734"/>
	<path fill="#FFFFFF" d="M44.99,182.376c-0.156,0.054-0.494,0.174-0.765,0.261c0.184,0.678,0.401,1.285,0.64,1.828
		c0.662,0.13,1.303,0.293,1.846,0.516c0.422-0.202,1.648-0.712,3.136-0.668c-0.027-0.162-0.06-0.315-0.087-0.477
		C47.541,183.787,46.146,183.353,44.99,182.376"/>
	<path fill="#FFFFFF" d="M44.99,173.489c-0.049,0.022-0.125,0.043-0.206,0.076c-0.157,0.412-0.375,1.063-0.569,1.899
		c0.9,0.13,1.773,0.336,2.496,0.63c0.08-0.044,0.201-0.093,0.336-0.147c-0.271-0.608-0.531-1.167-0.787-1.655
		C45.799,174.081,45.381,173.82,44.99,173.489"/>
	<path fill="#FFFFFF" d="M46.711,167.206c0.141-0.071,0.369-0.168,0.662-0.272c-0.57-1.709-1.129-3.054-1.51-3.456
		c-0.031,0.093-0.074,0.212-0.119,0.429l-0.016,0.081l-0.044,0.076c-0.017,0.017-0.591,1.004-1.106,2.572
		C45.332,166.767,46.076,166.945,46.711,167.206"/>
	<path fill="#FFFFFF" d="M47.578,174.721c0.141,0.298,0.277,0.602,0.412,0.912c0.391-0.098,0.848-0.174,1.346-0.201
		c-0.011-0.168-0.031-0.331-0.043-0.494C48.647,174.905,48.088,174.829,47.578,174.721"/>
	<path fill="#FFFFFF" d="M48.576,166.625c0.332-0.054,0.685-0.092,1.059-0.092c0.689-2.556,1.384-5.952,1.384-8.274
		c0-0.13-0.006-0.266-0.011-0.396c-0.146-3.749-1.01-9.332-1.721-10.293c-0.049,0.082-0.108,0.196-0.185,0.413l-0.026,0.081
		l-0.055,0.06c-0.033,0.038-3.082,3.819-3.136,8.805v0.174c0,2.816,0.743,4.503,1.53,6.283
		C47.854,164.374,48.283,165.404,48.576,166.625"/>
	<path fill="#FFFFFF" d="M51.647,171.259c-0.748-2.088-8.052-4.031-11.491-3.814c-1.541,0.098-4.428,0.874-4.285,3.12
		c0.043,0.672,0.541,1.226,0.954,1.568c1.171,0.977,3.093,1.508,4.774,1.307c0.711-0.086,1.27-0.314,1.861-0.559l0.586-0.189
		c-1.211-0.836-2.219-1.726-2.768-2.366l0.885-0.759c1.297,1.508,5.187,4.324,8.008,4.324c0.662,0,1.683-0.223,2.539-0.461
		c0.467-0.163,0.862-0.331,1.135-0.467c-0.733-0.429-1.428-0.922-2.04-1.471L51.647,171.259z"/>
	<path fill="#FFFFFF" d="M51.647,180.146c-0.748-2.089-8.052-4.026-11.491-3.815c-1.541,0.104-4.428,0.879-4.285,3.121
		c0.043,0.677,0.541,1.226,0.954,1.573c1.171,0.976,3.093,1.508,4.774,1.307c0.711-0.086,1.27-0.314,1.861-0.559l0.586-0.195
		c-1.211-0.83-2.219-1.714-2.768-2.36l0.885-0.76c1.297,1.509,5.187,4.325,8.008,4.325c0.662,0,1.683-0.223,2.539-0.467
		c0.467-0.157,0.862-0.325,1.135-0.461c-0.733-0.434-1.428-0.922-2.04-1.476L51.647,180.146z"/>
	<path fill="#FFFFFF" d="M51.647,189.039c-0.748-2.088-8.052-4.031-11.491-3.814c-1.541,0.103-4.428,0.879-4.285,3.12
		c0.043,0.672,0.541,1.226,0.954,1.573c1.171,0.977,3.093,1.503,4.774,1.302c0.711-0.081,1.27-0.309,1.861-0.553l0.586-0.195
		c-1.211-0.831-2.219-1.72-2.768-2.36l0.885-0.76c1.297,1.503,5.187,4.324,8.008,4.324c0.662,0,1.683-0.222,2.539-0.466
		c0.467-0.158,0.862-0.326,1.135-0.461c-0.733-0.435-1.428-0.923-2.04-1.477L51.647,189.039z"/>
	<path fill="#FFFFFF" d="M231.007,167.206c0.315-0.131,0.651-0.233,1.01-0.326c-0.162-0.19-0.325-0.385-0.488-0.575
		c-1.074-1.291-2.17-2.669-2.908-4.807c-0.033,0.515-0.054,1.123-0.054,1.823c0,0.982,0.043,2.1,0.107,3.239
		C229.792,166.674,230.66,167.038,231.007,167.206"/>
	<path fill="#FFFFFF" d="M231.007,176.093c1.161-0.467,2.713-0.711,4.124-0.803c0-0.32-0.021-0.652-0.044-0.977
		c-0.455-0.13-0.856-0.293-1.226-0.439c0,0-0.857-0.293-1.128-0.386c-0.695,0.587-1.465,0.966-2.442,1.199
		c0.152,0.435,0.325,0.869,0.488,1.297C230.877,176.027,230.953,176.066,231.007,176.093"/>
	<path fill="#FFFFFF" d="M229.597,175.605c-0.011-0.038-0.032-0.082-0.043-0.125v0.114
		C229.564,175.594,229.586,175.605,229.597,175.605"/>
	<path fill="#FFFFFF" d="M231.007,184.98c1.151-0.461,2.67-0.706,4.07-0.803c0.032-0.315,0.043-0.635,0.054-0.972
		c-0.271-0.07-0.521-0.151-0.76-0.238c-0.098,0.092-0.239,0.152-0.401,0.168c-0.337,0.038-0.717-0.233-1.106-0.711
		c-0.054-0.016-0.098-0.032-0.13-0.049c-0.673,0.57-1.422,0.944-2.355,1.178c0.108,0.434,0.217,0.863,0.336,1.296
		C230.834,184.898,230.942,184.942,231.007,184.98"/>
	<path fill="#FFFFFF" d="M228.229,192.717c-0.206,1.275-0.348,2.496-0.348,3.516c0,0.135,0,0.276,0.012,0.401
		c0.141,3.754,1.009,9.338,1.714,10.298c0.055-0.087,0.108-0.201,0.185-0.413l0.033-0.075l0.054-0.066
		c0.032-0.038,3.081-3.819,3.137-8.805v-0.179c0-2.404-0.543-3.983-1.194-5.508C230.889,192.402,229.759,192.664,228.229,192.717"/>
	<path fill="#FFFFFF" d="M235.554,169.566l0.891,0.765c-0.554,0.635-1.553,1.525-2.768,2.36l0.586,0.19
		c0.598,0.244,1.15,0.472,1.866,0.559c1.683,0.201,3.592-0.331,4.775-1.308c0.412-0.341,0.899-0.895,0.943-1.568
		c0.142-2.246-2.734-3.022-4.286-3.12c-3.439-0.216-10.742,1.726-11.48,3.809l-0.163,0.239c-0.606,0.554-1.302,1.041-2.04,1.47
		c0.26,0.136,0.662,0.293,1.118,0.456c0.857,0.249,1.888,0.472,2.561,0.472C230.367,173.89,234.263,171.074,235.554,169.566"/>
	<path fill="#FFFFFF" d="M235.554,178.458l0.891,0.765c-0.554,0.641-1.553,1.525-2.768,2.355l0.586,0.195
		c0.598,0.245,1.15,0.472,1.866,0.559c1.683,0.201,3.592-0.331,4.775-1.307c0.412-0.347,0.899-0.896,0.943-1.574
		c0.142-2.241-2.734-3.016-4.286-3.12c-3.439-0.211-10.742,1.726-11.48,3.815l-0.163,0.233c-0.606,0.554-1.302,1.042-2.04,1.476
		c0.26,0.13,0.662,0.298,1.118,0.455c0.857,0.245,1.888,0.473,2.561,0.473C230.367,182.784,234.263,179.966,235.554,178.458"/>
	<path fill="#FFFFFF" d="M235.554,187.346l0.891,0.765c-0.554,0.64-1.553,1.53-2.768,2.36l0.586,0.195
		c0.598,0.245,1.15,0.472,1.866,0.554c1.683,0.201,3.592-0.326,4.775-1.303c0.412-0.347,0.899-0.9,0.943-1.573
		c0.142-2.241-2.734-3.016-4.286-3.12c-3.439-0.216-10.742,1.726-11.48,3.814l-0.163,0.234c-0.606,0.553-1.302,1.041-2.04,1.476
		c0.26,0.135,0.662,0.298,1.118,0.45c0.857,0.249,1.888,0.478,2.561,0.478C230.367,191.676,234.263,188.854,235.554,187.346"/>
	<path fill="#FFFFFF" d="M150.99,84.498c1.01-0.391,1.764-0.743,2.045-1.009c-0.092-0.038-0.211-0.076-0.428-0.125l-0.087-0.016
		l-0.07-0.043c-0.017-0.006-0.353-0.201-0.928-0.461C151.393,83.478,151.186,84.015,150.99,84.498"/>
	<path fill="#FFFFFF" d="M168.537,86.728l-0.087-0.032l-0.065-0.049c-0.033-0.033-3.809-3.087-8.8-3.142
		c-2.919-0.032-4.634,0.727-6.457,1.536c-0.731,0.325-1.486,0.645-2.333,0.911c0.385,0.51,0.673,1.074,0.879,1.731
		c2.398,0.559,5.117,1.02,6.979,0.95c3.754-0.153,9.332-1.015,10.297-1.721C168.863,86.858,168.743,86.804,168.537,86.728"/>
	<path fill="#FFFFFF" d="M142.711,82.404c-0.103,0.857-0.385,1.541-0.629,2.143c0,0-0.293,0.852-0.38,1.123
		c0.298,0.358,0.542,0.738,0.749,1.15c0.227-0.027,0.444-0.065,0.651-0.108c0.298-0.06,0.602-0.125,0.905-0.19
		c-0.429-1.524-0.569-3.347-0.569-4.682c0-0.125,0.011-0.239,0.011-0.353c-0.061,0.005-0.114,0.011-0.174,0.016
		c-0.18,0.028-0.348,0.065-0.521,0.093C142.754,81.867,142.744,82.133,142.711,82.404"/>
	<path fill="#FFFFFF" d="M125.631,83.348c-1.807-0.184-4.481-0.157-7.135,0.933c-2.685,1.107-3.89,2.572-5.159,4.118
		c-1.042,1.259-2.159,2.545-4.059,3.587c2.615-0.32,7.661-1.308,10.352-2.621c2.073-1.015,4.515-2.42,6.316-3.619
		C125.783,84.954,125.681,84.124,125.631,83.348"/>
	<path fill="#FFFFFF" d="M133.58,86.641c0.521,0.059,1.058,0.119,1.633,0.173c-0.179-0.559-0.315-1.177-0.412-1.811
		c-0.564,0.271-1.161,0.526-1.802,0.748C133.217,86.033,133.417,86.321,133.58,86.641"/>
	<path fill="#FFFFFF" d="M133.916,82.415c-0.103,0.874-0.385,1.563-0.635,2.171c0,0-0.005,0.016-0.016,0.049
		c0.482-0.202,0.96-0.413,1.404-0.641c-0.081-0.765-0.113-1.508-0.113-2.159v-0.076c-0.017,0.005-0.027,0.01-0.05,0.01
		c-0.194,0.049-0.374,0.109-0.563,0.163C133.938,82.088,133.933,82.257,133.916,82.415"/>
	<path fill="#FFFFFF" d="M126.424,87.385c-0.076-0.184-0.142-0.386-0.206-0.581c-0.679,0.407-1.438,0.782-2.333,1.091
		c0.629,0.038,1.432,0.049,2.311,0.043C126.282,87.705,126.358,87.515,126.424,87.385"/>
	<path fill="#FFFFFF" d="M127.596,93.386l0.103,0.189l-0.005,0.017c0.748-0.103,1.508-0.201,2.268-0.282
		c-1.15-0.554-2.105-2.127-2.821-4.037c-0.114,0.516-0.206,1.058-0.211,1.514c-0.007,0.298,0.016,0.602,0.048,0.906
		C127.097,92.251,127.291,92.789,127.596,93.386"/>
	<path fill="#FFFFFF" d="M136.249,92.837c0.619-0.016,1.237-0.038,1.861-0.049c-0.825-0.759-1.52-2.034-2.083-3.516
		c-0.109,0.516-0.201,1.058-0.207,1.514c-0.01,0.299,0.011,0.603,0.044,0.907C135.951,92.078,136.086,92.452,136.249,92.837"/>
	<path fill="#FFFFFF" d="M145.196,92.973c0.76,0.049,1.519,0.109,2.278,0.179c-1.03-0.656-1.888-2.121-2.55-3.879
		c-0.12,0.515-0.206,1.058-0.217,1.514c0,0.298,0.021,0.602,0.054,0.906C144.854,92.121,145.006,92.534,145.196,92.973"/>
	<path fill="#FFFFFF" d="M227.622,167.619c-0.304-0.011-0.608,0.011-0.922,0.049c-0.555,0.119-1.086,0.309-1.684,0.613l-0.194,0.108
		l-0.206-0.087c-0.065-0.027-0.142-0.049-0.206-0.07c-0.293,0.109-0.564,0.233-0.835,0.364c0.107,0.998,0.184,2.013,0.249,3.033
		c0.444-0.294,0.868-0.608,1.248-0.95c0.542-1.161,2.127-2.127,4.058-2.854C228.62,167.717,228.067,167.625,227.622,167.619"/>
	<path fill="#FFFFFF" d="M227.622,176.506c-0.304-0.006-0.608,0.016-0.922,0.049c-0.555,0.124-1.086,0.314-1.684,0.624l-0.194,0.098
		l-0.206-0.082c-0.065-0.027-0.142-0.049-0.206-0.071c-0.13,0.049-0.26,0.109-0.392,0.158v0.032c0,1.042-0.021,2.078-0.064,3.114
		c0.391-0.271,0.771-0.553,1.118-0.857c0.542-1.16,2.127-2.127,4.058-2.853C228.62,176.609,228.067,176.512,227.622,176.506"/>
	<path fill="#FFFFFF" d="M227.622,185.398c-0.304-0.006-0.608,0.016-0.922,0.049c-0.555,0.119-1.086,0.314-1.684,0.624l-0.194,0.097
		l-0.206-0.087c-0.065-0.027-0.142-0.037-0.206-0.07c-0.305,0.119-0.598,0.249-0.879,0.385c-0.119,1.161-0.271,2.317-0.435,3.462
		c0.716-0.407,1.378-0.874,1.976-1.4c0.542-1.161,2.127-2.122,4.058-2.848C228.62,185.495,228.067,185.403,227.622,185.398"/>
	<path fill="#FFFFFF" d="M144.908,263.245c0.348-0.646,0.743-1.199,1.14-1.644c-0.429,0.032-0.862,0.054-1.297,0.081
		C144.789,262.208,144.838,262.735,144.908,263.245"/>
	<path fill="#FFFFFF" d="M147.101,261.503l0.298,0.406c-0.683,0.506-1.508,1.715-2.061,3.175c0.021,0.069,0.043,0.146,0.069,0.211
		l0.082,0.207l-0.098,0.194c-0.304,0.598-0.499,1.128-0.624,1.688c-0.033,0.304-0.049,0.607-0.049,0.912
		c0.011,0.449,0.098,0.998,0.212,1.509c0.727-1.938,1.692-3.522,2.854-4.06c0.613-0.688,1.807-2.272,2.501-4.573
		C149.232,261.308,148.17,261.411,147.101,261.503"/>
	<path fill="#FFFFFF" d="M137.015,261.818c-0.369-0.017-0.728-0.026-1.097-0.044c0.033,0.494,0.076,0.988,0.152,1.471
		C136.363,262.702,136.684,262.219,137.015,261.818"/>
	<path fill="#FFFFFF" d="M139.478,261.85c-0.326,0-0.651-0.006-0.978-0.011l0.056,0.071c-0.685,0.504-1.509,1.714-2.062,3.173
		c0.027,0.07,0.043,0.146,0.07,0.212l0.082,0.206l-0.098,0.196c-0.305,0.597-0.499,1.128-0.618,1.687
		c-0.033,0.304-0.056,0.608-0.056,0.912c0.012,0.45,0.099,0.998,0.212,1.508c0.732-1.937,1.693-3.521,2.859-4.058
		c0.548-0.619,1.579-1.971,2.284-3.912C140.649,261.839,140.063,261.85,139.478,261.85"/>
	<path fill="#FFFFFF" d="M127.129,263.245c0.472-0.873,1.02-1.595,1.567-2.073c-0.591-0.074-1.183-0.163-1.769-0.249
		C126.961,261.688,127.021,262.491,127.129,263.245"/>
	<path fill="#FFFFFF" d="M129.104,261.215l0.51,0.694c-0.684,0.505-1.508,1.714-2.062,3.174c0.027,0.071,0.044,0.147,0.076,0.212
		l0.076,0.206l-0.098,0.195c-0.304,0.597-0.5,1.129-0.619,1.688c-0.032,0.304-0.054,0.606-0.054,0.91
		c0.011,0.45,0.104,0.999,0.217,1.51c0.728-1.938,1.688-3.522,2.854-4.06c0.575-0.656,1.682-2.094,2.387-4.188
		C131.285,261.464,130.194,261.352,129.104,261.215"/>
	<path fill="#FFFFFF" d="M55.348,185.566c-0.065,0.006-0.131,0.011-0.184,0.022c0.064,0.038,0.13,0.076,0.195,0.114
		C55.354,185.658,55.348,185.61,55.348,185.566"/>
	<path fill="#FFFFFF" d="M55.521,187.183c-0.597-0.429-1.355-0.847-2.203-1.172c-0.074,0.033-0.152,0.043-0.217,0.07l-0.206,0.087
		l-0.194-0.097c-0.598-0.31-1.129-0.505-1.683-0.624c-0.304-0.033-0.608-0.055-0.912-0.049c-0.455,0.005-0.998,0.097-1.508,0.212
		c1.926,0.726,3.517,1.687,4.053,2.848c0.949,0.846,2.089,1.541,3.321,2.056C55.799,189.408,55.651,188.295,55.521,187.183"/>
	<path fill="#FFFFFF" d="M54.952,177.917c-0.483-0.293-1.037-0.564-1.634-0.792c-0.075,0.021-0.151,0.043-0.217,0.07l-0.205,0.082
		l-0.196-0.098c-0.597-0.309-1.128-0.499-1.683-0.624c-0.303-0.033-0.606-0.054-0.91-0.049c-0.457,0.006-1,0.103-1.51,0.212
		c1.928,0.727,3.517,1.693,4.053,2.854c0.701,0.623,1.515,1.161,2.383,1.617C54.99,180.102,54.957,179.012,54.952,177.917"/>
	<path fill="#FFFFFF" d="M55.484,167.765c-0.109,0.017-0.218,0.022-0.32,0.038c0.103,0.054,0.195,0.12,0.293,0.179
		C55.467,167.912,55.478,167.835,55.484,167.765"/>
	<path fill="#FFFFFF" d="M55.326,169.262c-0.559-0.38-1.248-0.738-2.008-1.031c-0.074,0.027-0.152,0.043-0.217,0.07l-0.206,0.087
		l-0.194-0.108c-0.598-0.304-1.129-0.494-1.683-0.613c-0.304-0.038-0.608-0.06-0.912-0.049c-0.455,0.006-0.998,0.098-1.508,0.206
		c1.926,0.727,3.517,1.693,4.053,2.854c0.722,0.635,1.546,1.188,2.442,1.644C55.152,171.297,55.229,170.276,55.326,169.262"/>
	<path fill="#FFFFFF" d="M130.568,92.327l0.239,0.157c0.195,0.212,0.369,0.445,0.542,0.679c0.494-0.044,0.988-0.093,1.482-0.13
		c0.205-0.777,0.373-1.617,0.373-2.187c0-2.81-2.815-6.706-4.323-8.003l0.759-0.884c0.64,0.553,1.525,1.551,2.36,2.767l0.195-0.586
		c0.238-0.592,0.473-1.15,0.56-1.861c0.194-1.688-0.331-3.603-1.309-4.78c-0.347-0.412-0.895-0.906-1.567-0.949
		c-2.246-0.142-3.022,2.739-3.12,4.286C126.537,84.275,128.479,91.579,130.568,92.327"/>
	<path fill="#FFFFFF" d="M139.456,92.327l0.238,0.157c0.087,0.092,0.157,0.196,0.238,0.294c0.619,0,1.238,0.01,1.852,0.027
		c0.179-0.706,0.309-1.438,0.309-1.959c0-2.81-2.812-6.706-4.319-8.003l0.761-0.884c0.64,0.553,1.523,1.551,2.354,2.767l0.201-0.586
		c0.239-0.592,0.472-1.15,0.554-1.861c0.2-1.688-0.326-3.603-1.308-4.78c-0.336-0.412-0.891-0.906-1.563-0.949
		c-2.246-0.142-3.026,2.739-3.125,4.286C135.43,84.275,137.373,91.579,139.456,92.327"/>
	<path fill="#FFFFFF" d="M148.354,92.327l0.239,0.157c0.238,0.272,0.466,0.559,0.683,0.857c0.402,0.049,0.804,0.093,1.205,0.142
		c0.021-0.049,0.032-0.093,0.055-0.146c0.238-0.846,0.456-1.845,0.456-2.49c0-2.81-2.822-6.706-4.33-8.003l0.76-0.884
		c0.64,0.553,1.53,1.551,2.365,2.767l0.195-0.586c0.238-0.592,0.466-1.15,0.554-1.861c0.194-1.688-0.325-3.603-1.303-4.78
		c-0.347-0.412-0.9-0.906-1.572-0.949c-2.247-0.142-3.023,2.739-3.12,4.286C144.316,84.275,146.26,91.579,148.354,92.327"/>
	<polygon fill="#FFFFFF" points="178.032,242.144 173.019,241.173 177.608,238.792 177.045,233.431 181.113,236.979 185.66,234.619 
		183.436,239.344 187.223,243.061 181.765,242.531 179.029,247.293 	"/>
	<polygon fill="#FFFFFF" points="104.841,243.088 109.832,242.118 105.252,239.708 105.827,234.375 101.747,237.924 97.212,235.569 
		99.426,240.293 95.639,244 101.097,243.467 103.831,248.232 	"/>
	<path fill="#FFFFFF" d="M89.779,228.184c0.418-0.418,1.628-1.606-0.108-3.472c-0.25-0.266-1.563-1.677-2.789-0.537
		c-0.51,0.472-0.646,1.014-0.141,1.947l1.898,3.408c0.537,0.971,1.909,3.467-0.342,5.567c-1.742,1.622-4.661,1.757-7.813-1.628
		c-4.117-4.422-2.008-6.739-0.873-7.818l2.963,3.179c-0.326,0.303-1.509,1.372-0.104,2.875c0.846,0.912,1.882,1.037,2.523,0.435
		c0.792-0.739,0.341-1.601,0.031-2.171l-1.442-2.598c-1.031-1.856-2.246-4.059,0.038-6.186c2.403-2.24,5.496-1.08,8.133,1.758
		c1.096,1.177,2.686,3.239,2.545,5.307c-0.093,1.632-1.134,2.636-1.585,3.081L89.779,228.184z"/>
	<polygon fill="#FFFFFF" points="83.475,218.153 81.38,215.021 83.908,213.329 86.002,216.466 	"/>
	<path fill="#FFFFFF" d="M69.01,206.319c-1.28,0.781-1.34,2.002-0.847,3.12c1.054,2.371,3.445,2.17,5.903,1.08
		c0.824-0.364,4.21-1.894,2.859-4.927c-0.917-2.073-2.447-1.649-3.012-1.492l-1.807-4.075c4.227-1.85,6.581,2.49,7.395,4.336
		c0.608,1.367,1.466,3.89,0.593,6.158c-0.879,2.24-2.903,3.466-4.304,4.085c-1.845,0.824-3.885,1.194-5.914,0.499
		c-2.213-0.754-3.444-2.43-4.361-4.492c-1.016-2.29-1.271-4.259-0.641-5.877c0.651-1.643,1.856-2.202,2.345-2.446L69.01,206.319z"/>
	<polygon fill="#FFFFFF" points="73.328,197.025 72.406,193.374 75.352,192.625 76.274,196.282 	"/>
	<path fill="#FFFFFF" d="M63.633,176.972c-1.48,0.228-2.013,1.329-1.98,2.55c0.06,2.594,2.344,3.336,5.036,3.271
		c0.895-0.021,4.605-0.124,4.529-3.445c-0.049-2.273-1.633-2.468-2.197-2.539l-0.108-4.46c4.611-0.081,5.111,4.835,5.16,6.848
		c0.038,1.497-0.147,4.161-1.823,5.913c-1.677,1.731-4.015,2.084-5.54,2.121c-2.018,0.044-4.053-0.401-5.653-1.823
		c-1.753-1.54-2.247-3.57-2.301-5.816c-0.054-2.506,0.467-4.421,1.666-5.67c1.237-1.275,2.562-1.323,3.109-1.361L63.633,176.972z"/>
	<path fill="#FFFFFF" d="M67.382,165.85c-2.463-0.543-4.568-1.796-3.96-4.558c0.195-0.916,0.651-1.85,1.583-2.278
		c0.739-0.326,1.846-0.608,3.858-0.163c1.991,0.439,4.509,1.519,3.857,4.509C72.102,166.147,69.677,166.354,67.382,165.85
		 M66.46,170.168c5.36,1.177,8.29-2.105,9.18-6.12c0.792-3.597-0.021-8.253-5.762-9.517c-3.505-0.77-7.992-0.043-9.316,5.979
		c-0.244,1.107-0.721,4.031,0.689,6.337C62.667,169.154,65.499,169.957,66.46,170.168"/>
	<path fill="#FFFFFF" d="M68.814,145.607l0.705-1.443c0.543-1.118,1.281-2.615,2.908-1.812c0.424,0.2,1.162,0.776,1.004,1.752
		c-0.049,0.38-0.255,0.803-0.673,1.649l-0.711,1.444L68.814,145.607z M77.701,154.76l1.899-3.863l-5.165-2.534l0.792-1.611
		c0.846-1.736,1.465-1.503,3.136-0.901c1.243,0.445,2.3,0.841,3.212,1.009l2.052-4.177c-1.097-0.131-2.615-0.635-3.581-0.944
		c-2.182-0.684-3.397-1.096-4.786,1.562l-0.075-0.032c0.13-0.413,0.455-1.303,0.356-2.453c-0.064-0.835-0.385-1.763-1.834-2.468
		c-1.426-0.7-2.425-0.527-3.031-0.299c-1.21,0.434-1.818,1.302-3.044,3.809l-3.158,6.424L77.701,154.76z"/>
	
		<rect x="77.688" y="128.349" transform="matrix(-0.579 0.8153 -0.8153 -0.579 236.8021 149.1569)" fill="#FFFFFF" width="4.412" height="14.729"/>
	<polygon fill="#FFFFFF" points="97.537,112.69 93.512,115.137 91.992,112.646 103.837,105.447 105.351,107.937 101.237,110.444 
		107.368,120.535 103.68,122.781 	"/>
	<polygon fill="#FFFFFF" points="107.531,103.727 111.634,102.349 113.468,107.795 118.36,106.158 116.527,100.7 120.65,99.315 
		125.339,113.281 121.215,114.665 119.321,109.017 114.411,110.671 116.305,116.313 112.22,117.682 	"/>
	<polygon fill="#FFFFFF" points="125.176,98.626 129.537,97.948 131.783,112.505 127.422,113.177 	"/>
	<path fill="#FFFFFF" d="M139.337,106.348l2.305-6.126h0.066l1.828,6.234L139.337,106.348z M132.853,111.849l4.281,0.114l1.128-2.93
		l6.186,0.163l0.999,2.984l4.839,0.125l-5.719-14.883l-5.225-0.135L132.853,111.849z"/>
	<polygon fill="#FFFFFF" points="155.104,98.409 160.789,100.053 162.764,112.049 165.771,101.496 169.372,102.533 165.281,116.683 
		159.727,115.076 157.772,102.603 154.636,113.612 151.019,112.565 	"/>
	<path fill="#FFFFFF" d="M172.78,115.424c-0.282,0.532-1.085,2.018,1.129,3.283c0.313,0.184,1.984,1.139,2.82-0.31
		c0.348-0.602,0.315-1.161-0.444-1.899l-2.821-2.701c-0.803-0.76-2.854-2.735-1.324-5.41c1.184-2.067,3.929-3.065,7.943-0.765
		c5.241,3.006,3.917,5.838,3.146,7.216l-3.766-2.159c0.217-0.391,1.031-1.764-0.748-2.784c-1.085-0.618-2.106-0.428-2.54,0.331
		c-0.542,0.939,0.143,1.639,0.608,2.089l2.148,2.057c1.53,1.465,3.342,3.212,1.79,5.919c-1.628,2.848-4.926,2.653-8.29,0.727
		c-1.389-0.798-3.516-2.301-3.993-4.313c-0.401-1.59,0.304-2.859,0.597-3.418L172.78,115.424z"/>
	<path fill="#FFFFFF" d="M196.892,124.81l1.259,1.406c0.824,0.927,1.758,2.132,0.412,3.32c-1.477,1.324-2.594,0.06-3.298-0.727
		l-1.271-1.422L196.892,124.81z M185.074,129.574l2.865,3.212l3.96-3.521l1.867,2.056c0.553,0.624,1.79,2.018,3.06,2.49
		c0.629,0.25,2.626,0.793,4.557-0.927c1.434-1.281,1.834-2.816,1.53-4.292c-0.282-1.443-1.312-2.615-2.116-3.51l-4.73-5.306
		L185.074,129.574z"/>
	<path fill="#FFFFFF" d="M200.982,140.501l6.424-1.21l0.032,0.059l-4.373,4.797L200.982,140.501z M192.909,137.805l2.127,3.722
		l3.093-0.553l3.07,5.371l-2.04,2.398l2.398,4.205l9.767-12.604l-2.595-4.541L192.909,137.805z"/>
	<path fill="#FFFFFF" d="M216.673,152.877l-8.421,2.409c-0.759,0.222-1.53,0.51-1.996,1.091c-0.63,0.781-0.716,1.855-0.435,2.859
		c0.749,2.62,2.876,2.387,4.287,1.98l8.279-2.371l1.15,4.015l-8.204,2.349c-1.562,0.451-3.331,0.717-4.644,0.087
		c-2.096-0.955-3.19-3.516-3.733-5.393c-2.008-7.015,2.138-8.23,4.46-8.892l8.062-2.295L216.673,152.877z"/>
	<polygon fill="#FFFFFF" points="220.199,168.231 220.449,172.572 208.644,173.266 209.045,180.194 206.158,180.363 
		205.496,169.094 	"/>
	
		<rect x="210.808" y="176.943" transform="matrix(0.0836 -0.9965 0.9965 0.0836 11.5477 381.1665)" fill="#FFFFFF" width="4.415" height="14.723"/>
	<path fill="#FFFFFF" d="M209.077,193.032c-0.586-0.125-2.236-0.499-2.865,1.975c-0.087,0.352-0.554,2.225,1.064,2.626
		c0.673,0.174,1.204,0,1.714-0.933l1.834-3.451c0.521-0.971,1.866-3.478,4.851-2.729c2.322,0.586,4.015,2.957,2.887,7.444
		c-1.487,5.86-4.569,5.344-6.099,4.981l1.063-4.216c0.434,0.108,1.975,0.516,2.474-1.476c0.305-1.204-0.151-2.138-1.009-2.355
		c-1.042-0.26-1.53,0.586-1.845,1.151l-1.399,2.625c-0.999,1.872-2.182,4.091-5.209,3.327c-3.19-0.804-3.885-4.027-2.94-7.786
		c0.391-1.563,1.27-4.015,3.07-5.014c1.433-0.813,2.844-0.477,3.451-0.347L209.077,193.032z"/>
	<polygon fill="#FFFFFF" points="210.792,210.334 212.863,206.103 215.49,207.389 209.392,219.834 206.776,218.553 208.893,214.225 
		198.279,209.033 200.189,205.147 	"/>
	<path fill="#FFFFFF" d="M198.411,219.617l3.624,5.447l-0.043,0.055l-6.121-2.165L198.411,219.617z M197.737,211.137l-2.593,3.407
		l1.714,2.626l-3.743,4.926l-3.007-0.938l-2.929,3.852l15.419,4.064l3.169-4.156L197.737,211.137z"/>
	<path fill="#FFFFFF" d="M120.26,244.988c-1.324,0.586-3.212,0.792-3.938,0.792l0.78-3.038c1.791-0.065,2.854-0.255,4.722-1.118
		l3.353,0.868l-3.549,13.705l-3.998-1.031L120.26,244.988z"/>
	<path fill="#FFFFFF" d="M133.742,250.333c-1.688-0.12-2.181-1.34-2.11-2.399c0.087-1.22,0.879-2.147,2.463-2.04
		c1.812,0.131,2.215,1.465,2.149,2.404C136.157,249.555,135.343,250.447,133.742,250.333 M127.465,253.804
		c0.005,0.586,0,1.552,0.761,2.42c1.154,1.308,2.863,1.796,4.763,1.926c1.834,0.125,3.787-0.087,5.285-1.654
		c1.416-1.481,1.865-3.592,1.975-5.226c0.097-1.465-0.011-2.945-0.516-4.33c-0.45-1.235-1.503-3.357-5.442-3.629
		c-3.731-0.255-6.314,1.606-6.51,4.477c-0.087,1.279,0.325,2.457,1.117,3.353c0.737,0.809,1.709,1.411,3.694,1.541
		c1.796,0.13,2.784-0.462,3.565-1.205c-0.217,2.523-0.619,4.298-2.887,4.141c-1.199-0.087-1.899-0.743-1.866-1.546L127.465,253.804z
		"/>
	<path fill="#FFFFFF" d="M147.105,247.142c-1.015,1.036-2.69,1.921-3.375,2.196l-0.39-3.119c1.633-0.722,2.562-1.291,3.966-2.783
		l3.445-0.435l1.769,14.047l-4.102,0.516L147.105,247.142z"/>
	<path fill="#FFFFFF" d="M159.64,248.21c-1.303-4.08-0.445-4.866,0.693-5.23c1.313-0.413,1.921,0.38,2.214,0.819
		c0.608,0.901,1.161,2.458,1.378,3.136c0.099,0.293,0.804,2.528,0.521,3.771c-0.141,0.606-0.684,1.096-1.313,1.297
		C161.451,252.536,160.55,251.091,159.64,248.21 M155.613,249.42c0.423,1.34,1.416,3.684,3.505,4.883
		c1.432,0.83,3.212,0.781,4.85,0.266c4.525-1.438,5.101-5.176,3.874-9.045c-0.856-2.685-2.071-3.981-3.353-4.758
		c-0.846-0.548-2.376-1.171-5.067-0.32c-1.292,0.407-3.017,1.275-3.804,3.109C154.681,245.699,155.206,248.139,155.613,249.42"/>
	<path fill="#FFFFFF" d="M165.195,206.037c-8.166,5.014-15.246,9.343-23.885,12.007c2.139,3.103,5.601,2.545,6.625,2.284
		c6.973-2.187,13.873-6.543,21.165-11.155c7.759-4.904,15.8-9.972,25.414-13.629c-0.444-0.776-0.705-1.508-0.922-2.203
		c-0.207-0.635-0.413-1.242-0.749-1.861C181.515,196.016,172.845,201.333,165.195,206.037"/>
	<path fill="#FFFFFF" d="M155.125,200.34c-5.458,1.612-10.646,4.091-15.485,6.5c-0.357,1.02-0.537,1.948-0.537,2.897
		c0,0.505,0.076,1.021,0.168,1.552c0.369-0.168,1.199-0.542,1.199-0.542c5.264-2.382,10.233-4.628,15.264-8.622
		c0.26-0.51,0.39-0.906,0.39-1.183c0-0.119-0.021-0.216-0.076-0.287C155.928,200.449,155.592,200.351,155.125,200.34"/>
	<path fill="#FFFFFF" d="M190.283,185.724c-0.195-0.418-1.085-2.257-1.085-2.257s-0.564-1.248-0.695-1.536
		c-10.916,3.191-21.149,8.009-29.613,13.938c0.022,0.245,0.38,3.886,0.445,4.498C170.382,192.999,180.506,188.204,190.283,185.724"
		/>
	<path fill="#FFFFFF" d="M89.128,136.541c1.476,1.774,6.532,7.845,7.227,8.681c-0.955,0.445-5.621,2.599-6.706,3.093
		C89.595,147.083,89.226,138.863,89.128,136.541"/>
	<polygon fill="#FFFFFF" points="87.999,135.027 87.935,133.464 89.323,135.13 90.983,133.502 82.943,125.353 94.766,129.802 
		98.895,125.76 88.597,115.235 85.916,117.855 93.62,125.668 82.21,121.479 77.983,125.614 88.042,135.89 	"/>
	<path fill="#FFFFFF" d="M109.767,192.695c-0.357-0.13-2.94-1.063-4.21-1.53c0.504,1.574,2.441,7.613,2.571,8.019
		c0.353,0.131,3.006,1.134,4.303,1.628C111.905,199.2,109.903,193.108,109.767,192.695"/>
	<path fill="#FFFFFF" d="M104.438,176.608c-0.336-0.13-2.707-1.036-3.949-1.508c0.499,1.6,2.431,7.807,2.561,8.225
		c0.358,0.131,2.892,1.058,4.172,1.525C106.68,183.245,104.568,177,104.438,176.608"/>
	<path fill="#FFFFFF" d="M115.095,208.674c-0.369-0.124-3.277-1.177-4.585-1.65c0.494,1.574,2.442,7.727,2.572,8.145
		c0.363,0.135,3.353,1.248,4.688,1.746C117.249,215.315,115.23,209.092,115.095,208.674"/>
	<path fill="#FFFFFF" d="M99.241,160.608c-0.336-0.125-2.517-0.944-3.722-1.394c0.487,1.573,2.333,7.606,2.463,8.024
		c0.348,0.131,2.681,1.009,3.928,1.481C101.379,167.115,99.377,161.01,99.241,160.608"/>
	<path fill="#FFFFFF" d="M94.879,147.18c-0.684,0.298-2.208,0.971-2.762,1.215c0.185,0.646,0.809,2.854,0.917,3.25
		c0.357,0.13,2.491,0.928,3.689,1.373C96.279,151.624,95.134,147.988,94.879,147.18"/>
	<path fill="#FFFFFF" d="M120.287,224.636c-0.358-0.136-3.358-1.27-4.693-1.775c0.504,1.596,2.441,7.737,2.572,8.15
		c0.358,0.135,3.429,1.324,4.785,1.85C122.43,231.239,120.417,225.037,120.287,224.636"/>
	<path fill="#ED3526" d="M98.112,149.274c0.012,0.005,0.027,0.043,0.027,0.043s0.988,2.116,0.988,2.122
		c2.55,4.226,5.474,11.111,9.163,21.555c0.055-0.026,5.301-2.913,5.301-2.913c6.592-3.819,13.83-7.574,22.034-9.202
		c1.432-0.347,2.75-0.569,4.036-0.694c-0.689-5.833-1.562-11.568-2.421-17.107c0,0-1.378-9.278-1.519-10.227
		C125.501,134.94,113.19,140.312,98.112,149.274"/>
	<polygon fill="#FFFFFF" points="130.606,139.557 130.645,141.657 132.05,140.018 134.128,140.566 132.918,138.873 134.096,137.148 
		132.163,137.761 130.823,136.117 130.667,138.233 128.713,138.846 	"/>
	<polygon fill="#FFFFFF" points="134.475,157.586 134.508,159.653 135.907,157.988 137.991,158.574 136.771,156.871 137.953,155.15 
		136.016,155.752 134.676,154.108 134.524,156.225 132.565,156.827 	"/>
	<polygon fill="#FFFFFF" points="110.038,168.27 110.081,170.358 111.47,168.73 113.554,169.284 112.344,167.581 113.521,165.866 
		111.59,166.479 110.25,164.813 110.081,166.941 108.128,167.554 	"/>
	<polygon fill="#FFFFFF" points="103.175,151.998 103.224,154.087 104.624,152.437 106.695,152.991 105.492,151.298 
		106.664,149.573 104.727,150.191 103.396,148.536 103.234,150.636 101.271,151.26 	"/>
	<path fill="#FFFFFF" d="M131.643,152.839c-0.281-14.34-23.222-14.372-22.906-0.022C109.04,167.185,131.963,167.185,131.643,152.839
		"/>
	<path fill="#01539B" d="M111.546,153.935c-0.016-0.082,0.044-0.158,0.033-0.299c0.033,0,0.064-0.081,0.087-0.081l-0.022-0.163
		h0.033c0.135-0.418-0.136-0.401,0.223-0.792l-0.017-0.065c0.185-0.065,0.423-0.179,0.488-0.336c0.033,0,0.098-0.076,0.087-0.109
		l0.597-0.19c-0.038-0.276,0.152-0.787,0.108-1.112c0.076-0.103,0.021-0.293,0-0.45l-0.038-0.065c0-0.006-0.135-0.017-0.179-0.006
		c-0.038-0.108-0.081-0.146-0.185-0.146l-0.044-0.028l-0.021-0.2l0.119-0.038c-0.012-0.071,0.049-0.017,0.043-0.082l0.131-0.054
		l-0.012-0.173l-0.141,0.075c-0.021-0.075-0.055-0.168-0.103-0.146l-0.018-0.13c0.272-0.098,0.879-0.527,1.118-0.277
		c0.195-0.071,1.226,0.147,1.34-0.233l0.092-0.038c0.022-0.055,0.076-0.147,0.152-0.168c-0.021-0.169,0.131-0.283,0.055-0.472
		c-0.075,0.016-0.113-0.033-0.185-0.028c0-0.032-0.043-0.032-0.061-0.081c-0.026,0-0.054-0.016-0.135,0l-0.021-0.016l-0.012-0.114
		c-0.031,0-0.087-0.027-0.118-0.027c-0.012-0.022-0.027-0.179,0.037-0.196c0-0.027,0.05-0.092,0.027-0.097l1.378-0.516
		c-0.016-0.049,0.017-0.097,0.017-0.152c0.017,0,0.075-0.048,0.113-0.054c-0.016-0.125,0.065-0.168,0.142-0.201l-0.011-0.108
		l0.113-0.033l0.028-0.087c0.141-0.059,0.313,0.12,0.455,0.087c0,0.022,0.011,0.087,0.076,0.065
		c0.021,0.109,0.064,0.223,0.075,0.331c-0.075,0.027-0.206,0.245-0.271,0.288l-0.033,0.114l0.055,0.38
		c0.076,0.021,0.168,0.146,0.195,0.179c-0.119-0.158-0.027-0.033,0.005,0.092c0.071-0.033,0.114-0.016,0.125,0.043
		c-0.054-0.076-0.011-0.059,0.055-0.032c-0.108-0.044-0.065-0.027,0.017,0.076c0.13-0.038,0.266-0.12,0.385-0.179
		c0-0.022,0.043-0.06,0.043-0.114c0.152-0.044,0.358-0.179,0.555-0.25c0.011-0.114,0.011-0.114,0-0.217
		c0.043-0.016,0.087-0.038,0.087-0.098c0.075-0.016,0.054-0.097,0.054-0.13c0.195-0.049,0.64-0.374,0.803-0.206l0.401-0.146
		l0.026-0.071c0.071-0.038,0.19-0.103,0.256-0.157c0-0.033,0.032-0.055,0.032-0.082c0.022-0.032,0.055-0.048,0.119-0.076l0.033-0.07
		l-0.022-0.092c0.045-0.017,0.038-0.076,0.038-0.082c0,0,0.018-0.065,0.018-0.103c0.037-0.016,0.146-0.054,0.13-0.114
		c0.064-0.032,0.076-0.157,0.124-0.157l-0.037-0.163l0.037-0.065l0.146-0.043c0.022,0.016,0.055,0.043,0.099,0.043l0.01,0.103
		c0.044,0.049,0.087,0.13,0.109,0.282c0.049,0,0.064,0.098,0.075,0.19c0,0,0.142,0.163,0.142,0.266c0.13,0,0.293,0.081,0.412,0.049
		c0.011,0.114-0.021,0.168-0.011,0.271c-0.065,0.06-0.401,0.483-0.412,0.553c-0.032,0.006-0.061,0.098-0.131,0.12l-0.032,0.043
		c0.032-0.043,0,0,0.006,0.065l-0.027,0.087c-0.033,0.011-0.044,0.071-0.076,0.071v0.097c0.043-0.016,0.065,0.017,0.076,0.049
		c0.054-0.011,0.076,0.049,0.076,0.087c0.043,0,0.119,0.027,0.152,0l0.054,0.038c0.011,0.081,0.011,0.081,0.087,0.049
		c0.011,0.065,0.173-0.027,0.195,0.065c0.281-0.114,0.563-0.239,0.7-0.57c0.037-0.011,0.103-0.076,0.103-0.076
		c0.109-0.043,0.543-0.347,0.581-0.125c0.07-0.016,0.472-0.097,0.472-0.07l0.113-0.027l0.044,0.06
		c0.136,0.037,0.391-0.12,0.515-0.06l0.012,0.097c0.064,0.006,0.261,0.163,0.271,0.201c0.022,0,0.517-0.342,0.521-0.217l0.255-0.081
		c0.125,0.081,0.581-0.065,0.771-0.13c0.005,0.097,0.353-0.201,0.363,0c0.136-0.055,0.146-0.028,0.217,0.065
		c0.033-0.017,0.142,0.005,0.179,0.005l0.061,0.016c0.049,0.071,0.125,0.087,0.228,0.071c0,0.016,0.218,0.108,0.293,0.07
		c0.022,0.12,0.261,0.098,0.348,0.06c0.011,0.13,0.347,0,0.472-0.022c0,0.022,0,0.022,0.049,0.022c0,0,0.157,0.098,0.19,0.065
		c0.016,0.076,0.114,0.13,0.179,0.103h0.081c0.006,0.087,0.093,0.228,0.114,0.228c0.033,0.282,0.108,1.329-0.195,1.416
		c0.017,0.082,0.017,0.082-0.054,0.082c0,0.081-0.049,0.222-0.087,0.222l0.021,0.103c-0.108,0.027-0.093,0.087-0.142,0.152
		l-0.081,0.114c0.006,0.027-0.005,0.06,0,0.098c-0.043,0-0.076,0.049-0.098,0.065c0,0.022-0.087,0.244-0.168,0.282
		c0,0.065-0.055,0.195-0.163,0.228c0,0.049-0.032,0.081-0.011,0.136l-0.098,0.021c0,0.087-0.174,0.25-0.195,0.353l-0.31,0.103
		l-0.065,0.07l0.065,0.798c-0.07,0.141,0.114,0.586-0.027,0.743c0.027,0.245-0.184,0.51-0.146,0.792
		c-0.13,0.19-0.038,0.554-0.152,0.679l0.011,0.097c-0.049,0.011-0.06,0.12-0.125,0.147c0.076-0.136,0.065-0.027,0,0.07
		c-0.032,0.017-0.032,0.125-0.075,0.131c-0.027,0.108-0.099,0.119-0.088,0.227l-0.026,0.028l-0.038,0.043l-0.087,0.06l0.021,0.092
		c-0.076,0.022,0.038,0.054-0.098,0.087c0.006,0.119-0.059,0.228-0.043,0.298l-0.033,0.065c-0.021,0-0.114,0.092-0.107,0.152
		c-0.071,0.016-0.147,0.114-0.142,0.179c-0.146,0.033-0.825,0.092-0.803,0.326c-0.098,0.049-0.413,0.097-0.402,0.238
		c-0.184,0.082-0.683,0.234-0.754,0.445c-0.076,0.011-0.157,0.158-0.184,0.223c-0.049,0-0.158,0.054-0.158,0.135
		c-0.081,0.028-0.125,0.152-0.173,0.218c0,0.032-0.033,0.054-0.033,0.097c-0.032,0.022-0.087,0.13-0.13,0.13
		c0.011,0.017-0.092,0.348-0.125,0.364c0.071,0.423,0.119,0.857-0.005,1.275c-0.099,0.043-0.163,0.114-0.163,0.211
		c-0.049,0.011,0.021,0.038-0.049,0.06l0.021,0.13c-0.071,0.011-0.092,0.169-0.071,0.261c0-0.25-0.021-0.092-0.069,0.005
		l0.016,0.092c-0.071,0.028-0.071,0.028-0.054,0.098c-0.065,0.022-0.174,0.195-0.174,0.195l-0.022,0.038
		c-0.048,0.017-0.15,0.179-0.15,0.201c-0.05,0.022,0.01,0.044-0.087,0.082c0.011,0.048,0,0.092,0,0.114l-0.109,0.037
		c-0.016-0.059-0.065-0.168-0.065-0.244c0.099-0.059,0.022-0.065,0.099-0.065c-0.012-0.059,0.021-0.016,0.016-0.125
		c0.098-0.016,0.081-0.097,0.125-0.108c-0.006-0.103,0.049-0.163,0.087-0.212l-0.239,0.087c0.012,0.076-0.037,0-0.021,0.103
		c-0.119,0.033-0.092,0.13-0.125,0.13c0,0.066-0.027,0.125-0.027,0.179c-0.081,0.022-0.026,0.038-0.076,0.044
		c0.012,0.13-0.087,0.532-0.156,0.548c0.005,0.065,0.054,0.141-0.027,0.184c0.011,0.109-0.065,0.19-0.098,0.261l-0.152,0.076
		l-0.021-0.201c0.162-0.065-0.228-0.369-0.25-0.369c-0.011-0.103-0.043-0.032-0.043-0.076c-0.055,0.006-0.261-0.119-0.261-0.119
		l-0.098,0.038c-0.043-0.038-0.244,0.054-0.303,0.081c-0.018-0.119-0.125-0.119-0.152-0.13c-0.196,0.049-0.385,0-0.592,0.065
		c-0.032-0.201,0.266-0.391,0.244-0.515c0.119-0.017,0.185-0.066,0.207-0.163c0.054,0,0.13-0.033,0.13-0.109l0.098-0.027
		c-0.011-0.038,0.048-0.098,0.037-0.114c0.18-0.076,0.082-0.407,0.299-0.472c-0.011-0.065,0.141-0.173,0.174-0.277
		c0.032,0,0.108-0.038,0.108-0.113c0.141-0.049,0.13-0.18,0.206-0.207l-0.032-0.336c-0.033,0.011-0.12-0.092-0.152-0.13
		c-0.13,0.054-0.25-0.076-0.281-0.076l-0.076-0.581c-0.152,0.06-0.305,0.076-0.435,0.109c0-0.033,0-0.049-0.055-0.033l-0.027-0.396
		c0,0-0.092-0.043-0.125-0.043c-0.021-0.093-0.086-0.098-0.092-0.147c-0.049,0.027-0.103,0-0.114-0.07
		c-0.168,0.059-0.438,0.07-0.65,0.124h-0.027c-0.092-0.227-0.049-1.036-0.222-1.063c-0.071-0.391-0.364-0.624-0.407-1.004
		c-0.049,0.027-0.13-0.108-0.146-0.2c-0.043,0.01-0.098-0.006-0.098-0.06c-0.189,0.06-0.348,0.07-0.5,0.13l-0.054-0.06l-0.032-0.07
		l-0.093-0.597c-0.179,0.065-0.586,0.109-0.841,0.19c-0.043-0.065-0.092-0.049-0.18-0.016c0-0.065-0.103,0.027-0.113-0.065
		c-0.13,0.032-0.249-0.028-0.331-0.109c-0.13,0.049-0.537-0.065-0.569-0.173c-0.033,0-0.06,0-0.071-0.033l-0.054-0.065
		c-0.033,0.016-0.146-0.044-0.146-0.044c-0.011-0.059-0.055-0.108-0.055-0.108l-0.13-0.304l-0.011-0.125l-0.043-0.016
		c-0.163,0.033-0.348,0.06-0.532,0.125c-0.038,0.059-0.103,0.13-0.081,0.195c-0.071,0.027-0.131,0.076-0.125,0.109
		c-0.071,0.065-0.141,0.184-0.261,0.233l-0.054,0.141h-0.055c0,0-0.098,0.146-0.098,0.174l-0.097,0.032
		c-0.071,0.13-0.456,0.195-0.586,0.19v-0.06c-0.045,0.011-0.163-0.016-0.196-0.005c-0.011-0.027-0.038-0.282-0.054-0.266
		c-0.006-0.081-0.055-0.125-0.055-0.157l-0.38,0.13c0,0.011-0.092,0.108-0.087,0.152c-0.081,0.022-0.282,0.141-0.304,0.016
		c-0.065,0.033-0.142,0.006-0.173,0.006l-0.099,0.043l-0.026-0.043l-0.055-0.038c0-0.076,0-0.076-0.07-0.06
		c-0.022-0.076-0.081-0.255-0.163-0.239c-0.005-0.043-0.021-0.065-0.055-0.065C111.633,154.049,111.579,153.935,111.546,153.935
		 M122.3,146.99c-0.054,0.043-0.77,0.06-0.749,0.228l-0.13,0.054l0.022,0.103c-0.044,0.027-0.033,0.136-0.022,0.163l-0.065,0.065
		l0.071,0.027l0.017,0.065l0.043,0.038l0.087-0.038c0.011,0.049,0.032-0.016,0.043,0.049c0.064-0.032,0.185-0.092,0.195,0
		c0.185-0.065,0.325-0.217,0.478-0.266c-0.016-0.011,0.044-0.103,0.054-0.103c-0.005-0.043-0.005-0.081,0.033-0.103l-0.033-0.157
		l-0.076,0.027l-0.021-0.092L122.3,146.99z"/>
	<path fill="#FFFFFF" d="M156.378,142.178c-5.453-6.017-12.164-4.878-19.151-2.951c0.135,0.656,0.199,1.35,0.232,2.04
		c0.043,0.83,0.108,1.671,0.315,2.452c6.217-2.398,12.022-2.062,18.186,1.063C156.09,143.914,156.231,143.046,156.378,142.178"/>
	<path fill="#FFFFFF" d="M155.353,148.987c-5.588-1.915-11.47-1.774-16.629,0.385c0.06,0.32,0.444,2.442,0.444,2.442
		s0.363,2.007,0.451,2.512c1.92-0.912,11.057-2.729,15.126,0.027C154.919,152.579,155.12,150.794,155.353,148.987"/>
	<path fill="#FFFFFF" d="M156.59,148.569c-0.255,1.91-0.472,3.793-0.662,5.664c1.248-0.727,3.604-2.105,3.604-2.105
		c4.394-2.675,8.561-5.203,20.822-9.147c0.022-0.266,0.305-4.607,0.348-5.193C169.655,141.825,164.099,144.049,156.59,148.569"/>
	<path fill="#FFFFFF" d="M155.185,165.904c0.581-0.385,1.313-0.879,1.313-0.879c5.864-3.988,13.168-8.925,24.821-10.287
		c-0.054-0.38-0.629-4.557-0.693-4.986c-10.776,2.496-17.059,5.773-25.229,11.253C155.299,162.649,155.223,164.287,155.185,165.904"
		/>
	<path fill="#FFFFFF" d="M154.213,161.243c-2.962-0.45-7.504-0.77-8.94-0.77c-12.74,0-23.233,5.772-33.384,11.366
		c0,0-2.664,1.455-2.979,1.628c0.13,0.32,1.416,3.418,1.574,3.792c0.396-0.19,6.608-3.277,6.608-3.277
		c11.615-5.897,24.757-12.565,36.938-8.431C154.067,164.129,154.126,162.692,154.213,161.243"/>
	<path fill="#FFFFFF" d="M155.363,177.276c0.468-0.293,0.836-0.527,0.836-0.527c8.096-5.089,16.473-10.33,26.933-11.719
		c-0.325-0.933-0.391-1.899-0.412-2.843c-0.022-0.759-0.065-1.476-0.229-2.159c-9.56,2.208-17.807,5.805-27.322,11.909
		C155.2,173.722,155.266,175.501,155.363,177.276"/>
	<path fill="#FFFFFF" d="M154.007,172.588l-0.011-0.006c-14.09-4.936-27.784,3.104-41.034,10.939
		c0.201,0.661,0.277,1.367,0.349,2.115c0.069,0.793,0.173,1.601,0.417,2.361c12.718-7.835,25.414-14.448,40.497-10.255
		C154.121,176.033,154.05,174.314,154.007,172.588"/>
	<path fill="#FFFFFF" d="M184.641,171.417c-11.405,3.043-19.749,7.59-28.626,13.466c0.174,1.585,0.375,3.163,0.607,4.737
		c0.728-0.44,2.995-1.812,2.995-1.812c7.759-4.732,16.537-10.07,26.835-11.644C186.289,175.725,184.781,171.764,184.641,171.417"/>
	<path fill="#FFFFFF" d="M154.626,182.924c-14.134-2.87-24.426,3.152-37.41,10.786c0,0-1.128,0.662-1.378,0.813
		c0.076,0.234,0.277,0.858,0.277,0.858s1.02,2.984,1.177,3.424c0.424-0.255,4.812-2.893,4.812-2.893
		c9.892-6.043,19.262-11.718,32.998-8.778C154.924,185.729,154.762,184.329,154.626,182.924"/>
	<path fill="#FFFFFF" d="M155.825,192.023c-12.191-2.301-21.253,3.152-31.702,9.468c0,0-5.643,3.363-5.936,3.543
		c0.06,0.195,0.173,0.553,0.173,0.553s1.13,3.261,1.281,3.716c0.435-0.271,5.035-3.179,5.035-3.179
		c10.026-6.451,18.74-12.013,31.853-10.173C156.274,194.638,156.047,193.325,155.825,192.023"/>
</g>
</svg>
