<?xml version="1.0" encoding="utf-8"?>
<!-- Generator: Adobe Illustrator 19.1.0, SVG Export Plug-In . SVG Version: 6.00 Build 0)  -->
<svg version="1.1" id="Layer_1" xmlns="http://www.w3.org/2000/svg" xmlns:xlink="http://www.w3.org/1999/xlink" x="0px" y="0px"
	 viewBox="-417.3 622.6 171.4 171.4" enable-background="new -417.3 622.6 171.4 171.4" xml:space="preserve">
<g>
	<path fill="#305A8A" d="M-331.6,622.6c47.2,0,85.7,38.5,85.7,85.7c0,47.2-38.5,85.7-85.7,85.7c-47.2,0-85.7-38.5-85.7-85.7
		C-417.3,661.1-378.8,622.6-331.6,622.6L-331.6,622.6z"/>
	<path fill="#FFFFFF" d="M-331.6,625.1c45.8,0,83.2,37.4,83.2,83.2s-37.4,83.2-83.2,83.2s-83.2-37.4-83.2-83.2
		S-377.4,625.1-331.6,625.1L-331.6,625.1z"/>
	<path fill="#305A8A" d="M-331.6,649.3c32.5,0,59,26.5,59,58.9s-26.5,59-59,59c-32.5,0-59-26.5-59-59S-364.1,649.3-331.6,649.3
		L-331.6,649.3z"/>
	<path fill="#305A8A" d="M-410.4,696.9l16.4,1.4l-1.3,14.6l-3.5-0.3l0.8-9.1l-2.6-0.2l-0.7,8.4l-3.5-0.3l0.7-8.4l-3.2-0.3l-0.8,9.5
		l-3.6-0.3L-410.4,696.9L-410.4,696.9z M-404.6,721.5L-404.6,721.5l-0.5,0.1c-0.6,0.1-1,0.5-1.2,1.1c-0.2,0.6-0.1,1.5,0.1,2.6
		c0.2,0.9,0.5,1.5,0.8,1.9c0.4,0.4,0.8,0.6,1.2,0.5c0.7-0.1,1-1.2,0.9-3.2l0-0.5l0-0.6c0-3.2,0.2-5.3,0.8-6.3
		c0.3-0.5,0.6-0.9,1.1-1.3c0.2-0.2,0.5-0.3,0.7-0.4c0.3-0.1,0.6-0.2,0.9-0.3c1.6-0.4,2.9,0.1,4.1,1.3c1.2,1.2,2,3.1,2.7,5.8
		c0.6,2.6,0.7,4.7,0.2,6.1c-0.5,1.4-1.5,2.4-3.1,2.7l-0.2,0l-1.2-5l0.1,0c0.5-0.1,0.9-0.5,1.1-1c0.1-0.3,0.1-0.6,0.1-1
		c0-0.4-0.1-0.8-0.2-1.3c-0.2-0.8-0.4-1.3-0.7-1.7c-0.3-0.4-0.6-0.5-1-0.4c-0.7,0.2-1,1.4-0.9,3.7l0,1c0,1.7,0,2.9-0.1,3.5
		c-0.1,0.7-0.3,1.3-0.5,1.9c-0.3,0.6-0.7,1.2-1.2,1.6c-0.5,0.4-1.1,0.7-1.8,0.9c-1.6,0.4-3.1-0.1-4.3-1.4c-1.2-1.3-2.2-3.4-2.8-6.2
		c-0.6-2.8-0.7-4.9-0.1-6.4c0.6-1.4,1.8-2.4,3.6-2.8l0.2-0.1L-404.6,721.5L-404.6,721.5z M-391.1,738.4l-3,1.7l1.6,2.7
		c0.4,0.6,0.8,1,1.2,1.2c0.4,0.2,0.9,0.1,1.4-0.2c0.5-0.3,0.8-0.6,0.8-1.1c0.1-0.5-0.1-1-0.4-1.6L-391.1,738.4L-391.1,738.4z
		 M-405.2,740.1l14.2-8.2l5,8.7c1.1,1.9,1.6,3.5,1.4,4.8c-0.2,1.3-1,2.3-2.5,3.2c-1.5,0.9-2.9,1.1-4.3,0.7c-1.4-0.4-2.5-1.5-3.5-3.1
		l-2.4-4.2l-5.2,3L-405.2,740.1L-405.2,740.1z M-384.3,756.7c-1.2,1.2-1.8,2.4-1.8,3.5c0,1.1,0.5,2.2,1.6,3.3c1.1,1,2.2,1.5,3.3,1.5
		c1.1-0.1,2.3-0.7,3.4-1.8c1.2-1.3,1.9-2.5,2-3.7c0.1-1.2-0.4-2.3-1.5-3.4c-1-1-2.1-1.4-3.3-1.3C-382,754.8-383.2,755.5-384.3,756.7
		L-384.3,756.7z M-387.1,765.6c-2.3-2.3-3.6-4.5-3.8-6.7c-0.2-2.2,0.7-4.3,2.6-6.3c1.9-1.9,4-2.8,6.3-2.6c2.3,0.2,4.6,1.4,7,3.8
		c2.4,2.3,3.7,4.6,3.9,6.8c0.2,2.3-0.6,4.4-2.6,6.4c-1.9,2-4,2.8-6.3,2.6C-382.2,769.4-384.6,768.1-387.1,765.6L-387.1,765.6z
		 M-362.8,766.8l-1.5,2.9l2.8,1.4c0.7,0.3,1.2,0.5,1.6,0.4c0.4-0.1,0.8-0.4,1-0.9c0.3-0.5,0.3-1,0.1-1.3c-0.2-0.4-0.6-0.8-1.3-1.1
		L-362.8,766.8L-362.8,766.8z M-373.7,776l7.5-14.6l8.4,4.3c0.9,0.4,1.6,0.8,2.2,1.2c0.6,0.3,1,0.6,1.3,0.8c0.6,0.4,1,0.9,1.3,1.4
		c0.3,0.5,0.4,1.1,0.4,1.7c0,0.7-0.2,1.3-0.5,1.9c-0.5,1-1.2,1.6-2.2,1.9c-0.9,0.3-2,0.2-3.2-0.3c0.6,0.3,1.1,0.6,1.4,0.9
		s0.6,0.7,0.8,1.1c0.3,0.6,0.3,1.5-0.1,2.4l-1,2.6c-0.1,0.3-0.3,0.7-0.4,1.2l-0.3,1.5l-5.1-2.6c0-0.1,0-0.3,0.1-0.5
		c0-0.2,0.1-0.4,0.2-0.6c0.1-0.3,0.1-0.4,0.1-0.5c0.1-0.2,0.2-0.4,0.3-0.7l0.9-2.1c0.2-0.3,0.3-0.6,0.3-0.9c0-0.3,0-0.5-0.1-0.7
		c-0.1-0.4-0.6-0.7-1.4-1.1l-3.1-1.6l-2.9,5.7L-373.7,776L-373.7,776z M-347.6,786.1l2.4-12.6l-6-1.2l0.7-3.5l17.5,3.4l-0.7,3.5
		l-6-1.2l-2.4,12.6L-347.6,786.1L-347.6,786.1z M-330.2,788.3l-2-16.3l14.5-1.8l0.4,3.5l-9.1,1.1l0.3,2.6l8.4-1l0.4,3.5l-8.4,1
		l0.4,3.2l9.4-1.2l0.4,3.6L-330.2,788.3L-330.2,788.3z M-296.3,767.4c-0.5-0.6-1-1-1.7-1.1c-0.6-0.1-1.4,0-2.2,0.4
		c-1.3,0.6-2,1.5-2.3,2.7c-0.3,1.2,0,2.5,0.7,3.9c0.7,1.4,1.6,2.3,2.7,2.8c1.1,0.4,2.2,0.3,3.5-0.3c0.9-0.5,1.5-1.1,1.8-1.8
		c0.3-0.7,0.3-1.5,0-2.5l5.2-2.6c0.8,2,0.7,3.8-0.2,5.5c-0.9,1.6-2.8,3.2-5.7,4.6c-2.7,1.4-5.2,1.8-7.3,1.3c-2.2-0.5-3.8-1.9-5-4.2
		c-1.3-2.5-1.5-4.8-0.6-7c0.9-2.2,2.8-4,5.7-5.5c2.5-1.3,4.7-1.8,6.4-1.6c0.9,0.1,1.7,0.4,2.4,0.8c0.7,0.5,1.3,1.1,1.7,1.9
		L-296.3,767.4L-296.3,767.4z M-273.5,757.7l2.5,2.6l-10.2,9.9l-11.4-11.8l4-3.9l8.9,9.2L-273.5,757.7L-273.5,757.7z M-281.5,747.8
		l2.7-4.7l8.1,4.7c1.2,0.7,2.2,0.9,3.1,0.7s1.7-0.9,2.3-2c0.6-1.1,0.8-2.1,0.6-3c-0.3-0.9-1-1.7-2.1-2.3l-8.1-4.7l2.6-4.6l8,4.6
		c2.2,1.3,3.5,2.9,3.8,4.7s-0.4,4.2-2,7c-1.6,2.8-3.3,4.5-5,5.1s-3.7,0.3-6-1L-281.5,747.8L-281.5,747.8z M-267.4,725.6l3.3,0.8
		l0.6-2.8c0.2-0.7,0.1-1.2-0.1-1.6c-0.2-0.4-0.6-0.7-1.1-0.8c-0.5-0.1-1,0-1.4,0.2c-0.4,0.3-0.6,0.8-0.8,1.4L-267.4,725.6
		L-267.4,725.6z M-261.4,727l3.5,0.8l0.7-3.2c0.2-0.8,0.2-1.4,0-1.8c-0.2-0.5-0.6-0.8-1.2-0.9c-0.6-0.1-1.1,0-1.4,0.3
		c-0.4,0.3-0.7,0.9-0.9,1.6L-261.4,727L-261.4,727z M-255.8,733.7l-16-3.7l2.3-9.9c0.1-0.6,0.3-1.1,0.4-1.5c0.1-0.4,0.2-0.7,0.4-1
		c0.1-0.3,0.2-0.5,0.4-0.7c0.1-0.2,0.3-0.4,0.5-0.6c0.4-0.5,1-0.8,1.6-1c0.6-0.2,1.3-0.2,2,0c0.9,0.2,1.6,0.6,2,1.3
		c0.5,0.7,0.7,1.6,0.8,2.8c0.6-1.3,1.4-2.1,2.2-2.6c0.8-0.5,1.8-0.6,2.9-0.3c1.4,0.3,2.4,1,2.9,2c0.5,1,0.6,2.3,0.2,4L-255.8,733.7
		L-255.8,733.7z M-251.6,711.3l-16.4,1.4l-1.3-14.6l3.5-0.3l0.8,9.1l2.6-0.2l-0.7-8.4l3.5-0.3l0.7,8.4l3.2-0.3l-0.8-9.5l3.6-0.3
		L-251.6,711.3L-251.6,711.3z M-392.3,667c-0.7-0.3-1.4-0.4-2-0.1c-0.6,0.2-1.2,0.7-1.7,1.5c-0.8,1.2-1,2.4-0.7,3.5
		c0.3,1.1,1.2,2.2,2.6,3.1c1.3,0.9,2.6,1.2,3.7,1.1c1.1-0.2,2.1-0.8,2.9-2c0.6-0.9,0.8-1.7,0.7-2.5c-0.1-0.8-0.5-1.5-1.2-2.2
		l3.2-4.9c1.7,1.3,2.5,2.9,2.5,4.8c0,1.9-0.9,4.2-2.6,6.8c-1.7,2.6-3.6,4.2-5.7,4.8c-2.1,0.6-4.3,0.3-6.4-1.1
		c-2.3-1.5-3.7-3.4-4-5.8c-0.3-2.3,0.4-4.8,2.2-7.6c1.5-2.4,3.1-3.9,4.8-4.6c0.8-0.4,1.7-0.6,2.5-0.5c0.9,0,1.7,0.3,2.5,0.8
		L-392.3,667L-392.3,667z M-382.5,652.3l2.2,2.5l2.4-2c0.6-0.5,0.9-1,1-1.4c0.1-0.4,0-0.9-0.4-1.3c-0.4-0.4-0.8-0.6-1.2-0.6
		c-0.4,0-0.9,0.3-1.5,0.8L-382.5,652.3L-382.5,652.3z M-378,665.8l-10.8-12.4l7.1-6.2c0.7-0.6,1.4-1.2,1.9-1.6
		c0.5-0.4,0.9-0.7,1.3-0.9c0.6-0.4,1.2-0.6,1.8-0.7c0.6-0.1,1.1,0,1.7,0.3c0.6,0.3,1.1,0.7,1.6,1.2c0.7,0.8,1,1.7,0.9,2.7
		c-0.1,1-0.6,1.9-1.5,2.9c0.5-0.4,1-0.7,1.4-1c0.4-0.2,0.9-0.3,1.3-0.3c0.7-0.1,1.5,0.3,2.2,1l2,1.9c0.3,0.3,0.6,0.5,1,0.8l1.3,0.9
		l-4.3,3.7c-0.1-0.1-0.3-0.2-0.4-0.2c-0.1-0.1-0.3-0.2-0.5-0.4c-0.2-0.2-0.3-0.3-0.4-0.3c-0.2-0.2-0.3-0.3-0.5-0.5l-1.6-1.6
		c-0.2-0.3-0.5-0.5-0.7-0.6c-0.2-0.1-0.4-0.2-0.7-0.2c-0.4,0-0.9,0.3-1.6,0.8l-2.6,2.3l4.2,4.9L-378,665.8L-378,665.8z M-369,638.2
		l5-2l3.5,8.7c0.5,1.3,1.2,2.1,2,2.5c0.8,0.4,1.8,0.3,3.1-0.2c1.2-0.5,1.9-1.1,2.3-2c0.3-0.9,0.3-1.9-0.2-3.2l-3.5-8.7l4.9-2
		l3.5,8.6c1,2.4,1,4.4,0,6s-2.9,3.1-5.9,4.3c-3,1.2-5.3,1.5-7.1,1c-1.8-0.6-3.1-2-4.1-4.4L-369,638.2L-369,638.2z M-336.4,642.3
		l10-0.2l0.1,3.6l-16.4,0.3l-0.1-4.5l9.1-8.5l-8.8,0.2l-0.1-3.6l15.6-0.3l0.1,4.4L-336.4,642.3L-336.4,642.3z M-323.5,646.1
		l3.4-16.1l14.3,3l-0.7,3.5l-8.9-1.9l-0.5,2.6l8.3,1.8l-0.7,3.4l-8.3-1.8l-0.7,3.1l9.3,2l-0.7,3.5L-323.5,646.1L-323.5,646.1z
		 M-306.8,650.8l7.5-14.6l5,2.5l-7.5,14.6L-306.8,650.8L-306.8,650.8z M-286.4,647.7l-2,2.6l2.5,1.9c0.6,0.5,1.1,0.7,1.5,0.7
		c0.4,0,0.8-0.2,1.2-0.7c0.4-0.5,0.5-0.9,0.4-1.3c-0.1-0.4-0.5-0.9-1.1-1.3L-286.4,647.7L-286.4,647.7z M-298.8,654.7l10.1-12.9
		l7.4,5.8c0.8,0.6,1.4,1.1,1.9,1.6c0.5,0.4,0.9,0.8,1.1,1.1c0.5,0.5,0.8,1.1,1,1.6c0.2,0.5,0.2,1.1,0,1.8c-0.1,0.6-0.4,1.2-0.9,1.8
		c-0.7,0.9-1.5,1.3-2.5,1.4c-1,0.1-2-0.2-3.1-0.9c0.5,0.4,0.9,0.8,1.2,1.2c0.3,0.4,0.5,0.8,0.6,1.2c0.2,0.7,0,1.5-0.5,2.4l-1.4,2.3
		c-0.2,0.3-0.4,0.7-0.6,1.1l-0.6,1.4l-4.5-3.5c0-0.1,0.1-0.3,0.2-0.4c0.1-0.1,0.2-0.3,0.3-0.6c0.1-0.2,0.2-0.4,0.2-0.4
		c0.1-0.2,0.3-0.4,0.4-0.6l1.3-1.9c0.2-0.3,0.4-0.6,0.5-0.8c0.1-0.2,0.1-0.5,0.1-0.7c-0.1-0.4-0.4-0.8-1.1-1.4l-2.7-2.1l-4,5.1
		L-298.8,654.7L-298.8,654.7z M-274.1,667.2c-1.4,0.9-2.2,1.9-2.5,3c-0.3,1.1,0,2.3,0.8,3.5c0.8,1.3,1.8,2,2.9,2.2
		c1.1,0.2,2.4-0.1,3.7-1c1.5-1,2.4-2,2.7-3.2c0.4-1.2,0.1-2.4-0.7-3.7c-0.8-1.2-1.7-1.8-3-2C-271.4,665.9-272.7,666.3-274.1,667.2
		L-274.1,667.2z M-278.8,675.3c-1.8-2.7-2.5-5.2-2.2-7.4c0.3-2.2,1.6-4.1,4-5.6c2.3-1.5,4.5-1.9,6.7-1.2c2.2,0.7,4.2,2.5,6,5.2
		c1.8,2.8,2.5,5.3,2.3,7.5c-0.3,2.3-1.6,4.1-4,5.7c-2.3,1.5-4.5,1.9-6.7,1.2C-274.9,680-276.9,678.2-278.8,675.3L-278.8,675.3z"/>
	<path fill="#FFFFFF" d="M-327.4,741.3l2.2,6.8h7.2l-5.9,4.2l2.3,6.8l-5.9-4.1l-5.7,4.1l2.2-6.7l-5.9-4.3l7.3,0L-327.4,741.3
		L-327.4,741.3z M-295.6,692.2l2.2,6.8h7.2l-5.9,4.2l2.3,6.8l-5.9-4.1l-5.7,4.1l2.2-6.7l-5.9-4.3l7.3,0L-295.6,692.2L-295.6,692.2z
		 M-320.3,707.5l1.4,4.3h4.5l-3.7,2.7l1.4,4.3l-3.7-2.6l-3.6,2.6l1.4-4.3l-3.7-2.7l4.6,0L-320.3,707.5L-320.3,707.5z M-332.7,661
		l2.2,6.8h7.2l-5.9,4.2l2.3,6.8l-5.9-4.1l-5.7,4.1l2.2-6.7l-5.9-4.3l7.3,0L-332.7,661L-332.7,661z M-365.8,693.9l2.2,6.8h7.2
		l-5.9,4.2l2.3,6.8l-5.9-4.1l-5.7,4.1l2.2-6.7l-5.9-4.3l7.3,0L-365.8,693.9L-365.8,693.9z"/>
</g>
</svg>
