<?xml version="1.0" encoding="iso-8859-1"?><!-- Generator: Adobe Illustrator 16.0.0, SVG Export Plug-In . SVG Version: 6.00 Build 0) --><!DOCTYPE svg PUBLIC "-//W3C//DTD SVG 1.1//EN" "http://www.w3.org/Graphics/SVG/1.1/DTD/svg11.dtd"><svg version="1.1" id="Layer_1" xmlns="http://www.w3.org/2000/svg" xmlns:xlink="http://www.w3.org/1999/xlink" x="0px" y="0px" width="211.414px" height="211.414px" viewBox="0 0 211.414 211.414" style="enable-background:new 0 0 211.414 211.414;" xml:space="preserve"><path style="fill:#147039;" d="M105.708,0c58.221,0,105.707,47.485,105.707,105.707c0,58.221-47.485,105.707-105.707,105.707	C47.486,211.414,0,163.928,0,105.707C0,47.485,47.486,0,105.708,0L105.708,0z"/><path style="fill:#FFFFFF;" d="M105.708,4.498c55.743,0,101.208,45.465,101.208,101.209c0,55.744-45.465,101.209-101.208,101.209	c-55.744,0-101.209-45.465-101.209-101.209C4.498,49.963,49.963,4.498,105.708,4.498L105.708,4.498z"/><path style="fill:#147039;stroke:#147039;stroke-width:0.4867;" d="M105.708,39.359c25.405,0,47.548,14.407,58.689,35.466l0,0	h-21.53l0,0c-8.882-10.666-22.25-17.473-37.159-17.473c-26.634,0-48.355,21.721-48.355,48.355s21.721,48.355,48.355,48.355	c20.265,0,37.684-12.577,44.855-30.324l0,0H87.715v-18.031h66.347h7.646h10.348l0,0c0,36.543-29.804,66.348-66.348,66.348	c-36.544,0-66.348-29.804-66.348-66.348C39.359,69.163,69.164,39.359,105.708,39.359L105.708,39.359z"/><path style="fill:#147039;stroke:#147039;stroke-width:0.4867;" d="M69.036,177.074l-2.686-1.352l0,0	c0.274-0.556,0.36-1.039,0.262-1.451c-0.096-0.416-0.351-0.755-0.764-1.023c-0.546-0.355-1.169-0.408-1.866-0.163	c-0.696,0.246-1.598,1.115-2.704,2.605c1.138-0.344,2.188-0.205,3.145,0.417c1.08,0.701,1.739,1.716,1.976,3.039	c0.236,1.324-0.068,2.634-0.914,3.936c-0.897,1.381-2.022,2.226-3.375,2.534c-1.353,0.312-2.666,0.052-3.937-0.773	c-1.362-0.885-2.138-2.143-2.33-3.772c-0.19-1.628,0.5-3.651,2.066-6.063c1.608-2.476,3.223-3.961,4.848-4.46	c1.624-0.498,3.167-0.273,4.629,0.676c1.023,0.665,1.688,1.505,1.987,2.515C69.674,174.75,69.56,175.859,69.036,177.074	L69.036,177.074z M59.502,178.908c-0.546,0.841-0.774,1.616-0.685,2.324c0.089,0.708,0.384,1.226,0.882,1.548	c0.479,0.311,0.998,0.383,1.562,0.217c0.562-0.169,1.12-0.677,1.674-1.531c0.569-0.877,0.815-1.633,0.736-2.264	c-0.078-0.634-0.375-1.115-0.892-1.451c-0.498-0.323-1.044-0.4-1.641-0.234S59.997,178.146,59.502,178.908L59.502,178.908z M69.312,185.569l1.304-2.797l5.493,2.561l-1.304,2.797L69.312,185.569L69.312,185.569z M83.152,194.905l0.893-3.113l-6.334-1.816	l0.745-2.597l9.534-7.903l2.492,0.715l-2.815,9.817l1.921,0.551l-0.748,2.608l-1.921-0.551l-0.893,3.113L83.152,194.905	L83.152,194.905z M84.793,189.185l1.517-5.289l-5.073,4.269L84.793,189.185L84.793,189.185z M93.573,192.498l0.429-3.057	l6.002,0.844l-0.43,3.057L93.573,192.498L93.573,192.498z M111.085,197.613l-3.083,0.108l-0.405-11.624l0,0	c-1.09,1.093-2.392,1.921-3.902,2.477l0,0l-0.098-2.799l0,0c0.794-0.292,1.651-0.82,2.569-1.589	c0.918-0.769,1.538-1.648,1.855-2.641l0,0l2.5-0.088L111.085,197.613L111.085,197.613z M118.289,193.174l2.871-0.893l0,0	c0.188,0.582,0.461,0.987,0.818,1.216c0.357,0.228,0.785,0.294,1.281,0.198c0.624-0.122,1.1-0.512,1.427-1.171	c0.325-0.662,0.374-1.909,0.144-3.743c-0.589,1.031-1.456,1.658-2.599,1.88c-1.242,0.241-2.408-0.027-3.497-0.812	c-1.089-0.785-1.782-1.945-2.081-3.484c-0.311-1.601-0.087-2.985,0.674-4.152c0.764-1.165,1.88-1.892,3.354-2.178	c1.604-0.312,3.038,0.054,4.308,1.092c1.268,1.04,2.177,2.98,2.729,5.819c0.561,2.887,0.431,5.077-0.391,6.562	c-0.822,1.489-2.091,2.4-3.811,2.734c-1.232,0.24-2.296,0.103-3.185-0.406C119.438,195.328,118.758,194.44,118.289,193.174	L118.289,193.174z M123.86,185.221c-0.19-0.977-0.564-1.692-1.116-2.143c-0.555-0.451-1.126-0.62-1.716-0.506	c-0.561,0.109-0.984,0.42-1.268,0.934c-0.283,0.517-0.328,1.275-0.132,2.279c0.199,1.021,0.546,1.733,1.042,2.132	c0.496,0.399,1.044,0.542,1.649,0.424c0.583-0.113,1.025-0.44,1.337-0.977C123.963,186.828,124.033,186.112,123.86,185.221	L123.86,185.221z M140.025,191.025l-1.213-3.003l-6.11,2.469l-1.012-2.505l2.647-12.098l2.403-0.971l3.826,9.469l1.854-0.748	l1.016,2.515l-1.854,0.749l1.214,3.002L140.025,191.025L140.025,191.025z M137.796,185.507l-2.061-5.102l-1.369,6.487	L137.796,185.507L137.796,185.507z M146.462,183.479l2.374-1.846l0,0c0.473,0.601,0.992,0.968,1.56,1.099	c0.563,0.13,1.1,0.041,1.609-0.265c0.544-0.327,0.881-0.809,1.006-1.447c0.124-0.639-0.027-1.31-0.449-2.014	c-0.399-0.665-0.893-1.083-1.485-1.259c-0.592-0.172-1.146-0.105-1.659,0.203c-0.341,0.204-0.705,0.512-1.096,0.928l0,0	l-1.004-2.332l0,0c0.727-0.411,1.179-0.893,1.359-1.45c0.178-0.556,0.104-1.105-0.226-1.652c-0.279-0.465-0.638-0.751-1.082-0.862	c-0.439-0.11-0.893-0.028-1.351,0.248c-0.451,0.27-0.742,0.659-0.873,1.167c-0.133,0.505-0.053,1.081,0.242,1.724l0,0l-2.688,1.051	l0,0c-0.332-0.935-0.479-1.756-0.436-2.461c0.043-0.704,0.284-1.384,0.725-2.036c0.44-0.655,1.039-1.208,1.798-1.664	c1.302-0.782,2.592-0.993,3.873-0.635c1.055,0.288,1.838,0.86,2.352,1.713c0.726,1.21,0.644,2.574-0.247,4.094	c0.894-0.308,1.754-0.306,2.583-0.001c0.826,0.304,1.49,0.875,1.992,1.71c0.728,1.212,0.906,2.508,0.535,3.893	c-0.37,1.387-1.218,2.477-2.534,3.267c-1.25,0.751-2.5,1.014-3.755,0.787C148.333,185.215,147.291,184.562,146.462,183.479	L146.462,183.479z M30.299,136.404l-2.533,0.972l-2.511-6.541l5.987-2.297l0,0c0.858,0.399,1.755,1.111,2.685,2.137	c0.931,1.028,1.636,2.161,2.111,3.397c0.604,1.572,0.799,3.069,0.588,4.489c-0.212,1.425-0.818,2.664-1.818,3.722	c-1.003,1.06-2.223,1.865-3.667,2.419c-1.564,0.601-3.081,0.807-4.551,0.618c-1.467-0.189-2.77-0.792-3.903-1.806	c-0.87-0.774-1.579-1.878-2.13-3.313c-0.716-1.866-0.885-3.473-0.505-4.823c0.38-1.348,1.203-2.438,2.467-3.269l0,0l1.721,2.797l0,0	c-0.656,0.495-1.085,1.118-1.29,1.865c-0.203,0.75-0.135,1.561,0.2,2.435c0.51,1.328,1.333,2.219,2.478,2.68	c1.14,0.46,2.537,0.373,4.19-0.262c1.785-0.685,2.971-1.595,3.56-2.73c0.585-1.135,0.632-2.345,0.138-3.631	c-0.243-0.635-0.612-1.226-1.106-1.768c-0.495-0.545-1.007-0.978-1.54-1.297l0,0l-1.906,0.731L30.299,136.404L30.299,136.404z M24.052,123.907c-1.627,0.201-3.024,0.125-4.188-0.224c-0.86-0.266-1.648-0.67-2.374-1.221c-0.725-0.548-1.289-1.178-1.693-1.888	c-0.543-0.944-0.894-2.066-1.053-3.367c-0.289-2.354,0.208-4.327,1.496-5.921c1.286-1.591,3.23-2.546,5.834-2.866	c2.578-0.317,4.681,0.136,6.311,1.36c1.631,1.222,2.59,3.008,2.878,5.354c0.292,2.377-0.202,4.355-1.481,5.934	C28.506,122.65,26.594,123.596,24.052,123.907L24.052,123.907z M23.535,120.598c1.808-0.222,3.13-0.81,3.959-1.758	c0.832-0.952,1.168-2.069,1.01-3.356c-0.158-1.286-0.75-2.284-1.779-2.996c-1.027-0.709-2.467-0.952-4.32-0.724	c-1.831,0.225-3.148,0.794-3.951,1.708c-0.8,0.911-1.121,2.036-0.958,3.364c0.164,1.331,0.75,2.347,1.762,3.047	C20.271,120.585,21.696,120.824,23.535,120.598L23.535,120.598z M30.338,102.361l-16.039-1.403l0.283-3.237l16.039,1.403	L30.338,102.361L30.338,102.361z M34.453,79.157l-0.796,3.446l-3.879,0.547l-1.448,6.27l3.266,2.116l-0.776,3.361l-14.277-9.73	l0.773-3.351L34.453,79.157L34.453,79.157z M26.899,83.557l-6.32,0.817l5.332,3.461L26.899,83.557L26.899,83.557z M31.561,73.503	l1.212-2.938l0,0c1.028,0.33,1.896,0.356,2.609,0.075c0.713-0.279,1.304-0.857,1.767-1.729c0.491-0.924,0.666-1.726,0.525-2.401	c-0.143-0.678-0.476-1.154-1-1.433c-0.335-0.178-0.675-0.232-1.016-0.161c-0.342,0.073-0.729,0.306-1.165,0.705	c-0.296,0.275-0.909,0.931-1.843,1.969c-1.198,1.337-2.241,2.167-3.127,2.493c-1.245,0.455-2.431,0.385-3.558-0.214	c-0.723-0.384-1.291-0.95-1.703-1.695c-0.411-0.747-0.577-1.593-0.496-2.541c0.08-0.947,0.413-1.968,0.994-3.06	c0.949-1.785,2.052-2.92,3.314-3.406c1.263-0.484,2.558-0.403,3.888,0.246l0,0l-1.399,2.937l0,0	c-0.795-0.267-1.462-0.281-1.996-0.049c-0.535,0.234-1.016,0.756-1.447,1.564c-0.443,0.834-0.619,1.578-0.527,2.232	c0.057,0.419,0.272,0.727,0.64,0.923c0.337,0.179,0.7,0.191,1.09,0.034c0.496-0.201,1.28-0.911,2.353-2.133	c1.072-1.219,1.961-2.072,2.67-2.554c0.708-0.483,1.468-0.748,2.28-0.803c0.812-0.052,1.667,0.16,2.564,0.638	c0.814,0.433,1.457,1.064,1.929,1.895c0.47,0.829,0.658,1.75,0.564,2.765c-0.094,1.01-0.468,2.132-1.126,3.369	c-0.955,1.797-2.106,2.956-3.447,3.478C34.766,74.23,33.25,74.159,31.561,73.503L31.561,73.503z M49.906,54.647l-10.98-11.774	l8.73-8.141l1.858,1.992l-6.354,5.924l2.435,2.611l5.911-5.512l1.85,1.984l-5.911,5.513l2.987,3.203l6.579-6.135l1.85,1.984	L49.906,54.647L49.906,54.647z M60.071,38.869l2.616-1.805l0,0c0.683,0.837,1.397,1.332,2.147,1.484	c0.75,0.153,1.56-0.01,2.423-0.488c0.915-0.506,1.498-1.084,1.749-1.728c0.249-0.646,0.229-1.227-0.058-1.745	c-0.184-0.333-0.44-0.563-0.764-0.689c-0.327-0.125-0.779-0.141-1.361-0.043c-0.398,0.07-1.269,0.286-2.617,0.647	c-1.733,0.469-3.061,0.597-3.98,0.388c-1.292-0.296-2.249-1.001-2.867-2.118c-0.396-0.715-0.564-1.5-0.505-2.35	c0.062-0.85,0.384-1.649,0.968-2.4c0.583-0.751,1.417-1.426,2.5-2.026c1.768-0.979,3.312-1.331,4.634-1.051	c1.323,0.282,2.365,1.055,3.126,2.324l0,0l-2.773,1.701l0,0c-0.521-0.656-1.073-1.032-1.647-1.127	c-0.577-0.095-1.264,0.08-2.066,0.524c-0.826,0.458-1.378,0.985-1.658,1.584c-0.18,0.383-0.167,0.759,0.034,1.123	c0.185,0.334,0.483,0.542,0.895,0.623c0.525,0.101,1.57-0.066,3.136-0.507c1.563-0.439,2.773-0.668,3.63-0.688	c0.857-0.019,1.638,0.172,2.35,0.569c0.708,0.397,1.31,1.042,1.803,1.931c0.447,0.807,0.642,1.686,0.585,2.639	c-0.058,0.951-0.402,1.827-1.032,2.626c-0.629,0.795-1.555,1.534-2.779,2.212c-1.78,0.987-3.376,1.332-4.785,1.04	C62.363,41.224,61.13,40.339,60.071,38.869L60.071,38.869z M78.912,34.846l-4.438-15.477l5.016-1.438l0,0	c1.9-0.545,3.16-0.821,3.783-0.833c0.953-0.021,1.838,0.272,2.661,0.878c0.82,0.606,1.408,1.523,1.762,2.756	c0.272,0.951,0.328,1.798,0.168,2.546c-0.158,0.744-0.45,1.38-0.876,1.9c-0.427,0.523-0.894,0.923-1.411,1.2	c-0.704,0.36-1.761,0.745-3.177,1.151l0,0l-2.038,0.584l1.674,5.837L78.912,34.846L78.912,34.846z M78.349,21.092l1.259,4.392	l1.71-0.491l0,0c1.232-0.353,2.034-0.671,2.4-0.952c0.37-0.281,0.622-0.626,0.758-1.039c0.139-0.414,0.14-0.847,0.009-1.304	c-0.162-0.564-0.46-0.979-0.895-1.252c-0.437-0.269-0.921-0.379-1.453-0.326c-0.393,0.037-1.152,0.216-2.279,0.539l0,0	L78.349,21.092L78.349,21.092z M95.417,22.607c-0.029-1.639,0.191-3.021,0.662-4.142c0.354-0.827,0.838-1.569,1.462-2.232	c0.621-0.664,1.307-1.159,2.055-1.487c0.996-0.442,2.147-0.673,3.458-0.696c2.372-0.041,4.283,0.659,5.733,2.107	c1.448,1.445,2.195,3.479,2.241,6.102c0.045,2.597-0.625,4.642-2.013,6.133c-1.385,1.495-3.261,2.262-5.625,2.303	c-2.395,0.042-4.311-0.656-5.747-2.093C96.203,27.168,95.462,25.168,95.417,22.607L95.417,22.607z M98.763,22.439	c0.032,1.821,0.478,3.197,1.334,4.121c0.86,0.927,1.936,1.377,3.231,1.354c1.296-0.022,2.351-0.507,3.167-1.455	c0.813-0.948,1.205-2.355,1.172-4.221c-0.032-1.844-0.461-3.214-1.286-4.108c-0.823-0.892-1.907-1.328-3.245-1.304	c-1.341,0.023-2.413,0.5-3.214,1.434C99.117,19.194,98.731,20.587,98.763,22.439L98.763,22.439z M116.372,30.916l3.347-15.748	l6.693,1.422l0,0c1.683,0.358,2.873,0.76,3.578,1.206c0.701,0.445,1.205,1.078,1.51,1.899c0.303,0.82,0.358,1.694,0.161,2.626	c-0.251,1.183-0.808,2.083-1.665,2.705c-0.859,0.622-2.002,0.887-3.425,0.794c0.602,0.545,1.075,1.109,1.421,1.683	c0.345,0.576,0.768,1.554,1.266,2.941l0,0l1.269,3.48l-3.8-0.808l-1.57-3.915l0,0c-0.557-1.397-0.951-2.289-1.186-2.672	c-0.232-0.383-0.504-0.667-0.815-0.857c-0.313-0.189-0.834-0.363-1.562-0.519l0,0l-0.646-0.138l-1.397,6.575L116.372,30.916	L116.372,30.916z M121.482,22.504l2.354,0.5l0,0c1.523,0.324,2.49,0.463,2.897,0.415c0.407-0.048,0.751-0.208,1.033-0.476	c0.282-0.271,0.473-0.641,0.573-1.114c0.113-0.53,0.063-0.987-0.15-1.374c-0.214-0.384-0.569-0.675-1.068-0.871	c-0.249-0.089-1.02-0.274-2.307-0.547l0,0l-2.483-0.528L121.482,22.504L121.482,22.504z M137.701,37.459l6.073-11.917l-4.256-2.169	l1.237-2.427l11.4,5.809l-1.237,2.427l-4.249-2.165l-6.072,11.919L137.701,37.459L137.701,37.459z M148.931,43.726l9.913-12.688	l9.406,7.35l-1.677,2.146l-6.845-5.349L157.528,38l6.369,4.976l-1.67,2.138l-6.37-4.976l-2.696,3.451l7.089,5.539l-1.67,2.138	L148.931,43.726L148.931,43.726z M176.958,66.15l0.879,3.186l0,0c-1.737,0.552-3.268,0.59-4.596,0.112	c-1.327-0.479-2.461-1.442-3.403-2.892c-1.164-1.792-1.508-3.664-1.032-5.615c0.475-1.948,1.774-3.613,3.9-4.994	c2.247-1.459,4.369-2.012,6.364-1.659c1.999,0.352,3.611,1.477,4.838,3.368c1.073,1.65,1.455,3.309,1.149,4.975	c-0.179,0.988-0.708,1.986-1.59,2.997l0,0l-2.397-2.281l0,0c0.596-0.616,0.933-1.306,1.009-2.076	c0.076-0.771-0.121-1.518-0.591-2.242c-0.649-1-1.536-1.58-2.659-1.735c-1.125-0.158-2.489,0.286-4.1,1.331	c-1.707,1.108-2.72,2.206-3.046,3.289c-0.329,1.085-0.17,2.118,0.468,3.102c0.47,0.724,1.104,1.198,1.905,1.421	C174.857,66.661,175.823,66.565,176.958,66.15L176.958,66.15z M175.763,77.185l15.098-5.199l1.059,3.076l-12.533,4.315l2.631,7.642	l-2.565,0.883L175.763,77.185L175.763,77.185z M196.338,91.503l0.283,3.238l-8.688,0.76l0,0c-1.378,0.12-2.268,0.24-2.67,0.354	c-0.643,0.198-1.143,0.574-1.492,1.13c-0.352,0.556-0.489,1.287-0.409,2.191c0.08,0.919,0.328,1.594,0.745,2.029	c0.415,0.432,0.902,0.675,1.457,0.722c0.554,0.044,1.466,0.013,2.737-0.099l0,0l8.872-0.776l0.283,3.241l-8.424,0.737l0,0	c-1.927,0.168-3.292,0.198-4.104,0.094c-0.811-0.107-1.511-0.37-2.099-0.793c-0.586-0.422-1.079-1.012-1.473-1.772	c-0.394-0.759-0.646-1.772-0.756-3.041c-0.134-1.532-0.06-2.71,0.228-3.531c0.283-0.823,0.688-1.489,1.213-1.997	c0.525-0.509,1.09-0.863,1.699-1.063c0.9-0.293,2.246-0.519,4.041-0.675l0,0L196.338,91.503L196.338,91.503z M196.963,114.337	l-1.007,6.355l0,0c-0.199,1.258-0.4,2.188-0.604,2.791c-0.204,0.599-0.511,1.12-0.918,1.554c-0.411,0.436-0.919,0.773-1.524,1.011	c-0.604,0.237-1.249,0.303-1.938,0.193c-0.745-0.118-1.395-0.428-1.954-0.926c-0.558-0.502-0.938-1.12-1.141-1.855	c-0.437,0.925-1.035,1.592-1.798,2.007c-0.76,0.412-1.601,0.546-2.52,0.401c-0.722-0.115-1.4-0.396-2.03-0.84	s-1.102-0.989-1.418-1.636c-0.318-0.648-0.454-1.404-0.415-2.271c0.027-0.545,0.195-1.842,0.506-3.891l0,0l0.857-5.413	L196.963,114.337L196.963,114.337z M193.806,117.127l-3.677-0.583l-0.333,2.105l0,0c-0.199,1.252-0.301,2.03-0.313,2.341	c-0.024,0.56,0.1,1.021,0.363,1.387c0.264,0.363,0.653,0.586,1.167,0.668c0.492,0.077,0.913,0.005,1.264-0.218	c0.349-0.224,0.599-0.597,0.75-1.12c0.087-0.313,0.249-1.224,0.488-2.738l0,0L193.806,117.127L193.806,117.127z M187.483,116.126	l-4.251-0.674l-0.471,2.974l0,0c-0.183,1.155-0.266,1.894-0.251,2.215c0.011,0.491,0.16,0.913,0.451,1.267	c0.289,0.353,0.714,0.577,1.278,0.666c0.479,0.076,0.902,0.023,1.269-0.155c0.37-0.18,0.664-0.476,0.886-0.89	c0.222-0.412,0.447-1.35,0.679-2.81l0,0L187.483,116.126L187.483,116.126z M177.316,130.353l14.708,6.549l-4.855,10.905	l-2.488-1.107l3.533-7.936l-3.261-1.453l-3.289,7.384l-2.478-1.104l3.287-7.384l-4.002-1.782l-3.658,8.219l-2.479-1.103	L177.316,130.353L177.316,130.353z M167.495,156.156c-3.371,0-6.118,2.748-6.118,6.118c0,3.369,2.747,6.118,6.118,6.118	c3.369,0,6.117-2.749,6.117-6.118C173.612,158.904,170.864,156.156,167.495,156.156L167.495,156.156z M43.919,156.156	c3.37,0,6.118,2.748,6.118,6.118c0,3.369-2.748,6.118-6.118,6.118c-3.37,0-6.117-2.749-6.117-6.118	C37.802,158.904,40.55,156.156,43.919,156.156L43.919,156.156z M14.705,84.274l0.843-2.861l0,0	c-1.272-0.552-1.484-2.157-1.517-3.224l0,0l-1.949,0.703l0,0C11.664,82.124,13.333,83.342,14.705,84.274L14.705,84.274z"/></svg>