<?xml version="1.0" encoding="utf-8"?>
<!-- Generator: Adobe Illustrator 16.0.0, SVG Export Plug-In . SVG Version: 6.00 Build 0)  -->
<!DOCTYPE svg PUBLIC "-//W3C//DTD SVG 1.1//EN" "http://www.w3.org/Graphics/SVG/1.1/DTD/svg11.dtd">
<svg version="1.1" id="Layer_1" xmlns="http://www.w3.org/2000/svg" xmlns:xlink="http://www.w3.org/1999/xlink" x="0px" y="0px"
	 width="1170.256px" height="1170.256px" viewBox="0 0 1170.256 1170.256" enable-background="new 0 0 1170.256 1170.256"
	 xml:space="preserve">
<g>
	<path fill-rule="evenodd" clip-rule="evenodd" fill="#FFFFFF" d="M585.127,0c323.104,0,585.129,262.025,585.129,585.127
		c0,323.103-262.025,585.129-585.129,585.129C262.025,1170.256,0,908.229,0,585.127C0,262.025,262.025,0,585.127,0"/>
	<path fill-rule="evenodd" clip-rule="evenodd" fill="#E5050F" d="M585.128,11.7c316.643,0,573.428,256.786,573.428,573.427
		c0,316.643-256.785,573.429-573.428,573.429c-316.642,0-573.427-256.786-573.427-573.429C11.701,268.486,268.486,11.7,585.128,11.7
		"/>
	<path fill-rule="evenodd" clip-rule="evenodd" fill="#FFFFFF" d="M585.128,23.404c310.179,0,561.725,251.545,561.725,561.722
		c0,310.181-251.546,561.726-561.725,561.726S23.404,895.307,23.404,585.126C23.404,274.949,274.949,23.404,585.128,23.404"/>
	<path fill-rule="evenodd" clip-rule="evenodd" fill="#E5050F" d="M585.128,132.628c249.866,0,452.499,202.633,452.499,452.499
		s-202.633,452.499-452.499,452.499c-249.864,0-452.498-202.634-452.498-452.499S335.264,132.628,585.128,132.628"/>
	<path fill-rule="evenodd" clip-rule="evenodd" fill="#FFFFFF" d="M585.128,144.33c243.405,0,440.797,197.393,440.797,440.796
		c0,243.405-197.392,440.798-440.797,440.798c-243.403,0-440.796-197.393-440.796-440.798
		C144.332,341.723,341.725,144.33,585.128,144.33"/>
	<path fill-rule="evenodd" clip-rule="evenodd" fill="#E5050F" d="M585.128,156.032c236.943,0,429.095,192.152,429.095,429.094
		c0,236.944-192.151,429.097-429.095,429.097c-236.942,0-429.094-192.152-429.094-429.097
		C156.034,348.184,348.186,156.032,585.128,156.032"/>
	<path fill="#E5050F" d="M1077.226,596.282l-1.071-30.643l45.883-1.601l-0.7-20.05l-58.677,2.05l1.77,50.688L1077.226,596.282z
		 M1074.926,475.745l-4.677-18.754l23.14,4.485L1074.926,475.745z M1044.979,452.367l11.429,2.024l7.377,29.592l-9.219,6.84
		l5.307,21.283l49.944-42.373l-5.286-21.205l-64.33-15.321L1044.979,452.367z M995.322,339.106l8.842,16.63l34.92-18.567
		l-22.821,41.32l12.098,22.753l51.84-27.564l-8.844-16.632l-34.777,18.491l22.26-42.034l-11.678-21.961L995.322,339.106z
		 M960.333,245.079c9.232-8.025,18.297-7.91,24.824-0.401c7.062,8.124,5.814,16.878-3.786,25.225
		c-8.801,7.651-16.931,7.372-24.047-0.814C950.316,261.025,951.285,252.945,960.333,245.079 M947.748,276.115
		c16.318,18.771,32.534,21.745,47.366,8.851c15.078-13.105,15.025-29.699-0.543-47.609c-15.729-18.094-32.535-20.77-47.059-8.145
		C932.497,242.265,932.447,258.514,947.748,276.115 M878.587,208.894l15.808,12.352l36.146-46.268l-15.808-12.35L878.587,208.894z
		 M844.998,139.693l18.115,10.042c5.817-12.345-0.126-23.657-17.885-33.5c-20.54-11.386-37.382-7.578-47.068,9.897
		c-8.778,15.834-3.137,31.561,16.192,42.276c19.539,10.83,32.82,10.251,41.654-2.66l-18.186-10.081
		c-4.249,5.477-9.911,6.442-16.329,2.884c-8.771-4.863-10.61-13.154-5.036-23.211c5.812-10.483,14.078-13.453,22.921-8.551
		C844.942,129.872,846.837,134.187,844.998,139.693 M730.839,106.701l-18.668-5.001l15.141-18.062L730.839,106.701z M695.875,121.56
		l7.312-9.013l29.459,7.893l1.511,11.379l21.189,5.677L742.499,73.27l-21.109-5.657l-44.588,48.836L695.875,121.56z
		 M573.858,109.217l18.833-0.257l0.104-39.542l25.074,39.702l25.766,1.905l3.365-60.159l-18.835-0.038l-3.027,39.38l-26.263-40.134
		l-24.868-0.145L573.858,109.217z M483.629,71.974l11.002-1.94c5.299-0.934,7.897,0.182,8.646,4.437
		c0.708,4.015-1.388,6.208-6.607,7.127l-11.002,1.941L483.629,71.974z M472.402,121.482l19.355-3.412l-3.994-22.647l12.207-2.153
		c5.541-0.977,7.703-0.446,9.031,5.2l1.978,7.93c0.669,2.864,1.458,5.457,2.782,7.789l20.074-3.539
		c-2.049-4.11-3.273-7.288-3.881-9.336l-2.729-9.372c-2.12-7.324-6.348-9.23-15.588-8.097c9.027-2.338,13.408-8.493,12.09-15.961
		c-0.906-5.14-3.745-9.028-7.607-10.748c-4.847-2.127-11.352-0.979-20.746,0.678l-33.169,5.847L472.402,121.482z M383.325,152.305
		l50.015-19.2l-4.586-11.952l-31.67,12.156l-4.09-10.657l28.243-10.842l-4.47-11.646l-28.245,10.842l-3.36-8.755l30.527-11.718
		l-4.531-11.802l-48.874,18.762L383.325,152.305z M312.707,193.265l17.01-10.63l-24.284-38.865l18.532-11.582l-6.828-10.926
		l-54.076,33.792l6.826,10.928l18.535-11.583L312.707,193.265z M215.7,281.683l13.085-13.549l-28.447-27.474l46.351,8.937
		l17.899-18.536l-42.234-40.786l-13.084,13.551l28.33,27.36l-46.855-8.178l-17.277,17.891L215.7,281.683z M179.15,333.989
		l10.926-16.824l-49.238-31.977l-10.927,16.824L179.15,333.989z M157.352,373.566l-12.565-5.859l-7.479,16.037l12.565,5.859
		L157.352,373.566z M100.836,406.931l6.746-19.585c-13.168-3.585-23.277,4.233-29.888,23.432
		c-7.646,22.204-0.971,38.13,17.922,44.634c17.116,5.894,31.626-2.391,38.82-23.286c7.274-21.125,4.397-34.105-9.851-40.563
		l-6.771,19.663c6.132,3.232,8.063,8.64,5.675,15.579c-3.265,9.485-11.109,12.732-21.984,8.989
		c-11.332-3.902-15.693-11.527-12.401-21.088C91.174,408.692,95.096,406.074,100.836,406.931 M114.004,506.819l-13.729-1.93
		l-2.461,17.523l13.726,1.93L114.004,506.819z M88.049,574.815l-0.676,19.315l0.897,0.031c13.937,0.486,19.812-8.447,20.514-28.576
		c0.74-21.188-5.735-32.511-17.469-32.921c-5.214-0.181-9.774,1.861-12.763,5.674c-3.676,4.767-5.277,10.912-7.164,18.19
		c-2.735,10.594-3.399,15.547-7.557,15.402c-2.688-0.094-4.213-3.165-4.014-8.87c0.25-7.172,2.582-10.845,6.576-10.705l0.242,0.009
		l0.643-18.337l-0.652-0.021c-11.898-0.417-17.683,8.682-18.354,27.918c-0.691,19.802,5.225,30.208,16.717,30.608
		c4.646,0.162,8.531-1.252,11.408-4.253c4.74-4.893,6.48-12.664,9.129-23.017c2.077-8.087,2.791-12.224,6.703-12.087
		c3.098,0.107,5.008,3.766,4.787,10.122c-0.282,8.068-2.536,11.904-7.184,11.743C89.266,575.021,88.697,574.921,88.049,574.815"/>
	<path fill="#E5050F" d="M738.649,1070.248l0.534,1.866c3.163,11.025,1.696,16.624-6.251,18.902
		c-5.109,1.466-8.111,0.483-9.471-3.34l-18.486,5.302c2.765,9.65,13.086,13.199,28.734,8.713
		c20.843-5.978,28.228-19.693,22.184-40.775c-5.022-17.516-17.672-23.982-36.24-18.658c-18.732,5.373-26.658,15.981-23.079,28.469
		c3.117,10.867,13.398,15.202,27.509,11.157C731.542,1079.746,736.485,1075.871,738.649,1070.248 M733.063,1058.421
		c1.349,4.703-1.346,9.689-6.292,11.107c-4.947,1.418-10.037-1.335-11.386-6.038c-1.37-4.784,1.485-9.815,6.433-11.234
		C726.684,1050.861,731.692,1053.637,733.063,1058.421 M635.503,1108.646c-8.32,0.729-11.336-4.68-12.481-17.79
		c-1.14-13.025,1.278-19.25,9.179-19.939c7.899-0.691,11.057,5.383,12.24,18.913C645.536,1102.351,643.234,1107.97,635.503,1108.646
		 M636.335,1120.104c20.673-1.808,30.041-12.805,28.262-33.141c-1.766-20.169-12.969-29.18-33.641-27.372
		c-20.422,1.788-29.953,12.867-28.211,32.783C604.524,1112.713,615.661,1121.914,636.335,1120.104 M548.202,1092.305l-0.169,1.933
		c-1.001,11.428-4.377,16.129-12.611,15.408c-5.293-0.464-7.744-2.454-7.644-6.513l-19.16-1.675
		c-0.875,10,7.486,17.013,23.706,18.432c21.598,1.889,33.409-8.269,35.32-30.119c1.589-18.15-7.902-28.722-27.146-30.403
		c-19.414-1.698-30.615,5.365-31.748,18.308c-0.984,11.259,7.061,18.994,21.684,20.273
		C538.164,1098.624,544.168,1096.778,548.202,1092.305 M547.226,1079.263c-0.427,4.873-4.729,8.562-9.854,8.112
		c-5.129-0.448-8.892-4.843-8.467-9.716c0.434-4.958,4.906-8.631,10.032-8.183C543.979,1069.918,547.659,1074.304,547.226,1079.263
		 M430.646,1098.946l18.812,5.394l16.209-56.533l-16.783-4.812c-7.314,1.938-14.372,2.987-21.163,3.41l-4.3,15.002
		c6.351-0.112,12.562-0.963,18.717-2.534L430.646,1098.946z"/>
	<path fill-rule="evenodd" clip-rule="evenodd" fill="#FFFFFF" d="M643.116,894.289c0,31.994,22.432,33.465,22.432,33.465
		c15.445,0,27.949-11.768,27.949-11.768c0,48.91-39.717,51.853-39.717,51.853c-22.432,0-28.684-9.931-28.684-9.931
		c-12.136,19.49-28.316,24.64-28.316,24.64s-16.915-5.149-28.684-24.64c0,0-6.252,9.931-28.685,9.931
		c0,0-40.084-2.942-40.084-51.853c0,0,12.504,11.768,27.948,11.768c0,0,22.434-1.471,22.434-33.465V280.896
		c0-31.993-22.434-33.464-22.434-33.464c-15.444,0-27.948,11.768-27.948,11.768c0-48.91,40.084-51.852,40.084-51.852
		c22.433,0,28.685,9.929,28.685,9.929c11.769-19.49,28.684-24.639,28.684-24.639s16.181,5.149,28.316,24.639
		c0,0,6.252-9.929,28.684-9.929c0,0,39.717,2.942,39.717,51.852c0,0-12.504-11.768-27.949-11.768c0,0-22.432,1.471-22.432,33.464
		V894.289z"/>
	<path fill-rule="evenodd" clip-rule="evenodd" fill="#FFFFFF" d="M585.38,794.998c216.6,0,306.329-115.102,306.329-115.102
		l-30.89-24.272c-128.71,92.672-265.143,78.697-265.143,78.697c-219.542,0-235.723-144.155-235.723-144.155
		c0-146.728,235.723-149.303,235.723-149.303c180.194,0,259.626,95.981,259.626,95.981h15.077l7.355-8.091
		c-23.535-40.451-15.813-125.4-15.813-125.4l-26.108-8.457l-25.375,34.567c-110.323-52.219-214.762-51.116-214.762-51.116
		c-201.155,0-287.942,122.09-318.832,160.703c-30.891,38.245-54.058,49.277-54.058,49.277s22.432,19.859,44.863,50.381
		C290.084,669.6,380.547,794.998,585.38,794.998"/>
	<path fill="#E5050F" d="M585.38,782.229v25.541l-19.317-0.411l-18.707-1.056l-18.054-1.759l-17.409-2.423l-16.772-2.948
		l-16.145-3.579l-15.526-4.022l-14.914-4.527l-14.262-4.938l-13.67-5.361l-13.084-5.693l-12.457-5.984l-11.938-6.237l-11.279-6.447
		l-10.776-6.669l-10.186-6.8l-9.602-6.84l-9.125-6.94l-8.557-6.951l-7.998-6.919l-7.498-6.801l-7.007-6.737l-6.522-6.589
		l-5.997-6.346l-5.481-6.114l-5.072-5.843l-4.574-5.531l-4.133-5.128l-3.65-4.734l-3.227-4.304l-2.761-3.729l-2.354-3.216
		l20.652-14.967l2.254,3.117l2.662,3.63l3.025,4.003l3.452,4.437l3.833,4.829l4.275,5.131l4.672,5.444l5.184,5.715l5.598,5.947
		l6.024,6.09l6.507,6.239l7,6.4l7.499,6.421l7.958,6.451l8.427,6.441l9.002,6.441l9.486,6.3l9.979,6.17l10.58,6.051l11.043,5.837
		l11.657,5.586l12.187,5.293l12.771,4.963l13.364,4.639l13.918,4.228l14.527,3.824l15.147,3.279l15.774,2.85l16.41,2.223
		l17.058,1.659l17.709,1.055L585.38,782.229z M277.927,631.176l0.05,0.049l1.092,1.504L277.927,631.176z M277.977,631.225
		l-20.652,14.967l0.051,0.05l-2.003-2.73l-2.048-2.666l-1.991-2.6l-2.027-2.533l-1.961-2.464l-1.991-2.393l-1.966-2.369
		l-1.887-2.246l-1.906-2.219l-1.866-2.093l-1.777-2.062l-1.78-1.932l-1.733-1.899l-1.678-1.814l-1.572-1.729l-1.559-1.591
		l-1.495-1.552l-1.423-1.461l-1.352-1.366l-1.271-1.273l-1.19-1.177l-1.104-1.078l-1.012-0.98l-0.922-0.878l-0.818-0.774
		l-0.719-0.721l-0.659-0.565l-0.499-0.456l-0.387-0.348l-0.266-0.235l-0.143-0.172l-0.016-0.009l16.862-19.056l0.114,0.107
		l0.242,0.173l0.365,0.335l0.485,0.447l0.601,0.557l0.66,0.664l0.816,0.721l0.92,0.875l1.02,0.979l1.112,1.079l1.204,1.179
		l1.288,1.276l1.372,1.373l1.449,1.467l1.525,1.56l1.594,1.651l1.658,1.791l1.771,1.828l1.78,1.915l1.83,1.998l1.883,2.132
		l1.976,2.161l1.966,2.293l2.006,2.318l2.086,2.445l2.066,2.469l2.09,2.594l2.161,2.663l2.129,2.73l2.188,2.8l2.148,2.865
		l2.202,2.931L277.977,631.225z M214.355,597.855l-14.431-12.775l17.375-8.275L214.355,597.855z M231.218,578.8l-16.862,19.056
		l2.944-21.051l-0.082,0.067l0.05-0.001l0.182-0.121l0.307-0.145l0.434-0.271l0.555-0.3l0.673-0.384l0.788-0.469l0.902-0.606
		l1.012-0.648l1.119-0.742l1.225-0.84l1.376-0.94l1.425-1.043l1.522-1.099l1.614-1.26l1.705-1.369l1.793-1.485l1.877-1.554
		l2.011-1.724l2.038-1.798l2.115-1.975l2.238-2.105l2.26-2.187l2.327-2.324l2.441-2.512l2.455-2.604l2.563-2.748l2.571-2.946
		l2.674-3.046l2.726-3.2l2.723-3.357l19.854,15.963l-3.022,3.656l-2.925,3.498l-2.873,3.347l-2.87,3.146l-2.765,3.047l-2.754,2.903
		l-2.641,2.711l-2.626,2.623l-2.56,2.488l-2.438,2.303l-2.414,2.175l-2.339,2.099l-2.209,1.923l-2.177,1.853l-2.092,1.686
		l-2.004,1.568l-1.914,1.459l-1.821,1.398l-1.724,1.243l-1.576,1.138l-1.522,1.04l-1.42,0.942l-1.312,0.848l-1.201,0.706
		l-1.088,0.668l-0.973,0.583l-0.853,0.5l-0.732,0.371l-0.606,0.344l-0.481,0.222l-0.349,0.2l-0.219,0.133L231.218,578.8z
		 M286.771,546.982v0.05l-4.228,5.236L286.771,546.982z M286.771,547.032l-19.854-15.963v0.05l3.012-3.808l3.4-4.31l3.798-4.774
		l4.158-5.199l4.579-5.589l5.009-5.888l5.351-6.152l5.854-6.428l6.216-6.565l6.741-6.817l7.125-6.879l7.62-7.003l8.125-6.992
		l8.545-7.04l9.119-7.004l9.559-6.927l10.105-6.765l10.668-6.663l11.187-6.476l11.718-6.199l12.26-5.936l12.861-5.636l13.475-5.294
		l13.998-4.869l14.631-4.455l15.23-3.953l15.833-3.513l16.45-2.886l17.078-2.371l17.715-1.72l18.365-1.03l18.974-0.4v25.54
		l-18.076,0.301l-17.366,1.03l-16.719,1.619l-16.078,2.172l-15.453,2.787l-14.838,3.214l-14.229,3.753l-13.636,4.156l-13.1,4.569
		l-12.477,4.896l-11.965,5.237l-11.461,5.536l-10.92,5.8l-10.389,5.976l-9.867,6.165l-9.408,6.365l-8.961,6.429l-8.422,6.505
		l-8.043,6.542l-7.527,6.592l-7.122,6.505l-6.726,6.479l-6.242,6.318l-5.918,6.266l-5.453,6.029l-5.152,5.853l-4.71,5.59
		l-4.379,5.288l-4.058,5l-3.699,4.674l-3.4,4.31l-3.111,3.908V547.032z M595.776,391.069l-0.1,0.049h-4.585L595.776,391.069z
		 M595.677,391.118v-25.54l-0.1,0.049l0.403-0.002l0.945,0.002l1.624,0.016l2.13,0.039l2.669,0.072l3.192,0.115l3.746,0.169
		l4.18,0.233l4.7,0.305l5.146,0.389l5.58,0.532l5.994,0.585l6.387,0.698l6.767,0.871l7.125,0.955l7.467,1.146l7.839,1.25
		l8.094,1.463l8.434,1.586l8.699,1.819l8.951,2.012l9.187,2.215l9.399,2.427l9.596,2.65l9.775,2.933l9.986,3.125l10.129,3.428
		l10.204,3.642l10.359,3.963l10.448,4.245l10.57,4.589l10.572,4.841l-10.875,23.045l-10.073-4.641l-9.97-4.288l-9.951-4.047
		l-9.861-3.763l-9.805-3.541l-9.63-3.229l-9.487-3.025l-9.376-2.733l-9.196-2.552l-9.002-2.326l-8.785-2.116l-8.554-1.911
		l-8.302-1.72l-8.032-1.586l-7.795-1.364l-7.439-1.25l-7.167-1.047l-6.826-0.955l-6.467-0.771l-6.09-0.698l-5.692-0.585
		l-5.281-0.432l-4.849-0.388l-4.398-0.306l-3.982-0.232l-3.445-0.169l-2.992-0.116l-2.471-0.072l-1.932-0.039l-1.322-0.015
		l-0.847-0.002l-0.204,0.002L595.677,391.118z M820.715,436.996l-6.225,8.481l-9.489-4.491L820.715,436.996z M805.001,440.986
		l-4.839-19.055l25.374-34.567l20.553,15.064l-25.374,34.568L805.001,440.986z M825.536,387.364l5.442-7.416l8.726,2.825
		L825.536,387.364z M825.536,387.364l14.168-4.591l26.109,8.458l-7.783,24.245l-26.109-8.458L825.536,387.364z M865.813,391.231
		l9.7,3.142l-0.921,10.128L865.813,391.231z M858.03,415.476l7.783-24.245l8.779,13.27l0.029,0.145l-0.061,0.669l-0.091,1.069
		l-0.114,1.547l-0.131,1.898l-0.141,2.329l-0.143,2.634l-0.139,2.965l-0.127,3.274l-0.107,3.559l-0.08,3.819l-0.049,4.006
		l-0.008,4.319l0.041,4.409l0.094,4.574l0.157,4.718l0.225,4.786l0.302,4.881l0.384,4.951l0.425,4.999l0.572,4.973l0.628,4.973
		l0.738,4.899l0.858,4.853l0.984,4.731l1.067,4.586l1.156,4.467l1.357,4.226l1.409,4.06l1.521,3.771l1.641,3.557l1.767,3.22
		l-22.049,12.771l-2.465-4.617l-2.24-4.754l-2.021-4.968l-1.809-5.059l-1.554-5.223l-1.458-5.265l-1.268-5.385l-1.083-5.429
		l-0.957-5.451l-0.84-5.498l-0.726-5.472l-0.573-5.472l-0.524-5.397l-0.385-5.352l-0.302-5.278l-0.225-5.186l-0.157-5.016
		l-0.094-4.875l-0.041-4.708l0.009-4.419l0.047-4.306l0.082-4.018l0.106-3.758l0.127-3.473l0.14-3.165l0.142-2.834l0.142-2.427
		l0.131-2.099l0.114-1.647l0.091-1.269l0.059-0.768l0.072-0.345L858.03,415.476z M888.76,522.368l4.687,8.054l-6.283,6.911
		L888.76,522.368z M888.76,522.368l-1.597,14.965l-7.355,8.091l-18.855-17.16l7.354-8.091L888.76,522.368z M879.808,545.424
		l-3.808,4.19h-5.62L879.808,545.424z M879.808,545.424l-9.428,4.19h-15.077v-25.54h15.077L879.808,545.424z M855.303,549.614
		h-5.988l-3.84-4.64L855.303,549.614z M855.303,524.074v25.54l-9.828-4.64l-0.033-0.075l-0.554-0.653l-1.025-1.095l-1.504-1.602
		l-1.934-1.974l-2.42-2.36l-2.909-2.762l-3.401-3.028l-3.897-3.311l-4.348-3.555l-4.853-3.766l-5.361-3.992l-5.825-4.083
		l-6.389-4.187l-6.859-4.26l-7.335-4.343l-7.911-4.295l-8.395-4.307l-8.93-4.189l-9.47-4.132l-10.014-3.992l-10.51-3.867
		l-11.061-3.605l-11.617-3.41l-12.175-3.078l-12.74-2.861l-13.256-2.461l-13.879-2.123l-14.401-1.702l-15.03-1.244l-15.562-0.803
		l-16.2-0.226v-25.54l16.998,0.325l16.46,0.803l15.829,1.344l15.301,1.802l14.675,2.224l14.154,2.658l13.537,2.962l12.974,3.377
		l12.415,3.61l11.86,3.904l11.308,4.066l10.711,4.29l10.168,4.434l9.628,4.586l9.093,4.609l8.511,4.692l8.033,4.644l7.458,4.657
		l6.889,4.586l6.422,4.484l5.861,4.29l5.351,4.166l4.848,3.954l4.297,3.709l3.8,3.427l3.308,3.062l2.818,2.759l2.334,2.373
		l1.802,1.902l1.327,1.494l0.852,0.952l0.434,0.475L855.303,524.074z M595.577,428.143l0.1-0.05h4.432L595.577,428.143z
		 M595.677,428.093v25.54l0.1-0.049l-0.476,0.011l-1.873,0.054l-3.029,0.119l-4.151,0.213l-5.189,0.332l-6.087,0.476l-6.951,0.596
		l-7.729,0.844l-8.418,1.016l-8.973,1.314l-9.44,1.538l-9.923,1.839l-10.168,2.115l-10.477,2.518l-10.55,2.845l-10.636,3.2
		l-10.587,3.628l-10.449,4.036l-10.228,4.466l-9.918,4.975l-9.574,5.359l-9.041,5.918l-8.524,6.354l-7.819,6.815l-7.18,7.403
		l-6.402,7.867l-5.588,8.406l-4.74,9.07l-3.752,9.662l-2.832,10.38l-1.771,11.172l-0.576,12.041h-25.541l0.776-14.634l2.171-13.867
		l3.527-13.072l4.852-12.258l5.936-11.365l6.985-10.601l7.9-9.761l8.676-8.901l9.416-8.211l9.921-7.451l10.438-6.716l10.771-6.157
		l11.117-5.474l11.323-4.966l11.449-4.433l11.482-3.929l11.436-3.5l11.348-3.044l11.074-2.617l10.867-2.315l10.422-1.938
		l10.039-1.639l9.473-1.314l8.816-1.115l8.127-0.844l7.351-0.697l6.487-0.476l5.486-0.332l4.451-0.212l3.33-0.12l2.071-0.053
		l0.875-0.011L595.677,428.093z M347.283,591.563l-0.1-0.89v-0.508L347.283,591.563z M347.184,590.166h25.541l-0.1-1.396
		l0.003,0.015l0.132,0.905l0.296,1.645l0.443,2.281l0.726,2.866l0.891,3.445l1.244,3.975l1.525,4.398l1.846,4.821l2.25,5.191
		l2.637,5.458l3.109,5.722l3.564,5.883l4.055,6.091l4.581,6.147l5.14,6.249l5.781,6.249l6.36,6.198l7.071,6.091l7.768,5.982
		l8.548,5.821l9.313,5.558l10.162,5.291l11.043,4.971l11.963,4.599l12.865,4.174l13.899,3.646l14.97,3.165l15.975,2.529
		l17.113,1.846l18.285,1.205l19.493,0.363v25.541l-20.489-0.464l-19.384-1.205l-18.312-2.044l-17.271-2.73l-16.168-3.363
		l-15.196-4.046l-14.262-4.572l-13.258-5.097l-12.342-5.569l-11.458-5.99l-10.611-6.354l-9.745-6.62l-8.965-6.881l-8.169-7.089
		l-7.458-7.194l-6.68-7.248l-6.038-7.247l-5.377-7.244l-4.755-7.089l-4.163-6.98l-3.607-6.72l-3.136-6.455l-2.648-6.089
		l-2.244-5.719l-1.828-5.297l-1.44-4.772l-1.19-4.244l-0.826-3.662l-0.643-2.98l-0.395-2.245l-0.232-1.504l-0.104-0.812
		L347.184,590.166z M595.677,721.551h0.322l0.975,0.101L595.677,721.551z M595.677,747.092v-25.541l1.297,0.101l0.146-0.014
		l1.067,0.098l1.767,0.135l2.435,0.15l3.181,0.144l3.796,0.116l4.438,0.064l5.104-0.009l5.641-0.102l6.153-0.221l6.737-0.358
		l7.197-0.52l7.68-0.651l8.137-0.909l8.565-1.086l8.971-1.334l9.296-1.607l9.648-1.899l9.972-2.217l10.268-2.504l10.542-2.912
		l10.737-3.246l10.955-3.6l11.196-4.076l11.313-4.473l11.402-4.944l11.566-5.437l11.652-5.9l11.663-6.438l11.747-6.945l11.705-7.528
		l11.735-8.13l14.865,20.652l-12.435,8.629l-12.503,8.026l-12.444,7.445l-12.462,6.836l-12.351,6.3l-12.265,5.736l-12.2,5.243
		l-12.012,4.773l-11.796,4.275l-11.654,3.898l-11.435,3.445l-11.14,3.012l-10.867,2.703l-10.57,2.316l-10.246,2l-9.896,1.705
		l-9.468,1.437l-9.064,1.185l-8.635,0.908l-8.179,0.753l-7.697,0.519l-7.137,0.359l-6.651,0.22l-6.041,0.104l-5.4,0.008
		l-4.837-0.065l-4.196-0.114l-3.479-0.145l-2.836-0.149l-2.063-0.137l-1.269-0.097l-0.645-0.087L595.677,747.092z M853.387,645.298
		l7.792-5.609l7.522,5.908L853.387,645.298z M853.387,645.298l15.314,0.299l30.891,24.272l-15.764,20.054l-30.892-24.271
		L853.387,645.298z M899.592,669.869l9.963,7.828l-7.817,10.031L899.592,669.869z M883.828,689.923l15.764-20.054l2.146,17.859
		l-0.465,0.58l-0.896,1.11l-1.485,1.753l-2.081,2.299l-2.635,2.758l-3.145,3.269l-3.811,3.691l-4.335,4.12l-4.914,4.407
		l-5.552,4.703l-6.145,4.956l-6.797,5.166l-7.352,5.335l-8.018,5.462l-8.688,5.545l-9.266,5.588l-9.951,5.59l-10.592,5.494
		l-11.238,5.463l-11.896,5.284l-12.604,5.116l-13.276,4.907l-13.95,4.653l-14.633,4.308l-15.371,3.97l-16.017,3.592l-16.771,3.17
		l-17.429,2.655l-18.195,2.15l-18.869,1.604l-19.648,0.962l-20.334,0.381v-25.541l19.537-0.28l18.75-0.962l18.07-1.503l17.297-2.052
		l16.632-2.556l15.871-2.971l15.22-3.393l14.473-3.77l13.834-4.109l13.153-4.354l12.476-4.605l11.81-4.817l11.197-4.987
		l10.541-5.062l9.893-5.196l9.252-5.189l8.667-5.188l7.989-5.147l7.419-5.062l6.854-4.937l6.197-4.768l5.646-4.558l5.053-4.303
		l4.515-4.008l3.936-3.622l3.312-3.292l2.846-2.87l2.235-2.457l1.683-1.9l1.186-1.354l0.698-0.812l0.062-0.081L883.828,689.923z"/>
	<path fill-rule="evenodd" clip-rule="evenodd" fill="#FFFFFF" d="M585.38,794.998c216.6,0,306.329-115.102,306.329-115.102
		l-30.89-24.272c-128.71,92.672-265.143,78.697-265.143,78.697c-219.542,0-235.723-144.155-235.723-144.155
		c0-146.728,235.723-149.303,235.723-149.303c180.194,0,259.626,95.981,259.626,95.981h15.077l7.355-8.091
		c-23.535-40.451-15.813-125.4-15.813-125.4l-26.108-8.457l-25.375,34.567c-110.323-52.219-214.762-51.116-214.762-51.116
		c-201.155,0-287.942,122.09-318.832,160.703c-30.891,38.245-54.058,49.277-54.058,49.277s22.432,19.859,44.863,50.381
		C290.084,669.6,380.547,794.998,585.38,794.998"/>
	<rect x="644.688" y="554.128" fill="#E5050F" width="25.537" height="100.392"/>
	<path fill="#E5050F" d="M657.825,844.541v-25.537l6.964-0.193l6.386-0.615l5.776-1l5.283-1.309l4.761-1.633l4.357-1.826l3.919-2.09
		l3.552-2.319l3.202-2.473l2.922-2.639l2.61-2.827l2.414-2.933l2.091-3.059l1.933-3.202l1.695-3.264l1.476-3.347l1.274-3.396
		l1.092-3.363l0.928-3.402l0.782-3.307l0.605-3.184l0.497-3.127l0.355-2.938l0.236-2.722l0.183-2.568l0.097-2.24l0.032-2.025
		l-0.015-1.682l-0.044-1.309l-0.056-0.951l-0.046-0.515l0.03,0.056l25.337-2.295l0.069,0.544l0.046,0.914l0.055,1.349l0.044,1.807
		l0.016,2.181l-0.033,2.526l-0.096,2.937l-0.184,3.169l-0.335,3.518l-0.455,3.737l-0.598,3.924l-0.804,4.18l-0.982,4.308
		l-1.227,4.397l-1.491,4.562l-1.773,4.592l-2.073,4.644l-2.394,4.659l-2.729,4.6l-3.189,4.555l-3.513,4.43l-4.007,4.224
		l-4.418,4.037l-4.897,3.767l-5.348,3.418l-5.814,3.087l-6.252,2.726l-6.755,2.229l-7.179,1.807l-7.671,1.301l-8.082,0.812
		L657.825,844.541z M723.118,747.604l-0.1-1.104v-0.044L723.118,747.604z M748.455,745.31l-25.337,2.295l-0.1-1.148l-0.176-4.507
		l-0.505-4.298l-0.856-4.235l-1.18-4.123l-1.476-4.01l-1.74-3.896l-2.026-3.83l-2.236-3.715l-2.464-3.646l-2.715-3.529l-2.838-3.409
		l-3.03-3.292l-3.147-3.168l-3.23-3.047l-3.338-2.875l-3.369-2.751l-3.367-2.626l-3.389-2.451l-3.331-2.274l-3.247-2.146
		l-3.129-1.969l-3.038-1.839l-2.865-1.61l-2.664-1.477l-2.484-1.296l-2.178-1.163l-1.938-0.93l-1.623-0.794l-1.28-0.558
		l-0.958-0.421l-0.555-0.234l-0.025-0.045l9.676-23.54l0.425,0.145l0.754,0.333l1.156,0.521l1.579,0.758l1.925,0.894l2.237,1.129
		l2.577,1.261l2.783,1.496l3.063,1.677l3.264,1.909l3.437,2.039l3.628,2.269l3.745,2.446l3.83,2.672l3.887,2.851l3.967,3.025
		l3.967,3.25l3.937,3.473l3.931,3.646l3.845,3.867l3.728,4.089l3.637,4.308l3.412,4.526l3.265,4.744l3.032,5.011l2.727,5.228
		l2.438,5.492l2.072,5.705l1.678,5.92l1.258,6.131l0.804,6.392l0.276,6.502L748.455,745.31z"/>
	<rect x="645.107" y="831.772" fill="#E5050F" width="25.437" height="58.103"/>
	<path fill="#E5050F" d="M653.967,566.347l6.981-24.439l17.942,5.478l16.673,5.9l15.551,6.193l14.422,6.45l13.384,6.776l12.34,6.969
		l11.341,7.181l10.385,7.309l9.475,7.505l8.553,7.57l7.779,7.701l6.896,7.65l6.208,7.717l5.412,7.65l4.763,7.604l4.103,7.423
		l3.489,7.31l2.968,7.115l2.391,6.888l1.956,6.577l1.517,6.286l1.119,5.961l0.816,5.604l0.505,5.116l0.24,4.742l0.065,4.189
		l-0.062,3.702l-0.149,3.134l-0.24,2.583l-0.241,1.998l-0.197,1.283l-0.107,0.784l-25.038-4.788l0.009,0.113l0.096-0.684
		l0.141-1.202l0.144-1.784l0.149-2.336l0.062-2.804l-0.067-3.291l-0.238-3.647l-0.405-4.116l-0.617-4.407l-0.92-4.765l-1.217-5.088
		l-1.557-5.381l-1.993-5.593l-2.369-5.817l-2.892-6.014l-3.403-6.226l-3.964-6.307l-4.615-6.454l-5.211-6.52l-5.997-6.653
		l-6.683-6.604l-7.556-6.671l-8.376-6.608l-9.288-6.611l-10.243-6.481l-11.244-6.37l-12.286-6.178l-13.424-6.051l-14.552-5.793
		l-15.777-5.502L653.967,566.347z M815.004,725.912l-0.006-1.378l0.205-1.064L815.004,725.912z M815.203,723.47l25.038,4.788
		l0.198-2.444l-0.423,14.843l-1.462,14.127l-2.443,13.384l-3.309,12.567l-4.113,11.876l-4.952,11.056l-5.58,10.363l-6.248,9.641
		l-6.748,8.898l-7.24,8.178l-7.668,7.53l-7.935,6.908l-8.186,6.261l-8.326,5.688l-8.454,5.138l-8.517,4.565l-8.47,4.113
		l-8.361,3.637l-8.237,3.236l-8.001,2.76l-7.704,2.456l-7.441,2.078l-6.971,1.774l-6.532,1.442l-6.032,1.19l-5.475,0.958
		l-4.799,0.752l-4.062,0.519l-3.362,0.411l-2.5,0.229l-1.577,0.168l-0.738,0.035l-1.495-25.438l0.239-0.033l1.276-0.069l2.102-0.229
		l2.864-0.312l3.663-0.52l4.3-0.651l4.874-0.858l5.437-1.089l5.933-1.345l6.372-1.574l6.643-1.878l7.006-2.157l7.203-2.56
		l7.34-2.838l7.462-3.238l7.474-3.615l7.42-4.065l7.357-4.439l7.228-4.891l6.989-5.361l6.736-5.812l6.373-6.333l6.041-6.88
		l5.652-7.401l5.15-7.947l4.684-8.566l4.055-9.262l3.513-9.879l2.81-10.673l2.044-11.39l1.265-12.23l0.423-13.148L815.203,723.47z"
		/>
	<rect x="521.495" y="512.204" fill="#E5050F" width="25.537" height="102.968"/>
	<path fill="#E5050F" d="M533.666,330.693l1.196,25.438l-5.272,0.458l-4.855,0.739l-4.45,1.041l-4.155,1.268l-3.771,1.522
		l-3.546,1.696l-3.238,1.896l-2.986,2.118l-2.8,2.218l-2.571,2.389l-2.406,2.536l-2.202,2.654l-2.01,2.75l-1.878,2.866l-1.657,2.91
		l-1.55,2.924l-1.352,2.967l-1.216,2.979l-1.092,2.918l-0.929,2.831l-0.825,2.818l-0.688,2.627l-0.557,2.563l-0.49,2.321
		l-0.384,2.154l-0.288,1.961l-0.206,1.692l-0.183,1.398l-0.074,1.076l-0.074,0.779l-0.036,0.457l-0.009-0.041l-25.436-0.898
		l0.009-0.457l0.036-0.756l0.074-1.179l0.172-1.575l0.184-1.896l0.306-2.191l0.388-2.459l0.483-2.754l0.591-3.019l0.758-3.161
		l0.885-3.426l1.025-3.516l1.229-3.728l1.39-3.816l1.615-3.877l1.85-3.964l2.049-4.023l2.356-4.005l2.576-3.964l2.907-3.947
		l3.199-3.852l3.502-3.733l3.871-3.585l4.195-3.415l4.582-3.118l4.934-2.893l5.244-2.594l5.664-2.218l5.95-1.868l6.345-1.441
		l6.651-1.036L533.666,330.693z M451.676,419.315l-0.006-0.445l0.006-0.153V419.315z M451.676,418.718l25.436,0.898v-0.598
		l0.266,4.758l0.543,4.54l0.791,4.424l1.115,4.304l1.367,4.137l1.643,4.066l1.791,3.947l2.066,3.824l2.216,3.703l2.439,3.581
		l2.538,3.455l2.713,3.334l2.761,3.158l2.885,3.081l2.933,2.906l2.955,2.777l3.004,2.601l2.926,2.423l2.924,2.293l2.845,2.162
		l2.794,1.932l2.664,1.851l2.463,1.618l2.332,1.435l2.18,1.302l1.899,1.117l1.696,0.932l1.418,0.795l1.112,0.56l0.784,0.422
		l0.479,0.184l-0.002,0.044l-10.771,23.043l-0.398-0.144l-0.68-0.384l-1.082-0.521l-1.412-0.759l-1.717-0.897l-1.994-1.131
		l-2.301-1.315l-2.479-1.502l-2.732-1.734l-2.961-1.918l-3.062-2.05l-3.192-2.33l-3.344-2.464l-3.423-2.69l-3.525-2.921l-3.501-3.1
		l-3.555-3.278l-3.531-3.503l-3.482-3.681l-3.461-3.955l-3.31-4.131l-3.235-4.354l-3.039-4.578l-2.914-4.8l-2.666-5.022
		l-2.489-5.242l-2.14-5.464l-1.867-5.732l-1.516-5.901l-1.189-6.12l-0.74-6.336l-0.266-6.454V418.718z"/>
	<rect x="521.547" y="285.31" fill="#E5050F" width="25.436" height="58.103"/>
	<path fill="#E5050F" d="M537.705,602.903l-6.882,24.539l-15.968-4.93l-14.902-5.337l-13.928-5.704l-12.938-6.138l-11.989-6.433
		l-11.076-6.792l-10.2-7.015l-9.313-7.253l-8.514-7.452l-7.75-7.566l-6.977-7.694l-6.239-7.783l-5.591-7.74l-4.877-7.807
		l-4.306-7.688l-3.718-7.584l-3.169-7.443l-2.709-7.265l-2.185-7.002l-1.799-6.751l-1.451-6.414l-1.039-6.141l-0.818-5.681
		l-0.532-5.286l-0.284-4.854l-0.125-4.333l-0.002-3.779l0.083-3.237l0.13-2.658l0.189-1.995l0.111-1.293l0.095-0.754l25.237,3.591
		l0.004-0.043l-0.11,0.794l-0.09,1.395l-0.13,1.96l-0.084,2.539l0.003,3.081l0.124,3.535l0.285,3.955l0.433,4.387l0.618,4.785
		l0.939,5.043l1.151,5.417l1.501,5.653l1.885,5.904l2.21,6.068l2.671,6.247l3.119,6.387l3.606,6.491l4.18,6.511l4.692,6.641
		l5.343,6.587l5.978,6.596l6.654,6.568l7.415,6.456l8.217,6.354l9.005,6.218l9.877,5.995l10.793,5.833l11.74,5.538l12.731,5.306
		l13.807,4.938L537.705,602.903z M394.42,443.438v0.749l-0.15,1.047L394.42,443.438z M394.27,445.233l-25.237-3.591l-0.15,1.795
		l0.488-12.935l1.375-12.382l2.259-11.844l3.035-11.222l3.805-10.614l4.42-10.069l5.078-9.44l5.631-8.873l6.078-8.324l6.471-7.788
		l6.854-7.215l7.083-6.658l7.309-6.214l7.476-5.686l7.538-5.272l7.592-4.77l7.544-4.386l7.488-4.014l7.376-3.558l7.158-3.216
		l6.884-2.886l6.655-2.574l6.221-2.225l5.879-1.889l5.382-1.669l4.878-1.364l4.27-1.171l3.707-0.895l2.983-0.681l2.209-0.434
		l1.427-0.299l0.686-0.13l4.29,25.137l-0.189,0.031l-1.126,0.199l-1.908,0.433l-2.586,0.583l-3.207,0.793l-3.871,0.973l-4.381,1.264
		l-4.882,1.469l-5.28,1.79l-5.723,2.025l-5.956,2.275l-6.284,2.588l-6.463,2.915l-6.576,3.259l-6.69,3.515l-6.745,3.888
		l-6.696,4.271l-6.639,4.573l-6.478,4.988l-6.312,5.316l-6.086,5.76l-5.758,6.118l-5.472,6.491l-5.08,6.926l-4.635,7.378
		l-4.18,7.844l-3.721,8.274l-3.107,8.818l-2.535,9.327l-1.861,9.85l-1.176,10.487l-0.387,11.138L394.27,445.233z"/>
	<rect x="645.107" y="285.31" fill="#E5050F" width="25.437" height="58.103"/>
	<path fill="#E5050F" d="M794.973,359.628l16.958,19.051l-0.026-0.036l-0.266,0.286l-0.491,0.456l-0.705,0.673l-0.906,0.887
		l-1.09,1.096l-1.212,1.257l-1.42,1.509l-1.565,1.662l-1.645,1.909l-1.812,2.056l-1.865,2.248l-2.005,2.385l-2.031,2.623
		l-2.093,2.755l-2.14,2.986l-2.227,3.061l-2.195,3.286l-2.202,3.456l-2.196,3.572l-2.177,3.739l-2.141,3.898l-2.093,4.006
		l-2.032,4.164l-1.957,4.313l-1.867,4.414l-1.814,4.558l-1.647,4.702l-1.567,4.79l-1.373,4.928l-1.267,5.011l-1.093,5.192
		l-25.038-4.889l1.293-5.988l1.465-5.909l1.673-5.726l1.767-5.589l1.946-5.399l2.015-5.257l2.167-5.111l2.257-4.913l2.33-4.761
		l2.392-4.606l2.442-4.397l2.475-4.237l2.495-4.071l2.502-3.856l2.496-3.685l2.424-3.56l2.44-3.284l2.392-3.155l2.329-2.921
		l2.205-2.786l2.164-2.547l2.012-2.353l1.944-2.109l1.765-1.961l1.62-1.709l1.512-1.555l1.289-1.297l1.105-1.086l0.904-0.874
		l0.691-0.655l0.465-0.386L794.973,359.628z M735.771,465.633l25.038,4.889l-1.246,5.803l-1.327,5.465l-1.399,5.09l-1.515,4.78
		l-1.571,4.434l-1.674,4.151l-1.764,3.883l-1.799,3.528l-1.926,3.34l-1.945,3.013l-2.056,2.803l-2.11,2.554l-2.157,2.321
		l-2.194,2.051l-2.225,1.848l-2.299,1.657l-2.263,1.379l-2.272,1.168l-2.221,0.969l-2.215,0.784l-2.099,0.615l-2.026,0.411
		l-1.945,0.316l-1.808,0.14l-1.661,0.027l-1.459-0.023l-1.397-0.108l-1.178-0.128l-1.052-0.187l-0.868-0.179l-0.576-0.157
		l-0.676-0.172l7.581-24.34l-0.521-0.127l-0.122-0.042l-0.129-0.021l-0.047-0.013l0.082,0.03l0.1,0.009l0.263,0.022l0.264-0.027
		l0.312-0.041l0.349-0.017l0.43-0.11l0.504-0.116l0.519-0.188l0.626-0.271l0.675-0.368l0.768-0.483l0.803-0.559l0.928-0.749
		l0.998-0.956l1.059-1.124l1.112-1.358l1.158-1.605l1.247-1.915l1.228-2.143l1.3-2.531l1.266-2.785l1.272-3.154l1.274-3.536
		l1.216-3.881l1.199-4.293l1.127-4.668L735.771,465.633z M709.678,507.16h1.89l1.9,0.598L709.678,507.16z M713.468,507.758
		l-7.581,24.34l3.791,0.599l-2.607-0.114l-2.561-0.287l-2.558-0.51l-2.547-0.631l-2.43-0.848l-2.407-0.964l-2.325-1.177
		l-2.285-1.288l-2.191-1.446l-2.089-1.604l-1.981-1.756l-1.913-1.909l-1.792-2.059l-1.66-2.155l-1.572-2.301l-1.38-2.444
		l-1.278-2.534l-1.07-2.673l-0.955-2.808l-0.731-2.841l-0.554-2.973l-0.416-3.052l-0.125-3.128l0.024-3.154l0.234-3.225l0.446-3.295
		l0.67-3.314l0.896-3.327l1.132-3.392l1.324-3.403l1.523-3.411l1.78-3.417l22.343,12.169l-1.18,2.321l-1.025,2.214l-0.825,2.105
		l-0.634,1.995l-0.496,1.931l-0.37,1.817l-0.247,1.7l-0.135,1.63l-0.025,1.557l0.125,1.433l0.117,1.356l0.255,1.276l0.333,1.247
		l0.356,1.112l0.472,1.076l0.48,1.037l0.58,0.948l0.576,0.904l0.663,0.86l0.694,0.761l0.717,0.712l0.783,0.66l0.793,0.605
		l0.795,0.55l0.79,0.489l0.827,0.379l0.811,0.365l0.835,0.25l0.751,0.232l0.763,0.11l0.765,0.089l0.712,0.013L713.468,507.758z
		 M700.622,473.426l-22.343-12.169l1.388-2.639l1.349-2.622l1.208-2.599l1.172-2.571l1.089-2.54l1.007-2.551l0.931-2.46l0.904-2.463
		l0.782-2.361l0.762-2.355l0.698-2.293l0.631-2.228l0.523-2.156l0.564-2.08l0.457-1.999l0.407-1.963l0.357-1.822l0.358-1.779
		l0.268-1.677l0.224-1.522l0.237-1.462l0.201-1.348l0.118-1.228l0.141-1.104l0.111-1.024l0.038-0.84l0.067-0.702l0.047-0.607
		l0.032-0.408l0.021-0.306l0.01-0.196l0.003,0.116l25.436,0.599l-0.003,0.282l-0.009,0.297l-0.021,0.504l-0.032,0.709l-0.048,0.806
		l-0.066,1.001l-0.138,1.139l-0.111,1.223l-0.14,1.404l-0.219,1.526l-0.201,1.648l-0.236,1.762l-0.325,1.921l-0.365,1.976
		l-0.359,2.077l-0.457,2.222l-0.507,2.263l-0.559,2.398l-0.564,2.479l-0.721,2.554l-0.732,2.627l-0.797,2.693l-0.862,2.753
		l-0.982,2.86l-1.004,2.862l-1.13,2.959l-1.207,2.951L706.738,461l-1.372,3.069l-1.508,3.098l-1.546,3.12L700.622,473.426z
		 M719.871,407.767l-0.051,0.3l0.051-1.965V407.767z M719.82,408.066l-25.436-0.599l-0.05,0.299l-0.093-3.625l-0.312-3.441
		l-0.565-3.208l-0.7-3.08l-0.866-2.905l-1.064-2.781l-1.146-2.661l-1.309-2.494l-1.453-2.428l-1.528-2.268l-1.637-2.209
		l-1.728-2.054l-1.799-1.95l-1.904-1.9l-1.89-1.754l-1.957-1.609l-1.958-1.569l-1.94-1.429l-1.903-1.294l-1.899-1.212l-1.827-1.133
		l-1.737-0.956l-1.678-0.881l-1.552-0.811l-1.408-0.693l-1.245-0.527l-1.115-0.516l-0.866-0.357l-0.749-0.249l-0.466-0.197
		l-0.263-0.096l0.108,0.052l7.88-24.239l0.39,0.148l0.563,0.195l0.864,0.296l1.049,0.449l1.364,0.556l1.514,0.615l1.744,0.828
		l1.907,0.893l2.052,1.008l2.177,1.183l2.335,1.353l2.426,1.433l2.497,1.61l2.602,1.793l2.64,1.93l2.655,2.066l2.655,2.308
		l2.689,2.452l2.6,2.598l2.6,2.848l2.524,3.051l2.436,3.207l2.326,3.465l2.151,3.626l2.006,3.89l1.845,4.058l1.563,4.277l1.365,4.5
		l1.099,4.675l0.766,4.906l0.511,5.036l0.191,5.221L719.82,408.066z"/>
	<rect x="790.684" y="339.734" fill="#E5050F" width="25.537" height="29.42"/>
	<path fill="#E5050F" d="M657.825,298.026v-25.435l3.986,0.268l3.855,0.691l3.801,0.993l3.817,1.323l3.96,1.483l4.076,1.769
		l4.167,1.884l4.28,2.128l4.37,2.252l4.431,2.401l4.52,2.531l4.58,2.589l4.565,2.675l4.575,2.79l4.557,2.782l4.518,2.804
		l4.398,2.805l4.305,2.732l4.235,2.74l4.04,2.675l3.87,2.59l3.673,2.431l3.4,2.351l3.201,2.151l2.927,2.029l2.628,1.785l2.251,1.619
		l1.95,1.333l1.522,1.073l1.169,0.844l0.691,0.491l0.286,0.169l-14.863,20.749l-0.187-0.169l-0.69-0.491l-1.07-0.745l-1.521-1.073
		l-1.851-1.333l-2.251-1.521l-2.527-1.785l-2.828-1.928l-3.102-2.151l-3.399-2.253l-3.574-2.43l-3.77-2.489l-3.94-2.576l-4.035-2.64
		l-4.207-2.732l-4.298-2.705l-4.316-2.705l-4.359-2.682l-4.376-2.59l-4.365-2.576l-4.281-2.49l-4.219-2.331l-4.133-2.202
		l-3.971-2.051l-3.781-1.83l-3.568-1.684l-3.277-1.37l-2.963-1.183l-2.622-0.825l-2.104-0.594l-1.462-0.292L657.825,298.026z
		 M759.358,356.367l-2.104-0.633l-1.687-1.212L759.358,356.367z M755.568,354.521l14.863-20.749l-3.79-1.845l1.655,0.502
		l1.618,0.351l1.58,0.303l1.54,0.261l1.547,0.176l1.451,0.096l1.406,0.07h1.456l1.354-0.062l1.3-0.123l1.297-0.126l1.237-0.173
		l1.18-0.165l1.167-0.252l1.104-0.234l1.038-0.26l1.019-0.33l0.899-0.295l0.879-0.304l0.854-0.31l0.776-0.257l0.649-0.301
		l0.667-0.288l0.537-0.271l0.502-0.248l0.414-0.218l0.326-0.186l0.234-0.144l0.192-0.102l0.097-0.05v0.006l-0.15,0.117
		l13.967,21.248l-0.25,0.182l-0.301,0.194l-0.395,0.25l-0.492,0.298l-0.633,0.345l-0.726,0.385l-0.813,0.419l-0.9,0.447l-1.034,0.47
		l-1.068,0.488l-1.248,0.5l-1.274,0.557l-1.353,0.508l-1.476,0.504l-1.599,0.495l-1.618,0.43l-1.736,0.459l-1.801,0.433
		l-1.866,0.353l-1.977,0.365l-2.036,0.272l-2.095,0.226l-2.199,0.122l-2.251,0.063h-2.255l-2.402-0.071l-2.448-0.195l-2.445-0.275
		l-2.537-0.362l-2.578-0.503l-2.616-0.649l-2.653-0.702L755.568,354.521z"/>
	<rect x="522.231" y="831.772" fill="#E5050F" width="25.537" height="57.368"/>
	<polygon fill="#E5050F" points="360.812,815.77 375.277,794.822 385.103,801.499 394.599,807.806 403.809,813.804 412.731,819.403 
		421.367,824.663 429.761,829.596 437.811,834.258 445.567,838.563 453.026,842.569 460.185,846.337 466.992,849.776 
		473.545,852.997 479.793,855.911 485.731,858.626 491.311,861.055 496.628,863.305 501.631,865.286 506.265,867.111 
		510.632,868.738 514.676,870.18 518.349,871.392 521.744,872.486 524.766,873.426 527.453,874.217 529.863,874.871 
		531.886,875.399 533.623,875.811 534.973,876.165 536.031,876.374 536.697,876.496 537.069,876.592 536.994,876.572 
		533.005,901.709 532.58,901.63 531.91,901.534 530.845,901.312 529.488,901.003 527.738,900.649 525.701,900.138 523.279,899.511 
		520.572,898.755 517.482,897.863 514.064,896.826 510.367,895.63 506.298,894.219 501.953,892.679 497.287,890.952 
		492.254,889.027 486.951,886.846 481.336,884.496 475.357,881.868 469.119,879.055 462.572,875.94 455.72,872.618 448.514,868.981 
		441.056,865.113 433.298,860.906 425.242,856.402 416.893,851.641 408.299,846.508 399.365,841.049 390.143,835.25 
		380.634,829.152 370.839,822.646 	"/>
	<path fill="#E5050F" d="M332.557,769.057l7.723,30.154l-24.639,6.285l-7.722-30.155L332.557,769.057z M327.062,815.072
		l-9.142-0.671l-2.28-8.905L327.062,815.072z M315.641,805.496l13.219-15.859l40.084,2.94l-1.797,25.438l-40.084-2.942
		L315.641,805.496z"/>
	<path fill="#E5050F" d="M536.745,819.153l-3.492,25.238l-5.61-0.921l-5.479-1.109l-5.245-1.281l-5.064-1.487l-4.886-1.685
		l-4.707-1.764l-4.481-1.931l-4.303-2.035l-4.08-2.172l-3.91-2.197l-3.736-2.308l-3.518-2.356l-3.299-2.34l-3.184-2.407
		l-2.967-2.413l-2.754-2.405l-2.588-2.382l-2.431-2.295l-2.268-2.295l-2.062-2.18l-1.904-2.152l-1.748-2.01l-1.545-1.904
		l-1.39-1.783l-1.239-1.698l-1.091-1.451l-0.942-1.339l-0.743-1.164l-0.649-0.923l-0.455-0.771l-0.261-0.451l-0.219-0.371
		l22.144-12.567l-0.078-0.129l0.161,0.252l0.255,0.371l0.35,0.624l0.545,0.763l0.643,0.941l0.789,1.151l0.941,1.2l1.092,1.386
		l1.245,1.503l1.349,1.611l1.506,1.654l1.66,1.779l1.771,1.797l1.931,1.897l2.091,1.883l2.255,1.905l2.368,1.915l2.485,1.908
		l2.699,1.941l2.819,1.855l2.939,1.81l3.11,1.799l3.283,1.675l3.406,1.635l3.582,1.532l3.71,1.465l3.888,1.284l4.068,1.189
		l4.248,1.081l4.38,0.909L536.745,819.153z M444.495,788.411l-4.882-8.562l7.076-6.849L444.495,788.411z M466.639,775.844
		l-22.144,12.567l2.194-15.41l3.804-3.835l3.616-3.921l3.334-3.989l3.209-3.998l2.941-4.088l2.78-4.117l2.627-4.131l2.431-4.128
		l2.241-4.115l2.108-4.084l1.931-4.092l1.765-4.033l1.652-3.961l1.448-3.874l1.35-3.824l1.261-3.658l1.075-3.579l0.998-3.436
		l0.83-3.278l0.767-3.156l0.662-2.92l0.562-2.769l0.522-2.553l0.385-2.324l0.309-2.131l0.289-1.823l0.176-1.602l0.167-1.266
		l0.119-1.014l0.027-0.699l0.04-0.421l0.012,0.024l25.436,1.494l-0.012,0.377l-0.04,0.62l-0.126,0.998l-0.119,1.313l-0.167,1.665
		l-0.274,1.899l-0.289,2.223l-0.408,2.43l-0.486,2.724l-0.521,2.953l-0.664,3.167l-0.761,3.418l-0.866,3.557l-1.028,3.775
		l-1.1,3.935l-1.276,4.077l-1.358,4.258l-1.549,4.322l-1.748,4.474l-1.851,4.56l-2.063,4.632l-2.231,4.688l-2.407,4.784
		l-2.641,4.812l-2.829,4.827l-3.026,4.828l-3.279,4.816l-3.539,4.785l-3.709,4.795l-4.032,4.689l-4.214,4.618l-4.502,4.533
		L466.639,775.844z M517.613,676.954l-0.051,0.747l0.051-0.836V676.954z M517.562,677.701l-25.436-1.494l-0.051,0.747l-0.064-3.194
		l-0.285-2.898l-0.392-2.659l-0.532-2.329l-0.658-2.157l-0.72-1.893l-0.817-1.735l-0.899-1.587l-0.916-1.396l-1.021-1.265
		l-1.057-1.188l-1.081-1.071l-1.19-0.964l-1.184-0.911l-1.263-0.768l-1.279-0.732l-1.278-0.705l-1.312-0.586l-1.334-0.525
		l-1.289-0.422l-1.281-0.375l-1.208-0.34l-1.169-0.26l-1.066-0.236l-0.998-0.123l-0.918-0.168l-0.721-0.072l-0.656-0.031
		l-0.434-0.049l-0.341-0.025l-0.085-0.01l0.133,0.049v-25.535l0.365,0.051l0.584,0.01l0.741,0.025l1.03,0.049l1.157,0.13l1.417,0.17
		l1.518,0.168l1.697,0.324l1.863,0.338l1.969,0.458l2.104,0.538l2.179,0.676l2.287,0.82l2.332,0.924l2.409,1.085l2.475,1.204
		l2.477,1.431l2.459,1.666l2.481,1.811l2.388,2.058l2.377,2.269l2.256,2.485l2.115,2.76l2.016,2.992l1.797,3.185l1.615,3.431
		l1.419,3.687l1.155,3.854l0.932,4.125l0.691,4.256l0.383,4.494l0.166,4.69L517.562,677.701z M464.76,646.328h-0.684l-1.062-0.148
		L464.76,646.328z M464.76,620.793v25.535l-1.745-0.148l0.523,0.041l0.174,0.03l0.129-0.018l-0.11-0.003l-0.1,0.021l-0.282,0.009
		l-0.358,0.057l-0.486,0.066l-0.605,0.139l-0.722,0.172l-0.836,0.268l-0.942,0.322l-1.099,0.441l-1.147,0.522l-1.295,0.662
		l-1.438,0.816l-1.475,0.932l-1.659,1.109l-1.69,1.246l-1.816,1.495l-1.938,1.707l-2.007,1.881l-2.119,2.115l-2.181,2.411
		l-2.235,2.619l-2.339,2.939l-2.386,3.221l-2.479,3.514l-2.52,3.817l-2.557,4.135l-2.637,4.462l-2.665,4.803l-22.444-11.972
		l2.965-5.399l2.937-5.062l2.954-4.732l2.919-4.417l2.879-4.11l2.884-3.821l2.838-3.537l2.834-3.317l2.778-3.01l2.72-2.814
		l2.705-2.579l2.637-2.304l2.613-2.095l2.588-1.944l2.457-1.706l2.472-1.531l2.336-1.314l2.292-1.162l2.245-1.021l2.095-0.84
		l2.041-0.722l1.932-0.567l1.82-0.471l1.703-0.338l1.582-0.267l1.458-0.155l1.278-0.108l1.196-0.021l0.909,0.004l0.868,0.017
		l0.624,0.069l0.674,0.058L464.76,620.793z M419.718,692.133v0.05l-4.463,8.278L419.718,692.133z M397.273,680.161l22.444,11.972
		v0.05l-4.188,7.565l-4.241,7.101l-4.188,6.741l-4.225,6.348l-4.203,5.967l-4.223,5.599l-4.184,5.238l-4.086,4.896l-4.128,4.513
		l-4.014,4.243l-3.989,3.936l-3.857,3.591l-3.864,3.307l-3.716,3.035l-3.607,2.777l-3.54,2.532l-3.362,2.248l-3.279,2.076
		l-3.135,1.818l-2.983,1.621l-2.822,1.386l-2.704,1.214l-2.473,1.054l-2.289,0.907l-2.091,0.771l-1.888,0.599l-1.676,0.489
		l-1.404,0.389l-1.223,0.255l-0.934,0.23l-0.688,0.118l-0.529,0.071l-3.492-25.238l-0.268,0.03l0.088-0.02l0.336-0.031l0.524-0.154
		l0.806-0.189l0.977-0.289l1.189-0.399l1.395-0.472l1.59-0.607l1.775-0.755l1.904-0.915l2.125-1.087l2.284-1.222l2.437-1.418
		l2.58-1.578l2.767-1.848l2.841-2.033l3.008-2.279l3.118-2.537l3.167-2.809l3.358-3.091l3.39-3.337l3.516-3.646l3.53-4.015
		l3.687-4.297l3.684-4.642l3.725-4.998l3.804-5.369l3.825-5.749l3.89-6.144l3.843-6.599l3.889-6.971V680.161z"/>
	<path fill-rule="evenodd" clip-rule="evenodd" fill="#FFFFFF" d="M657.457,554.128v100.392c0,0,78.329,32.363,78.329,91.937
		c0,0,7.723,85.315-77.961,85.315v58.104c0,0,170.633-10.297,169.896-164.013C827.722,725.863,850.154,609.657,657.457,554.128"/>
	<path fill-rule="evenodd" clip-rule="evenodd" fill="#FFFFFF" d="M534.264,615.173V512.205c0,0-69.135-32.361-69.871-93.039
		c0,0,2.574-72.445,69.871-75.754v-58.104c0,0-152.612,26.478-152.612,158.129C381.651,443.438,363.999,567,534.264,615.173"/>
	<path fill-rule="evenodd" clip-rule="evenodd" fill="#FFFFFF" d="M657.825,285.309v58.103c0,0,49.277,16.18,49.277,64.355
		c0,0-0.735,28.684-17.652,59.574c-16.916,30.89,2.575,52.587,20.228,52.587c0,0,26.844,8.458,38.612-51.851
		c11.769-60.31,55.161-98.923,55.161-98.923v-29.419c0,0-17.284,11.4-40.452,4.412C762.999,344.147,680.993,285.309,657.825,285.309
		"/>
	<path fill-rule="evenodd" clip-rule="evenodd" fill="#FFFFFF" d="M535,831.772v57.368c0,0-59.574-9.561-166.955-83.845
		l-40.084-2.942l-7.723-30.154c0,0,45.232-6.251,88.258-86.053c30.155-56.264,56.264-52.586,56.264-52.586s40.086,0,40.086,43.394
		c0,0-3.678,61.045-49.279,105.174C455.566,782.128,479.471,824.051,535,831.772"/>
</g>
</svg>
