<?xml version="1.0" encoding="utf-8"?>
<!-- Generator: Adobe Illustrator 16.0.0, SVG Export Plug-In . SVG Version: 6.00 Build 0)  -->
<!DOCTYPE svg PUBLIC "-//W3C//DTD SVG 1.1//EN" "http://www.w3.org/Graphics/SVG/1.1/DTD/svg11.dtd">
<svg version="1.1" id="Layer_1" xmlns="http://www.w3.org/2000/svg" xmlns:xlink="http://www.w3.org/1999/xlink" x="0px" y="0px"
	 width="333.718px" height="393.488px" viewBox="0 0 333.718 393.488" enable-background="new 0 0 333.718 393.488"
	 xml:space="preserve">
<polygon fill-rule="evenodd" clip-rule="evenodd" fill="#2C2925" points="332.582,61.854 332.329,61.222 332.014,60.59 
	331.76,59.959 331.38,59.326 331.066,58.758 330.687,58.189 330.309,57.621 329.864,57.115 329.486,56.546 329.044,56.104 
	328.537,55.599 328.033,55.093 327.589,54.652 327.084,54.272 326.518,53.83 325.948,53.451 325.379,53.072 324.81,52.755 
	324.24,52.44 323.61,52.124 322.979,51.871 322.347,51.618 321.713,51.365 321.02,51.176 320.389,50.986 319.692,50.797 
	318.997,50.671 318.304,50.545 317.545,50.481 316.851,50.418 316.09,50.355 315.332,50.355 255.439,50.355 253.67,47.575 
	251.837,44.859 249.941,42.142 247.983,39.551 245.897,36.961 243.751,34.496 241.538,32.096 239.264,29.758 236.863,27.484 
	234.462,25.272 231.936,23.188 229.347,21.165 226.691,19.207 224.037,17.312 221.257,15.543 218.413,13.836 215.572,12.258 
	212.602,10.741 209.632,9.288 206.601,7.96 203.503,6.761 200.343,5.623 197.186,4.549 193.9,3.602 190.68,2.78 187.33,2.085 
	183.981,1.454 180.57,0.948 177.158,0.505 173.684,0.253 170.207,0.064 166.669,0 163.257,0.064 159.721,0.253 156.309,0.505 
	152.896,0.948 149.485,1.454 146.135,2.085 142.85,2.78 139.565,3.602 136.28,4.549 133.121,5.623 129.962,6.761 126.866,7.96 
	123.833,9.288 120.863,10.741 117.957,12.258 115.051,13.836 112.208,15.543 109.429,17.312 106.775,19.207 104.122,21.165 
	101.531,23.188 99.004,25.272 96.603,27.484 94.202,29.758 91.926,32.096 89.716,34.496 87.568,36.961 85.482,39.551 83.524,42.142 
	81.565,44.859 79.796,47.575 78.027,50.355 18.385,50.355 17.627,50.355 16.869,50.418 16.174,50.481 15.415,50.545 14.721,50.671 
	14.025,50.797 13.331,50.986 12.699,51.176 12.005,51.365 11.372,51.618 10.741,51.871 10.108,52.124 9.476,52.44 8.908,52.755 
	8.339,53.072 7.771,53.451 7.202,53.83 6.634,54.272 6.128,54.652 5.686,55.093 5.18,55.599 4.675,56.104 4.233,56.546 
	3.854,57.115 3.411,57.621 3.032,58.189 2.653,58.758 2.338,59.326 1.959,59.959 1.642,60.59 1.39,61.222 1.137,61.854 
	0.948,62.548 0.758,63.18 0.569,63.876 0.441,64.57 0.315,65.328 0.189,66.086 0.126,66.845 0.062,67.603 0,68.424 0,69.245 
	0,70.067 0.062,70.889 0.126,71.772 0.189,72.594 0.315,73.479 0.441,74.301 0.569,75.185 0.758,76.006 0.948,76.89 1.137,77.712 
	1.39,78.533 1.642,79.355 1.959,80.176 2.274,80.934 2.591,81.756 2.968,82.45 3.349,83.208 3.79,83.904 4.233,84.599 4.675,85.231 
	5.118,85.863 5.686,86.431 5.75,86.621 6.191,87.063 6.76,87.694 7.392,88.452 8.086,89.211 8.782,89.906 9.287,90.538 9.667,90.98 
	9.793,91.232 9.982,91.549 10.108,91.928 10.298,92.306 10.425,92.749 10.551,93.128 10.677,93.507 10.677,93.759 10.677,109.491 
	10.677,124.023 10.677,137.355 10.677,149.548 10.677,160.668 10.677,170.65 10.677,179.559 10.677,187.394 10.677,194.28 
	10.677,200.029 10.677,204.896 10.677,208.874 10.677,211.843 10.677,213.992 10.677,215.256 10.677,215.636 10.677,216.456 
	10.741,217.277 10.804,218.036 10.866,218.858 10.993,219.679 11.056,220.499 11.183,221.321 11.372,222.144 11.562,222.965 
	11.752,223.784 11.941,224.606 12.131,225.428 12.383,226.25 12.635,227.133 12.952,227.891 13.205,228.713 13.521,229.535 
	13.899,230.293 14.215,231.113 14.532,231.873 14.911,232.629 15.289,233.387 15.668,234.084 16.111,234.842 16.552,235.536 
	16.995,236.231 17.438,236.864 17.88,237.559 18.323,238.189 18.828,238.822 19.333,239.391 19.775,239.958 151.253,386.349 
	151.632,386.79 152.012,387.232 152.453,387.612 152.833,387.992 153.275,388.37 153.717,388.748 154.16,389.065 154.602,389.445 
	155.044,389.759 155.487,390.076 155.929,390.393 156.435,390.646 156.939,390.961 157.382,391.214 157.889,391.466 
	158.394,391.655 158.899,391.908 159.404,392.097 159.909,392.286 160.415,392.478 160.92,392.604 161.426,392.794 161.994,392.919 
	162.5,393.044 163.068,393.172 163.574,393.235 164.143,393.361 164.711,393.424 165.216,393.424 165.723,393.488 166.291,393.488 
	166.858,393.488 167.363,393.488 167.933,393.488 168.501,393.424 169.071,393.424 169.576,393.361 170.144,393.235 
	170.651,393.172 171.218,393.044 171.724,392.919 172.292,392.794 172.798,392.604 173.304,392.478 173.809,392.286 
	174.314,392.097 174.819,391.908 175.325,391.655 175.83,391.466 176.336,391.214 176.777,390.961 177.285,390.646 177.79,390.393 
	178.232,390.076 178.674,389.759 179.115,389.445 179.56,389.065 180.001,388.748 180.443,388.37 180.885,387.992 181.266,387.612 
	181.706,387.232 182.086,386.79 182.464,386.349 313.943,239.958 314.448,239.391 314.954,238.822 315.396,238.189 315.839,237.559 
	316.346,236.864 316.786,236.231 317.165,235.536 317.606,234.842 318.05,234.084 318.429,233.387 318.809,232.629 319.187,231.873 
	319.503,231.113 319.819,230.293 320.197,229.535 320.514,228.713 320.767,227.891 321.083,227.133 321.272,226.25 321.524,225.428 
	321.777,224.606 321.966,223.784 322.157,222.965 322.347,222.144 322.535,221.321 322.6,220.499 322.727,219.679 322.853,218.858 
	322.915,218.036 322.979,217.277 322.979,216.456 323.041,215.636 323.041,214.31 323.041,210.58 323.041,204.768 323.041,197.187 
	323.041,188.277 323.041,178.232 323.041,167.491 323.041,156.309 323.041,145.126 323.041,134.196 323.041,123.897 
	323.041,114.546 323.041,106.585 323.041,100.204 323.041,95.845 323.041,93.759 323.041,93.507 323.168,93.128 323.293,92.749 
	323.421,92.306 323.61,91.928 323.737,91.549 323.926,91.232 324.051,90.98 328.095,86.431 328.603,85.863 329.044,85.231 
	329.486,84.599 329.927,83.904 330.369,83.208 330.749,82.45 331.127,81.756 331.444,80.934 331.76,80.176 332.074,79.355 
	332.329,78.533 332.582,77.712 332.771,76.89 332.96,76.006 333.149,75.185 333.276,74.301 333.402,73.479 333.529,72.594 
	333.593,71.772 333.654,70.889 333.718,70.067 333.718,69.245 333.718,68.424 333.654,67.603 333.593,66.845 333.529,66.086 
	333.402,65.328 333.276,64.57 333.149,63.876 332.96,63.18 332.771,62.548 "/>
<path fill-rule="evenodd" clip-rule="evenodd" fill="#FFFFFF" d="M323.61,66.656c-0.833-1.606-1.605-3.262-3.063-4.423
	c-1.537-1.224-3.025-1.947-4.904-2.483c-2.303-0.658-4.944-0.423-7.314-0.423c-11.622,0-23.245,0-34.867,0
	c-5.546,0-11.093,0-16.639,0c-1.63,0-3.259,0-4.889,0c-0.394,0-0.788,0-1.182,0c-0.417,0-0.424-0.325-0.635-0.704
	c-4.37-7.832-9.849-14.782-16.093-21.198c-6.006-6.171-13.152-11.443-20.665-15.627c-7.474-4.163-15.632-7.673-24.026-9.485
	c-8.508-1.837-17.271-3.135-26.006-2.642c-8.71,0.491-17.431,1.719-25.735,4.487c-8.241,2.748-16.259,6.375-23.452,11.289
	c-7.393,5.049-14.032,10.814-19.911,17.578c-2.89,3.325-5.439,6.902-7.86,10.578c-1.184,1.797-2.253,3.645-3.301,5.522
	c-0.245,0.438-1.367,0.201-1.817,0.201c-10.673,0-21.347,0-32.02,0c-9.232,0-18.464,0-27.696,0c-3.172,0-6.609,0.99-8.836,3.349
	c-2.712,2.873-3.711,6.762-3.278,10.673c0.231,2.085,0.57,4.057,1.175,6.068c0.528,1.759,1.445,3.769,2.76,5.081
	c1.499,1.495,2.971,3.171,4.271,4.84c1.086,1.395,1.904,3.499,2.158,5.251c0.218,1.502,0.117,3.058,0.117,4.574
	c0,3.505,0,7.01,0,10.516c0,11.468,0,22.936,0,34.403c0,12.992,0,25.985,0,38.978c0,9.215,0,18.429,0,27.644c0,1.533,0,3.066,0,4.6
	c0,3.871,1.006,7.602,2.319,11.211c1.572,4.323,4.339,7.771,7.363,11.138c4.468,4.977,8.936,9.952,13.403,14.928
	c7.242,8.065,14.483,16.131,21.725,24.195c8.654,9.638,17.308,19.275,25.961,28.914c8.705,9.694,17.41,19.39,26.115,29.084
	c7.395,8.235,14.79,16.471,22.184,24.707c4.723,5.26,9.446,10.521,14.169,15.78c0.935,1.04,1.869,2.081,2.803,3.122
	c1.833,2.041,4.516,4.189,7.303,4.691c4.092,0.738,8.308,0.481,11.73-2.19c1.298-1.013,2.431-2.093,3.522-3.31
	c3.656-4.072,7.312-8.144,10.969-12.216c6.736-7.502,13.473-15.004,20.209-22.506c8.455-9.417,16.909-18.833,25.364-28.249
	c8.812-9.814,17.625-19.628,26.437-29.442c7.809-8.696,15.617-17.393,23.425-26.088c5.443-6.062,10.887-12.124,16.329-18.186
	c2.437-2.713,4.919-5.354,7.111-8.266c1.17-1.553,2.097-3.462,2.817-5.261c0.705-1.76,1.507-3.647,1.844-5.521
	c0.451-2.504,0.813-4.918,0.813-7.471c0-7.087,0-14.174,0-21.261c0-12.43,0-24.859,0-37.288c0-12.47,0-24.938,0-37.407
	c0-7.207,0-14.413,0-21.619c0-2.375,0.675-4.504,1.735-6.634c0.371-0.747,0.973-1.345,1.526-1.958
	c0.993-1.1,1.986-2.199,2.979-3.299c1.229-1.362,2.024-2.921,2.768-4.587c0.939-2.107,1.205-4.559,1.454-6.825
	C324.531,71.218,324.267,68.839,323.61,66.656z"/>
<polygon fill-rule="evenodd" clip-rule="evenodd" fill="#2C2925" points="69.372,103.3 69.372,102.099 69.372,100.899 
	69.436,99.698 69.498,98.562 69.562,97.361 69.625,96.16 69.688,95.023 69.814,93.823 69.94,92.686 70.068,91.549 70.194,90.348 
	70.383,89.211 70.573,88.074 70.699,86.936 70.952,85.799 71.141,84.662 71.331,83.525 71.583,82.45 71.835,81.313 72.153,80.176 
	72.406,79.102 72.657,77.965 72.974,76.89 73.289,75.753 73.605,74.68 73.985,73.605 74.3,72.532 74.68,71.457 75.059,70.446 
	75.437,69.372 75.815,68.298 76.259,67.224 20.092,67.224 19.776,67.287 19.458,67.287 19.081,67.35 18.829,67.35 18.512,67.414 
	18.259,67.476 18.007,67.603 17.753,67.666 17.564,67.793 17.375,67.919 17.186,68.046 17.059,68.235 16.932,68.362 16.806,68.551 
	16.743,68.677 16.617,68.866 16.553,69.056 16.553,69.245 16.49,69.498 16.49,69.688 16.553,69.941 16.553,70.131 16.617,70.383 
	16.679,70.635 16.806,70.889 16.932,71.142 17.059,71.395 17.186,71.646 17.438,71.963 17.627,72.215 17.818,72.468 18.069,72.784 
	22.176,77.333 22.682,77.965 23.187,78.659 23.63,79.355 24.072,80.113 24.514,80.934 24.894,81.756 25.334,82.64 25.652,83.525 
	25.967,84.472 26.22,85.356 26.536,86.304 26.725,87.189 26.915,88.136 26.979,89.022 27.104,89.906 27.104,90.664 27.104,215.698 
	27.104,216.519 27.231,217.405 27.356,218.288 27.482,219.172 27.673,220.121 27.926,221.004 28.243,221.952 28.558,222.837 
	28.873,223.784 29.251,224.67 29.695,225.492 30.138,226.311 30.579,227.07 31.021,227.766 31.274,228.144 31.528,228.461 
	31.78,228.777 32.033,229.027 103.932,309.52 103.932,177.663 101.91,175.957 100.015,174.189 98.182,172.42 96.351,170.524 
	94.582,168.628 92.875,166.67 91.232,164.711 89.59,162.689 88.01,160.604 86.558,158.456 85.104,156.372 83.714,154.16 
	82.388,151.886 81.06,149.611 79.861,147.273 78.724,144.936 77.585,142.599 76.575,140.134 75.626,137.67 74.743,135.207 
	73.922,132.679 73.1,130.152 72.406,127.561 71.772,124.97 71.267,122.317 70.762,119.664 70.32,117.01 70.003,114.293 
	69.688,111.577 69.498,108.86 69.372,106.08 "/>
<polygon fill-rule="evenodd" clip-rule="evenodd" fill="#E93531" points="313.311,67.224 257.208,67.224 257.65,68.299 
	258.028,69.372 258.408,70.447 258.786,71.458 259.166,72.532 259.482,73.605 259.86,74.68 260.178,75.753 260.491,76.891 
	260.808,77.965 261.061,79.103 261.377,80.176 261.629,81.312 261.883,82.45 262.136,83.524 262.324,84.662 262.576,85.799 
	262.768,86.937 262.956,88.074 263.082,89.21 263.271,90.348 263.398,91.549 263.526,92.687 263.651,93.824 263.778,95.022 
	263.841,96.161 263.904,97.361 264.031,98.562 264.031,99.699 264.094,100.899 264.094,102.1 264.094,103.3 264.094,106.08 
	263.968,108.859 263.778,111.576 263.462,114.356 263.146,117.01 262.704,119.727 262.263,122.381 261.693,125.034 261.061,127.624 
	260.366,130.215 259.607,132.742 258.725,135.27 257.839,137.733 256.892,140.196 255.817,142.599 254.742,145 253.606,147.337 
	252.344,149.675 251.079,151.949 249.752,154.224 248.363,156.371 246.908,158.583 245.393,160.668 243.812,162.754 
	242.232,164.838 240.591,166.797 238.821,168.755 237.053,170.649 235.221,172.482 233.388,174.252 231.493,176.021 
	229.472,177.727 229.472,309.52 301.369,229.027 301.621,228.776 301.813,228.461 302.065,228.145 302.318,227.767 302.823,227.069 
	303.266,226.312 303.709,225.491 304.087,224.67 304.529,223.784 304.846,222.837 305.162,221.951 305.414,221.005 305.667,220.12 
	305.92,219.172 306.045,218.289 306.173,217.404 306.298,216.52 306.298,215.697 306.298,90.665 306.298,89.907 306.361,89.021 
	306.489,88.137 306.677,87.188 306.867,86.305 307.12,85.42 307.437,84.472 307.75,83.524 308.067,82.641 308.509,81.755 
	308.89,80.934 309.33,80.114 309.774,79.354 310.217,78.66 310.47,78.281 310.722,77.965 310.975,77.648 311.228,77.333 
	315.332,72.785 315.584,72.468 315.776,72.216 315.966,71.962 316.153,71.646 316.346,71.395 316.471,71.142 316.598,70.889 
	316.659,70.636 316.724,70.383 316.851,70.13 316.851,69.94 316.851,69.688 316.851,69.499 316.851,69.246 316.851,69.057 
	316.724,68.867 316.659,68.678 316.598,68.551 316.471,68.361 316.346,68.234 316.153,68.045 315.966,67.919 315.839,67.792 
	315.584,67.667 315.396,67.603 315.144,67.477 314.828,67.414 314.574,67.35 314.26,67.35 313.943,67.288 313.626,67.288 "/>
<polygon fill-rule="evenodd" clip-rule="evenodd" fill="#2C2925" points="150.938,69.183 150.938,123.897 151.064,123.897 
	151.064,123.96 150.938,123.96 150.938,124.465 150.938,124.971 150.875,125.476 150.749,125.919 150.686,126.425 150.495,126.93 
	150.369,127.372 150.18,127.813 149.99,128.256 149.801,128.698 149.547,129.141 149.295,129.52 148.979,129.898 148.727,130.278 
	148.41,130.656 148.031,130.973 147.715,131.353 147.336,131.669 146.958,131.92 146.578,132.236 146.135,132.489 145.756,132.68 
	145.315,132.932 144.874,133.121 144.43,133.312 143.987,133.437 143.483,133.562 143.041,133.689 142.535,133.816 142.029,133.88 
	141.524,133.88 141.019,133.88 140.513,133.88 140.006,133.88 139.502,133.816 138.998,133.689 138.491,133.562 138.049,133.437 
	137.607,133.312 137.102,133.121 136.659,132.932 136.28,132.68 135.837,132.489 135.396,132.236 135.016,131.92 134.637,131.669 
	134.258,131.353 133.943,130.973 133.626,130.656 133.311,130.278 132.994,129.898 132.742,129.52 132.489,129.141 132.236,128.698 
	132.046,128.256 131.793,127.813 131.605,127.372 131.479,126.93 131.353,126.425 131.226,125.919 131.163,125.476 131.099,124.971 
	131.036,124.465 131.036,123.96 131.036,111.071 116.063,111.071 116.063,124.592 116.125,125.854 116.252,127.118 116.441,128.319 
	116.693,129.52 117.01,130.656 117.326,131.857 117.769,132.994 118.21,134.069 118.716,135.143 119.284,136.217 119.917,137.229 
	120.548,138.176 121.243,139.124 122.001,140.07 122.76,140.956 123.58,141.776 124.465,142.599 125.349,143.355 126.298,144.052 
	127.245,144.746 128.256,145.379 129.266,145.946 130.341,146.516 131.415,146.958 132.553,147.399 133.69,147.779 134.89,148.158 
	136.027,148.411 137.291,148.601 138.491,148.791 139.755,148.853 141.019,148.916 142.282,148.853 143.546,148.727 144.81,148.601 
	146.073,148.348 147.274,148.095 148.41,147.779 149.611,147.337 150.749,146.894 151.822,146.452 152.896,145.883 153.971,145.253 
	154.918,144.619 155.928,143.926 156.877,143.167 157.762,142.408 158.646,141.587 159.468,140.702 160.288,139.817 
	160.984,138.871 161.679,137.859 162.373,136.849 162.942,135.839 163.512,134.764 164.017,133.627 164.458,132.489 
	164.838,131.353 165.152,130.152 165.47,128.951 165.658,127.751 165.785,126.486 165.85,125.224 165.911,123.897 165.911,69.183 
	"/>
<polygon fill-rule="evenodd" clip-rule="evenodd" fill="#2C2925" points="158.457,67.099 158.899,67.035 159.34,67.035 
	159.72,66.971 160.162,66.909 160.541,66.783 160.92,66.719 161.363,66.529 161.741,66.402 162.059,66.212 162.438,66.086 
	162.816,65.897 163.131,65.645 163.447,65.455 163.764,65.14 164.078,64.887 164.395,64.634 164.647,64.317 164.9,64.002 
	165.153,63.75 165.405,63.371 165.597,63.054 165.786,62.674 165.911,62.358 166.103,61.98 166.228,61.602 166.355,61.223 
	166.48,60.844 166.607,60.4 166.669,59.958 166.733,59.579 166.733,59.137 166.796,58.757 166.733,58.315 166.733,57.874 
	166.669,57.432 166.607,57.051 166.48,56.672 166.355,56.23 166.228,55.852 166.103,55.473 165.911,55.094 165.786,54.778 
	165.597,54.397 165.405,54.083 165.153,53.767 164.9,53.451 164.647,53.134 164.395,52.819 164.078,52.566 163.764,52.313 
	163.447,52.062 163.131,51.809 162.816,51.619 162.438,51.43 162.059,51.176 161.741,51.05 161.363,50.923 160.92,50.733 
	160.541,50.671 160.162,50.544 159.72,50.48 159.34,50.418 158.899,50.418 158.457,50.418 158.077,50.418 157.635,50.418 
	157.193,50.48 156.813,50.544 156.371,50.671 155.992,50.733 155.613,50.923 155.234,51.05 154.855,51.176 154.476,51.43 
	154.16,51.619 153.844,51.809 153.465,52.062 153.149,52.313 152.833,52.566 152.581,52.819 152.264,53.134 152.075,53.451 
	151.759,53.767 151.57,54.083 151.317,54.397 151.127,54.778 150.937,55.094 150.812,55.473 150.622,55.852 150.495,56.23 
	150.369,56.672 150.306,57.051 150.243,57.432 150.18,57.874 150.18,58.315 150.116,58.757 150.18,59.137 150.18,59.579 
	150.243,59.958 150.306,60.4 150.369,60.844 150.495,61.223 150.622,61.602 150.812,61.98 150.937,62.358 151.127,62.674 
	151.317,63.054 151.57,63.371 151.759,63.75 152.075,64.002 152.264,64.317 152.581,64.634 152.833,64.887 153.149,65.14 
	153.465,65.455 153.844,65.645 154.16,65.897 154.476,66.086 154.855,66.212 155.234,66.402 155.613,66.529 155.992,66.719 
	156.371,66.783 156.813,66.909 157.193,66.971 157.635,67.035 158.077,67.035 "/>
<path fill-rule="evenodd" clip-rule="evenodd" fill="#E93531" d="M201.482,91.549l-0.253,0.505l-0.316,0.568l-0.315,0.506
	l-0.38,0.505l-0.38,0.505l-0.441,0.443l-0.379,0.442l-0.505,0.443l-0.441,0.379l-0.507,0.379l-0.567,0.379l-0.506,0.315
	l-0.569,0.317l-0.569,0.315l-0.631,0.253l-0.505,0.19l-0.505,0.189l-0.506,0.126l-0.569,0.127l-0.506,0.127l-0.568,0.063
	l-0.506,0.063h-0.505l-0.569,0.063h-0.503l-0.509-0.063l-0.503-0.063h-0.19l-0.314-0.063l-0.508-0.064l-0.567-0.126l-0.441-0.126
	l-0.507-0.127l-0.507-0.19l-0.44-0.189l-0.506-0.253l-0.441-0.189l-0.506-0.253l-0.441-0.253l-0.381-0.316l-0.44-0.252l-0.38-0.317
	l-0.442-0.379l-0.38-0.315l-0.378-0.379l-0.315-0.379l-0.38-0.443l-0.316-0.379l8.593-3.474l7.267-2.908l7.14-2.906l7.898-3.159
	l-0.191-0.82l-0.253-0.822l-0.253-0.758l-0.315-0.821l-0.378-1.011l-0.507-0.948l-0.505-0.947l-0.568-0.885l-0.569-0.885
	l-0.695-0.821l-0.693-0.822l-0.695-0.694l-0.696-0.759l-0.821-0.631l-0.757-0.632l-0.886-0.632l-0.822-0.505l-0.885-0.506
	l-0.947-0.505l-0.884-0.379l-0.948-0.379l-0.947-0.379l-1.012-0.253l-1.009-0.253l-0.948-0.19l-1.075-0.126l-1.011-0.063
	l-1.011-0.064h-1.011l-1.011,0.064h-0.064l-1.01,0.126l-1.073,0.127l-1.011,0.252l-1.013,0.253l-1.072,0.316l-1.011,0.379
	l-1.012,0.442l-0.946,0.443l-0.949,0.568l-0.884,0.568l-0.886,0.569l-0.821,0.632l-0.759,0.696l-0.759,0.694l-0.693,0.758
	l-0.694,0.759l-0.633,0.82l-0.569,0.822l-0.567,0.885l-0.506,0.884l-0.44,0.884l-0.444,0.885l-0.378,1.011l-0.317,0.948
	l-0.313,0.947l-0.255,1.011l-0.189,1.011l-0.125,1.011l-0.063,1.011l-0.064,1.01v1.075l0.064,1.011l0.125,1.074l0.191,1.01
	l0.189,1.012l0.252,1.074l0.316,1.01l0.379,1.011l0.441,1.011l0.505,0.948l0.505,0.947l0.569,0.885l0.57,0.885l0.693,0.821
	l0.634,0.822l0.693,0.695l0.758,0.758l0.822,0.632l0.758,0.631l0.82,0.632l0.886,0.569l0.886,0.442l0.884,0.505l0.946,0.379
	l0.949,0.38l0.947,0.379l1.011,0.252l0.947,0.253l1.011,0.19l1.011,0.127l0.759,0.062l0.253,0.064h1.011h1.074h1.011l1.075-0.126
	l1.011-0.191l1.074-0.188l1.009-0.316l1.013-0.314l1.072-0.38l0.506-0.253l0.569-0.254l0.505-0.253l0.569-0.251l0.506-0.253
	l0.505-0.316l0.506-0.315l0.441-0.316l0.506-0.379l0.444-0.315l0.503-0.38l0.38-0.379l0.441-0.378l0.444-0.379l0.378-0.443
	l0.377-0.379l0.442-0.442l0.315-0.442l0.381-0.443l0.316-0.442l0.317-0.443l0.313-0.441l0.38-0.506l0.253-0.443l0.25-0.505
	l0.319-0.505l0.25-0.506l0.253-0.505l0.191-0.506l0.188-0.568l0.189-0.505l0.19-0.506l-8.276-1.579L201.482,91.549z M177.094,86.178
	v-0.505v-0.442v-0.507l0.064-0.505l0.062-0.442l0.126-0.505l0.127-0.443l0.062-0.505l0.191-0.442l0.127-0.443l0.187-0.442
	l0.191-0.442l0.188-0.442l0.253-0.443l0.189-0.379l0.253-0.442l0.315-0.379l0.253-0.379l0.316-0.379l0.314-0.379l0.316-0.316
	l0.38-0.38l0.314-0.315l0.381-0.316l0.38-0.316l0.378-0.316l0.441-0.253l0.441-0.252l0.444-0.317l0.442-0.189l0.44-0.253
	l0.444-0.189l0.506-0.19l0.505-0.126l0.442-0.189l0.505-0.064l0.506-0.126l0.505-0.126h0.189h0.253l0.505-0.064l0.506-0.063h0.441
	h0.508l0.505,0.063l0.442,0.064l0.503,0.062l0.508,0.064l0.441,0.126l0.441,0.127l0.506,0.126l0.441,0.19l0.443,0.126l0.442,0.189
	l0.442,0.191l0.38,0.251l0.441,0.19l0.441,0.253l0.38,0.316l0.378,0.253l0.38,0.315l0.379,0.317l0.38,0.315l0.378,0.317l0.316,0.379
	l-11.183,4.485L177.094,86.178z"/>
<polygon fill-rule="evenodd" clip-rule="evenodd" fill="#E93531" points="190.868,142.977 190.174,142.914 189.479,142.914 
	188.846,142.788 188.213,142.662 187.519,142.535 186.888,142.345 186.319,142.156 185.688,141.903 185.119,141.65 184.55,141.334 
	183.981,141.019 183.476,140.703 182.906,140.324 182.401,139.944 181.959,139.503 181.454,139.06 181.012,138.618 180.632,138.113 
	180.254,137.606 179.874,137.102 179.496,136.596 179.179,136.027 178.863,135.459 178.61,134.89 178.421,134.258 178.169,133.627 
	177.98,132.995 177.854,132.363 177.727,131.73 177.663,131.037 177.599,130.404 177.599,129.71 177.599,129.014 177.663,128.32 
	177.727,127.688 177.854,127.056 177.98,126.361 178.169,125.793 178.421,125.161 178.61,124.529 178.863,123.96 179.179,123.392 
	179.496,122.823 179.874,122.316 180.254,121.812 180.632,121.243 181.012,120.801 181.454,120.359 181.959,119.916 
	182.401,119.475 182.906,119.096 183.476,118.716 183.981,118.336 184.55,118.021 185.119,117.769 185.688,117.452 186.319,117.263 
	186.888,117.01 187.519,116.884 188.213,116.694 188.846,116.569 189.479,116.505 190.174,116.441 190.868,116.441 191.626,116.441 
	192.384,116.505 193.142,116.631 193.837,116.757 194.533,116.947 195.228,117.199 195.922,117.452 196.555,117.706 
	197.187,118.085 197.817,118.399 198.386,118.779 199.019,119.222 199.524,119.664 200.029,120.169 200.535,120.675 201.04,121.243 
	206.853,115.368 206.472,114.989 206.094,114.609 205.653,114.229 205.275,113.851 204.896,113.472 204.453,113.093 
	204.009,112.777 203.567,112.462 203.125,112.145 202.684,111.766 202.176,111.513 201.735,111.198 201.229,110.945 
	200.724,110.691 200.218,110.439 199.777,110.187 199.207,109.934 198.702,109.744 198.197,109.555 197.691,109.365 
	197.122,109.176 196.555,108.986 195.986,108.923 195.481,108.732 194.911,108.671 194.344,108.544 193.775,108.48 193.206,108.354 
	192.637,108.354 192.004,108.292 191.437,108.228 190.868,108.228 189.73,108.292 188.657,108.354 187.583,108.48 186.508,108.671 
	185.497,108.923 184.486,109.239 183.476,109.555 182.528,109.934 181.581,110.376 180.632,110.819 179.749,111.324 
	178.863,111.892 177.98,112.523 177.221,113.156 176.463,113.851 175.705,114.546 175.009,115.304 174.314,116.062 173.684,116.884 
	173.051,117.706 172.484,118.59 171.978,119.475 171.534,120.422 171.093,121.37 170.713,122.316 170.335,123.328 170.082,124.339 
	169.829,125.35 169.638,126.424 169.513,127.499 169.451,128.572 169.387,129.71 169.451,130.783 169.513,131.92 169.638,132.995 
	169.829,134.006 170.082,135.08 170.335,136.091 170.713,137.102 171.093,138.049 171.534,138.997 171.978,139.944 172.484,140.829 
	173.051,141.714 173.684,142.535 174.314,143.355 175.009,144.114 175.705,144.872 176.463,145.568 177.221,146.263 177.98,146.894 
	178.863,147.463 179.749,148.032 180.632,148.537 181.581,149.043 182.528,149.485 183.476,149.864 184.486,150.179 
	185.497,150.496 186.508,150.686 187.583,150.938 188.657,151.001 189.73,151.128 190.868,151.128 191.437,151.128 192.068,151.128 
	192.637,151.064 193.206,151.001 193.775,150.938 194.406,150.875 194.975,150.748 195.544,150.622 196.111,150.496 196.68,150.369 
	197.187,150.179 197.755,150.054 198.26,149.801 198.766,149.611 199.335,149.422 199.838,149.169 200.344,148.916 200.851,148.663 
	201.357,148.411 201.862,148.159 202.304,147.842 202.809,147.527 203.251,147.21 203.693,146.894 204.137,146.516 204.578,146.2 
	205.021,145.821 205.4,145.44 205.778,145.062 206.22,144.683 206.6,144.241 206.98,143.862 201.166,137.986 200.66,138.555 
	200.218,139.124 199.651,139.564 199.144,140.071 198.513,140.514 197.944,140.893 197.312,141.271 196.68,141.587 195.986,141.903 
	195.289,142.219 194.595,142.409 193.9,142.599 193.142,142.788 192.384,142.851 191.626,142.914 "/>
<path fill-rule="evenodd" clip-rule="evenodd" fill="#2C2925" d="M236.42,99.698l-0.253-3.538l-0.441-3.474l-0.631-3.475
	l-0.758-3.348l-0.949-3.349l-1.137-3.223l-1.199-3.159l-1.392-3.158l-1.58-2.969l-1.642-2.906l-1.832-2.844l-1.958-2.717
	l-2.086-2.654l-2.21-2.527l-2.275-2.464l-2.401-2.275l-2.527-2.21l-2.652-2.086l-2.781-1.895l-2.843-1.832l-2.906-1.706l-2.97-1.516
	l-3.096-1.39l-3.221-1.264l-3.225-1.137l-3.284-0.948l-3.411-0.758l-3.413-0.569l-3.475-0.442l-3.602-0.316l-3.538-0.063h-0.062
	l-3.476,0.063l-3.601,0.316l-3.475,0.442l-3.412,0.569l-3.412,0.758l-3.285,0.948l-3.223,1.137l-3.158,1.264l-3.159,1.39
	l-2.97,1.516l-2.907,1.706l-2.843,1.832l-2.78,1.895l-2.59,2.086l-2.59,2.21l-2.401,2.275l-2.275,2.464l-2.211,2.527l-2.085,2.654
	l-1.959,2.717l-1.833,2.844l-1.641,2.906l-1.58,2.969l-1.39,3.158l-1.2,3.159l-1.138,3.223l-0.947,3.349l-0.758,3.348l-0.632,3.475
	l-0.443,3.474l-0.253,3.538l-0.126,3.602l0.126,3.603l0.253,3.537l0.443,3.475l0.632,3.413l0.758,3.411l0.947,3.285l1.138,3.285
	l1.2,3.159l1.39,3.095l1.58,3.034l1.641,2.906l1.833,2.842l1.959,2.718l2.085,2.653l2.211,2.527l2.275,2.4l2.401,2.338l2.59,2.148
	l2.59,2.084l2.78,1.959l2.843,1.833l2.907,1.705l2.97,1.517l3.159,1.391l3.158,1.263l3.223,1.075l3.285,0.947l3.412,0.758
	l3.412,0.632l3.475,0.443l3.601,0.252l3.476,0.127h0.062l3.538-0.127l3.602-0.252l3.475-0.443l3.413-0.632l3.411-0.758l3.284-0.947
	l3.225-1.075l3.221-1.263l3.096-1.391l2.97-1.517l2.906-1.705l2.843-1.833l2.781-1.959l2.652-2.084l2.527-2.148l2.401-2.338
	l2.275-2.4l2.21-2.527l2.086-2.653l1.958-2.718l1.832-2.842l1.642-2.906l1.58-3.034l1.392-3.095l1.199-3.159l1.137-3.285
	l0.949-3.285l0.758-3.411l0.631-3.413l0.441-3.475l0.253-3.537l0.128-3.603L236.42,99.698z M231.618,106.648l-0.253,3.285
	l-0.378,3.223l-0.568,3.223l-0.759,3.158l-0.883,3.097l-1.011,2.969l-1.139,2.97l-1.327,2.906l-1.453,2.779l-1.517,2.718
	l-1.705,2.653l-1.832,2.527l-1.896,2.464l-2.083,2.399l-2.15,2.212l-2.273,2.148l-2.336,2.086l-2.465,1.896l-2.528,1.832
	l-2.654,1.705l-2.716,1.58l-2.78,1.391l-2.906,1.326l-2.97,1.137l-3.032,1.011l-3.032,0.885l-3.158,0.759l-3.224,0.568l-3.222,0.379
	l-3.349,0.253l-3.286,0.126h-0.062l-3.286-0.126l-3.284-0.253l-3.222-0.379l-3.224-0.568l-3.159-0.759l-3.032-0.885l-3.033-1.011
	l-2.97-1.137l-2.842-1.326l-2.844-1.391l-2.717-1.58l-2.654-1.705l-2.527-1.832l-2.463-1.896l-2.338-2.086l-2.275-2.148
	l-2.148-2.212l-2.085-2.399l-1.895-2.464l-1.832-2.527l-1.643-2.653l-1.58-2.718l-1.452-2.779l-1.264-2.906l-1.201-2.97
	l-1.011-2.969l-0.884-3.097l-0.696-3.158l-0.568-3.223l-0.441-3.223l-0.254-3.285l-0.063-3.349l0.063-3.348l0.254-3.349l0.441-3.222
	l0.568-3.222l0.696-3.16l0.884-3.032l1.011-3.033l1.201-2.969l1.264-2.843l1.452-2.844l1.58-2.716l1.643-2.654l1.832-2.527
	l1.895-2.464l2.085-2.338l2.148-2.275l2.275-2.148l2.338-2.084l2.463-1.895l2.527-1.833l2.654-1.705l2.717-1.517l2.844-1.453
	l2.842-1.264l2.97-1.2l3.033-1.01l3.032-0.886l3.159-0.695l3.224-0.631l3.222-0.379l3.284-0.253l3.286-0.064h0.062l3.286,0.064
	l3.349,0.253l3.222,0.379l3.224,0.631l3.158,0.695l3.032,0.886l3.032,1.01l2.97,1.2l2.906,1.264l2.78,1.453l2.716,1.517l2.654,1.705
	l2.528,1.833l2.465,1.895l2.336,2.084l2.273,2.148l2.15,2.275l2.083,2.338l1.896,2.464l1.832,2.527l1.705,2.654l1.517,2.716
	l1.453,2.844l1.327,2.843l1.139,2.969l1.011,3.033l0.883,3.032l0.759,3.16l0.568,3.222l0.378,3.222l0.253,3.349l0.127,3.348
	L231.618,106.648z"/>
<path fill-rule="evenodd" clip-rule="evenodd" fill="#2C2925" d="M196.808,303.329c-3.975,0.052-7.956,0.791-11.662,2.212
	c-0.991,0.38-1.922,0.871-2.832,1.417c-0.431,0.259-0.629,0.646-1.062,0.212c-0.355-0.355-0.784-0.699-1.186-1
	c-1.61-1.209-3.48-2.251-5.312-3.067c-1.746-0.778-3.673-1.606-5.623-1.606c-0.934,0-1.868-0.23-2.812-0.121
	c-1.057,0.123-2.113,0.168-3.167,0.317c-1.986,0.282-3.962,0.733-5.954,0.949c-1.926,0.208-3.951-0.304-5.744-0.976
	c-1.858-0.697-3.774-1.671-5.348-2.885c-0.775-0.599-1.476-1.295-2.365-1.737c-0.855-0.426-1.796-0.684-2.721-0.918
	c-3.941-1-8.2,0.122-12.025,1.079c-4.233,1.061-8.406,2.292-12.508,3.782c-0.923,0.335-1.849,0.654-2.762,1.015
	c-0.921,0.364-1.896,0.948-2.844,1.202c-0.33,0.089-0.358,0.245-0.426-0.155c-0.035-0.203-0.08-0.414-0.08-0.621
	c0-0.494-0.033-1.01,0.076-1.496c0.229-1.013,0.441-1.92,0.912-2.862c1.755-3.515,5.146-5.806,8.868-6.806
	c0.967-0.26,1.954-0.452,2.957-0.521c0.961-0.066,2.166-0.224,3.112-0.036c1.985,0.394,3.939,0.872,5.988,0.64
	c1.482-0.168,2.86-0.433,4.218-1.115c1.486-0.746,2.875-1.587,4.26-2.508c0.338,1.728,1.266,3.399,3.285,3.411
	c-1.229-1.561-2.099-3.104-2.654-5.021c-0.118-0.405-0.125-0.892-0.125-1.315c0-0.242-0.093-0.422,0.18-0.422
	c0.287,0,0.574,0,0.861,0c1.076,0,2.146,0.076,3.221,0.123c1.013,0.045,1.999,0.276,3.005,0.338
	c0.388,0.023,1.239,0.318,1.576,0.233c0.446-0.113,1.085-0.954,1.435-1.263c1.546-1.359,3.152-2.618,4.765-3.896
	c1.213-0.96,2.525-1.866,3.845-2.676c1.245-0.764,2.624-1.695,4.044-2.085c-1.75-1.579-3.286-3.145-4.674-5.056
	c5.393-2.187,11.073-2.968,16.868-2.968c-8.289-0.966-16.69-3.174-24.103-7.095c-2.665-1.41-5.291-2.832-7.868-4.405
	c3.28-0.841,6.909-0.944,10.3-0.946c3.445-0.002,6.961,0.346,10.361,0.883c-1.736-1.518-3.337-3.474-4.645-5.371
	c-0.712-1.034-1.394-2.088-2.053-3.157c-0.607-0.985-1.089-2.291-1.832-3.16c4.212,0.549,8.273,1.826,12.19,3.449
	c3.89,1.612,7.736,3.438,11.312,5.672c3.406,2.128,6.698,4.379,9.856,6.864c1.529,1.204,3.115,2.484,4.492,3.86
	c0.666,0.665,1.689,1.415,2.205,2.204c0.461,0.704,0.189,2.042,0.189,2.907c-5.853-6.495-12.812-11.729-20.438-15.968
	c-2.611-1.45-5.326-2.645-8.067-3.821c-2.574-1.105-5.495-2.231-8.265-2.705c1.033,1.815,2.394,3.374,3.68,5.015
	c0.701,0.895,1.406,1.785,2.117,2.673c0.406,0.509,1.245,1.903,1.899,2.027c4.163,0.794,8.188,2.013,12.187,3.402
	c2.004,0.696,3.98,1.517,5.921,2.374c2.074,0.916,4.11,1.81,5.85,3.274c-1.639-1.136-3.812-1.787-5.655-2.526
	c-1.92-0.77-3.944-1.441-5.938-1.984c-4.092-1.112-8.199-1.969-12.384-2.644c-5.78-0.932-11.622-1.186-17.47-1.186
	c0.688,0.705,1.877,1.191,2.75,1.629c0.86,0.431,1.675,0.948,2.558,1.334c1.918,0.837,3.881,1.726,5.875,2.361
	c4.157,1.324,8.32,2.454,12.627,3.173c5.968,0.997,11.977,1.198,18.016,1.045c-4.059,1.025-8.235,1.01-12.384,1.01
	c2.36,0.881,4.903,2.727,5.623,5.244c-2.786-2.786-6.59-4.618-10.617-4.226c-4.031,0.392-8.294,0.874-12.118,2.269
	c-0.171,0.062-0.343,0.125-0.514,0.188c0.66,0.65,1.188,1.399,1.894,2.021c0.808,0.712,1.604,1.418,2.458,2.075
	c0.794,0.61,1.608,1.219,2.463,1.74c0.883,0.539,1.879,1.009,2.661,1.684c1.562,1.348,2.867,2.874,4.26,4.385
	c1.357,1.474,2.404,3.293,4.051,4.474c0.713,0.512,1.636,1.187,2.529,1.329c0.475,0.076,0.945,0.182,1.423,0.247
	c0.273,0.037,1.384,0.175,1.574-0.074c0.319-0.419-0.743-2.309-0.948-2.718c-0.431-0.858-1.014-1.628-1.579-2.399
	c-2.416-3.298-6.095-5.521-9.641-7.38c-2.716-1.424-5.321-3.052-7.607-5.067c0.559,0.264,1.116,0.526,1.674,0.79
	c0.385,0.182,1.324,0.861,1.757,0.773c1.119-0.229,2.227-0.355,3.366-0.439c2.035-0.15,5.034-0.334,6.724,1.022
	c-2.495,0.041-4.951-0.371-7.329,0.633c1.841,0.953,3.692,1.743,5.445,2.869c1.851,1.189,3.612,2.458,5.169,4.019
	c0.497-0.533,0.995-1.066,1.492-1.601c0.289-0.31,0.237-0.317,0.624-0.105c0.308,0.167,0.619,0.324,0.933,0.48
	c1.107,0.552,2.281,0.939,3.406,1.439c2.303,1.025,5.301,1.663,7.822,1.619c-0.526,0.652-1.052,1.306-1.578,1.958
	c0.742,0.222,1.065,0,1.706-0.444c0,0.56,0,1.119,0,1.679c0,0.177-0.927,0.627-1.094,0.693c-0.433,0.172-0.909-0.261-1.302-0.467
	c-0.528-0.277-1.057-0.554-1.585-0.831c0.358-0.463,0.716-0.925,1.074-1.388c-2.076,0-4.028-0.847-5.972-1.466
	c-1.072-0.341-2.113-0.701-3.139-1.166c-0.544-0.246-0.771,0.204-1.193,0.573c-0.339,0.296,0.342,0.838,0.585,1.152
	c1.201,1.553,2.167,3.476,2.642,5.391c0.109,0.441,0.127,0.919,0.127,1.371c0,0.589-0.632,0.614-1.131,0.759
	c-0.884,0.255-1.984,0.208-2.885,0.064c-1.816-0.29-3.453-1.276-4.829-2.479c-0.363-0.318-0.547-0.814-0.944-0.415
	c-0.375,0.375-0.771,0.712-1.176,1.056c-0.695,0.589-1.418,1.097-2.177,1.602c1.814,1.362,3.229,3.185,4.685,4.905
	c0.714,0.845,1.316,1.775,1.949,2.676c0.629,0.896,1.372,1.844,1.833,2.844c4.659-2.501,9.277-4.438,14.531-5.243
	c0,0.585,0,1.17,0,1.754c0,0.399-0.863,0.284-1.2,0.332c-0.994,0.143-1.98,0.406-2.939,0.697c-1.905,0.578-3.791,1.183-5.582,2.078
	c-0.97,0.484-1.961,0.941-2.915,1.456c-0.439,0.237-0.865,0.506-1.295,0.759c-0.197,0.116-0.392,0.244-0.597,0.346
	c-0.37,0.185-0.318,0.163-0.533-0.185c-1.139-1.843-2.24-3.703-3.54-5.439c-3.191-4.26-6.77-8.749-11.915-10.644
	c1.952,0.354,3.662,0.903,5.326,2.013c0.384,0.255,0.872,0.812,1.289,0.564s0.819-0.502,1.231-0.76
	c0.872-0.546,1.583-1.291,2.347-1.971c0.224-0.199-3.469-4.443-3.84-4.894c-1.28-1.556-3.156-2.66-4.837-3.736
	c-0.353-0.226-2.279-1.846-2.533-1.737c-0.889,0.38-1.795,0.733-2.644,1.204c-1.932,1.071-3.704,2.425-5.471,3.75
	c-1.655,1.241-3.238,2.583-4.808,3.931c-0.404,0.347-0.808,0.692-1.214,1.037c-0.139,0.117-1.071,1.064-1.213,1.021
	c-1.007-0.303-2.079-0.501-3.125-0.611c-0.616-0.065-1.232-0.096-1.851-0.14c-0.609-0.043-1.453-0.266-2.036-0.05
	c1.199,2.146,2.302,4.168,4.043,5.938c-1.762,0.396-4.111,0.988-5.748-0.127c-0.355-0.242-0.601-0.54-0.899-0.836
	c-0.437-0.433-0.056-0.685-0.87-0.301c-0.943,0.445-1.809,0.855-2.803,1.186c-1.954,0.651-4.033,1.268-6.1,0.971
	c-1.978-0.283-3.99-0.579-5.998-0.579c-2.539,0-5.289,1.04-7.476,2.261c-1.009,0.563-2.314,1.509-2.959,2.479
	c-0.7,1.053-1.733,2.158-1.895,3.475c7.787-3.304,16.139-6.195,24.646-6.646c1.989-0.105,4.22-0.114,6.133,0.521
	c0.875,0.291,1.855,0.613,2.581,1.197c0.713,0.574,1.309,1.307,2.019,1.895c3.032,2.509,7.662,3.604,11.5,2.779
	c3.929-0.845,8.116-1.857,12.121-0.771c2.041,0.554,4.016,1.156,5.894,2.156c0.894,0.476,1.804,0.961,2.646,1.521
	c0.4,0.267,0.803,0.55,1.175,0.854c0.484,0.395,0.717,0.81,1.308,0.556c2.688-1.153,5.329-2.03,8.147-2.782
	c1.356-0.362,2.783-0.462,4.175-0.616c0.694-0.076,1.393-0.096,2.091-0.096C196.987,301.244,196.808,302.954,196.808,303.329z
	 M196.808,276.352c-0.88-0.312-1.764-0.602-2.654-0.885c-0.084,0.695-0.168,1.391-0.252,2.086c0.737-0.049,1.474-0.097,2.211-0.146
	C196.995,277.349,196.808,277.245,196.808,276.352z M202.177,271.865c0,1.2,0,2.401,0,3.602c-1.029-1.441-2.074-2.865-3.221-4.217
	c-0.689-0.812-1.359-1.629-2.113-2.382c-0.179-0.179-0.035-1.055-0.035-1.296c0-0.485,0-0.97,0-1.455
	c0.362,0.362,0.769,0.995,1.2,1.261c0.528,0.325,1.429,0.441,2.021,0.633c0.585,0.189,1.211,0.356,1.775,0.599
	c0.654,0.281,0.372,1.203,0.372,1.865c-0.626-0.27-1.303-0.445-1.958-0.631C200.871,270.518,201.524,271.191,202.177,271.865z
	 M196.808,276.352c0.974,0.074,2.006,0.609,2.97,0.82c-0.99,0.063-1.979,0.126-2.97,0.189
	C196.808,277.024,196.808,276.688,196.808,276.352z M196.808,284.121c1.868-1.119,3.83-2.431,5.369-3.979
	c0,0.405,0.235,1.847-0.031,2.117c-0.457,0.465-1.156,0.834-1.688,1.216c-1.187,0.852-2.379,1.63-3.649,2.354
	C196.808,285.259,196.808,284.69,196.808,284.121z M196.808,295.432c0.994-0.354,2.644,0.112,3.648,0.312
	c0.354,0.07,1.511,0.112,1.721,0.382c0.233,0.299,0,1.617,0,2.021c-1.115-0.364-2.322-0.758-3.507-0.758c-0.6,0-1.199,0-1.8,0
	C196.74,297.39,196.808,295.684,196.808,295.432z M197.187,301.244c1.18,0.065,2.381,0.074,3.555,0.205
	c0.51,0.058,1.436-0.081,1.436,0.507c0,0.41,0,0.82,0,1.23c0,0.357,0,0.347-0.352,0.319c-1.223-0.096-2.434-0.177-3.661-0.177
	c-0.496,0-1.356,0.26-1.356-0.326C196.808,302.587,196.501,301.027,197.187,301.244z M202.493,272.183
	c0.657,0.058,1.261,0.376,1.843,0.667c0.497,0.249,0.242,1.431,0.242,1.984c-0.351-0.213-0.724-0.45-1.073-0.63
	c0.249,0.341,1.073,1.098,1.073,1.524c0,0.927,0,1.854,0,2.78c0,0.458,0,0.916,0,1.374c0,0.381-0.229,0.47-0.518,0.734
	c-0.608,0.559-1.25,1.081-1.884,1.61c0-0.534,0-1.068,0-1.603c0-0.602,0.158-0.549,0.602-0.955c0.381-0.348,0.758-0.696,1.122-1.061
	c0.365-0.365,0.031-0.548-0.239-0.959c-0.345-0.523-1.484-1.729-1.484-2.383c0-1.135,0-2.269,0-3.402
	C202.28,271.969,202.402,272.067,202.493,272.183z M202.177,270.475c0-0.568,0-1.137,0-1.705c0.6,0.078,1.237,0.398,1.775,0.652
	c0.465,0.218,0.626,0.167,0.626,0.665c0,0.425,0,0.849,0,1.273C203.784,271.042,202.977,270.776,202.177,270.475z M202.177,296.126
	c0.771,0.28,1.54,0.553,2.298,0.867c0.325,0.136,0.104,1.928,0.104,2.293c-0.712-0.339-1.354-0.73-2.097-1.009
	C201.865,298.047,202.177,296.719,202.177,296.126z M202.81,301.686c0.242,0.046,1.615,0.129,1.769,0.316
	c0.21,0.257,0,1.477,0,1.833c-0.662-0.154-1.357-0.2-2.032-0.275c-0.514-0.058-0.369-0.204-0.369-0.708c0-0.409,0-0.818,0-1.228
	C202.388,301.645,202.599,301.665,202.81,301.686z M204.578,271.36c0-0.548,0-1.097,0-1.645c3.955,1.585,7.96,3.45,11.271,6.162
	c1.539,1.26,2.747,2.983,3.979,4.53c0.489,0.615,0.797,1.411,0.797,2.197c0,0.911-1.047,1.085-1.716,1.16
	c-3.351,0.38-6.191-1.296-8.604-3.438c-1.225-1.089-2.128-2.491-3.364-3.567c-0.585-0.51-1.198-0.977-1.792-1.469
	c-0.337-0.28-0.572-0.347-0.572-0.789c0-0.521,0-1.041,0-1.562c1.54,1.169,3.005,2.323,4.444,3.619
	c1.557,1.401,2.951,3.012,4.718,4.15c0.861,0.556,1.718,0.954,2.71,1.244c0.376,0.11,2.418,0.431,2.06-0.297
	c-0.809-1.642-2.141-3.076-3.512-4.283c-1.468-1.291-3.032-2.279-4.715-3.254c-0.99-0.573-2.009-1.075-3.045-1.562
	C206.416,272.17,205.292,271.922,204.578,271.36z M204.578,275.717c0,1.475,0,2.95,0,4.425c0.349-0.339,1.659-1.489,1.404-1.912
	C205.491,277.41,205.123,276.501,204.578,275.717z M205.21,297.453c3.532,1.762,5.907,5.076,7.582,8.529
	c-1.502-0.582-3.115-1.259-4.715-1.524c-0.855-0.142-1.705-0.309-2.56-0.458c-0.35-0.062-0.939,0.022-0.939-0.382
	c0-0.538,0-1.077,0-1.616c1.364,0.486,2.973,0.386,4.297,1.012c-0.728-1.051-1.781-1.884-2.76-2.685
	c-0.379-0.31-1.302-0.65-1.537-1.043c-0.254-0.423,0-1.701,0-2.213C204.789,297.2,204.999,297.326,205.21,297.453z"/>
<path fill-rule="evenodd" clip-rule="evenodd" fill="#2C2925" d="M148.6,346.04c-0.385,0-3.349,0.07-3.349-0.065
	c0-1.204,0-2.409,0-3.613c0-2.966,0-5.931,0-8.896c-1.309,1.125-2.699,1.889-4.296,2.527c0-0.629-0.341-2.896,0.234-3.126
	c0.873-0.348,1.692-0.788,2.419-1.392c0.741-0.615,1.486-1.239,1.929-2.12c0.129-0.257,0.262-0.818,0.57-0.818
	c0.739,0,1.478,0,2.217,0c0.51,0,0.276,0.753,0.276,1.188c0,1.235,0,2.471,0,3.707c0,3.137,0,6.274,0,9.412
	C148.6,343.91,148.6,344.975,148.6,346.04z"/>
<path fill-rule="evenodd" clip-rule="evenodd" fill="#2C2925" d="M158.962,343.574c2.248-0.078,2.439-3.197,2.591-4.865
	c-0.804,0.845-1.523,1.093-2.591,1.391c0-0.593,0-1.185,0-1.777c0-0.76,0.074-0.51,0.695-0.749c0.746-0.287,1.517-1.122,1.517-1.977
	c0-0.438,0.085-0.863,0.062-1.309c-0.027-0.539-0.217-0.943-0.348-1.454c-0.096-0.375-0.508-0.754-0.789-1.01
	c-0.104-0.095-1.138-0.614-1.138-0.523c0-0.62,0-1.24,0-1.86c0-0.65-0.192-1.004,0.55-0.857c0.421,0.084,0.863,0.065,1.282,0.206
	c0.416,0.14,0.757,0.409,1.139,0.603c1.734,0.877,2.292,2.853,2.778,4.548c0.374,1.303,0.254,2.751,0.254,4.092
	c0,1.248-0.036,2.894-0.601,4.027c-0.59,1.183-0.936,2.211-2.052,3.047c-0.502,0.376-0.983,0.566-1.521,0.84
	c-0.606,0.308-1.202,0.234-1.829,0.409C158.962,345.428,158.962,344.501,158.962,343.574z M153.717,341.996
	c1.074-0.105,2.148-0.211,3.222-0.316c-0.044,0.554,0.31,0.94,0.538,1.39c0.203,0.401,0.826,0.388,1.169,0.505
	c0.205,0.07,0.315-0.117,0.315,0.154c0,0.445,0,0.89,0,1.335c0,0.407,0,0.813,0,1.22c0,0.176-0.616,0.038-0.752,0.019
	c-1.107-0.157-2.235-0.339-3.07-1.179C154.312,344.292,153.86,343.144,153.717,341.996z M158.962,340.1
	c-0.702,0.345-1.994-0.084-2.651-0.409c-0.802-0.396-1.445-1.015-1.96-1.737c-1.112-1.559-1.175-3.702-0.728-5.498
	c0.385-1.549,1.68-3.053,3.222-3.57c0.406-0.136,0.823-0.222,1.231-0.285c0.522-0.081,0.886-0.264,0.886,0.336
	c0,0.706,0,1.413,0,2.119c0,0.416-0.528,0.292-0.916,0.422c-1.725,0.574-1.562,3.174-1.2,4.58c0.227,0.881,0.864,1.235,1.608,1.61
	c0.522,0.264,0.508-0.124,0.508,0.655C158.962,338.915,158.962,339.507,158.962,340.1z"/>
<path fill-rule="evenodd" clip-rule="evenodd" fill="#2C2925" d="M167.11,331.949c0-0.296-0.005-3.096,0.005-3.096
	c0.828,0,1.657,0,2.485,0c2.819,0,5.639,0,8.458,0c0.121,0,0.426-0.073,0.426,0.074c0,0.685,0,1.369,0,2.054
	c0,0.443-0.353,0.689-0.654,0.993c-0.33,0.331-0.589,0.789-0.869,1.164c-1.219,1.628-2.23,3.59-2.899,5.509
	c-0.686,1.967-1.184,4.053-1.383,6.125c-0.009,0.092,0.006,1.267-0.021,1.267c-0.629,0-1.257,0-1.885,0
	c-0.14,0-1.322,0.057-1.322-0.049c0-0.6,0.042-1.148,0.12-1.742c0.544-4.087,1.974-8.103,4.465-11.423
	c0.219-0.292,0.438-0.584,0.658-0.876C172.166,331.949,169.639,331.949,167.11,331.949z"/>
<path fill-rule="evenodd" clip-rule="evenodd" fill="#2C2925" d="M191.94,332.896c-0.633,0.062-1.266,0.124-1.898,0.187
	c-0.366,0.036-0.733,0.072-1.101,0.108c-0.374,0.036-0.186-0.132-0.284-0.42c-0.278-0.812-1.031-1.712-1.96-1.453
	c0-0.431,0-0.861,0-1.291c0-0.22-0.156-1.337,0-1.49c0.364-0.357,2.148,0.262,2.526,0.443
	C190.905,329.788,191.515,331.173,191.94,332.896z M186.697,334.729c0.97,0,1.778,0.069,2.655,0.506
	c0.861,0.429,1.308,1.119,1.943,1.755c0.547,0.547,0.847,1.699,0.922,2.449c0.092,0.913,0.098,1.922-0.149,2.809
	c-0.519,1.856-1.686,2.927-3.346,3.76c-0.361,0.182-0.975,0.286-1.374,0.286c-0.717,0-0.651,0.136-0.651-0.66
	c0-0.662,0-1.325,0-1.987c0-0.052,0.843-0.208,1.015-0.293c1.477-0.729,1.579-3.2,1.041-4.562c-0.319-0.81-0.774-1.252-1.611-1.534
	c-0.565-0.19-0.444-0.136-0.444-0.821C186.697,335.866,186.697,335.298,186.697,334.729z M186.697,331.318
	c-2.262,0.087-2.591,3.133-2.591,4.863c0.736-0.73,1.524-1.323,2.591-1.453c0,0.569,0,1.138,0,1.707c0,0.246,0,0.491,0,0.737
	c0,0.034-0.61,0.056-0.694,0.084c-0.872,0.293-1.357,1.12-1.533,1.977c-0.296,1.444,0.153,4.341,2.165,4.341
	c0.135,0,0.062,1.318,0.062,1.489c0,0.342,0,0.684,0,1.026c0,0.359-0.03,0.225-0.378,0.264c-0.734,0.082-1.942-0.335-2.525-0.77
	c-1.489-1.109-2.583-2.576-2.855-4.479c-0.394-2.74-0.48-5.463,0.282-8.15c0.336-1.186,1.064-2.415,2.062-3.167
	c0.478-0.36,0.993-0.639,1.521-0.904c0.582-0.292,1.273-0.217,1.893-0.347C186.697,329.464,186.697,330.392,186.697,331.318z"/>
<path fill-rule="evenodd" clip-rule="evenodd" fill="#E8262B" d="M77.648,103.489c-0.021-1.095-0.042-2.19-0.063-3.285
	c2.457-0.031,4.913-0.061,7.369-0.092c1.762-0.022,3.797-0.269,5.52,0.155c1.996,0.491,3.121,2.247,3.358,4.186
	c0.12,0.978,0.119,2.136-0.2,3.08c-0.312,0.923-0.921,1.427-1.566,2.07c-0.592,0.591-1.923,0.898-2.733,0.898
	c-0.221,0-0.551,0.121-0.582-0.133c-0.042-0.344-0.084-0.688-0.126-1.031c-0.079-0.644-0.157-1.287-0.236-1.931
	c1.541-0.157,2.83-0.551,2.716-2.338c-0.113-1.762-1.769-1.723-3.179-1.706C84.501,103.405,81.075,103.447,77.648,103.489z"/>
<path fill-rule="evenodd" clip-rule="evenodd" fill="#E8262B" d="M88.642,83.842c3.571-0.156,6.647,3.46,5.955,6.93
	c-0.377,1.893-1.108,3.277-2.638,4.505c-0.713,0.572-1.848,0.821-2.742,0.821c-0.562,0-0.575,0.087-0.575-0.468
	c0-0.762,0-1.524,0-2.287c0-0.156,0-0.312,0-0.468c0.899,0.297,2.331-0.203,2.893-0.95c0.557-0.742,0.958-2.209,0.343-3.033
	c-0.719-0.964-1.5-1.559-2.73-1.767c-0.11-0.019-0.505-0.003-0.505-0.122c0-0.358,0-0.717,0-1.075
	C88.642,85.233,88.642,84.538,88.642,83.842z M87.315,95.908c-3.862-0.641-5.671-4.849-4.296-8.339
	c0.589-1.496,1.725-2.744,3.222-3.349c0.186-0.075,2.401-0.601,2.401-0.363c0,1.068,0,2.137,0,3.206
	c-2.583-0.72-4.48,2.377-2.97,4.423c0.367,0.498,0.834,0.691,1.346,0.997c0.286,0.171,1.624,0.351,1.624,0.521
	c0,0.875,0,1.751,0,2.626c0,0.369,0.108,0.468-0.281,0.468C88.006,96.098,87.656,95.993,87.315,95.908z"/>
<path fill-rule="evenodd" clip-rule="evenodd" fill="#E8262B" d="M83.46,78.533l-2.653-0.884l0.884-2.969l2.718,0.885L83.46,78.533z
	 M95.908,82.703l-10.993-3.664l1.011-2.97l10.993,3.665L95.908,82.703z"/>
<polygon fill-rule="evenodd" clip-rule="evenodd" fill="#E8262B" points="101.91,66.782 100.646,69.625 95.276,67.161 
	94.455,66.782 93.823,66.529 93.569,66.465 93.318,66.403 93.128,66.339 93.001,66.339 92.686,66.339 92.433,66.339 92.18,66.403 
	91.927,66.529 91.738,66.718 91.549,66.908 91.359,67.161 91.232,67.414 91.106,67.603 91.106,67.793 91.043,67.982 91.043,68.172 
	90.979,68.362 90.979,68.551 91.043,68.741 91.043,68.93 91.106,69.119 91.106,69.309 91.232,69.498 91.296,69.625 91.359,69.814 
	91.485,70.005 91.611,70.131 91.738,70.256 91.927,70.383 92.117,70.509 92.306,70.635 92.56,70.825 93.254,71.204 94.076,71.583 
	98.814,73.795 97.614,76.638 87.062,71.772 88.2,69.119 89.78,69.814 89.59,69.562 89.463,69.309 89.4,68.993 89.273,68.741 
	89.211,68.424 89.147,68.172 89.147,67.919 89.147,67.603 89.084,67.35 89.147,67.098 89.147,66.782 89.211,66.529 89.273,66.276 
	89.337,65.96 89.4,65.707 89.526,65.455 89.716,65.013 90.032,64.57 90.159,64.381 90.285,64.191 90.474,64.002 90.601,63.876 
	90.917,63.559 91.296,63.37 91.485,63.244 91.611,63.18 91.801,63.117 91.991,63.054 92.306,62.991 92.686,62.991 93.001,62.991 
	93.38,63.054 93.823,63.18 94.265,63.306 94.77,63.497 95.339,63.749 "/>
<polygon fill-rule="evenodd" clip-rule="evenodd" fill="#E8262B" points="105.448,61.411 93.38,58.062 95.339,55.409 
	101.341,57.304 103.3,57.999 103.11,57.684 102.921,57.431 102.795,57.241 102.668,57.115 102.542,56.925 102.416,56.672 
	102.225,56.483 102.1,56.231 98.751,50.797 100.646,48.206 107.091,59.137 "/>
<path fill-rule="evenodd" clip-rule="evenodd" fill="#E8262B" d="M103.364,41.699l0.505,0.507l-0.505,0.505V41.699z M103.364,46.059
	v-1.011l1.642-1.769l8.277,8.277l-2.149,2.274L103.364,46.059z M101.72,44.416l-2.021-2.021l2.085-2.212l1.58,1.516v1.012
	L101.72,44.416z M103.364,45.048v1.011l-0.507-0.506L103.364,45.048z"/>
<polygon fill-rule="evenodd" clip-rule="evenodd" fill="#E8262B" points="115.683,49.344 105.448,36.834 107.786,34.812 
	118.021,47.385 "/>
<polygon fill-rule="evenodd" clip-rule="evenodd" fill="#E8262B" points="120.422,45.427 111.513,31.781 114.041,30.074 
	122.949,43.658 "/>
<path fill-rule="evenodd" clip-rule="evenodd" fill="#E8262B" d="M129.519,35.065c0.99-0.316,1.98-0.632,2.97-0.948
	c0.385,2.125-0.708,4.433-2.653,5.402c-1.011,0.504-1.969,0.916-3.115,0.916c-0.801,0-0.676-0.137-0.676-0.908
	c0-0.729,0-1.458,0-2.187C127.863,38.622,130.01,37.163,129.519,35.065z M126.045,28.052c0,0.52,0,1.041,0,1.561
	c0,0.296,0,0.592,0,0.889c0,0.133,0.311,0.098,0.441,0.142c0.897,0.304,1.277,0.811,1.77,1.579c-0.731,0.397-1.462,0.793-2.193,1.19
	c-0.192,0.104-0.018,1.869-0.018,2.158c1.219-0.656,2.438-1.313,3.657-1.97c0.618-0.333,1.236-0.666,1.854-0.998
	c0.396-0.213,0.018-0.686-0.19-1.031C130.155,29.558,128.507,28.052,126.045,28.052z M126.045,40.373
	c-1.773,0.038-3.445-2.058-4.17-3.474c-0.432-0.843-0.685-1.777-0.869-2.699c-0.196-0.984,0.096-1.803,0.332-2.735
	c0.378-1.494,2.119-2.76,3.506-3.16c0.131-0.038,1.201-0.267,1.201-0.232c0,0.691,0,1.383,0,2.074c0,0.667-0.215,0.29-0.698,0.53
	c-0.437,0.217-0.782,0.376-1.071,0.787c-0.715,1.015-0.45,1.887-0.064,2.97c0.611-0.337,1.222-0.674,1.833-1.011
	c0,0.616,0,1.231,0,1.847c0,0.522-0.582,0.628-1.011,0.87c0.217,0.268,1.011,1.053,1.011,1.342
	C126.045,38.445,126.045,39.409,126.045,40.373z"/>
<polygon fill-rule="evenodd" clip-rule="evenodd" fill="#E8262B" points="142.092,33.612 138.554,17.627 150.054,14.911 
	150.686,17.627 142.282,19.586 143.041,23.125 150.875,21.292 151.506,23.945 143.672,25.841 144.619,30.138 153.339,28.115 
	153.971,30.77 "/>
<polygon fill-rule="evenodd" clip-rule="evenodd" fill="#E8262B" points="155.55,26.851 158.582,26.22 158.646,26.472 
	158.71,26.662 158.835,26.851 158.898,27.041 159.024,27.168 159.151,27.358 159.278,27.484 159.404,27.61 159.593,27.673 
	159.783,27.799 159.973,27.862 160.163,27.926 160.415,27.988 160.604,27.988 160.856,27.988 161.11,27.988 161.426,27.988 
	161.679,27.926 161.931,27.862 162.184,27.799 162.373,27.736 162.562,27.673 162.753,27.547 162.88,27.42 162.941,27.358 
	163.069,27.294 163.131,27.168 163.195,27.041 163.195,26.979 163.258,26.851 163.258,26.725 163.258,26.598 163.258,26.409 
	163.195,26.283 163.131,26.094 163.005,25.968 162.815,25.904 162.627,25.84 162.311,25.715 161.931,25.651 161.047,25.461 
	160.289,25.335 159.531,25.146 158.898,25.02 158.33,24.831 157.888,24.704 157.509,24.514 157.194,24.388 156.877,24.135 
	156.561,23.882 156.434,23.756 156.308,23.566 156.246,23.441 156.119,23.25 156.055,23.124 155.929,22.934 155.866,22.745 
	155.803,22.555 155.74,22.176 155.74,21.734 155.74,21.418 155.74,21.039 155.803,20.661 155.929,20.344 156.055,20.028 
	156.308,19.713 156.498,19.396 156.751,19.081 156.877,18.954 157.065,18.828 157.256,18.764 157.383,18.638 157.824,18.385 
	158.203,18.259 158.71,18.132 159.214,18.006 159.783,17.943 160.415,17.88 160.921,17.88 161.49,17.88 161.994,17.88 
	162.437,17.943 162.88,18.07 163.258,18.196 163.637,18.323 163.953,18.512 164.206,18.702 164.521,18.891 164.711,19.143 
	164.964,19.396 165.153,19.713 165.342,20.028 165.533,20.407 165.658,20.723 162.815,21.418 162.753,21.291 162.689,21.102 
	162.562,20.976 162.501,20.85 162.373,20.723 162.248,20.597 162.184,20.533 162.058,20.407 161.868,20.344 161.741,20.281 
	161.552,20.218 161.363,20.218 161.173,20.154 160.983,20.154 160.794,20.092 160.541,20.154 159.973,20.218 159.531,20.281 
	159.278,20.344 159.151,20.407 158.962,20.471 158.835,20.533 158.71,20.723 158.582,20.85 158.52,21.039 158.52,21.229 
	158.52,21.355 158.582,21.544 158.71,21.671 158.835,21.734 158.962,21.861 159.214,21.923 159.467,21.987 159.783,22.113 
	160.604,22.302 161.741,22.492 162.311,22.619 162.88,22.745 163.384,22.871 163.826,23.06 164.27,23.188 164.586,23.377 
	164.964,23.503 165.217,23.756 165.469,23.945 165.658,24.135 165.786,24.388 165.911,24.704 166.039,24.956 166.102,25.272 
	166.228,25.651 166.228,25.968 166.228,26.409 166.164,26.788 166.102,27.168 165.975,27.547 165.786,27.862 165.658,28.242 
	165.406,28.557 165.091,28.874 164.964,29 164.774,29.189 164.586,29.316 164.395,29.442 163.953,29.631 163.512,29.821 
	163.005,30.011 162.437,30.074 161.868,30.2 161.237,30.264 160.668,30.264 160.1,30.264 159.593,30.2 159.088,30.074 
	158.646,30.011 158.203,29.885 157.824,29.631 157.445,29.442 157.13,29.189 156.812,28.937 156.498,28.684 156.308,28.367 
	156.055,28.052 155.803,27.673 155.676,27.294 "/>
<path fill-rule="evenodd" clip-rule="evenodd" fill="#E8262B" d="M175.261,17.944l0.189-0.064h0.255l0.314-0.063h0.253h0.253
	l0.315,0.063h0.254l0.253,0.064l0.188,0.062l0.254,0.064l0.189,0.126l0.253,0.063l0.188,0.126l0.253,0.127l0.189,0.126l0.127,0.127
	l0.253,0.19l0.125,0.126l0.38,0.379l0.317,0.442l0.125,0.19l0.125,0.252l0.128,0.253l0.127,0.253l0.062,0.253l0.127,0.252v0.316
	l0.127,0.252v0.317l0.062,0.315v0.317l0.064,0.316l-0.064,0.694l-0.062,0.632l-0.127,0.758l-0.062,0.632l-0.126,0.317l-0.127,0.315
	l-0.062,0.315l-0.127,0.253l-0.128,0.317l-0.125,0.189l-0.188,0.252l-0.127,0.253l-0.189,0.253l-0.191,0.19l-0.125,0.19
	l-0.189,0.189l-0.441,0.379l-0.443,0.253l-0.189,0.126l-0.188,0.126l-0.253,0.064l-0.189,0.063l-0.253,0.126h-0.255l-0.189,0.064
	l-0.252,0.062h-0.253h-0.188h-0.253h-0.252l-0.129-0.062V27.61h0.189l0.191-0.063l0.253-0.063l0.253-0.063l0.188-0.127l0.252-0.19
	l0.189-0.125l0.19-0.254l0.189-0.253l0.128-0.251l0.189-0.381l0.062-0.315l0.127-0.443l0.064-0.441l0.062-0.443l0.064-0.442v-0.443
	v-0.379l-0.064-0.379v-0.379l-0.127-0.315l-0.127-0.253l-0.126-0.253l-0.188-0.252l-0.127-0.19l-0.189-0.189l-0.253-0.127
	l-0.189-0.19l-0.253-0.063l-0.19-0.062l-0.314-0.063h-0.255h-0.189V17.944z M170.398,17.312l2.841,0.379l-0.189,1.705l0.129-0.189
	l0.188-0.19l0.189-0.189l0.252-0.126l0.188-0.19l0.192-0.127l0.252-0.126l0.253-0.126l0.253-0.063l0.253-0.126h0.061v2.274H175.2
	h-0.253l-0.253,0.063l-0.253,0.126l-0.191,0.126l-0.253,0.128l-0.188,0.189l-0.252,0.253l-0.189,0.189l-0.128,0.316l-0.125,0.315
	l-0.127,0.317l-0.126,0.379l-0.063,0.379l-0.063,0.379l-0.062,0.505v0.442v0.443l0.062,0.379l0.063,0.379l0.063,0.315l0.126,0.317
	l0.191,0.252l0.125,0.253l0.188,0.189l0.191,0.253l0.253,0.127l0.188,0.127l0.253,0.126l0.252,0.063l0.253,0.063h0.317h0.061v2.528
	h-0.125l-0.253-0.064l-0.188-0.063l-0.253-0.062l-0.191-0.063l-0.188-0.126l-0.189-0.064l-0.188-0.126l-0.191-0.127l-0.188-0.126
	l-0.189-0.19l-0.127-0.189l-0.378-0.442l-0.378-0.443l-0.697,5.939l-3.033-0.379L170.398,17.312z"/>
<path fill-rule="evenodd" clip-rule="evenodd" fill="#E8262B" d="M188.783,20.218L188.783,20.218
	c3.854-0.204,6.472,3.501,5.939,7.076c-0.278,1.869-1.263,3.029-2.542,4.311c-0.539,0.541-1.77,0.916-2.513,0.997
	c-0.385,0.042-0.885,0.16-0.885-0.27c0-0.721,0-1.442,0-2.163c0-0.272,0.622-0.247,0.881-0.378c0.354-0.179,0.747-0.429,1.015-0.728
	c0.624-0.696,0.814-1.736,0.964-2.625c0.18-1.076-0.16-1.763-0.614-2.681c-0.3-0.606-1.624-1.195-2.245-0.949
	C188.783,21.945,188.783,21.081,188.783,20.218z M183.034,24.956c0.218-1.948,1.747-3.551,3.415-4.393
	c0.394-0.199,0.866-0.226,1.295-0.298c0.257-0.043,0.499-0.047,0.759-0.047c0.369,0,0.28,0.055,0.28,0.405c0,0.676,0,1.352,0,2.028
	c0,0.291-0.805,0.287-1.071,0.488c-0.859,0.647-1.259,1.197-1.582,2.26c-0.276,0.907-0.345,1.999,0,2.906
	c0.268,0.704,0.962,1.445,1.724,1.596c0.268,0.053,0.93,0.008,0.93,0.268c0,0.721,0,1.442,0,2.163c0,0.646-1.862,0.002-2.277-0.206
	c-0.848-0.426-1.67-0.835-2.336-1.547C182.796,29.112,182.562,26.833,183.034,24.956z"/>
<polygon fill-rule="evenodd" clip-rule="evenodd" fill="#E8262B" points="198.261,35.95 195.417,34.749 199.902,23.882 
	202.557,24.956 201.925,26.536 202.432,26.157 202.937,25.904 203.125,25.778 203.314,25.715 203.567,25.651 203.692,25.588 
	203.884,25.588 204.072,25.588 204.261,25.588 204.39,25.588 204.705,25.651 205.083,25.778 205.336,25.904 205.525,26.031 
	205.778,26.157 205.967,26.346 206.158,26.536 206.348,26.725 206.536,26.915 206.726,27.104 204.768,29.253 204.515,28.937 
	204.261,28.621 204.136,28.495 203.945,28.431 203.82,28.305 203.692,28.242 203.378,28.115 203.062,28.052 202.937,28.052 
	202.81,28.052 202.685,28.052 202.557,28.115 202.367,28.179 202.24,28.242 202.114,28.305 201.987,28.431 201.671,28.684 
	201.356,29.063 201.229,29.316 201.04,29.569 200.852,29.947 200.66,30.327 200.157,31.337 199.651,32.601 "/>
<polygon fill-rule="evenodd" clip-rule="evenodd" fill="#E8262B" points="213.676,30.643 212.54,32.854 210.707,31.78 
	208.431,35.95 208.116,36.582 207.927,37.023 207.8,37.276 207.675,37.529 207.675,37.655 207.675,37.782 207.735,37.845 
	207.735,37.972 207.8,38.098 207.927,38.224 207.988,38.287 208.116,38.351 208.369,38.477 208.622,38.541 208.938,38.666 
	209.315,38.73 208.431,41.004 208.116,40.942 207.863,40.878 207.547,40.814 207.295,40.752 206.979,40.625 206.664,40.499 
	206.411,40.372 206.095,40.182 205.777,39.993 205.462,39.741 205.147,39.488 204.895,39.171 204.706,38.919 204.578,38.666 
	204.453,38.351 204.453,38.098 204.389,37.782 204.453,37.466 204.515,37.151 204.642,36.771 204.767,36.455 204.959,36.013 
	205.209,35.507 205.589,34.813 207.988,30.264 206.789,29.569 207.988,27.42 209.19,28.052 210.329,26.03 213.864,25.968 
	211.907,29.631 "/>
<path fill-rule="evenodd" clip-rule="evenodd" fill="#E8262B" d="M217.846,43.658l1.896,1.833l-0.378,0.252l-0.38,0.253
	l-0.378,0.127l-0.382,0.189l-0.315,0.126h-0.062V43.658z M217.846,34.118v2.653h0.189h0.188l0.254,0.064l0.19,0.064l0.253,0.125
	l0.189,0.127l0.188,0.125l0.189,0.191l0.128,0.189l0.125,0.19l0.063,0.189l0.125,0.19l0.063,0.19v0.251l0.064,0.253v0.253
	l-0.064,0.254l-0.063,0.252l-0.062,0.253l-0.127,0.252l-0.125,0.316l-0.192,0.253l-1.578-1.074v2.338l3.033,2.148l0.253-0.38
	l0.189-0.379l0.252-0.316l0.188-0.378l0.128-0.316l0.189-0.379l0.125-0.317l0.128-0.315l0.127-0.316l0.062-0.316l0.062-0.316
	l0.064-0.316l0.062-0.315v-0.317v-0.316v-0.253l-0.062-0.315l-0.064-0.253l-0.062-0.252l-0.062-0.317l-0.127-0.253l-0.128-0.253
	l-0.125-0.252l-0.127-0.253l-0.126-0.189l-0.189-0.253l-0.188-0.252l-0.191-0.19l-0.253-0.189l-0.188-0.253l-0.252-0.19
	l-0.253-0.189l-0.253-0.126l-0.253-0.191l-0.253-0.126l-0.188-0.063l-0.253-0.126l-0.253-0.126l-0.252-0.064l-0.253-0.062h-0.254
	L217.846,34.118z M217.53,43.279l0.315,0.379v2.78l-0.315,0.064l-0.38,0.062h-0.378h-0.444l-0.378-0.062l-0.378-0.127l-0.38-0.126
	l-0.378-0.126l-0.38-0.191l-0.442-0.252l-0.316-0.253l-0.316-0.253l-0.314-0.189l-0.253-0.252l-0.253-0.254l-0.19-0.253
	l-0.253-0.251l-0.188-0.253l-0.128-0.253l-0.189-0.254l-0.125-0.315l-0.063-0.253l-0.125-0.315l-0.064-0.254l-0.062-0.315v-0.317
	v-0.315v-0.505v-0.443l0.127-0.568l0.188-0.443l0.125-0.506l0.253-0.504l0.253-0.506l0.381-0.505l0.188-0.316l0.191-0.317
	l0.251-0.189l0.19-0.252l0.252-0.253l0.189-0.253l0.253-0.19l0.253-0.189l0.189-0.19l0.252-0.126l0.253-0.127l0.253-0.189
	l0.253-0.063l0.252-0.127l0.316-0.062l0.254-0.064l0.252-0.062l0.253-0.064h0.253l0.315-0.063l0.253,0.063h0.252v2.653h-0.062
	h-0.189l-0.253,0.064h-0.19l-0.253,0.126l-0.25,0.127l-0.191,0.126l-0.188,0.189l-0.19,0.253l-0.191,0.19l-0.188,0.253l2.148,1.579
	v2.338l-3.284-2.401l-0.191,0.316l-0.125,0.252l-0.128,0.316l-0.063,0.253l-0.062,0.316l-0.064,0.253v0.252l0.064,0.316v0.189
	l0.062,0.254l0.127,0.253l0.125,0.189l0.129,0.189l0.127,0.252l0.188,0.127l0.253,0.19l0.125,0.126l0.128,0.064l0.189,0.062
	l0.127,0.064h0.125l0.188,0.063h0.128h0.189l0.125-0.063h0.191l0.188-0.064l0.128-0.062l0.189-0.064l0.125-0.126l0.19-0.127
	L217.53,43.279z"/>
<polygon fill-rule="evenodd" clip-rule="evenodd" fill="#E8262B" points="234.462,59.895 235.473,63.118 234.906,63.307 
	234.272,63.497 233.704,63.623 233.073,63.623 232.817,63.686 232.567,63.686 232.251,63.686 231.999,63.623 231.746,63.623 
	231.493,63.559 231.241,63.497 230.924,63.433 230.671,63.37 230.481,63.244 230.229,63.18 229.977,63.054 229.535,62.739 
	229.091,62.422 228.649,62.107 228.208,61.664 227.828,61.222 227.45,60.716 227.197,60.338 227.008,60.021 226.819,59.706 
	226.628,59.326 226.503,59.01 226.375,58.632 226.25,58.315 226.186,58 226.123,57.621 226.059,57.242 225.997,56.862 
	225.997,56.546 225.997,56.168 225.997,55.788 226.059,55.409 226.123,55.031 226.186,54.652 226.312,54.335 226.375,53.956 
	226.563,53.577 226.691,53.261 226.881,52.882 227.072,52.566 227.261,52.187 227.513,51.871 227.766,51.556 228.017,51.239 
	228.333,50.986 228.649,50.671 228.966,50.355 229.346,50.039 229.66,49.786 230.102,49.47 230.481,49.217 230.924,48.965 
	231.304,48.776 231.682,48.523 232.062,48.333 232.439,48.207 232.884,48.08 233.262,47.954 233.64,47.827 234.02,47.765 
	234.4,47.701 234.779,47.701 235.159,47.701 235.537,47.701 235.915,47.765 236.295,47.765 236.673,47.891 236.989,47.954 
	237.369,48.08 237.686,48.207 238,48.333 238.38,48.523 238.633,48.712 238.947,48.902 239.264,49.155 239.58,49.408 239.833,49.66 
	240.086,49.913 240.338,50.228 240.655,50.545 240.907,50.86 241.096,51.176 241.285,51.492 241.476,51.808 241.602,52.124 
	241.791,52.44 241.918,52.755 241.981,53.008 242.106,53.325 242.171,53.641 242.232,53.956 242.296,54.272 242.296,54.588 
	242.359,54.904 242.359,55.22 242.296,55.535 242.296,55.852 242.232,56.231 242.171,56.672 241.981,57.051 241.854,57.432 
	241.665,57.811 241.413,58.189 241.16,58.632 240.907,59.01 238.38,56.799 238.569,56.546 238.758,56.294 238.885,56.041 
	239.011,55.788 239.138,55.535 239.2,55.22 239.264,54.967 239.264,54.652 239.264,54.335 239.264,54.083 239.2,53.766 
	239.138,53.514 239.011,53.198 238.885,52.945 238.758,52.693 238.569,52.44 238.315,52.061 238,51.744 237.686,51.492 
	237.369,51.303 236.989,51.113 236.61,50.986 236.23,50.86 235.853,50.797 235.598,50.797 235.411,50.797 235.159,50.797 
	234.967,50.86 234.715,50.86 234.462,50.986 234.272,51.05 234.02,51.113 233.515,51.365 232.946,51.618 232.439,51.997 
	231.873,52.376 231.241,52.819 230.734,53.261 230.291,53.703 229.913,54.145 229.724,54.398 229.597,54.588 229.472,54.841 
	229.346,55.031 229.219,55.22 229.155,55.473 229.091,55.662 229.03,55.852 228.901,56.294 228.901,56.736 228.901,57.115 
	228.966,57.494 229.091,57.873 229.219,58.252 229.408,58.632 229.66,59.01 229.849,59.263 230.038,59.516 230.291,59.706 
	230.481,59.895 230.734,60.021 231.052,60.148 231.304,60.274 231.619,60.338 231.935,60.4 232.251,60.4 232.567,60.4 
	232.884,60.338 233.262,60.274 233.64,60.211 234.02,60.085 "/>
<polygon fill-rule="evenodd" clip-rule="evenodd" fill="#E8262B" points="232.377,68.866 247.035,62.422 248.235,65.328 
	233.578,71.772 "/>
<polygon fill-rule="evenodd" clip-rule="evenodd" fill="#E8262B" points="237.116,82.135 238.821,81.63 238.506,81.566 
	238.255,81.439 237.999,81.313 237.811,81.187 237.559,80.998 237.369,80.871 237.116,80.681 236.928,80.429 236.736,80.24 
	236.548,79.987 236.358,79.797 236.231,79.544 236.105,79.229 235.979,78.976 235.914,78.723 235.789,78.471 235.726,78.154 
	235.663,77.902 235.663,77.586 235.599,77.333 235.599,77.081 235.663,76.764 235.663,76.512 235.726,76.259 235.789,76.006 
	235.853,75.754 235.979,75.501 236.105,75.312 236.231,75.059 236.358,74.869 236.548,74.68 236.736,74.553 236.928,74.364 
	237.181,74.175 237.433,74.048 237.686,73.858 237.999,73.796 238.316,73.605 238.696,73.479 239.074,73.353 246.087,71.331 
	246.908,74.301 241.854,75.816 240.781,76.132 239.96,76.449 239.644,76.575 239.392,76.638 239.139,76.764 239.011,76.828 
	238.821,77.017 238.633,77.207 238.441,77.46 238.38,77.713 238.255,77.965 238.255,78.281 238.255,78.597 238.38,78.912 
	238.441,79.103 238.506,79.291 238.569,79.418 238.696,79.608 238.759,79.797 238.886,79.923 239.011,80.049 239.139,80.176 
	239.327,80.302 239.454,80.366 239.579,80.492 239.769,80.555 239.896,80.619 240.085,80.681 240.274,80.681 240.401,80.681 
	240.591,80.681 240.844,80.681 241.159,80.619 241.537,80.555 242.359,80.366 243.495,80.049 248.173,78.66 248.993,81.63 
	237.937,84.979 "/>
<path fill-rule="evenodd" clip-rule="evenodd" fill="#E8262B" d="M245.139,86.81l8.974-1.642l0.566,3.095l-5.685,1.075l0.441,0.252
	l0.38,0.317l0.189,0.189l0.125,0.19l0.191,0.189l0.125,0.19l0.128,0.189l0.125,0.189l0.128,0.254l0.062,0.189l0.126,0.19
	l0.063,0.252l0.063,0.253v0.253l0.125,0.505v0.506v0.252l-0.062,0.253l-0.062,0.253v0.252l-0.063,0.189l-0.063,0.253l-0.126,0.19
	l-0.062,0.253l-0.128,0.189l-0.125,0.253l-0.128,0.19l-0.188,0.252l-0.128,0.189l-0.189,0.191l-0.188,0.189l-0.191,0.19l-0.25,0.126
	l-0.191,0.19l-0.25,0.125l-0.255,0.19l-0.251,0.127l-0.255,0.126l-0.314,0.126l-0.316,0.063l-0.568,0.19l-0.695,0.126l-0.758,0.127
	l-0.317,0.064V95.34l0.317-0.064l0.506-0.126l0.441-0.127l0.378-0.126l0.38-0.126l0.316-0.189l0.252-0.127l0.254-0.252l0.188-0.19
	l0.191-0.253l0.126-0.189l0.125-0.253l0.063-0.253l0.063-0.252V92.56v-0.254v-0.315l-0.063-0.253l-0.063-0.252l-0.125-0.253
	l-0.126-0.19l-0.191-0.189l-0.188-0.189l-0.189-0.19l-0.253-0.127l-0.255-0.189l-0.25-0.063l-0.316-0.127h-0.316l-0.378-0.062
	l-0.316,0.062h-0.442l-0.128,0.064V86.81z M238.38,88.074l6.759-1.264v3.223h-0.252l-0.441,0.063l-0.38,0.126l-0.379,0.126
	l-0.315,0.127l-0.317,0.126l-0.252,0.19l-0.253,0.125l-0.188,0.19l-0.254,0.253l-0.188,0.253l-0.189,0.253l-0.127,0.316
	l-0.063,0.315l-0.062,0.317v0.315l0.062,0.317l0.063,0.252l0.063,0.253l0.126,0.189l0.127,0.19l0.125,0.253l0.188,0.126l0.256,0.189
	l0.188,0.126l0.253,0.127l0.316,0.126l0.316,0.064h0.314l0.378,0.062l0.38-0.062h0.38h0.125v3.223h-0.315h-0.378h-0.316h-0.253
	l-0.314-0.064l-0.316-0.064h-0.252l-0.317-0.126l-0.253-0.063l-0.252-0.063l-0.253-0.127l-0.253-0.126l-0.189-0.127l-0.255-0.126
	l-0.186-0.189l-0.191-0.126l-0.188-0.191l-0.189-0.188l-0.191-0.19l-0.125-0.127l-0.128-0.253l-0.126-0.189l-0.127-0.19
	l-0.125-0.252l-0.063-0.189l-0.125-0.253l-0.064-0.253l-0.063-0.19l-0.064-0.253v-0.252v-0.253v-0.253v-0.252v-0.316l0.064-0.19
	l0.063-0.315l0.064-0.253l0.061-0.254l0.128-0.251l0.063-0.253l0.188-0.253l0.126-0.252l0.191-0.191l0.125-0.252l0.253-0.253
	l-1.706,0.315L238.38,88.074z"/>
<path fill-rule="evenodd" clip-rule="evenodd" fill="#E8262B" d="M248.425,101.722l0.188,0.062l0.317,0.127l0.252,0.062l0.253,0.127
	l0.253,0.189l0.252,0.126l0.189,0.19l0.253,0.188l0.19,0.19l0.189,0.189l0.189,0.188l0.128,0.19l0.188,0.253l0.125,0.189
	l0.128,0.253l0.127,0.253l0.125,0.251l0.064,0.254l0.063,0.189l0.062,0.316l0.063,0.253l0.064,0.252v0.315l0.061,0.253v0.316
	l-0.061,0.316v0.315l-0.064,0.316v0.252l-0.125,0.316l-0.063,0.315l-0.064,0.253l-0.125,0.252l-0.127,0.253l-0.128,0.253
	l-0.125,0.252l-0.126,0.253l-0.19,0.19l-0.189,0.189l-0.189,0.189l-0.19,0.19l-0.253,0.188l-0.252,0.189l-0.251,0.189l-0.252,0.127
	l-0.255,0.126l-0.315,0.126l-0.316,0.063l-0.063,0.063v-2.97l0.063-0.062l0.189-0.126l0.19-0.127l0.189-0.127l0.189-0.189
	l0.128-0.189l0.125-0.189l0.061-0.189l0.128-0.189l0.064-0.253v-0.189l0.062-0.252l-0.062-0.253v-0.19l-0.064-0.253l-0.062-0.253
	l-0.127-0.188l-0.125-0.19l-0.128-0.188l-0.189-0.19l-0.189-0.126l-0.19-0.189l-0.189-0.125h-0.063V101.722z M243.939,109.112
	l-0.568,3.096l-0.379-0.189l-0.38-0.126l-0.38-0.253l-0.314-0.189l-0.316-0.315l-0.253-0.253l-0.252-0.315l-0.253-0.317
	l-0.189-0.314l-0.188-0.379l-0.128-0.379l-0.125-0.38l-0.064-0.442l-0.062-0.442l-0.064-0.442v-0.441v-0.38l0.064-0.38l0.062-0.378
	l0.064-0.316l0.062-0.379l0.063-0.314l0.128-0.255l0.125-0.315l0.125-0.252l0.128-0.253l0.19-0.253l0.188-0.252l0.191-0.253
	l0.188-0.189l0.253-0.19l0.252-0.253l0.38-0.189l0.442-0.253l0.442-0.189l0.505-0.188l0.506-0.126l0.505-0.064l0.569-0.062h0.631
	h0.38l0.313,0.062h0.317l0.316,0.064l0.316,0.063l0.316,0.063l0.316,0.062l0.062,0.064v3.159l-0.189-0.064l-0.253-0.064
	l-0.315-0.062h-0.253l-0.316-0.063l-0.062,4.739l0.314-0.062h0.316l0.253-0.064l0.315-0.062l0.189-0.064v2.97l-0.253,0.062
	l-0.316,0.063l-0.378,0.064l-0.315,0.062l-0.382,0.062h-0.44h-0.378l-0.38,0.063l-0.442-0.063l0.127-7.834h-0.38l-0.316,0.062
	l-0.253,0.063l-0.313,0.062l-0.253,0.064l-0.189,0.126l-0.252,0.19l-0.192,0.127l-0.188,0.188l-0.127,0.19l-0.189,0.252
	l-0.063,0.188l-0.125,0.253l-0.064,0.253v0.19v0.315v0.127v0.252v0.127l0.064,0.189l0.062,0.126l0.062,0.126l0.063,0.189
	l0.064,0.127l0.125,0.126l0.127,0.063l0.126,0.126l0.127,0.127l0.189,0.062l0.19,0.064l0.189,0.126L243.939,109.112z"/>
<polygon fill-rule="evenodd" clip-rule="evenodd" fill="#2C2925" points="89.337,137.354 89.78,137.291 90.221,137.229 
	90.601,137.102 91.043,136.976 91.422,136.786 91.801,136.597 92.117,136.344 92.433,136.027 92.686,135.712 93.001,135.333 
	93.191,135.017 93.38,134.638 93.507,134.195 93.633,133.816 93.697,133.374 93.697,132.932 93.697,132.489 93.633,131.983 
	93.507,131.604 93.38,131.162 93.191,130.782 93.001,130.403 92.686,130.089 92.433,129.772 92.117,129.457 91.801,129.267 
	91.422,129.014 91.043,128.824 90.601,128.698 90.221,128.572 89.78,128.51 89.337,128.445 88.832,128.51 88.39,128.572 
	88.01,128.698 87.568,128.824 87.189,129.014 86.81,129.267 86.493,129.457 86.178,129.772 85.925,130.089 85.609,130.403 
	85.42,130.782 85.23,131.162 85.103,131.604 84.977,131.983 84.914,132.489 84.914,132.932 84.914,133.374 84.977,133.816 
	85.103,134.195 85.23,134.638 85.42,135.017 85.609,135.333 85.925,135.712 86.178,136.027 86.493,136.344 86.81,136.597 
	87.189,136.786 87.568,136.976 88.01,137.102 88.39,137.229 88.832,137.291 "/>
<polygon fill-rule="evenodd" clip-rule="evenodd" fill="#2C2925" points="241.791,137.354 242.232,137.291 242.676,137.229 
	243.117,137.102 243.562,136.976 243.939,136.786 244.317,136.597 244.634,136.344 244.95,136.027 245.267,135.712 245.456,135.333 
	245.709,135.017 245.897,134.638 246.024,134.195 246.15,133.816 246.215,133.374 246.277,132.932 246.215,132.489 246.15,131.983 
	246.024,131.604 245.897,131.162 245.709,130.782 245.456,130.403 245.267,130.089 244.95,129.772 244.634,129.457 244.317,129.267 
	243.939,129.014 243.562,128.824 243.117,128.698 242.676,128.572 242.232,128.51 241.791,128.445 241.349,128.51 240.907,128.572 
	240.526,128.698 240.086,128.824 239.708,129.014 239.391,129.267 239.011,129.457 238.696,129.772 238.38,130.089 238.128,130.403 
	237.937,130.782 237.748,131.162 237.559,131.604 237.495,131.983 237.433,132.489 237.368,132.932 237.433,133.374 
	237.495,133.816 237.559,134.195 237.748,134.638 237.937,135.017 238.128,135.333 238.38,135.712 238.696,136.027 239.011,136.344 
	239.391,136.597 239.708,136.786 240.086,136.976 240.526,137.102 240.907,137.229 241.349,137.291 "/>
<g>
	<path fill-rule="evenodd" clip-rule="evenodd" fill="#ED1C24" d="M226.818,170.019c0-0.485,0-0.97,0-1.455c0-0.334,0-0.668,0-1.003
		c0-0.392,0.114-0.199,0.466-0.385c0.883-0.468,1.423-1.664,1.104-2.621c-0.237-0.716-0.86-1.28-1.381-1.801
		c-0.078,0.096-0.141,0.2-0.189,0.314c0-1.538,0-3.075,0-4.613c2.158,1.743,3.652,4.843,6.38,5.75
		c-0.473,0.445-0.945,0.891-1.418,1.336c-0.228,0.214-0.455,0.429-0.683,0.644c-0.188,0.177-0.873-0.589-1.121-0.589
		C229.801,167.524,228.749,169.378,226.818,170.019 M226.818,158.455c0,1.418,0,2.835,0,4.253c0,0.865-0.881,1.625-1.311,2.346
		c-0.269,0.45-0.484,0.906-0.283,1.441c0.202,0.536,1.024,1.084,1.594,0.808c0,0.485,0,0.97,0,1.455c0,0.334,0,0.668,0,1.003
		c0,0.401-0.224,0.32-0.632,0.365c-2.761,0.304-4.231-2.681-3.005-4.907c0.618-1.122,1.48-2.087,2.147-3.18
		c0.184-0.302,0.438-0.562,0.21-0.864c-0.266-0.351-0.737-0.633-1.186-0.633c-0.891,0-1.785,1.086-2.085,1.831
		c-0.062,0.367,0.33,1.21,0.123,1.353c-0.23,0.16-0.462,0.319-0.693,0.479c0-1.38,0-2.76,0-4.141c0-0.195,0-0.392,0-0.587
		c0-0.3,1.238-1.028,1.498-1.188C224.402,157.541,225.725,157.55,226.818,158.455 M221.698,173.937
		c0.675-0.484,1.35-0.97,2.024-1.454c-0.675-0.927-1.35-1.854-2.024-2.78C221.698,171.113,221.698,172.525,221.698,173.937z
		 M221.698,159.467c0,1.228,0,2.454,0,3.682c0,0.138,0.101,0.991-0.021,1.07c-0.477,0.312-0.954,0.622-1.431,0.934
		c-0.508-1.013-0.798-2.212-0.359-3.302C220.091,161.345,221.089,159.467,221.698,159.467 M221.698,169.702
		c-1.009-1.388-1.956-2.904-3.142-4.149c-1.132-1.189-2.952-1.027-4.244-0.2c-1.363,0.874-2.025,2.247-2.089,3.845
		c-0.315-0.442-0.632-0.886-0.947-1.328c-0.616,0.223-0.253,2.581-0.253,3.113c0,0.932-0.035,1.136,0.488,1.855
		c1.354,1.861,2.707,3.723,4.061,5.584c0.677-0.494,1.353-0.988,2.028-1.481c0.524-0.383-0.037-0.705-0.378-1.18
		c-1.124-1.563-2.818-3.346-3.5-5.158c-0.634-1.687,1.068-3.763,2.797-2.733c0.778,0.472,1.285,1.457,1.82,2.184
		c1.015,1.379,2.03,2.757,3.045,4.136c0.601-0.256,0.313-1.468,0.313-1.975C221.698,171.377,221.698,170.539,221.698,169.702z
		 M211.023,180.822c0-1.579,0-3.159,0-4.738c0.551,1.031,1.102,2.062,1.652,3.093c0.211,0.396,0.44,0.498,0.031,0.723
		C212.146,180.207,211.585,180.515,211.023,180.822z M211.023,168.061c0,1.369,0,2.737,0,4.106c-0.653-0.906-1.307-1.812-1.96-2.718
		C209.717,168.986,210.37,168.523,211.023,168.061z M211.023,176.084c-1.064-2.002-2.129-4.005-3.192-6.007
		c-0.013-0.024-2.431,0.993-2.431,1.273c0,0.751,0.58,1.468,0.925,2.118c1.309,2.469,2.617,4.938,3.926,7.406
		c0.193,0.365,0.206,0.23,0.608,0.029c0.325-0.163,0.164-0.809,0.164-1.139C211.023,178.538,211.023,177.312,211.023,176.084z
		 M205.4,183.792c-0.009-0.146,0-0.296,0-0.442C205.523,183.524,205.562,183.695,205.4,183.792z M205.4,169.576
		c0-0.516,0-1.032,0-1.548c0-0.312-0.176-1.282,0-1.548c0.409-0.618,0.727,0.353,0.852,0.591c0.285,0.54,0.569,1.08,0.854,1.62
		C206.537,168.986,205.969,169.281,205.4,169.576z M205.4,166.48c0,0.819,0,1.64,0,2.459c0,0.257,0.106,0.583-0.139,0.706
		c-0.239,0.119-0.67,0.516-0.824,0.231c-0.112-0.209-1.21-2.184-1.17-2.206C203.979,167.274,204.689,166.877,205.4,166.48z
		 M205.4,171.281c0.011,0.146,0,0.297,0,0.443c-0.08-0.095-0.145-0.264-0.192-0.379C205.272,171.324,205.336,171.303,205.4,171.281z
		 M205.4,183.35c0.187,0.812-1.914,1.304-2.528,1.58c-0.957-2.162-1.914-4.325-2.871-6.487c-0.354-0.799-0.288-1.427-0.288-2.323
		c0-0.604,0-1.208,0-1.812c0-0.196,0.944-0.527,1.139-0.624c0.21,0.484,0.42,0.969,0.63,1.453c0.115-0.8,0.299-1.655,0.907-2.235
		c0.373-0.355,0.803-0.568,1.307-0.674c0.131-0.027,1.313-0.181,1.326-0.043c0.084,0.9,0.169,1.8,0.253,2.699
		c-1.336-0.298-2.517,0.472-2.432,1.878c0.06,0.986,0.521,1.98,0.884,2.885C204.231,180.903,204.829,182.121,205.4,183.35z
		 M199.713,186.509c0.442-0.147,0.885-0.295,1.327-0.442c-0.62-0.621-1.05-1.314-1.327-2.147
		C199.713,184.782,199.713,185.646,199.713,186.509z M199.713,174.252c0,1.18,0,2.358,0,3.538c-0.442-0.99-0.885-1.98-1.327-2.971
		C198.828,174.63,199.271,174.441,199.713,174.252z M199.713,183.919c-0.507-1.286-0.848-2.66-1.255-3.979
		c-0.523-1.698-1.051-3.43-3.123-3.582c-0.93-0.068-0.612,0.67-0.612,1.405c0,0.332,0,0.663,0,0.995
		c0,0.297,0.333,0.354,0.499,0.615c0.301,0.472,0.446,0.774-0.018,1.102c-0.371,0.262-0.481,0.184-0.481,0.61
		c0,0.587,0,1.173,0,1.759c0.483-0.242,0.926-0.545,1.389-0.821c0.481,1.431,0.825,2.885-0.719,3.812
		c-0.71,0.427-0.67,0.245-0.67,1.087c0,0.451,0,0.903,0,1.354c1.213-0.401,2.209-1.262,2.78-2.399
		c0.438,0.459,0.46,1.164,1.135,0.959c0.111-0.034,1.075-0.259,1.075-0.346C199.713,185.633,199.713,184.776,199.713,183.919z
		 M194.723,176.399v2.527c-0.387-0.343-1.468-0.027-1.926,0.178c-0.768,0.345-1.107,0.946-1.107,1.781
		c-0.139,0.144-0.943,0.104-1.138,0.126c-0.38,0.043-0.76,0.085-1.139,0.127c0-0.914-0.192-1.876,0.316-2.655
		C190.827,177.146,193.038,176.399,194.723,176.399 M194.723,180.76c-1.244,0.881-2.915,1.311-3.934,2.495
		c-1.075,1.251-0.957,3.16,0.186,4.334c0.464,0.477,1.045,0.784,1.704,0.881c0.23,0.034,2.044,0.037,2.044-0.215
		c0-0.708,0-1.417,0-2.125c-0.762,0.126-1.612-0.312-1.833-1.074c-0.287-0.855,0.499-1.354,1.097-1.737
		c0.676-0.435,0.736-0.392,0.736-1.134C194.723,181.71,194.723,181.234,194.723,180.76z M189.413,189.415c0-0.526,0-1.053,0-1.579
		c0.084,0.239,0.168,0.479,0.252,0.717C189.853,189.085,189.927,189.077,189.413,189.415 M189.413,178.99
		c0,0.57,0.375,2.297-0.441,2.211C188.972,180.448,189.074,179.672,189.413,178.99 M189.413,187.836
		c-0.104-0.295-0.21-0.591-0.314-0.886c-0.752,0.539-1.672,0.926-2.036-0.182c-0.204-0.619-0.329-1.265-0.477-1.899
		c-0.278-1.201-0.558-2.403-0.836-3.604c0.206-0.047,1.963-0.421,1.953-0.463c-0.167-0.751-0.334-1.503-0.501-2.254
		c-0.501,0.113-1.003,0.227-1.504,0.34c-0.539,0.122-0.453,0.107-0.576-0.42c-0.253-1.09-0.507-2.179-0.761-3.269
		c-0.551,0.521-1.102,1.044-1.652,1.565c-0.257,0.244-0.515,0.488-0.771,0.732c-0.124,0.116,0.109,0.684,0.145,0.832
		c0.101,0.425,0.2,0.849,0.3,1.273c0.059,0.248-0.486,0.043-0.486,0.283c0,0.775,0,1.551,0,2.326
		c0.337-0.084,0.674-0.168,1.011-0.252c0.386,1.68,0.741,3.369,1.166,5.039c0.462,1.814,1.007,3.423,3.258,3.12
		c0.363-0.049,2.083-0.381,2.083-0.821C189.413,188.811,189.413,188.323,189.413,187.836z M181.896,191.248c0-0.653,0-1.306,0-1.959
		c0,0.592,0.456,1.408,0.758,1.895C182.4,191.205,182.148,191.227,181.896,191.248z M181.896,179.812c0,0.494,0,0.988,0,1.482
		c0,0.281,0,0.562,0,0.844c0,0.132-0.312,0.152-0.319,0.117c-0.136-0.607-0.271-1.216-0.407-1.824
		C181.031,179.813,181.299,179.949,181.896,179.812z M181.896,189.289c-0.419-1.481-0.397-3.198-0.539-4.726
		c-0.081-0.875-0.166-1.796-0.542-2.602c-0.556-1.19-2.062-1.564-3.26-1.596c-0.453-0.012-0.713-0.16-0.713,0.302
		c0,0.407,0,0.814,0,1.223c0,0.248,0,0.495,0,0.743c0-0.169,1.204,0.391,1.33,0.592c0.136,0.218,0.399,0.864,0.25,1.134
		c-0.2,0.121-1.58,0.552-1.58,0.656c0,0.624,0,1.248,0,1.872c0.601-0.14,1.193-0.4,1.769-0.632c0.155,1.373,0.396,2.588-0.986,3.404
		c-0.72,0.426-0.782,0.178-0.782,1.013c0,0.423,0,0.847,0,1.27c0.947-0.19,1.878-0.891,2.463-1.643c0,0.496,0.316,1.224,0.833,1.161
		c0.522-0.063,1.044-0.127,1.565-0.189C182.126,191.221,181.896,189.7,181.896,189.289z M176.842,180.381c0,0.562,0,1.123,0,1.684
		c0,0.088,0.062,0.521,0,0.59c-0.557,0-1.355,0.092-1.77,0.506c-0.152,0.114-0.615,1.134-0.584,1.137
		c-0.289-0.021-0.577-0.041-0.865-0.061c-0.612-0.043-1.224-0.086-1.836-0.129c0.184-1.092,0.668-2.195,1.643-2.795
		C174.525,180.637,175.687,180.756,176.842,180.381 M176.842,184.991c0,0.566,0,1.133,0,1.699c0,0.482-1.649,0.71-1.89,1.47
		c-0.174,0.55,0.054,1.15,0.498,1.507c0.265,0.176,0.561,0.308,0.881,0.329c-0.108-0.007,0.484-0.038,0.511-0.013
		c0.187,0.183,0,1.474,0,1.755c0,0.718-2.187,0.387-2.649,0.239c-1.105-0.353-1.932-1.291-2.118-2.443
		C171.567,186.409,174.54,185.765,176.842,184.991 M145.314,189.73c0-0.295,0-0.59,0-0.885c0-0.522-0.179-0.828,0.348-0.979
		c1.34-0.383,1.531-1.602,1.801-2.812c-0.638,0-1.277,0-1.915,0c-0.472,0-0.234-1.398-0.234-1.833
		c0.675,0.036,1.359,0.07,2.035,0.019c0.637-0.049,0.706-0.282,0.684-0.951c-0.041-1.233-1.74-1.601-2.718-1.404
		c0-0.779,0-1.559,0-2.338c1.5,0,3.682,0.442,4.791,1.553c1.112,1.114,0.897,2.589,0.55,4.004c-0.508,2.068-1.619,4.796-0.918,6.89
		c-0.663-0.147-1.326-0.295-1.989-0.442c-0.279-0.062-0.558-0.124-0.837-0.186c-0.102-0.022-0.143-1.125-0.143-1.268
		C146.296,189.335,145.831,189.602,145.314,189.73 M167.618,186.888c0.917,0.312,1.833,0.624,2.75,0.937
		c0.511,0.175-0.279,1.419-0.479,1.784c-0.475,0.862-1.125,1.57-1.938,2.124c-3.482,2.378-8.521,0.572-10.009-3.246
		c-1.386-3.555-0.584-8.586,2.897-10.626c3.682-2.158,8.737-0.618,9.812,3.657c-1.032,0.231-2.064,0.463-3.097,0.694
		c-0.33-2.132-2.598-3.137-4.523-2.412c-2.087,0.784-2.528,3.269-2.486,5.236c0.04,1.924,0.42,4.218,2.518,4.9
		C165.424,190.707,167.032,188.994,167.618,186.888 M145.314,178.548c0,0.518,0,1.035,0,1.552c0,0.235,0,0.471,0,0.706
		c0,0.118-0.626,0.424-0.758,0.562c-0.178,0.187-0.247,0.523-0.516,0.406c-0.278-0.121-0.556-0.242-0.833-0.363
		c-0.498-0.217-0.996-0.434-1.494-0.65C142.475,179.332,143.69,178.548,145.314,178.548 M145.314,183.223c0,0.433,0,0.865,0,1.299
		c0,0.169,0,0.338,0,0.508c0,0.01-1.008,0.088-1.152,0.115c-2.033,0.374-0.654,3.176,1.152,2.817c0,0.473,0,0.945,0,1.418
		c0,0.756-1.26,0.505-1.832,0.418c-0.411-0.062-2.464-0.531-2.464-1.153c0-0.417,0-0.835,0-1.252c0-1.05,0-2.099,0-3.147
		c0-0.448,1.38-0.88,1.716-0.934C143.581,183.176,144.46,183.223,145.314,183.223z M141.019,179.812
		c0.042,0.021,0.084,0.042,0.127,0.063c0.231-0.737,0.462-1.474,0.694-2.211c-0.273-0.085-0.547-0.169-0.821-0.254
		C141.019,178.211,141.019,179.011,141.019,179.812z M141.019,173.809c-0.042-0.204-0.049-0.411,0.127-0.505
		C141.103,173.472,141.061,173.641,141.019,173.809z M141.019,173.367c0.092,1.163-0.707,2.562-1.069,3.65
		c-0.012,0.034,1.069,0.238,1.069,0.667c0,0.709,0,1.418,0,2.127c-0.212-0.068-1.753-0.616-1.783-0.526
		c-0.248,0.754-0.495,1.507-0.743,2.261c-0.211,0.643-0.431,1.284-0.634,1.93c-0.135,0.473-0.571,1.253-0.402,1.762
		c0.224,0.676,1.163,0.64,1.729,0.576c-0.098,0.504-0.196,1.007-0.294,1.511c-0.044,0.229-0.089,0.458-0.134,0.687
		c-0.047,0.243-1.121,0.047-1.326,0.012c-1.068-0.183-2.197-0.553-2.813-1.514c-0.287-0.446-0.108-1.292-0.108-1.806
		c0-1.013,0.57-2.18,0.893-3.147c0.355-1.065,0.711-2.132,1.066-3.197c-0.443-0.147-0.885-0.295-1.328-0.442
		c0.252-0.737,0.505-1.476,0.758-2.213c0.421,0.147,0.843,0.296,1.264,0.443c0.17-0.512,0.364-2.011,0.912-2.132
		C139.057,173.799,140.038,173.583,141.019,173.367z M141.019,184.233c-1.042,1.219-1.191,3.223,0,4.423
		C141.019,187.182,141.019,185.708,141.019,184.233z M134.511,177.475c0-0.61,0-1.275,0-1.896
		C134.511,176.21,134.511,176.843,134.511,177.475z M134.511,175.578c0,0.566,0,1.133,0,1.699c0,0.625-0.46,1.287-0.723,1.836
		c-0.514,1.071-1.028,2.143-1.542,3.214c-0.465,0.971-0.931,1.94-1.396,2.91c-0.007,0.015-2.4-1.134-2.657-1.256
		c1.09-2.267,2.481-4.572,3.27-6.966c0.356-1.081-0.471-1.983-1.485-2.223c-1.197-0.282-2.092,0.469-2.669,1.417
		c-0.737,1.212-1.305,2.532-1.917,3.81c-0.282,0.589-0.563,1.178-0.846,1.767c-0.244,0.509-0.553,0.116-1.027-0.098
		c-0.508-0.229-0.38-0.357-0.38-0.919c0-0.781,0-1.562,0-2.344c0-0.776,0.485-1.436,0.825-2.126c0.68-1.386,1.36-2.771,2.041-4.156
		c0.071-0.146,0.53-1.277,0.672-1.212c0.8,0.369,1.601,0.739,2.401,1.108c-0.253,0.505-0.505,1.011-0.758,1.516
		C130.427,172.459,133.675,173.082,134.511,175.578 M134.511,184.486c-0.143,0.426-0.382,1.454,0,1.833
		C134.511,185.708,134.511,185.098,134.511,184.486z M123.139,173.809c0.541-0.7,1.147-1.555,1.359-2.428
		c0.272-1.121-0.563-2.322-1.359-3.005C123.139,170.187,123.139,171.998,123.139,173.809z M117.642,159.846
		c0.493,1.151,0.522,2.39,0,3.539C117.642,162.205,117.642,161.025,117.642,159.846z M123.139,168.376c0,1.799,0,3.597,0,5.396
		c0,0.166-0.285,0.43-0.376,0.557c-0.36,0.496-0.719,0.992-1.079,1.488c-0.843,1.163-1.73,2.469-1.893,3.933
		c-0.604-0.427-1.209-0.854-1.813-1.279c-0.631-0.445-0.209-1-0.209-1.627c-0.048,0.005-0.091,0.025-0.127,0.062
		c0-0.263,0-0.526,0-0.789c0-0.485-0.17-0.734,0.31-0.812c0.971-0.159,1.444-1.257,2.028-1.936c-0.48-0.16-2.338-0.63-2.338-1.071
		c0-0.611,0-1.224,0-1.835c0.908,0.299,1.751,0.803,2.663,1.109c0.737,0.249,1.134,0.142,1.289-0.776
		c0.151-0.896-0.911-1.647-1.613-1.952c-0.361-0.156-0.748-0.192-1.127-0.086c-0.353,0.1-0.647,0.5-0.925,0.223
		c-0.571-0.572-0.286-1.761-0.286-2.541c0-0.576,2.213-0.111,2.491-0.005C121.209,166.847,122.32,167.56,123.139,168.376
		 M123.139,177.979c-0.391,0.8-0.781,1.599-1.172,2.398c-0.152,0.312-0.322,0.392,0,0.553c0.391,0.196,0.781,0.392,1.172,0.587
		C123.139,180.338,123.139,179.159,123.139,177.979z M115.177,156.877c0.97,0.648,1.827,1.659,2.343,2.706
		c0.205,0.416,0.121,0.902,0.121,1.359c0,0.665,0,1.33,0,1.996c0,0.695-0.375,1.175-0.822,1.71
		c-0.542-0.459-1.084-0.917-1.625-1.376c-0.168-0.142-0.017-1.284-0.017-1.494C115.177,160.145,115.177,158.511,115.177,156.877z
		 M117.642,166.417c0,0.758,0,1.517,0,2.274c-0.484-0.484-0.968-0.969-1.452-1.453C116.637,166.902,117.116,166.614,117.642,166.417
		 M117.642,170.461c0,0.674,0,1.348,0,2.021c-0.958-0.41-2.364-0.304-2.325,1.07c0.016,0.538,0.301,1.035,0.746,1.331
		c0.152,0.108,1.579,0.603,1.579,0.474c0,0.317,0,0.636,0,0.953c0,0.674,0.015,0.633-0.75,0.637c-0.173,0-1.714-0.108-1.714-0.303
		c0-0.145,0-0.29,0-0.435c0-1.507,0-3.013,0-4.519c0-0.54,0-1.079,0-1.619C115.177,169.55,117.381,170.357,117.642,170.461
		 M117.642,177.347c0,0.295,0,0.591,0,0.886C117.216,178.078,117.523,177.645,117.642,177.347 M103.996,160.795
		c0.783,0.598,1.566,1.194,2.35,1.792c-0.087-0.066-0.714,2.057-0.645,2.44c0.102,1.117,1.018,2.085,1.919,2.667
		c0.748,0.482,1.887,0.683,2.62,0.061c0.838-0.713,0.673-1.531,0.199-2.408c-0.932-1.724-2.475-3.354-2.756-5.354
		c-0.295-2.104,0.89-4.08,3.01-4.569c1.089-0.272,2.21,0.022,3.183,0.534c0.48,0.252,1.302,0.589,1.302,1.193
		c0,2.036,0,4.071,0,6.107c-0.144-0.131-0.658-0.453-0.694-0.633c0.452-0.648,0.689-1.5,0.375-2.258
		c-0.42-1.01-2.481-3.109-3.691-2.079c-1.145,0.975,0.091,2.609,0.704,3.521c0.943,1.405,2.217,3.146,2.151,4.922
		c-0.062,1.663-1.154,3.287-2.68,3.963c-1.75,0.774-3.468,0.354-4.997-0.676c-1.434-0.967-2.787-2.35-3.403-3.994
		C102.261,164.209,102.896,162.304,103.996,160.795 M115.177,169.955c-1.54,0-2.787,1.746-2.787,3.166
		c0,1.633,1.358,2.955,2.787,3.531C115.177,174.42,115.177,172.188,115.177,169.955z"/>
</g>
</svg>
