<?xml version="1.0" encoding="utf-8"?>
<!-- Generator: Adobe Illustrator 19.1.0, SVG Export Plug-In . SVG Version: 6.00 Build 0)  -->
<svg version="1.1" id="Layer_1" xmlns="http://www.w3.org/2000/svg" xmlns:xlink="http://www.w3.org/1999/xlink" x="0px" y="0px"
	 viewBox="-417.2 626.4 141.1 166.8" enable-background="new -417.2 626.4 141.1 166.8" xml:space="preserve">
<g>
	<polygon fill="#FFFFFF" points="-402.3,639.9 -378.2,632.7 -346.6,784.7 -301.5,635.4 -283.7,641.5 -280,710.4 -312.5,766.9 
		-346.6,791.9 -389.8,759 -408.9,722.9 -414.4,684.7 -409.2,642.5 	"/>
	
		<path fill="none" stroke="#9EA176" stroke-width="0.9293" stroke-linecap="round" stroke-linejoin="round" stroke-miterlimit="2.6131" d="
		M-392.1,658.6L-392.1,658.6 M-378.1,676.8h0.4"/>
	<path fill="#C6232D" d="M-292.5,696.5c0,0,0-0.3,0-0.6c0.9-16.9-1.5-36.1-7.3-57.5c-31.7-10.3-62.9-10.3-93.7-0.1
		c-10.5,39-9.8,72,2.3,99c0.1,0.2,0.2,0.5,0.4,0.7c0,0,1.1,2,3.2,6.2l0,0c0.3,0.6,0.7,1.2,1,1.8c8.9,15.8,22.3,29.5,40,40.8
		c29.8-19,47.3-44.2,52.7-75.7c0-0.4,0.1-0.7,0.2-1.1l0,0L-292.5,696.5L-292.5,696.5z"/>
	<path fill="#9EA176" d="M-282.8,639.8c-42.7-17.9-85.3-17.9-127.6,0.1c-19.1,70.4,2.2,121.5,63.9,153.3
		C-285,761.3-263.7,710.1-282.8,639.8L-282.8,639.8z M-296.9,639.3c3.5,1.2,6.9,2.5,10.2,3.9v0.1c5,19.2,7,36.9,5.8,53.2h-52.3
		c-4-2.4-8.5-3.6-13.4-3.6h-0.9c-4.6,0.1-8.8,1.3-12.5,3.5h-25.2c-1.7,0-3.2,0.6-4.3,1.7c-1.1,0.9-1.7,2.1-1.9,3.5h-2.7
		c-2.4,2.5-2.4,5,0,7.4h2.7c0.1,1.3,0.7,2.6,1.9,3.7c1.2,1.1,2.6,1.6,4.1,1.7c0.1,0,0.1,0,0.2,0l12.4-0.6c-0.4,1.8-0.6,3.7-0.6,5.7
		c0,1.3,0,2.5,0.2,3.5c-4.6,6.1-10.4,11.1-17.6,14.9l-2.1,1.1c-1.7,0.8-3.6,1.6-5.8,2.4c-15.7-26.6-18.4-59.3-7.9-98.3
		c3.2-1.4,6.5-2.6,9.8-3.8l3.3-1.1c30.8-10.2,62-10.1,93.7,0.1L-296.9,639.3L-296.9,639.3z M-354.7,719.8c0,0.7,0,1.3,0.1,1.8
		l-11.2,6.5c-1.1-2.5-1.7-5.2-1.7-8.2s0.6-5.8,1.7-8.3l11.2,6.5C-354.7,718.6-354.7,719.2-354.7,719.8L-354.7,719.8z M-346.8,716.4
		L-346.8,716.4c0.5,0,1,0,1.4,0.2c0.2,0,0.5,0.2,1,0.6l0.2,0.2c0.5,0.5,0.8,1.1,1,1.9v1.2c-0.1,0.6-0.5,1.2-0.9,1.7
		c-0.1,0-0.1,0-0.2,0.1c-0.4,0.3-0.8,0.6-1.2,0.7c-0.4,0.1-0.7,0.1-1.1,0.1l-1-0.1c-0.5-0.1-0.9-0.4-1.2-0.7c-0.1,0-0.1-0.1-0.1-0.1
		c-0.6-0.6-0.9-1.1-0.9-1.7l-0.1-0.7v-0.5c0.1-0.8,0.4-1.4,1-1.9c0-0.1,0-0.1,0.1-0.1c0.4-0.3,0.7-0.6,1-0.6
		C-347.7,716.5-347.3,716.4-346.8,716.4L-346.8,716.4z M-349.2,712.1c-1.2,0.4-2.2,1-3,1.9l-11.1-6.5c0.7-1,1.4-1.7,2-2.3
		c3.4-3.4,7.4-5.4,12.2-5.9L-349.2,712.1L-349.2,712.1z M-361.3,734.5c-0.8-0.8-1.4-1.5-2-2.3l11.2-6.5c0.9,0.8,2,1.4,3,1.8v12.9
		C-353.9,739.9-357.9,737.9-361.3,734.5L-361.3,734.5z M-368,735.9c0.5,0.6,1.2,1.5,2.3,2.6c5.3,5.2,11.5,7.8,18.9,7.8
		c7.3,0,13.7-2.6,18.9-7.8c5.2-5.2,7.9-11.6,7.9-18.9c0-1,0-2-0.1-3l10.8-2.3c2.1-0.6,3.3-1.8,3.5-3.5l23.2-1.6
		c-6.4,33.7-27.7,60-64.1,79c-0.1,0-0.1,0-0.1,0.1l-0.4-0.2c-21.7-11.6-38-25.6-48.8-42.1c1.7-0.2,3.7-0.6,6-1.2l2.2-0.6
		C-381.8,742.5-375.2,739.7-368,735.9L-368,735.9z M-344.4,740.5v-12.9c1.3-0.4,2.3-1,3.2-1.8l11.2,6.4c-0.4,0.5-1.1,1.3-2,2.3
		C-335.5,738-339.6,740-344.4,740.5L-344.4,740.5z M-330,707.5l-11.2,6.5c-1-0.9-2-1.5-3.2-1.9v-12.9c4.7,0.5,8.9,2.4,12.4,5.9
		C-331,706.2-330.4,706.9-330,707.5L-330,707.5z M-327.6,711.6c0.9,2,1.4,4.2,1.6,6.5v1.8c0,3.1-0.6,5.9-1.7,8.4l-11.2-6.6l0.1-0.6
		l0.1-1.3c0-0.5-0.1-1.1-0.2-1.8L-327.6,711.6L-327.6,711.6z"/>
	<path fill="#9EA176" d="M-338.7,721.2l12.7-3.1c-0.2-2.3-0.7-4.5-1.6-6.5l-11.2,6.5c0.1,0.7,0.2,1.3,0.2,1.8L-338.7,721.2
		L-338.7,721.2z"/>
	<path fill="#9EA176" d="M-341.2,713.9l11.2-6.5c-0.4-0.6-1.1-1.3-2-2.3c-3.5-3.5-7.7-5.5-12.4-5.9V712
		C-343.2,712.4-342.1,713-341.2,713.9L-341.2,713.9z"/>
	<path fill="#9EA176" d="M-344.4,717.2c-0.5-0.4-0.8-0.6-1-0.6c-0.4-0.2-0.9-0.2-1.3-0.2h-0.1c-0.6,0-0.9,0.1-1.1,0.2
		c-0.3,0.1-0.7,0.3-1,0.6c-0.1,0-0.1,0-0.1,0.1c-0.6,0.5-0.9,1.1-1,1.9v0.5l0.1,0.7c0,0.6,0.4,1.2,0.9,1.7c0,0,0,0.1,0.1,0.1
		c0.3,0.3,0.7,0.6,1.2,0.7l1,0.1c0.4,0,0.7,0,1.1-0.1c0.4-0.1,0.7-0.4,1.2-0.7c0-0.1,0.1-0.1,0.2-0.1c0.5-0.6,0.8-1.1,0.9-1.7v-1.2
		c-0.1-0.8-0.5-1.4-1-1.9L-344.4,717.2L-344.4,717.2z"/>
	<path fill="#9EA176" d="M-352.2,714c0.8-0.9,1.9-1.5,3-1.9v-12.9c-4.7,0.5-8.8,2.5-12.2,5.9c-0.6,0.6-1.3,1.3-2,2.3L-352.2,714
		L-352.2,714z"/>
	<path fill="#9EA176" d="M-354.7,719.8c0-0.6,0-1.2,0.1-1.8l-11.2-6.5c-1.1,2.5-1.7,5.2-1.7,8.3c0,3,0.6,5.7,1.7,8.2l11.2-6.5
		C-354.7,721.1-354.7,720.5-354.7,719.8L-354.7,719.8z"/>
	<path fill="#355170" d="M-290.7,709.3L-290.7,709.3c-5.6,32.4-24.3,58.7-56,78.9c36.3-19,57.7-45.3,64.1-79.3L-290.7,709.3
		L-290.7,709.3z"/>
	<path fill="#355170" d="M-390.2,744.4l-5.8,1.6c10.9,16.5,27.1,30.6,48.8,42.1C-366.3,775.9-380.6,761.3-390.2,744.4L-390.2,744.4z
		"/>
	<path fill="#355170" d="M-286.8,643.2c-3.3-1.4-6.6-2.6-10.2-3.9c6,20.7,8.5,39.9,7.6,57.6l8.3-0.1
		C-279.8,680.3-281.7,662.5-286.8,643.2L-286.8,643.2L-286.8,643.2z"/>
	<path fill="#355170" d="M-396.9,639.3c-3.3,1.2-6.6,2.4-9.8,3.8c-10.4,39-7.7,71.9,8.1,98.7l5.8-2.4
		C-406.5,711.7-407.9,678.3-396.9,639.3L-396.9,639.3z"/>
	<path fill="#FFFFFF" d="M-383.4,653.6l-8.6,1.2c0.6,1.1,0.6,2.4,0,3.8v0.1c-2,6.4-4.3,12.4-6.9,18.1h6.2l1.1-4.6h5.9l0.8,4.6h6.9
		C-380.2,669.5-382,661.7-383.4,653.6L-383.4,653.6L-383.4,653.6z M-386.6,668.3h-3.9l2.5-7.5L-386.6,668.3L-386.6,668.3z"/>
	
		<path fill="none" stroke="#9EA176" stroke-width="0.9293" stroke-linecap="round" stroke-linejoin="round" stroke-miterlimit="2.6131" d="
		M-388,660.8l1.4,7.5h-3.9L-388,660.8L-388,660.8z M-392.1,658.7c-2,6.4-4.3,12.4-6.9,18.1h6.2l1.1-4.6h5.9l0.8,4.6h6.9
		c-2.1-7.3-3.9-15.1-5.3-23.2l-8.6,1.2c0.6,1.1,0.6,2.4,0,3.8"/>
	<path fill="#FFFFFF" d="M-371.2,676.8c-1.1-9.2,0.6-13.4,5.2-12.7l0.4-4.2c-1.8-0.7-3.8,0.3-5.9,3.2l0.1-2.8l-5.6,0.2
		c0.5,5.7,0.3,11.1-0.7,16.3H-371.2L-371.2,676.8z"/>
	
		<path fill="none" stroke="#9EA176" stroke-width="0.9293" stroke-linecap="round" stroke-linejoin="round" stroke-miterlimit="2.6131" d="
		M-366,664.1c-4.6-0.7-6.3,3.5-5.2,12.7h-6.5c1-5.2,1.2-10.6,0.7-16.3l5.6-0.2l-0.1,2.8c2.1-2.9,4.1-3.9,5.9-3.2L-366,664.1
		L-366,664.1z"/>
	<path fill="#FFFFFF" d="M-304,676.8h6.5c-1.4-6.8-2.4-14.2-3-22l-6.1-1.2C-304.9,661.2-304.1,669-304,676.8L-304,676.8z"/>
	
		<path fill="none" stroke="#9EA176" stroke-width="0.9293" stroke-linecap="round" stroke-linejoin="round" stroke-miterlimit="2.6131" d="
		M-297.5,676.8c-1.4-6.8-2.4-14.2-3-22l-6.1-1.2c1.7,7.6,2.6,15.3,2.6,23.1h6.5V676.8z"/>
	<path fill="#FFFFFF" d="M-337.9,673.7l-1.6-1.8c-3.5,2.7-6,2.3-7.5-1.3c2-0.8,5-2,9-3.7c0-1.9-0.6-3.7-1.8-5.4
		c-1.3-1.7-3-2.6-5.2-2.6c-2.3,0-4.3,0.8-6.1,2.6c-1.7,1.8-2.6,3.9-2.6,6.5c0,2.5,0.8,4.6,2.6,6.4c1.3,1.3,2.6,2.1,4.2,2.5h4.2
		c1.5-0.4,2.9-1.2,4.2-2.5L-337.9,673.7L-337.9,673.7L-337.9,673.7z M-345.4,662c1.8,0.5,2.4,1.6,1.8,3.5l-4.3,1.8
		C-348.2,664.4-347.4,662.6-345.4,662L-345.4,662z"/>
	
		<path fill="none" stroke="#9EA176" stroke-width="0.9293" stroke-linecap="round" stroke-linejoin="round" stroke-miterlimit="2.6131" d="
		M-343.6,665.5c0.6-1.9,0-3-1.8-3.5c-2,0.6-2.8,2.3-2.5,5.2L-343.6,665.5L-343.6,665.5z M-338,666.9c-4,1.6-7,2.8-9,3.7
		c1.5,3.6,4,4,7.5,1.3l1.6,1.8l-0.7,0.7c-1.3,1.3-2.6,2.1-4.2,2.5c-0.8,0.1-1.5,0.2-2.1,0.2c-0.7,0-1.4-0.1-2.1-0.2
		c-1.5-0.4-2.9-1.2-4.2-2.5c-1.7-1.8-2.6-3.9-2.6-6.4c0-2.6,0.8-4.7,2.6-6.5s3.8-2.6,6.1-2.6c2.3,0,4,0.9,5.2,2.6
		C-338.6,663.2-338,665-338,666.9L-338,666.9z"/>
	<path fill="#FFFFFF" d="M-321.4,676.8c-0.7-4.1-1-8.5-0.9-13.2c-2.4-4.6-5.7-5.1-9.8-1.5l-0.5-2.3l-5.2-0.1
		c1.3,4.7,1.5,10.5,0.8,17.2h6c-0.6-3.6-0.7-7.7-0.5-12c1.3-2.1,2.6-2.1,3.6,0c0.3,4,0.3,8,0,12L-321.4,676.8L-321.4,676.8z"/>
	
		<path fill="none" stroke="#9EA176" stroke-width="0.9293" stroke-linecap="round" stroke-linejoin="round" stroke-miterlimit="2.6131" d="
		M-331,676.8h-6 M-321.4,676.8h-6.4 M-327.8,676.8c0.3-3.9,0.3-7.9,0-12c-1.1-2.1-2.3-2.1-3.6,0c-0.3,4.3-0.1,8.4,0.5,12
		 M-337,676.8c0.7-6.7,0.5-12.5-0.8-17.2l5.2,0.1l0.5,2.3c4.1-3.6,7.3-3,9.8,1.5c-0.1,4.7,0.2,9.2,0.9,13.2"/>
	<path fill="#FFFFFF" d="M-354.9,663.3V660c-4.8-1.8-8.5-0.8-11,2.8l-0.1,0.1c-1.2,2-0.7,3.7,1.4,5.1c4.5,1.8,6.4,3.2,5.8,4.2
		l-0.1,0.2c-1.8,1.9-4.4,1.3-7.8-1.6l-0.1,4.6c1.3,0.6,2.4,1,3.3,1.3c1.8,0.5,3.5,0.5,5.1,0c1.4-0.5,2.8-1.5,4.2-2.9
		c2.1-3.7,0.2-6.7-5.7-9.1c-1.9-0.8-1.9-1.6,0-2.3C-358.7,662.3-357.1,662.5-354.9,663.3L-354.9,663.3z"/>
	
		<path fill="none" stroke="#9EA176" stroke-width="0.9293" stroke-linecap="round" stroke-linejoin="round" stroke-miterlimit="2.6131" d="
		M-358.9,672.5c-1.8,1.9-4.4,1.3-7.8-1.6l-0.1,4.6c1.3,0.6,2.4,1,3.3,1.3c1.8,0.5,3.5,0.5,5.1,0c1.4-0.5,2.8-1.5,4.2-2.9
		c2.1-3.7,0.2-6.7-5.7-9.1c-1.9-0.8-1.9-1.6,0-2.3c1.2-0.2,2.8,0,5,0.8V660c-4.8-1.8-8.5-0.8-11,2.8l-0.1,0.1
		c-1.2,2-0.7,3.7,1.4,5.1c4.5,1.8,6.4,3.2,5.8,4.2"/>
	<path fill="#FFFFFF" d="M-320.2,660.8c0,1,0,2.5,0.1,4.4c4.4-2.7,6.9-2.6,7.5,0.3c-6.4,1.3-9.2,3.6-8.5,7c0.5,2.3,1.4,3.7,2.6,4.3
		c1.6,0.7,3.3,0.7,5.4,0l1.5-1l1.1,1.1h5.2v-0.1c-1.2-3.3-1.8-7.2-1.9-12C-308.3,660.9-312.7,659.5-320.2,660.8L-320.2,660.8
		L-320.2,660.8z M-312.2,668.5l0.2,4.6c-2.3,1-3.6,0.4-3.9-1.8c0.5-2,1.6-3,3.5-2.8L-312.2,668.5L-312.2,668.5z"/>
	
		<path fill="none" stroke="#9EA176" stroke-width="0.9293" stroke-linecap="round" stroke-linejoin="round" stroke-miterlimit="2.6131" d="
		M-320.1,665.2c4.4-2.7,6.9-2.6,7.5,0.3c-6.4,1.3-9.2,3.6-8.5,7c0.5,2.3,1.4,3.7,2.6,4.3c1.6,0.7,3.3,0.7,5.4,0l1.5-1l1.1,1.1h5.2
		c-1.2-3.3-1.8-7.3-1.9-12.1c-1.3-3.9-5.7-5.3-13.2-4l0,0L-320.1,665.2L-320.1,665.2z M-312.2,668.5l0.2,4.6c-2.3,1-3.6,0.4-3.9-1.8
		c0.5-2,1.6-3,3.5-2.8"/>
	
		<path fill="none" stroke="#FFFFFF" stroke-width="0.9492" stroke-linecap="round" stroke-linejoin="round" stroke-miterlimit="2.6131" d="
		M-290.3,696.5h-43c-4-2.4-8.5-3.6-13.4-3.6h-0.9c-4.6,0.1-8.8,1.3-12.5,3.5h-25.2c-1.7,0-3.2,0.6-4.3,1.7c-1.1,0.9-1.7,2.1-1.9,3.5
		h-2.7c-2.4,2.5-2.4,5,0,7.4h2.7c0.1,1.3,0.7,2.6,1.9,3.7c1.2,1.1,2.6,1.6,4.1,1.7c0.1,0,0.1,0,0.2,0l12.4-0.6
		c-0.4,1.8-0.6,3.7-0.6,5.7c0,1.3,0,2.5,0.2,3.5c-4.5,6-10.2,10.9-17.3,14.7c-0.5,0.3-1.1,0.7-1.6,0.9 M-354.7,719.8
		c0,0.7,0,1.3,0.1,1.8l-11.2,6.5c-1.1-2.5-1.7-5.2-1.7-8.2s0.6-5.8,1.7-8.3l11.2,6.5C-354.7,718.6-354.7,719.2-354.7,719.8
		L-354.7,719.8z M-346.8,716.4L-346.8,716.4c0.5,0,1,0,1.4,0.2c0.2,0,0.5,0.2,1,0.6l0.2,0.2c0.5,0.5,0.8,1.1,1,1.9v1.2
		c-0.1,0.6-0.5,1.2-0.9,1.7c-0.1,0-0.1,0-0.2,0.1c-0.4,0.3-0.8,0.6-1.2,0.7c-0.4,0.1-0.7,0.1-1.1,0.1l-1-0.1
		c-0.5-0.1-0.9-0.4-1.2-0.7c-0.1,0-0.1-0.1-0.1-0.1c-0.6-0.6-0.9-1.1-0.9-1.7l-0.1-0.7v-0.5c0.1-0.8,0.4-1.4,1-1.9
		c0-0.1,0-0.1,0.1-0.1c0.4-0.3,0.7-0.6,1-0.6C-347.7,716.5-347.3,716.4-346.8,716.4L-346.8,716.4z M-349.2,712.1
		c-1.2,0.4-2.2,1-3,1.9l-11.1-6.5c0.7-1,1.4-1.7,2-2.3c3.4-3.4,7.4-5.4,12.2-5.9L-349.2,712.1L-349.2,712.1z M-361.3,734.5
		c-0.8-0.8-1.4-1.5-2-2.3l11.2-6.5c0.9,0.8,2,1.4,3,1.8v12.9C-353.9,739.9-357.9,737.9-361.3,734.5L-361.3,734.5z M-389.1,744.5
		c0.7-0.2,1.2-0.3,1.8-0.5c5.8-1.7,12.3-4.5,19.4-8.2c0.5,0.6,1.2,1.5,2.3,2.6c5.3,5.2,11.5,7.8,18.9,7.8c7.3,0,13.7-2.6,18.9-7.8
		c5.2-5.2,7.9-11.6,7.9-18.9c0-1,0-2-0.1-3l10.8-2.3c2.1-0.6,3.3-1.8,3.5-3.5l14.4-1 M-344.4,740.5v-12.9c1.3-0.4,2.3-1,3.2-1.8
		l11.2,6.4c-0.4,0.5-1.1,1.3-2,2.3C-335.5,738-339.6,740-344.4,740.5L-344.4,740.5z M-330,707.5l-11.2,6.5c-1-0.9-2-1.5-3.2-1.9
		v-12.9c4.7,0.5,8.9,2.4,12.4,5.9C-331,706.2-330.4,706.9-330,707.5L-330,707.5z M-327.6,711.6c0.9,2,1.4,4.2,1.6,6.5v1.8
		c0,3.1-0.6,5.9-1.7,8.4l-11.2-6.6l0.1-0.6l0.1-1.3c0-0.5-0.1-1.1-0.2-1.8L-327.6,711.6L-327.6,711.6z"/>
</g>
</svg>
