<?xml version="1.0" encoding="utf-8"?>
<!-- Generator: Adobe Illustrator 19.1.0, SVG Export Plug-In . SVG Version: 6.00 Build 0)  -->
<svg version="1.1"
	 id="svg4710" sodipodi:docname="Internazionale.svg" inkscape:version="0.46" sodipodi:version="0.32" inkscape:output_extension="org.inkscape.output.svg.inkscape" xmlns:inkscape="http://www.inkscape.org/namespaces/inkscape" xmlns:dc="http://purl.org/dc/elements/1.1/" xmlns:rdf="http://www.w3.org/1999/02/22-rdf-syntax-ns#" xmlns:sodipodi="http://sodipodi.sourceforge.net/DTD/sodipodi-0.dtd" xmlns:svg="http://www.w3.org/2000/svg" xmlns:cc="http://creativecommons.org/ns#"
	 xmlns="http://www.w3.org/2000/svg" xmlns:xlink="http://www.w3.org/1999/xlink" x="0px" y="0px"
	 viewBox="-270.2 517.8 333.6 333.6" enable-background="new -270.2 517.8 333.6 333.6" xml:space="preserve">
<defs>
	
	
		<inkscape:perspective  inkscape:persp3d-origin="372.04724 : 350.78739 : 1" inkscape:vp_x="0 : 526.18109 : 1" inkscape:vp_y="0 : 1000 : 0" sodipodi:type="inkscape:persp3d" inkscape:vp_z="744.09448 : 526.18109 : 1" id="perspective4718">
		</inkscape:perspective>
</defs>
<sodipodi:namedview  inkscape:document-units="px" inkscape:pageshadow="2" inkscape:window-width="1280" inkscape:current-layer="layer1" inkscape:pageopacity="0.0" inkscape:window-x="-4" inkscape:window-y="-4" inkscape:window-height="940" gridtolerance="10000" showgrid="true" bordercolor="#666666" pagecolor="#ffffff" guidetolerance="10" objecttolerance="10" inkscape:zoom="1.4" id="base" inkscape:cx="176.58471" inkscape:cy="241.26558" borderopacity="1.0">
	<inkscape:grid  type="xygrid" id="grid4731" enabled="true" visible="true"></inkscape:grid>
</sodipodi:namedview>
<g id="layer1" inkscape:groupmode="layer" inkscape:label="Layer 1">
	
		<path id="path3190" sodipodi:cx="578.92859" sodipodi:cy="339.64285" sodipodi:rx="170.35715" sodipodi:ry="170.35715" sodipodi:type="arc" fill="#7C744F" d="
		M63.4,684.6c0,92.1-74.7,166.8-166.8,166.8s-166.8-74.7-166.8-166.8s74.7-166.8,166.8-166.8S63.4,592.5,63.4,684.6z"/>
	
		<path id="path3192" sodipodi:cx="578.92859" sodipodi:cy="339.64285" sodipodi:rx="170.35715" sodipodi:ry="170.35715" sodipodi:type="arc" fill="#07367C" d="
		M50.9,684.6c0,84.5-69.1,153-154.3,153s-154.3-68.5-154.3-153s69.1-153,154.3-153S50.9,600.1,50.9,684.6z"/>
	
		<path id="path3194" sodipodi:cx="578.92859" sodipodi:cy="339.64285" sodipodi:rx="170.35715" sodipodi:ry="170.35715" sodipodi:type="arc" fill="#7D744C" d="
		M33.1,684.6c0,74.7-61.1,135.3-136.4,135.3s-136.5-60.5-136.5-135.3s61.1-135.3,136.4-135.3S33.1,609.9,33.1,684.6z"/>
	
		<path id="path3196" sodipodi:cx="578.92859" sodipodi:cy="339.64285" sodipodi:rx="170.35715" sodipodi:ry="170.35715" sodipodi:type="arc" fill="#1B170B" d="
		M25.2,684.6c0-70.4-57.5-127.5-128.5-127.5s-128.6,57.1-128.6,127.5s57.5,127.5,128.5,127.5S25.2,755,25.2,684.6z"/>
	
		<path id="path3198" sodipodi:cx="578.92859" sodipodi:cy="339.64285" sodipodi:rx="170.35715" sodipodi:ry="170.35715" sodipodi:type="arc" fill="#7D744D" d="
		M9.1,684.6c0-61.6-50.3-111.5-112.4-111.5S-215.8,623-215.8,684.6s50.3,111.5,112.4,111.5S9.1,746.2,9.1,684.6z"/>
	<path id="path3200" fill="#FFFFFF" d="M-102.7,586.7c-54.5,0-98.8,43.9-98.8,98c0,50.3,38.2,91.7,87.4,97.3v-13
		c-42-5.5-74.5-41.1-74.5-84.3c0-47,38.4-85.1,85.8-85.1c34.1,0,63.5,19.7,77.4,48.3h14.2C-25.8,612-61.3,586.7-102.7,586.7z
		 M-18.5,701.1c-7.2,36.3-37.6,64.3-75.2,68.2v12.9c44.8-4,81.1-37.7,88.5-81.1L-18.5,701.1L-18.5,701.1z"/>
	<path id="rect3216" sodipodi:nodetypes="ccccccccccccccccccccccccccccccccccccc" fill="#FFFFFF" d="M-121,576.5c0,0,8,4,9,8h16
		c1-4,10-8,10-8H-121z M-112,602.5v63h16v-63C-96,602.5-102.8,601.1-112,602.5z M-142,618.5v2.8c1.8,0.2,2.2,1.1,2.2,1.1l-0.2,30.1
		l17,29h38v-14l-38-0.1v-33.9h9v-15H-142z M-94,618.5v15l25.2-0.1c0,0,1.1,0.3,1,1.5h3v-16.4H-94z M-112,683.5v100.6h-0.1
		c-1,4-9,8-9,8h35c0,0-8.7-4-9.9-7.8V683.5H-112z"/>
	<path id="path4690" sodipodi:nodetypes="ccccccccsc" fill="#FFFFFF" d="M-177,722.5c1.8-1.7,2-4,2-4c2.8-19.7,5.4-74.6,5.4-74.6
		l-2.4-5.4c6.6-9.2,12.6-14.8,12.6-14.8c13.6,22,45.4,77.8,45.4,77.8v27l-39.2-60.5c0,0-4.8,47.6-4.8,78.5
		C-158,746.5-166,740.5-177,722.5z"/>
	<path id="path4692" sodipodi:nodetypes="ccccccccsc" fill="#FFFFFF" d="M-29,723.5c-1.8-1.7-2.2-4.1-2.2-4.1
		c-2.8-19.7-6.2-75.4-6.2-75.4l4-5.5c-6.6-9-13.7-15.2-13.7-15.2C-60.7,645.4-94,701.5-94,701.5v27l40.1-60.4c0,0,3.9,49.4,3.9,80.4
		C-50,748.5-41.4,743.8-29,723.5z"/>
	<path id="path4703" sodipodi:nodetypes="cccscsc" fill="#FFFFFF" d="M-142,757.5c2-2,2-4,2-4v-61l17,26v41c0,3,2,6,2,6
		S-133,763.5-142,757.5z"/>
</g>
</svg>
