<?xml version="1.0" encoding="utf-8"?>
<!-- Generator: Adobe Illustrator 19.1.0, SVG Export Plug-In . SVG Version: 6.00 Build 0)  -->
<svg version="1.1"
	 id="Layer_1" image-rendering="optimizeQuality" text-rendering="geometricPrecision" shape-rendering="geometricPrecision"
	 xmlns="http://www.w3.org/2000/svg" xmlns:xlink="http://www.w3.org/1999/xlink" x="0px" y="0px" viewBox="988 -1318.5 500 815.9"
	 enable-background="new 988 -1318.5 500 815.9" xml:space="preserve">
<g id="Ebene_x0020_1">
	<path fill="#1F1A17" d="M1238-1318.5c138,0,250,182.7,250,408c0,225.3-112,408-250,408s-250-182.7-250-408
		C988-1135.8,1100-1318.5,1238-1318.5z"/>
	<path fill="#FFFFFF" d="M1238-1287c129.8,0,235,166.5,235,371.8s-105.2,371.8-235,371.8s-235-166.5-235-371.8
		S1108.2-1287,1238-1287L1238-1287z"/>
	<path fill="#1F1A17" d="M1238-1275.4c14.5,0,28.7,2.3,42.5,6.5v131c-14.5-1.1-29.3-1.6-44.4-1.6c-13.7,0-27.3,0.5-40.6,1.4v-130.7
		C1209.3-1273.1,1223.5-1275.4,1238-1275.4L1238-1275.4z M1342.5-1233.5c34.8,29.8,64.1,73.9,84.9,127.4v0.2
		c-24.9-9.7-52.4-17.7-81.6-23.3c-1-15.9-2.1-31.5-3.3-46.8L1342.5-1233.5L1342.5-1233.5z M1048.6-1107.5
		c20-50.9,47.8-93.2,80.6-122.6v54.2c-1.2,15.3-2.3,30.9-3.3,46.8C1098.3-1123.8,1072.4-1116.5,1048.6-1107.5L1048.6-1107.5z"/>
	<path fill="#1F1A17" d="M1122-967.4c-27,13.1-52.4,30.7-75.6,52v157.4c20.3,53.5,49.7,97.8,84.9,128v-69.3
		c-6.1-73.6-9.4-154.7-9.4-239.9C1121.9-948.6,1122-958,1122-967.4L1122-967.4z M1282.4-990.6c-14.5-2.5-29.3-3.9-44.4-3.9
		c-13.7,0-27.3,1.1-40.6,3.2v150.1c12.9-6.4,26.5-9.9,40.6-9.9c15.4,0,30.3,4.1,44.4,11.8V-990.6L1282.4-990.6z M1429.6-915.3
		c-23.2-21.3-48.6-38.9-75.6-52c0.1,9.4,0.1,18.8,0.1,28.2c0,85.2-3.4,166.3-9.4,239.9v72.4c34.8-28.4,64.1-70.5,84.9-121.5
		L1429.6-915.3L1429.6-915.3z"/>
	<path fill="#F5B400" d="M1234.9-1018.3c81.8,0,160.4,18.5,224.2,50c0.9,12.5,1.4,25.1,1.4,38c0,4.8-0.1,9.5-0.2,14.2
		c-64-54.8-143-87-225.4-87c-82.4,0-156.4,30.1-219.3,81.9c0-3-0.1-6.1-0.1-9.1c0-13.9,0.6-27.6,1.6-41.1
		C1079.7-1001,1153.1-1018.3,1234.9-1018.3L1234.9-1018.3z"/>
	<path fill="#1F1A17" d="M1284.6-748.3H1238h-46.6c-11,0-20,8.1-20,18.1v31c0,44.7,15.8,70.3,66.5,112.5
		c50.7-42.2,66.5-67.8,66.5-112.5v-31C1304.5-740.2,1295.5-748.3,1284.6-748.3L1284.6-748.3z"/>
	<path fill="#FFFFFF" d="M1207.1-737.6c0,0,3.5,5.5,2.6,6.2c-1.4,0.9-6-2-6-2s3,6.6,4.8,9.2c0.7,1,2.3,1.8,2.8,3.1
		c2,5.2-4.4,13.3,1.6,16.9c2,1.2,4.5,0.6,6.7-0.6c0,0,0.7-0.4,1.1-0.2c1.1,0.6-0.1,3.2-0.3,3.6c-2.5,5.7-4.6,2.7-7.3,0.3
		c-5.5-4.9-5.9,2-7.7,2.6c-6.3,2.2-5.6-0.4-7.6,0.6c-1.3,0.6-1.5,3.2-1.9,4.5c-0.8,2.6-2.6,9.2,3.1,7.2c3.3-1.1,4.4-9.5,7.6-5.2
		c3.9,5.1-1.4,10.2,3.9,16.3c1.5,1.7,3.1,2.4,4.8,0.7c0.6-0.6,1.2-1.5,1.5-2.3c0.3-1,0.4-2.5-0.1-4c-1.1-3.1-3.8-3.3-2.8-7.6
		c1.2-0.3,1.3-0.3,2.5,0.3c2,1.1,5,1.8,6.6,3.4c2.7,2.6,4.8,5.5,8.1,7.4c1,2.2-1.3,4.9-2.1,6.1c-1.3,2.1-3.1,4.8-3.6,7.4
		c-1,4.8,3.6,9.7-1.6,11.4c-6.1,1.9-16.1,0.4-16.7,7c-0.1,1.2-0.4,3.3,0.6,4.4c0.8,0.9,2.9,1.7,4.3,1.7c5.1,0,0.6-5.6,4.7-6.8
		c2-0.6,4.4,0.7,6,0.9c1.8,0.1,4.1,0,5.7,0c6.2-0.2,7.1-2.7,10.2-4.6c4-2.5,7.5,4.4,8.9,6.9c1.1,2.1,4,3.1,4.9,5.4
		c0.9,2.5,1,6.4,0.7,8.5c-0.3,1.8-2.1,1.6-2.9,2.9c-1.2,2.3-1.7,11.8,2.1,13c2.9,1,8-2.5,7-5.2c-0.3-0.9-1.7-1.5-1.9-2.5
		c-1.2-6.4,9.7-11.9,9.9-13.4c0.5-2.4-3.6-2.1-2.7-7.3c0.6-3.8,4.5-6.3,6.3-9.4c1-1.6,0.6-4.7,1.8-6.2c1-1.2,2.7-1.7,3.4-3
		c4.1-7.6-0.6-19.5-3.7-28c-0.9-2.5-5.6-12.4-2.5-13.5c0.8-0.3,1.3,0.1,1.7,0.1c1.8,1.9,0.6,4.8,1.6,6.9c1.2,2.8,4.9,4.1,7.5,5.3
		c-0.3,0.2,0.6,0.1,0.6,0.1c-0.7-1.7-1.4-2.9-1.4-4.8c-0.1-5.4-0.9-9.7-4.3-12.1c-1.7-1.2-4.8-2.2-7.3-0.8
		c-10.3,5.4-0.1,22.1,2.5,31.1c1.2,3.9-1.6,6.3-4.8,4.8c-2.6-1.2-4-7.4-4.8-10.5c-3.2-12.1-7.7-34-13.3-40.3
		c-5.1-5.8-18.8-8.6-28-10.3c-1.5-0.3-3.8-0.6-5.3-1.2C1213.1-733.7,1207.1-737.6,1207.1-737.6L1207.1-737.6z"/>
	<path fill="#1F1A17" d="M1415.1-1020.7L1415.1-1020.7L1415.1-1020.7L1415.1-1020.7z M1415.1-1067.5l16.2,5.4v-1.4
		c0-3.3-0.1-6.2-0.4-8.6c-0.3-2.4-0.7-4.3-1.3-5.8c-0.6-1.5-1.4-2.9-2.6-4.4c-1.2-1.5-2.7-3-4.5-4.5l0,0c-2.6-2.1-5.5-4-8.9-5.5
		c-0.7-0.3-1.4-0.6-2-0.8s-1.4-0.5-2.1-0.8h0l0,0c-3.3-1.1-6.3-1.7-8.9-1.7c-0.5,0-1,0-1.5,0c-0.5,0-0.9,0.1-1.4,0.1h-0.1l0,0
		c-1.5,0.2-2.8,0.7-3.9,1.4c-1.1,0.6-1.9,1.5-2.5,2.6l0,0c-0.7,1.1-1.2,2.7-1.5,4.7c-0.4,2.2-0.6,4.8-0.6,8c0,2.2,0.1,4.2,0.4,6.1
		l0,0c0.3,1.8,0.6,3.5,1.1,5.1l0,0c0.7,2.2,1.6,4.2,2.6,5.9c0.2,0.3,0.4,0.6,0.6,1l0,0c0.2,0.3,0.4,0.6,0.6,0.9l-1.1,0.9l1.1-0.8
		l0,0l0,0c0.8,1.1,2,2.5,3.7,4.4c1.7,1.9,3.8,4.1,6.3,6.8l0,0c2.6,2.7,4.6,4.9,6.2,6.7l0,0c1.6,1.9,2.8,3.3,3.5,4.4l0,0
		c0.6,1,1.1,2.2,1.4,3.7c0,0.2,0.1,0.5,0.2,0.9l0,0c0.3,1.8,0.5,4,0.5,6.6l0,0v0.1c0,1.8-0.2,3.2-0.6,4.3c-0.1,0.2-0.2,0.5-0.3,0.7
		l0,0c-0.1,0.2-0.2,0.4-0.4,0.6l0,0l0,0l-1.1-0.8l1.1,0.8c-0.5,0.8-1.2,1.2-2.1,1.4c-0.7,0.2-1.6,0.1-2.5-0.2l0,0
		c-1.2-0.4-2.2-1-2.9-1.9l0,0c-0.1-0.2-0.3-0.3-0.4-0.5c-0.1-0.2-0.2-0.4-0.3-0.6l0,0v0c-0.6-1.3-0.9-3.6-0.9-7v-9.3l-16.2-5.4v3.6
		c0,3.1,0.1,6,0.4,8.5c0.3,2.5,0.7,4.6,1.3,6.5l0,0c0.6,1.8,1.4,3.5,2.6,5.3c1.2,1.8,2.7,3.5,4.6,5.2l0,0c2.7,2.4,5.7,4.5,9.2,6.1
		c0.6,0.3,1.3,0.6,2.1,0.9c0.7,0.3,1.5,0.6,2.2,0.8l0,0h0l0,0c2.4,0.8,4.6,1.3,6.7,1.6c2,0.2,4,0.2,5.7-0.1c2.4-0.4,4.2-1.3,5.5-2.5
		l0,0c0.2-0.2,0.4-0.5,0.6-0.7l0,0c0.2-0.3,0.4-0.5,0.5-0.8v0l0,0l0,0c0.4-0.7,0.7-1.6,1-2.7c0.1-0.6,0.3-1.2,0.4-1.8
		c0.3-2,0.5-4.5,0.5-7.4l0,0v-0.1c0-4.1-0.3-7.7-0.9-10.8c-0.6-3.1-1.4-5.7-2.5-7.8c-1.1-2.2-3.1-4.9-5.9-8.2
		c-2.8-3.3-6.5-7.2-11-11.6c-1.6-1.6-2.9-3-3.9-4.2c-1-1.3-1.8-2.4-2.2-3.4c-0.3-0.8-0.6-1.7-0.8-2.7v0l-0.1-0.5v0
		c-0.2-1.2-0.3-2.5-0.3-4v-0.1c0-1.7,0.2-3.1,0.6-4.2l0,0c0.1-0.2,0.2-0.5,0.3-0.6c0.1-0.2,0.2-0.4,0.4-0.6v0v0l0,0l0,0l0,0l0,0
		c0.5-0.7,1.1-1.2,1.9-1.4c0.7-0.2,1.5-0.1,2.3,0.2c0.7,0.2,1.4,0.6,1.9,1c0.6,0.5,1,1,1.3,1.7l0,0c0.3,0.5,0.5,1.2,0.6,2.1v0
		l0.1,0.5v0c0.1,1,0.2,2.3,0.2,3.8l0,0v0.1L1415.1-1067.5L1415.1-1067.5z M1380.5-1045.7v-55.7l-18.1-4.6v60.8c0,2.1,0,3.9-0.1,5.2
		c-0.1,1.4-0.3,2.5-0.5,3.1v0c-0.5,1.3-1.4,2-2.7,2.1l0,0c-0.2,0-0.5,0-0.7,0c-0.2,0-0.5-0.1-0.7-0.1h0h0c-0.8-0.2-1.5-0.6-2-1.1
		l0,0c-0.6-0.5-1-1.2-1.2-2l0,0c-0.2-0.7-0.4-1.7-0.5-3c-0.1-1.3-0.1-2.8-0.1-4.7v-62.6l-18-4.6v48.4l0,0c0,4.8,0,8.7,0.1,11.9
		c0.1,3.1,0.2,5.4,0.4,6.9l0,0c0.1,1.4,0.5,2.8,1,4.3c0.5,1.5,1.2,3,2,4.5l0,0c0.8,1.5,1.9,2.9,3.2,4.3s2.8,2.7,4.6,4l0,0
		c2.5,1.8,5.3,3.3,8.4,4.4c0.6,0.2,1.2,0.4,1.8,0.6c0.6,0.2,1.3,0.4,1.9,0.6h0c2.9,0.7,5.6,1.1,7.9,1c0.5,0,0.9,0,1.3-0.1
		c0.4,0,0.8-0.1,1.3-0.2l0,0l0.1,0c1.4-0.3,2.7-0.7,3.9-1.4c1.1-0.6,2.1-1.5,3-2.4l0,0c0.9-1,1.6-2.1,2.1-3.2
		c0.5-1.1,0.9-2.2,1.1-3.3c0.1-1,0.3-2.3,0.4-3.9l0-1c0.1-2.2,0.1-4.8,0.1-7.9l0,0L1380.5-1045.7L1380.5-1045.7z M1328-1098.9v-14.2
		l-43.6-6.3v14.2l11.4,1.7l1.2,0.2v1.2v66.7l18.5,2.7v-66.3v-1.6l1.6,0.2L1328-1098.9L1328-1098.9z M1276.7-1036.8v-82.1l-15.2-0.6
		v36.8l-2.7,0.4l-11.7-37.7l-15.5-0.6v82.1l15.2,0.6v-37.1l2.7-0.4l10.9,38L1276.7-1036.8L1276.7-1036.8z M1221.2-1120.3l-32.9,2.4
		v82.1l34.3-2.5v-14.2l-14.2,1l-1.5,0.1v-1.5v-18.7v-1.3l1.3-0.1l12.1-0.9v-13.3l-11.9,0.9l-1.5,0.1v-1.5v-16.1v-1.3l1.3-0.1l13-0.9
		L1221.2-1120.3L1221.2-1120.3z M1171.6-1034.5l10.4-84l-19.4,3.5l-1.4,15l0,0c-0.9,9.2-1.7,19.4-2.5,30.6l-0.5,6.6l-0.5,6.8v0.1
		h-2.7c-0.8-11.4-2-24.7-3.5-39.7c-0.3-2.8-0.6-5.8-0.9-9c-0.3-2.6-0.6-5.3-0.9-8.1l-19.5,3.5l11.8,79.9L1171.6-1034.5
		L1171.6-1034.5z M1111.7-1023.4L1111.7-1023.4L1111.7-1023.4L1111.7-1023.4L1111.7-1023.4z M1122.8-1053.5v-54.9l-17.9,5.3v61.5
		c0,2.1,0,3.9-0.1,5.3c-0.1,1.5-0.3,2.6-0.5,3.3v0c-0.4,1.2-1.1,2.2-2.1,2.8l0,0c-0.2,0.1-0.4,0.2-0.6,0.3s-0.4,0.2-0.7,0.2h0h0
		c-0.9,0.3-1.6,0.2-2.3,0c-0.7-0.3-1.3-0.9-1.6-1.7l0,0c-0.2-0.6-0.4-1.6-0.5-2.8c-0.1-1.2-0.1-2.8-0.1-4.6v-61.8l-17.8,5.3v49.2
		l0,0c0,4.8,0,8.7,0.1,11.9c0.1,3,0.2,5.3,0.4,6.7v0c0.1,1.3,0.5,2.5,0.9,3.7s1.1,2.2,1.9,3.2l0,0c0.8,0.9,1.8,1.7,2.9,2.3
		c1.2,0.6,2.7,1.1,4.4,1.4c2.4,0.4,5.1,0.3,8.1-0.2c0.6-0.1,1.2-0.2,1.8-0.4c0.6-0.1,1.2-0.3,1.9-0.5l0,0l0.1,0l0,0
		c2.9-0.9,5.6-2,8-3.4l0,0c0.5-0.3,0.9-0.6,1.4-0.8c0.5-0.3,0.9-0.6,1.3-0.9l0,0l0,0l0.8,1.1l-0.8-1.1c1.5-1.1,2.8-2.3,4-3.7
		c1.2-1.3,2.3-2.8,3.2-4.4c0.9-1.6,1.7-3.1,2.2-4.5c0.5-1.4,0.9-2.7,1.1-4l0,0c0.1-1.1,0.3-2.5,0.4-4.2l0-1.1c0.1-2.3,0.1-4.9,0.1-8
		l0,0L1122.8-1053.5L1122.8-1053.5z M1068.1-1037.4v-54.8l-17.4,6.5v58.8l0,0c0,1.5,0,2.8,0,4.1c0,1.2-0.1,2.1-0.1,2.6
		c-0.1,0.7-0.3,1.4-0.6,2.1c-0.3,0.6-0.7,1.3-1.2,1.9l0,0c-0.5,0.6-1.1,1.2-1.8,1.7c-0.7,0.5-1.4,0.9-2.2,1.2
		c-0.4,0.1-1,0.3-1.7,0.6v11.8l8.2-3.1c3.1-1.2,5.7-2.3,7.7-3.4l0,0c0.4-0.2,0.8-0.4,1.1-0.6c0.3-0.2,0.6-0.4,0.9-0.6l0,0l0,0l0,0
		c1.5-1.1,2.7-2.3,3.7-3.7l0,0c0.2-0.3,0.4-0.6,0.6-0.9l0,0c0.2-0.3,0.4-0.6,0.5-0.9v0c0.8-1.6,1.4-3.2,1.7-4.8l0,0
		c0.1-0.3,0.1-0.7,0.2-1c0-0.3,0.1-0.6,0.1-0.9v0l0,0v-0.1l0,0c0.1-1.2,0.1-3.2,0.2-5.9C1068.1-1029.4,1068.1-1032.9,1068.1-1037.4
		L1068.1-1037.4z"/>
	<path fill="#1F1A17" d="M1279.4-771.7c0.2-0.8,2.7-4.9,5.6-10c7.5-13.1,17.8-32.7-0.7-19.3c-4.9,3.5-8,9-13.7,7.2l0,0
		c-5.7-1.8-9.1-8-7.2-13.7c5.1-15-12.4-13.1-12.7-1.3c-0.3,14.7-25.2,14.7-25.5,0c-0.2-11.7-17.7-13.7-12.7,1.3
		c1.9,5.7-1.4,11.9-7.2,13.7l0,0c-5.7,1.8-8.8-3.6-13.7-7.2c-25.7-18.6,4.3,26.6,4.9,29.4C1219-778.4,1245-780.7,1279.4-771.7
		L1279.4-771.7z"/>
</g>
</svg>
