<?xml version="1.0" encoding="utf-8"?>
<!-- Generator: Adobe Illustrator 19.1.0, SVG Export Plug-In . SVG Version: 6.00 Build 0)  -->
<svg version="1.1" id="Layer_1" xmlns="http://www.w3.org/2000/svg" xmlns:xlink="http://www.w3.org/1999/xlink" x="0px" y="0px"
	 viewBox="-418 616.1 174.7 177" enable-background="new -418 616.1 174.7 177" xml:space="preserve">
<g>
	<path d="M-322,785.9c-0.7,2.1-3,7.2-8.4,7.2c-6.2,0-8.3-6.7-8.5-7l-0.2-0.6c0,0,5.3,0.4,8.3,0.4s8-0.3,8.8-0.4V785.9L-322,785.9z"
		/>
	<path d="M-305.7,782.6l1.3,0.2c-1.5,4-4.2,8.4-9.6,8.4c-5.2,0-7.7-3-8.8-5l-0.9-0.5C-323.8,785.6-314.8,785.3-305.7,782.6
		L-305.7,782.6z"/>
	<path d="M-354.8,782.6l-1.3,0.2c1.5,4,4.2,8.4,9.6,8.4c5.2,0,8-3.2,9.1-5l0.6-0.5C-336.8,785.6-345.7,785.3-354.8,782.6
		L-354.8,782.6z"/>
	<path fill="#FFF22D" d="M-326,786.4c-0.8,1.2-1.4,1.2-2.4,1.2c-0.5,0-1.3,0.4-1.2,1.2c0,0.6,0.5,1.1,1.3,1.1c1.8,0,3.2-2.6,3.6-3.6
		c0,0,1.1,0,1.4-0.1c0,0-1.9,5.8-7,5.8c-5,0-7.1-5.7-7.1-5.7s4.2,0.3,6.7,0.3S-326.7,786.4-326,786.4L-326,786.4z"/>
	<path fill="#FFF22D" d="M-306.4,783.8c-3.3,0.9-5.6,1.6-11.1,2.3c0,0,0.2,0.6,1.4,0.5c0.5,0,0.5-0.1,0.7-0.2
		c0.3-0.1,0.9,0.3,0.8,0.9c0,0.4-0.4,0.9-1.6,0.9c-1.2,0-2.6-1-3.4-1.9c0,0-0.7,0.2-1.5,0.2c0,0,2.3,3.3,7,3.3
		C-309.1,789.8-307.2,785.3-306.4,783.8L-306.4,783.8z"/>
	<path fill="#FADE2F" d="M-309.8,787c0-0.8-0.2-1.5-0.7-2.1c-1.8,0.4-3.8,0.8-6.8,1.2c0,0.1,0,0.2-0.1,0.3c0.2,0.1,0.5,0.3,1.2,0.3
		c0.5,0,0.5-0.1,0.7-0.2c0.3-0.1,0.9,0.3,0.8,0.9c0,0.4-0.4,0.9-1.6,0.9c-0.3,0-0.6-0.1-1-0.2c0.2,0.6,0.4,1.1,0.8,1.5
		c0.7,0.2,1.4,0.3,2.3,0.3c1.6,0,2.9-0.5,4-1.2C-309.9,788.2-309.8,787.6-309.8,787L-309.8,787z"/>
	<path fill="#FBE02F" d="M-309.9,787c0-0.8-0.2-1.5-0.7-2.1c-1.8,0.4-3.8,0.8-6.7,1.2c0,0.1-0.1,0.2-0.1,0.3
		c0.2,0.1,0.5,0.3,1.1,0.2c0.5,0,0.5-0.1,0.7-0.2c0.3-0.1,0.9,0.3,0.8,0.9c0,0.4-0.4,0.9-1.6,0.9c-0.3,0-0.6-0.1-0.9-0.2
		c0.2,0.6,0.5,1.1,0.8,1.5c0.7,0.2,1.4,0.3,2.2,0.3c1.6,0,2.9-0.4,3.9-1.1C-310,788.2-309.9,787.6-309.9,787L-309.9,787z"/>
	<path fill="#FCE22F" d="M-309.9,787c0-0.8-0.2-1.5-0.7-2.1c-1.7,0.4-3.7,0.8-6.6,1.1c0,0.1-0.1,0.2-0.1,0.3
		c0.2,0.1,0.5,0.2,1.1,0.2c0.5,0,0.5-0.1,0.7-0.2c0.3-0.1,0.9,0.3,0.8,0.9c0,0.4-0.4,0.9-1.6,0.9c-0.3,0-0.6-0.1-0.8-0.1
		c0.2,0.6,0.5,1.1,0.9,1.5c0.6,0.1,1.3,0.2,2.1,0.2c1.5,0,2.8-0.4,3.8-1C-310.1,788.3-309.9,787.7-309.9,787L-309.9,787z"/>
	<path fill="#FFF22D" d="M-354.2,783.8c3.3,0.9,5.6,1.6,11.1,2.3c0,0-0.2,0.6-1.4,0.5c-0.5,0-0.5-0.1-0.7-0.2
		c-0.3-0.1-0.9,0.3-0.8,0.9c0,0.4,0.4,0.9,1.6,0.9c1.2,0,2.6-1,3.4-1.9c0,0,0.7,0.2,1.5,0.2c0,0-2.3,3.3-7,3.3
		C-351.5,789.8-353.4,785.3-354.2,783.8L-354.2,783.8z"/>
	<path fill="#FFF22D" d="M-330.8,756.7c17.6,0,37-10.8,50.6-26.3c1.5-1.7,4-4.9,9.9-4.9c5.9,0,13.8,5.4,12.9,15.3
		c-0.7,7.2-10.9,23.4-28.5,33.3s-33.7,12.1-45,12.1c-11.3,0-27.4-2.1-45-12.1s-27.8-26.2-28.5-33.3c-0.9-9.8,7-15.3,12.9-15.3
		s8.4,3.2,9.9,4.9C-367.8,746-348.3,756.7-330.8,756.7L-330.8,756.7z"/>
	<path d="M-330.8,756.1c8.5,0,17.5-2.6,26-7c8.9-4.6,17.3-11.2,24.2-19.1c0.8-0.9,1.8-2.1,3.4-3.2c1.6-1.1,3.9-1.9,7-1.9
		c0.3,0,0.7,0,1,0.1c2.9,0.3,6,1.7,8.4,4.1c2.4,2.4,4.1,5.8,4.1,10.2c0,0.5,0,1.1-0.1,1.6c-0.4,4.1-3.8,11.1-9.9,18.2
		c-4.8,5.6-11.1,11.2-18.9,15.6c-8.8,5-17.3,8.1-25,9.9c-7.7,1.8-14.6,2.3-20.3,2.3c-5.7,0-12.6-0.5-20.3-2.3
		c-7.7-1.8-16.2-4.8-25-9.9c-7.8-4.4-14.2-10.1-18.9-15.6c-6.1-7.1-9.5-14-9.9-18.2c-0.1-0.6-0.1-1.1-0.1-1.6
		c0-4.4,1.7-7.8,4.1-10.2c2.4-2.4,5.6-3.8,8.4-4.1c0.4,0,0.7-0.1,1-0.1c3.1,0,5.3,0.8,7,1.9c1.6,1.1,2.7,2.3,3.4,3.2
		c6.9,7.9,15.3,14.5,24.2,19.1C-348.3,753.5-339.3,756.1-330.8,756.1L-330.8,756.1z M-330.8,757.4c-8.7,0-17.9-2.6-26.6-7.1
		c-9-4.7-17.5-11.4-24.5-19.4c-0.7-0.8-1.7-2-3.2-2.9c-1.5-0.9-3.5-1.7-6.3-1.7c-0.3,0-0.6,0-0.9,0c-2.6,0.2-5.4,1.5-7.7,3.7
		c-2.2,2.2-3.8,5.3-3.8,9.3c0,0.5,0,1,0.1,1.5c0.4,3.9,3.7,10.6,9.6,17.5c4.7,5.5,10.9,11,18.6,15.4c8.7,5,17.1,8,24.7,9.7
		c7.6,1.8,14.4,2.3,20,2.3s12.4-0.5,20-2.3s16-4.8,24.7-9.7c7.7-4.4,13.9-9.9,18.6-15.4c5.9-6.9,9.2-13.6,9.6-17.5
		c0-0.5,0.1-1,0.1-1.5c0-4-1.6-7.1-3.8-9.3c-2.2-2.2-5.1-3.5-7.7-3.7c-0.3,0-0.6,0-0.9,0c-2.8,0-4.8,0.8-6.3,1.7
		c-1.5,1-2.4,2.1-3.2,2.9c-7,8-15.5,14.7-24.5,19.4C-312.9,754.8-322.1,757.4-330.8,757.4L-330.8,757.4z"/>
	<path fill="#C23227" d="M-383.4,732l-0.2-0.2c-1.4-1.6-3.3-3.8-7.9-3.8c-2.7,0-5.7,1.4-7.7,3.6c-1.5,1.6-3.2,4.5-2.8,9
		c0.6,6,10.2,21.7,27.3,31.4c13.8,7.8,28.5,11.8,43.8,11.8c15.3,0,30-4,43.8-11.8c17.1-9.7,26.7-25.4,27.3-31.4
		c0.4-4.4-1.3-7.3-2.8-9c-2-2.2-5-3.6-7.7-3.6c-4.6,0-6.5,2.2-7.9,3.8l-0.2,0.2c-14.7,16.7-34.8,27.1-52.5,27.1
		C-348.6,759.1-368.7,748.7-383.4,732L-383.4,732z"/>
	<path fill="#FFF22D" d="M-274.4,712.2c0-8.4,6.8-15.2,15.2-15.2c8.4,0,15.2,6.8,15.2,15.2s-6.8,15.2-15.2,15.2
		C-267.6,727.4-274.4,720.7-274.4,712.2L-274.4,712.2z"/>
	<path d="M-275,712.2c0-4.4,1.8-8.4,4.7-11.2c2.9-2.9,6.8-4.7,11.2-4.7c4.4,0,8.4,1.8,11.2,4.7c2.9,2.9,4.6,6.8,4.6,11.2
		s-1.8,8.4-4.6,11.2c-2.8,2.8-6.8,4.6-11.2,4.6c-4.4,0-8.4-1.8-11.2-4.6C-273.3,720.6-275,716.6-275,712.2L-275,712.2z
		 M-273.8,712.2c0,4,1.6,7.7,4.3,10.3s6.3,4.3,10.3,4.3c4,0,7.7-1.6,10.3-4.3c2.6-2.6,4.3-6.3,4.3-10.3s-1.6-7.7-4.3-10.3
		c-2.6-2.6-6.3-4.3-10.3-4.3c-4,0-7.7,1.6-10.3,4.3C-272.1,704.5-273.8,708.2-273.8,712.2L-273.8,712.2z"/>
	<path fill="#FFF22D" d="M-417.3,712.3c0-8.4,6.8-15.2,15.2-15.2s15.2,6.8,15.2,15.2s-6.8,15.2-15.2,15.2S-417.3,720.7-417.3,712.3
		L-417.3,712.3z"/>
	<path d="M-418,712.3c0-4.4,1.8-8.4,4.7-11.2c2.9-2.9,6.8-4.7,11.2-4.7s8.4,1.8,11.2,4.7c2.9,2.9,4.6,6.8,4.6,11.2
		s-1.8,8.4-4.6,11.2c-2.9,2.9-6.8,4.7-11.2,4.7s-8.4-1.8-11.2-4.7C-416.2,720.6-418,716.6-418,712.3L-418,712.3z M-416.7,712.3
		c0,4,1.6,7.7,4.3,10.3s6.3,4.3,10.3,4.3s7.7-1.6,10.3-4.3c2.6-2.6,4.3-6.3,4.3-10.3s-1.6-7.7-4.3-10.3c-2.6-2.6-6.3-4.3-10.3-4.3
		s-7.7,1.6-10.3,4.3C-415.1,704.6-416.7,708.2-416.7,712.3L-416.7,712.3z"/>
	<path d="M-255,671.2l0.1-4.1c1.2,0.9,3.6,1,5-0.5c0.6-0.7,1-1.7,0.9-2.8c-0.1-1.2-0.6-2.5-1.5-3.4c-5.1-5-9.7-10-9.7-10
		c-0.5-0.7-1.2-1.3-1.6-1.5c-0.6-0.3-2.9-1.3-4.6,1.3c-1.5,2.3-1.3,5.6-1,6.8l4.8,6.5C-260.9,665.8-256.3,670.2-255,671.2
		L-255,671.2z"/>
	<path d="M-357.6,628.8c6.1-2,11.6-3.7,19-4.4L-357.6,628.8L-357.6,628.8z"/>
	<path d="M-357.6,628.8c6.1-2,11.6-3.7,19-4.4l1.1-0.6c-4.2-3.3-8.3-5.5-12.4-5.5c-2.6,0-7.8,1.8-9,11L-357.6,628.8L-357.6,628.8z"
		/>
	<path d="M-303.9,628.8c-6.1-2-11.6-3.7-19-4.4l-1.1-0.6c4.2-3.3,8.3-5.5,12.4-5.5c2.6,0,7.8,1.8,9,11L-303.9,628.8L-303.9,628.8z"
		/>
	<path d="M-335.7,623.5c1.2-0.1,4.1-0.1,5.2-0.1s4.3,0.1,5,0.2L-335.7,623.5L-335.7,623.5z"/>
	<path d="M-337.6,624.1c3-5.8,5.8-8,7.4-8c1.9,0,4.2,3.1,6,7l0.4,0.9l-1.5-0.1c-1-0.2-4-0.2-5.1-0.2s-3.6,0-5.1,0.1L-337.6,624.1
		L-337.6,624.1z"/>
	<polygon fill="#FFF22D" points="-343.6,762.3 -346.3,772.5 -351.4,760.2 -354.5,759.4 -358.4,773.8 -355,774.7 -352.2,764.4 
		-347.1,776.8 -344,777.6 -340.1,763.2 	"/>
	<polygon fill="#FFF22D" points="-331.7,764.1 -335.6,763.9 -336.4,778.8 -332.5,779 	"/>
	<polygon fill="#FFF22D" points="-328.2,764 -327.9,766 -323.8,765.4 -322,778.2 -318.1,777.6 -319.9,764.8 -315.8,764.3 
		-316.1,762.3 	"/>
	<path fill="#FFF22D" d="M-287.9,757.9c1.9,3.3,1.5,5.7-1.4,7.4l-1.4,0.8l-5.5-9.5l1.5-0.9C-291.2,753.8-289.2,755.6-287.9,757.9
		L-287.9,757.9z M-295.5,754l-5,2.9l7.5,12.9l5-2.9c5.2-3,5.7-7.6,3.6-11.2C-286.9,751.5-290.9,751.4-295.5,754L-295.5,754z"/>
	<polygon fill="#FFF22D" points="-305,772.3 -306.4,767.8 -302,766.3 -302.6,764.4 -307.1,765.9 -308.3,761.9 -303.8,760.5 
		-304.4,758.6 -312.7,761.3 -308.1,775.4 -299,772.5 -299.6,770.6 	"/>
	<path fill="#FFF22D" d="M-361.6,755.9l-4.4,8c-1.3,2.4-2.7,3.9-4.9,2.6c-2.2-1.2-1.7-3.1-0.3-5.5l4.4-8l-3.6-2l-4.7,8.4
		c-2.6,4.6,0.7,7.5,3.2,8.9c2.7,1.5,6.6,2.6,9.2-2l4.7-8.5L-361.6,755.9L-361.6,755.9z"/>
	<path fill="#FFF22D" d="M-364.1,668.5v69.7l33.3,21.4l33.3-21.4v-69.6c-1.1-0.9-3.3-3-5-4.1h-56.9
		C-360.7,665.5-363.6,667.9-364.1,668.5L-364.1,668.5z"/>
	<polygon points="-363.5,668.5 -363.5,737.8 -330.8,758.9 -298.1,737.8 -298,668.6 -296.8,668.6 -296.8,738.2 -296.8,738.5 
		-297.1,738.7 -330.4,760.1 -330.8,760.4 -331.1,760.1 -364.5,738.7 -364.8,738.5 -364.8,668.5 	"/>
	<path d="M-297.8,669.1c-0.3-0.3-0.1-0.1-0.4-0.4l0,0c-1.1-1-3-2.8-4.5-3.7l0.7-1.1c1.6,1,3.6,2.8,4.7,3.8l0,0c0,0-0.1-0.1,0.4,0.4
		L-297.8,669.1L-297.8,669.1z"/>
	<polygon points="-302.4,665.1 -359.3,665.1 -359.3,663.9 -302.4,663.9 	"/>
	<path d="M-358.9,665c-0.7,0.5-1.6,1.2-2.5,2c-1,0.8-2,1.7-2.2,1.9l-0.9-0.9c0.3-0.3,1.3-1.2,2.3-2c0.9-0.8,1.9-1.6,2.6-2
		L-358.9,665L-358.9,665z"/>
	<path fill="#C23227" d="M-328.4,698.3c-0.2-0.1-1.1,0.6-1.4,1.2c-0.4,0.6-0.5,1.4,0,1.7c0.5,0.3,1.2-0.1,1.4-1
		C-328.4,699.5-328.2,698.4-328.4,698.3L-328.4,698.3z M-334.8,700.1c0.1,0.9,0.8,1.3,1.4,1c0.5-0.3,0.4-1.1,0-1.7s-1.2-1.3-1.4-1.2
		C-335,698.4-334.9,699.6-334.8,700.1L-334.8,700.1z M-331.5,709.4c1.1-1.8,1.6-3.7,1.6-3.7h-3.2
		C-333.1,705.6-332.6,707.6-331.5,709.4L-331.5,709.4z M-330.9,695.6l2.6-4.5l2,4.5h3.3c-2,1.9-2.8,4.8-2.8,6.7v2.1
		c0,0.9-0.4,2.3-0.4,2.3s2.9,2.2,3.3,2.6c0.2,0.2,0.4,0.2,0.3,0.6c-0.2,0.7-2.2,1.5-2.4,1.7c-0.4,0.4-0.6,0.6-0.4,1
		c0.1,0.4,0.5,0.4,1.3,0.2c0.8-0.3,2.3-1.1,3.7-1.6c1.3-0.6,3.1-0.4,3.1-0.4v-2.5h-5v-8.1l-0.9-1.4l2.2-3.9l2.2,3.9l-0.9,1.4v4.2
		h2.6v-4.2l-0.9-1.4l2.2-3.9l2.2,3.9l-0.9,1.4v4.2h2.6v-4.2l-0.9-1.4l2.2-3.9l2.2,3.9l-0.9,1.4v8.1h-5v3.7c1.1,1.1,2.2,3.5,2.2,4.9
		c0,1.5-0.9,2.1-0.9,2.1c0.3,1.1,0.3,1.6,0.1,2.7c-0.1,1.1-1.5,2.7-1.5,2.7v19.2c0,1.3-3,1.2-3,0.1v-18.9c-1.7-1.9-6.4-3.3-6.4-3.3
		c-1.7,1.7-2.8,4.7-2.8,4.7c0.8,0.5,1.9,0,2.3-0.5c0.4-0.5,1.3-0.6,1.8-0.3c0.5,0.3,0.6,0.4,0.4,1.2c-0.2,0.8-0.5,2-0.5,2.9
		s1,0.7,1.8,0.8c1.5,0.1,1.8,1.8,1.6,2.8c-0.1,0.9-0.6,3-0.6,4.2c0,1.3,0.1,2.5,0.2,3.2s0.4,1.5,0.3,2.3c-0.1,1.2-0.8,1.4-1.6,0.6
		c-0.8-0.8-11.3-12-11.3-12c-0.7,2.3,2.2,6.2,3.2,7.4c0.9,1.2,0.9,2.1,0.1,2.9c-0.8,0.8-2.4,1.3-2.7,2c-0.3,0.8,0.8,3,3,5.9
		c2.2,2.8-2.5,4.7-5.4,5.3c-2.8,0.6-2.8-1.4-2.7-2.5c0.2-1.1,0.2-1.7,0.1-2.7c-0.1-0.9-0.9-2.3-2.1-3.9c-1.2-1.6-1.2-3-0.7-6.7
		c0.5-3.7,0.4-6,0.4-6s-1.3,0.1-3.1,0c-1.8-0.1-3.3-1.1-3.5-5.5c-0.1-4.4-0.2-15-0.5-16.1c-0.3-1.1-1.5-1.3-2-1.4
		c-0.5-0.1-0.5-0.9,0-1.1c1.3-0.7,2.9-2.3,2.3-3.3c-0.6-1-2.9-0.8-4.5,0c-1.6,0.8-3.2,2.4-3.6,2.9c-0.4,0.5-0.8,0.5-0.7,0
		c0-0.5-0.3-2.9-0.5-3.7c-0.2-0.8-1-2.4-1.2-2.9c-0.3-0.4,0-0.6,0.4-0.4c0.4,0.2,1.3,0.5,2.2,0.8c0.9,0.3,1.7-0.2,2.1-1
		c0.4-0.8,1.2-2.7,1.6-3.5c0.4-0.8,1.1-0.6,1.6-0.5c0.5,0.1,1.1,0.5,1.6,0.7c0.5,0.2,0.9,0.2,1.1-0.1c0.2-0.3,0.4-0.3,0.7-1
		c0.3-0.6,0.7-0.3,0.7-0.1c1.5,9.1,5.4,9.5,5.4,9.5c-0.6,1.5-2,3.9-2.3,4.5c-0.3,0.6-0.5,1.4-0.5,2c-0.1,0.6,0.2,6.6,0.6,8.8
		c0.4,2.2,1.8,1.3,2.2,0.7c0.4-0.7,1.7-3.5,1.7-3.5s0.3-0.8,0.3-1.4s-1.1-2-1.3-2.4c-0.3-0.4-1.2-1.3-1.2-3.4s1.9-3.6,2.6-4.1
		c0.7-0.5,0.7-1.3,0.6-1.8c-0.3-1.6-2-5.1-2.9-6.4c-0.8-1.3-2.5-3.8-2.5-3.8h3.4l2.2-4.5l2.4,4.6L-330.9,695.6L-330.9,695.6z
		 M-317.5,718.5v-2.6c0,0-0.7-1.1-2.4-1.1c-1.7,0-2.7,0.5-2.7,0.9C-322.6,716.5-321.1,718.5-317.5,718.5L-317.5,718.5z"/>
	<polygon fill="#C23227" points="-361.5,685.9 -300,685.9 -300,690.1 -361.5,690.1 	"/>
	<polygon fill="#C23227" points="-361.5,683.7 -361.5,667 -300,667 -300,683.7 	"/>
	<polygon fill="#FFF22D" points="-312.1,684.2 -312.1,681.4 -316.6,681.4 -316.6,679.5 -312.9,679.5 -312.9,671.4 -316.3,671.4 
		-317.4,669.2 -318.6,671.4 -321.9,671.4 -321.9,679.5 -318.3,679.5 -318.3,681.4 -327,681.4 -327,679.5 -323.4,679.5 -323.4,671.4 
		-326.7,671.4 -327.8,669.2 -329,671.4 -332.3,671.4 -332.3,679.5 -328.7,679.5 -328.7,681.4 -337.6,681.4 -337.6,679.5 -334,679.5 
		-334,671.4 -337.3,671.4 -338.4,669.2 -339.6,671.4 -342.9,671.4 -342.9,679.5 -339.3,679.5 -339.3,681.4 -346.3,681.4 
		-353.4,679.7 -351.9,684.2 	"/>
	<polygon fill="#FFF22D" points="-350.9,679.4 -346.2,680.5 -343.7,673.4 -343.7,671.6 	"/>
	<path fill="#FFF22D" d="M-339.6,623.9c-7.3,0.6-11.8,2.2-17.7,4.2c0.4-2.6,1-4.1,2.1-5.6c-0.1,1.3,1,2.7,3.1,2.7
		c2.1,0,3.3-1.2,3.3-2c0-0.7-0.5-1.8-1.6-1.8c-1.2,0-1.4,0.8-1.3,1.2c0.1,0.3-0.2,0.4-0.5,0.5c-0.3,0.1-1.2-0.4-0.9-1.6
		c0.4-1.3,1.9-2,3.7-2C-349.4,619.6-345,619.4-339.6,623.9L-339.6,623.9z"/>
	<path fill="#FFF22D" d="M-304.2,628.2c-5.9-2-10.6-3.5-17.9-4.2c3.4-2.3,6.5-4.3,9.9-4.3c1.8,0,3.3,0.7,3.7,2
		c0.3,1.2-0.6,1.6-0.9,1.6c-0.3-0.1-0.6-0.2-0.5-0.5s-0.2-1.2-1.3-1.2s-1.6,1.1-1.6,1.8s1.2,2,3.3,2s3.2-1.4,3.1-2.7
		C-305.3,624.1-304.6,625.6-304.2,628.2L-304.2,628.2z"/>
	<path fill="#FFF22D" d="M-335.1,622.6c-0.2,0.3-0.4,0.5-0.6,0.9c1.2-0.1,4-0.1,5.1-0.1s4.2,0.1,4.9,0.2c-1.1-2.5-3.1-6-4.6-6
		c-0.3,0-0.9-0.1-2.1,1.2c0,0-0.2,0.6,0.6,0.5c0.9-0.1,1.3,0.8,1.2,1.3c-0.2,1.1-1.5,2.2-2.8,2.2
		C-334.7,622.8-335.1,622.6-335.1,622.6L-335.1,622.6z"/>
	<path d="M-398.7,663.7l4.8-6.5c0.3-1.2,0.5-4.5-1-6.8c-1.7-2.6-3.9-1.6-4.6-1.3c-0.4,0.2-1.2,0.7-1.6,1.5c0,0-4.6,5.1-9.7,10.1
		c-0.7,0.7-1.5,2-1.6,3.2c-0.1,1.1,0.4,2.2,1,2.8c1.4,1.5,3.8,1.4,5.1,0.5l0.1,4.1C-404.9,670.2-400.3,665.8-398.7,663.7
		L-398.7,663.7z"/>
	<path fill="#FFF22D" d="M-330.8,654.1c27.4,0,43.1,25.8,46.5,30.3c6.1,8.1,13.5,14.6,22.1,12.5c12.6-3.2,12-21.9,12-21.9
		c-3-2.2-8.2-4.9-17.7-18.4c-9.3-13.1-30.2-32.6-62.8-32.6s-53.5,19.5-62.8,32.6c-9.5,13.4-14.6,16.2-17.7,18.4
		c0,0-0.7,18.7,12,21.9c8.6,2.2,16-4.4,22.1-12.5C-373.9,679.9-358.2,654.1-330.8,654.1L-330.8,654.1z"/>
	<path d="M-330.8,653.5c25.5,0,40.9,21.9,45.9,29c0.5,0.6,0.8,1.2,1.1,1.5c3,4,6.3,7.6,9.9,9.9c3.5,2.3,7.4,3.3,11.5,2.3
		c11.2-2.8,11.5-18.6,11.5-21c-0.2-0.2-0.5-0.4-0.8-0.5c-3.2-2.2-8.3-5.7-16.8-17.8c-5.3-7.5-14.5-17.2-27.6-24
		c-9.5-4.9-21.1-8.4-34.7-8.4c-13.6,0-25.2,3.4-34.7,8.4c-13.1,6.8-22.3,16.4-27.6,24c-8.5,12.1-13.6,15.6-16.8,17.8
		c-0.3,0.2-0.5,0.4-0.8,0.5c0,2.4,0.3,18.1,11.5,21c4.1,1,7.9,0,11.5-2.3s6.9-5.9,9.9-9.9c0.2-0.3,0.6-0.9,1.1-1.5
		C-371.7,675.4-356.3,653.5-330.8,653.5L-330.8,653.5z M-330.8,654.8c-24.9,0-40,21.5-44.9,28.5c-0.4,0.6-0.8,1.1-1.1,1.5
		c-3.1,4.1-6.5,7.8-10.2,10.2c-3.8,2.5-8,3.6-12.5,2.5c-13.1-3.3-12.4-22.5-12.4-22.5v-0.3l0.3-0.2c0.3-0.2,0.7-0.5,1.1-0.7
		c3.1-2.1,8.1-5.6,16.5-17.5c5.4-7.7,14.8-17.5,28-24.4c9.7-5,21.4-8.5,35.3-8.5c13.8,0,25.6,3.5,35.3,8.5
		c13.3,6.9,22.6,16.7,28,24.4c8.4,11.9,13.4,15.3,16.5,17.5c0.4,0.3,0.7,0.5,1.1,0.7l0.3,0.2v0.3c0,0.1,0.7,19.2-12.4,22.5
		c-4.5,1.1-8.6,0-12.5-2.5c-3.8-2.4-7.2-6.1-10.2-10.2c-0.3-0.4-0.7-0.9-1.1-1.5C-290.8,676.3-305.9,654.8-330.8,654.8L-330.8,654.8
		z"/>
	<path fill="#C23227" d="M-330.8,651.7c26.5,0,42.2,22.4,47.4,29.8c0.4,0.6,0.8,1.1,1,1.5c7,9.3,13.4,13.1,19.5,11.6
		c8.9-2.2,10-14.4,10.1-18.1v-0.1l-0.1-0.1c-3.1-2.3-8.3-5.9-17.1-18.3c-5.2-7.4-25.1-31.6-60.8-31.6s-55.6,24.2-60.8,31.6
		c-8.7,12.3-14.1,16.1-17.1,18.1l-0.1,0.1v0.1c0.1,3.7,1.2,15.9,10.1,18.2c6.1,1.6,12.5-2.2,19.5-11.6c0.3-0.3,0.6-0.9,1-1.5
		C-373,674.1-357.2,651.7-330.8,651.7L-330.8,651.7z"/>
	<polygon fill="#FFF22D" points="-387.7,662 -390.5,665.3 -385.3,676 -396.4,672.4 -398.8,675.2 -387.4,684.8 -385.6,682.8 
		-393.7,676 -382.9,679.5 -381.8,678.1 -386.9,667.8 -378.8,674.6 -376.3,671.6 	"/>
	<path fill="#FFF22D" d="M-373.3,659.8l-2.6,2.8l-2.6-5.1L-373.3,659.8L-373.3,659.8z M-379.3,653l-2.5,2.7l7.1,14.2l1.7-1.9
		l-1.9-3.8l3.5-3.7l3.9,1.7l2.9-3.1L-379.3,653L-379.3,653z"/>
	<polygon fill="#FFF22D" points="-361.9,639.6 -356.3,648.5 -368.7,643.8 -371.5,645.6 -363.6,658.2 -360.6,656.3 -366.2,647.3 
		-353.7,652 -351,650.3 -358.9,637.7 	"/>
	<polygon fill="#FFF22D" points="-314.8,646.9 -313.2,642.3 -308.8,643.8 -308.2,641.9 -312.5,640.4 -311.2,636.6 -306.7,638.1 
		-306.1,636.2 -314.3,633.4 -319.1,647.5 -310.1,650.6 -309.4,648.7 	"/>
	<polygon fill="#FFF22D" points="-289.3,645.9 -290.6,647.4 -287.5,650.2 -296.1,659.8 -293.2,662.4 -284.6,652.8 -281.5,655.6 
		-280.2,654.1 	"/>
	<polygon fill="#FFF22D" points="-285,668.3 -281.3,665.2 -278.4,668.8 -276.8,667.5 -279.8,663.9 -276.7,661.3 -273.6,664.9 
		-272.1,663.7 -277.7,657 -289.1,666.6 -282.9,673.9 -281.4,672.6 	"/>
	<path fill="#FFF22D" d="M-267.8,672.1c1,1.2,1,2.5-0.1,3.6c-1.2,1.1-2.7,0.8-3.8-0.4l-0.7-0.7l3.8-3.4L-267.8,672.1L-267.8,672.1z
		 M-269.8,679.4c0,0,2.3,1.2,4.8-1.1c2.1-1.9,1.4-4.5-0.8-6.9l-4.1-4.5l-11.1,10l2.6,2.9l4.4-4l1.3,1.4l-2.8,6.3l3.3,2.7
		L-269.8,679.4L-269.8,679.4z"/>
	<polygon fill="#FFF22D" points="-325.8,632.2 -325.9,638.2 -331.7,638.1 -331.6,632.1 -335.5,632 -335.8,646.9 -331.9,646.9 
		-331.7,640.1 -325.9,640.2 -326,647 -322.1,647.1 -321.8,632.2 	"/>
	<path fill="#FFF22D" d="M-304.6,654.3c2.8,1.7,5.8,1.4,7.2-0.9c1-1.6,1-3-0.2-5.4c-0.3-0.7-0.7-1.2-1-1.8c-0.5-1-1-1.9-0.6-2.7
		c0.5-0.9,1.7-0.9,2.8-0.3c1.1,0.7,1.6,1.8,1.9,2.6l1.8-0.8c-0.6-1.5-1.4-2.8-3.2-3.9c-3.2-1.9-5.8-1.4-6.9,0.4s-0.8,3.3,0,4.9
		c0,0,0.5,0.9,0.8,1.5c0.7,1.2,1.5,2.7,1,3.7c-0.7,1.2-2,1.4-3.1,0.7c-1.5-1-1.9-2.1-2.2-3.2l-2,0.9
		C-307.8,651.4-306.8,652.9-304.6,654.3L-304.6,654.3z"/>
	<path fill="#FFF22D" d="M-345.1,632.9c-4.9,1-8.1,4.6-7,9.5c0.6,2.6,2.9,7.5,10.3,5.9c2-0.4,3.2-1.2,4.2-2.2l-1.4-1.6
		c-0.5,0.6-1.3,1.4-3,1.8c-3.6,0.8-5.7-2.1-6.2-4.6c-0.8-3.7,1.4-6.3,3.8-6.8c1.7-0.4,2.8,0.1,3.5,0.4l0,0l0.5-1.9
		C-341.6,632.8-343,632.5-345.1,632.9L-345.1,632.9z"/>
	<path fill="#FFF22D" d="M-266.2,657.7c-0.2-0.9-0.5-4.7,0.9-6.6c1.3-1.8,2.5-1.2,3.2-0.9c0.3,0.1,1.2,0.7,1.3,1.8
		c0.1,0.6-0.1,1.5-0.6,2.1c-0.9,1.2-3,2-3,2s2.6,5.2,8.2,10.3v3.5C-263.7,662.4-266.2,657.7-266.2,657.7L-266.2,657.7z"/>
	<path fill="#FFF22D" d="M-262.4,656.6c0.8,1.3,2.7,4.5,7.5,9c0.8,0.7,2.8,1.4,3.9,0.1c0.4-0.5,0.7-1.2,0.7-2
		c-0.1-0.9-0.6-2-1.2-2.5c-1-0.8-5.1-5-8.1-8.3c-0.1,0.6-0.6,1.6-0.6,1.6C-260.5,655.2-261,656-262.4,656.6L-262.4,656.6z"/>
	<path fill="#FFF22D" d="M-405.1,669.6v-3.3c5.6-5.1,8.2-10.3,8.2-10.3s-2.1-0.8-3-2c-0.5-0.6-0.7-1.5-0.6-2.1
		c0.2-1.1,1-1.7,1.3-1.8c0.6-0.3,1.9-0.9,3.2,0.9c1.4,2,1.1,5.7,0.9,6.6C-395.1,657.7-397.7,662.2-405.1,669.6L-405.1,669.6z"/>
	<path fill="#FFF22D" d="M-398.9,656.6c-0.8,1.3-2.7,4.5-7.5,9c-0.8,0.7-2.8,1.4-3.9,0.1c-0.4-0.5-0.7-1.2-0.7-2
		c0.1-0.9,0.6-2,1.2-2.5c1-0.8,5.1-5,8.1-8.3c0.1,0.6,0.6,1.6,0.6,1.6C-400.8,655.2-400.3,656-398.9,656.6L-398.9,656.6z"/>
	<path fill="#C23227" d="M-414.5,712.4c0-6.8,5.6-12.4,12.4-12.4c6.9,0,12.4,5.6,12.4,12.4c0,6.9-5.6,12.4-12.4,12.4
		S-414.5,719.2-414.5,712.4L-414.5,712.4z"/>
	<path fill="#FFF22D" d="M-395.4,703.4c0.2,0.2,0.8,0.6,0.8,0.6c1.1,1,2,2.1,2.6,3.4c0.7,1.7-1.5,4.2-2.1,4.8
		c-2.9,2.7-4.7,2.7-5.7,2.8c-1,0.1-1.7-0.5-1.7-1.3c0.1-2.3,1.7-6.2,2.1-6.9c0.3-0.5,0.8-0.8,0.8-0.8c1.1-0.3,2.1-0.8,2.6-1.4
		C-395.4,704.2-395.4,703.4-395.4,703.4L-395.4,703.4z M-405.8,701.8c1.1-0.4,2.4-0.6,3.6-0.6c1.9,0,3.8,0.4,5.4,1.4
		c0.4,0.3,0.5,0.6,0.5,1c0,1.5-2.3,2-3.8,2s-3.4-0.6-4.7-1c-1.3-0.4-1.6-1.2-1.6-1.5C-406.5,702.6-406.2,701.9-405.8,701.8
		L-405.8,701.8z M-410.7,719.6c-1.6-1.5-2.7-4.3-2.7-7.2c0-1.1,0.2-2.2,0.5-3.3c0,0,0.3-0.5,0.5-0.1c0.2,0.3,0.4,0.6,0.7,1
		c0.2,0.4,1.4,1.3,1.3,2c-0.4,2.7,0,6.4,0.1,7C-410.2,719.7-410.4,720-410.7,719.6L-410.7,719.6z M-410.4,710.2
		c-0.6-0.3-1.2-1.7-1.4-2.1c-0.2-0.3-0.1-1.1,0.1-1.5c0.9-1.6,2.2-3.1,3.9-3.9c0.2-0.1,0.5-0.1,0.5,0.4c0,0.3,0.1,0.7,0.1,0.9
		c0,0.3,0.1,0.8-0.2,1.2c-0.3,0.4-1.9,3.1-2.2,4.6C-409.7,710.2-409.8,710.5-410.4,710.2L-410.4,710.2z M-401.9,723.6
		c-0.1,0-0.2,0-0.2,0c-2.1,0-4.3-0.8-5.7-1.5c-1.4-0.8-1.9-4.3-1.9-6.1c0-5.9,2.4-9.4,2.8-10.1c0.4-0.7,1.2-0.8,1.9-0.6
		c0.6,0.2,0.9,0.3,1.6,0.5c0.4,0.1,1.2,0.3,1.8,0.4s1.2,0.3,0.9,1.4c-0.4,1.1-1.7,3.8-1.8,7c-0.1,2.9,0.3,5.7,0.9,7.5
		C-401.2,723.2-401.2,723.6-401.9,723.6L-401.9,723.6z M-398.9,723.2c-0.6,0.2-0.9-0.2-1.2-0.6c-1.2-1.3-1.5-4.9-1.5-5.3
		c0-0.5,0.2-1,0.5-1c2.8-0.1,4.8-0.9,6.6-2.4c1.8-1.5,2.6-3.2,2.8-3.5c0.2-0.3,0.5-0.3,0.6,0.2c0.1,0.4,0.2,1.1,0.2,1.9
		C-390.9,717.5-394.3,721.7-398.9,723.2L-398.9,723.2z"/>
	<path fill="#C23227" d="M-246.6,712.4c0-6.8-5.6-12.4-12.4-12.4c-6.9,0-12.4,5.6-12.4,12.4c0,6.9,5.6,12.4,12.4,12.4
		C-252.2,724.8-246.6,719.2-246.6,712.4L-246.6,712.4z"/>
	<path fill="#FFF22D" d="M-265.1,704.8c0.5,0.6,1.6,1.1,2.6,1.4c0,0,0.5,0.3,0.8,0.8c0.5,0.7,2.1,4.6,2.1,6.9c0,0.8-0.6,1.4-1.7,1.3
		c-1-0.1-2.8-0.1-5.7-2.8c-0.6-0.6-2.8-3.1-2.1-4.8c0.6-1.3,1.5-2.5,2.6-3.4c0,0,0.5-0.4,0.8-0.6
		C-265.7,703.4-265.7,704.2-265.1,704.8L-265.1,704.8z M-254.6,702.9c0,0.3-0.3,1.1-1.6,1.5c-1.3,0.4-3.2,1-4.7,1s-3.8-0.5-3.8-2
		c0-0.5,0.1-0.8,0.5-1c1.6-1,3.4-1.4,5.4-1.4c1.3,0,2.5,0.2,3.6,0.6C-254.9,701.9-254.6,702.6-254.6,702.9L-254.6,702.9z
		 M-250.8,719.1c0.1-0.6,0.5-4.3,0.1-7c-0.1-0.7,1.1-1.6,1.3-2c0.2-0.4,0.5-0.7,0.6-1c0.3-0.4,0.5,0.1,0.5,0.1
		c0.3,1,0.5,2.1,0.5,3.3c0,2.9-1.1,5.7-2.7,7.2C-250.7,720-250.9,719.7-250.8,719.1L-250.8,719.1z M-251.4,709.8
		c-0.4-1.5-1.9-4.1-2.2-4.6c-0.3-0.4-0.2-1-0.2-1.2c0-0.3,0.1-0.7,0.1-0.9c0-0.5,0.3-0.5,0.5-0.4c1.7,0.8,3,2.3,3.9,3.9
		c0.2,0.4,0.2,1.2,0.1,1.5c-0.2,0.4-0.9,1.8-1.4,2.1C-251.3,710.5-251.3,710.2-251.4,709.8L-251.4,709.8z M-259.4,722.1
		c0.6-1.8,1-4.6,0.9-7.5c-0.1-3.2-1.4-5.9-1.8-7c-0.4-1.1,0.3-1.2,0.9-1.4c0.6-0.2,1.4-0.3,1.8-0.4c0.7-0.2,1-0.4,1.6-0.5
		c0.6-0.2,1.5-0.1,1.9,0.6c0.4,0.7,2.8,4.2,2.8,10.1c0,1.8-0.5,5.4-1.9,6.1c-1.3,0.8-3.6,1.5-5.7,1.5c-0.1,0-0.2,0-0.2,0
		C-259.8,723.6-259.8,723.2-259.4,722.1L-259.4,722.1z M-270.2,712.4c0-0.8,0.1-1.5,0.2-1.9c0.1-0.5,0.4-0.5,0.6-0.2
		c0.2,0.3,1,2,2.8,3.5c1.8,1.5,3.8,2.3,6.6,2.4c0.3,0,0.5,0.5,0.5,1s-0.3,4-1.5,5.3c-0.3,0.3-0.6,0.8-1.2,0.6
		C-266.8,721.7-270.2,717.5-270.2,712.4L-270.2,712.4z"/>
	<path fill="#FDE62F" d="M-271.4,712.3c0-3.4,1.4-6.6,3.7-8.8c2.3-2.3,5.4-3.7,8.8-3.7s6.6,1.4,8.8,3.7c2.3,2.3,3.6,5.4,3.6,8.8
		c0,3.4-1.4,6.6-3.6,8.8c-2.2,2.2-5.4,3.6-8.8,3.6s-6.6-1.4-8.8-3.6C-270,718.9-271.4,715.8-271.4,712.3L-271.4,712.3z
		 M-271.2,712.3c0,3.4,1.4,6.5,3.6,8.7c2.2,2.2,5.3,3.6,8.7,3.6s6.5-1.4,8.7-3.6c2.2-2.2,3.6-5.3,3.6-8.7s-1.4-6.5-3.6-8.7
		c-2.2-2.2-5.3-3.6-8.7-3.6s-6.5,1.4-8.7,3.6C-269.9,705.8-271.2,708.9-271.2,712.3L-271.2,712.3z"/>
</g>
</svg>
