<?xml version="1.0" encoding="utf-8"?>
<!-- Generator: Adobe Illustrator 19.1.0, SVG Export Plug-In . SVG Version: 6.00 Build 0)  -->
<svg version="1.1" id="Layer_1" xmlns="http://www.w3.org/2000/svg" xmlns:xlink="http://www.w3.org/1999/xlink" x="0px" y="0px"
	 viewBox="-417.7 618.6 146.1 175.4" enable-background="new -417.7 618.6 146.1 175.4" xml:space="preserve">
<g>
	
		<path fill="#EDDF3F" stroke="#000000" stroke-width="0.4764" stroke-linecap="round" stroke-linejoin="round" stroke-miterlimit="2.6131" d="
		M-379.9,702c0.4,3.7,0.6,7.6,0.6,11.5c-0.1,11.2-2.1,20.9-5.1,27.6c-1,2.2-2.1,4.1-3.3,5.6c-0.6-5.7-1-11.9-1-18.2
		c0-2.7,0.1-5.3,0.2-7.9l3.2-19.8L-379.9,702L-379.9,702z"/>
	
		<path fill="#EDDF3F" stroke="#000000" stroke-width="0.4764" stroke-linecap="round" stroke-linejoin="round" stroke-miterlimit="2.6131" d="
		M-307.7,702c-0.4,3.7-0.6,7.6-0.6,11.5c0.1,11.2,2.1,20.9,5.1,27.6c1,2.2,2.1,4.1,3.3,5.6c0.7-5.7,1-11.9,1-18.2
		c0-2.7-0.1-5.3-0.2-7.9l-3.2-19.8L-307.7,702L-307.7,702z"/>
	
		<path fill="#EDDF3F" stroke="#000000" stroke-width="0.4764" stroke-linecap="round" stroke-linejoin="round" stroke-miterlimit="2.6131" d="
		M-384.1,698.4c-1.4,20-4.5,37.9-8.4,51.5c-0.4,1.1-0.9,2.1-1.5,2.7c-3.3,3.8-7.1,6.7-11.1,8.5c4.6-5,7.7-15.4,8.4-28
		c3-8,5.1-19.2,5.6-31.9c0.1,0.7,0.2,1.5,0.1,2.5c0.6-1.2,1.4-2.1,2.1-2.4c0.6-0.4,1.2-1.1,1.8-2.1c0.3-0.5,0.5-1,0.7-1.5
		c0-0.1,0.1-0.3,0.1-0.4L-384.1,698.4L-384.1,698.4z"/>
	
		<path fill="#EDDF3F" stroke="#000000" stroke-width="0.4764" stroke-linecap="round" stroke-linejoin="round" stroke-miterlimit="2.6131" d="
		M-303.4,698.4c1.4,20,4.4,37.9,8.4,51.5c0.4,1.1,0.9,2.1,1.5,2.7c3.4,3.8,7.1,6.7,11.1,8.5c-4.6-5-7.7-15.4-8.4-28
		c-3-8-5-19.2-5.6-31.9c-0.1,0.7-0.2,1.5-0.1,2.5c-0.6-1.2-1.4-2.1-2.1-2.4c-0.6-0.4-1.3-1.1-1.8-2.1c-0.3-0.5-0.5-1-0.7-1.5
		c0-0.1-0.1-0.3-0.1-0.4L-303.4,698.4L-303.4,698.4z"/>
	
		<path fill="#EDDF3F" stroke="#000000" stroke-width="0.4764" stroke-linecap="round" stroke-linejoin="round" stroke-miterlimit="2.6131" d="
		M-391,689.8c0.6,28.2-5.7,51.6-14.7,55.7c-1.6,0.6-3.1,1.5-4.4,2.5c-0.2,0.2-0.4,0.4-0.6,0.6c2.8-3.4,5.2-8.9,6.9-16
		c1.5-6,2.4-13.2,2.8-21.1l3-14.3L-391,689.8L-391,689.8z"/>
	
		<path fill="#EDDF3F" stroke="#000000" stroke-width="0.4764" stroke-linecap="round" stroke-linejoin="round" stroke-miterlimit="2.6131" d="
		M-296.5,689.8c-0.6,28.2,5.7,51.6,14.7,55.7c1.6,0.6,3.1,1.5,4.4,2.5c0.2,0.2,0.4,0.4,0.6,0.6c-2.9-3.4-5.2-8.9-6.9-16
		c-1.5-6-2.4-13.2-2.8-21.1l-3-14.3L-296.5,689.8L-296.5,689.8z"/>
	
		<path fill="#EDDF3F" stroke="#000000" stroke-width="0.4764" stroke-linecap="round" stroke-linejoin="round" stroke-miterlimit="2.6131" d="
		M-396.7,690.4c0.1,8.2-0.8,16-2.4,22.8c-2.7,11.2-7.6,19-13.9,19.6c-0.9,0.1-1.7,0-2.6-0.2c4-3.1,7.1-9.4,9.1-17.6
		c0.7-2.8,1.2-5.8,1.6-9C-401.8,702.9-399,697.5-396.7,690.4L-396.7,690.4z"/>
	
		<path fill="#EDDF3F" stroke="#000000" stroke-width="0.4764" stroke-linecap="round" stroke-linejoin="round" stroke-miterlimit="2.6131" d="
		M-290.8,690.4c-0.1,8.2,0.8,16,2.4,22.8c2.7,11.2,7.6,19,13.9,19.6c0.9,0.1,1.7,0,2.6-0.2c-3.9-3.1-7.1-9.4-9.1-17.6
		c-0.7-2.8-1.2-5.8-1.6-9C-285.8,702.9-288.6,697.5-290.8,690.4L-290.8,690.4z"/>
	
		<path fill="#EDDF3F" stroke="#000000" stroke-width="0.4764" stroke-linecap="round" stroke-linejoin="round" stroke-miterlimit="2.6131" d="
		M-392.9,673.4c-3.2,20.9-10.1,35.5-18,35.5l0,0c2.4-3.4,4.5-8.4,6.1-14.6c0.7-2.8,1.4-5.8,1.9-9c3.3-2.2,6.3-6,8.1-10.9
		c0.1-0.3,0.4-0.6,0.8-0.7l0,0C-393.6,673.7-393.2,673.6-392.9,673.4L-392.9,673.4z"/>
	
		<path fill="#EDDF3F" stroke="#000000" stroke-width="0.4764" stroke-linecap="round" stroke-linejoin="round" stroke-miterlimit="2.6131" d="
		M-294.6,673.4c3.2,20.9,10,35.5,18,35.5l0,0c-2.4-3.4-4.5-8.4-6.1-14.6c-0.7-2.8-1.4-5.8-1.9-9c-3.4-2.2-6.3-6-8.1-10.9
		c0-0.3-0.4-0.6-0.8-0.7l0,0C-294,673.7-294.4,673.6-294.6,673.4L-294.6,673.4z"/>
	
		<path fill="#EDDF3F" stroke="#000000" stroke-width="0.4764" stroke-linecap="round" stroke-linejoin="round" stroke-miterlimit="2.6131" d="
		M-375.7,706v20.9c-2-1-3.8-5.2-4.2-10.4c-0.2-2.7-0.1-5.3,0.4-7.3c0.1,0.3,0.1,0.5,0.2,0.8c0.6-1.5,1.5-2.6,2.3-3L-375.7,706
		L-375.7,706z"/>
	
		<path fill="#EDDF3F" stroke="#000000" stroke-width="0.4764" stroke-linecap="round" stroke-linejoin="round" stroke-miterlimit="2.6131" d="
		M-311.8,706v20.9c2-1,3.8-5.2,4.2-10.4c0.2-2.7,0.1-5.3-0.4-7.3c-0.1,0.3-0.1,0.5-0.2,0.8c-0.6-1.5-1.4-2.6-2.2-3L-311.8,706
		L-311.8,706z"/>
	
		<path fill="#EDDF3F" stroke="#000000" stroke-width="0.4764" stroke-linecap="round" stroke-linejoin="round" stroke-miterlimit="2.6131" d="
		M-374.3,695.2h-1.4v10.9l-1.4,1.1c-0.8,0.3-1.6,1.5-2.3,3c-0.2-1.2-0.5-2.1-1.1-2.6c-0.4-0.5-0.9-1.5-1.2-2.6
		c-0.2-0.8-0.3-1.5-0.3-2.1c0-1.2,0.1-2.5,0.2-3.8c0.4-3.8,1.4-7.1,2.7-9.4l0,0c0.1,0.2,0.3,0.4,0.4,0.6c1.5,1.9,2.3,4.1,3.3-0.2
		C-376,693.7-375.1,694.3-374.3,695.2L-374.3,695.2z"/>
	
		<path fill="#EDDF3F" stroke="#000000" stroke-width="0.4764" stroke-linecap="round" stroke-linejoin="round" stroke-miterlimit="2.6131" d="
		M-313.2,695.2h1.4v10.9l1.4,1.1c0.8,0.3,1.6,1.5,2.2,3c0.2-1.2,0.5-2.1,1.1-2.6c0.5-0.5,0.9-1.5,1.2-2.6c0.2-0.8,0.3-1.5,0.3-2.1
		l0,0c0-1.2-0.1-2.5-0.2-3.8c-0.4-3.8-1.4-7.1-2.6-9.4l0,0c-0.1,0.2-0.3,0.4-0.4,0.6c-1.5,1.9-2.3,4.1-3.3-0.2
		C-311.6,693.7-312.4,694.3-313.2,695.2L-313.2,695.2z"/>
	
		<path fill="#EDDF3F" stroke="#000000" stroke-width="0.4764" stroke-linecap="round" stroke-linejoin="round" stroke-miterlimit="2.6131" d="
		M-351.5,693.4c-1,0.7-2.1,1.3-3.3,1.8h-5.1c1-3,3.3-5.1,5.9-6.4c1.8,0.2,3.6,0.1,4.5,0.1C-350.6,689.7-352.1,690.9-351.5,693.4
		L-351.5,693.4z"/>
	
		<path fill="#EDDF3F" stroke="#000000" stroke-width="0.4764" stroke-linecap="round" stroke-linejoin="round" stroke-miterlimit="2.6131" d="
		M-328.7,684.9c1.7,3.3,1.3,7.2,0.9,10.2h-0.6c-1-0.9-2.7-2.9-2.8-3.5c0.6-4.8-1.1-7.3-3.1-8.7
		C-332.2,683.5-330.3,684.2-328.7,684.9L-328.7,684.9z"/>
	
		<path fill="#EDDF3F" stroke="#000000" stroke-width="0.4764" stroke-linecap="round" stroke-linejoin="round" stroke-miterlimit="2.6131" d="
		M-396.9,661.6c1.8-2.2,4.4-3.6,7.2-3.6c4.2,0,7.9,3.1,9.3,7.4c3.3,11.1,9.3,21.9,18,29.7h-11.9c-0.8-0.9-1.7-1.5-1-5.4
		c-1,4.3-1.8,2.2-3.3,0.2c-1.1-1.4-1.9-1.8-1-5.3c-1,3.5-1.9,1.4-3.3-0.8c-1.3-2.1-0.7-3-0.3-4.7c-0.8,2.7-1.5,1.5-2.8-1.2
		c-1.1-2.4-0.9-2.5,0.1-5.2c-1.6,3.4-2.3,0.4-3.1-1.7c-0.6-1.5,0.3-2.7,0.5-3.8c-1.5,2.5-1.2,1.3-1.2,0.6c0-1.1,0.2-2,0.6-2.6
		c0-0.1,0.1-0.2,0.1-0.4c0-0.3-0.1-0.6-0.5-0.6c-1.7,0-3.1,3.2-3.1,7c0,0.4,0.1,0.8,0.1,1.3c0,0.6-0.7,1.1-1.6,1.1l0,0
		c-0.4,0-0.8,0.3-0.8,0.7c-2.6,6.9-7.5,11.9-12.6,12.7c3-6,4.3-11.9,6.4-18.2C-400,666-398.6,663.5-396.9,661.6L-396.9,661.6z"/>
	
		<path fill="#EDDF3F" stroke="#000000" stroke-width="0.4764" stroke-linecap="round" stroke-linejoin="round" stroke-miterlimit="2.6131" d="
		M-290.6,661.6c-1.8-2.2-4.4-3.6-7.2-3.6c-4.2,0-7.9,3.1-9.3,7.4c-3.3,11.1-9.3,21.9-17.9,29.7h11.9c0.8-0.9,1.7-1.5,1-5.4
		c1,4.3,1.8,2.2,3.3,0.2c1.1-1.4,1.9-1.8,1-5.3c1,3.5,1.9,1.4,3.3-0.8c1.3-2.1,0.7-3,0.3-4.7c0.8,2.7,1.5,1.5,2.8-1.2
		c1.1-2.4,0.9-2.5-0.1-5.2c1.6,3.4,2.3,0.4,3.1-1.7c0.6-1.5-0.3-2.7-0.6-3.8c1.5,2.5,1.2,1.3,1.2,0.6c0-1.1-0.2-2-0.6-2.6
		c0-0.1-0.1-0.2-0.1-0.4c0-0.3,0.1-0.6,0.5-0.6c1.7,0,3.1,3.2,3.1,7c0,0.4,0,0.8,0,1.3c0,0.6,0.7,1.1,1.6,1.1l0,0
		c0.4,0,0.8,0.3,0.8,0.7c2.6,6.9,7.5,11.9,12.6,12.7c-3-6-4.3-11.9-6.4-18.2C-287.5,666-289,663.5-290.6,661.6L-290.6,661.6z"/>
	
		<path fill="#EDDF3F" stroke="#000000" stroke-width="0.4764" stroke-linecap="round" stroke-linejoin="round" stroke-miterlimit="2.6131" d="
		M-340.1,695.2h-13.8c0-0.1,0-0.3,0-0.4c0.9-0.4,1.7-0.9,2.4-1.4c0.1,0.3,0.1,0.4,0.2,0.7c2.2-0.7,6.3-1.6,8.3-5.3
		C-342.8,690-342.3,693.4-340.1,695.2L-340.1,695.2z"/>
	
		<path fill="#FFF22D" stroke="#000000" stroke-width="0.4764" stroke-linecap="round" stroke-linejoin="round" stroke-miterlimit="2.6131" d="
		M-339.2,695.2c2-2.1,2.6-5.1,1.3-9.2c0.8,1.8,3.2,4.2,6.9,5.7c0.1,0.6,1.7,2.5,2.7,3.4C-328.4,695.2-338.5,695.2-339.2,695.2
		L-339.2,695.2z"/>
	
		<path fill="#EDDF3F" stroke="#000000" stroke-width="0.4764" stroke-linecap="round" stroke-linejoin="round" stroke-miterlimit="2.6131" d="
		M-352.3,660.5c9.9-0.8,12.5,5.2,25.2,4.4c-0.6,3.9-2.7,4.5-4.4,4.9c2.4,0.7,4.1,4.8,4.3,7.2c-0.7,0.1-1.3-0.2-2.4-0.1
		c2.9,1.8,3.1,5.9,3.1,9.4c-1.8-1.3-4.7-2.6-7.8-3.3c2,1.4,3.7,3.9,3.1,8.7c-3.6-1.5-6.1-3.9-6.9-5.7c1.4,4.3,0.6,7.5-1.6,9.5
		c-2.6-1.6-3.2-5.4-3.4-6.8c-2,3.7-6.2,4.6-8.3,5.3c-1-2.9,0.7-4.3,1.7-5.2c-1,0-3.4,0.2-5.4-0.2c1-2.7,4.6-2.9,5.9-3.4
		c1.3-0.5,2-1.6,1.9-2.7c-0.1-1.2-4.1-0.8-6.9-1.1c-2.8-0.3-5.6-2.2-5.3-4.9c1.1,0.9,3.1,1.6,5,1.9c2,0.3,6.5,0.3,7.6,0.3
		c3,0,4.5,0.7,7.3,2.2c-1.1-0.9-4.6-2.3-7.9-4.3c-3.2-1.9-3.4-3.6-6.1-4.5c-1.5-0.5-2.4,0-3.4,2c-0.8-1.2-1.1-2.6-2.3-2.2
		c-1.5,0.5-0.7,2.2-0.6,3.6c-0.9-0.1-3.8-1.9-3.9-4.5c-0.2-2.7,0.7-5.6,3.7-5.8C-359,662.5-354.9,660.7-352.3,660.5L-352.3,660.5z"
		/>
	
		<path fill="none" stroke="#000000" stroke-width="0.4764" stroke-linecap="round" stroke-linejoin="round" stroke-miterlimit="2.6131" d="
		M-335.1,689.4c1.1,1.6,2,3.4,2.3,5.4"/>
	<path fill="#277FBE" d="M-375.7,695.2h63.9V743l0,0c0,13.8-12.8,26-31.9,32.8c-19.2-6.9-32-19-32-32.8l0,0V695.2L-375.7,695.2z"/>
	<polygon points="-311.8,721.7 -311.8,737.8 -375.7,737.8 -375.7,721.7 	"/>
	<path fill="#EDDF3F" d="M-370.4,734.4v-0.6c0.5,0,0.8-0.1,0.9-0.1c0,0,0.1,0,0.1-0.1c0-0.1,0.1-0.1,0.1-0.2c0-0.3,0.1-0.8,0.1-1.7
		c0-0.4,0-1.1,0-2.1c0-1.8,0-3.3-0.1-3.6c0-0.1-0.1-0.2-0.3-0.2c-0.3,0-0.6-0.1-0.8-0.1v-0.6c0.9,0,1.5,0,1.9,0c0.5,0,0.9,0,1.4,0
		l0.6,1.3l0.5,1l2.1,4.3c0.4-0.9,0.8-1.5,1-2l0.9-1.8c1-2.1,1-2.1,1.3-2.8c0.6,0,0.9,0,1.1,0h2v0.6h-0.1c-0.9,0-1,0.2-1,0.8
		c0,0.4,0,0.6,0,0.8v1.9v2.3c0,0.6,0,0.9,0,1c0,0.6,0.1,0.9,0.1,1c0,0.1,0.1,0.2,0.2,0.2c0.1,0,0.3,0.1,0.8,0.1v0.6h-2.1h-2.1v-0.6
		c1.1,0,1-0.1,1.1-0.4c0-0.1,0-0.7,0-1.6V727l-1.6,3.1l-0.7,1.5c-0.2,0.4-0.5,1-0.8,1.8c-0.2,0.5-0.4,0.8-0.5,1.2h-0.5
		c-0.1-0.4-0.4-0.9-0.7-1.5c-0.5-1.1-0.9-1.9-1.1-2.5l-1.8-3.6v3.3c0,1.1,0,3,0.1,3.2c0,0.2,0.1,0.3,0.3,0.3c0.1,0,0.4,0.1,0.8,0.1
		v0.6c-0.5,0-1,0-1.5,0C-369.5,734.3-370,734.3-370.4,734.4L-370.4,734.4z M-355.6,732.4c0.6,0,1,0.5,1,1c0,0.6-0.5,1-1,1
		c-0.6,0-1.1-0.5-1.1-1C-356.6,732.9-356.2,732.4-355.6,732.4L-355.6,732.4z M-344.5,733l0.1,0.1l-0.3,0.7c-1.1,0.6-1.8,0.8-3.1,0.8
		c-0.9,0-1.8-0.1-2.5-0.4c-1.1-0.5-1.9-1.3-2.3-2.2c-0.3-0.7-0.5-1.5-0.5-2.3c0-2.8,2-4.7,5.5-4.7c1.2,0,2,0.2,3.3,0.6v0.1
		c0,0.2-0.1,0.5-0.1,0.8c-0.1,0.5-0.1,1-0.1,1.4h-0.5c0-0.5,0-0.9,0-1.2c-0.6-0.6-1.3-0.9-2.4-0.9c-2.1,0-3.5,1.4-3.5,3.7
		c0,1.5,0.5,2.5,1.2,3.2c0.4,0.4,0.7,0.6,1.1,0.8c0.5,0.2,1.1,0.3,1.7,0.3C-346.2,733.7-345.5,733.5-344.5,733L-344.5,733z
		 M-342.4,732.4c0.6,0,1,0.5,1,1c0,0.6-0.5,1-1,1c-0.6,0-1-0.5-1-1S-343,732.4-342.4,732.4L-342.4,732.4z M-334.2,731.1h-0.5
		c0-0.6,0-0.9-0.1-1c0-0.1-0.1-0.1-0.2-0.1c-0.3,0-0.8-0.1-1.5-0.1c-0.1,0-0.3,0-0.5,0v0.8c0,2.1,0,2.8,0.1,3c0,0.1,0,0.1,1.2,0.2
		v0.5h-2.6c-0.4,0-1,0-1.8,0v-0.6c0.5,0,0.8,0,0.9,0c0,0,0.1,0,0.1-0.1c0,0,0.1-0.1,0.1-0.3c0-0.2,0.1-1.6,0.1-2.1v-2.8
		c0-0.1,0-0.7-0.1-1.9c0-0.3,0-0.6-0.1-0.7c0-0.1,0-0.1-0.3-0.2c-0.1,0-0.3,0-0.8-0.1V725h2.4h3.2c0.4,0,0.9,0,1.3,0.1l0.1,0.1
		c-0.1,0.5-0.2,1.4-0.2,2h-0.5c0-0.1,0-0.4,0-0.7c0-0.2,0-0.3,0-0.3s0,0-0.1-0.1c-0.2-0.1-0.8-0.2-1.6-0.2c-0.1,0-1.1,0-1.3,0
		c0,0.5-0.1,1.3-0.1,2.4v0.9c0.6,0,0.9,0,1.2,0c0.6,0,0.9,0,1.1-0.1c0,0,0.1-0.1,0.1-0.2c0-0.1,0-0.3,0.1-0.8h0.6
		C-334.2,729-334.2,730-334.2,731.1L-334.2,731.1z M-331.4,732.4c0.6,0,1,0.5,1,1c0,0.6-0.5,1-1,1c-0.6,0-1-0.5-1-1
		S-332,732.4-331.4,732.4L-331.4,732.4z M-320.4,733l0.1,0.1l-0.3,0.7c-1.1,0.6-1.8,0.8-3.1,0.8c-0.9,0-1.8-0.1-2.5-0.4
		c-1.1-0.5-1.9-1.3-2.3-2.2c-0.3-0.7-0.5-1.5-0.5-2.3c0-2.8,2-4.7,5.5-4.7c1.2,0,2,0.2,3.3,0.6v0.1c0,0.2-0.1,0.5-0.1,0.8
		c-0.1,0.5-0.1,1-0.1,1.4h-0.6c0-0.5,0-0.9,0-1.2c-0.6-0.6-1.3-0.9-2.4-0.9c-2.1,0-3.5,1.4-3.5,3.7c0,1.5,0.5,2.5,1.2,3.2
		c0.4,0.4,0.7,0.6,1.1,0.8c0.5,0.2,1.1,0.3,1.7,0.3C-322.1,733.7-321.3,733.5-320.4,733L-320.4,733z M-318.2,732.4c0.6,0,1,0.5,1,1
		c0,0.6-0.5,1-1,1c-0.6,0-1-0.5-1-1S-318.7,732.4-318.2,732.4L-318.2,732.4z"/>
	<path fill="#FFFFFF" d="M-313.5,751.4c-0.9,2.3-2.2,4.5-3.8,6.6l-15.5-20.2h8.9L-313.5,751.4L-313.5,751.4z"/>
	<path fill="#FFFFFF" d="M-321.9,763.2c-1.6,1.5-3.5,3-5.5,4.4l-22.8-29.7h8.8L-321.9,763.2L-321.9,763.2z"/>
	<path fill="#FFFFFF" d="M-333.2,771.1c-2,1.1-4.2,2.1-6.5,3.1l-27.9-36.4h8.9L-333.2,771.1L-333.2,771.1z"/>
	<path fill="#EDDF3F" d="M-319.4,718.4c-0.9,0-1.5,0.1-1.8,0.4c-0.5,0.6-1.7,1.1-3.1,1.1c-0.8,0-1.6-0.1-2.2-0.4
		c-0.6-0.2-1.2-0.3-1.9-0.3c-0.9,0-1.8,0.2-2.4,0.5c-0.6,0.4-1.4,0.6-2.3,0.6c-0.8,0-1.5-0.2-2.1-0.5c-0.5-0.3-1.2-0.4-1.9-0.4
		c-0.8,0-1.5,0.2-2.1,0.5c-0.5,0.3-1.3,0.5-2.1,0.5c-0.8,0-1.6-0.2-2.1-0.6c-0.6-0.3-1.4-0.5-2.3-0.5c-0.8,0-1.5,0.1-2,0.4
		c-0.6,0.3-1.4,0.5-2.3,0.5c-0.9,0-1.7-0.2-2.3-0.5c-0.6-0.2-1.3-0.4-2.1-0.4c-0.8,0-1.6,0.2-2.2,0.5c-0.7,0.4-1.7,0.6-2.9,0.6
		c-1.4,0-2.7-0.4-3.3-0.9c-0.1-0.1-0.3-0.1-0.6-0.1h-0.1c-0.5,0-0.9,0.1-1.5,0.2c-0.5,0.1-1,0.3-1.5,0.4l0,0c-0.2,0-0.4-0.2-0.4-0.5
		c0-0.2,0.1-0.4,0.2-0.5c0.5-0.2,1.1-0.4,1.7-0.5c0.5-0.1,1-0.2,1.5-0.2h0.1c0.2,0,0.4,0.1,0.6,0.1c0.6,0.6,1.9,0.9,3.3,0.9
		c1.2,0,2.2-0.2,2.9-0.7c0.6-0.3,1.4-0.5,2.2-0.5c0.8,0,1.5,0.2,2.1,0.4c0.6,0.3,1.4,0.5,2.3,0.5s1.7-0.2,2.3-0.5
		c0.6-0.2,1.3-0.4,2-0.4c0.9,0,1.7,0.2,2.3,0.5c0.5,0.3,1.3,0.6,2.1,0.6c0.8,0,1.6-0.2,2.1-0.5c0.6-0.3,1.3-0.5,2.1-0.5
		c0.7,0,1.4,0.1,1.9,0.4s1.3,0.5,2.1,0.5c0.9,0,1.7-0.2,2.3-0.6c0.6-0.3,1.4-0.5,2.4-0.5c0.7,0,1.4,0.1,1.9,0.3
		c0.6,0.3,1.3,0.4,2.2,0.4c1.4,0,2.6-0.5,3.1-1.1c0.2-0.2,0.9-0.4,1.8-0.4c0.2,0,0.3,0.3,0.3,0.5
		C-319.1,718.2-319.3,718.4-319.4,718.4L-319.4,718.4z"/>
	<path fill="#EDDF3F" d="M-352.1,706.5c0.6,0,1.2,0.1,1.7,0.3c0.3,0.7,0.6,1.5,0.7,2.5c-0.7-0.3-1.5-0.5-2.3-0.5c0,0.2,0,0.4,0,0.6
		c1,0,1.9,0.2,2.6,0.5c0.4,1,0.7,2.1,0.8,3.4c-0.8-0.5-2-0.8-3.3-0.8c0,0.7,0,1.5,0,2.4h9.9c0-0.2,0-0.4,0-0.7
		c-0.8-0.5-2.3-0.7-3.9-0.5c-1.1,0.2-2.1,0.5-2.8,0.9l1.8-5.1c1.5-0.4,3.2-0.7,5-0.8c0-0.2,0-0.4,0-0.6c-0.2-0.2-0.5-0.3-0.9-0.4
		c-0.6-0.1-1.5,0-2.4,0.2c-0.8,0.2-1.5,0.5-2,0.9l1.5-4.4c1.1-0.4,2.5-0.6,3.9-0.7c0-0.1,0-0.2,0-0.2c-0.5-0.3-1.3-0.4-2.1-0.3
		c-0.6,0.1-1.2,0.3-1.6,0.6l0.9-3c0.8-0.3,1.8-0.5,2.9-0.5c0-0.4,0-0.8,0-1.2c-0.2-0.2-0.5-0.3-0.8-0.3c-0.3,0-0.7,0.1-0.9,0.3
		c-0.1,0.1-0.3,0.2-0.6,0.2c-0.4,0.1-0.9,0-1.4-0.2c-0.4-0.2-0.8-0.5-1-0.8c0.3,0.1,0.6,0.2,1,0.3c0.7,0,1.3-0.2,1.6-0.6
		c0.3-0.2,0.7-0.4,1.1-0.4s0.7,0.2,0.9,0.4c0-0.1,0-0.3,0-0.4c0-0.1,0.1-0.1,0.2-0.1c0.1,0,0.2,0,0.2,0.1c0,0.8,0,1.7,0,2.8
		c1.1,0,2.2,0.2,3,0.5l0.9,3.1c-0.4-0.3-1-0.5-1.7-0.6c-0.9-0.1-1.7,0-2.2,0.3c0,0.1,0,0.1,0,0.2c1.6,0,3.2,0.3,4.5,0.7l1.5,4.4
		c-0.2-0.2-0.4-0.3-0.7-0.5c-0.6-0.3-1.4-0.6-2.3-0.7c-0.9-0.1-1.8,0-2.4,0.2c-0.2,0-0.3,0.1-0.5,0.2c0,0.1,0,0.3,0,0.4
		c2.1,0,4,0.3,5.6,0.8l1.4,5c-0.7-0.4-1.7-0.8-2.9-0.9c-1.7-0.2-3.3,0-4,0.5c0,0.2,0,0.4,0,0.7h7.6c0-4.2,0.1-7,0.1-9
		c0-1.5,0-2.6,0-3.5l0.1-0.1c0,0,0.1,0,0.1,0.1c0,0.1,0,0.2,0,0.3c0.2-0.2,0.6-0.3,0.9-0.3c0.5,0,0.9,0.2,1.1,0.5
		c0.2,0.4,0.8,0.7,1.5,0.7c0.2,0,0.3,0,0.5,0c-0.1,0.3-0.6,0.6-1.3,0.6c-0.4,0-0.8-0.1-1-0.3c-0.2-0.2-0.5-0.3-0.9-0.3
		c-0.3,0-0.6,0-0.8,0.2c0,0.5,0,1,0,1.6c0.9,0.4,2.2,0.7,3.8,0.7c2,0,3.6-0.5,4.4-1.1c-0.8,1-1.3,2.5-1.3,4.2c0,1.8,0.6,3.3,1.4,4.3
		c-0.5-0.1-1-0.2-1.3-0.4c-0.8-0.4-1.8-0.8-3-0.9c-1.5-0.2-2.9,0-3.8,0.5c0,0.7,0,1.5,0,2.2h6.1l2.1-1.4h0.1c0.2,0,0.3,0.1,0.3,0.2
		v0.1l-2.4,3.5c0.6,0.2,1.3,0.4,2.1,0.4c1.4,0,2.6-0.4,3.1-1.1c0.2-0.3,0.9-0.4,1.9-0.4c0.1,0,0.3,0.2,0.3,0.4
		c0,0.2-0.1,0.4-0.3,0.4c-0.8,0-1.4,0.1-1.6,0.4c-0.5,0.6-1.7,1.1-3.1,1.1c-0.8,0-1.6-0.1-2.2-0.4c-0.6-0.2-1.2-0.3-1.9-0.3
		c-0.9,0-1.8,0.2-2.4,0.5c-0.6,0.4-1.4,0.6-2.3,0.6c-0.8,0-1.5-0.2-2.1-0.5c-0.5-0.2-1.2-0.4-1.9-0.4c-0.8,0-1.5,0.2-2.1,0.5
		c-0.5,0.3-1.3,0.5-2.1,0.5c-0.8,0-1.6-0.2-2.1-0.6c-0.6-0.3-1.4-0.5-2.3-0.5c-0.8,0-1.5,0.1-2,0.4c-0.6,0.3-1.4,0.5-2.3,0.5
		s-1.7-0.2-2.3-0.5s-1.3-0.4-2.1-0.4c-0.8,0-1.6,0.2-2.2,0.5c-0.7,0.4-1.7,0.7-2.9,0.7c-1.4,0-2.7-0.4-3.3-0.9
		c-0.1-0.1-0.3-0.1-0.6-0.1h-0.1c-0.5,0-0.9,0.1-1.5,0.2c-0.6,0.1-1.1,0.3-1.5,0.5c0,0-0.1,0-0.2,0c-0.3,0-0.5-0.1-0.5-0.3
		c0-0.1,0-0.2,0.1-0.2c0.5-0.3,1.2-0.5,2-0.7c0.5-0.1,1-0.2,1.5-0.2h0.1c0.2,0,0.4,0.1,0.6,0.1c0.6,0.6,1.9,0.9,3.3,0.9
		c0.3,0,0.6,0,0.9,0l-3.3-3.1l-7.1-3c-0.1,0-0.1-0.1-0.1-0.2c0-0.1,0.3-0.3,0.6-0.3c0.1,0,0.2,0,0.3,0l5.2,2.2
		c0.9,0.3,2.1,0.6,3.3,0.8l-4-3.8c0.9-2.6,3.8-4.8,7.4-5.6c1-0.2,2.1-0.3,3.1-0.3l0.9,0.6l0,0c0-0.7,0-1.4,0-1.9
		c-0.2-0.2-0.5-0.3-0.8-0.3c-0.3,0-0.7,0.1-0.9,0.3c-0.1,0.1-0.3,0.2-0.5,0.3c-0.4,0.1-0.9,0.1-1.4-0.1s-0.8-0.5-1.1-0.8
		c0.3,0.1,0.6,0.2,1,0.2c0.7,0,1.3-0.3,1.6-0.7c0.2-0.3,0.6-0.4,1.1-0.4s0.9,0.2,1.1,0.4c0-0.2,0-0.3,0-0.5l0.1-0.1
		c0.1,0,0.1,0,0.1,0.1c0,0.9,0,2,0,3.5C-352.1,705.6-352.1,706.1-352.1,706.5L-352.1,706.5z M-352.5,708.8c-1.3,0-2.4,0.4-3.1,0.9
		c0.1-1,0.3-1.9,0.7-2.7c0.7-0.3,1.6-0.5,2.5-0.5c0-0.4,0-0.8,0-1.2c-1.9,0.3-3.6,1.4-4.9,3c-1.3,1.6-2.2,3.8-2.4,6.1
		c1.1,0.2,2.3,0.3,3.5,0.3h3.6c0-0.8,0-1.6,0-2.4c-1.7,0-3.1,0.5-4,1.2c0.1-1.3,0.4-2.5,0.8-3.5c0,0,0.1,0,0.1-0.1
		c0.8-0.4,1.9-0.7,3.1-0.7C-352.5,709.1-352.5,709-352.5,708.8L-352.5,708.8z M-333.1,705.4c0,0.1,0,0.2,0,0.3
		c0,1.6,0.1,3.6,0.2,6.5c0.5-0.9,0.8-2,0.8-3.3S-332.5,706.3-333.1,705.4L-333.1,705.4z"/>
	
		<polygon fill="#EDDF3F" stroke="#000000" stroke-width="0.4764" stroke-linecap="round" stroke-linejoin="round" stroke-miterlimit="2.6131" points="
		-379.6,639.6 -375.4,652.6 -386.4,644.6 -397.3,652.6 -393.2,639.6 -404.1,631.7 -390.6,631.7 -386.4,618.8 -382.2,631.7 
		-368.6,631.7 	"/>
	<path stroke="#000000" stroke-width="0.4764" stroke-linecap="round" stroke-linejoin="round" stroke-miterlimit="2.6131" d="
		M-387.6,637.1c0.2-0.7,0.9-1,1.6-0.8c0.7,0.2,1,0.9,0.8,1.6c-0.2,0.7-0.9,1-1.6,0.8C-387.4,638.4-387.8,637.7-387.6,637.1
		L-387.6,637.1z"/>
	
		<path fill="none" stroke="#000000" stroke-width="0.4764" stroke-linecap="round" stroke-linejoin="round" stroke-miterlimit="2.6131" d="
		M-397.3,652.6l15.2-20.9L-397.3,652.6L-397.3,652.6z M-368.6,631.7l-24.6,8L-368.6,631.7L-368.6,631.7z M-375.4,652.6l-15.2-20.9
		L-375.4,652.6L-375.4,652.6z M-386.4,618.8v25.8V618.8L-386.4,618.8z M-404.1,631.7l24.5,8L-404.1,631.7L-404.1,631.7z"/>
	
		<polygon fill="#EDDF3F" stroke="#000000" stroke-width="0.4764" stroke-linecap="round" stroke-linejoin="round" stroke-miterlimit="2.6131" points="
		-337,639.6 -332.8,652.6 -343.8,644.6 -354.7,652.6 -350.6,639.6 -361.5,631.7 -348,631.7 -343.8,618.8 -339.6,631.7 -326,631.7 	
		"/>
	<path stroke="#000000" stroke-width="0.4764" stroke-linecap="round" stroke-linejoin="round" stroke-miterlimit="2.6131" d="
		M-345,637.1c0.2-0.7,0.9-1,1.6-0.8c0.6,0.2,1,0.9,0.8,1.6c-0.2,0.7-0.9,1-1.6,0.8C-344.8,638.4-345.2,637.7-345,637.1L-345,637.1z"
		/>
	
		<path fill="none" stroke="#000000" stroke-width="0.4764" stroke-linecap="round" stroke-linejoin="round" stroke-miterlimit="2.6131" d="
		M-354.7,652.6l15.2-20.9L-354.7,652.6L-354.7,652.6z M-326,631.7l-24.5,8L-326,631.7L-326,631.7z M-332.8,652.6l-15.2-20.9
		L-332.8,652.6L-332.8,652.6z M-343.8,618.8v25.8V618.8L-343.8,618.8z M-361.5,631.7l24.5,8L-361.5,631.7L-361.5,631.7z"/>
	
		<polygon fill="#EDDF3F" stroke="#000000" stroke-width="0.4764" stroke-linecap="round" stroke-linejoin="round" stroke-miterlimit="2.6131" points="
		-294.4,639.6 -290.2,652.6 -301.2,644.6 -312.2,652.6 -308,639.6 -319,631.7 -305.4,631.7 -301.2,618.8 -297,631.7 -283.4,631.7 	
		"/>
	<path stroke="#000000" stroke-width="0.4764" stroke-linecap="round" stroke-linejoin="round" stroke-miterlimit="2.6131" d="
		M-302.4,637.1c0.2-0.7,0.9-1,1.6-0.8c0.7,0.2,1,0.9,0.8,1.6c-0.2,0.7-0.9,1-1.6,0.8C-302.2,638.4-302.6,637.7-302.4,637.1
		L-302.4,637.1z"/>
	
		<path fill="#EDDF3F" stroke="#000000" stroke-width="0.4764" stroke-linecap="round" stroke-linejoin="round" stroke-miterlimit="2.6131" d="
		M-312.2,652.6l15.2-20.9L-312.2,652.6z"/>
	
		<path fill="none" stroke="#000000" stroke-width="0.4764" stroke-linecap="round" stroke-linejoin="round" stroke-miterlimit="2.6131" d="
		M-283.4,631.7l-24.6,8L-283.4,631.7L-283.4,631.7z M-290.2,652.6l-15.2-20.9L-290.2,652.6L-290.2,652.6z M-301.2,618.8v25.8V618.8
		L-301.2,618.8z M-319,631.7l24.6,8L-319,631.7L-319,631.7z"/>
	<path d="M-394.5,698.6c0.5-1.3,0.4-2.8,0.9-4.2c-0.3,3-0.6,6.3-1,9.3c-1.2,9.6-2.4,19.4-5.3,28.5
		C-397.1,721.2-395.5,709.9-394.5,698.6L-394.5,698.6z"/>
	<path d="M-293,698.6c-0.5-1.3-0.5-2.8-0.9-4.2c0.3,3,0.6,6.3,1,9.3c1.2,9.6,2.4,19.4,5.4,28.5C-290.4,721.2-292.1,709.9-293,698.6
		L-293,698.6z"/>
	
		<path fill="#EDDF3F" stroke="#000000" stroke-width="0.4764" stroke-linecap="round" stroke-linejoin="round" stroke-miterlimit="2.6131" d="
		M-387.2,675.3c-1,6.8-2.4,13.1-4.2,18.3l0,0v0.1c-0.9,2.7-2.4,4.8-3.7,5.3c-0.7,0.2-1.3,0.6-1.9,1.2c0.2-1.1,0.1-2.2-0.1-3.1
		c-0.2-1.2-0.3-2.6-0.1-4.1c0-0.6,0.1-1.1,0.3-1.6c1.7-5.2,3.1-11.2,4.2-18c0.3-0.2,0.5-0.5,0.5-0.8c0-0.4-0.1-0.8-0.1-1.3
		c0-3.9,1.4-7,3.1-7c0.3,0,0.5,0.3,0.5,0.6c0,0.1,0,0.3-0.1,0.4c-0.4,0.6-0.6,1.6-0.6,2.6c0,0.7-0.3,1.9,1.2-0.6
		c-0.3,1-1.1,2.2-0.5,3.8c0.8,2.1,1.5,5.1,3.1,1.7C-385.8,672.9-387.2,674.9-387.2,675.3L-387.2,675.3z"/>
	
		<path fill="#EDDF3F" stroke="#000000" stroke-width="0.4764" stroke-linecap="round" stroke-linejoin="round" stroke-miterlimit="2.6131" d="
		M-300.3,675.3c1,6.8,2.4,13.1,4.2,18.3l0,0v0.1c0.9,2.7,2.5,4.8,3.7,5.3c0.7,0.2,1.3,0.6,1.9,1.2c-0.2-1.1-0.1-2.2,0.1-3.1
		c0.2-1.2,0.3-2.6,0.1-4.1c-0.1-0.6-0.2-1.1-0.3-1.6c-1.7-5.2-3.1-11.2-4.1-18c-0.3-0.2-0.5-0.5-0.5-0.8c0-0.4,0-0.8,0-1.3
		c0-3.9-1.4-7-3.1-7c-0.3,0-0.5,0.3-0.5,0.6c0,0.1,0,0.3,0.1,0.4c0.4,0.6,0.6,1.6,0.6,2.6c0,0.7,0.3,1.9-1.2-0.6
		c0.3,1,1.1,2.2,0.6,3.8c-0.8,2.1-1.5,5.1-3.1,1.7C-301.7,672.9-300.4,674.9-300.3,675.3L-300.3,675.3z"/>
	<path d="M-393.2,688.8c0-0.6,0.1-1.1,0.2-1.7c1.8-5.3,3-10.9,3.9-16.5c0.1,0.2,0.1,0.4,0.2,0.6c-0.8,4.9-1.8,9.8-3.3,14.6
		C-392.4,686.9-392.7,688-393.2,688.8L-393.2,688.8L-393.2,688.8z"/>
	<path d="M-294.4,688.8c0-0.6-0.1-1.1-0.2-1.7c-1.8-5.3-3-10.9-3.9-16.5c-0.1,0.2-0.1,0.4-0.2,0.6c0.8,4.9,1.8,9.9,3.3,14.6
		C-295.1,686.9-294.8,688-294.4,688.8L-294.4,688.8L-294.4,688.8z"/>
	
		<path fill="#EDDF3F" stroke="#000000" stroke-width="0.4764" stroke-linecap="round" stroke-linejoin="round" stroke-miterlimit="2.6131" d="
		M-383.6,682.7c-0.6,5.3-1.5,10.4-2.9,14.9c-0.1,0.5-0.4,1-0.7,1.5c-0.6,1-1.2,1.7-1.8,2.1c-0.7,0.4-1.5,1.2-2.1,2.4
		c0.1-1.6-0.1-3-0.7-3.7c-0.4-0.9-0.7-2.3-0.5-3.9c0-0.3,0-0.6,0.1-0.8c0.2-0.4,0.4-0.9,0.6-1.4v-0.1l0,0c1.8-5.3,3.2-11.5,4.2-18.3
		c0.1-0.4,0.2-0.7,0.3-1c0.3-0.1,0.7-0.6,1.1-1.5c-1.1,2.6-1.3,2.7-0.1,5.2c1.3,2.7,1.9,3.9,2.8,1.2
		C-383.5,680.5-383.9,681.4-383.6,682.7C-383.5,682.6-383.5,682.7-383.6,682.7L-383.6,682.7z"/>
	
		<path fill="#EDDF3F" stroke="#000000" stroke-width="0.4764" stroke-linecap="round" stroke-linejoin="round" stroke-miterlimit="2.6131" d="
		M-304,682.7c0.6,5.3,1.5,10.4,2.9,14.9c0.1,0.5,0.4,1,0.7,1.5c0.6,1,1.2,1.7,1.8,2.1c0.7,0.4,1.5,1.2,2.1,2.4
		c-0.1-1.6,0.1-3,0.7-3.7c0.4-0.9,0.7-2.3,0.6-3.9c0-0.3-0.1-0.6-0.1-0.8c-0.2-0.4-0.4-0.9-0.6-1.4v-0.1l0,0
		c-1.8-5.3-3.2-11.5-4.2-18.3c-0.1-0.4-0.2-0.7-0.3-1c-0.3-0.1-0.7-0.6-1.1-1.5c1.1,2.6,1.3,2.7,0.1,5.2c-1.3,2.7-1.9,3.9-2.8,1.2
		C-304.1,680.5-303.6,681.4-304,682.7C-304,682.6-304,682.7-304,682.7L-304,682.7z"/>
	<path d="M-385.6,678.9c0.1,0.2,0.2,0.3,0.3,0.5c-0.6,4.6-1.4,9.2-2.5,13.7c-0.3,1-0.6,2.1-0.9,3.1c0-0.6,0.1-1.2,0.2-1.8
		C-387.2,689.3-386.3,684.1-385.6,678.9L-385.6,678.9z"/>
	<path d="M-302,678.9c-0.1,0.2-0.2,0.3-0.3,0.5c0.6,4.6,1.4,9.2,2.5,13.7c0.3,1,0.6,2.1,0.9,3.1v-0.1c0-0.6-0.1-1.1-0.2-1.7
		C-300.3,689.3-301.3,684.1-302,678.9L-302,678.9z"/>
	<path fill="#EDDF3F" d="M-386.9,698.7c0.2-0.4,0.4-0.8,0.5-1.1c1.3-4.5,2.3-9.6,2.9-14.9c0,0,0-0.1,0-0.2c0.1,0.4,0.3,0.9,0.7,1.4
		c1.4,2.2,2.3,4.3,3.3,0.8c-0.8,3-0.3,3.7,0.6,4.7l0,0c-1.3,2.3-2.2,5.7-2.7,9.4c-0.1,1.3-0.2,2.6-0.2,3.8c0,0.1,0,0.2,0,0.3
		c-0.8,0.4-1.7,1.5-2.3,2.9c-0.4-1.3-1-2.4-1.6-3.2C-386.5,701.9-386.9,700.4-386.9,698.7L-386.9,698.7z M-383.5,680.2
		c0-0.1,0-0.2,0-0.2c0.1-0.2,0.1-0.4,0.2-0.7C-383.3,679.6-383.4,679.9-383.5,680.2L-383.5,680.2z"/>
	<path fill="#EDDF3F" d="M-300.7,698.7c-0.2-0.4-0.4-0.8-0.5-1.1c-1.3-4.5-2.3-9.6-2.9-14.9c0,0,0-0.1,0-0.2
		c-0.1,0.4-0.3,0.9-0.7,1.4c-1.4,2.2-2.3,4.3-3.3,0.8c0.8,3,0.3,3.7-0.6,4.7l0,0c1.2,2.3,2.2,5.7,2.6,9.4c0.2,1.3,0.2,2.6,0.2,3.8
		l0,0c0,0.1,0,0.2,0,0.3c0.8,0.4,1.7,1.5,2.3,2.9c0.4-1.3,1-2.4,1.6-3.2C-301,701.9-300.7,700.4-300.7,698.7L-300.7,698.7z
		 M-304.1,680.2c0-0.1,0-0.2,0-0.2c-0.1-0.2-0.2-0.4-0.3-0.7C-304.3,679.6-304.2,679.9-304.1,680.2L-304.1,680.2z"/>
	<path d="M-381.8,685.7c0.1,0.2,0.2,0.3,0.3,0.5c-0.4,3.6-1,7.2-1.8,10.7c-0.2,1-0.5,2.1-0.8,3.1v-0.1c0-0.6,0-1.1,0.1-1.7
		C-383,694.1-382.3,689.9-381.8,685.7L-381.8,685.7z"/>
	<path d="M-305.8,685.7c-0.1,0.2-0.2,0.3-0.3,0.5c0.4,3.6,1,7.2,1.8,10.7c0.2,1,0.5,2.1,0.8,3.1v-0.1c0-0.6,0-1.1-0.1-1.7
		C-304.6,694.1-305.3,689.9-305.8,685.7L-305.8,685.7z"/>
	<path d="M-401.3,701.3c0.4-0.8,0.3-0.8,0.7-1.6c-0.1,1.9-0.4,3.6-0.7,5.5c-1.1,6.8-1.6,10.6-3.9,16.5
		C-403,715.1-402,709-401.3,701.3L-401.3,701.3z"/>
	<path d="M-286.2,701.3c-0.4-0.8-0.3-0.8-0.7-1.6c0.1,1.9,0.4,3.6,0.7,5.5c1.1,6.8,1.6,10.6,3.9,16.5
		C-284.5,715.1-285.5,709-286.2,701.3L-286.2,701.3z"/>
	<path d="M-398.3,680.8L-398.3,680.8c0.2-0.2,0.3-0.5,0.5-0.7c-0.2,1.4-0.4,2.8-0.6,3.8c-1.3,5.7-2.4,11.1-5.4,16.2
		C-401.2,694-399.5,687.5-398.3,680.8L-398.3,680.8z"/>
	<path d="M-289.2,680.8L-289.2,680.8c-0.2-0.2-0.4-0.5-0.5-0.7c0.2,1.4,0.4,2.8,0.6,3.8c1.3,5.7,2.5,11.1,5.4,16.2
		C-286.4,694-288.1,687.5-289.2,680.8L-289.2,680.8z"/>
	<path d="M-388.5,700.9c-0.2,2.8-0.4,6.3-0.6,8.1c-1.5,13.2-2.8,25.8-6,38.4c3-15.2,4.9-30.8,6.1-46.2l0,0
		C-388.8,701.1-388.7,701-388.5,700.9L-388.5,700.9z"/>
	<path d="M-299,700.9c0.2,2.8,0.4,6.3,0.6,8.1c1.5,13.2,2.8,25.8,6,38.4c-3-15.2-4.9-30.8-6.2-46.2l0,0
		C-298.8,701.1-298.9,701-299,700.9L-299,700.9z"/>
	<path d="M-383.4,704.5c0.1-0.2,0.2-0.3,0.3-0.5c0.1,2.1,0.2,4.2,0.2,6c-0.4,9.7-0.8,19.1-2.9,28.5
		C-384,727.2-383.4,715.9-383.4,704.5L-383.4,704.5z"/>
	<path d="M-304.1,704.5c0-0.2-0.2-0.3-0.3-0.5c-0.1,2.1-0.2,4.2-0.2,6c0.4,9.7,0.8,19.1,2.9,28.5
		C-303.5,727.2-304.1,715.9-304.1,704.5L-304.1,704.5z"/>
	<path d="M-376.3,692.2c-0.4,3.2-1,6.5-1.6,9.7c-0.2,1-0.4,2.1-0.7,3.1c0-0.6,0-1.2,0-1.8c0.7-3.7,1.4-7.3,1.9-11
		C-376.6,692.3-376.5,692.3-376.3,692.2L-376.3,692.2z"/>
	<path d="M-311.2,692.2c0.4,3.2,1,6.5,1.6,9.7c0.2,1,0.3,2.1,0.7,3.1c0-0.6,0-1.2,0-1.8c-0.7-3.7-1.4-7.3-1.9-11
		C-311,692.3-311.1,692.3-311.2,692.2L-311.2,692.2z"/>
	<path d="M-341,686.1c0.3,0.5,0.9,1.3,1,2.4c0.2,1.1,0.1,1.7,0,2.8C-339.9,690.1-341,687.3-341,686.1L-341,686.1z"/>
	<path d="M-336.7,684.1c0.6,0.3,1.5,0.6,2.2,1.5c0.7,0.9,0.9,1.3,1.4,2.3C-333.8,686.9-336,685.1-336.7,684.1L-336.7,684.1z"/>
	
		<path fill="#EDDF3F" stroke="#000000" stroke-width="0.4764" stroke-linecap="round" stroke-linejoin="round" stroke-miterlimit="2.6131" d="
		M-369.6,673.5c4.5,2,13.7,2.2,17,2.2c1.3,0,3.9,0.5,5.1,0.9c3.3,1.9,6.1,2.9,6.7,3.7c-1.5-0.9-3.1-1.7-6.1-1.6
		c-2.2-0.5-4.8-1.5-8.1-1.5C-359.7,677-367.6,676.2-369.6,673.5L-369.6,673.5z"/>
	
		<path fill="none" stroke="#000000" stroke-width="0.4764" stroke-linecap="round" stroke-linejoin="round" stroke-miterlimit="2.6131" d="
		M-348.9,681.7c2,0.2,6.4-0.1,6.3,2 M-348.9,681.7c2,0.2,5.5,0,5.3,2.2 M-348.9,681.7c2,0.2,4.6,0.1,4.2,2.5 M-348.9,681.7
		c2,0.2,3.8,0.5,3.1,2.7 M-348.9,681.7c2,0.2,3.2,1.1,1.8,3.1 M-350.8,666.5c2.4-0.1,3.2,1.1,3.8,1.6c-0.4,0.7-1.3,2.4-3.2,2.4
		c-2.8,0-2.9-1.4-3.7-2.5C-353.3,667.3-353.2,666.5-350.8,666.5 M-350.5,670.4c3.3,0.4,6.3,6.3,9.8,7.8c1.3,0.6,3,1.6,5.5,0.8
		c-2.3-1.1-0.6-2.2-3-3.5c2.8,1.2,4.3,2.3,6.2,3.4c0.2-2.2-0.1-4.5-3.9-6c2.1,0.5,3.9,1.2,3.8,0.4c-0.2-1.8-3.3-3.1-5.2-3.9
		c2.5-0.5,5.9,0.5,7,0.1 M-347,668c0.4,0.4,1.1,0.8,1.6,1"/>
	<path stroke="#000000" stroke-width="0.4764" stroke-linecap="round" stroke-linejoin="round" stroke-miterlimit="2.6131" d="
		M-351.1,666.3c2.6,0.2,3.1-2.5,5.5-0.2c-0.6-0.8-1.3-1.2-2.2-1.3C-348.8,664.7-350.1,665.7-351.1,666.3L-351.1,666.3z"/>
	
		<path fill="none" stroke="#000000" stroke-width="0.4764" stroke-linecap="round" stroke-linejoin="round" stroke-miterlimit="2.6131" d="
		M-332.4,672.5c0.5,1.2,1.1,2.1,3.3,2 M-332.1,678.9c1.2,0.7,2.3,1.7,3,2.8 M-335.3,679c2.7,1.1,3.7,4,5.4,5.4 M-358.7,665.5
		c1.7,0.8,2.6,2.9,2.4,4.8c1,0.6,2.6,0.5,4.9,0 M-357.6,666.3c0.8,0.7,2.8,2.5,4,1.4"/>
	<path d="M-358.7,668c0.6,0,0.1,1,0.6,1.4c-0.6,0.2-1.7,0-2,1c-0.4-0.7-0.4-0.9-0.2-1.5C-360.1,668.3-359.3,668-358.7,668
		L-358.7,668z"/>
	<path d="M-350.8,666.5c0.7,0,1.2,0,1.6,0.2c0.2,0.2,0.3,0.6,0.3,0.9c0,0.8-0.7,1.5-1.5,1.5c-0.9,0-1.6-0.7-1.6-1.5
		c0-0.4,0.2-0.8,0.4-1C-351.3,666.5-351.1,666.5-350.8,666.5L-350.8,666.5z"/>
	<path d="M-376.5,694.4h65.4v48.5c0,7-3.2,13.5-8.7,19.2c-5.7,5.8-13.9,10.8-23.7,14.3h-0.5c-9.9-3.5-18.1-8.5-23.8-14.3
		c-5.5-5.7-8.7-12.2-8.7-19.2V694.4L-376.5,694.4z M-375,695.9v47c0,6.6,3,12.8,8.3,18.2c5.5,5.6,13.4,10.4,22.9,13.9
		c9.5-3.5,17.4-8.2,22.9-13.8c5.3-5.4,8.3-11.6,8.3-18.2v-47L-375,695.9L-375,695.9z"/>
	
		<path fill="#FFFFFF" stroke="#000000" stroke-width="0.4764" stroke-linecap="round" stroke-linejoin="round" stroke-miterlimit="2.6131" d="
		M-291,770.5c7.7,0,14.5,3,18.4,7.6c-0.9-0.3-2-0.4-3-0.5c-4-0.3-7.6,1-9.6,3.1c5.3,3.1,9,7.7,10,13c-4-3.2-9.6-5.2-15.8-5.2
		c-2.5,0-4.9,0.3-7.2,0.9c-1.9,0.4-3.8,0.6-5.5,0.5c-2.5-0.1-4.3-0.7-4.6-1.8c-0.3-1,0.8-2.1,2.6-3c1.7-0.8,4-1.5,6.2-1.8
		c0.7-0.1,1.3-0.2,1.9-0.2h0.1c0.5,0,0.9-0.1,1.5-0.3c1.1-0.3,2.1-0.7,2.7-1.1c0.1-0.1,0.3-0.2,0.4-0.3c1.1-0.9,1.8-2,1.9-3.1
		c0-0.1,0-0.3,0-0.4l0,0c0-1-0.1-2.1-0.2-3.1c-0.1-1.4-0.3-2.8-0.6-4.2C-291.4,770.6-291.2,770.5-291,770.5L-291,770.5z"/>
	
		<path fill="#FFFFFF" stroke="#000000" stroke-width="0.4764" stroke-linecap="round" stroke-linejoin="round" stroke-miterlimit="2.6131" d="
		M-381.4,784.4c0.3,0.1,0.6,0.3,0.8,0.4c0.6,0.3,1,0.6,1.4,0.9l0,0l0.1,0.1l0,0l0.1,0.1l0,0c0,0,0,0,0,0.1l0,0c0,0,0,0,0,0.1l0,0
		c0,0,0,0,0,0.1v0.1l0,0v0.1l0,0v0.1l0,0v0.1l0,0c0,0.6-0.8,1.1-2,1.4c-1.3,0.3-3.2,0.4-5.4,0.3c-0.6,0-1.3-0.1-1.9-0.2
		c-1.9-0.3-3.8-0.5-5.7-0.6c-7.1-0.2-13.8,1.4-19.1,4.4c2.5-5.4,6.5-9.8,11.2-12.6c-2.5-2-5.8-3.2-9.5-3.2c-2.2,0-4.3,0.5-6.1,1.2
		c5.8-5.4,14.2-9,23.7-9.7l-2.7,9.4l0,0c0.2-0.4,0.7-0.7,1.4-0.8h-0.1h-0.1h-0.1h-0.1h-0.1h-0.1h-0.1h-0.1h-0.1h-0.1l-0.1,0.1h-0.1
		h-0.1v0.1v0.1l0,0v0.1v0.1v0.1v0.1v0.1v0.1v0.1l0.1,0.1l0.1,0.2l0.1,0.1l0.1,0.2l0.1,0.2l0.2,0.2l0.2,0.2l0.2,0.2l0.2,0.2l0.2,0.2
		l0.1,0.1l0.1,0.1l0.1,0.1l0.1,0.1l0.1,0.1l0.1,0.1l0.1,0.1l0.2,0.1l0.2,0.1l0.2,0.1l0.2,0.1l0.2,0.1l0.2,0.1l0.2,0.1l0.2,0.1
		l0.2,0.1l0.2,0.1l0.2,0.1l0.2,0.1l0.2,0.1l0.2,0.1l0.2,0.1l0.2,0.1l0.2,0.1l0.2,0.1l0.2,0.1l0.2,0.1l0.2,0.1l0.3,0.1l0.2,0.1
		l0.3,0.1l0.3,0.1h0.1h0.1h0.1h0.1h0.1h0.1h0.1h0.1h0.1h0.1h0.1h0.1h0.1h0.1h0.1h0.1h0.2h0.2h0.2h0.2h0.2h0.2l0.2,0.1h0.2h0.2h0.2
		l0.2,0.1h0.2h0.2l0.2,0.1h0.2l0.2,0.1h0.2l0.2,0.1h0.2l0.2,0.1h0.1l0.2,0.1h0.1l0.1,0.1L-381.4,784.4L-381.4,784.4L-381.4,784.4z"
		/>
	
		<path fill="#FFFFFF" stroke="#000000" stroke-width="0.4764" stroke-linecap="round" stroke-linejoin="round" stroke-miterlimit="2.6131" d="
		M-385.3,756.4c8.4,7.7,24.6,12.9,43.1,12.9c16.8,0,31.7-4.3,40.6-10.8l0,0c0.8-0.6,1.8-0.9,2.9-0.9c2,0,3.7,1.1,4.2,2.5
		c1.7,4.5,2.9,9.4,3.4,14.7c0.1,1,0.2,2.1,0.2,3.1l0,0c0-0.8-0.4-1.5-1-1.9c-0.7-0.4-1.6-0.6-2.7-0.5c-1.1,0.1-2.2,0.6-3.1,1.2
		c-0.1,0-0.1,0.1-0.2,0.1c-1.3,0.8-2.6,1.7-3.9,2.5c-10.2,5.7-24.5,9.2-40.1,9c-13.7-0.1-26.4-3-36.4-7.8c-1.7-0.9-3.9-1.9-6.4-2.6
		c-2.9-0.9-5.6-1.5-7.7-1.6c-2.1-0.1-3.6,0.2-3.9,0.9l0,0l6-20.5c0.3-0.7,1.4-1.3,2.7-1.3C-386.6,755.6-385.8,755.9-385.3,756.4
		L-385.3,756.4z"/>
	<path d="M-351.3,781.6c-0.1,0.1-0.3,0.4-0.6,0.7c-0.1,0.1-0.6,0.5-0.8,0.5c-0.1,0-0.2,0-0.3,0c-0.2,0-0.5-0.2-0.7-0.5
		c-0.3-0.4-0.4-0.9-0.2-1.7c0.1-0.6,0.4-1.4,0.8-2.4c0.3-0.7,0.4-0.9,1-1.4c0.2-0.2,0.3-0.2,0.8-0.4c0.2,0,0.4,0,0.4,0
		c0.3,0,0.3,0.1,0.7,0.6c0,0.1,0.1,0.1,0.1,0.1c0.1,0,0.1,0,0.2,0c0.2,0.3,0.2,0.3,0.6,0.3c0.4,0,0.5,0.2,0.5,0.5c0,0.1,0,0.1,0,0.1
		s0,0.1-0.1,0.1l-0.1,0.1v0.3c0,0,0,0-0.1,0.1c-0.2,0.3-0.2,0.3-0.5,1.4c-0.1,0.2-0.1,0.4-0.2,0.6c0,0.2,0,0.4,0,0.5
		c0,0.3,0.1,0.5,0.3,0.5c0.1,0,0.9-0.6,1.1-0.9c0-0.1,0.1-0.1,0.1-0.1s0,0,0,0.1c0,0,0,0.1,0,0.2c0,0,0,0.1,0,0.2c0,0.1,0,0.1,0,0.2
		c0,0.1,0,0.1,0,0.1c0,0.2-0.3,0.5-0.7,0.8c-0.2,0.1-0.3,0.1-0.4,0.1c0,0-0.1,0-0.3,0.1c0,0-0.2,0.1-0.3,0.1s-0.2,0-0.3,0
		c0,0,0,0-0.1,0c0,0-0.1-0.1-0.4-0.3C-351.1,782.3-351.2,782.1-351.3,781.6L-351.3,781.6z M-350.9,777.5c-0.1,0-0.2,0-0.3,0.2
		c0,0-0.1,0.1-0.2,0.2c-0.1,0.1-0.3,0.5-0.6,1.1c-0.3,0.7-0.5,1.3-0.6,1.7c0,0.3,0,0.5,0,0.7s0.1,0.3,0.1,0.3s0.1,0,0.2-0.1
		c0.1-0.1,0.1-0.2,0.2-0.2c0.1-0.1,0.2-0.2,0.2-0.2s0-0.1,0.1-0.3c0.2-0.4,0.3-0.7,0.4-0.8l0.1-0.2l0.1-0.3c0,0,0.1-0.1,0.1-0.2
		c0-0.1,0-0.2,0.1-0.3c0.1-0.3,0.2-0.5,0.2-0.7s0.1-0.3,0.1-0.3c0-0.1,0-0.3,0-0.4C-350.7,777.6-350.7,777.6-350.9,777.5
		C-350.8,777.5-350.8,777.5-350.9,777.5L-350.9,777.5z"/>
	<path d="M-354.6,775.1h-0.2h-0.2c-0.1,0-0.4-0.3-0.5-0.6c-0.1-0.1-0.1-0.3,0-0.5c0-0.2,0.1-0.3,0.3-0.6c0.1-0.1,0.2-0.2,0.3-0.2
		s0.2,0,0.4,0l0.2,0.1c0.3,0.1,0.3,0.1,0.4,0.3c0.2,0.3,0.2,0.2,0.1,0.6c0,0.2,0,0.3,0,0.3c0,0.1,0,0.1-0.1,0.2
		c-0.1,0.1-0.2,0.1-0.2,0.2C-354.5,775.1-354.5,775.1-354.6,775.1L-354.6,775.1z"/>
	<path d="M-355.4,782.4h-0.2h-0.2c-0.2,0-0.6-0.4-0.8-0.8c-0.1-0.3-0.2-0.6-0.1-0.9c0-0.2,0-0.4,0.1-0.7c0.1-0.5,0.1-0.8,0.2-0.9
		c0-0.1,0-0.3,0.1-0.5c0.1-0.6,0.1-0.5,0.2-1c0-0.1,0.1-0.2,0.1-0.2c0-0.2,0-0.2-0.1-0.3V777c0,0,0,0,0-0.1c0,0,0.1-0.1,0.2-0.1h0.2
		c0,0,0,0,0.1,0c0.1-0.1,0.3-0.1,0.6-0.1c0.1,0,0.1,0,0.2,0.1c0.1,0.1,0.2,0.3,0.4,0.5c0.1,0,0.1,0.1,0.1,0.2c0,0,0,0.1-0.2,0.3
		c0,0.1-0.1,0.3-0.1,0.6c0,0.1-0.1,0.4-0.3,0.9c-0.1,0.4-0.2,0.8-0.2,1.1c-0.1,0.7,0,1.1,0.3,1.1c0.2,0,0.5-0.2,0.7-0.5
		c0.2-0.3,0.3-0.4,0.3-0.4c0.1,0,0.1,0.1,0.1,0.2v0.1v0.1v0.4c0,0,0,0.1-0.1,0.2l-0.1,0.1l-0.2,0.1l-0.1,0.1l-0.2,0.1l-0.3,0.3h-0.2
		C-355.2,782.4-355.4,782.4-355.4,782.4L-355.4,782.4z"/>
	<path d="M-358.6,780.4c-0.4,0.5-0.4,0.5-1.2,1c-0.1,0.1-0.3,0.2-0.4,0.2s-0.3-0.1-0.7-0.3c-0.1-0.1-0.1-0.1-0.4-0.7
		c-0.1-0.4-0.2-0.8-0.1-1.2c0-0.1,0.1-0.3,0.1-0.5c0.1-0.4,0.2-0.7,0.2-0.7l0.2-0.8c0,0,0-0.1,0.1-0.3c0-0.2,0.2-0.8,0.5-1.7
		c0.6-2.1,0.4-1.6,0.7-2.2c0,0,0-0.1,0.1-0.2c0,0,0,0,0.1-0.1c0,0,0,0,0-0.1c0,0,0-0.1,0-0.2c0-0.1-0.1-0.2,0-0.3c0,0,0-0.1,0.1-0.1
		c0-0.3,0-0.3,0.4-0.3c0.1,0,0.1,0,0.2-0.1c0.1,0,0.4,0,0.5,0c0.2,0,0.4,0.1,0.5,0.4c0.1,0.1,0.1,0.2,0.1,0.3v0.2c0,0,0,0,0,0.1
		l0.1,0.1v0.1v0.1c0,0-0.1,0.1-0.2,0.2c0,0-0.1,0.2-0.2,0.4c0,0-0.1,0.1-0.1,0.3c-0.1,0.2-0.3,0.7-0.6,1.6c-0.1,0.4-0.3,0.9-0.5,1.5
		c-0.2,0.4-0.3,0.7-0.3,0.8c-0.1,0.5-0.3,1.8-0.3,1.9c0,0.3,0.1,0.5,0.3,0.6c0.1,0,0.3-0.1,0.4-0.4c0-0.1,0.1-0.2,0.2-0.4
		c0.1-0.1,0.1-0.1,0.1-0.2c0,0,0-0.1,0-0.2c0-0.1,0-0.4,0.1-0.9c0.1-0.7,0.1-1.1,0.1-1.3c0-0.2-0.1-0.3-0.1-0.4c0-0.1,0-0.1,0-0.1
		s0.1-0.1,0.3-0.2c0.1-0.1,0.3-0.2,0.5-0.2c0.1-0.1,0.2-0.1,0.2-0.1l0.2,0.1h0.1c0.1,0,0.6,0.8,0.5,1l-0.1,0.3v0.2
		c-0.3,1-0.2,0.8-0.4,1.1c0,0,0,0.1-0.1,0.2c-0.1,0.4-0.2,0.6-0.3,0.8c-0.1,0.1-0.1,0.2-0.1,0.2s0,0.1,0.1,0.2c0,0.1,0,0.1,0.2,0.1
		l0.3,0.1c0.1,0,0.4-0.2,0.9-0.6v-0.1v0.1c0,0.1,0,0.2-0.1,0.2c0,0.1,0,0.1,0,0.2c0,0,0,0.1,0,0.2v0.1c0,0.1-0.1,0.2-0.4,0.4
		c-0.3,0.1-0.5,0.2-0.7,0.1C-358.1,781-358.2,781-358.6,780.4L-358.6,780.4z"/>
	<path d="M-363.9,776.1c0,0.1-0.1,0.3-0.2,0.6c-0.1,0.4-0.6,1.2-0.9,1.4c-0.3,0.3-0.4,0.5-0.4,0.5c-0.1,0.1-0.2,0.2-0.2,0.2
		s-0.1-0.1,0-0.1c0,0,0-0.1,0.1-0.2c0,0,0-0.1,0.1-0.1c0-0.1,0-0.2,0-0.3c0,0,0-0.1,0-0.2c0-0.1,0.1-0.2,0.2-0.4
		c0.1-0.1,0.1-0.3,0.2-0.5c0.1-0.4,0.2-0.7,0.3-0.7c0-0.1,0.1-0.2,0.1-0.2c0-0.1,0-0.3,0-0.5s0-0.3,0-0.4l0.1-0.5l0.1-0.4l0.1-0.5
		v-0.1c0-0.1,0-0.1,0.2-0.1l0.2-0.1c0.2,0,0.3-0.1,0.3-0.1s0,0,0.1,0.1c0.1,0.1,0.1,0.1,0.1,0.1c0.3,0.1,0.3,0.1,0.2,0.4
		c0,0,0,0.1-0.1,0.2c0,0-0.1,0.2-0.2,0.5v0.1v0.1c0,0,0,0.1,0.1,0.1c0.3,0.1,0.7,0,0.9-0.2c0.1-0.1,0.1-0.1,0.4,0l0.1,0.1
		c0.1,0.2,0.1,0.2,0.5,0.4c0,0,0.1,0.1,0.2,0.2c0,0.1,0.1,0.2,0.1,0.2c-0.2,0.1-0.3,0.2-0.3,0.3c-0.1,0.2-0.2,0.4-0.2,0.4
		s-0.1,0.1-0.1,0.2c-0.1,0.2-0.2,0.2-0.2,0.3v0.2c0,0.1-0.1,0.2-0.2,0.3c0,0.2-0.1,0.4-0.2,0.6c-0.1,0.2-0.1,0.4-0.2,0.6
		c-0.2,0.6-0.1,0.8,0.4,1h0.1c0,0,0.1-0.1,0.2-0.2c0.4-0.2,0.3-0.1,0.5-0.4c0-0.1,0.1-0.1,0.1-0.1s0.1,0.1,0.1,0.2l-0.1,0.3
		c-0.1,0.5-0.1,0.5-0.3,0.6c-0.6,0.4-1.4,0.8-1.7,0.7c-0.1,0-0.6-0.3-0.7-0.5s-0.2-0.4-0.3-0.6c-0.1-0.3-0.1-0.5-0.1-0.7
		c0.2-0.8,0.3-1,0.5-1.5l0.4-0.9c0.1-0.1,0.1-0.2,0.1-0.2c0-0.1-0.1-0.3-0.1-0.3h-0.1C-363.7,776.1-363.7,776.1-363.9,776.1
		L-363.9,776.1z"/>
	<path d="M-368,773c0.2,0,0,0.1,0.8-0.1c0.2,0,0.4,0,0.8,0h0.5c0.1,0,0.2,0.1,0.4,0.4c0.1,0.1,0.2,0.3,0.3,0.4
		c0.1,0.2,0.2,0.9,0.1,1.4c-0.1,0.6-0.4,1.1-0.8,1.4c-0.6,0.5-0.6,0.4-0.8,0.5c-0.2,0-0.3,0.1-0.3,0.1s0,0-0.1,0s-0.2,0-0.2,0
		s-0.2,0-0.4-0.1h-0.1c-0.1,0-0.1,0-0.2,0.1c-0.1,0.6,0.2,1.2,0.6,1.2c0.3,0.1,0.6,0,1-0.2c0.1,0,0.2-0.1,0.5-0.3c0,0,0.1,0,0.2-0.1
		c0.2-0.1,0.3-0.2,0.4-0.3c0.1-0.1,0.1-0.2,0.2-0.2s0.1-0.1,0.1-0.1s0,0,0,0.1v0.1v0.1c0,0,0,0.1,0,0.2c0,0.1,0,0.2,0,0.2
		c0,0.3-0.5,0.7-1,0.9c-0.1,0.1-0.4,0.2-0.7,0.4c-0.2,0.1-1,0.2-1.4,0.2c-0.3,0-0.6-0.3-0.9-0.6c-0.2-0.2-0.3-0.4-0.3-0.5
		c-0.2-0.4-0.2-0.8-0.1-1.3c0.2-1.1,0.4-1.8,1-3.1C-368.3,773.5-368.2,773.2-368,773L-368,773z M-366.5,773.6L-366.5,773.6
		c-0.2-0.1-0.5,0.3-0.8,1.1c-0.3,0.7-0.5,1.2-0.6,1.5c0,0.1,0,0.1,0.1,0.1c0,0,0,0,0.1,0.1c0.1,0,0.1,0.1,0.1,0.1
		c0.3,0.1,1-0.9,1.2-1.9c0-0.2,0-0.5,0-0.7C-366.3,773.7-366.3,773.7-366.5,773.6L-366.5,773.6z"/>
	<path d="M-371.4,773.2c0.1-0.1,0.3-0.3,0.5-0.4c0.1,0,0.1-0.1,0.2-0.2c0-0.1,0.6-0.1,1,0c0.2,0.1,0.2,0.1,0.5,0.4
		c0,0.1,0.1,0.2,0.1,0.2c0.1,0.6,0,1.3-0.2,2.1c-0.3,0.9-0.4,1-1.1,1.9l-0.1,0.1l-0.4,0.2l-0.2,0.2h-0.2c-0.1,0-0.2,0.1-0.3,0.1
		s-0.2,0.1-0.2,0.1l-0.3-0.1c0,0,0,0-0.1,0h-0.1c-0.1,0-0.2-0.1-0.3-0.1c-0.1-0.1-0.1-0.1-0.1-0.1s-0.2,0-0.2,0.1v0.2l-0.2,0.5v0.3
		l-0.2,0.6c0,0.2-0.1,0.4-0.1,0.7c0,0,0,0.1,0,0.2c0,0.1,0,0.2,0,0.2s-0.1,0.1-0.2,0.1c-0.2,0-0.3,0.1-0.3,0c-0.1,0-0.2-0.1-0.3-0.3
		c0-0.1,0-0.1-0.2-0.3c0,0-0.1-0.2-0.2-0.4c0-0.1,0,0.1,0.3-1.5l0.3-0.8l0.5-1.6l0.7-2l0.3-0.9c0.2-0.5,0.4-0.8,0.4-0.9
		c0-0.1,0-0.2,0.1-0.3c0-0.1,0-0.2,0-0.2c0-0.1,0-0.1,0.1-0.2V771c0,0,0-0.1,0-0.2l0,0c0-0.1,0.1-0.1,0.2-0.1c0.1,0,0.1,0,0.2,0
		c0.2,0,0.4-0.1,0.4-0.1s0,0,0.1,0.1c0,0,0.2,0.1,0.4,0.1c0.1,0,0.2,0.1,0.2,0.2c0.1,0.3,0.1,0.4,0.1,0.4s0,0-0.1,0.1
		c-0.1,0.1-0.1,0.1-0.2,0.3c0,0-0.1,0.1-0.2,0.3c-0.1,0.2-0.2,0.4-0.3,0.7C-371.4,773-371.4,773.1-371.4,773.2L-371.4,773.2z
		 M-372.6,776.8c0.1,0.1,0.2,0.2,0.2,0.2v0.1h0.2l0.1,0.1l0,0c0,0,0.1-0.1,0.2-0.1c0.3-0.2,0.3-0.2,0.6-0.9l0.2-0.5l0.1-0.3l0.2-0.7
		l0.1-0.4c0-0.2,0-0.5-0.2-0.5c-0.1,0-0.3,0.1-0.6,0.4c-0.3,0.3-0.3,0.3-0.4,0.7c0,0-0.1,0.3-0.2,0.6
		C-372.3,775.7-372.4,776.2-372.6,776.8L-372.6,776.8z"/>
	<path d="M-376.3,774.4c-0.6,0.5-1,0.8-1.2,0.9c-0.2,0.1-0.6,0.1-0.8,0c0,0-0.1,0-0.2-0.1c0-0.1-0.1-0.1-0.2-0.2
		c-0.1,0-0.2-0.4-0.2-1c0-0.3,0-0.6,0.1-0.8c0.3-0.7,0.5-1.2,0.6-1.5c0.1-0.2,0.1-0.2,0.1-0.2l0.2-0.7c0.1-0.2,0.1-0.3,0.2-0.4
		c0.1-0.1,0.1-0.1,0.1-0.1V770l0.1-0.2l0.2-0.5c0-0.2,0.4-0.3,0.6-0.2h0.1c0.1,0,0.1,0.1,0.1,0.1c0.1,0,0.2,0,0.3,0h0.1l0.1,0.1l0,0
		c0.2,0.6,0.2,0.6,0.2,0.7c0,0.1,0,0.1-0.1,0.2c0,0.1-0.1,0.1-0.1,0.1v0.2c0,0,0,0-0.1,0.1c-0.1,0.1-0.2,0.3-0.4,0.6
		c0,0.1-0.3,0.5-0.7,1.2c-0.2,0.3-0.3,0.6-0.4,1c-0.1,0.3-0.2,0.6-0.1,0.8c0,0.2,0.1,0.3,0.1,0.3c0.1,0,0.2,0,0.3-0.1
		c0.3-0.3,0.5-0.4,0.5-0.5c0.2-0.2,0.4-0.6,0.6-1c0.3-0.6,0.4-0.9,0.5-0.9c0.2-0.4,0.3-0.7,0.4-0.9l0,0c0-0.1,0-0.1,0-0.1l0.1-0.1
		c0-0.1,0-0.2,0-0.2c0-0.1,0.1-0.1,0.1-0.2c0.1-0.1,0.2-0.1,0.2-0.1l0.2,0.1c0.1,0,0.2,0.1,0.3,0.1c0.1,0.1,0.2,0.1,0.3,0.2
		c0,0,0.1,0,0.3,0.1h0.1c0.1,0,0.1,0.1,0.1,0.1l-0.1,0.2c0,0,0,0.1,0.1,0.3v0.1c0,0-0.1,0.1-0.2,0.2c0,0-0.1,0.1-0.2,0.3
		c0,0-0.1,0.3-0.4,0.6c-0.2,0.4-0.4,0.7-0.5,0.9l-0.2,0.6c-0.1,0.3,0,0.9,0.2,1c0.2,0.1,0.5-0.1,1.1-0.7c0.1-0.1,0.1-0.1,0.1-0.1
		s0,0.1,0,0.2c0,0-0.1,0.3-0.3,0.8c0,0.1-0.1,0.1-0.3,0.2c-0.1,0-0.3,0.1-0.4,0.2c-0.1,0-0.1,0-0.2,0.1c-0.4,0.2-0.2,0.1-0.6,0.2
		c-0.2,0-0.3,0-0.3,0C-376.1,775.7-376.3,775.3-376.3,774.4L-376.3,774.4z"/>
	<path d="M-379.3,764.8c0,0-0.1,0-0.2,0c-0.1,0-0.1-0.1-0.2-0.1c-0.2-0.1-0.5,0-0.8,0.2c-0.4,0.2-0.6,0.5-0.7,0.8
		c-0.2,0.5,0,1,0.6,1.8c0.3,0.4,0.8,1.1,1.6,2c0.5,0.6,0.7,1.5,0.5,2.2c-0.1,0.3-0.1,0.3-0.8,0.9c-0.6,0.5-0.7,0.6-1.2,0.8
		c-0.6,0.2-1.3,0.2-1.9,0c-0.8-0.3-1.4-0.7-1.8-1.4c-0.3-0.5-0.4-1.4-0.3-1.8c0-0.1,0.1-0.1,0.2-0.1s0.2-0.1,0.2-0.1s0,0,0-0.1v-0.1
		c0.1-0.2,0.2-0.2,0.3-0.2s0.1,0.1,0.1,0.2c0,0.1,0,0,0.1,0.1c0,0,0.1,0.1,0,0.3c0,0.2,0.3,0.6,0.5,0.9c0.3,0.4,0.8,0.6,1.3,0.8
		c0.3,0.1,0.6,0.1,0.8,0.1c0.1,0,0.3,0,0.4,0s0.1,0,0.2-0.2l0.3-0.6c0,0-0.1-0.3-0.5-0.9c-0.4-0.6-0.4-0.7-1.1-1.5s-1.1-1.4-1.2-1.9
		s-0.1-1,0.1-1.5c0.4-1.2,1.1-1.8,2.4-1.9c0.4,0,0.4,0,1.4,0.2c0.5,0.2,0.8,0.3,0.8,0.4c0.1,0.1,0.1,0.1,0.1,0.1h0.3
		c0,0,0.2,0.2,0.2,0.3s0,0.2,0,0.4c-0.1,0.5-0.1,0.4-0.1,1.3c0,0.5,0,0.8,0,0.8c0,0.1-0.1,0.2-0.3,0.1c-0.1,0-0.2,0-0.4,0.1
		c-0.1,0.1-0.2,0.1-0.3,0c-0.1,0-0.1,0-0.2-0.1c-0.1,0-0.1-0.1-0.2-0.1c-0.2-0.1-0.2,0-0.2-0.7c0-0.1,0-0.5,0-0.9
		C-379.3,765-379.3,764.8-379.3,764.8C-379.1,764.9-379.1,764.9-379.3,764.8L-379.3,764.8z"/>
	<path d="M-298.5,770.4c0,0.1-0.1,0.5-0.2,0.9c0,0.1-0.3,0.7-0.4,0.8c-0.1,0.1-0.2,0.2-0.3,0.2c-0.2,0.1-0.5,0-0.8-0.1
		c-0.4-0.2-0.8-0.7-1-1.4c-0.2-0.6-0.3-1.4-0.5-2.5c-0.1-0.8,0-1,0.2-1.7c0.1-0.3,0.1-0.3,0.6-0.7c0.2-0.1,0.3-0.2,0.3-0.3
		c0.3-0.1,0.3,0,0.8,0.2c0.1,0,0.1,0.1,0.1,0.1c0.1-0.1,0.1-0.1,0.1-0.1c0.3,0.2,0.3,0.1,0.7,0c0.3-0.1,0.5-0.1,0.7,0.2
		c0.1,0.1,0.1,0.1,0.1,0.1v0.1c0,0.1,0,0.1,0,0.2l0.1,0.3c0,0,0,0,0,0.1c0,0.4,0,0.4,0.2,1.5c0,0.3,0.1,0.5,0.1,0.6
		c0,0.2,0.1,0.3,0.2,0.5c0.2,0.3,0.3,0.4,0.5,0.4c0.1,0,0.5-1,0.5-1.4c0-0.1,0-0.2,0.1-0.2c0,0,0,0,0.1,0.1c0,0,0,0.1,0,0.2
		c0,0,0,0.1,0,0.2c0,0.1,0,0.1,0,0.2c0,0.1,0.1,0.1,0.1,0.1c0,0.2,0,0.5-0.3,1c-0.1,0.1-0.1,0.2-0.2,0.3c0,0-0.1,0.1-0.2,0.2
		c0,0.1-0.1,0.1-0.3,0.2c-0.1,0.1-0.2,0.1-0.2,0.2c0,0,0,0-0.1,0c0,0-0.1,0-0.5,0C-297.9,770.9-298.2,770.7-298.5,770.4
		L-298.5,770.4z M-300,766.5c-0.1,0-0.1,0.1-0.1,0.3c0,0,0,0.1,0,0.3c0,0.1,0,0.6,0,1.3c0,0.8,0.1,1.4,0.3,1.8
		c0.1,0.3,0.2,0.5,0.3,0.7c0.1,0.1,0.2,0.2,0.2,0.2s0.1-0.1,0.1-0.2c0-0.1,0-0.2,0.1-0.2c0-0.1,0.1-0.2,0.1-0.3c0,0,0-0.1,0-0.3
		c0-0.5,0-0.8,0-0.9V769l-0.1-0.3c0-0.1,0-0.1,0-0.2c0,0,0-0.2,0-0.3c0-0.3-0.1-0.6-0.1-0.8c0-0.2,0-0.3,0-0.3
		c0-0.1-0.1-0.3-0.2-0.4c0-0.1,0-0.1-0.2-0.1C-299.9,766.5-300,766.5-300,766.5L-300,766.5z"/>
	<path d="M-304.4,767.2h-0.1l-0.2,0.1c-0.1,0.1-0.5,0-0.8-0.1c-0.2,0-0.3-0.2-0.3-0.3c-0.1-0.1-0.1-0.3-0.1-0.6c0-0.1,0-0.3,0.2-0.4
		c0,0,0.1-0.1,0.3-0.2l0.2-0.1c0.3-0.1,0.3-0.1,0.5,0c0.3,0.1,0.3,0,0.5,0.3c0.1,0.1,0.1,0.2,0.1,0.2c0,0.1,0,0.1,0,0.2
		c0,0.1,0,0.2,0,0.3C-304.3,767.1-304.3,767.2-304.4,767.2L-304.4,767.2z M-301.5,773.3l-0.2,0.1l-0.2,0.1c-0.2,0.1-0.7,0-1.1-0.3
		c-0.3-0.2-0.5-0.4-0.6-0.7c-0.1-0.2-0.2-0.4-0.3-0.6c-0.2-0.5-0.3-0.8-0.3-0.9c-0.1-0.1-0.1-0.3-0.2-0.5c-0.2-0.6-0.2-0.5-0.3-1
		c0-0.1,0-0.2-0.1-0.3c-0.1-0.2-0.1-0.2-0.3-0.2v-0.1c0,0,0,0,0-0.1l0.1-0.2h0.2c0,0,0,0,0.1-0.1c0-0.1,0.2-0.2,0.5-0.3
		c0.1,0,0.1,0,0.3,0c0.1,0.1,0.3,0.1,0.6,0.2c0.1,0,0.1,0,0.2,0.1c0,0,0,0.1,0,0.3c0,0.1,0.1,0.3,0.2,0.6c0,0.1,0.1,0.4,0.3,0.9
		c0.1,0.4,0.2,0.8,0.4,1.1c0.3,0.6,0.6,0.9,0.8,0.8c0.2-0.1,0.3-0.4,0.3-0.8c0-0.3,0-0.5,0-0.5s0.1,0,0.2,0.2c0,0,0,0,0,0.1v0.1
		l0.2,0.4c0,0,0,0.1,0,0.2v0.1l-0.1,0.2v0.1l-0.1,0.1l-0.1,0.4l-0.1,0.1C-301.3,773.1-301.4,773.3-301.5,773.3L-301.5,773.3z"/>
	<path d="M-306,772.6c0,0.1,0.1,0.2,0.1,0.3c0.1,0.2,0.3,0.5,0.5,0.7c0.2,0.2,0.5,0.2,0.7,0.2l0.1-0.1c0.1,0,0.1-0.1,0.2-0.1
		c0,0,0.2-0.3,0.4-0.8c0.1-0.4,0.1-0.3,0.1-0.8c0-0.1,0-0.2,0-0.2c0.1,0,0.1,0,0.1,0.1v0.1l0.2,0.3l0,0c0.1,0.2,0.1,0.2,0.1,0.5
		c-0.1,0.7,0,0.5-0.2,1c-0.2,0.8-0.2,0.8-0.6,1.1l-0.5,0.4c-0.2,0.1-1,0-1.3-0.2c-0.3-0.1-0.8-0.6-0.9-1c-0.1-0.2-0.5-1.2-1.3-3
		c-0.3-0.6-0.9-2.9-1-3.4c0-0.3-0.1-0.6-0.1-0.6l-0.1-0.2c-0.1-0.1,0-0.2,0.1-0.4c0.3-0.3,0.5-0.5,0.6-0.5c0,0,0.2-0.1,0.6-0.1
		c0.1,0,0.1,0,0.2,0c0,0,0.1,0,0.3,0c0.3,0,0.6,0.3,1.1,0.9c0.2,0.3,0.4,0.7,0.5,0.9C-305.5,768.8-305.5,770.6-306,772.6L-306,772.6
		z M-306.5,771.5c0.2-1.1,0.1-2.2-0.4-3.4c0-0.1-0.2-0.5-0.5-1.1c-0.2-0.4-0.4-0.6-0.5-0.5c-0.1,0,0,0.7,0.4,1.9
		C-307.1,769.8-306.8,770.8-306.5,771.5L-306.5,771.5z"/>
	<path d="M-312,771.5c0.2-0.1,0,0,0.6-0.5c0.1-0.1,0.4-0.2,0.7-0.4l0.4-0.2c0.1,0,0.3,0,0.5,0.1c0.2,0.1,0.3,0.1,0.5,0.2
		c0.2,0.1,0.7,0.7,0.8,1.1c0.2,0.5,0.2,1.2,0.1,1.6c-0.3,0.7-0.3,0.7-0.4,0.8c-0.1,0.1-0.2,0.2-0.2,0.2s0,0-0.1,0l-0.1,0.1
		c-0.1,0-0.2,0.1-0.4,0.1h-0.1c-0.1,0-0.1,0.1,0,0.2c0.2,0.5,0.8,0.9,1.2,0.7c0.3-0.1,0.5-0.4,0.8-0.7c0.1-0.1,0.1-0.2,0.2-0.5
		c0,0,0-0.1,0.1-0.3c0.1-0.2,0.1-0.3,0.1-0.4c0-0.1,0-0.2,0-0.3c0-0.1,0.1-0.1,0.1-0.1s0,0,0.1,0.1v0.1v0.1c0,0,0.1,0.1,0.1,0.2
		c0,0.1,0,0.1,0.1,0.2c0.1,0.2,0,0.8-0.4,1.3c-0.1,0.1-0.2,0.4-0.3,0.7c-0.1,0.2-0.7,0.8-1.1,0.9c-0.3,0.1-0.6,0.1-1.1,0
		c-0.3-0.1-0.5-0.2-0.6-0.3c-0.3-0.2-0.6-0.6-0.8-1c-0.4-1.1-0.6-1.8-0.8-3.2C-312,772-312,771.7-312,771.5L-312,771.5z
		 M-310.4,771.1h-0.1c-0.1,0-0.1,0.5,0,1.4c0.1,0.8,0.2,1.3,0.3,1.5c0,0.1,0,0.1,0.2,0c0,0,0,0,0.1,0c0.1,0,0.1,0,0.2,0
		c0.3-0.1,0.3-1.3,0-2.2c-0.1-0.2-0.2-0.4-0.3-0.6C-310.2,771.1-310.2,771.1-310.4,771.1L-310.4,771.1z"/>
	<path d="M-313.5,777.2c0,0.1-0.1,0.5-0.2,0.9c0,0.1-0.3,0.7-0.4,0.8s-0.2,0.2-0.3,0.2c-0.2,0.1-0.5,0-0.8-0.1
		c-0.5-0.2-0.8-0.6-1-1.3c-0.2-0.6-0.4-1.4-0.6-2.5c-0.1-0.8-0.1-1,0.2-1.7c0.1-0.3,0.1-0.3,0.6-0.7c0.1-0.1,0.3-0.2,0.3-0.3
		c0.2-0.1,0.3-0.1,0.8,0.2c0.1,0,0.1,0,0.1,0c0.1,0,0.1-0.1,0.1-0.1c0.3,0.1,0.3,0.1,0.7,0c0.3-0.1,0.5-0.1,0.7,0.2l0.1,0.1v0.1
		c0,0.1,0,0.1,0,0.2l0.1,0.3c0,0,0,0,0,0.1c0,0.4,0,0.4,0.2,1.5c0,0.3,0.1,0.5,0.1,0.6c0.1,0.2,0.1,0.3,0.2,0.5
		c0.2,0.3,0.4,0.4,0.5,0.3c0.1,0,0.5-1,0.5-1.4c0-0.1,0-0.1,0.1-0.2c0,0,0,0,0.1,0.1c0,0,0,0.1,0,0.2c0,0,0,0.1,0,0.2
		c0,0.1,0,0.1,0.1,0.2c0,0.1,0,0.1,0.1,0.1c0,0.2,0,0.5-0.2,1c-0.1,0.2-0.2,0.3-0.2,0.3s-0.1,0.1-0.2,0.3c0,0.1-0.1,0.1-0.3,0.3
		c-0.1,0-0.2,0.1-0.2,0.1s0,0-0.1,0c0,0-0.1,0-0.5,0C-312.9,777.7-313.2,777.5-313.5,777.2L-313.5,777.2z M-315.2,773.3
		c-0.1,0-0.1,0.1-0.1,0.3c0,0,0,0.1,0,0.3c0,0.1,0,0.6,0.1,1.3c0.1,0.8,0.2,1.4,0.3,1.8c0.1,0.3,0.2,0.5,0.3,0.6
		c0.1,0.1,0.2,0.2,0.3,0.2c0,0,0.1-0.1,0.1-0.2c0-0.1,0-0.2,0.1-0.2c0-0.1,0.1-0.2,0.1-0.3c0,0,0-0.1,0-0.3c0-0.5,0-0.8-0.1-0.9
		v-0.2l-0.1-0.3c0-0.1,0-0.1,0-0.2c0-0.1-0.1-0.2-0.1-0.3c0-0.3-0.1-0.6-0.1-0.8c0-0.2,0-0.3-0.1-0.3c0-0.1-0.1-0.3-0.2-0.4
		c-0.1-0.1-0.1-0.1-0.3,0C-315.1,773.3-315.1,773.3-315.2,773.3L-315.2,773.3z"/>
	<path d="M-320.1,776.5c0,0.1,0,0.3,0.1,0.7s0.1,1.3,0,1.7s-0.1,0.6-0.1,0.7c0,0.2,0,0.2-0.1,0.3c0,0-0.1,0-0.1-0.1c0,0,0-0.1,0-0.2
		v-0.1c0-0.1-0.1-0.2-0.1-0.3c0,0,0-0.1-0.1-0.2c0-0.1,0-0.2,0-0.4c0-0.1,0-0.3-0.1-0.6c-0.1-0.5-0.2-0.7-0.1-0.7c0-0.1,0-0.2,0-0.2
		c0-0.1-0.1-0.2-0.3-0.4c-0.1-0.1-0.2-0.2-0.2-0.3l-0.1-0.5l-0.1-0.4l-0.2-0.5v-0.1c0-0.1,0-0.1,0.1-0.2l0.1-0.2
		c0.1-0.2,0.2-0.3,0.2-0.3s0,0,0.1,0c0,0,0.1,0,0.2,0c0.2-0.1,0.3,0,0.4,0.2c0,0,0,0.1,0,0.2c0,0,0,0.2,0.1,0.6l0,0v0.1
		c0,0,0.1,0,0.2,0c0.3-0.1,0.6-0.4,0.7-0.7c0-0.1,0-0.1,0.3-0.2c0,0,0.1,0,0.2,0c0.2,0.1,0.2,0.1,0.7,0.1c0.1,0,0.2,0,0.3,0.1
		c0.1,0.1,0.2,0.1,0.2,0.1c-0.1,0.2-0.1,0.4-0.1,0.4c0,0.2,0.1,0.4,0.1,0.5c0,0,0,0.1,0,0.2c0,0.2,0,0.3,0,0.3l0.1,0.2
		c0,0.1,0,0.2,0,0.4c0.1,0.2,0.1,0.4,0.2,0.6c0,0.2,0.1,0.4,0.1,0.6c0.2,0.6,0.4,0.7,0.8,0.6h0.1c0,0,0.1-0.1,0.1-0.3
		c0.1-0.4,0.1-0.3,0.2-0.7c0-0.1,0-0.1,0-0.1s0.1,0,0.1,0.1l0.1,0.3c0.2,0.5,0.2,0.5,0.1,0.7c-0.3,0.7-0.7,1.5-1,1.5
		c-0.2,0.1-0.7,0.1-0.8,0c-0.2-0.1-0.4-0.2-0.6-0.3c-0.3-0.2-0.4-0.4-0.5-0.5c-0.2-0.7-0.3-1-0.4-1.5l-0.1-0.9c0-0.2,0-0.3,0-0.3
		c0-0.1-0.2-0.2-0.3-0.2c0,0,0,0-0.1,0.1C-319.9,776.4-320,776.4-320.1,776.5L-320.1,776.5z"/>
	<path d="M-325,771.8l0.1,0.3c0,0.1,0,0.3-0.1,0.4c0,0.1,0,0.3,0,0.4c0,0.1,0,0.2,0,0.3c0,0.2,0,0.4,0.1,0.6v0.2
		c0.1,0.4,0.3,0.8,0.4,1.3c0.1,0.3,0.3,0.6,0.4,0.8l0.2-0.1l0.2-0.1l0.1-0.1l0.1-0.1l0.1-0.1l0.1-0.2l0.1-0.2V775l0.1-0.2v-0.2v-0.2
		v-0.2V774v-0.2l-0.1-0.3c0-0.1-0.1-0.2-0.1-0.3c0-0.1-0.1-0.2-0.2-0.3c-0.1-0.1-0.1-0.2-0.2-0.3c-0.1-0.1-0.2-0.1-0.2-0.2
		c-0.1-0.1-0.2-0.1-0.3-0.2l-0.2-0.1C-324.5,771.9-324.7,771.8-325,771.8L-325,771.8z M-325.4,771.8c-0.2,0-0.4,0-0.6,0.1l-0.3,0.1
		l-0.3,0.1l-0.3,0.1l-0.2,0.1l-0.2,0.2l-0.2,0.2l-0.2,0.2c-0.1,0.2-0.3,0.4-0.4,0.6l-0.1,0.1l-0.1,0.2l-0.1,0.1v0.2v0.2l-0.1,0.3
		v0.2v0.2v0.3v0.3v0.2v0.2l0.1,0.2l0.1,0.1l0.1,0.2l0.1,0.1l0.1,0.1l0.1,0.1l0.1,0.1l0.1,0.1l0.1,0.1h0.1h0.1h0.1h0.1h0.1h0.1h0.2
		c0.1,0,0.2-0.1,0.2-0.1l0.2-0.1l0.4-0.4l0.1,0.6l-0.2,0.3c-0.1,0.1-0.1,0.2-0.2,0.3c-0.1,0.1-0.2,0.1-0.2,0.2
		c-0.1,0.1-0.2,0.1-0.3,0.2l-0.2,0.1c-0.1,0-0.2,0.1-0.3,0.1h-0.2h-0.2h-0.2h-0.2h-0.2l-0.2-0.1l-0.2-0.1l-0.2-0.1l-0.1-0.1
		l-0.2-0.1l-0.1-0.1l-0.1-0.2l-0.1-0.2l-0.1-0.2l-0.1-0.2l-0.1-0.3c0-0.1,0-0.3,0-0.4c0-0.2,0-0.3,0-0.5c0-0.1,0-0.2,0-0.3
		c0-0.2,0.1-0.5,0.2-0.7l0.1-0.2c0.2-0.4,0.4-0.8,0.6-1.1c0.1-0.1,0.2-0.3,0.3-0.4c0.2-0.2,0.3-0.4,0.5-0.6c0.2-0.1,0.3-0.3,0.5-0.4
		c0.2-0.1,0.4-0.2,0.5-0.3c0.2-0.1,0.4-0.2,0.6-0.3c0.2-0.1,0.3-0.1,0.5-0.2c0.1,0,0.3-0.1,0.4-0.1h0.3h0.3h0.3h0.3l0.3,0.1l0.3,0.1
		l0.3,0.1l0.2,0.1l0.2,0.1l0.2,0.2l0.2,0.2l0.2,0.2l0.1,0.2l0.1,0.3l0.1,0.3l0.1,0.3v0.3v0.3v0.3v0.3l-0.1,0.3l-0.1,0.3l-0.1,0.2
		c-0.1,0.1-0.1,0.2-0.2,0.4c-0.1,0.1-0.2,0.2-0.3,0.3c-0.1,0.1-0.2,0.2-0.3,0.3c-0.1,0.1-0.3,0.2-0.4,0.3c-0.2,0.1-0.3,0.2-0.5,0.3
		c0.1,0.2,0.1,0.4,0.2,0.6c0,0.2,0.1,0.5,0.1,0.8v0.4v0.4v0.4v0.4l-0.1,0.4l-0.1,0.4l-0.1,0.3l-0.2,0.3l-0.2,0.3l-0.2,0.3l-0.1,0.1
		l-0.1,0.1l-0.1,0.1l-0.1,0.1l-0.1,0.1l-0.2,0.1l-0.1,0.1h-0.2h-0.2h-0.2h-0.2h-0.2h-0.2h-0.2h-0.2h-0.2l-0.2-0.1l-0.2-0.1l-0.2-0.1
		l-0.1-0.1l-0.1-0.1l-0.1-0.1l-0.1-0.1l-0.1-0.2v-0.2v-0.2v-0.2v-0.2l0.1-0.2l0.1-0.1l0.1-0.1l0.1-0.1l0.2-0.1h0.1l1.2,0.2l-0.5,0.5
		l-0.1,0.1l-0.1,0.1v0.1v0.1v0.1v0.1v0.1v0.1l0,0v0.1l0.1,0.1l0.1,0.1l0.2,0.1h0.2h0.2h0.1h0.1l0.2-0.1c0.1,0,0.2,0,0.3-0.1
		c0.1,0,0.2-0.1,0.3-0.2c0.1,0,0.1-0.1,0.2-0.2c0.1-0.1,0.1-0.1,0.2-0.2c0.1-0.1,0.1-0.2,0.1-0.3c0-0.1,0.1-0.2,0.1-0.3
		c0-0.1,0-0.2,0.1-0.3c0-0.1,0-0.2,0-0.4c0-0.1,0-0.3,0-0.4c0-0.1,0-0.3-0.1-0.4c0-0.1-0.1-0.3-0.1-0.4c-0.3-0.8-0.6-1.6-0.9-2.4
		l-0.1-0.3c0-0.2-0.1-0.5-0.1-0.7s0-0.4,0-0.6s0-0.4,0-0.6s0-0.4,0.1-0.6c0-0.1,0.1-0.3,0.1-0.5c0.1-0.2,0.1-0.5,0.2-0.7
		L-325.4,771.8L-325.4,771.8z"/>
	<path d="M-338.4,782.4c0-0.2,0-0.4,0-0.6v-3.9l1.4-0.7v0.6c0,0.1-0.1,0.1-0.1,0.2c0,0.1,0,0.2,0,0.2c0,0.2,0,0.4,0,0.7
		c0.1-0.2,0.3-0.4,0.4-0.6l0.2-0.2l0.1-0.1l0.1-0.1l0.1-0.1l0.1-0.1h0.1h0.1h0.1h0.2l0.2,0.1l0.2,0.1l0.1,0.1l0.1,0.2l0.1,0.2v0.2
		v0.2v2.9v0.2v0.1v0.1l0,0c0.1,0,0.3-0.1,0.3-0.2c0.4-0.4,0.7-0.9,0.9-1.3c0.1-0.3,0.3-0.6,0.4-0.9s0.2-0.7,0.4-1l0.5,0.3
		c-0.1,0.3-0.2,0.6-0.3,0.8c-0.1,0.3-0.2,0.5-0.3,0.8c-0.1,0.2-0.2,0.5-0.4,0.7c-0.1,0.2-0.2,0.3-0.3,0.5c-0.1,0.1-0.2,0.3-0.3,0.4
		c-0.1,0.1-0.2,0.2-0.3,0.3l-0.2,0.2c-0.1,0.1-0.2,0.2-0.3,0.2l-0.2,0.1l-0.2,0.1h-0.1h-0.1h-0.1h-0.2l-0.2-0.1l-0.1-0.1l-0.1-0.1
		l-0.1-0.2v-0.2v-0.2V782v-2.8c0-0.2,0-0.3,0-0.5c0,0,0,0-0.1,0c0,0-0.1,0-0.1,0.1c-0.2,0.2-0.4,0.4-0.5,0.6
		c-0.1,0.2-0.3,0.4-0.4,0.6v2.9l-1.5,0.7v-0.7l0.1-0.1C-338.4,782.8-338.4,782.6-338.4,782.4L-338.4,782.4z"/>
	<path d="M-343.6,782.6l0.1,0.1l0.1,0.1l0.1,0.1l0.1,0.1h0.2h0.2c0.1,0,0.3,0,0.4,0h0.3h0.3l0.2-0.1l0.2-0.1l0.2-0.1l0.2-0.2
		l0.2-0.2l0.1-0.2l0.1-0.3l0.1-0.3l0.1-0.3c0-0.2,0.1-0.4,0.1-0.5c0-0.2,0-0.4,0-0.6c0-0.5,0-1.1,0-1.6c0-0.4,0-0.8,0-1.1
		c0-0.2,0-0.4,0-0.7c0-0.2,0-0.4,0.1-0.6l0.1-0.2c0.2-0.6,0.4-1.1,0.7-1.6c-0.4,0.1-0.8,0.4-1.3,0.6c-0.2,0.1-0.3,0.2-0.5,0.3
		c-0.2,0.1-0.3,0.2-0.5,0.4c-0.1,0.1-0.3,0.2-0.4,0.3l-0.2,0.2l-0.2,0.2l-0.2,0.3l-0.1,0.2l-0.1,0.2v0.2v0.2v0.1v0.1v0.1v0.1v0.1
		v0.1l0.1,0.1v0.1l0.1,0.1l0.1,0.1l0.1,0.1h0.1h0.1h0.1h0.1h0.1h0.1h0.1h0.1h0.1h0.1l0.1-0.1l0.1-0.1l0.7-0.7l-0.3,1.5v0.1l-0.1,0.1
		l-0.1,0.1l-0.1,0.1l-0.2,0.1h-0.2h-0.2h-0.2h-0.2h-0.2h-0.2h-0.2l-0.2-0.1l-0.1-0.1l-0.1-0.1l-0.1-0.1l-0.1-0.1l-0.1-0.1l-0.1-0.2
		l-0.1-0.2l-0.1-0.2v-0.2V778v-0.2v-0.2v-0.2v-0.2V777v-0.2v-0.2l0.1-0.1l0.2-0.3l0.2-0.3l0.2-0.3l0.3-0.3l0.3-0.3l0.3-0.3l0.4-0.2
		l0.4-0.3l0.4-0.2l0.5-0.2l0.5-0.2c0.2-0.1,0.5-0.2,0.8-0.3c0.1-0.1,0.2-0.2,0.3-0.3h0.1h0.1h0.1h0.1h0.1l0.1,0.1v0.1v0.1v0.1v0.1
		l-0.1,0.1c-0.1,0-0.1,0.1-0.2,0.1c-0.1,0.1-0.2,0.3-0.2,0.4c0,0.1-0.1,0.3-0.1,0.4c0,0.1-0.1,0.3-0.1,0.5v0.3c0,0.3,0,0.6,0,0.9
		c0,0.6,0.1,1.2,0.2,1.8c0,0.4,0.1,0.7,0.1,1s0,0.5,0,0.8l-0.1,0.4v0.2l-0.1,0.4l-0.1,0.2l-0.1,0.2l-0.1,0.2l-0.1,0.2l-0.1,0.2
		l-0.1,0.1l-0.1,0.2l-0.1,0.1l-0.1,0.1l-0.1,0.1l-0.2,0.1l-0.1,0.1l-0.1,0.1l-0.2,0.1l-0.2,0.1l-0.2,0.1l-0.2,0.1l-0.2,0.1h-0.2
		h-0.2h-0.2h-0.2h-0.2h-0.2h-0.2h-0.2h-0.2h-0.2l-0.2-0.1l-0.2-0.1l-0.2-0.1l-0.2-0.1l-0.1-0.1l-0.1-0.1l-0.1-0.1l-0.1-0.1l-0.1-0.1
		v-0.2v-0.2v-0.2v-0.2l0.1-0.2l0.1-0.2l0.1-0.2l0.1-0.1l0.2-0.1l0.2-0.1h0.2h0.2h0.2l0.2,0.1h0.1l0.4,0.3l-0.5,0.3l-0.1,0.1
		l-0.1,0.1l-0.1,0.1v0.1v0.1v0.1v0.1L-343.6,782.6L-343.6,782.6L-343.6,782.6z"/>
	
		<path fill="#FFFFFF" stroke="#000000" stroke-width="0.4764" stroke-linecap="round" stroke-linejoin="round" stroke-miterlimit="2.6131" d="
		M-377.2,781.1c-0.4,2.1-0.9,4.1-1.5,5.9v-0.1c0-0.6-0.6-1.3-1.9-2s-3.1-1.4-5.7-1.9c-0.7-0.1-1.4-0.3-2.2-0.5
		c-2.8-0.8-5.2-1.8-6.4-2.6c-1.2-1-1.8-1.8-1.5-2.5c0.3-0.8,1.8-1,3.9-0.9c2.1,0.1,4.8,0.7,7.7,1.6c2.3,0.7,4.4,1.6,6.1,2.5l0,0l0,0
		l0,0l0,0l0,0l0,0l0,0l0,0l0,0l0,0C-378,780.8-377.6,780.9-377.2,781.1L-377.2,781.1z"/>
	
		<path fill="#FFFFFF" stroke="#000000" stroke-width="0.4764" stroke-linecap="round" stroke-linejoin="round" stroke-miterlimit="2.6131" d="
		M-309.8,783c2.9-1.1,5.6-2.3,8.1-3.7c1.4-0.8,2.7-1.6,3.9-2.5c0.1,0,0.1-0.1,0.2-0.1c0.9-0.6,2-1.1,3.1-1.2c1.1-0.1,2,0,2.7,0.5
		c0.6,0.4,1,1.1,1,1.9c0,0.1,0,0.3,0,0.4c-0.1,1.1-0.8,2.2-1.9,3.1c-0.1,0.1-0.3,0.2-0.4,0.3c-0.6,0.4-1.6,0.8-2.7,1.1
		c-0.5,0.1-1,0.2-1.5,0.3c-0.7,0-1.4,0.1-2.1,0.2c-2.2,0.3-4.6,1-6.2,1.8c-1.8,0.9-2.9,2-2.6,3C-308.8,786.5-309.4,784.8-309.8,783
		L-309.8,783z"/>
</g>
</svg>
