<?xml version="1.0" encoding="utf-8"?>
<!-- Generator: Adobe Illustrator 16.0.0, SVG Export Plug-In . SVG Version: 6.00 Build 0)  -->
<!DOCTYPE svg PUBLIC "-//W3C//DTD SVG 1.1//EN" "http://www.w3.org/Graphics/SVG/1.1/DTD/svg11.dtd">
<svg version="1.1" id="Layer_1" xmlns="http://www.w3.org/2000/svg" xmlns:xlink="http://www.w3.org/1999/xlink" x="0px" y="0px"
	 width="396.8px" height="396.8px" viewBox="0 0 396.8 396.8" enable-background="new 0 0 396.8 396.8" xml:space="preserve">
<g>
	<g>
		<g>
			<path fill="#005696" d="M198.4,0C89,0,0,89,0,198.4c0,109.4,89,198.4,198.4,198.4s198.4-89,198.4-198.4C396.8,89,307.8,0,198.4,0
				"/>
		</g>
		<g>
			<g>
				<g opacity="0.3">
					<g>
						<defs>
							<rect id="SVGID_1_" x="170.5" y="337.2" width="7.2" height="4.8"/>
							<clipPath id="SVGID_2_"><use xlink:href="#SVGID_1_"  overflow="visible"/></clipPath>
						</defs>
					</g>
				</g>
				<g>
					<path fill="#FFFFFF" d="M95.3,66.5l-19,20.9l33.1,30.1c2.1-2.3,4.2-4.4,6.5-6.6l-10.3-9.4l12.8-14.1c5.8-6.4,5.8-16.6-0.6-22.4
						C111.5,59.3,101.1,60.1,95.3,66.5 M112,82.5L99.6,96.1L88.5,86l12.4-13.6c2.8-3.1,7.6-3.3,10.6-0.5
						C114.6,74.6,114.8,79.4,112,82.5 M139,44.2l-3.4,51.7c3.1-1.9,6.2-3.6,9.4-5.2l0.5-12c6.2-2.7,12.7-5,19.4-6.8l7.9,9.1
						c3.5-0.8,7-1.4,10.6-1.8l-34.8-38.4C145.4,41.9,142.2,43,139,44.2 M145.9,70.3l0.8-19.5l12.8,14.7
						C154.8,66.9,150.3,68.5,145.9,70.3 M232,48.8c0-8.6-8.1-15.6-16.7-15.6h-26.2v45.4c3-0.2,6.1-0.4,9.2-0.4l0,0V64.4h11.5
						l10,15.7c3.9,0.7,7.8,1.6,11.6,2.7l-11.9-19C226.3,62,232,56,232,48.8 M215.3,56.4h-16.9v-15h16.9c4.2,0,7.5,3.4,7.5,7.5
						S219.4,56.4,215.3,56.4 M289.7,81.4l4.5,4.7c10.7,11.3,13.2,20.5,6.4,26.9c-2.7,2.5-6.9,3.2-11.1,2.3
						c-5.3-1-11.2-4.8-16.7-10.5c-4.8-5-8.4-11-10-15.1l6.6-5c7.4,15.7,19.7,24.8,24.1,21.1c4.1-3.4-0.4-8.8-5.5-14.2l-5-5.3
						c-5.2-5.5-8.6-14.1-2.6-19.7c10-9.5,31.1,5.6,36.4,20.7c0,0-4.4,3.3-6.4,4.8c-2.4-8.4-14.9-20.9-21.8-19.3
						C286.8,73.2,284.7,76.1,289.7,81.4 M266.3,47.2l-17.5,42.1c-2.8-1.3-5.8-2.5-8.7-3.6l17.5-42.1
						C260.5,44.7,263.4,45.9,266.3,47.2"/>
				</g>
			</g>
			<g>
				<g>
					<path fill="#B79651" id="SVGID_3_" d="M197.6,280.4c-0.3,1.4-1.2,2.5-2.4,3.3c-0.2,0.1-0.2,0.2-0.1,0.4c0.7,1.4,1.9,3.2,3.4,4.4
							c0.2,0.2,0.3,0.2,0.3,0.2s0.1,0,0.3-0.2c1.5-1.2,2.7-3,3.4-4.4c0.1-0.2,0.1-0.3-0.1-0.4c-1.2-0.7-2.1-1.9-2.4-3.3
							c-0.1-0.5-0.6-0.9-1.2-0.9C198.2,279.4,197.7,279.8,197.6,280.4"/>
				</g>
			</g>
			<g>
				<g>
					<path fill="#B79651" id="SVGID_5_" d="M198.4,244c-2,1.6-6.7,13-6.7,16.9c0,3.1,6.2,11.2,6.2,15.6l0,0c0,0.4,0.4,0.8,0.8,0.8
						c0.5,0,0.8-0.4,0.8-0.8l0,0c0-4.4,6.2-12.5,6.2-15.6c0-4.1-5.4-17.1-7.1-17.1C198.7,243.8,198.5,243.9,198.4,244"/>
				</g>
			</g>
			<g>
				<g>
					<path fill="#B79653" id="SVGID_7_" d="M174.8,271.4c0,4,3.2,7.2,7.2,7.2c1.2,0,2.4-0.6,3-1.2c1-1.2,0.8-2.3,0.7-2.6c-0.1-0.3-0.4-0.2-0.5-0.2
						c-0.1,0-0.3,0-0.4,0c-1.3,0-2.4-1.1-2.4-2.4c0-1.3,1.1-2.4,2.4-2.4c2.4,0,6.5,2.3,8.8,7.1l0,0l0,0c0.1,0.3,0.5,0.5,0.8,0.5
						c0.5,0,0.9-0.4,0.9-0.9c0-0.1,0-0.3-0.1-0.4c-2.9-7.7-8-11.9-13.2-11.9C178.1,264.2,174.8,267.4,174.8,271.4"/>
				</g>
			</g>
			<g>
				<g>
					<path fill="#B79651" id="SVGID_9_" d="M202.1,276.1c-0.1,0.1-0.1,0.2-0.1,0.4c0,0.5,0.4,0.9,0.9,0.9c0.3,0,0.6-0.2,0.8-0.5l0,0l0,0
						c2.2-4.8,6.4-7.1,8.8-7.1c1.3,0,2.4,1.1,2.4,2.4c0,1.3-1.1,2.4-2.4,2.4c-0.1,0-0.3,0-0.4,0c-0.1,0-0.4-0.1-0.5,0.2
						c-0.1,0.2-0.3,1.4,0.7,2.6c0.6,0.7,1.8,1.2,3,1.2c4,0,7.2-3.2,7.2-7.2s-3.2-7.2-7.2-7.2C210,264.2,205,268.4,202.1,276.1"/>
				</g>
			</g>
			<g>
				<path fill="#FFFFFF" d="M199,90.9c-59.5,0-107.8,48.3-107.8,107.7c0,59.4,48.4,107.7,107.8,107.7c59.5,0,107.8-48.3,107.8-107.7
					C306.9,139.3,258.5,90.9,199,90.9 M109.2,243.8c-6.8-13.6-10.7-28.9-10.7-45.1c0-50.7,37.6-92.6,86.4-99.5
					C180.4,163.8,153.5,210.6,109.2,243.8 M235.1,292.4c-11.2,4.3-23.4,6.7-36.1,6.7s-24.9-2.4-36.1-6.7c-4.1-6.2-6.5-13.5-6.5-21.4
					c0-22.3,19.1-40.4,42.6-40.4s42.6,18.1,42.6,40.4C241.6,278.9,239.2,286.2,235.1,292.4 M288.9,243.8
					c-44.3-33.2-71.2-80-75.7-144.6c48.8,6.9,86.4,48.8,86.4,99.5C299.6,214.9,295.8,230.2,288.9,243.8 M328.2,68.9
					c-34.5-34.5-80.4-53.5-129.3-53.5c-48.8,0-94.8,19-129.3,53.5S16,149.3,16,198c0,48.8,19,94.6,53.6,129.1
					c34.5,34.5,80.4,53.5,129.3,53.5c48.8,0,94.7-19,129.3-53.5c34.5-34.5,53.6-80.4,53.6-129.1C381.8,149.3,362.7,103.4,328.2,68.9
					 M198.9,373.4c-97,0-175.6-78.7-175.6-175.8c0-97.1,78.6-175.7,175.6-175.7c97,0,175.6,78.7,175.6,175.7
					C374.5,294.8,295.9,373.4,198.9,373.4"/>
				<path fill="#EF4043" d="M283.5,254.1c-8.1,12.3-18.8,22.8-31.4,30.6c0.5-2.7,0.7-5.4,0.7-8.2c0-27.9-24.2-50.6-54.1-50.6
					c-29.9,0-54.1,22.6-54.1,50.6c0,2.8,0.2,5.5,0.7,8.2c-12.6-7.8-23.3-18.3-31.4-30.6c18.8-15.1,34.8-32.9,47.2-53.6h75
					C248.7,221.2,264.7,239,283.5,254.1 M208,97.6c-3-0.3-6.1-0.4-9.2-0.4c-3.1,0-6.2,0.2-9.3,0.4c-0.7,38.4-10.1,71.2-25.9,99h70.3
					C218.1,168.8,208.7,135.9,208,97.6"/>
				<g opacity="0.8">
					<g>
						<path fill="none" stroke="#FFFFFF" stroke-width="0.244" stroke-miterlimit="10" d="M283.5,254.1
							c-8.1,12.3-18.8,22.8-31.4,30.6"/>
					</g>
				</g>
				<g opacity="0.7">
					<g>
						<path fill="#897438" d="M212.4,269.8c-2.4,0-6.5,2.3-8.8,7.1l0,0l0,0c-0.2,0.3-0.5,0.5-0.8,0.5c-0.4,0-0.7-0.2-0.8-0.6l0,0
							c0.1-0.1,0.1-0.3,0.2-0.4c0.2,0.2,0.4,0.3,0.7,0.3c0.3,0,0.6-0.2,0.8-0.5l0,0l0,0c2.2-4.8,6.4-7.1,8.8-7.1
							c1.3,0,2.4,1.1,2.4,2.4c0,0.1,0,0.2,0,0.3C214.7,270.7,213.7,269.8,212.4,269.8 M185.9,275c0,0.1,0,0.2-0.1,0.4l0,0
							c-0.1,0.4-0.3,0.8-0.7,1.3c-0.6,0.7-1.8,1.2-3,1.2c-3.7,0-6.8-2.9-7.1-6.5c0,0.1,0,0.2,0,0.3c0-0.1,0-0.2,0-0.3
							c0,4,3.2,7.2,7.2,7.2c1.2,0,2.4-0.6,3-1.2c0.5-0.6,0.7-1.2,0.8-1.7l0,0c0-0.1,0-0.2,0-0.3v-0.1v-0.1
							C185.9,275.1,185.9,275.1,185.9,275 M222.5,271.1c0,0.1,0,0.2,0,0.3c-0.3,3.7-3.4,6.5-7.1,6.5c-1.2,0-2.4-0.6-3-1.2
							c-0.4-0.5-0.6-0.9-0.7-1.3l0,0c0,0.1,0,0.1-0.1,0.3c0.1,0.5,0.3,1.1,0.8,1.7c0.6,0.7,1.8,1.2,3,1.2c4,0,7.2-3.2,7.2-7.1l0,0
							C222.5,271.3,222.5,271.2,222.5,271.1 M198,276.5c0,0.4,0.4,0.8,0.8,0.8c0.5,0,0.8-0.4,0.8-0.8l0,0c0-4.3,6-12.2,6.2-15.4
							c0-0.1,0-0.1,0-0.2s0-0.3,0-0.5c0,0.1,0,0.2,0,0.3c-0.5,3.3-6.2,10.9-6.2,15.2l0,0c0,0.4-0.4,0.8-0.8,0.8
							c-0.5,0-0.8-0.4-0.8-0.8l0,0c0-4.2-5.7-11.8-6.2-15.2c0,0.1,0,0.3-0.1,0.4c0-0.1,0-0.1,0-0.2C191.7,264,198,272.1,198,276.5
							L198,276.5z M202.1,284.1c-0.7,1.3-1.7,2.7-3,3.7c-0.2,0.2-0.3,0.2-0.3,0.2s-0.1,0-0.3-0.2c-1.3-1-2.3-2.4-3-3.7l-0.5-0.2v0.1
							c0,0.1,0.1,0.2,0.1,0.3c0.7,1.4,1.9,3,3.3,4.1c0.2,0.2,0.3,0.2,0.3,0.2s0.1,0,0.3-0.2c1.4-1.1,2.5-2.8,3.3-4.1
							c0.1-0.1,0.1-0.2,0.1-0.3v-0.1L202.1,284.1z M195.3,276.9L195.3,276.9L195.3,276.9z M195.3,276.7L195.3,276.7
							c0-0.1,0-0.1,0-0.2s0-0.2-0.1-0.3c0,0.1-0.1,0.2-0.2,0.2l0.2,0.4C195.3,276.8,195.3,276.8,195.3,276.7L195.3,276.7
							 M195.3,276.9l-0.2-0.4c-0.2,0.2-0.4,0.3-0.7,0.3c-0.3,0-0.6-0.2-0.8-0.5l0,0l0,0c-2.2-4.8-6.4-7.1-8.8-7.1
							c-1.3,0-2.4,1.1-2.4,2.4c0,0.1,0,0.2,0,0.3c0.2-1.2,1.2-2.1,2.4-2.1c2.4,0,6.5,2.3,8.8,7.1l0,0l0,0c0.1,0.3,0.5,0.5,0.8,0.5
							C194.8,277.4,195.1,277.2,195.3,276.9"/>
					</g>
				</g>
				<g opacity="0.7">
					<g>
						<g>
							<g>
								<defs>
									<linearGradient id="SVGID_13_" gradientUnits="userSpaceOnUse" x1="-105.7861" y1="103.4482" x2="-104.7861" y2="103.4482" gradientTransform="matrix(-70.1956 121.5824 -121.5824 -70.1956 5384.5176 20151.1758)">
										<stop  offset="0" style="stop-color:#231F20"/>
										<stop  offset="1" style="stop-color:#939598"/>
									</linearGradient>
								</defs>
								<path fill="url(#SVGID_13_)" id="SVGID_11_" d="M165,71.9l7.9,9.1l-0.5,0.9l-7.8-9L165,71.9z M145,90.7l0.9,0.4l0.5-11.9l-0.9-0.6L145,90.7z
									 M145.9,70.3l0.9-0.4l0.7-16.8l-0.8-2.4L145.9,70.3z M111.5,71.9c-3.1-2.8-7.8-2.6-10.6,0.5L88.5,86l0.7,0.6L99,75.1
									c0.8-0.9,1.6-1.9,2.5-2.8c0.8-0.9,1.9-1.5,3.1-1.9C106.9,69.6,109.6,70.2,111.5,71.9 M121.2,69.4l-0.4-0.5
									c3.2,5.8,2.3,13.4-2.4,18.6l-12.8,14.1l0.7,0.6l7.2-8.3l3.6-4.1c1.2-1.4,2.5-2.7,3.4-4.4c1.9-3.2,2.7-7.1,2.3-10.7
									C122.6,72.8,122,71,121.2,69.4 M109.4,117.5l0.1,1.3l0.6-0.7c1.9-2.1,3.4-3.7,5.9-6l-0.1-1.2
									C113.7,113.1,111.5,115.2,109.4,117.5 M249.3,90.6l17-41v-2.4l-17.5,42.1L249.3,90.6z M310.4,92l-0.5,1.5l1.1-0.8
									c0.3-0.2,0.5-0.4,0.8-0.6c0.3-0.2,0.5-0.4,0.8-0.6l3.7-2.9l0.5-1.4C316.9,87.2,312.4,90.5,310.4,92 M219.5,63.8
									c1.8-0.1,3.6-0.6,5.2-1.5c1.6-0.8,3.1-2,4.3-3.4s2.2-3,2.7-4.8c0.6-1.7,0.7-3.6,0.3-5.4C232,56,226.3,62,219.5,63.8
									 M198.3,41.3v15h0.9V42.2L198.3,41.3z M198.3,78.2l0.9,0.9V65.3l-0.9-0.9V78.2z"/>
							
							</g>
						</g>
					</g>
				</g>
				<polygon fill="#FFFFFF" points="171.2,336.4 170.6,338.8 170.6,338.8 170.6,338.9 176.6,340.2 176.6,340.2 176.6,340.2 
					176.6,340.1 176.7,340.1 177.2,337.7 				"/>
				<path fill="#FFFFFF" d="M199.6,339.4h-0.2v2.4l0,0v0.2l5.4,0.1l-0.2,1.8c-0.1,1.5-2.1,2.8-5,2.8c-4.3-0.1-7.1-3-7-6.3
					c0-1.3,0.4-2.5,1.1-3.5c0.3-0.5,1-1.1,1.5-1.4c0.2-0.1,0.3-0.2,0.5-0.3c1.1-0.7,2.5-1,4.2-1c3.1,0.1,4.4,1.6,5.2,2.4l0,0l0,0
					l0,0c0,0,0,0,0.1,0.1l0,0l0,0l1.7-1.7l0,0l0.1-0.1c-1-1-3.1-3.1-7.1-3.2h-0.1l0,0c-5.4-0.1-9.4,3.8-9.5,8.7v0.1c0,0,0,0,0,0.1
					c-0.1,5.8,4.7,8.9,9.2,9c1.9,0,3.5-0.3,4.8-1c0.4-0.2,0.7-0.4,1-0.7c0.5-0.4,0.9-0.8,1.2-1.3c0.4-0.6,0.6-1.3,0.6-2.1l0.1-4.5
					L199.6,339.4L199.6,339.4z"/>
				<path fill="#FFFFFF" d="M94.9,300.6c0.6-0.6,0.6-1.7,0.8-2.5c0.3-2-0.6-4.1-3-7.4l-1.6-2.1c-1.3-1.7-0.9-3-0.7-3.6
					c0.1-0.2,0.3-0.4,0.5-0.6c0.2-0.2,0.5-0.3,0.8-0.3c0.1,0,0.2,0,0.3,0c2.9,0,7.3,4.6,8.3,8.4v0.1l0,0l0,0l0.1-0.1
					c0.6-0.3,1.1-0.5,1.5-0.8h0.1c-0.5-1.9-1.6-4-2.9-5.7c-2.2-2.8-5.2-4.8-7.7-4.8c-0.9,0-1.7,0.3-2.4,0.8
					c-0.2,0.2-0.4,0.3-0.6,0.5c-0.3,0.4-0.5,0.8-0.7,1.3c-0.1,0.2-0.1,0.4-0.1,0.7c0,0.2,0,0.4,0,0.6c0,1.4,0.8,3.3,1.9,4.8l1.6,2.2
					c1.2,1.6,2.4,3.1,2.4,4.5c0,0.2,0,0.3-0.1,0.7c0,0.1-0.1,0.4-0.2,0.5c-0.1,0.3-0.3,0.5-0.5,0.7c-0.1,0.1-0.2,0.2-0.4,0.3
					c-0.3,0.2-0.7,0.3-1.1,0.3c-1.4,0-3.3-1.4-5.1-3.7c-1.4-1.8-2.7-4.2-3.6-6.9l-0.1-0.2l-1.9,1.8c0,0,0.9,3.3,3,6.2
					c1.9,2.5,4.2,4.5,6.2,5.1c0.7,0.2,1.3,0.3,1.9,0.3l0,0l0,0c0.9,0,1.8,0,2.3-0.4C94.5,301,94.7,300.8,94.9,300.6"/>
				<polygon fill="#FFFFFF" points="143.8,320 143.8,320 143.8,320 141.6,318.8 141.6,318.8 141.6,318.8 141.5,318.9 141.5,318.9 
					135.5,330.4 132.6,314.1 132.6,314.1 132.6,314.1 132.5,314.1 132.5,314.1 130.4,313 130.4,313 130.4,313 130.4,313 130.4,313 
					122.4,328.1 122.5,328.2 122.4,328.2 122.5,328.2 122.5,328.2 122.5,328.2 124.5,329.2 124.6,329 124.7,329 130.8,317.3 
					133.8,333.3 136,334.3 136.1,334.1 136.1,334.2 143.8,320 				"/>
				<path fill="#FFFFFF" d="M113.6,300.8l-2.1-1.8l-17.1,8.1l1.8,1.6l6-2.7l6.1,5.2l-1.9,6l0,0l0,0l0,0v0.1l1.8,1.3l0.1-0.2l0,0l0,0
					l0,0L113.6,300.8z M110.9,301.9l-2,6.7l-4.1-3.5L110.9,301.9z"/>
				<polygon fill="#FFFFFF" points="125.2,309.4 123.1,308 113.5,322.6 115.6,323.9 115.7,323.8 				"/>
				<polygon fill="#FFFFFF" points="148.5,322 147.7,324.3 147.7,324.3 153.6,326.3 148.7,340.1 148.7,340.1 148.7,340.1 
					148.7,340.1 148.7,340.2 150.7,340.7 150.7,340.6 150.7,340.6 150.8,340.6 150.8,340.6 155.4,327 161.2,328.9 161.2,328.8 
					161.3,328.9 161.3,328.7 161.3,328.8 162.1,326.7 				"/>
				<polygon fill="#FFFFFF" points="228.3,343.4 228.2,343.4 228.2,343.4 216.5,345.1 215.7,340.1 221.4,339.3 221.4,339.2 
					221.4,339.2 221.4,339.2 221.4,339.2 221.5,339.2 221.5,339.1 221.5,339.1 221.2,336.7 221,336.7 221,336.7 215.4,337.5 
					214.8,333.3 226,331.7 226,331.6 226,331.6 226,331.6 226,331.6 226.1,331.6 226.1,331.5 226.2,331.5 225.8,329.1 225.7,329.1 
					225.6,329.1 212.1,331.1 212.1,331.1 212.1,331.1 212.1,331.2 212.1,331.2 212.1,331.3 212.1,331.4 214.5,348 214.5,348 
					214.5,348 228.5,346 228.5,345.9 228.5,345.9 228.5,345.9 228.6,345.9 228.6,345.9 228.6,345.8 				"/>
				<path fill="#FFFFFF" d="M245.1,333.9c0.6-0.3,1.5-0.6,2-1.3c0.7-1,1.2-2.5,0.6-4.5c-0.4-1.5-1.1-2.5-2.2-3
					c-1.3-0.7-2.8-0.8-4.2-0.3l-9.6,2.9l1.4,4.7l3.5,11.7l0.8-0.2l1.2-0.3l-2-6.8l6.5-2.1l5.1,6l2-0.9l0,0l0.2-0.1L245.1,333.9z
					 M242,327c1.4-0.4,2.9-0.1,3.5,1.8c0.1,0.2,0.1,0.4,0.1,0.5c0,0.2,0,0.3,0,0.5c0,0.2,0,0.3-0.1,0.5c-0.3,0.8-1,1.3-2.1,1.7
					l-7.6,2.3l-1.4-4.6L242,327z"/>
				<path fill="#FFFFFF" d="M277.9,305.7l-2.3,1.6l3.7,18.4l2-1.3l0.1-0.1l-1.2-6.2l6.3-4.6l5.3,3.2l1.9-1.3l0,0l0.2-0.1
					L277.9,305.7z M284.2,312.2l-4.5,3.1l-1.5-6.6"/>
				<polygon fill="#FFFFFF" points="288.6,297.2 286.8,298.9 298.5,311.3 300,310 300,310 300.1,309.8 				"/>
				<polygon fill="#FFFFFF" points="316.3,292.7 303.8,281.2 302.1,283 312.3,292 295.3,290.6 293.7,292.4 306.5,303.7 307.5,302.3 
					307.5,302.3 307.6,302.2 298.1,293.2 315,294.3 316.2,292.9 316.2,292.9 				"/>
				<polygon fill="#FFFFFF" points="266.6,313.3 264.4,314.4 264,326.8 257.9,322.7 254,319.8 253.7,319.9 251.9,320.8 251.9,320.8 
					251.9,320.9 251.9,320.9 259.5,336.2 261.2,335.2 261.2,335.2 261.4,335.1 256,323.9 260.6,327.1 266.2,330.9 266.2,330.7 
					266.2,330.7 266.2,330.7 266.3,330.7 266.3,330.7 266.3,330.7 266.6,322.4 266.7,318.9 267.9,321.1 272.5,329.6 272.6,329.6 
					272.6,329.6 272.6,329.6 272.6,329.6 274,328.4 274.1,328.3 274.1,328.3 274.3,328.3 				"/>
			</g>
		</g>
	</g>
</g>
<path fill="#005696" d="M198.7,271.8"/>
</svg>
