<?xml version="1.0" encoding="iso-8859-1"?><!-- Generator: Adobe Illustrator 16.0.0, SVG Export Plug-In . SVG Version: 6.00 Build 0) --><!DOCTYPE svg PUBLIC "-//W3C//DTD SVG 1.1//EN" "http://www.w3.org/Graphics/SVG/1.1/DTD/svg11.dtd"><svg version="1.1" id="Layer_1" xmlns="http://www.w3.org/2000/svg" xmlns:xlink="http://www.w3.org/1999/xlink" x="0px" y="0px" width="192.756px" height="192.756px" viewBox="0 0 192.756 192.756" style="enable-background:new 0 0 192.756 192.756;" xml:space="preserve"><g><polygon style="fill-rule:evenodd;clip-rule:evenodd;fill:#FFFFFF;" points="0,0 192.756,0 192.756,192.756 0,192.756 0,0	"/><path style="fill-rule:evenodd;clip-rule:evenodd;" d="M90.306,47.901c-2.135-0.056-4.325,0.443-5.573,1.441	c-2.661-0.194-5.905,0.804-7.347,2.357c-2.662,0.194-5.739,1.663-6.931,3.382c-2.579,0.582-5.378,2.412-6.293,4.297	c-2.468,0.971-4.963,3.188-5.545,5.185c-2.301,1.331-4.436,3.854-4.686,5.933c-2.08,1.608-3.771,4.464-3.743,6.543	c-1.83,1.913-3.105,5.102-2.606,7.181c-1.275,1.857-1.969,4.519-1.664,6.433H43.09c-1.025,0-1.857,0.832-1.857,1.83	c0,1.026,0.832,1.857,1.857,1.857h2.384v0.111v0.194H43.09c-1.025,0-1.857,0.859-1.857,1.857s0.832,1.83,1.857,1.83h2.384v0.083	v0.222H43.09c-1.025,0-1.857,0.859-1.857,1.857s0.832,1.857,1.857,1.857h3.105c-0.61,1.996,0.139,5.13,1.664,7.209	c-0.361,2.052,0.915,5.073,2.717,6.959c-0.028,2.079,1.691,4.935,3.771,6.516c0.305,2.079,2.467,4.602,4.769,5.877	c0.638,1.996,3.161,4.187,5.601,5.102c0.97,1.885,3.77,3.743,6.404,4.27c1.192,1.746,4.27,3.161,6.903,3.327	c1.497,1.58,4.852,2.522,7.541,2.246c1.109,0.831,2.939,1.274,4.741,1.358v2.717c0,0.971,0.887,1.774,1.913,1.774	c1.053,0,1.885-0.804,1.885-1.774v-2.634h0.167h0.194v2.634c0,0.971,0.832,1.774,1.913,1.774c1.027,0,1.886-0.804,1.886-1.774	v-2.634h0.111h0.221v2.634c0,0.971,0.859,1.774,1.885,1.774c1.082,0,1.941-0.804,1.941-1.774v-2.801	c2.107,0,4.27-0.499,5.518-1.497c2.662,0.194,5.904-0.804,7.348-2.328c2.66-0.194,5.738-1.636,6.93-3.411	c2.58-0.554,5.379-2.411,6.295-4.297c2.467-0.971,4.963-3.188,5.572-5.185c2.273-1.275,4.408-3.854,4.713-5.933	c2.023-1.608,3.715-4.464,3.688-6.516c1.83-1.941,3.105-5.129,2.605-7.209c1.275-1.829,1.969-4.491,1.664-6.404h2.912	c0.998,0,1.801-0.859,1.801-1.857s-0.803-1.857-1.801-1.857h-2.635v-0.222v-0.083h2.635c0.998,0,1.801-0.832,1.801-1.83	s-0.803-1.857-1.801-1.857h-2.635v-0.194V94.34h2.635c0.998,0,1.801-0.832,1.801-1.857c0-0.998-0.803-1.83-1.801-1.83h-3.189	c0.609-1.997-0.139-5.13-1.607-7.236c0.305-2.024-0.916-5.074-2.773-6.959c0.027-2.08-1.691-4.907-3.77-6.488	c-0.305-2.052-2.469-4.63-4.77-5.905c-0.609-1.996-3.16-4.187-5.6-5.102c-0.943-1.885-3.771-3.743-6.35-4.27	c-1.248-1.719-4.324-3.161-6.959-3.299c-1.496-1.58-4.852-2.551-7.514-2.273c-1.137-0.804-2.91-1.275-4.713-1.303v-2.773	c0-0.998-0.859-1.774-1.941-1.774c-1.025,0-1.885,0.804-1.885,1.774v2.717c-0.055,0-0.139-0.028-0.221-0.028	c-0.029,0-0.084,0-0.111,0.028v-2.717c0-0.998-0.859-1.774-1.886-1.774c-1.081,0-1.913,0.804-1.913,1.774v2.717	c-0.083,0-0.139-0.028-0.194-0.028c-0.055,0-0.083,0.028-0.167,0.028v-2.717c0-0.998-0.832-1.774-1.885-1.774	c-1.026,0-1.913,0.804-1.913,1.774V47.901L90.306,47.901z M95.768,73.27c0.111,1.165,0.249,2.329,0.416,3.466	c3.937-1.054,7.208-1.941,9.871,1.331c-0.057,0.638-0.139,1.248-0.25,1.857c-2.551-1.636-5.295-1.83-9.177-0.527	c0.139,0.804,0.305,1.581,0.5,2.357c2.883-0.804,5.211-1.248,8.373,0.055l-0.195,2.218c0,0.167-0.055,0.305-0.055,0.471	c-2.635-0.887-4.852-0.915-7.459,0.027c0.25,1.026,0.527,2.024,0.832,3.05l0.029,0.083l-0.029-0.083	c2.385-0.305,4.604-0.193,6.377,0.5c-0.055,0.832-0.055,1.691-0.082,2.523c-4.576-2.44-16.303,1.719-22.569,6.1l-0.693-1.803	l-0.111-0.277c-0.194,0.138-0.388,0.25-0.582,0.388c2.662,6.903,4.547,13.724,5.573,20.821L74.392,80.312l1.358-0.61l-3.881-4.464	c6.044-6.459,14.777-10.536,24.453-10.536c8.928,0,17.051,3.438,23.012,9.066c-4.436,1.109-8.316,2.384-12.199,4.963	c0.166-5.49-4.602-6.682-9.953-5.739C96.71,73.075,96.239,73.186,95.768,73.27L95.768,73.27z M48.885,85.523	c-0.111-0.305-0.277-0.609-0.416-0.942c-0.499-1.164-0.194-2.55,0.222-3.743l0.222-0.499c0.388-0.887,0.887-1.774,1.552-2.495	c0.222,0.776,0.416,1.525,0.499,2.356c0.111,1.026-0.167,2.08-0.499,3.078c-0.36,0.942-0.776,1.913-1.303,2.828	C49.079,85.912,48.968,85.718,48.885,85.523L48.885,85.523z M86.563,115.827c2.856-2.107,6.46-4.187,10.619-6.1	c-0.887,3.576-0.998,6.404,0.721,8.733c2.162,2.884,6.766,1.691,10.535-0.472c7.236-4.186,12.006-8.123,19.158-11.45	c-4.381,12.643-16.773,21.765-31.273,21.765c-1.913,0-3.826-0.167-5.684-0.472L86.563,115.827L86.563,115.827z M128.066,105.07	c-6.236-9.704-7.928-18.382-8.096-30.692c5.74,5.739,9.316,13.53,9.316,22.125C129.287,99.441,128.871,102.353,128.066,105.07	L128.066,105.07z M88.033,127.306c-14.167-3.577-24.647-16.053-24.647-30.803c0-7.514,2.717-14.417,7.264-19.851l0.277,5.185	l1.331-0.61L88.033,127.306L88.033,127.306z M98.207,52.809c0.057-0.111,0.057-0.277,0.057-0.388v-0.416h0.111	c0.082,0,0.166,0,0.221-0.028v0.444c0,0.166,0,0.277,0.057,0.388H98.207L98.207,52.809z M102.256,53.169	c0.082-0.25,0.166-0.471,0.166-0.749v-1.192c1.803,0.86,4.602,1.109,6.488,1.082l-0.111-0.194c0.027,0,0.027,0,0.027,0.056	c1.469,1.358,4.77,2.246,6.959,2.523c1.275,1.552,4.354,2.883,6.432,3.41c0.998,1.747,3.854,3.465,5.795,4.325	c0.748,1.83,3.271,3.993,5.074,5.102c0.471,1.941,2.633,4.436,4.242,5.767c0.166,1.997,1.885,4.741,3.271,6.349	c-0.166,1.969,1.137,4.935,2.273,6.709c-0.277,1.192-0.084,2.8,0.305,4.298h-1.164c-0.277,0-0.527,0.083-0.777,0.193	C138.604,71.273,122.494,55.692,102.256,53.169L102.256,53.169z M141.57,94.257c0.137,0.055,0.305,0.083,0.443,0.083h0.609v0.111	v0.194h-0.609c-0.139,0-0.307,0.056-0.416,0.056C141.598,94.562,141.57,94.424,141.57,94.257L141.57,94.257z M141.598,98.306	c0.109,0,0.277,0.027,0.416,0.027h0.609v0.083v0.222h-0.609c-0.139,0-0.307,0.056-0.443,0.083	C141.57,98.582,141.598,98.416,141.598,98.306L141.598,98.306z M141.236,102.159c0.25,0.11,0.471,0.193,0.777,0.193h1.08	c-0.277,1.303-0.332,2.634-0.082,3.632l0.082,0.111c-1.08,1.83-2.355,4.769-2.162,6.71c-1.33,1.607-3.078,4.38-3.188,6.349	c-1.609,1.386-3.771,3.882-4.188,5.794c-1.773,1.165-4.27,3.3-4.99,5.157c-1.969,0.887-4.77,2.661-5.768,4.381	c-2.078,0.582-5.129,1.913-6.404,3.493c-2.105,0.277-5.322,1.164-6.82,2.551c-2.162-0.056-5.461,0.388-7.152,1.497v-1.47	c0-0.277-0.084-0.499-0.166-0.721C122.494,137.286,138.604,121.732,141.236,102.159L141.236,102.159z M98.652,140.17	c-0.057,0.11-0.057,0.277-0.057,0.388v0.499h-0.221h-0.111v-0.499c0-0.11,0-0.277-0.057-0.388H98.652L98.652,140.17z M94.493,140.17c0,0.11-0.028,0.277-0.028,0.388v0.499h-0.194h-0.167v-0.499c0-0.11,0-0.277-0.027-0.388H94.493L94.493,140.17z M90.5,139.864c-0.139,0.194-0.194,0.472-0.194,0.693v1.192c-1.802-0.804-4.63-1.109-6.543-1.026l0.11,0.139h-0.027	c-1.469-1.413-4.769-2.301-6.959-2.578c-1.275-1.524-4.353-2.828-6.432-3.41c-0.998-1.719-3.854-3.466-5.794-4.297	c-0.749-1.857-3.271-4.021-5.074-5.129c-0.444-1.914-2.634-4.408-4.242-5.768c-0.111-1.968-1.886-4.74-3.271-6.293	c0.166-2.024-1.165-4.963-2.274-6.737c0.305-1.192,0.083-2.801-0.305-4.298h1.248c0.222,0,0.499-0.083,0.721-0.166	C54.125,121.761,70.233,137.286,90.5,139.864L90.5,139.864z M51.103,98.693c-0.111,0-0.25-0.056-0.36-0.056h-0.887v-0.222v-0.083	h0.887c0.111,0,0.222-0.027,0.333-0.027C51.103,98.416,51.103,98.582,51.103,98.693L51.103,98.693z M51.075,94.701	c-0.111-0.056-0.222-0.056-0.333-0.056h-0.887v-0.194V94.34h0.887c0.111,0,0.25-0.028,0.36-0.028	C51.103,94.424,51.103,94.562,51.075,94.701L51.075,94.701z M51.463,90.792c-0.222-0.111-0.499-0.138-0.721-0.138h-1.165	c0.277-1.304,0.333-2.662,0.083-3.66l-0.083-0.111c1.081-1.774,2.356-4.741,2.163-6.682c1.331-1.581,3.077-4.408,3.188-6.349	c1.608-1.386,3.771-3.881,4.187-5.822c1.774-1.137,4.27-3.299,4.99-5.157c1.969-0.859,4.769-2.634,5.767-4.38	c2.08-0.555,5.129-1.913,6.377-3.493c2.135-0.277,5.406-1.137,6.848-2.523c2.163,0.028,5.545-0.388,7.208-1.552v1.497	c0,0.277,0.055,0.499,0.194,0.749C70.233,55.692,54.125,71.218,51.463,90.792L51.463,90.792z M94.077,52.809	c0.027-0.111,0.027-0.222,0.027-0.388v-0.416h0.167c0.056,0,0.111,0,0.194-0.028v0.444c0,0.111,0.028,0.277,0.028,0.388H94.077	L94.077,52.809z M90.306,50.036c-0.111,0.083-0.25,0.194-0.389,0.277c-0.887,0.61-1.968,0.887-3.049,1.109	c-1.026,0.194-2.107,0.305-3.188,0.36c0.11-0.194,0.221-0.36,0.388-0.555c0.194-0.277,0.416-0.526,0.61-0.804	c0.804-1.026,2.245-1.414,3.493-1.691l0.582-0.083c0.499-0.028,1.054-0.056,1.553-0.056V50.036L90.306,50.036z M102.422,48.511	c0.25,0,0.527,0.028,0.805,0.083l0.582,0.056c1.248,0.194,2.689,0.61,3.492,1.635c0.223,0.25,0.416,0.527,0.639,0.805	c0.139,0.138,0.277,0.333,0.389,0.499c-1.082,0-2.135-0.111-3.217-0.277c-0.943-0.194-1.857-0.416-2.689-0.887V48.511	L102.422,48.511z M143.871,102.353h2.107c0.166,0.832,0.082,1.72-0.084,2.523l-0.111,0.582c-0.277,0.915-0.609,1.83-1.109,2.689	c-0.387-0.721-0.691-1.47-0.914-2.218c-0.277-1.054-0.166-2.136,0.027-3.161C143.787,102.657,143.814,102.491,143.871,102.353	L143.871,102.353z M102.422,144.411v-1.497l0.332-0.249c0.889-0.61,1.969-0.859,3.051-1.109c1.025-0.194,2.107-0.305,3.217-0.305	c-0.139,0.166-0.277,0.36-0.389,0.499c-0.223,0.277-0.443,0.555-0.639,0.804c-0.803,1.054-2.246,1.47-3.492,1.691l-0.582,0.083	C103.42,144.384,102.922,144.411,102.422,144.411L102.422,144.411z M90.306,144.495c-0.277,0-0.555-0.056-0.804-0.056l-0.638-0.056	c-1.22-0.25-2.689-0.638-3.493-1.663c-0.194-0.277-0.416-0.555-0.638-0.805c-0.138-0.166-0.277-0.305-0.388-0.499	c1.081,0,2.135,0.111,3.216,0.306c0.971,0.138,1.941,0.388,2.745,0.887V144.495L90.306,144.495z M48.774,102.353	c0.083,0.333,0.139,0.721,0.222,1.109c0.194,0.998,0.305,2.079,0.083,3.105c-0.222,0.776-0.499,1.497-0.887,2.245	c-0.527-0.831-0.887-1.746-1.164-2.661l-0.139-0.582c-0.194-1.026-0.305-2.219,0.083-3.217H48.774L48.774,102.353z M48.802,90.653	h-2.107c-0.167-0.86-0.083-1.747,0.083-2.551l0.111-0.555c0.277-0.943,0.609-1.857,1.137-2.662c0.36,0.693,0.665,1.469,0.887,2.218	c0.277,0.999,0.166,2.08,0,3.133C48.885,90.376,48.857,90.486,48.802,90.653L48.802,90.653z M143.953,90.653	c-0.139-0.361-0.193-0.721-0.277-1.082c-0.193-1.025-0.305-2.106-0.082-3.104c0.221-0.776,0.498-1.553,0.887-2.273	c0.527,0.804,0.887,1.774,1.164,2.689l0.139,0.527c0.195,1.054,0.305,2.246-0.082,3.244H143.953L143.953,90.653z M51.297,78.731	c-0.056-0.361-0.194-0.666-0.25-0.998c-0.361-1.248,0.194-2.579,0.804-3.66l0.25-0.499c0.555-0.804,1.165-1.608,1.941-2.218	c0.139,0.749,0.194,1.553,0.139,2.384c-0.056,1.026-0.5,2.024-0.943,2.939c-0.499,0.942-1.081,1.83-1.747,2.661	C51.408,79.119,51.353,78.925,51.297,78.731L51.297,78.731z M54.735,72.299c-0.056-0.305-0.056-0.638-0.083-0.998	c-0.166-1.275,0.582-2.495,1.358-3.493l0.333-0.471c0.665-0.721,1.414-1.414,2.273-1.913c0,0.804-0.083,1.608-0.222,2.384	c-0.25,1.026-0.832,1.913-1.442,2.8c-0.638,0.859-1.331,1.636-2.107,2.357C54.818,72.771,54.763,72.549,54.735,72.299	L54.735,72.299z M59.143,66.505c0-0.361,0.056-0.693,0.056-0.998c0.056-1.303,0.998-2.44,1.885-3.272l0.444-0.416	c0.749-0.637,1.58-1.192,2.495-1.58c-0.111,0.776-0.305,1.58-0.555,2.301c-0.388,0.998-1.137,1.802-1.857,2.578	c-0.776,0.721-1.581,1.414-2.468,2.024C59.116,66.92,59.143,66.727,59.143,66.505L59.143,66.505z M64.411,61.375	c0.055-0.333,0.111-0.693,0.194-0.998c0.277-1.248,1.358-2.218,2.385-2.939l0.471-0.36c0.832-0.499,1.774-0.971,2.772-1.192	c-0.249,0.776-0.582,1.497-0.97,2.19c-0.526,0.915-1.386,1.664-2.218,2.273c-0.859,0.61-1.774,1.192-2.744,1.664	C64.3,61.819,64.355,61.569,64.411,61.375L64.411,61.375z M70.372,57.078c0.167-0.333,0.277-0.666,0.389-0.971	c0.471-1.22,1.691-1.996,2.8-2.606l0.555-0.222c0.915-0.388,1.885-0.693,2.883-0.804c-0.36,0.721-0.776,1.414-1.275,2.024	c-0.665,0.86-1.608,1.414-2.579,1.913c-0.915,0.499-1.913,0.943-2.966,1.248C70.261,57.466,70.344,57.272,70.372,57.078	L70.372,57.078z M76.998,53.668c0.194-0.305,0.333-0.582,0.499-0.887c0.638-1.165,1.997-1.774,3.188-2.163l0.583-0.194	c0.942-0.222,1.968-0.416,2.966-0.388c-0.444,0.693-0.97,1.303-1.581,1.857c-0.776,0.721-1.802,1.192-2.828,1.525	c-1.026,0.36-2.052,0.61-3.133,0.804C76.804,54.028,76.887,53.862,76.998,53.668L76.998,53.668z M49.19,108.036	c0.083-0.193,0.166-0.388,0.277-0.582c0.499,0.915,0.942,1.886,1.303,2.855c0.333,0.998,0.637,2.024,0.527,3.078	c-0.056,0.804-0.222,1.553-0.5,2.328c-0.637-0.721-1.137-1.607-1.525-2.467l-0.249-0.527c-0.416-1.164-0.749-2.551-0.25-3.742	C48.913,108.675,49.024,108.369,49.19,108.036L49.19,108.036z M51.658,114.829c0.083-0.194,0.111-0.416,0.194-0.61	c0.638,0.804,1.22,1.691,1.774,2.606c0.444,0.942,0.915,1.94,0.998,2.967c0.028,0.804,0,1.607-0.138,2.385	c-0.749-0.61-1.414-1.387-1.941-2.19l-0.305-0.499c-0.582-1.109-1.165-2.412-0.832-3.66	C51.491,115.494,51.574,115.189,51.658,114.829L51.658,114.829z M55.179,121.179c0-0.194,0.055-0.417,0.083-0.61	c0.776,0.692,1.497,1.497,2.163,2.356c0.61,0.832,1.192,1.719,1.469,2.744c0.139,0.777,0.222,1.581,0.222,2.385	c-0.859-0.499-1.608-1.192-2.273-1.913l-0.389-0.472c-0.721-0.942-1.497-2.189-1.386-3.438L55.179,121.179L55.179,121.179z M59.642,127c0-0.249-0.027-0.443-0.027-0.665c0.887,0.609,1.719,1.275,2.495,1.996c0.776,0.776,1.497,1.58,1.885,2.551	c0.277,0.748,0.499,1.524,0.61,2.329c-0.915-0.389-1.774-0.943-2.523-1.581l-0.471-0.36c-0.887-0.887-1.857-2.023-1.885-3.271	C59.698,127.638,59.642,127.333,59.642,127L59.642,127z M64.965,132.074c-0.056-0.25-0.083-0.444-0.11-0.666	c0.942,0.472,1.885,1.054,2.745,1.664c0.859,0.61,1.691,1.303,2.273,2.218c0.389,0.693,0.693,1.47,0.971,2.246	c-0.998-0.277-1.913-0.693-2.772-1.192l-0.499-0.36c-0.998-0.721-2.107-1.691-2.385-2.911	C65.104,132.712,65.021,132.406,64.965,132.074L64.965,132.074z M70.982,136.344c-0.056-0.25-0.139-0.444-0.167-0.638	c1.026,0.332,1.996,0.748,2.939,1.191c0.97,0.5,1.94,1.082,2.634,1.941c0.443,0.61,0.915,1.303,1.248,2.023	c-0.998-0.11-1.941-0.415-2.883-0.804l-0.527-0.222c-1.165-0.582-2.384-1.358-2.856-2.578	C71.259,136.954,71.121,136.648,70.982,136.344L70.982,136.344z M77.636,139.671c-0.111-0.194-0.222-0.389-0.305-0.582	c1.082,0.166,2.135,0.443,3.161,0.775c0.998,0.36,2.052,0.776,2.855,1.497c0.554,0.583,1.109,1.165,1.58,1.858	c-1.026,0.027-2.024-0.111-3.022-0.389l-0.527-0.166c-1.22-0.36-2.578-0.998-3.244-2.107	C77.996,140.253,77.802,139.948,77.636,139.671L77.636,139.671z M143.51,84.969c-0.111,0.194-0.193,0.361-0.248,0.554	c-0.557-0.915-1-1.83-1.359-2.828c-0.332-0.998-0.666-2.052-0.527-3.077c0.057-0.776,0.223-1.581,0.5-2.357	c0.637,0.749,1.137,1.608,1.58,2.496l0.166,0.499c0.443,1.165,0.777,2.579,0.277,3.743	C143.787,84.304,143.621,84.664,143.51,84.969L143.51,84.969z M141.016,78.149c-0.029,0.221-0.111,0.416-0.195,0.609	c-0.637-0.804-1.219-1.691-1.719-2.606c-0.498-0.915-0.971-1.913-1.053-2.967c-0.027-0.804,0-1.608,0.166-2.384	c0.721,0.61,1.387,1.442,1.912,2.246l0.307,0.499c0.582,1.081,1.164,2.384,0.803,3.604	C141.182,77.511,141.098,77.844,141.016,78.149L141.016,78.149z M137.494,71.8c0,0.194-0.057,0.444-0.084,0.61	c-0.775-0.693-1.496-1.497-2.135-2.301c-0.637-0.887-1.219-1.774-1.496-2.8c-0.139-0.776-0.223-1.58-0.223-2.384	c0.859,0.527,1.607,1.192,2.273,1.913l0.389,0.472c0.721,0.97,1.496,2.19,1.387,3.466L137.494,71.8L137.494,71.8z M133.029,66.005	c0.029,0.222,0.029,0.416,0.029,0.638c-0.889-0.555-1.721-1.248-2.496-1.997c-0.721-0.749-1.469-1.58-1.885-2.523	c-0.277-0.776-0.5-1.553-0.611-2.356c0.916,0.388,1.775,0.97,2.523,1.58l0.473,0.388c0.887,0.887,1.83,1.996,1.912,3.271	C132.975,65.34,133.029,65.7,133.029,66.005L133.029,66.005z M127.707,60.932c0.055,0.222,0.084,0.416,0.111,0.638	c-0.943-0.443-1.887-1.025-2.746-1.636c-0.859-0.638-1.689-1.303-2.273-2.246c-0.387-0.693-0.691-1.414-0.941-2.19	c0.971,0.222,1.885,0.693,2.744,1.192l0.5,0.305c1.025,0.749,2.105,1.691,2.383,2.938	C127.568,60.267,127.623,60.627,127.707,60.932L127.707,60.932z M121.662,56.69l0.25,0.583c-1.053-0.305-2.051-0.721-2.994-1.192	c-0.971-0.499-1.941-1.081-2.578-1.886c-0.5-0.665-0.971-1.358-1.303-2.079c0.998,0.111,1.996,0.416,2.883,0.804l0.555,0.25	c1.137,0.555,2.357,1.358,2.828,2.551C121.414,56.052,121.553,56.357,121.662,56.69L121.662,56.69z M115.037,53.363	c0.111,0.139,0.221,0.333,0.305,0.527c-1.082-0.166-2.135-0.416-3.133-0.776c-1.025-0.333-2.08-0.776-2.883-1.497	c-0.582-0.526-1.109-1.165-1.582-1.83c1-0.056,2.053,0.138,3.023,0.36l0.555,0.167c1.191,0.416,2.551,0.999,3.215,2.107	C114.676,52.726,114.871,53.03,115.037,53.363L115.037,53.363z M143.787,107.454c0.166,0.305,0.277,0.665,0.416,0.971	c0.5,1.137,0.195,2.578-0.221,3.715l-0.195,0.555c-0.416,0.887-0.914,1.719-1.525,2.439c-0.277-0.721-0.471-1.524-0.555-2.301	c-0.109-1.081,0.168-2.107,0.5-3.105c0.361-0.971,0.775-1.94,1.303-2.855C143.594,107.066,143.705,107.26,143.787,107.454	L143.787,107.454z M141.375,114.302c0.111,0.306,0.195,0.639,0.25,0.971c0.359,1.22-0.193,2.551-0.748,3.632l-0.334,0.499	c-0.525,0.805-1.137,1.637-1.912,2.246c-0.139-0.776-0.195-1.58-0.139-2.385c0.055-1.053,0.498-2.051,0.998-2.967	c0.498-0.914,1.025-1.802,1.691-2.605C141.236,113.887,141.32,114.081,141.375,114.302L141.375,114.302z M137.938,120.679	c0.055,0.361,0.055,0.666,0.084,0.998c0.166,1.275-0.584,2.496-1.359,3.494l-0.332,0.471c-0.666,0.721-1.387,1.414-2.246,1.913	c-0.027-0.749,0.055-1.553,0.193-2.384c0.25-1.026,0.832-1.914,1.441-2.745c0.639-0.859,1.332-1.664,2.107-2.385	C137.854,120.263,137.91,120.457,137.938,120.679L137.938,120.679z M133.529,126.501c0,0.333-0.055,0.693-0.055,1.025	c-0.057,1.276-0.998,2.385-1.887,3.272l-0.416,0.388c-0.775,0.61-1.607,1.192-2.521,1.58c0.109-0.775,0.305-1.58,0.553-2.328	c0.389-0.998,1.137-1.803,1.887-2.579c0.748-0.721,1.58-1.413,2.467-2.023C133.557,126.058,133.557,126.308,133.529,126.501	L133.529,126.501z M128.289,131.63c-0.084,0.333-0.139,0.666-0.223,0.971c-0.275,1.275-1.357,2.246-2.355,2.967l-0.5,0.332	c-0.83,0.5-1.773,0.971-2.717,1.248c0.223-0.776,0.527-1.553,0.916-2.246c0.525-0.914,1.387-1.607,2.217-2.273	c0.889-0.609,1.775-1.191,2.746-1.636C128.373,131.215,128.316,131.408,128.289,131.63L128.289,131.63z M122.301,135.955	c-0.111,0.306-0.277,0.61-0.389,0.942c-0.416,1.192-1.691,2.024-2.801,2.579l-0.553,0.249c-0.889,0.389-1.887,0.693-2.885,0.805	c0.361-0.693,0.777-1.387,1.275-2.052c0.693-0.832,1.609-1.414,2.578-1.913c0.943-0.499,1.914-0.915,2.967-1.22	C122.412,135.512,122.355,135.706,122.301,135.955L122.301,135.955z M115.674,139.338c-0.139,0.305-0.332,0.61-0.498,0.887	c-0.639,1.137-1.996,1.774-3.189,2.19l-0.582,0.139c-0.971,0.25-1.969,0.443-2.967,0.389c0.473-0.638,0.998-1.275,1.582-1.83	c0.775-0.749,1.801-1.164,2.799-1.553c1.055-0.333,2.08-0.609,3.16-0.804C115.869,138.95,115.785,139.144,115.674,139.338	L115.674,139.338z M98.264,48.65h0.111c0.082,0,0.166,0,0.221-0.028v2.495c-0.055,0-0.139-0.027-0.221-0.027h-0.111V48.65	L98.264,48.65z M94.465,48.622v2.495c-0.083,0-0.139-0.027-0.194-0.027c-0.055,0-0.083,0-0.167,0.027V48.65h0.167	C94.326,48.65,94.381,48.65,94.465,48.622L94.465,48.622z M98.264,141.944h0.111h0.221v2.467h-0.221h-0.111V141.944L98.264,141.944	z M94.465,141.944v2.467h-0.194h-0.167v-2.467h0.167H94.465L94.465,141.944z M146.088,98.333v0.083v0.222h-2.521v-0.222v-0.083	H146.088L146.088,98.333z M146.088,94.646h-2.521v-0.194V94.34h2.521v0.111V94.646L146.088,94.646z M48.913,98.333v0.083v0.222	H46.39v-0.222v-0.083H48.913L48.913,98.333z M48.913,94.646H46.39v-0.194V94.34h2.523v0.111V94.646L48.913,94.646z M74.752,79.507	l-3.327,1.442l-0.277-5.601L74.752,79.507L74.752,79.507z M87.118,123.451l1.996,0.999l1.081,3.16l-1.968-0.971L87.118,123.451	L87.118,123.451z M84.345,115.384l1.996,0.942l1.082,3.161l-1.969-0.971L84.345,115.384L84.345,115.384z M81.517,107.26	l2.052,0.971l1.081,3.133l-1.968-0.915L81.517,107.26L81.517,107.26z M78.772,99.137l2.024,0.971l1.081,3.16l-1.968-0.915	L78.772,99.137L78.772,99.137z M76,91.041l2.024,0.998l1.082,3.161l-1.969-0.97L76,91.041L76,91.041z M73.228,82.945l2.024,0.971	l1.081,3.161l-1.94-0.971L73.228,82.945L73.228,82.945z M106.553,81.615c4.354-3.355,6.627-4.464,12.311-5.85	c0,0.971,0.055,1.885,0.082,2.772c-5.488,1.275-7.846,2.357-12.643,5.795C106.248,84.359,106.387,83.001,106.553,81.615	L106.553,81.615z M105.998,87.687c4.381-3.41,7.568-4.603,13.143-5.961c0.082,0.887,0.193,1.802,0.305,2.745	c-5.379,1.22-8.734,2.579-13.447,5.989V87.687L105.998,87.687z M105.859,93.231c4.631-3.188,8.346-4.824,13.973-6.321l0.084,0.36	c0.139,0.887,0.334,1.719,0.527,2.578c-5.572,1.276-9.371,2.911-14.223,6.377C105.916,95.2,105.805,94.285,105.859,93.231	L105.859,93.231z M106.607,99.58c4.299-3.326,8.789-5.323,14.557-6.82l0.943,2.884c-5.545,1.164-10.203,3.299-14.973,6.848	L106.607,99.58L106.607,99.58z M108.688,107.926c-0.305-0.859-0.582-1.691-0.859-2.551c4.381-3.271,9.344-5.656,15.277-7.181	l0.027,0.055c0.305,0.777,0.664,1.525,0.998,2.246C118.863,101.965,113.678,104.653,108.688,107.926L108.688,107.926z M98.098,110.615c2.938-1.304,6.043-2.662,8.51-2.579l0.195,0.693c-2.773,1.719-5.934,3.521-9.012,5.074	C97.652,112.944,97.848,111.752,98.098,110.615L98.098,110.615z M98.484,116.465c9.898-3.354,17.189-9.62,26.811-13.669	c0.471,0.805,0.914,1.581,1.387,2.357c-6.711,3.188-11.229,5.656-19.076,10.646C103.643,118.295,99.4,118.517,98.484,116.465	L98.484,116.465z M86.813,110.448c5.268-3.715,13.585-8.844,19.435-6.903c0.25,0.832,0.471,1.691,0.748,2.523	c-4.74-2.107-13.28,2.079-19.684,6.931L86.813,110.448L86.813,110.448z M85.343,104.986c5.268-4.02,14.25-8.234,20.1-5.711	c0.111,0.749,0.25,1.524,0.389,2.245c-4.297-2.245-13.834,1.387-19.796,5.768L85.343,104.986L85.343,104.986z M83.735,99.969	c5.323-4.27,14.833-8.54,21.265-5.934c0.027,0.832,0.057,1.691,0.139,2.579c-4.574-2.357-14.528,0.887-20.766,5.461L83.735,99.969	L83.735,99.969z M98.596,137.979l-0.166-3.938c0,0-0.332,0.444-0.693,0.61c-0.277,0.11-0.582-0.139-0.416-0.582	c0.223-0.638,0.721-0.555,0.971-1.969c0.084-0.388,0.111-0.804,0.193-1.275c0.139-0.693,1.027-0.665,1.055,0l0.305,7.042	L98.596,137.979L98.596,137.979z M61.389,101.882l-1.275,0.139l-0.167-1.221l1.275-0.166L61.389,101.882L61.389,101.882z M67.267,116.132l-1.082,0.666l-0.693-1.082l1.082-0.637L67.267,116.132L67.267,116.132z M71.038,124.062l-0.805-0.805	c0.361-0.359,0.555-0.748,0.583-1.137c0.056-0.941-1.275-2.356-2.163-2.633c-0.499-0.167-0.97,0.027-1.22,0.276	c-0.499,0.499-0.139,1.082,0.222,1.636c0.859,1.304,1.691,2.385,1.636,3.244c-0.056,1.025-1.192,1.913-2.384,1.747	c-1.497-0.222-3.133-2.107-3.216-3.438c-0.055-0.609,0.222-1.137,0.776-1.663l0.721,0.776c-0.277,0.305-0.416,0.665-0.416,0.998	c0,0.721,1.248,2.023,1.996,2.273c0.776,0.222,1.386-0.333,1.331-0.859c-0.055-0.971-2.052-2.939-2.106-4.242	c-0.028-0.971,1.081-2.052,2.495-1.83c1.47,0.222,3.466,2.19,3.466,3.743C71.952,122.842,71.647,123.479,71.038,124.062	L71.038,124.062z M65.271,74.185l-1.192,1.441l2.579,1.996l-0.693,0.804l-6.016-4.686l2.495-2.911	c0.887-1.053,2.08-1.913,3.382-0.97c1.358,1.025,0.971,2.467,0.139,3.493l3.993,0.194l-0.86,0.942L65.271,74.185L65.271,74.185z M62.831,71.772l-1.441,1.719l1.94,1.553l1.442-1.747c0.749-0.915,1.497-1.83,0.36-2.578C64.245,70.137,63.496,70.94,62.831,71.772	L62.831,71.772z M58.617,104.211c-0.028-0.028,2.107-0.527,3.521,1.358c1.026,1.33,1.358,3.382,0.443,4.74	c-1.081,1.58-3.854,2.496-5.739,1.304c-1.248-0.832-2.135-2.662-1.913-4.298c0.25-1.94,1.857-2.468,1.885-2.439l0.333,1.054	c-1.248,0.609-1.414,1.913-1.026,3.077c0.5,1.414,1.774,2.468,3.771,1.885c1.996-0.582,2.495-2.189,1.996-3.687	c-0.721-2.302-2.911-1.886-2.939-1.941L58.617,104.211L58.617,104.211z M63.912,83.25c-1.025,2.745-3.41,3.271-5.461,2.44	c-1.83-0.721-2.995-2.495-2.301-4.713c0.749-2.357,2.883-3.937,5.628-2.8C63.607,78.953,64.855,80.728,63.912,83.25L63.912,83.25z M58.838,84.637c1.525,0.638,3.271,0.443,4.131-1.774c0.693-1.802-0.305-3.161-1.774-3.715c-1.996-0.749-3.354,0.277-3.937,1.747	C56.704,82.308,56.925,83.833,58.838,84.637L58.838,84.637z M71.536,72.16l-5.268-5.434l0.804-0.721l5.24,5.462L71.536,72.16	L71.536,72.16z M73.532,69.998l-4.075-6.294l1.22-0.776l7.597,2.883l-3.466-5.351l0.887-0.583l4.076,6.321l-1.248,0.749	l-7.569-2.911l3.465,5.378L73.532,69.998L73.532,69.998z M81.85,58.298l2.384,6.044l-0.998,0.36l-2.44-6.044l-2.717,1.026	l-0.361-0.915l6.46-2.385l0.388,0.888L81.85,58.298L81.85,58.298z M87.728,63.039l-0.971-7.375l1.081-0.166l0.388,2.994	l4.658-0.555l-0.36-2.966l1.082-0.111l0.915,7.375l-1.081,0.111l-0.416-3.41l-4.658,0.527l0.444,3.41L87.728,63.039L87.728,63.039z M96.405,62.318l0.167-7.431h1.081l-0.137,7.458L96.405,62.318L96.405,62.318z M98.402,62.069l4.934-6.682l1.166,0.194l2.023,7.874	l-1.109-0.194l-0.609-2.218l-3.854-0.693l-1.387,1.913L98.402,62.069L98.402,62.069z M101.562,59.49l2.967,0.499l-0.859-3.382	L101.562,59.49L101.562,59.49z M107.385,63.898l3.105-6.82l1.33,0.582l1.775,7.735l2.66-5.822l0.971,0.416l-3.133,6.792	l-1.33-0.582l-1.775-7.708l-2.66,5.822L107.385,63.898L107.385,63.898z M124.047,75.155l6.238-4.38l2.023,2.662	c0.859,1.164,1.414,2.523-0.109,3.577c-1.525,1.081-2.746,0.166-3.605-0.998l-1.33-1.83l-2.578,1.802L124.047,75.155	L124.047,75.155z M127.984,73.686l1.109,1.469c0.693,0.943,1.441,1.858,2.551,0.943c0.832-0.666,0.277-1.553-0.334-2.357	l-1.164-1.581L127.984,73.686L127.984,73.686z M127.514,79.646l8.512,0.471l0.414,1.026l-5.85,5.85l-0.416-0.998l1.664-1.691	l-1.469-3.493l-2.412-0.167L127.514,79.646L127.514,79.646z M131.449,80.838l1.137,2.689l2.523-2.495L131.449,80.838	L131.449,80.838z M139.518,92.76l-4.574,0.859c-2.496,0.472-3.467-0.97-3.799-2.578c-0.332-1.691-0.111-3.41,2.607-3.909	l4.49-0.832l0.193,1.054l-4.131,0.776c-1.662,0.305-2.494,0.915-2.135,2.689c0.223,1.109,0.859,2.079,2.994,1.691l4.16-0.776	L139.518,92.76L139.518,92.76z M131.865,95.893l7.68,0.527l-0.055,1.025l-6.654-0.443l-0.305,4.519l-1.055-0.055L131.865,95.893	L131.865,95.893z M131.145,102.519l7.598,1.331l-0.195,0.998l-7.568-1.274L131.145,102.519L131.145,102.519z M131.838,118.378	l-5.656-3.438l0.582-0.859l5.629,3.409l1.58-2.384l0.859,0.499l-3.688,5.684l-0.859-0.527L131.838,118.378L131.838,118.378z M125.018,116.908l3.16,7.652l-0.775,0.804l-7.984-2.634l0.748-0.831l2.328,0.775l2.635-2.772l-0.887-2.189L125.018,116.908	L125.018,116.908z M125.572,120.873l-2.051,2.163l3.381,1.108L125.572,120.873L125.572,120.873z M87.728,135.179l1.414,0.194	c0,0.749,0.721,1.581,2.218,1.747c2.967,0.305,3.105-2.911,3.105-2.911c-1.026,0.915-2.357,0.998-3.521,0.748	c-0.943-0.194-1.941-0.526-2.634-1.524c-0.776-1.137-0.472-2.578,0.887-3.244c1.83-0.942,4.658-0.249,5.851,0.942	c1.303,1.304,1.053,4.797-0.61,6.183c-1.165,0.971-3.632,0.915-5.185,0.139C88.116,136.87,87.728,135.899,87.728,135.179	L87.728,135.179z M93.994,131.63c-0.804-0.887-2.745-1.275-3.909-0.692c-0.943,0.499-1.22,1.524-0.333,2.356	c0.638,0.609,2.052,1.109,3.299,0.776C94.381,133.737,94.77,132.518,93.994,131.63L93.994,131.63z M84.262,136.344l1.109-3.771	c0-0.027-0.471,0.305-0.859,0.332c-0.277,0-0.5-0.305-0.194-0.692c0.388-0.527,0.832-0.277,1.553-1.553	c0.194-0.333,0.36-0.721,0.61-1.137c0.333-0.61,1.165-0.277,0.971,0.36l-1.997,6.765L84.262,136.344L84.262,136.344z M104.363,128.803c2.717-0.638,4.963,1.164,5.379,3.438c0.414,2.356-1.166,4.214-3.135,4.714c-2.549,0.665-4.852-0.943-5.377-3.161	C100.676,131.603,102.033,129.356,104.363,128.803L104.363,128.803z M104.807,129.718c-1.691,0.276-2.773,1.968-2.439,3.688	c0.359,1.773,1.996,2.938,3.688,2.661c1.719-0.306,2.828-1.996,2.467-3.715C108.189,130.604,106.498,129.412,104.807,129.718	L104.807,129.718z M73.449,131.131l2.301-1.996l-1.22-2.717l2.606,1.441l2.246-1.913l-0.665,2.773l2.634,1.469l-3.022,0.389	l-0.638,2.883l-1.247-2.689L73.449,131.131L73.449,131.131z M120.359,130.521l-2.994-0.333l-1.219,2.689l-0.666-2.884l-2.994-0.388	l2.605-1.47l-0.609-2.772l2.189,1.941l2.607-1.47l-1.221,2.717L120.359,130.521L120.359,130.521z M58.866,87.52	c0.028-0.028,2.135,0.471,2.551,2.772c0.305,1.664-0.305,3.632-1.747,4.436c-1.691,0.942-4.575,0.499-5.684-1.414	c-0.776-1.303-0.721-3.327,0.194-4.713c1.109-1.608,2.8-1.331,2.8-1.331l-0.166,1.081c-1.414,0-2.135,1.082-2.301,2.302	c-0.222,1.497,0.443,3.021,2.495,3.382c2.024,0.389,3.216-0.832,3.466-2.384c0.36-2.385-1.774-2.995-1.747-3.05L58.866,87.52	L58.866,87.52z M117.006,65.423l0.914,0.693c-0.305,0.389-0.443,0.804-0.416,1.192c0.057,0.943,1.58,2.163,2.467,2.329	c0.527,0.083,0.971-0.167,1.166-0.472c0.443-0.555,0.027-1.081-0.416-1.58c-1.055-1.137-2.023-2.107-2.08-2.994	c-0.082-1.026,0.916-2.052,2.135-2.024c1.498,0,3.383,1.636,3.66,2.939c0.111,0.582-0.084,1.164-0.555,1.747l-0.805-0.666	c0.223-0.333,0.334-0.693,0.277-1.054c-0.109-0.693-1.523-1.83-2.301-1.94c-0.803-0.139-1.33,0.499-1.221,1.025	c0.195,0.943,2.469,2.634,2.691,3.882c0.166,0.97-0.777,2.19-2.219,2.162c-1.498,0-3.742-1.691-3.965-3.216	C116.256,66.754,116.479,66.089,117.006,65.423L117.006,65.423z M133.141,105.652l-0.332,1.081c-0.5-0.139-0.914-0.139-1.275,0.027	c-0.859,0.389-1.498,2.219-1.332,3.133c0.084,0.527,0.473,0.832,0.832,0.943c0.666,0.193,1.027-0.36,1.332-0.971	c0.721-1.358,1.303-2.606,2.107-2.967c0.941-0.416,2.244,0.167,2.633,1.304c0.5,1.413-0.359,3.771-1.496,4.464	c-0.527,0.305-1.137,0.332-1.857,0.083l0.359-0.998c0.389,0.083,0.777,0.056,1.082-0.083c0.609-0.333,1.191-2.08,1.053-2.856	c-0.166-0.776-0.914-1.054-1.387-0.776c-0.803,0.499-1.635,3.217-2.744,3.854c-0.859,0.472-2.328,0-2.801-1.33	c-0.471-1.414,0.334-4.104,1.691-4.824C131.615,105.402,132.336,105.375,133.141,105.652L133.141,105.652z M101.508,48.206	c0,0.111,0.082,0.194,0.193,0.25v2.828c-0.111,0.055-0.193,0.194-0.193,0.25c0,0.083,0.082,0.194,0.193,0.277v0.526	c0,1.525-2.385,1.525-2.385-0.027v-3.715l0.998,1.054c0.195,0.25,0.389,0.36,0.666,0.194c0.221-0.139,0.221-0.416,0.055-0.638	l-1.719-2.384v-1.691c0-1.553,2.385-1.553,2.385,0.027v2.772C101.59,48.012,101.508,48.123,101.508,48.206L101.508,48.206z M97.377,48.206c0,0.111,0.082,0.194,0.193,0.25v2.828c-0.111,0.055-0.193,0.194-0.193,0.25c0,0.083,0.082,0.194,0.193,0.277v0.526	c0,1.525-2.385,1.525-2.385-0.027v-3.715l0.999,1.054c0.193,0.25,0.388,0.36,0.638,0.194c0.249-0.139,0.249-0.416,0.083-0.638	l-1.719-2.384v-1.691c0-1.553,2.385-1.553,2.385,0.027v2.772C97.459,48.012,97.377,48.123,97.377,48.206L97.377,48.206z M93.217,48.206c0,0.111,0.083,0.194,0.194,0.25v2.828c-0.111,0.055-0.194,0.194-0.194,0.25c0,0.083,0.083,0.194,0.194,0.277v0.526	c0,1.525-2.384,1.525-2.384-0.027v-3.715l0.998,1.054c0.194,0.25,0.388,0.36,0.666,0.194c0.222-0.139,0.222-0.416,0.055-0.638	l-1.719-2.384v-1.691c0-1.553,2.384-1.553,2.384,0.027v2.772C93.3,48.012,93.217,48.123,93.217,48.206L93.217,48.206z M47.443,93.426c-0.111,0-0.194,0.083-0.277,0.193h-2.911c-0.083-0.11-0.194-0.193-0.277-0.193c-0.083,0-0.194,0.083-0.277,0.193	h-0.555c-1.58,0-1.58-2.329,0.027-2.329h3.882l-1.109,0.971c-0.25,0.194-0.36,0.36-0.222,0.637	c0.167,0.222,0.444,0.222,0.693,0.083l2.468-1.691h1.774c1.608,0,1.608,2.329-0.055,2.329h-2.855	C47.665,93.509,47.526,93.426,47.443,93.426L47.443,93.426z M47.443,97.418c-0.111,0-0.194,0.083-0.277,0.194h-2.911	c-0.083-0.111-0.194-0.194-0.277-0.194c-0.083,0-0.194,0.083-0.277,0.194h-0.555c-1.58,0-1.58-2.329,0.027-2.329h3.882	l-1.109,0.971c-0.25,0.193-0.36,0.388-0.222,0.637c0.167,0.222,0.444,0.222,0.693,0.084l2.468-1.691h1.774	c1.608,0,1.608,2.329-0.055,2.329h-2.855C47.665,97.501,47.526,97.418,47.443,97.418L47.443,97.418z M47.443,101.493	c-0.111,0-0.194,0.084-0.277,0.194h-2.911c-0.083-0.11-0.194-0.194-0.277-0.194c-0.083,0-0.194,0.084-0.277,0.194h-0.555	c-1.58,0-1.58-2.329,0.027-2.329h3.882l-1.109,0.971c-0.25,0.193-0.36,0.36-0.222,0.638c0.167,0.222,0.444,0.222,0.693,0.083	l2.468-1.691h1.774c1.608,0,1.608,2.329-0.055,2.329h-2.855C47.665,101.577,47.526,101.493,47.443,101.493L47.443,101.493z M146.395,93.426c-0.111,0-0.195,0.083-0.277,0.193h-2.912c-0.084-0.11-0.223-0.193-0.277-0.193c-0.084,0-0.223,0.083-0.305,0.193	h-0.527c-1.58,0-1.58-2.329,0.027-2.329h3.883l-1.137,0.971c-0.223,0.194-0.361,0.36-0.195,0.637	c0.168,0.222,0.445,0.222,0.693,0.083l2.469-1.691h1.746c1.635,0,1.635,2.329-0.027,2.329h-2.885	C146.588,93.509,146.477,93.426,146.395,93.426L146.395,93.426z M146.395,97.418c-0.111,0-0.195,0.083-0.277,0.194h-2.912	c-0.084-0.111-0.223-0.194-0.277-0.194c-0.084,0-0.223,0.083-0.305,0.194h-0.527c-1.58,0-1.58-2.329,0.027-2.329h3.883	l-1.137,0.971c-0.223,0.193-0.361,0.388-0.195,0.637c0.168,0.222,0.445,0.222,0.693,0.084l2.469-1.691h1.746	c1.635,0,1.635,2.329-0.027,2.329h-2.885C146.588,97.501,146.477,97.418,146.395,97.418L146.395,97.418z M146.395,101.493	c-0.111,0-0.195,0.084-0.277,0.194h-2.912c-0.084-0.11-0.223-0.194-0.277-0.194c-0.084,0-0.223,0.084-0.305,0.194h-0.527	c-1.58,0-1.58-2.329,0.027-2.329h3.883l-1.137,0.971c-0.223,0.193-0.361,0.36-0.195,0.638c0.168,0.222,0.445,0.222,0.693,0.083	l2.469-1.691h1.746c1.635,0,1.635,2.329-0.027,2.329h-2.885C146.588,101.577,146.477,101.493,146.395,101.493L146.395,101.493z M101.508,143.746c0,0.111,0.082,0.194,0.193,0.277v2.8c-0.111,0.084-0.193,0.194-0.193,0.277c0,0.056,0.082,0.194,0.193,0.25	v0.526c0,1.524-2.385,1.524-2.385-0.027v-3.716l0.998,1.082c0.195,0.222,0.389,0.332,0.666,0.193	c0.221-0.166,0.221-0.443,0.055-0.665l-1.719-2.385v-1.69c0-1.553,2.385-1.553,2.385,0.027v2.772	C101.59,143.552,101.508,143.663,101.508,143.746L101.508,143.746z M97.377,143.746c0,0.111,0.082,0.194,0.193,0.277v2.8	c-0.111,0.084-0.193,0.194-0.193,0.277c0,0.056,0.082,0.194,0.193,0.25v0.526c0,1.524-2.385,1.524-2.385-0.027v-3.716l0.999,1.082	c0.193,0.222,0.388,0.332,0.638,0.193c0.249-0.166,0.249-0.443,0.083-0.665l-1.719-2.385v-1.69c0-1.553,2.385-1.553,2.385,0.027	v2.772C97.459,143.552,97.377,143.663,97.377,143.746h-4.16c0,0.111,0.083,0.194,0.194,0.277v2.8	c-0.111,0.084-0.194,0.194-0.194,0.277c0,0.056,0.083,0.194,0.194,0.25v0.526c0,1.524-2.384,1.524-2.384-0.027v-3.716l0.998,1.082	c0.194,0.222,0.388,0.332,0.666,0.193c0.222-0.166,0.222-0.443,0.055-0.665l-1.719-2.385v-1.69c0-1.553,2.384-1.553,2.384,0.027	v2.772c-0.111,0.083-0.194,0.194-0.194,0.277H97.377L97.377,143.746z"/><path style="fill-rule:evenodd;clip-rule:evenodd;fill:#CC2229;" d="M63.69,133.571L52.6,145.382	c-0.443-0.388-0.804-0.776-1.164-1.164l10.896-11.479c-0.416-0.277-0.804-0.61-1.165-0.915L50.41,143.108	c-4.075-4.436-6.654-9.344-8.678-14.167c1.802-1.138,4.603-1.803,7.042-2.19c-8.65-4.325-16.496-10.924-20.184-17.439	c-2.689,9.843-1.857,20.268,2.523,30.83c0.998-2.162,1.691-5.046,3.937-6.432c3.105,5.739,6.377,10.729,9.953,15.109l-9.953,10.425	c-2.939,3.133,1.137,5.961,4.02,2.855l9.011-9.731c6.1,6.654,13.031,11.506,21.015,14.639c6.932,2.718,12.199,3.466,16.441,5.739	c4.463,2.385,8.872,6.35,10.84,11.506c1.914-5.156,6.349-9.121,10.814-11.506c4.213-2.273,9.537-3.021,16.412-5.739	c8.041-3.133,14.916-7.984,21.07-14.639l8.955,9.731c2.885,3.105,6.988,0.277,4.076-2.855l-9.953-10.425	c3.521-4.38,6.848-9.37,9.953-15.109c2.191,1.386,2.883,4.27,3.938,6.432c4.324-10.562,5.211-20.987,2.494-30.83	c-3.688,6.516-11.533,13.114-20.184,17.439c2.441,0.388,5.268,1.053,7.016,2.19c-2.025,4.823-4.604,9.731-8.678,14.167	l-10.758-11.312c-0.389,0.332-0.832,0.638-1.275,0.915l11.006,11.533c-0.387,0.388-0.775,0.776-1.137,1.137l-11.311-11.894	c-0.084,0.027-0.195,0.083-0.305,0.11c-0.111,0.277-0.277,0.527-0.5,0.805l11.008,11.838c-5.545,4.658-13.225,8.512-24.455,10.535	c-6.043,1.137-11.865-2.883-14-7.069c-0.027,0-0.055,0-0.084,0c-1.025,0-1.885-0.804-1.885-1.774v-1.22h-0.332v1.22	c0,0.971-0.859,1.774-1.886,1.774c-1.081,0-1.913-0.804-1.913-1.774v-1.22h-0.361v1.22c0,0.971-0.832,1.774-1.885,1.774	c-0.028,0-0.056,0-0.083,0c-2.135,4.187-7.957,8.206-14.001,7.069c-11.229-2.023-18.908-5.877-24.398-10.535l11.118-11.977	c-0.056-0.084-0.083-0.167-0.139-0.25C64.383,133.903,64.023,133.737,63.69,133.571L63.69,133.571z M46.113,149.984	c0.388,0.472,0.721,0.887,1.109,1.303l-8.816,9.315c-0.943,1.026-2.413,0-1.248-1.22L46.113,149.984L46.113,149.984z M43.035,138.367c6.459,9.593,15.027,16.857,21.043,20.101c8.373,4.464,18.16,7.042,23.955,6.876	c4.353-0.111,7.069-6.487,8.29-9.814v21.209c-1.026-3.021-4.325-9.094-7.985-9.676c-2.051-0.332-14.833-1.22-26.2-7.735	c-6.238-3.576-13.419-9.426-20.905-20.211c-2.163-3.105-4.076-6.211-5.601-9.011c-0.333-0.61-0.665-0.749-1.22-0.305	c-0.748,0.609-1.774,2.19-2.772,4.297c-0.25,0.555-0.721,0.36-0.499-0.194c1.968-5.295,2.052-10.23-0.526-16.552	c-0.583-1.413,0-1.663,0.609-0.276c2.606,5.684,3.383,7.957,11.811,8.705c0.943,0.083,0.776,0.582-0.111,0.666	c-1.109,0.139-3.549,0.221-4.824,0.859c-0.749,0.388-0.971,0.942-0.471,1.913C39.126,132.102,40.928,135.234,43.035,138.367	L43.035,138.367z M155.377,128.691c0.693-1.94-3.992-2.052-5.629-2.245c-1.164-0.111-0.693-0.61-0.277-0.639	c8.678-0.748,9.398-2.994,12.061-8.761c0.666-1.469,1.221-1.22,0.609,0.25c-2.633,6.376-2.521,11.339-0.498,16.662	c0.166,0.499-0.361,0.638-0.471,0.36c-1.664-3.604-3.383-5.711-3.938-4.436c-0.887,2.107-4.963,8.539-8.041,12.56	c-7.375,9.731-18.658,19.906-36.152,23.344c-4.242,0.832-9.398,1.442-10.98,1.331c-1.939-0.139-2.023-1.054-0.221-1.414	c1.607-0.305,5.184-0.277,10.951-1.441c17.217-3.521,27.863-13.392,34.822-22.817C150.691,137.23,154.656,130.632,155.377,128.691	l-8.596,21.349l8.955,9.371c1.137,1.191-0.277,2.218-1.248,1.22l-8.787-9.344c0.332-0.416,0.721-0.831,1.08-1.247L155.377,128.691	L155.377,128.691z"/><path style="fill-rule:evenodd;clip-rule:evenodd;fill:#CC2229;" d="M59.365,63.094c0.665-0.97,1.635-1.885,2.745-2.633	c-1.802-3.632-0.028-10.397-3.466-14.722L41.732,24.196C35.161,28.66,29.228,33.9,23.96,39.889l20.738,18.409	C48.719,61.875,55.123,58.797,59.365,63.094L59.365,63.094z M43.812,43.438c4.713,4.603,10.674,8.789,13.807,8.096	c-0.056,3.549,0.693,6.737,3.188,9.621c-3.355-2.08-6.876-3.798-10.536-3.771C51.297,53.862,47.499,48.206,43.812,43.438	L43.812,43.438z M31.668,45.323c-0.832-0.749,0-1.552,0.749-0.887l13.447,12.061c1.081,0.97,1.83,1.081,2.772,1.331	c1.331,0.388,1.803,0.887,0.693,0.915c-2.412,0.055-3.604-0.776-4.491-1.581L31.668,45.323L31.668,45.323z M130.646,60.461	c1.08,0.804,1.996,1.774,2.521,2.745l0.057,0.027c4.213-4.491,10.758-1.303,14.832-4.935l20.738-18.409	c-5.322-5.989-11.229-11.229-17.771-15.692l-16.967,21.542C130.646,50.063,132.447,56.829,130.646,60.461L130.646,60.461z M145.146,33.041c0.637-0.804,1.496-0.111,0.859,0.61l-10.869,13.668c-0.582,0.693-0.775,1.442-0.887,2.19	c-0.277,1.497-0.721,2.079-0.832,0.832c-0.139-1.303-0.166-2.495,1.055-4.076L145.146,33.041L145.146,33.041z M148.943,43.438	c-3.686,4.769-7.541,10.425-6.459,13.945c-3.66-0.027-7.236,1.691-10.535,3.771c2.467-2.883,3.215-6.072,3.188-9.621	C138.215,52.226,144.176,48.04,148.943,43.438L148.943,43.438z M90.306,46.349v-1.303c0-0.97,0.887-1.774,1.913-1.774	c1.053,0,1.885,0.776,1.885,1.774v2.08c0.111,0,0.222,0.027,0.361,0.027v-2.107c0-0.97,0.832-1.774,1.913-1.774	c1.027,0,1.886,0.776,1.886,1.774v2.19c0.111,0,0.221,0,0.332,0v-2.19c0-0.97,0.859-1.774,1.885-1.774	c1.082,0,1.941,0.776,1.941,1.774v1.608c4.104-0.97,7.652-2.911,11.645-6.099v-7.541c-3.854-2.052-7.846-3.327-11.59-4.02	c3.133-1.969,5.213-5.435,5.213-9.371c0-6.1-5.074-11.118-11.284-11.118c-6.183,0-11.229,5.019-11.229,11.118	c0,3.937,2.08,7.402,5.24,9.371c-3.881,0.693-7.763,2.051-11.894,4.02v7.541C82.349,43.299,86.536,45.323,90.306,46.349	L90.306,46.349z M96.267,14.438c2.938,0,5.323,2.301,5.323,5.185c0,2.883-2.385,5.24-5.323,5.24c-2.884,0-5.268-2.356-5.268-5.24	C90.999,16.738,93.383,14.438,96.267,14.438L96.267,14.438z M89.53,15.158c-1.414,1.968-1.969,4.769-0.776,7.624	c0.416,0.999-1.081,1.774-1.525,0.776c-1.608-3.271-1.303-6.792,1.109-9.704C89.003,13.051,90.306,14.077,89.53,15.158	L89.53,15.158z M102.477,17.598c-0.637-1.136,0.5-1.774,1.137-0.887c1.719,2.522,1.443,5.018-0.471,7.042	c-0.609,0.638-1.773,0.139-1.275-0.555C103.254,21.313,103.475,19.289,102.477,17.598L102.477,17.598z M111.877,33.263	c0.443,0,0.83,0.305,0.83,0.721c0,0.388-0.387,0.693-0.83,0.693H83.901c-0.582,0-1.192,0.5-1.635,1.109	c-0.638,0.859-0.749,1.747-0.776,2.052c-0.083,0.721-1.165,0.638-1.165-0.056v-3.854c0-0.471,0.499-0.665,0.915-0.665H111.877	v6.183c0.443,0,0.83,0.305,0.83,0.693s-0.387,0.749-0.83,0.749h-30.72c-0.471,0-0.859-0.36-0.859-0.749s0.388-0.693,0.859-0.693	h30.72V33.263L111.877,33.263z"/><path style="fill-rule:evenodd;clip-rule:evenodd;fill:#CC2229;" d="M95.768,73.27c-7.431,1.553-14.084,4.741-20.655,8.928	c2.246,4.353,4.187,8.594,5.85,12.809c5.351-3.521,11.339-6.709,17.689-7.347C97.266,82.89,96.211,78.26,95.768,73.27L95.768,73.27	z M87.062,78.011c3.466,0,6.266,2.439,6.266,5.517c0,3.05-2.8,5.545-6.266,5.545c-3.493,0-6.293-2.496-6.293-5.545	C80.769,80.45,83.569,78.011,87.062,78.011L87.062,78.011z"/><path style="fill-rule:evenodd;clip-rule:evenodd;fill:#EFE13C;" d="M78.08,84.609l0.804-1.109l1.386,0.471l-0.859-1.165	l0.859-1.109l-1.386,0.416l-0.776-1.109l-0.027,1.331l-1.359,0.388l1.359,0.499V84.609L78.08,84.609z M81.767,92.677l0.721-0.998	l1.192,0.444l-0.721-0.998l0.721-1.026l-1.192,0.36l-0.693-0.971v1.192l-1.192,0.36l1.192,0.416L81.767,92.677L81.767,92.677z M94.825,87.271l0.776-0.971l1.192,0.389l-0.721-0.998l0.721-0.999l-1.192,0.388l-0.693-0.998l-0.028,1.192l-1.192,0.333	l1.192,0.416L94.825,87.271l-1.885-8.816l0.832-1.109l1.358,0.472l-0.832-1.165l0.832-1.109l-1.358,0.416l-0.776-1.109	l-0.056,1.331l-1.331,0.388l1.331,0.471v1.414L94.825,87.271L94.825,87.271z"/><path style="fill-rule:evenodd;clip-rule:evenodd;fill:#474485;" d="M87.894,80.7c0-0.083-0.111-0.083-0.222,0	c-0.056,0.028-0.083,0.056-0.083,0.056c0-0.028-0.056,0-0.056-0.028c-0.056,0.028-0.139,0-0.139,0.111	c0,0.056,0.028,0.083,0.028,0.083c-0.028,0.167,0.055,0.194,0.167,0.111c0.027,0,0.055,0,0.11-0.027	c0,0.027,0.139-0.056,0.139-0.083c0-0.027,0.056-0.111,0.056-0.111C87.866,80.755,87.866,80.728,87.894,80.7L87.894,80.7z M87.728,87.326c0.055-0.028,0.083,0.027,0.138,0.027c0.055,0.028,0.111,0.056,0.139,0.083c0.028,0.028,0.028,0.028,0.028,0.028	l0.027-0.028c0-0.027,0.028-0.027,0.056-0.027c0.277,0.027,0.25,0.166,0.388,0.305c0,0.056,0.028,0.083,0.028,0.083	c0.028,0.027,0.056,0.027,0.056,0c0-0.028,0.027-0.056,0.027-0.083c0-0.083,0.194-0.499,0.25-0.582c0-0.028,0.028-0.028,0.028,0	h0.027c0,0,0,0,0,0.028c0.028,0,0,0.028-0.027,0.055c0,0-0.028,0-0.028,0.028c0,0.027-0.028,0.083-0.055,0.139	c0,0.027-0.028,0.027-0.028,0.027c-0.028,0.027-0.028,0.027-0.028,0.056c-0.027,0.027,0,0.027,0.028,0h0.028	c0.027-0.028,0.027-0.028,0.027-0.056l0,0c0-0.056,0.111-0.111,0.111-0.194c0.083-0.25,0.194-0.665,0.194-0.859v-0.083l0,0	c0.028-0.028-0.028-0.056-0.056-0.056c0-0.027-0.028-0.027,0-0.055l0,0c0-0.028,0.028-0.028,0.028-0.056	c0.028-0.277,0.416-0.443,0.555-0.61c0,0,0.028,0,0.028-0.027c0-0.028,0.055-0.056,0.083-0.083s0.028-0.028,0.055-0.028h0.028	c0.027,0,0.027-0.027,0.055-0.027c0.527,0,0.721-1.192,0.721-1.719c-0.028-0.083-0.055-0.139-0.055-0.222	c-0.028-0.166-0.056-0.166-0.056-0.36v-0.056l0,0c0-0.028,0.028,0,0.056-0.028c0.166-0.027,0.61-1.081,0.61-1.248	c0-0.028-0.028-0.028-0.028-0.056c-0.028,0-0.028,0-0.028,0l0,0c0-0.027,0-0.027-0.028-0.027c0-0.028-0.027-0.028-0.027-0.056	c-0.028,0-0.028-0.028-0.028-0.055c-0.028,0-0.028,0-0.028,0c0-0.028,0-0.056-0.028-0.083c-0.055-0.028-0.055-0.083-0.083-0.111	l-0.028-0.027l-0.027-0.028h-0.056c-0.028,0-0.056,0.028-0.056,0.056c-0.027,0-0.027,0-0.027-0.027h-0.028l0,0	c-0.056-0.028-0.056,0-0.111,0c-0.056-0.056-0.194-0.083-0.25-0.083v-0.028c-0.056-0.027-0.083-0.056-0.139-0.056	c-0.027,0-0.055,0-0.055-0.027c-0.055-0.083-0.36-0.139-0.416-0.139c0,0,0,0.028-0.028,0.028c0,0.028-0.028,0.055-0.056,0.055l0,0	c0,0,0,0-0.028,0c0-0.027-0.027-0.027-0.055-0.027l0,0c-0.056,0-0.056,0.027-0.083,0c-0.027,0-0.027,0-0.027,0	c-0.028-0.056-0.028,0-0.028,0c0,0.027-0.028,0-0.028,0s-0.028,0-0.028,0.027c0,0-0.028,0-0.055,0c0,0,0,0-0.028,0v-0.027	c-0.028,0-0.028,0-0.028,0h-0.222c-0.056,0-0.25,0.166-0.222,0.11c0-0.027,0.027-0.027,0.027-0.055h-0.027	c0-0.028-0.028-0.028-0.028-0.028l0,0c0-0.027,0-0.027,0-0.055h0.028c0-0.028-0.028-0.028-0.028-0.028	c-0.028-0.028-0.028-0.028-0.028-0.028c-0.027,0-0.027,0-0.056-0.027c-0.027,0-0.11,0-0.138,0s0-0.056-0.028-0.056H88.31h-0.277	c-0.083,0-0.139,0.139-0.167,0.194c0,0,0,0,0,0.028h-0.028v0.027l-0.027,0.027l0,0c-0.056,0.028-0.167,0.056-0.222,0.056	c-0.028,0-0.083,0.028-0.167,0.028c-0.056,0,0-0.055,0-0.055l0,0c-0.028,0-0.056,0-0.056-0.028v-0.027c0-0.027,0-0.056-0.028-0.056	v-0.027c-0.027,0-0.027,0.027-0.027,0.027v0.056c0,0.027-0.056,0.056-0.083,0.056s-0.056,0.027-0.056,0.055	s-0.027,0.028-0.027,0.055c0,0.056,0,0.083,0.027,0.083c0,0,0,0,0.028,0.028c0,0,0,0,0,0.027c0.028,0,0.028,0,0.028,0	c0.028,0.028,0.028,0.028,0.028,0.056h-0.028c-0.028-0.028-0.028-0.028-0.028-0.028c-0.028,0-0.028,0-0.028-0.028	c-0.027,0-0.027-0.027-0.027-0.027c-0.028-0.028-0.028-0.028-0.028-0.056v-0.056c0,0,0-0.055,0.028-0.11	c0.027-0.028,0.027-0.111,0.027-0.167l0.028-0.028c0.028-0.028,0.028-0.055,0.056-0.083c0-0.028,0-0.028,0-0.028	c0-0.028,0.028-0.028,0.056-0.028l0.027-0.028v-0.027c0.028-0.028,0-0.056,0.056-0.083c0-0.028,0.028-0.028,0.028-0.055	c0-0.056,0.028-0.083,0-0.111c-0.056-0.056-0.111,0-0.194-0.056c-0.028-0.028-0.056-0.083-0.083-0.167l0,0	c-0.028-0.028-0.028-0.028-0.056-0.055c0,0,0-0.028-0.028-0.028c-0.305-0.333-0.111-0.111-0.222,0.028c0,0,0,0,0,0.027	c0,0.083-0.027,0.25-0.139,0.277c-0.027,0-0.027,0-0.027-0.027c0-0.056-0.028,0-0.056,0.027l0,0c0-0.027-0.027-0.027-0.027-0.027	s-0.028,0-0.028,0.027l0,0c-0.027,0-0.027,0.028-0.027,0.028s0,0,0,0.028c-0.056,0-0.25,0-0.277-0.028	c-0.028,0-0.028,0.056-0.083,0.083c-0.027,0-0.027,0-0.027,0c-0.028,0-0.028-0.027-0.028,0c-0.028,0-0.028,0-0.028,0.028	c0.028,0,0.028,0.028,0.056,0.028c0,0,0.027,0,0,0c0,0.028,0,0.028,0,0.056c0,0,0,0-0.028,0l-0.028,0.027	c-0.028,0-0.028-0.027-0.056-0.027c-0.055,0-0.111,0-0.166,0.055c0,0,0,0-0.028,0.028c0,0.028,0,0.056-0.056,0.056h-0.027	c-0.028,0-0.028,0-0.028,0.027c-0.028,0.028-0.028,0.028-0.055,0.028c-0.028,0-0.056-0.028-0.056,0c-0.028,0-0.028,0-0.028,0v0.028	c-0.028,0-0.028,0.028-0.055,0.028h-0.083c-0.194,0.194-0.277-0.277-0.277-0.277c0.056-0.111-0.027-0.194-0.083-0.25	c-0.028-0.028-0.028-0.028-0.028-0.028v-0.056c0-0.027,0-0.055-0.028-0.055c-0.055,0.028-0.222,0.167-0.222,0.222	c-0.028,0.028-0.028,0.028-0.055,0.028c0,0-0.028,0-0.028,0.028h-0.027c0,0-0.027,0-0.027,0.027c0,0,0,0,0,0.028	C84.65,80.7,84.623,80.7,84.595,80.7s-0.028,0-0.028,0l-0.027,0.028c0,0,0,0,0,0.028c-0.028,0.055-0.083,0.055-0.111,0.055h-0.333	c0,0-0.028,0.028,0,0.028h0.028c0.028,0,0.028,0,0.028,0.028h0.027v0.028c0,0.027,0,0.027,0,0.055	c0.028,0.028,0.028,0.028,0.056,0.028c0,0.028,0.028,0.055,0.056,0.083c0,0,0,0,0,0.027c0.027,0.027,0.027,0.027,0.083,0.027	c0.167,0,0.139,0.056-0.028,0.222c-0.055,0.055-0.083,0.055-0.111,0.083c-0.056,0.083-0.083,0.167-0.167,0.194	c-0.028,0.027-0.056,0-0.139,0c0,0,0,0-0.028-0.028c0,0,0,0-0.028,0l0,0h-0.083c-0.056,0.028-0.11-0.056-0.139-0.139	c0,0,0,0,0-0.028c-0.027,0-0.055,0-0.083,0.028l-0.083,0.083c-0.111,0.083-0.222,0.056-0.333,0.111c0,0,0,0-0.027,0	c0,0,0,0.028,0,0.056c0.027,0.028,0.027,0.028,0.055,0.028c0,0.055,0.028,0.055,0.056,0.028c0.028,0,0.083,0,0.111,0	c0.028,0.055,0.028,0.055,0,0.055c-0.388,0-0.139,0.222-0.083,0.305h0.027h0.056c0.028,0,0.028,0.028,0.028,0.028	c0.028,0,0.055,0.027,0.055,0.056l0.083,0.665c0.028,0.056,0,0.056-0.055,0.056c-0.36,0.027-0.471,0.333-0.471,0.609	c0,0.056,0,0.056-0.028,0.056c-0.111,0-0.056,0.25-0.056,0.305c0,0.028,0.056,0.028,0.139,0.083	c0.028,0.028,0.056,0.028,0.056,0.056c0.028,0,0.028,0,0.055,0.028c0,0,0,0,0.028,0v0.027c0,0,0,0.028-0.028,0.056l0.028,0.027	c0.056-0.027,0.167-0.055,0.194,0l0.028,0.028h0.055c0.111,0,0.194-0.083,0.277-0.111l0,0c0,0,0,0,0,0.028	c0.028,0.028,0.028,0.028,0.028,0.083c0,0.249,0.083,0.083,0.194,0.083c0.028,0,0.028-0.028,0.055-0.028v-0.028	c0-0.027,0.028-0.027,0.028-0.027c0.056-0.028,0.361-0.139,0.361-0.222c0.027,0,0.027-0.028,0.027-0.028l0.028-0.027l0,0	c0-0.028,0-0.028,0.028-0.028c0,0,0,0,0.028-0.028s0.028-0.083,0.055-0.083c0,0,0-0.028,0.028-0.028	c0.111-0.083,0.222-0.083,0.277-0.028c0,0,0,0,0,0.028c0.028,0.388,0.86,0.444,1.192,0.444c0.056,0,0.111,0.027,0.083,0.055	c0,0.028,0,0.055,0.027,0.055c0.028,0.028,0.056,0.056,0.083,0.056c0,0.027,0,0.027,0,0.056c0,0.027-0.028,0.055-0.028,0.055	c-0.056,0.055,0.028,0.139,0.111,0.194c0.083,0.028,0.194-0.055,0.277-0.083l0.028-0.027v-0.028c0,0,0.055,0.028,0.083,0.056	c0.028,0.028-0.055,0.083,0,0.111c0.028,0.111,0.194,0.111,0.222,0.277c0,0.028-0.028,0.056-0.028,0.111	c0,0.028,0.056,0,0.056,0.028c0,0.056-0.056,0.056-0.028,0.083c0.028,0.027,0.056,0.027,0.083,0.027v0.028	c0.027,0.028-0.028,0.055-0.056,0.083c-0.028,0-0.028,0.027,0,0.027v0.028c0,0.028,0.028,0.028,0.028,0.028	c0.028,0,0.028,0,0.028,0.027l0.055,0.056c0,0,0.028,0,0.028,0.027l0,0c0,0.083,0.028,0.111,0.028,0.167	c0,0.027,0.027,0.055,0.055,0.055c0.139,0,0.222-0.139,0.333-0.083l0.416,0.36c0,0,0.027,0.055,0.027,0.083v0.056	c0,0.028,0,0.028,0,0.028v0.027c-0.027,0-0.027,0.028-0.027,0.028v0.028c0,0.027,0.027,0.027,0.083,0.027	c0.277,0.028,0.083,0.139,0.083,0.333c0,0,0,0.028-0.028,0.028c-0.194,0.111-0.333,0.471-0.416,0.666	C87.672,87.354,87.7,87.326,87.728,87.326L87.728,87.326z"/></g></svg>