<?xml version="1.0" encoding="iso-8859-1"?><!-- Generator: Adobe Illustrator 16.0.0, SVG Export Plug-In . SVG Version: 6.00 Build 0) --><!DOCTYPE svg PUBLIC "-//W3C//DTD SVG 1.1//EN" "http://www.w3.org/Graphics/SVG/1.1/DTD/svg11.dtd"><svg version="1.1" id="Layer_1" xmlns="http://www.w3.org/2000/svg" xmlns:xlink="http://www.w3.org/1999/xlink" x="0px" y="0px" width="179.844px" height="214.084px" viewBox="0 0 179.844 214.084" style="enable-background:new 0 0 179.844 214.084;" xml:space="preserve"><path d="M89.922,214.084c-27.842-10.87-50.166-25.888-65.742-46.738C7.995,145.681,0,117.751,0,78.872l0,0V0h179.844v78.872l0,0	c0,38.879-7.994,66.809-24.18,88.474C140.088,188.196,117.764,203.214,89.922,214.084L89.922,214.084z"/><path style="fill:#CD3529;" d="M89.922,207.91c-12.5-5.003-23.907-10.862-34.016-17.911l0,0h68.031l0,0	C113.829,197.048,102.422,202.907,89.922,207.91L89.922,207.91z M29.421,164.577c-5.34-7.215-9.863-15.257-13.478-24.266l0,0	h147.958l0,0c-3.615,9.009-8.138,17.051-13.478,24.266l0,0H29.421L29.421,164.577z M8.178,112	c-1.231-7.386-2.014-15.27-2.326-23.689l0,0h168.14l0,0c-0.312,8.419-1.094,16.303-2.326,23.689l0,0H8.178L8.178,112z M92.869,33.074h81.282v27.864H92.869V33.074L92.869,33.074z M5.693,5.71h81.466v76.913H5.693V5.71L5.693,5.71z"/><path style="fill:#FFFFFF;" d="M59.978,79.157c-1.974-0.629-4.39-6.014-4.296-8.603l0,0v-0.377l0,0	c-2.577-4.377-5.195-7.889-7.005-10.116l0,0l0.011,11.386l0,0c-0.14,3.834-1.073,6.28-3.839,7.61	c2.26,0.322,5.723,0.788,7.785-2.289C53.203,78.105,57.101,80.159,59.978,79.157L59.978,79.157z M66.981,53.775	c0.709,1.596,1.183,4.386-3.194,7.906c5.325-0.7,7.753-2.674,7.977-5.261c0.418-4.811-1.179-4.846-0.075-11.32	c0.376-2.207,1.733-3.733,4.13-5.662c-4.987,0.749-8.008,3.217-9.58,8.703l0,0l-10.543-0.035l-0.004-18.719l3.309-0.003l0,0	c-0.307-2.067-0.914-4.092-2.174-6.348l0,0l-5.061-0.002l0,0c-2.549-0.011-3.677-0.997-6.144-0.11	c1.791,1.048,3.085,2.444,3.084,4.011l0,0l0.003,21.555l0,0c2.357,1.21,4.813,3.161,6.739,5.283l0,0L66.981,53.775L66.981,53.775z M71.493,29.375l5.396-0.005l0,0c0,3.004,3.463,8.999,8.627,9.158c-2.603-3.74-3.64-6.345-2.482-11.461	c2.566-6.684,0.561-12.01-2.453-12.751c0.568,1.872,0.945,7.328-2.166,8.731l0,0l-10.023-0.004l0,0	C69.356,26.257,70.773,28.851,71.493,29.375L71.493,29.375z M47.095,67.763C25.788,75.4,16.292,65.026,10.458,49.621	c-0.842-1.973-0.884-3.301-3.206-4.79c2.604-0.835,3.051-2.427,3.458-4.069c1.435-10.411,7.918-19.247,18.051-22.444l0,0v5.135l0,0	c-7.178,3.595-11.05,13.143-10.776,22.035c0.311,10.077,9.725,20.542,19.241,20.307c3.136-0.077,6.689-0.445,9.878-2.821l0,0	L47.095,67.763L47.095,67.763z M38.997,16.648c1.553-0.099,3.211-0.16,4.988-0.191c-0.406,2.273-1.198,11.081,2.346,14.052	c-0.674,1.449-2.521,3.067-4.293,3.026c-1.201-0.028-1.568-0.582-2.189-1.464c-0.298-0.423-0.581-0.856-0.851-1.294l0,0V16.648	L38.997,16.648z M37.354,53.159l-0.021,10.97l0,0c-0.711,0.078-1.549,0.082-2.604-0.124c-1.131-0.22-2.766-0.649-4.374-1.654l0,0	l0.005-45.828l0,0c0-2.819-2.117-5.366-5.701-6.795c3.479-2.252,10.137-0.169,11.223,2.355c3.498-2.246,7.638-3.328,11.745-3.286	c7.842,0.079,15.568,4.253,18.495,12.236c1.544,4.213,2.303,8.524,5.43,10.113c-0.843,0.452-1.503,1.031-2.086,1.785	c-1.61,2.085-2.623,5.256-5.243,9.124c-1.042,1.539-2.308,3.045-3.852,4.485l0,0h-3.096V42.84l0,0	c2.189-3.543,3.379-7.96,3.327-12.263c-0.076-6.26-4.94-15.87-16.083-16.505c-3.189-0.181-5.923,0.792-7.164,1.583l0,0v31.738l0,0	c6.51,0,11.238,2.312,14.751,5.395c3.366,2.953,5.725,6.764,7.806,10.683c2.985,5.625,5.03,10.538,8.675,10.426	c2.733-0.131,4.006-1.444,5.191-3.158c1.214,5.614-3.101,7.963-5.773,8.016c-2.844,0.058-6.225-2.348-8.419-5.482	c-3.272-4.673-6.456-11.315-11.009-15.683C43.482,52.704,39.896,53.152,37.354,53.159L37.354,53.159z M37.979,71.765	c0.751,3.038,2.228,6.657,4.817,8.276c-6.713-0.071-7.21-2.398-8.166-3.433c-1.613,1.613-4.075,4.248-9.182,3.743	c2.878-2.679,4.126-5.357,4.62-8.661C32.575,72.075,35.641,72.175,37.979,71.765L37.979,71.765z"/></svg>