<?xml version="1.0" encoding="UTF-8" standalone="no"?>
<!-- Created with Inkscape (http://www.inkscape.org/) -->

<svg
   xmlns:dc="http://purl.org/dc/elements/1.1/"
   xmlns:cc="http://creativecommons.org/ns#"
   xmlns:rdf="http://www.w3.org/1999/02/22-rdf-syntax-ns#"
   xmlns:svg="http://www.w3.org/2000/svg"
   xmlns="http://www.w3.org/2000/svg"
   xmlns:sodipodi="http://sodipodi.sourceforge.net/DTD/sodipodi-0.dtd"
   xmlns:inkscape="http://www.inkscape.org/namespaces/inkscape"
   version="1.1"
   width="305"
   height="350"
   viewBox="0 0 305 350"
   id="svg2"
   xml:space="preserve"
   inkscape:version="0.48.1 "
   sodipodi:docname="fluminense_fc_logo.svg"><sodipodi:namedview
     pagecolor="#ffffff"
     bordercolor="#666666"
     borderopacity="1"
     objecttolerance="10"
     gridtolerance="10"
     guidetolerance="10"
     inkscape:pageopacity="0"
     inkscape:pageshadow="2"
     inkscape:window-width="1366"
     inkscape:window-height="706"
     id="namedview49"
     showgrid="false"
     fit-margin-top="0"
     fit-margin-left="0"
     fit-margin-right="0"
     fit-margin-bottom="0"
     inkscape:zoom="0.94627405"
     inkscape:cx="126.24333"
     inkscape:cy="179.56292"
     inkscape:window-x="-8"
     inkscape:window-y="-8"
     inkscape:window-maximized="1"
     inkscape:current-layer="g12"
     showguides="true"
     inkscape:guide-bbox="true" /><metadata
     id="metadata8"><rdf:RDF><cc:Work
         rdf:about=""><dc:format>image/svg+xml</dc:format><dc:type
           rdf:resource="http://purl.org/dc/dcmitype/StillImage" /></cc:Work></rdf:RDF></metadata><defs
     id="defs6" /><g
     transform="matrix(1.25,0,0,-1.25,-0.6528325,350.81972)"
     id="g10"><g
       transform="scale(0.1,0.1)"
       id="g12"><g
         id="g3081"
         transform="matrix(3.0897803,0,0,3.0897803,-59.135072,-459.01606)"><path
           style="fill:#ffffff;fill-opacity:1;fill-rule:evenodd;stroke:none"
           id="path14"
           inkscape:connector-curvature="0"
           d="m 419.57716,1037.8132 c -96.883,-120.14803 -222.027,-167.02703 -374.441404,-137.35103 -3.5313,-393.078 177.773404,-578.785 374.461404,-728.34784 194.621,147.59384 379.218,336.42584 374.117,727.98484 -158.27,-29.395 -276.379,16.222 -374.137,137.71403" /><path
           style="fill:none;stroke:#8e0927;stroke-width:6.70468998;stroke-linecap:butt;stroke-linejoin:miter;stroke-miterlimit:2.61313009;stroke-opacity:1;stroke-dasharray:none"
           id="path16"
           inkscape:connector-curvature="0"
           d="m 419.57716,1037.8132 c -96.883,-120.14803 -222.027,-167.02703 -374.441404,-137.35103 -3.5313,-393.078 177.773404,-578.785 374.461404,-728.34784 194.621,147.59384 379.218,336.42584 374.117,727.98484 -158.27,-29.395 -276.379,16.222 -374.137,137.71403 z" /><path
           style="fill:#00613c;fill-opacity:1;fill-rule:evenodd;stroke:none"
           id="path18"
           inkscape:connector-curvature="0"
           d="m 710.37416,596.92317 c -42.887,-117.578 -127.621,-239.809 -290.957,-372.7112 -161.457,132.2152 -246.141,255.3672 -289.492,372.7112 l 580.449,0" /><path
           style="fill:#870a28;fill-opacity:1;fill-rule:evenodd;stroke:none"
           id="path20"
           inkscape:connector-curvature="0"
           d="m 87.218156,852.18117 c 198.570004,-2.086 255.660004,37.98 332.214004,122.976 82.629,-82.504 137.407,-125.547 332.286,-122.984 -0.754,-78.106 -8.446,-156.309 -34.852,-236.543 l -593.523,0 c -27.164004,81.215 -35.246004,159.699 -36.125004,236.551" /><path
           style="fill:#ffffff;fill-opacity:1;fill-rule:evenodd;stroke:none"
           id="path22"
           inkscape:connector-curvature="0"
           d="m 326.18616,835.02817 c 6.641,-2.086 19.918,2.403 27.145,-11.59 3.594,-6.968 9.992,-14.683 12.141,-29.527 l 41.117,6.395 c -4.621,16.179 -1.422,16.55 -5.485,29.238 25.426,2.437 50.09,7.918 73.09,20.098 11.266,-9.446 21.317,-17.36 34.719,-22.84 -50.984,-28.536 -45.793,-51.641 -42.027,-66.696 l 20.101,-23.754 c -0.816,49.856 31.305,81.68 71.266,91.364 -27.336,14.769 -53.68,31.519 -78.574,51.16 -45.473,-15.996 -101.622,-34.059 -125.172,-16.442 l -28.321,-27.406" /><path
           style="fill:#ffffff;fill-opacity:1;fill-rule:evenodd;stroke:none"
           id="path24"
           inkscape:connector-curvature="0"
           d="m 285.15516,718.81317 c -0.148,-1.558 34.418,17.446 42.906,13.293 l -3.195,19.629 c 40.359,18.074 81.512,25.731 137.391,16.43 0.379,8.824 0.074,15.367 4.105,24.191 -18.562,3.348 -37.125,3.957 -56.14,5.477 -13.235,-1.219 -32.731,-3.254 -47.012,-7.758 -14.285,-4.508 -29.75,-10.582 -42.906,-11.867 -13.161,-1.285 -19.477,2.887 -31.497,5.934 -9.886,-11.411 -15.671,-16.434 -30.582,-29.668 12.067,2.769 30.243,-1.454 27.555,-29.211 l -0.625,-6.45" /><path
           style="fill:#ffffff;fill-opacity:1;fill-rule:evenodd;stroke:none"
           id="path26"
           inkscape:connector-curvature="0"
           d="m 502.19416,786.08317 c 39.324,-14.609 40.266,-0.856 57.176,0.476 l 10.008,-19.535 c -51.871,-15.398 -76.16,-77.183 -38.117,-112.449 -37.075,-7.055 -59.079,39.16 -29.477,95.438 1.707,3.253 -0.219,8.453 1.84,11.769 l -10.961,2.86 c 1.906,8.578 5.719,13.343 9.531,21.441" /><path
           style="fill:#ffffff;fill-opacity:1;fill-rule:evenodd;stroke:none"
           id="path28"
           inkscape:connector-curvature="0"
           d="m 525.06516,729.38417 c -4.289,-6.672 -8.101,-15.723 -8.578,-25.731 20.231,-6.965 31.742,-18.301 39.555,-45.226 0.234,-0.821 0.629,-1.602 0.949,-2.426 10.242,-26.328 60.828,-27 69.566,-18.102 2.223,10.164 -0.796,16.516 -10.003,19.059 -10.645,-0.082 -9.375,-10.719 -19.063,-8.102 -11.91,4.196 -18.453,9.371 -21.328,19.371 -4.289,14.93 4.152,31.02 27.047,36.379 l -11.438,15.723 c -22.632,-1.191 -45.347,-1.191 -66.707,9.055" /><path
           style="fill:#ffffff;fill-opacity:1;fill-rule:evenodd;stroke:none"
           id="path30"
           inkscape:connector-curvature="0"
           d="m 494.09316,738.43817 -5.243,1.426 -0.953,-4.762 -2.383,-0.953 -6.667,8.102 c -22.555,2.695 -45.11,2.855 -67.661,0.476 l -1.433,-26.211 c 26.687,2.067 52.574,0.958 76.719,-3.332 1.746,8.895 3.492,17.309 7.621,25.254" /><path
           style="fill:#ffffff;fill-opacity:1;fill-rule:evenodd;stroke:none"
           id="path32"
           inkscape:connector-curvature="0"
           d="m 363.66316,760.40717 -1.824,-131.457 38.343,1.828 1.825,20.996 28.297,1.825 4.566,-4.563 c -20.086,-55.383 -8.523,-88.852 34.687,-100.418 l 0.915,5.477 c -28.606,20.082 -32.864,70.902 4.566,97.679 l -11.867,23.735 c -22.219,5.898 -43.52,-10.157 -61.164,1.824 l 6.386,90.375 c -13.996,-1.215 -28.906,-0.606 -44.73,-7.301" /><path
           style="fill:#ffffff;fill-opacity:1;fill-rule:evenodd;stroke:none"
           id="path34"
           inkscape:connector-curvature="0"
           d="m 315.28416,512.10217 -4.566,-34.691 c 51.922,-11.152 108.754,-13.82 175.273,9.129 33.777,11.566 66.641,24.039 101.328,18.258 -6.695,10.043 25.867,71.207 53.863,35.601 l 15.52,-0.914 c -7,14 -6.695,21.606 14.605,33.781 -23.433,2.739 -40.472,0.911 -56.601,13.692 -71.055,-66.266 -179.992,-99.887 -299.422,-74.856" /><path
           style="fill:#ffffff;fill-opacity:1;fill-rule:evenodd;stroke:none"
           id="path36"
           inkscape:connector-curvature="0"
           d="m 458.60416,627.12217 c -5.933,-10.34 -8.668,-16.574 -7.304,-26.93 14.91,-1.367 27.996,-8.668 33.777,-19.625 l 0.457,48.383 -26.93,-1.828" /><path
           style="fill:#ffffff;fill-opacity:1;fill-rule:evenodd;stroke:none"
           id="path38"
           inkscape:connector-curvature="0"
           d="m 362.85816,598.23117 -4.215,-89.781 c 14.071,-2.133 25.024,-2.586 37.887,-2.285 l 2.738,92.203 -36.41,-0.137" /><path
           style="fill:#ffffff;fill-opacity:1;fill-rule:evenodd;stroke:none"
           id="path40"
           inkscape:connector-curvature="0"
           d="m 357.73316,467.82917 c 16.02,-2.023 29.778,-1.191 41.992,-1.789 3.321,-54.555 23.918,-76.563 69.559,-91.145 9.156,-2.925 20.398,-5.957 27.066,-10.226 -108.941,-10.192 -108.648,59.949 -157.332,6.39 l -13.238,18.715 c 16.371,15.395 25.961,45.563 31.953,78.055" /><path
           style="fill:#ffffff;fill-opacity:1;fill-rule:evenodd;stroke:none"
           id="path42"
           inkscape:connector-curvature="0"
           d="m 358.45616,734.87217 c -66.039,-6.445 -126.195,-43.762 -177.762,-126.203 -4.015,-5.77 -12.074,-14.766 -13.574,-16.453 6.746,-1.168 11.652,-6.391 14.762,-9.332 26.683,-48.395 56.031,-76.442 86.336,-92.27 4.296,11.305 5.203,22.613 6.785,33.922 -18.77,8.367 -59.481,45.238 -55.637,85.492 19.453,51.34 81.648,95.895 139.09,94.988 l 0,29.856" /><path
           style="fill:#ffffff;fill-opacity:1;fill-rule:evenodd;stroke:none"
           id="path44"
           inkscape:connector-curvature="0"
           d="m 287.31516,677.48917 c 11.563,10.09 24.098,17.262 38.575,18.613 l 1.359,-75.222 c 31.207,7.465 65.699,8.144 96.906,6.094 l -2.598,-24.411 c -31.886,-0.679 -67.171,-0.679 -99.738,-11.535 -4.972,-48.851 -9.273,-95.668 -23.746,-142.484 23.75,-7.91 35.734,-18.317 41.387,-29.852 l -10.856,-20.355 c -15.152,20.918 -30.082,32.004 -58.351,27.137 l -13.567,12.214 c 29.852,57.223 26.555,168.336 30.629,239.801" /><path
           style="fill:#ffffff;fill-opacity:1;fill-rule:evenodd;stroke:none"
           id="path46"
           inkscape:connector-curvature="0"
           d="m 342.17516,371.19617 c 3.054,1.02 12.211,-16.285 27.82,-20.695 0.758,-0.719 10.859,0.367 5.766,2.375 -5.094,2.008 -14.614,14.945 -20.356,30.191 0,0 -16.281,-12.886 -13.23,-11.871" /></g></g></g></svg>