<?xml version="1.0" encoding="iso-8859-1"?><!-- Generator: Adobe Illustrator 16.0.0, SVG Export Plug-In . SVG Version: 6.00 Build 0) --><!DOCTYPE svg PUBLIC "-//W3C//DTD SVG 1.1//EN" "http://www.w3.org/Graphics/SVG/1.1/DTD/svg11.dtd"><svg version="1.1" id="Layer_1" xmlns="http://www.w3.org/2000/svg" xmlns:xlink="http://www.w3.org/1999/xlink" x="0px" y="0px" width="212.989px" height="212.989px" viewBox="0 0 212.989 212.989" style="enable-background:new 0 0 212.989 212.989;" xml:space="preserve"><path d="M106.495,0c58.655,0,106.495,47.839,106.495,106.495c0,58.655-47.839,106.495-106.495,106.495S0,165.15,0,106.495	C0,47.839,47.839,0,106.495,0L106.495,0z"/><path style="fill:#FFFFFF;" d="M106.495,3.589c56.678,0,102.905,46.227,102.905,102.905c0,56.678-46.227,102.905-102.905,102.905	c-56.678,0-102.905-46.227-102.905-102.905C3.59,49.816,49.817,3.589,106.495,3.589L106.495,3.589z"/><path d="M184.577,51.226c11.103,15.629,17.643,34.71,17.643,55.269s-6.54,39.639-17.643,55.269	c-17.799-17.629-46.194-29.075-78.083-29.075s-60.283,11.446-78.082,29.075c-11.104-15.63-17.643-34.71-17.643-55.269	s6.54-39.64,17.643-55.269c17.799,17.629,46.193,29.075,78.082,29.075S166.778,68.854,184.577,51.226L184.577,51.226z"/><path style="fill:#2566AF;" d="M106.495,202.22c9.409,0,18.506-1.369,27.105-3.919c-5.08-5.505-15.333-9.283-27.11-9.283	c-11.776,0-22.028,3.777-27.107,9.28C87.983,200.85,97.083,202.22,106.495,202.22L106.495,202.22z M139.521,196.329	c16.368-6.05,30.655-16.459,41.439-29.805c-9.239-9.365-21.758-16.925-36.322-21.793c-4.154,18.043-11.148,32.72-19.756,41.465	C131.232,188.554,136.365,192.092,139.521,196.329L139.521,196.329z M68.349,144.717c-14.569,4.864-27.093,12.422-36.338,21.784	c10.787,13.357,25.082,23.774,41.459,29.828c3.155-4.237,8.29-7.775,14.64-10.133C79.499,177.449,72.502,162.767,68.349,144.717	L68.349,144.717z M106.495,10.769c9.409,0,18.506,1.369,27.105,3.92c-5.08,5.505-15.333,9.283-27.11,9.283	c-11.776,0-22.028-3.777-27.107-9.28C87.983,12.14,97.083,10.769,106.495,10.769L106.495,10.769z M139.521,16.66	c16.368,6.051,30.655,16.459,41.439,29.805c-9.239,9.364-21.758,16.925-36.322,21.793c-4.154-18.043-11.148-32.72-19.756-41.465	C131.232,24.435,136.365,20.897,139.521,16.66L139.521,16.66z M68.349,68.272C53.78,63.407,41.255,55.85,32.01,46.488	C42.797,33.132,57.092,22.714,73.469,16.66c3.155,4.237,8.29,7.774,14.64,10.133C79.499,35.541,72.502,50.222,68.349,68.272	L68.349,68.272z"/><path style="stroke:#000000;stroke-width:0.4786;stroke-miterlimit:1;" d="M83.432,146.645h9.357v1.923h-7.144v4.467h5.339v1.933	h-5.339v7.103h-2.213V146.645L83.432,146.645z M97.256,154.883v5.317h2.834l0,0c1.233,0,2.132-0.209,2.701-0.633	c0.566-0.423,0.851-1.098,0.851-2.026c0-0.858-0.3-1.515-0.898-1.972c-0.598-0.458-1.467-0.686-2.611-0.686l0,0H97.256	L97.256,154.883z M97.256,148.474v4.6h2.898l0,0c1.005,0,1.774-0.201,2.306-0.605c0.534-0.407,0.8-0.992,0.8-1.76	s-0.276-1.335-0.832-1.693c-0.554-0.36-1.425-0.541-2.617-0.541l0,0H97.256L97.256,148.474z M95.065,146.645h4.81l0,0	c1.862,0,3.265,0.325,4.207,0.976c0.941,0.652,1.412,1.625,1.412,2.919c0,0.83-0.196,1.526-0.592,2.087	c-0.394,0.561-1,1.008-1.817,1.34c0.929,0.333,1.627,0.825,2.104,1.476c0.474,0.652,0.71,1.447,0.71,2.388	c0,1.407-0.484,2.464-1.454,3.175c-0.968,0.71-2.42,1.063-4.35,1.063l0,0h-5.029V146.645L95.065,146.645z M111.144,148.514v5.071	h2.431l0,0c1.247,0,2.13-0.197,2.648-0.593c0.518-0.394,0.779-1.055,0.779-1.984c0-0.893-0.266-1.534-0.8-1.917	c-0.532-0.385-1.428-0.577-2.688-0.577l0,0H111.144L111.144,148.514z M108.932,146.645h4.935l0,0c1.819,0,3.175,0.359,4.061,1.08	c0.885,0.72,1.33,1.821,1.33,3.305c0,1.441-0.431,2.542-1.292,3.302c-0.864,0.764-2.101,1.144-3.714,1.144l0,0h-3.106v6.595h-2.212	V146.645L108.932,146.645z M125.125,148.493l-2.172,7.533h4.438l-2.09-7.533H125.125L125.125,148.493z M123.721,146.645h3.045	l4.704,15.425h-2.273l-1.215-4.164h-5.558l-1.186,4.164h-2.23L123.721,146.645L123.721,146.645z M87.459,50.59h1.483v14.076h2.502	v1.744h-7.107v-1.744h2.533V52.913l-2.796,0.231v-1.397l0,0c0.567-0.122,1.143-0.277,1.73-0.474	C86.389,51.077,86.94,50.849,87.459,50.59L87.459,50.59z M96.003,65.635l0.904-1.674l0,0c0.422,0.267,0.866,0.482,1.337,0.644	c0.237,0.07,0.468,0.121,0.692,0.156c0.226,0.035,0.468,0.054,0.727,0.054c1.24,0,2.244-0.511,3.008-1.534	c0.385-0.527,0.683-1.141,0.894-1.84c0.209-0.7,0.314-1.482,0.314-2.344c-0.554,0.546-1.141,0.955-1.76,1.224	c-0.622,0.269-1.284,0.404-1.983,0.404c-1.375,0-2.511-0.468-3.412-1.405c-0.902-0.934-1.352-2.131-1.352-3.589	c0-1.526,0.479-2.762,1.439-3.706c0.961-0.942,2.212-1.413,3.754-1.413c1.779,0,3.143,0.619,4.09,1.854	c0.945,1.237,1.418,3.03,1.418,5.379c0,2.704-0.576,4.852-1.73,6.442c-1.151,1.59-2.712,2.386-4.682,2.386	c-0.737,0-1.416-0.088-2.034-0.269C97.007,66.227,96.466,65.968,96.003,65.635L96.003,65.635z M103.919,56.489	c0-0.625-0.083-1.18-0.247-1.661c-0.165-0.484-0.409-0.922-0.729-1.316c-0.604-0.729-1.397-1.092-2.376-1.092	c-0.877,0-1.606,0.309-2.188,0.926c-0.582,0.616-0.872,1.404-0.872,2.365c0,0.982,0.279,1.771,0.842,2.371	c0.56,0.6,1.292,0.898,2.195,0.898c0.716,0,1.377-0.221,1.985-0.662C103.143,57.877,103.605,57.266,103.919,56.489L103.919,56.489z M113.822,52.42c-1.087,0-1.916,0.525-2.491,1.577c-0.573,1.053-0.861,2.594-0.861,4.626c0,2.031,0.283,3.573,0.851,4.619	c0.567,1.047,1.401,1.572,2.502,1.572c1.1,0,1.932-0.519,2.498-1.56c0.562-1.041,0.845-2.586,0.845-4.631	c0-2.062-0.28-3.609-0.84-4.648C115.762,52.939,114.928,52.42,113.822,52.42L113.822,52.42z M113.822,50.59	c1.8,0,3.167,0.681,4.098,2.045c0.934,1.361,1.399,3.357,1.399,5.987c0,2.626-0.465,4.625-1.394,5.995	c-0.928,1.37-2.295,2.056-4.104,2.056c-1.786,0-3.151-0.686-4.096-2.056c-0.941-1.37-1.412-3.369-1.412-5.995	c0-2.63,0.468-4.626,1.405-5.987C110.652,51.271,112.022,50.59,113.822,50.59L113.822,50.59z M128.853,57.99	c0.939,0.314,1.642,0.818,2.113,1.504c0.231,0.336,0.407,0.713,0.524,1.136c0.119,0.42,0.179,0.888,0.179,1.407	c0,1.402-0.468,2.524-1.408,3.37c-0.939,0.844-2.198,1.267-3.775,1.267c-1.246,0-2.333-0.252-3.259-0.756	c-0.922-0.505-1.689-1.281-2.3-2.325l0,0l1.743-1.146l0,0c0.463,0.777,1.003,1.367,1.626,1.768c0.619,0.401,1.31,0.6,2.074,0.6	c0.961,0,1.72-0.252,2.282-0.756c0.56-0.506,0.84-1.206,0.84-2.104c0-0.996-0.369-1.73-1.109-2.207	c-0.74-0.476-1.889-0.716-3.452-0.716l0,0h-0.388h-0.252v-1.862l0.419,0.033l0,0c0.184,0,0.296,0,0.336,0	c1.354,0,2.363-0.218,3.025-0.654c0.661-0.436,0.993-1.09,0.993-1.961c0-0.684-0.24-1.225-0.721-1.618	c-0.479-0.396-1.149-0.592-2.013-0.592c-0.604,0-1.171,0.156-1.704,0.468c-0.533,0.312-1.02,0.781-1.461,1.402l0,0l-1.523-1.186l0,0	c0.582-0.805,1.292-1.418,2.134-1.841c0.84-0.42,1.773-0.629,2.796-0.629c1.423,0,2.545,0.355,3.369,1.062	c0.823,0.708,1.236,1.666,1.236,2.879c0,0.786-0.2,1.472-0.596,2.067C130.186,57.191,129.61,57.654,128.853,57.99L128.853,57.99z"/><path style="fill:#FFFFFF;" d="M168.565,111.302c0,3.91,0.906,6.879,2.71,8.895c1.81,2.022,4.103,3.03,6.885,3.03	c2.782,0,5.064-1.001,6.85-3.005c1.781-2.004,2.674-5.01,2.674-9.016c0-3.959-0.869-6.917-2.607-8.865	c-1.732-1.943-4.043-2.921-6.917-2.921c-2.877,0-5.196,0.983-6.952,2.957C169.446,104.35,168.565,107.325,168.565,111.302	L168.565,111.302z M161.378,111.538c0-3.519,0.524-6.475,1.575-8.865c0.791-1.762,1.858-3.337,3.222-4.737	c1.358-1.4,2.848-2.438,4.466-3.114c2.154-0.911,4.634-1.364,7.447-1.364c5.093,0,9.167,1.576,12.227,4.738	c3.053,3.157,4.58,7.55,4.58,13.181c0,5.576-1.514,9.939-4.55,13.089c-3.03,3.156-7.085,4.731-12.161,4.731	c-5.141,0-9.227-1.569-12.256-4.707C162.893,121.356,161.378,117.035,161.378,111.538L161.378,111.538z M152.115,128.604V94.042	h6.976v34.562H152.115L152.115,128.604z M114.964,128.604V94.042h10.446l6.271,23.578l6.198-23.578h10.471v34.562h-6.487v-27.205	l-6.856,27.205h-6.723l-6.832-27.205v27.205H114.964L114.964,128.604z M85.811,128.604V94.042h25.624v5.848H92.787v7.664h17.35	v5.824h-17.35v9.402h19.311v5.824H85.811L85.811,128.604z M60.899,108.659h5.167l0,0c3.343,0,5.437-0.139,6.27-0.422	c0.833-0.284,1.485-0.772,1.955-1.46c0.471-0.694,0.706-1.558,0.706-2.595c0-1.165-0.308-2.1-0.929-2.818	c-0.622-0.712-1.497-1.165-2.631-1.352c-0.561-0.079-2.263-0.121-5.087-0.121l0,0h-5.45V108.659L60.899,108.659z M53.923,128.604	V94.042h14.689l0,0c3.693,0,6.373,0.314,8.051,0.936c1.672,0.622,3.011,1.727,4.019,3.313c1.001,1.587,1.508,3.398,1.508,5.443	c0,2.595-0.766,4.731-2.287,6.421c-1.527,1.69-3.808,2.758-6.837,3.198c1.509,0.875,2.752,1.847,3.735,2.896	c0.984,1.056,2.306,2.921,3.971,5.613l0,0l4.218,6.741h-8.34l-5.045-7.52l0,0c-1.792-2.685-3.017-4.381-3.681-5.081	c-0.659-0.7-1.358-1.177-2.094-1.437c-0.743-0.259-1.914-0.393-3.513-0.393l0,0h-1.418v14.43H53.923L53.923,128.604z M35.373,115.9	v-5.823h15.039v13.765l0,0c-1.46,1.413-3.579,2.662-6.349,3.736c-2.775,1.074-5.588,1.617-8.43,1.617	c-3.615,0-6.765-0.761-9.451-2.276c-2.692-1.521-4.708-3.687-6.059-6.505c-1.352-2.824-2.028-5.89-2.028-9.209	c0-3.597,0.755-6.795,2.264-9.596c1.508-2.794,3.717-4.942,6.62-6.433c2.221-1.146,4.979-1.721,8.28-1.721	c4.291,0,7.641,0.9,10.054,2.698c2.408,1.798,3.959,4.285,4.653,7.459l0,0l-6.928,1.297l0,0c-0.489-1.696-1.406-3.036-2.746-4.02	c-1.346-0.984-3.024-1.472-5.034-1.472c-3.053,0-5.474,0.965-7.278,2.902c-1.798,1.932-2.697,4.798-2.697,8.601	c0,4.104,0.911,7.181,2.734,9.233c1.822,2.045,4.212,3.071,7.169,3.071c1.46,0,2.927-0.283,4.394-0.857	c1.472-0.573,2.733-1.267,3.784-2.088l0,0V115.9H35.373L35.373,115.9z M90.877,90.325h5.639l2.457-3.294l2.457,3.294h5.639	l-4.629-6.532h-6.933L90.877,90.325L90.877,90.325z"/></svg>