<?xml version="1.0" encoding="utf-8"?>
<!-- Generator: Adobe Illustrator 16.0.0, SVG Export Plug-In . SVG Version: 6.00 Build 0)  -->
<!DOCTYPE svg PUBLIC "-//W3C//DTD SVG 1.1//EN" "http://www.w3.org/Graphics/SVG/1.1/DTD/svg11.dtd">
<svg version="1.1"
	 id="svg2" xmlns:dc="http://purl.org/dc/elements/1.1/" xmlns:cc="http://creativecommons.org/ns#" xmlns:sodipodi="http://sodipodi.sourceforge.net/DTD/sodipodi-0.dtd" xmlns:svg="http://www.w3.org/2000/svg" xmlns:inkscape="http://www.inkscape.org/namespaces/inkscape" xmlns:rdf="http://www.w3.org/1999/02/22-rdf-syntax-ns#" sodipodi:version="0.32" inkscape:output_extension="org.inkscape.output.svg.inkscape" inkscape:version="0.46" sodipodi:docname="novo-escudo.svg"
	 xmlns="http://www.w3.org/2000/svg" xmlns:xlink="http://www.w3.org/1999/xlink" x="0px" y="0px" width="1200px" height="1200px"
	 viewBox="0 0 1200 1200" enable-background="new 0 0 1200 1200" xml:space="preserve">
<defs>
	
	
		<inkscape:perspective  inkscape:vp_x="0 : 526.18109 : 1" id="perspective10" sodipodi:type="inkscape:persp3d" inkscape:vp_y="0 : 1000 : 0" inkscape:vp_z="744.09448 : 526.18109 : 1" inkscape:persp3d-origin="372.04724 : 350.78739 : 1">
		</inkscape:perspective>
	
		<inkscape:perspective  inkscape:vp_x="0 : 526.18109 : 1" id="perspective2410" sodipodi:type="inkscape:persp3d" inkscape:vp_y="0 : 1000 : 0" inkscape:vp_z="744.09448 : 526.18109 : 1" inkscape:persp3d-origin="372.04724 : 350.78739 : 1">
		</inkscape:perspective>
</defs>
<sodipodi:namedview  id="base" showguides="true" showgrid="false" pagecolor="#ffffff" bordercolor="#666666" inkscape:cy="590.29421" borderopacity="1.0" inkscape:cx="575.0953" inkscape:zoom="0.1726111" inkscape:window-height="753" inkscape:pageshadow="2" inkscape:window-y="-4" inkscape:current-layer="layer1" inkscape:window-width="1280" inkscape:document-units="px" inkscape:guide-bbox="true" inkscape:window-x="-4" inkscape:pageopacity="0.0">
	</sodipodi:namedview>
<g id="layer1" inkscape:label="Camada 1" inkscape:groupmode="layer">
	<g id="g3460">
		<g id="g3313">
			
				<path id="path3294" sodipodi:ry="419.44708" sodipodi:type="arc" sodipodi:rx="419.44708" sodipodi:cy="682.94574" sodipodi:cx="-1224.0469" fill="#FFFFFF" stroke="#E5050F" stroke-width="12" d="
				M1104.19,579.912c0,271.737-220.287,492.023-492.024,492.023S120.142,851.649,120.142,579.912l0,0
				c0-271.738,220.287-492.024,492.024-492.024S1104.19,308.174,1104.19,579.912z"/>
			<g id="g3296" transform="translate(1259.98, 3.93111e-07)">
				
					<path id="path3278" sodipodi:ry="419.44708" sodipodi:type="arc" sodipodi:rx="419.44708" sodipodi:cy="682.94574" sodipodi:cx="-1224.0469" fill="#FFFFFF" stroke="#E5050F" stroke-width="12" d="
					M-252.893,579.301c0,216.725-175.689,392.414-392.414,392.414s-392.415-175.689-392.415-392.414l0,0
					c0-216.725,175.69-392.415,392.415-392.415S-252.893,362.576-252.893,579.301z"/>
				
					<path id="path2416" sodipodi:ry="484.5752" sodipodi:type="arc" sodipodi:rx="484.5752" sodipodi:cy="778.63025" sodipodi:cx="385.25232" fill="#E5050F" d="
					M-269.014,579.14c0.03,208.002-168.563,376.646-376.565,376.676s-376.646-168.563-376.676-376.565c0-0.036,0-0.073,0-0.11
					c-0.031-208.002,168.563-376.646,376.564-376.676c208.002-0.03,376.646,168.563,376.677,376.565
					C-269.014,579.065-269.014,579.103-269.014,579.14z"/>
				<g id="g3246" transform="translate(220.968, 51.6129)">
					<path id="path3188" sodipodi:nodetypes="cccccccc" fill="#FFFFFF" d="M-714.435,431.77
						c2.224-17.331,9.476-32.986,18.073-48.192l24.899,11.245l22.489-30.522l22.49,6.827c0.332,40.145-0.758,81.507,14.057,109.237
						l-11.245,14.057C-649.147,470.352-676.276,447.384-714.435,431.77z"/>
					<path id="path3190" sodipodi:nodetypes="csccccc" fill="#FFFFFF" d="M-756.295,473.376
						c-49.754-0.195-13.695-58.454-6.423-80.696c6.532-19.98-3.355-60.301-41.503-74.603v-51.152
						c75.118,21.773,83.5,71.845,126.728,48.848v25.346C-744.903,410.241-715.379,472.979-756.295,473.376z"/>
					<path id="path3192" sodipodi:nodetypes="ccccc" fill="#FFFFFF" d="M-956.756,361.856
						c73.795-18.669,129.186-12.801,181.106-2.305c7.465,21.782,0.978,36.588-5.991,51.152
						c-50.774-8.302-105.079-10.428-170.507,6.912C-963.201,400.933-964.131,382.225-956.756,361.856z"/>
					<path id="path3194" sodipodi:nodetypes="cccc" fill="#FFFFFF" d="M-913.044,317.998c-88.537,15.045-68.631,119.868,0,148.171
						v91.463c-194.461-56.129-159.322-267.64,0-289.024V317.998z"/>
					<path id="path3196" sodipodi:nodetypes="ccccc" fill="#FFFFFF" d="M-817.312,646.657c-26.344,3.566-53.74,2.925-81.707,0
						V417.998c27.235-2.77,54.472-3.706,81.707,0V646.657z"/>
					<path id="path3202" sodipodi:nodetypes="cccccc" fill="#FFFFFF" d="M-1185.605,532.632
						c47.368-22.912,57.836-73.189,126.829-123.78c1.979,23.458,4.659,46.354,14.635,63.414
						c-29.248,42.249-27.272,82.355,16.463,131.098c-10.176,23.333-22.557,40.053-35.976,53.659
						C-1125.169,620.411-1139.357,572.806-1185.605,532.632z"/>
					<path id="path3204" sodipodi:nodetypes="ccccc" fill="#FFFFFF" d="M-965.403,701.51c17.548-19.38,22.42-33.689,29.905-49.045
						c46.576,9.8,100.816,13.794,182.22-2.791c8.508,17.049,5.264,33.03,2.393,49.045
						C-799.116,716.044-888.968,720.116-965.403,701.51z"/>
					<path id="path3206" sodipodi:nodetypes="ccccccssc" fill="#FFFFFF" d="M-1099.776,693.934l5.981,25.918l35.886,2.392
						c41.377,29.297,85.641,56.828,145.936,74.563v-50.64c-32.65-5.558-53.687-22.005-69.379-43.462
						c46.449-49.967,55.864-112.689,26.477-125.455c-39.094-16.981-56.55,23.004-78.88,59.086
						C-1048.318,659.868-1069.341,683.316-1099.776,693.934z"/>
					<path id="path3208" sodipodi:nodetypes="cccccccccc" fill="#FFFFFF" d="M-817.054,265.581
						c0.187-38.723,29.875-34.033,43.89-20.085c-1.965-48.562-41.369-54.34-60.255-36.823c-5.598-9.195-12.835-16.209-24.363-21.945
						c-10.324,4.859-18.563,12.064-24.92,21.387c-17.832-16.279-58.458-12.258-60.256,36.637
						c15.024-12.966,43.332-17.547,43.332,21.015l0.186,74.132c26.536-1.98,53.96-2.185,82.479-0.199L-817.054,265.581z"/>
					<path id="path3216" sodipodi:nodetypes="cccccccccc" fill="#FFFFFF" d="M-816.971,798.564
						c0.187,38.723,29.876,34.033,43.89,20.085c-1.964,48.562-41.368,54.341-60.255,36.823
						c-5.598,9.195-12.835,16.209-24.362,21.944c-10.324-4.859-18.563-12.064-24.921-21.387
						c-17.832,16.279-58.458,12.258-60.255-36.637c15.023,12.966,43.331,17.547,43.331-21.015l0.187-74.133
						c26.535,1.98,53.959,2.185,82.479,0.199L-816.971,798.564z"/>
					<path id="path3218" sodipodi:nodetypes="ccccsc" fill="#FFFFFF" d="M-804.987,502.968v87.606
						c100.186,33.326,84.326,158.114,1.282,155.129v50.427c107.41-10.646,148.984-77.258,149.645-142.179
						C-653.311,579.553-712.111,526.886-804.987,502.968z"/>
					<path id="path3222" sodipodi:nodetypes="ccccc" fill="#FFFFFF" d="M-643.021,650.831c0.13-11.436,1.15-21.597-6.41-44.018
						l23.077-15.385l26.068,21.368C-610.49,628.169-626.033,639.982-643.021,650.831z"/>
				</g>
			</g>
		</g>
		
			<text transform="matrix(0.1271 -0.9919 0.9919 0.1271 194.1592 589.3384)" fill="#E5050F" font-family="'Arial-Black'" font-size="75.0134">S</text>
		
			<text transform="matrix(0.0916 -0.9958 0.9958 0.0916 201.4756 529.9609)" fill="#E5050F" font-family="'Arial-Black'" font-size="75.0134">.</text>
		
			<text transform="matrix(0.2859 -0.9582 0.9582 0.2859 213.0049 471.7715)" fill="#E5050F" font-family="'Arial-Black'" font-size="75.0134">C</text>
		
			<text transform="matrix(0.3638 -0.9315 0.9315 0.3638 233.4648 413.4829)" fill="#E5050F" font-family="'Arial-Black'" font-size="75.0134">.</text>
		
			<text transform="matrix(0.5604 -0.8282 0.8282 0.5604 255.6367 365.019)" fill="#E5050F" font-family="'Arial-Black'" font-size="75.0134">I</text>
		
			<text transform="matrix(0.6797 -0.7335 0.7335 0.6797 291.3691 314.2578)" fill="#E5050F" font-family="'Arial-Black'" font-size="75.0134">N</text>
		
			<text transform="matrix(0.8421 -0.5393 0.5393 0.8421 360.4541 247.2222)" fill="#E5050F" font-family="'Arial-Black'" font-size="75.0134">T</text>
		
			<text transform="matrix(0.9218 -0.3878 0.3878 0.9218 433.583 205.4785)" fill="#E5050F" font-family="'Arial-Black'" font-size="75.0134">E</text>
		
			<text transform="matrix(0.9825 -0.1862 0.1862 0.9825 511.3457 175.2295)" fill="#E5050F" font-family="'Arial-Black'" font-size="75.0134">R</text>
		<text transform="matrix(1 0.0027 -0.0027 1 603.3242 164.1426)" fill="#E5050F" font-family="'Arial-Black'" font-size="75.0134">N</text>
		
			<text transform="matrix(0.9694 0.2457 -0.2457 0.9694 702.6416 171.6621)" fill="#E5050F" font-family="'Arial-Black'" font-size="75.0134">A</text>
		
			<text transform="matrix(0.839 0.5442 -0.5442 0.839 788.1758 198.5576)" fill="#E5050F" font-family="'Arial-Black'" font-size="75.0134">C</text>
		
			<text transform="matrix(0.787 0.617 -0.617 0.787 865.5098 246.8545)" fill="#E5050F" font-family="'Arial-Black'" font-size="75.0134">I</text>
		
			<text transform="matrix(0.6864 0.7272 -0.7272 0.6864 910.0684 286.2451)" fill="#E5050F" font-family="'Arial-Black'" font-size="75.0134">O</text>
		
			<text transform="matrix(0.4774 0.8787 -0.8787 0.4774 970.2295 363.2637)" fill="#E5050F" font-family="'Arial-Black'" font-size="75.0134">N</text>
		
			<text transform="matrix(0.2386 0.9711 -0.9711 0.2386 1013.1514 453.4111)" fill="#E5050F" font-family="'Arial-Black'" font-size="75.0134">A</text>
		
			<text transform="matrix(0.0444 0.999 -0.999 0.0444 1030.5527 540.4922)" fill="#E5050F" font-family="'Arial-Black'" font-size="75.0134">L</text>
		
			<text transform="matrix(0.9678 0.2517 -0.2517 0.9678 459.0425 1025.5205)" fill="#E5050F" font-family="'Arial-Black'" font-size="75.0134">1</text>
		
			<text transform="matrix(0.9903 0.1391 -0.1391 0.9903 543.8169 1045.0039)" fill="#E5050F" font-family="'Arial-Black'" font-size="75.0134">9</text>
		
			<text transform="matrix(0.9909 -0.1343 0.1343 0.9909 634.2295 1051.8018)" fill="#E5050F" font-family="'Arial-Black'" font-size="75.0134">0</text>
		
			<text transform="matrix(0.9838 -0.1792 0.1792 0.9838 718.9053 1036.2305)" fill="#E5050F" font-family="'Arial-Black'" font-size="75.0134">9</text>
	</g>
</g>
</svg>
