<?xml version="1.0" encoding="iso-8859-1"?><!-- Generator: Adobe Illustrator 16.0.0, SVG Export Plug-In . SVG Version: 6.00 Build 0) --><!DOCTYPE svg PUBLIC "-//W3C//DTD SVG 1.1//EN" "http://www.w3.org/Graphics/SVG/1.1/DTD/svg11.dtd"><svg version="1.1" id="Layer_1" xmlns="http://www.w3.org/2000/svg" xmlns:xlink="http://www.w3.org/1999/xlink" x="0px" y="0px" width="192.756px" height="192.756px" viewBox="0 0 192.756 192.756" style="enable-background:new 0 0 192.756 192.756;" xml:space="preserve"><g><polygon style="fill-rule:evenodd;clip-rule:evenodd;fill:#FFFFFF;" points="0,0 192.756,0 192.756,192.756 0,192.756 0,0	"/><path style="fill-rule:evenodd;clip-rule:evenodd;fill:#FFFFFF;" d="M96.408,179.867c-24.646-21.156-67.657-13.252-80.91-33.248	c-19.995-30.455,1.628-52.079,1.628-76.491c0-6.045-1.628-21.39-10.23-29.062l13.95-27.899	c26.969,15.81,51.847,18.367,75.562-0.232c23.657,18.6,48.534,16.042,75.504,0.232l13.949,27.899	c-8.604,7.673-10.23,23.018-10.23,29.062c0,24.412,21.623,46.036,1.627,76.491C164.006,166.615,120.994,158.711,96.408,179.867	L96.408,179.867z"/><path style="fill-rule:evenodd;clip-rule:evenodd;" d="M178.914,70.128c0-6.859,1.924-20.183,9.133-26.612l1.875-1.672	L173.279,8.558l-3.029,1.775c-28.076,16.458-50.896,16.465-71.812,0.019L96.41,8.758l-2.029,1.591	c-20.966,16.444-43.804,16.439-71.875-0.016l-3.028-1.775L2.834,41.844l1.875,1.673c7.208,6.429,9.132,19.752,9.132,26.611	c0,7.716-2.325,15.218-4.787,23.161c-4.885,15.763-10.42,33.626,3.698,55.132c7.5,11.316,22.84,14.451,39.083,17.77	c15.227,3.111,30.972,6.328,42.433,16.168l2.142,1.838l2.141-1.842c11.432-9.838,27.168-13.055,42.387-16.166	c16.234-3.318,31.568-6.453,39.059-17.754c14.125-21.518,8.59-39.385,3.705-55.146C181.24,85.347,178.914,77.844,178.914,70.128	L178.914,70.128z M15.329,95.234c2.498-8.061,5.081-16.396,5.081-25.105c0-2.064-0.29-19.479-9.522-29.702	c1.587-3.175,9.142-18.283,11.363-22.727c28.092,15.487,52.407,15.254,74.155-0.702c18.052,13.275,37.901,15.659,60.235,7.176	L10.305,121.49c-0.017-0.494-0.025-0.984-0.025-1.475C10.28,111.527,12.767,103.5,15.329,95.234L15.329,95.234z M119.832,164.42	c-5.094,1.514-10.104,3.385-14.822,5.824V92.913l14.822-9.997V164.42L119.832,164.42z M89.2,170.982	c-4.711-2.58-9.747-4.545-14.88-6.139v-51.471l14.88-9.998V170.982L89.2,170.982z M28.286,152.883	c-2.535-1.193-4.774-2.594-6.67-4.266l6.67-4.555V152.883L28.286,152.883z M43.166,157.625v-23.328l15.345-10.229v36.797	c-1.807-0.383-3.598-0.748-5.36-1.109C49.694,159.051,46.353,158.363,43.166,157.625L43.166,157.625z M139.623,159.756	c-1.465,0.297-2.951,0.604-4.447,0.918V72.686l15.811-10.695v95.31C147.395,158.164,143.578,158.945,139.623,159.756	L139.623,159.756z M174.514,144.818c-2.066,3.117-5.033,5.471-8.646,7.365V52.226l13.584-8.674	c-6.865,10.302-7.104,24.71-7.104,26.577c0,8.71,2.582,17.045,5.08,25.105c2.562,8.264,5.049,16.29,5.049,24.778	C182.477,127.721,180.424,135.814,174.514,144.818L174.514,144.818z"/><path style="fill:none;stroke:#000000;stroke-width:2.6154;stroke-miterlimit:2.6131;" d="M49.792,38.683	c11.393,0,20.692,9.3,20.692,20.692c0,11.393-9.3,20.693-20.692,20.693s-20.692-9.3-20.692-20.693	C29.099,47.983,38.399,38.683,49.792,38.683 M39.562,41.008c1.395,2.557,1.859,5.812,1.162,9.998	c-3.72,1.86-2.093,5.115-2.557,8.137c-2.093,3.255-3.023,5.812-1.395,8.603c-0.465,1.861-1.163,4.185-0.931,6.51 M30.494,52.168	c2.325,1.396,5.115,2.325,7.44,3.488 M37.702,59.143c8.835,5.116,15.112,4.185,23.715,1.396 M60.021,41.938	c-1.627,3.255-2.092,6.742-0.465,10.695c-6.277,0.465-12.787,0.232-19.297-0.698 M50.257,38.218c0,2.557,0,4.65,0.232,7.208 M69.554,54.26c-3.72,1.396-7.208,0.93-10.229-1.395c3.254,1.162,2.558,4.417,1.86,7.672c1.86,5.115,0.698,7.44-1.163,9.764	c0.698,1.628,1.627,3.953,1.86,5.812 M59.556,69.837C51.651,71.93,43.514,71,36.772,67.745 M48.629,71.233	c0,2.79,0.464,5.812,1.162,8.835"/><path style="fill-rule:evenodd;clip-rule:evenodd;fill:#FFFFFF;" d="M26.015,124.734c-0.682-0.59-1.973-1.695-4.058-0.311	c-1.21,0.805-2.456,2.795-0.188,6.209c1.44,2.168,3.593,3.549,5.729,2.129c1.395-0.926,1.845-2.363,1.165-4.045l2.521-1.676	c1.238,2.959,0.741,5.93-2.285,7.939c-3.211,2.135-6.955,1.496-9.725-2.674c-2.803-4.219-1.795-7.99,1.314-10.057	c3.614-2.4,6.73-0.885,8.048,0.809L26.015,124.734L26.015,124.734z"/><polygon style="fill-rule:evenodd;clip-rule:evenodd;fill:#FFFFFF;" points="38.335,128.252 35.814,129.926 34.183,127.473	36.705,125.797 38.335,128.252	"/><path style="fill-rule:evenodd;clip-rule:evenodd;fill:#FFFFFF;" d="M39.421,114.057l0.034-0.021l4.667,3.781l-3.076,2.043	L39.421,114.057L39.421,114.057z M41.759,122.391l4.455-2.959l2.426,1.973l2.74-1.82l-12.272-9.244l-2.908,1.934l3.716,14.928	l2.656-1.764L41.759,122.391L41.759,122.391z"/><polygon style="fill-rule:evenodd;clip-rule:evenodd;fill:#FFFFFF;" points="55.481,116.859 52.959,118.535 51.329,116.08	53.851,114.404 55.481,116.859	"/><path style="fill-rule:evenodd;clip-rule:evenodd;fill:#FFFFFF;" d="M61.063,105.494l3.211-2.133	c0.908-0.604,2.084-0.803,2.787,0.256c0.815,1.227,0.467,2.234-0.76,3.049l-3.093,2.055L61.063,105.494L61.063,105.494z M62.172,112.414l5.11-3.395c2.471-1.643,2.847-2.498,3.09-3.629c0.226-1.047,0.026-2.223-0.611-3.18	c-0.793-1.193-1.961-2.113-3.809-1.686c0.337-0.588,0.988-1.723-0.163-3.453c-0.826-1.245-2.812-2.591-5.77-0.625l-5.867,3.896	L62.172,112.414L62.172,112.414z M57.958,100.82l2.891-1.92c1.143-0.76,2.05-0.926,2.709,0.064	c0.636,0.959,0.103,1.871-0.889,2.529l-2.958,1.965L57.958,100.82L57.958,100.82z"/><path style="fill-rule:evenodd;clip-rule:evenodd;fill:#FFFFFF;" d="M72.458,95.839l-2.144-3.228l3.143-2.088	c1.479-0.983,2.391-0.231,2.815,0.407c0.793,1.193,0.456,2.072-0.855,2.943L72.458,95.839L72.458,95.839z M74.477,104.238	l2.471-1.641l-3.138-4.725l2.605-1.73c1.866-1.24,2.391-0.668,3.485,0.979c0.827,1.244,1.341,1.799,1.889,2.26l2.791-1.854	l-0.212-0.32c-0.672,0.156-0.962-0.281-2.135-2.046c-1.497-2.252-2.28-2.265-3.562-2.043c0.925-1.196,0.838-2.786-0.044-4.114	c-0.692-1.042-2.855-3.022-6.066-0.889l-6.102,4.054L74.477,104.238L74.477,104.238z"/><path style="fill-rule:evenodd;clip-rule:evenodd;fill:#FFFFFF;" d="M85.346,83.545l0.033-0.022l4.668,3.78l-3.076,2.044	L85.346,83.545L85.346,83.545z M87.684,91.878l4.455-2.959l2.426,1.975l2.74-1.821l-12.272-9.244l-2.908,1.932l3.715,14.929	l2.656-1.765L87.684,91.878L87.684,91.878z"/><path style="fill-rule:evenodd;clip-rule:evenodd;fill:#FFFFFF;" d="M99.588,78.178l5.043-3.351l4.322,6.505l-1.68,1.117	l-1.258-1.345c-0.148,1.164-0.346,2.871-2.549,4.334c-2.908,1.932-6.932,1.601-9.746-2.635c-2.189-3.295-2.423-7.622,1.656-10.308	c3.699-2.457,6.758-1.025,7.998,0.55l-2.521,1.675c-0.312-0.471-2.176-1.414-3.958-0.23c-1.798,1.195-2.636,3.544-0.581,6.638	c2.189,3.295,4.558,2.957,6.273,1.818c0.553-0.369,2.258-1.816,1.16-4.6l-2.809,1.865L99.588,78.178L99.588,78.178z"/><path style="fill-rule:evenodd;clip-rule:evenodd;fill:#FFFFFF;" d="M110.057,67.127l0.033-0.022l4.668,3.78l-3.076,2.043	L110.057,67.127L110.057,67.127z M112.395,75.46l4.455-2.96l2.426,1.975l2.74-1.821l-12.271-9.244l-2.908,1.932l3.715,14.929	l2.656-1.765L112.395,75.46L112.395,75.46z"/><polygon style="fill-rule:evenodd;clip-rule:evenodd;fill:#FFFFFF;" points="123.141,54.509 125.494,52.946 133.514,65.015	130.992,66.69 120.348,61.356 120.314,61.379 126.033,69.985 123.68,71.549 115.66,59.479 118.316,57.714 128.691,62.937	128.725,62.915 123.141,54.509	"/><polygon style="fill-rule:evenodd;clip-rule:evenodd;fill:#FFFFFF;" points="141.229,59.889 138.707,61.564 132.107,51.629	128.459,54.053 127.041,51.918 136.857,45.396 138.275,47.531 134.629,49.955 141.229,59.889	"/><polygon style="fill-rule:evenodd;clip-rule:evenodd;fill:#FFFFFF;" points="148.861,54.819 146.338,56.494 138.32,44.424	140.842,42.749 148.861,54.819	"/><polygon style="fill-rule:evenodd;clip-rule:evenodd;fill:#FFFFFF;" points="150.727,36.182 153.078,34.618 161.098,46.688	158.576,48.363 147.934,43.029 147.9,43.051 153.617,51.658 151.264,53.221 143.246,41.152 145.9,39.387 156.277,44.609	156.311,44.587 150.727,36.182	"/><path style="fill-rule:evenodd;clip-rule:evenodd;fill:#FFFFFF;" d="M161.66,37.615c-2.244-3.379-0.887-5.492,0.475-6.397	c1.363-0.905,3.838-1.337,6.082,2.042c2.244,3.378,0.887,5.493-0.475,6.397C166.381,40.562,163.906,40.994,161.66,37.615	L161.66,37.615z M159.139,39.291c3.764,5.665,8.424,3.562,10.021,2.501s5.342-4.542,1.578-10.207s-8.424-3.562-10.021-2.501	C159.121,30.144,155.375,33.626,159.139,39.291L159.139,39.291z"/></g></svg>