<?xml version="1.0" encoding="iso-8859-1"?><!-- Generator: Adobe Illustrator 16.0.0, SVG Export Plug-In . SVG Version: 6.00 Build 0) --><!DOCTYPE svg PUBLIC "-//W3C//DTD SVG 1.1//EN" "http://www.w3.org/Graphics/SVG/1.1/DTD/svg11.dtd"><svg version="1.1" id="Layer_1" xmlns="http://www.w3.org/2000/svg" xmlns:xlink="http://www.w3.org/1999/xlink" x="0px" y="0px" width="508.632px" height="614.244px" viewBox="0 0 508.632 614.244" style="enable-background:new 0 0 508.632 614.244;" xml:space="preserve"><g><path style="fill:#FFFFFF;" d="M320.536,560.824c40.262-18.49,83.116-28.166,119.231-55.469	c33.353-24.539,55.987-61.172,60.998-102.299c1.901-21.254-0.517-43.199-3.628-64.107c-6.912-44.583-24.884-88.819-24.884-134.438	c1.557-35.944,11.062-61.864,26.093-95.386l-74.65-89.337c-23.327,5.355-44.928,10.54-68.945,10.54	c-28.512-0.865-52.531-5.875-79.834-14.861L254.18,7.693c-38.016,14.341-74.995,25.919-116.465,21.771	c-18.318-1.036-34.906-5.702-52.877-9.675l-74.822,89.337c10.54,23.847,19.352,44.583,23.672,69.984	c6.567,41.473-3.802,80.872-14.341,120.614c-9.331,48.383-21.427,96.594-1.036,144.114c16.586,31.623,35.597,53.223,65.835,72.404	c39.225,21.6,82.599,34.387,122.862,53.566c17.452,10.023,30.93,21.773,47.172,35.08	C277.854,585.188,293.061,572.748,320.536,560.824L320.536,560.824z"/><path d="M386.027,98.585l-11.06-6.74l-12.27,8.985l-3.629,2.766l3.629,14.167l13.309,51.151l10.021-7.43l5.185-3.802l-3.631-11.578	l18.837-14.17l10.366,6.567l15.727-11.752L386.027,98.585L386.027,98.585z M386.027,131.073L386.027,131.073l-2.765,2.071	l-6.912-21.771l9.677,6.22l9.678,6.221L386.027,131.073L386.027,131.073z"/><polygon points="362.698,93.919 363.218,93.575 366.499,71.801 362.698,74.394 355.441,79.923 357.343,98.065 362.698,93.919	"/><path d="M348.704,175.827c-1.383-1.728-2.422-2.938-3.284-3.976c-2.939-3.454-5.358-5.528-7.433-6.22	c-2.07-0.691-4.664-0.518-7.773,0.518c1.9-3.628,2.937-7.085,2.937-10.021c0-3.11-1.21-6.047-3.284-8.986	c-3.454-4.664-7.776-6.913-12.958-6.565c-3.284,0.171-6.914,1.38-11.061,3.628c-2.419,1.209-4.837,2.937-7.43,4.837l-18.663,13.997	l-8.468,6.221l8.468,11.404l26.093,34.735l2.937,3.975l14.344-10.887l-13.996-18.664l9.848-7.258	c2.419-1.901,4.667-2.938,6.567-2.938c1.901,0,3.802,0.866,5.529,2.593c0.691,0.865,2.247,2.592,4.666,5.703	c2.419,2.936,4.667,5.01,6.738,6.22l15.206-11.405l-1.38-1.727C354.405,181.529,351.984,179.801,348.704,175.827L348.704,175.827z M317.944,165.631L317.944,165.631c-0.519,1.9-2.419,3.975-5.358,6.22l-6.738,5.185l-3.974,2.939l-8.641-11.407l11.231-8.466	c0.519-0.347,0.865-0.691,1.383-0.865c2.074-1.554,4.146-2.246,5.702-2.418c2.074,0,3.803,0.864,5.185,2.592	C318.288,161.485,318.636,163.557,317.944,165.631L317.944,165.631z"/><path d="M241.913,206.412l-11.06-6.911l-15.724,11.922l16.934,65.317l9.851-7.43l5.183-3.801l-3.628-11.578l19.008-14.17	l10.195,6.567l7.084-5.355l8.639-6.394l-8.639-5.185L241.913,206.412L241.913,206.412z M241.913,238.899L241.913,238.899	l-2.766,2.074l-6.912-21.773l9.677,6.221l9.676,6.22L241.913,238.899L241.913,238.899z"/><polygon points="176.94,302.143 168.99,291.43 195.083,271.904 187.653,261.882 161.561,281.408 154.822,272.595 183.507,251.167	175.904,240.973 134.949,271.557 132.704,273.113 134.949,276.049 170.199,323.225 214.09,290.22 206.487,280.025 176.94,302.143	"/><path d="M133.74,323.051l-13.479,10.195c1.383,2.938,1.728,5.877,0.865,8.812c-1.038,2.938-3.11,5.529-6.393,7.947	c-3.976,3.113-8.122,4.148-12.443,3.113c-4.146-1.035-8.121-3.975-11.923-8.986c-3.628-4.838-5.355-9.678-5.011-14.17	c0.174-4.664,2.419-8.465,6.394-11.576c3.11-2.248,5.876-3.457,8.639-3.631c2.766-0.17,5.531,0.691,7.95,2.594l13.65-10.195	c-4.837-5.011-10.54-7.604-17.278-7.604c-6.74,0.174-13.479,2.766-20.391,7.951c-8.812,6.394-13.825,13.997-15.379,22.81	c-0.348,1.727-0.519,3.453-0.519,5.184v0.172c0,6.738,2.419,13.305,7.257,19.871c5.702,7.777,12.96,12.098,21.773,13.135	c8.638,0.863,17.106-1.729,25.401-7.949c5.702-4.322,9.677-8.986,12.096-14.344c0.344-1.037,0.865-2.246,1.209-3.281	c1.556-5.705,1.209-11.578-1.209-17.455C134.604,324.781,134.084,323.916,133.74,323.051L133.74,323.051z"/><path d="M317.531,554.281c0.011-0.004,0.103-0.045,0.14-0.061L317.531,554.281L317.531,554.281z"/><path d="M254.178,15.381c3.895,1.46,18.349,6.879,18.349,6.879l0.141,0.046c29.876,9.833,54.359,14.384,81.864,15.219l0.109,0.003	h0.11c23.335,0,44.245-4.678,66.252-9.735c5.031,6.021,63.844,76.404,68.947,82.51c-14.975,33.881-23.4,59.515-24.89,93.896	l-0.007,0.156v0.156c0,29.246,7.156,57.914,14.078,85.638c4.094,16.401,8.326,33.36,10.891,49.903	c2.159,14.512,4.209,30.961,4.209,47.338c0,4.996-0.193,9.982-0.63,14.906c-4.671,38.08-25.842,73.523-58.101,97.258	c-23.566,17.816-49.785,27.771-77.544,38.312c-13.286,5.045-27.025,10.262-40.394,16.4c-26.908,11.691-42.992,24.34-63.405,41.277	c-0.512-0.42-1.418-1.166-1.418-1.166c-13.559-11.186-26.366-21.75-42.145-30.814l-0.241-0.137l-0.25-0.119	c-17.196-8.191-35.138-15.307-52.491-22.186c-23.387-9.273-47.566-18.863-69.801-31.086c-28.301-17.99-46.578-38.092-62.975-69.264	c-7.686-18.004-10.5-36.084-10.5-54.406c0-24.021,4.826-48.461,9.807-73.689c0,0,2.128-10.865,2.222-11.341	c8.186-30.868,16.568-62.557,16.568-95.511c0-9.179-0.65-18.457-2.136-27.842c-4.129-24.283-11.915-43.777-22.397-67.658	c5.094-6.081,64.097-76.531,69.126-82.536c3.062,0.7,6.383,1.459,6.383,1.459c14.473,3.364,28.144,6.541,43.397,7.403l-0.311-0.024	C180.368,40.966,218.66,28.69,254.178,15.381L254.178,15.381z M251.639,0.956L251.639,0.956	C217.006,14.021,179.737,26.432,138.432,22.3l-0.155-0.016l-0.156-0.009c-14.014-0.792-27.098-3.833-40.95-7.052l-15.075-3.446	l-2.779,3.389L1.619,107.938l1.812,4.099c10.99,24.868,19.084,44.321,23.159,68.28c1.344,8.491,1.935,16.951,1.935,25.374	c0,31.335-8.176,62.165-16.138,92.188l-0.061,0.229l-2.308,11.779C5.057,335.016,0,360.623,0,386.355	c0,20.088,3.081,40.252,11.693,60.322l0.11,0.258l0.13,0.248c17.51,33.381,37.953,55.854,68.355,75.139l0.188,0.119l0.195,0.107	c23.083,12.711,47.764,22.496,71.633,31.961c17.044,6.758,34.664,13.748,51.347,21.68c14.615,8.428,26.352,18.102,39.923,29.297	l10.641,8.758l4.567-3.82c22.614-18.818,37.552-31.25,64.617-42.994l0.139-0.062c12.936-5.941,26.454-11.074,39.528-16.039	c27.484-10.436,55.905-21.229,81.041-40.23c35.398-26.043,58.68-65.125,63.803-107.17l0.014-0.113l0.01-0.115	c0.484-5.416,0.695-10.871,0.695-16.312c0-17.279-2.125-34.398-4.372-49.498c-2.672-17.232-6.985-34.514-11.158-51.227	c-6.699-26.839-13.623-54.59-13.644-82.023c1.479-33.544,9.738-57.511,25.458-92.566l1.843-4.108l-80.37-96.181l-6.951,1.597	c-21.771,5.007-42.337,9.733-64.59,9.747c-25.963-0.8-49.18-5.128-77.575-14.466C276.935,8.534,254.172,0,254.172,0L251.639,0.956	L251.639,0.956z"/><path d="M464.642,292.154c-7.416-30.805-14.42-59.901-14.42-85.05c0-33.099,6.983-65.065,20.758-95.012l1.437-3.124l-55.022-65.916	l-3.313,0.831C363.384,56.6,310.21,52.026,256.036,30.288l-2.027-0.813l-2.027,0.813C197.806,52.026,144.632,56.6,93.938,43.883	l-3.313-0.831l-55.035,65.929l1.458,3.133c13.882,29.834,20.92,61.794,20.92,94.99c0,25.168-7.04,54.291-14.492,85.124	c-12.296,50.866-25.01,103.466-6.431,143.534c26.153,55.764,76.311,74.58,124.817,92.777	c31.123,11.676,63.306,23.748,88.593,45.564l3.555,3.068l3.556-3.068c25.285-21.816,57.468-33.891,88.591-45.564	c48.507-18.197,98.663-37.014,124.806-92.756C489.559,395.676,476.891,343.049,464.642,292.154L464.642,292.154z M81.728,420.713	L81.728,420.713l50.63-38.031v122.613c-18.396-7.822-35.667-16.795-50.63-29.137V420.713L81.728,420.713z M181.433,345.818	L181.433,345.818l49.247-36.992v238.16c-15.678-9.096-32.438-16.178-49.247-22.67V345.818L181.433,345.818z M280.446,271.444	L280.446,271.444l48.385-36.345v288.354c-16.45,6.307-32.906,13.102-48.385,21.746V271.444L280.446,271.444z M378.077,198.108	L378.077,198.108l49.768-37.383v314.123c-14.666,12.467-31.635,21.561-49.768,29.416V198.108L378.077,198.108z M181.433,59.878	L181.433,59.878c16.289-1.957,32.717-5.477,49.247-10.556v116.275l-49.247,37.301V59.878L181.433,59.878z M280.446,50.264	L280.446,50.264c16.24,4.802,32.381,8.095,48.385,9.878v31.115l-48.385,36.647V50.264L280.446,50.264z M94.679,55.183	L94.679,55.183c12.433,2.934,25,4.872,37.679,5.833v179.052l-50.63,38.349V70.699C88.232,62.906,93.435,56.674,94.679,55.183	L94.679,55.183z M48.944,316.281L48.944,316.281l0.299,0.396L386.896,60.934l-0.717-0.947c9.116-1.09,18.174-2.684,27.16-4.804	c3.711,4.445,42.629,51.069,46.38,55.562c-2.579,5.826-4.913,11.724-7.008,17.686L47.661,432.686	c-0.248-0.512-0.507-1.006-0.75-1.525c-6.003-12.945-8.349-27.658-8.349-43.439C38.562,365.387,43.265,340.914,48.944,316.281	L48.944,316.281z"/></g></svg>