<?xml version="1.0" encoding="iso-8859-1"?><!-- Generator: Adobe Illustrator 16.0.0, SVG Export Plug-In . SVG Version: 6.00 Build 0) --><!DOCTYPE svg PUBLIC "-//W3C//DTD SVG 1.1//EN" "http://www.w3.org/Graphics/SVG/1.1/DTD/svg11.dtd"><svg version="1.1" id="Layer_1" xmlns="http://www.w3.org/2000/svg" xmlns:xlink="http://www.w3.org/1999/xlink" x="0px" y="0px" width="192.756px" height="192.756px" viewBox="0 0 192.756 192.756" style="enable-background:new 0 0 192.756 192.756;" xml:space="preserve"><g><polygon style="fill-rule:evenodd;clip-rule:evenodd;fill:#FFFFFF;" points="0,0 192.756,0 192.756,192.756 0,192.756 0,0	"/><path style="fill-rule:evenodd;clip-rule:evenodd;fill:#2762A6;" d="M8.56,184.252L8.56,184.252L8.56,184.252L8.56,184.252z M96.538,184.059c48.278,0,87.657-39.451,87.657-87.801c0-48.302-39.379-87.753-87.657-87.753	c-48.373,0-87.825,39.452-87.825,87.753C8.713,144.607,48.165,184.059,96.538,184.059L96.538,184.059z"/><path style="fill-rule:evenodd;clip-rule:evenodd;fill:#FFFFFF;" d="M15.105,96.377c0,44.938,36.59,81.527,81.552,81.527	c44.938,0,81.528-36.59,81.528-81.527c0-44.986-36.59-81.6-81.528-81.6C51.696,14.777,15.105,51.391,15.105,96.377L15.105,96.377z M20.186,96.377c0-42.195,34.3-76.519,76.472-76.519c42.147,0,76.448,34.324,76.448,76.519c0,42.146-34.301,76.447-76.448,76.447	C54.486,172.824,20.186,138.523,20.186,96.377L20.186,96.377z"/><path style="fill-rule:evenodd;clip-rule:evenodd;fill:#FFFFFF;" d="M96.729,141.936c-25.069,0-45.463-20.395-45.463-45.439	c0-24.974,20.394-45.392,45.463-45.392c24.902,0,45.367,20.418,45.367,45.392C142.096,121.541,121.631,141.936,96.729,141.936	L96.729,141.936z"/><path style="fill-rule:evenodd;clip-rule:evenodd;fill:#FFFFFF;" d="M42.417,96.567c0,29.841,24.282,54.146,54.121,54.146	c29.769,0,54.026-24.305,54.026-54.146c0-29.839-24.258-54.097-54.026-54.097C66.699,42.47,42.417,66.728,42.417,96.567	L42.417,96.567z M47.45,96.567c0-27.073,22.016-49.088,49.088-49.088c27.001,0,48.993,22.016,48.993,49.088	c0,27.073-21.992,49.112-48.993,49.112C69.465,145.68,47.45,123.641,47.45,96.567L47.45,96.567z"/><path style="fill-rule:evenodd;clip-rule:evenodd;fill:#CD3529;" d="M64.218,61.146c17.245-8.11,25.546,0.191,38.116,1.551	c11.594,4.293,22.588-0.668,33.131-2.218c-8.324,33.68,3.578,48.898,5.629,73.347c-23.303-1.121-42.074-16.387-69.744-2.936	C74.522,107.588,71.851,84.045,64.218,61.146L64.218,61.146z"/><path style="fill-rule:evenodd;clip-rule:evenodd;fill:#FFFFFF;" d="M100.904,62.22v16.435h32.01l2.719-18.248	C122.18,63.58,111.398,65.631,100.904,62.22L100.904,62.22z"/><polygon style="fill-rule:evenodd;clip-rule:evenodd;fill:#FFFFFF;" points="169.504,106.801 170.004,103.699 160.939,102.27	154.93,101.338 154.547,101.291 154.07,104.391 154.93,104.51 160.82,105.441 159.891,111.547 154.93,110.736 153.141,110.426	152.639,113.598 154.93,113.98 160.939,114.91 168.072,116.008 168.572,112.906 162.49,111.93 163.42,105.871 169.504,106.801	"/><polygon style="fill-rule:evenodd;clip-rule:evenodd;fill:#FFFFFF;" points="154.93,117.701 151.137,116.318 150.088,119.299	154.93,120.969 160.939,123.092 164.852,124.379 165.902,121.422 160.939,119.729 154.93,117.701	"/><path style="fill-rule:evenodd;clip-rule:evenodd;fill:#FFFFFF;" d="M154.93,84.546l-1.002-0.31l0.143,3.268l0.859,0.311	l2.672,0.882l0.238,6.249l-2.91,1.24l-0.549,0.263l0.119,3.411l0.43-0.191l6.01-2.672l8.945-3.911l-0.143-3.339l-8.803-3.101	L154.93,84.546L154.93,84.546z M166.164,91.487l-5.225,2.099l-0.5,0.263l-0.168-4.293l0.668,0.262L166.164,91.487L166.164,91.487z"	/><path style="fill-rule:evenodd;clip-rule:evenodd;fill:#FFFFFF;" d="M149.848,120.85l-1.74,2.861l2.361,2.91l-3.221,5.344	l-3.721-0.621l-1.812,2.91l13.215,2.172l3.41,0.5l1.742-2.861l-5.152-6.584L149.848,120.85L149.848,120.85z M156.098,133.635	l-1.168-0.262l-4.891-0.932l2.17-3.648l2.721,3.338L156.098,133.635L156.098,133.635z"/><polygon style="fill-rule:evenodd;clip-rule:evenodd;fill:#FFFFFF;" points="146.176,61.218 140.355,54.778 143.527,51.916	148.727,57.736 150.707,56.019 145.436,50.174 148.035,47.813 153.689,54.086 154.93,52.965 155.621,52.345 154.93,51.534	147.869,43.734 138.424,52.226 136.252,54.158 138.424,56.567 144.195,63.007 146.176,61.218	"/><path style="fill-rule:evenodd;clip-rule:evenodd;fill:#FFFFFF;" d="M148.537,71.069l1.932,4.961c0.74,1.86,1.24,3.053,1.479,3.554	c0.383,0.74,0.883,1.288,1.432,1.67c0.43,0.31,1.002,0.549,1.551,0.62c0.119,0.048,0.309,0.048,0.43,0.048	c0.738,0.071,1.43,0,2.121-0.239c0.859-0.381,1.48-0.859,1.91-1.622c0.428-0.667,0.619-1.55,0.572-2.528	c0.309,0.31,0.619,0.549,0.977,0.74c0.311,0.119,0.572,0.238,0.883,0.238c0.668,0.191,1.359,0.144,2.027-0.119	c0.621-0.239,1.193-0.62,1.551-1.121c0.381-0.477,0.691-1.05,0.811-1.598c0.119-0.573,0.119-1.121,0-1.741s-0.357-1.479-0.857-2.6	l-2.242-5.844l-2.172,0.811l-6.01,2.29L148.537,71.069L148.537,71.069z M160.939,69.662l0.883-0.31l0.668,1.67	c0.502,1.431,0.811,2.218,0.93,2.528c0.119,0.573,0.072,1.002-0.119,1.312c-0.189,0.382-0.5,0.62-0.93,0.811	c-0.5,0.191-0.93,0.191-1.312,0c-0.047,0-0.047,0-0.119,0c-0.311-0.191-0.619-0.573-0.857-1.002	c-0.119-0.238-0.43-0.93-0.883-2.099l-0.74-1.932L160.939,69.662L160.939,69.662z M156.051,71.57l0.93,2.362	c0.5,1.36,0.74,2.242,0.74,2.719c0.07,0.453-0.072,0.811-0.311,1.192c-0.191,0.31-0.549,0.549-1.002,0.739	c-0.477,0.191-0.93,0.191-1.359,0.072c-0.049,0-0.049-0.072-0.119-0.072c-0.383-0.19-0.621-0.429-0.859-0.811	c-0.191-0.239-0.453-0.931-0.883-1.98l-1.049-2.719L154.93,72L156.051,71.57L156.051,71.57z"/><path style="fill-rule:evenodd;clip-rule:evenodd;fill:#FFFFFF;" d="M137.016,48.195c0.43-0.811,0.621-1.622,0.549-2.409	c-0.119-0.883-0.5-1.622-1.168-2.361c0.738,0.048,1.406-0.072,2.027-0.311l0.07-0.071c0.621-0.31,1.17-0.811,1.551-1.431	c0.311-0.548,0.502-1.168,0.502-1.789c0-0.62-0.072-1.168-0.311-1.741c-0.262-0.501-0.621-0.978-1.121-1.36	c-0.191-0.191-0.43-0.381-0.691-0.548c-0.43-0.311-0.932-0.621-1.6-1.074l-2.6-1.55l-2.742-1.598l-7.061,11.783l-1.002,1.599	l1.002,0.572l3.602,2.171c1.717,0.978,2.838,1.598,3.268,1.86c0.811,0.31,1.551,0.501,2.242,0.429c0.238,0,0.43-0.071,0.691-0.119	c0.43-0.119,0.859-0.31,1.289-0.573C136.133,49.316,136.635,48.743,137.016,48.195L137.016,48.195z M134.273,46.334	c0,0.072,0,0.072-0.049,0.12c-0.262,0.429-0.619,0.691-1.002,0.811c-0.428,0.12-0.857,0.12-1.311-0.071	c-0.311-0.048-0.932-0.429-1.908-0.978l-2.48-1.55l2.17-3.53l2.17,1.288c1.24,0.739,1.98,1.24,2.291,1.622	c0,0.047,0.07,0.047,0.07,0.119c0.238,0.31,0.357,0.692,0.357,1.002C134.654,45.595,134.535,45.953,134.273,46.334L134.273,46.334z M134.773,41.063c-0.119-0.072-0.311-0.12-0.549-0.239c-0.309-0.262-0.811-0.501-1.43-0.882l-1.814-1.05l1.861-3.101l1.383,0.811	l0.168,0.119c1.311,0.74,2.051,1.24,2.312,1.431c0.43,0.31,0.668,0.668,0.74,1.049c0.047,0.429,0,0.811-0.262,1.241	c-0.311,0.429-0.621,0.691-1.051,0.811C135.703,41.373,135.275,41.301,134.773,41.063L134.773,41.063z"/><path style="fill-rule:evenodd;clip-rule:evenodd;fill:#FFFFFF;" d="M125.352,29.041l-0.93-0.31l-2.051-0.691l-2.863,8.134	c-0.357,1.168-0.738,2.027-0.977,2.48c-0.264,0.477-0.693,0.787-1.193,0.978c-0.549,0.263-1.24,0.191-2.1-0.119	c-0.859-0.238-1.432-0.691-1.789-1.24c-0.381-0.501-0.5-1.121-0.381-1.741c0-0.43,0.238-1.24,0.691-2.528l2.791-8.015l-2.982-0.978	l-2.672,7.871c-0.547,1.67-0.857,2.91-1,3.84c-0.049,0.62,0,1.24,0.262,1.932c0.238,0.668,0.668,1.288,1.24,1.86	c0.619,0.549,1.598,1.097,3.029,1.598c1.193,0.382,2.17,0.573,3.053,0.5c0.787,0,1.479-0.238,2.1-0.548	c0.619-0.381,1.121-0.882,1.551-1.55c0.43-0.692,0.93-1.932,1.549-3.721l1.742-5.033L125.352,29.041L125.352,29.041z"/><polygon style="fill-rule:evenodd;clip-rule:evenodd;fill:#FFFFFF;" points="62.93,46.764 60.759,43.114 67.438,39.083	66.079,36.841 59.376,40.872 57.587,37.89 64.838,33.549 63.479,31.331 55.035,36.34 53.556,37.27 55.035,39.751 61.546,50.675	71.732,44.545 70.42,42.303 62.93,46.764	"/><path style="fill-rule:evenodd;clip-rule:evenodd;fill:#FFFFFF;" d="M87.856,36.412c-0.501,0.62-1.193,1.001-1.979,1.121	c-1.122,0.19-2.124-0.071-2.982-0.811c-0.811-0.692-1.36-2.051-1.669-3.959c-0.311-1.861-0.191-3.244,0.429-4.174	c0.549-0.93,1.432-1.479,2.601-1.669c0.811-0.12,1.55,0,2.17,0.381c0.691,0.358,1.168,0.93,1.479,1.67l2.934-1.241	c-0.501-1.168-1.193-1.979-2.003-2.552c-1.36-0.93-2.958-1.24-4.89-0.978c-2.17,0.358-3.792,1.36-4.89,2.982	c-1.073,1.598-1.431,3.721-1.002,6.321c0.382,2.409,1.312,4.222,2.862,5.391c1.551,1.169,3.34,1.622,5.391,1.312	c1.67-0.262,2.981-0.882,3.912-1.861c0.93-1.001,1.479-2.361,1.717-4.103l-3.22-0.5C88.667,34.933,88.357,35.792,87.856,36.412	L87.856,36.412z"/><polygon style="fill-rule:evenodd;clip-rule:evenodd;fill:#FFFFFF;" points="99.066,23.698 95.965,23.626 95.417,39.083	106.365,39.441 106.484,36.841 98.637,36.603 99.066,23.698	"/><polygon style="fill-rule:evenodd;clip-rule:evenodd;fill:#FFFFFF;" points="46.615,46.644 49.596,43.114 47.545,41.373	45.255,44.092 39.602,50.866 41.582,52.607 44.563,49.053 45.255,49.625 54.558,57.378 55.035,56.758 56.538,54.945 55.035,53.705	46.615,46.644	"/><path style="fill-rule:evenodd;clip-rule:evenodd;fill:#FFFFFF;" d="M45.255,61.457c-0.382,0.071-0.764,0.144-1.002,0.191	c-0.62,0.191-1.312,0.429-1.979,0.882c0.5-1.312,0.548-2.433,0.238-3.411c-0.31-1.002-0.978-1.741-2.051-2.314	c-0.787-0.477-1.598-0.668-2.481-0.62c-0.31,0-0.62,0.072-0.93,0.191c-0.43,0.119-0.859,0.381-1.241,0.691	c-0.62,0.501-1.359,1.479-2.17,2.981l-3.148,5.82l6.56,3.649l7.084,3.912l1.121-2.051l0.357-0.74l-0.357-0.191l-5.271-2.958	l0.31-0.572c0.31-0.62,0.62-1.049,0.859-1.288c0.31-0.262,0.62-0.382,1.049-0.5c0.429-0.12,1.36-0.263,2.791-0.382h0.263	l3.84-0.311l1.86-3.292l-3.602,0.191C46.496,61.337,45.804,61.409,45.255,61.457L45.255,61.457z M40.103,61.647	c-0.071,0.429-0.501,1.312-1.192,2.6l-1.169,2.051l-0.691-0.358l-2.791-1.55l1.24-2.17c0.62-1.121,1.002-1.813,1.121-2.004	c0.19-0.167,0.31-0.31,0.43-0.429c0.262-0.12,0.453-0.239,0.691-0.31c0.43-0.048,0.858,0,1.359,0.262	c0.382,0.239,0.692,0.477,0.883,0.859C40.103,60.908,40.151,61.29,40.103,61.647L40.103,61.647z"/><polygon style="fill-rule:evenodd;clip-rule:evenodd;fill:#FFFFFF;" points="44.754,121.279 42.464,122.662 45.255,127.314	46.973,130.105 45.255,131.154 43.323,132.322 39.292,125.572 37.05,126.932 37.002,126.932 37.05,127.051 41.033,133.682	38.124,135.424 37.05,133.754 33.782,128.244 31.469,129.604 37.05,138.906 37.432,139.525 45.255,134.803 50.837,131.465	45.255,122.162 44.754,121.279	"/><path style="fill-rule:evenodd;clip-rule:evenodd;fill:#FFFFFF;" d="M37.05,105.059l2.552-0.189l-0.191-3.148l-2.361,0.189	l-3.53,0.238l-0.12-2.051c-0.119-1.432-0.238-2.527-0.429-3.291c-0.19-0.478-0.501-1.05-0.883-1.551	c-0.429-0.477-0.978-0.93-1.598-1.24c-0.573-0.238-1.193-0.357-1.932-0.357c-0.191,0-0.358,0-0.549,0.048	c-1.24,0.071-2.242,0.453-2.981,1.121c-0.74,0.62-1.168,1.431-1.359,2.291c-0.12,0.619-0.12,1.859,0.047,3.791l0.31,5.033	l4.532-0.311L37.05,105.059L37.05,105.059z M26.459,102.65l-0.072-1.551c-0.119-1.121-0.119-1.861-0.047-2.242	c0.047-0.549,0.238-0.979,0.548-1.359c0.382-0.311,0.811-0.549,1.36-0.549c0.119,0,0.262,0,0.31,0c0.381,0,0.692,0.119,0.93,0.238	c0.382,0.238,0.692,0.549,0.883,0.93c0.167,0.43,0.31,1.242,0.429,2.482l0.048,1.74l-2.29,0.119L26.459,102.65L26.459,102.65z"/><path style="fill-rule:evenodd;clip-rule:evenodd;fill:#FFFFFF;" d="M32.781,122.209c1.168-0.357,2.051-1.168,2.552-2.338	c0.358-0.811,0.477-2.123,0.358-3.863c-0.048-1.359-0.119-2.219-0.119-2.6c0-0.549,0.119-0.979,0.31-1.289	c0.191-0.262,0.43-0.5,0.812-0.572c0.119-0.047,0.238-0.119,0.358-0.119c0.453,0,0.882,0.119,1.312,0.381	c0.549,0.359,1.002,0.979,1.312,1.98c0.31,0.93,0.31,1.742,0,2.41c-0.263,0.691-0.882,1.24-1.813,1.74l1.24,2.863	c1.622-0.764,2.672-1.742,3.22-3.055c0.501-1.287,0.501-2.91-0.119-4.77c-0.429-1.312-0.93-2.291-1.598-3.029	c-0.62-0.764-1.431-1.24-2.314-1.504c-0.429-0.047-0.787-0.119-1.24-0.119c-0.43,0-0.931,0.072-1.36,0.191	c-0.93,0.311-1.67,0.811-2.17,1.359c-0.549,0.621-0.859,1.312-0.979,2.172c-0.143,0.811-0.143,1.979,0,3.529	c0.12,1.621,0.048,2.6-0.143,3.102c-0.119,0.381-0.358,0.619-0.739,0.738c-0.358,0.145-0.74,0.072-1.05-0.166	c-0.549-0.383-0.93-1.002-1.24-1.861c-0.239-0.883-0.31-1.551-0.119-2.051c0.19-0.572,0.667-1.002,1.431-1.359l-1.121-2.982	c-0.382,0.119-0.691,0.311-1.001,0.43c-0.811,0.502-1.431,1.24-1.789,2.1c-0.573,1.24-0.5,2.742,0.119,4.65	c0.382,1.121,0.859,2.051,1.479,2.744c0.071,0.047,0.143,0.189,0.191,0.238c0.572,0.572,1.192,0.93,1.932,1.121	C31.23,122.471,32.041,122.471,32.781,122.209L32.781,122.209z"/><path style="fill-rule:evenodd;clip-rule:evenodd;fill:#FFFFFF;" d="M26.149,84.785c0.429,0.811,0.978,1.431,1.598,1.979	c0.262,0.263,0.572,0.43,0.811,0.62c0.811,0.501,1.741,0.883,2.862,1.192c2.171,0.62,4.031,0.62,5.63-0.071	c0.19-0.119,0.381-0.19,0.572-0.31c1.741-0.93,2.91-2.48,3.602-4.723c0.62-2.218,0.429-4.15-0.572-5.892	c-0.74-1.288-1.908-2.29-3.602-3.029c-0.43-0.191-0.979-0.382-1.551-0.549c-2.409-0.691-4.508-0.572-6.249,0.358	c-0.263,0.119-0.43,0.263-0.692,0.382c-1.36,0.978-2.362,2.409-2.91,4.341c-0.31,1.241-0.429,2.362-0.31,3.411	C25.41,83.234,25.72,84.045,26.149,84.785L26.149,84.785z M28.249,79.751c0.119-0.31,0.19-0.548,0.31-0.787	c0.429-0.811,1.049-1.431,1.813-1.812c1.097-0.549,2.48-0.549,4.198-0.048c1.002,0.31,1.86,0.668,2.481,1.169	c0.5,0.31,0.811,0.691,1.121,1.121c0.62,1.049,0.739,2.17,0.429,3.339c-0.238,0.931-0.787,1.67-1.55,2.242	c-0.167,0.119-0.358,0.239-0.621,0.358c-1.097,0.573-2.528,0.573-4.198,0.072c-1.741-0.501-2.934-1.241-3.554-2.242	c-0.048-0.048-0.048-0.12-0.119-0.167C28.01,82.065,27.938,80.944,28.249,79.751L28.249,79.751z"/><path style="fill-rule:evenodd;clip-rule:evenodd;fill:#FFFFFF;" d="M113.307,151.5l-2.338,0.619c0,1.051-0.453,1.98-1.121,2.91	c-0.619,0.859-1.24,1.48-1.859,1.908c-0.072,0.072-0.119,0.145-0.191,0.145l0.191,0.738l0.5,1.908	c1.287-0.857,2.338-1.908,3.102-3.219l2.91,10.924l2.838-0.74L113.307,151.5L113.307,151.5z"/><path style="fill-rule:evenodd;clip-rule:evenodd;fill:#FFFFFF;" d="M107.248,162.09c-0.572-0.619-1.312-0.977-2.242-1.168	c1.479-0.883,2.17-1.98,2.1-3.363c-0.049-0.979-0.479-1.861-1.24-2.529c-0.932-0.93-2.172-1.311-3.578-1.24	c-0.883,0.049-1.623,0.24-2.314,0.621c-0.645,0.357-1.217,0.811-1.525,1.432c-0.359,0.549-0.621,1.287-0.74,2.289l2.719,0.311	c0.049-0.691,0.238-1.24,0.621-1.623c0.311-0.357,0.738-0.547,1.24-0.547c0.549-0.072,0.977,0.047,1.287,0.357	c0.311,0.309,0.502,0.764,0.572,1.24c0,0.619-0.189,1.121-0.619,1.551c-0.381,0.381-1.002,0.572-1.812,0.619l-0.191,2.434	c0.502-0.191,1.002-0.262,1.383-0.311c0.549,0,1.051,0.191,1.479,0.621c0.43,0.428,0.693,0.977,0.693,1.74	c0.047,0.787-0.145,1.408-0.502,1.908c-0.43,0.502-0.93,0.74-1.551,0.811c-0.572,0-1.049-0.119-1.502-0.5	c-0.43-0.357-0.668-0.932-0.787-1.67l-2.91,0.5c0.262,1.289,0.811,2.363,1.812,3.102c0.955,0.74,2.146,1.121,3.578,1.049	c1.479-0.119,2.648-0.619,3.65-1.67c0.5-0.572,0.857-1.191,1.121-1.859c0.119-0.572,0.189-1.121,0.189-1.67	c0-0.453-0.07-0.811-0.189-1.121C107.797,162.902,107.559,162.473,107.248,162.09L107.248,162.09z"/><path style="fill-rule:evenodd;clip-rule:evenodd;fill:#FFFFFF;" d="M91.625,153.719c-0.119,0-0.167,0-0.31,0	c-1.288,0-2.409,0.43-3.339,1.311c-1.002,0.859-1.55,2.172-1.622,3.723c-0.048,1.549,0.31,2.789,1.121,3.768	c0.883,1.002,1.932,1.502,3.101,1.551c0.311,0.072,0.573,0,0.74,0c0.811-0.119,1.55-0.477,2.17-1.098	c-0.238,1.719-0.548,2.91-1.049,3.459c-0.31,0.381-0.667,0.621-1.121,0.74c-0.119,0-0.31,0-0.477,0	c-0.453,0-0.883-0.168-1.121-0.479c-0.31-0.262-0.43-0.762-0.501-1.311l-2.91,0.189c0.12,1.289,0.549,2.291,1.288,2.982	c0.692,0.668,1.693,1.049,2.934,1.098c0.239,0,0.548,0,0.787,0c1.383-0.119,2.481-0.668,3.411-1.67	c1.121-1.24,1.741-3.221,1.932-6.082c0.119-2.791-0.239-4.818-1.241-6.131C94.487,154.457,93.247,153.789,91.625,153.719	L91.625,153.719z M92.698,161.352c-0.381,0.381-0.811,0.549-1.383,0.549c0,0-0.047,0-0.119,0c-0.549,0-1.049-0.238-1.431-0.74	c-0.358-0.5-0.549-1.24-0.478-2.219c0.048-1.002,0.311-1.74,0.668-2.17c0.382-0.381,0.883-0.572,1.36-0.572	c0.072,0,0.072,0,0.072,0c0.548,0.072,1.049,0.311,1.479,0.883c0.382,0.549,0.573,1.287,0.573,2.289	C93.366,160.23,93.127,160.922,92.698,161.352L92.698,161.352z"/><path style="fill-rule:evenodd;clip-rule:evenodd;fill:#FFFFFF;" d="M80.533,154.41c-1.05,0.43-2.051,0.668-2.862,0.74l-0.668,2.6	c1.55-0.049,2.981-0.43,4.341-1.17l-2.982,10.9l2.91,0.764l4.103-15.146l-2.361-0.619C82.394,153.289,81.583,153.98,80.533,154.41	L80.533,154.41z"/><path style="fill-rule:evenodd;clip-rule:evenodd;fill:#FFFFFF;" d="M133.152,152.668c2.361,0,4.293-1.932,4.293-4.27	c0-2.361-1.932-4.293-4.293-4.293c-2.291,0-4.199,1.932-4.199,4.293C128.953,150.736,130.861,152.668,133.152,152.668	L133.152,152.668z"/><path style="fill-rule:evenodd;clip-rule:evenodd;fill:#FFFFFF;" d="M59.137,154.219c2.29,0,4.222-1.932,4.222-4.27	c0-2.361-1.932-4.293-4.222-4.293c-2.361,0-4.27,1.932-4.27,4.293C54.868,152.287,56.776,154.219,59.137,154.219L59.137,154.219z"	/><polygon style="fill-rule:evenodd;clip-rule:evenodd;fill:#FFFFFF;" points="62.978,57.903 55.846,58.713 66.842,154.242	74.833,153.312 63.836,57.783 62.978,57.903	"/><path style="fill-rule:evenodd;clip-rule:evenodd;fill:#2762A6;" d="M141.715,133.754c-0.668-8.062-2.457-15.242-4.15-22.184	c-3.459-14-7.037-28.479-1.502-50.949l0.215-0.906l-0.908,0.143c-2.766,0.406-5.629,1.074-8.395,1.694	c-7.871,1.812-16.029,3.673-24.426,0.572l-0.072-0.024h-0.07c-3.697-0.406-7.132-1.455-10.424-2.48	c-7.752-2.362-15.767-4.794-28.027,0.978l-0.501,0.238l0.191,0.525c7.776,23.375,10.185,46.727,7.084,69.459l-0.144,1.145l1.05-0.5	c18.295-8.922,32.321-5.178,47.18-1.242c7.107,1.885,14.479,3.842,22.254,4.223l0.717,0.023L141.715,133.754L141.715,133.754z M119.127,129.031c-14.168-3.77-28.791-7.633-47.038,0.859c0.763-6.107,1.192-12.262,1.192-18.439c0-0.43,0-0.883-0.023-1.311	c-0.024-4.391-0.263-8.826-0.692-13.264c9.064-3.482,18.629-4.746,28.791-2.981l-0.191-30.722c0.334,0.047,0.691,0.095,1.025,0.143	c8.73,3.173,17.031,1.288,25.068-0.548c2.553-0.596,4.961-1.121,7.395-1.526c-1.932,8.158-2.719,15.289-2.719,21.706	c0,4.699,0.406,9.04,1.049,13.167c0.811,5.391,2.027,10.375,3.244,15.289c0.049,0.143,0.096,0.311,0.119,0.453	c1.646,6.678,3.34,13.596,4.055,21.275C133.033,132.68,125.973,130.844,119.127,129.031L119.127,129.031z"/><polygon style="fill-rule:evenodd;clip-rule:evenodd;fill:#2762A6;" points="56.8,59.477 67.605,153.289 73.878,152.549	63.097,58.737 56.8,59.477	"/><path style="fill-rule:evenodd;clip-rule:evenodd;fill:#FFFFFF;" d="M136.229,111.404c-1.217-4.914-2.434-9.898-3.244-15.289	c-10.732,0.547-31.627-2.219-31.627-2.219c-10.162-1.765-19.727-0.501-28.791,2.981c0.429,4.438,0.668,8.873,0.692,13.264	C95.798,104.486,114.355,112.477,136.229,111.404L136.229,111.404z"/><path style="fill-rule:evenodd;clip-rule:evenodd;fill:#FFFFFF;" d="M83.944,90.748c-6.583,0-11.902-6.393-11.902-14.216	c0-7.871,5.319-14.264,11.902-14.264c6.512,0,11.903,6.393,11.903,14.264C95.847,84.355,90.456,90.748,83.944,90.748L83.944,90.748	z"/><path style="fill-rule:evenodd;clip-rule:evenodd;fill:#CD3529;" d="M77.432,68.851c3.435-1.622,5.104,0.024,7.633,0.31	c2.314,0.859,4.508-0.143,6.607-0.453c-1.646,6.726,0.739,9.78,1.145,14.669c-4.675-0.215-8.42-3.268-13.954-0.573	C79.483,78.129,78.958,73.431,77.432,68.851L77.432,68.851z"/><path style="fill-rule:evenodd;clip-rule:evenodd;fill:#FFFFFF;" d="M84.779,69.066v3.268h6.393l0.548-3.625	C89.025,69.328,86.878,69.734,84.779,69.066L84.779,69.066z"/><polygon style="fill-rule:evenodd;clip-rule:evenodd;fill:#FFFFFF;" points="77.194,68.183 75.762,68.35 77.957,87.456	79.555,87.289 77.361,68.183 77.194,68.183	"/><path style="fill-rule:evenodd;clip-rule:evenodd;fill:#2762A6;" d="M92.937,83.377c-0.143-1.622-0.501-3.053-0.835-4.437	c-0.691-2.814-1.407-5.701-0.31-10.208l0.048-0.167l-0.167,0.023c-0.572,0.072-1.145,0.215-1.693,0.334	c-1.575,0.358-3.196,0.739-4.89,0.12l0,0h-0.024c-0.739-0.096-1.431-0.31-2.075-0.501c-1.55-0.477-3.148-0.954-5.605,0.191	l-0.119,0.047l0.048,0.096c1.55,4.699,2.027,9.374,1.431,13.906l-0.048,0.238l0.215-0.119c3.649-1.765,6.464-1.026,9.446-0.239	c1.431,0.381,2.886,0.763,4.437,0.835l0.143,0.023V83.377L92.937,83.377z M88.428,82.423c-2.838-0.74-5.772-1.527-9.422,0.167	c0.144-1.217,0.239-2.433,0.239-3.674c0-0.095,0-0.19,0-0.262c-0.024-0.883-0.072-1.766-0.143-2.672	c1.812-0.691,3.721-0.954,5.748-0.596l-0.023-6.13c0.071,0,0.143,0.024,0.214,0.024c1.742,0.644,3.387,0.262,5.009-0.12	c0.501-0.119,0.978-0.214,1.479-0.286c-0.405,1.622-0.548,3.053-0.548,4.317c0,0.954,0.072,1.813,0.215,2.648	c0.167,1.073,0.406,2.075,0.644,3.053c0,0.047,0.023,0.071,0.023,0.095c0.334,1.336,0.668,2.719,0.811,4.246	C91.195,83.163,89.788,82.781,88.428,82.423L88.428,82.423z"/><polygon style="fill-rule:evenodd;clip-rule:evenodd;fill:#2762A6;" points="75.954,68.517 78.1,87.265 79.365,87.122	77.194,68.374 75.954,68.517	"/><path style="fill-rule:evenodd;clip-rule:evenodd;fill:#FFFFFF;" d="M91.839,78.893c-0.238-0.978-0.478-1.98-0.644-3.053	c-2.147,0.095-6.345-0.453-6.345-0.453c-2.027-0.358-3.936-0.095-5.748,0.596c0.071,0.906,0.119,1.789,0.143,2.672	C83.753,77.509,87.474,79.107,91.839,78.893L91.839,78.893z"/><path style="fill-rule:evenodd;clip-rule:evenodd;fill:#FFFFFF;" d="M81.368,74.767c-1.312,0-2.385-1.288-2.385-2.839	c0-1.574,1.073-2.862,2.385-2.862s2.385,1.288,2.385,2.862C83.753,73.479,82.68,74.767,81.368,74.767L81.368,74.767z"/></g></svg>