<?xml version="1.0" encoding="iso-8859-1"?><!-- Generator: Adobe Illustrator 16.0.0, SVG Export Plug-In . SVG Version: 6.00 Build 0) --><!DOCTYPE svg PUBLIC "-//W3C//DTD SVG 1.1//EN" "http://www.w3.org/Graphics/SVG/1.1/DTD/svg11.dtd"><svg version="1.1" id="Layer_1" xmlns="http://www.w3.org/2000/svg" xmlns:xlink="http://www.w3.org/1999/xlink" x="0px" y="0px" width="192.756px" height="192.756px" viewBox="0 0 192.756 192.756" style="enable-background:new 0 0 192.756 192.756;" xml:space="preserve"><g><polygon style="fill-rule:evenodd;clip-rule:evenodd;fill:#FFFFFF;" points="0,0 192.756,0 192.756,192.756 0,192.756 0,0	"/><path style="fill-rule:evenodd;clip-rule:evenodd;fill:#CD3529;" d="M39.968,184.252L39.968,184.252L39.968,184.252L39.968,184.252	z M152.789,8.504v42.663c-6.062,0-10.967,4.928-10.967,10.99c0,6.062,4.904,10.99,10.967,10.99v71.722	c0,12.238-13.859,26.213-26.029,26.213h-15.084c-3.402,0-10.76,2.244-14.299,10.805l-0.949,2.314l-0.972-2.314	c-3.54-8.561-10.897-10.805-14.298-10.805H66.073c-12.169,0-26.028-13.975-26.028-26.213V73.147c6.062,0,10.966-4.928,10.966-10.99	c0-6.062-4.904-10.99-10.966-10.99V8.504H152.789L152.789,8.504z"/><path style="fill-rule:evenodd;clip-rule:evenodd;fill:#FFFFFF;" d="M150.705,10.586c0,0.231,0,17.098,0,38.776	c-6.154,0.995-10.873,6.339-10.873,12.794c0,6.455,4.719,11.799,10.873,12.794c0,34.451,0,69.918,0,69.918	c0,11.035-12.979,24.131-23.945,24.131h-15.084c-4.998,0-11.568,3.402-15.248,10.48C92.727,172.402,86.156,169,81.158,169H66.073	c-10.966,0-23.969-13.096-23.969-24.131c0,0,0-35.467,0-69.918c6.178-0.995,10.897-6.339,10.897-12.794	c0-6.455-4.72-11.799-10.897-12.794c0-21.679,0-38.545,0-38.776H150.705L150.705,10.586z"/><path style="fill-rule:evenodd;clip-rule:evenodd;fill:#CD3529;" d="M142.377,19.101v23.46	c-6.988,3.725-11.777,11.105-11.777,19.597c0,8.491,4.789,15.872,11.777,19.596v61.196c-0.277,2.613-0.834,4.836-1.619,6.756	c-1.598,3.934-4.188,6.523-7.312,8.189c-3.516,1.852-7.727,2.268-12.123,2.43l-9.646-0.023c0,0-1.943,0.139-4.281,0.74	c-3.562,0.926-7.125,2.221-10.966,5.346c-3.864-3.125-7.427-4.42-10.99-5.346c-2.336-0.602-4.28-0.74-4.28-0.74l-9.648,0.023	c-4.396-0.162-8.606-0.578-12.123-2.43c-3.124-1.666-5.715-4.256-7.312-8.189c-0.786-1.92-1.342-4.143-1.643-6.756V81.753	c7.011-3.725,11.8-11.105,11.8-19.596c0-8.491-4.789-15.872-11.8-19.597v-23.46H142.377L142.377,19.101z"/><path style="fill-rule:evenodd;clip-rule:evenodd;fill:#304296;" d="M82.731,41.82l-0.879,0.532l0,0	c-0.185,0-0.185,0.348-0.185,0.348s-0.162,0.162-0.162,0.347l0,0v0.162v5.899l0,0c0,0.347,0.162,0.694,0.162,0.694	s0.185,0.185,0.533,0.185c0.162,0,0.347-0.185,0.347-0.185s0.185-0.347,0.185-0.694l0,0V41.82L82.731,41.82L82.731,41.82z M86.364,33.676v18.74h-3.632v-0.694l0,0c-0.185,0.162-0.879,0.509-1.064,0.509c-0.324,0.185-0.694,0.347-1.203,0.347	c-1.042,0-1.55-0.347-1.92-0.856c-0.509-0.694-0.694-1.92-0.694-3.471l0,0v-5.043l0,0c0-0.509,0.185-1.203,0.532-1.55	c0.162-0.348,0.694-0.88,1.388-1.227l0,0l2.961-1.388v-5.368l0,0c0-0.347-0.185-0.532-0.185-0.532s-0.185-0.162-0.347-0.162	c-0.348,0-0.533,0.162-0.533,0.162c0,0.186-0.162,0.532-0.162,0.879l0,0v3.98H77.85v-4.327l0,0c0-1.226,0.532-2.082,1.064-2.429	c0.324-0.532,1.55-0.694,2.938-0.694c1.735,0,2.938,0.162,3.471,0.694C86.017,31.594,86.364,32.45,86.364,33.676L86.364,33.676	L86.364,33.676L86.364,33.676z M96.243,34.717v4.674h-3.818v-5.715l0,0c0-0.347,0-0.532,0-0.532c-0.347,0-0.509-0.162-0.509-0.162	c-0.162,0-0.532,0.162-0.532,0.162c0,0.186,0,0.532,0,0.879l0,0v18.394h-3.632V30.715h3.632v0.879l0,0	c0.186-0.347,0.532-0.532,0.694-0.879c0.532-0.162,0.879-0.162,1.411-0.162c0.856,0,1.55,0.162,1.897,0.856	C95.734,31.941,96.243,33.144,96.243,34.717L96.243,34.717L96.243,34.717z M101.426,41.82l-0.855,0.532l0,0l-0.162,0.348	c0,0-0.186,0.162-0.186,0.347l0,0v0.162v5.899l0,0c0,0.347,0.186,0.694,0.186,0.694s0.162,0.185,0.324,0.185	c0.184,0,0.369-0.185,0.369-0.185c0.324,0,0.324-0.347,0.324-0.694l0,0V41.82L101.426,41.82L101.426,41.82z M104.896,33.676v18.74	h-3.471v-0.694l0,0c-0.324,0.162-0.693,0.509-1.018,0.509c-0.371,0.185-0.857,0.347-1.203,0.347c-1.041,0-1.574-0.347-2.082-0.856	c-0.186-0.694-0.51-1.92-0.51-3.471l0,0v-5.043l0,0c0-0.509,0.162-1.203,0.324-1.55c0.186-0.348,0.879-0.88,1.389-1.227l0,0	l3.1-1.388v-5.368l0,0c0-0.347,0-0.532,0-0.532c-0.324,0-0.51-0.162-0.693-0.162c-0.162,0-0.324,0.162-0.324,0.162	c0,0.186-0.186,0.532-0.186,0.879l0,0v3.98h-3.609v-4.327l0,0c0-1.226,0.324-2.082,1.018-2.429	c0.533-0.532,1.574-0.694,3.102-0.694c1.572,0,2.613,0.162,3.309,0.694C104.734,31.594,104.896,32.45,104.896,33.676	L104.896,33.676L104.896,33.676L104.896,33.676z M114.799,34.717v17.699h-3.633v-18.74l0,0c0-0.347-0.186-0.532-0.186-0.532	s-0.162-0.162-0.346-0.162c-0.186,0-0.348,0.162-0.348,0.162c0,0.186-0.348,0.532-0.348,0.879l0,0v18.394h-3.471V30.715h3.471	v0.879l0,0c0.348-0.347,0.695-0.532,1.041-0.879c0.186-0.162,0.879-0.162,1.227-0.162c0.855,0,1.551,0.162,1.896,0.856	c0.533,0.532,0.695,1.735,0.695,3.656l0,0V34.717L114.799,34.717L114.799,34.717z M120.883,41.82l-0.879,0.532l0,0l-0.162,0.348	c0,0,0,0.162,0,0.347l0,0v0.162v5.899l0,0c0,0.347,0,0.694,0,0.694s0.162,0.185,0.672,0.185l0.184-0.185	c0.186,0,0.186-0.347,0.186-0.694l0,0V41.82L120.883,41.82L120.883,41.82z M124.516,33.676v18.74h-3.633v-0.694l0,0	c-0.186,0.162-0.717,0.509-1.041,0.509c-0.186,0.185-0.879,0.347-1.227,0.347c-0.693,0-1.549-0.347-1.92-0.856	c-0.348-0.694-0.508-1.92-0.508-3.471l0,0v-5.043l0,0c0-0.509,0-1.203,0.16-1.55c0.348-0.348,0.881-0.88,1.736-1.227l0,0	l2.799-1.388v-5.368l0,0c0-0.347,0-0.532,0-0.532c-0.186,0-0.369-0.162-0.369-0.162c-0.51,0-0.672,0.162-0.672,0.162	c0,0.186,0,0.532,0,0.879l0,0v3.98h-3.654v-4.327l0,0c0-1.226,0.16-2.082,0.879-2.429c0.508-0.532,1.734-0.694,3.1-0.694	c1.734,0,2.961,0.162,3.309,0.694C124.33,31.594,124.516,32.45,124.516,33.676L124.516,33.676L124.516,33.676L124.516,33.676z M120.004,26.55h3.309l-2.082,2.776h-2.43L120.004,26.55L120.004,26.55L120.004,26.55z"/><path style="fill-rule:evenodd;clip-rule:evenodd;fill:#304296;" d="M111.676,87.63c-5.9-6.062-20.454-7.635-26.353-2.777	l-34.89,29.984l-4.835,4.188h4.835h17.028c8.676,0,11.453,4.674,13.882,10.412l14.691,36.648c0.116,0.092,0.255,0.207,0.394,0.301	c3.841-3.125,7.404-4.42,10.966-5.346c2.338-0.602,4.281-0.74,4.281-0.74l9.646,0.023c4.396-0.162,8.607-0.578,12.123-2.43	c3.125-1.666,5.715-4.256,7.312-8.189c0.785-1.92,1.342-4.143,1.619-6.756v-9v-15.107L111.676,87.63L111.676,87.63z M88.793,107.227c-2.614,0-4.673-2.059-4.673-4.488c0-2.615,2.059-4.512,4.673-4.512c2.429,0,4.327,1.896,4.327,4.512	C93.12,105.168,91.222,107.227,88.793,107.227L88.793,107.227z"/><path style="fill-rule:evenodd;clip-rule:evenodd;fill:#304296;" d="M71.973,33.144v8.515h0.162l0,0	c0.185,0,0.694-0.348,0.694-0.348c0.185,0,0.185-0.532,0.185-0.879l0,0v-5.9l0,0c0-0.509,0-1.203-0.185-1.203	c0-0.186-0.509-0.186-0.694-0.186l0,0H71.973L71.973,33.144L71.973,33.144z M68.155,30.206h4.327l0,0	c1.92,0,2.938,0.163,3.308,0.694c0.509,0.509,0.856,1.897,0.856,3.817l0,0v5.206l0,0c0,2.082-0.347,3.285-0.694,3.817	c-0.532,0.509-1.55,0.856-3.124,0.856l0,0h-0.856v7.82h-3.818V30.206L68.155,30.206L68.155,30.206z"/><path style="fill-rule:evenodd;clip-rule:evenodd;fill:#304296;" d="M69.521,79.648h0.371l0,0c0.509,0,0.855,0,1.018,0	c0-0.162,0.185-0.509,0.185-0.856s-0.185-0.694-0.185-0.694c-0.162-0.186-0.509-0.532-1.018-0.532l0,0h-0.371V79.648L69.521,79.648	L69.521,79.648z M69.521,76.363h0.185l0,0c0.347,0,0.879-0.186,1.041-0.186c0.162,0,0.162-0.347,0.162-0.693	c0-0.509,0-0.694-0.162-0.694c-0.162-0.162-0.694-0.347-1.041-0.347l0,0h-0.185V76.363L69.521,76.363L69.521,76.363z M67.786,81.036V73.24h1.411l0,0c0.509,0,1.203,0.162,1.55,0.162c0.162,0,0.532,0.185,1.042,0.185c0,0.162,0.347,0.694,0.532,0.694	c0.163,0.347,0.163,0.694,0.163,1.042c0,0.509,0,0.855-0.347,1.041c-0.347,0.347-0.856,0.694-1.227,0.694	c0.694,0,1.064,0.162,1.411,0.509c0.163,0.532,0.694,0.879,0.694,1.226c0,0.509-0.185,0.856-0.532,1.041	c0,0.347-0.347,0.694-0.694,0.856c-0.185,0-0.694,0.186-0.879,0.186c-0.324,0-1.203,0.162-1.897,0.162l0,0h-0.347H67.786	L67.786,81.036L67.786,81.036z M84.466,81.036H82.2l-1.897-3.632v3.632h-1.573V73.24h2.429l0,0c0.879,0,1.573,0.162,2.083,0.347	c0.347,0.509,0.694,1.203,0.694,2.082c0,0.347-0.185,1.041-0.347,1.203c-0.347,0.347-0.856,0.532-1.226,0.532l0,0L84.466,81.036	L84.466,81.036L84.466,81.036z M80.302,76.709h0.347l0,0c0.509,0,1.203-0.347,1.388-0.347c0,0,0.163-0.532,0.163-0.694	c0-0.347-0.163-0.694-0.163-0.879c-0.185-0.162-0.879-0.347-1.388-0.347l0,0h-0.347V76.709L80.302,76.709L80.302,76.709z M93.814,78.098l-1.019-2.43l0,0v-0.347c0-0.347,0-0.532,0-0.879c0,0.347-0.185,0.532-0.185,0.532c0,0.347-0.186,0.694-0.186,0.694	l0,0l-0.855,2.43H93.814L93.814,78.098L93.814,78.098z M88.978,81.036l2.777-7.796h1.897l3.123,7.796h-1.897l-0.694-1.735h-2.962	l-0.532,1.735H88.978L88.978,81.036L88.978,81.036z M101.426,79.995l1.064-1.203l0,0c0,0.509,0.324,0.856,0.508,0.856	c0,0,0.533,0.185,0.857,0.185c0.186,0,0.879-0.185,0.879-0.185c0.162,0,0.346-0.347,0.346-0.856c0-0.185-0.346-0.694-1.039-0.879	c-0.186,0-0.348-0.509-0.51-0.509c-0.717-0.185-1.227-0.532-1.227-0.694c-0.51-0.532-0.693-0.879-0.693-1.388	c0-0.694,0.346-1.227,0.693-1.735c0.51-0.185,1.389-0.532,1.92-0.532c0.51,0,1.018,0.186,1.203,0.347	c0.348,0,0.695,0.347,1.041,0.879l0,0l-1.041,0.694l0,0c0-0.185-0.348-0.532-0.348-0.532c-0.184,0-0.346-0.162-0.693-0.162	c-0.346,0-0.531,0.162-0.531,0.347c-0.162,0.162-0.324,0.347-0.324,0.694c0,0.347,0.324,0.694,0.855,1.041l0.348,0.347	c0.693,0.162,1.041,0.509,1.389,0.694c0.346,0.509,0.693,1.041,0.693,1.388c0,0.694-0.348,1.388-0.693,1.735	c-0.695,0.347-1.389,0.694-2.268,0.694c-0.324,0-1.041-0.185-1.365-0.185C101.957,80.875,101.426,80.527,101.426,79.995	L101.426,79.995L101.426,79.995z M112.879,81.036V73.24h1.758v7.796H112.879L112.879,81.036L112.879,81.036z M120.883,81.036V73.24	h1.736v6.408h2.59v1.388H120.883L120.883,81.036L120.883,81.036z"/><path style="fill-rule:evenodd;clip-rule:evenodd;fill:#FFFFFF;" d="M114.799,65.766c-0.162,0.185-0.348,0.879-0.348,1.041	c-0.186,0.186-0.531,0.532-0.693,1.042c-0.162,0.532-0.162,1.226-0.162,1.388c0.162,0.185,0.324,0.347,0.67,0.347	c0.719,0,1.574-0.347,2.615-1.041c1.203-0.694,2.244-1.735,3.285-2.938c0-0.185,0.186-0.347,0.531-0.694	c0.348-0.347,0.695-0.694,0.695-0.694s0.162,0,0.162,0.162c0.346,0.185,0.346,0.347,0.346,0.532	c-0.346,0.347-0.508,0.694-0.855,1.041c-0.348,0.694-1.203,1.204-1.92,1.897c-1.041,0.879-2.059,1.735-2.938,2.083	c-1.043,0.532-1.736,0.879-2.592,0.879c-1.064,0-1.389-0.347-1.736-0.879c-0.369-0.348-0.369-1.203,0.162-2.083	c0.348-1.042,1.041-2.429,1.898-4.165c0.879-1.388,2.105-2.776,3.309-3.979c0.346-0.185,0.855-0.532,1.041-0.694	c0.346-0.347,0.693-0.347,0.855-0.347c0.371,0,0.531,0,0.531,0c0.186,0,0.186,0.347,0.348,0.509c0.162,0,0.348,0,0.693,0	c0.533,0.186,0.857,0.532,0.695,1.388c-0.51,1.388-1.389,2.776-2.592,4.002c-1.389,1.041-2.453,1.55-3.123,1.55	c-0.371,0-0.533,0-0.533,0c-0.346,0-0.346-0.162-0.508-0.347l0,0H114.799L114.799,65.766L114.799,65.766z M116.188,65.257	c0.16,0,0.879-0.532,1.387-1.226c0.879-0.856,1.227-1.897,1.389-2.591c0.162,0,0-0.347,0.162-0.532	c-0.162,0-0.324-0.162-0.324-0.162c-0.186,0-0.717,0.347-1.572,1.203c-0.695,1.041-1.203,1.735-1.389,2.268	c-0.162,0.347-0.162,0.509,0,0.694C115.84,65.257,116.025,65.257,116.188,65.257L116.188,65.257L116.188,65.257z"/><path style="fill-rule:evenodd;clip-rule:evenodd;fill:#FFFFFF;" d="M114.799,52.07c0-0.185-0.162-0.347-0.348-0.532	c0,0-0.186,0-0.348,0c-0.184,0-0.693,0.185-1.041,0.694c-0.184,0.532-1.041,1.226-1.734,2.429c-2.43,3.309-4.512,6.432-6.086,9.208	c-0.254,0.393-0.484,0.763-0.693,1.11c-0.115,0.07-0.23,0.232-0.324,0.44l-0.184,0.185c-1.043,1.203-1.922,2.083-2.43,2.776	c-0.695,0.509-1.041,0.694-1.389,0.694c0,0-0.186,0-0.186-0.185c0.186,0,0.186-0.347,0.371-0.856	c0.324-1.573,1.711-3.817,3.816-6.432c0.348-0.347,0.51-0.694,0.51-0.694c0.346-0.162,0-0.856,0-1.041	c-0.162-0.162-0.51-0.162-0.693-0.162c-0.186,0-0.695,0.162-0.857,0.347c-0.369,0.162-0.693,0.694-0.693,1.042	c-2.082,2.776-3.633,4.858-4.674,6.062c-1.042,1.226-2.083,1.735-2.429,1.735c-0.186,0-0.348,0-0.348-0.162	c0,0,0-0.348,0.162-0.879c0.186-0.509,0.532-1.388,1.412-2.591c0.855-1.226,1.713-2.614,2.938-4.002	c0.162,0,0.486-0.162,0.486-0.347l0.186-0.162c0-0.347,0-0.879,0-1.041c-0.186-0.185-0.51-0.185-0.834-0.185	c-0.184,0-0.369,0-0.531,0.185c-0.162,0-0.693,0.347-0.855,0.509c-1.065,1.227-2.106,2.615-2.8,4.003	c-0.393,0.625-0.717,1.249-0.995,1.805c-0.37,0.324-0.625,0.694-0.902,0.972c-0.879,0.694-1.388,1.55-2.083,1.897	c-0.347,0.185-1.041,0.532-1.226,0.532c-0.162,0-0.324-0.347-0.324-0.532c0-0.162,0-1.041,0.162-1.55	c0.162-0.185,0.162-0.694,0.347-0.879c0-0.347,0.347-0.694,0.509-0.856c3.124-3.123,5.923-6.246,8.167-9.208	c2.244-2.776,3.447-4.673,3.795-5.715c0-0.347,0-1.041-0.348-1.388c-0.348-0.532-0.879-0.879-1.203-0.879	c-0.369,0-0.879,0.185-1.389,0.347c-0.508,0.347-0.855,0.694-0.855,0.879c-0.162,0.162,0,0.347,0,0.347l-0.162,0.347	c-1.389,2.082-3.123,4.512-4.696,6.756c-1.574,2.429-2.938,4.858-4.512,7.473c-0.185,0.162-0.879,0.509-1.203,0.509	c-0.347,0-0.717,0.185-0.717,0.185c0,0.347,0,0.509,0,0.694c0,0.162,0.37,0.347,0.532,0.347h0.185l0.162-0.185v0.185	c0,0.162-0.162,0.694-0.347,0.856c0,0.185-0.162,0.532-0.162,0.694c-0.37,0.879-0.37,1.573,0,2.083	c0.162,0.532,0.671,1.041,1.365,1.041c0.37,0,0.879-0.162,1.226-0.162c0.347-0.347,0.694-0.694,1.227-0.879	c0.324-0.324,0.809-0.81,1.434-1.157c0,0.046-0.023,0.093-0.069,0.116c0,0.185,0.185,0.347,0.532,0.532	c0,0.347,0.162,0.694,0.347,0.694s0.509,0,0.879,0c0.324,0,0.856-0.185,1.735-0.694c0.3-0.324,1.227-1.25,2.176-2.059	c-0.047,0.093-0.094,0.208-0.094,0.324c0,0.162-0.369,0.347-0.369,0.347c-0.162,0.856-0.162,1.388,0,1.897	c0.369,0.532,0.693,0.694,1.225,0.694c0.486,0,0.857-0.162,1.182-0.347c0.439-0.139,0.879-0.417,1.41-0.902	c0,0.023,0,0.023-0.023,0.046c0,0.162,0,0.347,0.371,0.347c0,0,0.324,0.162,0.855,0.347c0.348,0.162,0.695,0.694,0.879,0.694	c0.162,0,0.51,0.162,0.855,0.162c0.533,0,1.389-0.162,1.922-0.347c0.67-0.509,1.203-0.856,1.896-1.388	c0.879-1.041,2.082-2.244,2.961-3.471c0.857-1.203,1.389-2.429,1.551-3.285c0.51-0.694,0.51-1.573,0.186-1.92	c0-0.694-0.348-0.856-0.879-0.856c-0.695,0-1.227,0.162-2.082,0.694c-0.811,0.324-1.482,0.81-2.43,1.573	c1.156-2.083,2.312-3.749,3.471-5.229c1.203-1.897,1.92-2.776,2.428-3.285c0,0,0.348-0.185,0.533-0.347	c0.508-0.186,0.67-0.347,0.67-0.347s0-0.347,0-0.532C115.307,52.232,115.145,52.07,114.799,52.07L114.799,52.07z M95.572,57.275	c1.365-1.92,3.123-4.35,4.65-6.779c0.186,0,0.51,0,0.51,0h0.184c0,0,0,0.185,0,0.347c-0.184,0.694-1.203,2.268-3.1,4.697	c-1.573,2.429-3.817,5.021-5.9,7.635l-0.162,0.162C92.795,61.44,94.346,59.52,95.572,57.275L95.572,57.275z M111.676,61.093	c0.184,0,0.346,0.162,0.346,0.509c0,0,0,0.347,0,0.532c-0.346,0.509-0.693,1.55-1.572,2.591c-0.857,1.041-1.898,2.43-2.592,3.471	c-0.693,0.532-1.227,1.226-1.572,1.388c-0.51,0.186-0.857,0.186-1.205,0.186c-0.508,0-0.693,0-0.855-0.186	c0-0.162,0-0.694,0.162-1.041c0.186-0.856,0.693-1.55,1.227-2.591c0.672-0.532,1.389-1.388,2.244-2.267	c0.693-0.694,1.734-1.55,2.43-1.897C110.818,61.255,111.49,61.093,111.676,61.093L111.676,61.093z"/><path style="fill-rule:evenodd;clip-rule:evenodd;fill:#FFFFFF;" d="M91.061,49.293c0.856,0.162,1.55,0.694,1.897,1.388	c0.162,0.509,0.532,1.204,0.162,1.897c-0.162,0.694-0.509,1.041-0.856,1.388c-0.347,0.185-0.879,0.347-1.203,0.347	c-0.185,0-0.532,0-0.532-0.162c-0.162-0.185-0.162-0.879,0-1.573c0-0.347,0-0.694-0.162-1.041	c-0.185-0.162-0.694-0.162-1.064-0.162c-0.694,0-1.735,0.162-2.938,0.856c-1.203,1.041-2.614,2.082-3.817,3.655	c-2.082,1.55-4.002,3.817-5.206,5.899c-1.55,2.43-2.777,4.674-3.309,6.409c-0.324,1.388-0.324,2.267,0,2.961	c0.185,0.856,1.064,1.203,2.105,1.203c0.694,0,1.551,0,2.245-0.347c0.856-0.162,1.92-0.856,2.961-1.388	c0.509-0.162,1.203-0.694,2.082-1.042c0.856-0.509,1.203-1.041,1.55-1.041c0.185,0,0.347,0.347,0.347,0.347	c-0.162,0,0,0.185,0,0.347c-0.162,0.347-0.347,0.694-0.856,1.041c-0.347,0.347-1.411,0.879-1.92,1.573	c-1.203,0.694-2.429,1.389-3.471,1.55c-1.226,0.694-2.244,1.041-2.938,1.041c-2.105,0-3.493-0.694-4.349-1.735	c-0.879-1.041-1.042-2.776-0.347-4.511c0.347-1.897,1.735-3.979,3.47-6.594c1.735-2.777,4.165-5.553,6.756-8.144	c1.388-1.92,2.799-3.309,4.188-4.003c1.018-0.856,2.082-1.388,2.753-1.388c0.185,0,0.694,0.347,1.064,0.347	c0.509,0.185,0.856,0.694,1.203,0.879l0,0H91.061L91.061,49.293L91.061,49.293z"/><path style="fill-rule:evenodd;clip-rule:evenodd;fill:#FFFFFF;" d="M133.006,127.701c0,2.246-1.711,3.98-3.979,3.98	c-1.457,0-2.684-0.717-3.379-1.828c-0.693,1.111-1.943,1.828-3.377,1.828c-1.527,0-2.799-0.787-3.471-1.99	c-0.51,0.879-1.295,1.527-2.268,1.805v30.379h-2.082V131.59c-1.203-0.256-2.152-0.996-2.684-2.061	c-0.648,1.297-1.99,2.152-3.562,2.152c-1.459,0-2.684-0.717-3.379-1.828c-0.693,1.111-1.943,1.828-3.4,1.828	c-2.221,0-3.957-1.734-3.957-3.98c0-2.266,1.736-4.002,3.957-4.002c1.457,0,2.707,0.717,3.4,1.852	c0.695-1.135,1.92-1.852,3.379-1.852c1.572,0,2.914,0.855,3.562,2.152c0.648-1.297,1.967-2.152,3.539-2.152	c1.527,0,2.801,0.787,3.494,1.99c0.672-1.203,1.943-1.99,3.471-1.99c1.434,0,2.684,0.717,3.377,1.852	c0.695-1.135,1.922-1.852,3.379-1.852C131.295,123.699,133.006,125.436,133.006,127.701L133.006,127.701z"/></g></svg>