<?xml version="1.0" encoding="UTF-8" standalone="no"?>
<!-- Created with Inkscape (http://www.inkscape.org/) -->
<svg
   xmlns:dc="http://purl.org/dc/elements/1.1/"
   xmlns:cc="http://web.resource.org/cc/"
   xmlns:rdf="http://www.w3.org/1999/02/22-rdf-syntax-ns#"
   xmlns:svg="http://www.w3.org/2000/svg"
   xmlns="http://www.w3.org/2000/svg"
   xmlns:xlink="http://www.w3.org/1999/xlink"
   xmlns:sodipodi="http://sodipodi.sourceforge.net/DTD/sodipodi-0.dtd"
   xmlns:inkscape="http://www.inkscape.org/namespaces/inkscape"
   width="452.04501"
   height="452.422"
   id="svg2598"
   sodipodi:version="0.32"
   inkscape:version="0.45.1"
   version="1.0"
   sodipodi:docbase="C:\Temp"
   sodipodi:docname="Paysandu FC2.svg"
   inkscape:output_extension="org.inkscape.output.svg.inkscape">
  <defs
     id="defs2600">
    <clipPath
       id="SVGID_64_">
				<use
   xlink:href="#SVGID_63_"
   overflow="visible"
   id="use361"
   style="overflow:visible"
   x="0"
   y="0"
   width="744.09448"
   height="1052.3622" />

			</clipPath>
    <clipPath
       id="SVGID_62_">
			<use
   xlink:href="#SVGID_61_"
   overflow="visible"
   id="use353"
   style="overflow:visible"
   x="0"
   y="0"
   width="744.09448"
   height="1052.3622" />

		</clipPath>
    <clipPath
       id="SVGID_60_">
				<use
   xlink:href="#SVGID_59_"
   overflow="visible"
   id="use339"
   style="overflow:visible"
   x="0"
   y="0"
   width="744.09448"
   height="1052.3622" />

			</clipPath>
    <clipPath
       id="SVGID_58_">
			<use
   xlink:href="#SVGID_57_"
   overflow="visible"
   id="use331"
   style="overflow:visible"
   x="0"
   y="0"
   width="744.09448"
   height="1052.3622" />

		</clipPath>
    <clipPath
       id="SVGID_56_">
				<use
   xlink:href="#SVGID_55_"
   overflow="visible"
   id="use317"
   style="overflow:visible"
   x="0"
   y="0"
   width="744.09448"
   height="1052.3622" />

			</clipPath>
    <clipPath
       id="SVGID_54_">
			<use
   xlink:href="#SVGID_53_"
   overflow="visible"
   id="use309"
   style="overflow:visible"
   x="0"
   y="0"
   width="744.09448"
   height="1052.3622" />

		</clipPath>
  </defs>
  <sodipodi:namedview
     id="base"
     pagecolor="#ffffff"
     bordercolor="#ffffff"
     borderopacity="0.0"
     inkscape:pageopacity="0.0"
     inkscape:pageshadow="0"
     inkscape:zoom="0.35"
     inkscape:cx="350"
     inkscape:cy="520"
     inkscape:document-units="px"
     inkscape:current-layer="layer1"
     inkscape:window-width="744"
     inkscape:window-height="573"
     inkscape:window-x="858"
     inkscape:window-y="183" />
  <metadata
     id="metadata2603">
    <rdf:RDF>
      <cc:Work
         rdf:about="">
        <dc:format>image/svg+xml</dc:format>
        <dc:type
           rdf:resource="http://purl.org/dc/dcmitype/StillImage" />
      </cc:Work>
    </rdf:RDF>
  </metadata>
  <g
     inkscape:label="Layer 1"
     inkscape:groupmode="layer"
     id="layer1"
     transform="translate(-123.9775,-306.15118)">
    <g
       transform="translate(123.9775,-2.7828174)"
       id="g3">
	<path
   clip-rule="evenodd"
   d="M 226.022,761.356 C 119.077,696.161 20.313,585.508 0,399.746 C 47.282,386.181 86.075,350.593 109.629,308.934 L 342.417,308.934 C 365.971,350.592 404.763,386.18 452.045,399.746 C 431.732,585.508 332.968,696.161 226.022,761.356 L 226.022,761.356 z "
   id="path5"
   style="fill:#0091cf;fill-rule:evenodd" />

	<path
   clip-rule="evenodd"
   d="M 226.022,739.693 C 345.001,663.625 413.109,551.922 431.991,412.364 C 390.471,396.275 355.634,364.888 331.989,327.311 L 120.056,327.311 C 96.412,364.888 61.575,396.275 20.055,412.364 C 38.937,551.922 107.044,663.625 226.022,739.693 L 226.022,739.693 z M 226.022,726.548 C 256.645,706.36 283.687,683.714 307.207,658.748 L 307.207,560.469 L 321.14,560.469 L 321.14,643.2 C 374.078,581.102 406.793,505.833 419.866,419.271 C 381.533,402.346 349.132,373.126 325.993,338.336 L 321.14,338.336 L 321.14,491.475 L 307.207,491.475 L 307.207,338.337 L 144.838,338.337 L 144.838,491.476 L 130.906,491.476 L 130.906,338.337 L 126.053,338.337 C 102.914,373.127 70.513,402.347 32.181,419.272 C 45.253,505.834 77.969,581.103 130.906,643.201 L 130.906,560.47 L 144.838,560.47 L 144.838,658.749 C 168.358,683.714 195.4,706.36 226.022,726.548 L 226.022,726.548 z M 99.171,527.047 C 108.254,532.256 120.724,535.003 129.712,536.155 L 135.066,536.842 L 132.466,541.571 C 132.04,542.344 131.425,543.009 130.684,543.586 C 140.535,545.191 153.249,544.17 160.635,542.778 L 167.726,541.443 L 164.954,547.294 C 167.319,547.02 169.631,546.576 171.492,546.224 C 176.49,545.275 182.176,543.949 187.257,544.181 C 193.561,544.469 199.201,546.487 204.227,549.669 C 203.757,548.081 203.286,546.493 202.816,544.906 C 194.626,534.281 186.9,523.622 175.891,515.632 C 161.451,505.152 144.691,501.868 127.115,501.844 C 106.66,501.815 86.905,498.789 67.489,492.922 C 75.391,505.695 87.621,512.683 101.697,519.269 L 107.897,522.17 L 102.054,525.735 C 101.132,526.297 100.167,526.723 99.171,527.047 L 99.171,527.047 z M 243.745,543.629 C 243.08,523.615 258.811,509.058 284.617,503.728 C 318.868,496.653 367.684,503.866 386.925,501.993 C 385.823,516.281 359.498,525.521 350.174,528.547 C 352.434,531.669 357.889,531.737 363.132,531.097 C 353.859,541.122 335.588,544.944 317.247,543.63 C 316.385,546.178 318.16,548.728 320.858,551.277 C 302.332,554.376 293.987,547.438 286.444,541.293 C 285.311,542.851 285.988,544.939 287.503,548.402 C 272.316,545.026 254.288,539.456 243.745,543.629 L 243.745,543.629 z M 184.576,493.921 C 194.07,508.076 200.152,523.508 203.087,539.221 C 187.537,518.924 171.263,498.23 127.12,498.168 C 105.721,498.138 83.713,494.841 60.203,486.696 C 68.44,506.614 84.759,515.401 100.138,522.597 C 97.181,524.401 92.973,524.404 89.733,524.511 C 97.391,532.307 112.547,537.658 129.244,539.8 C 128.188,541.721 123.749,542.77 119.582,543.84 C 129.704,549.665 150.521,548.422 161.314,546.39 C 160.233,548.67 157.619,549.556 155.16,550.426 C 163.897,553.307 177.901,547.432 187.088,547.852 C 193.885,548.163 199.807,550.738 204.962,554.647 C 205.388,562.048 205.142,569.441 204.251,576.721 C 203.517,582.715 196.491,587.335 197.046,593.348 C 197.637,599.752 204.212,604.91 207.829,610.228 C 213.908,619.168 216.707,630.102 222.331,636.456 C 222.89,637.088 224.071,640.334 226.658,642.718 C 228.511,644.425 231.841,643.897 232.026,642.449 C 232.401,639.533 229.554,636.469 228.162,634.362 C 229.154,635.418 232.808,641.195 233.156,641.792 C 234.631,644.334 240.004,644.229 239.984,641.081 C 239.967,638.66 238.572,635.373 235.866,632.078 C 237.929,634.226 240.096,638.514 241.917,639.626 C 245.165,641.611 248.194,640.017 248.875,638.844 C 249.96,636.972 247.727,631.927 243.88,628.543 C 246.793,631.002 248.867,635.133 250.024,636.314 C 254.439,640.826 258.623,635.995 258.588,633.587 C 258.526,629.333 255.265,628.088 254.133,626.048 C 254.723,626.933 256.18,628.272 256.936,629.057 C 257.724,629.875 257.399,630.283 258.396,631.215 C 259.543,632.288 261.059,633.564 262.415,633.834 C 267.077,634.764 269.879,629.932 269.043,626.9 C 267.673,621.933 263.438,623.181 260.244,618.36 C 251.306,604.867 236.09,593.505 233.917,578.143 C 229.646,547.956 238.728,510.303 251.93,490.706 C 242.439,488.958 235.55,492.324 231.001,498.692 C 228.78,491.672 226.894,484.256 221.434,477.234 C 215.504,484.894 211.692,492.243 208.939,499.548 C 199.788,493.807 191.603,494.014 184.576,493.921 L 184.576,493.921 z M 229.58,640.171 C 229.043,640.297 227.32,640.697 228.095,641.356 C 228.917,642.051 230.653,641.212 230.51,640.783 C 230.384,640.405 229.957,640.201 229.58,640.171 L 229.58,640.171 z M 237.161,638.986 C 236.395,639.168 233.935,639.762 235.124,640.769 C 236.276,641.745 238.759,640.611 238.519,639.88 C 238.334,639.326 237.715,639.023 237.161,638.986 L 237.161,638.986 z M 245.692,635.334 C 244.8,635.546 241.948,636.246 243.356,637.441 C 244.691,638.57 247.574,637.271 247.279,636.379 C 247.063,635.731 246.341,635.374 245.692,635.334 L 245.692,635.334 z M 254.16,629.941 C 252.964,630.225 249.175,631.185 251.108,632.822 C 252.882,634.324 256.723,632.627 256.3,631.353 C 256.01,630.477 255.036,629.991 254.16,629.941 L 254.16,629.941 z M 259.146,626.254 C 260.012,627.153 261.38,628.474 262.294,628.952 C 263.554,629.61 266.208,628.463 266.68,627.086 C 267.256,625.403 265.565,624.732 264.245,624.37 C 263.022,624.035 260.447,625.427 259.146,626.254 L 259.146,626.254 z M 229.548,639.801 C 229.548,639.801 230.581,639.835 230.859,640.666 C 231.134,641.495 228.961,642.568 227.858,641.636 C 226.758,640.701 228.375,640.081 229.548,639.801 L 229.548,639.801 z M 237.127,638.617 C 237.127,638.617 238.5,638.661 238.867,639.764 C 239.229,640.865 236.347,642.285 234.886,641.05 C 233.424,639.81 235.571,638.985 237.127,638.617 L 237.127,638.617 z M 245.659,634.964 C 245.659,634.964 247.213,635.015 247.628,636.264 C 248.041,637.512 244.775,639.122 243.118,637.723 C 241.463,636.315 243.896,635.382 245.659,634.964 L 245.659,634.964 z M 254.126,629.572 C 254.126,629.572 256.118,629.637 256.649,631.237 C 257.18,632.837 252.996,634.902 250.871,633.103 C 248.747,631.305 251.867,630.105 254.126,629.572 L 254.126,629.572 z M 258.575,626.188 C 258.575,626.188 262.508,623.514 264.342,624.016 C 266.176,624.518 267.639,625.42 267.028,627.205 C 266.417,628.989 263.404,629.947 262.125,629.278 C 260.846,628.609 258.575,626.188 258.575,626.188 L 258.575,626.188 z M 381.879,505.962 C 379.54,506.02 377.193,505.995 374.89,505.952 C 369.619,505.854 364.344,505.609 359.078,505.363 C 346.6,504.781 334.118,504.162 321.623,504.226 C 309.646,504.288 297.109,504.899 285.36,507.327 C 268.152,510.881 249.674,520.353 247.593,538.873 C 257.859,537.366 271.601,540.779 282.215,543.371 C 282.164,541.913 282.492,540.475 283.47,539.132 L 285.753,535.989 L 288.765,538.443 C 292.599,541.566 296.225,544.489 300.884,546.334 C 305.122,548.011 309.592,548.518 314.07,548.323 C 313.296,546.519 313.054,544.552 313.764,542.451 L 314.674,539.76 L 317.508,539.963 C 327.96,540.711 342.261,539.789 352.677,534.369 C 350.505,533.729 348.568,532.596 347.196,530.701 L 344.234,526.609 L 349.039,525.049 C 357.094,522.437 376.495,515.391 381.879,505.962 L 381.879,505.962 z M 381.479,453.869 L 396.512,465.798 C 393.473,470.133 390.086,473.413 386.344,475.652 C 382.603,477.892 378.573,479.099 374.273,479.283 C 369.964,479.479 364.986,478.444 359.348,476.213 C 352.489,473.498 347.273,470.278 343.725,466.581 C 340.168,462.863 337.797,457.862 336.629,451.591 C 335.476,445.323 336.429,438.278 339.525,430.448 C 343.661,420.008 349.616,413.07 357.384,409.673 C 365.154,406.261 374.123,406.565 384.274,410.58 C 392.219,413.727 397.827,417.8 401.104,422.817 C 404.387,427.837 405.809,434.111 405.38,441.632 L 386.651,438.653 C 386.81,436.491 386.736,434.83 386.427,433.672 C 385.931,431.76 385.046,430.083 383.794,428.654 C 382.528,427.218 380.92,426.124 378.971,425.351 C 374.563,423.607 370.467,424.043 366.712,426.664 C 363.885,428.606 361.351,432.393 359.111,438.046 C 356.34,445.054 355.515,450.265 356.599,453.704 C 357.705,457.143 360.172,459.619 364.004,461.134 C 367.734,462.613 370.967,462.687 373.709,461.341 C 376.444,460.013 379.029,457.52 381.479,453.869 L 381.479,453.869 z M 46.59,430.761 L 73.899,409.115 C 79.84,404.404 85.414,402.281 90.619,402.772 C 95.816,403.248 100.499,406.107 104.63,411.318 C 108.889,416.691 110.606,422.163 109.77,427.743 C 108.935,433.326 105.205,438.742 98.58,443.991 L 89.595,451.116 L 105.237,470.846 L 88.735,483.926 L 46.59,430.761 L 46.59,430.761 z M 81.06,440.343 L 85.083,437.155 C 88.25,434.643 90.035,432.342 90.447,430.218 C 90.849,428.105 90.374,426.185 89.019,424.476 C 87.695,422.806 86.009,421.825 83.986,421.553 C 81.959,421.268 79.406,422.344 76.336,424.776 L 71.657,428.486 L 81.06,440.343 L 81.06,440.343 z M 189.371,409.998 L 213.129,408.514 C 213.636,412.37 214.687,415.305 216.269,417.335 C 218.826,420.609 222.517,422.226 227.293,422.226 C 230.849,422.226 233.592,421.398 235.531,419.727 C 237.45,418.051 238.408,416.113 238.41,413.913 C 238.409,411.826 237.508,409.945 235.664,408.288 C 233.818,406.636 229.569,405.073 222.872,403.605 C 211.924,401.141 204.119,397.885 199.454,393.803 C 194.75,389.722 192.399,384.531 192.399,378.209 C 192.4,374.052 193.604,370.121 196.01,366.435 C 198.421,362.747 202.032,359.852 206.864,357.724 C 211.699,355.618 218.321,354.565 226.728,354.564 C 237.056,354.564 244.936,356.485 250.356,360.322 C 255.772,364.16 258.989,370.273 260.025,378.643 L 236.493,380.015 C 235.871,376.384 234.554,373.733 232.541,372.08 C 230.548,370.443 227.782,369.614 224.265,369.613 C 221.35,369.613 219.168,370.216 217.701,371.457 C 216.232,372.68 215.499,374.184 215.498,375.957 C 215.498,377.231 216.102,378.38 217.307,379.416 C 218.49,380.485 221.276,381.464 225.696,382.386 C 236.606,384.74 244.411,387.125 249.133,389.533 C 253.855,391.938 257.298,394.913 259.444,398.487 C 261.589,402.042 262.679,406.03 262.677,410.452 C 262.676,415.624 261.231,420.402 258.371,424.764 C 255.51,429.149 251.502,432.461 246.35,434.718 C 241.215,436.973 234.724,438.103 226.899,438.103 C 213.169,438.103 203.649,435.47 198.363,430.165 C 193.056,424.879 190.064,418.164 189.371,409.998 L 189.371,409.998 z "
   id="path7"
   style="fill:#ffffff;fill-rule:evenodd" />

	
	
	
	
	
	
	
	
	
	
	
	
	
	
	
	
	
	
	
	
	
	
	
	
	
	
	
	
	
	
	<g
   id="g303">
		<defs
   id="defs305">
			<path
   id="SVGID_53_"
   d="M 224.284,150.517 C 225.462,151.411 228.857,154.086 228.967,155.302 C 228.967,155.302 219.61,161.852 218.54,163.456 C 218.54,163.456 208.38,161.184 206.108,162.52 C 206.108,162.52 206.696,158.513 206.365,156.432 C 211.549,152.987 217.678,150.856 224.284,150.517 L 224.284,150.517 z " />

		</defs>

		<clipPath
   id="clipPath2624">
			<use
   xlink:href="#SVGID_53_"
   overflow="visible"
   id="use2626"
   style="overflow:visible"
   x="0"
   y="0"
   width="744.09448"
   height="1052.3622" />

		</clipPath>

		<g
   clip-path="url(#SVGID_54_)"
   id="g311">
			<defs
   id="defs313">
				<rect
   id="SVGID_55_"
   x="206.10699"
   y="150.517"
   width="22.858999"
   height="12.938" />

			</defs>

			<clipPath
   id="clipPath2631">
				<use
   xlink:href="#SVGID_55_"
   overflow="visible"
   id="use2633"
   style="overflow:visible"
   x="0"
   y="0"
   width="744.09448"
   height="1052.3622" />

			</clipPath>

			<g
   transform="translate(1.620298e-6,-1.65352e-6)"
   clip-path="url(#SVGID_56_)"
   id="g319">
				
					
			</g>

		</g>

	</g>

	
	<g
   id="g325">
		<defs
   id="defs327">
			<path
   id="SVGID_57_"
   d="M 248.462,158.27 L 245.008,161.851 C 245.008,161.851 249.286,170.808 249.019,173.214 C 249.019,173.214 256.638,176.824 259.179,179.898 L 260.64,176.609 C 258.587,169.275 254.26,162.894 248.462,158.27 L 248.462,158.27 z " />

		</defs>

		<clipPath
   id="clipPath2639">
			<use
   xlink:href="#SVGID_57_"
   overflow="visible"
   id="use2641"
   style="overflow:visible"
   x="0"
   y="0"
   width="744.09448"
   height="1052.3622" />

		</clipPath>

		<g
   clip-path="url(#SVGID_58_)"
   id="g333">
			<defs
   id="defs335">
				<rect
   id="SVGID_59_"
   x="245.008"
   y="158.27"
   width="15.632"
   height="21.627001" />

			</defs>

			<clipPath
   id="clipPath2646">
				<use
   xlink:href="#SVGID_59_"
   overflow="visible"
   id="use2648"
   style="overflow:visible"
   x="0"
   y="0"
   width="744.09448"
   height="1052.3622" />

			</clipPath>

			<g
   transform="translate(4.953836e-6,-2.304048e-6)"
   clip-path="url(#SVGID_60_)"
   id="g341">
				
					
			</g>

		</g>

	</g>

	
	<g
   id="g347">
		<defs
   id="defs349">
			<polygon
   id="SVGID_61_"
   points="222.817,176.422 213.326,188.32 223.486,202.089 238.057,197.543 237.789,182.304 222.817,176.422 " />

		</defs>

		<clipPath
   id="clipPath2654">
			<use
   xlink:href="#SVGID_61_"
   overflow="visible"
   id="use2656"
   style="overflow:visible"
   x="0"
   y="0"
   width="744.09448"
   height="1052.3622" />

		</clipPath>

		<g
   clip-path="url(#SVGID_62_)"
   id="g355">
			<defs
   id="defs357">
				<rect
   id="SVGID_63_"
   x="213.326"
   y="176.422"
   width="24.73"
   height="25.667" />

			</defs>

			<clipPath
   id="clipPath2661">
				<use
   xlink:href="#SVGID_63_"
   overflow="visible"
   id="use2663"
   style="overflow:visible"
   x="0"
   y="0"
   width="744.09448"
   height="1052.3622" />

			</clipPath>

			<g
   transform="translate(1.33735e-6,6.567934e-6)"
   clip-path="url(#SVGID_64_)"
   id="g363">
				
					
			</g>

		</g>

	</g>

	
	
	
	
	
	
	
	
</g>
  </g>
</svg>
