<?xml version="1.0" encoding="iso-8859-1"?><!-- Generator: Adobe Illustrator 16.0.0, SVG Export Plug-In . SVG Version: 6.00 Build 0) --><!DOCTYPE svg PUBLIC "-//W3C//DTD SVG 1.1//EN" "http://www.w3.org/Graphics/SVG/1.1/DTD/svg11.dtd"><svg version="1.1" id="Layer_1" xmlns="http://www.w3.org/2000/svg" xmlns:xlink="http://www.w3.org/1999/xlink" x="0px" y="0px" width="192.756px" height="192.756px" viewBox="0 0 192.756 192.756" style="enable-background:new 0 0 192.756 192.756;" xml:space="preserve"><g><polygon style="fill-rule:evenodd;clip-rule:evenodd;fill:#FFFFFF;" points="0,0 192.756,0 192.756,192.756 0,192.756 0,0	"/><path style="fill-rule:evenodd;clip-rule:evenodd;" d="M96.353,182.66c-18.023-17.297-31.437-10.461-49.564-28.02l-5.023,4.248	c-15.227-10.566-25.118-23.979-31.333-39.465c-11.912-2.07-9.012-15.174,3.107-14.189l20.612-39.362l-17.608-9.271l23.72-42.882	c23.15,5.024,25.896-13,56.089,3.47c30.298-16.47,32.989,1.554,56.192-3.47l23.668,42.882l-17.609,9.271l20.613,39.362	c12.119-0.984,15.02,12.119,3.107,14.189c-6.215,15.486-16.107,28.898-31.334,39.465l-4.971-4.248	C127.893,172.199,114.428,165.363,96.353,182.66L96.353,182.66z"/><path style="fill-rule:evenodd;clip-rule:evenodd;fill:#FFFFFF;" d="M12.141,109.635h5.749l24.187-46.299l-17.454-9.167	l18.696-33.923c8.183,1.605,17.246-1.709,25.015-3.729c5.127-0.88,9.012-0.466,13.932,0.881c4.869,1.45,9.582,4.04,14.035,6.37	c7.303-3.729,14.813-7.821,23.151-7.821c7.975,0.777,15.227,4.092,23.254,4.558c1.969,0,4.713,0.104,6.629-0.259l18.695,33.923	l-17.453,9.167l24.188,46.299h5.438c5.127,0,4.557,5.801,0,5.801h-2.59c-3.471,8.027-7.51,16.107-13.154,22.943	c-4.092,4.869-8.441,8.961-13.207,12.947l-5.541-4.764c-5.543,5.387-10.877,10.357-18.076,13.361	c-4.143,1.865-8.648,3.107-12.895,4.713c-6.629,2.123-13.104,5.697-18.438,10.1c-5.282-4.402-11.86-8.027-18.386-10.1	c-6.163-2.383-12.637-4.092-18.333-7.51c-4.765-2.848-8.649-6.68-12.637-10.564l-5.49,4.764	c-8.856-7.301-15.588-14.863-21.234-24.963c-1.761-3.469-3.47-7.354-5.023-11.031h-3.056	C7.894,115.332,7.687,109.635,12.141,109.635L12.141,109.635z"/><polygon style="fill-rule:evenodd;clip-rule:evenodd;" points="90.048,84 90.048,90.939 94.484,90.939 94.484,84 90.048,84	"/><polygon style="fill-rule:evenodd;clip-rule:evenodd;" points="88.61,58.467 88.61,65.407 99.16,65.407 99.16,58.467 88.61,58.467	"/><polygon style="fill-rule:evenodd;clip-rule:evenodd;" points="89.688,72.761 89.688,79.701 100.479,79.701 100.479,72.761	89.688,72.761	"/><polygon style="fill-rule:evenodd;clip-rule:evenodd;" points="87.171,47.435 87.171,54.375 105.514,54.375 105.514,47.435	87.171,47.435	"/><polygon style="fill-rule:evenodd;clip-rule:evenodd;" points="81.548,130.662 81.458,130.662 81.458,137.604 110.549,137.604	110.549,130.662 81.548,130.662	"/><polygon style="fill-rule:evenodd;clip-rule:evenodd;" points="87.531,115.436 87.531,122.377 104.434,122.377 104.434,115.436	87.531,115.436	"/><polygon style="fill-rule:evenodd;clip-rule:evenodd;" points="90.408,93.684 90.408,100.625 101.197,100.625 101.197,93.684	90.408,93.684	"/><path style="fill-rule:evenodd;clip-rule:evenodd;" d="M23.949,109.635h2.589c1.761,0,3.211,1.295,3.211,2.85	c0,1.656-1.45,2.951-3.211,2.951l-5.645-0.051c4.661,11.082,11.394,20.82,20.509,28.898l5.645-4.816l4.298,3.988	c2.072,2.072,8.235,9.062,12.688,9.115c37.239,0.777,35.323-107.932,14.295-129.528c-1.762-1.864-6.422-1.812-9.167-1.243	c-7.614,2.124-14.968,4.402-22.892,4.195L31.873,51.993l17.35,9.115L23.949,109.635L23.949,109.635z"/><path style="fill-rule:evenodd;clip-rule:evenodd;fill:#CD3529;" d="M168.549,109.635h-2.693c-1.762,0-3.16,1.295-3.16,2.85	c0,1.656,1.398,2.951,3.16,2.951l5.748-0.051c-4.609,11.082-11.342,20.82-20.457,28.898l-5.645-4.816l-4.352,3.988	c-2.07,2.072-8.234,9.062-12.637,9.115c-37.289,0.777-35.321-107.879-14.293-129.528c1.76-1.864,6.422-1.812,9.166-1.243	c7.613,2.124,14.967,4.402,22.891,4.195l14.398,25.998l-17.35,9.115L168.549,109.635L168.549,109.635z"/><polygon style="fill-rule:evenodd;clip-rule:evenodd;fill:#FFFFFF;" points="98.166,59.477 81.696,59.477 81.696,64.397	98.166,64.397 98.166,59.477	"/><path style="fill-rule:evenodd;clip-rule:evenodd;fill:#FFFFFF;" d="M67.065,65.396c0.072-0.337,0.7-0.936,1.046-0.999	c0.071,0,4.567,0,4.567,0v-4.92h-4.604c-2.937,0-5.93,2.966-5.93,5.878v6.474h4.92C67.065,71.829,67.065,65.476,67.065,65.396	L67.065,65.396z"/><polygon style="fill-rule:evenodd;clip-rule:evenodd;fill:#FFFFFF;" points="120.072,73.771 115.877,73.771 115.877,78.691	120.072,78.691 120.072,73.771	"/><polygon style="fill-rule:evenodd;clip-rule:evenodd;fill:#FFFFFF;" points="106.141,73.771 81.851,73.771 81.851,78.691	106.141,78.691 106.141,73.771	"/><path style="fill-rule:evenodd;clip-rule:evenodd;fill:#FFFFFF;" d="M60.358,78.691h12.528v-4.92H60.358	c-5.564,0-9.707,5.087-10.074,12.372c-0.017,0.338-0.025,0.674-0.025,1.004c0,6.847,4.12,11.908,9.527,12.455l-0.009-4.895	c-3.208-0.324-4.596-4.055-4.596-7.625c0-0.231,0.006-0.462,0.018-0.691C55.391,82.564,57.225,78.691,60.358,78.691L60.358,78.691z	"/><polygon style="fill-rule:evenodd;clip-rule:evenodd;fill:#FFFFFF;" points="69.266,99.613 72.581,99.613 72.581,94.694	69.266,94.694 69.266,99.613	"/><polygon style="fill-rule:evenodd;clip-rule:evenodd;fill:#FFFFFF;" points="106.141,94.694 82.265,94.694 82.265,99.613	106.141,99.613 106.141,94.694	"/><path style="fill-rule:evenodd;clip-rule:evenodd;fill:#FFFFFF;" d="M118.207,116.447h-2.33v4.92h2.33	c5.848,0,9.002-7.27,9.002-14.107c0-2.227-0.328-5.457-1.889-8.207c-1.598-2.811-4.123-4.358-7.113-4.358h-2.33v4.919h2.33	c0.762,0,1.883,0.195,2.834,1.869c0.805,1.416,1.246,3.467,1.246,5.777C122.287,112.066,120.344,116.447,118.207,116.447	L118.207,116.447z"/><polygon style="fill-rule:evenodd;clip-rule:evenodd;fill:#FFFFFF;" points="81.851,121.367 106.141,121.367 106.141,116.447	81.851,116.447 81.851,121.367	"/><polygon style="fill-rule:evenodd;clip-rule:evenodd;fill:#FFFFFF;" points="69.421,121.367 72.166,121.367 72.166,116.447	69.421,116.447 69.421,121.367	"/><polygon style="fill-rule:evenodd;clip-rule:evenodd;fill:#FFFFFF;" points="56.68,121.367 59.685,121.367 59.685,116.447	56.68,116.447 56.68,121.367	"/><path style="fill-rule:evenodd;clip-rule:evenodd;fill:#FFFFFF;" d="M79.65,54.272c0-0.414,0.139-0.906,0.803-0.906h35.01	c0.736,0,1.373,0,1.373,2.149h4.92c0-4.427-2.354-7.07-6.293-7.07h-35.01c-3.263,0-5.723,2.505-5.723,5.827V81.98h4.92V54.272	L79.65,54.272z"/><path style="fill-rule:evenodd;clip-rule:evenodd;fill:#FFFFFF;" d="M117.133,129.34c0.016,0.084,0.021,0.535,0.021,0.631	c0,0.498-0.199,1.104-0.5,1.463c-0.199,0.238-0.322,0.238-0.363,0.238H80.453c-0.495,0-0.803-0.346-0.803-0.904V91.716h-4.92	v39.051c0,3.266,2.514,5.824,5.723,5.824h35.838c1.588,0,3.057-0.711,4.137-2c1.049-1.254,1.646-2.98,1.646-4.631	c0-0.383-0.033-0.188-0.1-0.557L117.133,129.34L117.133,129.34z"/><path style="fill-rule:evenodd;clip-rule:evenodd;fill:#FFFFFF;" d="M133.254,72.658v-9.271c0-3.184-2.428-5.774-5.414-5.774	H113.65c-3.012,0-5.465,2.59-5.465,5.774v58.266c0,3.184,2.453,5.773,5.465,5.773h14.189c3.238,0,5.414-2.32,5.414-5.773v-6.111	h-4.92v6.111c0,0.508-0.107,0.752-0.15,0.809c-0.018,0.01-0.107,0.045-0.344,0.045H113.65c-0.217,0-0.545-0.342-0.545-0.854V63.386	c0-0.513,0.328-0.854,0.545-0.854h14.189c0.17,0,0.494,0.361,0.494,0.854v9.271H133.254L133.254,72.658z"/><polygon style="fill-rule:evenodd;clip-rule:evenodd;fill:#FFFFFF;" points="93.4,89.93 93.4,85.009 67.065,85.009 67.065,80.794	62.145,80.794 62.145,126.986 67.065,126.986 67.065,89.93 93.4,89.93	"/></g></svg>