<?xml version="1.0" encoding="iso-8859-1"?><!-- Generator: Adobe Illustrator 16.0.0, SVG Export Plug-In . SVG Version: 6.00 Build 0) --><!DOCTYPE svg PUBLIC "-//W3C//DTD SVG 1.1//EN" "http://www.w3.org/Graphics/SVG/1.1/DTD/svg11.dtd"><svg version="1.1" id="Layer_1" xmlns="http://www.w3.org/2000/svg" xmlns:xlink="http://www.w3.org/1999/xlink" x="0px" y="0px" width="192.756px" height="192.756px" viewBox="0 0 192.756 192.756" style="enable-background:new 0 0 192.756 192.756;" xml:space="preserve"><g><polygon style="fill-rule:evenodd;clip-rule:evenodd;fill:#FFFFFF;" points="0,0 192.756,0 192.756,192.756 0,192.756 0,0	"/><path style="fill:none;stroke:#9EA176;stroke-width:0.9293;stroke-linecap:round;stroke-linejoin:round;stroke-miterlimit:2.6131;" d="	M50.913,45.107v0.14 M64.896,63.365h0.372"/><path style="fill-rule:evenodd;clip-rule:evenodd;fill:#C6232D;" d="M150.469,83.016c0-0.046,0-0.279,0-0.65	c0.883-16.91-1.533-36.05-7.342-57.467c-31.682-10.267-62.901-10.312-93.655-0.139c-10.499,39.023-9.755,72.007,2.277,98.998	c0.139,0.232,0.232,0.465,0.372,0.744c0,0,1.068,2.045,3.159,6.225c-0.046,0-0.046,0-0.046,0c0.279,0.557,0.65,1.162,0.976,1.766	c8.919,15.842,22.252,29.453,39.952,40.789c29.779-18.955,47.339-44.18,52.728-75.725c0.047-0.371,0.094-0.742,0.186-1.068h-0.047	L150.469,83.016L150.469,83.016z"/><path style="fill-rule:evenodd;clip-rule:evenodd;fill:#9EA176;" d="M160.178,26.386C117.438,8.454,74.883,8.5,32.562,26.525	c-19.093,70.428,2.23,121.53,63.924,153.26C158.041,147.822,179.271,96.674,160.178,26.386L160.178,26.386z M146.055,25.875	c3.531,1.208,6.922,2.463,10.174,3.856v0.093c5.018,19.187,6.969,36.886,5.762,53.192H109.68	c-4.043-2.416-8.502-3.577-13.426-3.577l-0.929,0.046c-4.6,0.093-8.781,1.255-12.498,3.531H57.602	c-1.719,0.046-3.159,0.604-4.274,1.719c-1.115,0.929-1.719,2.137-1.858,3.53h-2.694c-2.417,2.509-2.417,4.971,0,7.433h2.694	c0.092,1.348,0.697,2.602,1.858,3.717c1.208,1.068,2.602,1.625,4.135,1.672c0.093,0,0.14,0,0.232,0.047l12.404-0.65	c-0.372,1.811-0.557,3.67-0.557,5.668c0,1.301,0.046,2.461,0.186,3.484c-4.553,6.131-10.406,11.055-17.607,14.865l-2.137,1.115	c-1.672,0.789-3.624,1.578-5.807,2.416c-15.703-26.574-18.351-59.326-7.898-98.348c3.205-1.395,6.504-2.648,9.849-3.811	l3.345-1.114c30.754-10.174,61.974-10.128,93.655,0.139L146.055,25.875L146.055,25.875z M88.263,106.383	c0,0.697,0.046,1.303,0.139,1.812l-11.15,6.457c-1.115-2.508-1.672-5.248-1.672-8.223c0-3.02,0.557-5.76,1.672-8.27l11.15,6.459	C88.309,105.176,88.263,105.732,88.263,106.383L88.263,106.383z M96.207,102.945H96.3c0.418,0,0.883,0.047,1.301,0.232	c0.186,0.047,0.51,0.232,0.975,0.605l0.186,0.186c0.512,0.51,0.836,1.115,0.977,1.904l-0.047,1.207	c-0.139,0.605-0.465,1.162-0.93,1.719c-0.092,0-0.139,0.047-0.186,0.141c-0.418,0.324-0.789,0.557-1.162,0.697	c-0.371,0.092-0.743,0.139-1.114,0.139l-1.022-0.139c-0.465-0.141-0.882-0.373-1.208-0.697c-0.093-0.047-0.139-0.094-0.139-0.141	c-0.557-0.557-0.883-1.113-0.929-1.719l-0.093-0.697l0.046-0.51c0.093-0.789,0.418-1.395,0.976-1.904	c0-0.094,0.046-0.141,0.139-0.141c0.372-0.324,0.697-0.557,1.022-0.65C95.278,103.086,95.65,102.992,96.207,102.945L96.207,102.945	z M93.837,98.672c-1.161,0.371-2.183,0.977-3.02,1.859l-11.149-6.505c0.697-0.975,1.394-1.718,1.998-2.276	c3.391-3.438,7.433-5.436,12.171-5.946V98.672L93.837,98.672z M81.666,121.064c-0.79-0.789-1.44-1.533-2.044-2.322l11.196-6.459	c0.929,0.838,1.951,1.441,3.02,1.812v12.916C89.146,126.5,85.104,124.502,81.666,121.064L81.666,121.064z M75.023,122.412	c0.464,0.604,1.208,1.486,2.323,2.646c5.25,5.203,11.521,7.805,18.908,7.805c7.34,0,13.659-2.602,18.862-7.805	c5.203-5.248,7.852-11.566,7.852-18.906c0-1.023-0.047-1.998-0.141-2.975l10.824-2.322c2.137-0.604,3.299-1.812,3.484-3.531	l23.229-1.579c-6.41,33.681-27.734,60.022-64.063,78.976c-0.094,0-0.14,0.047-0.14,0.094l-0.372-0.188	c-21.695-11.566-37.955-25.596-48.825-42.135c1.672-0.232,3.67-0.604,6.039-1.16l2.23-0.605	C61.179,129.008,67.776,126.221,75.023,122.412L75.023,122.412z M98.623,127.057v-12.914c1.254-0.418,2.275-1.021,3.158-1.812	l11.242,6.457c-0.416,0.512-1.068,1.256-1.996,2.277C107.543,124.549,103.408,126.547,98.623,127.057L98.623,127.057z M113.023,94.026l-11.195,6.458c-0.975-0.883-2.045-1.533-3.205-1.859V85.804c4.738,0.464,8.873,2.416,12.404,5.946	C111.955,92.725,112.607,93.469,113.023,94.026L113.023,94.026z M115.395,98.115c0.881,2.043,1.439,4.18,1.625,6.504l0.047,1.811	c0,3.066-0.604,5.854-1.719,8.41l-11.197-6.551l0.141-0.559l0.092-1.348c0-0.463-0.092-1.068-0.186-1.811L115.395,98.115	L115.395,98.115z"/><path style="fill-rule:evenodd;clip-rule:evenodd;fill:#9EA176;" d="M104.291,107.73l12.729-3.111	c-0.186-2.324-0.744-4.461-1.625-6.504l-11.197,6.457c0.094,0.742,0.186,1.348,0.186,1.811L104.291,107.73L104.291,107.73z"/><path style="fill-rule:evenodd;clip-rule:evenodd;fill:#9EA176;" d="M101.828,100.484l11.195-6.458	c-0.416-0.557-1.068-1.301-1.996-2.276c-3.531-3.53-7.666-5.482-12.404-5.946v12.821C99.783,98.951,100.854,99.602,101.828,100.484	L101.828,100.484z"/><path style="fill-rule:evenodd;clip-rule:evenodd;fill:#9EA176;" d="M98.576,103.783c-0.465-0.373-0.789-0.559-0.975-0.605	c-0.418-0.186-0.883-0.232-1.301-0.232h-0.094c-0.557,0.047-0.929,0.141-1.114,0.232c-0.325,0.094-0.651,0.326-1.022,0.65	c-0.093,0-0.139,0.047-0.139,0.141c-0.557,0.51-0.883,1.115-0.976,1.904l-0.046,0.51l0.093,0.697	c0.046,0.605,0.372,1.162,0.929,1.719c0,0.047,0.046,0.094,0.139,0.141c0.326,0.324,0.743,0.557,1.208,0.697l1.022,0.139	c0.371,0,0.743-0.047,1.114-0.139c0.373-0.141,0.744-0.373,1.162-0.697c0.047-0.094,0.094-0.141,0.186-0.141	c0.465-0.557,0.791-1.113,0.93-1.719l0.047-1.207c-0.141-0.789-0.465-1.395-0.977-1.904L98.576,103.783L98.576,103.783z"/><path style="fill-rule:evenodd;clip-rule:evenodd;fill:#9EA176;" d="M90.818,100.531c0.836-0.883,1.858-1.488,3.02-1.859V85.804	c-4.738,0.511-8.78,2.508-12.171,5.946c-0.604,0.558-1.3,1.301-1.998,2.276L90.818,100.531L90.818,100.531z"/><path style="fill-rule:evenodd;clip-rule:evenodd;fill:#9EA176;" d="M88.263,106.383c0-0.65,0.046-1.207,0.139-1.764l-11.15-6.459	c-1.115,2.51-1.672,5.25-1.672,8.27c0,2.975,0.557,5.715,1.672,8.223l11.15-6.457C88.309,107.686,88.263,107.08,88.263,106.383	L88.263,106.383z"/><path style="fill-rule:evenodd;clip-rule:evenodd;fill:#355170;" d="M152.326,95.838v0.093	c-5.621,32.333-24.297,58.627-56.026,78.79c36.282-18.953,57.653-45.342,64.11-79.254L152.326,95.838L152.326,95.838z"/><path style="fill-rule:evenodd;clip-rule:evenodd;fill:#355170;" d="M52.771,130.912l-5.807,1.58	c10.871,16.539,27.13,30.568,48.825,42.135C76.742,162.41,62.433,147.822,52.771,130.912L52.771,130.912z"/><path style="fill-rule:evenodd;clip-rule:evenodd;fill:#355170;" d="M156.229,29.73c-3.252-1.393-6.643-2.648-10.174-3.856	c6.039,20.674,8.549,39.906,7.572,57.606l8.316-0.093c1.254-16.492-0.65-34.332-5.715-53.564V29.73L156.229,29.73z"/><path style="fill-rule:evenodd;clip-rule:evenodd;fill:#355170;" d="M46.127,25.875c-3.345,1.162-6.644,2.416-9.849,3.811	c-10.406,38.976-7.712,71.868,8.13,98.719l5.76-2.369C36.464,98.254,35.117,64.852,46.127,25.875L46.127,25.875z"/><path style="fill-rule:evenodd;clip-rule:evenodd;fill:#FFFFFF;" d="M59.553,40.137l-8.594,1.161	c0.558,1.069,0.558,2.369-0.046,3.809v0.14c-1.999,6.364-4.274,12.404-6.922,18.118h6.178l1.069-4.646h5.9l0.836,4.646h6.922	C62.758,56.025,60.993,48.267,59.553,40.137L59.553,40.137L59.553,40.137z M56.44,54.863h-3.902l2.509-7.479L56.44,54.863	L56.44,54.863z"/><path style="fill:none;stroke:#9EA176;stroke-width:0.9293;stroke-linecap:round;stroke-linejoin:round;stroke-miterlimit:2.6131;" d="	M55.047,47.384l1.393,7.479h-3.902L55.047,47.384L55.047,47.384z M50.913,45.247c-1.999,6.364-4.274,12.404-6.922,18.118h6.178	l1.069-4.646h5.9l0.836,4.646h6.922c-2.137-7.34-3.903-15.098-5.343-23.228l-8.594,1.161c0.558,1.069,0.558,2.369-0.046,3.809"/><path style="fill-rule:evenodd;clip-rule:evenodd;fill:#FFFFFF;" d="M71.771,63.365c-1.115-9.199,0.604-13.426,5.203-12.683	l0.372-4.181c-1.812-0.743-3.81,0.279-5.946,3.16l0.139-2.787l-5.574,0.232c0.511,5.667,0.278,11.103-0.697,16.26H71.771	L71.771,63.365z"/><path style="fill:none;stroke:#9EA176;stroke-width:0.9293;stroke-linecap:round;stroke-linejoin:round;stroke-miterlimit:2.6131;" d="	M76.974,50.682c-4.6-0.743-6.318,3.484-5.203,12.683h-6.504c0.976-5.157,1.208-10.592,0.697-16.26l5.574-0.232l-0.139,2.787	c2.137-2.88,4.134-3.902,5.946-3.16L76.974,50.682L76.974,50.682z"/><path style="fill-rule:evenodd;clip-rule:evenodd;fill:#FFFFFF;" d="M138.994,63.365h6.504c-1.395-6.829-2.416-14.169-3.02-21.974	l-6.133-1.161C138.064,47.802,138.947,55.514,138.994,63.365L138.994,63.365z"/><path style="fill:none;stroke:#9EA176;stroke-width:0.9293;stroke-linecap:round;stroke-linejoin:round;stroke-miterlimit:2.6131;" d="	M145.498,63.365c-1.395-6.829-2.416-14.169-3.02-21.974l-6.133-1.161c1.719,7.572,2.602,15.284,2.648,23.135H145.498	L145.498,63.365z"/><path style="fill-rule:evenodd;clip-rule:evenodd;fill:#FFFFFF;" d="M105.127,60.206l-1.58-1.765	c-3.529,2.74-6.039,2.276-7.526-1.301c1.999-0.836,5.018-2.044,9.012-3.67c0-1.905-0.604-3.716-1.811-5.435	c-1.256-1.719-2.975-2.555-5.25-2.602c-2.277-0.046-4.274,0.836-6.086,2.602c-1.719,1.766-2.555,3.902-2.555,6.457	c0,2.462,0.836,4.6,2.555,6.411c1.255,1.254,2.648,2.09,4.182,2.462h4.227c1.533-0.372,2.928-1.208,4.182-2.462L105.127,60.206	L105.127,60.206L105.127,60.206z M97.602,48.591c1.764,0.465,2.367,1.626,1.811,3.484l-4.274,1.766	C94.767,50.915,95.557,49.149,97.602,48.591L97.602,48.591z"/><path style="fill:none;stroke:#9EA176;stroke-width:0.9293;stroke-linecap:round;stroke-linejoin:round;stroke-miterlimit:2.6131;" d="	M99.412,52.076c0.557-1.858-0.047-3.019-1.811-3.484c-2.045,0.558-2.834,2.323-2.463,5.25L99.412,52.076L99.412,52.076z M105.033,53.47c-3.994,1.625-7.014,2.834-9.012,3.67c1.487,3.578,3.997,4.042,7.526,1.301l1.58,1.765l-0.65,0.697	c-1.254,1.254-2.648,2.09-4.182,2.462c-0.789,0.139-1.486,0.232-2.09,0.232c-0.697,0-1.394-0.093-2.137-0.232	c-1.534-0.372-2.927-1.208-4.182-2.462c-1.719-1.812-2.555-3.949-2.555-6.411c0-2.555,0.836-4.691,2.555-6.457	c1.812-1.766,3.81-2.648,6.086-2.602c2.275,0.047,3.994,0.883,5.25,2.602C104.43,49.753,105.033,51.565,105.033,53.47	L105.033,53.47z"/><path style="fill-rule:evenodd;clip-rule:evenodd;fill:#FFFFFF;" d="M121.572,63.365c-0.744-4.088-1.021-8.502-0.93-13.24	c-2.416-4.553-5.668-5.11-9.756-1.534l-0.465-2.322l-5.203-0.093c1.256,4.738,1.488,10.499,0.791,17.189h6.039	c-0.604-3.624-0.744-7.666-0.465-11.986c1.348-2.091,2.555-2.091,3.623,0c0.279,4.042,0.279,8.037,0,11.986H121.572L121.572,63.365	z"/><path style="fill:none;stroke:#9EA176;stroke-width:0.9293;stroke-linecap:round;stroke-linejoin:round;stroke-miterlimit:2.6131;" d="	M112.049,63.365h-6.039 M121.572,63.365h-6.365 M115.207,63.365c0.279-3.949,0.279-7.944,0-11.986	c-1.068-2.091-2.275-2.091-3.623,0c-0.279,4.32-0.139,8.362,0.465,11.986 M106.01,63.365c0.697-6.69,0.465-12.451-0.791-17.189	l5.203,0.093l0.465,2.322c4.088-3.576,7.34-3.019,9.756,1.534c-0.092,4.738,0.186,9.151,0.93,13.24"/><path style="fill-rule:evenodd;clip-rule:evenodd;fill:#FFFFFF;" d="M88.124,49.893v-3.252c-4.831-1.766-8.455-0.837-10.964,2.787	l-0.139,0.14c-1.162,1.951-0.697,3.67,1.394,5.063c4.46,1.765,6.411,3.159,5.761,4.181l-0.093,0.232	c-1.765,1.858-4.367,1.301-7.805-1.579l-0.093,4.599c1.301,0.604,2.416,1.022,3.345,1.301c1.811,0.464,3.531,0.464,5.11,0	c1.44-0.511,2.834-1.486,4.182-2.927c2.137-3.669,0.232-6.689-5.668-9.059c-1.858-0.79-1.858-1.579-0.046-2.323	C84.268,48.824,85.94,49.057,88.124,49.893L88.124,49.893z"/><path style="fill:none;stroke:#9EA176;stroke-width:0.9293;stroke-linecap:round;stroke-linejoin:round;stroke-miterlimit:2.6131;" d="	M84.082,59.044c-1.765,1.858-4.367,1.301-7.805-1.579l-0.093,4.599c1.301,0.604,2.416,1.022,3.345,1.301	c1.811,0.464,3.531,0.464,5.11,0c1.44-0.511,2.834-1.486,4.182-2.927c2.137-3.669,0.232-6.689-5.668-9.059	c-1.858-0.79-1.858-1.579-0.046-2.323c1.162-0.232,2.833,0,5.017,0.836v-3.252c-4.831-1.766-8.455-0.837-10.964,2.787l-0.139,0.14	c-1.162,1.951-0.697,3.67,1.394,5.063c4.46,1.765,6.411,3.159,5.761,4.181"/><path style="fill-rule:evenodd;clip-rule:evenodd;fill:#FFFFFF;" d="M122.779,47.337c0,1.022,0,2.463,0.094,4.414	c4.367-2.695,6.875-2.648,7.525,0.324c-6.363,1.301-9.152,3.624-8.455,6.969c0.512,2.276,1.395,3.717,2.648,4.321	c1.58,0.743,3.346,0.743,5.389,0l1.533-0.976l1.115,1.068h5.203v-0.092c-1.209-3.252-1.812-7.248-1.859-11.986	C134.674,47.43,130.26,46.083,122.779,47.337L122.779,47.337L122.779,47.337z M130.77,55.095l0.234,4.554	c-2.324,1.021-3.578,0.417-3.857-1.766c0.465-2.044,1.627-2.973,3.484-2.788H130.77L130.77,55.095z"/><path style="fill:none;stroke:#9EA176;stroke-width:0.9293;stroke-linecap:round;stroke-linejoin:round;stroke-miterlimit:2.6131;" d="	M122.873,51.751c4.367-2.695,6.875-2.648,7.525,0.324c-6.363,1.301-9.152,3.624-8.455,6.969c0.512,2.276,1.395,3.717,2.648,4.321	c1.58,0.743,3.346,0.743,5.389,0l1.533-0.976l1.115,1.068h5.203c-1.209-3.344-1.812-7.34-1.859-12.078	c-1.299-3.949-5.713-5.296-13.193-4.042h-0.045L122.873,51.751L122.873,51.751z M130.77,55.095l0.234,4.554	c-2.324,1.021-3.578,0.417-3.857-1.766c0.465-2.044,1.627-2.973,3.484-2.788"/><path style="fill:none;stroke:#FFFFFF;stroke-width:0.9492;stroke-linecap:round;stroke-linejoin:round;stroke-miterlimit:2.6131;" d="	M152.691,83.016H109.68c-4.043-2.416-8.502-3.577-13.426-3.577l-0.929,0.046c-4.6,0.093-8.781,1.255-12.498,3.531H57.602	c-1.719,0.046-3.159,0.604-4.274,1.719c-1.115,0.929-1.719,2.137-1.858,3.53h-2.694c-2.417,2.509-2.417,4.971,0,7.433h2.694	c0.092,1.348,0.697,2.602,1.858,3.717c1.208,1.068,2.602,1.625,4.135,1.672c0.093,0,0.14,0,0.232,0.047l12.404-0.65	c-0.372,1.811-0.557,3.67-0.557,5.668c0,1.301,0.046,2.461,0.186,3.484c-4.481,6.035-10.224,10.902-17.271,14.686	c-0.543,0.275-1.124,0.656-1.571,0.867 M88.263,106.383c0,0.697,0.046,1.303,0.139,1.812l-11.15,6.457	c-1.115-2.508-1.672-5.248-1.672-8.223c0-3.02,0.557-5.76,1.672-8.27l11.15,6.459C88.309,105.176,88.263,105.732,88.263,106.383	L88.263,106.383z M96.207,102.945H96.3c0.418,0,0.883,0.047,1.301,0.232c0.186,0.047,0.51,0.232,0.975,0.605l0.186,0.186	c0.512,0.51,0.836,1.115,0.977,1.904l-0.047,1.207c-0.139,0.605-0.465,1.162-0.93,1.719c-0.092,0-0.139,0.047-0.186,0.141	c-0.418,0.324-0.789,0.557-1.162,0.697c-0.371,0.092-0.743,0.139-1.114,0.139l-1.022-0.139c-0.465-0.141-0.882-0.373-1.208-0.697	c-0.093-0.047-0.139-0.094-0.139-0.141c-0.557-0.557-0.883-1.113-0.929-1.719l-0.093-0.697l0.046-0.51	c0.093-0.789,0.418-1.395,0.976-1.904c0-0.094,0.046-0.141,0.139-0.141c0.372-0.324,0.697-0.557,1.022-0.65	C95.278,103.086,95.65,102.992,96.207,102.945L96.207,102.945z M93.837,98.672c-1.161,0.371-2.183,0.977-3.02,1.859l-11.149-6.505	c0.697-0.975,1.394-1.718,1.998-2.276c3.391-3.438,7.433-5.436,12.171-5.946V98.672L93.837,98.672z M81.666,121.064	c-0.79-0.789-1.44-1.533-2.044-2.322l11.196-6.459c0.929,0.838,1.951,1.441,3.02,1.812v12.916	C89.146,126.5,85.104,124.502,81.666,121.064L81.666,121.064z M53.894,131.07c0.688-0.178,1.206-0.287,1.757-0.465	c5.837-1.729,12.294-4.475,19.372-8.193c0.464,0.604,1.208,1.486,2.323,2.646c5.25,5.203,11.521,7.805,18.908,7.805	c7.34,0,13.659-2.602,18.862-7.805c5.203-5.248,7.852-11.566,7.852-18.906c0-1.023-0.047-1.998-0.141-2.975l10.824-2.322	c2.137-0.604,3.299-1.812,3.484-3.531l14.41-1.012 M98.623,127.057v-12.914c1.254-0.418,2.275-1.021,3.158-1.812l11.242,6.457	c-0.416,0.512-1.068,1.256-1.996,2.277C107.543,124.549,103.408,126.547,98.623,127.057L98.623,127.057z M113.023,94.026	l-11.195,6.458c-0.975-0.883-2.045-1.533-3.205-1.859V85.804c4.738,0.464,8.873,2.416,12.404,5.946	C111.955,92.725,112.607,93.469,113.023,94.026L113.023,94.026z M115.395,98.115c0.881,2.043,1.439,4.18,1.625,6.504l0.047,1.811	c0,3.066-0.604,5.854-1.719,8.41l-11.197-6.551l0.141-0.559l0.092-1.348c0-0.463-0.092-1.068-0.186-1.811L115.395,98.115	L115.395,98.115z"/></g></svg>