<?xml version="1.0" encoding="UTF-8" standalone="no"?>
<!-- Created with Inkscape (http://www.inkscape.org/) -->
<svg
   xmlns:svg="http://www.w3.org/2000/svg"
   xmlns="http://www.w3.org/2000/svg"
   version="1.0"
   width="378"
   height="483"
   id="svg2">
  <defs
     id="defs4" />
  <g
     style="display:inline"
     id="layer2">
    <path
       d="M 346.61124,356.28527 L 189.53965,475.06528 L 32.510725,356.36495 C 32.510725,356.36495 21.843842,348.6298 15.545235,336.79546 C 9.2466268,324.96109 7.3162978,309.02755 7.3162978,309.02755 L 7.1531158,7.4216382 L 372.18917,7.2623062 L 371.90118,306.57913 C 371.90118,306.57913 369.2894,326.17166 362.96692,338.5982 C 356.64442,351.02473 346.61124,356.28527 346.61124,356.28527 z "
       style="fill:#ffffff;fill-opacity:1;fill-rule:nonzero;stroke:#ffe501;stroke-width:11.5;stroke-miterlimit:4;stroke-dasharray:none;stroke-opacity:1"
       id="path1317" />
    <path
       d="M 120.68338,416.06718 L 85.813468,389.56397 L 85.860658,297.04703 L 120.57791,261.83104 L 120.68338,416.06718 z "
       style="fill:#ff0d00;fill-opacity:1;fill-rule:nonzero;stroke:#ffe501;stroke-width:0;stroke-miterlimit:4;stroke-opacity:1"
       id="path17078" />
    <path
       d="M 167.45303,451.48409 L 167.50366,210.55906 L 202.14385,179.36957 L 202.12407,458.55951 L 189.49629,467.87496 L 167.45303,451.48409 z "
       style="fill:#ff0d00;fill-opacity:1;fill-rule:nonzero;stroke:#ffe501;stroke-width:0;stroke-miterlimit:4;stroke-opacity:1"
       id="path17954" />
    <path
       d="M 358.19845,335.44483 C 352.49311,346.8 343.39929,351.58004 343.39929,351.58004 L 330.29173,361.56357 L 330.30715,47.885959 L 366.479,12.969709 L 366.2206,306.15935 C 366.2206,306.15935 363.90377,324.08966 358.19845,335.44483 z "
       style="fill:#ff0d00;fill-opacity:1;fill-rule:nonzero;stroke:#ffe501;stroke-width:0;stroke-miterlimit:4;stroke-opacity:1"
       id="path19706" />
    <path
       d="M 13.03345,308.72564 L 12.862916,13.149967 L 366.4819,12.96907 L 35.306783,351.32382 C 35.306783,351.32382 25.602673,344.02851 20.034339,333.37896 C 14.466006,322.72943 13.03345,308.72564 13.03345,308.72564 z "
       style="fill:#13007c;fill-opacity:1;fill-rule:nonzero;stroke:#ffe501;stroke-width:0;stroke-miterlimit:4;stroke-dasharray:none;stroke-opacity:1"
       id="path6560" />
    <path
       d="M 61.959558,62.248261 L 248.86373,62.284484 L 61.959558,253.64306 L 61.959558,62.248261 z "
       style="fill:#ffffff;fill-opacity:1;fill-rule:nonzero;stroke:#ffe501;stroke-width:0;stroke-miterlimit:4;stroke-opacity:1"
       id="rect8309" />
    <path
       d="M 92.492214,161.24205 L 88.288516,174.98755 L 83.669435,161.37601 L 69.297675,161.62565 L 80.81564,153.02645 L 76.137101,139.43523 L 87.874677,147.73217 L 99.35494,139.0827 L 95.091196,152.80969 L 106.86493,161.05524 L 92.492214,161.24205 z "
       transform="matrix(0.868516,0.642723,-0.638329,0.865288,60.569438,-152.00434)"
       style="opacity:1;fill:#ffffff;fill-opacity:1;fill-rule:nonzero;stroke:#ffe501;stroke-width:0;stroke-miterlimit:4;stroke-dasharray:none;stroke-opacity:1"
       id="path11806" />
    <path
       d="M 92.492214,161.24205 L 88.288516,174.98755 L 83.669435,161.37601 L 69.297675,161.62565 L 80.81564,153.02645 L 76.137101,139.43523 L 87.874677,147.73217 L 99.35494,139.0827 L 95.091196,152.80969 L 106.86493,161.05524 L 92.492214,161.24205 z "
       transform="matrix(0.868516,0.642723,-0.638329,0.865288,195.34264,-152.54404)"
       style="opacity:1;fill:#ffffff;fill-opacity:1;fill-rule:nonzero;stroke:#ffe501;stroke-width:0;stroke-miterlimit:4;stroke-dasharray:none;stroke-opacity:1;display:inline"
       id="path12681" />
    <path
       d="M 92.492214,161.24205 L 88.288516,174.98755 L 83.669435,161.37601 L 69.297675,161.62565 L 80.81564,153.02645 L 76.137101,139.43523 L 87.874677,147.73217 L 99.35494,139.0827 L 95.091196,152.80969 L 106.86493,161.05524 L 92.492214,161.24205 z "
       transform="matrix(0.868516,0.642723,-0.638329,0.865288,329.76724,-152.54394)"
       style="opacity:1;fill:#ffffff;fill-opacity:1;fill-rule:nonzero;stroke:#ffe501;stroke-width:0;stroke-miterlimit:4;stroke-dasharray:none;stroke-opacity:1;display:inline"
       id="path12683" />
    <path
       d="M 92.492214,161.24205 L 88.288516,174.98755 L 83.669435,161.37601 L 69.297675,161.62565 L 80.81564,153.02645 L 76.137101,139.43523 L 87.874677,147.73217 L 99.35494,139.0827 L 95.091196,152.80969 L 106.86493,161.05524 L 92.492214,161.24205 z "
       transform="matrix(0.868516,0.642723,-0.638329,0.865288,239.99744,-60.472219)"
       style="opacity:1;fill:#ffffff;fill-opacity:1;fill-rule:nonzero;stroke:#ffe501;stroke-width:0;stroke-miterlimit:4;stroke-dasharray:none;stroke-opacity:1;display:inline"
       id="path12685" />
    <path
       d="M 92.492214,161.24205 L 88.288516,174.98755 L 83.669435,161.37601 L 69.297675,161.62565 L 80.81564,153.02645 L 76.137101,139.43523 L 87.874677,147.73217 L 99.35494,139.0827 L 95.091196,152.80969 L 106.86493,161.05524 L 92.492214,161.24205 z "
       transform="matrix(0.868516,0.642723,-0.638329,0.865288,150.22754,31.139081)"
       style="opacity:1;fill:#ffffff;fill-opacity:1;fill-rule:nonzero;stroke:#ffe501;stroke-width:0;stroke-miterlimit:4;stroke-dasharray:none;stroke-opacity:1;display:inline"
       id="path12687" />
    <path
       d="M 92.492214,161.24205 L 88.288516,174.98755 L 83.669435,161.37601 L 69.297675,161.62565 L 80.81564,153.02645 L 76.137101,139.43523 L 87.874677,147.73217 L 99.35494,139.0827 L 95.091196,152.80969 L 106.86493,161.05524 L 92.492214,161.24205 z "
       transform="matrix(0.868516,0.642723,-0.638329,0.865288,60.457538,122.75056)"
       style="opacity:1;fill:#ffffff;fill-opacity:1;fill-rule:nonzero;stroke:#ffe501;stroke-width:0;stroke-miterlimit:4;stroke-dasharray:none;stroke-opacity:1;display:inline"
       id="path12689" />
    <path
       d="M 92.492214,161.24205 L 88.288516,174.98755 L 83.669435,161.37601 L 69.297675,161.62565 L 80.81564,153.02645 L 76.137101,139.43523 L 87.874677,147.73217 L 99.35494,139.0827 L 95.091196,152.80969 L 106.86493,161.05524 L 92.492214,161.24205 z "
       transform="matrix(0.868516,0.642723,-0.638329,0.865288,60.917938,-14.896765)"
       style="opacity:1;fill:#ffffff;fill-opacity:1;fill-rule:nonzero;stroke:#ffe501;stroke-width:0;stroke-miterlimit:4;stroke-dasharray:none;stroke-opacity:1;display:inline"
       id="path12691" />
    <path
       d="M 105.53061,181.77505 C 105.53061,181.77505 121.28863,181.64126 126.96964,182.44654 C 132.65066,183.25182 127.9382,185.62918 127.9382,185.62918 L 72.766738,185.63791 C 72.766738,185.63791 70.146388,183.96611 74.377368,182.91738 C 78.608338,181.86867 85.540228,182.17544 85.540228,182.17544 C 85.540228,182.17544 90.707308,181.77822 91.248518,180.63996 C 91.789728,179.5017 91.855478,176.88999 91.855478,176.88999 L 92.072578,112.67605 L 99.092728,112.44832 L 99.010098,176.73845 C 99.010098,176.73845 99.527098,178.52789 100.91307,179.90912 C 102.29905,181.29033 105.53061,181.77505 105.53061,181.77505 z "
       style="fill:#4b1f17;fill-opacity:1;fill-rule:nonzero;stroke:#ffe501;stroke-width:0;stroke-miterlimit:4;stroke-opacity:1"
       id="path13580" />
    <path
       d="M 255.02588 274.37186 A 49.229679 24.211317 0 1 1  156.56652,274.37186 A 49.229679 24.211317 0 1 1  255.02588 274.37186 z"
       transform="matrix(0.648121,0,0,0.92672,-38.633462,-161.94534)"
       style="opacity:1;fill:#2a4c2c;fill-opacity:1;fill-rule:nonzero;stroke:#ffe501;stroke-width:0;stroke-miterlimit:4;stroke-dasharray:none;stroke-opacity:1"
       id="path12693" />
    <path
       d="M 172.62653 337.46008 A 3.9946635 4.1373301 0 1 1  164.6372,337.46008 A 3.9946635 4.1373301 0 1 1  172.62653 337.46008 z"
       transform="matrix(0.570426,0,0,0.570426,-19.307542,-106.50628)"
       style="opacity:1;fill:#ff0d00;fill-opacity:1;fill-rule:nonzero;stroke:#ffe501;stroke-width:0;stroke-miterlimit:4;stroke-dasharray:none;stroke-opacity:1"
       id="path13568" />
    <path
       d="M 172.62653 337.46008 A 3.9946635 4.1373301 0 1 1  164.6372,337.46008 A 3.9946635 4.1373301 0 1 1  172.62653 337.46008 z"
       transform="matrix(0.570426,0,0,0.570426,-5.7983422,-112.69114)"
       style="opacity:1;fill:#ff0d00;fill-opacity:1;fill-rule:nonzero;stroke:#ffe501;stroke-width:0;stroke-miterlimit:4;stroke-dasharray:none;stroke-opacity:1"
       id="path13570" />
    <path
       d="M 172.62653 337.46008 A 3.9946635 4.1373301 0 1 1  164.6372,337.46008 A 3.9946635 4.1373301 0 1 1  172.62653 337.46008 z"
       transform="matrix(0.570426,0,0,0.570426,3.9673278,-102.7627)"
       style="opacity:1;fill:#ff0d00;fill-opacity:1;fill-rule:nonzero;stroke:#ffe501;stroke-width:0;stroke-miterlimit:4;stroke-dasharray:none;stroke-opacity:1"
       id="path13572" />
    <path
       d="M 172.62653 337.46008 A 3.9946635 4.1373301 0 1 1  164.6372,337.46008 A 3.9946635 4.1373301 0 1 1  172.62653 337.46008 z"
       transform="matrix(0.570426,0,0,0.570426,19.266908,-107.15724)"
       style="opacity:1;fill:#ff0d00;fill-opacity:1;fill-rule:nonzero;stroke:#ffe501;stroke-width:0;stroke-miterlimit:4;stroke-dasharray:none;stroke-opacity:1"
       id="path13574" />
    <path
       d="M 172.62653 337.46008 A 3.9946635 4.1373301 0 1 1  164.6372,337.46008 A 3.9946635 4.1373301 0 1 1  172.62653 337.46008 z"
       transform="matrix(0.570426,0,0,0.570426,12.756438,-93.322589)"
       style="opacity:1;fill:#ff0d00;fill-opacity:1;fill-rule:nonzero;stroke:#ffe501;stroke-width:0;stroke-miterlimit:4;stroke-dasharray:none;stroke-opacity:1"
       id="path13576" />
    <path
       d="M 172.62653 337.46008 A 3.9946635 4.1373301 0 1 1  164.6372,337.46008 A 3.9946635 4.1373301 0 1 1  172.62653 337.46008 z"
       transform="matrix(0.570426,0,0,0.570426,-7.5887122,-93.159789)"
       style="opacity:1;fill:#ff0d00;fill-opacity:1;fill-rule:nonzero;stroke:#ffe501;stroke-width:0;stroke-miterlimit:4;stroke-dasharray:none;stroke-opacity:1"
       id="path13578" />
    <path
       d="M 130.75866,153.61731 C 132.85134,160.2324 130.84003,154.34974 133.03806,160.75062 C 130.84003,154.34974 134.82197,161.20983 134.74186,164.40032 C 134.66177,167.50944 131.6435,165.91498 129.78794,167.24624 C 127.93237,168.57751 127.3196,170.9461 127.3196,170.9461 L 127.38479,174.33628 L 128.55253,177.71636 C 128.55253,177.71636 132.1448,182.40724 129.41732,183.22171 C 126.68985,184.03617 119.152,181.95617 114.55014,182.84598 C 111.69479,183.3981 110.84613,181.66607 113.3075,180.92528 C 115.54095,180.2531 119.71347,181.86309 118.82243,178.07324 C 117.92731,174.26604 116.324,175.59381 114.71319,173.55801 C 113.10239,171.52221 112.97339,171.23861 112.21646,168.13968 C 111.45953,165.04075 113.48681,165.27429 111.6041,160.75542 C 110.99253,159.28752 108.82756,158.94728 107.83127,157.39868 C 105.76048,154.17992 104.98904,151.52848 104.27872,150.87795 C 103.48359,150.14975 98.967798,149.34407 98.967798,149.34407 L 98.878348,125.04381 C 98.878348,125.04381 103.94051,132.01767 106.47466,133.86173 C 109.00881,135.7058 109.01493,132.42006 109.01493,132.42006 L 109.5371,126.77659 L 109.893,120.44164 C 109.893,120.44164 108.14935,120.0329 107.87763,118.10598 C 107.6059,116.17908 107.03562,112.47071 108.58799,112.22619 C 110.14037,111.98167 113.43612,116.15134 113.43612,116.15134 C 113.43612,116.15134 117.73334,114.79881 120.15337,115.5857 C 122.57338,116.37258 123.1162,119.29892 123.1162,119.29892 C 123.1162,119.29892 127.39158,117.57663 127.94213,118.61856 C 128.33144,119.35534 128.19172,121.65825 125.78969,126.19033 C 124.90683,127.85612 123.81463,131.18898 124.01628,133.55783 C 124.7611,142.3075 128.66597,147.00222 130.75866,153.61731 z "
       style="fill:#000000;fill-opacity:1;fill-rule:nonzero;stroke:#ffe501;stroke-width:0;stroke-miterlimit:4;stroke-opacity:1"
       id="path15329" />
    <path
       d="M 248.83995,132.47884 L 283.57884,97.386101 L 283.58306,396.80187 L 248.84452,423.07036 L 248.83995,132.47884 z "
       style="fill:#ff0d00;fill-opacity:1;fill-rule:nonzero;stroke:#ffe501;stroke-width:0;stroke-miterlimit:4;stroke-opacity:1"
       id="rect18830" />
  </g>
</svg>
