<?xml version="1.0" encoding="iso-8859-1"?><!-- Generator: Adobe Illustrator 16.0.0, SVG Export Plug-In . SVG Version: 6.00 Build 0) --><!DOCTYPE svg PUBLIC "-//W3C//DTD SVG 1.1//EN" "http://www.w3.org/Graphics/SVG/1.1/DTD/svg11.dtd"><svg version="1.1" id="Layer_1" xmlns="http://www.w3.org/2000/svg" xmlns:xlink="http://www.w3.org/1999/xlink" x="0px" y="0px" width="192.756px" height="192.756px" viewBox="0 0 192.756 192.756" style="enable-background:new 0 0 192.756 192.756;" xml:space="preserve"><g><polygon style="fill-rule:evenodd;clip-rule:evenodd;fill:#FFFFFF;" points="0,0 192.756,0 192.756,192.756 0,192.756 0,0	"/><path style="fill-rule:evenodd;clip-rule:evenodd;fill:#FFFFFF;" d="M96.378,188.396c50.819,0,92.018-41.199,92.018-92.019	c0-50.819-41.199-92.018-92.018-92.018C45.559,4.36,4.36,45.559,4.36,96.378C4.36,147.197,45.559,188.396,96.378,188.396	L96.378,188.396z"/><path style="fill:#346BA5;" d="M96.378,186.871c24.989,0,47.612-10.129,63.989-26.504c16.375-16.377,26.504-39,26.504-63.989	c0-24.988-10.129-47.613-26.504-63.988c-16.377-16.376-39-26.505-63.989-26.505S48.765,16.014,32.39,32.39	c-16.376,16.375-26.505,39-26.505,63.988c0,24.989,10.129,47.612,26.505,63.989C48.765,176.742,71.39,186.871,96.378,186.871	L96.378,186.871z M96.378,189.922c-25.83,0-49.217-10.471-66.145-27.398c-16.928-16.93-27.399-40.314-27.399-66.146	c0-25.83,10.471-49.216,27.399-66.145C47.162,13.306,70.549,2.834,96.378,2.834c25.831,0,49.217,10.471,66.145,27.399	c16.928,16.928,27.398,40.314,27.398,66.144c0,25.831-10.471,49.216-27.398,66.144C145.596,179.451,122.209,189.922,96.378,189.922	L96.378,189.922z"/><path style="fill:#CC2229;" d="M96.378,150.299c14.891,0,28.372-6.035,38.129-15.791c9.756-9.758,15.791-23.238,15.791-38.13	c0-14.891-6.035-28.373-15.791-38.128c-9.758-9.757-23.238-15.792-38.129-15.792c-14.892,0-28.373,6.035-38.129,15.792	c-9.757,9.756-15.792,23.237-15.792,38.128c0,14.892,6.035,28.372,15.792,38.13C68.006,144.264,81.487,150.299,96.378,150.299	L96.378,150.299z M96.378,182.324c-23.731,0-45.217-9.621-60.771-25.176c-15.554-15.553-25.175-37.039-25.175-60.771	c0-23.731,9.621-45.217,25.175-60.771c15.554-15.554,37.04-25.175,60.771-25.175c23.731,0,45.217,9.621,60.772,25.175	c15.553,15.554,25.174,37.04,25.174,60.771c0,23.731-9.621,45.218-25.174,60.771C141.596,172.703,120.109,182.324,96.378,182.324	L96.378,182.324z"/><polygon style="fill-rule:evenodd;clip-rule:evenodd;fill:#FFFFFF;" points="20.661,70.136 26.126,57.704 30.011,59.412	26.769,66.787 29.926,68.174 32.697,61.873 36.348,63.478 33.578,69.779 40.964,73.026 38.741,78.083 20.661,70.136	"/><path style="fill-rule:evenodd;clip-rule:evenodd;fill:#FFFFFF;" d="M46.765,49.437l4.332-2.64c0.939,1.213,1.57,2.409,1.893,3.589	c0.322,1.18,0.347,2.328,0.077,3.444c-0.271,1.117-0.917,2.283-1.94,3.499c-1.249,1.485-2.504,2.494-3.768,3.027	c-1.264,0.534-2.783,0.635-4.558,0.303c-1.774-0.331-3.6-1.286-5.476-2.864c-2.501-2.104-3.921-4.317-4.259-6.644	c-0.338-2.325,0.415-4.584,2.259-6.776c1.439-1.711,2.955-2.732,4.548-3.065c1.594-0.332,3.39-0.068,5.389,0.792l-2.203,4.483	c-0.571-0.257-1.023-0.402-1.357-0.438c-0.554-0.066-1.07-0.011-1.55,0.167c-0.478,0.178-0.894,0.477-1.246,0.896	c-0.803,0.955-0.993,2.046-0.568,3.271c0.309,0.917,1.14,1.944,2.494,3.083c1.677,1.41,3.02,2.147,4.028,2.209	c1.009,0.063,1.861-0.318,2.555-1.143c0.676-0.804,0.937-1.623,0.782-2.458C48.04,51.337,47.563,50.425,46.765,49.437	L46.765,49.437z"/><path style="fill-rule:evenodd;clip-rule:evenodd;fill:#FFFFFF;" d="M62.871,28.249l2.207-1.006	c0.752-0.343,1.349-0.438,1.79-0.283c0.44,0.154,0.78,0.493,1.02,1.016c0.257,0.564,0.301,1.066,0.13,1.504	c-0.171,0.439-0.645,0.834-1.42,1.189l-2.171,0.99L62.871,28.249L62.871,28.249z M64.357,44.889l8.633-3.937	c0.368-0.168,1.078-0.591,2.132-1.27c0.786-0.506,1.331-0.992,1.632-1.455c0.473-0.739,0.735-1.57,0.788-2.493	c0.054-0.923-0.133-1.851-0.557-2.783c-0.523-1.145-1.23-1.97-2.123-2.476c-0.893-0.506-1.991-0.65-3.292-0.431	c0.625-0.641,1.023-1.307,1.193-1.997c0.249-1.032,0.132-2.079-0.353-3.143c-0.578-1.267-1.482-2.138-2.712-2.615	c-1.23-0.477-2.621-0.361-4.174,0.348l-9.369,4.274L64.357,44.889L64.357,44.889z M65.987,35.08l2.538-1.157	c0.875-0.399,1.56-0.516,2.055-0.352c0.494,0.164,0.863,0.512,1.105,1.043c0.261,0.573,0.292,1.109,0.097,1.608	c-0.197,0.5-0.725,0.945-1.584,1.336l-2.55,1.164L65.987,35.08L65.987,35.08z"/><path style="fill-rule:evenodd;clip-rule:evenodd;fill:#FFFFFF;" d="M85.73,29.508l1.033-7.288l2.854,6.788L85.73,29.508	L85.73,29.508z M92.579,36.218l5.705-0.733l-9.14-18.729l-5.944,0.763l-4.11,20.431l5.569-0.715l0.44-3.342l6.198-0.795	L92.579,36.218L92.579,36.218z"/><polygon style="fill-rule:evenodd;clip-rule:evenodd;fill:#FFFFFF;" points="98.477,15.937 104.518,16.82 107.098,23.939	111.625,17.86 117.625,18.738 109.121,29.097 107.924,37.284 102.471,36.485 103.668,28.299 98.477,15.937	"/><polygon style="fill-rule:evenodd;clip-rule:evenodd;fill:#FFFFFF;" points="124.037,21.089 137.326,27.379 135.523,31.188	127.199,27.248 125.857,30.083 133.586,33.741 131.863,37.38 124.135,33.723 122.471,37.24 131.039,41.294 129.127,45.334	115.594,38.93 124.037,21.089	"/><path style="fill-rule:evenodd;clip-rule:evenodd;fill:#FFFFFF;" d="M145.697,38.644l1.785,1.62	c0.744,0.675,1.137,1.262,1.178,1.759c0.039,0.497-0.154,0.981-0.582,1.453c-0.291,0.319-0.633,0.524-1.025,0.617	c-0.393,0.093-0.752,0.044-1.078-0.143c-0.652-0.35-1.072-0.609-1.258-0.778l-1.715-1.557L145.697,38.644L145.697,38.644z M135.113,50.31l5.383-5.933l0.359,0.326c0.371,0.337,0.602,0.751,0.689,1.243c0.062,0.372-0.033,0.97-0.285,1.795l-1.879,6.44	l4.596,4.171l1.881-6.021c0.094-0.303,0.178-0.779,0.25-1.427c0.074-0.649,0.088-1.102,0.043-1.36	c-0.057-0.378-0.244-0.878-0.568-1.498c0.744,0.396,1.395,0.634,1.951,0.716c0.877,0.128,1.738,0.041,2.584-0.265	c0.848-0.305,1.639-0.863,2.373-1.674c0.844-0.931,1.355-1.905,1.535-2.924c0.18-1.02,0.045-1.95-0.402-2.792	s-1.299-1.833-2.555-2.974l-6.771-6.143L131.035,46.61L135.113,50.31L135.113,50.31z"/><polygon style="fill-rule:evenodd;clip-rule:evenodd;fill:#FFFFFF;" points="161.557,49.39 164.104,53.85 157.936,65.091	167.43,59.667 169.996,64.161 152.838,73.967 150.271,69.472 156.387,58.306 146.965,63.69 144.398,59.196 161.557,49.39	"/><polygon style="fill-rule:evenodd;clip-rule:evenodd;fill:#FFFFFF;" points="35.548,101.096 37.245,108.043 26.339,113.549	38.552,113.395 40.246,120.33 21.245,124.969 20.19,120.654 34.681,117.115 19.375,117.309 18.418,113.395 32.096,106.525	17.605,110.064 16.547,105.734 35.548,101.096	"/><path style="fill-rule:evenodd;clip-rule:evenodd;fill:#FFFFFF;" d="M48.038,132.395l3.032,4.498l-9.66,6.512	c-0.958,0.645-1.954,1.121-2.986,1.426c-1.032,0.305-2.061,0.385-3.085,0.24c-1.024-0.146-1.877-0.445-2.557-0.898	c-0.952-0.633-1.843-1.566-2.672-2.797c-0.477-0.707-0.943-1.518-1.399-2.432c-0.456-0.914-0.71-1.764-0.762-2.549	c-0.052-0.785,0.068-1.613,0.359-2.484c0.292-0.871,0.698-1.611,1.22-2.221c0.842-0.975,1.663-1.73,2.458-2.268l9.66-6.51	l3.032,4.498l-9.892,6.668c-0.885,0.594-1.426,1.281-1.625,2.059c-0.2,0.777-0.036,1.557,0.491,2.338	c0.521,0.773,1.176,1.217,1.964,1.328c0.788,0.111,1.631-0.135,2.53-0.74L48.038,132.395L48.038,132.395z"/><polygon style="fill-rule:evenodd;clip-rule:evenodd;fill:#FFFFFF;" points="53.361,139.311 57.413,142.373 56.177,154.992	62.697,146.369 66.781,149.455 54.995,165.045 50.911,161.959 52.13,149.426 45.659,157.986 41.575,154.9 53.361,139.311	"/><path style="fill-rule:evenodd;clip-rule:evenodd;fill:#FFFFFF;" d="M77.182,165.598l4.001,3.033	c-0.777,1.305-1.65,2.318-2.62,3.043c-0.971,0.723-2.018,1.164-3.144,1.32c-1.126,0.154-2.435-0.018-3.926-0.52	c-1.82-0.613-3.204-1.402-4.153-2.373c-0.948-0.971-1.592-2.334-1.93-4.088s-0.121-3.781,0.653-6.082	c1.03-3.066,2.556-5.176,4.575-6.33c2.02-1.154,4.373-1.279,7.061-0.375c2.097,0.705,3.587,1.73,4.471,3.078	c0.883,1.348,1.29,3.098,1.223,5.25l-4.927-0.406c0.03-0.617,0-1.088-0.089-1.408c-0.139-0.533-0.377-0.988-0.715-1.365	c-0.338-0.375-0.763-0.65-1.277-0.824c-1.171-0.393-2.245-0.172-3.219,0.664c-0.732,0.615-1.377,1.754-1.936,3.412	c-0.691,2.055-0.884,3.561-0.575,4.512c0.308,0.951,0.968,1.598,1.979,1.938c0.985,0.332,1.834,0.275,2.546-0.17	S76.56,166.691,77.182,165.598L77.182,165.598z"/><polygon style="fill-rule:evenodd;clip-rule:evenodd;fill:#FFFFFF;" points="87.811,156.52 93.251,156.525 93.243,163.367	99.176,163.373 99.184,156.533 104.65,156.539 104.627,176.086 99.16,176.08 99.17,168.174 93.238,168.166 93.229,176.072	87.788,176.066 87.811,156.52	"/><polygon style="fill-rule:evenodd;clip-rule:evenodd;fill:#FFFFFF;" points="108.1,155.832 121.947,151.369 123.227,155.338	114.553,158.135 115.506,161.09 123.559,158.494 124.781,162.285 116.727,164.881 117.908,168.547 126.836,165.668	128.193,169.879 114.092,174.424 108.1,155.832	"/><polygon style="fill-rule:evenodd;clip-rule:evenodd;fill:#FFFFFF;" points="124.723,150.074 128.842,147.098 140.551,151.98	134.213,143.215 138.363,140.213 149.818,156.059 145.668,159.059 134.039,154.219 140.328,162.92 136.178,165.92 124.723,150.074	"/><polygon style="fill-rule:evenodd;clip-rule:evenodd;fill:#FFFFFF;" points="146.377,130.535 153.141,117.652 156.834,119.592	152.596,127.66 155.344,129.104 159.277,121.611 162.807,123.463 158.873,130.955 162.281,132.744 166.643,124.439	170.559,126.496 163.672,139.613 146.377,130.535	"/><polygon style="fill-rule:evenodd;clip-rule:evenodd;fill:#FFFFFF;" points="153.867,116.438 154.879,110.834 169.428,109.432	156.273,103.104 157.252,97.67 175.332,107.57 174.289,113.357 153.867,116.438	"/><polygon style="fill-rule:evenodd;clip-rule:evenodd;fill:#FFFFFF;" points="45.1,128.148 47.483,131.676 41.86,132.818	45.1,128.148	"/><path style="fill-rule:evenodd;clip-rule:evenodd;fill:#346BA5;" d="M96.378,148.092c28.559,0,51.713-23.154,51.713-51.714	c0-28.56-23.154-51.713-51.713-51.713c-28.561,0-51.714,23.153-51.714,51.713C44.664,124.938,67.818,148.092,96.378,148.092	L96.378,148.092z"/><polygon style="fill-rule:evenodd;clip-rule:evenodd;fill:#FFFFFF;" points="98.666,50.679 98.666,71.902 109.213,89.592	109.213,68.827 98.666,50.679	"/><polygon style="fill-rule:evenodd;clip-rule:evenodd;fill:#FFFFFF;" points="85.704,55.254 85.704,76.477 96.251,94.167	96.251,73.402 85.704,55.254	"/><polygon style="fill-rule:evenodd;clip-rule:evenodd;fill:#FFFFFF;" points="72.741,59.829 72.741,81.052 83.289,98.742	83.289,77.977 72.741,59.829	"/><polygon style="fill-rule:evenodd;clip-rule:evenodd;fill:#FFFFFF;" points="59.778,64.404 59.778,85.627 70.326,103.316	70.326,82.551 59.778,64.404	"/><polygon style="fill-rule:evenodd;clip-rule:evenodd;fill:#FFFFFF;" points="46.816,82.78 46.816,90.202 57.363,107.893	57.363,87.126 50.446,74.228 46.816,82.78	"/><polygon style="fill-rule:evenodd;clip-rule:evenodd;fill:#FFFFFF;" points="111.629,46.104 111.629,67.327 122.176,85.017	122.176,64.251 111.629,46.104	"/><polygon style="fill-rule:evenodd;clip-rule:evenodd;fill:#FFFFFF;" points="124.59,53.856 135.139,63.921 135.139,80.899	124.59,62.752 124.59,53.856	"/><polygon style="fill-rule:evenodd;clip-rule:evenodd;fill:#FFFFFF;" points="94.574,140.832 94.574,120.066 84.026,101.92	84.026,123.143 94.574,140.832	"/><polygon style="fill-rule:evenodd;clip-rule:evenodd;fill:#FFFFFF;" points="107.535,136.258 107.535,115.492 96.988,97.344	96.988,118.566 107.535,136.258	"/><polygon style="fill-rule:evenodd;clip-rule:evenodd;fill:#FFFFFF;" points="120.498,131.682 120.498,110.916 109.951,92.77	109.951,113.992 120.498,131.682	"/><polygon style="fill-rule:evenodd;clip-rule:evenodd;fill:#FFFFFF;" points="133.461,127.107 133.461,106.342 122.914,88.194	122.914,109.418 133.461,127.107	"/><polygon style="fill-rule:evenodd;clip-rule:evenodd;fill:#FFFFFF;" points="146.424,108.73 146.424,99.783 135.877,83.62	135.877,104.842 142.793,115.758 146.424,108.73	"/><polygon style="fill-rule:evenodd;clip-rule:evenodd;fill:#FFFFFF;" points="81.611,144.949 81.611,124.643 71.064,106.494	71.064,128.176 81.611,144.949	"/><polygon style="fill-rule:evenodd;clip-rule:evenodd;fill:#FFFFFF;" points="68.649,138.723 58.101,129.572 58.101,111.068	68.649,129.674 68.649,138.723	"/><path style="fill:#FFFFFF;" d="M96.378,145.805c13.649,0,26.006-5.533,34.95-14.477s14.477-21.301,14.477-34.95	c0-13.649-5.533-26.006-14.477-34.95s-21.301-14.476-34.95-14.476s-26.006,5.532-34.95,14.476s-14.476,21.301-14.476,34.95	c0,13.649,5.532,26.007,14.476,34.95S82.729,145.805,96.378,145.805L96.378,145.805z M96.378,150.379	c-14.911,0-28.412-6.045-38.185-15.816c-9.772-9.771-15.817-23.273-15.817-38.185c0-14.911,6.045-28.412,15.817-38.184	c9.772-9.772,23.274-15.817,38.185-15.817s28.413,6.045,38.184,15.817c9.771,9.772,15.816,23.273,15.816,38.184	c0,14.911-6.045,28.413-15.816,38.185S111.289,150.379,96.378,150.379L96.378,150.379z"/></g></svg>