<?xml version="1.0" encoding="iso-8859-1"?><!-- Generator: Adobe Illustrator 16.0.0, SVG Export Plug-In . SVG Version: 6.00 Build 0) --><!DOCTYPE svg PUBLIC "-//W3C//DTD SVG 1.1//EN" "http://www.w3.org/Graphics/SVG/1.1/DTD/svg11.dtd"><svg version="1.1" id="Layer_1" xmlns="http://www.w3.org/2000/svg" xmlns:xlink="http://www.w3.org/1999/xlink" x="0px" y="0px" width="217.161px" height="213.341px" viewBox="0 0 217.161 213.341" style="enable-background:new 0 0 217.161 213.341;" xml:space="preserve"><path d="M110.112,66.605c40.41,0,73.368,32.959,73.368,73.368c0,40.409-32.958,73.367-73.368,73.367	c-40.409,0-73.368-32.958-73.368-73.367C36.744,99.564,69.703,66.605,110.112,66.605L110.112,66.605z"/><path style="fill:#ADB9C0;" d="M37.768,139.974c0-39.891,32.454-72.344,72.344-72.344c39.891,0,72.343,32.453,72.343,72.344	c0,39.89-32.453,72.343-72.343,72.343C70.222,212.317,37.768,179.864,37.768,139.974z"/><path d="M47.668,139.974c0,34.431,28.012,62.443,62.443,62.443s62.443-28.013,62.443-62.443c0-34.432-28.012-62.443-62.443-62.443	S47.668,105.542,47.668,139.974z"/><path style="fill:#FFFFFF;" d="M48.697,139.974c0-33.865,27.551-61.415,61.415-61.415c33.865,0,61.415,27.55,61.415,61.415	c0,33.864-27.55,61.415-61.415,61.415C76.248,201.388,48.697,173.837,48.697,139.974z"/><path d="M52.122,139.974c0,31.976,26.015,57.99,57.99,57.99c31.977,0,57.991-26.014,57.991-57.99	c0-31.977-26.014-57.991-57.991-57.991C78.136,81.983,52.122,107.997,52.122,139.974z"/><path style="fill:#FFFFFF;" d="M53.206,139.974c0-31.378,25.528-56.906,56.906-56.906c31.378,0,56.905,25.527,56.905,56.906	c0,31.377-25.527,56.905-56.905,56.905C78.734,196.878,53.206,171.351,53.206,139.974z"/><path d="M167.068,140.443c0.001-0.157,0.006-0.313,0.006-0.47c0-0.188-0.005-0.374-0.007-0.56h-52.15l51.139-10.172	c-0.064-0.337-0.13-0.674-0.201-1.01l-50.737,10.093l47.766-19.786c-0.129-0.317-0.26-0.635-0.395-0.95l-47.771,19.787l42.96-28.704	c-0.189-0.286-0.38-0.571-0.573-0.853l-42.958,28.704l36.513-36.513c-0.241-0.244-0.484-0.486-0.729-0.726l-36.511,36.51	l28.684-42.926c-0.283-0.193-0.569-0.382-0.855-0.569l-28.683,42.926l18.667-45.067l-0.949-0.394l-18.667,45.065l8.517-42.822	l-1.008-0.201l-8.348,41.964V89.545h-1.369v44.226l-8.627-43.365l-1.007,0.201l8.797,44.224L89.439,88.643l-0.95,0.394	l19.132,46.188L78.95,92.315c-0.287,0.188-0.573,0.377-0.855,0.57l28.671,42.909L70.274,99.302c-0.246,0.24-0.488,0.481-0.729,0.726	l36.494,36.494l-42.932-28.686c-0.193,0.282-0.384,0.567-0.573,0.853l42.937,28.688l-47.741-19.775	c-0.135,0.315-0.266,0.632-0.395,0.949l47.738,19.773L54.367,128.24c-0.07,0.335-0.136,0.672-0.201,1.009l51.101,10.165h-52.11	c-0.002,0.187-0.008,0.373-0.008,0.56c0,0.156,0.005,0.313,0.007,0.47h51.307l-50.342,10.014c0.062,0.338,0.125,0.675,0.194,1.011	l50.755-10.096l-47.823,19.809c0.128,0.318,0.256,0.636,0.39,0.952l47.83-19.811L62.42,171.085c0.188,0.286,0.376,0.572,0.569,0.855	l43.05-28.765l-36.617,36.617c0.24,0.246,0.481,0.488,0.726,0.729l36.619-36.618l-28.786,43.08c0.283,0.193,0.568,0.384,0.854,0.572	l28.786-43.083l-19.841,47.9c0.315,0.134,0.632,0.265,0.95,0.394l21.364-51.575l21.369,51.588c0.317-0.128,0.635-0.258,0.949-0.393	l-19.846-47.912l28.797,43.098c0.286-0.188,0.571-0.378,0.854-0.572l-28.797-43.098l36.638,36.638	c0.243-0.241,0.486-0.484,0.726-0.728l-36.636-36.637l43.076,28.783c0.192-0.284,0.381-0.569,0.569-0.855l-43.076-28.783	l47.865,19.826c0.134-0.315,0.262-0.633,0.39-0.951l-47.857-19.823l50.793,10.103c0.069-0.335,0.132-0.672,0.195-1.01	l-50.381-10.021H167.068z"/><path style="fill:#4A914E;" d="M82.109,76.746c-3.849-0.944-7.108-1.387-9.285-1.104c-6.516,0.849-14.333,4.064-22.412,7.963	c-5.181,2.5-11.611,5.769-24.469,13.356l11.976,0.901l-1.251,10.003c7.094-4.646,16.586-11.163,25.355-14.919	c3.703-1.586,7.276-2.68,10.486-2.933c2.422-0.191,4.478,0.429,6.869,1.03c10.434,2.626,20.479,5.594,30.735,5.594V81.928	C100.381,81.928,90.032,78.689,82.109,76.746z"/><path d="M154.48,103.59c-15.184,5.703-30.528,8.716-44.372,8.716s-29.188-3.014-44.372-8.716l-0.575-0.216l-0.111,0.605	c-7.749,42.266,7.303,78.929,44.737,108.971l0.321,0.257l0.322-0.257c37.434-30.042,52.485-66.705,44.736-108.971l-0.111-0.605	L154.48,103.59z"/><path style="fill:#FFFFFF;" d="M110.108,113.335L110.108,113.335c13.787,0,29.037-2.972,44.143-8.574	c1.233,6.91,1.861,13.672,1.861,20.276c0,33.041-15.419,62.176-46.004,86.841c-30.584-24.665-46.004-53.8-46.004-86.842	c0-6.603,0.628-13.365,1.861-20.275C81.071,110.363,96.322,113.335,110.108,113.335z"/><path style="fill:#CD3529;" d="M110.108,206.622v-88.028l0,0c-14.36,0-27.232-2.338-40.258-6.773	C64.977,149.308,80.038,179.329,110.108,206.622L110.108,206.622z"/><path style="fill:#ECB731;" d="M110.078,129.648c13.822,0,25.095,11.273,25.095,25.095c0,13.822-11.272,25.096-25.095,25.096	c-13.822,0-25.096-11.274-25.096-25.096C84.982,140.921,96.256,129.648,110.078,129.648L110.078,129.648z"/><path d="M84.468,154.743c0,14.122,11.488,25.61,25.61,25.61c14.121,0,25.61-11.489,25.61-25.61c0-14.122-11.489-25.61-25.61-25.61	C95.956,129.133,84.468,140.621,84.468,154.743z M85.497,154.743c0-13.554,11.027-24.581,24.581-24.581	c13.554,0,24.58,11.026,24.58,24.581c0,13.554-11.026,24.58-24.58,24.58C96.524,179.323,85.497,168.297,85.497,154.743z"/><path d="M84.517,154.261c1.527,2.854,4.142,5.667,7.562,8.134l0.601-0.834c-3.293-2.375-5.803-5.066-7.257-7.784L84.517,154.261z"/><path d="M96.598,159.053l0.783-0.666c-5.765-6.785-4.496-18.307,2.888-26.23l-0.752-0.702	C91.784,139.754,90.501,151.877,96.598,159.053z"/><path d="M108.032,143.955l0.983-0.299c-1.892-6.21-0.024-10.11,6.246-13.04l-0.436-0.932	C108.081,132.836,105.985,137.237,108.032,143.955z"/><path d="M121.144,153.482c5.892,6.108,7.205,15.735,2.925,21.46l0.824,0.616c4.646-6.215,3.324-16.227-3.009-22.792L121.144,153.482	z"/><path d="M126.869,147.166c4.363,3.605,6.875,9.132,6.72,14.782l1.028,0.028c0.164-5.965-2.487-11.798-7.093-15.603L126.869,147.166z	"/><path d="M113.068,160.025c4.16,7.723,3.505,15.624-1.591,19.215l0.593,0.841c5.536-3.901,6.319-12.349,1.904-20.544L113.068,160.025	z"/><path d="M103.47,172.159l-0.153,1.017c4.535,0.684,10.682-1.379,13.14-6.548l-0.928-0.441	C113.283,170.908,107.639,172.787,103.47,172.159z"/><path d="M150.159,111.347c-5.455,1.857-10.68,3.284-15.971,4.359l-0.151,0.031l-54.397,54.227l0.183,0.338	c2.821,5.226,6.232,10.455,10.138,15.542l0.356,0.464l61.421-61.232l-0.001-0.216c-0.026-4.285-0.329-8.69-0.901-13.093	l-0.081-0.623L150.159,111.347z"/><path style="fill:#0094D6;" d="M149.876,112.519c0.508,4.084,0.792,8.163,0.824,12.14c-0.314,0.313-59.443,59.259-60.273,60.086	c-3.641-4.787-6.839-9.692-9.512-14.6c0.548-0.546,53.422-53.255,53.631-53.465C139.628,115.64,144.655,114.271,149.876,112.519z"/><path style="fill:#ECB731;" d="M92.513,175.184l1.434-1.434l0,0c0.562,0.51,1.156,0.769,1.787,0.773	c0.633,0.007,1.201-0.242,1.701-0.741c0.551-0.55,0.831-1.15,0.842-1.801c0.011-0.652-0.25-1.244-0.785-1.778	c-0.467-0.468-0.953-0.71-1.45-0.722c-0.498-0.016-1.246,0.256-2.241,0.807c-0.049,0.029-0.136,0.082-0.255,0.153	c-1.154,0.693-2.204,0.983-3.148,0.866c-0.419-0.046-0.809-0.151-1.164-0.32c-0.357-0.17-0.683-0.403-0.98-0.701	c-0.887-0.887-1.322-1.881-1.309-2.99c0.017-1.106,0.477-2.115,1.388-3.026c0.843-0.843,1.768-1.279,2.775-1.307	c1.009-0.031,1.967,0.354,2.875,1.152l0,0l-1.493,1.493l0,0c-0.438-0.387-0.917-0.571-1.441-0.557	c-0.526,0.018-0.991,0.23-1.402,0.641c-0.439,0.44-0.656,0.938-0.649,1.492c0.007,0.561,0.232,1.061,0.676,1.505	c0.157,0.158,0.329,0.277,0.516,0.367c0.19,0.086,0.393,0.134,0.619,0.147c0.459,0.025,1.133-0.232,2.02-0.769	c0.408-0.249,0.732-0.432,0.964-0.553c0.983-0.474,1.908-0.652,2.772-0.543c0.863,0.112,1.635,0.507,2.319,1.191	c0.998,0.998,1.5,2.106,1.503,3.324c0.005,1.216-0.494,2.326-1.492,3.324c-0.941,0.942-1.999,1.412-3.172,1.417	C94.549,176.598,93.479,176.128,92.513,175.184L92.513,175.184z M109.458,164.2l-1.516,1.515l-1.748-1.747l1.517-1.516	L109.458,164.2L109.458,164.2z M121.092,152.565l-5.215,5.216l-10.338-10.338l1.599-1.599l8.91,8.911l3.616-3.616L121.092,152.565	L121.092,152.565z M128.391,145.267l-1.516,1.517l-1.748-1.748l1.516-1.516L128.391,145.267L128.391,145.267z M130.386,131.257	l0.507-0.507l0,0c0.825-0.825,1.296-1.528,1.41-2.113c0.116-0.586-0.093-1.147-0.633-1.688c-0.477-0.478-0.992-0.672-1.54-0.583	c-0.549,0.087-1.148,0.46-1.806,1.117l0,0l-0.856,0.856L130.386,131.257L130.386,131.257z M134.979,135.883l1.257-1.257l0,0	c0.74-0.74,1.154-1.412,1.245-2.02c0.093-0.606-0.134-1.179-0.675-1.719c-0.586-0.587-1.21-0.849-1.878-0.788	c-0.668,0.062-1.356,0.445-2.065,1.154l0,0l-1.257,1.258L134.979,135.883L134.979,135.883z M126.844,126.138	c1.177-1.176,2.312-1.826,3.408-1.958c1.092-0.128,2.101,0.269,3.023,1.192c0.427,0.427,0.702,0.903,0.83,1.43	c0.127,0.526,0.107,1.084-0.062,1.68c0.688-0.387,1.406-0.523,2.15-0.405c0.745,0.118,1.416,0.474,2.012,1.07	c0.481,0.482,0.839,1.031,1.072,1.646c0.23,0.618,0.318,1.233,0.257,1.851c-0.067,0.6-0.255,1.167-0.563,1.702	c-0.308,0.536-0.848,1.187-1.616,1.955l0,0l-2.545,2.545l-10.337-10.337L126.844,126.138L126.844,126.138z M148.797,124.86	l-1.516,1.517l-1.747-1.747l1.516-1.516L148.797,124.86L148.797,124.86z"/><path d="M150.201,111.334c-13.517,4.603-26.256,6.746-40.093,6.746c-13.836,0-26.576-2.143-40.092-6.746l-0.594-0.203l-0.082,0.623	c-4.646,35.735,8.199,66.001,40.423,95.249l0.345,0.313l0.346-0.313c32.224-29.248,45.068-59.514,40.422-95.249l-0.082-0.623	L150.201,111.334z M69.449,125.59c0-4.281,0.298-8.645,0.85-13.086c13.397,4.496,26.067,6.604,39.809,6.604	c13.742,0,26.412-2.109,39.809-6.604c0.553,4.441,0.85,8.804,0.85,13.085c0,29.421-13.156,55.246-40.659,80.327	C82.606,180.835,69.449,155.011,69.449,125.59z"/><path style="fill:#CD3529;" d="M194.281,96.962c-12.858-7.588-19.289-10.856-24.469-13.356c-8.08-3.898-15.896-7.114-22.413-7.963	c-2.176-0.284-5.436,0.16-9.285,1.104c-7.923,1.943-18.272,5.182-28.002,5.182v14.711c10.256,0,20.302-2.968,30.736-5.594	c2.391-0.601,4.446-1.222,6.868-1.03c3.209,0.253,6.783,1.347,10.485,2.933c8.769,3.756,18.261,10.272,25.355,14.919l-1.251-10.003	L194.281,96.962z"/><path d="M137.992,76.247l-4.44,1.134c-7.267,1.891-15.503,4.033-23.44,4.033c-7.938,0-16.173-2.143-23.441-4.034l-4.439-1.133	c-4.149-1.018-7.336-1.393-9.474-1.114c-5.656,0.737-12.616,3.207-22.569,8.01c-4.886,2.358-11.212,5.53-24.507,13.376l-1.41,0.833	c0,0,12.088,0.91,13.07,0.983c-0.12,0.96-1.323,10.574-1.323,10.574l3.408-2.242c6.708-4.424,15.057-9.93,22.798-13.246	c3.947-1.69,7.421-2.664,10.324-2.894c2.087-0.165,3.886,0.296,5.97,0.83l4.7,1.199c9.194,2.364,17.879,4.597,26.894,4.597	s17.699-2.233,26.894-4.597l4.7-1.199c2.083-0.534,3.883-0.995,5.97-0.83c2.903,0.229,6.376,1.203,10.323,2.894	c7.742,3.315,16.09,8.822,22.799,13.246l3.409,2.243c0,0-1.204-9.614-1.325-10.574c0.983-0.074,13.071-0.983,13.071-0.983	l-1.411-0.833c-13.294-7.846-19.621-11.018-24.507-13.376c-9.954-4.803-16.915-7.273-22.569-8.01	C145.328,74.854,142.14,75.229,137.992,76.247z M133.811,78.375l4.426-1.13c4.024-0.987,7.084-1.354,9.096-1.093	c5.542,0.722,12.405,3.164,22.256,7.916c4.688,2.263,10.728,5.292,23.015,12.504c-2.442,0.184-10.875,0.818-10.875,0.818	s0.962,7.684,1.181,9.433c-0.725-0.477-1.545-1.016-1.545-1.016c-6.742-4.447-15.133-9.98-22.96-13.333	c-4.106-1.759-7.589-2.732-10.647-2.973c-2.257-0.179-4.223,0.325-6.305,0.858l-4.702,1.2c-9.129,2.347-17.752,4.564-26.638,4.564	c-8.885,0-17.508-2.217-26.639-4.564l-4.701-1.2c-2.082-0.533-4.048-1.037-6.305-0.858c-3.058,0.241-6.541,1.214-10.648,2.973	c-7.826,3.352-16.217,8.886-22.959,13.333c0,0-0.82,0.54-1.545,1.016c0.219-1.75,1.181-9.433,1.181-9.433s-8.434-0.635-10.875-0.818	c12.287-7.213,18.327-10.242,23.015-12.504c9.85-4.752,16.713-7.194,22.255-7.916c2.011-0.262,5.071,0.106,9.096,1.093l4.426,1.13	c7.327,1.906,15.631,4.067,23.7,4.067S126.484,80.282,133.811,78.375z"/><path d="M160.057,89.583l-1.351-0.545l0.614-2.417l0,0c0.045-0.17,0.098-0.358,0.159-0.564c0.062-0.205,0.133-0.428,0.212-0.667	c-0.123,0.21-0.304,0.464-0.538,0.759c-0.049,0.062-0.087,0.107-0.11,0.137l0,0l-1.723,2.193l-0.963-0.389l0.283-2.774l0,0	c0.004-0.038,0.01-0.096,0.02-0.173c0.034-0.376,0.081-0.683,0.138-0.916c-0.096,0.194-0.193,0.385-0.29,0.574	c-0.1,0.189-0.202,0.375-0.308,0.562l0,0l-1.237,2.165l-1.343-0.543l2.959-4.969l1.429,0.577l-0.304,3.057l0,0	c-0.002,0.02-0.005,0.057-0.009,0.105c-0.024,0.274-0.061,0.501-0.112,0.684c0.047-0.09,0.108-0.188,0.181-0.292	c0.073-0.103,0.164-0.227,0.276-0.37l0,0l1.909-2.399l1.434,0.58L160.057,89.583L160.057,89.583z M146.919,79.959l1.539,0.216	l-0.387,2.753l0,0c-0.057,0.404-0.087,0.697-0.093,0.876c-0.003,0.179,0.01,0.332,0.043,0.458c0.038,0.151,0.127,0.277,0.263,0.375	c0.136,0.096,0.311,0.159,0.521,0.188c0.211,0.03,0.395,0.017,0.552-0.038c0.155-0.057,0.276-0.153,0.356-0.288	c0.067-0.112,0.122-0.255,0.167-0.427c0.044-0.174,0.096-0.463,0.153-0.868l0,0l0.055-0.387l0.332-2.366l1.535,0.216l-0.421,2.993	l0,0c-0.087,0.62-0.188,1.073-0.305,1.358c-0.117,0.285-0.277,0.518-0.485,0.703c-0.225,0.201-0.515,0.336-0.868,0.404	c-0.354,0.067-0.772,0.066-1.254-0.001c-0.484-0.068-0.887-0.183-1.207-0.345c-0.321-0.162-0.563-0.373-0.726-0.628	c-0.146-0.235-0.236-0.503-0.271-0.81c-0.035-0.306-0.008-0.77,0.08-1.39l0,0l0.082-0.589L146.919,79.959L146.919,79.959z M137.869,87.701l-1.48-5.521l1.452-0.389l2.847,2.281l0,0c0.055,0.047,0.152,0.146,0.292,0.296c0.139,0.151,0.295,0.331,0.47,0.543	c-0.091-0.221-0.167-0.419-0.229-0.593c-0.062-0.174-0.111-0.331-0.147-0.47l0,0l-0.731-2.727l1.444-0.386l1.479,5.521l-1.444,0.387	l-2.85-2.292l0,0c-0.058-0.047-0.156-0.145-0.295-0.295c-0.138-0.15-0.292-0.329-0.464-0.536c0.092,0.224,0.168,0.422,0.23,0.597	c0.062,0.174,0.111,0.331,0.149,0.47l0,0l0.73,2.726L137.869,87.701L137.869,87.701z M128.657,84.188l1.501-0.402l0.719,2.686l0,0	c0.106,0.395,0.192,0.676,0.258,0.843c0.066,0.166,0.139,0.301,0.219,0.404c0.094,0.125,0.225,0.206,0.388,0.242	c0.163,0.035,0.348,0.026,0.553-0.03c0.206-0.055,0.37-0.139,0.493-0.25c0.121-0.113,0.194-0.248,0.216-0.404	c0.018-0.129,0.013-0.282-0.012-0.459c-0.028-0.178-0.093-0.464-0.199-0.859l0,0l-0.101-0.377l-0.618-2.308l1.497-0.401l0.783,2.92	l0,0c0.162,0.605,0.246,1.062,0.249,1.369c0.005,0.308-0.052,0.585-0.171,0.837c-0.128,0.273-0.344,0.511-0.642,0.711	c-0.3,0.2-0.685,0.363-1.155,0.489c-0.473,0.126-0.887,0.178-1.246,0.154c-0.358-0.024-0.664-0.123-0.914-0.295	c-0.227-0.159-0.414-0.37-0.566-0.639c-0.151-0.269-0.308-0.705-0.47-1.311l0,0l-0.153-0.574L128.657,84.188L128.657,84.188z M118.916,90.048c0.273,0.219,0.534,0.373,0.778,0.461c0.245,0.089,0.476,0.115,0.697,0.076c0.206-0.036,0.364-0.121,0.476-0.255	c0.113-0.133,0.155-0.284,0.125-0.453c-0.033-0.188-0.115-0.322-0.247-0.403c-0.132-0.081-0.409-0.141-0.83-0.177	c-0.577-0.051-1.001-0.177-1.272-0.375c-0.27-0.198-0.442-0.505-0.515-0.919c-0.095-0.538,0.007-1.009,0.309-1.413	c0.299-0.403,0.737-0.655,1.311-0.756c0.311-0.055,0.612-0.064,0.905-0.031c0.293,0.035,0.578,0.114,0.857,0.24l0,0l-0.286,1.188	l0,0c-0.2-0.118-0.398-0.199-0.597-0.243c-0.196-0.042-0.384-0.048-0.562-0.017c-0.186,0.033-0.327,0.104-0.426,0.212	c-0.101,0.108-0.138,0.232-0.114,0.37c0.025,0.142,0.096,0.246,0.212,0.312c0.116,0.067,0.326,0.113,0.628,0.139	c0.02,0.002,0.044,0.004,0.073,0.007c0.656,0.058,1.099,0.172,1.332,0.339c0.158,0.115,0.289,0.263,0.393,0.445	c0.104,0.181,0.175,0.39,0.217,0.625c0.105,0.597-0.006,1.112-0.334,1.543c-0.329,0.433-0.819,0.707-1.473,0.821	c-0.392,0.069-0.762,0.065-1.107-0.011c-0.345-0.077-0.691-0.231-1.039-0.463l0,0L118.916,90.048L118.916,90.048z M110.703,86.834	l1.55-0.109l0.193,2.774l0,0c0.029,0.408,0.06,0.7,0.092,0.876c0.034,0.175,0.079,0.322,0.138,0.438	c0.068,0.141,0.18,0.245,0.333,0.312c0.153,0.065,0.336,0.091,0.549,0.076c0.212-0.015,0.39-0.066,0.532-0.152	c0.14-0.087,0.238-0.207,0.289-0.355c0.042-0.123,0.066-0.274,0.075-0.453c0.008-0.18-0.002-0.473-0.03-0.881l0,0l-0.028-0.39	l-0.166-2.383l1.545-0.108l0.211,3.015l0,0c0.044,0.625,0.039,1.089-0.016,1.392c-0.055,0.304-0.164,0.564-0.329,0.789	c-0.178,0.244-0.435,0.436-0.766,0.576c-0.332,0.14-0.742,0.225-1.227,0.259c-0.488,0.034-0.905,0.006-1.253-0.085	c-0.346-0.092-0.627-0.248-0.84-0.464c-0.192-0.199-0.336-0.443-0.434-0.735c-0.097-0.292-0.167-0.751-0.211-1.376l0,0l-0.042-0.592	L110.703,86.834L110.703,86.834z"/><path d="M60.513,89.46l-2.233-5.262l3.224-1.369l0.489,1.153l-1.825,0.775l0.387,0.913l1.721-0.73l0.479,1.128l-1.721,0.73	l0.377,0.889l1.826-0.775l0.5,1.179L60.513,89.46L60.513,89.46z M72.623,85.868l-1.46,0.051l-0.199-5.713l1.627-0.056l0,0	c0.636-0.022,1.085-0.007,1.346,0.045c0.259,0.054,0.481,0.153,0.666,0.299c0.217,0.166,0.385,0.378,0.505,0.636	c0.12,0.258,0.184,0.547,0.196,0.866c0.012,0.341-0.032,0.643-0.133,0.905c-0.1,0.264-0.254,0.481-0.461,0.655	c-0.157,0.13-0.344,0.227-0.561,0.289c-0.216,0.062-0.566,0.103-1.047,0.119l0,0l-0.265,0.009l-0.281,0.01L72.623,85.868	L72.623,85.868z M72.513,82.727l0.297-0.011l0,0c0.375-0.013,0.634-0.074,0.777-0.182c0.145-0.108,0.213-0.285,0.205-0.532	c-0.009-0.24-0.088-0.408-0.236-0.504c-0.148-0.096-0.409-0.138-0.778-0.125l0,0l-0.312,0.011L72.513,82.727L72.513,82.727z M77.915,86.498l1.479-5.521l1.505,0.403l-1.134,4.231l1.871,0.501l-0.345,1.29L77.915,86.498L77.915,86.498z M85.156,82.486	l1.501,0.402l-0.719,2.686l0,0c-0.106,0.395-0.172,0.681-0.199,0.858c-0.025,0.177-0.03,0.33-0.012,0.459	c0.019,0.155,0.091,0.291,0.214,0.404c0.123,0.111,0.288,0.196,0.494,0.251c0.207,0.055,0.39,0.064,0.553,0.029	c0.162-0.037,0.292-0.118,0.389-0.242c0.08-0.103,0.152-0.238,0.219-0.404c0.066-0.168,0.151-0.448,0.257-0.843l0,0l0.102-0.377	l0.618-2.308l1.497,0.401l-0.782,2.919l0,0c-0.162,0.605-0.318,1.042-0.469,1.312c-0.15,0.268-0.338,0.48-0.566,0.639	c-0.249,0.172-0.553,0.271-0.912,0.294c-0.359,0.024-0.774-0.028-1.244-0.154c-0.473-0.126-0.858-0.289-1.157-0.489	c-0.298-0.2-0.513-0.438-0.644-0.712c-0.116-0.25-0.173-0.528-0.17-0.836s0.085-0.765,0.248-1.37l0,0l0.154-0.574L85.156,82.486	L85.156,82.486z M91.335,89.915l1.285-5.569l1.587,0.366l0,0c0.621,0.144,1.048,0.272,1.279,0.386	c0.231,0.114,0.421,0.258,0.568,0.434c0.165,0.198,0.274,0.428,0.328,0.688c0.053,0.261,0.046,0.533-0.019,0.818	c-0.1,0.431-0.286,0.758-0.56,0.979c-0.274,0.221-0.625,0.33-1.05,0.324l0,0l0.998,2.595l-1.715-0.396l-0.773-2.476l-0.504,2.181	L91.335,89.915L91.335,89.915z M93.436,87.306l0.282,0.065l0,0c0.327,0.075,0.579,0.075,0.755-0.002	c0.176-0.076,0.292-0.234,0.348-0.472c0.064-0.279,0.04-0.495-0.075-0.645c-0.113-0.151-0.335-0.264-0.668-0.34l0,0l-0.304-0.07	L93.436,87.306L93.436,87.306z M98.126,91.33L99.12,85.7l1.549,0.273l-0.992,5.629L98.126,91.33L98.126,91.33z"/><path style="fill:#4A914E;" d="M72.776,81.316l-0.369,0.013l0.051,1.457l0.354-0.012c0.389-0.014,0.654-0.077,0.81-0.194	c0.16-0.119,0.236-0.314,0.227-0.58c-0.008-0.257-0.096-0.442-0.262-0.55C73.426,81.347,73.161,81.303,72.776,81.316z M72.78,81.431	c0.355-0.012,0.606,0.026,0.744,0.116c0.134,0.087,0.203,0.236,0.21,0.458c0,0.014,0.001,0.026,0.001,0.04	c0,0.206-0.062,0.355-0.182,0.445c-0.135,0.101-0.385,0.158-0.746,0.17c0,0-0.165,0.006-0.24,0.009	c-0.003-0.1-0.04-1.128-0.043-1.229C72.602,81.437,72.78,81.431,72.78,81.431z"/><path style="fill:#4A914E;" d="M93.718,85.829l-0.351,1.521l0.337,0.078c0.343,0.079,0.602,0.077,0.792-0.006	c0.193-0.083,0.32-0.256,0.38-0.512c0.068-0.296,0.04-0.529-0.084-0.692c-0.122-0.163-0.352-0.281-0.701-0.362l-0.359-0.083	L93.718,85.829z M93.817,85.91c0.074,0.018,0.248,0.058,0.248,0.058c0.318,0.073,0.532,0.181,0.635,0.319	c0.065,0.085,0.097,0.197,0.097,0.334c0,0.08-0.01,0.167-0.033,0.264c-0.051,0.218-0.156,0.364-0.315,0.433	c-0.163,0.071-0.405,0.071-0.719-0.001c0,0-0.154-0.036-0.226-0.052C93.527,87.165,93.794,86.009,93.817,85.91z"/><path d="M98.314,48.97v0.062h0.062c0.396,0,1.392-0.542,2.272-1.021c0.517-0.281,1.006-0.547,1.238-0.625l-0.039-0.117	c-0.242,0.081-0.712,0.337-1.258,0.634c-0.787,0.428-1.741,0.942-2.144,0.989c0.017-1.681,0.531-2.7,2.024-3.98l-0.081-0.094	C98.837,46.147,98.314,47.195,98.314,48.97z"/><path style="fill:#ECB731;" d="M135.999,49.07c-1.133,0.401-2.36,0.14-3.019-1.167c-1.209,1.048-2.692,1.196-4.654,0.425l0,0	l-8.124-11.055l1.236-11.179l0,0c2.059,1.053,4.352,1.266,5.299,1.167c6.129-0.637,0.98-5.31,9.85-9.346	c3.171-5.849,8.323-7.839,11.275-8.421c14.693-2.899,34.045-1.363,49.136-1.489l0,0l19.311-0.161l0,0	c-1.193,2.942-5.328,4.781-9.515,5.703c-1.11,2.687-2.527,4.178-5.915,5.556c-0.216,1.066-1.004,4.182-8.488,6.829	c-1.591,4.327-9.324,7.461-16.29,8.767c-1.749,3.468-7.893,4.561-10.87,4.119c-0.268,0.959-2.418,2.155-3.26,2.059	c0.146,0.393,0.298,2.094-1.822,1.655c0.411,1.349,0.133,2.1-0.483,2.485c-0.637,0.398-1.635,0.406-2.608,0.281	c-0.198,0.812-0.875,1.117-1.658,1.147c-0.888,0.033-1.911-0.288-2.531-0.63c0.016,1.132-0.748,1.486-1.782,1.412	c-1.167-0.083-2.497-0.681-3.004-1.235c-0.195,1.22-1.305,1.721-2.486,1.773c-0.808,0.036-1.649-0.139-2.252-0.436	c-0.083,0.974-0.938,1.342-1.66,1.355c-1.379,0.025-3.042-1.245-3.325-2.071C137.984,47.789,137.03,48.705,135.999,49.07	L135.999,49.07z"/><path d="M147.751,8.934c-2.316,0.457-8.04,2.215-11.56,8.543c-4.776,2.224-5.607,4.704-6.204,6.522	c-0.516,1.569-0.8,2.434-3.31,2.694c-0.904,0.094-3.055-0.124-4.979-1.108l-0.739-0.377l-1.351,12.225l8.354,11.367l0.153,0.06	c1.882,0.74,3.409,0.635,4.692-0.194c0.784,1.034,2.045,1.417,3.381,0.943c0.935-0.331,1.745-1.014,2.272-1.87	c0.782,0.816,2.078,1.538,3.233,1.518c0.817-0.015,1.648-0.41,2.016-1.204c0.6,0.191,1.261,0.312,1.911,0.284	c1.293-0.058,2.25-0.577,2.725-1.421c0.747,0.462,1.783,0.816,2.699,0.882c0.804,0.058,1.425-0.114,1.845-0.511	c0.191-0.18,0.327-0.402,0.418-0.655c0.634,0.235,1.401,0.413,2.112,0.386c0.967-0.037,1.646-0.441,1.996-1.121	c1.109,0.092,1.962-0.025,2.552-0.394c0.472-0.294,0.945-0.839,0.945-1.836c0-0.154-0.019-0.325-0.042-0.501	c0.689-0.025,1.102-0.296,1.334-0.566c0.309-0.359,0.412-0.824,0.412-1.229c0-0.001,0-0.001,0-0.001	c1.018-0.25,2.403-1.059,2.961-1.956c3.127,0.308,8.865-0.773,10.858-4.198c6.462-1.246,14.447-4.274,16.374-8.832	c4.947-1.791,7.808-4.098,8.534-6.861c3.091-1.301,4.676-2.785,5.853-5.484c3.098-0.711,8.187-2.392,9.642-5.979l0.322-0.794	l-20.168,0.168c-4.015,0.034-8.277-0.05-12.79-0.138C172.197,7.061,158.589,6.795,147.751,8.934z M126.796,27.831	c3.248-0.337,3.748-1.861,4.278-3.475c0.568-1.73,1.275-3.883,5.75-5.919L137,18.357l0.091-0.169	c3.28-6.049,8.703-7.703,10.883-8.133c10.716-2.115,23.675-1.862,36.208-1.617c4.521,0.089,8.792,0.172,12.822,0.138	c0,0,16.602-0.138,18.346-0.153c-1.315,1.985-4.398,3.623-8.677,4.565l-0.292,0.064l-0.114,0.276	c-1.101,2.666-2.515,3.989-5.602,5.244l-0.284,0.116l-0.062,0.3c-0.511,2.525-3.243,4.679-8.119,6.404l-0.253,0.09l-0.092,0.252	c-1.482,4.029-9.033,7.123-15.86,8.402l-0.278,0.052l-0.127,0.253c-1.644,3.259-7.562,4.213-10.274,3.811l-0.499-0.074l-0.136,0.486	c-0.181,0.648-2.03,1.715-2.645,1.645l-0.925-0.105l0.324,0.872c0.042,0.112,0.091,0.558-0.097,0.777	c-0.217,0.251-0.765,0.182-1.073,0.119l-0.944-0.195l0.281,0.922c0.431,1.414-0.074,1.729-0.24,1.833	c-0.294,0.184-0.92,0.368-2.231,0.198l-0.508-0.065l-0.121,0.497c-0.045,0.185-0.166,0.675-1.124,0.711	c-0.786,0.03-1.708-0.27-2.232-0.56l-0.862-0.476l0.013,0.985c0.005,0.295-0.06,0.508-0.191,0.631	c-0.173,0.163-0.52,0.235-0.979,0.202c-1.048-0.075-2.224-0.614-2.624-1.051l-0.799-0.874l-0.187,1.17	c-0.17,1.058-1.292,1.264-1.947,1.292c-0.685,0.03-1.441-0.115-1.975-0.378l-0.751-0.37l-0.072,0.834	c-0.065,0.755-0.858,0.829-1.101,0.833c-1.173,0.021-2.579-1.117-2.773-1.685l-0.56-1.635l-0.526,1.646	c-0.303,0.946-1.09,1.767-2.007,2.092c-0.478,0.169-1.659,0.422-2.317-0.884l-0.331-0.656l-0.555,0.481	c-1.025,0.89-2.248,0.997-3.929,0.369c-0.209-0.286-7.629-10.382-7.882-10.726c0.044-0.396,0.984-8.9,1.127-10.195	C123.864,27.729,125.843,27.93,126.796,27.831z"/><path style="fill:#ECB731;" d="M93.193,45.935c-1.076,0.451-1.941,0.651-2.763,0.621c-0.823-0.031-1.552-0.294-2.251-0.774	c-0.791,1.395-1.99,1.998-3.121,1.992c-1.281-0.008-2.346-0.851-2.897-2.11c-0.754,1.122-2.377,3.001-4.077,2.98	c-0.666-0.008-1.227-0.436-1.499-1.594c-0.65,0.32-1.524,0.615-2.289,0.674c-0.985,0.075-1.793-0.241-1.723-1.397	c-0.904,0.56-2.297,1.088-3.319,1.093c-0.902,0.004-1.514-0.399-1.245-1.548c-0.214,0.231-1.656,0.984-2.769,0.865	c-0.583-0.062-1.074-0.363-1.252-1.104c-0.959,0.124-2.024-0.106-2.822-0.646s-1.33-1.392-1.219-2.51	c-2.803,0.635-2.874-1.54-2.729-1.932c-0.914-0.207-2.403-0.767-2.801-1.727c-3.593-0.094-8.259-0.297-10.753-3.406	c0,0,0.088-0.259-0.059-0.266c-5.682-0.245-13.75-3.177-15.341-7.504c-6.732-2.523-8.846-5.26-9.438-6.64	c-3.667-1.238-6.685-2.599-7.479-5.444c-4.411-0.698-9.605-3.767-10.576-6.932l0,0l21.099-0.118l0,0	c15.091-0.084,34.441-1.69,49.136,1.209c2.952,0.583,9.165,3.857,12.335,9.706c5.463,0.126,7.123,8.926,11.352,9.005	c1.524,0.028,3.914-1.426,5.855-5.018c-0.823,0.243-1.622,0.35-2.38,0.343c-0.712-0.006-1.388-0.113-2.014-0.304	c3.417-1.544,3.211-4.197,3.274-5.302c-0.793,0.353-2.154,0.455-3.197,0.116c0.642-0.832,1.294-2.503,0.983-3.655	c-0.932,0.794-1.631,1.15-2.577,1.349c0.056-0.99-0.049-1.833-0.406-2.638c-1.565-3.534-6.635-2.362-6.533-6.154	c0.624,0.702,1.509,1.275,2.513,1.275c0.525,0,1.049-0.186,1.514-0.65c0.243-0.304,0.345-0.666,0.347-1.035	c0.003-0.54-0.208-1.097-0.508-1.515c-0.814-1.132-1.984-1.476-3.162-1.439c-1.794,0.054-3.604,0.988-4.198,1.346	c0.233-3.124,3.078-4.57,5.661-4.577c1.506-0.004,3.174,0.553,3.97,1.538c1.75-1.241,3.616-1.329,5.993-0.079	c2.657,1.395,8.717,3.05,11.648,2.278c-0.651,1.478-2.417,1.991-3.259,2.218c2.177-0.025,4.302,0.224,5.905,0.732	c-1.216,0.574-2.246,1.276-3.297,1.85c1.882,0.167,3.713,0.259,5.265,1.036c-1.27,0.296-2.051,0.809-2.253,1.475	c0.934,0.866,2.606,0.86,4.282,1.322c1.574,0.434,3.15,1.28,4.121,3.648c-0.949,0-1.928,0.126-2.751,0.507	c2.171,1.718,3.695,3.396,4.248,4.884c-0.991,0.045-1.879,0.231-2.696,0.624c1.866,1.425,3.516,2.894,4.494,4.497	c-1.131,0.138-2.262,0.365-3.393,0.682c1.846,1.326,3.229,2.831,3.944,4.336c-0.739-0.161-1.655-0.248-2.394-0.17	c2.01,1.941,3.664,4.104,4.244,6.105c-0.727-0.283-1.532-0.447-2.378-0.55c0.519,1.516,0.868,3.033,0.97,4.549	c3.175,2.378,4.968,4.98,4.695,9.176c-0.779-0.42-1.558-0.691-2.337-0.813c1.15,2.015,1.078,3.954,0.322,6.268	c-0.577-0.715-1.183-1.222-1.819-1.52c0.003,2.478-0.344,4.523-1.116,6.048l0,0l-0.894-1.476l0,0	c-1.095,2.357-3.366,5.239-5.438,4.572c-1.813,1.815-3.373,2.323-6.234,3.624c-0.413-0.456-1.013-0.845-1.559-1.267	c-0.791,0.677-1.404,1.402-2.034,2.355c-0.551-0.763-1.159-1.44-1.85-1.994l0,0l-2.274,0.846l0,0	c-4.889-3.346-9.376-4.233-8.867-9.01c-0.584,0.208-1.105,0.771-1.761,1.399c-0.548-1.589-0.587-4.354-0.282-6.757	c-0.902,0.129-1.299,0.238-2.096,0.647c-0.054-0.907-0.101-2.979,1.034-5.259c-1.22,0.309-1.507,0.775-2.143,1.359	C91.874,48.674,92.365,47.134,93.193,45.935L93.193,45.935z"/><path d="M89.865,0c-2.817,0.008-5.968,1.609-6.229,5.106l-0.083,1.105l0.948-0.573c0.742-0.448,2.402-1.219,3.92-1.265	c1.195-0.037,2.072,0.357,2.681,1.203c0.252,0.351,0.402,0.791,0.4,1.176c-0.001,0.27-0.076,0.499-0.222,0.681	c-0.283,0.278-0.646,0.436-1.067,0.436c-0.978,0-1.726-0.679-2.085-1.083l-0.96-1.082L87.128,7.15	c-0.065,2.423,1.726,3.181,3.307,3.851c1.298,0.55,2.64,1.118,3.274,2.55c0.302,0.681,0.412,1.414,0.358,2.374l-0.042,0.745	l0.73-0.153c0.709-0.149,1.303-0.399,1.915-0.794c-0.115,0.779-0.472,1.649-0.891,2.191l-0.496,0.643l0.771,0.25	c0.827,0.269,1.875,0.295,2.768,0.113c-0.08,1.213-0.442,2.897-2.903,4.009l-1.385,0.625l1.454,0.443	c0.694,0.211,1.426,0.322,2.176,0.329c0.406,0.004,0.816-0.028,1.227-0.086c-1.637,2.517-3.475,3.64-4.687,3.617	c-1.697-0.031-3.037-1.875-4.456-3.828c-1.675-2.306-3.577-4.885-6.567-5.135c-3.178-5.621-9.22-9.077-12.564-9.737	C59.926,6.949,45.869,7.344,33.465,7.693c-4.084,0.115-7.942,0.224-11.598,0.244L0,8.059l0.226,0.735	c1.05,3.427,6.309,6.458,10.708,7.259c1.029,2.924,4.221,4.299,7.49,5.414c0.734,1.5,2.919,4.141,9.42,6.62	c1.908,4.502,9.889,7.248,15.312,7.601c0.028,0.037,0.063,0.082,0.063,0.082c2.646,3.298,7.505,3.52,10.87,3.61	c0.585,0.891,1.779,1.372,2.528,1.594c0.017,0.454,0.157,1.002,0.542,1.441c0.361,0.412,1.057,0.805,2.245,0.701	c0.101,0.94,0.583,1.762,1.443,2.344c0.778,0.527,1.785,0.798,2.767,0.769c0.296,0.613,0.83,0.998,1.567,1.076	c0.748,0.081,1.601-0.167,2.262-0.46c0.053,0.197,0.132,0.379,0.255,0.535c0.325,0.409,0.85,0.615,1.559,0.612	c0.905-0.004,1.998-0.359,2.872-0.777c0.083,0.214,0.203,0.402,0.364,0.561c0.412,0.406,1.033,0.58,1.848,0.518	c0.57-0.043,1.237-0.24,1.885-0.493c0.486,1.198,1.341,1.408,1.851,1.415c1.718,0.021,3.214-1.494,4.034-2.524	c0.717,1.03,1.758,1.647,2.944,1.654c1.306,0.007,2.471-0.675,3.298-1.837c0.656,0.356,1.328,0.592,2.055,0.62	c0.508,0.019,1.033-0.049,1.598-0.191c-0.45,1.032-0.705,2.166-0.705,3.315v1.337l1.278-1.222c0.127-0.124,0.245-0.232,0.364-0.334	c-0.36,1.09-0.553,2.235-0.553,3.431c0,0.239,0.007,0.479,0.022,0.722l0.052,0.876l0.78-0.401c0.486-0.25,0.804-0.37,1.194-0.459	c-0.068,0.724-0.12,1.498-0.12,2.305c0,1.43,0.135,2.878,0.501,3.942l0.292,0.849l0.905-0.875c0.187-0.181,0.356-0.335,0.524-0.486	c0.172,3.132,2.62,4.56,5.664,6.298c1.113,0.636,2.264,1.293,3.459,2.111l0.245,0.167c0,0,1.739-0.646,2.221-0.826	c0.526,0.457,1.028,0.993,1.518,1.67l0.484,0.67l0.457-0.69c0.523-0.793,1.033-1.376,1.608-1.917	c0.008,0.006,0.043,0.033,0.043,0.033c0.398,0.293,0.774,0.571,1.041,0.865l0.278,0.308l1.6-0.715c2.05-0.908,3.439-1.546,4.961-3	c1.954,0.333,3.981-1.646,5.298-4c0.175,0.289,0.896,1.481,0.896,1.481l0.466-0.92c0.688-1.359,1.051-3.113,1.139-5.282	c0.285,0.234,0.566,0.515,0.84,0.854l0.661,0.821l0.327-1.002c0.391-1.196,0.588-2.256,0.588-3.24c0-0.836-0.197-1.611-0.484-2.373	c0.366,0.126,0.732,0.287,1.097,0.484l0.784,0.423l0.058-0.889c0.02-0.297,0.029-0.588,0.029-0.873c0-3.485-1.47-6.118-4.762-8.644	c-0.096-1.127-0.346-2.302-0.71-3.531c0.51,0.099,0.982,0.214,1.377,0.368l1.079,0.421l-0.322-1.113	c-0.569-1.963-2.031-3.867-3.427-5.358c0.305,0.032,0.612,0.077,0.907,0.141l1.138,0.248l-0.5-1.052	c-0.614-1.293-1.704-2.579-3.142-3.774c0.716-0.161,1.433-0.344,2.143-0.431l0.882-0.107l-0.463-0.758	c-0.939-1.54-2.433-2.896-3.812-4.001c0.475-0.129,0.98-0.223,1.552-0.25l0.783-0.035l-0.273-0.734	c-0.497-1.339-1.741-2.837-3.624-4.446c0.476-0.105,0.994-0.174,1.592-0.174h0.852l-0.323-0.789	c-1.124-2.741-2.995-3.568-4.498-3.982l-1.611-0.351c-0.818-0.154-1.538-0.298-2.063-0.589c0.297-0.307,0.86-0.571,1.624-0.75	l1.542-0.36l-1.416-0.708c-1.136-0.568-2.366-0.789-3.662-0.928c0.521-0.288,2.849-1.571,2.849-1.571l-1.237-0.419	c-1.013-0.322-2.245-0.536-3.576-0.655c0.517-0.368,0.989-0.859,1.281-1.52l0.478-1.086l-1.146,0.302	c-2.701,0.71-8.587-0.84-11.236-2.232c-2.346-1.232-4.319-1.23-6.179-0.095C92.872,0.461,91.204-0.004,89.865,0z M89.868,1.144	c1.441-0.004,2.89,0.542,3.523,1.326l0.338,0.418l0.438-0.311c1.611-1.142,3.275-1.154,5.396-0.04	c2.379,1.25,7.275,2.643,10.556,2.515c-0.604,0.455-1.362,0.738-2.05,0.923l-4.365,1.176l4.52-0.052	c1.573-0.018,3.062,0.113,4.343,0.366c-0.417,0.229-0.869,0.478-0.869,0.478l-2.716,1.574l1.792,0.163l0.517,0.045	c1.116,0.095,2.183,0.2,3.167,0.449c-0.705,0.41-1.048,0.886-1.168,1.281l-0.104,0.342l0.263,0.243c0.759,0.704,1.848,0.909,3,1.125	l1.519,0.329c1.178,0.325,2.474,0.9,3.401,2.6c-0.797,0.073-1.529,0.212-2.12,0.484l-0.845,0.391l0.73,0.578	c1.828,1.447,3.075,2.799,3.727,3.977c-0.751,0.105-1.452,0.271-2.067,0.566l-0.842,0.404l0.742,0.566	c1.811,1.383,3.017,2.529,3.844,3.625c-0.851,0.14-1.705,0.312-2.55,0.548l-1.146,0.32l0.966,0.694	c1.38,0.991,2.459,2.062,3.191,3.143c-0.487-0.04-0.963-0.052-1.367-0.009l-1.22,0.128l0.882,0.852	c1.753,1.693,2.983,3.328,3.668,4.806c-0.409-0.093-0.851-0.171-1.336-0.23l-0.905-0.11l0.295,0.863	c0.54,1.578,0.847,3.019,0.94,4.403l0.018,0.262l0.21,0.157c3.142,2.354,4.485,4.675,4.493,7.854	c-0.567-0.234-1.137-0.425-1.703-0.513l-1.175-0.184l0.589,1.032c0.54,0.945,0.806,1.879,0.806,2.93	c0,0.592-0.116,1.244-0.285,1.933c-0.413-0.382-0.836-0.709-1.279-0.916l-0.816-0.382c0,0,0.001,0.919,0.001,0.929	c0,1.898-0.221,3.482-0.646,4.748c-0.136-0.225-0.859-1.418-0.859-1.418l-0.452,0.974c-1.135,2.444-3.183,4.771-4.745,4.269	l-0.332-0.107l-0.248,0.247c-1.462,1.463-2.732,2.026-4.837,2.958c0,0-0.525,0.234-0.881,0.394	c-0.282-0.256-0.586-0.498-0.895-0.726l-0.791-0.593l-0.355,0.293c-0.622,0.533-1.155,1.152-1.681,1.863	c-0.473-0.578-0.955-1.098-1.474-1.513l-0.253-0.202c0,0-1.895,0.705-2.311,0.859c-1.146-0.767-2.279-1.423-3.283-1.998	c-3.039-1.735-5.119-2.923-5.119-5.67c0-0.207,0.012-0.422,0.036-0.647l0.096-0.905l-0.857,0.306	c-0.452,0.161-0.846,0.486-1.249,0.856c-0.142-0.761-0.22-1.692-0.22-2.71c0-0.927,0.061-1.917,0.184-2.893l0.095-0.744	l-0.743,0.105c-0.596,0.085-1.003,0.174-1.442,0.335c0.027-1.467,0.34-2.856,0.973-4.127l0.555-1.114l-1.207,0.305	c-0.568,0.144-0.964,0.325-1.28,0.528c0.185-0.941,0.538-1.839,1.067-2.605l1.112-1.607l-1.803,0.754	c-1.018,0.426-1.796,0.604-2.522,0.576c-0.696-0.026-1.316-0.241-1.95-0.674l-0.514-0.352L87.681,45.5	c-0.617,1.087-1.572,1.708-2.62,1.702c-1.006-0.006-1.895-0.667-2.376-1.767l-0.417-0.954l-0.581,0.864	c-0.853,1.268-2.306,2.743-3.596,2.727c-0.187-0.002-0.68-0.008-0.949-1.153l-0.164-0.7l-0.646,0.317	c-0.678,0.334-1.476,0.57-2.08,0.617c-0.456,0.034-0.796-0.034-0.958-0.193c-0.117-0.116-0.168-0.317-0.151-0.6l0.067-1.103	l-0.94,0.583c-0.802,0.498-2.097,1.003-3.02,1.007c-0.326,0.001-0.566-0.064-0.659-0.181c-0.092-0.114-0.101-0.351-0.027-0.666	l0.413-1.757l-1.377,1.227c-0.181,0.161-1.398,0.793-2.3,0.697c-0.429-0.046-0.655-0.246-0.756-0.668l-0.12-0.5l-0.51,0.066	c-0.834,0.108-1.765-0.104-2.428-0.553c-0.499-0.338-1.072-0.955-0.97-1.98l0.078-0.789l-0.773,0.175	c-0.582,0.131-1.362,0.2-1.772-0.224c-0.245-0.253-0.302-0.621-0.302-0.828c0-0.063,0.006-0.112,0.012-0.138l0.149-0.571	l-0.563-0.172c-0.969-0.22-2.133-0.748-2.399-1.388l-0.142-0.342l-0.371-0.01c-3.107-0.082-7.768-0.218-10.197-3.069	c-0.011-0.106-0.022-0.218-0.094-0.322c-0.117-0.169-0.303-0.272-0.512-0.28c-5.865-0.253-13.398-3.243-14.828-7.13l-0.09-0.246	l-0.245-0.092c-6.88-2.578-8.665-5.285-9.113-6.33l-0.101-0.235L19.01,20.46c-3.886-1.312-6.431-2.615-7.111-5.055L11.8,15.051	l-0.363-0.057c-4.144-0.656-8.406-3.253-9.772-5.801C3.296,9.185,21.874,9.08,21.874,9.08c3.668-0.02,7.533-0.129,11.624-0.244	C45.84,8.489,59.83,8.096,70.896,10.279c3.088,0.609,9.019,4.023,11.944,9.417l0.158,0.292l0.332,0.008	c2.621,0.06,4.336,2.421,5.994,4.705c1.591,2.19,3.094,4.258,5.36,4.3c1.596,0.029,4.221-1.345,6.369-5.318l0.653-1.208	l-1.317,0.388c-0.743,0.218-1.488,0.326-2.214,0.319c-0.13-0.001-0.247-0.048-0.375-0.057c2.058-1.555,2.154-3.59,2.19-4.662	l0.049-1.203l-0.841,0.365c-0.478,0.212-1.269,0.285-2.033,0.203c0.382-0.737,0.702-1.682,0.702-2.569	c0-0.276-0.03-0.545-0.099-0.799l-0.236-0.873l-0.688,0.586c-0.609,0.52-1.097,0.827-1.646,1.028	c-0.03-0.782-0.162-1.478-0.443-2.114c-0.817-1.846-2.441-2.533-3.874-3.14c-0.97-0.411-1.662-0.766-2.099-1.269	c0.462,0.211,0.943,0.334,1.429,0.334c0.72,0,1.383-0.283,1.919-0.818c0.349-0.43,0.512-0.91,0.515-1.436	c0.003-0.629-0.221-1.304-0.616-1.852c-0.823-1.145-2.083-1.725-3.643-1.678c-1.274,0.039-2.513,0.479-3.369,0.864	C85.733,2.089,87.893,1.149,89.868,1.144z M43.123,35.229l-0.002,0.007v0C43.121,35.235,43.123,35.229,43.123,35.229z"/><path style="fill:#ECB731;" d="M98.976,55.594c-0.092,3.276-1.127,9.22-4.047,11.304c-2.467,1.761-5.987,0.549-7.819,3.024l0,0	l0.229,1.483l0,0c2.765,0.029,3.341,0.231,6.293-1.824c-1.899,1.347-3.098,2.207-3.325,4.435c0.743,0.157,1.1,0.811,1.603,1.118	c0.901-0.949,2.021-2.001,3.248-4.037c-0.163,1.593-0.927,2.711-0.927,4.243c0.654-0.106,1.308-0.121,1.961,0	c0.573-1.255,2.065-4.078,2.065-5.53c1.713,0,2.903-0.302,4.514-0.578c0.728-0.124,1.515,0.068,2.481-0.086	c0.09-0.72,0.008-1.352,0.008-1.996c-1.794-0.562-2.022-1.116-4.174-2.127c-0.773-1.707,0.24-4.46,0.793-7.305	c-0.98-0.542-1.782-1.407-2.179-2.547C99.46,55.277,99.216,55.424,98.976,55.594L98.976,55.594z"/><path d="M99.474,54.648l-1.105,0.639l0.036,0.291c-0.093,3.337-1.184,8.982-3.808,10.855c-0.981,0.7-2.162,0.879-3.412,1.068	c-1.659,0.251-3.374,0.512-4.535,2.081l-0.142,0.191l0.338,2.196l1.131,0.017c0.971,0.017,1.682,0.023,2.401-0.124	c-0.327,0.575-0.555,1.243-0.642,2.096l-0.052,0.511l0.502,0.106c0.316,0.066,0.547,0.288,0.815,0.544l1.018,0.84l0.304-0.432	l0.344-0.359c0.362-0.375,0.769-0.807,1.197-1.308c-0.117,0.461-0.207,0.942-0.207,1.479v0.672l0.664-0.108	c0.635-0.103,1.213-0.104,1.767-0.002l0.432,0.08l0.539-1.139c0.808-1.685,1.509-3.272,1.692-4.478	c1.164-0.04,2.111-0.203,3.171-0.399l0.945-0.169l0.968-0.027c0.441,0.015,0.942,0.032,1.506-0.058l0.473-0.075l0.005-0.419	l0.029-1.474l-0.028-1.001l-0.39-0.138c-0.949-0.298-1.412-0.582-2.05-0.976c-0.468-0.288-1.006-0.614-1.825-1.012	c-0.115-0.325-0.178-0.691-0.178-1.107c0-1.038,0.302-2.322,0.614-3.656l0.54-2.443l-0.377-0.192	c-0.92-0.51-1.583-1.282-1.915-2.234l-0.228-0.653L99.474,54.648z M91.355,68.632c1.328-0.201,2.701-0.41,3.905-1.269	c3.034-2.166,4.081-7.841,4.255-11.228c0.405,0.737,1,1.36,1.722,1.838c-0.107,0.485-0.358,1.62-0.358,1.62	c-0.328,1.396-0.644,2.741-0.644,3.917c0,0.64,0.094,1.229,0.329,1.75l0.087,0.192l0.19,0.09c0.901,0.423,1.452,0.762,1.938,1.062	c0.568,0.35,1.089,0.658,1.919,0.955c0.003,0.108,0.006,0.232,0.006,0.232s-0.007,0.445-0.014,0.824	c-0.28,0.014-0.556,0.021-0.819,0.012l-1.198,0.042l-0.96,0.172c-1.154,0.213-2.15,0.396-3.458,0.396h-0.571v0.572	c0,1.08-1.038,3.245-1.658,4.538c0,0-0.091,0.194-0.184,0.388c-0.313-0.032-0.635-0.042-0.964-0.024	c0.075-0.498,0.197-0.981,0.353-1.474c0.203-0.638,0.413-1.298,0.493-2.084l0.26-2.542l-1.318,2.188	c-1.032,1.713-1.971,2.692-2.802,3.553c-0.021-0.018-0.071-0.061-0.071-0.061c-0.216-0.208-0.499-0.422-0.828-0.6	c0.3-1.672,1.274-2.426,2.996-3.647l-0.657-0.936c-2.554,1.778-3.137,1.768-5.308,1.73c0,0-0.103-0.001-0.167-0.002	c-0.048-0.315-0.077-0.5-0.112-0.723C88.598,69.079,89.874,68.856,91.355,68.632z"/><path style="fill:#ECB731;" d="M90.017,77.667c-0.423-0.64-0.696-2.537,0.091-3.609c0.489,0.195,1.481,0.489,1.877,0.941	C91.396,75.575,90.395,76.817,90.017,77.667L90.017,77.667z"/><path d="M89.647,73.719c-0.926,1.261-0.677,3.401-0.107,4.264l0.576,0.871l0.423-0.955c0.347-0.782,1.312-1.97,1.845-2.492	l0.388-0.379l-0.358-0.408c-0.419-0.477-1.213-0.769-1.794-0.981l-0.706-0.265L89.647,73.719z M90.178,75.884	c0-0.389,0.085-0.768,0.223-1.105c0.23,0.086,0.488,0.191,0.721,0.309c-0.295,0.333-0.609,0.735-0.905,1.154	C90.205,76.119,90.178,76.011,90.178,75.884z"/><path d="M107.239,51.741c0.592,0.612,1.417,2.572,1.417,4.448c0,0.36-0.031,0.718-0.099,1.062c-0.191,0.958-0.666,1.681-1.391,2.176	c-0.393-1.236-1.358-3.283-2.832-4.205l-0.464-0.291l-0.31,0.452c-0.397,0.579-0.628,1.302-0.77,2.094	c-1.202-0.447-2.146-1.329-2.55-2.491l-0.203-0.581l-0.564,0.244c-0.916,0.397-1.827,1.292-2.429,1.884c0,0-0.056,0.053-0.077,0.072	c-0.84-1.024-1.207-1.92-1.238-3.115l-0.018-0.675l-1.657,0.325l0.313,1.098c0,0,0.162-0.032,0.295-0.057	c0.165,1.319,0.706,2.424,1.831,3.643l0.389,0.42l0.379-0.355l0.584-0.542c0.429-0.421,1.029-1.003,1.62-1.387	c0.707,1.401,2,2.453,3.633,2.832l0.649,0.15l0.049-0.665c0.048-0.652,0.216-1.197,0.439-1.687c1.206,1.143,1.945,3.276,1.995,3.76	l0.079,0.777l0.716-0.311c1.423-0.618,2.341-1.774,2.653-3.344c0.489-2.458-0.631-5.507-1.616-6.526L107.239,51.741z"/><path d="M107.452,19.795c-0.636,2.664-1.999,3.404-3.466,3.772c0.145-0.495,0.229-1.03,0.229-1.552c0-0.375-0.04-0.74-0.125-1.072	l-0.325-1.279l-0.709,1.113c-0.943,1.48-2.27,2.252-4.055,2.36l0.069,1.14c1.577-0.095,2.888-0.653,3.927-1.646	c-0.076,0.532-0.211,1.049-0.451,1.406l-0.76,1.128l1.338-0.248c1.626-0.302,3.764-0.713,4.943-3.385	c0.085,0.346,0.135,0.686,0.135,1.028c0,0.311-0.029,0.625-0.075,0.95l-0.171,1.213l1.04-0.649c1.895-1.185,2.299-2.428,2.357-4.176	l-1.142-0.038c-0.036,1.091-0.204,1.822-0.875,2.504c-0.026-0.829-0.226-1.727-0.839-2.736l-0.721-1.187L107.452,19.795z"/><path d="M95.966,3.835c-0.924,0.014-1.532,0.551-1.586,1.402c-0.031,0.5,0.234,0.906,0.491,1.299c0.261,0.4,0.53,0.812,0.53,1.356	h1.143c0-0.883-0.414-1.518-0.716-1.98C95.68,5.686,95.512,5.43,95.52,5.31c0.01-0.152,0.021-0.325,0.464-0.332	c0.68-0.011,1.477,0.47,2.4,1.028c1.447,0.875,3.248,1.963,5.803,1.981l0.009-1.143c-2.241-0.016-3.824-0.973-5.221-1.816	C97.9,4.379,96.974,3.819,95.966,3.835z"/><path d="M95.632,4.789c0.218,1.201,1.188,2.679,2.803,3.085c0.451,0.114,1.296,0.236,1.882-0.227	c0.244-0.193,0.535-0.565,0.526-1.239L99.7,6.423c0.001,0.115-0.013,0.265-0.091,0.328c-0.137,0.108-0.505,0.114-0.896,0.016	c-1.073-0.271-1.797-1.303-1.957-2.182L95.632,4.789z"/><path d="M115.157,18.07c0.614,0.7,0.906,1.349,0.963,1.993c-0.98-0.683-2.126-1.09-3.129-1.079l0.013,1.143	c0.997-0.012,2.305,0.592,3.18,1.467l0.66,0.66l0.288-0.887c0.442-1.367,0.077-2.691-1.117-4.051L115.157,18.07z"/><path d="M116.784,24.624c0.192,0.355,0.401,0.942,0.482,1.591c-0.624-0.682-1.348-1.175-2.446-1.445l-0.272,1.11	c1.177,0.289,1.832,0.817,2.692,2.177l0.641,1.013l0.383-1.136c0.536-1.591-0.067-3.096-0.474-3.852L116.784,24.624z"/><path d="M102.2,31.22l0.155,1.143l0.815-0.815c0.909-0.909,2.722-1.737,3.5-1.853l-0.167-1.13c-0.707,0.104-2.058,0.648-3.161,1.388	c0.116-0.904,0.519-1.677,1.192-2.158l-0.663-0.929C102.581,27.786,101.957,29.413,102.2,31.22z"/><path d="M112.629,31.337c0.319,0.54,0.479,1.288,0.479,2.042c0,0.296-0.045,0.586-0.095,0.872c-0.805-1.378-1.901-2.465-3.142-3.058	l-0.493,1.031c1.329,0.635,2.529,2.031,3.209,3.731l0.436,1.092l0.589-1.019c0.85-1.471,0.85-3.836-0.001-5.272L112.629,31.337z"/><path d="M119.375,30.867c0.399,0.763,0.599,1.609,0.599,2.562c0,0.036-0.01,0.077-0.011,0.113c-0.795-0.967-1.745-1.941-3.223-2.535	l-0.426,1.06c1.544,0.621,2.397,1.709,3.299,2.861l1.12,1.423l0.224-1.25c0.333-1.838,0.147-3.397-0.57-4.763L119.375,30.867z"/><path d="M120.218,37.245c0.382,0.517,0.528,1.113,0.528,1.69c0,0.184-0.041,0.355-0.067,0.533c-0.72-1.013-1.835-2.125-3.22-2.565	l-0.347,1.089c1.511,0.479,2.814,2.138,3.219,3.107l0.483,1.156l0.556-1.123c0.581-1.173,0.869-3.073-0.233-4.566L120.218,37.245z"	/><path d="M100.656,39.914l0.107,1.267l0.875-0.921c0.941-0.99,2.726-2.222,3.968-2.487l-0.238-1.117	c-1.107,0.237-2.431,1.021-3.486,1.859c0.235-1.274,0.969-2.297,2.146-2.824l-0.467-1.042	C101.568,35.541,100.456,37.559,100.656,39.914z"/><path d="M95.725,33.124v1.086l0.895-0.615c0.998-0.687,2.387-1.442,2.972-1.618l-0.328-1.094c-0.555,0.167-1.482,0.651-2.323,1.157	c0.155-1.207,0.633-2.81,2.041-3.621l-0.571-0.989C95.986,28.827,95.725,31.877,95.725,33.124z"/><path d="M120.982,44.181c0.821,0.689,1.917,2.005,2.305,3.444l0.263,0.976l0.7-0.728c1.42-1.475,0.964-3.344,0.769-4.143	l-0.048-0.205l-1.117,0.239l0.055,0.237c0.083,0.334,0.197,0.803,0.197,1.311c0,0.292-0.039,0.599-0.143,0.9	c-0.582-1.22-1.478-2.263-2.245-2.907L120.982,44.181z"/><path d="M113.412,46.912l0.059,1.234l0.902-0.843c1.147-1.073,2.392-1.849,3.6-2.245l-0.355-1.085	c-0.957,0.313-1.924,0.842-2.856,1.532c0.292-0.97,0.874-1.917,1.634-2.269l-0.479-1.037	C114.268,42.96,113.333,45.238,113.412,46.912z"/><path d="M107.296,43.469c0.809,0.301,1.662,1.483,2.046,2.632c-1.031-0.732-1.983-1.013-2.788-1.242l-0.657-0.196l-0.359,1.084	l0.704,0.211c1.073,0.305,2.182,0.619,3.456,1.952l0.855,0.896l0.126-1.232c0.19-1.866-1.371-4.575-2.985-5.176L107.296,43.469z"/><rect x="93.186" y="2.126" transform="matrix(-0.0241 -0.9997 0.9997 -0.0241 93.4801 96.651)" width="1.461" height="1.142"/><path d="M94.463,39.051l-0.031,1.175l1.575-1.173c0.398-0.302,0.746-0.561,1.11-0.778c-0.514,1.14-0.791,2.293-0.791,3.418	c0,0.362,0.027,0.721,0.082,1.076l1.129-0.174c-0.252-1.638,0.198-3.409,1.304-5.122l0.762-1.181l-1.371,0.315	c-0.944,0.217-1.607,0.591-2.247,1.042c0.503-1.12,1.45-2.13,2.44-2.4l-0.301-1.102C96.228,34.666,94.517,36.957,94.463,39.051z"/><rect x="96.453" y="42.593" transform="matrix(-0.4919 -0.8706 0.8706 -0.4919 107.6202 148.1071)" width="1.142" height="0.119"/><path d="M92.55,45.84l0.962,0.616c1.341-2.097,3.329-3.375,5.32-3.421l-0.026-1.142C96.399,41.947,94.119,43.387,92.55,45.84z"/><path d="M21.298,8.849c3.023,4.537,5.811,6.993,11.88,6.983c4.838-0.008,10.386-1.597,14.056-2.649l-0.314-1.099	c-3.61,1.035-9.064,2.597-13.743,2.605c-5.585,0.009-8.062-2.172-10.928-6.474L21.298,8.849z"/><path d="M27.595,14.779c1.78,3.606,5.041,5.34,9.969,5.299c5.919-0.048,8.493-0.738,11.474-1.536l-0.296-1.104	c-2.905,0.778-5.414,1.45-11.187,1.497c-4.508,0.037-7.347-1.445-8.936-4.662L27.595,14.779z"/><path d="M48.338,24.499c1.572,3.105,5.407,4.794,10.798,4.756c3.577-0.025,7.639-0.828,11.438-2.261l-0.403-1.069	c-3.677,1.387-7.599,2.164-11.043,2.188c-4.935,0.035-8.406-1.432-9.771-4.13L48.338,24.499z"/><path d="M36.491,19.948c2.338,2.762,7.349,4.693,12.47,4.807c1.936,0.043,8.644,0.018,13.644-2.11l-0.447-1.051	c-4.791,2.038-11.294,2.061-13.172,2.019c-5.529-0.123-9.9-2.368-11.623-4.403L36.491,19.948z"/><path d="M54.175,28.648c0.779,1.945,2.255,3.315,4.388,4.074c4.976,1.769,12.342-0.281,15.983-2.303l-0.555-0.999	c-3.354,1.862-10.456,3.857-15.045,2.225c-1.811-0.644-3.06-1.795-3.711-3.423L54.175,28.648z"/><path d="M67.601,35.995c0.525,0.995,1.495,1.715,2.806,2.081c2.267,0.633,5.396,0.146,7.607-1.185l-0.588-0.979	c-1.932,1.162-4.755,1.61-6.711,1.063c-1.015-0.283-1.723-0.792-2.103-1.513L67.601,35.995z"/><path d="M61.712,33.165c0.562,0.849,1.878,2.836,5.411,3.132c2.542,0.212,5.858-0.476,9.857-2.046l-0.417-1.063	c-3.835,1.506-6.979,2.168-9.344,1.97c-2.981-0.249-4.004-1.794-4.554-2.624L61.712,33.165z"/><path d="M72.356,37.945c0.084,1.005,1.315,2.157,2.927,2.738c1.098,0.396,3.915,1.05,6.351-1.431l-0.815-0.8	c-1.973,2.008-4.257,1.478-5.148,1.156c-1.346-0.486-2.141-1.348-2.175-1.759L72.356,37.945z"/><path d="M84.772,40.699c-0.411,0.993-1.773,1.632-3.392,1.591c-1.353-0.034-3.062-0.577-3.804-1.998l-1.012,0.529	c0.813,1.556,2.647,2.557,4.788,2.611c1.752,0.044,3.218-0.585,4.026-1.616c0.92,0.892,2.064,1.409,3.253,1.397	c1.313-0.013,2.587-0.646,3.712-1.794c0.925,0.189,1.858,0.175,2.779-0.11l-0.338-1.091c-0.838,0.259-1.652,0.276-2.49,0.052	l-0.337-0.091l-0.234,0.259c-0.957,1.058-2.03,1.622-3.104,1.632c-1.065,0.01-2.111-0.539-2.87-1.506l-0.604-0.77L84.772,40.699z"/><path d="M11.621,14.996l-0.219,1.122c5.268,1.027,12.008,0.436,17.292-0.196l-0.136-1.134	C23.357,15.409,16.732,15.994,11.621,14.996z"/><path d="M18.9,20.372l-0.271,1.109c5.584,1.367,13.894,1.185,19.33-0.422l-0.324-1.096C32.367,21.521,24.313,21.696,18.9,20.372z"/><path d="M28.24,28.105c9.563,3.468,22.253,1.318,25.915,0.577l-0.227-1.119c-3.588,0.726-16.014,2.835-25.299-0.531L28.24,28.105z"	/><path d="M43.954,34.546v1.143c5.002,0,12.307-1.36,15.031-2.798l-0.533-1.01C55.903,33.226,48.721,34.546,43.954,34.546z"/><path d="M54.455,38.27l-0.043,1.142c2.525,0.095,8.758-1.432,11.382-3.422l-0.69-0.911C62.7,36.901,56.767,38.356,54.455,38.27z"/><path d="M57.32,39.987l-0.091,1.138c3.654,0.292,9.159-0.49,12.647-3.657l-0.768-0.846C65.89,39.543,60.747,40.26,57.32,39.987z"/><path d="M63.56,45.135l0.739,0.872c0.787-0.668,1.646-1.689,2.357-2.8l-0.962-0.616C65.051,43.595,64.253,44.547,63.56,45.135z"/><path d="M67.526,45.503l0.718,0.888c0.781-0.631,1.432-1.396,2.113-2.48l-0.967-0.607C68.78,44.276,68.204,44.954,67.526,45.503z"/><polygon points="72.283,45.747 72.167,45.876 73.021,46.635 73.136,46.507 74.509,44.933 73.625,44.21 "/><rect x="77.054" y="44.509" transform="matrix(-0.7707 -0.6372 0.6372 -0.7707 108.2072 130.7154)" width="1.142" height="2.756"/><path d="M42.583,14.175c0.859,2.11,2.994,4.276,5.412,4.334c3.03,0.073,7.346-1.248,10.738-3.286l-0.588-0.979	c-3.223,1.937-7.291,3.191-10.123,3.124c-1.926-0.046-3.662-1.858-4.381-3.624L42.583,14.175z"/><path d="M55.304,19.256c-1.666-0.001-3.032-0.613-4.176-1.87l-0.845,0.769c1.353,1.487,3.042,2.242,5.02,2.243	c3.297,0.003,6.97-2.045,10.126-4.051l-0.612-0.964C61.975,17.189,58.326,19.26,55.304,19.256z"/><path d="M68.187,18.647c-2.006,1.384-4.08,2.816-6.062,2.879c-1.462,0.046-2.792-0.667-4.064-2.182l-0.875,0.735	c1.513,1.799,3.14,2.646,4.975,2.589c2.319-0.073,4.533-1.603,6.675-3.082l1.001-0.686L69.2,17.954L68.187,18.647z"/><path d="M66.878,23.133c-1.867,0.103-2.46-0.614-2.795-1.328l-1.035,0.484c0.675,1.442,1.948,2.091,3.893,1.984	c2.174-0.12,4.794-1.393,7.009-3.406l-0.769-0.846C71.155,21.864,68.799,23.027,66.878,23.133z"/><path d="M69.786,24.791c-0.717-0.205-1.261-0.642-1.618-1.3l-1.004,0.544c0.508,0.938,1.286,1.562,2.309,1.854	c1.917,0.547,4.556-0.126,7.841-2l-0.566-0.992C73,25.034,70.893,25.106,69.786,24.791z"/><path d="M69.501,25.519c0.364,1.219,1.106,2.084,2.208,2.571c3.167,1.4,8.134-0.839,9.098-1.302l-0.495-1.029	c-1.967,0.945-5.895,2.279-8.141,1.286c-0.793-0.351-1.308-0.957-1.575-1.853L69.501,25.519z"/><path d="M72.668,28.416c2.019,3.621,4.918,4.085,11.082,1.773l-0.401-1.069c-6.279,2.355-8.187,1.424-9.683-1.259L72.668,28.416z"/><path d="M77.158,31.466c0.556,1.357,1.563,2.317,2.915,2.777c1.987,0.675,4.637,0.226,7.091-1.201l-0.575-0.988	c-2.171,1.264-4.47,1.678-6.148,1.107c-1.043-0.354-1.792-1.071-2.225-2.128L77.158,31.466z"/><path d="M82.34,34.424c0.598,1.366,1.606,2.307,2.838,2.649c1.481,0.412,3.236-0.044,5.207-1.299c0.71,1.545,1.77,1.862,3.285,1.842	l-0.015-1.143c-1.301,0.018-1.925-0.141-2.449-1.73l-0.241-0.734l-0.631,0.446c-1.931,1.365-3.563,1.876-4.85,1.518	c-1.147-0.319-1.774-1.268-2.099-2.007L82.34,34.424z"/><path d="M184.124,13.174c-4.899-0.008-9.19-0.53-12.754-1.551l-0.314,1.098c3.666,1.051,8.062,1.587,13.067,1.595	c5.297,0.009,8.705-1.715,11.761-5.947L194.958,7.7C192.107,11.647,189.07,13.182,184.124,13.174z"/><path d="M178.242,18.554c-2.34,0.016-5.413-0.439-8.431-1.247l-0.295,1.103c3.112,0.833,6.295,1.302,8.733,1.286	c4.647-0.03,7.786-1.777,10.497-5.841l-0.95-0.634C185.288,16.981,182.521,18.526,178.242,18.554z"/><path d="M148.721,25.487c2.749,1.812,6.911,4.22,11.306,4.223c3.089,0.001,5.944-1.188,8.484-3.534l-0.775-0.839	c-2.354,2.175-4.876,3.232-7.709,3.23c-4.087-0.002-8.051-2.303-10.677-4.034L148.721,25.487z"/><path d="M168.378,24.996c-3.161,0.092-9.504-1.71-12.643-4.085l-0.689,0.911c3.371,2.552,9.953,4.416,13.365,4.316	c5.499-0.161,10.887-4.166,12.992-6.652l-0.872-0.738C178.554,21.084,173.506,24.847,168.378,24.996z"/><path d="M145.296,28.609c1.599,2.969,5.67,5.16,9.68,5.208c3.578,0.043,6.459-1.534,8.116-4.439l-0.993-0.566	c-1.945,3.412-5.289,3.885-7.109,3.863c-3.621-0.043-7.274-1.981-8.688-4.607L145.296,28.609z"/><path d="M146.124,38.096c-1.906,0.06-4.073-0.614-5.393-1.678l-0.717,0.89c1.541,1.242,3.953,2,6.146,1.931	c2.104-0.066,3.752-0.876,4.64-2.281l-0.966-0.61C148.917,37.796,147.116,38.064,146.124,38.096z"/><path d="M140.926,32.814c3.834,3.654,7.424,4.107,9.761,3.844c3.021-0.34,5.136-1.96,5.759-2.901l-0.952-0.631	c-0.413,0.623-2.229,2.092-4.934,2.396c-2.095,0.236-5.33-0.186-8.846-3.536L140.926,32.814z"/><path d="M142.244,40.035c-1.011,0.097-2.5-0.076-3.85-1.451l-0.815,0.8c1.667,1.697,3.516,1.909,4.775,1.788	c2.044-0.196,3.731-1.382,4.28-2.396l-1.004-0.543C145.223,38.981,143.813,39.884,142.244,40.035z"/><path d="M133.778,41.099c-0.407,1.011-0.995,1.663-1.573,1.744c-0.588,0.083-1.119-0.42-1.461-0.857l-0.899,0.704	c0.955,1.221,1.897,1.373,2.521,1.285c0.795-0.113,1.5-0.683,2.048-1.608c0.965,1.056,2.302,1.601,3.75,1.45	c1.701-0.178,3.137-1.254,3.66-2.741l-1.078-0.378c-0.376,1.072-1.437,1.85-2.7,1.982c-1.338,0.14-2.523-0.466-3.25-1.664	l-0.592-0.974L133.778,41.099z"/><path d="M190.272,13.327c2.543,0.856,5.656,1.341,9.001,1.4c2.644,0.046,5.322-0.179,7.747-0.652l-0.219-1.121	c-2.347,0.458-4.943,0.676-7.508,0.631c-3.23-0.057-6.223-0.521-8.657-1.341L190.272,13.327z"/><path d="M189.877,20.189c-3.422-0.044-6.562-0.631-8.399-1.57l-0.521,1.017c2.015,1.03,5.261,1.648,8.905,1.696	c3.836,0.049,7.799-0.534,11.159-1.642l-0.358-1.085C197.422,19.675,193.591,20.237,189.877,20.189z"/><path d="M176.579,28.292c-3.9,0.057-7.641-0.34-10.535-1.117l-0.296,1.104c2.992,0.803,6.844,1.214,10.846,1.157	c5.832-0.083,11.437-1.121,15.787-2.92l-0.437-1.056C187.725,27.205,182.268,28.211,176.579,28.292z"/><path d="M159.238,32.464c2.25,2.203,11.526,3.459,17.075,2.826l-0.129-1.135c-5.572,0.637-14.324-0.723-16.146-2.507L159.238,32.464	z"/><path d="M154.935,34.803c2.552,1.935,7.714,4.575,10.327,4.476l-0.043-1.141c-2.11,0.079-6.973-2.258-9.593-4.246L154.935,34.803z"	/><path d="M150.333,36.948c2.702,3.272,7.89,5.042,12.616,4.304l-0.177-1.128c-4.347,0.679-9.1-0.926-11.558-3.903L150.333,36.948z"/><path d="M154.335,42.152l0.55,0.878c0.568,0.914,1.212,1.949,1.793,2.694l0.9-0.703c-0.542-0.697-1.169-1.705-1.722-2.594	l-0.558-0.892L154.335,42.152z"/><path d="M150.874,42.88l0.537,1.181c0.345,0.805,0.672,1.566,1.077,2.008l0.841-0.772c-0.273-0.299-0.576-1.004-0.868-1.686	l-0.572-1.255L150.874,42.88z"/><path d="M146.561,43.603l0.395,1.041c0.453,1.253,0.634,1.706,0.822,1.917l0.872-0.737c-0.115-0.171-0.431-1.045-0.619-1.568	l-0.441-1.15L146.561,43.603z"/><rect x="141.288" y="45.402" transform="matrix(-0.4702 -0.8826 0.8826 -0.4702 169.1086 193.4617)" width="2.668" height="1.143"/><path d="M170.532,17.17c-2.877,0.068-5.441-1.472-8.41-3.255l-0.588,0.979c3.121,1.875,5.818,3.495,9.025,3.418	c2.31-0.055,5.356-2.226,6.269-4.466l-1.058-0.431C175.03,15.23,172.386,17.125,170.532,17.17z"/><path d="M155.984,17.287l0.282,0.159c3.69,2.072,8.743,4.91,13.342,0.887l-0.753-0.86c-3.991,3.491-8.448,0.988-12.029-1.023	l-0.283-0.159L155.984,17.287z"/><path d="M149.44,18.967c2.292,1.542,4.101,2.759,6.821,2.845c1.69,0.052,3.477-0.058,5.106-1.996l-0.875-0.735	c-1.303,1.549-2.671,1.636-4.196,1.588c-2.28-0.072-3.774-1.006-6.219-2.65L149.44,18.967z"/><path d="M145.262,21.263c1.091,0.991,4.237,2.324,6.885,2.244c1.65-0.05,2.87-0.659,3.529-1.76l-0.981-0.586	c-0.455,0.761-1.323,1.166-2.583,1.204c-2.292,0.07-5.178-1.126-6.082-1.947L145.262,21.263z"/><path d="M147.331,24.969c-1.312,0-2.926-0.543-4.8-1.612l-0.566,0.992c2.049,1.169,3.854,1.762,5.365,1.763	c1.862,0.001,3.334-0.9,4.257-2.604l-1.004-0.544C149.852,24.314,148.787,24.97,147.331,24.969z"/><path d="M144.745,27.538c-1.226,0.11-2.66-0.178-3.934-0.79l-0.495,1.029c1.453,0.699,3.105,1.026,4.531,0.898	c1.87-0.168,3.288-1.089,4.099-2.662l-1.016-0.523C147.299,26.715,146.229,27.404,144.745,27.538z"/><path d="M141.74,31.231c-1.204,0.01-2.766-0.447-4.917-1.438l-0.478,1.038c2.309,1.063,4.026,1.554,5.404,1.542	c2.416-0.02,3.646-1.646,4.531-3.233l-0.998-0.556C144.228,30.477,143.234,31.219,141.74,31.231z"/><rect x="137.72" y="46.037" width="1.143" height="0.659"/><path d="M138.47,33.988c-1.097,0.08-2.476-0.288-3.432-0.917l-1.175-0.773l0.304,1.374c0.172,0.781,0.09,1.478-0.233,1.96	c-0.204,0.306-0.497,0.501-0.846,0.562c-0.598,0.105-1.28-0.182-1.974-0.832l-0.781,0.833c1.222,1.144,2.279,1.243,2.953,1.124	c0.653-0.115,1.221-0.489,1.598-1.053c0.322-0.48,0.483-1.078,0.5-1.73c1.008,0.436,2.164,0.664,3.17,0.59	c1.595-0.117,2.814-0.968,3.432-2.399l-1.049-0.453C140.482,33.325,139.652,33.901,138.47,33.988z"/><path d="M113.391,55.985c0.037,1.707,0.636,3.16,1.733,4.201l0.75,0.711l0.23-1.147c0.117-0.583,0.24-1.151,0.605-1.896	c0.303,0.285,0.59,0.591,0.856,0.959l0.509,0.706l0.822-1.384c0.458-0.811,1.044-1.792,2.128-2.512	c0.723,0.419,1.688,1.333,2.3,1.922l1.209,1.114l0.311-0.679c0.611-1.131,1.286-1.76,2.126-2.421c0.217,0.129,0.454,0.27,0.454,0.27	l0.658-0.934l-1.246-0.738l-0.264,0.258c-0.716,0.549-1.576,1.245-2.344,2.412c-0.036-0.033-0.112-0.104-0.112-0.104	c-0.787-0.758-1.977-1.903-2.896-2.302l-0.263-0.114l-0.249,0.142c-1.499,0.86-2.229,2.106-2.76,3.045	c-0.326-0.366-0.667-0.704-1.061-1l-0.507-0.382l-0.327,0.544c-0.44,0.735-0.667,1.315-0.822,1.838	c-0.435-0.71-0.679-1.553-0.7-2.535c-0.001-0.049-0.001-0.098-0.001-0.146c0-1.927,0.806-3.66,1.369-4.242l-0.821-0.794	C114.226,51.662,113.344,53.787,113.391,55.985z"/><path style="fill:#ECB731;" d="M84.891,73.093c-0.091-1.042,0.687-3.038,2.208-3.604c-0.07,0.646-0.045,1.526,0.267,2.103	C86.474,71.775,85.51,72.475,84.891,73.093L84.891,73.093z"/><path d="M86.899,68.954c-1.767,0.657-2.693,2.883-2.578,4.189l0.106,1.22l0.867-0.864c0.523-0.521,1.409-1.187,2.187-1.347	l0.754-0.155l-0.367-0.677c-0.241-0.446-0.262-1.207-0.201-1.77l0.099-0.92L86.899,68.954z M86.53,70.529	c0.019,0.238,0.062,0.465,0.125,0.71c-0.313,0.124-0.605,0.266-0.875,0.437C85.96,71.261,86.195,70.853,86.53,70.529z"/><path style="fill:#ECB731;" d="M95.735,78.526c-0.962-0.43-1.968-1.632-1.49-3.108c0.612-0.114,1.431-0.186,2.043,0.041	C96.012,76.479,95.624,77.656,95.735,78.526L95.735,78.526z"/><path d="M94.141,74.855l-0.334,0.062l-0.105,0.324c-0.552,1.703,0.516,3.233,1.8,3.807l0.929,0.415l-0.128-1.01	c-0.082-0.632,0.183-1.572,0.415-2.401l0.264-0.951l-0.494-0.179C95.739,74.646,94.799,74.733,94.141,74.855z M95.571,75.919	c-0.144,0.515-0.257,1.026-0.334,1.526c-0.302-0.331-0.541-0.76-0.541-1.278c0-0.072,0.028-0.152,0.038-0.227	C95.049,75.903,95.324,75.896,95.571,75.919z"/><path style="fill:#ECB731;" d="M108.194,69.76c-0.139-1.284-1.753-2.493-2.901-2.477c0.112,0.638,0.041,1.213,0.027,1.814	C106.309,69.196,107.498,69.473,108.194,69.76L108.194,69.76z"/><path d="M105.284,66.711l-0.671,0.01l0.116,0.662c0.075,0.422,0.056,0.828,0.036,1.258l-0.037,0.981l0.535,0.044	c0.921,0.092,2.062,0.353,2.713,0.622l0.891,0.368l-0.104-0.958C108.589,68.094,106.672,66.692,105.284,66.711z M105.926,68.064	c0-0.02-0.004-0.043-0.005-0.063c0.42,0.161,0.827,0.459,1.155,0.821c-0.382-0.091-0.776-0.163-1.166-0.221	C105.918,68.425,105.926,68.248,105.926,68.064z"/><polygon points="97.456,62.914 97.488,64.056 99.513,64.047 100.771,64.052 100.763,62.909 99.521,62.905 "/><rect x="99.038" y="60.014" transform="matrix(-0.0184 -0.9998 0.9998 -0.0184 39.9612 162.2123)" width="1.142" height="2.951"/><path d="M101.139,58.916l-2.57,0.051l0.018,1.142l2.925-0.059l0.517-0.794C101.877,58.9,101.63,58.905,101.139,58.916z"/><path d="M92.671,67.823c-0.854,0.186-1.734,0.272-2.565,0.438c0.091,0.093,0.213,0.155,0.336,0.216l0,0l0.085,1.363l0,0	c0.597,0.17,0.487-0.579,1.083-0.579l0,0l1.092-0.337l0,0C92.701,68.835,92.696,68.379,92.671,67.823L92.671,67.823z M90.622,71.22	c0.484-0.138,0.989-0.364,1.615-0.733c-0.004-0.047-0.007-0.093-0.007-0.136c-0.511,0-1.192,0.17-1.533,0.426	C90.697,70.874,90.669,71.034,90.622,71.22L90.622,71.22z M92.253,70.6c-0.792,0.643-1.369,1.29-1.691,2.213	c0.742-0.009,1.569,0.001,2.094,0.263C92.883,72.396,92.371,71.312,92.253,70.6L92.253,70.6z M94.906,72.354	c-0.186,0.659-0.42,1.268-0.558,1.921l0,0l1.075-0.459l0,0c0.085-0.34,0.991-1.492,1.417-1.492	C96.643,72.125,95.578,72.275,94.906,72.354L94.906,72.354z M104.513,67.037c-1.379-0.315-1.543-1.069-3.206-1.906	c0.202,1.753,1.057,3.006,3.102,3.006C104.482,67.843,104.507,67.453,104.513,67.037L104.513,67.037z"/><path style="fill:#ECB731;" d="M122.012,55.628c0.092,3.277,0.685,8.486,3.605,10.571c2.467,1.76,4.384,1.173,6.15,2.757l0,0	l-0.148,1.777l0,0c-3.112-1.013-1.926-0.067-4.431-0.781c1.899,1.347,2.501,1.388,2.729,3.616c-0.743,0.157-1.099,0.811-1.603,1.118	c-0.901-0.949-2.543-1.405-3.769-3.441c0.163,1.592,0.406,3.083,0.406,4.615c-0.655-0.106-1.309-0.121-1.961,0	c-0.574-1.255-1.917-4.078-1.917-5.53c-1.713,0-1.786-1.791-3.397-2.066c-0.728-0.125-1.812,0.439-2.779,0.286	c-0.09-0.72-0.007-1.352-0.007-1.995c1.793-0.562,2.319-1.712,4.472-2.724c0.772-1.706,0.105-3.938-0.447-6.783	c0.472-1.021,1.204-1.479,2.061-2.155C121.217,54.999,121.773,55.459,122.012,55.628L122.012,55.628z"/><path d="M120.622,54.445l-0.337,0.261c-0.731,0.562-1.422,1.093-1.889,2.103l-0.08,0.17l0.295,1.453	c0.284,1.367,0.529,2.552,0.529,3.561c0,0.532-0.083,1.006-0.25,1.44c-0.936,0.469-1.582,0.958-2.142,1.394	c-0.66,0.512-1.18,0.917-2.03,1.183l-0.39,0.122l-0.028,1.016l0.039,1.953l0.468,0.015c0.621,0.099,1.237-0.038,1.783-0.159	c0.39-0.086,0.759-0.167,0.989-0.128c0.563,0.097,0.869,0.439,1.257,0.872c0.402,0.449,0.907,0.965,1.734,1.13	c0.172,1.369,0.981,3.271,1.78,5.01l0.304,0.663l0.438-0.079c0.553-0.102,1.131-0.101,1.767,0.002l0.664,0.107v-0.672	c0-0.933-0.092-1.837-0.197-2.762c0.522,0.488,1.047,0.854,1.51,1.165c0.427,0.286,0.794,0.533,1.063,0.817l0.367,0.388l0.346-0.293	l0.608-0.502c0.268-0.256,0.499-0.478,0.815-0.544l0.503-0.106l-0.053-0.512c-0.147-1.451-0.484-2.116-1.15-2.712	c0.342-0.002,0.822,0.061,2.106,0.479l0.687,0.223l0.233-2.78l-0.212-0.19c-0.987-0.886-1.991-1.155-3.054-1.441	c-0.983-0.264-1.999-0.538-3.145-1.355c-2.602-1.856-3.266-6.529-3.366-10.122l-0.008-0.275l-0.497-0.374l-1.221-0.827	L120.622,54.445z M120.981,55.613c0,0,0.017-0.013,0.019-0.014c0.183,0.13,0.384,0.273,0.384,0.273s0.045,0.034,0.071,0.053	c0.135,3.814,0.917,8.661,3.831,10.74c1.314,0.938,2.482,1.252,3.513,1.53c0.881,0.237,1.65,0.462,2.373,1.029	c-0.018,0.221-0.033,0.396-0.063,0.759c-1.218-0.353-1.66-0.34-2.064-0.316c-0.33,0.02-0.642,0.038-1.698-0.263l-3.356-0.957	l3.649,2.511c1.124,0.759,1.466,1.05,1.646,2.279c-0.342,0.179-0.633,0.399-0.854,0.612c0,0-0.065,0.056-0.107,0.091	c-0.265-0.216-0.546-0.421-0.849-0.624c-0.799-0.537-1.705-1.145-2.438-2.364l-1.35-2.243l0.436,3.886	c0.106,0.908,0.191,1.775,0.227,2.644c-0.344-0.021-0.68-0.014-1.007,0.02c-0.581-1.265-1.697-3.724-1.697-4.926V69.76h-0.572	c-0.62,0-0.915-0.297-1.384-0.822c-0.427-0.478-0.959-1.073-1.916-1.237c-0.452-0.077-0.927,0.028-1.429,0.139	c-0.3,0.066-0.599,0.111-0.887,0.135c-0.006-0.372-0.013-0.781-0.013-0.781s0.003-0.129,0.007-0.244	c0.818-0.323,1.402-0.757,1.999-1.221c0.589-0.458,1.198-0.931,2.155-1.38l0.191-0.089l0.087-0.192	c0.289-0.635,0.399-1.327,0.399-2.071c0-1.144-0.263-2.414-0.55-3.797c0,0-0.156-0.77-0.214-1.056	C119.861,56.491,120.335,56.11,120.981,55.613z"/><path style="fill:#ECB731;" d="M130.207,76.997c0.424-0.639,0.696-2.537-0.091-3.61c-0.488,0.195-1.39,0.868-1.787,1.319	C128.918,75.283,129.749,76.146,130.207,76.997L130.207,76.997z"/><path d="M129.903,72.856c-0.617,0.247-1.584,0.994-2.005,1.473l-0.358,0.407l0.388,0.379c0.322,0.314,1.299,1.271,1.775,2.153	l0.453,0.841l0.527-0.796c0.57-0.862,0.819-3.002-0.107-4.264l-0.262-0.356L129.903,72.856z M129.858,74.185	c0.115,0.315,0.187,0.655,0.187,1.001c0,0.177-0.034,0.328-0.054,0.493c-0.279-0.349-0.568-0.674-0.847-0.961	C129.368,74.528,129.622,74.339,129.858,74.185z"/><path style="fill:#ECB731;" d="M134.142,72.498c0.092-1.042-0.687-3.039-2.208-3.604c-0.023,0.615-0.076,1.192-0.267,1.809	C132.518,71.05,133.491,72,134.142,72.498L134.142,72.498z"/><path d="M131.363,68.871c-0.023,0.604-0.074,1.118-0.242,1.662l-0.155,0.5l0.485,0.198c0.542,0.222,1.21,0.782,1.747,1.232	l1.435,1.172l0.08-1.088c0.114-1.307-0.811-3.533-2.578-4.19l-0.74-0.275L131.363,68.871z M132.426,69.884	c0.353,0.318,0.612,0.718,0.803,1.141c-0.301-0.235-0.605-0.424-0.919-0.602C132.35,70.243,132.403,70.057,132.426,69.884z"/><path style="fill:#ECB731;" d="M123.52,78.749c0.963-0.43,1.968-1.631,1.49-3.108c-0.612-0.114-1.432-0.186-2.043,0.041	C123.243,76.704,123.632,77.88,123.52,78.749L123.52,78.749z"/><path d="M122.769,75.145l-0.494,0.182l0.262,0.948c0.233,0.83,0.497,1.771,0.416,2.402l-0.129,1.01l0.93-0.415	c1.285-0.574,2.352-2.103,1.8-3.807l-0.104-0.324l-0.335-0.062C124.458,74.956,123.517,74.869,122.769,75.145z M124.522,76.164	c0.01,0.075,0.037,0.155,0.037,0.227c0,0.518-0.239,0.947-0.541,1.278c-0.077-0.501-0.189-1.011-0.334-1.526	C123.932,76.12,124.207,76.126,124.522,76.164z"/><path style="fill:#ECB731;" d="M112.404,69.68c-0.091-1.284,1.251-3,2.527-2.984c-0.112,0.638-0.041,1.214-0.027,1.814	C113.915,68.757,113.1,69.279,112.404,69.68L112.404,69.68z"/><path d="M112.902,67.124c-0.718,0.761-1.128,1.756-1.069,2.597l0.065,0.916l1.048-0.61c0.611-0.358,1.304-0.763,2.097-0.961	l0.45-0.112l-0.034-0.899c-0.02-0.43-0.039-0.836,0.035-1.258l0.118-0.663l-0.673-0.009	C114.242,66.115,113.519,66.47,112.902,67.124z M113.733,67.908c0.18-0.19,0.374-0.336,0.565-0.446c0,0.005,0,0.01,0,0.015	c0,0.215,0.01,0.424,0.019,0.629c0,0,0,0.015,0,0.016c-0.35,0.12-0.692,0.24-0.997,0.394	C113.44,68.306,113.561,68.091,113.733,67.908z"/><polygon points="121.116,62.32 119.655,62.341 119.648,63.483 121.143,63.463 123.087,63.449 123.118,62.306 "/><rect x="120.734" y="59.817" transform="matrix(-0.0295 -0.9996 0.9996 -0.0295 63.6646 184.3035)" width="1.143" height="2.855"/><path d="M119.156,59.15l0.447,0.977c0.215-0.017,2.248-0.163,2.734-0.155l0.018-1.143C122.327,58.829,119.5,58.812,119.156,59.15z"	/><path d="M127.392,67.501c0.854,0.186,1.868,0.379,2.699,0.544c-0.586,0.602-0.565-0.085-0.635,1.042	c-0.597,0.17-0.514-0.229-1.11-0.229l0,0l-1.091-0.337l0,0C127.254,68.432,127.367,68.056,127.392,67.501L127.392,67.501z M127.243,70.035c0.792,0.644,2.096,1.855,2.419,2.778c-0.742-0.009-1.408-0.241-1.932,0.021	C127.881,71.217,126.722,71.445,127.243,70.035L127.243,70.035z M124.126,72.429c0.186,0.658,0.42,1.268,0.558,1.92l0,0	l-1.075-0.458l0,0c-0.084-0.341-0.545-1.493-0.97-1.493C122.836,72.201,123.455,72.35,124.126,72.429L124.126,72.429z M115.897,66.235c1.379-0.315,1.544-1.069,3.207-1.906c-0.202,1.753-1.058,3.006-3.102,3.006	C115.929,67.042,115.903,66.651,115.897,66.235L115.897,66.235z"/><path d="M105.041,87.662l0.384,0.026c0.443,0.031,0.739,0.099,0.886,0.201s0.212,0.269,0.196,0.497	c-0.015,0.217-0.108,0.365-0.278,0.442c-0.17,0.078-0.476,0.101-0.916,0.07l-0.357-0.025L105.041,87.662z M104.897,92.476	c0.747,0.052,1.287,0.067,1.62,0.045c0.332-0.022,0.614-0.08,0.846-0.175c0.284-0.112,0.509-0.285,0.674-0.517	c0.165-0.232,0.259-0.507,0.281-0.825c0.031-0.446-0.076-0.811-0.32-1.094c-0.245-0.284-0.599-0.458-1.063-0.524	c0.422-0.073,0.735-0.203,0.939-0.391s0.317-0.452,0.342-0.794c0.019-0.27-0.029-0.512-0.141-0.727	c-0.113-0.214-0.286-0.392-0.52-0.531c-0.205-0.12-0.453-0.212-0.744-0.276c-0.292-0.064-0.808-0.122-1.55-0.174l-1.802-0.126	l-0.418,5.978L104.897,92.476z M104.881,89.943l0.652,0.045c0.438,0.031,0.734,0.101,0.889,0.212	c0.155,0.11,0.224,0.292,0.206,0.544c-0.016,0.225-0.115,0.38-0.299,0.466c-0.184,0.085-0.488,0.113-0.914,0.083l-0.625-0.043	L104.881,89.943z"/></svg>