<?xml version="1.0" encoding="UTF-8" standalone="no"?>
<!-- Created with Inkscape (http://www.inkscape.org/) -->
<svg
   xmlns:dc="http://purl.org/dc/elements/1.1/"
   xmlns:cc="http://creativecommons.org/ns#"
   xmlns:rdf="http://www.w3.org/1999/02/22-rdf-syntax-ns#"
   xmlns:svg="http://www.w3.org/2000/svg"
   xmlns="http://www.w3.org/2000/svg"
   xmlns:sodipodi="http://sodipodi.sourceforge.net/DTD/sodipodi-0.dtd"
   xmlns:inkscape="http://www.inkscape.org/namespaces/inkscape"
   width="340"
   height="455"
   id="svg4710"
   sodipodi:version="0.32"
   inkscape:version="0.46"
   version="1.0"
   sodipodi:docname="Internazionale.svg"
   inkscape:output_extension="org.inkscape.output.svg.inkscape">
  <defs
     id="defs4712">
    <inkscape:perspective
       sodipodi:type="inkscape:persp3d"
       inkscape:vp_x="0 : 526.18109 : 1"
       inkscape:vp_y="0 : 1000 : 0"
       inkscape:vp_z="744.09448 : 526.18109 : 1"
       inkscape:persp3d-origin="372.04724 : 350.78739 : 1"
       id="perspective4718" />
  </defs>
  <sodipodi:namedview
     id="base"
     pagecolor="#ffffff"
     bordercolor="#666666"
     borderopacity="1.0"
     gridtolerance="10000"
     guidetolerance="10"
     objecttolerance="10"
     inkscape:pageopacity="0.0"
     inkscape:pageshadow="2"
     inkscape:zoom="1.4"
     inkscape:cx="176.58471"
     inkscape:cy="241.26558"
     inkscape:document-units="px"
     inkscape:current-layer="layer1"
     showgrid="true"
     inkscape:window-width="1280"
     inkscape:window-height="940"
     inkscape:window-x="-4"
     inkscape:window-y="-4">
    <inkscape:grid
       type="xygrid"
       id="grid4731"
       visible="true"
       enabled="true" />
  </sodipodi:namedview>
  <metadata
     id="metadata4715">
    <rdf:RDF>
      <cc:Work
         rdf:about="">
        <dc:format>image/svg+xml</dc:format>
        <dc:type
           rdf:resource="http://purl.org/dc/dcmitype/StillImage" />
      </cc:Work>
    </rdf:RDF>
  </metadata>
  <g
     inkscape:label="Layer 1"
     inkscape:groupmode="layer"
     id="layer1">
    <path
       sodipodi:type="arc"
       style="fill:#7c744f;fill-opacity:1;fill-rule:evenodd;stroke:none;stroke-width:1px;stroke-linecap:butt;stroke-linejoin:miter;stroke-opacity:1"
       id="path3190"
       sodipodi:cx="578.92859"
       sodipodi:cy="339.64285"
       sodipodi:rx="170.35715"
       sodipodi:ry="170.35715"
       d="M 749.28574,339.64285 A 170.35715,170.35715 0 1 1 408.57144,339.64285 A 170.35715,170.35715 0 1 1 749.28574,339.64285 z"
       transform="matrix(0.9790356,0,0,0.9790356,-397.14885,-47.308183)" />
    <path
       transform="matrix(0.9056603,0,0,0.8983369,-354.66979,-19.899439)"
       d="M 749.28574,339.64285 A 170.35715,170.35715 0 1 1 408.57144,339.64285 A 170.35715,170.35715 0 1 1 749.28574,339.64285 z"
       sodipodi:ry="170.35715"
       sodipodi:rx="170.35715"
       sodipodi:cy="339.64285"
       sodipodi:cx="578.92859"
       id="path3192"
       style="fill:#07367c;fill-opacity:1;fill-rule:evenodd;stroke:none;stroke-width:1px;stroke-linecap:butt;stroke-linejoin:miter;stroke-opacity:1"
       sodipodi:type="arc" />
    <path
       sodipodi:type="arc"
       style="fill:#7d744c;fill-opacity:1;fill-rule:evenodd;stroke:none;stroke-width:1px;stroke-linecap:butt;stroke-linejoin:miter;stroke-opacity:1"
       id="path3194"
       sodipodi:cx="578.92859"
       sodipodi:cy="339.64285"
       sodipodi:rx="170.35715"
       sodipodi:ry="170.35715"
       d="M 749.28574,339.64285 A 170.35715,170.35715 0 1 1 408.57144,339.64285 A 170.35715,170.35715 0 1 1 749.28574,339.64285 z"
       transform="matrix(0.8008385,0,0,0.7943627,-293.98545,15.414651)" />
    <path
       transform="matrix(0.7543409,0,0,-0.7482411,-267.06666,539.34901)"
       d="M 749.28574,339.64285 A 170.35715,170.35715 0 1 1 408.57144,339.64285 A 170.35715,170.35715 0 1 1 749.28574,339.64285 z"
       sodipodi:ry="170.35715"
       sodipodi:rx="170.35715"
       sodipodi:cy="339.64285"
       sodipodi:cx="578.92859"
       id="path3196"
       style="fill:#1b170b;fill-opacity:1;fill-rule:evenodd;stroke:none;stroke-width:1px;stroke-linecap:butt;stroke-linejoin:miter;stroke-opacity:1"
       sodipodi:type="arc" />
    <path
       sodipodi:type="arc"
       style="fill:#7d744d;fill-opacity:1;fill-rule:evenodd;stroke:none;stroke-width:1px;stroke-linecap:butt;stroke-linejoin:miter;stroke-opacity:1"
       id="path3198"
       sodipodi:cx="578.92859"
       sodipodi:cy="339.64285"
       sodipodi:rx="170.35715"
       sodipodi:ry="170.35715"
       d="M 749.28574,339.64285 A 170.35715,170.35715 0 1 1 408.57144,339.64285 A 170.35715,170.35715 0 1 1 749.28574,339.64285 z"
       transform="matrix(0.6600013,0,0,-0.6546643,-212.45077,507.56632)" />
    <path
       style="fill:#ffffff;fill-opacity:1;fill-rule:evenodd;stroke:none;stroke-width:1px;stroke-linecap:butt;stroke-linejoin:miter;stroke-opacity:1"
       d="M 170.34375,187.26786 C 115.83159,187.26785 71.593749,231.16528 71.593749,285.23661 C 71.59374,335.50179 109.82612,376.93204 159,382.51786 L 159,369.54911 C 116.98731,364.04338 84.531258,328.4054 84.531249,285.23661 C 84.53125,238.25603 122.98017,200.11159 170.34375,200.11161 C 204.43628,200.11161 233.88764,219.85901 247.71875,248.45536 L 261.90625,248.45536 C 247.23719,212.58661 211.74554,187.26786 170.34375,187.26786 z M 254.5,301.67411 C 247.33607,337.96773 216.90073,365.99637 179.25,369.86161 L 179.25,382.76786 C 224.06454,378.77785 260.31762,345.07706 267.71875,301.67411 L 254.5,301.67411 z"
       id="path3200" />
    <path
       style="fill:#ffffff;fill-opacity:1;stroke:none;stroke-width:20;stroke-linecap:butt;stroke-linejoin:miter;stroke-miterlimit:1;stroke-dashoffset:1.29040003;stroke-opacity:1"
       d="M 152,177.14286 C 152,177.14286 160,181.14286 161,185.14286 C 161,185.14286 177,185.14286 177,185.14286 C 178,181.14286 187,177.14286 187,177.14286 C 187,177.14286 152,177.14286 152,177.14286 z M 161,203.14286 C 161,203.14286 161,266.14286 161,266.14286 L 177,266.14286 L 177,203.14286 C 177,203.14286 170.2051,201.70561 161,203.14286 z M 131,219.14286 C 131,219.14286 131.03125,221.95536 131.03125,221.95536 C 132.83653,222.12782 133.21875,223.08036 133.21875,223.08036 L 133,253.14286 L 150,282.14286 L 188,282.14286 L 188,268.14286 L 149.96875,268.01786 L 150,234.14286 L 159,234.14286 L 159,219.14286 L 131,219.14286 z M 179,219.14286 L 179,234.14286 L 204.25,234.04911 C 204.25,234.04911 205.32588,234.36086 205.25,235.58036 C 205.25,235.58036 208.28125,235.58036 208.28125,235.58036 L 208.28125,219.17411 L 179,219.14286 z M 161,284.14286 L 161,384.70536 C 160.99891,384.70536 160.90625,384.70536 160.90625,384.70536 C 159.90625,388.70536 151.90625,392.70537 151.90625,392.70536 C 151.90625,392.70536 186.90626,392.70537 186.90625,392.70536 C 186.90625,392.70536 178.19449,388.68784 177,384.95536 L 177,284.14286 L 161,284.14286 z"
       id="rect3216"
       sodipodi:nodetypes="ccccccccccccccccccccccccccccccccccccc" />
    <path
       style="fill:#ffffff;fill-opacity:1;fill-rule:evenodd;stroke:none;stroke-width:1px;stroke-linecap:butt;stroke-linejoin:miter;stroke-opacity:1"
       d="M 95.999999,323.14286 C 97.84063,321.41355 98,319.14286 98,319.14286 C 100.80457,299.4264 103.39285,244.50001 103.39285,244.50001 C 103.39285,244.50001 101,239.14286 101,239.14286 C 107.55357,229.96429 113.57142,224.32143 113.57142,224.32143 C 127.16149,246.29054 159,302.14286 159,302.14286 L 159,329.14286 L 119.82142,268.60715 C 119.82142,268.60715 115.03757,316.20742 115,347.14286 C 115,347.14286 107,341.14286 95.999999,323.14286 z"
       id="path4690"
       sodipodi:nodetypes="ccccccccsc" />
    <path
       sodipodi:nodetypes="ccccccccsc"
       id="path4692"
       d="M 244,324.14286 C 242.15937,322.41355 241.78572,320.03572 241.78572,320.03572 C 238.98114,300.31926 235.53572,244.67858 235.53572,244.67858 C 235.53572,244.67858 239.55358,239.1875 239.55358,239.1875 C 233,230.14286 225.84822,224.00893 225.84822,224.00893 C 212.25816,245.97804 179,302.14286 179,302.14286 L 179,329.14286 L 219.10715,268.78572 C 219.10715,268.78572 222.96244,318.20742 223,349.14286 C 223,349.14286 231.55492,344.35432 244,324.14286 z"
       style="fill:#ffffff;fill-opacity:1;fill-rule:evenodd;stroke:none;stroke-width:1px;stroke-linecap:butt;stroke-linejoin:miter;stroke-opacity:1" />
    <path
       sodipodi:nodetypes="cccscsc"
       id="path4703"
       d="M 131,358.14286 C 133,356.14286 133,354.14286 133,354.14286 C 133,354.14286 133,293.14286 133,293.14286 C 133,293.14286 150,319.14286 150,319.14286 C 150,319.14286 150,360.14286 150,360.14286 C 150,363.14286 152,366.14286 152,366.14286 C 152,366.14286 140,364.14286 131,358.14286 z"
       style="fill:#ffffff;fill-opacity:1;fill-rule:evenodd;stroke:none;stroke-width:1px;stroke-linecap:butt;stroke-linejoin:miter;stroke-opacity:1" />
  </g>
</svg>
