<?xml version="1.0" encoding="iso-8859-1"?><!-- Generator: Adobe Illustrator 16.0.0, SVG Export Plug-In . SVG Version: 6.00 Build 0) --><!DOCTYPE svg PUBLIC "-//W3C//DTD SVG 1.1//EN" "http://www.w3.org/Graphics/SVG/1.1/DTD/svg11.dtd"><svg version="1.1" id="Layer_1" xmlns="http://www.w3.org/2000/svg" xmlns:xlink="http://www.w3.org/1999/xlink" x="0px" y="0px" width="192.756px" height="192.756px" viewBox="0 0 192.756 192.756" style="enable-background:new 0 0 192.756 192.756;" xml:space="preserve"><g><polygon style="fill-rule:evenodd;clip-rule:evenodd;fill:#FFFFFF;" points="0,0 192.756,0 192.756,192.756 0,192.756 0,0	"/><path style="fill-rule:evenodd;clip-rule:evenodd;" d="M105.037,177.695c-0.693,2.078-2.951,7.168-8.4,7.168	c-6.189,0-8.349-6.705-8.454-6.98l-0.177-0.643c0,0,5.334,0.443,8.271,0.443s7.954-0.285,8.776-0.443L105.037,177.695	L105.037,177.695z"/><path style="fill-rule:evenodd;clip-rule:evenodd;" d="M121.283,174.389l1.279,0.17c-1.518,3.955-4.242,8.389-9.594,8.389	c-5.18,0-7.748-3.002-8.844-5.021l-0.895-0.549C103.23,177.377,112.189,177.082,121.283,174.389L121.283,174.389z"/><path style="fill-rule:evenodd;clip-rule:evenodd;" d="M72.175,174.389l-1.277,0.17c1.515,3.955,4.241,8.389,9.595,8.389	c5.179,0,7.977-3.17,9.125-5.021l0.611-0.549C90.228,177.377,81.271,177.082,72.175,174.389L72.175,174.389z"/><path style="fill-rule:evenodd;clip-rule:evenodd;fill:#FFF22D;" d="M100.979,178.107c-0.838,1.215-1.398,1.158-2.41,1.158	c-0.506,0-1.266,0.42-1.242,1.18c0.016,0.596,0.502,1.094,1.328,1.094c1.828,0,3.221-2.555,3.613-3.635	c0,0,1.082-0.047,1.398-0.078c0,0-1.939,5.771-6.963,5.771c-5.035,0-7.085-5.709-7.085-5.709s4.236,0.262,6.664,0.262	S100.252,178.139,100.979,178.107L100.979,178.107z"/><path style="fill-rule:evenodd;clip-rule:evenodd;fill:#FFF22D;" d="M120.613,175.568c-3.285,0.885-5.617,1.6-11.131,2.271	c0,0,0.172,0.57,1.371,0.506c0.461-0.023,0.52-0.137,0.691-0.168c0.34-0.062,0.863,0.295,0.801,0.895	c-0.045,0.418-0.404,0.947-1.625,0.947s-2.648-1-3.365-1.926c0,0-0.734,0.168-1.492,0.211c0,0,2.346,3.287,6.975,3.287	C117.932,181.592,119.812,177.041,120.613,175.568L120.613,175.568z"/><path style="fill-rule:evenodd;clip-rule:evenodd;fill:#FADE2F;" d="M117.197,178.781c0-0.797-0.246-1.535-0.664-2.146	c-1.783,0.42-3.822,0.805-6.809,1.176c-0.021,0.088-0.041,0.178-0.059,0.268c0.18,0.146,0.529,0.303,1.188,0.268	c0.461-0.023,0.52-0.137,0.691-0.168c0.34-0.062,0.863,0.295,0.801,0.895c-0.045,0.418-0.404,0.947-1.625,0.947	c-0.314,0-0.645-0.066-0.971-0.182c0.16,0.555,0.443,1.057,0.818,1.475c0.682,0.174,1.439,0.279,2.27,0.279	c1.633,0,2.934-0.467,3.977-1.152C117.059,179.939,117.197,179.377,117.197,178.781L117.197,178.781z"/><path style="fill-rule:evenodd;clip-rule:evenodd;fill:#FBE02F;" d="M117.145,178.781c0-0.793-0.246-1.527-0.666-2.133	c-1.76,0.41-3.771,0.789-6.697,1.154c-0.027,0.102-0.051,0.205-0.068,0.311c0.191,0.135,0.535,0.266,1.141,0.232	c0.461-0.023,0.52-0.137,0.691-0.168c0.34-0.062,0.863,0.295,0.801,0.895c-0.045,0.418-0.404,0.947-1.625,0.947	c-0.295,0-0.604-0.059-0.91-0.16c0.168,0.559,0.461,1.061,0.85,1.477c0.658,0.16,1.385,0.256,2.178,0.256	c1.588,0,2.863-0.441,3.891-1.096C116.994,179.982,117.145,179.398,117.145,178.781L117.145,178.781z"/><path style="fill-rule:evenodd;clip-rule:evenodd;fill:#FCE22F;" d="M117.092,178.781c0-0.789-0.246-1.521-0.668-2.121	c-1.734,0.404-3.723,0.777-6.586,1.137c-0.031,0.113-0.059,0.23-0.078,0.348c0.199,0.123,0.535,0.23,1.094,0.201	c0.461-0.023,0.52-0.137,0.691-0.168c0.34-0.062,0.863,0.295,0.801,0.895c-0.045,0.418-0.404,0.947-1.625,0.947	c-0.275,0-0.562-0.051-0.85-0.141c0.174,0.561,0.479,1.066,0.881,1.479c0.635,0.146,1.33,0.234,2.086,0.234	c1.543,0,2.791-0.418,3.803-1.041C116.93,180.025,117.092,179.422,117.092,178.781L117.092,178.781z"/><path style="fill-rule:evenodd;clip-rule:evenodd;fill:#FFF22D;" d="M72.848,175.568c3.283,0.885,5.616,1.6,11.13,2.271	c0,0-0.172,0.57-1.371,0.506c-0.462-0.023-0.521-0.137-0.692-0.168c-0.339-0.062-0.863,0.295-0.799,0.895	c0.044,0.418,0.402,0.947,1.623,0.947s2.648-1,3.364-1.926c0,0,0.737,0.168,1.495,0.211c0,0-2.347,3.287-6.976,3.287	C75.528,181.592,73.647,177.041,72.848,175.568L72.848,175.568z"/><path style="fill-rule:evenodd;clip-rule:evenodd;fill:#FFF22D;" d="M96.217,148.492c17.551,0,36.998-10.773,50.633-26.305	c1.475-1.678,3.979-4.861,9.914-4.861c5.934,0,13.824,5.408,12.895,15.256c-0.676,7.18-10.939,23.361-28.49,33.336	s-33.713,12.121-44.951,12.121c-11.238,0-27.4-2.146-44.952-12.121c-17.551-9.975-27.813-26.156-28.491-33.336	c-0.929-9.848,6.961-15.256,12.896-15.256s8.44,3.184,9.914,4.861C59.22,137.719,78.666,148.492,96.217,148.492L96.217,148.492z"/><path d="M96.217,147.861c8.504,0,17.469-2.566,25.992-6.994c8.881-4.613,17.273-11.24,24.168-19.094	c0.76-0.863,1.781-2.115,3.414-3.172c1.643-1.064,3.863-1.906,6.973-1.906c0.322,0,0.666,0.018,1.027,0.051	c2.861,0.271,6.006,1.654,8.432,4.062c2.428,2.41,4.143,5.842,4.143,10.203c0,0.514-0.025,1.057-0.08,1.631	c-0.389,4.123-3.814,11.088-9.867,18.172c-4.75,5.557-11.129,11.213-18.938,15.65c-8.836,5.021-17.322,8.074-25.012,9.869	c-7.697,1.797-14.596,2.336-20.252,2.336c-5.657,0-12.555-0.539-20.251-2.336c-7.689-1.795-16.175-4.848-25.011-9.869	c-7.809-4.438-14.188-10.094-18.938-15.65c-6.053-7.084-9.479-14.049-9.868-18.172c-0.054-0.574-0.08-1.117-0.08-1.631	c0-4.361,1.715-7.793,4.144-10.203c2.425-2.408,5.569-3.791,8.429-4.062c0.363-0.033,0.707-0.051,1.029-0.051	c3.108,0,5.331,0.842,6.972,1.906c1.634,1.057,2.656,2.309,3.415,3.172c6.895,7.854,15.289,14.48,24.168,19.094	C78.749,145.295,87.712,147.861,96.217,147.861L96.217,147.861z M96.217,149.123c-8.712,0-17.875-2.617-26.574-7.135	c-9.011-4.682-17.531-11.412-24.533-19.385c-0.715-0.814-1.682-1.994-3.153-2.947c-1.463-0.947-3.46-1.697-6.287-1.697	c-0.313,0-0.618,0.014-0.91,0.041c-2.592,0.244-5.448,1.506-7.66,3.701c-2.209,2.193-3.769,5.322-3.769,9.311	c0,0.506,0.023,1.01,0.07,1.512c0.368,3.902,3.69,10.59,9.572,17.473c4.666,5.459,10.933,11.016,18.603,15.375	c8.716,4.953,17.088,7.963,24.676,9.734c7.583,1.77,14.385,2.303,19.965,2.303c5.58,0,12.383-0.533,19.965-2.303	c7.59-1.771,15.961-4.781,24.676-9.734c7.67-4.359,13.938-9.916,18.604-15.377c5.883-6.883,9.205-13.568,9.572-17.471	c0.047-0.5,0.07-1.006,0.07-1.512c0-3.988-1.561-7.117-3.77-9.311c-2.211-2.195-5.068-3.457-7.66-3.701	c-0.293-0.027-0.598-0.041-0.91-0.041c-2.826,0-4.824,0.75-6.287,1.697c-1.471,0.953-2.439,2.133-3.152,2.947	c-7.002,7.973-15.521,14.703-24.533,19.383C114.094,146.506,104.93,149.123,96.217,149.123L96.217,149.123z"/><path style="fill-rule:evenodd;clip-rule:evenodd;fill:#C23227;" d="M43.613,123.73l-0.205-0.232	c-1.397-1.604-3.311-3.803-7.882-3.803c-2.666,0-5.685,1.426-7.691,3.631c-1.5,1.646-3.201,4.541-2.783,8.967	c0.57,6.047,10.172,21.73,27.271,31.449c13.782,7.832,28.501,11.805,43.75,11.805c15.249,0,29.967-3.973,43.75-11.805	c17.098-9.719,26.701-25.402,27.271-31.449c0.416-4.426-1.283-7.32-2.785-8.967c-2.004-2.205-5.025-3.631-7.689-3.631	c-4.57,0-6.484,2.199-7.883,3.803l-0.203,0.232c-14.695,16.736-34.797,27.131-52.461,27.131	C78.41,150.861,58.307,140.467,43.613,123.73L43.613,123.73z"/><path style="fill-rule:evenodd;clip-rule:evenodd;fill:#FFF22D;" d="M152.6,103.99c0-8.421,6.824-15.248,15.246-15.248	s15.248,6.827,15.248,15.248c0,8.42-6.826,15.246-15.248,15.246S152.6,112.41,152.6,103.99L152.6,103.99z"/><path d="M151.967,103.99c0-4.385,1.777-8.355,4.652-11.229c2.871-2.874,6.842-4.651,11.227-4.651s8.355,1.777,11.229,4.651	s4.65,6.844,4.65,11.229s-1.777,8.354-4.65,11.227s-6.844,4.65-11.229,4.65s-8.354-1.777-11.227-4.65	C153.744,112.344,151.967,108.375,151.967,103.99L151.967,103.99z M153.23,103.99c0,4.035,1.637,7.689,4.281,10.334	s6.299,4.281,10.334,4.281s7.689-1.637,10.336-4.281c2.645-2.645,4.281-6.299,4.281-10.334c0-4.037-1.637-7.691-4.281-10.335	c-2.646-2.645-6.301-4.281-10.336-4.281s-7.689,1.636-10.334,4.281C154.865,96.299,153.23,99.953,153.23,103.99L153.23,103.99z"/><path style="fill-rule:evenodd;clip-rule:evenodd;fill:#FFF22D;" d="M9.662,104.014c0-8.419,6.827-15.246,15.248-15.246	c8.42,0,15.247,6.827,15.247,15.246c0,8.422-6.827,15.248-15.247,15.248C16.489,119.262,9.662,112.436,9.662,104.014L9.662,104.014	z"/><path d="M9.031,104.014c0-4.383,1.777-8.353,4.651-11.227c2.874-2.873,6.843-4.65,11.228-4.65c4.384,0,8.354,1.778,11.227,4.65	c2.874,2.874,4.65,6.844,4.65,11.227c0,4.385-1.777,8.355-4.65,11.229c-2.873,2.873-6.843,4.652-11.227,4.652	c-4.385,0-8.354-1.779-11.228-4.652S9.031,108.398,9.031,104.014L9.031,104.014z M10.293,104.014c0,4.037,1.636,7.691,4.281,10.336	c2.645,2.645,6.299,4.281,10.335,4.281c4.036,0,7.689-1.637,10.334-4.281c2.645-2.645,4.281-6.299,4.281-10.336	c0-4.035-1.636-7.689-4.281-10.334s-6.298-4.281-10.334-4.281c-4.036,0-7.69,1.636-10.335,4.281	C11.93,96.324,10.293,99.979,10.293,104.014L10.293,104.014z"/><path style="fill-rule:evenodd;clip-rule:evenodd;" d="M172.02,62.98l0.084-4.083c1.246,0.941,3.619,0.978,5.008-0.506	c0.639-0.678,0.996-1.713,0.939-2.795c-0.066-1.203-0.605-2.465-1.516-3.353c-5.135-5.004-9.674-10.006-9.674-10.006	c-0.459-0.74-1.215-1.287-1.627-1.471c-0.643-0.286-2.863-1.302-4.557,1.274c-1.535,2.335-1.307,5.639-1.031,6.839l4.818,6.546	C166.107,57.508,170.738,61.948,172.02,62.98L172.02,62.98z"/><path style="fill-rule:evenodd;clip-rule:evenodd;" d="M69.357,20.521c6.054-2.029,11.579-3.704,19.028-4.366L69.357,20.521	L69.357,20.521z"/><path style="fill-rule:evenodd;clip-rule:evenodd;" d="M69.357,20.538c6.054-2.032,11.579-3.704,19.028-4.367l1.135-0.641	c-4.165-3.274-8.297-5.501-12.41-5.501c-2.583,0-7.833,1.752-9.013,11.012L69.357,20.538L69.357,20.538z"/><path style="fill-rule:evenodd;clip-rule:evenodd;" d="M123.094,20.538c-6.055-2.032-11.578-3.704-19.027-4.367l-1.135-0.641	c4.164-3.274,8.295-5.501,12.408-5.501c2.584,0,7.836,1.752,9.014,11.012L123.094,20.538L123.094,20.538z"/><path style="fill-rule:evenodd;clip-rule:evenodd;" d="M91.257,15.24c1.231-0.063,4.072-0.126,5.209-0.126	c1.135,0,4.274,0.15,4.961,0.202L91.257,15.24L91.257,15.24z"/><path style="fill-rule:evenodd;clip-rule:evenodd;" d="M89.381,15.856c3.045-5.837,5.835-7.963,7.378-7.963	c1.93,0,4.19,3.072,5.961,7.025l0.375,0.89l-1.541-0.127c-1.049-0.188-3.953-0.22-5.088-0.22c-1.137,0-3.599,0-5.083,0.126	L89.381,15.856L89.381,15.856z"/><polygon style="fill-rule:evenodd;clip-rule:evenodd;fill:#FFF22D;" points="83.423,154.068 80.697,164.238 75.615,151.977	72.452,151.129 68.598,165.51 72.029,166.43 74.776,156.178 79.939,168.549 83.021,169.375 86.874,154.992 83.423,154.068	"/><polygon style="fill-rule:evenodd;clip-rule:evenodd;fill:#FFF22D;" points="95.269,155.885 91.36,155.68 90.582,170.547	94.49,170.752 95.269,155.885	"/><polygon style="fill-rule:evenodd;clip-rule:evenodd;fill:#FFF22D;" points="98.779,155.758 99.053,157.717 103.223,157.129	105.02,169.914 108.896,169.369 107.098,156.586 111.205,156.008 110.932,154.051 98.779,155.758	"/><path style="fill-rule:evenodd;clip-rule:evenodd;fill:#FFF22D;" d="M139.111,149.697c1.893,3.318,1.512,5.732-1.408,7.418	l-1.385,0.799l-5.475-9.479l1.496-0.865C135.834,145.553,137.805,147.348,139.111,149.697L139.111,149.697z M131.496,145.766	l-5.045,2.912l7.469,12.938l5.008-2.891c5.211-3.01,5.693-7.551,3.65-11.178C140.111,143.232,136.061,143.131,131.496,145.766	L131.496,145.766z"/><polygon style="fill-rule:evenodd;clip-rule:evenodd;fill:#FFF22D;" points="122.045,164.084 120.559,159.512 124.971,158.078	124.352,156.176 119.941,157.609 118.672,153.705 123.205,152.234 122.594,150.352 114.32,153.041 118.92,167.199 128.045,164.236	127.426,162.334 122.045,164.084	"/><path style="fill-rule:evenodd;clip-rule:evenodd;fill:#FFF22D;" d="M65.403,147.68l-4.409,7.953	c-1.33,2.398-2.701,3.916-4.944,2.621c-2.226-1.232-1.711-3.072-0.349-5.531l4.418-7.973l-3.56-1.973l-4.667,8.418	c-2.574,4.645,0.672,7.506,3.188,8.9c2.709,1.502,6.643,2.619,9.195-1.986l4.687-8.457L65.403,147.68L65.403,147.68z"/><path style="fill-rule:evenodd;clip-rule:evenodd;fill:#FFF22D;" d="M62.881,60.229v69.71l33.335,21.428l33.334-21.428l0.043-69.6	c-1.057-0.946-3.277-3.017-5.025-4.087H67.711C66.258,57.27,63.374,59.693,62.881,60.229L62.881,60.229z"/><polygon points="63.512,60.229 63.512,129.596 96.216,150.619 128.92,129.596 128.961,60.339 130.225,60.339 130.182,129.939	130.182,130.281 129.891,130.469 96.556,151.898 96.216,152.117 95.875,151.898 62.541,130.469 62.249,130.281 62.249,60.229	63.512,60.229	"/><path d="M129.172,60.811c-0.301-0.27-0.074-0.069-0.393-0.357h-0.004c-1.137-1.028-3.043-2.75-4.537-3.664l0.658-1.075	c1.613,0.989,3.564,2.751,4.729,3.802h-0.004c0.031,0.028-0.143-0.128,0.395,0.352L129.172,60.811L129.172,60.811z"/><polygon points="124.568,56.883 67.711,56.883 67.711,55.621 124.568,55.621 124.568,56.883	"/><path d="M68.073,56.77c-0.681,0.478-1.642,1.234-2.521,1.957c-1.029,0.848-1.958,1.656-2.208,1.929l-0.927-0.853	c0.278-0.305,1.26-1.162,2.336-2.048c0.935-0.77,1.932-1.557,2.594-2.021L68.073,56.77L68.073,56.77z"/><path style="fill-rule:evenodd;clip-rule:evenodd;fill:#C23227;" d="M98.572,90.046c-0.232-0.102-1.062,0.567-1.441,1.167	s-0.49,1.373,0.047,1.657c0.537,0.284,1.213-0.084,1.375-1.025C98.646,91.292,98.826,90.156,98.572,90.046L98.572,90.046z M92.191,91.844c0.139,0.946,0.836,1.31,1.373,1.025c0.537-0.284,0.427-1.057,0.048-1.657c-0.38-0.6-1.161-1.269-1.394-1.167	C91.965,90.156,92.112,91.308,92.191,91.844L92.191,91.844z M95.537,101.117c1.12-1.838,1.586-3.748,1.586-3.748h-3.204	C93.919,97.369,94.432,99.326,95.537,101.117L95.537,101.117z M96.089,87.309l2.588-4.504l2.02,4.504h3.348	c-2.021,1.895-2.842,4.756-2.842,6.651v2.083c0,0.885-0.441,2.336-0.441,2.336s2.898,2.215,3.346,2.588	c0.189,0.158,0.389,0.25,0.252,0.633c-0.23,0.652-2.189,1.525-2.398,1.703c-0.441,0.379-0.561,0.627-0.432,1.012	c0.127,0.377,0.494,0.441,1.252,0.188c0.758-0.252,2.336-1.072,3.664-1.641c1.324-0.568,3.092-0.443,3.092-0.443v-2.523h-4.986	v-8.082l-0.885-1.411l2.211-3.915l2.207,3.937l-0.883,1.388v4.23h2.557v-4.23l-0.883-1.388l2.209-3.916l2.209,3.916l-0.883,1.388	v4.23h2.557v-4.23l-0.883-1.388l2.209-3.916l2.209,3.916l-0.885,1.388l0.027,8.076l-5.014,0.002v3.711	c1.137,1.072,2.211,3.49,2.211,4.941c0,1.453-0.947,2.084-0.947,2.084c0.314,1.137,0.252,1.609,0.125,2.652	c-0.129,1.064-1.453,2.713-1.453,2.713v19.25c0,1.311-3.029,1.186-3.029,0.064v-18.871c-1.705-1.893-6.377-3.346-6.377-3.346	c-1.705,1.703-2.777,4.672-2.777,4.672c0.758,0.506,1.895,0,2.336-0.506c0.441-0.504,1.326-0.631,1.832-0.316	c0.504,0.316,0.631,0.443,0.441,1.201c-0.189,0.756-0.506,2.014-0.506,2.896c0,0.885,1.012,0.693,1.768,0.758	c1.516,0.127,1.768,1.83,1.643,2.777c-0.127,0.947-0.568,2.969-0.568,4.23s0.062,2.525,0.189,3.221	c0.125,0.693,0.379,1.451,0.314,2.336c-0.086,1.197-0.82,1.389-1.578,0.631c-0.756-0.758-11.301-11.996-11.301-11.996	c-0.694,2.271,2.209,6.188,3.157,7.387c0.947,1.201,0.883,2.084,0.064,2.904c-0.822,0.82-2.4,1.262-2.715,2.021	c-0.316,0.758,0.758,3.029,2.967,5.869c2.209,2.842-2.526,4.736-5.367,5.305c-2.841,0.568-2.841-1.391-2.651-2.463	c0.188-1.074,0.188-1.705,0.126-2.652c-0.063-0.945-0.947-2.271-2.147-3.852c-1.2-1.576-1.2-3.029-0.694-6.691	c0.505-3.66,0.379-5.998,0.379-5.998s-1.263,0.064-3.094,0c-1.831-0.062-3.346-1.129-3.472-5.549	c-0.126-4.42-0.231-14.961-0.526-16.057c-0.294-1.094-1.473-1.305-1.978-1.43c-0.505-0.127-0.542-0.885-0.037-1.137	c1.315-0.658,2.899-2.273,2.31-3.283c-0.589-1.011-2.904-0.801-4.461-0.043s-3.199,2.398-3.62,2.863	c-0.421,0.463-0.758,0.463-0.716-0.043s-0.294-2.904-0.504-3.746c-0.21-0.842-0.969-2.44-1.221-2.861s0-0.589,0.421-0.421	c0.421,0.169,1.347,0.548,2.231,0.8s1.725-0.168,2.146-1.01c0.421-0.842,1.22-2.651,1.641-3.451c0.421-0.8,1.095-0.632,1.642-0.505	c0.548,0.126,1.053,0.463,1.557,0.673c0.505,0.211,0.926,0.169,1.094-0.084c0.169-0.252,0.38-0.337,0.674-0.969	c0.294-0.631,0.673-0.336,0.715-0.084c1.509,9.055,5.43,9.471,5.43,9.471c-0.589,1.514-1.978,3.914-2.314,4.504	c-0.337,0.588-0.463,1.387-0.547,2.02c-0.084,0.631,0.21,6.605,0.631,8.797c0.422,2.188,1.769,1.348,2.189,0.674	c0.42-0.674,1.726-3.451,1.726-3.451s0.337-0.758,0.337-1.391c0-0.631-1.095-2.02-1.348-2.441c-0.252-0.42-1.178-1.262-1.178-3.367	c0-2.104,1.894-3.578,2.568-4.125c0.673-0.547,0.673-1.303,0.589-1.766c-0.296-1.629-2.021-5.052-2.862-6.357	c-0.842-1.304-2.483-3.788-2.483-3.788h3.409l2.189-4.546l2.399,4.567L96.089,87.309L96.089,87.309z M109.537,110.248v-2.588	c0,0-0.695-1.074-2.4-1.074c-1.703,0-2.713,0.506-2.713,0.947C104.424,108.229,105.939,110.248,109.537,110.248L109.537,110.248z"	/><polygon style="fill-rule:evenodd;clip-rule:evenodd;fill:#C23227;" points="65.492,77.617 126.992,77.617 126.992,81.812	65.492,81.812 65.492,77.617	"/><polygon style="fill-rule:evenodd;clip-rule:evenodd;fill:#C23227;" points="65.492,75.461 65.492,58.753 126.992,58.753	126.992,75.461 65.492,75.461	"/><polygon style="fill-rule:evenodd;clip-rule:evenodd;fill:#FFF22D;" points="114.887,75.958 114.887,73.106 110.42,73.106	110.42,71.267 114.066,71.267 114.066,63.186 110.719,63.186 109.582,60.977 108.445,63.186 105.1,63.186 105.1,71.267	108.744,71.267 108.744,73.106 99.994,73.106 99.994,71.267 103.639,71.267 103.639,63.186 100.293,63.186 99.156,60.977	98.02,63.186 94.674,63.186 94.674,71.267 98.318,71.267 98.318,73.106 89.397,73.106 89.397,71.267 93.042,71.267 93.042,63.186	89.695,63.186 88.559,60.977 87.423,63.186 84.076,63.186 84.076,71.267 87.72,71.267 87.72,73.106 80.667,73.125 73.639,71.483	75.056,75.958 114.887,75.958	"/><polygon style="fill-rule:evenodd;clip-rule:evenodd;fill:#FFF22D;" points="76.066,71.12 80.779,72.278 83.307,65.182	83.308,63.393 76.066,71.12	"/><path style="fill-rule:evenodd;clip-rule:evenodd;fill:#FFF22D;" d="M87.439,15.704c-7.301,0.649-11.794,2.201-17.728,4.19	c0.441-2.553,1.035-4.066,2.066-5.569c-0.083,1.32,0.995,2.726,3.14,2.726s3.339-1.237,3.339-1.98c0-0.741-0.451-1.815-1.606-1.815	c-1.155,0-1.402,0.825-1.32,1.155c0.083,0.331-0.165,0.413-0.494,0.496c-0.331,0.082-1.238-0.414-0.908-1.568	c0.362-1.269,1.897-1.959,3.711-1.959C77.638,11.378,81.956,11.206,87.439,15.704L87.439,15.704z"/><path style="fill-rule:evenodd;clip-rule:evenodd;fill:#FFF22D;" d="M122.793,19.945c-5.934-1.991-10.629-3.542-17.93-4.192	c3.361-2.342,6.5-4.331,9.949-4.331c1.814,0,3.35,0.69,3.711,1.959c0.33,1.155-0.578,1.649-0.908,1.566	c-0.328-0.083-0.576-0.165-0.494-0.495c0.082-0.329-0.166-1.155-1.32-1.155s-1.605,1.072-1.605,1.815s1.193,1.98,3.338,1.98	s3.223-1.407,3.141-2.726C121.705,15.87,122.352,17.392,122.793,19.945L122.793,19.945z"/><path style="fill-rule:evenodd;clip-rule:evenodd;fill:#FFF22D;" d="M91.938,14.347c-0.196,0.313-0.368,0.546-0.578,0.895	c1.206-0.063,3.99-0.125,5.104-0.125c1.115,0,4.189,0.149,4.863,0.198c-1.088-2.519-3.141-5.997-4.575-5.997	c-0.283,0-0.909-0.147-2.087,1.209c0,0-0.183,0.599,0.565,0.484c0.948-0.145,1.307,0.834,1.237,1.321	c-0.166,1.133-1.485,2.227-2.806,2.227C92.342,14.559,91.938,14.347,91.938,14.347L91.938,14.347z"/><path style="fill-rule:evenodd;clip-rule:evenodd;" d="M28.345,55.425l4.818-6.546c0.277-1.2,0.505-4.504-1.031-6.839	c-1.694-2.576-3.916-1.56-4.559-1.274c-0.412,0.184-1.166,0.731-1.627,1.471c0,0-4.622,5.108-9.736,10.135	c-0.711,0.698-1.513,2.02-1.578,3.223c-0.06,1.082,0.365,2.161,1.001,2.839c1.391,1.482,3.827,1.404,5.071,0.463l0.084,4.083	C22.074,61.948,26.703,57.508,28.345,55.425L28.345,55.425z"/><path style="fill-rule:evenodd;clip-rule:evenodd;fill:#FFF22D;" d="M96.217,45.886c27.443,0,43.07,25.77,46.467,30.297	c6.062,8.081,13.465,14.634,22.055,12.458c12.625-3.198,11.953-21.906,11.953-21.906c-3.029-2.19-8.227-4.947-17.678-18.352	c-9.26-13.131-30.221-32.614-62.797-32.614c-32.578,0-53.539,19.483-62.798,32.614c-9.451,13.404-14.647,16.162-17.677,18.352	c0,0-0.673,18.708,11.954,21.906c8.589,2.176,15.994-4.377,22.055-12.458C53.146,71.656,68.775,45.886,96.217,45.886L96.217,45.886	z"/><path d="M96.217,45.255c25.518,0,40.895,21.916,45.898,29.047c0.453,0.646,0.822,1.171,1.072,1.503	c2.988,3.986,6.303,7.592,9.916,9.923c3.541,2.286,7.379,3.341,11.482,2.302c11.211-2.84,11.5-18.567,11.479-20.969	c-0.24-0.171-0.506-0.354-0.785-0.546c-3.176-2.192-8.281-5.714-16.781-17.77c-5.314-7.538-14.52-17.187-27.596-23.978	c-9.512-4.94-21.074-8.367-34.686-8.367s-25.176,3.427-34.687,8.367c-13.076,6.791-22.28,16.439-27.595,23.978	c-8.502,12.058-13.606,15.579-16.784,17.771c-0.278,0.192-0.542,0.374-0.783,0.544c-0.021,2.401,0.268,18.128,11.48,20.969	c4.104,1.04,7.94-0.016,11.482-2.302c3.612-2.331,6.927-5.937,9.917-9.923c0.249-0.332,0.618-0.857,1.071-1.502	C55.322,67.172,70.7,45.255,96.217,45.255L96.217,45.255z M96.217,46.518c-24.863,0-39.958,21.511-44.868,28.51	c-0.434,0.618-0.788,1.121-1.095,1.532c-3.071,4.095-6.49,7.807-10.242,10.229c-3.823,2.467-7.984,3.601-12.469,2.464	c-13.126-3.325-12.434-22.48-12.432-22.536l0.009-0.309l0.255-0.185c0.345-0.249,0.689-0.487,1.062-0.743	c3.105-2.143,8.094-5.583,16.468-17.46c5.403-7.662,14.759-17.47,28.049-24.372c9.675-5.025,21.433-8.51,35.264-8.51	c13.83,0,25.588,3.485,35.264,8.51c13.289,6.902,22.646,16.709,28.049,24.372c8.373,11.874,13.361,15.317,16.465,17.458	c0.373,0.257,0.719,0.496,1.064,0.745l0.256,0.185l0.008,0.309c0.002,0.055,0.693,19.211-12.432,22.536	c-4.484,1.136-8.645,0.002-12.467-2.464c-3.754-2.422-7.172-6.134-10.244-10.229c-0.309-0.411-0.66-0.915-1.096-1.532	C136.174,68.029,121.08,46.518,96.217,46.518L96.217,46.518z"/><path style="fill-rule:evenodd;clip-rule:evenodd;fill:#C23227;" d="M96.217,43.455c26.455,0,42.199,22.441,47.377,29.815	c0.418,0.599,0.779,1.114,1.033,1.454c7,9.332,13.385,13.114,19.514,11.561c8.865-2.246,9.955-14.446,10.078-18.132l0.004-0.139	l-0.113-0.078c-3.117-2.151-8.34-5.75-17.082-18.152c-5.225-7.409-25.051-31.583-60.811-31.583	c-35.76,0-55.585,24.174-60.81,31.583c-8.684,12.314-14.133,16.076-17.061,18.098l-0.114,0.078l0.004,0.139	c0.127,3.7,1.228,15.948,10.056,18.186c6.131,1.554,12.514-2.229,19.512-11.561c0.256-0.34,0.617-0.855,1.036-1.453	C54.015,65.896,69.76,43.455,96.217,43.455L96.217,43.455z"/><polygon style="fill-rule:evenodd;clip-rule:evenodd;fill:#FFF22D;" points="39.297,53.792 36.535,57.083 41.714,67.788	30.601,64.156 28.222,66.99 39.628,76.56 41.351,74.507 33.299,67.724 44.099,71.233 45.234,69.881 40.088,59.566 48.187,66.36	50.702,63.362 39.297,53.792	"/><path style="fill-rule:evenodd;clip-rule:evenodd;fill:#FFF22D;" d="M53.716,51.551l-2.583,2.769l-2.646-5.114L53.716,51.551	L53.716,51.551z M47.699,44.793l-2.539,2.722l7.132,14.184l1.741-1.866l-1.937-3.755l3.452-3.702l3.895,1.654l2.873-3.08	L47.699,44.793L47.699,44.793z"/><polygon style="fill-rule:evenodd;clip-rule:evenodd;fill:#FFF22D;" points="65.114,31.317 70.694,40.246 58.26,35.6	55.481,37.336 63.372,49.962 66.384,48.081 60.76,39.079 73.329,43.741 76.034,42.049 68.145,29.424 65.114,31.317	"/><polygon style="fill-rule:evenodd;clip-rule:evenodd;fill:#FFF22D;" points="112.234,38.628 113.799,34.083 118.184,35.594	118.836,33.702 114.451,32.193 115.785,28.311 120.291,29.863 120.936,27.992 112.709,25.161 107.863,39.237 116.934,42.36	117.584,40.47 112.234,38.628	"/><polygon style="fill-rule:evenodd;clip-rule:evenodd;fill:#FFF22D;" points="137.701,37.687 136.359,39.142 139.49,41.96	130.852,51.556 133.76,54.174 142.398,44.58 145.482,47.354 146.805,45.885 137.701,37.687	"/><polygon style="fill-rule:evenodd;clip-rule:evenodd;fill:#FFF22D;" points="141.975,60.042 145.656,56.955 148.637,60.506	150.168,59.22 147.189,55.668 150.332,53.03 153.396,56.681 154.91,55.409 149.32,48.744 137.914,58.315 144.08,65.663	145.611,64.378 141.975,60.042	"/><path style="fill-rule:evenodd;clip-rule:evenodd;fill:#FFF22D;" d="M159.227,63.834c1.037,1.153,1.041,2.525-0.145,3.592	s-2.678,0.838-3.816-0.427l-0.67-0.743l3.762-3.386L159.227,63.834L159.227,63.834z M157.244,71.17	c0.029,0.032,2.305,1.16,4.818-1.104c2.102-1.893,1.395-4.49-0.797-6.925l-4.057-4.503l-11.064,9.962l2.619,2.908l4.393-3.957	l1.297,1.438l-2.801,6.269l3.326,2.675L157.244,71.17L157.244,71.17z"/><polygon style="fill-rule:evenodd;clip-rule:evenodd;fill:#FFF22D;" points="101.248,23.913 101.141,29.994 95.292,29.893	95.399,23.81 91.486,23.743 91.227,38.628 95.139,38.697 95.258,31.891 101.105,31.994 100.986,38.798 104.902,38.867	105.16,23.98 101.248,23.913	"/><path style="fill-rule:evenodd;clip-rule:evenodd;fill:#FFF22D;" d="M122.441,46.039c2.775,1.667,5.809,1.4,7.221-0.95	c1.039-1.642,1.047-2.999-0.189-5.427c-0.332-0.704-0.74-1.2-1.02-1.823c-0.541-1.03-1.047-1.863-0.568-2.658	c0.512-0.852,1.707-0.913,2.799-0.257c1.146,0.689,1.619,1.83,1.85,2.623l1.803-0.78c-0.553-1.467-1.371-2.79-3.221-3.901	c-3.184-1.913-5.779-1.408-6.857,0.388c-1.09,1.813-0.781,3.31,0.029,4.854c0,0,0.521,0.893,0.824,1.478	c0.711,1.208,1.543,2.715,0.965,3.677c-0.711,1.184-1.951,1.447-3.145,0.705c-1.531-0.972-1.889-2.093-2.211-3.192l-1.975,0.853	C119.182,43.123,120.203,44.694,122.441,46.039L122.441,46.039z"/><path style="fill-rule:evenodd;clip-rule:evenodd;fill:#FFF22D;" d="M81.854,24.693c-4.875,1.038-8.068,4.615-7.015,9.464	c0.6,2.617,2.946,7.456,10.343,5.883c2.046-0.391,3.166-1.221,4.245-2.242l-1.362-1.554c-0.495,0.566-1.265,1.389-2.966,1.75	c-3.572,0.76-5.706-2.147-6.237-4.648c-0.786-3.697,1.369-6.264,3.828-6.786c1.724-0.367,2.787,0.089,3.459,0.362l0.021-0.004	l0.453-1.898C85.446,24.545,84.04,24.23,81.854,24.693L81.854,24.693z"/><path style="fill-rule:evenodd;clip-rule:evenodd;fill:#FFF22D;" d="M160.781,49.452c-0.205-0.883-0.494-4.654,0.938-6.644	c1.322-1.834,2.527-1.213,3.174-0.926c0.291,0.129,1.164,0.695,1.336,1.811c0.092,0.599-0.096,1.485-0.559,2.135	c-0.906,1.177-2.967,1.958-2.967,1.958s2.641,5.174,8.238,10.312l-0.02,3.492C163.258,54.2,160.781,49.452,160.781,49.452	L160.781,49.452z"/><path style="fill-rule:evenodd;clip-rule:evenodd;fill:#FFF22D;" d="M164.625,48.384c0.758,1.306,2.682,4.501,7.498,9.014	c0.799,0.749,2.791,1.373,3.916,0.11c0.432-0.486,0.707-1.179,0.664-1.985c-0.051-0.926-0.621-2.007-1.17-2.478	c-0.961-0.824-5.102-5.006-8.07-8.291c-0.064,0.599-0.588,1.6-0.588,1.6C166.477,46.916,165.979,47.723,164.625,48.384	L164.625,48.384z"/><path style="fill-rule:evenodd;clip-rule:evenodd;fill:#FFF22D;" d="M21.884,61.38l-0.02-3.298	c5.599-5.139,8.243-10.296,8.243-10.296s-2.061-0.781-2.967-1.958c-0.464-0.65-0.653-1.537-0.56-2.135	c0.174-1.116,1.045-1.681,1.335-1.811c0.647-0.287,1.852-0.909,3.172,0.926c1.433,1.99,1.058,5.735,0.854,6.618	C31.943,49.426,29.333,53.972,21.884,61.38L21.884,61.38z"/><path style="fill-rule:evenodd;clip-rule:evenodd;fill:#FFF22D;" d="M28.089,48.384c-0.756,1.306-2.681,4.501-7.497,9.014	c-0.799,0.749-2.791,1.373-3.914,0.11c-0.433-0.486-0.709-1.179-0.666-1.985c0.05-0.926,0.621-2.007,1.17-2.478	c0.961-0.824,5.102-5.006,8.068-8.291c0.065,0.599,0.589,1.6,0.589,1.6C26.238,46.916,26.737,47.723,28.089,48.384L28.089,48.384z"	/><path style="fill-rule:evenodd;clip-rule:evenodd;fill:#C23227;" d="M12.532,104.141c0-6.85,5.553-12.403,12.402-12.403	c6.851,0,12.403,5.553,12.403,12.403c0,6.852-5.553,12.402-12.403,12.402C18.085,116.543,12.532,110.992,12.532,104.141	L12.532,104.141z"/><path style="fill-rule:evenodd;clip-rule:evenodd;fill:#FFF22D;" d="M31.606,95.159c0.213,0.17,0.751,0.612,0.751,0.612	c1.075,0.962,2.043,2.087,2.604,3.433c0.71,1.693-1.477,4.238-2.117,4.836c-2.893,2.699-4.691,2.654-5.724,2.803	c-1.034,0.146-1.685-0.492-1.663-1.266c0.066-2.277,1.68-6.158,2.135-6.875c0.298-0.469,0.811-0.768,0.811-0.768	c1.067-0.299,2.102-0.758,2.639-1.366C31.581,95.961,31.606,95.159,31.606,95.159L31.606,95.159z M21.228,93.522	c1.147-0.38,2.372-0.606,3.649-0.606c1.938,0,3.784,0.362,5.354,1.356c0.398,0.251,0.518,0.57,0.518,1.02	c0,1.459-2.301,1.956-3.833,1.956c-1.53,0-3.409-0.609-4.739-1.023c-1.331-0.417-1.627-1.194-1.627-1.537	C20.548,94.347,20.804,93.664,21.228,93.522L21.228,93.522z M16.322,111.393c-1.562-1.543-2.676-4.316-2.676-7.244	c0-1.135,0.167-2.229,0.479-3.262c0,0,0.263-0.471,0.519-0.068c0.182,0.285,0.429,0.578,0.651,0.969	c0.224,0.391,1.437,1.312,1.324,2.039c-0.427,2.742-0.042,6.402,0.086,7.002C16.834,111.426,16.646,111.713,16.322,111.393	L16.322,111.393z M16.62,101.988c-0.553-0.305-1.212-1.713-1.427-2.133c-0.153-0.301-0.144-1.141,0.065-1.51	c0.913-1.615,2.214-3.086,3.9-3.867c0.193-0.089,0.492-0.098,0.492,0.38c0,0.266,0.132,0.686,0.137,0.945	c0.006,0.254,0.121,0.805-0.222,1.233c-0.341,0.426-1.852,3.072-2.22,4.568C17.262,101.945,17.173,102.295,16.62,101.988	L16.62,101.988z M25.117,115.377c-0.08-0.004-0.16,0.002-0.24,0.002c-2.067,0-4.329-0.783-5.67-1.533	c-1.385-0.775-1.904-4.32-1.904-6.133c0-5.85,2.411-9.367,2.795-10.051c0.384-0.682,1.238-0.768,1.879-0.598	c0.641,0.172,0.888,0.301,1.623,0.523c0.398,0.121,1.195,0.287,1.793,0.416c0.598,0.129,1.237,0.256,0.854,1.367	c-0.384,1.109-1.672,3.797-1.813,6.975c-0.128,2.869,0.256,5.73,0.907,7.484C25.764,114.967,25.757,115.398,25.117,115.377	L25.117,115.377z M28.062,114.922c-0.642,0.207-0.938-0.25-1.237-0.594c-1.153-1.316-1.451-4.859-1.451-5.328	c0-0.473,0.17-0.984,0.498-0.992c2.803-0.07,4.796-0.889,6.623-2.391c1.827-1.502,2.618-3.199,2.785-3.531	c0.166-0.332,0.526-0.273,0.613,0.207c0.071,0.391,0.216,1.1,0.216,1.855C36.108,109.244,32.675,113.426,28.062,114.922	L28.062,114.922z"/><path style="fill-rule:evenodd;clip-rule:evenodd;fill:#C23227;" d="M180.387,104.141c0-6.85-5.553-12.403-12.402-12.403	c-6.852,0-12.402,5.553-12.402,12.403c0,6.852,5.551,12.402,12.402,12.402C174.834,116.543,180.387,110.992,180.387,104.141	L180.387,104.141z"/><path style="fill-rule:evenodd;clip-rule:evenodd;fill:#FFF22D;" d="M161.875,96.567c0.537,0.608,1.572,1.067,2.639,1.366	c0,0,0.514,0.299,0.811,0.768c0.455,0.717,2.068,4.598,2.137,6.875c0.021,0.773-0.629,1.412-1.664,1.266	c-1.033-0.148-2.832-0.104-5.723-2.803c-0.641-0.598-2.828-3.143-2.117-4.836c0.559-1.346,1.529-2.471,2.605-3.433	c0,0,0.535-0.442,0.75-0.612C161.312,95.159,161.338,95.961,161.875,96.567L161.875,96.567z M172.371,94.688	c0,0.343-0.297,1.12-1.627,1.537c-1.332,0.414-3.209,1.023-4.74,1.023c-1.533,0-3.834-0.496-3.834-1.956	c0-0.45,0.121-0.769,0.518-1.02c1.57-0.994,3.416-1.356,5.354-1.356c1.279,0,2.502,0.226,3.65,0.606	C172.113,93.664,172.371,94.347,172.371,94.688L172.371,94.688z M176.213,110.828c0.127-0.6,0.512-4.26,0.086-7.002	c-0.113-0.727,1.1-1.648,1.324-2.039c0.223-0.391,0.469-0.684,0.65-0.969c0.256-0.402,0.52,0.068,0.52,0.068	c0.312,1.033,0.48,2.127,0.48,3.262c0,2.928-1.115,5.701-2.678,7.244C176.273,111.713,176.084,111.426,176.213,110.828	L176.213,110.828z M175.572,101.605c-0.367-1.496-1.879-4.143-2.221-4.568c-0.342-0.428-0.227-0.979-0.223-1.233	c0.008-0.259,0.139-0.679,0.139-0.945c0-0.478,0.299-0.469,0.49-0.38c1.688,0.78,2.99,2.251,3.902,3.867	c0.209,0.369,0.219,1.209,0.064,1.51c-0.213,0.42-0.873,1.828-1.426,2.133C175.746,102.295,175.656,101.945,175.572,101.605	L175.572,101.605z M167.578,113.83c0.65-1.754,1.035-4.615,0.906-7.484c-0.141-3.178-1.428-5.865-1.812-6.975	c-0.385-1.111,0.256-1.238,0.854-1.367s1.395-0.295,1.795-0.416c0.732-0.223,0.979-0.352,1.621-0.523	c0.639-0.17,1.494-0.084,1.879,0.598c0.385,0.684,2.795,4.201,2.795,10.051c0,1.812-0.518,5.357-1.904,6.133	c-1.34,0.75-3.602,1.533-5.67,1.533c-0.08,0-0.16-0.006-0.238-0.002C167.162,115.398,167.154,114.967,167.578,113.83	L167.578,113.83z M156.811,104.148c0-0.756,0.145-1.465,0.217-1.855c0.086-0.48,0.445-0.539,0.611-0.207	c0.168,0.332,0.959,2.029,2.785,3.531c1.828,1.502,3.82,2.32,6.623,2.391c0.326,0.008,0.498,0.52,0.498,0.992	c0,0.469-0.297,4.012-1.451,5.328c-0.299,0.344-0.594,0.801-1.238,0.594C160.242,113.426,156.811,109.244,156.811,104.148	L156.811,104.148z"/><path style="fill:#FDE62F;" d="M155.635,104.076c0-3.441,1.396-6.559,3.652-8.815c2.256-2.256,5.373-3.651,8.814-3.651	s6.559,1.395,8.814,3.651c2.256,2.255,3.65,5.372,3.65,8.815s-1.395,6.559-3.65,8.814s-5.371,3.65-8.814,3.65	c-3.441,0-6.559-1.395-8.816-3.65C157.031,110.635,155.635,107.518,155.635,104.076L155.635,104.076z M155.762,104.076	c0,3.408,1.381,6.492,3.613,8.725c2.234,2.234,5.318,3.615,8.727,3.615s6.492-1.381,8.727-3.613	c2.232-2.234,3.613-5.318,3.613-8.727s-1.381-6.492-3.615-8.726c-2.232-2.232-5.316-3.614-8.725-3.614	c-3.406,0-6.492,1.382-8.725,3.615C157.143,97.584,155.762,100.67,155.762,104.076L155.762,104.076z"/></g></svg>