<?xml version="1.0" encoding="iso-8859-1"?><!-- Generator: Adobe Illustrator 16.0.0, SVG Export Plug-In . SVG Version: 6.00 Build 0) --><!DOCTYPE svg PUBLIC "-//W3C//DTD SVG 1.1//EN" "http://www.w3.org/Graphics/SVG/1.1/DTD/svg11.dtd"><svg version="1.1" id="Layer_1" xmlns="http://www.w3.org/2000/svg" xmlns:xlink="http://www.w3.org/1999/xlink" x="0px" y="0px" width="156.814px" height="211.713px" viewBox="0 0 156.814 211.713" style="enable-background:new 0 0 156.814 211.713;" xml:space="preserve"><circle style="fill:#33348E;" cx="78.408" cy="133.306" r="78.407"/><path style="fill:none;stroke:#FFFFFF;stroke-width:0.7239;" d="M72.646,205.679C25.741,151.516,46.314,63.732,78.408,55.233"/><path style="fill:none;stroke:#FFFFFF;stroke-width:0.7239;" d="M84.167,205.679c46.906-54.164,26.333-141.947-5.759-150.446"/><path style="fill:none;stroke:#FFFFFF;stroke-width:0.7239;" d="M85.098,206.864c33.265-5.958,63.093-36.959,63.093-77.555	c0-43.302-26.482-74.411-69.783-74.411c-39.843,0-75.337,31.109-75.337,74.411c0,40.795,33.588,71.691,68.826,77.604"/><ellipse style="fill:none;stroke:#FFFFFF;stroke-width:0.7239;" cx="78.422" cy="207.151" rx="6.75" ry="3.213"/><path style="fill:#FFFFFF;" d="M40.919,189.967L21.73,168.784l14.426-13.004l4.096,4.505l-8.555,7.732l3.194,3.516l5.55-5.129	l4.096,4.506l-5.55,5.129l7.804,8.655L40.919,189.967z"/><path style="fill:#FFFFFF;" d="M83.012,190.333c-0.746,1.713-2.414,2.701-4.604,2.701c-3.454,0-5.543-2.039-5.543-5.311	c0-3.255,2.293-5.282,5.208-5.282c2.26,0,3.814,0.763,4.627,2.127l6.841-5.368c-2.108-3.538-6.14-5.519-12-5.519	c-7.564,0-13.51,5.257-13.51,13.704c0,8.484,5.419,13.775,14.375,13.775c5.684,0,10.013-2.567,11.946-7.007L83.012,190.333z"/><path style="fill:#FFFFFF;" d="M121.695,165.395l0.949,0.353c1.667,0.875,4.047,2.491,2.92,4.642	c-1.043,1.991-2.746,1.998-4.581,1.038l-1.982-0.896L121.695,165.395l-4.453-9.285l-14.105,26.853l7.282,3.889l5.754-10.926	l1.516,0.679c6.897,3.615,11.029,1.842,13.639-3.134c2.492-4.751,1.341-9.315-5.558-12.933l-8.528-4.429"/><path style="fill:#FFFFFF;" d="M139.874,102.043c3.644,0.941,7.522,2.821,10.108,5.172l0.469,2.232	c-1.644-1.528-6.463-4.115-9.871-4.936L139.874,102.043z"/><path style="fill:#FFFFFF;" d="M141.401,108.626c3.644,0.938,7.523,2.82,10.108,5.169l0.47,2.234	c-1.645-1.527-6.465-4.113-9.873-4.938L141.401,108.626z"/><path style="fill:#FFFFFF;" d="M142.106,115.207c3.644,0.94,7.521,2.82,10.107,5.171l0.117,2.115	c-1.644-1.528-6.464-4.113-9.872-4.937L142.106,115.207z"/><path style="fill:#FFFFFF;" d="M142.459,121.787c3.645,0.941,7.523,2.82,10.108,5.172l-0.119,2.116	c-1.645-1.529-6.463-4.114-9.872-4.936L142.459,121.787z"/><path style="fill:#65493C;" d="M102.031,57.384c-10.314-7.45-36.854-5.637-47.717,0.234"/><path style="fill:#CC1E4C;stroke:#000000;stroke-width:0.7239;" d="M48.554,35.17c-3.172,0.234-7.52-0.438-9.754-1.529	c-2.234-1.09-4.466,0.237-6.699,1.881c0.471-1.881,2-3.174,4.583-4.113c-1.527-0.354-4.818-1.646-6.111-3.644	c3.527,1.058,7.051,1.058,9.754,0.47c2.704-0.587,7.759-0.705,10.108,2.233"/><path style="fill:#CC1E4C;stroke:#000000;stroke-width:0.7239;" d="M104.145,27.295c2.585-0.234,4.583-0.234,6.581,2.351	c1.999,2.585,7.053,2.468,8.227-0.939c0.118,1.763-0.704,4.112-0.704,4.112c1.88-0.822,3.173-1.881,3.877-2.702	c-0.353,3.172-4.114,12.339-16.57,6.228"/><path style="fill:#CC1E4C;stroke:#000000;stroke-width:0.7239;" d="M66.537,10.254c-1.646-1.058-4.466-2.232-5.994-0.94	c-1.527,1.293-3.526,1.997-4.701,0.586c0.705,1.177,2.937,2.118,4.583,0.825c1.645-1.293,3.407-1.058,4.348,0"/><path style="fill:#CF8C2C;stroke:#000000;stroke-width:0.7239;" d="M74.528,17.07c-0.117-1.998-2.409-7.144-3.643-5.17	c-0.587,0.94-2.114,1.057-2.82,0.47c-0.705-0.588-2.703-1.059-3.526-0.47c-0.823,0.587-2.351,0-2.351-0.94	c0-0.941,0.824-1.292,1.998-1.06c1.177,0.237,4.114,0.237,4.818-0.351c0.706-0.588-0.116-1.881-1.762-1.999	c-1.645-0.116-5.759-0.234-6.816,1.058c-0.942-1.058-1.293-4.348,1.057-3.996c2.35,0.353,2.703-0.587,3.174-1.293	c0.469-0.704,1.998-1.527,3.643-1.646c1.646-0.117,2.821-0.468,4.584,0c1.762,0.47,2.35,0,2.585-0.823	c0.94,1.411,0.94,2.703,0.705,3.174c1.645-0.471,4.231,0.117,4.702,1.176c0.47,1.057,1.175,0.94,2.115,0.94	c0.942,0,1.645,0.235,1.998,1.645c0.353,1.41,1.175,0.472,1.881,0.823c0.704,0.353,2.703,1.175,3.056,2.351	c0.352,1.175,1.292,1.527,2.937,2.585"/><path style="fill:#CC1E4C;stroke:#000000;stroke-width:0.7239;" d="M49.259,26.12c-0.117-1.88-2.115-3.995-3.525-5.288	c-1.41-1.293-1.292-3.174,0.823-4.701c2.115-1.527,10.341-4.936,16.571-3.057c6.229,1.882,19.275,3.174,30.087-1.056l11.283,12.222"	/><path style="fill:#7B002B;stroke:#000000;stroke-width:0.7239;" d="M96.858,22.594c5.76,2,9.051,0.706,9.168-0.587	c0.117-1.293-3.555-0.97-4.966-0.852c-1.057,0.087-2.827,0.026-3.097-0.357"/><path style="fill:#CC1E4C;stroke:#000000;stroke-width:0.7239;" d="M97.963,20.798c0.271,0.383,2.04,0.444,3.097,0.357	c1.411-0.118,5.083-0.441,4.966,0.852c0.235-0.646-0.059-1.762-0.412-2.468h-7.522"/><path style="fill:#7B002B;stroke:#000000;stroke-width:0.7239;" d="M107.555,18.716c0.94,1.059,0,2.939-2.469,2.234	c-2.468-0.705-5.524-1.469-6.817-0.647c-0.323,0.205-0.398,0.368-0.306,0.496c-0.325-0.351-0.252-1.701-0.694-2.464l8.287-1.058"/><path style="fill:#CC1E4C;stroke:#000000;stroke-width:0.7239;" d="M96.675,17.895c-0.014,0.619,0.726,1.07,2.77,0.586	c4.466-1.057,7.168-0.823,8.11,0.235c-0.177-0.646-0.766-1.822-1-2.585H95.977"/><path style="fill:#7B002B;stroke:#000000;stroke-width:0.7239;" d="M93.687,16.602c-0.118-1.059,1.76-3.291,3.995-2.586	c2.233,0.706,5.29,0.588,6.935-0.353c1.645-0.94,4.112-0.94,5.288-0.117c0.94,0.94,0,3.172-1.646,3.643	c-1.646,0.47-7.052-0.821-9.285-0.94c-1.211-0.064-2.283,0.91-2.299,1.646c-0.522-1.118-0.933-1.411-1.345-1.764	C94.861,16.367,94.097,17.012,93.687,16.602z"/><path style="fill:#CC1E4C;stroke:#000000;stroke-width:0.7239;" d="M109.904,13.545c-0.94-0.941-1.176-2.115-1.881-3.645	c-0.705-1.526-1.762-2.584-4.112-0.821c-2.351,1.764-7.405,0.821-9.403,0.354c-1.998-0.471-3.408,0-3.644,1.293	c-0.234,1.292,1.411,4.583,2.822,5.876c-0.118-1.059,1.76-3.291,3.995-2.586c2.233,0.706,5.29,0.588,6.935-0.353	C106.261,12.723,108.729,12.723,109.904,13.545z"/><path style="fill:#CF8C2C;stroke:#000000;stroke-width:0.7239;" d="M105.556,46.217l3.056-4.112	c5.759-5.171-0.94-9.757-3.408-11.049c5.055-6.581-0.353-8.579-1.88-8.226c-0.588-1.292-2.352-1.88-3.645-1.998	c-1.292-0.118-2.35,0.233-3.407-0.823c-1.058-1.057-4.232-1.175-6.935,0.354c-2.702,1.527-7.169,1.879-9.754,0.117	c-2.586-1.764-8.581-0.941-10.812,1.175c-2.234,2.114-4.232,3.878-8.228-0.471c-5.455-5.935-12.34,1.41-11.752,5.876	c0.587,4.466-1.529,8.11-4.349,8.698l5.642,9.166"/><path style="fill:#F0C560;stroke:#000000;stroke-width:0.7239;" d="M78.408,36.234c1.135,3.001,7.836,3.729,9.768,0.978	c0.796,3,6.017,3.972,7.948,1.595c0.568,3.002,5.793,4.253,7.156,3.002c1.023,2.877,4.542,3.251,6.475,1.251l1.93-2.252	c1.591,0.126,1.818-1.125,2.613-2.124c0.795-1.002,1.478-1.501,3.408-1.751c-0.568-0.626-0.908-1.626-2.043-1.376l-4.318-2.501	l-2.613,5.252l1.363,0.875c-3.407,5.003-6.134,2.126-5.679-1.501l-1.25-0.251c-1.478,3.753-5.225,2.877-5.225-1.25l-1.705-0.624	c-2.044,3.751-7.266,2.407-7.153-2.143l-1.703-0.125c-0.228,4.298-7.952,4.196-8.974-1.057c-1.023,5.253-8.748,5.003-8.975,0.704	l-1.704,0.125c0.114,4.549-5.225,5.425-7.268,1.672l-1.706,0.626c0,4.126-3.749,5.002-5.226,1.25l-1.25,0.25	c0.456,3.627-2.271,6.503-5.678,1.5l1.362-0.875l-2.613-5.253l-4.315,2.501c-1.137-0.25-1.478,0.751-2.045,1.377	c1.931,0.25,2.612,0.75,3.408,1.75c0.794,1.001,1.022,2.251,2.612,2.126l1.931,2.25c1.932,2.001,5.454,1.626,6.476-1.25	c1.364,1.25,6.589,0,7.157-3.001c1.931,2.376,7.27,1.876,8.064-1.126C70.568,39.61,77.271,39.235,78.408,36.234z"/><rect x="73.824" y="26.12" style="fill:#F0C560;stroke:#000000;stroke-width:0.7239;" width="9.167" height="7.992"/><polygon style="fill:#F0C560;stroke:#000000;stroke-width:0.7239;" points="101.871,37.126 101.917,29.4 93.054,27.056	93.009,34.782 "/><polygon style="fill:#F0C560;stroke:#000000;stroke-width:0.7239;" points="54.943,37.126 55.014,29.4 63.877,27.056 63.805,34.782	"/><circle style="fill:#F0C560;stroke:#000000;stroke-width:0.7239;" cx="52.199" cy="35.522" r="2.161"/><circle style="fill:#F0C560;stroke:#000000;stroke-width:0.7239;" cx="68.416" cy="31.174" r="2.161"/><circle style="fill:#F0C560;stroke:#000000;stroke-width:0.7239;" cx="104.616" cy="35.522" r="2.161"/><circle style="fill:#F0C560;stroke:#000000;stroke-width:0.7239;" cx="88.396" cy="31.174" r="2.161"/><path style="fill:#F0C560;stroke:#000000;stroke-width:0.7239;" d="M102.031,57.384c-10.314-7.45-36.854-5.637-47.717,0.234	c-1.764,0.234-3.174-2.585-1.645-3.997l-2.468-6.464c-1.059-0.116-1.764-1.41-1.059-2.467c0.705-1.058,9.52-5.877,29.266-5.877	c19.744,0,27.384,6.346,28.323,7.287c0.941,0.941,0.471,2.586-0.705,2.586l-2.82,4.7C104.145,54.796,103.206,57.147,102.031,57.384z	"/><path style="fill:#F0C560;stroke:#000000;stroke-width:0.7239;" d="M106.026,48.686c1.176,0,1.646-1.645,0.705-2.586	c-0.939-0.941-8.579-7.287-28.323-7.287c-19.746,0-28.561,4.819-29.266,5.877c-0.705,1.057,0,2.351,1.059,2.467	c3.995-1.88,15.867-5.17,28.677-5.17C88.984,41.987,100.854,44.808,106.026,48.686z"/><path style="fill:#F0C560;stroke:#000000;stroke-width:0.7239;" d="M102.031,57.384c-10.314-7.45-36.854-5.637-47.717,0.234	c-1.764,0.234-3.174-2.585-1.645-3.997c3.408-1.879,16.806-4.936,25.739-4.936c8.931,0,20.919,2.585,24.798,4.7	C104.145,54.796,103.206,57.147,102.031,57.384z"/><circle style="fill:#CC1E4C;stroke:#000000;stroke-width:0.7239;" cx="78.408" cy="45.394" r="2.742"/><circle style="fill:#CC1E4C;stroke:#000000;stroke-width:0.7239;" cx="63.128" cy="46.804" r="2.742"/><circle style="fill:#CC1E4C;stroke:#000000;stroke-width:0.7239;" cx="53.844" cy="49.391" r="2.743"/><circle style="fill:#CC1E4C;stroke:#000000;stroke-width:0.7239;" cx="92.746" cy="46.804" r="2.742"/><circle style="fill:#CC1E4C;stroke:#000000;stroke-width:0.7239;" cx="102.031" cy="49.391" r="2.743"/><circle style="fill:#CC1E4C;stroke:#000000;stroke-width:0.7239;" cx="58.356" cy="47.914" r="1.191"/><circle style="fill:#CC1E4C;stroke:#000000;stroke-width:0.7239;" cx="69.287" cy="45.563" r="1.192"/><circle style="fill:#CC1E4C;stroke:#000000;stroke-width:0.7239;" cx="97.401" cy="47.914" r="1.191"/><path style="fill:#CC1E4C;stroke:#000000;stroke-width:0.7239;" d="M86.471,46.755c-0.659,0-1.192-0.533-1.192-1.192	c0-0.657,0.533-1.191,1.192-1.191c0.655,0,1.19,0.535,1.19,1.191C87.661,46.222,87.126,46.755,86.471,46.755z"/><path style="fill:#FFFFFF;stroke:#000000;stroke-width:0.7239;" d="M78.408,137.536c0.821-2.115,3.996-2.938,6.699-2.938h20.568	c1.997,0,3.407-2.232,3.407-3.877V57.618h-61.35v73.102c0,1.645,1.41,3.877,3.408,3.877h20.567	C74.411,134.598,77.584,135.421,78.408,137.536z"/><rect x="48.908" y="58.794" style="fill:#CC1E4C;stroke:#000000;stroke-width:0.7239;" width="28.558" height="36.433"/><rect x="79.346" y="58.794" style="fill:#FFFFFF;stroke:#000000;stroke-width:0.7239;" width="28.56" height="36.433"/><path style="fill:#FFFFFF;stroke:#000000;stroke-width:0.7239;" d="M77.466,133.305V96.872H48.908v33.73	c0,1.176,1.057,2.703,2.468,2.703H77.466z"/><path style="fill:#CC1E4C;stroke:#000000;stroke-width:0.7239;" d="M107.906,130.249V96.872h-28.56v36.433h25.975	C106.496,133.305,107.906,131.66,107.906,130.249z"/><path d="M78.408,170.014c-6.059,0-10.971-4.911-10.971-10.969c0-6.059,4.912-10.97,10.971-10.97c6.058,0,10.969,4.911,10.969,10.97	C89.377,165.103,84.465,170.014,78.408,170.014v0.998c6.608,0,11.967-5.359,11.967-11.967c0-6.609-5.359-11.968-11.967-11.968	c-6.61,0-11.967,5.359-11.967,11.968c0,6.608,5.357,11.967,11.967,11.967"/><polyline style="fill:#FFFFFF;stroke:#000000;stroke-width:0.7239;" points="77.115,164.215 77.937,169.503 78.995,169.503	79.7,164.215 "/><polyline style="fill:#FFFFFF;stroke:#000000;stroke-width:0.7239;" points="73.282,160.51 69.113,163.868 69.643,164.782	74.575,162.75 "/><polyline style="fill:#FFFFFF;stroke:#000000;stroke-width:0.7239;" points="74.575,155.338 69.583,153.407 69.054,154.324	73.282,157.578 "/><polyline style="fill:#FFFFFF;stroke:#000000;stroke-width:0.7239;" points="79.7,153.873 78.875,148.584 77.819,148.584	77.115,153.873 "/><polyline style="fill:#FFFFFF;stroke:#000000;stroke-width:0.7239;" points="83.532,157.577 87.7,154.219 87.172,153.305	82.239,155.338 "/><polyline style="fill:#FFFFFF;stroke:#000000;stroke-width:0.7239;" points="82.239,162.749 87.231,164.681 87.759,163.764	83.532,160.509 "/><circle style="fill:#FFFFFF;stroke:#000000;stroke-width:0.7239;" cx="78.408" cy="159.043" r="5.678"/><circle style="fill:#FFFFFF;stroke:#000000;stroke-width:0.7239;" cx="78.408" cy="159.044" r="3.045"/><path style="fill:#259271;" d="M116.486,124.961c-1.058,0.94-1.411,2.35-1.645,3.174c-0.353-0.706-1.53,0.235-1.53,1.88	c-0.351-0.352-1.292,1.88-1.056,3.291c-0.705,0-0.709,2.8-0.587,3.996c-0.588,0.235-0.588,1.292-0.471,2.585l1.058,1.411	c1.88-0.94,4.23-3.29,3.172-3.172c0.588-1.881,1.177-3.644,0.588-3.174c0.94-2.35,1.292-4.114,0.704-3.761	c0.94-1.293,1.999-2.702,1.292-2.468c1.177-1.176,2.469-2.586,1.646-2.469c0.941-0.704,1.293-1.292,1.293-1.646"/><path style="fill:#259271;" d="M121.54,124.607c-0.234,1.293,0.116,2.352,0.47,3.41c-0.704-0.237-0.821,0.118-0.47,1.41	c-0.705,0.235-0.352,2.233,0.353,3.525c-0.47,0.353-0.587,1.529-0.119,2.587c-0.705,0-1.174,2.819-1.058,3.642	c-0.704-0.235-1.41,0.939-2.115,1.997c-0.353-0.586-1.41-0.351-2.116,0.588c-0.47-0.234-3.878,0.941-4.818,1.765l0.351,3.29	c1.411,0.471,4.82,0.234,3.998-0.705c1.644,0.117,3.642-0.94,2.937-1.176c2.116-0.352,3.762-1.762,2.939-1.88	c1.644-0.939,2.703-2.82,1.88-2.82c1.057-0.471,3.057-3.76,1.879-3.644c1.06-1.41,1.178-4.583,0.236-3.644	c0.354-1.644,0.354-4.23-0.469-3.525c0.233-1.881,0.585-3.174-0.236-2.703c0.117-0.824,0.236-1.764,0-2.234"/><path style="fill:#259271;" d="M78.408,141.179c2.115-1.058,2.819-0.705,2.703,0.118c1.762-0.234,4.23,0.236,3.409,1.059	c1.527-0.589,3.877-0.235,3.172,0.823c1.528-0.47,3.291-1.529,3.291-0.706c1.763-0.94,4.231-1.058,3.525,0	c1.293-0.352,2.703-0.94,3.878-0.587l0.117,2.232c-0.822,0.94-2.702,1.41-3.524,1.763c0.705,0.47-0.118,0.94-1.411,0.588	c0,0.469-1.646,1.057-3.056,0.234c0.117,0.588-0.824,0.823-1.881-0.117c-0.235,0.469-0.705,0.94-2.232-0.353	c-0.472,0.235-1.411,0-2.117-0.94c-0.469,0.47-1.762,0-2.585-0.94c-0.705,0.354-0.822,0.236-1.527-0.587	c-0.706-0.823-1.059-1.41-1.763-1.527"/><path style="fill:#259271;" d="M78.408,145.881c1.175,0.822,3.878,0.118,4.583,1.528c0.471-0.235,1.292,0,1.645,0.823	c0.824-0.352,2,0,2.468,0.941c1.176-0.235,2.233,0,3.056,0.705c0.941-0.705,1.881-0.94,2.233-0.119	c1.644-1.292,3.291-2.116,3.291-0.821c0.47-0.706,2.351-1.764,3.174-1.764l0.47,1.174c-0.587,1.177-1.88,2.352-2.469,2.704	c0.471,0.353-0.822,1.176-1.411,1.411c0.237,0.706-0.822,1.292-1.878,0.822c-0.236,0.823-1.293,0.588-2.821-0.588	c0.117,0.824-2.115,1.292-3.174,0.588c-0.588,0.47-2.585-0.235-3.172-1.41c-0.706,0.353-1.763,0-2.233-1.058	c-0.705,0.587-1.41,0.235-1.763-0.939c-0.822,0.234-2.115-1.412-1.997-3.057"/><path style="fill:#259271;" d="M116.838,91.936c-1.175,0.94-1.88,1.999-0.939,2.938c-0.824,0.939-1.88,1.646-0.941,3.057	c-0.236,1.292,0.117,2.35,0.941,2.938c-0.706,0.705-1.058,2.937,0,3.408c-0.236,1.175-0.471,1.645,0.821,2.351	c-0.587,0.94-0.353,3.526,0.706,4.819h2.938c0.118-1.881,0.352-3.997-0.235-4.819c0.235-0.94,0.471-2.469-0.234-3.174	c0.469-1.41,0.351-3.759-0.237-3.172c0.706-2.233,0.119-4.114-0.469-3.409c0.706-1.879,1.056-3.408,0.469-3.173	c0.354-0.94,1.998-3.174,0.706-2.821"/><path style="fill:#259271;" d="M122.009,91.113c-0.354,1.41,0.823,2.468,1.292,3.29c-1.058-0.117-0.47,0.942,0.353,2.585	c-0.94,0-0.823,0.707-0.353,2.705c-0.704,0.116-0.704,1.644-0.354,2.937c-0.704,0.235-0.35,1.764-0.116,2.939	c-0.588,0.234-0.588,1.646-0.352,2.703c-0.471,0.117-1.529,2.585-1.058,3.526l2.232,0.352c1.528-1.527,2.938-3.995,2.116-3.761	c1.292-1.762,2.82-5.405,1.527-4.937c0.824-1.527,1.411-4.465,0.471-3.877c0.234-1.999,0-4.23-0.471-3.409	c0.236-1.41-0.586-3.643-0.938-2.938c-0.118-0.823-0.118-2.116-1.059-2.704"/><path style="fill:#259271;" d="M116.796,61.186c-0.897,0.899-1.133,2.192-0.545,2.779c-0.587,1.174,0.354,2.468,1.058,3.055	c-0.823,1.411-0.704,3.41,0,3.762c-0.588,0.823-0.823,2.233-0.117,2.82c-0.706,1.057-0.353,2.82,0.821,3.761l2.587,0.118	c0-1.528,0.352-2.585-0.354-3.644c-0.704-1.057,0-1.527,0-2.703c0-1.176,0-1.176-0.587-2.351c-0.587-1.174,1.176-3.408,0.237-4.466	c-0.942-1.056-0.354-2.938-0.824-3.878c-0.47-0.94-0.587-0.94-1.174-1.292"/><path style="fill:#259271;" d="M119.777,57.971c0.235,1.057,0.469,2.232,1.175,3.171c0.704,0.942,0.354,1.411,0.941,2.822	c0.588,1.41,0.234,2.116-0.119,3.291c-0.352,1.175,0.119,1.881,0.588,3.057c0.47,1.174-0.236,1.88-0.353,2.82	c-0.117,0.94-1.527,3.761-0.47,4.818h2.115c0.704-1.293,0.823-2.115,0.704-3.055c-0.116-0.941,0.236-1.528,0.824-2.115	c0.587-0.587,1.058-2.585,0.469-3.057c-0.585-0.47-0.704-1.527-0.233-1.996c0.469-0.471,0.469-1.528,0.116-1.764	c0.47-0.706,0.824-2.117,0.236-2.585c0.234-1.175,0-2.352-1.175-2.703c0.117-0.942-2.351-3.997-3.407-3.997"/><path style="fill:#259271;" d="M40.328,124.961c1.058,0.94,1.411,2.35,1.646,3.174c0.353-0.706,1.528,0.235,1.528,1.88	c0.353-0.352,1.292,1.88,1.057,3.291c0.706,0,0.709,2.8,0.588,3.996c0.587,0.235,0.587,1.292,0.47,2.585l-1.058,1.411	c-1.88-0.94-4.231-3.29-3.173-3.172c-0.587-1.881-1.176-3.644-0.587-3.174c-0.94-2.35-1.293-4.114-0.706-3.761	c-0.939-1.293-1.998-2.702-1.292-2.468c-1.176-1.176-2.469-2.586-1.646-2.469c-0.94-0.704-1.293-1.292-1.293-1.646"/><path style="fill:#259271;" d="M35.275,124.607c0.235,1.293-0.118,2.352-0.471,3.41c0.706-0.237,0.823,0.118,0.471,1.41	c0.704,0.235,0.352,2.233-0.354,3.525c0.471,0.353,0.589,1.529,0.117,2.587c0.706,0,1.176,2.819,1.059,3.642	c0.705-0.235,1.41,0.939,2.115,1.997c0.353-0.586,1.41-0.351,2.115,0.588c0.47-0.234,3.879,0.941,4.819,1.765l-0.353,3.29	c-1.411,0.471-4.819,0.234-3.996-0.705c-1.645,0.117-3.644-0.94-2.937-1.176c-2.117-0.352-3.761-1.762-2.939-1.88	c-1.646-0.939-2.702-2.82-1.881-2.82c-1.058-0.471-3.055-3.76-1.88-3.644c-1.058-1.41-1.175-4.583-0.234-3.644	c-0.353-1.644-0.353-4.23,0.47-3.525c-0.235-1.881-0.588-3.174,0.235-2.703c-0.117-0.824-0.235-1.764,0-2.234"/><path style="fill:#259271;" d="M78.408,141.179c-2.116-1.058-2.82-0.705-2.703,0.118c-1.764-0.234-4.232,0.236-3.409,1.059	c-1.528-0.589-3.879-0.235-3.173,0.823c-1.528-0.47-3.291-1.529-3.291-0.706c-1.761-0.94-4.23-1.058-3.525,0	c-1.292-0.352-2.704-0.94-3.878-0.587l-0.118,2.232c0.823,0.94,2.704,1.41,3.526,1.763c-0.706,0.47,0.118,0.94,1.411,0.588	c0,0.469,1.645,1.057,3.055,0.234c-0.118,0.588,0.822,0.823,1.881-0.117c0.234,0.469,0.705,0.94,2.232-0.353	c0.47,0.235,1.41,0,2.116-0.94c0.47,0.47,1.764,0,2.586-0.94c0.704,0.354,0.821,0.236,1.527-0.587	c0.705-0.823,1.059-1.41,1.764-1.527"/><path style="fill:#259271;" d="M78.408,145.881c-1.176,0.822-3.88,0.118-4.584,1.528c-0.471-0.235-1.293,0-1.646,0.823	c-0.821-0.352-1.997,0-2.468,0.941c-1.174-0.235-2.231,0-3.054,0.705c-0.941-0.705-1.881-0.94-2.233-0.119	c-1.646-1.292-3.292-2.116-3.292-0.821c-0.469-0.706-2.351-1.764-3.173-1.764l-0.47,1.174c0.587,1.177,1.88,2.352,2.469,2.704	c-0.471,0.353,0.821,1.176,1.41,1.411c-0.235,0.706,0.823,1.292,1.882,0.822c0.233,0.823,1.292,0.588,2.821-0.588	c-0.119,0.824,2.114,1.292,3.172,0.588c0.587,0.47,2.584-0.235,3.173-1.41c0.704,0.353,1.764,0,2.232-1.058	c0.706,0.587,1.41,0.235,1.764-0.939c0.823,0.234,2.115-1.412,1.999-3.057"/><path style="fill:#259271;" d="M39.975,91.936c1.176,0.94,1.881,1.999,0.94,2.938c0.824,0.939,1.881,1.646,0.941,3.057	c0.234,1.292-0.117,2.35-0.941,2.938c0.706,0.705,1.058,2.937,0,3.408c0.236,1.175,0.47,1.645-0.823,2.351	c0.588,0.94,0.354,3.526-0.705,4.819H36.45c-0.119-1.881-0.353-3.997,0.234-4.819c-0.234-0.94-0.47-2.469,0.236-3.174	c-0.47-1.41-0.352-3.759,0.234-3.172c-0.705-2.233-0.118-4.114,0.47-3.409c-0.704-1.879-1.056-3.408-0.47-3.173	c-0.352-0.94-1.997-3.174-0.705-2.821"/><path style="fill:#259271;" d="M34.804,91.113c0.353,1.41-0.821,2.468-1.292,3.29c1.058-0.117,0.471,0.942-0.353,2.585	c0.941,0,0.824,0.707,0.353,2.705c0.706,0.116,0.706,1.644,0.353,2.937c0.705,0.235,0.353,1.764,0.118,2.939	c0.587,0.234,0.587,1.646,0.351,2.703c0.47,0.117,1.527,2.585,1.059,3.526l-2.233,0.352c-1.528-1.527-2.938-3.995-2.116-3.761	c-1.293-1.762-2.821-5.405-1.528-4.937c-0.823-1.527-1.411-4.465-0.47-3.877c-0.234-1.999,0-4.23,0.47-3.409	c-0.234-1.41,0.588-3.643,0.94-2.938c0.118-0.823,0.118-2.116,1.059-2.704"/><path style="fill:#259271;" d="M40.017,61.186c0.898,0.899,1.134,2.192,0.546,2.779c0.588,1.174-0.354,2.468-1.059,3.055	c0.823,1.411,0.705,3.41,0,3.762c0.587,0.823,0.823,2.233,0.117,2.82c0.706,1.057,0.353,2.82-0.822,3.761l-2.585,0.118	c0-1.528-0.353-2.585,0.354-3.644c0.704-1.057,0-1.527,0-2.703c0-1.176,0-1.176,0.586-2.351c0.588-1.174-1.175-3.408-0.234-4.466	c0.941-1.056,0.353-2.938,0.822-3.878c0.47-0.94,0.587-0.94,1.174-1.292"/><path style="fill:#259271;" d="M37.037,57.971c-0.234,1.057-0.468,2.232-1.175,3.171c-0.704,0.942-0.351,1.411-0.94,2.822	c-0.587,1.41-0.235,2.116,0.117,3.291c0.354,1.175-0.117,1.881-0.587,3.057c-0.469,1.174,0.234,1.88,0.353,2.82	c0.117,0.94,1.527,3.761,0.471,4.818h-2.116c-0.706-1.293-0.823-2.115-0.706-3.055c0.118-0.941-0.234-1.528-0.823-2.115	c-0.587-0.587-1.058-2.585-0.47-3.057c0.587-0.47,0.706-1.527,0.235-1.996c-0.47-0.471-0.47-1.528-0.117-1.764	c-0.471-0.706-0.824-2.117-0.236-2.585c-0.235-1.175,0-2.352,1.176-2.703c-0.119-0.942,2.351-3.997,3.408-3.997"/><polygon style="fill:#F0C560;stroke:#000000;stroke-width:0.7239;" points="126.476,125.284 123.89,116.968 117.426,116.968	114.841,125.284 "/><rect x="117.426" y="113.091" style="fill:#F0C560;stroke:#000000;stroke-width:0.7239;" width="6.464" height="3.877"/><path style="fill:#F0C560;stroke:#000000;stroke-width:0.7239;" d="M123.89,113.091h-6.464l-2.351-2.468	c0.706-0.824,1.176-0.824,1.881-1.059l1.057,1.293h1.294v-1.763h2.349v1.88h1.529l0.705-1.293c0.822,0.471,1.645,1.057,1.998,1.528	L123.89,113.091z"/><rect x="119.545" y="113.091" style="fill:#F0C560;stroke:#000000;stroke-width:0.7239;" width="1.981" height="3.877"/><path style="fill:#F0C560;stroke:#000000;stroke-width:0.7239;" d="M118.013,125.284l0.823-3.848c0.354-1.88,2.469-1.88,3.057,0	l0.939,3.848H118.013z"/><polygon style="fill:#F0C560;stroke:#000000;stroke-width:0.7239;" points="126.476,91.79 123.89,83.474 117.426,83.474	114.841,91.79 "/><rect x="117.426" y="79.595" style="fill:#F0C560;stroke:#000000;stroke-width:0.7239;" width="6.464" height="3.878"/><path style="fill:#F0C560;stroke:#000000;stroke-width:0.7239;" d="M123.89,79.595h-6.464l-2.351-2.467	c0.706-0.824,1.176-0.824,1.881-1.058l1.057,1.292h1.294V75.6h2.349v1.88h1.529l0.705-1.293c0.822,0.47,1.645,1.057,1.998,1.527	L123.89,79.595z"/><rect x="119.545" y="79.595" style="fill:#F0C560;stroke:#000000;stroke-width:0.7239;" width="1.981" height="3.878"/><path style="fill:#F0C560;stroke:#000000;stroke-width:0.7239;" d="M118.013,91.79l0.823-3.851c0.354-1.88,2.469-1.88,3.057,0	l0.939,3.851H118.013z"/><polygon style="fill:#F0C560;stroke:#000000;stroke-width:0.7239;" points="123.267,55.732 115.932,51.039 110.989,55.206	114.371,63.229 "/><rect x="108.978" y="49.7" transform="matrix(0.7647 -0.6444 0.6444 0.7647 -6.874 84.4541)" style="fill:#F0C560;stroke:#000000;stroke-width:0.7239;" width="6.463" height="3.88"/><path style="fill:#F0C560;stroke:#000000;stroke-width:0.7239;" d="M113.431,48.074l-4.942,4.165l-3.388-0.372	c0.01-1.083,0.368-1.387,0.756-2.021l1.641,0.306l0.99-0.833l-1.136-1.347l1.797-1.515l1.212,1.437l1.167-0.984l-0.293-1.443	c0.932-0.17,1.939-0.251,2.513-0.118L113.431,48.074z"/><rect x="111.126" y="49.779" transform="matrix(0.7646 -0.6446 0.6446 0.7646 -6.9377 84.4429)" style="fill:#F0C560;stroke:#000000;stroke-width:0.7239;" width="1.982" height="3.878"/><path style="fill:#F0C560;stroke:#000000;stroke-width:0.7239;" d="M116.796,61.186l-1.851-3.474	c-0.943-1.664,0.675-3.028,2.336-1.97l3.199,2.338L116.796,61.186z"/><polygon style="fill:#F0C560;stroke:#000000;stroke-width:0.7239;" points="98.661,151.636 106.589,148.035 105.783,141.622	97.21,140.093 "/><rect x="104.878" y="142.648" transform="matrix(0.1248 0.9922 -0.9922 0.1248 238.0789 19.282)" style="fill:#F0C560;stroke:#000000;stroke-width:0.7239;" width="6.465" height="3.878"/><path style="fill:#F0C560;stroke:#000000;stroke-width:0.7239;" d="M110.438,147.553l-0.807-6.415l2.156-2.64	c0.905,0.596,0.963,1.062,1.284,1.734l-1.149,1.209l0.16,1.284l1.75-0.22l0.292,2.332l-1.865,0.233l0.189,1.517l1.372,0.539	c-0.365,0.875-0.846,1.765-1.268,2.173L110.438,147.553z"/><rect x="107.105" y="142.526" transform="matrix(0.1242 0.9923 -0.9923 0.1242 238.0106 19.2583)" style="fill:#F0C560;stroke:#000000;stroke-width:0.7239;" width="1.981" height="3.878"/><path style="fill:#F0C560;stroke:#000000;stroke-width:0.7239;" d="M97.606,143.243l3.922,0.334c1.91,0.116,2.174,2.216,0.38,3.032	l-3.701,1.414L97.606,143.243z"/><polygon style="fill:#F0C560;stroke:#000000;stroke-width:0.7239;" points="30.338,125.284 32.924,116.968 39.388,116.968	41.973,125.284 "/><rect x="32.924" y="113.091" style="fill:#F0C560;stroke:#000000;stroke-width:0.7239;" width="6.463" height="3.877"/><path style="fill:#F0C560;stroke:#000000;stroke-width:0.7239;" d="M32.924,113.091h6.463l2.351-2.468	c-0.706-0.824-1.175-0.824-1.881-1.059l-1.058,1.293h-1.293v-1.763h-2.35v1.88h-1.528l-0.705-1.293	c-0.824,0.471-1.645,1.057-1.998,1.528L32.924,113.091z"/><rect x="35.288" y="113.091" style="fill:#F0C560;stroke:#000000;stroke-width:0.7239;" width="1.981" height="3.877"/><path style="fill:#F0C560;stroke:#000000;stroke-width:0.7239;" d="M38.8,125.284l-0.822-3.848c-0.354-1.88-2.468-1.88-3.057,0	l-0.938,3.848H38.8z"/><polygon style="fill:#F0C560;stroke:#000000;stroke-width:0.7239;" points="30.338,91.79 32.924,83.474 39.388,83.474 41.973,91.79	"/><rect x="32.924" y="79.595" style="fill:#F0C560;stroke:#000000;stroke-width:0.7239;" width="6.463" height="3.878"/><path style="fill:#F0C560;stroke:#000000;stroke-width:0.7239;" d="M32.924,79.595h6.463l2.351-2.467	c-0.706-0.824-1.175-0.824-1.881-1.058L38.8,77.362h-1.293V75.6h-2.35v1.88h-1.528l-0.705-1.293	c-0.824,0.47-1.645,1.057-1.998,1.527L32.924,79.595z"/><rect x="35.288" y="79.595" style="fill:#F0C560;stroke:#000000;stroke-width:0.7239;" width="1.981" height="3.878"/><path style="fill:#F0C560;stroke:#000000;stroke-width:0.7239;" d="M38.8,91.79l-0.822-3.851c-0.354-1.88-2.468-1.88-3.057,0	l-0.938,3.851H38.8z"/><polygon style="fill:#F0C560;stroke:#000000;stroke-width:0.7239;" points="33.546,55.732 40.883,51.039 45.825,55.206	42.444,63.229 "/><rect x="41.372" y="49.7" transform="matrix(-0.7647 -0.6444 0.6444 -0.7647 45.4343 119.8708)" style="fill:#F0C560;stroke:#000000;stroke-width:0.7239;" width="6.463" height="3.879"/><path style="fill:#F0C560;stroke:#000000;stroke-width:0.7239;" d="M43.382,48.074l4.942,4.165l3.389-0.372	c-0.01-1.083-0.37-1.387-0.758-2.021l-1.641,0.306l-0.989-0.833l1.136-1.347l-1.797-1.515l-1.21,1.437l-1.169-0.984l0.294-1.443	c-0.931-0.17-1.939-0.251-2.513-0.118L43.382,48.074z"/><rect x="43.706" y="49.779" transform="matrix(-0.7645 -0.6447 0.6447 -0.7645 45.5237 120.0687)" style="fill:#F0C560;stroke:#000000;stroke-width:0.7239;" width="1.981" height="3.878"/><path style="fill:#F0C560;stroke:#000000;stroke-width:0.7239;" d="M40.017,61.186l1.852-3.474c0.943-1.664-0.675-3.028-2.337-1.97	l-3.199,2.338L40.017,61.186z"/><polygon style="fill:#F0C560;stroke:#000000;stroke-width:0.7239;" points="58.152,151.636 50.225,148.035 51.031,141.622	59.602,140.093 "/><rect x="45.471" y="142.648" transform="matrix(-0.1247 0.9922 -0.9922 -0.1247 198.2356 114.2932)" style="fill:#F0C560;stroke:#000000;stroke-width:0.7239;" width="6.465" height="3.878"/><path style="fill:#F0C560;stroke:#000000;stroke-width:0.7239;" d="M46.376,147.553l0.806-6.415l-2.158-2.64	c-0.903,0.596-0.961,1.062-1.283,1.734l1.151,1.209l-0.161,1.284l-1.75-0.22l-0.293,2.332l1.865,0.233l-0.189,1.517l-1.37,0.539	c0.363,0.875,0.842,1.765,1.267,2.173L46.376,147.553z"/><rect x="47.728" y="142.527" transform="matrix(-0.1252 0.9921 -0.9921 -0.1252 198.1467 114.2204)" style="fill:#F0C560;stroke:#000000;stroke-width:0.7239;" width="1.981" height="3.877"/><path style="fill:#F0C560;stroke:#000000;stroke-width:0.7239;" d="M59.206,143.243l-3.92,0.334	c-1.91,0.116-2.174,2.216-0.381,3.032l3.702,1.414L59.206,143.243z"/><path d="M110.258,73.836c-0.825,0.705,0,2.351,1.056,1.292l1.881-1.997c1.059,0.705,2.117,0.821,3.41,0.94	c-2.117-1.292-4.467-3.878-5.054-5.758c-0.237,1.174,0.117,2.82,0.468,3.76L110.258,73.836z"/><path d="M113.078,71.016l14.456-14.22c1.057-0.941,1.645-0.823,2.349-0.941c-0.233,0.588-0.822,1.292-1.292,1.998l-14.571,14.221"/><path d="M110.401,106.757c-0.894,0.612-0.25,2.336,0.913,1.397l2.082-1.787c0.977,0.813,2.016,1.042,3.29,1.297	c-1.966-1.509-4.028-4.331-4.412-6.263c-0.36,1.145-0.185,2.816,0.066,3.79L110.401,106.757z"/><path d="M113.506,104.252l15.885-12.602c1.152-0.825,1.725-0.645,2.438-0.687c-0.296,0.56-0.956,1.199-1.499,1.85l-16.003,12.59"/><path d="M108.088,134.636c-1.042,0.294-0.989,2.132,0.416,1.616l2.546-1.02c0.664,1.084,1.573,1.635,2.698,2.285	c-1.375-2.062-2.421-5.397-2.164-7.351c-0.709,0.968-1.081,2.611-1.155,3.611L108.088,134.636z"/><path d="M111.833,133.262l19.095-6.825c1.356-0.408,1.84-0.054,2.529,0.135c-0.46,0.435-1.29,0.827-2.012,1.27l-19.204,6.775"/><path d="M86.002,136.878c-0.532-0.944-2.304-0.458-1.473,0.785l1.594,2.234c-0.897,0.9-1.218,1.914-1.584,3.16	c1.68-1.823,4.673-3.625,6.632-3.837c-1.108-0.459-2.791-0.433-3.781-0.271L86.002,136.878z"/><path d="M88.221,140.193l11.137,16.946c0.717,1.221,0.487,1.774,0.466,2.488c-0.531-0.344-1.108-1.058-1.708-1.656L87,140.91"/><path d="M46.557,73.836c0.822,0.705,0,2.351-1.058,1.292l-1.88-1.997c-1.058,0.705-2.118,0.821-3.41,0.94	c2.116-1.292,4.466-3.878,5.055-5.758c0.235,1.174-0.118,2.82-0.47,3.76L46.557,73.836z"/><path d="M43.737,71.016l-14.456-14.22c-1.058-0.941-1.646-0.823-2.35-0.941c0.234,0.588,0.821,1.292,1.292,1.998l14.573,14.221"/><path d="M46.413,106.757c0.893,0.612,0.251,2.336-0.914,1.397l-2.082-1.787c-0.978,0.813-2.017,1.042-3.29,1.297	c1.967-1.509,4.03-4.331,4.414-6.263c0.358,1.145,0.183,2.816-0.067,3.79L46.413,106.757z"/><path d="M43.308,104.252L27.423,91.651c-1.153-0.825-1.724-0.645-2.437-0.687c0.295,0.56,0.956,1.199,1.496,1.85l16.004,12.59"/><path d="M48.726,134.636c1.042,0.294,0.988,2.132-0.417,1.616l-2.546-1.02c-0.663,1.084-1.575,1.635-2.698,2.285	c1.375-2.062,2.421-5.397,2.164-7.351c0.709,0.968,1.081,2.611,1.155,3.611L48.726,134.636z"/><path d="M44.981,133.262l-19.095-6.825c-1.354-0.408-1.84-0.054-2.529,0.135c0.461,0.435,1.291,0.827,2.014,1.27l19.202,6.775"/><path d="M70.812,136.878c0.532-0.944,2.306-0.458,1.473,0.785l-1.594,2.234c0.898,0.9,1.218,1.914,1.586,3.16	c-1.68-1.823-4.674-3.625-6.632-3.837c1.107-0.459,2.789-0.433,3.779-0.271L70.812,136.878z"/><path d="M68.593,140.193l-11.137,16.946c-0.717,1.221-0.487,1.774-0.466,2.488c0.53-0.344,1.108-1.058,1.708-1.656l11.114-17.061"/><circle style="fill:#CC1E4C;stroke:#000000;stroke-width:0.7239;" cx="78.408" cy="144.823" r="3.656"/><path style="fill:#F0C560;stroke:#000000;stroke-width:0.7239;" d="M54.549,102.161c3.996-3.292,12.222-3.645,17.159-0.353	l1.998-1.646c-5.758-3.996-15.866-3.878-21.037,0.235"/><path style="fill:#65493C;stroke:#000000;stroke-width:0.7239;" d="M66.655,101.809c0.706-0.354,1.998,0.117,2.116,0.939	c0.117,0.824,1.318,2.893,3.643,2.235c2.324-0.659,0.471-4.232,1.645-5.407c-1.057,0.469-2.468,1.41-3.056,2.233	c-0.587,0.822-1.175,0.47-1.41-0.588c-0.235-1.059-1.293-1.527-1.881-0.823C67.124,101.102,66.655,101.809,66.655,101.809z"/><polygon style="fill:#F0C560;stroke:#000000;stroke-width:0.7239;" points="67.947,128.692 69.487,106.156 73.339,106.156	74.881,128.692 "/><path style="fill:#F0C560;stroke:#000000;stroke-width:0.7239;" d="M68.767,116.499h5.173l1.881-2.468	c-0.563-0.822-0.941-0.822-1.503-1.058l-0.848,1.293h-1.035v-1.763h-1.881v1.881h-1.223l-0.563-1.292	c-0.659,0.469-1.316,1.057-1.599,1.528L68.767,116.499z"/><path style="fill:#F0C560;stroke:#000000;stroke-width:0.7239;" d="M72.989,128.692l-0.489-3.848c-0.209-1.88-1.47-1.88-1.821,0	l-0.561,3.848H72.989z"/><path style="fill:#F0C560;stroke:#000000;stroke-width:0.7239;" d="M69.497,106.156h3.843l1.398-1.833	c-0.419-0.611-0.698-0.611-1.118-0.785l-0.629,0.959h-0.768v-1.31h-1.398v1.398h-0.908l-0.419-0.961	c-0.49,0.349-0.978,0.786-1.188,1.136L69.497,106.156z"/><path style="fill:#65493C;stroke:#000000;stroke-width:0.7239;" d="M58.897,101.809c-0.707-0.354-1.999,0.117-2.117,0.939	c-0.117,0.824-1.319,2.893-3.641,2.235c-2.326-0.659-0.471-4.232-1.647-5.407c1.058,0.469,2.469,1.41,3.056,2.233	c0.588,0.822,1.176,0.47,1.411-0.588c0.234-1.059,1.293-1.527,1.88-0.823C58.428,101.102,58.897,101.809,58.897,101.809z"/><polygon style="fill:#F0C560;stroke:#000000;stroke-width:0.7239;" points="57.605,128.692 56.064,106.156 52.21,106.156	50.67,128.692 "/><path style="fill:#F0C560;stroke:#000000;stroke-width:0.7239;" d="M56.784,116.499h-5.173l-1.882-2.468	c0.566-0.822,0.943-0.822,1.505-1.058l0.847,1.293h1.034v-1.763h1.882v1.881h1.222l0.565-1.292c0.658,0.469,1.316,1.057,1.599,1.528	L56.784,116.499z"/><path style="fill:#F0C560;stroke:#000000;stroke-width:0.7239;" d="M52.562,128.692l0.491-3.848c0.209-1.88,1.471-1.88,1.82,0	l0.562,3.848H52.562z"/><path style="fill:#F0C560;stroke:#000000;stroke-width:0.7239;" d="M56.054,106.156H52.21l-1.396-1.833	c0.418-0.611,0.698-0.611,1.117-0.785l0.629,0.959h0.77v-1.31h1.398v1.398h0.909l0.417-0.961c0.489,0.349,0.98,0.786,1.188,1.136	L56.054,106.156z"/><path style="fill:#1879BF;stroke:#000000;stroke-width:0.7239;" d="M59.837,115.795l-0.821,13.161h6.933l-1.058-13.397	c-0.117-0.822,0-1.999,0.471-2.82c0.469-0.822,0.352-3.41,0.352-5.171c0-1.764-0.94-2.585-1.528-2.704l-1.292-0.235h-1.175	c-1.999,0.704-2.235,1.528-2.468,3.057c-0.234,1.528-0.234,3.525-0.588,4.348C58.31,112.855,58.428,115.088,59.837,115.795z"/><polyline style="fill:#F0C560;stroke:#000000;stroke-width:0.7239;" points="61.013,101.692 60.426,99.81 61.365,100.397	62.07,99.576 62.423,100.633 63.48,99.81 63.952,100.986 64.657,100.397 63.833,102.513 "/><path style="fill:#E6AC86;stroke:#000000;stroke-width:0.7239;" d="M61.013,104.394c-0.137-0.82-0.353-3.057,0.47-3.057	c0.823,0,2.35-0.036,2.35,1.647C63.833,105.569,61.365,106.509,61.013,104.394z"/><path style="fill:#E6AC86;stroke:#000000;stroke-width:0.7239;" d="M60.309,112.973c-0.825,0.94-0.942,2.351-0.118,2.585	c0.823,0.236,1.411-0.822,1.411-1.645C61.601,113.091,60.543,112.503,60.309,112.973z"/><path style="fill:#F0C560;stroke:#000000;stroke-width:0.7239;" d="M85.459,65.257c3.996-3.29,12.222-3.644,17.159-0.353	l1.998-1.644c-5.759-3.997-15.867-3.878-21.038,0.235"/><path style="fill:#65493C;stroke:#000000;stroke-width:0.7239;" d="M97.564,64.904c0.704-0.351,1.997,0.118,2.114,0.941	c0.118,0.821,1.319,2.891,3.645,2.231c2.325-0.658,0.469-4.231,1.645-5.405c-1.057,0.47-2.469,1.41-3.056,2.232	c-0.587,0.823-1.176,0.47-1.411-0.588c-0.234-1.056-1.293-1.527-1.88-0.821C98.034,64.199,97.564,64.904,97.564,64.904z"/><polygon style="fill:#F0C560;stroke:#000000;stroke-width:0.7239;" points="98.857,91.79 100.399,69.252 104.25,69.252	105.792,91.79 "/><path style="fill:#F0C560;stroke:#000000;stroke-width:0.7239;" d="M99.676,79.595h5.175l1.879-2.467	c-0.564-0.824-0.939-0.824-1.505-1.058l-0.846,1.292h-1.034V75.6h-1.882v1.88h-1.222l-0.565-1.293	c-0.658,0.47-1.317,1.057-1.599,1.527L99.676,79.595z"/><path style="fill:#F0C560;stroke:#000000;stroke-width:0.7239;" d="M103.899,91.79l-0.489-3.851c-0.211-1.88-1.471-1.88-1.822,0	l-0.56,3.851H103.899z"/><path style="fill:#F0C560;stroke:#000000;stroke-width:0.7239;" d="M100.407,69.252h3.843l1.398-1.833	c-0.42-0.611-0.699-0.611-1.119-0.786l-0.628,0.962h-0.77v-1.311h-1.398v1.397h-0.907l-0.42-0.959	c-0.489,0.348-0.978,0.785-1.188,1.133L100.407,69.252z"/><path style="fill:#65493C;stroke:#000000;stroke-width:0.7239;" d="M89.808,64.904c-0.705-0.351-1.998,0.118-2.116,0.941	c-0.119,0.821-1.318,2.891-3.643,2.231c-2.326-0.658-0.471-4.231-1.646-5.405c1.058,0.47,2.467,1.41,3.056,2.232	c0.587,0.823,1.175,0.47,1.41-0.588c0.234-1.056,1.292-1.527,1.88-0.821C89.337,64.199,89.808,64.904,89.808,64.904z"/><polygon style="fill:#F0C560;stroke:#000000;stroke-width:0.7239;" points="88.515,91.79 86.974,69.252 83.122,69.252 81.58,91.79	"/><path style="fill:#F0C560;stroke:#000000;stroke-width:0.7239;" d="M87.695,79.595h-5.174l-1.882-2.467	c0.566-0.824,0.941-0.824,1.506-1.058l0.846,1.292h1.036V75.6h1.88v1.88h1.224l0.564-1.293c0.657,0.47,1.316,1.057,1.598,1.527	L87.695,79.595z"/><path style="fill:#F0C560;stroke:#000000;stroke-width:0.7239;" d="M83.471,91.79l0.491-3.851c0.21-1.88,1.471-1.88,1.82,0	l0.562,3.851H83.471z"/><path style="fill:#F0C560;stroke:#000000;stroke-width:0.7239;" d="M86.963,69.252h-3.841l-1.398-1.833	c0.418-0.611,0.699-0.611,1.118-0.786l0.629,0.962h0.768v-1.311h1.397v1.397h0.909l0.417-0.959c0.49,0.348,0.98,0.785,1.19,1.133	L86.963,69.252z"/><path style="fill:#1879BF;stroke:#000000;stroke-width:0.7239;" d="M90.747,78.891l-0.822,13.163h6.933l-1.057-13.399	c-0.118-0.824,0-1.999,0.471-2.821c0.47-0.823,0.352-3.408,0.352-5.172c0-1.761-0.94-2.585-1.527-2.703l-1.293-0.233h-1.176	c-1.997,0.704-2.231,1.526-2.468,3.055c-0.234,1.528-0.234,3.526-0.587,4.348C89.22,75.952,89.337,78.185,90.747,78.891z"/><polyline style="fill:#F0C560;stroke:#000000;stroke-width:0.7239;" points="91.923,64.788 91.334,62.906 92.275,63.495	92.98,62.672 93.333,63.729 94.391,62.906 94.861,64.082 95.565,63.495 94.744,65.609 "/><path style="fill:#E6AC86;stroke:#000000;stroke-width:0.7239;" d="M91.923,67.49c-0.137-0.819-0.353-3.055,0.47-3.055	s2.351-0.038,2.351,1.646C94.744,68.666,92.275,69.606,91.923,67.49z"/><path style="fill:#E6AC86;stroke:#000000;stroke-width:0.7239;" d="M91.217,76.07c-0.821,0.94-0.94,2.351-0.117,2.585	c0.823,0.236,1.41-0.824,1.41-1.646C92.51,76.187,91.452,75.6,91.217,76.07z"/><polygon style="fill:#F0C560;stroke:#000000;stroke-width:0.7239;" points="106.496,130.573 105.077,126.009 101.529,126.009	100.11,130.573 "/><path style="fill:#F0C560;stroke:#000000;stroke-width:0.7239;" d="M105.077,125.996h-3.548l-0.92-1.354	c0.387-0.452,0.646-0.452,1.033-0.581l0.21,0.709h0.709v-0.968h1.288v1.033h0.47l0.387-0.71c0.452,0.258,0.797,0.581,0.99,0.838	L105.077,125.996z"/><path style="fill:#F0C560;stroke:#000000;stroke-width:0.7239;" d="M101.852,130.573l0.451-2.112c0.193-1.033,1.355-1.033,1.677,0	l0.517,2.112H101.852z"/><polygon style="fill:#F0C560;stroke:#000000;stroke-width:0.7239;" points="106.189,117.057 104.771,112.494 101.224,112.494	99.805,117.057 "/><path style="fill:#F0C560;stroke:#000000;stroke-width:0.7239;" d="M104.771,112.481h-3.547l-0.92-1.355	c0.387-0.452,0.644-0.452,1.032-0.579l0.211,0.708h0.708v-0.967h1.291v1.033h0.468l0.388-0.71c0.45,0.256,0.797,0.581,0.99,0.838	L104.771,112.481z"/><path style="fill:#F0C560;stroke:#000000;stroke-width:0.7239;" d="M101.546,117.057l0.451-2.111c0.194-1.033,1.354-1.033,1.676,0	l0.517,2.111H101.546z"/><polygon style="fill:#F0C560;stroke:#000000;stroke-width:0.7239;" points="106.496,105.305 105.077,100.741 101.529,100.741	100.11,105.305 "/><path style="fill:#F0C560;stroke:#000000;stroke-width:0.7239;" d="M105.077,100.728h-3.548l-0.92-1.354	c0.387-0.452,0.646-0.452,1.033-0.581l0.21,0.71h0.709v-0.969h1.288v1.033h0.47l0.387-0.709c0.452,0.259,0.797,0.581,0.99,0.838	L105.077,100.728z"/><path style="fill:#F0C560;stroke:#000000;stroke-width:0.7239;" d="M101.852,105.305l0.451-2.113c0.193-1.032,1.355-1.032,1.677,0	l0.517,2.113H101.852z"/><polygon style="fill:#F0C560;stroke:#000000;stroke-width:0.7239;" points="86.276,130.573 84.857,126.009 81.311,126.009	79.892,130.573 "/><path style="fill:#F0C560;stroke:#000000;stroke-width:0.7239;" d="M84.857,125.996h-3.547l-0.92-1.354	c0.387-0.452,0.645-0.452,1.033-0.581l0.21,0.709h0.709v-0.968h1.29v1.033h0.469l0.386-0.71c0.452,0.258,0.797,0.581,0.992,0.838	L84.857,125.996z"/><path style="fill:#F0C560;stroke:#000000;stroke-width:0.7239;" d="M81.633,130.573l0.451-2.112c0.193-1.033,1.354-1.033,1.678,0	l0.515,2.112H81.633z"/><polygon style="fill:#F0C560;stroke:#000000;stroke-width:0.7239;" points="86.276,117.057 84.857,112.494 81.311,112.494	79.892,117.057 "/><path style="fill:#F0C560;stroke:#000000;stroke-width:0.7239;" d="M84.857,112.481h-3.547l-0.92-1.355	c0.387-0.452,0.645-0.452,1.033-0.579l0.21,0.708h0.709v-0.967h1.29v1.033h0.469l0.386-0.71c0.452,0.256,0.797,0.581,0.992,0.838	L84.857,112.481z"/><path style="fill:#F0C560;stroke:#000000;stroke-width:0.7239;" d="M81.633,117.057l0.451-2.111c0.193-1.033,1.354-1.033,1.678,0	l0.515,2.111H81.633z"/><polygon style="fill:#F0C560;stroke:#000000;stroke-width:0.7239;" points="86.276,105.305 84.857,100.741 81.311,100.741	79.892,105.305 "/><path style="fill:#F0C560;stroke:#000000;stroke-width:0.7239;" d="M84.857,100.728h-3.547l-0.92-1.354	c0.387-0.452,0.645-0.452,1.033-0.581l0.21,0.71h0.709v-0.969h1.29v1.033h0.469l0.386-0.709c0.452,0.259,0.797,0.581,0.992,0.838	L84.857,100.728z"/><path style="fill:#F0C560;stroke:#000000;stroke-width:0.7239;" d="M81.633,105.305l0.451-2.113c0.193-1.032,1.354-1.032,1.678,0	l0.515,2.113H81.633z"/><polygon style="fill:#F0C560;stroke:#000000;stroke-width:0.7239;" points="96.729,105.305 95.31,100.741 91.763,100.741	90.343,105.305 "/><path style="fill:#F0C560;stroke:#000000;stroke-width:0.7239;" d="M95.31,100.728h-3.546l-0.919-1.354	c0.385-0.452,0.645-0.452,1.032-0.581l0.21,0.71h0.708v-0.969h1.29v1.033h0.469l0.387-0.709c0.451,0.259,0.797,0.581,0.991,0.838	L95.31,100.728z"/><path style="fill:#F0C560;stroke:#000000;stroke-width:0.7239;" d="M92.086,105.305l0.45-2.113c0.194-1.032,1.355-1.032,1.676,0	l0.518,2.113H92.086z"/><path style="fill:#FFFFFF;stroke:#000000;stroke-width:0.7239;" d="M99.554,106.422v14.513c0,2.146-0.985,3.438-2.847,3.438h-2.292	c-0.578,0-1.258,0.206-1.435,0.735c-0.176-0.53-0.854-0.735-1.436-0.735h-2.291c-1.861,0-2.847-1.293-2.847-3.438v-14.513H99.554z"	/><polygon style="fill:#1879BF;" points="91.334,107.861 92.04,111.21 93.687,111.21 94.272,107.861 "/><polygon style="fill:#1879BF;" points="91.334,120.436 92.04,117.086 93.687,117.086 94.272,120.436 "/><polygon style="fill:#1879BF;" points="87.281,115.441 90.63,114.737 90.63,113.091 87.281,112.503 "/><polygon style="fill:#1879BF;" points="98.092,115.441 94.744,114.737 94.744,113.091 98.092,112.503 "/><rect x="91.805" y="112.855" style="fill:#1879BF;" width="1.998" height="2.468"/><polygon style="fill:#F0C560;stroke:#000000;stroke-width:0.7239;" points="76.409,93.67 74.99,89.106 71.442,89.106 70.023,93.67	"/><path style="fill:#F0C560;stroke:#000000;stroke-width:0.7239;" d="M74.99,89.093h-3.548l-0.92-1.356	c0.387-0.45,0.646-0.45,1.033-0.58l0.21,0.709h0.71v-0.968h1.29v1.033h0.468l0.388-0.708c0.452,0.258,0.797,0.579,0.99,0.838	L74.99,89.093z"/><path style="fill:#F0C560;stroke:#000000;stroke-width:0.7239;" d="M71.765,93.67l0.452-2.112c0.193-1.033,1.355-1.033,1.677,0	l0.516,2.112H71.765z"/><polygon style="fill:#F0C560;stroke:#000000;stroke-width:0.7239;" points="76.104,80.153 74.684,75.59 71.137,75.59 69.717,80.153	"/><path style="fill:#F0C560;stroke:#000000;stroke-width:0.7239;" d="M74.684,75.578h-3.547l-0.92-1.355	c0.387-0.45,0.646-0.45,1.032-0.58l0.212,0.709h0.708v-0.967h1.291v1.031h0.468l0.388-0.709c0.451,0.258,0.796,0.581,0.99,0.838	L74.684,75.578z"/><path style="fill:#F0C560;stroke:#000000;stroke-width:0.7239;" d="M71.46,80.153l0.45-2.111c0.193-1.032,1.355-1.032,1.677,0	l0.516,2.111H71.46z"/><polygon style="fill:#F0C560;stroke:#000000;stroke-width:0.7239;" points="76.409,68.401 74.99,63.837 71.442,63.837	70.023,68.401 "/><path style="fill:#F0C560;stroke:#000000;stroke-width:0.7239;" d="M74.99,63.824h-3.548l-0.92-1.354	c0.387-0.453,0.646-0.453,1.033-0.582l0.21,0.71h0.71v-0.968h1.29v1.033h0.468l0.388-0.71c0.452,0.258,0.797,0.581,0.99,0.838	L74.99,63.824z"/><path style="fill:#F0C560;stroke:#000000;stroke-width:0.7239;" d="M71.765,68.401l0.452-2.112c0.193-1.033,1.355-1.033,1.677,0	l0.516,2.112H71.765z"/><polygon style="fill:#F0C560;stroke:#000000;stroke-width:0.7239;" points="56.189,93.67 54.771,89.106 51.222,89.106 49.805,93.67	"/><path style="fill:#F0C560;stroke:#000000;stroke-width:0.7239;" d="M54.771,89.093h-3.549l-0.919-1.356	c0.387-0.45,0.645-0.45,1.033-0.58l0.21,0.709h0.709v-0.968h1.29v1.033h0.469l0.386-0.708c0.453,0.258,0.797,0.579,0.992,0.838	L54.771,89.093z"/><path style="fill:#F0C560;stroke:#000000;stroke-width:0.7239;" d="M51.546,93.67l0.451-2.112c0.193-1.033,1.354-1.033,1.677,0	l0.515,2.112H51.546z"/><polygon style="fill:#F0C560;stroke:#000000;stroke-width:0.7239;" points="56.189,80.153 54.771,75.59 51.222,75.59 49.805,80.153	"/><path style="fill:#F0C560;stroke:#000000;stroke-width:0.7239;" d="M54.771,75.578h-3.549l-0.919-1.355	c0.387-0.45,0.645-0.45,1.033-0.58l0.21,0.709h0.709v-0.967h1.29v1.031h0.469l0.386-0.709c0.453,0.258,0.797,0.581,0.992,0.838	L54.771,75.578z"/><path style="fill:#F0C560;stroke:#000000;stroke-width:0.7239;" d="M51.546,80.153l0.451-2.111c0.193-1.032,1.354-1.032,1.677,0	l0.515,2.111H51.546z"/><polygon style="fill:#F0C560;stroke:#000000;stroke-width:0.7239;" points="56.189,68.401 54.771,63.837 51.222,63.837	49.805,68.401 "/><path style="fill:#F0C560;stroke:#000000;stroke-width:0.7239;" d="M54.771,63.824h-3.549l-0.919-1.354	c0.387-0.453,0.645-0.453,1.033-0.582l0.21,0.71h0.709v-0.968h1.29v1.033h0.469l0.386-0.71c0.453,0.258,0.797,0.581,0.992,0.838	L54.771,63.824z"/><path style="fill:#F0C560;stroke:#000000;stroke-width:0.7239;" d="M51.546,68.401l0.451-2.112c0.193-1.033,1.354-1.033,1.677,0	l0.515,2.112H51.546z"/><polygon style="fill:#F0C560;stroke:#000000;stroke-width:0.7239;" points="66.643,68.401 65.223,63.837 61.675,63.837	60.257,68.401 "/><path style="fill:#F0C560;stroke:#000000;stroke-width:0.7239;" d="M65.223,63.824h-3.547l-0.919-1.354	c0.386-0.453,0.645-0.453,1.033-0.582l0.209,0.71h0.709v-0.968h1.29v1.033h0.469l0.387-0.71c0.451,0.258,0.796,0.581,0.991,0.838	L65.223,63.824z"/><path style="fill:#F0C560;stroke:#000000;stroke-width:0.7239;" d="M61.999,68.401l0.45-2.112c0.194-1.033,1.356-1.033,1.677,0	l0.518,2.112H61.999z"/><path style="fill:#FFFFFF;stroke:#000000;stroke-width:0.7239;" d="M69.467,69.518v14.515c0,2.143-0.987,3.438-2.847,3.438h-2.292	c-0.58,0-1.259,0.205-1.435,0.733c-0.177-0.529-0.856-0.733-1.436-0.733h-2.291c-1.862,0-2.846-1.295-2.846-3.438V69.518H69.467z"/><polygon style="fill:#1879BF;" points="61.248,70.957 61.953,74.307 63.599,74.307 64.186,70.957 "/><polygon style="fill:#1879BF;" points="61.248,83.533 61.953,80.184 63.599,80.184 64.186,83.533 "/><polygon style="fill:#1879BF;" points="57.194,78.539 60.543,77.832 60.543,76.187 57.194,75.6 "/><polygon style="fill:#1879BF;" points="68.005,78.539 64.657,77.832 64.657,76.187 68.005,75.6 "/><rect x="61.719" y="75.952" style="fill:#1879BF;" width="1.997" height="2.469"/><path style="fill:#CC1E4C;stroke:#000000;stroke-width:0.7239;" d="M67.829,4.613c-1.174-0.352-1.998-0.47-2.704,0	c-0.704,0.471,0.118,1.175,0.824,0.941C66.655,5.318,67.124,4.613,67.829,4.613z"/></svg>