<?xml version="1.0" encoding="UTF-8" standalone="no"?>
<!-- Created with Inkscape (http://www.inkscape.org/) -->
<svg xmlns:dc="http://purl.org/dc/elements/1.1/" xmlns:cc="http://web.resource.org/cc/" xmlns:rdf="http://www.w3.org/1999/02/22-rdf-syntax-ns#" xmlns:svg="http://www.w3.org/2000/svg" xmlns="http://www.w3.org/2000/svg" xmlns:sodipodi="http://sodipodi.sourceforge.net/DTD/sodipodi-0.dtd" xmlns:inkscape="http://www.inkscape.org/namespaces/inkscape" version="1.0" width="499.99991" height="700.00012" id="svg2" sodipodi:version="0.32" inkscape:version="0.44.1" sodipodi:docname="Logo Real Madryt.svg" sodipodi:docbase="C:\Documents and Settings\Damian\Pulpit">
  <metadata id="metadata1966">
    <rdf:RDF>
      <cc:Work rdf:about="">
        <dc:format>image/svg+xml</dc:format>
        <dc:type rdf:resource="http://purl.org/dc/dcmitype/StillImage"/>
      </cc:Work>
    </rdf:RDF>
  </metadata>
  <sodipodi:namedview inkscape:window-height="573" inkscape:window-width="853" inkscape:pageshadow="2" inkscape:pageopacity="0.0" guidetolerance="10.0" gridtolerance="10.0" objecttolerance="10.0" borderopacity="1.0" bordercolor="#666666" pagecolor="#ffffff" id="base" inkscape:zoom="0.53857134" inkscape:cx="290.04901" inkscape:cy="334.2208" inkscape:window-x="44" inkscape:window-y="58" inkscape:current-layer="g25392"/>
  <defs id="defs4"/>
  <g transform="translate(-152.545, -140.201)" id="layer1">
    <g transform="translate(-686.904, 56.5685)" id="g21752">
      <g transform="translate(1005.84, 113.855)" id="g20818">
        <g transform="translate(18.5714, -43.5714)" id="g19035">
          <g transform="translate(3.53839)" id="g19011"/>
        </g>
        <g transform="translate(0, 4.04061)" id="g21741"/>
      </g>
      <g transform="matrix(1.29524, 0, 0, 1.29365, -393.043, -230.109)" id="g21781">
        <g id="g23567">
          <g id="g25392">
            <path d="M -282.85715 210.00012 A 252.85715 252.85715 0 1 1  -788.57144,210.00012 A 252.85715 252.85715 0 1 1  -282.85715 210.00012 z" transform="matrix(0.728697, 0, 0, 0.729595, 1534.94, 437.164)" style="opacity: 1; fill: white; fill-opacity: 1; fill-rule: nonzero; stroke: none; stroke-width: 3; stroke-miterlimit: 4; stroke-dasharray: none; stroke-dashoffset: 50; stroke-opacity: 1;" id="path23601"/>
            <path d="M 1141.0145,243.44097 L 1141.0145,249.40972 L 1134.952,249.40972 L 1134.952,255.53472 L 1141.0458,255.53472 C 1141.0458,257.86805 1141.0458,259.04623 1141.0458,262.53472 C 1141.0458,262.53472 1138.7824,262.23561 1137.2645,263.12847 C 1135.7466,264.02133 1134.9833,266.12847 1134.9833,266.12847 C 1134.9833,266.12848 1131.4297,264.83383 1128.7958,265.81597 C 1126.1619,266.79811 1124.452,270.03472 1124.452,270.03472 C 1124.452,270.03471 1120.9919,266.74136 1117.2333,267.56597 C 1112.8593,268.52559 1110.1708,274.19097 1110.1708,274.19097 C 1110.1707,274.19095 1106.4642,271.72281 1103.0145,273.25347 C 1097.7238,275.60107 1097.202,281.94097 1097.202,281.94097 C 1097.202,281.94097 1089.3208,280.95319 1086.827,282.84722 C 1084.3378,284.73778 1084.827,292.81597 1084.827,292.81597 C 1084.827,292.81598 1082.0667,292.27837 1079.9833,292.90972 C 1077.8999,293.54108 1076.5145,295.34722 1076.5145,295.34722 C 1076.5145,295.34722 1074.7026,291.56597 1069.4833,291.56597 C 1064.1476,291.56596 1061.4833,297.59722 1061.4833,297.59722 C 1061.4832,297.59721 1054.0846,296.1314 1051.5458,297.59722 C 1048.9687,299.08508 1048.6083,305.00347 1048.6083,305.00347 C 1048.6082,305.00348 1041.6267,303.77984 1038.827,306.62847 C 1036.0273,309.47711 1037.3895,316.37847 1037.3895,316.37847 C 1037.3895,316.37845 1030.0057,315.64567 1028.6083,318.50347 C 1027.0478,321.69481 1028.1083,329.59722 1028.1083,329.59722 C 1028.1083,329.59722 1022.3933,330.08895 1021.202,334.53472 C 1020.206,338.252 1023.6395,344.34722 1023.6395,344.34722 C 1023.6395,344.34722 1018.6663,346.50347 1017.4833,349.47222 C 1016.3002,352.44098 1018.9208,356.22222 1018.9208,356.22222 L 1016.577,368.34722 C 1016.577,368.34723 1013.7864,373.29599 1018.7645,380.22222 C 1023.6391,387.00444 1031.4208,382.53472 1031.4208,382.53472 C 1031.4207,382.53472 1034.0101,384.53026 1037.3583,385.06597 C 1040.7065,385.6017 1044.7958,384.69097 1044.7958,384.69097 C 1044.7958,384.69097 1043.7467,388.09722 1045.1083,390.12847 C 1046.4699,392.15974 1050.2645,392.81597 1050.2645,392.81597 L 1051.952,396.81597 L 1050.8895,401.65972 L 1055.827,405.90972 L 1057.5458,412.82936 C 1057.5458,412.82936 1093.5533,392.59486 1144.5458,392.59486 C 1191.9696,392.59486 1231.5145,412.65079 1231.5145,412.65079 L 1233.2645,405.90972 L 1238.1708,401.65972 L 1237.1395,396.81597 L 1238.827,392.81597 C 1238.827,392.81597 1242.6217,392.15972 1243.9833,390.12847 C 1245.3449,388.09724 1244.2645,384.69097 1244.2645,384.69097 C 1244.2645,384.69097 1248.3851,385.60169 1251.7333,385.06597 C 1255.0815,384.53027 1257.6708,382.53472 1257.6708,382.53472 C 1257.6708,382.53472 1265.4524,387.00445 1270.327,380.22222 C 1275.3051,373.29598 1272.4833,368.34722 1272.4833,368.34722 L 1270.1708,356.22222 C 1270.1708,356.22222 1272.7913,352.44097 1271.6083,349.47222 C 1270.4253,346.50348 1265.452,344.34722 1265.452,344.34722 C 1265.452,344.34722 1268.8543,338.25201 1267.8583,334.53472 C 1266.6671,330.08894 1260.9833,329.59722 1260.9833,329.59722 C 1260.9833,329.59722 1262.0438,321.6948 1260.4833,318.50347 C 1259.0859,315.64568 1251.702,316.37847 1251.702,316.37847 C 1251.702,316.37845 1253.0642,309.47711 1250.2645,306.62847 C 1247.4648,303.77984 1240.4833,305.00347 1240.4833,305.00347 C 1240.4833,305.00348 1240.1229,299.08509 1237.5458,297.59722 C 1235.0069,296.13139 1227.6083,297.59722 1227.6083,297.59722 C 1227.6082,297.59721 1224.944,291.56597 1219.6083,291.56597 C 1214.389,291.56596 1212.577,295.34722 1212.577,295.34722 C 1212.577,295.34722 1211.1917,293.54106 1209.1083,292.90972 C 1207.0248,292.27839 1204.2645,292.81597 1204.2645,292.81597 C 1204.2645,292.81598 1204.7538,284.73779 1202.2645,282.84722 C 1199.7707,280.95318 1191.8895,281.94097 1191.8895,281.94097 C 1191.8895,281.94097 1191.3678,275.60106 1186.077,273.25347 C 1182.6274,271.72282 1178.9208,274.19097 1178.9208,274.19097 C 1178.9208,274.19095 1176.2323,268.52559 1171.8583,267.56597 C 1168.0997,266.74136 1164.6395,270.03472 1164.6395,270.03472 C 1164.6395,270.03471 1162.9297,266.79812 1160.2958,265.81597 C 1157.6618,264.83382 1154.1083,266.12847 1154.1083,266.12847 C 1154.1083,266.12848 1153.3136,264.02133 1151.7958,263.12847 C 1150.278,262.23561 1148.0145,262.53472 1148.0145,262.53472 L 1148.0145,255.53472 L 1154.1083,255.53472 L 1154.1083,249.40972 L 1148.077,249.40972 L 1148.077,243.44097 L 1141.0145,243.44097 z " style="fill: white; fill-opacity: 1; fill-rule: evenodd; stroke: none; stroke-width: 1.5; stroke-linecap: butt; stroke-linejoin: miter; stroke-miterlimit: 4; stroke-dasharray: none; stroke-opacity: 1;" id="path24490"/>
            <path d="M 118.53975,191.28571 C 114.42127,191.29995 110.0844,191.66964 105.821,192.62946 C 88.767431,196.46875 73.0085,208.50446 73.0085,208.50446 C 73.0085,208.50446 72.220905,208.55705 71.7585,208.59821 C 72.050964,209.20683 72.22725,209.87902 72.22725,210.59821 C 72.22725,213.14229 70.177569,215.19196 67.6335,215.19196 C 65.089432,215.19197 63.0085,213.14228 63.0085,210.59821 C 63.0085,210.35472 63.034294,210.11305 63.071,209.87946 C 58.498893,210.73663 52.973107,212.05612 47.6335,214.19196 C 35.579931,219.01337 24.78975,227.78571 24.78975,227.78571 L 35.16475,252.78571 L 29.071,262.06696 L 48.72725,268.12946 C 48.72725,268.12945 92.584391,246.57589 139.10225,246.75446 C 185.62011,246.93304 234.78975,268.84821 234.78975,268.84821 L 240.16475,262.06696 L 250.8835,263.12946 L 246.22725,251.34821 L 252.66475,234.19196 L 249.2585,225.87946 C 249.25849,225.87945 243.57229,218.88456 233.35225,214.53571 C 227.40237,212.00392 219.97621,210.39764 214.7585,209.47321 C 214.89804,209.91078 215.0085,210.36413 215.0085,210.84821 C 215.0085,213.39227 212.92757,215.47321 210.3835,215.47321 C 207.83943,215.47322 205.78975,213.39228 205.78975,210.84821 C 205.78974,209.54468 206.329,208.37044 207.196,207.53571 C 203.65848,204.69491 191.82547,195.83975 177.78975,192.62946 C 161.00405,188.79017 141.22725,194.41071 141.22725,194.41071 C 141.22725,194.41071 130.89518,191.243 118.53975,191.28571 z M 138.53975,194.16071 C 141.08382,194.16071 143.1335,196.24164 143.1335,198.78571 C 143.1335,201.32977 141.08382,203.37946 138.53975,203.37946 C 135.99568,203.37947 133.91475,201.32978 133.91475,198.78571 C 133.91475,196.24164 135.99568,194.16071 138.53975,194.16071 z M 138.78975,211.62946 C 143.69044,211.62947 147.66475,215.60377 147.66475,220.50446 C 147.66476,225.40515 143.69044,229.37946 138.78975,229.37946 C 133.88905,229.37945 129.91475,225.40515 129.91475,220.50446 C 129.91475,215.60377 133.88906,211.62946 138.78975,211.62946 z M 201.91475,218.94196 C 206.81544,218.94197 210.78975,222.91627 210.78975,227.81696 C 210.78974,232.71765 206.81544,236.69196 201.91475,236.69196 C 197.01405,236.69197 193.03975,232.71765 193.03975,227.81696 C 193.03974,222.91626 197.01406,218.94196 201.91475,218.94196 z M 75.7585,219.06696 C 80.659193,219.06696 84.6335,223.04127 84.6335,227.94196 C 84.633496,232.84267 80.659193,236.81696 75.7585,236.81696 C 70.857806,236.81696 66.8835,232.84265 66.8835,227.94196 C 66.883499,223.04128 70.857807,219.06696 75.7585,219.06696 z " transform="translate(1005.84, 117.896)" style="fill: rgb(225, 35, 59); fill-opacity: 1; fill-rule: evenodd; stroke: rgb(23, 57, 128); stroke-width: 1px; stroke-linecap: butt; stroke-linejoin: miter; stroke-opacity: 1;" id="path19002"/>
            <path d="M 135.20375,125.37946 L 135.20375,131.34821 L 129.14125,131.34821 L 129.14125,137.47321 L 135.235,137.47321 L 135.235,144.47321 C 135.235,144.47321 132.9716,144.1741 131.45375,145.06696 C 129.93587,145.95982 129.1725,148.06696 129.1725,148.06696 C 129.17249,148.06697 125.61893,146.77232 122.985,147.75446 C 120.3511,148.7366 118.64125,151.97321 118.64125,151.97321 C 118.64122,151.9732 115.1811,148.67985 111.4225,149.50446 C 107.04848,150.46408 104.36,156.12946 104.36,156.12946 C 104.35997,156.12944 100.65339,153.6613 97.20375,155.19196 C 91.912997,157.53956 91.39125,163.87946 91.39125,163.87946 C 91.391237,163.87946 83.51006,162.89168 81.01625,164.78571 C 78.526991,166.67627 79.01625,174.75446 79.01625,174.75446 C 79.016261,174.75447 76.25594,174.21686 74.1725,174.84821 C 72.089091,175.47957 70.70375,177.28571 70.70375,177.28571 C 70.703741,177.28571 68.89179,173.50446 63.6725,173.50446 C 58.336811,173.50445 55.6725,179.53571 55.6725,179.53571 C 55.672471,179.5357 48.27386,178.06989 45.735,179.53571 C 43.157929,181.02357 42.7975,186.94196 42.7975,186.94196 C 42.797479,186.94197 35.81596,185.71833 33.01625,188.56696 C 30.21652,191.4156 31.57875,198.31696 31.57875,198.31696 C 31.57874,198.31694 24.1949,197.58416 22.7975,200.44196 C 21.23699,203.6333 22.2975,211.53571 22.2975,211.53571 C 22.29749,211.53571 16.58249,212.02744 15.39125,216.47321 C 14.39518,220.19049 17.82875,226.28571 17.82875,226.28571 C 17.82874,226.28571 12.85554,228.44196 11.6725,231.41071 C 10.48946,234.37947 13.11,238.16071 13.11,238.16071 L 10.76625,250.28571 C 10.76626,250.28572 7.97561,255.23448 12.95375,262.16071 C 17.82836,268.94293 25.61,264.47321 25.61,264.47321 C 25.60997,264.47321 28.19928,266.46875 31.5475,267.00446 C 34.8957,267.54019 38.985,266.62946 38.985,266.62946 C 38.984999,266.62946 37.93589,270.03571 39.2975,272.06696 C 40.659109,274.09823 44.45375,274.75446 44.45375,274.75446 L 46.14125,278.75446 L 45.07875,283.59821 L 50.01625,287.84821 L 51.735,294.76785 C 51.735,294.76785 87.742495,274.53335 138.735,274.53335 C 186.15878,274.53335 225.70375,294.58928 225.70375,294.58928 L 227.45375,287.84821 L 232.36,283.59821 L 231.32875,278.75446 L 233.01625,274.75446 C 233.01624,274.75446 236.8109,274.09821 238.1725,272.06696 C 239.53411,270.03573 238.45375,266.62946 238.45375,266.62946 C 238.45376,266.62946 242.57429,267.54018 245.9225,267.00446 C 249.27074,266.46876 251.86,264.47321 251.86,264.47321 C 251.85998,264.47321 259.64161,268.94294 264.51625,262.16071 C 269.49436,255.23447 266.6725,250.28571 266.6725,250.28571 L 264.36,238.16071 C 264.35998,238.16071 266.98053,234.37946 265.7975,231.41071 C 264.61448,228.44197 259.64125,226.28571 259.64125,226.28571 C 259.64126,226.28571 263.04355,220.1905 262.0475,216.47321 C 260.85629,212.02743 255.1725,211.53571 255.1725,211.53571 C 255.17252,211.53571 256.23299,203.63329 254.6725,200.44196 C 253.27512,197.58417 245.89125,198.31696 245.89125,198.31696 C 245.89126,198.31694 247.25346,191.4156 244.45375,188.56696 C 241.65407,185.71833 234.6725,186.94196 234.6725,186.94196 C 234.67253,186.94197 234.31208,181.02358 231.735,179.53571 C 229.19613,178.06988 221.7975,179.53571 221.7975,179.53571 C 221.79747,179.5357 219.13321,173.50446 213.7975,173.50446 C 208.5782,173.50445 206.76625,177.28571 206.76625,177.28571 C 206.76626,177.28571 205.38094,175.47955 203.2975,174.84821 C 201.21404,174.21688 198.45375,174.75446 198.45375,174.75446 C 198.45374,174.75447 198.943,166.67628 196.45375,164.78571 C 193.95996,162.89167 186.07875,163.87946 186.07875,163.87946 C 186.07876,163.87946 185.55698,157.53955 180.26625,155.19196 C 176.81658,153.66131 173.11,156.12946 173.11,156.12946 C 173.10998,156.12944 170.42155,150.46408 166.0475,149.50446 C 162.28888,148.67985 158.82875,151.97321 158.82875,151.97321 C 158.82872,151.9732 157.11893,148.73661 154.485,147.75446 C 151.85105,146.77231 148.2975,148.06696 148.2975,148.06696 C 148.29752,148.06697 147.50286,145.95982 145.985,145.06696 C 144.46718,144.1741 142.20375,144.47321 142.20375,144.47321 L 142.20375,137.47321 L 148.2975,137.47321 L 148.2975,131.34821 L 142.26625,131.34821 L 142.26625,125.37946 L 135.20375,125.37946 z M 125.235,152.44196 C 126.14432,152.37758 127.10541,152.57716 127.95375,153.06696 C 130.21597,154.37306 130.9786,157.24223 129.6725,159.50446 C 128.36642,161.7667 125.46597,162.56054 123.20375,161.25446 C 120.94153,159.94835 120.17888,157.04792 121.485,154.78571 C 122.30132,153.37181 123.71945,152.54925 125.235,152.44196 z M 151.36,152.44196 C 152.26932,152.37758 153.19916,152.57716 154.0475,153.06696 C 156.30972,154.37305 157.1036,157.24223 155.7975,159.50446 C 154.49143,161.76669 151.59097,162.56054 149.32875,161.25446 C 147.06653,159.94837 146.27263,157.04792 147.57875,154.78571 C 148.39507,153.37182 149.84445,152.54925 151.36,152.44196 z M 112.235,154.31696 C 113.14433,154.25258 114.07416,154.45216 114.9225,154.94196 C 117.18471,156.24806 117.9786,159.14848 116.6725,161.41071 C 115.36641,163.67295 112.46597,164.43554 110.20375,163.12946 C 107.94151,161.82335 107.14763,158.95417 108.45375,156.69196 C 109.27006,155.27806 110.71945,154.42425 112.235,154.31696 z M 164.5475,154.31696 C 165.45682,154.25258 166.41791,154.45216 167.26625,154.94196 C 169.52847,156.24805 170.2911,159.14848 168.985,161.41071 C 167.67892,163.67294 164.77847,164.43554 162.51625,163.12946 C 160.25403,161.82337 159.49138,158.95417 160.7975,156.69196 C 161.61382,155.27807 163.03195,154.42425 164.5475,154.31696 z M 98.86,159.12946 C 99.769317,159.06508 100.69916,159.26466 101.5475,159.75446 C 103.80971,161.06055 104.57235,163.96098 103.26625,166.22321 C 101.96016,168.48545 99.09097,169.24803 96.82875,167.94196 C 94.566517,166.63587 93.77263,163.73541 95.07875,161.47321 C 95.895057,160.05931 97.34445,159.23675 98.86,159.12946 z M 177.64125,159.12946 C 178.55057,159.06508 179.48041,159.26466 180.32875,159.75446 C 182.59098,161.06055 183.3536,163.96098 182.0475,166.22321 C 180.74143,168.48545 177.84097,169.24805 175.57875,167.94196 C 173.31653,166.63586 172.55388,163.73542 173.86,161.47321 C 174.67632,160.05932 176.1257,159.23675 177.64125,159.12946 z M 138.39125,164.53571 C 139.30057,164.47133 140.23043,164.6709 141.07875,165.16071 C 143.34098,166.46681 144.13487,169.36722 142.82875,171.62946 C 141.52269,173.8917 138.62224,174.65428 136.36,173.34821 C 134.09779,172.0421 133.3039,169.17291 134.61,166.91071 C 135.42632,165.49682 136.87572,164.64299 138.39125,164.53571 z M 86.485,167.37946 C 87.394317,167.31508 88.32416,167.51466 89.1725,168.00446 C 91.434727,169.31054 92.19735,172.21098 90.89125,174.47321 C 89.585177,176.73543 86.71597,177.49804 84.45375,176.19196 C 82.191511,174.88586 81.39763,171.98542 82.70375,169.72321 C 83.520071,168.30931 84.96945,167.48675 86.485,167.37946 z M 189.95375,167.37946 C 190.86307,167.31508 191.79291,167.51466 192.64125,168.00446 C 194.90346,169.31054 195.69735,172.21098 194.39125,174.47321 C 193.08517,176.73543 190.18472,177.49804 187.9225,176.19196 C 185.66027,174.88586 184.86638,171.98542 186.1725,169.72321 C 186.98881,168.30931 188.4382,167.48675 189.95375,167.37946 z M 146.82875,168.69196 C 150.65391,168.63621 166.79971,169.08335 180.36,179.72321 C 195.86034,191.88531 198.48501,214.28572 198.485,214.28571 C 198.485,214.28571 196.7484,214.7991 195.45375,216.00446 C 194.15911,217.20982 193.32878,219.09821 193.32875,219.09821 C 193.32875,219.09821 183.79751,218.68727 183.7975,229.28571 C 183.7975,236.0967 192.42252,238.72321 192.4225,238.72321 C 192.4225,238.72321 188.35748,243.35016 184.5475,243.28571 C 180.41527,243.21805 176.17252,235.69196 176.1725,235.69196 C 176.1725,235.69196 181.55249,222.53571 169.20375,222.53571 C 158.96032,222.53571 160.98501,234.97321 160.985,234.97321 C 160.985,234.97321 157.01253,239.49202 152.70375,239.28571 C 146.72235,238.9972 145.45378,231.59821 145.45375,231.59821 C 145.45375,231.59821 156.26626,232.36849 156.26625,223.69196 C 156.26625,214.95094 148.48501,213.56695 148.485,213.56696 C 148.485,213.56696 148.88233,210.44196 147.14125,208.56696 C 145.40018,206.69196 141.51626,206.06695 141.51625,206.06696 C 141.51625,206.06696 145.20867,204.04139 145.95375,201.09821 C 146.72034,198.07015 145.11003,194.44196 145.11,194.44196 L 145.11,188.56696 C 145.11,188.56696 146.51628,186.50894 146.51625,184.41071 C 146.51625,182.3125 145.11003,180.1607 145.11,180.16071 L 145.11,174.09821 C 145.14317,173.99871 145.78584,171.96661 145.985,171.22321 C 146.21879,170.35072 145.98502,168.72321 145.985,168.72321 C 145.985,168.72321 146.2823,168.69992 146.82875,168.69196 z M 128.61,168.72321 C 129.44397,168.69668 130.13201,168.71571 130.61,168.72321 C 131.15628,168.73178 131.45377,168.72321 131.45375,168.72321 C 131.45374,168.72321 131.21998,170.35072 131.45375,171.22321 C 131.65293,171.96661 132.2956,173.99871 132.32875,174.09821 L 132.32875,180.16071 C 132.32876,180.1607 130.92252,182.3125 130.9225,184.41071 C 130.92249,186.50894 132.32877,188.56696 132.32875,188.56696 L 132.32875,194.44196 C 132.32876,194.44196 130.71843,198.07015 131.485,201.09821 C 132.2301,204.04139 135.89127,206.06696 135.89125,206.06696 C 135.89125,206.06695 132.03859,206.69196 130.2975,208.56696 C 128.55643,210.44196 128.95377,213.56696 128.95375,213.56696 C 128.95376,213.56695 121.17252,214.95094 121.1725,223.69196 C 121.17251,232.36849 131.98502,231.59821 131.985,231.59821 C 131.98501,231.59821 130.71642,238.9972 124.735,239.28571 C 120.42624,239.49202 116.45377,234.97321 116.45375,234.97321 C 116.45376,234.97321 118.47845,222.53571 108.235,222.53571 C 95.886277,222.53571 101.26627,235.69196 101.26625,235.69196 C 101.26625,235.69196 97.0235,243.21805 92.89125,243.28571 C 89.081277,243.35016 85.01627,238.72321 85.01625,238.72321 C 85.016251,238.72321 93.64127,236.0967 93.64125,229.28571 C 93.641257,218.68727 84.11002,219.09821 84.11,219.09821 C 84.109991,219.09821 83.27966,217.20982 81.985,216.00446 C 80.690371,214.7991 78.95377,214.28571 78.95375,214.28571 C 78.953761,214.28572 81.57843,191.88531 97.07875,179.72321 C 108.94401,170.41333 122.77223,168.90889 128.61,168.72321 z M 63.61,177.34821 C 64.519331,177.28383 65.48041,177.48341 66.32875,177.97321 C 68.590981,179.27929 69.3536,182.17973 68.0475,184.44196 C 66.741411,186.7042 63.84097,187.49804 61.57875,186.19196 C 59.316511,184.88586 58.55388,181.98542 59.86,179.72321 C 60.676301,178.30931 62.09445,177.4555 63.61,177.34821 z M 213.0475,177.34821 C 213.95682,177.28383 214.91791,177.48341 215.76625,177.97321 C 218.02846,179.27929 218.7911,182.17973 217.485,184.44196 C 216.17892,186.7042 213.27847,187.49804 211.01625,186.19196 C 208.75402,184.88586 207.99138,181.98542 209.2975,179.72321 C 210.11381,178.30931 211.53195,177.4555 213.0475,177.34821 z M 76.76625,178.53571 C 77.675571,178.47133 78.60541,178.67091 79.45375,179.16071 C 81.715971,180.46679 82.4786,183.33598 81.1725,185.59821 C 79.866431,187.86043 76.96597,188.65429 74.70375,187.34821 C 72.441531,186.04211 71.67888,183.14167 72.985,180.87946 C 73.801321,179.46556 75.2507,178.643 76.76625,178.53571 z M 199.61,178.53571 C 200.51932,178.47133 201.44916,178.67091 202.2975,179.16071 C 204.55971,180.46679 205.3536,183.33598 204.0475,185.59821 C 202.74142,187.86043 199.84097,188.65429 197.57875,187.34821 C 195.31652,186.04211 194.55388,183.14167 195.86,180.87946 C 196.67631,179.46556 198.09445,178.643 199.61,178.53571 z M 138.39125,179.56696 C 139.30057,179.50258 140.23043,179.70215 141.07875,180.19196 C 143.34098,181.49804 144.13486,184.39847 142.82875,186.66071 C 141.52268,188.92295 138.62223,189.68553 136.36,188.37946 C 134.09778,187.07336 133.30391,184.17291 134.61,181.91071 C 135.42632,180.49681 136.87572,179.67424 138.39125,179.56696 z M 51.235,182.44196 C 52.144319,182.37758 53.10541,182.57716 53.95375,183.06696 C 56.215969,184.37304 56.9786,187.27348 55.6725,189.53571 C 54.366431,191.79793 51.46597,192.59179 49.20375,191.28571 C 46.941529,189.97961 46.17888,187.07917 47.485,184.81696 C 48.301319,183.40306 49.71945,182.54925 51.235,182.44196 z M 225.82875,182.44196 C 226.73805,182.37758 227.69923,182.57716 228.5475,183.06696 C 230.8097,184.37304 231.57237,187.27348 230.26625,189.53571 C 228.96015,191.79793 226.05973,192.59179 223.7975,191.28571 C 221.5353,189.97961 220.77267,187.07917 222.07875,184.81696 C 222.89505,183.40306 224.31317,182.54925 225.82875,182.44196 z M 70.39125,191.28571 C 71.300581,191.22133 72.23041,191.38966 73.07875,191.87946 C 75.340981,193.18555 76.1036,196.08598 74.7975,198.34821 C 73.491431,200.61043 70.59097,201.40429 68.32875,200.09821 C 66.066511,198.79212 65.30388,195.89167 66.61,193.62946 C 67.426301,192.21557 68.8757,191.393 70.39125,191.28571 z M 206.11,191.28571 C 207.01932,191.22133 207.94916,191.38966 208.7975,191.87946 C 211.05973,193.18555 211.82235,196.08598 210.51625,198.34821 C 209.21018,200.61043 206.30972,201.40429 204.0475,200.09821 C 201.78526,198.79212 201.02263,195.89167 202.32875,193.62946 C 203.14507,192.21557 204.59445,191.393 206.11,191.28571 z M 38.735,191.56696 C 39.644319,191.50258 40.60541,191.70216 41.45375,192.19196 C 43.715969,193.49806 44.4786,196.36723 43.1725,198.62946 C 41.866429,200.89169 38.96597,201.68554 36.70375,200.37946 C 34.44153,199.07335 33.67888,196.17292 34.985,193.91071 C 35.80132,192.49682 37.21945,191.67425 38.735,191.56696 z M 238.01625,191.56696 C 238.92555,191.50258 239.88673,191.70216 240.735,192.19196 C 242.9972,193.49804 243.75987,196.36724 242.45375,198.62946 C 241.14765,200.8917 238.24723,201.68554 235.985,200.37946 C 233.7228,199.07336 232.96017,196.17292 234.26625,193.91071 C 235.08255,192.49681 236.50067,191.67425 238.01625,191.56696 z M 138.39125,194.19196 C 139.30057,194.12758 140.23043,194.32715 141.07875,194.81696 C 143.34098,196.12304 144.13486,198.99222 142.82875,201.25446 C 141.52268,203.5167 138.62224,204.31053 136.36,203.00446 C 134.09778,201.69836 133.30391,198.79791 134.61,196.53571 C 135.42632,195.12181 136.87572,194.29924 138.39125,194.19196 z M 62.1725,195.19196 C 62.172501,195.19196 62.16471,197.76228 62.9225,199.53571 C 63.680311,201.30914 65.20377,202.28571 65.20375,202.28571 C 65.203741,202.2857 58.51627,206.33254 58.51625,210.41071 C 58.516261,216.31762 64.32877,218.94196 64.32875,218.94196 L 64.32875,223.22321 C 64.328761,223.22321 57.22609,226.34687 59.45375,234.66071 C 62.390021,245.61904 72.29752,241.16071 72.2975,241.16071 C 72.297501,241.1607 71.78289,248.57309 65.39125,250.28571 C 59.756511,251.79554 57.14127,244.94196 57.14125,244.94196 C 57.141251,244.94195 52.03035,235.96326 44.9225,240.06696 C 35.918029,245.26569 43.23502,253.28571 43.235,253.28571 C 43.234989,253.28572 41.73613,259.04666 38.51625,261.06696 C 35.296379,263.08728 31.36002,261.37946 31.36,261.37946 C 31.35999,261.37945 35.76626,258.4063 35.76625,252.66071 C 35.76624,248.1777 31.11002,243.44196 31.11,243.44196 C 31.10999,243.44195 30.00072,227.62565 37.76625,215.56696 C 45.53179,203.50825 62.17252,195.19196 62.1725,195.19196 z M 215.2975,195.19196 C 215.2975,195.19196 231.93823,203.50825 239.70375,215.56696 C 247.4693,227.62565 246.36003,243.44195 246.36,243.44196 C 246.36,243.44196 241.26628,248.1777 241.26625,252.66071 C 241.26625,258.4063 246.11002,261.37945 246.11,261.37946 C 246.11,261.37946 242.17363,263.08728 238.95375,261.06696 C 235.73389,259.04666 234.23502,253.28572 234.235,253.28571 C 234.235,253.28571 241.58324,245.26569 232.57875,240.06696 C 225.47092,235.96326 220.36001,244.94195 220.36,244.94196 C 220.36,244.94196 217.74476,251.79555 212.11,250.28571 C 205.71838,248.57308 205.20376,241.1607 205.20375,241.16071 C 205.20375,241.16071 215.11125,245.61904 218.0475,234.66071 C 220.27518,226.34687 213.17251,223.22321 213.1725,223.22321 L 213.1725,218.94196 C 213.1725,218.94196 218.95376,216.31762 218.95375,210.41071 C 218.95375,206.33254 212.26628,202.2857 212.26625,202.28571 C 212.26625,202.28571 213.91469,200.62165 214.6725,198.84821 C 215.43031,197.07477 215.29752,195.19196 215.2975,195.19196 z M 29.26625,202.22321 C 30.17557,202.15883 31.13666,202.35841 31.985,202.84821 C 34.24723,204.15431 35.00985,207.05473 33.70375,209.31696 C 32.39768,211.5792 29.49722,212.3418 27.235,211.03571 C 24.97276,209.72963 24.21013,206.82917 25.51625,204.56696 C 26.33257,203.15307 27.7507,202.3305 29.26625,202.22321 z M 247.735,202.22321 C 248.6443,202.15883 249.57423,202.35841 250.4225,202.84821 C 252.6847,204.1543 253.44737,207.05473 252.14125,209.31696 C 250.83515,211.57919 247.93473,212.34179 245.6725,211.03571 C 243.4103,209.72962 242.64767,206.82917 243.95375,204.56696 C 244.77005,203.15307 246.21953,202.3305 247.735,202.22321 z M 67.1725,206.00446 C 68.081821,205.94008 69.01166,206.13966 69.86,206.62946 C 72.122221,207.93556 72.88485,210.83598 71.57875,213.09821 C 70.272671,215.36045 67.37222,216.12305 65.11,214.81696 C 62.847781,213.51085 62.08513,210.64167 63.39125,208.37946 C 64.207571,206.96556 65.65695,206.11175 67.1725,206.00446 z M 209.95375,206.00446 C 210.86307,205.94008 211.79291,206.13966 212.64125,206.62946 C 214.90346,207.93554 215.69735,210.83599 214.39125,213.09821 C 213.08517,215.36046 210.18472,216.12304 207.9225,214.81696 C 205.66027,213.51086 204.86638,210.64167 206.1725,208.37946 C 206.98881,206.96556 208.4382,206.11175 209.95375,206.00446 z M 138.1725,212.22321 C 139.71659,212.11389 141.29449,212.454 142.735,213.28571 C 146.57639,215.50355 147.89036,220.41304 145.6725,224.25446 C 143.45468,228.09588 138.54517,229.40978 134.70375,227.19196 C 130.86232,224.97413 129.54842,220.06459 131.76625,216.22321 C 133.1524,213.82234 135.59902,212.40539 138.1725,212.22321 z M 23.20375,215.47321 C 24.11308,215.40883 25.07416,215.60841 25.9225,216.09821 C 28.18473,217.40431 28.94735,220.30473 27.64125,222.56696 C 26.33518,224.8292 23.43472,225.62304 21.1725,224.31696 C 18.91026,223.01085 18.14763,220.11042 19.45375,217.84821 C 20.27005,216.43431 21.6882,215.58049 23.20375,215.47321 z M 254.0475,215.47321 C 254.9568,215.40883 255.88673,215.60841 256.735,216.09821 C 258.9973,217.40431 259.75987,220.30473 258.45375,222.56696 C 257.14765,224.8292 254.27847,225.62304 252.01625,224.31696 C 249.75405,223.01085 248.96017,220.11042 250.26625,217.84821 C 251.08255,216.43431 252.53203,215.58049 254.0475,215.47321 z M 75.01625,219.66071 C 76.560341,219.55139 78.13823,219.89151 79.57875,220.72321 C 83.420161,222.94105 84.76536,227.88181 82.5475,231.72321 C 80.329671,235.56463 75.38892,236.87855 71.5475,234.66071 C 67.706101,232.44289 66.39217,227.5021 68.61,223.66071 C 69.996141,221.25983 72.44277,219.8429 75.01625,219.66071 z M 201.2975,219.66071 C 202.84159,219.55139 204.41949,219.89151 205.86,220.72321 C 209.70141,222.94102 211.01536,227.88181 208.7975,231.72321 C 206.57968,235.56462 201.67017,236.87855 197.82875,234.66071 C 193.98736,232.44289 192.67342,227.5021 194.89125,223.66071 C 196.2774,221.25983 198.72402,219.8429 201.2975,219.66071 z M 19.6725,229.94196 C 20.58182,229.87758 21.54291,230.07716 22.39125,230.56696 C 24.65347,231.87305 25.4161,234.77348 24.11,237.03571 C 22.80393,239.29793 19.90348,240.06054 17.64125,238.75446 C 15.37902,237.44837 14.61639,234.54792 15.9225,232.28571 C 16.73881,230.87182 18.15695,230.04925 19.6725,229.94196 z M 257.07875,229.94196 C 257.98805,229.87758 258.91787,230.07716 259.76625,230.56696 C 262.02845,231.87306 262.79113,234.77348 261.485,237.03571 C 260.179,239.29794 257.27847,240.06054 255.01625,238.75446 C 252.75395,237.44834 251.99143,234.54792 253.2975,232.28571 C 254.1138,230.87182 255.56317,230.04925 257.07875,229.94196 z M 138.51625,232.78571 C 138.51625,232.78571 139.43179,236.20183 141.5475,239.09821 C 143.66322,241.99457 146.98501,244.37949 146.985,244.37946 L 130.0475,244.37946 C 130.0475,244.37946 132.80681,241.99455 134.9225,239.09821 C 137.03822,236.20185 138.51628,232.78572 138.51625,232.78571 z M 111.39125,239.66071 C 111.39125,239.66071 112.54557,241.08606 114.39125,242.37946 C 116.23693,243.67286 118.42247,244.7232 118.4225,244.72321 L 99.95375,246.81696 C 99.95375,246.81696 102.17719,245.30725 104.2975,243.44196 C 105.99531,241.94832 106.29749,240.09821 106.2975,240.09821 L 111.39125,239.66071 z M 165.4225,239.66071 L 170.5475,240.09821 C 170.5475,240.09821 170.88093,241.94831 172.57875,243.44196 C 174.69906,245.30726 176.86,246.81695 176.86,246.81696 L 158.39125,244.72321 C 158.39127,244.72321 160.63931,243.67286 162.485,242.37946 C 164.33068,241.08606 165.4225,239.66072 165.4225,239.66071 z M 78.7975,240.50446 C 78.7975,240.50446 80.601646,243.56955 83.39125,245.81696 C 86.180864,248.06436 89.984972,249.50446 89.985,249.50446 L 73.61,253.91071 C 73.61,253.91071 75.656128,250.88365 76.95375,247.53571 C 78.251388,244.18777 78.797489,240.50447 78.7975,240.50446 z M 198.20375,240.50446 C 198.20376,240.50446 198.78111,244.18778 200.07875,247.53571 C 201.37638,250.88364 203.39126,253.91072 203.39125,253.91071 L 187.0475,249.50446 C 187.04753,249.50445 190.85163,248.06437 193.64125,245.81696 C 196.43084,243.56954 198.20376,240.50447 198.20375,240.50446 z M 21.235,246.16071 C 22.53041,246.19413 23.84707,246.56138 25.0475,247.25446 C 28.88891,249.47229 30.20286,254.3818 27.985,258.22321 C 25.76717,262.06461 20.85766,263.37854 17.01625,261.16071 C 13.17485,258.94287 11.86091,254.03335 14.07875,250.19196 C 15.60351,247.55099 18.38511,246.08718 21.235,246.16071 z M 256.61,246.16071 C 257.9054,246.19413 259.22213,246.56138 260.4225,247.25446 C 264.2639,249.4723 265.57793,254.3818 263.36,258.22321 C 261.1422,262.06462 256.20143,263.37855 252.36,261.16071 C 248.5186,258.94288 247.20473,254.03335 249.4225,250.19196 C 250.9473,247.55099 253.76013,246.08718 256.61,246.16071 z M 54.985,253.81696 C 54.985,253.81696 56.448794,254.90758 58.5475,255.72321 C 60.646176,256.53882 63.016269,257.03568 63.01625,257.03571 L 45.61,263.47321 C 45.61,263.47321 47.335283,261.47891 48.95375,259.16071 C 50.249717,257.30442 50.14125,255.44195 50.14125,255.44196 L 54.985,253.81696 z M 222.4225,253.81696 L 227.2975,255.44196 C 227.2975,255.44195 227.15779,257.30443 228.45375,259.16071 C 230.07221,261.4789 231.86001,263.4732 231.86,263.47321 L 214.4225,257.03571 C 214.4225,257.03569 216.79257,256.53881 218.89125,255.72321 C 220.98991,254.90759 222.4225,253.81695 222.4225,253.81696 z M 111.4225,262.22321 C 114.1364,262.2232 116.32875,264.44682 116.32875,267.16071 C 116.32875,269.87461 114.13639,272.06696 111.4225,272.06696 C 108.70863,272.06696 106.51625,269.8746 106.51625,267.16071 C 106.51625,264.44683 108.70861,262.22321 111.4225,262.22321 z M 164.20375,262.22321 C 166.91765,262.2232 169.11001,264.44682 169.11,267.16071 C 169.11,269.87461 166.91765,272.06696 164.20375,272.06696 C 161.48988,272.06696 159.26626,269.8746 159.26625,267.16071 C 159.26625,264.44683 161.48987,262.22321 164.20375,262.22321 z M 60.985,276.28571 C 63.69887,276.28572 65.891252,278.47807 65.89125,281.19196 C 65.89125,283.90585 63.698892,286.09821 60.985,286.09821 C 58.2711,286.0982 56.078752,283.90585 56.07875,281.19196 C 56.07875,278.47807 58.271112,276.28571 60.985,276.28571 z M 215.07875,276.28571 C 217.79263,276.28572 220.01626,278.47807 220.01625,281.19196 C 220.01626,283.90585 217.79265,286.09821 215.07875,286.09821 C 212.36486,286.0982 210.17251,283.90585 210.1725,281.19196 C 210.17251,278.47807 212.36487,276.28571 215.07875,276.28571 z " transform="translate(1005.84, 117.896)" style="fill: rgb(250, 188, 1); fill-opacity: 1; fill-rule: evenodd; stroke: rgb(23, 57, 128); stroke-width: 1.5; stroke-linecap: butt; stroke-linejoin: miter; stroke-miterlimit: 4; stroke-dasharray: none; stroke-opacity: 1;" id="path9070"/>
            <g transform="translate(768.193, -12.5386)" id="g18995">
              <g transform="translate(181.103, -22.2439)" id="g18983">
                <rect width="16.077705" height="16.077705" x="682.95532" y="473.81204" transform="matrix(0.934143, 0.356899, -0.934143, 0.356899, 0, 0)" style="opacity: 1; fill: rgb(225, 35, 59); fill-opacity: 1; fill-rule: nonzero; stroke: rgb(23, 57, 128); stroke-width: 1.50017; stroke-miterlimit: 4; stroke-dasharray: none; stroke-dashoffset: 50; stroke-opacity: 1;" id="rect13628"/>
                <rect width="16.077711" height="16.077703" x="664.46637" y="290.62399" transform="matrix(0.809941, 0.586512, -0.994685, 0.102964, 0, 0)" style="opacity: 1; fill: rgb(23, 57, 128); fill-opacity: 1; fill-rule: nonzero; stroke: rgb(23, 57, 128); stroke-width: 1.50017; stroke-miterlimit: 4; stroke-dasharray: none; stroke-dashoffset: 50; stroke-opacity: 1;" id="rect13630"/>
                <rect width="16.077723" height="16.0777" x="604.15857" y="634.1543" transform="matrix(-0.809941, 0.586512, 0.994685, 0.102964, 0, 0)" style="opacity: 1; fill: rgb(23, 57, 128); fill-opacity: 1; fill-rule: nonzero; stroke: rgb(23, 57, 128); stroke-width: 1.50017; stroke-miterlimit: 4; stroke-dasharray: none; stroke-dashoffset: 50; stroke-opacity: 1;" id="rect13632"/>
              </g>
              <path d="M 287.17456,414.59808 L 283.39331,418.41058 L 287.17456,422.19183 L 290.95581,418.41058 L 287.17456,414.59808 z M 465.58081,414.59808 L 461.76831,418.41058 L 465.58081,422.19183 L 469.36206,418.41058 L 465.58081,414.59808 z " style="opacity: 1; fill: rgb(225, 35, 59); fill-opacity: 1; fill-rule: nonzero; stroke: rgb(23, 57, 128); stroke-width: 1.5; stroke-miterlimit: 4; stroke-dasharray: none; stroke-dashoffset: 50; stroke-opacity: 1;" id="rect18089"/>
            </g>
            <path d="M 45.18032,277.51404 C 90.210607,251.44462 180.09753,247.227 232.413,277.51404" transform="translate(1005.84, 117.896)" style="fill: none; fill-rule: evenodd; stroke: rgb(23, 57, 128); stroke-width: 2.97714; stroke-linecap: butt; stroke-linejoin: miter; stroke-miterlimit: 4; stroke-dasharray: none; stroke-opacity: 1;" id="path19046"/>
            <g transform="translate(-28.2843, 52.5279)" id="g21727">
              <path d="M 1172.8705,346.54018 C 1067.1475,346.54018 981.33928,432.34839 981.33929,538.07143 C 981.33929,643.79444 1067.1476,729.60268 1172.8705,729.60268 C 1278.5935,729.60268 1364.3705,643.79441 1364.3705,538.07143 C 1364.3705,432.34842 1278.5936,346.54018 1172.8705,346.54018 z M 1172.8705,371.35268 C 1264.8938,371.35267 1339.558,446.04813 1339.558,538.07143 C 1339.558,630.09472 1264.8938,704.79018 1172.8705,704.79018 C 1080.8472,704.79018 1006.1518,630.09473 1006.1518,538.07143 C 1006.1518,446.04813 1080.8472,371.35268 1172.8705,371.35268 z " style="opacity: 1; fill: rgb(250, 188, 1); fill-opacity: 1; fill-rule: nonzero; stroke: rgb(23, 57, 128); stroke-width: 3; stroke-miterlimit: 4; stroke-dasharray: none; stroke-dashoffset: 50; stroke-opacity: 1;" id="path20831"/>
              <g transform="matrix(0.993734, 0, 0, 0.993734, 1451.33, -101.263)" id="g21723">
                <path d="M -414.38571,590.80932 L -216.87698,791.86763 C -216.87698,791.86763 -189.67374,778.38734 -171.41881,762.28747 C -153.16377,746.18759 -144.61766,726.96103 -144.61766,726.96103 L -357.84599,511.95795 L -414.38571,590.80932 z " style="fill: rgb(23, 57, 128); fill-opacity: 1; fill-rule: evenodd; stroke: rgb(23, 57, 128); stroke-width: 1.00397px; stroke-linecap: butt; stroke-linejoin: miter; stroke-opacity: 1;" id="path20836"/>
                <path d="M -201.11156,505.54911 L -238.83036,543.26786 C -248.99666,539.35175 -259.51756,537.03511 -270.08036,536.26786 C -271.25776,536.18235 -272.46546,536.09659 -273.64286,536.04911 C -290.10406,535.38558 -306.49296,538.47454 -321.51786,544.95536 L -360.36156,506.11161 C -383.59766,519.60655 -403.72146,539.15598 -418.11156,564.08036 C -452.45516,623.56515 -444.00016,696.04759 -402.33036,745.86161 L -380.70536,723.89286 C -431.72876,676.12651 -419.15206,587.60929 -362.64286,539.26786 L -344.39286,558.36161 C -353.31506,565.21414 -361.28986,573.57367 -367.86156,583.36161 C -400.46436,631.92039 -386.60626,697.32277 -336.92406,729.36161 C -327.47596,735.45449 -317.40986,739.89127 -307.08036,742.76786 L -307.08036,771.54911 L -284.98656,771.54911 L -284.98656,746.51786 C -251.42196,748.73362 -217.67236,735.49631 -195.17406,709.04911 L -213.20536,689.14286 C -230.41966,711.55418 -257.89906,722.61667 -284.98656,720.23661 L -284.98656,698.58036 L -253.42416,698.58036 L -253.42416,679.39286 L -284.98656,679.39286 L -284.98656,660.20536 L -253.42416,660.20536 L -253.42416,644.01786 L -307.08036,644.01786 L -307.08036,715.14286 C -312.29636,713.14862 -317.37226,710.62349 -322.23656,707.48661 C -359.55926,683.41808 -369.97876,634.27781 -345.48656,597.79911 C -340.10216,589.77953 -333.47076,583.03179 -326.01786,577.64286 L -281.33036,624.45536 L -234.04906,574.95536 L -233.48656,575.29911 C -222.71326,582.24661 -214.17656,591.29724 -208.08036,601.51786 L -187.79906,583.86161 C -194.97946,573.09198 -204.28956,563.47225 -215.58036,555.61161 L -199.95536,539.26786 C -143.48796,587.57353 -130.87626,676.00785 -181.76786,723.79911 L -158.86156,746.70536 C -152.77796,739.52451 -147.23266,731.70479 -142.36156,723.26786 C -98.421657,647.16177 -124.53676,549.73903 -200.64286,505.79911 C -200.79646,505.71044 -200.95786,505.63721 -201.11156,505.54911 z M -277.33036,562.20536 C -275.56286,562.21976 -273.81816,562.29561 -272.04906,562.42411 C -267.95386,562.72157 -263.85066,563.31651 -259.79916,564.23661 L -281.01786,585.45536 L -301.01786,565.45536 C -293.35516,563.23606 -285.36006,562.13996 -277.33036,562.20536 z " style="opacity: 1; fill: rgb(250, 188, 1); fill-opacity: 1; fill-rule: nonzero; stroke: rgb(23, 57, 128); stroke-width: 4; stroke-miterlimit: 4; stroke-dasharray: none; stroke-dashoffset: 50; stroke-opacity: 1;" id="path1945"/>
              </g>
            </g>
          </g>
        </g>
      </g>
    </g>
  </g>
</svg>