<?xml version="1.0" encoding="iso-8859-1"?><!-- Generator: Adobe Illustrator 16.0.0, SVG Export Plug-In . SVG Version: 6.00 Build 0) --><!DOCTYPE svg PUBLIC "-//W3C//DTD SVG 1.1//EN" "http://www.w3.org/Graphics/SVG/1.1/DTD/svg11.dtd"><svg version="1.1" id="Layer_1" xmlns="http://www.w3.org/2000/svg" xmlns:xlink="http://www.w3.org/1999/xlink" x="0px" y="0px" width="164.672px" height="212.593px" viewBox="0 0 164.672 212.593" style="enable-background:new 0 0 164.672 212.593;" xml:space="preserve"><path d="M162.213,41.742c-4.612-1.245-8.714-2.563-12.375-3.882C123.327,29.072,100.918,16.477,82.39,0	C61.885,18.308,36.474,31.856,6.083,40.79l-3.515,0.953c-3.808,22.629-3.369,44.085,1.245,64.298l2.27,9.007	c6.664,22.849,18.821,44.013,36.47,63.273l7.25,7.617c9.3,9.154,20.139,18.015,32.588,26.656	c12.303-8.569,23.215-17.43,32.588-26.656l7.25-7.617c11.572-12.595,20.799-25.997,27.609-40.132	c5.052-10.398,8.788-21.09,11.131-32.148C165.436,86.047,165.875,64.59,162.213,41.742z"/><g><path style="fill:#D35D2C;" d="M7.328,44.965l-0.732,0.292C3.373,66.861,4.032,87.073,8.426,106.04h147.929	c4.394-18.967,5.053-39.179,1.831-60.783l-9.812-3.076c-25.705-8.567-47.821-20.651-65.982-36.25	C61.812,23.361,36.84,36.396,7.328,44.965z"/></g><g><g><path style="fill:#793022;" d="M8.426,106.04l1.904,7.762c6.958,23.653,19.773,45.111,38.374,64.518l7.616,7.617	c7.909,7.323,16.551,14.426,26.071,21.164c9.228-6.445,17.942-13.548,26.071-21.164l7.689-7.617	c12.669-13.328,22.483-27.316,29.585-42.035c4.76-9.887,8.276-19.992,10.619-30.245H8.426z"/></g></g><path style="fill:#D35D2C;" d="M110.584,145.438c1.025-0.66,2.051-1.538,2.929-2.416c2.929-2.929,4.394-6.372,4.394-10.4v-3.88	c0-4.028-1.465-7.471-4.394-10.327c-2.856-2.929-6.371-4.394-10.398-4.394H82.171v17.063h-5.054v-17.063H63.13	c-5.492,0-10.252,2.051-14.134,6.006c-4.028,3.88-5.932,8.567-5.932,14.133v20.798h5.712v-9.447h16.772	c0.281,0.405,0.591,0.798,0.95,1.173c1.098,0.951,2.197,1.684,3.369,2.123l1.538,0.73v5.421h5.711v-2.706l5.054,2.402v0.304h0.643	l10.635,5.053c0.147,0.221,0.22,0.293,0.293,0.439c0.732,0.733,1.172,1.685,1.172,2.783v0.073c0,1.171-0.44,2.124-1.172,2.856	c-0.806,0.805-1.758,1.171-2.93,1.171H64.229v4.76h26.73c2.489,0,4.613-0.952,6.443-2.708c1.686-1.758,2.563-3.882,2.563-6.372	v-0.073c0-2.49-0.877-4.614-2.563-6.371c-1.024-1.025-2.123-1.758-3.441-2.197l-6.079-2.912v-5.95h14.72l9.374,9.447h8.128	L110.584,145.438z M68.989,139.946v-0.073c0-1.171,0.366-2.124,1.172-2.929c0.381-0.347,0.798-0.621,1.245-0.821v5.508h-2.028	C69.125,141.091,68.989,140.532,68.989,139.946z M48.776,141.631v-7.471c0-3.954,1.392-7.323,4.174-10.178	c2.856-2.784,6.225-4.175,10.18-4.175h8.275v11.405c-1.859,0.296-3.521,1.138-4.907,2.582c-1.758,1.685-2.563,3.809-2.563,6.299	v0.146c0,0.473,0.041,0.935,0.104,1.392H48.776z M77.117,146.304v-10.532h5.054v12.952L77.117,146.304z M106.338,141.117	c-1.099,0.366-2.125,0.514-3.222,0.514H87.882v-5.859h8.569v-4.687h-8.569v-11.278h15.233c2.49,0,4.687,0.88,6.518,2.636	c1.684,1.685,2.563,3.809,2.563,6.299v3.88c0,2.49-0.879,4.614-2.563,6.372C108.387,140.093,107.362,140.751,106.338,141.117z"/><path d="M128.526,103.403c0.147-0.146,0.22-0.292,0.366-0.439c0.806-4.906,1.905-8.641,3.369-11.424	c1.172-1.611,0-4.833-3.515-9.667c-1.171-2.782-2.27-5.346-3.15-7.542c-0.219-4.907-0.878-9.813-1.977-14.72	c-1.685-4.467-4.98-7.03-9.959-7.763c-0.659-0.293-1.318-0.585-1.978-0.806c-2.709-0.951-5.858-1.244-9.373-0.878	c-9.887,0.512-19.993,0.586-30.392,0.146c-0.806-0.292-1.611-0.439-2.417-0.439c-1.172-0.146-2.343-0.146-3.588,0	c-3.662,0.513-7.104,0.732-10.179,0.805c-3.442,0-6.518-0.219-9.154-0.805c0.146-2.49-0.732-4.394-2.636-5.858	c-0.147-0.073-0.22-0.146-0.367-0.22c-0.146,0.074-0.22,0.22-0.292,0.366c-1.099,1.465-1.685,3.149-1.758,4.907	c-2.197-0.22-4.248-0.147-6.079,0.293c-0.219-1.905-0.732-3.443-1.757-4.394c-0.659,0.732-1.392,1.538-1.977,2.416	c-0.879,1.319-1.465,2.784-1.685,4.321c0,1.245-0.073,2.563-0.146,3.882c-0.659,0.513-1.099,1.099-1.464,1.904	c0,0.439,0,0.878,0.073,1.318c0,1.391,0.439,2.71,1.245,3.881c0.366,0.073,0.659,0.293,0.951,0.805	c-0.146,0.514-0.439,0.879-0.805,1.246c0.732,1.317,1.978,1.904,3.735,1.684c1.098-0.146,4.028,0.293,9.008,1.246	c4.906,1.025,9.374,2.416,13.621,4.174c4.248,1.831,5.786,5.713,4.614,11.717c-0.073,10.106-1.098,15.672-3.222,16.771	c-1.319,0.585-2.344,1.61-2.856,3.002c-0.488,1.037-1.196,1.96-2.175,2.71h76.788C129.11,105.192,128.833,104.322,128.526,103.403z M82.683,80.335c-0.585,0.074-1.098,0.22-1.538,0.586c-0.439,0.366-0.878,0.806-1.171,1.392c-0.293,0.512-0.439,1.098-0.366,1.757	c0,0.512,0.073,1.025,0.146,1.465c-0.585,0.292-1.024,0.732-1.391,1.245c-0.219,0.512-0.585,1.025-1.025,1.392	c-0.732,0.219-1.025,0.658-0.953,1.391c0,0.366,0.074,0.659,0.074,0.879c0,0.585,0.146,1.098,0.513,1.464	c0.513,0.586,1.025,0.659,1.464,0.146c0.293-0.219,0.44-0.512,0.44-0.878c0.219,0,0.366-0.073,0.439-0.22	c0.073,0.293,0.073,0.586,0.073,0.879c0,0.659,0,1.317,0,1.977c-0.293,0-0.585,0.073-0.879,0.146	c-0.586,0.146-1.171,0.44-1.684,0.952c-0.293,0.293-0.513,0.66-0.732,1.245c-0.22,0.44-0.146,1.025,0.147,1.539	c0.366,0.512,0.585,0.878,0.805,1.099c1.245,1.098,1.831,2.416,1.977,3.954c-0.732,0-1.391,0-2.05,0	c-1.538-0.073-3.149-0.146-4.687-0.219c-1.098-0.146-2.197-0.146-3.295,0c-1.831,0.146-3.149-0.146-3.955-0.953	c0-8.788,1.831-17.062,5.419-24.899c0.952-0.292,1.611,0.147,1.977,1.246l1.172,1.684c0.439,0.22,1.025,0.147,1.684-0.073	l3.003-4.174c0.513-0.586,1.245-0.514,2.196,0.219c0.367,1.392,1.319,2.637,2.93,3.735C83.049,79.603,82.83,79.969,82.683,80.335z M92.204,102.598c-0.66,0-1.318,0-1.904,0c-0.513,0-1.026,0-1.465,0c-0.513,0-1.025,0-1.538,0c0.073-0.073,0.073-0.294,0.073-0.586	c-0.073-0.586-0.22-1.099-0.513-1.611c0.22,0.073,0.44,0.073,0.659,0.073c0.659-0.073,1.246-0.073,1.904-0.073	c0.513,0,1.172,0.073,1.757,0.22c0.22,0.219,0.514,0.439,0.732,0.659c0.44,0.366,0.806,0.806,1.099,1.318	C92.716,102.598,92.423,102.598,92.204,102.598z M99.747,88.977c0,0.146-0.074,0.293-0.074,0.512	c-0.22,0.148-0.44,0.293-0.879,0.367c-1.611,0.293-2.93,1.098-3.808,2.344c0.292,1.317,0.659,2.636,1.317,3.954	c0.586,1.318,0.732,2.783,0.366,4.32c-0.512-0.073-1.025-0.366-1.465-0.805c-0.146-0.439-0.585-0.952-1.244-1.538	c-1.171-1.025-2.344-1.758-3.516-2.343c-0.951,0-1.904,0-2.856,0c0-1.685,0.074-3.369,0.074-4.907c0-0.806,0-1.611,0-2.417	c1.537,0.146,3.002-0.074,4.394-0.586c0,0,0.073,0,0.073-0.073c0.293-0.073,0.512-0.293,0.66-0.586	c-0.074-0.293-0.221-0.659-0.367-1.025c-0.147-0.366-0.366-0.805-0.732-1.244c-0.366-0.513-0.586-0.953-0.806-1.319	c-0.22-0.439-0.44-0.732-0.586-0.878c-0.366-0.512-0.659-1.025-0.953-1.538c0-0.366-0.073-0.732-0.292-1.098	c-0.074-0.074-0.147-0.147-0.22-0.221c-0.513-0.219-0.805,0.073-0.953,0.879c-0.073-0.074-0.146-0.22-0.219-0.293	c-0.074,0.073-0.074,0.219-0.22,0.367c-0.146,0.366-0.22,0.805-0.293,1.317c0,0.732,0.367,1.099,1.026,1.246	c0,0.219,0,0.439,0,0.659c0.073,0.658,0.22,1.172,0.659,1.611c-0.439,0-0.879-0.073-1.245-0.293	c-0.366-0.219-0.806-0.293-1.318-0.293c0-0.219,0-0.513,0-0.732c0-0.659,0-1.245,0.073-1.831c0.073-0.585-0.073-0.951-0.44-1.245	c-0.438-0.293-0.878-0.586-1.318-0.806c-0.146-0.586-0.439-1.025-0.878-1.464c1.392-1.246,2.417-2.71,2.93-4.248	c0.366-0.952,1.025-1.025,2.05-0.293c0.733,1.538,1.758,2.783,3.003,3.588c0.805,0.073,1.537-0.073,2.05-0.585	c1.098-1.099,1.831-2.637,2.344-4.613c0.951,1.098,1.903,2.196,3.002,3.148c0.512,0.366,0.877,0.513,1.391,0.585	c0.073-0.146,0.146-0.146,0.292-0.146c0.074,0,0.147,0,0.22,0c-0.805,1.465-0.805,2.856,0.146,4.174	c-1.318,0.66-2.271,1.686-3.149,3.076c-0.073,0.292-0.366,0.513-0.586,0.659c-0.878-0.732-1.831-1.465-2.929-2.123	c0.22-1.025-0.146-1.465-1.025-1.465c-0.22,0.22-0.292,0.585-0.22,1.098c-1.611-0.219-2.27,0.22-1.977,1.318	c0.879,0.146,1.465,0.22,1.977,0.366c0.733,1.171,1.685,2.124,2.709,2.929c0.148,0.146,0.221,0.22,0.44,0.366	c0.439,0.293,0.952,0.513,1.538,0.659c0.585,0.146,1.172,0.22,1.904,0.146C99.82,88.024,99.82,88.464,99.747,88.977z M100.918,100.694c0-0.293-0.073-0.586-0.073-0.805c-0.147-1.464-0.22-3.003-0.22-4.468c1.245,0.367,2.491,0.44,3.882,0.147	c0,0.293,0,0.659-0.073,0.952c-0.22,1.611,0.073,3.076,0.513,4.174C103.481,100.474,102.163,100.474,100.918,100.694z M116.883,97.033c-0.074,0.146-0.074,0.366-0.147,0.585c-0.146,0.147-0.219,0.586-0.219,1.172c-0.806-0.147-1.464-0.147-2.123,0	c-1.758,0.366-2.637,1.317-2.857,3.002c-1.098-0.146-2.051-0.586-2.636-1.319c-0.221-0.585-0.293-1.244-0.221-1.903	c0.073-1.026,0.147-1.904,0.073-2.783c-0.073-1.757-0.585-3.149-1.61-4.102c0-0.732-0.073-1.465-0.22-2.124	c0.586-0.219,0.953-0.513,1.319-0.879c0.219-0.219,0.438-0.439,0.659-0.732c0.073-0.073,0.073-0.219,0.073-0.366	c0.073-0.367,0.146-0.586,0.146-0.952c0-0.146-0.073-0.292-0.146-0.366c0-0.366-0.073-0.585-0.22-0.879	c-0.146-0.293-0.219-0.512-0.292-0.806c0-0.22-0.074-0.438-0.146-0.659c-0.073-0.293-0.146-0.512-0.293-0.805	c-0.146-0.293-0.218-0.586-0.366-0.953c0-0.292,0-0.584,0.074-0.951c0.074-0.22,0.146-0.513,0.219-0.806	c0.073-0.219,0.073-0.366,0.146-0.513c4.613,3.662,7.543,7.104,8.641,10.253C117.249,92.565,117.249,94.835,116.883,97.033z M125.671,99.742c-0.513,0-0.952,0-1.318,0c-0.586,0-1.025,0.147-1.392,0.366c-1.026,0.806-1.538,1.685-1.538,2.784	c-1.319,0.293-2.197,0-2.49-0.732c-0.073-0.513-0.073-0.879,0.073-1.171c1.904-3.149,3.296-6.957,4.249-11.425	c-0.513-3.076-1.538-5.712-3.002-7.835c2.782,2.269,4.906,4.906,6.444,8.055C126.916,91.833,126.55,95.202,125.671,99.742z"/><path style="fill:#FFFFFF;" d="M44.383,45.038c-0.22-0.22-0.513-0.439-0.732-0.659c-0.439,0.659-0.806,1.319-1.098,1.977	c0.366,1.685,0.146,2.93-0.806,3.662c-0.659-0.147-1.318-0.293-1.978-0.367c0.147,0.879,0.732,1.391,1.611,1.465	c1.538,0.952,2.271,2.271,2.124,3.954c-0.073,0.586-0.439,0.88-1.025,0.953c0.732,0.952,1.025,2.197,0.878,3.808	c-0.073,0.732-0.293,1.392-0.659,2.051c-0.146,0.366-0.292,0.732-0.292,1.099c0.073,1.245,0.292,2.417,0.512,3.588	c0.367,0,0.586,0,0.806,0c0.073-0.073,0.22-0.147,0.439-0.293c-0.512-0.586-0.732-1.318-0.512-2.051	c0.659,0.22,1.318,0.439,1.977,0.586c-0.219-0.439-0.292-0.953-0.366-1.465c0-0.439,0-0.805,0-1.171	c1.245,0.659,2.49,1.391,3.735,2.05c-0.293-0.585-0.586-1.245-1.025-1.977c-0.732-1.171-0.586-2.197,0.513-3.002	c-0.293,1.098-0.147,1.977,0.585,2.782c0.293-0.732,0.366-1.465,0.146-2.343c-0.22-1.611-0.586-3.149-1.172-4.54	c0.513-0.513,0.952-0.879,1.391-0.952c-0.073,0.66,0,1.245,0,1.831c0.147,0.66,0.293,1.318,0.586,1.904	c0.073,1.831,0.366,3.295,0.805,4.541c0-0.44,0.22-0.879,0.659-1.172c0.659,0.074,1.025,0.221,1.245,0.586	c-0.293-0.879-0.586-1.903-0.952-2.856c0.439,0.293,0.952,0.513,1.538,0.586c0,1.318,0.439,2.197,1.465,2.782	c0.146-0.951-0.073-1.757-0.659-2.416c-0.659-0.806-0.878-1.686-0.659-2.637c0.366,0.146,0.732,0.292,1.025,0.512	c0.073-1.757-0.659-2.343-2.271-1.538c-0.292,0.219-0.585,0.512-0.805,0.878c-0.22,0.147-0.22,0.293-0.146,0.586	c-0.513,0.951-0.732,0.512-0.585-1.319c-0.586,0.073-0.879-0.073-0.879-0.585c1.025-0.513,1.098-1.245,0.22-2.05	c0-1.245,0.293-1.612,1.025-1.171c0.073,0.219,0.22,0.585,0.586,0.951c0.732-0.512,0.513-1.392-0.586-2.709	c-1.611-0.146-3.076-0.366-4.467-0.586c-1.465,0.953-2.197,0.732-2.271-0.805C44.163,47.967,44.236,46.429,44.383,45.038z M48.63,51.922c0.952,0.512,0.805,1.171-0.366,1.831c-0.366-0.366-0.512-0.732-0.512-1.246	C47.752,51.848,48.044,51.701,48.63,51.922z"/><path style="fill:#FFFFFF;" d="M35.522,54.485c-1.099,0.292-1.539,1.098-1.172,2.416c-1.172,0.806-1.025,1.246,0.439,1.391	c0.659,0.587,0.512,0.953-0.439,1.099c-0.146,0-0.293-0.073-0.439-0.146c-1.172-1.025-2.563-1.392-4.248-1.099	c0.806,1.171,1.757,2.197,2.71,3.002c0.073,0,0.146,0,0.146,0c1.171-0.22,2.343-0.293,3.441-0.146	c-0.659-0.292-0.878-0.806-0.805-1.464c0.073,0,0.073,0,0.146,0c0.513,0,0.952,0.146,1.318,0.44c0,0,0-0.074,0-0.147	c-0.073-0.659,0.073-1.245,0.586-1.757c0.073,0,0.073,0.074,0.146,0.074c0.806,0.512,1.464,1.245,1.904,2.05	c0.073,0,0.146,0.073,0.219,0.073c0.586,0.366,1.025,0.366,1.465-0.073v-0.073c-0.146-1.318-0.293-2.636-0.586-3.955	c0-0.439-0.073-0.732-0.293-1.099c-0.878-1.317-1.904-2.27-3.076-3.002c-0.732,0.878-1.245,1.685-1.318,2.417	C35.595,54.485,35.595,54.485,35.522,54.485z"/><path style="fill:#FFFFFF;" d="M35.009,49.504c-0.219-0.586-0.439-1.318-0.878-2.197c-0.147-0.293-0.292-0.585-0.439-0.878	c-1.245,1.025-1.977,2.197-2.417,3.588c0.732-0.293,1.684-0.44,2.783-0.22C34.35,49.651,34.643,49.577,35.009,49.504z"/><path style="fill:#FFFFFF;" d="M38.671,52.434c0.952,0.879,1.684,1.831,2.417,2.856c0,0.073,0.074,0.073,0.074,0.146	c0.732-1.977,0.073-3.002-1.904-3.002C39.037,52.434,38.891,52.434,38.671,52.434z"/><path style="fill:#FFFFFF;" d="M55.807,51.042c-0.586,0-1.098,0-1.685,0c-0.659,0-1.391,0-1.977-0.073	c0.366,1.319,1.099,1.538,2.124,0.586c-0.22-0.073-0.22-0.292-0.146-0.513c0.439,1.465,1.099,1.758,1.904,0.88	C55.954,51.701,55.88,51.408,55.807,51.042z"/><path style="fill:#FFFFFF;" d="M52.365,54.119c-0.732,0.439-0.879,0.878-0.366,1.391C53.024,56.022,53.098,55.51,52.365,54.119z"/><path style="fill:#FFFFFF;" d="M56.686,53.02c-0.586-0.074-1.025,0.073-1.392,0.512c0.219,0.366,0.366,0.513,0.439,0.586	C56.1,53.752,56.393,53.387,56.686,53.02z"/><path style="fill:#FFFFFF;" d="M56.173,51.555c-0.22,0.293-0.146,0.513,0.073,0.732C57.638,51.848,57.638,51.628,56.173,51.555z"/><path style="fill:#FFFFFF;" d="M53.244,53.387c-0.146,0.292,0.073,0.439,0.512,0.366c0.22,0,0.366-0.074,0.659-0.147	C53.977,52.361,53.61,52.288,53.244,53.387z"/><path style="fill:#FFFFFF;" d="M54.416,54.924c-0.073,0.073,0.073,0.293,0.439,0.586c0.293,0.073,0.44-0.074,0.367-0.366	c0-0.074,0-0.147,0-0.22C54.928,53.826,54.562,53.752,54.416,54.924z"/><path style="fill:#FFFFFF;" d="M55.954,55.51c-0.22,0.292-0.367,0.513-0.659,0.659c0.439,0.586,0.513,1.319,0.366,2.124	c-0.147,0.221-0.292,0.439-0.366,0.805c0,0.367,0,0.807-0.073,1.246c0.659-0.074,1.171-0.366,1.611-0.952	c-0.073-0.952,0.074-1.831,0.44-2.636C56.759,56.315,56.319,55.95,55.954,55.51z"/><path style="fill:#FFFFFF;" d="M60.421,53.166c0.146,0,0.293,0,0.512,0C61.006,52.068,60.86,52.068,60.421,53.166z"/><path style="fill:#FFFFFF;" d="M57.418,53.387c0.292-0.293,0.586-0.732,0.878-1.099C57.418,51.774,57.052,52.141,57.418,53.387z"/><path style="fill:#FFFFFF;" d="M57.564,56.242c0.146-0.22,0.366-0.292,0.659-0.22c-0.219-0.805-0.293-1.392-0.073-1.831	c-1.758,0.073-1.977,0.805-0.659,2.124C57.564,56.315,57.564,56.315,57.564,56.242z"/><path style="fill:#FFFFFF;" d="M59.908,54.924c0.22-0.146,0.293-0.22,0.366-0.366c0.073-0.439-0.073-0.732-0.439-0.806	C59.762,54.119,59.835,54.558,59.908,54.924z"/><path style="fill:#FFFFFF;" d="M71.845,51.482c-0.732,0.219-1.246,0.659-1.685,1.318C72.211,53.093,72.797,52.654,71.845,51.482z"/><path style="fill:#FFFFFF;" d="M70.307,54.704c0.659,0.22,1.245,0.66,1.757,1.319C72.357,54.558,71.771,54.119,70.307,54.704z"/><path style="fill:#FFFFFF;" d="M85.905,54.337c-0.146,0.659-0.293,1.246-0.512,1.758c-0.074-0.513-0.293-0.952-0.585-1.392	c-0.147,0.22-0.294,0.22-0.587,0.147c-0.073-0.732-0.439-0.953-1.025-0.66c0.292,1.245,0.22,2.27-0.219,3.149	c-0.147-1.978-0.879-2.93-2.051-2.93c0.292,1.685,0,2.49-0.879,2.49c0.513,1.025,1.098,2.124,1.611,3.295	c0.659,1.319,1.098,2.71,1.245,4.102c0.219,1.684,1.171,2.416,2.782,2.27c-0.219-0.659-0.292-1.246-0.292-1.904	c0.439,0.806,0.806,1.757,1.025,2.783c1.464,0.732,3.077,1.025,4.76,0.805c0.074,1.246,0.366,2.271,0.953,3.296	c0.512,1.246,1.025,2.417,1.611,3.588c0.366-0.805,0.514-1.831,0.439-2.929c0.513,0.293,0.879,0.732,1.099,1.245	c0.366-0.806,0.879-1.685,1.464-2.49c0.293-1.391,1.025-2.197,2.271-2.49c0.219-0.732,0.292-1.392,0.219-2.051	c0.879,1.099,1.392,2.417,1.538,3.955c0.147,1.537,0.147,3.076,0.147,4.614c0.952,1.464,1.757,1.171,2.343-0.732	c0.586-1.539,0.586-3.077,0-4.614c-0.585-1.465-1.684-2.709-3.222-3.735c0.073-0.439-0.22-0.732-0.952-0.659	c-0.879,0.146-1.612,0.513-1.978,1.171c-0.44-0.512-0.952-0.878-1.318-1.099c-0.439,0.074-0.805,0-1.171-0.219	c-1.319-0.732-1.025-1.246,0.805-1.465c0.366,0,0.439,0.219,0.366,0.659c0.219-0.513,0.512-0.879,0.878-1.172	c1.246-1.025,1.098-1.61-0.512-1.831c-0.073,0.806-0.513,1.026-1.245,0.514c0.074-0.293,0.292-0.514,0.586-0.66	c0-0.293,0-0.659-0.073-0.952c-0.22-1.538-0.805-3.002-1.685-4.394c-0.366-1.684-1.318-2.709-2.709-3.075	c-0.221,1.099-0.146,2.417,0.073,3.881c-0.805-1.318-1.758-2.344-2.783-3.076c0,0.805,0,1.538-0.074,2.417	C87.224,56.096,86.491,55.51,85.905,54.337z M83.781,59.391c-0.073-0.22-0.073-0.512-0.073-0.952	c0.878,1.318,1.172,2.855,1.099,4.541c0.219,0.146,0.292,0.366,0.073,0.659C84.734,62.247,84.368,60.855,83.781,59.391z"/><path style="fill:#FFFFFF;" d="M79.9,58.22c-0.366,0.877-0.513,1.831-0.366,2.856c0.219,1.684,0.585,3.075,1.245,4.174	c0.366-1.025,0.366-2.197,0.073-3.515C80.633,60.562,80.34,59.391,79.9,58.22z"/><path style="fill:#FFFFFF;" d="M78.143,65.25c0.512,0.073,0.732-0.073,0.659-0.512C78.362,62.833,78.143,62.979,78.143,65.25z"/><path style="fill:#FFFFFF;" d="M68.256,58.731c-0.732,1.319-1.025,2.784-0.952,4.394c0.146,1.246-0.146,2.197-0.879,2.637	c-0.22-1.318-0.22-2.563,0-3.808c0.293-1.611,0.22-2.93-0.22-3.955c-0.878,1.319-1.245,2.784-1.099,4.394	c0.146,1.685-0.073,3.15-0.732,4.321c0.073,1.319,0.073,2.71,0.147,4.175c0,1.024,0.146,2.05,0.439,3.002c0,1.538,0,3.076,0,4.613	c-0.146,1.099-0.293,2.051-0.439,2.93c-0.439,0.293-0.659,0.88-0.586,1.758c-0.366,0.146-0.659,0.22-1.025,0.22	c-0.073,0.878-0.146,1.757-0.073,2.636c-0.367,1.611-0.439,3.223-0.367,4.833c0.147,0.073,0.294,0.073,0.439,0.073	c0.074,0,0.147,0,0.22,0c0.146-1.61,0.659-2.929,1.611-4.028c0.293-0.292,0.659-0.439,1.099-0.439c-0.146-1.171,0-2.124,0.586-2.783	c-0.22-1.539,0-2.929,0.732-4.028c0.439-0.732,0.879-1.611,1.245-2.709c0.513-1.465,0.586-3.002,0.22-4.614	c0.366-0.44,0.805-0.952,1.318-1.538c-0.073-0.878-0.293-1.465-0.732-1.757c0.439-0.146,0.659-0.366,0.732-0.879	c-0.073-0.439-0.073-0.878,0-1.318c0.732,0.073,1.318,0,1.684-0.366c0-0.732,0.146-1.611,0.513-2.563	c-0.586,1.025-1.318,1.612-2.197,1.685c-0.147,0-0.22,0-0.22-0.073c-0.146-0.147-0.146-0.367-0.22-0.66	c-0.073-0.293-0.146-0.659-0.22-0.952c0.439,0.074,0.806,0,1.172-0.219c1.318-0.806,1.538-1.831,0.512-3.223	c0-0.585,0-0.952,0.147-1.318c0.585-1.831,0.366-3.076-0.659-3.662c-0.732,0.44-0.806,1.024-0.366,1.978	c-1.099,0.585-1.172,1.904-0.073,3.955c-0.146,1.61-0.586,1.756-1.171,0.366C68.623,60.636,68.476,59.611,68.256,58.731z M67.231,74.99c-0.146,0.878-0.073,1.684,0.147,2.416c-0.659,0.806-1.245,1.319-1.685,1.685c-0.073-1.099,0.073-2.27,0.367-3.516	c0-0.366,0.073-0.732,0.292-1.025C67.011,73.305,67.305,73.452,67.231,74.99z M65.767,79.896c0.22-0.073,0.293,0.221,0.22,0.879	c0.146,1.172,0,1.977-0.586,2.563C65.328,82.093,65.4,80.921,65.767,79.896z"/><path style="fill:#FFFFFF;" d="M76.751,74.99c0.146-0.953-0.146-1.685-1.025-2.124c-1.099,0.805-1.245,2.124-0.439,3.807	C76.019,76.234,76.532,75.649,76.751,74.99z"/><path style="fill:#FFFFFF;" d="M85.759,71.84c-0.951-0.146-1.684,0.146-2.343,0.805c-0.073,1.612,0.073,3.149,0.439,4.614	c0.513-0.073,0.806-0.439,0.88-1.245C85.759,74.99,86.125,73.525,85.759,71.84z"/><path style="fill:#FFFFFF;" d="M83.562,79.676c-0.074,0.146-0.147,0.292-0.147,0.44c-0.146,0.585-0.293,1.171-0.439,1.904	c0.293,0.439,0.439,1.025,0.366,1.684c-0.366,0.513-0.439,0.952,0,1.465c-0.147,0.219,0,0.292,0.366,0.219	c0.146-0.439,0.512-0.732,0.952-0.952c-0.074,0.366,0.074,0.659,0.366,0.732c0.44,0.073,0.513-0.22,0.292-0.806	c-0.292-0.512-0.438-1.099-0.658-1.611c0.147-0.366,0.292-0.805,0.585-1.171c-0.073-0.221-0.219-0.44-0.512-0.514	c-0.293-0.219-0.586-0.366-0.88-0.439C83.928,80.189,83.854,79.896,83.562,79.676z"/><path style="fill:#FFFFFF;" d="M56.319,62.613c0.806-0.586,0.806-1.025-0.073-1.245C55.954,61.734,56.027,62.174,56.319,62.613z"/><path style="fill:#FFFFFF;" d="M63.057,98.498c0.512-1.246,0.659-2.93,0.439-4.907c0-1.025-0.439-1.539-1.245-1.611	c0.366,1.904,0.219,3.516-0.292,4.907c-0.513,1.465-1.099,2.856-1.758,4.174c0.879,0,1.758,0,2.637,0c0-0.366,0-0.659,0-0.953	C62.837,99.522,62.91,99.009,63.057,98.498z"/><path style="fill:#FFFFFF;" d="M58.15,101.28c-0.146,0.659-0.22,1.245-0.146,1.464c0.219,0.293,0.366,0.293,0.439,0.147	c0.22-0.073,0.439-0.22,0.586-0.366C59.322,101.06,58.956,100.621,58.15,101.28z"/><path style="fill:#FFFFFF;" d="M119.227,105.088c-0.953-0.367-2.124-0.513-3.589-0.367c-1.244,0.146-2.49,0.146-3.662,0.073	c0.953-0.512,1.978-1.171,3.002-1.757c-1.318-0.293-2.636-0.366-3.88-0.293c-0.44-0.659-1.026-0.952-1.539-0.952	c-0.732-0.586-1.539-0.805-2.417-0.879c-0.366-0.147-0.805-0.147-1.172,0.22c-0.293,0.293-0.732,0.439-1.464,0.439	c-0.293,0.513-0.514,0.806-0.88,0.953c-0.511,0.366-0.951,0.732-1.464,0.952c-0.366-0.366-0.512-0.878-0.512-1.464	c0.073-0.366-0.147-0.513-0.513-0.366c-0.146,0.732-0.366,0.806-0.732,0.292c-0.22-0.439-0.659-0.439-1.465,0.074	c0.292,0.952,0.22,1.904-0.074,2.709c-0.146-0.586-0.292-1.098-0.366-1.464c0.073-0.513-0.219-0.659-0.733-0.513	c-0.292,0.513-0.439,1.099-0.366,1.685c-0.951,0.293-1.391,0-1.317-0.732c-0.514,0.073-0.953,0-1.392-0.146	c-0.805,0.659-1.758,0.878-3.002,0.659c-0.074-0.44-0.366-0.659-0.806-0.732c-0.807-0.146-1.539,0-1.978,0.22	c0.439-0.073,0.587,0.22,0.293,0.805c-0.22-0.073-0.513-0.073-0.805-0.073c-0.586-0.073-1.026-0.439-1.392-1.099	c-0.732-1.171-1.246-2.343-1.611-3.588c-0.366,0-0.659,0.22-0.732,0.586c-1.172-0.293-1.831,0-2.051,0.805	c0.66,0.293,1.099,0.659,1.318,1.245c-0.074,0-0.22,0-0.366,0c-0.22-0.074-0.44,0.074-0.586,0.366c-0.073,0.293,0,0.513,0.146,0.513	c-1.61,0-2.929,0.512-3.954,1.464c-1.538,0-3.076,0-4.614,0c-1.538-0.073-3.002,0.073-4.54,0.367	c-0.513-0.367-1.099-0.587-1.758-0.733c-1.464-0.293-2.929-0.879-4.174-1.685c-0.732,0-0.952-0.512-0.732-1.465	c-0.44,1.172-1.318,1.905-2.563,2.271c-1.025-0.073-2.271,0.074-3.588,0.367c-0.051,0.903,0.25,1.662,0.817,2.197h61.944	C119.641,105.822,119.395,105.51,119.227,105.088z M106.411,103.696c-0.513-0.073-0.733-0.512-0.44-1.244	c0.293-0.074,0.585-0.221,0.806-0.44C107.289,102.671,107.143,103.257,106.411,103.696z"/><path style="fill:#FFFFFF;" d="M127.721,104.062c-0.585,0.293-1.392,0.439-2.343,0.366c-1.318,0.439-2.563,0.366-3.735-0.22	c0.106,0.856,0.49,1.437,1.088,1.831h5.619C128.147,105.387,127.945,104.736,127.721,104.062z"/><path style="fill:#FFFFFF;" d="M110.438,55.656c0,0.366,0,0.805,0,1.171c0.366,0.586,0.66,1.171,0.805,1.831	c-0.146,0-0.219-0.073-0.293-0.146c-0.219-0.221-0.512-0.221-0.805,0c-0.073,0.292,0,0.659,0.147,1.025	c0.074,1.172-0.293,1.538-1.098,1.024c0.366-1.391,0.146-2.416-0.733-2.855c0,0.732,0,1.391,0,2.05	c-0.219-0.585-0.585-0.878-1.172-0.732c0,0.293,0.073,0.586,0.293,0.953c-0.073,0.951,0.293,1.684,1.171,2.197	c0.366,0.219,0.586,0.512,0.88,0.805c1.098,1.392,1.317,2.783,0.732,4.247c-0.367,1.318,0,2.563,1.098,3.662	c1.317-0.074,2.197,0.659,2.636,2.123c0.293,1.465,1.318,2.271,3.075,2.49c0.953,1.025,1.904,2.27,2.929,3.516	c0.659,0.366,1.172,0.805,1.538,1.391c0.292,0.219,0.585,0.513,0.806,0.732c1.024,1.173,1.831,2.271,2.489,3.369	c0.293,0.732,0.659,1.465,1.025,2.27c0.586,1.392,1.392,2.783,2.344,4.174c0.073,1.612-0.074,3.149-0.293,4.76	c-0.22,1.538-0.439,3.077-0.586,4.614c-0.366,0-0.659,0-0.878,0.22c-1.172,0.805-1.612,2.123-1.172,3.881	c1.318-0.073,2.27-0.66,2.855-1.685c0.879-4.76,1.978-8.495,3.295-11.204c0-0.073,0.074-0.146,0.147-0.221	c0.585-1.098,0.293-2.929-0.953-5.418c0.22,1.978-0.219,2.344-1.245,1.099c-0.952-1.172-1.903-2.417-2.856-3.735	c-0.878-1.244-1.538-2.489-2.05-3.807c-0.732-1.245-1.172-2.563-1.318-4.028c-0.147-1.464-0.293-3.002-0.439-4.467	c-0.22-1.464-0.44-2.929-0.587-4.394c-0.732-2.344-1.098-4.175-1.025-5.419c-1.538-0.879-2.636-2.051-3.368-3.442	c-0.073-0.292-0.294-0.44-0.66-0.586c-1.465-0.438-2.05-1.611-1.831-3.442c-0.073-0.073-0.219-0.219-0.366-0.292	c-0.585-0.367-1.171-0.732-1.757-1.026c-0.659-0.293-1.318-0.586-1.978-0.806c-0.146,0.146-0.366,0.219-0.512,0.293	c-1.392,0-2.637,0-3.809,0c-0.146,0-0.439,0-0.952,0.146c-0.439,1.318-0.146,1.977,1.025,2.124	c-0.146,0.512-0.219,1.099-0.073,1.684c1.025,0.074,1.685-0.292,2.051-1.099C109.194,55.217,109.706,55.51,110.438,55.656z M127.355,86.414c0.878,0.293,1.171,0.878,0.952,1.684C127.648,87.732,127.282,87.146,127.355,86.414z"/><path style="fill:#FFFFFF;" d="M86.272,85.388c0,0.073,0,0.22,0,0.293c0.073,0.073,0.073,0.219,0.073,0.439	c-0.146,0.805,0.22,1.171,1.025,0.953c0.586-0.074,0.806-0.44,0.66-1.099C87.59,85.682,87.004,85.461,86.272,85.388z"/><path style="fill:#FFFFFF;" d="M77.117,90.295c0.879,0.147,1.172-0.146,1.026-0.952c-0.146-0.439-0.366-0.586-0.659-0.513	c-0.659,0.147-0.806,0.586-0.659,1.391C76.898,90.221,77.044,90.221,77.117,90.295z"/><path style="fill:#FFFFFF;" d="M79.314,89.05c0.073-0.878-0.22-1.318-0.879-1.245c-0.073,0.659,0,1.099,0.367,1.465	C79.168,89.562,79.314,89.489,79.314,89.05z"/><path style="fill:#FFFFFF;" d="M86.491,88.977c0.074-0.659-0.146-1.245-0.513-1.685c-0.585,0.22-0.878,0.659-0.878,1.319	c-0.073,0.659-0.147,1.318-0.366,1.831c0-0.293,0-0.732,0-1.099c0.073-0.66-0.147-1.171-0.66-1.392	c-0.512,0.073-0.732,0.367-0.732,0.879c0,0.586-0.073,1.172-0.073,1.758c-0.074,0.659,0,1.245,0.366,1.831	c0.146,0.732,0.219,1.392,0.292,1.978c0.074,0.585,0.366,1.099,0.806,1.464c0.219,0.073,0.439,0,0.659,0	c0.146-0.073,0.292-0.147,0.366-0.293c0.22-0.586,0.293-1.171,0.293-1.758c0-0.586,0-1.172,0-1.758c0-0.439,0-0.805,0.147-1.244	C86.345,90.221,86.418,89.637,86.491,88.977z"/><path style="fill:#FFFFFF;" d="M81.951,87.732c0.659,0.513,1.171,0.366,1.465-0.292C82.903,87.219,82.39,87.292,81.951,87.732z"/><path style="fill:#FFFFFF;" d="M82.756,98.498c0.147-0.513,0-0.879-0.439-1.026c-0.146-0.073-0.22-0.073-0.293,0.073	c0,0.221-0.073,0.367-0.219,0.514c-0.366,0.585-0.366,1.171,0,1.61C82.317,99.522,82.61,99.157,82.756,98.498z"/><path style="fill:#FFFFFF;" d="M80.047,94.908c-0.293-0.805-0.585-0.732-0.659,0.221c-0.073,0.585-0.073,1.171-0.073,1.757	c0.439,0.293,1.025,0.293,1.685,0.147c0.219-0.073,0.293-0.221,0.366-0.513c0.146-0.659,0.073-0.952-0.293-0.952	c-0.293-0.073-0.513-0.22-0.732-0.366C80.193,95.129,80.12,95.055,80.047,94.908z"/><path style="fill:#FFFFFF;" d="M78.29,95.641c-0.146,0-0.293,0-0.44,0.073c-0.512,0.366-0.585,0.806-0.073,1.319	c0.22-0.073,0.439-0.293,0.659-0.513C78.802,96.007,78.802,95.714,78.29,95.641z"/><path style="fill:#FFFFFF;" d="M78.729,98.424c0.073-0.147,0-0.293-0.147-0.293c0.22,0.439,0.513,0.952,0.953,1.392	c0.219,0.219,0.366,0.512,0.512,0.806c0.366,0.073,0.439-0.221,0.073-0.732C79.827,99.009,79.388,98.643,78.729,98.424z"/><path style="fill:#FFFFFF;" d="M41.087,62.393c0.806-0.292,0.879-0.732,0.292-1.171c-0.292-0.073-0.366,0-0.366,0.221	C41.087,61.808,41.087,62.174,41.087,62.393z"/><path style="fill:#FFFFFF;" d="M38.671,63.931c0.22,0.074,0.439,0.147,0.586,0.147c0.659-0.073,0.878-0.513,0.512-1.172	c-1.464-0.439-2.49,0-2.929,1.392C37.426,63.639,38.012,63.492,38.671,63.931z"/><path style="fill:#FFFFFF;" d="M32.299,64.883c0.146,0.22,0.366,0.366,0.586,0.293c0.146-0.146,0.22-0.293,0.22-0.366	c0-0.073,0-0.221,0-0.293c0.073-0.293,0-0.439-0.367-0.439c-0.073,0-0.219,0.073-0.366,0.146	C32.299,64.371,32.226,64.664,32.299,64.883z"/><path style="fill:#FFFFFF;" d="M59.469,55.802c-0.586,0.293-0.952,0.732-1.025,1.392C59.322,57.56,59.688,57.048,59.469,55.802z"/><path style="fill:#FFFFFF;" d="M115.492,52.946L115.492,52.946c2.636,1.831,4.76,4.468,6.298,7.982c0,0.147,0,0.293,0,0.439	c0,2.197,1.099,6.005,3.148,11.425c-0.219-3.809-0.732-7.617-1.538-11.425c-0.073-0.366-0.146-0.732-0.218-1.099	c-0.074-0.146-0.074-0.292-0.148-0.366C121.643,56.315,119.153,53.972,115.492,52.946z"/><path style="fill:#FFFFFF;" d="M126.696,81.947c0.659,1.391,1.611,2.636,2.637,3.735c0.366-0.073,0.805-0.146,1.172-0.221	c-0.66-1.098-1.392-2.343-2.344-3.661c-0.878-1.904-1.61-3.662-2.27-5.272c-0.805,0.22-1.099,0.732-0.805,1.465	C125.524,79.457,126.037,80.775,126.696,81.947z"/><path style="fill:#FFFFFF;" d="M102.163,62.979c-0.219-0.146-0.585-0.22-0.951-0.22c0.219,1.685,0.659,2.051,1.318,0.953	c0.073-0.146,0.146-0.293,0.073-0.439c-0.073-0.074-0.146-0.147-0.219-0.221C102.31,63.052,102.236,62.979,102.163,62.979z"/><path style="fill:#FFFFFF;" d="M100.186,63.565c0.366-1.245,0.073-1.465-0.805-0.586C99.6,63.273,99.82,63.492,100.186,63.565z"/><path style="fill:#FFFFFF;" d="M104.141,74.77c0-0.073,0-0.146,0-0.22c-0.879,0.879-1.611,1.757-2.271,2.49l0.219,0.147	c0.073,0,0.073,0,0.073,0c0.586-0.293,1.099-0.586,1.612-0.879c0.073,0,0.073-0.073,0.073-0.073	C104.141,75.722,104.213,75.282,104.141,74.77z"/><path style="fill:#FFFFFF;" d="M102.31,78.725c0.732-0.147,1.171,0,1.465,0.366c-0.44-0.073-0.732,0.073-1.026,0.293	c-0.805,0.878-0.513,1.465,0.732,1.831c1.392-0.074,2.05,0.585,1.977,2.05c0.22-0.146,0.513-0.292,0.806-0.292	c0.22,0.074,0.513,0.292,0.732,0.44c0.074,0.073,0.147,0.146,0.147,0.219c0.073,0.293,0.146,0.586,0.219,0.879	c0.074,0.293,0.074,0.512,0,0.806c0.367-0.073,0.586,0,0.806,0.22c0.073,0.073,0.219,0.146,0.366,0.146	c-0.293-1.172-0.732-2.27-1.172-3.368c-0.073,0.512-0.366,0.732-0.806,0.584c-0.659-1.025-0.366-1.61,0.879-1.757	c0.073-0.585,0.146-1.098,0.367-1.611c-0.147-1.611-0.88-2.709-2.197-3.149C103.848,76.527,102.749,77.333,102.31,78.725z M104.874,77.406c0.073,0,0.146,0,0.218,0.074c0.074,0.074,0.147,0.074,0.22,0.146c0.366,0.073,0.513,0.366,0.366,0.732	c-0.073,0.219-0.22,0.366-0.439,0.439c-0.293-0.073-0.44-0.22-0.44-0.512c-0.074-0.293-0.219-0.514-0.292-0.732	C104.58,77.406,104.726,77.406,104.874,77.406z"/><path style="fill:#FFFFFF;" d="M105.458,83.264c-0.512,0.147-0.584,0.44-0.219,1.026c0.439,0.586,0.805,1.245,1.172,1.903	c0.659-0.732,0.732-1.611,0.512-2.563C106.557,83.264,106.044,83.191,105.458,83.264z"/><path style="fill:#FFFFFF;" d="M107.436,85.608c-0.293,0.292-0.586,0.439-1.025,0.585c0.366,0.66,0.659,1.319,0.878,2.051	c0.22,0.073,0.44,0.073,0.806,0c0.22-0.073,0.44-0.22,0.513-0.513c0-0.074,0-0.074,0-0.146c0.22-0.586,0.22-1.026,0-1.318	C108.461,85.828,108.021,85.608,107.436,85.608z"/><path style="fill:#FFFFFF;" d="M102.31,89.27c-0.293,1.172-0.074,2.049,0.659,2.563c0.806,0.292,1.905,0.439,3.222,0.219	c0.514-0.805,0.439-1.683-0.219-2.489C104.726,89.416,103.481,89.343,102.31,89.27z"/><path style="fill:#FFFFFF;" d="M98.355,92.418c-0.367-0.512-0.732-0.367-0.953,0.44c-0.438,1.317-0.292,2.343,0.514,3.075	c1.538,0.22,1.904-0.659,0.878-2.709c-0.146-0.292-0.293-0.586-0.439-0.732c0.732,0.513,1.025,1.172,0.951,1.978	C100.406,92.932,100.113,92.272,98.355,92.418z"/><path style="fill:#FFFFFF;" d="M99.161,86.487c-0.439,0.22-0.805,0.513-1.172,0.879c0.586,0.074,1.172,0.146,1.831,0.074	C99.747,87,99.526,86.707,99.161,86.487z"/><path style="fill:#FFFFFF;" d="M93.961,83.264c1.464,0.806,2.124,1.831,1.976,3.223c0.733-0.512,1.173-1.171,1.392-1.904	c-0.806-0.659-1.831-1.391-2.929-2.124C94.328,82.752,94.181,83.045,93.961,83.264z"/><path style="fill:#FFFFFF;" d="M90.593,83.777c-0.22-0.439-0.366-0.732-0.514-0.879c-0.366-0.439-0.658-0.951-0.951-1.391	c-0.293,0.147-0.586,0.22-0.952,0.22c0,0,0,0,0,0.073c0,0.366,0.073,0.806,0.146,1.172c0.44-0.146,0.806-0.22,1.099,0	c0.22,0.513,0.439,1.024,0.585,1.684c0.073,0.513,0.293,1.099,0.586,1.611s0.732,1.025,1.099,1.391	c0.073,0.074,0.073,0.074,0.073,0.074s0.073,0,0.073-0.074c0.293-0.073,0.439-0.292,0.66-0.439c-0.073-0.293-0.22-0.585-0.293-0.878	c-0.22-0.366-0.439-0.806-0.806-1.246C91.105,84.583,90.812,84.144,90.593,83.777z"/><path style="fill:#FFFFFF;" d="M88.103,81.214c0.438,0.073,0.659,0,0.878-0.147c-0.146-0.732-0.293-1.025-0.585-0.805	C88.176,80.482,88.03,80.775,88.103,81.214z"/><path style="fill:#FFFFFF;" d="M98.135,97.105c0,0.293,0.147,0.439,0.44,0.439c0.513,0.074,0.879,0,1.245-0.146	C99.381,96.959,98.794,96.812,98.135,97.105z"/><path style="fill:#FFFFFF;" d="M99.82,99.083c-1.025,0.292-1.245,0.806-0.732,1.611c0.219,0.366,0.512,0.439,0.877,0.366	C100.406,100.328,100.332,99.668,99.82,99.083z"/><path style="fill:#FFFFFF;" d="M98.208,99.889c-0.732,0.146-1.025,0.366-0.806,0.732c0.221-0.073,0.514,0,0.732,0.219	C98.355,100.474,98.355,100.181,98.208,99.889z"/><path style="fill:#FFFFFF;" d="M107.436,93.517c-1.025-0.878-1.392-0.512-1.172,0.953C106.704,94.47,107.07,94.103,107.436,93.517z"	/><path style="fill:#FFFFFF;" d="M115.71,100.474c-0.658-0.219-0.951-0.219-0.878,0C115.272,101.792,115.565,101.792,115.71,100.474z"	/><path style="fill:#FFFFFF;" d="M106.923,95.934c-0.732,0.878-0.952,1.904-0.732,3.002c0-0.438,0.221-0.585,0.659-0.438	c0.293,0.366,0.513,0.877,0.66,1.464C107.509,98.498,107.362,97.105,106.923,95.934z"/><path style="fill:#FFFFFF;" d="M124.499,101.133c-1.61-0.22-1.903,0.513-1.025,2.197	C124.353,103.257,124.646,102.525,124.499,101.133z"/></svg>