<?xml version="1.0" encoding="utf-8"?>
<!-- Generator: Adobe Illustrator 13.0.0, SVG Export Plug-In . SVG Version: 6.00 Build 14948)  -->
<!DOCTYPE svg PUBLIC "-//W3C//DTD SVG 1.0//EN" "http://www.w3.org/TR/2001/REC-SVG-20010904/DTD/svg10.dtd">
<svg version="1.0" id="Ebene_1" xmlns="http://www.w3.org/2000/svg" xmlns:xlink="http://www.w3.org/1999/xlink" x="0px" y="0px"
	 width="268.102px" height="422.838px" viewBox="0 0 268.102 422.838" enable-background="new 0 0 268.102 422.838"
	 xml:space="preserve">
<path fill="#FFFFFF" d="M247.339,112.01c-11.026-24.047-26.398-45.97-45.689-65.159c-32.838-32.668-65.195-45.893-66.557-46.439
	L134.067,0l-0.016,0.006L134.035,0l-1.025,0.412c-1.362,0.547-33.719,13.771-66.558,46.439
	C47.162,66.041,31.79,87.963,20.764,112.01C6.986,142.056,0,175.5,0,211.412c0,35.916,6.986,69.359,20.764,99.406
	c11.026,24.047,26.398,45.972,45.688,65.162c32.839,32.667,65.196,45.892,66.558,46.439l1.042,0.419l1.042-0.419
	c1.362-0.547,33.719-13.771,66.557-46.439c19.291-19.19,34.663-41.114,45.689-65.162c13.778-30.047,20.763-63.491,20.763-99.406
	C268.102,175.5,261.117,142.056,247.339,112.01z"/>
<path d="M134.051,3.014C133.847,3.097,2.8,55.871,2.8,211.416c0,155.551,131.046,208.326,131.251,208.408
	c0.205-0.082,131.251-52.857,131.251-208.408C265.302,55.871,134.256,3.097,134.051,3.014z"/>
<path fill="#FFFFFF" d="M134.051,26.047C133.847,26.119,6.907,70.913,6.907,211.417c0,140.507,126.94,185.3,127.145,185.373
	c0.205-0.072,127.144-44.865,127.144-185.373C261.195,70.913,134.256,26.119,134.051,26.047z"/>
<path fill="#EB6A0A" d="M124.482,207.521c-24.8-13.391-42.014-40.045-45.196-70.332c-3.153-29.986,6.516-56.502,29.522-80.891
	C35.88,97.421,55.194,151.408,64.623,168.517C77.488,191.867,100.214,206.585,124.482,207.521z"/>
<path d="M134.051,289.406c-38.504,0-74.251-5.583-103.858-15.129c28.217,78.876,103.829,99.376,103.858,99.385
	c0.029-0.008,75.64-20.508,103.857-99.385C208.303,283.824,172.555,289.406,134.051,289.406z"/>
<path fill="#EB6A0A" d="M226.955,125.725c-1.075,50.39-42.256,90.91-92.903,90.911c-50.647-0.001-91.829-40.521-92.903-90.911
	c-11.399,22.051-21.411,49.816-21.411,84.588c0,2.025,0.028,4.025,0.08,6.003c31.449,11.729,71.12,18.726,114.234,18.726
	s82.785-6.996,114.234-18.726c0.052-1.979,0.08-3.979,0.08-6.003C248.366,175.541,238.353,147.776,226.955,125.725z"/>
<path fill="#EB6A0A" d="M147.254,113.838c-3.327-8.115-7.772-15.507-13.203-21.998c-5.43,6.49-9.876,13.883-13.203,21.998
	c-6.238,15.229-8.25,32.032-5.808,48.593c2.403,16.313,8.953,31.221,18.943,43.166c0.023-0.027,0.044-0.056,0.067-0.083
	c0.023,0.027,0.044,0.056,0.067,0.083c9.99-11.945,16.54-26.854,18.942-43.166C155.503,145.87,153.492,129.067,147.254,113.838z"/>
<path fill="#EB6A0A" d="M143.62,207.521c24.801-13.391,42.014-40.045,45.197-70.332c3.153-29.986-6.517-56.502-29.522-80.891
	c72.928,41.123,53.614,95.109,44.186,112.218C190.615,191.867,167.889,206.585,143.62,207.521z"/>
<path d="M134.051,50.892c-33.751,18.099-47.866,52.561-47.868,78.372c0,29.552,13.663,56.642,35.914,71.358
	c-16.363-26.296-19.103-60.47-7.052-89.873c3.634-8.873,8.496-16.953,14.445-24.043l4.562-5.023l4.561,5.023
	c5.95,7.09,10.811,15.17,14.445,24.043c12.051,29.403,9.311,63.577-7.052,89.873c22.251-14.716,35.914-41.806,35.914-71.358
	C181.917,103.453,167.802,68.991,134.051,50.892z"/>
<path d="M113.694,279.299c-0.014-0.027-1.452-2.734-2.08-4.304c-0.001,0.062-14.063-33.717-14.063-33.78
	c-0.416-1.01-2.634-1.22-3.306-1.265c-1.512-0.098-2.36,0.146-2.517,0.739c0.01,0.034-11.797,35.188-11.797,35.118
	c-0.141,0.458-0.089,0.902,0.147,1.259c0.122,0.184,0.409,0.505,0.937,0.579c1.414,0.2,2.828,0.391,4.241,0.575
	c0.745,0.096,1.177-0.17,1.398-0.868c0.007-0.021,2.459-9.431,2.459-9.434c0.03-0.083,0.086-0.113,0.225-0.098
	c3.795,0.444,7.589,0.833,11.38,1.167c0.097,0.009,0.197,0.072,0.22,0.104c0.001,0.008,0.004,0.016,0.005,0.024
	c0.007,0.014,0.012,0.029,0.018,0.043c0.721,1.855,1.44,3.708,2.156,5.559c-0.005-0.008,1.605,4.417,1.605,4.417
	c0.286,0.754,0.858,1.195,1.617,1.252c2.152,0.163,4.303,0.307,6.452,0.431c0.474,0.029,0.802-0.108,0.975-0.404
	C113.884,280.212,113.967,279.861,113.694,279.299z M90.168,264.175c1.283-4.307,2.582-8.62,3.895-12.942
	c1.004,2.505,5.067,12.711,5.54,13.905C96.46,264.856,93.314,264.534,90.168,264.175z"/>
<path d="M211.772,272.246c-0.009-0.024-1.166-2.383-1.627-3.808c0.001,0.06-10.445-30.512-10.448-30.572
	c-0.309-0.917-2.538-0.579-3.214-0.458c-1.523,0.275-2.412,0.735-2.639,1.374c0.015,0.037-15.97,38.669-15.972,38.597
	c-0.194,0.5-0.194,0.94,0.005,1.241c0.103,0.156,0.354,0.407,0.883,0.347c1.41-0.161,2.822-0.331,4.233-0.507
	c0.748-0.093,1.215-0.477,1.521-1.24c0.009-0.024,3.572-10.192,3.571-10.197c0.041-0.089,0.103-0.137,0.238-0.156
	c3.807-0.517,7.614-1.089,11.427-1.716c0.098-0.017,0.19,0.022,0.212,0.05c0.001,0.007,0.001,0.014,0.002,0.022
	c0.004,0.014,0.008,0.027,0.014,0.04c0.521,1.691,1.039,3.381,1.556,5.069c-0.003-0.006,1.129,4.053,1.129,4.052
	c0.205,0.689,0.738,0.987,1.504,0.849c2.169-0.39,4.341-0.796,6.515-1.223c0.479-0.094,0.83-0.317,1.039-0.66
	C211.861,273.118,211.988,272.74,211.772,272.246z M189.583,262.962c1.795-4.688,3.604-9.384,5.431-14.091
	c0.735,2.285,3.697,11.584,4.042,12.672C195.895,262.053,192.738,262.527,189.583,262.962z"/>
<path d="M135.777,261.206c4.025-5.715,8.106-11.49,12.238-17.326c0.312-0.439,0.39-0.897,0.208-1.251
	c-0.16-0.32-0.502-0.496-0.941-0.484c-1.468,0.043-2.938,0.081-4.406,0.108c-0.685,0.014-1.066,0.126-1.521,0.764
	c-0.007,0.031-7.387,11.216-8.696,13.187c-2.687-4.305-5.399-8.638-8.136-12.996c0.009,0.017,0.019,0.033,0.028,0.049
	c-0.349-0.695-0.973-1.089-1.761-1.112c-2.225-0.067-4.449-0.15-6.675-0.253c-0.488-0.022-0.819,0.115-0.98,0.417
	c-0.167,0.304-0.108,0.689,0.175,1.144c0.008,0.056,11.431,17.66,12.412,19.134c-3.858,5.614-7.665,11.17-11.422,16.667
	c-0.283,0.415-0.339,0.866-0.154,1.235c0.167,0.332,0.499,0.537,0.917,0.556c1.367,0.064,2.731,0.122,4.099,0.172
	c0.666,0.024,1.083-0.076,1.496-0.686c0.01,0.006,6.985-10.917,8.251-12.907c2.736,4.301,5.446,8.574,8.128,12.818
	c-0.011-0.019-0.021-0.038-0.031-0.057c0.323,0.684,0.913,1.054,1.665,1.044c2.008-0.029,4.016-0.075,6.022-0.137
	c0.466-0.014,0.788-0.182,0.955-0.495c0.171-0.318,0.127-0.7-0.136-1.143C143.656,273.565,139.746,267.416,135.777,261.206z"/>
<path d="M183.373,240.745c0.055-0.312-0.013-0.579-0.194-0.775c-0.245-0.268-0.68-0.369-1.293-0.299
	c-9.388,1.063-18.769,1.807-28.137,2.232c-0.608,0.027-1.055,0.198-1.322,0.509c-0.197,0.226-0.283,0.506-0.25,0.811
	c-0.002-0.031,0.131,2.751,0.131,2.752c0.042,0.411,0.174,0.681,0.405,0.855c0.318,0.241,0.722,0.208,0.997,0.16
	c0.06,0,6.414-1.07,9.483-1.299c0.1-0.008,0.328,0.206,0.317,0.569c0,0.001-0.404,14.65-0.404,14.65
	c0-0.005-0.642,18.265-0.64,18.266c-0.026,0.822,0.447,1.278,1.263,1.216c1.77-0.133,3.54-0.279,5.311-0.436
	c0.819-0.073,1.327-0.607,1.36-1.429c0.001-0.001,0.686-18.266,0.686-18.266c0,0.004,0.661-14.656,0.661-14.656
	c0.015-0.366,0.261-0.615,0.361-0.625c3.073-0.26,9.388-0.2,9.451-0.209c0.27,0.002,0.674-0.027,1.012-0.32
	c0.245-0.21,0.395-0.503,0.463-0.893C183.038,243.527,183.377,240.712,183.373,240.745z"/>
<path d="M233.516,230.674c-4.607,1.082-9.209,2.086-13.804,3.016c-0.864,0.176-1.426,0.768-1.501,1.59
	c-0.001,0.002-1.614,18.29-1.614,18.29c0-0.002-1.739,18.31-1.739,18.31c-0.077,0.824,0.373,1.212,1.2,1.04
	c1.792-0.375,3.585-0.763,5.379-1.162c0.83-0.186,1.375-0.789,1.458-1.611c0-0.003,1.389-14.419,1.389-14.419
	c0.024-0.235,0.41-0.607,0.7-0.673c1.121-0.251,2.243-0.507,3.367-0.768c9.785-2.279,16.432-8.533,17.324-15.809
	C246.682,230.238,240.047,229.16,233.516,230.674z M226.026,251.384c-0.229,0.052-0.459,0.104-0.688,0.155
	c-0.278,0.063-0.614-0.193-0.588-0.449c0.479-4.769,0.958-9.536,1.438-14.304c0.048-0.486,0.58-1.018,1.132-1.142
	c0.318-0.07,0.638-0.141,0.957-0.212c6.81-1.537,9.35-0.137,8.762,5.084C236.377,246.372,232.979,249.809,226.026,251.384z"/>
<path d="M73.269,239.007c-0.056-0.821-0.603-1.388-1.461-1.518c-1.861-0.285-3.723-0.579-5.583-0.889
	c-0.863-0.142-1.338,0.261-1.275,1.084c0,0,2.529,32.575,2.529,32.576c0.041,0.52-0.362,0.898-0.861,0.81
	c-1.428-0.251-2.854-0.511-4.282-0.777c-1.764-0.327-4.661-1.3-6.755-2.066c-0.997-10.936-1.992-21.874-2.989-32.811
	c-0.037-0.414-0.191-0.766-0.462-1.049c-0.261-0.272-0.61-0.454-1.038-0.54c-1.873-0.376-3.744-0.763-5.617-1.165
	c-0.428-0.092-0.756-0.049-0.975,0.124c-0.226,0.177-0.318,0.478-0.276,0.892c1.095,10.943,2.19,21.886,3.286,32.828
	c-2.039-0.118-4.865-0.369-6.635-0.798c-1.438-0.345-2.879-0.699-4.32-1.06c-0.503-0.125-0.998-0.695-1.057-1.213
	c0-0.001-3.698-32.633-3.698-32.633c-0.094-0.824-0.67-1.444-1.541-1.66c-1.885-0.469-3.771-0.949-5.656-1.444
	c-0.871-0.228-1.333,0.125-1.232,0.949c0,0.004,4.481,36.661,4.481,36.66c0.102,0.825,0.661,1.454,1.497,1.681
	c15.134,4.104,30.208,7.334,45.205,9.692c0.821,0.129,1.279-0.285,1.224-1.109C75.776,275.572,73.269,239.009,73.269,239.007z"/>
<path fill="#FFFFFF" d="M116.48,316.42l-0.03-6.246c0,0.006,0.03-6.264,0.03-6.264c0-0.357-0.226-0.569-0.597-0.569h-2.199
	c-0.495,0-0.597,0.306-0.597,0.569l0.027,6.27c0-0.006-0.027,6.24-0.027,6.24c0,0.377,0.22,0.596,0.597,0.596h2.199
	C116.25,317.017,116.48,316.787,116.48,316.42z"/>
<path fill="#FFFFFF" d="M124.418,303.119c-3.235,0-5.406,1.72-5.406,4.282c0,2.2,1.489,4.417,4.829,4.417
	c1.597,0,2.148-0.291,2.784-0.629c0.059-0.031,0.127-0.063,0.186-0.097c-0.081,2.435-2.213,4.493-5.03,4.818
	c0.008-0.002,0.015-0.002,0.026-0.002c-0.264,0-0.488,0.209-0.488,0.457c0,0.01,0,0.019,0.004,0.024l0.052,0.526
	c0.003,0.01,0.003,0.021,0.008,0.03c0.056,0.224,0.236,0.375,0.45,0.375h0.358c4.796-0.056,8.021-3.165,8.021-7.745
	C130.212,307.632,129.647,303.119,124.418,303.119z M124.611,310.106c-1.79,0-2.431-1.512-2.431-2.926
	c0-2.175,0.978-2.457,1.828-2.457c2.514,0,2.785,2.699,2.785,3.859C126.793,309.494,125.915,310.106,124.611,310.106z"/>
<path fill="#FFFFFF" d="M139.132,308.962c0.961-0.853,1.49-1.919,1.49-3.046c0-1.99-1.565-3.041-4.525-3.041
	c-1.61,0-2.829,0.242-3.956,0.793c-0.024,0.011-0.046,0.026-0.063,0.044c-0.005,0.004-0.012,0.011-0.012,0.011
	c-0.068,0.064-0.262,0.248-0.154,0.521c0.005,0.008,0.251,0.583,0.251,0.583c0.045,0.109,0.138,0.2,0.261,0.246
	c0.137,0.055,0.299,0.046,0.421-0.017c0.615-0.269,1.221-0.499,2.315-0.499c0.702,0,1.88,0.2,1.88,1.524
	c0,1.546-1.126,2.674-2.868,2.871c-0.011,0-0.021,0-0.033,0.005c-0.214,0.054-0.345,0.246-0.345,0.506v0.071
	c-0.001,0.178-0.007,0.551,0.37,0.603c0.134,0.026,0.92,0.011,1.251,0.001c0.779-0.013,1.536,0.283,2.069,0.807
	c0.484,0.474,0.741,1.083,0.741,1.762c0,2.144-1.21,3.146-3.805,3.146l-0.253,0.001c-0.407,0.001-0.824,0.006-1.21-0.081
	c-0.112-0.027-0.235-0.011-0.335,0.051c-0.097,0.057-0.167,0.149-0.195,0.264c-0.001,0.005-0.111,0.502-0.111,0.502
	c-0.001,0.016-0.007,0.031-0.007,0.049c0,0.355,0.216,0.45,0.313,0.476c0.7,0.249,3.388,0.258,3.696,0.258
	c2.506,0,5.435-1.217,5.435-4.636C141.751,310.998,140.758,309.59,139.132,308.962z"/>
<path fill="#FFFFFF" d="M150.186,308.563c-1.557,0-2.169,0.306-2.819,0.63l-0.185,0.09c0.046-2.301,1.682-4.727,4.105-4.727
	c0.059,0,0.153,0.004,0.264,0.007c0.369,0.011,0.667,0.014,0.812-0.008c0.012-0.001,0.029-0.004,0.042-0.011
	c0.32-0.105,0.354-0.327,0.354-0.416c0,0.008,0,0.016,0,0.026l0.053-0.496c0.003-0.01,0.003-0.018,0.003-0.026
	c0-0.377-0.275-0.46-0.394-0.481c-0.48-0.122-1.009-0.118-1.523-0.115l-0.246,0.002c-4.509,0-6.867,3.88-6.867,7.718
	c0,1.938,0.566,6.451,5.795,6.451c3.251,0,5.435-1.731,5.435-4.307C155.016,310.268,153.12,308.563,150.186,308.563z
	 M149.993,315.66c-2.49,0-2.758-2.738-2.758-3.914c0-0.909,0.854-1.495,2.179-1.495c2.02,0,2.322,1.798,2.322,2.867
	C151.736,315.358,150.853,315.66,149.993,315.66z"/>
<path fill="#FFFFFF" d="M147.63,334.214c0.703-0.699,1.169-1.164,1.169-1.164c0.336-0.336,0.328-0.747-0.023-1.098l-2.282-2.283
	c-0.351-0.354-0.763-0.362-1.099-0.025c0,0-0.462,0.469-1.164,1.169l-4.082-4.086c-0.252-0.25-0.497-0.367-0.726-0.355
	c-0.169,0.011-0.317,0.09-0.427,0.233c0.012-0.014-3.078,3.23-3.078,3.23c-0.147,0.19-0.204,0.36-0.185,0.533
	c0.033,0.236,0.204,0.397,0.333,0.499c0.029,0.021,2.957,2.338,4.227,3.606c0.039,0.04,0.042,0.229-0.105,0.379
	c0,0-4.828,4.876-6.176,6.219c-1.349-1.343-6.174-6.219-6.174-6.219c-0.15-0.15-0.146-0.34-0.105-0.379
	c1.269-1.269,4.193-3.587,4.226-3.606c0.127-0.102,0.299-0.261,0.33-0.497c0.021-0.173-0.037-0.343-0.172-0.518
	c-0.011-0.015-3.101-3.261-3.09-3.247c-0.107-0.143-0.254-0.222-0.424-0.233c-0.231-0.013-0.472,0.105-0.726,0.358l-4.085,4.085
	c-0.695-0.701-1.161-1.17-1.161-1.17c-0.336-0.336-0.748-0.328-1.099,0.025l-2.28,2.283c-0.353,0.351-0.362,0.761-0.027,1.098
	c0,0,0.466,0.463,1.171,1.164l-4.088,4.084c-0.25,0.251-0.369,0.496-0.356,0.727c0.009,0.167,0.089,0.314,0.232,0.424
	c-0.015-0.013,3.23,3.076,3.23,3.076c0.188,0.151,0.358,0.204,0.532,0.183c0.237-0.026,0.398-0.2,0.498-0.33
	c0.022-0.028,2.337-2.955,3.607-4.225c0.04-0.04,0.232-0.045,0.38,0.104c0,0,4.875,4.826,6.217,6.171
	c-4.554,4.539-10.228,10.192-10.228,10.192c-0.335,0.336-0.325,0.748,0.024,1.097l2.283,2.281c0.352,0.354,0.765,0.364,1.098,0.027
	c0,0,5.649-5.666,10.188-10.22c4.538,4.551,10.188,10.22,10.188,10.22c0.336,0.336,0.747,0.328,1.098-0.024l2.282-2.283
	c0.351-0.351,0.361-0.762,0.024-1.098c0,0-5.67-5.653-10.225-10.194c1.342-1.345,6.215-6.169,6.215-6.169
	c0.149-0.147,0.34-0.144,0.381-0.104c1.267,1.269,7.262,5.171,8.096,4.374C152.857,341.781,147.63,334.214,147.63,334.214z"/>
</svg>
