<?xml version="1.0" encoding="utf-8"?><!-- Generator: Adobe Illustrator 16.0.0, SVG Export Plug-In . SVG Version: 6.00 Build 0) --><!DOCTYPE svg PUBLIC "-//W3C//DTD SVG 1.1//EN" "http://www.w3.org/Graphics/SVG/1.1/DTD/svg11.dtd"><svg version="1.1" id="Layer_1" xmlns="http://www.w3.org/2000/svg" xmlns:xlink="http://www.w3.org/1999/xlink" x="0px" y="0px" width="320.546px" height="662.832px" viewBox="0 0 320.546 662.832" enable-background="new 0 0 320.546 662.832" xml:space="preserve"><path fill="#002156" d="M88.813,447.336c-1.842-0.461-3.433-1.604-4.661-3.318c-6.228,9.607-8.854,18.197-6.564,25.906	c9.581,32.352,38.123,56.242,72.306,59.424C117.224,519.424,93.046,485.383,88.813,447.336 M82.123,428.217	c-2.058-1.467-3.821-2.84-5.075-4.037c-2.185,8.047-3.193,16.562-2.835,25.334c0.07,1.773,0.197,3.529,0.373,5.268	c1.264-5.184,3.754-10.6,7.322-16.123C81.218,435.426,81.328,431.75,82.123,428.217z M83.734,423.28	c0.863-1.961,1.944-3.77,3.231-5.295c1.035-1.221,2.138-2.189,3.309-2.91c3.109-14.488,9.602-27.395,19.093-37.15	C95.196,388,84.335,402.366,78.625,419.036C79.383,420.075,81.398,421.641,83.734,423.28z M206.324,497.659	c-7.074-0.785-16.538-2.654-20.67-4.086c-4.612-1.596-8.715-5.447-10.971-10.316c-0.934-2.012-1.779-4.688-1.914-7.932	c-0.076-1.941,0.109-4.08,0.678-6.395c-25.936-7.91-53.408-18.896-72.533-29.109c-0.674,1.232-1.443,2.379-2.306,3.398	c-1.438,1.703-3.054,2.938-4.717,3.643c1.796,15.912,7.322,31.506,16.121,45.092c11.672,18.021,27.569,30.371,44.741,34.26	c6.088,1.371,14.045,3.084,21.165,1.506c26.396-5.844,47.913-24.102,58.43-48.119c-1.232,0.219-2.617,0.346-4.104,0.396	C224.223,497.618,211.557,498.237,206.324,497.659z M241.252,442.715c-0.375-9.279-2.247-18.141-5.378-26.363	c-3.851-10.084-16.717-17.234-33.666-21.074c-31.335-7.084-72.495,4.619-98.686,26.652c1.006,4.02,0.708,8.812-0.643,13.186	c18.872,10.146,46.318,21.131,72.213,29.012c6.094-13.994,17.762-16.662,26.862-14.389c6.519,1.627,10.71,2.479,13.769,3.096	l3.366,0.711c4.325,1.012,8.12,3.885,10.396,7.889c1.613,2.83,3.095,7.305,2.084,13.467c3.182-0.188,4.722-0.721,5.078-1.143	C240.044,464.071,241.698,453.59,241.252,442.715z M226.402,474.899c1.043-5.162-0.084-8.756-1.34-10.953	c-1.571-2.773-4.178-4.762-7.125-5.451l-3.225-0.678c-2.934-0.594-7.359-1.492-13.99-3.148c-8.883-2.217-16.504,1.85-20.711,10.92	c4.325,1.258,8.588,2.42,12.74,3.473c0.669-3.23,0.812-5.473,0.812-5.512c0.086-1.398,1.289-2.469,2.688-2.387	c1.401,0.082,2.47,1.279,2.386,2.686c-0.008,0.182-0.172,2.752-0.943,6.418c0.822,0.193,1.646,0.389,2.455,0.568	c0.832,0.191,1.652,0.373,2.457,0.543c0.724-3.574,1.19-6.611,1.203-6.674c0.211-1.387,1.508-2.338,2.892-2.129	c1.392,0.209,2.344,1.504,2.138,2.893c-0.037,0.244-0.509,3.287-1.254,6.934c1.704,0.332,3.32,0.623,4.852,0.885	c0.564-3.084,0.703-5.535,0.703-5.58c0.066-1.402,1.262-2.482,2.664-2.414c1.404,0.068,2.486,1.26,2.414,2.658	c-0.009,0.209-0.146,2.783-0.75,6.096C220.991,474.524,223.949,474.786,226.402,474.899z M179.297,481.114	c1.985,4.289,5.445,6.768,8.021,7.654c3.348,1.16,12.205,3.021,19.562,3.828c8.07,0.893,14.379-3.598,17.976-12.67	c-2.701-0.154-5.592-0.471-8.584-0.887c-0.561,1.826-1.274,3.646-2.196,5.264c-0.693,1.221-2.242,1.641-3.464,0.951	c-1.219-0.695-1.646-2.248-0.949-3.473c0.609-1.072,1.113-2.289,1.531-3.543c-1.577-0.27-3.166-0.568-4.737-0.871	c-0.539,2.107-1.157,4.111-1.806,5.609c-0.561,1.287-2.062,1.871-3.35,1.312c-1.289-0.559-1.871-2.057-1.312-3.344	c0.525-1.205,1.027-2.838,1.488-4.607c-0.824-0.182-1.641-0.363-2.449-0.545c-0.854-0.191-1.729-0.398-2.601-0.609	c-0.458,1.475-0.995,3.006-1.653,4.559c-0.541,1.291-2.041,1.896-3.332,1.352s-1.901-2.037-1.354-3.328	c0.548-1.279,1.001-2.555,1.39-3.783c-4.283-1.086-8.686-2.293-13.148-3.596C177.252,475.069,178.186,478.727,179.297,481.114z M95.55,417.768c-1.127-0.205-3.363-0.189-5.597,2.24c-3.539,3.834-5.2,9.031-4.944,15.436l0,0c0.071,1.633,0.299,2.547,0.761,3.863	c0.825,2.326,2.807,3.865,4.255,4.127c1.721,0.316,3.664-0.689,5.478-2.838c3.963-4.701,5.672-13.322,3.728-18.824	C98.424,419.477,97.119,418.055,95.55,417.768z"/><path fill="#FFFFFF" d="M121.515,0C88.767,0,81.004,16.791,81.004,16.791s37.786-2.731,37.786,34.588	c0,16.795-9.14,28.179-18.814,40.226c-11.239,13.991-23.971,29.85-23.971,56.454c0,44.039,28.292,64.699,53.253,82.925	c21.746,15.882,42.284,30.88,42.284,59.121c0,28.398-12.455,50.413-18.14,56.095c-9.535,9.535-18.127,11.27-25.024,12.664	c-7.085,1.43-13.78,2.805-15.185,12.982c-26.22,15.746-42.104,43.793-42.104,74.223c0,1.186,0.025,2.379,0.072,3.57	c0.942,23.127,10.834,44.502,27.851,60.186c17.016,15.686,39.124,23.803,62.246,22.859c23.125-0.941,44.496-10.836,60.184-27.848	c15.687-17.016,23.804-39.125,22.856-62.244c-1.432-35.303-23.834-65.898-57.067-77.945l0.127,0.047	c-0.021-0.01-0.453-0.182-0.453-0.182c-0.004-0.004-0.783-0.275-0.783-0.275c-4.203-1.451-8.971-3.1-8.971-13.908	c0-10.475,4.754-11.344,14.219-13.082c5.626-1.033,12.509-2.295,19.259-6.419c12.015-7.333,14.269-16.18,12.081-18.364	c-2.977-2.98-6.258,3.28-18.352,6.923c-4.358,1.316-8.746,2.081-11.711,2.081c-2.465,0-4.305-0.207-5.654-0.452	c6.351-11.898,13.466-21.639,13.545-21.74l1.55-2.11l-1.853-1.853c-2.457-2.456-3.871-7.566-3.871-14.418	c0-8.454,2.15-19.556,7.14-31.609c5.904-14.243,29.334-60.727,83.075-60.727h3.051v-3.05c0-19.213-1.756-36.883-5.214-52.519	l-0.674-3.038c0,0-5.218,1.481-9.563,2.451c-0.518,0.114-4.583,1.113-4.767,0.255c-0.164-0.758,2.975-2.335,4.06-2.879	c4.081-2.03,9.168-4.166,9.168-4.166l-0.701-2.445c-3.834-13.378-7.691-19.772-7.856-20.039l-1.245-2.038l-2.271,0.719	c-44.752,14.098-54.321,43.795-60.039,61.535c-2.783,8.621-4.504,13.498-7.616,13.498c-9.237,0-16.878-7.639-19.39-10.15	c-27.901-27.904-25.766-48.021-22.524-78.476c1.147-10.747,2.444-22.925,2.444-36.834C163.438,16.327,150.117,0,121.515,0"/><path fill="#002156" d="M174.593,290.104c0,28.282-12.063,51.281-19.033,58.25c-21.598,21.6-39.413,5.871-39.606,27.541	c-9.801,8.877-16.852,22.371-20.312,37.783c0.215,0.021,0.429,0.053,0.64,0.092c2.028,0.369,3.77,1.529,5.1,3.359	c27.432-22.357,69.668-34.113,101.95-26.812c10.264,2.32,18.969,6.109,25.562,11.906c-9.914-16.033-25.068-28.408-42.982-34.83	c-4.253-1.525-11.811-3.271-11.811-17.066c0-25.75,28.17-5.73,46.731-33.776c0.908-1.385-0.399-2.594-1.489-1.505	c-5.613,5.61-19.402,9.471-26.695,9.471c-7.301,0-10.047-1.662-10.047-1.662c6.893-13.716,15.477-25.389,15.477-25.389	c-17.23-17.23,11.77-111.962,88.502-111.962c0-21.975-2.322-39.115-5.143-51.861c-1.826,0.445-16.279,3.853-16.94,0.814	c-0.585-2.693,10.646-8.531,14.513-10.452c-3.771-13.135-7.527-19.291-7.527-19.291c-65.769,20.721-52.551,75.173-68.572,75.173	c-10.428,0-18.62-8.117-21.545-11.043c-39.283-39.277-20.975-65.272-20.975-117.467c0-35.161-13.655-48.329-38.873-48.329	c-25.216,0-34.226,10.919-34.226,10.919s34.551,1.119,34.551,37.41c0,37.994-42.786,48.481-42.786,96.679	C79.055,228.291,174.593,226.784,174.593,290.104 M129.047,51.379c0-4.658-0.501-8.864-1.41-12.66c0,0,7.52-0.393,7.52-9.545	c0-7.544-5.033-12.688-6.382-12.688c-1.089,0-1.359,1.156-3.716,1.156c-5.743,0-6.164-7.339-6.164-7.339	c0.85-0.029,1.724-0.042,2.62-0.042c16.444,0,31.664,4.979,31.664,41.119c0,13.365-1.266,25.257-2.382,35.749	c-1.106,10.362-2.128,20.001-1.834,29.413c0,0-28.635-3.375-28.635-24.918C120.328,77.635,129.047,74.231,129.047,51.379z M88.813,447.336c-1.842-0.461-3.433-1.604-4.661-3.318c-6.228,9.607-8.854,18.197-6.564,25.906	c9.581,32.352,38.123,56.242,72.306,59.424C117.224,519.424,93.046,485.383,88.813,447.336z M82.123,428.217	c-2.058-1.467-3.821-2.84-5.075-4.037c-2.185,8.047-3.193,16.562-2.835,25.334c0.07,1.773,0.197,3.529,0.373,5.268	c1.264-5.184,3.754-10.6,7.322-16.123C81.218,435.426,81.328,431.75,82.123,428.217z M83.734,423.28	c0.863-1.961,1.944-3.77,3.231-5.295c1.035-1.221,2.138-2.189,3.309-2.91c3.109-14.488,9.602-27.395,19.093-37.15	C95.196,388,84.335,402.366,78.625,419.036C79.383,420.075,81.398,421.641,83.734,423.28z M206.324,497.659	c-7.074-0.785-16.538-2.654-20.67-4.086c-4.612-1.596-8.715-5.447-10.971-10.316c-0.934-2.012-1.779-4.688-1.914-7.932	c-0.076-1.941,0.109-4.08,0.678-6.395c-25.936-7.91-53.408-18.896-72.533-29.109c-0.674,1.232-1.443,2.379-2.306,3.398	c-1.438,1.703-3.054,2.938-4.717,3.643c1.796,15.912,7.322,31.506,16.121,45.092c11.672,18.021,27.569,30.371,44.741,34.26	c6.088,1.371,14.045,3.084,21.165,1.506c26.396-5.844,47.913-24.102,58.43-48.119c-1.232,0.219-2.617,0.346-4.104,0.396	C224.223,497.618,211.557,498.237,206.324,497.659z M235.874,416.352c-3.851-10.084-16.717-17.234-33.666-21.074	c-31.335-7.084-72.495,4.619-98.686,26.652c1.006,4.02,0.708,8.812-0.643,13.186c18.872,10.146,46.318,21.131,72.213,29.012	c6.094-13.994,17.762-16.662,26.862-14.389c6.519,1.627,10.71,2.479,13.769,3.096l3.366,0.711c4.325,1.012,8.12,3.885,10.396,7.889	c1.613,2.83,3.095,7.305,2.084,13.467c3.182-0.188,4.722-0.721,5.078-1.143c3.396-9.688,5.051-20.166,4.604-31.041	C240.877,433.436,239.005,424.577,235.874,416.352z M179.297,481.114c1.985,4.289,5.445,6.768,8.021,7.654	c3.348,1.16,12.205,3.021,19.562,3.828c8.07,0.893,14.379-3.598,17.976-12.67c-2.701-0.154-5.592-0.471-8.584-0.887	c-0.561,1.826-1.274,3.646-2.196,5.264c-0.693,1.221-2.242,1.641-3.464,0.951c-1.219-0.695-1.646-2.248-0.949-3.473	c0.609-1.072,1.113-2.289,1.531-3.543c-1.577-0.27-3.166-0.568-4.737-0.871c-0.539,2.107-1.157,4.111-1.806,5.609	c-0.561,1.287-2.062,1.871-3.35,1.312c-1.289-0.559-1.871-2.057-1.312-3.344c0.525-1.205,1.027-2.838,1.488-4.607	c-0.824-0.182-1.641-0.363-2.449-0.545c-0.854-0.191-1.729-0.398-2.601-0.609c-0.458,1.475-0.995,3.006-1.653,4.559	c-0.541,1.291-2.041,1.896-3.332,1.352s-1.901-2.037-1.354-3.328c0.548-1.279,1.001-2.555,1.39-3.783	c-4.283-1.086-8.686-2.293-13.148-3.596C177.252,475.069,178.186,478.727,179.297,481.114z M226.402,474.899	c1.043-5.162-0.084-8.756-1.34-10.953c-1.571-2.773-4.178-4.762-7.125-5.451l-3.225-0.678c-2.934-0.594-7.359-1.492-13.99-3.148	c-8.883-2.217-16.504,1.85-20.711,10.92c4.325,1.258,8.588,2.42,12.74,3.473c0.669-3.23,0.812-5.473,0.812-5.512	c0.086-1.398,1.289-2.469,2.688-2.387c1.401,0.082,2.47,1.279,2.386,2.686c-0.008,0.182-0.172,2.752-0.943,6.418	c0.822,0.193,1.646,0.389,2.455,0.568c0.832,0.191,1.652,0.373,2.457,0.543c0.724-3.574,1.19-6.611,1.203-6.674	c0.211-1.387,1.508-2.338,2.892-2.129c1.392,0.209,2.344,1.504,2.138,2.893c-0.037,0.244-0.509,3.287-1.254,6.934	c1.704,0.332,3.32,0.623,4.852,0.885c0.564-3.084,0.703-5.535,0.703-5.58c0.066-1.402,1.262-2.482,2.664-2.414	c1.404,0.068,2.486,1.26,2.414,2.658c-0.009,0.209-0.146,2.783-0.75,6.096C220.991,474.524,223.949,474.786,226.402,474.899z M95.55,417.768c-1.127-0.205-3.363-0.189-5.597,2.24c-3.539,3.834-5.2,9.031-4.944,15.436l0,0c0.071,1.633,0.299,2.547,0.761,3.863	c0.825,2.326,2.807,3.865,4.255,4.127c1.721,0.316,3.664-0.689,5.478-2.838c3.963-4.701,5.672-13.322,3.728-18.824	C98.424,419.477,97.119,418.055,95.55,417.768z"/><path fill="#002156" d="M29.8,519.252c6.412,4.229,13.203,8.033,13.203,8.033l-2.377,6.16c-0.888-3.732-4.59-5.758-9.367-8.715	l-15.64,22.615c-1.91,2.729-5.634,8.699-5.934,11.025c0,0-2.567-1.629-4.909-3.375C2.327,553.17,0,551.481,0,551.481	c2.331-0.568,6.357-6.506,8.785-9.797l15.216-21.711c-5.699-4.406-7.924-5.27-11.951-5.479l5.416-4.062	C17.466,510.432,22.671,514.553,29.8,519.252"/><path fill="#002156" d="M277.641,595.864l0.473,0.518c-0.442-0.023-0.809,0.205-1.284,0.473l1.373,2.639	c0.268,0.488,0.647,1.229,0.896,1.283c0,0-0.294,0.168-0.645,0.346c-0.307,0.15-0.598,0.27-0.598,0.27	c0.004-0.328-0.102-0.59-0.467-1.34l-1.437-2.768c-0.482,0.242-1.009,0.482-1.151,0.873l-0.122-0.766c0,0,0.71-0.344,1.476-0.738	C277.044,596.192,277.641,595.864,277.641,595.864"/><path fill="#002156" d="M39.923,575.35c-10.864-5.184-12.308-17.154-6.959-28.359c5.373-11.252,15.614-17.584,26.429-12.416	c10.81,5.162,12.333,17.104,6.956,28.357C61,574.139,50.787,580.54,39.923,575.35 M57.839,537.823	c-6.947-3.316-12.409,4.531-16.528,13.158c-4.119,8.625-6.813,17.863,0.135,21.182c6.947,3.311,12.438-4.588,16.558-13.213	C62.123,550.323,64.787,541.137,57.839,537.823z"/><path fill="#002156" d="M88.54,546.145c7.347,2.074,13.326,3.463,13.326,3.463l-0.636,6.576c-1.969-2.844-2.873-3.539-9.144-5.137	l-7.603,25.564c-0.61,2.34-3.644,11.193-2.672,12.857c0,0-2.112-0.449-5.521-1.395c-3.833-1.062-5.634-1.781-5.634-1.781	c1.966-1.293,4.439-8.861,5.248-11.938l7.641-25.734c-6.497-2.168-8.007-2.318-11.112-0.875l3.766-5.609	C76.198,542.139,80.44,543.85,88.54,546.145"/><path fill="#002156" d="M118.848,552.936c7.241,1.094,14.063,1.713,14.063,1.713l0.274,6.598c-2.706-2.406-3.725-3.186-10.874-4.086	l-4.14,26.254c-0.291,2.406-1.83,11.537-0.64,13.051c0,0-2.508-0.277-5.971-0.762c-3.463-0.492-5.591-0.98-5.591-0.98	c1.691-1.32,3.097-9.967,3.391-12.375l4.242-26.58c-6.195-1.236-7.468-0.762-10.443,0.965l2.697-6.244	C105.855,550.489,111.64,551.846,118.848,552.936"/><path fill="#002156" d="M145.697,577.897l-0.545,17.643c9.251,0.123,15.584-0.463,18.405-4.477l-1.416,8.016	c0,0-5.124,0.104-12.626,0c-8.246-0.117-14.718-0.656-14.718-0.656c1.373-1.357,1.713-9.957,1.729-12.373l0.754-17.316	c0.033-4.611,0.454-12.062-1.094-13.629c6.702,0.463,5.849,0.455,12.004,0.693c8.059,0.32,12.624,0.08,12.624,0.08l1.014,6.619	c-3.146-2.625-7.863-2.934-15.564-2.979l-0.424,14.809l11.827,0.066c1.065,0.012,1.132,0.605,1.129,1.791	c-0.013,1.17-0.029,1.793-1.153,1.781L145.697,577.897"/><path fill="#002156" d="M197.355,583.208c0.683,6.42,1.359,11.033,2.824,11.875c-0.367,0.664-1.527,1.535-3.066,1.699	c-1.855,0.197-3.258-0.715-4.545-2.205l-20.973-24.057l0.791,15.305c0.254,2.406,0.53,11.523,2.027,12.742l-6.988,0.316	c1.217-1.502,0.893-10.189,0.635-12.602l-0.988-17.271c-0.256-2.406-0.706-11.959-2.209-13.166l6.408-0.232l21.494,25.527	l-1.789-14.688c-0.256-2.414-1.563-11.166-3.01-12.383c0,0,0.771-0.076,3.381-0.43c2.604-0.354,3.551-0.543,3.551-0.543	c-1.207,1.506,0.193,10.484,0.453,12.893L197.355,583.208"/><path fill="#002156" d="M236.758,574.106c0.745,2.986,2.223,10.656,4.415,12.158c0,0-3.317,0.961-5.345,1.584	c-1.805,0.555-5.781,1.586-5.781,1.586c0.938-1.656-1.152-10.863-1.73-13.162l-1.992-8.012l-13.326,3.27l1.516,8.146	c0.438,2.633,1.825,11.496,3.622,12.578c0,0-1.864,0.385-5.747,1.182c-3.253,0.67-5.519,1.027-5.519,1.027	c0.998-1.658-0.341-9.877-0.753-12.498l-3.23-17.223c-0.589-3.211-2.07-11.332-3.854-12.283c0,0,1.729-0.328,5.533-1.068	c3.808-0.74,5.672-1.244,5.672-1.244c-0.938,1.928,0.716,9.721,1.166,12.449l1.024,5.467l13.113-3.197l-1.414-5.584	c-0.771-2.959-2.399-10.057-4.222-11.373c0,0,1.801-0.521,5.449-1.559c3.648-1.029,5.222-1.619,5.222-1.619	c-0.724,1.969,1.306,8.883,2.146,12.445L236.758,574.106"/><path fill="#002156" d="M261.104,563.897l-13.002,5.092l0.45,7.141c0.29,2.438,0.3,4.676,0.833,5.939	c0.262,0.627,0.713,1.041,1.141,1.266c0,0-1.355,0.492-3.59,1.217c-2.234,0.723-3.463,1.078-3.463,1.078	c0.779-1.346,0.969-3.195,0.9-5.506l-1.146-33.852c-0.107-1.229-0.256-2.383-0.664-3.35c-0.36-0.863-0.971-1.348-1.396-1.709	c1.479-0.959,3.333-2.012,5.217-2.801c2.987-1.26,4.247-1.209,6.427,1.332l19.076,23.66c3.469,4.516,6.535,7.555,8.53,8.158	c0,0-1.949,0.9-5.617,2.533c-3.666,1.629-6.093,2.555-6.093,2.555c0.218-0.766,0.243-1.578-0.234-2.799	c-0.511-1.316-2.388-3.547-3.599-5.236L261.104,563.897 M258.744,561.094l-11.555-16.01l0.814,20.109L258.744,561.094z"/><path fill="#002156" d="M315.586,551.624c-2.615,1.764-4.574,3.113-4.574,3.113c-0.191-2.574-5.162-8.938-6.621-10.867	l-11.207-14.619l9.015,28.818c-0.351,0.572-0.989,1.373-1.583,1.822c-1.779,1.352-3.51,1.086-5.09-0.158l-21.34-17.691l7.469,13.756	c1.828,3.484,5.349,10.734,7.719,11.449c0,0-1.473,0.787-3.338,1.691c-1.852,0.896-2.983,1.424-2.983,1.424	c0.413-2.025-3.054-8.041-5.073-11.893l-8.311-15.633c-2.521-4.703-5.302-9.492-7.691-10.447c1.849-0.895,2.406-1.17,5.049-2.475	c2.205-1.086,4.146-2.15,4.146-2.15l24.025,20.438l-9.45-28.936c0,0,1.266-0.859,3.668-2.463c2.396-1.604,4.558-3.197,4.558-3.197	c0.182,2.588,5.186,9.186,7.008,11.547l10.347,13.312c2.194,2.74,6.298,8.838,9.219,9.535	C320.543,548,318.204,549.852,315.586,551.624"/><path fill="#002156" d="M282.982,594.569l1.18,1.51c0.346,0.422,0.695,0.943,1.064,1.098c0,0-0.308,0.221-0.605,0.422	c-0.298,0.197-0.52,0.354-0.52,0.354c-0.082-0.406-0.582-1.039-0.746-1.258l-1.254-1.658l1.025,3.27	c-0.042,0.068-0.113,0.156-0.182,0.205c-0.27,0.207-0.467,0.09-0.647-0.053l-2.471-1.975l0.965,1.564	c0.229,0.404,0.644,1.15,0.972,1.303c0,0-0.182,0.107-0.404,0.238c-0.193,0.113-0.383,0.211-0.383,0.211	c0.045-0.396-0.453-1.174-0.603-1.443l-1.06-1.775c-0.244-0.404-0.627-0.994-0.969-1.094c0,0,0.331-0.172,0.657-0.354	c0.205-0.113,0.41-0.246,0.534-0.312l2.734,2.275l-1.053-3.244c0.102-0.047,0.26-0.145,0.506-0.295	c0.314-0.193,0.576-0.369,0.576-0.369C282.299,593.583,282.757,594.264,282.982,594.569"/><path fill="#002156" d="M69.709,604.241c2.227,0.816,5.1,1.814,5.1,1.814c-2.419,1.754-4.641,8.73-6.084,12.518l-5.58,15.48	c-1.493,4.203-4.039,10.293-3.186,12.467c0,0-3.07-1.061-5.554-1.941c-2.125-0.758-3.332-1.162-5.583-2.125	c2.735-0.725,5.313-9.822,6.152-12.111l2.554-7.225l-13.373-5.574l-3.867,8.264c-1.259,2.869-4.271,9.369-3.555,11.406	c0,0-2.362-0.963-5.82-2.555c-4.073-1.875-4.96-2.371-4.96-2.371c2.87-1.41,4.569-6.043,6.754-10.723l6.993-15.488	c2.363-5.301,4.497-9.896,4.337-12.918c0,0,1.249,0.744,4.688,2.289c2.74,1.232,4.14,1.848,5.677,2.465	c-2.176,0.867-5.205,8.68-6.804,12.186l-2.049,4.377l13.064,5.383l2.004-4.961c0.938-2.533,4.178-10.107,3.479-12.699	C64.096,602.196,66.777,603.168,69.709,604.241"/><path fill="#002156" d="M84.815,654.483c-11.646-3.064-15.35-14.342-12.261-26.09c3.105-11.811,11.924-19.725,23.513-16.674	c11.584,3.045,15.366,14.275,12.266,26.086C105.24,649.559,96.463,657.545,84.815,654.483 M95.172,615.124	c-7.444-1.957-11.29,6.576-13.671,15.623c-2.387,9.043-3.245,18.43,4.194,20.391c7.444,1.953,11.311-6.641,13.688-15.684	C101.769,626.409,102.614,617.083,95.172,615.124z"/><path fill="#002156" d="M116.361,658.639c0,0,0.741-0.801,1.246-2.432c0.712-2.293,1.17-6.703,1.718-10.141l3.261-25.213	c-6.947-0.871-8.711-0.371-11.762,1.434l2.862-6.455c2.163,0.48,6.956,0.998,12.787,1.734c3.902,0.486,15.523,1.537,15.523,1.537	l0.395,6.455c-2.563-2.965-5.222-3.232-11.012-3.688l-3.248,25.297c-0.291,2.355-1.583,10.527-0.302,12.947	c-1.397-0.16-3.711-0.422-5.652-0.615C120.166,659.295,117.518,658.836,116.361,658.639"/><path fill="#002156" d="M171.718,649.883c0.081,7.59-6.093,13.086-15.589,12.945c-7.385-0.107-11.247-3.146-12.725-4.383	l1.537-7.203c2.293,4.59,6.093,7.926,10.371,7.994c4.469,0.062,7.986-2.568,8.059-6.998c0.046-3.219-1.727-5.164-9.181-9.043	c-7.145-3.689-9.804-7.371-9.804-12.859c0-7.473,6.5-11.268,14.138-11.27c5.617-0.006,9.535,1.715,11.996,3.031l-1.586,6.6	c-3.408-4.549-6.492-6.236-10.212-6.287c-3.665-0.061-6.26,1.939-6.236,5.705c0.025,4.104,4.54,6.324,10.628,9.725	C170.115,641.756,171.677,645.684,171.718,649.883"/><path fill="#002156" d="M206.298,626.631c0.271,0.891,0.435,1.973,0.519,2.822c0.072,0.783,0.109,1.822,0.017,2.803	c-0.201,2.461-1.368,5.318-3.299,7.33c-2.949,3.08-6.792,4.611-11.888,4.848c-1.965,0.121-2.436-0.479-2.566-1.896l-0.012-0.309	c0,0-0.043-0.549,0.387-0.576l0.493-0.051c1.506-0.186,3.739-0.656,5.532-2.836c1.718-2.242,2.306-5.223,2.006-8.43	c-0.318-3.33-1.319-5.73-3.559-7.455c-1.943-1.494-4.229-1.979-6.58-1.793c0,0-0.943,0.08-1.99,0.246c0,0-0.614,0.053-0.562,0.654	l2.524,26.15c0.219,2.303,0.847,10.406,2.734,12.078c0,0-2.148,0.227-6.197,0.559c-3.088,0.254-5.494,0.314-5.494,0.314	c0.812-2.006,0.677-4.973,0.475-8.428l-1.957-20.621c-0.222-2.361-0.621-10.449-2.545-12.447c0,0,5.176-0.766,14.752-1.67	c5.008-0.475,9.11,0.164,12.648,2.559C204.051,622.042,205.643,624.313,206.298,626.631"/><path fill="#002156" d="M245.48,635.063c2.049,9.064-2.205,16.781-11.635,19.139c-6.628,1.656-16.171-0.775-18.834-12.4	l-3.244-13.727c-0.854-3.842-2.25-10.646-4.48-12.418c0,0,2.49-0.354,6.393-1.08c3.9-0.729,5.713-1.162,5.713-1.162	c-1.025,1.615,0.051,7.975,1.069,12.645l4.142,17.449c0.738,3.197,1.783,5.387,3.576,6.678c1.328,0.959,3.104,1.223,4.951,0.885	c1.684-0.312,3.434-1.264,4.352-2.967c0.973-1.787,0.968-4.375,0.219-7.57l-4.648-17.447c-1.271-4.803-2.736-10.814-4.31-11.82	c0,0,1.894-0.514,5.483-1.541c2.717-0.773,4.334-1.244,5.506-1.658c-1.072,2.627,1.481,10.682,2.023,12.986L245.48,635.063"/><path fill="#002156" d="M287.827,631.487c0.914,0.35,1.897,0.59,2.724,0.238c-0.094,0.57-0.628,1.705-1.523,2.623	c-3.812,3.908-7.393,3.236-8.604,2.756c-6.575-2.508-17.571-12.254-18.024-13.316c0,0-0.113-0.279,0.172-0.396l0.398-0.176	c1.717-0.715,3.666-2.656,4.436-4.494c1.229-2.693,1.021-5.111-0.228-8.074c-1.292-3.08-3.555-5.02-5.327-5.541	c-2.621-0.775-4.576-0.16-5.769,0.314c0,0-1.573,0.619-2.041,1.09c0,0-0.315,0.262,0.051,1.334l8.308,23.727	c1.262,3.49,3.453,10.299,5.439,11.445c0,0-2.244,0.885-5.646,2.113c-3.404,1.229-5.475,1.801-5.475,1.801	c0.693-2.65-1.928-9.854-2.589-11.875l-5.372-16.021c-1.343-3.863-3.795-10.785-5.791-11.893c0,0,3.922-1.098,12.738-4.801	c4.688-1.969,9.23-2.811,13.328-1.611c2.488,0.73,4.168,1.98,5.543,3.973c0.525,0.77,0.912,1.527,1.246,2.312	c0.306,0.729,0.517,1.566,0.656,2.344c0.434,2.422,0.069,4.994-1.33,7.424c0,0-1.264,2.443-3.959,4.361	C271.188,621.143,279.846,628.479,287.827,631.487"/></svg>