<?xml version="1.0" encoding="iso-8859-1"?><!-- Generator: Adobe Illustrator 16.0.0, SVG Export Plug-In . SVG Version: 6.00 Build 0) --><!DOCTYPE svg PUBLIC "-//W3C//DTD SVG 1.1//EN" "http://www.w3.org/Graphics/SVG/1.1/DTD/svg11.dtd"><svg version="1.1" id="Layer_1" xmlns="http://www.w3.org/2000/svg" xmlns:xlink="http://www.w3.org/1999/xlink" x="0px" y="0px" width="146.052px" height="212.7px" viewBox="0 0 146.052 212.7" style="enable-background:new 0 0 146.052 212.7;" xml:space="preserve"><path style="fill:#F0C560;" d="M0.719,66.847c-5.394,86.488,52.601,134.998,72.308,145.436	c19.704-10.438,77.702-58.948,72.306-145.436H0.719z"/><path style="fill:#4485C6;" d="M144.866,94.854c0.875-8.847,1.079-18.182,0.466-28.007H0.719	c-0.612,9.834-0.406,19.177,0.469,28.029L144.866,94.854z"/><path d="M145.333,66.479H0.372l-0.021,0.346c-1.253,20.091,0.855,39.562,6.266,57.871c4.56,15.431,11.47,30.098,20.538,43.594	c15.485,23.048,34.296,38.28,45.701,44.32l0.172,0.091l0.173-0.091c11.404-6.041,30.215-21.273,45.699-44.319	c9.068-13.497,15.977-28.164,20.538-43.594c5.41-18.309,7.519-37.779,6.265-57.871l-0.021-0.346H145.333z M144.981,67.216	c0.219,3.62,0.333,7.22,0.333,10.796c0,16.064-2.205,31.652-6.585,46.474c-4.539,15.358-11.417,29.958-20.443,43.392	c-7.268,10.819-15.726,20.631-25.137,29.167c-9.776,8.865-17.216,13.265-20.122,14.819c-2.905-1.555-10.346-5.954-20.123-14.819	c-9.412-8.535-17.87-18.348-25.138-29.167c-9.025-13.434-15.903-28.033-20.442-43.392c-4.38-14.823-6.587-30.412-6.587-46.479	c0-3.574,0.114-7.173,0.333-10.792C1.769,67.216,144.282,67.216,144.981,67.216z"/><path style="fill:#FFFFFF;" d="M9.658,74.955h2.086l2.488,10.57h0.027l2.461-10.57h1.933l-3.267,13.464h-2.393L9.658,74.955z"/><path style="fill:#FFFFFF;" d="M25.716,85.332h-3.934l-0.848,3.087h-2.016L22.7,74.955h2.196l3.81,13.464H26.55L25.716,85.332	l-0.542-2.123l-1.403-5.554h-0.029l-1.404,5.554h2.836"/><path style="fill:#FFFFFF;" d="M29.958,74.955h1.944v11.341h3.769v2.123h-5.713V74.955z"/><path style="fill:#FFFFFF;" d="M36.909,74.955h5.728v2.122h-3.781v3.316h3.461v2.123h-3.461v3.78h3.809v2.123h-5.755V74.955z"/><path style="fill:#FFFFFF;" d="M44.541,74.955h2.391l3.698,10.067h0.027V74.955h1.863v13.464h-2.377L46.431,78.35h-0.028v10.069	h-1.862V74.955z"/><path style="fill:#FFFFFF;" d="M61.738,88.226c-0.708,0.23-1.474,0.423-2.21,0.423c-3.142,0-5.325-2.18-5.325-6.73	c0-4.609,2.03-7.193,5.325-7.193c0.639,0,1.489,0.174,2.195,0.56l-0.138,2.276c-0.737-0.58-1.404-0.716-2.099-0.716	c-2.001,0-3.254,2.123-3.254,4.88c0,2.739,1.224,4.803,3.295,4.803c0.766,0,1.669-0.231,2.127-0.56L61.738,88.226z"/><path style="fill:#FFFFFF;" d="M63.002,74.955h1.946v13.464h-1.946V74.955z"/><path style="fill:#FFFFFF;" d="M87.996,88.226c-0.709,0.23-1.475,0.423-2.211,0.423c-3.143,0-5.324-2.18-5.324-6.73	c0-4.609,2.029-7.193,5.324-7.193c0.64,0,1.487,0.174,2.197,0.56l-0.14,2.276c-0.737-0.58-1.405-0.716-2.101-0.716	c-2,0-3.252,2.123-3.252,4.88c0,2.739,1.224,4.803,3.295,4.803c0.764,0,1.667-0.231,2.125-0.56L87.996,88.226z"/><path style="fill:#FFFFFF;" d="M89.258,85.717h1.947v2.702h-1.947V85.717z"/><path style="fill:#FFFFFF;" d="M98.471,83.424c0,1.369,0.349,3.219,1.571,3.219c1.238,0,1.641-1.812,1.641-3.219	c0-1.39-0.473-3.165-1.668-3.165C98.807,80.259,98.471,82.091,98.471,83.424h-1.946c0-2.741,0.808-5.17,3.003-5.17	c0.932,0,1.586,0.444,2.142,1.387h0.027v-5.688h1.865v14.466h-1.809v-1.12h-0.027c-0.555,0.964-1.321,1.35-2.197,1.35	c-2.195,0-3.003-2.506-3.003-5.225"/><path style="fill:#FFFFFF;" d="M109.967,82.477c-0.053-1.254-0.471-2.333-1.515-2.333c-1.042,0-1.57,1.002-1.653,2.333H109.967	l1.782,1.776h-4.95c0.083,1.599,0.889,2.507,2.042,2.507c0.904,0,1.684-0.463,2.379-1.002v2.101	c-0.682,0.521-1.462,0.791-2.462,0.791c-2.362,0-3.739-1.889-3.739-5.148c0-2.874,1.1-5.246,3.324-5.246	c2.655,0,3.406,2.526,3.406,5.999"/><path style="fill:#FFFFFF;" d="M117.236,74.955h5.394v2.122h-3.449v3.316h3.281v2.123h-3.281v5.903h-1.945V74.955z"/><path style="fill:#FFFFFF;" d="M124.022,85.717h1.946v2.702h-1.946V85.717z"/><path style="fill:#FFFFFF;" d="M72.829,85.332h-3.935l-0.847,3.087h-2.016l3.782-13.464h2.196l3.809,13.464h-2.155L72.829,85.332	l-0.542-2.123l-1.404-5.554h-0.027l-1.407,5.554h2.837"/><path d="M143.563,104.877c-2.99-27.017-12.061-45.357-22.26-38.785c-1.361-12.692-14.505-14.732-22.892-5.667	c-0.226-8.158-7.026-16.093-15.865-13.826c-0.68,1.815-2.719,5.213-3.628,6.12c0.682,1.814,2.72,9.973,3.628,11.56	c2.719-1.358,3.4-1.587,8.611,3.4H80.052l-2.72-8.159c-0.905-1.814-1.359-1.134-2.039,0l-2.266,4.759l-2.268-4.759	c-0.679-1.134-1.132-1.814-2.04,0L66,67.68H54.892c5.216-4.987,5.895-4.759,8.615-3.4c0.905-1.587,2.947-9.746,3.626-11.56	c-0.907-0.906-2.946-4.305-3.626-6.12c-8.84-2.267-15.64,5.668-15.866,13.826C39.256,51.36,26.108,53.4,24.75,66.092	C14.548,59.521,5.485,77.879,2.492,104.894C0.593,93.155-0.129,80.473,0.719,66.847C3.629,20.213,36.641,4.664,50.352,0	c-6.651,12.992-3.97,33.912,15.867,29.166c0.252-1.128,1.897-3.584,3.51-4.679c-2.244-0.96-4.403-5.545-3.418-8.922	c-3.841-0.544-4.424-4.638-3.925-6.667c0.501-2.03-0.315-5.903-1.647-7.068c4.275,1.462,8.025,5.855,8.863,8.823	c0.927-0.884,2.292-1.026,3.426-1.053c1.133-0.026,2.497,0.169,3.425,1.053c0.837-2.968,4.588-7.361,8.861-8.823	c-1.332,1.165-2.149,5.038-1.648,7.068c0.503,2.028-0.082,6.122-3.922,6.667c0.985,3.377-1.174,7.962-3.419,8.922	c1.613,1.095,3.257,3.55,3.511,4.679C99.669,33.912,102.352,12.992,95.698,0c13.712,4.664,46.724,20.213,49.634,66.847	C146.182,80.458,145.458,93.147,143.563,104.877z"/><path style="fill:#76787A;" d="M49.833,52.81c-1.334,2.279-2.118,4.936-2.192,7.616c-8.839-11.785-18.584-37.169-5.213-53.037	C36.99,19.177,36.841,37.032,49.833,52.81z"/><path style="fill:#76787A;" d="M96.22,52.81c1.333,2.279,2.116,4.936,2.191,7.616c8.84-11.785,18.586-37.169,5.213-53.037	C109.064,19.177,109.213,37.032,96.22,52.81z"/><path style="fill:#76787A;" d="M118.332,58.578c1.556,1.833,2.63,4.343,2.972,7.514c4.533-7.932,10.199-35.584-12.013-56.662	C115.41,20.31,126.919,35.876,118.332,58.578z"/><path style="fill:#76787A;" d="M143.56,104.894c1.898-11.739,2.623-24.421,1.772-38.047C142.422,20.213,109.411,4.664,95.698,0	C129.462,13.736,146.461,40.253,143.56,104.894z"/><path style="fill:#76787A;" d="M27.721,58.578c-1.556,1.833-2.631,4.343-2.971,7.514C20.216,58.16,14.548,30.508,36.763,9.431	C30.642,20.31,19.133,35.876,27.721,58.578z"/><path style="fill:#76787A;" d="M2.492,104.894C0.593,93.155-0.129,80.473,0.719,66.847C3.629,20.213,36.641,4.664,50.352,0	C16.59,13.736-0.409,40.253,2.492,104.894z"/><path style="fill:#CD3529;" d="M16.568,149.115c4.762,9.731,10.209,18.44,15.89,25.995l-0.002-80.234H16.59L16.568,149.115z"/><path style="fill:#CD3529;" d="M64.197,206.717c-4.725-3.392-10.173-7.939-15.899-13.562l0.023-98.28h15.867L64.197,206.717z"/><path style="fill:#CD3529;" d="M129.484,149.115c-4.762,9.731-10.207,18.44-15.889,25.995V94.876h15.867L129.484,149.115z"/><path style="fill:#CD3529;" d="M81.855,206.717c4.727-3.392,10.173-7.939,15.9-13.562l-0.023-98.28H81.866L81.855,206.717z"/><circle cx="73.027" cy="140.313" r="22.973"/><circle style="fill:#A46C39;" cx="73.027" cy="140.304" r="21.19"/><path d="M95.038,135.32c-2.848-3.775-6.435-6.656-10.674-8.58c-4.259-1.93-8.161-2.434-10.96-2.466	c-0.419-0.965-1.401-1.414-2.178-1.768c-0.195-0.088-0.396-0.181-0.596-0.281c-0.056-0.256,0.078-0.972,0.17-1.457	c0.111-0.594,0.236-1.269,0.276-1.992l-2.467-0.128c-0.029,0.559-0.135,1.12-0.238,1.667c-0.256,1.366-0.606,3.24,1.138,4.114	c0.245,0.122,0.483,0.228,0.692,0.325c0.336,0.153,0.841,0.384,0.933,0.513c0.004,0.013,0.009,0.058,0.004,0.137	c-0.061,0.171-0.507,0.568-0.803,0.832c-0.797,0.712-1.887,1.685-2.343,3.281c-0.792,2.764,0.686,6.341,3.689,9.085	c-0.453,2.047-1.464,3.495-2.951,4.204c-1.706,0.815-3.892,0.592-6.022-0.597c-3.391-3.609-5.594-10.815-2.483-18.302l0.888-2.015	l-3.855,2.954c-1.101,3.479-1.306,7.083-0.589,10.531c0.63,3.028,1.99,5.893,3.78,8.004c-1.488,2.719-3.622,5.051-7.696,3.791	l0.021,2.567c5.501,1.304,8.366-2.528,9.691-4.887c2.548,1.138,5.163,1.216,7.33,0.183c2.173-1.035,3.678-3.118,4.299-5.905	c1.617-0.387,4.04-0.664,5.96,0.411c1.305,0.727,2.256,2.012,2.835,3.823c-2.032,3.458-4.978,6.496-8.347,8.594	c-4.616,2.873-10.111,4.142-16.915,3.617l2.482,2.559c5.841,0.161,11.127-1.209,15.74-4.079c3.715-2.312,6.96-5.667,9.195-9.48	c1.776-0.495,3.565-0.772,4.929,0.043c1.084,0.646,1.933,1.938,2.528,4.886l1.697-3.063c-0.641-1.83-1.631-3.153-2.957-3.944	c-2.074-1.239-4.516-0.9-6.208-0.479c-0.797-2.119-2.063-3.676-3.776-4.632c-2.61-1.457-5.64-1.19-7.92-0.613	c-2.641-2.4-3.408-5.052-2.971-6.577c0.258-0.908,0.948-1.521,1.613-2.115c0.458-0.408,0.924-0.824,1.238-1.335	c3.911,0.035,13.74,1.18,20.53,11.005l0.857,1.172L95.038,135.32z"/></svg>