<?xml version="1.0" encoding="utf-8"?>
<!-- Generator: Adobe Illustrator 19.1.0, SVG Export Plug-In . SVG Version: 6.00 Build 0)  -->
<svg version="1.1" id="Layer_1" xmlns="http://www.w3.org/2000/svg" xmlns:xlink="http://www.w3.org/1999/xlink" x="0px" y="0px"
	 viewBox="-417.5 618 175.7 175.8" enable-background="new -417.5 618 175.7 175.8" xml:space="preserve">
<g>
	<path d="M-417.5,793.8L-417.5,793.8L-417.5,793.8L-417.5,793.8z M-329.5,618c-48.4,0-87.7,39.4-87.7,87.7
		c0,48.4,39.4,87.7,87.7,87.7c48.4,0,87.7-39.4,87.7-87.7S-281.2,618-329.5,618L-329.5,618z"/>
	<path fill="#CD3529" d="M-414.8,705.8c0,46.9,38.3,85.1,85.3,85.1c46.9,0,85.1-38.2,85.1-85.1c0-47.1-38.2-85.3-85.1-85.3
		C-376.6,620.5-414.8,658.7-414.8,705.8L-414.8,705.8z M-412.3,705.8c0-45.6,37.1-82.7,82.7-82.7c45.5,0,82.6,37.1,82.6,82.7
		c0,45.5-37,82.6-82.6,82.6C-375.1,788.3-412.3,751.3-412.3,705.8L-412.3,705.8z"/>
	<path fill="#FFFFFF" d="M-400.1,721.8c-0.3,0.2-0.7,0.7-0.9,1.2c-0.2,0.3-0.2,0.9,0,1.6c0.2,0.9,0.7,1.6,1.2,1.9
		c0.9,0.4,1.7,0.5,2.6,0.2c1-0.3,1.7-0.9,2.1-1.6c0.3-0.7,0.5-1.6,0.2-2.4c-0.2-0.5-0.3-0.9-0.7-1c-0.3-0.3-0.9-0.7-1.6-0.7l0,0
		l-0.3-1.6l0,0c0.9,0,1.9,0.2,2.6,0.7c0.9,0.7,1.4,1.4,1.6,2.3c0.3,1.2,0.3,2.6-0.3,3.6c-0.7,1.2-1.6,1.9-3,2.4
		c-1.4,0.3-2.6,0.2-3.7-0.3c-1-0.7-1.9-1.6-2.3-3c-0.2-0.5-0.2-1-0.2-1.6c0-0.5,0.2-0.9,0.3-1.2l0,0l-0.7,0.3l-0.3-1.2l3-0.9
		L-400.1,721.8L-400.1,721.8L-400.1,721.8z M-394.9,715.6l-1.4,0.2v-1l-6.6,0.5v1h-1.2l-0.3-3.8l1.4-0.2v1.2l6.6-0.5l-0.2-2.3h-1.4
		l-0.2-1.4l2.8-0.3L-394.9,715.6L-394.9,715.6L-394.9,715.6z M-398.9,704.2c0.9,0,1.4-0.2,1.6-0.3c0.3-0.3,0.5-0.7,0.5-1.2
		c0-0.7,0-1-0.3-1.4c-0.3-0.2-0.9-0.3-1.6-0.3l0,0l-4.5-0.2v0.9h-1.4l0.2-3.6h1.4l-0.2,1l4.3,0.2l0,0c0.7,0,1.2,0,1.6,0.2
		c0.3,0,0.7,0.2,1,0.3c0.3,0.3,0.7,0.7,0.9,1.2s0.3,1,0.3,1.7c-0.2,0.5-0.2,1.2-0.3,1.6c-0.3,0.5-0.5,0.9-0.9,1
		c-0.3,0.3-0.7,0.5-1,0.5c-0.5,0.2-1,0.2-1.7,0.2l0,0l-4.4-0.2v0.9h-1.4l0.2-3.7h1.2v1L-398.9,704.2L-398.9,704.2L-398.9,704.2z
		 M-398.4,691.7l3,0.7l0.2-0.7l0,0c0.2-0.7,0.2-1,0-1.4c-0.2-0.3-0.5-0.7-1-0.7c-0.5-0.2-1-0.2-1.4,0.2c-0.2,0.2-0.5,0.5-0.7,1.2
		l0,0L-398.4,691.7L-398.4,691.7L-398.4,691.7z M-401.9,690.8l2.3,0.7l0.2-0.7l0,0c0-0.5,0-0.9-0.2-1.2c-0.2-0.3-0.3-0.5-0.5-0.5
		c-0.5-0.2-0.9,0-1,0.2c-0.3,0.2-0.5,0.5-0.5,0.9l0,0L-401.9,690.8L-401.9,690.8L-401.9,690.8z M-394.7,695.3l-1.2-0.3l0.2-0.9
		l-6.4-1.6l-0.3,1l-1.2-0.3l0.7-3.3l0,0c0.3-1,0.7-1.7,1.2-2.3c0.5-0.3,1.2-0.5,1.7-0.3s0.9,0.3,1,0.7c0.3,0.3,0.5,0.7,0.5,1.4
		c0.2-0.7,0.7-1,1-1.4c0.5-0.2,1-0.3,1.7-0.2c0.9,0.2,1.4,0.7,1.7,1.4c0.3,0.7,0.3,1.6,0,2.8l0,0L-394.7,695.3L-394.7,695.3
		L-394.7,695.3z M-392.1,685.4l-1.2-0.3l0.3-1l-6.4-2.4l-0.3,1l-1-0.5l2.4-6.8l2.4,1l-0.5,1.4l-1.2-0.5l-1,2.8l2.1,0.9l1-2.4
		l1.2,0.5l-0.9,2.4l2.8,1l1-2.8l-1.4-0.5l0.7-1.4l2.6,1L-392.1,685.4L-392.1,685.4L-392.1,685.4z M-386.9,665.5l1.2-1.7l-3.3-1
		L-386.9,665.5L-386.9,665.5L-386.9,665.5z M-385,668.1l0.5-0.9l1.2,0.7l-2.1,2.8l-1-0.7l0.5-0.7l-4.4-5.8l-0.5,0.7l-1-0.7l2.8-4
		l1,0.9l-0.7,0.9l7,1.9l0.5-0.7l1,0.9l-1.9,2.8l-1.2-0.7l0.7-0.9l-1.7-0.5l-1.7,2.4L-385,668.1L-385,668.1L-385,668.1z
		 M-376.8,658.2l0.9-0.9l1,0.9l-3,3l-0.9-0.9l0.9-0.9l-5.1-4.7l-0.9,1l1,0.9l-1,1l-1.9-1.7l4.9-5.2l1.9,1.7l-1,1l-1-0.9l-0.7,0.9
		L-376.8,658.2L-376.8,658.2L-376.8,658.2z M-371.7,655.4l-0.7-1l0.7-0.5l-4.2-5.4l-0.9,0.5l-0.7-1l3-2.3l0.9,1l-0.9,0.7l4.2,5.4
		l1.9-1.6l-1-1.2l1.2-0.9l1.7,2.3L-371.7,655.4L-371.7,655.4L-371.7,655.4z M-364.2,650l-0.7-1.2l0.9-0.5l-3.3-5.9l-0.9,0.5
		l-0.7-1.2l6.3-3.5l1.2,2.3l-1.2,0.7l-0.7-1l-2.6,1.4l1.2,2.1l2.3-1.2l0.7,1.2l-2.3,1.2l1.6,2.6l2.6-1.4l-0.9-1.4l1.4-0.7l1.4,2.4
		L-364.2,650L-364.2,650L-364.2,650z M-366.8,639.5v-2.6l1.2-0.7l-0.5,2.8L-366.8,639.5L-366.8,639.5L-366.8,639.5z M-351.3,642.3
		l1-0.5l0.5,1.4l-4,1.2l-0.3-1.2l1.2-0.3l-2.3-6.5l-1.2,0.3l0.5,1.4l-1.6,0.3l-0.9-2.4l6.8-2.4l0.9,2.6l-1.4,0.5l-0.3-1.4l-1.2,0.5
		L-351.3,642.3L-351.3,642.3L-351.3,642.3z M-343.1,640.1l0.9-0.2l0.3,1.2l-3.7,0.9l-0.3-1.2l1-0.3l-1.6-6.6l-0.9,0.2l-0.3-1.2
		l3.7-0.9l0.2,1.4l-0.9,0.2L-343.1,640.1L-343.1,640.1L-343.1,640.1z M-332.5,633.6c-0.2-0.5-0.5-0.9-1-1.2
		c-0.3-0.2-0.9-0.3-1.4-0.3c-1,0.2-1.7,0.5-2.3,1.2c-0.5,0.5-0.7,1.4-0.7,2.4c0.2,1,0.5,1.7,1,2.3c0.7,0.5,1.4,0.9,2.4,0.7
		c0.5,0,1-0.2,1.4-0.5c0.3-0.2,0.7-0.7,1-1.2l0,0l1.6-0.2l0,0c-0.2,1-0.5,1.7-1.2,2.4c-0.9,0.7-1.6,1-2.6,1.2
		c-1.4,0-2.6-0.3-3.7-1.2c-1-0.9-1.6-1.9-1.7-3.3c-0.2-1.4,0.2-2.6,1-3.7c0.9-1,1.9-1.6,3.3-1.7c0.5,0,1,0,1.6,0.2
		c0.3,0.2,0.9,0.3,1,0.7l0,0v-0.9l1.4-0.2l0.2,3.1L-332.5,633.6L-332.5,633.6L-332.5,633.6z M-326.4,634.8c0.2-1.4,0.7-2.4,1.7-3.3
		c1-0.7,2.3-1,3.7-0.9c0.7,0,1.4,0.2,1.9,0.5c0.5,0.2,0.9,0.5,1.2,1c0.5,0.5,0.9,1.2,1,1.7c0.4,0.7,0.4,1.4,0.2,2.1
		c0,0.7-0.2,1.2-0.5,1.7c-0.4,0.7-0.7,1-1,1.6c-0.7,0.3-1.2,0.7-1.9,0.9c-0.5,0.2-1.2,0.2-1.9,0.2c-1.4-0.2-2.6-0.9-3.5-1.9
		C-326.2,637.4-326.5,636.2-326.4,634.8L-326.4,634.8L-326.4,634.8z M-324.7,635.2c-0.2,0.9,0,1.7,0.5,2.4c0.5,0.7,1.4,1,2.3,1.2
		c0.9,0,1.6-0.2,2.3-0.7c0.7-0.5,1-1.2,1.2-2.3c0.2-0.9,0-1.7-0.5-2.4c-0.5-0.7-1.4-1-2.3-1.2c-0.9-0.2-1.6,0.2-2.3,0.7
		C-324.1,633.4-324.5,634.1-324.7,635.2L-324.7,635.2L-324.7,635.2z M-302.7,636.6l-1.4,3.1l0.5,0.2l0,0c0.7,0.3,1.4,0.3,1.7,0.3
		c0.5-0.2,0.9-0.5,1-1c0.2-0.5,0.2-1,0-1.4c-0.4-0.3-0.7-0.7-1.6-1l0,0L-302.7,636.6L-302.7,636.6L-302.7,636.6z M-305.3,642.9
		l1,0.5l-0.3,1.2l-3.7-1.6l0.4-1.2l1,0.5l2.6-6.4l-1-0.3l0.5-1.2l3,1.2l0,0c1.2,0.5,2.1,1,2.6,1.7c0.4,0.9,0.4,1.6,0,2.6
		c-0.3,0.9-0.9,1.4-1.7,1.6c-0.9,0.3-1.9,0.2-3.1-0.3l0,0l-0.5-0.2L-305.3,642.9L-305.3,642.9L-305.3,642.9z M-295.4,644.3l1.9,1
		l0.7-3.3L-295.4,644.3L-295.4,644.3L-295.4,644.3z M-297.8,646.3l0.9,0.5l-0.5,1l-3-1.7l0.7-1l0.5,0.3l5.6-4.7l-0.9-0.5l0.7-1.2
		l4.2,2.4l-0.7,1.2l-1-0.5l-1.4,7.1l0.9,0.3l-0.7,1.2l-3.1-1.9l0.7-1l0.9,0.5l0.4-1.9l-2.6-1.4L-297.8,646.3L-297.8,646.3
		L-297.8,646.3z M-283.5,647.6l-1.4,1.9l0.9,0.7l0,0c0.5,0.3,0.9,0.7,1.2,0.7c0.4,0,0.7-0.2,0.9-0.5c0.3-0.3,0.3-0.7,0.3-1
		c-0.2-0.3-0.3-0.7-0.9-1l0,0L-283.5,647.6L-283.5,647.6L-283.5,647.6z M-287.7,653l0.9,0.7l-0.7,1l-3.1-2.4l0.9-1l0.7,0.7l4.4-5.4
		l-0.9-0.7l0.9-1l3,2.4l0,0c1,0.7,1.6,1.4,1.7,2.1c0.2,0.7,0,1.2-0.5,1.9c-0.4,0.3-0.7,0.7-1,0.9c-0.5,0-0.9,0-1.4-0.2
		c0.2,0.3,0.4,0.7,0.5,1c0,0.3-0.2,0.7-0.5,1l0,0l-1.2,1.6l0.7,0.5l-0.9,1l-2.1-1.6l1.6-1.9l0,0c0.5-0.7,0.7-1,0.7-1.4
		s-0.3-0.9-0.9-1.2l0,0l-0.7-0.5L-287.7,653L-287.7,653L-287.7,653z M-277,658.4l1.4,1.7l1.7-3L-277,658.4L-277,658.4L-277,658.4z
		 M-280,659.8l0.7,0.7l-1,0.9l-2.3-2.6l1-0.9l0.5,0.5l6.6-2.6l-0.7-0.7l1-0.9l3.1,3.7l-0.9,0.9l-0.7-0.9l-3.7,6.3l0.5,0.7l-1,0.9
		l-2.3-2.8l0.9-0.9l0.7,0.7l1-1.6l-2.1-2.1L-280,659.8L-280,659.8L-280,659.8z M-272.7,669.2l0.5,0.9l-1.2,0.7l-1.9-3.1l1.2-0.7
		l0.5,0.9l5.7-3.6l-0.5-0.9l1.2-0.7l1.4,2.4l-3.2,6.2l4-2.6l-0.5-0.9l1.2-0.7l1.9,3.1l-1.2,0.7l-0.5-0.9l-7.2,4.3l-0.7-1.2l4-7
		L-272.7,669.2L-272.7,669.2L-272.7,669.2z M-264,678.9l0.7,1.9l2.6-2.1L-264,678.9L-264,678.9L-264,678.9z M-267.1,679.1l0.4,0.9
		l-1.2,0.5l-1.2-3.1l1.2-0.5l0.2,0.7l7.3-0.2l-0.4-1l1.2-0.3l1.7,4.5l-1.2,0.3l-0.5-1l-5.4,4.7l0.2,0.9l-1.2,0.3l-1.2-3.3l1.2-0.5
		l0.4,1l1.4-1.2l-1-2.8L-267.1,679.1L-267.1,679.1L-267.1,679.1z M-265.4,688l1.2-0.2l0.2,0.9l6.8-1.4l-0.3-1l1.4-0.3l1.6,7.2
		l-2.4,0.5l-0.3-1.4l1.2-0.3l-0.7-3l-2.4,0.5l0.7,2.4l-1.4,0.3l-0.5-2.4l-3,0.7l0.5,3l1.6-0.3l0.4,1.4l-2.8,0.7L-265.4,688
		L-265.4,688L-265.4,688z M-261.7,700.7v1h-1.2l-0.2-3.7h1.4v1l6.8-0.2v-1h1.4v3l-6.1,3.5l4.9-0.2v-1h1.2l0.2,3.7h-1.4v-1l-8.4,0.2
		v-1.4l7.1-4L-261.7,700.7L-261.7,700.7L-261.7,700.7z M-262.4,711.9l-0.9-0.2l0.2-1.4l3.1,0.5l-0.2,1.2l0,0
		c-0.7,0.2-1.2,0.3-1.6,0.7c-0.4,0.4-0.7,0.9-0.7,1.4c0,0.3,0,0.7,0.3,1c0.2,0.3,0.5,0.5,0.9,0.7c0.3,0,0.7-0.2,0.9-0.3
		c0.4-0.2,0.5-0.7,0.9-1.2l0,0l0.4-1l0,0c0.4-0.9,0.7-1.4,1.2-1.7c0.5-0.3,1-0.5,1.7-0.3c0.7,0,1.4,0.3,1.7,1
		c0.5,0.5,0.7,1.2,0.5,2.1c0,0.5-0.2,0.9-0.3,1.2c-0.2,0.3-0.4,0.7-0.7,0.9l0,0h0.7l-0.2,1.4l-2.8-0.3l0.2-1.4l0,0
		c0.5,0,0.9-0.2,1.2-0.5c0.4-0.2,0.5-0.7,0.5-1c0.2-0.5,0-0.9-0.2-1c-0.2-0.3-0.4-0.5-0.7-0.5c-0.4,0-0.5,0-0.9,0.2
		c-0.2,0.2-0.3,0.3-0.5,0.7l0,0l-0.4,1.2l0,0c-0.5,1-1,1.7-1.4,2.1c-0.5,0.4-1.2,0.5-1.9,0.4c-0.9-0.2-1.6-0.5-2.1-1
		c-0.3-0.5-0.5-1.4-0.5-2.3c0.2-0.5,0.3-0.9,0.5-1.4C-263.1,712.4-262.7,712.1-262.4,711.9L-262.4,711.9L-262.4,711.9z
		 M-264.3,720.1l1.2,0.3l-0.2,1l6.6,1.6l0.2-0.9l1.2,0.3l-1.9,7l-2.4-0.7l0.4-1.4l1.2,0.3l0.9-3l-2.3-0.7l-0.7,2.4l-1.4-0.3l0.7-2.4
		l-3-0.9l-0.9,2.8l1.6,0.5l-0.5,1.4l-2.6-0.7L-264.3,720.1L-264.3,720.1L-264.3,720.1z"/>
	<path fill="#FFFFFF" d="M-344.9,779.7l0.2-1.2l1,0.2l1.2-6.4l-1-0.2l0.2-1.4l2.6,0.5l-1.4,7.8l1,0.2l-0.2,1L-344.9,779.7
		L-344.9,779.7L-344.9,779.7z M-333.5,773.1c-0.3,0-0.7,0.2-1,0.4c-0.2,0.3-0.3,0.7-0.3,1.2c0,0.3,0,0.7,0.2,1
		c0.3,0.4,0.5,0.5,1,0.5c0.3,0,0.7-0.2,0.9-0.3c0.3-0.4,0.5-0.7,0.5-1c0-0.5,0-0.9-0.2-1.2C-332.8,773.4-333.2,773.3-333.5,773.1
		L-333.5,773.1L-333.5,773.1z M-335.1,778.5c0,0.3,0,0.7,0.2,1c0.2,0.2,0.5,0.2,0.9,0.2c0.5,0,0.9,0,1-0.2c0.2-0.3,0.3-0.9,0.5-1.7
		l0,0v-0.7l0,0c-0.3,0.2-0.5,0.4-0.9,0.4c-0.3,0.2-0.5,0.2-0.9,0.2c-0.7,0-1.4-0.3-1.7-1c-0.5-0.5-0.7-1.2-0.5-2.1
		c0-0.9,0.3-1.6,0.9-2.1c0.7-0.5,1.4-0.7,2.3-0.7c1,0.2,1.7,0.5,2.1,1c0.5,0.7,0.7,1.6,0.5,2.8l0,0l-0.2,2.8l0,0
		c-0.2,1-0.5,1.7-1,2.1c-0.5,0.5-1.2,0.9-2.3,0.7c-0.9,0-1.6-0.4-1.9-0.9c-0.5-0.5-0.7-1-0.5-1.7l0,0v-0.3L-335.1,778.5
		L-335.1,778.5L-335.1,778.5z M-323.6,778.1h1.4l0.3,2.4l-6.1,0.5v-1.2l2.6-3.5l0,0c0.5-0.5,0.7-1,0.9-1.4c0.2-0.3,0.3-0.7,0.3-1
		c-0.2-0.4-0.2-0.5-0.5-0.7c-0.2-0.2-0.5-0.3-0.9-0.2c-0.5,0-0.9,0.2-1,0.5c-0.3,0.4-0.3,0.9-0.2,1.7l0,0v0.2l-1.6,0.2l0,0v-0.2
		v-0.2c-0.2-1.2,0-2.1,0.5-2.6c0.3-0.7,1-1,2.1-1c0.9-0.2,1.6,0,2.1,0.5c0.7,0.3,0.9,0.9,1,1.7c0,0.3,0,0.9-0.3,1.4
		c-0.2,0.5-0.5,1-1.2,1.9l0,0l-2.1,2.4l2.6-0.2L-323.6,778.1L-323.6,778.1L-323.6,778.1z M-318,777.1l2.3-0.3l-0.3-2.3l0,0
		c-0.2-0.3-0.2-0.5-0.2-0.9c0-0.4,0-0.7,0-1l0,0L-318,777.1L-318,777.1L-318,777.1z M-316.5,780l-0.2-1l1.2-0.2l-0.2-1l-3.5,0.7
		l-0.4-1.2l2.6-6.4l1.4-0.2l1,5.8l1-0.2l0.3,1l-1.2,0.3l0.2,0.9l1.2-0.2l0.2,1.2L-316.5,780L-316.5,780L-316.5,780z"/>
	<path fill="#CD3529" d="M-287.2,663.2c-11.4-11.4-26.5-17.6-42.5-17.6c-15.9,0-31,6.3-42.4,17.7c-11.4,11.4-17.6,26.4-17.6,42.4
		s6.3,31.1,17.6,42.5c11.4,11.4,26.4,17.7,42.4,17.7c33.2,0,60.2-27,60.2-60.2C-269.5,689.7-275.8,674.6-287.2,663.2L-287.2,663.2z
		 M-371.5,745v-78.6c0.4-0.4,0.8-0.9,1.3-1.3c4.6-4.6,9.8-8.3,15.5-11.1v103.5c-5.6-2.8-10.9-6.5-15.5-11.1
		C-370.7,745.9-371.1,745.4-371.5,745L-371.5,745z M-337.9,762.7v-114c2.7-0.4,5.4-0.6,8.2-0.6c2.9,0,5.7,0.2,8.5,0.6v113.8
		c-2.8,0.4-5.6,0.6-8.5,0.6C-332.5,763.2-335.2,763.1-337.9,762.7L-337.9,762.7z M-304.2,757.3V654.1c5.6,2.8,10.7,6.4,15.3,11
		c0.5,0.5,1,1,1.5,1.5v78.2C-292.3,749.9-297.9,754.2-304.2,757.3L-304.2,757.3z"/>
	<path fill="#FFFFFF" d="M-329.3,666.2c-6.8,0.9-13.1,4-18.7,8.5c-9.6-2.8-24.8,2.8-28.8,24.9c-0.3,2.6-0.9,6.6-3,9.4
		c2.4,1.2,4.2,4,5.4,6.4c4.9,10.4,10.5,16.7,16.2,20.4c0.3,3.8-0.7,8.4-5.2,11.3c3.3,3.3,7.9,3.1,11.2,0.2c4.5,2.3,9.3,2.3,12.4-1.6
		c-3.5-0.5-6.1-3.3-7.5-5.9c9.6,1.7,18.8,1,27.4-3.5c0,3.3-0.9,6.8-4.7,7.3c1.7,3.8,6.5,4.5,10,0.2c5.6,3.3,9.9,2.1,11.3-4.2
		c-5.4,1.4-7.7-3.5-7.7-8.4c9.9-5.6,23.6-15.7,29.6-14.6c-2.1-2.6-4.5-4.2-7-4.2c0.5-2.3,1.2-4.5,2.3-6.8
		c-8.2,4-17.1,12.4-25.6,18.6l0,0v-12.9l0,0c3.1,1.9,6.6,3.7,11,1c3.1-1.9,5.2-7.7,7.8-18.5c0.7-2.3,1.6-5.2,3.7-7
		c-2.1-2.6-3.5-4.5-3.8-7.5c-1.9-14.8-7-17.4-13.3-17.6c-5.4-0.3-7.9,2.1-11,4c-3-1.6-5.4-1.7-8.4-2.1c4.9,11.7,4,23.6,1.4,35.4
		c2.6,3.8,3.3,15.2,3.3,29.4c-8.7,5.1-17.8,4-28.1,1.4l0,0v-10.5l0,0c4.5,0,8-1.9,10.6-5.2c0.9,5.4-0.3,9.9-4.5,12.5
		c2.1,3.5,5.7,3.5,9.1,0.5c5.7,3.6,9.4,1.2,11.1-1.9c-8-1.4-7.8-11.3-4.7-25.9C-330.7,689.2-330.6,677.9-329.3,666.2L-329.3,666.2
		L-329.3,666.2z M-313,674.8c1.7-7.8,8.9-6.8,10.6,0c1.2,4.2-0.5,9.3-1.9,13.1c1.2,2.3,2.8,7.1,2.1,9.6c-1.6,6.6-7.7,7.3-10.6,0.3
		c-1.2-3,0.5-7.1,2.1-9.9C-312.1,684.2-314,678.9-313,674.8L-313,674.8L-313,674.8z M-353.9,681.2c-4.7,4.5-4.3,10.3-4.3,19.5
		c0,2.4-1,4-3,5.9c3.5,5,3,9.6,2.1,14.6c-4-3.3-4.7-8-3.8-13.4c-5.2-5.7-4-14.3,0.5-21.4C-360.9,683.8-357.4,680.9-353.9,681.2
		L-353.9,681.2L-353.9,681.2z M-349.4,711.7c-1.2-11.7-1-22,2.4-28.6c2.1,0.9,2.1,3.1,0.9,3.8c-3,1.7-1.9,6.8,2.3,4.9
		c5.1-2.4,2.8-9.4,1-12.9c0.7-0.5,1.4-1.2,2.3-1.7c3,6.8,3.5,19.4,0.3,27.4C-341.9,708.9-345,711.7-349.4,711.7L-349.4,711.7
		L-349.4,711.7z"/>
	<path fill="#8E9192" d="M-316.1,664.5c0,0-0.9,0.6-1.3,0.8c-2.7-1.3-4.9-1.6-7.5-1.9l-0.7-0.1l-0.6,0.9c2.6,6.1,3.4,12.3,3.4,18.1
		c0,6.2-1,11.9-2.1,16.9v0.3l0.1,0.2c2.8,4.1,3.2,18.2,3.2,28.7c-8,4.5-16.6,3.8-26.8,1.3c0-0.9,0-8.3,0-9.3c3.7-0.2,7-1.6,9.5-4.3
		c0,0.6,0.1,1.1,0.1,1.6c0,4-1.5,7-4.5,8.8l-0.5,0.3l0.3,0.6c1,1.7,2.4,2.7,4,2.9c1.8,0.3,3.8-0.4,5.6-2c2.5,1.5,4.9,2,7,1.5
		c2.4-0.6,3.9-2.5,4.7-3.9l-0.4-1c-2-0.3-3.4-1.2-4.4-2.7c-2.4-3.6-2.3-10.5,0.2-22.5v-0.2v-0.2c-3.6-11.3-2.9-23.7-1.9-33.2
		l-0.7-0.7c-6.4,0.8-12.7,3.7-18.7,8.5c-5.1-1.4-10.8-0.4-15.7,2.6c-4.8,3-11.1,9.4-13.6,22.9v0.1c-0.3,2.6-0.9,6.4-2.8,9l0.2,1
		c1.8,0.9,3.5,2.9,5.1,6.2c4.5,9.6,9.8,16.3,16.2,20.4c0,0.3,0,0.6,0,1c0,2.8-0.8,6.8-5,9.5l-0.1,1c3.3,3.3,8.1,3.5,11.7,0.5
		c5.1,2.4,9.8,1.7,12.8-1.9l-0.4-1c-3.1-0.5-5.2-2.8-6.3-4.4c9.6,1.5,17.9,0.4,25.4-3.3c-0.2,3.4-1.6,5.3-4.1,5.6l-0.5,0.9
		c0.9,2,2.5,3.3,4.5,3.5c2.1,0.3,4.4-0.8,6.2-2.8c3,1.6,5.6,2,7.7,1.1c2-0.9,3.4-2.9,4.1-6l-0.8-0.8c-1.7,0.4-3.1,0.2-4.3-0.6
		c-1.6-1.2-2.5-3.7-2.6-6.7c2.5-1.4,5.1-3,7.9-4.8c7.8-4.8,16.7-10.3,21-9.6l0.6-1c-2.1-2.6-4.4-4.1-6.7-4.3c0.6-2.2,1.2-4.1,2-6
		l-0.9-0.9c-5.6,2.7-11.6,7.6-17.4,12.2c-2.4,2-4.9,3.9-7.3,5.7c0-1.9,0-8.8,0-10.5c3.1,1.8,6.5,3,10.7,0.5
		c3.5-2.2,5.6-8.6,8.1-18.9V694c0.7-2.2,1.5-4.9,3.4-6.5l0.5-0.4l-0.4-0.5c-2.1-2.6-3.4-4.4-3.7-7.2c-1.9-14.8-6.9-18-13.9-18.2
		C-311,661.1-313.6,662.8-316.1,664.5L-316.1,664.5z M-317,666.6l1.6-1c2.4-1.6,4.8-3.2,9-2.9c5.1,0.1,10.6,1.6,12.6,17
		c0.3,2.9,1.6,4.9,3.6,7.3c-1.8,1.8-2.7,4.5-3.3,6.7v0.2l0,0c-2.3,9.8-4.4,16.2-7.6,18.1c-4,2.4-7.2,0.9-10.3-1l-1,0.6v12.9l1,0.5
		c2.8-2,5.6-4.3,8.4-6.5c5.2-4.2,10.5-8.4,15.6-11.2c-0.6,1.6-1.2,3.3-1.6,5.2l0.6,0.8c1.8,0,3.7,1,5.5,2.8
		c-5,0.3-12.7,5.1-20.3,9.8c-2.9,1.8-5.7,3.5-8.2,5l-0.3,0.2v0.4c0,3.6,1.1,6.6,3.1,8.1c1.2,0.9,2.6,1.3,4.3,1.1
		c-0.6,2.1-1.7,3.5-3.1,4.1c-1.8,0.8-4.2,0.3-7-1.3l-0.5-0.3l-0.3,0.4c-1.6,2-3.5,2.9-5.3,2.7c-1.3-0.2-2.3-0.9-3.1-2
		c2.1-0.6,4.3-2.6,4.3-7.8l-1-0.6c-7.8,4.2-16.7,5.3-26.9,3.4l-0.7,0.9c1.6,3,4.1,5.2,6.8,6c-3.6,3.4-8.3,1.9-10.9,0.6l-0.4-0.2
		l-0.3,0.3c-3,2.7-6.8,2.8-9.7,0.4c4-3,4.9-7.2,4.9-10c0-0.5,0-1-0.1-1.4v-0.3l-0.3-0.2c-6.3-4-11.5-10.6-16-20.1
		c-1.6-3.2-3.3-5.3-5.1-6.4c1.8-2.9,2.3-6.6,2.7-9.1l0,0c2.4-13,8.4-19.2,13-22c4.6-2.9,10.2-3.8,14.9-2.4l0.3,0.1l0.3-0.2
		c5.6-4.6,11.5-7.3,17.5-8.3c-0.4,3.9-0.7,8.3-0.7,12.9c0,6.5,0.7,13.3,2.7,19.9c-1.3,6.2-2,11.1-2,14.9c0,3.8,0.7,6.5,2,8.4
		c1,1.5,2.5,2.6,4.3,3.1c-0.7,1-1.8,2.1-3.4,2.5c-1.8,0.5-4-0.1-6.3-1.6l-0.4-0.3l-0.4,0.3c-1.7,1.5-3.4,2.2-5,2
		c-1.1-0.2-2-0.8-2.8-1.8c3-2.1,4.6-5.4,4.6-9.6c0-1-0.1-2.1-0.3-3.2l-1.1-0.3c-2.6,3.3-6,5-10.1,5l-0.7,0.6v11l0.5,0.1
		c10.9,2.8,19.9,3.6,28.5-1.5l0.3-0.2v-0.4c0-16.8-1-25.9-3.3-29.6c1.1-5,2.1-10.8,2.1-16.9c0-5.6-0.8-11.6-3.2-17.6
		c2.4,0.3,4.6,0.6,7.1,1.9l0.3,0.2L-317,666.6L-317,666.6z"/>
	<path fill="#8E9192" d="M-308,668.6c-2.7,0-4.8,2.3-5.6,6c-0.2,0.9-0.3,1.8-0.3,2.8c0,3.7,1.5,7.7,2.5,10.4
		c-1.2,2.2-2.4,5.1-2.4,7.7c0,0.9,0.1,1.7,0.5,2.5c1.5,3.6,4,5.5,6.6,5.3c2.5-0.2,4.5-2.4,5.3-5.8c0.1-0.5,0.2-1,0.2-1.6
		c0-2.7-1.3-6.3-2.2-8.2c1.2-3.3,2.3-6.7,2.3-9.9c0-1.1-0.1-2.2-0.4-3.3C-302.6,671-305.2,668.6-308,668.6L-308,668.6z
		 M-312.2,697.5c-1.2-2.8,0.8-7.1,2-9.4l0.2-0.3l-0.1-0.3c-1.2-3.2-3.3-8.6-2.2-12.7l0,0c0.7-3.1,2.3-5,4.4-5c1.8,0,4.1,1.5,5,5
		c1.2,4.2-0.7,9.3-1.9,12.7l-0.1,0.3l0.1,0.3c1.3,2.3,2.7,7,2,9.1c-0.7,2.8-2.3,4.6-4.1,4.8C-308.9,702.2-310.9,700.5-312.2,697.5
		L-312.2,697.5z M-313.6,674.6L-313.6,674.6L-313.6,674.6L-313.6,674.6z"/>
	<path fill="#8E9192" d="M-363,686.1c-2.7,4.2-4,8.6-4,12.5c0,3.6,1.1,6.9,3.4,9.5c-0.2,1.3-0.3,2.5-0.3,3.7c0,4.3,1.4,7.6,4.4,10
		l1.1-0.4c0.3-2.1,0.7-4.1,0.7-6c0-2.9-0.7-5.6-2.6-8.6c1.7-1.8,2.8-3.5,2.8-6V699c0-0.6,0-1.1,0-1.7c0-7.3,0.3-11.9,4.2-15.6
		l-0.4-1.1C-357.5,680.2-361.2,683.1-363,686.1L-363,686.1z M-362.7,711.7c0-1.1,0.1-2.4,0.3-3.7v-0.3l-0.2-0.2
		c-2.3-2.6-3.3-5.6-3.3-8.7c0-4.2,1.7-8.5,3.9-11.9c1.3-2.2,3.9-4.4,6.5-4.9c-3.2,3.9-3.5,8.7-3.5,15.4c0,0.5,0,1.1,0,1.6v1.8
		c0,2.3-1,3.7-2.8,5.5l-0.4,0.4l0.3,0.4c2,2.9,2.6,5.6,2.6,8.4c0,1.5-0.2,3-0.4,4.6C-361.7,717.9-362.7,715.2-362.7,711.7
		L-362.7,711.7z"/>
	<path fill="#8E9192" d="M-342.4,677.8l-1.1,0.9l0.2,0.5c0.7,1.3,2.8,6,1.7,9.4c-0.4,1.2-1.2,2.1-2.4,2.6c-1.3,0.6-2.3,0.5-2.8-0.4
		c-0.5-1-0.2-2.5,1.2-3.3c0.8-0.4,1.2-1.3,1.1-2.3c-0.1-1.2-0.9-2.2-2.1-2.7l-0.6-0.2l-0.3,0.5c-3.2,6-4,15.2-2.5,29v0.6h0.6
		c4.4,0,7.9-2.7,9.9-7.6c3.3-8.5,2.5-21.3-0.4-27.9l-0.9-0.3C-341.4,677-342,677.5-342.4,677.8L-342.4,677.8z M-341.6,678.8
		c0.3-0.2,0.5-0.4,0.8-0.6c1.3,3.5,2.1,8.3,2.1,13.4c0,4.5-0.6,9-2.1,12.8c-1.7,4.1-4.5,6.5-8.1,6.7c-0.4-4.1-0.6-7.8-0.6-11.1
		c0-6.9,0.9-12.1,2.8-15.9c0.4,0.3,0.7,0.8,0.7,1.3v0.1c0,0.4-0.2,0.8-0.5,1c-1.4,0.8-2,2.2-2,3.5c0,0.6,0.1,1.1,0.3,1.6
		c0.6,1.2,2.1,2.1,4.5,1c1.5-0.7,2.5-1.9,3.1-3.4c0.3-0.8,0.4-1.7,0.4-2.6c0-2.9-1.2-5.9-1.9-7.3
		C-341.8,679-341.6,678.8-341.6,678.8L-341.6,678.8z"/>
</g>
</svg>
