<?xml version="1.0" encoding="utf-8"?>
<!-- Generator: Adobe Illustrator 19.1.0, SVG Export Plug-In . SVG Version: 6.00 Build 0)  -->
<svg version="1.1" id="Layer_1" xmlns="http://www.w3.org/2000/svg" xmlns:xlink="http://www.w3.org/1999/xlink" x="0px" y="0px"
	 viewBox="-200.5 308.7 175.7 175.7" style="enable-background:new -200.5 308.7 175.7 175.7;" xml:space="preserve">
<g>
	<path d="M-200.5,484.5L-200.5,484.5L-200.5,484.5L-200.5,484.5z M-112.5,308.7c-48.4,0-87.7,39.4-87.7,87.7
		c0,48.4,39.4,87.7,87.7,87.7c48.4,0,87.7-39.4,87.7-87.7C-24.8,348.1-64.2,308.7-112.5,308.7L-112.5,308.7z"/>
	<path style="fill:#CD3529;" d="M-197.8,396.5c0,46.9,38.3,85.1,85.3,85.1c46.9,0,85.1-38.2,85.1-85.1c0-47.1-38.2-85.3-85.1-85.3
		C-159.6,311.2-197.8,349.4-197.8,396.5L-197.8,396.5z M-195.3,396.5c0-45.6,37.1-82.7,82.7-82.7c45.5,0,82.6,37.1,82.6,82.7
		c0,45.5-37,82.6-82.6,82.6C-158.1,479-195.3,442-195.3,396.5L-195.3,396.5z"/>
	<path style="fill:#FFFFFF;" d="M-183.1,412.5c-0.3,0.2-0.7,0.7-0.9,1.2c-0.2,0.3-0.2,0.9,0,1.6c0.2,0.9,0.7,1.6,1.2,1.9
		c0.9,0.4,1.7,0.5,2.6,0.2c1-0.3,1.7-0.9,2.1-1.6c0.3-0.7,0.5-1.6,0.2-2.4c-0.2-0.5-0.3-0.9-0.7-1c-0.3-0.3-0.9-0.7-1.6-0.7l0,0
		l-0.3-1.6l0,0c0.9,0,1.9,0.2,2.6,0.7c0.9,0.7,1.4,1.4,1.6,2.3c0.3,1.2,0.3,2.6-0.3,3.6c-0.7,1.2-1.6,1.9-3,2.4
		c-1.4,0.3-2.6,0.2-3.7-0.3c-1-0.7-1.9-1.6-2.3-3c-0.2-0.5-0.2-1-0.2-1.6c0-0.5,0.2-0.9,0.3-1.2l0,0l-0.7,0.3l-0.3-1.2l3-0.9
		L-183.1,412.5L-183.1,412.5L-183.1,412.5z M-177.9,406.3l-1.4,0.2v-1l-6.6,0.5v1h-1.2l-0.3-3.8l1.4-0.2v1.2l6.6-0.5l-0.2-2.3h-1.4
		l-0.2-1.4l2.8-0.3L-177.9,406.3L-177.9,406.3L-177.9,406.3z M-181.9,394.9c0.9,0,1.4-0.2,1.6-0.3c0.3-0.3,0.5-0.7,0.5-1.2
		c0-0.7,0-1-0.3-1.4c-0.3-0.2-0.9-0.3-1.6-0.3l0,0l-4.5-0.2v0.9h-1.4l0.2-3.6h1.4l-0.2,1l4.3,0.2l0,0c0.7,0,1.2,0,1.6,0.2
		c0.3,0,0.7,0.2,1,0.3c0.3,0.3,0.7,0.7,0.9,1.2c0.2,0.5,0.3,1,0.3,1.7c-0.2,0.5-0.2,1.2-0.3,1.6c-0.3,0.5-0.5,0.9-0.9,1
		c-0.3,0.3-0.7,0.5-1,0.5c-0.5,0.2-1,0.2-1.7,0.2l0,0l-4.4-0.2v0.9h-1.4l0.2-3.7h1.2v1L-181.9,394.9L-181.9,394.9L-181.9,394.9z
		 M-181.4,382.4l3,0.7l0.2-0.7l0,0c0.2-0.7,0.2-1,0-1.4c-0.2-0.3-0.5-0.7-1-0.7c-0.5-0.2-1-0.2-1.4,0.2c-0.2,0.2-0.5,0.5-0.7,1.2
		l0,0L-181.4,382.4L-181.4,382.4L-181.4,382.4z M-184.9,381.5l2.3,0.7l0.2-0.7l0,0c0-0.5,0-0.9-0.2-1.2c-0.2-0.3-0.3-0.5-0.5-0.5
		c-0.5-0.2-0.9,0-1,0.2c-0.3,0.2-0.5,0.5-0.5,0.9l0,0L-184.9,381.5L-184.9,381.5L-184.9,381.5z M-177.7,386l-1.2-0.3l0.2-0.9
		l-6.4-1.6l-0.3,1l-1.2-0.3l0.7-3.3l0,0c0.3-1,0.7-1.7,1.2-2.3c0.5-0.3,1.2-0.5,1.7-0.3c0.5,0.2,0.9,0.3,1,0.7
		c0.3,0.3,0.5,0.7,0.5,1.4c0.2-0.7,0.7-1,1-1.4c0.5-0.2,1-0.3,1.7-0.2c0.9,0.2,1.4,0.7,1.7,1.4c0.3,0.7,0.3,1.6,0,2.8l0,0
		L-177.7,386L-177.7,386L-177.7,386z M-175.1,376.1l-1.2-0.3l0.3-1l-6.4-2.4l-0.3,1l-1-0.5l2.4-6.8l2.4,1l-0.5,1.4l-1.2-0.5l-1,2.8
		l2.1,0.9l1-2.4l1.2,0.5l-0.9,2.4l2.8,1l1-2.8l-1.4-0.5l0.7-1.4l2.6,1L-175.1,376.1L-175.1,376.1L-175.1,376.1z M-169.9,356.2
		l1.2-1.7l-3.3-1L-169.9,356.2L-169.9,356.2L-169.9,356.2z M-168,358.8l0.5-0.9l1.2,0.7l-2.1,2.8l-1-0.7l0.5-0.7l-4.4-5.8l-0.5,0.7
		l-1-0.7l2.8-4l1,0.9l-0.7,0.9l7,1.9l0.5-0.7l1,0.9l-1.9,2.8l-1.2-0.7l0.7-0.9l-1.7-0.5l-1.7,2.4L-168,358.8L-168,358.8L-168,358.8z
		 M-159.8,348.9l0.9-0.9l1,0.9l-3,3l-0.9-0.9l0.9-0.9l-5.1-4.7l-0.9,1l1,0.9l-1,1l-1.9-1.7l4.9-5.2l1.9,1.7l-1,1l-1-0.9l-0.7,0.9
		L-159.8,348.9L-159.8,348.9L-159.8,348.9z M-154.7,346.1l-0.7-1l0.7-0.5l-4.2-5.4l-0.9,0.5l-0.7-1l3-2.3l0.9,1l-0.9,0.7l4.2,5.4
		l1.9-1.6l-1-1.2l1.2-0.9l1.7,2.3L-154.7,346.1L-154.7,346.1L-154.7,346.1z M-147.2,340.7l-0.7-1.2l0.9-0.5l-3.3-5.9l-0.9,0.5
		l-0.7-1.2l6.3-3.5l1.2,2.3l-1.2,0.7l-0.7-1l-2.6,1.4l1.2,2.1l2.3-1.2l0.7,1.2l-2.3,1.2l1.6,2.6l2.6-1.4l-0.9-1.4l1.4-0.7l1.4,2.4
		L-147.2,340.7L-147.2,340.7L-147.2,340.7z M-149.8,330.2v-2.6l1.2-0.7l-0.5,2.8L-149.8,330.2L-149.8,330.2L-149.8,330.2z
		 M-134.3,333l1-0.5l0.5,1.4l-4,1.2l-0.3-1.2l1.2-0.3l-2.3-6.5l-1.2,0.3l0.5,1.4l-1.6,0.3l-0.9-2.4l6.8-2.4l0.9,2.6l-1.4,0.5
		l-0.3-1.4l-1.2,0.5L-134.3,333L-134.3,333L-134.3,333z M-126.1,330.8l0.9-0.2l0.3,1.2l-3.7,0.9l-0.3-1.2l1-0.3l-1.6-6.6l-0.9,0.2
		l-0.3-1.2l3.7-0.9l0.2,1.4l-0.9,0.2L-126.1,330.8L-126.1,330.8L-126.1,330.8z M-115.5,324.3c-0.2-0.5-0.5-0.9-1-1.2
		c-0.3-0.2-0.9-0.3-1.4-0.3c-1,0.2-1.7,0.5-2.3,1.2c-0.5,0.5-0.7,1.4-0.7,2.4c0.2,1,0.5,1.7,1,2.3c0.7,0.5,1.4,0.9,2.4,0.7
		c0.5,0,1-0.2,1.4-0.5c0.3-0.2,0.7-0.7,1-1.2l0,0l1.6-0.2l0,0c-0.2,1-0.5,1.7-1.2,2.4c-0.9,0.7-1.6,1-2.6,1.2
		c-1.4,0-2.6-0.3-3.7-1.2c-1-0.9-1.6-1.9-1.7-3.3c-0.2-1.4,0.2-2.6,1-3.7c0.9-1,1.9-1.6,3.3-1.7c0.5,0,1,0,1.6,0.2
		c0.3,0.2,0.9,0.3,1,0.7l0,0v-0.9l1.4-0.2l0.2,3.1L-115.5,324.3L-115.5,324.3L-115.5,324.3z M-109.4,325.5c0.2-1.4,0.7-2.4,1.7-3.3
		c1-0.7,2.3-1,3.7-0.9c0.7,0,1.4,0.2,1.9,0.5c0.5,0.2,0.9,0.5,1.2,1c0.5,0.5,0.9,1.2,1,1.7c0.4,0.7,0.4,1.4,0.2,2.1
		c0,0.7-0.2,1.2-0.5,1.7c-0.4,0.7-0.7,1-1,1.6c-0.7,0.3-1.2,0.7-1.9,0.9c-0.5,0.2-1.2,0.2-1.9,0.2c-1.4-0.2-2.6-0.9-3.5-1.9
		C-109.2,328.1-109.5,326.9-109.4,325.5L-109.4,325.5L-109.4,325.5z M-107.7,325.9c-0.2,0.9,0,1.7,0.5,2.4c0.5,0.7,1.4,1,2.3,1.2
		c0.9,0,1.6-0.2,2.3-0.7c0.7-0.5,1-1.2,1.2-2.3c0.2-0.9,0-1.7-0.5-2.4c-0.5-0.7-1.4-1-2.3-1.2c-0.9-0.2-1.6,0.2-2.3,0.7
		C-107.1,324.1-107.5,324.8-107.7,325.9L-107.7,325.9L-107.7,325.9z M-85.7,327.3l-1.4,3.1l0.5,0.2l0,0c0.7,0.3,1.4,0.3,1.7,0.3
		c0.5-0.2,0.9-0.5,1-1c0.2-0.5,0.2-1,0-1.4c-0.4-0.3-0.7-0.7-1.6-1l0,0L-85.7,327.3L-85.7,327.3L-85.7,327.3z M-88.3,333.6l1,0.5
		l-0.3,1.2l-3.7-1.6l0.4-1.2l1,0.5l2.6-6.4l-1-0.3l0.5-1.2l3,1.2l0,0c1.2,0.5,2.1,1,2.6,1.7c0.4,0.9,0.4,1.6,0,2.6
		c-0.3,0.9-0.9,1.4-1.7,1.6c-0.9,0.3-1.9,0.2-3.1-0.3l0,0l-0.5-0.2L-88.3,333.6L-88.3,333.6L-88.3,333.6z M-78.4,335l1.9,1l0.7-3.3
		L-78.4,335L-78.4,335L-78.4,335z M-80.8,337l0.9,0.5l-0.5,1l-3-1.7l0.7-1l0.5,0.3l5.6-4.7l-0.9-0.5l0.7-1.2l4.2,2.4l-0.7,1.2
		l-1-0.5l-1.4,7.1l0.9,0.3l-0.7,1.2l-3.1-1.9l0.7-1l0.9,0.5l0.4-1.9l-2.6-1.4L-80.8,337L-80.8,337L-80.8,337z M-66.5,338.3l-1.4,1.9
		l0.9,0.7l0,0c0.5,0.3,0.9,0.7,1.2,0.7c0.4,0,0.7-0.2,0.9-0.5c0.3-0.3,0.3-0.7,0.3-1c-0.2-0.3-0.3-0.7-0.9-1l0,0L-66.5,338.3
		L-66.5,338.3L-66.5,338.3z M-70.7,343.7l0.9,0.7l-0.7,1l-3.1-2.4l0.9-1l0.7,0.7l4.4-5.4l-0.9-0.7l0.9-1l3,2.4l0,0
		c1,0.7,1.6,1.4,1.7,2.1c0.2,0.7,0,1.2-0.5,1.9c-0.4,0.3-0.7,0.7-1,0.9c-0.5,0-0.9,0-1.4-0.2c0.2,0.3,0.4,0.7,0.5,1
		c0,0.3-0.2,0.7-0.5,1l0,0l-1.2,1.6l0.7,0.5l-0.9,1l-2.1-1.6l1.6-1.9l0,0c0.5-0.7,0.7-1,0.7-1.4s-0.3-0.9-0.9-1.2l0,0l-0.7-0.5
		L-70.7,343.7L-70.7,343.7L-70.7,343.7z M-60,349.1l1.4,1.7l1.7-3L-60,349.1L-60,349.1L-60,349.1z M-63,350.5l0.7,0.7l-1,0.9
		l-2.3-2.6l1-0.9l0.5,0.5l6.6-2.6l-0.7-0.7l1-0.9l3.1,3.7l-0.9,0.9l-0.7-0.9l-3.7,6.3l0.5,0.7l-1,0.9l-2.3-2.8l0.9-0.9l0.7,0.7
		l1-1.6l-2.1-2.1L-63,350.5L-63,350.5L-63,350.5z M-55.7,359.9l0.5,0.9l-1.2,0.7l-1.9-3.1l1.2-0.7l0.5,0.9l5.7-3.6l-0.5-0.9l1.2-0.7
		l1.4,2.4L-52,362l4-2.6l-0.5-0.9l1.2-0.7l1.9,3.1l-1.2,0.7l-0.5-0.9l-7.2,4.3l-0.7-1.2l4-7L-55.7,359.9L-55.7,359.9L-55.7,359.9z
		 M-47,369.6l0.7,1.9l2.6-2.1L-47,369.6L-47,369.6L-47,369.6z M-50.1,369.8l0.4,0.9l-1.2,0.5l-1.2-3.1l1.2-0.5l0.2,0.7l7.3-0.2
		l-0.4-1l1.2-0.3l1.7,4.5l-1.2,0.3l-0.5-1l-5.4,4.7l0.2,0.9l-1.2,0.3l-1.2-3.3l1.2-0.5l0.4,1l1.4-1.2l-1-2.8L-50.1,369.8
		L-50.1,369.8L-50.1,369.8z M-48.4,378.7l1.2-0.2l0.2,0.9l6.8-1.4l-0.3-1l1.4-0.3l1.6,7.2l-2.4,0.5l-0.3-1.4l1.2-0.3l-0.7-3
		l-2.4,0.5l0.7,2.4l-1.4,0.3l-0.5-2.4l-3,0.7l0.5,3l1.6-0.3l0.4,1.4l-2.8,0.7L-48.4,378.7L-48.4,378.7L-48.4,378.7z M-44.7,391.4v1
		h-1.2l-0.2-3.7h1.4v1l6.8-0.2v-1h1.4v3l-6.1,3.5l4.9-0.2v-1h1.2l0.2,3.7h-1.4v-1l-8.4,0.2v-1.4l7.1-4L-44.7,391.4L-44.7,391.4
		L-44.7,391.4z M-45.4,402.6l-0.9-0.2l0.2-1.4l3.1,0.5l-0.2,1.2l0,0c-0.7,0.2-1.2,0.3-1.6,0.7c-0.4,0.4-0.7,0.9-0.7,1.4
		c0,0.3,0,0.7,0.3,1c0.2,0.3,0.5,0.5,0.9,0.7c0.3,0,0.7-0.2,0.9-0.3c0.4-0.2,0.5-0.7,0.9-1.2l0,0l0.4-1l0,0c0.4-0.9,0.7-1.4,1.2-1.7
		c0.5-0.3,1-0.5,1.7-0.3c0.7,0,1.4,0.3,1.7,1c0.5,0.5,0.7,1.2,0.5,2.1c0,0.5-0.2,0.9-0.3,1.2c-0.2,0.3-0.4,0.7-0.7,0.9l0,0h0.7
		l-0.2,1.4l-2.8-0.3l0.2-1.4l0,0c0.5,0,0.9-0.2,1.2-0.5c0.4-0.2,0.5-0.7,0.5-1c0.2-0.5,0-0.9-0.2-1c-0.2-0.3-0.4-0.5-0.7-0.5
		c-0.4,0-0.5,0-0.9,0.2c-0.2,0.2-0.3,0.3-0.5,0.7l0,0l-0.4,1.2l0,0c-0.5,1-1,1.7-1.4,2.1c-0.5,0.4-1.2,0.5-1.9,0.4
		c-0.9-0.2-1.6-0.5-2.1-1c-0.3-0.5-0.5-1.4-0.5-2.3c0.2-0.5,0.3-0.9,0.5-1.4C-46.1,403.1-45.7,402.8-45.4,402.6L-45.4,402.6
		L-45.4,402.6z M-47.3,410.8l1.2,0.3l-0.2,1l6.6,1.6l0.2-0.9l1.2,0.3l-1.9,7l-2.4-0.7l0.4-1.4l1.2,0.3l0.9-3l-2.3-0.7l-0.7,2.4
		l-1.4-0.3l0.7-2.4l-3-0.9l-0.9,2.8l1.6,0.5l-0.5,1.4l-2.6-0.7L-47.3,410.8L-47.3,410.8L-47.3,410.8z"/>
	<path style="fill:#FFFFFF;" d="M-127.9,470.4l0.2-1.2l1,0.2l1.2-6.4l-1-0.2l0.2-1.4l2.6,0.5l-1.4,7.8l1,0.2l-0.2,1L-127.9,470.4
		L-127.9,470.4L-127.9,470.4z M-116.5,463.8c-0.3,0-0.7,0.2-1,0.4c-0.2,0.3-0.3,0.7-0.3,1.2c0,0.3,0,0.7,0.2,1
		c0.3,0.4,0.5,0.5,1,0.5c0.3,0,0.7-0.2,0.9-0.3c0.3-0.4,0.5-0.7,0.5-1c0-0.5,0-0.9-0.2-1.2C-115.8,464.1-116.2,464-116.5,463.8
		L-116.5,463.8L-116.5,463.8z M-118.1,469.2c0,0.3,0,0.7,0.2,1c0.2,0.2,0.5,0.2,0.9,0.2c0.5,0,0.9,0,1-0.2c0.2-0.3,0.3-0.9,0.5-1.7
		l0,0v-0.7l0,0c-0.3,0.2-0.5,0.4-0.9,0.4c-0.3,0.2-0.5,0.2-0.9,0.2c-0.7,0-1.4-0.3-1.7-1c-0.5-0.5-0.7-1.2-0.5-2.1
		c0-0.9,0.3-1.6,0.9-2.1c0.7-0.5,1.4-0.7,2.3-0.7c1,0.2,1.7,0.5,2.1,1c0.5,0.7,0.7,1.6,0.5,2.8l0,0l-0.2,2.8l0,0
		c-0.2,1-0.5,1.7-1,2.1c-0.5,0.5-1.2,0.9-2.3,0.7c-0.9,0-1.6-0.4-1.9-0.9c-0.5-0.5-0.7-1-0.5-1.7l0,0V469L-118.1,469.2L-118.1,469.2
		L-118.1,469.2z M-106.6,468.8h1.4l0.3,2.4l-6.1,0.5v-1.2l2.6-3.5l0,0c0.5-0.5,0.7-1,0.9-1.4c0.2-0.3,0.3-0.7,0.3-1
		c-0.2-0.4-0.2-0.5-0.5-0.7c-0.2-0.2-0.5-0.3-0.9-0.2c-0.5,0-0.9,0.2-1,0.5c-0.3,0.4-0.3,0.9-0.2,1.7l0,0v0.2l-1.6,0.2l0,0v-0.2
		v-0.2c-0.2-1.2,0-2.1,0.5-2.6c0.3-0.7,1-1,2.1-1c0.9-0.2,1.6,0,2.1,0.5c0.7,0.3,0.9,0.9,1,1.7c0,0.3,0,0.9-0.3,1.4
		c-0.2,0.5-0.5,1-1.2,1.9l0,0l-2.1,2.4l2.6-0.2L-106.6,468.8L-106.6,468.8L-106.6,468.8z M-101,467.8l2.3-0.3l-0.3-2.3l0,0
		c-0.2-0.3-0.2-0.5-0.2-0.9s0-0.7,0-1l0,0L-101,467.8L-101,467.8L-101,467.8z M-99.5,470.7l-0.2-1l1.2-0.2l-0.2-1l-3.5,0.7l-0.4-1.2
		l2.6-6.4l1.4-0.2l1,5.8l1-0.2l0.3,1l-1.2,0.3l0.2,0.9l1.2-0.2l0.2,1.2L-99.5,470.7L-99.5,470.7L-99.5,470.7z"/>
	<path style="fill:#CD3529;" d="M-70.2,353.9c-11.4-11.4-26.5-17.6-42.5-17.6c-15.9,0-31,6.3-42.4,17.7
		c-11.4,11.4-17.6,26.4-17.6,42.4c0,16,6.3,31.1,17.6,42.5c11.4,11.4,26.4,17.7,42.4,17.7c33.2,0,60.2-27,60.2-60.2
		C-52.5,380.4-58.8,365.3-70.2,353.9L-70.2,353.9z M-154.5,435.7v-78.6c0.4-0.4,0.8-0.9,1.3-1.3c4.6-4.6,9.8-8.3,15.5-11.1v103.5
		c-5.6-2.8-10.9-6.5-15.5-11.1C-153.7,436.6-154.1,436.1-154.5,435.7L-154.5,435.7z M-120.9,453.4V339.4c2.7-0.4,5.4-0.6,8.2-0.6
		c2.9,0,5.7,0.2,8.5,0.6v113.8c-2.8,0.4-5.6,0.6-8.5,0.6C-115.5,453.9-118.2,453.8-120.9,453.4L-120.9,453.4z M-87.2,448V344.8
		c5.6,2.8,10.7,6.4,15.3,11c0.5,0.5,1,1,1.5,1.5v78.2C-75.3,440.6-80.9,444.9-87.2,448L-87.2,448z"/>
	<path style="fill:#FFFFFF;" d="M-112.3,356.9c-6.8,0.9-13.1,4-18.7,8.5c-9.6-2.8-24.8,2.8-28.8,24.9c-0.3,2.6-0.9,6.6-3,9.4
		c2.4,1.2,4.2,4,5.4,6.4c4.9,10.4,10.5,16.7,16.2,20.4c0.3,3.8-0.7,8.4-5.2,11.3c3.3,3.3,7.9,3.1,11.2,0.2c4.5,2.3,9.3,2.3,12.4-1.6
		c-3.5-0.5-6.1-3.3-7.5-5.9c9.6,1.7,18.8,1,27.4-3.5c0,3.3-0.9,6.8-4.7,7.3c1.7,3.8,6.5,4.5,10,0.2c5.6,3.3,9.9,2.1,11.3-4.2
		c-5.4,1.4-7.7-3.5-7.7-8.4c9.9-5.6,23.6-15.7,29.6-14.6c-2.1-2.6-4.5-4.2-7-4.2c0.5-2.3,1.2-4.5,2.3-6.8
		c-8.2,4-17.1,12.4-25.6,18.6l0,0v-12.9l0,0c3.1,1.9,6.6,3.7,11,1c3.1-1.9,5.2-7.7,7.8-18.5c0.7-2.3,1.6-5.2,3.7-7
		c-2.1-2.6-3.5-4.5-3.8-7.5c-1.9-14.8-7-17.4-13.3-17.6c-5.4-0.3-7.9,2.1-11,4c-3-1.6-5.4-1.7-8.4-2.1c4.9,11.7,4,23.6,1.4,35.4
		c2.6,3.8,3.3,15.2,3.3,29.4c-8.7,5.1-17.8,4-28.1,1.4l0,0v-10.5l0,0c4.5,0,8-1.9,10.6-5.2c0.9,5.4-0.3,9.9-4.5,12.5
		c2.1,3.5,5.7,3.5,9.1,0.5c5.7,3.6,9.4,1.2,11.1-1.9c-8-1.4-7.8-11.3-4.7-25.9C-113.7,379.9-113.6,368.6-112.3,356.9L-112.3,356.9
		L-112.3,356.9z M-96,365.5c1.7-7.8,8.9-6.8,10.6,0c1.2,4.2-0.5,9.3-1.9,13.1c1.2,2.3,2.8,7.1,2.1,9.6c-1.6,6.6-7.7,7.3-10.6,0.3
		c-1.2-3,0.5-7.1,2.1-9.9C-95.1,374.9-97,369.6-96,365.5L-96,365.5L-96,365.5z M-136.9,371.9c-4.7,4.5-4.3,10.3-4.3,19.5
		c0,2.4-1,4-3,5.9c3.5,5,3,9.6,2.1,14.6c-4-3.3-4.7-8-3.8-13.4c-5.2-5.7-4-14.3,0.5-21.4C-143.9,374.5-140.4,371.6-136.9,371.9
		L-136.9,371.9L-136.9,371.9z M-132.4,402.4c-1.2-11.7-1-22,2.4-28.6c2.1,0.9,2.1,3.1,0.9,3.8c-3,1.7-1.9,6.8,2.3,4.9
		c5.1-2.4,2.8-9.4,1-12.9c0.7-0.5,1.4-1.2,2.3-1.7c3,6.8,3.5,19.4,0.3,27.4C-124.9,399.6-128,402.4-132.4,402.4L-132.4,402.4
		L-132.4,402.4z"/>
	<path style="fill:#8E9192;" d="M-99.1,355.2c0,0-0.9,0.6-1.3,0.8c-2.7-1.3-4.9-1.6-7.5-1.9l-0.7-0.1l-0.6,0.9
		c2.6,6.1,3.4,12.3,3.4,18.1c0,6.2-1,11.9-2.1,16.9l0,0.3l0.1,0.2c2.8,4.1,3.2,18.2,3.2,28.7c-8,4.5-16.6,3.8-26.8,1.3
		c0-0.9,0-8.3,0-9.3c3.7-0.2,7-1.6,9.5-4.3c0,0.6,0.1,1.1,0.1,1.6c0,4-1.5,7-4.5,8.8l-0.5,0.3l0.3,0.6c1,1.7,2.4,2.7,4,2.9
		c1.8,0.3,3.8-0.4,5.6-2c2.5,1.5,4.9,2,7,1.5c2.4-0.6,3.9-2.5,4.7-3.9l-0.4-1c-2-0.3-3.4-1.2-4.4-2.7c-2.4-3.6-2.3-10.5,0.2-22.5
		l0-0.2l0-0.2c-3.6-11.3-2.9-23.7-1.9-33.2l-0.7-0.7c-6.4,0.8-12.7,3.7-18.7,8.5c-5.1-1.4-10.8-0.4-15.7,2.6
		c-4.8,3-11.1,9.4-13.6,22.9c0,0,0,0.1,0,0.1c-0.3,2.6-0.9,6.4-2.8,9l0.2,1c1.8,0.9,3.5,2.9,5.1,6.2c4.5,9.6,9.8,16.3,16.2,20.4
		c0,0.3,0,0.6,0,1c0,2.8-0.8,6.8-5,9.5l-0.1,1c3.3,3.3,8.1,3.5,11.7,0.5c5.1,2.4,9.8,1.7,12.8-1.9l-0.4-1c-3.1-0.5-5.2-2.8-6.3-4.4
		c9.6,1.5,17.9,0.4,25.4-3.3c-0.2,3.4-1.6,5.3-4.1,5.6l-0.5,0.9c0.9,2,2.5,3.3,4.5,3.5c2.1,0.3,4.4-0.8,6.2-2.8c3,1.6,5.6,2,7.7,1.1
		c2-0.9,3.4-2.9,4.1-6l-0.8-0.8c-1.7,0.4-3.1,0.2-4.3-0.6c-1.6-1.2-2.5-3.7-2.6-6.7c2.5-1.4,5.1-3,7.9-4.8c7.8-4.8,16.7-10.3,21-9.6
		l0.6-1c-2.1-2.6-4.4-4.1-6.7-4.3c0.6-2.2,1.2-4.1,2-6l-0.9-0.9c-5.6,2.7-11.6,7.6-17.4,12.2c-2.4,2-4.9,3.9-7.3,5.7
		c0-1.9,0-8.8,0-10.5c3.1,1.8,6.5,3,10.7,0.5c3.5-2.2,5.6-8.6,8.1-18.9c0,0,0-0.1,0-0.1c0.7-2.2,1.5-4.9,3.4-6.5l0.5-0.4l-0.4-0.5
		c-2.1-2.6-3.4-4.4-3.7-7.2c-1.9-14.8-6.9-18-13.9-18.2C-94,351.8-96.6,353.5-99.1,355.2L-99.1,355.2z M-100,357.3l1.6-1
		c2.4-1.6,4.8-3.2,9-2.9c5.1,0.1,10.6,1.6,12.6,17c0.3,2.9,1.6,4.9,3.6,7.3c-1.8,1.8-2.7,4.5-3.3,6.7l0,0.2h0
		c-2.3,9.8-4.4,16.2-7.6,18.1c-4,2.4-7.2,0.9-10.3-1l-1,0.6v12.9l1,0.5c2.8-2,5.6-4.3,8.4-6.5c5.2-4.2,10.5-8.4,15.6-11.2
		c-0.6,1.6-1.2,3.3-1.6,5.2l0.6,0.8c1.8,0,3.7,1,5.5,2.8c-5,0.3-12.7,5.1-20.3,9.8c-2.9,1.8-5.7,3.5-8.2,5l-0.3,0.2v0.4
		c0,3.6,1.1,6.6,3.1,8.1c1.2,0.9,2.6,1.3,4.3,1.1c-0.6,2.1-1.7,3.5-3.1,4.1c-1.8,0.8-4.2,0.3-7-1.3l-0.5-0.3l-0.3,0.4
		c-1.6,2-3.5,2.9-5.3,2.7c-1.3-0.2-2.3-0.9-3.1-2c2.1-0.6,4.3-2.6,4.3-7.8l-1-0.6c-7.8,4.2-16.7,5.3-26.9,3.4l-0.7,0.9
		c1.6,3,4.1,5.2,6.8,6c-3.6,3.4-8.3,1.9-10.9,0.6l-0.4-0.2l-0.3,0.3c-3,2.7-6.8,2.8-9.7,0.4c4-3,4.9-7.2,4.9-10c0-0.5,0-1-0.1-1.4
		l0-0.3l-0.3-0.2c-6.3-4-11.5-10.6-16-20.1c-1.6-3.2-3.3-5.3-5.1-6.4c1.8-2.9,2.3-6.6,2.7-9.1v0c2.4-13,8.4-19.2,13-22
		c4.6-2.9,10.2-3.8,14.9-2.4l0.3,0.1l0.3-0.2c5.6-4.6,11.5-7.3,17.5-8.3c-0.4,3.9-0.7,8.3-0.7,12.9c0,6.5,0.7,13.3,2.7,19.9
		c-1.3,6.2-2,11.1-2,14.9c0,3.8,0.7,6.5,2,8.4c1,1.5,2.5,2.6,4.3,3.1c-0.7,1-1.8,2.1-3.4,2.5c-1.8,0.5-4-0.1-6.3-1.6l-0.4-0.3
		l-0.4,0.3c-1.7,1.5-3.4,2.2-5,2c-1.1-0.2-2-0.8-2.8-1.8c3-2.1,4.6-5.4,4.6-9.6c0-1-0.1-2.1-0.3-3.2l-1.1-0.3c-2.6,3.3-6,5-10.1,5
		l-0.7,0.6v11l0.5,0.1c10.9,2.8,19.9,3.6,28.5-1.5l0.3-0.2v-0.4c0-16.8-1-25.9-3.3-29.6c1.1-5,2.1-10.8,2.1-16.9
		c0-5.6-0.8-11.6-3.2-17.6c2.4,0.3,4.6,0.6,7.1,1.9l0.3,0.2L-100,357.3L-100,357.3z"/>
	<path style="fill:#8E9192;" d="M-91,359.3c-2.7,0-4.8,2.3-5.6,6c-0.2,0.9-0.3,1.8-0.3,2.8c0,3.7,1.5,7.7,2.5,10.4
		c-1.2,2.2-2.4,5.1-2.4,7.7c0,0.9,0.1,1.7,0.5,2.5c1.5,3.6,4,5.5,6.6,5.3c2.5-0.2,4.5-2.4,5.3-5.8c0.1-0.5,0.2-1,0.2-1.6
		c0-2.7-1.3-6.3-2.2-8.2c1.2-3.3,2.3-6.7,2.3-9.9c0-1.1-0.1-2.2-0.4-3.3C-85.6,361.7-88.2,359.3-91,359.3L-91,359.3z M-95.2,388.2
		c-1.2-2.8,0.8-7.1,2-9.4l0.2-0.3l-0.1-0.3c-1.2-3.2-3.3-8.6-2.2-12.7v0c0.7-3.1,2.3-5,4.4-5c1.8,0,4.1,1.5,5,5
		c1.2,4.2-0.7,9.3-1.9,12.7l-0.1,0.3l0.1,0.3c1.3,2.3,2.7,7,2,9.1c-0.7,2.8-2.3,4.6-4.1,4.8C-91.9,392.9-93.9,391.2-95.2,388.2
		L-95.2,388.2z M-96.6,365.3L-96.6,365.3L-96.6,365.3L-96.6,365.3z"/>
	<path style="fill:#8E9192;" d="M-146,376.8c-2.7,4.2-4,8.6-4,12.5c0,3.6,1.1,6.9,3.4,9.5c-0.2,1.3-0.3,2.5-0.3,3.7
		c0,4.3,1.4,7.6,4.4,10l1.1-0.4c0.3-2.1,0.7-4.1,0.7-6c0-2.9-0.7-5.6-2.6-8.6c1.7-1.8,2.8-3.5,2.8-6v-1.8c0-0.6,0-1.1,0-1.7
		c0-7.3,0.3-11.9,4.2-15.6l-0.4-1.1C-140.5,370.9-144.2,373.8-146,376.8L-146,376.8z M-145.7,402.4c0-1.1,0.1-2.4,0.3-3.7l0-0.3
		l-0.2-0.2c-2.3-2.6-3.3-5.6-3.3-8.7c0-4.2,1.7-8.5,3.9-11.9c1.3-2.2,3.9-4.4,6.5-4.9c-3.2,3.9-3.5,8.7-3.5,15.4c0,0.5,0,1.1,0,1.6
		v1.8c0,2.3-1,3.7-2.8,5.5l-0.4,0.4l0.3,0.4c2,2.9,2.6,5.6,2.6,8.4c0,1.5-0.2,3-0.4,4.6C-144.7,408.6-145.7,405.9-145.7,402.4
		L-145.7,402.4z"/>
	<path style="fill:#8E9192;" d="M-125.4,368.5l-1.1,0.9l0.2,0.5c0.7,1.3,2.8,6,1.7,9.4c-0.4,1.2-1.2,2.1-2.4,2.6
		c-1.3,0.6-2.3,0.5-2.8-0.4c-0.5-1-0.2-2.5,1.2-3.3c0.8-0.4,1.2-1.3,1.1-2.3c-0.1-1.2-0.9-2.2-2.1-2.7l-0.6-0.2l-0.3,0.5
		c-3.2,6-4,15.2-2.5,29l0,0.6h0.6c4.4,0,7.9-2.7,9.9-7.6c3.3-8.5,2.5-21.3-0.4-27.9l-0.9-0.3C-124.4,367.7-125,368.2-125.4,368.5
		L-125.4,368.5z M-124.6,369.5c0.3-0.2,0.5-0.4,0.8-0.6c1.3,3.5,2.1,8.3,2.1,13.4c0,4.5-0.6,9-2.1,12.8c-1.7,4.1-4.5,6.5-8.1,6.7
		c-0.4-4.1-0.6-7.8-0.6-11.1c0-6.9,0.9-12.1,2.8-15.9c0.4,0.3,0.7,0.8,0.7,1.3c0,0,0,0.1,0,0.1c0,0.4-0.2,0.8-0.5,1
		c-1.4,0.8-2,2.2-2,3.5c0,0.6,0.1,1.1,0.3,1.6c0.6,1.2,2.1,2.1,4.5,1c1.5-0.7,2.5-1.9,3.1-3.4c0.3-0.8,0.4-1.7,0.4-2.6
		c0-2.9-1.2-5.9-1.9-7.3C-124.8,369.7-124.6,369.5-124.6,369.5L-124.6,369.5z"/>
</g>
</svg>
