<?xml version="1.0" encoding="utf-8"?>
<!-- Generator: Adobe Illustrator 19.1.0, SVG Export Plug-In . SVG Version: 6.00 Build 0)  -->
<svg version="1.1" id="Layer_1" xmlns="http://www.w3.org/2000/svg" xmlns:xlink="http://www.w3.org/1999/xlink" x="0px" y="0px"
	 viewBox="-233 309.3 144.8 175.7" enable-background="new -233 309.3 144.8 175.7" xml:space="preserve">
<g>
	<path fill="#FFFFFF" d="M-93.3,413.7l-5.2,6.6l-12.6,6.9l7.2,1.9l-10.5,16.7l-11.7-13c8.4-7.8,14-18.3,15.3-30.1
		c1.5,0.1,2.9,0,3.2,0c0.8,0,1.5-0.6,1.5-1.4s-0.7-1.4-1.5-1.4c-0.3,0-1.6,0-3,0.1c0-0.4,0-0.7,0-1.1c1.5,0.1,2.8,0,3.1,0
		c0.8,0,1.5-0.6,1.5-1.4c0-0.8-0.7-1.4-1.5-1.4c-0.3,0-1.7,0-3.1,0.1c0-0.4,0-0.9,0-1.3c1.4,0,2.7,0,3,0c0.8,0,1.5-0.6,1.5-1.4
		c0-0.8-0.7-1.4-1.5-1.4c-0.3,0-1.7,0-3.2,0.1c-1.2-11.2-6.3-21.2-13.9-28.8l2.5-1.2l10.3-1.6l15.3-12.9l-14.9-14.9l-12.3,15.5
		l-2,14.2c-7.8-7.4-18-12.4-29.4-13.6v-6.5h11.1v-8.6h-33.1v8.6h10.8v6.5c-11.2,1.2-21.2,6-28.9,13.2l-1.2-2.9l-1.2-10.9l-12.7-17
		l-16.4,14.8l15.6,13.6l15,2.8c-7.9,7.8-13.2,18-14.4,29.5c-1.4-0.1-2.7,0-3.1,0c-0.8,0-1.5,0.6-1.5,1.4c0,0.8,0.7,1.4,1.5,1.4
		c0.3,0,1.5,0,2.8,0c0,0.4,0,0.7,0,1.1c-1.4,0-2.6,0-3,0c-0.8,0-1.5,0.6-1.5,1.4s0.7,1.4,1.5,1.4c0.3,0,1.6,0,3-0.1
		c0,0.4,0,0.9,0,1.3c-1.3,0-2.5,0-2.8,0c-0.8,0-1.5,0.6-1.5,1.4c0,0.8,0.7,1.4,1.5,1.4c0.3,0,1.6,0,3.1-0.1
		c1.3,11.9,7.1,22.5,15.5,30.3l-12.4,12.1l-10.5-15.1l6.7-2.8l-17.1-13.4l0.8,18.5l1.6,6.1l3.9-5.7l4.6,6.9l6.9,9.6l-10.1,10.8
		l-0.4,2.8l2.5-0.1l10.2-10.5l6.5,6.2l14.4,8.2l19.2,6.8l7.7,7.2l3.5-6.8l14.5-4.6l19.7-8.3l9.9-8.8l10.1,10.2l3,0.8l0.2-2.7
		l-11.2-11.4l12.2-16.8l3.3,6.5l2.4-9.9L-93.3,413.7z M-180.2,463.1l-24.9-15l12.6-12.9c7.3,5.8,16.2,9.7,26.1,10.8v3.5l1.6,1
		l0.5,2.1L-180.2,463.1z M-128.8,456.6l-27.6,4.8l-0.7-10.4l2.6-2.3l-0.1-2.8c9.8-1.1,18.7-5,25.9-10.8l12.2,12.5L-128.8,456.6z"/>
	<path fill="#FFFFFF" d="M-161.5,330.4c5.5,0,10.1-4.5,10.1-10.1l0,0c0-5.5-4.6-10-10.1-10c-5.6,0-10.1,4.5-10.1,10l0,0
		C-171.6,325.9-167.1,330.4-161.5,330.4z"/>
</g>
<g>
	<path d="M-166.7,348.7c-2.1-0.1-4.3,0.4-5.6,1.4c-2.7-0.2-5.9,0.8-7.3,2.4c-2.7,0.2-5.7,1.7-6.9,3.4c-2.6,0.6-5.4,2.4-6.3,4.3
		c-2.5,1-5,3.2-5.5,5.2c-2.3,1.3-4.4,3.9-4.7,5.9c-2.1,1.6-3.8,4.5-3.7,6.5c-1.8,1.9-3.1,5.1-2.6,7.2c-1.3,1.9-2,4.5-1.7,6.4h-2.8
		c-1,0-1.9,0.8-1.9,1.8s0.8,1.9,1.9,1.9h2.4v0.1v0.2h-2.4c-1,0-1.9,0.9-1.9,1.9s0.8,1.8,1.9,1.8h2.4v0.1v0.2h-2.4
		c-1,0-1.9,0.9-1.9,1.9s0.8,1.9,1.9,1.9h3.1c-0.6,2,0.1,5.1,1.7,7.2c-0.4,2.1,0.9,5.1,2.7,7c0,2.1,1.7,4.9,3.8,6.5
		c0.3,2.1,2.5,4.6,4.8,5.9c0.6,2,3.2,4.2,5.6,5.1c1,1.9,3.8,3.7,6.4,4.3c1.2,1.7,4.3,3.2,6.9,3.3c1.5,1.6,4.9,2.5,7.5,2.2
		c1.1,0.8,2.9,1.3,4.7,1.4v2.7c0,1,0.9,1.8,1.9,1.8c1.1,0,1.9-0.8,1.9-1.8v-2.6h0.2h0.2v2.6c0,1,0.8,1.8,1.9,1.8
		c1,0,1.9-0.8,1.9-1.8v-2.6h0.1h0.2v2.6c0,1,0.9,1.8,1.9,1.8c1.1,0,1.9-0.8,1.9-1.8V446c2.1,0,4.3-0.5,5.5-1.5
		c2.7,0.2,5.9-0.8,7.3-2.3c2.7-0.2,5.7-1.6,6.9-3.4c2.6-0.6,5.4-2.4,6.3-4.3c2.5-1,5-3.2,5.6-5.2c2.3-1.3,4.4-3.9,4.7-5.9
		c2-1.6,3.7-4.5,3.7-6.5c1.8-1.9,3.1-5.1,2.6-7.2c1.3-1.8,2-4.5,1.7-6.4h2.9c1,0,1.8-0.9,1.8-1.9s-0.8-1.9-1.8-1.9h-2.6v-0.2v-0.1
		h2.6c1,0,1.8-0.8,1.8-1.8s-0.8-1.9-1.8-1.9h-2.6v-0.2v-0.1h2.6c1,0,1.8-0.8,1.8-1.9c0-1-0.8-1.8-1.8-1.8h-3.2
		c0.6-2-0.1-5.1-1.6-7.2c0.3-2-0.9-5.1-2.8-7c0-2.1-1.7-4.9-3.8-6.5c-0.3-2.1-2.5-4.6-4.8-5.9c-0.6-2-3.2-4.2-5.6-5.1
		c-0.9-1.9-3.8-3.7-6.3-4.3c-1.2-1.7-4.3-3.2-7-3.3c-1.5-1.6-4.9-2.6-7.5-2.3c-1.1-0.8-2.9-1.3-4.7-1.3v-2.8c0-1-0.9-1.8-1.9-1.8
		s-1.9,0.8-1.9,1.8v2.7c-0.1,0-0.1,0-0.2,0h-0.1v-2.7c0-1-0.9-1.8-1.9-1.8c-1.1,0-1.9,0.8-1.9,1.8v2.7c-0.1,0-0.1,0-0.2,0
		c-0.1,0-0.1,0-0.2,0v-2.7c0-1-0.8-1.8-1.9-1.8c-1,0-1.9,0.8-1.9,1.8L-166.7,348.7L-166.7,348.7z M-161.2,374.1
		c0.1,1.2,0.2,2.3,0.4,3.5c3.9-1.1,7.2-1.9,9.9,1.3c-0.1,0.6-0.1,1.2-0.2,1.9c-2.6-1.6-5.3-1.8-9.2-0.5c0.1,0.8,0.3,1.6,0.5,2.4
		c2.9-0.8,5.2-1.2,8.4,0.1l-0.2,2.2c0,0.2-0.1,0.3-0.1,0.5c-2.6-0.9-4.9-0.9-7.5,0c0.2,1,0.5,2,0.8,3v0.1v-0.1
		c2.4-0.3,4.6-0.2,6.4,0.5c0,0.7,0,1.6,0,2.4c-4.6-2.4-16.3,1.7-22.6,6.1l-0.7-1.8l-0.1-0.3c-0.2,0.1-0.4,0.2-0.6,0.4
		c2.7,6.9,4.5,13.7,5.6,20.8l-12.2-35.5l1.4-0.6l-3.9-4.5c6-6.5,14.8-10.5,24.5-10.5c8.9,0,17.1,3.4,23,9.1c-4.4,1.1-8.3,2.4-12.2,5
		c0.2-5.5-4.6-6.7-10-5.7C-160.2,373.9-160.7,374-161.2,374.1L-161.2,374.1z M-208.1,386.3c-0.1-0.3-0.3-0.6-0.4-0.9
		c-0.5-1.2-0.2-2.6,0.2-3.7l0.2-0.5c0.4-0.9,0.9-1.8,1.6-2.5c0.2,0.8,0.4,1.5,0.5,2.4c0.1,1-0.2,2.1-0.5,3.1
		c-0.4,0.9-0.8,1.9-1.3,2.8C-207.9,386.7-208,386.5-208.1,386.3L-208.1,386.3z M-170.4,416.6c2.9-2.1,6.5-4.2,10.6-6.1
		c-0.9,3.6-1,6.4,0.7,8.7c2.2,2.9,6.8,1.7,10.5-0.5c7.2-4.2,12-8.1,19.2-11.5c-4.4,12.6-16.8,21.8-31.3,21.8c-1.9,0-3.8-0.2-5.7-0.5
		L-170.4,416.6L-170.4,416.6z M-128.9,405.9c-6.2-9.7-7.9-18.4-8.1-30.7c5.7,5.7,9.3,13.5,9.3,22.1
		C-127.7,400.2-128.1,403.1-128.9,405.9L-128.9,405.9z M-168.9,428.1c-14.2-3.6-24.6-16.1-24.6-30.8c0-7.5,2.7-14.4,7.3-19.9
		l0.3,5.2l1.3-0.6L-168.9,428.1L-168.9,428.1z M-158.8,353.6c0.1-0.1,0.1-0.3,0.1-0.4v-0.4h0.1c0.1,0,0.2,0,0.2,0v0.4
		c0,0.2,0,0.3,0.1,0.4H-158.8L-158.8,353.6z M-154.7,354c0.1-0.2,0.2-0.5,0.2-0.7v-1.2c1.8,0.9,4.6,1.1,6.5,1.1l-0.1-0.2
		c0,0,0,0,0,0.1c1.5,1.4,4.8,2.2,7,2.5c1.3,1.6,4.4,2.9,6.4,3.4c1,1.7,3.9,3.5,5.8,4.3c0.7,1.8,3.3,4,5.1,5.1
		c0.5,1.9,2.6,4.4,4.2,5.8c0.2,2,1.9,4.7,3.3,6.3c-0.2,2,1.1,4.9,2.3,6.7c-0.3,1.2-0.1,2.8,0.3,4.3h-1.2c-0.3,0-0.5,0.1-0.8,0.2
		C-118.4,372.1-134.5,356.5-154.7,354L-154.7,354z M-115.4,395.1c0.1,0.1,0.3,0.1,0.4,0.1h0.6v0.1v0.2h-0.6c-0.1,0-0.3,0.1-0.4,0.1
		C-115.4,395.4-115.4,395.2-115.4,395.1L-115.4,395.1z M-115.4,399.1c0.1,0,0.3,0,0.4,0h0.6v0.1v0.2h-0.6c-0.1,0-0.3,0.1-0.4,0.1
		C-115.4,399.4-115.4,399.2-115.4,399.1L-115.4,399.1z M-115.7,403c0.2,0.1,0.5,0.2,0.8,0.2h1.1c-0.3,1.3-0.3,2.6-0.1,3.6l0.1,0.1
		c-1.1,1.8-2.4,4.8-2.2,6.7c-1.3,1.6-3.1,4.4-3.2,6.3c-1.6,1.4-3.8,3.9-4.2,5.8c-1.8,1.2-4.3,3.3-5,5.2c-2,0.9-4.8,2.7-5.8,4.4
		c-2.1,0.6-5.1,1.9-6.4,3.5c-2.1,0.3-5.3,1.2-6.8,2.6c-2.2-0.1-5.5,0.4-7.2,1.5v-1.5c0-0.3-0.1-0.5-0.2-0.7
		C-134.5,438.1-118.4,422.5-115.7,403L-115.7,403z M-158.3,441c-0.1,0.1-0.1,0.3-0.1,0.4v0.5h-0.2h-0.1v-0.5c0-0.1,0-0.3-0.1-0.4
		H-158.3L-158.3,441z M-162.5,441c0,0.1,0,0.3,0,0.4v0.5h-0.2h-0.2v-0.5c0-0.1,0-0.3,0-0.4H-162.5L-162.5,441z M-166.5,440.7
		c-0.1,0.2-0.2,0.5-0.2,0.7v1.2c-1.8-0.8-4.6-1.1-6.5-1l0.1,0.1l0,0c-1.5-1.4-4.8-2.3-7-2.6c-1.3-1.5-4.4-2.8-6.4-3.4
		c-1-1.7-3.9-3.5-5.8-4.3c-0.7-1.9-3.3-4-5.1-5.1c-0.4-1.9-2.6-4.4-4.2-5.8c-0.1-2-1.9-4.7-3.3-6.3c0.2-2-1.2-5-2.3-6.7
		c0.3-1.2,0.1-2.8-0.3-4.3h1.2c0.2,0,0.5-0.1,0.7-0.2C-202.8,422.6-186.7,438.1-166.5,440.7L-166.5,440.7z M-205.9,399.5
		c-0.1,0-0.2-0.1-0.4-0.1h-0.9v-0.2v-0.1h0.9c0.1,0,0.2,0,0.3,0C-205.9,399.2-205.9,399.4-205.9,399.5L-205.9,399.5z M-205.9,395.5
		c-0.1-0.1-0.2-0.1-0.3-0.1h-0.9v-0.2v-0.1h0.9c0.1,0,0.2,0,0.4,0C-205.9,395.2-205.9,395.4-205.9,395.5L-205.9,395.5z
		 M-205.5,391.6c-0.2-0.1-0.5-0.1-0.7-0.1h-1.2c0.3-1.3,0.3-2.7,0.1-3.7l-0.1-0.1c1.1-1.8,2.4-4.7,2.2-6.7c1.3-1.6,3.1-4.4,3.2-6.3
		c1.6-1.4,3.8-3.9,4.2-5.8c1.8-1.1,4.3-3.3,5-5.2c2-0.9,4.8-2.6,5.8-4.4c2.1-0.6,5.1-1.9,6.4-3.5c2.1-0.3,5.4-1.1,6.8-2.5
		c2.2,0,5.5-0.4,7.2-1.6v1.5c0,0.3,0.1,0.5,0.2,0.7C-186.7,356.5-202.8,372-205.5,391.6L-205.5,391.6z M-162.9,353.6
		c0-0.1,0-0.2,0-0.4v-0.4h0.2c0.1,0,0.1,0,0.2,0v0.4c0,0.1,0,0.3,0,0.4H-162.9L-162.9,353.6z M-166.7,350.8
		c-0.1,0.1-0.2,0.2-0.4,0.3c-0.9,0.6-2,0.9-3,1.1c-1,0.2-2.1,0.3-3.2,0.4c0.1-0.2,0.2-0.4,0.4-0.6c0.2-0.3,0.4-0.5,0.6-0.8
		c0.8-1,2.2-1.4,3.5-1.7l0.6-0.1c0.5,0,1.1-0.1,1.6-0.1L-166.7,350.8L-166.7,350.8z M-154.5,349.3c0.2,0,0.5,0,0.8,0.1l0.6,0.1
		c1.2,0.2,2.7,0.6,3.5,1.6c0.2,0.2,0.4,0.5,0.6,0.8c0.1,0.1,0.3,0.3,0.4,0.5c-1.1,0-2.1-0.1-3.2-0.3c-0.9-0.2-1.9-0.4-2.7-0.9V349.3
		L-154.5,349.3z M-113.1,403.1h2.1c0.2,0.8,0.1,1.7-0.1,2.5l-0.1,0.6c-0.3,0.9-0.6,1.8-1.1,2.7c-0.4-0.7-0.7-1.5-0.9-2.2
		c-0.3-1.1-0.2-2.1,0-3.2C-113.2,403.5-113.1,403.3-113.1,403.1L-113.1,403.1z M-154.5,445.2v-1.5l0.3-0.2c0.9-0.6,2-0.9,3-1.1
		c1-0.2,2.1-0.3,3.2-0.3c-0.1,0.2-0.3,0.4-0.4,0.5c-0.2,0.3-0.4,0.6-0.6,0.8c-0.8,1.1-2.2,1.5-3.5,1.7l-0.6,0.1
		C-153.5,445.2-154,445.2-154.5,445.2L-154.5,445.2z M-166.7,445.3c-0.3,0-0.6-0.1-0.8-0.1l-0.6-0.1c-1.2-0.2-2.7-0.6-3.5-1.7
		c-0.2-0.3-0.4-0.6-0.6-0.8c-0.1-0.2-0.3-0.3-0.4-0.5c1.1,0,2.1,0.1,3.2,0.3c1,0.1,1.9,0.4,2.7,0.9V445.3L-166.7,445.3z
		 M-208.2,403.1c0.1,0.3,0.1,0.7,0.2,1.1c0.2,1,0.3,2.1,0.1,3.1c-0.2,0.8-0.5,1.5-0.9,2.2c-0.5-0.8-0.9-1.7-1.2-2.7l-0.1-0.6
		c-0.2-1-0.3-2.2,0.1-3.2L-208.2,403.1L-208.2,403.1z M-208.2,391.4h-2.1c-0.2-0.9-0.1-1.7,0.1-2.6l0.1-0.6c0.3-0.9,0.6-1.9,1.1-2.7
		c0.4,0.7,0.7,1.5,0.9,2.2c0.3,1,0.2,2.1,0,3.1C-208.1,391.2-208.1,391.3-208.2,391.4L-208.2,391.4z M-113,391.4
		c-0.1-0.4-0.2-0.7-0.3-1.1c-0.2-1-0.3-2.1-0.1-3.1c0.2-0.8,0.5-1.6,0.9-2.3c0.5,0.8,0.9,1.8,1.2,2.7l0.1,0.5
		c0.2,1.1,0.3,2.2-0.1,3.2h-1.7V391.4z M-205.7,379.5c-0.1-0.4-0.2-0.7-0.2-1c-0.4-1.2,0.2-2.6,0.8-3.7l0.2-0.5
		c0.6-0.8,1.2-1.6,1.9-2.2c0.1,0.7,0.2,1.6,0.1,2.4c-0.1,1-0.5,2-0.9,2.9c-0.5,0.9-1.1,1.8-1.7,2.7
		C-205.6,379.9-205.6,379.7-205.7,379.5L-205.7,379.5z M-202.2,373.1c-0.1-0.3-0.1-0.6-0.1-1c-0.2-1.3,0.6-2.5,1.4-3.5l0.3-0.5
		c0.7-0.7,1.4-1.4,2.3-1.9c0,0.8-0.1,1.6-0.2,2.4c-0.2,1-0.8,1.9-1.4,2.8c-0.6,0.9-1.3,1.6-2.1,2.4
		C-202.1,373.6-202.2,373.3-202.2,373.1L-202.2,373.1z M-197.8,367.3c0-0.4,0.1-0.7,0.1-1c0.1-1.3,1-2.4,1.9-3.3l0.4-0.4
		c0.7-0.6,1.6-1.2,2.5-1.6c-0.1,0.8-0.3,1.6-0.6,2.3c-0.4,1-1.1,1.8-1.9,2.6c-0.8,0.7-1.6,1.4-2.5,2
		C-197.8,367.7-197.8,367.5-197.8,367.3L-197.8,367.3z M-192.5,362.2c0.1-0.3,0.1-0.7,0.2-1c0.3-1.2,1.4-2.2,2.4-2.9l0.5-0.4
		c0.8-0.5,1.8-1,2.8-1.2c-0.2,0.8-0.6,1.5-1,2.2c-0.5,0.9-1.4,1.7-2.2,2.3c-0.9,0.6-1.8,1.2-2.7,1.7
		C-192.7,362.6-192.6,362.4-192.5,362.2L-192.5,362.2z M-186.6,357.9c0.2-0.3,0.3-0.7,0.4-1c0.5-1.2,1.7-2,2.8-2.6l0.6-0.2
		c0.9-0.4,1.9-0.7,2.9-0.8c-0.4,0.7-0.8,1.4-1.3,2c-0.7,0.9-1.6,1.4-2.6,1.9c-0.9,0.5-1.9,0.9-3,1.2
		C-186.7,358.3-186.6,358.1-186.6,357.9L-186.6,357.9z M-180,354.5c0.2-0.3,0.3-0.6,0.5-0.9c0.6-1.2,2-1.8,3.2-2.2l0.6-0.2
		c0.9-0.2,2-0.4,3-0.4c-0.4,0.7-1,1.3-1.6,1.9c-0.8,0.7-1.8,1.2-2.8,1.5c-1,0.4-2.1,0.6-3.1,0.8C-180.2,354.8-180.1,354.7-180,354.5
		L-180,354.5z M-207.8,408.8c0.1-0.2,0.2-0.4,0.3-0.6c0.5,0.9,0.9,1.9,1.3,2.9c0.3,1,0.6,2,0.5,3.1c-0.1,0.8-0.2,1.6-0.5,2.3
		c-0.6-0.7-1.1-1.6-1.5-2.5l-0.2-0.5c-0.4-1.2-0.7-2.6-0.2-3.7C-208,409.5-207.9,409.2-207.8,408.8L-207.8,408.8z M-205.3,415.6
		c0.1-0.2,0.1-0.4,0.2-0.6c0.6,0.8,1.2,1.7,1.8,2.6c0.4,0.9,0.9,1.9,1,3c0,0.8,0,1.6-0.1,2.4c-0.7-0.6-1.4-1.4-1.9-2.2l-0.3-0.5
		c-0.6-1.1-1.2-2.4-0.8-3.7C-205.5,416.3-205.4,416-205.3,415.6L-205.3,415.6z M-201.8,422c0-0.2,0.1-0.4,0.1-0.6
		c0.8,0.7,1.5,1.5,2.2,2.4c0.6,0.8,1.2,1.7,1.5,2.7c0.1,0.8,0.2,1.6,0.2,2.4c-0.9-0.5-1.6-1.2-2.3-1.9l-0.4-0.5
		c-0.7-0.9-1.5-2.2-1.4-3.4L-201.8,422L-201.8,422z M-197.3,427.8c0-0.2,0-0.4,0-0.7c0.9,0.6,1.7,1.3,2.5,2c0.8,0.8,1.5,1.6,1.9,2.6
		c0.3,0.7,0.5,1.5,0.6,2.3c-0.9-0.4-1.8-0.9-2.5-1.6l-0.5-0.4c-0.9-0.9-1.9-2-1.9-3.3C-197.3,428.4-197.3,428.1-197.3,427.8
		L-197.3,427.8z M-192,432.9c-0.1-0.2-0.1-0.4-0.1-0.7c0.9,0.5,1.9,1.1,2.7,1.7c0.8,0.6,1.7,1.3,2.3,2.2c0.4,0.7,0.7,1.5,1,2.2
		c-1-0.3-1.9-0.7-2.8-1.2l-0.5-0.4c-1-0.7-2.1-1.7-2.4-2.9C-191.9,433.5-191.9,433.2-192,432.9L-192,432.9z M-186,437.1
		c-0.1-0.2-0.1-0.4-0.2-0.6c1,0.3,2,0.7,2.9,1.2c1,0.5,1.9,1.1,2.6,1.9c0.4,0.6,0.9,1.3,1.2,2c-1-0.1-1.9-0.4-2.9-0.8l-0.5-0.2
		c-1.2-0.6-2.4-1.4-2.9-2.6C-185.7,437.7-185.8,437.4-186,437.1L-186,437.1z M-179.3,440.5c-0.1-0.2-0.2-0.4-0.3-0.6
		c1.1,0.2,2.1,0.4,3.2,0.8c1,0.4,2.1,0.8,2.9,1.5c0.6,0.6,1.1,1.2,1.6,1.9c-1,0-2-0.1-3-0.4l-0.5-0.2c-1.2-0.4-2.6-1-3.2-2.1
		C-179,441-179.2,440.7-179.3,440.5L-179.3,440.5z M-113.5,385.8c-0.1,0.2-0.2,0.4-0.2,0.6c-0.6-0.9-1-1.8-1.4-2.8
		c-0.3-1-0.7-2.1-0.5-3.1c0.1-0.8,0.2-1.6,0.5-2.4c0.6,0.7,1.1,1.6,1.6,2.5l0.2,0.5c0.4,1.2,0.8,2.6,0.3,3.7
		C-113.2,385.1-113.3,385.5-113.5,385.8L-113.5,385.8z M-115.9,378.9c0,0.2-0.1,0.4-0.2,0.6c-0.6-0.8-1.2-1.7-1.7-2.6s-1-1.9-1.1-3
		c0-0.8,0-1.6,0.2-2.4c0.7,0.6,1.4,1.4,1.9,2.2l0.3,0.5c0.6,1.1,1.2,2.4,0.8,3.6C-115.8,378.3-115.9,378.6-115.9,378.9L-115.9,378.9
		z M-119.5,372.6c0,0.2-0.1,0.4-0.1,0.6c-0.8-0.7-1.5-1.5-2.1-2.3c-0.6-0.9-1.2-1.8-1.5-2.8c-0.1-0.8-0.2-1.6-0.2-2.4
		c0.9,0.5,1.6,1.2,2.3,1.9l0.4,0.5c0.7,1,1.5,2.2,1.4,3.5L-119.5,372.6L-119.5,372.6z M-123.9,366.8c0,0.2,0,0.4,0,0.6
		c-0.9-0.6-1.7-1.2-2.5-2c-0.7-0.7-1.5-1.6-1.9-2.5c-0.3-0.8-0.5-1.6-0.6-2.4c0.9,0.4,1.8,1,2.5,1.6l0.5,0.4c0.9,0.9,1.8,2,1.9,3.3
		C-124,366.1-123.9,366.5-123.9,366.8L-123.9,366.8z M-129.3,361.7c0.1,0.2,0.1,0.4,0.1,0.6c-0.9-0.4-1.9-1-2.7-1.6
		c-0.9-0.6-1.7-1.3-2.3-2.2c-0.4-0.7-0.7-1.4-0.9-2.2c1,0.2,1.9,0.7,2.7,1.2l0.5,0.3c1,0.7,2.1,1.7,2.4,2.9
		C-129.4,361.1-129.3,361.4-129.3,361.7L-129.3,361.7z M-135.3,357.5l0.2,0.6c-1.1-0.3-2.1-0.7-3-1.2c-1-0.5-1.9-1.1-2.6-1.9
		c-0.5-0.7-1-1.4-1.3-2.1c1,0.1,2,0.4,2.9,0.8l0.6,0.2c1.1,0.6,2.4,1.4,2.8,2.6C-135.5,356.8-135.4,357.2-135.3,357.5L-135.3,357.5z
		 M-141.9,354.2c0.1,0.1,0.2,0.3,0.3,0.5c-1.1-0.2-2.1-0.4-3.1-0.8c-1-0.3-2.1-0.8-2.9-1.5c-0.6-0.5-1.1-1.2-1.6-1.8
		c1-0.1,2.1,0.1,3,0.4l0.6,0.2c1.2,0.4,2.6,1,3.2,2.1C-142.3,353.5-142.1,353.8-141.9,354.2L-141.9,354.2z M-113.2,408.3
		c0.2,0.3,0.3,0.7,0.4,1c0.5,1.1,0.2,2.6-0.2,3.7l-0.2,0.6c-0.4,0.9-0.9,1.7-1.5,2.4c-0.3-0.7-0.5-1.5-0.6-2.3
		c-0.1-1.1,0.2-2.1,0.5-3.1c0.4-1,0.8-1.9,1.3-2.9C-113.4,407.9-113.3,408.1-113.2,408.3L-113.2,408.3z M-115.6,415.1
		c0.1,0.3,0.2,0.6,0.2,1c0.4,1.2-0.2,2.6-0.7,3.6l-0.3,0.5c-0.5,0.8-1.1,1.6-1.9,2.2c-0.1-0.8-0.2-1.6-0.1-2.4c0.1-1.1,0.5-2.1,1-3
		c0.5-0.9,1-1.8,1.7-2.6C-115.7,414.7-115.6,414.9-115.6,415.1L-115.6,415.1z M-119,421.5c0.1,0.4,0.1,0.7,0.1,1
		c0.2,1.3-0.6,2.5-1.4,3.5l-0.3,0.5c-0.7,0.7-1.4,1.4-2.2,1.9c0-0.7,0.1-1.6,0.2-2.4c0.2-1,0.8-1.9,1.4-2.7c0.6-0.9,1.3-1.7,2.1-2.4
		C-119.1,421.1-119.1,421.3-119,421.5L-119,421.5z M-123.4,427.3c0,0.3-0.1,0.7-0.1,1c-0.1,1.3-1,2.4-1.9,3.3l-0.4,0.4
		c-0.8,0.6-1.6,1.2-2.5,1.6c0.1-0.8,0.3-1.6,0.6-2.3c0.4-1,1.1-1.8,1.9-2.6c0.7-0.7,1.6-1.4,2.5-2
		C-123.4,426.9-123.4,427.1-123.4,427.3L-123.4,427.3z M-128.7,432.4c-0.1,0.3-0.1,0.7-0.2,1c-0.3,1.3-1.4,2.2-2.4,3l-0.5,0.3
		c-0.8,0.5-1.8,1-2.7,1.2c0.2-0.8,0.5-1.6,0.9-2.2c0.5-0.9,1.4-1.6,2.2-2.3c0.9-0.6,1.8-1.2,2.7-1.6
		C-128.6,432-128.6,432.2-128.7,432.4L-128.7,432.4z M-134.7,436.8c-0.1,0.3-0.3,0.6-0.4,0.9c-0.4,1.2-1.7,2-2.8,2.6l-0.6,0.2
		c-0.9,0.4-1.9,0.7-2.9,0.8c0.4-0.7,0.8-1.4,1.3-2.1c0.7-0.8,1.6-1.4,2.6-1.9c0.9-0.5,1.9-0.9,3-1.2
		C-134.5,436.3-134.6,436.5-134.7,436.8L-134.7,436.8z M-141.3,440.1c-0.1,0.3-0.3,0.6-0.5,0.9c-0.6,1.1-2,1.8-3.2,2.2l-0.6,0.1
		c-1,0.2-2,0.4-3,0.4c0.5-0.6,1-1.3,1.6-1.8c0.8-0.7,1.8-1.2,2.8-1.6c1.1-0.3,2.1-0.6,3.2-0.8C-141.1,439.7-141.2,439.9-141.3,440.1
		L-141.3,440.1z M-158.7,349.4L-158.7,349.4c0.2,0,0.3,0,0.3,0v2.5c-0.1,0-0.1,0-0.2,0h-0.1V349.4L-158.7,349.4z M-162.5,349.4v2.5
		c-0.1,0-0.1,0-0.2,0s-0.1,0-0.2,0v-2.5h0.2C-162.6,349.4-162.6,349.4-162.5,349.4L-162.5,349.4z M-158.7,442.7L-158.7,442.7h0.3
		v2.5h-0.2h-0.1V442.7L-158.7,442.7z M-162.5,442.7v2.5h-0.2h-0.2v-2.5h0.2H-162.5L-162.5,442.7z M-110.9,399.1L-110.9,399.1v0.3
		h-2.5v-0.2v-0.1L-110.9,399.1L-110.9,399.1z M-110.9,395.4h-2.5v-0.2v-0.1h2.5v0.1V395.4L-110.9,395.4z M-208,399.1L-208,399.1v0.3
		h-2.5v-0.2v-0.1L-208,399.1L-208,399.1z M-208,395.4h-2.5v-0.2v-0.1h2.5v0.1V395.4L-208,395.4z M-182.2,380.3l-3.3,1.4l-0.3-5.6
		L-182.2,380.3L-182.2,380.3z M-169.8,424.2l2,1l1.1,3.2l-2-1L-169.8,424.2L-169.8,424.2z M-172.6,416.2l2,0.9l1.1,3.2l-2-1
		L-172.6,416.2L-172.6,416.2z M-175.4,408.1l2.1,1l1.1,3.1l-2-0.9L-175.4,408.1L-175.4,408.1z M-178.2,399.9l2,1l1.1,3.2l-2-0.9
		L-178.2,399.9L-178.2,399.9z M-181,391.8l2,1l1.1,3.2l-2-1L-181,391.8L-181,391.8z M-183.7,383.7l2,1l1.1,3.2l-1.9-1L-183.7,383.7
		L-183.7,383.7z M-150.4,382.4c4.4-3.4,6.6-4.5,12.3-5.9c0,1,0.1,1.9,0.1,2.8c-5.5,1.3-7.8,2.4-12.6,5.8
		C-150.7,385.2-150.6,383.8-150.4,382.4L-150.4,382.4z M-151,388.5c4.4-3.4,7.6-4.6,13.1-6c0.1,0.9,0.2,1.8,0.3,2.7
		c-5.4,1.2-8.7,2.6-13.4,6V388.5L-151,388.5z M-151.1,394c4.6-3.2,8.3-4.8,14-6.3l0.1,0.4c0.1,0.9,0.3,1.7,0.5,2.6
		c-5.6,1.3-9.4,2.9-14.2,6.4C-151,396-151.2,395.1-151.1,394L-151.1,394z M-150.4,400.4c4.3-3.3,8.8-5.3,14.6-6.8l0.9,2.9
		c-5.5,1.2-10.2,3.3-15,6.8L-150.4,400.4L-150.4,400.4z M-148.3,408.7c-0.3-0.9-0.6-1.7-0.9-2.6c4.4-3.3,9.3-5.7,15.3-7.2v0.1
		c0.3,0.8,0.7,1.5,1,2.2C-138.1,402.8-143.3,405.4-148.3,408.7L-148.3,408.7z M-158.9,411.4c2.9-1.3,6-2.7,8.5-2.6l0.2,0.7
		c-2.8,1.7-5.9,3.5-9,5.1C-159.3,413.7-159.1,412.5-158.9,411.4L-158.9,411.4z M-158.5,417.3c9.9-3.4,17.2-9.6,26.8-13.7
		c0.5,0.8,0.9,1.6,1.4,2.4c-6.7,3.2-11.2,5.7-19.1,10.6C-153.3,419.1-157.6,419.3-158.5,417.3L-158.5,417.3z M-170.1,411.2
		c5.3-3.7,13.6-8.8,19.4-6.9c0.2,0.8,0.5,1.7,0.7,2.5c-4.7-2.1-13.3,2.1-19.7,6.9L-170.1,411.2L-170.1,411.2z M-171.6,405.8
		c5.3-4,14.3-8.2,20.1-5.7c0.1,0.7,0.2,1.5,0.4,2.2c-4.3-2.2-13.8,1.4-19.8,5.8L-171.6,405.8L-171.6,405.8z M-173.2,400.8
		c5.3-4.3,14.8-8.5,21.3-5.9c0,0.8,0.1,1.7,0.1,2.6c-4.6-2.4-14.5,0.9-20.8,5.5L-173.2,400.8L-173.2,400.8z M-158.4,438.8l-0.2-3.9
		c0,0-0.3,0.4-0.7,0.6c-0.3,0.1-0.6-0.1-0.4-0.6c0.2-0.6,0.7-0.6,1-2c0.1-0.4,0.1-0.8,0.2-1.3c0.1-0.7,1-0.7,1.1,0l0.3,7
		L-158.4,438.8L-158.4,438.8z M-195.6,402.7l-1.3,0.1l-0.1-1.2l1.3-0.2L-195.6,402.7L-195.6,402.7z M-189.7,416.9l-1.1,0.7l-0.7-1.1
		l1.1-0.6L-189.7,416.9L-189.7,416.9z M-185.9,424.9l-0.8-0.8c0.4-0.4,0.6-0.7,0.6-1.1c0.1-0.9-1.3-2.4-2.2-2.6
		c-0.5-0.2-1,0-1.2,0.3c-0.5,0.5-0.1,1.1,0.2,1.6c0.9,1.3,1.7,2.4,1.6,3.2c-0.1,1-1.2,1.9-2.4,1.7c-1.5-0.2-3.1-2.1-3.2-3.4
		c-0.1-0.6,0.2-1.1,0.8-1.7l0.7,0.8c-0.3,0.3-0.4,0.7-0.4,1c0,0.7,1.2,2,2,2.3c0.8,0.2,1.4-0.3,1.3-0.9c-0.1-1-2.1-2.9-2.1-4.2
		c0-1,1.1-2.1,2.5-1.8c1.5,0.2,3.5,2.2,3.5,3.7C-185,423.6-185.3,424.3-185.9,424.9L-185.9,424.9z M-191.7,375l-1.2,1.4l2.6,2
		l-0.7,0.8l-6-4.7l2.5-2.9c0.9-1.1,2.1-1.9,3.4-1c1.4,1,1,2.5,0.1,3.5l4,0.2l-0.9,1L-191.7,375L-191.7,375z M-194.1,372.6l-1.5,1.7
		l1.9,1.6l1.4-1.7c0.7-0.9,1.5-1.8,0.4-2.6C-192.7,370.9-193.5,371.7-194.1,372.6L-194.1,372.6z M-198.3,405c0,0,2.1-0.5,3.5,1.4
		c1,1.3,1.4,3.4,0.4,4.7c-1.1,1.6-3.9,2.5-5.7,1.3c-1.2-0.8-2.1-2.7-1.9-4.3c0.2-1.9,1.9-2.5,1.9-2.4l0.3,1.1
		c-1.2,0.6-1.4,1.9-1,3.1c0.5,1.4,1.8,2.5,3.8,1.9c2-0.6,2.5-2.2,2-3.7c-0.7-2.3-2.9-1.9-2.9-1.9L-198.3,405L-198.3,405z M-193,384
		c-1,2.7-3.4,3.3-5.5,2.4c-1.8-0.7-3-2.5-2.3-4.7c0.7-2.4,2.9-3.9,5.6-2.8C-193.4,379.7-192.1,381.5-193,384L-193,384z
		 M-198.1,385.4c1.5,0.6,3.3,0.4,4.1-1.8c0.7-1.8-0.3-3.2-1.8-3.7c-2-0.7-3.4,0.3-3.9,1.7C-200.3,383.1-200,384.6-198.1,385.4
		L-198.1,385.4z M-185.4,373l-5.3-5.4l0.8-0.7l5.2,5.5L-185.4,373L-185.4,373z M-183.4,370.8l-4.1-6.3l1.2-0.8l7.6,2.9l-3.5-5.3
		l0.9-0.6l4.1,6.3l-1.2,0.7l-7.6-2.9l3.5,5.4L-183.4,370.8L-183.4,370.8z M-175.1,359.1l2.4,6l-1,0.4l-2.4-6l-2.7,1l-0.4-0.9
		l6.5-2.4l0.4,0.9L-175.1,359.1L-175.1,359.1z M-169.2,363.8l-1-7.4l1.1-0.2l0.4,3l4.7-0.6l-0.4-3l1.1-0.1l0.9,7.4l-1.1,0.1
		l-0.4-3.4l-4.7,0.7l0.4,3.4L-169.2,363.8L-169.2,363.8z M-160.6,363.1l0.2-7.4h1.1l-0.1,7.5L-160.6,363.1L-160.6,363.1z
		 M-158.6,362.9l4.9-6.7l1.2,0.2l2,7.9l-1.1-0.2l-0.6-2.2l-3.8-0.8l-1.4,1.9L-158.6,362.9L-158.6,362.9z M-155.4,360.3l3,0.5
		l-0.9-3.4L-155.4,360.3L-155.4,360.3z M-149.6,364.7l3.1-6.8l1.3,0.6l1.8,7.7l2.7-5.8l1,0.4l-3.1,6.8l-1.3-0.6l-1.9-7.7l-2.7,5.8
		L-149.6,364.7L-149.6,364.7z M-132.9,376l6.2-4.4l2,2.7c0.9,1.2,1.4,2.5-0.1,3.6c-1.5,1.1-2.7,0.2-3.6-1l-1.3-1.8l-2.6,1.8
		L-132.9,376L-132.9,376z M-129,374.5l1.1,1.5c0.7,0.9,1.4,1.9,2.6,0.9c0.8-0.7,0.3-1.6-0.3-2.4l-1.2-1.6L-129,374.5L-129,374.5z
		 M-129.4,380.4l8.5,0.5l0.4,1l-5.8,5.8l-0.4-1l1.7-1.7l-1.5-3.5l-2.4-0.2L-129.4,380.4L-129.4,380.4z M-125.5,381.6l1.1,2.7
		l2.5-2.5L-125.5,381.6L-125.5,381.6z M-117.4,393.6l-4.6,0.9c-2.5,0.5-3.5-1-3.8-2.6c-0.3-1.7-0.1-3.4,2.6-3.9l4.5-0.8l0.2,1.1
		l-4.1,0.8c-1.7,0.3-2.5,0.9-2.1,2.7c0.2,1.1,0.9,2.1,3,1.7l4.2-0.8L-117.4,393.6L-117.4,393.6z M-125.1,396.7l7.7,0.5l-0.1,1
		l-6.7-0.4l-0.3,4.5l-1.1-0.1L-125.1,396.7L-125.1,396.7z M-125.8,403.3l7.6,1.3l-0.2,1l-7.6-1.3L-125.8,403.3L-125.8,403.3z
		 M-125.1,419.2l-5.7-3.4l0.6-0.9l5.6,3.4l1.6-2.4l0.9,0.5l-3.7,5.7l-0.9-0.5L-125.1,419.2L-125.1,419.2z M-131.9,417.7l3.2,7.7
		l-0.8,0.8l-8-2.6l0.7-0.8l2.3,0.8l2.6-2.8l-0.9-2.2L-131.9,417.7L-131.9,417.7z M-131.4,421.7l-2.1,2.2l3.4,1.1L-131.4,421.7
		L-131.4,421.7z M-169.2,436l1.4,0.2c0,0.7,0.7,1.6,2.2,1.7c3,0.3,3.1-2.9,3.1-2.9c-1,0.9-2.4,1-3.5,0.7c-0.9-0.2-1.9-0.5-2.6-1.5
		c-0.8-1.1-0.5-2.6,0.9-3.2c1.8-0.9,4.7-0.2,5.9,0.9c1.3,1.3,1.1,4.8-0.6,6.2c-1.2,1-3.6,0.9-5.2,0.1
		C-168.8,437.7-169.2,436.7-169.2,436L-169.2,436z M-163,432.4c-0.8-0.9-2.7-1.3-3.9-0.7c-0.9,0.5-1.2,1.5-0.3,2.4
		c0.6,0.6,2.1,1.1,3.3,0.8C-162.6,434.5-162.2,433.3-163,432.4L-163,432.4z M-172.7,437.1l1.1-3.8c0,0-0.5,0.3-0.9,0.3
		c-0.3,0-0.5-0.3-0.2-0.7c0.4-0.5,0.8-0.3,1.6-1.6c0.2-0.3,0.4-0.7,0.6-1.1c0.3-0.6,1.2-0.3,1,0.4l-2,6.8L-172.7,437.1L-172.7,437.1
		z M-152.6,429.6c2.7-0.6,5,1.2,5.4,3.4c0.4,2.4-1.2,4.2-3.1,4.7c-2.6,0.7-4.9-0.9-5.4-3.2C-156.3,432.4-154.9,430.2-152.6,429.6
		L-152.6,429.6z M-152.2,430.5c-1.7,0.3-2.8,2-2.4,3.7c0.4,1.8,2,2.9,3.7,2.7c1.7-0.3,2.8-2,2.5-3.7
		C-148.8,431.4-150.5,430.2-152.2,430.5L-152.2,430.5z M-183.5,431.9l2.3-2l-1.2-2.7l2.6,1.4l2.2-1.9l-0.7,2.8l2.6,1.5l-3,0.4
		l-0.6,2.9l-1.2-2.7L-183.5,431.9L-183.5,431.9z M-136.6,431.3l-3-0.3l-1.2,2.7l-0.7-2.9l-3-0.4l2.6-1.5l-0.6-2.8l2.2,1.9l2.6-1.5
		l-1.2,2.7L-136.6,431.3L-136.6,431.3z M-198.1,388.3c0,0,2.1,0.5,2.6,2.8c0.3,1.7-0.3,3.6-1.7,4.4c-1.7,0.9-4.6,0.5-5.7-1.4
		c-0.8-1.3-0.7-3.3,0.2-4.7c1.1-1.6,2.8-1.3,2.8-1.3l-0.2,1.1c-1.4,0-2.1,1.1-2.3,2.3c-0.2,1.5,0.4,3,2.5,3.4c2,0.4,3.2-0.8,3.5-2.4
		c0.4-2.4-1.8-3-1.7-3V388.3L-198.1,388.3z M-140,366.2l0.9,0.7c-0.3,0.4-0.4,0.8-0.4,1.2c0.1,0.9,1.6,2.2,2.5,2.3
		c0.5,0.1,1-0.2,1.2-0.5c0.4-0.6,0-1.1-0.4-1.6c-1.1-1.1-2-2.1-2.1-3c-0.1-1,0.9-2.1,2.1-2c1.5,0,3.4,1.6,3.7,2.9
		c0.1,0.6-0.1,1.2-0.6,1.7l-0.8-0.7c0.2-0.3,0.3-0.7,0.3-1.1c-0.1-0.7-1.5-1.8-2.3-1.9c-0.8-0.1-1.3,0.5-1.2,1
		c0.2,0.9,2.5,2.6,2.7,3.9c0.2,1-0.8,2.2-2.2,2.2c-1.5,0-3.7-1.7-4-3.2C-140.7,367.5-140.5,366.9-140,366.2L-140,366.2z
		 M-123.8,406.4l-0.3,1.1c-0.5-0.1-0.9-0.1-1.3,0c-0.9,0.4-1.5,2.2-1.3,3.1c0.1,0.5,0.5,0.8,0.8,0.9c0.7,0.2,1-0.4,1.3-1
		c0.7-1.4,1.3-2.6,2.1-3c0.9-0.4,2.2,0.2,2.6,1.3c0.5,1.4-0.4,3.8-1.5,4.5c-0.5,0.3-1.1,0.3-1.9,0.1l0.4-1c0.4,0.1,0.8,0.1,1.1-0.1
		c0.6-0.3,1.2-2.1,1.1-2.9c-0.2-0.8-0.9-1.1-1.4-0.8c-0.8,0.5-1.6,3.2-2.7,3.9c-0.9,0.5-2.3,0-2.8-1.3c-0.5-1.4,0.3-4.1,1.7-4.8
		C-125.3,406.2-124.6,406.2-123.8,406.4L-123.8,406.4z M-155.5,349c0,0.1,0.1,0.2,0.2,0.2v2.8c-0.1,0.1-0.2,0.2-0.2,0.2
		c0,0.1,0.1,0.2,0.2,0.3v0.5c0,1.5-2.4,1.5-2.4,0v-3.7l1,1.1c0.2,0.2,0.4,0.4,0.7,0.2c0.2-0.1,0.2-0.4,0.1-0.6l-1.7-2.4v-1.7
		c0-1.6,2.4-1.6,2.4,0v2.8C-155.4,348.8-155.5,348.9-155.5,349L-155.5,349z M-159.6,349c0,0.1,0.1,0.2,0.2,0.2v2.8
		c-0.1,0.1-0.2,0.2-0.2,0.2c0,0.1,0.1,0.2,0.2,0.3v0.5c0,1.5-2.4,1.5-2.4,0v-3.7l1,1.1c0.2,0.2,0.4,0.4,0.6,0.2
		c0.2-0.1,0.2-0.4,0.1-0.6l-1.7-2.4v-1.7c0-1.6,2.4-1.6,2.4,0v2.8C-159.5,348.8-159.6,348.9-159.6,349L-159.6,349z M-163.7,349
		c0,0.1,0.1,0.2,0.2,0.2v2.8c-0.1,0.1-0.2,0.2-0.2,0.2c0,0.1,0.1,0.2,0.2,0.3v0.5c0,1.5-2.4,1.5-2.4,0v-3.7l1,1.1
		c0.2,0.2,0.4,0.4,0.7,0.2c0.2-0.1,0.2-0.4,0.1-0.6l-1.7-2.4v-1.7c0-1.6,2.4-1.6,2.4,0v2.8C-163.7,348.8-163.7,348.9-163.7,349
		L-163.7,349z M-209.5,394.2c-0.1,0-0.2,0.1-0.3,0.2h-2.9c-0.1-0.1-0.2-0.2-0.3-0.2s-0.2,0.1-0.3,0.2h-0.6c-1.6,0-1.6-2.3,0-2.3h3.9
		l-1.1,1c-0.2,0.2-0.4,0.4-0.2,0.6s0.4,0.2,0.7,0.1l2.5-1.7h1.8c1.6,0,1.6,2.3-0.1,2.3h-2.9C-209.3,394.3-209.4,394.2-209.5,394.2
		L-209.5,394.2z M-209.5,398.2c-0.1,0-0.2,0.1-0.3,0.2h-2.9c-0.1-0.1-0.2-0.2-0.3-0.2s-0.2,0.1-0.3,0.2h-0.6c-1.6,0-1.6-2.3,0-2.3
		h3.9l-1.1,1c-0.2,0.2-0.4,0.4-0.2,0.6s0.4,0.2,0.7,0.1l2.5-1.7h1.8c1.6,0,1.6,2.3-0.1,2.3h-2.9
		C-209.3,398.3-209.4,398.2-209.5,398.2L-209.5,398.2z M-209.5,402.3c-0.1,0-0.2,0.1-0.3,0.2h-2.9c-0.1-0.1-0.2-0.2-0.3-0.2
		s-0.2,0.1-0.3,0.2h-0.6c-1.6,0-1.6-2.3,0-2.3h3.9l-1.1,1c-0.2,0.2-0.4,0.4-0.2,0.6c0.2,0.2,0.4,0.2,0.7,0.1l2.5-1.7h1.8
		c1.6,0,1.6,2.3-0.1,2.3h-2.9C-209.3,402.4-209.4,402.3-209.5,402.3L-209.5,402.3z M-110.6,394.2c-0.1,0-0.2,0.1-0.3,0.2h-2.9
		c-0.1-0.1-0.2-0.2-0.3-0.2c-0.1,0-0.2,0.1-0.3,0.2h-0.5c-1.6,0-1.6-2.3,0-2.3h3.9l-1.1,1c-0.2,0.2-0.4,0.4-0.2,0.6
		c0.2,0.2,0.4,0.2,0.7,0.1l2.5-1.7h1.7c1.6,0,1.6,2.3,0,2.3h-2.9C-110.4,394.3-110.5,394.2-110.6,394.2L-110.6,394.2z M-110.6,398.2
		c-0.1,0-0.2,0.1-0.3,0.2h-2.9c-0.1-0.1-0.2-0.2-0.3-0.2c-0.1,0-0.2,0.1-0.3,0.2h-0.5c-1.6,0-1.6-2.3,0-2.3h3.9l-1.1,1
		c-0.2,0.2-0.4,0.4-0.2,0.6c0.2,0.2,0.4,0.2,0.7,0.1l2.5-1.7h1.7c1.6,0,1.6,2.3,0,2.3h-2.9C-110.4,398.3-110.5,398.2-110.6,398.2
		L-110.6,398.2z M-110.6,402.3c-0.1,0-0.2,0.1-0.3,0.2h-2.9c-0.1-0.1-0.2-0.2-0.3-0.2c-0.1,0-0.2,0.1-0.3,0.2h-0.5
		c-1.6,0-1.6-2.3,0-2.3h3.9l-1.1,1c-0.2,0.2-0.4,0.4-0.2,0.6c0.2,0.2,0.4,0.2,0.7,0.1l2.5-1.7h1.7c1.6,0,1.6,2.3,0,2.3h-2.9
		C-110.4,402.4-110.5,402.3-110.6,402.3L-110.6,402.3z M-155.5,444.5c0,0.1,0.1,0.2,0.2,0.3v2.8c-0.1,0.1-0.2,0.2-0.2,0.3
		s0.1,0.2,0.2,0.2v0.5c0,1.5-2.4,1.5-2.4,0v-3.7l1,1.1c0.2,0.2,0.4,0.3,0.7,0.2c0.2-0.2,0.2-0.4,0.1-0.7l-1.7-2.4v-1.7
		c0-1.6,2.4-1.6,2.4,0v2.8C-155.4,444.3-155.5,444.5-155.5,444.5L-155.5,444.5z M-159.6,444.5c0,0.1,0.1,0.2,0.2,0.3v2.8
		c-0.1,0.1-0.2,0.2-0.2,0.3s0.1,0.2,0.2,0.2v0.5c0,1.5-2.4,1.5-2.4,0v-3.7l1,1.1c0.2,0.2,0.4,0.3,0.6,0.2c0.2-0.2,0.2-0.4,0.1-0.7
		l-1.7-2.4v-1.7c0-1.6,2.4-1.6,2.4,0v2.8C-159.5,444.3-159.6,444.5-159.6,444.5h-4.2c0,0.1,0.1,0.2,0.2,0.3v2.8
		c-0.1,0.1-0.2,0.2-0.2,0.3s0.1,0.2,0.2,0.2v0.5c0,1.5-2.4,1.5-2.4,0v-3.7l1,1.1c0.2,0.2,0.4,0.3,0.7,0.2c0.2-0.2,0.2-0.4,0.1-0.7
		l-1.7-2.4v-1.7c0-1.6,2.4-1.6,2.4,0v2.8c-0.1,0.1-0.2,0.2-0.2,0.3H-159.6L-159.6,444.5z"/>
	<path fill="#ED1C24" d="M-193.3,434.4l-11.1,11.8c-0.4-0.4-0.8-0.8-1.2-1.2l10.9-11.5c-0.4-0.3-0.8-0.6-1.2-0.9l-10.8,11.3
		c-4.1-4.4-6.7-9.3-8.7-14.2c1.8-1.1,4.6-1.8,7-2.2c-8.6-4.3-16.5-10.9-20.2-17.4c-2.7,9.8-1.9,20.3,2.5,30.8c1-2.2,1.7-5,3.9-6.4
		c3.1,5.7,6.4,10.7,10,15.1l-10,10.4c-2.9,3.1,1.1,6,4,2.9l9-9.7c6.1,6.7,13,11.5,21,14.6c6.9,2.7,12.2,3.5,16.4,5.7
		c4.5,2.4,8.9,6.3,10.8,11.5c1.9-5.2,6.3-9.1,10.8-11.5c4.2-2.3,9.5-3,16.4-5.7c8-3.1,14.9-8,21.1-14.6l9,9.7c2.9,3.1,7,0.3,4.1-2.9
		l-10-10.4c3.5-4.4,6.8-9.4,10-15.1c2.2,1.4,2.9,4.3,3.9,6.4c4.3-10.6,5.2-21,2.5-30.8c-3.7,6.5-11.5,13.1-20.2,17.4
		c2.4,0.4,5.3,1.1,7,2.2c-2,4.8-4.6,9.7-8.7,14.2l-10.8-11.3c-0.4,0.3-0.8,0.6-1.3,0.9l11,11.5c-0.4,0.4-0.8,0.8-1.1,1.1l-10.8-11.8
		c-0.1,0-0.2,0.1-0.3,0.1c-0.1,0.3-0.3,0.5-0.5,0.8l11,11.8c-5.5,4.7-13.2,8.5-24.5,10.5c-6,1.1-11.9-2.9-14-7.1h-0.1
		c-1,0-1.9-0.8-1.9-1.8v-1.2h-0.3v1.2c0,1-0.9,1.8-1.9,1.8c-1.1,0-1.9-0.8-1.9-1.8v-1.2h-0.4v1.2c0,1-0.8,1.8-1.9,1.8h-0.1
		c-2.1,4.2-8,8.2-14,7.1c-11.2-2-18.9-5.9-24.4-10.5l11.1-12c-0.1-0.1-0.1-0.2-0.1-0.2C-192.6,434.7-192.9,434.5-193.3,434.4
		L-193.3,434.4z M-210.8,450.8c0.4,0.5,0.7,0.9,1.1,1.3l-8.8,9.3c-0.9,1-2.4,0-1.2-1.2L-210.8,450.8L-210.8,450.8z M-213.9,439.2
		c6.5,9.6,15,16.9,21,20.1c8.4,4.5,18.2,7,24,6.9c4.4-0.1,7.1-6.5,8.3-9.8v21.2c-1-3-4.3-9.1-8-9.7c-2.1-0.3-14.8-1.2-26.2-7.7
		c-6.2-3.6-13.4-9.4-20.9-20.2c-2.2-3.1-4.1-6.2-5.6-9c-0.3-0.6-0.7-0.7-1.2-0.3c-0.7,0.6-1.8,2.2-2.8,4.3c-0.2,0.6-0.7,0.4-0.5-0.2
		c2-5.3,2.1-10.2-0.5-16.6c-0.6-1.4,0-1.7,0.6-0.3c2.6,5.7,3.4,8,11.8,8.7c0.9,0.1,0.8,0.6-0.1,0.7c-1.1,0.1-3.5,0.2-4.8,0.9
		c-0.7,0.4-1,0.9-0.5,1.9C-217.8,432.9-216,436-213.9,439.2L-213.9,439.2z M-101.6,429.5c0.7-1.9-4-2.1-5.6-2.2
		c-1.2-0.1-0.7-0.6-0.3-0.6c8.7-0.7,9.4-3,12.1-8.8c0.7-1.5,1.2-1.2,0.6,0.2c-2.6,6.4-2.5,11.3-0.5,16.7c0.2,0.5-0.4,0.6-0.5,0.4
		c-1.7-3.6-3.4-5.7-3.9-4.4c-0.9,2.1-5,8.5-8,12.6c-7.4,9.7-18.7,19.9-36.2,23.3c-4.2,0.8-9.4,1.4-11,1.3c-1.9-0.1-2-1.1-0.2-1.4
		c1.6-0.3,5.2-0.3,11-1.4c17.2-3.5,27.9-13.4,34.8-22.8C-106.3,438-102.3,431.4-101.6,429.5l-8.6,21.3l9,9.4
		c1.1,1.2-0.3,2.2-1.2,1.2l-8.8-9.3c0.3-0.4,0.7-0.8,1.1-1.2L-101.6,429.5L-101.6,429.5z"/>
	<path fill="#ED1C24" d="M-197.6,363.9c0.7-1,1.6-1.9,2.7-2.6c-1.8-3.6,0-10.4-3.5-14.7l-16.8-21.6c-6.6,4.5-12.5,9.7-17.8,15.7
		l20.7,18.4C-208.2,362.7-201.8,359.6-197.6,363.9L-197.6,363.9z M-213.1,344.2c4.7,4.6,10.7,8.8,13.8,8.1c-0.1,3.5,0.7,6.7,3.2,9.6
		c-3.4-2.1-6.9-3.8-10.5-3.8C-205.7,354.7-209.5,349-213.1,344.2L-213.1,344.2z M-225.3,346.1c-0.8-0.7,0-1.6,0.7-0.9l13.5,12.1
		c1.1,1,1.8,1.1,2.8,1.3c1.3,0.4,1.8,0.9,0.7,0.9c-2.4,0.1-3.6-0.8-4.5-1.6L-225.3,346.1L-225.3,346.1z M-126.3,361.3
		c1.1,0.8,2,1.8,2.5,2.7h0.1c4.2-4.5,10.8-1.3,14.8-4.9l20.7-18.4c-5.3-6-11.2-11.2-17.8-15.7l-17,21.5
		C-126.3,350.9-124.5,357.6-126.3,361.3L-126.3,361.3z M-111.8,333.8c0.6-0.8,1.5-0.1,0.9,0.6l-10.9,13.7c-0.6,0.7-0.8,1.4-0.9,2.2
		c-0.3,1.5-0.7,2.1-0.8,0.8c-0.1-1.3-0.2-2.5,1.1-4.1L-111.8,333.8L-111.8,333.8z M-108,344.2c-3.7,4.8-7.5,10.4-6.5,13.9
		c-3.7,0-7.2,1.7-10.5,3.8c2.5-2.9,3.2-6.1,3.2-9.6C-118.7,353-112.8,348.8-108,344.2L-108,344.2z M-166.7,347.1v-1.3
		c0-1,0.9-1.8,1.9-1.8c1.1,0,1.9,0.8,1.9,1.8v2.1c0.1,0,0.2,0,0.4,0v-2.1c0-1,0.8-1.8,1.9-1.8c1,0,1.9,0.8,1.9,1.8v2.2
		c0.1,0,0.2,0,0.3,0v-2.2c0-1,0.9-1.8,1.9-1.8c1.1,0,1.9,0.8,1.9,1.8v1.6c4.1-1,7.7-2.9,11.6-6.1v-7.5c-3.9-2.1-7.8-3.3-11.6-4
		c3.1-2,5.2-5.4,5.2-9.4c0.1-6.1-4.9-11.1-11.2-11.1c-6.2,0-11.2,5-11.2,11.1c0,3.9,2.1,7.4,5.2,9.4c-3.9,0.7-7.8,2.1-11.9,4v7.5
		C-174.6,344.1-170.4,346.1-166.7,347.1L-166.7,347.1z M-160.7,315.2c2.9,0,5.3,2.3,5.3,5.2s-2.4,5.2-5.3,5.2s-5.3-2.4-5.3-5.2
		C-166,317.6-163.6,315.2-160.7,315.2L-160.7,315.2z M-167.4,316c-1.4,2-2,4.8-0.8,7.6c0.4,1-1.1,1.8-1.5,0.8
		c-1.6-3.3-1.3-6.8,1.1-9.7C-168,313.8-166.7,314.9-167.4,316L-167.4,316z M-154.5,318.4c-0.6-1.1,0.5-1.8,1.2-0.9
		c1.7,2.5,1.4,5-0.5,7c-0.6,0.6-1.8,0.1-1.3-0.6C-153.7,322.1-153.5,320.1-154.5,318.4L-154.5,318.4z M-145.1,334.1
		c0.4,0,0.8,0.3,0.8,0.7s-0.4,0.7-0.8,0.7h-28c-0.6,0-1.2,0.5-1.6,1.1c-0.6,0.9-0.7,1.7-0.8,2.1c-0.1,0.7-1.2,0.6-1.2-0.1v-3.9
		c0-0.5,0.5-0.7,0.9-0.7L-145.1,334.1v6.1c0.4,0,0.8,0.3,0.8,0.7s-0.4,0.7-0.8,0.7h-30.7c-0.5,0-0.9-0.4-0.9-0.7
		c0-0.3,0.4-0.7,0.9-0.7h30.7V334.1L-145.1,334.1z"/>
	<path fill="#ED1C24" d="M-161.2,374.1c-7.4,1.6-14.1,4.7-20.7,8.9c2.2,4.4,4.2,8.6,5.9,12.8c5.4-3.5,11.3-6.7,17.7-7.3
		C-159.7,383.7-160.7,379.1-161.2,374.1L-161.2,374.1z M-169.9,378.8c3.5,0,6.3,2.4,6.3,5.5c0,3-2.8,5.5-6.3,5.5s-6.3-2.5-6.3-5.5
		C-176.2,381.2-173.4,378.8-169.9,378.8L-169.9,378.8z"/>
	<path fill="#F4E21C" d="M-178.9,385.4l0.8-1.1l1.4,0.5l-0.9-1.2l0.9-1.1l-1.4,0.4l-0.8-1.1v1.3l-1.4,0.4l1.4,0.5V385.4
		L-178.9,385.4z M-175.2,393.5l0.7-1l1.2,0.4l-0.7-1l0.7-1l-1.2,0.4l-0.7-1v1.2l-1.2,0.4l1.2,0.4V393.5L-175.2,393.5z M-162.1,388.1
		l0.8-1l1.2,0.4l-0.7-1l0.7-1l-1.2,0.4l-0.7-1v1.2l-1.2,0.3l1.2,0.4L-162.1,388.1l-1.9-8.9l0.8-1.1l1.4,0.5l-0.8-1.2l0.8-1.1
		l-1.4,0.4l-0.8-1.1v1.4l-1.3,0.4l1.3,0.5v1.4L-162.1,388.1L-162.1,388.1z"/>
	<path fill="#474288" d="M-169.1,381.5c0-0.1-0.1-0.1-0.2,0c-0.1,0-0.1,0.1-0.1,0.1h-0.1c-0.1,0-0.1,0-0.1,0.1s0,0.1,0,0.1
		c0,0.2,0.1,0.2,0.2,0.1h0.1l0.1-0.1l0.1-0.1C-169.1,381.6-169.1,381.5-169.1,381.5L-169.1,381.5z M-169.2,388.1
		C-169.1,388.1-169.1,388.1-169.2,388.1c0.2,0,0.2,0.1,0.2,0.1l0,0l0,0c0,0,0,0,0.1,0c0.3,0,0.2,0.2,0.4,0.3c0,0.1,0,0.1,0,0.1h0.1
		v-0.1c0-0.1,0.2-0.5,0.2-0.6l0,0l0,0l0,0c0,0,0,0,0,0.1l0,0c0,0,0,0.1-0.1,0.1l0,0c0,0,0,0,0,0.1l0,0l0,0c0,0,0,0,0-0.1l0,0
		c0-0.1,0.1-0.1,0.1-0.2c0.1-0.2,0.2-0.7,0.2-0.9v-0.1l0,0c0,0,0-0.1-0.1-0.1c0,0,0,0,0-0.1l0,0c0,0,0,0,0-0.1
		c0-0.3,0.4-0.4,0.6-0.6l0,0l0.1-0.1c0,0,0,0,0.1,0l0,0c0,0,0,0,0.1,0c0.5,0,0.7-1.2,0.7-1.7c0-0.1-0.1-0.1-0.1-0.2
		c0-0.2-0.1-0.2-0.1-0.4v-0.1l0,0c0,0,0,0,0.1,0c0.2,0,0.6-1.1,0.6-1.2c0,0,0,0,0-0.1l0,0l0,0l0,0c0,0,0,0,0-0.1c0,0,0,0,0-0.1l0,0
		v-0.1c-0.1,0-0.1-0.1-0.1-0.1l0,0l0,0h-0.1c0,0-0.1,0-0.1,0.1l0,0l0,0l0,0c-0.1,0-0.1,0-0.1,0c-0.1-0.1-0.2-0.1-0.2-0.1l0,0
		c-0.1,0-0.1-0.1-0.1-0.1h-0.1c-0.1-0.1-0.4-0.1-0.4-0.1l0,0c0,0,0,0.1-0.1,0.1l0,0l0,0c0,0,0,0-0.1,0l0,0c-0.1,0-0.1,0-0.1,0l0,0
		c0-0.1,0,0,0,0l0,0l0,0c0,0,0,0-0.1,0l0,0l0,0l0,0h-0.2c-0.1,0-0.2,0.2-0.2,0.1c0,0,0,0,0-0.1l0,0l0,0l0,0c0,0,0,0,0-0.1l0,0l0,0
		l0,0c0,0,0,0-0.1,0h-0.1v-0.1h-0.2h-0.3c-0.1,0-0.1,0.1-0.2,0.2l0,0l0,0l0,0l0,0l0,0c-0.1,0-0.2,0.1-0.2,0.1s-0.1,0-0.2,0
		s0-0.1,0-0.1l0,0h-0.1l0,0v-0.1l0,0l0,0v0.1l-0.1,0.1c0,0-0.1,0-0.1,0.1c0,0,0,0,0,0.1c0,0.1,0,0.1,0,0.1l0,0l0,0l0,0
		c0,0,0,0,0,0.1l0,0l0,0l0,0l0,0c0,0,0,0,0-0.1V382v-0.1c0,0,0-0.1,0-0.2l0,0c0,0,0-0.1,0.1-0.1l0,0c0,0,0,0,0.1,0l0,0l0,0
		c0,0,0-0.1,0.1-0.1c0,0,0,0,0-0.1s0-0.1,0-0.1c-0.1-0.1-0.1,0-0.2-0.1c0,0-0.1-0.1-0.1-0.2l0,0c0,0,0,0-0.1-0.1l0,0
		c-0.3-0.3-0.1-0.1-0.2,0l0,0c0,0.1,0,0.2-0.1,0.3l0,0c0-0.1,0,0-0.1,0l0,0l0,0l0,0l0,0l0,0l0,0c-0.1,0-0.2,0-0.3,0
		c0,0,0,0.1-0.1,0.1l0,0l0,0l0,0c0,0,0,0,0.1,0l0,0c0,0,0,0,0,0.1l0,0l0,0c0,0,0,0-0.1,0c-0.1,0-0.1,0-0.2,0.1l0,0
		c0,0,0,0.1-0.1,0.1l0,0l0,0c0,0,0,0-0.1,0s-0.1,0-0.1,0l0,0l0,0c0,0,0,0-0.1,0h-0.1c-0.2,0.2-0.3-0.3-0.3-0.3
		c0.1-0.1,0-0.2-0.1-0.2l0,0V381v-0.1c-0.1,0-0.2,0.2-0.2,0.2s0,0-0.1,0l0,0l0,0l0,0l0,0h-0.1l0,0l0,0l0,0c0,0.1-0.1,0.1-0.1,0.1
		h-0.3l0,0l0,0l0,0l0,0l0,0c0,0,0,0,0,0.1c0,0,0,0,0.1,0c0,0,0,0.1,0.1,0.1l0,0c0,0,0,0,0.1,0c0.2,0,0.1,0.1,0,0.2
		c-0.1,0.1-0.1,0.1-0.1,0.1c-0.1,0.1-0.1,0.2-0.2,0.2h-0.1l0,0l0,0l0,0h-0.1c-0.1,0-0.1-0.1-0.1-0.1l0,0h-0.1l-0.7,0.5
		c-0.1,0.1-0.2,0.1-0.3,0.1l0,0c0,0,0,0,0,0.1c0,0,0,0,0.1,0c0,0.1,0,0.1,0.1,0h0.1c0,0.1,0,0.1,0,0.1c-0.4,0-0.1,0.2-0.1,0.3l0,0
		h0.1l0,0c0,0,0.1,0,0.1,0.1l0.1,0.7c0,0.1,0,0.1-0.1,0.1c-0.4,0-0.5,0.3-0.5,0.6c0,0.1,0,0.1,0,0.1c-0.1,0-0.1,0.2-0.1,0.3
		c0,0,0.1,0,0.1,0.1c0,0,0.1,0,0.1,0.1c0,0,0,0,0.1,0l0,0l0,0c0,0,0,0,0,0.1l0,0c0.1,0,0.2-0.1,0.2,0l0,0h0.1c0.1,0,0.2-0.1,0.3-0.1
		l0,0l0,0c0,0,0,0,0,0.1c0,0.2,0.1,0.1,0.2,0.1c0,0,0,0,0.1,0l0,0l0,0c0.1,0,0.4-0.1,0.4-0.2l0,0l0,0l0,0l0,0l0,0c0,0,0-0.1,0.1-0.1
		l0,0c0.1-0.1,0.2-0.1,0.3,0l0,0c0,0.4,0.9,0.4,1.2,0.4c0.1,0,0.1,0,0.1,0.1v0.1l0.1,0.1c0,0,0,0,0,0.1v0.1c-0.1,0.1,0,0.1,0.1,0.2
		c0.1,0,0.2-0.1,0.3-0.1l0,0l0,0c0,0,0.1,0,0.1,0.1c0,0-0.1,0.1,0,0.1c0,0.1,0.2,0.1,0.2,0.3v0.1h0.1c0,0.1-0.1,0.1,0,0.1
		s0.1,0,0.1,0l0,0c0,0,0,0.1-0.1,0.1l0,0l0,0l0,0l0,0l0.1,0.1l0,0l0,0c0,0.1,0,0.1,0,0.2c0,0,0,0.1,0.1,0.1s0.2-0.1,0.3-0.1l0.4,0.4
		v0.1v0.1l0,0l0,0l0,0l0,0c0,0,0,0,0.1,0c0.3,0,0.1,0.1,0.1,0.3l0,0C-169.1,387.6-169.2,387.9-169.2,388.1
		C-169.3,388.1-169.3,388.1-169.2,388.1L-169.2,388.1z"/>
</g>
</svg>
