<?xml version="1.0" encoding="utf-8"?>
<!-- Generator: Adobe Illustrator 19.1.0, SVG Export Plug-In . SVG Version: 6.00 Build 0)  -->
<svg version="1.1" id="Layer_1" xmlns="http://www.w3.org/2000/svg" xmlns:xlink="http://www.w3.org/1999/xlink" x="0px" y="0px"
	 viewBox="-418 607 166.7 187.2" enable-background="new -418 607 166.7 187.2" xml:space="preserve">
<g>
	<path d="M-259.4,655.5c0.4-1.5,1.1-2.8,1.5-4.4c0.6-1.5,1.3-2.8,2-3.9c1.1-2,2.2-3.3,3.5-4.4c0.2-0.4,0.7-0.9,1.1-1.1L-287,607
		c-2.2,1.7-5.7,3.3-10.9,4.6c-1.3,0.4-2.8,0.9-4.1,1.1c-2,0.4-3.9,0.9-6.1,1.3c-6.5,0.9-13.9,1.5-22,1.5c0,0,0,0-0.2,0
		c-0.9,0-1.7,0-2.4,0h-3.7c-0.7,0-1.1,0-1.7,0c-0.2,0-0.7,0-1.1,0c-8.5,0-16.1-0.6-22.8-1.7c-1.7-0.4-3.5-0.7-5-1.1
		c-1.5-0.2-2.8-0.7-4.4-1.1c-5-1.3-8.7-2.8-10.9-4.6l-35.7,34.8c0.4,0.2,0.9,0.7,1.3,1.1c2,1.7,3.7,4.6,5.2,8.3
		c2.8,6.5,4.4,14.4,4.6,23.3c0,1.1,0,2.2,0,3.3c0,7.4-0.7,14.1-2.4,20c-0.2,0.9-0.4,1.5-0.7,2.2c-0.4,1.3-0.9,2.8-1.5,4.1
		c-0.4,1.1-0.9,2.4-1.5,3.3c0,0.4-0.2,0.9-0.4,1.1c-0.2,0.9-0.4,1.5-0.9,2.4c0,0.4-0.2,0.9-0.4,1.3c-1.3,4.6-2.2,9.6-2.4,14.8
		c-0.2,1.1-0.2,2,0,2.8c0,2.2,0,4.1,0.4,6.1c0.4,4.1,1.7,8,3.3,11.7c2.8,6.3,6.7,12,11.5,16.7c5,4.8,10.7,8.1,17.4,9.6
		c6.5,1.7,13.3,2.8,20,3.5c1.3,0,2.4,0.2,3.5,0.4c5.7,0.9,10.7,2.8,15,5.9c4.1,2.8,7.6,6.1,10.9,9.6c0,0.2,0.2,0.4,0.4,0.9
		c0.2-0.4,0.4-0.7,0.7-0.9c2-2.2,4.1-4.6,6.7-6.5c1.3-1.1,2.6-2.2,3.9-3c2.8-2,5.9-3.5,9.4-4.6c2.8-0.9,5.9-1.5,9.1-1.7
		c5.4-0.4,10.7-1.3,15.9-2.4c1.3-0.2,2.8-0.7,4.4-1.1c5.2-1.3,10-3.7,14.4-7c0.9-0.9,2-1.7,2.8-2.6c3.7-3.7,6.7-7.6,9.4-12
		c0.7-1.5,1.5-3,2.2-4.8c0,0,0,0,0-0.2c1.7-3.7,2.8-7.6,3.5-11.5c0-0.2,0-0.4,0-0.7c0.4-2.8,0.4-5.4,0.4-8.3
		c-0.2-5.9-1.3-11.1-3-16.1c-0.2-0.7-0.4-1.5-0.9-2.2c0,0,0,0,0-0.2s-1.3-3.3-2-4.4c-0.2-0.7-0.4-1.3-0.7-2
		c-0.2-0.7-0.7-1.5-0.9-2.2c-2-6.5-3-13.9-3-22.2c0-0.2,0-0.2,0-0.4C-262.4,669-261.3,661.8-259.4,655.5L-259.4,655.5z"/>
	<path fill="#FFFFFF" d="M-262.8,652.7c0.2-1.1,0.7-2.2,1.1-3c0.7-1.7,1.3-3,2.2-4.4c0-0.2,0-0.2,0.2-0.2c0.4-1.3,1.1-2.2,2-3.3
		l-30.2-29.4c-2.2,1.3-5.2,2.4-8.9,3.5c-0.2,0-0.4,0-0.7,0c-1.3,0.4-2.6,0.6-3.9,1.1c-0.9,0.2-1.7,0.4-2.6,0.4L-262.8,652.7
		L-262.8,652.7z"/>
	<path fill="#FFFFFF" d="M-412.5,733.8c0,0.4,0,0.9,0.2,1.3c0.4,3.7,1.5,7.2,3,10.7c2.4,5.7,5.9,10.7,10,15c0.2,0,0.4,0.2,0.4,0.2
		c4.4,4.4,9.6,7.2,15.4,8.7c5.2,1.3,10.9,2.4,16.5,3L-412.5,733.8L-412.5,733.8z"/>
	<path fill="#FFFFFF" d="M-407.1,650.1c3,7.6,4.6,16.8,4.6,27.6c0,0,0,0.2,0,0.4l16.9,14.4c1.2-6.4,3.7-12.4,7.4-17.9L-407.1,650.1
		L-407.1,650.1z"/>
	<path fill="#FFFFFF" d="M-293.3,771.4c2.6-0.7,5-1.1,7.6-1.7c4.4-1.1,8.5-3,12-5.7l-25.5-21.8c-5.1,4.5-10.6,7.8-16.7,9.9
		L-293.3,771.4L-293.3,771.4z"/>
	<path fill="#FFFFFF" d="M-388.4,618.9l-12,12l35.2,30c5.1-3.7,10.5-6.5,16.4-8.2L-388.4,618.9L-388.4,618.9z"/>
	<path fill="#FFFFFF" d="M-256.3,731.6l-25.2-21.5c-0.8,6.3-2.6,12.1-5.5,17.4l25.5,21.8c0.7-1.1,1.1-2.2,1.7-3.3
		c0-0.2,0-0.4,0.2-0.4h-0.2c1.5-3.3,2.4-7,2.8-10.4C-256.7,733.8-256.5,732.7-256.3,731.6L-256.3,731.6z"/>
	<path fill="#FFFFFF" d="M-288.5,676c0.2,0.3,0.4,0.6,0.6,1l23.3,19.9c-1.5-5.7-2.2-12.2-2.2-19.1c0-1.5,0-2.8,0-4.1l-62.9-53.7
		c-0.2,0-0.2,0-0.4,0c0,0,0,0-0.2,0c-0.9,0-1.7,0-2.4,0h-3.7c-0.7,0-1.1,0-1.7,0c-0.2,0-0.7,0-1.1,0c-5.9,0-11.5-0.4-16.8-0.9
		l41.3,35.2c3.8,1.5,7.5,3.4,10.9,5.8l16.2,2.4C-287.1,667.3-287.4,671.8-288.5,676L-288.5,676z"/>
	<path fill="#FFFFFF" d="M-384.9,727.5c0.7-1.7,1.3-3.3,2-4.9c-0.4-1.1-0.8-2.1-1.2-3.2l-21.5-18.4c-0.2,0-0.2,0-0.2,0.2
		c-0.4,1.5-1.1,3-1.5,4.4c-0.7,1.3-1.1,2.4-1.5,3.5c-0.2,0.2-0.2,0.4-0.4,0.9c0,0,0,0,0,0.2c-0.2,0.4-0.4,1.1-0.7,1.7
		c-0.2,0.2-0.2,0.2-0.2,0.4c-0.2,1.1-0.7,2-0.9,2.8l80.3,68.7c1.5-1.3,3.3-2.6,5-3.9c2.4-1.5,5-2.8,7.8-3.9l-25.3-21.7
		c-8.8-1.5-16.7-5-23.8-10.8c-0.5,0.7-1,1.3-1.6,2L-384.9,727.5L-384.9,727.5z"/>
	<path fill="#FFFFFF" d="M-369.2,705.3c4.8-3.7,10.4-7.2,17.2-10c5.7-2.6,11.5-5.2,17.6-7.8c6.3-2.6,11.5-6.5,15.4-11.3
		c4-4.6,5.5-10.2,5.2-16.8c-6.1-2.8-12.8-4.3-20-4.3c-13.5,0-24.8,4.8-34.4,14.1V669c-9.4,9.4-14.1,20.7-14.1,33.9
		c0,5,0.7,9.8,2.1,14.3C-377.5,712.8-373.9,708.7-369.2,705.3L-369.2,705.3z"/>
	<path fill="#FFFFFF" d="M-299.2,696.8c-3.7,4.8-8.9,8.5-15.2,11.1c-6.3,2.4-12.4,4.8-18.3,7.6c-6.1,2.6-12,5.7-17.6,9.6
		c-5.7,3.7-10.2,8.5-13.7,14.1c-0.2,0.3-0.4,0.5-0.6,0.8c8.8,7.2,18.9,10.7,30.8,10.7c13.3,0,24.8-4.6,34.2-13.9
		c9.6-9.4,14.1-20.7,14.1-33.9c0-7.8-1.6-15-4.9-21.4C-292.5,686.7-295.5,692-299.2,696.8L-299.2,696.8z"/>
	<path fill="#FFFFFF" d="M-315.5,679c-4.6,5.4-10.2,9.6-17.2,12.6c-6.1,2.4-12,5-17.6,7.6c-6.3,2.8-11.7,5.9-16.3,9.6
		c-4.8,3.5-8.3,7.8-10.9,12.4c-0.9,2-1.5,3.5-2.4,5.2l11.1,12.2c0.2-0.4,0.7-1.1,1.1-1.7c3.7-6.1,8.7-11.1,15.2-15.4
		c5.7-3.7,11.7-7.2,18.1-10c5.9-2.6,12-5,18.1-7.4c0,0,0.2,0,0.2-0.2c5.7-2.2,10.2-5.4,13.5-9.6c3.9-5.2,6.7-10.7,8.9-16.1
		c0-0.2,0.2-0.4,0.2-0.7c1.3-3.5,2-7.2,2-11.3l-17.8-2.6C-309.8,669.6-311.8,674.6-315.5,679L-315.5,679z"/>
	<path d="M-316.3,691.4c-1.3-1.7-1.5-3.5-0.9-5.2c0.4-1.5,2-3,3.9-4.6c1.7-1.1,3.3-1.5,4.6-1.7c1.3,0,2.6,0.2,3.7,1.1l-3.3,3
		c-0.4-0.4-0.7-0.4-0.9-0.4c-0.2-0.2-0.7-0.2-1.1-0.2c-0.7,0.2-1.1,0.2-1.3,0.6c-1.1,0.4-1.5,1.3-1.5,2.2c-0.2,0.7,0,1.5,0.7,2.4
		c0.9,1.3,1.5,2,2.4,2c0.4,0.2,1.3,0,2.2-0.6c0.7-0.4,1.3-0.9,1.5-1.5c0-0.7,0-1.3-0.2-2.2l4.1-1.3c0.4,0.9,0.4,1.7,0.2,2.6
		c-0.2,0.9-0.7,1.7-1.3,2.6c-0.4,0.7-1.3,1.5-2.6,2.2c-1.3,1.1-2.6,1.5-3.7,1.7s-2.4,0.2-3.7-0.2
		C-314.6,693.3-315.7,692.5-316.3,691.4L-316.3,691.4z"/>
	<polygon points="-361.6,711.8 -360.3,713.6 -355.1,710.3 -353.8,712.3 -359,715.7 -356.2,720.1 -360.3,722.7 -367,712.3 
		-357,705.7 -355.5,707.9 	"/>
	<polygon points="-331.8,707.7 -336.4,709.7 -340.9,698.1 -329.8,693.6 -328.7,696.2 -335.5,698.8 -334.6,700.7 -329,698.3 
		-327.9,700.7 -333.8,703.1 	"/>
	<path fill="#738B60" d="M-352,695.3c5.7-2.6,11.5-5.2,17.6-7.8c6.3-2.6,11.5-6.5,15.4-11.3c1.9-2.2,3.2-4.6,4.1-7.3
		c-2-0.5-4-0.7-5.8-0.7c-1.7,0-3.5,0.2-5,0.9c-1.1-2-2.8-3.3-5-3.5c-3-0.6-4.6,0.4-5,3c-1.7,0-3.3,0.4-5,1.1c-0.2,0-0.4,0-0.9,0
		c-1.5,0-3.3,0-4.8,0.4c-2.8,0.4-4.8,1.7-6.3,3.7c-0.4-0.2-0.7-0.2-0.9-0.2c-0.4,0-0.7,0-0.7,0.2c-0.9,1.3-2,2.8-3.3,4.1
		c-1.3,1.5-2.4,3.3-3,5.2c-0.2-0.2-0.4-0.4-0.7-0.4c-2.8-1.3-4.6-0.9-5,1.5c-1.3-0.2-1.7,0.4-1.3,1.7c-0.2,0-0.4,0-0.9,0
		c-0.2-0.2-0.4,0-0.4,0c-1.1,1.5-1.5,3.3-1.7,5c-0.9-0.2-1.7,0-2.4,0.6c-1.7,1.7-2.6,4.1-2,7.2c0.4,3.3,2,5.4,4.4,6.7
		c0,0.3,0,0.5,0,0.8c0.4-0.3,0.8-0.7,1.3-1C-364.4,701.6-358.8,698.1-352,695.3L-352,695.3z"/>
	<path fill="#738B60" d="M-314.4,707.9c-6.3,2.4-12.4,4.8-18.3,7.6c-6.1,2.6-12,5.7-17.6,9.6c-2.2,1.5-4.3,3.2-6.2,4.9
		c0.4,0.3,0.9,0.7,1.4,0.9c1.1,0.4,2.6,0.9,3.9,0.9c1.5,0,2.8,0,4.1-0.4c1.5-0.2,2-0.7,1.3-1.5c0.7-0.9,1.5-1.1,2.6-1.3
		c1.5,0,2.8,0.4,4.1,1.1c0.7,0.4,1.5,0.7,2.2,0.9c0,0.2,0,0.2,0,0.4c0,0.9,0,2,0,3c-1.1-0.2-2.2,0.2-2.8,1.3c-0.2,0-0.2,0.2-0.2,0.2
		c-1.1,0-2,0-2.8-0.2c-1.5-0.2-2.6,0.4-3,1.7c-0.9,0-1.5,0.2-2.4,0.7c-1.3,0.6-2.2,1.7-2,3.3c0.2,0.4,0.4,0.9,0.9,0.9
		c0.9,0.2,1.5,0.4,2.2,0.4c-0.4,0.7-0.4,1.3,0,2.4c0,0,0.2,0.2,0.7,0.2c0.9,0,2,0,2.8,0c1.1,0,2.2,0,3.3,0s2,0,3-0.2
		c1.3,0,2.6-0.2,3.9-0.2c0.4-0.2,0.9-0.2,1.3-0.4c1.5,0.2,2.4-0.2,2.4-1.3c1.1,0,2,0,2.8,0c1.1,0.2,2.2,0.2,3.3,0.2
		c1.3,0.2,2.2,0,3-0.7c1.3-0.9,1.5-1.7,0.9-2.8c-0.4-0.4-0.9-0.6-1.3-0.6c-0.2,0-0.4,0-0.4,0c-0.7-0.9-1.5-1.3-2.4-2
		c-0.4,0-0.9-0.2-1.3-0.2c-0.4,0-0.7,0.2-0.9,0.2c0,0-0.2,0-0.2-0.2c-0.7-0.2-1.5-0.4-2.4-0.4c-0.7,0-1.3,0-2,0c0-0.4,0-1.1,0-1.7
		c0-1.5,0-2.8,0-4.1c0-0.2,0-0.4,0-0.7c0.9,0,1.7,0,2.4-0.2c1.5,0,2.8,0,4.1,0c1.1-0.2,2.2-0.4,3.3-0.7c0.7-0.2,1.3-0.7,1.5-1.3
		c0.9,0,1.5,0,2.6,0c1.1,0.2,2.2-0.2,3-0.9c0.2-0.2,0.4-0.2,0.9-0.6c0.7-1.1,1.1-2.2,1.1-3.5c1.3,0,2.4-0.2,3.5-0.9
		c1.1-0.4,2.2-1.3,3.3-2.2c0.2-0.2,0.7-0.7,0.9-1.3c0.7,0.2,1.3,0.4,2.2,0.4c1.1,0,1.7-0.7,1.7-1.7c1.1,0,2-0.9,2.4-2.4
		c0.2-0.4,0.4-0.9,0.4-1.5c0.2-0.2,0.4-0.4,0.7-0.4c0.7,0,1.1-0.2,1.3-0.9c0-0.2,0.4-0.2,1.1-0.2c0.7,0,0.9-0.9,0.9-2.2
		c0-1.5,0.4-2.6,0.9-3.7c0.7-1.3,0.7-2.6,0.2-4.1c-0.7-1.1-1.1-2.4-1.5-3.7c-0.2-0.2-0.2-0.4-0.4-0.4c-0.4-1.1-1.3-2-2.6-2.4
		c-0.3-0.1-0.5-0.3-0.7-0.4c-0.5,0.8-1.1,1.6-1.7,2.3C-302.9,701.6-308.1,705.3-314.4,707.9L-314.4,707.9z"/>
</g>
</svg>
