<?xml version="1.0" encoding="utf-8"?>
<!-- Generator: Adobe Illustrator 19.1.0, SVG Export Plug-In . SVG Version: 6.00 Build 0)  -->
<svg version="1.1" id="Layer_1" xmlns="http://www.w3.org/2000/svg" xmlns:xlink="http://www.w3.org/1999/xlink" x="0px" y="0px"
	 viewBox="-430 579.8 179.8 214.1" enable-background="new -430 579.8 179.8 214.1" xml:space="preserve">
<path d="M-340.1,793.9c-27.8-10.9-50.2-25.9-65.7-46.7c-16.2-21.7-24.2-49.6-24.2-88.5l0,0v-78.9h179.8v78.9l0,0
	c0,38.9-8,66.8-24.2,88.5C-289.9,768-312.2,783-340.1,793.9L-340.1,793.9z"/>
<path fill="#CD3529" d="M-340.1,787.7c-12.5-5-23.9-10.9-34-17.9l0,0h68l0,0C-316.2,776.9-327.6,782.7-340.1,787.7L-340.1,787.7z
	 M-400.6,744.4c-5.3-7.2-9.9-15.3-13.5-24.3l0,0h148l0,0c-3.6,9-8.1,17.1-13.5,24.3l0,0H-400.6L-400.6,744.4z M-421.8,691.8
	c-1.2-7.4-2-15.3-2.3-23.7l0,0H-256l0,0c-0.3,8.4-1.1,16.3-2.3,23.7l0,0H-421.8L-421.8,691.8z M-337.1,612.9h81.3v27.9h-81.3V612.9
	L-337.1,612.9z M-424.3,585.5h81.5v76.9h-81.5V585.5L-424.3,585.5z"/>
<path fill="#FFFFFF" d="M-370,659c-2-0.6-4.4-6-4.3-8.6l0,0V650l0,0c-2.6-4.4-5.2-7.9-7-10.1l0,0v11.4l0,0c-0.1,3.8-1.1,6.3-3.8,7.6
	c2.3,0.3,5.7,0.8,7.8-2.3C-376.8,657.9-372.9,660-370,659L-370,659z M-363,633.6c0.7,1.6,1.2,4.4-3.2,7.9c5.3-0.7,7.8-2.7,8-5.3
	c0.4-4.8-1.2-4.8-0.1-11.3c0.4-2.2,1.7-3.7,4.1-5.7c-5,0.7-8,3.2-9.6,8.7l0,0h-10.5v-18.7h3.3l0,0c-0.3-2.1-0.9-4.1-2.2-6.3l0,0
	h-5.1l0,0c-2.5,0-3.7-1-6.1-0.1c1.8,1,3.1,2.4,3.1,4l0,0v21.6l0,0c2.4,1.2,4.8,3.2,6.7,5.3l0,0L-363,633.6L-363,633.6z
	 M-358.5,609.2h5.4l0,0c0,3,3.5,9,8.6,9.2c-2.6-3.7-3.6-6.3-2.5-11.5c2.6-6.7,0.6-12-2.5-12.8c0.6,1.9,0.9,7.3-2.2,8.7l0,0h-10l0,0
	C-360.6,606.1-359.2,608.7-358.5,609.2L-358.5,609.2z M-382.9,647.6c-21.3,7.6-30.8-2.7-36.6-18.1c-0.8-2-0.9-3.3-3.2-4.8
	c2.6-0.8,3.1-2.4,3.5-4.1c1.4-10.4,7.9-19.2,18.1-22.4l0,0v5.1l0,0c-7.2,3.6-11.1,13.1-10.8,22c0.3,10.1,9.7,20.5,19.2,20.3
	c3.1-0.1,6.7-0.4,9.9-2.8l0,0L-382.9,647.6L-382.9,647.6z M-391,596.5c1.6-0.1,3.2-0.2,5-0.2c-0.4,2.3-1.2,11.1,2.3,14.1
	c-0.7,1.4-2.5,3.1-4.3,3c-1.2,0-1.6-0.6-2.2-1.5c-0.3-0.4-0.6-0.9-0.9-1.3l0,0L-391,596.5L-391,596.5z M-392.6,633v11l0,0
	c-0.7,0.1-1.5,0.1-2.6-0.1c-1.1-0.2-2.8-0.6-4.4-1.7l0,0v-45.8l0,0c0-2.8-2.1-5.4-5.7-6.8c3.5-2.3,10.1-0.2,11.2,2.4
	c3.5-2.2,7.6-3.3,11.7-3.3c7.8,0.1,15.6,4.3,18.5,12.2c1.5,4.2,2.3,8.5,5.4,10.1c-0.8,0.5-1.5,1-2.1,1.8c-1.6,2.1-2.6,5.3-5.2,9.1
	c-1,1.5-2.3,3-3.9,4.5l0,0h-3.1v-3.7l0,0c2.2-3.5,3.4-8,3.3-12.3c-0.1-6.3-4.9-15.9-16.1-16.5c-3.2-0.2-5.9,0.8-7.2,1.6l0,0v31.7
	l0,0c6.5,0,11.2,2.3,14.8,5.4c3.4,3,5.7,6.8,7.8,10.7c3,5.6,5,10.5,8.7,10.4c2.7-0.1,4-1.4,5.2-3.2c1.2,5.6-3.1,8-5.8,8
	c-2.8,0.1-6.2-2.3-8.4-5.5c-3.3-4.7-6.5-11.3-11-15.7C-386.5,632.5-390.1,633-392.6,633L-392.6,633z M-392,651.6
	c0.8,3,2.2,6.7,4.8,8.3c-6.7-0.1-7.2-2.4-8.2-3.4c-1.6,1.6-4.1,4.2-9.2,3.7c2.9-2.7,4.1-5.4,4.6-8.7
	C-397.4,651.9-394.4,652-392,651.6L-392,651.6z"/>
</svg>
