<?xml version="1.0" encoding="utf-8"?>
<!-- Generator: Adobe Illustrator 19.1.0, SVG Export Plug-In . SVG Version: 6.00 Build 0)  -->
<svg version="1.1"
	 id="svg2" xmlns:rdf="http://www.w3.org/1999/02/22-rdf-syntax-ns#" xmlns:sodipodi="http://sodipodi.sourceforge.net/DTD/sodipodi-0.dtd" xmlns:svg="http://www.w3.org/2000/svg" xmlns:cc="http://creativecommons.org/ns#" xmlns:inkscape="http://www.inkscape.org/namespaces/inkscape" xmlns:dc="http://purl.org/dc/elements/1.1/" sodipodi:docname="fluminense_fc_logo.svg" inkscape:version="0.48.1 "
	 xmlns="http://www.w3.org/2000/svg" xmlns:xlink="http://www.w3.org/1999/xlink" x="0px" y="0px" viewBox="-153 222 305 350"
	 style="enable-background:new -153 222 305 350;" xml:space="preserve">
<style type="text/css">
	.st0{fill:#FFFFFF;}
	.st1{fill:none;stroke:#8E0927;stroke-width:6.7047;stroke-miterlimit:2.6131;}
	.st2{fill:#00613C;}
	.st3{fill:#870A28;}
</style>
<sodipodi:namedview  inkscape:guide-bbox="true" fit-margin-top="0" fit-margin-left="0" showguides="true" showgrid="false" gridtolerance="10" borderopacity="1" inkscape:cy="179.56292" inkscape:cx="126.24333" id="namedview49" objecttolerance="10" guidetolerance="10" pagecolor="#ffffff" bordercolor="#666666" inkscape:zoom="0.94627405" inkscape:window-maximized="1" inkscape:window-height="706" inkscape:window-y="-8" inkscape:window-x="-8" fit-margin-bottom="0" inkscape:pageopacity="0" inkscape:window-width="1366" inkscape:current-layer="g12" inkscape:pageshadow="2" fit-margin-right="0">
	</sodipodi:namedview>
<g id="g10" transform="matrix(1.25,0,0,-1.25,-0.6528325,350.81972)">
	<g id="g12" transform="scale(0.1,0.1)">
		<g id="g3081" transform="matrix(3.0897803,0,0,3.0897803,-59.135072,-459.01606)">
			<path id="path14" inkscape:connector-curvature="0" class="st0" d="M23.4,463c-96.9-120.1-222-167-374.4-137.4
				c-3.5-393.1,177.8-578.8,374.5-728.3c194.6,147.6,379.2,336.4,374.1,728C239.3,295.9,121.2,341.5,23.4,463"/>
			<path id="path16" inkscape:connector-curvature="0" class="st1" d="M23.4,463c-96.9-120.1-222-167-374.4-137.4
				c-3.5-393.1,177.8-578.8,374.5-728.3c194.6,147.6,379.2,336.4,374.1,728C239.3,295.9,121.2,341.5,23.4,463L23.4,463z"/>
			<path id="path18" inkscape:connector-curvature="0" class="st2" d="M314.2,22.1c-42.9-117.6-127.6-239.8-291-372.7
				C-138.2-218.4-222.9-95.2-266.2,22.1H314.2"/>
			<path id="path20" inkscape:connector-curvature="0" class="st3" d="M-308.9,277.4c198.6-2.1,255.7,38,332.2,123
				c82.6-82.5,137.4-125.5,332.3-123c-0.8-78.1-8.4-156.3-34.9-236.5h-593.5C-300,122-308,200.5-308.9,277.4"/>
			<path id="path22" inkscape:connector-curvature="0" class="st0" d="M-70,260.2c6.6-2.1,19.9,2.4,27.1-11.6
				c3.6-7,10-14.7,12.1-29.5l41.1,6.4C5.8,241.7,9,242.1,5,254.7c25.4,2.4,50.1,7.9,73.1,20.1c11.3-9.4,21.3-17.4,34.7-22.8
				c-51-28.5-45.8-51.6-42-66.7l20.1-23.8c-0.8,49.9,31.3,81.7,71.3,91.4c-27.3,14.8-53.7,31.5-78.6,51.2
				c-45.5-16-101.6-34.1-125.2-16.4L-70,260.2"/>
			<path id="path24" inkscape:connector-curvature="0" class="st0" d="M-111,144c-0.1-1.6,34.4,17.4,42.9,13.3l-3.2,19.6
				c40.4,18.1,81.5,25.7,137.4,16.4c0.4,8.8,0.1,15.4,4.1,24.2c-18.6,3.3-37.1,4-56.1,5.5c-13.2-1.2-32.7-3.3-47-7.8
				c-14.3-4.5-29.8-10.6-42.9-11.9c-13.2-1.3-19.5,2.9-31.5,5.9c-9.9-11.4-15.7-16.4-30.6-29.7c12.1,2.8,30.2-1.5,27.6-29.2
				L-111,144"/>
			<path id="path26" inkscape:connector-curvature="0" class="st0" d="M106,211.3c39.3-14.6,40.3-0.9,57.2,0.5l10-19.5
				c-51.9-15.4-76.2-77.2-38.1-112.4C98,72.7,76,118.9,105.6,175.2c1.7,3.3-0.2,8.5,1.8,11.8l-11,2.9
				C98.4,198.4,102.2,203.2,106,211.3"/>
			<path id="path28" inkscape:connector-curvature="0" class="st0" d="M128.9,154.6c-4.3-6.7-8.1-15.7-8.6-25.7
				c20.2-7,31.7-18.3,39.6-45.2c0.2-0.8,0.6-1.6,0.9-2.4c10.2-26.3,60.8-27,69.6-18.1c2.2,10.2-0.8,16.5-10,19.1
				c-10.6-0.1-9.4-10.7-19.1-8.1c-11.9,4.2-18.5,9.4-21.3,19.4c-4.3,14.9,4.2,31,27,36.4l-11.4,15.7
				C173,144.3,150.3,144.3,128.9,154.6"/>
			<path id="path30" inkscape:connector-curvature="0" class="st0" d="M97.9,163.6l-5.2,1.4l-1-4.8l-2.4-1l-6.7,8.1
				c-22.6,2.7-45.1,2.9-67.7,0.5l-1.4-26.2c26.7,2.1,52.6,1,76.7-3.3C92.1,147.3,93.8,155.7,97.9,163.6"/>
			<path id="path32" inkscape:connector-curvature="0" class="st0" d="M-32.5,185.6l-1.8-131.5L4,56l1.8,21l28.3,1.8l4.6-4.6
				C18.6,18.9,30.2-14.6,73.4-26.2l0.9,5.5C45.7-0.6,41.5,50.2,78.9,77L67,100.7c-22.2,5.9-43.5-10.2-61.2,1.8l6.4,90.4
				C-1.7,191.7-16.7,192.3-32.5,185.6"/>
			<path id="path34" inkscape:connector-curvature="0" class="st0" d="M-80.9-62.7l-4.6-34.7c51.9-11.2,108.8-13.8,175.3,9.1
				c33.8,11.6,66.6,24,101.3,18.3C184.5-60,217,1.2,245-34.4l15.5-0.9c-7,14-6.7,21.6,14.6,33.8c-23.4,2.7-40.5,0.9-56.6,13.7
				C147.5-54.1,38.6-87.7-80.9-62.7"/>
			<path id="path36" inkscape:connector-curvature="0" class="st0" d="M62.5,52.3c-5.9-10.3-8.7-16.6-7.3-26.9
				c14.9-1.4,28-8.7,33.8-19.6l0.5,48.4L62.5,52.3"/>
			<path id="path38" inkscape:connector-curvature="0" class="st0" d="M-33.3,23.4l-4.2-89.8c14.1-2.1,25-2.6,37.9-2.3l2.7,92.2
				L-33.3,23.4"/>
			<path id="path40" inkscape:connector-curvature="0" class="st0" d="M-38.4-107c16-2,29.8-1.2,42-1.8
				c3.3-54.6,23.9-76.6,69.6-91.1c9.2-2.9,20.4-6,27.1-10.2C-8.7-220.3-8.4-150.2-57.1-203.7L-70.4-185
				C-54-169.6-44.4-139.5-38.4-107"/>
			<path id="path42" inkscape:connector-curvature="0" class="st0" d="M-37.7,160.1c-66-6.4-126.2-43.8-177.8-126.2
				c-4-5.8-12.1-14.8-13.6-16.5c6.7-1.2,11.7-6.4,14.8-9.3c26.7-48.4,56-76.4,86.3-92.3c4.3,11.3,5.2,22.6,6.8,33.9
				c-18.8,8.4-59.5,45.2-55.6,85.5c19.5,51.3,81.6,95.9,139.1,95V160.1"/>
			<path id="path44" inkscape:connector-curvature="0" class="st0" d="M-108.8,102.7c11.6,10.1,24.1,17.3,38.6,18.6l1.4-75.2
				c31.2,7.5,65.7,8.1,96.9,6.1l-2.6-24.4c-31.9-0.7-67.2-0.7-99.7-11.5c-5-48.9-9.3-95.7-23.7-142.5c23.8-7.9,35.7-18.3,41.4-29.9
				l-10.9-20.4c-15.2,20.9-30.1,32-58.4,27.1l-13.6,12.2C-109.6-79.9-112.9,31.2-108.8,102.7"/>
			<path id="path46" inkscape:connector-curvature="0" class="st0" d="M-54-203.6c3.1,1,12.2-16.3,27.8-20.7
				c0.8-0.7,10.9,0.4,5.8,2.4c-5.1,2-14.6,14.9-20.4,30.2C-40.7-191.7-57-204.6-54-203.6"/>
		</g>
	</g>
</g>
</svg>
