<?xml version="1.0" encoding="utf-8"?>
<!-- Generator: Adobe Illustrator 19.1.0, SVG Export Plug-In . SVG Version: 6.00 Build 0)  -->
<svg version="1.1" id="Layer_1" xmlns="http://www.w3.org/2000/svg" xmlns:xlink="http://www.w3.org/1999/xlink" x="0px" y="0px"
	 viewBox="-398 583.2 211.4 211.4" enable-background="new -398 583.2 211.4 211.4" xml:space="preserve">
<path fill="#416F37" d="M-292.3,583.2c58.2,0,105.7,47.5,105.7,105.7c0,58.2-47.5,105.7-105.7,105.7S-398,747.1-398,688.9
	C-398,630.7-350.5,583.2-292.3,583.2L-292.3,583.2z"/>
<path fill="#FFFFFF" d="M-292.3,587.7c55.7,0,101.2,45.5,101.2,101.2c0,55.7-45.4,101.2-101.2,101.2c-55.7,0-101.2-45.5-101.2-101.2
	C-393.5,633.1-348,587.7-292.3,587.7L-292.3,587.7z"/>
<path fill="#416F37" stroke="#416F37" stroke-width="0.4867" d="M-292.3,622.5c25.4,0,47.5,14.4,58.7,35.5l0,0h-21.5l0,0
	c-8.9-10.7-22.2-17.5-37.2-17.5c-26.6,0-48.4,21.7-48.4,48.4c0,26.7,21.7,48.4,48.4,48.4c20.3,0,37.7-12.6,44.9-30.3l0,0h-62.8v-18
	h66.3h7.6h10.3l0,0c0,36.5-29.8,66.3-66.3,66.3s-66.3-29.8-66.3-66.3C-358.6,652.3-328.8,622.5-292.3,622.5L-292.3,622.5z"/>
<path fill="#416F37" stroke="#416F37" stroke-width="0.4867" d="M-329,760.3l-2.7-1.4l0,0c0.3-0.6,0.4-1,0.3-1.5
	c-0.1-0.4-0.4-0.8-0.8-1c-0.5-0.4-1.2-0.4-1.9-0.2c-0.7,0.2-1.6,1.1-2.7,2.6c1.1-0.3,2.2-0.2,3.1,0.4c1.1,0.7,1.7,1.7,2,3
	c0.2,1.3-0.1,2.6-0.9,3.9c-0.9,1.4-2,2.2-3.4,2.5c-1.4,0.3-2.7,0.1-3.9-0.8c-1.4-0.9-2.1-2.1-2.3-3.8c-0.2-1.6,0.5-3.7,2.1-6.1
	c1.6-2.5,3.2-4,4.8-4.5s3.2-0.3,4.6,0.7c1,0.7,1.7,1.5,2,2.5C-328.3,757.9-328.4,759-329,760.3L-329,760.3z M-338.5,762.1
	c-0.5,0.8-0.8,1.6-0.7,2.3c0.1,0.7,0.4,1.2,0.9,1.5c0.5,0.3,1,0.4,1.6,0.2c0.6-0.2,1.1-0.7,1.7-1.5c0.6-0.9,0.8-1.6,0.7-2.3
	c-0.1-0.6-0.4-1.1-0.9-1.5c-0.5-0.3-1-0.4-1.6-0.2C-337.4,760.8-338,761.3-338.5,762.1L-338.5,762.1z M-328.7,768.8l1.3-2.8l5.5,2.6
	l-1.3,2.8L-328.7,768.8L-328.7,768.8z M-314.8,778.1l0.9-3.1l-6.3-1.8l0.7-2.6l9.5-7.9l2.5,0.7l-2.8,9.8l1.9,0.6l-0.7,2.6l-1.9-0.6
	l-0.9,3.1L-314.8,778.1L-314.8,778.1z M-313.2,772.4l1.5-5.3l-5.1,4.3L-313.2,772.4L-313.2,772.4z M-304.4,775.7l0.4-3.1l6,0.8
	l-0.4,3.1L-304.4,775.7L-304.4,775.7z M-286.9,780.8l-3.1,0.1l-0.4-11.6l0,0c-1.1,1.1-2.4,1.9-3.9,2.5l0,0l-0.1-2.8l0,0
	c0.8-0.3,1.7-0.8,2.6-1.6c0.9-0.8,1.5-1.6,1.9-2.6l0,0l2.5-0.1L-286.9,780.8L-286.9,780.8z M-279.7,776.4l2.9-0.9l0,0
	c0.2,0.6,0.5,1,0.8,1.2c0.4,0.2,0.8,0.3,1.3,0.2c0.6-0.1,1.1-0.5,1.4-1.2s0.4-1.9,0.1-3.7c-0.6,1-1.5,1.7-2.6,1.9
	c-1.2,0.2-2.4,0-3.5-0.8c-1.1-0.8-1.8-1.9-2.1-3.5c-0.3-1.6-0.1-3,0.7-4.2c0.8-1.2,1.9-1.9,3.4-2.2c1.6-0.3,3,0.1,4.3,1.1
	c1.3,1,2.2,3,2.7,5.8c0.6,2.9,0.4,5.1-0.4,6.6c-0.8,1.5-2.1,2.4-3.8,2.7c-1.2,0.2-2.3,0.1-3.2-0.4
	C-278.6,778.5-279.2,777.6-279.7,776.4L-279.7,776.4z M-274.1,768.4c-0.2-1-0.6-1.7-1.1-2.1c-0.6-0.5-1.1-0.6-1.7-0.5
	s-1,0.4-1.3,0.9c-0.3,0.5-0.3,1.3-0.1,2.3c0.2,1,0.5,1.7,1,2.1s1,0.5,1.6,0.4c0.6-0.1,1-0.4,1.3-1C-274,770-274,769.3-274.1,768.4
	L-274.1,768.4z M-258,774.2l-1.2-3l-6.1,2.5l-1-2.5l2.6-12.1l2.4-1l3.8,9.5l1.9-0.7l1,2.5l-1.9,0.7l1.2,3L-258,774.2L-258,774.2z
	 M-260.2,768.7l-2.1-5.1l-1.4,6.5L-260.2,768.7L-260.2,768.7z M-251.5,766.7l2.4-1.8l0,0c0.5,0.6,1,1,1.6,1.1c0.6,0.1,1.1,0,1.6-0.3
	c0.5-0.3,0.9-0.8,1-1.4c0.1-0.6,0-1.3-0.4-2s-0.9-1.1-1.5-1.3s-1.1-0.1-1.7,0.2c-0.3,0.2-0.7,0.5-1.1,0.9l0,0l-1-2.3l0,0
	c0.7-0.4,1.2-0.9,1.4-1.5c0.2-0.6,0.1-1.1-0.2-1.7c-0.3-0.5-0.6-0.8-1.1-0.9c-0.4-0.1-0.9,0-1.4,0.2c-0.5,0.3-0.7,0.7-0.9,1.2
	c-0.1,0.5-0.1,1.1,0.2,1.7l0,0l-2.7,1.1l0,0c-0.3-0.9-0.5-1.8-0.4-2.5c0-0.7,0.3-1.4,0.7-2c0.4-0.7,1-1.2,1.8-1.7
	c1.3-0.8,2.6-1,3.9-0.6c1.1,0.3,1.8,0.9,2.4,1.7c0.7,1.2,0.6,2.6-0.2,4.1c0.9-0.3,1.8-0.3,2.6,0c0.8,0.3,1.5,0.9,2,1.7
	c0.7,1.2,0.9,2.5,0.5,3.9c-0.4,1.4-1.2,2.5-2.5,3.3c-1.2,0.8-2.5,1-3.8,0.8C-249.7,768.4-250.7,767.7-251.5,766.7L-251.5,766.7z
	 M-367.7,719.6l-2.5,1l-2.5-6.5l6-2.3l0,0c0.9,0.4,1.8,1.1,2.7,2.1s1.6,2.2,2.1,3.4c0.6,1.6,0.8,3.1,0.6,4.5
	c-0.2,1.4-0.8,2.7-1.8,3.7c-1,1.1-2.2,1.9-3.7,2.4c-1.6,0.6-3.1,0.8-4.6,0.6c-1.5-0.2-2.8-0.8-3.9-1.8c-0.9-0.8-1.6-1.9-2.1-3.3
	c-0.7-1.9-0.9-3.5-0.5-4.8c0.4-1.3,1.2-2.4,2.5-3.3l0,0l1.7,2.8l0,0c-0.7,0.5-1.1,1.1-1.3,1.9s-0.1,1.6,0.2,2.4
	c0.5,1.3,1.3,2.2,2.5,2.7c1.1,0.5,2.5,0.4,4.2-0.3c1.8-0.7,3-1.6,3.6-2.7c0.6-1.1,0.6-2.3,0.1-3.6c-0.2-0.6-0.6-1.2-1.1-1.8
	c-0.5-0.5-1-1-1.5-1.3l0,0l-1.9,0.7L-367.7,719.6L-367.7,719.6z M-373.9,707.1c-1.6,0.2-3,0.1-4.2-0.2c-0.9-0.3-1.6-0.7-2.4-1.2
	c-0.7-0.5-1.3-1.2-1.7-1.9c-0.5-0.9-0.9-2.1-1.1-3.4c-0.3-2.4,0.2-4.3,1.5-5.9s3.2-2.5,5.8-2.9c2.6-0.3,4.7,0.1,6.3,1.4
	c1.6,1.2,2.6,3,2.9,5.4c0.3,2.4-0.2,4.4-1.5,5.9C-369.5,705.8-371.4,706.8-373.9,707.1L-373.9,707.1z M-374.5,703.8
	c1.8-0.2,3.1-0.8,4-1.8c0.8-1,1.2-2.1,1-3.4s-0.8-2.3-1.8-3s-2.5-1-4.3-0.7c-1.8,0.2-3.1,0.8-4,1.7c-0.8,0.9-1.1,2-1,3.4
	c0.2,1.3,0.8,2.3,1.8,3C-377.7,703.8-376.3,704-374.5,703.8L-374.5,703.8z M-367.7,685.5l-16-1.4l0.3-3.2l16,1.4L-367.7,685.5
	L-367.7,685.5z M-363.5,662.3l-0.8,3.4l-3.9,0.5l-1.4,6.3l3.3,2.1l-0.8,3.4l-14.3-9.7l0.8-3.4L-363.5,662.3L-363.5,662.3z
	 M-371.1,666.7l-6.3,0.8l5.3,3.5L-371.1,666.7L-371.1,666.7z M-366.4,656.7l1.2-2.9l0,0c1,0.3,1.9,0.4,2.6,0.1
	c0.7-0.3,1.3-0.9,1.8-1.7c0.5-0.9,0.7-1.7,0.5-2.4c-0.1-0.7-0.5-1.2-1-1.4c-0.3-0.2-0.7-0.2-1-0.2c-0.3,0.1-0.7,0.3-1.2,0.7
	c-0.3,0.3-0.9,0.9-1.8,2c-1.2,1.3-2.2,2.2-3.1,2.5c-1.2,0.5-2.4,0.4-3.6-0.2c-0.7-0.4-1.3-0.9-1.7-1.7c-0.4-0.7-0.6-1.6-0.5-2.5
	c0.1-0.9,0.4-2,1-3.1c0.9-1.8,2.1-2.9,3.3-3.4c1.3-0.5,2.6-0.4,3.9,0.2l0,0l-1.4,2.9l0,0c-0.8-0.3-1.5-0.3-2,0
	c-0.5,0.2-1,0.8-1.4,1.6s-0.6,1.6-0.5,2.2c0.1,0.4,0.3,0.7,0.6,0.9c0.3,0.2,0.7,0.2,1.1,0c0.5-0.2,1.3-0.9,2.4-2.1s2-2.1,2.7-2.6
	c0.7-0.5,1.5-0.7,2.3-0.8c0.8-0.1,1.7,0.2,2.6,0.6c0.8,0.4,1.5,1.1,1.9,1.9c0.5,0.8,0.7,1.8,0.6,2.8c-0.1,1-0.5,2.1-1.1,3.4
	c-1,1.8-2.1,3-3.4,3.5C-363.2,657.4-364.8,657.3-366.4,656.7L-366.4,656.7z M-348.1,637.8l-11-11.8l8.7-8.1l1.9,2l-6.4,5.9l2.4,2.6
	l5.9-5.5l1.9,2l-5.9,5.5l3,3.2l6.6-6.1l1.8,2L-348.1,637.8L-348.1,637.8z M-337.9,622.1l2.6-1.8l0,0c0.7,0.8,1.4,1.3,2.1,1.5
	c0.8,0.2,1.6,0,2.4-0.5c0.9-0.5,1.5-1.1,1.7-1.7c0.2-0.6,0.2-1.2-0.1-1.7c-0.2-0.3-0.4-0.6-0.8-0.7c-0.3-0.1-0.8-0.1-1.4,0
	c-0.4,0.1-1.3,0.3-2.6,0.6c-1.7,0.5-3.1,0.6-4,0.4c-1.3-0.3-2.2-1-2.9-2.1c-0.4-0.7-0.6-1.5-0.5-2.4c0.1-0.9,0.4-1.6,1-2.4
	s1.4-1.4,2.5-2c1.8-1,3.3-1.3,4.6-1.1c1.3,0.3,2.4,1.1,3.1,2.3l0,0l-2.8,1.7l0,0c-0.5-0.7-1.1-1-1.6-1.1c-0.6-0.1-1.3,0.1-2.1,0.5
	c-0.8,0.5-1.4,1-1.7,1.6c-0.2,0.4-0.2,0.8,0,1.1s0.5,0.5,0.9,0.6c0.5,0.1,1.6-0.1,3.1-0.5c1.6-0.4,2.8-0.7,3.6-0.7
	c0.9,0,1.6,0.2,2.4,0.6c0.7,0.4,1.3,1,1.8,1.9c0.4,0.8,0.6,1.7,0.6,2.6c-0.1,1-0.4,1.8-1,2.6c-0.6,0.8-1.6,1.5-2.8,2.2
	c-1.8,1-3.4,1.3-4.8,1C-335.6,624.4-336.9,623.5-337.9,622.1L-337.9,622.1z M-319.1,618l-4.4-15.5l5-1.4l0,0
	c1.9-0.5,3.2-0.8,3.8-0.8c1,0,1.8,0.3,2.7,0.9c0.8,0.6,1.4,1.5,1.8,2.8c0.3,1,0.3,1.8,0.2,2.5c-0.2,0.7-0.4,1.4-0.9,1.9
	c-0.4,0.5-0.9,0.9-1.4,1.2c-0.7,0.4-1.8,0.7-3.2,1.2l0,0l-2,0.6l1.7,5.8L-319.1,618L-319.1,618z M-319.7,604.3l1.3,4.4l1.7-0.5l0,0
	c1.2-0.4,2-0.7,2.4-1c0.4-0.3,0.6-0.6,0.8-1c0.1-0.4,0.1-0.8,0-1.3c-0.2-0.6-0.5-1-0.9-1.3s-0.9-0.4-1.5-0.3c-0.4,0-1.2,0.2-2.3,0.5
	l0,0L-319.7,604.3L-319.7,604.3z M-302.6,605.8c0-1.6,0.2-3,0.7-4.1c0.4-0.8,0.8-1.6,1.5-2.2c0.6-0.7,1.3-1.2,2.1-1.5
	c1-0.4,2.1-0.7,3.5-0.7c2.4,0,4.3,0.7,5.7,2.1c1.4,1.4,2.2,3.5,2.2,6.1s-0.6,4.6-2,6.1c-1.4,1.5-3.3,2.3-5.6,2.3
	c-2.4,0-4.3-0.7-5.7-2.1C-301.8,610.4-302.5,608.4-302.6,605.8L-302.6,605.8z M-299.2,605.6c0,1.8,0.5,3.2,1.3,4.1
	c0.9,0.9,1.9,1.4,3.2,1.4c1.3,0,2.4-0.5,3.2-1.5c0.8-0.9,1.2-2.4,1.2-4.2c0-1.8-0.5-3.2-1.3-4.1s-1.9-1.3-3.2-1.3
	c-1.3,0-2.4,0.5-3.2,1.4C-298.9,602.4-299.3,603.8-299.2,605.6L-299.2,605.6z M-281.6,614.1l3.3-15.7l6.7,1.4l0,0
	c1.7,0.4,2.9,0.8,3.6,1.2s1.2,1.1,1.5,1.9c0.3,0.8,0.4,1.7,0.2,2.6c-0.3,1.2-0.8,2.1-1.7,2.7s-2,0.9-3.4,0.8
	c0.6,0.5,1.1,1.1,1.4,1.7s0.8,1.6,1.3,2.9l0,0l1.3,3.5l-3.8-0.8l-1.6-3.9l0,0c-0.6-1.4-1-2.3-1.2-2.7c-0.2-0.4-0.5-0.7-0.8-0.9
	c-0.3-0.2-0.8-0.4-1.6-0.5l0,0l-0.6-0.1l-1.4,6.6L-281.6,614.1L-281.6,614.1z M-276.5,605.7l2.4,0.5l0,0c1.5,0.3,2.5,0.5,2.9,0.4
	c0.4,0,0.8-0.2,1-0.5c0.3-0.3,0.5-0.6,0.6-1.1s0.1-1-0.1-1.4c-0.2-0.4-0.6-0.7-1.1-0.9c-0.2-0.1-1-0.3-2.3-0.5l0,0l-2.5-0.5
	L-276.5,605.7L-276.5,605.7z M-260.3,620.6l6.1-11.9l-4.3-2.2l1.2-2.4l11.4,5.8l-1.2,2.4l-4.2-2.2l-6.1,11.9L-260.3,620.6
	L-260.3,620.6z M-249.1,626.9l9.9-12.7l9.4,7.4l-1.7,2.1l-6.8-5.3l-2.2,2.8l6.4,5l-1.7,2.1l-6.4-5l-2.7,3.5l7.1,5.5l-1.7,2.1
	L-249.1,626.9L-249.1,626.9z M-221,649.3l0.9,3.2l0,0c-1.7,0.6-3.3,0.6-4.6,0.1s-2.5-1.4-3.4-2.9c-1.2-1.8-1.5-3.7-1-5.6
	s1.8-3.6,3.9-5c2.2-1.5,4.4-2,6.4-1.7c2,0.4,3.6,1.5,4.8,3.4c1.1,1.6,1.5,3.3,1.1,5c-0.2,1-0.7,2-1.6,3l0,0l-2.4-2.3l0,0
	c0.6-0.6,0.9-1.3,1-2.1c0.1-0.8-0.1-1.5-0.6-2.2c-0.6-1-1.5-1.6-2.7-1.7c-1.1-0.2-2.5,0.3-4.1,1.3c-1.7,1.1-2.7,2.2-3,3.3
	s-0.2,2.1,0.5,3.1c0.5,0.7,1.1,1.2,1.9,1.4C-223.1,649.8-222.2,649.8-221,649.3L-221,649.3z M-222.2,660.4l15.1-5.2l1.1,3.1
	l-12.5,4.3l2.6,7.6l-2.6,0.9L-222.2,660.4L-222.2,660.4z M-201.7,674.7l0.3,3.2l-8.7,0.8l0,0c-1.4,0.1-2.3,0.2-2.7,0.4
	c-0.6,0.2-1.1,0.6-1.5,1.1c-0.4,0.6-0.5,1.3-0.4,2.2c0.1,0.9,0.3,1.6,0.7,2s0.9,0.7,1.5,0.7s1.5,0,2.7-0.1l0,0l8.9-0.8l0.3,3.2
	l-8.4,0.7l0,0c-1.9,0.2-3.3,0.2-4.1,0.1c-0.8-0.1-1.5-0.4-2.1-0.8c-0.6-0.4-1.1-1-1.5-1.8c-0.4-0.8-0.6-1.8-0.8-3
	c-0.1-1.5-0.1-2.7,0.2-3.5s0.7-1.5,1.2-2s1.1-0.9,1.7-1.1c0.9-0.3,2.2-0.5,4-0.7l0,0L-201.7,674.7L-201.7,674.7z M-201,697.5l-1,6.4
	l0,0c-0.2,1.3-0.4,2.2-0.6,2.8c-0.2,0.6-0.5,1.1-0.9,1.6c-0.4,0.4-0.9,0.8-1.5,1s-1.2,0.3-1.9,0.2c-0.7-0.1-1.4-0.4-2-0.9
	c-0.6-0.5-0.9-1.1-1.1-1.9c-0.4,0.9-1,1.6-1.8,2s-1.6,0.5-2.5,0.4c-0.7-0.1-1.4-0.4-2-0.8c-0.6-0.4-1.1-1-1.4-1.6s-0.5-1.4-0.4-2.3
	c0-0.5,0.2-1.8,0.5-3.9l0,0l0.9-5.4L-201,697.5L-201,697.5z M-204.2,700.3l-3.7-0.6l-0.3,2.1l0,0c-0.2,1.3-0.3,2-0.3,2.3
	c0,0.6,0.1,1,0.4,1.4c0.3,0.4,0.7,0.6,1.2,0.7s0.9,0,1.3-0.2c0.3-0.2,0.6-0.6,0.8-1.1c0.1-0.3,0.2-1.2,0.5-2.7l0,0L-204.2,700.3
	L-204.2,700.3z M-210.5,699.3l-4.3-0.7l-0.5,3l0,0c-0.2,1.2-0.3,1.9-0.3,2.2c0,0.5,0.2,0.9,0.5,1.3c0.3,0.4,0.7,0.6,1.3,0.7
	c0.5,0.1,0.9,0,1.3-0.2c0.4-0.2,0.7-0.5,0.9-0.9c0.2-0.4,0.4-1.4,0.7-2.8l0,0L-210.5,699.3L-210.5,699.3z M-220.7,713.5l14.7,6.5
	l-4.9,10.9l-2.5-1.1l3.5-7.9l-3.3-1.5l-3.3,7.4l-2.5-1.1l3.3-7.4l-4-1.8l-3.7,8.2l-2.5-1.1L-220.7,713.5L-220.7,713.5z
	 M-230.5,739.3c-3.4,0-6.1,2.7-6.1,6.1s2.7,6.1,6.1,6.1s6.1-2.7,6.1-6.1C-224.4,742.1-227.1,739.3-230.5,739.3L-230.5,739.3z
	 M-354.1,739.3c3.4,0,6.1,2.7,6.1,6.1s-2.7,6.1-6.1,6.1s-6.1-2.7-6.1-6.1C-360.2,742.1-357.4,739.3-354.1,739.3L-354.1,739.3z
	 M-383.3,667.5l0.8-2.9l0,0c-1.3-0.6-1.5-2.2-1.5-3.2l0,0l-1.9,0.7l0,0C-386.3,665.3-384.7,666.5-383.3,667.5L-383.3,667.5z"/>
</svg>
