<?xml version="1.0" encoding="utf-8"?>
<!-- Generator: Adobe Illustrator 19.1.0, SVG Export Plug-In . SVG Version: 6.00 Build 0)  -->
<svg version="1.1" id="Layer_1" xmlns="http://www.w3.org/2000/svg" xmlns:xlink="http://www.w3.org/1999/xlink" x="0px" y="0px"
	 viewBox="-398 580 213 213" enable-background="new -398 580 213 213" xml:space="preserve">
<path d="M-291.5,580c58.6,0,106.5,47.8,106.5,106.5S-232.8,793-291.5,793S-398,745.2-398,686.5S-350.2,580-291.5,580L-291.5,580z"/>
<path fill="#FFFFFF" d="M-291.5,583.6c56.7,0,102.9,46.2,102.9,102.9s-46.2,102.9-102.9,102.9s-102.9-46.2-102.9-102.9
	S-348.2,583.6-291.5,583.6L-291.5,583.6z"/>
<path d="M-213.4,631.2c11.1,15.6,17.6,34.7,17.6,55.3s-6.5,39.6-17.6,55.3c-17.8-17.6-46.2-29.1-78.1-29.1s-60.3,11.4-78.1,29.1
	c-11.1-15.6-17.6-34.7-17.6-55.3s6.5-39.6,17.6-55.3c17.8,17.6,46.2,29.1,78.1,29.1S-231.2,648.9-213.4,631.2L-213.4,631.2z"/>
<path fill="#2566AF" d="M-291.5,782.2c9.4,0,18.5-1.4,27.1-3.9c-5.1-5.5-15.3-9.3-27.1-9.3s-22,3.8-27.1,9.3
	C-310,780.9-300.9,782.2-291.5,782.2L-291.5,782.2z M-258.5,776.3c16.4-6,30.7-16.5,41.4-29.8c-9.2-9.4-21.8-16.9-36.3-21.8
	c-4.2,18-11.1,32.7-19.8,41.5C-266.8,768.6-261.6,772.1-258.5,776.3L-258.5,776.3z M-329.7,724.7c-14.6,4.9-27.1,12.4-36.3,21.8
	c10.8,13.4,25.1,23.8,41.5,29.8c3.2-4.2,8.3-7.8,14.6-10.1C-318.5,757.5-325.5,742.8-329.7,724.7L-329.7,724.7z M-291.5,590.8
	c9.4,0,18.5,1.4,27.1,3.9c-5.1,5.5-15.3,9.3-27.1,9.3s-22-3.8-27.1-9.3C-310,592.2-300.9,590.8-291.5,590.8L-291.5,590.8z
	 M-258.5,596.7c16.4,6.1,30.7,16.5,41.4,29.8c-9.2,9.4-21.8,16.9-36.3,21.8c-4.2-18-11.1-32.7-19.8-41.5
	C-266.8,604.4-261.6,600.9-258.5,596.7L-258.5,596.7z M-329.7,648.3c-14.6-4.9-27.1-12.4-36.3-21.8c10.8-13.4,25.1-23.8,41.5-29.8
	c3.2,4.2,8.3,7.8,14.6,10.1C-318.5,615.6-325.5,630.2-329.7,648.3L-329.7,648.3z"/>
<path stroke="#000000" stroke-width="0.4786" stroke-miterlimit="1" d="M-314.6,726.7h9.4v1.9h-7.1v4.5h5.3v1.9h-5.3v7.1h-2.2
	L-314.6,726.7L-314.6,726.7z M-300.7,734.9v5.3h2.8l0,0c1.2,0,2.1-0.2,2.7-0.6c0.6-0.4,0.9-1.1,0.9-2s-0.3-1.5-0.9-2
	c-0.6-0.5-1.5-0.7-2.6-0.7l0,0L-300.7,734.9L-300.7,734.9z M-300.7,728.5v4.6h2.9l0,0c1,0,1.8-0.2,2.3-0.6s0.8-1,0.8-1.8
	s-0.3-1.3-0.8-1.7c-0.6-0.4-1.4-0.5-2.6-0.5l0,0H-300.7L-300.7,728.5z M-302.9,726.7h4.8l0,0c1.9,0,3.3,0.3,4.2,1s1.4,1.6,1.4,2.9
	c0,0.8-0.2,1.5-0.6,2.1s-1,1-1.8,1.3c0.9,0.3,1.6,0.8,2.1,1.5s0.7,1.4,0.7,2.4c0,1.4-0.5,2.5-1.5,3.2c-1,0.7-2.4,1.1-4.3,1.1l0,0h-5
	L-302.9,726.7L-302.9,726.7z M-286.9,728.5v5.1h2.4l0,0c1.2,0,2.1-0.2,2.6-0.6s0.8-1.1,0.8-2s-0.3-1.5-0.8-1.9
	c-0.5-0.4-1.4-0.6-2.7-0.6l0,0H-286.9L-286.9,728.5z M-289.1,726.7h4.9l0,0c1.8,0,3.2,0.4,4.1,1.1c0.9,0.7,1.3,1.8,1.3,3.3
	c0,1.4-0.4,2.5-1.3,3.3c-0.9,0.8-2.1,1.1-3.7,1.1l0,0h-3.1v6.6h-2.2L-289.1,726.7L-289.1,726.7z M-272.9,728.5l-2.1,7.5h4.4
	l-2.1-7.5H-272.9L-272.9,728.5z M-274.3,726.7h3l4.7,15.4h-2.3l-1.2-4.2h-5.6l-1.2,4.2h-2.1L-274.3,726.7L-274.3,726.7z
	 M-310.5,630.6h1.5v14.1h2.5v1.7h-7.1v-1.7h2.5v-11.8l-2.8,0.2v-1.4l0,0c0.6-0.1,1.1-0.3,1.7-0.5
	C-311.6,631.1-311.1,630.9-310.5,630.6L-310.5,630.6z M-302,645.6l0.9-1.7l0,0c0.4,0.3,0.9,0.5,1.3,0.6c0.2,0.1,0.5,0.1,0.7,0.2
	c0.2,0,0.5,0.1,0.7,0.1c1.2,0,2.2-0.5,3-1.5c0.4-0.5,0.7-1.1,0.9-1.8c0.2-0.7,0.3-1.5,0.3-2.3c-0.6,0.5-1.1,1-1.8,1.2
	c-0.6,0.3-1.3,0.4-2,0.4c-1.4,0-2.5-0.5-3.4-1.4c-0.9-0.9-1.4-2.1-1.4-3.6s0.5-2.8,1.4-3.7c1-0.9,2.2-1.4,3.8-1.4
	c1.8,0,3.1,0.6,4.1,1.9c0.9,1.2,1.4,3,1.4,5.4c0,2.7-0.6,4.9-1.7,6.4c-1.2,1.6-2.7,2.4-4.7,2.4c-0.7,0-1.4-0.1-2-0.3
	C-301,646.2-301.5,646-302,645.6L-302,645.6z M-294.1,636.5c0-0.6-0.1-1.2-0.2-1.7c-0.2-0.5-0.4-0.9-0.7-1.3
	c-0.6-0.7-1.4-1.1-2.4-1.1c-0.9,0-1.6,0.3-2.2,0.9c-0.6,0.6-0.9,1.4-0.9,2.4s0.3,1.8,0.8,2.4c0.6,0.6,1.3,0.9,2.2,0.9
	c0.7,0,1.4-0.2,2-0.7C-294.9,637.9-294.4,637.3-294.1,636.5L-294.1,636.5z M-284.2,632.4c-1.1,0-1.9,0.5-2.5,1.6
	c-0.6,1.1-0.9,2.6-0.9,4.6s0.3,3.6,0.9,4.6c0.6,1,1.4,1.6,2.5,1.6c1.1,0,1.9-0.5,2.5-1.6c0.6-1,0.8-2.6,0.8-4.6
	c0-2.1-0.3-3.6-0.8-4.6C-282.2,632.9-283.1,632.4-284.2,632.4L-284.2,632.4z M-284.2,630.6c1.8,0,3.2,0.7,4.1,2
	c0.9,1.4,1.4,3.4,1.4,6c0,2.6-0.5,4.6-1.4,6c-0.9,1.4-2.3,2.1-4.1,2.1c-1.8,0-3.2-0.7-4.1-2.1c-0.9-1.4-1.4-3.4-1.4-6
	c0-2.6,0.5-4.6,1.4-6C-287.3,631.3-286,630.6-284.2,630.6L-284.2,630.6z M-269.1,638c0.9,0.3,1.6,0.8,2.1,1.5
	c0.2,0.3,0.4,0.7,0.5,1.1c0.1,0.4,0.2,0.9,0.2,1.4c0,1.4-0.5,2.5-1.4,3.4c-0.9,0.8-2.2,1.3-3.8,1.3c-1.2,0-2.3-0.3-3.3-0.8
	c-0.9-0.5-1.7-1.3-2.3-2.3l0,0l1.7-1.1l0,0c0.5,0.8,1,1.4,1.6,1.8s1.3,0.6,2.1,0.6c1,0,1.7-0.3,2.3-0.8s0.8-1.2,0.8-2.1
	c0-1-0.4-1.7-1.1-2.2s-1.9-0.7-3.5-0.7l0,0h-0.4h-0.3v-1.9h0.4l0,0c0.2,0,0.3,0,0.3,0c1.4,0,2.4-0.2,3-0.7c0.7-0.4,1-1.1,1-2
	c0-0.7-0.2-1.2-0.7-1.6s-1.1-0.6-2-0.6c-0.6,0-1.2,0.2-1.7,0.5c-0.5,0.3-1,0.8-1.5,1.4l0,0l-1.5-1.2l0,0c0.6-0.8,1.3-1.4,2.1-1.8
	s1.8-0.6,2.8-0.6c1.4,0,2.5,0.4,3.4,1.1c0.8,0.7,1.2,1.7,1.2,2.9c0,0.8-0.2,1.5-0.6,2.1C-267.8,637.2-268.4,637.7-269.1,638
	L-269.1,638z"/>
<path fill="#FFFFFF" d="M-229.4,691.3c0,3.9,0.9,6.9,2.7,8.9s4.1,3,6.9,3s5.1-1,6.9-3c1.8-2,2.7-5,2.7-9s-0.9-6.9-2.6-8.9
	c-1.7-1.9-4-2.9-6.9-2.9c-2.9,0-5.2,1-7,3C-228.6,684.4-229.4,687.3-229.4,691.3L-229.4,691.3z M-236.6,691.5c0-3.5,0.5-6.5,1.6-8.9
	c0.8-1.8,1.9-3.3,3.2-4.7c1.4-1.4,2.8-2.4,4.5-3.1c2.2-0.9,4.6-1.4,7.4-1.4c5.1,0,9.2,1.6,12.2,4.7c3.1,3.2,4.6,7.5,4.6,13.2
	c0,5.6-1.5,9.9-4.6,13.1c-3,3.2-7.1,4.7-12.2,4.7c-5.1,0-9.2-1.6-12.3-4.7C-235.1,701.4-236.6,697-236.6,691.5L-236.6,691.5z
	 M-245.9,708.6V674h7v34.6H-245.9L-245.9,708.6z M-283,708.6V674h10.4l6.3,23.6l6.2-23.6h10.5v34.6h-6.5v-27.2l-6.9,27.2h-6.7
	l-6.8-27.2v27.2H-283L-283,708.6z M-312.2,708.6V674h25.6v5.8h-18.6v7.7h17.3v5.8h-17.3v9.4h19.3v5.8L-312.2,708.6L-312.2,708.6z
	 M-337.1,688.7h5.2l0,0c3.3,0,5.4-0.1,6.3-0.4c0.8-0.3,1.5-0.8,2-1.5c0.5-0.7,0.7-1.6,0.7-2.6c0-1.2-0.3-2.1-0.9-2.8
	c-0.6-0.7-1.5-1.2-2.6-1.4c-0.6-0.1-2.3-0.1-5.1-0.1l0,0h-5.5L-337.1,688.7L-337.1,688.7z M-344.1,708.6V674h14.7l0,0
	c3.7,0,6.4,0.3,8.1,0.9c1.7,0.6,3,1.7,4,3.3c1,1.6,1.5,3.4,1.5,5.4c0,2.6-0.8,4.7-2.3,6.4c-1.5,1.7-3.8,2.8-6.8,3.2
	c1.5,0.9,2.8,1.8,3.7,2.9c1,1.1,2.3,2.9,4,5.6l0,0l4.2,6.7h-8.3l-5-7.5l0,0c-1.8-2.7-3-4.4-3.7-5.1c-0.7-0.7-1.4-1.2-2.1-1.4
	c-0.7-0.3-1.9-0.4-3.5-0.4l0,0h-1.4v14.4L-344.1,708.6L-344.1,708.6z M-362.6,695.9v-5.8h15v13.8l0,0c-1.5,1.4-3.6,2.7-6.3,3.7
	c-2.8,1.1-5.6,1.6-8.4,1.6c-3.6,0-6.8-0.8-9.5-2.3c-2.7-1.5-4.7-3.7-6.1-6.5c-1.4-2.8-2-5.9-2-9.2c0-3.6,0.8-6.8,2.3-9.6
	c1.5-2.8,3.7-4.9,6.6-6.4c2.2-1.1,5-1.7,8.3-1.7c4.3,0,7.6,0.9,10.1,2.7c2.4,1.8,4,4.3,4.7,7.5l0,0l-6.9,1.3l0,0
	c-0.5-1.7-1.4-3-2.7-4c-1.3-1-3-1.5-5-1.5c-3.1,0-5.5,1-7.3,2.9c-1.8,1.9-2.7,4.8-2.7,8.6c0,4.1,0.9,7.2,2.7,9.2s4.2,3.1,7.2,3.1
	c1.5,0,2.9-0.3,4.4-0.9s2.7-1.3,3.8-2.1l0,0v-4.4H-362.6L-362.6,695.9z M-307.1,670.3h5.6l2.5-3.3l2.5,3.3h5.6l-4.6-6.5h-6.9
	L-307.1,670.3L-307.1,670.3z"/>
</svg>
