<?xml version="1.0" encoding="utf-8"?>
<!-- Generator: Adobe Illustrator 19.1.0, SVG Export Plug-In . SVG Version: 6.00 Build 0)  -->
<svg version="1.1" id="Layer_1" xmlns="http://www.w3.org/2000/svg" xmlns:xlink="http://www.w3.org/1999/xlink" x="0px" y="0px"
	 viewBox="-199 290 213 213" style="enable-background:new -199 290 213 213;" xml:space="preserve">
<style type="text/css">
	.st0{fill:#FFFFFF;}
	.st1{fill:#2566AF;}
	.st2{stroke:#000000;stroke-width:0.4786;stroke-miterlimit:1;}
</style>
<path d="M-92.5,290C-33.9,290,14,337.8,14,396.5C14,455.2-33.8,503-92.5,503S-199,455.2-199,396.5C-199,337.8-151.2,290-92.5,290
	L-92.5,290z"/>
<path class="st0" d="M-92.5,293.6c56.7,0,102.9,46.2,102.9,102.9S-35.8,499.4-92.5,499.4s-102.9-46.2-102.9-102.9
	S-149.2,293.6-92.5,293.6L-92.5,293.6z"/>
<path d="M-14.4,341.2c11.1,15.6,17.6,34.7,17.6,55.3c0,20.6-6.5,39.6-17.6,55.3c-17.8-17.6-46.2-29.1-78.1-29.1
	s-60.3,11.4-78.1,29.1c-11.1-15.6-17.6-34.7-17.6-55.3c0-20.6,6.5-39.6,17.6-55.3c17.8,17.6,46.2,29.1,78.1,29.1
	S-32.2,358.9-14.4,341.2L-14.4,341.2z"/>
<path class="st1" d="M-92.5,492.2c9.4,0,18.5-1.4,27.1-3.9c-5.1-5.5-15.3-9.3-27.1-9.3c-11.8,0-22,3.8-27.1,9.3
	C-111,490.9-101.9,492.2-92.5,492.2L-92.5,492.2z M-59.5,486.3c16.4-6,30.7-16.5,41.4-29.8c-9.2-9.4-21.8-16.9-36.3-21.8
	c-4.2,18-11.1,32.7-19.8,41.5C-67.8,478.6-62.6,482.1-59.5,486.3L-59.5,486.3z M-130.7,434.7c-14.6,4.9-27.1,12.4-36.3,21.8
	c10.8,13.4,25.1,23.8,41.5,29.8c3.2-4.2,8.3-7.8,14.6-10.1C-119.5,467.5-126.5,452.8-130.7,434.7L-130.7,434.7z M-92.5,300.8
	c9.4,0,18.5,1.4,27.1,3.9c-5.1,5.5-15.3,9.3-27.1,9.3c-11.8,0-22-3.8-27.1-9.3C-111,302.2-101.9,300.8-92.5,300.8L-92.5,300.8z
	 M-59.5,306.7c16.4,6.1,30.7,16.5,41.4,29.8c-9.2,9.4-21.8,16.9-36.3,21.8c-4.2-18-11.1-32.7-19.8-41.5
	C-67.8,314.4-62.6,310.9-59.5,306.7L-59.5,306.7z M-130.7,358.3c-14.6-4.9-27.1-12.4-36.3-21.8c10.8-13.4,25.1-23.8,41.5-29.8
	c3.2,4.2,8.3,7.8,14.6,10.1C-119.5,325.6-126.5,340.2-130.7,358.3L-130.7,358.3z"/>
<path class="st2" d="M-115.6,436.7h9.4v1.9h-7.1v4.5h5.3v1.9h-5.3v7.1h-2.2L-115.6,436.7L-115.6,436.7z M-101.7,444.9v5.3h2.8l0,0
	c1.2,0,2.1-0.2,2.7-0.6c0.6-0.4,0.9-1.1,0.9-2c0-0.9-0.3-1.5-0.9-2c-0.6-0.5-1.5-0.7-2.6-0.7l0,0H-101.7L-101.7,444.9z
	 M-101.7,438.5v4.6h2.9l0,0c1,0,1.8-0.2,2.3-0.6c0.5-0.4,0.8-1,0.8-1.8s-0.3-1.3-0.8-1.7c-0.6-0.4-1.4-0.5-2.6-0.5l0,0L-101.7,438.5
	L-101.7,438.5z M-103.9,436.7h4.8l0,0c1.9,0,3.3,0.3,4.2,1c0.9,0.7,1.4,1.6,1.4,2.9c0,0.8-0.2,1.5-0.6,2.1c-0.4,0.6-1,1-1.8,1.3
	c0.9,0.3,1.6,0.8,2.1,1.5c0.5,0.7,0.7,1.4,0.7,2.4c0,1.4-0.5,2.5-1.5,3.2c-1,0.7-2.4,1.1-4.3,1.1l0,0h-5L-103.9,436.7L-103.9,436.7z
	 M-87.9,438.5v5.1h2.4l0,0c1.2,0,2.1-0.2,2.6-0.6c0.5-0.4,0.8-1.1,0.8-2c0-0.9-0.3-1.5-0.8-1.9c-0.5-0.4-1.4-0.6-2.7-0.6l0,0H-87.9
	L-87.9,438.5z M-90.1,436.7h4.9l0,0c1.8,0,3.2,0.4,4.1,1.1c0.9,0.7,1.3,1.8,1.3,3.3c0,1.4-0.4,2.5-1.3,3.3c-0.9,0.8-2.1,1.1-3.7,1.1
	l0,0h-3.1v6.6h-2.2L-90.1,436.7L-90.1,436.7z M-73.9,438.5L-76,446h4.4l-2.1-7.5H-73.9L-73.9,438.5z M-75.3,436.7h3l4.7,15.4h-2.3
	l-1.2-4.2h-5.6l-1.2,4.2H-80L-75.3,436.7L-75.3,436.7z M-111.5,340.6h1.5v14.1h2.5v1.7h-7.1v-1.7h2.5v-11.8l-2.8,0.2v-1.4l0,0
	c0.6-0.1,1.1-0.3,1.7-0.5C-112.6,341.1-112.1,340.9-111.5,340.6L-111.5,340.6z M-103,355.6l0.9-1.7l0,0c0.4,0.3,0.9,0.5,1.3,0.6
	c0.2,0.1,0.5,0.1,0.7,0.2c0.2,0,0.5,0.1,0.7,0.1c1.2,0,2.2-0.5,3-1.5c0.4-0.5,0.7-1.1,0.9-1.8c0.2-0.7,0.3-1.5,0.3-2.3
	c-0.6,0.5-1.1,1-1.8,1.2c-0.6,0.3-1.3,0.4-2,0.4c-1.4,0-2.5-0.5-3.4-1.4c-0.9-0.9-1.4-2.1-1.4-3.6c0-1.5,0.5-2.8,1.4-3.7
	c1-0.9,2.2-1.4,3.8-1.4c1.8,0,3.1,0.6,4.1,1.9c0.9,1.2,1.4,3,1.4,5.4c0,2.7-0.6,4.9-1.7,6.4c-1.2,1.6-2.7,2.4-4.7,2.4
	c-0.7,0-1.4-0.1-2-0.3C-102,356.2-102.5,356-103,355.6L-103,355.6z M-95.1,346.5c0-0.6-0.1-1.2-0.2-1.7c-0.2-0.5-0.4-0.9-0.7-1.3
	c-0.6-0.7-1.4-1.1-2.4-1.1c-0.9,0-1.6,0.3-2.2,0.9c-0.6,0.6-0.9,1.4-0.9,2.4c0,1,0.3,1.8,0.8,2.4c0.6,0.6,1.3,0.9,2.2,0.9
	c0.7,0,1.4-0.2,2-0.7C-95.9,347.9-95.4,347.3-95.1,346.5L-95.1,346.5z M-85.2,342.4c-1.1,0-1.9,0.5-2.5,1.6
	c-0.6,1.1-0.9,2.6-0.9,4.6c0,2,0.3,3.6,0.9,4.6c0.6,1,1.4,1.6,2.5,1.6c1.1,0,1.9-0.5,2.5-1.6c0.6-1,0.8-2.6,0.8-4.6
	c0-2.1-0.3-3.6-0.8-4.6C-83.2,342.9-84.1,342.4-85.2,342.4L-85.2,342.4z M-85.2,340.6c1.8,0,3.2,0.7,4.1,2c0.9,1.4,1.4,3.4,1.4,6
	c0,2.6-0.5,4.6-1.4,6c-0.9,1.4-2.3,2.1-4.1,2.1c-1.8,0-3.2-0.7-4.1-2.1c-0.9-1.4-1.4-3.4-1.4-6c0-2.6,0.5-4.6,1.4-6
	C-88.3,341.3-87,340.6-85.2,340.6L-85.2,340.6z M-70.1,348c0.9,0.3,1.6,0.8,2.1,1.5c0.2,0.3,0.4,0.7,0.5,1.1
	c0.1,0.4,0.2,0.9,0.2,1.4c0,1.4-0.5,2.5-1.4,3.4c-0.9,0.8-2.2,1.3-3.8,1.3c-1.2,0-2.3-0.3-3.3-0.8c-0.9-0.5-1.7-1.3-2.3-2.3l0,0
	l1.7-1.1l0,0c0.5,0.8,1,1.4,1.6,1.8c0.6,0.4,1.3,0.6,2.1,0.6c1,0,1.7-0.3,2.3-0.8c0.6-0.5,0.8-1.2,0.8-2.1c0-1-0.4-1.7-1.1-2.2
	c-0.7-0.5-1.9-0.7-3.5-0.7l0,0h-0.4h-0.3v-1.9l0.4,0l0,0c0.2,0,0.3,0,0.3,0c1.4,0,2.4-0.2,3-0.7c0.7-0.4,1-1.1,1-2
	c0-0.7-0.2-1.2-0.7-1.6c-0.5-0.4-1.1-0.6-2-0.6c-0.6,0-1.2,0.2-1.7,0.5c-0.5,0.3-1,0.8-1.5,1.4l0,0l-1.5-1.2l0,0
	c0.6-0.8,1.3-1.4,2.1-1.8c0.8-0.4,1.8-0.6,2.8-0.6c1.4,0,2.5,0.4,3.4,1.1c0.8,0.7,1.2,1.7,1.2,2.9c0,0.8-0.2,1.5-0.6,2.1
	C-68.8,347.2-69.4,347.7-70.1,348L-70.1,348z"/>
<path class="st0" d="M-30.4,401.3c0,3.9,0.9,6.9,2.7,8.9c1.8,2,4.1,3,6.9,3s5.1-1,6.9-3c1.8-2,2.7-5,2.7-9c0-4-0.9-6.9-2.6-8.9
	c-1.7-1.9-4-2.9-6.9-2.9c-2.9,0-5.2,1-7,3C-29.6,394.4-30.4,397.3-30.4,401.3L-30.4,401.3z M-37.6,401.5c0-3.5,0.5-6.5,1.6-8.9
	c0.8-1.8,1.9-3.3,3.2-4.7c1.4-1.4,2.8-2.4,4.5-3.1c2.2-0.9,4.6-1.4,7.4-1.4c5.1,0,9.2,1.6,12.2,4.7c3.1,3.2,4.6,7.5,4.6,13.2
	c0,5.6-1.5,9.9-4.6,13.1c-3,3.2-7.1,4.7-12.2,4.7c-5.1,0-9.2-1.6-12.3-4.7C-36.1,411.4-37.6,407-37.6,401.5L-37.6,401.5z
	 M-46.9,418.6v-34.6h7v34.6H-46.9L-46.9,418.6z M-84,418.6v-34.6h10.4l6.3,23.6l6.2-23.6h10.5v34.6h-6.5v-27.2l-6.9,27.2h-6.7
	l-6.8-27.2v27.2H-84L-84,418.6z M-113.2,418.6v-34.6h25.6v5.8h-18.6v7.7h17.3v5.8h-17.3v9.4h19.3v5.8H-113.2L-113.2,418.6z
	 M-138.1,398.7h5.2l0,0c3.3,0,5.4-0.1,6.3-0.4c0.8-0.3,1.5-0.8,2-1.5c0.5-0.7,0.7-1.6,0.7-2.6c0-1.2-0.3-2.1-0.9-2.8
	c-0.6-0.7-1.5-1.2-2.6-1.4c-0.6-0.1-2.3-0.1-5.1-0.1l0,0h-5.5L-138.1,398.7L-138.1,398.7z M-145.1,418.6v-34.6h14.7l0,0
	c3.7,0,6.4,0.3,8.1,0.9c1.7,0.6,3,1.7,4,3.3c1,1.6,1.5,3.4,1.5,5.4c0,2.6-0.8,4.7-2.3,6.4c-1.5,1.7-3.8,2.8-6.8,3.2
	c1.5,0.9,2.8,1.8,3.7,2.9c1,1.1,2.3,2.9,4,5.6l0,0l4.2,6.7h-8.3l-5-7.5l0,0c-1.8-2.7-3-4.4-3.7-5.1c-0.7-0.7-1.4-1.2-2.1-1.4
	c-0.7-0.3-1.9-0.4-3.5-0.4l0,0h-1.4v14.4L-145.1,418.6L-145.1,418.6z M-163.6,405.9v-5.8h15v13.8l0,0c-1.5,1.4-3.6,2.7-6.3,3.7
	c-2.8,1.1-5.6,1.6-8.4,1.6c-3.6,0-6.8-0.8-9.5-2.3c-2.7-1.5-4.7-3.7-6.1-6.5c-1.4-2.8-2-5.9-2-9.2c0-3.6,0.8-6.8,2.3-9.6
	c1.5-2.8,3.7-4.9,6.6-6.4c2.2-1.1,5-1.7,8.3-1.7c4.3,0,7.6,0.9,10.1,2.7c2.4,1.8,4,4.3,4.7,7.5l0,0l-6.9,1.3l0,0
	c-0.5-1.7-1.4-3-2.7-4c-1.3-1-3-1.5-5-1.5c-3.1,0-5.5,1-7.3,2.9c-1.8,1.9-2.7,4.8-2.7,8.6c0,4.1,0.9,7.2,2.7,9.2
	c1.8,2,4.2,3.1,7.2,3.1c1.5,0,2.9-0.3,4.4-0.9c1.5-0.6,2.7-1.3,3.8-2.1l0,0v-4.4H-163.6L-163.6,405.9z M-108.1,380.3h5.6l2.5-3.3
	l2.5,3.3h5.6l-4.6-6.5h-6.9L-108.1,380.3L-108.1,380.3z"/>
</svg>
