<?xml version="1.0" encoding="utf-8"?>
<!-- Generator: Adobe Illustrator 19.1.0, SVG Export Plug-In . SVG Version: 6.00 Build 0)  -->
<svg version="1.1"
	 id="svg2" sodipodi:docname="novo-escudo.svg" inkscape:version="0.46" sodipodi:version="0.32" inkscape:output_extension="org.inkscape.output.svg.inkscape" xmlns:inkscape="http://www.inkscape.org/namespaces/inkscape" xmlns:dc="http://purl.org/dc/elements/1.1/" xmlns:rdf="http://www.w3.org/1999/02/22-rdf-syntax-ns#" xmlns:sodipodi="http://sodipodi.sourceforge.net/DTD/sodipodi-0.dtd" xmlns:svg="http://www.w3.org/2000/svg" xmlns:cc="http://creativecommons.org/ns#"
	 xmlns="http://www.w3.org/2000/svg" xmlns:xlink="http://www.w3.org/1999/xlink" x="0px" y="0px" viewBox="600.2 -224.1 996 996"
	 enable-background="new 600.2 -224.1 996 996" xml:space="preserve">
<defs>
	
	
		<inkscape:perspective  inkscape:persp3d-origin="372.04724 : 350.78739 : 1" inkscape:vp_x="0 : 526.18109 : 1" inkscape:vp_y="0 : 1000 : 0" sodipodi:type="inkscape:persp3d" inkscape:vp_z="744.09448 : 526.18109 : 1" id="perspective10">
		</inkscape:perspective>
	
		<inkscape:perspective  inkscape:persp3d-origin="372.04724 : 350.78739 : 1" inkscape:vp_x="0 : 526.18109 : 1" inkscape:vp_y="0 : 1000 : 0" sodipodi:type="inkscape:persp3d" inkscape:vp_z="744.09448 : 526.18109 : 1" id="perspective2410">
		</inkscape:perspective>
</defs>
<sodipodi:namedview  inkscape:document-units="px" inkscape:guide-bbox="true" inkscape:pageshadow="2" inkscape:window-width="1280" inkscape:current-layer="layer1" inkscape:pageopacity="0.0" inkscape:window-x="-4" inkscape:window-y="-4" inkscape:window-height="753" showgrid="false" bordercolor="#666666" pagecolor="#ffffff" inkscape:zoom="0.1726111" id="base" inkscape:cx="575.0953" inkscape:cy="590.29421" borderopacity="1.0" showguides="true">
	</sodipodi:namedview>
<g id="layer1" inkscape:groupmode="layer" inkscape:label="Camada 1">
	<g id="g3460">
		<g id="g3313">
			
				<path id="path3294" sodipodi:cx="-1224.0469" sodipodi:cy="682.94574" sodipodi:rx="419.44708" sodipodi:ry="419.44708" sodipodi:type="arc" fill="#FFFFFF" stroke="#E5050F" stroke-width="12" d="
				M1590.2,273.9c0,271.7-220.3,492-492,492s-492-220.3-492-492l0,0c0-271.7,220.3-492,492-492S1590.2,2.2,1590.2,273.9z"/>
			<g id="g3296" transform="translate(1259.98, 3.93111e-07)">
				
					<path id="path3278" sodipodi:cx="-1224.0469" sodipodi:cy="682.94574" sodipodi:rx="419.44708" sodipodi:ry="419.44708" sodipodi:type="arc" fill="#FFFFFF" stroke="#E5050F" stroke-width="12" d="
					M233.1,273.3c0,216.7-175.7,392.4-392.4,392.4S-551.7,490-551.7,273.3l0,0c0-216.7,175.7-392.4,392.4-392.4
					S233.1,56.6,233.1,273.3z"/>
				
					<path id="path2416" sodipodi:cx="385.25232" sodipodi:cy="778.63025" sodipodi:rx="484.5752" sodipodi:ry="484.5752" sodipodi:type="arc" fill="#E5050F" d="
					M217,273.1c0,208-168.6,376.6-376.6,376.7c-208,0-376.6-168.6-376.7-376.6v-0.1c0-208,168.6-376.6,376.6-376.7
					C48.3-103.6,217,65,217,273C217,273.1,217,273.1,217,273.1z"/>
				<g id="g3246" transform="translate(220.968, 51.6129)">
					<path id="path3188" sodipodi:nodetypes="cccccccc" fill="#FFFFFF" d="M-228.4,125.8c2.2-17.3,9.5-33,18.1-48.2l24.9,11.2
						l22.5-30.5l22.5,6.8c0.3,40.1-0.8,81.5,14.1,109.2l-11.2,14.1C-163.1,164.4-190.3,141.4-228.4,125.8z"/>
					<path id="path3190" sodipodi:nodetypes="csccccc" fill="#FFFFFF" d="M-270.3,167.4c-49.8-0.2-13.7-58.5-6.4-80.7
						c6.5-20-3.4-60.3-41.5-74.6v-51.2c75.1,21.8,83.5,71.8,126.7,48.8V35C-258.9,104.2-229.4,167-270.3,167.4z"/>
					<path id="path3192" sodipodi:nodetypes="ccccc" fill="#FFFFFF" d="M-470.8,55.9c73.8-18.7,129.2-12.8,181.1-2.3
						c7.5,21.8,1,36.6-6,51.2c-50.8-8.3-105.1-10.4-170.5,6.9C-477.2,94.9-478.1,76.2-470.8,55.9z"/>
					<path id="path3194" sodipodi:nodetypes="cccc" fill="#FFFFFF" d="M-427,12c-88.5,15-68.6,119.9,0,148.2v91.5
						c-194.5-56.1-159.3-267.6,0-289V12z"/>
					<path id="path3196" sodipodi:nodetypes="ccccc" fill="#FFFFFF" d="M-331.3,340.7c-26.3,3.6-53.7,2.9-81.7,0V112
						c27.2-2.8,54.5-3.7,81.7,0V340.7z"/>
					<path id="path3202" sodipodi:nodetypes="cccccc" fill="#FFFFFF" d="M-699.6,226.6c47.4-22.9,57.8-73.2,126.8-123.8
						c2,23.5,4.7,46.4,14.6,63.4c-29.2,42.2-27.3,82.4,16.5,131.1c-10.2,23.3-22.6,40.1-36,53.7
						C-639.2,314.4-653.4,266.8-699.6,226.6z"/>
					<path id="path3204" sodipodi:nodetypes="ccccc" fill="#FFFFFF" d="M-479.4,395.5c17.5-19.4,22.4-33.7,29.9-49
						c46.6,9.8,100.8,13.8,182.2-2.8c8.5,17,5.3,33,2.4,49C-313.1,410-403,414.1-479.4,395.5z"/>
					<path id="path3206" sodipodi:nodetypes="ccccccssc" fill="#FFFFFF" d="M-613.8,387.9l6,25.9l35.9,2.4
						c41.4,29.3,85.6,56.8,145.9,74.6v-50.6c-32.7-5.6-53.7-22-69.4-43.5c46.4-50,55.9-112.7,26.5-125.5c-39.1-17-56.6,23-78.9,59.1
						C-562.3,353.9-583.3,377.3-613.8,387.9z"/>
					<path id="path3208" sodipodi:nodetypes="cccccccccc" fill="#FFFFFF" d="M-331.1-40.4c0.2-38.7,29.9-34,43.9-20.1
						c-2-48.6-41.4-54.3-60.3-36.8c-5.6-9.2-12.8-16.2-24.4-21.9c-10.3,4.9-18.6,12.1-24.9,21.4c-17.8-16.3-58.5-12.3-60.3,36.6
						c15-13,43.3-17.5,43.3,21l0.2,74.1c26.5-2,54-2.2,82.5-0.2L-331.1-40.4z"/>
					<path id="path3216" sodipodi:nodetypes="cccccccccc" fill="#FFFFFF" d="M-331,492.6c0.2,38.7,29.9,34,43.9,20.1
						c-2,48.6-41.4,54.3-60.3,36.8c-5.6,9.2-12.8,16.2-24.4,21.9c-10.3-4.9-18.6-12.1-24.9-21.4c-17.8,16.3-58.5,12.3-60.3-36.6
						c15,13,43.3,17.5,43.3-21l0.2-74.1c26.5,2,54,2.2,82.5,0.2L-331,492.6z"/>
					<path id="path3218" sodipodi:nodetypes="ccccsc" fill="#FFFFFF" d="M-319,197v87.6c100.2,33.3,84.3,158.1,1.3,155.1v50.4
						c107.4-10.6,149-77.3,149.6-142.2C-167.3,273.6-226.1,220.9-319,197z"/>
					<path id="path3222" sodipodi:nodetypes="ccccc" fill="#FFFFFF" d="M-157,344.8c0.1-11.4,1.1-21.6-6.4-44l23.1-15.4l26.1,21.4
						C-124.5,322.2-140,334-157,344.8z"/>
				</g>
			</g>
		</g>
		
			<text transform="matrix(0.1271 -0.9919 0.9919 0.1271 680.1589 283.338)" fill="#E5050F" font-family="'Arial-Black'" font-size="75.0134px">S</text>
		
			<text transform="matrix(9.156010e-02 -0.9958 0.9958 9.156010e-02 687.4752 223.9607)" fill="#E5050F" font-family="'Arial-Black'" font-size="75.0134px">.</text>
		
			<text transform="matrix(0.2859 -0.9583 0.9583 0.2859 699.0054 165.7723)" fill="#E5050F" font-family="'Arial-Black'" font-size="75.0091px">C</text>
		
			<text transform="matrix(0.3638 -0.9315 0.9315 0.3638 719.4653 107.4827)" fill="#E5050F" font-family="'Arial-Black'" font-size="75.0134px">.</text>
		
			<text transform="matrix(0.5604 -0.8282 0.8282 0.5604 741.6369 59.0195)" fill="#E5050F" font-family="'Arial-Black'" font-size="75.0134px">I</text>
		
			<text transform="matrix(0.6797 -0.7335 0.7335 0.6797 777.3694 8.2577)" fill="#E5050F" font-family="'Arial-Black'" font-size="75.0134px">N</text>
		
			<text transform="matrix(0.8421 -0.5393 0.5393 0.8421 846.4539 -58.778)" fill="#E5050F" font-family="'Arial-Black'" font-size="75.0134px">T</text>
		
			<text transform="matrix(0.9218 -0.3878 0.3878 0.9218 919.5833 -100.5213)" fill="#E5050F" font-family="'Arial-Black'" font-size="75.0173px">E</text>
		
			<text transform="matrix(0.9825 -0.1862 0.1862 0.9825 997.3453 -130.7707)" fill="#E5050F" font-family="'Arial-Black'" font-size="75.0134px">R</text>
		
			<text transform="matrix(1 2.734490e-03 -2.734490e-03 1 1089.3246 -141.8569)" fill="#E5050F" font-family="'Arial-Black'" font-size="75.0134px">N</text>
		
			<text transform="matrix(0.9693 0.2457 -0.2457 0.9693 1188.6421 -134.3377)" fill="#E5050F" font-family="'Arial-Black'" font-size="75.0173px">A</text>
		
			<text transform="matrix(0.839 0.5442 -0.5442 0.839 1274.1766 -107.443)" fill="#E5050F" font-family="'Arial-Black'" font-size="75.0162px">C</text>
		
			<text transform="matrix(0.787 0.617 -0.617 0.787 1351.509 -59.1449)" fill="#E5050F" font-family="'Arial-Black'" font-size="75.0134px">I</text>
		
			<text transform="matrix(0.6864 0.7272 -0.7272 0.6864 1396.0675 -19.7554)" fill="#E5050F" font-family="'Arial-Black'" font-size="75.0134px">O</text>
		
			<text transform="matrix(0.4774 0.8787 -0.8787 0.4774 1456.2302 57.2637)" fill="#E5050F" font-family="'Arial-Black'" font-size="75.0134px">N</text>
		
			<text transform="matrix(0.2386 0.9711 -0.9711 0.2386 1499.1505 147.4109)" fill="#E5050F" font-family="'Arial-Black'" font-size="75.0134px">A</text>
		
			<text transform="matrix(4.443410e-02 0.999 -0.999 4.443410e-02 1516.5538 234.4919)" fill="#E5050F" font-family="'Arial-Black'" font-size="75.0134px">L</text>
		
			<text transform="matrix(0.9678 0.2517 -0.2517 0.9678 945.0425 719.521)" fill="#E5050F" font-family="'Arial-Black'" font-size="75.0134px">1</text>
		
			<text transform="matrix(0.9903 0.1391 -0.1391 0.9903 1029.8169 739.0042)" fill="#E5050F" font-family="'Arial-Black'" font-size="75.0134px">9</text>
		
			<text transform="matrix(0.9909 -0.1343 0.1343 0.9909 1120.2299 745.8022)" fill="#E5050F" font-family="'Arial-Black'" font-size="75.0104px">0</text>
		
			<text transform="matrix(0.9838 -0.1792 0.1792 0.9838 1204.905 730.2304)" fill="#E5050F" font-family="'Arial-Black'" font-size="75.0134px">9</text>
	</g>
</g>
</svg>
