<?xml version="1.0" encoding="utf-8"?>
<!-- Generator: Adobe Illustrator 19.1.0, SVG Export Plug-In . SVG Version: 6.00 Build 0)  -->
<svg version="1.1" id="Layer_1" xmlns="http://www.w3.org/2000/svg" xmlns:xlink="http://www.w3.org/1999/xlink" x="0px" y="0px"
	 viewBox="-417.5 606.9 155.8 187.2" enable-background="new -417.5 606.9 155.8 187.2" xml:space="preserve">
<g>
	<path d="M-380.8,630.3c-2,0-26.4,0-26.4,0c-3.6,0-10.3,2.5-10.3,11.3l0,0c0,0.6,0.2,6.3,4.4,9.5c0,2,0,59.6,0,59.6
		c0,0.3,0.2,6.2,4.2,10.2l-0.1-0.1l61.6,69.5c0.1,0.2,3.4,3.8,7.8,3.8s7.6-3.6,7.8-3.8l61.6-69.5l-0.1,0.1c4-4,4.2-9.9,4.2-10.1
		c0,0,0-57.6,0-59.6c4.2-3.1,4.4-8.8,4.4-9.5v-0.1c0-8.8-6.7-11.2-10.2-11.3c0,0-24.4,0-26.4,0c-8.7-14.4-24.3-23.4-41.2-23.4
		C-356.5,607-372.1,615.9-380.8,630.3L-380.8,630.3z M-344.3,787.6l-61.6-69.5l0,0c-2.8-2.8-3-7.3-3-7.3V649l-1.1-0.6
		c-3.3-1.8-3.3-6.6-3.3-6.6c0-6.7,5.2-7.2,6.2-7.2h28.6l0.6-1c7.8-13.8,22.5-22.3,38.3-22.3c15.8,0,30.5,8.5,38.3,22.3l0.6,1h28.7
		c1,0,6.2,0.5,6.2,7.2l0,0c0,0.1,0,4.9-3.3,6.6l-1.1,0.6v61.8c0,0-0.2,4.5-3,7.3l0,0l-61.6,69.6c0,0-2.2,2.4-4.7,2.4
		C-342.1,790-344.3,787.6-344.3,787.6L-344.3,787.6z"/>
	<path fill="#FFFFFF" d="M-272.1,632.4h-27.5c-0.1-0.1-0.1-0.2-0.2-0.4c-0.4-0.6-0.7-1.2-1.1-1.9c-0.1-0.2-0.2-0.3-0.3-0.5
		c-0.5-0.8-1-1.5-1.6-2.3l-0.1-0.1c-0.5-0.7-1.1-1.4-1.6-2c-0.1-0.2-0.3-0.3-0.4-0.5c-0.5-0.6-1-1.2-1.6-1.7
		c-0.1-0.1-0.2-0.2-0.3-0.3c-0.7-0.7-1.3-1.3-2-1.9c-0.1-0.1-0.1-0.1-0.2-0.2c-0.6-0.5-1.3-1.1-1.9-1.6c-0.2-0.1-0.3-0.3-0.5-0.4
		c-0.6-0.5-1.3-1-1.9-1.4c-0.1-0.1-0.2-0.1-0.3-0.2c-0.8-0.5-1.6-1-2.4-1.5c-0.1-0.1-0.2-0.1-0.4-0.2c-0.7-0.4-1.4-0.8-2-1.1
		c-0.2-0.1-0.4-0.2-0.6-0.3c-0.7-0.4-1.5-0.7-2.2-1c-0.1,0-0.2-0.1-0.3-0.1c-0.9-0.4-1.7-0.7-2.6-1c-0.2-0.1-0.4-0.1-0.6-0.2
		c-0.7-0.2-1.4-0.5-2.1-0.7c-0.2-0.1-0.5-0.1-0.7-0.2c-0.8-0.2-1.7-0.4-2.5-0.6c-0.1,0-0.2,0-0.2-0.1c-0.9-0.2-1.8-0.3-2.8-0.5
		c-0.3,0-0.5-0.1-0.8-0.1c-0.7-0.1-1.4-0.2-2.1-0.2c-0.3,0-0.5,0-0.8-0.1c-0.9-0.1-1.9-0.1-2.9-0.1s-1.9,0-2.9,0.1
		c-0.3,0-0.5,0-0.8,0.1c-0.7,0.1-1.4,0.1-2.1,0.2c-0.3,0-0.5,0.1-0.8,0.1c-0.9,0.1-1.9,0.3-2.8,0.5c-0.1,0-0.2,0-0.2,0.1
		c-0.8,0.2-1.7,0.4-2.5,0.6c-0.2,0.1-0.5,0.1-0.7,0.2c-0.7,0.2-1.4,0.4-2.1,0.7c-0.2,0.1-0.4,0.1-0.6,0.2c-0.9,0.3-1.7,0.6-2.6,1
		c-0.1,0-0.2,0.1-0.3,0.1c-0.8,0.3-1.5,0.7-2.2,1c-0.2,0.1-0.4,0.2-0.6,0.3c-0.7,0.4-1.4,0.7-2,1.1c-0.1,0.1-0.3,0.1-0.4,0.2
		c-0.8,0.5-1.6,1-2.3,1.5c-0.1,0.1-0.2,0.1-0.3,0.2c-0.7,0.5-1.3,0.9-1.9,1.4c-0.2,0.1-0.3,0.3-0.5,0.4c-0.6,0.5-1.3,1-1.9,1.6
		c-0.1,0.1-0.1,0.1-0.2,0.2c-0.7,0.6-1.4,1.3-2,1.9c-0.1,0.1-0.2,0.2-0.3,0.3c-0.5,0.6-1.1,1.1-1.6,1.7c-0.1,0.2-0.3,0.3-0.4,0.5
		c-0.6,0.7-1.1,1.3-1.6,2l-0.1,0.1c-0.6,0.7-1.1,1.5-1.6,2.3c-0.1,0.2-0.2,0.3-0.3,0.5c-0.4,0.6-0.8,1.2-1.1,1.9
		c-0.1,0.1-0.2,0.2-0.2,0.4H-407c0,0-8.2,0.1-8.2,9.2c0,0-0.1,6.1,4.4,8.5v60.6c0,0,0.1,5.3,3.6,8.7l61.6,69.5c0,0,2.7,3.1,6.2,3.1
		s6.2-3.1,6.2-3.1l61.6-69.5c3.5-3.5,3.6-8.7,3.6-8.7v-60.6c4.4-2.4,4.4-8.5,4.4-8.5C-263.9,632.5-272.1,632.4-272.1,632.4
		L-272.1,632.4z M-369.5,752.3l-30.6-34.2c-3.8-3.8-4.1-11.5-4.1-11.5v-54c0-9.7-5.3-13.7-5.3-13.7h26.7c-1.9,5-2.9,10.4-2.9,16.1
		c0,14,6.3,26.6,16.2,35V752.3L-369.5,752.3z M-275.1,652.7v54c0,0-0.3,7.7-4.1,11.5l-30.6,34.2v-62.3c9.9-8.4,16.2-21,16.2-35
		c0-5.7-1-11.1-2.9-16.1h26.7C-269.8,639-275.1,642.9-275.1,652.7L-275.1,652.7z"/>
	<path fill="#FFFFFF" d="M-316.4,615.3c0.1,0.1,0.2,0.1,0.4,0.2C-316.1,615.5-316.3,615.4-316.4,615.3L-316.4,615.3z"/>
	<path fill="#FFFFFF" d="M-349.2,610c0.1,0,0.2,0,0.2-0.1C-349.1,610-349.1,610-349.2,610L-349.2,610z"/>
	<path fill="#FFFFFF" d="M-319,613.9c0.2,0.1,0.4,0.2,0.6,0.3C-318.6,614.1-318.8,614-319,613.9L-319,613.9z"/>
	<path fill="#FFFFFF" d="M-313.7,617c0.1,0.1,0.2,0.1,0.3,0.2C-313.5,617.2-313.6,617.1-313.7,617L-313.7,617z"/>
	<path fill="#FFFFFF" d="M-311.4,618.7c0.2,0.1,0.3,0.3,0.5,0.4C-311.1,618.9-311.3,618.8-311.4,618.7L-311.4,618.7z"/>
	<path fill="#FFFFFF" d="M-355.1,611.7c0.2-0.1,0.4-0.1,0.6-0.2C-354.7,611.6-354.9,611.6-355.1,611.7L-355.1,611.7z"/>
	<path fill="#FFFFFF" d="M-352.4,610.9c0.2-0.1,0.5-0.1,0.7-0.2C-351.9,610.7-352.2,610.8-352.4,610.9L-352.4,610.9z"/>
	<path fill="#FFFFFF" d="M-343.3,609.2c0.3,0,0.5,0,0.8-0.1C-342.8,609.1-343,609.2-343.3,609.2L-343.3,609.2z"/>
	<path fill="#FFFFFF" d="M-327.5,610.6c0.2,0.1,0.5,0.1,0.7,0.2C-327.1,610.8-327.3,610.7-327.5,610.6L-327.5,610.6z"/>
	<path fill="#FFFFFF" d="M-336.8,609.1c0.3,0,0.5,0,0.8,0.1C-336.2,609.2-336.5,609.1-336.8,609.1L-336.8,609.1z"/>
	<path fill="#FFFFFF" d="M-333.8,609.4c0.3,0,0.5,0.1,0.8,0.1C-333.3,609.5-333.5,609.4-333.8,609.4L-333.8,609.4z"/>
	<path fill="#FFFFFF" d="M-324.7,611.5c0.2,0.1,0.4,0.1,0.6,0.2C-324.3,611.6-324.5,611.6-324.7,611.5L-324.7,611.5z"/>
	<path fill="#FFFFFF" d="M-346.2,609.5c0.3,0,0.5-0.1,0.8-0.1C-345.7,609.4-346,609.5-346.2,609.5L-346.2,609.5z"/>
	<path fill="#FFFFFF" d="M-321.5,612.7c0.1,0,0.2,0.1,0.3,0.1C-321.4,612.8-321.5,612.8-321.5,612.7L-321.5,612.7z"/>
	<path fill="#FFFFFF" d="M-358,612.8c0.1,0,0.2-0.1,0.3-0.1C-357.8,612.8-357.9,612.8-358,612.8L-358,612.8z"/>
	<path fill="#FFFFFF" d="M-372.7,623.1c0.1-0.1,0.2-0.2,0.3-0.3C-372.5,622.9-372.6,623-372.7,623.1L-372.7,623.1z"/>
	<path fill="#FFFFFF" d="M-374.7,625.3c0.1-0.2,0.3-0.3,0.4-0.5C-374.4,625-374.6,625.1-374.7,625.3L-374.7,625.3z"/>
	<path fill="#FFFFFF" d="M-370.4,620.8c0.1-0.1,0.1-0.1,0.2-0.2C-370.3,620.7-370.3,620.8-370.4,620.8L-370.4,620.8z"/>
	<path fill="#FFFFFF" d="M-376.4,627.4l0.1-0.1C-376.3,627.3-376.4,627.4-376.4,627.4L-376.4,627.4z"/>
	<path fill="#FFFFFF" d="M-309.1,620.7c0.1,0.1,0.1,0.1,0.2,0.2C-308.9,620.8-309,620.7-309.1,620.7L-309.1,620.7z"/>
	<path fill="#FFFFFF" d="M-301.2,629.7c0.1,0.2,0.2,0.3,0.3,0.5C-301,630-301.1,629.8-301.2,629.7L-301.2,629.7z"/>
	<path fill="#FFFFFF" d="M-378.3,630.2c0.1-0.2,0.2-0.3,0.3-0.5C-378.1,629.8-378.2,630-378.3,630.2L-378.3,630.2z"/>
	<path fill="#FFFFFF" d="M-330.3,610c0.1,0,0.2,0,0.2,0.1C-330.1,610-330.2,610-330.3,610L-330.3,610z"/>
	<path fill="#FFFFFF" d="M-306.8,622.8c0.1,0.1,0.2,0.2,0.3,0.3C-306.6,623-306.7,622.9-306.8,622.8L-306.8,622.8z"/>
	<path fill="#FFFFFF" d="M-363.2,615.5c0.1-0.1,0.3-0.1,0.4-0.2C-363,615.4-363.1,615.5-363.2,615.5L-363.2,615.5z"/>
	<path fill="#FFFFFF" d="M-360.8,614.2c0.2-0.1,0.4-0.2,0.6-0.3C-360.4,614-360.6,614.1-360.8,614.2L-360.8,614.2z"/>
	<path fill="#FFFFFF" d="M-302.9,627.3l0.1,0.1C-302.9,627.4-302.9,627.3-302.9,627.3L-302.9,627.3z"/>
	<path fill="#FFFFFF" d="M-305,624.8c0.1,0.2,0.3,0.3,0.4,0.5C-304.7,625.1-304.8,625-305,624.8L-305,624.8z"/>
	<path fill="#FFFFFF" d="M-368.3,619.1c0.2-0.1,0.3-0.3,0.5-0.4C-368,618.8-368.1,618.9-368.3,619.1L-368.3,619.1z"/>
	<path fill="#FFFFFF" d="M-365.9,617.3c0.1-0.1,0.2-0.1,0.3-0.2C-365.7,617.1-365.8,617.2-365.9,617.3L-365.9,617.3z"/>
	<path d="M-385.6,655.1c0-5.7,1-11.1,2.9-16.1h-26.7c0,0,5.3,3.9,5.3,13.7v54c0,0,0.3,7.7,4.1,11.5l30.6,34.2v-62.3
		C-379.4,681.6-385.6,669.1-385.6,655.1L-385.6,655.1z"/>
	<path fill="#CD3529" d="M-309.8,690.1v62.3l30.6-34.2c3.8-3.8,4.1-11.5,4.1-11.5v-54c0-9.7,5.3-13.7,5.3-13.7h-26.7
		c1.9,5,2.9,10.4,2.9,16.1C-293.6,669.1-299.9,681.6-309.8,690.1L-309.8,690.1z"/>
	<path fill="#FFFFFF" d="M-304.5,625.3c0.6,0.7,1.1,1.3,1.6,2C-303.4,626.6-304,625.9-304.5,625.3L-304.5,625.3z"/>
	<path fill="#FFFFFF" d="M-367.8,618.7c0.6-0.5,1.3-1,1.9-1.4C-366.5,617.7-367.2,618.2-367.8,618.7L-367.8,618.7z"/>
	<path fill="#FFFFFF" d="M-365.6,617c0.8-0.5,1.6-1,2.3-1.5C-364,616-364.8,616.5-365.6,617L-365.6,617z"/>
	<path fill="#FFFFFF" d="M-362.8,615.3c0.7-0.4,1.3-0.8,2-1.1C-361.5,614.6-362.2,614.9-362.8,615.3L-362.8,615.3z"/>
	<path fill="#FFFFFF" d="M-302.8,627.4c0.6,0.7,1.1,1.5,1.6,2.3C-301.8,628.9-302.3,628.1-302.8,627.4L-302.8,627.4z"/>
	<path fill="#FFFFFF" d="M-308.9,620.8c0.7,0.6,1.4,1.3,2,1.9C-307.5,622.1-308.2,621.5-308.9,620.8L-308.9,620.8z"/>
	<path fill="#FFFFFF" d="M-306.5,623.1c0.5,0.6,1.1,1.1,1.6,1.7C-305.5,624.2-306,623.6-306.5,623.1L-306.5,623.1z"/>
	<path fill="#FFFFFF" d="M-376.3,627.3c0.5-0.7,1.1-1.3,1.6-2C-375.3,625.9-375.8,626.6-376.3,627.3L-376.3,627.3z"/>
	<path fill="#FFFFFF" d="M-370.2,620.7c0.6-0.5,1.2-1.1,1.9-1.6C-368.9,619.6-369.6,620.1-370.2,620.7L-370.2,620.7z"/>
	<path fill="#FFFFFF" d="M-360.2,613.9c0.7-0.4,1.5-0.7,2.2-1C-358.7,613.2-359.5,613.5-360.2,613.9L-360.2,613.9z"/>
	<path fill="#FFFFFF" d="M-379.5,632c0.4-0.6,0.7-1.2,1.1-1.9C-378.7,630.8-379.1,631.4-379.5,632L-379.5,632z"/>
	<path fill="#FFFFFF" d="M-378,629.7c0.5-0.8,1-1.5,1.6-2.3C-377,628.1-377.5,628.9-378,629.7L-378,629.7z"/>
	<path fill="#FFFFFF" d="M-300.9,630.2c0.4,0.6,0.8,1.2,1.1,1.9C-300.1,631.4-300.5,630.8-300.9,630.2L-300.9,630.2z"/>
	<path fill="#FFFFFF" d="M-374.3,624.8c0.5-0.6,1-1.1,1.6-1.7C-373.3,623.6-373.8,624.2-374.3,624.8L-374.3,624.8z"/>
	<path fill="#FFFFFF" d="M-372.4,622.8c0.7-0.7,1.3-1.3,2-1.9C-371.1,621.5-371.8,622.1-372.4,622.8L-372.4,622.8z"/>
	<path fill="#FFFFFF" d="M-342.5,609.1c1-0.1,1.9-0.1,2.9-0.1C-340.6,609-341.5,609.1-342.5,609.1L-342.5,609.1z"/>
	<path fill="#FFFFFF" d="M-324.1,611.7c0.9,0.3,1.7,0.6,2.6,1C-322.4,612.4-323.3,612-324.1,611.7L-324.1,611.7z"/>
	<path fill="#FFFFFF" d="M-333,609.5c0.9,0.1,1.9,0.3,2.8,0.5C-331.2,609.8-332.1,609.6-333,609.5L-333,609.5z"/>
	<path fill="#FFFFFF" d="M-345.5,609.4c0.7-0.1,1.4-0.2,2.1-0.2C-344,609.2-344.7,609.3-345.5,609.4L-345.5,609.4z"/>
	<path fill="#FFFFFF" d="M-339.6,609c1,0,1.9,0,2.9,0.1C-337.7,609.1-338.7,609-339.6,609L-339.6,609z"/>
	<path fill="#FFFFFF" d="M-321.3,612.8c0.8,0.3,1.5,0.7,2.2,1C-319.8,613.5-320.5,613.2-321.3,612.8L-321.3,612.8z"/>
	<path fill="#FFFFFF" d="M-335.9,609.2c0.7,0.1,1.4,0.1,2.1,0.2C-334.5,609.3-335.2,609.2-335.9,609.2L-335.9,609.2z"/>
	<path fill="#FFFFFF" d="M-326.8,610.9c0.7,0.2,1.4,0.4,2.1,0.7C-325.4,611.3-326.1,611.1-326.8,610.9L-326.8,610.9z"/>
	<path fill="#FFFFFF" d="M-311,619.1c0.6,0.5,1.3,1,1.9,1.6C-309.7,620.1-310.3,619.6-311,619.1L-311,619.1z"/>
	<path fill="#FFFFFF" d="M-313.4,617.3c0.7,0.5,1.3,0.9,1.9,1.4C-312.1,618.2-312.7,617.7-313.4,617.3L-313.4,617.3z"/>
	<path fill="#FFFFFF" d="M-316,615.5c0.8,0.5,1.6,1,2.4,1.5C-314.4,616.5-315.2,616-316,615.5L-316,615.5z"/>
	<path fill="#FFFFFF" d="M-349,610c0.9-0.2,1.8-0.3,2.8-0.5C-347.1,609.6-348.1,609.8-349,610L-349,610z"/>
	<path fill="#FFFFFF" d="M-354.5,611.5c0.7-0.2,1.4-0.5,2.1-0.7C-353.1,611.1-353.8,611.3-354.5,611.5L-354.5,611.5z"/>
	<path fill="#FFFFFF" d="M-357.7,612.7c0.9-0.4,1.7-0.7,2.6-1C-356,612-356.8,612.4-357.7,612.7L-357.7,612.7z"/>
	<path fill="#FFFFFF" d="M-330,610c0.8,0.2,1.7,0.4,2.5,0.6C-328.4,610.4-329.2,610.2-330,610L-330,610z"/>
	<path fill="#FFFFFF" d="M-318.4,614.2c0.7,0.4,1.4,0.7,2,1.1C-317.1,614.9-317.7,614.6-318.4,614.2L-318.4,614.2z"/>
	<path fill="#FFFFFF" d="M-351.7,610.6c0.8-0.2,1.6-0.4,2.5-0.6C-350,610.2-350.9,610.4-351.7,610.6L-351.7,610.6z"/>
	<path fill="none" stroke="#000000" stroke-width="2.0521" stroke-miterlimit="2.6131" d="M-307.4,655.1c0,17.8-14.4,32.2-32.2,32.2
		s-32.2-14.4-32.2-32.2s14.4-32.2,32.2-32.2C-321.8,622.8-307.4,637.3-307.4,655.1"/>
	<polygon fill="#CD3529" points="-368.9,623.4 -367.9,626.7 -364.3,626.7 -367.2,628.8 -366.1,632.1 -368.9,630.1 -371.8,632.1 
		-370.7,628.8 -373.6,626.7 -370,626.7 	"/>
	<polygon fill="#CD3529" points="-351,612.1 -349.9,615.4 -346.4,615.4 -349.2,617.5 -348.1,620.9 -351,618.8 -353.8,620.9 
		-352.8,617.5 -355.6,615.4 -352.1,615.4 	"/>
	<polygon fill="#CD3529" points="-378.2,642.4 -377.1,645.7 -373.6,645.7 -376.4,647.8 -375.3,651.1 -378.2,649.1 -381,651.1 
		-379.9,647.8 -382.8,645.7 -379.3,645.7 	"/>
	<polygon fill="#CD3529" points="-377.2,662.9 -376.1,666.2 -372.5,666.2 -375.4,668.3 -374.3,671.6 -377.2,669.6 -380,671.6 
		-378.9,668.3 -381.8,666.2 -378.2,666.2 	"/>
	<polygon fill="#CD3529" points="-366.4,679.3 -365.3,682.6 -361.8,682.6 -364.6,684.7 -363.5,688.1 -366.4,686 -369.2,688.1 
		-368.1,684.7 -371,682.6 -367.5,682.6 	"/>
	<polygon fill="#CD3529" points="-310.3,623.4 -311.4,626.7 -314.9,626.7 -312.1,628.8 -313.1,632.1 -310.3,630.1 -307.5,632.1 
		-308.5,628.8 -305.7,626.7 -309.2,626.7 	"/>
	<polygon fill="#CD3529" points="-328.3,612.1 -329.3,615.4 -332.9,615.4 -330,617.5 -331.1,620.9 -328.3,618.8 -325.4,620.9 
		-326.5,617.5 -323.6,615.4 -327.2,615.4 	"/>
	<polygon fill="#CD3529" points="-301.1,642.4 -302.2,645.7 -305.7,645.7 -302.8,647.8 -303.9,651.1 -301.1,649.1 -298.2,651.1 
		-299.3,647.8 -296.5,645.7 -300,645.7 	"/>
	<polygon fill="#CD3529" points="-302.1,662.9 -303.2,666.2 -306.7,666.2 -303.9,668.3 -304.9,671.6 -302.1,669.6 -299.2,671.6 
		-300.3,668.3 -297.5,666.2 -301,666.2 	"/>
	<polygon fill="#CD3529" points="-312.9,679.3 -314,682.6 -317.5,682.6 -314.6,684.7 -315.7,688.1 -312.9,686 -310,688.1 
		-311.1,684.7 -308.3,682.6 -311.8,682.6 	"/>
	<path d="M-353,763.5h0.2c1.7,0,2.1-0.9,2.1-1.5h1.4v8.7h-1.7v-6h-2.1L-353,763.5L-353,763.5z"/>
	<path d="M-345,764.9c0-1.3,0.8-1.5,1.2-1.5c0.9,0,1.3,0.6,1.3,1.6s-0.7,1.5-1.3,1.5C-344.3,766.5-345,766.2-345,764.9L-345,764.9z
		 M-346.5,768.7c0.1,1.4,1.2,2.3,2.7,2.3c1.6,0,3.2-1.1,3.2-4.5c0-1.2-0.1-4.5-3.1-4.5c-1.7,0-3,1-3,3.1c0,1.5,1,2.7,2.6,2.7
		c0.6,0,1.3-0.1,1.7-0.7l0,0c0,1.8-0.7,2.4-1.4,2.4c-0.5,0-0.9-0.3-1-0.9l0,0L-346.5,768.7L-346.5,768.7z"/>
	<path d="M-333.8,763.5c-0.8,0.9-3,3.5-3.2,7.3h-1.8c0.2-3.5,2.4-6.3,3.1-7.1h-4.3v-1.5h6.2L-333.8,763.5L-333.8,763.5z"/>
	<path d="M-328.9,767.9c0,1.2-0.6,1.7-1.2,1.7c-0.8,0-1.4-0.7-1.4-1.6c0-1.1,0.7-1.5,1.3-1.5C-329.6,766.5-328.9,766.8-328.9,767.9
		L-328.9,767.9z M-327.3,764.2c-0.2-0.9-0.3-1.2-0.8-1.6c-0.4-0.4-1.4-0.6-1.8-0.6c-3,0-3.2,2.9-3.2,4.6c0,2.2,0.5,4.4,3.2,4.4
		c1.7,0,2.9-1.3,2.9-3.2c0-1.3-0.9-2.7-2.7-2.7c-1,0-1.4,0.4-1.6,0.7l0,0c0.1-1.1,0.3-2.4,1.4-2.4c0.6,0,1,0.3,1,0.8L-327.3,764.2
		L-327.3,764.2z"/>
	<path fill="#CD3529" d="M-320,647.4c-0.3,0.8-0.6,1.2-1.3,1.9c-1,0.8-2.1,1.4-3.2,1.8c-1.1,0.4-2.2,0.5-3.2,0.3
		c-0.9-0.1-1.7-0.4-2.3-0.8c-0.6-0.4-1.2-1.1-1.6-1.8l14.6-6.9c-0.8-2.1-1.9-3.8-3.4-5.1c-1.5-1.3-3.1-2.1-5-2.3
		c-2.9-0.4-5.5,0.3-7.8,2c-2.3,1.7-3.6,4.1-4.1,7.1c-0.4,3.1,0.2,5.8,1.9,8.2c1.7,2.4,3.9,3.8,6.8,4.2c1.5,0.2,3,0.1,4.5-0.3
		s2.8-1.1,4-2c0,0,2.3-1.6,3.4-4.5L-320,647.4L-320,647.4z M-332.5,644.3c0-0.2,0-0.5,0.1-0.7c0.2-1.6,0.9-2.8,2.2-3.7
		c1.2-0.9,2.7-1.3,4.2-1.1c0.6,0.1,1.2,0.3,1.7,0.5c0.5,0.3,1,0.6,1.4,1.1l-9.6,4.7C-332.5,644.8-332.5,644.6-332.5,644.3
		L-332.5,644.3z"/>
	<path fill="#CD3529" d="M-319.4,659.2l-2.2,4.2c-1-0.6-1.8-1-2.5-1.3c-0.7-0.3-1.5-0.4-2.2-0.4c-1.6,0-3,0.6-4,1.7
		c-1,1.1-1.6,2.6-1.6,4.3c0,1.7,0.5,3.2,1.6,4.3c1.1,1.1,2.4,1.7,4,1.7c0.8,0,1.6-0.2,2.4-0.5c0.9-0.4,1.8-0.9,2.8-1.6l1.9,4.7
		c-1.1,0.8-2.3,1.3-3.6,1.8s-2.4,0.6-3.5,0.6c-3.1,0-5.7-1-7.7-3.1c-2.1-2.1-3.1-4.6-3.1-7.7s1-5.6,3.1-7.7c2.1-2.1,4.7-3.1,7.8-3.1
		c1,0,2.2,0.2,3.3,0.6C-321.8,657.9-320.6,658.5-319.4,659.2L-319.4,659.2z"/>
	<path d="M-339.2,637.1h-7.1v26.7c0,5.5-5.1,5.6-5.1,5.6c-6.4,0-5.8-5.6-5.8-5.6v-5.1h-7.1v7.1c0,0,0.8,10.7,12.7,10.7
		c0,0,12.3-0.1,12.3-10.7L-339.2,637.1L-339.2,637.1z"/>
	<path d="M-338.9,632.4c0,2.2-1.8,4.1-4.1,4.1c-2.2,0-4.1-1.8-4.1-4.1c0-2.2,1.8-4.1,4.1-4.1S-338.9,630.1-338.9,632.4L-338.9,632.4
		z"/>
	
		<path fill="none" stroke="#000000" stroke-width="1.0256" stroke-linecap="round" stroke-linejoin="round" stroke-miterlimit="2.6131" d="
		M-350.1,730.6c0,0,11.6-4.6,19-2.6c0,0-7.4,6.3-20,4.8 M-348.9,735.2c0,0,1.5-1.7,4.8-1.7c0,0,6.1,0.1,6.1,1.9c0,0-0.1,0.7-1.7,1.4
		c-0.5,0.2-1,0.5-2.2,1.4c-0.7,0.6-4.1,5.9-6.7,5.9 M-348.6,744.2h-0.8v-0.9 M-349.3,743.3c0,0,0.2-4.2,7.2-7.2 M-342.2,736.1h-4.1
		 M-346.2,736.1c0,0,1.7,0.3,2.4,0.8 M-340.3,728c0,0,3.1-1.9,3.6-5.4c0,0-12,2.4-20.9,13.2c0,0-0.9,1.2-0.9,2.3
		c0,0-0.1,3.5,4.2,4.2 M-355.3,743.3c0,0,2.2-3.1,5.6-3.1c0,0,1.3,0.1,1.7,0.5 M-355.8,733.9c0,0-4.3-0.1-9.3,5.2
		c0,0-0.8,0.8-0.8,1.3c0,0,0,0.9,1,0.9c0,0,0.8-0.1,1.4-0.6c0.6-0.6,3.6-4.1,5.9-4.8 M-342.5,739c1-1,3.2-0.9,3.2-0.9
		c3.2,0,6.8,4.2,6.8,4.2 M-332.5,742.3h3.8 M-328.7,742.3c0,0-0.3,2.2-1.4,3.1c0,0,1.3-0.3,1.7-1.2c0,0,1.8,0.1,2.6,0.5
		c0.8,0.4,2.1,1,4.2,0.4c2.2-0.6,4.1-0.1,5.4,0.9c1.3,1,1.9,2.4,1.9,3.5c0,0-6.4-2.8-10.9-2.8c0,0-3.7-0.1-5.5,1.3
		c-2.1,1.6-3.8,2.8-6.7,1.7c-2.8-1.2-6.2-0.5-8.1,0.6c-1.9,1.2-2.9,1.5-5.5,0.4c-2.6-1.2-9.9,0.1-10.8,0.8c0,0,2.3-4.1,6.2-4.1
		s5.1,1.2,5.1,1.2s1.9,1.2,2.6,1.2c0,0,3.1-4.7,6.3-6.5 M-345.3,742.3c0,0,0.2,2.8,2.2,1.8 M-355.5,738.4c0,0,0.9-0.8,1.8-0.9"/>
</g>
</svg>
