<?xml version="1.0" encoding="utf-8"?>
<!-- Generator: Adobe Illustrator 19.1.0, SVG Export Plug-In . SVG Version: 6.00 Build 0)  -->
<svg version="1.1" id="Layer_1" xmlns="http://www.w3.org/2000/svg" xmlns:xlink="http://www.w3.org/1999/xlink" x="0px" y="0px"
	 viewBox="-417.5 618.1 175.7 175.7" enable-background="new -417.5 618.1 175.7 175.7" xml:space="preserve">
<g>
	<path fill="#3F7249" d="M-417.5,793.8L-417.5,793.8L-417.5,793.8L-417.5,793.8z M-329.6,793.7c48.4,0,87.8-39.5,87.8-87.8
		s-39.5-87.8-87.8-87.8c-48.4,0-87.8,39.5-87.8,87.8C-417.4,754.3-378,793.7-329.6,793.7L-329.6,793.7z"/>
	<path fill="#FFFFFF" d="M-329.6,790.9c-23.4,0-44.6-9.6-60-25c-15.4-15.4-24.9-36.7-24.9-60c0-23.4,9.6-44.6,24.9-60
		c15.5-15.4,36.7-25,60-25c23.4,0,44.7,9.6,60,25c15.4,15.4,25,36.7,25,60c0,23.4-9.6,44.6-25,60
		C-284.9,781.3-306.2,790.9-329.6,790.9L-329.6,790.9z"/>
	<path fill="#3F7249" d="M-329.6,789.1c22.9,0,43.7-9.4,58.8-24.5c15-15,24.4-35.9,24.4-58.8c0-22.8-9.4-43.7-24.4-58.7
		c-15.1-15.1-35.9-24.5-58.8-24.5c-22.8,0-43.6,9.4-58.7,24.5c-15.1,15-24.5,35.9-24.5,58.7c0,22.9,9.4,43.7,24.5,58.8
		C-373.2,779.7-352.4,789.1-329.6,789.1L-329.6,789.1z"/>
	<polygon fill="#FFFFFF" points="-374.5,646.3 -375.5,648.7 -373.6,650.4 -376.2,650.1 -377.3,652.5 -377.8,649.9 -380.3,649.7 
		-378.1,648.4 -378.7,645.8 -376.7,647.6 	"/>
	<polygon fill="#FFFFFF" points="-380.3,653.3 -381.3,656.4 -378.5,658.3 -381.9,658.4 -382.7,661.5 -383.9,658.5 -387.2,658.6 
		-384.6,656.6 -385.7,653.4 -383,655.3 	"/>
	<polygon fill="#FFFFFF" points="-386.6,663.5 -386.7,667.5 -382.9,668.8 -386.8,670 -386.8,673.9 -389.2,670.7 -392.9,671.8 
		-390.6,668.7 -392.9,665.3 -389,666.7 	"/>
	<polygon fill="#FFFFFF" points="-391.1,676.2 -390,682 -384.2,682.8 -389.4,685.6 -388.4,691.4 -392.6,687.3 -397.8,690.1 
		-395.3,684.8 -399.5,680.7 -393.6,681.5 	"/>
	<polygon fill="#FFFFFF" points="-284.7,646.3 -283.6,648.7 -285.6,650.4 -282.9,650.1 -281.9,652.5 -281.3,649.9 -278.8,649.7 
		-281,648.4 -280.4,645.8 -282.4,647.6 	"/>
	<polygon fill="#FFFFFF" points="-278.8,653.3 -277.9,656.4 -280.6,658.3 -277.3,658.4 -276.4,661.5 -275.3,658.5 -272,658.6 
		-274.6,656.6 -273.4,653.4 -276.2,655.3 	"/>
	<polygon fill="#FFFFFF" points="-272.5,663.5 -272.5,667.5 -276.2,668.8 -272.4,670 -272.4,673.9 -270,670.7 -266.2,671.8 
		-268.6,668.7 -266.3,665.3 -270.1,666.7 	"/>
	<polygon fill="#FFFFFF" points="-268.1,676.2 -269.1,682 -275,682.8 -269.7,685.6 -270.8,691.4 -266.5,687.3 -261.3,690.1 
		-263.9,684.8 -259.6,680.7 -265.5,681.5 	"/>
	<path fill="#FFFFFF" d="M-358.6,718c-0.2-0.1-0.5-0.1-0.7,0.1l-27.9,37c-0.3,0.5-0.2,1.1,0.1,1.5c4.8,5.2,9.7,9.7,15.4,13.7
		c0.4,0.2,1,0.8,1.3,0.1l3-7c0.2-0.4,0-1-0.3-1.2c-3-2-5.5-4.3-8.1-6.7c-0.4-0.4-0.3-1.2,0-1.7l22-31.9c0.1-0.1,0-0.4-0.2-0.5
		C-355.6,720.2-357.2,719.2-358.6,718L-358.6,718z"/>
	<path fill="#FFFFFF" d="M-332.6,783.2c0.4,0,0.4-0.3,0.4-0.5l0.4-54.1c0-0.2-0.2-0.4-0.4-0.4c-1.3,0-2.7-0.2-4.1-0.4
		c-0.2-0.1-0.4,0-0.5,0.3l-6.5,15c-0.2,0.4-0.3,0.3-0.4-0.1l-0.5-16.9c0-0.2-0.1-0.4-0.2-0.4c-1.6-0.6-3.2-1.2-4.7-2
		c-0.1-0.1-0.4-0.1-0.5,0.2l-19.6,47.2c-0.1,0.2,0,0.5,0.2,0.6c1.9,1.2,3.8,2.3,5.8,3.3c0.2,0.1,0.7,0.2,0.8-0.2l12.1-33.8
		c0.1-0.4,0.2-0.5,0.2,0.1l0.5,28.7c0,1.5,0.1,1.5,0.8,0.1l11.5-25.5c0.1-0.3,0.2-0.3,0.2,0.1l-3,37.3c0,0.2,0.2,0.5,0.5,0.6
		C-337.3,782.9-335,783.1-332.6,783.2L-332.6,783.2z"/>
	<path fill="#FFFFFF" d="M-313,731.7c-2.4,0.8-5.1,1.4-8.9,2.1c-0.2,0-0.4,0.3-0.4,0.5l0.3,14.2c0,0.2,0.2,0.6,0.6,0.5
		c3.5-0.5,7-1.2,10.5-1.9c0.5-0.1,0.6,0,0.8,0.6l0.9,5.6c0.1,0.3,0.1,0.7-0.3,0.8c-3.8,0.9-7.7,1.7-11.7,2.3
		c-0.3,0.1-0.6,0.2-0.6,0.7l0.4,14.7c0,0.8,0.5,1.2,0.9,1.1c4.5-0.3,9-1.5,13.3-2.6c0.3,0,0.7-0.2,0.8,0.5l1.2,7.7
		c0.1,0.4-0.3,0.8-0.8,0.9c-7.3,2.3-14.3,3.6-22.3,3.8c-0.6,0-1-0.2-1-0.7l0.4-53.7c0-0.3,0.5-0.5,0.9-0.5c5.1-0.3,9.5-1,13.9-2.7
		c0.5-0.2,0.7-0.1,0.7,0.1l0.9,5.4C-312.5,731.5-312.7,731.6-313,731.7L-313,731.7z"/>
	<path fill="#FFFFFF" d="M-301.5,777.8c-0.2,0-0.5,0-0.5-0.2l-9.7-52.7c0-0.1,0-0.2,0.2-0.2c1.5-0.6,2.9-1.4,4.3-2.2
		c0.1-0.1,0.4-0.1,0.4,0l13.4,50.8c0.1,0.4,0.1,0.6-0.1,0.7C-296.2,775.4-298.7,776.6-301.5,777.8L-301.5,777.8z"/>
	<path fill="#FFFFFF" d="M-259.4,709.2c-0.4,1.7-0.8,3.4-1.3,5c-0.1,0.1-0.2,0.4-0.5,0.3l-1.2-0.6c-0.2-0.1-0.4,0.1-0.5,0.2
		l-1.8,4.5c-0.1,0.3-0.1,0.6,0.3,0.9l8.1,5.4c0.3,0.2,0.8,0.2,1-0.5c1.6-6.5,2.3-13,2.2-19.6c0-0.3-0.1-0.6-0.5-0.7l-13.4-4.6
		c-0.5-0.2-1.3-0.2-1.7,0.5c-1.2,2.3-2.3,4.1-3.3,5.8c-0.2,0.2-0.5,0.5-0.9,0.3l-6.6-3.2c-0.3-0.2-0.5-0.3-0.3-0.9l1.1-2.3
		c0.1-0.3,0.5-0.2,0.8-0.1l2.3,0.9c0.2,0.1,0.5,0.1,0.6-0.2l1-2.8c0.1-0.2-0.2-0.5-0.5-0.6l-8.8-3c-0.3-0.1-0.6,0.1-0.7,0.4
		c-1,3-2.2,5.8-3.7,8.7c-0.3,0.5,0,0.9,0.2,1.2l16.7,11.2c0.3,0.2,0.8,0.2,1.1-0.4c1.7-2.7,3.2-5.4,4.8-8.1c0.1-0.2,0.3-0.4,0.7-0.2
		l4.6,2C-259.5,708.5-259.3,708.8-259.4,709.2L-259.4,709.2z"/>
	<path fill="#FFFFFF" d="M-401.5,731.8c-0.1-0.3,0.2-0.6,0.5-0.8l33.7-21.3c0.2-0.1,0.5,0,0.6,0.1c1,1.2,2,2.3,3,3.5
		c0.1,0.2,0.3,0.5,0.2,0.8l-24.6,40.4c-0.2,0.2-0.8,0-0.9-0.2c-1-1.3-2-2.5-2.8-3.9c-0.2-0.2-0.1-0.6,0-0.9l5.8-9.3
		c0.3-0.5,0.3-0.8,0.1-1.3c-1-2.6-1.9-5.2-2.7-7.8c0-0.2-0.6-0.3-0.8-0.2l-9.2,6.2c-0.2,0.1-0.7,0-0.8-0.2
		C-400.2,735.2-400.9,733.5-401.5,731.8L-401.5,731.8z M-374,720.5l-9.6,6.4c-0.2,0.1-0.4,0.5-0.2,0.8c0.5,1.7,1,3.2,1.6,4.7
		c0.1,0.4,0.5,0.6,0.7,0.2L-374,720.5C-373.9,720.5-373.9,720.5-374,720.5L-374,720.5z"/>
	<path fill="#FFFFFF" d="M-272.3,757c-0.2,0.2-0.5,0.4-0.7,0.1l-14.9-18c-0.1-0.2-0.4-0.4-0.6-0.2l-2.6,1.8
		c-0.2,0.2-0.5,0.4-0.4,0.9l9.2,24.4c0.1,0.3,0,0.5-0.2,0.6c-2.4,1.9-4.8,3.6-7.4,5.2c-0.2,0.1-0.5,0.2-0.5-0.1l-14.6-50.3l0.3-0.4
		c3.8-2.5,6.6-4.6,9.6-8c1.1-1.2,2.4-0.4,2.9,0.5l9.8,16.1c0.9,1.5,0.9,3.6-0.2,4.9l-0.3,0.3l14.6,16.3c0.3,0.3,0.2,0.6,0,0.8
		C-269.5,753.6-270.8,755.2-272.3,757L-272.3,757z M-290.3,730.4l-4-7.9c-0.1-0.3-0.4-0.4-0.6-0.2c-0.9,0.6-1.8,1.3-2.7,1.9
		c-0.1,0.1-0.1,0.2,0,0.4l3.3,8.9c0.1,0.1,0.2,0.2,0.4,0.1l3.5-2.5C-290.3,730.9-290.1,730.7-290.3,730.4L-290.3,730.4z"/>
	<path fill="#FFFFFF" d="M-257.9,732.5c0,0.2-0.2,0.4-0.4,0.2l-8-5.5c-0.2,0-0.4,0-0.5,0.1l-3.3,8.4c-0.1,0.2,0,0.5,0.1,0.6l5.5,9.2
		c0.1,0.2,0.1,0.4,0.1,0.5c-1,1.6-2,3.1-3,4.6c-0.1,0.1-0.3,0.2-0.4,0l-24.5-40.7c-0.1-0.2-0.1-0.3,0-0.5c1-1.3,2-2.7,2.9-4.1
		c0-0.1,0.2-0.2,0.4-0.1l32.8,21.1c0.1,0.1,0.2,0.3,0.2,0.5C-256.6,728.8-257.2,730.7-257.9,732.5L-257.9,732.5z M-272.4,723.2
		l-9-6.1c-0.3-0.2-0.4-0.2-0.2,0.2l7,11.7c0.1,0.2,0.4,0.6,0.6,0s1.4-3.4,1.9-5.1C-271.9,723.6-272.2,723.3-272.4,723.2
		L-272.4,723.2z"/>
	<path fill="#FFFFFF" d="M-386.6,719c-2.6-3.3-4.8-6.9-7-10.9c-0.2-0.4-0.5-0.4-0.8-0.3l-10.7,3.6c-0.6,0.2-0.8-0.2-0.8-0.5
		c-0.2-2.5-0.2-5-0.2-7.4c0-0.6,0.3-0.8,0.6-0.9l30.6-6c0.4-0.1,0.6,0.1,0.7,0.3c1.5,3.7,3.3,6.9,5.4,10.2c0.2,0.2,0,0.6-0.2,0.8
		l-16.7,11.4C-385.9,719.4-386.2,719.4-386.6,719L-386.6,719z M-376.8,706.9c-0.9-1.4-1.8-2.7-2.6-4.1c-0.1-0.1-0.2-0.1-0.3,0
		l-7.9,2.7c-0.4,0-0.3,0.3-0.2,0.4c1,2,2.2,3.8,3.5,5.5c0.2,0.2,0.6,0.4,0.8,0.2l6.7-4.5C-376.7,707.1-376.7,706.9-376.8,706.9
		L-376.8,706.9z"/>
	<path fill="#FFFFFF" d="M-329.6,721.2c24.5,0,44.5-20,44.5-44.5s-20-44.6-44.5-44.6s-44.5,20.1-44.5,44.6
		C-374.1,701.3-354.1,721.2-329.6,721.2L-329.6,721.2z"/>
	<path fill="#3F7249" d="M-329.6,719.4c-11.7,0-22.4-4.8-30.2-12.6c-7.8-7.7-12.5-18.4-12.5-30.2c0-23.6,19.2-42.8,42.7-42.8
		c11.7,0,22.4,4.8,30.2,12.6c7.8,7.8,12.6,18.4,12.6,30.2C-286.9,700.3-306.1,719.4-329.6,719.4L-329.6,719.4z"/>
	<path fill="#FFFFFF" d="M-342,643.1c4.6-2.7,8.2-5.6,10.8-7.9c-12.1,0.5-22.8,6.2-30.2,14.9C-354.9,649.1-348.4,646.8-342,643.1
		L-342,643.1z"/>
	<path fill="#FFFFFF" d="M-317.2,643.1c6.4,3.7,12.9,6,19.4,6.9c-0.8-0.9-1.6-1.8-2.4-2.6c-7.2-7.2-16.9-11.8-27.7-12.2
		C-325.4,637.5-321.7,640.4-317.2,643.1L-317.2,643.1z"/>
	<path fill="#FFFFFF" d="M-355.9,688.7c-5.9-12-8.9-25.2-8-35.3c-4.5,6.6-7.2,14.7-7.2,23.3c0,11.5,4.6,21.8,12.2,29.3
		c7.1,7.1,16.7,11.7,27.3,12.2C-344.3,708.8-351.8,697.1-355.9,688.7L-355.9,688.7z"/>
	<path fill="#FFFFFF" d="M-295.2,653.5c0.8,10-2.2,23.2-8.1,35.2c-5.8,11.9-14.2,22-24.4,29.5c21.9-1,39.5-19.2,39.5-41.5
		C-288.1,668.1-290.7,660.1-295.2,653.5L-295.2,653.5z"/>
	<path fill="#FFFFFF" d="M-329.6,718c11.5-8.1,19.7-18.9,25.2-29.9c6.7-13.6,9.1-27.4,7.7-36.5c-8.3-1-15.4-4-21-7.3
		c-5.4-3.2-9.5-6.6-11.8-8.8c-2.3,2.2-6.3,5.6-11.7,8.8c-5.6,3.3-12.8,6.3-21.1,7.3c-1.3,9.2,1,23,7.7,36.6
		C-349.3,699.1-341,709.9-329.6,718L-329.6,718z"/>
	<path fill="#3F7249" d="M-329.6,716.5c-1.1-0.8-2.2-1.6-3.3-2.5c-9-7.1-15.7-16.3-20.5-25.7c-5.6-11.2-8.3-22.7-8.5-31.4
		c0-1.5,0-3.1,0.2-4.6c2.2-0.2,4.3-0.6,6.5-1.2c3.7-0.9,7.1-2.2,10.3-3.7c4.9-2.4,8.9-5.2,11.7-7.4c1.3-1.1,2.5-2.1,3.6-3.3
		c1.1,1.1,2.3,2.2,3.6,3.2c2.8,2.3,6.8,5.1,11.8,7.4c3.5,1.7,7.5,3.2,11.8,4.1c1.6,0.4,3.3,0.6,5,0.8c0.1,1.5,0.2,2.9,0.2,4.3
		c-0.1,8.7-2.8,20.3-8.5,31.7c-4.7,9.4-11.5,18.6-20.6,25.8C-327.4,714.9-328.5,715.7-329.6,716.5L-329.6,716.5z"/>
	<path fill="#FFFFFF" d="M-324.8,642.5c-2.1-1.6-3.7-3-4.8-4c-1,1-2.6,2.4-4.7,4H-324.8L-324.8,642.5z"/>
	<path fill="#FFFFFF" d="M-317.1,647.3c-2.2-1.2-4.2-2.4-6-3.6h-13c-1.7,1.2-3.8,2.4-6,3.6H-317.1L-317.1,647.3z"/>
	<path fill="#FFFFFF" d="M-304.8,652.2c-3.6-0.9-6.9-2.2-9.9-3.7h-29.8c-3,1.5-6.4,2.7-9.9,3.7H-304.8L-304.8,652.2z"/>
	<path fill="#FFFFFF" d="M-298.5,657.2c0-1.3,0-2.5-0.1-3.7h-61.9c-0.1,1.2-0.1,2.4-0.1,3.7H-298.5L-298.5,657.2z"/>
	<path fill="#FFFFFF" d="M-298.9,662.1c0.1-1.2,0.2-2.4,0.3-3.7h-62c0.1,1.2,0.2,2.4,0.4,3.7H-298.9L-298.9,662.1z"/>
	<path fill="#FFFFFF" d="M-299.7,667c0.3-1.2,0.5-2.4,0.6-3.6h-61.1c0.2,1.2,0.4,2.4,0.6,3.6H-299.7L-299.7,667z"/>
	<path fill="#FFFFFF" d="M-300.8,671.8c0.3-1.2,0.6-2.4,0.9-3.7h-59.4c0.3,1.2,0.6,2.4,0.9,3.7H-300.8L-300.8,671.8z"/>
	<path fill="#FFFFFF" d="M-302.3,676.7c0.4-1.2,0.8-2.4,1.2-3.7H-358c0.4,1.2,0.7,2.4,1.1,3.7H-302.3L-302.3,676.7z"/>
	<path fill="#FFFFFF" d="M-304.1,681.7c0.5-1.3,0.9-2.5,1.4-3.7h-53.7c0.4,1.2,0.9,2.4,1.4,3.7H-304.1L-304.1,681.7z"/>
	<path fill="#FFFFFF" d="M-306.3,686.6c0.6-1.2,1.2-2.4,1.7-3.7h-49.9c0.5,1.2,1,2.4,1.6,3.7H-306.3L-306.3,686.6z"/>
	<path fill="#FFFFFF" d="M-308.9,691.5c0.7-1.2,1.3-2.4,2-3.7h-45.3c0.6,1.2,1.3,2.4,1.9,3.7H-308.9L-308.9,691.5z"/>
	<path fill="#FFFFFF" d="M-311.9,696.4c0.8-1.2,1.6-2.4,2.3-3.7h-39.9c0.7,1.2,1.4,2.4,2.3,3.7H-311.9L-311.9,696.4z"/>
	<path fill="#FFFFFF" d="M-315.4,701.3c0.9-1.2,1.8-2.4,2.7-3.7h-33.7c0.9,1.3,1.7,2.4,2.7,3.7H-315.4L-315.4,701.3z"/>
	<path fill="#FFFFFF" d="M-319.6,706.1c1.1-1.1,2.2-2.3,3.2-3.6h-26.4c1,1.3,2.1,2.5,3.2,3.6H-319.6L-319.6,706.1z"/>
	<path fill="#FFFFFF" d="M-324.6,711c1.4-1.2,2.6-2.4,3.8-3.6h-17.6c1.2,1.2,2.5,2.5,3.9,3.6H-324.6L-324.6,711z"/>
	<path fill="#FFFFFF" d="M-329.6,714.9c1.2-0.9,2.4-1.8,3.5-2.7h-7C-331.9,713.2-330.8,714.1-329.6,714.9L-329.6,714.9z"/>
	<path fill="#3F7249" d="M-345.9,696.4c1.8,0,3.8,0.1,4.9-1.6c0.6-0.9,0.6-1.9,0.6-2.2v-20.8c0-0.2-0.2-0.6-0.5-0.9
		c-0.7-0.6-2.2-1.2-3.1-1.3c0.9-0.2,2.4-0.7,3.2-1.3c0.3-0.3,0.5-0.6,0.5-0.8v-12.7c0-0.4-0.1-0.7-0.2-1c-0.2-0.5-0.6-0.8-1-1.1
		c-1.2-0.6-3.1-0.4-4.2-0.1c0.1-0.5,0.6-1.5,0.8-1.8c1.4-2.5,3.2-3,4.9-2.8c1.6,0.2,3,1.1,4,1.8c1.5-1.4,3.2-2.4,4.9-3.2
		c2.4-0.9,4.8-1.3,6.6-1.3c4.3,0,8.3,1.9,11.1,4.8c3,3,4.8,7,4.8,11.3c0,3.8-1.9,8.2-5.1,11.4c-2.8,2.9-6.5,5-10.6,5.1
		c-2.1,0-4.2-0.5-5.7-1.6c-1.4-1-2.4-2.5-2.4-4.3c0-0.2,0-0.5,0.1-0.7c0-1.4,0.5-2.7,1.4-3.6c0.9-0.9,2.1-1.6,3.8-1.6
		c0.2,0,0.3,0,0.6,0l0,0c1.2,0.1,2.2,0.4,2.7,0.9c0.8,0.7,1,1.6,1,2.4c0,1.5-0.9,3-2.5,3.1c0.3,0.1,0.6,0.2,1.1,0.2
		c2.6,0,6.1-2.4,6.6-5.1c0.2-1,0-1.9-0.3-2.9c-0.3-0.8-0.5-1.6-0.5-2.5c-0.1-1.5,0.4-2.3,0.8-3.2c0.5-0.9,0.9-1.7,0.3-3.4
		c-0.6-1.6-1.6-3-3-4c-1.3-0.9-2.9-1.4-4.9-1.4c-1.6,0-3.4,0.8-4.8,2c-1.3,1.1-2.3,2.5-2.3,3.8v45.3c-1.4-0.4-2.7-0.8-3.8-1.9
		c-0.6-0.5-1-1.2-1.3-1.9c-0.9,0.8-1.9,1.3-3,1.4C-342.4,699.6-345.2,698.2-345.9,696.4L-345.9,696.4z"/>
	<path fill="#FFFFFF" d="M-343.3,697.4c1,0.6,1.9,0.9,2.7,0.9c1.6-0.1,3.1-1.6,3.7-2.5c0,0.9,0.5,2.4,1.5,3.4
		c0.5,0.5,1.1,0.8,1.8,1.1v-43.7c0-1.7,1.2-3.5,2.7-4.8c1.6-1.4,3.8-2.4,5.6-2.3c2.3,0,4.2,0.6,5.6,1.6c1.6,1.2,2.7,2.8,3.4,4.6
		c0.8,2.1,0.2,3.1-0.4,4.3c-0.3,0.7-0.7,1.4-0.6,2.6c0,0.8,0.2,1.5,0.5,2.2c0.4,1.1,0.7,2.2,0.4,3.6c-0.7,3.2-4.6,6-7.9,6
		c-0.9-0.1-1.6-0.4-2.2-0.7c-1.4-1-1.6-2.4-1.3-3.4c0.2,0.4,1,1.1,1.7,1.3l0,0c0.2,0.1,0.4,0.1,0.6,0.1c1.1,0,1.5-0.9,1.5-1.9
		c0-0.6-0.1-1.1-0.6-1.5c-0.4-0.3-1-0.6-2-0.6l0,0l0,0l0,0c-0.2,0-0.4,0-0.5,0c-1.4,0-2.3,0.5-2.9,1.2c-0.7,0.8-1.1,1.8-1.1,2.9
		c-0.1,0.2-0.1,0.4-0.1,0.6c0,1.4,0.8,2.5,1.8,3.3c1.4,0.9,3.2,1.4,5.1,1.4c3.7-0.1,7.2-2,9.7-4.7c2.9-3,4.7-7.1,4.7-10.5
		c0-4-1.7-7.7-4.4-10.5c-2.6-2.7-6.3-4.4-10.3-4.4c-1.8,0-4,0.3-6.2,1.2c-1.7,0.7-3.4,1.8-4.9,3.2l-0.4,0.4l-0.4-0.3
		c-0.9-0.6-2.4-1.8-4-2c-1.2-0.1-2.4,0.3-3.4,1.9c0.9-0.1,1.9,0.1,2.7,0.5c0.7,0.4,1.3,0.9,1.6,1.6c0.2,0.5,0.4,0.9,0.4,1.5v12.7
		c0,0.6-0.3,1.2-0.9,1.7c-0.2,0.1-0.4,0.2-0.5,0.4c0.2,0.1,0.4,0.2,0.5,0.4c0.6,0.6,0.9,1.3,0.9,1.8v20.8c0,0.4-0.1,1.6-0.8,2.8
		C-340.5,696.4-341.5,697.2-343.3,697.4L-343.3,697.4z"/>
</g>
</svg>
