<?xml version="1.0" encoding="utf-8"?>
<!-- Generator: Adobe Illustrator 19.1.0, SVG Export Plug-In . SVG Version: 6.00 Build 0)  -->
<svg version="1.1" id="Layer_1" xmlns="http://www.w3.org/2000/svg" xmlns:xlink="http://www.w3.org/1999/xlink" x="0px" y="0px"
	 viewBox="-417.6 624.4 176.1 169.6" enable-background="new -417.6 624.4 176.1 169.6" xml:space="preserve">
<g>
	<path d="M-417.5,794L-417.5,794L-417.5,794L-417.5,794z M-329.6,793.9l-3.3-3.4l-1.8-1.5l-2-1.4l-2.2-1.3l-2.4-1.2l-2.5-1.2
		l-2.7-1.1l-2.8-1.1l-2.9-1l-3-0.9l-3.1-0.9l-3.1-0.9l-3.2-0.9l-3.3-1l-3.2-0.9l-3.3-1l-3.3-1.1l-3.2-1.1l-3.2-1.2l-3.2-1.3
		l-3.1-1.4l-3-1.6l-2.9-1.7l-2.9-1.9l-2.7-2l-2.6-2.2l-2.4-2.4l-2.2-2.6l-2.1-2.8l-1.8-3.1l-1.6-3.4l-1.3-3.6l-0.7-2.4l-0.5-2.4
		l-0.4-2.4l-0.1-2.3l0.1-2.4l0.2-2.2l0.3-2.3l0.5-2.2l0.6-2.2l0.7-2.1l0.8-2.1l0.8-2.1l1-2l1-2l1-1.9l1.1-2l1-1.9l1.1-1.9l1.1-1.9
		l1.1-1.9l1.1-1.9l1.1-1.9l1.1-1.8l1-1.8l1-1.8l0.9-1.8l0.8-1.8l0.7-1.8l0.7-1.7l0.5-1.8l0.4-1.8l0.3-1.8l0.1-0.8l0.1-0.8l0.1-0.8
		v-0.8v-0.8v-0.8l-0.1-0.8l-0.1-0.8l-0.1-0.8l-0.1-0.8l-0.1-0.8l-0.2-0.8l-0.2-0.8l-0.2-0.8l-0.3-0.8l-0.2-0.8l-0.3-0.8l-0.3-0.8
		l-0.3-0.8l-0.3-0.8l-0.4-0.7l-0.3-0.8l-0.4-0.8l-0.4-0.8l-0.4-0.7l-0.5-0.7l-0.4-0.7l-0.5-0.7l-0.5-0.7l-0.5-0.7l-0.5-0.7l-2-2.3
		l26.4-25.8l2.9,1.5l1.4,0.6l1.4,0.7l1.4,0.6l1.4,0.6l1.4,0.6l1.5,0.6l1.4,0.6l1.5,0.5l1.4,0.5l1.5,0.5l1.5,0.5l1.5,0.5l1.5,0.4
		l1.5,0.4l1.5,0.4l1.5,0.3l1.5,0.4l1.5,0.3l1.5,0.3l1.5,0.2l1.5,0.3l1.5,0.2l1.5,0.2l1.6,0.2l1.6,0.2l1.5,0.1l1.6,0.1l1.5,0.1h1.6
		l1.5,0.1h1.6h1.5l1.5-0.1h1.6l1.5-0.1l1.5-0.1l1.6-0.1l1.6-0.2l1.5-0.2l1.5-0.2l1.6-0.2l1.5-0.3l1.6-0.2l1.5-0.3l1.5-0.3l1.6-0.4
		l1.5-0.3l1.5-0.4l1.5-0.4l1.5-0.4l1.5-0.5l1.5-0.5l1.5-0.5l1.4-0.5l1.5-0.5l1.4-0.6l1.5-0.6l1.4-0.6l1.4-0.6l1.4-0.6l1.4-0.7
		l1.4-0.6l2.9-1.5l26.3,25.8l-2,2.3l-0.6,0.7l-0.5,0.7l-0.5,0.7l-0.5,0.7l-0.5,0.7l-0.5,0.7l-0.4,0.7l-0.4,0.8l-0.4,0.8l-0.3,0.8
		l-0.4,0.7l-0.3,0.8l-0.3,0.8l-0.3,0.8l-0.3,0.8l-0.3,0.8l-0.2,0.8l-0.2,0.8l-0.2,0.8l-0.2,0.8l-0.1,0.8l-0.1,0.8l-0.1,0.8l-0.1,0.8
		v0.8v0.8v0.8v0.8v0.8l0.1,0.8l0.1,0.8l0.3,1.8l0.4,1.8l0.5,1.8l0.6,1.7l0.7,1.8l0.8,1.8l0.9,1.8l0.9,1.8l1,1.8l1.1,1.8l1.1,1.9
		l1.1,1.9l1.1,1.9l1.1,1.9l1.1,1.9l1,1.9l1.1,2l1,1.9l1,2l1,2l0.8,2.1l0.8,2.1l0.6,2.1l0.6,2.2l0.5,2.2l0.3,2.3l0.2,2.2l0.1,2.4
		l-0.1,2.3l-0.4,2.4l-0.5,2.4l-0.7,2.4l-1.3,3.6l-1.6,3.4l-1.8,3.1l-2.1,2.8l-2.1,2.6l-2.4,2.4l-2.6,2.2l-2.7,2l-2.8,1.9l-3,1.7
		l-3,1.6l-3.1,1.4l-3.2,1.3l-3.2,1.2l-3.2,1.1l-3.3,1.1l-3.3,1l-3.2,0.9l-3.2,1l-3.2,0.9l-3.5,0.8l-3.1,0.9l-3,0.9l-2.9,1l-2.8,1.1
		l-2.7,1.1l-2.5,1.2l-2.4,1.2l-2.2,1.3l-2,1.4l-1.8,1.5L-329.6,793.9L-329.6,793.9L-329.6,793.9z"/>
	<path fill="#FFFFFF" d="M-335.7,784.1l-1.5-0.9l-2.5-1.3l-2.7-1.2l-2.8-1.1l-2.9-1.1l-1.2-0.4v-54.9l13.6-10.2L-335.7,784.1
		L-335.7,784.1L-335.7,784.1z M-363.2,733.6v40.2l-0.4-0.1l-3.3-1l-3.2-0.9l-3.2-1l-2.3-0.8v-27L-363.2,733.6L-363.2,733.6
		L-363.2,733.6z M-389,753v11.8l-2.8-1.5l-2.8-1.6l-2.7-1.8l-0.6-0.4L-389,753L-389,753L-389,753z M-413.6,725.5l0.1-0.6l0.5-2
		l0.5-2l0.6-2l0.8-1.9l0.8-1.9l0.9-1.9l1-1.9l1-1.9l1-1.9l1.1-1.9l1.1-1.9l1.1-1.9l1.1-1.8l1.1-1.9l1.1-1.9l1.1-1.9l1-1.8l1-1.9
		l1-1.9l0.8-1.9l0.8-1.9l0.6-2l0.6-1.9l0.5-1.9l0.3-2l0.1-0.9v-0.9l0.1-0.9l0.1-0.9v-1l-0.1-0.9l-0.1-0.8v-0.9l-0.1-0.9l-0.1-0.9
		l-0.2-0.9l-0.2-0.9l-0.2-0.9l-0.2-0.8l-0.2-0.9l-0.3-0.9l-0.3-0.9l-0.3-0.8l-0.3-0.9l-0.4-0.8l-0.3-0.8l-0.5-0.9l-0.4-0.8l-0.4-0.8
		l-0.5-0.8l-0.5-0.8l-0.5-0.8l-0.5-0.8l-0.6-0.8l-0.6-0.8l-0.5-0.6l22.2-21.8l0.7,0.3l1.4,0.7l1.4,0.7l1.5,0.7l1.5,0.6l1.5,0.6
		l1.5,0.6l1.4,0.6l1.5,0.5l1.6,0.5l1.5,0.5l1.5,0.5l1.5,0.5l1.5,0.4l1.6,0.5l1.5,0.3l1.6,0.4l1.5,0.3l1.6,0.4l1.6,0.3l1.6,0.3
		l1.5,0.3l1.6,0.2l1.6,0.2l1.6,0.2l1.6,0.2l1.6,0.1l1.6,0.1l1.6,0.1l1.6,0.1h1.6h1.6h1.6h1.6l1.6-0.1l1.6-0.1l1.6-0.1l1.6-0.1
		l1.6-0.2l1.6-0.2l1.6-0.2l1.6-0.2l1.6-0.3l1.6-0.3l1.6-0.3l1.6-0.4l1.5-0.3l1.6-0.4l1.5-0.3l1.6-0.5l1.5-0.4l1.5-0.5l1.5-0.5
		l1.5-0.5l1.5-0.5l1.5-0.5l1.5-0.6l1.5-0.6l0.5-0.2L-413.6,725.5L-413.6,725.5L-413.6,725.5z M-274.6,666.8v99.9l-1.7,0.8l-3.1,1.2
		l-3.2,1.1l-3.2,1.1l-3.2,1l-0.5,0.1v-93.8L-274.6,666.8L-274.6,666.8L-274.6,666.8z M-305.7,690.2v86.4l-2.5,0.8l-2.9,1l-3,1.1
		l-2.7,1.1l-2.7,1.2l-1.2,0.6v-81L-305.7,690.2L-305.7,690.2L-305.7,690.2z M-258.4,697.9l0.1,0.2l1.1,1.9l1.1,1.8l1.1,1.9l1.1,1.9
		l1.1,1.9l1.1,1.9l1,1.9l0.9,1.9l0.9,1.9l0.8,1.9l0.7,1.9l0.7,2l0.5,2l0.4,2l0.3,2l0.2,2.1l0.1,2.1l-0.2,2.1l-0.3,2.1l-0.4,2.1
		l-0.6,2.2l-1.2,3.3l-1.5,3l-1.6,2.9l-1.8,2.6l-2.1,2.4l-2.2,2.2l-1.3,1.1V697.9L-258.4,697.9L-258.4,697.9z"/>
	<path fill="#FFFFFF" d="M-384.1,732.3l4.6-2.8l0,0c0,1.1,0.4,2.1,1.8,2.5c1.2,0.3,5.5-2.5,6.5-4.3c1.4-2.4,0.9-6.7-0.7-6.7
		c-2,0-6.4,4.8-9.2,4.8c-0.3,0-2.1,0.6-2.8-2.1c-0.2-0.7-0.2-7.5-0.2-8.8c0-5.6,2.1-6.7,6.6-9.6c1.6-1,5.5-2.8,8.2-3.4l0,0l0.8-2.8
		l2.9-1.6v10.2l-4.4,1.7l0,0c0-1-0.8-1.3-1.2-1.2c-1.8,0.3-4.8,2.2-6.6,4.3c0,0-1.2,4.6,0.3,5.7c0.8,0.7,7.5-5.5,10.2-4.8
		c0,0,2.1,0.7,2.3,1.3c0.8,2.3,0.7,11.2,0,12.7c-1.4,3.2-7.2,6.9-10.1,8.2c-0.1,0-4.3,1.2-5.2,2.3l0,0v2.4l-3.8,2.2L-384.1,732.3
		L-384.1,732.3L-384.1,732.3z M-359.1,719.7c0.3-0.1,0.6-0.3,0.9-0.5c0.3,0,0.5,0.1,0.7,0.3c0.1,0.2,0.3,0.4,0.3,0.8
		c0,0.3-0.1,0.7-0.3,1.1c-0.2,0.4-0.4,0.8-0.7,1.2s-0.6,0.8-0.9,1c-0.5,0.3-0.9,0.4-1.3,0.3c-0.3-0.2-0.5-0.5-0.5-0.9
		c0-0.4,0.1-0.8,0.2-1.2c0.2-0.4,0.4-0.8,0.7-1.2C-359.7,720.3-359.4,719.9-359.1,719.7L-359.1,719.7L-359.1,719.7z M-349.9,686.7
		l20.9-15.4v8.9l-4.2,2.7v-1.2l0,0c0-0.7-0.2-2-0.2-2.1c0-0.2-0.3-0.3-0.7-0.3c-0.5,0-5.8,4.3-7.3,5.8l0,0v8.3l4.7-3.4v5.2l-4.8,3.2
		l0.1,4.1l0,0c0,0.5-0.2,2.5,1.2,2.4c0.3,0,2-1.6,3.1-2.2l0,0l0.1,3.9l-12.7,9.4v-3.9l0,0c1.7-1.1,2.6-1.6,2.6-4.3l0,0v-16.7l0,0
		c0-1.9-0.8-2.4-2.7-1.7l0,0L-349.9,686.7L-349.9,686.7L-349.9,686.7z M-329.7,697.8c0.3-0.3,0.6-0.3,0.9-0.5c0.3,0,0.5,0.1,0.7,0.2
		c0.1,0.2,0.2,0.4,0.2,0.8c0,0.3-0.1,0.7-0.2,1c-0.2,0.5-0.4,0.8-0.7,1.3c-0.3,0.4-0.6,0.7-0.9,0.9c-0.5,0.4-0.9,0.5-1.3,0.4
		c-0.3-0.2-0.4-0.4-0.4-1c0-0.4,0.1-0.8,0.2-1.2c0.3-0.4,0.4-0.8,0.7-1.2C-330.3,698.4-330,698-329.7,697.8L-329.7,697.8
		L-329.7,697.8z M-301.9,659.9l0.2-2l0,0c0.2-1.4-0.7-1.8-1.9-1.1c-1.1,0.6-3,1.4-5.2,3.2c-1.1,0.9-1.3,3.4-1.3,5.3l0,0v11.9l0,0
		c0,3.2,1.5,3,1.5,3c2.7-0.2,6.8-3.4,6.7-4.6l0,0l-0.2-5.3l5.3-3.7l-0.3,8.1l0,0c-0.1,3.4-4.9,6.5-8.3,9c-2.5,1.8-5,3.3-6.2,3.9
		c-3,1.5-5.1,0.5-5.1-5.1l0,0l-0.1-12.7l0,0c0-11.2,2.9-13,10.3-17c0.9-0.5,3.3-1.4,4.8-1.2c0.3-0.7,0.1-3,0.9-4l0,0l4-2.1
		l-0.1,10.6L-301.9,659.9L-301.9,659.9L-301.9,659.9z M-289.2,667.8c0.3-0.2,0.5-0.3,0.8-0.5c0.3,0,0.5,0.1,0.7,0.2
		c0.1,0.2,0.2,0.4,0.2,0.8c0,0.3-0.1,0.7-0.2,1.1c-0.2,0.4-0.4,0.8-0.7,1.2c-0.3,0.5-0.6,0.8-0.8,1c-0.5,0.4-0.9,0.4-1.4,0.4
		c-0.3-0.3-0.5-0.5-0.5-1c0-0.4,0.1-0.8,0.2-1.2c0.2-0.4,0.4-0.8,0.7-1.2C-289.9,668.4-289.6,668-289.2,667.8L-289.2,667.8
		L-289.2,667.8z"/>
	<path d="M-365.3,672.1c-0.3,0.5-0.6,0.9-1,1.3c-0.5,0.6-1,1.1-1.5,1.6c-2.2,1.9-4.8,3.2-7.1,3.8c1.7,0.5,3.4,0.8,5.3,0.8l0,0l0,0
		c2,0,4-0.3,5.8-1c0.6-1.5,1-3.1,1-4.8c0-0.3,0-0.7,0-1.1c0-0.2,0-0.4-0.1-0.5C-363.8,672.4-364.6,672.3-365.3,672.1L-365.3,672.1z
		 M-376.8,678c2.5-0.2,5.7-1.5,8.3-3.8c0.5-0.4,1-0.9,1.4-1.5c0.3-0.4,0.6-0.8,0.9-1.1c-0.1-0.1-0.2-0.2-0.3-0.4l0,0l0,0
		c-0.1-0.1-0.2-0.3-0.2-0.4c-4.1,1-7.8,0.8-11.2-0.2c-3.1-0.8-5.9-2.2-8.6-3.8c0.9,2.9,2.4,5.5,4.5,7.5
		C-380.6,675.8-378.8,677.1-376.8,678L-376.8,678z M-369.7,643L-369.7,643c5.2,0,9.9,2.1,13.4,5.5s5.6,8.1,5.6,13.3l0,0l0,0
		c0,5.2-2.2,9.9-5.6,13.3c-3.5,3.4-8.2,5.5-13.4,5.5l0,0l0,0c-5.1,0-9.8-2.1-13.2-5.5c-2.4-2.5-4.2-5.6-5-9.1
		c-0.1,0-0.1-0.1-0.2-0.1l0.1-0.2c-0.3-1.3-0.4-2.6-0.4-4l0,0l0,0c0-5.2,2.1-9.9,5.5-13.3C-379.5,645-374.8,643-369.7,643
		L-369.7,643L-369.7,643z M-369.7,644L-369.7,644L-369.7,644c-1.2,0-2.4,0.1-3.5,0.4c2.5,3.1,4.5,6.3,6.2,9.7s3.1,6.8,4.5,10.4
		c0.6-0.2,1.2-0.4,1.8-0.4c0.1,0,0.2,0,0.3,0c0.8-3.1,1.2-6.1,1-9.1c-0.2-3.1-1-6.1-2.7-9.1l0.2-0.1
		C-364.3,644.6-366.9,644-369.7,644L-369.7,644z M-374.3,644.6c-3,0.8-5.7,2.4-7.9,4.6c-0.8,0.8-1.6,1.7-2.2,2.7
		c3.7,4.8,8,8.8,12.9,12c1,0.6,1.9,1.2,3,1.8c0.8,0.5,1.7,0.9,2.6,1.4c0.5-0.6,1.1-1.2,1.8-1.7l0,0l0,0l0,0c0.3-0.2,0.5-0.3,0.8-0.5
		c-1.4-3.5-2.8-7-4.5-10.4C-369.6,651.1-371.7,647.7-374.3,644.6L-374.3,644.6z M-385,652.9c-1.5,2.6-2.4,5.6-2.4,8.9l0,0l0,0
		c0,1.2,0.1,2.4,0.4,3.6c2.9,1.8,5.9,3.4,9.2,4.3c3.3,0.9,6.9,1.1,10.8,0.2c0-0.1,0-0.1,0-0.2c0-0.5,0.2-1,0.4-1.5
		c-0.9-0.4-1.7-0.9-2.5-1.4c-1-0.6-2-1.2-3-1.9C-377,661.6-381.3,657.6-385,652.9L-385,652.9z M-362.5,678c2.1-0.9,3.9-2.2,5.5-3.7
		c1.1-1.1,2.1-2.4,2.9-3.8c-1.1-0.1-2.2-0.3-3.4-0.6c-0.4-0.1-0.9-0.2-1.3-0.3c-0.3,0.4-0.7,0.7-1.2,1.1l0,0
		c-0.1,0.1-0.2,0.2-0.4,0.3l0,0c-0.3,0.2-0.6,0.4-1,0.6l0,0c-0.2,0.1-0.5,0.2-0.7,0.3c0,0.3,0.1,0.5,0.1,0.8c0,0.4,0,0.7,0,1.1
		C-361.8,675.2-362.1,676.7-362.5,678L-362.5,678z M-353.5,669.5c1.2-2.3,1.8-5,1.8-7.8l0,0l0,0c0-0.2,0-0.3,0-0.5
		c-0.9,1.2-2.2,2.4-3.7,3.4c-0.4,0.3-0.8,0.5-1.2,0.7c-0.3,0.1-0.6,0.3-0.8,0.4c0.2,0.7,0.1,1.5-0.2,2.3c-0.1,0.2-0.2,0.5-0.4,0.7
		c0.3,0.1,0.6,0.1,0.8,0.2C-355.9,669.2-354.7,669.5-353.5,669.5L-353.5,669.5z M-351.8,659.6c-0.5-4.1-2.4-7.7-5.2-10.4
		c-1.1-1-2.3-2-3.6-2.7c1.4,2.8,2.1,5.6,2.3,8.4c0.2,3.1-0.2,6.1-1,9.3c0.5,0.1,0.9,0.4,1.2,0.7c0.3-0.1,0.6-0.3,0.9-0.4
		c0.4-0.2,0.8-0.4,1.1-0.7C-354.2,662.6-352.7,661-351.8,659.6L-351.8,659.6z M-363.6,666.2L-363.6,666.2L-363.6,666.2L-363.6,666.2
		c-1.4,1-2.3,2.3-2.4,3.4c0,0.2,0,0.4,0,0.5c0,0.2,0.1,0.3,0.2,0.4c0.6,0.7,1.8,0.8,3.2,0.4c0.3-0.1,0.6-0.2,0.8-0.4l0,0
		c0.3-0.1,0.6-0.3,0.8-0.5l0,0l0,0l0,0l0,0l0,0c0.1-0.1,0.2-0.2,0.3-0.2l0,0c0.9-0.7,1.6-1.5,1.9-2.3c0.3-0.7,0.3-1.3,0-1.8l0,0l0,0
		l0,0l0,0c-0.4-0.5-1.1-0.7-1.9-0.7C-361.5,665.1-362.6,665.5-363.6,666.2L-363.6,666.2z M-360.9,670.1L-360.9,670.1L-360.9,670.1
		L-360.9,670.1z"/>
</g>
</svg>
