<?xml version="1.0" encoding="utf-8"?>
<!-- Generator: Adobe Illustrator 19.1.0, SVG Export Plug-In . SVG Version: 6.00 Build 0)  -->
<svg version="1.1" id="Layer_1" xmlns="http://www.w3.org/2000/svg" xmlns:xlink="http://www.w3.org/1999/xlink" x="0px" y="0px"
	 viewBox="-417.5 612.5 183.7 181.4" enable-background="new -417.5 612.5 183.7 181.4" xml:space="preserve">
<g>
	<polygon fill="#FFFFFF" stroke="#000000" stroke-width="0.9639" stroke-miterlimit="2.6131" points="-234.3,613 -291.9,613 
		-359.4,613 -417,613 -417,681 -324.3,793.2 -234.3,681 	"/>
	<path fill="#CD3529" d="M-337.9,762c0-87.1,0-87.1,0-87.1h-71.2L-337.9,762L-337.9,762z"/>
	<path d="M-313.6,762c0-87.1,0-87.1,0-87.1h71.2L-313.6,762L-313.6,762z"/>
	<polygon points="-242.6,668.5 -242.6,619.1 -409.2,619.1 -409.2,668.5 	"/>
	<polygon fill="#FFFFFF" points="-391.2,634.6 -372.3,634.6 -372.3,627.7 -397.5,627.7 -397.5,647.8 -378.9,647.8 -378.9,653.6 
		-397.5,653.6 -397.5,660.2 -372.3,660.2 -372.3,640.5 -391.2,640.5 	"/>
	<path fill="#FFFFFF" d="M-333.2,647.6v-19.9h-25.2v32.5h6.4v-12.6H-333.2L-333.2,647.6z M-351.9,634.2h13.1v7h-13.1V634.2
		L-351.9,634.2z"/>
	<polygon fill="#FFFFFF" points="-313,640.9 -313,634.4 -294.3,634.4 -294.3,627.4 -319.5,627.4 -319.5,659.9 -313,659.9 
		-313,647.6 -294.3,647.6 -294.3,640.9 	"/>
	<polygon fill="#FFFFFF" points="-273,634.4 -254.3,634.4 -254.3,627.4 -279.5,627.4 -279.5,659.9 -254.3,659.9 -254.3,652.9 
		-273,652.9 	"/>
</g>
</svg>
