<?xml version="1.0" encoding="utf-8"?>
<!-- Generator: Adobe Illustrator 19.1.0, SVG Export Plug-In . SVG Version: 6.00 Build 0)  -->
<svg version="1.1" id="Layer_1" xmlns="http://www.w3.org/2000/svg" xmlns:xlink="http://www.w3.org/1999/xlink" x="0px" y="0px"
	 viewBox="-400.8 210.3 126.4 141.6" enable-background="new -400.8 210.3 126.4 141.6" xml:space="preserve">
<g>
	<path fill="#FFDF00" d="M-337.6,210.3c13.9,17.3,34.5,21.6,63.2,25.8c0.3,50.8-16.5,91.4-63.2,115.8c-46.8-24.4-63.5-65-63.2-115.8
		C-372.2,231.9-351.5,227.6-337.6,210.3L-337.6,210.3z"/>
	<path fill="#D91A21" d="M-398.2,238.4c0.2,48.3,16.4,86.9,60.5,110.4c44.1-23.5,60.3-62.1,60.5-110.4c-9.2-1.4-18.6-2.9-27.6-5.3
		c-8.4-2.3-16.6-5.5-23.7-10.5c-3.4-2.4-6.5-5.1-9.2-8.1c-2.8,3.1-5.8,5.8-9.2,8.1c-7.2,5-15.3,8.2-23.7,10.5
		C-379.6,235.5-388.9,237-398.2,238.4L-398.2,238.4z"/>
	<path d="M-398.2,238.4c0,8.2,0.5,16.2,1.6,23.8l29.3-30.1c-1.1,0.3-2.2,0.6-3.3,1C-379.6,235.5-388.9,237-398.2,238.4L-398.2,238.4
		z"/>
	<path d="M-392,283.8c2,6.5,4.4,12.8,7.4,18.7l70.1-72.6c-4.9-1.9-9.6-4.3-14-7.3c-0.9-0.6-1.7-1.2-2.6-1.9L-392,283.8L-392,283.8z"
		/>
	<path d="M-374.5,318.4c3.7,4.8,7.8,9.2,12.5,13.5l84.9-88c0.1-1.8,0.1-3.6,0.1-5.4c-5.8-0.9-11.6-1.8-17.4-2.9L-374.5,318.4
		L-374.5,318.4z"/>
	<path d="M-347.3,343.2c3.1,2,6.3,3.9,9.7,5.7c32.5-17.4,49.9-42.9,56.8-74.5c-0.1-0.1-0.2-0.3-0.1-0.4L-347.3,343.2L-347.3,343.2z"
		/>
	<path fill="#FFDA00" d="M-370.5,260.3c-6.3-3.8-9.4-9.7-9.6-19c5-0.2,7.9-1.7,9.7-3.9c1.7,2.1,4.3,3.2,9.5,3.5
		C-361.3,250.9-364.1,256.5-370.5,260.3L-370.5,260.3z"/>
	<path d="M-326.4,271.4c0,0.7,0,1.3,0,2c0,2.2-0.1,4.3,0.3,6.2c0.2,1.1,0.5,2.2,1,3.3s1.1,2.3,2.1,3.6c0.4,0.5,0.9,1.1,1.4,1.7
		c0.8,1,1.6,1.9,2.2,2.8c0.1,0.2,0.2,0.4,0.3,0.6l0,0c0.5,0.7,1.3,1.3,2.2,1.7c1,0.5,2.1,0.7,3.2,0.7c1.3,0,2.5-0.4,3.5-1.3
		c0.8-0.8,1.4-1.8,1.5-3.3c0.2-3.4-1.9-7-4.2-11.1c-1.1-1.9-2.3-4-3.2-6.1c-0.9-2-1.6-4-2.1-6c-0.4-2-0.6-4.2-0.3-6.5
		c0.1-1.5,0.6-2.9,1.2-4.1c0.7-1.3,1.6-2.3,2.6-2.9c0.5-0.3,1-0.6,1.6-0.7c0.6-0.2,1.2-0.2,1.8-0.2c2.1,0,4,1,5.4,3
		c1.2,1.7,2,4.1,2,7.1c0.4,0.4,0.8,1.2,1.1,2c0.4,1,0.8,2.1,1,3c0.2,0.7,0.2,1.5,0.2,2.2c0,0.7,0,1.4,0.2,2c0.1,0.4,0.3,0.9,0.5,1.4
		c0.4,1,0.9,2.2,1,3.8c0,0.4-0.4,0.6-0.7,0.4c-0.4-0.3-0.6-0.5-0.9-0.6c-0.4-0.3-0.6-0.5-1.4-1c-0.2-0.1-0.5-0.3-0.9-0.5
		c-0.1,0-0.1-0.1-0.2-0.1c-0.7-0.4-1.6-0.9-2-1.3c-0.6-0.5-1-1.3-1.4-2.1c-0.4-0.9-0.7-2-0.9-2.9c-0.2-1-0.2-2.3-0.1-3.5
		c0.1-1.2,0.3-2.4,0.6-3c0-0.3,0.2-0.7,0.4-1.1c0.2-0.4,0.3-0.9,0.3-1.1c-0.1-1.1-0.6-2.3-1.5-3.1c-0.7-0.7-1.6-1.1-2.6-1.1
		c-1,0.1-1.6,0.5-2.1,1.1c-0.5,0.7-0.9,1.5-1.1,2.4c-0.3,0.9-0.3,2-0.3,3.2c0.1,1.3,0.3,2.8,0.7,4.2c1,4,2.7,6.8,4.6,9.8
		c0.8,1.3,1.7,2.7,2.5,4.2c0.8,1.4,1.5,3.1,1.9,4.8c0.4,1.6,0.6,3.2,0.6,4.7c-0.1,2.7-1.1,5-2.7,6.7c-1.6,1.6-3.8,2.7-6.4,2.7
		c-1,0-1.9-0.1-2.8-0.3c-0.7-0.2-1.4-0.5-2-0.9c-0.1,0.3-0.1,0.5-0.2,0.8l0,0c-0.1,0.4-0.1,0.9,0,1.4c0.1,0.6,0.3,1.3,0.6,2
		c0.4,0.9,0.7,1.6,1,2.2c0.3,0.6,0.5,0.9,0.7,1.1c0.2,0.2,0.4,0.4,0.7,0.6c1.1,1.1,2,1.9,2.9,2.4c0.2,0.1,0.4,0.1,0.6,0.2
		c0.6,0.1,1.1,0.3,1.1,1c0,0.4-0.1,0.7-0.2,1c-0.1,0.2-0.1,0.4-0.2,0.6c-0.1,0.5-0.2,1-0.3,1.6c-0.1,0.6-0.1,1.1-0.1,1.5
		c0,0.6,0.1,1.3,0.3,2.1c0.2,0.8,0.4,1.5,0.6,2.2c0.1,0.3,0.2,0.6,0.4,0.9c0.2,0.6,0.5,1.2,0.8,2.2c0,0,0,0,0,0.1
		c0.1,0,0.2,0.1,0.4,0.2c0.5,0.3,1.2,0.6,1.1,1.2c0,0.5-0.6,1-1.1,1.5c-0.3,0.3-0.6,0.5-0.7,0.7c0,0.1-0.2,0.2-0.3,0.2
		c-0.3,0-0.6,0-1.1,0c-0.1,0-0.2,0-0.4,0l0,0c-0.4,0-1.1,0.5-1.5,0.9c-0.1,0.1-0.3,0.2-0.3,0.3l0,0c-0.5,0.4-1.5,0.5-2.4,0.3
		c-0.7-0.1-1.3-0.4-1.7-0.9c-0.2,0.1-0.4,0.1-0.6,0.1c-0.3,0.1-0.6,0.1-0.9,0.1c-0.4,0-0.8-0.1-1.2-0.2c-0.1,0-0.2-0.1-0.3-0.1
		c0,0,0,0.1,0,0.2c0,0.3,0,0.5,0.1,0.8c0,0.2-0.1,0.5-0.3,0.5c-0.5,0.1-0.9,0.1-1.3-0.1c-0.3-0.1-0.6-0.3-0.8-0.6
		c-0.2-0.3-0.4-0.5-0.5-0.8c0-0.2-0.1-0.3-0.1-0.5c-0.1,0.1-0.2,0.2-0.3,0.3s-0.1,0.1-0.2,0.2c-0.3,0.3-0.6,0.4-1,0.1l0,0
		c-0.4-0.5-0.6-1.2-0.7-1.9c0-0.9,0.2-1.7,0.4-2.1c0-0.2,0.1-0.3,0.2-0.5v-0.1c0.1-0.3,0.3-0.7,0.7-1.1c0.4-0.4,1.1-0.9,2.2-1.4
		c0.6-0.3,2.1,0.9,3.2,0.8c0.1,0,0.2,0,0.3,0c0-0.1,0-0.3,0-0.4c0.1-3.6,0.1-4.8-0.7-6c-0.4-0.5-0.8-0.9-1.3-1.2
		c-0.5-0.3-1.1-0.6-1.8-0.8c-1.2-0.4-2.3-0.9-3.4-1.4s-2.1-1.1-3.1-1.7c-2.4-1.4-3.8-3.3-4.7-5.5c-0.2-0.5-0.4-1-0.6-1.5
		c-0.6,0.2-1.5,0.6-2.7,1c-0.1,0-0.1,0.1-0.2,0.1c-0.9,0.4-2.5,1.5-3.8,2.7c-0.9,0.9-1.6,1.9-1.7,2.7c-0.1,0.6,0,1.1,0.1,1.6
		c0.2,1.6,0.5,3-2,4.9c-0.1,0.5-0.3,1-0.5,1.4c-0.4,1-0.8,1.9-0.8,3.2c0.5,0.5,0.6,1.1,0.6,1.8c0,0.6-0.4,1.2-0.9,1.7
		s-1,0.8-1.6,0.8c-0.2,0-0.5,0-0.8,0c-0.4-0.1-0.9-0.1-1,0c-1.5,0.7-2.7,0.8-3.5,0.7s-1.4-0.4-1.6-0.7c-0.4,0.1-0.8,0.3-1.1,0.3
		h-0.1c-0.1,0-0.2,0-0.3-0.1l-0.7,0.6c-0.1,0.1-0.3,0.1-0.4,0.1c-0.4-0.1-0.7-0.4-1-0.7c-0.1-0.1-0.1-0.2-0.2-0.3
		c-0.1,0.4-0.2,0.7-0.6,0.8c-0.3,0.1-0.9-0.1-1.5-0.7c-0.4-0.3-0.7-0.8-1-1.4c0,0,0,0,0-0.1c0-0.1-0.1-0.2-0.1-0.3v-0.1
		c0-0.1-0.1-0.2-0.1-0.3c-0.1-0.2-0.2-0.3-0.3-0.5c-0.2-0.6-0.3-1.2-0.2-1.8c0.1-0.6,0.3-1.2,0.7-1.7s0.9-1,1.5-1.3
		c0.6-0.3,1.3-0.5,1.9-0.5c1.1,0,1.9,0.5,2.7,1c0.7,0.4,1.4,0.8,2,0.8c0.3,0,0.5-0.1,0.7-0.2c0.3-0.2,0.5-0.4,0.7-0.6
		c0.2-0.3,0.2-0.7,0.2-1.1c0-0.1,0-0.2,0-0.3c0-0.6,0-1.3,0-2c0-0.7,0-1.4-0.1-2.1c0-0.7,0-1.5-0.1-2.2c0-1.5,0-3-0.3-4.5
		c-0.1-0.8-0.3-1.5-0.3-2.2c-0.1-1.3,0-2.7,0.4-4c0.4-1.3,1.1-2.6,2.2-3.8c2.9-3.1,7-3.3,11.8-3.6c0.3,0,0.6,0,1-0.1
		c-0.1-0.2-0.2-0.5-0.4-0.7l0,0c-1-1.9-2.5-3.4-4.3-5.2c-2.5-2.4-5.4-5.3-8.1-10.4l0,0c-0.7-0.1-1.4-0.3-2.1-0.5
		c-0.9-0.3-1.7-0.8-2.6-1.3c-0.8-0.5-1.4-0.9-1.9-1.3c-0.7-0.5-2.8-2.1-3.8-2.2c-0.2,0-0.6,0.3-0.9,0.7c-0.3,0.3-0.6,0.5-0.8,0.7
		c-0.5,0.2-0.9,0.2-1.1-0.3c-0.1-0.2-0.1-0.4-0.1-0.8c-0.2,0.1-0.5,0.2-0.8,0.4c-0.7,0.4-1.2,0.6-1.8,0.6c-0.6,0-1.1-0.2-1.7-0.7
		c-0.7-0.6-1.4-1.4-2-2.2c-0.6-0.8-1.1-1.6-1.3-2.2c-0.2-0.7-0.8-2.3,0.2-2.8c-0.4-0.6-0.6-1.6-0.5-2.3c0.3-0.3,0.8-0.4,1.2-0.4
		c-0.1-0.4-0.4-1.2-0.5-1.6c0.4-0.4,1.4-0.5,1.6-0.5c0-0.1-0.1-0.1-0.1-0.2c-0.1-0.4-0.2-0.8-0.2-1.2c1.1-0.8,3.8-0.4,4,0.2
		c0.4,0.4,0.7,0.9,0.9,1.5c0.1,0.4,0.3,0.8,0.4,1.2c0.3,0.9,0.5,1.7,1,2.1l0.1,0.1c0.7,0.8,1.3,1.1,2,1.4c0.3,0.1,0.6,0.3,0.9,0.5
		c0.3,0.2,0.7,0.4,1.1,0.6c1.5,0.8,2.8,1.5,4.8,2.8c0.1-0.1,0.2-0.1,0.3-0.2c-0.2-1.8-0.9-3.9-1.5-5.9c-0.6-1.6-1.1-3-1.6-3.9
		c-0.2-0.4-0.3-0.7-0.4-1c-0.1-0.3-0.2-0.5-0.7-0.8c-0.1-0.1-0.2-0.1-0.4-0.2c-0.4-0.2-0.7-0.3-0.8-0.8c-0.1-0.3,0-0.7,0.3-1
		c0,0,0,0,0.1-0.1c-0.4-0.3-0.9-0.6-1.2-1c-0.6-0.7-1.1-1.6-1.5-2.5c-0.2-0.6-0.4-1.3-0.5-1.9c-0.1-0.8-0.2-1.6-0.2-2.2
		c0-0.2,0.2-0.4,0.4-0.4c0.5,0,1,0,1.4,0.1v-0.1c-0.1-0.2-0.1-0.5-0.3-0.8c-0.1-0.3,0.1-0.6,0.4-0.6c0.4,0,0.7,0,1.1,0
		c0.2,0,0.4,0,0.6-0.1v-0.1c-0.1-0.3-0.2-0.6-0.1-0.9c0-0.1,0.2-0.2,0.3-0.3c0.6-0.2,1.2-0.3,1.8-0.2c0.1,0,0.2,0,0.3,0
		c0-0.2,0.1-0.4,0.2-0.5c0-0.1,0.3-0.2,0.4-0.2c0.6,0,1.1,0,1.5,0.1c0.4,0.1,0.8,0.2,1.2,0.4s0.7,0.5,1,0.8c0.7,0.8,1.2,1.8,1.4,2.8
		c0.2,1.1,0,2.1-0.5,3.1c-0.2,0.3-0.4,0.6-0.7,0.9c-0.1,0.1-0.2,0.2-0.3,0.3c-0.4,0.3-0.7,0.6-0.6,1.2c0.3,0.8,1.1,2,2,3.4
		c0.8,1.2,1.7,2.5,2.7,3.5c1.5-1.3,2.8-2.5,4.3-3.4l0,0c0.9-0.6,1.8-1,2.8-1.4l0,0c-0.1-0.1,0-0.1-0.1-0.1c-0.1,0-0.2,0.1-0.3,0.1
		c-0.4,0.2-0.9,0.4-1.7,0.4c-0.2,0-0.3,0-0.5-0.1c-0.5-0.2-0.8-0.5-0.9-0.9c-0.2-0.4-0.2-0.8-0.2-1.2c0-0.2,0.1-0.4,0.1-0.6
		s-0.1-0.4-0.2-0.6c-0.1-0.3-0.3-0.7-0.3-1.1c0-0.6,0.6-1,1.1-1.4c0.1,0,0.1-0.1,0.2-0.1c0.1-0.3,0.2-0.6,0.4-0.8l0.1-0.1
		c-0.3-0.1-0.5-0.4-0.6-0.7c-0.2-0.3-0.2-0.6-0.3-0.8c0,0,0,0-0.1-0.1c-0.4-0.2-1-0.6-1.3-1.9c-0.2-0.8,0-1.4,0.1-2
		c0.1-0.4,0.2-0.7,0.1-1.1c-0.1-0.5-0.2-0.8,0.1-1.2c0.2-0.4,0.7-0.6,1.7-0.5c0.4,0,1.1-0.1,1.8-0.4c0.6-0.2,1.1-0.4,1.6-0.7
		c0.5-0.6,1-1.1,1.6-1.4s1.4-0.5,2.5-0.6c0.1,0,0.3,0,0.5-0.1c0.5-0.1,1.1-0.2,1.7-0.2c0.2-0.5,0.5-1,0.8-1.4
		c0.4-0.5,0.9-0.9,1.5-0.9c1,0,2.1,0.7,2.8,1.6c0.4,0.5,0.6,1,0.8,1.6c0.1,0.3,0.1,0.7,0.1,1c0,0.1,0.1,0.1,0.1,0.2
		c0.1,0.4,0.4,0.8,0.7,1.1c0.2,0.3,0.5,0.5,0.8,0.7c0.5,0.2,1.1,0.6,1.5,1.1c0.5,0.5,1,1.1,1.4,1.6c0.2,0.3,0.3,0.7,0.5,1
		c0.1,0.2,0.1,0.4,0.2,0.7c0.2,0.4,0.4,0.7,0.8,1c0.4,0.3,0.8,0.7,1.2,1c0.6,0.4,1,0.9,1.2,1.5c0.5,1.1,0.5,2.1,0.6,3.3
		c0,0.7,0.2,1.3,0.5,1.9c0.4,0.5,0.9,1,1.8,1.2c0.1,0.1,0.3,0.3,0.3,0.4c0,0.1,0,0.2,0,0.3c-0.1,0.3-0.2,0.6-0.5,0.8
		c-0.3,0.2-0.6,0.3-1,0.3c0.1,1.2-0.1,2.4-0.4,3.7c-0.2,1.3-0.4,2.4-1,3.6c-0.2,0.4-1,2.2-1.4,2.3c-0.1,1.9,0.2,3.8,0.6,4.7
		c0.1,0.2,0.2,0.4,0.1,0.5c-0.1,0.1-0.4,0.2-0.5,0.2c-0.6,0-1.1-0.1-1.6-0.4c0.1,0.3,0.2,0.5,0.3,0.7v0.1c0,0.1,0,0.2,0,0.3
		c0.3,0.2,0.7,0.4,0.7,0.4c0.2,0.1,0.4,0.1,0.4,0.2s-0.2,0.4-0.3,0.5c-0.6,0.5-1.5,0.7-2.2,0.7c-1,0-2-0.3-2.6-0.6
		c-0.1,0-0.1,0-0.2,0C-326.1,271.4-326.3,271.4-326.4,271.4L-326.4,271.4z"/>
	<path d="M-374.3,255.4v-0.3c0.1,0,0.3-0.1,0.3-0.2c0-0.1,0.1-0.2,0.1-0.5v-10.3c0-0.2,0-0.4-0.1-0.5c0-0.1-0.1-0.2-0.3-0.2v-0.3
		h4.1c1.9,0,3.2,1.5,3.2,3.4c0,0.9-0.4,2.4-1.3,3l1.5,4.3c0.1,0.2,0.2,0.4,0.3,0.6c0.1,0.2,0.3,0.4,0.5,0.6v0.3h-2.2V255
		c0.1,0,0.2-0.1,0.2-0.1c0.2-0.3,0-0.6-0.1-0.9l-1.3-3.9c-0.3,0-0.7,0.1-1,0.1h-2.5v4.2c0,0.2,0,0.4,0.1,0.5c0,0.1,0.2,0.1,0.3,0.2
		v0.3H-374.3L-374.3,255.4z"/>
	<path fill="#FFDA00" d="M-370.6,244.4h-2.2v4.5h2.2c1.8,0,2.5-0.9,2.5-2.4C-368.1,245.1-368.8,244.4-370.6,244.4L-370.6,244.4z"/>
	<path d="M-366.4,250.8l0.2-0.1l0.7,2.3l-0.2,0.1c-0.3-0.4-0.4-0.5-1.1-0.1c-1.3,0.6-2.6,0.8-4.5,0.8c-1.4,0-2.6-0.2-3.5-0.9
		c-1.2-0.9-1.6-2.2-1.6-3.2c0-1.7,0.9-4.2,5.2-4.2c1.2,0,2.6,0.2,3.5,0.5c0.8,0.2,1.3,0.5,1.3,0.5c0.1,0,0.3,0,0.3-0.1
		c0.1-0.1,0.3-0.2,0.4-0.3l0.2,0.1l-0.8,2.4l-0.2-0.1l0,0c0.1-0.4-0.4-0.8-0.9-1c-0.9-0.4-2.3-0.7-3.7-0.7c-3,0-4.1,1.4-4.1,2.9
		c0,1,0.6,2,1.7,2.5c0.5,0.2,1.9,0.3,3,0.3c0.7,0,2.9-0.3,3.8-1.2C-366.5,251.1-366.4,250.9-366.4,250.8L-366.4,250.8z"/>
	<path d="M-371.9,255h0.2c0.2,0.9,0.6,0.7,1.1-0.1c0.3-0.5,0.4-1.3,0.4-2.1c-0.1-1.3-0.5-2.6-0.9-3.8c-0.5-1.5-1-3-1-4.6
		c0-1.1,0.3-2.2,1-3c0.5-0.5,1.1-0.9,1.9-1c0.3,0,0.6-0.1,0.6-0.4h0.2v2.3h-0.2c-0.2-0.7-0.6-0.6-1-0.4c-0.3,0.1-0.5,0.3-0.7,0.5
		c-0.4,0.5-0.6,1.3-0.6,2.1c0,1.4,0.5,2.7,0.9,4.2c0.4,1.4,0.9,2.7,1,4.2c0.1,1.1-0.1,2.1-0.6,2.9c-0.3,0.5-0.8,1-1.4,1.2
		c-0.5,0.2-0.6,0.4-0.6,0.7h-0.2V255H-371.9z"/>
	<path fill="#FFDA00" d="M-356.4,322.9c-0.1-0.2-0.3-0.4-0.3-0.5c-0.1,0-0.1,0-0.2,0s-0.3,0-0.4,0c0.1,0.2,0.1,0.3,0.2,0.5
		c0.1,0.1,0.2,0.2,0.3,0.3L-356.4,322.9L-356.4,322.9z"/>
	<path fill="#FFDA00" d="M-358.7,322.4c-0.1-0.1-0.3-0.1-0.4-0.1c-0.2,0-0.5,0-0.8,0.1c0.1,0.1,0.2,0.3,0.3,0.4
		c0.3,0.3,0.6,0.4,0.7,0.4s-0.1,0,0-0.1C-358.9,322.8-358.8,322.6-358.7,322.4L-358.7,322.4z"/>
	<path fill="#FFDA00" d="M-334.3,300.5c-0.1-0.3-0.1-0.5-0.2-0.8c-0.4,0-0.8-0.1-1.1-0.3c-0.4-0.2-0.7-0.6-0.7-1
		c-0.1-0.6,0.3-1.3,0.5-1.9c0.2-0.3,0.3-0.6,0.4-0.9c0-0.1,0-0.1,0-0.1c-0.3-1.4-0.6-2.8-1.1-4.2c-0.4,0-0.9,0.1-1.3,0.1
		c-4.6,0.3-8.5,0.5-11.2,3.3c-1,1.1-1.6,2.2-2,3.4c-0.3,1.2-0.4,2.5-0.4,3.7c0,1,0.3,1.9,0.4,2.9c0.2,1.2,0.7,1.9,1.5,2.9
		c0.1,0.2,0.3,0.3,0.3,0.4c0.1,0.2,0.3,0.4,0,0.7c-0.4,0.3-0.6,0-0.7-0.2c-0.3-0.4-0.6-0.8-0.9-1.2c0,0.4,0,0.8,0,1.3
		c0,0.7,0,1.5,0.1,2.2c0,0.7,0,1.4,0.1,2.1c0,0.7,0,1.4,0,2c0,0.1,0,0.2,0,0.3c0,0.6,0,1.1-0.4,1.6c-0.2,0.3-0.5,0.6-0.9,0.9
		c-0.3,0.2-0.7,0.3-1.1,0.4c-1,0.1-1.7-0.4-2.6-0.9c-0.7-0.4-1.4-0.9-2.2-0.9c-0.5,0-1,0.2-1.5,0.4c-0.5,0.3-0.9,0.6-1.2,1
		c-0.3,0.4-0.5,0.8-0.5,1.2c0,0.1,0,0.3,0,0.4c0.2-0.4,0.4-0.7,0.6-0.9c0.5-0.5,1.1-0.7,1.7-0.8c0.2,0,0.5,0,0.7,0s0.6,0,0.5,0.5
		c0,0.5-0.4,0.4-0.6,0.4c-0.2,0-0.3,0-0.5,0c-0.4,0.1-0.9,0.2-1.2,0.6c-0.3,0.3-0.6,0.8-0.6,1.5l0,0c0,0.2,0,0.5,0,0.7
		c0,0.1,0.1,0.1,0.1,0.2c0.5-0.2,0.9-0.2,1.3-0.2c0.2,0,0.5,0.1,0.7,0.2c0-0.6,0-1.1,0.2-1.6c0.3-0.7,1-1.3,2.3-1.5
		c0.2,0,0.5-0.1,0.6,0.3c0.1,0.5-0.3,0.5-0.5,0.6c-1,0.2-1.4,0.5-1.6,0.9c-0.2,0.4-0.2,0.9-0.1,1.5c0.1-0.1,0.2-0.1,0.3-0.2
		c0.2,0,0.3-0.1,0.4-0.1h0.1c0.4,0.1,0.6,0.5,0.9,0.8v0.1c0.1,0,0.2,0.1,0.2,0.2l0,0c0.2-0.1,0.5-0.2,0.9-0.3
		c0.8-0.3,1.7-0.7,2.4-0.7c0.2,0,0.5,0,0.6,0.4c0,0.5-0.3,0.5-0.5,0.5c-0.4,0-0.8,0.2-1.3,0.3c0.2,0.1,0.4,0.1,0.7,0.2
		c0.7,0.1,1.7,0,3-0.6c0.4-0.2,1-0.1,1.5,0c0.3,0,0.5,0.1,0.6,0.1c0.3,0,0.7-0.3,1-0.6c0.3-0.3,0.6-0.8,0.6-1.1
		c0.1-1.2-0.9-1.7-2-1.8c-0.1,0-0.2,0-0.4,0.1s-0.3,0.2-0.5,0.4c-0.2,0.2-0.4,0.4-0.7,0.2c-0.3-0.3-0.1-0.6,0-0.8
		c0.3-0.3,0.5-0.5,0.8-0.6c0.3-0.2,0.6-0.2,0.9-0.2c0.5,0,1,0.2,1.3,0.3c0.1-1.1,0.5-2,0.8-2.9c0.3-0.7,0.7-1.7,0.8-2.5
		c0.1-0.8,0-1.7-0.3-2.8c-0.1-0.2-0.2-0.5,0.3-0.7c0.4-0.1,0.5,0.2,0.6,0.4c0.4,1.2,0.4,2.1,0.4,3c1.2-1.2,1-2.2,0.8-3.3
		c-0.1-0.6-0.2-1.2-0.1-1.8c0.1-1,0.9-2.2,1.9-3.2c0.5-0.5,1-1,1.6-1.4c-1.2,0.2-2.4,0.4-3.3,0.2c-1.2-0.2-2.1-0.7-2.4-1.7
		c-0.3-1.2,0.2-2.2,1.1-3c0.8-0.7,1.8-1.3,2.6-1.5c0.2-0.1,0.6-0.2,0.7,0.3s-0.2,0.6-0.5,0.6c-0.7,0.1-1.5,0.7-2.2,1.3
		c-0.6,0.6-1.1,1.3-0.9,2.1c0.2,0.6,0.8,1,1.6,1.1c1,0.1,2.1,0,3.4-0.3C-337.4,301.7-335.2,300.9-334.3,300.5L-334.3,300.5z"/>
	<path fill="#FFDA00" d="M-318.2,293.6c0.1,0.3,0.2,0.6,0.2,0.9c0.1,0.8,0.1,1.6,0,2.6c0.6,0.5,1.3,0.8,2,1c0.8,0.2,1.6,0.3,2.5,0.3
		c2.4,0,4.3-0.9,5.7-2.4c1.5-1.6,2.4-3.7,2.5-6.1c0-1.5-0.2-3-0.5-4.5c-0.4-1.7-1.1-3.3-1.8-4.6c-0.8-1.5-1.7-2.9-2.5-4.2
		c-1.9-3.1-3.7-5.9-4.7-10.1c-0.4-1.5-0.6-3-0.7-4.4c-0.1-1.3,0-2.5,0.3-3.5c0.3-1,0.7-1.9,1.3-2.7s1.5-1.4,2.8-1.5
		c1.4-0.1,2.5,0.5,3.3,1.3c1,1,1.6,2.4,1.7,3.7c0,0.4-0.2,1-0.4,1.5c-0.1,0.4-0.3,0.7-0.3,0.9c0,0,0,0.1,0,0.2
		c-0.2,0.5-0.4,1.6-0.5,2.8c-0.1,1.1-0.1,2.3,0.1,3.2c0.1,0.4,0.2,0.8,0.3,1.2c0.2-1.3,0.6-2.6,1-3.1c0.1-0.2,0.3-0.6,0.7-0.3
		c0.4,0.2,0.2,0.6,0,0.8c-0.3,0.5-0.8,1.8-0.9,3.1c-0.1,0.9,0,1.7,0.5,2.3c0.1,0.1,0.1,0.1,0.1,0.2c0.1,0.1,0.2,0.3,0.3,0.4
		c0.1,0,0.1,0.1,0.2,0.2c-0.1-0.3-0.1-0.5-0.2-0.8c-0.2-1.4,0-2.9,0.2-3.8c0.1-0.2,0.2-0.7,0.6-0.6c0.4,0.1,0.3,0.6,0.3,0.8
		c-0.2,0.8-0.4,2.2-0.2,3.4c0.1,0.8,0.4,1.5,1,1.9c0,0,0.1,0,0.1,0.1c0.1,0,0.1,0.1,0.2,0.1c-0.1-0.3-0.2-0.5-0.3-0.8
		c-0.4-1.2-0.5-2.6-0.1-4.4c0-0.2,0.1-0.7,0.6-0.6c0.5,0.1,0.4,0.5,0.3,0.7c-0.3,1.6-0.2,2.9,0.1,4c0.3,1,0.9,1.8,1.6,2.4l0,0
		c-0.1-1-0.5-1.7-0.8-2.5c-0.2-0.6-0.5-1.1-0.6-1.6c-0.1-0.7-0.2-1.4-0.2-2.1c0-0.7,0-1.5-0.2-2.1c-0.2-0.9-0.5-2-0.9-2.9
		c-0.3-0.9-0.7-1.5-1-1.9c0,0-0.1-0.2-0.1-0.3c0-2.9-0.8-5.1-1.9-6.8c-1.2-1.7-2.9-2.6-4.7-2.6c-0.5,0-1.1,0.1-1.6,0.2
		c-0.5,0.1-0.9,0.3-1.4,0.6c-0.9,0.6-1.7,1.5-2.3,2.6c-0.6,1.1-1,2.3-1.1,3.7c-0.2,2.2-0.1,4.3,0.3,6.2c0.4,2,1.1,3.9,2,5.8
		c1,2.1,2.1,4.1,3.2,6c2.4,4.2,4.5,7.9,4.3,11.6c-0.1,1.7-0.8,3-1.7,3.9c-1.1,1-2.6,1.5-4.1,1.5c-1.2,0-2.4-0.3-3.6-0.8
		C-317.6,294-317.9,293.8-318.2,293.6L-318.2,293.6z"/>
	<path d="M-342.6,245.6c0.2,0.1,0.3,0.3,0.4,0.5c0.2,0.2,1,1.7,1.1,1.7c0.7,0.1,2-0.8,2.1-1.5c0-0.2-0.2-0.6-0.6-1
		c-0.6-0.7-1.6-1.3-2.6-0.8C-342.3,244.7-342.5,245.5-342.6,245.6L-342.6,245.6z"/>
	<path d="M-349.3,261.5c0-0.1,0.1-0.3,0.2-0.4c0-0.1,0.1-0.2,0.1-0.2c0.1-0.4,0.3-0.7,0.4-1.2c0.1-0.4,0.3-0.8,0.4-1.1
		c-0.9,0.8-1.5,1.5-1.9,2.3c-0.4,0.7-0.6,1.5-0.7,2.6C-350.2,263-349.8,262.4-349.3,261.5L-349.3,261.5z"/>
	<path fill="#FFDA00" d="M-320.4,247c-0.2-0.5-0.4-1-0.9-1.4c0,0.5,0,1.1-0.1,1.7c0,0.2,0,0.4-0.1,0.6
		C-321,247.7-320.7,247.4-320.4,247L-320.4,247z"/>
	<path fill="#FFDA00" d="M-325.3,270.7c0.4,0.2,1.2,0.4,2,0.4c0.3,0,0.7,0,1-0.2c-0.1-0.1-0.3-0.2-0.4-0.4c-1.2,0-4.2-1.3-4.8-5.1
		c0.1,0.6,0.2,1.2,0.4,1.8C-326.8,268.3-326.2,269.5-325.3,270.7L-325.3,270.7z"/>
	<path fill="#FFDA00" d="M-336.7,267.4c1.1,2.7,3,7.1,4.6,10.9c0.7,1.6,1.4,3.1,1.9,4.5c0.1,0.2,0.2,0.4-0.2,0.6
		c-0.4,0.2-0.5,0-0.6-0.3c-0.2-0.6-0.6-1.3-0.9-2.1l0,0c-0.3,0.2-0.6,0.4-0.8,0.4c-0.2,0-0.6,0.2-0.7-0.3c-0.1-0.4,0.3-0.5,0.5-0.6
		c0.2-0.1,0.5-0.3,0.6-0.4c-0.2-0.4-0.4-0.9-0.6-1.3c-0.3,0.4-0.7,0.7-1.2,0.9c-0.5,0.3-1.1,0.4-1.6,0.5c-0.2,0-0.6,0.2-0.6-0.3
		c-0.1-0.4,0.3-0.6,0.5-0.6c0.5-0.1,1-0.2,1.4-0.4c0.4-0.2,1-0.7,1.2-1.1c-1-2.3-2-4.7-2.9-6.9c-0.2,0.7-0.4,1.3-0.8,1.8
		c-0.7,1.1-1.7,1.8-2.8,1.9c-0.8,0.1-1.6-0.2-2.2-0.5c-0.6-0.3-1.1-0.7-1.5-1c-0.1,0-0.2,0-0.3,0.1c-1.8,0.5-3.3,0.9-4.9,0.9
		c2.5,4.7,5.3,7.4,7.7,9.7c1.8,1.8,3.5,3.4,4.5,5.4l0,0c1.1,1.9,1.5,3.9,1.9,6c0,0.1,0,0.2,0.1,0.5c0.5,2.4,0.9,4.7,1.8,6.7
		c0.9,2,2.2,3.8,4.3,5.1c1,0.6,2,1.2,3.1,1.7c1,0.5,2.1,0.9,3.3,1.3c0.7,0.2,1.4,0.5,2,0.9s1.1,0.9,1.5,1.4c1,1.4,1,2.7,0.9,6.6
		c0,0.1,0,0.3,0,0.4c0.7,0.1,0.7,0.2,1.3,0.1c0.2-0.1,0.5-0.1,0.7-0.1c0.3,0,0.6,0.1,0.8,0.2c0.3,0.1,0.5,0.3,0.7,0.5
		c0.1,0.2,0.4,0.4,0,0.7c-0.3,0.3-0.6,0-0.7-0.2c-0.1-0.1-0.2-0.2-0.3-0.2c-0.1-0.1-0.3-0.1-0.4-0.1s-0.3,0-0.5,0.1l0,0
		c-0.9,0.2-1.1,0-1.8-0.1c-0.2,0-0.5,0-0.9,0c-0.9,0.1-3-0.8-3-0.8c-1,0.4-1.6,0.8-1.9,1.2c-0.3,0.3-0.4,0.6-0.5,0.8
		c0,0,0,0.1-0.1,0.2c0,0.1-0.1,0.2-0.1,0.2v0.1c0,0.1,0.1,0.3,0.3,0.4c0.1,0.1,0.1,0.1,0.2,0.2c0.1-0.2,0.2-0.4,0.3-0.5
		c0.3-0.4,0.7-0.8,1.2-1c0.8-0.4,1.8-0.4,2.9,0c0.2,0.1,0.5,0.2,0.4,0.6c-0.2,0.4-0.5,0.3-0.7,0.2c-0.9-0.3-1.6-0.3-2.2,0
		c-0.4,0.2-0.7,0.4-0.9,0.7c-0.2,0.3-0.3,0.7-0.4,1c0,0.3,0,0.7,0.2,0.9c0.1,0,0.1,0.1,0.1,0.2c0.3,0,0.6-0.1,0.8-0.1
		c0.2,0,0.4,0,0.6,0c0.1-0.4,0.4-0.7,0.8-0.9c0.4-0.3,1-0.4,1.6-0.4c0.3,0,0.7,0,1.1,0.1c0.2,0.1,0.5,0.1,0.4,0.6
		c-0.1,0.4-0.4,0.4-0.6,0.3c-0.3-0.1-0.5-0.1-0.8-0.1c-0.5,0-0.8,0.1-1.1,0.3c-0.2,0.1-0.4,0.3-0.4,0.4c0.1,0.1,0.2,0.1,0.4,0.1
		c0.3,0.1,0.7,0.1,1,0.2c0.2,0,0.5,0,0.7-0.1c0.2,0,0.5-0.1,0.7-0.2c0.4-0.1,0.8-0.3,1.1-0.5c0.2-0.1,0.5-0.2,0.6-0.3
		c0.2-0.1,0.5-0.2,0.7,0.2c0.2,0.4-0.2,0.5-0.4,0.6c-0.1,0-0.3,0.1-0.5,0.3c-0.2,0.1-0.3,0.2-0.5,0.2c0.3,0.2,0.6,0.3,1,0.4
		c0.7,0.2,1.4,0.1,1.7-0.1l0,0c0.1,0,0.1-0.1,0.3-0.2c0.5-0.4,1.4-1.1,2.1-1.1c0.1,0,0.3,0,0.4,0c0.4,0,0.6,0,0.9,0
		c0.2-0.2,0.5-0.5,0.7-0.7c0.4-0.4,0.8-0.8,0.8-0.9c0,0-0.3-0.2-0.6-0.4c-0.3-0.1-0.5-0.2-0.7-0.4c-0.3-0.3-0.7-0.4-1.2-0.4
		s-1,0.2-1.6,0.6c-0.2,0.1-0.5,0.4-0.8,0c-0.3-0.4,0-0.6,0.2-0.7c0.7-0.5,1.4-0.8,2-0.8c0.3,0,0.5,0,0.8,0.1l0,0
		c-0.1-0.2-0.2-0.3-0.3-0.4c-0.3-0.2-0.5-0.3-0.8-0.4c-0.3,0-0.6,0-0.9,0c-0.2,0-0.5,0-0.5-0.4s0.2-0.5,0.4-0.5c0.4,0,0.7-0.1,1.1,0
		c0.1,0,0.2,0,0.3,0.1c-0.1-0.2-0.2-0.5-0.2-0.7c-0.2-0.7-0.4-1.5-0.6-2.3c-0.1-0.3-0.1-0.6-0.2-0.9c0,0.2-0.1,0.6-0.6,0.5
		c-0.4-0.1-0.4-0.5-0.3-0.7c0.2-1.2,0.1-2.5-0.4-3.7c-0.4-1-1.2-1.8-2.1-2.2c-0.2-0.1-0.5-0.3-0.3-0.7c0.2-0.4,0.5-0.2,0.7-0.2
		c1.2,0.5,2.1,1.5,2.6,2.7c0.2,0.4,0.3,0.9,0.4,1.3c0-0.1,0-0.2,0-0.2c0.1-0.6,0.2-1.2,0.3-1.7c0.1-0.3,0.1-0.5,0.2-0.7
		c0.1-0.2,0.2-0.4,0.2-0.7c0,0-0.2,0-0.4-0.1s-0.5-0.1-0.8-0.3c-1.1-0.5-2.1-1.4-3.2-2.5c-0.2-0.2-0.4-0.4-0.7-0.7
		c-0.2-0.2-0.5-0.7-0.9-1.3c-0.3-0.6-0.7-1.4-1.1-2.3c-0.3-0.7-0.5-1.5-0.7-2.2c-0.1-0.6-0.1-1.2,0-1.8l0,0c0.5-1.5,0.6-2.8,0.4-3.9
		c-0.2-1.1-0.7-2.1-1.3-3.2c-0.5-0.8-1.3-1.8-2.1-2.7c-0.5-0.6-0.9-1.1-1.4-1.7c-1.1-1.4-1.8-2.6-2.3-3.7c-0.5-1.2-0.8-2.3-1.1-3.5
		c-0.4-1.9-0.3-4.1-0.3-6.4c0-0.7,0-1.4,0-2c-0.8-0.1-1.6-0.3-2.4-1.1c-0.2-0.2-0.3-0.3-0.5-0.5h-0.1c-0.2,0-0.4,0-0.6,0
		c-1.5-0.2-3.1-1-4.2-2.4c-0.5-0.6-0.8-1.2-1.1-1.9c0.1,0.5,0.2,1,0.3,1.5c0.1,0.3-0.1,0.6-0.4,0.6
		C-336.5,267.4-336.6,267.4-336.7,267.4L-336.7,267.4z"/>
	<path fill="#FFDA00" d="M-351.1,264.6c-0.1,0.1-0.1,0.1-0.2,0.2c-0.4,0.5-0.9,1.1-1.8,1.8h0.1c1.4-0.4,2.7-0.6,3.8-0.4
		c0.2,0,0.6,0.1,0.5,0.5c-0.1,0.5-0.4,0.4-0.6,0.4c-0.9-0.2-2.1,0-3.3,0.3c-1.2,0.4-2.3,0.9-3.1,1.5c-0.2,0.2-0.5,0.4-0.8,0
		c-0.3-0.3,0-0.6,0.2-0.7c0.6-0.5,1.3-0.9,2.1-1.3c-2.1-1.3-3.5-2.1-5-2.9c-0.3-0.2-0.7-0.3-1.2-0.6c-0.3-0.2-0.6-0.3-0.9-0.4
		c-0.8-0.4-1.5-0.7-2.3-1.6c-0.7-0.5-1-1.5-1.3-2.5c-0.1-0.4-0.2-0.8-0.4-1.2c-0.2-0.5-0.4-0.9-0.7-1.1c-0.4-0.4-0.8-0.4-1.3-0.4
		c-0.7,0.2-0.4,0.1-0.8,0.9c0.6,0,1.3,0.2,1.8,0.6c0.5,0.4,0.7,0.8,0.8,1.2c0,0.2,0.1,0.6-0.4,0.7c-0.1,0.3-0.1-0.1-0.2-0.3
		c0-0.2-0.2-0.5-0.4-0.7c-0.2-0.2-0.6-0.3-1.1-0.4c-0.2,0-0.4,0-0.7,0c-0.6,0.3-0.5,0.4-0.5,1.4c1.5,0.4,2.1,1.2,2.6,1.8
		c0.3,0.3,1,0.9,0.5,1.3c-0.5,0.4-1-0.4-1.2-0.8c-0.5-0.6-1-1.4-2.5-1.6c-0.7,0-0.3,1.3-0.3,1.4c0.3,0.2,0.4,0.4,0.8,0.6
		c0.4,0.2,0.9,0.4,1.8,1c0.2,0.1,0.5,0.3,0.3,0.7c-0.2,0.4-0.6,0.2-0.8,0.1c-0.8-0.5-1.3-0.7-1.7-0.9c-0.8,0.3-0.6,1.1-0.5,1.4
		c0.2,0.5,0.6,1.3,1.1,1.9c0.6,0.8,1.3,1.5,1.9,2c0.4,0.3,0.7,0.5,1.1,0.5c0.4,0,0.8-0.2,1.4-0.5c0.4-0.2,0.8-0.4,1.1-0.5
		c1-0.2,1,0.5,1,1.2c0.2-0.1,0.4-0.3,0.6-0.5c0.5-0.4,1-0.9,1.5-0.9c1.2,0,3.4,1.6,4.3,2.4c0.6,0.4,1.1,0.8,1.8,1.3
		c0.8,0.5,1.7,0.9,2.5,1.2c0.8,0.3,1.5,0.5,2.3,0.5c1.6,0.1,3.2-0.3,5.2-0.9c0.2-0.1,0.3-0.1,0.5-0.1c0.1,0,0.3,0,0.4,0.1
		c0.4,0.3,0.9,0.7,1.5,1c0.5,0.3,1.2,0.5,1.7,0.4c0.8,0,1.5-0.7,2.1-1.5c0.3-0.5,0.6-1.1,0.7-1.7c0.2-0.8,0.2-1.3-0.1-2
		c-0.2-0.6-0.4-1.1-0.6-1.5c-1.7-0.8-3-3.1-3.5-5.2c-0.1,1.1,0,2.2,0.2,2.9c0.1,0.3-0.2,0.7-0.6,0.6c-1.8-0.6-2.6-1.3-2.9-2.1
		c-0.3,0.5-0.7,0.7-1,0.8c-0.1,0.1-0.2,0.1-0.2,0.1c-0.2,0.2-0.6,0.1-0.7-0.1c-0.2-0.5-0.3-1-0.4-1.4c-0.4,0.7-0.9,1.2-1.5,1.6
		c-0.2,0.1-0.5,0-0.6-0.2c-0.1-0.2-0.2-0.4-0.2-0.6c-0.4,0.5-0.9,0.9-1.5,1.1C-350.9,264.5-351,264.6-351.1,264.6L-351.1,264.6z"/>
	<path fill="#FFDA00" d="M-349,258c-1-1.1-1.9-2.4-2.8-3.7c-1-1.4-1.8-2.8-2.1-3.6v-0.1c-0.1-1.2,0.3-1.5,0.9-2
		c0.1-0.1,0.2-0.2,0.3-0.3c0.2-0.2,0.4-0.5,0.6-0.7c0.4-0.7,0.5-1.6,0.4-2.5c-0.1-0.9-0.5-1.7-1.1-2.4c-0.2-0.3-0.5-0.5-0.8-0.7
		c-0.3-0.2-0.6-0.3-0.9-0.3c-0.1,0-0.4-0.1-0.3,0.2c0.9,0.5,1.7,1.3,2.1,2.3c0.3,0.9,0.3,1.9-0.2,3.1c-0.1,0.2-0.2,0.4-0.6,0.2
		c-0.4-0.2-0.3-0.4-0.2-0.6c0.4-1,0.5-1.8,0.2-2.4c-0.3-0.8-1-1.4-1.7-1.8c-0.5-0.3-1-0.4-1.5-0.5c-0.5-0.1-0.8,0.1-0.9,0.6l0,0
		c1,0.2,1.9,0.7,2.4,1.7c0.4,0.8,0.6,1.8,0.5,3.3c0,0.2-0.1,0.5-0.5,0.4c-0.4-0.1-0.4-0.3-0.4-0.5c0.2-1.2,0-2.1-0.3-2.7
		c-0.4-0.7-1.1-1.1-1.8-1.2c-0.5-0.1-0.9-0.1-1.4,0c-0.2,0-0.3,0.7-0.3,0.9c0.8,0.3,1.4,0.8,1.9,1.5c0.8,1.1,1.2,2.5,1.5,3.7
		c0.1,0.2,0.1,0.5-0.3,0.6c-0.4,0.1-0.5-0.1-0.5-0.4c-0.3-1.1-0.6-2.4-1.4-3.3c-0.4-0.6-1.1-1.1-1.9-1.3c-0.3-0.1-1.1,0.5-1.1,0.9
		c0,0.2,0.1,0.4,0.1,0.6c0.1,0.6,0.2,1.2,0.5,1.8c0.3,0.9,0.8,1.6,1.3,2.3c0.5,0.6,1.1,1,1.6,1.1c0.4,0.1,0.4,0.8,0,0.9
		c-0.2,0.1-0.3,0.1-0.4,0.3c-0.1,0.1-0.1,0.2-0.1,0.3c0,0,0.1,0,0.2,0.1c0.1,0.1,0.3,0.1,0.5,0.2c0.8,0.5,0.9,0.7,1.1,1.3
		c0.1,0.2,0.2,0.5,0.4,0.9c0.5,1,1.1,2.4,1.7,4.1c0.6,1.8,1.2,3.8,1.6,5.3c0.4-0.4,0.7-0.8,0.9-1c0.1-0.1,0.1-0.2,0.2-0.2v-0.1
		c0-1.4,0.3-2.5,0.8-3.5C-350.5,259.6-349.8,258.8-349,258L-349,258z"/>
	<path fill="#FFDA00" d="M-332.6,234.4c0.2-0.4,0.6-0.6,0.9-0.7c0.3-0.1,0.6,0,0.8,0c0.4,0.1,0.8,0.4,1.1,0.8s0.5,0.9,0.6,1.4
		c0.1,0.7,0,1.3-0.3,1.7c-0.1,0.2-0.2,0.3-0.3,0.4c0.5-0.3,0.7-0.7,0.9-1.1c0.1-0.4,0.1-0.8,0-1.3s-0.3-0.9-0.6-1.3
		c-0.6-0.8-1.3-1.3-2-1.3c-0.3,0-0.6,0.2-0.9,0.6c-0.3,0.4-0.6,0.9-0.8,1.4c-0.1,0.1-0.3,0.3-0.4,0.3c-0.6,0-1.3,0.1-1.8,0.2
		c-0.2,0-0.3,0-0.6,0.1c-1,0.1-1.6,0.3-2.2,0.6c-0.5,0.3-0.9,0.6-1.3,1.2l-0.1,0.1c-0.5,0.3-1.2,0.6-1.8,0.8
		c-0.9,0.3-1.7,0.4-2.1,0.4c-0.6,0-0.9,0-0.9,0.1c0,0.1,0,0.3,0.1,0.6v0.1c0,0.5-0.1,1-0.2,1.4c-0.1,0.5-0.2,1-0.1,1.7
		c0.2,0.9,0.6,1.1,0.9,1.3c0.2,0.1,0.4,0.2,0.5,0.5c0,0.3,0.1,0.5,0.2,0.8c0-0.1,0.1-0.1,0.1-0.2c0.2-0.3,0.3-0.7,0.6-0.9
		c0.6-0.4,1.2-0.4,1.8-0.3c0.5,0.1,1.3,0.6,1.9,1.2c0.5,0.6,0.9,1.2,0.8,1.8c-0.1,0.6-0.6,1.2-1.3,1.6c-0.6,0.4-1.4,0.7-1.9,0.6
		c-0.7-0.1-1.3-1.5-1.6-2c-0.1,0.2-0.2,0.4-0.2,0.6c0,0-0.1,0.2-0.2,0.2c-0.1,0.1-0.2,0.2-0.3,0.3c-0.3,0.3-0.8,0.6-0.8,0.7
		c0,0.2,0.1,0.5,0.2,0.7c0.1,0.3,0.3,0.7,0.3,1.1c0,0,0,0.1,0,0.2c0,0.1-0.1,0.3-0.1,0.5c0,0.3,0,0.5,0.1,0.7s0.2,0.3,0.4,0.4
		c0.1,0,0.1,0,0.2,0c0.6,0,1-0.1,1.3-0.3c0.3-0.1,0.5-0.2,0.8-0.2c0.3,0,0.4,0.2,0.6,0.4c0.1,0.1,0.2,0.2,0.3,0.3
		c0.5-0.2,1-0.3,1.6-0.4c0.8-0.2,1.6-0.6,2.3-1.2c0.7-0.6,1.4-1.4,1.8-2.2c0.3-0.7,0.5-1.4,0.6-2.1c0.1-0.8,0-1.5-0.2-2.2
		c-0.1-0.2-0.2-0.5,0.2-0.6c0.4-0.1,0.6,0.1,0.6,0.4c0.3,0.8,0.4,1.6,0.3,2.6c-0.1,0.8-0.3,1.6-0.7,2.5c-0.5,0.9-1.2,1.8-2,2.5
		c-0.8,0.7-1.7,1.2-2.7,1.4c-0.6,0.1-1.1,0.3-1.6,0.4c-0.1,0.1-0.2,0.1-0.2,0.1c-1.2,0.4-2.2,0.9-3.2,1.5c-1.4,0.9-2.7,2.1-4.2,3.4
		c0,0,0.1,0,0.2,0c0.4,0.2,0.3,0.4,0.2,0.6c-0.2,0.4-0.3,0.8-0.5,1.2c-0.3,0.7-0.5,1.3-0.7,1.8c-0.1,0.3-0.1,0.6-0.1,0.9
		c0,0.2,0,0.3,0.1,0.4c0.9-0.8,1.3-2.3,1.7-3.4c0.1-0.3,0.2-0.6,0.3-0.9c0.1-0.3,0.4-0.4,0.6-0.3s0.4,0.3,0.3,0.6
		c-0.1,0.3-0.2,0.5-0.3,0.9c0,0.1-0.1,0.3-0.1,0.4c0,0.3-0.1,0.7-0.1,1.1c0,0.5,0,1.1,0.2,1.7c0.4-0.2,0.9-0.6,1.1-2.1
		c0-0.2,0-0.5,0-0.7c0-0.3,0-0.6,0-0.9c0-0.2,0.2-0.4,0.4-0.4s0.5,0.2,0.5,0.4l0,0c0,0.6,0,1.1-0.1,1.5c-0.1,1.4,0.1,2.4,1.8,3.1
		c-0.1-0.8-0.1-1.7,0-2.6c0.1-1.1,0.3-2.1,0.8-2.6c0.1-0.2,0.4-0.2,0.6-0.2c0.2,0.1,0.2,0.3,0.2,0.5c-0.3,2.3,1.3,6.6,3.7,7.1
		c-0.2-0.9-0.3-2-0.3-3c0-1.3,0.1-2.6,0.4-3.7c0.1-0.2,0.3-0.4,0.5-0.3c0.2,0,0.4,0.3,0.4,0.5c-0.4,0.1-0.4,0.6-0.4,1.1
		c0,2.3,0.7,4.1,1.6,5.3c1,1.2,2.3,1.9,3.6,2c-0.5-0.8-0.9-1.7-1.2-2.6c-0.6-1.8-0.9-3.9-0.8-5.4c0-0.2,0-0.6,0.5-0.5
		c0.5,0,0.5,0.4,0.4,0.6c-0.1,1.5,0.2,3.4,0.8,5.1c0.5,1.5,1.2,2.8,2.1,3.7c0.8,0.8,1.6,0.9,2.5,0.9c-0.7-1-1.2-2.1-1.5-3.1
		c-0.4-1.3-0.5-2.6-0.5-4.1c0-1,0.2-2,0.5-3c0.1-0.2,0.2-0.5,0.6-0.4s0.3,0.4,0.3,0.7c-0.3,0.9-0.5,1.8-0.5,2.7c0,0.3,0,0.7,0,1
		c0-0.1,0.1-0.2,0.4-0.2c0.5,0,0.5,0.2,0.5,0.4c0.3,3.7,2.7,4.9,3.9,5.1c-0.3-0.7-0.6-1.5-0.8-2.4c-0.3-1.1-0.4-2.2-0.4-3.2
		c0-0.8,0-1.5,0.1-2.3c0.1-0.7,0.2-1.4,0.4-1.9c0.1-0.2,0.2-0.6,0.6-0.5c0.4,0.1,0.3,0.6,0.2,0.8c-0.2,0.4-0.3,1-0.4,1.7
		c-0.1,0.6-0.1,1.4-0.1,2c0-0.4,0.1-0.7,0.2-1.1c0.1-0.4,0.2-0.8,0.2-1.2c0-0.2,0.1-0.6,0.6-0.6c0.5,0.1,0.4,0.5,0.3,0.7
		c-0.1,0.5-0.2,0.9-0.3,1.3c-0.2,0.9-0.3,1.6-0.1,2.5c0.1,0.5,1,1.7,0.4,2c-0.4,0.2-0.6-0.1-0.7-0.3c-0.3-0.5-0.5-0.9-0.6-1.4
		c0,0.3,0.1,0.6,0.2,0.8l0,0c0.4,0.8,0.8,1.2,1.1,1.4c0.2,0.1,0.3,0.2,0.5,0.2c-0.3-1.1-0.5-2.7-0.5-4.4c0-1.7,0.3-3.5,1-4.8
		c0.1-0.2,0.4-0.4,0.6-0.4c0.2,0,0.3,0.4,0.3,0.6c0,0.3,0,0.8-0.1,1.3c0.3-0.9,0.4-1.7,0.6-2.6c0.3-1.4,0.5-2.8,0.3-4
		c0-0.1,0-0.3,0-0.4c0.2-0.2,0.5-0.1,0.9-0.1c0.2,0,0.4-0.1,0.5-0.2c-0.9-0.3-1.5-0.9-1.9-1.5c-0.5-0.7-0.6-1.5-0.7-2.3
		c0-0.5,0-0.9-0.1-1.4c-0.1,0.1-0.3,0.2-0.4,0.4c-0.4,0.3-0.9,0.6-1.4,0.9c-0.4,0.2-0.8-0.3-0.6-0.6c0.1-0.1,0.1-0.3,0.2-0.4
		l-0.1,0.1c-0.7,0.7-1.6,0.8-2.6,0.9c-0.3,0-0.6-0.3-0.4-0.7c0.1-0.2,0.1-0.3,0.2-0.5c-0.7,0.9-1.7,1.6-2.9,2
		c-0.4,0.1-0.7-0.3-0.6-0.6c0.2-0.4,0.3-0.8,0.4-1.2c-0.7,0.9-1.6,1.5-2.5,1.9c-0.3,0.1-0.7-0.2-0.6-0.6c0.3-0.9,0.5-1.7,0.5-2.6
		c0-0.8-0.3-1.7-0.8-2.6c-0.1-0.2-0.3-0.5,0.1-0.7s0.6,0,0.7,0.2c0.7,1.1,1,2.1,1,3.1c0,0.6-0.1,1.3-0.2,1.9
		c0.5-0.3,0.9-0.7,1.3-1.2c0.5-0.7,0.9-1.5,0.9-2.2c0-0.2,0.2-0.4,0.5-0.4c0.2,0,0.4,0.2,0.5,0.4c0,0.7,0,1.5-0.1,2.3
		c-0.1,0.3-0.1,0.7-0.2,1c0.7-0.4,1.2-0.9,1.7-1.4c0.7-0.8,1-1.7,0.9-2.3c0-0.2,0.1-0.5,0.3-0.5c0.2-0.1,0.5,0,0.6,0.3
		c0.2,0.5,0.2,1.2,0.1,1.9c-0.1,0.5-0.2,1-0.4,1.5c0.5-0.1,0.9-0.3,1.3-0.6c0.5-0.5,0.9-1.3,0.9-2.8c-0.2-0.2-0.4-0.4-0.6-0.6
		c-0.4-0.4-0.8-0.8-1-1.3c-0.1-0.3-0.2-0.5-0.3-0.7c-0.1-0.3-0.2-0.6-0.4-0.9c-0.3-0.5-0.7-1-1.2-1.4c-0.4-0.4-0.8-0.7-1.3-0.9
		c-0.4-0.2-0.8-0.5-1.1-0.9c-0.2-0.2-0.3-0.4-0.4-0.6c-0.3,0.6-0.9,1-1.7,1.4c-0.2,0.1-0.4,0.1-0.6-0.3c-0.1-0.1-0.1-0.2,0-0.3h-0.1
		c-0.2,0.1-0.4,0.1-0.6-0.3c-0.1-0.4,0.1-0.5,0.3-0.6c0.4-0.1,0.6-0.3,0.8-0.5c0.2-0.3,0.2-0.7,0.2-1.1c0-0.3-0.2-0.7-0.4-0.9
		c-0.2-0.2-0.4-0.4-0.6-0.4c-0.1,0-0.3,0-0.4,0c-0.1,0-0.2,0.1-0.3,0.2c-0.1,0.2-0.2,0.4-0.6,0.2
		C-332.8,234.8-332.7,234.6-332.6,234.4L-332.6,234.4z"/>
	<path d="M-340.4,238.5c-0.2-0.2-0.2-0.6,0.1-0.7l0,0c0.2-0.2,0.8-0.6,1.5-0.8c0.2-0.1,0.4-0.1,0.7-0.1s0.4,0.1,0.7,0.2
		c0.3,0.1,0.5,0.2,0.7,0.4c0.3,0.2,0.6,0.4,0.6,0.5c0,0.1,0.1,0.3,0.1,0.3c-0.1,0.4-0.4,0.5-0.9,0.6c-0.3,0-0.6,0.1-1,0.3
		c-1.5,0.8-1.8,0.4-2.3-0.2C-340.1,238.8-340.2,238.6-340.4,238.5L-340.4,238.5z"/>
	<path fill="#FFDA00" d="M-339.4,238.3C-339.3,238.3-339.3,238.3-339.4,238.3c0.2,0.3,0.4,0.5,1.2,0c0.3-0.2,0.6-0.2,0.9-0.3
		c-0.1-0.1-0.2-0.1-0.3-0.2s-0.3-0.1-0.4-0.1s-0.3,0-0.4,0.1C-338.8,237.9-339.1,238.1-339.4,238.3L-339.4,238.3z"/>
	<path d="M-338.7,240.5c1.5,0.8,2.4,2,2.8,3.4c0.3,1,0.3,1.9,0.1,2.9c-0.2,0.9-0.7,1.8-1.4,2.5c-0.9,0.9-2.2,1.5-3.9,1.5
		c-0.2,0-0.5,0-0.5-0.5c0-0.4,0.2-0.4,0.5-0.4c1.5,0,2.5-0.5,3.3-1.3c0.6-0.6,0.9-1.3,1.1-2c0.2-0.8,0.1-1.6-0.1-2.4
		c-0.3-1.2-1.1-2.2-2.4-2.9c-0.2-0.1-0.4-0.2-0.2-0.6C-339.1,240.3-338.9,240.4-338.7,240.5L-338.7,240.5z"/>
	<path d="M-332.2,252.7c-0.1,0.6-0.1,1.5,0.1,2.4c0.1,0.5,0.4,1.1,0.7,1.5c0-0.6,0-1.2,0.1-1.7c0.1-1,0.4-1.8,0.7-2.5
		c0.1-0.2,0.2-0.4,0.6-0.2c0.4,0.2,0.3,0.4,0.3,0.6c-0.3,0.7-0.5,1.4-0.6,2.3c-0.1,0.8-0.1,1.6,0,2.6c0,0.4-0.4,0.6-0.7,0.4
		c-1.2-0.8-1.7-1.8-2-2.8c-0.2-1-0.2-2-0.1-2.7c0-0.2,0.1-0.5,0.5-0.4C-332.1,252.3-332.1,252.5-332.2,252.7L-332.2,252.7z"/>
	<path d="M-327.3,251.4c0,0.2-0.1,0.5-0.1,0.7c-0.1,1,0.1,2.1,0.6,3c0.4,0.7,0.9,1.3,1.6,1.6c-0.2-0.5-0.3-1.1-0.3-1.7
		c0-1.2,0.3-2.3,0.8-3.2c0.1-0.2,0.2-0.4,0.6-0.2c0.4,0.2,0.3,0.4,0.2,0.6c-0.4,0.7-0.7,1.7-0.7,2.7c0,0.8,0.2,1.5,0.7,2.1
		c0.1,0.2,0.2,0.3,0.1,0.5c-0.2,0.4-0.7,0.2-1.1,0.2c-1.3-0.3-2.2-1.2-2.8-2.2c-0.5-1.1-0.7-2.3-0.6-3.5c0-0.3,0.1-0.5,0.1-0.8
		c0-0.2,0.1-0.4,0.5-0.4C-327.2,251-327.2,251.2-327.3,251.4L-327.3,251.4z"/>
	<path d="M-338.5,259.6c-0.1,0.5-0.1,1-0.1,1.5c0,0.6,0.2,1.3,0.4,1.8c0.1,0.2,0.2,0.4-0.2,0.6s-0.5,0-0.6-0.2
		c-0.3-0.7-0.5-1.4-0.5-2.1c-0.1-0.9,0-1.8,0.2-2.4l0,0c-0.3-0.4-0.4-0.8-0.5-1.2c-0.3-1-0.1-2.1,0.2-2.9c0.1-0.2,0.2-0.6,0.7-0.4
		c0.4,0.1,0.3,0.5,0.2,0.7c-0.2,0.7-0.4,1.6-0.2,2.4c0.1,0.3,0.2,0.6,0.3,0.8c0-0.4,0-0.8,0.1-1.1c0.1-0.7,0.4-1.2,0.7-1.7
		c0.1-0.2,0.3-0.5,0.7-0.2c0.4,0.2,0.2,0.5,0.1,0.7c-0.3,0.4-0.5,0.8-0.6,1.4c-0.1,0.6-0.1,1.2,0,2.1c0.1,0.4-0.4,0.7-0.7,0.4
		C-338.3,259.7-338.4,259.7-338.5,259.6L-338.5,259.6z"/>
	<path d="M-333.3,261.3c0,0.1,0,0.3,0,0.5c-0.1,1.1-0.2,3.5,0.9,4.4c0.2,0.1,0.4,0.3,0.1,0.6c-0.3,0.3-0.5,0.2-0.6,0
		c-1.4-1.2-1.2-3.9-1.2-5.1c0-0.2,0-0.4,0-0.4c0-0.2,0-0.6,0.4-0.6C-333.3,260.7-333.3,261.1-333.3,261.3L-333.3,261.3z"/>
	<path d="M-330.5,262.5c-0.1,0.9,0,1.6,0.1,2.3c0.1,0.7,0.4,1.3,0.7,2c0.1,0.2,0.2,0.4-0.3,0.6c-0.4,0.2-0.5-0.1-0.6-0.3
		c-0.3-0.8-0.5-1.4-0.7-2.2c-0.2-0.8-0.2-1.6-0.2-2.5c0-0.2,0-0.6,0.5-0.5S-330.5,262.3-330.5,262.5L-330.5,262.5z"/>
	<path d="M-325.1,261.7c-0.2,1.1,0,2.2,0.2,3.3c0,0.2,0.1,0.6-0.3,0.7c-0.5,0.1-0.5-0.3-0.6-0.5c-0.3-1.2-0.4-2.4-0.2-3.6
		c0-0.2,0.1-0.7,0.6-0.6C-325,261-325.1,261.4-325.1,261.7L-325.1,261.7z"/>
	<path d="M-334.4,276.9c-0.2,0.4-0.6,0.8-1.1,1.1c-0.4,0.3-0.8,0.5-1.3,0.6c-0.2,0-0.6,0.1-0.6-0.4c-0.1-0.5,0.3-0.5,0.5-0.5
		c0.3,0,0.6-0.2,0.9-0.4c0.4-0.3,0.7-0.6,0.8-0.9c0.1-0.2,0.3-0.5,0.7-0.3C-334.1,276.4-334.3,276.7-334.4,276.9L-334.4,276.9z"/>
	<path d="M-335,275.2c-0.3,0.5-0.8,1-1.3,1.4s-1.1,0.6-1.6,0.6c-0.2,0-0.5,0-0.5-0.4c0-0.5,0.3-0.5,0.5-0.5c0.4,0,0.8-0.1,1.2-0.4
		c0.4-0.3,0.8-0.7,1.1-1.1c0.1-0.2,0.3-0.5,0.7-0.3C-334.7,274.7-334.9,275-335,275.2L-335,275.2z"/>
	<path d="M-352.8,270.6c0.9,0.1,2.1,0.2,3.6,0.2c1.4,0,3.2-0.2,5.1-0.6c0.2,0,0.4-0.1,0.5,0.4c0.1,0.4-0.1,0.5-0.4,0.5
		c-2,0.4-3.8,0.6-5.3,0.6s-2.7-0.1-3.7-0.2c-0.2,0-0.5,0-0.4-0.5C-353.2,270.6-353,270.6-352.8,270.6L-352.8,270.6z"/>
</g>
</svg>
