<?xml version="1.0" encoding="utf-8"?>
<!-- Generator: Adobe Illustrator 19.1.0, SVG Export Plug-In . SVG Version: 6.00 Build 0)  -->
<svg version="1.1" id="Layer_1" xmlns="http://www.w3.org/2000/svg" xmlns:xlink="http://www.w3.org/1999/xlink" x="0px" y="0px"
	 viewBox="0 0 133.5 149.5" enable-background="new 0 0 133.5 149.5" xml:space="preserve">
<g>
	<g>
		<defs>
			<path id="SVGID_1_" d="M67.4,149.2l-0.6,0.3l-0.6-0.3c-9.7-4.7-18.2-10.5-25.7-17.2c-7.8-7-14.4-14.9-19.8-23.5
				c-6.9-11-12-23.2-15.4-36.4C1.7,58.5,0,43.8,0,28.5v-1.2l1.2-0.1c20.3-2.6,33.7-6,43.5-10.2c9.6-4.2,15.6-9.3,21-15.6l1-1.2
				l1.1,1.2c5.4,6.3,11.4,11.4,21,15.6c9.7,4.3,23.2,7.6,43.5,10.2l1.2,0.1v1.2c0,15.4-1.7,30.1-5.2,43.7
				c-3.4,13.2-8.5,25.4-15.5,36.4c-5.5,8.6-12,16.5-19.8,23.5C85.6,138.7,77.1,144.5,67.4,149.2L67.4,149.2z"/>
		</defs>
		<clipPath id="SVGID_2_">
			<use xlink:href="#SVGID_1_"  overflow="visible"/>
		</clipPath>
		<g clip-path="url(#SVGID_2_)">
			<defs>
				<rect id="SVGID_3_" width="133.5" height="149.5"/>
			</defs>
			<clipPath id="SVGID_4_">
				<use xlink:href="#SVGID_3_"  overflow="visible"/>
			</clipPath>
			<rect x="-3.1" y="-7.2" clip-path="url(#SVGID_4_)" fill="#FFCF01" width="140.2" height="160"/>
		</g>
	</g>
	<path fill-rule="evenodd" clip-rule="evenodd" d="M34.9,23.3c-8.3,2.5-18.8,4.6-32.1,6.3c0,8.7,0.7,17.2,1.8,25.3L34.9,23.3
		L34.9,23.3z"/>
	<path fill-rule="evenodd" clip-rule="evenodd" d="M66.8,146.4c9.2-4.6,17.3-10.1,24.4-16.4c7.6-6.8,14-14.5,19.3-22.9
		c6.8-10.7,11.8-22.7,15.1-35.6c0.4-1.4,0.7-2.9,1-4.3l-70.2,73.4C59.7,142.7,63.2,144.6,66.8,146.4L66.8,146.4z"/>
	<path fill-rule="evenodd" clip-rule="evenodd" d="M130.6,35c0.1-1.8,0.1-3.6,0.1-5.4c-7-0.9-13.2-2-18.8-3.1l-83.9,87.8
		c3.8,5.1,8.2,9.9,13,14.4L130.6,35L130.6,35z"/>
	<path fill-rule="evenodd" clip-rule="evenodd" d="M90.8,20.7c-1.1-0.4-2.1-0.9-3.1-1.3c-5.8-2.5-10.3-5.3-14.2-8.6L9.7,77.7
		c2.1,6.9,4.7,13.5,7.9,19.7L90.8,20.7L90.8,20.7z"/>
	<g>
		<defs>
			<path id="SVGID_5_" d="M126.6,67.2c2.3-10.2,3.6-21,4-32.1L41,128.8c0.4,0.4,0.9,0.8,1.3,1.2c4.3,3.9,9,7.4,14.1,10.6L126.6,67.2
				L126.6,67.2z"/>
		</defs>
		<clipPath id="SVGID_6_">
			<use xlink:href="#SVGID_5_"  overflow="visible"/>
		</clipPath>
		<g clip-path="url(#SVGID_6_)">
			<defs>
				<rect id="SVGID_7_" x="41" y="35" width="89.6" height="105.5"/>
			</defs>
			<clipPath id="SVGID_8_">
				<use xlink:href="#SVGID_7_"  overflow="visible"/>
			</clipPath>
			<rect x="16.1" y="27.6" clip-path="url(#SVGID_8_)" fill="#D91921" width="114.5" height="115.9"/>
		</g>
	</g>
	<g>
		<defs>
			<path id="SVGID_9_" d="M111.9,26.6c-8.5-1.7-15.4-3.7-21.1-5.9L17.6,97.4c1.7,3.3,3.5,6.5,5.5,9.7c1.6,2.5,3.3,4.9,5.1,7.3
				L111.9,26.6L111.9,26.6z"/>
		</defs>
		<clipPath id="SVGID_10_">
			<use xlink:href="#SVGID_9_"  overflow="visible"/>
		</clipPath>
		<g clip-path="url(#SVGID_10_)">
			<defs>
				<rect id="SVGID_11_" x="17.6" y="20.7" width="94.4" height="93.7"/>
			</defs>
			<clipPath id="SVGID_12_">
				<use xlink:href="#SVGID_11_"  overflow="visible"/>
			</clipPath>
			<rect x="14.1" y="3.5" clip-path="url(#SVGID_12_)" fill="#D91921" width="114.5" height="115.9"/>
		</g>
	</g>
	<g>
		<defs>
			<path id="SVGID_13_" d="M73.5,10.8c-2.5-2-4.7-4.2-6.8-6.6c-5.4,6-11.5,11-21,15.1c-3.2,1.4-6.8,2.7-10.9,3.9L4.6,55
				c0.8,5.6,1.9,11.2,3.3,16.5c0.5,2.1,1.1,4.2,1.8,6.2L73.5,10.8L73.5,10.8z"/>
		</defs>
		<clipPath id="SVGID_14_">
			<use xlink:href="#SVGID_13_"  overflow="visible"/>
		</clipPath>
		<g clip-path="url(#SVGID_14_)">
			<defs>
				<rect id="SVGID_15_" x="4.6" y="4.3" width="68.9" height="73.4"/>
			</defs>
			<clipPath id="SVGID_16_">
				<use xlink:href="#SVGID_15_"  overflow="visible"/>
			</clipPath>
			<rect x="2.5" y="-2" clip-path="url(#SVGID_16_)" fill="#D91921" width="104.1" height="105.4"/>
		</g>
	</g>
	<path fill-rule="evenodd" clip-rule="evenodd" fill="#FFDA00" d="M32,52.9c-6.7-4-9.9-10.3-10.2-20.1c5.3-0.2,8.4-1.8,10.2-4.1
		c1.8,2.3,4.6,3.4,10,3.7C41.7,42.8,38.8,48.8,32,52.9L32,52.9z"/>
	<path fill-rule="evenodd" clip-rule="evenodd" d="M78.7,64.6c0,0.7,0,1.4,0,2.1c0,2.3-0.1,4.6,0.3,6.5c0.2,1.2,0.5,2.3,1,3.5
		s1.2,2.4,2.3,3.8c0.4,0.5,0.9,1.2,1.5,1.8c0.9,1,1.7,2,2.3,3c0.1,0.2,0.3,0.4,0.4,0.6c0,0,0,0,0,0c0.5,0.8,1.4,1.4,2.4,1.8
		c1.1,0.5,2.2,0.7,3.4,0.7c1.3,0,2.7-0.5,3.7-1.4c0.9-0.8,1.4-2,1.5-3.5c0.2-3.5-2-7.4-4.4-11.7c-1.2-2.1-2.4-4.2-3.4-6.4
		c-1-2.1-1.7-4.2-2.2-6.4c-0.4-2.2-0.6-4.4-0.4-6.8c0.1-1.6,0.6-3.1,1.3-4.3c0.7-1.3,1.7-2.4,2.8-3.1c0.5-0.3,1.1-0.6,1.7-0.8
		c0.6-0.2,1.3-0.3,1.9-0.3c2.2,0,4.3,1.1,5.7,3.1c1.3,1.8,2.1,4.3,2.2,7.5c0.4,0.5,0.8,1.2,1.2,2.1c0.4,1,0.8,2.2,1,3.2
		c0.2,0.8,0.2,1.6,0.2,2.4c0,0.8,0,1.5,0.2,2.1c0.1,0.5,0.3,1,0.6,1.5c0.5,1.1,1,2.3,1,4c0,0.4-0.4,0.6-0.8,0.4
		c-0.4-0.3-0.7-0.5-0.9-0.6c-0.4-0.3-0.7-0.5-1.4-1c-0.2-0.1-0.5-0.3-0.9-0.5c-0.1,0-0.1-0.1-0.2-0.1c-0.8-0.4-1.7-0.9-2.1-1.3
		c-0.6-0.6-1.1-1.3-1.5-2.2c-0.4-1-0.8-2.1-1-3.1c-0.2-1-0.2-2.4-0.1-3.6c0.1-1.3,0.3-2.5,0.6-3.2c0-0.3,0.2-0.7,0.4-1.2
		c0.2-0.5,0.4-0.9,0.4-1.2c-0.1-1.1-0.7-2.4-1.6-3.3c-0.7-0.7-1.7-1.2-2.8-1.1c-1,0.1-1.7,0.5-2.2,1.2c-0.6,0.7-0.9,1.6-1.2,2.5
		c-0.3,0.9-0.4,2.1-0.3,3.4c0.1,1.4,0.3,2.9,0.7,4.5c1,4.2,2.9,7.2,4.9,10.3c0.9,1.4,1.8,2.9,2.7,4.5c0.8,1.5,1.6,3.3,2,5.1
		c0.4,1.6,0.7,3.3,0.6,5c-0.1,2.8-1.1,5.3-2.9,7.1c-1.7,1.7-4,2.8-6.8,2.8c-1,0-2-0.1-2.9-0.3c-0.7-0.2-1.4-0.5-2.1-1
		c-0.1,0.3-0.1,0.5-0.2,0.8l0,0c-0.1,0.4-0.1,0.9,0,1.5c0.1,0.7,0.3,1.4,0.6,2.1c0.4,0.9,0.8,1.7,1.1,2.4c0.3,0.6,0.5,1,0.7,1.2
		c0.2,0.2,0.5,0.4,0.7,0.7c1.1,1.1,2.1,2.1,3.1,2.5c0.2,0.1,0.5,0.1,0.7,0.2c0.7,0.1,1.2,0.3,1.2,1c0,0.5-0.1,0.7-0.2,1.1
		c-0.1,0.2-0.1,0.4-0.2,0.6c-0.1,0.5-0.2,1.1-0.3,1.7c-0.1,0.6-0.1,1.2-0.1,1.6c0,0.6,0.1,1.4,0.3,2.2c0.2,0.8,0.4,1.6,0.6,2.3
		c0.1,0.3,0.2,0.6,0.4,1c0.3,0.6,0.5,1.3,0.8,2.3c0,0,0,0,0,0.1c0.1,0,0.2,0.1,0.4,0.2c0.6,0.3,1.2,0.6,1.2,1.3
		c0,0.5-0.6,1.1-1.2,1.6c-0.3,0.3-0.6,0.5-0.8,0.8c0,0.1-0.3,0.2-0.3,0.2c-0.3,0-0.7,0-1.2,0c-0.1,0-0.3,0-0.4,0h0
		c-0.4,0-1.1,0.6-1.6,0.9c-0.1,0.1-0.3,0.2-0.3,0.3l0,0c-0.5,0.4-1.6,0.5-2.6,0.3c-0.7-0.1-1.4-0.4-1.8-0.9
		c-0.2,0.1-0.4,0.1-0.6,0.1c-0.3,0.1-0.6,0.1-0.9,0.1c-0.4,0-0.9-0.1-1.3-0.2c-0.1,0-0.2-0.1-0.3-0.1c0,0,0,0.1,0,0.2
		c0,0.3,0,0.5,0.1,0.9c0,0.2-0.1,0.5-0.3,0.6c-0.5,0.1-1,0.1-1.4-0.1c-0.3-0.1-0.6-0.4-0.8-0.6c-0.2-0.3-0.4-0.6-0.5-0.8
		c0-0.2-0.1-0.4-0.1-0.5c-0.1,0.1-0.2,0.2-0.3,0.3c-0.1,0.1-0.1,0.1-0.2,0.2c-0.3,0.3-0.6,0.4-1,0.1l0,0c-0.5-0.6-0.7-1.3-0.7-2
		c0-0.9,0.2-1.8,0.5-2.2c0-0.2,0.1-0.4,0.2-0.5c0,0,0-0.1,0-0.1c0.1-0.3,0.3-0.7,0.8-1.2c0.4-0.5,1.2-1,2.3-1.5
		c0.7-0.3,2.2,0.9,3.4,0.8c0.1,0,0.2,0,0.3,0c0-0.1,0-0.3,0-0.4c0.1-3.8,0.1-5.1-0.8-6.3c-0.4-0.5-0.8-0.9-1.4-1.3
		c-0.5-0.4-1.2-0.6-1.9-0.9c-1.3-0.4-2.5-0.9-3.6-1.4c-1.1-0.5-2.2-1.1-3.3-1.8c-2.5-1.5-4-3.5-5-5.8c-0.2-0.5-0.4-1.1-0.6-1.6
		c-0.6,0.3-1.6,0.6-2.9,1c-0.1,0-0.1,0.1-0.2,0.1c-1,0.4-2.7,1.6-4,2.9c-1,1-1.7,2-1.8,2.8c-0.1,0.6,0,1.2,0.1,1.7
		c0.3,1.6,0.5,3.2-2.1,5.2c-0.1,0.5-0.4,1-0.5,1.5c-0.4,1-0.8,2.1-0.8,3.4c0.5,0.5,0.7,1.2,0.6,1.9c0,0.6-0.4,1.3-0.9,1.8
		c-0.5,0.5-1.1,0.9-1.7,0.9c-0.2,0-0.5,0-0.8,0c-0.4-0.1-0.9-0.1-1.1,0c-1.6,0.7-2.8,0.8-3.7,0.7c-0.9-0.1-1.4-0.4-1.7-0.7
		c-0.4,0.1-0.8,0.3-1.1,0.4c0,0-0.1,0-0.1,0c-0.1,0-0.2,0-0.3-0.1l-0.7,0.6c-0.1,0.1-0.4,0.1-0.5,0.1c-0.4-0.1-0.8-0.4-1-0.8
		c-0.1-0.1-0.1-0.2-0.2-0.3c-0.1,0.4-0.2,0.7-0.7,0.8c-0.4,0.1-1-0.1-1.6-0.7c-0.4-0.4-0.8-0.9-1-1.5c0,0,0,0,0-0.1
		c0-0.1-0.1-0.2-0.1-0.3c0,0,0-0.1,0-0.1c0-0.1-0.1-0.2-0.1-0.3c-0.1-0.2-0.2-0.4-0.3-0.6c-0.3-0.6-0.3-1.3-0.3-1.9
		c0.1-0.6,0.3-1.2,0.7-1.8c0.4-0.5,1-1,1.6-1.4c0.6-0.3,1.3-0.5,2-0.6c1.1,0,2,0.5,2.8,1.1c0.7,0.4,1.4,0.9,2.1,0.8
		c0.3,0,0.5-0.1,0.8-0.3c0.3-0.2,0.5-0.4,0.7-0.7c0.2-0.3,0.2-0.7,0.2-1.1c0-0.1,0-0.2,0-0.3c0-0.6,0-1.4,0-2.1c0-0.7,0-1.5-0.1-2.3
		c0-0.8,0-1.6-0.1-2.3c0-1.6,0-3.1-0.3-4.7c-0.1-0.8-0.3-1.6-0.3-2.4c-0.1-1.4,0-2.9,0.4-4.2c0.4-1.4,1.1-2.8,2.3-4
		c3.1-3.2,7.4-3.5,12.5-3.8c0.3,0,0.7,0,1-0.1c-0.1-0.2-0.3-0.5-0.4-0.7v0c-1-2-2.7-3.6-4.6-5.5c-2.6-2.6-5.7-5.6-8.5-11l0,0
		c-0.7-0.1-1.5-0.3-2.2-0.6c-0.9-0.3-1.8-0.8-2.8-1.4c-0.9-0.5-1.4-0.9-2-1.4c-0.7-0.5-3-2.3-4-2.3c-0.2,0-0.6,0.4-1,0.7
		c-0.3,0.3-0.6,0.5-0.9,0.7c-0.5,0.3-0.9,0.2-1.2-0.4c-0.1-0.2-0.1-0.5-0.1-0.8c-0.2,0.1-0.5,0.2-0.8,0.4c-0.7,0.4-1.3,0.6-1.9,0.7
		c-0.6,0-1.2-0.2-1.8-0.7c-0.7-0.6-1.5-1.4-2.2-2.3c-0.6-0.8-1.1-1.7-1.4-2.3C31.6,57,31,55.3,32,54.8c-0.4-0.6-0.7-1.7-0.6-2.4
		c0.3-0.3,0.9-0.4,1.3-0.5c-0.1-0.5-0.4-1.2-0.5-1.7c0.4-0.4,1.4-0.5,1.7-0.5c0-0.1-0.1-0.1-0.1-0.2c-0.1-0.4-0.2-0.8-0.2-1.3
		c1.2-0.9,4-0.4,4.2,0.2c0.4,0.4,0.7,1,0.9,1.6c0.1,0.4,0.3,0.9,0.4,1.3c0.3,0.9,0.5,1.8,1,2.2l0.1,0.1c0.7,0.8,1.4,1.1,2.1,1.5
		c0.3,0.1,0.6,0.3,1,0.5c0.3,0.2,0.8,0.4,1.2,0.6c1.6,0.8,3,1.6,5.1,2.9c0.1-0.1,0.2-0.1,0.3-0.2c-0.4-1.7-1.1-3.9-1.8-6
		c-0.6-1.7-1.2-3.2-1.7-4.2c-0.3-0.5-0.4-0.8-0.5-1c-0.1-0.4-0.2-0.5-0.8-0.9c-0.1-0.1-0.3-0.1-0.4-0.2c-0.4-0.2-0.7-0.3-0.8-0.8
		c-0.1-0.3,0-0.7,0.3-1c0,0,0,0,0.1-0.1c-0.5-0.3-0.9-0.7-1.3-1.1c-0.6-0.7-1.2-1.7-1.6-2.7c-0.3-0.7-0.4-1.4-0.5-2
		c-0.1-0.9-0.2-1.7-0.2-2.3c0-0.2,0.2-0.5,0.4-0.5c0.6,0,1.1,0,1.5,0.1c0,0,0-0.1,0-0.1c-0.1-0.3-0.1-0.6-0.3-0.9
		c-0.1-0.3,0.1-0.7,0.5-0.7c0.4,0,0.8,0,1.1,0c0.2,0,0.4,0,0.7-0.1c0,0,0-0.1,0-0.1c-0.1-0.3-0.2-0.7-0.1-0.9c0-0.1,0.2-0.2,0.3-0.3
		c0.7-0.2,1.3-0.3,1.9-0.2c0.1,0,0.2,0,0.3,0c0-0.2,0.1-0.4,0.2-0.5c0-0.1,0.3-0.2,0.4-0.2c0.6,0,1.1,0,1.6,0.1
		c0.5,0.1,0.9,0.2,1.2,0.5c0.4,0.2,0.8,0.5,1.1,0.9c0.8,0.8,1.3,1.9,1.4,3c0.2,1.1,0,2.3-0.5,3.2c-0.2,0.4-0.5,0.7-0.8,1
		c-0.1,0.1-0.3,0.2-0.4,0.3c-0.4,0.4-0.7,0.6-0.6,1.3c0.3,0.8,1.1,2.1,2.1,3.6c0.8,1.3,1.8,2.6,2.8,3.7c1.6-1.4,3-2.6,4.5-3.6h0
		c0.9-0.6,1.9-1.1,2.9-1.5c0,0,0,0,0,0c-0.1-0.1,0-0.1-0.1-0.1c-0.1,0-0.2,0.1-0.4,0.1c-0.4,0.2-0.9,0.5-1.8,0.4
		c-0.2,0-0.3,0-0.5-0.1c-0.5-0.2-0.8-0.5-1-0.9C59,43.6,59,43.2,59,42.8c0-0.2,0.1-0.5,0.1-0.7c0-0.2-0.1-0.4-0.2-0.7
		c-0.1-0.3-0.3-0.7-0.3-1.1c0-0.6,0.6-1.1,1.2-1.5c0.1,0,0.1-0.1,0.2-0.1c0.1-0.3,0.2-0.6,0.4-0.9c0,0,0.1-0.1,0.1-0.1
		c-0.3-0.1-0.5-0.4-0.7-0.7c-0.2-0.3-0.3-0.6-0.3-0.8c0,0,0,0-0.1-0.1c-0.4-0.2-1.1-0.6-1.4-2c-0.2-0.9,0-1.5,0.1-2.2
		c0.1-0.4,0.2-0.8,0.1-1.2c-0.1-0.5-0.2-0.9,0.1-1.3c0.2-0.4,0.7-0.6,1.8-0.6c0.4,0,1.1-0.1,2-0.4c0.6-0.2,1.2-0.4,1.7-0.7
		c0.5-0.7,1-1.1,1.7-1.4c0.7-0.3,1.5-0.5,2.6-0.7c0.1,0,0.3,0,0.6-0.1c0.5-0.1,1.2-0.2,1.8-0.2c0.3-0.5,0.5-1,0.9-1.4
		c0.4-0.6,1-0.9,1.6-1c1.1,0,2.2,0.7,2.9,1.7c0.4,0.5,0.7,1.1,0.8,1.7c0.1,0.4,0.1,0.7,0.1,1.1c0,0.1,0.1,0.1,0.1,0.2
		c0.1,0.4,0.4,0.8,0.7,1.2c0.3,0.3,0.5,0.6,0.8,0.7c0.6,0.2,1.1,0.7,1.6,1.1c0.6,0.5,1.1,1.1,1.4,1.7c0.2,0.4,0.3,0.7,0.5,1.1
		c0.1,0.2,0.1,0.5,0.3,0.7c0.2,0.4,0.5,0.7,0.8,1.1c0.4,0.4,0.8,0.7,1.3,1.1c0.6,0.5,1,1,1.3,1.6c0.5,1.1,0.5,2.3,0.6,3.5
		c0,0.7,0.2,1.4,0.5,2c0.4,0.5,0.9,1,1.9,1.3c0.1,0.1,0.3,0.3,0.3,0.4c0,0.1,0,0.2,0,0.3c-0.1,0.3-0.3,0.7-0.5,0.9
		c-0.3,0.2-0.6,0.3-1,0.4c0.1,1.2-0.1,2.6-0.4,3.9c-0.2,1.3-0.5,2.5-1,3.8c-0.2,0.4-1,2.3-1.4,2.5c-0.1,2.1,0.3,4,0.7,5
		c0.1,0.2,0.2,0.4,0.1,0.5c-0.1,0.1-0.4,0.2-0.6,0.2c-0.6,0-1.1-0.1-1.7-0.5c0.1,0.3,0.2,0.5,0.4,0.8c0,0,0,0.1,0,0.1
		c0,0.1,0,0.2,0,0.3c0.3,0.3,0.7,0.4,0.7,0.4c0.2,0.1,0.4,0.1,0.4,0.3c0,0.1-0.2,0.5-0.3,0.6c-0.7,0.5-1.5,0.8-2.4,0.8
		c-1.1,0-2.2-0.3-2.7-0.6c-0.1,0-0.1,0-0.2,0C78.9,64.6,78.8,64.6,78.7,64.6L78.7,64.6z"/>
	<path fill-rule="evenodd" clip-rule="evenodd" fill="#F8ABAD" d="M77.7,91c0,1.6,0.2,3.3,1.2,5.1c0.5,1,1.3,2,2.4,3.2
		c-0.7-1.3-1.3-2.6-1.7-3.9c-0.1-0.2-0.3-0.6,0.2-0.8c0.4-0.2,0.6,0.3,0.7,0.5c0.5,1.3,1,2.6,1.8,3.9c0.8,1.3,1.7,2.5,3,3.6
		c0.2,0.1,0.3,0.5,0.1,0.7c-0.1,0.2-0.5,0.2-0.7,0c-3.6-2.6-5.6-4.8-6.7-6.8c-1.1-2.1-1.3-3.9-1.3-5.6c0-0.2,0-0.6,0.5-0.6
		C77.7,90.4,77.7,90.8,77.7,91L77.7,91z"/>
	<path fill-rule="evenodd" clip-rule="evenodd" fill="#F8ABAD" d="M85.1,93.9c0,1,0,2.4,0.4,3.8c0.4,1.4,1.2,2.8,2.9,3.8
		c0.2,0.1,0.6,0.4,0.4,0.8c-0.3,0.4-0.7,0.1-0.9,0c-1.9-1.2-2.8-2.8-3.3-4.3c-0.4-1.6-0.4-3-0.4-4.1c0-0.2,0-0.6,0.5-0.6
		C85.1,93.3,85.1,93.7,85.1,93.9L85.1,93.9z"/>
	<path fill-rule="evenodd" clip-rule="evenodd" d="M28,47.6v-0.3c0.1,0,0.3-0.1,0.4-0.2c0-0.1,0.1-0.3,0.1-0.5V35.7
		c0-0.2,0-0.4-0.1-0.5c0-0.1-0.1-0.2-0.3-0.2v-0.3h4.4c2,0,3.4,1.6,3.4,3.6c0,1-0.4,2.5-1.3,3.2l1.6,4.5c0.1,0.2,0.2,0.4,0.3,0.6
		c0.1,0.2,0.3,0.4,0.5,0.6v0.3l-2.3,0v-0.3c0.1,0,0.2-0.1,0.2-0.1c0.2-0.3,0-0.7-0.1-0.9l-1.4-4.1c-0.4,0-0.7,0.1-1,0.1h-2.7v4.4
		c0,0.2,0,0.4,0.1,0.5c0,0.1,0.2,0.1,0.4,0.2v0.3H28L28,47.6z"/>
	<path fill-rule="evenodd" clip-rule="evenodd" fill="#FFDA00" d="M32,36h-2.3l0,4.8H32c1.9,0,2.6-0.9,2.6-2.5
		C34.6,36.8,33.8,36,32,36L32,36z"/>
	<path fill-rule="evenodd" clip-rule="evenodd" d="M36.3,42.7l0.2-0.1l0.8,2.4l-0.2,0.1c-0.4-0.4-0.4-0.5-1.2-0.1
		c-1.3,0.6-2.7,0.8-4.8,0.8c-1.4,0-2.8-0.3-3.7-0.9c-1.3-0.9-1.7-2.3-1.7-3.4c0-1.8,0.9-4.4,5.5-4.4c1.2,0,2.7,0.3,3.7,0.5
		c0.9,0.2,1.3,0.5,1.4,0.5c0.1,0,0.3,0,0.4-0.1c0.1-0.1,0.3-0.3,0.4-0.3l0.2,0.1l-0.8,2.5l-0.2-0.1v0c0.1-0.5-0.4-0.8-1-1.1
		c-0.9-0.4-2.4-0.7-3.9-0.7c-3.2,0-4.3,1.5-4.3,3c0,1,0.7,2.1,1.8,2.7c0.5,0.2,2,0.3,3.2,0.3c0.8,0,3.1-0.4,4-1.3
		C36.2,43.1,36.4,42.9,36.3,42.7L36.3,42.7z"/>
	<path fill-rule="evenodd" clip-rule="evenodd" d="M30.6,47.3h0.2c0.2,0.9,0.7,0.7,1.2-0.1c0.4-0.6,0.5-1.4,0.4-2.2
		c-0.1-1.3-0.5-2.7-1-4c-0.5-1.6-1-3.2-1-4.8c0-1.2,0.3-2.3,1-3.1c0.5-0.6,1.2-1,2-1.1c0.3,0,0.6-0.1,0.6-0.5h0.2v2.4h-0.2
		c-0.2-0.7-0.6-0.6-1.1-0.4c-0.3,0.1-0.5,0.3-0.7,0.5c-0.5,0.5-0.7,1.3-0.7,2.2c0,1.4,0.5,2.9,0.9,4.4c0.5,1.4,0.9,2.9,1,4.4
		c0.1,1.1-0.1,2.2-0.6,3.1c-0.3,0.6-0.8,1-1.5,1.3c-0.5,0.2-0.6,0.4-0.7,0.7h-0.2V47.3L30.6,47.3z"/>
	<path fill-rule="evenodd" clip-rule="evenodd" fill="#FFDA00" d="M82.7,122.2C82.7,122.2,82.7,122.2,82.7,122.2
		c0.1,0.2,0.1,0.4,0.3,0.5c0.1,0.2,0.3,0.3,0.5,0.4c0.1,0,0.2,0.1,0.3,0.1c0-0.2,0-0.4,0-0.5c0-0.2,0-0.4,0-0.5c-0.1,0-0.3,0-0.4,0
		C83.2,122.1,83,122.1,82.7,122.2L82.7,122.2z"/>
	<path fill-rule="evenodd" clip-rule="evenodd" fill="#FFDA00" d="M46.9,118.9c-0.1-0.2-0.3-0.4-0.4-0.5c-0.1,0-0.1,0-0.2,0
		c-0.1,0-0.3,0-0.4,0c0.1,0.2,0.1,0.4,0.2,0.5c0.1,0.1,0.2,0.2,0.3,0.3L46.9,118.9L46.9,118.9z"/>
	<path fill-rule="evenodd" clip-rule="evenodd" fill="#FFDA00" d="M44.5,118.4c-0.1-0.1-0.3-0.1-0.4-0.1c-0.3,0-0.5,0-0.8,0.1
		c0.1,0.1,0.2,0.3,0.3,0.4c0.3,0.3,0.6,0.5,0.7,0.4c0.1,0-0.1,0,0-0.1C44.3,118.8,44.4,118.6,44.5,118.4L44.5,118.4z"/>
	<path fill-rule="evenodd" clip-rule="evenodd" fill="#FFDA00" d="M69.8,93.5c-0.1-0.5-0.3-1.1-0.4-1.6c-0.2,0.4-0.4,0.9-0.3,1.2
		c0,0.1,0.1,0.2,0.3,0.3C69.5,93.4,69.7,93.4,69.8,93.5L69.8,93.5z"/>
	<path fill-rule="evenodd" clip-rule="evenodd" fill="#FFDA00" d="M70.3,95.2c-0.1-0.3-0.1-0.5-0.2-0.8c-0.5,0-0.8-0.1-1.1-0.3
		c-0.5-0.3-0.7-0.6-0.8-1.1c-0.1-0.6,0.3-1.3,0.6-2c0.2-0.3,0.3-0.7,0.4-0.9c0-0.1,0-0.1,0-0.1c-0.3-1.5-0.6-3-1.2-4.4
		c-0.4,0-0.9,0.1-1.4,0.1c-4.9,0.3-9,0.6-11.9,3.5c-1.1,1.1-1.7,2.3-2.1,3.6c-0.4,1.3-0.5,2.6-0.4,3.9c0,1,0.3,2,0.4,3
		c0.2,1.3,0.8,2,1.6,3c0.1,0.2,0.3,0.3,0.3,0.4c0.1,0.2,0.3,0.4,0,0.7c-0.4,0.3-0.6,0-0.7-0.2c-0.3-0.4-0.7-0.8-1-1.2
		c0,0.4,0,0.9,0,1.3c0,0.8,0,1.6,0.1,2.3c0,0.7,0,1.5,0.1,2.3c0,0.7,0,1.5,0,2.1c0,0.1,0,0.2,0,0.3c0,0.6,0,1.2-0.4,1.7
		c-0.3,0.3-0.6,0.6-1,0.9c-0.3,0.2-0.7,0.4-1.2,0.4c-1,0.1-1.8-0.4-2.7-0.9c-0.7-0.4-1.5-0.9-2.3-0.9c-0.5,0-1.1,0.2-1.6,0.4
		c-0.5,0.3-1,0.7-1.3,1.1c-0.3,0.4-0.5,0.9-0.5,1.3c0,0.1,0,0.3,0,0.4c0.2-0.4,0.4-0.7,0.7-1c0.5-0.5,1.2-0.8,1.8-0.9
		c0.3,0,0.5,0,0.8,0c0.2,0,0.6,0,0.5,0.5c0,0.5-0.4,0.5-0.6,0.4c-0.2,0-0.4,0-0.5,0c-0.5,0.1-0.9,0.3-1.3,0.6
		c-0.4,0.4-0.6,0.8-0.7,1.5v0c0,0.3,0,0.5,0,0.8c0,0.1,0.1,0.1,0.1,0.2c0.5-0.2,0.9-0.3,1.4-0.2c0.3,0,0.5,0.1,0.7,0.2
		c0-0.6,0-1.2,0.3-1.7c0.3-0.7,1-1.3,2.5-1.6c0.2,0,0.6-0.1,0.6,0.4c0.1,0.5-0.3,0.5-0.5,0.6c-1,0.2-1.5,0.5-1.7,1
		c-0.2,0.4-0.2,1-0.1,1.6c0.1-0.1,0.2-0.1,0.3-0.2c0.2,0,0.4-0.1,0.4-0.1c0,0,0.1,0,0.1,0c0.4,0.1,0.6,0.5,0.9,0.9c0,0,0,0.1,0,0.1
		c0.1,0,0.2,0.1,0.3,0.2c0,0,0,0,0,0c0.3-0.1,0.6-0.2,0.9-0.3c0.8-0.3,1.8-0.7,2.6-0.8c0.3,0,0.6,0,0.6,0.4c0,0.5-0.3,0.5-0.5,0.5
		c-0.4,0-0.9,0.2-1.4,0.3c0.2,0.1,0.4,0.1,0.7,0.2c0.7,0.1,1.8,0,3.2-0.7c0.4-0.2,1-0.1,1.6,0c0.3,0,0.5,0.1,0.7,0.1
		c0.3,0,0.7-0.3,1-0.6c0.4-0.4,0.6-0.8,0.6-1.2c0.1-1.3-1-1.8-2.1-1.9c-0.1,0-0.2,0-0.4,0.1c-0.2,0.1-0.4,0.3-0.5,0.5
		c-0.2,0.2-0.4,0.5-0.8,0.2c-0.4-0.3-0.1-0.6,0-0.8c0.3-0.3,0.5-0.5,0.8-0.7c0.3-0.2,0.6-0.3,0.9-0.2c0.6,0,1,0.2,1.4,0.3
		c0.1-1.2,0.5-2.1,0.9-3.1c0.3-0.8,0.7-1.8,0.8-2.6c0.1-0.9,0-1.8-0.3-3c-0.1-0.2-0.2-0.6,0.3-0.7c0.5-0.1,0.6,0.2,0.6,0.4
		c0.4,1.2,0.5,2.3,0.4,3.2c1.2-1.3,1-2.4,0.9-3.5c-0.1-0.6-0.2-1.2-0.1-2c0.1-1.1,0.9-2.3,2.1-3.4c0.5-0.5,1.1-1,1.7-1.5
		c-1.3,0.3-2.5,0.4-3.5,0.3c-1.3-0.2-2.2-0.7-2.5-1.8c-0.4-1.3,0.3-2.3,1.2-3.2c0.8-0.8,1.9-1.4,2.8-1.6c0.2-0.1,0.6-0.2,0.7,0.3
		c0.1,0.5-0.3,0.6-0.5,0.6C62,92.8,61,93.4,60.3,94c-0.6,0.6-1.2,1.3-0.9,2.2c0.2,0.7,0.8,1,1.7,1.1c1,0.1,2.3,0,3.6-0.3
		C67,96.6,69.3,95.7,70.3,95.2L70.3,95.2z"/>
	<path fill-rule="evenodd" clip-rule="evenodd" fill="#FFDA00" d="M80.6,119.5c-0.1,0.3-0.1,0.6-0.1,1c0,0.4,0.1,0.8,0.3,1.1
		c0.1-0.2,0.3-0.4,0.6-0.5c-0.1-0.4-0.1-0.7-0.1-1.1C81,119.9,80.8,119.7,80.6,119.5C80.6,119.6,80.6,119.6,80.6,119.5L80.6,119.5z"
		/>
	<path fill-rule="evenodd" clip-rule="evenodd" fill="#FFDA00" d="M87.3,88c0.1,0.3,0.2,0.6,0.2,0.9c0.1,0.8,0.1,1.7,0,2.7
		c0.7,0.5,1.4,0.9,2.1,1.1c0.8,0.2,1.7,0.3,2.7,0.3c2.5,0,4.6-1,6.1-2.5c1.6-1.6,2.5-3.9,2.6-6.5c0-1.6-0.2-3.2-0.6-4.7
		c-0.5-1.8-1.2-3.4-2-4.9c-0.9-1.6-1.8-3-2.6-4.4c-2.1-3.3-3.9-6.3-5-10.6c-0.4-1.6-0.6-3.2-0.7-4.7c-0.1-1.4,0-2.6,0.3-3.6
		c0.3-1,0.7-2,1.3-2.9c0.7-0.8,1.6-1.4,2.9-1.5c1.4-0.1,2.6,0.5,3.5,1.4c1.1,1.1,1.7,2.6,1.8,3.9c0,0.4-0.2,1-0.4,1.6
		c-0.1,0.4-0.3,0.8-0.3,1c0,0,0,0.1,0,0.2c-0.3,0.5-0.4,1.7-0.5,2.9c-0.1,1.2-0.1,2.5,0.1,3.4c0.1,0.4,0.2,0.8,0.3,1.2
		c0.2-1.4,0.7-2.7,1-3.3c0.1-0.2,0.4-0.6,0.8-0.4c0.4,0.3,0.2,0.7,0,0.9c-0.3,0.5-0.8,1.9-0.9,3.3c-0.1,0.9,0,1.8,0.5,2.5
		c0.1,0.1,0.1,0.1,0.1,0.2c0.1,0.1,0.2,0.3,0.3,0.4c0.1,0,0.1,0.1,0.2,0.2c-0.1-0.3-0.1-0.5-0.2-0.8c-0.2-1.4,0-3,0.2-4
		c0.1-0.2,0.2-0.7,0.7-0.6c0.5,0.1,0.3,0.6,0.3,0.8c-0.2,0.9-0.4,2.3-0.2,3.6c0.1,0.8,0.5,1.6,1,2.1c0,0,0.1,0,0.1,0.1
		c0.1,0,0.1,0.1,0.2,0.1c-0.1-0.3-0.2-0.5-0.3-0.8c-0.4-1.3-0.5-2.8-0.1-4.7c0-0.2,0.1-0.7,0.6-0.6c0.5,0.1,0.4,0.5,0.4,0.8
		c-0.3,1.7-0.3,3.1,0.1,4.2c0.3,1.1,0.9,1.9,1.7,2.6c0,0,0,0,0,0c-0.1-1-0.5-1.8-0.8-2.6c-0.3-0.6-0.5-1.1-0.6-1.7
		c-0.1-0.7-0.2-1.5-0.2-2.3c0-0.8,0-1.6-0.2-2.2c-0.2-1-0.6-2.1-1-3c-0.4-0.9-0.8-1.6-1.1-2c0,0-0.1-0.3-0.1-0.3c0-3-0.8-5.4-2-7.1
		c-1.3-1.8-3-2.7-5-2.7c-0.6,0-1.1,0.1-1.7,0.2c-0.5,0.1-1,0.4-1.4,0.6c-1,0.6-1.8,1.6-2.5,2.7c-0.6,1.1-1,2.5-1.2,3.9
		c-0.2,2.3-0.1,4.5,0.4,6.5c0.4,2.1,1.2,4.1,2.1,6.2c1,2.2,2.2,4.3,3.4,6.4c2.5,4.4,4.8,8.4,4.6,12.2c-0.1,1.8-0.8,3.2-1.8,4.1
		c-1.2,1.1-2.7,1.6-4.3,1.6c-1.2,0-2.6-0.3-3.8-0.8C88,88.4,87.6,88.2,87.3,88L87.3,88z"/>
	<path fill-rule="evenodd" clip-rule="evenodd" d="M61.5,37.3c0.2,0.1,0.3,0.3,0.4,0.5c0.2,0.3,1.1,1.8,1.2,1.8
		c0.7,0.1,2.1-0.9,2.2-1.6c0-0.3-0.2-0.6-0.6-1c-0.7-0.7-1.7-1.4-2.7-0.8C61.9,36.4,61.6,37.1,61.5,37.3L61.5,37.3z"/>
	<path fill-rule="evenodd" clip-rule="evenodd" d="M54.4,54.1c0-0.1,0.1-0.3,0.2-0.5c0-0.1,0.1-0.2,0.1-0.2c0.1-0.4,0.3-0.8,0.5-1.2
		c0.1-0.4,0.3-0.8,0.4-1.2c-0.9,0.8-1.6,1.6-2,2.5c-0.4,0.8-0.7,1.6-0.7,2.7C53.5,55.7,53.9,55,54.4,54.1L54.4,54.1z"/>
	<path fill-rule="evenodd" clip-rule="evenodd" fill="#FFDA00" d="M85,38.8c-0.2-0.5-0.5-1-0.9-1.4c0,0.5,0,1.2-0.1,1.8
		c0,0.2,0,0.4-0.1,0.6C84.3,39.5,84.7,39.2,85,38.8L85,38.8z"/>
	<path fill-rule="evenodd" clip-rule="evenodd" fill="#FFDA00" d="M79.8,63.8c0.4,0.2,1.3,0.4,2.2,0.4c0.4,0,0.7,0,1.1-0.2
		c-0.1-0.1-0.3-0.2-0.5-0.4c-1.3,0-4.4-1.4-5.1-5.4c0.1,0.6,0.2,1.3,0.4,1.9C78.2,61.3,78.8,62.5,79.8,63.8L79.8,63.8z"/>
	<path fill-rule="evenodd" clip-rule="evenodd" fill="#FFDA00" d="M67.7,60.3c1.1,2.9,3.1,7.5,4.8,11.5c0.7,1.7,1.4,3.3,2,4.7
		c0.1,0.2,0.2,0.4-0.3,0.6c-0.4,0.2-0.5,0-0.6-0.3c-0.3-0.6-0.6-1.3-1-2.2c0,0,0,0,0,0c-0.3,0.2-0.7,0.4-0.8,0.5
		c-0.2,0-0.6,0.2-0.7-0.3c-0.1-0.5,0.3-0.5,0.5-0.7c0.3-0.1,0.5-0.3,0.6-0.4c-0.2-0.5-0.4-0.9-0.6-1.4c-0.3,0.4-0.8,0.7-1.3,1
		c-0.5,0.3-1.1,0.5-1.7,0.6c-0.2,0-0.6,0.2-0.7-0.3C68,73.1,68.3,73,68.6,73c0.5-0.1,1-0.3,1.5-0.5c0.4-0.2,1.1-0.7,1.3-1.1
		c-1-2.4-2.2-5-3.1-7.3c-0.2,0.7-0.5,1.3-0.8,1.9c-0.7,1.1-1.8,1.9-2.9,2c-0.9,0.1-1.7-0.2-2.4-0.6c-0.6-0.3-1.1-0.7-1.5-1
		c-0.1,0-0.2,0-0.3,0.1c-2,0.5-3.5,1-5.2,1c2.7,4.9,5.6,7.8,8.1,10.3c2,1.9,3.6,3.5,4.8,5.7l0,0c1.2,2,1.6,4.2,2.1,6.4
		c0,0.1,0,0.2,0.1,0.5c0.5,2.5,1,4.9,1.9,7.1c0.9,2.1,2.3,4,4.6,5.3c1.1,0.7,2.1,1.3,3.2,1.8c1.1,0.5,2.2,1,3.5,1.4
		c0.8,0.3,1.4,0.6,2.1,1c0.6,0.4,1.2,0.9,1.6,1.5c1.1,1.5,1,2.9,0.9,6.9c0,0.1,0,0.3,0,0.4c0.7,0.1,0.8,0.3,1.4,0.1
		c0.3-0.1,0.5-0.1,0.8-0.1c0.3,0,0.6,0.1,0.9,0.2c0.3,0.1,0.5,0.3,0.7,0.5c0.1,0.2,0.4,0.5,0,0.8c-0.4,0.3-0.6,0-0.8-0.2
		c-0.1-0.1-0.2-0.2-0.3-0.3c-0.1-0.1-0.3-0.1-0.5-0.1c-0.1,0-0.3,0-0.5,0.1h0c-0.9,0.3-1.1,0-1.9-0.1c-0.3,0-0.6,0-0.9,0
		c-0.9,0.1-3.1-0.9-3.1-0.9c-1.1,0.5-1.7,0.9-2,1.3c-0.3,0.4-0.5,0.7-0.5,0.9c0,0,0,0.1-0.1,0.2c0,0.1-0.1,0.2-0.1,0.2
		c0,0,0,0.1,0,0.1c0,0.1,0.1,0.3,0.3,0.4c0.1,0.1,0.1,0.1,0.2,0.2c0.1-0.2,0.2-0.4,0.3-0.6c0.3-0.5,0.8-0.8,1.3-1.1
		c0.8-0.4,1.9-0.4,3.1,0c0.2,0.1,0.6,0.2,0.4,0.7c-0.2,0.4-0.5,0.3-0.7,0.2c-0.9-0.4-1.7-0.3-2.3,0c-0.4,0.2-0.7,0.5-0.9,0.8
		c-0.2,0.3-0.4,0.7-0.4,1c0,0.4,0,0.7,0.2,1c0.1,0,0.1,0.1,0.1,0.2c0.3,0,0.6-0.1,0.9-0.1c0.2,0,0.4,0,0.7,0c0.1-0.4,0.4-0.7,0.9-1
		c0.4-0.3,1-0.5,1.7-0.5c0.4,0,0.7,0,1.1,0.1c0.2,0.1,0.5,0.1,0.4,0.6c-0.1,0.5-0.4,0.4-0.7,0.3c-0.3-0.1-0.6-0.1-0.8-0.1
		c-0.5,0-0.9,0.1-1.2,0.3c-0.2,0.1-0.4,0.3-0.5,0.5c0.1,0.1,0.2,0.1,0.4,0.1c0.3,0.1,0.7,0.1,1,0.2c0.2,0,0.5,0,0.7-0.1
		c0.2,0,0.5-0.1,0.7-0.2c0.4-0.1,0.8-0.4,1.1-0.5c0.3-0.1,0.5-0.3,0.7-0.3c0.2-0.1,0.5-0.2,0.7,0.3c0.2,0.4-0.2,0.6-0.4,0.7
		c-0.1,0-0.3,0.1-0.6,0.3c-0.2,0.1-0.3,0.2-0.5,0.3c0.3,0.2,0.6,0.3,1,0.4c0.8,0.2,1.5,0.1,1.8-0.1l0,0c0.1,0,0.1-0.1,0.3-0.2
		c0.5-0.5,1.4-1.2,2.2-1.2c0.1,0,0.3,0,0.4,0c0.4,0,0.7,0,0.9,0c0.2-0.2,0.5-0.5,0.7-0.7c0.4-0.4,0.9-0.8,0.9-1c0,0-0.3-0.2-0.6-0.4
		c-0.3-0.1-0.5-0.3-0.7-0.4c-0.3-0.3-0.7-0.4-1.3-0.4c-0.5,0-1.1,0.2-1.7,0.7c-0.2,0.1-0.5,0.4-0.8,0c-0.3-0.4,0-0.7,0.3-0.8
		c0.7-0.5,1.5-0.8,2.2-0.8c0.3,0,0.5,0,0.8,0.1c0,0,0,0,0,0c-0.1-0.2-0.2-0.3-0.3-0.4c-0.3-0.2-0.5-0.3-0.8-0.4c-0.3,0-0.7,0-1,0
		c-0.2,0-0.5,0-0.5-0.4c0-0.5,0.2-0.5,0.4-0.5c0.4,0,0.8-0.1,1.2,0c0.1,0,0.2,0,0.3,0.1c-0.1-0.3-0.2-0.5-0.3-0.7
		c-0.2-0.7-0.5-1.6-0.7-2.4c-0.1-0.3-0.1-0.6-0.2-0.9c0,0.2-0.1,0.6-0.6,0.6c-0.5-0.1-0.4-0.5-0.3-0.7c0.2-1.3,0.1-2.7-0.4-3.9
		c-0.5-1-1.2-1.9-2.2-2.4c-0.2-0.1-0.5-0.3-0.4-0.7c0.2-0.4,0.5-0.3,0.7-0.2c1.3,0.6,2.2,1.6,2.7,2.9c0.2,0.5,0.3,0.9,0.4,1.4
		c0-0.1,0-0.2,0-0.3c0.1-0.6,0.2-1.3,0.3-1.8c0.1-0.3,0.1-0.5,0.2-0.8c0.1-0.2,0.2-0.4,0.2-0.8c0,0-0.2,0-0.4-0.1
		c-0.3-0.1-0.5-0.1-0.8-0.3c-1.2-0.5-2.2-1.5-3.4-2.7c-0.2-0.2-0.4-0.4-0.7-0.7c-0.3-0.2-0.5-0.7-0.9-1.4c-0.3-0.6-0.7-1.5-1.1-2.5
		c-0.3-0.8-0.6-1.6-0.7-2.3c-0.1-0.7-0.1-1.3,0-1.9v0c0.5-1.6,0.6-3,0.4-4.2c-0.2-1.2-0.7-2.3-1.4-3.3c-0.5-0.9-1.4-1.9-2.2-2.9
		c-0.5-0.6-1-1.2-1.5-1.8c-1.1-1.4-1.9-2.7-2.4-3.9c-0.5-1.2-0.9-2.4-1.1-3.7c-0.4-2.1-0.3-4.4-0.3-6.7c0-0.7,0-1.4,0-2.1
		c-0.9-0.1-1.7-0.4-2.5-1.2c-0.2-0.2-0.4-0.4-0.5-0.5c0,0-0.1,0-0.1,0c-0.2,0-0.4,0-0.7,0c-1.6-0.2-3.2-1-4.4-2.5
		c-0.5-0.6-0.9-1.3-1.2-2c0.1,0.5,0.2,1.1,0.3,1.6c0.1,0.3-0.1,0.6-0.5,0.6C68,60.3,67.9,60.3,67.7,60.3L67.7,60.3z"/>
	<path fill-rule="evenodd" clip-rule="evenodd" fill="#FFDA00" d="M52.6,57.3c-0.1,0.1-0.1,0.1-0.2,0.2c-0.4,0.5-0.9,1.2-1.9,1.9
		c0,0,0.1,0,0.1,0c1.4-0.4,2.9-0.6,4-0.4c0.2,0,0.6,0.1,0.5,0.5c-0.1,0.5-0.4,0.5-0.7,0.4c-0.9-0.2-2.2,0-3.5,0.4
		c-1.2,0.4-2.4,0.9-3.2,1.6c-0.2,0.2-0.5,0.4-0.8,0c-0.3-0.4,0-0.6,0.2-0.8c0.6-0.5,1.4-1,2.2-1.3c-2.2-1.4-3.7-2.2-5.2-3
		c-0.4-0.2-0.7-0.4-1.2-0.6c-0.3-0.2-0.6-0.3-0.9-0.5c-0.8-0.4-1.5-0.7-2.4-1.7c-0.7-0.5-1-1.6-1.3-2.7c-0.1-0.4-0.2-0.8-0.4-1.2
		c-0.2-0.5-0.4-0.9-0.7-1.2c-0.4-0.4-0.9-0.4-1.4-0.4c-0.8,0.2-0.5,0.1-0.8,1c0.7,0,1.4,0.2,1.9,0.7c0.5,0.4,0.8,0.9,0.8,1.3
		c0,0.2,0.1,0.6-0.4,0.7c-0.5,0.1-0.5-0.3-0.6-0.5c0-0.2-0.2-0.5-0.5-0.7c-0.3-0.2-0.6-0.3-1.1-0.4c-0.2,0-0.5,0-0.7,0
		c-0.6,0.3-0.6,0.4-0.6,1.5c1.6,0.4,2.2,1.2,2.7,2c0.3,0.3,1,0.9,0.5,1.4c-0.5,0.5-1-0.5-1.3-0.8c-0.5-0.7-1.1-1.4-2.7-1.7
		c-0.8,0-0.3,1.4-0.3,1.5c0.3,0.2,0.4,0.4,0.8,0.6c0.4,0.2,1,0.4,1.9,1c0.2,0.1,0.5,0.3,0.3,0.7c-0.3,0.4-0.6,0.2-0.8,0.1
		c-0.9-0.5-1.4-0.8-1.8-0.9c-0.8,0.3-0.7,1.2-0.5,1.5c0.2,0.6,0.6,1.3,1.2,2.1c0.6,0.8,1.3,1.6,2,2.1c0.4,0.3,0.8,0.5,1.2,0.5
		c0.4,0,0.9-0.2,1.4-0.5c0.4-0.3,0.9-0.5,1.2-0.5c1.1-0.3,1,0.5,1.1,1.2c0.2-0.1,0.4-0.3,0.6-0.5c0.5-0.5,1.1-0.9,1.6-0.9
		c1.3,0,3.5,1.7,4.5,2.5c0.6,0.4,1.1,0.9,2,1.3c0.9,0.5,1.8,1,2.6,1.3c0.8,0.3,1.6,0.5,2.4,0.5c1.7,0.1,3.4-0.3,5.5-0.9
		c0.2-0.1,0.4-0.1,0.5-0.1c0.1,0,0.3,0,0.4,0.1c0.4,0.3,1,0.8,1.6,1.1c0.6,0.3,1.2,0.5,1.8,0.5c0.8,0,1.6-0.7,2.2-1.6
		c0.4-0.5,0.6-1.2,0.8-1.8c0.2-0.9,0.2-1.3-0.1-2.1C67,61,66.7,60.4,66.6,60c-1.8-0.9-3.1-3.3-3.7-5.5c-0.1,1.2,0,2.4,0.2,3.1
		c0.1,0.4-0.3,0.7-0.6,0.6c-1.9-0.7-2.7-1.4-3.1-2.3c-0.4,0.5-0.8,0.7-1.1,0.9c-0.1,0.1-0.2,0.1-0.2,0.1c-0.2,0.2-0.7,0.1-0.8-0.1
		c-0.2-0.5-0.4-1-0.4-1.5c-0.4,0.7-0.9,1.3-1.6,1.7c-0.2,0.1-0.5,0-0.7-0.2c-0.1-0.2-0.2-0.4-0.3-0.7c-0.4,0.5-0.9,0.9-1.6,1.2
		C52.7,57.3,52.7,57.3,52.6,57.3L52.6,57.3z"/>
	<path fill-rule="evenodd" clip-rule="evenodd" fill="#FFDA00" d="M54.8,50.4c-1-1.2-2.1-2.6-2.9-3.9c-1-1.5-1.9-3-2.2-3.8l0-0.1
		c-0.1-1.2,0.3-1.6,0.9-2.2c0.1-0.1,0.2-0.2,0.3-0.3c0.3-0.2,0.4-0.5,0.6-0.8c0.5-0.8,0.6-1.7,0.4-2.6c-0.1-0.9-0.6-1.8-1.2-2.5
		c-0.3-0.3-0.5-0.5-0.9-0.7c-0.3-0.2-0.6-0.3-0.9-0.4c-0.1,0-0.4-0.1-0.4,0.3c1,0.5,1.8,1.3,2.2,2.4c0.3,0.9,0.3,2-0.3,3.3
		c-0.1,0.2-0.2,0.4-0.6,0.3c-0.4-0.2-0.3-0.4-0.3-0.6c0.5-1,0.5-1.9,0.2-2.6c-0.3-0.9-1-1.5-1.8-1.9c-0.5-0.3-1-0.4-1.5-0.5
		c-0.6-0.1-0.8,0.1-0.9,0.6c0,0,0,0,0,0c1.1,0.2,2,0.8,2.6,1.8c0.5,0.8,0.7,2,0.5,3.5c0,0.3-0.1,0.5-0.5,0.4
		c-0.5-0.1-0.4-0.3-0.4-0.5c0.2-1.3,0-2.2-0.4-2.9c-0.4-0.7-1.1-1.1-2-1.3c-0.5-0.1-1-0.1-1.5,0c-0.2,0-0.4,0.8-0.3,1
		c0.9,0.3,1.5,0.9,2,1.6c0.9,1.2,1.3,2.7,1.6,3.9c0.1,0.2,0.1,0.5-0.4,0.6c-0.5,0.1-0.5-0.1-0.6-0.4c-0.3-1.1-0.7-2.5-1.4-3.5
		c-0.5-0.6-1.1-1.1-2-1.4c-0.3-0.1-1.2,0.5-1.2,0.9c0,0.2,0.1,0.4,0.1,0.6c0.1,0.6,0.3,1.3,0.5,1.9c0.4,0.9,0.8,1.7,1.4,2.4
		c0.5,0.6,1.1,1,1.7,1.2c0.4,0.1,0.4,0.8,0,0.9c-0.2,0.1-0.3,0.1-0.4,0.3c-0.1,0.1-0.1,0.2-0.1,0.3c0,0,0.1,0,0.2,0.1
		c0.1,0.1,0.3,0.1,0.5,0.3c0.9,0.5,1,0.8,1.2,1.3c0.1,0.2,0.2,0.5,0.4,0.9c0.5,1,1.2,2.6,1.8,4.3c0.7,1.9,1.3,4,1.7,5.6
		c0.4-0.4,0.7-0.8,1-1.1c0.1-0.1,0.1-0.2,0.2-0.3c0,0,0-0.1,0-0.1c0-1.5,0.3-2.6,0.9-3.7C53.2,52,53.9,51.2,54.8,50.4L54.8,50.4z"/>
	<path fill-rule="evenodd" clip-rule="evenodd" fill="#FFDA00" d="M72,25.4c0.2-0.5,0.6-0.7,0.9-0.8c0.3-0.1,0.6,0,0.8,0
		c0.4,0.1,0.9,0.4,1.2,0.8c0.3,0.4,0.5,0.9,0.6,1.4c0.1,0.7,0,1.3-0.3,1.8c-0.1,0.2-0.2,0.3-0.3,0.4c0.5-0.3,0.8-0.7,0.9-1.1
		c0.1-0.4,0.1-0.9,0-1.3c-0.1-0.5-0.4-1-0.7-1.4c-0.6-0.8-1.4-1.4-2.1-1.4c-0.3,0-0.6,0.3-0.9,0.6c-0.3,0.4-0.6,1-0.9,1.5
		c-0.1,0.1-0.3,0.3-0.4,0.3c-0.6,0-1.4,0.1-2,0.2c-0.2,0-0.4,0-0.6,0.1c-1,0.1-1.7,0.3-2.3,0.6c-0.5,0.3-1,0.7-1.4,1.2
		c0,0-0.1,0.1-0.1,0.1c-0.5,0.3-1.3,0.6-2,0.8c-0.9,0.3-1.8,0.4-2.2,0.4c-0.7,0-0.9,0-1,0.1c0,0.1,0,0.3,0.1,0.7v0.1
		c0,0.5-0.1,1-0.2,1.5c-0.1,0.5-0.2,1.1-0.1,1.8c0.2,0.9,0.6,1.2,0.9,1.3c0.3,0.1,0.4,0.3,0.5,0.6c0,0.3,0.1,0.5,0.3,0.8
		c0-0.1,0.1-0.1,0.1-0.2c0.2-0.4,0.3-0.8,0.6-0.9c0.6-0.4,1.2-0.4,1.9-0.3c0.5,0.1,1.4,0.6,2,1.2c0.6,0.6,0.9,1.3,0.9,1.9
		c-0.1,0.6-0.7,1.3-1.3,1.7c-0.7,0.4-1.4,0.7-2,0.6c-0.8-0.1-1.4-1.6-1.7-2.2c-0.1,0.2-0.2,0.4-0.3,0.6c0,0-0.1,0.2-0.2,0.3
		c-0.1,0.1-0.2,0.2-0.4,0.3c-0.4,0.3-0.8,0.6-0.8,0.7c0,0.2,0.1,0.5,0.2,0.7c0.1,0.3,0.3,0.7,0.3,1.1c0,0,0,0.1,0,0.2
		c0,0.1-0.1,0.3-0.1,0.5c0,0.3,0,0.5,0.1,0.8c0.1,0.2,0.2,0.3,0.4,0.4c0.1,0,0.1,0,0.2,0c0.7,0,1-0.1,1.4-0.3
		c0.3-0.1,0.5-0.3,0.9-0.2c0.3,0,0.5,0.2,0.7,0.4c0.1,0.1,0.2,0.2,0.3,0.3c0.5-0.2,1.1-0.3,1.7-0.4c0.8-0.2,1.7-0.6,2.4-1.2
		c0.8-0.7,1.4-1.5,1.9-2.4c0.4-0.8,0.6-1.5,0.6-2.3c0.1-0.8,0-1.6-0.2-2.3c-0.1-0.2-0.2-0.5,0.2-0.7c0.5-0.1,0.6,0.1,0.6,0.4
		c0.3,0.8,0.4,1.7,0.3,2.7c-0.1,0.8-0.3,1.7-0.7,2.6c-0.5,1-1.2,2-2.1,2.7c-0.8,0.7-1.8,1.2-2.8,1.4c-0.6,0.1-1.2,0.3-1.7,0.4
		c-0.1,0.1-0.2,0.1-0.2,0.1c-1.2,0.4-2.3,1-3.3,1.6c-1.5,1-2.9,2.2-4.5,3.6c0,0,0.1,0,0.2,0c0.4,0.2,0.3,0.4,0.3,0.7
		c-0.2,0.5-0.3,0.9-0.5,1.3c-0.3,0.7-0.5,1.3-0.7,1.9c-0.1,0.3-0.1,0.6-0.1,0.9c0,0.2,0,0.3,0.1,0.5c0.9-0.8,1.4-2.4,1.8-3.6
		c0.1-0.3,0.2-0.6,0.3-0.9c0.1-0.3,0.4-0.4,0.6-0.3c0.2,0.1,0.4,0.4,0.3,0.6c-0.1,0.3-0.2,0.6-0.3,0.9c0,0.1-0.1,0.3-0.1,0.5
		c0,0.3-0.1,0.7-0.1,1.1c0,0.6,0,1.2,0.2,1.8c0.4-0.2,0.9-0.7,1.1-2.2c0-0.2,0-0.5,0-0.7c0-0.3,0-0.6,0-0.9c0-0.2,0.2-0.4,0.4-0.4
		c0.3,0,0.5,0.2,0.5,0.4c0,0,0,0,0,0c0,0.6,0,1.2-0.1,1.6c-0.1,1.5,0.1,2.5,1.9,3.3c-0.1-0.8-0.1-1.8,0-2.8c0.1-1.2,0.3-2.2,0.8-2.7
		c0.1-0.2,0.4-0.3,0.6-0.2c0.2,0.1,0.3,0.3,0.2,0.5c-0.3,2.4,1.3,6.9,3.9,7.5c-0.2-1-0.3-2.1-0.3-3.2c0-1.4,0.1-2.7,0.4-3.9
		c0.1-0.2,0.3-0.4,0.5-0.4c0.2,0,0.4,0.3,0.4,0.5c-0.1,0.6-0.1,1.1-0.1,1.6c0,2.5,0.7,4.3,1.7,5.6c1,1.3,2.4,2,3.8,2.2
		C73.5,61,73,60,72.7,59c-0.6-2-0.9-4.1-0.8-5.7c0-0.2,0-0.6,0.5-0.6c0.5,0,0.5,0.4,0.5,0.6c-0.1,1.6,0.2,3.6,0.8,5.4
		c0.5,1.6,1.3,3,2.2,3.9c0.8,0.8,1.7,0.9,2.6,1c-0.7-1.1-1.3-2.2-1.6-3.3c-0.4-1.4-0.5-2.8-0.5-4.3c0-1.1,0.2-2.1,0.5-3.1
		c0.1-0.2,0.2-0.5,0.7-0.4c0.5,0.1,0.3,0.5,0.3,0.7c-0.3,0.9-0.5,1.9-0.5,2.9c0,0.4,0,0.7,0,1c0-0.1,0.1-0.2,0.4-0.2
		c0.5,0,0.5,0.2,0.5,0.4c0.3,3.9,2.9,5.2,4.1,5.4c-0.3-0.7-0.6-1.6-0.8-2.5c-0.3-1.1-0.4-2.3-0.4-3.4c0-0.8,0-1.6,0.1-2.4
		c0.1-0.8,0.2-1.5,0.4-2c0.1-0.2,0.2-0.6,0.7-0.5c0.5,0.1,0.3,0.6,0.3,0.8c-0.2,0.5-0.3,1.1-0.4,1.8c-0.1,0.7-0.1,1.4-0.1,2.1
		c0-0.4,0.1-0.7,0.2-1.1c0.1-0.4,0.2-0.8,0.3-1.3c0-0.3,0.1-0.7,0.6-0.6c0.5,0.1,0.4,0.5,0.4,0.7c-0.1,0.5-0.2,1-0.3,1.4
		c-0.2,0.9-0.3,1.7-0.1,2.7c0.1,0.5,1,1.8,0.5,2.1c-0.4,0.3-0.6-0.1-0.7-0.3c-0.3-0.5-0.5-1-0.7-1.5c0,0.3,0.1,0.6,0.2,0.9
		c0,0,0,0,0,0c0.4,0.8,0.8,1.2,1.2,1.5c0.2,0.1,0.3,0.2,0.5,0.2c-0.3-1.2-0.5-2.9-0.5-4.7c0-1.8,0.4-3.6,1-5.1
		c0.1-0.2,0.4-0.4,0.6-0.4c0.2,0,0.3,0.4,0.3,0.6c0,0.4,0,0.8-0.1,1.3c0.3-0.9,0.5-1.8,0.6-2.7c0.3-1.5,0.5-2.9,0.3-4.2
		c0-0.1,0-0.3,0-0.4c0.2-0.2,0.6-0.1,0.9-0.1c0.2,0,0.4-0.1,0.6-0.3c-0.9-0.4-1.6-0.9-2-1.6c-0.5-0.7-0.7-1.6-0.7-2.4
		c0-0.5,0-1-0.1-1.5c-0.1,0.1-0.3,0.3-0.4,0.4c-0.5,0.4-0.9,0.7-1.5,0.9c-0.4,0.2-0.9-0.3-0.7-0.7c0.1-0.1,0.1-0.3,0.2-0.5
		c0,0-0.1,0.1-0.1,0.1c-0.8,0.7-1.7,0.9-2.7,0.9c-0.4,0-0.6-0.4-0.5-0.7c0.1-0.2,0.1-0.3,0.2-0.5c-0.8,0.9-1.8,1.7-3.1,2.1
		c-0.4,0.1-0.8-0.3-0.6-0.6c0.2-0.4,0.3-0.8,0.4-1.2c-0.7,0.9-1.7,1.6-2.7,2c-0.4,0.1-0.7-0.3-0.6-0.6c0.3-0.9,0.5-1.8,0.5-2.7
		c0-0.9-0.3-1.8-0.9-2.7c-0.1-0.2-0.3-0.5,0.1-0.7c0.4-0.3,0.6,0,0.7,0.2c0.7,1.1,1,2.2,1,3.2c0,0.7-0.1,1.3-0.2,2
		c0.5-0.3,0.9-0.7,1.3-1.2c0.6-0.7,0.9-1.5,1-2.3c0-0.2,0.3-0.5,0.5-0.5c0.2,0,0.5,0.2,0.5,0.5c0,0.8,0,1.6-0.1,2.4
		c-0.1,0.4-0.1,0.7-0.2,1c0.7-0.4,1.3-0.9,1.8-1.5c0.7-0.9,1.1-1.8,1-2.4c0-0.2,0.1-0.5,0.3-0.5c0.2-0.1,0.5,0,0.6,0.3
		c0.2,0.5,0.2,1.2,0.1,2c-0.1,0.5-0.2,1-0.4,1.6c0.5-0.1,1-0.3,1.4-0.6c0.5-0.5,0.9-1.4,0.9-3c-0.2-0.2-0.4-0.4-0.7-0.6
		c-0.4-0.4-0.8-0.9-1-1.4c-0.1-0.3-0.2-0.5-0.3-0.7c-0.1-0.3-0.2-0.6-0.4-0.9c-0.3-0.5-0.8-1-1.3-1.5c-0.4-0.4-0.9-0.7-1.3-0.9
		c-0.4-0.2-0.8-0.5-1.2-0.9c-0.2-0.2-0.3-0.4-0.4-0.6c-0.4,0.6-0.9,1.1-1.8,1.4c-0.2,0.1-0.4,0.1-0.6-0.3c-0.1-0.1-0.1-0.3,0-0.3
		c0,0-0.1,0-0.1,0c-0.2,0.1-0.5,0.1-0.6-0.3c-0.1-0.5,0.1-0.5,0.3-0.6c0.4-0.1,0.7-0.3,0.8-0.6c0.2-0.3,0.3-0.7,0.2-1.2
		c0-0.4-0.2-0.7-0.4-1c-0.2-0.3-0.4-0.4-0.6-0.5c-0.1,0-0.3,0-0.5,0c-0.1,0-0.2,0.1-0.3,0.3c-0.1,0.2-0.2,0.4-0.6,0.2
		C71.8,25.8,71.9,25.6,72,25.4L72,25.4z"/>
	<path fill-rule="evenodd" clip-rule="evenodd" d="M63.9,29.8c-0.2-0.2-0.2-0.6,0.1-0.8c0,0,0,0,0,0c0.3-0.2,0.9-0.6,1.6-0.8
		c0.3-0.1,0.5-0.1,0.7-0.1c0.2,0,0.5,0.1,0.7,0.2c0.3,0.1,0.5,0.3,0.8,0.4c0.3,0.2,0.6,0.5,0.7,0.6c0,0.1,0.1,0.3,0.1,0.4
		c-0.1,0.4-0.4,0.5-0.9,0.6c-0.3,0-0.7,0.1-1,0.3c-1.6,0.8-1.9,0.4-2.4-0.3C64.1,30.1,64,29.9,63.9,29.8L63.9,29.8z"/>
	<path fill-rule="evenodd" clip-rule="evenodd" fill="#FFDA00" d="M64.9,29.5C65,29.6,65,29.6,64.9,29.5c0.3,0.3,0.4,0.5,1.3,0
		c0.3-0.2,0.6-0.3,0.9-0.3c-0.1-0.1-0.3-0.1-0.4-0.2C66.6,29,66.5,29,66.4,29c-0.1,0-0.3,0-0.4,0.1C65.5,29.2,65.2,29.4,64.9,29.5
		L64.9,29.5z"/>
	<path fill-rule="evenodd" clip-rule="evenodd" d="M65.7,31.9c1.6,0.8,2.5,2.2,3,3.6c0.3,1,0.3,2.1,0.1,3c-0.2,1-0.7,1.9-1.4,2.6
		c-1,1-2.3,1.6-4.2,1.6c-0.2,0-0.5,0-0.5-0.5c0-0.5,0.3-0.5,0.5-0.5c1.5,0,2.7-0.5,3.5-1.3c0.6-0.6,1-1.3,1.2-2.2
		c0.2-0.8,0.1-1.7-0.1-2.6c-0.4-1.2-1.2-2.3-2.5-3c-0.2-0.1-0.4-0.2-0.2-0.7C65.3,31.7,65.5,31.8,65.7,31.9L65.7,31.9z"/>
	<path fill-rule="evenodd" clip-rule="evenodd" d="M72.5,44.8c-0.1,0.7-0.1,1.6,0.1,2.5c0.1,0.6,0.4,1.1,0.8,1.6
		c0-0.6,0-1.2,0.1-1.8c0.1-1,0.4-1.9,0.7-2.7c0.1-0.2,0.2-0.4,0.6-0.3c0.5,0.2,0.4,0.4,0.3,0.6c-0.3,0.7-0.5,1.5-0.7,2.4
		c-0.1,0.8-0.1,1.7,0,2.7c0,0.4-0.4,0.7-0.7,0.5c-1.2-0.7-1.7-1.7-2-2.8c-0.3-1-0.2-2.1-0.1-2.9c0-0.2,0.1-0.5,0.5-0.4
		C72.6,44.3,72.6,44.6,72.5,44.8L72.5,44.8z"/>
	<path fill-rule="evenodd" clip-rule="evenodd" d="M77.7,43.5c0,0.2-0.1,0.5-0.1,0.7c-0.1,1,0.1,2.2,0.6,3.2
		c0.4,0.8,0.9,1.4,1.7,1.7c-0.2-0.6-0.3-1.2-0.3-1.8c0-1.2,0.3-2.5,0.8-3.4c0.1-0.2,0.2-0.4,0.6-0.2c0.4,0.2,0.3,0.4,0.2,0.7
		c-0.4,0.8-0.7,1.8-0.7,2.9c0,0.8,0.2,1.6,0.7,2.2c0.1,0.2,0.2,0.4,0.1,0.5c-0.2,0.4-0.8,0.3-1.1,0.2c-1.4-0.3-2.3-1.2-2.9-2.4
		c-0.6-1.1-0.8-2.5-0.7-3.7c0-0.3,0.1-0.5,0.1-0.8c0-0.2,0.1-0.5,0.6-0.4C77.8,43,77.8,43.2,77.7,43.5L77.7,43.5z"/>
	<path fill-rule="evenodd" clip-rule="evenodd" d="M65.9,52.1c-0.1,0.5-0.1,1-0.1,1.6c0,0.7,0.2,1.4,0.4,1.9
		c0.1,0.2,0.2,0.4-0.2,0.6c-0.4,0.2-0.5,0-0.6-0.2c-0.3-0.7-0.5-1.5-0.5-2.3c-0.1-1,0-1.9,0.2-2.5v0c-0.3-0.4-0.4-0.8-0.6-1.3
		c-0.3-1.1-0.1-2.2,0.2-3.1c0.1-0.2,0.2-0.6,0.7-0.4c0.5,0.1,0.3,0.5,0.2,0.7c-0.3,0.8-0.4,1.7-0.2,2.5c0.1,0.3,0.2,0.6,0.4,0.9
		c0-0.4,0-0.8,0.1-1.2c0.1-0.7,0.4-1.3,0.7-1.8c0.1-0.2,0.4-0.5,0.8-0.3c0.4,0.3,0.2,0.6,0.1,0.8c-0.3,0.4-0.5,0.9-0.6,1.4
		c-0.1,0.6-0.1,1.3,0,2.2c0.1,0.4-0.4,0.7-0.8,0.5C66,52.2,65.9,52.2,65.9,52.1L65.9,52.1z"/>
	<path fill-rule="evenodd" clip-rule="evenodd" d="M71.3,53.9c0,0.1,0,0.3,0,0.5c-0.1,1.1-0.2,3.6,0.9,4.6c0.2,0.1,0.4,0.3,0.1,0.7
		c-0.3,0.4-0.5,0.2-0.7,0c-1.5-1.3-1.3-4.1-1.2-5.4c0-0.2,0-0.4,0-0.4c0-0.3,0-0.6,0.5-0.6C71.3,53.3,71.3,53.6,71.3,53.9L71.3,53.9
		z"/>
	<path fill-rule="evenodd" clip-rule="evenodd" d="M74.3,55.1c-0.1,0.9,0,1.7,0.1,2.4c0.1,0.7,0.4,1.4,0.7,2.2
		c0.1,0.2,0.2,0.4-0.3,0.6c-0.4,0.2-0.5-0.1-0.6-0.3c-0.3-0.8-0.5-1.5-0.7-2.3c-0.2-0.8-0.2-1.7-0.2-2.6c0-0.2,0-0.6,0.5-0.6
		C74.3,54.6,74.3,54.9,74.3,55.1L74.3,55.1z"/>
	<path fill-rule="evenodd" clip-rule="evenodd" d="M80,54.3c-0.2,1.1,0,2.3,0.2,3.4c0,0.3,0.1,0.6-0.3,0.7c-0.5,0.1-0.5-0.3-0.6-0.5
		c-0.3-1.2-0.4-2.5-0.2-3.8c0-0.2,0.1-0.7,0.6-0.6C80.1,53.6,80,54,80,54.3L80,54.3z"/>
	<path fill-rule="evenodd" clip-rule="evenodd" d="M70.2,70.4c-0.2,0.4-0.6,0.8-1.1,1.2c-0.4,0.3-0.9,0.5-1.3,0.6
		c-0.3,0-0.6,0.1-0.7-0.4c-0.1-0.5,0.3-0.5,0.5-0.5c0.3,0,0.6-0.2,0.9-0.4c0.4-0.3,0.7-0.6,0.9-0.9c0.1-0.2,0.3-0.5,0.7-0.3
		C70.5,69.9,70.3,70.2,70.2,70.4L70.2,70.4z"/>
	<path fill-rule="evenodd" clip-rule="evenodd" d="M69.5,68.5c-0.3,0.6-0.9,1.1-1.4,1.4c-0.6,0.4-1.2,0.6-1.7,0.6
		c-0.3,0-0.6,0-0.6-0.5c0-0.5,0.3-0.5,0.6-0.5c0.4,0,0.8-0.1,1.2-0.4c0.4-0.3,0.8-0.7,1.1-1.1c0.1-0.2,0.3-0.5,0.7-0.3
		C69.8,68,69.6,68.3,69.5,68.5L69.5,68.5z"/>
	<path fill-rule="evenodd" clip-rule="evenodd" d="M50.8,63.7c1,0.1,2.2,0.2,3.8,0.2c1.5,0,3.3-0.2,5.4-0.6c0.2,0,0.5-0.1,0.6,0.4
		c0.1,0.5-0.1,0.5-0.4,0.6c-2.1,0.4-4,0.6-5.6,0.6c-1.6,0-2.9-0.1-3.9-0.2c-0.2,0-0.5,0-0.4-0.5C50.3,63.7,50.5,63.7,50.8,63.7
		L50.8,63.7z"/>
</g>
</svg>
