<?xml version="1.0" encoding="utf-8"?>
<!-- Generator: Adobe Illustrator 19.1.0, SVG Export Plug-In . SVG Version: 6.00 Build 0)  -->
<svg version="1.1" id="Layer_1" xmlns="http://www.w3.org/2000/svg" xmlns:xlink="http://www.w3.org/1999/xlink" x="0px" y="0px"
	 viewBox="-184.5 305.7 143.8 181.9" style="enable-background:new -184.5 305.7 143.8 181.9;" xml:space="preserve">
<style type="text/css">
	.st0{fill:#FFFFFF;stroke:#000000;stroke-width:2.9999;stroke-miterlimit:2.6131;}
	.st1{fill:#FFFFFF;}
	.st2{fill:none;stroke:#000000;stroke-width:1.0001;stroke-miterlimit:2.6131;}
	.st3{fill:#FFFFFF;stroke:#000000;stroke-width:1.0001;stroke-miterlimit:2.6131;}
	.st4{fill:none;stroke:#000000;stroke-width:2.0001;stroke-miterlimit:2.6131;stroke-dasharray:10.0006,6.0004;}
	.st5{fill:none;stroke:#000000;stroke-width:2.9999;stroke-miterlimit:2.6131;stroke-dasharray:14.9996,8.9997;}
	.st6{fill:none;stroke:#000000;stroke-width:1.0001;stroke-miterlimit:2.6131;stroke-dasharray:5.0003,3.0002;}
	.st7{fill:#CD3529;}
	.st8{fill:none;stroke:#FFFFFF;stroke-width:2.9999;stroke-miterlimit:2.6131;}
	.st9{fill:none;stroke:#000000;stroke-width:5;stroke-miterlimit:2.6131;}
	.st10{fill:none;stroke:#000000;stroke-width:2.0001;stroke-miterlimit:2.6131;}
	.st11{stroke:#000000;stroke-width:1.0001;stroke-miterlimit:2.6131;}
	.st12{fill:#DFA055;stroke:#000000;stroke-width:1.0001;stroke-miterlimit:2.6131;}
	.st13{fill:#DFA055;}
</style>
<g>
	<path class="st0" d="M-183,380.8V348c49.5,11.9,32.2-34.4,32.2-34.4c12-5.8,38.2-6.4,38.2-6.4s26.3,0.5,38.2,6.4
		c0,0-15.4,46.8,32.2,34.4v32.8c0.1,82.2-70.4,105.3-70.4,105.3S-183.2,462.9-183,380.8L-183,380.8z"/>
	<path d="M-176.6,382.2v-26.2c44.1,6.9,34.7-36.7,34.7-36.7c10.9-5.3,29.4-4.9,29.4-4.9s18.5-0.4,29.3,4.9c0,0-9.4,43.6,34.7,36.7
		v26.2c0.1,74.7-64,95.7-64,95.7S-176.8,456.8-176.6,382.2L-176.6,382.2z"/>
	<path class="st1" d="M-46.6,356.8c-29.2-0.4-32.8-14.9-32.8-14.9l-93.4,80.8l17.8,27.9L-46.6,356.8L-46.6,356.8z"/>
	<path class="st2" d="M-176.6,382.2v-26.2 M-176.6,355.9c44.1,6.9,34.7-36.7,34.7-36.7c10.9-5.3,29.4-4.9,29.4-4.9
		s18.5-0.4,29.3,4.9c0,0-9.4,43.6,34.7,36.7 M-48.6,355.9v26.2 M-48.6,382.2c0.1,74.7-64,95.7-64,95.7s-64.1-21-64-95.7"/>
	<path class="st1" d="M-124,322.2l1.1,3.9l6-4.2c0,0,1.9-1.5,1.9,2.2c0,0-2,1.1-2,2.4c0,0-0.2,3.1-0.1,4.6v4.9c0,0-3.5,2.6-4.3,4.5
		h14.9c0,0-1.5-2.7-4.5-4.5c0,0-2.8-3.6,1.1-5l0.9-6.3l-1.9-0.7l-5.5-5.1L-124,322.2L-124,322.2z"/>
	<path d="M-116,329.4c0,0,1,0.7,1.1,1.5c0,0,0.8,0.7,0.9-0.1c0,0,0.5-1.6-0.9-2.5C-114.9,328.2-116.5,327.9-116,329.4L-116,329.4z"
		/>
	<path d="M-113.4,334.6c0,0-0.2,1.7,1,3.3c0,0,0.7,0.7,0.9-0.2c0,0-0.6-1.2-0.8-2.2C-112.3,335.5-112.5,333.4-113.4,334.6
		L-113.4,334.6z"/>
	<path d="M-116.8,338.8c0,0,0.4-3.1,1.1-3.6c0,0,1-1.1,0.9,1.3c0,0-0.4,2.3-1.1,2.7C-116,339.2-116.5,339.6-116.8,338.8
		L-116.8,338.8z"/>
	<path class="st3" d="M-105.5,367.6h-26.6c0-8.7-4.6-12.9-4.6-12.9h30.4L-105.5,367.6L-105.5,367.6z"/>
	<line class="st4" x1="-130.5" y1="358" x2="-105" y2="358"/>
	<path class="st3" d="M-125.7,406.8c14.2,0,23,6.9,23,6.9c19.8-22.6,7.1-47.4,7.1-47.4h-48.7c0,0,12.7,24.7-7.1,47.4
		C-151.4,413.7-139.9,406.8-125.7,406.8L-125.7,406.8z"/>
	<line class="st4" x1="-138.5" y1="370.9" x2="-96.1" y2="370.9"/>
	<path class="st3" d="M-98.8,340.1H-128c0,0,4.3,3.8,2,12.2c0,0,11.8-7.2,27.6,0C-98.4,352.4-96.2,344.4-98.8,340.1L-98.8,340.1z"/>
	<path class="st3" d="M-83.2,351.1h-39.4c0,0,8,13.1-0.4,21.5c0,0,24.7-10.8,36.3,1.7C-86.6,374.4-78.1,363.2-83.2,351.1
		L-83.2,351.1z"/>
	<path class="st3" d="M-119.2,415.5c-11.6,0.1-24.2,5.9-24.2,5.9c24.4-22.8,6-48.6,6-48.6h61.6c0,0,8.2,39.4-25,48.6
		C-100.8,421.5-107.6,415.5-119.2,415.5L-119.2,415.5z"/>
	<line class="st5" x1="-129.5" y1="377.8" x2="-77.2" y2="377.8"/>
	<line class="st4" x1="-116.6" y1="355.1" x2="-83.2" y2="355.1"/>
	<line class="st6" x1="-122.6" y1="343.2" x2="-99.1" y2="343.2"/>
	<path class="st7" d="M-95.3,399.4c0,0-3.9-2.9-7.9-2.9v0c0,4,2.9,7.9,2.9,7.9h-9.9c0,0,2.9-3.9,2.9-7.9v0c-4,0-7.9,2.9-7.9,2.9
		v-9.8c0,0,3.9,2.9,7.9,2.9v0c0-4-2.9-7.9-2.9-7.9h9.9c0,0-2.9,3.9-2.9,7.9v0c4,0,7.9-2.9,7.9-2.9V399.4L-95.3,399.4z"/>
	<path class="st8" d="M-163.8,390.5v-26.6 M-163.8,363.9c0,0,9.9-0.2,9.9,7.9c0,0,1.4,6.5-9.9,6.5"/>
	<path class="st9" d="M-149.2,372.1c-2.1-2.2-5.5-3.7-9.3-3.7c-6.5,0-11.7,4.2-11.7,9.3c0,5.2,5.2,9.3,11.7,9.3
		c4.5,0,8.3-2,10.3-4.9"/>
	<path class="st8" d="M-149.2,372.1c-2.1-2.2-5.5-3.7-9.3-3.7c-6.5,0-11.7,4.2-11.7,9.3c0,5.2,5.2,9.3,11.7,9.3c4.5,0,8.4-2,10.4-5"
		/>
	<path class="st9" d="M-148.9,391.5c0,0-4,0-4-4.9c0,0,0.4-3.5-2-6"/>
	<path class="st8" d="M-148.9,391.5c0,0-4,0-4-4.9c0,0,1.1-8.5-9.4-8.5"/>
	<line class="st9" x1="-163.8" y1="375.7" x2="-163.8" y2="365.8"/>
	<line class="st8" x1="-163.8" y1="375.7" x2="-163.8" y2="365.8"/>
	<path class="st1" d="M-162.4,365.4l-2.9,1c0-3.1-2.1-4-2.1-4h3.7L-162.4,365.4L-162.4,365.4z"/>
	<path class="st1" d="M-160.4,393h-6.9c0,0,2-1,2-3h2.9C-162.4,392-160.4,393-160.4,393L-160.4,393z"/>
	<path class="st8" d="M-103.5,450.9c-1.8-2.2-4.4-3.5-7.2-3.5c-5.5,0-9.9,5-9.9,11.2c0,6.2,4.4,11.2,9.9,11.2c3.1,0,5.9-1.6,7.8-4.2
		 M-103.2,469.7L-103.2,469.7l-6.8,0.1"/>
	<path class="st9" d="M-114.2,462.8l3,6.7l2.8-6.5 M-104.2,454.9l3.3-6.7"/>
	<polyline class="st8" points="-122.4,446.5 -111.2,469.6 -99.8,446 	"/>
	<path class="st10" d="M-103.7,457.8h-4.4 M-108.1,457.8c0,0,0.1,2,3.5,2 M-104.7,459.8l0.9-2"/>
	<path class="st1" d="M-103.7,457.8h-4.4c0,0,0.1,2,3.5,2L-103.7,457.8L-103.7,457.8z"/>
	<line class="st8" x1="-103.2" y1="457.8" x2="-103.2" y2="469.8"/>
	<path class="st9" d="M-110.7,447.4c-5.5,0-9.9,5-9.9,11.2"/>
	<path class="st8" d="M-110.7,447.4c-5.5,0-9.9,5-9.9,11.2"/>
	<path class="st1" d="M-99.3,447.4c2.1,0,3-2.4,3-2.4h-6.9c0,0,0.7,2.4,2.3,2.4H-99.3L-99.3,447.4z"/>
	<path class="st1" d="M-123.2,447.4c-2.1,0-3-2.4-3-2.4h6.9c0,0-0.7,2.4-2.3,2.4H-123.2L-123.2,447.4z"/>
	<path class="st11" d="M-135.4,422.6c0,0-1.8,8.3,21.1,8.3c0,0,9.4,0.6,14-4.6l8.8-9.5c0,0-4.3-9.1-9.5-9.1
		C-101,407.8-113.9,407.3-135.4,422.6L-135.4,422.6z"/>
	<path class="st12" d="M-108.1,430.5c0,0,2.2-13.4,4.5-16.8c0,0-3.7-5.3,2.3-5.8c0,0,2.6-0.3,3.3,2.6c0,0,0.2,2.9-2.3,4
		c0,0-2.6,2.1-4.5,15.1C-104.8,429.5-106.6,430.2-108.1,430.5L-108.1,430.5z"/>
	<path class="st13" d="M-122.6,416c0,0,8.2-4,13.3-5.5c0,0,2.4-0.8,3.1,0c0,0,1.5,1.9-1.6,3.1c0,0-7.6,1-24,10.6c0,0-1.4,0.9-2-0.1
		c0,0-0.3-0.7,1.1-1.8C-132.7,422.2-126.4,417.8-122.6,416L-122.6,416z"/>
	<path class="st13" d="M-113.2,416.4c0,0,3.7-1.4,5-1.5c0,0,1.7,0.1,1.7,1.4c0,0,0.4,1.8-2.3,2.6c0,0-6.8,1.1-18.7,7.5
		c0,0-2.2,1.6-3.5,0.3c0,0-0.7-1,1-2.1C-130.1,424.6-120.1,418.8-113.2,416.4L-113.2,416.4z"/>
	<path class="st13" d="M-115.4,422.1c0,0,4.8-1.7,7-1.8c0,0,1.2,0.1,1,1.4c0,0,0.4,2.1-1.9,2.5c0,0-6.4,0.8-12.4,4.3
		c0,0-1.6,1-3.2,0.8c0,0-1-0.2-1.8-0.6c0,0-1.7-0.3,2.6-2.5C-124.3,426.2-118.6,423-115.4,422.1L-115.4,422.1z"/>
	<path class="st13" d="M-115.3,429.9c0,0-3.8,0-5.3-0.2c0,0-1-0.2,0.7-1.2c0,0,4.5-1.9,8.6-2.9c0,0,2.6-0.7,2.6,1.2
		c0,0,0.4,2.7-3,2.9L-115.3,429.9L-115.3,429.9z"/>
	<path class="st13" d="M-95,413.3c0,0,2.7,3,1.4,4.4c0,0-1.4,1.8-3.2-0.2c0,0-2.2-1.9-1.2-3.6C-98.1,413.8-96.9,410.4-95,413.3
		L-95,413.3z"/>
	<path class="st13" d="M-98.9,416.7c0,0,1.7,1.6,2.2,2.7c0,0,0.9,1.7-1.1,2.4c0,0-2.4-0.9-3.6-3.1
		C-101.4,418.7-101.3,415.6-98.9,416.7L-98.9,416.7z"/>
	<path class="st13" d="M-100.9,421.1c0,0,2.6,1.6,1.1,3.2c0,0-1.1,1.2-2,0c0,0-1.3-0.7-0.7-2.5
		C-102.6,421.9-102.1,420.2-100.9,421.1L-100.9,421.1z"/>
	<path class="st13" d="M-103,424.9c0,0,2,1.1,0.7,2.1c0,0-1.7,2-1.5,0C-103.8,427-104,425.2-103,424.9L-103,424.9z"/>
	<path class="st1" d="M-120.5,437.3c0,0,8,0.2,9.5-1.2C-111,436.1-116.5,442.9-120.5,437.3L-120.5,437.3z"/>
	<path class="st1" d="M-99.6,431.2c0,0,5.8,1.3,9.7,0.9C-89.9,432.1-96.7,436.9-99.6,431.2L-99.6,431.2z"/>
	<path class="st1" d="M-82.4,432c0,0,3.6,0.1,6.2-1C-76.2,431-78.6,435.2-82.4,432L-82.4,432z"/>
	<path class="st1" d="M-89.1,438.5c0,0,3.5-0.4,5-0.2C-84.1,438.3-86.3,435.5-89.1,438.5L-89.1,438.5z"/>
	<path class="st1" d="M-105.7,432.2c0,0-2.7,0.8-4.1,0.6C-109.9,432.8-108.5,435.2-105.7,432.2L-105.7,432.2z"/>
	<path class="st1" d="M-106.6,436.7c0,0,2.9,0.6,6.7,0.4C-99.9,437.1-101.8,440.8-106.6,436.7L-106.6,436.7z"/>
	<path class="st1" d="M-126.4,433.1c0,0,5.1,0.2,7.9-0.4C-118.6,432.7-121.3,437.1-126.4,433.1L-126.4,433.1z"/>
	<path d="M-141.4,432.8c0,0,4.1-0.2,6-0.2c1.9,0,3.5,0.4,4.5,1.2c0,0-1-1.7-3.5-2.5c0,0-2.9-1.1-5.7-0.5c0,0-2.6,0.5-5.8-1.6
		C-146,429.2-144,432.6-141.4,432.8L-141.4,432.8z"/>
	<path d="M-139.4,435.7c0,0-2.2-0.6-4.9-0.1c-1.9,0.3-5.6-0.1-6.5-0.9c0,0,0.2,2.4,3.5,2.9c0,0,2.3,0,5.6-0.2c0,0,3.1-0.3,6.2,1.3
		C-135.6,438.8-138.3,436-139.4,435.7L-139.4,435.7z"/>
</g>
</svg>
