<?xml version="1.0" encoding="utf-8"?>
<!-- Generator: Adobe Illustrator 19.1.0, SVG Export Plug-In . SVG Version: 6.00 Build 0)  -->
<svg version="1.1" id="Layer_1" xmlns="http://www.w3.org/2000/svg" xmlns:xlink="http://www.w3.org/1999/xlink" x="0px" y="0px"
	 viewBox="-183.2 313.2 141.2 166.8" style="enable-background:new -183.2 313.2 141.2 166.8;" xml:space="preserve">
<style type="text/css">
	.st0{fill:#FFFFFF;}
	.st1{fill:none;stroke:#9EA176;stroke-width:0.9293;stroke-linecap:round;stroke-linejoin:round;stroke-miterlimit:2.6131;}
	.st2{fill:#C6232D;}
	.st3{fill:#9EA176;}
	.st4{fill:#355170;}
	.st5{fill:none;stroke:#FFFFFF;stroke-width:0.9492;stroke-linecap:round;stroke-linejoin:round;stroke-miterlimit:2.6131;}
</style>
<g>
	<polygon class="st0" points="-168.3,326.7 -144.2,319.5 -112.6,471.5 -67.5,322.2 -49.7,328.3 -46,397.2 -78.5,453.7 -112.6,478.7 
		-155.8,445.8 -174.9,409.7 -180.4,371.5 -175.2,329.3 	"/>
	<path class="st1" d="M-158.1,345.4v0.1 M-144.1,363.6h0.4"/>
	<path class="st2" d="M-58.5,383.3c0,0,0-0.3,0-0.6c0.9-16.9-1.5-36.1-7.3-57.5c-31.7-10.3-62.9-10.3-93.7-0.1
		c-10.5,39-9.8,72,2.3,99c0.1,0.2,0.2,0.5,0.4,0.7c0,0,1.1,2,3.2,6.2c0,0,0,0,0,0c0.3,0.6,0.7,1.2,1,1.8c8.9,15.8,22.3,29.5,40,40.8
		c29.8-19,47.3-44.2,52.7-75.7c0-0.4,0.1-0.7,0.2-1.1h0L-58.5,383.3L-58.5,383.3z"/>
	<path class="st3" d="M-48.8,326.6c-42.7-17.9-85.3-17.9-127.6,0.1c-19.1,70.4,2.2,121.5,63.9,153.3
		C-51,448.1-29.7,396.9-48.8,326.6L-48.8,326.6z M-62.9,326.1c3.5,1.2,6.9,2.5,10.2,3.9v0.1c5,19.2,7,36.9,5.8,53.2h-52.3
		c-4-2.4-8.5-3.6-13.4-3.6l-0.9,0c-4.6,0.1-8.8,1.3-12.5,3.5h-25.2c-1.7,0-3.2,0.6-4.3,1.7c-1.1,0.9-1.7,2.1-1.9,3.5h-2.7
		c-2.4,2.5-2.4,5,0,7.4h2.7c0.1,1.3,0.7,2.6,1.9,3.7c1.2,1.1,2.6,1.6,4.1,1.7c0.1,0,0.1,0,0.2,0l12.4-0.6c-0.4,1.8-0.6,3.7-0.6,5.7
		c0,1.3,0,2.5,0.2,3.5c-4.6,6.1-10.4,11.1-17.6,14.9l-2.1,1.1c-1.7,0.8-3.6,1.6-5.8,2.4c-15.7-26.6-18.4-59.3-7.9-98.3
		c3.2-1.4,6.5-2.6,9.8-3.8l3.3-1.1c30.8-10.2,62-10.1,93.7,0.1L-62.9,326.1L-62.9,326.1z M-120.7,406.6c0,0.7,0,1.3,0.1,1.8
		l-11.2,6.5c-1.1-2.5-1.7-5.2-1.7-8.2c0-3,0.6-5.8,1.7-8.3l11.2,6.5C-120.7,405.4-120.7,406-120.7,406.6L-120.7,406.6z
		 M-112.8,403.2L-112.8,403.2c0.5,0,1,0,1.4,0.2c0.2,0,0.5,0.2,1,0.6l0.2,0.2c0.5,0.5,0.8,1.1,1,1.9l0,1.2c-0.1,0.6-0.5,1.2-0.9,1.7
		c-0.1,0-0.1,0-0.2,0.1c-0.4,0.3-0.8,0.6-1.2,0.7c-0.4,0.1-0.7,0.1-1.1,0.1l-1-0.1c-0.5-0.1-0.9-0.4-1.2-0.7c-0.1,0-0.1-0.1-0.1-0.1
		c-0.6-0.6-0.9-1.1-0.9-1.7l-0.1-0.7l0-0.5c0.1-0.8,0.4-1.4,1-1.9c0-0.1,0-0.1,0.1-0.1c0.4-0.3,0.7-0.6,1-0.6
		C-113.7,403.3-113.3,403.2-112.8,403.2L-112.8,403.2z M-115.2,398.9c-1.2,0.4-2.2,1-3,1.9l-11.1-6.5c0.7-1,1.4-1.7,2-2.3
		c3.4-3.4,7.4-5.4,12.2-5.9V398.9L-115.2,398.9z M-127.3,421.3c-0.8-0.8-1.4-1.5-2-2.3l11.2-6.5c0.9,0.8,2,1.4,3,1.8v12.9
		C-119.9,426.7-123.9,424.7-127.3,421.3L-127.3,421.3z M-134,422.7c0.5,0.6,1.2,1.5,2.3,2.6c5.3,5.2,11.5,7.8,18.9,7.8
		c7.3,0,13.7-2.6,18.9-7.8c5.2-5.2,7.9-11.6,7.9-18.9c0-1,0-2-0.1-3l10.8-2.3c2.1-0.6,3.3-1.8,3.5-3.5l23.2-1.6
		c-6.4,33.7-27.7,60-64.1,79c-0.1,0-0.1,0-0.1,0.1l-0.4-0.2c-21.7-11.6-38-25.6-48.8-42.1c1.7-0.2,3.7-0.6,6-1.2l2.2-0.6
		C-147.8,429.3-141.2,426.5-134,422.7L-134,422.7z M-110.4,427.3v-12.9c1.3-0.4,2.3-1,3.2-1.8L-96,419c-0.4,0.5-1.1,1.3-2,2.3
		C-101.5,424.8-105.6,426.8-110.4,427.3L-110.4,427.3z M-96,394.3l-11.2,6.5c-1-0.9-2-1.5-3.2-1.9V386c4.7,0.5,8.9,2.4,12.4,5.9
		C-97,393-96.4,393.7-96,394.3L-96,394.3z M-93.6,398.4c0.9,2,1.4,4.2,1.6,6.5l0,1.8c0,3.1-0.6,5.9-1.7,8.4l-11.2-6.6l0.1-0.6
		l0.1-1.3c0-0.5-0.1-1.1-0.2-1.8L-93.6,398.4L-93.6,398.4z"/>
	<path class="st3" d="M-104.7,408l12.7-3.1c-0.2-2.3-0.7-4.5-1.6-6.5l-11.2,6.5c0.1,0.7,0.2,1.3,0.2,1.8L-104.7,408L-104.7,408z"/>
	<path class="st3" d="M-107.2,400.7l11.2-6.5c-0.4-0.6-1.1-1.3-2-2.3c-3.5-3.5-7.7-5.5-12.4-5.9v12.8
		C-109.2,399.2-108.1,399.8-107.2,400.7L-107.2,400.7z"/>
	<path class="st3" d="M-110.4,404c-0.5-0.4-0.8-0.6-1-0.6c-0.4-0.2-0.9-0.2-1.3-0.2h-0.1c-0.6,0-0.9,0.1-1.1,0.2
		c-0.3,0.1-0.7,0.3-1,0.6c-0.1,0-0.1,0-0.1,0.1c-0.6,0.5-0.9,1.1-1,1.9l0,0.5l0.1,0.7c0,0.6,0.4,1.2,0.9,1.7c0,0,0,0.1,0.1,0.1
		c0.3,0.3,0.7,0.6,1.2,0.7l1,0.1c0.4,0,0.7,0,1.1-0.1c0.4-0.1,0.7-0.4,1.2-0.7c0-0.1,0.1-0.1,0.2-0.1c0.5-0.6,0.8-1.1,0.9-1.7l0-1.2
		c-0.1-0.8-0.5-1.4-1-1.9L-110.4,404L-110.4,404z"/>
	<path class="st3" d="M-118.2,400.8c0.8-0.9,1.9-1.5,3-1.9V386c-4.7,0.5-8.8,2.5-12.2,5.9c-0.6,0.6-1.3,1.3-2,2.3L-118.2,400.8
		L-118.2,400.8z"/>
	<path class="st3" d="M-120.7,406.6c0-0.6,0-1.2,0.1-1.8l-11.2-6.5c-1.1,2.5-1.7,5.2-1.7,8.3c0,3,0.6,5.7,1.7,8.2l11.2-6.5
		C-120.7,407.9-120.7,407.3-120.7,406.6L-120.7,406.6z"/>
	<path class="st4" d="M-56.7,396.1L-56.7,396.1c-5.6,32.4-24.3,58.7-56,78.9c36.3-19,57.7-45.3,64.1-79.3L-56.7,396.1L-56.7,396.1z"
		/>
	<path class="st4" d="M-156.2,431.2l-5.8,1.6c10.9,16.5,27.1,30.6,48.8,42.1C-132.3,462.7-146.6,448.1-156.2,431.2L-156.2,431.2z"/>
	<path class="st4" d="M-52.8,330c-3.3-1.4-6.6-2.6-10.2-3.9c6,20.7,8.5,39.9,7.6,57.6l8.3-0.1C-45.8,367.1-47.7,349.3-52.8,330
		L-52.8,330L-52.8,330z"/>
	<path class="st4" d="M-162.9,326.1c-3.3,1.2-6.6,2.4-9.8,3.8c-10.4,39-7.7,71.9,8.1,98.7l5.8-2.4
		C-172.5,398.5-173.9,365.1-162.9,326.1L-162.9,326.1z"/>
	<path class="st0" d="M-149.4,340.4l-8.6,1.2c0.6,1.1,0.6,2.4,0,3.8v0.1c-2,6.4-4.3,12.4-6.9,18.1h6.2l1.1-4.6h5.9l0.8,4.6h6.9
		C-146.2,356.3-148,348.5-149.4,340.4L-149.4,340.4L-149.4,340.4z M-152.6,355.1h-3.9l2.5-7.5L-152.6,355.1L-152.6,355.1z"/>
	<path class="st1" d="M-154,347.6l1.4,7.5h-3.9L-154,347.6L-154,347.6z M-158.1,345.5c-2,6.4-4.3,12.4-6.9,18.1h6.2l1.1-4.6h5.9
		l0.8,4.6h6.9c-2.1-7.3-3.9-15.1-5.3-23.2l-8.6,1.2c0.6,1.1,0.6,2.4,0,3.8"/>
	<path class="st0" d="M-137.2,363.6c-1.1-9.2,0.6-13.4,5.2-12.7l0.4-4.2c-1.8-0.7-3.8,0.3-5.9,3.2l0.1-2.8l-5.6,0.2
		c0.5,5.7,0.3,11.1-0.7,16.3L-137.2,363.6L-137.2,363.6z"/>
	<path class="st1" d="M-132,350.9c-4.6-0.7-6.3,3.5-5.2,12.7h-6.5c1-5.2,1.2-10.6,0.7-16.3l5.6-0.2l-0.1,2.8
		c2.1-2.9,4.1-3.9,5.9-3.2L-132,350.9L-132,350.9z"/>
	<path class="st0" d="M-70,363.6h6.5c-1.4-6.8-2.4-14.2-3-22l-6.1-1.2C-70.9,348-70.1,355.8-70,363.6L-70,363.6z"/>
	<path class="st1" d="M-63.5,363.6c-1.4-6.8-2.4-14.2-3-22l-6.1-1.2c1.7,7.6,2.6,15.3,2.6,23.1H-63.5L-63.5,363.6z"/>
	<path class="st0" d="M-103.9,360.5l-1.6-1.8c-3.5,2.7-6,2.3-7.5-1.3c2-0.8,5-2,9-3.7c0-1.9-0.6-3.7-1.8-5.4c-1.3-1.7-3-2.6-5.2-2.6
		c-2.3,0-4.3,0.8-6.1,2.6c-1.7,1.8-2.6,3.9-2.6,6.5c0,2.5,0.8,4.6,2.6,6.4c1.3,1.3,2.6,2.1,4.2,2.5h4.2c1.5-0.4,2.9-1.2,4.2-2.5
		L-103.9,360.5L-103.9,360.5L-103.9,360.5z M-111.4,348.8c1.8,0.5,2.4,1.6,1.8,3.5l-4.3,1.8C-114.2,351.2-113.4,349.4-111.4,348.8
		L-111.4,348.8z"/>
	<path class="st1" d="M-109.6,352.3c0.6-1.9,0-3-1.8-3.5c-2,0.6-2.8,2.3-2.5,5.2L-109.6,352.3L-109.6,352.3z M-104,353.7
		c-4,1.6-7,2.8-9,3.7c1.5,3.6,4,4,7.5,1.3l1.6,1.8l-0.7,0.7c-1.3,1.3-2.6,2.1-4.2,2.5c-0.8,0.1-1.5,0.2-2.1,0.2
		c-0.7,0-1.4-0.1-2.1-0.2c-1.5-0.4-2.9-1.2-4.2-2.5c-1.7-1.8-2.6-3.9-2.6-6.4c0-2.6,0.8-4.7,2.6-6.5c1.8-1.8,3.8-2.6,6.1-2.6
		c2.3,0,4,0.9,5.2,2.6C-104.6,350-104,351.8-104,353.7L-104,353.7z"/>
	<path class="st0" d="M-87.4,363.6c-0.7-4.1-1-8.5-0.9-13.2c-2.4-4.6-5.7-5.1-9.8-1.5l-0.5-2.3l-5.2-0.1c1.3,4.7,1.5,10.5,0.8,17.2
		h6c-0.6-3.6-0.7-7.7-0.5-12c1.3-2.1,2.6-2.1,3.6,0c0.3,4,0.3,8,0,12H-87.4L-87.4,363.6z"/>
	<path class="st1" d="M-97,363.6h-6 M-87.4,363.6h-6.4 M-93.8,363.6c0.3-3.9,0.3-7.9,0-12c-1.1-2.1-2.3-2.1-3.6,0
		c-0.3,4.3-0.1,8.4,0.5,12 M-103,363.6c0.7-6.7,0.5-12.5-0.8-17.2l5.2,0.1l0.5,2.3c4.1-3.6,7.3-3,9.8,1.5c-0.1,4.7,0.2,9.2,0.9,13.2
		"/>
	<path class="st0" d="M-120.9,350.1v-3.3c-4.8-1.8-8.5-0.8-11,2.8l-0.1,0.1c-1.2,2-0.7,3.7,1.4,5.1c4.5,1.8,6.4,3.2,5.8,4.2
		l-0.1,0.2c-1.8,1.9-4.4,1.3-7.8-1.6l-0.1,4.6c1.3,0.6,2.4,1,3.3,1.3c1.8,0.5,3.5,0.5,5.1,0c1.4-0.5,2.8-1.5,4.2-2.9
		c2.1-3.7,0.2-6.7-5.7-9.1c-1.9-0.8-1.9-1.6,0-2.3C-124.7,349.1-123.1,349.3-120.9,350.1L-120.9,350.1z"/>
	<path class="st1" d="M-124.9,359.3c-1.8,1.9-4.4,1.3-7.8-1.6l-0.1,4.6c1.3,0.6,2.4,1,3.3,1.3c1.8,0.5,3.5,0.5,5.1,0
		c1.4-0.5,2.8-1.5,4.2-2.9c2.1-3.7,0.2-6.7-5.7-9.1c-1.9-0.8-1.9-1.6,0-2.3c1.2-0.2,2.8,0,5,0.8v-3.3c-4.8-1.8-8.5-0.8-11,2.8
		l-0.1,0.1c-1.2,2-0.7,3.7,1.4,5.1c4.5,1.8,6.4,3.2,5.8,4.2"/>
	<path class="st0" d="M-86.2,347.6c0,1,0,2.5,0.1,4.4c4.4-2.7,6.9-2.6,7.5,0.3c-6.4,1.3-9.2,3.6-8.5,7c0.5,2.3,1.4,3.7,2.6,4.3
		c1.6,0.7,3.3,0.7,5.4,0l1.5-1l1.1,1.1h5.2v-0.1c-1.2-3.3-1.8-7.2-1.9-12C-74.3,347.7-78.7,346.3-86.2,347.6L-86.2,347.6
		L-86.2,347.6z M-78.2,355.3l0.2,4.6c-2.3,1-3.6,0.4-3.9-1.8c0.5-2,1.6-3,3.5-2.8H-78.2L-78.2,355.3z"/>
	<path class="st1" d="M-86.1,352c4.4-2.7,6.9-2.6,7.5,0.3c-6.4,1.3-9.2,3.6-8.5,7c0.5,2.3,1.4,3.7,2.6,4.3c1.6,0.7,3.3,0.7,5.4,0
		l1.5-1l1.1,1.1h5.2c-1.2-3.3-1.8-7.3-1.9-12.1c-1.3-3.9-5.7-5.3-13.2-4h0L-86.1,352L-86.1,352z M-78.2,355.3l0.2,4.6
		c-2.3,1-3.6,0.4-3.9-1.8c0.5-2,1.6-3,3.5-2.8"/>
	<path class="st5" d="M-56.3,383.3h-43c-4-2.4-8.5-3.6-13.4-3.6l-0.9,0c-4.6,0.1-8.8,1.3-12.5,3.5h-25.2c-1.7,0-3.2,0.6-4.3,1.7
		c-1.1,0.9-1.7,2.1-1.9,3.5h-2.7c-2.4,2.5-2.4,5,0,7.4h2.7c0.1,1.3,0.7,2.6,1.9,3.7c1.2,1.1,2.6,1.6,4.1,1.7c0.1,0,0.1,0,0.2,0
		l12.4-0.6c-0.4,1.8-0.6,3.7-0.6,5.7c0,1.3,0,2.5,0.2,3.5c-4.5,6-10.2,10.9-17.3,14.7c-0.5,0.3-1.1,0.7-1.6,0.9 M-120.7,406.6
		c0,0.7,0,1.3,0.1,1.8l-11.2,6.5c-1.1-2.5-1.7-5.2-1.7-8.2c0-3,0.6-5.8,1.7-8.3l11.2,6.5C-120.7,405.4-120.7,406-120.7,406.6
		L-120.7,406.6z M-112.8,403.2L-112.8,403.2c0.5,0,1,0,1.4,0.2c0.2,0,0.5,0.2,1,0.6l0.2,0.2c0.5,0.5,0.8,1.1,1,1.9l0,1.2
		c-0.1,0.6-0.5,1.2-0.9,1.7c-0.1,0-0.1,0-0.2,0.1c-0.4,0.3-0.8,0.6-1.2,0.7c-0.4,0.1-0.7,0.1-1.1,0.1l-1-0.1
		c-0.5-0.1-0.9-0.4-1.2-0.7c-0.1,0-0.1-0.1-0.1-0.1c-0.6-0.6-0.9-1.1-0.9-1.7l-0.1-0.7l0-0.5c0.1-0.8,0.4-1.4,1-1.9
		c0-0.1,0-0.1,0.1-0.1c0.4-0.3,0.7-0.6,1-0.6C-113.7,403.3-113.3,403.2-112.8,403.2L-112.8,403.2z M-115.2,398.9
		c-1.2,0.4-2.2,1-3,1.9l-11.1-6.5c0.7-1,1.4-1.7,2-2.3c3.4-3.4,7.4-5.4,12.2-5.9V398.9L-115.2,398.9z M-127.3,421.3
		c-0.8-0.8-1.4-1.5-2-2.3l11.2-6.5c0.9,0.8,2,1.4,3,1.8v12.9C-119.9,426.7-123.9,424.7-127.3,421.3L-127.3,421.3z M-155.1,431.3
		c0.7-0.2,1.2-0.3,1.8-0.5c5.8-1.7,12.3-4.5,19.4-8.2c0.5,0.6,1.2,1.5,2.3,2.6c5.3,5.2,11.5,7.8,18.9,7.8c7.3,0,13.7-2.6,18.9-7.8
		c5.2-5.2,7.9-11.6,7.9-18.9c0-1,0-2-0.1-3l10.8-2.3c2.1-0.6,3.3-1.8,3.5-3.5l14.4-1 M-110.4,427.3v-12.9c1.3-0.4,2.3-1,3.2-1.8
		L-96,419c-0.4,0.5-1.1,1.3-2,2.3C-101.5,424.8-105.6,426.8-110.4,427.3L-110.4,427.3z M-96,394.3l-11.2,6.5c-1-0.9-2-1.5-3.2-1.9
		V386c4.7,0.5,8.9,2.4,12.4,5.9C-97,393-96.4,393.7-96,394.3L-96,394.3z M-93.6,398.4c0.9,2,1.4,4.2,1.6,6.5l0,1.8
		c0,3.1-0.6,5.9-1.7,8.4l-11.2-6.6l0.1-0.6l0.1-1.3c0-0.5-0.1-1.1-0.2-1.8L-93.6,398.4L-93.6,398.4z"/>
</g>
</svg>
