<?xml version="1.0" encoding="utf-8"?>
<!-- Generator: Adobe Illustrator 19.1.0, SVG Export Plug-In . SVG Version: 6.00 Build 0)  -->
<svg version="1.1" id="svg2" xmlns:svg="http://www.w3.org/2000/svg"
	 xmlns="http://www.w3.org/2000/svg" xmlns:xlink="http://www.w3.org/1999/xlink" x="0px" y="0px" viewBox="-116 155 378 483"
	 style="enable-background:new -116 155 378 483;" xml:space="preserve">
<style type="text/css">
	.st0{fill:#FFFFFF;stroke:#FFE501;stroke-width:11.5;}
	.st1{fill:#FF0D00;}
	.st2{fill:#13007C;}
	.st3{fill:#FFFFFF;}
	.st4{fill:#4B1F17;}
	.st5{fill:#2A4C2C;}
</style>
<g id="layer2">
	<path id="path1317" class="st0" d="M230.6,511.3L73.5,630.1l-157-118.7c0,0-10.7-7.7-17-19.6c-6.3-11.8-8.2-27.8-8.2-27.8
		l-0.2-301.6l365-0.2l-0.3,299.3c0,0-2.6,19.6-8.9,32C240.6,506,230.6,511.3,230.6,511.3z"/>
	<path id="path17078" class="st1" d="M4.7,571.1l-34.9-26.5l0-92.5l34.7-35.2L4.7,571.1z"/>
	<path id="path17954" class="st1" d="M51.5,606.5l0.1-240.9l34.6-31.2l0,279.2l-12.6,9.3L51.5,606.5z"/>
	<path id="path19706" class="st1" d="M242.2,490.4c-5.7,11.4-14.8,16.1-14.8,16.1l-13.1,10l0-313.7l36.2-34.9l-0.3,293.2
		C250.2,461.2,247.9,479.1,242.2,490.4z"/>
	<path id="path6560" class="st2" d="M-103,463.7l-0.2-295.6l353.6-0.2L-80.7,506.3c0,0-9.7-7.3-15.3-17.9S-103,463.7-103,463.7z"/>
	<path id="rect8309" class="st3" d="M-54,217.2l186.9,0L-54,408.6V217.2z"/>
	<path id="path11806" class="st3" d="M-78,202l-12.4,9.2l4.7-14.7l-12.6-9l15.5,0l4.6-14.8l4.9,14.7l15.5-0.1l-12.5,9.1l5,14.7
		L-78,202z"/>
	<path id="path12681" class="st3" d="M56.7,201.4l-12.4,9.2l4.7-14.7l-12.6-9l15.5,0l4.6-14.8l4.9,14.7l15.5-0.1l-12.5,9.1l5,14.7
		L56.7,201.4z"/>
	<path id="path12683" class="st3" d="M191.2,201.4l-12.4,9.2l4.7-14.7l-12.6-9l15.5,0l4.6-14.8l4.9,14.7l15.5-0.1l-12.5,9.1l5,14.7
		L191.2,201.4z"/>
	<path id="path12685" class="st3" d="M101.4,293.5L89,302.7l4.7-14.7l-12.6-9l15.5,0l4.6-14.8l4.9,14.7l15.5-0.1l-12.5,9.1l5,14.7
		L101.4,293.5z"/>
	<path id="path12687" class="st3" d="M11.6,385.1l-12.4,9.2l4.7-14.7l-12.6-9l15.5,0l4.6-14.8l4.9,14.7l15.5-0.1l-12.5,9.1l5,14.7
		L11.6,385.1z"/>
	<path id="path12689" class="st3" d="M-78.1,476.7l-12.4,9.2l4.7-14.7l-12.6-9l15.5,0l4.6-14.8l4.9,14.7L-58,462l-12.5,9.1l5,14.7
		L-78.1,476.7z"/>
	<path id="path12691" class="st3" d="M-77.7,339.1l-12.4,9.2l4.7-14.7l-12.6-9l15.5,0l4.6-14.8l4.9,14.7l15.5-0.1l-12.5,9.1l5,14.7
		L-77.7,339.1z"/>
	<path id="path13580" class="st4" d="M-10.5,336.8c0,0,15.8-0.1,21.4,0.7c5.7,0.8,1,3.2,1,3.2l-55.2,0c0,0-2.6-1.7,1.6-2.7
		c4.2-1,11.2-0.7,11.2-0.7s5.2-0.4,5.7-1.5c0.5-1.1,0.6-3.7,0.6-3.7l0.2-64.2l7-0.2l-0.1,64.3c0,0,0.5,1.8,1.9,3.2
		C-13.7,336.3-10.5,336.8-10.5,336.8z"/>
	<path id="path12693" class="st5" d="M10.7,247.3c0,12.4-14.3,22.4-31.9,22.4s-31.9-10-31.9-22.4s14.3-22.4,31.9-22.4
		S10.7,234.9,10.7,247.3z"/>
	<path id="path13568" class="st1" d="M-36.8,241c0,1.3-1,2.4-2.3,2.4c-1.3,0-2.3-1.1-2.3-2.4c0,0,0,0,0,0c0-1.3,1-2.4,2.3-2.4
		C-37.9,238.6-36.8,239.7-36.8,241C-36.8,241-36.8,241-36.8,241z"/>
	<path id="path13570" class="st1" d="M-23.3,234.8c0,1.3-1,2.4-2.3,2.4c-1.3,0-2.3-1.1-2.3-2.4c0,0,0,0,0,0c0-1.3,1-2.4,2.3-2.4
		C-24.4,232.4-23.3,233.5-23.3,234.8C-23.3,234.8-23.3,234.8-23.3,234.8z"/>
	<path id="path13572" class="st1" d="M-13.6,244.7c0,1.3-1,2.4-2.3,2.4c-1.3,0-2.3-1.1-2.3-2.4c0,0,0,0,0,0c0-1.3,1-2.4,2.3-2.4
		C-14.6,242.4-13.6,243.4-13.6,244.7C-13.6,244.7-13.6,244.7-13.6,244.7z"/>
	<path id="path13574" class="st1" d="M1.7,240.3c0,1.3-1,2.4-2.3,2.4c-1.3,0-2.3-1.1-2.3-2.4c0,0,0,0,0,0c0-1.3,1-2.4,2.3-2.4
		C0.7,238,1.7,239,1.7,240.3C1.7,240.3,1.7,240.3,1.7,240.3z"/>
	<path id="path13576" class="st1" d="M-4.8,254.2c0,1.3-1,2.4-2.3,2.4c-1.3,0-2.3-1.1-2.3-2.4c0,0,0,0,0,0c0-1.3,1-2.4,2.3-2.4
		C-5.8,251.8-4.8,252.9-4.8,254.2C-4.8,254.2-4.8,254.2-4.8,254.2z"/>
	<path id="path13578" class="st1" d="M-25.1,254.3c0,1.3-1,2.4-2.3,2.4c-1.3,0-2.3-1.1-2.3-2.4c0,0,0,0,0,0c0-1.3,1-2.4,2.3-2.4
		C-26.1,252-25.1,253-25.1,254.3C-25.1,254.3-25.1,254.3-25.1,254.3z"/>
	<path id="path15329" d="M14.8,308.6c2.1,6.6,0.1,0.7,2.3,7.1c-2.2-6.4,1.8,0.5,1.7,3.6c-0.1,3.1-3.1,1.5-5,2.8s-2.5,3.7-2.5,3.7
		l0.1,3.4l1.2,3.4c0,0,3.6,4.7,0.9,5.5c-2.7,0.8-10.3-1.3-14.9-0.4c-2.9,0.6-3.7-1.2-1.2-1.9c2.2-0.7,6.4,0.9,5.5-2.9
		c-0.9-3.8-2.5-2.5-4.1-4.5c-1.6-2-1.7-2.3-2.5-5.4c-0.8-3.1,1.3-2.9-0.6-7.4c-0.6-1.5-2.8-1.8-3.8-3.4c-2.1-3.2-2.8-5.9-3.6-6.5
		c-0.8-0.7-5.3-1.5-5.3-1.5l-0.1-24.3c0,0,5.1,7,7.6,8.8c2.5,1.8,2.5-1.4,2.5-1.4l0.5-5.6l0.4-6.3c0,0-1.7-0.4-2-2.3
		c-0.3-1.9-0.8-5.6,0.7-5.9c1.6-0.2,4.8,3.9,4.8,3.9s4.3-1.4,6.7-0.6c2.4,0.8,3,3.7,3,3.7s4.3-1.7,4.8-0.7c0.4,0.7,0.2,3-2.2,7.6
		c-0.9,1.7-2,5-1.8,7.4C8.8,297.3,12.7,302,14.8,308.6z"/>
	<path id="rect18830" class="st1" d="M132.8,287.5l34.7-35.1l0,299.4l-34.7,26.3L132.8,287.5z"/>
</g>
</svg>
