<?xml version="1.0" encoding="utf-8"?>
<!-- Generator: Adobe Illustrator 19.1.0, SVG Export Plug-In . SVG Version: 6.00 Build 0)  -->
<svg version="1.1" id="Layer_1" xmlns="http://www.w3.org/2000/svg" xmlns:xlink="http://www.w3.org/1999/xlink" x="0px" y="0px"
	 viewBox="-206.2 303.1 187.1 187.1" style="enable-background:new -206.2 303.1 187.1 187.1;" xml:space="preserve">
<style type="text/css">
	.st0{fill:#FFFFFF;}
	.st1{fill:#346BA5;}
	.st2{fill:#CC2229;}
</style>
<g>
	<path class="st0" d="M-112.6,488.6c50.8,0,92-41.2,92-92c0-50.8-41.2-92-92-92c-50.8,0-92,41.2-92,92S-163.4,488.6-112.6,488.6
		L-112.6,488.6z"/>
	<path class="st1" d="M-112.6,487.1c25,0,47.6-10.1,64-26.5c16.4-16.4,26.5-39,26.5-64c0-25-10.1-47.6-26.5-64
		c-16.4-16.4-39-26.5-64-26.5s-47.6,10.1-64,26.5c-16.4,16.4-26.5,39-26.5,64c0,25,10.1,47.6,26.5,64
		C-160.2,477-137.6,487.1-112.6,487.1L-112.6,487.1z M-112.6,490.2c-25.8,0-49.2-10.5-66.1-27.4c-16.9-16.9-27.4-40.3-27.4-66.1
		c0-25.8,10.5-49.2,27.4-66.1c16.9-16.9,40.3-27.4,66.1-27.4c25.8,0,49.2,10.5,66.1,27.4c16.9,16.9,27.4,40.3,27.4,66.1
		c0,25.8-10.5,49.2-27.4,66.1C-63.4,479.7-86.8,490.2-112.6,490.2L-112.6,490.2z"/>
	<path class="st2" d="M-112.6,450.5c14.9,0,28.4-6,38.1-15.8c9.8-9.8,15.8-23.2,15.8-38.1c0-14.9-6-28.4-15.8-38.1
		c-9.8-9.8-23.2-15.8-38.1-15.8c-14.9,0-28.4,6-38.1,15.8c-9.8,9.8-15.8,23.2-15.8,38.1c0,14.9,6,28.4,15.8,38.1
		C-141,444.5-127.5,450.5-112.6,450.5L-112.6,450.5z M-112.6,482.6c-23.7,0-45.2-9.6-60.8-25.2c-15.6-15.6-25.2-37-25.2-60.8
		c0-23.7,9.6-45.2,25.2-60.8c15.6-15.6,37-25.2,60.8-25.2s45.2,9.6,60.8,25.2c15.6,15.6,25.2,37,25.2,60.8
		c0,23.7-9.6,45.2-25.2,60.8C-67.4,472.9-88.9,482.6-112.6,482.6L-112.6,482.6z"/>
	<polygon class="st0" points="-188.3,370.4 -182.9,357.9 -179,359.7 -182.2,367 -179.1,368.4 -176.3,362.1 -172.7,363.7 -175.4,370 
		-168,373.3 -170.3,378.3 	"/>
	<path class="st0" d="M-162.2,349.7l4.3-2.6c0.9,1.2,1.6,2.4,1.9,3.6c0.3,1.2,0.3,2.3,0.1,3.4c-0.3,1.1-0.9,2.3-1.9,3.5
		c-1.2,1.5-2.5,2.5-3.8,3c-1.3,0.5-2.8,0.6-4.6,0.3c-1.8-0.3-3.6-1.3-5.5-2.9c-2.5-2.1-3.9-4.3-4.3-6.6c-0.3-2.3,0.4-4.6,2.3-6.8
		c1.4-1.7,3-2.7,4.5-3.1c1.6-0.3,3.4-0.1,5.4,0.8l-2.2,4.5c-0.6-0.3-1-0.4-1.4-0.4c-0.6-0.1-1.1,0-1.6,0.2c-0.5,0.2-0.9,0.5-1.2,0.9
		c-0.8,1-1,2-0.6,3.3c0.3,0.9,1.1,1.9,2.5,3.1c1.7,1.4,3,2.1,4,2.2c1,0.1,1.9-0.3,2.6-1.1c0.7-0.8,0.9-1.6,0.8-2.5
		C-161,351.6-161.4,350.7-162.2,349.7L-162.2,349.7z"/>
	<path class="st0" d="M-146.1,328.5l2.2-1c0.8-0.3,1.3-0.4,1.8-0.3c0.4,0.2,0.8,0.5,1,1c0.3,0.6,0.3,1.1,0.1,1.5
		c-0.2,0.4-0.6,0.8-1.4,1.2l-2.2,1L-146.1,328.5L-146.1,328.5z M-144.6,345.1l8.6-3.9c0.4-0.2,1.1-0.6,2.1-1.3
		c0.8-0.5,1.3-1,1.6-1.5c0.5-0.7,0.7-1.6,0.8-2.5c0.1-0.9-0.1-1.9-0.6-2.8c-0.5-1.1-1.2-2-2.1-2.5c-0.9-0.5-2-0.6-3.3-0.4
		c0.6-0.6,1-1.3,1.2-2c0.2-1,0.1-2.1-0.4-3.1c-0.6-1.3-1.5-2.1-2.7-2.6c-1.2-0.5-2.6-0.4-4.2,0.3l-9.4,4.3L-144.6,345.1
		L-144.6,345.1z M-143,335.3l2.5-1.2c0.9-0.4,1.6-0.5,2.1-0.4c0.5,0.2,0.9,0.5,1.1,1c0.3,0.6,0.3,1.1,0.1,1.6
		c-0.2,0.5-0.7,0.9-1.6,1.3l-2.6,1.2L-143,335.3L-143,335.3z"/>
	<path class="st0" d="M-123.3,329.8l1-7.3l2.9,6.8L-123.3,329.8L-123.3,329.8z M-116.4,336.5l5.7-0.7l-9.1-18.7l-5.9,0.8l-4.1,20.4
		l5.6-0.7l0.4-3.3l6.2-0.8L-116.4,336.5L-116.4,336.5z"/>
	<polygon class="st0" points="-110.5,316.2 -104.5,317.1 -101.9,324.2 -97.4,318.1 -91.4,319 -99.9,329.3 -101.1,337.5 
		-106.5,336.7 -105.3,328.5 	"/>
	<polygon class="st0" points="-85,321.3 -71.7,327.6 -73.5,331.4 -81.8,327.5 -83.1,330.3 -75.4,334 -77.1,337.6 -84.9,334 
		-86.5,337.5 -78,341.5 -79.9,345.6 -93.4,339.2 	"/>
	<path class="st0" d="M-63.3,338.9l1.8,1.6c0.7,0.7,1.1,1.3,1.2,1.8c0,0.5-0.2,1-0.6,1.5c-0.3,0.3-0.6,0.5-1,0.6
		c-0.4,0.1-0.8,0-1.1-0.1c-0.7-0.4-1.1-0.6-1.3-0.8l-1.7-1.6L-63.3,338.9L-63.3,338.9z M-73.9,350.6l5.4-5.9l0.4,0.3
		c0.4,0.3,0.6,0.8,0.7,1.2c0.1,0.4,0,1-0.3,1.8l-1.9,6.4l4.6,4.2l1.9-6c0.1-0.3,0.2-0.8,0.2-1.4c0.1-0.6,0.1-1.1,0-1.4
		c-0.1-0.4-0.2-0.9-0.6-1.5c0.7,0.4,1.4,0.6,2,0.7c0.9,0.1,1.7,0,2.6-0.3c0.8-0.3,1.6-0.9,2.4-1.7c0.8-0.9,1.4-1.9,1.5-2.9
		c0.2-1,0-2-0.4-2.8c-0.4-0.8-1.3-1.8-2.6-3l-6.8-6.1L-78,346.9L-73.9,350.6L-73.9,350.6z"/>
	<polygon class="st0" points="-47.4,349.6 -44.9,354.1 -51.1,365.3 -41.6,359.9 -39,364.4 -56.2,374.2 -58.7,369.7 -52.6,358.5 
		-62,363.9 -64.6,359.4 	"/>
	<polygon class="st0" points="-173.5,401.3 -171.8,408.3 -182.7,413.8 -170.4,413.6 -168.8,420.6 -187.8,425.2 -188.8,420.9 
		-174.3,417.4 -189.6,417.6 -190.6,413.6 -176.9,406.8 -191.4,410.3 -192.5,406 	"/>
	<path class="st0" d="M-161,432.6l3,4.5l-9.7,6.5c-1,0.6-2,1.1-3,1.4s-2.1,0.4-3.1,0.2c-1-0.1-1.9-0.4-2.6-0.9
		c-1-0.6-1.8-1.6-2.7-2.8c-0.5-0.7-0.9-1.5-1.4-2.4s-0.7-1.8-0.8-2.5c-0.1-0.8,0.1-1.6,0.4-2.5c0.3-0.9,0.7-1.6,1.2-2.2
		c0.8-1,1.7-1.7,2.5-2.3l9.7-6.5l3,4.5l-9.9,6.7c-0.9,0.6-1.4,1.3-1.6,2.1c-0.2,0.8,0,1.6,0.5,2.3c0.5,0.8,1.2,1.2,2,1.3
		c0.8,0.1,1.6-0.1,2.5-0.7L-161,432.6L-161,432.6z"/>
	<polygon class="st0" points="-155.6,439.6 -151.6,442.6 -152.8,455.2 -146.3,446.6 -142.2,449.7 -154,465.3 -158.1,462.2 
		-156.9,449.7 -163.3,458.2 -167.4,455.1 	"/>
	<path class="st0" d="M-131.8,465.8l4,3c-0.8,1.3-1.7,2.3-2.6,3c-1,0.7-2,1.2-3.1,1.3c-1.1,0.2-2.4,0-3.9-0.5
		c-1.8-0.6-3.2-1.4-4.2-2.4c-0.9-1-1.6-2.3-1.9-4.1s-0.1-3.8,0.7-6.1c1-3.1,2.6-5.2,4.6-6.3c2-1.2,4.4-1.3,7.1-0.4
		c2.1,0.7,3.6,1.7,4.5,3.1c0.9,1.3,1.3,3.1,1.2,5.2l-4.9-0.4c0-0.6,0-1.1-0.1-1.4c-0.1-0.5-0.4-1-0.7-1.4c-0.3-0.4-0.8-0.6-1.3-0.8
		c-1.2-0.4-2.2-0.2-3.2,0.7c-0.7,0.6-1.4,1.8-1.9,3.4c-0.7,2.1-0.9,3.6-0.6,4.5c0.3,1,1,1.6,2,1.9c1,0.3,1.8,0.3,2.5-0.2
		C-133.1,467.7-132.4,466.9-131.8,465.8L-131.8,465.8z"/>
	<polygon class="st0" points="-121.2,456.8 -115.7,456.8 -115.8,463.6 -109.8,463.6 -109.8,456.8 -104.3,456.8 -104.4,476.3 
		-109.8,476.3 -109.8,468.4 -115.8,468.4 -115.8,476.3 -121.2,476.3 	"/>
	<polygon class="st0" points="-100.9,456.1 -87.1,451.6 -85.8,455.6 -94.4,458.4 -93.5,461.3 -85.4,458.7 -84.2,462.5 -92.3,465.1 
		-91.1,468.8 -82.2,465.9 -80.8,470.1 -94.9,474.7 	"/>
	<polygon class="st0" points="-84.3,450.3 -80.2,447.3 -68.4,452.2 -74.8,443.5 -70.6,440.5 -59.2,456.3 -63.3,459.3 -75,454.5 
		-68.7,463.2 -72.8,466.2 	"/>
	<polygon class="st0" points="-62.6,430.8 -55.9,417.9 -52.2,419.8 -56.4,427.9 -53.7,429.3 -49.7,421.9 -46.2,423.7 -50.1,431.2 
		-46.7,433 -42.4,424.7 -38.4,426.7 -45.3,439.9 	"/>
	<polygon class="st0" points="-55.1,416.7 -54.1,411.1 -39.6,409.7 -52.7,403.3 -51.7,397.9 -33.7,407.8 -34.7,413.6 	"/>
	<polygon class="st0" points="-163.9,428.4 -161.5,431.9 -167.1,433.1 	"/>
	<path class="st1" d="M-112.6,448.3c28.6,0,51.7-23.2,51.7-51.7c0-28.6-23.2-51.7-51.7-51.7c-28.6,0-51.7,23.2-51.7,51.7
		C-164.3,425.2-141.2,448.3-112.6,448.3L-112.6,448.3z"/>
	<polygon class="st0" points="-110.3,350.9 -110.3,372.1 -99.8,389.8 -99.8,369.1 	"/>
	<polygon class="st0" points="-123.3,355.5 -123.3,376.7 -112.7,394.4 -112.7,373.6 	"/>
	<polygon class="st0" points="-136.3,360.1 -136.3,381.3 -125.7,399 -125.7,378.2 	"/>
	<polygon class="st0" points="-149.2,364.6 -149.2,385.9 -138.7,403.6 -138.7,382.8 	"/>
	<polygon class="st0" points="-162.2,383 -162.2,390.4 -151.6,408.1 -151.6,387.4 -158.6,374.5 	"/>
	<polygon class="st0" points="-97.4,346.3 -97.4,367.6 -86.8,385.3 -86.8,364.5 	"/>
	<polygon class="st0" points="-84.4,354.1 -73.9,364.2 -73.9,381.1 -84.4,363 	"/>
	<polygon class="st0" points="-114.4,441.1 -114.4,420.3 -125,402.2 -125,423.4 	"/>
	<polygon class="st0" points="-101.5,436.5 -101.5,415.7 -112,397.6 -112,418.8 	"/>
	<polygon class="st0" points="-88.5,431.9 -88.5,411.2 -99,393 -99,414.2 	"/>
	<polygon class="st0" points="-75.5,427.4 -75.5,406.6 -86.1,388.4 -86.1,409.7 	"/>
	<polygon class="st0" points="-62.6,409 -62.6,400 -73.1,383.9 -73.1,405.1 -66.2,416 	"/>
	<polygon class="st0" points="-127.4,445.2 -127.4,424.9 -137.9,406.7 -137.9,428.4 	"/>
	<polygon class="st0" points="-140.4,439 -150.9,429.8 -150.9,411.3 -140.4,429.9 	"/>
	<path class="st0" d="M-112.6,446c13.6,0,26-5.5,35-14.5s14.5-21.3,14.5-35c0-13.6-5.5-26-14.5-34.9s-21.3-14.5-34.9-14.5
		s-26,5.5-34.9,14.5c-8.9,8.9-14.5,21.3-14.5,34.9c0,13.6,5.5,26,14.5,35C-138.6,440.5-126.3,446-112.6,446L-112.6,446z
		 M-112.6,450.6c-14.9,0-28.4-6-38.2-15.8c-9.8-9.8-15.8-23.3-15.8-38.2c0-14.9,6-28.4,15.8-38.2c9.8-9.8,23.3-15.8,38.2-15.8
		s28.4,6,38.2,15.8s15.8,23.3,15.8,38.2s-6,28.4-15.8,38.2C-84.2,444.6-97.7,450.6-112.6,450.6L-112.6,450.6z"/>
</g>
</svg>
