<?xml version="1.0" encoding="utf-8"?>
<!-- Generator: Adobe Illustrator 19.1.0, SVG Export Plug-In . SVG Version: 6.00 Build 0)  -->
<svg version="1.1" id="Layer_1" xmlns="http://www.w3.org/2000/svg" xmlns:xlink="http://www.w3.org/1999/xlink" x="0px" y="0px"
	 viewBox="-196 290.7 217.2 213.3" style="enable-background:new -196 290.7 217.2 213.3;" xml:space="preserve">
<style type="text/css">
	.st0{fill:#ADB9C0;}
	.st1{fill:#FFFFFF;}
	.st2{fill:#4A914E;}
	.st3{fill:#CD3529;}
	.st4{fill:#ECB731;}
	.st5{fill:#0094D6;}
</style>
<path d="M-85.9,357.3c40.4,0,73.4,33,73.4,73.4s-33,73.4-73.4,73.4c-40.4,0-73.4-33-73.4-73.4S-126.3,357.3-85.9,357.3L-85.9,357.3z
	"/>
<path class="st0" d="M-158.2,430.6c0-39.9,32.5-72.3,72.3-72.3c39.9,0,72.3,32.5,72.3,72.3c0,39.9-32.5,72.3-72.3,72.3
	S-158.2,470.5-158.2,430.6z"/>
<path d="M-148.3,430.6c0,34.4,28,62.4,62.4,62.4s62.4-28,62.4-62.4c0-34.4-28-62.4-62.4-62.4S-148.3,396.2-148.3,430.6z"/>
<path class="st1" d="M-147.3,430.6c0-33.9,27.6-61.4,61.4-61.4c33.9,0,61.4,27.6,61.4,61.4c0,33.9-27.6,61.4-61.4,61.4
	C-119.8,492-147.3,464.5-147.3,430.6z"/>
<path d="M-143.9,430.6c0,32,26,58,58,58c32,0,58-26,58-58c0-32-26-58-58-58C-117.9,372.6-143.9,398.7-143.9,430.6z"/>
<path class="st1" d="M-142.8,430.6c0-31.4,25.5-56.9,56.9-56.9S-29,399.3-29,430.6c0,31.4-25.5,56.9-56.9,56.9
	C-117.3,487.5-142.8,462-142.8,430.6z"/>
<path d="M-28.9,431.1c0-0.2,0-0.3,0-0.5c0-0.2,0-0.4,0-0.6h-52.2l51.1-10.2c-0.1-0.3-0.1-0.7-0.2-1L-80.9,429l47.8-19.8
	c-0.1-0.3-0.3-0.6-0.4-1L-81.3,428l43-28.7c-0.2-0.3-0.4-0.6-0.6-0.9l-43,28.7l36.5-36.5c-0.2-0.2-0.5-0.5-0.7-0.7l-36.5,36.5
	l28.7-42.9c-0.3-0.2-0.6-0.4-0.9-0.6l-28.7,42.9l18.7-45.1l-0.9-0.4l-18.7,45.1l8.5-42.8l-1-0.2l-8.3,42v-44.2h-1.4v44.2l-8.6-43.4
	l-1,0.2l8.8,44.2l-19.1-46.2l-0.9,0.4l19.1,46.2l-28.7-42.9c-0.3,0.2-0.6,0.4-0.9,0.6l28.7,42.9l-36.5-36.5
	c-0.2,0.2-0.5,0.5-0.7,0.7l36.5,36.5l-42.9-28.7c-0.2,0.3-0.4,0.6-0.6,0.9l42.9,28.7l-47.7-19.8c-0.1,0.3-0.3,0.6-0.4,0.9l47.7,19.8
	l-50.7-10.1c-0.1,0.3-0.1,0.7-0.2,1l51.1,10.2h-52.1c0,0.2,0,0.4,0,0.6c0,0.2,0,0.3,0,0.5h51.3l-50.3,10c0.1,0.3,0.1,0.7,0.2,1
	l50.8-10.1l-47.8,19.8c0.1,0.3,0.3,0.6,0.4,1l47.8-19.8l-43,28.8c0.2,0.3,0.4,0.6,0.6,0.9l43.1-28.8l-36.6,36.6
	c0.2,0.2,0.5,0.5,0.7,0.7l36.6-36.6l-28.8,43.1c0.3,0.2,0.6,0.4,0.9,0.6l28.8-43.1l-19.8,47.9c0.3,0.1,0.6,0.3,0.9,0.4l21.4-51.6
	l21.4,51.6c0.3-0.1,0.6-0.3,0.9-0.4l-19.8-47.9l28.8,43.1c0.3-0.2,0.6-0.4,0.9-0.6l-28.8-43.1l36.6,36.6c0.2-0.2,0.5-0.5,0.7-0.7
	l-36.6-36.6l43.1,28.8c0.2-0.3,0.4-0.6,0.6-0.9L-81.3,433l47.9,19.8c0.1-0.3,0.3-0.6,0.4-1L-80.9,432l50.8,10.1
	c0.1-0.3,0.1-0.7,0.2-1l-50.4-10L-28.9,431.1L-28.9,431.1z"/>
<path class="st2" d="M-113.9,367.4c-3.8-0.9-7.1-1.4-9.3-1.1c-6.5,0.8-14.3,4.1-22.4,8c-5.2,2.5-11.6,5.8-24.5,13.4l12,0.9l-1.3,10
	c7.1-4.6,16.6-11.2,25.4-14.9c3.7-1.6,7.3-2.7,10.5-2.9c2.4-0.2,4.5,0.4,6.9,1c10.4,2.6,20.5,5.6,30.7,5.6v-14.7
	C-95.6,372.6-106,369.3-113.9,367.4z"/>
<path d="M-41.5,394.2C-56.7,400-72,403-85.9,403s-29.2-3-44.4-8.7l-0.6-0.2l-0.1,0.6c-7.7,42.3,7.3,78.9,44.7,109l0.3,0.3l0.3-0.3
	c37.4-30,52.5-66.7,44.7-109l-0.1-0.6L-41.5,394.2z"/>
<path class="st1" d="M-85.9,404L-85.9,404c13.8,0,29-3,44.1-8.6c1.2,6.9,1.9,13.7,1.9,20.3c0,33-15.4,62.2-46,86.8
	c-30.6-24.7-46-53.8-46-86.8c0-6.6,0.6-13.4,1.9-20.3C-114.9,401-99.7,404-85.9,404z"/>
<path class="st3" d="M-85.9,497.3v-88l0,0c-14.4,0-27.2-2.3-40.3-6.8C-131,440-116,470-85.9,497.3L-85.9,497.3z"/>
<path class="st4" d="M-85.9,420.3c13.8,0,25.1,11.3,25.1,25.1c0,13.8-11.3,25.1-25.1,25.1c-13.8,0-25.1-11.3-25.1-25.1
	C-111,431.6-99.7,420.3-85.9,420.3L-85.9,420.3z"/>
<path d="M-111.5,445.4c0,14.1,11.5,25.6,25.6,25.6c14.1,0,25.6-11.5,25.6-25.6c0-14.1-11.5-25.6-25.6-25.6
	C-100,419.8-111.5,431.3-111.5,445.4z M-110.5,445.4c0-13.6,11-24.6,24.6-24.6s24.6,11,24.6,24.6c0,13.6-11,24.6-24.6,24.6
	S-110.5,459-110.5,445.4z"/>
<path d="M-111.5,444.9c1.5,2.9,4.1,5.7,7.6,8.1l0.6-0.8c-3.3-2.4-5.8-5.1-7.3-7.8L-111.5,444.9z"/>
<path d="M-99.4,449.7l0.8-0.7c-5.8-6.8-4.5-18.3,2.9-26.2l-0.8-0.7C-104.2,430.4-105.5,442.5-99.4,449.7z"/>
<path d="M-88,434.6l1-0.3c-1.9-6.2,0-10.1,6.2-13l-0.4-0.9C-87.9,423.5-90,427.9-88,434.6z"/>
<path d="M-74.9,444.1c5.9,6.1,7.2,15.7,2.9,21.5l0.8,0.6c4.6-6.2,3.3-16.2-3-22.8L-74.9,444.1z"/>
<path d="M-69.1,437.8c4.4,3.6,6.9,9.1,6.7,14.8l1,0c0.2-6-2.5-11.8-7.1-15.6L-69.1,437.8z"/>
<path d="M-82.9,450.7c4.2,7.7,3.5,15.6-1.6,19.2l0.6,0.8c5.5-3.9,6.3-12.3,1.9-20.5L-82.9,450.7z"/>
<path d="M-92.5,462.8l-0.2,1c4.5,0.7,10.7-1.4,13.1-6.5l-0.9-0.4C-82.7,461.6-88.4,463.4-92.5,462.8z"/>
<path d="M-45.8,402c-5.5,1.9-10.7,3.3-16,4.4l-0.2,0l-54.4,54.2l0.2,0.3c2.8,5.2,6.2,10.5,10.1,15.5l0.4,0.5l61.4-61.2l0-0.2
	c0-4.3-0.3-8.7-0.9-13.1l-0.1-0.6L-45.8,402z"/>
<path class="st5" d="M-46.1,403.2c0.5,4.1,0.8,8.2,0.8,12.1c-0.3,0.3-59.4,59.3-60.3,60.1c-3.6-4.8-6.8-9.7-9.5-14.6
	c0.5-0.5,53.4-53.3,53.6-53.5C-56.4,406.3-51.3,404.9-46.1,403.2z"/>
<path class="st4" d="M-103.5,465.8l1.4-1.4l0,0c0.6,0.5,1.2,0.8,1.8,0.8c0.6,0,1.2-0.2,1.7-0.7c0.6-0.5,0.8-1.1,0.8-1.8
	c0-0.7-0.2-1.2-0.8-1.8c-0.5-0.5-1-0.7-1.4-0.7c-0.5,0-1.2,0.3-2.2,0.8c0,0-0.1,0.1-0.3,0.2c-1.2,0.7-2.2,1-3.1,0.9
	c-0.4,0-0.8-0.2-1.2-0.3c-0.4-0.2-0.7-0.4-1-0.7c-0.9-0.9-1.3-1.9-1.3-3c0-1.1,0.5-2.1,1.4-3c0.8-0.8,1.8-1.3,2.8-1.3
	c1,0,2,0.4,2.9,1.2l0,0l-1.5,1.5l0,0c-0.4-0.4-0.9-0.6-1.4-0.6c-0.5,0-1,0.2-1.4,0.6c-0.4,0.4-0.7,0.9-0.6,1.5
	c0,0.6,0.2,1.1,0.7,1.5c0.2,0.2,0.3,0.3,0.5,0.4c0.2,0.1,0.4,0.1,0.6,0.1c0.5,0,1.1-0.2,2-0.8c0.4-0.2,0.7-0.4,1-0.6
	c1-0.5,1.9-0.7,2.8-0.5c0.9,0.1,1.6,0.5,2.3,1.2c1,1,1.5,2.1,1.5,3.3c0,1.2-0.5,2.3-1.5,3.3c-0.9,0.9-2,1.4-3.2,1.4
	C-101.5,467.3-102.5,466.8-103.5,465.8L-103.5,465.8z M-86.5,454.9l-1.5,1.5l-1.7-1.7l1.5-1.5L-86.5,454.9L-86.5,454.9z
	 M-74.9,443.2l-5.2,5.2l-10.3-10.3l1.6-1.6l8.9,8.9l3.6-3.6L-74.9,443.2L-74.9,443.2z M-67.6,435.9l-1.5,1.5l-1.7-1.7l1.5-1.5
	L-67.6,435.9L-67.6,435.9z M-65.6,421.9l0.5-0.5l0,0c0.8-0.8,1.3-1.5,1.4-2.1c0.1-0.6-0.1-1.1-0.6-1.7c-0.5-0.5-1-0.7-1.5-0.6
	c-0.5,0.1-1.1,0.5-1.8,1.1l0,0l-0.9,0.9L-65.6,421.9L-65.6,421.9z M-61,426.5l1.3-1.3l0,0c0.7-0.7,1.2-1.4,1.2-2
	c0.1-0.6-0.1-1.2-0.7-1.7c-0.6-0.6-1.2-0.8-1.9-0.8c-0.7,0.1-1.4,0.4-2.1,1.2l0,0l-1.3,1.3L-61,426.5L-61,426.5z M-69.2,416.8
	c1.2-1.2,2.3-1.8,3.4-2c1.1-0.1,2.1,0.3,3,1.2c0.4,0.4,0.7,0.9,0.8,1.4c0.1,0.5,0.1,1.1-0.1,1.7c0.7-0.4,1.4-0.5,2.1-0.4
	c0.7,0.1,1.4,0.5,2,1.1c0.5,0.5,0.8,1,1.1,1.6c0.2,0.6,0.3,1.2,0.3,1.9c-0.1,0.6-0.3,1.2-0.6,1.7c-0.3,0.5-0.8,1.2-1.6,2l0,0
	l-2.5,2.5l-10.3-10.3L-69.2,416.8L-69.2,416.8z M-47.2,415.5l-1.5,1.5l-1.7-1.7l1.5-1.5L-47.2,415.5L-47.2,415.5z"/>
<path d="M-45.8,402c-13.5,4.6-26.3,6.7-40.1,6.7c-13.8,0-26.6-2.1-40.1-6.7l-0.6-0.2l-0.1,0.6c-4.6,35.7,8.2,66,40.4,95.2l0.3,0.3
	l0.3-0.3c32.2-29.2,45.1-59.5,40.4-95.2l-0.1-0.6L-45.8,402z M-126.6,416.2c0-4.3,0.3-8.6,0.8-13.1c13.4,4.5,26.1,6.6,39.8,6.6
	s26.4-2.1,39.8-6.6c0.6,4.4,0.9,8.8,0.9,13.1c0,29.4-13.2,55.2-40.7,80.3C-113.4,471.5-126.6,445.7-126.6,416.2z"/>
<path class="st3" d="M-1.7,387.6c-12.9-7.6-19.3-10.9-24.5-13.4c-8.1-3.9-15.9-7.1-22.4-8c-2.2-0.3-5.4,0.2-9.3,1.1
	c-7.9,1.9-18.3,5.2-28,5.2v14.7c10.3,0,20.3-3,30.7-5.6c2.4-0.6,4.4-1.2,6.9-1c3.2,0.3,6.8,1.3,10.5,2.9
	c8.8,3.8,18.3,10.3,25.4,14.9l-1.3-10L-1.7,387.6z"/>
<path d="M-58,366.9l-4.4,1.1c-7.3,1.9-15.5,4-23.4,4c-7.9,0-16.2-2.1-23.4-4l-4.4-1.1c-4.1-1-7.3-1.4-9.5-1.1
	c-5.7,0.7-12.6,3.2-22.6,8c-4.9,2.4-11.2,5.5-24.5,13.4l-1.4,0.8c0,0,12.1,0.9,13.1,1c-0.1,1-1.3,10.6-1.3,10.6l3.4-2.2
	c6.7-4.4,15.1-9.9,22.8-13.2c3.9-1.7,7.4-2.7,10.3-2.9c2.1-0.2,3.9,0.3,6,0.8l4.7,1.2c9.2,2.4,17.9,4.6,26.9,4.6s17.7-2.2,26.9-4.6
	l4.7-1.2c2.1-0.5,3.9-1,6-0.8c2.9,0.2,6.4,1.2,10.3,2.9c7.7,3.3,16.1,8.8,22.8,13.2l3.4,2.2c0,0-1.2-9.6-1.3-10.6
	c1-0.1,13.1-1,13.1-1l-1.4-0.8c-13.3-7.8-19.6-11-24.5-13.4c-10-4.8-16.9-7.3-22.6-8C-50.7,365.5-53.9,365.9-58,366.9z M-62.2,369
	l4.4-1.1c4-1,7.1-1.4,9.1-1.1c5.5,0.7,12.4,3.2,22.3,7.9c4.7,2.3,10.7,5.3,23,12.5c-2.4,0.2-10.9,0.8-10.9,0.8s1,7.7,1.2,9.4
	c-0.7-0.5-1.5-1-1.5-1c-6.7-4.4-15.1-10-23-13.3c-4.1-1.8-7.6-2.7-10.6-3c-2.3-0.2-4.2,0.3-6.3,0.9l-4.7,1.2
	c-9.1,2.3-17.8,4.6-26.6,4.6c-8.9,0-17.5-2.2-26.6-4.6l-4.7-1.2c-2.1-0.5-4-1-6.3-0.9c-3.1,0.2-6.5,1.2-10.6,3
	c-7.8,3.4-16.2,8.9-23,13.3c0,0-0.8,0.5-1.5,1c0.2-1.8,1.2-9.4,1.2-9.4s-8.4-0.6-10.9-0.8c12.3-7.2,18.3-10.2,23-12.5
	c9.9-4.8,16.7-7.2,22.3-7.9c2-0.3,5.1,0.1,9.1,1.1l4.4,1.1c7.3,1.9,15.6,4.1,23.7,4.1S-69.5,370.9-62.2,369z"/>
<path d="M-35.9,380.2l-1.4-0.5l0.6-2.4l0,0c0-0.2,0.1-0.4,0.2-0.6c0.1-0.2,0.1-0.4,0.2-0.7c-0.1,0.2-0.3,0.5-0.5,0.8
	c0,0.1-0.1,0.1-0.1,0.1l0,0l-1.7,2.2l-1-0.4l0.3-2.8l0,0c0,0,0-0.1,0-0.2c0-0.4,0.1-0.7,0.1-0.9c-0.1,0.2-0.2,0.4-0.3,0.6
	c-0.1,0.2-0.2,0.4-0.3,0.6l0,0l-1.2,2.2l-1.3-0.5l3-5l1.4,0.6l-0.3,3.1l0,0c0,0,0,0.1,0,0.1c0,0.3-0.1,0.5-0.1,0.7
	c0-0.1,0.1-0.2,0.2-0.3c0.1-0.1,0.2-0.2,0.3-0.4l0,0l1.9-2.4l1.4,0.6L-35.9,380.2L-35.9,380.2z M-49.1,370.6l1.5,0.2l-0.4,2.8l0,0
	c-0.1,0.4-0.1,0.7-0.1,0.9c0,0.2,0,0.3,0,0.5c0,0.2,0.1,0.3,0.3,0.4c0.1,0.1,0.3,0.2,0.5,0.2c0.2,0,0.4,0,0.6,0
	c0.2-0.1,0.3-0.2,0.4-0.3c0.1-0.1,0.1-0.3,0.2-0.4c0-0.2,0.1-0.5,0.2-0.9l0,0l0.1-0.4l0.3-2.4l1.5,0.2l-0.4,3l0,0
	c-0.1,0.6-0.2,1.1-0.3,1.4c-0.1,0.3-0.3,0.5-0.5,0.7c-0.2,0.2-0.5,0.3-0.9,0.4c-0.4,0.1-0.8,0.1-1.3,0c-0.5-0.1-0.9-0.2-1.2-0.3
	c-0.3-0.2-0.6-0.4-0.7-0.6c-0.1-0.2-0.2-0.5-0.3-0.8c0-0.3,0-0.8,0.1-1.4l0,0l0.1-0.6L-49.1,370.6L-49.1,370.6z M-58.1,378.4
	l-1.5-5.5l1.5-0.4l2.8,2.3l0,0c0.1,0,0.2,0.1,0.3,0.3c0.1,0.2,0.3,0.3,0.5,0.5c-0.1-0.2-0.2-0.4-0.2-0.6s-0.1-0.3-0.1-0.5l0,0
	l-0.7-2.7l1.4-0.4l1.5,5.5l-1.4,0.4L-57,375l0,0c-0.1,0-0.2-0.1-0.3-0.3c-0.1-0.1-0.3-0.3-0.5-0.5c0.1,0.2,0.2,0.4,0.2,0.6
	c0.1,0.2,0.1,0.3,0.1,0.5l0,0l0.7,2.7L-58.1,378.4L-58.1,378.4z M-67.3,374.8l1.5-0.4l0.7,2.7l0,0c0.1,0.4,0.2,0.7,0.3,0.8
	c0.1,0.2,0.1,0.3,0.2,0.4c0.1,0.1,0.2,0.2,0.4,0.2c0.2,0,0.3,0,0.6,0c0.2-0.1,0.4-0.1,0.5-0.2c0.1-0.1,0.2-0.2,0.2-0.4
	c0-0.1,0-0.3,0-0.5c0-0.2-0.1-0.5-0.2-0.9l0,0l-0.1-0.4l-0.6-2.3l1.5-0.4l0.8,2.9l0,0c0.2,0.6,0.2,1.1,0.2,1.4
	c0,0.3-0.1,0.6-0.2,0.8c-0.1,0.3-0.3,0.5-0.6,0.7c-0.3,0.2-0.7,0.4-1.2,0.5c-0.5,0.1-0.9,0.2-1.2,0.2c-0.4,0-0.7-0.1-0.9-0.3
	c-0.2-0.2-0.4-0.4-0.6-0.6c-0.2-0.3-0.3-0.7-0.5-1.3l0,0l-0.2-0.6L-67.3,374.8L-67.3,374.8z M-77.1,380.7c0.3,0.2,0.5,0.4,0.8,0.5
	c0.2,0.1,0.5,0.1,0.7,0.1c0.2,0,0.4-0.1,0.5-0.3c0.1-0.1,0.2-0.3,0.1-0.5c0-0.2-0.1-0.3-0.2-0.4s-0.4-0.1-0.8-0.2
	c-0.6-0.1-1-0.2-1.3-0.4c-0.3-0.2-0.4-0.5-0.5-0.9c-0.1-0.5,0-1,0.3-1.4c0.3-0.4,0.7-0.7,1.3-0.8c0.3-0.1,0.6-0.1,0.9,0
	c0.3,0,0.6,0.1,0.9,0.2l0,0l-0.3,1.2l0,0c-0.2-0.1-0.4-0.2-0.6-0.2c-0.2,0-0.4,0-0.6,0c-0.2,0-0.3,0.1-0.4,0.2
	c-0.1,0.1-0.1,0.2-0.1,0.4c0,0.1,0.1,0.2,0.2,0.3c0.1,0.1,0.3,0.1,0.6,0.1c0,0,0,0,0.1,0c0.7,0.1,1.1,0.2,1.3,0.3
	c0.2,0.1,0.3,0.3,0.4,0.4c0.1,0.2,0.2,0.4,0.2,0.6c0.1,0.6,0,1.1-0.3,1.5c-0.3,0.4-0.8,0.7-1.5,0.8c-0.4,0.1-0.8,0.1-1.1,0
	c-0.3-0.1-0.7-0.2-1-0.5l0,0L-77.1,380.7L-77.1,380.7z M-85.3,377.5l1.6-0.1l0.2,2.8l0,0c0,0.4,0.1,0.7,0.1,0.9
	c0,0.2,0.1,0.3,0.1,0.4c0.1,0.1,0.2,0.2,0.3,0.3c0.2,0.1,0.3,0.1,0.5,0.1c0.2,0,0.4-0.1,0.5-0.2c0.1-0.1,0.2-0.2,0.3-0.4
	c0-0.1,0.1-0.3,0.1-0.5c0-0.2,0-0.5,0-0.9l0,0l0-0.4l-0.2-2.4l1.5-0.1l0.2,3l0,0c0,0.6,0,1.1,0,1.4c-0.1,0.3-0.2,0.6-0.3,0.8
	c-0.2,0.2-0.4,0.4-0.8,0.6c-0.3,0.1-0.7,0.2-1.2,0.3c-0.5,0-0.9,0-1.3-0.1c-0.3-0.1-0.6-0.2-0.8-0.5c-0.2-0.2-0.3-0.4-0.4-0.7
	c-0.1-0.3-0.2-0.8-0.2-1.4l0,0l0-0.6L-85.3,377.5L-85.3,377.5z"/>
<path d="M-135.5,380.1l-2.2-5.3l3.2-1.4l0.5,1.2l-1.8,0.8l0.4,0.9l1.7-0.7l0.5,1.1l-1.7,0.7l0.4,0.9l1.8-0.8l0.5,1.2L-135.5,380.1
	L-135.5,380.1z M-123.4,376.5l-1.5,0.1l-0.2-5.7l1.6-0.1l0,0c0.6,0,1.1,0,1.3,0c0.3,0.1,0.5,0.2,0.7,0.3c0.2,0.2,0.4,0.4,0.5,0.6
	c0.1,0.3,0.2,0.5,0.2,0.9c0,0.3,0,0.6-0.1,0.9c-0.1,0.3-0.3,0.5-0.5,0.7c-0.2,0.1-0.3,0.2-0.6,0.3c-0.2,0.1-0.6,0.1-1,0.1l0,0
	l-0.3,0l-0.3,0L-123.4,376.5L-123.4,376.5z M-123.5,373.4l0.3,0l0,0c0.4,0,0.6-0.1,0.8-0.2c0.1-0.1,0.2-0.3,0.2-0.5
	c0-0.2-0.1-0.4-0.2-0.5c-0.1-0.1-0.4-0.1-0.8-0.1l0,0l-0.3,0L-123.5,373.4L-123.5,373.4z M-118.1,377.2l1.5-5.5l1.5,0.4l-1.1,4.2
	l1.9,0.5l-0.3,1.3L-118.1,377.2L-118.1,377.2z M-110.8,373.1l1.5,0.4l-0.7,2.7l0,0c-0.1,0.4-0.2,0.7-0.2,0.9c0,0.2,0,0.3,0,0.5
	c0,0.2,0.1,0.3,0.2,0.4c0.1,0.1,0.3,0.2,0.5,0.3c0.2,0.1,0.4,0.1,0.6,0c0.2,0,0.3-0.1,0.4-0.2c0.1-0.1,0.2-0.2,0.2-0.4
	c0.1-0.2,0.2-0.4,0.3-0.8l0,0l0.1-0.4l0.6-2.3l1.5,0.4l-0.8,2.9l0,0c-0.2,0.6-0.3,1-0.5,1.3c-0.2,0.3-0.3,0.5-0.6,0.6
	c-0.2,0.2-0.6,0.3-0.9,0.3c-0.4,0-0.8,0-1.2-0.2c-0.5-0.1-0.9-0.3-1.2-0.5c-0.3-0.2-0.5-0.4-0.6-0.7c-0.1-0.2-0.2-0.5-0.2-0.8
	c0-0.3,0.1-0.8,0.2-1.4l0,0l0.2-0.6L-110.8,373.1L-110.8,373.1z M-104.7,380.6l1.3-5.6l1.6,0.4l0,0c0.6,0.1,1,0.3,1.3,0.4
	c0.2,0.1,0.4,0.3,0.6,0.4c0.2,0.2,0.3,0.4,0.3,0.7c0.1,0.3,0,0.5,0,0.8c-0.1,0.4-0.3,0.8-0.6,1c-0.3,0.2-0.6,0.3-1.1,0.3l0,0l1,2.6
	l-1.7-0.4l-0.8-2.5l-0.5,2.2L-104.7,380.6L-104.7,380.6z M-102.6,378l0.3,0.1l0,0c0.3,0.1,0.6,0.1,0.8,0c0.2-0.1,0.3-0.2,0.3-0.5
	c0.1-0.3,0-0.5-0.1-0.6c-0.1-0.2-0.3-0.3-0.7-0.3l0,0l-0.3-0.1L-102.6,378L-102.6,378z M-97.9,382l1-5.6l1.5,0.3l-1,5.6L-97.9,382
	L-97.9,382z"/>
<path class="st2" d="M-123.2,372l-0.4,0l0.1,1.5l0.4,0c0.4,0,0.7-0.1,0.8-0.2c0.2-0.1,0.2-0.3,0.2-0.6c0-0.3-0.1-0.4-0.3-0.5
	C-122.6,372-122.8,372-123.2,372z M-123.2,372.1c0.4,0,0.6,0,0.7,0.1c0.1,0.1,0.2,0.2,0.2,0.5c0,0,0,0,0,0c0,0.2-0.1,0.4-0.2,0.4
	c-0.1,0.1-0.4,0.2-0.7,0.2c0,0-0.2,0-0.2,0c0-0.1,0-1.1,0-1.2C-123.4,372.1-123.2,372.1-123.2,372.1z"/>
<path class="st2" d="M-102.3,376.5l-0.4,1.5l0.3,0.1c0.3,0.1,0.6,0.1,0.8,0c0.2-0.1,0.3-0.3,0.4-0.5c0.1-0.3,0-0.5-0.1-0.7
	c-0.1-0.2-0.4-0.3-0.7-0.4L-102.3,376.5L-102.3,376.5z M-102.2,376.6c0.1,0,0.2,0.1,0.2,0.1c0.3,0.1,0.5,0.2,0.6,0.3
	c0.1,0.1,0.1,0.2,0.1,0.3c0,0.1,0,0.2,0,0.3c-0.1,0.2-0.2,0.4-0.3,0.4c-0.2,0.1-0.4,0.1-0.7,0c0,0-0.2,0-0.2-0.1
	C-102.5,377.8-102.2,376.7-102.2,376.6z"/>
<path d="M-97.7,339.6L-97.7,339.6L-97.7,339.6c0.5,0.1,1.5-0.5,2.3-1c0.5-0.3,1-0.5,1.2-0.6l0-0.1c-0.2,0.1-0.7,0.3-1.3,0.6
	c-0.8,0.4-1.7,0.9-2.1,1c0-1.7,0.5-2.7,2-4l-0.1-0.1C-97.2,336.8-97.7,337.9-97.7,339.6z"/>
<path class="st4" d="M-60,339.7c-1.1,0.4-2.4,0.1-3-1.2c-1.2,1-2.7,1.2-4.7,0.4l0,0l-8.1-11.1l1.2-11.2l0,0c2.1,1.1,4.4,1.3,5.3,1.2
	c6.1-0.6,1-5.3,9.9-9.3c3.2-5.8,8.3-7.8,11.3-8.4c14.7-2.9,34-1.4,49.1-1.5l0,0l19.3-0.2l0,0c-1.2,2.9-5.3,4.8-9.5,5.7
	c-1.1,2.7-2.5,4.2-5.9,5.6c-0.2,1.1-1,4.2-8.5,6.8c-1.6,4.3-9.3,7.5-16.3,8.8c-1.7,3.5-7.9,4.6-10.9,4.1c-0.3,1-2.4,2.2-3.3,2.1
	c0.1,0.4,0.3,2.1-1.8,1.7c0.4,1.3,0.1,2.1-0.5,2.5c-0.6,0.4-1.6,0.4-2.6,0.3c-0.2,0.8-0.9,1.1-1.7,1.1c-0.9,0-1.9-0.3-2.5-0.6
	c0,1.1-0.7,1.5-1.8,1.4c-1.2-0.1-2.5-0.7-3-1.2c-0.2,1.2-1.3,1.7-2.5,1.8c-0.8,0-1.6-0.1-2.3-0.4c-0.1,1-0.9,1.3-1.7,1.4
	c-1.4,0-3-1.2-3.3-2.1C-58,338.4-59,339.4-60,339.7L-60,339.7z"/>
<path d="M-48.2,299.6c-2.3,0.5-8,2.2-11.6,8.5c-4.8,2.2-5.6,4.7-6.2,6.5c-0.5,1.6-0.8,2.4-3.3,2.7c-0.9,0.1-3.1-0.1-5-1.1l-0.7-0.4
	l-1.4,12.2l8.4,11.4l0.2,0.1c1.9,0.7,3.4,0.6,4.7-0.2c0.8,1,2,1.4,3.4,0.9c0.9-0.3,1.7-1,2.3-1.9c0.8,0.8,2.1,1.5,3.2,1.5
	c0.8,0,1.6-0.4,2-1.2c0.6,0.2,1.3,0.3,1.9,0.3c1.3-0.1,2.2-0.6,2.7-1.4c0.7,0.5,1.8,0.8,2.7,0.9c0.8,0.1,1.4-0.1,1.8-0.5
	c0.2-0.2,0.3-0.4,0.4-0.7c0.6,0.2,1.4,0.4,2.1,0.4c1,0,1.6-0.4,2-1.1c1.1,0.1,2,0,2.6-0.4c0.5-0.3,0.9-0.8,0.9-1.8
	c0-0.2,0-0.3,0-0.5c0.7,0,1.1-0.3,1.3-0.6c0.3-0.4,0.4-0.8,0.4-1.2c0,0,0,0,0,0c1-0.2,2.4-1.1,3-2c3.1,0.3,8.9-0.8,10.9-4.2
	c6.5-1.2,14.4-4.3,16.4-8.8c4.9-1.8,7.8-4.1,8.5-6.9c3.1-1.3,4.7-2.8,5.9-5.5c3.1-0.7,8.2-2.4,9.6-6l0.3-0.8L1,298.1
	c-4,0-8.3,0-12.8-0.1C-23.8,297.7-37.4,297.5-48.2,299.6z M-69.2,318.5c3.2-0.3,3.7-1.9,4.3-3.5c0.6-1.7,1.3-3.9,5.8-5.9l0.2-0.1
	l0.1-0.2c3.3-6,8.7-7.7,10.9-8.1c10.7-2.1,23.7-1.9,36.2-1.6c4.5,0.1,8.8,0.2,12.8,0.1c0,0,16.6-0.1,18.3-0.2
	c-1.3,2-4.4,3.6-8.7,4.6l-0.3,0.1l-0.1,0.3c-1.1,2.7-2.5,4-5.6,5.2l-0.3,0.1l-0.1,0.3c-0.5,2.5-3.2,4.7-8.1,6.4l-0.3,0.1l-0.1,0.3
	c-1.5,4-9,7.1-15.9,8.4l-0.3,0.1l-0.1,0.3c-1.6,3.3-7.6,4.2-10.3,3.8l-0.5-0.1l-0.1,0.5c-0.2,0.6-2,1.7-2.6,1.6l-0.9-0.1l0.3,0.9
	c0,0.1,0.1,0.6-0.1,0.8c-0.2,0.3-0.8,0.2-1.1,0.1l-0.9-0.2l0.3,0.9c0.4,1.4-0.1,1.7-0.2,1.8c-0.3,0.2-0.9,0.4-2.2,0.2l-0.5-0.1
	l-0.1,0.5c0,0.2-0.2,0.7-1.1,0.7c-0.8,0-1.7-0.3-2.2-0.6l-0.9-0.5l0,1c0,0.3-0.1,0.5-0.2,0.6c-0.2,0.2-0.5,0.2-1,0.2
	c-1-0.1-2.2-0.6-2.6-1.1l-0.8-0.9l-0.2,1.2c-0.2,1.1-1.3,1.3-1.9,1.3c-0.7,0-1.4-0.1-2-0.4l-0.8-0.4l-0.1,0.8
	c-0.1,0.8-0.9,0.8-1.1,0.8c-1.2,0-2.6-1.1-2.8-1.7l-0.6-1.6l-0.5,1.6c-0.3,0.9-1.1,1.8-2,2.1c-0.5,0.2-1.7,0.4-2.3-0.9l-0.3-0.7
	l-0.6,0.5c-1,0.9-2.2,1-3.9,0.4c-0.2-0.3-7.6-10.4-7.9-10.7c0-0.4,1-8.9,1.1-10.2C-72.1,318.4-70.2,318.6-69.2,318.5z"/>
<path class="st4" d="M-102.8,336.6c-1.1,0.5-1.9,0.7-2.8,0.6c-0.8,0-1.6-0.3-2.3-0.8c-0.8,1.4-2,2-3.1,2c-1.3,0-2.3-0.9-2.9-2.1
	c-0.8,1.1-2.4,3-4.1,3c-0.7,0-1.2-0.4-1.5-1.6c-0.7,0.3-1.5,0.6-2.3,0.7c-1,0.1-1.8-0.2-1.7-1.4c-0.9,0.6-2.3,1.1-3.3,1.1
	c-0.9,0-1.5-0.4-1.2-1.5c-0.2,0.2-1.7,1-2.8,0.9c-0.6-0.1-1.1-0.4-1.3-1.1c-1,0.1-2-0.1-2.8-0.6c-0.8-0.5-1.3-1.4-1.2-2.5
	c-2.8,0.6-2.9-1.5-2.7-1.9c-0.9-0.2-2.4-0.8-2.8-1.7c-3.6-0.1-8.3-0.3-10.8-3.4c0,0,0.1-0.3-0.1-0.3c-5.7-0.2-13.8-3.2-15.3-7.5
	c-6.7-2.5-8.8-5.3-9.4-6.6c-3.7-1.2-6.7-2.6-7.5-5.4c-4.4-0.7-9.6-3.8-10.6-6.9l0,0l21.1-0.1l0,0c15.1-0.1,34.4-1.7,49.1,1.2
	c3,0.6,9.2,3.9,12.3,9.7c5.5,0.1,7.1,8.9,11.4,9c1.5,0,3.9-1.4,5.9-5c-0.8,0.2-1.6,0.4-2.4,0.3c-0.7,0-1.4-0.1-2-0.3
	c3.4-1.5,3.2-4.2,3.3-5.3c-0.8,0.4-2.2,0.5-3.2,0.1c0.6-0.8,1.3-2.5,1-3.7c-0.9,0.8-1.6,1.1-2.6,1.3c0.1-1,0-1.8-0.4-2.6
	c-1.6-3.5-6.6-2.4-6.5-6.2c0.6,0.7,1.5,1.3,2.5,1.3c0.5,0,1-0.2,1.5-0.6c0.2-0.3,0.3-0.7,0.3-1c0-0.5-0.2-1.1-0.5-1.5
	c-0.8-1.1-2-1.5-3.2-1.4c-1.8,0.1-3.6,1-4.2,1.3c0.2-3.1,3.1-4.6,5.7-4.6c1.5,0,3.2,0.6,4,1.5c1.8-1.2,3.6-1.3,6-0.1
	c2.7,1.4,8.7,3.1,11.6,2.3c-0.7,1.5-2.4,2-3.3,2.2c2.2,0,4.3,0.2,5.9,0.7c-1.2,0.6-2.2,1.3-3.3,1.8c1.9,0.2,3.7,0.3,5.3,1
	c-1.3,0.3-2.1,0.8-2.3,1.5c0.9,0.9,2.6,0.9,4.3,1.3c1.6,0.4,3.2,1.3,4.1,3.6c-0.9,0-1.9,0.1-2.8,0.5c2.2,1.7,3.7,3.4,4.2,4.9
	c-1,0-1.9,0.2-2.7,0.6c1.9,1.4,3.5,2.9,4.5,4.5c-1.1,0.1-2.3,0.4-3.4,0.7c1.8,1.3,3.2,2.8,3.9,4.3c-0.7-0.2-1.7-0.2-2.4-0.2
	c2,1.9,3.7,4.1,4.2,6.1c-0.7-0.3-1.5-0.4-2.4-0.6c0.5,1.5,0.9,3,1,4.5c3.2,2.4,5,5,4.7,9.2c-0.8-0.4-1.6-0.7-2.3-0.8
	c1.1,2,1.1,4,0.3,6.3c-0.6-0.7-1.2-1.2-1.8-1.5c0,2.5-0.3,4.5-1.1,6l0,0l-0.9-1.5l0,0c-1.1,2.4-3.4,5.2-5.4,4.6
	c-1.8,1.8-3.4,2.3-6.2,3.6c-0.4-0.5-1-0.8-1.6-1.3c-0.8,0.7-1.4,1.4-2,2.4c-0.6-0.8-1.2-1.4-1.8-2l0,0l-2.3,0.8l0,0
	c-4.9-3.3-9.4-4.2-8.9-9c-0.6,0.2-1.1,0.8-1.8,1.4c-0.5-1.6-0.6-4.4-0.3-6.8c-0.9,0.1-1.3,0.2-2.1,0.6c-0.1-0.9-0.1-3,1-5.3
	c-1.2,0.3-1.5,0.8-2.1,1.4C-104.1,339.3-103.6,337.8-102.8,336.6L-102.8,336.6z"/>
<path d="M-106.1,290.7c-2.8,0-6,1.6-6.2,5.1l-0.1,1.1l0.9-0.6c0.7-0.4,2.4-1.2,3.9-1.3c1.2,0,2.1,0.4,2.7,1.2
	c0.3,0.4,0.4,0.8,0.4,1.2c0,0.3-0.1,0.5-0.2,0.7c-0.3,0.3-0.6,0.4-1.1,0.4c-1,0-1.7-0.7-2.1-1.1l-1-1.1l0,1.4
	c-0.1,2.4,1.7,3.2,3.3,3.9c1.3,0.5,2.6,1.1,3.3,2.5c0.3,0.7,0.4,1.4,0.4,2.4l0,0.7l0.7-0.2c0.7-0.1,1.3-0.4,1.9-0.8
	c-0.1,0.8-0.5,1.6-0.9,2.2l-0.5,0.6l0.8,0.2c0.8,0.3,1.9,0.3,2.8,0.1c-0.1,1.2-0.4,2.9-2.9,4l-1.4,0.6l1.5,0.4
	c0.7,0.2,1.4,0.3,2.2,0.3c0.4,0,0.8,0,1.2-0.1c-1.6,2.5-3.5,3.6-4.7,3.6c-1.7,0-3-1.9-4.5-3.8c-1.7-2.3-3.6-4.9-6.6-5.1
	c-3.2-5.6-9.2-9.1-12.6-9.7c-11.2-2.2-25.2-1.8-37.7-1.5c-4.1,0.1-7.9,0.2-11.6,0.2l-21.9,0.1l0.2,0.7c1.1,3.4,6.3,6.5,10.7,7.3
	c1,2.9,4.2,4.3,7.5,5.4c0.7,1.5,2.9,4.1,9.4,6.6c1.9,4.5,9.9,7.2,15.3,7.6c0,0,0.1,0.1,0.1,0.1c2.6,3.3,7.5,3.5,10.9,3.6
	c0.6,0.9,1.8,1.4,2.5,1.6c0,0.5,0.2,1,0.5,1.4c0.4,0.4,1.1,0.8,2.2,0.7c0.1,0.9,0.6,1.8,1.4,2.3c0.8,0.5,1.8,0.8,2.8,0.8
	c0.3,0.6,0.8,1,1.6,1.1c0.7,0.1,1.6-0.2,2.3-0.5c0.1,0.2,0.1,0.4,0.3,0.5c0.3,0.4,0.8,0.6,1.6,0.6c0.9,0,2-0.4,2.9-0.8
	c0.1,0.2,0.2,0.4,0.4,0.6c0.4,0.4,1,0.6,1.8,0.5c0.6,0,1.2-0.2,1.9-0.5c0.5,1.2,1.3,1.4,1.9,1.4c1.7,0,3.2-1.5,4-2.5
	c0.7,1,1.8,1.6,2.9,1.7c1.3,0,2.5-0.7,3.3-1.8c0.7,0.4,1.3,0.6,2.1,0.6c0.5,0,1,0,1.6-0.2c-0.4,1-0.7,2.2-0.7,3.3v1.3l1.3-1.2
	c0.1-0.1,0.2-0.2,0.4-0.3c-0.4,1.1-0.6,2.2-0.6,3.4c0,0.2,0,0.5,0,0.7l0.1,0.9l0.8-0.4c0.5-0.2,0.8-0.4,1.2-0.5
	c-0.1,0.7-0.1,1.5-0.1,2.3c0,1.4,0.1,2.9,0.5,3.9l0.3,0.8l0.9-0.9c0.2-0.2,0.4-0.3,0.5-0.5c0.2,3.1,2.6,4.6,5.7,6.3
	c1.1,0.6,2.3,1.3,3.5,2.1l0.2,0.2c0,0,1.7-0.6,2.2-0.8c0.5,0.5,1,1,1.5,1.7l0.5,0.7l0.5-0.7c0.5-0.8,1-1.4,1.6-1.9c0,0,0,0,0,0
	c0.4,0.3,0.8,0.6,1,0.9l0.3,0.3l1.6-0.7c2.1-0.9,3.4-1.5,5-3c2,0.3,4-1.6,5.3-4c0.2,0.3,0.9,1.5,0.9,1.5l0.5-0.9
	c0.7-1.4,1.1-3.1,1.1-5.3c0.3,0.2,0.6,0.5,0.8,0.9l0.7,0.8l0.3-1c0.4-1.2,0.6-2.3,0.6-3.2c0-0.8-0.2-1.6-0.5-2.4
	c0.4,0.1,0.7,0.3,1.1,0.5l0.8,0.4l0.1-0.9c0-0.3,0-0.6,0-0.9c0-3.5-1.5-6.1-4.8-8.6c-0.1-1.1-0.3-2.3-0.7-3.5c0.5,0.1,1,0.2,1.4,0.4
	l1.1,0.4l-0.3-1.1c-0.6-2-2-3.9-3.4-5.4c0.3,0,0.6,0.1,0.9,0.1l1.1,0.2l-0.5-1.1c-0.6-1.3-1.7-2.6-3.1-3.8c0.7-0.2,1.4-0.3,2.1-0.4
	l0.9-0.1l-0.5-0.8c-0.9-1.5-2.4-2.9-3.8-4c0.5-0.1,1-0.2,1.6-0.2l0.8,0l-0.3-0.7c-0.5-1.3-1.7-2.8-3.6-4.4c0.5-0.1,1-0.2,1.6-0.2
	h0.9l-0.3-0.8c-1.1-2.7-3-3.6-4.5-4l-1.6-0.4c-0.8-0.2-1.5-0.3-2.1-0.6c0.3-0.3,0.9-0.6,1.6-0.8l1.5-0.4l-1.4-0.7
	c-1.1-0.6-2.4-0.8-3.7-0.9c0.5-0.3,2.8-1.6,2.8-1.6l-1.2-0.4c-1-0.3-2.2-0.5-3.6-0.7c0.5-0.4,1-0.9,1.3-1.5l0.5-1.1l-1.1,0.3
	c-2.7,0.7-8.6-0.8-11.2-2.2c-2.3-1.2-4.3-1.2-6.2-0.1C-103.1,291.1-104.8,290.7-106.1,290.7z M-106.1,291.8c1.4,0,2.9,0.5,3.5,1.3
	l0.3,0.4l0.4-0.3c1.6-1.1,3.3-1.2,5.4,0c2.4,1.2,7.3,2.6,10.6,2.5c-0.6,0.5-1.4,0.7-2.1,0.9l-4.4,1.2l4.5-0.1c1.6,0,3.1,0.1,4.3,0.4
	c-0.4,0.2-0.9,0.5-0.9,0.5l-2.7,1.6l1.8,0.2l0.5,0c1.1,0.1,2.2,0.2,3.2,0.4c-0.7,0.4-1,0.9-1.2,1.3l-0.1,0.3l0.3,0.2
	c0.8,0.7,1.8,0.9,3,1.1l1.5,0.3c1.2,0.3,2.5,0.9,3.4,2.6c-0.8,0.1-1.5,0.2-2.1,0.5l-0.8,0.4l0.7,0.6c1.8,1.4,3.1,2.8,3.7,4
	c-0.8,0.1-1.5,0.3-2.1,0.6l-0.8,0.4l0.7,0.6c1.8,1.4,3,2.5,3.8,3.6c-0.9,0.1-1.7,0.3-2.6,0.5l-1.1,0.3l1,0.7c1.4,1,2.5,2.1,3.2,3.1
	c-0.5,0-1-0.1-1.4,0l-1.2,0.1l0.9,0.9c1.8,1.7,3,3.3,3.7,4.8c-0.4-0.1-0.9-0.2-1.3-0.2l-0.9-0.1l0.3,0.9c0.5,1.6,0.8,3,0.9,4.4
	l0,0.3l0.2,0.2c3.1,2.4,4.5,4.7,4.5,7.9c-0.6-0.2-1.1-0.4-1.7-0.5l-1.2-0.2l0.6,1c0.5,0.9,0.8,1.9,0.8,2.9c0,0.6-0.1,1.2-0.3,1.9
	c-0.4-0.4-0.8-0.7-1.3-0.9l-0.8-0.4c0,0,0,0.9,0,0.9c0,1.9-0.2,3.5-0.6,4.7c-0.1-0.2-0.9-1.4-0.9-1.4l-0.5,1
	c-1.1,2.4-3.2,4.8-4.7,4.3l-0.3-0.1l-0.2,0.2c-1.5,1.5-2.7,2-4.8,3c0,0-0.5,0.2-0.9,0.4c-0.3-0.3-0.6-0.5-0.9-0.7l-0.8-0.6l-0.4,0.3
	c-0.6,0.5-1.2,1.2-1.7,1.9c-0.5-0.6-1-1.1-1.5-1.5l-0.3-0.2c0,0-1.9,0.7-2.3,0.9c-1.1-0.8-2.3-1.4-3.3-2c-3-1.7-5.1-2.9-5.1-5.7
	c0-0.2,0-0.4,0-0.6l0.1-0.9l-0.9,0.3c-0.5,0.2-0.8,0.5-1.2,0.9c-0.1-0.8-0.2-1.7-0.2-2.7c0-0.9,0.1-1.9,0.2-2.9l0.1-0.7l-0.7,0.1
	c-0.6,0.1-1,0.2-1.4,0.3c0-1.5,0.3-2.9,1-4.1l0.6-1.1l-1.2,0.3c-0.6,0.1-1,0.3-1.3,0.5c0.2-0.9,0.5-1.8,1.1-2.6l1.1-1.6l-1.8,0.8
	c-1,0.4-1.8,0.6-2.5,0.6c-0.7,0-1.3-0.2-1.9-0.7l-0.5-0.4l-0.3,0.5c-0.6,1.1-1.6,1.7-2.6,1.7c-1,0-1.9-0.7-2.4-1.8l-0.4-1l-0.6,0.9
	c-0.9,1.3-2.3,2.7-3.6,2.7c-0.2,0-0.7,0-0.9-1.2l-0.2-0.7l-0.6,0.3c-0.7,0.3-1.5,0.6-2.1,0.6c-0.5,0-0.8,0-1-0.2
	c-0.1-0.1-0.2-0.3-0.2-0.6l0.1-1.1l-0.9,0.6c-0.8,0.5-2.1,1-3,1c-0.3,0-0.6-0.1-0.7-0.2c-0.1-0.1-0.1-0.4,0-0.7l0.4-1.8l-1.4,1.2
	c-0.2,0.2-1.4,0.8-2.3,0.7c-0.4,0-0.7-0.2-0.8-0.7l-0.1-0.5l-0.5,0.1c-0.8,0.1-1.8-0.1-2.4-0.6c-0.5-0.3-1.1-1-1-2l0.1-0.8l-0.8,0.2
	c-0.6,0.1-1.4,0.2-1.8-0.2c-0.2-0.3-0.3-0.6-0.3-0.8c0-0.1,0-0.1,0-0.1l0.1-0.6l-0.6-0.2c-1-0.2-2.1-0.7-2.4-1.4l-0.1-0.3l-0.4,0
	c-3.1-0.1-7.8-0.2-10.2-3.1c0-0.1,0-0.2-0.1-0.3c-0.1-0.2-0.3-0.3-0.5-0.3c-5.9-0.3-13.4-3.2-14.8-7.1l-0.1-0.2l-0.2-0.1
	c-6.9-2.6-8.7-5.3-9.1-6.3l-0.1-0.2l-0.2-0.1c-3.9-1.3-6.4-2.6-7.1-5.1l-0.1-0.4l-0.4-0.1c-4.1-0.7-8.4-3.3-9.8-5.8
	c1.6,0,20.2-0.1,20.2-0.1c3.7,0,7.5-0.1,11.6-0.2c12.3-0.3,26.3-0.7,37.4,1.4c3.1,0.6,9,4,11.9,9.4l0.2,0.3l0.3,0
	c2.6,0.1,4.3,2.4,6,4.7c1.6,2.2,3.1,4.3,5.4,4.3c1.6,0,4.2-1.3,6.4-5.3l0.7-1.2l-1.3,0.4c-0.7,0.2-1.5,0.3-2.2,0.3
	c-0.1,0-0.2,0-0.4-0.1c2.1-1.6,2.2-3.6,2.2-4.7l0-1.2l-0.8,0.4c-0.5,0.2-1.3,0.3-2,0.2c0.4-0.7,0.7-1.7,0.7-2.6c0-0.3,0-0.5-0.1-0.8
	l-0.2-0.9l-0.7,0.6c-0.6,0.5-1.1,0.8-1.6,1c0-0.8-0.2-1.5-0.4-2.1c-0.8-1.8-2.4-2.5-3.9-3.1c-1-0.4-1.7-0.8-2.1-1.3
	c0.5,0.2,0.9,0.3,1.4,0.3c0.7,0,1.4-0.3,1.9-0.8c0.3-0.4,0.5-0.9,0.5-1.4c0-0.6-0.2-1.3-0.6-1.9c-0.8-1.1-2.1-1.7-3.6-1.7
	c-1.3,0-2.5,0.5-3.4,0.9C-110.3,292.7-108.1,291.8-106.1,291.8z M-152.9,325.9L-152.9,325.9L-152.9,325.9
	C-152.9,325.9-152.9,325.9-152.9,325.9z"/>
<path class="st4" d="M-97,346.3c-0.1,3.3-1.1,9.2-4,11.3c-2.5,1.8-6,0.5-7.8,3l0,0l0.2,1.5l0,0c2.8,0,3.3,0.2,6.3-1.8
	c-1.9,1.3-3.1,2.2-3.3,4.4c0.7,0.2,1.1,0.8,1.6,1.1c0.9-0.9,2-2,3.2-4c-0.2,1.6-0.9,2.7-0.9,4.2c0.7-0.1,1.3-0.1,2,0
	c0.6-1.3,2.1-4.1,2.1-5.5c1.7,0,2.9-0.3,4.5-0.6c0.7-0.1,1.5,0.1,2.5-0.1c0.1-0.7,0-1.4,0-2c-1.8-0.6-2-1.1-4.2-2.1
	c-0.8-1.7,0.2-4.5,0.8-7.3c-1-0.5-1.8-1.4-2.2-2.5C-96.5,345.9-96.8,346.1-97,346.3L-97,346.3z"/>
<path d="M-96.5,345.3l-1.1,0.6l0,0.3c-0.1,3.3-1.2,9-3.8,10.9c-1,0.7-2.2,0.9-3.4,1.1c-1.7,0.3-3.4,0.5-4.5,2.1l-0.1,0.2l0.3,2.2
	l1.1,0c1,0,1.7,0,2.4-0.1c-0.3,0.6-0.6,1.2-0.6,2.1l-0.1,0.5l0.5,0.1c0.3,0.1,0.5,0.3,0.8,0.5l1,0.8l0.3-0.4l0.3-0.4
	c0.4-0.4,0.8-0.8,1.2-1.3c-0.1,0.5-0.2,0.9-0.2,1.5v0.7l0.7-0.1c0.6-0.1,1.2-0.1,1.8,0l0.4,0.1l0.5-1.1c0.8-1.7,1.5-3.3,1.7-4.5
	c1.2,0,2.1-0.2,3.2-0.4l0.9-0.2l1,0c0.4,0,0.9,0,1.5-0.1l0.5-0.1l0-0.4l0-1.5l0-1l-0.4-0.1c-0.9-0.3-1.4-0.6-2.1-1
	c-0.5-0.3-1-0.6-1.8-1c-0.1-0.3-0.2-0.7-0.2-1.1c0-1,0.3-2.3,0.6-3.7l0.5-2.4l-0.4-0.2c-0.9-0.5-1.6-1.3-1.9-2.2L-96,345
	L-96.5,345.3z M-104.6,359.3c1.3-0.2,2.7-0.4,3.9-1.3c3-2.2,4.1-7.8,4.3-11.2c0.4,0.7,1,1.4,1.7,1.8c-0.1,0.5-0.4,1.6-0.4,1.6
	c-0.3,1.4-0.6,2.7-0.6,3.9c0,0.6,0.1,1.2,0.3,1.8l0.1,0.2l0.2,0.1c0.9,0.4,1.5,0.8,1.9,1.1c0.6,0.4,1.1,0.7,1.9,1c0,0.1,0,0.2,0,0.2
	s0,0.4,0,0.8c-0.3,0-0.6,0-0.8,0l-1.2,0l-1,0.2c-1.2,0.2-2.2,0.4-3.5,0.4h-0.6v0.6c0,1.1-1,3.2-1.7,4.5c0,0-0.1,0.2-0.2,0.4
	c-0.3,0-0.6,0-1,0c0.1-0.5,0.2-1,0.4-1.5c0.2-0.6,0.4-1.3,0.5-2.1l0.3-2.5l-1.3,2.2c-1,1.7-2,2.7-2.8,3.6c0,0-0.1-0.1-0.1-0.1
	c-0.2-0.2-0.5-0.4-0.8-0.6c0.3-1.7,1.3-2.4,3-3.6l-0.7-0.9c-2.6,1.8-3.1,1.8-5.3,1.7c0,0-0.1,0-0.2,0c0-0.3-0.1-0.5-0.1-0.7
	C-107.4,359.7-106.1,359.5-104.6,359.3z"/>
<path class="st4" d="M-106,368.3c-0.4-0.6-0.7-2.5,0.1-3.6c0.5,0.2,1.5,0.5,1.9,0.9C-104.6,366.2-105.6,367.5-106,368.3L-106,368.3z
	"/>
<path d="M-106.4,364.4c-0.9,1.3-0.7,3.4-0.1,4.3l0.6,0.9l0.4-1c0.3-0.8,1.3-2,1.8-2.5l0.4-0.4l-0.4-0.4c-0.4-0.5-1.2-0.8-1.8-1
	l-0.7-0.3L-106.4,364.4z M-105.8,366.5c0-0.4,0.1-0.8,0.2-1.1c0.2,0.1,0.5,0.2,0.7,0.3c-0.3,0.3-0.6,0.7-0.9,1.2
	C-105.8,366.8-105.8,366.7-105.8,366.5z"/>
<path d="M-88.8,342.4c0.6,0.6,1.4,2.6,1.4,4.4c0,0.4,0,0.7-0.1,1.1c-0.2,1-0.7,1.7-1.4,2.2c-0.4-1.2-1.4-3.3-2.8-4.2l-0.5-0.3
	l-0.3,0.5c-0.4,0.6-0.6,1.3-0.8,2.1c-1.2-0.4-2.1-1.3-2.6-2.5l-0.2-0.6l-0.6,0.2c-0.9,0.4-1.8,1.3-2.4,1.9c0,0-0.1,0.1-0.1,0.1
	c-0.8-1-1.2-1.9-1.2-3.1l0-0.7l-1.7,0.3l0.3,1.1c0,0,0.2,0,0.3-0.1c0.2,1.3,0.7,2.4,1.8,3.6l0.4,0.4l0.4-0.4l0.6-0.5
	c0.4-0.4,1-1,1.6-1.4c0.7,1.4,2,2.5,3.6,2.8l0.6,0.1l0-0.7c0-0.7,0.2-1.2,0.4-1.7c1.2,1.1,1.9,3.3,2,3.8l0.1,0.8l0.7-0.3
	c1.4-0.6,2.3-1.8,2.7-3.3c0.5-2.5-0.6-5.5-1.6-6.5L-88.8,342.4z"/>
<path d="M-88.5,310.5c-0.6,2.7-2,3.4-3.5,3.8c0.1-0.5,0.2-1,0.2-1.6c0-0.4,0-0.7-0.1-1.1l-0.3-1.3l-0.7,1.1
	c-0.9,1.5-2.3,2.3-4.1,2.4l0.1,1.1c1.6-0.1,2.9-0.7,3.9-1.6c-0.1,0.5-0.2,1-0.5,1.4l-0.8,1.1l1.3-0.2c1.6-0.3,3.8-0.7,4.9-3.4
	c0.1,0.3,0.1,0.7,0.1,1c0,0.3,0,0.6-0.1,1l-0.2,1.2l1-0.6c1.9-1.2,2.3-2.4,2.4-4.2l-1.1,0c0,1.1-0.2,1.8-0.9,2.5
	c0-0.8-0.2-1.7-0.8-2.7l-0.7-1.2L-88.5,310.5z"/>
<path d="M-100,294.5c-0.9,0-1.5,0.6-1.6,1.4c0,0.5,0.2,0.9,0.5,1.3c0.3,0.4,0.5,0.8,0.5,1.4h1.1c0-0.9-0.4-1.5-0.7-2
	c-0.1-0.2-0.3-0.5-0.3-0.6c0-0.2,0-0.3,0.5-0.3c0.7,0,1.5,0.5,2.4,1c1.4,0.9,3.2,2,5.8,2l0-1.1c-2.2,0-3.8-1-5.2-1.8
	C-98.1,295-99,294.5-100,294.5z"/>
<path d="M-100.4,295.4c0.2,1.2,1.2,2.7,2.8,3.1c0.5,0.1,1.3,0.2,1.9-0.2c0.2-0.2,0.5-0.6,0.5-1.2l-1.1,0c0,0.1,0,0.3-0.1,0.3
	c-0.1,0.1-0.5,0.1-0.9,0c-1.1-0.3-1.8-1.3-2-2.2L-100.4,295.4z"/>
<path d="M-80.8,308.7c0.6,0.7,0.9,1.3,1,2c-1-0.7-2.1-1.1-3.1-1.1l0,1.1c1,0,2.3,0.6,3.2,1.5l0.7,0.7l0.3-0.9
	c0.4-1.4,0.1-2.7-1.1-4.1L-80.8,308.7z"/>
<path d="M-79.2,315.3c0.2,0.4,0.4,0.9,0.5,1.6c-0.6-0.7-1.3-1.2-2.4-1.4l-0.3,1.1c1.2,0.3,1.8,0.8,2.7,2.2l0.6,1l0.4-1.1
	c0.5-1.6-0.1-3.1-0.5-3.9L-79.2,315.3z"/>
<path d="M-93.8,321.9l0.2,1.1l0.8-0.8c0.9-0.9,2.7-1.7,3.5-1.9l-0.2-1.1c-0.7,0.1-2.1,0.6-3.2,1.4c0.1-0.9,0.5-1.7,1.2-2.2l-0.7-0.9
	C-93.4,318.4-94,320.1-93.8,321.9z"/>
<path d="M-83.4,322c0.3,0.5,0.5,1.3,0.5,2c0,0.3,0,0.6-0.1,0.9c-0.8-1.4-1.9-2.5-3.1-3.1l-0.5,1c1.3,0.6,2.5,2,3.2,3.7l0.4,1.1
	l0.6-1c0.8-1.5,0.8-3.8,0-5.3L-83.4,322z"/>
<path d="M-76.6,321.5c0.4,0.8,0.6,1.6,0.6,2.6c0,0,0,0.1,0,0.1c-0.8-1-1.7-1.9-3.2-2.5l-0.4,1.1c1.5,0.6,2.4,1.7,3.3,2.9l1.1,1.4
	l0.2-1.2c0.3-1.8,0.1-3.4-0.6-4.8L-76.6,321.5z"/>
<path d="M-75.8,327.9c0.4,0.5,0.5,1.1,0.5,1.7c0,0.2,0,0.4-0.1,0.5c-0.7-1-1.8-2.1-3.2-2.6l-0.3,1.1c1.5,0.5,2.8,2.1,3.2,3.1
	l0.5,1.2l0.6-1.1c0.6-1.2,0.9-3.1-0.2-4.6L-75.8,327.9z"/>
<path d="M-95.3,330.6l0.1,1.3l0.9-0.9c0.9-1,2.7-2.2,4-2.5l-0.2-1.1c-1.1,0.2-2.4,1-3.5,1.9c0.2-1.3,1-2.3,2.1-2.8l-0.5-1
	C-94.4,326.2-95.5,328.2-95.3,330.6z"/>
<path d="M-100.3,323.8v1.1l0.9-0.6c1-0.7,2.4-1.4,3-1.6l-0.3-1.1c-0.6,0.2-1.5,0.7-2.3,1.2c0.2-1.2,0.6-2.8,2-3.6l-0.6-1
	C-100,319.5-100.3,322.5-100.3,323.8z"/>
<path d="M-75,334.8c0.8,0.7,1.9,2,2.3,3.4l0.3,1l0.7-0.7c1.4-1.5,1-3.3,0.8-4.1l0-0.2l-1.1,0.2l0.1,0.2c0.1,0.3,0.2,0.8,0.2,1.3
	c0,0.3,0,0.6-0.1,0.9c-0.6-1.2-1.5-2.3-2.2-2.9L-75,334.8z"/>
<path d="M-82.6,337.6l0.1,1.2l0.9-0.8c1.1-1.1,2.4-1.8,3.6-2.2l-0.4-1.1c-1,0.3-1.9,0.8-2.9,1.5c0.3-1,0.9-1.9,1.6-2.3l-0.5-1
	C-81.7,333.6-82.7,335.9-82.6,337.6z"/>
<path d="M-88.7,334.1c0.8,0.3,1.7,1.5,2,2.6c-1-0.7-2-1-2.8-1.2l-0.7-0.2l-0.4,1.1l0.7,0.2c1.1,0.3,2.2,0.6,3.5,2l0.9,0.9l0.1-1.2
	c0.2-1.9-1.4-4.6-3-5.2L-88.7,334.1z"/>
<rect x="-102.8" y="292.8" transform="matrix(2.410023e-02 0.9997 -0.9997 2.410023e-02 193.6447 388.3441)" width="1.5" height="1.1"/>
<path d="M-101.5,329.7l0,1.2l1.6-1.2c0.4-0.3,0.7-0.6,1.1-0.8c-0.5,1.1-0.8,2.3-0.8,3.4c0,0.4,0,0.7,0.1,1.1l1.1-0.2
	c-0.3-1.6,0.2-3.4,1.3-5.1l0.8-1.2l-1.4,0.3c-0.9,0.2-1.6,0.6-2.2,1c0.5-1.1,1.4-2.1,2.4-2.4l-0.3-1.1
	C-99.8,325.3-101.5,327.6-101.5,329.7z"/>
<rect x="-99.5" y="333.3" transform="matrix(0.4919 0.8706 -0.8706 0.4919 239.9124 255.5201)" width="1.1" height="0.1"/>
<path d="M-103.4,336.5l1,0.6c1.3-2.1,3.3-3.4,5.3-3.4l0-1.1C-99.6,332.6-101.9,334-103.4,336.5z"/>
<path d="M-174.7,299.5c3,4.5,5.8,7,11.9,7c4.8,0,10.4-1.6,14.1-2.6l-0.3-1.1c-3.6,1-9.1,2.6-13.7,2.6c-5.6,0-8.1-2.2-10.9-6.5
	L-174.7,299.5z"/>
<path d="M-168.4,305.4c1.8,3.6,5,5.3,10,5.3c5.9,0,8.5-0.7,11.5-1.5l-0.3-1.1c-2.9,0.8-5.4,1.5-11.2,1.5c-4.5,0-7.3-1.4-8.9-4.7
	L-168.4,305.4z"/>
<path d="M-147.7,315.2c1.6,3.1,5.4,4.8,10.8,4.8c3.6,0,7.6-0.8,11.4-2.3l-0.4-1.1c-3.7,1.4-7.6,2.2-11,2.2c-4.9,0-8.4-1.4-9.8-4.1
	L-147.7,315.2z"/>
<path d="M-159.5,310.6c2.3,2.8,7.3,4.7,12.5,4.8c1.9,0,8.6,0,13.6-2.1l-0.4-1.1c-4.8,2-11.3,2.1-13.2,2c-5.5-0.1-9.9-2.4-11.6-4.4
	L-159.5,310.6z"/>
<path d="M-141.8,319.3c0.8,1.9,2.3,3.3,4.4,4.1c5,1.8,12.3-0.3,16-2.3l-0.6-1c-3.4,1.9-10.5,3.9-15,2.2c-1.8-0.6-3.1-1.8-3.7-3.4
	L-141.8,319.3z"/>
<path d="M-128.4,326.7c0.5,1,1.5,1.7,2.8,2.1c2.3,0.6,5.4,0.1,7.6-1.2l-0.6-1c-1.9,1.2-4.8,1.6-6.7,1.1c-1-0.3-1.7-0.8-2.1-1.5
	L-128.4,326.7z"/>
<path d="M-134.3,323.8c0.6,0.8,1.9,2.8,5.4,3.1c2.5,0.2,5.9-0.5,9.9-2l-0.4-1.1c-3.8,1.5-7,2.2-9.3,2c-3-0.2-4-1.8-4.6-2.6
	L-134.3,323.8z"/>
<path d="M-123.6,328.6c0.1,1,1.3,2.2,2.9,2.7c1.1,0.4,3.9,1.1,6.4-1.4l-0.8-0.8c-2,2-4.3,1.5-5.1,1.2c-1.3-0.5-2.1-1.3-2.2-1.8
	L-123.6,328.6z"/>
<path d="M-111.2,331.4c-0.4,1-1.8,1.6-3.4,1.6c-1.4,0-3.1-0.6-3.8-2l-1,0.5c0.8,1.6,2.6,2.6,4.8,2.6c1.8,0,3.2-0.6,4-1.6
	c0.9,0.9,2.1,1.4,3.3,1.4c1.3,0,2.6-0.6,3.7-1.8c0.9,0.2,1.9,0.2,2.8-0.1l-0.3-1.1c-0.8,0.3-1.7,0.3-2.5,0.1l-0.3-0.1l-0.2,0.3
	c-1,1.1-2,1.6-3.1,1.6c-1.1,0-2.1-0.5-2.9-1.5l-0.6-0.8L-111.2,331.4z"/>
<path d="M-184.4,305.7l-0.2,1.1c5.3,1,12,0.4,17.3-0.2l-0.1-1.1C-172.6,306.1-179.3,306.7-184.4,305.7z"/>
<path d="M-177.1,311l-0.3,1.1c5.6,1.4,13.9,1.2,19.3-0.4l-0.3-1.1C-163.6,312.2-171.7,312.4-177.1,311z"/>
<path d="M-167.8,318.8c9.6,3.5,22.3,1.3,25.9,0.6l-0.2-1.1c-3.6,0.7-16,2.8-25.3-0.5L-167.8,318.8z"/>
<path d="M-152,325.2v1.1c5,0,12.3-1.4,15-2.8l-0.5-1C-140.1,323.9-147.3,325.2-152,325.2z"/>
<path d="M-141.5,328.9l0,1.1c2.5,0.1,8.8-1.4,11.4-3.4l-0.7-0.9C-133.3,327.6-139.2,329-141.5,328.9z"/>
<path d="M-138.7,330.6l-0.1,1.1c3.7,0.3,9.2-0.5,12.6-3.7l-0.8-0.8C-130.1,330.2-135.3,330.9-138.7,330.6z"/>
<path d="M-132.4,335.8l0.7,0.9c0.8-0.7,1.6-1.7,2.4-2.8l-1-0.6C-130.9,334.3-131.7,335.2-132.4,335.8z"/>
<path d="M-128.5,336.2l0.7,0.9c0.8-0.6,1.4-1.4,2.1-2.5l-1-0.6C-127.2,334.9-127.8,335.6-128.5,336.2z"/>
<polygon points="-123.7,336.4 -123.8,336.5 -123,337.3 -122.9,337.2 -121.5,335.6 -122.4,334.9 "/>
<rect x="-119" y="335.2" transform="matrix(0.7707 0.6372 -0.6372 0.7707 187.3028 152.6016)" width="1.1" height="2.8"/>
<path d="M-153.4,304.8c0.9,2.1,3,4.3,5.4,4.3c3,0.1,7.3-1.2,10.7-3.3l-0.6-1c-3.2,1.9-7.3,3.2-10.1,3.1c-1.9,0-3.7-1.9-4.4-3.6
	L-153.4,304.8z"/>
<path d="M-140.7,309.9c-1.7,0-3-0.6-4.2-1.9l-0.8,0.8c1.4,1.5,3,2.2,5,2.2c3.3,0,7-2,10.1-4.1l-0.6-1
	C-134,307.8-137.7,309.9-140.7,309.9z"/>
<path d="M-127.8,309.3c-2,1.4-4.1,2.8-6.1,2.9c-1.5,0-2.8-0.7-4.1-2.2l-0.9,0.7c1.5,1.8,3.1,2.6,5,2.6c2.3-0.1,4.5-1.6,6.7-3.1
	l1-0.7l-0.6-0.9L-127.8,309.3z"/>
<path d="M-129.1,313.8c-1.9,0.1-2.5-0.6-2.8-1.3l-1,0.5c0.7,1.4,1.9,2.1,3.9,2c2.2-0.1,4.8-1.4,7-3.4l-0.8-0.8
	C-124.8,312.5-127.2,313.7-129.1,313.8z"/>
<path d="M-126.2,315.5c-0.7-0.2-1.3-0.6-1.6-1.3l-1,0.5c0.5,0.9,1.3,1.6,2.3,1.9c1.9,0.5,4.6-0.1,7.8-2l-0.6-1
	C-123,315.7-125.1,315.8-126.2,315.5z"/>
<path d="M-126.5,316.2c0.4,1.2,1.1,2.1,2.2,2.6c3.2,1.4,8.1-0.8,9.1-1.3l-0.5-1c-2,0.9-5.9,2.3-8.1,1.3c-0.8-0.4-1.3-1-1.6-1.9
	L-126.5,316.2z"/>
<path d="M-123.3,319.1c2,3.6,4.9,4.1,11.1,1.8l-0.4-1.1c-6.3,2.4-8.2,1.4-9.7-1.3L-123.3,319.1z"/>
<path d="M-118.8,322.1c0.6,1.4,1.6,2.3,2.9,2.8c2,0.7,4.6,0.2,7.1-1.2l-0.6-1c-2.2,1.3-4.5,1.7-6.1,1.1c-1-0.4-1.8-1.1-2.2-2.1
	L-118.8,322.1z"/>
<path d="M-113.7,325.1c0.6,1.4,1.6,2.3,2.8,2.6c1.5,0.4,3.2,0,5.2-1.3c0.7,1.5,1.8,1.9,3.3,1.8l0-1.1c-1.3,0-1.9-0.1-2.4-1.7
	l-0.2-0.7l-0.6,0.4c-1.9,1.4-3.6,1.9-4.8,1.5c-1.1-0.3-1.8-1.3-2.1-2L-113.7,325.1z"/>
<path d="M-11.9,303.8c-4.9,0-9.2-0.5-12.8-1.6l-0.3,1.1c3.7,1.1,8.1,1.6,13.1,1.6c5.3,0,8.7-1.7,11.8-5.9l-0.9-0.7
	C-3.9,302.3-6.9,303.8-11.9,303.8z"/>
<path d="M-17.8,309.2c-2.3,0-5.4-0.4-8.4-1.2l-0.3,1.1c3.1,0.8,6.3,1.3,8.7,1.3c4.6,0,7.8-1.8,10.5-5.8l-0.9-0.6
	C-10.7,307.6-13.5,309.2-17.8,309.2z"/>
<path d="M-47.3,316.1c2.7,1.8,6.9,4.2,11.3,4.2c3.1,0,5.9-1.2,8.5-3.5l-0.8-0.8c-2.4,2.2-4.9,3.2-7.7,3.2c-4.1,0-8.1-2.3-10.7-4
	L-47.3,316.1z"/>
<path d="M-27.6,315.7c-3.2,0.1-9.5-1.7-12.6-4.1l-0.7,0.9c3.4,2.6,10,4.4,13.4,4.3c5.5-0.2,10.9-4.2,13-6.7l-0.9-0.7
	C-17.4,311.7-22.5,315.5-27.6,315.7z"/>
<path d="M-50.7,319.3c1.6,3,5.7,5.2,9.7,5.2c3.6,0,6.5-1.5,8.1-4.4l-1-0.6c-1.9,3.4-5.3,3.9-7.1,3.9c-3.6,0-7.3-2-8.7-4.6
	L-50.7,319.3z"/>
<path d="M-49.9,328.8c-1.9,0.1-4.1-0.6-5.4-1.7L-56,328c1.5,1.2,4,2,6.1,1.9c2.1-0.1,3.8-0.9,4.6-2.3l-1-0.6
	C-47.1,328.5-48.9,328.7-49.9,328.8z"/>
<path d="M-55.1,323.5c3.8,3.7,7.4,4.1,9.8,3.8c3-0.3,5.1-2,5.8-2.9l-1-0.6c-0.4,0.6-2.2,2.1-4.9,2.4c-2.1,0.2-5.3-0.2-8.8-3.5
	L-55.1,323.5z"/>
<path d="M-53.8,330.7c-1,0.1-2.5-0.1-3.9-1.5l-0.8,0.8c1.7,1.7,3.5,1.9,4.8,1.8c2-0.2,3.7-1.4,4.3-2.4l-1-0.5
	C-50.8,329.6-52.2,330.5-53.8,330.7z"/>
<path d="M-62.2,331.8c-0.4,1-1,1.7-1.6,1.7c-0.6,0.1-1.1-0.4-1.5-0.9l-0.9,0.7c1,1.2,1.9,1.4,2.5,1.3c0.8-0.1,1.5-0.7,2-1.6
	c1,1.1,2.3,1.6,3.8,1.4c1.7-0.2,3.1-1.3,3.7-2.7l-1.1-0.4c-0.4,1.1-1.4,1.9-2.7,2c-1.3,0.1-2.5-0.5-3.2-1.7l-0.6-1L-62.2,331.8z"/>
<path d="M-5.7,304c2.5,0.9,5.7,1.3,9,1.4c2.6,0,5.3-0.2,7.7-0.7l-0.2-1.1c-2.3,0.5-4.9,0.7-7.5,0.6c-3.2-0.1-6.2-0.5-8.7-1.3
	L-5.7,304z"/>
<path d="M-6.1,310.8c-3.4,0-6.6-0.6-8.4-1.6l-0.5,1c2,1,5.3,1.6,8.9,1.7c3.8,0,7.8-0.5,11.2-1.6l-0.4-1.1
	C1.4,310.3-2.4,310.9-6.1,310.8z"/>
<path d="M-19.4,319c-3.9,0.1-7.6-0.3-10.5-1.1l-0.3,1.1c3,0.8,6.8,1.2,10.8,1.2c5.8-0.1,11.4-1.1,15.8-2.9l-0.4-1.1
	C-8.3,317.9-13.7,318.9-19.4,319z"/>
<path d="M-36.8,323.1c2.2,2.2,11.5,3.5,17.1,2.8l-0.1-1.1c-5.6,0.6-14.3-0.7-16.1-2.5L-36.8,323.1z"/>
<path d="M-41.1,325.5c2.6,1.9,7.7,4.6,10.3,4.5l0-1.1c-2.1,0.1-7-2.3-9.6-4.2L-41.1,325.5z"/>
<path d="M-45.7,327.6c2.7,3.3,7.9,5,12.6,4.3l-0.2-1.1c-4.3,0.7-9.1-0.9-11.6-3.9L-45.7,327.6z"/>
<path d="M-41.7,332.8l0.6,0.9c0.6,0.9,1.2,1.9,1.8,2.7l0.9-0.7c-0.5-0.7-1.2-1.7-1.7-2.6l-0.6-0.9L-41.7,332.8z"/>
<path d="M-45.1,333.5l0.5,1.2c0.3,0.8,0.7,1.6,1.1,2l0.8-0.8c-0.3-0.3-0.6-1-0.9-1.7l-0.6-1.3L-45.1,333.5z"/>
<path d="M-49.4,334.3l0.4,1c0.5,1.3,0.6,1.7,0.8,1.9l0.9-0.7c-0.1-0.2-0.4-1-0.6-1.6l-0.4-1.2L-49.4,334.3z"/>
<rect x="-54.7" y="336.1" transform="matrix(0.4702 0.8826 -0.8826 0.4702 268.8159 225.458)" width="2.7" height="1.1"/>
<path d="M-25.5,307.8c-2.9,0.1-5.4-1.5-8.4-3.3l-0.6,1c3.1,1.9,5.8,3.5,9,3.4c2.3-0.1,5.4-2.2,6.3-4.5l-1.1-0.4
	C-21,305.9-23.6,307.8-25.5,307.8z"/>
<path d="M-40,307.9l0.3,0.2c3.7,2.1,8.7,4.9,13.3,0.9l-0.8-0.9c-4,3.5-8.4,1-12-1l-0.3-0.2L-40,307.9z"/>
<path d="M-46.6,309.6c2.3,1.5,4.1,2.8,6.8,2.8c1.7,0.1,3.5-0.1,5.1-2l-0.9-0.7c-1.3,1.5-2.7,1.6-4.2,1.6c-2.3-0.1-3.8-1-6.2-2.7
	L-46.6,309.6z"/>
<path d="M-50.7,311.9c1.1,1,4.2,2.3,6.9,2.2c1.6,0,2.9-0.7,3.5-1.8l-1-0.6c-0.5,0.8-1.3,1.2-2.6,1.2c-2.3,0.1-5.2-1.1-6.1-1.9
	L-50.7,311.9z"/>
<path d="M-48.7,315.6c-1.3,0-2.9-0.5-4.8-1.6l-0.6,1c2,1.2,3.9,1.8,5.4,1.8c1.9,0,3.3-0.9,4.3-2.6l-1-0.5
	C-46.1,315-47.2,315.6-48.7,315.6z"/>
<path d="M-51.3,318.2c-1.2,0.1-2.7-0.2-3.9-0.8l-0.5,1c1.5,0.7,3.1,1,4.5,0.9c1.9-0.2,3.3-1.1,4.1-2.7l-1-0.5
	C-48.7,317.4-49.8,318.1-51.3,318.2z"/>
<path d="M-54.3,321.9c-1.2,0-2.8-0.4-4.9-1.4l-0.5,1c2.3,1.1,4,1.6,5.4,1.5c2.4,0,3.6-1.6,4.5-3.2l-1-0.6
	C-51.8,321.1-52.8,321.9-54.3,321.9z"/>
<rect x="-58.3" y="336.7" width="1.1" height="0.7"/>
<path d="M-57.5,324.6c-1.1,0.1-2.5-0.3-3.4-0.9l-1.2-0.8l0.3,1.4c0.2,0.8,0.1,1.5-0.2,2c-0.2,0.3-0.5,0.5-0.8,0.6
	c-0.6,0.1-1.3-0.2-2-0.8l-0.8,0.8c1.2,1.1,2.3,1.2,3,1.1c0.7-0.1,1.2-0.5,1.6-1.1c0.3-0.5,0.5-1.1,0.5-1.7c1,0.4,2.2,0.7,3.2,0.6
	c1.6-0.1,2.8-1,3.4-2.4l-1-0.5C-55.5,324-56.3,324.6-57.5,324.6z"/>
<path d="M-82.6,346.6c0,1.7,0.6,3.2,1.7,4.2l0.8,0.7l0.2-1.1c0.1-0.6,0.2-1.2,0.6-1.9c0.3,0.3,0.6,0.6,0.9,1l0.5,0.7l0.8-1.4
	c0.5-0.8,1-1.8,2.1-2.5c0.7,0.4,1.7,1.3,2.3,1.9l1.2,1.1l0.3-0.7c0.6-1.1,1.3-1.8,2.1-2.4c0.2,0.1,0.5,0.3,0.5,0.3l0.7-0.9l-1.2-0.7
	l-0.3,0.3c-0.7,0.5-1.6,1.2-2.3,2.4c0,0-0.1-0.1-0.1-0.1c-0.8-0.8-2-1.9-2.9-2.3L-75,345l-0.2,0.1c-1.5,0.9-2.2,2.1-2.8,3
	c-0.3-0.4-0.7-0.7-1.1-1l-0.5-0.4l-0.3,0.5c-0.4,0.7-0.7,1.3-0.8,1.8c-0.4-0.7-0.7-1.6-0.7-2.5c0,0,0-0.1,0-0.1
	c0-1.9,0.8-3.7,1.4-4.2l-0.8-0.8C-81.8,342.3-82.7,344.4-82.6,346.6z"/>
<path class="st4" d="M-111.1,363.8c-0.1-1,0.7-3,2.2-3.6c-0.1,0.6,0,1.5,0.3,2.1C-109.5,362.4-110.5,363.1-111.1,363.8L-111.1,363.8
	z"/>
<path d="M-109.1,359.6c-1.8,0.7-2.7,2.9-2.6,4.2l0.1,1.2l0.9-0.9c0.5-0.5,1.4-1.2,2.2-1.3l0.8-0.2l-0.4-0.7
	c-0.2-0.4-0.3-1.2-0.2-1.8l0.1-0.9L-109.1,359.6z M-109.5,361.2c0,0.2,0.1,0.5,0.1,0.7c-0.3,0.1-0.6,0.3-0.9,0.4
	C-110,361.9-109.8,361.5-109.5,361.2z"/>
<path class="st4" d="M-100.3,369.2c-1-0.4-2-1.6-1.5-3.1c0.6-0.1,1.4-0.2,2,0C-100,367.1-100.4,368.3-100.3,369.2L-100.3,369.2z"/>
<path d="M-101.9,365.5l-0.3,0.1l-0.1,0.3c-0.6,1.7,0.5,3.2,1.8,3.8l0.9,0.4l-0.1-1c-0.1-0.6,0.2-1.6,0.4-2.4l0.3-1l-0.5-0.2
	C-100.3,365.3-101.2,365.4-101.9,365.5z M-100.4,366.6c-0.1,0.5-0.3,1-0.3,1.5c-0.3-0.3-0.5-0.8-0.5-1.3c0-0.1,0-0.2,0-0.2
	C-101,366.6-100.7,366.6-100.4,366.6z"/>
<path class="st4" d="M-87.8,360.4c-0.1-1.3-1.8-2.5-2.9-2.5c0.1,0.6,0,1.2,0,1.8C-89.7,359.9-88.5,360.1-87.8,360.4L-87.8,360.4z"/>
<path d="M-90.7,357.4l-0.7,0l0.1,0.7c0.1,0.4,0.1,0.8,0,1.3l0,1l0.5,0c0.9,0.1,2.1,0.4,2.7,0.6l0.9,0.4l-0.1-1
	C-87.4,358.8-89.3,357.4-90.7,357.4z M-90.1,358.7C-90.1,358.7-90.1,358.7-90.1,358.7c0.4,0.1,0.8,0.4,1.2,0.8
	c-0.4-0.1-0.8-0.2-1.2-0.2C-90.1,359.1-90.1,358.9-90.1,358.7z"/>
<polygon points="-98.5,353.6 -98.5,354.7 -96.5,354.7 -95.2,354.7 -95.2,353.6 -96.5,353.6 "/>
<rect x="-97" y="350.7" transform="matrix(1.840056e-02 0.9998 -0.9998 1.840056e-02 257.4705 442.0491)" width="1.1" height="3"/>
<path d="M-94.9,349.6l-2.6,0.1l0,1.1l2.9-0.1l0.5-0.8C-94.1,349.6-94.4,349.6-94.9,349.6z"/>
<path d="M-103.3,358.5c-0.9,0.2-1.7,0.3-2.6,0.4c0.1,0.1,0.2,0.2,0.3,0.2l0,0l0.1,1.4l0,0c0.6,0.2,0.5-0.6,1.1-0.6l0,0l1.1-0.3l0,0
	C-103.3,359.5-103.3,359-103.3,358.5L-103.3,358.5z M-105.4,361.9c0.5-0.1,1-0.4,1.6-0.7c0,0,0-0.1,0-0.1c-0.5,0-1.2,0.2-1.5,0.4
	C-105.3,361.5-105.3,361.7-105.4,361.9L-105.4,361.9z M-103.7,361.3c-0.8,0.6-1.4,1.3-1.7,2.2c0.7,0,1.6,0,2.1,0.3
	C-103.1,363.1-103.6,362-103.7,361.3L-103.7,361.3z M-101.1,363c-0.2,0.7-0.4,1.3-0.6,1.9l0,0l1.1-0.5l0,0c0.1-0.3,1-1.5,1.4-1.5
	C-99.4,362.8-100.4,362.9-101.1,363L-101.1,363z M-91.5,357.7c-1.4-0.3-1.5-1.1-3.2-1.9c0.2,1.8,1.1,3,3.1,3
	C-91.5,358.5-91.5,358.1-91.5,357.7L-91.5,357.7z"/>
<path class="st4" d="M-74,346.3c0.1,3.3,0.7,8.5,3.6,10.6c2.5,1.8,4.4,1.2,6.1,2.8l0,0l-0.1,1.8l0,0c-3.1-1-1.9-0.1-4.4-0.8
	c1.9,1.3,2.5,1.4,2.7,3.6c-0.7,0.2-1.1,0.8-1.6,1.1c-0.9-0.9-2.5-1.4-3.8-3.4c0.2,1.6,0.4,3.1,0.4,4.6c-0.7-0.1-1.3-0.1-2,0
	c-0.6-1.3-1.9-4.1-1.9-5.5c-1.7,0-1.8-1.8-3.4-2.1c-0.7-0.1-1.8,0.4-2.8,0.3c-0.1-0.7,0-1.4,0-2c1.8-0.6,2.3-1.7,4.5-2.7
	c0.8-1.7,0.1-3.9-0.4-6.8c0.5-1,1.2-1.5,2.1-2.2C-74.8,345.7-74.2,346.1-74,346.3L-74,346.3z"/>
<path d="M-75.4,345.1l-0.3,0.3c-0.7,0.6-1.4,1.1-1.9,2.1l-0.1,0.2l0.3,1.5c0.3,1.4,0.5,2.6,0.5,3.6c0,0.5-0.1,1-0.2,1.4
	c-0.9,0.5-1.6,1-2.1,1.4c-0.7,0.5-1.2,0.9-2,1.2l-0.4,0.1l0,1l0,2l0.5,0c0.6,0.1,1.2,0,1.8-0.2c0.4-0.1,0.8-0.2,1-0.1
	c0.6,0.1,0.9,0.4,1.3,0.9c0.4,0.4,0.9,1,1.7,1.1c0.2,1.4,1,3.3,1.8,5l0.3,0.7l0.4-0.1c0.6-0.1,1.1-0.1,1.8,0l0.7,0.1v-0.7
	c0-0.9-0.1-1.8-0.2-2.8c0.5,0.5,1,0.9,1.5,1.2c0.4,0.3,0.8,0.5,1.1,0.8l0.4,0.4l0.3-0.3l0.6-0.5c0.3-0.3,0.5-0.5,0.8-0.5l0.5-0.1
	l-0.1-0.5c-0.1-1.5-0.5-2.1-1.1-2.7c0.3,0,0.8,0.1,2.1,0.5l0.7,0.2l0.2-2.8l-0.2-0.2c-1-0.9-2-1.2-3.1-1.4c-1-0.3-2-0.5-3.1-1.4
	c-2.6-1.9-3.3-6.5-3.4-10.1l0-0.3l-0.5-0.4l-1.2-0.8L-75.4,345.1z M-75,346.3C-75,346.3-75,346.3-75,346.3c0.2,0.1,0.4,0.3,0.4,0.3
	s0,0,0.1,0.1c0.1,3.8,0.9,8.7,3.8,10.7c1.3,0.9,2.5,1.3,3.5,1.5c0.9,0.2,1.6,0.5,2.4,1c0,0.2,0,0.4-0.1,0.8
	c-1.2-0.4-1.7-0.3-2.1-0.3c-0.3,0-0.6,0-1.7-0.3l-3.4-1l3.6,2.5c1.1,0.8,1.5,1,1.6,2.3c-0.3,0.2-0.6,0.4-0.9,0.6
	c0,0-0.1,0.1-0.1,0.1c-0.3-0.2-0.5-0.4-0.8-0.6c-0.8-0.5-1.7-1.1-2.4-2.4l-1.3-2.2l0.4,3.9c0.1,0.9,0.2,1.8,0.2,2.6
	c-0.3,0-0.7,0-1,0c-0.6-1.3-1.7-3.7-1.7-4.9v-0.6h-0.6c-0.6,0-0.9-0.3-1.4-0.8c-0.4-0.5-1-1.1-1.9-1.2c-0.5-0.1-0.9,0-1.4,0.1
	c-0.3,0.1-0.6,0.1-0.9,0.1c0-0.4,0-0.8,0-0.8s0-0.1,0-0.2c0.8-0.3,1.4-0.8,2-1.2c0.6-0.5,1.2-0.9,2.2-1.4l0.2-0.1l0.1-0.2
	c0.3-0.6,0.4-1.3,0.4-2.1c0-1.1-0.3-2.4-0.6-3.8c0,0-0.2-0.8-0.2-1.1C-76.1,347.1-75.7,346.8-75,346.3z"/>
<path class="st4" d="M-65.8,367.7c0.4-0.6,0.7-2.5-0.1-3.6c-0.5,0.2-1.4,0.9-1.8,1.3C-67.1,365.9-66.3,366.8-65.8,367.7L-65.8,367.7
	z"/>
<path d="M-66.1,363.5c-0.6,0.2-1.6,1-2,1.5l-0.4,0.4l0.4,0.4c0.3,0.3,1.3,1.3,1.8,2.2l0.5,0.8l0.5-0.8c0.6-0.9,0.8-3-0.1-4.3
	l-0.3-0.4L-66.1,363.5z M-66.1,364.8c0.1,0.3,0.2,0.7,0.2,1c0,0.2,0,0.3-0.1,0.5c-0.3-0.3-0.6-0.7-0.8-1
	C-66.6,365.2-66.4,365-66.1,364.8z"/>
<path class="st4" d="M-61.9,363.2c0.1-1-0.7-3-2.2-3.6c0,0.6-0.1,1.2-0.3,1.8C-63.5,361.7-62.5,362.7-61.9,363.2L-61.9,363.2z"/>
<path d="M-64.6,359.5c0,0.6-0.1,1.1-0.2,1.7l-0.2,0.5l0.5,0.2c0.5,0.2,1.2,0.8,1.7,1.2l1.4,1.2l0.1-1.1c0.1-1.3-0.8-3.5-2.6-4.2
	l-0.7-0.3L-64.6,359.5z M-63.6,360.5c0.4,0.3,0.6,0.7,0.8,1.1c-0.3-0.2-0.6-0.4-0.9-0.6C-63.6,360.9-63.6,360.7-63.6,360.5z"/>
<path class="st4" d="M-72.5,369.4c1-0.4,2-1.6,1.5-3.1c-0.6-0.1-1.4-0.2-2,0C-72.8,367.4-72.4,368.5-72.5,369.4L-72.5,369.4z"/>
<path d="M-73.2,365.8l-0.5,0.2l0.3,0.9c0.2,0.8,0.5,1.8,0.4,2.4l-0.1,1l0.9-0.4c1.3-0.6,2.4-2.1,1.8-3.8l-0.1-0.3l-0.3-0.1
	C-71.5,365.6-72.5,365.5-73.2,365.8z M-71.5,366.8c0,0.1,0,0.2,0,0.2c0,0.5-0.2,0.9-0.5,1.3c-0.1-0.5-0.2-1-0.3-1.5
	C-72.1,366.8-71.8,366.8-71.5,366.8z"/>
<path class="st4" d="M-83.6,360.3c-0.1-1.3,1.3-3,2.5-3c-0.1,0.6,0,1.2,0,1.8C-82.1,359.4-82.9,359.9-83.6,360.3L-83.6,360.3z"/>
<path d="M-83.1,357.8c-0.7,0.8-1.1,1.8-1.1,2.6l0.1,0.9l1-0.6c0.6-0.4,1.3-0.8,2.1-1l0.4-0.1l0-0.9c0-0.4,0-0.8,0-1.3l0.1-0.7
	l-0.7,0C-81.8,356.8-82.5,357.1-83.1,357.8z M-82.3,358.6c0.2-0.2,0.4-0.3,0.6-0.4c0,0,0,0,0,0c0,0.2,0,0.4,0,0.6c0,0,0,0,0,0
	c-0.3,0.1-0.7,0.2-1,0.4C-82.6,359-82.4,358.8-82.3,358.6z"/>
<polygon points="-74.9,353 -76.3,353 -76.4,354.1 -74.9,354.1 -72.9,354.1 -72.9,353 "/>
<rect x="-75.3" y="350.5" transform="matrix(2.949896e-02 0.9996 -0.9996 2.949896e-02 279.2552 416.1796)" width="1.1" height="2.9"/>
<path d="M-76.8,349.8l0.4,1c0.2,0,2.2-0.2,2.7-0.2l0-1.1C-73.7,349.5-76.5,349.5-76.8,349.8z"/>
<path d="M-68.6,358.2c0.9,0.2,1.9,0.4,2.7,0.5c-0.6,0.6-0.6-0.1-0.6,1c-0.6,0.2-0.5-0.2-1.1-0.2l0,0l-1.1-0.3l0,0
	C-68.7,359.1-68.6,358.7-68.6,358.2L-68.6,358.2z M-68.8,360.7c0.8,0.6,2.1,1.9,2.4,2.8c-0.7,0-1.4-0.2-1.9,0
	C-68.1,361.9-69.3,362.1-68.8,360.7L-68.8,360.7z M-71.9,363.1c0.2,0.7,0.4,1.3,0.6,1.9l0,0l-1.1-0.5l0,0c-0.1-0.3-0.5-1.5-1-1.5
	C-73.2,362.9-72.5,363-71.9,363.1L-71.9,363.1z M-80.1,356.9c1.4-0.3,1.5-1.1,3.2-1.9c-0.2,1.8-1.1,3-3.1,3
	C-80.1,357.7-80.1,357.3-80.1,356.9L-80.1,356.9z"/>
<path d="M-91,378.3l0.4,0c0.4,0,0.7,0.1,0.9,0.2c0.1,0.1,0.2,0.3,0.2,0.5c0,0.2-0.1,0.4-0.3,0.4c-0.2,0.1-0.5,0.1-0.9,0.1l-0.4,0
	L-91,378.3z M-91.1,383.1c0.7,0.1,1.3,0.1,1.6,0c0.3,0,0.6-0.1,0.8-0.2c0.3-0.1,0.5-0.3,0.7-0.5s0.3-0.5,0.3-0.8
	c0-0.4-0.1-0.8-0.3-1.1c-0.2-0.3-0.6-0.5-1.1-0.5c0.4-0.1,0.7-0.2,0.9-0.4s0.3-0.5,0.3-0.8c0-0.3,0-0.5-0.1-0.7
	c-0.1-0.2-0.3-0.4-0.5-0.5c-0.2-0.1-0.5-0.2-0.7-0.3c-0.3-0.1-0.8-0.1-1.6-0.2l-1.8-0.1l-0.4,6L-91.1,383.1z M-91.1,380.6l0.7,0
	c0.4,0,0.7,0.1,0.9,0.2c0.2,0.1,0.2,0.3,0.2,0.5c0,0.2-0.1,0.4-0.3,0.5c-0.2,0.1-0.5,0.1-0.9,0.1l-0.6,0L-91.1,380.6z"/>
</svg>
