<?xml version="1.0" encoding="utf-8"?>
<!-- Generator: Adobe Illustrator 19.1.0, SVG Export Plug-In . SVG Version: 6.00 Build 0)  -->
<svg version="1.1"
	 id="svg7770" xmlns:rdf="http://www.w3.org/1999/02/22-rdf-syntax-ns#" xmlns:sodipodi="http://sodipodi.sourceforge.net/DTD/sodipodi-0.dtd" xmlns:svg="http://www.w3.org/2000/svg" xmlns:cc="http://creativecommons.org/ns#" xmlns:inkscape="http://www.inkscape.org/namespaces/inkscape" xmlns:dc="http://purl.org/dc/elements/1.1/" sodipodi:docname="Borussia_Dortmund_Logo.svg" inkscape:version="0.48.1 "
	 xmlns="http://www.w3.org/2000/svg" xmlns:xlink="http://www.w3.org/1999/xlink" x="0px" y="0px" viewBox="78 13 768 768"
	 style="enable-background:new 78 13 768 768;" xml:space="preserve">
<style type="text/css">
	.st0{clip-path:url(#SVGID_2_);}
	.st1{fill:#FDE100;}
	.st2{fill:#231F20;}
</style>
<sodipodi:namedview  showgrid="false" gridtolerance="10" borderopacity="1" inkscape:cy="549.18875" inkscape:cx="499.85389" id="namedview3004" objecttolerance="10" guidetolerance="10" pagecolor="#ffffff" bordercolor="#666666" inkscape:zoom="0.34244792" inkscape:window-maximized="1" inkscape:window-height="804" inkscape:window-y="-4" inkscape:window-x="-4" inkscape:pageopacity="0" inkscape:window-width="1152" inkscape:current-layer="g22517" inkscape:pageshadow="2">
	</sodipodi:namedview>
<g>
	<defs>
		<rect id="SVGID_1_" x="-13496.3" y="-9252" width="14649.5" height="10353.5"/>
	</defs>
	<clipPath id="SVGID_2_">
		<use xlink:href="#SVGID_1_"  style="overflow:visible;"/>
	</clipPath>
	<g id="g22511" transform="matrix(0,-1.25,-1.25,0,77.2825,78.187494)" class="st0">
		<g id="g22517">
			<g id="g22525" transform="translate(40.481995,61.871994)">
			</g>
			<g id="g3825">
				<path id="path22527" inkscape:connector-curvature="0" class="st1" d="M-255.1-0.3c169.7,0,307.2-137.5,307.2-307.2
					S-85.4-614.6-255.1-614.6s-307.2,137.5-307.2,307.2S-424.7-0.3-255.1-0.3"/>
				<g id="g22529" transform="translate(40.481995,59.645004)">
					<path id="path22531" inkscape:connector-curvature="0" class="st2" d="M-2.9-367.1c0,161.5-131.2,292.3-292.7,292.3
						S-588-205.6-588-367.1c0-161.5,130.8-292.3,292.3-292.3S-2.9-528.7-2.9-367.1z M-19.3-367.1c0-152.5-123.8-276-276.3-276
						s-276,123.4-276,276c0,152.5,123.4,276.3,276,276.3S-19.3-214.6-19.3-367.1z M-63.9-275.6l-232.5-75.2v-32.4l232.5-74.1v45.2
						l-155.2,45.2l155.2,44.9V-275.6z M-178.3-159.4h-229.3v-72c0-58.3,70.6-87.9,114.1-47.3c0,0,0.1,0,0.3,0c0.2,0,0.3-0.3,0.3-0.3
						c38-33.7,105.1-19.5,114.5,43.2V-159.4z M-178.3-457.3h-229.3v-72.4c0-58.3,70.6-87.9,114.1-47.3c0,0,0.1,0,0.3,0
						c0.2,0,0.3-0.3,0.3-0.3c38-33.7,105.1-19.5,114.5,43.2V-457.3z M-221.2-201.5V-237c0-23-44.1-27.7-51.2-1.4v36.9H-221.2z
						 M-221.2-500.1v-35.1c0-23-44.1-27.8-51.2-1.4v36.5H-221.2z M-313.4-201.5v-31.3c0-26-47.3-35.5-53.9-1.7v33.1H-313.4z
						 M-313.4-500.1v-31c0-26-47.3-35.5-53.9-1.7v32.7H-313.4z M-412.6-321.9c0,18.6-15.2,33.8-33.8,33.8h-50.8
						c-18.6,0-33.8-15.2-33.8-33.8v-0.7c0-18.6,15.2-33.8,33.8-33.8h50.8c18.6,0,33.8,15.2,33.8,33.8V-321.9z M-412.6-411.3
						c0,18.6-14.5,34.5-33.1,34.5h-8.4c-18.6,0-33.6-17-34.1-34.5c0,0,0.1-7.1,2.1-10.8l-11.5-0.3c-5.8,0-10.9,4.7-10.8,10.4
						c0.1,4.7,2.5,11.1,8.4,11.1c0,0,7.7-1,7.7,4.5v19.5c-1.9,0.1-3,0-5.6,0c-17.6,0-33.1-15.1-33.1-35.5
						c0.2-19.3,15-32.7,34.1-32.7h50.8c18.6,0,33.4,14.5,33.4,33.1V-411.3z M-436.6-411.7c0-6.1-4.6-10.8-10.4-10.8h-6.6
						c-5.8,0-10.4,4.6-10.4,10.4c0,6.1,4.6,11.1,10.4,11.1h6.6C-441.2-400.9-436.6-405.9-436.6-411.7z M-436.9-321.9
						c0-6.2-4.6-11.1-10.4-11.1h-50.5c-5.8,0-10.4,5-10.4,10.8c0,6.1,4.6,10.8,10.4,10.8h50.5C-441.5-311.5-436.9-316.1-436.9-321.9
						z"/>
				</g>
			</g>
		</g>
	</g>
</g>
</svg>
