<?xml version="1.0" encoding="utf-8"?>
<!-- Generator: Adobe Illustrator 19.1.0, SVG Export Plug-In . SVG Version: 6.00 Build 0)  -->
<svg version="1.1"
	 id="Layer_1" xmlns:rdf="http://www.w3.org/1999/02/22-rdf-syntax-ns#" xmlns:sodipodi="http://sodipodi.sourceforge.net/DTD/sodipodi-0.dtd" xmlns:svg="http://www.w3.org/2000/svg" xmlns:cc="http://creativecommons.org/ns#" xmlns:inkscape="http://www.inkscape.org/namespaces/inkscape" xmlns:dc="http://purl.org/dc/elements/1.1/" sodipodi:docname="Chelsea_FC.svg" inkscape:version="0.47 r22583"
	 xmlns="http://www.w3.org/2000/svg" xmlns:xlink="http://www.w3.org/1999/xlink" x="0px" y="0px" viewBox="-200 292.5 209.5 209.5"
	 style="enable-background:new -200 292.5 209.5 209.5;" xml:space="preserve">
<style type="text/css">
	.st0{fill:#DBA111;}
	.st1{fill:#034694;}
	.st2{fill:#FFFFFF;}
	.st3{fill:#D1D3D4;}
	.st4{fill:#ED1C24;}
	.st5{fill:#6A7AB5;}
	.st6{fill:none;}
</style>
<defs>
	
	
		<inkscape:perspective  inkscape:persp3d-origin="237.67551 : 158.45034 : 1" inkscape:vp_z="475.35101 : 237.67551 : 1" sodipodi:type="inkscape:persp3d" inkscape:vp_y="0 : 1000 : 0" inkscape:vp_x="0 : 237.67551 : 1" id="perspective3563">
		</inkscape:perspective>
</defs>
<sodipodi:namedview  showgrid="false" gridtolerance="10" borderopacity="1" inkscape:cy="104.73836" inkscape:cx="104.73836" id="namedview3557" objecttolerance="10" guidetolerance="10" pagecolor="#ffffff" bordercolor="#666666" inkscape:zoom="1" inkscape:window-maximized="1" inkscape:window-height="710" inkscape:window-y="-4" inkscape:window-x="-4" inkscape:pageopacity="0" inkscape:window-width="1280" inkscape:current-layer="Layer_1" inkscape:pageshadow="2">
	</sodipodi:namedview>
<path id="path3381" class="st0" d="M9.5,397.3C9.5,455.1-37.4,502-95.3,502c-57.8,0-104.7-46.9-104.7-104.7
	c0-57.8,46.9-104.7,104.7-104.7C-37.4,292.5,9.5,339.4,9.5,397.3"/>
<path id="path3383" class="st1" d="M6,397.3c0,55.9-45.3,101.2-101.2,101.2s-101.2-45.3-101.2-101.2S-151.2,296-95.3,296
	C-39.3,296,6,341.3,6,397.3"/>
<path id="path3385" class="st0" d="M-23.1,397.3c0,39.8-32.3,72.1-72.2,72.1c-39.9,0-72.2-32.3-72.2-72.1
	c0-39.9,32.3-72.2,72.2-72.2C-55.4,325.1-23.1,357.4-23.1,397.3"/>
<path id="path3387" class="st2" d="M-25.3,397.3c0,38.6-31.3,70-70,70c-38.6,0-70-31.3-70-70c0-38.6,31.3-70,70-70
	C-56.6,327.3-25.3,358.6-25.3,397.3"/>
<path id="path3389" class="st0" d="M-155.2,457.6c0.8,0.7,2.7,2.6,2.7,2.6l1.8-1.9l-5.4-5.2l-0.7,0.7l-7.3,7.7l2.8,2.6
	c0,0,2.3-2.5,3.2-3.4c0.7,0.7,2.4,2.3,2.4,2.3l1.8-1.9c0,0-1.7-1.6-2.4-2.3C-155.9,458.3-155.7,458.1-155.2,457.6"/>
<path id="path3391" class="st0" d="M-142.1,466.4c-0.2-1.5-1.1-2.8-2.3-3.7c-1.2-0.9-2.7-1.2-4.2-1c-1.6,0.3-3,1.2-4,2.6
	c-1,1.4-1.4,3.1-1.1,4.6c0.2,1.5,1.1,2.8,2.3,3.6c1.2,0.9,2.7,1.2,4.2,1c1.6-0.3,3-1.2,4-2.6c0.8-1.1,1.2-2.4,1.2-3.7
	C-142,467-142,466.7-142.1,466.4 M-149.9,470.5c-1.3-0.9-0.2-2.8,0.5-3.8c0.7-1,2.2-2.7,3.4-1.8c1.3,0.9,0.1,3-0.5,3.8
	C-147,469.6-148.6,471.4-149.9,470.5z"/>
<path id="path3393" class="st0" d="M-133.5,469.3c-2.9-1.5-6.3-0.3-7.9,2.8c-0.8,1.5-0.9,3.2-0.4,4.8c0.5,1.4,1.5,2.6,2.8,3.3
	c1.4,0.7,2.9,0.8,4.3,0.3c1.5-0.5,2.8-1.6,3.6-3.2C-129.5,474.2-130.6,470.8-133.5,469.3 M-136.8,477.9c-0.3,0.1-0.7,0.1-1-0.1
	c-0.6-0.3-0.8-0.8-0.8-1.4c0-0.8,0.4-1.8,0.7-2.4c0.6-1.1,1.8-2.9,3.1-2.2c0.4,0.2,0.6,0.4,0.7,0.8c0.2,0.7,0,1.9-0.6,3.1
	C-135.3,476.8-136.1,477.6-136.8,477.9z"/>
<path id="path3395" class="st0" d="M-127.5,473.5l-0.5,1.5c0,0,1.4,0.5,1.8,0.6c-0.5,1.5-3,8.5-3,8.5l3.6,1.3c0,0,2.4-6.9,3-8.4
	c0.4,0.1,1.8,0.6,1.8,0.6l0.9-2.5l-7.2-2.5L-127.5,473.5"/>
<path id="path3397" class="st0" d="M-112.5,476.9l-4.9-1l-0.2,1l-2.2,10.4l5,1.1c1.6,0.3,2.6-0.1,3.2-0.4c0.8-0.5,1.3-1.3,1.5-2.3
	c0.1-0.3,0.1-0.5,0.1-0.8c0-0.7-0.2-1.3-0.6-1.9c0.6-0.4,1-1.1,1.1-1.9c0-0.2,0.1-0.4,0.1-0.7C-109.4,479-110.2,477.4-112.5,476.9
	 M-113.8,484.8c-0.1,0.2-0.1,0.6-0.3,0.7c-0.2,0.1-0.5,0.1-0.9,0c0,0-0.2,0-0.4-0.1c0.2-0.7,0.3-1.2,0.4-2c0.2,0.1,0.5,0.1,0.5,0.1
	c0.6,0.1,0.8,0.6,0.8,1C-113.8,484.6-113.8,484.7-113.8,484.8L-113.8,484.8z M-114.1,479.2c0.4,0.1,0.7,0.3,0.9,0.4
	c0.1,0.1,0.1,0.2,0.1,0.3c0,0.1,0,0.2,0,0.3c-0.1,0.3-0.2,0.7-1,0.6c0,0-0.1,0-0.2-0.1C-114.3,480.2-114.3,479.9-114.1,479.2
	L-114.1,479.2z"/>
<path id="path3399" class="st0" d="M-103.5,478.6l-5.3,10.9l3,0.2c0,0,0.8-1.7,1.1-2.4c0.6,0.1,1.3,0.1,1.9,0.1
	c0.2,0.7,0.8,2.6,0.8,2.6l4,0.3l-4.5-14L-103.5,478.6"/>
<path id="path3401" class="st0" d="M-91.5,487.2c-0.1-1.6-0.4-8.8-0.4-8.8l-3.8,0.2l0.5,11.6l7.7-0.3l-0.1-2.8
	C-87.7,487.1-90.4,487.2-91.5,487.2"/>
<path id="path3403" class="st0" d="M-81,486.1c-0.2-1.6-1.4-8.7-1.4-8.7l-1,0.2l-2.8,0.4l1.8,11.5l7.6-1.2l-0.4-2.8
	C-77.2,485.5-79.9,486-81,486.1"/>
<path id="path3405" class="st0" d="M-59,478.4c0,1-0.6,1.9-1.5,2.2c-0.5,0.2-1,0.2-1.5,0c-0.7-0.3-1.4-1.1-1.8-2.2
	c-0.5-1.2-0.6-2.3-0.3-3c0.2-0.5,0.6-0.9,1.3-1.2c0.7-0.3,1.4,0,2.3,0.5l0.9,0.5l1.4-2.2l-0.8-0.6c-1.5-1-3.4-1.2-5.1-0.6
	c-1.5,0.6-2.7,1.8-3.3,3.2c-0.6,1.5-0.6,3.2,0,4.8c1.2,3,4.7,4.5,7.7,3.3c2.2-0.9,3.4-2.5,3.6-4.8l0.1-1l-2.8-0.2L-59,478.4"/>
<path id="path3407" class="st0" d="M-50.1,475.2c-0.8-1.4-4.3-7.7-4.3-7.7l-0.9,0.5l-2.5,1.4l5.7,10.1l6.7-3.7l-1.4-2.4
	C-46.8,473.4-49.1,474.7-50.1,475.2"/>
<path id="path3409" class="st0" d="M-42.7,459.6l-0.8,0.6l-1.4,1.1l4.7,6.4c0.2,0.3,0.2,0.5,0.2,0.6c0,0.3-0.4,0.7-0.7,0.9
	c-0.1,0.1-0.5,0.2-0.8,0.2c-0.2,0-0.4-0.2-0.6-0.4l-4.6-6.3l-3.1,2.3l4.6,6.3c0.7,0.9,1.5,1.5,2.5,1.6c1.1,0.2,2.4-0.2,3.6-1.1
	c2.4-1.8,2.4-4.1,1.3-5.6L-42.7,459.6"/>
<path id="path3411" class="st0" d="M-28.6,457.3c-0.7-0.7-1.6-1.1-2.5-1c-0.1-0.7-0.3-1.4-0.9-2c-1-1-3.1-1.8-5.1,0.2l-3.6,3.5
	l8.1,8.3l3.6-3.5c1.2-1.1,1.4-2.2,1.4-2.9C-27.5,458.9-27.9,458-28.6,457.3 M-34.7,457c0.1,0.1,0.3,0.3,0.3,0.5
	c0,0.2-0.1,0.4-0.4,0.6c0,0-0.1,0.1-0.2,0.2c-0.5-0.5-0.7-0.7-1.1-1.2C-35.3,456.4-34.9,456.7-34.7,457L-34.7,457z M-32.7,459.9
	c0.7-0.6,1.3-0.1,1.5,0.1c0.2,0.2,0.4,0.4,0.4,0.6c0,0,0,0,0,0c0,0.2-0.2,0.5-0.5,0.8c0,0-0.1,0.1-0.3,0.3c-0.5-0.5-0.9-0.9-1.4-1.5
	C-32.9,460.1-32.7,459.9-32.7,459.9L-32.7,459.9z"/>
<path id="path3413" class="st2" d="M-155.2,456.5c0.3,0.3,2.7,2.6,2.7,2.6l0.8-0.8l-4.3-4.1l-0.2,0.2l-6.8,7.1l1.7,1.6
	c0,0,2.9-3,3.2-3.4c0.3,0.3,2.4,2.3,2.4,2.3l0.8-0.8c0,0-2.1-2-2.4-2.3C-157.2,458.6-155.5,456.8-155.2,456.5"/>
<path id="path3415" class="st2" d="M-144.8,463.3c-1.1-0.8-2.4-1.1-3.6-0.9c-1.4,0.2-2.6,1.1-3.5,2.3c-0.9,1.2-1.2,2.7-1,4.1
	c0.2,1.3,0.9,2.4,2,3.2c1.1,0.8,2.4,1.1,3.6,0.9c1.4-0.2,2.6-1,3.5-2.3c0.7-1,1.1-2.1,1.1-3.2c0-0.3,0-0.6-0.1-0.8
	C-143,465.2-143.8,464.1-144.8,463.3 M-145.8,469.2c-0.7,1-2.6,3.3-4.5,1.9c-1.9-1.3-0.4-3.9,0.3-4.9c0.7-1,2.6-3.3,4.5-1.9
	C-143.6,465.6-145.1,468.1-145.8,469.2z"/>
<path id="path3417" class="st2" d="M-133.9,470c-2.5-1.3-5.5-0.2-6.9,2.5c-0.7,1.4-0.8,2.8-0.4,4.2c0.4,1.2,1.3,2.2,2.5,2.8
	c1.2,0.6,2.5,0.7,3.7,0.3c1.3-0.4,2.4-1.4,3.1-2.8C-130.4,474.3-131.3,471.3-133.9,470 M-138.1,478.4c-2.1-1-1-3.8-0.4-4.9
	c0.6-1.1,2.1-3.6,4.2-2.6c0.5,0.3,0.9,0.7,1.1,1.2c0.4,1.2-0.3,2.8-0.7,3.7c-0.4,0.8-1.3,2.3-2.6,2.7
	C-137.1,478.8-137.6,478.7-138.1,478.4z"/>
<path id="path3419" class="st2" d="M-126.7,473.8l-0.3,0.8c0,0,1.4,0.5,1.8,0.6c-0.2,0.5-3,8.4-3,8.4l2.2,0.8c0,0,2.8-8,3-8.4
	c0.4,0.1,1.8,0.6,1.8,0.6l0.4-1.1l-5.8-2L-126.7,473.8"/>
<path id="path3421" class="st2" d="M-112.6,477.6l-4.1-0.9l-0.1,0.2l-2,9.6l4.2,0.9c1.1,0.2,2,0.1,2.7-0.3c0.6-0.4,1-1,1.2-1.8
	c0-0.2,0.1-0.4,0.1-0.6c0-0.8-0.4-1.6-1.2-2.1c0.9-0.2,1.5-0.9,1.7-1.8c0-0.1,0.1-0.3,0.1-0.5C-110.2,479.4-110.7,478-112.6,477.6
	 M-114.1,478.5c0.7,0.1,1.2,0.4,1.4,0.8c0.1,0.2,0.2,0.5,0.2,0.8c0,0.1,0,0.3-0.1,0.5c-0.3,1.3-1.3,1.3-1.9,1.1c0,0-0.6-0.1-1-0.2
	c0.1-0.4,0.6-2.7,0.6-3.1C-114.5,478.4-114.1,478.5-114.1,478.5L-114.1,478.5z M-114.4,482.8c1.2,0.2,1.4,1.2,1.4,1.7
	c0,0.2,0,0.4,0,0.4c-0.1,0.6-0.3,0.9-0.7,1.1c-0.3,0.2-0.8,0.3-1.5,0.1c0,0-0.8-0.2-1.2-0.2c0.1-0.4,0.6-3.1,0.7-3.5
	C-115.3,482.6-114.4,482.8-114.4,482.8L-114.4,482.8z"/>
<path id="path3423" class="st2" d="M-102.8,478.9l-4.8,9.9l1.4,0.1c0,0,1-2.1,1.2-2.4c0.3,0,2.6,0.2,2.9,0.2
	c0.1,0.3,0.8,2.6,0.8,2.6l2.4,0.2l-3.6-11.1L-102.8,478.9 M-103.3,482.9c0.2,0.7,0.7,2.2,0.8,2.6c-0.5,0-1.6-0.1-2-0.2
	C-104.3,484.9-103.6,483.6-103.3,482.9z"/>
<path id="path3425" class="st2" d="M-92.2,488c0-0.5-0.4-8.8-0.4-8.8l-0.2,0l-2.1,0.1l0.4,10.1l6.1-0.3l-0.1-1.3
	C-88.4,487.9-91.8,488-92.2,488"/>
<path id="path3427" class="st2" d="M-81.6,487c-0.1-0.5-1.4-8.7-1.4-8.7l-0.2,0l-2,0.3l1.6,10l6.1-1l-0.2-1.2
	C-77.8,486.4-81.2,486.9-81.6,487"/>
<path id="path3429" class="st2" d="M-58.3,478.4c0,1.3-0.8,2.4-2,2.9c-0.7,0.3-1.4,0.3-2.1,0c-0.9-0.4-1.8-1.3-2.3-2.6
	c-0.6-1.4-0.6-2.6-0.3-3.6c0.3-0.7,0.9-1.2,1.7-1.6c1.1-0.4,2.1,0.1,3,0.6l0.2,0.1l0.6-1l-0.2-0.1c-1.3-0.9-3-1.1-4.4-0.5
	c-1.3,0.5-2.4,1.5-2.9,2.8c-0.6,1.3-0.6,2.8,0,4.2c1.1,2.7,4.1,4,6.7,2.9c1.9-0.8,2.9-2.1,3.1-4.1l0-0.3l-1.2-0.1L-58.3,478.4"/>
<path id="path3431" class="st2" d="M-50.4,476.3c-0.2-0.4-4.3-7.7-4.3-7.7l-0.2,0.1l-1.8,1l4.9,8.8l5.4-3l-0.6-1.1
	C-47,474.4-50,476.1-50.4,476.3"/>
<path id="path3433" class="st2" d="M-42.8,460.7l-0.2,0.2l-0.8,0.6l4.3,5.8c0.3,0.4,0.4,0.8,0.3,1.2c-0.1,0.7-0.7,1.2-1,1.4
	c-0.3,0.2-0.9,0.4-1.4,0.3c-0.4-0.1-0.8-0.3-1.1-0.7l-4.2-5.7l-1.9,1.4l4.2,5.7c0.6,0.8,1.2,1.2,2,1.3c1.2,0.2,2.4-0.5,3-0.9
	c2-1.5,2-3.3,1.2-4.5L-42.8,460.7"/>
<path id="path3435" class="st2" d="M-29.1,457.8c-0.8-0.8-1.8-1-2.8-0.6c0.1-0.2,0.1-0.5,0.1-0.7c0-0.6-0.2-1.2-0.7-1.7
	c-0.6-0.7-2.3-1.5-4,0.2l-3,2.9l7,7.2l3.1-3c0.8-0.8,1.2-1.6,1.2-2.4C-28.3,459.1-28.5,458.4-29.1,457.8 M-33.6,457.5
	c0,0.5-0.3,0.9-0.6,1.2c0,0-0.5,0.5-0.7,0.7c-0.3-0.3-1.9-2-2.2-2.3c0.2-0.2,0.5-0.5,0.5-0.5c0.9-0.9,1.8-1,2.5-0.2
	C-33.8,456.8-33.6,457.2-33.6,457.5z M-31.7,462.8c-0.3-0.3-2.2-2.3-2.5-2.6c0.3-0.2,0.9-0.9,0.9-0.9c1.2-1.2,2.5,0.1,2.5,0.1
	c0.4,0.4,0.6,0.8,0.6,1.2c0,0,0,0,0,0c0,0.4-0.2,0.9-0.7,1.3C-30.8,461.9-31.4,462.5-31.7,462.8z"/>
<path id="path3437" class="st0" d="M-141.8,328.3l-4.2,1.1l0.5,1.5c0.6,1.8,0.1,3.8-1.4,5c-0.8,0.7-1.7,1-2.7,0.9
	c-1.5-0.1-3.3-1.1-4.7-2.7c-1.6-1.9-2.4-3.6-2.3-5.1c0.1-1.1,0.6-2.1,1.6-3c1.1-1,2.6-1,4.5-0.6l1.4,0.3l0.9-4.1l-1.5-0.4
	c-3.1-0.8-6.4,0-8.7,2c-4.6,4-4.9,10.5-0.9,15.2c3.8,4.3,10.4,4.8,14.6,1.1c3.1-2.7,4.2-6.1,3.1-10L-141.8,328.3"/>
<path id="path3439" class="st0" d="M-130.3,307l-4.3,2c0,0,2.4,5.1,3.2,6.9c-1.2,0.6-2.4,1.1-3.7,1.7c-0.8-1.8-3.2-6.9-3.2-6.9
	l-5.7,2.7l8.7,18.4l5.7-2.7c0,0-2.7-5.7-3.6-7.5c1.2-0.6,2.4-1.1,3.7-1.7c0.9,1.8,3.5,7.5,3.5,7.5l5.7-2.7l-8.7-18.4L-130.3,307"/>
<path id="path3441" class="st0" d="M-111,318.4c-0.3-1.4-0.6-2.8-0.8-4.1c1.8-0.4,6.4-1.3,6.4-1.3l-0.8-4.1c0,0-4.7,0.9-6.4,1.3
	c-0.3-1.3-0.5-2.3-0.7-3.6c1.8-0.4,6.8-1.4,6.8-1.4l-0.8-4.1l-1.5,0.3l-11.5,2.3l4,19.9l13.1-2.6l-0.8-4.1
	C-104.1,317-109.2,318-111,318.4"/>
<path id="path3443" class="st0" d="M-92.4,300.7l-6.3-0.1l0,1.5l-0.4,18.8l13.2,0.3l0.1-4.4c0,0-5.1-0.1-6.9-0.1
	C-92.7,314.2-92.4,300.7-92.4,300.7"/>
<path id="path3445" class="st0" d="M-72,311c-1.6-1.2-2.1-1.7-1.9-2.3c0.1-0.3,0.5-1.4,1.6-1.1c0.7,0.2,1.4,0.6,1.7,2.1l0.3,1.7
	l4.2-1.4l-0.3-1.3c-0.5-2.6-2.7-4.8-5.4-5.4c-2-0.5-3.9-0.2-5.5,0.7c-1.5,0.9-2.5,2.3-2.9,3.9c-1,4.2,1.8,6.2,3.6,7.5
	c1.9,1.4,2.4,1.9,2.1,3c-0.1,0.4-0.3,0.6-0.6,0.8c-0.4,0.2-0.9,0.3-1.2,0.2c-1-0.2-1.4-0.7-1.9-2l-0.5-1.6l-4.2,1.7l0.4,1.3
	c0.8,2.6,2.7,4.2,5.7,5c3.4,0.9,7.6-0.7,8.6-4.9C-67.1,314.6-70,312.4-72,311"/>
<path id="path3447" class="st0" d="M-57,321.8c1.6,0.8,5.9,3,5.9,3l1.9-3.7c0,0-4.3-2.1-5.9-3c0.6-1.1,1.1-2.1,1.6-3.2
	c1.7,0.8,6.2,3.1,6.2,3.1l1.9-3.7l-11.8-6l-0.7,1.4l-8.5,16.8l11.9,6l1.9-3.7c0,0-4.6-2.3-6.3-3.2C-58.2,324.3-57.6,323.1-57,321.8"
	/>
<path id="path3449" class="st0" d="M-33.4,323.7l-19,9.8l3.6,3.2c0,0,3.1-1.7,4.3-2.3c0.8,0.7,2.1,1.8,2.9,2.5
	c-0.4,1.2-1.6,4.6-1.6,4.6l5,4.4L-30,322L-33.4,323.7"/>
<path id="path3451" class="st2" d="M-142.5,329.5l-2.2,0.6l0.2,0.5c0.7,2.2,0.1,4.6-1.7,6.1c-1,0.9-2.2,1.3-3.5,1.2
	c-1.8-0.1-3.8-1.2-5.4-3c-1.8-2.1-2.7-4.1-2.6-5.9c0.1-1.4,0.8-2.6,2-3.7c1.6-1.4,3.6-1.1,5.4-0.8l0.5,0.1l0.5-2.1l-0.5-0.1
	c-2.8-0.7-5.7,0-7.8,1.8c-4.1,3.6-4.5,9.5-0.8,13.8c3.4,3.9,9.3,4.3,13.2,1c2.8-2.5,3.7-5.5,2.8-8.9L-142.5,329.5"/>
<path id="path3453" class="st2" d="M-129.9,307.9l-3.4,1.6c0,0,2.9,6.1,3.2,6.9c-0.7,0.3-4.8,2.3-5.5,2.6c-0.4-0.8-3.2-6.9-3.2-6.9
	l-3.9,1.8l7.8,16.6l3.9-1.8c0,0-3.2-6.7-3.6-7.5c0.7-0.3,4.8-2.2,5.5-2.6c0.4,0.8,3.6,7.5,3.6,7.5l3.9-1.8l-7.8-16.6L-129.9,307.9"
	/>
<path id="path3455" class="st2" d="M-111.8,319.6c-0.2-0.8-1.1-5.3-1.2-6.1c0.8-0.2,6.4-1.3,6.4-1.3l-0.4-2.1c0,0-5.6,1.1-6.4,1.3
	c-0.2-0.8-1-4.8-1.1-5.5c0.9-0.2,6.8-1.4,6.8-1.4l-0.4-2.1l-11,2.2l3.6,17.9l11.1-2.2l-0.4-2.1C-104.9,318.2-111,319.4-111.8,319.6"
	/>
<path id="path3457" class="st2" d="M-93.5,301.7l-4.3-0.1l0,0.5l-0.4,17.8l11.2,0.2l0.1-2.4c0,0-6.1-0.1-6.9-0.1
	C-93.8,316.7-93.5,301.7-93.5,301.7"/>
<path id="path3459" class="st2" d="M-72.1,306.5c1.4,0.3,2.1,1.2,2.5,2.9l0.1,0.6l2.2-0.8l-0.1-0.4c-0.4-2.2-2.3-4.1-4.7-4.7
	c-1.7-0.4-3.4-0.2-4.8,0.6c-1.2,0.7-2.1,1.9-2.5,3.3c-0.9,3.5,1.4,5.1,3.2,6.4c1.8,1.3,3,2.2,2.5,4.1c-0.2,0.8-0.7,1.2-1.1,1.5
	c-0.6,0.4-1.4,0.5-2,0.3c-1.4-0.3-2-1.1-2.6-2.7l-0.2-0.5l-2.3,0.9l0.1,0.4c0.7,2.2,2.3,3.6,5,4.3c3,0.7,6.5-0.6,7.4-4.1
	c0.9-3.7-1.5-5.5-3.5-6.9c-1.7-1.2-2.7-2-2.3-3.4C-74.6,307.2-73.6,306.1-72.1,306.5"/>
<path id="path3461" class="st2" d="M-53.9,313.5c0.8,0.4,6.2,3.1,6.2,3.1l1-1.9l-10-5.1l-0.2,0.5l-8,15.9l10.1,5.1l1-1.9
	c0,0-5.5-2.8-6.3-3.2c0.4-0.7,2.4-4.8,2.8-5.6c0.8,0.4,5.9,3,5.9,3l1-1.9c0,0-5.1-2.6-5.9-3C-56.1,317.8-54.2,314.2-53.9,313.5"/>
<path id="path3463" class="st2" d="M-32.9,324.6l-17.6,9.1l2,1.7c0,0,3.7-2,4.3-2.3c0.4,0.4,3.5,3.1,4,3.5c-0.2,0.6-1.6,4.6-1.6,4.6
	l3.3,2.9l6.8-20.1L-32.9,324.6 M-42.3,332.2c0.8-0.4,3-1.5,4.3-2.2c-0.5,1.4-1.3,3.7-1.6,4.5C-40.3,333.9-41.6,332.7-42.3,332.2z"/>
<path id="path3465" class="st3" d="M-45.2,394.5c-1.4-3.8-6.4-5.5-11.1-3.7c-2,0.7-3.6,2-4.7,3.4c3.1-8.9,15.8-10.8,15.8-19
	c0-13.8-19.6-10-16.8,0c0-4.5,7.2-5.3,7.2,0c0,5.4-12.5,8.9-12.5,17.9c0,10,10,10.9,9,20c-0.2,1.6-1.9,3.6-4.3,3.6
	c-15.3,0-9.8-18.8-15.1-24.5l0.3-3.9c3.1,1.9,11.3-2.5,5.9-9.3c0,3.3-6.9,3.1-6.9-3.1c0-8.5,7.9-4.1,8.3-2.2c-0.4-3.1-0.5-5.1,0-6.8
	c-4.3,1.4-4.7-1.1-4.1-2.1c0.6-1.1,1.4-2.4,3.1-2.4c0.9,0,1.4,0.1,1.8,0.3c0.5,0.4,0.9-0.5,0.8,0.3c0.5-0.7,0.3,0.2,0.7-0.5
	c0.4-0.7,1.1-1.5,2.1-2.5l0-1.6l1.2,0.5l1.2-1.9c-1.3-2.7-3-1.4-4.3-4.7c-1.1-0.3-17.9,1.5-17.4-5.2c-1.4,0-4.6,0.8-2.6,3.5
	c-1.6,0.2-2.7-1.6-5,3.2c2.9-0.6,1.4,2.7,1.4,3.7c0,6.1-8.1,6-8.1,3.1c-2,1.9-0.8,6,2.1,7.1c0,0-1.1,4.4-3.9,7.2
	c-4.1-0.2-10.7-0.9-14.5-4.5c-1.6-1.5-2.9-2.4-4-2.8v-2c1.6-0.8,3.4-2.2,5.2-4.5c1.4-1.8,2.2-4,2-6.4c0-0.3-0.1-0.6-0.1-0.8
	c0-0.1,0-0.2-0.1-0.3c0-0.2-0.1-0.4-0.1-0.6c0-0.1-0.1-0.2-0.1-0.3c-0.1-0.2-0.1-0.4-0.2-0.6c0-0.1-0.1-0.2-0.1-0.2
	c-0.1-0.2-0.2-0.5-0.3-0.7c-0.1-0.1-0.1-0.2-0.2-0.3c-0.1-0.1-0.2-0.3-0.3-0.4c-0.1-0.1-0.1-0.2-0.2-0.3c-0.1-0.1-0.2-0.2-0.2-0.3
	c-0.1-0.1-0.2-0.2-0.3-0.3c-0.1-0.1-0.1-0.1-0.2-0.2c-0.2-0.3-0.5-0.5-0.8-0.7c0,0,0,0-0.1-0.1c-0.2-0.1-0.3-0.3-0.5-0.4
	c0,0-0.1-0.1-0.1-0.1c-0.2-0.1-0.3-0.2-0.5-0.3c0,0,0,0,0,0c-1.7-1.1-3.8-1.6-6-1.4c-5.3,0.4-9.3,4.9-8.8,9.9c0.3,3.9,3.2,7.1,7,8.1
	c-1.3,0.7-2.4,1.2-2.7,1.2c0,0,0.1,0.1,0.2,0.1c0,0,0,0,0.1,0c0.1,0,0.1,0.1,0.2,0.1c0,0,0,0,0.1,0c0.1,0,0.2,0.1,0.3,0.1
	c0,0,0,0,0.1,0c0.1,0,0.2,0.1,0.3,0.1c0,0,0.1,0,0.1,0c0.2,0.1,0.5,0.2,0.8,0.3c0,0,0.1,0,0.1,0c0.1,0,0.2,0.1,0.4,0.1
	c0,0,0.1,0,0.1,0c0.2,0,0.3,0.1,0.5,0.1c0,0,0,0,0,0v1.1c-0.1,0-0.1,0-0.2,0c-1.7,0.3-2.8,0.8-3.4,2.4c-0.5,1.5,0,2.1,0.8,3.2
	c-0.7,1.2-2.5,1.7-0.1,4.4c-0.2,1,0,2.6,1.5,3.1c0.5,0.2,0.9,0.3,1.3,0.3l0,20.2c-1.5,0.8-2.2,1.8-2.6,2.7c0,0-1.2-2.6-1.1,2.6
	c1.3-1,0.8,1.2,0.8,1.2c-1.8,2.4,0.5,2.3,0.5,2.3c1.6-1.6,1.3,0.7,1.3,0.7c0,2.8,1.1,3.9,1.1,3.9v15.4l-1.3,0l0,4.3l2.4,0
	c-1.3,0.5-2.2,1.9-2.1,3.3c0.2,1.8,1.8,3.2,3.7,3c1.9-0.2,3.3-1.7,3.2-3.6c-0.1-1.3-0.9-2.3-2.1-2.8l2.2,0l0-4.3l-1.3,0l0-13.7
	c0.3,0.1,0.6,0.2,0.9,0.3c0.1,0,0.2,0,0.4,0c0.1,0,0.1,0,0.2,0c-0.3-1.8,0.7-3,0.7-3c0.6-0.8,1.3-1.5,2.3-1.9c2.7-1.4,6.4-1,7.5,1.2
	c7-1.8,13-8.9,13-8.9l3.5,5.9c-7.3,2.4-23.3,16.3-12.2,21.1c0,1.4-0.2,11.8-6.8,10.9c-9.6-1.2-12,2.8-10.1,7.2c-0.9,3.8,2,5.1,2,5.1
	c-0.4-2.2,0.6-4,4.6-3.9c0,4,2.5,4.7,2.5,4.7c0-3.4,2.4-4.6,4.5-4.6c0,2.8,3.2,3.9,3.2,3.9s-0.8-3.2,2.8-3.9
	c9.3-1.6,0.6-11.2,14.7-13.8c0,0-7-1.1-7-4.9c0-3.5,6.4-5.9,8.6-5.9c4.5,8.6,9.4,8.7,10.7,8.7c2,2.2,1.3,9.7-1.6,9.6
	c-10.5-0.6-10.1,5.8-9,7.1c-0.1,2.5,1.8,3.9,1.8,3.9c0-2.7,2.5-3.4,5.8-3.2c-0.2,3.3,1.9,3.7,1.9,3.7c0.1-3.3,2.5-3.8,4.2-3.7
	c-0.1,2.3,2.1,3,2.1,3S-69,452-66,452c5.8,0-2.6-12.5,8.7-24.8c-10,4.6-15.3-6.9-15.3-9.1c5.1,6,21.7,7.2,21.7-3
	c0-9.8-10.7-13.4-5.7-17.2c2.9-2.2,8.7,2.2,5.4,6.8C-46.4,402.9-43.8,398.3-45.2,394.5 M-108.9,394.8c-3.8,2.2-6.3,5-9.7,6.2
	c-0.5,0.2-0.9,0.2-1.3,0.2v-19.1c0.9,0.1,3.3,0.4,6,1.5c2.7,1.5,2.7,4.6-0.7,5.3c2.2,4.2,9.7,2.1,11.4-1.3c0.8-0.1,1.5,1.4,2.2,2.7
	C-102.1,391-104.3,392.1-108.9,394.8z M-66.9,363.2c-0.4,0.6-0.8,1.1-1.2,1.6c1,1.6,2.7,2.6,4.7,2.4c2.7-0.3,4.7-2.7,4.5-5.4
	c0-0.1,0-0.2,0-0.3c-0.3,1.4-1.9,2.6-4.1,2.8C-64.6,364.4-66,364-66.9,363.2z"/>
<path id="path3467" class="st1" d="M-127.6,351.7C-127.6,351.7-127.6,351.7-127.6,351.7L-127.6,351.7c0-0.1,0.1-0.2,0.1-0.3
	C-127.5,351.5-127.5,351.6-127.6,351.7 M-127.4,431.8C-127.4,431.8-127.4,431.8-127.4,431.8L-127.4,431.8
	C-127.4,431.8-127.4,431.8-127.4,431.8L-127.4,431.8z M-127.5,343.5L-127.5,343.5L-127.5,343.5z M-128.9,431.3l2.4,0
	c-0.3,0.1-0.5,0.3-0.8,0.5c0.2-0.1,0.5-0.1,0.7-0.1c1.2,0,2.1,1,2.1,2.1c0,1.2-1,2.1-2.1,2.1c-1,0-1.8-0.6-2-1.5v0.2
	c0.2,1.8,1.8,3.2,3.7,3c1.9-0.1,3.3-1.7,3.2-3.6c-0.1-1.2-0.9-2.3-2.1-2.7l2.2,0l0-4.3l-1.3,0v-13.7c-1.3-0.7-2-2.1-1.7-3.6
	c0.8,0,1.5,0.2,2,0.5c-0.7,1.6,1.1,3.4,1.1,3.4c-0.3-1.8,0.7-3,0.7-3c0.6-0.8,1.4-1.5,2.3-1.9c2.7-1.4,6.4-1,7.5,1.2
	c7-1.8,13-8.9,13-8.9l3.5,5.9c8.1,0,5.3-6.1,4.7-6.6c1.9,0,4.5,1.4,4.5,4.4c0,7.5-21.7,8.5-21.7,17.6c0,3.8,3.8,5.2,3.8,5.2
	c0,8.2-5.7,13.1-9.5,13.1c-6.2,0-10.9-1.3-10.9,5.5h2.2c-2.1,2.1-0.1,5.1-0.1,5.1c-0.4-2.2,0.6-4,4.6-3.9h2.5
	c-1.6,1.6-0.7,3.9,0.1,4.7c0-3.4,2.4-4.6,4.5-4.6c0.8,0,1.8,0,1.8,0c-0.5,0.5,0.3,2.7,1.4,3.9c0,0-0.8-3.2,2.8-3.9
	c9.3-1.6,0.6-11.2,14.7-13.8c0,0-7-1.1-7-4.9c0-3.5,6.4-5.9,8.5-5.9c1.7-0.2,3.4-0.2,4.8,0.1c0.6,5.5,6.9,5.3,8.3,5.3
	c5.4,5.4-1.4,14.1-1.4,14.1c-8.3,0-11.6,1.1-11.6,6h1.6c-0.9,0.9-0.4,3.3,0.2,3.9c0-2.7,2.5-3.4,5.8-3.2h1.7
	c-0.8,0.8-0.7,2.9,0.2,3.7c0-3.3,2.5-3.8,4.2-3.7h1.4c-0.5,0.5,0,2.2,0.7,3c0,0-0.2-2.9,2.8-2.9c5.8,0-2.6-12.5,8.7-24.8
	c-10,4.6-15.3-6.9-15.3-9.1c5.1,6,21.7,7.2,21.7-3c0-8.3-7.7-12.1-7-15.4c0.2-2.5,2.3-4.5,4.9-4.5c2.7,0,4.9,2.2,4.9,4.9
	c0,2.1-1.3,3.8-3.1,4.5c0,0,0,0,0,0c0,0,0,0,0,0c4.7-1.7,7.3-6.3,5.9-10.1c-1.5-3.8-6.4-5.5-11.1-3.7c-2,0.7-3.6,2-4.7,3.4
	c3.1-8.9,15.8-10.8,15.8-19c0-13.8-19.7-10-16.8,0c0-0.1,0-0.3,0-0.4c0.5-5.6,10.6-6.8,10.6,0.6c0,6.3-12.9,9.7-12.9,18.2
	c0,8.7,9.5,10.8,9.5,20c0,1.1-0.6,5.8-6.9,5.8c-6.1,0-9-3.4-10.7-7.9l0,0c-3.1-6-2-15.4-5.5-19.1l0.3-3.9c3.1,1.9,11.3-2.5,5.9-9.3
	c0,3.3-6.9,3.1-6.9-3.1c0-8.5,7.9-4.1,8.3-2.2c-0.4-3.1-0.5-5.1,0-6.8c-4.3,1.4-4.7-1.1-4.1-2.1c0.6-1.1,1.5-2.4,3.1-2.4
	c2.4,0,2.3,0.9,2.1,2.1c0.9-1.4,1.2-2.4,3.3-4.5l0-1.6l1.2,0.5l1.2-1.9c-1.3-2.7-3-1.4-4.3-4.7c-1.1-0.3-15.2-1.6-14.7-8.3
	c-1.2,0-4.7,4.3-2.4,6.6c0,0-1.8,0-2.9,0c-1.6,0.2-5.2-0.9-7.6,3.9c5.8-5.8,9.5,8-1.1,8v0l0,0c-1.6,0-2.9-0.7-3-1.8
	c-1.1,4.7,5.7,6.1,5.7,6.1c0,1.4-3.4,8.9-5,10.5c1.1,1.1,1.4,7.8-3.7,7.8c1.8-5-3.6-9.2-8.8-12c0,0,0,0,0,0
	c-0.9-0.4-1.9-0.8-2.7-1.3c-3.2-1.5-5.8-2.3-5.8-2.3v-3.9c1.6-0.8,3.4-2.2,5.2-4.5c1.4-1.8,2.2-4,2-6.4c0-0.3-0.1-0.6-0.1-0.8
	c0-0.1,0-0.2-0.1-0.3c0-0.2-0.1-0.4-0.1-0.6c0-0.1-0.1-0.2-0.1-0.3c-0.1-0.2-0.1-0.4-0.2-0.6c0-0.1-0.1-0.2-0.1-0.2
	c-0.1-0.2-0.2-0.5-0.3-0.7c0-0.1-0.1-0.2-0.2-0.3c-0.1-0.1-0.2-0.3-0.3-0.4c-0.1-0.1-0.1-0.2-0.2-0.3c-0.1-0.1-0.2-0.2-0.2-0.3
	c-0.1-0.1-0.2-0.2-0.3-0.3c-0.1-0.1-0.1-0.1-0.2-0.2c-0.2-0.3-0.5-0.5-0.8-0.7c0,0-0.1-0.1-0.1-0.1c-0.2-0.1-0.3-0.3-0.5-0.4
	c0,0-0.1-0.1-0.1-0.1c-0.2-0.1-0.3-0.2-0.5-0.3c0,0,0,0,0,0c-1.7-1.1-3.8-1.6-6-1.4c-0.5,0-0.9,0.1-1.4,0.2c-3.1,1.2-5.3,4.7-5.3,9
	c0,4,2,7.4,4.8,8.8c0,0,0.1,0,0.1,0c-1.3,0.7-2.4,1.2-2.7,1.2c0,0,0.1,0.1,0.2,0.1c0,0,0,0,0,0c0.1,0,0.1,0.1,0.2,0.1c0,0,0,0,0.1,0
	c0.1,0,0.2,0.1,0.3,0.1c0,0,0,0,0,0c0.1,0,0.2,0.1,0.3,0.1c0,0,0.1,0,0.1,0c0.2,0.1,0.5,0.2,0.8,0.3c0,0,0.1,0,0.1,0
	c0.1,0,0.2,0.1,0.3,0.1c0,0,0.1,0,0.1,0c0.2,0,0.3,0.1,0.5,0.1c0,0,0,0,0,0c1,0.1,2.2-0.2,2.2-0.2v2.3c-0.2,0-1.8-0.5-2.2-0.9
	c-0.1,0-0.1,0-0.2,0c-1.7,0.3-2.8,0.8-3.4,2.4c-0.5,1.5,0,2.1,0.8,3.2c-0.7,1.2-2.5,1.7-0.1,4.4c-0.2,1,0,2.6,1.5,3.1
	c0.5,0.2,0.9,0.2,1.3,0.3c0.9,0,2.2,0.7,2.2,2.6V398c0.8,0,1.7,0.2,2.5,0.2v-19.1c0.9,0.1,3.3,0.4,6,1.5c0,0,0.1,0,0.1,0.1
	c0,0,0,0,0,0c0.3,0,0.5,0.1,0.8,0.2c1.8,0.6,3,2.2,2.5,3.6c-0.4,1.4-2.3,2.1-4.1,1.5c2.2,4.2,9.7,2.1,11.4-1.3
	c0.8-0.1,1.5,1.4,2.2,2.7c0,0,1.9,0.7,6.6,0.7c0,0-18.9,12.1-24.4,12.1c-2.3,0-7.5,0-7.5,1.8c-1.4,0-3.5,2.4-3.5,3.8
	c1.3-1.1,2.4-1.1,2.4-1.1c1.1,0,1.8,0.3,1.8,0.3c-0.4,0.4-2.3,2.5-2.3,4.2c1.6-1.6,2.3-1.6,2.3-1.6s1.7-0.2,2.2,0.4
	c-0.4,0.4-1.1,1.8-1.1,3.5c0,0,1-1.9,2.2-1.9v18.2c0,0.6-2.5,1.1-3.5,1.1 M-128.2,376.3c-0.5,0-0.7-0.6-0.7-0.8
	c0-0.2,0.2-0.8,0.6-0.9c1.1,0,3.3,0.5,3.3,0.7C-124.9,375.6-127.1,376.3-128.2,376.3L-128.2,376.3z M-128.9,373.3
	c-0.6,0-0.9-0.9-0.8-1.2c0-0.3,0.4-1.1,1-1.1c1.5,0.1,4.5,1.2,4.5,1.5C-124.3,372.8-127.4,373.4-128.9,373.3z M-129.1,369.5
	c-0.7-0.2-0.7-1.2-0.7-1.5c0.1-0.3,0.6-1.1,1.3-1c1.6,0.4,4.6,2.2,4.5,2.5C-124.1,369.8-127.5,369.9-129.1,369.5L-129.1,369.5z
	 M-124.1,358.6c0.3-0.7,0.2-1.6,0-2.5c0,0-0.1,0-0.1,0c-2,0-3.5-1.6-3.5-3.5c0-0.3,0-0.7,0.1-1h0c0,0,0,0,0,0
	c0.4-1.5,1.8-2.6,3.4-2.6c1.9,0,3.5,1.6,3.5,3.5C-120.6,354.9-122.2,357-124.1,358.6L-124.1,358.6z"/>
<path id="path3469" class="st4" d="M-71.1,361.7c0.9,1.6,2.7,2.6,4.7,2.4c2.7-0.3,4.7-2.7,4.5-5.4c0-0.1,0-0.2,0-0.3
	c-0.3,1.4-2,2.6-4.1,2.8c-1.6,0.1-3-0.3-3.9-1.1C-70.3,360.7-70.7,361.3-71.1,361.7"/>
<path id="path3471" class="st2" d="M-77.7,352.6l1.7,0.1l-0.9,1.2C-76.8,353.8-78,354.2-77.7,352.6 M-81.8,352.6h2.5
	c0,0-0.1,2,1.7,2.2l-0.4,0.6C-78,355.4-82.8,354.1-81.8,352.6z"/>
<path id="path3473" class="st5" d="M-124,369.5c0.1-0.3-2.9-2.1-4.5-2.5c-0.7-0.2-1.2,0.6-1.3,1c-0.1,0.3,0,1.3,0.7,1.5
	C-127.5,369.9-124.1,369.8-124,369.5 M-124.2,372.5c0-0.3-2.9-1.4-4.5-1.5c-0.6,0-1,0.8-1,1.1c0,0.3,0.2,1.2,0.8,1.2
	C-127.4,373.4-124.2,372.8-124.2,372.5z M-127.6,363.5v1.1c0.4,0.4,2,0.9,2.2,0.9v-2.3C-125.4,363.4-126.6,363.6-127.6,363.5z
	 M-128.2,374.6c-0.5,0-0.6,0.6-0.6,0.9c0,0.2,0.2,0.8,0.7,0.8c1.1,0,3.3-0.7,3.3-1C-124.9,375.1-127.1,374.6-128.2,374.6z
	 M-130.5,404.8c-1.8,2.4-0.5,4.5-0.5,4.5c0-1.7,1.9-3.8,2.3-4.2C-128.7,405.1-129.4,404.8-130.5,404.8z M-124.7,409.8
	c-0.3,1.5,0.4,2.9,1.7,3.6c0.3,0.1,0.6,0.2,0.9,0.3c0.1,0,0.3,0,0.4,0.1c0.1,0,0.1,0,0.2,0c0,0-1.9-1.7-1.1-3.4
	C-123.1,410-123.9,409.8-124.7,409.8L-124.7,409.8z M-128,361.3c-2.8-1.4-4.8-4.8-4.8-8.8c0-4.2,2.2-7.8,5.3-9
	c-4.6,1-7.8,5.1-7.4,9.7C-134.6,357.1-131.7,360.2-128,361.3z M-98.5,351.5c3-0.6,4,2.1,4,3c0,3.6-2.8,5-5.1,5v0
	C-88.9,359.5-92.7,345.7-98.5,351.5L-98.5,351.5z M-105.6,382.1c5.1,0,4.8-6.7,3.7-7.8c1.6-1.6,5-9.1,5-10.5c0,0-6.7-1.4-5.6-6.1
	c0,0,0,0,0,0l-0.1,0c-1.8,1.9-0.7,6,2.2,7c0,0-1.1,4.4-3.9,7.2c-2.8-0.1-6.6-0.5-10-1.8C-109.2,373-103.8,377.2-105.6,382.1
	L-105.6,382.1z M-125.5,350.2c1.3-0.1,2.5,0.8,2.6,2.1c0.1,1.3-0.9,2.4-2.2,2.5c-1.3,0.1-2.5-0.8-2.6-2.1c0,1.9,1.6,3.5,3.5,3.5
	c0,0,0.1,0,0.1,0c0.2,0.9,0.2,1.8,0,2.5c1.9-1.7,3.5-3.7,3.5-6c0-2-1.6-3.5-3.5-3.5c-1.6,0-3,1.1-3.4,2.6
	C-127.3,350.9-126.5,350.3-125.5,350.2L-125.5,350.2z M-88,347.6c-2.3-2.3,1.1-6.6,2.4-6.6c-1.4,0-7.3,3.9-5.3,6.6
	C-89.8,347.6-88,347.6-88,347.6z M-117.6,386c1.8,0.6,3.7-0.1,4.1-1.5c0.4-1.4-0.7-3-2.5-3.6c-0.3-0.1-0.5-0.1-0.8-0.2
	C-114.2,382.2-114.2,385.2-117.6,386z M-122.9,366.5c0,0,2.6,0.8,5.8,2.3c-0.6-0.4-1.3-0.9-1.8-1.4c-1.6-1.5-2.9-2.4-4-2.8V366.5
	L-122.9,366.5L-122.9,366.5z M-122,400.2c5.5,0,24.4-12.1,24.4-12.1c-4.7,0-6.6-0.7-6.6-0.7c-1.1,0.6-3.2,1.6-7.8,4.4
	c-3.8,2.2-6.3,5-9.7,6.2c-0.5,0.2-0.9,0.2-1.3,0.2c-0.8-0.1-1.7-0.2-2.5-0.2v-17.4c0-1.8-1.3-2.6-2.2-2.6v20.2
	c-1.5,0.8-2.2,1.8-2.6,2.7c0,0-2.8-0.4-2.7,4.8c0-1.4,2.1-3.8,3.5-3.8C-129.5,400.2-124.3,400.2-122,400.2z M-74.7,428.2
	c-1.4,0-7.8,0.3-8.3-5.3c-1.4-0.3-3-0.4-4.8-0.1c4.5,8.6,9.4,8.7,10.7,8.7c2,2.2,1.3,9.7-1.6,9.6c-10.5-0.6-10.1,5.8-8.9,7.1
	c0-4.8,3.3-6,11.6-6C-76.1,442.3-69.3,433.6-74.7,428.2z M-72.6,448.9H-74c-0.1,2.3,2.2,3,2.2,3C-72.6,451.2-73.1,449.5-72.6,448.9z
	 M-85.9,452.2c-0.6-0.6-1.1-3-0.2-3.9h-1.6C-87.8,450.7-85.9,452.2-85.9,452.2z M-54.5,372.3c0-7.3-10.1-6.2-10.6-0.6
	c0.4-4.1,7.2-4.7,7.2,0.4c0,5.4-12.5,8.9-12.5,17.9c0,10,10,10.9,9,20c-0.2,1.6-1.9,3.6-4.3,3.6c-5.2,0-8.1-2.2-9.7-5.4
	c1.7,4.5,4.6,7.9,10.7,7.9c6.3,0,6.9-4.7,6.9-5.8c0-9.1-9.5-11.3-9.5-20C-67.4,382-54.5,378.6-54.5,372.3z M-128.8,407.7
	c0,2.8,1.1,3.9,1.1,3.9c0-1.7,0.7-3.1,1.1-3.5C-127.1,407.5-128.8,407.7-128.8,407.7z M-56,392.2c-2.6,0-4.6,2-4.9,4.5
	c0.1-0.6,0.5-1.2,1.3-1.8c2.9-2.2,8.7,2.2,5.4,6.7c1.8-0.7,3.1-2.5,3.1-4.5C-51.1,394.4-53.3,392.2-56,392.2z M-78.4,448.9h-1.7
	c-0.2,3.2,1.9,3.7,1.9,3.7C-79.1,451.8-79.2,449.8-78.4,448.9z M-126.6,431.6c-0.3,0-0.5,0.1-0.7,0.1c-0.8,0.6-1.3,1.6-1.3,2.6
	c0.3,0.9,1.1,1.5,2,1.5c1.2,0,2.1-1,2.1-2.1C-124.5,432.6-125.4,431.6-126.6,431.6z M-114.6,447.4h-2.5c0,4,2.5,4.7,2.5,4.7
	C-115.3,451.3-116.2,448.9-114.6,447.4L-114.6,447.4z M-107,422.4c0-9,21.7-10.1,21.7-17.6c0-3-2.6-4.4-4.5-4.4
	c0.5,0.5,3.3,6.6-4.7,6.6c-7.3,2.4-23.3,16.3-12.2,21.1c0,1.4-0.2,11.8-6.8,10.9c-9.6-1.2-12,2.8-10.1,7.2c0-6.8,4.7-5.5,10.9-5.5
	c3.9,0,9.5-4.9,9.5-13.2C-103.2,427.6-107,426.2-107,422.4z M-125.4,427.9v-18.2c-1.2,0-2.2,1.9-2.2,1.9v15.5V427l-1.3,0l0,2
	C-127.9,429-125.4,428.5-125.4,427.9L-125.4,427.9z M-121.7,451.3c0,0-1.9-3,0.1-5.1h-2.2C-124.6,450-121.7,451.3-121.7,451.3z
	 M-108.3,447.4c0,0-1,0-1.8,0c0,2.8,3.2,3.9,3.2,3.9C-108,450.1-108.8,447.9-108.3,447.4z"/>
<line id="line3475" class="st6" x1="-20.2" y1="376.5" x2="-20.2" y2="376.5"/>
<path id="path3477" class="st2" d="M-168.6,417.2l-0.1-0.4l-0.1-0.4c-0.2-1.3-0.5-3.7-2.4-4.2c-0.5-0.1-1-0.1-1.6,0.2
	c0.2-0.6,0.1-1.1,0-1.6c-0.7-1.8-3.1-1.8-4.5-1.8h-0.4l-0.4-0.1c-1.3-0.2-3.7-0.7-4.7,1c-0.3,0.4-0.4,1-0.3,1.5
	c-0.5-0.3-1-0.5-1.5-0.4c-1.9,0.1-2.7,2.4-3.1,3.7l-0.1,0.4l-0.2,0.3c-0.6,1.2-1.8,3.3-0.5,4.8c0.3,0.4,0.8,0.6,1.4,0.8
	c-0.5,0.4-0.8,0.8-0.9,1.3c-0.5,1.9,1.5,3.3,2.6,4l0.3,0.2l0.3,0.3c0.9,1,2.6,2.7,4.4,2c0.5-0.2,0.9-0.6,1.2-1.1
	c0.2,0.6,0.5,1,1,1.2c1.6,1,3.6-0.4,4.6-1.2l0.3-0.2l0.3-0.2c1.2-0.6,3.4-1.6,3.2-3.5c0-0.5-0.3-1-0.6-1.4c0.6,0,1.1-0.2,1.5-0.5
	C-167.4,420.8-168.1,418.5-168.6,417.2"/>
<path id="path3479" class="st4" d="M-177,418.8c10.8,6.4,7.5-0.6,7.2-1.7C-170,416.1-170.1,408.3-177,418.8"/>
<path id="path3481" class="st4" d="M-177.7,420.4c-2.7,12.2,2.9,6.9,3.8,6.4C-173,426.2-165.6,423.7-177.7,420.4"/>
<path id="path3483" class="st4" d="M-179.4,420.3c-12.5,1.2-5.7,4.9-4.9,5.6C-183.5,426.5-178.9,432.8-179.4,420.3"/>
<path id="path3485" class="st4" d="M-179.8,418.6c-5-11.5-6.4-3.9-6.8-2.9C-187.1,416.6-191.6,423-179.8,418.6"/>
<path id="path3487" class="st2" d="M-1.6,415.6l-0.2-0.3l-0.1-0.4c-0.4-1.3-1.1-3.6-3.1-3.7c-0.5,0-1,0.1-1.5,0.4
	c0-0.6-0.1-1.1-0.3-1.5c-1-1.7-3.4-1.2-4.7-1l-0.4,0.1h-0.4c-1.3,0-3.8,0-4.5,1.8c-0.2,0.5-0.2,1-0.1,1.6c-0.5-0.2-1.1-0.3-1.6-0.2
	c-1.9,0.4-2.2,2.9-2.4,4.2l-0.1,0.4l-0.1,0.4c-0.4,1.2-1.2,3.6,0.3,4.8c0.4,0.3,0.9,0.5,1.5,0.5c-0.4,0.5-0.6,0.9-0.6,1.4
	c-0.2,1.9,2,3,3.2,3.5l0.3,0.2l0.3,0.2c1.1,0.8,3,2.2,4.6,1.2c0.4-0.3,0.8-0.7,1-1.3c0.3,0.5,0.7,0.9,1.2,1.1c1.8,0.8,3.5-1,4.4-2
	l0.3-0.3l0.3-0.2c1.1-0.8,3.1-2.2,2.6-4c-0.1-0.5-0.4-0.9-0.9-1.3c0.6-0.1,1-0.4,1.4-0.8C0.2,418.9-1,416.7-1.6,415.6"/>
<path id="path3489" class="st4" d="M-11.1,417.7c-9.4-8.3-1.7-7.3-0.6-7.4C-10.7,410.2-3.3,407.9-11.1,417.7"/>
<path id="path3491" class="st4" d="M-12.5,418.8c-10.8,6.4-7.5-0.6-7.2-1.7C-19.5,416.1-19.4,408.3-12.5,418.8"/>
<path id="path3493" class="st4" d="M-11.8,420.4c2.7,12.2-2.9,6.9-3.8,6.4C-16.5,426.2-23.9,423.7-11.8,420.4"/>
<path id="path3495" class="st4" d="M-10.1,420.3c12.5,1.2,5.7,4.9,4.9,5.6C-6,426.5-10.6,432.8-10.1,420.3"/>
<path id="path3497" class="st4" d="M-9.7,418.6c5-11.5,6.4-3.9,6.8-2.9C-2.4,416.6,2.1,423-9.7,418.6"/>
<path id="path3499" class="st2" d="M-7.2,418.9c0-0.1,0-0.2-0.1-0.3c1-0.7,2.1-1.5,2.1-1.5l-0.1-0.2c0,0-1.3,0.2-2.5,0.4
	c-0.6-1-1.6-1.7-2.8-1.8c-0.4-1.1-0.8-2.3-0.8-2.3l-0.3,0c0,0-0.2,1.2-0.3,2.4c-0.7,0.2-1.4,0.6-1.9,1.2c-0.3,0.3-0.5,0.7-0.6,1.1
	c-1.2,0-2.5,0-2.5,0l-0.1,0.3c0,0,1.2,0.6,2.3,1.1c0,0.1,0,0.2,0,0.3c0.1,1,0.5,1.9,1.3,2.5c-0.4,1.2-0.8,2.6-0.8,2.6l0.2,0.1
	c0,0,1-1,1.9-2c0.5,0.2,1,0.2,1.5,0.2c0.5,0,1-0.2,1.4-0.4c1,0.8,2.2,1.6,2.2,1.6l0.2-0.2c0,0-0.7-1.3-1.3-2.4
	C-7.4,420.8-7.2,419.9-7.2,418.9"/>
<path id="path3501" class="st4" d="M-11.2,417c-0.6,0-1.1,0.3-1.5,0.8c-0.4,0.5-0.6,1-0.5,1.6c0.1,1.2,1.2,2.1,2.4,2
	c0.6-0.1,1.1-0.3,1.5-0.8c0.4-0.5,0.6-1,0.5-1.6C-8.9,417.8-10,416.9-11.2,417"/>
<path id="path3503" class="st4" d="M-178.3,417.7c9.4-8.3,1.7-7.3,0.6-7.4C-178.7,410.2-186.1,407.9-178.3,417.7"/>
<path id="path3505" class="st2" d="M-174.8,419.3c1.1-0.5,2.3-1.1,2.3-1.1l-0.1-0.3c0,0-1.3,0-2.5,0c-0.1-0.4-0.3-0.7-0.6-1.1
	c-0.5-0.6-1.2-1-1.9-1.2c-0.2-1.2-0.3-2.4-0.3-2.4l-0.3,0c0,0-0.4,1.2-0.7,2.3c-1.2,0.1-2.2,0.8-2.8,1.8c-1.2-0.2-2.5-0.4-2.5-0.4
	l-0.1,0.2c0,0,1.1,0.8,2.1,1.5c0,0.1,0,0.2-0.1,0.3c-0.1,1,0.2,1.9,0.8,2.7c-0.6,1.1-1.3,2.4-1.3,2.4l0.2,0.2c0,0,1.2-0.9,2.2-1.6
	c0.4,0.2,0.9,0.4,1.4,0.4c0.5,0,1,0,1.5-0.2c0.9,0.9,1.9,2,1.9,2l0.2-0.1c0,0-0.4-1.4-0.8-2.6c0.7-0.6,1.2-1.5,1.3-2.5
	C-174.8,419.5-174.8,419.4-174.8,419.3"/>
<path id="path3507" class="st4" d="M-176.8,417.8c-0.4-0.5-0.9-0.7-1.5-0.8c-1.2-0.1-2.3,0.8-2.4,2c0,0.6,0.1,1.2,0.5,1.6
	c0.4,0.5,0.9,0.7,1.5,0.8c1.2,0.1,2.3-0.8,2.4-2C-176.2,418.8-176.4,418.3-176.8,417.8"/>
<path id="path3509" class="st2" d="M-177,365.5c-5.3-0.9-10.3,2.6-11.2,7.9c-0.9,5.3,2.6,10.3,7.8,11.2c5.3,0.9,10.3-2.6,11.2-7.9
	C-168.2,371.5-171.7,366.5-177,365.5"/>
<path id="path3511" class="st4" d="M-174.8,372.8c-0.1-0.1-0.2-0.1-0.4-0.3c-0.8-0.5-2.4-1.6-2.4-1.6c-0.2-0.1-0.4-0.3-0.6-0.4
	c-0.7-0.5-1.3-0.9-1.9-1.2c-0.2-0.1-0.4-0.2-0.7-0.4c-0.9-0.5-1.8-0.7-2.9-0.8c-0.8,0.6-1.5,1.3-2.1,2.1c2.4,0.9,4.8,2.3,9.6,5.3
	C-175.8,375-174.8,373-174.8,372.8"/>
<path id="path3513" class="st4" d="M-177,378c0.1-0.2,0.5-1.3,0.7-1.8c-5-3.1-7.3-4.5-9.8-5.3c-0.4,0.7-0.7,1.4-0.8,2.2
	C-185.5,375-181.8,376.9-177,378"/>
<path id="path3515" class="st4" d="M-177.6,370.1c1.9-1.1,4-0.8,5.7-0.2c-0.6-0.8-1.4-1.5-2.2-2c-1.6-0.3-3.7-0.4-5.4,1
	C-178.9,369.2-178.3,369.6-177.6,370.1"/>
<path id="path3517" class="st4" d="M-185.1,379.1c0.3,0.2,0.5,0.3,0.8,0.5c0.6,0.3,1.2,0.6,1.8,0.8c0.3,0.1,0.5,0.2,0.8,0.3
	c0.9,0.3,3.1,0.9,3.3,0.9c0-0.1,0.8-2.1,1.1-2.8c-3.7-0.9-7.8-2.5-9.8-4.7c-0.1,1-0.1,1.9,0.1,2.9
	C-186.5,377.8-185.9,378.5-185.1,379.1"/>
<path id="path3519" class="st4" d="M-178.3,382.3l-0.8-0.2c-0.7-0.2-1.5-0.4-2.3-0.6c0.4,0.8,1,1.5,1.7,2c0.9,0.1,1.7,0.1,2.6,0
	C-177.8,383-178.3,382.3-178.3,382.3"/>
<path id="path3521" class="st4" d="M-170.5,372.6c-0.2-0.6-0.4-1.1-0.7-1.7c-1.5-0.7-3.7-1.3-5.7-0.3l2.7,1.8c0.6,0,1.1-0.1,1.6-0.1
	c0.3,0,0.5,0,0.7,0C-171.4,372.4-170.9,372.5-170.5,372.6"/>
<path id="path3523" class="st4" d="M-171.9,373.1c-0.1,4.4-2.2,7.9-4,10c2.8-1,5.1-3.4,5.6-6.6c0.2-1.1,0.2-2.1,0-3.1
	C-170.7,373.3-171.3,373.1-171.9,373.1"/>
<path id="path3525" class="st4" d="M-180.2,368.5c1.3-1.1,2.8-1.5,4.1-1.5c-0.4-0.1-0.7-0.2-1.1-0.3c-2-0.3-3.9,0-5.5,0.9
	C-181.8,367.8-181,368.1-180.2,368.5"/>
<path id="path3527" class="st4" d="M-174.1,373.1c-0.6,1.3-1,2.2-1.3,2.9c-0.1,0.2-0.2,0.4-0.3,0.7c-0.1,0.4-0.6,1.5-0.6,1.5
	l-0.3,0.7l-1.2,3c0.3,0.4,0.7,0.8,1.1,1.1c1.8-2,4-5.4,4-9.9C-173.1,373-173.5,373-174.1,373.1"/>
<path id="path3529" class="st4" d="M-182.3,381.2c-0.6-0.2-1.2-0.4-1.8-0.7c0.2,0.6,0.5,1.2,0.8,1.7c0.6,0.4,1.3,0.7,2.1,1
	C-181.6,382.6-182.1,382-182.3,381.2"/>
<path id="path3531" class="st4" d="M-184.9,380c-0.4-0.2-0.8-0.5-1.1-0.8c0.4,0.7,0.9,1.4,1.5,1.9
	C-184.7,380.8-184.8,380.4-184.9,380"/>
<path id="path3533" class="st2" d="M-21.4,376.7c0.9,5.3,6,8.8,11.2,7.9c5.3-0.9,8.8-6,7.9-11.2c-0.9-5.3-6-8.8-11.2-7.9
	C-18.8,366.5-22.4,371.5-21.4,376.7"/>
<path id="path3535" class="st4" d="M-15.8,372.8c0.1-0.1,0.2-0.1,0.4-0.3c0.8-0.5,2.3-1.6,2.4-1.6c0.2-0.1,0.4-0.3,0.6-0.4
	c0.7-0.5,1.3-0.9,1.9-1.2c0.2-0.1,0.4-0.2,0.7-0.4c0.9-0.5,1.8-0.7,2.9-0.8c0.8,0.6,1.5,1.3,2.1,2.1c-2.4,0.9-4.7,2.3-9.6,5.3
	C-14.8,375-15.7,373-15.8,372.8"/>
<path id="path3537" class="st4" d="M-13.5,378c-0.1-0.2-0.5-1.3-0.7-1.8c5-3.1,7.3-4.5,9.7-5.3c0.4,0.7,0.7,1.4,0.8,2.2
	C-5,375-8.7,376.9-13.5,378"/>
<path id="path3539" class="st4" d="M-13,370.1c-1.9-1.1-4-0.8-5.7-0.2c0.6-0.8,1.4-1.5,2.2-2c1.6-0.3,3.7-0.4,5.4,1
	C-11.6,369.2-12.3,369.6-13,370.1"/>
<path id="path3541" class="st4" d="M-5.5,379.1c-0.2,0.2-0.5,0.3-0.8,0.5c-0.6,0.3-1.1,0.6-1.8,0.8c-0.3,0.1-0.5,0.2-0.8,0.3
	c-0.9,0.3-3.1,0.9-3.3,0.9c0-0.1-0.8-2.1-1.1-2.8c3.7-0.9,7.8-2.5,9.8-4.7c0.1,1,0.1,1.9-0.1,2.9C-4,377.8-4.7,378.5-5.5,379.1"/>
<path id="path3543" class="st4" d="M-12.2,382.3l0.8-0.2c0.7-0.2,1.5-0.4,2.3-0.6c-0.4,0.8-1,1.5-1.7,2c-0.9,0.1-1.7,0.1-2.6,0
	C-12.7,383-12.2,382.3-12.2,382.3"/>
<path id="path3545" class="st4" d="M-20,372.6c0.2-0.6,0.4-1.1,0.7-1.7c1.5-0.7,3.7-1.3,5.7-0.3l-2.7,1.8c-0.6,0-1.1-0.1-1.6-0.1
	c-0.3,0-0.5,0-0.7,0C-19.2,372.4-19.6,372.5-20,372.6"/>
<path id="path3547" class="st4" d="M-18.6,373.1c0.1,4.4,2.2,7.9,4,10c-2.8-1-5.1-3.4-5.6-6.6c-0.2-1.1-0.2-2.1,0-3.1
	C-19.8,373.3-19.3,373.1-18.6,373.1"/>
<path id="path3549" class="st4" d="M-10.3,368.5c-1.3-1.1-2.8-1.5-4.1-1.5c0.3-0.1,0.7-0.2,1.1-0.3c2-0.3,3.9,0,5.5,0.9
	C-8.7,367.8-9.5,368.1-10.3,368.5"/>
<path id="path3551" class="st4" d="M-16.4,373.1c0.6,1.3,1,2.2,1.3,2.9c0.1,0.2,0.2,0.4,0.3,0.7c0.2,0.4,0.6,1.5,0.6,1.5l0.3,0.7
	l1.2,3c-0.3,0.4-0.7,0.8-1.1,1.1c-1.8-2-4-5.4-4-9.9C-17.5,373-17,373-16.4,373.1"/>
<path id="path3553" class="st4" d="M-8.2,381.2c0.6-0.2,1.2-0.4,1.8-0.7c-0.2,0.6-0.5,1.2-0.8,1.7c-0.6,0.4-1.3,0.7-2.1,1
	C-8.9,382.6-8.5,382-8.2,381.2"/>
<path id="path3555" class="st4" d="M-5.6,380c0.4-0.2,0.8-0.5,1.1-0.8c-0.4,0.7-0.9,1.4-1.5,1.9C-5.8,380.8-5.7,380.4-5.6,380"/>
</svg>
