<?xml version="1.0" encoding="utf-8"?>
<!-- Generator: Adobe Illustrator 19.1.0, SVG Export Plug-In . SVG Version: 6.00 Build 0)  -->
<svg version="1.1"
	 id="svg4710" inkscape:output_extension="org.inkscape.output.svg.inkscape" sodipodi:version="0.32" xmlns:rdf="http://www.w3.org/1999/02/22-rdf-syntax-ns#" xmlns:sodipodi="http://sodipodi.sourceforge.net/DTD/sodipodi-0.dtd" xmlns:svg="http://www.w3.org/2000/svg" xmlns:cc="http://creativecommons.org/ns#" xmlns:inkscape="http://www.inkscape.org/namespaces/inkscape" xmlns:dc="http://purl.org/dc/elements/1.1/" sodipodi:docname="Internazionale.svg" inkscape:version="0.46"
	 xmlns="http://www.w3.org/2000/svg" xmlns:xlink="http://www.w3.org/1999/xlink" x="0px" y="0px"
	 viewBox="-132.1 287.4 333.6 333.6" style="enable-background:new -132.1 287.4 333.6 333.6;" xml:space="preserve">
<style type="text/css">
	.st0{fill:#7C744F;}
	.st1{fill:#07367C;}
	.st2{fill:#7D744C;}
	.st3{fill:#1B170B;}
	.st4{fill:#7D744D;}
	.st5{fill:#FFFFFF;}
</style>
<defs>
	
	
		<inkscape:perspective  inkscape:persp3d-origin="372.04724 : 350.78739 : 1" inkscape:vp_z="744.09448 : 526.18109 : 1" sodipodi:type="inkscape:persp3d" inkscape:vp_y="0 : 1000 : 0" inkscape:vp_x="0 : 526.18109 : 1" id="perspective4718">
		</inkscape:perspective>
</defs>
<sodipodi:namedview  inkscape:document-units="px" showgrid="true" gridtolerance="10000" borderopacity="1.0" inkscape:cy="241.26558" inkscape:cx="176.58471" id="base" objecttolerance="10" guidetolerance="10" pagecolor="#ffffff" bordercolor="#666666" inkscape:zoom="1.4" inkscape:window-height="940" inkscape:window-y="-4" inkscape:window-x="-4" inkscape:pageopacity="0.0" inkscape:window-width="1280" inkscape:current-layer="layer1" inkscape:pageshadow="2">
	<inkscape:grid  type="xygrid" visible="true" enabled="true" id="grid4731"></inkscape:grid>
</sodipodi:namedview>
<g id="layer1" inkscape:label="Layer 1" inkscape:groupmode="layer">
	
		<path id="path3190" sodipodi:ry="170.35715" sodipodi:rx="170.35715" sodipodi:type="arc" sodipodi:cy="339.64285" sodipodi:cx="578.92859" class="st0" d="
		M201.4,454.2c0,92.1-74.7,166.8-166.8,166.8s-166.8-74.7-166.8-166.8s74.7-166.8,166.8-166.8S201.4,362.1,201.4,454.2z"/>
	
		<path id="path3192" sodipodi:ry="170.35715" sodipodi:rx="170.35715" sodipodi:type="arc" sodipodi:cy="339.64285" sodipodi:cx="578.92859" class="st1" d="
		M188.9,454.2c0,84.5-69.1,153-154.3,153s-154.3-68.5-154.3-153s69.1-153,154.3-153S188.9,369.7,188.9,454.2z"/>
	
		<path id="path3194" sodipodi:ry="170.35715" sodipodi:rx="170.35715" sodipodi:type="arc" sodipodi:cy="339.64285" sodipodi:cx="578.92859" class="st2" d="
		M171.1,454.2c0,74.7-61.1,135.3-136.4,135.3S-101.8,529-101.8,454.2s61.1-135.3,136.4-135.3S171.1,379.5,171.1,454.2z"/>
	
		<path id="path3196" sodipodi:ry="170.35715" sodipodi:rx="170.35715" sodipodi:type="arc" sodipodi:cy="339.64285" sodipodi:cx="578.92859" class="st3" d="
		M163.2,454.2c0-70.4-57.5-127.5-128.5-127.5S-93.9,383.8-93.9,454.2s57.5,127.5,128.5,127.5S163.2,524.6,163.2,454.2z"/>
	
		<path id="path3198" sodipodi:ry="170.35715" sodipodi:rx="170.35715" sodipodi:type="arc" sodipodi:cy="339.64285" sodipodi:cx="578.92859" class="st4" d="
		M147.1,454.2c0-61.6-50.3-111.5-112.4-111.5S-77.8,392.6-77.8,454.2s50.3,111.5,112.4,111.5S147.1,515.8,147.1,454.2z"/>
	<path id="path3200" class="st5" d="M35.3,356.3c-54.5,0-98.8,43.9-98.8,98c0,50.3,38.2,91.7,87.4,97.3v-13
		c-42-5.5-74.5-41.1-74.5-84.3c0-47,38.4-85.1,85.8-85.1c34.1,0,63.5,19.7,77.4,48.3h14.2C112.2,381.6,76.7,356.3,35.3,356.3z
		 M119.5,470.7c-7.2,36.3-37.6,64.3-75.2,68.2v12.9c44.8-4,81.1-37.7,88.5-81.1H119.5z"/>
	<path id="rect3216" sodipodi:nodetypes="ccccccccccccccccccccccccccccccccccccc" class="st5" d="M17,346.1c0,0,8,4,9,8h16
		c1-4,10-8,10-8H17z M26,372.1v63h16v-63C42,372.1,35.2,370.7,26,372.1z M-4,388.1l0,2.8c1.8,0.2,2.2,1.1,2.2,1.1L-2,422.1l17,29h38
		v-14L15,437l0-33.9h9v-15H-4z M44,388.1v15l25.2-0.1c0,0,1.1,0.3,1,1.5h3v-16.4L44,388.1z M26,453.1v100.6c0,0-0.1,0-0.1,0
		c-1,4-9,8-9,8c0,0,35,0,35,0c0,0-8.7-4-9.9-7.8V453.1H26z"/>
	<path id="path4690" sodipodi:nodetypes="ccccccccsc" class="st5" d="M-39,492.1c1.8-1.7,2-4,2-4c2.8-19.7,5.4-74.6,5.4-74.6
		l-2.4-5.4c6.6-9.2,12.6-14.8,12.6-14.8c13.6,22,45.4,77.8,45.4,77.8v27l-39.2-60.5c0,0-4.8,47.6-4.8,78.5
		C-20,516.1-28,510.1-39,492.1z"/>
	<path id="path4692" sodipodi:nodetypes="ccccccccsc" class="st5" d="M109,493.1c-1.8-1.7-2.2-4.1-2.2-4.1
		c-2.8-19.7-6.2-75.4-6.2-75.4l4-5.5c-6.6-9-13.7-15.2-13.7-15.2C77.3,415,44,471.1,44,471.1v27l40.1-60.4c0,0,3.9,49.4,3.9,80.4
		C88,518.1,96.6,513.4,109,493.1z"/>
	<path id="path4703" sodipodi:nodetypes="cccscsc" class="st5" d="M-4,527.1c2-2,2-4,2-4v-61l17,26v41c0,3,2,6,2,6S5,533.1-4,527.1z
		"/>
</g>
</svg>
