<?xml version="1.0" encoding="utf-8"?>
<!-- Generator: Adobe Illustrator 19.1.0, SVG Export Plug-In . SVG Version: 6.00 Build 0)  -->
<svg version="1.1"
	 id="Layer_1" text-rendering="geometricPrecision" shape-rendering="geometricPrecision" image-rendering="optimizeQuality"
	 xmlns="http://www.w3.org/2000/svg" xmlns:xlink="http://www.w3.org/1999/xlink" x="0px" y="0px" viewBox="738 -1307 2088 3407"
	 style="enable-background:new 738 -1307 2088 3407;" xml:space="preserve">
<g id="Ebene_x0020_1">
	<path style="fill:#1F1A17;" d="M1782-1307c576.4,0,1043.9,762.9,1043.9,1703.5c0,940.7-467.5,1703.5-1043.9,1703.5
		c-576.4,0-1043.9-762.8-1043.9-1703.5C738.1-544.1,1205.6-1307,1782-1307z"/>
	<path style="fill:#FFFFFF;" d="M1782-1175.8c541.8,0,981.2,695.3,981.2,1552.6c0,857.3-439.4,1552.6-981.2,1552.6
		c-541.8,0-981.2-695.3-981.2-1552.6C800.8-480.5,1240.2-1175.8,1782-1175.8L1782-1175.8z"/>
	<path style="fill:#1F1A17;" d="M1782-1127c60.6,0,119.9,9.4,177.3,27.2V-553c-60.6-4.5-122.4-6.8-185.2-6.8
		c-57.4,0-113.9,2-169.4,5.7v-545.7C1662.1-1117.6,1721.3-1127,1782-1127L1782-1127z M2218.2-952.1
		c145.2,124.3,267.7,308.4,354.6,532v0.8c-104.1-40.7-218.7-73.7-340.9-97.5c-4.1-66.4-8.7-131.5-13.7-195.4L2218.2-952.1
		L2218.2-952.1z M991.2-426.2c83.6-212.7,199.5-389.3,336.5-512V-712c-5,63.9-9.6,129-13.7,195.3
		C1198.7-494.3,1090.4-463.7,991.2-426.2L991.2-426.2z"/>
	<path style="fill:#1F1A17;" d="M1297.8,159.1C1185,213.8,1079,287.2,982.1,376.3v657.3c84.6,223.5,207.4,408.5,354.7,534.3v-289.5
		c-25.3-307.3-39.4-645.9-39.4-1001.6C1297.3,237.4,1297.5,198.1,1297.8,159.1L1297.8,159.1z M1967.2,61.9
		c-60.6-10.6-122.4-16.1-185.2-16.1c-57.4,0-113.9,4.7-169.4,13.5v626.7c54-26.8,110.8-41.2,169.4-41.2
		c64.4,0,126.6,17.3,185.2,49.4V61.9L1967.2,61.9z M2581.9,376.3c-97-89.1-202.9-162.5-315.8-217.3c0.3,39.1,0.5,78.3,0.5,117.9
		c0,355.8-14.1,694.5-39.4,1001.8v302.5c145.2-118.5,267.7-294.2,354.6-507.5L2581.9,376.3L2581.9,376.3z"/>
	<path style="fill:#F5B400;" d="M1769-53.6c341.5,0,669.7,77.1,936.2,208.8c3.7,52.1,5.7,105,5.7,158.6c0,19.9-0.3,39.7-0.9,59.4
		C2442.6,144.2,2112.9,10,1769,10c-343.9,0-653.2,125.8-915.6,341.8c-0.2-12.6-0.3-25.3-0.3-38c0-58.1,2.3-115.3,6.7-171.6
		C1120.9,18.4,1427.5-53.6,1769-53.6L1769-53.6z"/>
	<path style="fill:#1F1A17;" d="M1976.5,1073.7H1782h-194.5c-45.8,0-83.4,33.9-83.4,75.4v129.6c0,186.7,66.1,293.5,277.8,469.6
		c211.7-176.2,277.8-282.9,277.8-469.6v-129.6C2059.8,1107.7,2022.3,1073.7,1976.5,1073.7L1976.5,1073.7z"/>
	<path style="fill:#FFFFFF;" d="M1653,1118.3c0,0,14.6,23.1,10.8,25.7c-5.9,3.8-25.1-8.3-25.1-8.3s12.7,27.4,19.9,38.3
		c2.9,4.3,9.7,7.4,11.7,13c8.2,21.8-18.2,55.4,6.6,70.5c8.2,5.1,18.6,2.3,27.9-2.4c0,0,2.9-1.7,4.6-0.8c4.5,2.3-0.6,13.5-1.3,15.2
		c-10.3,23.7-19.1,11.2-30.5,1.2c-23.1-20.3-24.8,8.4-32,11c-26.2,9.3-23.2-1.5-31.8,2.3c-5.4,2.3-6.3,13.3-7.8,18.6
		c-3.2,10.8-10.8,38.3,13,30c13.9-4.8,18.2-39.6,31.7-21.9c16.3,21.2-5.7,42.8,16.4,68c6.1,6.9,13.1,10.1,20.2,2.8
		c2.5-2.6,5.1-6.3,6.2-9.7c1.1-4,1.6-10.6-0.4-16.5c-4.5-13.1-15.7-13.7-11.8-31.8c4.9-1.1,5.5-1.4,10.4,1.3
		c8.4,4.7,20.9,7.5,27.7,14.2c11.1,10.8,20,23.1,34,30.7c4.2,9-5.5,20.5-8.6,25.5c-5.5,8.8-13,20.2-15.1,31
		c-4.1,20,15.1,40.6-6.8,47.6c-25.5,8-67.1,1.6-69.8,29.2c-0.5,5.1-1.7,13.6,2.3,18.5c3.2,3.9,12.2,7.2,17.8,7.2
		c21.4-0.2,2.4-23.2,19.5-28.6c8.4-2.6,18.2,3.1,25,3.6c7.5,0.6,17.1,0.1,23.6-0.1c25.7-0.8,29.8-11.2,42.5-19
		c16.6-10.4,31.4,18.3,37.3,29c4.6,8.8,16.8,12.8,20.4,22.5c3.9,10.6,4.2,26.8,3,35.7c-1.1,7.6-8.9,6.5-12.1,12.3
		c-5.1,9.4-7,49.1,8.6,54.4c12.3,4.1,33.6-10.3,29.3-21.6c-1.3-3.6-7.2-6.3-8-10.4c-5.2-26.8,40.3-49.5,41.5-55.9
		c2-10.2-15.1-8.7-11.4-30.3c2.6-15.8,18.8-26.4,26.3-39.2c4-6.8,2.5-19.6,7.4-25.7c4.1-5.1,11.3-6.9,14.4-12.7
		c17.2-31.9-2.7-81.6-15.4-117c-3.7-10.3-23.3-51.6-10.4-56.5c3.3-1.3,5.3,0.3,7.1,0.4c7.5,7.9,2.6,20,6.5,28.8
		c5.2,11.9,20.6,17.3,31.4,22.1c-1.1,0.9,2.3,0.4,2.4,0.4c-3.1-6.9-5.8-12.1-5.9-20.2c-0.3-22.6-3.6-40.4-18.1-50.5
		c-7.3-5.1-20-9-30.5-3.4c-42.9,22.4-0.6,92.4,10.3,129.7c4.9,16.4-6.6,26.1-20.1,20c-11-5-16.7-31.1-20.1-43.8
		c-13.5-50.6-32.2-141.9-55.7-168.4c-21.5-24.4-78.5-36-116.8-43c-6.1-1.1-16-2.4-22.1-4.9C1678,1134.7,1653,1118.3,1653,1118.3
		L1653,1118.3z"/>
	<path style="fill:#1F1A17;" d="M2521.3-63.7L2521.3-63.7L2521.3-63.7L2521.3-63.7z M2521.3-259.2l67.5,22.6v-5.9
		c0-13.9-0.6-25.9-1.8-36c-1.2-10-3-18.1-5.3-24.3c-2.3-6.2-5.9-12.3-10.7-18.5c-4.9-6.2-11.1-12.5-18.6-18.7l0,0
		c-10.7-8.9-23.1-16.5-37.2-22.8c-2.8-1.3-5.7-2.4-8.5-3.5c-2.8-1.1-5.8-2.2-8.8-3.2l-0.1,0l0,0c-13.9-4.7-26.3-7.1-37.1-7.3
		c-2,0-4.1,0-6.1,0.1c-1.9,0.1-3.8,0.3-5.7,0.6l-0.3,0v0c-6.4,1-11.8,3-16.4,5.7c-4.4,2.7-7.9,6.3-10.6,10.7v0
		c-2.8,4.5-4.9,11.2-6.4,19.8c-1.5,9-2.3,20.2-2.3,33.5c0,9.2,0.5,17.7,1.6,25.5v0c1.1,7.7,2.7,14.8,4.8,21.3v0
		c3.1,9.3,6.8,17.6,11,24.7c0.8,1.4,1.6,2.7,2.5,4v0c0.8,1.1,1.7,2.4,2.6,3.7l-4.5,3.6l4.6-3.5l0,0l0,0c3.3,4.4,8.4,10.5,15.4,18.3
		c7,7.9,15.8,17.3,26.3,28.4l0,0c10.7,11.2,19.4,20.6,26,28.1l0,0c6.8,7.8,11.7,13.9,14.5,18.2l0,0c2.6,4,4.6,9.2,6,15.4
		c0.2,1,0.5,2.2,0.7,3.7h0c1.4,7.5,2.1,16.7,2.1,27.4h0v0.3c0,7.4-0.8,13.5-2.5,18.1c-0.4,1-0.8,2-1.2,2.8h0
		c-0.4,0.8-0.9,1.7-1.5,2.5l0,0l-0.1,0.1l-4.7-3.4l4.6,3.4c-2.2,3.2-5.1,5.2-8.6,6c-3.1,0.7-6.6,0.5-10.4-0.8h0
		c-5-1.7-9.1-4.3-12-7.8v0c-0.6-0.7-1.2-1.4-1.7-2.2c-0.5-0.7-1-1.6-1.4-2.4l-0.1-0.1l0-0.1c-2.6-5.4-3.9-15.2-3.9-29.4v-38.9
		l-67.5-22.6v15.1c0,13.1,0.6,24.9,1.8,35.3c1.2,10.3,3,19.3,5.4,27.1l0,0c2.3,7.4,5.9,14.8,10.9,22c5,7.4,11.4,14.6,19.1,21.6h0
		c11.1,10.2,23.9,18.6,38.4,25.3c2.6,1.2,5.5,2.5,8.7,3.7c3,1.2,6.1,2.3,9,3.3v0l0.1,0l0,0c10,3.4,19.4,5.5,28,6.5
		c8.5,0.9,16.5,0.7,23.8-0.6c10-1.8,17.6-5.3,22.8-10.3l0,0c0.9-0.9,1.8-1.9,2.6-3v0c0.8-1.1,1.5-2.2,2.1-3.2l0-0.1l0.1-0.1l0,0
		c1.5-2.9,2.9-6.6,4-11.1c0.6-2.4,1.1-4.9,1.5-7.6c1.3-8.5,2-18.9,2-31.1h0v-0.4c0-17.1-1.2-32.1-3.6-45.1
		c-2.3-12.8-5.8-23.7-10.5-32.6c-4.7-9.1-12.9-20.5-24.5-34.1c-11.8-13.8-27.1-29.9-45.9-48.4c-6.7-6.6-12.2-12.5-16.4-17.6
		c-4.3-5.3-7.4-10-9-14c-1.4-3.3-2.5-7.1-3.3-11.2v-0.1l-0.4-2.2l0-0.1c-0.8-4.9-1.2-10.5-1.2-16.7v-0.3c0-7.3,0.8-13.1,2.3-17.4
		l0,0c0.4-1,0.7-1.9,1.1-2.7c0.5-0.9,1-1.8,1.5-2.5l0,0.1l0-0.1h0h0l0,0l0.1-0.1c2.1-3,4.8-4.9,8.1-5.7c3-0.7,6.3-0.5,9.8,0.7
		c3,1,5.7,2.5,7.9,4.3c2.3,1.9,4.2,4.3,5.6,7l0,0c1.1,2.2,2,5.2,2.5,8.8l0,0.1l0.3,1.9v0.1c0.5,4.2,0.8,9.5,0.8,15.8h0v0.5
		L2521.3-259.2L2521.3-259.2z M2377-167.9v-232.5l-75.4-19.4V-166c0,8.9-0.2,16.2-0.6,21.9c-0.4,6-1.1,10.4-2.1,13.1l0,0.1
		c-2,5.4-5.8,8.3-11.4,8.6h0c-0.9,0-1.9,0-2.9-0.1c-1-0.1-1.9-0.3-2.8-0.5l-0.1,0l-0.1,0c-3.3-0.9-6.1-2.4-8.5-4.5h0
		c-2.3-2.1-4-4.9-5.1-8.2h0c-1-2.8-1.7-7-2.1-12.6c-0.4-5.3-0.6-11.8-0.6-19.7v-261.4l-75.3-19.4v202.3h0c0,19.9,0.2,36.5,0.5,49.7
		c0.3,12.9,0.8,22.6,1.5,29v0c0.6,5.9,2,11.9,4.1,18c2.1,6.2,5,12.4,8.5,18.7l0,0c3.5,6.1,8,12.1,13.4,17.8
		c5.4,5.7,11.8,11.2,19.2,16.5v0c10.4,7.5,22.1,13.6,35.1,18.3c2.5,0.9,5.1,1.8,7.7,2.6c2.6,0.8,5.3,1.6,8,2.3l0.1,0
		c12.2,3.1,23.3,4.6,33.1,4.3c1.9-0.1,3.8-0.2,5.6-0.4c1.7-0.2,3.5-0.4,5.3-0.8v0l0.5-0.1c6-1.1,11.4-3,16.3-5.7
		c4.7-2.6,8.9-6.1,12.6-10.2l0,0c3.7-4.3,6.7-8.7,8.9-13.2c2.2-4.4,3.6-9,4.4-13.6c0.6-4.1,1.1-9.6,1.5-16.4l0.2-4.3
		c0.4-9.1,0.6-20.2,0.6-33.1h0L2377-167.9L2377-167.9z M2157.8-390v-59.1l-182.1-26.4v59.1l47.5,6.9l4.9,0.7v5.1v278.6l77.1,11.2
		v-277v-6.8l6.5,0.9L2157.8-390L2157.8-390z M1943.6-130.7v-342.9l-63.3-2.3v153.6l-11.2,1.8l-48.9-157.6l-64.8-2.3v342.9l63.3,2.3
		v-155.1l11.2-1.7l45.4,158.8L1943.6-130.7L1943.6-130.7z M1712-479.4l-137.4,9.9v342.9l143.3-10.3V-196l-59.4,4.3l-6.1,0.4v-6.3
		v-78v-5.5l5.4-0.4l50.4-3.6v-55.7l-49.6,3.6l-6.1,0.4v-6.3v-67.2v-5.5l5.4-0.4l54.2-3.9L1712-479.4L1712-479.4z M1504.6-121.2
		l43.3-350.6l-81,14.7l-5.7,62.6v0c-3.6,38.3-7.1,80.9-10.5,127.6l-2,27.6l-1.9,28.5l0,0.6l-11.4,0c-3.3-47.8-8.2-103.1-14.6-165.7
		c-1.2-11.6-2.5-24.1-3.9-37.5c-1.2-10.7-2.4-22-3.7-33.8l-81.4,14.8l49.1,333.8L1504.6-121.2L1504.6-121.2z M1254.5-74.8
		L1254.5-74.8L1254.5-74.8L1254.5-74.8L1254.5-74.8z M1301-200.7V-430l-74.6,22.1V-151c0,8.8-0.2,16.2-0.6,22.2
		c-0.4,6.2-1.1,10.8-1.9,13.8l0,0.1c-1.6,5.1-4.5,9-8.8,11.7l0,0c-0.9,0.5-1.7,1-2.6,1.4c-0.9,0.4-1.8,0.7-2.8,1l-0.1,0l-0.1,0
		c-3.6,1.1-6.8,1-9.6,0c-3.1-1.2-5.4-3.6-6.8-7.1l0,0c-1-2.5-1.8-6.5-2.2-11.8c-0.4-5-0.6-11.5-0.6-19.4v-258.1l-74.5,22v205.4h0
		c0,19.9,0.2,36.4,0.5,49.5c0.3,12.7,0.8,22.1,1.5,28.1v0.1c0.6,5.5,1.9,10.6,3.9,15.3c2,4.7,4.7,9.1,8.1,13.2h0
		c3.2,3.9,7.4,7.1,12.3,9.6c5.1,2.6,11.2,4.6,18.2,5.7c10.1,1.7,21.4,1.4,33.9-0.9c2.3-0.4,4.9-1,7.6-1.6c2.5-0.6,5.1-1.3,7.9-2.1h0
		l0.4-0.1v0c12.3-3.6,23.5-8.4,33.5-14.3h0c1.9-1.1,3.9-2.3,5.7-3.5c1.9-1.2,3.6-2.5,5.4-3.8l0,0l0.1-0.1l3.4,4.8l-3.3-4.8
		c6.2-4.7,11.9-9.8,16.9-15.4c5-5.6,9.5-11.7,13.3-18.3c3.8-6.6,6.9-12.9,9.2-18.9c2.2-5.9,3.8-11.4,4.5-16.7h0
		c0.6-4.6,1.2-10.4,1.5-17.4l0.2-4.4c0.4-9.4,0.6-20.5,0.6-33.4h0V-200.7L1301-200.7z M1072.6-133.4v-228.7l-72.7,27.3v245.4h0
		c0,6.2-0.1,11.8-0.2,17.1c-0.1,4.9-0.3,8.6-0.6,11c-0.3,3.1-1.1,6-2.3,8.9c-1.2,2.7-2.8,5.5-4.9,8.1v0c-2.1,2.7-4.5,5.1-7.4,7.1
		c-2.8,2-5.9,3.7-9.3,5c-1.6,0.6-4.1,1.4-7.2,2.4v49.1l34.4-12.9c13.1-4.9,23.8-9.7,32.1-14.4l0,0c1.7-0.9,3.2-1.8,4.5-2.7
		c1.4-0.9,2.6-1.7,3.7-2.5l0,0l0,0l0.2-0.1c6.1-4.4,11.3-9.6,15.6-15.6h0c0.8-1.1,1.6-2.3,2.4-3.6v0c0.9-1.4,1.6-2.7,2.2-3.8l0-0.1
		c3.5-6.6,5.9-13.3,7.3-20l0,0c0.3-1.4,0.5-2.8,0.7-4c0.2-1.3,0.3-2.6,0.4-3.9v-0.1h0l0-0.5v0c0.3-5.2,0.6-13.5,0.8-24.7
		C1072.6-100,1072.6-114.6,1072.6-133.4L1072.6-133.4z"/>
	<path style="fill:#1F1A17;" d="M1955,976c0.7-3.2,11.1-20.5,23.3-41.9c31.2-54.7,74.4-136.6-2.9-80.7
		c-20.4,14.7-33.3,37.4-57.3,29.9l0,0c-23.9-7.5-37.9-33.4-29.9-57.2c21.1-62.6-51.9-54.5-53-5.5c-1.3,61.3-105.3,61.3-106.6,0
		c-1-48.9-74-57.1-53,5.5c8,23.8-5.9,49.7-29.9,57.2l0,0c-24,7.5-36.9-15.2-57.3-29.9c-107.5-77.8,18.1,111.2,20.4,122.6
		C1702.5,948,1811.2,938.6,1955,976L1955,976z"/>
</g>
</svg>
