<?xml version="1.0" encoding="utf-8"?>
<!-- Generator: Adobe Illustrator 19.1.0, SVG Export Plug-In . SVG Version: 6.00 Build 0)  -->
<svg version="1.1" id="Layer_1" xmlns="http://www.w3.org/2000/svg" xmlns:xlink="http://www.w3.org/1999/xlink" x="0px" y="0px"
	 viewBox="-200 308.1 174.7 177" style="enable-background:new -200 308.1 174.7 177;" xml:space="preserve">
<style type="text/css">
	.st0{fill:#FFF22D;}
	.st1{fill:#FADE2F;}
	.st2{fill:#FBE02F;}
	.st3{fill:#FCE22F;}
	.st4{fill:#C23227;}
	.st5{fill:#FDE62F;}
</style>
<g>
	<path d="M-104,477.9c-0.7,2.1-3,7.2-8.4,7.2c-6.2,0-8.3-6.7-8.5-7l-0.2-0.6c0,0,5.3,0.4,8.3,0.4s8-0.3,8.8-0.4L-104,477.9
		L-104,477.9z"/>
	<path d="M-87.7,474.6l1.3,0.2c-1.5,4-4.2,8.4-9.6,8.4c-5.2,0-7.7-3-8.8-5l-0.9-0.5C-105.8,477.6-96.8,477.3-87.7,474.6L-87.7,474.6
		z"/>
	<path d="M-136.8,474.6l-1.3,0.2c1.5,4,4.2,8.4,9.6,8.4c5.2,0,8-3.2,9.1-5l0.6-0.5C-118.8,477.6-127.7,477.3-136.8,474.6
		L-136.8,474.6z"/>
	<path class="st0" d="M-108,478.4c-0.8,1.2-1.4,1.2-2.4,1.2c-0.5,0-1.3,0.4-1.2,1.2c0,0.6,0.5,1.1,1.3,1.1c1.8,0,3.2-2.6,3.6-3.6
		c0,0,1.1,0,1.4-0.1c0,0-1.9,5.8-7,5.8c-5,0-7.1-5.7-7.1-5.7s4.2,0.3,6.7,0.3S-108.7,478.4-108,478.4L-108,478.4z"/>
	<path class="st0" d="M-88.4,475.8c-3.3,0.9-5.6,1.6-11.1,2.3c0,0,0.2,0.6,1.4,0.5c0.5,0,0.5-0.1,0.7-0.2c0.3-0.1,0.9,0.3,0.8,0.9
		c0,0.4-0.4,0.9-1.6,0.9s-2.6-1-3.4-1.9c0,0-0.7,0.2-1.5,0.2c0,0,2.3,3.3,7,3.3C-91.1,481.8-89.2,477.3-88.4,475.8L-88.4,475.8z"/>
	<path class="st1" d="M-91.8,479c0-0.8-0.2-1.5-0.7-2.1c-1.8,0.4-3.8,0.8-6.8,1.2c0,0.1,0,0.2-0.1,0.3c0.2,0.1,0.5,0.3,1.2,0.3
		c0.5,0,0.5-0.1,0.7-0.2c0.3-0.1,0.9,0.3,0.8,0.9c0,0.4-0.4,0.9-1.6,0.9c-0.3,0-0.6-0.1-1-0.2c0.2,0.6,0.4,1.1,0.8,1.5
		c0.7,0.2,1.4,0.3,2.3,0.3c1.6,0,2.9-0.5,4-1.2C-91.9,480.2-91.8,479.6-91.8,479L-91.8,479z"/>
	<path class="st2" d="M-91.9,479c0-0.8-0.2-1.5-0.7-2.1c-1.8,0.4-3.8,0.8-6.7,1.2c0,0.1-0.1,0.2-0.1,0.3c0.2,0.1,0.5,0.3,1.1,0.2
		c0.5,0,0.5-0.1,0.7-0.2c0.3-0.1,0.9,0.3,0.8,0.9c0,0.4-0.4,0.9-1.6,0.9c-0.3,0-0.6-0.1-0.9-0.2c0.2,0.6,0.5,1.1,0.8,1.5
		c0.7,0.2,1.4,0.3,2.2,0.3c1.6,0,2.9-0.4,3.9-1.1C-92,480.2-91.9,479.6-91.9,479L-91.9,479z"/>
	<path class="st3" d="M-91.9,479c0-0.8-0.2-1.5-0.7-2.1c-1.7,0.4-3.7,0.8-6.6,1.1c0,0.1-0.1,0.2-0.1,0.3c0.2,0.1,0.5,0.2,1.1,0.2
		c0.5,0,0.5-0.1,0.7-0.2c0.3-0.1,0.9,0.3,0.8,0.9c0,0.4-0.4,0.9-1.6,0.9c-0.3,0-0.6-0.1-0.8-0.1c0.2,0.6,0.5,1.1,0.9,1.5
		c0.6,0.1,1.3,0.2,2.1,0.2c1.5,0,2.8-0.4,3.8-1C-92.1,480.3-91.9,479.7-91.9,479L-91.9,479z"/>
	<path class="st0" d="M-136.2,475.8c3.3,0.9,5.6,1.6,11.1,2.3c0,0-0.2,0.6-1.4,0.5c-0.5,0-0.5-0.1-0.7-0.2c-0.3-0.1-0.9,0.3-0.8,0.9
		c0,0.4,0.4,0.9,1.6,0.9s2.6-1,3.4-1.9c0,0,0.7,0.2,1.5,0.2c0,0-2.3,3.3-7,3.3C-133.5,481.8-135.4,477.3-136.2,475.8L-136.2,475.8z"
		/>
	<path class="st0" d="M-112.8,448.7c17.6,0,37-10.8,50.6-26.3c1.5-1.7,4-4.9,9.9-4.9c5.9,0,13.8,5.4,12.9,15.3
		c-0.7,7.2-10.9,23.4-28.5,33.3s-33.7,12.1-45,12.1s-27.4-2.1-45-12.1c-17.6-10-27.8-26.2-28.5-33.3c-0.9-9.8,7-15.3,12.9-15.3
		c5.9,0,8.4,3.2,9.9,4.9C-149.8,438-130.3,448.7-112.8,448.7L-112.8,448.7z"/>
	<path d="M-112.8,448.1c8.5,0,17.5-2.6,26-7c8.9-4.6,17.3-11.2,24.2-19.1c0.8-0.9,1.8-2.1,3.4-3.2c1.6-1.1,3.9-1.9,7-1.9
		c0.3,0,0.7,0,1,0.1c2.9,0.3,6,1.7,8.4,4.1c2.4,2.4,4.1,5.8,4.1,10.2c0,0.5,0,1.1-0.1,1.6c-0.4,4.1-3.8,11.1-9.9,18.2
		c-4.8,5.6-11.1,11.2-18.9,15.6c-8.8,5-17.3,8.1-25,9.9c-7.7,1.8-14.6,2.3-20.3,2.3c-5.7,0-12.6-0.5-20.3-2.3
		c-7.7-1.8-16.2-4.8-25-9.9c-7.8-4.4-14.2-10.1-18.9-15.6c-6.1-7.1-9.5-14-9.9-18.2c-0.1-0.6-0.1-1.1-0.1-1.6
		c0-4.4,1.7-7.8,4.1-10.2c2.4-2.4,5.6-3.8,8.4-4.1c0.4,0,0.7-0.1,1-0.1c3.1,0,5.3,0.8,7,1.9c1.6,1.1,2.7,2.3,3.4,3.2
		c6.9,7.9,15.3,14.5,24.2,19.1C-130.3,445.5-121.3,448.1-112.8,448.1L-112.8,448.1z M-112.8,449.4c-8.7,0-17.9-2.6-26.6-7.1
		c-9-4.7-17.5-11.4-24.5-19.4c-0.7-0.8-1.7-2-3.2-2.9c-1.5-0.9-3.5-1.7-6.3-1.7c-0.3,0-0.6,0-0.9,0c-2.6,0.2-5.4,1.5-7.7,3.7
		c-2.2,2.2-3.8,5.3-3.8,9.3c0,0.5,0,1,0.1,1.5c0.4,3.9,3.7,10.6,9.6,17.5c4.7,5.5,10.9,11,18.6,15.4c8.7,5,17.1,8,24.7,9.7
		c7.6,1.8,14.4,2.3,20,2.3s12.4-0.5,20-2.3c7.6-1.8,16-4.8,24.7-9.7c7.7-4.4,13.9-9.9,18.6-15.4c5.9-6.9,9.2-13.6,9.6-17.5
		c0-0.5,0.1-1,0.1-1.5c0-4-1.6-7.1-3.8-9.3c-2.2-2.2-5.1-3.5-7.7-3.7c-0.3,0-0.6,0-0.9,0c-2.8,0-4.8,0.8-6.3,1.7
		c-1.5,1-2.4,2.1-3.2,2.9c-7,8-15.5,14.7-24.5,19.4C-94.9,446.8-104.1,449.4-112.8,449.4L-112.8,449.4z"/>
	<path class="st4" d="M-165.4,424l-0.2-0.2c-1.4-1.6-3.3-3.8-7.9-3.8c-2.7,0-5.7,1.4-7.7,3.6c-1.5,1.6-3.2,4.5-2.8,9
		c0.6,6,10.2,21.7,27.3,31.4c13.8,7.8,28.5,11.8,43.8,11.8s30-4,43.8-11.8c17.1-9.7,26.7-25.4,27.3-31.4c0.4-4.4-1.3-7.3-2.8-9
		c-2-2.2-5-3.6-7.7-3.6c-4.6,0-6.5,2.2-7.9,3.8l-0.2,0.2c-14.7,16.7-34.8,27.1-52.5,27.1C-130.6,451.1-150.7,440.7-165.4,424
		L-165.4,424z"/>
	<path class="st0" d="M-56.4,404.2c0-8.4,6.8-15.2,15.2-15.2s15.2,6.8,15.2,15.2c0,8.4-6.8,15.2-15.2,15.2S-56.4,412.7-56.4,404.2
		L-56.4,404.2z"/>
	<path d="M-57,404.2c0-4.4,1.8-8.4,4.7-11.2c2.9-2.9,6.8-4.7,11.2-4.7s8.4,1.8,11.2,4.7c2.9,2.9,4.6,6.8,4.6,11.2
		c0,4.4-1.8,8.4-4.6,11.2s-6.8,4.6-11.2,4.6s-8.4-1.8-11.2-4.6C-55.3,412.6-57,408.6-57,404.2L-57,404.2z M-55.8,404.2
		c0,4,1.6,7.7,4.3,10.3s6.3,4.3,10.3,4.3s7.7-1.6,10.3-4.3c2.6-2.6,4.3-6.3,4.3-10.3c0-4-1.6-7.7-4.3-10.3
		c-2.6-2.6-6.3-4.3-10.3-4.3s-7.7,1.6-10.3,4.3C-54.1,396.5-55.8,400.2-55.8,404.2L-55.8,404.2z"/>
	<path class="st0" d="M-199.3,404.3c0-8.4,6.8-15.2,15.2-15.2c8.4,0,15.2,6.8,15.2,15.2c0,8.4-6.8,15.2-15.2,15.2
		C-192.5,419.5-199.3,412.7-199.3,404.3L-199.3,404.3z"/>
	<path d="M-200,404.3c0-4.4,1.8-8.4,4.7-11.2c2.9-2.9,6.8-4.7,11.2-4.7c4.4,0,8.4,1.8,11.2,4.7c2.9,2.9,4.6,6.8,4.6,11.2
		c0,4.4-1.8,8.4-4.6,11.2c-2.9,2.9-6.8,4.7-11.2,4.7c-4.4,0-8.4-1.8-11.2-4.7C-198.2,412.6-200,408.6-200,404.3L-200,404.3z
		 M-198.7,404.3c0,4,1.6,7.7,4.3,10.3s6.3,4.3,10.3,4.3c4,0,7.7-1.6,10.3-4.3c2.6-2.6,4.3-6.3,4.3-10.3c0-4-1.6-7.7-4.3-10.3
		c-2.6-2.6-6.3-4.3-10.3-4.3s-7.7,1.6-10.3,4.3C-197.1,396.6-198.7,400.2-198.7,404.3L-198.7,404.3z"/>
	<path d="M-37,363.2l0.1-4.1c1.2,0.9,3.6,1,5-0.5c0.6-0.7,1-1.7,0.9-2.8c-0.1-1.2-0.6-2.5-1.5-3.4c-5.1-5-9.7-10-9.7-10
		c-0.5-0.7-1.2-1.3-1.6-1.5c-0.6-0.3-2.9-1.3-4.6,1.3c-1.5,2.3-1.3,5.6-1,6.8l4.8,6.5C-42.9,357.8-38.3,362.2-37,363.2L-37,363.2z"
		/>
	<path d="M-139.6,320.8c6.1-2,11.6-3.7,19-4.4L-139.6,320.8L-139.6,320.8z"/>
	<path d="M-139.6,320.8c6.1-2,11.6-3.7,19-4.4l1.1-0.6c-4.2-3.3-8.3-5.5-12.4-5.5c-2.6,0-7.8,1.8-9,11L-139.6,320.8L-139.6,320.8z"
		/>
	<path d="M-85.9,320.8c-6.1-2-11.6-3.7-19-4.4l-1.1-0.6c4.2-3.3,8.3-5.5,12.4-5.5c2.6,0,7.8,1.8,9,11L-85.9,320.8L-85.9,320.8z"/>
	<path d="M-117.7,315.5c1.2-0.1,4.1-0.1,5.2-0.1c1.1,0,4.3,0.1,5,0.2L-117.7,315.5L-117.7,315.5z"/>
	<path d="M-119.6,316.1c3-5.8,5.8-8,7.4-8c1.9,0,4.2,3.1,6,7l0.4,0.9l-1.5-0.1c-1-0.2-4-0.2-5.1-0.2c-1.1,0-3.6,0-5.1,0.1
		L-119.6,316.1L-119.6,316.1z"/>
	<polygon class="st0" points="-125.6,454.3 -128.3,464.5 -133.4,452.2 -136.5,451.4 -140.4,465.8 -137,466.7 -134.2,456.4 
		-129.1,468.8 -126,469.6 -122.1,455.2 	"/>
	<polygon class="st0" points="-113.7,456.1 -117.6,455.9 -118.4,470.8 -114.5,471 	"/>
	<polygon class="st0" points="-110.2,456 -109.9,458 -105.8,457.4 -104,470.2 -100.1,469.6 -101.9,456.8 -97.8,456.3 -98.1,454.3 	
		"/>
	<path class="st0" d="M-69.9,449.9c1.9,3.3,1.5,5.7-1.4,7.4l-1.4,0.8l-5.5-9.5l1.5-0.9C-73.2,445.8-71.2,447.6-69.9,449.9
		L-69.9,449.9z M-77.5,446l-5,2.9l7.5,12.9l5-2.9c5.2-3,5.7-7.6,3.6-11.2C-68.9,443.5-72.9,443.4-77.5,446L-77.5,446z"/>
	<polygon class="st0" points="-87,464.3 -88.4,459.8 -84,458.3 -84.6,456.4 -89.1,457.9 -90.3,453.9 -85.8,452.5 -86.4,450.6 
		-94.7,453.3 -90.1,467.4 -81,464.5 -81.6,462.6 	"/>
	<path class="st0" d="M-143.6,447.9l-4.4,8c-1.3,2.4-2.7,3.9-4.9,2.6c-2.2-1.2-1.7-3.1-0.3-5.5l4.4-8l-3.6-2l-4.7,8.4
		c-2.6,4.6,0.7,7.5,3.2,8.9c2.7,1.5,6.6,2.6,9.2-2l4.7-8.5L-143.6,447.9L-143.6,447.9z"/>
	<path class="st0" d="M-146.1,360.5v69.7l33.3,21.4l33.3-21.4l0-69.6c-1.1-0.9-3.3-3-5-4.1h-56.9
		C-142.7,357.5-145.6,359.9-146.1,360.5L-146.1,360.5z"/>
	<polygon points="-145.5,360.5 -145.5,429.8 -112.8,450.9 -80.1,429.8 -80,360.6 -78.8,360.6 -78.8,430.2 -78.8,430.5 -79.1,430.7 
		-112.4,452.1 -112.8,452.4 -113.1,452.1 -146.5,430.7 -146.8,430.5 -146.8,360.5 	"/>
	<path d="M-79.8,361.1c-0.3-0.3-0.1-0.1-0.4-0.4h0c-1.1-1-3-2.8-4.5-3.7l0.7-1.1c1.6,1,3.6,2.8,4.7,3.8h0c0,0-0.1-0.1,0.4,0.4
		L-79.8,361.1L-79.8,361.1z"/>
	<polygon points="-84.4,357.1 -141.3,357.1 -141.3,355.9 -84.4,355.9 	"/>
	<path d="M-140.9,357c-0.7,0.5-1.6,1.2-2.5,2c-1,0.8-2,1.7-2.2,1.9l-0.9-0.9c0.3-0.3,1.3-1.2,2.3-2c0.9-0.8,1.9-1.6,2.6-2
		L-140.9,357L-140.9,357z"/>
	<path class="st4" d="M-110.4,390.3c-0.2-0.1-1.1,0.6-1.4,1.2c-0.4,0.6-0.5,1.4,0,1.7c0.5,0.3,1.2-0.1,1.4-1
		C-110.4,391.5-110.2,390.4-110.4,390.3L-110.4,390.3z M-116.8,392.1c0.1,0.9,0.8,1.3,1.4,1c0.5-0.3,0.4-1.1,0-1.7
		c-0.4-0.6-1.2-1.3-1.4-1.2C-117,390.4-116.9,391.6-116.8,392.1L-116.8,392.1z M-113.5,401.4c1.1-1.8,1.6-3.7,1.6-3.7h-3.2
		C-115.1,397.6-114.6,399.6-113.5,401.4L-113.5,401.4z M-112.9,387.6l2.6-4.5l2,4.5h3.3c-2,1.9-2.8,4.8-2.8,6.7v2.1
		c0,0.9-0.4,2.3-0.4,2.3s2.9,2.2,3.3,2.6c0.2,0.2,0.4,0.2,0.3,0.6c-0.2,0.7-2.2,1.5-2.4,1.7c-0.4,0.4-0.6,0.6-0.4,1
		c0.1,0.4,0.5,0.4,1.3,0.2c0.8-0.3,2.3-1.1,3.7-1.6c1.3-0.6,3.1-0.4,3.1-0.4v-2.5h-5v-8.1l-0.9-1.4l2.2-3.9l2.2,3.9l-0.9,1.4v4.2
		h2.6v-4.2l-0.9-1.4l2.2-3.9l2.2,3.9l-0.9,1.4v4.2h2.6v-4.2l-0.9-1.4l2.2-3.9l2.2,3.9l-0.9,1.4l0,8.1l-5,0v3.7
		c1.1,1.1,2.2,3.5,2.2,4.9c0,1.5-0.9,2.1-0.9,2.1c0.3,1.1,0.3,1.6,0.1,2.7c-0.1,1.1-1.5,2.7-1.5,2.7v19.2c0,1.3-3,1.2-3,0.1v-18.9
		c-1.7-1.9-6.4-3.3-6.4-3.3c-1.7,1.7-2.8,4.7-2.8,4.7c0.8,0.5,1.9,0,2.3-0.5c0.4-0.5,1.3-0.6,1.8-0.3c0.5,0.3,0.6,0.4,0.4,1.2
		c-0.2,0.8-0.5,2-0.5,2.9c0,0.9,1,0.7,1.8,0.8c1.5,0.1,1.8,1.8,1.6,2.8c-0.1,0.9-0.6,3-0.6,4.2c0,1.3,0.1,2.5,0.2,3.2
		c0.1,0.7,0.4,1.5,0.3,2.3c-0.1,1.2-0.8,1.4-1.6,0.6c-0.8-0.8-11.3-12-11.3-12c-0.7,2.3,2.2,6.2,3.2,7.4c0.9,1.2,0.9,2.1,0.1,2.9
		c-0.8,0.8-2.4,1.3-2.7,2c-0.3,0.8,0.8,3,3,5.9c2.2,2.8-2.5,4.7-5.4,5.3c-2.8,0.6-2.8-1.4-2.7-2.5c0.2-1.1,0.2-1.7,0.1-2.7
		c-0.1-0.9-0.9-2.3-2.1-3.9c-1.2-1.6-1.2-3-0.7-6.7c0.5-3.7,0.4-6,0.4-6s-1.3,0.1-3.1,0c-1.8-0.1-3.3-1.1-3.5-5.5
		c-0.1-4.4-0.2-15-0.5-16.1c-0.3-1.1-1.5-1.3-2-1.4c-0.5-0.1-0.5-0.9,0-1.1c1.3-0.7,2.9-2.3,2.3-3.3c-0.6-1-2.9-0.8-4.5,0
		c-1.6,0.8-3.2,2.4-3.6,2.9c-0.4,0.5-0.8,0.5-0.7,0c0-0.5-0.3-2.9-0.5-3.7c-0.2-0.8-1-2.4-1.2-2.9c-0.3-0.4,0-0.6,0.4-0.4
		c0.4,0.2,1.3,0.5,2.2,0.8s1.7-0.2,2.1-1c0.4-0.8,1.2-2.7,1.6-3.5c0.4-0.8,1.1-0.6,1.6-0.5c0.5,0.1,1.1,0.5,1.6,0.7
		c0.5,0.2,0.9,0.2,1.1-0.1c0.2-0.3,0.4-0.3,0.7-1c0.3-0.6,0.7-0.3,0.7-0.1c1.5,9.1,5.4,9.5,5.4,9.5c-0.6,1.5-2,3.9-2.3,4.5
		c-0.3,0.6-0.5,1.4-0.5,2c-0.1,0.6,0.2,6.6,0.6,8.8c0.4,2.2,1.8,1.3,2.2,0.7c0.4-0.7,1.7-3.5,1.7-3.5s0.3-0.8,0.3-1.4
		c0-0.6-1.1-2-1.3-2.4c-0.3-0.4-1.2-1.3-1.2-3.4c0-2.1,1.9-3.6,2.6-4.1c0.7-0.5,0.7-1.3,0.6-1.8c-0.3-1.6-2-5.1-2.9-6.4
		c-0.8-1.3-2.5-3.8-2.5-3.8h3.4l2.2-4.5l2.4,4.6L-112.9,387.6L-112.9,387.6z M-99.5,410.5v-2.6c0,0-0.7-1.1-2.4-1.1
		c-1.7,0-2.7,0.5-2.7,0.9C-104.6,408.5-103.1,410.5-99.5,410.5L-99.5,410.5z"/>
	<polygon class="st4" points="-143.5,377.9 -82,377.9 -82,382.1 -143.5,382.1 	"/>
	<polygon class="st4" points="-143.5,375.7 -143.5,359 -82,359 -82,375.7 	"/>
	<polygon class="st0" points="-94.1,376.2 -94.1,373.4 -98.6,373.4 -98.6,371.5 -94.9,371.5 -94.9,363.4 -98.3,363.4 -99.4,361.2 
		-100.6,363.4 -103.9,363.4 -103.9,371.5 -100.3,371.5 -100.3,373.4 -109,373.4 -109,371.5 -105.4,371.5 -105.4,363.4 -108.7,363.4 
		-109.8,361.2 -111,363.4 -114.3,363.4 -114.3,371.5 -110.7,371.5 -110.7,373.4 -119.6,373.4 -119.6,371.5 -116,371.5 -116,363.4 
		-119.3,363.4 -120.4,361.2 -121.6,363.4 -124.9,363.4 -124.9,371.5 -121.3,371.5 -121.3,373.4 -128.3,373.4 -135.4,371.7 
		-133.9,376.2 	"/>
	<polygon class="st0" points="-132.9,371.4 -128.2,372.5 -125.7,365.4 -125.7,363.6 	"/>
	<path class="st0" d="M-121.6,315.9c-7.3,0.6-11.8,2.2-17.7,4.2c0.4-2.6,1-4.1,2.1-5.6c-0.1,1.3,1,2.7,3.1,2.7c2.1,0,3.3-1.2,3.3-2
		c0-0.7-0.5-1.8-1.6-1.8c-1.2,0-1.4,0.8-1.3,1.2c0.1,0.3-0.2,0.4-0.5,0.5c-0.3,0.1-1.2-0.4-0.9-1.6c0.4-1.3,1.9-2,3.7-2
		C-131.4,311.6-127,311.4-121.6,315.9L-121.6,315.9z"/>
	<path class="st0" d="M-86.2,320.2c-5.9-2-10.6-3.5-17.9-4.2c3.4-2.3,6.5-4.3,9.9-4.3c1.8,0,3.3,0.7,3.7,2c0.3,1.2-0.6,1.6-0.9,1.6
		c-0.3-0.1-0.6-0.2-0.5-0.5c0.1-0.3-0.2-1.2-1.3-1.2s-1.6,1.1-1.6,1.8c0,0.7,1.2,2,3.3,2s3.2-1.4,3.1-2.7
		C-87.3,316.1-86.6,317.6-86.2,320.2L-86.2,320.2z"/>
	<path class="st0" d="M-117.1,314.6c-0.2,0.3-0.4,0.5-0.6,0.9c1.2-0.1,4-0.1,5.1-0.1c1.1,0,4.2,0.1,4.9,0.2c-1.1-2.5-3.1-6-4.6-6
		c-0.3,0-0.9-0.1-2.1,1.2c0,0-0.2,0.6,0.6,0.5c0.9-0.1,1.3,0.8,1.2,1.3c-0.2,1.1-1.5,2.2-2.8,2.2
		C-116.7,314.8-117.1,314.6-117.1,314.6L-117.1,314.6z"/>
	<path d="M-180.7,355.7l4.8-6.5c0.3-1.2,0.5-4.5-1-6.8c-1.7-2.6-3.9-1.6-4.6-1.3c-0.4,0.2-1.2,0.7-1.6,1.5c0,0-4.6,5.1-9.7,10.1
		c-0.7,0.7-1.5,2-1.6,3.2c-0.1,1.1,0.4,2.2,1,2.8c1.4,1.5,3.8,1.4,5.1,0.5l0.1,4.1C-186.9,362.2-182.3,357.8-180.7,355.7
		L-180.7,355.7z"/>
	<path class="st0" d="M-112.8,346.1c27.4,0,43.1,25.8,46.5,30.3c6.1,8.1,13.5,14.6,22.1,12.5c12.6-3.2,12-21.9,12-21.9
		c-3-2.2-8.2-4.9-17.7-18.4c-9.3-13.1-30.2-32.6-62.8-32.6c-32.6,0-53.5,19.5-62.8,32.6c-9.5,13.4-14.6,16.2-17.7,18.4
		c0,0-0.7,18.7,12,21.9c8.6,2.2,16-4.4,22.1-12.5C-155.9,371.9-140.2,346.1-112.8,346.1L-112.8,346.1z"/>
	<path d="M-112.8,345.5c25.5,0,40.9,21.9,45.9,29c0.5,0.6,0.8,1.2,1.1,1.5c3,4,6.3,7.6,9.9,9.9c3.5,2.3,7.4,3.3,11.5,2.3
		c11.2-2.8,11.5-18.6,11.5-21c-0.2-0.2-0.5-0.4-0.8-0.5c-3.2-2.2-8.3-5.7-16.8-17.8c-5.3-7.5-14.5-17.2-27.6-24
		c-9.5-4.9-21.1-8.4-34.7-8.4s-25.2,3.4-34.7,8.4c-13.1,6.8-22.3,16.4-27.6,24c-8.5,12.1-13.6,15.6-16.8,17.8
		c-0.3,0.2-0.5,0.4-0.8,0.5c0,2.4,0.3,18.1,11.5,21c4.1,1,7.9,0,11.5-2.3c3.6-2.3,6.9-5.9,9.9-9.9c0.2-0.3,0.6-0.9,1.1-1.5
		C-153.7,367.4-138.3,345.5-112.8,345.5L-112.8,345.5z M-112.8,346.8c-24.9,0-40,21.5-44.9,28.5c-0.4,0.6-0.8,1.1-1.1,1.5
		c-3.1,4.1-6.5,7.8-10.2,10.2c-3.8,2.5-8,3.6-12.5,2.5c-13.1-3.3-12.4-22.5-12.4-22.5l0-0.3l0.3-0.2c0.3-0.2,0.7-0.5,1.1-0.7
		c3.1-2.1,8.1-5.6,16.5-17.5c5.4-7.7,14.8-17.5,28-24.4c9.7-5,21.4-8.5,35.3-8.5c13.8,0,25.6,3.5,35.3,8.5
		c13.3,6.9,22.6,16.7,28,24.4c8.4,11.9,13.4,15.3,16.5,17.5c0.4,0.3,0.7,0.5,1.1,0.7l0.3,0.2l0,0.3c0,0.1,0.7,19.2-12.4,22.5
		c-4.5,1.1-8.6,0-12.5-2.5c-3.8-2.4-7.2-6.1-10.2-10.2c-0.3-0.4-0.7-0.9-1.1-1.5C-72.8,368.3-87.9,346.8-112.8,346.8L-112.8,346.8z"
		/>
	<path class="st4" d="M-112.8,343.7c26.5,0,42.2,22.4,47.4,29.8c0.4,0.6,0.8,1.1,1,1.5c7,9.3,13.4,13.1,19.5,11.6
		c8.9-2.2,10-14.4,10.1-18.1l0-0.1l-0.1-0.1C-38,366-43.2,362.4-52,350c-5.2-7.4-25.1-31.6-60.8-31.6s-55.6,24.2-60.8,31.6
		c-8.7,12.3-14.1,16.1-17.1,18.1l-0.1,0.1l0,0.1c0.1,3.7,1.2,15.9,10.1,18.2c6.1,1.6,12.5-2.2,19.5-11.6c0.3-0.3,0.6-0.9,1-1.5
		C-155,366.1-139.2,343.7-112.8,343.7L-112.8,343.7z"/>
	<polygon class="st0" points="-169.7,354 -172.5,357.3 -167.3,368 -178.4,364.4 -180.8,367.2 -169.4,376.8 -167.6,374.8 -175.7,368 
		-164.9,371.5 -163.8,370.1 -168.9,359.8 -160.8,366.6 -158.3,363.6 	"/>
	<path class="st0" d="M-155.3,351.8l-2.6,2.8l-2.6-5.1L-155.3,351.8L-155.3,351.8z M-161.3,345l-2.5,2.7l7.1,14.2l1.7-1.9l-1.9-3.8
		l3.5-3.7l3.9,1.7l2.9-3.1L-161.3,345L-161.3,345z"/>
	<polygon class="st0" points="-143.9,331.6 -138.3,340.5 -150.7,335.8 -153.5,337.6 -145.6,350.2 -142.6,348.3 -148.2,339.3 
		-135.7,344 -133,342.3 -140.9,329.7 	"/>
	<polygon class="st0" points="-96.8,338.9 -95.2,334.3 -90.8,335.8 -90.2,333.9 -94.5,332.4 -93.2,328.6 -88.7,330.1 -88.1,328.2 
		-96.3,325.4 -101.1,339.5 -92.1,342.6 -91.4,340.7 	"/>
	<polygon class="st0" points="-71.3,337.9 -72.6,339.4 -69.5,342.2 -78.1,351.8 -75.2,354.4 -66.6,344.8 -63.5,347.6 -62.2,346.1 	
		"/>
	<polygon class="st0" points="-67,360.3 -63.3,357.2 -60.4,360.8 -58.8,359.5 -61.8,355.9 -58.7,353.3 -55.6,356.9 -54.1,355.7 
		-59.7,349 -71.1,358.6 -64.9,365.9 -63.4,364.6 	"/>
	<path class="st0" d="M-49.8,364.1c1,1.2,1,2.5-0.1,3.6c-1.2,1.1-2.7,0.8-3.8-0.4l-0.7-0.7l3.8-3.4L-49.8,364.1L-49.8,364.1z
		 M-51.8,371.4c0,0,2.3,1.2,4.8-1.1c2.1-1.9,1.4-4.5-0.8-6.9l-4.1-4.5l-11.1,10l2.6,2.9l4.4-4l1.3,1.4l-2.8,6.3l3.3,2.7L-51.8,371.4
		L-51.8,371.4z"/>
	<polygon class="st0" points="-107.8,324.2 -107.9,330.2 -113.7,330.1 -113.6,324.1 -117.5,324 -117.8,338.9 -113.9,338.9 
		-113.7,332.1 -107.9,332.2 -108,339 -104.1,339.1 -103.8,324.2 	"/>
	<path class="st0" d="M-86.6,346.3c2.8,1.7,5.8,1.4,7.2-0.9c1-1.6,1-3-0.2-5.4c-0.3-0.7-0.7-1.2-1-1.8c-0.5-1-1-1.9-0.6-2.7
		c0.5-0.9,1.7-0.9,2.8-0.3c1.1,0.7,1.6,1.8,1.9,2.6l1.8-0.8c-0.6-1.5-1.4-2.8-3.2-3.9c-3.2-1.9-5.8-1.4-6.9,0.4
		c-1.1,1.8-0.8,3.3,0,4.9c0,0,0.5,0.9,0.8,1.5c0.7,1.2,1.5,2.7,1,3.7c-0.7,1.2-2,1.4-3.1,0.7c-1.5-1-1.9-2.1-2.2-3.2l-2,0.9
		C-89.8,343.4-88.8,344.9-86.6,346.3L-86.6,346.3z"/>
	<path class="st0" d="M-127.1,324.9c-4.9,1-8.1,4.6-7,9.5c0.6,2.6,2.9,7.5,10.3,5.9c2-0.4,3.2-1.2,4.2-2.2l-1.4-1.6
		c-0.5,0.6-1.3,1.4-3,1.8c-3.6,0.8-5.7-2.1-6.2-4.6c-0.8-3.7,1.4-6.3,3.8-6.8c1.7-0.4,2.8,0.1,3.5,0.4l0,0l0.5-1.9
		C-123.6,324.8-125,324.5-127.1,324.9L-127.1,324.9z"/>
	<path class="st0" d="M-48.2,349.7c-0.2-0.9-0.5-4.7,0.9-6.6c1.3-1.8,2.5-1.2,3.2-0.9c0.3,0.1,1.2,0.7,1.3,1.8
		c0.1,0.6-0.1,1.5-0.6,2.1c-0.9,1.2-3,2-3,2s2.6,5.2,8.2,10.3l0,3.5C-45.7,354.4-48.2,349.7-48.2,349.7L-48.2,349.7z"/>
	<path class="st0" d="M-44.4,348.6c0.8,1.3,2.7,4.5,7.5,9c0.8,0.7,2.8,1.4,3.9,0.1c0.4-0.5,0.7-1.2,0.7-2c-0.1-0.9-0.6-2-1.2-2.5
		c-1-0.8-5.1-5-8.1-8.3c-0.1,0.6-0.6,1.6-0.6,1.6C-42.5,347.2-43,348-44.4,348.6L-44.4,348.6z"/>
	<path class="st0" d="M-187.1,361.6l0-3.3c5.6-5.1,8.2-10.3,8.2-10.3s-2.1-0.8-3-2c-0.5-0.6-0.7-1.5-0.6-2.1c0.2-1.1,1-1.7,1.3-1.8
		c0.6-0.3,1.9-0.9,3.2,0.9c1.4,2,1.1,5.7,0.9,6.6C-177.1,349.7-179.7,354.2-187.1,361.6L-187.1,361.6z"/>
	<path class="st0" d="M-180.9,348.6c-0.8,1.3-2.7,4.5-7.5,9c-0.8,0.7-2.8,1.4-3.9,0.1c-0.4-0.5-0.7-1.2-0.7-2c0.1-0.9,0.6-2,1.2-2.5
		c1-0.8,5.1-5,8.1-8.3c0.1,0.6,0.6,1.6,0.6,1.6C-182.8,347.2-182.3,348-180.9,348.6L-180.9,348.6z"/>
	<path class="st4" d="M-196.5,404.4c0-6.8,5.6-12.4,12.4-12.4c6.9,0,12.4,5.6,12.4,12.4c0,6.9-5.6,12.4-12.4,12.4
		C-190.9,416.8-196.5,411.2-196.5,404.4L-196.5,404.4z"/>
	<path class="st0" d="M-177.4,395.4c0.2,0.2,0.8,0.6,0.8,0.6c1.1,1,2,2.1,2.6,3.4c0.7,1.7-1.5,4.2-2.1,4.8c-2.9,2.7-4.7,2.7-5.7,2.8
		c-1,0.1-1.7-0.5-1.7-1.3c0.1-2.3,1.7-6.2,2.1-6.9c0.3-0.5,0.8-0.8,0.8-0.8c1.1-0.3,2.1-0.8,2.6-1.4
		C-177.4,396.2-177.4,395.4-177.4,395.4L-177.4,395.4z M-187.8,393.8c1.1-0.4,2.4-0.6,3.6-0.6c1.9,0,3.8,0.4,5.4,1.4
		c0.4,0.3,0.5,0.6,0.5,1c0,1.5-2.3,2-3.8,2c-1.5,0-3.4-0.6-4.7-1c-1.3-0.4-1.6-1.2-1.6-1.5C-188.5,394.6-188.2,393.9-187.8,393.8
		L-187.8,393.8z M-192.7,411.6c-1.6-1.5-2.7-4.3-2.7-7.2c0-1.1,0.2-2.2,0.5-3.3c0,0,0.3-0.5,0.5-0.1c0.2,0.3,0.4,0.6,0.7,1
		c0.2,0.4,1.4,1.3,1.3,2c-0.4,2.7,0,6.4,0.1,7C-192.2,411.7-192.4,412-192.7,411.6L-192.7,411.6z M-192.4,402.2
		c-0.6-0.3-1.2-1.7-1.4-2.1c-0.2-0.3-0.1-1.1,0.1-1.5c0.9-1.6,2.2-3.1,3.9-3.9c0.2-0.1,0.5-0.1,0.5,0.4c0,0.3,0.1,0.7,0.1,0.9
		c0,0.3,0.1,0.8-0.2,1.2c-0.3,0.4-1.9,3.1-2.2,4.6C-191.7,402.2-191.8,402.5-192.4,402.2L-192.4,402.2z M-183.9,415.6
		c-0.1,0-0.2,0-0.2,0c-2.1,0-4.3-0.8-5.7-1.5c-1.4-0.8-1.9-4.3-1.9-6.1c0-5.9,2.4-9.4,2.8-10.1c0.4-0.7,1.2-0.8,1.9-0.6
		c0.6,0.2,0.9,0.3,1.6,0.5c0.4,0.1,1.2,0.3,1.8,0.4s1.2,0.3,0.9,1.4c-0.4,1.1-1.7,3.8-1.8,7c-0.1,2.9,0.3,5.7,0.9,7.5
		C-183.2,415.2-183.2,415.6-183.9,415.6L-183.9,415.6z M-180.9,415.2c-0.6,0.2-0.9-0.2-1.2-0.6c-1.2-1.3-1.5-4.9-1.5-5.3
		c0-0.5,0.2-1,0.5-1c2.8-0.1,4.8-0.9,6.6-2.4c1.8-1.5,2.6-3.2,2.8-3.5c0.2-0.3,0.5-0.3,0.6,0.2c0.1,0.4,0.2,1.1,0.2,1.9
		C-172.9,409.5-176.3,413.7-180.9,415.2L-180.9,415.2z"/>
	<path class="st4" d="M-28.6,404.4c0-6.8-5.6-12.4-12.4-12.4c-6.9,0-12.4,5.6-12.4,12.4c0,6.9,5.6,12.4,12.4,12.4
		C-34.2,416.8-28.6,411.2-28.6,404.4L-28.6,404.4z"/>
	<path class="st0" d="M-47.1,396.8c0.5,0.6,1.6,1.1,2.6,1.4c0,0,0.5,0.3,0.8,0.8c0.5,0.7,2.1,4.6,2.1,6.9c0,0.8-0.6,1.4-1.7,1.3
		c-1-0.1-2.8-0.1-5.7-2.8c-0.6-0.6-2.8-3.1-2.1-4.8c0.6-1.3,1.5-2.5,2.6-3.4c0,0,0.5-0.4,0.8-0.6C-47.7,395.4-47.7,396.2-47.1,396.8
		L-47.1,396.8z M-36.6,394.9c0,0.3-0.3,1.1-1.6,1.5c-1.3,0.4-3.2,1-4.7,1c-1.5,0-3.8-0.5-3.8-2c0-0.5,0.1-0.8,0.5-1
		c1.6-1,3.4-1.4,5.4-1.4c1.3,0,2.5,0.2,3.6,0.6C-36.9,393.9-36.6,394.6-36.6,394.9L-36.6,394.9z M-32.8,411.1c0.1-0.6,0.5-4.3,0.1-7
		c-0.1-0.7,1.1-1.6,1.3-2c0.2-0.4,0.5-0.7,0.6-1c0.3-0.4,0.5,0.1,0.5,0.1c0.3,1,0.5,2.1,0.5,3.3c0,2.9-1.1,5.7-2.7,7.2
		C-32.7,412-32.9,411.7-32.8,411.1L-32.8,411.1z M-33.4,401.8c-0.4-1.5-1.9-4.1-2.2-4.6c-0.3-0.4-0.2-1-0.2-1.2
		c0-0.3,0.1-0.7,0.1-0.9c0-0.5,0.3-0.5,0.5-0.4c1.7,0.8,3,2.3,3.9,3.9c0.2,0.4,0.2,1.2,0.1,1.5c-0.2,0.4-0.9,1.8-1.4,2.1
		C-33.3,402.5-33.3,402.2-33.4,401.8L-33.4,401.8z M-41.4,414.1c0.6-1.8,1-4.6,0.9-7.5c-0.1-3.2-1.4-5.9-1.8-7
		c-0.4-1.1,0.3-1.2,0.9-1.4s1.4-0.3,1.8-0.4c0.7-0.2,1-0.4,1.6-0.5c0.6-0.2,1.5-0.1,1.9,0.6c0.4,0.7,2.8,4.2,2.8,10.1
		c0,1.8-0.5,5.4-1.9,6.1c-1.3,0.8-3.6,1.5-5.7,1.5c-0.1,0-0.2,0-0.2,0C-41.8,415.6-41.8,415.2-41.4,414.1L-41.4,414.1z M-52.2,404.4
		c0-0.8,0.1-1.5,0.2-1.9c0.1-0.5,0.4-0.5,0.6-0.2c0.2,0.3,1,2,2.8,3.5c1.8,1.5,3.8,2.3,6.6,2.4c0.3,0,0.5,0.5,0.5,1
		c0,0.5-0.3,4-1.5,5.3c-0.3,0.3-0.6,0.8-1.2,0.6C-48.8,413.7-52.2,409.5-52.2,404.4L-52.2,404.4z"/>
	<path class="st5" d="M-53.4,404.3c0-3.4,1.4-6.6,3.7-8.8c2.3-2.3,5.4-3.7,8.8-3.7s6.6,1.4,8.8,3.7c2.3,2.3,3.6,5.4,3.6,8.8
		c0,3.4-1.4,6.6-3.6,8.8s-5.4,3.6-8.8,3.6c-3.4,0-6.6-1.4-8.8-3.6C-52,410.9-53.4,407.8-53.4,404.3L-53.4,404.3z M-53.2,404.3
		c0,3.4,1.4,6.5,3.6,8.7c2.2,2.2,5.3,3.6,8.7,3.6s6.5-1.4,8.7-3.6c2.2-2.2,3.6-5.3,3.6-8.7s-1.4-6.5-3.6-8.7
		c-2.2-2.2-5.3-3.6-8.7-3.6c-3.4,0-6.5,1.4-8.7,3.6C-51.9,397.8-53.2,400.9-53.2,404.3L-53.2,404.3z"/>
</g>
</svg>
