<?xml version="1.0" encoding="utf-8"?>
<!-- Generator: Adobe Illustrator 19.1.0, SVG Export Plug-In . SVG Version: 6.00 Build 0)  -->
<svg version="1.1" id="Layer_1" xmlns="http://www.w3.org/2000/svg" xmlns:xlink="http://www.w3.org/1999/xlink" x="0px" y="0px"
	 viewBox="-185.5 308.9 145.8 175.4" style="enable-background:new -185.5 308.9 145.8 175.4;" xml:space="preserve">
<style type="text/css">
	.st0{fill:#EDDF3F;stroke:#000000;stroke-width:0.4764;stroke-linecap:round;stroke-linejoin:round;stroke-miterlimit:2.6131;}
	.st1{fill:#FFF22D;stroke:#000000;stroke-width:0.4764;stroke-linecap:round;stroke-linejoin:round;stroke-miterlimit:2.6131;}
	.st2{fill:none;stroke:#000000;stroke-width:0.4764;stroke-linecap:round;stroke-linejoin:round;stroke-miterlimit:2.6131;}
	.st3{fill:#277FBE;}
	.st4{fill:#EDDF3F;}
	.st5{fill:#FFFFFF;}
	.st6{stroke:#000000;stroke-width:0.4764;stroke-linecap:round;stroke-linejoin:round;stroke-miterlimit:2.6131;}
	.st7{fill:#FFFFFF;stroke:#000000;stroke-width:0.4764;stroke-linecap:round;stroke-linejoin:round;stroke-miterlimit:2.6131;}
</style>
<g>
	<path class="st0" d="M-147.9,392.4c0.4,3.7,0.6,7.6,0.6,11.5c-0.1,11.2-2.1,20.9-5.1,27.6c-1,2.2-2.1,4.1-3.3,5.6
		c-0.6-5.7-1-11.9-1-18.2c0-2.7,0.1-5.3,0.2-7.9l3.2-19.8L-147.9,392.4L-147.9,392.4z"/>
	<path class="st0" d="M-75.7,392.4c-0.4,3.7-0.6,7.6-0.6,11.5c0.1,11.2,2.1,20.9,5.1,27.6c1,2.2,2.1,4.1,3.3,5.6
		c0.7-5.7,1-11.9,1-18.2c0-2.7-0.1-5.3-0.2-7.9l-3.2-19.8L-75.7,392.4L-75.7,392.4z"/>
	<path class="st0" d="M-152.1,388.8c-1.4,20-4.5,37.9-8.4,51.5c-0.4,1.1-0.9,2.1-1.5,2.7c-3.3,3.8-7.1,6.7-11.1,8.5
		c4.6-5,7.7-15.4,8.4-28c3-8,5.1-19.2,5.6-31.9c0.1,0.7,0.2,1.5,0.1,2.5c0.6-1.2,1.4-2.1,2.1-2.4c0.6-0.4,1.2-1.1,1.8-2.1
		c0.3-0.5,0.5-1,0.7-1.5c0-0.1,0.1-0.3,0.1-0.4L-152.1,388.8L-152.1,388.8z"/>
	<path class="st0" d="M-71.4,388.8c1.4,20,4.4,37.9,8.4,51.5c0.4,1.1,0.9,2.1,1.5,2.7c3.4,3.8,7.1,6.7,11.1,8.5
		c-4.6-5-7.7-15.4-8.4-28c-3-8-5-19.2-5.6-31.9c-0.1,0.7-0.2,1.5-0.1,2.5c-0.6-1.2-1.4-2.1-2.1-2.4c-0.6-0.4-1.3-1.1-1.8-2.1
		c-0.3-0.5-0.5-1-0.7-1.5c0-0.1-0.1-0.3-0.1-0.4L-71.4,388.8L-71.4,388.8z"/>
	<path class="st0" d="M-159,380.2c0.6,28.2-5.7,51.6-14.7,55.7c-1.6,0.6-3.1,1.5-4.4,2.5c-0.2,0.2-0.4,0.4-0.6,0.6
		c2.8-3.4,5.2-8.9,6.9-16c1.5-6,2.4-13.2,2.8-21.1l3-14.3L-159,380.2L-159,380.2z"/>
	<path class="st0" d="M-64.5,380.2c-0.6,28.2,5.7,51.6,14.7,55.7c1.6,0.6,3.1,1.5,4.4,2.5c0.2,0.2,0.4,0.4,0.6,0.6
		c-2.9-3.4-5.2-8.9-6.9-16c-1.5-6-2.4-13.2-2.8-21.1l-3-14.3L-64.5,380.2L-64.5,380.2z"/>
	<path class="st0" d="M-164.7,380.8c0.1,8.2-0.8,16-2.4,22.8c-2.7,11.2-7.6,19-13.9,19.6c-0.9,0.1-1.7,0-2.6-0.2
		c4-3.1,7.1-9.4,9.1-17.6c0.7-2.8,1.2-5.8,1.6-9C-169.8,393.3-167,387.9-164.7,380.8L-164.7,380.8z"/>
	<path class="st0" d="M-58.8,380.8c-0.1,8.2,0.8,16,2.4,22.8c2.7,11.2,7.6,19,13.9,19.6c0.9,0.1,1.7,0,2.6-0.2
		c-3.9-3.1-7.1-9.4-9.1-17.6c-0.7-2.8-1.2-5.8-1.6-9C-53.8,393.3-56.6,387.9-58.8,380.8L-58.8,380.8z"/>
	<path class="st0" d="M-160.9,363.8c-3.2,20.9-10.1,35.5-18,35.5h0c2.4-3.4,4.5-8.4,6.1-14.6c0.7-2.8,1.4-5.8,1.9-9
		c3.3-2.2,6.3-6,8.1-10.9c0.1-0.3,0.4-0.6,0.8-0.7h0C-161.6,364.1-161.2,364-160.9,363.8L-160.9,363.8z"/>
	<path class="st0" d="M-62.6,363.8c3.2,20.9,10,35.5,18,35.5c0,0,0,0,0,0c-2.4-3.4-4.5-8.4-6.1-14.6c-0.7-2.8-1.4-5.8-1.9-9
		c-3.4-2.2-6.3-6-8.1-10.9c0-0.3-0.4-0.6-0.8-0.7h0C-62,364.1-62.4,364-62.6,363.8L-62.6,363.8z"/>
	<path class="st0" d="M-143.7,396.4v20.9c-2-1-3.8-5.2-4.2-10.4c-0.2-2.7-0.1-5.3,0.4-7.3c0.1,0.3,0.1,0.5,0.2,0.8
		c0.6-1.5,1.5-2.6,2.3-3L-143.7,396.4L-143.7,396.4z"/>
	<path class="st0" d="M-79.8,396.4v20.9c2-1,3.8-5.2,4.2-10.4c0.2-2.7,0.1-5.3-0.4-7.3c-0.1,0.3-0.1,0.5-0.2,0.8
		c-0.6-1.5-1.4-2.6-2.2-3L-79.8,396.4L-79.8,396.4z"/>
	<path class="st0" d="M-142.3,385.6h-1.4v10.9l-1.4,1.1c-0.8,0.3-1.6,1.5-2.3,3c-0.2-1.2-0.5-2.1-1.1-2.6c-0.4-0.5-0.9-1.5-1.2-2.6
		c-0.2-0.8-0.3-1.5-0.3-2.1c0-1.2,0.1-2.5,0.2-3.8c0.4-3.8,1.4-7.1,2.7-9.4c0,0,0,0,0,0c0.1,0.2,0.3,0.4,0.4,0.6
		c1.5,1.9,2.3,4.1,3.3-0.2C-144,384.1-143.1,384.7-142.3,385.6L-142.3,385.6z"/>
	<path class="st0" d="M-81.2,385.6h1.4v10.9l1.4,1.1c0.8,0.3,1.6,1.5,2.2,3c0.2-1.2,0.5-2.1,1.1-2.6c0.5-0.5,0.9-1.5,1.2-2.6
		c0.2-0.8,0.3-1.5,0.3-2.1h0c0-1.2-0.1-2.5-0.2-3.8c-0.4-3.8-1.4-7.1-2.6-9.4c0,0,0,0,0,0c-0.1,0.2-0.3,0.4-0.4,0.6
		c-1.5,1.9-2.3,4.1-3.3-0.2C-79.6,384.1-80.4,384.7-81.2,385.6L-81.2,385.6z"/>
	<path class="st0" d="M-119.5,383.8c-1,0.7-2.1,1.3-3.3,1.8h-5.1c1-3,3.3-5.1,5.9-6.4c1.8,0.2,3.6,0.1,4.5,0.1
		C-118.6,380.1-120.1,381.3-119.5,383.8L-119.5,383.8z"/>
	<path class="st0" d="M-96.7,375.3c1.7,3.3,1.3,7.2,0.9,10.2h-0.6c-1-0.9-2.7-2.9-2.8-3.5c0.6-4.8-1.1-7.3-3.1-8.7
		C-100.2,373.9-98.3,374.6-96.7,375.3L-96.7,375.3z"/>
	<path class="st0" d="M-164.9,352c1.8-2.2,4.4-3.6,7.2-3.6c4.2,0,7.9,3.1,9.3,7.4c3.3,11.1,9.3,21.9,18,29.7h-11.9
		c-0.8-0.9-1.7-1.5-1-5.4c-1,4.3-1.8,2.2-3.3,0.2c-1.1-1.4-1.9-1.8-1-5.3c-1,3.5-1.9,1.4-3.3-0.8c-1.3-2.1-0.7-3-0.3-4.7
		c-0.8,2.7-1.5,1.5-2.8-1.2c-1.1-2.4-0.9-2.5,0.1-5.2c-1.6,3.4-2.3,0.4-3.1-1.7c-0.6-1.5,0.3-2.7,0.5-3.8c-1.5,2.5-1.2,1.3-1.2,0.6
		c0-1.1,0.2-2,0.6-2.6c0-0.1,0.1-0.2,0.1-0.4c0-0.3-0.1-0.6-0.5-0.6c-1.7,0-3.1,3.2-3.1,7c0,0.4,0.1,0.8,0.1,1.3
		c0,0.6-0.7,1.1-1.6,1.1h0c-0.4,0-0.8,0.3-0.8,0.7c-2.6,6.9-7.5,11.9-12.6,12.7c3-6,4.3-11.9,6.4-18.2
		C-168,356.4-166.6,353.9-164.9,352L-164.9,352z"/>
	<path class="st0" d="M-58.6,352c-1.8-2.2-4.4-3.6-7.2-3.6c-4.2,0-7.9,3.1-9.3,7.4c-3.3,11.1-9.3,21.9-17.9,29.7h11.9
		c0.8-0.9,1.7-1.5,1-5.4c1,4.3,1.8,2.2,3.3,0.2c1.1-1.4,1.9-1.8,1-5.3c1,3.5,1.9,1.4,3.3-0.8c1.3-2.1,0.7-3,0.3-4.7
		c0.8,2.7,1.5,1.5,2.8-1.2c1.1-2.4,0.9-2.5-0.1-5.2c1.6,3.4,2.3,0.4,3.1-1.7c0.6-1.5-0.3-2.7-0.6-3.8c1.5,2.5,1.2,1.3,1.2,0.6
		c0-1.1-0.2-2-0.6-2.6c0-0.1-0.1-0.2-0.1-0.4c0-0.3,0.1-0.6,0.5-0.6c1.7,0,3.1,3.2,3.1,7c0,0.4,0,0.8,0,1.3c0,0.6,0.7,1.1,1.6,1.1h0
		c0.4,0,0.8,0.3,0.8,0.7c2.6,6.9,7.5,11.9,12.6,12.7c-3-6-4.3-11.9-6.4-18.2C-55.5,356.4-57,353.9-58.6,352L-58.6,352z"/>
	<path class="st0" d="M-108.1,385.6h-13.8c0-0.1,0-0.3,0-0.4c0.9-0.4,1.7-0.9,2.4-1.4c0.1,0.3,0.1,0.4,0.2,0.7
		c2.2-0.7,6.3-1.6,8.3-5.3C-110.8,380.4-110.3,383.8-108.1,385.6L-108.1,385.6z"/>
	<path class="st1" d="M-107.2,385.6c2-2.1,2.6-5.1,1.3-9.2c0.8,1.8,3.2,4.2,6.9,5.7c0.1,0.6,1.7,2.5,2.7,3.4
		C-96.4,385.6-106.5,385.6-107.2,385.6L-107.2,385.6z"/>
	<path class="st0" d="M-120.3,350.9c9.9-0.8,12.5,5.2,25.2,4.4c-0.6,3.9-2.7,4.5-4.4,4.9c2.4,0.7,4.1,4.8,4.3,7.2
		c-0.7,0.1-1.3-0.2-2.4-0.1c2.9,1.8,3.1,5.9,3.1,9.4c-1.8-1.3-4.7-2.6-7.8-3.3c2,1.4,3.7,3.9,3.1,8.7c-3.6-1.5-6.1-3.9-6.9-5.7
		c1.4,4.3,0.6,7.5-1.6,9.5c-2.6-1.6-3.2-5.4-3.4-6.8c-2,3.7-6.2,4.6-8.3,5.3c-1-2.9,0.7-4.3,1.7-5.2c-1,0-3.4,0.2-5.4-0.2
		c1-2.7,4.6-2.9,5.9-3.4c1.3-0.5,2-1.6,1.9-2.7c-0.1-1.2-4.1-0.8-6.9-1.1c-2.8-0.3-5.6-2.2-5.3-4.9c1.1,0.9,3.1,1.6,5,1.9
		c2,0.3,6.5,0.3,7.6,0.3c3,0,4.5,0.7,7.3,2.2c-1.1-0.9-4.6-2.3-7.9-4.3c-3.2-1.9-3.4-3.6-6.1-4.5c-1.5-0.5-2.4,0-3.4,2
		c-0.8-1.2-1.1-2.6-2.3-2.2c-1.5,0.5-0.7,2.2-0.6,3.6c-0.9-0.1-3.8-1.9-3.9-4.5c-0.2-2.7,0.7-5.6,3.7-5.8
		C-127,352.9-122.9,351.1-120.3,350.9L-120.3,350.9z"/>
	<path class="st2" d="M-103.1,379.8c1.1,1.6,2,3.4,2.3,5.4"/>
	<path class="st3" d="M-143.7,385.6h63.9v47.8v0c0,13.8-12.8,26-31.9,32.8c-19.2-6.9-32-19-32-32.8v0L-143.7,385.6L-143.7,385.6z"/>
	<polygon points="-79.8,412.1 -79.8,428.2 -143.7,428.2 -143.7,412.1 	"/>
	<path class="st4" d="M-138.4,424.8v-0.6c0.5,0,0.8-0.1,0.9-0.1c0,0,0.1,0,0.1-0.1s0.1-0.1,0.1-0.2c0-0.3,0.1-0.8,0.1-1.7
		c0-0.4,0-1.1,0-2.1c0-1.8,0-3.3-0.1-3.6c0-0.1-0.1-0.2-0.3-0.2c-0.3,0-0.6-0.1-0.8-0.1v-0.6c0.9,0,1.5,0,1.9,0c0.5,0,0.9,0,1.4,0
		l0.6,1.3l0.5,1l2.1,4.3c0.4-0.9,0.8-1.5,1-2l0.9-1.8c1-2.1,1-2.1,1.3-2.8c0.6,0,0.9,0,1.1,0l2,0v0.6h-0.1c-0.9,0-1,0.2-1,0.8
		c0,0.4,0,0.6,0,0.8l0,1.9v2.3c0,0.6,0,0.9,0,1c0,0.6,0.1,0.9,0.1,1c0,0.1,0.1,0.2,0.2,0.2c0.1,0,0.3,0.1,0.8,0.1v0.6l-2.1,0l-2.1,0
		v-0.6c1.1,0,1-0.1,1.1-0.4c0-0.1,0-0.7,0-1.6v-4.8l-1.6,3.1l-0.7,1.5c-0.2,0.4-0.5,1-0.8,1.8c-0.2,0.5-0.4,0.8-0.5,1.2h-0.5
		c-0.1-0.4-0.4-0.9-0.7-1.5c-0.5-1.1-0.9-1.9-1.1-2.5l-1.8-3.6v3.3c0,1.1,0,3,0.1,3.2c0,0.2,0.1,0.3,0.3,0.3c0.1,0,0.4,0.1,0.8,0.1
		v0.6c-0.5,0-1,0-1.5,0C-137.5,424.7-138,424.7-138.4,424.8L-138.4,424.8z M-123.6,422.8c0.6,0,1,0.5,1,1c0,0.6-0.5,1-1,1
		c-0.6,0-1.1-0.5-1.1-1C-124.6,423.3-124.2,422.8-123.6,422.8L-123.6,422.8z M-112.5,423.4l0.1,0.1l-0.3,0.7
		c-1.1,0.6-1.8,0.8-3.1,0.8c-0.9,0-1.8-0.1-2.5-0.4c-1.1-0.5-1.9-1.3-2.3-2.2c-0.3-0.7-0.5-1.5-0.5-2.3c0-2.8,2-4.7,5.5-4.7
		c1.2,0,2,0.2,3.3,0.6l0,0.1c0,0.2-0.1,0.5-0.1,0.8c-0.1,0.5-0.1,1-0.1,1.4h-0.5c0-0.5,0-0.9,0-1.2c-0.6-0.6-1.3-0.9-2.4-0.9
		c-2.1,0-3.5,1.4-3.5,3.7c0,1.5,0.5,2.5,1.2,3.2c0.4,0.4,0.7,0.6,1.1,0.8c0.5,0.2,1.1,0.3,1.7,0.3
		C-114.2,424.1-113.5,423.9-112.5,423.4L-112.5,423.4z M-110.4,422.8c0.6,0,1,0.5,1,1c0,0.6-0.5,1-1,1c-0.6,0-1-0.5-1-1
		C-111.4,423.3-111,422.8-110.4,422.8L-110.4,422.8z M-102.2,421.5h-0.5c0-0.6,0-0.9-0.1-1c0-0.1-0.1-0.1-0.2-0.1
		c-0.3,0-0.8-0.1-1.5-0.1c-0.1,0-0.3,0-0.5,0v0.8c0,2.1,0,2.8,0.1,3c0,0.1,0,0.1,1.2,0.2v0.5l-2.6,0c-0.4,0-1,0-1.8,0v-0.6
		c0.5,0,0.8,0,0.9,0c0,0,0.1,0,0.1-0.1c0,0,0.1-0.1,0.1-0.3c0-0.2,0.1-1.6,0.1-2.1v-2.8c0-0.1,0-0.7-0.1-1.9c0-0.3,0-0.6-0.1-0.7
		c0-0.1,0-0.1-0.3-0.2c-0.1,0-0.3,0-0.8-0.1v-0.6l2.4,0l3.2,0c0.4,0,0.9,0,1.3,0.1l0.1,0.1c-0.1,0.5-0.2,1.4-0.2,2h-0.5
		c0-0.1,0-0.4,0-0.7c0-0.2,0-0.3,0-0.3c0,0,0,0-0.1-0.1c-0.2-0.1-0.8-0.2-1.6-0.2c-0.1,0-1.1,0-1.3,0c0,0.5-0.1,1.3-0.1,2.4v0.9
		c0.6,0,0.9,0,1.2,0c0.6,0,0.9,0,1.1-0.1c0,0,0.1-0.1,0.1-0.2c0-0.1,0-0.3,0.1-0.8h0.6C-102.2,419.4-102.2,420.4-102.2,421.5
		L-102.2,421.5z M-99.4,422.8c0.6,0,1,0.5,1,1c0,0.6-0.5,1-1,1c-0.6,0-1-0.5-1-1C-100.4,423.3-100,422.8-99.4,422.8L-99.4,422.8z
		 M-88.4,423.4l0.1,0.1l-0.3,0.7c-1.1,0.6-1.8,0.8-3.1,0.8c-0.9,0-1.8-0.1-2.5-0.4c-1.1-0.5-1.9-1.3-2.3-2.2
		c-0.3-0.7-0.5-1.5-0.5-2.3c0-2.8,2-4.7,5.5-4.7c1.2,0,2,0.2,3.3,0.6l0,0.1c0,0.2-0.1,0.5-0.1,0.8c-0.1,0.5-0.1,1-0.1,1.4H-89
		c0-0.5,0-0.9,0-1.2c-0.6-0.6-1.3-0.9-2.4-0.9c-2.1,0-3.5,1.4-3.5,3.7c0,1.5,0.5,2.5,1.2,3.2c0.4,0.4,0.7,0.6,1.1,0.8
		c0.5,0.2,1.1,0.3,1.7,0.3C-90.1,424.1-89.3,423.9-88.4,423.4L-88.4,423.4z M-86.2,422.8c0.6,0,1,0.5,1,1c0,0.6-0.5,1-1,1
		c-0.6,0-1-0.5-1-1C-87.2,423.3-86.7,422.8-86.2,422.8L-86.2,422.8z"/>
	<path class="st5" d="M-81.5,441.8c-0.9,2.3-2.2,4.5-3.8,6.6l-15.5-20.2h8.9L-81.5,441.8L-81.5,441.8z"/>
	<path class="st5" d="M-89.9,453.6c-1.6,1.5-3.5,3-5.5,4.4l-22.8-29.7h8.8L-89.9,453.6L-89.9,453.6z"/>
	<path class="st5" d="M-101.2,461.5c-2,1.1-4.2,2.1-6.5,3.1l-27.9-36.4h8.9L-101.2,461.5L-101.2,461.5z"/>
	<path class="st4" d="M-87.4,408.8c-0.9,0-1.5,0.1-1.8,0.4c-0.5,0.6-1.7,1.1-3.1,1.1c-0.8,0-1.6-0.1-2.2-0.4
		c-0.6-0.2-1.2-0.3-1.9-0.3c-0.9,0-1.8,0.2-2.4,0.5c-0.6,0.4-1.4,0.6-2.3,0.6c-0.8,0-1.5-0.2-2.1-0.5c-0.5-0.3-1.2-0.4-1.9-0.4
		c-0.8,0-1.5,0.2-2.1,0.5c-0.5,0.3-1.3,0.5-2.1,0.5c-0.8,0-1.6-0.2-2.1-0.6c-0.6-0.3-1.4-0.5-2.3-0.5c-0.8,0-1.5,0.1-2,0.4
		c-0.6,0.3-1.4,0.5-2.3,0.5s-1.7-0.2-2.3-0.5c-0.6-0.2-1.3-0.4-2.1-0.4c-0.8,0-1.6,0.2-2.2,0.5c-0.7,0.4-1.7,0.6-2.9,0.6
		c-1.4,0-2.7-0.4-3.3-0.9c-0.1-0.1-0.3-0.1-0.6-0.1c0,0-0.1,0-0.1,0c-0.5,0-0.9,0.1-1.5,0.2c-0.5,0.1-1,0.3-1.5,0.4c0,0,0,0,0,0
		c-0.2,0-0.4-0.2-0.4-0.5c0-0.2,0.1-0.4,0.2-0.5c0.5-0.2,1.1-0.4,1.7-0.5c0.5-0.1,1-0.2,1.5-0.2c0,0,0.1,0,0.1,0
		c0.2,0,0.4,0.1,0.6,0.1c0.6,0.6,1.9,0.9,3.3,0.9c1.2,0,2.2-0.2,2.9-0.7c0.6-0.3,1.4-0.5,2.2-0.5c0.8,0,1.5,0.2,2.1,0.4
		c0.6,0.3,1.4,0.5,2.3,0.5c0.9,0,1.7-0.2,2.3-0.5c0.6-0.2,1.3-0.4,2-0.4c0.9,0,1.7,0.2,2.3,0.5c0.5,0.3,1.3,0.6,2.1,0.6
		c0.8,0,1.6-0.2,2.1-0.5c0.6-0.3,1.3-0.5,2.1-0.5c0.7,0,1.4,0.1,1.9,0.4c0.5,0.3,1.3,0.5,2.1,0.5c0.9,0,1.7-0.2,2.3-0.6
		c0.6-0.3,1.4-0.5,2.4-0.5c0.7,0,1.4,0.1,1.9,0.3c0.6,0.3,1.3,0.4,2.2,0.4c1.4,0,2.6-0.5,3.1-1.1c0.2-0.2,0.9-0.4,1.8-0.4
		c0.2,0,0.3,0.3,0.3,0.5C-87.1,408.6-87.3,408.8-87.4,408.8L-87.4,408.8z"/>
	<path class="st4" d="M-120.1,396.9c0.6,0,1.2,0.1,1.7,0.3c0.3,0.7,0.6,1.5,0.7,2.5c-0.7-0.3-1.5-0.5-2.3-0.5c0,0.2,0,0.4,0,0.6
		c1,0,1.9,0.2,2.6,0.5c0.4,1,0.7,2.1,0.8,3.4c-0.8-0.5-2-0.8-3.3-0.8c0,0.7,0,1.5,0,2.4h9.9c0-0.2,0-0.4,0-0.7
		c-0.8-0.5-2.3-0.7-3.9-0.5c-1.1,0.2-2.1,0.5-2.8,0.9l1.8-5.1c1.5-0.4,3.2-0.7,5-0.8c0-0.2,0-0.4,0-0.6c-0.2-0.2-0.5-0.3-0.9-0.4
		c-0.6-0.1-1.5,0-2.4,0.2c-0.8,0.2-1.5,0.5-2,0.9l1.5-4.4c1.1-0.4,2.5-0.6,3.9-0.7c0-0.1,0-0.2,0-0.2c-0.5-0.3-1.3-0.4-2.1-0.3
		c-0.6,0.1-1.2,0.3-1.6,0.6l0.9-3c0.8-0.3,1.8-0.5,2.9-0.5c0-0.4,0-0.8,0-1.2c-0.2-0.2-0.5-0.3-0.8-0.3c-0.3,0-0.7,0.1-0.9,0.3
		c-0.1,0.1-0.3,0.2-0.6,0.2c-0.4,0.1-0.9,0-1.4-0.2c-0.4-0.2-0.8-0.5-1-0.8c0.3,0.1,0.6,0.2,1,0.3c0.7,0,1.3-0.2,1.6-0.6
		c0.3-0.2,0.7-0.4,1.1-0.4c0.4,0,0.7,0.2,0.9,0.4c0-0.1,0-0.3,0-0.4c0-0.1,0.1-0.1,0.2-0.1c0.1,0,0.2,0,0.2,0.1c0,0.8,0,1.7,0,2.8
		c1.1,0,2.2,0.2,3,0.5l0.9,3.1c-0.4-0.3-1-0.5-1.7-0.6c-0.9-0.1-1.7,0-2.2,0.3c0,0.1,0,0.1,0,0.2c1.6,0,3.2,0.3,4.5,0.7l1.5,4.4
		c-0.2-0.2-0.4-0.3-0.7-0.5c-0.6-0.3-1.4-0.6-2.3-0.7c-0.9-0.1-1.8,0-2.4,0.2c-0.2,0-0.3,0.1-0.5,0.2c0,0.1,0,0.3,0,0.4
		c2.1,0,4,0.3,5.6,0.8l1.4,5c-0.7-0.4-1.7-0.8-2.9-0.9c-1.7-0.2-3.3,0-4,0.5c0,0.2,0,0.4,0,0.7h7.6c0-4.2,0.1-7,0.1-9
		c0-1.5,0-2.6,0-3.5c0,0,0.1-0.1,0.1-0.1s0.1,0,0.1,0.1c0,0.1,0,0.2,0,0.3c0.2-0.2,0.6-0.3,0.9-0.3c0.5,0,0.9,0.2,1.1,0.5
		c0.2,0.4,0.8,0.7,1.5,0.7c0.2,0,0.3,0,0.5,0c-0.1,0.3-0.6,0.6-1.3,0.6c-0.4,0-0.8-0.1-1-0.3c-0.2-0.2-0.5-0.3-0.9-0.3
		c-0.3,0-0.6,0-0.8,0.2c0,0.5,0,1,0,1.6c0.9,0.4,2.2,0.7,3.8,0.7c2,0,3.6-0.5,4.4-1.1c-0.8,1-1.3,2.5-1.3,4.2c0,1.8,0.6,3.3,1.4,4.3
		c-0.5-0.1-1-0.2-1.3-0.4c-0.8-0.4-1.8-0.8-3-0.9c-1.5-0.2-2.9,0-3.8,0.5c0,0.7,0,1.5,0,2.2h6.1l2.1-1.4c0,0,0.1,0,0.1,0
		c0.2,0,0.3,0.1,0.3,0.2c0,0,0,0.1,0,0.1l-2.4,3.5c0.6,0.2,1.3,0.4,2.1,0.4c1.4,0,2.6-0.4,3.1-1.1c0.2-0.3,0.9-0.4,1.9-0.4
		c0.1,0,0.3,0.2,0.3,0.4c0,0.2-0.1,0.4-0.3,0.4c-0.8,0-1.4,0.1-1.6,0.4c-0.5,0.6-1.7,1.1-3.1,1.1c-0.8,0-1.6-0.1-2.2-0.4
		c-0.6-0.2-1.2-0.3-1.9-0.3c-0.9,0-1.8,0.2-2.4,0.5c-0.6,0.4-1.4,0.6-2.3,0.6c-0.8,0-1.5-0.2-2.1-0.5c-0.5-0.2-1.2-0.4-1.9-0.4
		c-0.8,0-1.5,0.2-2.1,0.5c-0.5,0.3-1.3,0.5-2.1,0.5c-0.8,0-1.6-0.2-2.1-0.6c-0.6-0.3-1.4-0.5-2.3-0.5c-0.8,0-1.5,0.1-2,0.4
		c-0.6,0.3-1.4,0.5-2.3,0.5s-1.7-0.2-2.3-0.5c-0.6-0.3-1.3-0.4-2.1-0.4c-0.8,0-1.6,0.2-2.2,0.5c-0.7,0.4-1.7,0.7-2.9,0.7
		c-1.4,0-2.7-0.4-3.3-0.9c-0.1-0.1-0.3-0.1-0.6-0.1c0,0-0.1,0-0.1,0c-0.5,0-0.9,0.1-1.5,0.2c-0.6,0.1-1.1,0.3-1.5,0.5
		c0,0-0.1,0-0.2,0c-0.3,0-0.5-0.1-0.5-0.3c0-0.1,0-0.2,0.1-0.2c0.5-0.3,1.2-0.5,2-0.7c0.5-0.1,1-0.2,1.5-0.2c0,0,0.1,0,0.1,0
		c0.2,0,0.4,0.1,0.6,0.1c0.6,0.6,1.9,0.9,3.3,0.9c0.3,0,0.6,0,0.9,0l-3.3-3.1l-7.1-3c-0.1,0-0.1-0.1-0.1-0.2c0-0.1,0.3-0.3,0.6-0.3
		c0.1,0,0.2,0,0.3,0l5.2,2.2c0.9,0.3,2.1,0.6,3.3,0.8l-4-3.8c0.9-2.6,3.8-4.8,7.4-5.6c1-0.2,2.1-0.3,3.1-0.3l0.9,0.6v0
		c0-0.7,0-1.4,0-1.9c-0.2-0.2-0.5-0.3-0.8-0.3c-0.3,0-0.7,0.1-0.9,0.3c-0.1,0.1-0.3,0.2-0.5,0.3c-0.4,0.1-0.9,0.1-1.4-0.1
		c-0.5-0.2-0.8-0.5-1.1-0.8c0.3,0.1,0.6,0.2,1,0.2c0.7,0,1.3-0.3,1.6-0.7c0.2-0.3,0.6-0.4,1.1-0.4c0.5,0,0.9,0.2,1.1,0.4
		c0-0.2,0-0.3,0-0.5c0,0,0.1-0.1,0.1-0.1c0.1,0,0.1,0,0.1,0.1c0,0.9,0,2,0,3.5C-120.1,396-120.1,396.5-120.1,396.9L-120.1,396.9z
		 M-120.5,399.2c-1.3,0-2.4,0.4-3.1,0.9c0.1-1,0.3-1.9,0.7-2.7c0.7-0.3,1.6-0.5,2.5-0.5c0-0.4,0-0.8,0-1.2c-1.9,0.3-3.6,1.4-4.9,3
		c-1.3,1.6-2.2,3.8-2.4,6.1c1.1,0.2,2.3,0.3,3.5,0.3h3.6c0-0.8,0-1.6,0-2.4c-1.7,0-3.1,0.5-4,1.2c0.1-1.3,0.4-2.5,0.8-3.5
		c0,0,0.1,0,0.1-0.1c0.8-0.4,1.9-0.7,3.1-0.7C-120.5,399.5-120.5,399.4-120.5,399.2L-120.5,399.2z M-101.1,395.8c0,0.1,0,0.2,0,0.3
		c0,1.6,0.1,3.6,0.2,6.5c0.5-0.9,0.8-2,0.8-3.3C-100.1,398-100.5,396.7-101.1,395.8L-101.1,395.8z"/>
	<polygon class="st0" points="-147.6,330 -143.4,343 -154.4,335 -165.3,343 -161.2,330 -172.1,322.1 -158.6,322.1 -154.4,309.2 
		-150.2,322.1 -136.6,322.1 	"/>
	<path class="st6" d="M-155.6,327.5c0.2-0.7,0.9-1,1.6-0.8c0.7,0.2,1,0.9,0.8,1.6c-0.2,0.7-0.9,1-1.6,0.8
		C-155.4,328.8-155.8,328.1-155.6,327.5L-155.6,327.5z"/>
	<path class="st2" d="M-165.3,343l15.2-20.9L-165.3,343L-165.3,343z M-136.6,322.1l-24.6,8L-136.6,322.1L-136.6,322.1z M-143.4,343
		l-15.2-20.9L-143.4,343L-143.4,343z M-154.4,309.2V335V309.2L-154.4,309.2z M-172.1,322.1l24.5,8L-172.1,322.1L-172.1,322.1z"/>
	<polygon class="st0" points="-105,330 -100.8,343 -111.8,335 -122.7,343 -118.6,330 -129.5,322.1 -116,322.1 -111.8,309.2 
		-107.6,322.1 -94,322.1 	"/>
	<path class="st6" d="M-113,327.5c0.2-0.7,0.9-1,1.6-0.8c0.6,0.2,1,0.9,0.8,1.6c-0.2,0.7-0.9,1-1.6,0.8
		C-112.8,328.8-113.2,328.1-113,327.5L-113,327.5z"/>
	<path class="st2" d="M-122.7,343l15.2-20.9L-122.7,343L-122.7,343z M-94,322.1l-24.5,8L-94,322.1L-94,322.1z M-100.8,343
		l-15.2-20.9L-100.8,343L-100.8,343z M-111.8,309.2V335V309.2L-111.8,309.2z M-129.5,322.1l24.5,8L-129.5,322.1L-129.5,322.1z"/>
	<polygon class="st0" points="-62.4,330 -58.2,343 -69.2,335 -80.2,343 -76,330 -87,322.1 -73.4,322.1 -69.2,309.2 -65,322.1 
		-51.4,322.1 	"/>
	<path class="st6" d="M-70.4,327.5c0.2-0.7,0.9-1,1.6-0.8c0.7,0.2,1,0.9,0.8,1.6c-0.2,0.7-0.9,1-1.6,0.8
		C-70.2,328.8-70.6,328.1-70.4,327.5L-70.4,327.5z"/>
	<path class="st0" d="M-80.2,343l15.2-20.9L-80.2,343z"/>
	<path class="st2" d="M-51.4,322.1l-24.6,8L-51.4,322.1L-51.4,322.1z M-58.2,343l-15.2-20.9L-58.2,343L-58.2,343z M-69.2,309.2V335
		V309.2L-69.2,309.2z M-87,322.1l24.6,8L-87,322.1L-87,322.1z"/>
	<path d="M-162.5,389c0.5-1.3,0.4-2.8,0.9-4.2c-0.3,3-0.6,6.3-1,9.3c-1.2,9.6-2.4,19.4-5.3,28.5C-165.1,411.6-163.5,400.3-162.5,389
		L-162.5,389z"/>
	<path d="M-61,389c-0.5-1.3-0.5-2.8-0.9-4.2c0.3,3,0.6,6.3,1,9.3c1.2,9.6,2.4,19.4,5.4,28.5C-58.4,411.6-60.1,400.3-61,389L-61,389z
		"/>
	<path class="st0" d="M-155.2,365.7c-1,6.8-2.4,13.1-4.2,18.3h0c0,0,0,0.1,0,0.1c-0.9,2.7-2.4,4.8-3.7,5.3c-0.7,0.2-1.3,0.6-1.9,1.2
		c0.2-1.1,0.1-2.2-0.1-3.1c-0.2-1.2-0.3-2.6-0.1-4.1c0-0.6,0.1-1.1,0.3-1.6c1.7-5.2,3.1-11.2,4.2-18c0.3-0.2,0.5-0.5,0.5-0.8
		c0-0.4-0.1-0.8-0.1-1.3c0-3.9,1.4-7,3.1-7c0.3,0,0.5,0.3,0.5,0.6c0,0.1,0,0.3-0.1,0.4c-0.4,0.6-0.6,1.6-0.6,2.6
		c0,0.7-0.3,1.9,1.2-0.6c-0.3,1-1.1,2.2-0.5,3.8c0.8,2.1,1.5,5.1,3.1,1.7C-153.8,363.3-155.2,365.3-155.2,365.7L-155.2,365.7z"/>
	<path class="st0" d="M-68.3,365.7c1,6.8,2.4,13.1,4.2,18.3h0c0,0,0,0.1,0,0.1c0.9,2.7,2.5,4.8,3.7,5.3c0.7,0.2,1.3,0.6,1.9,1.2
		c-0.2-1.1-0.1-2.2,0.1-3.1c0.2-1.2,0.3-2.6,0.1-4.1c-0.1-0.6-0.2-1.1-0.3-1.6c-1.7-5.2-3.1-11.2-4.1-18c-0.3-0.2-0.5-0.5-0.5-0.8
		c0-0.4,0-0.8,0-1.3c0-3.9-1.4-7-3.1-7c-0.3,0-0.5,0.3-0.5,0.6c0,0.1,0,0.3,0.1,0.4c0.4,0.6,0.6,1.6,0.6,2.6c0,0.7,0.3,1.9-1.2-0.6
		c0.3,1,1.1,2.2,0.6,3.8c-0.8,2.1-1.5,5.1-3.1,1.7C-69.7,363.3-68.4,365.3-68.3,365.7L-68.3,365.7z"/>
	<path d="M-161.2,379.2c0-0.6,0.1-1.1,0.2-1.7c1.8-5.3,3-10.9,3.9-16.5c0.1,0.2,0.1,0.4,0.2,0.6c-0.8,4.9-1.8,9.8-3.3,14.6
		C-160.4,377.3-160.7,378.4-161.2,379.2L-161.2,379.2L-161.2,379.2z"/>
	<path d="M-62.4,379.2c0-0.6-0.1-1.1-0.2-1.7c-1.8-5.3-3-10.9-3.9-16.5c-0.1,0.2-0.1,0.4-0.2,0.6c0.8,4.9,1.8,9.9,3.3,14.6
		C-63.1,377.3-62.8,378.4-62.4,379.2L-62.4,379.2L-62.4,379.2z"/>
	<path class="st0" d="M-151.6,373.1c-0.6,5.3-1.5,10.4-2.9,14.9c-0.1,0.5-0.4,1-0.7,1.5c-0.6,1-1.2,1.7-1.8,2.1
		c-0.7,0.4-1.5,1.2-2.1,2.4c0.1-1.6-0.1-3-0.7-3.7c-0.4-0.9-0.7-2.3-0.5-3.9c0-0.3,0-0.6,0.1-0.8c0.2-0.4,0.4-0.9,0.6-1.4
		c0,0,0-0.1,0-0.1h0c1.8-5.3,3.2-11.5,4.2-18.3c0.1-0.4,0.2-0.7,0.3-1c0.3-0.1,0.7-0.6,1.1-1.5c-1.1,2.6-1.3,2.7-0.1,5.2
		c1.3,2.7,1.9,3.9,2.8,1.2C-151.5,370.9-151.9,371.8-151.6,373.1C-151.5,373-151.5,373.1-151.6,373.1L-151.6,373.1z"/>
	<path class="st0" d="M-72,373.1c0.6,5.3,1.5,10.4,2.9,14.9c0.1,0.5,0.4,1,0.7,1.5c0.6,1,1.2,1.7,1.8,2.1c0.7,0.4,1.5,1.2,2.1,2.4
		c-0.1-1.6,0.1-3,0.7-3.7c0.4-0.9,0.7-2.3,0.6-3.9c0-0.3-0.1-0.6-0.1-0.8c-0.2-0.4-0.4-0.9-0.6-1.4c0,0,0-0.1,0-0.1h0
		c-1.8-5.3-3.2-11.5-4.2-18.3c-0.1-0.4-0.2-0.7-0.3-1c-0.3-0.1-0.7-0.6-1.1-1.5c1.1,2.6,1.3,2.7,0.1,5.2c-1.3,2.7-1.9,3.9-2.8,1.2
		C-72.1,370.9-71.6,371.8-72,373.1C-72,373-72,373.1-72,373.1L-72,373.1z"/>
	<path d="M-153.6,369.3c0.1,0.2,0.2,0.3,0.3,0.5c-0.6,4.6-1.4,9.2-2.5,13.7c-0.3,1-0.6,2.1-0.9,3.1c0-0.6,0.1-1.2,0.2-1.8
		C-155.2,379.7-154.3,374.5-153.6,369.3L-153.6,369.3z"/>
	<path d="M-70,369.3c-0.1,0.2-0.2,0.3-0.3,0.5c0.6,4.6,1.4,9.2,2.5,13.7c0.3,1,0.6,2.1,0.9,3.1v-0.1c0-0.6-0.1-1.1-0.2-1.7
		C-68.3,379.7-69.3,374.5-70,369.3L-70,369.3z"/>
	<path class="st4" d="M-154.9,389.1c0.2-0.4,0.4-0.8,0.5-1.1c1.3-4.5,2.3-9.6,2.9-14.9c0,0,0-0.1,0-0.2c0.1,0.4,0.3,0.9,0.7,1.4
		c1.4,2.2,2.3,4.3,3.3,0.8c-0.8,3-0.3,3.7,0.6,4.7c0,0,0,0,0,0c-1.3,2.3-2.2,5.7-2.7,9.4c-0.1,1.3-0.2,2.6-0.2,3.8
		c0,0.1,0,0.2,0,0.3c-0.8,0.4-1.7,1.5-2.3,2.9c-0.4-1.3-1-2.4-1.6-3.2C-154.5,392.3-154.9,390.8-154.9,389.1L-154.9,389.1z
		 M-151.5,370.6c0-0.1,0-0.2,0-0.2c0.1-0.2,0.1-0.4,0.2-0.7C-151.3,370-151.4,370.3-151.5,370.6L-151.5,370.6z"/>
	<path class="st4" d="M-68.7,389.1c-0.2-0.4-0.4-0.8-0.5-1.1c-1.3-4.5-2.3-9.6-2.9-14.9c0,0,0-0.1,0-0.2c-0.1,0.4-0.3,0.9-0.7,1.4
		c-1.4,2.2-2.3,4.3-3.3,0.8c0.8,3,0.3,3.7-0.6,4.7c0,0,0,0,0,0c1.2,2.3,2.2,5.7,2.6,9.4c0.2,1.3,0.2,2.6,0.2,3.8h0
		c0,0.1,0,0.2,0,0.3c0.8,0.4,1.7,1.5,2.3,2.9c0.4-1.3,1-2.4,1.6-3.2C-69,392.3-68.7,390.8-68.7,389.1L-68.7,389.1z M-72.1,370.6
		c0-0.1,0-0.2,0-0.2c-0.1-0.2-0.2-0.4-0.3-0.7C-72.3,370-72.2,370.3-72.1,370.6L-72.1,370.6z"/>
	<path d="M-149.8,376.1c0.1,0.2,0.2,0.3,0.3,0.5c-0.4,3.6-1,7.2-1.8,10.7c-0.2,1-0.5,2.1-0.8,3.1v-0.1c0-0.6,0-1.1,0.1-1.7
		C-151,384.5-150.3,380.3-149.8,376.1L-149.8,376.1z"/>
	<path d="M-73.8,376.1c-0.1,0.2-0.2,0.3-0.3,0.5c0.4,3.6,1,7.2,1.8,10.7c0.2,1,0.5,2.1,0.8,3.1v-0.1c0-0.6,0-1.1-0.1-1.7
		C-72.6,384.5-73.3,380.3-73.8,376.1L-73.8,376.1z"/>
	<path d="M-169.3,391.7c0.4-0.8,0.3-0.8,0.7-1.6c-0.1,1.9-0.4,3.6-0.7,5.5c-1.1,6.8-1.6,10.6-3.9,16.5
		C-171,405.5-170,399.4-169.3,391.7L-169.3,391.7z"/>
	<path d="M-54.2,391.7c-0.4-0.8-0.3-0.8-0.7-1.6c0.1,1.9,0.4,3.6,0.7,5.5c1.1,6.8,1.6,10.6,3.9,16.5
		C-52.5,405.5-53.5,399.4-54.2,391.7L-54.2,391.7z"/>
	<path d="M-166.3,371.2C-166.3,371.2-166.3,371.2-166.3,371.2c0.2-0.2,0.3-0.5,0.5-0.7c-0.2,1.4-0.4,2.8-0.6,3.8
		c-1.3,5.7-2.4,11.1-5.4,16.2C-169.2,384.4-167.5,377.9-166.3,371.2L-166.3,371.2z"/>
	<path d="M-57.2,371.2C-57.2,371.2-57.2,371.2-57.2,371.2c-0.2-0.2-0.4-0.5-0.5-0.7c0.2,1.4,0.4,2.8,0.6,3.8
		c1.3,5.7,2.5,11.1,5.4,16.2C-54.4,384.4-56.1,377.9-57.2,371.2L-57.2,371.2z"/>
	<path d="M-156.5,391.3c-0.2,2.8-0.4,6.3-0.6,8.1c-1.5,13.2-2.8,25.8-6,38.4c3-15.2,4.9-30.8,6.1-46.2c0,0,0,0,0,0
		C-156.8,391.5-156.7,391.4-156.5,391.3L-156.5,391.3z"/>
	<path d="M-67,391.3c0.2,2.8,0.4,6.3,0.6,8.1c1.5,13.2,2.8,25.8,6,38.4c-3-15.2-4.9-30.8-6.2-46.2c0,0,0,0,0,0
		C-66.8,391.5-66.9,391.4-67,391.3L-67,391.3z"/>
	<path d="M-151.4,394.9c0.1-0.2,0.2-0.3,0.3-0.5c0.1,2.1,0.2,4.2,0.2,6c-0.4,9.7-0.8,19.1-2.9,28.5
		C-152,417.6-151.4,406.3-151.4,394.9L-151.4,394.9z"/>
	<path d="M-72.1,394.9c0-0.2-0.2-0.3-0.3-0.5c-0.1,2.1-0.2,4.2-0.2,6c0.4,9.7,0.8,19.1,2.9,28.5C-71.5,417.6-72.1,406.3-72.1,394.9
		L-72.1,394.9z"/>
	<path d="M-144.3,382.6c-0.4,3.2-1,6.5-1.6,9.7c-0.2,1-0.4,2.1-0.7,3.1c0-0.6,0-1.2,0-1.8c0.7-3.7,1.4-7.3,1.9-11
		C-144.6,382.7-144.5,382.7-144.3,382.6L-144.3,382.6z"/>
	<path d="M-79.2,382.6c0.4,3.2,1,6.5,1.6,9.7c0.2,1,0.3,2.1,0.7,3.1c0-0.6,0-1.2,0-1.8c-0.7-3.7-1.4-7.3-1.9-11
		C-79,382.7-79.1,382.7-79.2,382.6L-79.2,382.6z"/>
	<path d="M-109,376.5c0.3,0.5,0.9,1.3,1,2.4c0.2,1.1,0.1,1.7,0,2.8C-107.9,380.5-109,377.7-109,376.5L-109,376.5z"/>
	<path d="M-104.7,374.5c0.6,0.3,1.5,0.6,2.2,1.5c0.7,0.9,0.9,1.3,1.4,2.3C-101.8,377.3-104,375.5-104.7,374.5L-104.7,374.5z"/>
	<path class="st0" d="M-137.6,363.9c4.5,2,13.7,2.2,17,2.2c1.3,0,3.9,0.5,5.1,0.9c3.3,1.9,6.1,2.9,6.7,3.7c-1.5-0.9-3.1-1.7-6.1-1.6
		c-2.2-0.5-4.8-1.5-8.1-1.5C-127.7,367.4-135.6,366.6-137.6,363.9L-137.6,363.9z"/>
	<path class="st2" d="M-116.9,372.1c2,0.2,6.4-0.1,6.3,2 M-116.9,372.1c2,0.2,5.5,0,5.3,2.2 M-116.9,372.1c2,0.2,4.6,0.1,4.2,2.5
		 M-116.9,372.1c2,0.2,3.8,0.5,3.1,2.7 M-116.9,372.1c2,0.2,3.2,1.1,1.8,3.1 M-118.8,356.9c2.4-0.1,3.2,1.1,3.8,1.6
		c-0.4,0.7-1.3,2.4-3.2,2.4c-2.8,0-2.9-1.4-3.7-2.5C-121.3,357.7-121.2,356.9-118.8,356.9 M-118.5,360.8c3.3,0.4,6.3,6.3,9.8,7.8
		c1.3,0.6,3,1.6,5.5,0.8c-2.3-1.1-0.6-2.2-3-3.5c2.8,1.2,4.3,2.3,6.2,3.4c0.2-2.2-0.1-4.5-3.9-6c2.1,0.5,3.9,1.2,3.8,0.4
		c-0.2-1.8-3.3-3.1-5.2-3.9c2.5-0.5,5.9,0.5,7,0.1 M-115,358.4c0.4,0.4,1.1,0.8,1.6,1"/>
	<path class="st6" d="M-119.1,356.7c2.6,0.2,3.1-2.5,5.5-0.2c-0.6-0.8-1.3-1.2-2.2-1.3C-116.8,355.1-118.1,356.1-119.1,356.7
		L-119.1,356.7z"/>
	<path class="st2" d="M-100.4,362.9c0.5,1.2,1.1,2.1,3.3,2 M-100.1,369.3c1.2,0.7,2.3,1.7,3,2.8 M-103.3,369.4
		c2.7,1.1,3.7,4,5.4,5.4 M-126.7,355.9c1.7,0.8,2.6,2.9,2.4,4.8c1,0.6,2.6,0.5,4.9,0 M-125.6,356.7c0.8,0.7,2.8,2.5,4,1.4"/>
	<path d="M-126.7,358.4c0.6,0,0.1,1,0.6,1.4c-0.6,0.2-1.7,0-2,1c-0.4-0.7-0.4-0.9-0.2-1.5C-128.1,358.7-127.3,358.4-126.7,358.4
		L-126.7,358.4z"/>
	<path d="M-118.8,356.9c0.7,0,1.2,0,1.6,0.2c0.2,0.2,0.3,0.6,0.3,0.9c0,0.8-0.7,1.5-1.5,1.5c-0.9,0-1.6-0.7-1.6-1.5
		c0-0.4,0.2-0.8,0.4-1C-119.3,356.9-119.1,356.9-118.8,356.9L-118.8,356.9z"/>
	<path d="M-144.5,384.8h65.4v48.5c0,7-3.2,13.5-8.7,19.2c-5.7,5.8-13.9,10.8-23.7,14.3h-0.5c-9.9-3.5-18.1-8.5-23.8-14.3
		c-5.5-5.7-8.7-12.2-8.7-19.2V384.8L-144.5,384.8z M-143,386.3v47c0,6.6,3,12.8,8.3,18.2c5.5,5.6,13.4,10.4,22.9,13.9
		c9.5-3.5,17.4-8.2,22.9-13.8c5.3-5.4,8.3-11.6,8.3-18.2v-47H-143L-143,386.3z"/>
	<path class="st7" d="M-59,460.9c7.7,0,14.5,3,18.4,7.6c-0.9-0.3-2-0.4-3-0.5c-4-0.3-7.6,1-9.6,3.1c5.3,3.1,9,7.7,10,13
		c-4-3.2-9.6-5.2-15.8-5.2c-2.5,0-4.9,0.3-7.2,0.9c-1.9,0.4-3.8,0.6-5.5,0.5c-2.5-0.1-4.3-0.7-4.6-1.8c-0.3-1,0.8-2.1,2.6-3
		c1.7-0.8,4-1.5,6.2-1.8c0.7-0.1,1.3-0.2,1.9-0.2c0,0,0.1,0,0.1,0c0.5,0,0.9-0.1,1.5-0.3c1.1-0.3,2.1-0.7,2.7-1.1
		c0.1-0.1,0.3-0.2,0.4-0.3c1.1-0.9,1.8-2,1.9-3.1c0-0.1,0-0.3,0-0.4h0c0-1-0.1-2.1-0.2-3.1c-0.1-1.4-0.3-2.8-0.6-4.2
		C-59.4,461-59.2,460.9-59,460.9L-59,460.9z"/>
	<path class="st7" d="M-149.4,474.8c0.3,0.1,0.6,0.3,0.8,0.4c0.6,0.3,1,0.6,1.4,0.9v0c0,0,0.1,0.1,0.1,0.1l0,0c0,0,0.1,0.1,0.1,0.1
		l0,0c0,0,0,0,0,0.1l0,0c0,0,0,0,0,0.1l0,0c0,0,0,0,0,0.1l0,0.1c0,0,0,0,0,0v0.1c0,0,0,0,0,0v0.1c0,0,0,0,0,0v0.1c0,0,0,0,0,0
		c0,0.6-0.8,1.1-2,1.4c-1.3,0.3-3.2,0.4-5.4,0.3c-0.6,0-1.3-0.1-1.9-0.2c-1.9-0.3-3.8-0.5-5.7-0.6c-7.1-0.2-13.8,1.4-19.1,4.4
		c2.5-5.4,6.5-9.8,11.2-12.6c-2.5-2-5.8-3.2-9.5-3.2c-2.2,0-4.3,0.5-6.1,1.2c5.8-5.4,14.2-9,23.7-9.7l-2.7,9.4v0
		c0.2-0.4,0.7-0.7,1.4-0.8h-0.1l-0.1,0l-0.1,0l-0.1,0l-0.1,0l-0.1,0l-0.1,0l-0.1,0l-0.1,0l-0.1,0l-0.1,0.1l-0.1,0l-0.1,0l0,0.1
		l0,0.1l0,0l0,0.1l0,0.1l0,0.1v0.1l0,0.1l0,0.1l0,0.1l0.1,0.1l0.1,0.2l0.1,0.1l0.1,0.2l0.1,0.2l0.2,0.2l0.2,0.2l0.2,0.2l0.2,0.2
		l0.2,0.2l0.1,0.1l0.1,0.1l0.1,0.1l0.1,0.1l0.1,0.1l0.1,0.1l0.1,0.1l0.2,0.1l0.2,0.1l0.2,0.1l0.2,0.1l0.2,0.1l0.2,0.1l0.2,0.1
		l0.2,0.1l0.2,0.1l0.2,0.1l0.2,0.1l0.2,0.1l0.2,0.1l0.2,0.1l0.2,0.1l0.2,0.1l0.2,0.1l0.2,0.1l0.2,0.1l0.2,0.1l0.2,0.1l0.3,0.1
		l0.2,0.1l0.3,0.1l0.3,0.1l0.1,0l0.1,0l0.1,0l0.1,0l0.1,0l0.1,0l0.1,0l0.1,0l0.1,0l0.1,0l0.1,0l0.1,0l0.1,0l0.1,0l0.1,0l0.1,0l0.2,0
		l0.2,0l0.2,0l0.2,0l0.2,0l0.2,0l0.2,0.1l0.2,0l0.2,0l0.2,0l0.2,0.1l0.2,0l0.2,0l0.2,0.1l0.2,0l0.2,0.1l0.2,0l0.2,0.1l0.2,0l0.2,0.1
		l0.1,0l0.2,0.1l0.1,0l0.1,0.1L-149.4,474.8L-149.4,474.8L-149.4,474.8z"/>
	<path class="st7" d="M-153.3,446.8c8.4,7.7,24.6,12.9,43.1,12.9c16.8,0,31.7-4.3,40.6-10.8v0c0.8-0.6,1.8-0.9,2.9-0.9
		c2,0,3.7,1.1,4.2,2.5c1.7,4.5,2.9,9.4,3.4,14.7c0.1,1,0.2,2.1,0.2,3.1h0c0-0.8-0.4-1.5-1-1.9c-0.7-0.4-1.6-0.6-2.7-0.5
		c-1.1,0.1-2.2,0.6-3.1,1.2c-0.1,0-0.1,0.1-0.2,0.1c-1.3,0.8-2.6,1.7-3.9,2.5c-10.2,5.7-24.5,9.2-40.1,9c-13.7-0.1-26.4-3-36.4-7.8
		c-1.7-0.9-3.9-1.9-6.4-2.6c-2.9-0.9-5.6-1.5-7.7-1.6c-2.1-0.1-3.6,0.2-3.9,0.9v0l6-20.5c0.3-0.7,1.4-1.3,2.7-1.3
		C-154.6,446-153.8,446.3-153.3,446.8L-153.3,446.8z"/>
	<path d="M-119.3,472c-0.1,0.1-0.3,0.4-0.6,0.7c-0.1,0.1-0.6,0.5-0.8,0.5c-0.1,0-0.2,0-0.3,0c-0.2,0-0.5-0.2-0.7-0.5
		c-0.3-0.4-0.4-0.9-0.2-1.7c0.1-0.6,0.4-1.4,0.8-2.4c0.3-0.7,0.4-0.9,1-1.4c0.2-0.2,0.3-0.2,0.8-0.4c0.2,0,0.4,0,0.4,0
		c0.3,0,0.3,0.1,0.7,0.6c0,0.1,0.1,0.1,0.1,0.1c0.1,0,0.1,0,0.2,0c0.2,0.3,0.2,0.3,0.6,0.3c0.4,0,0.5,0.2,0.5,0.5c0,0.1,0,0.1,0,0.1
		c0,0,0,0.1-0.1,0.1c0,0-0.1,0.1-0.1,0.1l0,0.3c0,0,0,0-0.1,0.1c-0.2,0.3-0.2,0.3-0.5,1.4c-0.1,0.2-0.1,0.4-0.2,0.6
		c0,0.2,0,0.4,0,0.5c0,0.3,0.1,0.5,0.3,0.5c0.1,0,0.9-0.6,1.1-0.9c0-0.1,0.1-0.1,0.1-0.1c0,0,0,0,0,0.1c0,0,0,0.1,0,0.2
		c0,0,0,0.1,0,0.2c0,0.1,0,0.1,0,0.2c0,0.1,0,0.1,0,0.1c0,0.2-0.3,0.5-0.7,0.8c-0.2,0.1-0.3,0.1-0.4,0.1c0,0-0.1,0-0.3,0.1
		c0,0-0.2,0.1-0.3,0.1c-0.1,0-0.2,0-0.3,0c0,0,0,0-0.1,0c0,0-0.1-0.1-0.4-0.3C-119.1,472.7-119.2,472.5-119.3,472L-119.3,472z
		 M-118.9,467.9c-0.1,0-0.2,0-0.3,0.2c0,0-0.1,0.1-0.2,0.2c-0.1,0.1-0.3,0.5-0.6,1.1c-0.3,0.7-0.5,1.3-0.6,1.7c0,0.3,0,0.5,0,0.7
		c0,0.2,0.1,0.3,0.1,0.3c0,0,0.1,0,0.2-0.1c0.1-0.1,0.1-0.2,0.2-0.2c0.1-0.1,0.2-0.2,0.2-0.2c0,0,0-0.1,0.1-0.3
		c0.2-0.4,0.3-0.7,0.4-0.8l0.1-0.2l0.1-0.3c0,0,0.1-0.1,0.1-0.2c0-0.1,0-0.2,0.1-0.3c0.1-0.3,0.2-0.5,0.2-0.7c0-0.2,0.1-0.3,0.1-0.3
		c0-0.1,0-0.3,0-0.4c0-0.1,0-0.1-0.2-0.2C-118.8,467.9-118.8,467.9-118.9,467.9L-118.9,467.9z"/>
	<path d="M-122.6,465.5l-0.2,0l-0.2,0c-0.1,0-0.4-0.3-0.5-0.6c-0.1-0.1-0.1-0.3,0-0.5c0-0.2,0.1-0.3,0.3-0.6
		c0.1-0.1,0.2-0.2,0.3-0.2c0.1,0,0.2,0,0.4,0l0.2,0.1c0.3,0.1,0.3,0.1,0.4,0.3c0.2,0.3,0.2,0.2,0.1,0.6c0,0.2,0,0.3,0,0.3
		c0,0.1,0,0.1-0.1,0.2c-0.1,0.1-0.2,0.1-0.2,0.2C-122.5,465.5-122.5,465.5-122.6,465.5L-122.6,465.5z"/>
	<path d="M-123.4,472.8l-0.2,0h-0.2c-0.2,0-0.6-0.4-0.8-0.8c-0.1-0.3-0.2-0.6-0.1-0.9c0-0.2,0-0.4,0.1-0.7c0.1-0.5,0.1-0.8,0.2-0.9
		c0-0.1,0-0.3,0.1-0.5c0.1-0.6,0.1-0.5,0.2-1c0-0.1,0.1-0.2,0.1-0.2c0-0.2,0-0.2-0.1-0.3l0-0.1c0,0,0,0,0-0.1c0,0,0.1-0.1,0.2-0.1
		l0.2,0c0,0,0,0,0.1,0c0.1-0.1,0.3-0.1,0.6-0.1c0.1,0,0.1,0,0.2,0.1c0.1,0.1,0.2,0.3,0.4,0.5c0.1,0,0.1,0.1,0.1,0.2
		c0,0,0,0.1-0.2,0.3c0,0.1-0.1,0.3-0.1,0.6c0,0.1-0.1,0.4-0.3,0.9c-0.1,0.4-0.2,0.8-0.2,1.1c-0.1,0.7,0,1.1,0.3,1.1
		c0.2,0,0.5-0.2,0.7-0.5c0.2-0.3,0.3-0.4,0.3-0.4c0.1,0,0.1,0.1,0.1,0.2c0,0,0,0.1,0,0.1c0,0,0,0.1,0,0.1l0,0.4c0,0,0,0.1-0.1,0.2
		l-0.1,0.1l-0.2,0.1l-0.1,0.1l-0.2,0.1l-0.3,0.3l-0.2,0C-123.2,472.8-123.4,472.8-123.4,472.8L-123.4,472.8z"/>
	<path d="M-126.6,470.8c-0.4,0.5-0.4,0.5-1.2,1c-0.1,0.1-0.3,0.2-0.4,0.2c-0.1,0-0.3-0.1-0.7-0.3c-0.1-0.1-0.1-0.1-0.4-0.7
		c-0.1-0.4-0.2-0.8-0.1-1.2c0-0.1,0.1-0.3,0.1-0.5c0.1-0.4,0.2-0.7,0.2-0.7l0.2-0.8c0,0,0-0.1,0.1-0.3c0-0.2,0.2-0.8,0.5-1.7
		c0.6-2.1,0.4-1.6,0.7-2.2c0,0,0-0.1,0.1-0.2c0,0,0,0,0.1-0.1c0,0,0,0,0-0.1c0,0,0-0.1,0-0.2c0-0.1-0.1-0.2,0-0.3c0,0,0-0.1,0.1-0.1
		c0-0.3,0-0.3,0.4-0.3c0.1,0,0.1,0,0.2-0.1c0.1,0,0.4,0,0.5,0c0.2,0,0.4,0.1,0.5,0.4c0.1,0.1,0.1,0.2,0.1,0.3l0,0.2c0,0,0,0,0,0.1
		c0,0,0.1,0.1,0.1,0.1l0,0.1v0.1c0,0-0.1,0.1-0.2,0.2c0,0-0.1,0.2-0.2,0.4c0,0-0.1,0.1-0.1,0.3c-0.1,0.2-0.3,0.7-0.6,1.6
		c-0.1,0.4-0.3,0.9-0.5,1.5c-0.2,0.4-0.3,0.7-0.3,0.8c-0.1,0.5-0.3,1.8-0.3,1.9c0,0.3,0.1,0.5,0.3,0.6c0.1,0,0.3-0.1,0.4-0.4
		c0-0.1,0.1-0.2,0.2-0.4c0.1-0.1,0.1-0.1,0.1-0.2c0,0,0-0.1,0-0.2c0-0.1,0-0.4,0.1-0.9c0.1-0.7,0.1-1.1,0.1-1.3
		c0-0.2-0.1-0.3-0.1-0.4c0-0.1,0-0.1,0-0.1c0,0,0.1-0.1,0.3-0.2c0.1-0.1,0.3-0.2,0.5-0.2c0.1-0.1,0.2-0.1,0.2-0.1l0.2,0.1h0.1
		c0.1,0,0.6,0.8,0.5,1l-0.1,0.3l0,0.2c-0.3,1-0.2,0.8-0.4,1.1c0,0,0,0.1-0.1,0.2c-0.1,0.4-0.2,0.6-0.3,0.8c-0.1,0.1-0.1,0.2-0.1,0.2
		c0,0,0,0.1,0.1,0.2c0,0.1,0,0.1,0.2,0.1l0.3,0.1c0.1,0,0.4-0.2,0.9-0.6c0,0,0-0.1,0-0.1c0,0,0,0.1,0,0.1c0,0.1,0,0.2-0.1,0.2
		c0,0.1,0,0.1,0,0.2c0,0,0,0.1,0,0.2c0,0,0,0.1,0,0.1c0,0.1-0.1,0.2-0.4,0.4c-0.3,0.1-0.5,0.2-0.7,0.1
		C-126.1,471.4-126.2,471.4-126.6,470.8L-126.6,470.8z"/>
	<path d="M-131.9,466.5c0,0.1-0.1,0.3-0.2,0.6c-0.1,0.4-0.6,1.2-0.9,1.4c-0.3,0.3-0.4,0.5-0.4,0.5c-0.1,0.1-0.2,0.2-0.2,0.2
		c0,0-0.1-0.1,0-0.1c0,0,0-0.1,0.1-0.2c0,0,0-0.1,0.1-0.1c0-0.1,0-0.2,0-0.3c0,0,0-0.1,0-0.2c0-0.1,0.1-0.2,0.2-0.4
		c0.1-0.1,0.1-0.3,0.2-0.5c0.1-0.4,0.2-0.7,0.3-0.7c0-0.1,0.1-0.2,0.1-0.2c0-0.1,0-0.3,0-0.5c0-0.2,0-0.3,0-0.4l0.1-0.5l0.1-0.4
		l0.1-0.5l0-0.1c0-0.1,0-0.1,0.2-0.1l0.2-0.1c0.2,0,0.3-0.1,0.3-0.1c0,0,0,0,0.1,0.1s0.1,0.1,0.1,0.1c0.3,0.1,0.3,0.1,0.2,0.4
		c0,0,0,0.1-0.1,0.2c0,0-0.1,0.2-0.2,0.5c0,0,0,0.1,0,0.1l0,0.1c0,0,0,0.1,0.1,0.1c0.3,0.1,0.7,0,0.9-0.2c0.1-0.1,0.1-0.1,0.4,0
		c0,0,0.1,0.1,0.1,0.1c0.1,0.2,0.1,0.2,0.5,0.4c0,0,0.1,0.1,0.2,0.2c0,0.1,0.1,0.2,0.1,0.2c-0.2,0.1-0.3,0.2-0.3,0.3
		c-0.1,0.2-0.2,0.4-0.2,0.4c0,0-0.1,0.1-0.1,0.2c-0.1,0.2-0.2,0.2-0.2,0.3l0,0.2c0,0.1-0.1,0.2-0.2,0.3c0,0.2-0.1,0.4-0.2,0.6
		c-0.1,0.2-0.1,0.4-0.2,0.6c-0.2,0.6-0.1,0.8,0.4,1l0.1,0c0,0,0.1-0.1,0.2-0.2c0.4-0.2,0.3-0.1,0.5-0.4c0-0.1,0.1-0.1,0.1-0.1
		c0,0,0.1,0.1,0.1,0.2l-0.1,0.3c-0.1,0.5-0.1,0.5-0.3,0.6c-0.6,0.4-1.4,0.8-1.7,0.7c-0.1,0-0.6-0.3-0.7-0.5
		c-0.1-0.2-0.2-0.4-0.3-0.6c-0.1-0.3-0.1-0.5-0.1-0.7c0.2-0.8,0.3-1,0.5-1.5l0.4-0.9c0.1-0.1,0.1-0.2,0.1-0.2c0-0.1-0.1-0.3-0.1-0.3
		c0,0-0.1,0-0.1,0C-131.7,466.5-131.7,466.5-131.9,466.5L-131.9,466.5z"/>
	<path d="M-136,463.4c0.2,0,0,0.1,0.8-0.1c0.2,0,0.4,0,0.8,0l0.5,0c0.1,0,0.2,0.1,0.4,0.4c0.1,0.1,0.2,0.3,0.3,0.4
		c0.1,0.2,0.2,0.9,0.1,1.4c-0.1,0.6-0.4,1.1-0.8,1.4c-0.6,0.5-0.6,0.4-0.8,0.5c-0.2,0-0.3,0.1-0.3,0.1s0,0-0.1,0c-0.1,0-0.2,0-0.2,0
		c0,0-0.2,0-0.4-0.1c0,0-0.1,0-0.1,0c-0.1,0-0.1,0-0.2,0.1c-0.1,0.6,0.2,1.2,0.6,1.2c0.3,0.1,0.6,0,1-0.2c0.1,0,0.2-0.1,0.5-0.3
		c0,0,0.1,0,0.2-0.1c0.2-0.1,0.3-0.2,0.4-0.3c0.1-0.1,0.1-0.2,0.2-0.2c0.1,0,0.1-0.1,0.1-0.1c0,0,0,0,0,0.1c0,0,0,0.1,0,0.1
		c0,0,0,0.1,0,0.1c0,0,0,0.1,0,0.2c0,0.1,0,0.2,0,0.2c0,0.3-0.5,0.7-1,0.9c-0.1,0.1-0.4,0.2-0.7,0.4c-0.2,0.1-1,0.2-1.4,0.2
		c-0.3,0-0.6-0.3-0.9-0.6c-0.2-0.2-0.3-0.4-0.3-0.5c-0.2-0.4-0.2-0.8-0.1-1.3c0.2-1.1,0.4-1.8,1-3.1
		C-136.3,463.9-136.2,463.6-136,463.4L-136,463.4z M-134.5,464L-134.5,464c-0.2-0.1-0.5,0.3-0.8,1.1c-0.3,0.7-0.5,1.2-0.6,1.5
		c0,0.1,0,0.1,0.1,0.1c0,0,0,0,0.1,0.1c0.1,0,0.1,0.1,0.1,0.1c0.3,0.1,1-0.9,1.2-1.9c0-0.2,0-0.5,0-0.7
		C-134.3,464.1-134.3,464.1-134.5,464L-134.5,464z"/>
	<path d="M-139.4,463.6c0.1-0.1,0.3-0.3,0.5-0.4c0.1,0,0.1-0.1,0.2-0.2c0-0.1,0.6-0.1,1,0c0.2,0.1,0.2,0.1,0.5,0.4
		c0,0.1,0.1,0.2,0.1,0.2c0.1,0.6,0,1.3-0.2,2.1c-0.3,0.9-0.4,1-1.1,1.9l-0.1,0.1l-0.4,0.2l-0.2,0.2l-0.2,0c-0.1,0-0.2,0.1-0.3,0.1
		c-0.1,0-0.2,0.1-0.2,0.1l-0.3-0.1c0,0,0,0-0.1,0c0,0-0.1,0-0.1,0c-0.1,0-0.2-0.1-0.3-0.1c-0.1-0.1-0.1-0.1-0.1-0.1
		c0,0-0.2,0-0.2,0.1l0,0.2l-0.2,0.5l0,0.3l-0.2,0.6c0,0.2-0.1,0.4-0.1,0.7c0,0,0,0.1,0,0.2c0,0.1,0,0.2,0,0.2c0,0-0.1,0.1-0.2,0.1
		c-0.2,0-0.3,0.1-0.3,0c-0.1,0-0.2-0.1-0.3-0.3c0-0.1,0-0.1-0.2-0.3c0,0-0.1-0.2-0.2-0.4c0-0.1,0,0.1,0.3-1.5l0.3-0.8l0.5-1.6l0.7-2
		l0.3-0.9c0.2-0.5,0.4-0.8,0.4-0.9c0-0.1,0-0.2,0.1-0.3c0-0.1,0-0.2,0-0.2c0-0.1,0-0.1,0.1-0.2c0,0,0-0.1,0-0.1c0,0,0-0.1,0-0.2
		c0,0,0,0,0,0c0-0.1,0.1-0.1,0.2-0.1c0.1,0,0.1,0,0.2,0c0.2,0,0.4-0.1,0.4-0.1c0,0,0,0,0.1,0.1c0,0,0.2,0.1,0.4,0.1
		c0.1,0,0.2,0.1,0.2,0.2c0.1,0.3,0.1,0.4,0.1,0.4c0,0,0,0-0.1,0.1c-0.1,0.1-0.1,0.1-0.2,0.3c0,0-0.1,0.1-0.2,0.3
		c-0.1,0.2-0.2,0.4-0.3,0.7C-139.4,463.4-139.4,463.5-139.4,463.6L-139.4,463.6z M-140.6,467.2c0.1,0.1,0.2,0.2,0.2,0.2
		c0,0,0,0.1,0,0.1h0.2l0.1,0.1c0,0,0,0,0,0c0,0,0.1-0.1,0.2-0.1c0.3-0.2,0.3-0.2,0.6-0.9l0.2-0.5l0.1-0.3l0.2-0.7l0.1-0.4
		c0-0.2,0-0.5-0.2-0.5c-0.1,0-0.3,0.1-0.6,0.4c-0.3,0.3-0.3,0.3-0.4,0.7c0,0-0.1,0.3-0.2,0.6C-140.3,466.1-140.4,466.6-140.6,467.2
		L-140.6,467.2z"/>
	<path d="M-144.3,464.8c-0.6,0.5-1,0.8-1.2,0.9c-0.2,0.1-0.6,0.1-0.8,0c0,0-0.1,0-0.2-0.1c0-0.1-0.1-0.1-0.2-0.2
		c-0.1,0-0.2-0.4-0.2-1c0-0.3,0-0.6,0.1-0.8c0.3-0.7,0.5-1.2,0.6-1.5c0.1-0.2,0.1-0.2,0.1-0.2l0.2-0.7c0.1-0.2,0.1-0.3,0.2-0.4
		c0.1-0.1,0.1-0.1,0.1-0.1l0-0.3l0.1-0.2l0.2-0.5c0-0.2,0.4-0.3,0.6-0.2c0,0,0.1,0,0.1,0c0.1,0,0.1,0.1,0.1,0.1c0.1,0,0.2,0,0.3,0
		c0,0,0.1,0,0.1,0l0.1,0.1l0,0c0.2,0.6,0.2,0.6,0.2,0.7c0,0.1,0,0.1-0.1,0.2c0,0.1-0.1,0.1-0.1,0.1l0,0.2c0,0,0,0-0.1,0.1
		c-0.1,0.1-0.2,0.3-0.4,0.6c0,0.1-0.3,0.5-0.7,1.2c-0.2,0.3-0.3,0.6-0.4,1c-0.1,0.3-0.2,0.6-0.1,0.8c0,0.2,0.1,0.3,0.1,0.3
		c0.1,0,0.2,0,0.3-0.1c0.3-0.3,0.5-0.4,0.5-0.5c0.2-0.2,0.4-0.6,0.6-1c0.3-0.6,0.4-0.9,0.5-0.9c0.2-0.4,0.3-0.7,0.4-0.9c0,0,0,0,0,0
		c0-0.1,0-0.1,0-0.1l0.1-0.1c0-0.1,0-0.2,0-0.2c0-0.1,0.1-0.1,0.1-0.2c0.1-0.1,0.2-0.1,0.2-0.1l0.2,0.1c0.1,0,0.2,0.1,0.3,0.1
		c0.1,0.1,0.2,0.1,0.3,0.2c0,0,0.1,0,0.3,0.1c0,0,0.1,0,0.1,0c0.1,0,0.1,0.1,0.1,0.1l-0.1,0.2c0,0,0,0.1,0.1,0.3c0,0,0,0.1,0,0.1
		c0,0-0.1,0.1-0.2,0.2c0,0-0.1,0.1-0.2,0.3c0,0-0.1,0.3-0.4,0.6c-0.2,0.4-0.4,0.7-0.5,0.9l-0.2,0.6c-0.1,0.3,0,0.9,0.2,1
		c0.2,0.1,0.5-0.1,1.1-0.7c0.1-0.1,0.1-0.1,0.1-0.1c0,0,0,0.1,0,0.2c0,0-0.1,0.3-0.3,0.8c0,0.1-0.1,0.1-0.3,0.2
		c-0.1,0-0.3,0.1-0.4,0.2c-0.1,0-0.1,0-0.2,0.1c-0.4,0.2-0.2,0.1-0.6,0.2c-0.2,0-0.3,0-0.3,0C-144.1,466.1-144.3,465.7-144.3,464.8
		L-144.3,464.8z"/>
	<path d="M-147.3,455.2c0,0-0.1,0-0.2,0c-0.1,0-0.1-0.1-0.2-0.1c-0.2-0.1-0.5,0-0.8,0.2c-0.4,0.2-0.6,0.5-0.7,0.8
		c-0.2,0.5,0,1,0.6,1.8c0.3,0.4,0.8,1.1,1.6,2c0.5,0.6,0.7,1.5,0.5,2.2c-0.1,0.3-0.1,0.3-0.8,0.9c-0.6,0.5-0.7,0.6-1.2,0.8
		c-0.6,0.2-1.3,0.2-1.9,0c-0.8-0.3-1.4-0.7-1.8-1.4c-0.3-0.5-0.4-1.4-0.3-1.8c0-0.1,0.1-0.1,0.2-0.1c0.1,0,0.2-0.1,0.2-0.1
		c0,0,0,0,0-0.1c0,0,0-0.1,0-0.1c0.1-0.2,0.2-0.2,0.3-0.2c0.1,0,0.1,0.1,0.1,0.2c0,0.1,0,0,0.1,0.1c0,0,0.1,0.1,0,0.3
		c0,0.2,0.3,0.6,0.5,0.9c0.3,0.4,0.8,0.6,1.3,0.8c0.3,0.1,0.6,0.1,0.8,0.1c0.1,0,0.3,0,0.4,0c0.1,0,0.1,0,0.2-0.2l0.3-0.6
		c0,0-0.1-0.3-0.5-0.9c-0.4-0.6-0.4-0.7-1.1-1.5c-0.7-0.8-1.1-1.4-1.2-1.9c-0.1-0.5-0.1-1,0.1-1.5c0.4-1.2,1.1-1.8,2.4-1.9
		c0.4,0,0.4,0,1.4,0.2c0.5,0.2,0.8,0.3,0.8,0.4c0.1,0.1,0.1,0.1,0.1,0.1l0.3,0c0,0,0.2,0.2,0.2,0.3c0,0.1,0,0.2,0,0.4
		c-0.1,0.5-0.1,0.4-0.1,1.3c0,0.5,0,0.8,0,0.8c0,0.1-0.1,0.2-0.3,0.1c-0.1,0-0.2,0-0.4,0.1c-0.1,0.1-0.2,0.1-0.3,0
		c-0.1,0-0.1,0-0.2-0.1c-0.1,0-0.1-0.1-0.2-0.1c-0.2-0.1-0.2,0-0.2-0.7c0-0.1,0-0.5,0-0.9c0-0.4,0-0.6,0-0.6
		C-147.1,455.3-147.1,455.3-147.3,455.2L-147.3,455.2z"/>
	<path d="M-66.5,460.8c0,0.1-0.1,0.5-0.2,0.9c0,0.1-0.3,0.7-0.4,0.8c-0.1,0.1-0.2,0.2-0.3,0.2c-0.2,0.1-0.5,0-0.8-0.1
		c-0.4-0.2-0.8-0.7-1-1.4c-0.2-0.6-0.3-1.4-0.5-2.5c-0.1-0.8,0-1,0.2-1.7c0.1-0.3,0.1-0.3,0.6-0.7c0.2-0.1,0.3-0.2,0.3-0.3
		c0.3-0.1,0.3,0,0.8,0.2c0.1,0,0.1,0.1,0.1,0.1c0.1-0.1,0.1-0.1,0.1-0.1c0.3,0.2,0.3,0.1,0.7,0c0.3-0.1,0.5-0.1,0.7,0.2
		c0.1,0.1,0.1,0.1,0.1,0.1c0,0,0,0.1,0,0.1c0,0.1,0,0.1,0,0.2l0.1,0.3c0,0,0,0,0,0.1c0,0.4,0,0.4,0.2,1.5c0,0.3,0.1,0.5,0.1,0.6
		c0,0.2,0.1,0.3,0.2,0.5c0.2,0.3,0.3,0.4,0.5,0.4c0.1,0,0.5-1,0.5-1.4c0-0.1,0-0.2,0.1-0.2c0,0,0,0,0.1,0.1c0,0,0,0.1,0,0.2
		c0,0,0,0.1,0,0.2c0,0.1,0,0.1,0,0.2c0,0.1,0.1,0.1,0.1,0.1c0,0.2,0,0.5-0.3,1c-0.1,0.1-0.1,0.2-0.2,0.3c0,0-0.1,0.1-0.2,0.2
		c0,0.1-0.1,0.1-0.3,0.2c-0.1,0.1-0.2,0.1-0.2,0.2c0,0,0,0-0.1,0c0,0-0.1,0-0.5,0C-65.9,461.3-66.2,461.1-66.5,460.8L-66.5,460.8z
		 M-68,456.9c-0.1,0-0.1,0.1-0.1,0.3c0,0,0,0.1,0,0.3c0,0.1,0,0.6,0,1.3c0,0.8,0.1,1.4,0.3,1.8c0.1,0.3,0.2,0.5,0.3,0.7
		c0.1,0.1,0.2,0.2,0.2,0.2c0,0,0.1-0.1,0.1-0.2c0-0.1,0-0.2,0.1-0.2c0-0.1,0.1-0.2,0.1-0.3c0,0,0-0.1,0-0.3c0-0.5,0-0.8,0-0.9l0-0.2
		l-0.1-0.3c0-0.1,0-0.1,0-0.2c0,0,0-0.2,0-0.3c0-0.3-0.1-0.6-0.1-0.8c0-0.2,0-0.3,0-0.3c0-0.1-0.1-0.3-0.2-0.4c0-0.1,0-0.1-0.2-0.1
		C-67.9,456.9-68,456.9-68,456.9L-68,456.9z"/>
	<path d="M-72.4,457.6l-0.1,0l-0.2,0.1c-0.1,0.1-0.5,0-0.8-0.1c-0.2,0-0.3-0.2-0.3-0.3c-0.1-0.1-0.1-0.3-0.1-0.6
		c0-0.1,0-0.3,0.2-0.4c0,0,0.1-0.1,0.3-0.2l0.2-0.1c0.3-0.1,0.3-0.1,0.5,0c0.3,0.1,0.3,0,0.5,0.3c0.1,0.1,0.1,0.2,0.1,0.2
		c0,0.1,0,0.1,0,0.2c0,0.1,0,0.2,0,0.3C-72.3,457.5-72.3,457.6-72.4,457.6L-72.4,457.6z M-69.5,463.7l-0.2,0.1l-0.2,0.1
		c-0.2,0.1-0.7,0-1.1-0.3c-0.3-0.2-0.5-0.4-0.6-0.7c-0.1-0.2-0.2-0.4-0.3-0.6c-0.2-0.5-0.3-0.8-0.3-0.9c-0.1-0.1-0.1-0.3-0.2-0.5
		c-0.2-0.6-0.2-0.5-0.3-1c0-0.1,0-0.2-0.1-0.3c-0.1-0.2-0.1-0.2-0.3-0.2l0-0.1c0,0,0,0,0-0.1c0,0,0.1-0.2,0.1-0.2l0.2,0
		c0,0,0,0,0.1-0.1c0-0.1,0.2-0.2,0.5-0.3c0.1,0,0.1,0,0.3,0c0.1,0.1,0.3,0.1,0.6,0.2c0.1,0,0.1,0,0.2,0.1c0,0,0,0.1,0,0.3
		c0,0.1,0.1,0.3,0.2,0.6c0,0.1,0.1,0.4,0.3,0.9c0.1,0.4,0.2,0.8,0.4,1.1c0.3,0.6,0.6,0.9,0.8,0.8c0.2-0.1,0.3-0.4,0.3-0.8
		c0-0.3,0-0.5,0-0.5c0,0,0.1,0,0.2,0.2c0,0,0,0,0,0.1c0,0,0,0.1,0,0.1l0.2,0.4c0,0,0,0.1,0,0.2v0.1l-0.1,0.2l0,0.1l-0.1,0.1
		l-0.1,0.4l-0.1,0.1C-69.3,463.5-69.4,463.7-69.5,463.7L-69.5,463.7z"/>
	<path d="M-74,463c0,0.1,0.1,0.2,0.1,0.3c0.1,0.2,0.3,0.5,0.5,0.7c0.2,0.2,0.5,0.2,0.7,0.2c0,0,0.1-0.1,0.1-0.1
		c0.1,0,0.1-0.1,0.2-0.1c0,0,0.2-0.3,0.4-0.8c0.1-0.4,0.1-0.3,0.1-0.8c0-0.1,0-0.2,0-0.2c0.1,0,0.1,0,0.1,0.1c0,0,0,0.1,0,0.1
		l0.2,0.3c0,0,0,0,0,0c0.1,0.2,0.1,0.2,0.1,0.5c-0.1,0.7,0,0.5-0.2,1c-0.2,0.8-0.2,0.8-0.6,1.1l-0.5,0.4c-0.2,0.1-1,0-1.3-0.2
		c-0.3-0.1-0.8-0.6-0.9-1c-0.1-0.2-0.5-1.2-1.3-3c-0.3-0.6-0.9-2.9-1-3.4c0-0.3-0.1-0.6-0.1-0.6l-0.1-0.2c-0.1-0.1,0-0.2,0.1-0.4
		c0.3-0.3,0.5-0.5,0.6-0.5c0,0,0.2-0.1,0.6-0.1c0.1,0,0.1,0,0.2,0c0,0,0.1,0,0.3,0c0.3,0,0.6,0.3,1.1,0.9c0.2,0.3,0.4,0.7,0.5,0.9
		C-73.5,459.2-73.5,461-74,463L-74,463z M-74.5,461.9c0.2-1.1,0.1-2.2-0.4-3.4c0-0.1-0.2-0.5-0.5-1.1c-0.2-0.4-0.4-0.6-0.5-0.5
		c-0.1,0,0,0.7,0.4,1.9C-75.1,460.2-74.8,461.2-74.5,461.9L-74.5,461.9z"/>
	<path d="M-80,461.9c0.2-0.1,0,0,0.6-0.5c0.1-0.1,0.4-0.2,0.7-0.4l0.4-0.2c0.1,0,0.3,0,0.5,0.1c0.2,0.1,0.3,0.1,0.5,0.2
		c0.2,0.1,0.7,0.7,0.8,1.1c0.2,0.5,0.2,1.2,0.1,1.6c-0.3,0.7-0.3,0.7-0.4,0.8c-0.1,0.1-0.2,0.2-0.2,0.2c0,0,0,0-0.1,0
		c0,0-0.1,0.1-0.1,0.1c-0.1,0-0.2,0.1-0.4,0.1c0,0-0.1,0-0.1,0c-0.1,0-0.1,0.1,0,0.2c0.2,0.5,0.8,0.9,1.2,0.7
		c0.3-0.1,0.5-0.4,0.8-0.7c0.1-0.1,0.1-0.2,0.2-0.5c0,0,0-0.1,0.1-0.3c0.1-0.2,0.1-0.3,0.1-0.4c0-0.1,0-0.2,0-0.3
		c0-0.1,0.1-0.1,0.1-0.1c0,0,0,0,0.1,0.1c0,0,0,0.1,0,0.1c0,0,0,0.1,0,0.1c0,0,0.1,0.1,0.1,0.2c0,0.1,0,0.1,0.1,0.2
		c0.1,0.2,0,0.8-0.4,1.3c-0.1,0.1-0.2,0.4-0.3,0.7c-0.1,0.2-0.7,0.8-1.1,0.9c-0.3,0.1-0.6,0.1-1.1,0c-0.3-0.1-0.5-0.2-0.6-0.3
		c-0.3-0.2-0.6-0.6-0.8-1c-0.4-1.1-0.6-1.8-0.8-3.2C-80,462.4-80,462.1-80,461.9L-80,461.9z M-78.4,461.5h-0.1c-0.1,0-0.1,0.5,0,1.4
		c0.1,0.8,0.2,1.3,0.3,1.5c0,0.1,0,0.1,0.2,0c0,0,0,0,0.1,0c0.1,0,0.1,0,0.2,0c0.3-0.1,0.3-1.3,0-2.2c-0.1-0.2-0.2-0.4-0.3-0.6
		C-78.2,461.5-78.2,461.5-78.4,461.5L-78.4,461.5z"/>
	<path d="M-81.5,467.6c0,0.1-0.1,0.5-0.2,0.9c0,0.1-0.3,0.7-0.4,0.8c-0.1,0.1-0.2,0.2-0.3,0.2c-0.2,0.1-0.5,0-0.8-0.1
		c-0.5-0.2-0.8-0.6-1-1.3c-0.2-0.6-0.4-1.4-0.6-2.5c-0.1-0.8-0.1-1,0.2-1.7c0.1-0.3,0.1-0.3,0.6-0.7c0.1-0.1,0.3-0.2,0.3-0.3
		c0.2-0.1,0.3-0.1,0.8,0.2c0.1,0,0.1,0,0.1,0c0.1,0,0.1-0.1,0.1-0.1c0.3,0.1,0.3,0.1,0.7,0c0.3-0.1,0.5-0.1,0.7,0.2
		c0,0,0.1,0.1,0.1,0.1c0,0,0,0.1,0,0.1c0,0.1,0,0.1,0,0.2l0.1,0.3c0,0,0,0,0,0.1c0,0.4,0,0.4,0.2,1.5c0,0.3,0.1,0.5,0.1,0.6
		c0.1,0.2,0.1,0.3,0.2,0.5c0.2,0.3,0.4,0.4,0.5,0.3c0.1,0,0.5-1,0.5-1.4c0-0.1,0-0.1,0.1-0.2c0,0,0,0,0.1,0.1c0,0,0,0.1,0,0.2
		c0,0,0,0.1,0,0.2c0,0.1,0,0.1,0.1,0.2c0,0.1,0,0.1,0.1,0.1c0,0.2,0,0.5-0.2,1c-0.1,0.2-0.2,0.3-0.2,0.3c0,0-0.1,0.1-0.2,0.3
		c0,0.1-0.1,0.1-0.3,0.3c-0.1,0-0.2,0.1-0.2,0.1c0,0,0,0-0.1,0c0,0-0.1,0-0.5,0C-80.9,468.1-81.2,467.9-81.5,467.6L-81.5,467.6z
		 M-83.2,463.7c-0.1,0-0.1,0.1-0.1,0.3c0,0,0,0.1,0,0.3c0,0.1,0,0.6,0.1,1.3c0.1,0.8,0.2,1.4,0.3,1.8c0.1,0.3,0.2,0.5,0.3,0.6
		c0.1,0.1,0.2,0.2,0.3,0.2c0,0,0.1-0.1,0.1-0.2c0-0.1,0-0.2,0.1-0.2c0-0.1,0.1-0.2,0.1-0.3c0,0,0-0.1,0-0.3c0-0.5,0-0.8-0.1-0.9
		l0-0.2l-0.1-0.3c0-0.1,0-0.1,0-0.2c0-0.1-0.1-0.2-0.1-0.3c0-0.3-0.1-0.6-0.1-0.8c0-0.2,0-0.3-0.1-0.3c0-0.1-0.1-0.3-0.2-0.4
		c-0.1-0.1-0.1-0.1-0.3,0C-83.1,463.7-83.1,463.7-83.2,463.7L-83.2,463.7z"/>
	<path d="M-88.1,466.9c0,0.1,0,0.3,0.1,0.7c0.1,0.4,0.1,1.3,0,1.7c-0.1,0.4-0.1,0.6-0.1,0.7c0,0.2,0,0.2-0.1,0.3c0,0-0.1,0-0.1-0.1
		c0,0,0-0.1,0-0.2c0,0,0-0.1,0-0.1c0-0.1-0.1-0.2-0.1-0.3c0,0,0-0.1-0.1-0.2c0-0.1,0-0.2,0-0.4c0-0.1,0-0.3-0.1-0.6
		c-0.1-0.5-0.2-0.7-0.1-0.7c0-0.1,0-0.2,0-0.2c0-0.1-0.1-0.2-0.3-0.4c-0.1-0.1-0.2-0.2-0.2-0.3l-0.1-0.5l-0.1-0.4l-0.2-0.5l0-0.1
		c0-0.1,0-0.1,0.1-0.2l0.1-0.2c0.1-0.2,0.2-0.3,0.2-0.3c0,0,0,0,0.1,0c0,0,0.1,0,0.2,0c0.2-0.1,0.3,0,0.4,0.2c0,0,0,0.1,0,0.2
		c0,0,0,0.2,0.1,0.6c0,0,0,0,0,0l0,0.1c0,0,0.1,0,0.2,0c0.3-0.1,0.6-0.4,0.7-0.7c0-0.1,0-0.1,0.3-0.2c0,0,0.1,0,0.2,0
		c0.2,0.1,0.2,0.1,0.7,0.1c0.1,0,0.2,0,0.3,0.1c0.1,0.1,0.2,0.1,0.2,0.1c-0.1,0.2-0.1,0.4-0.1,0.4c0,0.2,0.1,0.4,0.1,0.5
		c0,0,0,0.1,0,0.2c0,0.2,0,0.3,0,0.3l0.1,0.2c0,0.1,0,0.2,0,0.4c0.1,0.2,0.1,0.4,0.2,0.6c0,0.2,0.1,0.4,0.1,0.6
		c0.2,0.6,0.4,0.7,0.8,0.6l0.1,0c0,0,0.1-0.1,0.1-0.3c0.1-0.4,0.1-0.3,0.2-0.7c0-0.1,0-0.1,0-0.1c0,0,0.1,0,0.1,0.1l0.1,0.3
		c0.2,0.5,0.2,0.5,0.1,0.7c-0.3,0.7-0.7,1.5-1,1.5c-0.2,0.1-0.7,0.1-0.8,0c-0.2-0.1-0.4-0.2-0.6-0.3c-0.3-0.2-0.4-0.4-0.5-0.5
		c-0.2-0.7-0.3-1-0.4-1.5l-0.1-0.9c0-0.2,0-0.3,0-0.3c0-0.1-0.2-0.2-0.3-0.2c0,0,0,0-0.1,0.1C-87.9,466.8-88,466.8-88.1,466.9
		L-88.1,466.9z"/>
	<path d="M-93,462.2l0.1,0.3c0,0.1,0,0.3-0.1,0.4c0,0.1,0,0.3,0,0.4c0,0.1,0,0.2,0,0.3c0,0.2,0,0.4,0.1,0.6l0,0.2
		c0.1,0.4,0.3,0.8,0.4,1.3c0.1,0.3,0.3,0.6,0.4,0.8l0.2-0.1l0.2-0.1l0.1-0.1l0.1-0.1l0.1-0.1l0.1-0.2l0.1-0.2l0-0.2l0.1-0.2l0-0.2
		l0-0.2v-0.2l0-0.2l0-0.2l-0.1-0.3c0-0.1-0.1-0.2-0.1-0.3c0-0.1-0.1-0.2-0.2-0.3c-0.1-0.1-0.1-0.2-0.2-0.3c-0.1-0.1-0.2-0.1-0.2-0.2
		c-0.1-0.1-0.2-0.1-0.3-0.2l-0.2-0.1C-92.5,462.3-92.7,462.2-93,462.2L-93,462.2z M-93.4,462.2c-0.2,0-0.4,0-0.6,0.1l-0.3,0.1
		l-0.3,0.1l-0.3,0.1l-0.2,0.1l-0.2,0.2l-0.2,0.2l-0.2,0.2c-0.1,0.2-0.3,0.4-0.4,0.6l-0.1,0.1l-0.1,0.2l-0.1,0.1l0,0.2l0,0.2
		l-0.1,0.3l0,0.2l0,0.2l0,0.3l0,0.3l0,0.2l0,0.2l0.1,0.2l0.1,0.1l0.1,0.2l0.1,0.1l0.1,0.1l0.1,0.1l0.1,0.1l0.1,0.1l0.1,0.1l0.1,0
		l0.1,0l0.1,0h0.1h0.1l0.1,0l0.2,0c0.1,0,0.2-0.1,0.2-0.1l0.2-0.1l0.4-0.4l0.1,0.6l-0.2,0.3c-0.1,0.1-0.1,0.2-0.2,0.3
		c-0.1,0.1-0.2,0.1-0.2,0.2c-0.1,0.1-0.2,0.1-0.3,0.2l-0.2,0.1c-0.1,0-0.2,0.1-0.3,0.1l-0.2,0l-0.2,0l-0.2,0l-0.2,0l-0.2,0l-0.2-0.1
		l-0.2-0.1l-0.2-0.1l-0.1-0.1l-0.2-0.1l-0.1-0.1l-0.1-0.2l-0.1-0.2l-0.1-0.2l-0.1-0.2l-0.1-0.3c0-0.1,0-0.3,0-0.4c0-0.2,0-0.3,0-0.5
		c0-0.1,0-0.2,0-0.3c0-0.2,0.1-0.5,0.2-0.7l0.1-0.2c0.2-0.4,0.4-0.8,0.6-1.1c0.1-0.1,0.2-0.3,0.3-0.4c0.2-0.2,0.3-0.4,0.5-0.6
		c0.2-0.1,0.3-0.3,0.5-0.4c0.2-0.1,0.4-0.2,0.5-0.3c0.2-0.1,0.4-0.2,0.6-0.3c0.2-0.1,0.3-0.1,0.5-0.2c0.1,0,0.3-0.1,0.4-0.1l0.3,0
		l0.3,0h0.3l0.3,0l0.3,0.1l0.3,0.1l0.3,0.1l0.2,0.1l0.2,0.1l0.2,0.2l0.2,0.2l0.2,0.2l0.1,0.2l0.1,0.3l0.1,0.3l0.1,0.3l0,0.3v0.3v0.3
		l0,0.3l-0.1,0.3l-0.1,0.3l-0.1,0.2c-0.1,0.1-0.1,0.2-0.2,0.4c-0.1,0.1-0.2,0.2-0.3,0.3c-0.1,0.1-0.2,0.2-0.3,0.3
		c-0.1,0.1-0.3,0.2-0.4,0.3c-0.2,0.1-0.3,0.2-0.5,0.3c0.1,0.2,0.1,0.4,0.2,0.6c0,0.2,0.1,0.5,0.1,0.8l0,0.4v0.4l0,0.4l0,0.4
		l-0.1,0.4l-0.1,0.4l-0.1,0.3l-0.2,0.3l-0.2,0.3l-0.2,0.3l-0.1,0.1l-0.1,0.1l-0.1,0.1l-0.1,0.1l-0.1,0.1l-0.2,0.1l-0.1,0.1l-0.2,0
		l-0.2,0l-0.2,0l-0.2,0l-0.2,0l-0.2,0l-0.2,0l-0.2,0l-0.2,0l-0.2-0.1l-0.2-0.1l-0.2-0.1l-0.1-0.1l-0.1-0.1l-0.1-0.1l-0.1-0.1
		l-0.1-0.2l0-0.2l0-0.2v-0.2l0-0.2l0.1-0.2l0.1-0.1l0.1-0.1l0.1-0.1l0.2-0.1l0.1,0l1.2,0.2l-0.5,0.5l-0.1,0.1l-0.1,0.1l0,0.1l0,0.1
		v0.1v0.1v0.1l0,0.1l0,0l0,0.1l0.1,0.1l0.1,0.1l0.2,0.1l0.2,0h0.2h0.1h0.1l0.2-0.1c0.1,0,0.2,0,0.3-0.1c0.1,0,0.2-0.1,0.3-0.2
		c0.1,0,0.1-0.1,0.2-0.2c0.1-0.1,0.1-0.1,0.2-0.2c0.1-0.1,0.1-0.2,0.1-0.3c0-0.1,0.1-0.2,0.1-0.3c0-0.1,0-0.2,0.1-0.3
		c0-0.1,0-0.2,0-0.4c0-0.1,0-0.3,0-0.4c0-0.1,0-0.3-0.1-0.4c0-0.1-0.1-0.3-0.1-0.4c-0.3-0.8-0.6-1.6-0.9-2.4l-0.1-0.3
		c0-0.2-0.1-0.5-0.1-0.7c0-0.2,0-0.4,0-0.6c0-0.2,0-0.4,0-0.6c0-0.2,0-0.4,0.1-0.6c0-0.1,0.1-0.3,0.1-0.5c0.1-0.2,0.1-0.5,0.2-0.7
		L-93.4,462.2L-93.4,462.2z"/>
	<path d="M-106.4,472.8c0-0.2,0-0.4,0-0.6l0-3.9l1.4-0.7l0,0.6c0,0.1-0.1,0.1-0.1,0.2c0,0.1,0,0.2,0,0.2c0,0.2,0,0.4,0,0.7
		c0.1-0.2,0.3-0.4,0.4-0.6l0.2-0.2l0.1-0.1l0.1-0.1l0.1-0.1l0.1-0.1l0.1,0l0.1,0l0.1,0l0.2,0l0.2,0.1l0.2,0.1l0.1,0.1l0.1,0.2
		l0.1,0.2l0,0.2v0.2v2.9v0.2l0,0.1l0,0.1l0,0c0.1,0,0.3-0.1,0.3-0.2c0.4-0.4,0.7-0.9,0.9-1.3c0.1-0.3,0.3-0.6,0.4-0.9
		c0.1-0.3,0.2-0.7,0.4-1l0.5,0.3c-0.1,0.3-0.2,0.6-0.3,0.8c-0.1,0.3-0.2,0.5-0.3,0.8c-0.1,0.2-0.2,0.5-0.4,0.7
		c-0.1,0.2-0.2,0.3-0.3,0.5c-0.1,0.1-0.2,0.3-0.3,0.4c-0.1,0.1-0.2,0.2-0.3,0.3l-0.2,0.2c-0.1,0.1-0.2,0.2-0.3,0.2l-0.2,0.1
		l-0.2,0.1l-0.1,0l-0.1,0h-0.1l-0.2,0l-0.2-0.1l-0.1-0.1l-0.1-0.1l-0.1-0.2l0-0.2l0-0.2v-0.2v-2.8c0-0.2,0-0.3,0-0.5c0,0,0,0-0.1,0
		c0,0-0.1,0-0.1,0.1c-0.2,0.2-0.4,0.4-0.5,0.6c-0.1,0.2-0.3,0.4-0.4,0.6v2.9l-1.5,0.7v-0.7l0.1-0.1
		C-106.4,473.2-106.4,473-106.4,472.8L-106.4,472.8z"/>
	<path d="M-111.6,473l0.1,0.1l0.1,0.1l0.1,0.1l0.1,0.1l0.2,0l0.2,0c0.1,0,0.3,0,0.4,0l0.3,0l0.3,0l0.2-0.1l0.2-0.1l0.2-0.1l0.2-0.2
		l0.2-0.2l0.1-0.2l0.1-0.3l0.1-0.3l0.1-0.3c0-0.2,0.1-0.4,0.1-0.5c0-0.2,0-0.4,0-0.6c0-0.5,0-1.1,0-1.6c0-0.4,0-0.8,0-1.1
		c0-0.2,0-0.4,0-0.7c0-0.2,0-0.4,0.1-0.6l0.1-0.2c0.2-0.6,0.4-1.1,0.7-1.6c-0.4,0.1-0.8,0.4-1.3,0.6c-0.2,0.1-0.3,0.2-0.5,0.3
		c-0.2,0.1-0.3,0.2-0.5,0.4c-0.1,0.1-0.3,0.2-0.4,0.3l-0.2,0.2l-0.2,0.2l-0.2,0.3l-0.1,0.2l-0.1,0.2l0,0.2l0,0.2l0,0.1v0.1l0,0.1
		l0,0.1l0,0.1l0,0.1l0.1,0.1l0,0.1l0.1,0.1l0.1,0.1l0.1,0.1l0.1,0l0.1,0l0.1,0l0.1,0h0.1h0.1l0.1,0l0.1,0l0.1,0l0.1,0l0.1-0.1
		l0.1-0.1l0.7-0.7l-0.3,1.5l0,0.1l-0.1,0.1l-0.1,0.1l-0.1,0.1l-0.2,0.1l-0.2,0l-0.2,0l-0.2,0l-0.2,0l-0.2,0l-0.2,0l-0.2,0l-0.2-0.1
		l-0.1-0.1l-0.1-0.1l-0.1-0.1l-0.1-0.1l-0.1-0.1l-0.1-0.2l-0.1-0.2l-0.1-0.2l0-0.2l0-0.2l0-0.2v-0.2l0-0.2l0-0.2l0-0.2l0-0.2l0-0.2
		l0.1-0.1l0.2-0.3l0.2-0.3l0.2-0.3l0.3-0.3l0.3-0.3l0.3-0.3l0.4-0.2l0.4-0.3l0.4-0.2l0.5-0.2l0.5-0.2c0.2-0.1,0.5-0.2,0.8-0.3
		c0.1-0.1,0.2-0.2,0.3-0.3l0.1,0l0.1,0h0.1l0.1,0l0.1,0l0.1,0.1v0.1v0.1l0,0.1l0,0.1l-0.1,0.1c-0.1,0-0.1,0.1-0.2,0.1
		c-0.1,0.1-0.2,0.3-0.2,0.4c0,0.1-0.1,0.3-0.1,0.4c0,0.1-0.1,0.3-0.1,0.5l0,0.3c0,0.3,0,0.6,0,0.9c0,0.6,0.1,1.2,0.2,1.8
		c0,0.4,0.1,0.7,0.1,1c0,0.3,0,0.5,0,0.8l-0.1,0.4l0,0.2l-0.1,0.4l-0.1,0.2l-0.1,0.2l-0.1,0.2l-0.1,0.2l-0.1,0.2l-0.1,0.1l-0.1,0.2
		l-0.1,0.1l-0.1,0.1l-0.1,0.1l-0.2,0.1l-0.1,0.1l-0.1,0.1l-0.2,0.1l-0.2,0.1l-0.2,0.1l-0.2,0.1l-0.2,0.1l-0.2,0l-0.2,0l-0.2,0
		l-0.2,0h-0.2l-0.2,0l-0.2,0l-0.2,0l-0.2,0l-0.2,0l-0.2-0.1l-0.2-0.1l-0.2-0.1l-0.2-0.1l-0.1-0.1l-0.1-0.1l-0.1-0.1l-0.1-0.1
		l-0.1-0.1l0-0.2l0-0.2v-0.2v-0.2l0.1-0.2l0.1-0.2l0.1-0.2l0.1-0.1l0.2-0.1l0.2-0.1l0.2,0l0.2,0l0.2,0l0.2,0.1l0.1,0l0.4,0.3
		l-0.5,0.3l-0.1,0.1l-0.1,0.1l-0.1,0.1l0,0.1l0,0.1v0.1l0,0.1L-111.6,473L-111.6,473L-111.6,473z"/>
	<path class="st7" d="M-145.2,471.5c-0.4,2.1-0.9,4.1-1.5,5.9c0,0,0-0.1,0-0.1c0-0.6-0.6-1.3-1.9-2c-1.3-0.7-3.1-1.4-5.7-1.9
		c-0.7-0.1-1.4-0.3-2.2-0.5c-2.8-0.8-5.2-1.8-6.4-2.6c-1.2-1-1.8-1.8-1.5-2.5c0.3-0.8,1.8-1,3.9-0.9c2.1,0.1,4.8,0.7,7.7,1.6
		c2.3,0.7,4.4,1.6,6.1,2.5h0c0,0,0,0,0,0c0,0,0,0,0,0c0,0,0,0,0,0h0c0,0,0,0,0,0c0,0,0,0,0,0c0,0,0,0,0,0s0,0,0,0c0,0,0,0,0,0
		C-146,471.2-145.6,471.3-145.2,471.5L-145.2,471.5z"/>
	<path class="st7" d="M-77.8,473.4c2.9-1.1,5.6-2.3,8.1-3.7c1.4-0.8,2.7-1.6,3.9-2.5c0.1,0,0.1-0.1,0.2-0.1c0.9-0.6,2-1.1,3.1-1.2
		c1.1-0.1,2,0,2.7,0.5c0.6,0.4,1,1.1,1,1.9c0,0.1,0,0.3,0,0.4c-0.1,1.1-0.8,2.2-1.9,3.1c-0.1,0.1-0.3,0.2-0.4,0.3
		c-0.6,0.4-1.6,0.8-2.7,1.1c-0.5,0.1-1,0.2-1.5,0.3c-0.7,0-1.4,0.1-2.1,0.2c-2.2,0.3-4.6,1-6.2,1.8c-1.8,0.9-2.9,2-2.6,3
		C-76.8,476.9-77.4,475.2-77.8,473.4L-77.8,473.4z"/>
</g>
</svg>
