<?xml version="1.0" encoding="utf-8"?>
<!-- Generator: Adobe Illustrator 19.1.0, SVG Export Plug-In . SVG Version: 6.00 Build 0)  -->
<svg version="1.1" id="Layer_1" xmlns="http://www.w3.org/2000/svg" xmlns:xlink="http://www.w3.org/1999/xlink" x="0px" y="0px"
	 viewBox="-170.5 303.1 115.7 187.1" style="enable-background:new -170.5 303.1 115.7 187.1;" xml:space="preserve">
<style type="text/css">
	.st0{fill:#FFFFFF;}
	.st1{fill:#CA2E31;}
</style>
<g>
	<path class="st0" d="M-112.6,485.4c28.9,0,53.1-39.7,53.1-88.7c0-49-24.1-88.7-53.1-88.7c-28.9,0-53.1,39.7-53.1,88.7
		C-165.7,445.6-141.5,485.4-112.6,485.4L-112.6,485.4z"/>
	<path d="M-112.6,480.6c12.7,0,24.6-9.1,33.4-23.8c9.2-15.3,14.9-36.6,14.9-60.1c0-23.6-5.7-44.8-14.9-60.1
		c-8.8-14.7-20.7-23.8-33.4-23.8s-24.6,9.1-33.4,23.8c-9.2,15.3-14.9,36.6-14.9,60.1c0,23.6,5.7,44.8,14.9,60.1
		C-137.2,471.5-125.3,480.6-112.6,480.6L-112.6,480.6z M-112.6,490.2c-16.3,0-31.1-10.9-41.6-28.5c-10-16.8-16.3-39.8-16.3-65.1
		c0-25.3,6.3-48.3,16.3-65c10.5-17.6,25.3-28.5,41.6-28.5c16.3,0,31.1,10.9,41.6,28.5c10,16.8,16.3,39.8,16.3,65.1
		c0,25.3-6.3,48.3-16.3,65C-81.6,479.3-96.3,490.2-112.6,490.2L-112.6,490.2z"/>
	<path class="st1" d="M-112.6,483.6c13.9,0,26.7-9.7,36-25.3c9.4-15.8,15.3-37.6,15.3-61.7s-5.9-45.9-15.3-61.7
		c-9.3-15.6-22.1-25.3-36-25.3c-13.9,0-26.7,9.7-36,25.3c-9.4,15.8-15.3,37.6-15.3,61.7s5.9,45.9,15.3,61.7
		C-139.3,474-126.5,483.6-112.6,483.6L-112.6,483.6z M-112.6,487.1c-15.2,0-29-10.3-38.9-27c-9.7-16.3-15.8-38.7-15.8-63.5
		c0-24.7,6.1-47.2,15.8-63.5c10-16.7,23.8-27,38.9-27s29,10.3,38.9,27c9.7,16.3,15.8,38.7,15.8,63.5c0,24.7-6.1,47.2-15.8,63.5
		C-83.6,476.8-97.5,487.1-112.6,487.1L-112.6,487.1z"/>
	<polygon points="-121.5,445.7 -121.5,349.2 -130.4,349.2 -130.4,442.2 	"/>
	<polygon class="st1" points="-130.5,442.2 -130.5,349.2 -139.4,354.7 -139.4,438.8 	"/>
	<polygon points="-139.4,438.8 -139.4,354.7 -148.3,361.5 -148.3,431.9 	"/>
	<polygon class="st1" points="-148.3,431.9 -148.3,361.5 -157.2,375.2 -157.2,418.2 	"/>
	<polygon points="-157.2,419.6 -157.2,373.2 -161.3,383.5 -161.3,411.4 	"/>
	<polygon points="-93.8,351.2 -93.8,443.9 -97.2,443.9 -97.2,349.5 -93.8,349.5 	"/>
	<polygon points="-81.4,357.7 -81.4,437.4 -84.8,437.4 -84.8,356 -81.4,356 	"/>
	<polygon points="-110.9,401.1 -62.6,401.1 -62.6,404.5 -112.6,404.5 -112.6,401.1 	"/>
	<polygon points="-110.9,388.8 -62.6,388.8 -62.6,392.2 -112.6,392.2 -112.6,388.8 	"/>
	<polygon class="st1" points="-62.3,392.2 -84.9,392.2 -84.9,356.7 -93.8,351.2 -93.8,392.2 -112.6,392.2 -112.6,346.4 
		-121.5,347.8 -121.5,445.7 -112.6,445.7 -112.6,401 -93.8,401 -93.8,442.2 -84.9,438.8 -84.9,401 -62.3,401 	"/>
	<polygon points="-109.2,347.8 -109.2,447.5 -112.6,447.5 -112.6,346 -109.2,346 	"/>
	<path d="M-112.6,444.4c13.2,0,25.1-5.3,33.8-14s14-20.6,14-33.8s-5.3-25.1-14-33.8c-8.6-8.6-20.6-14-33.8-14
		c-13.2,0-25.1,5.3-33.8,14c-8.6,8.6-14,20.6-14,33.8c0,13.2,5.3,25.1,14,33.8C-137.7,439-125.8,444.4-112.6,444.4L-112.6,444.4z
		 M-112.6,447.8c-14.1,0-26.9-5.7-36.2-15c-9.3-9.3-15-22.1-15-36.2c0-14.1,5.7-26.9,15-36.2c9.3-9.3,22.1-15,36.2-15
		c14.1,0,26.9,5.7,36.2,15c9.3,9.3,15,22.1,15,36.2c0,14.1-5.7,26.9-15,36.2C-85.7,442.1-98.5,447.8-112.6,447.8L-112.6,447.8z"/>
	<path d="M-137.5,448.7l0.5,0.2c3.1,1.1,4.4,0,4.9-1.1l2.6,0.9l-5.3,14.7l-3.2-1.1l3.6-10.1l-3.8-1.4L-137.5,448.7L-137.5,448.7z"/>
	<path d="M-122.5,456.8c-1.4-0.2-2-1.3-1.9-2.2c0.2-1.1,1.1-1.8,2.6-1.6c1.1,0.2,1.8,1,1.7,2.2C-120.3,456.3-121.2,457-122.5,456.8
		L-122.5,456.8z M-117.3,462.2c0.3-2-0.5-3.1-2-4.1c1.5-0.4,2.2-1.5,2.4-2.8c0.3-2.1-1.3-4.3-4.8-4.8c-3-0.4-5.5,0.8-5.9,3.4
		c-0.2,1.4,0.4,2.5,1.6,3.3c-2.7,0.7-3,2.7-3.2,3.5c-0.3,2.1,0.8,4.9,5.2,5.6C-119.5,467-117.6,464.2-117.3,462.2L-117.3,462.2z
		 M-120.8,461.8c-0.2,1.1-1,2.3-2.8,2.1c-1.5-0.2-2.3-1.3-2.1-2.8c0.3-1.7,1.5-2.2,2.7-2C-121,459.3-120.6,460.8-120.8,461.8
		L-120.8,461.8z"/>
	<path d="M-110.9,456.3c-0.2-2.2,1.3-2.8,2.2-2.8c1.7-0.1,2.7,0.9,2.8,2.6c0.2,1.8-1.1,2.7-2.3,2.8
		C-109.4,459-110.7,458.6-110.9,456.3L-110.9,456.3z M-113.4,463.3c0.5,2.4,2.7,3.8,5.6,3.6c3.1-0.3,6-2.5,5.5-8.5
		c-0.2-2.2-0.8-8-6.7-7.5c-3.3,0.3-5.7,2.3-5.4,6.1c0.2,2.6,2.3,4.7,5.6,4.4c1.2-0.1,2.5-0.5,3.1-1.6l0.1,0c0.2,3.3-1.1,4.4-2.5,4.6
		c-1,0.1-1.8-0.3-2.1-1.4l0,0L-113.4,463.3L-113.4,463.3z"/>
	<path d="M-96.5,453.9c-0.7-2.1,0.6-3,1.5-3.3c1.6-0.6,2.8,0.2,3.4,1.9c0.6,1.7-0.4,2.9-1.5,3.3C-94.4,456.2-95.7,456.2-96.5,453.9
		L-96.5,453.9z M-97.2,461.4c1.1,2.3,3.6,3,6.3,2.1c2.9-1,5.3-3.9,3.3-9.6c-0.7-2.1-2.7-7.5-8.3-5.6c-3.2,1.1-5,3.6-3.7,7.2
		c0.8,2.5,3.4,4,6.5,2.9c1.1-0.4,2.3-1.1,2.7-2.3l0.1,0c1,3.1,0.1,4.6-1.3,5c-1,0.3-1.8,0.1-2.4-0.8l0,0L-97.2,461.4L-97.2,461.4z"
		/>
	<path d="M-111.8,322.4c-4.8,0.1-9,3.8-8.9,8.4c0.1,4.5,4.4,8.1,9.2,8c2.4,0,4.6-0.9,6.1-2.3l2.4,2.2c-2.2,2-5.2,3.2-8.5,3.3
		c-6.9,0.1-12.6-4.9-12.7-11.1c-0.1-6.3,5.3-11.5,12.3-11.6c3.3-0.1,6.3,1,8.5,3l-2.3,2.3C-107.3,323.1-109.4,322.3-111.8,322.4
		L-111.8,322.4z"/>
	<polygon points="-97.5,323.2 -103,342.4 -100.3,343 -96.8,332.1 -94.1,345.1 -92.8,345.1 -89.3,336.9 -85.1,349.3 -81.2,352 
		-87.3,330.8 -89.8,329.3 -92.5,336.5 -94.9,324.6 	"/>
	<path d="M-122.5,342.4l-5.3-19.2l-4.6,2.7l-13.1,26.7l5.3-3.4l3.4-6.9l9.4-3.6l1.4,4.6L-122.5,342.4L-122.5,342.4z M-135.1,338.2
		l5.1-10.4l1.8,7.6L-135.1,338.2L-135.1,338.2z"/>
</g>
</svg>
