<?xml version="1.0" encoding="utf-8"?>
<!-- Generator: Adobe Illustrator 19.1.0, SVG Export Plug-In . SVG Version: 6.00 Build 0)  -->
<svg version="1.1" id="Layer_1" xmlns="http://www.w3.org/2000/svg" xmlns:xlink="http://www.w3.org/1999/xlink" x="0px" y="0px"
	 viewBox="-206.2 303.1 187.1 187.1" style="enable-background:new -206.2 303.1 187.1 187.1;" xml:space="preserve">
<style type="text/css">
	.st0{fill:#353A8E;}
	.st1{fill:#FFFFFF;}
	.st2{fill:#A93230;}
</style>
<g>
	<path class="st0" d="M-112.6,490.2c51.7,0,93.5-41.9,93.5-93.5c0-51.7-41.9-93.5-93.5-93.5s-93.5,41.9-93.5,93.5
		C-206.2,448.3-164.3,490.2-112.6,490.2L-112.6,490.2z"/>
	<path class="st1" d="M-123.9,316.2c0,0,6.7,84.2-58.6,132.7l18.7,13l50-103.8v-41.6L-123.9,316.2L-123.9,316.2z"/>
	<path class="st1" d="M-102.1,316.2c0,0-6.7,84.2,58.6,132.7l-18.7,13l-50-103.8v-41.6L-102.1,316.2L-102.1,316.2z"/>
	<path class="st2" d="M-106.9,420.3l4.4,1.1l6.3,1.9l7.8,5l7.4,14.3v31.9l30.5-20.2l-3.1-6c0,0-51.1-39.8-51.1-113.4V315h-16.8v19.9
		c0,73.5-51.1,113.4-51.1,113.4l-3.1,6l30.5,20.2v-31.9l7.4-14.3l7.8-5l6.3-1.9l4.4-1.1H-106.9L-106.9,420.3z"/>
	<polygon class="st1" points="-139.3,399.3 -86.6,399.3 -86.6,401.6 -139.3,401.6 	"/>
	<path class="st1" d="M-113.1,420.8c-27.4,0-28.3,28.1-28.3,28.1c0,12.4,5.5,24.4,5.5,24.4l-11.6,0.2v-18.3
		c0-37,34.5-36.3,34.5-36.3h0.6c0,0,34.5-0.8,34.5,36.3v18.3l-11.6-0.2c0,0,5.5-12,5.5-24.4c0,0-0.8-28.1-28.2-28.1H-113.1
		L-113.1,420.8z"/>
	<path class="st1" d="M-112.7,474.9c21.6,0,41.2-8.8,55.3-22.9c14.2-14.2,22.9-33.7,22.9-55.3s-8.8-41.2-22.9-55.3
		c-14.2-14.2-33.7-22.9-55.3-22.9c-21.6,0-41.2,8.8-55.3,22.9c-14.2,14.2-22.9,33.7-22.9,55.3c0,21.6,8.8,41.2,22.9,55.3
		C-153.9,466.1-134.3,474.9-112.7,474.9L-112.7,474.9z M-112.7,488.6c-25.4,0-48.4-10.3-65-26.9c-16.6-16.6-26.9-39.6-26.9-65
		c0-25.4,10.3-48.4,26.9-65c16.6-16.6,39.6-26.9,65-26.9c25.4,0,48.4,10.3,65,26.9c16.6,16.6,26.9,39.6,26.9,65
		c0,25.4-10.3,48.4-26.9,65C-64.3,478.3-87.3,488.6-112.7,488.6L-112.7,488.6z"/>
	<path class="st0" d="M-200.6,397.4l0-0.5c0-0.6,0.1-1.1,0.3-1.3c0.2-0.2,0.5-0.4,0.9-0.4c0.4,0,0.7,0.1,0.9,0.4
		c0.2,0.3,0.3,0.7,0.3,1.3l0,0.5L-200.6,397.4L-200.6,397.4z M-196.1,397.4l0-0.5l0-0.5c0-0.8,0-1.4-0.1-1.8c-0.1-0.4-0.2-0.7-0.5-1
		c-0.3-0.4-0.7-0.6-1.1-0.8c-0.4-0.2-1-0.3-1.5-0.3c-0.6,0-1.1,0.1-1.5,0.3c-0.4,0.2-0.8,0.5-1.1,0.8c-0.3,0.3-0.4,0.7-0.6,1.1
		c-0.1,0.4-0.2,1.2-0.2,2.3l0,2.8l9.8,0l0-2.5L-196.1,397.4L-196.1,397.4z"/>
	<path class="st0" d="M-198.5,381.4c-0.2-0.1-0.4-0.2-0.6-0.3c-0.2-0.1-0.4-0.2-0.6-0.3c0.4,0,0.6,0,0.9-0.1c0.2,0,0.4,0,0.5,0
		l3.4-0.4l-0.5,2.6L-198.5,381.4L-198.5,381.4z M-192,384.7l-1.6-0.8l0.7-3.7l1.8-0.2l0.5-2.6L-201,379l-0.6,3.3l9.1,5.1L-192,384.7
		L-192,384.7z"/>
	<path class="st0" d="M-195.1,365.9l0.2-0.5c0.2-0.5,0.5-0.9,0.7-1.1c0.3-0.2,0.7-0.1,1.1,0c0.4,0.2,0.6,0.4,0.7,0.7
		c0.1,0.3,0,0.8-0.2,1.3l-0.2,0.5L-195.1,365.9L-195.1,365.9z M-187.9,368.7l-3.6-1.4l4.4-0.7l1.1-2.8l-4.7,1.1
		c0.1-0.7,0-1.3-0.3-1.9c-0.3-0.5-0.8-0.9-1.5-1.2c-0.5-0.2-0.9-0.3-1.4-0.2c-0.5,0-0.9,0.2-1.2,0.4c-0.3,0.2-0.6,0.5-0.9,0.9
		c-0.2,0.4-0.6,1.1-1,2.1l-1,2.6l9.2,3.5L-187.9,368.7L-187.9,368.7z"/>
	<polygon class="st0" points="-182.8,357.7 -191.3,352.8 -189.9,350.5 -181.4,355.4 	"/>
	<path class="st0" d="M-179.3,346.5c0.6,0,1.1-0.1,1.5-0.3c0.4-0.2,0.7-0.4,1-0.7c0.2-0.3,0.3-0.6,0.3-0.9c0-0.3-0.1-0.5-0.4-0.7
		c-0.3-0.2-0.5-0.3-0.8-0.2s-0.7,0.3-1.3,0.7c-0.8,0.6-1.5,0.9-2.1,1c-0.6,0-1.1-0.2-1.7-0.6c-0.7-0.6-1.1-1.3-1.2-2.2
		c-0.1-0.9,0.2-1.7,0.8-2.5c0.3-0.4,0.7-0.8,1.1-1.1c0.4-0.3,0.9-0.5,1.4-0.7l1,1.9c-0.4,0.1-0.7,0.2-1.1,0.4
		c-0.3,0.2-0.6,0.4-0.8,0.6c-0.2,0.3-0.3,0.5-0.3,0.8c0,0.3,0.1,0.5,0.3,0.6c0.2,0.2,0.4,0.2,0.6,0.2c0.2,0,0.6-0.2,1-0.5
		c0,0,0.1,0,0.1-0.1c0.9-0.7,1.6-1,2.1-1.1c0.3,0,0.7,0,1,0.1c0.3,0.1,0.7,0.3,1,0.6c0.8,0.7,1.2,1.4,1.3,2.4c0.1,0.9-0.3,1.8-1,2.7
		c-0.4,0.5-0.9,0.9-1.4,1.2c-0.5,0.3-1.2,0.5-1.9,0.6L-179.3,346.5L-179.3,346.5z"/>
	<path class="st0" d="M-161.6,329.2c0.6,0.2,1.1,0.2,1.5,0.2c0.4,0,0.8-0.2,1.1-0.4c0.3-0.2,0.5-0.4,0.6-0.7c0.1-0.3,0-0.6-0.1-0.8
		c-0.2-0.3-0.4-0.4-0.7-0.5c-0.3,0-0.7,0.1-1.4,0.3c-0.9,0.3-1.7,0.4-2.3,0.3c-0.6-0.1-1-0.5-1.5-1.1c-0.5-0.8-0.7-1.6-0.5-2.4
		s0.7-1.5,1.5-2.1c0.4-0.3,0.9-0.5,1.4-0.7c0.5-0.2,1-0.2,1.5-0.2l0.4,2.1c-0.4,0-0.8,0-1.1,0c-0.3,0.1-0.6,0.2-0.9,0.4
		c-0.3,0.2-0.4,0.4-0.5,0.6s-0.1,0.5,0.1,0.7c0.1,0.2,0.3,0.3,0.6,0.3c0.2,0,0.6-0.1,1.1-0.2c0,0,0.1,0,0.1,0
		c1.1-0.4,1.8-0.5,2.3-0.4c0.3,0.1,0.6,0.2,0.9,0.4s0.5,0.5,0.8,0.8c0.6,0.9,0.8,1.7,0.6,2.7c-0.2,0.9-0.8,1.7-1.7,2.3
		c-0.6,0.4-1.1,0.6-1.7,0.8c-0.6,0.1-1.2,0.1-2,0L-161.6,329.2L-161.6,329.2z"/>
	<path class="st0" d="M-148.1,317.1c0-0.2-0.1-0.4-0.1-0.6c0-0.2-0.1-0.5-0.1-0.7c0.2,0.3,0.4,0.5,0.5,0.7c0.1,0.2,0.2,0.3,0.3,0.4
		l2.2,2.6l-2.4,1.1L-148.1,317.1L-148.1,317.1z M-147.2,324.3l-0.2-1.8l3.5-1.5l1.2,1.4l2.4-1.1l-7.1-7.6l-3.1,1.4l0.9,10.4
		L-147.2,324.3L-147.2,324.3z"/>
	<polygon class="st0" points="-133.9,319.4 -136.4,309.9 -133.8,309.2 -131.3,318.7 	"/>
	<path class="st0" d="M-123.6,317.1l-0.7-9.8l2.6-0.2l4.1,4.8c0.1,0.1,0.2,0.3,0.4,0.6c0.2,0.3,0.4,0.7,0.6,1.1
		c-0.1-0.4-0.1-0.8-0.2-1.1c0-0.3-0.1-0.6-0.1-0.8l-0.4-4.8l2.6-0.2l0.7,9.8l-2.6,0.2l-4.1-4.8c-0.1-0.1-0.2-0.3-0.4-0.6
		c-0.2-0.3-0.4-0.6-0.6-1.1c0.1,0.4,0.2,0.8,0.2,1.1c0,0.3,0.1,0.6,0.1,0.8l0.4,4.8L-123.6,317.1L-123.6,317.1z"/>
	<polygon class="st0" points="-104.9,316.9 -104,309.5 -106.2,309.2 -106,306.9 -98.9,307.7 -99.2,310 -101.4,309.8 -102.2,317.2 	
		"/>
	<polygon class="st0" points="-93.9,316.4 -93.4,314.3 -88.9,315.4 -89.5,317.6 	"/>
	<path class="st0" d="M-76.6,321.1l0.9-1.9l4.7,2.3c0,0.1-0.1,0.1-0.1,0.2s-0.1,0.2-0.1,0.3c-0.7,1.5-1.7,2.5-2.9,3s-2.5,0.3-4-0.4
		c-0.7-0.3-1.3-0.8-1.8-1.2c-0.5-0.5-0.8-1.1-1-1.7c-0.2-0.6-0.3-1.3-0.3-2c0-0.7,0.2-1.4,0.5-2c0.3-0.7,0.7-1.2,1.2-1.7
		c0.5-0.4,1.1-0.8,1.7-1c0.6-0.2,1.3-0.3,2-0.2s1.4,0.2,2,0.6c0.9,0.4,1.6,1,2.1,1.6c0.5,0.7,0.8,1.4,1,2.3l-2.6,0
		c-0.1-0.5-0.2-0.9-0.5-1.2c-0.2-0.3-0.5-0.6-0.9-0.8c-0.7-0.3-1.4-0.4-2.1-0.1c-0.6,0.3-1.2,0.8-1.6,1.7c-0.4,0.8-0.5,1.6-0.3,2.3
		c0.2,0.7,0.6,1.2,1.4,1.5c0.6,0.3,1.2,0.4,1.8,0.3c0.6-0.1,1-0.4,1.3-0.9L-76.6,321.1L-76.6,321.1z"/>
	<polygon class="st0" points="-67.4,330.6 -61.5,322.7 -56.7,326.2 -58,328 -60.7,325.9 -61.7,327.3 -59.1,329.2 -60.4,330.9 
		-63,329 -64,330.3 -61.2,332.4 -62.5,334.1 	"/>
	<path class="st0" d="M-49.6,335.5l0.4,0.4c0.4,0.4,0.6,0.8,0.6,1.1c0,0.3-0.1,0.7-0.5,1c-0.3,0.3-0.6,0.4-0.9,0.3s-0.7-0.3-1.1-0.7
		l-0.3-0.4L-49.6,335.5L-49.6,335.5z M-55.2,340.9l2.8-2.7l-1.2,4.3l2.1,2.2l1-4.7c0.6,0.4,1.2,0.6,1.8,0.5s1.2-0.3,1.7-0.9
		c0.4-0.3,0.6-0.7,0.8-1.2c0.2-0.4,0.2-0.9,0.2-1.3c0-0.4-0.2-0.8-0.4-1.2c-0.2-0.4-0.7-1-1.5-1.8l-1.9-2l-7.1,6.8L-55.2,340.9
		L-55.2,340.9z"/>
	<path class="st0" d="M-41.5,359.5l-1.3-2.1l3.3-2.7c0.2-0.2,0.5-0.4,0.8-0.6c0.3-0.2,0.6-0.5,1-0.7c-0.4,0.2-0.9,0.3-1.5,0.5
		c-0.1,0-0.2,0.1-0.3,0.1l-4.6,1.3l-0.9-1.5l3.2-3.6c0,0,0.1-0.1,0.2-0.2c0.4-0.5,0.8-0.9,1.1-1.1c-0.3,0.2-0.7,0.3-1,0.5
		c-0.3,0.2-0.7,0.3-1,0.5l-3.9,1.8l-1.3-2.1l9.1-3.9l1.4,2.2l-3.5,3.9c0,0-0.1,0.1-0.1,0.1c-0.3,0.4-0.6,0.6-0.8,0.8
		c0.2-0.1,0.3-0.2,0.5-0.2c0.2-0.1,0.5-0.1,0.8-0.2l5.1-1.4l1.4,2.3L-41.5,359.5L-41.5,359.5z"/>
	<path class="st0" d="M-30.9,366.9c0.2,0,0.4,0,0.6-0.1c0.2,0,0.5,0,0.7-0.1c-0.3,0.2-0.5,0.4-0.7,0.5c-0.2,0.1-0.3,0.2-0.4,0.3
		l-2.7,2l-0.9-2.5L-30.9,366.9L-30.9,366.9z M-38.1,367.3l1.8-0.1l1.3,3.6l-1.5,1.1l0.9,2.5l8.1-6.5l-1.1-3.2l-10.4,0.1L-38.1,367.3
		L-38.1,367.3z"/>
	<polygon class="st0" points="-34.1,380.8 -24.5,379.1 -24,381.7 -33.6,383.5 	"/>
	<path class="st0" d="M-32.6,391.3l9.8-0.1l0,2.6l-5,3.7c-0.1,0.1-0.3,0.2-0.6,0.4c-0.3,0.2-0.7,0.3-1.1,0.5
		c0.4-0.1,0.8-0.1,1.1-0.1c0.3,0,0.6,0,0.8,0l4.9,0l0,2.6l-9.8,0.1l0-2.6l5-3.7c0.1-0.1,0.3-0.2,0.6-0.4c0.3-0.2,0.7-0.3,1.1-0.5
		c-0.4,0.1-0.8,0.1-1.1,0.1c-0.3,0-0.6,0-0.8,0l-4.9,0L-32.6,391.3L-32.6,391.3z"/>
	<polygon class="st0" points="-137.9,483.3 -135.9,476 -137.9,475.5 -136.2,473.6 -132.9,474.5 -135.5,483.9 	"/>
	<path class="st0" d="M-121.9,481c-0.2-0.3-0.3-0.7-0.3-1.1c0-0.5,0.2-0.8,0.5-1.1c0.3-0.2,0.7-0.3,1.1-0.3c0.5,0,0.8,0.2,1,0.5
		c0.2,0.3,0.3,0.7,0.3,1.1c0,0.5-0.2,0.8-0.5,1.1s-0.7,0.3-1.1,0.3C-121.3,481.4-121.6,481.3-121.9,481L-121.9,481z M-123.5,486.2
		l2.7,0.3l1.6-1.9c0.7-0.9,1.3-1.7,1.6-2.3c0.3-0.6,0.5-1.2,0.6-1.8c0.1-1.1-0.1-2-0.8-2.7c-0.6-0.7-1.5-1.1-2.6-1.2
		c-1.1-0.1-2.1,0.1-2.8,0.7c-0.7,0.6-1.2,1.4-1.3,2.5c-0.1,0.9,0.1,1.7,0.6,2.3c0.5,0.6,1.1,1,2,1.1c0.2,0,0.4,0,0.5,0
		s0.3,0,0.5-0.1L-123.5,486.2L-123.5,486.2z"/>
	<polygon class="st0" points="-108.6,486.8 -105.4,479 -109.6,479.3 -109.8,477.1 -102.3,476.6 -102.2,477 -105.8,486.6 	"/>
	<path class="st0" d="M-92.7,477.2c0.1-0.5,0.3-0.8,0.8-1c0.4-0.1,0.8,0.1,1.1,0.5c0.3,0.4,0.6,1.2,0.9,2.2c0.3,1,0.4,1.8,0.3,2.4
		c-0.1,0.5-0.3,0.9-0.7,1c-0.4,0.1-0.8,0-1.1-0.5c-0.3-0.4-0.6-1.2-0.9-2.2C-92.7,478.6-92.8,477.8-92.7,477.2L-92.7,477.2z
		 M-89.5,475c-0.9-0.7-1.9-0.9-3-0.6c-1.1,0.3-1.9,1-2.3,2c-0.4,1-0.4,2.3,0,3.9c0.4,1.5,1,2.7,1.9,3.4s1.9,0.9,3,0.6
		c1.1-0.3,1.9-0.9,2.3-2c0.4-1,0.4-2.3,0-3.8C-88,476.9-88.7,475.7-89.5,475L-89.5,475z"/>
	<path class="st1" d="M-104.7,453h-27.4c0,0-0.9,1,0,1.6c0,0,1.4-0.4,1.4,1.8c0,0,0.9,7.2,6.2,7.2h0.8c0,0,1.4,3.6,3.1,0h15.2
		c0,0,1.5,3.6,3.1,0c0,0,9.7,1.3,9.7-10.8c0,0,1.7-15.2-12.1-15.2L-104.7,453L-104.7,453z"/>
	<path class="st1" d="M-124.1,440c0.6,0,1.1-0.5,1.1-1.1c0-0.6-0.5-1.1-1.1-1.1s-1.1,0.5-1.1,1.1C-125.3,439.5-124.8,440-124.1,440
		L-124.1,440z"/>
	<path class="st1" d="M-113.9,440.2c-0.6,0-1.1-0.5-1.1-1.1c0-0.6,0.5-1.1,1.1-1.1c0.6,0,1.1,0.5,1.1,1.1
		C-112.8,439.7-113.3,440.2-113.9,440.2L-113.9,440.2z"/>
	<path class="st1" d="M-119.3,447.7c-1.1,0-1-0.8-1-0.8c0-4.9-3.7-7-3.7-7l1-0.8l2.3,2.3c0-1,1.3-1.3,1.3-1.3v-1.4
		c0,0-3.3-3.1,0.1-7.4c0.3-0.4,0.8,0,0.8,0c3.5,4.5,0.1,7.4,0.1,7.4v1.4c0,0,1.2,0.4,1.2,1.3l2.5-2.6l0.8,0.9c0,0-3.6,2.3-3.7,7.2
		c0,0,0.1,0.8-1,0.8L-119.3,447.7L-119.3,447.7z"/>
</g>
</svg>
