<?xml version="1.0" encoding="utf-8"?>
<!-- Generator: Adobe Illustrator 19.1.0, SVG Export Plug-In . SVG Version: 6.00 Build 0)  -->
<svg version="1.1" id="Layer_1" xmlns="http://www.w3.org/2000/svg" xmlns:xlink="http://www.w3.org/1999/xlink" x="0px" y="0px"
	 viewBox="-417.1 607.1 187 187" enable-background="new -417.1 607.1 187 187" xml:space="preserve">
<g>
	<path fill="#353A8E" d="M-323.6,794.1c51.7,0,93.5-41.9,93.5-93.5c0-51.7-41.9-93.5-93.5-93.5s-93.5,41.9-93.5,93.5
		C-417.2,752.2-375.3,794.1-323.6,794.1L-323.6,794.1z"/>
	<path fill="#FFFFFF" d="M-334.9,620.1c0,0,6.7,84.2-58.6,132.7l18.7,13l50-103.8v-41.6L-334.9,620.1L-334.9,620.1z"/>
	<path fill="#FFFFFF" d="M-313.1,620.1c0,0-6.7,84.2,58.6,132.7l-18.7,13l-50-103.8v-41.6L-313.1,620.1L-313.1,620.1z"/>
	<path fill="#A93230" d="M-317.9,724.2l4.4,1.1l6.3,1.9l7.8,5l7.4,14.3v31.9l30.5-20.2l-3.1-6c0,0-51.1-39.8-51.1-113.4v-19.9h-16.8
		v19.9c0,73.5-51.1,113.4-51.1,113.4l-3.1,6l30.5,20.2v-31.9l7.4-14.3l7.8-5l6.3-1.9l4.4-1.1H-317.9L-317.9,724.2z"/>
	<polygon fill="#FFFFFF" points="-350.3,703.2 -297.6,703.2 -297.6,705.5 -350.3,705.5 	"/>
	<path fill="#FFFFFF" d="M-324.1,724.7c-27.4,0-28.3,28.1-28.3,28.1c0,12.4,5.5,24.4,5.5,24.4l-11.6,0.2v-18.3
		c0-37,34.5-36.3,34.5-36.3h0.6c0,0,34.5-0.8,34.5,36.3v18.3l-11.6-0.2c0,0,5.5-12,5.5-24.4c0,0-0.8-28.1-28.2-28.1H-324.1
		L-324.1,724.7z"/>
	<path fill="#FFFFFF" d="M-323.7,778.8c21.6,0,41.2-8.8,55.3-22.9c14.2-14.2,22.9-33.7,22.9-55.3s-8.8-41.2-22.9-55.3
		c-14.2-14.2-33.7-22.9-55.3-22.9s-41.2,8.8-55.3,22.9c-14.2,14.2-22.9,33.7-22.9,55.3s8.8,41.2,22.9,55.3
		C-364.9,770-345.3,778.8-323.7,778.8L-323.7,778.8z M-323.7,792.5c-25.4,0-48.4-10.3-65-26.9s-26.9-39.6-26.9-65s10.3-48.4,26.9-65
		c16.6-16.6,39.6-26.9,65-26.9c25.4,0,48.4,10.3,65,26.9c16.6,16.6,26.9,39.6,26.9,65s-10.3,48.4-26.9,65S-298.3,792.5-323.7,792.5
		L-323.7,792.5z"/>
	<path fill="#353A8E" d="M-411.6,701.3v-0.5c0-0.6,0.1-1.1,0.3-1.3c0.2-0.2,0.5-0.4,0.9-0.4s0.7,0.1,0.9,0.4
		c0.2,0.3,0.3,0.7,0.3,1.3v0.5H-411.6L-411.6,701.3z M-407.1,701.3v-0.5v-0.5c0-0.8,0-1.4-0.1-1.8c-0.1-0.4-0.2-0.7-0.5-1
		c-0.3-0.4-0.7-0.6-1.1-0.8c-0.4-0.2-1-0.3-1.5-0.3c-0.6,0-1.1,0.1-1.5,0.3c-0.4,0.2-0.8,0.5-1.1,0.8c-0.3,0.3-0.4,0.7-0.6,1.1
		c-0.1,0.4-0.2,1.2-0.2,2.3v2.8h9.8v-2.5L-407.1,701.3L-407.1,701.3z"/>
	<path fill="#353A8E" d="M-409.5,685.3c-0.2-0.1-0.4-0.2-0.6-0.3c-0.2-0.1-0.4-0.2-0.6-0.3c0.4,0,0.6,0,0.9-0.1c0.2,0,0.4,0,0.5,0
		l3.4-0.4l-0.5,2.6L-409.5,685.3L-409.5,685.3z M-403,688.6l-1.6-0.8l0.7-3.7l1.8-0.2l0.5-2.6l-10.4,1.6l-0.6,3.3l9.1,5.1
		L-403,688.6L-403,688.6z"/>
	<path fill="#353A8E" d="M-406.1,669.8l0.2-0.5c0.2-0.5,0.5-0.9,0.7-1.1c0.3-0.2,0.7-0.1,1.1,0c0.4,0.2,0.6,0.4,0.7,0.7
		c0.1,0.3,0,0.8-0.2,1.3l-0.2,0.5L-406.1,669.8L-406.1,669.8z M-398.9,672.6l-3.6-1.4l4.4-0.7l1.1-2.8l-4.7,1.1
		c0.1-0.7,0-1.3-0.3-1.9c-0.3-0.5-0.8-0.9-1.5-1.2c-0.5-0.2-0.9-0.3-1.4-0.2c-0.5,0-0.9,0.2-1.2,0.4c-0.3,0.2-0.6,0.5-0.9,0.9
		c-0.2,0.4-0.6,1.1-1,2.1l-1,2.6l9.2,3.5L-398.9,672.6L-398.9,672.6z"/>
	<polygon fill="#353A8E" points="-393.8,661.6 -402.3,656.7 -400.9,654.4 -392.4,659.3 	"/>
	<path fill="#353A8E" d="M-390.3,650.4c0.6,0,1.1-0.1,1.5-0.3c0.4-0.2,0.7-0.4,1-0.7c0.2-0.3,0.3-0.6,0.3-0.9c0-0.3-0.1-0.5-0.4-0.7
		c-0.3-0.2-0.5-0.3-0.8-0.2c-0.3,0.1-0.7,0.3-1.3,0.7c-0.8,0.6-1.5,0.9-2.1,1c-0.6,0-1.1-0.2-1.7-0.6c-0.7-0.6-1.1-1.3-1.2-2.2
		c-0.1-0.9,0.2-1.7,0.8-2.5c0.3-0.4,0.7-0.8,1.1-1.1c0.4-0.3,0.9-0.5,1.4-0.7l1,1.9c-0.4,0.1-0.7,0.2-1.1,0.4
		c-0.3,0.2-0.6,0.4-0.8,0.6c-0.2,0.3-0.3,0.5-0.3,0.8s0.1,0.5,0.3,0.6c0.2,0.2,0.4,0.2,0.6,0.2c0.2,0,0.6-0.2,1-0.5
		c0,0,0.1,0,0.1-0.1c0.9-0.7,1.6-1,2.1-1.1c0.3,0,0.7,0,1,0.1c0.3,0.1,0.7,0.3,1,0.6c0.8,0.7,1.2,1.4,1.3,2.4c0.1,0.9-0.3,1.8-1,2.7
		c-0.4,0.5-0.9,0.9-1.4,1.2s-1.2,0.5-1.9,0.6L-390.3,650.4L-390.3,650.4z"/>
	<path fill="#353A8E" d="M-372.6,633.1c0.6,0.2,1.1,0.2,1.5,0.2s0.8-0.2,1.1-0.4c0.3-0.2,0.5-0.4,0.6-0.7c0.1-0.3,0-0.6-0.1-0.8
		c-0.2-0.3-0.4-0.4-0.7-0.5c-0.3,0-0.7,0.1-1.4,0.3c-0.9,0.3-1.7,0.4-2.3,0.3c-0.6-0.1-1-0.5-1.5-1.1c-0.5-0.8-0.7-1.6-0.5-2.4
		c0.2-0.8,0.7-1.5,1.5-2.1c0.4-0.3,0.9-0.5,1.4-0.7s1-0.2,1.5-0.2l0.4,2.1c-0.4,0-0.8,0-1.1,0c-0.3,0.1-0.6,0.2-0.9,0.4
		c-0.3,0.2-0.4,0.4-0.5,0.6c-0.1,0.2-0.1,0.5,0.1,0.7c0.1,0.2,0.3,0.3,0.6,0.3c0.2,0,0.6-0.1,1.1-0.2h0.1c1.1-0.4,1.8-0.5,2.3-0.4
		c0.3,0.1,0.6,0.2,0.9,0.4c0.3,0.2,0.5,0.5,0.8,0.8c0.6,0.9,0.8,1.7,0.6,2.7c-0.2,0.9-0.8,1.7-1.7,2.3c-0.6,0.4-1.1,0.6-1.7,0.8
		c-0.6,0.1-1.2,0.1-2,0L-372.6,633.1L-372.6,633.1z"/>
	<path fill="#353A8E" d="M-359.1,621c0-0.2-0.1-0.4-0.1-0.6s-0.1-0.5-0.1-0.7c0.2,0.3,0.4,0.5,0.5,0.7s0.2,0.3,0.3,0.4l2.2,2.6
		l-2.4,1.1L-359.1,621L-359.1,621z M-358.2,628.2l-0.2-1.8l3.5-1.5l1.2,1.4l2.4-1.1l-7.1-7.6l-3.1,1.4l0.9,10.4L-358.2,628.2
		L-358.2,628.2z"/>
	<polygon fill="#353A8E" points="-344.9,623.3 -347.4,613.8 -344.8,613.1 -342.3,622.6 	"/>
	<path fill="#353A8E" d="M-334.6,621l-0.7-9.8l2.6-0.2l4.1,4.8c0.1,0.1,0.2,0.3,0.4,0.6c0.2,0.3,0.4,0.7,0.6,1.1
		c-0.1-0.4-0.1-0.8-0.2-1.1c0-0.3-0.1-0.6-0.1-0.8l-0.4-4.8l2.6-0.2l0.7,9.8l-2.6,0.2l-4.1-4.8c-0.1-0.1-0.2-0.3-0.4-0.6
		c-0.2-0.3-0.4-0.6-0.6-1.1c0.1,0.4,0.2,0.8,0.2,1.1c0,0.3,0.1,0.6,0.1,0.8l0.4,4.8L-334.6,621L-334.6,621z"/>
	<polygon fill="#353A8E" points="-315.9,620.8 -315,613.4 -317.2,613.1 -317,610.8 -309.9,611.6 -310.2,613.9 -312.4,613.7 
		-313.2,621.1 	"/>
	<polygon fill="#353A8E" points="-304.9,620.3 -304.4,618.2 -299.9,619.3 -300.5,621.5 	"/>
	<path fill="#353A8E" d="M-287.6,625l0.9-1.9l4.7,2.3c0,0.1-0.1,0.1-0.1,0.2s-0.1,0.2-0.1,0.3c-0.7,1.5-1.7,2.5-2.9,3
		s-2.5,0.3-4-0.4c-0.7-0.3-1.3-0.8-1.8-1.2c-0.5-0.5-0.8-1.1-1-1.7c-0.2-0.6-0.3-1.3-0.3-2c0-0.7,0.2-1.4,0.5-2
		c0.3-0.7,0.7-1.2,1.2-1.7c0.5-0.4,1.1-0.8,1.7-1c0.6-0.2,1.3-0.3,2-0.2c0.7,0.1,1.4,0.2,2,0.6c0.9,0.4,1.6,1,2.1,1.6
		c0.5,0.7,0.8,1.4,1,2.3h-2.6c-0.1-0.5-0.2-0.9-0.5-1.2c-0.2-0.3-0.5-0.6-0.9-0.8c-0.7-0.3-1.4-0.4-2.1-0.1
		c-0.6,0.3-1.2,0.8-1.6,1.7c-0.4,0.8-0.5,1.6-0.3,2.3c0.2,0.7,0.6,1.2,1.4,1.5c0.6,0.3,1.2,0.4,1.8,0.3c0.6-0.1,1-0.4,1.3-0.9
		L-287.6,625L-287.6,625z"/>
	<polygon fill="#353A8E" points="-278.4,634.5 -272.5,626.6 -267.7,630.1 -269,631.9 -271.7,629.8 -272.7,631.2 -270.1,633.1 
		-271.4,634.8 -274,632.9 -275,634.2 -272.2,636.3 -273.5,638 	"/>
	<path fill="#353A8E" d="M-260.6,639.4l0.4,0.4c0.4,0.4,0.6,0.8,0.6,1.1s-0.1,0.7-0.5,1c-0.3,0.3-0.6,0.4-0.9,0.3
		c-0.3-0.1-0.7-0.3-1.1-0.7l-0.3-0.4L-260.6,639.4L-260.6,639.4z M-266.2,644.8l2.8-2.7l-1.2,4.3l2.1,2.2l1-4.7
		c0.6,0.4,1.2,0.6,1.8,0.5c0.6-0.1,1.2-0.3,1.7-0.9c0.4-0.3,0.6-0.7,0.8-1.2c0.2-0.4,0.2-0.9,0.2-1.3s-0.2-0.8-0.4-1.2
		c-0.2-0.4-0.7-1-1.5-1.8l-1.9-2l-7.1,6.8L-266.2,644.8L-266.2,644.8z"/>
	<path fill="#353A8E" d="M-252.5,663.4l-1.3-2.1l3.3-2.7c0.2-0.2,0.5-0.4,0.8-0.6c0.3-0.2,0.6-0.5,1-0.7c-0.4,0.2-0.9,0.3-1.5,0.5
		c-0.1,0-0.2,0.1-0.3,0.1l-4.6,1.3l-0.9-1.5l3.2-3.6c0,0,0.1-0.1,0.2-0.2c0.4-0.5,0.8-0.9,1.1-1.1c-0.3,0.2-0.7,0.3-1,0.5
		c-0.3,0.2-0.7,0.3-1,0.5l-3.9,1.8l-1.3-2.1l9.1-3.9l1.4,2.2l-3.5,3.9l-0.1,0.1c-0.3,0.4-0.6,0.6-0.8,0.8c0.2-0.1,0.3-0.2,0.5-0.2
		c0.2-0.1,0.5-0.1,0.8-0.2l5.1-1.4l1.4,2.3L-252.5,663.4L-252.5,663.4z"/>
	<path fill="#353A8E" d="M-241.9,670.8c0.2,0,0.4,0,0.6-0.1c0.2,0,0.5,0,0.7-0.1c-0.3,0.2-0.5,0.4-0.7,0.5c-0.2,0.1-0.3,0.2-0.4,0.3
		l-2.7,2l-0.9-2.5L-241.9,670.8L-241.9,670.8z M-249.1,671.2l1.8-0.1l1.3,3.6l-1.5,1.1l0.9,2.5l8.1-6.5l-1.1-3.2l-10.4,0.1
		L-249.1,671.2L-249.1,671.2z"/>
	<polygon fill="#353A8E" points="-245.1,684.7 -235.5,683 -235,685.6 -244.6,687.4 	"/>
	<path fill="#353A8E" d="M-243.6,695.2l9.8-0.1v2.6l-5,3.7c-0.1,0.1-0.3,0.2-0.6,0.4c-0.3,0.2-0.7,0.3-1.1,0.5
		c0.4-0.1,0.8-0.1,1.1-0.1s0.6,0,0.8,0h4.9v2.6l-9.8,0.1v-2.6l5-3.7c0.1-0.1,0.3-0.2,0.6-0.4c0.3-0.2,0.7-0.3,1.1-0.5
		c-0.4,0.1-0.8,0.1-1.1,0.1c-0.3,0-0.6,0-0.8,0h-4.9V695.2L-243.6,695.2z"/>
	<polygon fill="#353A8E" points="-348.9,787.2 -346.9,779.9 -348.9,779.4 -347.2,777.5 -343.9,778.4 -346.5,787.8 	"/>
	<path fill="#353A8E" d="M-332.9,784.9c-0.2-0.3-0.3-0.7-0.3-1.1c0-0.5,0.2-0.8,0.5-1.1c0.3-0.2,0.7-0.3,1.1-0.3
		c0.5,0,0.8,0.2,1,0.5c0.2,0.3,0.3,0.7,0.3,1.1c0,0.5-0.2,0.8-0.5,1.1c-0.3,0.3-0.7,0.3-1.1,0.3
		C-332.3,785.3-332.6,785.2-332.9,784.9L-332.9,784.9z M-334.5,790.1l2.7,0.3l1.6-1.9c0.7-0.9,1.3-1.7,1.6-2.3s0.5-1.2,0.6-1.8
		c0.1-1.1-0.1-2-0.8-2.7c-0.6-0.7-1.5-1.1-2.6-1.2c-1.1-0.1-2.1,0.1-2.8,0.7c-0.7,0.6-1.2,1.4-1.3,2.5c-0.1,0.9,0.1,1.7,0.6,2.3
		s1.1,1,2,1.1c0.2,0,0.4,0,0.5,0s0.3,0,0.5-0.1L-334.5,790.1L-334.5,790.1z"/>
	<polygon fill="#353A8E" points="-319.6,790.7 -316.4,782.9 -320.6,783.2 -320.8,781 -313.3,780.5 -313.2,780.9 -316.8,790.5 	"/>
	<path fill="#353A8E" d="M-303.7,781.1c0.1-0.5,0.3-0.8,0.8-1c0.4-0.1,0.8,0.1,1.1,0.5c0.3,0.4,0.6,1.2,0.9,2.2
		c0.3,1,0.4,1.8,0.3,2.4c-0.1,0.5-0.3,0.9-0.7,1c-0.4,0.1-0.8,0-1.1-0.5c-0.3-0.4-0.6-1.2-0.9-2.2
		C-303.7,782.5-303.8,781.7-303.7,781.1L-303.7,781.1z M-300.5,778.9c-0.9-0.7-1.9-0.9-3-0.6c-1.1,0.3-1.9,1-2.3,2
		c-0.4,1-0.4,2.3,0,3.9c0.4,1.5,1,2.7,1.9,3.4c0.9,0.7,1.9,0.9,3,0.6c1.1-0.3,1.9-0.9,2.3-2c0.4-1,0.4-2.3,0-3.8
		C-299,780.8-299.7,779.6-300.5,778.9L-300.5,778.9z"/>
	<path fill="#FFFFFF" d="M-315.7,756.9h-27.4c0,0-0.9,1,0,1.6c0,0,1.4-0.4,1.4,1.8c0,0,0.9,7.2,6.2,7.2h0.8c0,0,1.4,3.6,3.1,0h15.2
		c0,0,1.5,3.6,3.1,0c0,0,9.7,1.3,9.7-10.8c0,0,1.7-15.2-12.1-15.2V756.9L-315.7,756.9z"/>
	<path fill="#FFFFFF" d="M-335.1,743.9c0.6,0,1.1-0.5,1.1-1.1c0-0.6-0.5-1.1-1.1-1.1s-1.1,0.5-1.1,1.1
		C-336.3,743.4-335.8,743.9-335.1,743.9L-335.1,743.9z"/>
	<path fill="#FFFFFF" d="M-324.9,744.1c-0.6,0-1.1-0.5-1.1-1.1c0-0.6,0.5-1.1,1.1-1.1c0.6,0,1.1,0.5,1.1,1.1
		C-323.8,743.6-324.3,744.1-324.9,744.1L-324.9,744.1z"/>
	<path fill="#FFFFFF" d="M-330.3,751.6c-1.1,0-1-0.8-1-0.8c0-4.9-3.7-7-3.7-7l1-0.8l2.3,2.3c0-1,1.3-1.3,1.3-1.3v-1.4
		c0,0-3.3-3.1,0.1-7.4c0.3-0.4,0.8,0,0.8,0c3.5,4.5,0.1,7.4,0.1,7.4v1.4c0,0,1.2,0.4,1.2,1.3l2.5-2.6l0.8,0.9c0,0-3.6,2.3-3.7,7.2
		c0,0,0.1,0.8-1,0.8H-330.3L-330.3,751.6z"/>
</g>
</svg>
