<?xml version="1.0" encoding="utf-8"?>
<!-- Generator: Adobe Illustrator 19.1.0, SVG Export Plug-In . SVG Version: 6.00 Build 0)  -->
<svg version="1.1" id="Layer_1" xmlns="http://www.w3.org/2000/svg" xmlns:xlink="http://www.w3.org/1999/xlink" x="0px" y="0px"
	 viewBox="-227 291.3 156.8 211.7" style="enable-background:new -227 291.3 156.8 211.7;" xml:space="preserve">
<style type="text/css">
	.st0{fill:#33348E;}
	.st1{fill:none;stroke:#FFFFFF;stroke-width:0.7239;}
	.st2{fill:#FFFFFF;}
	.st3{fill:#65493C;}
	.st4{fill:#CC1E4C;stroke:#000000;stroke-width:0.7239;}
	.st5{fill:#CF8C2C;stroke:#000000;stroke-width:0.7239;}
	.st6{fill:#7B002B;stroke:#000000;stroke-width:0.7239;}
	.st7{fill:#F0C560;stroke:#000000;stroke-width:0.7239;}
	.st8{fill:#FFFFFF;stroke:#000000;stroke-width:0.7239;}
	.st9{fill:#259271;}
	.st10{fill:#65493C;stroke:#000000;stroke-width:0.7239;}
	.st11{fill:#1879BF;stroke:#000000;stroke-width:0.7239;}
	.st12{fill:#E6AC86;stroke:#000000;stroke-width:0.7239;}
	.st13{fill:#1879BF;}
</style>
<circle class="st0" cx="-148.6" cy="424.6" r="78.4"/>
<path class="st1" d="M-154.4,497c-46.9-54.2-26.3-141.9,5.8-150.4"/>
<path class="st1" d="M-142.8,497c46.9-54.2,26.3-141.9-5.8-150.4"/>
<path class="st1" d="M-141.9,498.2c33.3-6,63.1-37,63.1-77.6c0-43.3-26.5-74.4-69.8-74.4c-39.8,0-75.3,31.1-75.3,74.4
	c0,40.8,33.6,71.7,68.8,77.6"/>
<ellipse class="st1" cx="-148.6" cy="498.4" rx="6.8" ry="3.2"/>
<path class="st2" d="M-186.1,481.3l-19.2-21.2l14.4-13l4.1,4.5l-8.6,7.7l3.2,3.5l5.6-5.1l4.1,4.5l-5.6,5.1l7.8,8.7L-186.1,481.3z"/>
<path class="st2" d="M-144,481.6c-0.7,1.7-2.4,2.7-4.6,2.7c-3.5,0-5.5-2-5.5-5.3c0-3.3,2.3-5.3,5.2-5.3c2.3,0,3.8,0.8,4.6,2.1
	l6.8-5.4c-2.1-3.5-6.1-5.5-12-5.5c-7.6,0-13.5,5.3-13.5,13.7c0,8.5,5.4,13.8,14.4,13.8c5.7,0,10-2.6,11.9-7L-144,481.6z"/>
<path class="st2" d="M-105.3,456.7l0.9,0.4c1.7,0.9,4,2.5,2.9,4.6c-1,2-2.7,2-4.6,1l-2-0.9L-105.3,456.7l-4.5-9.3l-14.1,26.9
	l7.3,3.9l5.8-10.9l1.5,0.7c6.9,3.6,11,1.8,13.6-3.1c2.5-4.8,1.3-9.3-5.6-12.9l-8.5-4.4"/>
<path class="st2" d="M-87.1,393.3c3.6,0.9,7.5,2.8,10.1,5.2l0.5,2.2c-1.6-1.5-6.5-4.1-9.9-4.9L-87.1,393.3z"/>
<path class="st2" d="M-85.6,399.9c3.6,0.9,7.5,2.8,10.1,5.2l0.5,2.2c-1.6-1.5-6.5-4.1-9.9-4.9L-85.6,399.9z"/>
<path class="st2" d="M-84.9,406.5c3.6,0.9,7.5,2.8,10.1,5.2l0.1,2.1c-1.6-1.5-6.5-4.1-9.9-4.9L-84.9,406.5z"/>
<path class="st2" d="M-84.5,413.1c3.6,0.9,7.5,2.8,10.1,5.2l-0.1,2.1c-1.6-1.5-6.5-4.1-9.9-4.9L-84.5,413.1z"/>
<path class="st3" d="M-125,348.7c-10.3-7.5-36.9-5.6-47.7,0.2"/>
<path class="st4" d="M-178.4,326.5c-3.2,0.2-7.5-0.4-9.8-1.5c-2.2-1.1-4.5,0.2-6.7,1.9c0.5-1.9,2-3.2,4.6-4.1
	c-1.5-0.4-4.8-1.6-6.1-3.6c3.5,1.1,7.1,1.1,9.8,0.5c2.7-0.6,7.8-0.7,10.1,2.2"/>
<path class="st4" d="M-122.9,318.6c2.6-0.2,4.6-0.2,6.6,2.4c2,2.6,7.1,2.5,8.2-0.9c0.1,1.8-0.7,4.1-0.7,4.1c1.9-0.8,3.2-1.9,3.9-2.7
	c-0.4,3.2-4.1,12.3-16.6,6.2"/>
<path class="st4" d="M-160.5,301.5c-1.6-1.1-4.5-2.2-6-0.9c-1.5,1.3-3.5,2-4.7,0.6c0.7,1.2,2.9,2.1,4.6,0.8c1.6-1.3,3.4-1.1,4.3,0"
	/>
<path class="st5" d="M-152.5,308.4c-0.1-2-2.4-7.1-3.6-5.2c-0.6,0.9-2.1,1.1-2.8,0.5c-0.7-0.6-2.7-1.1-3.5-0.5
	c-0.8,0.6-2.4,0-2.4-0.9c0-0.9,0.8-1.3,2-1.1c1.2,0.2,4.1,0.2,4.8-0.4c0.7-0.6-0.1-1.9-1.8-2c-1.6-0.1-5.8-0.2-6.8,1.1
	c-0.9-1.1-1.3-4.3,1.1-4c2.3,0.4,2.7-0.6,3.2-1.3c0.5-0.7,2-1.5,3.6-1.6c1.6-0.1,2.8-0.5,4.6,0c1.8,0.5,2.3,0,2.6-0.8
	c0.9,1.4,0.9,2.7,0.7,3.2c1.6-0.5,4.2,0.1,4.7,1.2c0.5,1.1,1.2,0.9,2.1,0.9c0.9,0,1.6,0.2,2,1.6c0.4,1.4,1.2,0.5,1.9,0.8
	c0.7,0.4,2.7,1.2,3.1,2.4c0.4,1.2,1.3,1.5,2.9,2.6"/>
<path class="st4" d="M-177.7,317.4c-0.1-1.9-2.1-4-3.5-5.3c-1.4-1.3-1.3-3.2,0.8-4.7c2.1-1.5,10.3-4.9,16.6-3.1
	c6.2,1.9,19.3,3.2,30.1-1.1l11.3,12.2"/>
<path class="st6" d="M-130.1,313.9c5.8,2,9.1,0.7,9.2-0.6s-3.6-1-5-0.9c-1.1,0.1-2.8,0-3.1-0.4"/>
<path class="st4" d="M-129,312.1c0.3,0.4,2,0.4,3.1,0.4c1.4-0.1,5.1-0.4,5,0.9c0.2-0.6-0.1-1.8-0.4-2.5h-7.5"/>
<path class="st6" d="M-119.4,310c0.9,1.1,0,2.9-2.5,2.2c-2.5-0.7-5.5-1.5-6.8-0.6c-0.3,0.2-0.4,0.4-0.3,0.5
	c-0.3-0.4-0.3-1.7-0.7-2.5l8.3-1.1"/>
<path class="st4" d="M-130.3,309.2c0,0.6,0.7,1.1,2.8,0.6c4.5-1.1,7.2-0.8,8.1,0.2c-0.2-0.6-0.8-1.8-1-2.6H-131"/>
<path class="st6" d="M-133.3,307.9c-0.1-1.1,1.8-3.3,4-2.6c2.2,0.7,5.3,0.6,6.9-0.4c1.6-0.9,4.1-0.9,5.3-0.1c0.9,0.9,0,3.2-1.6,3.6
	c-1.6,0.5-7.1-0.8-9.3-0.9c-1.2-0.1-2.3,0.9-2.3,1.6c-0.5-1.1-0.9-1.4-1.3-1.8C-132.1,307.7-132.9,308.3-133.3,307.9z"/>
<path class="st4" d="M-117.1,304.8c-0.9-0.9-1.2-2.1-1.9-3.6c-0.7-1.5-1.8-2.6-4.1-0.8c-2.4,1.8-7.4,0.8-9.4,0.4
	c-2-0.5-3.4,0-3.6,1.3c-0.2,1.3,1.4,4.6,2.8,5.9c-0.1-1.1,1.8-3.3,4-2.6c2.2,0.7,5.3,0.6,6.9-0.4C-120.7,304-118.3,304-117.1,304.8z
	"/>
<path class="st5" d="M-121.4,337.5l3.1-4.1c5.8-5.2-0.9-9.8-3.4-11c5.1-6.6-0.4-8.6-1.9-8.2c-0.6-1.3-2.4-1.9-3.6-2
	c-1.3-0.1-2.3,0.2-3.4-0.8c-1.1-1.1-4.2-1.2-6.9,0.4c-2.7,1.5-7.2,1.9-9.8,0.1c-2.6-1.8-8.6-0.9-10.8,1.2c-2.2,2.1-4.2,3.9-8.2-0.5
	c-5.5-5.9-12.3,1.4-11.8,5.9c0.6,4.5-1.5,8.1-4.3,8.7l5.6,9.2"/>
<path class="st7" d="M-148.6,327.5c1.1,3,7.8,3.7,9.8,1c0.8,3,6,4,7.9,1.6c0.6,3,5.8,4.3,7.2,3c1,2.9,4.5,3.3,6.5,1.3l1.9-2.3
	c1.6,0.1,1.8-1.1,2.6-2.1c0.8-1,1.5-1.5,3.4-1.8c-0.6-0.6-0.9-1.6-2-1.4l-4.3-2.5l-2.6,5.3l1.4,0.9c-3.4,5-6.1,2.1-5.7-1.5l-1.2-0.3
	c-1.5,3.8-5.2,2.9-5.2-1.2l-1.7-0.6c-2,3.8-7.3,2.4-7.2-2.1l-1.7-0.1c-0.2,4.3-8,4.2-9-1.1c-1,5.3-8.7,5-9,0.7l-1.7,0.1
	c0.1,4.5-5.2,5.4-7.3,1.7l-1.7,0.6c0,4.1-3.7,5-5.2,1.2l-1.2,0.2c0.5,3.6-2.3,6.5-5.7,1.5l1.4-0.9l-2.6-5.3l-4.3,2.5
	c-1.1-0.2-1.5,0.8-2,1.4c1.9,0.2,2.6,0.8,3.4,1.8c0.8,1,1,2.3,2.6,2.1l1.9,2.2c1.9,2,5.5,1.6,6.5-1.2c1.4,1.2,6.6,0,7.2-3
	c1.9,2.4,7.3,1.9,8.1-1.1C-156.4,330.9-149.7,330.5-148.6,327.5z"/>
<rect x="-153.2" y="317.4" class="st7" width="9.2" height="8"/>
<polygon class="st7" points="-125.1,328.4 -125.1,320.7 -133.9,318.3 -134,326.1 "/>
<polygon class="st7" points="-172.1,328.4 -172,320.7 -163.1,318.3 -163.2,326.1 "/>
<circle class="st7" cx="-174.8" cy="326.8" r="2.2"/>
<circle class="st7" cx="-158.6" cy="322.5" r="2.2"/>
<circle class="st7" cx="-122.4" cy="326.8" r="2.2"/>
<circle class="st7" cx="-138.6" cy="322.5" r="2.2"/>
<path class="st7" d="M-125,348.7c-10.3-7.5-36.9-5.6-47.7,0.2c-1.8,0.2-3.2-2.6-1.6-4l-2.5-6.5c-1.1-0.1-1.8-1.4-1.1-2.5
	c0.7-1.1,9.5-5.9,29.3-5.9c19.7,0,27.4,6.3,28.3,7.3c0.9,0.9,0.5,2.6-0.7,2.6l-2.8,4.7C-122.9,346.1-123.8,348.4-125,348.7z"/>
<path class="st7" d="M-121,340c1.2,0,1.6-1.6,0.7-2.6c-0.9-0.9-8.6-7.3-28.3-7.3c-19.7,0-28.6,4.8-29.3,5.9c-0.7,1.1,0,2.4,1.1,2.5
	c4-1.9,15.9-5.2,28.7-5.2C-138,333.3-126.1,336.1-121,340z"/>
<path class="st7" d="M-125,348.7c-10.3-7.5-36.9-5.6-47.7,0.2c-1.8,0.2-3.2-2.6-1.6-4c3.4-1.9,16.8-4.9,25.7-4.9
	c8.9,0,20.9,2.6,24.8,4.7C-122.9,346.1-123.8,348.4-125,348.7z"/>
<circle class="st4" cx="-148.6" cy="336.7" r="2.7"/>
<circle class="st4" cx="-163.9" cy="338.1" r="2.7"/>
<circle class="st4" cx="-173.2" cy="340.7" r="2.7"/>
<circle class="st4" cx="-134.3" cy="338.1" r="2.7"/>
<circle class="st4" cx="-125" cy="340.7" r="2.7"/>
<circle class="st4" cx="-168.6" cy="339.2" r="1.2"/>
<circle class="st4" cx="-157.7" cy="336.8" r="1.2"/>
<circle class="st4" cx="-129.6" cy="339.2" r="1.2"/>
<path class="st4" d="M-140.5,338c-0.7,0-1.2-0.5-1.2-1.2c0-0.7,0.5-1.2,1.2-1.2c0.7,0,1.2,0.5,1.2,1.2
	C-139.3,337.5-139.9,338-140.5,338z"/>
<path class="st8" d="M-148.6,428.8c0.8-2.1,4-2.9,6.7-2.9h20.6c2,0,3.4-2.2,3.4-3.9v-73.1h-61.3V422c0,1.6,1.4,3.9,3.4,3.9h20.6
	C-152.6,425.9-149.4,426.7-148.6,428.8z"/>
<rect x="-178.1" y="350.1" class="st4" width="28.6" height="36.4"/>
<rect x="-147.7" y="350.1" class="st8" width="28.6" height="36.4"/>
<path class="st8" d="M-149.5,424.6v-36.4h-28.6v33.7c0,1.2,1.1,2.7,2.5,2.7H-149.5L-149.5,424.6z"/>
<path class="st4" d="M-119.1,421.5v-33.4h-28.6v36.4h26C-120.5,424.6-119.1,422.9-119.1,421.5z"/>
<path d="M-148.6,461.3c-6.1,0-11-4.9-11-11c0-6.1,4.9-11,11-11c6.1,0,11,4.9,11,11C-137.6,456.4-142.5,461.3-148.6,461.3v1
	c6.6,0,12-5.4,12-12c0-6.6-5.4-12-12-12c-6.6,0-12,5.4-12,12c0,6.6,5.4,12,12,12"/>
<polyline class="st8" points="-149.9,455.5 -149.1,460.8 -148,460.8 -147.3,455.5 "/>
<polyline class="st8" points="-153.7,451.8 -157.9,455.2 -157.4,456.1 -152.4,454 "/>
<polyline class="st8" points="-152.4,446.6 -157.4,444.7 -157.9,445.6 -153.7,448.9 "/>
<polyline class="st8" points="-147.3,445.2 -148.1,439.9 -149.2,439.9 -149.9,445.2 "/>
<polyline class="st8" points="-143.5,448.9 -139.3,445.5 -139.8,444.6 -144.8,446.6 "/>
<polyline class="st8" points="-144.8,454 -139.8,456 -139.2,455.1 -143.5,451.8 "/>
<circle class="st8" cx="-148.6" cy="450.3" r="5.7"/>
<circle class="st8" cx="-148.6" cy="450.3" r="3"/>
<path class="st9" d="M-110.5,416.2c-1.1,0.9-1.4,2.4-1.6,3.2c-0.4-0.7-1.5,0.2-1.5,1.9c-0.4-0.4-1.3,1.9-1.1,3.3
	c-0.7,0-0.7,2.8-0.6,4c-0.6,0.2-0.6,1.3-0.5,2.6l1.1,1.4c1.9-0.9,4.2-3.3,3.2-3.2c0.6-1.9,1.2-3.6,0.6-3.2c0.9-2.4,1.3-4.1,0.7-3.8
	c0.9-1.3,2-2.7,1.3-2.5c1.2-1.2,2.5-2.6,1.6-2.5c0.9-0.7,1.3-1.3,1.3-1.6"/>
<path class="st9" d="M-105.5,415.9c-0.2,1.3,0.1,2.4,0.5,3.4c-0.7-0.2-0.8,0.1-0.5,1.4c-0.7,0.2-0.4,2.2,0.4,3.5
	c-0.5,0.4-0.6,1.5-0.1,2.6c-0.7,0-1.2,2.8-1.1,3.6c-0.7-0.2-1.4,0.9-2.1,2c-0.4-0.6-1.4-0.4-2.1,0.6c-0.5-0.2-3.9,0.9-4.8,1.8
	l0.4,3.3c1.4,0.5,4.8,0.2,4-0.7c1.6,0.1,3.6-0.9,2.9-1.2c2.1-0.4,3.8-1.8,2.9-1.9c1.6-0.9,2.7-2.8,1.9-2.8c1.1-0.5,3.1-3.8,1.9-3.6
	c1.1-1.4,1.2-4.6,0.2-3.6c0.4-1.6,0.4-4.2-0.5-3.5c0.2-1.9,0.6-3.2-0.2-2.7c0.1-0.8,0.2-1.8,0-2.2"/>
<path class="st9" d="M-148.6,432.5c2.1-1.1,2.8-0.7,2.7,0.1c1.8-0.2,4.2,0.2,3.4,1.1c1.5-0.6,3.9-0.2,3.2,0.8
	c1.5-0.5,3.3-1.5,3.3-0.7c1.8-0.9,4.2-1.1,3.5,0c1.3-0.4,2.7-0.9,3.9-0.6l0.1,2.2c-0.8,0.9-2.7,1.4-3.5,1.8c0.7,0.5-0.1,0.9-1.4,0.6
	c0,0.5-1.6,1.1-3.1,0.2c0.1,0.6-0.8,0.8-1.9-0.1c-0.2,0.5-0.7,0.9-2.2-0.4c-0.5,0.2-1.4,0-2.1-0.9c-0.5,0.5-1.8,0-2.6-0.9
	c-0.7,0.4-0.8,0.2-1.5-0.6c-0.7-0.8-1.1-1.4-1.8-1.5"/>
<path class="st9" d="M-148.6,437.2c1.2,0.8,3.9,0.1,4.6,1.5c0.5-0.2,1.3,0,1.6,0.8c0.8-0.4,2,0,2.5,0.9c1.2-0.2,2.2,0,3.1,0.7
	c0.9-0.7,1.9-0.9,2.2-0.1c1.6-1.3,3.3-2.1,3.3-0.8c0.5-0.7,2.4-1.8,3.2-1.8l0.5,1.2c-0.6,1.2-1.9,2.4-2.5,2.7
	c0.5,0.4-0.8,1.2-1.4,1.4c0.2,0.7-0.8,1.3-1.9,0.8c-0.2,0.8-1.3,0.6-2.8-0.6c0.1,0.8-2.1,1.3-3.2,0.6c-0.6,0.5-2.6-0.2-3.2-1.4
	c-0.7,0.4-1.8,0-2.2-1.1c-0.7,0.6-1.4,0.2-1.8-0.9c-0.8,0.2-2.1-1.4-2-3.1"/>
<path class="st9" d="M-110.2,383.2c-1.2,0.9-1.9,2-0.9,2.9c-0.8,0.9-1.9,1.6-0.9,3.1c-0.2,1.3,0.1,2.4,0.9,2.9
	c-0.7,0.7-1.1,2.9,0,3.4c-0.2,1.2-0.5,1.6,0.8,2.4c-0.6,0.9-0.4,3.5,0.7,4.8h2.9c0.1-1.9,0.4-4-0.2-4.8c0.2-0.9,0.5-2.5-0.2-3.2
	c0.5-1.4,0.4-3.8-0.2-3.2c0.7-2.2,0.1-4.1-0.5-3.4c0.7-1.9,1.1-3.4,0.5-3.2c0.4-0.9,2-3.2,0.7-2.8"/>
<path class="st9" d="M-105,382.4c-0.4,1.4,0.8,2.5,1.3,3.3c-1.1-0.1-0.5,0.9,0.4,2.6c-0.9,0-0.8,0.7-0.4,2.7
	c-0.7,0.1-0.7,1.6-0.4,2.9c-0.7,0.2-0.3,1.8-0.1,2.9c-0.6,0.2-0.6,1.6-0.4,2.7c-0.5,0.1-1.5,2.6-1.1,3.5l2.2,0.4
	c1.5-1.5,2.9-4,2.1-3.8c1.3-1.8,2.8-5.4,1.5-4.9c0.8-1.5,1.4-4.5,0.5-3.9c0.2-2,0-4.2-0.5-3.4c0.2-1.4-0.6-3.6-0.9-2.9
	c-0.1-0.8-0.1-2.1-1.1-2.7"/>
<path class="st9" d="M-110.2,352.5c-0.9,0.9-1.1,2.2-0.5,2.8c-0.6,1.2,0.4,2.5,1.1,3.1c-0.8,1.4-0.7,3.4,0,3.8
	c-0.6,0.8-0.8,2.2-0.1,2.8c-0.7,1.1-0.4,2.8,0.8,3.8l2.6,0.1c0-1.5,0.4-2.6-0.4-3.6c-0.7-1.1,0-1.5,0-2.7s0-1.2-0.6-2.4
	c-0.6-1.2,1.2-3.4,0.2-4.5c-0.9-1.1-0.4-2.9-0.8-3.9s-0.6-0.9-1.2-1.3"/>
<path class="st9" d="M-107.2,349.3c0.2,1.1,0.5,2.2,1.2,3.2c0.7,0.9,0.4,1.4,0.9,2.8c0.6,1.4,0.2,2.1-0.1,3.3
	c-0.4,1.2,0.1,1.9,0.6,3.1c0.5,1.2-0.2,1.9-0.4,2.8s-1.5,3.8-0.5,4.8h2.1c0.7-1.3,0.8-2.1,0.7-3.1c-0.1-0.9,0.2-1.5,0.8-2.1
	c0.6-0.6,1.1-2.6,0.5-3.1c-0.6-0.5-0.7-1.5-0.2-2c0.5-0.5,0.5-1.5,0.1-1.8c0.5-0.7,0.8-2.1,0.2-2.6c0.2-1.2,0-2.4-1.2-2.7
	c0.1-0.9-2.4-4-3.4-4"/>
<path class="st9" d="M-186.7,416.2c1.1,0.9,1.4,2.4,1.6,3.2c0.4-0.7,1.5,0.2,1.5,1.9c0.4-0.4,1.3,1.9,1.1,3.3c0.7,0,0.7,2.8,0.6,4
	c0.6,0.2,0.6,1.3,0.5,2.6l-1.1,1.4c-1.9-0.9-4.2-3.3-3.2-3.2c-0.6-1.9-1.2-3.6-0.6-3.2c-0.9-2.4-1.3-4.1-0.7-3.8
	c-0.9-1.3-2-2.7-1.3-2.5c-1.2-1.2-2.5-2.6-1.6-2.5c-0.9-0.7-1.3-1.3-1.3-1.6"/>
<path class="st9" d="M-191.7,415.9c0.2,1.3-0.1,2.4-0.5,3.4c0.7-0.2,0.8,0.1,0.5,1.4c0.7,0.2,0.4,2.2-0.4,3.5
	c0.5,0.4,0.6,1.5,0.1,2.6c0.7,0,1.2,2.8,1.1,3.6c0.7-0.2,1.4,0.9,2.1,2c0.4-0.6,1.4-0.4,2.1,0.6c0.5-0.2,3.9,0.9,4.8,1.8l-0.4,3.3
	c-1.4,0.5-4.8,0.2-4-0.7c-1.6,0.1-3.6-0.9-2.9-1.2c-2.1-0.4-3.8-1.8-2.9-1.9c-1.6-0.9-2.7-2.8-1.9-2.8c-1.1-0.5-3.1-3.8-1.9-3.6
	c-1.1-1.4-1.2-4.6-0.2-3.6c-0.4-1.6-0.4-4.2,0.5-3.5c-0.2-1.9-0.6-3.2,0.2-2.7c-0.1-0.8-0.2-1.8,0-2.2"/>
<path class="st9" d="M-148.6,432.5c-2.1-1.1-2.8-0.7-2.7,0.1c-1.8-0.2-4.2,0.2-3.4,1.1c-1.5-0.6-3.9-0.2-3.2,0.8
	c-1.5-0.5-3.3-1.5-3.3-0.7c-1.8-0.9-4.2-1.1-3.5,0c-1.3-0.4-2.7-0.9-3.9-0.6l-0.1,2.2c0.8,0.9,2.7,1.4,3.5,1.8
	c-0.7,0.5,0.1,0.9,1.4,0.6c0,0.5,1.6,1.1,3.1,0.2c-0.1,0.6,0.8,0.8,1.9-0.1c0.2,0.5,0.7,0.9,2.2-0.4c0.5,0.2,1.4,0,2.1-0.9
	c0.5,0.5,1.8,0,2.6-0.9c0.7,0.4,0.8,0.2,1.5-0.6c0.7-0.8,1.1-1.4,1.8-1.5"/>
<path class="st9" d="M-148.6,437.2c-1.2,0.8-3.9,0.1-4.6,1.5c-0.5-0.2-1.3,0-1.6,0.8c-0.8-0.4-2,0-2.5,0.9c-1.2-0.2-2.2,0-3.1,0.7
	c-0.9-0.7-1.9-0.9-2.2-0.1c-1.6-1.3-3.3-2.1-3.3-0.8c-0.5-0.7-2.4-1.8-3.2-1.8l-0.5,1.2c0.6,1.2,1.9,2.4,2.5,2.7
	c-0.5,0.4,0.8,1.2,1.4,1.4c-0.2,0.7,0.8,1.3,1.9,0.8c0.2,0.8,1.3,0.6,2.8-0.6c-0.1,0.8,2.1,1.3,3.2,0.6c0.6,0.5,2.6-0.2,3.2-1.4
	c0.7,0.4,1.8,0,2.2-1.1c0.7,0.6,1.4,0.2,1.8-0.9c0.8,0.2,2.1-1.4,2-3.1"/>
<path class="st9" d="M-187,383.2c1.2,0.9,1.9,2,0.9,2.9c0.8,0.9,1.9,1.6,0.9,3.1c0.2,1.3-0.1,2.4-0.9,2.9c0.7,0.7,1.1,2.9,0,3.4
	c0.2,1.2,0.5,1.6-0.8,2.4c0.6,0.9,0.4,3.5-0.7,4.8h-2.9c-0.1-1.9-0.4-4,0.2-4.8c-0.2-0.9-0.5-2.5,0.2-3.2c-0.5-1.4-0.4-3.8,0.2-3.2
	c-0.7-2.2-0.1-4.1,0.5-3.4c-0.7-1.9-1.1-3.4-0.5-3.2c-0.4-0.9-2-3.2-0.7-2.8"/>
<path class="st9" d="M-192.2,382.4c0.4,1.4-0.8,2.5-1.3,3.3c1.1-0.1,0.5,0.9-0.4,2.6c0.9,0,0.8,0.7,0.4,2.7c0.7,0.1,0.7,1.6,0.4,2.9
	c0.7,0.2,0.4,1.8,0.1,2.9c0.6,0.2,0.6,1.6,0.4,2.7c0.5,0.1,1.5,2.6,1.1,3.5l-2.2,0.4c-1.5-1.5-2.9-4-2.1-3.8
	c-1.3-1.8-2.8-5.4-1.5-4.9c-0.8-1.5-1.4-4.5-0.5-3.9c-0.2-2,0-4.2,0.5-3.4c-0.2-1.4,0.6-3.6,0.9-2.9c0.1-0.8,0.1-2.1,1.1-2.7"/>
<path class="st9" d="M-187,352.5c0.9,0.9,1.1,2.2,0.5,2.8c0.6,1.2-0.4,2.5-1.1,3.1c0.8,1.4,0.7,3.4,0,3.8c0.6,0.8,0.8,2.2,0.1,2.8
	c0.7,1.1,0.4,2.8-0.8,3.8l-2.6,0.1c0-1.5-0.4-2.6,0.4-3.6c0.7-1.1,0-1.5,0-2.7s0-1.2,0.6-2.4c0.6-1.2-1.2-3.4-0.2-4.5
	c0.9-1.1,0.4-2.9,0.8-3.9c0.5-0.9,0.6-0.9,1.2-1.3"/>
<path class="st9" d="M-190,349.3c-0.2,1.1-0.5,2.2-1.2,3.2c-0.7,0.9-0.4,1.4-0.9,2.8c-0.6,1.4-0.2,2.1,0.1,3.3
	c0.4,1.2-0.1,1.9-0.6,3.1c-0.5,1.2,0.2,1.9,0.4,2.8c0.1,0.9,1.5,3.8,0.5,4.8h-2.1c-0.7-1.3-0.8-2.1-0.7-3.1c0.1-0.9-0.2-1.5-0.8-2.1
	c-0.6-0.6-1.1-2.6-0.5-3.1c0.6-0.5,0.7-1.5,0.2-2c-0.5-0.5-0.5-1.5-0.1-1.8c-0.5-0.7-0.8-2.1-0.2-2.6c-0.2-1.2,0-2.4,1.2-2.7
	c-0.1-0.9,2.4-4,3.4-4"/>
<polygon class="st7" points="-100.5,416.6 -103.1,408.3 -109.6,408.3 -112.2,416.6 "/>
<rect x="-109.6" y="404.4" class="st7" width="6.5" height="3.9"/>
<path class="st7" d="M-103.1,404.4h-6.5l-2.4-2.5c0.7-0.8,1.2-0.8,1.9-1.1l1.1,1.3h1.3v-1.8h2.3v1.9h1.5l0.7-1.3
	c0.8,0.5,1.6,1.1,2,1.5L-103.1,404.4z"/>
<rect x="-107.5" y="404.4" class="st7" width="2" height="3.9"/>
<path class="st7" d="M-109,416.6l0.8-3.8c0.4-1.9,2.5-1.9,3.1,0l0.9,3.8H-109z"/>
<polygon class="st7" points="-100.5,383.1 -103.1,374.8 -109.6,374.8 -112.2,383.1 "/>
<rect x="-109.6" y="370.9" class="st7" width="6.5" height="3.9"/>
<path class="st7" d="M-103.1,370.9h-6.5l-2.4-2.5c0.7-0.8,1.2-0.8,1.9-1.1l1.1,1.3h1.3v-1.8h2.3v1.9h1.5l0.7-1.3
	c0.8,0.5,1.6,1.1,2,1.5L-103.1,370.9z"/>
<rect x="-107.5" y="370.9" class="st7" width="2" height="3.9"/>
<path class="st7" d="M-109,383.1l0.8-3.9c0.4-1.9,2.5-1.9,3.1,0l0.9,3.9H-109z"/>
<polygon class="st7" points="-103.7,347 -111.1,342.3 -116,346.5 -112.6,354.5 "/>
<rect x="-118" y="341" transform="matrix(-0.7647 0.6444 -0.6444 -0.7647 18.4071 679.1233)" class="st7" width="6.5" height="3.9"/>
<path class="st7" d="M-113.6,339.4l-4.9,4.2l-3.4-0.4c0-1.1,0.4-1.4,0.8-2l1.6,0.3l1-0.8l-1.1-1.3l1.8-1.5l1.2,1.4l1.2-1l-0.3-1.4
	c0.9-0.2,1.9-0.3,2.5-0.1L-113.6,339.4z"/>
<rect x="-115.9" y="341.1" transform="matrix(-0.7646 0.6446 -0.6446 -0.7646 18.382 679.2911)" class="st7" width="2" height="3.9"/>
<path class="st7" d="M-110.2,352.5l-1.9-3.5c-0.9-1.7,0.7-3,2.3-2l3.2,2.3L-110.2,352.5z"/>
<polygon class="st7" points="-128.3,442.9 -120.4,439.3 -121.2,432.9 -129.8,431.4 "/>
<rect x="-122.1" y="433.9" transform="matrix(-0.1248 -0.9922 0.9922 -0.1248 -566.1982 372.3189)" class="st7" width="6.5" height="3.9"/>
<path class="st7" d="M-116.6,438.8l-0.8-6.4l2.2-2.6c0.9,0.6,1,1.1,1.3,1.7l-1.1,1.2l0.2,1.3l1.8-0.2l0.3,2.3l-1.9,0.2l0.2,1.5
	l1.4,0.5c-0.4,0.9-0.8,1.8-1.3,2.2L-116.6,438.8z"/>
<rect x="-119.9" y="433.8" transform="matrix(-0.1242 -0.9923 0.9923 -0.1242 -566.0627 371.8731)" class="st7" width="2" height="3.9"/>
<path class="st7" d="M-129.4,434.5l3.9,0.3c1.9,0.1,2.2,2.2,0.4,3l-3.7,1.4L-129.4,434.5z"/>
<polygon class="st7" points="-196.7,416.6 -194.1,408.3 -187.6,408.3 -185,416.6 "/>
<rect x="-194.1" y="404.4" class="st7" width="6.5" height="3.9"/>
<path class="st7" d="M-194.1,404.4h6.5l2.4-2.5c-0.7-0.8-1.2-0.8-1.9-1.1l-1.1,1.3h-1.3v-1.8h-2.4v1.9h-1.5l-0.7-1.3
	c-0.8,0.5-1.6,1.1-2,1.5L-194.1,404.4z"/>
<rect x="-191.7" y="404.4" class="st7" width="2" height="3.9"/>
<path class="st7" d="M-188.2,416.6l-0.8-3.8c-0.4-1.9-2.5-1.9-3.1,0l-0.9,3.8H-188.2z"/>
<polygon class="st7" points="-196.7,383.1 -194.1,374.8 -187.6,374.8 -185,383.1 "/>
<rect x="-194.1" y="370.9" class="st7" width="6.5" height="3.9"/>
<path class="st7" d="M-194.1,370.9h6.5l2.4-2.5c-0.7-0.8-1.2-0.8-1.9-1.1l-1.1,1.3h-1.3v-1.8h-2.4v1.9h-1.5l-0.7-1.3
	c-0.8,0.5-1.6,1.1-2,1.5L-194.1,370.9z"/>
<rect x="-191.7" y="370.9" class="st7" width="2" height="3.9"/>
<path class="st7" d="M-188.2,383.1l-0.8-3.9c-0.4-1.9-2.5-1.9-3.1,0l-0.9,3.9H-188.2z"/>
<polygon class="st7" points="-193.5,347 -186.1,342.3 -181.2,346.5 -184.6,354.5 "/>
<rect x="-185.6" y="341" transform="matrix(0.7647 0.6444 -0.6444 0.7647 178.0606 198.2288)" class="st7" width="6.5" height="3.9"/>
<path class="st7" d="M-183.6,339.4l4.9,4.2l3.4-0.4c0-1.1-0.4-1.4-0.8-2l-1.6,0.3l-1-0.8l1.1-1.3l-1.8-1.5l-1.2,1.4l-1.2-1l0.3-1.4
	c-0.9-0.2-1.9-0.3-2.5-0.1L-183.6,339.4z"/>
<rect x="-183.3" y="341.1" transform="matrix(0.7645 0.6447 -0.6447 0.7645 178.1827 198.3155)" class="st7" width="2" height="3.9"/>
<path class="st7" d="M-187,352.5l1.9-3.5c0.9-1.7-0.7-3-2.3-2l-3.2,2.3L-187,352.5z"/>
<polygon class="st7" points="-168.8,442.9 -176.8,439.3 -176,432.9 -167.4,431.4 "/>
<rect x="-181.5" y="433.9" transform="matrix(0.1247 -0.9922 0.9922 0.1247 -588.5351 204.6154)" class="st7" width="6.5" height="3.9"/>
<path class="st7" d="M-180.6,438.8l0.8-6.4l-2.2-2.6c-0.9,0.6-1,1.1-1.3,1.7l1.2,1.2l-0.2,1.3l-1.8-0.2l-0.3,2.3l1.9,0.2l-0.2,1.5
	l-1.4,0.5c0.4,0.9,0.8,1.8,1.3,2.2L-180.6,438.8z"/>
<rect x="-179.3" y="433.8" transform="matrix(0.1252 -0.9921 0.9921 0.1252 -588.2811 204.3216)" class="st7" width="2" height="3.9"/>
<path class="st7" d="M-167.8,434.5l-3.9,0.3c-1.9,0.1-2.2,2.2-0.4,3l3.7,1.4L-167.8,434.5z"/>
<path d="M-116.7,365.1c-0.8,0.7,0,2.4,1.1,1.3l1.9-2c1.1,0.7,2.1,0.8,3.4,0.9c-2.1-1.3-4.5-3.9-5.1-5.8c-0.2,1.2,0.1,2.8,0.5,3.8
	L-116.7,365.1z"/>
<path d="M-113.9,362.3l14.5-14.2c1.1-0.9,1.6-0.8,2.3-0.9c-0.2,0.6-0.8,1.3-1.3,2l-14.6,14.2"/>
<path d="M-116.6,398c-0.9,0.6-0.2,2.3,0.9,1.4l2.1-1.8c1,0.8,2,1,3.3,1.3c-2-1.5-4-4.3-4.4-6.3c-0.4,1.1-0.2,2.8,0.1,3.8L-116.6,398
	z"/>
<path d="M-113.5,395.5l15.9-12.6c1.2-0.8,1.7-0.6,2.4-0.7c-0.3,0.6-1,1.2-1.5,1.8l-16,12.6"/>
<path d="M-118.9,425.9c-1,0.3-1,2.1,0.4,1.6l2.5-1c0.7,1.1,1.6,1.6,2.7,2.3c-1.4-2.1-2.4-5.4-2.2-7.4c-0.7,1-1.1,2.6-1.2,3.6
	L-118.9,425.9z"/>
<path d="M-115.2,424.5l19.1-6.8c1.4-0.4,1.8-0.1,2.5,0.1c-0.5,0.4-1.3,0.8-2,1.3l-19.2,6.8"/>
<path d="M-141,428.2c-0.5-0.9-2.3-0.5-1.5,0.8l1.6,2.2c-0.9,0.9-1.2,1.9-1.6,3.2c1.7-1.8,4.7-3.6,6.6-3.8c-1.1-0.5-2.8-0.4-3.8-0.3
	L-141,428.2z"/>
<path d="M-138.8,431.5l11.1,16.9c0.7,1.2,0.5,1.8,0.5,2.5c-0.5-0.3-1.1-1.1-1.7-1.7l-11.1-17.1"/>
<path d="M-180.4,365.1c0.8,0.7,0,2.4-1.1,1.3l-1.9-2c-1.1,0.7-2.1,0.8-3.4,0.9c2.1-1.3,4.5-3.9,5.1-5.8c0.2,1.2-0.1,2.8-0.5,3.8
	L-180.4,365.1z"/>
<path d="M-183.3,362.3l-14.5-14.2c-1.1-0.9-1.6-0.8-2.4-0.9c0.2,0.6,0.8,1.3,1.3,2l14.6,14.2"/>
<path d="M-180.6,398c0.9,0.6,0.3,2.3-0.9,1.4l-2.1-1.8c-1,0.8-2,1-3.3,1.3c2-1.5,4-4.3,4.4-6.3c0.4,1.1,0.2,2.8-0.1,3.8L-180.6,398z
	"/>
<path d="M-183.7,395.5l-15.9-12.6c-1.2-0.8-1.7-0.6-2.4-0.7c0.3,0.6,1,1.2,1.5,1.9l16,12.6"/>
<path d="M-178.3,425.9c1,0.3,1,2.1-0.4,1.6l-2.5-1c-0.7,1.1-1.6,1.6-2.7,2.3c1.4-2.1,2.4-5.4,2.2-7.4c0.7,1,1.1,2.6,1.2,3.6
	L-178.3,425.9z"/>
<path d="M-182,424.5l-19.1-6.8c-1.4-0.4-1.8-0.1-2.5,0.1c0.5,0.4,1.3,0.8,2,1.3l19.2,6.8"/>
<path d="M-156.2,428.2c0.5-0.9,2.3-0.5,1.5,0.8l-1.6,2.2c0.9,0.9,1.2,1.9,1.6,3.2c-1.7-1.8-4.7-3.6-6.6-3.8c1.1-0.5,2.8-0.4,3.8-0.3
	L-156.2,428.2z"/>
<path d="M-158.4,431.5l-11.1,16.9c-0.7,1.2-0.5,1.8-0.5,2.5c0.5-0.3,1.1-1.1,1.7-1.7l11.1-17.1"/>
<circle class="st4" cx="-148.6" cy="436.1" r="3.7"/>
<path class="st7" d="M-172.5,393.4c4-3.3,12.2-3.6,17.2-0.4l2-1.6c-5.8-4-15.9-3.9-21,0.2"/>
<path class="st10" d="M-160.3,393.1c0.7-0.4,2,0.1,2.1,0.9c0.1,0.8,1.3,2.9,3.6,2.2c2.3-0.7,0.5-4.2,1.6-5.4
	c-1.1,0.5-2.5,1.4-3.1,2.2c-0.6,0.8-1.2,0.5-1.4-0.6c-0.2-1.1-1.3-1.5-1.9-0.8C-159.9,392.4-160.3,393.1-160.3,393.1z"/>
<polygon class="st7" points="-159.1,420 -157.5,397.4 -153.7,397.4 -152.1,420 "/>
<path class="st7" d="M-158.2,407.8h5.2l1.9-2.5c-0.6-0.8-0.9-0.8-1.5-1.1l-0.8,1.3h-1v-1.8h-1.9v1.9h-1.2l-0.6-1.3
	c-0.7,0.5-1.3,1.1-1.6,1.5L-158.2,407.8z"/>
<path class="st7" d="M-154,420l-0.5-3.8c-0.2-1.9-1.5-1.9-1.8,0l-0.6,3.8H-154z"/>
<path class="st7" d="M-157.5,397.4h3.8l1.4-1.8c-0.4-0.6-0.7-0.6-1.1-0.8l-0.6,1h-0.8v-1.3h-1.4v1.4h-0.9l-0.4-1
	c-0.5,0.3-1,0.8-1.2,1.1L-157.5,397.4z"/>
<path class="st10" d="M-168.1,393.1c-0.7-0.4-2,0.1-2.1,0.9c-0.1,0.8-1.3,2.9-3.6,2.2c-2.3-0.7-0.5-4.2-1.6-5.4
	c1.1,0.5,2.5,1.4,3.1,2.2c0.6,0.8,1.2,0.5,1.4-0.6c0.2-1.1,1.3-1.5,1.9-0.8C-168.6,392.4-168.1,393.1-168.1,393.1z"/>
<polygon class="st7" points="-169.4,420 -170.9,397.4 -174.8,397.4 -176.3,420 "/>
<path class="st7" d="M-170.2,407.8h-5.2l-1.9-2.5c0.6-0.8,0.9-0.8,1.5-1.1l0.8,1.3h1v-1.8h1.9v1.9h1.2l0.6-1.3
	c0.7,0.5,1.3,1.1,1.6,1.5L-170.2,407.8z"/>
<path class="st7" d="M-174.4,420l0.5-3.8c0.2-1.9,1.5-1.9,1.8,0l0.6,3.8H-174.4z"/>
<path class="st7" d="M-170.9,397.4h-3.8l-1.4-1.8c0.4-0.6,0.7-0.6,1.1-0.8l0.6,1h0.8v-1.3h1.4v1.4h0.9l0.4-1c0.5,0.3,1,0.8,1.2,1.1
	L-170.9,397.4z"/>
<path class="st11" d="M-167.2,407.1l-0.8,13.2h6.9l-1.1-13.4c-0.1-0.8,0-2,0.5-2.8c0.5-0.8,0.4-3.4,0.4-5.2c0-1.8-0.9-2.6-1.5-2.7
	l-1.3-0.2h-1.2c-2,0.7-2.2,1.5-2.5,3.1c-0.2,1.5-0.2,3.5-0.6,4.3C-168.7,404.1-168.6,406.4-167.2,407.1z"/>
<polyline class="st7" points="-166,393 -166.6,391.1 -165.6,391.7 -164.9,390.9 -164.6,391.9 -163.5,391.1 -163,392.3 -162.3,391.7 
	-163.2,393.8 "/>
<path class="st12" d="M-166,395.7c-0.1-0.8-0.4-3.1,0.5-3.1s2.4,0,2.4,1.6C-163.2,396.9-165.6,397.8-166,395.7z"/>
<path class="st12" d="M-166.7,404.3c-0.8,0.9-0.9,2.4-0.1,2.6c0.8,0.2,1.4-0.8,1.4-1.6C-165.4,404.4-166.5,403.8-166.7,404.3z"/>
<path class="st7" d="M-141.5,356.5c4-3.3,12.2-3.6,17.2-0.4l2-1.6c-5.8-4-15.9-3.9-21,0.2"/>
<path class="st10" d="M-129.4,356.2c0.7-0.4,2,0.1,2.1,0.9c0.1,0.8,1.3,2.9,3.6,2.2c2.3-0.7,0.5-4.2,1.6-5.4
	c-1.1,0.5-2.5,1.4-3.1,2.2c-0.6,0.8-1.2,0.5-1.4-0.6c-0.2-1.1-1.3-1.5-1.9-0.8C-129,355.5-129.4,356.2-129.4,356.2z"/>
<polygon class="st7" points="-128.1,383.1 -126.6,360.5 -122.8,360.5 -121.2,383.1 "/>
<path class="st7" d="M-127.3,370.9h5.2l1.9-2.5c-0.6-0.8-0.9-0.8-1.5-1.1l-0.8,1.3h-1v-1.8h-1.9v1.9h-1.2l-0.6-1.3
	c-0.7,0.5-1.3,1.1-1.6,1.5L-127.3,370.9z"/>
<path class="st7" d="M-123.1,383.1l-0.5-3.9c-0.2-1.9-1.5-1.9-1.8,0l-0.6,3.9H-123.1z"/>
<path class="st7" d="M-126.6,360.5h3.8l1.4-1.8c-0.4-0.6-0.7-0.6-1.1-0.8l-0.6,1h-0.8v-1.3h-1.4v1.4h-0.9l-0.4-1
	c-0.5,0.3-1,0.8-1.2,1.1L-126.6,360.5z"/>
<path class="st10" d="M-137.2,356.2c-0.7-0.4-2,0.1-2.1,0.9c-0.1,0.8-1.3,2.9-3.6,2.2c-2.3-0.7-0.5-4.2-1.6-5.4
	c1.1,0.5,2.5,1.4,3.1,2.2c0.6,0.8,1.2,0.5,1.4-0.6c0.2-1.1,1.3-1.5,1.9-0.8C-137.7,355.5-137.2,356.2-137.2,356.2z"/>
<polygon class="st7" points="-138.5,383.1 -140,360.5 -143.9,360.5 -145.4,383.1 "/>
<path class="st7" d="M-139.3,370.9h-5.2l-1.9-2.5c0.6-0.8,0.9-0.8,1.5-1.1l0.8,1.3h1v-1.8h1.9v1.9h1.2l0.6-1.3
	c0.7,0.5,1.3,1.1,1.6,1.5L-139.3,370.9z"/>
<path class="st7" d="M-143.5,383.1l0.5-3.9c0.2-1.9,1.5-1.9,1.8,0l0.6,3.9H-143.5z"/>
<path class="st7" d="M-140,360.5h-3.8l-1.4-1.8c0.4-0.6,0.7-0.6,1.1-0.8l0.6,1h0.8v-1.3h1.4v1.4h0.9l0.4-1c0.5,0.3,1,0.8,1.2,1.1
	L-140,360.5z"/>
<path class="st11" d="M-136.3,370.2l-0.8,13.2h6.9l-1.1-13.4c-0.1-0.8,0-2,0.5-2.8c0.5-0.8,0.4-3.4,0.4-5.2c0-1.8-0.9-2.6-1.5-2.7
	l-1.3-0.2h-1.2c-2,0.7-2.2,1.5-2.5,3.1c-0.2,1.5-0.2,3.5-0.6,4.3C-137.8,367.2-137.7,369.5-136.3,370.2z"/>
<polyline class="st7" points="-135.1,356.1 -135.7,354.2 -134.7,354.8 -134,354 -133.7,355 -132.6,354.2 -132.1,355.4 -131.4,354.8 
	-132.3,356.9 "/>
<path class="st12" d="M-135.1,358.8c-0.1-0.8-0.4-3.1,0.5-3.1s2.4,0,2.4,1.6C-132.3,360-134.7,360.9-135.1,358.8z"/>
<path class="st12" d="M-135.8,367.4c-0.8,0.9-0.9,2.4-0.1,2.6c0.8,0.2,1.4-0.8,1.4-1.6S-135.5,366.9-135.8,367.4z"/>
<polygon class="st7" points="-120.5,421.9 -121.9,417.3 -125.5,417.3 -126.9,421.9 "/>
<path class="st7" d="M-121.9,417.3h-3.5l-0.9-1.4c0.4-0.5,0.6-0.5,1-0.6l0.2,0.7h0.7v-1h1.3v1h0.5l0.4-0.7c0.5,0.3,0.8,0.6,1,0.8
	L-121.9,417.3z"/>
<path class="st7" d="M-125.1,421.9l0.5-2.1c0.2-1,1.4-1,1.7,0l0.5,2.1H-125.1z"/>
<polygon class="st7" points="-120.8,408.3 -122.2,403.8 -125.8,403.8 -127.2,408.3 "/>
<path class="st7" d="M-122.2,403.8h-3.5l-0.9-1.4c0.4-0.5,0.6-0.5,1-0.6l0.2,0.7h0.7v-1h1.3v1h0.5l0.4-0.7c0.4,0.3,0.8,0.6,1,0.8
	L-122.2,403.8z"/>
<path class="st7" d="M-125.5,408.3l0.5-2.1c0.2-1,1.4-1,1.7,0l0.5,2.1H-125.5z"/>
<polygon class="st7" points="-120.5,396.6 -121.9,392 -125.5,392 -126.9,396.6 "/>
<path class="st7" d="M-121.9,392h-3.5l-0.9-1.4c0.4-0.5,0.6-0.5,1-0.6l0.2,0.7h0.7v-1h1.3v1h0.5l0.4-0.7c0.5,0.3,0.8,0.6,1,0.8
	L-121.9,392z"/>
<path class="st7" d="M-125.1,396.6l0.5-2.1c0.2-1,1.4-1,1.7,0l0.5,2.1H-125.1z"/>
<polygon class="st7" points="-140.7,421.9 -142.1,417.3 -145.7,417.3 -147.1,421.9 "/>
<path class="st7" d="M-142.1,417.3h-3.5l-0.9-1.4c0.4-0.5,0.6-0.5,1-0.6l0.2,0.7h0.7v-1h1.3v1h0.5l0.4-0.7c0.5,0.3,0.8,0.6,1,0.8
	L-142.1,417.3z"/>
<path class="st7" d="M-145.4,421.9l0.5-2.1c0.2-1,1.4-1,1.7,0l0.5,2.1H-145.4z"/>
<polygon class="st7" points="-140.7,408.3 -142.1,403.8 -145.7,403.8 -147.1,408.3 "/>
<path class="st7" d="M-142.1,403.8h-3.5l-0.9-1.4c0.4-0.5,0.6-0.5,1-0.6l0.2,0.7h0.7v-1h1.3v1h0.5l0.4-0.7c0.5,0.3,0.8,0.6,1,0.8
	L-142.1,403.8z"/>
<path class="st7" d="M-145.4,408.3l0.5-2.1c0.2-1,1.4-1,1.7,0l0.5,2.1H-145.4z"/>
<polygon class="st7" points="-140.7,396.6 -142.1,392 -145.7,392 -147.1,396.6 "/>
<path class="st7" d="M-142.1,392h-3.5l-0.9-1.4c0.4-0.5,0.6-0.5,1-0.6l0.2,0.7h0.7v-1h1.3v1h0.5l0.4-0.7c0.5,0.3,0.8,0.6,1,0.8
	L-142.1,392z"/>
<path class="st7" d="M-145.4,396.6l0.5-2.1c0.2-1,1.4-1,1.7,0l0.5,2.1H-145.4z"/>
<polygon class="st7" points="-130.3,396.6 -131.7,392 -135.2,392 -136.7,396.6 "/>
<path class="st7" d="M-131.7,392h-3.5l-0.9-1.4c0.4-0.5,0.6-0.5,1-0.6l0.2,0.7h0.7v-1h1.3v1h0.5l0.4-0.7c0.5,0.3,0.8,0.6,1,0.8
	L-131.7,392z"/>
<path class="st7" d="M-134.9,396.6l0.4-2.1c0.2-1,1.4-1,1.7,0l0.5,2.1H-134.9z"/>
<path class="st8" d="M-127.4,397.7v14.5c0,2.1-1,3.4-2.8,3.4h-2.3c-0.6,0-1.3,0.2-1.4,0.7c-0.2-0.5-0.9-0.7-1.4-0.7h-2.3
	c-1.9,0-2.8-1.3-2.8-3.4v-14.5H-127.4z"/>
<polygon class="st13" points="-135.7,399.1 -135,402.5 -133.3,402.5 -132.7,399.1 "/>
<polygon class="st13" points="-135.7,411.7 -135,408.4 -133.3,408.4 -132.7,411.7 "/>
<polygon class="st13" points="-139.7,406.7 -136.4,406 -136.4,404.4 -139.7,403.8 "/>
<polygon class="st13" points="-128.9,406.7 -132.3,406 -132.3,404.4 -128.9,403.8 "/>
<rect x="-135.2" y="404.1" class="st13" width="2" height="2.5"/>
<polygon class="st7" points="-150.6,385 -152,380.4 -155.6,380.4 -157,385 "/>
<path class="st7" d="M-152,380.4h-3.5l-0.9-1.4c0.4-0.5,0.6-0.5,1-0.6l0.2,0.7h0.7v-1h1.3v1h0.5l0.4-0.7c0.5,0.3,0.8,0.6,1,0.8
	L-152,380.4z"/>
<path class="st7" d="M-155.2,385l0.5-2.1c0.2-1,1.4-1,1.7,0l0.5,2.1H-155.2z"/>
<polygon class="st7" points="-150.9,371.4 -152.3,366.9 -155.9,366.9 -157.3,371.4 "/>
<path class="st7" d="M-152.3,366.9h-3.5l-0.9-1.4c0.4-0.4,0.6-0.4,1-0.6l0.2,0.7h0.7v-1h1.3v1h0.5l0.4-0.7c0.5,0.3,0.8,0.6,1,0.8
	L-152.3,366.9z"/>
<path class="st7" d="M-155.5,371.4l0.5-2.1c0.2-1,1.4-1,1.7,0l0.5,2.1H-155.5z"/>
<polygon class="st7" points="-150.6,359.7 -152,355.1 -155.6,355.1 -157,359.7 "/>
<path class="st7" d="M-152,355.1h-3.5l-0.9-1.4c0.4-0.5,0.6-0.5,1-0.6l0.2,0.7h0.7v-1h1.3v1h0.5l0.4-0.7c0.5,0.3,0.8,0.6,1,0.8
	L-152,355.1z"/>
<path class="st7" d="M-155.2,359.7l0.5-2.1c0.2-1,1.4-1,1.7,0l0.5,2.1H-155.2z"/>
<polygon class="st7" points="-170.8,385 -172.2,380.4 -175.8,380.4 -177.2,385 "/>
<path class="st7" d="M-172.2,380.4h-3.5l-0.9-1.4c0.4-0.5,0.6-0.5,1-0.6l0.2,0.7h0.7v-1h1.3v1h0.5l0.4-0.7c0.5,0.3,0.8,0.6,1,0.8
	L-172.2,380.4z"/>
<path class="st7" d="M-175.5,385l0.5-2.1c0.2-1,1.4-1,1.7,0l0.5,2.1H-175.5z"/>
<polygon class="st7" points="-170.8,371.4 -172.2,366.9 -175.8,366.9 -177.2,371.4 "/>
<path class="st7" d="M-172.2,366.9h-3.5l-0.9-1.4c0.4-0.4,0.6-0.4,1-0.6l0.2,0.7h0.7v-1h1.3v1h0.5l0.4-0.7c0.5,0.3,0.8,0.6,1,0.8
	L-172.2,366.9z"/>
<path class="st7" d="M-175.5,371.4l0.5-2.1c0.2-1,1.4-1,1.7,0l0.5,2.1H-175.5z"/>
<polygon class="st7" points="-170.8,359.7 -172.2,355.1 -175.8,355.1 -177.2,359.7 "/>
<path class="st7" d="M-172.2,355.1h-3.5l-0.9-1.4c0.4-0.5,0.6-0.5,1-0.6l0.2,0.7h0.7v-1h1.3v1h0.5l0.4-0.7c0.5,0.3,0.8,0.6,1,0.8
	L-172.2,355.1z"/>
<path class="st7" d="M-175.5,359.7l0.5-2.1c0.2-1,1.4-1,1.7,0l0.5,2.1H-175.5z"/>
<polygon class="st7" points="-160.4,359.7 -161.8,355.1 -165.3,355.1 -166.7,359.7 "/>
<path class="st7" d="M-161.8,355.1h-3.5l-0.9-1.4c0.4-0.5,0.6-0.5,1-0.6l0.2,0.7h0.7v-1h1.3v1h0.5l0.4-0.7c0.5,0.3,0.8,0.6,1,0.8
	L-161.8,355.1z"/>
<path class="st7" d="M-165,359.7l0.5-2.1c0.2-1,1.4-1,1.7,0l0.5,2.1H-165z"/>
<path class="st8" d="M-157.5,360.8v14.5c0,2.1-1,3.4-2.8,3.4h-2.3c-0.6,0-1.3,0.2-1.4,0.7c-0.2-0.5-0.9-0.7-1.4-0.7h-2.3
	c-1.9,0-2.8-1.3-2.8-3.4v-14.5H-157.5z"/>
<polygon class="st13" points="-165.8,362.2 -165,365.6 -163.4,365.6 -162.8,362.2 "/>
<polygon class="st13" points="-165.8,374.8 -165,371.5 -163.4,371.5 -162.8,374.8 "/>
<polygon class="st13" points="-169.8,369.8 -166.5,369.1 -166.5,367.5 -169.8,366.9 "/>
<polygon class="st13" points="-159,369.8 -162.3,369.1 -162.3,367.5 -159,366.9 "/>
<rect x="-165.3" y="367.2" class="st13" width="2" height="2.5"/>
<path class="st4" d="M-159.2,295.9c-1.2-0.4-2-0.5-2.7,0c-0.7,0.5,0.1,1.2,0.8,0.9C-160.3,296.6-159.9,295.9-159.2,295.9z"/>
</svg>
