<?xml version="1.0" encoding="utf-8"?>
<!-- Generator: Adobe Illustrator 19.1.0, SVG Export Plug-In . SVG Version: 6.00 Build 0)  -->
<svg version="1.1"
	 id="svg2" sodipodi:docname="Logo Real Madryt.svg" inkscape:version="0.44.1" sodipodi:version="0.32" sodipodi:docbase="C:\Documents and Settings\Damian\Pulpit" xmlns:inkscape="http://www.inkscape.org/namespaces/inkscape" xmlns:dc="http://purl.org/dc/elements/1.1/" xmlns:rdf="http://www.w3.org/1999/02/22-rdf-syntax-ns#" xmlns:sodipodi="http://sodipodi.sourceforge.net/DTD/sodipodi-0.dtd" xmlns:svg="http://www.w3.org/2000/svg" xmlns:cc="http://web.resource.org/cc/"
	 xmlns="http://www.w3.org/2000/svg" xmlns:xlink="http://www.w3.org/1999/xlink" x="0px" y="0px"
	 viewBox="-109.5 94.3 499.1 699.2" enable-background="new -109.5 94.3 499.1 699.2" xml:space="preserve">
<sodipodi:namedview  inkscape:pageshadow="2" inkscape:window-width="853" inkscape:current-layer="g25392" inkscape:pageopacity="0.0" inkscape:window-x="44" inkscape:window-y="58" inkscape:window-height="573" gridtolerance="10.0" bordercolor="#666666" pagecolor="#ffffff" guidetolerance="10.0" objecttolerance="10.0" inkscape:zoom="0.53857134" id="base" inkscape:cx="290.04901" inkscape:cy="334.2208" borderopacity="1.0">
	</sodipodi:namedview>
<g id="layer1" transform="translate(-152.545, -140.201)">
	<g id="g21752" transform="translate(-686.904, 56.5685)">
		<g id="g20818" transform="translate(1005.84, 113.855)">
			<g id="g19035" transform="translate(18.5714, -43.5714)">
				<g id="g19011" transform="translate(3.53839)">
				</g>
			</g>
			<g id="g21741" transform="translate(0, 4.04061)">
			</g>
		</g>
		<g id="g21781" transform="matrix(1.29524, 0, 0, 1.29365, -393.043, -230.109)">
			<g id="g23567">
				<g id="g25392">
					<path id="path23601" fill="#FFFFFF" d="M1243.9,663c0,101.9-82.4,184.5-184.2,184.6c-101.8,0-184.3-82.5-184.3-184.4v-0.1
						c0-101.9,82.4-184.5,184.2-184.6C1161.4,478.5,1243.9,561,1243.9,663C1243.9,662.9,1243.9,663,1243.9,663z"/>
					<path id="path24490" fill="#FFFFFF" d="M1056.1,316.1v6h-6.1v6.1h6.1c0,2.3,0,3.5,0,7c0,0-2.3-0.3-3.8,0.6s-2.3,3-2.3,3
						s-3.6-1.3-6.2-0.3s-4.3,4.2-4.3,4.2s-3.5-3.3-7.2-2.5c-4.4,1-7.1,6.6-7.1,6.6s-3.7-2.5-7.2-0.9c-5.3,2.3-5.8,8.7-5.8,8.7
						s-7.9-1-10.4,0.9s-2,10-2,10s-2.8-0.5-4.8,0.1s-3.5,2.4-3.5,2.4s-1.8-3.8-7-3.8c-5.3,0-8,6-8,6s-7.4-1.5-9.9,0
						c-2.6,1.5-2.9,7.4-2.9,7.4s-7-1.2-9.8,1.6s-1.4,9.8-1.4,9.8s-7.4-0.7-8.8,2.1c-1.6,3.2-0.5,11.1-0.5,11.1s-5.7,0.5-6.9,4.9
						c-1,3.7,2.4,9.8,2.4,9.8s-5,2.2-6.2,5.1c-1.2,3,1.4,6.8,1.4,6.8l-2.3,12.1c0,0-2.8,4.9,2.2,11.9c4.9,6.8,12.7,2.3,12.7,2.3
						s2.6,2,5.9,2.5c3.3,0.5,7.4-0.4,7.4-0.4s-1,3.4,0.3,5.4s5.2,2.7,5.2,2.7l1.7,4l-1.1,4.8l4.9,4.2l1.7,6.9c0,0,36-20.2,87-20.2
						c47.4,0,87,20.1,87,20.1l1.8-6.7l4.9-4.2l-1-4.8l1.7-4c0,0,3.8-0.7,5.2-2.7s0.3-5.4,0.3-5.4s4.1,0.9,7.5,0.4
						c3.3-0.5,5.9-2.5,5.9-2.5s7.8,4.5,12.7-2.3c5-6.9,2.2-11.9,2.2-11.9l-2.3-12.1c0,0,2.6-3.8,1.4-6.8s-6.2-5.1-6.2-5.1
						s3.4-6.1,2.4-9.8c-1.2-4.4-6.9-4.9-6.9-4.9s1.1-7.9-0.5-11.1c-1.4-2.9-8.8-2.1-8.8-2.1s1.4-6.9-1.4-9.8s-9.8-1.6-9.8-1.6
						s-0.4-5.9-2.9-7.4s-9.9,0-9.9,0s-2.7-6-8-6c-5.2,0-7,3.8-7,3.8s-1.4-1.8-3.5-2.4s-4.8-0.1-4.8-0.1s0.5-8.1-2-10
						s-10.4-0.9-10.4-0.9s-0.5-6.3-5.8-8.7c-3.4-1.5-7.2,0.9-7.2,0.9s-2.7-5.7-7.1-6.6c-3.8-0.8-7.2,2.5-7.2,2.5s-1.7-3.2-4.3-4.2
						c-2.6-1-6.2,0.3-6.2,0.3s-0.8-2.1-2.3-3s-3.8-0.6-3.8-0.6v-7h6.1v-6.1h-6v-6L1056.1,316.1L1056.1,316.1z"/>
					<path id="path19002" fill="#E1233B" stroke="#173980" d="M1039.4,381.8c-4.1,0-8.5,0.4-12.7,1.3c-17.1,3.8-32.8,15.9-32.8,15.9
						s-0.8,0.1-1.2,0.1c0.3,0.6,0.5,1.3,0.5,2c0,2.5-2,4.6-4.6,4.6s-4.6-2-4.6-4.6c0-0.2,0-0.5,0.1-0.7c-4.6,0.9-10.1,2.2-15.4,4.3
						c-12.1,4.8-22.8,13.6-22.8,13.6l10.4,25l-6.1,9.3l19.7,6.1c0,0,43.9-21.6,90.4-21.4s95.7,22.1,95.7,22.1l5.4-6.8l10.7,1.1
						l-4.7-11.8l6.4-17.2l-3.4-8.3c0,0-5.7-7-15.9-11.3c-5.9-2.5-13.4-4.1-18.6-5.1c0.1,0.4,0.2,0.9,0.2,1.4c0,2.5-2.1,4.6-4.6,4.6
						s-4.6-2.1-4.6-4.6c0-1.3,0.5-2.5,1.4-3.3c-3.5-2.8-15.4-11.7-29.4-14.9c-16.8-3.8-36.6,1.8-36.6,1.8S1051.8,381.8,1039.4,381.8
						z M1059.4,384.7c2.5,0,4.6,2.1,4.6,4.6s-2,4.6-4.6,4.6s-4.6-2-4.6-4.6S1056.9,384.7,1059.4,384.7z M1059.7,402.2
						c4.9,0,8.9,4,8.9,8.9s-4,8.9-8.9,8.9s-8.9-4-8.9-8.9S1054.8,402.2,1059.7,402.2z M1122.8,409.5c4.9,0,8.9,4,8.9,8.9
						s-4,8.9-8.9,8.9s-8.9-4-8.9-8.9S1117.9,409.5,1122.8,409.5z M996.6,409.6c4.9,0,8.9,4,8.9,8.9s-4,8.9-8.9,8.9s-8.9-4-8.9-8.9
						S991.7,409.6,996.6,409.6z"/>
					<path id="path9070" fill="#FABC01" stroke="#173980" stroke-width="1.5" d="M1056.1,315.9v6h-6.1v6.1h6.1v7
						c0,0-2.3-0.3-3.8,0.6s-2.3,3-2.3,3s-3.6-1.3-6.2-0.3s-4.3,4.2-4.3,4.2s-3.5-3.3-7.2-2.5c-4.4,1-7.1,6.6-7.1,6.6
						s-3.7-2.5-7.2-0.9c-5.3,2.3-5.8,8.7-5.8,8.7s-7.9-1-10.4,0.9s-2,10-2,10s-2.8-0.5-4.8,0.1c-2.1,0.6-3.5,2.4-3.5,2.4
						s-1.8-3.8-7-3.8c-5.3,0-8,6-8,6s-7.4-1.5-9.9,0c-2.6,1.5-2.9,7.4-2.9,7.4s-7-1.2-9.8,1.6s-1.4,9.8-1.4,9.8s-7.4-0.7-8.8,2.1
						c-1.6,3.2-0.5,11.1-0.5,11.1s-5.7,0.5-6.9,4.9c-1,3.7,2.4,9.8,2.4,9.8s-5,2.2-6.2,5.1s1.4,6.8,1.4,6.8l-2.3,12.1
						c0,0-2.8,4.9,2.2,11.9c4.9,6.8,12.7,2.3,12.7,2.3s2.6,2,5.9,2.5c3.3,0.5,7.4-0.4,7.4-0.4s-1,3.4,0.3,5.4c1.4,2,5.2,2.7,5.2,2.7
						l1.7,4l-1.1,4.8l4.9,4.2l1.7,6.9c0,0,36-20.2,87-20.2c47.4,0,87,20.1,87,20.1l1.8-6.7l4.9-4.2l-1-4.8l1.7-4
						c0,0,3.8-0.7,5.2-2.7c1.4-2,0.3-5.4,0.3-5.4s4.1,0.9,7.5,0.4c3.3-0.5,5.9-2.5,5.9-2.5s7.8,4.5,12.7-2.3
						c5-6.9,2.2-11.9,2.2-11.9l-2.3-12.1c0,0,2.6-3.8,1.4-6.8s-6.2-5.1-6.2-5.1s3.4-6.1,2.4-9.8c-1.2-4.4-6.9-4.9-6.9-4.9
						s1.1-7.9-0.5-11.1c-1.4-2.9-8.8-2.1-8.8-2.1s1.4-6.9-1.4-9.8s-9.8-1.6-9.8-1.6s-0.4-5.9-2.9-7.4s-9.9,0-9.9,0s-2.7-6-8-6
						c-5.2,0-7,3.8-7,3.8s-1.4-1.8-3.5-2.4s-4.8-0.1-4.8-0.1s0.5-8.1-2-10s-10.4-0.9-10.4-0.9s-0.5-6.3-5.8-8.7
						c-3.4-1.5-7.2,0.9-7.2,0.9s-2.7-5.7-7.1-6.6c-3.8-0.8-7.2,2.5-7.2,2.5s-1.7-3.2-4.3-4.2c-2.6-1-6.2,0.3-6.2,0.3s-0.8-2.1-2.3-3
						s-3.8-0.6-3.8-0.6v-7h6.1V322h-6v-6L1056.1,315.9L1056.1,315.9z M1046.1,343c0.9-0.1,1.9,0.1,2.7,0.6c2.3,1.3,3,4.2,1.7,6.4
						c-1.3,2.3-4.2,3.1-6.5,1.8c-2.3-1.3-3-4.2-1.7-6.5C1043.2,343.9,1044.6,343.1,1046.1,343z M1072.2,343c0.9-0.1,1.8,0.1,2.7,0.6
						c2.3,1.3,3.1,4.2,1.8,6.4c-1.3,2.3-4.2,3.1-6.5,1.8s-3.1-4.2-1.8-6.5C1069.3,343.9,1070.7,343.1,1072.2,343z M1033.1,344.8
						c0.9-0.1,1.8,0.1,2.7,0.6c2.3,1.3,3.1,4.2,1.8,6.5c-1.3,2.3-4.2,3-6.5,1.7s-3.1-4.2-1.8-6.4
						C1030.1,345.8,1031.6,345,1033.1,344.8z M1085.4,344.8c0.9-0.1,1.9,0.1,2.7,0.6c2.3,1.3,3,4.2,1.7,6.5s-4.2,3-6.5,1.7
						s-3-4.2-1.7-6.4C1082.5,345.8,1083.9,345,1085.4,344.8z M1019.7,349.7c0.9-0.1,1.8,0.1,2.7,0.6c2.3,1.3,3,4.2,1.7,6.5
						s-4.2,3-6.4,1.7c-2.3-1.3-3.1-4.2-1.8-6.5C1016.8,350.6,1018.2,349.8,1019.7,349.7z M1098.5,349.7c0.9-0.1,1.8,0.1,2.7,0.6
						c2.3,1.3,3,4.2,1.7,6.5s-4.2,3-6.5,1.7s-3-4.2-1.7-6.5C1095.6,350.6,1097,349.8,1098.5,349.7z M1059.3,355.1
						c0.9-0.1,1.8,0.1,2.7,0.6c2.3,1.3,3.1,4.2,1.8,6.5c-1.3,2.3-4.2,3-6.5,1.7s-3.1-4.2-1.8-6.4
						C1056.3,356,1057.8,355.2,1059.3,355.1z M1007.4,357.9c0.9-0.1,1.8,0.1,2.7,0.6c2.3,1.3,3,4.2,1.7,6.5s-4.2,3-6.4,1.7
						c-2.3-1.3-3.1-4.2-1.8-6.5C1004.4,358.8,1005.8,358,1007.4,357.9z M1110.8,357.9c0.9-0.1,1.8,0.1,2.7,0.6
						c2.3,1.3,3.1,4.2,1.8,6.5c-1.3,2.3-4.2,3-6.5,1.7s-3.1-4.2-1.8-6.5C1107.9,358.8,1109.3,358,1110.8,357.9z M1067.7,359.2
						c3.8-0.1,20,0.4,33.5,11c15.5,12.2,18.1,34.6,18.1,34.6s-1.7,0.5-3,1.7s-2.1,3.1-2.1,3.1s-9.5-0.4-9.5,10.2
						c0,6.8,8.6,9.4,8.6,9.4s-4.1,4.6-7.9,4.6c-4.1-0.1-8.4-7.6-8.4-7.6s5.4-13.2-7-13.2c-10.2,0-8.2,12.4-8.2,12.4s-4,4.5-8.3,4.3
						c-6-0.3-7.2-7.7-7.2-7.7s10.8,0.8,10.8-7.9c0-8.7-7.8-10.1-7.8-10.1s0.4-3.1-1.3-5s-5.6-2.5-5.6-2.5s3.7-2,4.4-5
						c0.8-3-0.8-6.7-0.8-6.7v-5.9c0,0,1.4-2.1,1.4-4.2s-1.4-4.2-1.4-4.2v-6.1c0-0.1,0.7-2.1,0.9-2.9c0.2-0.9,0-2.5,0-2.5
						S1067.2,359.2,1067.7,359.2z M1049.5,359.3c0.8,0,1.5,0,2,0s0.8,0,0.8,0s-0.2,1.6,0,2.5c0.2,0.7,0.8,2.8,0.9,2.9v6.1
						c0,0-1.4,2.2-1.4,4.2c0,2.1,1.4,4.2,1.4,4.2v5.9c0,0-1.6,3.6-0.8,6.7c0.7,2.9,4.4,5,4.4,5s-3.9,0.6-5.6,2.5s-1.3,5-1.3,5
						s-7.8,1.4-7.8,10.1s10.8,7.9,10.8,7.9s-1.3,7.4-7.2,7.7c-4.3,0.2-8.3-4.3-8.3-4.3s2-12.4-8.2-12.4c-12.3,0-7,13.2-7,13.2
						s-4.2,7.5-8.4,7.6c-3.8,0.1-7.9-4.6-7.9-4.6s8.6-2.6,8.6-9.4c0-10.6-9.5-10.2-9.5-10.2s-0.8-1.9-2.1-3.1c-1.3-1.2-3-1.7-3-1.7
						s2.6-22.4,18.1-34.6C1029.8,360.9,1043.6,359.4,1049.5,359.3z M984.5,367.9c0.9-0.1,1.9,0.1,2.7,0.6c2.3,1.3,3,4.2,1.7,6.5
						s-4.2,3.1-6.5,1.8c-2.3-1.3-3-4.2-1.7-6.5C981.6,368.8,983,368,984.5,367.9z M1133.9,367.9c0.9-0.1,1.9,0.1,2.7,0.6
						c2.3,1.3,3,4.2,1.7,6.5s-4.2,3.1-6.5,1.8c-2.3-1.3-3-4.2-1.7-6.5C1131,368.8,1132.4,368,1133.9,367.9z M997.6,369.1
						c0.9-0.1,1.8,0.1,2.7,0.6c2.3,1.3,3,4.2,1.7,6.4c-1.3,2.3-4.2,3.1-6.5,1.8c-2.3-1.3-3-4.2-1.7-6.5
						C994.7,370,996.1,369.2,997.6,369.1z M1120.5,369.1c0.9-0.1,1.8,0.1,2.7,0.6c2.3,1.3,3.1,4.2,1.8,6.4c-1.3,2.3-4.2,3.1-6.5,1.8
						c-2.3-1.3-3-4.2-1.7-6.5C1117.6,370,1119,369.2,1120.5,369.1z M1059.3,370.1c0.9-0.1,1.8,0.1,2.7,0.6c2.3,1.3,3.1,4.2,1.8,6.5
						c-1.3,2.3-4.2,3-6.5,1.7s-3.1-4.2-1.8-6.5C1056.3,371,1057.8,370.2,1059.3,370.1z M972.1,373c0.9-0.1,1.9,0.1,2.7,0.6
						c2.3,1.3,3,4.2,1.7,6.5s-4.2,3.1-6.5,1.8s-3-4.2-1.7-6.5C969.2,373.9,970.6,373.1,972.1,373z M1146.7,373
						c0.9-0.1,1.9,0.1,2.7,0.6c2.3,1.3,3,4.2,1.7,6.5s-4.2,3.1-6.5,1.8s-3-4.2-1.7-6.5C1143.8,373.9,1145.2,373.1,1146.7,373z
						 M991.3,381.8c0.9-0.1,1.8,0.1,2.7,0.6c2.3,1.3,3,4.2,1.7,6.5s-4.2,3.1-6.5,1.8c-2.3-1.3-3-4.2-1.7-6.5
						C988.3,382.7,989.8,381.9,991.3,381.8z M1127,381.8c0.9-0.1,1.8,0.1,2.7,0.6c2.3,1.3,3,4.2,1.7,6.5s-4.2,3.1-6.5,1.8
						c-2.3-1.3-3-4.2-1.7-6.5C1124,382.7,1125.5,381.9,1127,381.8z M959.6,382.1c0.9-0.1,1.9,0.1,2.7,0.6c2.3,1.3,3,4.2,1.7,6.4
						c-1.3,2.3-4.2,3.1-6.5,1.8c-2.3-1.3-3-4.2-1.7-6.5C956.7,383,958.1,382.2,959.6,382.1z M1158.9,382.1c0.9-0.1,1.9,0.1,2.7,0.6
						c2.3,1.3,3,4.2,1.7,6.4c-1.3,2.3-4.2,3.1-6.5,1.8s-3-4.2-1.7-6.5C1156,383,1157.4,382.2,1158.9,382.1z M1059.3,384.7
						c0.9-0.1,1.8,0.1,2.7,0.6c2.3,1.3,3.1,4.2,1.8,6.4c-1.3,2.3-4.2,3.1-6.5,1.8c-2.3-1.3-3.1-4.2-1.8-6.5
						C1056.3,385.6,1057.8,384.8,1059.3,384.7z M983,385.7c0,0,0,2.6,0.8,4.3s2.3,2.8,2.3,2.8s-6.7,4-6.7,8.1c0,5.9,5.8,8.5,5.8,8.5
						v4.3c0,0-7.1,3.1-4.9,11.4c2.9,11,12.8,6.5,12.8,6.5s-0.5,7.4-6.9,9.1c-5.6,1.5-8.2-5.3-8.3-5.3c0,0-5.1-9-12.2-4.9
						c-9,5.2-1.7,13.2-1.7,13.2s-1.5,5.8-4.7,7.8s-7.2,0.3-7.2,0.3s4.4-3,4.4-8.7c0-4.5-4.7-9.2-4.7-9.2s-1.1-15.8,6.7-27.9
						C966.4,394,983,385.7,983,385.7z M1136.2,385.7c0,0,16.6,8.3,24.4,20.4s6.7,27.9,6.7,27.9s-5.1,4.7-5.1,9.2
						c0,5.7,4.8,8.7,4.8,8.7s-3.9,1.7-7.2-0.3c-3.2-2-4.7-7.8-4.7-7.8s7.3-8-1.7-13.2c-7.1-4.1-12.2,4.9-12.2,4.9s-2.6,6.9-8.2,5.3
						c-6.4-1.7-6.9-9.1-6.9-9.1s9.9,4.5,12.8-6.5c2.2-8.3-4.9-11.4-4.9-11.4v-4.3c0,0,5.8-2.6,5.8-8.5c0-4.1-6.7-8.1-6.7-8.1
						s1.6-1.7,2.4-3.4S1136.2,385.7,1136.2,385.7z M950.1,392.8c0.9-0.1,1.9,0.1,2.7,0.6c2.3,1.3,3,4.2,1.7,6.5s-4.2,3-6.5,1.7
						s-3-4.2-1.7-6.5C947.2,393.7,948.6,392.9,950.1,392.8z M1168.6,392.8c0.9-0.1,1.8,0.1,2.7,0.6c2.3,1.3,3,4.2,1.7,6.5
						s-4.2,3-6.5,1.7s-3-4.2-1.7-6.5C1165.6,393.7,1167.1,392.9,1168.6,392.8z M988,396.5c0.9-0.1,1.8,0.1,2.7,0.6
						c2.3,1.3,3,4.2,1.7,6.5s-4.2,3-6.5,1.7s-3-4.2-1.7-6.4C985.1,397.5,986.5,396.6,988,396.5z M1130.8,396.5
						c0.9-0.1,1.8,0.1,2.7,0.6c2.3,1.3,3.1,4.2,1.8,6.5c-1.3,2.3-4.2,3-6.5,1.7s-3.1-4.2-1.8-6.4
						C1127.9,397.5,1129.3,396.6,1130.8,396.5z M1059,402.8c1.5-0.1,3.1,0.2,4.6,1.1c3.8,2.2,5.2,7.1,2.9,11
						c-2.2,3.8-7.1,5.2-11,2.9c-3.8-2.2-5.2-7.1-2.9-11C1054,404.3,1056.5,402.9,1059,402.8z M944.1,406c0.9-0.1,1.9,0.1,2.7,0.6
						c2.3,1.3,3,4.2,1.7,6.5s-4.2,3.1-6.5,1.8c-2.3-1.3-3-4.2-1.7-6.5C941.1,407,942.6,406.1,944.1,406z M1174.9,406
						c0.9-0.1,1.8,0.1,2.7,0.6c2.3,1.3,3,4.2,1.7,6.5s-4.2,3.1-6.4,1.8c-2.3-1.3-3.1-4.2-1.8-6.5C1172,407,1173.4,406.1,1174.9,406z
						 M995.9,410.2c1.5-0.1,3.1,0.2,4.6,1.1c3.8,2.2,5.2,7.2,3,11s-7.2,5.2-11,2.9s-5.2-7.2-2.9-11
						C990.9,411.8,993.3,410.4,995.9,410.2z M1122.2,410.2c1.5-0.1,3.1,0.2,4.6,1.1c3.8,2.2,5.2,7.2,2.9,11c-2.2,3.8-7.1,5.2-11,2.9
						s-5.2-7.2-2.9-11C1117.2,411.8,1119.6,410.4,1122.2,410.2z M940.5,420.5c0.9-0.1,1.9,0.1,2.7,0.6c2.3,1.3,3,4.2,1.7,6.5
						s-4.2,3-6.5,1.7s-3-4.2-1.7-6.5C937.6,421.4,939,420.6,940.5,420.5z M1178,420.5c0.9-0.1,1.8,0.1,2.7,0.6
						c2.3,1.3,3,4.2,1.7,6.5s-4.2,3-6.5,1.7s-3-4.2-1.7-6.5C1175,421.4,1176.4,420.6,1178,420.5z M1059.4,423.3c0,0,0.9,3.4,3,6.3
						s5.4,5.3,5.4,5.3h-16.9c0,0,2.8-2.4,4.9-5.3S1059.4,423.3,1059.4,423.3z M1032.3,430.2c0,0,1.2,1.4,3,2.7c1.8,1.3,4,2.3,4,2.3
						l-18.5,2.1c0,0,2.2-1.5,4.3-3.4c1.7-1.5,2-3.3,2-3.3L1032.3,430.2z M1086.3,430.2l5.1,0.4c0,0,0.3,1.9,2,3.3
						c2.1,1.9,4.3,3.4,4.3,3.4l-18.5-2.1c0,0,2.2-1.1,4.1-2.3C1085.2,431.6,1086.3,430.2,1086.3,430.2z M999.7,431
						c0,0,1.8,3.1,4.6,5.3c2.8,2.2,6.6,3.7,6.6,3.7l-16.4,4.4c0,0,2-3,3.3-6.4C999.1,434.7,999.7,431,999.7,431z M1119.1,431
						c0,0,0.6,3.7,1.9,7s3.3,6.4,3.3,6.4L1108,440c0,0,3.8-1.4,6.6-3.7C1117.3,434.1,1119.1,431,1119.1,431z M942.1,436.7
						c1.3,0,2.6,0.4,3.8,1.1c3.8,2.2,5.2,7.1,2.9,11c-2.2,3.8-7.1,5.2-11,2.9c-3.8-2.2-5.2-7.1-2.9-11
						C936.5,438.1,939.3,436.6,942.1,436.7z M1177.5,436.7c1.3,0,2.6,0.4,3.8,1.1c3.8,2.2,5.2,7.1,2.9,11c-2.2,3.8-7.2,5.2-11,2.9
						s-5.2-7.1-2.9-11C1171.8,438.1,1174.6,436.6,1177.5,436.7z M975.9,444.3c0,0,1.5,1.1,3.6,1.9s4.5,1.3,4.5,1.3l-17.4,6.4
						c0,0,1.7-2,3.3-4.3c1.3-1.9,1.2-3.7,1.2-3.7L975.9,444.3z M1143.3,444.3l4.9,1.6c0,0-0.1,1.9,1.2,3.7c1.6,2.3,3.4,4.3,3.4,4.3
						l-17.4-6.4c0,0,2.4-0.5,4.5-1.3C1141.9,445.4,1143.3,444.3,1143.3,444.3z M1032.3,452.8c2.7,0,4.9,2.2,4.9,4.9
						s-2.2,4.9-4.9,4.9s-4.9-2.2-4.9-4.9S1029.6,452.8,1032.3,452.8z M1085.1,452.8c2.7,0,4.9,2.2,4.9,4.9s-2.2,4.9-4.9,4.9
						s-4.9-2.2-4.9-4.9C1080.1,455,1082.4,452.8,1085.1,452.8z M981.9,466.8c2.7,0,4.9,2.2,4.9,4.9s-2.2,4.9-4.9,4.9
						c-2.7,0-4.9-2.2-4.9-4.9S979.1,466.8,981.9,466.8z M1136,466.8c2.7,0,4.9,2.2,4.9,4.9s-2.2,4.9-4.9,4.9c-2.7,0-4.9-2.2-4.9-4.9
						S1133.2,466.8,1136,466.8z"/>
					<g id="g18995" transform="translate(768.193, -12.5386)">
						<g id="g18983" transform="translate(181.103, -22.2439)">
							<polygon id="rect13628" fill="#E1233B" stroke="#173980" stroke-width="1.5002" points="110.4,485.5 125.4,491.2 110.4,497 
								95.4,491.2 							"/>
							<polygon id="rect13630" fill="#173980" stroke="#173980" stroke-width="1.5002" points="164.1,492.3 177.2,501.7 
								161.2,503.4 148.1,493.9 							"/>
							<polygon id="rect13632" fill="#173980" stroke="#173980" stroke-width="1.5002" points="56.5,492.3 43.5,501.7 59.5,503.4 
								72.5,493.9 							"/>
						</g>
						<path id="rect18089" fill="#E1233B" stroke="#173980" stroke-width="1.5" d="M202.2,487.2l-3.8,3.8l3.8,3.8l3.8-3.8
							L202.2,487.2z M380.6,487.2l-3.8,3.8l3.8,3.8l3.8-3.8L380.6,487.2z"/>
					</g>
					<path id="path19046" fill="none" stroke="#173980" stroke-width="2.9771" d="M966.1,468c45-26.1,134.9-30.3,187.2,0"/>
					<g id="g21727" transform="translate(-28.2843, 52.5279)">
						<path id="path20831" fill="#FABC01" stroke="#173980" stroke-width="3" d="M1087.9,419.2c-105.7,0-191.5,85.8-191.5,191.5
							s85.8,191.5,191.5,191.5s191.5-85.8,191.5-191.5S1193.6,419.2,1087.9,419.2z M1087.9,444c92,0,166.7,74.7,166.7,166.7
							s-74.7,166.7-166.7,166.7s-166.7-74.7-166.7-166.7S995.9,444,1087.9,444z"/>
						<g id="g21723" transform="matrix(0.993734, 0, 0, 0.993734, 1451.33, -101.263)">
							<path id="path20836" fill="#173980" stroke="#173980" stroke-width="1.004" d="M-499.8,664l197.5,201.1
								c0,0,27.2-13.5,45.5-29.6c18.3-16.1,26.8-35.3,26.8-35.3l-213.2-215L-499.8,664z"/>
							<path id="path1945" fill="#FABC01" stroke="#173980" stroke-width="4" d="M-286.5,578.7l-37.7,37.7
								c-10.2-3.9-20.7-6.2-31.2-7c-1.2-0.1-2.4-0.2-3.6-0.2c-16.5-0.7-32.9,2.4-47.9,8.9l-38.8-38.8c-23.2,13.5-43.4,33-57.8,58
								c-34.3,59.5-25.9,132,15.8,181.8l21.6-22c-51-47.8-38.4-136.3,18.1-184.6l18.2,19.1c-8.9,6.9-16.9,15.2-23.5,25
								c-32.6,48.6-18.7,114,30.9,146c9.4,6.1,19.5,10.5,29.8,13.4v28.8h22.1v-25c33.6,2.2,67.3-11,89.8-37.5l-18-19.9
								c-17.2,22.4-44.7,33.5-71.8,31.1v-21.7h31.6v-19.2h-31.6v-19.2h31.6v-16.2h-53.7v71.1c-5.2-2-10.3-4.5-15.2-7.7
								c-37.3-24.1-47.7-73.2-23.2-109.7c5.4-8,12-14.8,19.5-20.2l44.7,46.8l47.3-49.5l0.6,0.3c10.8,6.9,19.3,16,25.4,26.2
								l20.3-17.7c-7.2-10.8-16.5-20.4-27.8-28.2l15.6-16.3c56.5,48.3,69.1,136.7,18.2,184.5l22.9,22.9c6.1-7.2,11.6-15,16.5-23.4
								c43.9-76.1,17.8-173.5-58.3-217.5C-286.2,578.9-286.4,578.8-286.5,578.7z M-362.8,635.4c1.8,0,3.5,0.1,5.3,0.2
								c4.1,0.3,8.2,0.9,12.2,1.8l-21.2,21.2l-20-20C-378.8,636.4-370.8,635.3-362.8,635.4z"/>
						</g>
					</g>
				</g>
			</g>
		</g>
	</g>
</g>
</svg>
