<?xml version="1.0" encoding="utf-8"?>
<!-- Generator: Adobe Illustrator 19.1.0, SVG Export Plug-In . SVG Version: 6.00 Build 0)  -->
<svg version="1.1"
	 id="svg2" sodipodi:docbase="C:\Documents and Settings\Damian\Pulpit" sodipodi:version="0.32" xmlns:rdf="http://www.w3.org/1999/02/22-rdf-syntax-ns#" xmlns:sodipodi="http://sodipodi.sourceforge.net/DTD/sodipodi-0.dtd" xmlns:svg="http://www.w3.org/2000/svg" xmlns:cc="http://web.resource.org/cc/" xmlns:inkscape="http://www.inkscape.org/namespaces/inkscape" xmlns:dc="http://purl.org/dc/elements/1.1/" sodipodi:docname="Logo Real Madryt.svg" inkscape:version="0.44.1"
	 xmlns="http://www.w3.org/2000/svg" xmlns:xlink="http://www.w3.org/1999/xlink" x="0px" y="0px" viewBox="-55 47 500 700"
	 style="enable-background:new -55 47 500 700;" xml:space="preserve">
<style type="text/css">
	.st0{fill:#FFFFFF;}
	.st1{fill:#E1233B;stroke:#173980;}
	.st2{fill:#FABC01;stroke:#173980;stroke-width:1.5;}
	.st3{fill:#E1233B;stroke:#173980;stroke-width:1.5002;}
	.st4{fill:#173980;stroke:#173980;stroke-width:1.5002;}
	.st5{fill:#E1233B;stroke:#173980;stroke-width:1.5;}
	.st6{fill:none;stroke:#173980;stroke-width:2.9771;}
	.st7{fill:#FABC01;stroke:#173980;stroke-width:3;}
	.st8{fill:#173980;stroke:#173980;stroke-width:1.004;}
	.st9{fill:#FABC01;stroke:#173980;stroke-width:4;}
</style>
<sodipodi:namedview  gridtolerance="10.0" borderopacity="1.0" inkscape:cy="334.2208" inkscape:cx="290.04901" id="base" objecttolerance="10.0" guidetolerance="10.0" pagecolor="#ffffff" bordercolor="#666666" inkscape:zoom="0.53857134" inkscape:window-height="573" inkscape:window-y="58" inkscape:window-x="44" inkscape:pageopacity="0.0" inkscape:window-width="853" inkscape:current-layer="g25392" inkscape:pageshadow="2">
	</sodipodi:namedview>
<g id="layer1" transform="translate(-152.545, -140.201)">
	<g id="g21752" transform="translate(-686.904, 56.5685)">
		<g id="g20818" transform="translate(1005.84, 113.855)">
			<g id="g19035" transform="translate(18.5714, -43.5714)">
				<g id="g19011" transform="translate(3.53839)">
				</g>
			</g>
			<g id="g21741" transform="translate(0, 4.04061)">
			</g>
		</g>
		<g id="g21781" transform="matrix(1.29524, 0, 0, 1.29365, -393.043, -230.109)">
			<g id="g23567">
				<g id="g25392">
					<path id="path23601" class="st0" d="M1286.4,626.7c0,101.9-82.4,184.5-184.2,184.6c-101.8,0-184.3-82.5-184.3-184.4
						c0,0,0-0.1,0-0.1c0-101.9,82.4-184.5,184.2-184.6c101.8,0,184.3,82.5,184.3,184.4C1286.4,626.6,1286.4,626.7,1286.4,626.7z"/>
					<path id="path24490" class="st0" d="M1098.6,279.8v6h-6.1v6.1h6.1c0,2.3,0,3.5,0,7c0,0-2.3-0.3-3.8,0.6c-1.5,0.9-2.3,3-2.3,3
						s-3.6-1.3-6.2-0.3c-2.6,1-4.3,4.2-4.3,4.2c0,0-3.5-3.3-7.2-2.5c-4.4,1-7.1,6.6-7.1,6.6c0,0-3.7-2.5-7.2-0.9
						c-5.3,2.3-5.8,8.7-5.8,8.7s-7.9-1-10.4,0.9c-2.5,1.9-2,10-2,10s-2.8-0.5-4.8,0.1s-3.5,2.4-3.5,2.4s-1.8-3.8-7-3.8
						c-5.3,0-8,6-8,6c0,0-7.4-1.5-9.9,0c-2.6,1.5-2.9,7.4-2.9,7.4c0,0-7-1.2-9.8,1.6s-1.4,9.8-1.4,9.8c0,0-7.4-0.7-8.8,2.1
						c-1.6,3.2-0.5,11.1-0.5,11.1s-5.7,0.5-6.9,4.9c-1,3.7,2.4,9.8,2.4,9.8s-5,2.2-6.2,5.1c-1.2,3,1.4,6.8,1.4,6.8l-2.3,12.1
						c0,0-2.8,4.9,2.2,11.9c4.9,6.8,12.7,2.3,12.7,2.3c0,0,2.6,2,5.9,2.5c3.3,0.5,7.4-0.4,7.4-0.4s-1,3.4,0.3,5.4s5.2,2.7,5.2,2.7
						l1.7,4l-1.1,4.8l4.9,4.2l1.7,6.9c0,0,36-20.2,87-20.2c47.4,0,87,20.1,87,20.1l1.8-6.7l4.9-4.2l-1-4.8l1.7-4
						c0,0,3.8-0.7,5.2-2.7s0.3-5.4,0.3-5.4s4.1,0.9,7.5,0.4c3.3-0.5,5.9-2.5,5.9-2.5s7.8,4.5,12.7-2.3c5-6.9,2.2-11.9,2.2-11.9
						l-2.3-12.1c0,0,2.6-3.8,1.4-6.8s-6.2-5.1-6.2-5.1s3.4-6.1,2.4-9.8c-1.2-4.4-6.9-4.9-6.9-4.9s1.1-7.9-0.5-11.1
						c-1.4-2.9-8.8-2.1-8.8-2.1c0,0,1.4-6.9-1.4-9.8s-9.8-1.6-9.8-1.6s-0.4-5.9-2.9-7.4c-2.5-1.5-9.9,0-9.9,0c0,0-2.7-6-8-6
						c-5.2,0-7,3.8-7,3.8s-1.4-1.8-3.5-2.4c-2.1-0.6-4.8-0.1-4.8-0.1s0.5-8.1-2-10c-2.5-1.9-10.4-0.9-10.4-0.9s-0.5-6.3-5.8-8.7
						c-3.4-1.5-7.2,0.9-7.2,0.9c0,0-2.7-5.7-7.1-6.6c-3.8-0.8-7.2,2.5-7.2,2.5c0,0-1.7-3.2-4.3-4.2c-2.6-1-6.2,0.3-6.2,0.3
						s-0.8-2.1-2.3-3c-1.5-0.9-3.8-0.6-3.8-0.6v-7h6.1v-6.1h-6v-6H1098.6z"/>
					<path id="path19002" class="st1" d="M1081.9,345.5c-4.1,0-8.5,0.4-12.7,1.3c-17.1,3.8-32.8,15.9-32.8,15.9s-0.8,0.1-1.2,0.1
						c0.3,0.6,0.5,1.3,0.5,2c0,2.5-2,4.6-4.6,4.6s-4.6-2-4.6-4.6c0-0.2,0-0.5,0.1-0.7c-4.6,0.9-10.1,2.2-15.4,4.3
						c-12.1,4.8-22.8,13.6-22.8,13.6l10.4,25l-6.1,9.3l19.7,6.1c0,0,43.9-21.6,90.4-21.4c46.5,0.2,95.7,22.1,95.7,22.1l5.4-6.8
						l10.7,1.1l-4.7-11.8l6.4-17.2l-3.4-8.3c0,0-5.7-7-15.9-11.3c-5.9-2.5-13.4-4.1-18.6-5.1c0.1,0.4,0.2,0.9,0.2,1.4
						c0,2.5-2.1,4.6-4.6,4.6s-4.6-2.1-4.6-4.6c0-1.3,0.5-2.5,1.4-3.3c-3.5-2.8-15.4-11.7-29.4-14.9c-16.8-3.8-36.6,1.8-36.6,1.8
						S1094.3,345.5,1081.9,345.5z M1101.9,348.4c2.5,0,4.6,2.1,4.6,4.6s-2,4.6-4.6,4.6s-4.6-2-4.6-4.6S1099.4,348.4,1101.9,348.4z
						 M1102.2,365.9c4.9,0,8.9,4,8.9,8.9s-4,8.9-8.9,8.9c-4.9,0-8.9-4-8.9-8.9S1097.3,365.9,1102.2,365.9z M1165.3,373.2
						c4.9,0,8.9,4,8.9,8.9s-4,8.9-8.9,8.9c-4.9,0-8.9-4-8.9-8.9S1160.4,373.2,1165.3,373.2z M1039.1,373.3c4.9,0,8.9,4,8.9,8.9
						s-4,8.9-8.9,8.9c-4.9,0-8.9-4-8.9-8.9S1034.2,373.3,1039.1,373.3z"/>
					<path id="path9070" class="st2" d="M1098.6,279.6v6h-6.1v6.1h6.1v7c0,0-2.3-0.3-3.8,0.6c-1.5,0.9-2.3,3-2.3,3s-3.6-1.3-6.2-0.3
						s-4.3,4.2-4.3,4.2c0,0-3.5-3.3-7.2-2.5c-4.4,1-7.1,6.6-7.1,6.6c0,0-3.7-2.5-7.2-0.9c-5.3,2.3-5.8,8.7-5.8,8.7
						c0,0-7.9-1-10.4,0.9c-2.5,1.9-2,10-2,10s-2.8-0.5-4.8,0.1c-2.1,0.6-3.5,2.4-3.5,2.4s-1.8-3.8-7-3.8c-5.3,0-8,6-8,6
						s-7.4-1.5-9.9,0c-2.6,1.5-2.9,7.4-2.9,7.4s-7-1.2-9.8,1.6s-1.4,9.8-1.4,9.8c0,0-7.4-0.7-8.8,2.1c-1.6,3.2-0.5,11.1-0.5,11.1
						s-5.7,0.5-6.9,4.9c-1,3.7,2.4,9.8,2.4,9.8s-5,2.2-6.2,5.1s1.4,6.8,1.4,6.8l-2.3,12.1c0,0-2.8,4.9,2.2,11.9
						c4.9,6.8,12.7,2.3,12.7,2.3s2.6,2,5.9,2.5c3.3,0.5,7.4-0.4,7.4-0.4s-1,3.4,0.3,5.4c1.4,2,5.2,2.7,5.2,2.7l1.7,4l-1.1,4.8
						l4.9,4.2l1.7,6.9c0,0,36-20.2,87-20.2c47.4,0,87,20.1,87,20.1l1.8-6.7l4.9-4.2l-1-4.8l1.7-4c0,0,3.8-0.7,5.2-2.7
						c1.4-2,0.3-5.4,0.3-5.4s4.1,0.9,7.5,0.4c3.3-0.5,5.9-2.5,5.9-2.5s7.8,4.5,12.7-2.3c5-6.9,2.2-11.9,2.2-11.9l-2.3-12.1
						c0,0,2.6-3.8,1.4-6.8c-1.2-3-6.2-5.1-6.2-5.1s3.4-6.1,2.4-9.8c-1.2-4.4-6.9-4.9-6.9-4.9s1.1-7.9-0.5-11.1
						c-1.4-2.9-8.8-2.1-8.8-2.1c0,0,1.4-6.9-1.4-9.8s-9.8-1.6-9.8-1.6s-0.4-5.9-2.9-7.4c-2.5-1.5-9.9,0-9.9,0c0,0-2.7-6-8-6
						c-5.2,0-7,3.8-7,3.8s-1.4-1.8-3.5-2.4c-2.1-0.6-4.8-0.1-4.8-0.1s0.5-8.1-2-10c-2.5-1.9-10.4-0.9-10.4-0.9s-0.5-6.3-5.8-8.7
						c-3.4-1.5-7.2,0.9-7.2,0.9c0,0-2.7-5.7-7.1-6.6c-3.8-0.8-7.2,2.5-7.2,2.5c0,0-1.7-3.2-4.3-4.2c-2.6-1-6.2,0.3-6.2,0.3
						s-0.8-2.1-2.3-3s-3.8-0.6-3.8-0.6v-7h6.1v-6.1h-6v-6H1098.6z M1088.6,306.7c0.9-0.1,1.9,0.1,2.7,0.6c2.3,1.3,3,4.2,1.7,6.4
						c-1.3,2.3-4.2,3.1-6.5,1.8c-2.3-1.3-3-4.2-1.7-6.5C1085.7,307.6,1087.1,306.8,1088.6,306.7z M1114.7,306.7
						c0.9-0.1,1.8,0.1,2.7,0.6c2.3,1.3,3.1,4.2,1.8,6.4c-1.3,2.3-4.2,3.1-6.5,1.8s-3.1-4.2-1.8-6.5
						C1111.8,307.6,1113.2,306.8,1114.7,306.7z M1075.6,308.5c0.9-0.1,1.8,0.1,2.7,0.6c2.3,1.3,3.1,4.2,1.8,6.5
						c-1.3,2.3-4.2,3-6.5,1.7c-2.3-1.3-3.1-4.2-1.8-6.4C1072.6,309.5,1074.1,308.7,1075.6,308.5z M1127.9,308.5
						c0.9-0.1,1.9,0.1,2.7,0.6c2.3,1.3,3,4.2,1.7,6.5c-1.3,2.3-4.2,3-6.5,1.7s-3-4.2-1.7-6.4C1125,309.5,1126.4,308.7,1127.9,308.5z
						 M1062.2,313.4c0.9-0.1,1.8,0.1,2.7,0.6c2.3,1.3,3,4.2,1.7,6.5c-1.3,2.3-4.2,3-6.4,1.7c-2.3-1.3-3.1-4.2-1.8-6.5
						C1059.3,314.3,1060.7,313.5,1062.2,313.4z M1141,313.4c0.9-0.1,1.8,0.1,2.7,0.6c2.3,1.3,3,4.2,1.7,6.5c-1.3,2.3-4.2,3-6.5,1.7
						s-3-4.2-1.7-6.5C1138.1,314.3,1139.5,313.5,1141,313.4z M1101.8,318.8c0.9-0.1,1.8,0.1,2.7,0.6c2.3,1.3,3.1,4.2,1.8,6.5
						c-1.3,2.3-4.2,3-6.5,1.7c-2.3-1.3-3.1-4.2-1.8-6.4C1098.8,319.7,1100.3,318.9,1101.8,318.8z M1049.9,321.6
						c0.9-0.1,1.8,0.1,2.7,0.6c2.3,1.3,3,4.2,1.7,6.5c-1.3,2.3-4.2,3-6.4,1.7c-2.3-1.3-3.1-4.2-1.8-6.5
						C1046.9,322.5,1048.3,321.7,1049.9,321.6z M1153.3,321.6c0.9-0.1,1.8,0.1,2.7,0.6c2.3,1.3,3.1,4.2,1.8,6.5
						c-1.3,2.3-4.2,3-6.5,1.7c-2.3-1.3-3.1-4.2-1.8-6.5C1150.4,322.5,1151.8,321.7,1153.3,321.6z M1110.2,322.9
						c3.8-0.1,20,0.4,33.5,11c15.5,12.2,18.1,34.6,18.1,34.6s-1.7,0.5-3,1.7c-1.3,1.2-2.1,3.1-2.1,3.1s-9.5-0.4-9.5,10.2
						c0,6.8,8.6,9.4,8.6,9.4s-4.1,4.6-7.9,4.6c-4.1-0.1-8.4-7.6-8.4-7.6s5.4-13.2-7-13.2c-10.2,0-8.2,12.4-8.2,12.4s-4,4.5-8.3,4.3
						c-6-0.3-7.2-7.7-7.2-7.7s10.8,0.8,10.8-7.9c0-8.7-7.8-10.1-7.8-10.1s0.4-3.1-1.3-5s-5.6-2.5-5.6-2.5s3.7-2,4.4-5
						c0.8-3-0.8-6.7-0.8-6.7v-5.9c0,0,1.4-2.1,1.4-4.2c0-2.1-1.4-4.2-1.4-4.2v-6.1c0-0.1,0.7-2.1,0.9-2.9c0.2-0.9,0-2.5,0-2.5
						S1109.7,322.9,1110.2,322.9z M1092,323c0.8,0,1.5,0,2,0c0.5,0,0.8,0,0.8,0s-0.2,1.6,0,2.5c0.2,0.7,0.8,2.8,0.9,2.9v6.1
						c0,0-1.4,2.2-1.4,4.2c0,2.1,1.4,4.2,1.4,4.2v5.9c0,0-1.6,3.6-0.8,6.7c0.7,2.9,4.4,5,4.4,5s-3.9,0.6-5.6,2.5s-1.3,5-1.3,5
						s-7.8,1.4-7.8,10.1c0,8.7,10.8,7.9,10.8,7.9s-1.3,7.4-7.2,7.7c-4.3,0.2-8.3-4.3-8.3-4.3s2-12.4-8.2-12.4c-12.3,0-7,13.2-7,13.2
						s-4.2,7.5-8.4,7.6c-3.8,0.1-7.9-4.6-7.9-4.6s8.6-2.6,8.6-9.4c0-10.6-9.5-10.2-9.5-10.2s-0.8-1.9-2.1-3.1c-1.3-1.2-3-1.7-3-1.7
						s2.6-22.4,18.1-34.6C1072.3,324.6,1086.1,323.1,1092,323z M1027,331.6c0.9-0.1,1.9,0.1,2.7,0.6c2.3,1.3,3,4.2,1.7,6.5
						c-1.3,2.3-4.2,3.1-6.5,1.8c-2.3-1.3-3-4.2-1.7-6.5C1024.1,332.5,1025.5,331.7,1027,331.6z M1176.4,331.6
						c0.9-0.1,1.9,0.1,2.7,0.6c2.3,1.3,3,4.2,1.7,6.5c-1.3,2.3-4.2,3.1-6.5,1.8c-2.3-1.3-3-4.2-1.7-6.5
						C1173.5,332.5,1174.9,331.7,1176.4,331.6z M1040.1,332.8c0.9-0.1,1.8,0.1,2.7,0.6c2.3,1.3,3,4.2,1.7,6.4
						c-1.3,2.3-4.2,3.1-6.5,1.8c-2.3-1.3-3-4.2-1.7-6.5C1037.2,333.7,1038.6,332.9,1040.1,332.8z M1163,332.8
						c0.9-0.1,1.8,0.1,2.7,0.6c2.3,1.3,3.1,4.2,1.8,6.4c-1.3,2.3-4.2,3.1-6.5,1.8c-2.3-1.3-3-4.2-1.7-6.5
						C1160.1,333.7,1161.5,332.9,1163,332.8z M1101.8,333.8c0.9-0.1,1.8,0.1,2.7,0.6c2.3,1.3,3.1,4.2,1.8,6.5
						c-1.3,2.3-4.2,3-6.5,1.7c-2.3-1.3-3.1-4.2-1.8-6.5C1098.8,334.7,1100.3,333.9,1101.8,333.8z M1014.6,336.7
						c0.9-0.1,1.9,0.1,2.7,0.6c2.3,1.3,3,4.2,1.7,6.5c-1.3,2.3-4.2,3.1-6.5,1.8s-3-4.2-1.7-6.5
						C1011.7,337.6,1013.1,336.8,1014.6,336.7z M1189.2,336.7c0.9-0.1,1.9,0.1,2.7,0.6c2.3,1.3,3,4.2,1.7,6.5
						c-1.3,2.3-4.2,3.1-6.5,1.8s-3-4.2-1.7-6.5C1186.3,337.6,1187.7,336.8,1189.2,336.7z M1033.8,345.5c0.9-0.1,1.8,0.1,2.7,0.6
						c2.3,1.3,3,4.2,1.7,6.5c-1.3,2.3-4.2,3.1-6.5,1.8c-2.3-1.3-3-4.2-1.7-6.5C1030.8,346.4,1032.3,345.6,1033.8,345.5z
						 M1169.5,345.5c0.9-0.1,1.8,0.1,2.7,0.6c2.3,1.3,3,4.2,1.7,6.5c-1.3,2.3-4.2,3.1-6.5,1.8c-2.3-1.3-3-4.2-1.7-6.5
						C1166.5,346.4,1168,345.6,1169.5,345.5z M1002.1,345.8c0.9-0.1,1.9,0.1,2.7,0.6c2.3,1.3,3,4.2,1.7,6.4
						c-1.3,2.3-4.2,3.1-6.5,1.8c-2.3-1.3-3-4.2-1.7-6.5C999.2,346.7,1000.6,345.9,1002.1,345.8z M1201.4,345.8
						c0.9-0.1,1.9,0.1,2.7,0.6c2.3,1.3,3,4.2,1.7,6.4c-1.3,2.3-4.2,3.1-6.5,1.8s-3-4.2-1.7-6.5
						C1198.5,346.7,1199.9,345.9,1201.4,345.8z M1101.8,348.4c0.9-0.1,1.8,0.1,2.7,0.6c2.3,1.3,3.1,4.2,1.8,6.4
						c-1.3,2.3-4.2,3.1-6.5,1.8c-2.3-1.3-3.1-4.2-1.8-6.5C1098.8,349.3,1100.3,348.5,1101.8,348.4z M1025.5,349.4c0,0,0,2.6,0.8,4.3
						s2.3,2.8,2.3,2.8s-6.7,4-6.7,8.1c0,5.9,5.8,8.5,5.8,8.5v4.3c0,0-7.1,3.1-4.9,11.4c2.9,11,12.8,6.5,12.8,6.5s-0.5,7.4-6.9,9.1
						c-5.6,1.5-8.2-5.3-8.3-5.3c0,0-5.1-9-12.2-4.9c-9,5.2-1.7,13.2-1.7,13.2c0,0-1.5,5.8-4.7,7.8c-3.2,2-7.2,0.3-7.2,0.3
						c0,0,4.4-3,4.4-8.7c0-4.5-4.7-9.2-4.7-9.2c0,0-1.1-15.8,6.7-27.9C1008.9,357.7,1025.5,349.4,1025.5,349.4z M1178.7,349.4
						c0,0,16.6,8.3,24.4,20.4c7.8,12.1,6.7,27.9,6.7,27.9s-5.1,4.7-5.1,9.2c0,5.7,4.8,8.7,4.8,8.7s-3.9,1.7-7.2-0.3
						c-3.2-2-4.7-7.8-4.7-7.8s7.3-8-1.7-13.2c-7.1-4.1-12.2,4.9-12.2,4.9s-2.6,6.9-8.2,5.3c-6.4-1.7-6.9-9.1-6.9-9.1
						s9.9,4.5,12.8-6.5c2.2-8.3-4.9-11.4-4.9-11.4v-4.3c0,0,5.8-2.6,5.8-8.5c0-4.1-6.7-8.1-6.7-8.1s1.6-1.7,2.4-3.4
						S1178.7,349.4,1178.7,349.4z M992.6,356.5c0.9-0.1,1.9,0.1,2.7,0.6c2.3,1.3,3,4.2,1.7,6.5c-1.3,2.3-4.2,3-6.5,1.7
						s-3-4.2-1.7-6.5C989.7,357.4,991.1,356.6,992.6,356.5z M1211.1,356.5c0.9-0.1,1.8,0.1,2.7,0.6c2.3,1.3,3,4.2,1.7,6.5
						c-1.3,2.3-4.2,3-6.5,1.7s-3-4.2-1.7-6.5C1208.1,357.4,1209.6,356.6,1211.1,356.5z M1030.5,360.2c0.9-0.1,1.8,0.1,2.7,0.6
						c2.3,1.3,3,4.2,1.7,6.5c-1.3,2.3-4.2,3-6.5,1.7c-2.3-1.3-3-4.2-1.7-6.4C1027.6,361.2,1029,360.3,1030.5,360.2z M1173.3,360.2
						c0.9-0.1,1.8,0.1,2.7,0.6c2.3,1.3,3.1,4.2,1.8,6.5c-1.3,2.3-4.2,3-6.5,1.7c-2.3-1.3-3.1-4.2-1.8-6.4
						C1170.4,361.2,1171.8,360.3,1173.3,360.2z M1101.5,366.5c1.5-0.1,3.1,0.2,4.6,1.1c3.8,2.2,5.2,7.1,2.9,11
						c-2.2,3.8-7.1,5.2-11,2.9c-3.8-2.2-5.2-7.1-2.9-11C1096.5,368,1099,366.6,1101.5,366.5z M986.6,369.7c0.9-0.1,1.9,0.1,2.7,0.6
						c2.3,1.3,3,4.2,1.7,6.5c-1.3,2.3-4.2,3.1-6.5,1.8c-2.3-1.3-3-4.2-1.7-6.5C983.6,370.7,985.1,369.8,986.6,369.7z M1217.4,369.7
						c0.9-0.1,1.8,0.1,2.7,0.6c2.3,1.3,3,4.2,1.7,6.5c-1.3,2.3-4.2,3.1-6.4,1.8c-2.3-1.3-3.1-4.2-1.8-6.5
						C1214.5,370.7,1215.9,369.8,1217.4,369.7z M1038.4,373.9c1.5-0.1,3.1,0.2,4.6,1.1c3.8,2.2,5.2,7.2,3,11
						c-2.2,3.8-7.2,5.2-11,2.9s-5.2-7.2-2.9-11C1033.4,375.5,1035.8,374.1,1038.4,373.9z M1164.7,373.9c1.5-0.1,3.1,0.2,4.6,1.1
						c3.8,2.2,5.2,7.2,2.9,11c-2.2,3.8-7.1,5.2-11,2.9s-5.2-7.2-2.9-11C1159.7,375.5,1162.1,374.1,1164.7,373.9z M983,384.2
						c0.9-0.1,1.9,0.1,2.7,0.6c2.3,1.3,3,4.2,1.7,6.5c-1.3,2.3-4.2,3-6.5,1.7c-2.3-1.3-3-4.2-1.7-6.5
						C980.1,385.1,981.5,384.3,983,384.2z M1220.5,384.2c0.9-0.1,1.8,0.1,2.7,0.6c2.3,1.3,3,4.2,1.7,6.5c-1.3,2.3-4.2,3-6.5,1.7
						c-2.3-1.3-3-4.2-1.7-6.5C1217.5,385.1,1218.9,384.3,1220.5,384.2z M1101.9,387c0,0,0.9,3.4,3,6.3c2.1,2.9,5.4,5.3,5.4,5.3
						h-16.9c0,0,2.8-2.4,4.9-5.3C1100.4,390.4,1101.9,387,1101.9,387z M1074.8,393.9c0,0,1.2,1.4,3,2.7c1.8,1.3,4,2.3,4,2.3
						l-18.5,2.1c0,0,2.2-1.5,4.3-3.4c1.7-1.5,2-3.3,2-3.3L1074.8,393.9z M1128.8,393.9l5.1,0.4c0,0,0.3,1.9,2,3.3
						c2.1,1.9,4.3,3.4,4.3,3.4l-18.5-2.1c0,0,2.2-1.1,4.1-2.3C1127.7,395.3,1128.8,393.9,1128.8,393.9z M1042.2,394.7
						c0,0,1.8,3.1,4.6,5.3c2.8,2.2,6.6,3.7,6.6,3.7l-16.4,4.4c0,0,2-3,3.3-6.4C1041.6,398.4,1042.2,394.7,1042.2,394.7z
						 M1161.6,394.7c0,0,0.6,3.7,1.9,7c1.3,3.3,3.3,6.4,3.3,6.4l-16.3-4.4c0,0,3.8-1.4,6.6-3.7
						C1159.8,397.8,1161.6,394.7,1161.6,394.7z M984.6,400.4c1.3,0,2.6,0.4,3.8,1.1c3.8,2.2,5.2,7.1,2.9,11c-2.2,3.8-7.1,5.2-11,2.9
						c-3.8-2.2-5.2-7.1-2.9-11C979,401.8,981.8,400.3,984.6,400.4z M1220,400.4c1.3,0,2.6,0.4,3.8,1.1c3.8,2.2,5.2,7.1,2.9,11
						c-2.2,3.8-7.2,5.2-11,2.9s-5.2-7.1-2.9-11C1214.3,401.8,1217.1,400.3,1220,400.4z M1018.4,408c0,0,1.5,1.1,3.6,1.9
						c2.1,0.8,4.5,1.3,4.5,1.3l-17.4,6.4c0,0,1.7-2,3.3-4.3c1.3-1.9,1.2-3.7,1.2-3.7L1018.4,408z M1185.8,408l4.9,1.6
						c0,0-0.1,1.9,1.2,3.7c1.6,2.3,3.4,4.3,3.4,4.3l-17.4-6.4c0,0,2.4-0.5,4.5-1.3C1184.4,409.1,1185.8,408,1185.8,408z
						 M1074.8,416.5c2.7,0,4.9,2.2,4.9,4.9s-2.2,4.9-4.9,4.9s-4.9-2.2-4.9-4.9C1069.9,418.7,1072.1,416.5,1074.8,416.5z
						 M1127.6,416.5c2.7,0,4.9,2.2,4.9,4.9s-2.2,4.9-4.9,4.9s-4.9-2.2-4.9-4.9C1122.6,418.7,1124.9,416.5,1127.6,416.5z
						 M1024.4,430.5c2.7,0,4.9,2.2,4.9,4.9s-2.2,4.9-4.9,4.9c-2.7,0-4.9-2.2-4.9-4.9S1021.6,430.5,1024.4,430.5z M1178.5,430.5
						c2.7,0,4.9,2.2,4.9,4.9s-2.2,4.9-4.9,4.9c-2.7,0-4.9-2.2-4.9-4.9S1175.7,430.5,1178.5,430.5z"/>
					<g id="g18995" transform="translate(768.193, -12.5386)">
						<g id="g18983" transform="translate(181.103, -22.2439)">
							<polygon id="rect13628" class="st3" points="152.9,449.2 167.9,454.9 152.9,460.7 137.9,454.9 							"/>
							<polygon id="rect13630" class="st4" points="206.6,456 219.7,465.4 203.7,467.1 190.6,457.6 							"/>
							<polygon id="rect13632" class="st4" points="99,456 86,465.4 102,467.1 115,457.6 							"/>
						</g>
						<path id="rect18089" class="st5" d="M244.7,450.9l-3.8,3.8l3.8,3.8l3.8-3.8L244.7,450.9z M423.1,450.9l-3.8,3.8l3.8,3.8
							l3.8-3.8L423.1,450.9z"/>
					</g>
					<path id="path19046" class="st6" d="M1008.6,431.7c45-26.1,134.9-30.3,187.2,0"/>
					<g id="g21727" transform="translate(-28.2843, 52.5279)">
						<path id="path20831" class="st7" d="M1130.4,382.9c-105.7,0-191.5,85.8-191.5,191.5s85.8,191.5,191.5,191.5
							c105.7,0,191.5-85.8,191.5-191.5S1236.1,382.9,1130.4,382.9z M1130.4,407.7c92,0,166.7,74.7,166.7,166.7
							s-74.7,166.7-166.7,166.7s-166.7-74.7-166.7-166.7S1038.4,407.7,1130.4,407.7z"/>
						<g id="g21723" transform="matrix(0.993734, 0, 0, 0.993734, 1451.33, -101.263)">
							<path id="path20836" class="st8" d="M-457.1,627.4l197.5,201.1c0,0,27.2-13.5,45.5-29.6c18.3-16.1,26.8-35.3,26.8-35.3
								l-213.2-215L-457.1,627.4z"/>
							<path id="path1945" class="st9" d="M-243.8,542.1l-37.7,37.7c-10.2-3.9-20.7-6.2-31.2-7c-1.2-0.1-2.4-0.2-3.6-0.2
								c-16.5-0.7-32.9,2.4-47.9,8.9l-38.8-38.8c-23.2,13.5-43.4,33-57.8,58c-34.3,59.5-25.9,132,15.8,181.8l21.6-22
								c-51-47.8-38.4-136.3,18.1-184.6l18.2,19.1c-8.9,6.9-16.9,15.2-23.5,25c-32.6,48.6-18.7,114,30.9,146
								c9.4,6.1,19.5,10.5,29.8,13.4v28.8h22.1v-25c33.6,2.2,67.3-11,89.8-37.5l-18-19.9c-17.2,22.4-44.7,33.5-71.8,31.1v-21.7h31.6
								V716h-31.6v-19.2h31.6v-16.2h-53.7v71.1c-5.2-2-10.3-4.5-15.2-7.7c-37.3-24.1-47.7-73.2-23.2-109.7c5.4-8,12-14.8,19.5-20.2
								l44.7,46.8l47.3-49.5l0.6,0.3c10.8,6.9,19.3,16,25.4,26.2l20.3-17.7c-7.2-10.8-16.5-20.4-27.8-28.2l15.6-16.3
								c56.5,48.3,69.1,136.7,18.2,184.5l22.9,22.9c6.1-7.2,11.6-15,16.5-23.4c43.9-76.1,17.8-173.5-58.3-217.5
								C-243.5,542.3-243.7,542.2-243.8,542.1z M-320.1,598.8c1.8,0,3.5,0.1,5.3,0.2c4.1,0.3,8.2,0.9,12.2,1.8l-21.2,21.2l-20-20
								C-336.1,599.8-328.1,598.7-320.1,598.8z"/>
						</g>
					</g>
				</g>
			</g>
		</g>
	</g>
</g>
</svg>
