<?xml version="1.0" encoding="utf-8"?>
<!-- Generator: Adobe Illustrator 19.1.0, SVG Export Plug-In . SVG Version: 6.00 Build 0)  -->
<svg version="1.1" id="Layer_1" xmlns="http://www.w3.org/2000/svg" xmlns:xlink="http://www.w3.org/1999/xlink" x="0px" y="0px"
	 viewBox="-223 290.4 164.7 212.6" style="enable-background:new -223 290.4 164.7 212.6;" xml:space="preserve">
<style type="text/css">
	.st0{fill:#D35D2C;}
	.st1{fill:#793022;}
	.st2{fill:#FFFFFF;}
</style>
<path d="M-60.8,332.1c-4.6-1.2-8.7-2.6-12.4-3.9c-26.5-8.8-48.9-21.4-67.4-37.9c-20.5,18.3-45.9,31.9-76.3,40.8l-3.5,1
	c-3.8,22.6-3.4,44.1,1.2,64.3l2.3,9c6.7,22.8,18.8,44,36.5,63.3l7.2,7.6c9.3,9.2,20.1,18,32.6,26.7c12.3-8.6,23.2-17.4,32.6-26.7
	l7.2-7.6c11.6-12.6,20.8-26,27.6-40.1c5.1-10.4,8.8-21.1,11.1-32.1C-57.6,376.5-57.1,355-60.8,332.1z"/>
<g>
	<path class="st0" d="M-215.7,335.4l-0.7,0.3c-3.2,21.6-2.6,41.8,1.8,60.8h147.9c4.4-19,5.1-39.2,1.8-60.8l-9.8-3.1
		c-25.7-8.6-47.8-20.7-66-36.2C-161.2,313.8-186.2,326.8-215.7,335.4z"/>
</g>
<g>
	<g>
		<path class="st1" d="M-214.6,396.4l1.9,7.8c7,23.7,19.8,45.1,38.4,64.5l7.6,7.6c7.9,7.3,16.6,14.4,26.1,21.2
			c9.2-6.4,17.9-13.5,26.1-21.2l7.7-7.6c12.7-13.3,22.5-27.3,29.6-42c4.8-9.9,8.3-20,10.6-30.2H-214.6z"/>
	</g>
</g>
<path class="st0" d="M-112.4,435.8c1-0.7,2.1-1.5,2.9-2.4c2.9-2.9,4.4-6.4,4.4-10.4v-3.9c0-4-1.5-7.5-4.4-10.3
	c-2.9-2.9-6.4-4.4-10.4-4.4h-20.9v17.1h-5.1v-17.1h-14c-5.5,0-10.3,2.1-14.1,6c-4,3.9-5.9,8.6-5.9,14.1v20.8h5.7v-9.4h16.8
	c0.3,0.4,0.6,0.8,0.9,1.2c1.1,1,2.2,1.7,3.4,2.1l1.5,0.7v5.4h5.7v-2.7l5.1,2.4v0.3h0.6l10.6,5.1c0.1,0.2,0.2,0.3,0.3,0.4
	c0.7,0.7,1.2,1.7,1.2,2.8v0.1c0,1.2-0.4,2.1-1.2,2.9c-0.8,0.8-1.8,1.2-2.9,1.2h-26.6v4.8h26.7c2.5,0,4.6-1,6.4-2.7
	c1.7-1.8,2.6-3.9,2.6-6.4v-0.1c0-2.5-0.9-4.6-2.6-6.4c-1-1-2.1-1.8-3.4-2.2l-6.1-2.9v-6h14.7l9.4,9.4h8.1L-112.4,435.8z M-154,430.4
	L-154,430.4c0-1.2,0.4-2.2,1.2-3c0.4-0.3,0.8-0.6,1.2-0.8v5.5h-2C-153.9,431.5-154,430.9-154,430.4z M-174.2,432v-7.5
	c0-4,1.4-7.3,4.2-10.2c2.9-2.8,6.2-4.2,10.2-4.2h8.3v11.4c-1.9,0.3-3.5,1.1-4.9,2.6c-1.8,1.7-2.6,3.8-2.6,6.3v0.1
	c0,0.5,0,0.9,0.1,1.4H-174.2z M-145.9,436.7v-10.5h5.1v13L-145.9,436.7z M-116.7,431.5c-1.1,0.4-2.1,0.5-3.2,0.5h-15.2v-5.9h8.6
	v-4.7h-8.6v-11.3h15.2c2.5,0,4.7,0.9,6.5,2.6c1.7,1.7,2.6,3.8,2.6,6.3v3.9c0,2.5-0.9,4.6-2.6,6.4
	C-114.6,430.5-115.6,431.2-116.7,431.5z"/>
<path d="M-94.5,393.8c0.1-0.1,0.2-0.3,0.4-0.4c0.8-4.9,1.9-8.6,3.4-11.4c1.2-1.6,0-4.8-3.5-9.7c-1.2-2.8-2.3-5.3-3.2-7.5
	c-0.2-4.9-0.9-9.8-2-14.7c-1.7-4.5-5-7-10-7.8c-0.7-0.3-1.3-0.6-2-0.8c-2.7-1-5.9-1.2-9.4-0.9c-9.9,0.5-20,0.6-30.4,0.1
	c-0.8-0.3-1.6-0.4-2.4-0.4c-1.2-0.1-2.3-0.1-3.6,0c-3.7,0.5-7.1,0.7-10.2,0.8c-3.4,0-6.5-0.2-9.2-0.8c0.1-2.5-0.7-4.4-2.6-5.9
	c-0.1-0.1-0.2-0.1-0.4-0.2c-0.1,0.1-0.2,0.2-0.3,0.4c-1.1,1.5-1.7,3.1-1.8,4.9c-2.2-0.2-4.2-0.1-6.1,0.3c-0.2-1.9-0.7-3.4-1.8-4.4
	c-0.7,0.7-1.4,1.5-2,2.4c-0.9,1.3-1.5,2.8-1.7,4.3c0,1.2-0.1,2.6-0.1,3.9c-0.7,0.5-1.1,1.1-1.5,1.9c0,0.4,0,0.9,0.1,1.3
	c0,1.4,0.4,2.7,1.2,3.9c0.4,0.1,0.7,0.3,1,0.8c-0.1,0.5-0.4,0.9-0.8,1.2c0.7,1.3,2,1.9,3.7,1.7c1.1-0.1,4,0.3,9,1.2
	c4.9,1,9.4,2.4,13.6,4.2c4.2,1.8,5.8,5.7,4.6,11.7c-0.1,10.1-1.1,15.7-3.2,16.8c-1.3,0.6-2.3,1.6-2.9,3c-0.5,1-1.2,2-2.2,2.7h76.8
	C-93.9,395.6-94.2,394.7-94.5,393.8z M-140.3,370.7c-0.6,0.1-1.1,0.2-1.5,0.6c-0.4,0.4-0.9,0.8-1.2,1.4c-0.3,0.5-0.4,1.1-0.4,1.8
	c0,0.5,0.1,1,0.1,1.5c-0.6,0.3-1,0.7-1.4,1.2c-0.2,0.5-0.6,1-1,1.4c-0.7,0.2-1,0.7-1,1.4c0,0.4,0.1,0.7,0.1,0.9
	c0,0.6,0.1,1.1,0.5,1.5c0.5,0.6,1,0.7,1.5,0.1c0.3-0.2,0.4-0.5,0.4-0.9c0.2,0,0.4-0.1,0.4-0.2c0.1,0.3,0.1,0.6,0.1,0.9
	c0,0.7,0,1.3,0,2c-0.3,0-0.6,0.1-0.9,0.1c-0.6,0.1-1.2,0.4-1.7,1c-0.3,0.3-0.5,0.7-0.7,1.2c-0.2,0.4-0.1,1,0.1,1.5
	c0.4,0.5,0.6,0.9,0.8,1.1c1.2,1.1,1.8,2.4,2,4c-0.7,0-1.4,0-2.1,0c-1.5-0.1-3.1-0.1-4.7-0.2c-1.1-0.1-2.2-0.1-3.3,0
	c-1.8,0.1-3.1-0.1-4-1c0-8.8,1.8-17.1,5.4-24.9c1-0.3,1.6,0.1,2,1.2l1.2,1.7c0.4,0.2,1,0.1,1.7-0.1l3-4.2c0.5-0.6,1.2-0.5,2.2,0.2
	c0.4,1.4,1.3,2.6,2.9,3.7C-140,370-140.2,370.4-140.3,370.7z M-130.8,393c-0.7,0-1.3,0-1.9,0c-0.5,0-1,0-1.5,0c-0.5,0-1,0-1.5,0
	c0.1-0.1,0.1-0.3,0.1-0.6c-0.1-0.6-0.2-1.1-0.5-1.6c0.2,0.1,0.4,0.1,0.7,0.1c0.7-0.1,1.2-0.1,1.9-0.1c0.5,0,1.2,0.1,1.8,0.2
	c0.2,0.2,0.5,0.4,0.7,0.7c0.4,0.4,0.8,0.8,1.1,1.3C-130.3,393-130.6,393-130.8,393z M-123.3,379.4c0,0.1-0.1,0.3-0.1,0.5
	c-0.2,0.1-0.4,0.3-0.9,0.4c-1.6,0.3-2.9,1.1-3.8,2.3c0.3,1.3,0.7,2.6,1.3,4c0.6,1.3,0.7,2.8,0.4,4.3c-0.5-0.1-1-0.4-1.5-0.8
	c-0.1-0.4-0.6-1-1.2-1.5c-1.2-1-2.3-1.8-3.5-2.3c-1,0-1.9,0-2.9,0c0-1.7,0.1-3.4,0.1-4.9c0-0.8,0-1.6,0-2.4c1.5,0.1,3-0.1,4.4-0.6
	c0,0,0.1,0,0.1-0.1c0.3-0.1,0.5-0.3,0.7-0.6c-0.1-0.3-0.2-0.7-0.4-1c-0.1-0.4-0.4-0.8-0.7-1.2c-0.4-0.5-0.6-1-0.8-1.3
	c-0.2-0.4-0.4-0.7-0.6-0.9c-0.4-0.5-0.7-1-1-1.5c0-0.4-0.1-0.7-0.3-1.1c-0.1-0.1-0.1-0.1-0.2-0.2c-0.5-0.2-0.8,0.1-1,0.9
	c-0.1-0.1-0.1-0.2-0.2-0.3c-0.1,0.1-0.1,0.2-0.2,0.4c-0.1,0.4-0.2,0.8-0.3,1.3c0,0.7,0.4,1.1,1,1.2c0,0.2,0,0.4,0,0.7
	c0.1,0.7,0.2,1.2,0.7,1.6c-0.4,0-0.9-0.1-1.2-0.3c-0.4-0.2-0.8-0.3-1.3-0.3c0-0.2,0-0.5,0-0.7c0-0.7,0-1.2,0.1-1.8
	c0.1-0.6-0.1-1-0.4-1.2c-0.4-0.3-0.9-0.6-1.3-0.8c-0.1-0.6-0.4-1-0.9-1.5c1.4-1.2,2.4-2.7,2.9-4.2c0.4-1,1-1,2-0.3
	c0.7,1.5,1.8,2.8,3,3.6c0.8,0.1,1.5-0.1,2.1-0.6c1.1-1.1,1.8-2.6,2.3-4.6c1,1.1,1.9,2.2,3,3.1c0.5,0.4,0.9,0.5,1.4,0.6
	c0.1-0.1,0.1-0.1,0.3-0.1c0.1,0,0.1,0,0.2,0c-0.8,1.5-0.8,2.9,0.1,4.2c-1.3,0.7-2.3,1.7-3.1,3.1c-0.1,0.3-0.4,0.5-0.6,0.7
	c-0.9-0.7-1.8-1.5-2.9-2.1c0.2-1-0.1-1.5-1-1.5c-0.2,0.2-0.3,0.6-0.2,1.1c-1.6-0.2-2.3,0.2-2,1.3c0.9,0.1,1.5,0.2,2,0.4
	c0.7,1.2,1.7,2.1,2.7,2.9c0.1,0.1,0.2,0.2,0.4,0.4c0.4,0.3,1,0.5,1.5,0.7c0.6,0.1,1.2,0.2,1.9,0.1
	C-123.2,378.4-123.2,378.9-123.3,379.4z M-122.1,391.1c0-0.3-0.1-0.6-0.1-0.8c-0.1-1.5-0.2-3-0.2-4.5c1.2,0.4,2.5,0.4,3.9,0.1
	c0,0.3,0,0.7-0.1,1c-0.2,1.6,0.1,3.1,0.5,4.2C-119.5,390.9-120.8,390.9-122.1,391.1z M-106.1,387.4c-0.1,0.1-0.1,0.4-0.1,0.6
	c-0.1,0.1-0.2,0.6-0.2,1.2c-0.8-0.1-1.5-0.1-2.1,0c-1.8,0.4-2.6,1.3-2.9,3c-1.1-0.1-2.1-0.6-2.6-1.3c-0.2-0.6-0.3-1.2-0.2-1.9
	c0.1-1,0.1-1.9,0.1-2.8c-0.1-1.8-0.6-3.1-1.6-4.1c0-0.7-0.1-1.5-0.2-2.1c0.6-0.2,1-0.5,1.3-0.9c0.2-0.2,0.4-0.4,0.7-0.7
	c0.1-0.1,0.1-0.2,0.1-0.4c0.1-0.4,0.1-0.6,0.1-1c0-0.1-0.1-0.3-0.1-0.4c0-0.4-0.1-0.6-0.2-0.9c-0.1-0.3-0.2-0.5-0.3-0.8
	c0-0.2-0.1-0.4-0.1-0.7c-0.1-0.3-0.1-0.5-0.3-0.8c-0.1-0.3-0.2-0.6-0.4-1c0-0.3,0-0.6,0.1-1c0.1-0.2,0.1-0.5,0.2-0.8
	c0.1-0.2,0.1-0.4,0.1-0.5c4.6,3.7,7.5,7.1,8.6,10.3C-105.8,383-105.8,385.2-106.1,387.4z M-97.3,390.1c-0.5,0-1,0-1.3,0
	c-0.6,0-1,0.1-1.4,0.4c-1,0.8-1.5,1.7-1.5,2.8c-1.3,0.3-2.2,0-2.5-0.7c-0.1-0.5-0.1-0.9,0.1-1.2c1.9-3.1,3.3-7,4.2-11.4
	c-0.5-3.1-1.5-5.7-3-7.8c2.8,2.3,4.9,4.9,6.4,8.1C-96.1,382.2-96.4,385.6-97.3,390.1z"/>
<path class="st2" d="M-178.6,335.4c-0.2-0.2-0.5-0.4-0.7-0.7c-0.4,0.7-0.8,1.3-1.1,2c0.4,1.7,0.1,2.9-0.8,3.7
	c-0.7-0.1-1.3-0.3-2-0.4c0.1,0.9,0.7,1.4,1.6,1.5c1.5,1,2.3,2.3,2.1,4c-0.1,0.6-0.4,0.9-1,1c0.7,1,1,2.2,0.9,3.8
	c-0.1,0.7-0.3,1.4-0.7,2.1c-0.1,0.4-0.3,0.7-0.3,1.1c0.1,1.2,0.3,2.4,0.5,3.6c0.4,0,0.6,0,0.8,0c0.1-0.1,0.2-0.1,0.4-0.3
	c-0.5-0.6-0.7-1.3-0.5-2.1c0.7,0.2,1.3,0.4,2,0.6c-0.2-0.4-0.3-1-0.4-1.5c0-0.4,0-0.8,0-1.2c1.2,0.7,2.5,1.4,3.7,2
	c-0.3-0.6-0.6-1.2-1-2c-0.7-1.2-0.6-2.2,0.5-3c-0.3,1.1-0.1,2,0.6,2.8c0.3-0.7,0.4-1.5,0.1-2.3c-0.2-1.6-0.6-3.1-1.2-4.5
	c0.5-0.5,1-0.9,1.4-1c-0.1,0.7,0,1.2,0,1.8c0.1,0.7,0.3,1.3,0.6,1.9c0.1,1.8,0.4,3.3,0.8,4.5c0-0.4,0.2-0.9,0.7-1.2
	c0.7,0.1,1,0.2,1.2,0.6c-0.3-0.9-0.6-1.9-1-2.9c0.4,0.3,1,0.5,1.5,0.6c0,1.3,0.4,2.2,1.5,2.8c0.1-1-0.1-1.8-0.7-2.4
	c-0.7-0.8-0.9-1.7-0.7-2.6c0.4,0.1,0.7,0.3,1,0.5c0.1-1.8-0.7-2.3-2.3-1.5c-0.3,0.2-0.6,0.5-0.8,0.9c-0.2,0.1-0.2,0.3-0.1,0.6
	c-0.5,1-0.7,0.5-0.6-1.3c-0.6,0.1-0.9-0.1-0.9-0.6c1-0.5,1.1-1.2,0.2-2c0-1.2,0.3-1.6,1-1.2c0.1,0.2,0.2,0.6,0.6,1
	c0.7-0.5,0.5-1.4-0.6-2.7c-1.6-0.1-3.1-0.4-4.5-0.6c-1.5,1-2.2,0.7-2.3-0.8C-178.8,338.4-178.8,336.8-178.6,335.4z M-174.4,342.3
	c1,0.5,0.8,1.2-0.4,1.8c-0.4-0.4-0.5-0.7-0.5-1.2C-175.2,342.3-175,342.1-174.4,342.3z"/>
<path class="st2" d="M-187.5,344.9c-1.1,0.3-1.5,1.1-1.2,2.4c-1.2,0.8-1,1.2,0.4,1.4c0.7,0.6,0.5,1-0.4,1.1c-0.1,0-0.3-0.1-0.4-0.1
	c-1.2-1-2.6-1.4-4.2-1.1c0.8,1.2,1.8,2.2,2.7,3c0.1,0,0.1,0,0.1,0c1.2-0.2,2.3-0.3,3.4-0.1c-0.7-0.3-0.9-0.8-0.8-1.5
	c0.1,0,0.1,0,0.1,0c0.5,0,1,0.1,1.3,0.4c0,0,0-0.1,0-0.1c-0.1-0.7,0.1-1.2,0.6-1.8c0.1,0,0.1,0.1,0.1,0.1c0.8,0.5,1.5,1.2,1.9,2
	c0.1,0,0.1,0.1,0.2,0.1c0.6,0.4,1,0.4,1.5-0.1v-0.1c-0.1-1.3-0.3-2.6-0.6-4c0-0.4-0.1-0.7-0.3-1.1c-0.9-1.3-1.9-2.3-3.1-3
	c-0.7,0.9-1.2,1.7-1.3,2.4C-187.4,344.9-187.4,344.9-187.5,344.9z"/>
<path class="st2" d="M-188,339.9c-0.2-0.6-0.4-1.3-0.9-2.2c-0.1-0.3-0.3-0.6-0.4-0.9c-1.2,1-2,2.2-2.4,3.6c0.7-0.3,1.7-0.4,2.8-0.2
	C-188.6,340.1-188.4,340-188,339.9z"/>
<path class="st2" d="M-184.3,342.8c1,0.9,1.7,1.8,2.4,2.9c0,0.1,0.1,0.1,0.1,0.1c0.7-2,0.1-3-1.9-3
	C-184,342.8-184.1,342.8-184.3,342.8z"/>
<path class="st2" d="M-167.2,341.4c-0.6,0-1.1,0-1.7,0c-0.7,0-1.4,0-2-0.1c0.4,1.3,1.1,1.5,2.1,0.6c-0.2-0.1-0.2-0.3-0.1-0.5
	c0.4,1.5,1.1,1.8,1.9,0.9C-167,342.1-167.1,341.8-167.2,341.4z"/>
<path class="st2" d="M-170.6,344.5c-0.7,0.4-0.9,0.9-0.4,1.4C-170,346.4-169.9,345.9-170.6,344.5z"/>
<path class="st2" d="M-166.3,343.4c-0.6-0.1-1,0.1-1.4,0.5c0.2,0.4,0.4,0.5,0.4,0.6C-166.9,344.2-166.6,343.8-166.3,343.4z"/>
<path class="st2" d="M-166.8,342c-0.2,0.3-0.1,0.5,0.1,0.7C-165.4,342.3-165.4,342-166.8,342z"/>
<path class="st2" d="M-169.8,343.8c-0.1,0.3,0.1,0.4,0.5,0.4c0.2,0,0.4-0.1,0.7-0.1C-169,342.8-169.4,342.7-169.8,343.8z"/>
<path class="st2" d="M-168.6,345.3c-0.1,0.1,0.1,0.3,0.4,0.6c0.3,0.1,0.4-0.1,0.4-0.4c0-0.1,0-0.1,0-0.2
	C-168.1,344.2-168.4,344.2-168.6,345.3z"/>
<path class="st2" d="M-167,345.9c-0.2,0.3-0.4,0.5-0.7,0.7c0.4,0.6,0.5,1.3,0.4,2.1c-0.1,0.2-0.3,0.4-0.4,0.8c0,0.4,0,0.8-0.1,1.2
	c0.7-0.1,1.2-0.4,1.6-1c-0.1-1,0.1-1.8,0.4-2.6C-166.2,346.7-166.7,346.4-167,345.9z"/>
<path class="st2" d="M-162.6,343.6c0.1,0,0.3,0,0.5,0C-162,342.5-162.1,342.5-162.6,343.6z"/>
<path class="st2" d="M-165.6,343.8c0.3-0.3,0.6-0.7,0.9-1.1C-165.6,342.2-165.9,342.5-165.6,343.8z"/>
<path class="st2" d="M-165.4,346.6c0.1-0.2,0.4-0.3,0.7-0.2c-0.2-0.8-0.3-1.4-0.1-1.8C-166.6,344.7-166.8,345.4-165.4,346.6
	C-165.4,346.7-165.4,346.7-165.4,346.6z"/>
<path class="st2" d="M-163.1,345.3c0.2-0.1,0.3-0.2,0.4-0.4c0.1-0.4-0.1-0.7-0.4-0.8C-163.2,344.5-163.2,345-163.1,345.3z"/>
<path class="st2" d="M-151.2,341.9c-0.7,0.2-1.2,0.7-1.7,1.3C-150.8,343.5-150.2,343.1-151.2,341.9z"/>
<path class="st2" d="M-152.7,345.1c0.7,0.2,1.2,0.7,1.8,1.3C-150.6,345-151.2,344.5-152.7,345.1z"/>
<path class="st2" d="M-137.1,344.7c-0.1,0.7-0.3,1.2-0.5,1.8c-0.1-0.5-0.3-1-0.6-1.4c-0.1,0.2-0.3,0.2-0.6,0.1c-0.1-0.7-0.4-1-1-0.7
	c0.3,1.2,0.2,2.3-0.2,3.1c-0.1-2-0.9-2.9-2.1-2.9c0.3,1.7,0,2.5-0.9,2.5c0.5,1,1.1,2.1,1.6,3.3c0.7,1.3,1.1,2.7,1.2,4.1
	c0.2,1.7,1.2,2.4,2.8,2.3c-0.2-0.7-0.3-1.2-0.3-1.9c0.4,0.8,0.8,1.8,1,2.8c1.5,0.7,3.1,1,4.8,0.8c0.1,1.2,0.4,2.3,1,3.3
	c0.5,1.2,1,2.4,1.6,3.6c0.4-0.8,0.5-1.8,0.4-2.9c0.5,0.3,0.9,0.7,1.1,1.2c0.4-0.8,0.9-1.7,1.5-2.5c0.3-1.4,1-2.2,2.3-2.5
	c0.2-0.7,0.3-1.4,0.2-2.1c0.9,1.1,1.4,2.4,1.5,4c0.1,1.5,0.1,3.1,0.1,4.6c1,1.5,1.8,1.2,2.3-0.7c0.6-1.5,0.6-3.1,0-4.6
	c-0.6-1.5-1.7-2.7-3.2-3.7c0.1-0.4-0.2-0.7-1-0.7c-0.9,0.1-1.6,0.5-2,1.2c-0.4-0.5-1-0.9-1.3-1.1c-0.4,0.1-0.8,0-1.2-0.2
	c-1.3-0.7-1-1.2,0.8-1.5c0.4,0,0.4,0.2,0.4,0.7c0.2-0.5,0.5-0.9,0.9-1.2c1.2-1,1.1-1.6-0.5-1.8c-0.1,0.8-0.5,1-1.2,0.5
	c0.1-0.3,0.3-0.5,0.6-0.7c0-0.3,0-0.7-0.1-1c-0.2-1.5-0.8-3-1.7-4.4c-0.4-1.7-1.3-2.7-2.7-3.1c-0.2,1.1-0.1,2.4,0.1,3.9
	c-0.8-1.3-1.8-2.3-2.8-3.1c0,0.8,0,1.5-0.1,2.4C-135.8,346.5-136.5,345.9-137.1,344.7z M-139.2,349.8c-0.1-0.2-0.1-0.5-0.1-1
	c0.9,1.3,1.2,2.9,1.1,4.5c0.2,0.1,0.3,0.4,0.1,0.7C-138.3,352.7-138.6,351.3-139.2,349.8z"/>
<path class="st2" d="M-143.1,348.6c-0.4,0.9-0.5,1.8-0.4,2.9c0.2,1.7,0.6,3.1,1.2,4.2c0.4-1,0.4-2.2,0.1-3.5
	C-142.4,351-142.7,349.8-143.1,348.6z"/>
<path class="st2" d="M-144.9,355.7c0.5,0.1,0.7-0.1,0.7-0.5C-144.6,353.2-144.9,353.4-144.9,355.7z"/>
<path class="st2" d="M-154.7,349.1c-0.7,1.3-1,2.8-1,4.4c0.1,1.2-0.1,2.2-0.9,2.6c-0.2-1.3-0.2-2.6,0-3.8c0.3-1.6,0.2-2.9-0.2-4
	c-0.9,1.3-1.2,2.8-1.1,4.4c0.1,1.7-0.1,3.1-0.7,4.3c0.1,1.3,0.1,2.7,0.1,4.2c0,1,0.1,2.1,0.4,3c0,1.5,0,3.1,0,4.6
	c-0.1,1.1-0.3,2.1-0.4,2.9c-0.4,0.3-0.7,0.9-0.6,1.8c-0.4,0.1-0.7,0.2-1,0.2c-0.1,0.9-0.1,1.8-0.1,2.6c-0.4,1.6-0.4,3.2-0.4,4.8
	c0.1,0.1,0.3,0.1,0.4,0.1c0.1,0,0.1,0,0.2,0c0.1-1.6,0.7-2.9,1.6-4c0.3-0.3,0.7-0.4,1.1-0.4c-0.1-1.2,0-2.1,0.6-2.8
	c-0.2-1.5,0-2.9,0.7-4c0.4-0.7,0.9-1.6,1.2-2.7c0.5-1.5,0.6-3,0.2-4.6c0.4-0.4,0.8-1,1.3-1.5c-0.1-0.9-0.3-1.5-0.7-1.8
	c0.4-0.1,0.7-0.4,0.7-0.9c-0.1-0.4-0.1-0.9,0-1.3c0.7,0.1,1.3,0,1.7-0.4c0-0.7,0.1-1.6,0.5-2.6c-0.6,1-1.3,1.6-2.2,1.7
	c-0.1,0-0.2,0-0.2-0.1c-0.1-0.1-0.1-0.4-0.2-0.7c-0.1-0.3-0.1-0.7-0.2-1c0.4,0.1,0.8,0,1.2-0.2c1.3-0.8,1.5-1.8,0.5-3.2
	c0-0.6,0-1,0.1-1.3c0.6-1.8,0.4-3.1-0.7-3.7c-0.7,0.4-0.8,1-0.4,2c-1.1,0.6-1.2,1.9-0.1,4c-0.1,1.6-0.6,1.8-1.2,0.4
	C-154.4,351-154.5,350-154.7,349.1z M-155.8,365.4c-0.1,0.9-0.1,1.7,0.1,2.4c-0.7,0.8-1.2,1.3-1.7,1.7c-0.1-1.1,0.1-2.3,0.4-3.5
	c0-0.4,0.1-0.7,0.3-1C-156,363.7-155.7,363.9-155.8,365.4z M-157.2,370.3c0.2-0.1,0.3,0.2,0.2,0.9c0.1,1.2,0,2-0.6,2.6
	C-157.7,372.5-157.6,371.3-157.2,370.3z"/>
<path class="st2" d="M-146.2,365.4c0.1-1-0.1-1.7-1-2.1c-1.1,0.8-1.2,2.1-0.4,3.8C-147,366.6-146.5,366.1-146.2,365.4z"/>
<path class="st2" d="M-137.2,362.2c-1-0.1-1.7,0.1-2.3,0.8c-0.1,1.6,0.1,3.1,0.4,4.6c0.5-0.1,0.8-0.4,0.9-1.2
	C-137.2,365.4-136.9,363.9-137.2,362.2z"/>
<path class="st2" d="M-139.4,370.1c-0.1,0.1-0.1,0.3-0.1,0.4c-0.1,0.6-0.3,1.2-0.4,1.9c0.3,0.4,0.4,1,0.4,1.7c-0.4,0.5-0.4,1,0,1.5
	c-0.1,0.2,0,0.3,0.4,0.2c0.1-0.4,0.5-0.7,1-1c-0.1,0.4,0.1,0.7,0.4,0.7c0.4,0.1,0.5-0.2,0.3-0.8c-0.3-0.5-0.4-1.1-0.7-1.6
	c0.1-0.4,0.3-0.8,0.6-1.2c-0.1-0.2-0.2-0.4-0.5-0.5c-0.3-0.2-0.6-0.4-0.9-0.4C-139.1,370.6-139.1,370.3-139.4,370.1z"/>
<path class="st2" d="M-166.7,353c0.8-0.6,0.8-1-0.1-1.2C-167,352.1-167,352.6-166.7,353z"/>
<path class="st2" d="M-159.9,388.9c0.5-1.2,0.7-2.9,0.4-4.9c0-1-0.4-1.5-1.2-1.6c0.4,1.9,0.2,3.5-0.3,4.9c-0.5,1.5-1.1,2.9-1.8,4.2
	c0.9,0,1.8,0,2.6,0c0-0.4,0-0.7,0-1C-160.2,389.9-160.1,389.4-159.9,388.9z"/>
<path class="st2" d="M-164.9,391.7c-0.1,0.7-0.2,1.2-0.1,1.5c0.2,0.3,0.4,0.3,0.4,0.1c0.2-0.1,0.4-0.2,0.6-0.4
	C-163.7,391.5-164,391-164.9,391.7z"/>
<path class="st2" d="M-103.8,395.5c-1-0.4-2.1-0.5-3.6-0.4c-1.2,0.1-2.5,0.1-3.7,0.1c1-0.5,2-1.2,3-1.8c-1.3-0.3-2.6-0.4-3.9-0.3
	c-0.4-0.7-1-1-1.5-1c-0.7-0.6-1.5-0.8-2.4-0.9c-0.4-0.1-0.8-0.1-1.2,0.2c-0.3,0.3-0.7,0.4-1.5,0.4c-0.3,0.5-0.5,0.8-0.9,1
	c-0.5,0.4-1,0.7-1.5,1c-0.4-0.4-0.5-0.9-0.5-1.5c0.1-0.4-0.1-0.5-0.5-0.4c-0.1,0.7-0.4,0.8-0.7,0.3c-0.2-0.4-0.7-0.4-1.5,0.1
	c0.3,1,0.2,1.9-0.1,2.7c-0.1-0.6-0.3-1.1-0.4-1.5c0.1-0.5-0.2-0.7-0.7-0.5c-0.3,0.5-0.4,1.1-0.4,1.7c-1,0.3-1.4,0-1.3-0.7
	c-0.5,0.1-1,0-1.4-0.1c-0.8,0.7-1.8,0.9-3,0.7c-0.1-0.4-0.4-0.7-0.8-0.7c-0.8-0.1-1.5,0-2,0.2c0.4-0.1,0.6,0.2,0.3,0.8
	c-0.2-0.1-0.5-0.1-0.8-0.1c-0.6-0.1-1-0.4-1.4-1.1c-0.7-1.2-1.2-2.3-1.6-3.6c-0.4,0-0.7,0.2-0.7,0.6c-1.2-0.3-1.8,0-2.1,0.8
	c0.7,0.3,1.1,0.7,1.3,1.2c-0.1,0-0.2,0-0.4,0c-0.2-0.1-0.4,0.1-0.6,0.4c-0.1,0.3,0,0.5,0.1,0.5c-1.6,0-2.9,0.5-4,1.5
	c-1.5,0-3.1,0-4.6,0c-1.5-0.1-3,0.1-4.5,0.4c-0.5-0.4-1.1-0.6-1.8-0.7c-1.5-0.3-2.9-0.9-4.2-1.7c-0.7,0-1-0.5-0.7-1.5
	c-0.4,1.2-1.3,1.9-2.6,2.3c-1-0.1-2.3,0.1-3.6,0.4c-0.1,0.9,0.2,1.7,0.8,2.2h61.9C-103.4,396.2-103.6,395.9-103.8,395.5z
	 M-116.6,394.1c-0.5-0.1-0.7-0.5-0.4-1.2c0.3-0.1,0.6-0.2,0.8-0.4C-115.7,393.1-115.9,393.7-116.6,394.1z"/>
<path class="st2" d="M-95.3,394.5c-0.6,0.3-1.4,0.4-2.3,0.4c-1.3,0.4-2.6,0.4-3.7-0.2c0.1,0.9,0.5,1.4,1.1,1.8h5.6
	C-94.9,395.8-95.1,395.1-95.3,394.5z"/>
<path class="st2" d="M-112.6,346.1c0,0.4,0,0.8,0,1.2c0.4,0.6,0.7,1.2,0.8,1.8c-0.1,0-0.2-0.1-0.3-0.1c-0.2-0.2-0.5-0.2-0.8,0
	c-0.1,0.3,0,0.7,0.1,1c0.1,1.2-0.3,1.5-1.1,1c0.4-1.4,0.1-2.4-0.7-2.9c0,0.7,0,1.4,0,2.1c-0.2-0.6-0.6-0.9-1.2-0.7
	c0,0.3,0.1,0.6,0.3,1c-0.1,1,0.3,1.7,1.2,2.2c0.4,0.2,0.6,0.5,0.9,0.8c1.1,1.4,1.3,2.8,0.7,4.2c-0.4,1.3,0,2.6,1.1,3.7
	c1.3-0.1,2.2,0.7,2.6,2.1c0.3,1.5,1.3,2.3,3.1,2.5c1,1,1.9,2.3,2.9,3.5c0.7,0.4,1.2,0.8,1.5,1.4c0.3,0.2,0.6,0.5,0.8,0.7
	c1,1.2,1.8,2.3,2.5,3.4c0.3,0.7,0.7,1.5,1,2.3c0.6,1.4,1.4,2.8,2.3,4.2c0.1,1.6-0.1,3.1-0.3,4.8c-0.2,1.5-0.4,3.1-0.6,4.6
	c-0.4,0-0.7,0-0.9,0.2c-1.2,0.8-1.6,2.1-1.2,3.9c1.3-0.1,2.3-0.7,2.9-1.7c0.9-4.8,2-8.5,3.3-11.2c0-0.1,0.1-0.1,0.1-0.2
	c0.6-1.1,0.3-2.9-1-5.4c0.2,2-0.2,2.3-1.2,1.1c-1-1.2-1.9-2.4-2.9-3.7c-0.9-1.2-1.5-2.5-2.1-3.8c-0.7-1.2-1.2-2.6-1.3-4
	c-0.1-1.5-0.3-3-0.4-4.5c-0.2-1.5-0.4-2.9-0.6-4.4c-0.7-2.3-1.1-4.2-1-5.4c-1.5-0.9-2.6-2.1-3.4-3.4c-0.1-0.3-0.3-0.4-0.7-0.6
	c-1.5-0.4-2.1-1.6-1.8-3.4c-0.1-0.1-0.2-0.2-0.4-0.3c-0.6-0.4-1.2-0.7-1.8-1c-0.7-0.3-1.3-0.6-2-0.8c-0.1,0.1-0.4,0.2-0.5,0.3
	c-1.4,0-2.6,0-3.8,0c-0.1,0-0.4,0-1,0.1c-0.4,1.3-0.1,2,1,2.1c-0.1,0.5-0.2,1.1-0.1,1.7c1,0.1,1.7-0.3,2.1-1.1
	C-113.8,345.6-113.3,345.9-112.6,346.1z M-95.6,376.8c0.9,0.3,1.2,0.9,1,1.7C-95.4,378.1-95.7,377.6-95.6,376.8z"/>
<path class="st2" d="M-136.7,375.8c0,0.1,0,0.2,0,0.3c0.1,0.1,0.1,0.2,0.1,0.4c-0.1,0.8,0.2,1.2,1,1c0.6-0.1,0.8-0.4,0.7-1.1
	C-135.4,376.1-136,375.9-136.7,375.8z"/>
<path class="st2" d="M-145.9,380.7c0.9,0.1,1.2-0.1,1-1c-0.1-0.4-0.4-0.6-0.7-0.5c-0.7,0.1-0.8,0.6-0.7,1.4
	C-146.1,380.6-146,380.6-145.9,380.7z"/>
<path class="st2" d="M-143.7,379.5c0.1-0.9-0.2-1.3-0.9-1.2c-0.1,0.7,0,1.1,0.4,1.5C-143.8,380-143.7,379.9-143.7,379.5z"/>
<path class="st2" d="M-136.5,379.4c0.1-0.7-0.1-1.2-0.5-1.7c-0.6,0.2-0.9,0.7-0.9,1.3c-0.1,0.7-0.1,1.3-0.4,1.8c0-0.3,0-0.7,0-1.1
	c0.1-0.7-0.1-1.2-0.7-1.4c-0.5,0.1-0.7,0.4-0.7,0.9c0,0.6-0.1,1.2-0.1,1.8c-0.1,0.7,0,1.2,0.4,1.8c0.1,0.7,0.2,1.4,0.3,2
	c0.1,0.6,0.4,1.1,0.8,1.5c0.2,0.1,0.4,0,0.7,0c0.1-0.1,0.3-0.1,0.4-0.3c0.2-0.6,0.3-1.2,0.3-1.8c0-0.6,0-1.2,0-1.8
	c0-0.4,0-0.8,0.1-1.2C-136.7,380.6-136.6,380-136.5,379.4z"/>
<path class="st2" d="M-141,378.1c0.7,0.5,1.2,0.4,1.5-0.3C-140.1,377.6-140.6,377.7-141,378.1z"/>
<path class="st2" d="M-140.2,388.9c0.1-0.5,0-0.9-0.4-1c-0.1-0.1-0.2-0.1-0.3,0.1c0,0.2-0.1,0.4-0.2,0.5c-0.4,0.6-0.4,1.2,0,1.6
	C-140.7,389.9-140.4,389.6-140.2,388.9z"/>
<path class="st2" d="M-143,385.3c-0.3-0.8-0.6-0.7-0.7,0.2c-0.1,0.6-0.1,1.2-0.1,1.8c0.4,0.3,1,0.3,1.7,0.1c0.2-0.1,0.3-0.2,0.4-0.5
	c0.1-0.7,0.1-1-0.3-1c-0.3-0.1-0.5-0.2-0.7-0.4C-142.8,385.5-142.9,385.5-143,385.3z"/>
<path class="st2" d="M-144.7,386c-0.1,0-0.3,0-0.4,0.1c-0.5,0.4-0.6,0.8-0.1,1.3c0.2-0.1,0.4-0.3,0.7-0.5
	C-144.2,386.4-144.2,386.1-144.7,386z"/>
<path class="st2" d="M-144.3,388.8c0.1-0.1,0-0.3-0.1-0.3c0.2,0.4,0.5,1,1,1.4c0.2,0.2,0.4,0.5,0.5,0.8c0.4,0.1,0.4-0.2,0.1-0.7
	C-143.2,389.4-143.6,389-144.3,388.8z"/>
<path class="st2" d="M-181.9,352.8c0.8-0.3,0.9-0.7,0.3-1.2c-0.3-0.1-0.4,0-0.4,0.2C-181.9,352.2-181.9,352.6-181.9,352.8z"/>
<path class="st2" d="M-184.3,354.3c0.2,0.1,0.4,0.1,0.6,0.1c0.7-0.1,0.9-0.5,0.5-1.2c-1.5-0.4-2.5,0-2.9,1.4
	C-185.6,354-185,353.9-184.3,354.3z"/>
<path class="st2" d="M-190.7,355.3c0.1,0.2,0.4,0.4,0.6,0.3c0.1-0.1,0.2-0.3,0.2-0.4s0-0.2,0-0.3c0.1-0.3,0-0.4-0.4-0.4
	c-0.1,0-0.2,0.1-0.4,0.1C-190.7,354.8-190.8,355.1-190.7,355.3z"/>
<path class="st2" d="M-163.5,346.2c-0.6,0.3-1,0.7-1,1.4C-163.7,348-163.3,347.5-163.5,346.2z"/>
<path class="st2" d="M-107.5,343.4L-107.5,343.4c2.6,1.8,4.8,4.5,6.3,8c0,0.1,0,0.3,0,0.4c0,2.2,1.1,6,3.1,11.4
	c-0.2-3.8-0.7-7.6-1.5-11.4c-0.1-0.4-0.1-0.7-0.2-1.1c-0.1-0.1-0.1-0.3-0.1-0.4C-101.4,346.7-103.8,344.4-107.5,343.4z"/>
<path class="st2" d="M-96.3,372.4c0.7,1.4,1.6,2.6,2.6,3.7c0.4-0.1,0.8-0.1,1.2-0.2c-0.7-1.1-1.4-2.3-2.3-3.7
	c-0.9-1.9-1.6-3.7-2.3-5.3c-0.8,0.2-1.1,0.7-0.8,1.5C-97.5,369.9-97,371.2-96.3,372.4z"/>
<path class="st2" d="M-120.8,353.4c-0.2-0.1-0.6-0.2-1-0.2c0.2,1.7,0.7,2.1,1.3,1c0.1-0.1,0.1-0.3,0.1-0.4c-0.1-0.1-0.1-0.1-0.2-0.2
	C-120.7,353.5-120.8,353.4-120.8,353.4z"/>
<path class="st2" d="M-122.8,354c0.4-1.2,0.1-1.5-0.8-0.6C-123.4,353.7-123.2,353.9-122.8,354z"/>
<path class="st2" d="M-118.9,365.2c0-0.1,0-0.1,0-0.2c-0.9,0.9-1.6,1.8-2.3,2.5l0.2,0.1c0.1,0,0.1,0,0.1,0c0.6-0.3,1.1-0.6,1.6-0.9
	c0.1,0,0.1-0.1,0.1-0.1C-118.9,366.1-118.8,365.7-118.9,365.2z"/>
<path class="st2" d="M-120.7,369.1c0.7-0.1,1.2,0,1.5,0.4c-0.4-0.1-0.7,0.1-1,0.3c-0.8,0.9-0.5,1.5,0.7,1.8c1.4-0.1,2.1,0.6,2,2.1
	c0.2-0.1,0.5-0.3,0.8-0.3c0.2,0.1,0.5,0.3,0.7,0.4c0.1,0.1,0.1,0.1,0.1,0.2c0.1,0.3,0.1,0.6,0.2,0.9c0.1,0.3,0.1,0.5,0,0.8
	c0.4-0.1,0.6,0,0.8,0.2c0.1,0.1,0.2,0.1,0.4,0.1c-0.3-1.2-0.7-2.3-1.2-3.4c-0.1,0.5-0.4,0.7-0.8,0.6c-0.7-1-0.4-1.6,0.9-1.8
	c0.1-0.6,0.1-1.1,0.4-1.6c-0.1-1.6-0.9-2.7-2.2-3.1C-119.2,366.9-120.3,367.7-120.7,369.1z M-118.1,367.8c0.1,0,0.1,0,0.2,0.1
	c0.1,0.1,0.1,0.1,0.2,0.1c0.4,0.1,0.5,0.4,0.4,0.7c-0.1,0.2-0.2,0.4-0.4,0.4c-0.3-0.1-0.4-0.2-0.4-0.5c-0.1-0.3-0.2-0.5-0.3-0.7
	C-118.4,367.8-118.3,367.8-118.1,367.8z"/>
<path class="st2" d="M-117.5,373.7c-0.5,0.1-0.6,0.4-0.2,1c0.4,0.6,0.8,1.2,1.2,1.9c0.7-0.7,0.7-1.6,0.5-2.6
	C-116.4,373.7-117,373.6-117.5,373.7z"/>
<path class="st2" d="M-115.6,376c-0.3,0.3-0.6,0.4-1,0.6c0.4,0.7,0.7,1.3,0.9,2.1c0.2,0.1,0.4,0.1,0.8,0c0.2-0.1,0.4-0.2,0.5-0.5
	c0-0.1,0-0.1,0-0.1c0.2-0.6,0.2-1,0-1.3C-114.5,376.2-115,376-115.6,376z"/>
<path class="st2" d="M-120.7,379.7c-0.3,1.2-0.1,2,0.7,2.6c0.8,0.3,1.9,0.4,3.2,0.2c0.5-0.8,0.4-1.7-0.2-2.5
	C-118.3,379.8-119.5,379.8-120.7,379.7z"/>
<path class="st2" d="M-124.6,382.8c-0.4-0.5-0.7-0.4-1,0.4c-0.4,1.3-0.3,2.3,0.5,3.1c1.5,0.2,1.9-0.7,0.9-2.7
	C-124.4,383.3-124.5,383-124.6,382.8c0.7,0.6,1,1.2,1,2.1C-122.6,383.3-122.9,382.7-124.6,382.8z"/>
<path class="st2" d="M-123.8,376.9c-0.4,0.2-0.8,0.5-1.2,0.9c0.6,0.1,1.2,0.1,1.8,0.1C-123.3,377.4-123.5,377.1-123.8,376.9z"/>
<path class="st2" d="M-129,373.7c1.5,0.8,2.1,1.8,2,3.2c0.7-0.5,1.2-1.2,1.4-1.9c-0.8-0.7-1.8-1.4-2.9-2.1
	C-128.7,373.2-128.8,373.5-129,373.7z"/>
<path class="st2" d="M-132.4,374.2c-0.2-0.4-0.4-0.7-0.5-0.9c-0.4-0.4-0.7-1-1-1.4c-0.3,0.1-0.6,0.2-1,0.2c0,0,0,0,0,0.1
	c0,0.4,0.1,0.8,0.1,1.2c0.4-0.1,0.8-0.2,1.1,0c0.2,0.5,0.4,1,0.6,1.7c0.1,0.5,0.3,1.1,0.6,1.6s0.7,1,1.1,1.4
	c0.1,0.1,0.1,0.1,0.1,0.1s0.1,0,0.1-0.1c0.3-0.1,0.4-0.3,0.7-0.4c-0.1-0.3-0.2-0.6-0.3-0.9c-0.2-0.4-0.4-0.8-0.8-1.2
	C-131.9,375-132.2,374.6-132.4,374.2z"/>
<path class="st2" d="M-134.9,371.6c0.4,0.1,0.7,0,0.9-0.1c-0.1-0.7-0.3-1-0.6-0.8C-134.8,370.9-135,371.2-134.9,371.6z"/>
<path class="st2" d="M-124.9,387.5c0,0.3,0.1,0.4,0.4,0.4c0.5,0.1,0.9,0,1.2-0.1C-123.6,387.4-124.2,387.2-124.9,387.5z"/>
<path class="st2" d="M-123.2,389.5c-1,0.3-1.2,0.8-0.7,1.6c0.2,0.4,0.5,0.4,0.9,0.4C-122.6,390.7-122.7,390.1-123.2,389.5z"/>
<path class="st2" d="M-124.8,390.3c-0.7,0.1-1,0.4-0.8,0.7c0.2-0.1,0.5,0,0.7,0.2C-124.6,390.9-124.6,390.6-124.8,390.3z"/>
<path class="st2" d="M-115.6,383.9c-1-0.9-1.4-0.5-1.2,1C-116.3,384.9-115.9,384.5-115.6,383.9z"/>
<path class="st2" d="M-107.3,390.9c-0.7-0.2-1-0.2-0.9,0C-107.7,392.2-107.4,392.2-107.3,390.9z"/>
<path class="st2" d="M-116.1,386.3c-0.7,0.9-1,1.9-0.7,3c0-0.4,0.2-0.6,0.7-0.4c0.3,0.4,0.5,0.9,0.7,1.5
	C-115.5,388.9-115.6,387.5-116.1,386.3z"/>
<path class="st2" d="M-98.5,391.5c-1.6-0.2-1.9,0.5-1,2.2C-98.6,393.7-98.4,392.9-98.5,391.5z"/>
</svg>
