<?xml version="1.0" encoding="utf-8"?>
<!-- Generator: Adobe Illustrator 19.1.0, SVG Export Plug-In . SVG Version: 6.00 Build 0)  -->
<svg version="1.1" id="Layer_1" xmlns="http://www.w3.org/2000/svg" xmlns:xlink="http://www.w3.org/1999/xlink" x="0px" y="0px"
	 viewBox="-446 580.7 164.6 212.7" enable-background="new -446 580.7 164.6 212.7" xml:space="preserve">
<path d="M-283.8,622.5c-4.6-1.2-8.7-2.6-12.4-3.9c-26.5-8.8-48.9-21.4-67.4-37.9c-20.5,18.3-45.9,31.9-76.3,40.8l-3.5,1
	c-3.8,22.6-3.4,44.1,1.2,64.3l2.3,9c6.7,22.8,18.8,44,36.5,63.3l7.2,7.6c9.3,9.2,20.1,18,32.6,26.7c12.3-8.6,23.2-17.4,32.6-26.7
	l7.2-7.6c11.6-12.6,20.8-26,27.6-40.1c5.1-10.4,8.8-21.1,11.1-32.1C-280.6,666.9-280.1,645.4-283.8,622.5z"/>
<g>
	<path fill="#D35D2C" d="M-438.7,625.8l-0.7,0.3c-3.2,21.6-2.6,41.8,1.8,60.8h147.9c4.4-19,5.1-39.2,1.8-60.8l-9.8-3.1
		c-25.7-8.6-47.8-20.7-66-36.2C-384.2,604.2-409.2,617.2-438.7,625.8z"/>
</g>
<g>
	<g>
		<path fill="#793022" d="M-437.6,686.8l1.9,7.8c7,23.7,19.8,45.1,38.4,64.5l7.6,7.6c7.9,7.3,16.6,14.4,26.1,21.2
			c9.2-6.4,17.9-13.5,26.1-21.2l7.7-7.6c12.7-13.3,22.5-27.3,29.6-42c4.8-9.9,8.3-20,10.6-30.2L-437.6,686.8L-437.6,686.8z"/>
	</g>
</g>
<path fill="#D35D2C" d="M-335.4,726.2c1-0.7,2.1-1.5,2.9-2.4c2.9-2.9,4.4-6.4,4.4-10.4v-3.9c0-4-1.5-7.5-4.4-10.3
	c-2.9-2.9-6.4-4.4-10.4-4.4h-20.9v17.1h-5.1v-17.1h-14c-5.5,0-10.3,2.1-14.1,6c-4,3.9-5.9,8.6-5.9,14.1v20.8h5.7v-9.4h16.8
	c0.3,0.4,0.6,0.8,0.9,1.2c1.1,1,2.2,1.7,3.4,2.1l1.5,0.7v5.4h5.7V733l5.1,2.4v0.3h0.6l10.6,5.1c0.1,0.2,0.2,0.3,0.3,0.4
	c0.7,0.7,1.2,1.7,1.2,2.8v0.1c0,1.2-0.4,2.1-1.2,2.9c-0.8,0.8-1.8,1.2-2.9,1.2h-26.6v4.8h26.7c2.5,0,4.6-1,6.4-2.7
	c1.7-1.8,2.6-3.9,2.6-6.4v-0.1c0-2.5-0.9-4.6-2.6-6.4c-1-1-2.1-1.8-3.4-2.2l-6.1-2.9v-6h14.7l9.4,9.4h8.1L-335.4,726.2z M-377,720.8
	L-377,720.8c0-1.2,0.4-2.2,1.2-3c0.4-0.3,0.8-0.6,1.2-0.8v5.5h-2C-376.9,721.9-377,721.3-377,720.8z M-397.2,722.4v-7.5
	c0-4,1.4-7.3,4.2-10.2c2.9-2.8,6.2-4.2,10.2-4.2h8.3v11.4c-1.9,0.3-3.5,1.1-4.9,2.6c-1.8,1.7-2.6,3.8-2.6,6.3v0.1
	c0,0.5,0,0.9,0.1,1.4h-15.3V722.4z M-368.9,727.1v-10.5h5.1v13L-368.9,727.1z M-339.7,721.9c-1.1,0.4-2.1,0.5-3.2,0.5h-15.2v-5.9
	h8.6v-4.7h-8.6v-11.3h15.2c2.5,0,4.7,0.9,6.5,2.6c1.7,1.7,2.6,3.8,2.6,6.3v3.9c0,2.5-0.9,4.6-2.6,6.4
	C-337.6,720.9-338.6,721.6-339.7,721.9z"/>
<path d="M-317.5,684.2c0.1-0.1,0.2-0.3,0.4-0.4c0.8-4.9,1.9-8.6,3.4-11.4c1.2-1.6,0-4.8-3.5-9.7c-1.2-2.8-2.3-5.3-3.2-7.5
	c-0.2-4.9-0.9-9.8-2-14.7c-1.7-4.5-5-7-10-7.8c-0.7-0.3-1.3-0.6-2-0.8c-2.7-1-5.9-1.2-9.4-0.9c-9.9,0.5-20,0.6-30.4,0.1
	c-0.8-0.3-1.6-0.4-2.4-0.4c-1.2-0.1-2.3-0.1-3.6,0c-3.7,0.5-7.1,0.7-10.2,0.8c-3.4,0-6.5-0.2-9.2-0.8c0.1-2.5-0.7-4.4-2.6-5.9
	c-0.1-0.1-0.2-0.1-0.4-0.2c-0.1,0.1-0.2,0.2-0.3,0.4c-1.1,1.5-1.7,3.1-1.8,4.9c-2.2-0.2-4.2-0.1-6.1,0.3c-0.2-1.9-0.7-3.4-1.8-4.4
	c-0.7,0.7-1.4,1.5-2,2.4c-0.9,1.3-1.5,2.8-1.7,4.3c0,1.2-0.1,2.6-0.1,3.9c-0.7,0.5-1.1,1.1-1.5,1.9c0,0.4,0,0.9,0.1,1.3
	c0,1.4,0.4,2.7,1.2,3.9c0.4,0.1,0.7,0.3,1,0.8c-0.1,0.5-0.4,0.9-0.8,1.2c0.7,1.3,2,1.9,3.7,1.7c1.1-0.1,4,0.3,9,1.2
	c4.9,1,9.4,2.4,13.6,4.2c4.2,1.8,5.8,5.7,4.6,11.7c-0.1,10.1-1.1,15.7-3.2,16.8c-1.3,0.6-2.3,1.6-2.9,3c-0.5,1-1.2,2-2.2,2.7h76.8
	C-316.9,686-317.2,685.1-317.5,684.2z M-363.3,661.1c-0.6,0.1-1.1,0.2-1.5,0.6s-0.9,0.8-1.2,1.4c-0.3,0.5-0.4,1.1-0.4,1.8
	c0,0.5,0.1,1,0.1,1.5c-0.6,0.3-1,0.7-1.4,1.2c-0.2,0.5-0.6,1-1,1.4c-0.7,0.2-1,0.7-1,1.4c0,0.4,0.1,0.7,0.1,0.9
	c0,0.6,0.1,1.1,0.5,1.5c0.5,0.6,1,0.7,1.5,0.1c0.3-0.2,0.4-0.5,0.4-0.9c0.2,0,0.4-0.1,0.4-0.2c0.1,0.3,0.1,0.6,0.1,0.9
	c0,0.7,0,1.3,0,2c-0.3,0-0.6,0.1-0.9,0.1c-0.6,0.1-1.2,0.4-1.7,1c-0.3,0.3-0.5,0.7-0.7,1.2c-0.2,0.4-0.1,1,0.1,1.5
	c0.4,0.5,0.6,0.9,0.8,1.1c1.2,1.1,1.8,2.4,2,4c-0.7,0-1.4,0-2.1,0c-1.5-0.1-3.1-0.1-4.7-0.2c-1.1-0.1-2.2-0.1-3.3,0
	c-1.8,0.1-3.1-0.1-4-1c0-8.8,1.8-17.1,5.4-24.9c1-0.3,1.6,0.1,2,1.2l1.2,1.7c0.4,0.2,1,0.1,1.7-0.1l3-4.2c0.5-0.6,1.2-0.5,2.2,0.2
	c0.4,1.4,1.3,2.6,2.9,3.7C-363,660.4-363.2,660.8-363.3,661.1z M-353.8,683.4c-0.7,0-1.3,0-1.9,0c-0.5,0-1,0-1.5,0s-1,0-1.5,0
	c0.1-0.1,0.1-0.3,0.1-0.6c-0.1-0.6-0.2-1.1-0.5-1.6c0.2,0.1,0.4,0.1,0.7,0.1c0.7-0.1,1.2-0.1,1.9-0.1c0.5,0,1.2,0.1,1.8,0.2
	c0.2,0.2,0.5,0.4,0.7,0.7c0.4,0.4,0.8,0.8,1.1,1.3C-353.3,683.4-353.6,683.4-353.8,683.4z M-346.3,669.8c0,0.1-0.1,0.3-0.1,0.5
	c-0.2,0.1-0.4,0.3-0.9,0.4c-1.6,0.3-2.9,1.1-3.8,2.3c0.3,1.3,0.7,2.6,1.3,4c0.6,1.3,0.7,2.8,0.4,4.3c-0.5-0.1-1-0.4-1.5-0.8
	c-0.1-0.4-0.6-1-1.2-1.5c-1.2-1-2.3-1.8-3.5-2.3c-1,0-1.9,0-2.9,0c0-1.7,0.1-3.4,0.1-4.9c0-0.8,0-1.6,0-2.4c1.5,0.1,3-0.1,4.4-0.6
	c0,0,0.1,0,0.1-0.1c0.3-0.1,0.5-0.3,0.7-0.6c-0.1-0.3-0.2-0.7-0.4-1c-0.1-0.4-0.4-0.8-0.7-1.2c-0.4-0.5-0.6-1-0.8-1.3
	c-0.2-0.4-0.4-0.7-0.6-0.9c-0.4-0.5-0.7-1-1-1.5c0-0.4-0.1-0.7-0.3-1.1c-0.1-0.1-0.1-0.1-0.2-0.2c-0.5-0.2-0.8,0.1-1,0.9
	c-0.1-0.1-0.1-0.2-0.2-0.3c-0.1,0.1-0.1,0.2-0.2,0.4c-0.1,0.4-0.2,0.8-0.3,1.3c0,0.7,0.4,1.1,1,1.2c0,0.2,0,0.4,0,0.7
	c0.1,0.7,0.2,1.2,0.7,1.6c-0.4,0-0.9-0.1-1.2-0.3c-0.4-0.2-0.8-0.3-1.3-0.3c0-0.2,0-0.5,0-0.7c0-0.7,0-1.2,0.1-1.8s-0.1-1-0.4-1.2
	c-0.4-0.3-0.9-0.6-1.3-0.8c-0.1-0.6-0.4-1-0.9-1.5c1.4-1.2,2.4-2.7,2.9-4.2c0.4-1,1-1,2-0.3c0.7,1.5,1.8,2.8,3,3.6
	c0.8,0.1,1.5-0.1,2.1-0.6c1.1-1.1,1.8-2.6,2.3-4.6c1,1.1,1.9,2.2,3,3.1c0.5,0.4,0.9,0.5,1.4,0.6c0.1-0.1,0.1-0.1,0.3-0.1
	c0.1,0,0.1,0,0.2,0c-0.8,1.5-0.8,2.9,0.1,4.2c-1.3,0.7-2.3,1.7-3.1,3.1c-0.1,0.3-0.4,0.5-0.6,0.7c-0.9-0.7-1.8-1.5-2.9-2.1
	c0.2-1-0.1-1.5-1-1.5c-0.2,0.2-0.3,0.6-0.2,1.1c-1.6-0.2-2.3,0.2-2,1.3c0.9,0.1,1.5,0.2,2,0.4c0.7,1.2,1.7,2.1,2.7,2.9
	c0.1,0.1,0.2,0.2,0.4,0.4c0.4,0.3,1,0.5,1.5,0.7c0.6,0.1,1.2,0.2,1.9,0.1C-346.2,668.8-346.2,669.3-346.3,669.8z M-345.1,681.5
	c0-0.3-0.1-0.6-0.1-0.8c-0.1-1.5-0.2-3-0.2-4.5c1.2,0.4,2.5,0.4,3.9,0.1c0,0.3,0,0.7-0.1,1c-0.2,1.6,0.1,3.1,0.5,4.2
	C-342.5,681.3-343.8,681.3-345.1,681.5z M-329.1,677.8c-0.1,0.1-0.1,0.4-0.1,0.6c-0.1,0.1-0.2,0.6-0.2,1.2c-0.8-0.1-1.5-0.1-2.1,0
	c-1.8,0.4-2.6,1.3-2.9,3c-1.1-0.1-2.1-0.6-2.6-1.3c-0.2-0.6-0.3-1.2-0.2-1.9c0.1-1,0.1-1.9,0.1-2.8c-0.1-1.8-0.6-3.1-1.6-4.1
	c0-0.7-0.1-1.5-0.2-2.1c0.6-0.2,1-0.5,1.3-0.9c0.2-0.2,0.4-0.4,0.7-0.7c0.1-0.1,0.1-0.2,0.1-0.4c0.1-0.4,0.1-0.6,0.1-1
	c0-0.1-0.1-0.3-0.1-0.4c0-0.4-0.1-0.6-0.2-0.9c-0.1-0.3-0.2-0.5-0.3-0.8c0-0.2-0.1-0.4-0.1-0.7c-0.1-0.3-0.1-0.5-0.3-0.8
	c-0.1-0.3-0.2-0.6-0.4-1c0-0.3,0-0.6,0.1-1c0.1-0.2,0.1-0.5,0.2-0.8c0.1-0.2,0.1-0.4,0.1-0.5c4.6,3.7,7.5,7.1,8.6,10.3
	C-328.8,673.4-328.8,675.6-329.1,677.8z M-320.3,680.5c-0.5,0-1,0-1.3,0c-0.6,0-1,0.1-1.4,0.4c-1,0.8-1.5,1.7-1.5,2.8
	c-1.3,0.3-2.2,0-2.5-0.7c-0.1-0.5-0.1-0.9,0.1-1.2c1.9-3.1,3.3-7,4.2-11.4c-0.5-3.1-1.5-5.7-3-7.8c2.8,2.3,4.9,4.9,6.4,8.1
	C-319.1,672.6-319.4,676-320.3,680.5z"/>
<path fill="#FFFFFF" d="M-401.6,625.8c-0.2-0.2-0.5-0.4-0.7-0.7c-0.4,0.7-0.8,1.3-1.1,2c0.4,1.7,0.1,2.9-0.8,3.7
	c-0.7-0.1-1.3-0.3-2-0.4c0.1,0.9,0.7,1.4,1.6,1.5c1.5,1,2.3,2.3,2.1,4c-0.1,0.6-0.4,0.9-1,1c0.7,1,1,2.2,0.9,3.8
	c-0.1,0.7-0.3,1.4-0.7,2.1c-0.1,0.4-0.3,0.7-0.3,1.1c0.1,1.2,0.3,2.4,0.5,3.6c0.4,0,0.6,0,0.8,0c0.1-0.1,0.2-0.1,0.4-0.3
	c-0.5-0.6-0.7-1.3-0.5-2.1c0.7,0.2,1.3,0.4,2,0.6c-0.2-0.4-0.3-1-0.4-1.5c0-0.4,0-0.8,0-1.2c1.2,0.7,2.5,1.4,3.7,2
	c-0.3-0.6-0.6-1.2-1-2c-0.7-1.2-0.6-2.2,0.5-3c-0.3,1.1-0.1,2,0.6,2.8c0.3-0.7,0.4-1.5,0.1-2.3c-0.2-1.6-0.6-3.1-1.2-4.5
	c0.5-0.5,1-0.9,1.4-1c-0.1,0.7,0,1.2,0,1.8c0.1,0.7,0.3,1.3,0.6,1.9c0.1,1.8,0.4,3.3,0.8,4.5c0-0.4,0.2-0.9,0.7-1.2
	c0.7,0.1,1,0.2,1.2,0.6c-0.3-0.9-0.6-1.9-1-2.9c0.4,0.3,1,0.5,1.5,0.6c0,1.3,0.4,2.2,1.5,2.8c0.1-1-0.1-1.8-0.7-2.4
	c-0.7-0.8-0.9-1.7-0.7-2.6c0.4,0.1,0.7,0.3,1,0.5c0.1-1.8-0.7-2.3-2.3-1.5c-0.3,0.2-0.6,0.5-0.8,0.9c-0.2,0.1-0.2,0.3-0.1,0.6
	c-0.5,1-0.7,0.5-0.6-1.3c-0.6,0.1-0.9-0.1-0.9-0.6c1-0.5,1.1-1.2,0.2-2c0-1.2,0.3-1.6,1-1.2c0.1,0.2,0.2,0.6,0.6,1
	c0.7-0.5,0.5-1.4-0.6-2.7c-1.6-0.1-3.1-0.4-4.5-0.6c-1.5,1-2.2,0.7-2.3-0.8C-401.8,628.8-401.8,627.2-401.6,625.8z M-397.4,632.7
	c1,0.5,0.8,1.2-0.4,1.8c-0.4-0.4-0.5-0.7-0.5-1.2C-398.2,632.7-398,632.5-397.4,632.7z"/>
<path fill="#FFFFFF" d="M-410.5,635.3c-1.1,0.3-1.5,1.1-1.2,2.4c-1.2,0.8-1,1.2,0.4,1.4c0.7,0.6,0.5,1-0.4,1.1
	c-0.1,0-0.3-0.1-0.4-0.1c-1.2-1-2.6-1.4-4.2-1.1c0.8,1.2,1.8,2.2,2.7,3c0.1,0,0.1,0,0.1,0c1.2-0.2,2.3-0.3,3.4-0.1
	c-0.7-0.3-0.9-0.8-0.8-1.5c0.1,0,0.1,0,0.1,0c0.5,0,1,0.1,1.3,0.4v-0.1c-0.1-0.7,0.1-1.2,0.6-1.8c0.1,0,0.1,0.1,0.1,0.1
	c0.8,0.5,1.5,1.2,1.9,2c0.1,0,0.1,0.1,0.2,0.1c0.6,0.4,1,0.4,1.5-0.1v-0.1c-0.1-1.3-0.3-2.6-0.6-4c0-0.4-0.1-0.7-0.3-1.1
	c-0.9-1.3-1.9-2.3-3.1-3c-0.7,0.9-1.2,1.7-1.3,2.4C-410.4,635.3-410.4,635.3-410.5,635.3z"/>
<path fill="#FFFFFF" d="M-411,630.3c-0.2-0.6-0.4-1.3-0.9-2.2c-0.1-0.3-0.3-0.6-0.4-0.9c-1.2,1-2,2.2-2.4,3.6
	c0.7-0.3,1.7-0.4,2.8-0.2C-411.6,630.5-411.4,630.4-411,630.3z"/>
<path fill="#FFFFFF" d="M-407.3,633.2c1,0.9,1.7,1.8,2.4,2.9c0,0.1,0.1,0.1,0.1,0.1c0.7-2,0.1-3-1.9-3
	C-407,633.2-407.1,633.2-407.3,633.2z"/>
<path fill="#FFFFFF" d="M-390.2,631.8c-0.6,0-1.1,0-1.7,0c-0.7,0-1.4,0-2-0.1c0.4,1.3,1.1,1.5,2.1,0.6c-0.2-0.1-0.2-0.3-0.1-0.5
	c0.4,1.5,1.1,1.8,1.9,0.9C-390,632.5-390.1,632.2-390.2,631.8z"/>
<path fill="#FFFFFF" d="M-393.6,634.9c-0.7,0.4-0.9,0.9-0.4,1.4C-393,636.8-392.9,636.3-393.6,634.9z"/>
<path fill="#FFFFFF" d="M-389.3,633.8c-0.6-0.1-1,0.1-1.4,0.5c0.2,0.4,0.4,0.5,0.4,0.6C-389.9,634.6-389.6,634.2-389.3,633.8z"/>
<path fill="#FFFFFF" d="M-389.8,632.4c-0.2,0.3-0.1,0.5,0.1,0.7C-388.4,632.7-388.4,632.4-389.8,632.4z"/>
<path fill="#FFFFFF" d="M-392.8,634.2c-0.1,0.3,0.1,0.4,0.5,0.4c0.2,0,0.4-0.1,0.7-0.1C-392,633.2-392.4,633.1-392.8,634.2z"/>
<path fill="#FFFFFF" d="M-391.6,635.7c-0.1,0.1,0.1,0.3,0.4,0.6c0.3,0.1,0.4-0.1,0.4-0.4c0-0.1,0-0.1,0-0.2
	C-391.1,634.6-391.4,634.6-391.6,635.7z"/>
<path fill="#FFFFFF" d="M-390,636.3c-0.2,0.3-0.4,0.5-0.7,0.7c0.4,0.6,0.5,1.3,0.4,2.1c-0.1,0.2-0.3,0.4-0.4,0.8
	c0,0.4,0,0.8-0.1,1.2c0.7-0.1,1.2-0.4,1.6-1c-0.1-1,0.1-1.8,0.4-2.6C-389.2,637.1-389.7,636.8-390,636.3z"/>
<path fill="#FFFFFF" d="M-385.6,634c0.1,0,0.3,0,0.5,0C-385,632.9-385.1,632.9-385.6,634z"/>
<path fill="#FFFFFF" d="M-388.6,634.2c0.3-0.3,0.6-0.7,0.9-1.1C-388.6,632.6-388.9,632.9-388.6,634.2z"/>
<path fill="#FFFFFF" d="M-388.4,637c0.1-0.2,0.4-0.3,0.7-0.2c-0.2-0.8-0.3-1.4-0.1-1.8C-389.6,635.1-389.8,635.8-388.4,637
	C-388.4,637.1-388.4,637.1-388.4,637z"/>
<path fill="#FFFFFF" d="M-386.1,635.7c0.2-0.1,0.3-0.2,0.4-0.4c0.1-0.4-0.1-0.7-0.4-0.8C-386.2,634.9-386.2,635.4-386.1,635.7z"/>
<path fill="#FFFFFF" d="M-374.2,632.3c-0.7,0.2-1.2,0.7-1.7,1.3C-373.8,633.9-373.2,633.5-374.2,632.3z"/>
<path fill="#FFFFFF" d="M-375.7,635.5c0.7,0.2,1.2,0.7,1.8,1.3C-373.6,635.4-374.2,634.9-375.7,635.5z"/>
<path fill="#FFFFFF" d="M-360.1,635.1c-0.1,0.7-0.3,1.2-0.5,1.8c-0.1-0.5-0.3-1-0.6-1.4c-0.1,0.2-0.3,0.2-0.6,0.1
	c-0.1-0.7-0.4-1-1-0.7c0.3,1.2,0.2,2.3-0.2,3.1c-0.1-2-0.9-2.9-2.1-2.9c0.3,1.7,0,2.5-0.9,2.5c0.5,1,1.1,2.1,1.6,3.3
	c0.7,1.3,1.1,2.7,1.2,4.1c0.2,1.7,1.2,2.4,2.8,2.3c-0.2-0.7-0.3-1.2-0.3-1.9c0.4,0.8,0.8,1.8,1,2.8c1.5,0.7,3.1,1,4.8,0.8
	c0.1,1.2,0.4,2.3,1,3.3c0.5,1.2,1,2.4,1.6,3.6c0.4-0.8,0.5-1.8,0.4-2.9c0.5,0.3,0.9,0.7,1.1,1.2c0.4-0.8,0.9-1.7,1.5-2.5
	c0.3-1.4,1-2.2,2.3-2.5c0.2-0.7,0.3-1.4,0.2-2.1c0.9,1.1,1.4,2.4,1.5,4c0.1,1.5,0.1,3.1,0.1,4.6c1,1.5,1.8,1.2,2.3-0.7
	c0.6-1.5,0.6-3.1,0-4.6c-0.6-1.5-1.7-2.7-3.2-3.7c0.1-0.4-0.2-0.7-1-0.7c-0.9,0.1-1.6,0.5-2,1.2c-0.4-0.5-1-0.9-1.3-1.1
	c-0.4,0.1-0.8,0-1.2-0.2c-1.3-0.7-1-1.2,0.8-1.5c0.4,0,0.4,0.2,0.4,0.7c0.2-0.5,0.5-0.9,0.9-1.2c1.2-1,1.1-1.6-0.5-1.8
	c-0.1,0.8-0.5,1-1.2,0.5c0.1-0.3,0.3-0.5,0.6-0.7c0-0.3,0-0.7-0.1-1c-0.2-1.5-0.8-3-1.7-4.4c-0.4-1.7-1.3-2.7-2.7-3.1
	c-0.2,1.1-0.1,2.4,0.1,3.9c-0.8-1.3-1.8-2.3-2.8-3.1c0,0.8,0,1.5-0.1,2.4C-358.8,636.9-359.5,636.3-360.1,635.1z M-362.2,640.2
	c-0.1-0.2-0.1-0.5-0.1-1c0.9,1.3,1.2,2.9,1.1,4.5c0.2,0.1,0.3,0.4,0.1,0.7C-361.3,643.1-361.6,641.7-362.2,640.2z"/>
<path fill="#FFFFFF" d="M-366.1,639c-0.4,0.9-0.5,1.8-0.4,2.9c0.2,1.7,0.6,3.1,1.2,4.2c0.4-1,0.4-2.2,0.1-3.5
	C-365.4,641.4-365.7,640.2-366.1,639z"/>
<path fill="#FFFFFF" d="M-367.9,646.1c0.5,0.1,0.7-0.1,0.7-0.5C-367.6,643.6-367.9,643.8-367.9,646.1z"/>
<path fill="#FFFFFF" d="M-377.7,639.5c-0.7,1.3-1,2.8-1,4.4c0.1,1.2-0.1,2.2-0.9,2.6c-0.2-1.3-0.2-2.6,0-3.8c0.3-1.6,0.2-2.9-0.2-4
	c-0.9,1.3-1.2,2.8-1.1,4.4c0.1,1.7-0.1,3.1-0.7,4.3c0.1,1.3,0.1,2.7,0.1,4.2c0,1,0.1,2.1,0.4,3c0,1.5,0,3.1,0,4.6
	c-0.1,1.1-0.3,2.1-0.4,2.9c-0.4,0.3-0.7,0.9-0.6,1.8c-0.4,0.1-0.7,0.2-1,0.2c-0.1,0.9-0.1,1.8-0.1,2.6c-0.4,1.6-0.4,3.2-0.4,4.8
	c0.1,0.1,0.3,0.1,0.4,0.1s0.1,0,0.2,0c0.1-1.6,0.7-2.9,1.6-4c0.3-0.3,0.7-0.4,1.1-0.4c-0.1-1.2,0-2.1,0.6-2.8c-0.2-1.5,0-2.9,0.7-4
	c0.4-0.7,0.9-1.6,1.2-2.7c0.5-1.5,0.6-3,0.2-4.6c0.4-0.4,0.8-1,1.3-1.5c-0.1-0.9-0.3-1.5-0.7-1.8c0.4-0.1,0.7-0.4,0.7-0.9
	c-0.1-0.4-0.1-0.9,0-1.3c0.7,0.1,1.3,0,1.7-0.4c0-0.7,0.1-1.6,0.5-2.6c-0.6,1-1.3,1.6-2.2,1.7c-0.1,0-0.2,0-0.2-0.1
	c-0.1-0.1-0.1-0.4-0.2-0.7c-0.1-0.3-0.1-0.7-0.2-1c0.4,0.1,0.8,0,1.2-0.2c1.3-0.8,1.5-1.8,0.5-3.2c0-0.6,0-1,0.1-1.3
	c0.6-1.8,0.4-3.1-0.7-3.7c-0.7,0.4-0.8,1-0.4,2c-1.1,0.6-1.2,1.9-0.1,4c-0.1,1.6-0.6,1.8-1.2,0.4
	C-377.4,641.4-377.5,640.4-377.7,639.5z M-378.8,655.8c-0.1,0.9-0.1,1.7,0.1,2.4c-0.7,0.8-1.2,1.3-1.7,1.7c-0.1-1.1,0.1-2.3,0.4-3.5
	c0-0.4,0.1-0.7,0.3-1C-379,654.1-378.7,654.3-378.8,655.8z M-380.2,660.7c0.2-0.1,0.3,0.2,0.2,0.9c0.1,1.2,0,2-0.6,2.6
	C-380.7,662.9-380.6,661.7-380.2,660.7z"/>
<path fill="#FFFFFF" d="M-369.2,655.8c0.1-1-0.1-1.7-1-2.1c-1.1,0.8-1.2,2.1-0.4,3.8C-370,657-369.5,656.5-369.2,655.8z"/>
<path fill="#FFFFFF" d="M-360.2,652.6c-1-0.1-1.7,0.1-2.3,0.8c-0.1,1.6,0.1,3.1,0.4,4.6c0.5-0.1,0.8-0.4,0.9-1.2
	C-360.2,655.8-359.9,654.3-360.2,652.6z"/>
<path fill="#FFFFFF" d="M-362.4,660.5c-0.1,0.1-0.1,0.3-0.1,0.4c-0.1,0.6-0.3,1.2-0.4,1.9c0.3,0.4,0.4,1,0.4,1.7
	c-0.4,0.5-0.4,1,0,1.5c-0.1,0.2,0,0.3,0.4,0.2c0.1-0.4,0.5-0.7,1-1c-0.1,0.4,0.1,0.7,0.4,0.7c0.4,0.1,0.5-0.2,0.3-0.8
	c-0.3-0.5-0.4-1.1-0.7-1.6c0.1-0.4,0.3-0.8,0.6-1.2c-0.1-0.2-0.2-0.4-0.5-0.5c-0.3-0.2-0.6-0.4-0.9-0.4
	C-362.1,661-362.1,660.7-362.4,660.5z"/>
<path fill="#FFFFFF" d="M-389.7,643.4c0.8-0.6,0.8-1-0.1-1.2C-390,642.5-390,643-389.7,643.4z"/>
<path fill="#FFFFFF" d="M-382.9,679.3c0.5-1.2,0.7-2.9,0.4-4.9c0-1-0.4-1.5-1.2-1.6c0.4,1.9,0.2,3.5-0.3,4.9
	c-0.5,1.5-1.1,2.9-1.8,4.2c0.9,0,1.8,0,2.6,0c0-0.4,0-0.7,0-1C-383.2,680.3-383.1,679.8-382.9,679.3z"/>
<path fill="#FFFFFF" d="M-387.9,682.1c-0.1,0.7-0.2,1.2-0.1,1.5c0.2,0.3,0.4,0.3,0.4,0.1c0.2-0.1,0.4-0.2,0.6-0.4
	C-386.7,681.9-387,681.4-387.9,682.1z"/>
<path fill="#FFFFFF" d="M-326.8,685.9c-1-0.4-2.1-0.5-3.6-0.4c-1.2,0.1-2.5,0.1-3.7,0.1c1-0.5,2-1.2,3-1.8c-1.3-0.3-2.6-0.4-3.9-0.3
	c-0.4-0.7-1-1-1.5-1c-0.7-0.6-1.5-0.8-2.4-0.9c-0.4-0.1-0.8-0.1-1.2,0.2c-0.3,0.3-0.7,0.4-1.5,0.4c-0.3,0.5-0.5,0.8-0.9,1
	c-0.5,0.4-1,0.7-1.5,1c-0.4-0.4-0.5-0.9-0.5-1.5c0.1-0.4-0.1-0.5-0.5-0.4c-0.1,0.7-0.4,0.8-0.7,0.3c-0.2-0.4-0.7-0.4-1.5,0.1
	c0.3,1,0.2,1.9-0.1,2.7c-0.1-0.6-0.3-1.1-0.4-1.5c0.1-0.5-0.2-0.7-0.7-0.5c-0.3,0.5-0.4,1.1-0.4,1.7c-1,0.3-1.4,0-1.3-0.7
	c-0.5,0.1-1,0-1.4-0.1c-0.8,0.7-1.8,0.9-3,0.7c-0.1-0.4-0.4-0.7-0.8-0.7c-0.8-0.1-1.5,0-2,0.2c0.4-0.1,0.6,0.2,0.3,0.8
	c-0.2-0.1-0.5-0.1-0.8-0.1c-0.6-0.1-1-0.4-1.4-1.1c-0.7-1.2-1.2-2.3-1.6-3.6c-0.4,0-0.7,0.2-0.7,0.6c-1.2-0.3-1.8,0-2.1,0.8
	c0.7,0.3,1.1,0.7,1.3,1.2c-0.1,0-0.2,0-0.4,0c-0.2-0.1-0.4,0.1-0.6,0.4c-0.1,0.3,0,0.5,0.1,0.5c-1.6,0-2.9,0.5-4,1.5
	c-1.5,0-3.1,0-4.6,0c-1.5-0.1-3,0.1-4.5,0.4c-0.5-0.4-1.1-0.6-1.8-0.7c-1.5-0.3-2.9-0.9-4.2-1.7c-0.7,0-1-0.5-0.7-1.5
	c-0.4,1.2-1.3,1.9-2.6,2.3c-1-0.1-2.3,0.1-3.6,0.4c-0.1,0.9,0.2,1.7,0.8,2.2h61.9C-326.4,686.6-326.6,686.3-326.8,685.9z
	 M-339.6,684.5c-0.5-0.1-0.7-0.5-0.4-1.2c0.3-0.1,0.6-0.2,0.8-0.4C-338.7,683.5-338.9,684.1-339.6,684.5z"/>
<path fill="#FFFFFF" d="M-318.3,684.9c-0.6,0.3-1.4,0.4-2.3,0.4c-1.3,0.4-2.6,0.4-3.7-0.2c0.1,0.9,0.5,1.4,1.1,1.8h5.6
	C-317.9,686.2-318.1,685.5-318.3,684.9z"/>
<path fill="#FFFFFF" d="M-335.6,636.5c0,0.4,0,0.8,0,1.2c0.4,0.6,0.7,1.2,0.8,1.8c-0.1,0-0.2-0.1-0.3-0.1c-0.2-0.2-0.5-0.2-0.8,0
	c-0.1,0.3,0,0.7,0.1,1c0.1,1.2-0.3,1.5-1.1,1c0.4-1.4,0.1-2.4-0.7-2.9c0,0.7,0,1.4,0,2.1c-0.2-0.6-0.6-0.9-1.2-0.7
	c0,0.3,0.1,0.6,0.3,1c-0.1,1,0.3,1.7,1.2,2.2c0.4,0.2,0.6,0.5,0.9,0.8c1.1,1.4,1.3,2.8,0.7,4.2c-0.4,1.3,0,2.6,1.1,3.7
	c1.3-0.1,2.2,0.7,2.6,2.1c0.3,1.5,1.3,2.3,3.1,2.5c1,1,1.9,2.3,2.9,3.5c0.7,0.4,1.2,0.8,1.5,1.4c0.3,0.2,0.6,0.5,0.8,0.7
	c1,1.2,1.8,2.3,2.5,3.4c0.3,0.7,0.7,1.5,1,2.3c0.6,1.4,1.4,2.8,2.3,4.2c0.1,1.6-0.1,3.1-0.3,4.8c-0.2,1.5-0.4,3.1-0.6,4.6
	c-0.4,0-0.7,0-0.9,0.2c-1.2,0.8-1.6,2.1-1.2,3.9c1.3-0.1,2.3-0.7,2.9-1.7c0.9-4.8,2-8.5,3.3-11.2c0-0.1,0.1-0.1,0.1-0.2
	c0.6-1.1,0.3-2.9-1-5.4c0.2,2-0.2,2.3-1.2,1.1c-1-1.2-1.9-2.4-2.9-3.7c-0.9-1.2-1.5-2.5-2.1-3.8c-0.7-1.2-1.2-2.6-1.3-4
	c-0.1-1.5-0.3-3-0.4-4.5c-0.2-1.5-0.4-2.9-0.6-4.4c-0.7-2.3-1.1-4.2-1-5.4c-1.5-0.9-2.6-2.1-3.4-3.4c-0.1-0.3-0.3-0.4-0.7-0.6
	c-1.5-0.4-2.1-1.6-1.8-3.4c-0.1-0.1-0.2-0.2-0.4-0.3c-0.6-0.4-1.2-0.7-1.8-1c-0.7-0.3-1.3-0.6-2-0.8c-0.1,0.1-0.4,0.2-0.5,0.3
	c-1.4,0-2.6,0-3.8,0c-0.1,0-0.4,0-1,0.1c-0.4,1.3-0.1,2,1,2.1c-0.1,0.5-0.2,1.1-0.1,1.7c1,0.1,1.7-0.3,2.1-1.1
	C-336.8,636-336.3,636.3-335.6,636.5z M-318.6,667.2c0.9,0.3,1.2,0.9,1,1.7C-318.4,668.5-318.7,668-318.6,667.2z"/>
<path fill="#FFFFFF" d="M-359.7,666.2c0,0.1,0,0.2,0,0.3c0.1,0.1,0.1,0.2,0.1,0.4c-0.1,0.8,0.2,1.2,1,1c0.6-0.1,0.8-0.4,0.7-1.1
	C-358.4,666.5-359,666.3-359.7,666.2z"/>
<path fill="#FFFFFF" d="M-368.9,671.1c0.9,0.1,1.2-0.1,1-1c-0.1-0.4-0.4-0.6-0.7-0.5c-0.7,0.1-0.8,0.6-0.7,1.4
	C-369.1,671-369,671-368.9,671.1z"/>
<path fill="#FFFFFF" d="M-366.7,669.9c0.1-0.9-0.2-1.3-0.9-1.2c-0.1,0.7,0,1.1,0.4,1.5C-366.8,670.4-366.7,670.3-366.7,669.9z"/>
<path fill="#FFFFFF" d="M-359.5,669.8c0.1-0.7-0.1-1.2-0.5-1.7c-0.6,0.2-0.9,0.7-0.9,1.3c-0.1,0.7-0.1,1.3-0.4,1.8
	c0-0.3,0-0.7,0-1.1c0.1-0.7-0.1-1.2-0.7-1.4c-0.5,0.1-0.7,0.4-0.7,0.9c0,0.6-0.1,1.2-0.1,1.8c-0.1,0.7,0,1.2,0.4,1.8
	c0.1,0.7,0.2,1.4,0.3,2c0.1,0.6,0.4,1.1,0.8,1.5c0.2,0.1,0.4,0,0.7,0c0.1-0.1,0.3-0.1,0.4-0.3c0.2-0.6,0.3-1.2,0.3-1.8
	c0-0.6,0-1.2,0-1.8c0-0.4,0-0.8,0.1-1.2C-359.7,671-359.6,670.4-359.5,669.8z"/>
<path fill="#FFFFFF" d="M-364,668.5c0.7,0.5,1.2,0.4,1.5-0.3C-363.1,668-363.6,668.1-364,668.5z"/>
<path fill="#FFFFFF" d="M-363.2,679.3c0.1-0.5,0-0.9-0.4-1c-0.1-0.1-0.2-0.1-0.3,0.1c0,0.2-0.1,0.4-0.2,0.5c-0.4,0.6-0.4,1.2,0,1.6
	C-363.7,680.3-363.4,680-363.2,679.3z"/>
<path fill="#FFFFFF" d="M-366,675.7c-0.3-0.8-0.6-0.7-0.7,0.2c-0.1,0.6-0.1,1.2-0.1,1.8c0.4,0.3,1,0.3,1.7,0.1
	c0.2-0.1,0.3-0.2,0.4-0.5c0.1-0.7,0.1-1-0.3-1c-0.3-0.1-0.5-0.2-0.7-0.4C-365.8,675.9-365.9,675.9-366,675.7z"/>
<path fill="#FFFFFF" d="M-367.7,676.4c-0.1,0-0.3,0-0.4,0.1c-0.5,0.4-0.6,0.8-0.1,1.3c0.2-0.1,0.4-0.3,0.7-0.5
	C-367.2,676.8-367.2,676.5-367.7,676.4z"/>
<path fill="#FFFFFF" d="M-367.3,679.2c0.1-0.1,0-0.3-0.1-0.3c0.2,0.4,0.5,1,1,1.4c0.2,0.2,0.4,0.5,0.5,0.8c0.4,0.1,0.4-0.2,0.1-0.7
	C-366.2,679.8-366.6,679.4-367.3,679.2z"/>
<path fill="#FFFFFF" d="M-404.9,643.2c0.8-0.3,0.9-0.7,0.3-1.2c-0.3-0.1-0.4,0-0.4,0.2C-404.9,642.6-404.9,643-404.9,643.2z"/>
<path fill="#FFFFFF" d="M-407.3,644.7c0.2,0.1,0.4,0.1,0.6,0.1c0.7-0.1,0.9-0.5,0.5-1.2c-1.5-0.4-2.5,0-2.9,1.4
	C-408.6,644.4-408,644.3-407.3,644.7z"/>
<path fill="#FFFFFF" d="M-413.7,645.7c0.1,0.2,0.4,0.4,0.6,0.3c0.1-0.1,0.2-0.3,0.2-0.4s0-0.2,0-0.3c0.1-0.3,0-0.4-0.4-0.4
	c-0.1,0-0.2,0.1-0.4,0.1C-413.7,645.2-413.8,645.5-413.7,645.7z"/>
<path fill="#FFFFFF" d="M-386.5,636.6c-0.6,0.3-1,0.7-1,1.4C-386.7,638.4-386.3,637.9-386.5,636.6z"/>
<path fill="#FFFFFF" d="M-330.5,633.8L-330.5,633.8c2.6,1.8,4.8,4.5,6.3,8c0,0.1,0,0.3,0,0.4c0,2.2,1.1,6,3.1,11.4
	c-0.2-3.8-0.7-7.6-1.5-11.4c-0.1-0.4-0.1-0.7-0.2-1.1c-0.1-0.1-0.1-0.3-0.1-0.4C-324.4,637.1-326.8,634.8-330.5,633.8z"/>
<path fill="#FFFFFF" d="M-319.3,662.8c0.7,1.4,1.6,2.6,2.6,3.7c0.4-0.1,0.8-0.1,1.2-0.2c-0.7-1.1-1.4-2.3-2.3-3.7
	c-0.9-1.9-1.6-3.7-2.3-5.3c-0.8,0.2-1.1,0.7-0.8,1.5C-320.5,660.3-320,661.6-319.3,662.8z"/>
<path fill="#FFFFFF" d="M-343.8,643.8c-0.2-0.1-0.6-0.2-1-0.2c0.2,1.7,0.7,2.1,1.3,1c0.1-0.1,0.1-0.3,0.1-0.4
	c-0.1-0.1-0.1-0.1-0.2-0.2C-343.7,643.9-343.8,643.8-343.8,643.8z"/>
<path fill="#FFFFFF" d="M-345.8,644.4c0.4-1.2,0.1-1.5-0.8-0.6C-346.4,644.1-346.2,644.3-345.8,644.4z"/>
<path fill="#FFFFFF" d="M-341.9,655.6c0-0.1,0-0.1,0-0.2c-0.9,0.9-1.6,1.8-2.3,2.5l0.2,0.1c0.1,0,0.1,0,0.1,0
	c0.6-0.3,1.1-0.6,1.6-0.9c0.1,0,0.1-0.1,0.1-0.1C-341.9,656.5-341.8,656.1-341.9,655.6z"/>
<path fill="#FFFFFF" d="M-343.7,659.5c0.7-0.1,1.2,0,1.5,0.4c-0.4-0.1-0.7,0.1-1,0.3c-0.8,0.9-0.5,1.5,0.7,1.8
	c1.4-0.1,2.1,0.6,2,2.1c0.2-0.1,0.5-0.3,0.8-0.3c0.2,0.1,0.5,0.3,0.7,0.4c0.1,0.1,0.1,0.1,0.1,0.2c0.1,0.3,0.1,0.6,0.2,0.9
	c0.1,0.3,0.1,0.5,0,0.8c0.4-0.1,0.6,0,0.8,0.2c0.1,0.1,0.2,0.1,0.4,0.1c-0.3-1.2-0.7-2.3-1.2-3.4c-0.1,0.5-0.4,0.7-0.8,0.6
	c-0.7-1-0.4-1.6,0.9-1.8c0.1-0.6,0.1-1.1,0.4-1.6c-0.1-1.6-0.9-2.7-2.2-3.1C-342.2,657.3-343.3,658.1-343.7,659.5z M-341.1,658.2
	c0.1,0,0.1,0,0.2,0.1s0.1,0.1,0.2,0.1c0.4,0.1,0.5,0.4,0.4,0.7c-0.1,0.2-0.2,0.4-0.4,0.4c-0.3-0.1-0.4-0.2-0.4-0.5
	c-0.1-0.3-0.2-0.5-0.3-0.7C-341.4,658.2-341.3,658.2-341.1,658.2z"/>
<path fill="#FFFFFF" d="M-340.5,664.1c-0.5,0.1-0.6,0.4-0.2,1c0.4,0.6,0.8,1.2,1.2,1.9c0.7-0.7,0.7-1.6,0.5-2.6
	C-339.4,664.1-340,664-340.5,664.1z"/>
<path fill="#FFFFFF" d="M-338.6,666.4c-0.3,0.3-0.6,0.4-1,0.6c0.4,0.7,0.7,1.3,0.9,2.1c0.2,0.1,0.4,0.1,0.8,0
	c0.2-0.1,0.4-0.2,0.5-0.5c0-0.1,0-0.1,0-0.1c0.2-0.6,0.2-1,0-1.3C-337.5,666.6-338,666.4-338.6,666.4z"/>
<path fill="#FFFFFF" d="M-343.7,670.1c-0.3,1.2-0.1,2,0.7,2.6c0.8,0.3,1.9,0.4,3.2,0.2c0.5-0.8,0.4-1.7-0.2-2.5
	C-341.3,670.2-342.5,670.2-343.7,670.1z"/>
<path fill="#FFFFFF" d="M-347.6,673.2c-0.4-0.5-0.7-0.4-1,0.4c-0.4,1.3-0.3,2.3,0.5,3.1c1.5,0.2,1.9-0.7,0.9-2.7
	C-347.4,673.7-347.5,673.4-347.6,673.2c0.7,0.6,1,1.2,1,2.1C-345.6,673.7-345.9,673.1-347.6,673.2z"/>
<path fill="#FFFFFF" d="M-346.8,667.3c-0.4,0.2-0.8,0.5-1.2,0.9c0.6,0.1,1.2,0.1,1.8,0.1C-346.3,667.8-346.5,667.5-346.8,667.3z"/>
<path fill="#FFFFFF" d="M-352,664.1c1.5,0.8,2.1,1.8,2,3.2c0.7-0.5,1.2-1.2,1.4-1.9c-0.8-0.7-1.8-1.4-2.9-2.1
	C-351.7,663.6-351.8,663.9-352,664.1z"/>
<path fill="#FFFFFF" d="M-355.4,664.6c-0.2-0.4-0.4-0.7-0.5-0.9c-0.4-0.4-0.7-1-1-1.4c-0.3,0.1-0.6,0.2-1,0.2c0,0,0,0,0,0.1
	c0,0.4,0.1,0.8,0.1,1.2c0.4-0.1,0.8-0.2,1.1,0c0.2,0.5,0.4,1,0.6,1.7c0.1,0.5,0.3,1.1,0.6,1.6c0.3,0.5,0.7,1,1.1,1.4
	c0.1,0.1,0.1,0.1,0.1,0.1s0.1,0,0.1-0.1c0.3-0.1,0.4-0.3,0.7-0.4c-0.1-0.3-0.2-0.6-0.3-0.9c-0.2-0.4-0.4-0.8-0.8-1.2
	C-354.9,665.4-355.2,665-355.4,664.6z"/>
<path fill="#FFFFFF" d="M-357.9,662c0.4,0.1,0.7,0,0.9-0.1c-0.1-0.7-0.3-1-0.6-0.8C-357.8,661.3-358,661.6-357.9,662z"/>
<path fill="#FFFFFF" d="M-347.9,677.9c0,0.3,0.1,0.4,0.4,0.4c0.5,0.1,0.9,0,1.2-0.1C-346.6,677.8-347.2,677.6-347.9,677.9z"/>
<path fill="#FFFFFF" d="M-346.2,679.9c-1,0.3-1.2,0.8-0.7,1.6c0.2,0.4,0.5,0.4,0.9,0.4C-345.6,681.1-345.7,680.5-346.2,679.9z"/>
<path fill="#FFFFFF" d="M-347.8,680.7c-0.7,0.1-1,0.4-0.8,0.7c0.2-0.1,0.5,0,0.7,0.2C-347.6,681.3-347.6,681-347.8,680.7z"/>
<path fill="#FFFFFF" d="M-338.6,674.3c-1-0.9-1.4-0.5-1.2,1C-339.3,675.3-338.9,674.9-338.6,674.3z"/>
<path fill="#FFFFFF" d="M-330.3,681.3c-0.7-0.2-1-0.2-0.9,0C-330.7,682.6-330.4,682.6-330.3,681.3z"/>
<path fill="#FFFFFF" d="M-339.1,676.7c-0.7,0.9-1,1.9-0.7,3c0-0.4,0.2-0.6,0.7-0.4c0.3,0.4,0.5,0.9,0.7,1.5
	C-338.5,679.3-338.6,677.9-339.1,676.7z"/>
<path fill="#FFFFFF" d="M-321.5,681.9c-1.6-0.2-1.9,0.5-1,2.2C-321.6,684.1-321.4,683.3-321.5,681.9z"/>
</svg>
