<?xml version="1.0" encoding="utf-8"?>
<!-- Generator: Adobe Illustrator 19.1.0, SVG Export Plug-In . SVG Version: 6.00 Build 0)  -->
<svg version="1.1" id="Ebene_1" xmlns="http://www.w3.org/2000/svg" xmlns:xlink="http://www.w3.org/1999/xlink" x="0px" y="0px"
	 viewBox="-342.1 370.4 268.2 422.8" enable-background="new -342.1 370.4 268.2 422.8" xml:space="preserve">
<path fill="#FFFFFF" d="M-94.7,482.4c-11-24-26.4-46-45.7-65.2c-32.8-32.7-65.2-45.9-66.6-46.4l-1-0.4l0,0l0,0l-1,0.4
	c-1.4,0.5-33.7,13.8-66.6,46.4c-19.3,19.2-34.7,41.1-45.7,65.2c-13.8,30-20.8,63.5-20.8,99.4c0,35.9,7,69.4,20.8,99.4
	c11,24,26.4,46,45.7,65.2c32.8,32.7,65.2,45.9,66.6,46.4l1,0.4l1-0.4c1.4-0.5,33.7-13.8,66.6-46.4c19.3-19.2,34.7-41.2,45.7-65.2
	c13.8-30,20.8-63.5,20.8-99.4C-73.9,545.9-80.9,512.4-94.7,482.4z"/>
<path d="M-207.9,373.4c-0.2,0.1-131.3,52.9-131.3,208.4c0,155.6,131,208.3,131.3,208.4c0.2-0.1,131.3-52.9,131.3-208.4
	C-76.7,426.2-207.7,373.5-207.9,373.4z"/>
<path fill="#FFFFFF" d="M-207.9,396.4c-0.2,0.1-127.1,44.9-127.1,185.4s126.9,185.3,127.1,185.4c0.2-0.1,127.1-44.9,127.1-185.4
	S-207.7,396.5-207.9,396.4z"/>
<path fill="#EB6A0A" d="M-217.5,577.9c-24.8-13.4-42-40-45.2-70.3c-3.2-30,6.5-56.5,29.5-80.9c-72.9,41.1-53.6,95.1-44.2,112.2
	C-264.5,562.2-241.8,576.9-217.5,577.9z"/>
<path d="M-207.9,659.8c-38.5,0-74.3-5.6-103.9-15.1c28.2,78.9,103.8,99.4,103.9,99.4c0,0,75.6-20.5,103.9-99.4
	C-133.7,654.2-169.4,659.8-207.9,659.8z"/>
<path fill="#EB6A0A" d="M-115,496.1c-1.1,50.4-42.3,90.9-92.9,90.9s-91.8-40.5-92.9-90.9c-11.4,22.1-21.4,49.8-21.4,84.6
	c0,2,0,4,0.1,6c31.4,11.7,71.1,18.7,114.2,18.7s82.8-7,114.2-18.7c0.1-2,0.1-4,0.1-6C-93.6,545.9-103.6,518.1-115,496.1z"/>
<path fill="#EB6A0A" d="M-194.7,484.2c-3.3-8.1-7.8-15.5-13.2-22c-5.4,6.5-9.9,13.9-13.2,22c-6.2,15.2-8.2,32-5.8,48.6
	c2.4,16.3,9,31.2,18.9,43.2c0,0,0-0.1,0.1-0.1c0,0,0,0.1,0.1,0.1c10-11.9,16.5-26.9,18.9-43.2C-186.5,516.2-188.5,499.4-194.7,484.2
	z"/>
<path fill="#EB6A0A" d="M-198.4,577.9c24.8-13.4,42-40,45.2-70.3c3.2-30-6.5-56.5-29.5-80.9c72.9,41.1,53.6,95.1,44.2,112.2
	C-151.4,562.2-174.1,576.9-198.4,577.9z"/>
<path d="M-207.9,421.3c-33.8,18.1-47.9,52.6-47.9,78.4c0,29.6,13.7,56.6,35.9,71.4c-16.4-26.3-19.1-60.5-7.1-89.9
	c3.6-8.9,8.5-17,14.4-24l4.6-5l4.6,5c5.9,7.1,10.8,15.2,14.4,24c12.1,29.4,9.3,63.6-7.1,89.9c22.3-14.7,35.9-41.8,35.9-71.4
	C-160.1,473.8-174.2,439.4-207.9,421.3z"/>
<path d="M-228.3,649.7c0,0-1.5-2.7-2.1-4.3c0,0.1-14.1-33.7-14.1-33.8c-0.4-1-2.6-1.2-3.3-1.3c-1.5-0.1-2.4,0.1-2.5,0.7
	c0,0-11.8,35.2-11.8,35.1c-0.1,0.5-0.1,0.9,0.1,1.3c0.1,0.2,0.4,0.5,0.9,0.6c1.4,0.2,2.8,0.4,4.2,0.6c0.7,0.1,1.2-0.2,1.4-0.9
	l2.5-9.4c0-0.1,0.1-0.1,0.2-0.1c3.8,0.4,7.6,0.8,11.4,1.2c0.1,0,0.2,0.1,0.2,0.1l0,0l0,0c0.7,1.9,1.4,3.7,2.2,5.6l1.6,4.4
	c0.3,0.8,0.9,1.2,1.6,1.3c2.2,0.2,4.3,0.3,6.5,0.4c0.5,0,0.8-0.1,1-0.4C-228.1,650.6-228,650.2-228.3,649.7z M-251.8,634.5
	c1.3-4.3,2.6-8.6,3.9-12.9c1,2.5,5.1,12.7,5.5,13.9C-245.5,635.2-248.7,634.9-251.8,634.5z"/>
<path d="M-130.2,642.6c0,0-1.2-2.4-1.6-3.8c0,0.1-10.4-30.5-10.4-30.6c-0.3-0.9-2.5-0.6-3.2-0.5c-1.5,0.3-2.4,0.7-2.6,1.4
	c0,0-16,38.7-16,38.6c-0.2,0.5-0.2,0.9,0,1.2c0.1,0.2,0.4,0.4,0.9,0.3c1.4-0.2,2.8-0.3,4.2-0.5c0.7-0.1,1.2-0.5,1.5-1.2l3.6-10.2
	c0-0.1,0.1-0.1,0.2-0.2c3.8-0.5,7.6-1.1,11.4-1.7c0.1,0,0.2,0,0.2,0l0,0l0,0c0.5,1.7,1,3.4,1.6,5.1l1.1,4.1c0.2,0.7,0.7,1,1.5,0.8
	c2.2-0.4,4.3-0.8,6.5-1.2c0.5-0.1,0.8-0.3,1-0.7C-130.1,643.5-130,643.1-130.2,642.6z M-152.4,633.3c1.8-4.7,3.6-9.4,5.4-14.1
	c0.7,2.3,3.7,11.6,4,12.7C-146.1,632.4-149.3,632.9-152.4,633.3z"/>
<path d="M-206.2,631.6c4-5.7,8.1-11.5,12.2-17.3c0.3-0.4,0.4-0.9,0.2-1.3c-0.2-0.3-0.5-0.5-0.9-0.5c-1.5,0-2.9,0.1-4.4,0.1
	c-0.7,0-1.1,0.1-1.5,0.8c0,0-7.4,11.2-8.7,13.2c-2.7-4.3-5.4-8.6-8.1-13l0,0c-0.3-0.7-1-1.1-1.8-1.1c-2.2-0.1-4.4-0.2-6.7-0.3
	c-0.5,0-0.8,0.1-1,0.4c-0.2,0.3-0.1,0.7,0.2,1.1c0,0.1,11.4,17.7,12.4,19.1c-3.9,5.6-7.7,11.2-11.4,16.7c-0.3,0.4-0.3,0.9-0.2,1.2
	c0.2,0.3,0.5,0.5,0.9,0.6c1.4,0.1,2.7,0.1,4.1,0.2c0.7,0,1.1-0.1,1.5-0.7c0,0,7-10.9,8.3-12.9c2.7,4.3,5.4,8.6,8.1,12.8
	c0,0,0,0,0-0.1c0.3,0.7,0.9,1.1,1.7,1c2,0,4-0.1,6-0.1c0.5,0,0.8-0.2,1-0.5c0.2-0.3,0.1-0.7-0.1-1.1
	C-198.3,643.9-202.3,637.8-206.2,631.6z"/>
<path d="M-158.6,611.1c0.1-0.3,0-0.6-0.2-0.8c-0.2-0.3-0.7-0.4-1.3-0.3c-9.4,1.1-18.8,1.8-28.1,2.2c-0.6,0-1.1,0.2-1.3,0.5
	c-0.2,0.2-0.3,0.5-0.2,0.8l0.1,2.8c0,0.4,0.2,0.7,0.4,0.9c0.3,0.2,0.7,0.2,1,0.2c0.1,0,6.4-1.1,9.5-1.3c0.1,0,0.3,0.2,0.3,0.6
	l-0.4,14.6l-0.6,18.3c0,0.8,0.4,1.3,1.3,1.2c1.8-0.1,3.5-0.3,5.3-0.4c0.8-0.1,1.3-0.6,1.4-1.4l0.7-18.3l0.7-14.7
	c0-0.4,0.3-0.6,0.4-0.6c3.1-0.3,9.4-0.2,9.5-0.2c0.3,0,0.7,0,1-0.3c0.2-0.2,0.4-0.5,0.5-0.9C-159,613.9-158.6,611.1-158.6,611.1z"/>
<path d="M-108.5,601c-4.6,1.1-9.2,2.1-13.8,3c-0.9,0.2-1.4,0.8-1.5,1.6l-1.6,18.3l-1.7,18.3c-0.1,0.8,0.4,1.2,1.2,1
	c1.8-0.4,3.6-0.8,5.4-1.2c0.8-0.2,1.4-0.8,1.5-1.6l1.4-14.4c0-0.2,0.4-0.6,0.7-0.7c1.1-0.3,2.2-0.5,3.4-0.8
	c9.8-2.3,16.4-8.5,17.3-15.8C-95.3,600.6-102,599.5-108.5,601z M-116,621.7c-0.2,0.1-0.5,0.1-0.7,0.2c-0.3,0.1-0.6-0.2-0.6-0.4
	c0.5-4.8,1-9.5,1.4-14.3c0-0.5,0.6-1,1.1-1.1c0.3-0.1,0.6-0.1,1-0.2c6.8-1.5,9.4-0.1,8.8,5.1C-105.6,616.7-109,620.2-116,621.7z"/>
<path d="M-268.7,609.4c-0.1-0.8-0.6-1.4-1.5-1.5c-1.9-0.3-3.7-0.6-5.6-0.9c-0.9-0.1-1.3,0.3-1.3,1.1l2.5,32.6c0,0.5-0.4,0.9-0.9,0.8
	c-1.4-0.3-2.9-0.5-4.3-0.8c-1.8-0.3-4.7-1.3-6.8-2.1c-1-10.9-2-21.9-3-32.8c0-0.4-0.2-0.8-0.5-1c-0.3-0.3-0.6-0.5-1-0.5
	c-1.9-0.4-3.7-0.8-5.6-1.2c-0.4-0.1-0.8,0-1,0.1c-0.2,0.2-0.3,0.5-0.3,0.9c1.1,10.9,2.2,21.9,3.3,32.8c-2-0.1-4.9-0.4-6.6-0.8
	c-1.4-0.3-2.9-0.7-4.3-1.1c-0.5-0.1-1-0.7-1.1-1.2l-3.7-32.6c-0.1-0.8-0.7-1.4-1.5-1.7c-1.9-0.5-3.8-0.9-5.7-1.4
	c-0.9-0.2-1.3,0.1-1.2,0.9l4.5,36.7c0.1,0.8,0.7,1.5,1.5,1.7c15.1,4.1,30.2,7.3,45.2,9.7c0.8,0.1,1.3-0.3,1.2-1.1
	C-266.2,645.9-268.7,609.4-268.7,609.4z"/>
<path fill="#FFFFFF" d="M-225.5,686.8v-6.2v-6.3c0-0.4-0.2-0.6-0.6-0.6h-2.2c-0.5,0-0.6,0.3-0.6,0.6v6.3v6.2c0,0.4,0.2,0.6,0.6,0.6
	h2.2C-225.8,687.4-225.5,687.1-225.5,686.8z"/>
<path fill="#FFFFFF" d="M-217.6,673.5c-3.2,0-5.4,1.7-5.4,4.3c0,2.2,1.5,4.4,4.8,4.4c1.6,0,2.1-0.3,2.8-0.6c0.1,0,0.1-0.1,0.2-0.1
	c-0.1,2.4-2.2,4.5-5,4.8l0,0c-0.3,0-0.5,0.2-0.5,0.5l0,0l0.1,0.5l0,0c0.1,0.2,0.2,0.4,0.4,0.4h0.4c4.8-0.1,8-3.2,8-7.7
	C-211.8,678-212.4,673.5-217.6,673.5z M-217.4,680.5c-1.8,0-2.4-1.5-2.4-2.9c0-2.2,1-2.5,1.8-2.5c2.5,0,2.8,2.7,2.8,3.9
	C-215.2,679.9-216.1,680.5-217.4,680.5z"/>
<path fill="#FFFFFF" d="M-202.9,679.3c1-0.9,1.5-1.9,1.5-3c0-2-1.6-3-4.5-3c-1.6,0-2.8,0.2-4,0.8c0,0,0,0-0.1,0l0,0
	c-0.1,0.1-0.3,0.2-0.2,0.5l0.3,0.6c0,0.1,0.1,0.2,0.3,0.2c0.1,0.1,0.3,0,0.4,0c0.6-0.3,1.2-0.5,2.3-0.5c0.7,0,1.9,0.2,1.9,1.5
	c0,1.5-1.1,2.7-2.9,2.9l0,0c-0.2,0.1-0.3,0.2-0.3,0.5v0.1c0,0.2,0,0.6,0.4,0.6c0.1,0,0.9,0,1.3,0c0.8,0,1.5,0.3,2.1,0.8
	c0.5,0.5,0.7,1.1,0.7,1.8c0,2.1-1.2,3.1-3.8,3.1h-0.3c-0.4,0-0.8,0-1.2-0.1c-0.1,0-0.2,0-0.3,0.1c-0.1,0.1-0.2,0.1-0.2,0.3l-0.1,0.5
	l0,0c0,0.4,0.2,0.5,0.3,0.5c0.7,0.2,3.4,0.3,3.7,0.3c2.5,0,5.4-1.2,5.4-4.6C-200.2,681.4-201.2,680-202.9,679.3z"/>
<path fill="#FFFFFF" d="M-191.8,678.9c-1.6,0-2.2,0.3-2.8,0.6l-0.2,0.1c0-2.3,1.7-4.7,4.1-4.7c0.1,0,0.2,0,0.3,0c0.4,0,0.7,0,0.8,0
	l0,0c0.3-0.1,0.4-0.3,0.4-0.4l0,0l0.1-0.5l0,0c0-0.4-0.3-0.5-0.4-0.5c-0.5-0.1-1-0.1-1.5-0.1h-0.2c-4.5,0-6.9,3.9-6.9,7.7
	c0,1.9,0.6,6.5,5.8,6.5c3.3,0,5.4-1.7,5.4-4.3C-187,680.6-188.9,678.9-191.8,678.9z M-192,686c-2.5,0-2.8-2.7-2.8-3.9
	c0-0.9,0.9-1.5,2.2-1.5c2,0,2.3,1.8,2.3,2.9C-190.3,685.7-191.1,686-192,686z"/>
<path fill="#FFFFFF" d="M-194.4,704.6c0.7-0.7,1.2-1.2,1.2-1.2c0.3-0.3,0.3-0.7,0-1.1l-2.3-2.3c-0.4-0.4-0.8-0.4-1.1,0
	c0,0-0.5,0.5-1.2,1.2l-4.1-4.1c-0.3-0.2-0.5-0.4-0.7-0.4c-0.2,0-0.3,0.1-0.4,0.2l-3.1,3.2c-0.1,0.2-0.2,0.4-0.2,0.5
	c0,0.2,0.2,0.4,0.3,0.5c0,0,3,2.3,4.2,3.6c0,0,0,0.2-0.1,0.4c0,0-4.8,4.9-6.2,6.2c-1.3-1.3-6.2-6.2-6.2-6.2
	c-0.2-0.1-0.1-0.3-0.1-0.4c1.3-1.3,4.2-3.6,4.2-3.6c0.1-0.1,0.3-0.3,0.3-0.5s0-0.3-0.2-0.5c0,0-3.1-3.3-3.1-3.2
	c-0.1-0.1-0.3-0.2-0.4-0.2c-0.2,0-0.5,0.1-0.7,0.4l-4.1,4.1c-0.7-0.7-1.2-1.2-1.2-1.2c-0.3-0.3-0.7-0.3-1.1,0l-2.3,2.3
	c-0.4,0.4-0.4,0.8,0,1.1c0,0,0.5,0.5,1.2,1.2l-4.1,4.1c-0.2,0.3-0.4,0.5-0.4,0.7s0.1,0.3,0.2,0.4l3.2,3.1c0.2,0.2,0.4,0.2,0.5,0.2
	c0.2,0,0.4-0.2,0.5-0.3c0,0,2.3-3,3.6-4.2c0,0,0.2,0,0.4,0.1c0,0,4.9,4.8,6.2,6.2c-4.6,4.5-10.2,10.2-10.2,10.2
	c-0.3,0.3-0.3,0.7,0,1.1l2.3,2.3c0.4,0.4,0.8,0.4,1.1,0c0,0,5.6-5.7,10.2-10.2c4.5,4.6,10.2,10.2,10.2,10.2c0.3,0.3,0.7,0.3,1.1,0
	l2.3-2.3c0.4-0.4,0.4-0.8,0-1.1c0,0-5.7-5.7-10.2-10.2c1.3-1.3,6.2-6.2,6.2-6.2c0.1-0.1,0.3-0.1,0.4-0.1c1.3,1.3,7.3,5.2,8.1,4.4
	C-189.1,712.1-194.4,704.6-194.4,704.6z"/>
</svg>
