<?xml version="1.0" encoding="utf-8"?>
<!-- Generator: Adobe Illustrator 19.1.0, SVG Export Plug-In . SVG Version: 6.00 Build 0)  -->
<svg version="1.1" id="Ebene_1" xmlns="http://www.w3.org/2000/svg" xmlns:xlink="http://www.w3.org/1999/xlink" x="0px" y="0px"
	 viewBox="-171 185.2 268.1 422.8" style="enable-background:new -171 185.2 268.1 422.8;" xml:space="preserve">
<style type="text/css">
	.st0{fill:#FFFFFF;}
	.st1{fill:#EB6A0A;}
</style>
<path class="st0" d="M76.3,297.2c-11-24-26.4-46-45.7-65.2c-32.8-32.7-65.2-45.9-66.6-46.4l-1-0.4l0,0l0,0l-1,0.4
	c-1.4,0.5-33.7,13.8-66.6,46.4c-19.3,19.2-34.7,41.1-45.7,65.2c-13.8,30-20.8,63.5-20.8,99.4c0,35.9,7,69.4,20.8,99.4
	c11,24,26.4,46,45.7,65.2c32.8,32.7,65.2,45.9,66.6,46.4l1,0.4l1-0.4c1.4-0.5,33.7-13.8,66.6-46.4C49.9,542,65.3,520,76.3,496
	c13.8-30,20.8-63.5,20.8-99.4C97.1,360.7,90.1,327.2,76.3,297.2z"/>
<path d="M-36.9,188.2c-0.2,0.1-131.3,52.9-131.3,208.4c0,155.6,131,208.3,131.3,208.4c0.2-0.1,131.3-52.9,131.3-208.4
	C94.3,241-36.7,188.3-36.9,188.2z"/>
<path class="st0" d="M-36.9,211.2c-0.2,0.1-127.1,44.9-127.1,185.4c0,140.5,126.9,185.3,127.1,185.4c0.2-0.1,127.1-44.9,127.1-185.4
	C90.2,256.1-36.7,211.3-36.9,211.2z"/>
<path class="st1" d="M-46.5,392.7c-24.8-13.4-42-40-45.2-70.3c-3.2-30,6.5-56.5,29.5-80.9c-72.9,41.1-53.6,95.1-44.2,112.2
	C-93.5,377-70.8,391.7-46.5,392.7z"/>
<path d="M-36.9,474.6c-38.5,0-74.3-5.6-103.9-15.1c28.2,78.9,103.8,99.4,103.9,99.4c0,0,75.6-20.5,103.9-99.4
	C37.3,469,1.6,474.6-36.9,474.6z"/>
<path class="st1" d="M56,310.9c-1.1,50.4-42.3,90.9-92.9,90.9c-50.6,0-91.8-40.5-92.9-90.9c-11.4,22.1-21.4,49.8-21.4,84.6
	c0,2,0,4,0.1,6c31.4,11.7,71.1,18.7,114.2,18.7s82.8-7,114.2-18.7c0.1-2,0.1-4,0.1-6C77.4,360.7,67.4,332.9,56,310.9z"/>
<path class="st1" d="M-23.7,299c-3.3-8.1-7.8-15.5-13.2-22c-5.4,6.5-9.9,13.9-13.2,22c-6.2,15.2-8.2,32-5.8,48.6
	c2.4,16.3,9,31.2,18.9,43.2c0,0,0-0.1,0.1-0.1c0,0,0,0.1,0.1,0.1c10-11.9,16.5-26.9,18.9-43.2C-15.5,331-17.5,314.2-23.7,299z"/>
<path class="st1" d="M-27.4,392.7c24.8-13.4,42-40,45.2-70.3c3.2-30-6.5-56.5-29.5-80.9c72.9,41.1,53.6,95.1,44.2,112.2
	C19.6,377-3.1,391.7-27.4,392.7z"/>
<path d="M-36.9,236.1c-33.8,18.1-47.9,52.6-47.9,78.4c0,29.6,13.7,56.6,35.9,71.4c-16.4-26.3-19.1-60.5-7.1-89.9
	c3.6-8.9,8.5-17,14.4-24l4.6-5l4.6,5c5.9,7.1,10.8,15.2,14.4,24c12.1,29.4,9.3,63.6-7.1,89.9c22.3-14.7,35.9-41.8,35.9-71.4
	C10.9,288.6-3.2,254.2-36.9,236.1z"/>
<path d="M-57.3,464.5c0,0-1.5-2.7-2.1-4.3c0,0.1-14.1-33.7-14.1-33.8c-0.4-1-2.6-1.2-3.3-1.3c-1.5-0.1-2.4,0.1-2.5,0.7
	c0,0-11.8,35.2-11.8,35.1c-0.1,0.5-0.1,0.9,0.1,1.3c0.1,0.2,0.4,0.5,0.9,0.6c1.4,0.2,2.8,0.4,4.2,0.6c0.7,0.1,1.2-0.2,1.4-0.9
	c0,0,2.5-9.4,2.5-9.4c0-0.1,0.1-0.1,0.2-0.1c3.8,0.4,7.6,0.8,11.4,1.2c0.1,0,0.2,0.1,0.2,0.1c0,0,0,0,0,0c0,0,0,0,0,0
	c0.7,1.9,1.4,3.7,2.2,5.6c0,0,1.6,4.4,1.6,4.4c0.3,0.8,0.9,1.2,1.6,1.3c2.2,0.2,4.3,0.3,6.5,0.4c0.5,0,0.8-0.1,1-0.4
	C-57.1,465.4-57,465-57.3,464.5z M-80.8,449.3c1.3-4.3,2.6-8.6,3.9-12.9c1,2.5,5.1,12.7,5.5,13.9C-74.5,450-77.7,449.7-80.8,449.3z"
	/>
<path d="M40.8,457.4c0,0-1.2-2.4-1.6-3.8c0,0.1-10.4-30.5-10.4-30.6c-0.3-0.9-2.5-0.6-3.2-0.5c-1.5,0.3-2.4,0.7-2.6,1.4
	c0,0-16,38.7-16,38.6c-0.2,0.5-0.2,0.9,0,1.2c0.1,0.2,0.4,0.4,0.9,0.3c1.4-0.2,2.8-0.3,4.2-0.5c0.7-0.1,1.2-0.5,1.5-1.2
	c0,0,3.6-10.2,3.6-10.2c0-0.1,0.1-0.1,0.2-0.2c3.8-0.5,7.6-1.1,11.4-1.7c0.1,0,0.2,0,0.2,0c0,0,0,0,0,0c0,0,0,0,0,0
	c0.5,1.7,1,3.4,1.6,5.1c0,0,1.1,4.1,1.1,4.1c0.2,0.7,0.7,1,1.5,0.8c2.2-0.4,4.3-0.8,6.5-1.2c0.5-0.1,0.8-0.3,1-0.7
	C40.9,458.3,41,457.9,40.8,457.4z M18.6,448.1c1.8-4.7,3.6-9.4,5.4-14.1c0.7,2.3,3.7,11.6,4,12.7C24.9,447.2,21.7,447.7,18.6,448.1z
	"/>
<path d="M-35.2,446.4c4-5.7,8.1-11.5,12.2-17.3c0.3-0.4,0.4-0.9,0.2-1.3c-0.2-0.3-0.5-0.5-0.9-0.5c-1.5,0-2.9,0.1-4.4,0.1
	c-0.7,0-1.1,0.1-1.5,0.8c0,0-7.4,11.2-8.7,13.2c-2.7-4.3-5.4-8.6-8.1-13c0,0,0,0,0,0c-0.3-0.7-1-1.1-1.8-1.1
	c-2.2-0.1-4.4-0.2-6.7-0.3c-0.5,0-0.8,0.1-1,0.4c-0.2,0.3-0.1,0.7,0.2,1.1c0,0.1,11.4,17.7,12.4,19.1c-3.9,5.6-7.7,11.2-11.4,16.7
	c-0.3,0.4-0.3,0.9-0.2,1.2c0.2,0.3,0.5,0.5,0.9,0.6c1.4,0.1,2.7,0.1,4.1,0.2c0.7,0,1.1-0.1,1.5-0.7c0,0,7-10.9,8.3-12.9
	c2.7,4.3,5.4,8.6,8.1,12.8c0,0,0,0,0-0.1c0.3,0.7,0.9,1.1,1.7,1c2,0,4-0.1,6-0.1c0.5,0,0.8-0.2,1-0.5c0.2-0.3,0.1-0.7-0.1-1.1
	C-27.3,458.7-31.3,452.6-35.2,446.4z"/>
<path d="M12.4,425.9c0.1-0.3,0-0.6-0.2-0.8c-0.2-0.3-0.7-0.4-1.3-0.3c-9.4,1.1-18.8,1.8-28.1,2.2c-0.6,0-1.1,0.2-1.3,0.5
	c-0.2,0.2-0.3,0.5-0.2,0.8c0,0,0.1,2.8,0.1,2.8c0,0.4,0.2,0.7,0.4,0.9c0.3,0.2,0.7,0.2,1,0.2c0.1,0,6.4-1.1,9.5-1.3
	c0.1,0,0.3,0.2,0.3,0.6c0,0-0.4,14.6-0.4,14.6c0,0-0.6,18.3-0.6,18.3c0,0.8,0.4,1.3,1.3,1.2c1.8-0.1,3.5-0.3,5.3-0.4
	c0.8-0.1,1.3-0.6,1.4-1.4c0,0,0.7-18.3,0.7-18.3c0,0,0.7-14.7,0.7-14.7c0-0.4,0.3-0.6,0.4-0.6c3.1-0.3,9.4-0.2,9.5-0.2
	c0.3,0,0.7,0,1-0.3c0.2-0.2,0.4-0.5,0.5-0.9C12,428.7,12.4,425.9,12.4,425.9z"/>
<path d="M62.5,415.8c-4.6,1.1-9.2,2.1-13.8,3c-0.9,0.2-1.4,0.8-1.5,1.6c0,0-1.6,18.3-1.6,18.3c0,0-1.7,18.3-1.7,18.3
	c-0.1,0.8,0.4,1.2,1.2,1c1.8-0.4,3.6-0.8,5.4-1.2c0.8-0.2,1.4-0.8,1.5-1.6c0,0,1.4-14.4,1.4-14.4c0-0.2,0.4-0.6,0.7-0.7
	c1.1-0.3,2.2-0.5,3.4-0.8c9.8-2.3,16.4-8.5,17.3-15.8C75.7,415.4,69,414.3,62.5,415.8z M55,436.5c-0.2,0.1-0.5,0.1-0.7,0.2
	c-0.3,0.1-0.6-0.2-0.6-0.4c0.5-4.8,1-9.5,1.4-14.3c0-0.5,0.6-1,1.1-1.1c0.3-0.1,0.6-0.1,1-0.2c6.8-1.5,9.4-0.1,8.8,5.1
	C65.4,431.5,62,435,55,436.5z"/>
<path d="M-97.7,424.2c-0.1-0.8-0.6-1.4-1.5-1.5c-1.9-0.3-3.7-0.6-5.6-0.9c-0.9-0.1-1.3,0.3-1.3,1.1c0,0,2.5,32.6,2.5,32.6
	c0,0.5-0.4,0.9-0.9,0.8c-1.4-0.3-2.9-0.5-4.3-0.8c-1.8-0.3-4.7-1.3-6.8-2.1c-1-10.9-2-21.9-3-32.8c0-0.4-0.2-0.8-0.5-1
	c-0.3-0.3-0.6-0.5-1-0.5c-1.9-0.4-3.7-0.8-5.6-1.2c-0.4-0.1-0.8,0-1,0.1c-0.2,0.2-0.3,0.5-0.3,0.9c1.1,10.9,2.2,21.9,3.3,32.8
	c-2-0.1-4.9-0.4-6.6-0.8c-1.4-0.3-2.9-0.7-4.3-1.1c-0.5-0.1-1-0.7-1.1-1.2c0,0-3.7-32.6-3.7-32.6c-0.1-0.8-0.7-1.4-1.5-1.7
	c-1.9-0.5-3.8-0.9-5.7-1.4c-0.9-0.2-1.3,0.1-1.2,0.9c0,0,4.5,36.7,4.5,36.7c0.1,0.8,0.7,1.5,1.5,1.7c15.1,4.1,30.2,7.3,45.2,9.7
	c0.8,0.1,1.3-0.3,1.2-1.1C-95.2,460.7-97.7,424.2-97.7,424.2z"/>
<path class="st0" d="M-54.5,501.6l0-6.2c0,0,0-6.3,0-6.3c0-0.4-0.2-0.6-0.6-0.6h-2.2c-0.5,0-0.6,0.3-0.6,0.6l0,6.3c0,0,0,6.2,0,6.2
	c0,0.4,0.2,0.6,0.6,0.6h2.2C-54.8,502.2-54.5,501.9-54.5,501.6z"/>
<path class="st0" d="M-46.6,488.3c-3.2,0-5.4,1.7-5.4,4.3c0,2.2,1.5,4.4,4.8,4.4c1.6,0,2.1-0.3,2.8-0.6c0.1,0,0.1-0.1,0.2-0.1
	c-0.1,2.4-2.2,4.5-5,4.8c0,0,0,0,0,0c-0.3,0-0.5,0.2-0.5,0.5c0,0,0,0,0,0l0.1,0.5c0,0,0,0,0,0c0.1,0.2,0.2,0.4,0.4,0.4h0.4
	c4.8-0.1,8-3.2,8-7.7C-40.8,492.8-41.4,488.3-46.6,488.3z M-46.4,495.3c-1.8,0-2.4-1.5-2.4-2.9c0-2.2,1-2.5,1.8-2.5
	c2.5,0,2.8,2.7,2.8,3.9C-44.2,494.7-45.1,495.3-46.4,495.3z"/>
<path class="st0" d="M-31.9,494.1c1-0.9,1.5-1.9,1.5-3c0-2-1.6-3-4.5-3c-1.6,0-2.8,0.2-4,0.8c0,0,0,0-0.1,0c0,0,0,0,0,0
	c-0.1,0.1-0.3,0.2-0.2,0.5c0,0,0.3,0.6,0.3,0.6c0,0.1,0.1,0.2,0.3,0.2c0.1,0.1,0.3,0,0.4,0c0.6-0.3,1.2-0.5,2.3-0.5
	c0.7,0,1.9,0.2,1.9,1.5c0,1.5-1.1,2.7-2.9,2.9c0,0,0,0,0,0c-0.2,0.1-0.3,0.2-0.3,0.5v0.1c0,0.2,0,0.6,0.4,0.6c0.1,0,0.9,0,1.3,0
	c0.8,0,1.5,0.3,2.1,0.8c0.5,0.5,0.7,1.1,0.7,1.8c0,2.1-1.2,3.1-3.8,3.1l-0.3,0c-0.4,0-0.8,0-1.2-0.1c-0.1,0-0.2,0-0.3,0.1
	c-0.1,0.1-0.2,0.1-0.2,0.3c0,0-0.1,0.5-0.1,0.5c0,0,0,0,0,0c0,0.4,0.2,0.5,0.3,0.5c0.7,0.2,3.4,0.3,3.7,0.3c2.5,0,5.4-1.2,5.4-4.6
	C-29.2,496.2-30.2,494.8-31.9,494.1z"/>
<path class="st0" d="M-20.8,493.7c-1.6,0-2.2,0.3-2.8,0.6l-0.2,0.1c0-2.3,1.7-4.7,4.1-4.7c0.1,0,0.2,0,0.3,0c0.4,0,0.7,0,0.8,0
	c0,0,0,0,0,0c0.3-0.1,0.4-0.3,0.4-0.4c0,0,0,0,0,0l0.1-0.5c0,0,0,0,0,0c0-0.4-0.3-0.5-0.4-0.5c-0.5-0.1-1-0.1-1.5-0.1l-0.2,0
	c-4.5,0-6.9,3.9-6.9,7.7c0,1.9,0.6,6.5,5.8,6.5c3.3,0,5.4-1.7,5.4-4.3C-16,495.4-17.9,493.7-20.8,493.7z M-21,500.8
	c-2.5,0-2.8-2.7-2.8-3.9c0-0.9,0.9-1.5,2.2-1.5c2,0,2.3,1.8,2.3,2.9C-19.3,500.5-20.1,500.8-21,500.8z"/>
<path class="st0" d="M-23.4,519.4c0.7-0.7,1.2-1.2,1.2-1.2c0.3-0.3,0.3-0.7,0-1.1l-2.3-2.3c-0.4-0.4-0.8-0.4-1.1,0
	c0,0-0.5,0.5-1.2,1.2l-4.1-4.1c-0.3-0.2-0.5-0.4-0.7-0.4c-0.2,0-0.3,0.1-0.4,0.2c0,0-3.1,3.2-3.1,3.2c-0.1,0.2-0.2,0.4-0.2,0.5
	c0,0.2,0.2,0.4,0.3,0.5c0,0,3,2.3,4.2,3.6c0,0,0,0.2-0.1,0.4c0,0-4.8,4.9-6.2,6.2c-1.3-1.3-6.2-6.2-6.2-6.2
	c-0.2-0.1-0.1-0.3-0.1-0.4c1.3-1.3,4.2-3.6,4.2-3.6c0.1-0.1,0.3-0.3,0.3-0.5c0-0.2,0-0.3-0.2-0.5c0,0-3.1-3.3-3.1-3.2
	c-0.1-0.1-0.3-0.2-0.4-0.2c-0.2,0-0.5,0.1-0.7,0.4l-4.1,4.1c-0.7-0.7-1.2-1.2-1.2-1.2c-0.3-0.3-0.7-0.3-1.1,0l-2.3,2.3
	c-0.4,0.4-0.4,0.8,0,1.1c0,0,0.5,0.5,1.2,1.2l-4.1,4.1c-0.2,0.3-0.4,0.5-0.4,0.7c0,0.2,0.1,0.3,0.2,0.4c0,0,3.2,3.1,3.2,3.1
	c0.2,0.2,0.4,0.2,0.5,0.2c0.2,0,0.4-0.2,0.5-0.3c0,0,2.3-3,3.6-4.2c0,0,0.2,0,0.4,0.1c0,0,4.9,4.8,6.2,6.2
	c-4.6,4.5-10.2,10.2-10.2,10.2c-0.3,0.3-0.3,0.7,0,1.1l2.3,2.3c0.4,0.4,0.8,0.4,1.1,0c0,0,5.6-5.7,10.2-10.2
	c4.5,4.6,10.2,10.2,10.2,10.2c0.3,0.3,0.7,0.3,1.1,0l2.3-2.3c0.4-0.4,0.4-0.8,0-1.1c0,0-5.7-5.7-10.2-10.2c1.3-1.3,6.2-6.2,6.2-6.2
	c0.1-0.1,0.3-0.1,0.4-0.1c1.3,1.3,7.3,5.2,8.1,4.4C-18.1,526.9-23.4,519.4-23.4,519.4z"/>
</svg>
