<?xml version="1.0" encoding="utf-8"?>
<!-- Generator: Adobe Illustrator 19.1.0, SVG Export Plug-In . SVG Version: 6.00 Build 0)  -->
<svg version="1.1" id="Layer_1" xmlns="http://www.w3.org/2000/svg" xmlns:xlink="http://www.w3.org/1999/xlink" x="0px" y="0px"
	 viewBox="-464.1 580.7 146.1 212.6" enable-background="new -464.1 580.7 146.1 212.6" xml:space="preserve">
<path fill="#F0C560" d="M-463.3,647.4c-5.4,86.5,52.6,135,72.3,145.4c19.7-10.4,77.7-58.9,72.3-145.4H-463.3z"/>
<path fill="#4485C6" d="M-319.1,675.5c0.9-8.8,1.1-18.2,0.5-28h-144.6c-0.6,9.8-0.4,19.2,0.5,28H-319.1z"/>
<path d="M-318.7,647.1h-145v0.3c-1.3,20.1,0.9,39.6,6.3,57.9c4.6,15.4,11.5,30.1,20.5,43.6c15.5,23,34.3,38.3,45.7,44.3l0.2,0.1
	l0.2-0.1c11.4-6,30.2-21.3,45.7-44.3c9.1-13.5,16-28.2,20.5-43.6c5.4-18.3,7.5-37.8,6.3-57.9v-0.3H-318.7L-318.7,647.1z M-319,647.8
	c0.2,3.6,0.3,7.2,0.3,10.8c0,16.1-2.2,31.7-6.6,46.5c-4.5,15.4-11.4,30-20.4,43.4c-7.3,10.8-15.7,20.6-25.1,29.2
	c-9.8,8.9-17.2,13.3-20.1,14.8c-2.9-1.6-10.3-6-20.1-14.8c-9.4-8.5-17.9-18.3-25.1-29.2c-9-13.4-15.9-28-20.4-43.4
	c-4.4-14.8-6.6-30.4-6.6-46.5c0-3.6,0.1-7.2,0.3-10.8C-462.2,647.8-319.7,647.8-319,647.8z"/>
<path fill="#FFFFFF" d="M-454.3,655.6h2.1l2.5,10.6l0,0l2.5-10.6h1.9l-3.3,13.5h-2.4L-454.3,655.6z"/>
<path fill="#FFFFFF" d="M-438.3,665.9h-3.9l-0.8,3.1h-2l3.8-13.5h2.2l3.8,13.5h-2.2L-438.3,665.9l-0.5-2.1l-1.4-5.6l0,0l-1.4,5.6
	h2.8"/>
<path fill="#FFFFFF" d="M-434,655.6h1.9v11.3h3.8v2.1h-5.7C-434,669-434,655.6-434,655.6z"/>
<path fill="#FFFFFF" d="M-427.1,655.6h5.7v2.1h-3.8v3.3h3.5v2.1h-3.5v3.8h3.8v2.1h-5.8L-427.1,655.6L-427.1,655.6z"/>
<path fill="#FFFFFF" d="M-419.5,655.6h2.4l3.7,10.1l0,0v-10.1h1.9v13.5h-2.4l-3.7-10.1l0,0v10.1h-1.9V655.6z"/>
<path fill="#FFFFFF" d="M-402.3,668.8c-0.7,0.2-1.5,0.4-2.2,0.4c-3.1,0-5.3-2.2-5.3-6.7c0-4.6,2-7.2,5.3-7.2c0.6,0,1.5,0.2,2.2,0.6
	l-0.1,2.3c-0.7-0.6-1.4-0.7-2.1-0.7c-2,0-3.3,2.1-3.3,4.9c0,2.7,1.2,4.8,3.3,4.8c0.8,0,1.7-0.2,2.1-0.6L-402.3,668.8z"/>
<path fill="#FFFFFF" d="M-401,655.6h1.9v13.5h-1.9V655.6z"/>
<path fill="#FFFFFF" d="M-376,668.8c-0.7,0.2-1.5,0.4-2.2,0.4c-3.1,0-5.3-2.2-5.3-6.7c0-4.6,2-7.2,5.3-7.2c0.6,0,1.5,0.2,2.2,0.6
	l-0.1,2.3c-0.7-0.6-1.4-0.7-2.1-0.7c-2,0-3.3,2.1-3.3,4.9c0,2.7,1.2,4.8,3.3,4.8c0.8,0,1.7-0.2,2.1-0.6L-376,668.8z"/>
<path fill="#FFFFFF" d="M-374.7,666.3h1.9v2.7h-1.9V666.3z"/>
<path fill="#FFFFFF" d="M-365.5,664c0,1.4,0.3,3.2,1.6,3.2c1.2,0,1.6-1.8,1.6-3.2s-0.5-3.2-1.7-3.2
	C-365.2,660.9-365.5,662.7-365.5,664h-1.9c0-2.7,0.8-5.2,3-5.2c0.9,0,1.6,0.4,2.1,1.4l0,0v-5.7h1.9V669h-1.8v-1.1l0,0
	c-0.6,1-1.3,1.3-2.2,1.3c-2.2,0-3-2.5-3-5.2"/>
<path fill="#FFFFFF" d="M-354,663.1c-0.1-1.3-0.5-2.3-1.5-2.3s-1.6,1-1.7,2.3H-354l1.8,1.8h-4.9c0.1,1.6,0.9,2.5,2,2.5
	c0.9,0,1.7-0.5,2.4-1v2.1c-0.7,0.5-1.5,0.8-2.5,0.8c-2.4,0-3.7-1.9-3.7-5.1c0-2.9,1.1-5.2,3.3-5.2c2.7,0,3.4,2.5,3.4,6"/>
<path fill="#FFFFFF" d="M-346.8,655.6h5.4v2.1h-3.4v3.3h3.3v2.1h-3.3v5.9h-1.9v-13.4H-346.8z"/>
<path fill="#FFFFFF" d="M-340,666.3h1.9v2.7h-1.9V666.3z"/>
<path fill="#FFFFFF" d="M-391.2,665.9h-3.9l-0.8,3.1h-2l3.8-13.5h2.2l3.8,13.5h-2.2L-391.2,665.9l-0.5-2.1l-1.4-5.6l0,0l-1.4,5.6
	h2.8"/>
<path d="M-320.4,685.5c-3-27-12.1-45.4-22.3-38.8c-1.4-12.7-14.5-14.7-22.9-5.7c-0.2-8.2-7-16.1-15.9-13.8c-0.7,1.8-2.7,5.2-3.6,6.1
	c0.7,1.8,2.7,10,3.6,11.6c2.7-1.4,3.4-1.6,8.6,3.4H-384l-2.7-8.2c-0.9-1.8-1.4-1.1-2,0l-2.3,4.8l-2.3-4.8c-0.7-1.1-1.1-1.8-2,0
	l-2.7,8.2h-11.1c5.2-5,5.9-4.8,8.6-3.4c0.9-1.6,2.9-9.7,3.6-11.6c-0.9-0.9-2.9-4.3-3.6-6.1c-8.8-2.3-15.6,5.7-15.9,13.8
	c-8.4-9.1-21.5-7-22.9,5.7c-10.2-6.6-19.3,11.8-22.3,38.8c-1.9-11.7-2.6-24.4-1.8-38c2.9-46.6,35.9-62.2,49.6-66.8
	c-6.7,13-4,33.9,15.9,29.2c0.3-1.1,1.9-3.6,3.5-4.7c-2.2-1-4.4-5.5-3.4-8.9c-3.8-0.5-4.4-4.6-3.9-6.7c0.5-2-0.3-5.9-1.6-7.1
	c4.3,1.5,8,5.9,8.9,8.8c0.9-0.9,2.3-1,3.4-1.1c1.1,0,2.5,0.2,3.4,1.1c0.8-3,4.6-7.4,8.9-8.8c-1.3,1.2-2.1,5-1.6,7.1
	c0.5,2-0.1,6.1-3.9,6.7c1,3.4-1.2,8-3.4,8.9c1.6,1.1,3.3,3.5,3.5,4.7c19.8,4.7,22.5-16.2,15.9-29.2c13.7,4.7,46.7,20.2,49.6,66.8
	C-317.8,661.1-318.5,673.7-320.4,685.5z"/>
<path fill="#76787A" d="M-414.2,633.4c-1.3,2.3-2.1,4.9-2.2,7.6c-8.8-11.8-18.6-37.2-5.2-53C-427,599.8-427.2,617.6-414.2,633.4z"/>
<path fill="#76787A" d="M-367.8,633.4c1.3,2.3,2.1,4.9,2.2,7.6c8.8-11.8,18.6-37.2,5.2-53C-354.9,599.8-354.8,617.6-367.8,633.4z"/>
<path fill="#76787A" d="M-345.7,639.2c1.6,1.8,2.6,4.3,3,7.5c4.5-7.9,10.2-35.6-12-56.7C-348.6,600.9-337.1,616.5-345.7,639.2z"/>
<path fill="#76787A" d="M-320.4,685.5c1.9-11.7,2.6-24.4,1.8-38c-2.9-46.6-35.9-62.2-49.6-66.8
	C-334.5,594.3-317.5,620.9-320.4,685.5z"/>
<path fill="#76787A" d="M-436.3,639.2c-1.6,1.8-2.6,4.3-3,7.5c-4.5-7.9-10.2-35.6,12-56.7C-433.4,600.9-444.9,616.5-436.3,639.2z"/>
<path fill="#76787A" d="M-461.5,685.5c-1.9-11.7-2.6-24.4-1.8-38c2.9-46.6,35.9-62.2,49.6-66.8
	C-447.4,594.3-464.4,620.9-461.5,685.5z"/>
<path fill="#CD3529" d="M-447.4,729.7c4.8,9.7,10.2,18.4,15.9,26v-80.2h-15.9V729.7z"/>
<path fill="#CD3529" d="M-399.8,787.3c-4.7-3.4-10.2-7.9-15.9-13.6v-98.3h15.9V787.3z"/>
<path fill="#CD3529" d="M-334.5,729.7c-4.8,9.7-10.2,18.4-15.9,26v-80.2h15.9V729.7z"/>
<path fill="#CD3529" d="M-382.1,787.3c4.7-3.4,10.2-7.9,15.9-13.6v-98.3h-15.9V787.3z"/>
<circle cx="-391" cy="720.9" r="23"/>
<circle fill="#A46C39" cx="-391" cy="720.9" r="21.2"/>
<path d="M-369,715.9c-2.8-3.8-6.4-6.7-10.7-8.6c-4.3-1.9-8.2-2.4-11-2.5c-0.4-1-1.4-1.4-2.2-1.8c-0.2-0.1-0.4-0.2-0.6-0.3
	c-0.1-0.3,0.1-1,0.2-1.5c0.1-0.6,0.2-1.3,0.3-2l-2.5-0.1c0,0.6-0.1,1.1-0.2,1.7c-0.3,1.4-0.6,3.2,1.1,4.1c0.2,0.1,0.5,0.2,0.7,0.3
	c0.3,0.2,0.8,0.4,0.9,0.5v0.1c-0.1,0.2-0.5,0.6-0.8,0.8c-0.8,0.7-1.9,1.7-2.3,3.3c-0.8,2.8,0.7,6.3,3.7,9.1c-0.5,2-1.5,3.5-3,4.2
	c-1.7,0.8-3.9,0.6-6-0.6c-3.4-3.6-5.6-10.8-2.5-18.3l0.9-2l-3.9,3c-1.1,3.5-1.3,7.1-0.6,10.5c0.6,3,2,5.9,3.8,8
	c-1.5,2.7-3.6,5.1-7.7,3.8v2.6c5.5,1.3,8.4-2.5,9.7-4.9c2.5,1.1,5.2,1.2,7.3,0.2c2.2-1,3.7-3.1,4.3-5.9c1.6-0.4,4-0.7,6,0.4
	c1.3,0.7,2.3,2,2.8,3.8c-2,3.5-5,6.5-8.3,8.6c-4.6,2.9-10.1,4.1-16.9,3.6l2.5,2.6c5.8,0.2,11.1-1.2,15.7-4.1c3.7-2.3,7-5.7,9.2-9.5
	c1.8-0.5,3.6-0.8,4.9,0c1.1,0.6,1.9,1.9,2.5,4.9l1.7-3.1c-0.6-1.8-1.6-3.2-3-3.9c-2.1-1.2-4.5-0.9-6.2-0.5c-0.8-2.1-2.1-3.7-3.8-4.6
	c-2.6-1.5-5.6-1.2-7.9-0.6c-2.6-2.4-3.4-5.1-3-6.6c0.3-0.9,0.9-1.5,1.6-2.1c0.5-0.4,0.9-0.8,1.2-1.3c3.9,0,13.7,1.2,20.5,11l0.9,1.2
	L-369,715.9z"/>
</svg>
