<?xml version="1.0" encoding="utf-8"?>
<!-- Generator: Adobe Illustrator 19.1.0, SVG Export Plug-In . SVG Version: 6.00 Build 0)  -->
<svg version="1.1" id="Layer_1" xmlns="http://www.w3.org/2000/svg" xmlns:xlink="http://www.w3.org/1999/xlink" x="0px" y="0px"
	 viewBox="-232 290.3 146.1 212.7" style="enable-background:new -232 290.3 146.1 212.7;" xml:space="preserve">
<style type="text/css">
	.st0{fill:#F0C560;}
	.st1{fill:#4485C6;}
	.st2{fill:#FFFFFF;}
	.st3{fill:#76787A;}
	.st4{fill:#CD3529;}
	.st5{fill:#A46C39;}
</style>
<path class="st0" d="M-231.3,357.1c-5.4,86.5,52.6,135,72.3,145.4c19.7-10.4,77.7-58.9,72.3-145.4H-231.3z"/>
<path class="st1" d="M-87.1,385.2c0.9-8.8,1.1-18.2,0.5-28h-144.6c-0.6,9.8-0.4,19.2,0.5,28L-87.1,385.2z"/>
<path d="M-86.7,356.8h-145l0,0.3c-1.3,20.1,0.9,39.6,6.3,57.9c4.6,15.4,11.5,30.1,20.5,43.6c15.5,23,34.3,38.3,45.7,44.3l0.2,0.1
	l0.2-0.1c11.4-6,30.2-21.3,45.7-44.3c9.1-13.5,16-28.2,20.5-43.6c5.4-18.3,7.5-37.8,6.3-57.9l0-0.3L-86.7,356.8L-86.7,356.8z
	 M-87,357.5c0.2,3.6,0.3,7.2,0.3,10.8c0,16.1-2.2,31.7-6.6,46.5c-4.5,15.4-11.4,30-20.4,43.4c-7.3,10.8-15.7,20.6-25.1,29.2
	c-9.8,8.9-17.2,13.3-20.1,14.8c-2.9-1.6-10.3-6-20.1-14.8c-9.4-8.5-17.9-18.3-25.1-29.2c-9-13.4-15.9-28-20.4-43.4
	c-4.4-14.8-6.6-30.4-6.6-46.5c0-3.6,0.1-7.2,0.3-10.8C-230.2,357.5-87.7,357.5-87,357.5z"/>
<path class="st2" d="M-222.3,365.3h2.1l2.5,10.6h0l2.5-10.6h1.9l-3.3,13.5h-2.4L-222.3,365.3z"/>
<path class="st2" d="M-206.3,375.6h-3.9l-0.8,3.1h-2l3.8-13.5h2.2l3.8,13.5h-2.2L-206.3,375.6l-0.5-2.1l-1.4-5.6h0l-1.4,5.6h2.8"/>
<path class="st2" d="M-202,365.3h1.9v11.3h3.8v2.1h-5.7C-202,378.7-202,365.3-202,365.3z"/>
<path class="st2" d="M-195.1,365.3h5.7v2.1h-3.8v3.3h3.5v2.1h-3.5v3.8h3.8v2.1h-5.8L-195.1,365.3L-195.1,365.3z"/>
<path class="st2" d="M-187.5,365.3h2.4l3.7,10.1h0v-10.1h1.9v13.5h-2.4l-3.7-10.1h0v10.1h-1.9V365.3z"/>
<path class="st2" d="M-170.3,378.5c-0.7,0.2-1.5,0.4-2.2,0.4c-3.1,0-5.3-2.2-5.3-6.7c0-4.6,2-7.2,5.3-7.2c0.6,0,1.5,0.2,2.2,0.6
	l-0.1,2.3c-0.7-0.6-1.4-0.7-2.1-0.7c-2,0-3.3,2.1-3.3,4.9c0,2.7,1.2,4.8,3.3,4.8c0.8,0,1.7-0.2,2.1-0.6L-170.3,378.5z"/>
<path class="st2" d="M-169,365.3h1.9v13.5h-1.9V365.3z"/>
<path class="st2" d="M-144,378.5c-0.7,0.2-1.5,0.4-2.2,0.4c-3.1,0-5.3-2.2-5.3-6.7c0-4.6,2-7.2,5.3-7.2c0.6,0,1.5,0.2,2.2,0.6
	l-0.1,2.3c-0.7-0.6-1.4-0.7-2.1-0.7c-2,0-3.3,2.1-3.3,4.9c0,2.7,1.2,4.8,3.3,4.8c0.8,0,1.7-0.2,2.1-0.6L-144,378.5z"/>
<path class="st2" d="M-142.7,376h1.9v2.7h-1.9V376z"/>
<path class="st2" d="M-133.5,373.7c0,1.4,0.3,3.2,1.6,3.2c1.2,0,1.6-1.8,1.6-3.2c0-1.4-0.5-3.2-1.7-3.2
	C-133.2,370.6-133.5,372.4-133.5,373.7h-1.9c0-2.7,0.8-5.2,3-5.2c0.9,0,1.6,0.4,2.1,1.4h0v-5.7h1.9v14.5h-1.8v-1.1h0
	c-0.6,1-1.3,1.3-2.2,1.3c-2.2,0-3-2.5-3-5.2"/>
<path class="st2" d="M-122,372.8c-0.1-1.3-0.5-2.3-1.5-2.3c-1,0-1.6,1-1.7,2.3H-122l1.8,1.8h-4.9c0.1,1.6,0.9,2.5,2,2.5
	c0.9,0,1.7-0.5,2.4-1v2.1c-0.7,0.5-1.5,0.8-2.5,0.8c-2.4,0-3.7-1.9-3.7-5.1c0-2.9,1.1-5.2,3.3-5.2c2.7,0,3.4,2.5,3.4,6"/>
<path class="st2" d="M-114.8,365.3h5.4v2.1h-3.4v3.3h3.3v2.1h-3.3v5.9h-1.9V365.3z"/>
<path class="st2" d="M-108,376h1.9v2.7h-1.9V376z"/>
<path class="st2" d="M-159.2,375.6h-3.9l-0.8,3.1h-2l3.8-13.5h2.2l3.8,13.5h-2.2L-159.2,375.6l-0.5-2.1l-1.4-5.6h0l-1.4,5.6h2.8"/>
<path d="M-88.4,395.2c-3-27-12.1-45.4-22.3-38.8c-1.4-12.7-14.5-14.7-22.9-5.7c-0.2-8.2-7-16.1-15.9-13.8c-0.7,1.8-2.7,5.2-3.6,6.1
	c0.7,1.8,2.7,10,3.6,11.6c2.7-1.4,3.4-1.6,8.6,3.4h-11.1l-2.7-8.2c-0.9-1.8-1.4-1.1-2,0l-2.3,4.8l-2.3-4.8c-0.7-1.1-1.1-1.8-2,0
	l-2.7,8.2h-11.1c5.2-5,5.9-4.8,8.6-3.4c0.9-1.6,2.9-9.7,3.6-11.6c-0.9-0.9-2.9-4.3-3.6-6.1c-8.8-2.3-15.6,5.7-15.9,13.8
	c-8.4-9.1-21.5-7-22.9,5.7c-10.2-6.6-19.3,11.8-22.3,38.8c-1.9-11.7-2.6-24.4-1.8-38c2.9-46.6,35.9-62.2,49.6-66.8
	c-6.7,13-4,33.9,15.9,29.2c0.3-1.1,1.9-3.6,3.5-4.7c-2.2-1-4.4-5.5-3.4-8.9c-3.8-0.5-4.4-4.6-3.9-6.7c0.5-2-0.3-5.9-1.6-7.1
	c4.3,1.5,8,5.9,8.9,8.8c0.9-0.9,2.3-1,3.4-1.1c1.1,0,2.5,0.2,3.4,1.1c0.8-3,4.6-7.4,8.9-8.8c-1.3,1.2-2.1,5-1.6,7.1
	c0.5,2-0.1,6.1-3.9,6.7c1,3.4-1.2,8-3.4,8.9c1.6,1.1,3.3,3.5,3.5,4.7c19.8,4.7,22.5-16.2,15.9-29.2c13.7,4.7,46.7,20.2,49.6,66.8
	C-85.8,370.8-86.5,383.4-88.4,395.2z"/>
<path class="st3" d="M-182.2,343.1c-1.3,2.3-2.1,4.9-2.2,7.6c-8.8-11.8-18.6-37.2-5.2-53C-195,309.5-195.2,327.3-182.2,343.1z"/>
<path class="st3" d="M-135.8,343.1c1.3,2.3,2.1,4.9,2.2,7.6c8.8-11.8,18.6-37.2,5.2-53C-122.9,309.5-122.8,327.3-135.8,343.1z"/>
<path class="st3" d="M-113.7,348.9c1.6,1.8,2.6,4.3,3,7.5c4.5-7.9,10.2-35.6-12-56.7C-116.6,310.6-105.1,326.2-113.7,348.9z"/>
<path class="st3" d="M-88.4,395.2c1.9-11.7,2.6-24.4,1.8-38c-2.9-46.6-35.9-62.2-49.6-66.8C-102.5,304-85.5,330.6-88.4,395.2z"/>
<path class="st3" d="M-204.3,348.9c-1.6,1.8-2.6,4.3-3,7.5c-4.5-7.9-10.2-35.6,12-56.7C-201.4,310.6-212.9,326.2-204.3,348.9z"/>
<path class="st3" d="M-229.5,395.2c-1.9-11.7-2.6-24.4-1.8-38c2.9-46.6,35.9-62.2,49.6-66.8C-215.4,304-232.4,330.6-229.5,395.2z"/>
<path class="st4" d="M-215.4,439.4c4.8,9.7,10.2,18.4,15.9,26l0-80.2h-15.9L-215.4,439.4z"/>
<path class="st4" d="M-167.8,497c-4.7-3.4-10.2-7.9-15.9-13.6l0-98.3h15.9L-167.8,497z"/>
<path class="st4" d="M-102.5,439.4c-4.8,9.7-10.2,18.4-15.9,26v-80.2h15.9L-102.5,439.4z"/>
<path class="st4" d="M-150.1,497c4.7-3.4,10.2-7.9,15.9-13.6l0-98.3h-15.9L-150.1,497z"/>
<circle cx="-159" cy="430.6" r="23"/>
<circle class="st5" cx="-159" cy="430.6" r="21.2"/>
<path d="M-137,425.6c-2.8-3.8-6.4-6.7-10.7-8.6c-4.3-1.9-8.2-2.4-11-2.5c-0.4-1-1.4-1.4-2.2-1.8c-0.2-0.1-0.4-0.2-0.6-0.3
	c-0.1-0.3,0.1-1,0.2-1.5c0.1-0.6,0.2-1.3,0.3-2l-2.5-0.1c0,0.6-0.1,1.1-0.2,1.7c-0.3,1.4-0.6,3.2,1.1,4.1c0.2,0.1,0.5,0.2,0.7,0.3
	c0.3,0.2,0.8,0.4,0.9,0.5c0,0,0,0.1,0,0.1c-0.1,0.2-0.5,0.6-0.8,0.8c-0.8,0.7-1.9,1.7-2.3,3.3c-0.8,2.8,0.7,6.3,3.7,9.1
	c-0.5,2-1.5,3.5-3,4.2c-1.7,0.8-3.9,0.6-6-0.6c-3.4-3.6-5.6-10.8-2.5-18.3l0.9-2l-3.9,3c-1.1,3.5-1.3,7.1-0.6,10.5
	c0.6,3,2,5.9,3.8,8c-1.5,2.7-3.6,5.1-7.7,3.8l0,2.6c5.5,1.3,8.4-2.5,9.7-4.9c2.5,1.1,5.2,1.2,7.3,0.2c2.2-1,3.7-3.1,4.3-5.9
	c1.6-0.4,4-0.7,6,0.4c1.3,0.7,2.3,2,2.8,3.8c-2,3.5-5,6.5-8.3,8.6c-4.6,2.9-10.1,4.1-16.9,3.6l2.5,2.6c5.8,0.2,11.1-1.2,15.7-4.1
	c3.7-2.3,7-5.7,9.2-9.5c1.8-0.5,3.6-0.8,4.9,0c1.1,0.6,1.9,1.9,2.5,4.9l1.7-3.1c-0.6-1.8-1.6-3.2-3-3.9c-2.1-1.2-4.5-0.9-6.2-0.5
	c-0.8-2.1-2.1-3.7-3.8-4.6c-2.6-1.5-5.6-1.2-7.9-0.6c-2.6-2.4-3.4-5.1-3-6.6c0.3-0.9,0.9-1.5,1.6-2.1c0.5-0.4,0.9-0.8,1.2-1.3
	c3.9,0,13.7,1.2,20.5,11l0.9,1.2L-137,425.6z"/>
</svg>
