<?xml version="1.0" encoding="utf-8"?>
<!-- Generator: Adobe Illustrator 16.0.0, SVG Export Plug-In . SVG Version: 6.00 Build 0)  -->
<!DOCTYPE svg PUBLIC "-//W3C//DTD SVG 1.1//EN" "http://www.w3.org/Graphics/SVG/1.1/DTD/svg11.dtd">
<svg version="1.1" id="Layer_1" xmlns="http://www.w3.org/2000/svg" xmlns:xlink="http://www.w3.org/1999/xlink" x="0px" y="0px"
	 width="1745px" height="1874px" viewBox="0 0 1745 1874" enable-background="new 0 0 1745 1874" xml:space="preserve">
<g>
	<path fill-rule="evenodd" clip-rule="evenodd" d="M874.5,1641.466c-80.313-66.299-217.589-112.036-342.372-163.356
		c-299.852-122.815-389.938-300.358-287.492-585.521c31.232-86.83,67.891-176.703,73.012-278.899
		c5.815-88.377-37.721-176.708-114.809-265.184c55.27-59.677,110.492-119.596,165.713-179.414
		c192.514,93.231,354.418,46.533,505.401-50.654c151.103,97.187,313.026,143.886,505.511,50.654
		c55.227,59.818,110.476,119.737,165.732,179.414c-77.114,88.476-120.594,176.807-114.789,265.184
		c5.104,102.196,41.622,192.069,72.954,278.899c102.374,285.163,12.52,462.706-287.548,585.521
		C1091.022,1529.43,954.766,1575.167,874.5,1641.466"/>
	<polygon fill-rule="evenodd" clip-rule="evenodd" fill="#FFC90D" points="486.937,364.96 497.514,394.702 531.407,394.702 
		503.976,413.008 514.452,442.664 486.937,424.287 459.462,442.664 470.058,413.008 442.506,394.702 476.538,394.702 	"/>
	<polygon fill-rule="evenodd" clip-rule="evenodd" fill="#FFC90D" points="608.021,364.96 618.432,394.702 652.333,394.702 
		624.893,413.008 635.352,442.664 608.021,424.287 580.415,442.664 590.835,413.008 563.43,394.702 597.38,394.702 	"/>
	<polygon fill-rule="evenodd" clip-rule="evenodd" fill="#FFC90D" points="728.886,364.96 739.306,394.702 773.302,394.702 
		745.731,413.008 756.263,442.664 728.886,424.287 701.419,442.664 711.81,413.008 684.416,394.702 718.283,394.702 	"/>
	<polygon fill-rule="evenodd" clip-rule="evenodd" fill="#FFC90D" points="849.777,364.96 860.292,394.702 894.231,394.702 
		866.79,413.008 877.229,442.664 849.777,424.287 822.263,442.664 832.721,413.008 805.318,394.702 839.322,394.702 	"/>
	<polygon fill-rule="evenodd" clip-rule="evenodd" fill="#FFC90D" points="1121.306,1032.316 1144.944,1099.039 1221.531,1099.039 
		1159.636,1140.318 1183.2,1207.247 1121.306,1165.845 1059.388,1207.247 1083.121,1140.318 1021.149,1099.039 1097.646,1099.039 	
		"/>
	<path fill-rule="evenodd" clip-rule="evenodd" fill="#FFFFFF" d="M320.884,957.135l935.741-658.431l-20.49,2.886l-20.382,2.017
		l-20.303,1.229l-20.295,0.554l-19.959-0.25l-19.6-1.018l-19.731-1.773l-19.249-2.475l-19.258-3.099L1058.507,293l-18.645-4.492
		l-18.262-4.984l-18.064-5.398l-17.9-6.13l-17.622-6.639l-17.351-7.052l-17.049-7.277l-16.827-7.97l-16.538-8.256l-16.346-8.587
		l-9.948-5.409l-9.802,5.409l-16.4,8.587l-16.513,8.256l-16.88,7.97l-17.131,7.277l-17.217,7.052l-17.592,6.639l-17.937,6.13
		l-17.974,5.398l-18.353,4.984L689.464,293l-18.776,3.774l-19.285,3.099l-19.341,2.475l-19.627,1.773l-19.739,1.018l-19.841,0.25
		l-20.248-0.554l-20.268-1.229l-20.576-2.017l-20.506-2.886l-20.582-3.771l-20.653-4.696l-20.775-5.372l-20.791-6.305l-14.118-4.817
		l-1.211,1.229l-10.3,11.194l-5.212,5.659l-15.514,16.791l-5.15,5.749l-5.15,5.408l-10.354,11.27l-5.271,5.616l-5.111,5.58
		l-9.44,10.335l5.603,7.694l6.445,9.552l6.342,9.586l6.082,9.735l5.955,9.756l5.549,9.761l5.435,9.938l5.142,9.893l4.908,9.938
		l4.66,10.2l4.482,10.003l3.959,10.301l3.844,10.203l3.625,10.541l3.291,10.438l2.886,10.482l2.765,10.531l2.144,10.771l2.081,10.65
		l1.636,10.764l1.286,10.705l0.999,11.105l0.535,10.916l0.222,10.947l-0.222,11.057l-0.462,9.984l-0.545,10.642l-0.86,10.974
		l-1.185,10.779l-1.155,10.771l-1.554,10.633l-1.404,10.494l-1.822,10.391l-1.839,10.347l-2.044,9.975l-2.182,10.115l-2.238,10.126
		l-2.337,9.78l-2.626,9.789l-2.524,9.524l-2.69,9.688l-2.766,9.446l-2.826,9.304l-2.895,9.233l-2.932,9.126l-2.967,9.059
		l-2.978,8.914l-3.044,8.849l-3.031,8.698l-3.079,8.637l-2.985,8.689l-3.189,8.367l-2.904,8.449l-2.994,8.303l-3.099,8.201
		l-3.014,8.145l-2.931,8.099l-2.645,7.442l-8.448,24.585L320.884,957.135z M1345.453,521.518L335.251,1233.068l2.153,3.521
		l8.785,12.436l9.946,12.509l10.9,12.01l12.212,12.325l13.205,11.899l14.47,11.989l15.789,11.695l17.103,11.752l18.288,11.417
		l19.804,11.398l21.022,11.178l22.429,11.06l23.815,10.936l25.694,10.918l10.79,4.411l11.316,4.651l11.748,4.63l11.687,4.643
		l11.815,4.566l11.863,4.808l11.935,4.788l11.954,4.578l11.955,4.696l12.093,4.918l12.12,4.91l11.908,4.77l12.101,4.967
		l12.073,4.925l11.865,5.224l11.944,4.985l11.879,5.388l11.808,5.197l11.814,5.639l11.77,5.491l11.437,5.538l11.528,5.863
		l11.345,5.888l11.25,6.009l11.022,6.232l10.437,6.353l10.541-6.122l10.906-6.359l11.347-6.112l11.252-5.823l11.507-5.807
		l11.502-5.659l11.519-5.491l11.789-5.481l11.724-5.354l11.816-5.259l11.955-5.114l11.86-5.047l12.082-5.102l11.992-4.773
		l12.019-4.963l11.955-4.91l11.991-4.771l11.973-4.844l12.046-4.578l11.954-4.788l11.788-4.808l11.761-4.566l11.685-4.643
		l11.584-4.63l11.484-4.651l10.944-4.411l25.545-10.918l23.836-10.936l22.418-11.06l21.136-11.178l19.525-11.398l18.452-11.417
		l17.104-11.752l15.801-11.695l14.44-11.989l13.305-11.899l12.046-12.325l11.003-12.01l9.948-12.509l8.745-12.436l7.886-12.747
		l6.879-13.111l6.103-13.34l5.359-13.7l4.449-14.352l3.484-14.791l2.729-15.294l1.912-16.16l1.073-16.74v-17.566l-0.951-18.28
		l-1.812-19.147l-2.831-19.847l-4.001-20.717l-4.826-21.555l-5.937-22.391l-7.19-23.251l-8.397-24.585l-2.781-7.442l-2.939-8.099
		l-2.923-8.189l-2.959-8.156l-2.994-8.303l-3.1-8.449l-3.115-8.396l-3.051-8.661l-2.984-8.637l-3.069-8.698l-3.053-8.849
		l-2.948-8.914l-2.996-9.059l-2.894-9.126l-2.931-9.233l-2.829-9.304l-2.772-9.446l-2.672-9.477l-2.533-9.736l-2.625-9.789
		l-2.341-9.78l-2.239-10.126l-2.106-10.115l-2.081-9.975l-1.828-10.347l-1.767-10.391l-1.628-10.494l-1.415-10.633l-1.265-10.771
		l-1.073-10.779l-0.869-10.974l-0.612-10.642l-0.508-9.984l-0.108-11.057l0.229-10.947l0.623-10.916l0.921-11.105l1.27-10.705
		l1.646-10.764l2.089-10.65L1345.453,521.518z M299.535,936.593l8.61-25.02l2.707-7.682l2.957-8.164l3.007-8.099l2.967-8.221
		l3.108-8.42l3.07-8.202l3.03-8.421l2.978-8.691l3.043-8.607l2.967-8.588l3.06-8.629l2.894-8.902l2.904-8.885l2.875-8.912
		l2.744-8.957l2.903-9.338l2.653-9.144l2.627-9.311l2.43-9.267l2.414-9.537l2.432-9.615l2.238-9.699l1.986-9.623l2.07-9.931
		l1.822-9.919l1.582-9.94l1.562-10.252l1.422-10.207l1.139-10.317l1.018-10.477l0.793-10.343l0.685-10.505l0.409-9.586l0.091-10.153
		l-0.091-10.13l-0.557-10.319l-0.943-10.032l-1.192-10.084l-1.496-10.051l-1.907-10.105l-2.171-10.021l-2.497-9.883l-2.707-9.911
		l-3.099-9.911l-3.226-9.736l-3.719-9.75l-3.892-9.646l-4.243-9.542l-4.411-9.576l-4.649-9.514l-4.908-9.588l-5.088-9.404
		l-5.471-9.327l-5.574-9.348l-5.853-9.31l-6.085-9.143l-6.175-9.107l-6.583-9.271l-6.703-9.161l-3.385-4.293l1.888-2.043
		l5.085-5.622l5.288-5.659l10.325-11.139l5.161-5.657l5.278-5.556l10.371-11.207l5.041-5.582l5.186-5.724l15.56-16.651l5.132-5.74
		l10.418-11.06l5.144-5.75l5.259-5.509l3.135-3.56l10.991,4.384l19.87,6.73l19.664,5.998l19.756,5.088l19.758,4.334l19.535,3.568
		l19.443,2.683l19.136,1.923l19.342,1.294l18.981,0.499l18.945-0.23l18.774-0.953l18.435-1.6l18.308-2.413l18.147-2.884
		l17.824-3.679l17.796-4.199l17.366-4.882l17.389-5.223l16.9-5.687l16.799-6.333l16.689-6.693l16.389-6.99l16.236-7.83l15.912-7.878
		l15.846-8.384l15.652-8.616l7.692-4.466l7.813,4.466l15.624,8.616l15.764,8.384l16.021,7.878l16.318,7.83l16.41,6.99l16.568,6.693
		l16.741,6.333l17.113,5.687l17.121,5.223l17.64,4.882l17.597,4.199l17.898,3.679l18.156,2.884l18.288,2.413l18.554,1.6
		l18.667,0.953l18.906,0.23l19.044-0.499l19.14-1.294l19.285-1.923l19.397-2.683l19.609-3.568l19.7-4.334l19.592-5.088l19.874-5.998
		l19.759-6.73l11.215-4.384l8.248,9.069l5.131,5.75l15.521,16.8l5.159,5.528l15.532,16.847l5.188,5.563l15.644,16.781l5.108,5.657
		l15.517,16.798l5.215,5.622l1.883,2.043l-3.399,4.293l-6.686,9.161l-6.405,9.271l-6.36,9.107l-6.085,9.143l-5.854,9.31
		l-5.526,9.348l-5.53,9.327l-5.065,9.404l-4.984,9.588l-4.576,9.514l-4.528,9.576l-4.106,9.486l-3.921,9.701l-3.577,9.75
		l-3.329,9.736l-3.159,9.911l-2.682,9.911l-2.479,9.883l-2.198,10.021l-1.904,10.105l-1.464,10.051l-1.312,10.084l-0.85,10.032
		l-0.538,10.319l-0.128,10.13l0.128,10.153l0.538,9.586l0.507,10.255l0.842,10.593l1.009,10.477l1.164,10.317l1.405,10.207
		l1.424,10.252l1.849,9.94l1.721,9.919l2.032,9.931l2.091,9.623l2.255,9.82l2.32,9.494l2.397,9.537l2.44,9.267l2.643,9.311
		l2.58,9.144l2.866,9.225l2.856,9.07l2.846,8.912l2.839,8.802l2.996,8.985l2.986,8.629l2.959,8.588l3.134,8.683l3.097,8.616
		l2.994,8.421l2.94,8.202l3.116,8.42l2.829,8.221l3.144,8.099l2.85,8.164l2.724,7.682l8.684,25.02l7.286,23.852l6.342,23.271
		l5.019,22.448l4.133,21.549l3.014,20.987l1.897,20.052l0.97,19.593l-0.056,18.657l-1.054,18.037l-2.135,17.408l-2.875,16.901
		l-3.895,16.067l-4.861,15.635l-5.826,15.135l-6.664,14.689l-7.684,14.202l-8.617,14.228l-9.835,13.601l-10.67,13.738
		l-11.993,13.119l-12.942,13.155l-14.283,12.75l-15.394,12.656l-16.67,12.442l-17.854,12.372l-19.293,11.99l-20.562,11.834
		l-21.756,11.668l-23.269,11.481l-24.544,11.16l-26.166,11.132l-11.093,4.521l-11.475,4.668l-11.823,4.641l-11.686,4.615
		l-11.726,4.752l-12.009,4.752l-11.771,4.688l-11.87,4.575l-12.092,4.846l-11.954,4.751l-11.863,4.892l-11.953,4.808l-11.89,4.872
		l-11.759,4.981l-11.806,5.005l-11.798,5.102l-11.538,5.085l-11.512,5.233l-11.519,5.435l-11.317,5.325l-11.195,5.614l-11.158,5.622
		l-11.038,5.701l-10.699,5.753l-10.694,6.09l-10.438,6.195l-10.365,6.379l-3.873,2.377l-3.856-2.485l-10.177-6.271l-10.514-6.314
		l-10.742-5.971l-10.872-5.937l-10.92-5.676l-11.27-5.566l-11.26-5.512l-11.252-5.435l-11.548-5.325l-11.629-5.233l-11.614-5.085
		l-11.806-5.102l-11.806-5.005l-11.898-4.981l-11.992-4.872l-11.896-4.991l-11.936-4.708l-11.873-4.751l-12.035-4.846l-11.975-4.575
		l-11.882-4.688l-11.896-4.752l-11.817-4.752l-11.656-4.615l-11.843-4.641l-11.393-4.668l-11.168-4.521l-26.257-11.132
		l-24.434-11.16l-23.114-11.481l-22.025-11.668l-20.446-11.834l-19.276-11.99l-17.882-12.372l-16.733-12.442l-15.375-12.656
		l-14.264-12.75l-12.962-13.155l-12.019-13.119l-10.727-13.738l-9.598-13.601l-8.745-14.228l-7.71-14.202l-6.602-14.689
		l-5.859-15.135l-4.92-15.635l-3.817-16.067l-3.044-16.901l-2.004-17.408l-1.01-18.037l-0.109-18.657l0.906-19.593l1.958-20.052
		l3.034-20.987l4.039-21.549l5.123-22.448l6.35-23.271L299.535,936.593z"/>
	<path fill="#22201F" d="M1283.529,531.589l-21.968-26.386l28.817-20.107l21.895,26.377L1283.529,531.589z M1187.322,520.876
		l36.448-11.938c7.957,18.214,9.798,34.679,5.416,49.306c-4.514,14.422-14.783,27.578-30.924,38.839
		c-19.951,13.858-41.567,19.12-64.803,15.579c-23.197-3.549-43.777-16.383-61.785-37.795
		c-19.027-23.002-27.329-45.403-24.824-67.194c2.201-21.763,14.018-39.849,35.057-54.731c18.558-12.646,37.371-18.207,57.147-16.096
		c11.749,1.061,23.953,5.925,36.528,14.607l-24.648,27.41c-7.646-5.805-15.993-8.903-25.119-8.994
		c-9.088-0.334-17.512,2.468-25.759,8.108c-11.13,7.759-17.085,17.841-17.944,29.99c-0.842,11.972,5.494,26.423,19.156,42.888
		c14.432,17.512,28.196,27.424,41.113,30.027c13.055,2.665,24.99,0.206,35.93-7.457c7.947-5.632,12.859-12.786,14.846-21.561
		C1195.034,543.092,1193.064,532.727,1187.322,520.876 M1073.894,678.875l-21.9-26.614l28.872-20.092l21.8,26.536L1073.894,678.875z
		 M969.476,752.107l-114.342-138.05l103.094-72.011l19.367,23.4l-72.695,50.756l26.969,32.689l62.783-43.793l19.342,23.371
		l-62.876,43.787l48.835,58.623L969.476,752.107z M813.853,781.498l36.397-11.973c7.94,18.203,9.671,34.614,5.354,49.156
		c-4.385,14.738-14.685,27.709-30.928,38.85c-19.876,14.016-41.464,19.23-64.641,15.643c-23.327-3.521-43.844-16.152-61.907-37.838
		c-19.045-22.996-27.182-45.387-24.858-67.131c2.328-21.635,14.135-39.867,35.104-54.668c18.488-12.738,37.357-18.203,57.198-16.205
		c11.716,1.144,23.825,6.054,36.521,14.606l-24.703,27.522c-7.648-5.936-16.022-9.004-25.101-9.107
		c-9.015-0.296-17.733,2.451-25.778,8.156c-11.037,7.691-17.094,17.804-17.99,29.857c-0.795,12.244,5.529,26.602,19.166,43.133
		c14.6,17.445,28.088,27.439,41.149,30.037c13.044,2.691,24.927,0.084,35.872-7.45c8.053-5.706,13.082-12.853,15.088-21.747
		C821.599,803.595,819.576,793.277,813.853,781.498 M589.821,925.308l30.572,36.925l27.994-19.625
		c10.957-7.563,17.68-12.714,20.109-15.375c3.837-3.754,6.01-8.219,6.498-13.204c0.371-4.964-1.35-9.786-5.471-14.755
		c-3.401-4.086-7.396-6.833-12.036-8.042c-4.624-1.5-9.532-1.387-14.7,0.119c-5.169,1.673-14.684,7.164-28.439,16.818
		L589.821,925.308z M544.315,870.385l26.424,31.995l20.007-13.877c11.63-8.413,18.887-13.562,21.44-15.882
		c4.822-4.208,7.469-8.765,8.207-13.415c0.806-4.847-0.738-9.589-4.474-13.96c-3.612-4.281-7.563-6.777-12.425-7.851
		c-4.725-0.676-9.819,0.195-15.439,3.218c-3.264,1.766-11.953,7.711-26.312,17.594L544.315,870.385z M494.917,868.665l60.039-41.995
		c11.965-8.328,21.172-14.041,27.828-17.149c6.601-3.196,13.378-4.836,20.386-5.286c7.027-0.408,14.017,0.842,21.062,3.393
		c7.091,2.689,12.998,7.09,18.074,12.972c5.281,6.543,8.312,13.737,8.979,21.78c0.607,8.12-1.13,15.773-5.391,22.92
		c11.111-3.839,21.689-4.811,31.442-2.239c9.81,2.434,18.095,7.674,24.63,15.597c5.215,6.316,8.643,13.489,10.521,21.707
		c1.599,8.065,1.176,15.958-1.295,23.171c-2.672,7.468-7.535,14.421-15.023,21.042c-4.541,4.012-16.513,12.759-35.723,26.358
		l-51.256,35.817L494.917,868.665z M491.413,1001.963l-62.96-36.814l22.022,65.418L491.413,1001.963z M592.586,1017.494
		l-32.987,22.955l-39.054-22.041l-60.241,41.955l13.758,39.923l-32.258,22.474l-55.74-178.923l32.006-22.365L592.586,1017.494z"/>
</g>
</svg>
