<?xml version="1.0" encoding="utf-8"?>
<!-- Generator: Adobe Illustrator 19.1.0, SVG Export Plug-In . SVG Version: 6.00 Build 0)  -->
<svg version="1.1" id="svg2527" xmlns:svg="http://www.w3.org/2000/svg"
	 xmlns="http://www.w3.org/2000/svg" xmlns:xlink="http://www.w3.org/1999/xlink" x="0px" y="0px" viewBox="-46 190.8 565 603.6"
	 enable-background="new -46 190.8 565 603.6" xml:space="preserve">
<g id="layer1" transform="translate(10.145484,364.94579)">
	<path id="path2617" fill="none" d="M-46,190.8"/>
	<g id="g3442" transform="translate(-220.77885,44.796564)">
	</g>
	<g id="g3517">
		<path id="path2660" d="M87.1,227L-56.1,24.5v-99.3v-99.3h282.5h282.5v99.2v99.3L373.7,220.8c-74.3,108.1-137,199.2-139.2,202.6
			l-4.1,6.1L87.1,227z M361.9,209.8l131-190.5v-88.8v-88.8H226.4H-40.1v88.8v88.8L92.5,206.7c73,103.1,133.6,188.9,134.7,190.7
			c1.2,1.8,2.5,3.1,2.9,3C230.6,400.4,289.9,314.5,361.9,209.8z M239.9,190.5V31.8H351c88.6,0,110.9,0.3,110.3,1.2
			c-1.6,2.7-219.6,314.3-220.4,315.2C240.2,348.8,239.9,284.7,239.9,190.5z M-18.1-61.2v-79h244.5h244.5v79v79H226.4H-18.1V-61.2z
			 M454.9-60.7v-62.5H226.4H-2.1v62.5V1.8h228.5h228.5V-60.7z M199.2-10.3c-27.6-4.6-43.4-28.9-36.8-56.8
			c4-16.9,16.7-28.7,35.3-32.6c17.6-3.7,36.2,0.3,47.2,10.2c3.6,3.2,10,14.1,10,16.8c0,0.6-5.2,2.2-11.8,3.5
			c-6.5,1.3-12.2,2.5-12.8,2.7s-2-1.9-3.3-4.6c-3-6.5-8-9.1-17.6-9.1c-14.2,0-21.5,8.3-21.6,24.2c-0.1,16.6,7.4,25.8,21.2,25.8
			c10,0,15.3-3.6,18.7-12.6c1-2.7,2.2-4.9,2.7-4.9s6.2,1.3,12.6,3c11.5,2.9,11.8,3,11.2,5.5C251.8-29.1,241-17,231.3-13.3
			C221.3-9.5,210.1-8.5,199.2-10.3z M339.4-10.7c-13.6-2.8-25.2-10.3-31.7-20.5c-6-9.4-8.3-23.7-5.7-34.9
			c2.5-10.9,10.5-21.7,20.1-27.4c14.7-8.6,39-10.1,56.6-3.6c8,3,17.3,12.2,19.7,19.6c1,2.9,1.6,5.5,1.3,5.8
			c-0.5,0.5-24.9,4.6-25.3,4.2c-0.1-0.1-1-1.8-1.9-3.8c-2.7-5.8-7.7-8.4-16.9-8.9c-10.4-0.5-16,1.2-21.3,6.3
			c-5.2,5-6.8,10.3-6.2,20.3c0.6,9.8,3.7,15.7,10.2,19.8c4.6,2.8,5.4,3,15.4,3c8.8,0,11.4-0.4,15.3-2.2c4.2-1.9,4.8-2.6,4.8-5.2
			v-3.1h-11.5h-11.5v-10v-10h25h25l-0.3,19.2l-0.3,19.2l-9,4.5c-5,2.5-12.4,5.4-16.5,6.4C364.8-9.4,348.3-8.8,339.4-10.7z M18-21.9
			c2.8-5.9,12-25.7,20.6-44l15.6-33.3l12.9,0.3L80-98.6l21.4,43.8L122.8-11h-14.2H94.4l-4.3-9l-4.3-9H67.4H49.2l-3.9,9l-3.9,9H27.2
			H13L18-21.9z M75.9-50.6c0-1.2-8.2-17.6-8.8-17.6c-0.6,0-5.2,9.9-7.9,16.8c-0.4,0.9,1.6,1.2,8.1,1.2C72-50.2,75.9-50.4,75.9-50.6z
			 M128.9-22.2v-11h12.5h12.5v11v11h-12.5h-12.5V-22.2z M264.9-22.2v-11h13h13v11v11h-13h-13V-22.2z M412.9-22.2v-11h12.5h12.5v11
			v11h-12.5h-12.5V-22.2z"/>
		<path id="path3490" fill="#FFFFFF" d="M227.4,397.6c-1.2-1.8-61.8-87.6-134.7-190.7L-40,19.6v-88.8V-158h266.5H493v88.8v88.6
			L362.1,209.9c-72,104.8-131.3,190.6-131.8,190.7C229.9,400.7,228.5,399.4,227.4,397.6z M219.5,32.1c-0.4-1-23.6-1.2-111.6-1.2
			C9.1,30.9-3.2,31.1-2.7,32.4c0.6,1.6,217.9,312.7,220.5,315.8c1.5,1.7,1.6-11.3,1.9-156.5C219.9,104.7,219.8,32.8,219.5,32.1z
			 M351.2,190.9c60.1-86.1,109.7-157.1,110.1-157.8c0.6-1-21.7-1.2-110.3-1.2H240v158.7c0,94.2,0.4,158.3,0.9,157.8
			C241.4,347.8,291,277,351.2,190.9z M471-61.1v-79H226.5H-18v79v79h244.5H471V-61.1z M-2-60.6v-62.5h228.5H455v62.5V1.9H226.5H-2
			V-60.6z M219.8-10.1c10.2-1.7,16.7-4.6,23-10.5c5.4-5,10.3-12.8,11.7-18.5c0.6-2.5,0.3-2.6-11.2-5.5c-6.5-1.6-12.2-3-12.6-3
			s-1.7,2.2-2.7,4.9c-3.4,9.1-8.7,12.6-18.7,12.6c-13.8,0-21.3-9.2-21.2-25.8c0.1-15.9,7.5-24.2,21.6-24.2c9.6,0,14.6,2.6,17.6,9.1
			c1.2,2.7,2.7,4.8,3.3,4.6s6.3-1.4,12.8-2.7c6.6-1.3,11.8-2.9,11.8-3.5c0-2.8-6.4-13.6-10-16.8c-13.9-12.6-40.1-15.3-59.4-6.1
			c-7.2,3.4-15.4,11-18.9,17.2c-7.2,13.2-7.5,32.1-0.7,45.3C174.8-15.8,196.9-6.4,219.8-10.1z M375-11.7c4.1-1,11.5-3.9,16.5-6.4
			l9-4.5l0.3-19.2l0.3-19.2h-25h-25v10v10h11.5H374v3.1c0,2.7-0.6,3.3-4.8,5.2c-3.9,1.8-6.6,2.2-15.3,2.2c-10,0-10.8-0.2-15.4-3
			c-6.5-4-9.6-10-10.2-19.8c-0.6-10,1-15.3,6.2-20.3c5.3-5.1,10.9-6.8,21.3-6.3c9.2,0.4,14.1,3,16.9,8.9c0.9,1.9,1.7,3.6,1.9,3.8
			c0.3,0.4,24.7-3.7,25.3-4.2c0.2-0.2-0.3-2.8-1.3-5.8c-2.5-7.4-11.8-16.7-19.7-19.6c-17.6-6.6-41.9-5-56.6,3.6
			c-24.7,14.5-28.5,50.2-7.6,70.6c5.1,5,16.2,10.4,24.9,12.2C348.4-8.8,365-9.3,375-11.7z M45.4-20.1l3.9-9h18.2h18.2l4.3,9l4.3,9
			h14.2h14.2l-21.4-43.8L80.1-98.6l-12.9-0.3l-12.9-0.3L38.7-65.9c-8.6,18.3-17.8,38.1-20.6,44l-5,10.8h14.2h14.2L45.4-20.1z
			 M59.2-51.4c2.7-6.9,7.3-16.7,7.9-16.7s8.8,16.4,8.8,17.6c0,0.2-3.9,0.4-8.6,0.4C60.9-50.1,58.9-50.4,59.2-51.4z M154-22.1v-11
			h-12.5H129v11v11h12.5H154V-22.1z M291-22.1v-11h-13h-13v11v11h13h13V-22.1z M438-22.1v-11h-12.5H413v11v11h12.5H438V-22.1z"/>
		<path id="path3505" fill="#EE4120" d="M217.8,348.4C215.1,345.3-2.1,34.1-2.7,32.5C-3.2,31.2,9.1,31,107.9,31
			c88,0,111.2,0.3,111.6,1.2c0.3,0.7,0.4,72.5,0.2,159.6C219.4,337.1,219.3,350.1,217.8,348.4z"/>
	</g>
</g>
</svg>
