<?xml version="1.0" encoding="utf-8"?>
<!-- Generator: Adobe Illustrator 16.0.0, SVG Export Plug-In . SVG Version: 6.00 Build 0)  -->
<!DOCTYPE svg PUBLIC "-//W3C//DTD SVG 1.1//EN" "http://www.w3.org/Graphics/SVG/1.1/DTD/svg11.dtd">
<svg version="1.1" id="Layer_1" xmlns="http://www.w3.org/2000/svg" xmlns:xlink="http://www.w3.org/1999/xlink" x="0px" y="0px"
	 width="611.9px" height="594.2px" viewBox="-21.6 221.8 611.9 594.2" enable-background="new -21.6 221.8 611.9 594.2"
	 xml:space="preserve">
<path fill="#271674" d="M589.9,643.3c-9.8-20.8-24.4-32.2-44.2-32.2c-1.9,0-3.9,0.1-5.8,0.3c11.8-7.5,16.8-17.1,16.8-28
	c0-3.7-0.5-7.4-1.5-11.2c-0.1-0.3-0.3-0.5-0.5-0.5c-0.3-0.1-0.5,0-0.8,0.2c-23.7,22.4-47.5,44.8-71.1,67.1c-2.4,2.7-3.9,5.1-3.9,7.5
	c0,1.5,0.8,2.8,2.1,3.8l0,0c0,0,0.1,0,0.1,0.1c0.1,0.1,0.2,0.1,0.3,0.2c0.1,0.1,0.2,0.1,0.3,0.2c7,4.5,14.1,9.1,21.1,13.6
	c-4.1,0.5-8.8,1-13.8,1.3c-10.3,0.6-20.5,1.8-30.7,2.7c-3.7,0.3-6.1,1-8.1,2.3c-2.5,1.6-3.9,3.8-3.9,6.1c0,1.5,0.6,2.9,1.8,4.1
	c0,0,0,0,0.1,0.1c0,0,0,0,0.1,0c0.4,0.4,0.9,0.8,1.4,1.1c9.7,7.5,19.8,14.9,29.6,22.3c-8.2,5.4-21.4,10.6-39.9,14.9
	c-13.1,3-28.7,5.7-46.8,7.9C494.8,624,492,534.2,499,340.8c-69.6-22.3-114.4-56.2-130.1-118.9c-27.1,0-142.1,0-169.2,0
	c-15.6,62.8-60.4,96.7-130.1,118.9c7,193.4,4.2,283.2,106.5,386.3c-18.2-2.2-33.8-4.8-46.8-7.9c-18.4-4.3-31.7-9.5-39.9-14.9
	c9.8-7.5,19.9-14.8,29.6-22.3c0.5-0.3,1-0.6,1.4-1.1c0,0,0,0,0.1,0c0,0,0,0,0.1-0.1c1.2-1.2,1.7-2.6,1.8-4.1c0-2.3-1.4-4.4-3.9-6.1
	c-2.1-1.3-4.4-1.9-8.1-2.3c-10.3-0.9-20.4-2.1-30.7-2.7c-5.1-0.3-9.7-0.8-13.8-1.3c7-4.5,13.9-9.1,21-13.6c0.1-0.1,0.2-0.1,0.3-0.2
	c0.1-0.1,0.2-0.1,0.3-0.2c0,0,0,0,0.1,0l0,0c1.3-1,2.1-2.4,2.1-3.8c0-2.4-1.5-4.8-3.9-7.4C62,616.7,38.3,594.3,14.5,572
	c-0.2-0.2-0.5-0.3-0.8-0.2c-0.3,0.1-0.5,0.3-0.5,0.5c-1,3.9-1.5,7.7-1.5,11.2c0,10.9,4.9,20.5,16.8,28c-1.9-0.2-4-0.3-5.8-0.3
	c-19.8,0-34.4,11.5-44.2,32.2c-0.1,0.3-0.1,0.6,0.1,0.9c0.2,0.2,0.5,0.3,0.9,0.2c9.5-3.9,17.1-5.8,22.8-5.8
	c9.2,0.1,13.5,4.6,14.3,14.8c0,0.8,0.1,1.6,0.1,2.5c0,4.5-0.5,10.8-1.8,16.4c-5.4,3.8-10.8,7.5-16.1,11.4c-1.7,1.1-2.9,2.5-2.9,4.3
	c0.1,3.1,3.5,6.2,11.5,9.2c10.9,4.1,25.1,5.7,40,5.7c1,0,1.9,0,3,0c0,0,0,0,0,0.1c-1.3,3.8-1.8,7.6-1.8,11.2
	c0.1,24.8,28,43.7,71.3,56.7c35,10.5,80.4,17,129.6,19.1c11,8.4,22.7,17,35.1,25.8c12.4-8.9,24.1-17.4,35.1-25.8
	c49.3-2.1,94.6-8.7,129.6-19.1c43.3-13,71.1-31.9,71.3-56.7c0-3.7-0.6-7.4-1.8-11.2c0,0,0,0,0-0.1c1,0,2.1,0,3,0
	c15,0,29.1-1.6,40-5.7c8-3,11.4-5.9,11.5-9.2c0-1.8-1.3-3.2-2.9-4.3c-5.4-3.9-10.8-7.6-16.2-11.4c-1.2-5.5-1.8-11.8-1.8-16.4
	c0-0.9,0-1.7,0.1-2.5c0.8-10.2,5.1-14.7,14.3-14.8c5.7,0,13.3,1.9,22.8,5.8c0.3,0.1,0.6,0,0.9-0.2C590,644,590.1,643.6,589.9,643.3z
	"/>
<path fill="#FFDD00" d="M97,363.4c60.7-19.4,106.1-61.4,119.7-116c23.7,0,110.8,0,134.5,0c13.6,54.7,59,96.7,119.7,116
	c-6.8,187.5-3,263.2-126.7,367.5c8.8-0.4,17.2-1,25.2-1.7c112.3-103.5,109-186.7,115.9-377.6c-65.3-20.9-110-57.2-124.7-116H207.4
	c-14.6,58.8-59.4,95.2-124.7,116c6.9,190.8,3.7,274.1,115.9,377.6c8,0.6,16.3,1.2,25.2,1.7C100.1,626.6,103.9,550.9,97,363.4z"/>
<path fill="#FFDD00" d="M275.1,790.6c2.9,2.2,5.9,4.2,8.9,6.4c3-2.2,5.9-4.2,8.9-6.4c-2.9,0-5.9,0-8.9,0
	C281,790.7,278.1,790.6,275.1,790.6z"/>
<path fill="#FFFFFF" d="M471,363.4c-60.7-19.4-106.1-61.4-119.7-116c-23.7,0-110.8,0-134.5,0c-13.6,54.7-59,96.7-119.7,116
	c6.8,187.5,3,263.2,126.7,367.5c18.3,1,38.3,1.5,60.1,1.5c21.8,0,41.8-0.5,60.1-1.5C467.9,626.6,464.1,550.9,471,363.4z"/>
<path fill="#FFDD00" d="M17.9,653.3c-0.5-10.6-5.9-16.3-15.7-16.3c-0.1,0-0.2,0-0.2,0c-5.6,0-12.8,1.7-21.4,5.2
	c9.7-19.2,23.4-29.4,41.8-29.4c3.1,0,6.4,0.3,9.7,0.9c0.4,0.1,0.8-0.1,0.9-0.5c0.1-0.3,0-0.8-0.4-1c-14.1-7.6-19.5-17.2-19.5-28.7
	c0-3,0.4-6.2,1.1-9.5C37.6,596,60.9,618,84.4,640.2c2.2,2.5,3.5,4.8,3.4,6.3c0,0.9-0.3,1.6-1.3,2.4c-4.4,0.9-8.8,1.7-12.9,1.7
	c-2.3,0-4.4-0.2-6.5-1c-4-1.1-8-1.7-11.7-1.7c-2.7,0-5.3,0.3-7.7,1.3c-1.7,0.6-2.5,1.8-3.6,2.6c0,0,0,0-0.1,0.1
	c-9.2,6.5-18.4,12.8-27.7,19.1c1-5.2,1.5-10.8,1.5-15C17.9,655,17.9,654.1,17.9,653.3z"/>
<path fill="#FFDD00" d="M566.1,636.9c-9.8-0.1-15.4,5.7-15.9,16.3c0,0.8-0.1,1.6-0.1,2.6c0,4.2,0.5,9.8,1.5,15
	c-9.3-6.4-18.5-12.7-27.7-19.1c0,0,0,0-0.1-0.1c-1.1-0.8-1.9-1.9-3.6-2.6c-2.3-0.9-4.9-1.3-7.7-1.3c-3.7,0-7.7,0.6-11.7,1.7
	c-2.1,0.6-4.3,1-6.5,1c-4.1,0-8.4-0.9-12.9-1.7c-0.9-0.8-1.2-1.5-1.3-2.4c0-1.5,1.2-3.8,3.5-6.3c23.4-22.1,46.7-44.1,70.1-66.2
	c0.8,3.2,1.1,6.5,1.1,9.5c0,11.5-5.4,21.2-19.5,28.7c-0.3,0.2-0.5,0.6-0.4,1c0.1,0.3,0.5,0.6,0.9,0.5c3.4-0.5,6.6-0.9,9.7-0.9
	c18.5,0,32.1,10.2,41.8,29.4C578.9,638.7,571.7,636.9,566.1,636.9z"/>
<path fill="#FFDD00" d="M7.4,695.7c-7.9-2.9-10.5-5.9-10.4-7.7c0-1,0.8-2.1,2.2-2.9l-0.4-0.6l0.4,0.6c15.4-11,31-21.4,46.5-32.3
	c-0.3,1-0.5,1.9-0.5,2.8c0,4.1,3.8,6.7,9.7,8.4c5.9,1.7,14.3,2.7,24.4,3.4c10.3,0.6,20.4,1.8,30.7,2.7c3.6,0.3,5.6,1,7.4,2.1
	c2.2,1.4,3.1,3.1,3.1,4.6c0,1.3-0.6,2.7-2.3,3.7c-1.6,1.1-4,1.8-7.5,1.8c-0.9,0-1.8,0-2.8-0.1c-5.6-1-13.2-2.5-19.2-2.5
	c-3.2,0-5.9,0.4-8,1.6l0,0l0,0c-9.3,6.3-19.4,13.6-28.8,20c-1.7,0-3.5,0.1-5.2,0.1C32,701.3,18,699.7,7.4,695.7z"/>
<path fill="#FFDD00" d="M560.6,695.7c-10.6,4-24.5,5.6-39.5,5.6c-1.7,0-3.5,0-5.2-0.1c-9.4-6.4-19.4-13.7-28.7-20l0,0l0,0l0,0l0,0
	c-2.1-1.3-4.8-1.6-8-1.6c-6.1,0-13.5,1.5-19.2,2.5c-1,0.1-1.8,0.1-2.8,0.1c-3.4,0-5.8-0.8-7.5-1.8s-2.3-2.4-2.3-3.7
	c0-1.5,1-3.4,3.1-4.6c1.8-1.2,3.8-1.7,7.4-2.1c10.3-0.9,20.4-2.1,30.7-2.7c10.1-0.6,18.5-1.6,24.4-3.4c5.8-1.7,9.6-4.2,9.7-8.4
	c0-0.9-0.2-1.8-0.5-2.8c15.5,11,31.1,21.3,46.5,32.3l0.4-0.6l-0.4,0.6c1.5,0.9,2.2,1.9,2.2,2.9C571.1,689.7,568.5,692.7,560.6,695.7
	z"/>
<path fill="#FFDD00" d="M448.4,769.3c-43,12.9-101.9,19.8-164.4,19.8c-62.6,0-121.3-6.9-164.4-19.8c-43.1-12.9-70.2-31.8-70.1-55.1
	c0-3.4,0.5-6.8,1.7-10.5c8.9-5.9,18.4-13,27.4-19c-0.9,1.8-1.3,3.7-1.3,5.5c0.2,11.9,17.3,22.5,51.4,30.6
	c34.2,8,85.7,13.3,155.4,13.3c69.6,0,121.2-5.3,155.4-13.3c34.1-8.1,51.1-18.7,51.4-30.6c0-1.8-0.4-3.7-1.3-5.5
	c9,6.2,18.5,13.1,27.4,19c1.2,3.6,1.7,7,1.7,10.5C518.5,737.5,491.5,756.4,448.4,769.3z"/>
<path fill="#271674" d="M394.5,735.1c-0.1,0-0.2,1.5-0.3,4.5c-0.1,1.5-0.2,3.2-0.3,4.9c-0.1,1.7-0.2,3.5-0.4,5.4
	c-0.3,4.4-0.6,7.2-0.8,8.5c-0.1,1.2-0.3,2.3-0.5,3c-0.2,0.9-0.4,1.5-0.8,2.2c-0.2,0.5-0.5,1-0.9,1.3c-0.3,0.4-0.8,0.8-1.2,1
	c-0.5,0.3-1.2,0.5-1.8,0.6c-0.8,0.1-1.5,0-2.2-0.2c-0.8-0.2-1.3-0.6-1.6-1.3c-0.3-0.6-0.6-1.4-0.8-2.4c-0.1-1-0.2-2.2-0.1-3.6
	c0-0.8,0.2-2.2,0.3-4.1c0.1-1.9,0.2-4.1,0.4-6.4c0.1-2.1,0.3-4,0.5-6.1c0.1-2.1,0.3-4,0.4-6.1c-1.8,0.2-3.2,0.4-4.3,0.5
	c-0.9,0.1-2.4,0.3-4.4,0.5c-0.1,1.8-0.2,3.8-0.3,5.6c-0.1,1.8-0.2,3.8-0.3,5.6c-0.1,2.3-0.2,4.1-0.3,5.3c-0.1,1.5-0.2,3-0.3,4.5
	c-0.2,1.7-0.3,3-0.3,4c0,0.9-0.1,1.6-0.1,2.1c0,1.4,0,2.6,0.2,3.8c0.2,1,0.4,1.8,0.8,2.6s0.9,1.4,1.5,1.9c0.8,0.6,1.7,1.2,2.7,1.6
	c1,0.4,2.2,0.8,3.5,0.9c1.4,0.1,2.9,0.1,4.3-0.1c1.7-0.2,3.4-0.6,5-1.3c1.6-0.6,3.1-1.5,4.4-2.7c1.3-1.2,2.3-2.4,3-3.7
	c0.8-1.3,1.2-2.8,1.5-4.4c0.3-1.6,0.6-4.4,0.8-8.3c0-0.2,0-0.5,0.1-1c0.2-3.4,0.5-6.7,0.9-10.1c0.2-3.4,0.5-6.7,0.8-10.2
	c-1.4,0.2-2.7,0.4-4.1,0.6C398.2,734.6,396.6,734.8,394.5,735.1z"/>
<path fill="#271674" d="M358.8,769.5c0.1-1.3,0.1-2.6,0.2-4c0.1-2.7,0.3-5.4,0.4-8.1s0.3-5.4,0.4-8.1c0.1-1.7,0.2-3.5,0.3-5.2
	c0.1-1.7,0.2-3.5,0.3-5.2c-1.8,0.2-3.1,0.3-4.1,0.4c-1.4,0.1-3,0.3-4.9,0.4c0,1.6,0,3.5-0.1,5.6c0,2.1-0.1,4.4-0.3,6.9
	c-0.1,2.6-0.2,5.1-0.4,7.7c-0.1,2.6-0.2,5.2-0.4,7.8c-0.1,1.4-0.3,3-0.4,4.9s-0.2,3.9-0.4,6.2c3.2-0.3,6.9-0.8,11.2-1.2
	c3.1-0.3,6.6-0.6,10.1-1c0.1-2.9,0.3-5.7,0.5-8.7c-1.7,0.3-4.4,0.6-7.9,1C362.6,769.2,361.2,769.3,358.8,769.5z"/>
<path fill="#271674" d="M335.3,750.7c1.5-1.1,3-1.7,4.9-1.8c0.9-0.1,1.7,0,2.7,0.1c1,0.1,2.3,0.4,3.8,0.8c-0.1-1.1-0.1-2.2-0.1-3.2
	c-0.1-1.3-0.1-2.4-0.1-3.5c0-0.8,0-1.6,0-2.4c-2.9-0.5-5.4-0.6-7.4-0.5c-2.2,0.1-4.3,0.8-6.4,1.6c-2.1,1-3.9,2.4-5.6,4.3
	c-1.6,1.9-3,4.2-3.9,7c-1,2.8-1.3,5.8-1.4,9.3c0,2.9,0.2,5.5,0.9,7.9c0.6,2.3,1.7,4.3,3.2,6.1c1.5,1.7,3.2,2.9,5.1,3.5
	c1.9,0.6,3.9,0.9,6.1,0.8c2.3-0.2,4.8-0.6,7.6-1.4c0.1-1.1,0.2-2.7,0.5-4.6c0.2-2.1,0.5-3.6,0.6-4.8c-1.6,0.8-3,1.3-4.2,1.5
	c-1.1,0.3-2.2,0.4-3.1,0.5c-1.7,0.1-3.1-0.2-4.3-1s-2.2-1.8-2.8-3.4c-0.8-1.5-1-3.4-1-5.5c0-2.4,0.4-4.5,1.3-6.6
	C332.7,753.4,333.7,751.9,335.3,750.7z"/>
<path fill="#271674" d="M430.3,731.9c-0.4-0.5-1-1-1.7-1.3c-0.6-0.3-1.5-0.4-2.5-0.4c-0.8,0-1.9,0.1-3.7,0.4c-1.4,0.2-3.1,0.5-5.1,1
	c-1.9,0.4-3.7,0.8-5.2,1c-1.1,0.1-2.5,0.3-4.3,0.5c0,1.5-0.1,2.7-0.1,3.5c0,1.2,0,2.7-0.1,4.8c-0.1,1.9-0.2,4.4-0.4,7.2
	c-0.2,2.8-0.3,5.4-0.5,7.6c-0.1,2.3-0.2,4.1-0.4,5.7c-0.2,2.4-0.4,5.6-0.8,9.8c1.3-0.2,2.6-0.4,3.9-0.6c1.7-0.3,3.6-0.5,5.3-0.9
	c2.1-0.3,4-0.8,5.8-1.2c1.8-0.4,3.1-0.8,3.9-1.1c0.9-0.3,1.7-0.9,2.5-1.6c0.8-0.6,1.5-1.4,2.1-2.4c0.6-1,1.1-2.2,1.5-3.5
	c0.4-1.3,0.5-2.7,0.6-4.1c0-1.1,0.1-1.9-0.1-2.9c-0.2-0.9-0.4-1.6-0.8-2.4c-0.3-0.6-0.8-1.2-1.2-1.6c-0.5-0.4-0.9-0.6-1.3-0.8
	c-0.4-0.1-1-0.2-1.7-0.2c0.8-0.4,1.3-0.9,1.7-1.2c0.4-0.3,1-0.9,1.4-1.4s0.9-1.3,1.3-2.1c0.4-0.9,0.8-1.7,1-2.7c0.2-1,0.3-2.1,0.4-3
	c0.1-1.4,0-2.6-0.3-3.8C431.3,733.4,430.8,732.5,430.3,731.9z M422.6,758.7c-0.2,0.6-0.4,1.1-0.8,1.5s-0.8,0.8-1.4,1.1
	c-0.5,0.2-1.2,0.5-2.3,0.6c-1.3,0.2-2.6,0.4-3.8,0.6c0.2-2.7,0.3-5.4,0.5-8.1c1.4-0.2,2.8-0.5,4.2-0.8c0.9-0.2,1.6-0.2,2.1-0.2
	c0.4,0.1,0.8,0.2,1.1,0.4s0.5,0.6,0.6,1.1s0.2,1,0.1,1.6C422.9,757.4,422.8,758,422.6,758.7z M423.2,742.9c-0.1,0.5-0.3,1-0.6,1.4
	s-0.6,0.8-1,1c-0.4,0.2-0.8,0.4-1.2,0.5s-1.1,0.3-2.1,0.4c-1,0.2-1.9,0.3-2.9,0.5c0.2-2.5,0.3-5.1,0.5-7.6c1.2-0.2,2.4-0.4,3.7-0.6
	c1.1-0.2,1.8-0.2,2.4,0c0.5,0.2,1,0.5,1.1,1c0.2,0.5,0.3,1.1,0.2,1.8C423.4,741.9,423.4,742.4,423.2,742.9z"/>
<path fill="#271674" d="M297.1,773c0-1.3,0-2.6,0-3.9c0-2.6,0.2-5.3,0.2-8c0-2.6,0.2-5.3,0.3-8c0-1.7,0.1-3.4,0.2-5.1
	c0-1.7,0.1-3.4,0.3-5.1c-1.8,0.1-3.1,0.1-4.1,0.1c-1.4,0-3,0-4.9,0c0,1.6,0,3.5-0.1,5.5c0,2.1,0,4.3-0.1,6.8c0,2.5-0.1,5.1-0.2,7.6
	c-0.1,2.5-0.2,5.1-0.3,7.6c-0.1,1.4-0.2,3-0.3,4.8c-0.1,1.8-0.2,3.8-0.4,5.9c3.2-0.1,6.9-0.1,11.2-0.2c3.1,0,6.5,0,10.1-0.1
	c0.1-2.8,0.3-5.7,0.4-8.5c-1.7,0.2-4.4,0.3-8,0.4C300.9,773,299.4,773,297.1,773z"/>
<path fill="#271674" d="M449.4,725.9c-4.5,0.9-8.4,1.6-11.7,2.3c0,0.9,0,1.6,0,2.5s-0.1,2.2-0.2,4c-0.1,1.7-0.2,4-0.4,6.7
	c-0.2,2.7-0.4,5.1-0.6,7.2c-0.2,2.2-0.3,4.1-0.5,5.6c-0.2,1.6-0.3,3.5-0.5,5.5c-0.2,2.1-0.4,4.2-0.6,6.7c1-0.2,1.9-0.4,2.9-0.6
	c2.9-0.6,5.8-1.4,8.9-2.1c3.9-0.9,7.6-1.7,10.9-2.4c0.1-2.9,0.4-5.7,0.6-8.4c-1.4,0.4-2.5,0.8-3.1,0.9c-1.4,0.3-2.8,0.8-4.2,1.1
	c-2.2,0.5-3.7,0.9-4.3,1.1c-0.8,0.2-1.5,0.3-2.3,0.5c0.2-2.3,0.4-4.5,0.6-6.8c2.3-0.6,4.4-1.2,6.3-1.5c1.3-0.3,3.1-0.6,5.4-1.1
	c0.3-3.2,0.6-6.1,0.9-8.4c-3.4,0.9-5.4,1.3-6.2,1.5c-2.2,0.4-4,0.8-5.6,1.1c0.2-2.2,0.4-4.2,0.5-6.4c1.4-0.3,2.6-0.6,3.2-0.8
	c0.6-0.1,2.1-0.4,4-0.9c1.7-0.3,4-0.8,6.6-1.1c0-0.6,0.1-1.3,0.1-1.9c0.1-1,0.1-2.1,0.2-3c0.1-1.4,0.2-2.2,0.2-2.4
	c0-0.3,0-0.6,0.1-0.9C457.4,724.3,453.7,725.1,449.4,725.9z"/>
<path fill="#271674" d="M247.3,764.3c-0.3-0.8-0.8-1.4-1.3-1.8c-0.5-0.5-1-0.9-1.4-1.1c-0.4-0.2-1-0.4-1.7-0.6
	c0.8-0.2,1.2-0.5,1.6-0.8c0.4-0.2,0.9-0.6,1.3-1.1s0.8-1.1,1.1-1.8c0.3-0.8,0.6-1.5,0.8-2.5c0.1-1,0.2-1.9,0.2-3
	c0-1.3-0.2-2.6-0.5-3.8c-0.3-1.1-0.8-1.9-1.3-2.7c-0.4-0.6-1.1-1.2-1.7-1.6s-1.5-0.8-2.5-1c-0.8-0.1-1.8-0.3-3.6-0.3
	c-1.4,0-3.1-0.1-5.1-0.1c-1.9-0.1-3.7-0.1-5.1-0.2c-1.1-0.1-2.5-0.2-4.2-0.4c0,1.4,0,2.6,0.1,3.4c0,1.1,0,2.6,0,4.5s0,4.2,0,6.9
	s0,5.1,0,7.2c0,2.2,0.1,4,0,5.5c-0.1,2.3-0.1,5.4-0.4,9.4c1.3,0.1,2.5,0.2,3.9,0.3c1.7,0.1,3.5,0.3,5.3,0.4c2.1,0.2,4,0.3,5.8,0.3
	c1.8,0.1,3.1,0.1,3.8,0c0.9-0.1,1.7-0.4,2.5-1s1.4-1.1,1.9-1.8c0.5-0.9,1.1-1.8,1.4-3.1c0.3-1.2,0.4-2.5,0.4-3.9
	c0-1-0.1-1.9-0.3-2.9C248.1,765.8,247.7,765.1,247.3,764.3z M232.1,749.2c1.2,0.1,2.5,0.2,3.7,0.2c1.1,0.1,1.8,0.2,2.4,0.5
	c0.5,0.3,1,0.6,1.2,1.2c0.2,0.5,0.3,1.2,0.3,1.8c0,0.4,0,1-0.1,1.4c-0.1,0.4-0.3,0.9-0.5,1.3c-0.3,0.3-0.6,0.6-1,0.8
	c-0.3,0.1-0.8,0.2-1.1,0.3c-0.4,0-1.1,0-2.1,0c-1-0.1-1.9-0.1-2.9-0.2C232,754,232,751.6,232.1,749.2z M240.1,769.8
	c-0.2,0.5-0.4,1-0.6,1.3c-0.3,0.3-0.8,0.5-1.3,0.6c-0.5,0.1-1.2,0.1-2.3,0.1c-1.3-0.1-2.6-0.2-3.8-0.3c0-2.6,0-5.2,0-7.8
	c1.4,0.1,2.8,0.2,4.2,0.3c0.9,0.1,1.6,0.1,2.1,0.3c0.4,0.2,0.8,0.4,1.1,0.8c0.3,0.3,0.5,0.8,0.6,1.2c0.1,0.4,0.2,1,0.3,1.6
	C240.3,768.6,240.3,769.3,240.1,769.8z"/>
<path fill="#271674" d="M165.4,744.1c0-3.1,0-6.3,0.2-9.3c-1.4-0.2-2.7-0.4-4.1-0.8c-1.2-0.2-2.8-0.5-4.9-0.9
	c-0.1,0-0.1,1.4-0.1,4.2c0,1.4,0,2.9,0.1,4.5c0,1.6,0,3.2,0,5c0,4.1,0,6.7,0,7.8s-0.2,2.1-0.3,2.7c-0.1,0.8-0.4,1.3-0.6,1.7
	s-0.4,0.8-0.8,1c-0.3,0.3-0.8,0.4-1.2,0.5c-0.5,0.1-1.1,0.1-1.7,0c-0.8-0.1-1.5-0.4-2.3-0.9s-1.3-1.1-1.7-1.7
	c-0.4-0.8-0.8-1.5-1-2.5s-0.4-2.1-0.4-3.5c0-0.6,0-1.9-0.1-3.8c-0.1-1.8-0.1-3.8-0.1-5.9c0-1.8,0-3.7,0-5.6c0-1.8,0-3.7,0.1-5.5
	c-1.8-0.3-3.2-0.6-4.3-0.9c-0.9-0.2-2.4-0.5-4.5-1c-0.1,1.7-0.1,3.5,0,5.2c0,1.7,0,3.5,0.1,5.2c0.1,2.2,0.1,3.8,0.1,4.9
	c0,1.4,0,2.8,0,4.2c0,1.6,0,2.8,0,3.7s0.1,1.5,0.1,1.9c0.1,1.3,0.2,2.5,0.5,3.6c0.2,1,0.6,1.9,1,2.7c0.4,0.8,1,1.6,1.7,2.4
	c0.8,0.9,1.7,1.7,2.8,2.5c1,0.8,2.2,1.4,3.6,1.9c1.4,0.5,2.9,1,4.3,1.3c1.7,0.3,3.4,0.4,5,0.4c1.6-0.1,3-0.4,4.3-1.1
	c1.2-0.6,2.2-1.5,2.8-2.5c0.6-1,1.1-2.3,1.3-3.7c0.2-1.5,0.2-4,0.1-7.7c0-0.2,0-0.5,0-0.9C165.4,750.3,165.4,747.1,165.4,744.1z"/>
<path fill="#271674" d="M193.8,738.7c-0.9-0.1-1.7-0.1-2.6-0.2c-1.6-0.2-3.2-0.4-4.9-0.6c-1.7-0.2-3.4-0.4-5.1-0.6
	c-5.1-0.6-9.6-1.3-13.4-1.9c0,1.8,0,3.6,0,5.2c0,1,0,1.9,0,2.9c2.8,0.4,5.7,0.8,8.6,1c0.1,5.2,0.2,10.2,0.2,14.9
	c0,4.8,0,9.2-0.2,13.5c2.5,0.3,4,0.5,4.6,0.6c0.6,0.1,2.1,0.3,4.2,0.6c0-2.3,0-5.1,0-8.8c0-1.8-0.1-3.6-0.2-5.5
	c-0.1-1.8,0-3.7,0-5.6c0-2.6,0-5.5,0-8.7c0.4,0.1,0.9,0.1,1.4,0.2c1.9,0.2,4.3,0.6,7.1,1.2c0-0.4,0-1.2,0-2.1c0-1,0-2.1,0-3.5
	C193.8,740.4,193.8,739.5,193.8,738.7z"/>
<path fill="#271674" d="M196.7,738.9c0,0.8,0,1.6,0,2.4c0,0.9,0,2.2,0,3.8c0,1.7,0.1,3.9,0.1,6.4c0,2.6,0,4.9,0,6.9
	c0,2.1,0,3.9,0,5.4s-0.1,3.2-0.1,5.2c0,1.9-0.1,4-0.3,6.3c1,0.1,1.9,0.2,2.8,0.3c2.9,0.3,5.8,0.6,8.9,1c3.9,0.4,7.5,0.9,10.7,1.3
	c0-2.8,0.1-5.6,0.2-8.2c-1.5,0-2.4-0.1-3-0.1c-1.4-0.1-2.8-0.2-4.1-0.3c-2.2-0.2-3.6-0.3-4.2-0.3c-0.8-0.1-1.5-0.2-2.3-0.2
	c0-2.2,0-4.3,0-6.5c2.3,0.1,4.3,0.3,6.2,0.4c1.3,0.1,3,0.3,5.3,0.6c0-3.1,0-5.9,0.1-8.2c-3.2-0.1-5.2-0.3-5.9-0.3
	c-2.2-0.2-4-0.4-5.5-0.6c0-2.1,0-4.1,0-6.2c1.4,0.1,2.5,0.1,3.1,0.2c0.8,0.1,2.1,0.2,4,0.4c1.7,0.2,3.9,0.4,6.5,0.8
	c0-0.6,0-1.3,0-1.9c0-1,0-1.9,0-2.9c0-1.4,0.1-2.2,0.1-2.4c0-0.3,0-0.6,0-0.9c-3.1-0.2-6.8-0.4-11-0.9
	C203.8,739.8,199.9,739.3,196.7,738.9z"/>
<path fill="#271674" d="M280.1,747.6c-1.5-1.7-3.2-3-5.3-3.9c-2.1-0.9-4-1.3-6.2-1.3c-3.4,0-6.5,0.8-9.2,2.5c-2.6,1.6-4.6,4-5.9,6.9
	c-0.6,1.5-1.2,3.1-1.4,4.9c-0.2,1.7-0.4,3.7-0.4,5.6c0,2.7,0.4,5.2,1.2,7.6c0.6,2.3,1.8,4.3,3.4,6.3s3.4,3.4,5.4,4.2
	c2.1,0.9,4.2,1.4,6.5,1.4c2.3,0,4.4-0.3,6.5-1.1c2.1-0.9,3.9-2.1,5.4-3.9c1.5-1.8,2.7-4,3.5-6.6c0.8-2.6,1.2-5.5,1.2-8.7
	c0-3-0.4-5.6-1.2-7.9C282.8,751.3,281.6,749.4,280.1,747.6z M275.1,767.6c-0.6,1.8-1.5,3.2-2.8,4.3c-1.2,1-2.6,1.5-4,1.5
	c-1.4,0-2.7-0.5-4-1.4c-1.3-1-2.2-2.3-2.8-3.9c-0.6-1.6-1-3.5-1-5.4c0-2.2,0.2-4.1,0.9-5.9s1.6-3.2,2.8-4.3c1.2-1,2.6-1.5,4.1-1.5
	c1.5,0,2.8,0.5,3.9,1.4c1.2,1,2.1,2.3,2.7,3.9c0.6,1.7,1,3.6,1,5.5C276,763.8,275.8,765.7,275.1,767.6z"/>
<path fill="#271674" d="M123.4,726.2c-3.6-0.9-7.4-1.9-11.5-3c0,1,0,1.9,0,2.9c0,1,0.1,2.4,0.2,4.3c0.1,1.9,0.2,4.3,0.3,7.1
	s0.2,5.4,0.3,7.6c0.1,2.3,0.2,4.1,0.2,5.7c0,2.2,0,5.1-0.2,8.7c2.8,0.6,4.4,1,4.8,1.1c1.5,0.3,2.9,0.8,4.3,1.1c0-0.4,0-0.8,0-1.2
	c-0.1-1.2-0.1-2.4-0.1-3.6c0-1.6-0.1-3.2-0.1-4.8c0-1.6-0.2-3.1-0.3-4.8c2.2,0.4,4,0.9,5.8,1.3c1.1,0.2,2.7,0.6,4.9,1.3
	c-0.1-1.9-0.2-4.5-0.3-7.9c-1.9-0.3-3.4-0.6-4.3-0.9c-1.1-0.3-2.3-0.5-3.4-0.9c-1-0.3-2.1-0.5-3-0.8c-0.1-2.1-0.1-4.1-0.2-6.2
	c2.3,0.5,3.7,0.9,4.1,1c1.3,0.3,2.6,0.6,4,1c0.4,0.1,1,0.2,1.4,0.3c0.5,0.1,1,0.2,1.4,0.3c0.5,0.1,1.2,0.3,1.7,0.4
	c-0.1-1.3-0.1-3.9,0-7.9C130.5,728,127,727.2,123.4,726.2z"/>
<path fill="#271674" d="M269.5,379.2c-2.5-2.9-5.8-4.8-9.7-5.9c-3.7-1.1-7.6-1.6-11.8-1.6c-3.6,0-7.2,0.2-10.9,0.8
	c-3.8,0.5-8.1,1.4-12.9,2.6c-1.9,0.4-3.4,2.1-3.6,4c-0.3,2.2-0.5,3.8-0.6,5c-0.1,0.9-0.4,2.6-0.9,5.2c-0.3,1.7,0.3,3.6,1.7,4.6
	c1.4,1.1,3.2,1.4,4.9,0.6c7.1-3,13.3-4.4,18.7-4.4c1.3,0,2.4,0.1,3.2,0.4c0.6,0.2,0.9,0.3,1.1,0.6c0,0.1,0,0,0.1,0.4
	c0,0.1,0,0.1,0,0.2v0.1c0,0-0.1,0.2-0.3,0.4s-0.4,0.4-0.9,0.5c-0.5,0.2-1.4,0.5-2.7,1c-1.3,0.3-2.5,0.6-3.7,1
	c-5.1,1.2-9.1,2.3-12.4,3.6c-3.2,1.2-5.8,2.5-8,4.1c-1.8,1.4-3.5,2.9-4.8,4.5c-1.3,1.7-2.4,3.7-3,5.7c-0.6,1.9-1,4.1-1,6.2
	c0,3.6,0.9,7,2.5,10.3c1.7,3.7,4.8,6.6,8.5,8.2c3.6,1.6,7.8,2.3,12.5,2.3c1.4,0,2.8-0.1,4.4-0.2c1.7-0.1,3.8-0.4,6.3-0.9
	c1.1-0.2,1.9-0.8,2.6-1.4c0.9,0.8,2.1,1.2,3.4,1.2c2.8-0.1,5.2-0.1,7.2-0.1c2.2,0,4.4,0,7,0.1c1.3,0,2.6-0.4,3.5-1.4
	c1-0.9,1.5-2.2,1.5-3.5c0.1-9,0.4-17.7,1-26.2c0.5-8.5,0.9-13.7,0.9-16.2C273.3,386.6,272.2,382.4,269.5,379.2z M248.4,417.9
	c0,0.5-0.1,1.2-0.1,1.7c-0.6,0-1.3,0-1.9,0.2c-1.8,0.6-3.4,1.1-3.9,1.1c-1.1,0.2-1.9,0.2-2.8,0.2c-1.3,0-2.3-0.2-2.9-0.4
	c-0.3-0.1-0.5-0.2-0.9-0.6c-0.2-0.2-0.2-0.4-0.3-1.1c0-0.4,0.1-0.6,0.1-0.9V418c0-0.1,0.1-0.3,0.5-0.8c0.3-0.3,0.9-0.8,1.6-1.2
	s1.6-0.9,2.8-1.3c1.1-0.4,2.8-1,4.9-1.5c1.3-0.3,2.3-0.6,3.1-1L248.4,417.9z"/>
<path fill="#271674" d="M380.3,379.2c-2.5-2.9-5.8-4.8-9.6-5.9c-3.7-1.1-7.6-1.6-11.8-1.6c-3.6,0-7.2,0.2-10.9,0.8
	c-3.8,0.5-8.1,1.4-12.9,2.6c-1.9,0.4-3.4,2.1-3.6,4c-0.3,2.2-0.5,3.8-0.6,5c-0.1,0.9-0.4,2.6-0.9,5.2c-0.3,1.7,0.3,3.6,1.7,4.6
	c1.4,1.1,3.2,1.4,4.9,0.6c7.1-3,13.3-4.4,18.7-4.4c1.3,0,2.4,0.1,3.2,0.4c0.6,0.2,0.9,0.3,1.1,0.6c0,0.1,0,0,0.1,0.4
	c0,0.1,0,0.1,0,0.2v0.1c0,0-0.1,0.2-0.3,0.4c-0.2,0.2-0.4,0.4-0.8,0.5c-0.5,0.2-1.4,0.5-2.7,1c-1.3,0.3-2.5,0.6-3.7,1
	c-5.1,1.2-9.1,2.3-12.4,3.6c-3.2,1.2-5.8,2.5-8,4.1c-1.8,1.4-3.5,2.9-4.8,4.5c-1.3,1.7-2.4,3.7-3,5.7c-0.4,1.3-0.8,2.7-0.9,4.1
	c-1.3-0.9-2.9-1.1-4.4-0.5c-2.3,0.9-4.3,1.5-6.2,1.8c-2.1,0.4-3.6,0.5-4.8,0.5c-2.4,0-4.3-0.5-6.1-1.4c-1.6-1-2.5-1.9-3.1-3.5
	c-0.8-1.8-1.2-4.2-1.2-7.2c0-2.1,0.2-4,0.8-6.1c0.4-1.7,1.2-3.1,2.3-4.4c1.1-1.3,2.1-2.1,3.5-2.6c1.5-0.6,3-0.9,4.8-0.9
	c3,0,6.9,0.8,11.7,2.5c1.5,0.5,3.2,0.3,4.5-0.6s2.1-2.6,1.9-4.2l-0.8-12c-0.1-2.1-1.6-3.9-3.6-4.4c-3.4-0.9-6.4-1.5-9-1.7
	c-2.5-0.3-5-0.4-7.5-0.4c-4.4,0-8.5,0.5-12.3,1.6c-4.1,1.2-7.8,3.6-10.9,6.7c-3.2,3.2-5.6,7.5-7.2,12.2c-1.5,4.8-2.3,9.6-2.3,14.7
	c0,3.9,0.4,7.7,1.4,11.2c1,3.8,2.4,7.1,4.5,9.9c1.9,2.7,4.4,5.1,7.1,6.8c2.7,1.7,5.6,2.9,8.8,3.6c2.9,0.6,5.8,1,9,1
	c5.2,0,10.4-0.6,15.6-1.9c1.9-0.4,3.4-2.1,3.7-4.1c0.3-2.7,0.8-5.1,1.1-6.8l0,0c0.3,0.9,0.6,1.6,1.1,2.4c1.7,3.7,4.8,6.6,8.5,8.2
	c3.6,1.6,7.8,2.3,12.5,2.3c1.4,0,2.8-0.1,4.4-0.2c1.7-0.1,3.8-0.4,6.3-0.9c1.1-0.2,1.9-0.8,2.6-1.4c0.9,0.8,2.1,1.2,3.4,1.2
	c2.8-0.1,5.2-0.1,7.2-0.1c2.2,0,4.4,0,7,0.1c1.3,0,2.6-0.4,3.5-1.4c1-0.9,1.5-2.2,1.5-3.5c0.1-9,0.4-17.7,1-26.2
	c0.5-8.5,0.9-13.7,0.9-16.2C384.1,386.6,383,382.4,380.3,379.2z M359.3,417.9c0,0.5-0.1,1.2-0.1,1.7c-0.6,0-1.3,0-1.9,0.2
	c-1.8,0.6-3.4,1.1-3.9,1.1c-1.1,0.2-1.9,0.2-2.8,0.2c-1.3,0-2.3-0.2-2.9-0.4c-0.3-0.1-0.5-0.2-0.9-0.6c-0.2-0.2-0.3-0.4-0.3-1.1
	c0-0.4,0.1-0.6,0.1-0.9V418c0-0.1,0.2-0.3,0.5-0.8c0.3-0.3,0.9-0.8,1.6-1.2s1.6-0.9,2.8-1.3c1.1-0.4,2.8-1,4.9-1.5
	c1.3-0.3,2.3-0.6,3.1-1L359.3,417.9z"/>
<path fill="#271674" d="M212.2,393.7c0.2-12.7,0.5-24.2,1.1-34.7c0.1-1.3-0.4-2.6-1.4-3.6c-1-1-2.3-1.5-3.6-1.5
	c-4.6,0.1-8,0.1-10.1,0.1c-3.1,0-6.7,0-10.8-0.1c-2.2,0-4.1,1.4-4.8,3.5c-0.9,2.9-1.4,5-1.8,6.1c-0.3,1.1-0.6,1.9-1,2.7l-10.1,26.1
	l-0.1,0.2l-1.5,4.5c-1.4-5.7-3-11.6-4.9-17.4c-1.3-3.9-2.3-7.1-3-9.8c-0.8-2.7-1.3-4.6-1.5-5.7c-0.2-1.1-0.6-3.1-1.2-6.1
	c-0.4-2.4-2.5-4-4.9-4c-4.8,0.1-8.1,0.1-9.8,0.1c-2.2,0-5.7,0-10.6-0.1c-2.6,0-4.8,1.9-5,4.5l-1.2,18.9l-3.4,43.3l-1.3,12.3
	c-0.1,1.4,0.3,2.8,1.3,3.8c1,1.1,2.3,1.6,3.7,1.6c3.2-0.1,5.5-0.1,6.5-0.1l6.6,0.1c1.3,0,2.5-0.4,3.5-1.4c1-0.9,1.4-2.2,1.5-3.5
	c0-3.2,0.1-5.7,0.1-7.2l0,0l1.4-23.5l8.3,31.9c0.5,2.2,2.6,3.7,4.8,3.7c3.2-0.1,5.6-0.1,7.1-0.1c1.2,0,3.5,0,6.7,0.1
	c2.2,0,4-1.3,4.8-3.2l2.2-6.5l9.1-25.4l-0.5,21.1c-0.1,2.4-0.2,5.4-0.4,9.1c-0.1,1.3,0.4,2.7,1.4,3.7c0.9,1,2.2,1.5,3.5,1.5h0.1
	c2.9-0.1,5.3-0.1,6.9-0.1c1.2,0,3.5,0,6.8,0.1c1.3,0,2.6-0.4,3.6-1.4c1-1,1.4-2.2,1.4-3.6c-0.1-4.5-0.1-8.3-0.1-11.2
	C211.9,415.8,212,406.3,212.2,393.7z"/>
<path fill="#271674" d="M444.2,388.2c-1.4-3.6-3.4-6.7-6.1-9.3c-2.7-2.7-6.2-4.6-9.9-5.7c-1-0.3-1.9-0.5-3-0.8l3.8-5.5
	c1.1-1.6,2.7-4,5-6.9c1.1-1.5,1.3-3.5,0.4-5.2c-0.9-1.6-2.6-2.7-4.4-2.6c-3.2,0.1-5.7,0.1-7.6,0.1c-2.3,0-4.8,0-7.6-0.1
	c-2.1-0.1-3.9,1.2-4.6,3.1c-0.5,1.4-1.1,2.8-1.6,4.3c-0.5,1.6-1,2.8-1.4,3.9l-1.8,5.1c-0.5,1.5-0.3,3.2,0.5,4.5
	c-0.4,0.1-0.9,0.2-1.2,0.3c-4.1,1.4-7.9,3.7-11,6.9c-3.2,3.2-5.6,7.4-7.2,12.1c-1.6,4.8-2.5,9.6-2.5,14.6c0,4.5,0.8,9,2.2,13.2
	c1.5,4.3,3.9,8.2,7.1,11.2c3.2,3,7.1,5.3,11.4,6.4c4,1.1,8.4,1.6,13.3,1.6c2.8,0,5.5-0.1,8.2-0.4c2.8-0.3,6.1-1,9.8-1.8
	c1.9-0.4,3.5-2.1,3.7-4c0.9-5.5,1.4-9.4,1.8-11.4c0.3-1.7-0.2-3.5-1.5-4.6c-1.3-1.2-3.1-1.5-4.8-1c-3.7,1.3-6.7,2.2-9.2,2.6
	c-2.5,0.5-4.8,0.8-6.7,0.8c-1.5,0-3-0.2-4.6-0.8c-1.4-0.4-2.5-1.1-3.5-2.1c-1-1-1.7-2.1-2.3-3.4c-0.4-1.1-0.6-2.2-0.8-3.4h32.8
	c2.4,0,4.3-1.7,4.8-4c0.3-2.1,0.5-4.1,0.5-6.2C446.3,395.8,445.7,391.8,444.2,388.2z M410.4,394.1L410.4,394.1
	c0.4-0.6,1-1.3,1.7-1.8s1.5-1,2.3-1.3c0.9-0.3,1.7-0.4,2.6-0.4c0.9,0,1.6,0.1,2.3,0.3c0.5,0.1,1.1,0.4,1.4,0.6s0.6,0.5,1,0.9
	c0.3,0.4,0.5,0.9,0.8,1.5c0,0.1,0.1,0.2,0.1,0.3L410.4,394.1z"/>
<path fill="#FFFFFF" d="M259.5,374.4c-3.6-1.1-7.4-1.5-11.4-1.5c-3.5,0-7.1,0.2-10.8,0.8c-3.8,0.5-8,1.3-12.8,2.6
	c-1.4,0.3-2.5,1.5-2.7,3c-0.3,2.2-0.5,3.8-0.6,5c-0.1,0.9-0.4,2.7-0.9,5.3c-0.2,1.3,0.2,2.7,1.3,3.5c1.1,0.9,2.5,1.1,3.7,0.5
	c7.2-3,13.6-4.4,19.2-4.4c1.4,0,2.6,0.1,3.6,0.4c0.9,0.2,1.3,0.5,1.6,1c0.2,0.3,0.3,0.5,0.4,1.2c0,0.2,0,0.4-0.1,0.6
	c-0.1,0.2-0.3,0.5-0.6,0.9c-0.3,0.3-0.6,0.5-1.2,0.9c-0.5,0.2-1.5,0.6-2.8,1c-1.3,0.4-2.6,0.8-3.8,1c-5,1.2-9.1,2.3-12.2,3.5
	c-3.1,1.2-5.7,2.5-7.7,3.9c-1.8,1.4-3.4,2.8-4.5,4.3c-1.3,1.6-2.3,3.5-2.8,5.3c-0.6,1.8-1,3.8-1,5.8c0,3.4,0.9,6.6,2.4,9.7
	c1.6,3.5,4.4,6.1,7.9,7.7c3.5,1.5,7.5,2.2,12.1,2.2c1.4,0,2.8-0.1,4.3-0.2c1.6-0.1,3.7-0.4,6.2-0.9c1.3-0.2,2.4-1.2,2.8-2.4
	c0.1,0.3,0.3,0.6,0.6,1c0.8,0.8,1.7,1.2,2.8,1.2c2.8-0.1,5.2-0.1,7.2-0.1c2.2,0,4.5,0,7,0.1c1,0,1.9-0.3,2.6-1
	c0.6-0.6,1.1-1.6,1.1-2.6c0.1-9,0.4-17.7,1-26.2c0.5-8.5,0.9-13.8,0.9-16.1c0-4.3-1-8.2-3.6-11.1
	C266.3,377.3,263.1,375.5,259.5,374.4z M249.6,418c0,1.1-0.1,2.2-0.2,3.1c-0.9-0.3-1.8-0.4-2.7-0.1c-1.9,0.6-3.5,1.1-4.2,1.2
	c-1.1,0.2-2.1,0.2-2.9,0.2c-1.4,0-2.5-0.2-3.2-0.4c-0.5-0.2-1-0.5-1.4-1.1c-0.3-0.4-0.5-0.9-0.5-1.7c0-0.5,0.1-1,0.2-1.3
	c0.1-0.3,0.3-0.8,0.8-1.2s1.1-1,1.8-1.4c0.9-0.4,1.8-1,2.9-1.4c1.2-0.4,2.8-1,5-1.6c2.2-0.6,3.8-1.2,4.6-1.5h0.1L249.6,418z"/>
<path fill="#FFFFFF" d="M443.1,388.7c-1.3-3.5-3.2-6.4-5.7-8.9c-2.6-2.6-5.8-4.4-9.5-5.5c-1.6-0.4-3.2-0.9-5-1.1
	c0.3-0.2,0.6-0.5,0.9-0.9l4.2-6.2c1.1-1.6,2.8-4,5.1-7c0.9-1.1,1-2.6,0.3-3.9c-0.6-1.2-1.9-2.1-3.4-1.9c-3.2,0.1-5.7,0.1-7.6,0.1
	c-2.3,0-4.9,0-7.6-0.1c-1.5,0-2.9,0.9-3.5,2.4c-0.5,1.4-1.1,2.8-1.6,4.3c-0.5,1.6-1,2.9-1.4,4l-1.8,5c-0.4,1.2-0.2,2.4,0.4,3.5
	c0.4,0.5,1,1,1.6,1.3c-1.2,0.2-2.4,0.5-3.5,1c-3.9,1.3-7.5,3.6-10.5,6.6c-3,3.1-5.4,7-7,11.7c-1.6,4.5-2.4,9.3-2.4,14.3
	c0,4.4,0.6,8.8,2.1,12.8c1.4,4.2,3.8,7.8,6.8,10.8c3.1,2.9,6.8,5,10.9,6.2c3.9,1.1,8.2,1.5,13,1.5c2.7,0,5.4-0.1,8-0.4
	c2.7-0.3,5.9-0.9,9.7-1.7c1.5-0.3,2.6-1.5,2.8-3c0.9-5.5,1.4-9.4,1.8-11.4c0.2-1.3-0.2-2.6-1.2-3.5c-1-0.9-2.4-1.1-3.6-0.8
	c-3.7,1.3-6.8,2.2-9.3,2.7c-2.6,0.5-4.9,0.8-6.9,0.8c-1.6,0-3.2-0.2-5.1-0.9c-1.6-0.5-2.8-1.3-4-2.3c-1.1-1.1-1.9-2.3-2.5-3.9
	c-0.5-1.5-0.9-3.1-1-5.1h34.1c1.7,0,3.2-1.3,3.6-3c0.3-2.1,0.5-4,0.5-5.9C445.1,395.9,444.5,392.1,443.1,388.7z M409.4,393.4
	c0.5-0.8,1.1-1.5,1.9-2.2c0.9-0.6,1.7-1.2,2.6-1.5c1-0.3,1.9-0.5,3-0.5c1,0,1.8,0.1,2.5,0.3c0.8,0.2,1.3,0.4,1.7,0.8
	c0.4,0.3,0.9,0.6,1.2,1.2c0.3,0.5,0.6,1.1,1,1.8c0.2,0.8,0.4,1.4,0.4,1.9h-15.5C408.7,394.7,409,394.1,409.4,393.4z"/>
<path fill="#FFFFFF" d="M319,417.3c-2.3,0.9-4.4,1.5-6.4,1.8c-2.1,0.4-3.8,0.5-5,0.5c-2.6,0-4.8-0.5-6.6-1.6
	c-1.8-1.1-2.9-2.3-3.6-4.1c-0.8-2.1-1.3-4.5-1.3-7.7c0-2.2,0.3-4.2,0.9-6.4c0.5-1.9,1.3-3.5,2.5-4.9c1.2-1.4,2.4-2.3,3.9-2.9
	c1.6-0.6,3.4-1,5.2-1c3.2,0,7.2,0.8,12.1,2.6c1.2,0.4,2.5,0.2,3.5-0.5c1-0.8,1.5-1.9,1.4-3.1l-0.8-12c-0.1-1.6-1.2-2.9-2.7-3.2
	c-3.4-0.9-6.3-1.4-8.9-1.7c-2.5-0.3-5-0.4-7.2-0.4c-4.3,0-8.3,0.5-11.9,1.6c-3.9,1.1-7.5,3.4-10.5,6.4c-3.1,3.1-5.4,7.1-6.9,11.8
	c-1.5,4.5-2.3,9.4-2.3,14.4c0,3.8,0.4,7.5,1.4,11c1,3.6,2.4,6.8,4.3,9.6c1.9,2.6,4.2,4.9,6.8,6.5c2.6,1.6,5.4,2.8,8.3,3.5
	c2.8,0.6,5.7,0.9,8.8,0.9c5.1,0,10.2-0.6,15.4-1.9c1.4-0.3,2.5-1.6,2.7-3c0.3-2.8,0.8-5.1,1.1-6.9c0.3-1.9,0.6-3.8,0.8-5.3
	c0.1-1.3-0.3-2.5-1.4-3.4C321.5,417.1,320.2,416.9,319,417.3z"/>
<path fill="#FFFFFF" d="M208.4,355.2c-4.6,0.1-8,0.1-10.1,0.1c-3.1,0-6.7,0-10.8-0.1c-1.6,0-3.1,1.1-3.6,2.6c-0.9,2.9-1.5,5-1.8,6.2
	c-0.3,1-0.6,1.9-1,2.8l-9.9,26.1v0.1l-2.9,8.4l-0.9-3.7c-1.4-5.8-3.1-11.7-4.9-17.7c-1.3-3.9-2.3-7.1-3-9.9
	c-0.8-2.7-1.3-4.6-1.5-5.7s-0.6-3.2-1.2-6.2c-0.3-1.7-1.8-3-3.7-3c-4.8,0.1-8.1,0.1-9.8,0.1c-2.3,0-5.7,0-10.7-0.1
	c-1.9,0-3.6,1.5-3.7,3.5l-1.2,18.9l-3.4,43.4l-1.3,12.3c-0.1,1.1,0.2,2.1,1,2.8c0.8,0.8,1.7,1.2,2.8,1.2c3.4-0.1,5.6-0.1,6.6-0.1
	l6.6,0.1c1,0,1.9-0.3,2.6-1.1c0.6-0.6,1.1-1.6,1.1-2.6c0-3.2,0.1-5.7,0.1-7.4l1.8-30.7c0.8,2.6,1.3,4.3,1.5,5.2l8.9,33.7
	c0.4,1.6,1.9,2.7,3.6,2.7c3.2-0.1,5.6-0.1,7.1-0.1c1.2,0,3.5,0,6.7,0.1c1.6,0,3-1,3.6-2.5l2.2-6.5l11.6-32.7l-0.8,28.8
	c-0.1,2.4-0.2,5.4-0.4,9.1c-0.1,1,0.3,2.1,1,2.7c0.6,0.8,1.6,1.1,2.6,1.1h0.1c2.9-0.1,5.3-0.1,7-0.1c1.2,0,3.5,0,6.8,0.1
	c1,0,1.9-0.3,2.6-1.1c0.6-0.6,1.1-1.6,1.1-2.6c-0.1-4.5-0.1-8.3-0.1-11.4c0-6.3,0.1-15.7,0.3-28.4c0.2-12.7,0.6-24.2,1.1-34.7
	c0-1-0.3-1.9-1-2.7C210.4,355.5,209.4,355,208.4,355.2z"/>
<path fill="#FFFFFF" d="M370.3,374.4c-3.6-1.1-7.4-1.5-11.4-1.5c-3.5,0-7.1,0.2-10.8,0.8c-3.8,0.5-8,1.3-12.8,2.6
	c-1.4,0.3-2.5,1.5-2.7,3c-0.3,2.2-0.5,3.8-0.6,5c-0.1,0.9-0.4,2.7-0.9,5.3c-0.2,1.3,0.2,2.7,1.3,3.5c1.1,0.9,2.5,1.1,3.7,0.5
	c7.2-3,13.6-4.4,19.2-4.4c1.4,0,2.6,0.1,3.6,0.4c0.9,0.2,1.3,0.5,1.6,1c0.2,0.3,0.3,0.5,0.4,1.2c0,0.2,0,0.4-0.1,0.6v0.1
	c-0.1,0.2-0.2,0.4-0.5,0.9c-0.3,0.3-0.6,0.5-1.2,0.9c-0.5,0.2-1.5,0.6-2.8,1c-1.3,0.4-2.6,0.8-3.8,1c-5,1.2-9.1,2.3-12.2,3.5
	s-5.7,2.5-7.7,3.9c-1.8,1.4-3.4,2.8-4.5,4.3c-1.3,1.6-2.2,3.5-2.8,5.3c-0.6,1.8-1,3.8-1,5.8c0,3.4,0.9,6.6,2.4,9.7
	c1.6,3.5,4.4,6.1,7.9,7.7c3.5,1.5,7.5,2.2,12.1,2.2c1.3,0,2.8-0.1,4.3-0.2c1.6-0.1,3.7-0.4,6.2-0.9c1.3-0.2,2.4-1.2,2.8-2.4
	c0.1,0.3,0.3,0.6,0.6,1c0.8,0.8,1.7,1.2,2.8,1.2c2.8-0.1,5.2-0.1,7.2-0.1c2.2,0,4.5,0,7,0.1c1,0,1.9-0.3,2.6-1
	c0.6-0.6,1.1-1.6,1.1-2.6c0.1-9,0.4-17.7,1-26.2c0.5-8.5,0.9-13.8,0.9-16.1c0-4.3-1-8.2-3.6-11.1C377.1,377.3,374,375.5,370.3,374.4
	z M360.4,418c0,1.1-0.1,2.2-0.2,3.1c-0.9-0.3-1.8-0.4-2.7-0.1c-1.9,0.6-3.5,1.1-4.2,1.2c-1.1,0.2-2.1,0.2-2.9,0.2
	c-1.4,0-2.5-0.2-3.2-0.4c-0.5-0.2-1-0.5-1.4-1.1c-0.3-0.4-0.5-0.9-0.5-1.7c0-0.5,0.1-1,0.2-1.3c0.1-0.3,0.3-0.8,0.8-1.2
	s1.1-1,1.8-1.4c0.9-0.4,1.8-1,3-1.4c1.2-0.4,2.8-1,5-1.6c2.2-0.6,3.8-1.2,4.6-1.5h0.1L360.4,418z"/>
<path fill="#271674" d="M369.3,377.9c-3.1-1-6.6-1.4-10.4-1.4c-3.4,0-6.7,0.2-10.3,0.8c-3.6,0.4-7.7,1.3-12.3,2.5
	c-0.3,2.2-0.5,3.8-0.6,4.9c-0.1,1.1-0.4,2.9-0.9,5.5c7.6-3.1,14.4-4.8,20.7-4.8c1.7,0,3.2,0.2,4.5,0.5c1.4,0.3,2.5,1.1,3.4,2.1
	c0.9,1,1.3,2.2,1.3,3.6c0,0.8-0.1,1.4-0.4,2.2c-0.3,0.6-0.8,1.4-1.3,1.9c-0.5,0.5-1.3,1.2-2.2,1.6s-1.9,0.8-3.4,1.2
	c-1.4,0.4-2.7,0.8-4,1.1c-4.9,1.1-8.9,2.3-11.8,3.4c-3,1.1-5.3,2.3-6.8,3.5c-1.6,1.2-2.8,2.4-3.9,3.7c-1,1.3-1.7,2.7-2.3,4.2
	c-0.5,1.5-0.8,3-0.8,4.6c0,2.7,0.6,5.4,1.9,8.1c1.3,2.7,3.4,4.6,6.2,5.9c2.8,1.3,6.3,1.8,10.6,1.8c1.2,0,2.6-0.1,4-0.2
	c1.4-0.1,3.4-0.3,5.8-0.9c1-4.1,1.8-7.2,2.5-9.3c-2.1,0.8-3.7,1.2-4.9,1.4s-2.4,0.3-3.5,0.3c-1.7,0-3.2-0.2-4.4-0.6
	c-1.3-0.4-2.3-1.2-3.1-2.4c-0.9-1.1-1.3-2.4-1.3-4c0-1,0.1-1.8,0.5-2.7c0.3-0.9,0.9-1.6,1.5-2.4c0.8-0.8,1.6-1.4,2.6-2.1
	c1.1-0.6,2.3-1.2,3.6-1.6c1.3-0.4,3-1.1,5.2-1.6c2.2-0.6,3.7-1.1,4.5-1.4c0.9-0.3,1.6-0.6,2.3-1c0.6-0.3,1.7-1,3-1.9l-0.6,13.6
	c-0.3,5.8-0.6,10.9-1.1,15.4c2.8-0.1,5.3-0.1,7.4-0.1c2.2,0,4.5,0,7.1,0.1c0.1-9.1,0.4-17.8,1-26.4c0.5-8.5,0.9-13.8,0.9-15.9
	c0-3.8-0.9-6.8-2.7-8.9C374.8,380.2,372.4,378.8,369.3,377.9z"/>
<path fill="#271674" d="M440.9,405.2c0.3-1.8,0.5-3.6,0.5-5.3c0-3.7-0.5-6.9-1.7-9.9c-1.2-2.9-2.8-5.5-4.9-7.7
	c-2.2-2.2-4.8-3.7-7.9-4.5c-3.1-1-6.5-1.4-9.9-1.4c-3.7,0-7.2,0.5-10.6,1.6c-3.4,1.1-6.4,3-9.1,5.7c-2.6,2.7-4.8,6.2-6.2,10.4
	c-1.5,4.2-2.2,8.5-2.2,13.1c0,4,0.6,7.9,1.8,11.6c1.3,3.7,3.2,6.8,5.9,9.3c2.7,2.5,5.7,4.3,9.3,5.2c3.6,1,7.6,1.4,12,1.4
	c2.6,0,5.1-0.1,7.7-0.4c2.5-0.3,5.6-0.9,9.3-1.7c0.9-5.6,1.4-9.4,1.8-11.6c-3.8,1.3-7,2.3-9.8,2.8c-2.7,0.5-5.3,0.9-7.7,0.9
	c-2.1,0-4.1-0.3-6.2-1c-2.1-0.6-3.9-1.7-5.4-3.1c-1.5-1.4-2.7-3.1-3.5-5.2s-1.2-4.3-1.2-6.7c0-0.8,0-1.8,0.1-3.2L440.9,405.2z
	 M404.8,394.7c0.3-1.1,0.9-2.2,1.5-3.2c0.6-1.2,1.6-2.2,2.7-3c1.1-0.9,2.4-1.6,3.7-2.1c1.4-0.4,2.7-0.8,4.2-0.8
	c1.2,0,2.4,0.1,3.5,0.4s2.1,0.8,2.8,1.3c0.9,0.5,1.5,1.2,2.2,2.1c0.6,0.9,1.1,1.7,1.5,2.8c0.3,1.1,0.5,2.1,0.6,2.9
	c0.1,0.9,0.1,2.2,0.1,3.9l-24-0.1C404.1,397.1,404.5,395.8,404.8,394.7z"/>
<path fill="#271674" d="M296.8,393c1.5-1.8,3.2-3.1,5.3-4c2.1-0.9,4.2-1.3,6.6-1.3c3.8,0,8.2,1,13.3,2.8l-0.8-12
	c-3.2-0.9-5.9-1.4-8.3-1.6c-2.4-0.3-4.6-0.4-6.8-0.4c-4,0-7.7,0.4-10.9,1.4c-3.2,1-6.3,2.8-8.9,5.5c-2.7,2.7-4.6,6.2-6.1,10.4
	c-1.4,4.2-2.1,8.7-2.1,13.2c0,3.5,0.4,6.8,1.3,10.1c0.9,3.2,2.1,6.1,3.8,8.3s3.6,4.1,5.8,5.5c2.2,1.4,4.5,2.4,7.1,2.9
	c2.6,0.5,5.2,0.9,8,0.9c4.8,0,9.6-0.6,14.5-1.8c0.3-2.8,0.8-5.2,1.1-7c0.3-1.9,0.5-3.6,0.8-5.1c-2.5,1-4.8,1.6-7,2.1
	c-2.2,0.4-4.1,0.6-5.6,0.6c-3.1,0-5.9-0.6-8.4-2.1c-2.5-1.4-4.2-3.4-5.2-5.8c-1-2.5-1.5-5.5-1.5-9c0-2.5,0.3-4.9,1-7.2
	C294.2,396.9,295.2,394.7,296.8,393z"/>
<path fill="#271674" d="M187.4,358.7c-0.9,2.9-1.5,5-1.8,6.2c-0.3,1.2-0.8,2.2-1.1,3L174.5,394l-6.8,20.1l-3.9-15.7
	c-1.4-5.7-3-11.6-4.9-17.5c-1.2-3.9-2.3-7.2-3-9.9s-1.3-4.8-1.6-5.9c-0.3-1.3-0.6-3.4-1.2-6.3c-4.8,0.1-8.1,0.1-9.9,0.1
	c-2.3,0-5.8,0-10.7-0.1l-1.2,18.9l-3.4,43.5l-1.3,12.3c3.4-0.1,5.6-0.1,6.7-0.1l6.6,0.1c0-3.2,0.1-5.7,0.1-7.5l1.9-34
	c0.3-5.2,0.6-9,0.8-11.1l0.6-7c0.5,2.4,0.9,3.8,1,4.5c0.1,0.6,0.4,1.5,0.6,2.6l3.1,11.1c1.2,3.8,1.8,6.4,2.2,7.6l8.9,33.7
	c3.2-0.1,5.7-0.1,7.2-0.1c1.2,0,3.5,0,6.8,0.1l2.2-6.5l18.9-53.2v4.4c0,4.4,0,9-0.1,13.6l-0.9,32.5c-0.1,2.4-0.2,5.5-0.4,9.2
	c2.9-0.1,5.3-0.1,7.1-0.1c1.2,0,3.6,0,6.9,0.1c-0.1-4.5-0.1-8.3-0.1-11.4c0-6.3,0.1-15.8,0.3-28.4c0.2-12.8,0.6-24.3,1.1-34.8
	c-4.6,0.1-8,0.1-10.2,0.1C195.1,358.8,191.4,358.8,187.4,358.7z"/>
<path fill="#271674" d="M420.8,370.3l4.2-6.2c1.2-1.7,2.8-4.1,5.1-7.1c-3.2,0.1-5.7,0.1-7.7,0.1c-2.4,0-4.9,0-7.7-0.1
	c-0.5,1.3-1.1,2.8-1.6,4.3c-0.5,1.5-1,2.8-1.4,3.9l-1.8,5.1c1.8-0.1,3.6-0.1,5.3-0.1C417.1,370.2,419.1,370.2,420.8,370.3z"/>
<path fill="#271674" d="M258.5,377.9c-3.1-1-6.6-1.4-10.4-1.4c-3.4,0-6.7,0.2-10.3,0.8c-3.6,0.4-7.7,1.3-12.3,2.5
	c-0.3,2.2-0.5,3.8-0.6,4.9c-0.1,1.1-0.4,2.9-0.9,5.5c7.6-3.1,14.4-4.8,20.7-4.8c1.7,0,3.2,0.2,4.5,0.5c1.4,0.3,2.5,1.1,3.4,2.1
	c0.9,1,1.3,2.2,1.3,3.6c0,0.8-0.1,1.4-0.4,2.2c-0.3,0.6-0.8,1.4-1.3,1.9c-0.6,0.6-1.3,1.2-2.2,1.6s-1.9,0.8-3.4,1.2s-2.7,0.8-4,1.1
	c-4.9,1.1-8.9,2.3-11.8,3.4c-3,1.1-5.3,2.3-6.8,3.5c-1.6,1.2-2.8,2.4-3.9,3.7c-1,1.3-1.7,2.7-2.3,4.2s-0.8,3-0.8,4.6
	c0,2.7,0.6,5.4,1.9,8.1c1.3,2.7,3.4,4.6,6.2,5.9c2.8,1.3,6.3,1.8,10.6,1.8c1.2,0,2.6-0.1,4-0.2c1.4-0.1,3.4-0.3,5.8-0.9
	c1-4.1,1.8-7.2,2.5-9.3c-2.1,0.8-3.7,1.2-4.9,1.4c-1.2,0.2-2.4,0.3-3.5,0.3c-1.7,0-3.2-0.2-4.4-0.6c-1.3-0.4-2.3-1.2-3.1-2.4
	c-0.9-1.1-1.3-2.4-1.3-4c0-1,0.1-1.8,0.5-2.7c0.3-0.9,0.9-1.6,1.5-2.4c0.8-0.8,1.6-1.4,2.6-2.1c1.1-0.6,2.3-1.2,3.6-1.6
	c1.3-0.4,3-1.1,5.2-1.6c2.2-0.6,3.7-1.1,4.5-1.4c0.9-0.3,1.6-0.6,2.3-1s1.7-1,3-1.9l-0.6,13.6c-0.3,5.8-0.6,10.9-1.1,15.4
	c2.8-0.1,5.3-0.1,7.4-0.1c2.2,0,4.5,0,7.1,0.1c0.1-9.1,0.4-17.8,1-26.4s0.9-13.8,0.9-15.9c0-3.8-0.9-6.8-2.7-8.9
	C264,380.2,261.6,378.8,258.5,377.9z"/>
<path fill="#271674" d="M409.9,636.1c0.3-1.3,0.4-2.7,0.4-4.1c0-2.7-0.4-5.3-1.5-7.7c-1.1-2.4-2.5-4.4-4.4-6.2
	c-2.1-1.8-4.5-3-7.1-3.7c-2.5-0.6-5.1-1-7.8-1c-2.8,0-5.6,0.4-8.3,1.2c-2.9,0.9-5.6,2.3-7.8,4.3c-0.2,0.2-0.4,0.4-0.6,0.6l-4.8-5.1
	h-3.6c0-1,0.1-1.9,0.1-2.9l-5.9-5c-2.4,0.5-3.9,0.9-4.5,1l-4,0.8l-4,4.5c0,0.5-0.1,1.1-0.1,1.6h-0.5l-0.9,0.9l-1.2-1.5
	c-1.2-0.3-2.5-0.4-3.8-0.4c-1.3,0-2.6,0.1-3.9,0.4c-1.3,0.3-2.6,0.8-3.7,1.4c-0.2,0.1-0.3,0.2-0.5,0.3l-1.3-1.4
	c-1.8,0-3.4,0.1-4.4,0.1c-1,0-2.5,0-4.5-0.1l-5,5c0,1.6,0.1,2.7,0.1,2.9c0,0.5,0,1.2,0,1.7c-1.1-1.8-2.4-3.5-4-4.9
	c-2.2-1.9-4.9-3.4-7.8-4.2c-2.8-0.9-5.7-1.3-8.9-1.3c-3.4,0-6.6,0.5-9.7,1.6c-3.1,1.1-5.9,2.7-8.2,5c-1.4,1.4-2.6,3-3.6,4.8
	c-0.9-1.9-2.2-3.8-3.7-5.4c-2.3-2.3-5.1-3.9-8.3-4.8c-3-0.8-6.2-1.2-9.5-1.2c-2.5,0-5,0.1-7.5,0.3c-2.6,0.2-5.9,0.8-10.3,1.5
	l-2.8,3.2l-3.7-4c-4-0.6-7.7-1.1-11-1.1c-3,0-5.7,0.3-8.2,1.2c-2.7,0.9-5.1,2.5-6.8,4.9c-1.5,2.1-2.4,4.6-2.4,7.2
	c0,1.5,0.3,2.9,0.9,4.3c0.5,1.3,1.3,2.6,2.2,3.8c0.9,1.1,1.9,2.1,3,3c1,0.8,2.4,1.8,4.1,3.1c-0.3-0.1-0.8-0.1-1.2-0.2
	c-1.2-0.2-2.8-0.8-4.9-1.5l-4.8,3.6l-3.1-3.2l-4.9,0.2L184,640c-2.6,0-4.6,0-5.9,0.1l0.1-2.4c1.9,0,3.8-0.1,5.3-0.1
	c0.8,0,4.2,0,10.3,0.1l4.9-4.5c0.1-2.6,0.3-4.9,0.4-6.7l-5-5.3c-5.1,0.1-8.8,0.2-10.8,0.2c-1.4,0-2.8,0-4.2,0l0.1-1.7c0,0,0,0,0.1,0
	c1,0,3.2,0,6.7,0c1.6,0,3.1,0,4.6,0c1.5,0,2.7,0,3.5,0.1l3.1,0.2l5.1-4.5l0.4-6.8l-4.9-5.1h-9.7h-6.5c-5.9,0-11.8,0-17.3-0.1
	l-4.9,4.9v4.2l-0.4,12.8l-0.6,13.9l-1,12.1l4.9,5.2h6.7h11c4.6,0,9.9,0,15.7,0.1l3.7-3.5l2.4,2.7c2.4,0.5,4.6,1,6.8,1.2
	c2.1,0.2,3.8,0.3,5.4,0.3c3,0,5.9-0.4,8.6-1.4c2.7-1,5.1-2.5,6.8-4.6c-0.3,5.7-0.6,10.6-1.1,14.6l4.9,5.3h5c1.1,0,2.6,0,4.6,0
	l4.9-4.9c0-0.9,0-1.6,0-2.2c0-0.2,0-0.4,0-0.5v-0.1l0,0l0,0v-0.2v-2.1l0.2-5.2c0.9,0.3,1.7,0.5,2.6,0.8c1.6,0.3,3.4,0.5,5,0.5
	c2.8,0,5.5-0.5,8-1.5c2.7-1.1,5-2.8,6.9-5.1c1.2-1.4,2.2-2.9,2.9-4.5c1.1,2.1,2.6,4,4.3,5.5c2.2,1.9,4.9,3.4,7.8,4.3
	c2.8,0.9,5.8,1.3,8.9,1.3c3.2,0,6.5-0.4,9.4-1.5c3.1-1,5.8-2.6,8.1-4.9c1.1-1.1,2.1-2.3,2.8-3.5l-0.2,3.9l5,5.2
	c1.9,0,3.6-0.1,4.9-0.1c1.4,0,2.9,0,4.5,0.1l5-5.1c-0.1-1.4-0.1-2.6-0.1-3.6c0-2.5,0.1-5.1,0.2-7.7c0.1-2.6,0.3-4.4,0.4-5.1
	c0.2-1.2,0.4-1.8,0.5-2.2c0.3-0.6,0.6-1.1,0.9-1.3c0.4-0.3,0.6-0.5,1.1-0.6c0.3-0.1,1-0.2,1.7-0.2c0.5,0,1.4,0.1,2.4,0.3l2.4-1.9
	l1.1,1.2l-0.5,8.4c-0.1,2.6-0.2,4-0.2,4.5c0,0.5,0,1,0,1.4c0,1.5,0.2,3,0.6,4.5c0.5,1.8,1.7,3.6,3.1,4.9c1.5,1.3,3.5,2.3,5.4,2.7
	c1.7,0.4,3.6,0.5,5.5,0.5c1.1,0,2.3-0.1,3.6-0.2c1.4-0.1,3-0.4,5-0.9l3.8-3.9c0.1-0.6,0.2-1.3,0.3-1.8c0.5,0.6,1.2,1.2,1.8,1.7
	c2.4,1.9,5.1,3.4,8.1,4c2.8,0.6,5.7,1,9,1c1.8,0,3.7-0.1,5.5-0.2c1.9-0.2,4.1-0.5,6.6-1.1l3.8-4c0.5-3.2,1-5.4,1.2-6.5l-5.7-5.4h3.8
	L409.9,636.1z M230.4,636.7c-0.3-0.6-0.8-1.2-1.3-1.8c-1-1.2-2.1-2.2-3.4-3.1c-0.9-0.6-1.8-1.4-3-2.3c1.1,0.2,2.3,0.5,3.5,1l4.4-3.2
	C230.6,630.1,230.5,633.4,230.4,636.7z M257.1,634.8c0,1.4-0.2,2.6-0.8,3.8c-0.4,1.1-1,1.6-1.4,1.9c-0.6,0.4-1.2,0.5-2.1,0.5
	c-0.5,0-1-0.1-1.6-0.3c-0.5-0.2-0.9-0.5-1.3-1c-0.3-0.4-0.5-0.9-0.6-1.2c-0.2-0.8-0.3-1.6-0.3-2.6c0-0.5,0-1.6,0.1-3l0.2-2.9
	c1.2-0.2,2.2-0.3,3.1-0.3c1.2,0,1.9,0.2,2.7,0.5c0.4,0.2,0.8,0.5,1.3,1.3C256.8,632.2,257.1,633.2,257.1,634.8z M291.2,632.2
	c0.4-1,0.9-1.3,1.4-1.7c0.8-0.4,1.5-0.6,2.8-0.6c1.3,0,1.9,0.2,2.5,0.5c0.6,0.4,0.9,0.6,1.1,1.2c0.3,0.8,0.5,1.7,0.5,2.9
	c0,1.6-0.3,2.9-0.8,4.1c-0.4,1-0.9,1.4-1.4,1.8c-0.6,0.4-1.4,0.6-2.7,0.6c-1.2,0-1.8-0.2-2.4-0.5c-0.6-0.4-0.9-0.8-1.2-1.3
	c-0.3-0.8-0.5-1.7-0.5-3C290.5,634.7,290.8,633.4,291.2,632.2z M366.5,640.5l-0.4-0.4c-1.4,0.3-2.5,0.5-2.7,0.6c-0.1,0-0.2,0-0.3,0
	c0-0.1,0-0.1,0-0.2c0-0.8,0.1-4.3,0.4-10.2h3.2c-0.4,1.8-0.6,3.8-0.6,5.7C366.2,637.7,366.3,639.1,366.5,640.5z M395.2,641.2
	c-1.6,0.3-3,0.4-4.2,0.4c-0.9,0-1.7-0.1-2.7-0.4c-0.8-0.2-1.3-0.5-1.7-0.9c-0.1-0.1-0.2-0.2-0.3-0.2h13.7
	C398.1,640.5,396.5,640.9,395.2,641.2z"/>
<path fill="#FFFFFF" d="M227.6,636.2c-0.9-1-1.8-1.9-3-2.9c-1.1-0.9-2.3-1.7-3.7-2.7c-1.4-1-2.3-1.6-2.7-1.9
	c-0.3-0.2-0.5-0.4-0.8-0.6c0,0,0-0.1-0.1-0.1c0.1,0,0.2-0.1,0.4-0.1c0.6-0.2,1.6-0.3,2.7-0.3c1.9,0,4.1,0.4,6.5,1.3
	c1,0.3,1.9,0.2,2.8-0.3c0.8-0.5,1.2-1.5,1.2-2.5l-0.4-6.6c-0.1-1.3-1.1-2.5-2.4-2.7c-4-0.6-7.5-1.1-10.7-1.1c-2.8,0-5.4,0.3-7.7,1.1
	c-2.4,0.8-4.4,2.2-5.8,4.1c-1.3,1.8-2.1,3.9-2.1,6.1c0,1.2,0.2,2.5,0.6,3.7c0.4,1.1,1.1,2.3,1.8,3.2c0.8,1,1.7,1.8,2.8,2.7
	c1,0.8,2.4,1.8,4.1,3.1l1.8,1.3l0.1,0.1c0.5,0.4,1,0.8,1.2,1c0.3,0.2,0.4,0.4,0.4,0.4c0.1,0.1,0.1,0.2,0.2,0.2l0,0l0,0
	c0,0,0,0.1-0.5,0.3c-0.5,0.2-1.3,0.3-2.4,0.3c-1.1,0-2.3-0.1-3.6-0.4c-1.3-0.3-3-0.9-5.2-1.6c-1-0.3-2.1-0.2-2.8,0.4
	c-0.8,0.6-1.2,1.6-1.1,2.6l0.8,7c0.1,1.2,1.1,2.3,2.3,2.5c2.3,0.5,4.4,0.9,6.6,1.1c1.9,0.2,3.7,0.3,5.2,0.3c2.8,0,5.5-0.4,8-1.3
	s4.5-2.3,5.9-4.1c1.4-1.7,2.2-4,2.2-6.2c0-1.3-0.2-2.6-0.8-3.9C229.2,638.5,228.4,637.3,227.6,636.2z"/>
<path fill="#FFFFFF" d="M406.9,625.2c-1-2.1-2.3-4-4-5.4c-1.8-1.5-4-2.6-6.4-3.2c-2.3-0.6-4.8-0.9-7.2-0.9c-2.7,0-5.3,0.3-7.8,1.1
	c-2.6,0.8-5,2.1-7,3.9c-1.7,1.5-3.1,3.5-4.1,5.6c0-0.1,0-0.3,0-0.4c0-1.1,0.1-3.1,0.2-5.9c0-0.8-0.2-1.6-0.8-2.2
	c-0.5-0.5-1.3-0.9-2.2-0.9h-5.6c0-1.6,0.1-3.2,0.2-5c0-0.9-0.3-1.8-1.1-2.4c-0.6-0.5-1.6-0.9-2.5-0.6c-2.4,0.5-3.9,0.9-4.6,1l-4,0.8
	c-1.3,0.2-2.3,1.4-2.4,2.7c-0.1,1.3-0.1,2.5-0.2,3.5h-2.4c-0.3,0-0.6,0.1-1,0.2c-0.4-0.4-0.9-0.8-1.5-0.9c-1.1-0.2-2.3-0.4-3.4-0.4
	c-1.2,0-2.4,0.1-3.5,0.4c-1.2,0.3-2.3,0.6-3.2,1.2c-0.1,0.1-0.3,0.2-0.4,0.2c-0.1-0.1-0.1-0.1-0.2-0.2c-0.5-0.5-1.3-0.9-2.2-0.9
	c-1.8,0-3.4,0.1-4.4,0.1c-1,0-2.5,0-4.5-0.1c-0.8,0-1.5,0.3-2.2,0.9c-0.5,0.5-0.9,1.3-0.9,2.2c0,1.6,0.1,2.7,0.1,2.9
	c0,1.8,0,3.6-0.1,5.4l-0.2,8.8l-1,15c0,0.9,0.2,1.6,0.8,2.2c0.5,0.5,1.3,0.9,2.2,0.9c1.9,0,3.6-0.1,4.9-0.1c1.4,0,2.9,0,4.6,0.1
	c0.8,0,1.6-0.3,2.2-0.9c0.5-0.5,0.9-1.4,0.9-2.2c-0.1-1.5-0.1-2.7-0.1-3.6c0-2.5,0.1-5.1,0.2-7.8c0.1-2.6,0.3-4.4,0.4-5.3
	c0.2-1.3,0.4-2.2,0.6-2.6c0.4-0.9,0.9-1.4,1.3-1.9c0.5-0.5,1.1-0.9,1.7-1.1c0.6-0.2,1.4-0.3,2.5-0.3c0.8,0,1.7,0.1,2.9,0.4
	c0.9,0.2,1.8,0,2.6-0.5l0,0c0.2,0,0.4,0.1,0.6,0.1h1.7l-0.6,10.2c-0.1,2.6-0.2,4-0.2,4.5c0,0.5,0,0.9,0,1.3c0,1.3,0.2,2.7,0.5,4
	c0.4,1.5,1.4,2.9,2.6,4c1.3,1.1,2.8,1.8,4.5,2.3c1.5,0.3,3.2,0.5,5.1,0.5c1.1,0,2.2-0.1,3.4-0.2c1.3-0.1,2.8-0.4,4.8-0.8
	c1.2-0.2,2.1-1.2,2.3-2.3c0.5-3.1,1-5.3,1.3-6.4l0,0c1,1.9,2.4,3.7,4.1,5.2c2.1,1.7,4.5,3,7.4,3.7c2.6,0.6,5.4,0.9,8.5,0.9
	c1.8,0,3.6-0.1,5.3-0.2c1.8-0.2,3.9-0.5,6.4-1.1c1.2-0.2,2.1-1.2,2.3-2.4c0.5-3.2,1-5.4,1.2-6.6c0.2-1-0.1-2.1-0.9-2.8
	s-1.8-1-2.8-0.6c-2.4,0.8-4.4,1.3-6.1,1.5c-1.6,0.3-3.1,0.4-4.5,0.4c-1.1,0-2.1-0.1-3.2-0.4c-1-0.3-1.8-0.8-2.5-1.3
	c-0.6-0.5-1.1-1.2-1.4-1.9c-0.2-0.5-0.4-1.1-0.4-1.7h21.7c1.4,0,2.6-1,2.8-2.3c0.2-1.2,0.4-2.5,0.4-3.7
	C408.3,629.6,407.9,627.2,406.9,625.2z M369.7,627.6c-1.1,2.8-1.6,5.6-1.6,8.6c0,2.2,0.3,4.2,0.9,6.3c-0.6-0.4-1.5-0.6-2.4-0.4
	c-1.5,0.3-2.5,0.5-2.9,0.6c-0.5,0.1-1,0.1-1.4,0.1c-0.3,0-0.6-0.1-0.9-0.2l0,0c-0.1-0.1-0.2-0.9-0.2-1.9c0-1,0.2-5.2,0.5-12.1h5.8
	c0.8,0,1.5-0.3,2.1-0.9c0.1-0.1,0.1-0.1,0.2-0.2C369.7,627.5,369.7,627.5,369.7,627.6z M392,627.2c0.2,0.1,0.4,0.3,0.6,0.5
	c0.2,0.2,0.3,0.4,0.4,0.8h-8.2c0.2-0.3,0.5-0.5,1-0.9c0.5-0.3,1-0.6,1.6-0.8c0.6-0.2,1.3-0.3,1.9-0.3c0.6,0,1.2,0.1,1.6,0.2
	C391.5,626.9,391.8,627.1,392,627.2z"/>
<path fill="#FFFFFF" d="M315.2,626.9c-1-2.5-2.5-4.6-4.5-6.4c-1.9-1.7-4.3-3-7.1-3.8c-2.6-0.9-5.4-1.2-8.2-1.2
	c-3.1,0-6.2,0.5-9.1,1.5c-2.9,1-5.5,2.5-7.5,4.5c-1.9,1.9-3.5,4.2-4.3,6.7c-0.3,0.9-0.5,1.6-0.8,2.5c-0.2-1.2-0.5-2.3-0.9-3.4
	c-0.9-2.5-2.2-4.6-4-6.6c-1.9-2.1-4.4-3.5-7.5-4.2c-2.8-0.8-5.8-1.1-9.1-1.1c-2.4,0-4.9,0.1-7.2,0.3c-2.5,0.2-5.8,0.8-10.1,1.4
	c-1.4,0.2-2.4,1.4-2.4,2.8c0,5.8-0.2,13.4-0.6,22.8s-1,17-1.5,22.8c-0.1,0.9,0.2,1.6,0.8,2.3c0.5,0.6,1.3,1,2.2,1h5
	c1.1,0,2.7,0,4.8,0l0,0c0.8,0,1.5-0.3,2.1-0.9c0.5-0.5,0.9-1.3,0.9-2.1c0-0.9,0-1.6,0-2.2c0-0.2,0-0.4,0-0.6c0-0.1,0-0.2,0-0.2v-0.2
	v-2.2l0.3-8c0.2,0.1,0.5,0.3,0.8,0.4c1.2,0.6,2.6,1.1,4,1.4c1.5,0.3,3,0.5,4.5,0.5c2.6,0,5.1-0.4,7.2-1.4c2.4-1,4.4-2.5,6.2-4.5
	c1.6-1.9,2.9-4.2,3.7-6.7c0.2-0.8,0.4-1.6,0.6-2.4c0.2,1.2,0.6,2.4,1.1,3.5c1,2.5,2.6,4.6,4.5,6.4c1.9,1.7,4.3,3,7,3.9
	c2.6,0.9,5.4,1.2,8.3,1.2c3.1,0,6.1-0.4,8.9-1.4s5.3-2.4,7.4-4.4c1.9-1.9,3.5-4.2,4.4-6.8c1-2.6,1.5-5.3,1.5-8
	C316.8,631.9,316.2,629.4,315.2,626.9z M247.2,632.7l0.2-3.6c0-0.2,0-0.5,0.1-0.9c1.8-0.4,3.5-0.6,5-0.6c1.4,0,2.6,0.2,3.6,0.8
	c0.9,0.4,1.5,1.1,2.2,2.2c0.5,1,0.9,2.4,0.9,4.2c0,1.6-0.3,3.1-0.9,4.5c-0.5,1.4-1.3,2.2-2.2,2.8c-1,0.6-1.8,0.9-3,0.9
	c-0.9,0-1.6-0.2-2.4-0.5c-0.8-0.3-1.4-0.9-1.9-1.5c-0.5-0.6-0.9-1.3-1.1-2.1c-0.2-1-0.3-1.9-0.3-3
	C247.1,635.3,247.1,634.2,247.2,632.7z M291.7,628.8c1.1-0.6,2.3-1,3.8-1s2.6,0.3,3.5,0.9c1,0.5,1.4,1.2,1.8,2.1
	c0.4,1.1,0.6,2.3,0.6,3.7c0,1.8-0.3,3.4-0.9,4.8c-0.5,1.3-1.3,2.2-2.2,2.7c-1,0.6-2.2,1-3.7,1s-2.6-0.3-3.5-0.9
	c-1-0.6-1.5-1.3-1.9-2.2c-0.4-1.1-0.6-2.3-0.6-3.8c0-1.7,0.3-3.2,0.9-4.6C290.1,630.1,290.7,629.4,291.7,628.8z"/>
<path fill="#FFFFFF" d="M196.4,641.7l-4.9,0.2l-7.2,0.1c-3.8,0-6.3,0.1-7.4,0.1h-0.6l0.3-6.2c2.7-0.1,5.1-0.1,7.1-0.1
	c0.9,0,4.3,0,10.3,0.1c1.5,0,2.8-1.2,2.9-2.7c0.1-2.7,0.3-5,0.4-6.8c0.1-0.9-0.2-1.6-0.8-2.3c-0.5-0.6-1.4-1-2.2-1
	c-5.1,0.1-8.8,0.2-10.8,0.2c-2.1,0-4.2,0-6.3,0l0.2-5.6c0.8,0,1.4,0,1.8,0c1,0,3.2,0,6.7,0c1.6,0,3.1,0,4.6,0s2.7,0,3.6,0.1l3.1,0.2
	c1.6,0.1,2.9-1.2,3-2.7l0.4-6.8c0-0.8-0.2-1.6-0.8-2.2c-0.5-0.5-1.3-0.9-2.2-0.9h-9.7h-6.5c-5.9,0-11.8,0-17.3-0.1
	c-0.8,0-1.5,0.3-2.1,0.9c-0.5,0.5-0.9,1.3-0.9,2.1v4.2l-0.4,12.8l-0.6,13.9l-1,12.1c-0.1,0.8,0.2,1.6,0.8,2.2c0.5,0.5,1.3,1,2.2,1
	h6.7h11c4.6,0,9.9,0,15.8,0.1l0,0c1.5,0,2.8-1.2,2.9-2.8c0.1-2.2,0.2-4.4,0.4-6.8c0.1-0.9-0.2-1.6-0.8-2.3
	C198,641.9,197.2,641.6,196.4,641.7z"/>
<path fill="#271674" d="M359.5,611.5c-2.4,0.5-4,0.9-4.8,1.1l-4,0.8c-0.1,2.9-0.3,5.1-0.4,6.3h-5.1c-0.1,2.8-0.2,4.9-0.3,6.2h4.9
	L349,639c-0.1,2.5-0.2,4-0.2,4.5c0,0.4,0,0.9,0,1.1c0,1.1,0.1,2.2,0.4,3.1c0.3,1,0.9,1.8,1.7,2.6s1.9,1.3,3.2,1.6
	c1.3,0.3,2.8,0.4,4.4,0.4c1,0,1.9,0,3-0.2c1.1-0.1,2.6-0.3,4.4-0.8c0.5-3.1,1-5.3,1.3-6.5c-1.5,0.4-2.6,0.6-3.2,0.8
	c-0.6,0.1-1.2,0.1-1.7,0.1c-0.8,0-1.5-0.1-2.2-0.4c-0.6-0.3-1.2-0.9-1.4-1.5c-0.3-0.8-0.4-1.7-0.4-3c0-1.4,0.2-6.4,0.8-14.9h8.5
	c0-1.2,0.1-3.2,0.2-6.2h-8.5C359.3,617,359.3,614.3,359.5,611.5z"/>
<path fill="#271674" d="M405.1,635.1c0.2-1.1,0.3-2.1,0.3-3c0-2.2-0.3-4-1.1-5.7c-0.8-1.7-1.8-3.2-3.2-4.4c-1.4-1.2-3.1-2.1-5.2-2.6
	c-2.1-0.5-4.2-0.9-6.5-0.9c-2.4,0-4.8,0.3-6.9,1c-2.2,0.6-4.2,1.7-5.9,3.4c-1.7,1.5-3.1,3.6-4,6.1c-1,2.5-1.4,5-1.4,7.6
	c0,2.4,0.4,4.6,1.2,6.7c0.9,2.2,2.2,3.9,3.9,5.4c1.7,1.5,3.8,2.5,6.1,3c2.3,0.5,5,0.9,7.9,0.9c1.7,0,3.4-0.1,5-0.2
	c1.6-0.2,3.7-0.5,6.2-1c0.5-3.2,1-5.5,1.2-6.7c-2.5,0.8-4.6,1.3-6.5,1.6c-1.8,0.3-3.5,0.4-5,0.4c-1.3,0-2.7-0.2-4-0.5
	c-1.4-0.4-2.5-1-3.6-1.8c-1-0.9-1.7-1.8-2.3-3c-0.5-1.2-0.8-2.5-0.8-3.9c0-0.4,0-1.1,0.1-1.8L405.1,635.1z M381.4,629
	c0.2-0.6,0.5-1.2,1-1.8c0.4-0.6,1.1-1.3,1.8-1.8c0.8-0.5,1.5-1,2.4-1.2c0.9-0.3,1.8-0.4,2.7-0.4c0.9,0,1.6,0.1,2.3,0.2
	c0.8,0.2,1.3,0.4,1.8,0.8s1,0.8,1.4,1.2c0.4,0.4,0.8,1,1,1.6c0.2,0.6,0.3,1.2,0.4,1.6c0.1,0.5,0.1,1.2,0.1,2.3h-15.8
	C381,630.4,381.2,629.6,381.4,629z"/>
<path fill="#271674" d="M339.4,618.4c-1,0-1.9,0.1-2.8,0.3c-0.9,0.2-1.7,0.5-2.5,1s-1.4,0.9-2.1,1.4c-0.6,0.5-1.3,1.4-2.2,2.6
	l0.2-4.4c-1.8,0-3.4,0.1-4.5,0.1c-1,0-2.5,0-4.6-0.1c0,1.7,0.1,2.7,0.1,3c0,1.8,0,3.7-0.1,5.4l-0.2,8.8l-1,15.1c1.9,0,3.6-0.1,5-0.1
	c1.4,0,3,0,4.6,0.1c-0.1-1.5-0.1-2.7-0.1-3.8c0-2.6,0.1-5.2,0.2-7.9c0.1-2.7,0.3-4.5,0.4-5.6c0.2-1.4,0.5-2.6,1-3.5
	c0.5-1.1,1.2-2.1,1.9-2.8s1.7-1.3,2.7-1.7c1-0.3,2.2-0.5,3.5-0.5c1.1,0,2.3,0.2,3.6,0.5c-0.2-3-0.3-5.5-0.3-7.5
	C341.2,618.6,340.2,618.4,339.4,618.4z"/>
<path fill="#271674" d="M182,608.2c-6.1,0-11.8,0-17.3-0.1v4.3l-0.4,12.8l-0.6,14.1l-1,12.1h6.7h11c4.6,0,9.9,0,15.8,0.1
	c0.1-2.2,0.2-4.5,0.4-6.9l-4.9,0.2l-7.2,0.1c-3.9,0-6.3,0.1-7.4,0.1h-3.7L174,633c4-0.1,7.2-0.2,9.8-0.2c0.9,0,4.3,0,10.3,0.1
	c0.1-2.7,0.3-5,0.4-6.9c-5.1,0.1-8.8,0.2-10.9,0.2c-3.1,0-6.3,0-9.3-0.1l0.5-11.2c2.1-0.1,3.6-0.1,4.6-0.1c1,0,3.2,0,6.8,0
	c1.6,0,3.2,0,4.8,0s2.7,0.1,3.7,0.1l3.2,0.2l0.4-6.8h-9.7L182,608.2z"/>
<path fill="#271674" d="M217.1,624.9c1-0.2,2.2-0.3,3.5-0.3c2.4,0,4.9,0.5,7.5,1.5l-0.4-6.6c-3.8-0.6-7.2-1-10.2-1
	c-2.6,0-4.9,0.3-6.7,1c-1.9,0.6-3.4,1.6-4.3,3c-1,1.4-1.5,2.9-1.5,4.4c0,0.9,0.1,1.7,0.5,2.6c0.3,0.9,0.8,1.6,1.4,2.5
	c0.6,0.8,1.4,1.5,2.3,2.3s2.3,1.7,4,3l1.8,1.4c0.6,0.4,1.1,0.9,1.4,1.1c0.3,0.3,0.6,0.5,0.8,0.8c0.2,0.2,0.3,0.4,0.5,0.8
	c0.1,0.2,0.2,0.5,0.3,0.8c0.1,0.2,0.1,0.5,0.1,0.8c0,0.6-0.2,1.2-0.6,1.7c-0.4,0.5-1.1,1-1.9,1.3c-0.9,0.3-1.9,0.4-3.2,0.4
	s-2.7-0.2-4.2-0.5c-1.5-0.3-3.4-1-5.6-1.7l0.8,7c2.2,0.5,4.2,0.9,6.2,1.1c1.9,0.2,3.6,0.3,4.9,0.3c2.6,0,4.9-0.4,7-1.2
	c2.1-0.8,3.7-1.8,4.6-3.1c1.1-1.4,1.5-2.8,1.5-4.4c0-1-0.2-1.8-0.5-2.8c-0.3-1-0.9-1.8-1.5-2.6c-0.6-0.9-1.5-1.6-2.6-2.4
	c-1.1-0.8-2.3-1.7-3.7-2.7c-1.4-1-2.3-1.6-2.7-2.1c-0.4-0.3-0.9-0.6-1.2-1.1s-0.5-0.8-0.6-1.1c-0.1-0.3-0.2-0.8-0.2-1.1
	c0-0.6,0.2-1.2,0.6-1.6C215.4,625.5,216.1,625.2,217.1,624.9z"/>
<path fill="#271674" d="M308.9,622.8c-1.6-1.4-3.7-2.5-6.1-3.2c-2.4-0.8-4.9-1.1-7.4-1.1c-2.8,0-5.5,0.4-8.1,1.4
	c-2.6,0.9-4.8,2.2-6.4,3.8c-1.6,1.6-2.9,3.6-3.7,5.6c-0.8,2.2-1.2,4.3-1.2,6.7c0,2.3,0.4,4.4,1.3,6.6c0.9,2.1,2.2,3.9,3.8,5.3
	c1.6,1.4,3.7,2.6,6.1,3.2c2.4,0.8,4.9,1.1,7.5,1.1c2.8,0,5.4-0.4,7.9-1.2c2.5-0.9,4.5-2.1,6.2-3.7c1.6-1.6,2.9-3.6,3.8-5.8
	c0.9-2.3,1.3-4.5,1.3-7c0-2.3-0.4-4.4-1.2-6.5C311.8,625.9,310.5,624.2,308.9,622.8z M303.1,640.5c-0.8,1.8-1.8,3.1-3.4,4.1
	c-1.5,1-3.2,1.4-5.2,1.4s-3.6-0.4-5-1.3c-1.4-0.9-2.4-2.1-3-3.5c-0.6-1.4-1-3-1-5c0-2.1,0.3-4,1.1-5.8c0.8-1.7,1.9-3.1,3.5-4
	c1.5-0.9,3.2-1.3,5.2-1.3s3.7,0.4,5,1.3c1.4,0.9,2.4,2.1,2.9,3.5c0.5,1.4,0.9,3,0.9,4.8C304.3,636.7,303.9,638.7,303.1,640.5z"/>
<path fill="#271674" d="M266.8,622.9c-1.5-1.6-3.6-2.7-6.1-3.4c-2.5-0.6-5.3-1-8.3-1c-2.3,0-4.6,0.1-6.9,0.3
	c-2.4,0.2-5.6,0.8-9.9,1.4c0,5.8-0.2,13.5-0.6,22.9c-0.4,9.4-1,17.1-1.5,22.9h5c1.1,0,2.7,0,4.8,0c0-1.8,0-2.9,0-3.1v-2.2l0.5-13.8
	c1,1,1.7,1.7,2.4,2.3s1.4,1,2.4,1.5s2.1,0.9,3.4,1.2c1.3,0.3,2.6,0.4,3.9,0.4c2.3,0,4.3-0.4,6.2-1.2c1.9-0.8,3.6-2.1,5-3.7
	c1.4-1.7,2.5-3.6,3.2-5.7c0.6-2.2,1.1-4.3,1.1-6.7c0-2.3-0.3-4.4-1.1-6.6C269.4,626.2,268.3,624.4,266.8,622.9z M260.8,640.5
	c-0.8,1.7-1.8,3.1-3.2,4.1c-1.4,1-2.9,1.4-4.6,1.4c-1.2,0-2.4-0.2-3.6-0.8c-1.2-0.5-2.2-1.3-3-2.3c-0.9-1-1.4-2.1-1.6-3.2
	c-0.3-1.2-0.4-2.4-0.4-3.7c0-0.8,0-1.8,0.1-3.4l0.2-3.6c0.1-0.9,0.2-1.8,0.3-2.9c2.7-0.9,5.3-1.3,7.6-1.3c1.8,0,3.4,0.3,4.9,1.1
	c1.4,0.6,2.5,1.8,3.4,3.4s1.3,3.5,1.3,5.6C261.9,636.8,261.5,638.7,260.8,640.5z"/>
<polygon fill="#FFDD00" points="190,526.8 284,444.5 378,526.8 284,608.9 "/>
<path fill="#271674" d="M281.3,495.9c14.2-13.5,27.1-13.1,42.2-7.6L284,453.7l-27.6,24.2C266.2,478.7,275.8,484.3,281.3,495.9z"/>
<path fill="#271674" d="M328.1,492.5l-10.3,5.3c-14.9,8.7-20.5-7.4-34.2,1.1l0.1,1.4c12.9-0.3,17.6,9.9,10.9,22.3
	c-3-10.5-7.8-17-16.9-21.4l-0.2-0.1c-10.3,0.1-24.1-0.8-22.7,18.5c0.5,9.8-17.8,17.6-16.2,2.6c2.7-14.8,9.8-26,32.5-23.9
	c1.6,0.1,3,0.4,4.1,0.9l0.1-0.3c-5.2-9.2-15.5-13.2-25.8-15l-48.9,42.9l26.5,23.2c0.9-0.5,1.8-1.1,2.9-1.5
	c5.4-2.4,13.6-3.9,22.2-1.4c3.4,1,6.3,1.5,9,1.6c2.5,0,4.9-0.3,7.2-1.2c1.5-0.5,3-1.1,4.6-1.5c-3.9-12.3-4.3-29.8,0.5-40.9
	c3-6.1,5.6-3.5,4.4,2.2c-1.3,9.8-0.8,25.7,6.3,37.8c2.8,0.3,5.8,1,9,2.3c3.1,1.2,6.1,1.9,8.9,2.1c2.8,0.1,5.7-0.5,9-1.9h0.1l0,0
	c1.4-0.6,2.8-1.1,4.4-1.5c1.5-0.3,3.1-0.6,4.8-0.9c7.2-0.8,15.6,0.3,21.7,3.2l24.4-21.5L328.1,492.5z"/>
<path fill="#271674" d="M322,554.4c-1.2,0.1-2.4,0.3-3.6,0.6c-1.1,0.2-2.1,0.5-2.9,1l0,0l0,0c-4.6,2.1-9,2.9-13.2,2.8
	c-4.1-0.1-8-1.1-12.1-2.7c-3.7-1.4-6.9-1.8-9.7-1.7c-2.9,0.1-5.6,1-8.3,1.9c-3.6,1.3-7,1.9-10.8,1.8c-3.6-0.1-7.4-0.8-11.5-1.9
	c-5.6-1.6-10.9-0.9-14.7,0.5l48.8,42.9l50.5-44.3C330.6,554.3,326.1,554,322,554.4z"/>
<polygon fill="#271674" points="295.1,288.8 306.3,275.9 289.5,279.1 284,263 278.5,279.1 261.7,275.9 272.9,288.8 261.7,301.6 
	278.5,298.4 284,314.5 289.5,298.4 306.3,301.6 "/>
</svg>
