<?xml version="1.0" encoding="utf-8"?>
<!-- Generator: Adobe Illustrator 19.1.0, SVG Export Plug-In . SVG Version: 6.00 Build 0)  -->
<svg version="1.1" id="Layer_1" xmlns="http://www.w3.org/2000/svg" xmlns:xlink="http://www.w3.org/1999/xlink" x="0px" y="0px"
	 viewBox="-360 542 250 250" enable-background="new -360 542 250 250" xml:space="preserve">
<path fill="#ED1C24" d="M-235,542c69,0,125,56,125,125s-56,125-125,125s-125-56-125-125S-304,542-235,542L-235,542z"/>
<g>
	<path fill="#FFFFFF" d="M-280.3,620.8l-3.2,0.8l-2.4,4.8l1.6,0.6l-0.3,0.8c1.7-1.1,3.3-2.5,4.7-4.1c0.6-0.8,1.2-1.6,1.7-2.4l-1.7,1
		L-280.3,620.8z"/>
	<path fill="#FFFFFF" d="M-276.1,610.6l0.8,1.1c0-2.6-0.7-5.1-2-7.2l0.2,0.9l-2.7,0.5l-0.2,4.8l1.9,1.3L-276.1,610.6z"/>
	<path fill="#FFFFFF" d="M-287.9,619.3l-4.7,1.7l-3.4,4.2l2.4,2.4c1.3,0,3.7-0.2,6.3-1.2l2.6-5.2L-287.9,619.3z"/>
	<path fill="#FFFFFF" d="M-289.8,610.1l3.9,1.8l4.6-1.7l0.2-4.8c-2.1-1.5-4.1-2.3-5.1-2.6l-3.6,2.6V610.1z"/>
	<path fill="#FFFFFF" d="M-285.4,613.2l-1.9,4.9l3.4,2l-0.1,0.2l3.6-0.9c0.5-0.8,1.6-2.7,1.7-6.1l-2.4-1.6l-0.1-0.1L-285.4,613.2z"
		/>
	<path fill="#FFFFFF" d="M-287.1,602l-0.7-2.5l0.3-0.1c-2.2,0-4.5,0.6-6.7,1.8v0.1l-0.2,2.4l3.9,0.8L-287.1,602z"/>
	<path fill="#FFFFFF" d="M-295.2,614.2l4.2-3.4v-5l-3.6-0.7c-0.6,0.4-3,2.2-4.7,4.3l0.4,4.6L-295.2,614.2z"/>
	<path fill="#FFFFFF" d="M-297.2,625.8l-2.6-0.4l-1.5,1.5h-0.4c0.3,0.3,0.6,0.6,0.9,0.9c1.5,1.3,3.2,2.1,5.1,2.5l-0.5-0.3l1.4-1.5
		L-297.2,625.8z"/>
	<polygon fill="#FFFFFF" points="-231.4,754.6 -235,744.3 -238.4,754.5 -249.4,754.8 -240.8,761.2 -243.9,771.7 -235.1,765.5 
		-226.1,771.7 -229.3,761.4 -220.6,754.8 	"/>
	<path fill="#FFFFFF" d="M-241.2,732.8c0.1-0.1,0.2,0,0.1,0.2c-1.2,3.6-2.4,5.4-7.3,7.9c-0.1,0.3,0.3,1.2,0.5,1.3
		c8.1-2.1,12.2-6.9,12.2-13.5c0-4.6-2.4-8.9-7.2-8.9c-1.4,0-2.9,0.4-3.9,1c-2.5,1.5-4,3.9-4,7.1
		C-250.7,734.6-245.4,735.6-241.2,732.8z M-243.8,721.2c2.5,0,3.5,3.3,3.5,7.1c0,0.7-0.1,1.4-0.3,2.5c0,0.2-0.3,0.5-0.4,0.6
		c-0.4,0.2-1,0.4-1.4,0.4c-2.1,0-4-1.8-4-6.1C-246.4,722.7-245.1,721.2-243.8,721.2z"/>
	<path fill="#FFFFFF" d="M-224.5,719.7c-1.6,0-3.4,0.5-4.7,1.7c-2.3,2.1-3.2,5.8-3.2,9.3c0,4,0.7,8,3.2,10.1
		c1.1,0.9,2.5,1.3,4.1,1.3c1.3,0,2.8-0.4,3.9-1.2c2.9-2.1,3.8-6.2,3.8-10.5c0-3.8-0.8-6.6-2.2-8.2
		C-220.6,720.7-222.3,719.7-224.5,719.7z M-223.5,740.1c-0.2,0.2-0.6,0.4-1,0.4c-1.8,0-3.1-3.1-3.1-10.5c0-4.5,0.6-7.4,1.6-8.4
		c0.2-0.3,0.6-0.4,0.9-0.4c1.9,0,3,3.4,3,9.9C-222.2,737.4-222.8,739.3-223.5,740.1z"/>
	<path fill="#FFFFFF" d="M-300.4,624l3.3,0.6l0,0l3.7-4.6l-2.7-4.5l-2.9-0.3v0.1l-3.1,3.6C-302.1,619.7-301.8,622-300.4,624z"/>
	<path fill="#FFFFFF" d="M-235,550c-64.6,0-117,52.4-117,117s52.4,117,117,117s117-52.4,117-117S-170.4,550-235,550z M-180.1,577.4
		l1.6-3.9l1.5,3.8l4.2,0.3l-3.2,2.6l1,4.1l-3.4-2.2l-3.6,2.2l1.1-4l-3.2-2.7L-180.1,577.4z M-202.2,567.4l0.5-4.2l2.4,3.3l4.1-0.8
		l-2.4,3.3l2,3.7l-3.9-1.3l-2.9,3.1v-4.1l-3.8-1.8L-202.2,567.4z M-225.9,558.3l3.2,2.6l3.8-1.8l-1.5,3.8l2.9,3l-4.1-0.2l-2,3.7
		l-1.1-4l-4.1-0.7l3.4-2.2L-225.9,558.3z M-233.8,592.7c6.8-1.9,23.4-6.3,27.1-4.5c4.7,2.4,0,7.7,2.9,12.4c2.5,4,37.8-7,48-10.3
		c4.7,4.9,9,10.2,12.8,16c-6.7,2.1-42,12.8-53.7,14.4c-13,1.8-4.7-8.8-8.8-12.4c-3.6-3.1-23.3,1.9-28.3,3.2V592.7z M-233.8,630.3
		c7.1-2,22.9-6.1,26.5-4.3c4.7,2.4,0,7.7,2.9,12.4c2.4,3.9,52.8-10.7,70.2-15.9c2.5,5.7,4.6,11.7,6.1,17.9
		c-19.6,5.6-59.6,16.8-69.3,18.1c-13,1.8-4.7-8.8-8.8-12.4c-3.5-3-21.9,1.5-27.7,3.1v-18.9H-233.8z M-251.1,559.1l3.8,1.8l3.2-2.6
		l-0.6,4.2l3.4,2.2l-4.1,0.7l-1.1,4l-2-3.7l-4.1,0.2l2.9-3L-251.1,559.1z M-261.4,643.9c-1,18.4,12.5,11.4,14.7,7.6
		c0.9-1.7,3.3-0.4,2.7,1.1c-3.5,9.5-24,10-23.6-6.1c0.3-12.6,10.8-21.5,22.9-18.4l-0.7,5.5C-244.4,629.3-260.5,625.5-261.4,643.9z
		 M-270.7,566.6l2.4-3.3l0.5,4.2l3.9,1.3l-3.8,1.8v4.1l-2.9-3.1l-3.9,1.3l2-3.7l-2.4-3.3L-270.7,566.6z M-292.9,577.3l1.5-3.8
		l1.6,3.9l4.1,0.2l-3.2,2.7l1.1,4l-3.6-2.2l-3.4,2.2l1-4.1l-3.2-2.6L-292.9,577.3z M-302.9,607.9L-302.9,607.9
		c0.2-0.4,0.5-0.7,0.7-1.1l0,0l0,0l0,0v-0.1l0.1-0.1l0,0l0,0l0.1-0.2l0.1-0.1l0,0c0.1-0.1,0.1-0.1,0.2-0.2l0,0l0,0l0,0
		c0.1-0.1,0.2-0.2,0.2-0.3l0,0c0.1-0.1,0.1-0.2,0.2-0.2l0.1-0.1l0.1-0.1c0.1-0.1,0.2-0.2,0.2-0.3l0,0V605c0.1-0.1,0.2-0.2,0.3-0.3
		l0,0l0,0c0.1-0.1,0.2-0.2,0.3-0.3l0,0c0.1-0.1,0.2-0.2,0.3-0.3l0,0l0,0l0,0c0.1-0.1,0.2-0.2,0.3-0.3l0.1-0.1
		c0.1-0.1,0.2-0.2,0.2-0.2l0.1-0.1c0.1-0.1,0.2-0.1,0.2-0.2l0.1-0.1l0.1-0.1l0,0l0.1-0.1l0.2-0.2l0.1-0.1l0.2-0.2l0.1-0.1l0.2-0.1
		l0.2-0.1c0.1-0.1,0.2-0.1,0.3-0.2c0.1-0.1,0.2-0.1,0.3-0.2h0.1c0.2-0.1,0.4-0.3,0.6-0.4l0,0c3.7-2.3,7.9-3.2,11.6-2.6l0,0
		c0.5,0.1,0.9,0.2,1.4,0.3l0,0c1.4,0.4,2.7,1.1,3.8,1.9l0,0l0,0l0,0l0,0l0,0l0,0l0,0l0,0l0,0l0,0l0,0h0.1l0,0l0,0l0,0l0,0
		c0.1,0,0.1,0.1,0.2,0.1l0,0l0,0l0,0l0,0l0,0l0,0l0,0l0,0l0,0l0,0l0.1,0.1l0.1,0.1l0,0l0,0l0,0l0,0l0,0l0,0l0,0
		c0.1,0.1,0.2,0.2,0.3,0.3c5.4,5.4,5,15.2-1,22.4c-1.7,2.1-3.8,3.8-5.9,5l0,0l0,0l0,0l0,0l0,0h-0.1l0,0l0,0l0,0l0,0
		c-0.1,0-0.2,0.1-0.3,0.1l0,0c-5.5,2.9-11.7,2.8-16-0.9c-0.7-0.6-1.3-1.2-1.8-1.9c-0.1-0.1-0.1-0.1-0.2-0.2l-0.1-0.1
		c0-0.1-0.1-0.1-0.1-0.2l-0.1-0.1l-0.1-0.2l-0.1-0.1l-0.1-0.2l-0.1-0.1l-0.1-0.2v-0.1c0-0.1-0.1-0.2-0.1-0.3v-0.1l-0.1-0.2l-0.1-0.2
		l-0.1-0.1c0-0.1-0.1-0.1-0.1-0.2l-0.1-0.1c0-0.1-0.1-0.2-0.1-0.2v-0.1c0-0.1-0.1-0.2-0.1-0.2l0,0v-0.1l-0.1-0.2v-0.1
		c-0.3-0.8-0.5-1.6-0.6-2.5V620v-0.2l0,0c0-0.3-0.1-0.5-0.1-0.8l0,0c0-0.1,0-0.2,0-0.2l0,0C-306.1,615.4-305.1,611.5-302.9,607.9z
		 M-329,625.2c0.3-1.3,1.2-2.6,2.4-4c1.4-1.6,2.6-2.7,4-3.1c1.4-0.4,2.8-0.1,4.4,1.2l9.7,8c3.8,3.1,7.3,9.3,7.8,10.2l10.3,7.9
		c7-8.3,12.3-14.7,13-15.4c0.3-1,2.4-7.9,5.5-11.8l9.6-12c1.3-1.6,2.6-2.3,4.1-2.2c1.4,0.1,2.9,0.9,4.6,2.2c1.5,1.1,2.7,2.2,3.3,3.4
		c0.6,1.3,0.5,2.7-0.8,4.2l-11.7,13.7l0,0c0,0-3.4,3.5-10,6.8l-12.4,14.9c13,10,29.7,22.9,31.8,24.5c4.3,3.4,1,6.1,1,6.1l0,0
		c-2.1,1.6-3.9-0.1-4.1-0.3l-32.6-25.5l-33.5,40.3c-0.2,0.2-1.6,2.2-4,1.2l0,0c0,0-3.8-2-0.4-6.2c1.7-2,19.1-22.7,32.9-39.1
		l-9.6-7.5c-7.1-1.8-11.1-4.5-11.1-4.5l0,0l-12.1-9.2C-328.9,627.9-329.3,626.6-329,625.2z M-297.2,701.1c0,0-5.2,4.9-5.1,0.8
		c0.1-4.1,0-25.5,0-25.5s-3.3-3.3,2.2-4c5.5-0.6,5.1,1.8,5.1,1.8l13.4,14v-15.6c0,0-4.5-2-1.3-2.9c3.2-0.9,4.4-1.3,5.6-1.5
		c1.3-0.3-0.8,3.3-0.8,3.3V696c0,0-2,3.2-5.1-0.4c-3.1-3.6-14.5-15.9-14.5-15.9v19.2C-297.6,698.8-296,700-297.2,701.1z
		 M-339.5,662.6c0.3-12.6,10.8-21.5,22.9-18.4l-0.7,5.5c0.9-4.2-15.2-8-16.1,10.4c-1,18.4,12.5,11.4,14.7,7.6c0.9-1.7,3.3-0.4,2.7,1
		C-319.4,678.2-339.9,678.7-339.5,662.6z M-235,777.9c-40.4,0-75.8-21.7-95.2-54c30.7-7.2,119.2-27.5,121.1-24.1
		c2.4,4.1-1.8,11.2,4.1,14.2c4,2,48.9-10.2,77-18.2C-140.5,743-183.7,777.9-235,777.9z M-199.6,695c-13,1.8-4.7-8.8-8.8-12.4
		c-3.2-2.8-18.8,1-25.4,2.7v-18.8c7.6-2.1,21.9-5.7,25.4-4c4.7,2.4,0,7.7,2.9,12.4c2.6,4.1,65.2-12.6,80.4-16.8
		c0.2,2.9,0.4,5.9,0.4,8.8c0,3.5-0.2,7-0.5,10.5C-148,683.2-190.3,693.7-199.6,695z"/>
	<path fill="#FFFFFF" d="M-207.4,725.8c0-3,0-4.4,0.2-5.8c0-0.1-0.4-0.4-0.5-0.3c-1.6,0.7-4.3,1.7-7,1.9c-0.1,0.1-0.2,1.1-0.1,1.3
		c0.5,0.1,1.3,0.2,1.8,0.3c0.5,0.1,0.8,0.6,0.8,1.3c0.1,1,0.1,3.6,0.1,6.5c0,3,0,5.4-0.1,6.9c0,0.4,0,3.6-0.1,4h5.2
		c-0.1-0.4-0.1-3.6-0.2-4.1C-207.4,734.7-207.4,728.7-207.4,725.8z"/>
	<path fill="#FFFFFF" d="M-303.1,617.8l2.9-3.3l-0.4-4.2l-2.5,0.5v-0.7c-1.1,2.2-1.7,4.5-1.9,6.8v-0.1L-303.1,617.8z"/>
	<path fill="#FFFFFF" d="M-326.9,694c0.3,0.3,0.5,0.5,0.6,0.5c1.5,0.7,2.4-0.7,2.4-0.7l0,0l0,0l33.5-40.3l-1.5-1.2L-326.9,694z"/>
	<path fill="#FFFFFF" d="M-255.4,725.8c0-3,0-4.4,0.2-5.8c0-0.1-0.4-0.4-0.5-0.3c-1.5,0.7-4.3,1.7-7,1.9c-0.1,0.1-0.2,1.1-0.1,1.3
		c0.5,0.1,1.3,0.2,1.8,0.3c0.5,0.1,0.8,0.6,0.8,1.3c0.1,1,0.1,3.6,0.1,6.5c0,3,0,5.4-0.1,6.9c0,0.4,0,3.6-0.1,4h5.2
		c-0.1-0.4-0.1-3.6-0.2-4.1C-255.4,734.7-255.4,728.7-255.4,725.8z"/>
	<path fill="#FFFFFF" d="M-326.5,628.1l12.1,9.2c0.4,0.2,4.2,2.7,10.8,4.3h0.1l0.1,0.1l47.5,37.1l0,0l0,0c0,0,1.1,1.1,2.4,0.2
		c0.1,0,0.3-0.3,0.5-0.6l-72.7-56.3c-1.1,1.2-1.9,2.4-2.1,3.4C-328,626.4-327.7,627.2-326.5,628.1z"/>
	<path fill="#FFFFFF" d="M-273.8,633.6L-273.8,633.6l0.2-0.2c6.2-3.1,9.4-6.3,9.7-6.6l11.7-13.7c0.9-1.1,1-2,0.6-2.8
		c-0.4-0.9-1.5-1.9-2.8-2.9l-33.6,40l1.5,1.2L-273.8,633.6z"/>
</g>
</svg>
