<?xml version="1.0" encoding="utf-8"?>
<!-- Generator: Adobe Illustrator 19.1.0, SVG Export Plug-In . SVG Version: 6.00 Build 0)  -->
<svg version="1.1"
	 id="svg2598" sodipodi:docname="Paysandu FC2.svg" inkscape:version="0.45.1" sodipodi:version="0.32" inkscape:output_extension="org.inkscape.output.svg.inkscape" sodipodi:docbase="C:\Temp" xmlns:inkscape="http://www.inkscape.org/namespaces/inkscape" xmlns:dc="http://purl.org/dc/elements/1.1/" xmlns:rdf="http://www.w3.org/1999/02/22-rdf-syntax-ns#" xmlns:sodipodi="http://sodipodi.sourceforge.net/DTD/sodipodi-0.dtd" xmlns:svg="http://www.w3.org/2000/svg" xmlns:cc="http://web.resource.org/cc/"
	 xmlns="http://www.w3.org/2000/svg" xmlns:xlink="http://www.w3.org/1999/xlink" x="0px" y="0px" viewBox="-237 820.7 452 452.4"
	 enable-background="new -237 820.7 452 452.4" xml:space="preserve">
<sodipodi:namedview  inkscape:document-units="px" inkscape:pageshadow="0" inkscape:window-width="744" inkscape:current-layer="layer1" inkscape:pageopacity="0.0" inkscape:window-x="858" inkscape:window-y="183" inkscape:window-height="573" bordercolor="#ffffff" pagecolor="#ffffff" inkscape:zoom="0.35" id="base" inkscape:cx="350" inkscape:cy="520" borderopacity="0.0">
	</sodipodi:namedview>
<g>
	<g>
		<path id="path5" fill="#0091CF" d="M-11,1273.1c-106.9-65.2-205.7-175.8-226-361.6c47.3-13.6,86.1-49.2,109.6-90.8h232.8
			c23.6,41.7,62.3,77.2,109.6,90.8C194.7,1097.3,96,1207.9-11,1273.1L-11,1273.1z"/>
		<g>
			<path fill="#FFFFFF" d="M-6.5,1154.2c-0.1-0.4-0.6-0.6-0.9-0.6c-0.5,0.1-2.3,0.5-1.5,1.2S-6.3,1154.6-6.5,1154.2z"/>
			<path fill="#FFFFFF" d="M1.5,1153.3c-0.2-0.6-0.8-0.9-1.4-0.9c-0.8,0.2-3.2,0.8-2,1.8C-0.7,1155.2,1.8,1154,1.5,1153.3z"/>
			<path fill="#FFFFFF" d="M106.7,980c3.5,3.7,8.8,6.9,15.6,9.6c5.6,2.2,10.6,3.3,14.9,3.1s8.3-1.4,12.1-3.6
				c3.7-2.2,7.1-5.5,10.2-9.9l-15-11.9c-2.5,3.7-5,6.1-7.8,7.5c-2.7,1.3-6,1.3-9.7-0.2c-3.8-1.5-6.3-4-7.4-7.4s-0.3-8.7,2.5-15.7
				c2.2-5.7,4.8-9.4,7.6-11.4c3.8-2.6,7.9-3.1,12.3-1.3c1.9,0.8,3.6,1.9,4.8,3.3c1.3,1.4,2.1,3.1,2.6,5c0.3,1.2,0.4,2.8,0.2,5
				l18.7,3c0.4-7.5-1-13.8-4.3-18.8s-8.9-9.1-16.8-12.2c-10.2-4-19.1-4.3-26.9-0.9c-7.8,3.4-13.7,10.3-17.9,20.8
				c-3.1,7.8-4,14.9-2.9,21.1C100.8,971.3,103.2,976.3,106.7,980z"/>
			<path fill="#FFFFFF" d="M-1.5,933.2c-1.9,1.7-4.7,2.5-8.2,2.5c-4.8,0-8.5-1.6-11-4.9c-1.6-2-2.6-5-3.1-8.8l-23.8,1.5
				c0.7,8.2,3.7,14.9,9,20.2s14.8,7.9,28.5,7.9c7.8,0,14.3-1.1,19.5-3.4c5.2-2.3,9.2-5.6,12-10c2.9-4.4,4.3-9.1,4.3-14.3
				c0-4.4-1.1-8.4-3.2-12s-5.6-6.5-10.3-9c-4.7-2.4-12.5-4.8-23.4-7.1c-4.4-0.9-7.2-1.9-8.4-3c-1.2-1-1.8-2.2-1.8-3.5
				c0-1.8,0.7-3.3,2.2-4.5s3.6-1.8,6.6-1.8c3.5,0,6.3,0.8,8.3,2.5s3.3,4.3,4,7.9l23.5-1.4c-1-8.4-4.3-14.5-9.7-18.3
				s-13.3-5.8-23.6-5.8c-8.4,0-15,1.1-19.9,3.2c-4.8,2.1-8.4,5-10.9,8.7c-2.4,3.7-3.6,7.6-3.6,11.8c0,6.3,2.4,11.5,7.1,15.6
				s12.5,7.3,23.4,9.8c6.7,1.5,10.9,3,12.8,4.7c1.8,1.7,2.7,3.5,2.7,5.6C1.4,929.5,0.5,931.5-1.5,933.2z"/>
			<path fill="#FFFFFF" d="M-131.8,984.3l-15.6-19.7l9-7.1c6.6-5.2,10.4-10.7,11.2-16.2c0.8-5.6-0.9-11.1-5.1-16.4
				c-4.1-5.2-8.8-8.1-14-8.5c-5.2-0.5-10.8,1.6-16.7,6.3l-27.4,21.5l42.1,53.2L-131.8,984.3z M-151.9,950.6l-4,3.2l-9.4-11.9
				l4.7-3.7c3.1-2.4,5.6-3.5,7.7-3.2c2,0.3,3.7,1.3,5,2.9c1.4,1.7,1.8,3.6,1.4,5.7C-147,945.8-148.8,948.1-151.9,950.6z"/>
			<path fill="#FFFFFF" d="M126.1,1044.5c-5.2,0.6-10.7,0.6-13-2.5c9.3-3,35.6-12.3,36.8-26.6c-19.2,1.9-68.1-5.3-102.3,1.7
				c-25.8,5.3-41.5,19.9-40.9,39.9c10.5-4.2,28.6,1.4,43.8,4.8c-1.5-3.5-2.2-5.6-1.1-7.1c7.5,6.1,15.9,13.1,34.4,10
				c-2.7-2.5-4.5-5.1-3.6-7.6C98.6,1058.4,116.9,1054.6,126.1,1044.5z M77.7,1053.2l-0.9,2.7c-0.7,2.1-0.5,4.1,0.3,5.9
				c-4.5,0.2-8.9-0.3-13.2-2c-4.7-1.8-8.3-4.8-12.1-7.9l-3-2.5l-2.3,3.1c-1,1.3-1.3,2.8-1.3,4.2c-10.6-2.6-24.4-6-34.6-4.5
				c2.1-18.5,20.6-28,37.8-31.5c11.7-2.4,24.3-3,36.3-3.1c12.5-0.1,25,0.6,37.5,1.1c5.3,0.2,10.5,0.5,15.8,0.6c2.3,0,4.7,0.1,7,0
				c-5.4,9.4-24.8,16.5-32.8,19.1l-4.8,1.6l3,4.1c1.4,1.9,3.3,3,5.5,3.7c-10.4,5.4-24.7,6.3-35.2,5.6L77.7,1053.2z"/>
			<path fill="#FFFFFF" d="M23.2,1131.8c-8.9-13.5-24.2-24.9-26.3-40.2c-4.3-30.2,4.8-67.8,18-87.4c-9.5-1.7-16.4,1.6-20.9,8
				c-2.2-7-4.1-14.4-9.6-21.5c-5.9,7.7-9.7,15-12.5,22.3c-9.2-5.7-17.3-5.5-24.4-5.6c9.5,14.2,15.6,29.6,18.5,45.3
				c-15.6-20.3-31.8-41-76-41.1c-21.4,0-43.4-3.3-66.9-11.5c8.2,19.9,24.6,28.7,39.9,35.9c-3,1.8-7.2,1.8-10.4,1.9
				c7.7,7.8,22.8,13.1,39.5,15.3c-1.1,1.9-5.5,3-9.7,4c10.1,5.8,30.9,4.6,41.7,2.5c-1.1,2.3-3.7,3.2-6.2,4c8.7,2.9,22.7-3,31.9-2.6
				c6.8,0.3,12.7,2.9,17.9,6.8c0.4,7.4,0.2,14.8-0.7,22.1c-0.7,6-7.8,10.6-7.2,16.6c0.6,6.4,7.2,11.6,10.8,16.9
				c6.1,8.9,8.9,19.9,14.5,26.2c0.6,0.6,1.7,3.9,4.3,6.3c1.9,1.7,5.2,1.2,5.4-0.3c0.4-2.9-2.5-6-3.9-8.1c1,1.1,4.6,6.8,5,7.4
				c1.5,2.5,6.8,2.4,6.8-0.7c0-2.4-1.4-5.7-4.1-9c2.1,2.1,4.2,6.4,6.1,7.5c3.2,2,6.3,0.4,7-0.8c1.1-1.9-1.1-6.9-5-10.3
				c2.9,2.5,5,6.6,6.1,7.8c4.4,4.5,8.6-0.3,8.6-2.7c0-1.2-0.3-2.1-0.7-2.9c-0.1-0.2-0.2-0.4-0.3-0.6c-1.1-1.7-2.7-2.7-3.5-4
				c0.6,0.9,2,2.2,2.8,3c0.4,0.4,0.5,0.7,0.7,1c0.1,0.2,0.2,0.4,0.3,0.6c0.1,0.2,0.3,0.3,0.5,0.6c1.1,1.1,2.7,2.3,4,2.6
				c4.7,0.9,7.5-3.9,6.6-6.9C30.7,1135.4,26.4,1136.6,23.2,1131.8z M-49.7,1057.6c-5.1-0.2-10.8,1.1-15.8,2
				c-1.9,0.4-4.2,0.8-6.5,1.1l2.8-5.9l-7.1,1.3c-7.4,1.4-20.1,2.4-30,0.8c0.7-0.6,1.4-1.2,1.8-2l2.6-4.7l-5.4-0.7
				c-9-1.2-21.5-3.9-30.5-9.1c1-0.3,2-0.8,2.9-1.3l5.8-3.6l-6.2-2.9c-14.1-6.6-26.3-13.6-34.2-26.3c19.4,5.9,39.2,8.9,59.6,8.9
				c17.6,0,34.3,3.3,48.8,13.8c11,8,18.7,18.6,26.9,29.3c0.5,1.6,0.9,3.2,1.4,4.8C-37.8,1059.9-43.4,1057.9-49.7,1057.6z
				 M-7.5,1153.2c0,0,1,0,1.3,0.9c0.3,0.8-1.9,1.9-3,1C-10.2,1154.1-8.6,1153.5-7.5,1153.2z M0.1,1152c0,0,1.4,0,1.7,1.1
				c0.4,1.1-2.5,2.5-4,1.3C-3.6,1153.2-1.4,1152.4,0.1,1152z M8.7,1148.4c0,0,1.6,0.1,2,1.3c0.4,1.2-2.9,2.9-4.5,1.5
				C4.5,1149.7,6.9,1148.8,8.7,1148.4z M19.6,1144.7c0.5,1.6-3.7,3.7-5.8,1.9c-2.1-1.8,1-3,3.3-3.5
				C17.1,1143,19.1,1143.1,19.6,1144.7z M30,1140.6c-0.6,1.8-3.6,2.7-4.9,2.1c-1.3-0.6-3.5-3.1-3.5-3.1s3.9-2.7,5.8-2.2
				C29.2,1137.9,30.6,1138.8,30,1140.6z"/>
			<path fill="#FFFFFF" d="M95,840.7h-211.9c-23.6,37.6-58.5,69-100,85.1c18.9,139.6,87,251.3,206,327.3
				c119-76.1,187.1-187.8,206-327.3C153.5,909.7,118.6,878.3,95,840.7z M70.2,1073.9v98.3c-23.5,25-50.6,47.6-81.2,67.8
				c-30.6-20.2-57.7-42.8-81.2-67.8v-98.3h-13.9v82.7c-52.9-62.1-85.6-137.3-98.7-223.9c38.3-16.9,70.7-46.1,93.9-80.9h4.9v153.1
				h13.9V851.8H70.3v153.1h13.9V851.8h4.9c23.1,34.8,55.5,64,93.9,80.9c-13.1,86.6-45.8,161.8-98.7,223.9v-82.7H70.2z"/>
			<path fill="#FFFFFF" d="M10.3,1149.8c-0.2-0.6-0.9-1-1.6-1c-0.9,0.2-3.7,0.9-2.3,2.1C7.7,1152,10.6,1150.7,10.3,1149.8z"/>
			<path fill="#FFFFFF" d="M14.1,1146.3c1.8,1.5,5.6-0.2,5.2-1.5c-0.3-0.9-1.3-1.4-2.1-1.4C16,1143.7,12.2,1144.6,14.1,1146.3z"/>
			<path fill="#FFFFFF" d="M27.2,1137.8c-1.2-0.3-3.8,1.1-5.1,1.9c0.9,0.9,2.2,2.2,3.1,2.7c1.3,0.7,3.9-0.5,4.4-1.9
				C30.3,1138.8,28.6,1138.2,27.2,1137.8z"/>
		</g>
	</g>
</g>
</svg>
