<?xml version="1.0" encoding="utf-8"?>
<!-- Generator: Adobe Illustrator 16.0.0, SVG Export Plug-In . SVG Version: 6.00 Build 0)  -->
<!DOCTYPE svg PUBLIC "-//W3C//DTD SVG 1.1//EN" "http://www.w3.org/Graphics/SVG/1.1/DTD/svg11.dtd">
<svg version="1.1" id="HQFL" xmlns="http://www.w3.org/2000/svg" xmlns:xlink="http://www.w3.org/1999/xlink" x="0px" y="0px"
	 width="520.779px" height="530.193px" viewBox="30.849 134.73 520.779 530.193"
	 enable-background="new 30.849 134.73 520.779 530.193" xml:space="preserve">
<g>
	<g>
		<g>
			<path d="M291.234,663.75C161.247,583.771,73.052,492.574,32.091,365.182c81.125-31.062,84.302-93.853,7.011-132.487
				l114.662-96.623c39.654,37.646,84.955,54.068,137.469,55.73c52.514-1.663,97.827-18.085,137.479-55.73l114.662,96.623
				c-77.291,38.635-74.113,101.426,7.012,132.487C509.424,492.574,421.223,583.771,291.234,663.75L291.234,663.75z M291.243,649.464
				C168.906,573.312,90.479,499.166,47.605,371.134c76.164-28.662,83.527-100.76,12.486-138.713l93.672-80.008
				c39.654,37.646,84.955,49.532,137.469,51.195c52.514-1.663,97.833-13.549,137.485-51.195l93.674,80.008
				c-71.043,37.953-63.678,110.051,12.484,138.713C492.002,499.166,413.58,573.312,291.243,649.464L291.243,649.464z"/>
			<path fill="#FFFFFF" d="M291.234,664.923l-0.524-0.322c-68.264-42.002-121.64-85.078-163.179-131.689
				c-44.804-50.277-76.334-105.041-96.392-167.424l-0.29-0.901l0.885-0.339c38.347-14.682,61.046-37.522,62.277-62.663
				c1.225-25.015-18.952-49.799-55.356-67.996l-1.36-0.68l116.508-98.179l0.649,0.616c37.487,35.588,82.238,53.729,136.812,55.457
				c54.52-1.729,99.273-19.869,136.76-55.457l0.647-0.616l116.508,98.18l-1.358,0.68c-36.404,18.197-56.58,42.981-55.355,67.996
				c1.23,25.141,23.931,47.98,62.277,62.663l0.885,0.339l-0.291,0.901c-20.057,62.382-51.588,117.146-96.395,167.423
				c-41.539,46.611-94.918,89.688-163.184,131.689L291.234,664.923z M33.333,365.775
				c38.551,119.117,118.135,210.701,257.901,296.799c139.771-86.104,219.357-177.688,257.908-296.799
				c-38.586-14.993-61.414-38.319-62.676-64.091c-1.25-25.528,18.812-50.692,55.105-69.199L428.75,137.412
				c-37.725,35.534-82.709,53.656-137.486,55.391c-54.833-1.734-99.814-19.855-137.539-55.391L40.903,232.484
				c36.293,18.507,56.355,43.671,55.105,69.199C94.747,327.456,71.918,350.782,33.333,365.775z M291.243,650.642l-0.528-0.328
				c-67.817-42.215-114.643-79.189-151.827-119.885c-41.994-45.959-71.3-96.477-92.23-158.977l-0.306-0.914l0.902-0.339
				c36.315-13.666,59.092-38.571,60.928-66.62c1.782-27.221-15.918-52.835-48.562-70.275l-1.293-0.69l95.472-81.544l0.653,0.62
				c35.109,33.332,77.304,49.036,136.812,50.921c59.457-1.885,101.656-17.59,136.766-50.921l0.651-0.62l95.474,81.544l-1.293,0.69
				c-32.644,17.439-50.345,43.054-48.562,70.274c1.836,28.049,24.613,52.954,60.93,66.621l0.9,0.339l-0.305,0.914
				c-20.933,62.502-50.236,113.018-92.229,158.975c-37.184,40.697-84.008,77.672-151.825,119.887L291.243,650.642z M48.859,371.728
				C93.256,503.48,177.877,577.654,291.242,648.289c113.36-70.633,197.979-144.803,242.378-276.561
				c-36.547-14.024-59.443-39.398-61.316-68.019c-1.812-27.676,15.783-53.663,48.328-71.474l-91.881-78.477
				c-35.359,33.268-77.811,48.961-137.488,50.851c-59.728-1.89-102.174-17.582-137.534-50.851l-91.881,78.477
				c32.543,17.811,50.14,43.797,48.328,71.474C108.303,332.33,85.407,357.704,48.859,371.728z"/>
		</g>
		<g>
			<g>
				<path fill="#FFFFFF" d="M70.53,222.392v15.248c-3.299-2.17-6.8-4.262-10.53-6.255L70.53,222.392L70.53,222.392z M70.53,358.917
					v68.042c-8.581-17.756-16.242-36.633-23.016-56.859C56.06,366.883,63.73,363.116,70.53,358.917L70.53,358.917z"/>
			</g>
			<g>
				<path d="M119.414,505.076V180.639l-48.868,41.739v15.272c52.464,34.515,50.603,89.99,0,121.257v68.081
					C84.394,455.634,100.638,481.355,119.414,505.076L119.414,505.076z"/>
			</g>
			<g>
				<path fill="#FFFFFF" d="M168.282,163.908v393.685c-17.891-16.572-34.155-33.934-48.868-52.52V180.639l34.259-29.262
					C158.459,155.921,163.329,160.087,168.282,163.908L168.282,163.908z"/>
			</g>
			<g>
				<path d="M216.964,598.066V190.25c-17.102-5.971-33.301-14.48-48.682-26.343v393.688
					C183.347,571.552,199.558,584.955,216.964,598.066L216.964,598.066z"/>
			</g>
			<g>
				<path fill="#FFFFFF" d="M265.759,200.845v431.37c-17.231-11.297-33.516-22.639-48.868-34.205V190.224
					C232.417,195.652,248.685,198.989,265.759,200.845L265.759,200.845z"/>
			</g>
			<g>
				<path d="M314.627,633.474V201.047c-7.666,0.781-15.489,1.272-23.485,1.525c-8.655-0.274-17.113-0.827-25.383-1.728v431.37
					c8.248,5.408,16.706,10.807,25.394,16.215C299.168,643.441,306.988,638.46,314.627,633.474L314.627,633.474z"/>
			</g>
			<g>
				<path fill="#FFFFFF" d="M359.396,192.208v410.284c-14.15,10.449-29.068,20.729-44.771,30.98V201.045
					C330.201,199.457,345.109,196.664,359.396,192.208L359.396,192.208z"/>
			</g>
			<g>
				<path d="M408.205,562.902V168.205c-15.447,10.937-31.711,18.679-48.869,24.024v410.31
					C376.775,589.664,393.051,576.537,408.205,562.902L408.205,562.902z"/>
			</g>
			<g>
				<path fill="#FFFFFF" d="M456.852,175.486v337.047c-14.715,17.758-30.911,34.41-48.646,50.369V168.205
					c6.971-4.936,13.775-10.518,20.422-16.827L456.852,175.486L456.852,175.486z"/>
			</g>
			<g>
				<path d="M505.709,439.011V354.89c-42.746-30.488-44.193-79.815,0-112.992v-24.684l-48.857-41.729v337.048
					C475.463,490.07,491.707,465.837,505.709,439.011L505.709,439.011z"/>
			</g>
			<g>
				<path fill="#FFFFFF" d="M505.828,438.783v-83.809c8.164,5.807,17.818,10.933,28.957,15.124
					C526.486,394.879,516.85,417.634,505.828,438.783L505.828,438.783z M505.828,241.808v-24.492l16.471,14.069
					C516.234,234.625,510.756,238.12,505.828,241.808L505.828,241.808z"/>
			</g>
		</g>
		<g>
			<path d="M433.107,149.87l93.661,78.299l-373.977,325.79l-77.441-96.951L433.107,149.87L433.107,149.87z M437.988,160.224
				l78.112,65.646l-362.514,315.1l-63.191-81.244L437.988,160.224L437.988,160.224z"/>
		</g>
		<g>
			<polygon fill="#FFFFFF" points="437.996,160.16 516.109,225.806 153.597,540.906 90.405,459.662 			"/>
		</g>
		<g>
			<path d="M110.682,469.515l43.778-38.93l10.068,12.098l-14.694,13.066l30.688,36.873l-14.401,12.807l-30.688-36.873
				l-14.684,13.059L110.682,469.515L110.682,469.515z M191.303,397.821l14.38-12.787l24.302,29.2
				c2.411,2.896,4.244,6.008,5.531,9.347c1.278,3.326,1.811,6.781,1.581,10.34s-1.031,6.611-2.395,9.191
				c-1.898,3.572-4.796,7.104-8.725,10.598c-2.268,2.016-4.875,4.057-7.841,6.1c-2.956,2.053-5.742,3.379-8.369,3.988
				c-2.627,0.611-5.454,0.664-8.469,0.172c-3.017-0.494-5.602-1.467-7.769-2.914c-3.48-2.32-6.222-4.684-8.225-7.09l-24.302-29.201
				l14.379-12.786l24.881,29.895c2.23,2.68,4.672,4.139,7.315,4.387c2.664,0.25,5.243-0.732,7.75-2.963
				c2.474-2.201,3.811-4.678,3.988-7.416c0.176-2.715-0.874-5.451-3.133-8.166L191.303,397.821L191.303,397.821z M215.156,376.609
				l23.94-21.29c5.209-4.632,10.198-6.806,14.964-6.502c4.757,0.293,9.153,2.853,13.148,7.652
				c4.118,4.949,5.924,10.068,5.407,15.369c-0.517,5.302-3.678,10.533-9.484,15.696l-7.879,7.007l15.126,18.175l-14.466,12.866
				L215.156,376.609L215.156,376.609z M246.998,384.622l3.527-3.137c2.778-2.471,4.303-4.699,4.587-6.718
				c0.273-2.009-0.244-3.811-1.554-5.384c-1.281-1.54-2.86-2.417-4.72-2.608c-1.858-0.213-4.138,0.882-6.829,3.275l-4.102,3.648
				L246.998,384.622L246.998,384.622z M262.809,334.233l14.433-12.836L318,370.369l-14.437,12.836L262.809,334.233L262.809,334.233z
				 M309.354,292.841l35.617-31.674l8.761,10.523l-21.152,18.81l7.117,8.552l18.059-16.059l8.228,9.885l-18.058,16.06l16.652,20.01
				l-14.465,12.864L309.354,292.841L309.354,292.841z M371.361,299.206l13.836-12.305l11.34,13.626l-13.836,12.305L371.361,299.206
				L371.361,299.206z M441.307,225.893l15.963-7.21c2.246,4.47,3.492,8.758,3.748,12.876c0.255,4.118-0.446,8.017-2.098,11.686
				c-1.639,3.681-4.557,7.367-8.725,11.072c-5.068,4.508-9.859,7.419-14.343,8.726c-4.502,1.307-9.549,1.052-15.127-0.772
				c-5.567-1.834-10.887-5.774-15.942-11.852c-6.748-8.107-9.887-16.168-9.4-24.16c0.478-8.004,4.471-15.345,11.969-22.014
				c5.871-5.221,11.521-8.079,16.961-8.574c5.443-0.495,11.128,1.117,17.054,4.834l-10.242,14.287
				c-1.688-1.099-3.064-1.777-4.133-2.039c-1.763-0.438-3.488-0.448-5.172-0.043c-1.693,0.415-3.252,1.266-4.695,2.549
				c-3.256,2.896-4.615,6.505-4.055,10.808c0.395,3.221,2.407,7.024,6.062,11.414c4.525,5.438,8.412,8.451,11.654,9.08
				c3.254,0.618,6.291-0.338,9.123-2.856c2.758-2.451,4.166-5.113,4.221-7.998C444.191,232.832,443.248,229.564,441.307,225.893
				L441.307,225.893z M466.523,214.579l13.838-12.305l11.34,13.626l-13.838,12.305L466.523,214.579L466.523,214.579z"/>
		</g>
	</g>
</g>
</svg>
