<?xml version="1.0" encoding="utf-8"?>
<!-- Generator: Adobe Illustrator 19.1.0, SVG Export Plug-In . SVG Version: 6.00 Build 0)  -->
<svg version="1.1" id="Layer_1" xmlns="http://www.w3.org/2000/svg" xmlns:xlink="http://www.w3.org/1999/xlink" x="0px" y="0px"
	 viewBox="-417.7 606.8 160.4 187.3" enable-background="new -417.7 606.8 160.4 187.3" xml:space="preserve">
<g>
	<path d="M-388.7,765.6c-2.9-1.6-5.7-3.2-8.3-5.1c-1.4-1-2.6-1.9-3.9-3c-1.7-1.4-3.3-2.8-4.8-4.4c-1.3-1.5-2.6-3-3.7-4.6
		c-1.3-1.8-2.5-3.6-3.5-5.6c-0.8-1.5-1.5-3.1-2.1-4.6c-0.5-1.4-1-2.8-1.3-4.3c-0.5-2.5-0.8-4.9-0.9-7.4v-3.3l0.2-3.3
		c0.2-1.6,0.4-3.2,0.7-4.9c0.3-1.6,0.6-3.2,1-4.8c0.7-2.7,1.5-5.3,2.3-7.9c1.9-6.2,4.1-12.2,6.2-18.3c1-3.5,2.1-6.9,2.7-10.5
		c0.3-1.9,0.5-3.7,0.5-5.6c0-0.7-0.1-1.4-0.1-2.1c-0.3-1.8-0.7-3.5-1.2-5.2c-0.2-0.7-0.5-1.4-0.7-2c-1.4-3.4-3.2-6.5-5.2-9.7
		c-2.2-3.6-4.6-7.1-6.9-10.6l26.7-31.3c2.5,1.4,4.9,2.8,7.4,4.1c0.5,0.3,1,0.5,1.5,0.7c2.4,1.1,4.8,2,7.3,2.6
		c2.1,0.5,4.1,0.9,6.3,1.1c0.6,0,1.3,0.1,1.9,0.1c3.9,0.1,7.7-0.3,11.5-1.2c1.2-0.3,2.3-0.6,3.5-1c3.7-1.3,7.2-3,10.8-4.8
		c1.1-0.6,2.3-1.2,3.5-1.9c3.3,1.7,6.5,3.4,9.9,4.9c2,0.8,4,1.6,6,2.2c0.8,0.2,1.5,0.4,2.3,0.6c2.6,0.6,5.3,1.1,8,1.1
		c1.7,0,3.4-0.1,5-0.2c2.1-0.2,4-0.5,6-1c1.6-0.4,3.1-0.9,4.6-1.4c1.8-0.7,3.5-1.5,5.2-2.3l6.7-3.8l26.3,31.5l-5.5,8.4
		c-0.3,0.4-0.5,0.9-0.8,1.3c-1.7,2.8-3.3,5.7-4.7,8.7c-0.7,1.6-1.3,3.2-1.8,5l-0.3,1.3c-0.4,1.9-0.6,3.8-0.5,5.8
		c0,0.6,0,1.3,0.1,1.9c0.5,4.5,1.6,8.8,3,13.1c1.7,5.2,3.6,10.4,5.3,15.6c1,3.1,2,6.3,2.8,9.5c0.5,1.9,0.9,3.7,1.2,5.6
		c0.4,1.9,0.6,3.7,0.8,5.7c0.1,1.4,0.2,2.8,0.2,4.3v2.9c-0.1,1.4-0.2,2.8-0.4,4.3l-0.3,1.5c-0.3,1.3-0.6,2.6-1,3.8
		c-0.5,1.2-0.9,2.4-1.4,3.6c-0.5,1.1-1.1,2.3-1.7,3.4l-2,3.2l-2.3,3.1c-0.8,1-1.6,1.9-2.5,2.8c-0.9,0.9-1.8,1.7-2.7,2.6
		c-1.5,1.4-3.2,2.7-4.9,4c-1,0.7-2.1,1.5-3.1,2.1c-1.5,1-3.1,1.9-4.6,2.7c-1.8,1-3.6,1.9-5.5,2.8c-7.7,3.6-15.7,6.7-23.5,10.4
		c-2.3,1-4.5,2.1-6.7,3.3l-2.6,1.5c-1.3,0.8-2.5,1.5-3.7,2.4c-3.8,2.8-7.4,5.9-11,9.1c-3.5-3.1-6.9-6.1-10.7-8.8
		c-0.8-0.5-1.5-1-2.3-1.6c-4-2.6-8.3-4.7-12.7-6.7c-7.5-3.4-15.2-6.4-22.7-9.9C-386.7,766.6-387.7,766.1-388.7,765.6L-388.7,765.6z"
		/>
	<path fill="#FFFFFF" d="M-397.1,756c-2.3-1.8-4.5-3.6-6.4-5.8c-1.4-1.5-2.6-3.1-3.8-4.8c-1-1.5-1.9-3-2.7-4.6
		c-0.7-1.4-1.3-2.8-1.8-4.3c-0.4-1-0.7-2.1-1-3.2c-0.3-1.2-0.4-2.4-0.6-3.6l-0.2-3.1v-3.1c0.1-1.5,0.2-3.1,0.4-4.6
		c0.2-1.6,0.5-3.1,0.8-4.6s0.7-3.1,1.1-4.6c1-3.6,2.1-7.2,3.3-10.8c2.3-6.7,4.8-13.4,6.6-20.3c0.6-2.5,1.1-4.9,1.4-7.4
		c0.1-1.5,0.1-2.9,0-4.4l-0.1-1.2c-0.3-2.3-0.9-4.5-1.6-6.7c-0.6-1.7-1.4-3.4-2.1-5c-1.4-2.7-3-5.4-4.7-8c-1.5-2.4-3.1-4.7-4.6-7.1
		l23.1-27c2.1,1.2,4.1,2.3,6.2,3.4c2.6,1.3,5.4,2.2,8.2,3c1.6,0.4,3.2,0.7,4.8,1c2.1,0.3,4.2,0.4,6.3,0.4c1.6,0,3.3-0.1,4.9-0.4
		c1.6-0.2,3.1-0.5,4.7-0.8c1.5-0.4,3.1-0.8,4.5-1.3c3-1,5.7-2.2,8.6-3.6c1.6-0.8,3-1.6,4.6-2.4c3.2,1.7,6.6,3.4,10,4.8
		c1.6,0.6,3.2,1.2,4.8,1.7l1.7,0.5c3.1,0.8,6.4,1.4,9.7,1.5c1.8,0,3.6,0,5.4-0.2c2-0.2,3.9-0.5,5.8-1c1.9-0.5,3.8-1,5.6-1.7
		c2-0.7,3.8-1.6,5.7-2.5l4.2-2.4l22.6,27.1l-3.9,6c-0.4,0.5-0.7,1.1-1,1.6c-1.6,2.7-3.2,5.5-4.6,8.4c-0.8,1.8-1.6,3.6-2.1,5.4
		c-0.4,1.2-0.6,2.4-0.9,3.6c-0.1,1-0.3,2-0.4,3c-0.2,5.1,0.9,10.1,2.3,14.9c2.1,7.3,4.9,14.4,7.2,21.7c1,3.1,1.8,6.2,2.6,9.3
		c0.4,1.8,0.7,3.5,1,5.3c0.1,1.3,0.3,2.6,0.4,4c0,1.3,0.1,2.6,0.1,4l-0.1,2.6l-0.5,3.9l-0.9,3.5c-0.4,1.1-0.8,2.2-1.3,3.2
		c-0.5,1.1-1,2.1-1.5,3.1c-0.6,1-1.2,2-1.8,2.9c-0.7,1-1.4,1.9-2.1,2.8c-1,1.2-2,2.3-3.1,3.5c-1.1,1.1-2.3,2.1-3.5,3.1
		c-1.2,1-2.5,2-3.8,2.9c-1.3,0.9-2.7,1.8-4.1,2.6c-2.5,1.5-5,2.7-7.6,4c-6.8,3.2-13.8,6-20.7,9.1c-2.3,1-4.6,2.1-6.9,3.3
		c-3.7,1.9-7.4,3.9-10.7,6.4c-2.6,2-5.1,4.1-7.7,6.3c-4.5-4-9.2-7.8-14.5-10.8c-2.5-1.4-5-2.6-7.5-3.8c-7.8-3.6-15.9-6.7-23.7-10.4
		c-4.6-2.2-8.9-4.6-13-7.6L-397.1,756L-397.1,756z"/>
	<path d="M-406.4,739.8l138.6-98.9c-6.1,9.3-10.8,17.7-10.8,27.5c0,20.2,20.7,48.8,11.1,69.6c-12.7,26.9-46.7,25.3-70,46.4
		C-360.2,763.8-393.1,764.8-406.4,739.8L-406.4,739.8z"/>
	<path d="M-405.1,701.9l119.7-85h0.1l-0.2-0.3c-16.3,9.4-33.6,9-52-1.2c-18.3,10.3-35.6,10.6-51.9,1.2l-19.2,22.5
		c6.6,10,12.3,18.8,12.3,29.3C-396.3,678.3-401.1,690.1-405.1,701.9L-405.1,701.9z"/>
	<polygon points="-290.5,651.9 -293.1,648.2 -289.4,645.6 -286.8,649.3 	"/>
	<path d="M-297.7,647.7c1.3,2.1,1.7,4.3,1.1,6.6c-0.6,2.2-2.1,4.2-4.4,5.8c-2.6,1.9-5.3,2.5-8,1.9c-2.6-0.6-5.1-2.4-7.2-5.4
		c-2.2-3.1-3.1-5.9-2.7-8.7c0.4-2.7,2-5.1,4.8-7.1c2.3-1.6,4.5-2.4,6.7-2.2c2.1,0.2,4,1.2,5.6,3.2l-3.6,2.6
		c-0.9-0.9-1.9-1.4-2.9-1.5c-1,0-2.2,0.4-3.3,1.2c-1.6,1.1-2.5,2.6-2.6,4.2c-0.1,1.6,0.6,3.5,2,5.5s2.9,3.2,4.5,3.6
		c1.6,0.5,3.2,0.1,4.7-1c1.1-0.8,1.8-1.7,2.1-2.8c0.3-1.1,0.2-2.2-0.4-3.5L-297.7,647.7L-297.7,647.7z"/>
	<polygon points="-316.3,670.2 -318.9,666.5 -315.2,663.9 -312.6,667.6 	"/>
	<polygon points="-327.3,678 -340.1,660 -327.5,651.1 -325.2,654.2 -334.2,660.5 -331.3,664.6 -323.5,659.1 -321.2,662.2 
		-329.1,667.8 -323.6,675.5 	"/>
	<path d="M-341.7,679c1.3,2.1,1.6,4.3,1.1,6.6c-0.6,2.2-2.1,4.1-4.4,5.8c-2.6,1.9-5.3,2.6-8,2c-2.7-0.6-5.1-2.4-7.2-5.4
		c-2.2-3.1-3.1-6-2.7-8.7c0.3-2.7,1.9-5.1,4.7-7.1c2.3-1.6,4.6-2.4,6.7-2.2c2.1,0.1,4,1.2,5.6,3.2l-3.6,2.6
		c-0.9-0.9-1.8-1.4-2.9-1.5c-1.1,0-2.2,0.3-3.3,1.1c-1.6,1.2-2.5,2.6-2.6,4.2s0.5,3.5,2,5.5c1.4,2,2.9,3.1,4.5,3.6s3.2,0.1,4.8-1
		c1.1-0.8,1.8-1.8,2.1-2.8c0.3-1.1,0.2-2.2-0.4-3.5L-341.7,679L-341.7,679z"/>
	<path d="M-370.8,709l-12.8-18.1l8.5-6c1.9-1.3,3.6-1.9,5.1-1.8s2.8,0.9,3.9,2.4c0.6,0.9,1,1.8,1.1,2.6c0,0.9-0.1,1.7-0.6,2.6
		c1.2-0.3,2.3-0.2,3.2,0.1c1,0.4,1.8,1.1,2.6,2.1c1.2,1.7,1.6,3.5,1.1,5.3c-0.5,1.7-1.7,3.4-3.8,4.9L-370.8,709L-370.8,709z"/>
	<polygon points="-396.3,700 -392,697 -372.7,710.4 -376.6,713.1 -380.5,710.3 -387.4,715.2 -386,719.8 -389.9,722.6 	"/>
	<path fill="#FFF22D" d="M-309.1,730.3l-3.5,12.2l11.1-7.2l11.1,7.2l-4.1-12.2l10-7.6h-12.4l-4.7-12.3l-4.7,12.3h-12.6L-309.1,730.3
		L-309.1,730.3z M-394.3,640.2l-1.7,5.9l5.4-3.5l5.4,3.5l-2-5.9l4.8-3.7h-5.9l-2.3-6l-2.3,6h-6.1L-394.3,640.2L-394.3,640.2z
		 M-376.3,640.2l-1.7,5.9l5.4-3.5l5.4,3.5l-2-5.9l4.8-3.7h-6l-2.3-6l-2.3,6h-6.1L-376.3,640.2L-376.3,640.2z M-358.3,640.2l-1.6,5.9
		l5.4-3.5l5.4,3.5l-1.9-5.9l4.8-3.7h-6l-2.3-6l-2.3,6h-6.1L-358.3,640.2L-358.3,640.2z M-340.3,640.2l-1.7,5.9l5.3-3.5l5.4,3.5
		l-2-5.9l4.9-3.7h-6l-2.3-6l-2.3,6h-6L-340.3,640.2L-340.3,640.2z"/>
	<path fill="#FFFFFF" d="M-375.1,695.5l4.2-3c1-0.6,1.5-1.3,1.7-1.9c0.2-0.6,0-1.2-0.4-1.9c-0.5-0.7-1-1-1.6-1c-0.6,0-1.4,0.3-2.4,1
		l-4.2,3L-375.1,695.5L-375.1,695.5z"/>
	<path fill="#FFFFFF" d="M-369.6,703.3l4.4-3.1c1-0.8,1.7-1.5,1.9-2.2c0.2-0.7,0-1.5-0.5-2.3c-0.6-0.9-1.2-1.3-2-1.3
		c-0.8,0-1.6,0.3-2.7,1.1l-4.4,3.1L-369.6,703.3L-369.6,703.3z"/>
	<polygon fill="#FFFFFF" points="-391.6,702.1 -388.6,711.5 -383.6,708 	"/>
</g>
</svg>
