<?xml version="1.0" encoding="utf-8"?>
<!-- Generator: Adobe Illustrator 19.1.0, SVG Export Plug-In . SVG Version: 6.00 Build 0)  -->
<svg version="1.1" id="Layer_1" xmlns="http://www.w3.org/2000/svg" xmlns:xlink="http://www.w3.org/1999/xlink" x="0px" y="0px"
	 viewBox="-200.4 308.7 175.6 175.7" style="enable-background:new -200.4 308.7 175.6 175.7;" xml:space="preserve">
<style type="text/css">
	.st0{fill:#2762A6;}
	.st1{fill:#FFFFFF;}
	.st2{fill:#CD3529;}
</style>
<g>
	<path class="st0" d="M-200.4,484.5L-200.4,484.5L-200.4,484.5L-200.4,484.5z M-112.5,484.3c48.3,0,87.7-39.5,87.7-87.8
		c0-48.3-39.4-87.8-87.7-87.8c-48.4,0-87.8,39.5-87.8,87.8C-200.3,444.9-160.8,484.3-112.5,484.3L-112.5,484.3z"/>
	<path class="st1" d="M-193.9,396.6c0,44.9,36.6,81.5,81.6,81.5c44.9,0,81.5-36.6,81.5-81.5c0-45-36.6-81.6-81.5-81.6
		C-157.3,315-193.9,351.6-193.9,396.6L-193.9,396.6z M-188.8,396.6c0-42.2,34.3-76.5,76.5-76.5c42.1,0,76.4,34.3,76.4,76.5
		c0,42.1-34.3,76.4-76.4,76.4C-154.5,473.1-188.8,438.8-188.8,396.6L-188.8,396.6z"/>
	<path class="st1" d="M-112.3,442.2c-25.1,0-45.5-20.4-45.5-45.4c0-25,20.4-45.4,45.5-45.4c24.9,0,45.4,20.4,45.4,45.4
		C-66.9,421.8-87.4,442.2-112.3,442.2L-112.3,442.2z"/>
	<path class="st1" d="M-166.6,396.8c0,29.8,24.3,54.1,54.1,54.1c29.8,0,54-24.3,54-54.1c0-29.8-24.3-54.1-54-54.1
		C-142.3,342.7-166.6,367-166.6,396.8L-166.6,396.8z M-161.6,396.8c0-27.1,22-49.1,49.1-49.1c27,0,49,22,49,49.1
		c0,27.1-22,49.1-49,49.1C-139.5,445.9-161.6,423.9-161.6,396.8L-161.6,396.8z"/>
	<path class="st2" d="M-144.8,361.4c17.2-8.1,25.5,0.2,38.1,1.6c11.6,4.3,22.6-0.7,33.1-2.2c-8.3,33.7,3.6,48.9,5.6,73.3
		c-23.3-1.1-42.1-16.4-69.7-2.9C-134.5,407.8-137.1,384.3-144.8,361.4L-144.8,361.4z"/>
	<path class="st1" d="M-108.1,362.5v16.4h32l2.7-18.2C-86.8,363.8-97.6,365.9-108.1,362.5L-108.1,362.5z"/>
	<polygon class="st1" points="-39.5,407 -39,403.9 -48.1,402.5 -54.1,401.6 -54.5,401.5 -54.9,404.6 -54.1,404.8 -48.2,405.7 
		-49.1,411.8 -54.1,411 -55.9,410.7 -56.4,413.8 -54.1,414.2 -48.1,415.2 -40.9,416.3 -40.4,413.2 -46.5,412.2 -45.6,406.1 	"/>
	<polygon class="st1" points="-54.1,417.9 -57.9,416.6 -58.9,419.5 -54.1,421.2 -48.1,423.3 -44.1,424.6 -43.1,421.7 -48.1,420 	"/>
	<path class="st1" d="M-54.1,384.8l-1-0.3l0.1,3.3l0.9,0.3l2.7,0.9l0.2,6.2l-2.9,1.2l-0.5,0.3l0.1,3.4l0.4-0.2l6-2.7l8.9-3.9
		l-0.1-3.3l-8.8-3.1L-54.1,384.8L-54.1,384.8z M-42.8,391.7l-5.2,2.1l-0.5,0.3l-0.2-4.3l0.7,0.3L-42.8,391.7L-42.8,391.7z"/>
	<path class="st1" d="M-59.2,421.1l-1.7,2.9l2.4,2.9l-3.2,5.3l-3.7-0.6l-1.8,2.9l13.2,2.2l3.4,0.5l1.7-2.9l-5.2-6.6L-59.2,421.1
		L-59.2,421.1z M-52.9,433.9l-1.2-0.3l-4.9-0.9l2.2-3.6l2.7,3.3L-52.9,433.9L-52.9,433.9z"/>
	<polygon class="st1" points="-62.8,361.5 -68.6,355 -65.5,352.2 -60.3,358 -58.3,356.3 -63.6,350.4 -61,348.1 -55.3,354.3 
		-54.1,353.2 -53.4,352.6 -54.1,351.8 -61.1,344 -70.6,352.5 -72.7,354.4 -70.6,356.8 -64.8,363.3 	"/>
	<path class="st1" d="M-60.5,371.3l1.9,5c0.7,1.9,1.2,3.1,1.5,3.6c0.4,0.7,0.9,1.3,1.4,1.7c0.4,0.3,1,0.5,1.6,0.6c0.1,0,0.3,0,0.4,0
		c0.7,0.1,1.4,0,2.1-0.2c0.9-0.4,1.5-0.9,1.9-1.6c0.4-0.7,0.6-1.6,0.6-2.5c0.3,0.3,0.6,0.5,1,0.7c0.3,0.1,0.6,0.2,0.9,0.2
		c0.7,0.2,1.4,0.1,2-0.1c0.6-0.2,1.2-0.6,1.6-1.1c0.4-0.5,0.7-1.1,0.8-1.6c0.1-0.6,0.1-1.1,0-1.7s-0.4-1.5-0.9-2.6l-2.2-5.8
		l-2.2,0.8l-6,2.3L-60.5,371.3L-60.5,371.3z M-48.1,369.9l0.9-0.3l0.7,1.7c0.5,1.4,0.8,2.2,0.9,2.5c0.1,0.6,0.1,1-0.1,1.3
		c-0.2,0.4-0.5,0.6-0.9,0.8c-0.5,0.2-0.9,0.2-1.3,0c0,0,0,0-0.1,0c-0.3-0.2-0.6-0.6-0.9-1c-0.1-0.2-0.4-0.9-0.9-2.1l-0.7-1.9
		L-48.1,369.9L-48.1,369.9z M-52.9,371.8l0.9,2.4c0.5,1.4,0.7,2.2,0.7,2.7c0.1,0.5-0.1,0.8-0.3,1.2c-0.2,0.3-0.5,0.5-1,0.7
		c-0.5,0.2-0.9,0.2-1.4,0.1c0,0,0-0.1-0.1-0.1c-0.4-0.2-0.6-0.4-0.9-0.8c-0.2-0.2-0.5-0.9-0.9-2l-1-2.7l2.8-1.1L-52.9,371.8
		L-52.9,371.8z"/>
	<path class="st1" d="M-72,348.4c0.4-0.8,0.6-1.6,0.5-2.4c-0.1-0.9-0.5-1.6-1.2-2.4c0.7,0,1.4-0.1,2-0.3l0.1-0.1
		c0.6-0.3,1.2-0.8,1.6-1.4c0.3-0.5,0.5-1.2,0.5-1.8c0-0.6-0.1-1.2-0.3-1.7c-0.3-0.5-0.6-1-1.1-1.4c-0.2-0.2-0.4-0.4-0.7-0.5
		c-0.4-0.3-0.9-0.6-1.6-1.1l-2.6-1.6l-2.7-1.6l-7.1,11.8l-1,1.6l1,0.6l3.6,2.2c1.7,1,2.8,1.6,3.3,1.9c0.8,0.3,1.6,0.5,2.2,0.4
		c0.2,0,0.4-0.1,0.7-0.1c0.4-0.1,0.9-0.3,1.3-0.6C-72.9,349.6-72.4,349-72,348.4L-72,348.4z M-74.7,346.6c0,0.1,0,0.1,0,0.1
		c-0.3,0.4-0.6,0.7-1,0.8c-0.4,0.1-0.9,0.1-1.3-0.1c-0.3,0-0.9-0.4-1.9-1l-2.5-1.5l2.2-3.5l2.2,1.3c1.2,0.7,2,1.2,2.3,1.6
		c0,0,0.1,0,0.1,0.1c0.2,0.3,0.4,0.7,0.4,1C-74.3,345.8-74.5,346.2-74.7,346.6L-74.7,346.6z M-74.2,341.3c-0.1-0.1-0.3-0.1-0.5-0.2
		c-0.3-0.3-0.8-0.5-1.4-0.9l-1.8-1.1l1.9-3.1l1.4,0.8l0.2,0.1c1.3,0.7,2.1,1.2,2.3,1.4c0.4,0.3,0.7,0.7,0.7,1c0,0.4,0,0.8-0.3,1.2
		c-0.3,0.4-0.6,0.7-1.1,0.8C-73.3,341.6-73.7,341.5-74.2,341.3L-74.2,341.3z"/>
	<path class="st1" d="M-83.6,329.3l-0.9-0.3l-2.1-0.7l-2.9,8.1c-0.4,1.2-0.7,2-1,2.5c-0.3,0.5-0.7,0.8-1.2,1
		c-0.5,0.3-1.2,0.2-2.1-0.1c-0.9-0.2-1.4-0.7-1.8-1.2c-0.4-0.5-0.5-1.1-0.4-1.7c0-0.4,0.2-1.2,0.7-2.5l2.8-8l-3-1l-2.7,7.9
		c-0.5,1.7-0.9,2.9-1,3.8c0,0.6,0,1.2,0.3,1.9c0.2,0.7,0.7,1.3,1.2,1.9c0.6,0.5,1.6,1.1,3,1.6c1.2,0.4,2.2,0.6,3.1,0.5
		c0.8,0,1.5-0.2,2.1-0.5c0.6-0.4,1.1-0.9,1.6-1.5c0.4-0.7,0.9-1.9,1.5-3.7l1.7-5L-83.6,329.3L-83.6,329.3z"/>
	<polygon class="st1" points="-146.1,347 -148.2,343.4 -141.6,339.3 -142.9,337.1 -149.6,341.1 -151.4,338.1 -144.2,333.8 
		-145.5,331.6 -154,336.6 -155.4,337.5 -154,340 -147.5,350.9 -137.3,344.8 -138.6,342.5 	"/>
	<path class="st1" d="M-121.1,336.7c-0.5,0.6-1.2,1-2,1.1c-1.1,0.2-2.1-0.1-3-0.8c-0.8-0.7-1.4-2.1-1.7-4c-0.3-1.9-0.2-3.2,0.4-4.2
		c0.5-0.9,1.4-1.5,2.6-1.7c0.8-0.1,1.6,0,2.2,0.4c0.7,0.4,1.2,0.9,1.5,1.7l2.9-1.2c-0.5-1.2-1.2-2-2-2.6c-1.4-0.9-3-1.2-4.9-1
		c-2.2,0.4-3.8,1.4-4.9,3c-1.1,1.6-1.4,3.7-1,6.3c0.4,2.4,1.3,4.2,2.9,5.4c1.6,1.2,3.3,1.6,5.4,1.3c1.7-0.3,3-0.9,3.9-1.9
		c0.9-1,1.5-2.4,1.7-4.1l-3.2-0.5C-120.3,335.2-120.6,336-121.1,336.7L-121.1,336.7z"/>
	<polygon class="st1" points="-109.9,323.9 -113,323.9 -113.6,339.3 -102.6,339.7 -102.5,337.1 -110.4,336.8 	"/>
	<polygon class="st1" points="-162.4,346.9 -159.4,343.4 -161.5,341.6 -163.7,344.3 -169.4,351.1 -167.4,352.9 -164.4,349.3 
		-163.7,349.9 -154.4,357.6 -154,357 -152.5,355.2 -154,353.9 	"/>
	<path class="st1" d="M-163.7,361.7c-0.4,0.1-0.8,0.1-1,0.2c-0.6,0.2-1.3,0.4-2,0.9c0.5-1.3,0.5-2.4,0.2-3.4c-0.3-1-1-1.7-2.1-2.3
		c-0.8-0.5-1.6-0.7-2.5-0.6c-0.3,0-0.6,0.1-0.9,0.2c-0.4,0.1-0.9,0.4-1.2,0.7c-0.6,0.5-1.4,1.5-2.2,3l-3.1,5.8l6.6,3.6l7.1,3.9
		l1.1-2.1l0.4-0.7l-0.4-0.2l-5.3-3l0.3-0.6c0.3-0.6,0.6-1,0.9-1.3c0.3-0.3,0.6-0.4,1-0.5c0.4-0.1,1.4-0.3,2.8-0.4h0.3l3.8-0.3
		l1.9-3.3l-3.6,0.2C-162.5,361.6-163.2,361.7-163.7,361.7L-163.7,361.7z M-168.9,361.9c-0.1,0.4-0.5,1.3-1.2,2.6l-1.2,2.1l-0.7-0.4
		l-2.8-1.5l1.2-2.2c0.6-1.1,1-1.8,1.1-2c0.2-0.2,0.3-0.3,0.4-0.4c0.3-0.1,0.5-0.2,0.7-0.3c0.4,0,0.9,0,1.4,0.3
		c0.4,0.2,0.7,0.5,0.9,0.9C-168.9,361.2-168.8,361.5-168.9,361.9L-168.9,361.9z"/>
	<polygon class="st1" points="-164.2,421.5 -166.5,422.9 -163.7,427.6 -162,430.3 -163.7,431.4 -165.7,432.6 -169.7,425.8 
		-171.9,427.2 -172,427.2 -171.9,427.3 -168,433.9 -170.9,435.7 -171.9,434 -175.2,428.5 -177.5,429.8 -171.9,439.2 -171.6,439.8 
		-163.7,435 -158.2,431.7 -163.7,422.4 	"/>
	<path class="st1" d="M-171.9,405.3l2.6-0.2l-0.2-3.1l-2.4,0.2l-3.5,0.2l-0.1-2.1c-0.1-1.4-0.2-2.5-0.4-3.3
		c-0.2-0.5-0.5-1.1-0.9-1.6c-0.4-0.5-1-0.9-1.6-1.2c-0.6-0.2-1.2-0.4-1.9-0.4c-0.2,0-0.4,0-0.5,0c-1.2,0.1-2.2,0.5-3,1.1
		c-0.7,0.6-1.2,1.4-1.4,2.3c-0.1,0.6-0.1,1.9,0,3.8l0.3,5l4.5-0.3L-171.9,405.3L-171.9,405.3z M-182.5,402.9l-0.1-1.6
		c-0.1-1.1-0.1-1.9,0-2.2c0-0.5,0.2-1,0.5-1.4c0.4-0.3,0.8-0.5,1.4-0.5c0.1,0,0.3,0,0.3,0c0.4,0,0.7,0.1,0.9,0.2
		c0.4,0.2,0.7,0.5,0.9,0.9c0.2,0.4,0.3,1.2,0.4,2.5l0,1.7l-2.3,0.1L-182.5,402.9L-182.5,402.9z"/>
	<path class="st1" d="M-176.2,422.5c1.2-0.4,2.1-1.2,2.6-2.3c0.4-0.8,0.5-2.1,0.4-3.9c0-1.4-0.1-2.2-0.1-2.6c0-0.5,0.1-1,0.3-1.3
		c0.2-0.3,0.4-0.5,0.8-0.6c0.1,0,0.2-0.1,0.4-0.1c0.5,0,0.9,0.1,1.3,0.4c0.5,0.4,1,1,1.3,2c0.3,0.9,0.3,1.7,0,2.4
		c-0.3,0.7-0.9,1.2-1.8,1.7l1.2,2.9c1.6-0.8,2.7-1.7,3.2-3.1c0.5-1.3,0.5-2.9-0.1-4.8c-0.4-1.3-0.9-2.3-1.6-3
		c-0.6-0.8-1.4-1.2-2.3-1.5c-0.4,0-0.8-0.1-1.2-0.1c-0.4,0-0.9,0.1-1.4,0.2c-0.9,0.3-1.7,0.8-2.2,1.4c-0.5,0.6-0.9,1.3-1,2.2
		c-0.1,0.8-0.1,2,0,3.5c0.1,1.6,0,2.6-0.1,3.1c-0.1,0.4-0.4,0.6-0.7,0.7c-0.4,0.1-0.7,0.1-1.1-0.2c-0.5-0.4-0.9-1-1.2-1.9
		c-0.2-0.9-0.3-1.6-0.1-2.1c0.2-0.6,0.7-1,1.4-1.4l-1.1-3c-0.4,0.1-0.7,0.3-1,0.4c-0.8,0.5-1.4,1.2-1.8,2.1
		c-0.6,1.2-0.5,2.7,0.1,4.7c0.4,1.1,0.9,2.1,1.5,2.7c0.1,0,0.1,0.2,0.2,0.2c0.6,0.6,1.2,0.9,1.9,1.1
		C-177.8,422.7-177,422.7-176.2,422.5L-176.2,422.5z"/>
	<path class="st1" d="M-182.9,385c0.4,0.8,1,1.4,1.6,2c0.3,0.3,0.6,0.4,0.8,0.6c0.8,0.5,1.7,0.9,2.9,1.2c2.2,0.6,4,0.6,5.6-0.1
		c0.2-0.1,0.4-0.2,0.6-0.3c1.7-0.9,2.9-2.5,3.6-4.7c0.6-2.2,0.4-4.1-0.6-5.9c-0.7-1.3-1.9-2.3-3.6-3c-0.4-0.2-1-0.4-1.6-0.5
		c-2.4-0.7-4.5-0.6-6.2,0.4c-0.3,0.1-0.4,0.3-0.7,0.4c-1.4,1-2.4,2.4-2.9,4.3c-0.3,1.2-0.4,2.4-0.3,3.4
		C-183.6,383.5-183.3,384.3-182.9,385L-182.9,385z M-180.8,380c0.1-0.3,0.2-0.5,0.3-0.8c0.4-0.8,1-1.4,1.8-1.8
		c1.1-0.5,2.5-0.5,4.2,0c1,0.3,1.9,0.7,2.5,1.2c0.5,0.3,0.8,0.7,1.1,1.1c0.6,1,0.7,2.2,0.4,3.3c-0.2,0.9-0.8,1.7-1.6,2.2
		c-0.2,0.1-0.4,0.2-0.6,0.4c-1.1,0.6-2.5,0.6-4.2,0.1c-1.7-0.5-2.9-1.2-3.6-2.2c0,0,0-0.1-0.1-0.2C-181,382.3-181.1,381.2-180.8,380
		L-180.8,380z"/>
	<path class="st1" d="M-95.7,451.7l-2.3,0.6c0,1.1-0.5,2-1.1,2.9c-0.6,0.9-1.2,1.5-1.9,1.9c-0.1,0.1-0.1,0.1-0.2,0.1l0.2,0.7
		l0.5,1.9c1.3-0.9,2.3-1.9,3.1-3.2l2.9,10.9l2.8-0.7L-95.7,451.7L-95.7,451.7z"/>
	<path class="st1" d="M-101.8,462.3c-0.6-0.6-1.3-1-2.2-1.2c1.5-0.9,2.2-2,2.1-3.4c0-1-0.5-1.9-1.2-2.5c-0.9-0.9-2.2-1.3-3.6-1.2
		c-0.9,0-1.6,0.2-2.3,0.6c-0.6,0.4-1.2,0.8-1.5,1.4c-0.4,0.5-0.6,1.3-0.7,2.3l2.7,0.3c0-0.7,0.2-1.2,0.6-1.6
		c0.3-0.4,0.7-0.5,1.2-0.5c0.5-0.1,1,0,1.3,0.4c0.3,0.3,0.5,0.8,0.6,1.2c0,0.6-0.2,1.1-0.6,1.6c-0.4,0.4-1,0.6-1.8,0.6l-0.2,2.4
		c0.5-0.2,1-0.3,1.4-0.3c0.5,0,1.1,0.2,1.5,0.6c0.4,0.4,0.7,1,0.7,1.7c0,0.8-0.1,1.4-0.5,1.9c-0.4,0.5-0.9,0.7-1.6,0.8
		c-0.6,0-1-0.1-1.5-0.5c-0.4-0.4-0.7-0.9-0.8-1.7l-2.9,0.5c0.3,1.3,0.8,2.4,1.8,3.1c1,0.7,2.1,1.1,3.6,1c1.5-0.1,2.6-0.6,3.7-1.7
		c0.5-0.6,0.9-1.2,1.1-1.9c0.1-0.6,0.2-1.1,0.2-1.7c0-0.5-0.1-0.8-0.2-1.1C-101.2,463.1-101.4,462.7-101.8,462.3L-101.8,462.3z"/>
	<path class="st1" d="M-117.4,454c-0.1,0-0.2,0-0.3,0c-1.3,0-2.4,0.4-3.3,1.3c-1,0.9-1.6,2.2-1.6,3.7c0,1.5,0.3,2.8,1.1,3.8
		c0.9,1,1.9,1.5,3.1,1.6c0.3,0.1,0.6,0,0.7,0c0.8-0.1,1.6-0.5,2.2-1.1c-0.2,1.7-0.5,2.9-1,3.5c-0.3,0.4-0.7,0.6-1.1,0.7
		c-0.1,0-0.3,0-0.5,0c-0.5,0-0.9-0.2-1.1-0.5c-0.3-0.3-0.4-0.8-0.5-1.3l-2.9,0.2c0.1,1.3,0.5,2.3,1.3,3c0.7,0.7,1.7,1,2.9,1.1
		c0.2,0,0.5,0,0.8,0c1.4-0.1,2.5-0.7,3.4-1.7c1.1-1.2,1.7-3.2,1.9-6.1c0.1-2.8-0.2-4.8-1.2-6.1C-114.5,454.7-115.8,454-117.4,454
		L-117.4,454z M-116.3,461.6c-0.4,0.4-0.8,0.5-1.4,0.5c0,0,0,0-0.1,0c-0.5,0-1-0.2-1.4-0.7c-0.4-0.5-0.5-1.2-0.5-2.2
		c0-1,0.3-1.7,0.7-2.2c0.4-0.4,0.9-0.6,1.4-0.6c0.1,0,0.1,0,0.1,0c0.5,0.1,1,0.3,1.5,0.9c0.4,0.5,0.6,1.3,0.6,2.3
		C-115.6,460.5-115.9,461.2-116.3,461.6L-116.3,461.6z"/>
	<path class="st1" d="M-128.5,454.7c-1.1,0.4-2.1,0.7-2.9,0.7l-0.7,2.6c1.6,0,3-0.4,4.3-1.2l-3,10.9l2.9,0.8l4.1-15.1l-2.4-0.6
		C-126.6,453.5-127.4,454.2-128.5,454.7L-128.5,454.7z"/>
	<path class="st1" d="M-75.8,452.9c2.4,0,4.3-1.9,4.3-4.3c0-2.4-1.9-4.3-4.3-4.3c-2.3,0-4.2,1.9-4.2,4.3
		C-80,451-78.1,452.9-75.8,452.9L-75.8,452.9z"/>
	<path class="st1" d="M-149.9,454.5c2.3,0,4.2-1.9,4.2-4.3c0-2.4-1.9-4.3-4.2-4.3c-2.4,0-4.3,1.9-4.3,4.3
		C-154.1,452.5-152.2,454.5-149.9,454.5L-149.9,454.5z"/>
	<polygon class="st1" points="-146,358.1 -153.2,359 -142.2,454.5 -134.2,453.6 -145.2,358 	"/>
	<path class="st0" d="M-67.3,434c-0.7-8.1-2.5-15.2-4.1-22.2c-3.5-14-7-28.5-1.5-50.9l0.2-0.9l-0.9,0.1c-2.8,0.4-5.6,1.1-8.4,1.7
		c-7.9,1.8-16,3.7-24.4,0.6l-0.1,0h-0.1c-3.7-0.4-7.1-1.5-10.4-2.5c-7.8-2.4-15.8-4.8-28,1l-0.5,0.2l0.2,0.5
		c7.8,23.4,10.2,46.7,7.1,69.5l-0.1,1.1l1.1-0.5c18.3-8.9,32.3-5.2,47.2-1.2c7.1,1.9,14.5,3.8,22.3,4.2l0.7,0L-67.3,434L-67.3,434z
		 M-89.9,429.3c-14.2-3.8-28.8-7.6-47,0.9c0.8-6.1,1.2-12.3,1.2-18.4c0-0.4,0-0.9,0-1.3c0-4.4-0.3-8.8-0.7-13.3
		c9.1-3.5,18.6-4.7,28.8-3l-0.2-30.7c0.3,0,0.7,0.1,1,0.1c8.7,3.2,17,1.3,25.1-0.5c2.6-0.6,5-1.1,7.4-1.5
		c-1.9,8.2-2.7,15.3-2.7,21.7c0,4.7,0.4,9,1,13.2c0.8,5.4,2,10.4,3.2,15.3c0,0.1,0.1,0.3,0.1,0.5c1.6,6.7,3.3,13.6,4.1,21.3
		C-76,432.9-83,431.1-89.9,429.3L-89.9,429.3z"/>
	<polygon class="st0" points="-152.2,359.7 -141.4,453.5 -135.1,452.8 -145.9,359 	"/>
	<path class="st1" d="M-72.8,411.6c-1.2-4.9-2.4-9.9-3.2-15.3c-10.7,0.5-31.6-2.2-31.6-2.2c-10.2-1.8-19.7-0.5-28.8,3
		c0.4,4.4,0.7,8.9,0.7,13.3C-113.2,404.7-94.6,412.7-72.8,411.6L-72.8,411.6z"/>
	<path class="st1" d="M-125.1,391c-6.6,0-11.9-6.4-11.9-14.2c0-7.9,5.3-14.3,11.9-14.3c6.5,0,11.9,6.4,11.9,14.3
		C-113.2,384.6-118.5,391-125.1,391L-125.1,391z"/>
	<path class="st2" d="M-131.6,369.1c3.4-1.6,5.1,0,7.6,0.3c2.3,0.9,4.5-0.1,6.6-0.5c-1.6,6.7,0.7,9.8,1.1,14.7
		c-4.7-0.2-8.4-3.3-14-0.6C-129.5,378.4-130,373.7-131.6,369.1L-131.6,369.1z"/>
	<path class="st1" d="M-124.2,369.3v3.3h6.4l0.5-3.6C-120,369.6-122.1,370-124.2,369.3L-124.2,369.3z"/>
	<polygon class="st1" points="-131.8,368.4 -133.2,368.6 -131,387.7 -129.4,387.5 -131.6,368.4 	"/>
	<path class="st0" d="M-116.1,383.6c-0.1-1.6-0.5-3.1-0.8-4.4c-0.7-2.8-1.4-5.7-0.3-10.2l0-0.2l-0.2,0c-0.6,0.1-1.1,0.2-1.7,0.3
		c-1.6,0.4-3.2,0.7-4.9,0.1l0,0h0c-0.7-0.1-1.4-0.3-2.1-0.5c-1.6-0.5-3.1-1-5.6,0.2l-0.1,0l0,0.1c1.6,4.7,2,9.4,1.4,13.9l0,0.2
		l0.2-0.1c3.6-1.8,6.5-1,9.4-0.2c1.4,0.4,2.9,0.8,4.4,0.8l0.1,0L-116.1,383.6L-116.1,383.6z M-120.6,382.7c-2.8-0.7-5.8-1.5-9.4,0.2
		c0.1-1.2,0.2-2.4,0.2-3.7c0-0.1,0-0.2,0-0.3c0-0.9-0.1-1.8-0.1-2.7c1.8-0.7,3.7-1,5.7-0.6l0-6.1c0.1,0,0.1,0,0.2,0
		c1.7,0.6,3.4,0.3,5-0.1c0.5-0.1,1-0.2,1.5-0.3c-0.4,1.6-0.5,3.1-0.5,4.3c0,1,0.1,1.8,0.2,2.6c0.2,1.1,0.4,2.1,0.6,3.1
		c0,0,0,0.1,0,0.1c0.3,1.3,0.7,2.7,0.8,4.2C-117.8,383.4-119.2,383-120.6,382.7L-120.6,382.7z"/>
	<polygon class="st0" points="-133,368.8 -130.9,387.5 -129.6,387.4 -131.8,368.6 	"/>
	<path class="st1" d="M-117.2,379.1c-0.2-1-0.5-2-0.6-3.1c-2.1,0.1-6.3-0.5-6.3-0.5c-2-0.4-3.9-0.1-5.7,0.6c0.1,0.9,0.1,1.8,0.1,2.7
		C-125.2,377.8-121.5,379.4-117.2,379.1L-117.2,379.1z"/>
	<path class="st1" d="M-127.6,375c-1.3,0-2.4-1.3-2.4-2.8c0-1.6,1.1-2.9,2.4-2.9c1.3,0,2.4,1.3,2.4,2.9
		C-125.2,373.7-126.3,375-127.6,375L-127.6,375z"/>
</g>
</svg>
