<?xml version="1.0" encoding="utf-8"?>
<!-- Generator: Adobe Illustrator 19.1.0, SVG Export Plug-In . SVG Version: 6.00 Build 0)  -->
<svg version="1.1" id="Layer_1" xmlns="http://www.w3.org/2000/svg" xmlns:xlink="http://www.w3.org/1999/xlink" x="0px" y="0px"
	 viewBox="-402 562.8 208.1 231.6" enable-background="new -402 562.8 208.1 231.6" xml:space="preserve">
<g>
	<path d="M-194,616.9l0.1-32c-31.8,8.2-64.6-11.5-64.6-11.5c-22.9-11.5-39.4-10.6-39.4-10.6s-16.6-0.9-39.5,10.6
		c0,0-32.9,19.8-64.6,11.5l0.1,32c-0.7,126,104.1,177.5,104.1,177.5S-193.3,742.9-194,616.9L-194,616.9z"/>
	<path fill="#FFFFFF" d="M-297.8,783.1c0,0-95.6-54.6-95.7-161.3l-0.1-25.4c39.6-0.2,61.5-14.6,61.5-14.6c21-10.6,34.3-9.8,34.3-9.8
		s13.3-0.8,34.3,9.8c0,0,21.9,14.4,61.5,14.6l-0.1,25.4C-202.3,728.6-297.8,783.1-297.8,783.1L-297.8,783.1z M-213.6,624.5
		L-213.6,624.5l0.1-16.4c-30.1,0.1-54.1-14.8-54.1-14.8c-18.5-9.3-30.3-8.6-30.3-8.6s-11.7-0.7-30.2,8.6c0,0-24,14.9-54.1,14.8
		l0.1,16.4c-0.3,91.4,84.2,145.9,84.2,145.9S-213.2,715.9-213.6,624.5L-213.6,624.5z"/>
	<polygon fill="#FFFFFF" points="-297.9,601.1 -284.4,642.5 -240.9,642.5 -276.1,668.1 -262.6,709.5 -297.9,683.9 -333.1,709.5 
		-319.6,668.1 -354.9,642.5 -311.3,642.5 	"/>
</g>
</svg>
