<?xml version="1.0" encoding="utf-8"?>
<!-- Generator: Adobe Illustrator 19.1.0, SVG Export Plug-In . SVG Version: 6.00 Build 0)  -->
<svg version="1.1" id="Layer_1" xmlns="http://www.w3.org/2000/svg" xmlns:xlink="http://www.w3.org/1999/xlink" x="0px" y="0px"
	 viewBox="-417 618.2 186.9 175.7" enable-background="new -417 618.2 186.9 175.7" xml:space="preserve">
<g>
	<path fill="#FFFFFF" d="M-323.6,789.5c-24.6-21.2-67.7-13.3-80.9-33.2c-20-30.5,1.6-52.1,1.6-76.5c0-6-1.6-21.4-10.2-29.1
		l13.9-27.9c27,15.8,51.8,18.4,75.6-0.2c23.7,18.6,48.5,16,75.5,0.2l13.9,27.9c-8.6,7.7-10.2,23-10.2,29.1c0,24.4,21.6,46,1.6,76.5
		C-256,776.3-299,768.4-323.6,789.5L-323.6,789.5z"/>
	<path d="M-241.1,679.8c0-6.9,1.9-20.2,9.1-26.6l1.9-1.7l-16.6-33.3l-3,1.8c-28.1,16.5-50.9,16.5-71.8,0l-2-1.6l-2,1.6
		c-21,16.4-43.8,16.4-71.9,0l-3-1.8l-16.6,33.3l1.9,1.7c7.2,6.4,9.1,19.8,9.1,26.6c0,7.7-2.3,15.2-4.8,23.2
		c-4.9,15.8-10.4,33.6,3.7,55.1c7.5,11.3,22.8,14.5,39.1,17.8c15.2,3.1,31,6.3,42.4,16.2l2.1,1.8l2.1-1.8
		c11.4-9.8,27.2-13.1,42.4-16.2c16.2-3.3,31.6-6.5,39.1-17.8c14.1-21.5,8.6-39.4,3.7-55.1C-238.8,695-241.1,687.5-241.1,679.8
		L-241.1,679.8z M-404.7,704.9c2.5-8.1,5.1-16.4,5.1-25.1c0-2.1-0.3-19.5-9.5-29.7c1.6-3.2,9.1-18.3,11.4-22.7
		c28.1,15.5,52.4,15.3,74.2-0.7c18.1,13.3,37.9,15.7,60.2,7.2l-146.3,97.3c0-0.5,0-1,0-1.5C-409.7,721.2-407.2,713.1-404.7,704.9
		L-404.7,704.9z M-300.2,774.1c-5.1,1.5-10.1,3.4-14.8,5.8v-77.3l14.8-10V774.1L-300.2,774.1z M-330.8,780.6
		c-4.7-2.6-9.7-4.5-14.9-6.1V723l14.9-10V780.6L-330.8,780.6z M-391.7,762.5c-2.5-1.2-4.8-2.6-6.7-4.3l6.7-4.6V762.5L-391.7,762.5z
		 M-376.8,767.3V744l15.3-10.2v36.8c-1.8-0.4-3.6-0.7-5.4-1.1C-370.3,768.7-373.6,768-376.8,767.3L-376.8,767.3z M-280.4,769.4
		c-1.5,0.3-3,0.6-4.4,0.9v-88l15.8-10.7v95.3C-272.6,767.8-276.4,768.6-280.4,769.4L-280.4,769.4z M-245.5,754.5
		c-2.1,3.1-5,5.5-8.6,7.4v-100l13.6-8.7c-6.9,10.3-7.1,24.7-7.1,26.6c0,8.7,2.6,17,5.1,25.1c2.6,8.3,5,16.3,5,24.8
		C-237.5,737.4-239.6,745.5-245.5,754.5L-245.5,754.5z"/>
	<path fill="none" stroke="#000000" stroke-width="2.6154" stroke-miterlimit="2.6131" d="M-370.2,648.3c11.4,0,20.7,9.3,20.7,20.7
		c0,11.4-9.3,20.7-20.7,20.7c-11.4,0-20.7-9.3-20.7-20.7S-381.6,648.3-370.2,648.3 M-380.4,650.7c1.4,2.6,1.9,5.8,1.2,10
		c-3.7,1.9-2.1,5.1-2.6,8.1c-2.1,3.3-3,5.8-1.4,8.6c-0.5,1.9-1.2,4.2-0.9,6.5 M-389.5,661.8c2.3,1.4,5.1,2.3,7.4,3.5 M-382.3,668.8
		c8.8,5.1,15.1,4.2,23.7,1.4 M-360,651.6c-1.6,3.3-2.1,6.7-0.5,10.7c-6.3,0.5-12.8,0.2-19.3-0.7 M-369.7,647.9c0,2.6,0,4.6,0.2,7.2
		 M-350.4,663.9c-3.7,1.4-7.2,0.9-10.2-1.4c3.3,1.2,2.6,4.4,1.9,7.7c1.9,5.1,0.7,7.4-1.2,9.8c0.7,1.6,1.6,4,1.9,5.8 M-360.4,679.5
		c-7.9,2.1-16,1.2-22.8-2.1 M-371.4,680.9c0,2.8,0.5,5.8,1.2,8.8"/>
	<path fill="#FFFFFF" d="M-394,734.4c-0.7-0.6-2-1.7-4.1-0.3c-1.2,0.8-2.5,2.8-0.2,6.2c1.4,2.2,3.6,3.5,5.7,2.1
		c1.4-0.9,1.8-2.4,1.2-4l2.5-1.7c1.2,3,0.7,5.9-2.3,7.9c-3.2,2.1-7,1.5-9.7-2.7c-2.8-4.2-1.8-8,1.3-10.1c3.6-2.4,6.7-0.9,8,0.8
		L-394,734.4L-394,734.4z"/>
	<polygon fill="#FFFFFF" points="-381.7,737.9 -384.2,739.6 -385.8,737.1 -383.3,735.4 	"/>
	<path fill="#FFFFFF" d="M-380.6,723.7L-380.6,723.7l4.7,3.8l-3.1,2L-380.6,723.7L-380.6,723.7z M-378.2,732l4.5-3l2.4,2l2.7-1.8
		l-12.3-9.2l-2.9,1.9l3.7,14.9l2.7-1.8L-378.2,732L-378.2,732z"/>
	<polygon fill="#FFFFFF" points="-364.5,726.5 -367,728.2 -368.7,725.7 -366.1,724 	"/>
	<path fill="#FFFFFF" d="M-358.9,715.1l3.2-2.1c0.9-0.6,2.1-0.8,2.8,0.3c0.8,1.2,0.5,2.2-0.8,3l-3.1,2.1L-358.9,715.1L-358.9,715.1z
		 M-357.8,722.1l5.1-3.4c2.5-1.6,2.8-2.5,3.1-3.6c0.2-1,0-2.2-0.6-3.2c-0.8-1.2-2-2.1-3.8-1.7c0.3-0.6,1-1.7-0.2-3.5
		c-0.8-1.2-2.8-2.6-5.8-0.6l-5.9,3.9L-357.8,722.1L-357.8,722.1z M-362,710.5l2.9-1.9c1.1-0.8,2.1-0.9,2.7,0.1
		c0.6,1,0.1,1.9-0.9,2.5l-3,2L-362,710.5L-362,710.5z"/>
	<path fill="#FFFFFF" d="M-347.5,705.5l-2.1-3.2l3.1-2.1c1.5-1,2.4-0.2,2.8,0.4c0.8,1.2,0.5,2.1-0.9,2.9L-347.5,705.5L-347.5,705.5z
		 M-345.5,713.9l2.5-1.6l-3.1-4.7l2.6-1.7c1.9-1.2,2.4-0.7,3.5,1c0.8,1.2,1.3,1.8,1.9,2.3l2.8-1.9l-0.2-0.3c-0.7,0.2-1-0.3-2.1-2
		c-1.5-2.3-2.3-2.3-3.6-2c0.9-1.2,0.8-2.8,0-4.1c-0.7-1-2.9-3-6.1-0.9l-6.1,4.1L-345.5,713.9L-345.5,713.9z"/>
	<path fill="#FFFFFF" d="M-334.7,693.2L-334.7,693.2l4.7,3.8l-3.1,2L-334.7,693.2L-334.7,693.2z M-332.3,701.5l4.5-3l2.4,2l2.7-1.8
		l-12.3-9.2l-2.9,1.9l3.7,14.9l2.7-1.8L-332.3,701.5L-332.3,701.5z"/>
	<path fill="#FFFFFF" d="M-320.4,687.8l5-3.4l4.3,6.5l-1.7,1.1l-1.3-1.3c-0.1,1.2-0.3,2.9-2.5,4.3c-2.9,1.9-6.9,1.6-9.7-2.6
		c-2.2-3.3-2.4-7.6,1.7-10.3c3.7-2.5,6.8-1,8,0.6l-2.5,1.7c-0.3-0.5-2.2-1.4-4-0.2c-1.8,1.2-2.6,3.5-0.6,6.6c2.2,3.3,4.6,3,6.3,1.8
		c0.6-0.4,2.3-1.8,1.2-4.6l-2.8,1.9L-320.4,687.8L-320.4,687.8z"/>
	<path fill="#FFFFFF" d="M-309.9,676.8L-309.9,676.8l4.7,3.8l-3.1,2L-309.9,676.8L-309.9,676.8z M-307.6,685.1l4.5-3l2.4,2l2.7-1.8
		l-12.3-9.2l-2.9,1.9l3.7,14.9l2.7-1.8L-307.6,685.1L-307.6,685.1z"/>
	<polygon fill="#FFFFFF" points="-296.9,664.2 -294.5,662.6 -286.5,674.7 -289,676.3 -299.7,671 -299.7,671 -294,679.6 
		-296.3,681.2 -304.3,669.1 -301.7,667.4 -291.3,672.6 -291.3,672.6 	"/>
	<polygon fill="#FFFFFF" points="-278.8,669.5 -281.3,671.2 -287.9,661.3 -291.5,663.7 -293,661.6 -283.1,655 -281.7,657.2 
		-285.4,659.6 	"/>
	<polygon fill="#FFFFFF" points="-271.1,664.5 -273.7,666.1 -281.7,654.1 -279.2,652.4 	"/>
	<polygon fill="#FFFFFF" points="-269.3,645.8 -266.9,644.3 -258.9,656.3 -261.4,658 -272.1,652.7 -272.1,652.7 -266.4,661.3 
		-268.7,662.9 -276.8,650.8 -274.1,649 -263.7,654.3 -263.7,654.2 	"/>
	<path fill="#FFFFFF" d="M-258.3,647.3c-2.2-3.4-0.9-5.5,0.5-6.4c1.4-0.9,3.8-1.3,6.1,2c2.2,3.4,0.9,5.5-0.5,6.4
		C-253.6,650.2-256.1,650.6-258.3,647.3L-258.3,647.3z M-260.9,648.9c3.8,5.7,8.4,3.6,10,2.5c1.6-1.1,5.3-4.5,1.6-10.2
		c-3.8-5.7-8.4-3.6-10-2.5C-260.9,639.8-264.6,643.3-260.9,648.9L-260.9,648.9z"/>
</g>
</svg>
