<?xml version="1.0" encoding="utf-8"?>
<!-- Generator: Adobe Illustrator 19.1.0, SVG Export Plug-In . SVG Version: 6.00 Build 0)  -->
<svg version="1.1" id="Layer_1" xmlns="http://www.w3.org/2000/svg" xmlns:xlink="http://www.w3.org/1999/xlink" x="0px" y="0px"
	 viewBox="-102.1 179.6 508.4 614.3" enable-background="new -102.1 179.6 508.4 614.3" xml:space="preserve">
<g>
	<path fill="#FFFFFF" d="M218.5,740.4c40.3-18.5,83.1-28.2,119.2-55.5c33.4-24.5,56-61.2,61-102.3c1.9-21.3-0.5-43.2-3.6-64.1
		c-6.9-44.6-24.9-88.8-24.9-134.4c1.6-35.9,11.1-61.9,26.1-95.4l-74.6-89.3c-23.3,5.4-44.9,10.5-68.9,10.5
		C224.3,209,200.3,204,173,195l-20.7-7.8c-38,14.3-75,25.9-116.5,21.8c-18.3-1-34.9-5.7-52.9-9.7L-92,288.7
		c10.5,23.8,19.4,44.6,23.7,70c6.6,41.5-3.8,80.9-14.3,120.6c-9.3,48.4-21.4,96.6-1,144.1C-67,655-48,676.6-17.8,695.8
		c39.2,21.6,82.6,34.4,122.9,53.6c17.5,10,30.9,21.8,47.2,35.1C175.9,764.7,191.1,752.3,218.5,740.4L218.5,740.4z"/>
	<path d="M284,278.1l-11.1-6.7l-12.3,9l-3.6,2.8l3.6,14.2l13.3,51.2l10-7.4l5.2-3.8l-3.6-11.6l18.8-14.2l10.4,6.6l15.7-11.8
		L284,278.1L284,278.1z M284,310.6L284,310.6l-2.8,2.1l-6.9-21.8l9.7,6.2l9.7,6.2L284,310.6L284,310.6z"/>
	<polygon points="260.7,273.5 261.2,273.1 264.5,251.4 260.7,253.9 253.4,259.5 255.3,277.6 	"/>
	<path d="M246.7,355.4c-1.4-1.7-2.4-2.9-3.3-4c-2.9-3.5-5.4-5.5-7.4-6.2c-2.1-0.7-4.7-0.5-7.8,0.5c1.9-3.6,2.9-7.1,2.9-10
		c0-3.1-1.2-6-3.3-9c-3.5-4.7-7.8-6.9-13-6.6c-3.3,0.2-6.9,1.4-11.1,3.6c-2.4,1.2-4.8,2.9-7.4,4.8l-18.7,14l-8.5,6.2l8.5,11.4
		l26.1,34.7l2.9,4l14.3-10.9l-14-18.7l9.8-7.3c2.4-1.9,4.7-2.9,6.6-2.9s3.8,0.9,5.5,2.6c0.7,0.9,2.2,2.6,4.7,5.7
		c2.4,2.9,4.7,5,6.7,6.2l15.2-11.4l-1.4-1.7C252.4,361.1,250,359.4,246.7,355.4L246.7,355.4z M215.9,345.2L215.9,345.2
		c-0.5,1.9-2.4,4-5.4,6.2l-6.7,5.2l-4,2.9l-8.6-11.4l11.2-8.5c0.5-0.3,0.9-0.7,1.4-0.9c2.1-1.6,4.1-2.2,5.7-2.4
		c2.1,0,3.8,0.9,5.2,2.6C216.3,341,216.6,343.1,215.9,345.2L215.9,345.2z"/>
	<path d="M139.9,386l-11.1-6.9L113.1,391l16.9,65.3l9.9-7.4l5.2-3.8l-3.6-11.6l19-14.2l10.2,6.6l7.1-5.4l8.6-6.4l-8.6-5.2L139.9,386
		L139.9,386z M139.9,418.5L139.9,418.5l-2.8,2.1l-6.9-21.8l9.7,6.2l9.7,6.2L139.9,418.5L139.9,418.5z"/>
	<polygon points="74.9,481.7 67,471 93.1,451.5 85.7,441.4 59.6,461 52.8,452.2 81.5,430.7 73.9,420.5 32.9,451.1 30.7,452.7 
		32.9,455.6 68.2,502.8 112.1,469.8 104.5,459.6 	"/>
	<path d="M31.7,502.6l-13.4,10.2c1.4,2.9,1.7,5.9,0.9,8.8c-1,2.9-3.1,5.5-6.4,7.9c-4,3.1-8.1,4.1-12.4,3.1c-4.1-1-8.1-4-11.9-9
		c-3.6-4.8-5.4-9.7-5-14.2c0.2-4.7,2.4-8.5,6.4-11.6c3.1-2.2,5.9-3.5,8.6-3.6c2.8-0.2,5.5,0.7,7.9,2.6L20,486.7
		c-4.8-5-10.5-7.6-17.3-7.6c-6.7,0.2-13.5,2.8-20.4,8c-8.8,6.4-13.8,14-15.4,22.8c-0.3,1.7-0.5,3.5-0.5,5.2v0.2
		c0,6.7,2.4,13.3,7.3,19.9c5.7,7.8,13,12.1,21.8,13.1c8.6,0.9,17.1-1.7,25.4-7.9c5.7-4.3,9.7-9,12.1-14.3c0.3-1,0.9-2.2,1.2-3.3
		c1.6-5.7,1.2-11.6-1.2-17.5C32.6,504.3,32.1,503.5,31.7,502.6L31.7,502.6z"/>
	<path d="M215.5,733.8c0,0,0.1,0,0.1-0.1L215.5,733.8L215.5,733.8z"/>
	<path d="M152.2,194.9c3.9,1.5,18.3,6.9,18.3,6.9h0.1c29.9,9.8,54.4,14.4,81.9,15.2h0.1h0.1c23.3,0,44.2-4.7,66.3-9.7
		c5,6,63.8,76.4,68.9,82.5c-15,33.9-23.4,59.5-24.9,93.9v0.2v0.2c0,29.2,7.2,57.9,14.1,85.6c4.1,16.4,8.3,33.4,10.9,49.9
		c2.2,14.5,4.2,31,4.2,47.3c0,5-0.2,10-0.6,14.9c-4.7,38.1-25.8,73.5-58.1,97.3c-23.6,17.8-49.8,27.8-77.5,38.3
		c-13.3,5-27,10.3-40.4,16.4c-26.9,11.7-43,24.3-63.4,41.3c-0.5-0.4-1.4-1.2-1.4-1.2c-13.6-11.2-26.4-21.8-42.1-30.8l-0.2-0.1
		l-0.2-0.1c-17.2-8.2-35.1-15.3-52.5-22.2c-23.6-9.3-47.8-18.9-70-31.1c-28.3-18-46.6-38.1-63-69.3c-7.7-18-10.5-36.1-10.5-54.4
		c0-24,4.8-48.5,9.8-73.7c0,0,2.1-10.9,2.2-11.3c8.2-30.9,16.6-62.6,16.6-95.5c0-9.2-0.7-18.5-2.1-27.8
		c-4.1-24.3-11.9-43.8-22.4-67.7c5.1-6.1,64.1-76.5,69.1-82.5c3.1,0.7,6.4,1.5,6.4,1.5c14.5,3.4,28.1,6.5,43.4,7.4H35
		C78.4,220.5,116.7,208.2,152.2,194.9L152.2,194.9z M149.6,180.5L149.6,180.5C115,193.6,77.7,206,36.4,201.8h-0.2H36
		C22,201,8.9,198-4.9,194.7l-15.1-3.4l-2.8,3.4l-77.7,92.8l1.8,4.1c11,24.9,19.1,44.3,23.2,68.3c1.3,8.5,1.9,17,1.9,25.4
		c0,31.3-8.2,62.2-16.1,92.2l-0.1,0.2l-2.3,11.8c-5,25.1-10,50.7-10,76.5c0,20.1,3.1,40.3,11.7,60.3l0.1,0.3l0.1,0.2
		c17.5,33.4,38,55.9,68.4,75.1l0.2,0.1l0.2,0.1c23.1,12.7,47.8,22.5,71.6,32c17,6.8,34.7,13.7,51.3,21.7
		c14.6,8.4,26.4,18.1,39.9,29.3l10.6,8.8l4.6-3.8c22.6-18.8,37.6-31.2,64.6-43l0.1-0.1c12.9-5.9,26.5-11.1,39.5-16
		c27.5-10.4,55.9-21.2,81-40.2c35.4-26,58.7-65.1,63.8-107.2v-0.1v-0.1c0.5-5.4,0.7-10.9,0.7-16.3c0-17.3-2.1-34.4-4.4-49.5
		c-2.7-17.2-7-34.5-11.2-51.2c-6.7-26.8-13.6-54.6-13.6-82c1.5-33.5,9.7-57.5,25.5-92.6l1.8-4.1L324,191.5l-7,1.6
		c-21.8,5-42.3,9.7-64.6,9.7c-26-0.8-49.2-5.1-77.6-14.5c-0.3-0.1-23.1-8.7-23.1-8.7L149.6,180.5L149.6,180.5z"/>
	<path d="M362.6,471.7c-7.4-30.8-14.4-59.9-14.4-85c0-33.1,7-65.1,20.8-95l1.4-3.1l-55-65.9l-3.3,0.8c-50.7,12.7-103.9,8.1-158-13.6
		l-2-0.8l-2,0.8c-54.2,21.7-107.4,26.3-158,13.6l-3.3-0.8l-55,65.9l1.5,3.1c13.6,29.8,20.7,61.8,20.7,95c0,25.2-7,54.3-14.5,85.1
		c-12.3,50.9-25,103.5-6.4,143.5c26.2,55.8,76.3,74.6,124.8,92.8c31.1,11.7,63.3,23.7,88.6,45.6l3.6,3.1l3.6-3.1
		c25.3-21.8,57.5-33.9,88.6-45.6c48.5-18.2,98.7-37,124.8-92.8C387.6,575.2,374.9,522.6,362.6,471.7L362.6,471.7z M-20.3,600.3
		L-20.3,600.3l50.6-38v122.6c-18.4-7.8-35.7-16.8-50.6-29.1L-20.3,600.3L-20.3,600.3z M79.4,525.4L79.4,525.4l49.2-37v238.2
		c-15.7-9.1-32.4-16.2-49.2-22.7V525.4L79.4,525.4z M178.4,451L178.4,451l48.4-36.3v288.4c-16.5,6.3-32.9,13.1-48.4,21.7V451
		L178.4,451z M276.1,377.7L276.1,377.7l49.8-37.4v314.1c-14.7,12.5-31.6,21.6-49.8,29.4V377.7L276.1,377.7z M79.4,239.4L79.4,239.4
		c16.3-2,32.7-5.5,49.2-10.6v116.3l-49.2,37.3V239.4L79.4,239.4z M178.4,229.8L178.4,229.8c16.2,4.8,32.4,8.1,48.4,9.9v31.1
		l-48.4,36.6V229.8L178.4,229.8z M-7.3,234.7L-7.3,234.7c12.4,2.9,25,4.9,37.7,5.8v179.1l-50.6,38.3V250.3
		C-13.8,242.5-8.6,236.2-7.3,234.7L-7.3,234.7z M-53.1,495.8L-53.1,495.8l0.3,0.4l337.7-255.7l-0.7-0.9c9.1-1.1,18.2-2.7,27.2-4.8
		c3.7,4.4,42.6,51.1,46.4,55.6c-2.6,5.8-4.9,11.7-7,17.7l-405,304.3c-0.2-0.5-0.5-1-0.8-1.5c-6-12.9-8.3-27.7-8.3-43.4
		C-63.4,544.9-58.7,520.5-53.1,495.8L-53.1,495.8z"/>
</g>
</svg>
