<?xml version="1.0" encoding="utf-8"?>
<!-- Generator: Adobe Illustrator 19.1.0, SVG Export Plug-In . SVG Version: 6.00 Build 0)  -->
<svg version="1.1" id="Camada_1" xmlns="http://www.w3.org/2000/svg" xmlns:xlink="http://www.w3.org/1999/xlink" x="0px" y="0px"
	 viewBox="-60 154 490 485" style="enable-background:new -60 154 490 485;" xml:space="preserve">
<style type="text/css">
	.st0{fill:#FFFFFF;}
	.st1{fill:#CD2F32;}
</style>
<path class="st0" d="M185.1,634.7c-6.6-6.1-26.7-17-53.6-31.3c-10.5-5.6-19.5-10.4-23.7-13c-6.6-4.1-13.5-7.7-20.1-11.3
	c-6.4-3.4-12.9-7-19.3-10.8c-13.7-8.3-25.1-16.7-34.8-25.5c-21.2-19.3-37.6-43.3-48.7-71.5C-27,441.5-33,406.9-33,368.5v-30.7
	l1.8-71.3c0.4-22.4-11.3-78.2-20.8-103c22.6,11.9,71.6,29.3,92.6,29.3h6.1c14.9,0,30.6-3.7,45.7-7.3c8.6-2,16.6-3.9,24-5
	c8.3-1.2,16.2-3.1,24-4.9c13.9-3.2,28.2-6.6,45.3-6.6h1.5c15.8,0,33.8,4.2,49.6,8c6.2,1.5,12,2.8,17.5,3.9c4.6,0.9,10,2.1,15.6,3.4
	c17.7,4,37.8,8.5,53.2,8.5h8.4c19.1,0,68.7-18.2,90.5-29.9c-8.6,22.9-20.8,76.1-20.8,91.2l-0.3,18.5l1.8,75.3l0,18.3
	c0,34.9-6.7,74.7-17.5,103.7c-12,32.2-24.2,47.7-48.7,72.6c-15.2,15.3-53.2,37.2-73.6,47.4C262.4,590.3,197.7,623.9,185.1,634.7z"/>
<g>
	<path class="st1" d="M-13.9,377.7c0,47.3,13.2,87.7,30.7,117.5c9.6,16.4,20.7,26.9,34.4,39.3c5.6,5.1,38.1,27.4,44.7,29v-75.3
		c-3.7,1.9-9.1,5.4-14.6,5.4h-3.8c-20.3,0-35.7-21.4-42.8-35.6c-6.4-13-17.9-42.1-17.9-60.4h79.1v-30.7H-13.9V377.7L-13.9,377.7z"/>
	<path class="st1" d="M305.6,458.3h12.3c6.5,0,18.4,1.2,18.4,6.9v0.8c0,9.5-21.7,37.1-30.7,39.2L305.6,458.3L305.6,458.3z
		 M305.6,397.7h33.8c5.9,0,13.8,2.7,13.8,8.4c0,9.3-13,27.6-23,27.6h-24.6V397.7L305.6,397.7z M361.6,443
		c4.4-6.5,10.1-8.7,14.6-17.6c3.1-6.1,6.1-16.2,6.1-25.4v-0.8c0-17.7-10.7-32.3-27.6-32.3h-80.6v196.6c10.7-2.5,52-33.4,58.9-41.7
		c9.9-11.8,36.3-45.1,36.3-64.3C369.3,451.2,365.6,445.6,361.6,443L361.6,443z"/>
	<path class="st1" d="M185,625.8c-12.5-6.6-24.7-15.9-38.1-22.5c-13.3-6.6-25.9-13.7-39.2-20.7c-22.4-11.8-55.7-30.8-72.2-47.6
		c-21.6-21.8-35.8-41.2-46.7-73.9c-10-30.1-14.9-65.2-14.9-104.9h422.4c0,39.6-5.5,75.2-15.5,105.1c-8.9,26.8-26.7,57.3-46.2,73.6
		c-24.9,20.9-43.7,31.3-73,47.6c-12.7,7-26.2,14.6-38.9,21C209.2,610.3,197.4,619.2,185,625.8L185,625.8z M212.6,324.7h182.8v19.2
		H212.6V324.7L212.6,324.7z M-26.2,324.7h183.6v19.2H-26.2V324.7L-26.2,324.7z M327.9,200.3c25,0,64.5-15.3,82.2-23.8
		c-0.1,3.9-8.6,33.8-10.4,41c-3.1,12.3-5.7,31-5.7,45.8v6.1H212.6v-89.9c9.2,0,46,9,56.7,11.7C283.6,194.8,310.8,200.3,327.9,200.3
		L327.9,200.3z M-24.7,254.8c0-30.2-10.4-53.8-16.1-78.3c9.9,2.3,25.8,11,38.3,14.7c11.7,3.6,27.8,9.1,43.2,9.1h4.6
		c16.2,0,42.5-6.3,57.3-9.5c12.1-2.7,44.4-11.2,54.9-11.2v89.9h-182V254.8L-24.7,254.8z M-60,155.7c8.9,12.8,25.3,84.8,24.8,110.6
		l-1.8,71.4v30.7c0,80.2,25.5,138.7,67.8,177.2c10.8,9.8,22.6,18.2,35.4,26c13.1,7.9,26.5,14.2,39.3,22.1
		c13.5,8.3,72.1,37.1,77.9,45h3.1c3.9-5.8,67.1-39.7,78.3-45.3c21.3-10.6,59.2-32.5,74.7-48.2c23.4-23.6,36.9-39.8,49.6-74
		C399.5,443.6,407,404,407,366.2v-18.4l-1.8-75.3l0.3-18.4c0-18.2,17.9-90.6,24.6-98.3v-1.5h-1.5c-10.9,9.4-75,34.6-96.8,34.6h-8.4
		c-20,0-49.2-8.1-68.1-11.8c-19.9-4-45.5-12-67.9-12h-1.5c-27.3,0-47.1,8.2-69.9,11.5c-20.5,3-46.4,12.3-69.1,12.3h-6.1
		c-23.9,0-88.2-24.5-99.8-34.6H-60V155.7L-60,155.7z"/>
	<path class="st1" d="M158.9,397.7h39.2c13.6,0,22.3,11.3,22.3,25.3v3.1c0,18.8-13.4,27.6-32.3,27.6h-29.2L158.9,397.7L158.9,397.7z
		 M113.6,366.9c2.1,2.9,7.7,5.3,7.7,11.5v174.3c0,9.2-2.8,17.7-12.3,17.7l50,27.5l-0.1-111.2h24.6c18.7,0,26.9,29.1,26.9,49.2v15.4
		c0,8.4-4.2,22.1-6.5,29.6c-1.7,5.7-8.6,22.7-8.9,26.4l61.1-33.8l-0.4-0.8c-19.8-4.6-9.6-28.5-13.2-49.7
		c-1.8-10.3-2.5-16.4-6.7-24.8c-2.4-4.9-11.8-17.2-12.3-19.2c14.6-3.4,32.3-25.4,32.3-44.5V423c0-34.8-16-48.1-43.8-55.3
		C200.6,364.8,131.5,366.9,113.6,366.9L113.6,366.9z"/>
</g>
</svg>
