<?xml version="1.0" encoding="utf-8"?>
<!-- Generator: Adobe Illustrator 19.1.0, SVG Export Plug-In . SVG Version: 6.00 Build 0)  -->
<svg version="1.1" id="Layer_1" xmlns="http://www.w3.org/2000/svg" xmlns:xlink="http://www.w3.org/1999/xlink" x="0px" y="0px"
	 viewBox="-40 207.8 530.4 379.2" style="enable-background:new -40 207.8 530.4 379.2;" xml:space="preserve">
<style type="text/css">
	.st0{fill:#FFF22D;}
</style>
<g>
	<polygon class="st0" points="251.1,336.6 251.1,477.6 386,329.8 320.3,261.3 	"/>
	<path d="M317.5,258.7l-70.3,76.4v152.3l144-157.6l-70.9-74.1L317.5,258.7L317.5,258.7z M320.4,266.8L320.4,266.8
		c5,5.2,56,58.5,60.4,63c-4.4,4.8-114.1,125-125.9,137.8c0-16.8,0-126.9,0-129.6C256.7,336,315.4,272.3,320.4,266.8L320.4,266.8z"/>
	<polygon class="st0" points="280.3,506.9 416.9,506.9 485.2,431.6 419.5,363.1 	"/>
	<path d="M416.8,360.4L271.3,510.8h147.4l71.8-79.2l-70.9-74L416.8,360.4L416.8,360.4z M419.5,368.6L419.5,368.6
		c4.8,5,56.1,58.6,60.5,63.1c-4.4,4.8-62.6,69.1-64.7,71.4c-3.1,0-110.5,0-126,0C300.5,491.6,414.5,373.8,419.5,368.6L419.5,368.6z"
		/>
	<polygon class="st0" points="199.5,336.6 199.5,477.6 64.4,329.8 129.9,261.3 	"/>
	<path d="M127.2,258.6l-68,71.1l144.1,157.6V335.1L130,255.7L127.2,258.6L127.2,258.6z M129.9,266.8L129.9,266.8
		c5,5.4,63.9,69.2,65.8,71.2c0,2.7,0,112.8,0,129.7c-11.8-12.9-121.6-133-126-137.9C74,325.3,125,272,129.9,266.8L129.9,266.8z"/>
	<polygon class="st0" points="170.1,506.9 33.3,506.9 -34.8,431.6 30.9,363.1 	"/>
	<path d="M28.1,360.4L-40,431.6l71.6,79.2h147.5L30.9,357.6L28.1,360.4L28.1,360.4z M30.9,368.6L30.9,368.6
		c5.1,5.2,119,123,130.2,134.5c-15.5,0-123,0-126.1,0c-2.1-2.3-60.2-66.6-64.6-71.4C-25.2,427.2,26.1,373.6,30.9,368.6L30.9,368.6z"
		/>
	<path d="M285.6,536H282l-18.4,49.7h6.9l5.3-15h9.8h9.8l5.3,15h7.3L289.5,536H285.6L285.6,536z M285.6,565L285.6,565h-7.8l7.8-21.7
		l0.1-0.1l7.6,21.9H285.6L285.6,565z"/>
	<path d="M422.8,577.2c-2.6,2.6-5.9,3.9-9.9,3.9c-4.8,0-8.6-1.9-11.5-5.6c-2.9-3.6-4.3-8.5-4.3-14.7c0-6.3,1.3-11.4,4.2-15
		c2.7-3.3,6.6-5.2,11.7-5.2c3.9,0,6.9,1,9.2,2.7c2.4,1.6,3.9,4.2,4.6,7.5h6.6c-0.6-5-2.7-8.9-6.3-11.8c-3.6-2.9-8.2-4.3-13.8-4.3
		c-7.1,0-12.7,2.3-16.8,6.8c-4.2,4.5-6.3,10.7-6.3,18.6c0,8.4,2,15,6,19.9c4,4.8,9.5,7.1,16.4,7.1c6.2,0,11.1-1.7,15-5.3
		c3.9-3.6,5.9-8.5,6.2-14.5H427C426.9,571.3,425.6,574.6,422.8,577.2L422.8,577.2z"/>
	<polygon points="440.3,578.1 440.3,585.7 447.2,585.7 447.2,578.1 	"/>
	<polygon points="338.9,562.7 365.5,562.7 365.5,556.9 338.9,556.9 338.9,542.2 367.7,542.2 367.7,536 332.1,536 332.1,585.7 
		368.3,585.7 368.3,579.5 338.9,579.5 	"/>
	<polygon points="376,585.7 383,585.7 383,578.1 376,578.1 	"/>
	<polygon points="194.7,519.8 188,519.8 181.1,531.6 185.1,531.6 	"/>
	<path d="M80.7,582.4c-0.4-0.9-0.6-2.2-0.7-3.9l-0.6-8.2c-0.3-3-0.7-5.3-1.6-6.5c-0.7-1.3-2.2-2.3-4.2-2.9c2.3-1,4-2.4,5.2-4.5
		c1.2-1.9,1.7-4.2,1.7-6.9c0-2.7-0.6-5.2-1.6-7.1c-1.2-2-2.7-3.6-4.9-4.8c-1.2-0.7-2.4-1.2-3.9-1.4c-1.4-0.1-3.7-0.3-6.9-0.3h-1.2
		H44v49.7h6.6v-21.3h10.9c0.1,0,0.3,0,0.6,0c4.5,0,7.3,0.4,8.5,1.4c1.2,1,1.9,3.2,2,6.5l0.4,6.5c0,0,0,0.1,0,0.3
		c0.3,3.3,0.7,5.6,1.3,6.6h7.9v-1.4C81.6,584,81,583.3,80.7,582.4L80.7,582.4z M71.1,556.5L71.1,556.5c-1.7,1.4-4.8,2.2-8.9,2.2
		H50.6v-16.8h11.5c4.3,0,7.3,0.7,9.1,1.9c1.6,1,2.4,3.2,2.4,6C73.6,552.9,72.8,555.2,71.1,556.5L71.1,556.5z"/>
	<polygon points="88,585.7 94.8,585.7 94.8,536 88,536 	"/>
	<path d="M238.1,573.9c-0.3,0.7-0.4,1.3-0.6,1.9c-0.3,0.7-0.4,1.4-0.6,2.3c-0.1-0.4-0.3-1-0.4-1.6c-0.1-0.6-0.4-1.4-0.7-2.6
		L223.4,536h-9.6v49.7h6.2v-42.3c0.1,0.7,0.3,1.4,0.4,2.2c0.3,0.7,0.4,1.4,0.7,2l12.5,38.2h6.3l12.8-38.2c0.3-0.7,0.4-1.4,0.7-2.2
		c0.1-0.7,0.3-1.4,0.4-2v42.3h6.6V536h-9.6L238.1,573.9L238.1,573.9z"/>
	<path d="M134.3,577.2c-2.6,2.6-5.9,3.9-10.1,3.9c-4.8,0-8.6-1.9-11.5-5.6c-2.9-3.6-4.3-8.5-4.3-14.7c0-6.3,1.4-11.4,4.2-15
		c2.7-3.3,6.8-5.2,11.8-5.2c3.7,0,6.8,1,9.2,2.7c2.3,1.6,3.9,4.2,4.5,7.5h6.6c-0.6-5-2.6-8.9-6.2-11.8c-3.6-2.9-8.2-4.3-13.8-4.3
		c-7.2,0-12.8,2.3-17,6.8c-4.2,4.5-6.2,10.7-6.2,18.6c0,8.4,2,15,5.9,19.9c4,4.8,9.5,7.1,16.6,7.1c6,0,11.1-1.7,14.8-5.3
		c3.9-3.6,6-8.5,6.3-14.5h-6.6C138.3,571.3,136.9,574.6,134.3,577.2L134.3,577.2z"/>
	<path d="M198.6,566.8c0,4.6-1.2,8.1-3.2,10.2c-2.2,2.3-5.3,3.5-9.6,3.5c-4.3,0-7.5-1.2-9.6-3.3c-2-2.3-3-5.8-3-10.4V536h-6.8v30.7
		c0,6.8,1.6,12,4.6,15.3c3.2,3.5,7.8,5,14.1,5c6.6,0,11.7-1.6,15.1-5c3.5-3.5,5.2-8.5,5.2-15.3V536h-6.8L198.6,566.8L198.6,566.8z"
		/>
	<polygon points="151.1,585.7 157.9,585.7 157.9,536 151.1,536 	"/>
	<path d="M27.3,577.2c-2.6,2.6-5.9,3.9-10.1,3.9c-4.8,0-8.6-1.9-11.5-5.6c-2.9-3.6-4.3-8.5-4.3-14.7c0-6.3,1.4-11.4,4.2-15
		c2.7-3.3,6.8-5.2,11.8-5.2c3.7,0,6.8,1,9.2,2.7c2.3,1.6,3.9,4.2,4.5,7.5h6.6c-0.6-5-2.6-8.9-6.2-11.8c-3.6-2.9-8.2-4.3-13.8-4.3
		c-7.2,0-12.8,2.3-17,6.8c-4.2,4.5-6.2,10.7-6.2,18.6c0,8.4,2,15,5.9,19.9c4,4.8,9.5,7.1,16.6,7.1c6,0,11.1-1.7,14.8-5.3
		c3.9-3.6,5.9-8.5,6.2-14.5h-6.5C31.3,571.3,29.9,574.6,27.3,577.2L27.3,577.2z"/>
	<polygon points="203.2,264.4 193,299.1 224.8,278.6 256.2,299.1 244.9,264.4 273.1,242.6 238.2,242.6 224.8,207.8 211.3,242.6 
		175.9,242.6 	"/>
</g>
</svg>
