<?xml version="1.0" encoding="utf-8"?>
<!-- Generator: Adobe Illustrator 19.1.0, SVG Export Plug-In . SVG Version: 6.00 Build 0)  -->
<svg version="1.1" id="Layer_1" xmlns="http://www.w3.org/2000/svg" xmlns:xlink="http://www.w3.org/1999/xlink" x="0px" y="0px"
	 viewBox="0 0 566 549.3" style="enable-background:new 0 0 566 549.3;" xml:space="preserve">
<path style="fill:#164397;" d="M565.9,389.9c-9.1-19.2-22.6-29.8-40.9-29.8c-1.8,0-3.6,0.1-5.4,0.3c10.9-6.9,15.5-15.8,15.5-25.9
	c0-3.4-0.5-6.8-1.4-10.4c-0.1-0.3-0.3-0.5-0.5-0.5c-0.3-0.1-0.5,0-0.7,0.2c-21.9,20.7-43.9,41.4-65.8,62.1c-2.2,2.5-3.6,4.7-3.6,6.9
	c0,1.4,0.7,2.6,1.9,3.5c0,0,0,0,0,0c0,0,0.1,0,0.1,0.1c0.1,0.1,0.2,0.1,0.3,0.2c0.1,0.1,0.2,0.1,0.3,0.2c6.5,4.2,13,8.4,19.5,12.6
	c-3.8,0.5-8.1,0.9-12.8,1.2c-9.5,0.6-19,1.7-28.4,2.5c-3.4,0.3-5.6,0.9-7.5,2.1c-2.3,1.5-3.6,3.5-3.6,5.6c0,1.4,0.6,2.7,1.7,3.8
	c0,0,0,0,0.1,0.1c0,0,0,0,0.1,0c0.4,0.4,0.8,0.7,1.3,1c9,6.9,18.3,13.8,27.4,20.6c-7.6,5-19.8,9.8-36.9,13.8
	c-12.1,2.8-26.5,5.3-43.3,7.3c94.7-95.4,92.1-178.4,98.5-357.3c-64.4-20.6-105.8-52-120.3-110c-25.1,0-131.4,0-156.5,0
	c-14.4,58.1-55.9,89.4-120.3,110c6.5,178.9,3.9,261.9,98.5,357.3c-16.8-2-31.3-4.4-43.3-7.3c-17-4-29.3-8.8-36.9-13.8
	c9.1-6.9,18.4-13.7,27.4-20.6c0.5-0.3,0.9-0.6,1.3-1c0,0,0,0,0.1,0c0,0,0,0,0.1-0.1c1.1-1.1,1.6-2.4,1.7-3.8c0-2.1-1.3-4.1-3.6-5.6
	c-1.9-1.2-4.1-1.8-7.5-2.1c-9.5-0.8-18.9-1.9-28.4-2.5c-4.7-0.3-9-0.7-12.8-1.2c6.5-4.2,12.9-8.4,19.4-12.6c0.1-0.1,0.2-0.1,0.3-0.2
	c0.1-0.1,0.2-0.1,0.3-0.2c0,0,0,0,0.1,0c0,0,0,0,0,0c1.2-0.9,1.9-2.2,1.9-3.5c0-2.2-1.4-4.4-3.6-6.8c-22-20.8-43.9-41.5-65.9-62.2
	c-0.2-0.2-0.5-0.3-0.7-0.2c-0.3,0.1-0.5,0.3-0.5,0.5c-0.9,3.6-1.4,7.1-1.4,10.4c0,10.1,4.5,19,15.5,25.9c-1.8-0.2-3.7-0.3-5.4-0.3
	c-18.3,0-31.8,10.6-40.9,29.8c-0.1,0.3-0.1,0.6,0.1,0.8c0.2,0.2,0.5,0.3,0.8,0.2c8.8-3.6,15.8-5.4,21.1-5.4
	c8.5,0.1,12.5,4.3,13.2,13.7c0,0.7,0.1,1.5,0.1,2.3c0,4.2-0.5,10-1.7,15.2c-5,3.5-10,6.9-14.9,10.5c-1.6,1-2.7,2.3-2.7,4
	c0.1,2.9,3.2,5.7,10.6,8.5c10.1,3.8,23.2,5.3,37,5.3c0.9,0,1.8,0,2.8,0c0,0,0,0,0,0.1c-1.2,3.5-1.7,7-1.7,10.4
	c0.1,22.9,25.9,40.4,65.9,52.4c32.4,9.7,74.4,15.7,119.9,17.7c10.2,7.8,21,15.7,32.5,23.9c11.5-8.2,22.3-16.1,32.5-23.9
	c45.6-1.9,87.5-8,119.9-17.7c40-12,65.8-29.5,65.9-52.4c0-3.4-0.6-6.8-1.7-10.4c0,0,0,0,0-0.1c0.9,0,1.9,0,2.8,0
	c13.9,0,26.9-1.5,37-5.3c7.4-2.8,10.5-5.5,10.6-8.5c0-1.7-1.2-3-2.7-4c-5-3.6-10-7-15-10.5c-1.1-5.1-1.7-10.9-1.7-15.2
	c0-0.8,0-1.6,0.1-2.3c0.7-9.4,4.7-13.6,13.2-13.7c5.3,0,12.3,1.8,21.1,5.4c0.3,0.1,0.6,0,0.8-0.2C566,390.5,566.1,390.2,565.9,389.9
	z"/>
<path style="fill:#FFDD00;" d="M110.1,131c56.1-17.9,98.1-56.8,110.7-107.3c21.9,0,102.5,0,124.4,0c12.6,50.6,54.6,89.4,110.7,107.3
	c-6.3,173.4-2.8,243.4-117.2,339.9c8.1-0.4,15.9-0.9,23.3-1.6c103.9-95.7,100.8-172.7,107.2-349.2
	c-60.4-19.3-101.7-52.9-115.3-107.3H212.2c-13.5,54.4-54.9,88-115.3,107.3c6.4,176.5,3.4,253.5,107.2,349.2
	c7.4,0.6,15.1,1.1,23.3,1.6C112.9,374.4,116.4,304.4,110.1,131z"/>
<path style="fill:#FFDD00;" d="M274.8,526.1c2.7,2,5.5,3.9,8.2,5.9c2.8-2,5.5-3.9,8.2-5.9c-2.7,0-5.5,0-8.2,0
	C280.2,526.2,277.5,526.1,274.8,526.1z"/>
<path style="fill:#FFFFFF;" d="M455.9,131c-56.1-17.9-98.1-56.8-110.7-107.3c-21.9,0-102.5,0-124.4,0
	c-12.6,50.6-54.6,89.4-110.7,107.3c6.3,173.4,2.8,243.4,117.2,339.9c16.9,0.9,35.4,1.4,55.6,1.4c20.2,0,38.7-0.5,55.6-1.4
	C453.1,374.4,449.6,304.4,455.9,131z"/>
<path style="fill:#FFDD00;" d="M36.9,399.1c-0.5-9.8-5.5-15.1-14.5-15.1c-0.1,0-0.2,0-0.2,0c-5.2,0-11.8,1.6-19.8,4.8
	c9-17.8,21.6-27.2,38.7-27.2c2.9,0,5.9,0.3,9,0.8c0.4,0.1,0.7-0.1,0.8-0.5c0.1-0.3,0-0.7-0.4-0.9c-13-7-18-15.9-18-26.5
	c0-2.8,0.4-5.7,1-8.8c21.6,20.4,43.2,40.8,64.9,61.3c2,2.3,3.2,4.4,3.1,5.8c0,0.8-0.3,1.5-1.2,2.2c-4.1,0.8-8.1,1.6-11.9,1.6
	c-2.1,0-4.1-0.2-6-0.9c-3.7-1-7.4-1.6-10.8-1.6c-2.5,0-4.9,0.3-7.1,1.2c-1.6,0.6-2.3,1.7-3.3,2.4c0,0,0,0-0.1,0.1
	c-8.5,6-17,11.8-25.6,17.7c0.9-4.8,1.4-10,1.4-13.9C36.9,400.7,36.9,399.9,36.9,399.1z"/>
<path style="fill:#FFDD00;" d="M543.9,384c-9.1-0.1-14.2,5.3-14.7,15.1c0,0.7-0.1,1.5-0.1,2.4c0,3.9,0.5,9.1,1.4,13.9
	c-8.6-5.9-17.1-11.7-25.6-17.7c0,0,0,0-0.1-0.1c-1-0.7-1.8-1.8-3.3-2.4c-2.1-0.8-4.5-1.2-7.1-1.2c-3.4,0-7.1,0.6-10.8,1.6
	c-1.9,0.6-4,0.9-6,0.9c-3.8,0-7.8-0.8-11.9-1.6c-0.8-0.7-1.1-1.4-1.2-2.2c0-1.4,1.1-3.5,3.2-5.8c21.6-20.4,43.2-40.8,64.8-61.2
	c0.7,3,1,6,1,8.8c0,10.6-5,19.6-18,26.5c-0.3,0.2-0.5,0.6-0.4,0.9c0.1,0.3,0.5,0.6,0.8,0.5c3.1-0.5,6.1-0.8,9-0.8
	c17.1,0,29.7,9.4,38.7,27.2C555.7,385.6,549.1,384,543.9,384z"/>
<path style="fill:#FFDD00;" d="M27.2,438.3c-7.3-2.7-9.7-5.5-9.6-7.1c0-0.9,0.7-1.9,2-2.7l-0.4-0.6l0.4,0.6
	c14.2-10.2,28.7-19.8,43-29.9c-0.3,0.9-0.5,1.8-0.5,2.6c0,3.8,3.5,6.2,9,7.8c5.5,1.6,13.2,2.5,22.6,3.1c9.5,0.6,18.9,1.7,28.4,2.5
	c3.3,0.3,5.2,0.9,6.8,1.9c2,1.3,2.9,2.9,2.9,4.3c0,1.2-0.6,2.5-2.1,3.4c-1.5,1-3.7,1.7-6.9,1.7c-0.8,0-1.7,0-2.6-0.1
	c-5.2-0.9-12.2-2.3-17.8-2.3c-3,0-5.5,0.4-7.4,1.5c0,0,0,0,0,0c0,0,0,0,0,0c-8.6,5.8-17.9,12.6-26.6,18.5c-1.6,0-3.2,0.1-4.8,0.1
	C49.9,443.5,37,442,27.2,438.3z"/>
<path style="fill:#FFDD00;" d="M538.8,438.3c-9.8,3.7-22.7,5.2-36.5,5.2c-1.6,0-3.2,0-4.8-0.1c-8.7-5.9-17.9-12.7-26.5-18.5
	c0,0,0,0,0,0c0,0,0,0,0,0c0,0,0,0,0,0c0,0,0,0,0,0c-1.9-1.2-4.4-1.5-7.4-1.5c-5.6,0-12.5,1.4-17.8,2.3c-0.9,0.1-1.7,0.1-2.6,0.1
	c-3.1,0-5.4-0.7-6.9-1.7c-1.5-1-2.1-2.2-2.1-3.4c0-1.4,0.9-3.1,2.9-4.3c1.7-1.1,3.5-1.6,6.8-1.9c9.5-0.8,18.9-1.9,28.4-2.5
	c9.3-0.6,17.1-1.5,22.6-3.1c5.4-1.6,8.9-3.9,9-7.8c0-0.8-0.2-1.7-0.5-2.6c14.3,10.2,28.8,19.7,43,29.9l0.4-0.6l-0.4,0.6
	c1.4,0.8,2,1.8,2,2.7C548.5,432.8,546.1,435.6,538.8,438.3z"/>
<path style="fill:#FFDD00;" d="M435,506.4c-39.8,11.9-94.2,18.3-152,18.3c-57.9,0-112.2-6.4-152-18.3c-39.9-11.9-64.9-29.4-64.8-51
	c0-3.1,0.5-6.3,1.6-9.7c8.2-5.5,17-12,25.3-17.6c-0.8,1.7-1.2,3.4-1.2,5.1c0.2,11,16,20.8,47.5,28.3c31.6,7.4,79.3,12.3,143.7,12.3
	c64.4,0,112.1-4.9,143.7-12.3c31.5-7.5,47.3-17.3,47.5-28.3c0-1.7-0.4-3.4-1.2-5.1c8.3,5.7,17.1,12.1,25.3,17.6
	c1.1,3.3,1.6,6.5,1.6,9.7C499.9,477,474.9,494.5,435,506.4z"/>
<path style="fill:#164397;" d="M385.2,474.8c-0.1,0-0.2,1.4-0.3,4.2c-0.1,1.4-0.2,3-0.3,4.5c-0.1,1.6-0.2,3.2-0.4,5
	c-0.3,4.1-0.6,6.7-0.7,7.9c-0.1,1.1-0.3,2.1-0.5,2.8c-0.2,0.8-0.4,1.4-0.7,2c-0.2,0.5-0.5,0.9-0.8,1.2c-0.3,0.4-0.7,0.7-1.1,0.9
	c-0.5,0.3-1.1,0.5-1.7,0.6c-0.7,0.1-1.4,0-2-0.2c-0.7-0.2-1.2-0.6-1.5-1.2c-0.3-0.6-0.6-1.3-0.7-2.2c-0.1-0.9-0.2-2-0.1-3.3
	c0-0.7,0.2-2,0.3-3.8c0.1-1.8,0.2-3.8,0.4-5.9c0.1-1.9,0.3-3.7,0.5-5.6c0.1-1.9,0.3-3.7,0.4-5.6c-1.7,0.2-3,0.4-4,0.5
	c-0.8,0.1-2.2,0.3-4.1,0.5c-0.1,1.7-0.2,3.5-0.3,5.2c-0.1,1.7-0.2,3.5-0.3,5.2c-0.1,2.1-0.2,3.8-0.3,4.9c-0.1,1.4-0.2,2.8-0.3,4.2
	c-0.2,1.6-0.3,2.8-0.3,3.7c0,0.8-0.1,1.5-0.1,1.9c0,1.3,0,2.4,0.2,3.5c0.2,0.9,0.4,1.7,0.7,2.4c0.3,0.7,0.8,1.3,1.4,1.8
	c0.7,0.6,1.6,1.1,2.5,1.5c0.9,0.4,2,0.7,3.2,0.8c1.3,0.1,2.7,0.1,4-0.1c1.6-0.2,3.1-0.6,4.6-1.2c1.5-0.6,2.9-1.4,4.1-2.5
	c1.2-1.1,2.1-2.2,2.8-3.4c0.7-1.2,1.1-2.6,1.4-4.1c0.3-1.5,0.6-4.1,0.7-7.7c0-0.2,0-0.5,0.1-0.9c0.2-3.1,0.5-6.2,0.8-9.3
	c0.2-3.1,0.5-6.2,0.7-9.4c-1.3,0.2-2.5,0.4-3.8,0.6C388.6,474.3,387.1,474.5,385.2,474.8z"/>
<path style="fill:#164397;" d="M352.2,506.6c0.1-1.2,0.1-2.4,0.2-3.7c0.1-2.5,0.3-5,0.4-7.5c0.1-2.5,0.3-5,0.4-7.5
	c0.1-1.6,0.2-3.2,0.3-4.8c0.1-1.6,0.2-3.2,0.3-4.8c-1.7,0.2-2.9,0.3-3.8,0.4c-1.3,0.1-2.8,0.3-4.5,0.4c0,1.5,0,3.2-0.1,5.2
	c0,1.9-0.1,4.1-0.3,6.4c-0.1,2.4-0.2,4.7-0.4,7.1c-0.1,2.4-0.2,4.8-0.4,7.2c-0.1,1.3-0.3,2.8-0.4,4.5c-0.1,1.7-0.2,3.6-0.4,5.7
	c3-0.3,6.4-0.7,10.4-1.1c2.9-0.3,6.1-0.6,9.3-0.9c0.1-2.7,0.3-5.3,0.5-8c-1.6,0.3-4.1,0.6-7.3,0.9
	C355.7,506.3,354.4,506.4,352.2,506.6z"/>
<path style="fill:#164397;" d="M330.4,489.2c1.4-1,2.8-1.6,4.5-1.7c0.8-0.1,1.6,0,2.5,0.1c0.9,0.1,2.1,0.4,3.5,0.7
	c-0.1-1-0.1-2-0.1-3c-0.1-1.2-0.1-2.2-0.1-3.2c0-0.7,0-1.5,0-2.2c-2.7-0.5-5-0.6-6.8-0.5c-2,0.1-4,0.7-5.9,1.5
	c-1.9,0.9-3.6,2.2-5.2,4c-1.5,1.8-2.8,3.9-3.6,6.5c-0.9,2.6-1.2,5.4-1.3,8.6c0,2.7,0.2,5.1,0.8,7.3c0.6,2.1,1.6,4,3,5.6
	c1.4,1.6,3,2.7,4.7,3.2c1.8,0.6,3.6,0.8,5.6,0.7c2.1-0.2,4.4-0.6,7-1.3c0.1-1,0.2-2.5,0.5-4.3c0.2-1.9,0.5-3.3,0.6-4.4
	c-1.5,0.7-2.8,1.2-3.9,1.4c-1,0.3-2,0.4-2.9,0.5c-1.6,0.1-2.9-0.2-4-0.9c-1.1-0.7-2-1.7-2.6-3.1c-0.7-1.4-0.9-3.1-0.9-5.1
	c0-2.2,0.4-4.2,1.2-6.1C328,491.7,329,490.3,330.4,489.2z"/>
<path style="fill:#164397;" d="M418.3,471.8c-0.4-0.5-0.9-0.9-1.6-1.2c-0.6-0.3-1.4-0.4-2.3-0.4c-0.7,0-1.8,0.1-3.4,0.4
	c-1.3,0.2-2.9,0.5-4.7,0.9c-1.8,0.4-3.4,0.7-4.8,0.9c-1,0.1-2.3,0.3-4,0.5c0,1.4-0.1,2.5-0.1,3.2c0,1.1,0,2.5-0.1,4.4
	c-0.1,1.8-0.2,4.1-0.4,6.7c-0.2,2.6-0.3,5-0.5,7c-0.1,2.1-0.2,3.8-0.4,5.3c-0.2,2.2-0.4,5.2-0.7,9.1c1.2-0.2,2.4-0.4,3.6-0.6
	c1.6-0.3,3.3-0.5,4.9-0.8c1.9-0.3,3.7-0.7,5.4-1.1c1.7-0.4,2.9-0.7,3.6-1c0.8-0.3,1.6-0.8,2.3-1.5c0.7-0.6,1.4-1.3,1.9-2.2
	c0.6-0.9,1-2,1.4-3.2c0.4-1.2,0.5-2.5,0.6-3.8c0-1,0.1-1.8-0.1-2.7c-0.2-0.8-0.4-1.5-0.7-2.2c-0.3-0.6-0.7-1.1-1.1-1.5
	c-0.5-0.4-0.8-0.6-1.2-0.7c-0.4-0.1-0.9-0.2-1.6-0.2c0.7-0.4,1.2-0.8,1.6-1.1c0.4-0.3,0.9-0.8,1.3-1.3c0.4-0.5,0.8-1.2,1.2-1.9
	c0.4-0.8,0.7-1.6,0.9-2.5c0.2-0.9,0.3-1.9,0.4-2.8c0.1-1.3,0-2.4-0.3-3.5C419.2,473.2,418.8,472.4,418.3,471.8z M411.2,496.6
	c-0.2,0.6-0.4,1-0.7,1.4c-0.3,0.4-0.7,0.7-1.3,1c-0.5,0.2-1.1,0.5-2.1,0.6c-1.2,0.2-2.4,0.4-3.5,0.6c0.2-2.5,0.3-5,0.5-7.5
	c1.3-0.2,2.6-0.5,3.9-0.7c0.8-0.2,1.5-0.2,1.9-0.2c0.4,0.1,0.7,0.2,1,0.4c0.3,0.2,0.5,0.6,0.6,1c0.1,0.4,0.2,0.9,0.1,1.5
	C411.5,495.4,411.4,496,411.2,496.6z M411.7,482c-0.1,0.5-0.3,0.9-0.6,1.3c-0.3,0.4-0.6,0.7-0.9,0.9c-0.4,0.2-0.7,0.4-1.1,0.5
	c-0.4,0.1-1,0.3-1.9,0.4c-0.9,0.2-1.8,0.3-2.7,0.5c0.2-2.3,0.3-4.7,0.5-7c1.1-0.2,2.2-0.4,3.4-0.6c1-0.2,1.7-0.2,2.2,0
	c0.5,0.2,0.9,0.5,1,0.9c0.2,0.5,0.3,1,0.2,1.7C411.9,481.1,411.9,481.5,411.7,482z"/>
<path style="fill:#164397;" d="M295.1,509.8c0-1.2,0-2.4,0-3.6c0-2.4,0.2-4.9,0.2-7.4c0-2.4,0.2-4.9,0.3-7.4c0-1.6,0.1-3.1,0.2-4.7
	c0-1.6,0.1-3.1,0.3-4.7c-1.7,0.1-2.9,0.1-3.8,0.1c-1.3,0-2.8,0-4.5,0c0,1.5,0,3.2-0.1,5.1c0,1.9,0,4-0.1,6.3c0,2.3-0.1,4.7-0.2,7
	c-0.1,2.3-0.2,4.7-0.3,7c-0.1,1.3-0.2,2.8-0.3,4.4c-0.1,1.7-0.2,3.5-0.4,5.5c3-0.1,6.4-0.1,10.4-0.2c2.9,0,6,0,9.3-0.1
	c0.1-2.6,0.3-5.3,0.4-7.9c-1.6,0.2-4.1,0.3-7.4,0.4C298.6,509.8,297.2,509.8,295.1,509.8z"/>
<path style="fill:#164397;" d="M436,466.3c-4.2,0.8-7.8,1.5-10.8,2.1c0,0.8,0,1.5,0,2.3c0,0.8-0.1,2-0.2,3.7
	c-0.1,1.6-0.2,3.7-0.4,6.2c-0.2,2.5-0.4,4.7-0.6,6.7c-0.2,2-0.3,3.8-0.5,5.2c-0.2,1.5-0.3,3.2-0.5,5.1c-0.2,1.9-0.4,3.9-0.6,6.2
	c0.9-0.2,1.8-0.4,2.7-0.6c2.7-0.6,5.4-1.3,8.2-1.9c3.6-0.8,7-1.6,10.1-2.2c0.1-2.7,0.4-5.3,0.6-7.8c-1.3,0.4-2.3,0.7-2.9,0.8
	c-1.3,0.3-2.6,0.7-3.9,1c-2,0.5-3.4,0.8-4,1c-0.7,0.2-1.4,0.3-2.1,0.5c0.2-2.1,0.4-4.2,0.6-6.3c2.1-0.6,4.1-1.1,5.8-1.4
	c1.2-0.3,2.9-0.6,5-1c0.3-3,0.6-5.6,0.8-7.8c-3.1,0.8-5,1.2-5.7,1.4c-2,0.4-3.7,0.7-5.2,1c0.2-2,0.4-3.9,0.5-5.9
	c1.3-0.3,2.4-0.6,3-0.7c0.6-0.1,1.9-0.4,3.7-0.8c1.6-0.3,3.7-0.7,6.1-1c0-0.6,0.1-1.2,0.1-1.8c0.1-0.9,0.1-1.9,0.2-2.8
	c0.1-1.3,0.2-2,0.2-2.2c0-0.3,0-0.6,0.1-0.8C443.4,464.8,439.9,465.5,436,466.3z"/>
<path style="fill:#164397;" d="M249.1,501.8c-0.3-0.7-0.7-1.3-1.2-1.7c-0.5-0.5-0.9-0.8-1.3-1c-0.4-0.2-0.9-0.4-1.6-0.6
	c0.7-0.2,1.1-0.5,1.5-0.7c0.4-0.2,0.8-0.6,1.2-1c0.4-0.4,0.7-1,1-1.7c0.3-0.7,0.6-1.4,0.7-2.3c0.1-0.9,0.2-1.8,0.2-2.8
	c0-1.2-0.2-2.4-0.5-3.5c-0.3-1-0.7-1.8-1.2-2.5c-0.4-0.6-1-1.1-1.6-1.5c-0.6-0.4-1.4-0.7-2.3-0.9c-0.7-0.1-1.7-0.3-3.3-0.3
	c-1.3,0-2.9-0.1-4.7-0.1c-1.8-0.1-3.4-0.1-4.7-0.2c-1-0.1-2.3-0.2-3.9-0.4c0,1.3,0,2.4,0.1,3.1c0,1,0,2.4,0,4.2c0,1.8,0,3.9,0,6.4
	c0,2.5,0,4.7,0,6.7c0,2,0.1,3.7,0,5.1c-0.1,2.1-0.1,5-0.4,8.7c1.2,0.1,2.3,0.2,3.6,0.3c1.6,0.1,3.2,0.3,4.9,0.4
	c1.9,0.2,3.7,0.3,5.4,0.3c1.7,0.1,2.9,0.1,3.5,0c0.8-0.1,1.6-0.4,2.3-0.9c0.7-0.5,1.3-1,1.8-1.7c0.5-0.8,1-1.7,1.3-2.9
	c0.3-1.1,0.4-2.3,0.4-3.6c0-0.9-0.1-1.8-0.3-2.7C249.8,503.2,249.4,502.5,249.1,501.8z M235,487.8c1.1,0.1,2.3,0.2,3.4,0.2
	c1,0.1,1.7,0.2,2.2,0.5c0.5,0.3,0.9,0.6,1.1,1.1c0.2,0.5,0.3,1.1,0.3,1.7c0,0.4,0,0.9-0.1,1.3c-0.1,0.4-0.3,0.8-0.5,1.2
	c-0.3,0.3-0.6,0.6-0.9,0.7c-0.3,0.1-0.7,0.2-1,0.3c-0.4,0-1,0-1.9,0c-0.9-0.1-1.8-0.1-2.7-0.2C234.9,492.3,234.9,490,235,487.8z
	 M242.4,506.9c-0.2,0.5-0.4,0.9-0.6,1.2c-0.3,0.3-0.7,0.5-1.2,0.6c-0.5,0.1-1.1,0.1-2.1,0.1c-1.2-0.1-2.4-0.2-3.5-0.3
	c0-2.4,0-4.8,0-7.2c1.3,0.1,2.6,0.2,3.9,0.3c0.8,0.1,1.5,0.1,1.9,0.3c0.4,0.2,0.7,0.4,1,0.7c0.3,0.3,0.5,0.7,0.6,1.1
	c0.1,0.4,0.2,0.9,0.3,1.5C242.6,505.8,242.6,506.4,242.4,506.9z"/>
<path style="fill:#164397;" d="M173.3,483.1c0-2.9,0-5.8,0.2-8.6c-1.3-0.2-2.5-0.4-3.8-0.7c-1.1-0.2-2.6-0.5-4.5-0.8
	c-0.1,0-0.1,1.3-0.1,3.9c0,1.3,0,2.7,0.1,4.2c0,1.5,0,3,0,4.6c0,3.8,0,6.2,0,7.2c0,1-0.2,1.9-0.3,2.5c-0.1,0.7-0.4,1.2-0.6,1.6
	c-0.2,0.4-0.4,0.7-0.7,0.9c-0.3,0.3-0.7,0.4-1.1,0.5c-0.5,0.1-1,0.1-1.6,0c-0.7-0.1-1.4-0.4-2.1-0.8c-0.7-0.4-1.2-1-1.6-1.6
	c-0.4-0.7-0.7-1.4-0.9-2.3c-0.2-0.9-0.4-1.9-0.4-3.2c0-0.6,0-1.8-0.1-3.5c-0.1-1.7-0.1-3.5-0.1-5.5c0-1.7,0-3.4,0-5.2
	c0-1.7,0-3.4,0.1-5.1c-1.7-0.3-3-0.6-4-0.8c-0.8-0.2-2.2-0.5-4.2-0.9c-0.1,1.6-0.1,3.2,0,4.8c0,1.6,0,3.2,0.1,4.8
	c0.1,2,0.1,3.5,0.1,4.5c0,1.3,0,2.6,0,3.9c0,1.5,0,2.6,0,3.4c0,0.8,0.1,1.4,0.1,1.8c0.1,1.2,0.2,2.3,0.5,3.3
	c0.2,0.9,0.6,1.8,0.9,2.5c0.4,0.7,0.9,1.5,1.6,2.2c0.7,0.8,1.6,1.6,2.6,2.3c0.9,0.7,2,1.3,3.3,1.8c1.3,0.5,2.7,0.9,4,1.2
	c1.6,0.3,3.1,0.4,4.6,0.4c1.5-0.1,2.8-0.4,4-1c1.1-0.6,2-1.4,2.6-2.3c0.6-0.9,1-2.1,1.2-3.4c0.2-1.4,0.2-3.7,0.1-7.1
	c0-0.2,0-0.5,0-0.8C173.3,488.8,173.3,485.9,173.3,483.1z"/>
<path style="fill:#164397;" d="M199.6,478.1c-0.8-0.1-1.6-0.1-2.4-0.2c-1.5-0.2-3-0.4-4.5-0.6c-1.6-0.2-3.1-0.4-4.7-0.6
	c-4.7-0.6-8.9-1.2-12.4-1.8c0,1.7,0,3.3,0,4.8c0,0.9,0,1.8,0,2.7c2.6,0.4,5.3,0.7,8,0.9c0.1,4.8,0.2,9.4,0.2,13.8
	c0,4.4,0,8.5-0.2,12.5c2.3,0.3,3.7,0.5,4.3,0.6c0.6,0.1,1.9,0.3,3.9,0.6c0-2.1,0-4.7,0-8.1c0-1.7-0.1-3.3-0.2-5.1
	c-0.1-1.7,0-3.4,0-5.2c0-2.4,0-5.1,0-8c0.4,0.1,0.8,0.1,1.3,0.2c1.8,0.2,4,0.6,6.6,1.1c0-0.4,0-1.1,0-1.9c0-0.9,0-1.9,0-3.2
	C199.6,479.7,199.6,478.9,199.6,478.1z"/>
<path style="fill:#164397;" d="M202.3,478.3c0,0.7,0,1.5,0,2.2c0,0.8,0,2,0,3.5c0,1.6,0.1,3.6,0.1,5.9c0,2.4,0,4.5,0,6.4
	c0,1.9,0,3.6,0,5c0,1.4-0.1,3-0.1,4.8c0,1.8-0.1,3.7-0.3,5.8c0.9,0.1,1.8,0.2,2.6,0.3c2.7,0.3,5.4,0.6,8.2,0.9
	c3.6,0.4,6.9,0.8,9.9,1.2c0-2.6,0.1-5.2,0.2-7.6c-1.4,0-2.2-0.1-2.8-0.1c-1.3-0.1-2.6-0.2-3.8-0.3c-2-0.2-3.3-0.3-3.9-0.3
	c-0.7-0.1-1.4-0.2-2.1-0.2c0-2,0-4,0-6c2.1,0.1,4,0.3,5.7,0.4c1.2,0.1,2.8,0.3,4.9,0.6c0-2.9,0-5.5,0.1-7.6c-3-0.1-4.8-0.3-5.5-0.3
	c-2-0.2-3.7-0.4-5.1-0.6c0-1.9,0-3.8,0-5.7c1.3,0.1,2.3,0.1,2.9,0.2c0.7,0.1,1.9,0.2,3.7,0.4c1.6,0.2,3.6,0.4,6,0.7
	c0-0.6,0-1.2,0-1.8c0-0.9,0-1.8,0-2.7c0-1.3,0.1-2,0.1-2.2c0-0.3,0-0.6,0-0.8c-2.9-0.2-6.3-0.4-10.2-0.8
	C208.8,479.1,205.2,478.7,202.3,478.3z"/>
<path style="fill:#164397;" d="M279.4,486.3c-1.4-1.6-3-2.8-4.9-3.6c-1.9-0.8-3.7-1.2-5.7-1.2c-3.1,0-6,0.7-8.5,2.3
	c-2.4,1.5-4.3,3.7-5.5,6.4c-0.6,1.4-1.1,2.9-1.3,4.5c-0.2,1.6-0.4,3.4-0.4,5.2c0,2.5,0.4,4.8,1.1,7c0.6,2.1,1.7,4,3.1,5.8
	c1.4,1.8,3.1,3.1,5,3.9c1.9,0.8,3.9,1.3,6,1.3c2.1,0,4.1-0.3,6-1c1.9-0.8,3.6-1.9,5-3.6c1.4-1.7,2.5-3.7,3.2-6.1
	c0.7-2.4,1.1-5.1,1.1-8c0-2.8-0.4-5.2-1.1-7.3C281.9,489.8,280.8,488,279.4,486.3z M274.8,504.8c-0.6,1.7-1.4,3-2.6,4
	c-1.1,0.9-2.4,1.4-3.7,1.4c-1.3,0-2.5-0.5-3.7-1.3c-1.2-0.9-2-2.1-2.6-3.6c-0.6-1.5-0.9-3.2-0.9-5c0-2,0.2-3.8,0.8-5.5
	c0.6-1.7,1.5-3,2.6-4c1.1-0.9,2.4-1.4,3.8-1.4c1.4,0,2.6,0.5,3.6,1.3c1.1,0.9,1.9,2.1,2.5,3.6c0.6,1.6,0.9,3.3,0.9,5.1
	C275.6,501.3,275.4,503.1,274.8,504.8z"/>
<path style="fill:#164397;" d="M134.5,466.6c-3.3-0.8-6.8-1.8-10.6-2.8c0,0.9,0,1.8,0,2.7c0,0.9,0.1,2.2,0.2,4
	c0.1,1.8,0.2,4,0.3,6.6c0.1,2.6,0.2,5,0.3,7c0.1,2.1,0.2,3.8,0.2,5.3c0,2,0,4.7-0.2,8c2.6,0.6,4.1,0.9,4.4,1c1.4,0.3,2.7,0.7,4,1
	c0-0.4,0-0.7,0-1.1c-0.1-1.1-0.1-2.2-0.1-3.3c0-1.5-0.1-3-0.1-4.4c0-1.5-0.2-2.9-0.3-4.4c2,0.4,3.7,0.8,5.4,1.2
	c1,0.2,2.5,0.6,4.5,1.2c-0.1-1.8-0.2-4.2-0.3-7.3c-1.8-0.3-3.1-0.6-4-0.8c-1-0.3-2.1-0.5-3.1-0.8c-0.9-0.3-1.9-0.5-2.8-0.7
	c-0.1-1.9-0.1-3.8-0.2-5.7c2.1,0.5,3.4,0.8,3.8,0.9c1.2,0.3,2.4,0.6,3.7,0.9c0.4,0.1,0.9,0.2,1.3,0.3c0.5,0.1,0.9,0.2,1.3,0.3
	c0.5,0.1,1.1,0.3,1.6,0.4c-0.1-1.2-0.1-3.6,0-7.3C141,468.2,137.8,467.5,134.5,466.6z"/>
<path style="fill:#164397;" d="M269.6,145.6c-2.3-2.7-5.4-4.4-9-5.5c-3.4-1-7-1.5-10.9-1.5c-3.3,0-6.7,0.2-10.1,0.7
	c-3.5,0.5-7.5,1.3-11.9,2.4c-1.8,0.4-3.1,1.9-3.3,3.7c-0.3,2-0.5,3.5-0.6,4.6c-0.1,0.8-0.4,2.4-0.8,4.8c-0.3,1.6,0.3,3.3,1.6,4.3
	c1.3,1,3,1.3,4.5,0.6c6.6-2.8,12.3-4.1,17.3-4.1c1.2,0,2.2,0.1,3,0.4c0.6,0.2,0.8,0.3,1,0.6c0,0.1,0,0,0.1,0.4c0,0.1,0,0.1,0,0.2
	l0,0.1c0,0-0.1,0.2-0.3,0.4c-0.2,0.2-0.4,0.4-0.8,0.5c-0.5,0.2-1.3,0.5-2.5,0.9c-1.2,0.3-2.3,0.6-3.4,0.9c-4.7,1.1-8.4,2.1-11.5,3.3
	c-3,1.1-5.4,2.3-7.4,3.8c-1.7,1.3-3.2,2.7-4.4,4.2c-1.2,1.6-2.2,3.4-2.8,5.3c-0.6,1.8-0.9,3.8-0.9,5.7c0,3.3,0.8,6.5,2.3,9.5
	c1.6,3.4,4.4,6.1,7.9,7.6c3.3,1.5,7.2,2.1,11.6,2.1c1.3,0,2.6-0.1,4.1-0.2c1.6-0.1,3.5-0.4,5.8-0.8c1-0.2,1.8-0.7,2.4-1.3
	c0.8,0.7,1.9,1.1,3.1,1.1c2.6-0.1,4.8-0.1,6.7-0.1c2,0,4.1,0,6.5,0.1c1.2,0,2.4-0.4,3.2-1.3c0.9-0.8,1.4-2,1.4-3.2
	c0.1-8.3,0.4-16.4,0.9-24.2c0.5-7.9,0.8-12.7,0.8-15C273.1,152.5,272.1,148.6,269.6,145.6z M250.1,181.4c0,0.5-0.1,1.1-0.1,1.6
	c-0.6,0-1.2,0-1.8,0.2c-1.7,0.6-3.1,1-3.6,1c-1,0.2-1.8,0.2-2.6,0.2c-1.2,0-2.1-0.2-2.7-0.4c-0.3-0.1-0.5-0.2-0.8-0.6
	c-0.2-0.2-0.2-0.4-0.3-1c0-0.4,0.1-0.6,0.1-0.8l0-0.1c0-0.1,0.1-0.3,0.5-0.7c0.3-0.3,0.8-0.7,1.5-1.1c0.7-0.4,1.5-0.8,2.6-1.2
	c1-0.4,2.6-0.9,4.5-1.4c1.2-0.3,2.1-0.6,2.9-0.9L250.1,181.4z"/>
<path style="fill:#164397;" d="M372.1,145.6c-2.3-2.7-5.4-4.4-8.9-5.5c-3.4-1-7-1.5-10.9-1.5c-3.3,0-6.7,0.2-10.1,0.7
	c-3.5,0.5-7.5,1.3-11.9,2.4c-1.8,0.4-3.1,1.9-3.3,3.7c-0.3,2-0.5,3.5-0.6,4.6c-0.1,0.8-0.4,2.4-0.8,4.8c-0.3,1.6,0.3,3.3,1.6,4.3
	c1.3,1,3,1.3,4.5,0.6c6.6-2.8,12.3-4.1,17.3-4.1c1.2,0,2.2,0.1,3,0.4c0.6,0.2,0.8,0.3,1,0.6c0,0.1,0,0,0.1,0.4c0,0.1,0,0.1,0,0.2
	l0,0.1c0,0-0.1,0.2-0.3,0.4c-0.2,0.2-0.4,0.4-0.7,0.5c-0.5,0.2-1.3,0.5-2.5,0.9c-1.2,0.3-2.3,0.6-3.4,0.9c-4.7,1.1-8.4,2.1-11.5,3.3
	c-3,1.1-5.4,2.3-7.4,3.8c-1.7,1.3-3.2,2.7-4.4,4.2c-1.2,1.6-2.2,3.4-2.8,5.3c-0.4,1.2-0.7,2.5-0.8,3.8c-1.2-0.8-2.7-1-4.1-0.5
	c-2.1,0.8-4,1.4-5.7,1.7c-1.9,0.4-3.3,0.5-4.4,0.5c-2.2,0-4-0.5-5.6-1.3c-1.5-0.9-2.3-1.8-2.9-3.2c-0.7-1.7-1.1-3.9-1.1-6.7
	c0-1.9,0.2-3.7,0.7-5.6c0.4-1.6,1.1-2.9,2.1-4.1c1-1.2,1.9-1.9,3.2-2.4c1.4-0.6,2.8-0.8,4.4-0.8c2.8,0,6.4,0.7,10.8,2.3
	c1.4,0.5,3,0.3,4.2-0.6c1.2-0.9,1.9-2.4,1.8-3.9l-0.7-11.1c-0.1-1.9-1.5-3.6-3.3-4.1c-3.1-0.8-5.9-1.4-8.3-1.6
	c-2.3-0.3-4.6-0.4-6.9-0.4c-4.1,0-7.9,0.5-11.4,1.5c-3.8,1.1-7.2,3.3-10.1,6.2c-3,3-5.2,6.9-6.7,11.3c-1.4,4.4-2.1,8.9-2.1,13.6
	c0,3.6,0.4,7.1,1.3,10.4c0.9,3.5,2.2,6.6,4.2,9.2c1.8,2.5,4.1,4.7,6.6,6.3c2.5,1.6,5.2,2.7,8.1,3.3c2.7,0.6,5.4,0.9,8.3,0.9
	c4.8,0,9.6-0.6,14.4-1.8c1.8-0.4,3.1-1.9,3.4-3.8c0.3-2.5,0.7-4.7,1-6.3c0,0,0,0,0,0c0.3,0.8,0.6,1.5,1,2.2c1.6,3.4,4.4,6.1,7.9,7.6
	c3.3,1.5,7.2,2.1,11.6,2.1c1.3,0,2.6-0.1,4.1-0.2c1.6-0.1,3.5-0.4,5.8-0.8c1-0.2,1.8-0.7,2.4-1.3c0.8,0.7,1.9,1.1,3.1,1.1
	c2.6-0.1,4.8-0.1,6.7-0.1c2,0,4.1,0,6.5,0.1c1.2,0,2.4-0.4,3.2-1.3c0.9-0.8,1.4-2,1.4-3.2c0.1-8.3,0.4-16.4,0.9-24.2
	c0.5-7.9,0.8-12.7,0.8-15C375.6,152.5,374.6,148.6,372.1,145.6z M352.6,181.4c0,0.5-0.1,1.1-0.1,1.6c-0.6,0-1.2,0-1.8,0.2
	c-1.7,0.6-3.1,1-3.6,1c-1,0.2-1.8,0.2-2.6,0.2c-1.2,0-2.1-0.2-2.7-0.4c-0.3-0.1-0.5-0.2-0.8-0.6c-0.2-0.2-0.3-0.4-0.3-1
	c0-0.4,0.1-0.6,0.1-0.8l0-0.1c0-0.1,0.2-0.3,0.5-0.7c0.3-0.3,0.8-0.7,1.5-1.1c0.7-0.4,1.5-0.8,2.6-1.2c1-0.4,2.6-0.9,4.5-1.4
	c1.2-0.3,2.1-0.6,2.9-0.9L352.6,181.4z"/>
<path style="fill:#164397;" d="M216.6,159c0.2-11.7,0.5-22.4,1-32.1c0.1-1.2-0.4-2.4-1.3-3.3c-0.9-0.9-2.1-1.4-3.3-1.4
	c-4.3,0.1-7.4,0.1-9.3,0.1c-2.9,0-6.2,0-10-0.1c-2,0-3.8,1.3-4.4,3.2c-0.8,2.7-1.3,4.6-1.7,5.6c-0.3,1-0.6,1.8-0.9,2.5l-9.3,24.1
	l-0.1,0.2l-1.4,4.2c-1.3-5.3-2.8-10.7-4.5-16.1c-1.2-3.6-2.1-6.6-2.8-9.1c-0.7-2.5-1.2-4.3-1.4-5.3c-0.2-1-0.6-2.9-1.1-5.6
	c-0.4-2.2-2.3-3.7-4.5-3.7c-4.4,0.1-7.5,0.1-9.1,0.1c-2,0-5.3,0-9.8-0.1c-2.4,0-4.4,1.8-4.6,4.2l-1.1,17.5l-3.1,40l-1.2,11.4
	c-0.1,1.3,0.3,2.6,1.2,3.5c0.9,1,2.1,1.5,3.4,1.5c3-0.1,5.1-0.1,6-0.1l6.1,0.1c1.2,0,2.3-0.4,3.2-1.3c0.9-0.8,1.3-2,1.4-3.2
	c0-3,0.1-5.3,0.1-6.7l0,0l1.3-21.7l7.7,29.5c0.5,2,2.4,3.4,4.4,3.4c3-0.1,5.2-0.1,6.6-0.1c1.1,0,3.2,0,6.2,0.1c2,0,3.7-1.2,4.4-3
	l2-6l8.4-23.5l-0.5,19.5c-0.1,2.2-0.2,5-0.4,8.4c-0.1,1.2,0.4,2.5,1.3,3.4c0.8,0.9,2,1.4,3.2,1.4c0,0,0.1,0,0.1,0
	c2.7-0.1,4.9-0.1,6.4-0.1c1.1,0,3.2,0,6.3,0.1c1.2,0,2.4-0.4,3.3-1.3c0.9-0.9,1.3-2,1.3-3.3c-0.1-4.2-0.1-7.7-0.1-10.4
	C216.3,179.5,216.4,170.7,216.6,159z"/>
<path style="fill:#164397;" d="M431.2,154c-1.3-3.3-3.1-6.2-5.6-8.6c-2.5-2.5-5.7-4.3-9.2-5.3c-0.9-0.3-1.8-0.5-2.8-0.7l3.5-5.1
	c1-1.5,2.5-3.7,4.6-6.4c1-1.4,1.2-3.2,0.4-4.8c-0.8-1.5-2.4-2.5-4.1-2.4c-3,0.1-5.3,0.1-7,0.1c-2.1,0-4.4,0-7-0.1
	c-1.9-0.1-3.6,1.1-4.3,2.9c-0.5,1.3-1,2.6-1.5,4c-0.5,1.5-0.9,2.6-1.3,3.6l-1.7,4.7c-0.5,1.4-0.3,3,0.5,4.2
	c-0.4,0.1-0.8,0.2-1.1,0.3c-3.8,1.3-7.3,3.4-10.2,6.4c-3,3-5.2,6.8-6.7,11.2c-1.5,4.4-2.3,8.9-2.3,13.5c0,4.2,0.7,8.3,2,12.2
	c1.4,4,3.6,7.6,6.6,10.4c3,2.8,6.6,4.9,10.5,5.9c3.7,1,7.8,1.5,12.3,1.5c2.6,0,5.1-0.1,7.6-0.4c2.6-0.3,5.6-0.9,9.1-1.7
	c1.8-0.4,3.2-1.9,3.4-3.7c0.8-5.1,1.3-8.7,1.7-10.5c0.3-1.6-0.2-3.2-1.4-4.3c-1.2-1.1-2.9-1.4-4.4-0.9c-3.4,1.2-6.2,2-8.5,2.4
	c-2.3,0.5-4.4,0.7-6.2,0.7c-1.4,0-2.8-0.2-4.3-0.7c-1.3-0.4-2.3-1-3.2-1.9c-0.9-0.9-1.6-1.9-2.1-3.1c-0.4-1-0.6-2-0.7-3.1l30.3,0
	c2.2,0,4-1.6,4.4-3.7c0.3-1.9,0.5-3.8,0.5-5.7C433.1,161,432.5,157.3,431.2,154z M399.9,159.4C399.9,159.4,399.9,159.4,399.9,159.4
	c0.4-0.6,0.9-1.2,1.6-1.7c0.7-0.5,1.4-0.9,2.1-1.2c0.8-0.3,1.6-0.4,2.4-0.4c0.8,0,1.5,0.1,2.1,0.3c0.5,0.1,1,0.4,1.3,0.6
	c0.3,0.2,0.6,0.5,0.9,0.8c0.3,0.4,0.5,0.8,0.7,1.4c0,0.1,0.1,0.2,0.1,0.3L399.9,159.4z"/>
<path style="fill:#FFFFFF;" d="M260.3,141.2c-3.3-1-6.8-1.4-10.5-1.4c-3.2,0-6.6,0.2-10,0.7c-3.5,0.5-7.4,1.2-11.8,2.4
	c-1.3,0.3-2.3,1.4-2.5,2.8c-0.3,2-0.5,3.5-0.6,4.6c-0.1,0.8-0.4,2.5-0.8,4.9c-0.2,1.2,0.2,2.5,1.2,3.2c1,0.8,2.3,1,3.4,0.5
	c6.7-2.8,12.6-4.1,17.8-4.1c1.3,0,2.4,0.1,3.3,0.4c0.8,0.2,1.2,0.5,1.5,0.9c0.2,0.3,0.3,0.5,0.4,1.1c0,0.2,0,0.4-0.1,0.6
	c-0.1,0.2-0.3,0.5-0.6,0.8c-0.3,0.3-0.6,0.5-1.1,0.8c-0.5,0.2-1.4,0.6-2.6,0.9c-1.2,0.4-2.4,0.7-3.5,0.9c-4.6,1.1-8.4,2.1-11.3,3.2
	c-2.9,1.1-5.3,2.3-7.1,3.6c-1.7,1.3-3.1,2.6-4.2,4c-1.2,1.5-2.1,3.2-2.6,4.9c-0.6,1.7-0.9,3.5-0.9,5.4c0,3.1,0.8,6.1,2.2,9
	c1.5,3.2,4.1,5.6,7.3,7.1c3.2,1.4,6.9,2,11.2,2c1.3,0,2.6-0.1,4-0.2c1.5-0.1,3.4-0.4,5.7-0.8c1.2-0.2,2.2-1.1,2.6-2.2
	c0.1,0.3,0.3,0.6,0.6,0.9c0.7,0.7,1.6,1.1,2.6,1.1c2.6-0.1,4.8-0.1,6.7-0.1c2,0,4.2,0,6.5,0.1c0.9,0,1.8-0.3,2.4-0.9
	c0.6-0.6,1-1.5,1-2.4c0.1-8.3,0.4-16.4,0.9-24.2c0.5-7.9,0.8-12.8,0.8-14.9c0-4-0.9-7.6-3.3-10.3
	C266.6,143.9,263.7,142.2,260.3,141.2z M251.2,181.5c0,1-0.1,2-0.2,2.9c-0.8-0.3-1.7-0.4-2.5-0.1c-1.8,0.6-3.2,1-3.9,1.1
	c-1,0.2-1.9,0.2-2.7,0.2c-1.3,0-2.3-0.2-3-0.4c-0.5-0.2-0.9-0.5-1.3-1c-0.3-0.4-0.5-0.8-0.5-1.6c0-0.5,0.1-0.9,0.2-1.2
	c0.1-0.3,0.3-0.7,0.7-1.1c0.4-0.4,1-0.9,1.7-1.3c0.8-0.4,1.7-0.9,2.7-1.3c1.1-0.4,2.6-0.9,4.6-1.5c2-0.6,3.5-1.1,4.3-1.4
	c0,0,0.1,0,0.1,0L251.2,181.5z"/>
<path style="fill:#FFFFFF;" d="M430.1,154.4c-1.2-3.2-3-5.9-5.3-8.2c-2.4-2.4-5.4-4.1-8.8-5.1c-1.5-0.4-3-0.8-4.6-1
	c0.3-0.2,0.6-0.5,0.8-0.8l3.9-5.7c1-1.5,2.6-3.7,4.7-6.5c0.8-1,0.9-2.4,0.3-3.6c-0.6-1.1-1.8-1.9-3.1-1.8c-3,0.1-5.3,0.1-7,0.1
	c-2.1,0-4.5,0-7-0.1c-1.4,0-2.7,0.8-3.2,2.2c-0.5,1.3-1,2.6-1.5,4c-0.5,1.5-0.9,2.7-1.3,3.7l-1.7,4.6c-0.4,1.1-0.2,2.2,0.4,3.2
	c0.4,0.5,0.9,0.9,1.5,1.2c-1.1,0.2-2.2,0.5-3.2,0.9c-3.6,1.2-6.9,3.3-9.7,6.1c-2.8,2.9-5,6.5-6.5,10.8c-1.5,4.2-2.2,8.6-2.2,13.2
	c0,4.1,0.6,8.1,1.9,11.8c1.3,3.9,3.5,7.2,6.3,10c2.9,2.7,6.3,4.6,10.1,5.7c3.6,1,7.6,1.4,12,1.4c2.5,0,5-0.1,7.4-0.4
	c2.5-0.3,5.5-0.8,9-1.6c1.4-0.3,2.4-1.4,2.6-2.8c0.8-5.1,1.3-8.7,1.7-10.5c0.2-1.2-0.2-2.4-1.1-3.2c-0.9-0.8-2.2-1-3.3-0.7
	c-3.4,1.2-6.3,2-8.6,2.5c-2.4,0.5-4.5,0.7-6.4,0.7c-1.5,0-3-0.2-4.7-0.8c-1.5-0.5-2.6-1.2-3.7-2.1c-1-1-1.8-2.1-2.3-3.6
	c-0.5-1.4-0.8-2.9-0.9-4.7l31.5,0c1.6,0,3-1.2,3.3-2.8c0.3-1.9,0.5-3.7,0.5-5.5C432,161.1,431.4,157.6,430.1,154.4z M399,158.8
	c0.5-0.7,1-1.4,1.8-2c0.8-0.6,1.6-1.1,2.4-1.4c0.9-0.3,1.8-0.5,2.8-0.5c0.9,0,1.7,0.1,2.3,0.3c0.7,0.2,1.2,0.4,1.6,0.7
	c0.4,0.3,0.8,0.6,1.1,1.1c0.3,0.5,0.6,1,0.9,1.7c0.2,0.7,0.4,1.3,0.4,1.8l-14.3,0C398.3,160,398.6,159.4,399,158.8z"/>
<path style="fill:#FFFFFF;" d="M315.4,180.9c-2.1,0.8-4.1,1.4-5.9,1.7c-1.9,0.4-3.5,0.5-4.6,0.5c-2.4,0-4.4-0.5-6.1-1.5
	c-1.7-1-2.7-2.1-3.3-3.8c-0.7-1.9-1.2-4.2-1.2-7.1c0-2,0.3-3.9,0.8-5.9c0.5-1.8,1.2-3.2,2.3-4.5c1.1-1.3,2.2-2.1,3.6-2.7
	c1.5-0.6,3.1-0.9,4.8-0.9c3,0,6.7,0.7,11.2,2.4c1.1,0.4,2.3,0.2,3.2-0.5c0.9-0.7,1.4-1.8,1.3-2.9l-0.7-11.1c-0.1-1.5-1.1-2.7-2.5-3
	c-3.1-0.8-5.8-1.3-8.2-1.6c-2.3-0.3-4.6-0.4-6.7-0.4c-4,0-7.7,0.5-11,1.5c-3.6,1-6.9,3.1-9.7,5.9c-2.9,2.9-5,6.6-6.4,10.9
	c-1.4,4.2-2.1,8.7-2.1,13.3c0,3.5,0.4,6.9,1.3,10.2c0.9,3.3,2.2,6.3,4,8.9c1.8,2.4,3.9,4.5,6.3,6c2.4,1.5,5,2.6,7.7,3.2
	c2.6,0.6,5.3,0.8,8.1,0.8c4.7,0,9.4-0.6,14.2-1.8c1.3-0.3,2.3-1.5,2.5-2.8c0.3-2.6,0.7-4.7,1-6.4c0.3-1.8,0.6-3.5,0.7-4.9
	c0.1-1.2-0.3-2.3-1.3-3.1C317.7,180.7,316.5,180.5,315.4,180.9z"/>
<path style="fill:#FFFFFF;" d="M213.1,123.4c-4.3,0.1-7.4,0.1-9.3,0.1c-2.9,0-6.2,0-10-0.1c-1.5,0-2.9,1-3.3,2.4
	c-0.8,2.7-1.4,4.6-1.7,5.7c-0.3,0.9-0.6,1.8-0.9,2.6l-9.2,24.1l0,0.1l-2.7,7.8l-0.8-3.4c-1.3-5.4-2.9-10.8-4.5-16.4
	c-1.2-3.6-2.1-6.6-2.8-9.2c-0.7-2.5-1.2-4.3-1.4-5.3c-0.2-1-0.6-3-1.1-5.7c-0.3-1.6-1.7-2.8-3.4-2.8c-4.4,0.1-7.5,0.1-9.1,0.1
	c-2.1,0-5.3,0-9.9-0.1c-1.8,0-3.3,1.4-3.4,3.2l-1.1,17.5l-3.1,40.1l-1.2,11.4c-0.1,1,0.2,1.9,0.9,2.6c0.7,0.7,1.6,1.1,2.6,1.1
	c3.1-0.1,5.2-0.1,6.1-0.1l6.1,0.1c0.9,0,1.8-0.3,2.4-1c0.6-0.6,1-1.5,1-2.4c0-3,0.1-5.3,0.1-6.8l1.7-28.4c0.7,2.4,1.2,4,1.4,4.8
	l8.2,31.2c0.4,1.5,1.8,2.5,3.3,2.5c3-0.1,5.2-0.1,6.6-0.1c1.1,0,3.2,0,6.2,0.1c1.5,0,2.8-0.9,3.3-2.3l2-6l10.7-30.2l-0.7,26.6
	c-0.1,2.2-0.2,5-0.4,8.4c-0.1,0.9,0.3,1.9,0.9,2.5c0.6,0.7,1.5,1,2.4,1c0,0,0.1,0,0.1,0c2.7-0.1,4.9-0.1,6.5-0.1
	c1.1,0,3.2,0,6.3,0.1c0.9,0,1.8-0.3,2.4-1c0.6-0.6,1-1.5,1-2.4c-0.1-4.2-0.1-7.7-0.1-10.5c0-5.8,0.1-14.5,0.3-26.3
	c0.2-11.7,0.6-22.4,1-32.1c0-0.9-0.3-1.8-0.9-2.5C214.9,123.7,214,123.3,213.1,123.4z"/>
<path style="fill:#FFFFFF;" d="M362.8,141.2c-3.3-1-6.8-1.4-10.5-1.4c-3.2,0-6.6,0.2-10,0.7c-3.5,0.5-7.4,1.2-11.8,2.4
	c-1.3,0.3-2.3,1.4-2.5,2.8c-0.3,2-0.5,3.5-0.6,4.6c-0.1,0.8-0.4,2.5-0.8,4.9c-0.2,1.2,0.2,2.5,1.2,3.2c1,0.8,2.3,1,3.4,0.5
	c6.7-2.8,12.6-4.1,17.8-4.1c1.3,0,2.4,0.1,3.3,0.4c0.8,0.2,1.2,0.5,1.5,0.9c0.2,0.3,0.3,0.5,0.4,1.1c0,0.2,0,0.4-0.1,0.6l0,0.1
	c-0.1,0.2-0.2,0.4-0.5,0.8c-0.3,0.3-0.6,0.5-1.1,0.8c-0.5,0.2-1.4,0.6-2.6,0.9c-1.2,0.4-2.4,0.7-3.5,0.9c-4.6,1.1-8.4,2.1-11.3,3.2
	c-2.9,1.1-5.3,2.3-7.1,3.6c-1.7,1.3-3.1,2.6-4.2,4c-1.2,1.5-2,3.2-2.6,4.9c-0.6,1.7-0.9,3.5-0.9,5.4c0,3.1,0.8,6.1,2.2,9
	c1.5,3.2,4.1,5.6,7.3,7.1c3.2,1.4,6.9,2,11.2,2c1.2,0,2.6-0.1,4-0.2c1.5-0.1,3.4-0.4,5.7-0.8c1.2-0.2,2.2-1.1,2.6-2.2
	c0.1,0.3,0.3,0.6,0.6,0.9c0.7,0.7,1.6,1.1,2.6,1.1c2.6-0.1,4.8-0.1,6.7-0.1c2,0,4.2,0,6.5,0.1c0.9,0,1.8-0.3,2.4-0.9
	c0.6-0.6,1-1.5,1-2.4c0.1-8.3,0.4-16.4,0.9-24.2c0.5-7.9,0.8-12.8,0.8-14.9c0-4-0.9-7.6-3.3-10.3
	C369.1,143.9,366.2,142.2,362.8,141.2z M353.7,181.5c0,1-0.1,2-0.2,2.9c-0.8-0.3-1.7-0.4-2.5-0.1c-1.8,0.6-3.2,1-3.9,1.1
	c-1,0.2-1.9,0.2-2.7,0.2c-1.3,0-2.3-0.2-3-0.4c-0.5-0.2-0.9-0.5-1.3-1c-0.3-0.4-0.5-0.8-0.5-1.6c0-0.5,0.1-0.9,0.2-1.2
	c0.1-0.3,0.3-0.7,0.7-1.1c0.4-0.4,1-0.9,1.7-1.3c0.8-0.4,1.7-0.9,2.8-1.3c1.1-0.4,2.6-0.9,4.6-1.5c2-0.6,3.5-1.1,4.3-1.4
	c0,0,0.1,0,0.1,0L353.7,181.5z"/>
<path style="fill:#164397;" d="M361.9,144.4c-2.9-0.9-6.1-1.3-9.6-1.3c-3.1,0-6.2,0.2-9.5,0.7c-3.3,0.4-7.1,1.2-11.4,2.3
	c-0.3,2-0.5,3.5-0.6,4.5c-0.1,1-0.4,2.7-0.8,5.1c7-2.9,13.3-4.4,19.1-4.4c1.6,0,3,0.2,4.2,0.5c1.3,0.3,2.3,1,3.1,1.9
	c0.8,0.9,1.2,2,1.2,3.3c0,0.7-0.1,1.3-0.4,2c-0.3,0.6-0.7,1.3-1.2,1.8s-1.2,1.1-2,1.5c-0.8,0.4-1.8,0.7-3.1,1.1
	c-1.3,0.4-2.5,0.7-3.7,1c-4.5,1-8.2,2.1-10.9,3.1c-2.8,1-4.9,2.1-6.3,3.2c-1.5,1.1-2.6,2.2-3.6,3.4c-0.9,1.2-1.6,2.5-2.1,3.9
	c-0.5,1.4-0.7,2.8-0.7,4.3c0,2.5,0.6,5,1.8,7.5c1.2,2.5,3.1,4.3,5.7,5.5c2.6,1.2,5.8,1.7,9.8,1.7c1.1,0,2.4-0.1,3.7-0.2
	c1.3-0.1,3.1-0.3,5.4-0.8c0.9-3.8,1.7-6.7,2.3-8.6c-1.9,0.7-3.4,1.1-4.5,1.3c-1.1,0.2-2.2,0.3-3.2,0.3c-1.6,0-3-0.2-4.1-0.6
	c-1.2-0.4-2.1-1.1-2.9-2.2c-0.8-1-1.2-2.2-1.2-3.7c0-0.9,0.1-1.7,0.5-2.5c0.3-0.8,0.8-1.5,1.4-2.2c0.7-0.7,1.5-1.3,2.4-1.9
	c1-0.6,2.1-1.1,3.3-1.5c1.2-0.4,2.8-1,4.8-1.5c2-0.6,3.4-1,4.2-1.3c0.8-0.3,1.5-0.6,2.1-0.9c0.6-0.3,1.6-0.9,2.8-1.8l-0.6,12.6
	c-0.3,5.4-0.6,10.1-1,14.2c2.6-0.1,4.9-0.1,6.8-0.1c2,0,4.2,0,6.6,0.1c0.1-8.4,0.4-16.5,0.9-24.4c0.5-7.9,0.8-12.8,0.8-14.7
	c0-3.5-0.8-6.3-2.5-8.2C367,146.6,364.8,145.3,361.9,144.4z"/>
<path style="fill:#164397;" d="M428.1,169.7c0.3-1.7,0.5-3.3,0.5-4.9c0-3.4-0.5-6.4-1.6-9.2c-1.1-2.7-2.6-5.1-4.5-7.1
	c-2-2-4.4-3.4-7.3-4.2c-2.9-0.9-6-1.3-9.2-1.3c-3.4,0-6.7,0.5-9.8,1.5c-3.1,1-5.9,2.8-8.4,5.3c-2.4,2.5-4.4,5.7-5.7,9.6
	c-1.4,3.9-2,7.9-2,12.1c0,3.7,0.6,7.3,1.7,10.7c1.2,3.4,3,6.3,5.5,8.6c2.5,2.3,5.3,4,8.6,4.8c3.3,0.9,7,1.3,11.1,1.3
	c2.4,0,4.7-0.1,7.1-0.4c2.3-0.3,5.2-0.8,8.6-1.6c0.8-5.2,1.3-8.7,1.7-10.7c-3.5,1.2-6.5,2.1-9.1,2.6c-2.5,0.5-4.9,0.8-7.1,0.8
	c-1.9,0-3.8-0.3-5.7-0.9c-1.9-0.6-3.6-1.6-5-2.9c-1.4-1.3-2.5-2.9-3.2-4.8c-0.7-1.9-1.1-4-1.1-6.2c0-0.7,0-1.7,0.1-3L428.1,169.7z
	 M394.7,160c0.3-1,0.8-2,1.4-3c0.6-1.1,1.5-2,2.5-2.8c1-0.8,2.2-1.5,3.4-1.9c1.3-0.4,2.5-0.7,3.9-0.7c1.1,0,2.2,0.1,3.2,0.4
	c1,0.3,1.9,0.7,2.6,1.2c0.8,0.5,1.4,1.1,2,1.9c0.6,0.8,1,1.6,1.4,2.6c0.3,1,0.5,1.9,0.6,2.7c0.1,0.8,0.1,2,0.1,3.6l-22.2-0.1
	C394.1,162.2,394.4,161,394.7,160z"/>
<path style="fill:#164397;" d="M294.8,158.4c1.4-1.7,3-2.9,4.9-3.7c1.9-0.8,3.9-1.2,6.1-1.2c3.5,0,7.6,0.9,12.3,2.6l-0.7-11.1
	c-3-0.8-5.5-1.3-7.7-1.5c-2.2-0.3-4.3-0.4-6.3-0.4c-3.7,0-7.1,0.4-10.1,1.3c-3,0.9-5.8,2.6-8.2,5.1c-2.5,2.5-4.3,5.7-5.6,9.6
	c-1.3,3.9-1.9,8-1.9,12.2c0,3.2,0.4,6.3,1.2,9.3c0.8,3,1.9,5.6,3.5,7.7c1.6,2.1,3.3,3.8,5.4,5.1c2,1.3,4.2,2.2,6.6,2.7
	c2.4,0.5,4.8,0.8,7.4,0.8c4.4,0,8.9-0.6,13.4-1.7c0.3-2.6,0.7-4.8,1-6.5c0.3-1.8,0.5-3.3,0.7-4.7c-2.3,0.9-4.4,1.5-6.5,1.9
	c-2,0.4-3.8,0.6-5.2,0.6c-2.9,0-5.5-0.6-7.8-1.9c-2.3-1.3-3.9-3.1-4.8-5.4c-0.9-2.3-1.4-5.1-1.4-8.3c0-2.3,0.3-4.5,0.9-6.7
	C292.4,162,293.4,160,294.8,158.4z"/>
<path style="fill:#164397;" d="M193.7,126.7c-0.8,2.7-1.4,4.6-1.7,5.7c-0.3,1.1-0.7,2-1,2.8l-9.3,24.1l-6.3,18.6l-3.6-14.5
	c-1.3-5.3-2.8-10.7-4.5-16.2c-1.1-3.6-2.1-6.7-2.8-9.2c-0.7-2.5-1.2-4.4-1.5-5.5c-0.3-1.2-0.6-3.1-1.1-5.8c-4.4,0.1-7.5,0.1-9.2,0.1
	c-2.1,0-5.4,0-9.9-0.1l-1.1,17.5l-3.1,40.2l-1.2,11.4c3.1-0.1,5.2-0.1,6.2-0.1l6.1,0.1c0-3,0.1-5.3,0.1-6.9l1.8-31.4
	c0.3-4.8,0.6-8.3,0.7-10.3l0.6-6.5c0.5,2.2,0.8,3.5,0.9,4.2c0.1,0.6,0.4,1.4,0.6,2.4l2.9,10.3c1.1,3.5,1.7,5.9,2,7l8.2,31.2
	c3-0.1,5.3-0.1,6.7-0.1c1.1,0,3.2,0,6.3,0.1l2-6l17.5-49.2l0,4.1c0,4.1,0,8.3-0.1,12.6l-0.8,30.1c-0.1,2.2-0.2,5.1-0.4,8.5
	c2.7-0.1,4.9-0.1,6.6-0.1c1.1,0,3.3,0,6.4,0.1c-0.1-4.2-0.1-7.7-0.1-10.5c0-5.8,0.1-14.6,0.3-26.3c0.2-11.8,0.6-22.5,1-32.2
	c-4.3,0.1-7.4,0.1-9.4,0.1C200.8,126.8,197.4,126.8,193.7,126.7z"/>
<path style="fill:#164397;" d="M409.5,137.4l3.9-5.7c1.1-1.6,2.6-3.8,4.7-6.6c-3,0.1-5.3,0.1-7.1,0.1c-2.2,0-4.5,0-7.1-0.1
	c-0.5,1.2-1,2.6-1.5,4c-0.5,1.4-0.9,2.6-1.3,3.6l-1.7,4.7c1.7-0.1,3.3-0.1,4.9-0.1C406.1,137.3,407.9,137.3,409.5,137.4z"/>
<path style="fill:#164397;" d="M259.4,144.4c-2.9-0.9-6.1-1.3-9.6-1.3c-3.1,0-6.2,0.2-9.5,0.7c-3.3,0.4-7.1,1.2-11.4,2.3
	c-0.3,2-0.5,3.5-0.6,4.5c-0.1,1-0.4,2.7-0.8,5.1c7-2.9,13.3-4.4,19.1-4.4c1.6,0,3,0.2,4.2,0.5c1.3,0.3,2.3,1,3.1,1.9
	c0.8,0.9,1.2,2,1.2,3.3c0,0.7-0.1,1.3-0.4,2c-0.3,0.6-0.7,1.3-1.2,1.8c-0.6,0.6-1.2,1.1-2,1.5c-0.8,0.4-1.8,0.7-3.1,1.1
	c-1.3,0.4-2.5,0.7-3.7,1c-4.5,1-8.2,2.1-10.9,3.1c-2.8,1-4.9,2.1-6.3,3.2c-1.5,1.1-2.6,2.2-3.6,3.4c-0.9,1.2-1.6,2.5-2.1,3.9
	c-0.5,1.4-0.7,2.8-0.7,4.3c0,2.5,0.6,5,1.8,7.5c1.2,2.5,3.1,4.3,5.7,5.5c2.6,1.2,5.8,1.7,9.8,1.7c1.1,0,2.4-0.1,3.7-0.2
	c1.3-0.1,3.1-0.3,5.4-0.8c0.9-3.8,1.7-6.7,2.3-8.6c-1.9,0.7-3.4,1.1-4.5,1.3c-1.1,0.2-2.2,0.3-3.2,0.3c-1.6,0-3-0.2-4.1-0.6
	c-1.2-0.4-2.1-1.1-2.9-2.2c-0.8-1-1.2-2.2-1.2-3.7c0-0.9,0.1-1.7,0.5-2.5c0.3-0.8,0.8-1.5,1.4-2.2c0.7-0.7,1.5-1.3,2.4-1.9
	c1-0.6,2.1-1.1,3.3-1.5c1.2-0.4,2.8-1,4.8-1.5c2-0.6,3.4-1,4.2-1.3c0.8-0.3,1.5-0.6,2.1-0.9c0.6-0.3,1.6-0.9,2.8-1.8l-0.6,12.6
	c-0.3,5.4-0.6,10.1-1,14.2c2.6-0.1,4.9-0.1,6.8-0.1c2,0,4.2,0,6.6,0.1c0.1-8.4,0.4-16.5,0.9-24.4c0.5-7.9,0.8-12.8,0.8-14.7
	c0-3.5-0.8-6.3-2.5-8.2C264.5,146.6,262.3,145.3,259.4,144.4z"/>
<path style="fill:#164397;" d="M399.4,383.2c0.3-1.2,0.4-2.5,0.4-3.8c0-2.5-0.4-4.9-1.4-7.1c-1-2.2-2.3-4.1-4.1-5.7
	c-1.9-1.7-4.2-2.8-6.6-3.4c-2.3-0.6-4.7-0.9-7.2-0.9c-2.6,0-5.2,0.4-7.7,1.1c-2.7,0.8-5.2,2.1-7.2,4c-0.2,0.2-0.4,0.4-0.6,0.6
	l-4.4-4.7h-3.3c0-0.9,0.1-1.8,0.1-2.7l-5.5-4.6c-2.2,0.5-3.6,0.8-4.2,0.9l-3.7,0.7l-3.7,4.2c0,0.5-0.1,1-0.1,1.5h-0.5l-0.8,0.8
	l-1.1-1.4c-1.1-0.3-2.3-0.4-3.5-0.4c-1.2,0-2.4,0.1-3.6,0.4c-1.2,0.3-2.4,0.7-3.4,1.3c-0.2,0.1-0.3,0.2-0.5,0.3l-1.2-1.3
	c-1.7,0-3.1,0.1-4.1,0.1c-0.9,0-2.3,0-4.2-0.1l-4.6,4.6c0,1.5,0.1,2.5,0.1,2.7c0,0.5,0,1.1,0,1.6c-1-1.7-2.2-3.2-3.7-4.5
	c-2-1.8-4.5-3.1-7.2-3.9c-2.6-0.8-5.3-1.2-8.2-1.2c-3.1,0-6.1,0.5-9,1.5c-2.9,1-5.5,2.5-7.6,4.6c-1.3,1.3-2.4,2.8-3.3,4.4
	c-0.8-1.8-2-3.5-3.4-5c-2.1-2.1-4.7-3.6-7.7-4.4c-2.8-0.7-5.7-1.1-8.8-1.1c-2.3,0-4.6,0.1-6.9,0.3c-2.4,0.2-5.5,0.7-9.5,1.4l-2.6,3
	l-3.4-3.7c-3.7-0.6-7.1-1-10.2-1c-2.8,0-5.3,0.3-7.6,1.1c-2.5,0.8-4.7,2.3-6.3,4.5c-1.4,1.9-2.2,4.3-2.2,6.7c0,1.4,0.3,2.7,0.8,4
	c0.5,1.2,1.2,2.4,2,3.5c0.8,1,1.8,1.9,2.8,2.8c0.9,0.7,2.2,1.7,3.8,2.9c-0.3-0.1-0.7-0.1-1.1-0.2c-1.1-0.2-2.6-0.7-4.5-1.4l-4.4,3.3
	l-2.9-3l-4.5,0.2l-6.7,0.1c-2.4,0-4.3,0-5.5,0.1l0.1-2.2c1.8,0,3.5-0.1,4.9-0.1c0.7,0,3.9,0,9.5,0.1l4.5-4.2
	c0.1-2.4,0.3-4.5,0.4-6.2l-4.6-4.9c-4.7,0.1-8.1,0.2-10,0.2c-1.3,0-2.6,0-3.9,0l0.1-1.6c0,0,0,0,0.1,0c0.9,0,3,0,6.2,0
	c1.5,0,2.9,0,4.3,0c1.4,0,2.5,0,3.2,0.1l2.9,0.2l4.7-4.2l0.4-6.3l-4.5-4.7l-9,0l-6,0c-5.5,0-10.9,0-16-0.1l-4.5,4.5v3.9l-0.4,11.8
	l-0.6,12.9l-0.9,11.2l4.5,4.8l6.2,0l10.2,0c4.3,0,9.2,0,14.5,0.1l3.4-3.2l2.2,2.5c2.2,0.5,4.3,0.9,6.3,1.1c1.9,0.2,3.5,0.3,5,0.3
	c2.8,0,5.5-0.4,8-1.3c2.5-0.9,4.7-2.3,6.3-4.3c-0.3,5.3-0.6,9.8-1,13.5l4.5,4.9l4.6,0c1,0,2.4,0,4.3,0l4.5-4.5c0-0.8,0-1.5,0-2
	c0-0.2,0-0.4,0-0.5c0,0,0-0.1,0-0.1c0,0,0,0,0,0l0,0l0-0.2l0-1.9l0.2-4.8c0.8,0.3,1.6,0.5,2.4,0.7c1.5,0.3,3.1,0.5,4.6,0.5
	c2.6,0,5.1-0.5,7.4-1.4c2.5-1,4.6-2.6,6.4-4.7c1.1-1.3,2-2.7,2.7-4.2c1,1.9,2.4,3.7,4,5.1c2,1.8,4.5,3.1,7.2,4
	c2.6,0.8,5.4,1.2,8.2,1.2c3,0,6-0.4,8.7-1.4c2.9-0.9,5.4-2.4,7.5-4.5c1-1,1.9-2.1,2.6-3.2l-0.2,3.6l4.6,4.8c1.8,0,3.3-0.1,4.5-0.1
	c1.3,0,2.7,0,4.2,0.1l4.6-4.7c-0.1-1.3-0.1-2.4-0.1-3.3c0-2.3,0.1-4.7,0.2-7.1c0.1-2.4,0.3-4.1,0.4-4.7c0.2-1.1,0.4-1.7,0.5-2
	c0.3-0.6,0.6-1,0.8-1.2c0.4-0.3,0.6-0.5,1-0.6c0.3-0.1,0.9-0.2,1.6-0.2c0.5,0,1.3,0.1,2.2,0.3l2.2-1.8l1,1.1l-0.5,7.8
	c-0.1,2.4-0.2,3.7-0.2,4.2c0,0.5,0,0.9,0,1.3c0,1.4,0.2,2.8,0.6,4.2c0.5,1.7,1.6,3.3,2.9,4.5c1.4,1.2,3.2,2.1,5,2.5
	c1.6,0.4,3.3,0.5,5.1,0.5c1,0,2.1-0.1,3.3-0.2c1.3-0.1,2.8-0.4,4.6-0.8l3.5-3.6c0.1-0.6,0.2-1.2,0.3-1.7c0.5,0.6,1.1,1.1,1.7,1.6
	c2.2,1.8,4.7,3.1,7.5,3.7c2.6,0.6,5.3,0.9,8.3,0.9c1.7,0,3.4-0.1,5.1-0.2c1.8-0.2,3.8-0.5,6.1-1l3.5-3.7c0.5-3,0.9-5,1.1-6l-5.3-5
	l3.5,0L399.4,383.2z M233.4,383.8c-0.3-0.6-0.7-1.1-1.2-1.7c-0.9-1.1-1.9-2-3.1-2.9c-0.8-0.6-1.7-1.3-2.8-2.1c1,0.2,2.1,0.5,3.2,0.9
	l4.1-3C233.6,377.7,233.5,380.7,233.4,383.8z M258.1,382c0,1.3-0.2,2.4-0.7,3.5c-0.4,1-0.9,1.5-1.3,1.8c-0.6,0.4-1.1,0.5-1.9,0.5
	c-0.5,0-0.9-0.1-1.5-0.3c-0.5-0.2-0.8-0.5-1.2-0.9c-0.3-0.4-0.5-0.8-0.6-1.1c-0.2-0.7-0.3-1.5-0.3-2.4c0-0.5,0-1.5,0.1-2.8l0.2-2.7
	c1.1-0.2,2-0.3,2.9-0.3c1.1,0,1.8,0.2,2.5,0.5c0.4,0.2,0.7,0.5,1.2,1.2C257.8,379.6,258.1,380.5,258.1,382z M289.7,379.6
	c0.4-0.9,0.8-1.2,1.3-1.6c0.7-0.4,1.4-0.6,2.6-0.6c1.2,0,1.8,0.2,2.3,0.5c0.6,0.4,0.8,0.6,1,1.1c0.3,0.7,0.5,1.6,0.5,2.7
	c0,1.5-0.3,2.7-0.7,3.8c-0.4,0.9-0.8,1.3-1.3,1.7c-0.6,0.4-1.3,0.6-2.5,0.6c-1.1,0-1.7-0.2-2.2-0.5c-0.6-0.4-0.8-0.7-1.1-1.2
	c-0.3-0.7-0.5-1.6-0.5-2.8C289,381.9,289.3,380.7,289.7,379.6z M359.3,387.3l-0.4-0.4c-1.3,0.3-2.3,0.5-2.5,0.6c-0.1,0-0.2,0-0.3,0
	c0-0.1,0-0.1,0-0.2c0-0.7,0.1-4,0.4-9.4h3c-0.4,1.7-0.6,3.5-0.6,5.3C359,384.7,359.1,386,359.3,387.3z M385.8,387.9
	c-1.5,0.3-2.8,0.4-3.9,0.4c-0.8,0-1.6-0.1-2.5-0.4c-0.7-0.2-1.2-0.5-1.6-0.8c-0.1-0.1-0.2-0.2-0.3-0.2l12.7,0
	C388.5,387.3,387,387.7,385.8,387.9z"/>
<path style="fill:#FFFFFF;" d="M230.8,383.3c-0.8-0.9-1.7-1.8-2.8-2.7c-1-0.8-2.1-1.6-3.4-2.5c-1.3-0.9-2.1-1.5-2.5-1.8
	c-0.3-0.2-0.5-0.4-0.7-0.6c0,0,0-0.1-0.1-0.1c0.1,0,0.2-0.1,0.4-0.1c0.6-0.2,1.5-0.3,2.5-0.3c1.8,0,3.8,0.4,6,1.2
	c0.9,0.3,1.8,0.2,2.6-0.3c0.7-0.5,1.1-1.4,1.1-2.3l-0.4-6.1c-0.1-1.2-1-2.3-2.2-2.5c-3.7-0.6-6.9-1-9.9-1c-2.6,0-5,0.3-7.1,1
	c-2.2,0.7-4.1,2-5.4,3.8c-1.2,1.7-1.9,3.6-1.9,5.6c0,1.1,0.2,2.3,0.6,3.4c0.4,1,1,2.1,1.7,3c0.7,0.9,1.6,1.7,2.6,2.5
	c0.9,0.7,2.2,1.7,3.8,2.9l1.7,1.2l0.1,0.1c0.5,0.4,0.9,0.7,1.1,0.9c0.3,0.2,0.4,0.4,0.4,0.4c0.1,0.1,0.1,0.2,0.2,0.2c0,0,0,0,0,0
	c0,0,0,0,0,0c0,0,0,0.1-0.5,0.3c-0.5,0.2-1.2,0.3-2.2,0.3c-1,0-2.1-0.1-3.3-0.4c-1.2-0.3-2.8-0.8-4.8-1.5c-0.9-0.3-1.9-0.2-2.6,0.4
	c-0.7,0.6-1.1,1.5-1,2.4l0.7,6.5c0.1,1.1,1,2.1,2.1,2.3c2.1,0.5,4.1,0.8,6.1,1c1.8,0.2,3.4,0.3,4.8,0.3c2.6,0,5.1-0.4,7.4-1.2
	c2.3-0.8,4.2-2.1,5.5-3.8c1.3-1.6,2-3.7,2-5.7c0-1.2-0.2-2.4-0.7-3.6C232.3,385.4,231.6,384.3,230.8,383.3z"/>
<path style="fill:#FFFFFF;" d="M396.7,373.1c-0.9-1.9-2.1-3.7-3.7-5c-1.7-1.4-3.7-2.4-5.9-3c-2.1-0.6-4.4-0.8-6.7-0.8
	c-2.5,0-4.9,0.3-7.2,1c-2.4,0.7-4.6,1.9-6.5,3.6c-1.6,1.4-2.9,3.2-3.8,5.2c0-0.1,0-0.3,0-0.4c0-1,0.1-2.9,0.2-5.5
	c0-0.7-0.2-1.5-0.7-2c-0.5-0.5-1.2-0.8-2-0.8h-5.2c0-1.5,0.1-3,0.2-4.6c0-0.8-0.3-1.7-1-2.2c-0.6-0.5-1.5-0.8-2.3-0.6
	c-2.2,0.5-3.6,0.8-4.3,0.9l-3.7,0.7c-1.2,0.2-2.1,1.3-2.2,2.5c-0.1,1.2-0.1,2.3-0.2,3.2h-2.2c-0.3,0-0.6,0.1-0.9,0.2
	c-0.4-0.4-0.8-0.7-1.4-0.8c-1-0.2-2.1-0.4-3.1-0.4c-1.1,0-2.2,0.1-3.2,0.4c-1.1,0.3-2.1,0.6-3,1.1c-0.1,0.1-0.3,0.2-0.4,0.2
	c-0.1-0.1-0.1-0.1-0.2-0.2c-0.5-0.5-1.2-0.8-2-0.8c-1.7,0-3.1,0.1-4.1,0.1c-0.9,0-2.3,0-4.2-0.1c-0.7,0-1.4,0.3-2,0.8
	c-0.5,0.5-0.8,1.2-0.8,2c0,1.5,0.1,2.5,0.1,2.7c0,1.7,0,3.3-0.1,5l-0.2,8.1l-0.9,13.9c0,0.8,0.2,1.5,0.7,2c0.5,0.5,1.2,0.8,2,0.8
	c1.8,0,3.3-0.1,4.5-0.1c1.3,0,2.7,0,4.3,0.1c0.7,0,1.5-0.3,2-0.8c0.5-0.5,0.8-1.3,0.8-2c-0.1-1.4-0.1-2.5-0.1-3.3
	c0-2.3,0.1-4.7,0.2-7.2c0.1-2.4,0.3-4.1,0.4-4.9c0.2-1.2,0.4-2,0.6-2.4c0.4-0.8,0.8-1.3,1.2-1.8c0.5-0.5,1-0.8,1.6-1
	c0.6-0.2,1.3-0.3,2.3-0.3c0.7,0,1.6,0.1,2.7,0.4c0.8,0.2,1.7,0,2.4-0.5c0,0,0,0,0,0c0.2,0,0.4,0.1,0.6,0.1h1.6l-0.6,9.4
	c-0.1,2.4-0.2,3.7-0.2,4.2c0,0.5,0,0.8,0,1.2c0,1.2,0.2,2.5,0.5,3.7c0.4,1.4,1.3,2.7,2.4,3.7c1.2,1,2.6,1.7,4.2,2.1
	c1.4,0.3,3,0.5,4.7,0.5c1,0,2-0.1,3.1-0.2c1.2-0.1,2.6-0.4,4.4-0.7c1.1-0.2,1.9-1.1,2.1-2.1c0.5-2.9,0.9-4.9,1.2-5.9c0,0,0,0,0,0
	c0.9,1.8,2.2,3.4,3.8,4.8c1.9,1.6,4.2,2.8,6.8,3.4c2.4,0.6,5,0.8,7.9,0.8c1.7,0,3.3-0.1,4.9-0.2c1.7-0.2,3.6-0.5,5.9-1
	c1.1-0.2,1.9-1.1,2.1-2.2c0.5-3,0.9-5,1.1-6.1c0.2-0.9-0.1-1.9-0.8-2.6c-0.7-0.7-1.7-0.9-2.6-0.6c-2.2,0.7-4.1,1.2-5.6,1.4
	c-1.5,0.3-2.9,0.4-4.2,0.4c-1,0-1.9-0.1-3-0.4c-0.9-0.3-1.7-0.7-2.3-1.2c-0.6-0.5-1-1.1-1.3-1.8c-0.2-0.5-0.4-1-0.4-1.6l20.1,0
	c1.3,0,2.4-0.9,2.6-2.1c0.2-1.1,0.4-2.3,0.4-3.4C398,377.2,397.6,375,396.7,373.1z M362.3,375.4c-1,2.6-1.5,5.2-1.5,8
	c0,2,0.3,3.9,0.8,5.8c-0.6-0.4-1.4-0.6-2.2-0.4c-1.4,0.3-2.3,0.5-2.7,0.6c-0.5,0.1-0.9,0.1-1.3,0.1c-0.3,0-0.6-0.1-0.8-0.2
	c0,0,0,0,0,0c-0.1-0.1-0.2-0.8-0.2-1.8c0-0.9,0.2-4.8,0.5-11.2h5.4c0.7,0,1.4-0.3,1.9-0.8c0.1-0.1,0.1-0.1,0.2-0.2
	C362.3,375.3,362.3,375.3,362.3,375.4z M382.9,375c0.2,0.1,0.4,0.3,0.6,0.5c0.2,0.2,0.3,0.4,0.4,0.7l-7.6,0c0.2-0.3,0.5-0.5,0.9-0.8
	c0.5-0.3,0.9-0.6,1.5-0.7c0.6-0.2,1.2-0.3,1.8-0.3c0.6,0,1.1,0.1,1.5,0.2C382.4,374.7,382.7,374.9,382.9,375z"/>
<path style="fill:#FFFFFF;" d="M311.9,374.7c-0.9-2.3-2.3-4.3-4.2-5.9c-1.8-1.6-4-2.8-6.6-3.5c-2.4-0.8-5-1.1-7.6-1.1
	c-2.9,0-5.7,0.5-8.4,1.4c-2.7,0.9-5.1,2.3-6.9,4.2c-1.8,1.8-3.2,3.9-4,6.2c-0.3,0.8-0.5,1.5-0.7,2.3c-0.2-1.1-0.5-2.1-0.8-3.1
	c-0.8-2.3-2-4.3-3.7-6.1c-1.8-1.9-4.1-3.2-6.9-3.9c-2.6-0.7-5.4-1-8.4-1c-2.2,0-4.5,0.1-6.7,0.3c-2.3,0.2-5.4,0.7-9.3,1.3
	c-1.3,0.2-2.2,1.3-2.2,2.6c0,5.4-0.2,12.4-0.6,21.1c-0.4,8.7-0.9,15.7-1.4,21.1c-0.1,0.8,0.2,1.5,0.7,2.1c0.5,0.6,1.2,0.9,2,0.9
	l4.6,0c1,0,2.5,0,4.4,0c0,0,0,0,0,0c0.7,0,1.4-0.3,1.9-0.8c0.5-0.5,0.8-1.2,0.8-1.9c0-0.8,0-1.5,0-2c0-0.2,0-0.4,0-0.6
	c0-0.1,0-0.2,0-0.2l0-0.2l0-2l0.3-7.4c0.2,0.1,0.5,0.3,0.7,0.4c1.1,0.6,2.4,1,3.7,1.3c1.4,0.3,2.8,0.5,4.2,0.5
	c2.4,0,4.7-0.4,6.7-1.3c2.2-0.9,4.1-2.3,5.7-4.2c1.5-1.8,2.7-3.9,3.4-6.2c0.2-0.7,0.4-1.5,0.6-2.2c0.2,1.1,0.6,2.2,1,3.2
	c0.9,2.3,2.4,4.3,4.2,5.9c1.8,1.6,4,2.8,6.5,3.6c2.4,0.8,5,1.1,7.7,1.1c2.9,0,5.6-0.4,8.2-1.3c2.6-0.9,4.9-2.2,6.8-4.1
	c1.8-1.8,3.2-3.9,4.1-6.3c0.9-2.4,1.4-4.9,1.4-7.4C313.3,379.3,312.8,377,311.9,374.7z M249,380.1l0.2-3.3c0-0.2,0-0.5,0.1-0.8
	c1.7-0.4,3.2-0.6,4.6-0.6c1.3,0,2.4,0.2,3.3,0.7c0.8,0.4,1.4,1,2,2c0.5,0.9,0.8,2.2,0.8,3.9c0,1.5-0.3,2.9-0.8,4.2
	c-0.5,1.3-1.2,2-2,2.6c-0.9,0.6-1.7,0.8-2.8,0.8c-0.8,0-1.5-0.2-2.2-0.5c-0.7-0.3-1.3-0.8-1.8-1.4c-0.5-0.6-0.8-1.2-1-1.9
	c-0.2-0.9-0.3-1.8-0.3-2.8C248.9,382.5,248.9,381.5,249,380.1z M290.1,376.5c1-0.6,2.1-0.9,3.5-0.9c1.4,0,2.4,0.3,3.2,0.8
	c0.9,0.5,1.3,1.1,1.7,1.9c0.4,1,0.6,2.1,0.6,3.4c0,1.7-0.3,3.1-0.8,4.4c-0.5,1.2-1.2,2-2,2.5c-0.9,0.6-2,0.9-3.4,0.9
	c-1.4,0-2.4-0.3-3.2-0.8c-0.9-0.6-1.4-1.2-1.8-2c-0.4-1-0.6-2.1-0.6-3.5c0-1.6,0.3-3,0.8-4.3C288.6,377.7,289.2,377,290.1,376.5z"/>
<path style="fill:#FFFFFF;" d="M202,388.4l-4.5,0.2l-6.7,0.1c-3.5,0-5.8,0.1-6.8,0.1l-0.6,0l0.3-5.7c2.5-0.1,4.7-0.1,6.6-0.1
	c0.8,0,4,0,9.5,0.1c1.4,0,2.6-1.1,2.7-2.5c0.1-2.5,0.3-4.6,0.4-6.3c0.1-0.8-0.2-1.5-0.7-2.1c-0.5-0.6-1.3-0.9-2-0.9
	c-4.7,0.1-8.1,0.2-10,0.2c-1.9,0-3.9,0-5.8,0l0.2-5.2c0.7,0,1.3,0,1.7,0c0.9,0,3,0,6.2,0c1.5,0,2.9,0,4.3,0c1.4,0,2.5,0,3.3,0.1
	l2.9,0.2c1.5,0.1,2.7-1.1,2.8-2.5l0.4-6.3c0-0.7-0.2-1.5-0.7-2c-0.5-0.5-1.2-0.8-2-0.8l-9,0l-6,0c-5.5,0-10.9,0-16-0.1
	c-0.7,0-1.4,0.3-1.9,0.8c-0.5,0.5-0.8,1.2-0.8,1.9v3.9l-0.4,11.8l-0.6,12.9l-0.9,11.2c-0.1,0.7,0.2,1.5,0.7,2c0.5,0.5,1.2,0.9,2,0.9
	l6.2,0l10.2,0c4.3,0,9.2,0,14.6,0.1c0,0,0,0,0,0c1.4,0,2.6-1.1,2.7-2.6c0.1-2,0.2-4.1,0.4-6.3c0.1-0.8-0.2-1.5-0.7-2.1
	C203.5,388.6,202.7,388.3,202,388.4z"/>
<path style="fill:#164397;" d="M352.8,360.5c-2.2,0.5-3.7,0.8-4.4,1l-3.7,0.7c-0.1,2.7-0.3,4.7-0.4,5.8h-4.7
	c-0.1,2.6-0.2,4.5-0.3,5.7h4.5l-0.7,12.2c-0.1,2.3-0.2,3.7-0.2,4.2c0,0.4,0,0.8,0,1c0,1,0.1,2,0.4,2.9c0.3,0.9,0.8,1.7,1.6,2.4
	c0.8,0.7,1.8,1.2,3,1.5c1.2,0.3,2.6,0.4,4.1,0.4c0.9,0,1.8,0,2.8-0.2c1-0.1,2.4-0.3,4.1-0.7c0.5-2.9,0.9-4.9,1.2-6
	c-1.4,0.4-2.4,0.6-3,0.7c-0.6,0.1-1.1,0.1-1.6,0.1c-0.7,0-1.4-0.1-2-0.4c-0.6-0.3-1.1-0.8-1.3-1.4c-0.3-0.7-0.4-1.6-0.4-2.8
	c0-1.3,0.2-5.9,0.7-13.8h7.9c0-1.1,0.1-3,0.2-5.7h-7.9C352.6,365.6,352.6,363.1,352.8,360.5z"/>
<path style="fill:#164397;" d="M395,382.3c0.2-1,0.3-1.9,0.3-2.8c0-2-0.3-3.7-1-5.3c-0.7-1.6-1.7-3-3-4.1c-1.3-1.1-2.9-1.9-4.8-2.4
	c-1.9-0.5-3.9-0.8-6-0.8c-2.2,0-4.4,0.3-6.4,0.9c-2,0.6-3.9,1.6-5.5,3.1c-1.6,1.4-2.9,3.3-3.7,5.6c-0.9,2.3-1.3,4.6-1.3,7
	c0,2.2,0.4,4.3,1.1,6.2c0.8,2,2,3.6,3.6,5c1.6,1.4,3.5,2.3,5.6,2.8c2.1,0.5,4.6,0.8,7.3,0.8c1.6,0,3.1-0.1,4.6-0.2
	c1.5-0.2,3.4-0.5,5.7-0.9c0.5-3,0.9-5.1,1.1-6.2c-2.3,0.7-4.3,1.2-6,1.5c-1.7,0.3-3.2,0.4-4.6,0.4c-1.2,0-2.5-0.2-3.7-0.5
	c-1.3-0.4-2.3-0.9-3.3-1.7c-0.9-0.8-1.6-1.7-2.1-2.8c-0.5-1.1-0.7-2.3-0.7-3.6c0-0.4,0-1,0.1-1.7L395,382.3z M373.1,376.7
	c0.2-0.6,0.5-1.1,0.9-1.7c0.4-0.6,1-1.2,1.7-1.7c0.7-0.5,1.4-0.9,2.2-1.1c0.8-0.3,1.7-0.4,2.5-0.4c0.8,0,1.5,0.1,2.1,0.2
	c0.7,0.2,1.2,0.4,1.7,0.7c0.5,0.3,0.9,0.7,1.3,1.1c0.4,0.4,0.7,0.9,0.9,1.5c0.2,0.6,0.3,1.1,0.4,1.5c0.1,0.5,0.1,1.1,0.1,2.1
	l-14.6,0C372.7,378,372.9,377.2,373.1,376.7z"/>
<path style="fill:#164397;" d="M334.2,366.9c-0.9,0-1.8,0.1-2.6,0.3c-0.8,0.2-1.6,0.5-2.3,0.9c-0.7,0.4-1.3,0.8-1.9,1.3
	c-0.6,0.5-1.2,1.3-2,2.4l0.2-4.1c-1.7,0-3.1,0.1-4.2,0.1c-0.9,0-2.3,0-4.3-0.1c0,1.6,0.1,2.5,0.1,2.8c0,1.7,0,3.4-0.1,5l-0.2,8.1
	l-0.9,14c1.8,0,3.3-0.1,4.6-0.1c1.3,0,2.8,0,4.3,0.1c-0.1-1.4-0.1-2.5-0.1-3.5c0-2.4,0.1-4.8,0.2-7.3c0.1-2.5,0.3-4.2,0.4-5.2
	c0.2-1.3,0.5-2.4,0.9-3.2c0.5-1,1.1-1.9,1.8-2.6c0.7-0.7,1.6-1.2,2.5-1.6c0.9-0.3,2-0.5,3.2-0.5c1,0,2.1,0.2,3.3,0.5
	c-0.2-2.8-0.3-5.1-0.3-6.9C335.9,367,335,366.9,334.2,366.9z"/>
<path style="fill:#164397;" d="M188.7,357.4c-5.6,0-10.9,0-16-0.1v4l-0.4,11.8l-0.6,13l-0.9,11.2l6.2,0l10.2,0c4.3,0,9.2,0,14.6,0.1
	c0.1-2,0.2-4.2,0.4-6.4l-4.5,0.2l-6.7,0.1c-3.6,0-5.8,0.1-6.8,0.1l-3.4,0l0.5-11c3.7-0.1,6.7-0.2,9.1-0.2c0.8,0,4,0,9.5,0.1
	c0.1-2.5,0.3-4.6,0.4-6.4c-4.7,0.1-8.1,0.2-10.1,0.2c-2.9,0-5.8,0-8.6-0.1l0.5-10.4c1.9-0.1,3.3-0.1,4.3-0.1c0.9,0,3,0,6.3,0
	c1.5,0,3,0,4.4,0c1.4,0,2.5,0.1,3.4,0.1l3,0.2l0.4-6.3l-9,0L188.7,357.4z"/>
<path style="fill:#164397;" d="M221.1,372.9c0.9-0.2,2-0.3,3.2-0.3c2.2,0,4.5,0.5,6.9,1.4l-0.4-6.1c-3.5-0.6-6.7-0.9-9.4-0.9
	c-2.4,0-4.5,0.3-6.2,0.9c-1.8,0.6-3.1,1.5-4,2.8c-0.9,1.3-1.4,2.7-1.4,4.1c0,0.8,0.1,1.6,0.5,2.4c0.3,0.8,0.7,1.5,1.3,2.3
	c0.6,0.7,1.3,1.4,2.1,2.1c0.8,0.7,2.1,1.6,3.7,2.8l1.7,1.3c0.6,0.4,1,0.8,1.3,1c0.3,0.3,0.6,0.5,0.7,0.7c0.2,0.2,0.3,0.4,0.5,0.7
	c0.1,0.2,0.2,0.5,0.3,0.7c0.1,0.2,0.1,0.5,0.1,0.7c0,0.6-0.2,1.1-0.6,1.6c-0.4,0.5-1,0.9-1.8,1.2c-0.8,0.3-1.8,0.4-3,0.4
	c-1.2,0-2.5-0.2-3.9-0.5c-1.4-0.3-3.1-0.9-5.2-1.6l0.7,6.5c2,0.5,3.9,0.8,5.7,1c1.8,0.2,3.3,0.3,4.5,0.3c2.4,0,4.5-0.4,6.5-1.1
	c1.9-0.7,3.4-1.7,4.3-2.9c1-1.3,1.4-2.6,1.4-4.1c0-0.9-0.2-1.7-0.5-2.6c-0.3-0.9-0.8-1.7-1.4-2.4c-0.6-0.8-1.4-1.5-2.4-2.2
	c-1-0.7-2.1-1.6-3.4-2.5c-1.3-0.9-2.1-1.5-2.5-1.9c-0.4-0.3-0.8-0.6-1.1-1c-0.3-0.4-0.5-0.7-0.6-1c-0.1-0.3-0.2-0.7-0.2-1
	c0-0.6,0.2-1.1,0.6-1.5C219.6,373.4,220.2,373.1,221.1,372.9z"/>
<path style="fill:#164397;" d="M306,370.9c-1.5-1.3-3.4-2.3-5.6-3c-2.2-0.7-4.5-1-6.8-1c-2.6,0-5.1,0.4-7.5,1.3
	c-2.4,0.8-4.4,2-5.9,3.5c-1.5,1.5-2.7,3.3-3.4,5.2c-0.7,2-1.1,4-1.1,6.2c0,2.1,0.4,4.1,1.2,6.1c0.8,1.9,2,3.6,3.5,4.9
	c1.5,1.3,3.4,2.4,5.6,3c2.2,0.7,4.5,1,6.9,1c2.6,0,5-0.4,7.3-1.1c2.3-0.8,4.2-1.9,5.7-3.4c1.5-1.5,2.7-3.3,3.5-5.4
	c0.8-2.1,1.2-4.2,1.2-6.5c0-2.1-0.4-4.1-1.1-6C308.7,373.8,307.5,372.2,306,370.9z M300.7,387.3c-0.7,1.7-1.7,2.9-3.1,3.8
	c-1.4,0.9-3,1.3-4.8,1.3c-1.8,0-3.3-0.4-4.6-1.2c-1.3-0.8-2.2-1.9-2.8-3.2c-0.6-1.3-0.9-2.8-0.9-4.6c0-1.9,0.3-3.7,1-5.4
	c0.7-1.6,1.8-2.9,3.2-3.7c1.4-0.8,3-1.2,4.8-1.2c1.8,0,3.4,0.4,4.6,1.2c1.3,0.8,2.2,1.9,2.7,3.2c0.5,1.3,0.8,2.8,0.8,4.4
	C301.8,383.8,301.4,385.6,300.7,387.3z"/>
<path style="fill:#164397;" d="M267.1,371c-1.4-1.5-3.3-2.5-5.6-3.1c-2.3-0.6-4.9-0.9-7.7-0.9c-2.1,0-4.3,0.1-6.4,0.3
	c-2.2,0.2-5.2,0.7-9.2,1.3c0,5.4-0.2,12.5-0.6,21.2c-0.4,8.7-0.9,15.8-1.4,21.2l4.6,0c1,0,2.5,0,4.4,0c0-1.7,0-2.7,0-2.9l0-2
	l0.5-12.8c0.9,0.9,1.6,1.6,2.2,2.1c0.6,0.5,1.3,0.9,2.2,1.4c0.9,0.5,1.9,0.8,3.1,1.1c1.2,0.3,2.4,0.4,3.6,0.4c2.1,0,4-0.4,5.7-1.1
	c1.8-0.7,3.3-1.9,4.6-3.4c1.3-1.6,2.3-3.3,3-5.3c0.6-2,1-4,1-6.2c0-2.1-0.3-4.1-1-6.1C269.5,374.1,268.5,372.4,267.1,371z
	 M261.5,387.3c-0.7,1.6-1.7,2.9-3,3.8c-1.3,0.9-2.7,1.3-4.3,1.3c-1.1,0-2.2-0.2-3.3-0.7c-1.1-0.5-2-1.2-2.8-2.1
	c-0.8-0.9-1.3-1.9-1.5-3c-0.3-1.1-0.4-2.2-0.4-3.4c0-0.7,0-1.7,0.1-3.1l0.2-3.3c0.1-0.8,0.2-1.7,0.3-2.7c2.5-0.8,4.9-1.2,7-1.2
	c1.7,0,3.1,0.3,4.5,1c1.3,0.6,2.3,1.7,3.1,3.1c0.8,1.4,1.2,3.2,1.2,5.2C262.6,383.9,262.2,385.6,261.5,387.3z"/>
<polygon style="fill:#FFDD00;" points="196.1,282.1 283,206 369.9,282.1 283,358.1 "/>
<path style="fill:#164397;" d="M280.5,253.6c13.1-12.5,25.1-12.1,39-7L283,214.5l-25.5,22.4C266.5,237.7,275.4,242.8,280.5,253.6z"
	/>
<path style="fill:#164397;" d="M323.8,250.4l-9.5,4.9c-13.8,8-19-6.8-31.6,1l0.1,1.3c11.9-0.3,16.3,9.2,10.1,20.6
	c-2.8-9.7-7.2-15.7-15.6-19.8l-0.2-0.1c-9.5,0.1-22.3-0.7-21,17.1c0.5,9.1-16.5,16.3-15,2.4c2.5-13.7,9.1-24,30.1-22.1
	c1.5,0.1,2.8,0.4,3.8,0.8l0.1-0.3c-4.8-8.5-14.3-12.2-23.9-13.9l-45.2,39.7l24.5,21.5c0.8-0.5,1.7-1,2.7-1.4
	c5-2.2,12.6-3.6,20.5-1.3c3.1,0.9,5.8,1.4,8.3,1.5c2.3,0,4.5-0.3,6.7-1.1c1.4-0.5,2.8-1,4.3-1.4c-3.6-11.4-4-27.6,0.5-37.8
	c2.8-5.6,5.2-3.2,4.1,2c-1.2,9.1-0.7,23.8,5.8,35c2.6,0.3,5.4,0.9,8.3,2.1c2.9,1.1,5.6,1.8,8.2,1.9c2.6,0.1,5.3-0.5,8.3-1.8l0.1,0
	l0,0c1.3-0.6,2.6-1,4.1-1.4c1.4-0.3,2.9-0.6,4.4-0.8c6.7-0.7,14.4,0.3,20.1,3l22.6-19.9L323.8,250.4z"/>
<path style="fill:#164397;" d="M318.1,307.7c-1.1,0.1-2.2,0.3-3.3,0.6c-1,0.2-1.9,0.5-2.7,0.9l0,0l0,0c-4.3,1.9-8.3,2.7-12.2,2.6
	c-3.8-0.1-7.4-1-11.2-2.5c-3.4-1.3-6.4-1.7-9-1.6c-2.7,0.1-5.2,0.9-7.7,1.8c-3.3,1.2-6.5,1.8-10,1.7c-3.3-0.1-6.8-0.7-10.6-1.8
	c-5.2-1.5-10.1-0.8-13.6,0.5l45.1,39.7l46.7-41C326.1,307.6,321.9,307.3,318.1,307.7z"/>
<polygon style="fill:#164397;" points="293.3,62 303.6,50.1 288.1,53.1 283,38.2 277.9,53.1 262.4,50.1 272.7,62 262.4,73.9 
	277.9,70.9 283,85.8 288.1,70.9 303.6,73.9 "/>
</svg>
