<?xml version="1.0" encoding="utf-8"?>
<!-- Generator: Adobe Illustrator 19.1.0, SVG Export Plug-In . SVG Version: 6.00 Build 0)  -->
<svg version="1.1" id="Camada_1" xmlns="http://www.w3.org/2000/svg" xmlns:xlink="http://www.w3.org/1999/xlink" x="0px" y="0px"
	 viewBox="0 0 369.3 354.4" style="enable-background:new 0 0 369.3 354.4;" xml:space="preserve">
<g>
	<path style="fill-rule:evenodd;clip-rule:evenodd;fill:#FFF212;" d="M63.4,7.9C142,30.8,222.9,31.3,306.2,7.3l24,38.2l-6.9,5.1
		l-16.4,46.6l8.1,27.3l1.1,156.7l-54.5,21.6l0.2-237.4l-52.8,9.4l0.5,250.7L184.7,344l-26.2-18.6l0-253.5l-54-2.1l-1.7,228.4
		l-51.5-17.8l-2.1-154.6l10.2-30.8L48.3,58.8l-8-11.6L63.4,7.9z"/>
	<path style="fill-rule:evenodd;clip-rule:evenodd;fill:#ED3237;" d="M96.8,31.9c-2.4,2.3-3.2,1.8-5.6-0.9c-3.5-3.8-7.7-3.5-7.5,0.5
		c0.1,1.2,0.1,2.1,1.8,3.1c2.3,1.3,4.1,3.2,4.4,3.9c2.6,4.8,0.8,9.1-3.3,10.7c-3,1.2-6.6,0.4-10.2-0.5c-1.6-0.4-3.2-1-4.8-1.8
		c-1.6-0.8-2.7-1.5-3.3-2.2c-0.4-0.5-0.6-1.5-0.5-2.9c0.6-4.4,4.7-0.9,6.6,0.7c0.8,0.7,1.7,1.2,2.8,1.4c0.9,0.2,1.8,0.2,2.5,0
		c0.7-0.2,1.2-0.5,1.5-1.1c1.9-4.8-4.7-4.2-6.3-7.8c-1.2-2.8-0.6-9.2,4.4-11.4C86.4,20.5,98.9,29.9,96.8,31.9z"/>
	<path style="fill-rule:evenodd;clip-rule:evenodd;fill:#ED3237;" d="M154.8,34.9c4.4,3,6,6.4,5.3,7.8c-0.7,1.6-2.9-1.3-8-3.5
		c-2.1-0.9-8-0.8-10.2,0.3c-4.3,1.9-4.6,9.1-3.6,11.9c1.3,3.6,8,4.4,11.4,4c0.8-0.1,9.7-2.9,7.4,0.3c-5.3,7.4-23,9.8-29.2-3.3
		c-1.2-2.6-1.1-5.3-0.4-7.9c0.8-3,2.5-5.6,5.2-7.7c2.3-1.8,5.1-3.1,8.2-3.7C145.9,32,151.3,32.6,154.8,34.9z"/>
	<path style="fill-rule:evenodd;clip-rule:evenodd;fill:#ED3237;" d="M210.3,40.8c-0.2,1.1-0.2,2.1-0.2,2.9c0,0.5,0.2,0.9,0.5,1
		c2,1,12.9-3.1,13.2,1.6c0.3,5.5-8.3,2.7-12,3.1c-0.6,0.1-1,0.2-1.3,0.5c-2.7,3.1,6.2,15.3-3.4,13.5c-1.9-0.3-5.8,1.7-5.8-1.7
		c-0.2-7.6-1.8-16.2-2-24.8c0-0.6,0.3-1.2,0.9-1.7c0.6-0.5,1.3-0.8,2.2-0.9c0.6-0.1,1.4-0.1,2.4-0.1c2.3-0.1,5-0.3,8.1-0.6
		c1.8-0.2,11.3-1.7,13,0.2c1.3,1.4,1,1.9,1.1,3.8C227.2,41.8,211.1,36.8,210.3,40.8z"/>
	
		<ellipse transform="matrix(-0.2761 -0.9611 0.9611 -0.2761 347.1327 341.9653)" style="fill-rule:evenodd;clip-rule:evenodd;fill:#ED3237;" cx="302.3" cy="40.3" rx="4.3" ry="6.7"/>
	<path style="fill-rule:evenodd;clip-rule:evenodd;fill:#ED3237;" d="M280.9,24.9c5,1.8,7.4,4.6,7.2,6.1c-0.3,1.7-3.1-0.5-8.6-1.4
		c-2.2-0.4-7.9,1.3-9.8,2.9c-3.7,3-2.1,9.9-0.4,12.4c2.2,3.2,8.9,2.2,12,0.9c0.8-0.3,8.6-5.3,7.2-1.6c-3.3,8.5-19.7,15.4-29,4.3
		c-1.8-2.2-2.4-4.8-2.4-7.5c0-3.1,1-6.1,3.1-8.8c1.8-2.4,4.1-4.3,7-5.7C271.5,24.4,276.9,23.5,280.9,24.9z"/>
	<path style="fill-rule:evenodd;clip-rule:evenodd;fill:#ED3237;" d="M44,135c-17.2,8.4-36.7,32.7-39,66.7c-1.9,29,7.8,59.6,39,73.8
		V135z"/>
	
		<ellipse transform="matrix(0.1198 -0.9928 0.9928 0.1198 42.3159 151.494)" style="fill-rule:evenodd;clip-rule:evenodd;fill:#ED3237;" cx="106.6" cy="51.9" rx="4.3" ry="6.7"/>
	<ellipse style="fill-rule:evenodd;clip-rule:evenodd;fill:#ED3237;" cx="174.5" cy="57.1" rx="6.8" ry="4.3"/>
	
		<ellipse transform="matrix(-0.1282 -0.9917 0.9917 -0.1282 217.1992 299.1874)" style="fill-rule:evenodd;clip-rule:evenodd;fill:#ED3237;" cx="240.1" cy="54.1" rx="4.3" ry="6.8"/>
	<path style="fill-rule:evenodd;clip-rule:evenodd;fill:#ED3237;" d="M320,133.7c17.2,8.4,39.1,34,41.4,68
		c1.9,29-8.7,57.3-39.9,71.4L320,133.7z"/>
	<polygon style="fill-rule:evenodd;clip-rule:evenodd;fill:#ED3237;" points="260.8,66.9 212.6,71.8 212.6,317.2 265.2,298.3 	"/>
	<polygon style="fill-rule:evenodd;clip-rule:evenodd;fill:#ED3237;" points="105.4,66.9 153.5,71.8 153.5,317.2 101,298.3 	"/>
	<path style="fill-rule:evenodd;clip-rule:evenodd;fill:#00A859;" d="M54.7,59.4c8.6,16.5,10.5,37.3,9,48.8
		c-1,7.1-3.6,12.7-7.1,17.6v149.5c12.4,6,26.4,10.8,40.7,15.5V70C83.2,67.2,69,63.6,54.7,59.4L54.7,59.4z M321.9,140v129.7
		c15-9.5,26.2-22.2,30.3-41.5C363.1,172.2,340.6,155.9,321.9,140L321.9,140z M321.9,284.6L321.9,284.6L321.9,284.6
		c-15.9,8.3-34.4,14.4-53,20.9v0h0c-31.9,11.1-64.1,23.3-84.1,48.9l-0.3-0.5v0.5c-9.1-11.7-20.8-20.6-33.9-27.9h0v0
		c-31.8-17.7-68.1-24.4-100.6-40.6l-6.1-3.2c-20.1-11.2-35.5-26.3-40.7-50.7c-14.5-74.5,21.4-82.2,40.7-104.4l4.3-5.7
		c3.1-4.8,5.4-10.4,6.4-17.4c2.1-16.5-10-41.4-23.2-56.3L60.1,0c39.8,13.5,81.4,18.4,124.5,20.2c43.5-0.8,84.7-6.8,124.5-20.2
		l28.5,48.2c-13.1,14.9-25.3,39.8-23.2,56.3c6.6,46,69.9,32.7,51.4,127.5C360.5,257.9,343.7,273.2,321.9,284.6L321.9,284.6z
		 M309.3,276.7V127.7c-4.3-5.4-7.6-11.6-8.7-19.6c-1.5-11.4,5.6-33.4,14.3-49.4c-15.2,4.8-30.6,8.8-46,11.9v221.2
		C283.1,287.2,297,282.5,309.3,276.7L309.3,276.7z M256.3,296V73c-13.3,2.3-26.6,3.9-40.1,4.9v234.5
		C228.6,305.7,242.4,300.7,256.3,296L256.3,296z M203.6,320.1V78.6c-13.4,0.6-26.8,0.5-40.4-0.2v240c8.2,5.4,15.4,11.7,21.4,19.4
		l0,0l0,0C190.1,330.9,196.5,325.1,203.6,320.1L203.6,320.1z M150.7,311.1V77.6c-13.5-1.1-27.1-2.8-40.7-5.2v222.5
		C124,299.6,138,304.6,150.7,311.1L150.7,311.1z M44,138.7c-18.4,15.9-41.2,31-30,88.3c4,18.9,15.1,31.6,30,41.2V138.7L44,138.7z
		 M323.4,45.1c-94.3,29.2-187.1,28.4-278.7,0.4l20.4-33.2c36.3,12.3,77.7,17.3,117,19c39.6-0.8,86.1-7.2,122.4-19.4L323.4,45.1z"/>
</g>
</svg>
