<?xml version="1.0" encoding="utf-8"?>
<!-- Generator: Adobe Illustrator 19.1.0, SVG Export Plug-In . SVG Version: 6.00 Build 0)  -->
<svg version="1.1" id="Camada_1" xmlns="http://www.w3.org/2000/svg" xmlns:xlink="http://www.w3.org/1999/xlink" x="0px" y="0px"
	 viewBox="-120 219.6 369.3 354.4" enable-background="new -120 219.6 369.3 354.4" xml:space="preserve">
<g>
	<path fill="#ED3237" d="M-76,354.6c-17.2,8.4-36.7,32.7-39,66.7c-1.9,29,7.8,59.6,39,73.8V354.6z"/>
	<path fill="#ED3237" d="M200,353.3c17.2,8.4,39.1,34,41.4,68c1.9,29-8.7,57.3-39.9,71.4L200,353.3z"/>
	<polygon fill="#ED3237" points="140.8,286.5 92.6,291.4 92.6,536.8 145.2,517.9 	"/>
	<polygon fill="#ED3237" points="-14.6,286.5 33.5,291.4 33.5,536.8 -19,517.9 	"/>
	<path fill="#FFF212" d="M-56.6,227.5c78.6,22.9,159.5,23.4,242.8-0.6l24,38.2l-6.9,5.1l-16.4,46.6l8.1,27.3l1.1,156.7l-54.5,21.6
		l0.2-237.4L89,294.4l0.5,250.7l-24.8,18.5L38.5,545V291.5l-54-2.1l-1.7,228.4L-68.7,500l-2.1-154.6l10.2-30.8l-11.1-36.2l-8-11.6
		L-56.6,227.5z"/>
	<path fill="#00A859" d="M-65.3,279c8.6,16.5,10.5,37.3,9,48.8c-1,7.1-3.6,12.7-7.1,17.6v149.5c12.4,6,26.4,10.8,40.7,15.5V289.6
		C-36.8,286.8-51,283.2-65.3,279L-65.3,279z M201.9,359.6v129.7c15-9.5,26.2-22.2,30.3-41.5C243.1,391.8,220.6,375.5,201.9,359.6
		L201.9,359.6z M201.9,504.2L201.9,504.2L201.9,504.2c-15.9,8.3-34.4,14.4-53,20.9l0,0l0,0C117,536.2,84.8,548.4,64.8,574l-0.3-0.5
		v0.5c-9.1-11.7-20.8-20.6-33.9-27.9l0,0l0,0C-1.2,528.4-37.5,521.7-70,505.5l-6.1-3.2c-20.1-11.2-35.5-26.3-40.7-50.7
		c-14.5-74.5,21.4-82.2,40.7-104.4l4.3-5.7c3.1-4.8,5.4-10.4,6.4-17.4c2.1-16.5-10-41.4-23.2-56.3l28.7-48.2
		c39.8,13.5,81.4,18.4,124.5,20.2c43.5-0.8,84.7-6.8,124.5-20.2l28.5,48.2c-13.1,14.9-25.3,39.8-23.2,56.3
		c6.6,46,69.9,32.7,51.4,127.5C240.5,477.5,223.7,492.8,201.9,504.2L201.9,504.2z M189.3,496.3v-149c-4.3-5.4-7.6-11.6-8.7-19.6
		c-1.5-11.4,5.6-33.4,14.3-49.4c-15.2,4.8-30.6,8.8-46,11.9v221.2C163.1,506.8,177,502.1,189.3,496.3L189.3,496.3z M136.3,515.6
		v-223c-13.3,2.3-26.6,3.9-40.1,4.9V532C108.6,525.3,122.4,520.3,136.3,515.6L136.3,515.6z M83.6,539.7V298.2
		c-13.4,0.6-26.8,0.5-40.4-0.2v240c8.2,5.4,15.4,11.7,21.4,19.4l0,0l0,0C70.1,550.5,76.5,544.7,83.6,539.7L83.6,539.7z M30.7,530.7
		V297.2c-13.5-1.1-27.1-2.8-40.7-5.2v222.5C4,519.2,18,524.2,30.7,530.7L30.7,530.7z M-76,358.3c-18.4,15.9-41.2,31-30,88.3
		c4,18.9,15.1,31.6,30,41.2V358.3L-76,358.3z M203.4,264.7c-94.3,29.2-187.1,28.4-278.7,0.4l20.4-33.2c36.3,12.3,77.7,17.3,117,19
		c39.6-0.8,86.1-7.2,122.4-19.4L203.4,264.7z"/>
	<path fill="#FFF212" d="M-75.3,265.1c26.3,10.1,49.8,15.7,68.3,19c6.9,1.2,34.9,6,72.5,5.5c11.5-0.1,34.2-0.9,62.5-5.5
		c20.4-3.3,46.3-9,75.4-19.4c-6.3-11.1-12.6-22.1-18.9-33.2c-22.4,7.5-50,14.4-82,17.6c-14.4,1.4-27.9,1.9-40.4,1.8
		c-11.8,0.3-24.7,0-38.6-1.3c-5.6-0.5-12.2-1.3-19.8-2.5c-13.5-2.1-33.7-6.3-58.6-15.2"/>
	
		<ellipse transform="matrix(-0.9611 0.2761 -0.2761 -0.9611 429.4693 459.3308)" fill="#ED3237" cx="182.4" cy="259.9" rx="6.7" ry="4.3"/>
	
		<ellipse transform="matrix(-0.9928 -0.1198 0.1198 -0.9928 -59.2009 539.3994)" fill="#ED3237" cx="-13.4" cy="271.5" rx="6.7" ry="4.3"/>
	<path fill="#ED3237" d="M160.9,244.5c5,1.8,7.4,4.6,7.2,6.1c-0.3,1.7-3.1-0.5-8.6-1.4c-2.2-0.4-7.9,1.3-9.8,2.9
		c-3.7,3-2.1,9.9-0.4,12.4c2.2,3.2,8.9,2.2,12,0.9c0.8-0.3,8.6-5.3,7.2-1.6c-3.3,8.5-19.7,15.4-29,4.3c-1.8-2.2-2.4-4.8-2.4-7.5
		c0-3.1,1-6.1,3.1-8.8c1.8-2.4,4.1-4.3,7-5.7C151.5,244,156.9,243.1,160.9,244.5z"/>
	<path fill="#ED3237" d="M90.3,260.4c-0.2,1.1-0.2,2.1-0.2,2.9c0,0.5,0.2,0.9,0.5,1c2,1,12.9-3.1,13.2,1.6c0.3,5.5-8.3,2.7-12,3.1
		c-0.6,0.1-1,0.2-1.3,0.5c-2.7,3.1,6.2,15.3-3.4,13.5c-1.9-0.3-5.8,1.7-5.8-1.7c-0.2-7.6-1.8-16.2-2-24.8c0-0.6,0.3-1.2,0.9-1.7
		c0.6-0.5,1.3-0.8,2.2-0.9c0.6-0.1,1.4-0.1,2.4-0.1c2.3-0.1,5-0.3,8.1-0.6c1.8-0.2,11.3-1.7,13,0.2c1.3,1.4,1,1.9,1.1,3.8
		C107.2,261.4,91.1,256.4,90.3,260.4z"/>
	<ellipse fill="#ED3237" cx="54.5" cy="276.7" rx="6.8" ry="4.3"/>
	<path fill="#ED3237" d="M34.8,254.5c4.4,3,6,6.4,5.3,7.8c-0.7,1.6-2.9-1.3-8-3.5c-2.1-0.9-8-0.8-10.2,0.3
		c-4.3,1.9-4.6,9.1-3.6,11.9c1.3,3.6,8,4.4,11.4,4c0.8-0.1,9.7-2.9,7.4,0.3c-5.3,7.4-23,9.8-29.2-3.3c-1.2-2.6-1.1-5.3-0.4-7.9
		c0.8-3,2.5-5.6,5.2-7.7c2.3-1.8,5.1-3.1,8.2-3.7C25.9,251.6,31.3,252.2,34.8,254.5z"/>
	
		<ellipse transform="matrix(-0.9917 0.1282 -0.1282 -0.9917 274.2436 529.8365)" fill="#ED3237" cx="120.1" cy="273.7" rx="6.8" ry="4.3"/>
	<path fill="#ED3237" d="M-23.2,251.5c-2.4,2.3-3.2,1.8-5.6-0.9c-3.5-3.8-7.7-3.5-7.5,0.5c0.1,1.2,0.1,2.1,1.8,3.1
		c2.3,1.3,4.1,3.2,4.4,3.9c2.6,4.8,0.8,9.1-3.3,10.7c-3,1.2-6.6,0.4-10.2-0.5c-1.6-0.4-3.2-1-4.8-1.8c-1.6-0.8-2.7-1.5-3.3-2.2
		c-0.4-0.5-0.6-1.5-0.5-2.9c0.6-4.4,4.7-0.9,6.6,0.7c0.8,0.7,1.7,1.2,2.8,1.4c0.9,0.2,1.8,0.2,2.5,0c0.7-0.2,1.2-0.5,1.5-1.1
		c1.9-4.8-4.7-4.2-6.3-7.8c-1.2-2.8-0.6-9.2,4.4-11.4C-33.6,240.1-21.1,249.5-23.2,251.5z"/>
</g>
</svg>
