<?xml version="1.0" encoding="utf-8"?>
<!-- Generator: Adobe Illustrator 19.1.0, SVG Export Plug-In . SVG Version: 6.00 Build 0)  -->
<svg version="1.1" id="Layer_1" xmlns="http://www.w3.org/2000/svg" xmlns:xlink="http://www.w3.org/1999/xlink" x="0px" y="0px"
	 viewBox="-417.1 620.6 187.1 172.7" enable-background="new -417.1 620.6 187.1 172.7" xml:space="preserve">
<g>
	<path d="M-323.6,793.3c-18-17.3-31.4-10.5-49.6-28l-5,4.2c-15.2-10.6-25.1-24-31.3-39.5c-11.9-2.1-9-15.2,3.1-14.2l20.6-39.4
		l-17.6-9.3l23.7-42.9c23.2,5,25.9-13,56.1,3.5c30.3-16.5,33,1.6,56.2-3.5l23.7,42.9l-17.6,9.3l20.6,39.4c12.1-1,15,12.1,3.1,14.2
		c-6.2,15.5-16.1,28.9-31.3,39.5l-5-4.2C-292.1,782.8-305.6,776-323.6,793.3L-323.6,793.3z"/>
	<path fill="#FFFFFF" d="M-407.9,720.3h5.7L-378,674l-17.5-9.2l18.7-33.9c8.2,1.6,17.2-1.7,25-3.7c5.1-0.9,9-0.5,13.9,0.9
		c4.9,1.4,9.6,4,14,6.4c7.3-3.7,14.8-7.8,23.2-7.8c8,0.8,15.2,4.1,23.3,4.6c2,0,4.7,0.1,6.6-0.3l18.7,33.9l-17.5,9.2l24.2,46.3h5.4
		c5.1,0,4.6,5.8,0,5.8h-2.6c-3.5,8-7.5,16.1-13.2,22.9c-4.1,4.9-8.4,9-13.2,12.9l-5.5-4.8c-5.5,5.4-10.9,10.4-18.1,13.4
		c-4.1,1.9-8.6,3.1-12.9,4.7c-6.6,2.1-13.1,5.7-18.4,10.1c-5.3-4.4-11.9-8-18.4-10.1c-6.2-2.4-12.6-4.1-18.3-7.5
		c-4.8-2.8-8.6-6.7-12.6-10.6l-5.5,4.8c-8.9-7.3-15.6-14.9-21.2-25c-1.8-3.5-3.5-7.4-5-11h-3.1C-412.1,726-412.3,720.3-407.9,720.3
		L-407.9,720.3z"/>
	<polygon points="-330,694.6 -330,701.6 -325.5,701.6 -325.5,694.6 	"/>
	<polygon points="-331.4,669.1 -331.4,676.1 -320.8,676.1 -320.8,669.1 	"/>
	<polygon points="-330.3,683.4 -330.3,690.3 -319.5,690.3 -319.5,683.4 	"/>
	<polygon points="-332.8,658.1 -332.8,665 -314.5,665 -314.5,658.1 	"/>
	<polygon points="-338.5,741.3 -338.5,741.3 -338.5,748.2 -309.5,748.2 -309.5,741.3 	"/>
	<polygon points="-332.5,726.1 -332.5,733 -315.6,733 -315.6,726.1 	"/>
	<polygon points="-329.6,704.3 -329.6,711.3 -318.8,711.3 -318.8,704.3 	"/>
	<path d="M-396.1,720.3h2.6c1.8,0,3.2,1.3,3.2,2.8c0,1.7-1.4,3-3.2,3l-5.6-0.1c4.7,11.1,11.4,20.8,20.5,28.9l5.6-4.8l4.3,4
		c2.1,2.1,8.2,9.1,12.7,9.1c37.2,0.8,35.3-107.9,14.3-129.5c-1.8-1.9-6.4-1.8-9.2-1.2c-7.6,2.1-15,4.4-22.9,4.2l-14.4,26l17.3,9.1
		L-396.1,720.3L-396.1,720.3z"/>
	<path fill="#CD3529" d="M-251.5,720.3h-2.7c-1.8,0-3.2,1.3-3.2,2.8c0,1.7,1.4,3,3.2,3l5.7-0.1c-4.6,11.1-11.3,20.8-20.5,28.9
		l-5.6-4.8l-4.4,4c-2.1,2.1-8.2,9.1-12.6,9.1c-37.3,0.8-35.3-107.9-14.3-129.5c1.8-1.9,6.4-1.8,9.2-1.2c7.6,2.1,15,4.4,22.9,4.2
		l14.4,26l-17.4,9.1L-251.5,720.3L-251.5,720.3z"/>
	<polygon fill="#FFFFFF" points="-321.8,670.1 -338.3,670.1 -338.3,675 -321.8,675 	"/>
	<path fill="#FFFFFF" d="M-352.9,676c0.1-0.3,0.7-0.9,1-1c0.1,0,4.6,0,4.6,0v-4.9h-4.6c-2.9,0-5.9,3-5.9,5.9v6.5h4.9
		C-352.9,682.5-352.9,676.1-352.9,676L-352.9,676z"/>
	<polygon fill="#FFFFFF" points="-299.9,684.4 -304.1,684.4 -304.1,689.3 -299.9,689.3 	"/>
	<polygon fill="#FFFFFF" points="-313.9,684.4 -338.1,684.4 -338.1,689.3 -313.9,689.3 	"/>
	<path fill="#FFFFFF" d="M-359.6,689.3h12.5v-4.9h-12.5c-5.6,0-9.7,5.1-10.1,12.4c0,0.3,0,0.7,0,1c0,6.8,4.1,11.9,9.5,12.5v-4.9
		c-3.2-0.3-4.6-4.1-4.6-7.6c0-0.2,0-0.5,0-0.7C-364.6,693.2-362.8,689.3-359.6,689.3L-359.6,689.3z"/>
	<polygon fill="#FFFFFF" points="-350.7,710.3 -347.4,710.3 -347.4,705.3 -350.7,705.3 	"/>
	<polygon fill="#FFFFFF" points="-313.9,705.3 -337.7,705.3 -337.7,710.3 -313.9,710.3 	"/>
	<path fill="#FFFFFF" d="M-301.8,727.1h-2.3v4.9h2.3c5.8,0,9-7.3,9-14.1c0-2.2-0.3-5.5-1.9-8.2c-1.6-2.8-4.1-4.4-7.1-4.4h-2.3v4.9
		h2.3c0.8,0,1.9,0.2,2.8,1.9c0.8,1.4,1.2,3.5,1.2,5.8C-297.7,722.7-299.7,727.1-301.8,727.1L-301.8,727.1z"/>
	<polygon fill="#FFFFFF" points="-338.1,732 -313.9,732 -313.9,727.1 -338.1,727.1 	"/>
	<polygon fill="#FFFFFF" points="-350.6,732 -347.8,732 -347.8,727.1 -350.6,727.1 	"/>
	<polygon fill="#FFFFFF" points="-363.3,732 -360.3,732 -360.3,727.1 -363.3,727.1 	"/>
	<path fill="#FFFFFF" d="M-340.4,664.9c0-0.4,0.1-0.9,0.8-0.9h35c0.7,0,1.4,0,1.4,2.1h4.9c0-4.4-2.4-7.1-6.3-7.1h-35
		c-3.3,0-5.7,2.5-5.7,5.8v27.7h4.9V664.9L-340.4,664.9z"/>
	<path fill="#FFFFFF" d="M-302.9,740c0,0.1,0,0.5,0,0.6c0,0.5-0.2,1.1-0.5,1.5c-0.2,0.2-0.3,0.2-0.4,0.2h-35.8
		c-0.5,0-0.8-0.3-0.8-0.9v-39h-4.9v39c0,3.3,2.5,5.8,5.7,5.8h35.8c1.6,0,3.1-0.7,4.1-2s1.6-3,1.6-4.6c0-0.4,0-0.2-0.1-0.6
		L-302.9,740L-302.9,740z"/>
	<path fill="#FFFFFF" d="M-286.7,683.3V674c0-3.2-2.4-5.8-5.4-5.8h-14.2c-3,0-5.5,2.6-5.5,5.8v58.3c0,3.2,2.5,5.8,5.5,5.8h14.2
		c3.2,0,5.4-2.3,5.4-5.8v-6.1h-4.9v6.1c0,0.5-0.1,0.8-0.1,0.8s-0.1,0-0.3,0h-14.2c-0.2,0-0.5-0.3-0.5-0.9v-58.3
		c0-0.5,0.3-0.9,0.5-0.9h14.2c0.2,0,0.5,0.4,0.5,0.9v9.3L-286.7,683.3L-286.7,683.3z"/>
	<polygon fill="#FFFFFF" points="-326.6,700.6 -326.6,695.7 -352.9,695.7 -352.9,691.4 -357.9,691.4 -357.9,737.6 -352.9,737.6 
		-352.9,700.6 	"/>
</g>
</svg>
