<?xml version="1.0" encoding="utf-8"?>
<!-- Generator: Adobe Illustrator 19.1.0, SVG Export Plug-In . SVG Version: 6.00 Build 0)  -->
<svg version="1.1" id="Layer_1" xmlns="http://www.w3.org/2000/svg" xmlns:xlink="http://www.w3.org/1999/xlink" x="0px" y="0px"
	 viewBox="-417.8 607 160.5 187.1" enable-background="new -417.8 607 160.5 187.1" xml:space="preserve">
<g>
	<path d="M-346,616c-18,19.5-38.8,31.1-61.8,34.3l-9.1,1.3l-0.6,9.2c-1.1,15,0.9,30.9,5.5,46l0.1,0.3c11.3,36.5,36.5,67.1,69.2,84.2
		l5.4,2.8l5.3-2.8c32.7-17,58-47.7,69.2-84.2l0.1-0.3v-0.1c4.4-14.9,6.2-30.8,5.1-45.9l-0.6-9.2l-9.1-1.3
		c-23-3.3-43.2-14.5-61.9-34.4l-8.4-8.9L-346,616L-346,616z"/>
	<path fill="#FFFFFF" d="M-342.8,619c-18.7,20.3-40.4,32.3-64.4,35.7l-5.6,0.8l-0.4,5.7c-1,14.4,0.8,29.8,5.3,44.4l0.1,0.3
		c10.9,35.4,35.4,65.1,67,81.6l3.3,1.7l3.3-1.7c31.7-16.5,56.1-46.2,67.1-81.6l0.1-0.3l0,0c4.3-14.4,6-29.8,4.9-44.3l-0.4-5.7
		l-5.6-0.8c-24-3.4-45.1-15.1-64.5-35.8l-5.2-5.5L-342.8,619L-342.8,619z"/>
	<path d="M-274,703.5h-127.2l0.1,0.2c10.4,33.6,33.5,61.8,63.6,77.4h0.1h0.1c30-15.6,53.2-43.9,63.6-77.4l0.1-0.2H-274L-274,703.5z"
		/>
	<path fill="#CD3529" d="M-273.8,703.7c4.2-14,5.7-28.6,4.7-42.1c-25.4-3.6-48.1-16.1-68.6-37.9c-20.1,21.8-43.2,34.3-68.6,37.9
		c-0.9,13.5,0.8,28,5.1,42.1H-273.8L-273.8,703.7z"/>
	<path fill="#FFFFFF" d="M-387.3,666.4l14.6-7.6c-0.2,4.5,0.4,10,2.5,14.4l14.2,30.7v17.2l-21.2-44.2
		C-379.3,672.8-383.7,669.8-387.3,666.4L-387.3,666.4z"/>
	<path fill="#FFFFFF" d="M-286.5,667.7l-14.6-7.6c0.2,4.5-0.6,10-2.5,14.4l-22.7,51.4l8.9-1.3l20.8-46.2
		C-294.6,674.1-290.1,671.1-286.5,667.7L-286.5,667.7z"/>
	<path fill="#FFFFFF" d="M-357.3,753.4h13.1v-45.1h13.6c2.8,0,4.5,3.6,6.6,5.5l0.2-18.6c-2.3,1.7-3.8,4.9-6.6,4.9H-344l-0.2-18.4
		l-8.7,2.7V746C-353,748.8-355.8,750.9-357.3,753.4L-357.3,753.4z"/>
	<path fill="#FFFFFF" d="M-352.8,670.5V658c0-2.8-2.7-4.9-4.4-7.2h40.6v12.5c-3.2-2.1-5.9-5.9-9.5-5.9h-18v11.4L-352.8,670.5
		L-352.8,670.5z"/>
	<path fill="#FFFFFF" d="M-325.1,753.5h13.5V741c-0.6,0.6-0.9,5.7-10.8,5.7L-325.1,753.5L-325.1,753.5z"/>
	<polygon fill="#FFFFFF" points="-341.2,741.8 -341.2,754.1 -334.8,766.8 -322.3,738.6 -330,738.8 -335.7,753.2 	"/>
	<path fill="#FFFFFF" d="M-356,724.5c-10.4-4.6-20.1-12.1-26.9-20.8c2.1-4.4,6.3-8.7,9.9-10.8l-4.2-7.6c-5.1,3.8-10.6,8-13.1,13.6
		c-0.9,2.1-2.7,3.6-4.4,4.7c1.7,0.9,2.8,0.8,4.5,3.2c8.3,11.9,21,21.2,34.1,26C-356,729.7-356,727.8-356,724.5L-356,724.5z"/>
	<path fill="#FFFFFF" d="M-365.3,677.5l3.8,7.4c17.4-7.8,34.5-8,50.2-2.1l3-6.6C-325.3,668.8-346.2,669.4-365.3,677.5L-365.3,677.5z
		"/>
	<path fill="#FFFFFF" d="M-295.6,682.7l-2.8,6.6l5.3,2.7c1.5,0.6,2.1,2.7,3,4l4.7-10.4c-1.7,0-3.6,0.8-5.1,0L-295.6,682.7
		L-295.6,682.7z"/>
	<path fill="#FFFFFF" d="M-341.4,727.4v7.2c19.1,4.2,37.1-1.5,53.8-11.4l-4.9-7.4C-304.3,725.9-324.4,730.8-341.4,727.4
		L-341.4,727.4z"/>
</g>
</svg>
