<svg xmlns="http://www.w3.org/2000/svg" viewBox="-417.8 603 156.9 191.1"><path fill="#FFF" d="M-339.6 792.1c-85.5-52-76.1-155.3-76.1-155.3 58 .7 76.1-31.8 76.1-31.8s18.1 32.5 76.1 31.8c0 0 9.4 103.3-76.1 155.3z"/><path fill="#FFF" d="M-339.6 792.1c-85.5-52-76.1-155.3-76.1-155.3 58 .7 76.1-31.8 76.1-31.8s18.1 32.5 76.1 31.8c0 0 9.4 103.3-76.1 155.3z"/><path stroke="#000" stroke-miterlimit="2.61" d="M-271.9 643.6c-51.5.6-67.7-28.2-67.7-28.3-.1.1-16.2 28.9-67.7 28.3 0 0-1.3 14 1.7 33.8h132.1c2.9-19.8 1.6-33.8 1.6-33.8zm-78.1 38.1v93.1c3.3 2.4 6.7 4.8 10.4 7 3.7-2.3 7.3-4.7 10.6-7.2v-92.9h-21zm-27.5 0v65.7c5.8 7.8 12.8 15.3 21 22.2v-88c-6.6.1-13.6.1-21 .1zm-27.4 0c2.9 16.7 8.9 36.9 20.9 56.1v-56.1h-20.9zm110 0v55.8c11.8-19.2 17.7-39.2 20.6-55.8h-20.6zm-27.5 0v87.8c8.3-7 15.2-14.5 21-22.3v-65.4c-6.2-.1-13.1-.1-21-.1z"/><path fill="#FFF" d="M-367.8 664.3c-1 2.5-2.9 4.2-5 4.2-3.3 0-5.9-3.9-5.9-8.8s2.6-8.8 5.9-8.8c2.1 0 4 1.7 5 4.2h6.2c-1.5-5.5-6-9.1-11.8-9.1-7.1 0-11.2 6.2-11.2 14.1 0 7.9 4.5 13.2 11.6 13.2 5.5 0 9.7-3.7 11.3-9.1-1.5.1-3.5.1-6.1.1zm33.5 8.2h5.8l-10.1-26.4h-5.3l-10.1 26.4h5.8l1.7-5.1h10.6l1.6 5.1zm-10.7-9.7l3.7-10.7 3.7 10.7h-7.4zm24.8 9.8v-26.5h8l4.8 18.1 4.8-18.1h8v26.5h-5v-20.8l-5.3 20.8h-5.1l-5.2-20.8-.1 20.8"/><path fill="none" stroke="#FFF" stroke-width="10" stroke-linejoin="round" stroke-miterlimit="2.61" d="M-339.6 786.5c-80.4-48.9-71.5-146-71.5-146 54.5.7 71.5-29.9 71.5-29.9s17 30.6 71.5 29.9c0 0 8.9 97.1-71.5 146m0 0"/><path fill="none" stroke="#000" stroke-width="4" stroke-linejoin="round" stroke-miterlimit="2.61" d="M-339.6 792.1c-83-50.5-76-156.8-76.1-155.3 58 .7 76.1-31.8 76.1-31.8s18.1 32.5 76.1 31.8c.1 1.5 11.9 101.7-76.1 155.3z"/></svg>