<svg xmlns="http://www.w3.org/2000/svg" viewBox="-417.5 618 175.7 175.7"><path fill="#3F7249" d="M-329.6 618c24.2 0 46.2 9.9 62.1 25.8 15.9 15.9 25.8 37.9 25.8 62.1 0 24.2-9.9 46.1-25.8 62.1s-37.9 25.8-62.1 25.8c-24.2 0-46.2-9.9-62.1-25.8-15.9-15.9-25.8-37.9-25.8-62.1 0-24.2 9.9-46.2 25.8-62.1 15.9-15.9 37.9-25.8 62.1-25.8zm0 1.4c-23.8 0-45.4 9.7-61.1 25.4-15.7 15.7-25.4 37.3-25.4 61.1 0 23.8 9.7 45.4 25.4 61 15.7 15.7 37.3 25.4 61.1 25.4 23.8 0 45.4-9.7 61.1-25.4 15.7-15.7 25.4-37.3 25.4-61 0-23.8-9.7-45.4-25.4-61.1-15.7-15.7-37.3-25.4-61.1-25.4z"/><path fill="#FFF" d="M-329.6 619.4c47.6 0 86.4 38.8 86.4 86.4 0 47.5-38.8 86.4-86.4 86.4s-86.4-38.8-86.4-86.4c0-47.5 38.8-86.4 86.4-86.4z"/><path fill="#3F7249" d="M-329.6 622c46.2 0 83.9 37.7 83.9 83.9 0 46.1-37.7 83.8-83.9 83.8s-83.9-37.7-83.9-83.8c0-46.2 37.7-83.9 83.9-83.9z"/><path fill="#FFF" d="M-400.2 726.1v-2.6c1.5-.1 2.7.2 3.6.9.9.6 1.6 1.6 2 2.9.5 1.6.4 3.2-.4 4.5-.8 1.4-2.1 2.4-4 3-2 .7-3.8.7-5.2 0-1.5-.7-2.5-1.9-3-3.6-.5-1.5-.4-2.9.1-4.1.3-.7 1-1.4 1.9-2l1.4 2.3c-.6.3-1 .8-1.2 1.4-.2.6-.2 1.2 0 1.8.3.9.8 1.5 1.7 1.9.8.3 2 .3 3.4-.2 1.5-.5 2.5-1.2 3-1.9.5-.8.6-1.6.3-2.5-.2-.7-.6-1.2-1.2-1.5-.6-.2-1.4-.4-2.4-.3zm-3.2-6.2c-1.3.2-2.4.1-3.4-.2-.7-.2-1.3-.5-1.9-1-.6-.4-1-.9-1.4-1.5-.4-.8-.7-1.6-.8-2.7-.2-1.9.2-3.5 1.2-4.7 1-1.2 2.6-2 4.7-2.3 2.1-.2 3.7.1 5 1.1s2.1 2.4 2.3 4.2c.2 1.9-.2 3.5-1.2 4.7-.9 1.4-2.4 2.2-4.5 2.4zm-.4-2.6c1.4-.2 2.5-.6 3.2-1.4.7-.8.9-1.6.8-2.7-.1-1-.6-1.8-1.4-2.4-.8-.6-2-.8-3.5-.6-1.4.2-2.5.6-3.1 1.4-.7.7-.9 1.6-.8 2.7.1 1.1.6 1.9 1.4 2.4.8.6 2 .8 3.4.6zm5.2-13.9l-12.7-1.8.8-5.4c.2-1.4.4-2.3.8-2.9s.8-1 1.4-1.3c.6-.3 1.3-.4 2.1-.3 1 .1 1.7.5 2.3 1.2.5.6.8 1.5.8 2.7.4-.5.8-.9 1.3-1.2.4-.3 1.2-.7 2.3-1.2l2.7-1.2-.4 3.1-3 1.5c-1.1.5-1.8.9-2.1 1.1-.3.2-.5.4-.6.7-.1.3-.3.7-.3 1.3l-.1.5 5.3.8-.6 2.4zm-7-3.6l.3-1.9c.2-1.2.2-2 .2-2.3-.1-.3-.2-.6-.4-.8-.2-.2-.5-.3-.9-.4-.4-.1-.8 0-1.1.2-.3.2-.5.5-.6.9-.1.2-.2.8-.3 1.9l-.3 2 3.1.4zm9.3-10.6l-12.3-3.8.8-2.5 12.3 3.8-.8 2.5zm2.9-8.9l-9.7-4.5-1.6 3.4-2-.9 4.3-9.2 2 .9-1.6 3.4 9.7 4.5-1.1 2.4zm4.2-8.4l-11.1-6.4 1.3-2.3 11.1 6.4-1.3 2.3zm-6.4-14.4l3.4-3.8c.7-.8 1.2-1.3 1.6-1.6.4-.3.8-.5 1.3-.6.5-.1 1-.1 1.5 0s1 .3 1.4.7c.4.4.7.9.9 1.5.1.6.1 1.2-.1 1.7.7-.4 1.4-.6 2.1-.6.7.1 1.3.3 1.9.8.4.4.8.9 1 1.4s.3 1.1.2 1.7c-.1.6-.3 1.1-.7 1.7-.2.3-.9 1.1-2 2.4l-2.9 3.2-9.6-8.5zm3.3-.5l2.2 2 1.2-1.3c.7-.8 1.1-1.2 1.2-1.4.3-.4.4-.7.4-1.1 0-.3-.2-.7-.5-1-.3-.3-.6-.4-1-.4-.3 0-.7.1-1 .4-.2.2-.7.7-1.5 1.6l-1 1.2zm3.8 3.4l2.5 2.3 1.6-1.8c.6-.7 1-1.2 1.1-1.4.2-.3.3-.7.3-1.1-.1-.3-.2-.7-.6-1-.3-.3-.6-.4-.9-.5-.3 0-.7 0-1 .2-.3.2-.9.7-1.7 1.6l-1.3 1.7zm21.2-12.1l-2.2 1.7-2.7-1.6-4 3.1 1 2.9-2.2 1.7-4-13.2 2.2-1.7 11.9 7.1zm-6.9-1.1l-4.3-2.7 1.6 4.8 2.7-2.1zm12.8-2.2l-5.2-11.7 8-3.6.9 2-5.7 2.5 1.2 2.8 4.9-2.2.9 2-4.9 2.2 2.2 5-2.3 1zm9.4-11c-.3-1.3-.4-2.4-.2-3.3.1-.7.4-1.4.8-2 .4-.6.8-1.1 1.4-1.5.7-.5 1.6-.9 2.6-1.1 1.8-.4 3.5-.2 4.8.7 1.4.9 2.3 2.3 2.8 4.4.5 2 .3 3.7-.6 5.1-.8 1.4-2.2 2.3-4 2.7-1.9.4-3.5.2-4.8-.7-1.4-.8-2.4-2.3-2.8-4.3zm2.6-.6c.3 1.4.9 2.4 1.7 3 .8.6 1.8.8 2.7.5 1-.2 1.8-.8 2.2-1.6.5-.9.5-2.1.2-3.5s-.9-2.4-1.7-3c-.8-.5-1.7-.7-2.7-.5-1 .3-1.8.8-2.3 1.6-.4.9-.5 2-.1 3.5zm14-2.5c0-1.3.3-2.4.7-3.3.3-.6.7-1.2 1.2-1.7s1.1-.9 1.7-1.1c.8-.3 1.7-.5 2.8-.5 1.9 0 3.4.7 4.5 1.8 1.1 1.2 1.6 2.8 1.6 4.9 0 2.1-.6 3.7-1.8 4.8-1.1 1.2-2.6 1.7-4.5 1.7s-3.4-.6-4.5-1.8c-1.2-1.2-1.8-2.8-1.7-4.8zm2.7-.1c0 1.5.3 2.6 1 3.3.6.8 1.5 1.2 2.5 1.2s1.9-.3 2.6-1.1c.7-.8 1-1.8 1-3.4 0-1.4-.3-2.6-.9-3.3-.6-.7-1.5-1.1-2.5-1.1-1.1 0-1.9.3-2.6 1-.8.8-1.1 1.9-1.1 3.4zm15.8 7.6l2.2-10.4-3.7-.8.4-2.1 10 2.1-.4 2.1-3.7-.8-2.2 10.4-2.6-.5zm18.7-7.8l4.6 2.3c.9.5 1.6.8 2 1.2.4.3.7.6 1 1.1.2.4.4.9.4 1.4 0 .5-.1 1-.3 1.5-.3.5-.7 1-1.2 1.2-.5.3-1.1.4-1.7.4.6.6 1 1.2 1.1 1.9.1.7 0 1.3-.3 2-.3.5-.6 1-1.1 1.3-.5.4-1 .6-1.6.7-.6.1-1.2 0-1.8-.2-.4-.1-1.4-.6-2.8-1.4l-3.9-2 5.6-11.4zm1.4 3.1l-1.4 2.6 1.5.8c.9.5 1.5.7 1.7.8.4.2.8.2 1.2.1.3-.1.6-.3.8-.7.2-.4.2-.7.1-1-.1-.3-.3-.6-.7-.9-.2-.1-.9-.5-2-1l-1.2-.7zm-2.3 4.6l-1.5 3.1 2.1 1.1c.8.4 1.4.7 1.6.7.4.1.8.1 1.1 0 .3-.1.6-.4.8-.8.2-.3.2-.7.2-1-.1-.3-.2-.6-.5-.9-.3-.3-.9-.7-2-1.2l-1.8-1zm16.9 17.7l-2.2-1.7.9-3-4-3.2-2.6 1.6-2.2-1.7 11.8-7.1 2.2 1.7-3.9 13.4zm-.7-6.9l1.6-4.9-4.3 2.7 2.7 2.2zm2.6 9.2l9.5-8.5 1.7 1.9-7.8 7.1 4.3 4.8-1.6 1.4-6.1-6.7zm7.9 9.5l11-6.4 1.3 2.3-9.1 5.3 3.2 5.6-1.9 1.1-4.5-7.9zm14.2 20.8v2.6c-1.4 0-2.6-.3-3.6-.9-.9-.7-1.6-1.6-2-3-.5-1.6-.3-3.1.4-4.5.8-1.4 2.2-2.4 4.1-3 2-.6 3.8-.6 5.2.1 1.4.7 2.4 1.9 3 3.6.4 1.5.4 2.9-.2 4.1-.3.7-1 1.4-1.9 1.9l-1.3-2.3c.6-.3 1-.8 1.2-1.4.2-.6.2-1.2 0-1.9-.3-.9-.8-1.5-1.6-1.9-.8-.4-2-.3-3.4.1-1.6.5-2.6 1.1-3.1 1.9-.5.8-.6 1.6-.3 2.5.2.7.6 1.2 1.2 1.5.5.5 1.3.7 2.3.6zm-3.4 7.7l12.7-1.1.2 2.6-10.5.9.5 6.4-2.1.2-.8-9zm13.6 13.8l-.3 2.6-6.9-.8c-1.1-.1-1.8-.2-2.1-.2-.5.1-1 .3-1.4.6-.3.4-.6.9-.7 1.6-.1.7 0 1.3.2 1.7s.6.7 1 .8c.4.1 1.2.3 2.2.4l7 .9-.3 2.5-6.7-.8c-1.5-.2-2.6-.4-3.2-.6-.6-.2-1.1-.5-1.5-.9-.4-.4-.7-1-.9-1.6-.2-.7-.2-1.5-.1-2.5.1-1.2.4-2.1.8-2.7.3-.6.8-1 1.3-1.3.5-.3 1-.5 1.5-.5.8-.1 1.8 0 3.3.1l6.8.7zm-2.8 16.5l-1.6 4.9c-.3 1-.6 1.7-.8 2.1-.2.4-.6.8-.9 1.1s-.8.5-1.3.6c-.5.1-1 .1-1.5-.1-.6-.2-1-.5-1.4-1-.4-.5-.6-1-.7-1.6-.4.7-1 1.1-1.6 1.4-.7.2-1.3.2-2.1 0-.5-.2-1-.5-1.5-.9s-.8-.9-.9-1.5c-.2-.6-.2-1.2 0-1.8.1-.4.4-1.4.9-3l1.4-4.2 12 4zm-2.8 1.8l-2.8-.9-.5 1.6c-.3 1-.5 1.6-.5 1.8-.1.5-.1.8.1 1.2.1.3.4.5.8.7.4.1.7.1 1 0 .3-.1.5-.4.7-.8.1-.2.3-.9.7-2.1l.5-1.5zm-4.8-1.6l-3.3-1-.7 2.3c-.3.9-.5 1.4-.5 1.7 0 .4 0 .7.2 1 .2.3.5.6.9.7.4.1.7.1 1 0 .3-.1.6-.3.8-.6.2-.3.5-1 .9-2.1l.7-2zm-130.7 23.6c1.4 0 2.6 1.2 2.6 2.7 0 1.4-1.2 2.6-2.6 2.6-1.5 0-2.7-1.2-2.7-2.6.1-1.5 1.3-2.7 2.7-2.7zm118.9 0c-1.4 0-2.6 1.2-2.6 2.7 0 1.4 1.2 2.6 2.6 2.6s2.6-1.2 2.6-2.6c0-1.5-1.1-2.7-2.6-2.7zm-107.1 21.9l7-10.8 3.5 2.3c1.3.9 2.1 1.5 2.5 1.8.5.5.8 1.2.9 2.1.1.8-.2 1.6-.8 2.5-.4.7-.9 1.2-1.4 1.4-.5.3-1.1.5-1.6.5s-1-.1-1.5-.2c-.6-.2-1.4-.7-2.3-1.3l-1.4-.9-2.6 4.1-2.3-1.5zm8-7.6l-2 3.1 1.2.8c.9.5 1.5.9 1.8 1 .4.1.7 0 1-.1.3-.1.6-.4.8-.7.3-.4.3-.8.3-1.2s-.3-.8-.6-1c-.2-.2-.7-.6-1.5-1.1l-1-.8zm16.9 20.1l-2.6-1.1.1-3.1-4.7-1.9-2.1 2.3-2.5-1 9.4-10 2.5 1-.1 13.8zm-2.5-6.5l.1-5.1-3.4 3.8 3.3 1.3zm9.7 7.8l1.8-12.7 5.4.8c1.4.2 2.3.5 2.9.8s1 .8 1.3 1.4c.3.6.4 1.3.3 2.1-.1 1-.5 1.7-1.2 2.3-.7.5-1.6.8-2.7.8.5.4.9.8 1.2 1.3.3.4.7 1.2 1.2 2.3l1.2 2.7-3.1-.4-1.4-3c-.5-1.1-.9-1.8-1.1-2.1-.2-.3-.4-.5-.7-.6-.3-.1-.7-.3-1.3-.3l-.5-.1-.8 5.3-2.5-.6zm3.6-7l1.9.3c1.2.2 2 .2 2.3.2.3-.1.6-.2.8-.4.2-.2.3-.5.4-.9.1-.4 0-.8-.2-1.1-.2-.3-.5-.5-.9-.6-.2-.1-.8-.1-1.9-.3l-2-.3-.4 3.1zm26.5 7.5l-2.8.2-1.4-2.8-5.1.5-.8 3-2.7.3 3.8-13.2 2.7-.2 6.3 12.2zm-5.2-4.7l-2.2-4.6-1.3 4.9 3.5-.3zm12.3 3l-4.4-12 2.4-.9 7.9 6.3-2.9-8.1 2.3-.8 4.4 12.1-2.5.9-7.7-6.1 2.9 7.9-2.4.7zm27-13.3l-2.3 1.5-2.5-1.8-4.3 2.8.7 3-2.3 1.5-2.8-13.5 2.3-1.5 11.2 8zm-6.8-1.7l-4.1-3 1.2 4.9 2.9-1.9zm1.2-10.5l-1.8 1.1c-.3 1.2.5 3.6 1.2 4l.6-.4c-.4-1.8-.2-3.3 0-4.7z"/><path fill="#FFF" d="M-329.6 639.3c36.7 0 66.6 29.9 66.6 66.6 0 36.6-29.9 66.6-66.6 66.6s-66.6-29.9-66.6-66.6c0-36.7 29.9-66.6 66.6-66.6z"/><path fill="#3F7249" d="M-329.6 642.4c35 0 63.5 28.6 63.5 63.5s-28.6 63.5-63.5 63.5-63.5-28.6-63.5-63.5c0-35 28.5-63.5 63.5-63.5z"/><path fill="#FFF" d="M-286.9 752.8c-8.6-13.5-24.6-22.6-42.7-22.6-18.2 0-34.1 9.1-42.7 22.6 7.3 6.7 16.2 11.7 26.1 14.4 4.3-3.2 10.2-5.1 16.6-5.1 6.5 0 12.4 1.9 16.6 5.1 9.9-2.7 18.8-7.7 26.1-14.4zm0-93.8c-8.6 13.5-24.6 22.6-42.7 22.6-18.2 0-34.1-9.1-42.7-22.6 7.3-6.7 16.2-11.7 26.1-14.4 4.3 3.2 10.2 5.1 16.6 5.1 6.5 0 12.4-2 16.6-5.1 9.9 2.7 18.8 7.7 26.1 14.4z"/><path fill="#3F7249" d="M-297 670.8c-2.5-5.1-5.4-9.4-9-13.3-3.6-3.9-7.8-7.3-12.9-10.3l.6-.9c5.2 3.1 9.5 6.6 13.1 10.5 3.6 4 6.6 8.4 9.2 13.6l-1 .4zm-15.2 8.4c-.1-1.4-.3-2.9-.6-4.4-.3-1.5-.7-3-1.1-4.6-2.3-7.9-6.5-16-10.5-22l.9-.6c4 6.1 8.2 14.3 10.6 22.3.5 1.6.9 3.1 1.2 4.7.3 1.5.5 3.1.7 4.5l-1.2.1zm-18 3.3v-33.6h1.1v33.6m-19-3.4c.1-1.5.3-3 .7-4.5.3-1.5.7-3.1 1.2-4.7 2.4-8 6.5-16.2 10.6-22.3l.9.6c-4 6-8.1 14.1-10.5 22-.4 1.5-.8 3.1-1.1 4.6-.3 1.5-.5 3-.6 4.4l-1.2-.1zm-15.1-8.8c2.5-5.1 5.5-9.6 9.1-13.6 3.6-4 7.9-7.4 13.1-10.5l.6.9c-5.1 3.1-9.3 6.5-12.9 10.3-3.6 3.9-6.5 8.3-9 13.3l-.9-.4zm67.2 71.2c-2.5 5.2-5.5 9.6-9.2 13.6-3.6 4-7.9 7.4-13.1 10.5l-.6-.9c5.1-3.1 9.3-6.5 12.9-10.3 3.6-3.9 6.5-8.3 9-13.3l1 .4zm-15.2-8.9c-.1 1.5-.3 3-.7 4.5-.3 1.5-.7 3.1-1.2 4.7-2.4 8-6.5 16.3-10.6 22.3l-.9-.6c4-6 8.1-14.1 10.5-22 .4-1.5.8-3.1 1.1-4.6.3-1.5.5-3 .6-4.4l1.2.1zm-17.9-3.3v33.5h-1.1v-33.5m-16.8 3.2c.1 1.4.3 2.9.6 4.4.3 1.5.7 3 1.1 4.6 2.3 7.9 6.5 16 10.5 22l-.9.6c-4-6.1-8.2-14.3-10.6-22.3-.5-1.6-.9-3.1-1.2-4.7-.3-1.5-.5-3.1-.7-4.5l1.2-.1zm-15.2 8.5c2.5 5.1 5.4 9.5 9 13.3 3.6 3.9 7.8 7.3 12.9 10.3l-.6.9c-5.2-3.1-9.5-6.6-13.1-10.5-3.6-4-6.6-8.4-9.1-13.6l.9-.4z"/><path fill="#FFF" d="M-322.8 709.2h-6.3v11.4h-6.9v-27.3h15.5v6.4h-8.6v3.6h6.3v5.9zm-26.2 4.9c0 5.4-1.5 7.6-3.8 10.6-2.2 2.8-5.9 4.3-10.8 4.3s-8.8-2.3-11.5-6.2c-2.7-3.8-4.1-8.8-4.1-15.9s1.2-11.8 3.9-15.7c2.7-3.9 6.9-6.5 12-6.2 9.2.5 14 8.1 14 16.1l-9 1c0-3-1.1-7.4-4.4-7.3-2.1 0-3.5 1.8-4 3.4-.5 1.6-.8 4.5-.8 8.6 0 2.4-.1 7 1.2 10.2.8 1.9 2 3.4 4.1 3.4 1.9 0 2.9-1.6 3.4-3.5.4-1.4.5-2.9.5-4l9.3 1.2zm68.7 0c0 5.4-1.6 7.6-3.8 10.6-2.2 2.8-5.9 4.3-10.8 4.3s-8.8-2.3-11.5-6.2c-2.7-3.8-4.1-8.8-4.1-15.9s1.1-11.8 3.9-15.7c2.7-3.9 6.9-6.5 12-6.2 9.2.5 14 8.1 14 16.1l-9 1c0-3-1.1-7.4-4.4-7.3-2.2 0-3.5 1.8-4 3.4-.5 1.6-.9 4.5-.9 8.6 0 2.4-.1 7 1.2 10.2.8 1.9 2 3.4 4.1 3.4 1.9 0 2.9-1.6 3.5-3.5.4-1.4.5-2.9.5-4l9.3 1.2z"/><path fill="#3F7249" d="M-329.6 641.6c17.7 0 33.7 7.2 45.4 18.9 11.6 11.6 18.9 27.7 18.9 45.4s-7.2 33.7-18.9 45.4c-11.6 11.6-27.7 18.9-45.4 18.9s-33.7-7.2-45.4-18.9c-11.6-11.6-18.9-27.7-18.9-45.4s7.2-33.8 18.9-45.4c11.6-11.6 27.7-18.9 45.4-18.9zm0 1.5c-17.3 0-33 7.1-44.4 18.4-11.4 11.4-18.4 27.1-18.4 44.4 0 17.3 7.1 33 18.4 44.3 11.4 11.4 27.1 18.4 44.4 18.4 17.3 0 33-7.1 44.4-18.4 11.4-11.4 18.4-27.1 18.4-44.3 0-17.3-7.1-33-18.4-44.4-11.4-11.4-27.1-18.4-44.4-18.4z"/></svg>