<svg xmlns="http://www.w3.org/2000/svg" width="276.51" height="353.34" viewBox="0 0 276.507 353.342"><path fill="#FFF" d="M221.23 177.18c0 46.02-36.5 83.33-81.5 83.33s-81.5-37.3-81.5-83.3 36.5-83.3 81.5-83.3 81.5 37.3 81.5 83.37"/><path fill="#ED3526" d="M276.35 64.82c-9.97-14.7-18.8-24.1-32.56-34.63l-.3-.2-.2.2-36.43 42c-1.25.9-2.55 4.9-2.6 7.3-.06 2.1.07 3.7.2 5 .15 1.9.3 3.4-.14 5.8l-.18 1c-.3 1.72-.5 3-1.5 4.8l-6.92 6.8c2.9 2.2 5.65 4.6 8.27 7.1l6.67-6.3c.13 0 1.24-.4 1.24-.4 1.54-.45 2.74-.8 4.58-1.07 2.4-.36 3.9-.2 5.8.05 1.35.15 2.88.34 5.04.36 2.4.02 6.44-1.14 7.43-2.4L276.48 65l-.16-.2zM55.22 103.44c1.9-.2 3.38-.35 5.78.03l1 .16c1.77.26 3.04.45 4.76 1.36.05 0 3.97 3.8 6.52 6.3 2.57-2.58 5.27-5 8.1-7.27l-7.1-7.26-.38-1.23c-.47-1.5-.85-2.7-1.15-4.55-.17-1.08-.23-1.97-.23-2.8 0-1 .1-1.94.2-3 .13-1.28.28-2.7.28-4.7v-.37c-.02-2.38-1.22-6.33-2.48-7.35l-36.1-41-.2.14C19.68 42.22 10.45 51.2.17 65.17l-.17.2 42.83 35.86c1 1.26 4.96 2.46 7.33 2.5 2.16 0 3.7-.16 5.06-.3M267.2 203.67l-.22-.8-.34.75c-.07.17-7.56 16.3-34.73 35.98l-.4.36 11.74 3.13c-3.72 6.1-6.2 9.6-10.8 15.2-1.97 2.4-3.83 4.7-5.64 6.8l-20.6-22.8c-2.28 2.32-4.68 4.53-7.17 6.6l21.17 23.53c-5.47 5.57-11.47 10.3-20.3 14.95l-2.85 1.5c-7.42 4-12.77 6.8-21.83 7.14h-.65c-4.78.2-7.92.3-12.5-1.52-5.17-2.06-8.04-4.36-11.4-9.1-1.8-2.58-1.7-5.63-1.6-8.58.1-2.5.17-4.9-.92-6.85-2.87.27-5.78.4-8.72.4-3.26 0-6.5-.17-9.7-.5-.83 1.45-1 3.15-1 4.96 0 .64 0 1.3.03 2 .02.7.05 1.35.05 2.04 0 2.3-.2 4.55-1.6 6.5-3.33 4.77-6.2 7.07-11.4 9.1-4.6 1.87-7.7 1.75-12.5 1.57h-.63c-9.05-.34-14.4-3.2-21.8-7.17L78 287.4c-7.7-4.07-13.25-8.18-18.16-12.86l21.8-24.25c-2.54-2.06-5-4.2-7.3-6.5l-.1.1-21.1 23.48c-2.47-2.8-4.93-5.8-7.64-9.16-4.6-5.63-7.05-9.1-10.8-15.24l11.75-3.12-.5-.36c-27.2-19.65-34.7-35.8-34.76-35.95l-.38-.75-.2.8c-.1.37-9.4 36.74 4 59.88l.26.4 6.27-9.95c5.77 9.95 9.65 15.5 17.07 24.46.8 1 1.6 1.95 2.4 2.9L19.7 304.6l-.03.1c0 .14-.18 3.36 1.9 5.26 1.24 1.15 3 1.55 5.26 1.2h.1L47 288.84c9.34 10.58 17.85 18.24 32.63 26.3 11.06 6.04 18.1 8.2 30.67 11.8 1.68.5 3.1.75 4.5 1 2.1.34 4.08.7 6.47 1.82 5.32 2.56 7.85 5.07 11.2 9.4 3.5 4.6 4.75 7.8 6.2 13.2l.28 1.05.3-1c1.6-5.7 2.8-8.74 6.2-13.2 3.35-4.3 5.87-6.83 11.18-9.4 2.4-1.1 4.38-1.44 6.47-1.8 1.4-.23 2.83-.5 4.5-.96 12.56-3.6 19.63-5.8 30.63-11.8 15.83-8.64 24.47-16.8 34.63-28.6L253 309h.1c2.27.34 4.04-.06 5.27-1.2 2.08-1.9 1.9-5.1 1.9-5.25v-.1l-21.15-23.47.48-.55c7.42-8.95 11.32-14.53 17.07-24.46l6.27 9.98.25-.42c13.4-23.13 4.1-59.5 4-59.86"/><path fill="#FFF" d="M74.28 104.16l-9.65-8.57s-3.98-5.1-10.25 1.2c2.14-2.2 4.04-6.9.47-11L36.5 66.3l19.4 18.4c4.13 3.6 8.86 1.7 11-.46-6.27 6.28-1.2 10.26-1.2 10.26l8.56 9.67M6.72 64.13L46.28 97c2.52 1.66 5.88 2.2 5.88 2.2s-3.7 1-6.56-1.1c0 0-40.06-33-39.97-32.72l1.1-1.28zm196.65 39.5l8.75-9.5s5.12-3.9-1.05-10.27c2.1 2.18 6.82 4.16 11 .66l19.74-18-18.6 19.1c-3.64 4.05-1.82 8.82.3 11-6.16-6.38-10.23-1.38-10.23-1.38l-9.8 8.4m41.2-66.86L211.1 75.76c-1.74 2.5-2.33 5.84-2.33 5.84s-.95-3.7 1.2-6.54c0 0 33.7-39.47 33.44-39.4l1.27 1.13z"/><path fill="#ED3526" d="M106.74 65.95s-.34-14.8 0-15.05c8.76-6.85 24.62-10 24.62-10-7.6-3.35-12.15-10.42-12.15-19.26C119.2 9.68 128.9 0 140.9 0s21.53 9.68 21.53 21.64c0 8.84-4.53 15.9-12.14 19.26 0 0 15.8 3.15 24.6 10 .3.26 0 15.05 0 15.05s-6.58 6.98-20.4 7.94c-1.2 0-2.85 7-3.6 10.5-3.1-.4-6.3-.5-9.56-.5-3.6 0-7.14.2-10.62.6-.73-3.5-2.38-10.6-3.6-10.6-13.8-1-20.36-8-20.36-8m23.3-44.3c0 5.92 4.82 10.8 10.8 10.8 5.97 0 10.8-4.88 10.8-10.8 0-6-4.85-10.87-10.83-10.87-5.97 0-10.8 4.84-10.8 10.82"/><path fill="#FFF" d="M122.16 12.2c-1.62 2.86-2.48 6.13-2.48 9.44 0 2.85.6 5.6 1.77 8.1.1.1.48.4.73.3.2-.05.3-.33.36-.58-1.17-2.45-1.78-5.08-1.78-7.82 0-3.7 1.12-7.24 3.2-10.27-.12-.07-.3-.16-.54-.14-.4.04-.84.37-1.26.96m29.54 3.5c-.6-.6-.96-.8-1.1-.7-.16 0-.23.4-.24.6 1 1.8 1.52 3.9 1.52 6 0 3.3-1.27 6.4-3.56 8.8v.1c0 .1.02.2.1.3.26.2.95-.1 1.28-.2 2.14-2.5 3.3-5.7 3.3-9 0-2.1-.46-4.1-1.3-5.96M111.5 64.8c-.33 0-.6.25-.6.58 0 .34.27.6.6.6h58.15c.33 0 .6-.26.6-.6 0-.3-.27-.56-.6-.56H111.5zm-2.33-14.06h-.6V62.1c0 .32.27.58.6.58.32 0 .58-.24.58-.56v-10.2h59.9c.33 0 .6-.25.6-.57 0-.33-.27-.6-.6-.6h-60.48zM58.02 272.92l16.35-18.22-.5-1-16.6 18.46.75.76M44.7 286.17l-19 21.16s-4.56 1.1.5 1l19.2-21.35-.7-.8m177.86-16.24l-16.53-18.4-.52 1 16.4 18.2.7-.8m31.67 35.23l-19.14-21.32-.7.82 19.33 21.5c5.07.12.5-1 .5-1"/><path fill="#FFF" d="M24.16 245.78c.84 1.66 1.75 3.34 2.73 5.07 7.9 13.96 13.6 21.37 25.3 32.26 13.9 13.1 23.2 19.9 41 26.2 10.1 3.56 18.3 5.26 30.3 5.7 0 0 12.9 2.26 15.28 20.57v-43.9c-.5 21.5-14.53 21.75-14.53 21.75-12-.47-18.94-1.77-30.3-5.7-17.95-6.2-27.18-13.1-41.1-26.12-11.64-10.87-17.36-18.32-25.3-32.24-.8-1.4-1.56-2.8-2.27-4.14-4.1-8.1 9.84-6.1 13.15-6.3l-.82-.65-16.4-1.14c-2.76-6.46-5.2-14-7.16-20.3 0 0-.96.17-.5 1.6 1.82 5.9 4.17 13.3 6.64 19.35l-4.34 17.5.42.97c.94-3.25 4.67-17.04 7.83-10.4m229.46 0c-.84 1.67-1.75 3.35-2.72 5.08-7.9 13.95-13.66 21.36-25.3 32.25-13.93 13.06-23.24 19.9-41.1 26.16-10.1 3.5-18.3 5.2-30.32 5.7l-.74-1.6c12.02-.5 18.95-1.8 30.32-5.73 17.96-6.2 27.18-13.07 41.1-26.1 11.65-10.87 17.37-18.32 25.3-32.25.8-1.4 1.58-2.75 2.28-4.1 4.1-8.1-9.8-6.1-13.13-6.3l.84-.64 16.4-1.14c2.75-6.5 5.2-14.03 7.15-20.3 0 0 .97.15.53 1.6-1.85 5.9-4.2 13.28-6.66 19.33l4.34 17.52-.45.97c-.93-3.28-4.66-17.07-7.8-10.4"/><path fill="#231F20" d="M241.58 181.84c.82-.68 1.3-1.5 1.34-2.32.17-2.68-2.62-4.1-5.28-4.26-.44-.02-.96-.03-1.53-.02v-.74c2 .22 4.1-.4 5.5-1.55.8-.68 1.3-1.48 1.4-2.3.18-2.7-2.6-4.1-5.3-4.27-.9-.06-2.43-.05-4 .17.1-.22.1-.47.1-.68v-.23c.1-.28.5-1.85.5-4.07 0-1.7-.23-3.75-1.1-5.82-.53-1.33-1.2-2.3-1.84-3.13.36-.18.46-.53.46-.88 0-.27-.07-.5-.1-.67v-.75c0-1.62-.27-5.4-2.6-8.85-1.04-1.57-2.1-2.57-3.13-3.35.24-.17.33-.43.33-.7 0-.36-.13-.7-.2-.9-.04-.53-.5-5.3-3.97-9.1-1.6-1.76-3.07-2.65-4.5-3.32.04-.03.1-.03.14-.06.18-.17.24-.37.24-.57 0-.4-.2-.8-.35-1.04-.1-.48-1.26-5.14-5.27-8.4-1.37-1.1-2.64-1.76-3.84-2.2.1-.14.15-.3.15-.45 0-.44-.34-.86-.54-1.1-.2-.44-2.13-4.85-6.64-7.37-2-1.1-3.67-1.4-5.2-1.6v-.1c0-.5-.45-.9-.7-1.1-.26-.4-2.82-4.5-7.67-6.3-1.34-.5-2.5-.7-3.57-.8.05-.1.07-.1.07-.2 0-.5-.64-.9-.95-1.1-.37-.4-3.68-3.8-8.75-4.6-1.86-.3-3.3-.2-4.6.03V87c0-.6-.76-.93-1.1-1.06-.4-.32-4.2-3.24-9.35-3.3-2.4-.02-4 .45-5.5 1l.02-.1c0-.7-.87-.92-1.27-1-.15-.07-.6-.32-1.26-.6v-.3c0-1.73-.6-3.52-1.6-4.72-.7-.82-1.5-1.28-2.3-1.34-2.6-.17-4 2.43-4.25 5.02l-.37.04-.48.07c-.14-1.4-.7-2.8-1.5-3.8-.7-.8-1.5-1.3-2.32-1.33-2.67-.17-4.07 2.62-4.25 5.28l-.3.1-.33.1c-.12-1.57-.7-3.1-1.6-4.18-.7-.83-1.52-1.3-2.38-1.37-2.76-.18-4.2 2.66-4.37 5.37-.02.3-.03.67-.03 1.1v.5c-1.9-.2-4.64-.12-7.44 1.03-1.3.54-2.3 1.17-3.1 1.85-.3-.65-1.18-.46-1.57-.37-.43-.03-5.3-.33-9.6 2.58-1.56 1.05-2.57 2.1-3.34 3.15-.4-.6-1.27-.23-1.64-.1-.5.06-5.27.5-9.1 3.97-1.74 1.6-2.63 3.1-3.3 4.5-.02-.04-.03-.1-.07-.13-.47-.53-1.23-.1-1.6.12-.5.1-5.14 1.22-8.4 5.23-1.1 1.37-1.74 2.63-2.2 3.84-.55-.43-1.2.12-1.53.4-.45.2-4.86 2.1-7.37 6.64-1.13 2-1.5 3.65-1.65 5.2-.5-.1-.96.42-1.2.7-.4.24-4.5 2.8-6.3 7.65-.5 1.33-.7 2.5-.78 3.55-.7-.2-1.15.58-1.34.93-.4.36-3.84 3.67-4.65 8.74-.14.88-.2 1.6-.2 2.3 0 .88.1 1.6.23 2.3-.7-.1-1 .77-1.13 1.1-.32.45-3.24 4.2-3.3 9.38v.18c0 2.27.46 3.87 1.03 5.3l-.15-.03c-.7 0-.9.87-1 1.3-.1.2-.7 1.25-1.2 2.84-1.4-.17-2.7-.2-3.5-.12-2.67.17-5.47 1.58-5.3 4.27.06.8.53 1.6 1.35 2.3 1.4 1.2 3.6 1.8 5.55 1.55.5-.07.94-.2 1.34-.33.05.35.1.68.2 1l-.05.2c-1.2-.1-2.35-.14-3.16-.1-2.67.17-5.47 1.6-5.3 4.26.06.83.52 1.63 1.34 2.3 1.4 1.18 3.6 1.78 5.57 1.55.6-.08 1.14-.25 1.6-.42.13.48.28.9.43 1.3-1.37-.15-2.74-.2-3.66-.12-2.68.18-5.48 1.58-5.3 4.26.05.84.5 1.65 1.33 2.33 1.4 1.17 3.6 1.8 5.6 1.55.85-.1 1.54-.4 2.14-.62l.87-.3c0 .48-.04 1-.04 1.58 0 1.7.23 3.76 1.1 5.84.53 1.3 1.2 2.3 1.84 3.14-.38.16-.48.5-.48.86 0 .3.05.5.1.7 0 .1-.03.32-.03.73 0 1.64.26 5.44 2.6 8.88 1.03 1.55 2.1 2.56 3.12 3.33-.23.2-.3.45-.3.7 0 .37.14.7.22.93.04.5.48 5.28 3.96 9.1 1.6 1.74 3.08 2.63 4.5 3.3l-.12.07c-.2.15-.25.34-.25.55 0 .4.2.8.36 1 .1.5 1.23 5.18 5.24 8.4 1.36 1.15 2.6 1.8 3.83 2.24-.1.13-.16.3-.16.43 0 .44.37.86.57 1.1.2.44 2.1 4.84 6.64 7.36 2 1.1 3.66 1.46 5.2 1.6l-.02.1c0 .5.46.9.72 1.12.23.4 2.8 4.5 7.64 6.3 1.34.5 2.5.7 3.56.77-.04.05-.05.14-.05.2 0 .57.66.95.97 1.1.37.4 3.68 3.84 8.75 4.66 1.86.3 3.3.23 4.6 0v.1c0 .64.75.94 1.1 1.07.4.34 4.2 3.26 9.34 3.3 2.36.05 4-.43 5.47-1v.13c0 .7.86.9 1.27 1 .08 0 .2.07.3.15-.45 1.55-.63 3.5-.63 5.04 0 .4 0 .76.05 1.08.16 2.65 1.56 5.43 4.24 5.27.83-.05 1.63-.5 2.32-1.34 1-1.2 1.6-3 1.6-4.72 0-.3 0-.57-.04-.85-.1-.88-.4-1.57-.63-2.17l-.18-.45c.54.03 1.14 0 1.74-.03-.16 1.1-.23 2.25-.23 3.2 0 .4 0 .76.03 1.08.17 2.67 1.57 5.46 4.25 5.3.8-.05 1.62-.5 2.3-1.34 1-1.2 1.6-3 1.6-4.7 0-.3-.02-.6-.05-.88-.1-.85-.35-1.53-.6-2.13l-.15-.5c.6-.03 1.18-.1 1.8-.2-.2 1.18-.3 2.4-.3 3.37 0 .4.04.76.05 1.06.17 2.65 1.57 5.44 4.25 5.27.83-.04 1.64-.5 2.32-1.33 1-1.2 1.6-3 1.6-4.7 0-.3-.02-.6-.05-.87-.1-.86-.36-1.55-.6-2.15l-.4-1.1c.4-.46.7-.96.9-1.52 1.5.3 5.35.86 9.3-.76 1.3-.54 2.3-1.17 3.1-1.85.33.66 1.18.46 1.57.36.4.04 5.25.34 9.6-2.57 1.54-1.04 2.54-2.1 3.32-3.13.4.6 1.26.27 1.63.1.5-.02 5.28-.46 9.1-3.94 1.76-1.6 2.65-3.08 3.32-4.5.02.04.03.1.07.13.42.5 1.2.1 1.54-.13.5-.1 5.2-1.24 8.4-5.25 1.16-1.36 1.8-2.62 2.2-3.83.6.4 1.27-.15 1.6-.4.45-.2 4.86-2.15 7.37-6.67 1.1-1.97 1.46-3.63 1.6-5.16.53.1 1-.4 1.2-.7.43-.22 4.5-2.8 6.33-7.64.5-1.35.72-2.5.8-3.56.7.2 1.14-.6 1.33-.94.4-.34 3.85-3.64 4.66-8.73.13-.85.2-1.6.2-2.3 0-.86-.1-1.6-.23-2.3.7.1 1.02-.74 1.16-1.1.33-.4 3.26-4.2 3.3-9.35v-.2c0-2.3-.45-3.9-1-5.3h.12c.35 0 .58-.22.73-.5h.04c.6.27 1.3.54 2.14.65 2 .22 4.2-.38 5.6-1.56.8-.7 1.28-1.5 1.33-2.3.16-2.7-2.63-4.1-5.3-4.28-.44 0-.97-.03-1.56 0l.04-.75c1.97.2 4.1-.4 5.5-1.57M152 90.9c0-.8-.04-1.46-.13-2.1 2.44.55 5.06.93 6.8.87 0 0 .86-.05 2.1-.16 1.8 1.4 8.5 4.1 11.9 4.4l1.2.1c1.8 1.7 7.6 5.2 10.7 6.2.02 0 1.32.4 3.05.8 1.66 2.1 6.75 6.4 9.6 7.8l1.53.7c1.2 2.26 5.7 7.7 8.4 9.6.02.02 1.1.76 2.5 1.66.6 2.28 4.16 8.5 6.6 10.9 0 .04.63.64 1.53 1.46.26 2.28 2.87 9 4.9 11.7l.74.96c0 2.45 1.4 9.13 2.8 12.02.03.03.63 1.26 1.5 2.82-.2 1.3-.2 3.64-.06 6.02h-.1c-1.02.1-1.88.34-2.83.8-.42-.16-.9-.28-1.38-.37-4.64-37.88-34.3-68-71.95-73.36.32-.9.6-2 .6-2.8m76.56 84.1c0 .2 0 .37-.03.54-.32-.02-.64-.04-1 0-1 .07-1.86.33-2.8.8-.25-.1-.5-.17-.77-.24 0-.67-.02-1.3-.04-1.96 1 .42 2.58.9 3.6.9.37 0 .7 0 1.04-.03m-85.3-87.22c.02 0 .4-.07.97-.2-.2.44-.65 1.54-.65 2.9 0 .15 0 .3.02.45.06.77.22 1.43.48 2.1l-1.3-.05c.2-.7.35-1.44.35-2 0-1.25-.12-2.25-.36-3.1l.5-.08m-9.17.5c.38-.1.74-.2 1.05-.3l.04-.02c-.2.54-.5 1.43-.5 2.46v.45c.03.73.2 1.4.44 2.06l-1.2.07c.2-.74.36-1.5.36-2.1 0-1.06-.1-1.93-.25-2.7M51.8 155.8c1.4-1.8 4.05-8.5 4.4-11.87.03-.02.07-.48.1-1.2 1.7-1.8 5.23-7.63 6.17-10.7 0-.04.4-1.35.83-3.08 2.07-1.65 6.4-6.74 7.77-9.58 0-.02.3-.63.7-1.55 2.28-1.18 7.7-5.7 9.6-8.4.03-.02.76-1.06 1.67-2.47 2.27-.6 8.5-4.18 10.9-6.6.03-.02.62-.64 1.45-1.55 2.2-.25 8.9-2.86 11.7-4.9l.9-.74c2.4 0 9.1-1.4 12-2.8 0-.03 1.24-.64 2.8-1.5.74.1 1.82.16 3.03.16-.1.44-.16.94-.16 1.46 0 .16 0 .3.02.45.06 1.02.32 1.9.8 2.83-.04.04-.05.1-.06.13-37.1 5.7-66.27 35.5-70.93 73-.96.1-1.9.3-2.65.5-.8-.37-1.5-.6-2.3-.7.75-2.9 1.4-6.6 1.32-8.8 0 0-.05-.87-.16-2.1m39.34-6.92l27.7 87.62c-24.4-8.54-41.96-31.78-41.96-59.1 0-13.4 4.22-25.84 11.4-36l.4 8.6 2.5-1.14zM50.27 175c1.22-.03 3.2-.7 4.03-1.15l.7.2v1.75c-.76.1-1.4.27-2 .5-.9-.45-1.76-.7-2.7-.8l-.03-.5m.46 8.86c1.23-.15 2.85-.73 3.58-1.1l.88.23.13 1.6c-.85.1-1.64.27-2.3.52-.74-.36-1.4-.58-2.14-.7 0-.2-.05-.42-.1-.62m75.84 81.88c-2.35-.5-4.77-.8-6.38-.77l-2.1.18c-1.83-1.38-8.5-4.04-11.9-4.4l-1.2-.1c-1.8-1.68-7.6-5.2-10.7-6.16-.03 0-1.34-.4-3.06-.83-1.65-2.04-6.74-6.36-9.6-7.7 0-.04-.6-.3-1.52-.7-1.2-2.3-5.72-7.7-8.4-9.6-.04-.06-1.08-.8-2.5-1.7-.6-2.28-4.17-8.5-6.6-10.9 0-.04-.63-.64-1.54-1.46-.22-2.3-2.84-9-4.9-11.72l-.7-.93c0-2.5-1.4-9.17-2.82-12.06 0-.03-.6-1.26-1.47-2.8.06-.4.1-.88.1-1.42 1.16-.22 2.45-.7 3.08-1.02.6.2 1.24.38 1.93.5 6.2 35.3 34.28 63 69.7 68.7.08 1.65.26 3.38.7 4.7 0 .06-.03.13-.1.2m8.44 1.3c-.2.06-.47.1-.8.2-.23-1.13-.7-2.44-1.03-3.07.24-.73.43-1.55.58-2.43l1.2.04c.08 1.35.26 2.67.65 3.74-.26.5-.45 1-.6 1.5m9.04-.42l-.3.08-.2.08-.6-.02c-.24-1-.63-2-.9-2.56.23-.7.4-1.45.56-2.3l1.2-.03c.1 1.3.28 2.63.67 3.7-.2.36-.3.7-.46 1.1m-4.52-26.64c-4.62 0-9.13-.53-13.47-1.48l.04-.04-30.2-91.75 2.22-1.04-6.82-8.18c11.5-13.87 28.85-22.7 48.27-22.7 34.6 0 62.6 28.02 62.6 62.6 0 7.07-1.2 13.87-3.35 20.2-11.8-18.93-17.12-40.34-16.2-65.38l-.3-.24c-10.6 3.56-17.54 7-24.8 10.86.05-.66.1-1.35.1-2.1 0-3.9-1.3-8.5-10.22-9.26-12.04-1.1-28.44 4.7-50.2 17.63l-.03.32c7.74 10.3 19.38 49.55 21.74 66.5l.4.16c6.4-5 13.34-9.04 18.68-10.86-.2 1.8-.44 4.1-.44 6.55 0 4.2.76 8.7 3.75 11.14 2.73 2.26 7.02 2.5 12.73.7 7.1-2.22 13.85-6.54 21-11.12 7.28-4.63 14.78-9.42 22.77-11.9-9.17 23.15-31.73 39.5-58.15 39.5m87.6-41.13c-1.38 1.84-4.04 8.5-4.4 11.9l-.1 1.2c-1.68 1.8-5.2 7.63-6.15 10.7 0 .04-.4 1.34-.83 3.07-2.1 1.64-6.4 6.73-7.8 9.57 0 0-.3.62-.7 1.53-2.3 1.2-7.7 5.73-9.6 8.4 0 .04-.75 1.08-1.66 2.5-2.26.6-8.5 4.18-10.9 6.6-.02 0-.62.64-1.44 1.54-2.27.25-8.97 2.86-11.7 4.9-.02 0-.4.3-.94.73-2.45 0-9.13 1.4-12.02 2.85-.04 0-1.26.63-2.83 1.5-1-.15-2.65-.2-4.5-.13-.2-.62-.4-1.18-.6-1.53.3-.94.55-1.98.7-3.1 36.2-5.2 65-33.36 71.2-69.25.2-.05.44-.1.64-.17.78.4 2.6 1 3.8 1.1-.2 1.5-.34 2.9-.3 3.97 0 .03.05.88.16 2.1m2.33-14.33c-.55-.1-1.17-.18-1.84-.13-1.02.1-1.9.35-2.83.8-.32-.1-.7-.2-1.1-.3.1-.64.14-1.3.18-1.9 1 .4 2.68.92 3.74.92.7 0 1.3-.04 1.86-.1.1.14.1.3.16.46l-.1.24"/><path fill="#FFF" d="M86.77 100.68c.78-1.82 1.52-3.55 3.68-5.52 3.68-3.36 8.53-3.7 8.57-3.7h.1l.07-.04c.2-.1.3-.13.4-.16-.2 1.18-3.7 5.63-6.4 8.28-2.2 2.2-7.16 4.97-9.5 6 1.6-1.7 2.32-3.3 3-4.86m-12.4 10.36c.5-2.03.96-3.95 2.8-6.22 3.15-3.87 7.9-4.93 7.94-4.94l.07-.02.08-.03c.2-.13.32-.18.4-.22-.1 1.2-2.8 6-5.07 9.2-1.84 2.6-6.14 6.1-8.35 7.6 1.24-1.86 1.72-3.6 2.13-5.26m-9.8 10.98c.1-2 .2-3.9 1.64-6.45 2.43-4.35 6.9-6.2 6.97-6.23l.06-.03.06-.06.38-.27.03.1c0 1.4-1.8 6.42-3.44 9.77-1.35 2.7-4.95 6.85-6.85 8.67.9-2.05 1.05-3.8 1.14-5.5m-7.75 16.3c0-.96-.12-1.85-.24-2.73-.12-.86-.23-1.73-.23-2.66 0-1.14.2-2.4.77-3.9 1.76-4.66 5.92-7.17 5.96-7.2l.07-.04.08-.07c.13-.2.22-.25.3-.3.03.1.07.22.07.5 0 1.8-.92 6.4-1.94 9.73-.88 2.86-3.6 7.26-5.16 9.4.2-1 .36-1.9.36-2.7m-5.1 14.8c0-1.8-.4-3.2-.77-4.54-.4-1.38-.75-2.7-.75-4.4 0-.67.05-1.38.16-2.17.8-4.92 4.4-8.2 4.4-8.24l.1-.1.05-.07c.1-.2.16-.3.23-.37.3.56.43 2.53.43 4.86 0 1.84-.1 3.9-.24 5.53-.35 3.06-2.46 8.24-3.66 10.5.02-.37.1-.75.1-1.1m61.9-67.26c.2-.07.3-.08.4-.08-.4 1.14-4.5 5-7.5 7.24-2.45 1.86-7.7 3.85-10.15 4.5 1.83-1.42 2.77-2.9 3.63-4.32 1-1.68 1.96-3.27 4.4-4.9 4.13-2.78 9-2.4 9-2.4h.1l.1-.02zm54.3 2.7c1.9-.54 3.7-1.05 6.57-.6 4.9.8 8.2 4.4 8.23 4.4l.07.1.06.02c.2.1.3.2.37.24-1.06.6-6.7.6-10.45.2-3.04-.33-8.22-2.44-10.5-3.64 2.33.2 4-.22 5.63-.7m13.03 5.6c2-.22 3.9-.5 6.6.55 4.7 1.74 7.2 5.9 7.2 5.94l.06.06.07.08.3.3c-1.1.3-6.47-.74-10.25-1.9-2.9-.87-7.3-3.6-9.4-5.15 2.1.5 3.8.35 5.43.13m16.75 13.64c-2.7-1.34-6.84-4.94-8.67-6.84 2.06.9 3.8 1.06 5.5 1.15 2 .1 3.9.2 6.45 1.63 4.36 2.4 6.23 6.9 6.25 6.96v.06l.06.06c.18.17.25.3.3.37-1.2.1-6.43-1.76-9.9-3.4m10.1 10.37c-2.6-1.85-6.03-6.15-7.53-8.36 1.9 1.23 3.6 1.7 5.28 2.12 2.04.5 3.97.96 6.22 2.8 3.85 3.15 4.9 7.9 4.9 7.94v.08l.06.07.2.4c-1.2-.1-5.94-2.8-9.15-5.07m9.24 12.68c-2.2-2.16-4.97-7.1-6-9.45 1.7 1.6 3.3 2.37 4.85 3 1.8.8 3.54 1.5 5.5 3.7 3.34 3.7 3.7 8.53 3.7 8.58v.1l.04.08c.1.2.16.35.18.45-1.16-.2-5.62-3.72-8.27-6.36m6.5 13.24c-1.83-2.45-3.8-7.7-4.5-10.14 1.44 1.8 2.9 2.73 4.35 3.6 1.67 1 3.26 1.96 4.9 4.4 2.17 3.23 2.4 6.9 2.4 8.4v.8c.07.2.1.3.1.4-1.15-.4-5-4.5-7.26-7.5m3.65 13.1c-1.33-2.7-2.3-7.73-2.63-10.34 1.04 1.9 2.33 3 3.6 4.03 1.53 1.3 3 2.5 4.1 5.18.8 1.93 1.02 3.85 1.02 5.45 0 2.24-.46 3.85-.47 3.87l-.06.1v.5c-1-.63-3.9-5.26-5.62-8.8m-3.8 59.15c0-1.87.1-3.94.3-5.6.34-3.07 2.45-8.26 3.64-10.5-.06.35-.1.73-.1 1.06 0 1.8.4 3.18.74 4.54.4 1.4.77 2.7.77 4.43 0 .64-.04 1.35-.15 2.14-.8 4.96-4.37 8.2-4.4 8.27l-.06.08-.07.05c-.1.2-.15.3-.22.37-.3-.57-.44-2.5-.44-4.8m-7.96 16.2c0-1.8.98-6.44 2-9.77.88-2.87 3.6-7.27 5.15-9.4-.24.98-.4 1.9-.4 2.7 0 .98.14 1.87.26 2.75.14.9.25 1.77.25 2.7 0 1.14-.2 2.4-.76 3.9-1.76 4.67-5.9 7.17-5.97 7.2l-.06.04-.06.05c-.12.2-.2.28-.3.34 0-.14-.06-.26-.06-.5m-10.1 12.8c0-1.4 1.8-6.44 3.4-9.8 1.38-2.8 4.95-6.83 6.8-8.63-.9 2.05-1 3.8-1.1 5.46-.1 2-.2 3.93-1.6 6.47-2.45 4.34-6.93 6.2-7 6.22l-.06.04-.06.06c-.18.17-.3.24-.38.3l-.03-.1m-6.96.3c1.87-2.6 6.17-6.05 8.38-7.55-1.23 1.87-1.7 3.6-2.12 5.27-.5 2.05-.97 3.97-2.8 6.24-3.15 3.83-7.9 4.9-7.93 4.9h-.07l-.06.06-.4.2c.1-1.2 2.8-5.96 5.07-9.16m-12.7 9.22c2.2-2.2 7.15-5 9.5-6-1.56 1.7-2.3 3.3-2.96 4.83-.78 1.85-1.52 3.58-3.68 5.55-3.7 3.35-8.54 3.7-8.58 3.7h-.1l-.07.04-.42.12c.2-1.17 3.7-5.62 6.35-8.28m-13.26 6.53c2.43-1.85 7.66-3.84 10.13-4.5-1.82 1.43-2.76 2.9-3.63 4.33-1 1.67-1.95 3.27-4.37 4.9-4.15 2.77-9 2.4-9.03 2.4h-.17c-.24.07-.35.07-.45.08.4-1.1 4.54-5 7.5-7.22m-66.28.1c3.05.35 8.23 2.46 10.48 3.66-2.3-.2-4 .25-5.6.7-1.9.55-3.7 1.05-6.57.6-4.9-.8-8.2-4.36-8.2-4.4l-.06-.06-.07-.05c-.2-.1-.3-.2-.36-.25 1.02-.53 6.72-.6 10.4-.2M94 255.35c2.9.88 7.28 3.62 9.4 5.16-2.1-.55-3.8-.4-5.44-.2-1.98.3-3.86.5-6.6-.5-4.65-1.74-7.16-5.9-7.18-5.94l-.04-.08-.07-.06c-.16-.15-.24-.2-.3-.3 1.12-.3 6.46.73 10.24 1.9m-12.7-8.6c2.7 1.3 6.85 4.9 8.68 6.8-2.05-.9-3.8-1.1-5.5-1.16-2-.1-3.9-.2-6.44-1.63-4.36-2.4-6.22-6.9-6.24-6.93v-.1l-.08-.06c-.15-.16-.23-.3-.3-.35 1.2-.13 6.44 1.74 9.9 3.4m-7.8-4.14c-2.05-.5-3.97-.94-6.24-2.8-3.86-3.12-4.92-7.9-4.93-7.9v-.1l-.05-.1c-.12-.2-.18-.3-.2-.4 1.2.1 5.93 2.8 9.13 5.05 2.6 1.85 6.07 6.16 7.57 8.36-1.9-1.25-3.6-1.7-5.3-2.1M63.1 230.1c-1.83-.77-3.56-1.5-5.53-3.67-3.36-3.68-3.7-8.53-3.7-8.57v-.1l-.04-.06c-.1-.2-.12-.35-.14-.44 1.1.22 5.6 3.72 8.2 6.36 2.2 2.18 4.97 7.13 6 9.47-1.67-1.6-3.3-2.4-4.8-3m-7.55-13.2c-1.7-1.1-3.28-2-4.9-4.4-2.2-3.3-2.43-7-2.43-8.4 0-.4.02-.7.02-.7v-.1l-.03-.08c-.05-.25-.06-.35-.06-.45 1.12.42 5.03 4.54 7.24 7.5 1.8 2.47 3.8 7.7 4.5 10.16-1.47-1.8-2.9-2.76-4.37-3.6m70.78 54.22l-.1-.37-.32.2c.1.05.2.1.4.13m-.4-1.7c-.03-.2-.05-.44-.05-.68 0-.15 0-.3.03-.45.03-.6.15-1.13.33-1.68-2.1-.47-4.33-.8-5.92-.74-3.75.14-9.33 1-10.3 1.7.1.07.2.12.4.2l.1.03.05.05c.07.03 3.84 3.1 8.84 3.14 2.93.02 4.64-.74 6.46-1.54l.13-.05m4.68-2.64c-2.1.78-4.02 8.08-3.8 11.5.1 1.57.88 4.45 3.1 4.3.7 0 1.25-.5 1.6-.93.98-1.17 1.5-3.08 1.3-4.77-.1-.7-.3-1.3-.56-1.88l-.2-.6c-.82 1.23-1.7 2.23-2.35 2.8l-.78-.9c1.5-1.3 4.3-5.2 4.3-8 0-.67-.2-1.7-.45-2.57-.16-.45-.3-.84-.46-1.1-.42.74-.9 1.43-1.46 2.04l-.2.1zm21.5 1.38c.8-.56 1.8-1.08 2.95-1.5-.84-.04-1.98-.06-3.22-.02.14.54.24 1.08.26 1.52m-17.08 3.8l.08.02.23.1c.05-.1.1-.2.1-.3-.02-.13-.1-.28-.17-.48-.35.2-.6.4-.74.56h.54zm8.6-3.16c0-.15 0-.3.04-.45 0-.22.05-.43.08-.64l-.57.2c0 .15.03.3.03.4 0 2.26-.35 3.7-1.2 4.86.65-.04 1.3-.1 2-.25.1-.4.2-.8.36-1.12-.2-.46-.68-1.6-.68-3m-8.6 4.2l-.27-.12c-.3 0-.9-.1-1.2-.5-.13.3-.3.54-.46.78.63.04 1.28.03 1.95-.03v-.1m-.1-2.63c-.1-.5-.2-1-.2-1.6l.04-.46c0-.1.02-.15.03-.23l-.55.1v.1c0 1.1-.05 1.97-.22 2.7.25-.2.57-.4.9-.6m4.57-3.54c-2.1.76-4.04 8.06-3.8 11.5.08 1.55.86 4.43 3.1 4.3.68-.05 1.23-.55 1.58-.97 1-1.2 1.5-3.1 1.3-4.8-.07-.7-.3-1.24-.54-1.83l-.2-.6c-.83 1.23-1.72 2.23-2.36 2.78l-.8-.87c1.5-1.3 4.3-5.2 4.3-8 0-.68-.2-1.72-.46-2.58-.16-.47-.32-.86-.46-1.1-.42.72-.9 1.4-1.46 2.02l-.2.13zm8.84 0c-2.1.76-4.03 8.06-3.82 11.5.1 1.55.88 4.43 3.13 4.3.67-.05 1.23-.55 1.57-.97.98-1.2 1.5-3.1 1.3-4.8-.08-.7-.3-1.24-.55-1.83l-.2-.6c-.86 1.23-1.75 2.23-2.4 2.78l-.75-.87c1.5-1.3 4.33-5.2 4.33-8 0-.68-.24-1.72-.5-2.58-.15-.47-.3-.86-.44-1.1-.43.72-.9 1.4-1.47 2.02l-.25.13zm10.9-1.6c-2.45 1.2-5.44 2.96-7.25 4.26 0 .6-.1 1.1-.2 1.55 1.5.3 5.1.75 8.6-.7 2.7-1.13 3.9-2.6 5.2-4.14 1.05-1.24 2.17-2.52 4.07-3.6-2.6.35-7.66 1.34-10.35 2.66m-110.1-72.5c-1.52-.07-2.63-.37-3.55-.94-.1.37-.1.76-.1 1.18 0 1.6.22 3.53 1.02 5.45 1.1 2.6 2.56 3.8 4.1 5.1 1.27 1 2.55 2.13 3.6 4.02-.32-2.63-1.3-7.67-2.63-10.36-.7-1.44-1.6-3.06-2.5-4.53m.95.03l.1.27v-.28h-.1M45 182.33l-.77.3c.18.67.4 1.27.64 1.82.66.13 1.3.3 1.84.5.5-.2 1.7-.7 3.2-.66l-.1-.4c-2.2-.06-3.6-.5-4.72-1.47m0-8.9c-.05 0-.12.04-.2.08-.16.4-.38 1.1-.58 1.9.9.17 1.8.38 2.5.67.1-.07.2-.1.35-.17-.26-.6-.52-1.18-.8-1.67-.44-.22-.86-.5-1.25-.8m1.7-6.3l.66-.3c-.57-1.7-1.13-3.02-1.5-3.42-.04.1-.1.2-.13.45v.1l-.06.07c0 .03-.6 1-1.1 2.6.76.12 1.5.3 2.14.56m.9 7.5c.16.3.3.6.4.9l1.38-.2-.06-.45c-.66-.02-1.2-.1-1.73-.2m1-8.1c.33-.05.7-.1 1.06-.1.7-2.54 1.4-5.94 1.4-8.26v-.4c-.17-3.75-1.03-9.33-1.74-10.3-.08.1-.14.2-.2.42l-.04.06-.06.05c0 .06-3.06 3.84-3.12 8.8v.2c0 2.8.75 4.5 1.53 6.3.48.97.9 2 1.2 3.2"/><path fill="#FFF" d="M51.65 171.26c-.75-2.1-8.05-4.03-11.5-3.82-1.53.1-4.42.88-4.28 3.12.04.68.54 1.23.95 1.57 1.18.98 3.1 1.5 4.78 1.3.7-.08 1.27-.3 1.86-.55l.6-.2c-1.23-.82-2.23-1.7-2.78-2.35l.88-.76c1.3 1.5 5.2 4.32 8 4.32.67 0 1.7-.3 2.55-.5l1.2-.5c-.7-.46-1.4-.9-2-1.5l-.15-.24zm0 8.9c-.75-2.1-8.05-4.04-11.5-3.83-1.53.1-4.42.88-4.28 3.12.04.68.54 1.23.95 1.58 1.18.97 3.1 1.5 4.78 1.3.7-.08 1.27-.3 1.86-.56l.6-.2c-1.23-.82-2.23-1.7-2.78-2.35l.88-.76c1.3 1.5 5.2 4.32 8 4.32.67 0 1.7-.22 2.55-.46.5-.16.9-.33 1.2-.47-.7-.43-1.4-.92-2-1.47l-.15-.23zm0 8.88c-.75-2.1-8.05-4.03-11.5-3.82-1.53.1-4.42.88-4.28 3.12.04.68.54 1.23.95 1.58 1.18.98 3.1 1.5 4.78 1.3.7-.08 1.27-.3 1.86-.55l.6-.2c-1.23-.83-2.23-1.72-2.78-2.36l.88-.7c1.3 1.5 5.2 4.37 8 4.37.67 0 1.7-.23 2.55-.47.5-.16.9-.33 1.2-.46-.7-.43-1.4-.9-2-1.47l-.15-.25zM231 167.2c.32-.12.66-.23 1.02-.32l-.5-.57c-1.07-1.3-2.16-2.6-2.9-4.8-.03.5-.05 1.2-.05 1.9 0 1 .04 2.1.1 3.25 1.12.1 2 .48 2.34.65m0 8.87c1.2-.46 2.8-.7 4.2-.8 0-.32 0-.65-.03-1-.47-.1-.87-.27-1.24-.42 0 0-.86-.3-1.13-.37-.7.56-1.47.94-2.45 1.2.14.4.3.85.48 1.27.1.03.18.1.24.1m-1.4-.5l-.05-.1v.1h.04m1.4 9.4c1.14-.46 2.66-.7 4.06-.8l.03-.98-.74-.23c-.1.1-.24.12-.4.13-.34.04-.72-.23-1.1-.7l-.14-.06c-.66.57-1.4.95-2.34 1.18.1.44.24.87.36 1.3l.3.13m-2.8 7.73c-.2 1.28-.33 2.5-.33 3.5v.4c.14 3.78 1 9.36 1.72 10.3.07-.06.13-.2.2-.4l.03-.07.06-.06c0-.06 3.06-3.84 3.1-8.8v-.2c0-2.4-.53-4-1.2-5.5-.9.5-2.04.76-3.6.82"/><path fill="#FFF" d="M235.55 169.57l.9.76c-.56.64-1.56 1.53-2.77 2.36l.58.1c.6.24 1.15.46 1.87.55 1.68.2 3.6-.33 4.77-1.3.42-.35.9-.9.95-1.58.14-2.25-2.74-3.03-4.3-3.13-3.43-.2-10.73 1.75-11.47 3.8l-.16.27c-.6.56-1.3 1.04-2.04 1.47.26.15.66.3 1.12.47.85.22 1.88.44 2.56.44 2.8 0 6.7-2.8 8-4.3m0 8.92l.9.76c-.57.64-1.57 1.53-2.78 2.36l.58.2c.6.24 1.15.46 1.87.55 1.68.2 3.6-.3 4.77-1.3.42-.34.9-.9.95-1.57.14-2.24-2.74-3.02-4.3-3.12-3.43-.2-10.73 1.76-11.47 3.85l-.16.23c-.6.52-1.3 1-2.04 1.44.26.13.66.3 1.12.46.85.26 1.88.5 2.56.5 2.8 0 6.7-2.8 8-4.33m0 8.88l.9.77c-.57.67-1.57 1.56-2.78 2.4l.58.2c.6.23 1.15.46 1.87.54 1.68.2 3.6-.32 4.77-1.3.42-.34.9-.9.95-1.57.14-2.24-2.74-3-4.3-3.12-3.43-.2-10.73 1.74-11.47 3.83l-.16.23c-.6.52-1.3 1-2.04 1.45.26.14.66.3 1.12.46.85.3 1.88.5 2.56.5 2.8 0 6.7-2.8 8-4.3M151 84.5c1-.4 1.75-.74 2.04-1-.1-.05-.22-.1-.43-.14l-.06-.06c-.02 0-.35-.2-.93-.46-.13.64-.33 1.17-.53 1.66m17.55 2.23l-.1-.03-.04-.05c-.06-.04-3.83-3.1-8.8-3.15-2.94-.03-4.66.73-6.48 1.54-.73.33-1.5.65-2.33.9.37.52.66 1.1.86 1.74 2.4.56 5.1 1.02 6.98.95 3.77-.15 9.35-1 10.3-1.72-.1 0-.2-.1-.4-.1m-25.86-4.4c-.1.9-.36 1.57-.6 2.18l-.4 1.12c.3.35.55.73.76 1.14l.65-.1.9-.2c-.4-1.52-.55-3.34-.55-4.68v-.35h-.16l-.54.1c0 .2 0 .5-.04.8m-17 .9c-1.8-.2-4.5-.14-7.14.95-2.7 1.1-3.9 2.57-5.15 4.12-1.05 1.25-2.16 2.53-4.06 3.6 2.6-.34 7.67-1.33 10.36-2.64 2.06-1 4.5-2.4 6.3-3.6-.17-.8-.27-1.62-.32-2.4m7.95 3.3l1.6.17c-.15-.54-.3-1.16-.4-1.8-.54.27-1.14.53-1.8.75.24.28.44.57.6.9m.33-4.24c-.1.86-.4 1.55-.65 2.16v.02c.47-.2.95-.43 1.4-.66-.1-.76-.12-1.5-.12-2.15v-.07h-.04l-.56.17v.5m-7.5 5l-.2-.6c-.7.4-1.46.8-2.35 1.1.6.02 1.4.03 2.3.03.07-.22.15-.4.2-.54m1.2 6.02l.1.17v.02l2.26-.3c-1.14-.56-2.1-2.14-2.8-4.05-.1.5-.2 1.04-.2 1.5-.03.3 0 .6.03.9.1.55.3 1.1.6 1.7m8.66-.54l1.83-.05c-.8-.76-1.5-2.04-2.07-3.52-.1.54-.2 1.08-.2 1.54-.03.3 0 .6.02.9.1.4.2.77.4 1.16m8.9.15c.77.06 1.53.1 2.28.2-1.04-.65-1.9-2.1-2.56-3.88-.12.54-.2 1.08-.2 1.54 0 .28 0 .6.04.9.1.4.24.83.43 1.27m82.42 74.67c-.3 0-.6 0-.92.03-.55.15-1.1.3-1.68.6l-.2.15-.2-.1-.2-.08c-.3.1-.57.24-.84.37.1 1 .2 2 .27 3.04.45-.3.87-.6 1.25-.95.56-1.16 2.15-2.13 4.08-2.85-.5-.1-1.06-.2-1.5-.2m0 8.9c-.3 0-.6.02-.93.06-.54.15-1.1.3-1.67.65l-.2.1-.2-.08-.2-.1-.4.16v.03c0 1.07-.02 2.1-.07 3.14.4-.27.77-.55 1.1-.86.55-1.15 2.14-2.12 4.07-2.84-.5-.1-1.06-.2-1.5-.2m0 8.86c-.3 0-.6 0-.93.04-.56.15-1.1.3-1.7.65l-.2.1-.2-.1-.2-.08-.9.4c-.1 1.17-.25 2.3-.4 3.47.7-.4 1.36-.88 1.96-1.4.56-1.16 2.15-2.1 4.08-2.85-.5-.1-1.05-.2-1.5-.2m-82.8 77.8c.37-.66.76-1.2 1.16-1.66l-1.3.1c.03.53.1 1.06.15 1.56m2.2-1.73l.3.4c-.65.52-1.5 1.72-2.03 3.18l.04.23.1.2-.1.2c-.3.6-.5 1.12-.62 1.68-.04.3-.05.6-.05.93 0 .4.1 1 .2 1.5.73-1.96 1.7-3.55 2.85-4.1.6-.66 1.8-2.25 2.5-4.55-1.06.15-2.1.25-3.2.34m-10.1.33l-1.08-.06c0 .5.05 1 .13 1.5.3-.55.6-1.03.95-1.43m2.47.02h-.98l.05.05c-.7.5-1.5 1.75-2.05 3.2l.05.2.1.2-.1.2c-.3.6-.5 1.16-.62 1.7-.03.3-.06.6-.06.9.03.48.1 1 .23 1.5.72-1.9 1.68-3.5 2.84-4.02.56-.64 1.6-2 2.3-3.94l-1.75.03m-12.32 1.4c.48-.9 1.03-1.6 1.58-2.1-.6-.07-1.2-.16-1.77-.25.03.75.1 1.55.2 2.3m1.97-2.04l.5.7c-.7.5-1.5 1.74-2.07 3.2l.08.2.1.2-.1.2c-.3.6-.5 1.14-.6 1.7-.06.3-.1.6-.1.9 0 .46.1 1 .24 1.5.7-1.9 1.7-3.5 2.83-4.04.57-.64 1.7-2.1 2.4-4.17-1.13-.1-2.2-.2-3.3-.36m-73.74-75.6h-.2l.2.1v-.12m.16 1.63c-.6-.43-1.36-.84-2.2-1.17-.1.03-.16.04-.23.1l-.2.1-.2-.1c-.6-.35-1.13-.5-1.68-.66-.3-.05-.6-.07-.9-.06-.48 0-1 .1-1.53.2 1.92.75 3.5 1.7 4.05 2.87.94.84 2.1 1.54 3.3 2.05-.16-1.1-.3-2.2-.44-3.32m-.57-9.28c-.5-.3-1.05-.57-1.64-.8l-.23.07-.2.06-.2-.1c-.6-.3-1.13-.5-1.68-.65-.3 0-.6-.03-.9-.02-.48 0-1 .1-1.53.2 1.94.73 3.5 1.7 4.06 2.86.7.6 1.5 1.14 2.36 1.6-.04-1.1-.07-2.2-.08-3.3m.5-10.14l-.3.04.3.2v-.23m-.14 1.5c-.55-.36-1.24-.72-2-1l-.22.1-.2.1-.2-.14c-.6-.3-1.12-.5-1.67-.6-.3-.05-.6-.07-.9-.06-.45 0-1 .1-1.5.2 1.93.73 3.5 1.7 4.06 2.86.7.63 1.53 1.2 2.42 1.64.03-1 .1-2.03.2-3.05"/><path fill="#FFF" d="M130.57 92.33l.24.15.6.68c.5-.04 1-.1 1.5-.13.2-.77.4-1.6.4-2.18 0-2.8-2.8-6.7-4.3-8l.74-.9c.64.56 1.5 1.56 2.36 2.78l.2-.6c.23-.58.47-1.14.56-1.85.2-1.7-.33-3.6-1.3-4.78-.35-.4-.9-.9-1.57-.95-2.28-.14-3.05 2.74-3.15 4.3-.23 3.43 1.7 10.73 3.8 11.48m8.9 0l.2.15.23.3c.6 0 1.23 0 1.84.02.2-.7.3-1.43.3-1.95 0-2.8-2.8-6.7-4.3-8l.76-.9c.63.56 1.52 1.56 2.35 2.78l.2-.6c.2-.58.46-1.14.54-1.85.2-1.7-.34-3.6-1.3-4.78-.36-.4-.9-.9-1.6-.95-2.24-.14-3.02 2.74-3.12 4.3-.23 3.43 1.7 10.73 3.8 11.48m8.9 0l.24.15c.2.28.44.56.66.86l1.2.14.06-.14c.23-.85.45-1.85.45-2.5 0-2.8-2.8-6.7-4.32-8l.75-.88c.62.55 1.5 1.55 2.35 2.77l.18-.6c.24-.58.47-1.14.56-1.85.2-1.7-.3-3.6-1.3-4.78-.36-.4-.9-.9-1.6-.95-2.24-.14-3 2.74-3.1 4.3-.2 3.43 1.73 10.73 3.8 11.48m29.73 149.8l-5-.96 4.58-2.38-.54-5.4 4.06 3.5 4.56-2.37-2.2 4.72 3.78 3.7-5.45-.52-2.7 4.76M104.9 243l5-1-4.6-2.4.6-5.33-4.1 3.54-4.55-2.35 2.22 4.7-3.8 3.7 5.47-.54 2.72 4.75m-14-20c.43-.4 1.64-1.6-.1-3.46-.25-.25-1.56-1.66-2.8-.5-.5.45-.63 1-.13 1.92l1.9 3.4c.54.97 1.9 3.47-.34 5.57-1.8 1.64-4.7 1.77-7.86-1.6-4.1-4.43-2-6.75-.87-7.83l2.96 3.18c-.32.3-1.5 1.37-.1 2.87.85.92 1.88 1.04 2.52.44.76-.8.3-1.6 0-2.2l-1.45-2.6c-1.02-1.88-2.23-4.08.05-6.2 2.4-2.25 5.5-1.1 8.1 1.75 1.1 1.17 2.7 3.23 2.58 5.3-.1 1.63-1.16 2.64-1.6 3.1l-2.94-3.17zm-6.3-10.02l-2.1-3.12 2.54-1.7 2.1 3.16m-17-10.15c-1.28.8-1.34 2-.85 3.13 1.06 2.37 3.45 2.17 5.9 1.08.83-.35 4.22-1.9 2.87-4.9-.92-2.1-2.45-1.68-3.02-1.5L72.1 200c4.24-1.85 6.6 2.5 7.4 4.33.6 1.37 1.48 3.9.6 6.16-.87 2.2-2.9 3.4-4.3 4.1-1.84.8-3.9 1.2-5.9.5-2.23-.8-3.46-2.5-4.37-4.5-1.02-2.3-1.28-4.3-.65-5.9.65-1.7 1.86-2.2 2.35-2.5l1.8 4.02zm4.32-9.3l-.92-3.64 2.96-.75.92 3.68M63.7 177c-1.48.2-2 1.3-1.98 2.53.06 2.6 2.35 3.35 5.04 3.28.87 0 4.6-.1 4.5-3.4-.04-2.26-1.62-2.46-2.2-2.53l-.1-4.44c4.6-.1 5.1 4.83 5.16 6.85.04 1.5-.14 4.17-1.82 5.9-1.68 1.75-4 2.1-5.54 2.14-2 .06-4.04-.4-5.64-1.8-1.76-1.53-2.25-3.56-2.3-5.8-.06-2.5.46-4.43 1.66-5.7 1.24-1.26 2.56-1.3 3.1-1.35l.1 4.4zm3.75-11.14c-2.46-.54-4.57-1.8-3.96-4.56.2-.93.6-1.87 1.6-2.3.7-.3 1.8-.6 3.8-.16 2 .44 4.5 1.52 3.82 4.5-.63 2.8-3.05 3-5.35 2.5m-.9 4.32c5.35 1.18 8.3-2.1 9.2-6.12.8-3.6 0-8.26-5.78-9.52-3.5-.77-8-.04-9.33 5.98-.22 1.12-.7 4.04.7 6.35 1.4 2.3 4.26 3.1 5.2 3.32m2.36-24.57l.72-1.44c.53-1.1 1.27-2.6 2.9-1.8.42.2 1.16.77 1 1.74-.05.38-.25.8-.67 1.65l-.7 1.45-3.2-1.6zm8.9 9.16l1.9-3.86-5.17-2.54.8-1.6c.8-1.74 1.42-1.5 3.1-.9 1.24.44 2.3.83 3.2 1l2.06-4.18c-1.1-.13-2.63-.63-3.6-.94-2.2-.7-3.4-1.1-4.8 1.56l-.06-.03c.14-.4.47-1.3.37-2.45-.05-.84-.37-1.77-1.82-2.47-1.4-.7-2.4-.53-3-.3-1.2.43-1.82 1.3-3.05 3.8l-3.18 6.43 13.23 6.48zm9.48-16.58l-2.55 3.6-12-8.53 2.54-3.6zm10.4-25.48l-4.02 2.44-1.5-2.5 11.85-7.2 1.5 2.5-4.1 2.5 6.13 10.1-3.7 2.24m3.85-19.05l4.1-1.37 1.9 5.45 4.9-1.6-1.82-5.43 4.13-1.4 4.7 14-4.13 1.4-1.9-5.67-4.9 1.64 1.9 5.65-4.1 1.4m12.94-19.1l4.37-.7 2.24 14.54-4.37.68m11.92-6.82l2.3-6.1h.07l1.9 6.25-4.2-.1zm-6.5 5.5l4.3.1 1.12-2.9 6.2.18 1 2.97 4.83.12-5.8-14.9-5.22-.13-6.5 14.54zm22.16-13.5l5.7 1.68 1.97 12 3-10.55 3.6 1.04-4.08 14.15-5.56-1.6-1.96-12.5-3.13 11-3.62-1m21.76 2.84c-.3.54-1.1 2.02 1.12 3.3.4.17 2 1.13 2.9-.32.36-.6.3-1.15-.44-1.9l-2.82-2.7c-.8-.75-2.84-2.73-1.3-5.4 1.17-2.07 3.92-3.07 7.93-.77 5.2 3 3.9 5.84 3.12 7.22l-3.78-2.18c.2-.4 1.03-1.77-.75-2.8-1.06-.6-2.1-.4-2.5.35-.56.93.13 1.63.6 2.08l2.14 2.1c1.52 1.5 3.33 3.2 1.8 5.9-1.65 2.88-4.94 2.68-8.3.76-1.4-.8-3.5-2.3-4-4.3-.4-1.6.3-2.87.6-3.43l3.74 2.1zm24.1 9.38l1.26 1.43c.82.92 1.76 2.13.4 3.32-1.46 1.3-2.58.04-3.3-.75l-1.26-1.4 2.9-2.6zm-11.82 4.78l2.87 3.22 3.96-3.6 1.88 2.07c.55.64 1.8 2 3.06 2.5.63.25 2.62.8 4.55-.93 1.43-1.28 1.83-2.8 1.52-4.3-.2-1.43-1.3-2.6-2.1-3.5l-4.7-5.3-11 9.8zm15.9 10.93l6.44-1.2.1.06-4.35 4.8-2.1-3.64zm-8.06-2.7l2.2 3.74 3.1-.58 3.08 5.4-2.03 2.4 2.4 4.2 9.76-12.6-2.6-4.56-15.8 2zm23.8 15.1l-8.4 2.4c-.74.22-1.5.5-2 1.1-.6.77-.7 1.84-.4 2.85.74 2.62 2.87 2.38 4.3 1.98l8.26-2.37 1.14 4-8.2 2.37c-1.58.5-3.35.78-4.66.1-2.1-.9-3.2-3.5-3.74-5.4-2-7 2.12-8.2 4.45-8.9l8.07-2.23 1.2 4.15zm3.57 15.34l.25 4.32-11.8.7.4 6.93-2.9.1-.65-11.26m0 16.8l.37-4.43 14.7 1.23-.38 4.43zm3.6 7.1c-.6-.1-2.25-.5-2.88 2-.07.36-.54 2.23 1.1 2.63.65.2 1.2 0 1.7-.94l1.82-3.45c.5-.97 1.85-3.48 4.83-2.73 2.33.6 4.02 2.97 2.9 7.45-1.5 5.86-4.58 5.35-6.1 4.98l1.06-4.2c.4.1 1.96.5 2.46-1.5.3-1.2-.15-2.13-1-2.34-1.05-.26-1.54.6-1.85 1.15l-1.4 2.62c-1 1.87-2.2 4.1-5.2 3.32-3.2-.8-3.9-4.04-2.94-7.8.4-1.57 1.3-4.02 3.1-5.02 1.42-.8 2.83-.47 3.44-.34l-1.06 4.17zm1.7 17.3l2.07-4.22 2.65 1.3-6.1 12.4-2.64-1.3 2.1-4.32-10.6-5.2 1.9-3.86m-1.76 14.48l3.63 5.44-.04.05-6.16-2.17 2.55-3.32zm-.66-8.48l-2.6 3.4 1.72 2.62-3.76 4.9-3-.94-2.9 3.85 15.4 4.1 3.2-4.16-8.04-13.78zm-77.5 33.9c-1.34.57-3.2.78-3.96.78l.78-3.04c1.8-.04 2.86-.23 4.72-1.1l3.36.87-3.55 13.7-4-1.05 2.6-10.2zm13.46 5.33c-1.7-.12-2.18-1.34-2.1-2.4.08-1.22.87-2.14 2.45-2.04 1.8.1 2.2 1.4 2.1 2.4-.07 1.2-.9 2.1-2.5 2m-6.27 3.45c0 .6 0 1.55.77 2.4 1.15 1.3 2.86 1.8 4.76 1.94 1.8.12 3.8-.1 5.28-1.66 1.43-1.5 1.88-3.6 2-5.24.1-1.45 0-2.93-.5-4.3-.45-1.27-1.5-3.4-5.44-3.66-3.73-.24-6.3 1.62-6.5 4.5-.1 1.27.32 2.44 1.1 3.34.74.8 1.7 1.4 3.7 1.54 1.8.14 2.8-.45 3.57-1.2-.23 2.53-.63 4.3-2.9 4.15-1.2-.1-1.9-.77-1.87-1.57l-3.93-.26zm19.65-6.66c-1 1.03-2.7 1.9-3.37 2.2l-.4-3.1c1.63-.75 2.56-1.3 3.97-2.8l3.46-.45 1.76 14.05-4.1.5-1.3-10.4zm12.54 1.05c-1.3-4.07-.44-4.86.7-5.22 1.3-.4 1.9.4 2.2.84.63.9 1.2 2.46 1.4 3.13.1.3.8 2.56.5 3.8-.13.6-.67 1.1-1.3 1.3-1.7.56-2.6-.9-3.5-3.8m-4 1.24c.43 1.33 1.42 3.67 3.5 4.87 1.44.86 3.2.8 4.86.3 4.5-1.44 5.1-5.2 3.86-9.05-.85-2.7-2.07-4-3.35-4.76-.86-.56-2.4-1.2-5.1-.33-1.3.4-3 1.27-3.8 3.1-.92 2.15-.4 4.6 0 5.87m9.6-43.4c-8.17 5-15.25 9.33-23.9 12 2.15 3.1 5.6 2.54 6.63 2.3 7-2.2 13.9-6.57 21.17-11.18 7.77-4.9 15.8-9.97 25.4-13.63-.42-.77-.7-1.5-.9-2.2-.2-.63-.4-1.24-.75-1.86-11.33 4.54-20 9.85-27.65 14.56m-10.1-5.7c-5.46 1.6-10.65 4.1-15.5 6.5-.35 1-.53 1.94-.53 2.9 0 .5.07 1 .16 1.54l1.2-.6c5.26-2.4 10.23-4.62 15.26-8.62.24-.5.4-.9.4-1.18 0-.12-.05-.2-.1-.28-.1-.2-.46-.3-.93-.33m35.2-14.6l-1.08-2.26-.7-1.54c-10.9 3.2-21.16 8-29.6 13.94 0 .22.36 3.86.42 4.5 11.04-7.4 21.17-12.2 30.94-14.67M89.2 136.46l7.22 8.68-6.7 3.1-.54-11.77m-1.13-1.5L88 133.4l1.36 1.66L91 133.5l-8.05-8.16 11.83 4.45 4.13-4.1-10.3-10.53L86 117.8l7.7 7.8-11.4-4.17L78 125.6l10.05 10.3m21.73 56.8l-4.2-1.5 2.56 8 4.3 1.63-2.66-8.1m-5.33-16.1l-3.95-1.5 2.52 8.22 4.17 1.53-2.8-8.24m10.63 32.07c-.38-.1-3.3-1.1-4.6-1.6l2.57 8.17 4.7 1.76c-.52-1.6-2.54-7.83-2.7-8.25m-15.83-48.1l-3.7-1.4 2.45 8.05 3.93 1.46-2.66-8.1m-4.3-13.47l-2.8 1.2c.2.65.8 2.86.9 3.26l3.7 1.36c-.44-1.4-1.6-5.03-1.84-5.84m25.4 77.4l-4.7-1.76 2.58 8.15c.35.17 3.43 1.35 4.78 1.9l-2.66-8.24"/><path fill="#ED3526" d="M98.1 149.27c.02 0 .04.05.04.05l1 2.12c2.54 4.23 5.46 11.1 9.15 21.55l5.3-3c6.5-3.8 13.8-7.58 22-9.2 1.4-.36 2.7-.58 4-.7-.7-5.84-1.6-11.57-2.4-17.1l-1.5-10.24c-10.2 2.1-22.58 7.46-37.6 16.42"/><path fill="#FFF" d="M130.6 139.56l.05 2.1 1.4-1.64 2.08.55-1.2-1.7 1.17-1.72-1.94.6-1.34-1.63-.15 2.1-1.96.63m5.8 18.75l.1 2.05L136 158l2.1.5-1.23-1.7 1.2-1.7-1.94.6-1.34-1.67-.17 2.12-1.98.6M110.1 168.2l.03 2.1 1.4-1.64 2.07.54-1.2-1.7 1.17-1.7-1.93.6-1.35-1.67-.2 2.15-1.98.6m-5-15.52l.05 2.1 1.4-1.66 2.07.55-1.2-1.7 1.12-1.77-1.94.62-1.33-1.66-.2 2.1-1.96.62m30.36 1.6c-.26-14.34-23.2-14.37-22.9-.02.3 14.4 23.24 14.4 22.9.04"/><path fill="#01539B" d="M111.55 153.94c-.02-.1.04-.16.03-.3.03 0 .06-.08.1-.08l-.04-.17h.04c.13-.5-.14-.4.22-.8l-.02-.1c.2-.1.43-.2.5-.4.02 0 .1-.1.08-.1l.6-.2c-.04-.3.15-.8.1-1.1.08-.12.02-.3 0-.46l-.03-.07h-.18c-.04-.1-.08-.15-.2-.15l-.03-.04-.02-.2.12-.04c-.02-.08.04-.02.04-.1l.13-.04-.1-.18-.15.07c0-.08-.06-.18-.1-.15v-.13c.26-.1.86-.54 1.1-.3.2-.06 1.23.16 1.34-.22l.1-.02c.02-.07.07-.16.15-.18 0-.16.14-.27.06-.46-.06 0-.1-.05-.17-.04 0 0-.1 0-.1-.07 0 0-.05-.03-.13 0l-.02-.03v-.1l-.12-.02c0-.02 0-.2.06-.2 0-.02.06-.1.03-.1l1.38-.5.03-.16c.02 0 .07-.05.1-.05 0-.15.08-.2.15-.2v-.1l.1-.07.05-.08c.16-.07.33.1.47.07 0 0 0 .1.1.05 0 .1.05.2.06.3-.08.02-.22.24-.28.3l-.03.1.04.37c.07.03.16.16.2.2-.13-.17-.04-.04 0 .08.06 0 .1 0 .1.07-.05-.06 0-.04.06-.02-.1-.07-.06-.05.02.05l.35-.18c0-.04.05-.08.05-.13.14-.08.34-.2.54-.28v-.24c.03 0 .1-.04.1-.1.05 0 .03-.1.03-.13.2-.05.65-.37.8-.2l.4-.15.04-.08c.06-.05.2-.1.25-.17l.02-.1c0-.03.05-.05.1-.1l.04-.05-.04-.1c.06 0 .05-.06.05-.07l.03-.1c.03 0 .14-.05.13-.1.07-.03.08-.15.13-.15l-.07-.16.04-.08.15-.05.1.02v.1c.06.05.1.13.1.28.07 0 .1.1.1.2 0 0 .14.18.14.28.1 0 .3.1.4.07v.25c-.08.05-.4.47-.4.54-.06 0-.1.1-.16.1l-.03.05c.03-.06 0 0 0 .05v.1c-.05 0-.06.08-.1.08v.1c.03-.02.06 0 .07.04.06 0 .08.05.08.1.04 0 .1.02.14 0l.05.03c0 .1 0 .1.08.06 0 .06.17-.03.2.06.27-.1.55-.23.7-.56.03 0 .1-.06.1-.06.1-.04.54-.34.57-.12.07 0 .5-.1.5-.06l.1-.02.03.07c.13.02.4-.13.5-.07v.1c.07 0 .27.16.28.2.04 0 .54-.35.54-.2l.23-.1c.12.1.58-.07.77-.13 0 .08.34-.22.35 0 .12-.07.13-.04.2.05.03-.02.14 0 .2 0l.04.02c0 .06.1.1.2.06 0 .02.2.1.3.07 0 .12.24.1.33.06 0 .12.3 0 .44-.03 0 .02 0 .02.05.02 0 0 .14.1.2.05 0 .08.1.14.15.1h.1c0 .1.1.24.1.24.06.3.1 1.34-.2 1.4.04.1.04.1-.03.1 0 .1-.04.2-.07.2v.1c-.1.05-.1.1-.15.17l-.1.12v.1c-.03 0-.06.03-.1.05 0 .02-.07.24-.15.28 0 .1-.06.2-.17.25 0 .06-.03.1 0 .15h-.1c0 .1-.2.27-.2.37l-.3.1-.07.1.06.8c-.07.12.12.6 0 .72 0 .24-.2.5-.18.8-.14.2-.05.54-.16.67v.1c-.04 0-.05.1-.12.14.1-.13.1-.02 0 .08 0 .04 0 .14-.05.15 0 .1-.1.13-.07.24l-.03.05-.04.05-.1.05v.1c-.1 0 .05.06-.1.1 0 .13-.05.24-.03.3l-.04.07c-.06 0-.15.1-.1.16-.1.02-.2.12-.18.2-.16 0-.84.1-.8.3-.1.06-.43.1-.4.25-.2.1-.7.24-.77.45-.06 0-.14.17-.17.23-.07 0-.17.06-.17.14-.1.02-.1.14-.16.2 0 0-.03.03-.03.07-.03.05-.1.15-.13.15 0 .04-.1.37-.14.4.08.43.12.86 0 1.3-.1.03-.16.1-.16.2-.03 0 .04.03-.03.05v.13c-.06 0-.08.15-.06.24 0-.24 0-.08-.05.02v.1c-.06 0-.06 0-.04.1-.07 0-.18.16-.18.16l-.04.05c-.05 0-.16.18-.16.2-.05.03 0 .05-.1.1v.1l-.1.04c0-.1-.06-.2-.06-.28.1-.06.04-.06.1-.06 0-.06.03-.02.03-.13.1 0 .07-.1.1-.1 0-.1.06-.17.1-.22l-.24.1c.02.08-.03 0 0 .1-.13.04-.1.13-.13.13 0 .07-.04.13-.04.18-.1.03-.05.05-.1.06 0 .14-.08.54-.15.55 0 .1.06.16-.02.2 0 .1-.04.2-.1.27l-.12.08v-.2c.16-.06-.23-.37-.25-.37 0-.1-.04-.02-.04-.06-.05 0-.26-.14-.26-.14l-.1.04c-.04-.03-.24.06-.3.1 0-.13-.12-.13-.15-.14-.2.05-.4 0-.6.06-.04-.2.26-.4.23-.5.1-.02.2-.07.2-.16.02 0 .1-.03.1-.1l.1-.03c0-.04.04-.1.02-.1.18-.1.1-.4.3-.5 0-.05.15-.16.18-.26.04 0 .1-.04.1-.12.16-.04.15-.17.2-.2v-.33c-.03 0-.1-.1-.15-.15-.15.06-.27-.07-.3-.07l-.08-.58c-.15.06-.3.08-.43.1 0-.02 0-.04-.07-.02v-.4l-.16-.04c-.03-.1-.1-.1-.1-.15-.05.06-.1 0-.1-.04-.18.07-.45.08-.67.14-.1-.24-.07-1.05-.25-1.08-.07-.4-.36-.6-.4-1-.05.04-.13-.1-.15-.2-.02 0-.1 0-.1-.05-.2.08-.32.1-.5.15l-.03-.06-.03-.1-.1-.6c-.2.08-.6.1-.84.2-.05-.06-.1-.05-.2 0 0-.07-.1.02-.1-.07-.14 0-.26-.05-.34-.1-.13.02-.54-.1-.57-.2-.05 0-.08 0-.1-.04l-.04-.06c-.02.03-.13-.03-.13-.03l-.05-.1-.13-.3v-.1h-.05c-.15 0-.34.04-.52.1-.04.06-.1.13-.08.2-.08.02-.14.07-.14.1-.04.07-.1.2-.23.24l-.06.16h-.05s-.1.14-.1.17l-.1.04c-.06.13-.45.2-.58.2v-.07h-.2c0-.03-.03-.3-.05-.27 0-.07-.04-.1-.04-.14l-.37.12s-.1.1-.1.16c-.07.02-.27.14-.3 0-.06.05-.14.02-.17.02l-.1.03v-.03l-.07-.04c0-.05 0-.05-.07-.04-.04-.08-.1-.26-.18-.25 0-.04-.02-.06-.06-.06 0-.1-.08-.22-.1-.22m10.8-7.06c-.06.04-.78.06-.76.23l-.13.05.03.1c-.05.05-.04.16-.03.2l-.06.06.08.03v.06l.07.03.05-.05c.03.04.05-.02.06.04.06-.03.2-.1.2 0 .2-.06.32-.2.47-.26-.02 0 .04-.1.05-.1 0-.06 0-.1.05-.1l-.04-.17v-.1l.04-.04z"/><path fill="#FFF" d="M156.38 142.18c-5.46-6.02-12.17-4.88-19.15-2.95.13.65.2 1.35.23 2.04.04.83.1 1.67.3 2.45 6.23-2.4 12.04-2.06 18.2 1.06.13-.87.27-1.73.42-2.6m-1.03 6.82c-5.58-1.93-11.47-1.8-16.63.37l.45 2.44.45 2.6c1.92-.9 11.06-2.7 15.12 0 .18-1.74.38-3.53.6-5.33m1.26-.42c-.26 1.9-.48 3.8-.67 5.68l3.6-2.1c4.4-2.67 8.56-5.2 20.82-9.14.03-.27.3-4.6.35-5.2-11.04 4.03-16.6 6.26-24.1 10.8m-1.4 17.3l1.3-.87c5.86-4 13.17-8.93 24.82-10.3l-.7-5c-10.77 2.5-17.05 5.8-25.22 11.27-.1 1.65-.18 3.3-.22 4.9m-.98-4.67c-2.95-.44-7.5-.76-8.93-.76-12.74 0-23.23 5.76-33.38 11.36l-3 1.62 1.5 3.8 6.6-3.3c11.62-5.9 24.76-12.55 36.94-8.42.04-1.42.1-2.86.2-4.3m1.14 16.03l.84-.53c8.1-5.1 16.45-10.33 26.9-11.72-.3-.9-.4-1.9-.4-2.82-.02-.76-.06-1.5-.23-2.16-9.58 2.2-17.83 5.8-27.34 11.9.03 1.8.1 3.58.2 5.36m-1.3-4.7c-14.1-4.94-27.8 3.1-41.05 10.93.2.66.3 1.37.36 2.1.1.8.2 1.6.47 2.38 12.72-7.83 25.4-14.44 40.5-10.25-.1-1.7-.18-3.45-.22-5.17m30.63-1.2c-11.4 3.03-19.75 7.6-28.62 13.45.18 1.6.38 3.17.6 4.74l3-1.8c7.77-4.74 16.54-10.1 26.84-11.66l-1.8-4.74m-30.02 11.5c-14.14-2.86-24.43 3.17-37.4 10.8l-1.4.8.3.87 1.16 3.43 4.8-2.9c9.9-6 19.26-11.7 33-8.75-.2-1.4-.35-2.8-.48-4.2m1.2 9.08c-12.2-2.3-21.25 3.15-31.7 9.47l-5.92 3.5.18.58 1.26 3.7 5.04-3.16c10.03-6.45 18.75-12 31.86-10.17-.26-1.3-.48-2.6-.7-3.9"/></svg>