<svg xmlns="http://www.w3.org/2000/svg" width="414.3" height="413.5" viewBox="0 0 414.3 413.5"><path fill="#006755" d="M207.2 0C92.8 0 0 92.5 0 206.6 0 321 92.8 413.5 207.2 413.5S414.3 321 414.3 206.6C414.3 92.5 321.6 0 207.2 0"/><path fill="#FFF" d="M207.2 405.2C97.8 405.2 8.6 316.3 8.6 206.6 8.6 97.2 97.8 8.3 207.2 8.3c109.4 0 198.3 88.9 198.3 198.3 0 109.7-88.9 198.6-198.3 198.6"/><path fill="#006755" d="M375.8 118c-3-5.8-6.4-11.4-10.2-16.9-6.9-10.5-15-20.5-24.1-29.4-3-3-6.1-6.1-9.4-8.9-2.8-2.2-5.5-4.7-8.3-6.6-3-2.5-6.1-4.7-9.4-6.9-.8-.6-1.7-1.1-2.5-1.7-3-2.2-6.4-4.2-9.7-6.1-3.9-2.2-7.8-4.4-11.9-6.4-3.9-1.9-8-3.6-11.9-5.3-13.3-5.3-26.9-9.1-41.3-11.4-6.6-1.1-13.3-1.7-20.2-2.2-3.3 0-6.7-.3-9.7-.3-1.1 0-2.5.3-3.9.3-6.4 0-12.5.6-18.8 1.1-5.5.8-10.8 1.7-16.3 2.8-5.3 1.1-10.8 2.5-16.1 4.2-5 1.4-10.2 3.3-15.2 5.3-11.1 4.4-21.6 9.7-31.3 16.1-3.9 2.2-7.5 4.7-11.1 7.5-.6.6-1.4 1.1-2.2 1.7-.6.6-1.4 1.1-1.9 1.4-2.5 1.9-4.7 3.9-6.9 5.8-1.9 1.7-3.9 3.3-5.8 5.3-2.8 2.5-5.8 5.3-8.3 8-1.7 1.7-3 3.3-4.7 5-6.4 7.5-12.5 15.5-18 23.8-4.2 6.6-8 13.6-11.4 20.8-11.9 24.9-18.6 52.3-18.6 81.7s6.6 57.1 18.6 81.7c3.3 7.2 7.2 14.4 11.4 21.1 5.5 8.3 11.6 16.3 18 23.8 1.7 1.7 3 3.3 4.7 4.7 2.5 3 5.5 5.8 8.3 8.3 1.9 1.9 3.9 3.6 5.8 5.3 2.2 1.9 4.4 3.9 6.9 5.5.6.6 1.4 1.1 1.9 1.7.8.6 1.7 1.1 2.2 1.7 3.6 2.5 7.2 5 11.1 7.5 9.7 6.1 20.2 11.6 31.3 16.1 5 1.9 10.2 3.6 15.2 5.3 5.3 1.7 10.8 3 16.1 4.2 5.5 1.1 10.8 1.9 16.3 2.5 6.4.8 12.5 1.4 18.8 1.4h3.9c3 0 6.4 0 9.7-.3 6.9-.3 13.6-.8 20.2-1.9 14.4-2.2 28-6.1 41.3-11.4 3.9-1.7 8-3.6 11.9-5.5 4.2-1.9 8-3.9 11.9-6.4 3.3-1.7 6.6-3.9 9.7-5.8.8-.6 1.7-1.1 2.5-1.7 3.3-2.2 6.4-4.4 9.4-6.9 2.8-2.2 5.5-4.4 8.3-6.6 3.3-3.1 6.4-5.8 9.4-8.9 9.1-9.1 17.2-18.8 24.1-29.4 3.9-5.5 7.2-11.4 10.2-17.2 13.9-26.3 21.9-56.5 21.9-88.6s-8-62.3-21.9-88.9"/><path fill="#FFF" d="M388.6 179.5l-12.8 1.4-10.2 1.3-7.2.9 1.9 15.8-3.9.5-2.4-19.9 11.6-1.7 10.2-1.1L388 175m-33.5-77.8l2.5 3.6-15.5 10.5-9.4 6.4h-.3l.3.6 8.6 12.7-3.1 2.2-5.5-8.3-5.8-8.6 5.8-3.8 9.4-6.4m-9.4-28.8l2.8-2.5 2.7 3-5.5 5.6-8.3 7.4-8.1 7.8 8.1 8.9 2.7 2.7-2.7 2.5-9.4-9.9-2.5-2.5-2-2.3 2-1.6 2.5-2.5 9.4-8.9m-11.9-24.6l2.5-2 .5-.2 3.9 3-4.4 13-2.5 7.5-4.5 13.3-3.6-2.5 3.1-10-4.7-3.6-5.3-4.1-6.6 5-1.7 1.4-3-2.3 4.7-3.3 11.9-8.6m-25.8-30.7l1.9.8 9.7 4.7c.8.6 1.7.8 2.2 1.4 1.4.6 2.5 1.7 3.6 3.3 1.4 2.2 1.4 5 .3 7.5-.8 1.9-2.2 3-3.9 3.9-1.4.6-3 .8-5 .6 3.3 2.8 4.4 6.9 2.5 10.8-1.1 2.8-3.3 4.4-6.1 5.3-1.1.3-2.2.3-3.3 0-1.9-.3-3.3-1.1-5.3-1.9L261.7 67l14.7-30.7zm-50.7-12.8l11.4 2 11.9 1.9-.6 3.9-9.7-1.7-1.6 10.8-3.3 19.1-4.2-.5 5-30.2-9.4-1.4M203 22.7h.3c7.8 0 12.2 6.1 13.6 13 .3 1.1.3 2.5.3 3.9s0 3-.3 4.7c-1.4 6.9-5.5 13.3-13 13.3h-.6c-9.4 0-13.9-8.6-13.9-16.9-.2-8.6 3.9-18 13.6-18m-38.8 5c1.4-.3 2.8-.6 3.9-.6 7.2.6 11.9 6.9 13.6 13.8 1.9 8.3 0 18.6-9.4 20.8-1.4.3-2.8.6-4.2.6-7.2-.6-11.9-6.9-13.6-14.1-1.9-8.3 0-18.3 9.7-20.5m-27.4 9.1l7.2-3 1.4 3.3-8.6 3.9-6.4 3 4.5 9.7 1.9-.8 10.5-4.7 1.4 3-11.9 5.6-.5.3.5 1.3 6.1 13.3-3.9 1.7-2.2-4.4-11.9-26.6M90.3 65.1l1.9-1.4 2.2 1.4 11.1 6.9 16.9 10.8-3.3 2.8-8.9-5.6-4.7 3.9-5.2 4.2 4.1 9.7-2.8 2.2-7.2-17.7-2.2-5.6-1.9-5.2-2-4.7M64.5 91.1l1.7-2.2c1.1-1.1 1.9-1.9 3-2.8.8-.6 1.7-1.1 2.8-1.4 1.9-.8 3.9-.6 5.5.3.6.3 1.4.6 1.9 1.1 3 2.5 3.6 6.1 1.9 9.4h.3c.6-.3 1.1-.6 1.7-1.1 2.2-.8 4.7-1.1 6.9-.3.6.3 1.4.6 1.9 1.1.3.3.6.3.6.6.8.6 1.4 1.1 1.7 1.7 1.4 1.7 1.9 3.3 1.9 5.3 0 2.2-.8 3.9-1.9 5.5-.6.8-1.1 1.7-1.7 2.5l-.6.3-1.9 2.8-5.8 6.9-1.1-1.1-5.8-4.7-8.3-6.9-4.7-3.6-6.4-5.5 6.4-7.9zM51.2 110l13.3 8.3 4.7 2.7 8.3 5 2.8 1.7-2.2 3.6-.6-.3-8.3-5-4.7-2.8-15.5-9.4m-13.8 28.3l8.8-20.5 2.5 1.1 1.1.3-1.1 2.2-2.7 6.6 2.7 1.4 18 8.1 4.7 1.9 2.3 1.1-1.7 3.9-.6-.3-4.7-1.9-18-8.1-4.7-2.2-3.9 8.9-2.7-1.1-.6-.3M26 178.1c.3-2.8 1.1-5.3 3-7.2 1.7-1.7 3.9-2.5 6.1-2.8H37c3.9.8 7.2 3.6 7.8 7.8l1.7-.6 15-3.9-.8 4.4-14.1 3.9-1.4.3-1.4 9.4 2.8.3 11.9 1.7-.6 4.4-11.4-1.7-11.4-1.7-11.1-1.7 2-12.6zm-2.5 39.6c-.3-7.8 5-12.5 11.6-14.4 1.4-.3 3-.5 4.7-.8 2.2 0 4.4.3 6.7.5 6.4 1.4 11.6 5.3 12.2 12.5.6 8-5.3 12.7-12.2 14.4-1.4.3-2.8.5-4.2.5-2.5.3-5 0-7.2-.5-6-1.4-11-5.3-11.6-12.2m26.6 45.7c-1.1.3-2.5.6-3.6.6-4.2.5-8.3 0-11.4-1.9-2.5-1.7-4.4-4.2-5.5-7.8-1.7-5.8.8-10.5 5.5-13.8.6-.3 1.1-.6 1.7-.8l1.9 3.6c-1.4.8-2.8 1.7-3.6 2.8-1.9 1.9-3 4.2-1.9 7.5.3 1.4.8 2.5 1.9 3.6 2.5 2.8 7.5 3.1 11.4 2.2.8 0 1.7-.3 2.5-.6 2.8-.6 5.8-1.9 7.8-3.6 2.8-2.2 4.4-5.5 3.3-8.9-1.4-5-5.8-6.4-10.5-6.4V236c6.6-.3 12.2 2.2 14.1 9.1 2.5 9.7-5.5 16.1-13.6 18.3m14.4-101.7l-1.1 3.9-16.9-5-11.3-3.6-4.5-1.1 1.4-4.1 3.1.8 11.3 3.3 18 5.6h.3m18.6 152.3c-1.1 1.9-3 3.1-5.5 3.1h-.3c-3.3 0-6.1-2.8-6.1-6.4 0-3.3 2.8-6.1 6.1-6.4h.3c2.5 0 4.4 1.4 5.5 3.3.6 1.1.8 1.9.8 3s-.3 2.3-.8 3.4m45.4 43.8l-6.6-3.6-6.6 12.2-3.6-1.9 15.8-30.2 9.1 4.7 1.1.5c2.5 1.4 5 3.1 6.1 5.8 1.1 2.8.8 6.1-.6 8.6s-3.6 4.4-6.1 5.3h-.6c-2.8.5-5.5-.3-8-1.4m32.4 27.4l-4.2-1.4-.2-10.5-4.7-1.4-7.2-2.5-6.1 8.3-2-.6-1.4-.5 1.4-1.9 15.3-20.5 4.7-6.4 4.7 1.7m36.5 16.8c-.6 3.9-3.3 7.2-7.5 7.8l4.7 16.6-4.7-.6-4.2-15.5-1.9-.3-7.5-1.1-1.9 14.7-4.2-.6 4.4-33.8 9.1 1.1 3.6.5c2.8.3 5.5 1.1 7.5 3 2.1 2.1 3.2 5.2 2.6 8.2m28 23.6l-3.9-9.7-5.2.3-7.5.2-2.2 10-3.6.3 8.8-34.6 4.5-.3h.5l13 33.5m30.2-6.9l-23.5-23.8-.6-.6.6 1.9 6.6 26.9-3.3.8-3.3-13-5-19.9 5-1.4 22.7 23-6.9-27.1 3.6-.9 8.3 33.3m29.9-13.3l-4.4-4.5-3.1-3-8.9 4.4-2.4 1.1 1.6 10.3-3.3 1.6-4.7-35.7 4.4-1.9 4.4 4.4 12 12.7 8.3 8.9m-16.1-29.9l6.4-9.7 1.4 1.1 1.6 1.1-1.6 1.9-6.1 7m49-21.4h-1.1c-3-.6-5.3-3.1-5.3-6.4 0-3 2.2-5.5 5.3-6.1.3 0 .8-.3 1.1-.3 3.6 0 6.4 3 6.4 6.4 0 3.7-2.8 6.4-6.4 6.4m8.3-70c-2.5 8.3-5.5 16.3-9.4 23.8-2.5 5-5.3 9.4-8.3 13.8-2.8 4.4-6.1 8.6-9.4 12.7-.8.8-1.7 1.9-2.5 2.8-3 3.3-6.4 6.6-9.7 9.7-3.6 3.6-7.8 6.9-11.9 10-3.9 2.8-7.8 5.5-11.9 8-12.7 7.5-26.6 13-41.3 16.1-6.6 1.4-13.3 2.5-20.2 3-3.3 0-6.7.3-9.7.3h-3.9c-6.4-.3-12.7-.8-18.8-1.9-5.5-.8-11.1-2.2-16.3-3.6-5.5-1.7-10.8-3.6-16.1-5.8-5.3-2.2-10.2-4.7-15.2-7.8-11.6-6.6-22.2-14.9-31.3-24.6-3.9-4.2-7.5-8.6-11.1-13-.6-1.1-1.4-1.9-2.2-3-.6-1.1-1.4-1.9-1.9-3-2.5-3.9-4.7-7.5-6.9-11.4-2.2-4.2-4.2-8.3-5.8-12.5-3.9-9.1-6.6-18.6-8.3-28.3-1.7-8.3-2.5-16.9-2.5-25.5 0-8.9.8-17.2 2.5-25.5 1.7-9.7 4.4-19.4 8.3-28.3 1.7-3.9 3.6-8 5.8-12.2 2.2-3.9 4.4-7.8 6.9-11.4.6-1.1 1.4-2.2 1.9-3 .8-1.1 1.7-2.2 2.2-3 3.6-4.7 7.2-8.9 11.1-13 9.1-9.7 19.7-18 31.3-24.9 5-2.8 10-5.3 15.2-7.8 5.3-2.2 10.5-3.9 16.1-5.5 5.3-1.7 10.8-2.8 16.3-3.6 6.1-1.1 12.5-1.7 18.8-1.9h3.9c3 0 6.4 0 9.7.3 6.9.6 13.6 1.4 20.2 3 14.7 3 28.5 8.6 41.3 16.1 4.2 2.5 8 5 11.9 7.8 4.2 3.3 8.3 6.6 11.9 10 3.3 3 6.6 6.4 9.7 10 .8.8 1.7 1.9 2.5 2.8 3.3 4.2 6.6 8.3 9.4 12.5 3 4.4 5.8 9.1 8.3 13.8 3.9 7.8 6.9 15.5 9.4 23.8 3.9 12.7 6.1 26 6.1 40.2 0 13.7-2.2 27.2-6.1 40m20.2-103.6c1.4-.3 2.8-.6 3.9-.8 3.6-.6 7.2-.3 10.2 1.1 3 1.7 5.5 4.2 6.6 8.3 2.2 6.1-1.1 11.4-6.6 14.7l-1.9-3.6c.8-.6 1.4-1.1 1.9-1.4 2.8-2.2 4.4-5.3 3.3-9.1-.8-1.7-1.9-3.3-3.3-4.2-2.8-1.7-6.6-1.7-10.2-1.1-.8.3-1.9.6-2.8.8-2.5.8-5.5 2.2-7.5 3.9-2.5 2.2-4.2 5.3-3.1 8.9 1.7 5 6.1 6.1 10.8 5.8l.3 3.9c-6.6.6-12.2-1.7-14.4-8.6-3-9.5 4.8-16.1 12.8-18.6m21.9 112.4c-.8 2.5-1.4 4.7-3.3 6.4-1.4 1.1-2.8 1.9-4.4 1.9-1.1.3-1.9 0-3-.3-3.9-.8-5.8-3.9-5.8-7.8-.6.6-.8 1.1-1.4 1.7-1.9 2.8-5.5 3.9-8.9 2.8-2.8-.6-5-2.2-6.1-5-1.4-3.1-.8-5.5 0-8.6l3.3-12.5 11.6 3.3 10.2 2.5 11.1 3-3.3 12.6zm-22.4-33.5c1.4 1.1 3.1 1.7 4.4 1.7.8.3 1.7.3 2.5.3l7.8.6 13.6.8v3.6l-13.6-.8-8-.6c-.8 0-1.4 0-2.2-.3-2.5-.3-5-.8-6.9-2.8-2.5-2.5-3.3-6.1-3.3-9.4.3-3.3 1.1-6.9 3.9-8.9 1.9-1.7 4.2-2.2 6.4-2.2h3.6l6.6.3 15 1.1-.3 4.2-14.7-.8-6.9-.5h-3.3c-1.1.3-2.5.5-3.3 1.1-2.2 1.1-3 4.2-3 6.4-.6 2.1 0 4.6 1.7 6.2"/><path fill="#006755" d="M279.7 95c-9.4-6.1-19.7-11.1-30.5-14.7-3.6-1.4-7.5-2.2-11.1-3.3-4.2-.8-8-1.7-12.2-2.2-5.5-.8-11.1-1.1-16.9-1.4h-1.9c-6.1 0-12.5.6-18.6 1.4-4.2.6-8 1.4-11.9 2.2-3.9.8-7.5 1.9-11.1 3-11.1 3.6-21.3 8.6-31 15C98 118.8 74 159.8 74 206.6s24.1 88.1 60.7 111.9c9.7 6.1 19.9 11.1 31 14.7 3.6 1.4 7.2 2.2 11.1 3.3 3.9.8 7.8 1.7 11.9 2.2 6.1.8 12.5 1.1 18.6 1.1h1.9c5.8 0 11.4-.6 16.9-1.1 4.2-.8 8-1.4 12.2-2.5 3.6-.8 7.5-1.9 11.1-3 10.8-3.6 21-8.6 30.5-14.7 36.6-23.8 60.7-65.1 60.7-111.9S316.3 118.8 279.7 95"/><path fill="#FFF" d="M226 90.3c1.4.3 2.8.6 4.2 1.4 2.5 1.1 5.3 3 8 5.3 3.6 3.3 7.5 7.2 11.1 10.8 3 3.6 5.8 6.9 7.8 9.7 10 13 16.1 24.9 17.7 29.6 1.7 4.4-21.3 13.3-25.5 10.8-.6 0-.6-.3-.8-.6-.5-2.8-4.4-17.4-10.2-33-3.6-9.1-7.5-18.3-12.2-25.2-.5-1.1-1.1-1.9-1.9-3-3.5-4.4-1.2-6.1 1.8-5.8m-15.8 5.3c-.3-2.8 3-4.2 5-2.5 1.4.8 1.9 1.4 2.8 2.5 2.8 3.6 5.5 8.3 8 13.6 5.3 10.8 9.4 23.8 12.2 33.8 1.9 7.8 3.1 13.3 3.3 15.2.3 1.4-1.1 2.5-3.3 3.3-3 1.1-7.5 1.9-12.2 2.5-8 .8-16.6.6-16.6-1.9 0-5.3 0-43.3.8-66.5m-11.3-2.5c1.9-1.7 5.3-.3 5 2.5.8 23.3.8 61.2.8 66.5 0 2.5-8 2.8-16.1 1.9-4.4-.3-8.9-1.1-11.9-2.2-2.8-1.1-4.4-2.2-4.2-3.6.3-1.9 1.7-8.6 4.2-17.4 2.8-10 6.6-22.4 11.9-32.7 2.2-4.7 5-9.1 7.8-12.5.8-1.2 1.4-1.7 2.5-2.5m-10.3-2.8c2.8 0 4.4 1.7 1.4 5.8-.6.8-.8 1.4-1.4 2.2-4.4 6.6-8.6 15.5-11.9 24.4-6.4 16.1-10.5 31.9-11.1 34.6-1.7 4.2-28-5.5-26.3-10.2 1.7-4.7 8-16.6 17.7-29.6 2.2-2.8 5.3-6.6 8.6-10.2 3.3-3.9 7.2-7.5 11.1-10.8 2.5-1.9 5-3.6 7.2-4.7 1.7-1 3.3-1.5 4.7-1.5m-76.2 34.6c5-8 13.3-15.8 22.2-22.4 7.8-5.5 16.3-10.2 24.1-13 2.5-.8 4.7-1.7 6.9-2.2 4.4-1.1 8.3-1.7 11.1-1.7 4.2 0 5.5 1.4 2.8 3.3-1.1.6-1.9 1.1-2.8 1.7-3.9 2.5-7.5 5.5-11.1 9.1-13.9 13.3-25.8 31.9-31 40.2-1.1 1.9-1.9 3.3-2.2 3.9-2.5 3.8-22.7-15-20-18.9m4.5 47.1c4.7-5 10.8-7.5 17.7-7.8h1.7c16.6 0 26 10.5 28 31.6l-15 1.1c0-12.7-5-19.7-13.6-19.7h-1.1c-8.9.6-13.6 10.8-13.6 30.2 0 9.1.8 19.1 6.1 24.6 1.9 1.9 4.4 3 7.5 3.6h1.9c7.5 0 12.7-6.4 14.1-17.5l13.6 1.1c-1.9 18.6-12.5 29.6-28.5 29.6h-1.1c-6.9-.3-13-2.8-17.7-7.8-7.5-7.2-11.6-19.9-11.6-34.6-.1-14.5 4.1-26.9 11.6-34.4m59.8 154.8c-2.8 0-6.6-.5-11.1-1.9-2.2-.5-4.4-1.1-6.9-1.9-7.8-2.8-16.3-7.5-24.1-13.3-8.9-6.4-17.2-14.4-22.2-22.2-2.8-3.9 17.4-22.7 19.9-18.8.3.5 1.1 1.9 2.2 3.9 5.3 8.3 17.2 26.6 31 40.2 3.6 3.3 7.2 6.6 11.1 9.1.8.5 1.7 1.1 2.8 1.7 2.8 1.8 1.5 3.2-2.7 3.2m11.9-4.7c-1.4-.3-3-.5-4.7-1.4-2.2-1.1-4.7-2.8-7.2-5-3.9-3-7.8-6.9-11.1-10.5-3.3-3.9-6.4-7.5-8.6-10.2-9.7-13.3-16.1-24.9-17.7-29.6-1.7-4.7 24.6-14.7 26.3-10.5.6 2.8 4.7 18.6 11.1 34.6 3.3 9.1 7.5 18 11.9 24.6.6.8.8 1.4 1.4 2.2 3 4.1 1.4 5.8-1.4 5.8m15.2-4.1c.3 1.9-3 3-5 1.4-1.1-.8-1.7-1.7-2.5-2.5-2.8-3.6-5.5-7.8-7.8-12.5-5.3-10.2-9.1-22.7-11.9-33-2.5-8.6-3.9-15.5-4.2-17.5-.3-1.4 1.4-2.5 4.2-3.6 3-1.1 7.5-1.9 11.9-2.5 8-.8 16.1-.3 16.1 2.2.1 5.4.1 45-.8 68m-.2-107.2v21.6h-10.8v-55.7H226v10.8h-22.4v12.7h17.7v10.6h-12.2m6.9 108.5c-2.2 1.7-5.5.6-5.3-1.4-.8-23-.8-62.6-.8-67.9 0-2.5 8-3 16.1-2.2 4.4.6 8.9 1.4 12.2 2.5 2.5 1.1 4.2 2.2 3.9 3.6-.3 1.9-1.7 8.9-3.9 17.5-2.8 10.2-6.9 22.7-12.2 33-2.2 4.7-4.7 8.9-7.5 12.5-.8.8-1.4 1.6-2.5 2.4m10 2.8c-2.8 0-4.4-1.7-1.4-5.8.5-.8 1.1-1.4 1.4-2.2 4.7-6.6 8.6-15.5 12.2-24.6 6.1-16.1 10.2-31.9 10.8-34.6h.3c1.4-4.2 27.7 5.8 26 10.5-1.7 4.7-7.8 16.3-17.7 29.6-1.9 2.8-5 6.4-8.3 10.2-3.6 3.6-7.5 7.5-11.1 10.5-2.8 2.2-5.3 3.9-7.5 5-1.6.9-3.3 1.1-4.7 1.4m76.4-34.6c-5.3 8-13.6 16.1-22.7 22.4-7.8 5.5-16.1 10.2-23.8 13-2.5.8-4.7 1.4-6.6 1.9-4.7 1.4-8.6 1.9-11.1 1.9-4.2 0-5.8-1.4-2.8-3.3.8-.6 1.7-1.1 2.8-1.7 3.6-2.5 7.5-5.8 11.1-9.1 13.3-13 25.2-31 30.5-39.6 1.4-2.2 2.2-3.9 2.8-4.4 2.1-3.8 22.3 15 19.8 18.9m-30.1-55.4c1.9 1.9 4.4 3 7.5 3.6h1.9c7.5 0 12.7-6.4 14.1-17.5l13.3 1.1c-1.7 18.6-12.2 29.6-28.2 29.6h-1.1c-6.9-.3-13-2.8-18-7.8-7.2-7.2-11.6-19.9-11.6-34.6 0-14.7 4.4-27.1 11.6-34.6 5-5 10.8-7.5 18-7.8h1.7c16.3 0 25.8 10.5 27.7 31.6l-14.7 1.1c0-12.7-5-19.7-13.6-19.7h-1.1c-9.1.6-13.6 10.8-13.6 30.2 0 9.3.5 19.3 6.1 24.8m9.6-88.4c-.6-.6-1.1-1.9-2.2-3.6-5-8-16.9-26.3-30.5-39.9-3.6-3.6-7.5-6.6-11.1-9.4-1.1-.6-2.2-1.4-3.6-1.9-2.8-2.2-1.1-3.3 3.6-3.3 2.8 0 6.4.6 11.1 1.9 1.9.6 3.9 1.1 6.1 1.9 7.8 2.8 16.3 7.5 24.4 13.3 8.9 6.4 16.9 14.4 22.2 22.2 2.5 3.9-17.7 22.7-20 18.8"/><path fill="#006755" d="M99.2 85l6.3-5.2 1.7-1.4-1.7-1.4-11.1-6.9-1.6-1.1 1.6 4.4m-19.6 33.8l2.8 2.2 5.8 4.7 1.1.8 5.3-6.4.6-.6c.8-1.4 1.9-2.8 1.9-4.4 0-1.9-.8-3.3-1.9-4.4-.3 0-.3-.3-.3-.3-1.7-1.4-3.9-1.9-5.8-1.4-.3 0-.6 0-.8.3-1.7.6-2.8 1.9-3.9 3.3l-1.9 2.5-2.9 3.7zm93.3-48.8c1.1.3 2.2.3 3.3 0 7.2-1.7 7.5-10.2 6.1-16.1-.8-3-2.2-6.4-4.2-8.6-1.4-1.4-3.3-2.5-5.3-2.8-.8-.3-1.9-.3-3 0-7.5 1.7-7.5 10.2-6.1 16.3 1.2 4.9 4.2 10.4 9.2 11.2m35.2-4.1h.6c6.9-.3 8.9-8.6 8.9-14.4 0-3-.6-6.6-2.2-9.4-1.7-2.5-3.9-4.4-7.2-4.4-7.8.3-9.4 8.6-9.4 14.7-.1 5.7 2.4 13.5 9.3 13.5M69.2 102.5L72 105l4.4-5c.3-.6.8-1.1 1.1-1.7.8-1.1 1.7-2.5 1.7-4.2.3-1.4-.6-3-1.7-4.1-.3 0-.3-.3-.3-.3-1.7-1.4-3.3-1.7-5.3-.8-1.1.3-1.9 1.1-2.8 2.2l-.8.8-3.9 4.7-1.1 1.1 1.1 1.1 4.8 3.7zM280 54.3c1.9.8 3.9 1.9 6.1 1.7 1.7-.5 3-1.7 3.9-3.3 0 0 .3-.3.3-.6.6-1.1.6-2.2 0-3.6-.3-.3-.3-.6-.5-.8-1.1-1.7-2.5-2.2-3.9-3l-6.9-3.3-.5 1.4-4.4 8.9 4.4 1.9 1.5.7zm-1.7 16.3c.5 0 1.1 0 1.7-.3 1.9-.3 3.3-1.4 4.2-3 .8-1.9.8-4.2 0-5.8-.8-1.9-2.8-3-4.7-3.9l-1.1-.6-5.8-2.8-5.6 11.4 7.5 3.6c1.4.6 2.5 1.1 3.8 1.4m-90.8 288.1l-3-.6-5.3-.5-1.7 12.2 6.9.8h1.1c2.2.6 4.2.6 6.1-.8 1.1-1.1 1.9-2.8 2.2-4.4.3-1.9-.3-3.6-1.7-5-1.3-1.2-2.7-1.5-4.6-1.7m184.2-115.2l-1.7 6.6c-.6 1.9-1.4 4.2-.6 6.1.8 1.7 2.2 3.1 3.9 3.3.8.3 1.7.3 2.5.3.8-.3 1.7-.8 2.5-1.4 1.4-1.4 1.7-2.8 2.2-4.4l1.9-7.5-6.6-1.9-4.1-1.1zm-98.3 102.4l2.2 17.2 2.7-1.4 6.7-3.3-6.7-7.2m78.1-111.9l-2.2 8.3c-.5 1.7-.8 3.9 0 5.5.6 1.7 1.9 2.8 3.6 3.3 2.2.5 4.4 0 5.8-1.1 1.1-.6 1.7-1.7 1.9-2.8.6-.8.6-1.7.8-2.5l2.2-7.5-3-.6-9.1-2.6zM214.9 360.6l-4.4 16.6 6.4-.3 4.1-.2-4.1-10.8m-176.5-177l1.1-8c.3-2.2.6-4.2-1.1-6.1-.8-1.4-2.5-1.9-4.2-2.2-.3 0-.8-.3-1.1-.3-1.7.3-2.8.8-3.9 1.9-1.1 1.4-1.4 2.8-1.7 4.4l-1.4 8.6 6.9.8 5.4.9zm106.7 177.5l5 1.7 4.9 1.6.3-17.1-5.2 6.9m-12.5-7.8c.8-1.7 1.4-3.9.3-5.8-.6-1.7-1.7-2.5-3-3.1l-.3-.3-6.6-3.6-6.1 11.6 6.4 3.6c1.7.8 3.3 1.4 5.5.8.3 0 .8-.3 1.1-.5 1-.4 2.1-1.5 2.7-2.7M308.3 79.2l3.6-10.5 1.9-5.6-1.9 1.4-9.7 6.7-2.5 1.9 2.5 1.7M42.1 226c1.4 0 3-.3 4.4-.5 4.7-1.4 9.1-4.4 8.6-9.7-.3-5-4.2-7.5-8.6-8.3-1.9-.6-4.2-.6-6.1-.3-1.7 0-3.6.3-5.3.8-1.4.3-2.8.8-3.9 1.7-2.5 1.7-4.4 4.4-4.2 7.5.3 5 3.9 7.5 8 8.3 2.4.5 4.9.8 7.1.5"/></svg>