<svg xmlns="http://www.w3.org/2000/svg" width="372.1" height="372.11" viewBox="0 0 372.1 372.11"><path fill="#165B8E" d="M186.05 0C288.52 0 372.1 83.58 372.1 186.05c0 102.47-83.58 186.06-186.05 186.06C83.58 372.1 0 288.6 0 186.1 0 83.58 83.58 0 186.05 0"/><path fill="#FFF" d="M186.05 5.44c99.48 0 180.6 81.14 180.6 180.6 0 99.48-81.12 180.62-180.6 180.62-99.47 0-180.6-81.13-180.6-180.6 0-99.48 81.13-180.62 180.6-180.62"/><path fill="#165B8E" d="M186.05 58.05c70.5 0 128 57.5 128 128s-57.5 128-128 128-128-57.5-128-128 57.5-128 128-128"/><path fill="#165B8E" d="M15.06 161.5l35.52 3.1-2.76 31.68-7.66-.67 1.73-19.7-5.7-.5-1.6 18.3-7.6-.7 1.6-18.3-6.9-.6-1.7 20.5-7.8-.65 2.83-32.42zm12.63 53.42l-.1.02-1 .13c-1.4.3-2.2 1.1-2.6 2.42-.4 1.3-.3 3.1.2 5.5.4 1.84 1 3.22 1.8 4.13.8.9 1.62 1.26 2.6 1.04 1.4-.33 2.1-2.66 2.02-7v-2.34c-.1-6.9.46-11.44 1.72-13.72.57-1.05 1.37-1.96 2.4-2.73.5-.35 1.05-.65 1.63-.9.57-.24 1.23-.45 2-.62 3.4-.8 6.32.1 8.84 2.7 2.5 2.6 4.4 6.82 5.76 12.62 1.33 5.74 1.5 10.2.43 13.33-1.07 3.15-3.34 5.13-6.8 5.93l-.4.1-2.54-10.87.2-.03c1.2-.27 1.96-1.03 2.33-2.27.2-.62.27-1.34.24-2.17 0-.8-.15-1.77-.4-2.87-.4-1.67-.9-2.9-1.54-3.68-.62-.8-1.35-1.08-2.2-.9-1.4.34-2.1 3-2.04 7.97l.03 2.25c0 3.6-.08 6.2-.28 7.65-.2 1.5-.57 2.86-1.08 4.1-.6 1.36-1.47 2.5-2.6 3.43-1.17.9-2.5 1.55-4 1.9-3.55.8-6.65-.2-9.3-3.05-2.67-2.83-4.7-7.34-6.14-13.5-1.4-6.1-1.5-10.7-.3-13.85 1.2-3.16 3.8-5.2 7.85-6.1l.54-.15 2.63 11.45zm29.1 36.52l-6.5 3.74 3.4 5.86c.8 1.4 1.62 2.27 2.6 2.62.9.35 1.9.2 3-.42 1.04-.6 1.63-1.4 1.8-2.4.14-1-.18-2.17-.97-3.54l-3.4-5.86zm-30.4 3.72l30.8-17.83 10.93 18.95c2.4 4.16 3.4 7.6 3.02 10.34-.4 2.74-2.23 5.04-5.47 6.92-3.26 1.88-6.36 2.36-9.3 1.42-2.97-.93-5.47-3.17-7.5-6.7l-5.3-9.22-11.27 6.5-6-10.38zm45.2 36.08c-2.5 2.6-3.8 5.14-3.9 7.58-.1 2.45 1 4.8 3.4 7.06 2.3 2.27 4.7 3.35 7.2 3.22 2.4-.12 4.9-1.45 7.3-3.98 2.62-2.75 4.03-5.43 4.22-8.06.17-2.63-.9-5.1-3.3-7.4-2.2-2.1-4.6-3.03-7.23-2.77-2.63.2-5.2 1.7-7.76 4.3m-5.95 19.4c-5.1-4.9-7.85-9.8-8.3-14.6-.44-4.83 1.45-9.4 5.67-13.78 4.1-4.24 8.62-6.15 13.6-5.74 5 .4 10.1 3.12 15.3 8.15 5.15 4.96 7.96 9.9 8.46 14.8.47 4.9-1.4 9.56-5.63 13.93-4.1 4.3-8.62 6.2-13.6 5.7-4.9-.46-10.1-3.3-15.5-8.54m52.66 2.46l-3.26 6.4 6.03 3.08c1.45.75 2.65 1.04 3.58.87 1-.15 1.7-.8 2.3-1.87.57-1.1.65-2.07.25-2.9-.4-.85-1.3-1.65-2.8-2.4l-6.03-3.08zM94.7 333l16.2-31.76 18.2 9.27c1.9 1 3.48 1.8 4.74 2.6 1.26.7 2.2 1.3 2.83 1.78 1.26.94 2.2 1.94 2.8 3 .56 1.08.84 2.3.8 3.75-.05 1.43-.4 2.83-1.1 4.2-1.08 2.08-2.65 3.43-4.7 4-2.06.6-4.4.36-7-.7 1.26.64 2.3 1.3 3.06 2.04.77.72 1.34 1.48 1.72 2.28.68 1.4.62 3.2-.18 5.3l-2.1 5.6c-.3.76-.58 1.62-.82 2.6l-.7 3.33-11.04-5.6c.1-.32.1-.66.2-1 .1-.33.2-.8.4-1.4l.38-1c.18-.46.38-.93.6-1.4l1.95-4.55c.35-.7.57-1.33.64-1.88.08-.57.04-1.07-.13-1.5-.3-.8-1.3-1.6-3-2.48l-6.7-3.44-6.34 12.46-10.7-5.5zm56.72 22.04l5.3-27.33-13.02-2.5 1.5-7.7 38 7.4-1.5 7.7-13.03-2.5-5.3 27.3-11.95-2.3zM189 359.9l-4.34-35.4 31.56-3.87.93 7.63-19.7 2.4.7 5.65 18.22-2.2.9 7.6-18.2 2.24.84 6.85 20.5-2.5.98 7.72-32.3 3.97zm73.75-45.5c-1.05-1.4-2.28-2.22-3.7-2.48-1.4-.27-2.98.04-4.72.93-2.75 1.4-4.43 3.35-5.03 5.85-.6 2.5-.07 5.36 1.56 8.58 1.58 3.1 3.52 5.1 5.84 6.03 2.3 1 4.83.7 7.54-.7 1.97-1 3.3-2.2 4-3.8.72-1.5.75-3.3.1-5.3l11.24-5.7c1.7 4.33 1.55 8.3-.52 11.85-2.06 3.57-6.16 6.9-12.3 10.03-5.9 3-11.2 3.97-15.9 2.87-4.72-1.1-8.34-4.14-10.87-9.1-2.8-5.4-3.2-10.48-1.3-15.18 1.9-4.7 6-8.64 12.3-11.84 5.5-2.8 10.1-4 13.9-3.57 2 .2 3.73.75 5.2 1.7 1.6 1 2.83 2.4 3.75 4.22l-11.17 5.73zm49.53-20.96l5.4 5.6-22.14 21.4-24.77-25.67 8.75-8.46 19.37 20.1 13.3-12.9zm-17.47-21.52l5.9-10.24 17.6 10.16c2.6 1.47 4.8 1.98 6.7 1.52 2-.46 3.6-1.92 5-4.38 1.4-2.37 1.8-4.52 1.3-6.45-.56-1.93-2.1-3.62-4.62-5.07L309.1 247.3l5.73-9.9 17.46 10.1c4.8 2.77 7.5 6.2 8.1 10.3.6 4.1-.8 9.18-4.3 15.2-3.47 6-7.1 9.7-10.87 11.14-3.77 1.43-8.1.74-12.94-2.07L294.84 272zm30.7-48.3l7.3 1.67 1.4-6.2c.37-1.5.3-2.7-.1-3.56-.44-.88-1.26-1.46-2.47-1.74-1.16-.25-2.14-.1-2.94.5-.8.6-1.38 1.66-1.7 3.14l-1.43 6.12zm13 3l7.7 1.77 1.64-7.1c.38-1.7.36-3-.1-4-.44-1-1.3-1.7-2.55-1.98-1.25-.3-2.3-.1-3.14.6-.85.7-1.5 1.9-1.85 3.56l-1.6 7.05zm12.1 14.68l-34.7-8.02 4.98-21.52c.3-1.33.6-2.44.85-3.32.25-.87.5-1.62.77-2.22.26-.6.52-1.14.8-1.57.25-.44.6-.86 1-1.28.9-1.07 2.05-1.78 3.4-2.14 1.32-.36 2.8-.35 4.43.02 1.95.45 3.4 1.38 4.4 2.8 1 1.42 1.6 3.44 1.78 6.05 1.4-2.78 2.96-4.66 4.74-5.65 1.74-1 3.9-1.2 6.35-.62 3.04.7 5.16 2.16 6.35 4.36 1.2 2.2 1.38 5.1.55 8.6l-5.63 24.4zm9.3-48.6l-35.5 3.12-2.8-31.67 7.7-.67 1.7 19.82 5.7-.5-1.6-18.28 7.57-.66 1.6 18.28 6.88-.6-1.8-20.52 7.75-.68 2.84 32.42zM54.3 96.48c-1.6-.68-3.08-.77-4.43-.3-1.36.48-2.56 1.53-3.63 3.17-1.66 2.6-2.14 5.12-1.4 7.6.73 2.46 2.6 4.67 5.64 6.64 2.9 1.9 5.6 2.6 8.06 2.3 2.46-.4 4.52-1.9 6.2-4.4 1.2-1.9 1.7-3.6 1.54-5.3-.16-1.7-1.03-3.3-2.6-4.7l6.88-10.6c3.67 2.9 5.5 6.4 5.5 10.5s-1.9 9.05-5.63 14.8c-3.6 5.56-7.74 9.04-12.36 10.45-4.62 1.42-9.27.6-13.94-2.43-5.1-3.3-8-7.48-8.7-12.5-.73-5 .84-10.5 4.7-16.4 3.35-5.2 6.8-8.55 10.3-10.1 1.83-.8 3.63-1.2 5.37-1.1 1.88.06 3.66.66 5.36 1.76L54.3 96.5zm21.4-31.92l4.67 5.38 5.1-4.44c1.24-1.08 1.95-2.08 2.14-3 .2-.94-.1-1.86-.9-2.8-.8-.93-1.7-1.37-2.6-1.32-.9.05-2 .62-3.3 1.72l-5.1 4.45zm9.62 29.3L61.9 66.92 77.35 53.5c1.6-1.4 2.97-2.54 4.1-3.43 1.15-.9 2.05-1.56 2.74-1.96 1.3-.8 2.6-1.3 3.8-1.4 1.2-.1 2.4.1 3.7.7 1.3.57 2.46 1.43 3.47 2.6 1.54 1.76 2.2 3.72 2 5.84-.24 2.13-1.3 4.2-3.3 6.2 1.08-.92 2.1-1.6 3.05-2.06.94-.46 1.87-.7 2.74-.74 1.57-.14 3.2.6 4.84 2.12l4.4 4.04c.58.55 1.3 1.12 2.1 1.72l2.8 1.9-9.3 8.1c-.3-.15-.6-.33-.87-.5-.3-.2-.68-.5-1.15-.9l-.8-.7c-.4-.3-.73-.7-1.1-1.1l-3.5-3.5c-.5-.6-1-1-1.5-1.3-.46-.25-.94-.4-1.42-.4-.86-.02-2 .58-3.4 1.83l-5.7 4.96L94.3 86l-9 7.84zM104.92 34l10.96-4.44 7.6 18.83c1.1 2.7 2.57 4.5 4.36 5.3 1.8.8 4.02.7 6.65-.4 2.5-1 4.2-2.5 4.9-4.37.7-1.87.52-4.16-.5-6.85l-7.6-18.83 10.6-4.3 7.54 18.7c2.1 5.13 2.1 9.5.1 13.13-2.05 3.6-6.3 6.75-12.75 9.36-6.4 2.6-11.57 3.3-15.4 2.1-3.86-1.2-6.8-4.4-8.9-9.6L104.94 34zm70.78 8.82l21.7-.38.14 7.78-35.53.62-.1-9.8 19.77-18.37-19 .33-.12-7.83 33.77-.6.17 9.48-20.67 18.77zm27.86 8.25l7.4-34.88 31.1 6.6-1.6 7.5-19.4-4.1-1.18 5.5 17.94 3.8-1.58 7.42-17.95-3.8-1.5 6.75 20.14 4.3-1.6 7.62L203.5 51zm36.4 10.22l16.18-31.8L267 35l-16.2 31.8-10.8-5.5zm44.36-6.7l-4.4 5.6 5.34 4.15c1.3 1 2.4 1.5 3.35 1.52 1 0 1.8-.46 2.6-1.43.8-.96 1.06-1.9.8-2.8-.2-.9-1-1.86-2.3-2.9l-5.3-4.16zm-26.9 15.02l21.95-28.1 16.12 12.6c1.6 1.3 3 2.43 4.1 3.37 1.1.95 1.9 1.7 2.42 2.3 1.05 1.16 1.77 2.3 2.14 3.5.37 1.15.4 2.43.1 3.82-.3 1.4-.94 2.7-1.9 3.9-1.44 1.83-3.23 2.85-5.35 3.04-2.14.17-4.4-.5-6.75-2.04 1.12.87 2 1.74 2.62 2.6s1.02 1.7 1.24 2.56c.4 1.5 0 3.2-1.16 5.14l-3.1 5.06c-.4.7-.84 1.5-1.27 2.4l-1.3 3.2-9.77-7.62c.1-.3.23-.6.36-.92.13-.32.36-.75.65-1.3l.5-.9c.3-.45.58-.87.9-1.3l2.8-4.1c.5-.6.8-1.2 1-1.7.2-.54.28-1.03.2-1.5-.14-.83-.95-1.83-2.45-3L275.53 66l-8.6 11-9.43-7.32zm53.44 27.13c-3.04 2-4.88 4.15-5.52 6.5-.63 2.37-.07 4.92 1.7 7.65 1.8 2.73 3.9 4.3 6.32 4.76 2.43.45 5.1-.3 8.06-2.2 3.2-2.07 5.18-4.37 5.94-6.9.76-2.52.25-5.17-1.55-7.94-1.6-2.56-3.8-4-6.4-4.34-2.6-.34-5.4.5-8.5 2.5m-10.2 17.6c-3.9-5.95-5.5-11.3-4.8-16.1.66-4.8 3.5-8.83 8.6-12.14 4.9-3.2 9.8-4.06 14.56-2.54 4.78 1.53 9.1 5.32 13.08 11.4 3.9 6 5.55 11.45 4.9 16.34-.6 4.9-3.5 9-8.6 12.3-5 3.26-9.8 4.1-14.5 2.5-4.72-1.54-9.1-5.5-13.2-11.8"/><path fill="#FFF" d="M195.2 257.86l4.74 14.8h15.6l-12.7 9.2 4.94 14.74-12.72-8.97-12.46 8.97 4.8-14.66-12.77-9.33 15.77.1 4.8-14.75zm69.1-106.73l4.74 14.8h15.6l-12.7 9.2 4.93 14.73-12.7-8.96-12.46 8.96 4.8-14.65-12.7-9.3h15.8l4.8-14.7zm-53.7 33.37l3.02 9.36h9.87l-8.1 5.8 3.1 9.34-8.06-5.68-7.9 5.68 3.05-9.27-8.08-5.9h9.97l3.03-9.33zM183.63 83.53l4.75 14.8h15.6l-12.7 9.2 4.94 14.73-12.7-8.96-12.47 8.96 4.8-14.65-12.77-9.3h15.77l4.8-14.7zm-71.84 71.34l4.7 14.8h15.6l-12.7 9.2 4.9 14.73-12.7-8.96-12.46 8.96 4.8-14.65-12.8-9.33H107l4.8-14.75z"/></svg>