<svg xmlns="http://www.w3.org/2000/svg" viewBox="-417.3 622.6 171.4 171.4"><path fill="#305A8A" d="M-331.6 622.6c47.2 0 85.7 38.5 85.7 85.7s-38.5 85.7-85.7 85.7-85.7-38.5-85.7-85.7 38.5-85.7 85.7-85.7z"/><path fill="#FFF" d="M-331.6 625.1c45.8 0 83.2 37.4 83.2 83.2s-37.4 83.2-83.2 83.2-83.2-37.4-83.2-83.2 37.4-83.2 83.2-83.2z"/><path fill="#305A8A" d="M-331.6 649.3c32.5 0 59 26.5 59 58.9s-26.5 59-59 59-59-26.5-59-59 26.5-58.9 59-58.9z"/><path fill="#305A8A" d="M-410.4 696.9l16.4 1.4-1.3 14.6-3.5-.3.8-9.1-2.6-.2-.7 8.4-3.5-.3.7-8.4-3.2-.3-.8 9.5-3.6-.3 1.3-15zm5.8 24.6l-.5.1c-.6.1-1 .5-1.2 1.1-.2.6-.1 1.5.1 2.6.2.9.5 1.5.8 1.9.4.4.8.6 1.2.5.7-.1 1-1.2.9-3.2v-1.1c0-3.2.2-5.3.8-6.3.3-.5.6-.9 1.1-1.3.2-.2.5-.3.7-.4l.9-.3c1.6-.4 2.9.1 4.1 1.3 1.2 1.2 2 3.1 2.7 5.8.6 2.6.7 4.7.2 6.1-.5 1.4-1.5 2.4-3.1 2.7h-.2l-1.2-5h.1c.5-.1.9-.5 1.1-1 .1-.3.1-.6.1-1s-.1-.8-.2-1.3c-.2-.8-.4-1.3-.7-1.7-.3-.4-.6-.5-1-.4-.7.2-1 1.4-.9 3.7v1c0 1.7 0 2.9-.1 3.5-.1.7-.3 1.3-.5 1.9-.3.6-.7 1.2-1.2 1.6-.5.4-1.1.7-1.8.9-1.6.4-3.1-.1-4.3-1.4-1.2-1.3-2.2-3.4-2.8-6.2-.6-2.8-.7-4.9-.1-6.4.6-1.4 1.8-2.4 3.6-2.8l.2-.1 1.2 5.2zm13.5 16.9l-3 1.7 1.6 2.7c.4.6.8 1 1.2 1.2.4.2.9.1 1.4-.2.5-.3.8-.6.8-1.1.1-.5-.1-1-.4-1.6l-1.6-2.7zm-14.1 1.7l14.2-8.2 5 8.7c1.1 1.9 1.6 3.5 1.4 4.8-.2 1.3-1 2.3-2.5 3.2-1.5.9-2.9 1.1-4.3.7-1.4-.4-2.5-1.5-3.5-3.1l-2.4-4.2-5.2 3-2.7-4.9zm20.9 16.6c-1.2 1.2-1.8 2.4-1.8 3.5s.5 2.2 1.6 3.3c1.1 1 2.2 1.5 3.3 1.5 1.1-.1 2.3-.7 3.4-1.8 1.2-1.3 1.9-2.5 2-3.7.1-1.2-.4-2.3-1.5-3.4-1-1-2.1-1.4-3.3-1.3-1.4 0-2.6.7-3.7 1.9zm-2.8 8.9c-2.3-2.3-3.6-4.5-3.8-6.7-.2-2.2.7-4.3 2.6-6.3 1.9-1.9 4-2.8 6.3-2.6 2.3.2 4.6 1.4 7 3.8 2.4 2.3 3.7 4.6 3.9 6.8.2 2.3-.6 4.4-2.6 6.4-1.9 2-4 2.8-6.3 2.6-2.2-.2-4.6-1.5-7.1-4zm24.3 1.2l-1.5 2.9 2.8 1.4c.7.3 1.2.5 1.6.4.4-.1.8-.4 1-.9.3-.5.3-1 .1-1.3-.2-.4-.6-.8-1.3-1.1l-2.7-1.4zm-10.9 9.2l7.5-14.6 8.4 4.3c.9.4 1.6.8 2.2 1.2.6.3 1 .6 1.3.8.6.4 1 .9 1.3 1.4.3.5.4 1.1.4 1.7 0 .7-.2 1.3-.5 1.9-.5 1-1.2 1.6-2.2 1.9-.9.3-2 .2-3.2-.3.6.3 1.1.6 1.4.9s.6.7.8 1.1c.3.6.3 1.5-.1 2.4l-1 2.6c-.1.3-.3.7-.4 1.2l-.3 1.5-5.1-2.6c0-.1 0-.3.1-.5 0-.2.1-.4.2-.6.1-.3.1-.4.1-.5.1-.2.2-.4.3-.7l.9-2.1c.2-.3.3-.6.3-.9 0-.3 0-.5-.1-.7-.1-.4-.6-.7-1.4-1.1l-3.1-1.6-2.9 5.7-4.9-2.4zm26.1 10.1l2.4-12.6-6-1.2.7-3.5 17.5 3.4-.7 3.5-6-1.2-2.4 12.6-5.5-1zm17.4 2.2l-2-16.3 14.5-1.8.4 3.5-9.1 1.1.3 2.6 8.4-1 .4 3.5-8.4 1 .4 3.2 9.4-1.2.4 3.6-14.7 1.8zm33.9-20.9c-.5-.6-1-1-1.7-1.1-.6-.1-1.4 0-2.2.4-1.3.6-2 1.5-2.3 2.7-.3 1.2 0 2.5.7 3.9s1.6 2.3 2.7 2.8c1.1.4 2.2.3 3.5-.3.9-.5 1.5-1.1 1.8-1.8.3-.7.3-1.5 0-2.5l5.2-2.6c.8 2 .7 3.8-.2 5.5-.9 1.6-2.8 3.2-5.7 4.6-2.7 1.4-5.2 1.8-7.3 1.3-2.2-.5-3.8-1.9-5-4.2-1.3-2.5-1.5-4.8-.6-7s2.8-4 5.7-5.5c2.5-1.3 4.7-1.8 6.4-1.6.9.1 1.7.4 2.4.8.7.5 1.3 1.1 1.7 1.9l-5.1 2.7zm22.8-9.7l2.5 2.6-10.2 9.9-11.4-11.8 4-3.9 8.9 9.2 6.2-6zm-8-9.9l2.7-4.7 8.1 4.7c1.2.7 2.2.9 3.1.7s1.7-.9 2.3-2c.6-1.1.8-2.1.6-3-.3-.9-1-1.7-2.1-2.3l-8.1-4.7 2.6-4.6 8 4.6c2.2 1.3 3.5 2.9 3.8 4.7s-.4 4.2-2 7-3.3 4.5-5 5.1-3.7.3-6-1l-8-4.5zm14.1-22.2l3.3.8.6-2.8c.2-.7.1-1.2-.1-1.6-.2-.4-.6-.7-1.1-.8-.5-.1-1 0-1.4.2-.4.3-.6.8-.8 1.4l-.5 2.8zm6 1.4l3.5.8.7-3.2c.2-.8.2-1.4 0-1.8-.2-.5-.6-.8-1.2-.9-.6-.1-1.1 0-1.4.3-.4.3-.7.9-.9 1.6l-.7 3.2zm5.6 6.7l-16-3.7 2.3-9.9c.1-.6.3-1.1.4-1.5.1-.4.2-.7.4-1 .1-.3.2-.5.4-.7.1-.2.3-.4.5-.6.4-.5 1-.8 1.6-1 .6-.2 1.3-.2 2 0 .9.2 1.6.6 2 1.3.5.7.7 1.6.8 2.8.6-1.3 1.4-2.1 2.2-2.6.8-.5 1.8-.6 2.9-.3 1.4.3 2.4 1 2.9 2s.6 2.3.2 4l-2.6 11.2zm4.2-22.4l-16.4 1.4-1.3-14.6 3.5-.3.8 9.1 2.6-.2-.7-8.4 3.5-.3.7 8.4 3.2-.3-.8-9.5 3.6-.3 1.3 15zM-392.3 667c-.7-.3-1.4-.4-2-.1-.6.2-1.2.7-1.7 1.5-.8 1.2-1 2.4-.7 3.5.3 1.1 1.2 2.2 2.6 3.1 1.3.9 2.6 1.2 3.7 1.1 1.1-.2 2.1-.8 2.9-2 .6-.9.8-1.7.7-2.5-.1-.8-.5-1.5-1.2-2.2l3.2-4.9c1.7 1.3 2.5 2.9 2.5 4.8s-.9 4.2-2.6 6.8c-1.7 2.6-3.6 4.2-5.7 4.8-2.1.6-4.3.3-6.4-1.1-2.3-1.5-3.7-3.4-4-5.8-.3-2.3.4-4.8 2.2-7.6 1.5-2.4 3.1-3.9 4.8-4.6.8-.4 1.7-.6 2.5-.5.9 0 1.7.3 2.5.8l-3.3 4.9zm9.8-14.7l2.2 2.5 2.4-2c.6-.5.9-1 1-1.4.1-.4 0-.9-.4-1.3s-.8-.6-1.2-.6c-.4 0-.9.3-1.5.8l-2.5 2zm4.5 13.5l-10.8-12.4 7.1-6.2c.7-.6 1.4-1.2 1.9-1.6.5-.4.9-.7 1.3-.9.6-.4 1.2-.6 1.8-.7.6-.1 1.1 0 1.7.3.6.3 1.1.7 1.6 1.2.7.8 1 1.7.9 2.7-.1 1-.6 1.9-1.5 2.9.5-.4 1-.7 1.4-1 .4-.2.9-.3 1.3-.3.7-.1 1.5.3 2.2 1l2 1.9c.3.3.6.5 1 .8l1.3.9-4.3 3.7c-.1-.1-.3-.2-.4-.2-.1-.1-.3-.2-.5-.4s-.3-.3-.4-.3l-.5-.5-1.6-1.6c-.2-.3-.5-.5-.7-.6-.2-.1-.4-.2-.7-.2-.4 0-.9.3-1.6.8l-2.6 2.3 4.2 4.9-4.1 3.5zm9-27.6l5-2 3.5 8.7c.5 1.3 1.2 2.1 2 2.5.8.4 1.8.3 3.1-.2 1.2-.5 1.9-1.1 2.3-2 .3-.9.3-1.9-.2-3.2l-3.5-8.7 4.9-2 3.5 8.6c1 2.4 1 4.4 0 6s-2.9 3.1-5.9 4.3c-3 1.2-5.3 1.5-7.1 1-1.8-.6-3.1-2-4.1-4.4l-3.5-8.6zm32.6 4.1l10-.2.1 3.6-16.4.3-.1-4.5 9.1-8.5-8.8.2-.1-3.6 15.6-.3.1 4.4-9.5 8.6zm12.9 3.8l3.4-16.1 14.3 3-.7 3.5-8.9-1.9-.5 2.6 8.3 1.8-.7 3.4-8.3-1.8-.7 3.1 9.3 2-.7 3.5-14.8-3.1zm16.7 4.7l7.5-14.6 5 2.5-7.5 14.6-5-2.5zm20.4-3.1l-2 2.6 2.5 1.9c.6.5 1.1.7 1.5.7.4 0 .8-.2 1.2-.7.4-.5.5-.9.4-1.3-.1-.4-.5-.9-1.1-1.3l-2.5-1.9zm-12.4 7l10.1-12.9 7.4 5.8c.8.6 1.4 1.1 1.9 1.6.5.4.9.8 1.1 1.1.5.5.8 1.1 1 1.6.2.5.2 1.1 0 1.8-.1.6-.4 1.2-.9 1.8-.7.9-1.5 1.3-2.5 1.4-1 .1-2-.2-3.1-.9.5.4.9.8 1.2 1.2.3.4.5.8.6 1.2.2.7 0 1.5-.5 2.4l-1.4 2.3c-.2.3-.4.7-.6 1.1l-.6 1.4-4.5-3.5c0-.1.1-.3.2-.4.1-.1.2-.3.3-.6l.2-.4c.1-.2.3-.4.4-.6l1.3-1.9c.2-.3.4-.6.5-.8.1-.2.1-.5.1-.7-.1-.4-.4-.8-1.1-1.4l-2.7-2.1-4 5.1-4.4-3.6zm24.7 12.5c-1.4.9-2.2 1.9-2.5 3-.3 1.1 0 2.3.8 3.5.8 1.3 1.8 2 2.9 2.2 1.1.2 2.4-.1 3.7-1 1.5-1 2.4-2 2.7-3.2.4-1.2.1-2.4-.7-3.7-.8-1.2-1.7-1.8-3-2-1.2-.1-2.5.3-3.9 1.2zm-4.7 8.1c-1.8-2.7-2.5-5.2-2.2-7.4.3-2.2 1.6-4.1 4-5.6 2.3-1.5 4.5-1.9 6.7-1.2s4.2 2.5 6 5.2c1.8 2.8 2.5 5.3 2.3 7.5-.3 2.3-1.6 4.1-4 5.7-2.3 1.5-4.5 1.9-6.7 1.2s-4.2-2.5-6.1-5.4z"/><path fill="#FFF" d="M-327.4 741.3l2.2 6.8h7.2l-5.9 4.2 2.3 6.8-5.9-4.1-5.7 4.1 2.2-6.7-5.9-4.3h7.3l2.2-6.8zm31.8-49.1l2.2 6.8h7.2l-5.9 4.2 2.3 6.8-5.9-4.1-5.7 4.1 2.2-6.7-5.9-4.3h7.3l2.2-6.8zm-24.7 15.3l1.4 4.3h4.5l-3.7 2.7 1.4 4.3-3.7-2.6-3.6 2.6 1.4-4.3-3.7-2.7h4.6l1.4-4.3zm-12.4-46.5l2.2 6.8h7.2l-5.9 4.2 2.3 6.8-5.9-4.1-5.7 4.1 2.2-6.7-5.9-4.3h7.3l2.2-6.8zm-33.1 32.9l2.2 6.8h7.2l-5.9 4.2 2.3 6.8-5.9-4.1-5.7 4.1 2.2-6.7-5.9-4.3h7.3l2.2-6.8z"/></svg>