<svg xmlns="http://www.w3.org/2000/svg" width="490.4" height="561.1" viewBox="0 0 490.4 561.1"><path fill="#231F20" d="M375.9 3.1c-48.6 34.4-129.7 33.7-130.5 33.6-1 0-82.1.8-130.7-33.6L110.3 0 0 102.2l3.5 4.7C39.3 154.6 46 214.6 23.7 285.2 4.1 347 4 391.2 23.5 424.1c17.5 29.7 50.2 48.9 99.7 58.7 76.6 15.2 116.3 70.2 116.6 70.8l5.3 7.6 5.3-7.6c.4-.5 40.1-55.6 116.6-70.8 49.6-9.8 82.2-29 99.7-58.7 19.5-32.9 19.4-77.1-.2-138.9-22.4-70.6-15.6-130.6 20.2-178.3l3.5-4.7L380.2 0l-4.3 3.1z"/><path fill="#FFF" d="M83.1 41.9C71.6 52.5 58.4 64.8 46.8 75.6l107.8 98c13.3-11.1 28.8-19.7 45.6-25.2L83.1 41.9zM379 311c-3.9 17.4-11 33.5-20.8 47.8l83.1 75.5c5.7-5.4 10.5-11.5 14.4-18 4.7-7.9 8-16.7 10.1-26.4L379 311zm77-178L345 32c-18.9 6.9-38.4 10.9-55 13.3l152.3 138.5c2-17.9 6.6-34.8 13.7-50.8M27 118.1c14 24.9 21.6 52.5 22.5 82.5L107 253c3.3-16.4 9.5-31.8 18.1-45.6L27 118.1zm321.7 354.6c5.2-1.4 10.5-2.8 16-3.9 13.6-2.7 25.8-6.1 36.6-10.3l-73.9-67.2c-13 9.9-27.7 17.5-43.7 22.3l65 59.1zm30.4-222.2l85.6 77.8c-2.4-12.4-5.8-25.8-10.4-40.3-4.6-14.4-8-28.4-10.2-42L226.3 48c-22-1.4-59.4-6.1-92.6-20.7l126.7 115.2c58.7 7.2 106.2 51.1 118.7 108m-270.5 64.4l-64.2-58.4c-2.1 10.3-4.9 20.8-8.3 31.5-2.6 8-4.7 15.7-6.6 23.1L261 521.6c10.2-9.4 24.1-20.4 41.7-30.2L221.9 418c-55.2-8.6-99.7-49.7-113.3-103.1M34.8 416.3c15.5 26.3 45.3 43.5 91 52.5 4.9 1 9.6 2.1 14.3 3.4L22 364.9c.1 20.2 4.3 37.1 12.8 51.4"/><path fill="#FFF" d="M117.3 280.5c0-69.5 56.5-126 126-126s126 56.5 126 126-56.5 126-126 126c-69.4.1-126-56.5-126-126"/><path fill="#03A550" d="M335.8 267c5.1-22.4-15.5-23.5-18.7-35.9-3.7-14.5-6.1-51.8-50.4-44.3-6.1-23.3-40.6-24.7-48.5 5.6-19.1-7.5-38.7 5.6-36.4 23.8-17.7-1.9-28.9 12.1-27.5 25.2-14.9 5.1-13.5 23.8-6.5 30.3 6.3 5.9 32.7 50.9 32.7 50.9s22.9 19.7 54.6 2.9V374s-7.6.3-7.5 7.2h30.8c0-6.7-7.5-7.2-7.5-7.2v-48c21.3 11.7 64.1 8.7 62.1-18.3 26.5 10.1 42.4-25.8 22.8-40.7"/><path fill="#231F20" d="M308.4 145.8c0 .4-5.5 35.6-86.3 60.4-98.5 30.3-125.1 108-126.2 111.3l-1.1 3.3 68.7 86.6 2.3-14.7c.5-3.4 14.2-84 99.3-99.7 83.3-15.4 107.7-66.9 108.7-69l1.6-3.4-64.7-91.4-2.3 16.6z"/><path fill="#FFF" d="M226 218.8c60.3-18.5 82.5-43.4 90.7-58.5 10 14.2 39.7 56.1 43.5 61.3-6.5 10.7-32.6 46.5-97.4 58.5-72.5 13.4-98.3 70.9-106.4 97.2-11.4-14.4-43.1-54.4-46.8-58.9 5.9-14.4 35.3-74.7 116.4-99.6"/><path fill="#231F20" d="M159 263.9l-27 28.5c-.4.5-.4 1.2 0 1.6l.9.9h.4l.8-.3 1.1-1.1c.8-.8 1.8-1.4 2.9-1.8h1.9c.5.2 2.3 1.7 3.8 3l.5.5 24.9 23.7c2.9 2.7 3.5 4 3.6 4.5.1 1-.9 3-1.6 4l-.4.5-1.1 1.2v.4l.4.8.5.5c.5.4 1.2.4 1.6 0l15.3-16.1c.4-.4.4-1.2 0-1.6l-.9-.9h-.4l-.8.4-1.1 1.1c-.8.8-1.7 1.4-2.9 1.8h-1.9c-.5-.2-2.3-1.7-3.8-3l-.5-.5s-10.9-10.4-11.4-10.9c.5-.5 6.2-6.6 6.2-6.6 1.1-1.2 2.2-2 3-2.2.8-.3 1.7-.3 2.6 0 .7.2 2.4 1.5 3.4 2.2.5.4 1.1.3 1.6-.1l.9-.9v-.4l-.4-.8-12.7-12c-.5-.4-1.2-.4-1.6 0l-1.2 1.3.4.5c2.2 2.6 2.6 4.2 2.6 5.1 0 .8-1.1 2.8-1.9 3.9l-.4.5s-5.5 5.8-6 6.3c-.5-.5-13.8-13.1-14.3-13.6.5-.5 7.7-8.1 7.7-8.1 1.9-2 3.4-3.3 4.7-3.8 1.2-.5 2.5-.7 3.8-.6 1.1.1 4.1 1.4 5.1 1.9.5.2 1.1.1 1.5-.3l.8-.9-.1-.4-.4-.8-8.5-7.3c-.4-.5-1.1-.5-1.6-.1m74.1-39.6l-36.7 14c-.6.2-.9.9-.6 1.4l.5 1.2.4.2h.9l1.4-.5c1.1-.4 2.2-.5 3.4-.4l1.7.8c.3.4 1.3 2.5 2.1 4.3l.3.7 12.3 32.1c1.4 3.7 1.4 5.1 1.3 5.6-.3.9-2.1 2.3-3.2 2.9l-.6.3-1.1.4c-.6.2-.9.9-.6 1.4l.5 1.2.4.2h.9l21.5-8.2-.1-1.2-.5-1.2-.4-.2h-.9l-1.4.5c-1 .4-2.2.5-3.3.4l-1.7-.8c-.3-.4-1.3-2.5-2.1-4.3l-.3-.7s-5.4-14.1-5.6-14.8c.6-.2 8.5-3.2 8.5-3.2 1.6-.6 2.8-.8 3.7-.7.9.1 1.7.5 2.4 1.1.5.5 1.6 2.4 2.1 3.5.3.5.9.8 1.4.6l1.4-.5v-1.2l-6.5-17h-1.2l-1.7.6.2.6c.4 1.5.6 2.7.6 3.7 0 .8-.1 1.5-.4 2-.4.7-2.2 2-3.4 2.6l-.6.3s-7.5 2.9-8.1 3.1c-.3-.7-6.8-17.8-7-18.4.7-.2 10.4-4 10.4-4 2.5-1 4.5-1.4 5.8-1.4 1.3 0 2.5.4 3.7 1.1.9.6 3.1 3 3.8 3.9.3.4.9.6 1.4.4l1.1-.4.1-.4v-.9l-4.5-10.2c-.4-.4-1.1-.7-1.7-.5m71.3-30.6l-1.5.8.1.6c.2.6.2 1.2.2 1.7 0 .4-.1.8-.2 1.2l-.9 1.1-2.2.2c-4.3 0-8.3 1-11.9 2.8-4.5 2.3-8.2 5.6-10.8 9.9-2.7 4.2-4.1 9-4.2 14.2-.1 5.2 1.2 10.3 3.7 15.2 3.1 6 7.5 10.5 13.2 13.3 7.6 3.7 15.5 3.5 23.7-.7 4.5-2.3 7.9-5.4 10.2-9.1 2.2-3.7 3.6-13.2 3.6-13.6l.1-.5-.3-.3-.8-.4-1.8-.2-.1.7c-.8 5.3-2 9.2-3.6 11.7-1.6 2.4-3.9 4.4-6.9 6-3.4 1.8-7 2.5-10.5 2.3-3.5-.3-6.7-1.6-9.6-3.9-2.9-2.4-5.5-5.7-7.7-10-2.6-5.1-4.2-9.8-4.5-14-.3-4.1.3-7.6 2-10.4 1.6-2.8 4-5 7-6.6 3.6-1.9 7.3-2.4 10.9-1.7 3.6.7 11 6.9 11 7 .4.3 1 .4 1.4.2l.9-.5.1-.4-.1-.9-9.1-15.1c-.2-.7-.9-.9-1.4-.6"/></svg>