<svg xmlns="http://www.w3.org/2000/svg" width="211.41" height="211.41" viewBox="0 0 211.414 211.414"><path d="M105.7 0c58.23 0 105.7 47.48 105.7 105.7 0 58.23-47.47 105.7-105.7 105.7C47.5 211.4 0 163.94 0 105.7 0 47.5 47.5 0 105.7 0z" fill="#147039"/><path d="M105.7 4.5c55.75 0 101.22 45.46 101.22 101.2 0 55.75-45.47 101.22-101.2 101.22-55.76 0-101.22-45.47-101.22-101.2C4.5 49.95 49.96 4.5 105.7 4.5z" fill="#FFF"/><path d="M105.7 39.36c25.4 0 47.56 14.4 58.7 35.47h-21.53c-8.9-10.67-22.25-17.48-37.16-17.48-26.6 0-48.3 21.72-48.3 48.36s21.7 48.4 48.4 48.4c20.27 0 37.7-12.6 44.86-30.3H87.7v-18.1h84.34c0 36.6-29.8 66.4-66.35 66.4s-66.4-29.8-66.4-66.35c0-36.5 29.8-66.3 66.36-66.3zm-36.66 137.7l-2.7-1.34c.28-.55.37-1.04.27-1.45 0-.4-.3-.75-.7-1.02-.5-.36-1.13-.4-1.83-.16-.7.2-1.6 1.1-2.7 2.6 1.14-.4 2.2-.2 3.14.4 1.08.7 1.74 1.7 1.98 3 .25 1.3-.05 2.6-.9 3.9-.9 1.4-2.02 2.22-3.37 2.53-1.34.3-2.66.05-3.93-.78-1.37-.9-2.14-2.15-2.34-3.78-.2-1.64.5-3.66 2.08-6.07 1.63-2.47 3.24-3.95 4.87-4.45 1.6-.5 3.15-.27 4.6.68 1 .68 1.7 1.5 2 2.53.3 1 .2 2.13-.35 3.34zm-9.54 1.85c-.54.9-.77 1.7-.68 2.4.1.7.38 1.25.88 1.57.48.3 1 .38 1.56.2.56-.15 1.12-.66 1.67-1.5.57-.9.82-1.65.74-2.28-.08-.6-.37-1.1-.9-1.44-.5-.32-1.04-.4-1.63-.23s-1.14.63-1.64 1.4zm9.8 6.7l1.32-2.8 5.5 2.6-1.32 2.8-5.5-2.54zm13.85 9.4l.9-3.1-6.35-1.9.77-2.6 9.53-7.9 2.48.7-2.8 9.84 1.9.56-.74 2.6-1.92-.6-.9 3.1-2.87-.8zm1.64-5.7l1.5-5.28-5.1 4.27 3.5 1zm8.7 3.32l.4-3.06 6 .85-.43 3.05-6-.86zm17.5 5.1l-3.1.1-.4-11.6c-1.1 1.1-2.4 1.9-3.9 2.46l-.1-2.8c.8-.3 1.65-.83 2.57-1.6.9-.77 1.53-1.65 1.85-2.64l2.5-.1.55 16.16zm7.2-4.43l2.86-.9c.2.6.46 1 .82 1.2.34.23.77.3 1.27.2.64-.13 1.1-.52 1.45-1.2.3-.65.36-1.9.13-3.73-.6 1.03-1.47 1.66-2.6 1.88-1.25.25-2.4-.02-3.5-.8-1.1-.8-1.8-1.95-2.1-3.5-.3-1.6-.07-2.97.7-4.14.75-1.16 1.87-1.9 3.34-2.17 1.6-.33 3.04.04 4.3 1.1 1.3 1.02 2.2 2.96 2.74 5.8.56 2.9.43 5.07-.4 6.56-.8 1.5-2.1 2.4-3.8 2.72-1.24.26-2.3.1-3.2-.4-.9-.5-1.56-1.4-2.03-2.65zm5.56-7.97c-.2-1-.56-1.7-1.1-2.14-.56-.46-1.1-.63-1.7-.5-.58.1-1 .4-1.3.92-.27.5-.32 1.27-.12 2.3.2 1 .53 1.7 1.03 2.1.5.4 1.04.54 1.65.4.57-.1 1-.43 1.33-1 .3-.52.37-1.24.2-2.13zm16.17 5.8l-1.2-3-6.1 2.47-1-2.5 2.62-12.1 2.4-.96 3.82 9.47 1.84-.74 1.05 2.5-1.85.78 1.23 3-2.8 1.14zm-2.23-5.5l-2.06-5.12-1.34 6.5 3.44-1.4zm8.67-2.04l2.4-1.86c.48.6 1 .97 1.57 1.1.56.13 1.1.04 1.6-.26.55-.34.9-.8 1-1.46.13-.64-.02-1.3-.44-2-.4-.68-.9-1.1-1.47-1.27-.6-.17-1.15-.1-1.66.2-.37.2-.7.5-1.1.93l-1-2.34c.7-.4 1.15-.9 1.33-1.46.17-.54.1-1.1-.23-1.64-.27-.5-.63-.8-1.07-.9-.44-.1-.9-.04-1.35.24-.46.27-.75.66-.9 1.17-.12.5-.04 1.1.26 1.76l-2.7 1.06c-.3-.93-.45-1.75-.4-2.46.03-.7.3-1.36.7-2.02.43-.63 1.03-1.2 1.8-1.64 1.3-.77 2.58-.98 3.86-.62 1.06.28 1.85.86 2.36 1.7.76 1.22.67 2.58-.22 4.1.9-.3 1.76-.3 2.6 0 .8.3 1.48.88 1.98 1.7.75 1.22.9 2.52.55 3.9-.36 1.4-1.2 2.48-2.52 3.27-1.23.74-2.5 1-3.74.8-1.25-.24-2.3-.9-3.12-2zM30.3 136.4l-2.53.98-2.5-6.54 5.97-2.3c.86.4 1.76 1.1 2.7 2.14.92 1.02 1.62 2.16 2.1 3.4.6 1.56.8 3.06.6 4.48-.23 1.43-.83 2.67-1.83 3.72-1 1.06-2.2 1.87-3.6 2.42-1.53.6-3.1.8-4.52.62-1.47-.2-2.77-.8-3.9-1.8-.87-.78-1.6-1.88-2.13-3.32-.72-1.86-.9-3.47-.5-4.82.37-1.35 1.2-2.44 2.46-3.27l1.7 2.8c-.64.5-1.06 1.2-1.3 1.9-.2.8-.1 1.6.2 2.5.54 1.33 1.36 2.23 2.5 2.7 1.15.45 2.55.36 4.2-.3 1.78-.7 2.97-1.6 3.56-2.72.6-1.13.64-2.34.15-3.63-.25-.63-.62-1.22-1.1-1.76-.5-.55-1.02-.98-1.55-1.3l-1.9.73 1.32 3.5zm-6.25-12.5c-1.63.2-3.02.13-4.2-.22-.85-.26-1.63-.67-2.36-1.22-.8-.55-1.3-1.18-1.7-1.9-.6-.93-.9-2.05-1.1-3.35-.3-2.3.2-4.3 1.5-5.9 1.3-1.6 3.2-2.5 5.8-2.8 2.6-.3 4.7.15 6.3 1.37 1.62 1.2 2.6 3 2.86 5.35.3 2.38-.2 4.36-1.48 5.94s-3.2 2.53-5.74 2.84zm-.52-3.3c1.8-.22 3.13-.8 3.96-1.76.8-.95 1.1-2.07 1-3.36-.2-1.28-.8-2.28-1.8-3-1.1-.7-2.5-.94-4.3-.72-1.9.23-3.2.8-4 1.7-.8.92-1.1 2.05-.98 3.38.15 1.33.74 2.34 1.75 3.04 1 .7 2.44.94 4.27.72zm6.8-18.24l-16.03-1.4.28-3.24 16.04 1.4-.28 3.24zm4.12-23.2l-.8 3.44-3.87.55-1.45 6.27 3.27 2.12-.78 3.36-14.28-9.73.78-3.35 17.13-2.66zm-7.55 4.4l-6.32.8 5.33 3.47 1-4.27zm4.66-10.06l1.2-2.94c1.04.33 1.9.36 2.62.08.72-.28 1.3-.86 1.77-1.73.5-.9.67-1.7.52-2.4-.14-.6-.47-1.1-1-1.4-.33-.2-.67-.2-1-.1-.35.08-.74.3-1.18.7-.3.3-1 .94-1.9 1.98-1.2 1.34-2.28 2.17-3.17 2.5-1.24.45-2.43.4-3.55-.2-.73-.4-1.3-.97-1.7-1.7-.4-.76-.58-1.6-.5-2.56.1-.94.4-1.96 1-3.06.94-1.77 2.04-2.9 3.3-3.4 1.27-.5 2.56-.4 3.9.25l-1.4 2.96c-.8-.26-1.47-.27-2-.04-.54.24-1 .77-1.45 1.57-.42.83-.6 1.57-.5 2.23.04.44.26.74.62.94.34.17.7.2 1.1.02.5-.2 1.27-.9 2.35-2.14 1.07-1.24 1.96-2.1 2.67-2.57.7-.5 1.45-.76 2.27-.8.8-.07 1.68.14 2.58.62.8.44 1.45 1.07 1.92 1.9.46.83.65 1.75.55 2.76-.1 1-.47 2.13-1.13 3.37-.94 1.8-2.1 2.96-3.43 3.48-1.33.54-2.85.47-4.54-.2zM49.9 54.65L38.94 42.87l8.73-8.14 1.85 2-6.34 5.92 2.44 2.6 5.9-5.5 1.86 1.98-5.9 5.5 2.97 3.22L57 44.3l1.86 2-8.95 8.35zm10.17-15.78l2.62-1.8c.6.83 1.3 1.33 2.1 1.48.7.15 1.5 0 2.4-.5.9-.5 1.5-1.07 1.72-1.72.25-.64.23-1.22-.06-1.74-.2-.4-.44-.6-.77-.7-.3-.2-.78-.2-1.36-.1-.4.04-1.27.3-2.6.6-1.75.47-3.08.6-4 .4-1.3-.3-2.24-1-2.86-2.13-.4-.7-.58-1.5-.5-2.35.05-.85.4-1.65.95-2.4s1.43-1.4 2.5-2c1.78-1 3.3-1.36 4.65-1.08 1.33.3 2.37 1.05 3.13 2.32l-2.76 1.7c-.5-.67-1.05-1.04-1.63-1.14-.56-.1-1.25.07-2.05.52s-1.37.96-1.65 1.56c-.18.4-.17.78.03 1.14.2.33.46.54.9.62.5.1 1.55-.1 3.1-.5 1.6-.47 2.8-.7 3.65-.7.87-.04 1.65.15 2.36.55.7.4 1.3 1.05 1.8 1.94.46.8.66 1.7.6 2.63-.06.95-.4 1.83-1.03 2.63-.62.8-1.55 1.54-2.77 2.2-1.8 1-3.4 1.35-4.8 1.06-1.4-.3-2.65-1.17-3.7-2.64zm18.84-4.02l-4.4-15.48 5.1-1.44c1.9-.54 3.14-.82 3.76-.83.96-.02 1.84.27 2.66.88.8.6 1.4 1.52 1.77 2.75.26.95.3 1.8.15 2.55-.15.74-.45 1.38-.87 1.9-.43.52-.9.92-1.4 1.2-.7.36-1.77.74-3.2 1.15l-2.04.58L82.1 34l-3.14.9zm-.5-13.75l1.3 4.35 1.7-.5c1.25-.34 2.05-.66 2.4-.94.4-.2.6-.6.78-1 .14-.4.15-.83 0-1.3-.15-.6-.45-1-.9-1.23-.42-.26-.9-.37-1.43-.32-.4.05-1.16.23-2.3.55l-1.5.42zm17.1 1.5c0-1.66.2-3 .68-4.17.35-.82.84-1.56 1.46-2.23.6-.65 1.3-1.15 2.06-1.47 1-.45 2.15-.68 3.46-.7 2.37-.04 4.3.66 5.73 2.1 1.43 1.45 2.2 3.5 2.22 6.1.02 2.6-.65 4.65-2 6.14-1.4 1.5-3.3 2.25-5.66 2.3-2.4.04-4.33-.66-5.77-2.1-1.46-1.43-2.2-3.43-2.24-6zm3.36-.2c.04 1.83.48 3.2 1.34 4.13.86.93 1.93 1.38 3.23 1.35 1.3 0 2.36-.5 3.18-1.45.8-.95 1.2-2.36 1.2-4.22-.03-1.8-.45-3.2-1.3-4.1-.8-.9-1.9-1.3-3.22-1.3-1.34 0-2.4.5-3.2 1.5-.8.92-1.2 2.32-1.17 4.17zm17.6 8.5l3.36-15.75 6.7 1.42c1.67.35 2.86.75 3.57 1.2.7.44 1.2 1.07 1.5 1.9.3.82.36 1.7.16 2.62-.26 1.1-.8 2-1.67 2.7-.86.6-2 .9-3.43.8.6.5 1.1 1.1 1.44 1.6.33.6.75 1.57 1.25 2.95l1.26 3.5-3.8-.8-1.6-3.94c-.54-1.4-.93-2.3-1.2-2.66-.2-.37-.5-.66-.8-.85-.3-.2-.82-.36-1.55-.5L121 25l-1.4 6.6-3.2-.7zm5.1-8.4l2.37.5c1.5.3 2.5.45 2.9.4.4-.05.74-.2 1.03-.48.27-.27.46-.64.56-1.1.1-.54.06-1-.15-1.38-.2-.4-.56-.68-1.06-.88-.25-.08-1.02-.27-2.3-.54l-2.5-.53-.84 4zm16.2 14.94l6.1-11.92-4.25-2.17 1.23-2.42 11.4 5.8-1.22 2.43-4.3-2.16-6.07 11.94-2.9-1.48zM149 43.7l9.9-12.7 9.4 7.4-1.67 2.13-6.85-5.32-2.2 2.86 6.37 4.96-1.65 2.13-6.38-5-2.7 3.47 7.1 5.5-1.68 2.16-9.66-7.54zm28 22.46l.87 3.2c-1.74.54-3.27.58-4.6.1-1.33-.48-2.46-1.44-3.4-2.9-1.17-1.8-1.5-3.66-1.03-5.6.48-1.96 1.78-3.62 3.9-5 2.25-1.46 4.38-2 6.37-1.66 2 .33 3.6 1.46 4.88 3.35 1.08 1.65 1.46 3.3 1.16 4.97-.2 1-.7 2-1.6 3l-2.4-2.25c.6-.62.93-1.3 1-2.08.08-.8-.1-1.57-.6-2.3-.63-1-1.52-1.56-2.64-1.72-1.14-.18-2.5.26-4.1 1.3-1.7 1.1-2.73 2.2-3.06 3.3-.33 1.1-.17 2.12.47 3.1.5.73 1.1 1.2 1.9 1.43.8.23 1.8.14 2.9-.3zm-1.2 11.03l15.1-5.2 1.05 3.04-12.53 4.32 2.63 7.63-2.57.9-3.7-10.7zm20.57 14.3l.28 3.2-8.7.75c-1.36.1-2.25.23-2.66.35-.7.2-1.2.6-1.5 1.15-.4.54-.5 1.27-.4 2.18.02.9.3 1.6.7 2.02.4.44.9.68 1.45.73.54 0 1.45 0 2.72-.1l8.86-.8.3 3.22-8.47.73c-1.94.16-3.3.2-4.1.1-.8-.1-1.5-.4-2.1-.8-.6-.43-1.1-1-1.48-1.78-.4-.77-.66-1.78-.77-3.05-.1-1.54-.02-2.7.27-3.54.27-.85.7-1.5 1.2-2 .53-.5 1.1-.88 1.7-1.08.9-.3 2.25-.53 4.04-.7l8.58-.74zm.62 22.8l-1 6.34c-.2 1.25-.4 2.18-.6 2.78-.2.6-.58 1.12-1 1.56-.4.43-.9.77-1.5 1-.6.24-1.24.3-1.93.2-.76-.1-1.4-.43-1.97-.9-.54-.5-.92-1.14-1.12-1.88-.47.93-1.07 1.6-1.8 2-.8.42-1.6.55-2.55.4-.72-.1-1.4-.4-2.03-.83s-1.1-1-1.43-1.67c-.3-.66-.4-1.4-.4-2.28.05-.56.2-1.86.5-3.9l.9-5.4 15.9 2.5zm-3.2 2.8l-3.68-.6-.33 2.1c-.2 1.25-.3 2.03-.3 2.34 0 .55.1 1 .4 1.38.23.36.62.58 1.13.66.5.1.93 0 1.28-.2.38-.24.6-.6.78-1.13l.5-2.74.26-1.83zm-6.3-1l-4.26-.7-.47 3c-.2 1.13-.27 1.9-.26 2.2.03.5.18.9.47 1.3.3.3.7.53 1.3.62.47.08.9.03 1.26-.15.38-.2.67-.5.9-.9.22-.4.44-1.36.67-2.8l.4-2.6zm-10.17 14.2l14.7 6.55-4.85 10.9-2.5-1.1 3.53-7.95-3.24-1.43-3.3 7.4-2.5-1.1 3.3-7.4-4-1.78-3.66 8.2-2.46-1.1 5-11.18zm-9.82 25.8c-3.37 0-6.1 2.75-6.1 6.1 0 3.4 2.75 6.14 6.13 6.14 3.36 0 6.1-2.76 6.1-6.13s-2.74-6.1-6.1-6.1zm-123.57 0c3.37 0 6.12 2.75 6.12 6.1 0 3.4-2.76 6.14-6.13 6.14s-6.12-2.76-6.12-6.13 2.76-6.1 6.13-6.1zM14.7 84.23l.85-2.8c-1.27-.5-1.5-2.1-1.52-3.2l-1.95.7c-.42 3.3 1.25 4.5 2.63 5.4z" fill="#147039" stroke="#147039" stroke-width=".49"/></svg>