<svg xmlns="http://www.w3.org/2000/svg" xmlns:xlink="http://www.w3.org/1999/xlink" width="360.93" height="360.93" viewBox="0 0 360.93 360.93"><defs><path id="a" d="M-129.04-237.94h595.28v841.9h-595.28z"/></defs><clipPath id="b"><use xlink:href="#a" overflow="visible"/></clipPath><path clip-path="url(#b)" fill="#231F20" d="M360.93 180.46c0 99.67-80.8 180.47-180.47 180.47C80.8 360.93 0 280.13 0 180.46 0 80.8 80.8 0 180.46 0c99.68 0 180.47 80.8 180.47 180.46"/><path clip-path="url(#b)" fill="#FFF" d="M352.62 180.46c0 95.08-77.08 172.16-172.16 172.16S8.3 275.55 8.3 180.46C8.3 85.38 85.38 8.3 180.46 8.3c95.1 0 172.16 77.08 172.16 172.16"/><path clip-path="url(#b)" fill="#0E93D2" d="M131.5 335.38c15.46 4.88 31.9 7.52 48.97 7.52s33.5-2.64 48.96-7.52c-13.82-10.68-30.72-17-48.96-17s-35.14 6.32-48.96 17m98-309.83c-15.43-4.88-31.9-7.53-48.94-7.53-17.06 0-33.5 2.65-48.95 7.53 13.8 10.67 30.7 16.98 48.95 16.98s35.1-6.3 48.94-16.98m13.34 91.2c23.8-8.74 45.25-22.3 63.1-39.53-17.9-21.66-41.24-38.58-67.96-48.7-8.98 7.73-19.33 13.7-30.6 17.4 18.2 13.2 31.68 39.38 35.44 70.83M153.6 45.9c-11.27-3.7-21.6-9.66-30.6-17.38-26.7 10.12-50.1 27.04-67.93 48.7 17.82 17.22 39.28 30.8 63.1 39.53C121.92 85.3 135.4 59.1 153.6 45.9m-35.45 198.3c-23.8 8.74-45.27 22.3-63.1 39.53C72.9 305.4 96.28 322.3 123 332.4c8.96-7.7 19.3-13.66 30.57-17.37-18.2-13.2-31.67-39.38-35.43-70.84m124.64-.1c-3.76 31.45-17.23 57.63-35.42 70.83 11.26 3.72 21.6 9.7 30.6 17.4 26.7-10.1 50.07-27.03 67.92-48.7-17.83-17.2-39.28-30.78-63.1-39.5"/><path clip-path="url(#b)" fill="#231F20" d="M310.65 277.64c20.27-27.1 32.26-60.74 32.26-97.18 0-36.44-12-70.08-32.2-97.18-33.7 32.28-79.6 52.22-130.2 52.22C130 135.5 84 115.56 50.4 83.28c-20.25 27.1-32.25 60.74-32.25 97.18 0 36.44 12 70.08 32.26 97.18 33.7-32.27 79.6-52.2 130.17-52.2 50.6 0 96.5 19.93 130.2 52.2"/><path clip-path="url(#b)" fill="#231F20" d="M209.8 96.9c1.77-.6 3.4-2.42 3.4-5.35 0-1.78-.5-3.24-1.63-4.37-1.13-1.14-2.6-1.62-4.7-1.62-4.2 0-5.68 2.4-6.95 4.05l2.9 2c1.28-1.6 2.62-2.1 3.4-2.1 1.45 0 2.76 1.2 2.76 2.8 0 1.14-.4 1.9-1.13 2.6-.6.55-1.47.96-2.76.96h-1.2v3.4h1.6c1.3 0 2.3.3 2.9 1.14.5.7 1 1.5 1 3.1 0 3.02-1.8 3.54-3.1 3.54-.84 0-1.45-.1-1.95-.5-.6-.5-1.13-1.3-1.45-2.1l-3.7 1.46c.5 1.62 1.3 2.92 2.6 3.73 1.13.8 2.75 1.3 4.7 1.3 2.1 0 3.9-.67 5.2-1.96 1.3-1.47 1.93-3.25 1.93-5.68 0-1.8-.58-5.3-3.87-6.3m-31.58-.7c0 4.7-.8 8.4-2.3 10.84-1.13 1.93-2.76 3.2-4.86 3.7-.52.13-1.22.16-1.78.16-1.37 0-2.48-.34-3.9-1.3l1.43-3.23c.8.37 1.75.65 2.6.65 1 0 1.92-.5 2.74-1.44.84-1 1.3-2.6 1.64-4.7-.9.72-1.45 1.45-3.56 1.45-1.76 0-3.2-.63-4.36-2.1s-1.63-3.4-1.63-5.82c0-2.9.63-5 1.8-6.46 1.1-1.47 2.9-2.28 5-2.44h.14c2.44 0 4.22.97 5.35 2.76 1.14 1.8 1.6 4.4 1.6 7.95m-7.1 2.4c1.02 0 1.6-.52 1.94-1.3.35-.8.5-1.92.5-3.4s-.1-2.66-.5-3.4c-.44-.82-1.14-1.1-1.95-1.1-.7 0-1.45.4-1.8 1.1-.45.96-.66 2.25-.66 3.4 0 2.35.68 4.7 2.44 4.7M147.58 88v3.25l4.34-1.3v16.52h-4.7v3.73h13.28v-3.73h-4.37v-20.4m52 169.26h-5.03l-6 24.3h4.06l1.45-6h5.7l1.3 6h4.57l-6-24.3zm-4.7 14.4l1.46-7.1.5-2.76h.04l.47 2.6 1.53 7.28h-4.06zm-56.7-14.07v23.97h4.54v-10.4h6.2v-3.9h-6.18v-5.82h8.9v-3.82"/><path clip-path="url(#b)" fill="#FFF" d="M159.94 136.57l9.08.16 7.6 14.26h-5.14l-6.96-9-7.4 9.02-4.87-.1 7.7-14.44M282.5 209c-5.3-5.6-7.86-13-7.86-22.6 0-9.6 2.65-17.25 7.85-22.8 5-5.5 12.1-8.3 20.9-8.3s15.92 2.8 20.96 8.3c5.3 5.6 7.85 13.07 7.85 22.8 0 9.6-2.57 17-7.85 22.6-5 5.48-12.06 8.34-21 8.5-8.74 0-15.8-2.86-20.95-8.5m8.43-38.2c-3 3.83-4.47 8.93-4.47 15.6 0 6.55 1.48 11.6 4.47 15.4 2.98 3.8 7.1 5.64 12.58 5.64s9.6-1.85 12.58-5.64c3-3.8 4.46-8.85 4.46-15.4 0-6.66-1.45-11.77-4.44-15.6-3-3.67-7.1-5.45-12.56-5.45-5.27 0-9.37 1.8-12.54 5.45m-32.8-13.86h11.7v58.8h-11.7zm-7.6 0v58.8h-10.84V168.1l-.63-.08s-11.96 47.22-12.07 47.7H215l-12.25-47.7-.62.08v47.62H191.2v-58.8h17.58l12.1 46.16 12.12-46.1h17.54zm-64.93 0v9.55h-31.1v13.4h28.5v9.55h-28.5v15.85h32.72v10.4h-44.1v-58.8m-24.8 0c6.5 0 11.26 1.34 14.2 3.97 3 2.7 4.6 7.05 4.6 12.58 0 3.4-.78 6.5-2.23 8.9-1.37 2.3-3.54 3.9-6.47 4.9l-.95.3.96.3c2.5.8 4.4 2.2 5.5 4.1 1.05 1.6 1.58 4.26 1.75 8.6l.32 7.3c.17 3.65.88 5.7 2.26 6.6v1.3h-12.9c-.44-.94-.65-1.67-.82-2.43-.2-.95-.44-2.17-.5-4.7l-.2-6.32c-.17-3.9-.87-6.32-2.2-7.65-1.18-1.35-3.5-2.04-6.87-2.04H101.3v23.2H89.7V157h28.67zm-16.68 9.56h-.32v16.35h14.75c3.17 0 5.65-.7 7.15-2 1.5-1.16 2.24-3.25 2.24-6.24 0-2.6-.73-4.6-2.2-6.07-1.54-1.4-3.73-2.07-6.56-2.07h-15.1zM36.3 208.9c-5.1-5.6-7.68-13.2-7.68-22.63 0-9.5 2.52-16.8 7.7-22.5 4.97-5.6 11.8-8.5 20.32-8.5 7.5 0 13.42 1.74 18.1 5.3 4.63 3.67 7.38 8.44 8.22 14.16H71.1c-.78-2.7-2.45-5.2-4.7-6.9-2.35-1.77-5.47-2.66-9.27-2.66-5.16 0-9.1 1.86-12.08 5.64-2.83 3.9-4.27 9-4.27 15.3 0 6.6 1.45 11.6 4.44 15.46 3.17 3.85 7.4 5.8 12.56 5.8 4.07 0 7.32-1.2 9.94-3.65 2.6-2.1 4.28-5.35 4.96-9.6l.06-.36h-13.5v-9.55H83.2v31.55h-7.68l-1.55-7.42-.43.6c-2.1 2.9-4.6 5.1-7.5 6.54-2.58 1.36-5.86 2.05-9.72 2.05-8.2 0-14.9-2.9-20-8.63"/><path clip-path="url(#b)" fill="#231F20" d="M173.18 266.8c1.47.48 2.6 1.13 3.4 2.26.82 1.14 1.14 2.43 1.14 4.05 0 2.1-.63 3.8-2.1 4.9-1.4 1.1-3.22 1.6-5.1 1.6h-6.9v-24h7.13c3.47 0 6.15 2.1 6.15 5.9 0 1.3-.32 2.43-.97 3.4-.62.95-1.6 1.56-2.75 1.96m-3.57-7.62h-1.4v6.16h1.5c1.9 0 2.9-1.4 2.9-3.24 0-2.35-1.02-2.94-2.9-2.94m3.57 13.45c0-1.5-.44-2.4-1.04-2.95-.63-.6-1.86-.77-2.66-.77h-1.3v7.1h2.36c1.16 0 2.65-.73 2.65-3.4m8.9-17v23.98h4.53v-9.1h2.1c1.97-.14 3.6-.8 4.9-1.93 1.45-1.46 2.1-3.23 2.1-5.67s-.65-4.2-1.95-5.5c-1.12-1.16-2.9-1.8-5-1.8h-6.65zm8.85 7.3c0 2.78-1.3 4.2-3.2 4.2h-1.14v-7.92h1.12c1.65-.02 3.2.7 3.2 3.7M183.7 89c-1.3 2.1-1.97 5.34-1.97 9.4 0 4.04.65 7.12 1.95 9.22 1.3 2.1 3.1 3.22 5.55 3.22s4.2-1.1 5.5-3.2c1.3-2.1 1.96-5.2 1.96-9.25s-.67-7.3-1.97-9.4c-1.3-2.28-3.07-3.4-5.5-3.4-2.45 0-4.23 1.12-5.52 3.4m8.43 9.4c0 3-.15 5.4-.65 6.7-.5 1.24-1.15 1.9-2.3 1.9-1.1 0-1.8-.65-2.25-1.9-.5-1.3-.64-3.7-.64-6.7 0-3.14.17-5.65.66-7 .45-1.3 1.1-1.95 2.25-1.95s1.8.65 2.28 1.95c.5 1.3.63 3.8.63 6.95"/></svg>