<svg xmlns="http://www.w3.org/2000/svg" viewBox="-417.1 607 163 187.3"><path d="M-254.1 722.5c-.2-14.6-5-25.5-9.7-36-3.3-8-4.7-13.6-5.2-20.6.4-8.5 3-15.1 7.2-23.1l3.5-6.8-30.1-29-.5.3-6.2 3.7c-11.6 7-25.9 10.9-40.5 11.2-15.2.3-29.3-3.4-40.7-10.7l-6.7-4.3-30.1 28.7 3.5 6.8c3 5.8 5 10.9 6.5 16.3.3 2.3.5 4.4.5 6.5 0 7.9-2.4 14.8-5 21-3.2 7.1-7.1 16.1-9 25.7l-.1.4v.4c-.3 2.5-.4 5.1-.4 7.6 0 10.7 2.6 21 7.6 29.7l.3.6.4.6c3.8 4.9 7.9 8.9 12.7 12l.2.2.2.1c8 4.6 16.3 7.7 24.4 10.7 10.7 4 20.7 7.7 28.9 14.5l6.4 5.3 6.5-5.2c5.3-4.2 10.6-7.3 17.3-10.1 3.6-1.5 7.3-2.8 11.2-4.2 8.4-3 17-6.2 25.3-10.9l.4-.2.3-.2c16.3-11.1 19.7-25.7 20.9-39.7v-1.3z"/><path fill="#FFF" d="M-292.4 615.5c-12.3 7.4-27.6 11.7-43.1 11.9-16.2.3-31.3-3.7-43.6-11.5l-3.3-2.1-24.3 23.2 1.7 3.3c3.2 6.2 5.4 11.8 7 17.6.4 2.6.6 5.1.6 7.5 0 8.2-2.2 15.4-5.4 23.1-3.1 7-6.9 15.6-8.7 24.6v.4c-.3 2.3-.4 4.7-.4 7 0 9.7 2.4 19.1 6.9 27.1l.2.3.2.3c3.4 4.5 7.1 7.9 11.4 10.7l.1.1.1.1c7.6 4.4 15.8 7.4 23.6 10.3 11.1 4.1 21.6 8 30.4 15.3l3.1 2.5 3.1-2.5c5.7-4.5 11.4-7.9 18.5-10.8 3.7-1.5 7.6-2.9 11.4-4.3 8.1-3 16.6-6 24.5-10.5l.2-.1.2-.1c13.7-9.3 17.4-21.1 18.7-35.8v-.5c-.2-13.5-4.8-23.9-9.3-34-3.6-8.7-5.2-14.9-5.6-22.6.4-9.5 3.2-16.8 7.8-25.6l1.7-3.3-24.4-23.5-3.3 1.9z"/><path d="M-263 722.6c-.2-11.9-3.7-20.7-9-32.7-3.8-9-5.4-15.8-5.9-24 .4-10.2 3.5-18.3 8.2-27.3l.5-.9-20.5-19.7-.9.5c-12.9 7.7-28.8 12.2-44.9 12.5-16.9.3-32.7-3.9-45.6-12.1l-.9-.6-20.3 19.3.4.9c3.4 6.5 5.7 12.4 7.3 18.5.5 2.9.7 5.7.7 8.3 0 8.8-2.3 16.3-5.7 24.5-3 6.8-6.7 15.3-8.4 23.9v.1c-.3 2.2-.4 4.4-.4 6.6 0 9.1 2.2 17.9 6.4 25.3v.1l.1.1c3.2 4.2 6.5 7.3 10.5 9.9 7.3 4.2 15.3 7.2 23.1 10.1 10.9 4 22.1 8.2 31.5 15.9l.8.7.8-.7c6-4.8 11.9-8.3 19.4-11.4 3.8-1.6 7.8-3 11.6-4.4 8-2.9 16.3-5.9 23.9-10.3 12.5-8.5 15.9-19.4 17.1-33.1h.2zm-12.9-76.9l-7.7 3.3v-21.5c4.7 4.6 10.4 10 11.2 10.8-1.3 2.5-2.5 5-3.5 7.4zm-90-16.6c6.1 2.1 12.6 3.5 19.4 4.2v42.8l-19.4 8.3v-55.3zm40.9 3.9c6.8-.9 13.5-2.4 19.9-4.7v30l-19.9 8.6V633zm-72.1 58c3.6-8.4 6-16.3 6-25.5 0-2.8-.2-5.7-.7-8.9v-.2c-1.6-6-3.9-11.8-7.1-18.2.8-.7 6.8-6.5 11.5-11v66.3l-13.2 5.7c1.2-2.9 2.4-5.6 3.5-8.2zm-8.2 23.3c.8-3.9 2-7.8 3.4-11.6l124.7-53.5c-1.9 5.2-3 10.6-3.2 16.7v.2c.4 6.9 1.7 12.5 3.5 18v-.1l-125.6 54.1c-2-5.4-3.1-11.4-3.1-17.5-.1-2.1.1-4.2.3-6.3zm58.8 58c-6.3-3.3-12.9-5.9-19.4-8.3v-39l19.4-8.3v55.6zm-53.1-27.8c-.7-1.3-1.4-2.6-2-4l14.2-6.1v20.7c-.8-.4-1.7-.9-2.5-1.4-3.7-2.4-6.8-5.3-9.7-9.2zm82.9 23.7c-3 1.2-5.8 2.6-8.4 4v-64.6l19.9-8.6v64.9c-3.7 1.3-7.7 2.7-11.5 4.3zm35.2-14.5l-2.1 1.2v-65.2l7.5-3.2c.6 1.5 1.2 3 1.8 4.6 5.2 11.7 8.6 20.3 8.8 31.6-1.3 13.2-4.3 23-16 31z"/><path d="M-399.1 732.8l3.7-27.5 5.3-2.3 12.8 20.3-5.3 2.3-2.3-4.3-8.5 3.7-.7 5.7-5 2.1zm6.2-12.7l5.7-2.5-4.6-8.3-1.1 10.8zm23.1-5.5l.9 4.8-4.8 2.1-1.1-4.8 5-2.1zm4.1 3.4l3.6-27.4 5.5-2.5 12.8 20.4-5.3 2.1-2.3-4.1-8.5 3.6-.5 5.7-5.3 2.2zm6.2-12.4l5.7-2.7-4.6-8.4-1.1 11.1zm23.1-5.7l.9 4.8-5 2.3-.9-5 5-2.1zm6 2.7l-4.6-23.8 10.1-4.4c2.1-1.1 3.7-1.1 5.2-.5 1.2.5 2.3 1.6 3 3 .5 1.6.7 3 .5 4.8-.2 1.6-.9 3.2-1.8 4.4-1.1 1.4-2.3 2.5-4.1 3.4l-5.3 2.3 1.8 8.7-4.8 2.1zm2.3-14.8l4.6-2.1c.7-.2 1.2-.9 1.6-1.4.7-.5.9-1.4.9-2.1 0-.9 0-1.6-.4-2.5-.4-.7-1.1-1.2-1.6-1.4-.7 0-1.6.2-2.7.5l-4.1 1.8 1.7 7.2zm19.2 0l.9 5-5 2.1-.9-5 5-2.1zm5.9 2.7l-4.4-23.8 10.1-4.4c2-1.1 3.6-1.1 5-.5 1.4.5 2.5 1.6 3 3 .7 1.6.9 3.2.7 4.8-.2 1.6-.9 3.2-1.8 4.6-1.1 1.2-2.3 2.3-4.1 3.2l-5.5 2.3 2 8.7-5 2.1zm2.5-14.8l4.6-2.1c.7-.2 1.2-.9 1.6-1.4.5-.5.9-1.4.9-2.1 0-.9 0-1.6-.5-2.3-.4-.9-.9-1.4-1.4-1.6-.7 0-1.6.2-2.7.5l-4.1 1.8 1.6 7.2zm19 0l1.1 5-5 2.1-.9-5 4.8-2.1z"/></svg>