<svg xmlns="http://www.w3.org/2000/svg" width="595" height="664" viewBox="0 0 595 664"><path d="M472.78 81.6l-9.53 5.16c-44.7 23.28-98.64 34.9-161.85 35.04-63.34-.13-117.3-11.76-162.12-35.04-3.18-1.72-6.35-3.44-9.4-5.16l-81.85 88.2c48.14 35.45 46.42 92.3-5.16 170.6-31.73 47.86-39.14 97.85-22.2 149.95C41.8 555.68 92.6 590.85 173.12 596c50.12 3.18 92.83 20.77 128.27 52.9 35.3-32.13 78-49.72 128.1-52.9 80.5-5.15 131.3-40.32 152.42-105.65 16.8-52.1 9.52-102.1-22.1-149.96-51.7-78.3-53.4-135.2-5.3-170.6l-81.8-88.2z"/><path fill="#FFF" d="M134.65 95.62c-.93-.4-1.86-.92-2.78-1.45l-69.03 74.58c44.7 38.48 40.86 97.6-11.63 177.06-3 4.7-5.9 9.4-8.4 14.1L421.4 115c-35.44 11.23-75.5 16.8-119.94 16.9-65.05-.13-120.6-12.16-166.74-36.23m140 264.3L221 394.6v199.03c19.04 5.15 36.9 12.82 53.56 22.74l.13-256.4zm107.24-69.4l-53.7 34.64V616.4c16.67-10.05 34.53-17.72 53.7-22.88V290.52zM167.3 429.4l-53.68 34.64V574.2c15.87 5.8 33.72 9.5 53.7 11.36V429.4zM59.93 498.8l-19.57 12.6c5.42 10.3 11.9 19.56 19.57 27.9v-40.5zM489.3 221.12l-53.8 34.64v329.8c19.95-1.85 37.8-5.68 53.67-11.5l.14-352.94zm62.16 124.68c-3.04-4.48-5.95-9.1-8.6-13.47v206.8c12.96-14.13 22.88-31.46 29.62-51.82 15.87-49.1 8.86-96.2-21.02-141.5m-107.1-213.4c-1.47-3.5-4.64-4.3-9.4-2.1L365 176.6c-4.23 4.5-6.34 9-6.6 13.62v78.14c1.45 9.8 6.08 12.46 14 8.2l61.37-38.85c5.55-4.76 9.12-11.23 10.58-19.3v-36.1l-31.08 18.9v22.9l-17.2 11.5c-1.97 1.05-3.43.9-4.22-.4-.66-1.1-.93-3.05-1.06-6.22l-.7-39.93c.2-2.26 1-4.1 2.4-5.43l18.2-13.5c3.95-3.15 6.1-3.02 6.33.3v4.22l27.25-18.1v-24.1zM287.1 251.8l19.3-12.57v-26.18l-91.24 59.24V292l12.7-7.68v65.2l-12.3 8.33.26 18.5 60.3-38.07v-18.9l-16 10.3v-24.6l15.74-10.18v13.23l16.26-10.85v-40.86l-14.94 10.32v7.4l-17.46 10.05v-20.8l21.7-14.4m-84.5 139.3v-25l-26.06 16.4v25.8m142.7-117.66v25.64l26.05-17.07v-25m-188.7 48c-1.9-1.06-4.8-1.2-8.9-.13l-64.7 40.1c-6.75 4.38-9.8 8.87-9 13.64l.14 34c.53 5.17 2.4 7.95 5.56 8.2 3.3.4 8.04-1.7 14.4-6.2l27-17.2c5.12-1.96 8.3-1.83 9.35.4v22.1l-21.7 14.55c-3.56 1.98-5 .53-4.48-4.23v-12.3l-30.3 18.8v23.02c-.13 9.65 3.97 12.56 12.3 8.6l65.46-42.2c5.68-3.03 8.33-9.5 8.2-19.17l-.4-31.6c-4.63-6.75-11.77-8.07-21.3-3.7l-28.68 17.58c-2.78 1.06-4.37-.13-4.9-3.17v-9.9c-.26-1.45 0-2.9.93-4.23.93-1.3 2.5-2.76 5.16-4.5l14-8.97c3.32-1.86 5.44-1.46 6.1 1.45v7.26l29.1-18v-18.8c-.8-2.65-1.86-4.4-3.32-5.3M488 202.35V177.2l-26.07 16.4v25.8"/><path d="M232.1 189.5c0-17.3-6.2-32.12-18.38-44.3-12.3-12.3-27.1-18.5-44.3-18.37-17.32-.13-32 6.08-44.3 18.38-12.3 12.2-18.38 27-18.38 44.3 0 17.2 6.1 32 18.4 44.3.78.7 1.57 1.5 2.37 2.2 11.8 10.86 25.7 16.28 42 16.28 17.2 0 32-6.2 44.3-18.4 12.18-12.3 18.4-27.1 18.4-44.3m-65.6-56.6c1.06-.1 2-.1 3.05-.1 6.6 0 12.56 1.05 18.38 2.9.15.13.15.26.15.4 15.2 27.1 16.53 50.4 4.37 69.55-.13-.13-.4-.13-.65-.26 3.04-26.45-5.3-50.65-25.26-72.47m21.8 76.3c.67 0 1.46 0 2.25.15.92.13 1.7.4 2.4.8.24.25.5.5.8.9v.15c0 .27.1.54 0 .93-.16.67-.56 1.47-1.35 2.26-.4.52-.8 1.05-1.33 1.45-1.2 1.04-2.77 1.97-4.6 2.63-2.27.8-4.4 1.2-6.37 1.2-.27-.14-.53-.14-.8-.14-1.45-.27-2.38-.8-2.9-1.72-.4-.9-.27-1.83.65-3.02 0 0 .14-.14.14-.28h.15c1.3-1.74 3.4-3.06 6.05-4.1 1.6-.68 3.3-1.07 4.9-1.2m-3.03-3.58c-1.2.3-2.1.55-3.3 1.08-2.64.94-4.75 2.26-6.5 3.85-29.7-5.3-44.4-26.2-44.14-62.8 8.05-7.4 17.3-12.18 27.62-14.03 21.15 21.56 29.74 45.5 26.3 71.94m39.8-27.7c-.27.8-.53 1.73-.8 2.66-5.55 16.4-14.54 25.9-26.97 28.55 12.97-19.4 12.7-42.7-.65-69.5 4.64 2.5 8.87 5.8 12.83 9.8 8.3 8.2 13.48 17.7 15.6 28.53M210 229.16l-.4.4c-6.9 6.88-14.7 11.64-23.4 14.3 3.94-6.23 5.27-13.63 4.2-22.6.4-.16.8-.4 1.2-.7 6.08 4.9 12.3 7.8 18.38 8.6m-13.9-12.7c.27-.4.53-.65.67-1.04 12.97-1.7 22.75-9.5 29.5-23.4-.4 11.77-4.24 22.2-11.1 31.34-6.36.27-12.7-1.98-19.05-6.88M173.7 222c.4.15.66.4 1.2.68-9.93 8.32-24.87 10.83-44.7 7.26-.27-.13-.4-.26-.54-.4-5.17-5.15-9-10.57-11.78-16.66 18.4 10.98 36.9 14.02 55.8 9.13m8.73 1.8v-.14c.7 0 1.5-.13 2.15-.26.9 9.4-1.74 16.92-7.95 22.47-2.26.14-4.64.28-7 .4-11.13-.12-21.18-2.9-30.04-8.6 19.3 1.33 33.6-3.3 42.85-13.87m-67.7-20.1c-1.2-4.5-1.7-9.14-1.7-14.16 0-13.36 4.1-25.13 12.43-35.3 1.3 35.43 16.93 56.06 46.8 62-19.56 4.9-38.73.8-57.5-12.55"/></svg>