<svg xmlns="http://www.w3.org/2000/svg" width="612.04" height="685.6" viewBox="-400.819 263.502 612.039 685.595"><path fill="#231F20" d="M-94.8 263.5c67.3 83.77 167.04 104.6 306 124.92 1.45 245.96-79.9 442.54-306 560.68-226.6-118.14-307.45-314.72-306-560.68 138.48-20.34 238.7-41.16 306-124.92z"/><path fill="#D91A21" d="M-388.2 399.56c.96 233.85 79.4 420.75 292.92 534.53 213.52-113.8 291.96-300.7 292.92-534.6-44.54-6.8-90.04-14-133.64-25.67C23.34 362.7-16.36 347.23-50.74 323c-16.46-11.6-31.47-24.7-44.54-39.2-13.56 15-28.1 28.07-44.55 39.2-34.86 24.2-74.08 39.7-114.75 50.85-43.57 11.6-88.6 18.87-133.63 25.65z"/><path fill="#231F20" stroke="#231F20" stroke-miterlimit="10" d="M-388.2 399.56c0 39.7 2.4 78.43 7.74 115.23L-238.6 369c-5.33 1.46-10.65 2.9-15.98 4.84-43.57 11.62-88.6 18.88-133.63 25.66z"/><path fill="#231F20" stroke="#231F20" stroke-width="2" stroke-miterlimit="10" d="M-358.2 619.37c9.7 31.47 21.3 61.98 35.84 90.54l339.4-351.5c-23.72-9.2-46.48-20.8-67.78-35.3-4.36-2.9-8.23-5.8-12.6-9.2L-358.2 619.4zm84.74 167.53c17.9 23.24 37.76 44.54 60.52 65.36l411.07-426.08c.48-8.7.48-17.43.48-26.14-28-4.36-56.1-8.72-84.2-14.04l-387.8 400.9zm132.7 122.08c15 9.68 30.5 18.88 46.96 27.6 157.36-84.25 241.6-207.72 275-360.72-.47-.48-.96-1.45-.47-1.94l-321.5 335.06z"/><path fill="#FFDA00" d="M-254.1 505.6c-30.5-18.4-45.5-46.97-46.48-92 24.2-.97 38.25-8.23 46.97-18.9 8.2 10.18 20.8 15.5 46 16.96-2 48.42-15.5 75.53-46.5 93.93z"/><path fill="#231F20" d="M-40.57 559.34V569c0 10.65-.5 20.82 1.45 30.02.97 5.32 2.42 10.65 4.84 15.98 2.42 5.32 5.33 11.13 10.17 17.43 1.9 2.42 4.3 5.32 6.7 8.23 3.85 4.84 7.73 9.2 10.63 13.56l1.45 2.9c2.42 3.4 6.3 6.3 10.65 8.23 4.87 2.42 10.2 3.4 15.5 3.4 6.3 0 12.1-1.95 16.96-6.3 3.9-3.88 6.8-8.72 7.27-15.98.96-16.47-9.2-33.9-20.35-53.76-5.35-9.2-11.16-19.3-15.5-29.5-4.38-9.6-7.77-19.3-10.2-29-1.92-9.7-2.9-20.32-1.43-31.45.47-7.3 2.9-14.05 5.8-19.86 3.4-6.3 7.75-11.14 12.6-14.05 2.4-1.48 4.83-2.9 7.73-3.4 2.9-.98 5.83-.98 8.73-.98 10.2 0 19.4 4.84 26.16 14.52 5.8 8.22 9.66 19.84 9.66 34.37 1.93 1.94 3.86 5.8 5.32 9.68 1.92 4.85 3.86 10.18 4.83 14.54.96 3.4.96 7.26.96 10.65 0 3.4 0 6.77 1 9.67.5 1.94 1.44 4.36 2.4 6.78 1.93 4.84 4.35 10.65 4.84 18.4 0 1.94-1.92 2.9-3.4 1.94-1.9-1.5-2.9-2.45-4.33-2.9-1.94-1.5-2.9-2.45-6.8-4.9-.95-.44-2.4-1.4-4.33-2.4-.5 0-.5-.5-.96-.5-3.4-1.9-7.76-4.32-9.7-6.3-2.9-2.4-4.84-6.3-6.77-10.13-1.95-4.35-3.4-9.7-4.37-14.04-.96-4.83-.96-11.13-.5-16.93.5-5.84 1.5-11.64 2.93-14.55 0-1.45.95-3.4 1.92-5.33.97-1.92 1.46-4.34 1.46-5.3-.5-5.33-2.9-11.14-7.27-15-3.37-3.4-7.73-5.34-12.57-5.34-4.87.5-7.77 2.43-10.2 5.34-2.4 3.4-4.34 7.28-5.3 11.64C16 502.7 16 508 16 513.84c.5 6.3 1.46 13.54 3.4 20.32 4.84 19.37 13.07 32.92 22.27 47.45 3.87 6.3 8.23 13.1 12.1 20.4 3.88 6.78 7.27 15 9.2 23.24 1.94 7.75 2.9 15.5 2.9 22.76-.5 13.06-5.32 24.2-13.07 32.43-7.74 7.73-18.4 13.05-30.98 13.05-4.85 0-9.2-.48-13.57-1.45-3.4-.96-6.77-2.4-9.67-4.35-.5 1.45-.5 2.42-.97 3.88-.5 1.93-.5 4.35 0 6.77.5 2.9 1.5 6.3 2.9 9.7 2 4.35 3.4 7.74 4.9 10.65 1.45 2.9 2.4 4.36 3.4 5.32.95.96 1.9 1.93 3.37 2.9 5.33 5.33 9.7 9.2 14.04 11.62.98.47 1.95.47 2.9.96 2.9.48 5.35 1.45 5.35 4.84 0 1.93-.5 3.38-.96 4.83-.5.96-.5 1.93-.97 2.9-.5 2.42-.97 4.84-1.45 7.74-.5 2.9-.5 5.3-.5 7.24 0 2.9.5 6.3 1.46 10.17s1.94 7.3 2.9 10.7c.5 1.48.98 2.9 1.95 4.38.96 2.9 2.4 5.8 3.86 10.64v.48c.5 0 1 .48 1.96.97 2.45 1.44 5.84 2.9 5.35 5.8 0 2.42-2.9 4.84-5.3 7.26-1.47 1.47-2.9 2.44-3.4 3.4 0 .5-.97.98-1.45.98h-7.3c-1.93 0-5.32 2.43-7.26 4.37-.48.48-1.45.97-1.45 1.45-2.5 1.94-7.3 2.42-11.7 1.45-3.4-.5-6.3-1.94-8.23-4.36-.97.5-1.94.5-2.9.5-1.46.48-2.9.48-4.37.48-1.93 0-3.87-.45-5.8-.94-.5 0-.98-.47-1.46-.47v.95c0 1.44 0 2.4.5 3.86 0 .97-.5 2.4-1.47 2.4-2.4.5-4.33.5-6.3-.46-1.42-.5-2.9-1.46-3.84-2.9-.97-1.47-1.94-2.44-2.43-3.9 0-.96-.46-1.44-.46-2.4l-1.43 1.4-.94 1c-1.45 1.44-2.9 1.93-4.84.47-1.95-2.4-2.9-5.8-3.4-9.2 0-4.35.97-8.23 1.94-10.16 0-.93.48-1.42.96-2.4v-.5c.5-1.42 1.45-3.4 3.4-5.3 1.92-1.93 5.3-4.35 10.64-6.8 2.9-1.42 10.16 4.4 15.5 3.9h1.44v-1.94c.5-17.42.5-23.23-3.38-29.04-1.93-2.42-3.87-4.35-6.3-5.8-2.4-1.46-5.32-2.9-8.7-3.9-5.82-1.93-11.14-4.35-16.47-6.8-5.32-2.4-10.17-5.3-15-8.2-11.63-6.8-18.4-16-22.76-26.63l-2.9-7.26c-2.9.96-7.28 2.9-13.1 4.83-.5 0-.5.45-.97.45-4.36 1.94-12.1 7.27-18.4 13.1-4.36 4.33-7.75 9.17-8.23 13.05-.48 2.9 0 5.33.5 7.75.95 7.72 2.4 14.5-9.7 23.7-.48 2.43-1.45 4.85-2.4 6.8-1.96 4.84-3.9 9.2-3.9 15.5 2.43 2.4 2.9 5.32 2.9 8.7 0 2.9-1.93 5.8-4.35 8.24s-4.86 3.84-7.76 3.84h-3.9c-1.94-.44-4.36-.44-4.84 0-7.26 3.4-13.07 3.9-16.95 3.4-3.86-.5-6.76-1.9-7.73-3.4-1.94.5-3.88 1.5-5.33 1.5h-.47c-.5 0-.97 0-1.46-.5l-3.4 2.9c-.46.47-1.43.47-1.9.47-1.95-.5-3.4-1.94-4.85-3.4-.5-.47-.5-.96-.96-1.44-.5 1.94-.97 3.4-2.9 3.88-1.46.5-4.36-.48-7.27-3.4-2-1.44-3.4-3.86-4.9-6.77v-.48c0-.5-.5-.98-.5-1.46v-.47c0-.48-.46-.97-.46-1.45-.48-.98-.97-1.46-1.45-2.43-.97-2.9-1.46-5.8-.97-8.73.5-2.9 1.46-5.8 3.4-8.23 1.93-2.43 4.36-4.85 7.26-6.3 2.9-1.45 6.3-2.4 9.2-2.4 5.34 0 9.2 2.4 13.08 4.82 3.4 1.92 6.77 3.85 9.7 3.85 1.43 0 2.4-.5 3.37-.97 1.46-.96 2.43-1.93 3.4-2.9.96-1.45.96-3.4.96-5.33v-11.1c0-3.4 0-6.8-.44-10.17 0-3.4 0-7.27-.48-10.66 0-7.27 0-14.53-1.46-21.8-.46-3.86-1.43-7.25-1.43-10.64-.5-6.3 0-13.04 1.93-19.34 1.9-6.3 5.3-12.6 10.63-18.4 14.03-15 33.9-16 57.12-17.47 1.45 0 2.9 0 4.84-.47-.46-.98-.94-2.43-1.9-3.4-4.87-9.2-12.1-16.46-20.84-25.18-12.1-11.64-26.15-25.68-39.22-50.37-3.4-.5-6.77-1.45-10.16-2.4-4.35-1.47-8.22-3.9-12.58-6.3-3.88-2.43-6.8-4.37-9.2-6.3-3.4-2.42-13.56-10.17-18.4-10.65-.97 0-2.9 1.44-4.36 3.4-1.45 1.43-2.9 2.4-3.87 3.37-2.43.97-4.36.97-5.33-1.45-.5-.96-.5-1.9-.5-3.86-.93.48-2.4.97-3.84 1.94-3.4 1.92-5.8 2.9-8.7 2.9s-5.34-.98-8.25-3.4c-3.36-2.9-6.75-6.78-9.66-10.65-2.9-3.88-5.33-7.76-6.3-10.66-.96-3.4-3.87-11.14.98-13.56-1.93-2.9-2.9-7.75-2.42-11.13 1.5-1.47 3.9-1.95 5.8-1.95-.44-1.94-1.9-5.8-2.4-7.75 1.96-1.95 6.8-2.43 7.77-2.43 0-.48-.5-.48-.5-.97-.5-1.94-.97-3.87-.97-5.8 5.3-3.88 18.4-1.95 19.35.96 1.9 1.93 3.35 4.35 4.32 7.25.5 1.94 1.45 3.88 1.94 5.8 1.5 4.37 2.45 8.24 4.87 10.18l.5.48c3.37 3.9 6.28 5.35 9.67 6.8 1.44.5 2.9 1.46 4.35 2.4 1.44 1 3.4 1.96 5.3 2.9 7.27 3.9 13.57 7.3 23.25 13.6.5-.5.97-.5 1.45-.97-.96-8.7-4.35-18.9-7.26-28.55-2.9-7.73-5.32-14.5-7.75-18.9-.96-1.9-1.45-3.35-1.9-4.8-.5-1.46-1-2.4-3.4-3.9-.5-.5-.98-.5-1.95-.96-1.95-.97-3.4-1.46-3.88-3.88-.5-1.46 0-3.4 1.44-4.85l.5-.46c-1.93-1.47-4.35-2.9-5.8-4.86-2.9-3.4-5.33-7.75-7.27-12.1-.95-2.9-1.92-6.3-2.4-9.2-.47-3.88-.96-7.76-.96-10.66 0-.98.95-1.95 1.92-1.95 2.4 0 4.82 0 6.76.5v-.5c-.5-.98-.5-2.4-1.46-3.88-.5-1.44.5-2.9 1.94-2.9h5.33c.96 0 1.92 0 2.9-.5v-.46c-.5-1.47-.98-2.9-.5-4.37 0-.5.97-1 1.45-1.47 2.9-.97 5.8-1.46 8.7-.97h1.48c0-1 .48-1.96.97-2.44 0-.5 1.45-1 1.93-1 2.9 0 5.3 0 7.25.47 1.93.5 3.87.95 5.8 1.92 1.94.95 3.4 2.4 4.85 3.85 3.4 3.87 5.8 8.7 6.8 13.55.96 5.35 0 10.2-2.43 15-.97 1.48-1.94 2.9-3.4 4.4l-1.45 1.45c-1.95 1.45-3.4 2.9-2.9 5.8 1.43 3.88 5.3 9.7 9.66 16.47 3.85 5.8 8.2 12.1 13.05 16.95 7.28-6.3 13.57-12.1 20.84-16.46 4.35-2.9 8.7-4.8 13.55-6.74-.48-.5 0-.5-.48-.5s-.97.5-1.45.5c-1.97.96-4.4 1.92-8.27 1.92-.96 0-1.45 0-2.42-.48-2.4-.98-3.84-2.43-4.32-4.37-1-1.92-1-3.86-1-5.8 0-.97.5-1.93.5-2.9s-.5-1.94-.98-2.9c-.48-1.46-1.45-3.4-1.45-5.33 0-2.9 2.9-4.85 5.33-6.8.48 0 .48-.5.96-.5.5-1.44.97-2.9 1.94-3.86l.5-.48c-1.47-.5-2.44-1.95-2.92-3.4-.97-1.45-.97-2.9-1.45-3.87l-.5-.5c-1.9-.98-4.8-2.9-6.26-9.2-.98-3.88 0-6.78.47-9.7.5-1.93.98-3.4.5-5.32-.5-2.46-.97-3.9.48-5.8.97-1.98 3.4-2.9 8.23-2.47 1.95 0 5.34-.47 8.73-1.93 2.9-.95 5.3-1.92 7.73-3.37 2.42-2.9 4.84-5.33 7.74-6.78 2.9-1.46 6.8-2.42 12.1-2.9.5 0 1.46 0 2.43-.5 2.43-.48 5.33-.96 8.24-.96 1-2.4 2.43-4.85 3.9-6.8 1.92-2.4 4.34-4.35 7.24-4.35 4.86 0 10.18 3.4 13.57 7.76 1.92 2.43 2.9 4.85 3.85 7.76.5 1.45.5 3.4.5 4.84 0 .5.48.5.48 1 .5 1.94 1.94 3.87 3.4 5.3.96 1.48 2.4 2.45 3.87 3.4 2.4.98 5.3 2.9 7.25 5.34 2.42 2.42 4.84 5.33 6.8 7.75.96 1.4 1.44 3.4 2.4 4.8.48 1 .48 1.94.97 3.4.94 1.93 1.9 3.4 3.85 4.83 1.93 1.45 3.86 3.4 5.8 4.84 2.9 1.94 4.84 4.36 5.8 7.27 2.4 5.3 2.4 10.15 2.9 15.96 0 3.4.97 6.3 2.43 9.2 1.93 2.43 4.35 4.85 8.7 5.8.5.5 1.46 1.48 1.46 1.96v1.44c-.47 1.47-.95 2.9-2.4 3.9-1.46.97-2.9 1.46-4.85 1.46.5 5.8-.5 11.6-1.96 17.9-.95 6.3-1.92 11.62-4.83 17.43-.96 1.92-4.83 10.64-6.8 11.12-.5 9.2 1 18.4 2.9 22.76.5.96 1 1.92.5 2.4-.5.5-1.92 1-2.4 1-2.9 0-5.34-.5-7.76-1.96.47 1.44.95 2.4 1.44 3.4v1.93c1.44.94 3.4 1.9 3.4 1.9.95.5 1.9.5 1.9.98s-1 1.92-1.47 2.4c-2.9 2.4-7.23 3.4-10.62 3.4-4.88 0-9.7-1.47-12.6-2.9h-1c-1.45.94-2.4.94-2.9.94z"/><path d="M-272.5 481.87v-1.46c.5 0 1.46-.4 1.46-.9s.48-.93.48-2.4v-49.9c0-.95 0-1.92-.48-2.4 0-.5-.48-.98-1.45-.98v-1.45h19.9c9.2 0 15.5 7.28 15.5 16.47 0 4.4-1.9 11.6-6.3 14.57l7.3 20.8 1.47 2.9c.48.98 1.45 1.95 2.4 2.9v1.47h-10.64V480c.5 0 .97-.5.97-.5.97-1.45 0-2.9-.48-4.35l-6.3-18.9c-1.47 0-3.4.5-4.86.5h-12.1V477c0 .97 0 1.94.5 2.42 0 .5.96.5 1.44.97v1.4h-8.7z"/><path fill="#FFDA00" d="M-254.58 428.6h-10.65v21.8h10.65c8.72 0 12.1-4.36 12.1-11.63 0-6.77-3.38-10.16-12.1-10.16z"/><path fill="#231F20" d="M-234.24 459.6l.97-.5 3.4 11.15-.98.48c-1.46-1.94-1.94-2.42-5.33-.48-6.3 2.9-12.6 3.87-21.8 3.87-6.76 0-12.57-.97-16.93-4.36-5.9-4.35-7.8-10.65-7.8-15.5 0-8.22 4.3-20.33 25.2-20.33 5.8 0 12.6.97 16.9 2.42 3.9.97 6.3 2.43 6.3 2.43.5 0 1.43 0 1.43-.5.5-.47 1.45-.96 1.94-1.44l.97.48-3.88 11.62-.98-.48c.5-1.94-1.94-3.87-4.36-4.84-4.35-1.94-11.13-3.4-17.9-3.4-14.53 0-19.86 6.8-19.86 14.05 0 4.84 2.9 9.68 8.24 12.1 2.42.97 9.2 1.46 14.53 1.46 3.4 0 14.07-1.46 18.4-5.8 1-.98 1.48-1.95 1.48-2.44z"/><path d="M-260.87 479.93h.97c.96 4.36 2.9 3.4 5.32-.48 1.45-2.42 1.94-6.3 1.94-10.17-.5-6.3-2.42-12.6-4.36-18.4-2.42-7.26-4.84-14.53-4.84-22.27 0-5.3 1.45-10.6 4.84-14.5 2.42-2.4 5.33-4.3 9.2-4.8 1.45 0 2.9-.5 2.9-1.9h.98v11.14h-.97c-.9-3.4-2.9-2.9-4.8-1.94-1.4.5-2.4 1.46-3.4 2.43-1.9 2.4-2.9 6.3-2.9 10.14 0 6.77 2.4 13.07 4.4 20.33 1.96 6.77 4.38 13.06 4.86 20.32.48 5.33-.5 10.17-2.9 14.04-1.46 2.43-3.9 4.85-6.8 5.82-2.4.96-2.9 1.93-2.9 3.4h-.97v-13.1h-.47z"/><path fill="#FFDA00" d="M-185.82 808.7c-.5-.98-1.46-1.95-1.46-2.43h-2.9c.48.96.48 1.45.97 2.42l1.4 1.4 1.9-1.5zm-11.14-2.43c-.5-.5-1.45-.5-1.94-.5-.97 0-2.42 0-3.87.5.48.48.97 1.45 1.45 1.93 1.45 1.45 2.9 1.94 3.4 1.94s-.5 0 0-.48c0-1.46.47-2.43.96-3.4zm118.14-106.04c-.5-1.45-.5-2.42-.97-3.87-1.9 0-3.8-.5-5.3-1.46-1.9-.96-3.4-2.9-3.4-4.84-.4-2.9 1.5-6.3 2.5-9.2.98-1.45 1.47-2.9 1.95-4.35v-.4c-1.45-6.8-2.9-13.54-5.32-20.32-1.93 0-4.35.48-6.3.48-22.26 1.46-41.14 2.43-54.22 16-4.83 5.32-7.73 10.64-9.67 16.45-1.46 5.83-1.95 12.1-1.95 17.93 0 4.86 1.47 9.2 1.95 14.06.97 5.8 3.4 9.2 7.26 14.03.5.97 1.46 1.45 1.46 1.94.5.96 1.46 1.93 0 3.38-1.93 1.46-2.9 0-3.4-.96l-4.34-5.8v6.27c0 3.4 0 7.26.47 10.65 0 3.4 0 6.78.5 10.17v11.12c0 2.9 0 5.3-1.96 7.73-.97 1.45-2.42 2.9-4.36 4.36-1.46.97-3.4 1.45-5.33 1.94-4.86.47-8.25-1.95-12.6-4.37-3.4-1.95-6.8-4.37-10.66-4.37-2.44 0-4.86.95-7.28 1.92-2.42 1.44-4.36 2.9-5.8 4.83s-2.43 3.88-2.43 5.82v1.93c.96-1.94 1.93-3.4 2.9-4.36 2.42-2.42 5.32-3.4 8.23-3.87h3.4c.95 0 2.9 0 2.4 2.42 0 2.4-1.93 1.9-2.9 1.9h-2.42c-1.93.5-4.35.96-5.8 2.9-1.45 1.44-2.9 3.86-2.9 7.25v3.4c0 .48.48.48.48.96 2.4-.95 4.35-.95 6.28-.95.98 0 2.44.5 3.4.97 0-2.9 0-5.3.97-7.73 1.44-3.4 4.83-6.3 11.13-7.27 1 0 2.45-.48 2.9 1.46.5 2.4-1.42 2.4-2.4 2.9-4.83.96-6.8 2.4-7.74 4.35s-.96 4.35-.48 7.26c.46-.46.95-.46 1.43-.95.96 0 1.45-.47 1.93-.47h.48c1.95.43 2.9 2.4 4.37 3.82v.5c.5 0 1 .47 1 .95.96-.5 2.4-.97 4.35-1.46 3.84-1.45 8.2-3.4 11.6-3.4.96 0 2.4 0 2.9 1.95 0 2.42-1.46 2.42-2.4 2.42-1.97 0-3.9.97-6.3 1.45.95.5 1.9.5 3.4.95 3.36.47 8.2 0 14.5-2.9 1.93-.98 4.83-.5 7.25 0 1.46 0 2.43.47 2.9.47 1.46 0 3.4-1.45 4.85-2.9 1.47-1.46 2.9-3.88 2.9-5.33.5-5.8-4.33-8.25-9.66-8.74-.5 0-.97 0-1.93.5-.95.46-1.44.95-2.4 1.92-.97.93-1.94 1.9-3.4.93-1.45-1.43-.5-2.9 0-3.85 1.46-1.47 2.43-2.44 3.88-2.9 1.45-1 2.9-1 4.36-1 2.44 0 4.86.98 6.3 1.46.5-5.32 2.4-9.67 3.88-14.03 1.44-3.4 3.37-8.25 3.86-12.1.48-3.9 0-8.26-1.45-13.58-.5-1-.94-2.44 1.48-3.4 1.94-.5 2.43.96 2.9 1.92 1.95 5.83 1.95 10.18 1.95 14.54 5.82-5.8 4.85-10.66 3.9-16-.5-2.9-.98-5.8-.5-8.7.5-4.85 4.36-10.66 9.2-15.5 2.42-2.4 4.84-4.84 7.75-6.78-5.8.97-11.62 1.94-15.98.97-5.8-1-10.18-3.4-11.63-8.26-1.47-5.8.96-10.67 5.3-14.54 3.88-3.4 8.7-6.3 12.6-7.27.96-.48 2.9-.97 3.38 1.46.5 2.4-.97 2.9-2.42 2.9-3.4.47-7.26 3.4-10.65 6.3-2.9 2.9-5.34 6.3-4.37 10.15.98 2.9 3.88 4.85 7.76 5.34 4.84.5 10.17 0 16.46-1.43 11.15-2.42 21.8-6.3 26.16-8.23zm77.95-33.4c.48 1.44.97 2.9.97 4.35.48 3.87.48 7.75 0 12.6 2.9 2.4 6.3 3.86 9.68 4.83 3.88 1 7.75 1.5 12.1 1.5 11.63 0 20.82-4.3 27.6-11.6 7.27-7.72 11.62-17.9 12.1-29.5 0-7.26-.96-14.52-2.4-21.8-1.95-8.22-5.34-16-8.73-22.26-3.87-7.26-8.23-14.04-12.1-20.34-9.2-15-17.92-28.56-22.76-48.9-2-7.26-2.9-14.5-3.4-21.3-.5-6.3 0-12.1 1.4-16.95 1.42-4.83 3.4-9.2 6.3-13.06 2.9-3.9 7.22-6.8 13.52-7.3 6.77-.5 12.1 2.4 15.97 6.3 4.85 4.85 7.75 11.6 8.24 17.9 0 1.96-.97 4.87-1.94 7.3-.46 1.92-1.43 3.4-1.43 4.34v.97c-.97 2.4-1.94 7.75-2.4 13.56-.5 5.34-.5 11.15.5 15.5l1.43 5.8c.97-6.3 2.9-12.57 4.84-15 .5-.96 1.44-2.9 3.4-1.45 1.9.98.94 2.9 0 3.9-1.48 2.4-3.9 8.7-4.38 15-.5 4.35 0 8.23 2.4 11.13.5.5.5.5.5.96.5.5.96 1.45 1.44 1.94.5 0 .5.5 1 .98-.48-1.44-.48-2.4-.97-3.86-.96-6.78 0-14.05.97-18.4.5-.97.97-3.4 2.9-2.9 1.94.47 1.46 2.9 1.46 3.86-.96 3.9-1.93 10.66-.96 16.47.5 3.86 1.95 7.25 4.85 9.2 0 0 .5 0 .5.47.47 0 .47.5.96.5-.5-1.46-.9-2.43-1.4-3.88-1.93-5.8-2.42-12.6-.5-21.3 0-.96.48-3.4 2.9-2.9s1.94 2.4 1.46 3.4c-1.46 7.74-.97 14.03.48 19.36 1.47 4.85 4.38 8.7 7.77 11.6-.5-4.83-2.43-8.2-3.9-12.1-.96-2.9-2.42-5.3-2.9-7.73-.5-3.4-.97-6.8-.97-10.16 0-3.4 0-7.27-.95-10.18-.97-4.37-2.42-9.7-4.35-14.05-1.44-4.34-3.37-7.24-4.83-9.2 0 0-.5-.95-.5-1.43 0-14.03-3.9-24.7-9.2-32.9-5.8-8.25-14.08-12.6-22.8-12.6-2.4 0-5.3.47-7.74.95s-4.38 1.47-6.8 2.92c-4.36 2.9-8.23 7.25-11.14 12.6-2.9 5.3-4.84 11.1-5.32 17.9-.95 10.64-.5 20.8 1.47 30 1.92 9.7 5.3 18.86 9.66 28.06 4.87 10.13 10.17 19.83 15.5 29 11.63 20.37 21.8 38.28 20.83 56.2-.5 8.2-3.9 14.5-8.25 18.87-5.3 4.84-12.6 7.26-19.82 7.26-5.8 0-11.63-1.45-17.44-3.87-1.94 1.45-3.4.5-4.84-.5z"/><path d="M-119 434.42c.96.48 1.44 1.45 1.93 2.42.97.97 4.84 8.23 5.32 8.23 3.4.48 9.7-3.88 10.17-7.26 0-.9-.97-2.9-2.9-4.8-2.9-3.4-7.75-6.3-12.6-3.82-.48.97-1.44 4.84-1.93 5.33zm-32.45 76.98c0-.48.48-1.45.97-1.94 0-.48.48-.96.48-.96.5-1.94 1.46-3.4 1.94-5.82.48-1.93 1.45-3.87 1.94-5.32-4.36 3.87-7.27 7.26-9.2 11.14-1.94 3.38-2.9 7.26-3.4 12.58 2.9-2.42 4.85-5.32 7.27-9.68z"/><path fill="#FFDA00" d="M-11.52 441.2c-.97-2.43-1.94-4.85-4.36-6.78 0 2.42 0 5.32-.48 8.23 0 .97 0 1.93-.5 2.9 2.43-.97 3.9-2.42 5.34-4.36zm-23.73 114.75c1.94.96 5.8 1.93 9.7 1.93 1.44 0 3.38 0 4.83-.97-.48-.4-1.45-.9-1.94-1.9-5.8 0-20.33-6.3-23.24-24.7.5 2.9.97 5.8 1.94 8.7 1.45 5.4 4.36 11.2 8.7 17zm-55.2-15.98c5.33 13.07 14.53 34.37 22.28 52.77 3.4 7.75 6.78 15 9.2 21.8.48.96.97 1.93-.97 2.9-1.94.96-2.42 0-2.9-1.46-.97-2.9-2.9-6.3-4.36-10.17-1.45 1-2.9 2-3.87 2-.97 0-2.9 1-3.4-1.4-.48-1.94 1.46-2.4 2.43-2.9.97-.5 2.42-1.46 2.9-1.94-.97-1.94-1.93-4.36-2.9-6.3-1.45 1.94-3.4 3.4-5.8 4.36-2.43 1.45-5.34 1.94-7.76 2.4-.97 0-2.9 1-2.9-1.43-.5-1.96 1.45-2.9 2.42-2.9 2.42-.5 4.84-1 6.77-1.96 1.9-.95 4.8-3.4 5.8-5.3-4.9-11.14-9.7-22.77-14.1-33.4-1 3.37-1.96 6.3-3.9 8.7-3.4 5.33-8.24 8.7-13.57 9.2-3.87.5-7.74-.97-10.65-2.4-2.9-1.48-5.33-3.4-7.26-4.87-.5 0-.98 0-1.47.5-8.7 2.4-15.98 4.35-23.73 4.35 12.1 22.77 25.67 35.84 37.3 46.98 8.7 8.74 16.94 16.48 21.8 26.17 5.3 9.2 7.24 18.87 9.2 29.04 0 .5 0 .98.46 2.43 2.4 11.6 4.37 22.74 8.7 32.42 4.4 9.68 10.68 18.4 20.85 24.7 4.83 2.9 9.67 5.8 15 8.22 4.84 2.42 10.16 4.36 15.97 6.3 3.4.96 6.8 2.42 9.7 4.35 2.9 1.93 5.33 4.35 7.27 6.77 4.9 6.7 4.9 13 4.4 31.9v1.92c3.4.5 3.4.96 6.3.5.94-.5 2.4-.5 3.36-.5 1.44 0 2.9.5 3.87.96 1.45.5 2.42 1.46 3.4 2.42.47.96 1.92 1.93 0 3.4-1.47 1.44-2.92 0-3.4-1-.5-.5-.97-1-1.46-1-.47-.5-1.44-.5-1.92-.5-.5 0-1.5 0-2.47.5-4.36.98-5.33 0-8.7-.5h-4.3c-4.38.5-14.55-3.84-14.55-3.84-4.84 1.94-7.75 3.87-9.2 5.8-1.45 1.46-1.94 2.9-2.42 3.88 0 0 0 .5-.5.97 0 .5-.46 1-.46 1v.5c0 .5.48 1.45 1.45 1.93l.97.98c.47-.93.96-1.9 1.44-2.4 1.48-1.92 3.4-3.85 5.8-4.82 3.9-1.93 8.75-1.93 14.07 0 .96.5 2.42.98 1.93 2.9-.97 1.95-2.42 1.46-3.4.98-4.35-1.45-7.74-1.45-10.64 0-1.95.97-3.4 1.94-4.37 3.4-1 1.44-1.47 3.38-1.95 4.83 0 1.44 0 3.4 1 4.35.5 0 .5.48.5.97 1.45 0 2.9-.5 3.87-.5h2.9c.5-1.9 1.93-3.4 3.87-4.3 1.96-1.47 4.86-1.95 7.77-1.95 1.46 0 3.4 0 5.3.48 1 .5 2.45.5 1.97 2.9C2.05 818 .6 818-.35 817.5c-1.44-.5-2.4-.5-3.84-.5-2.43 0-3.88.47-5.33 1.44-.97.5-1.94 1.46-1.94 1.95.5.5 1 .5 1.96.5 1.4.43 3.33.43 4.8.9.95 0 2.4 0 3.4-.46.93 0 2.4-.5 3.36-.97 1.9-.48 3.85-1.44 5.3-2.4.95-.5 2.4-.98 2.9-1.47.95-.5 2.4-.96 3.4.97s-1 2.4-1.96 2.9c-.5 0-1.44.5-2.4 1.43-.98.5-1.47.98-2.43.98 1.48.98 2.9 1.46 4.87 1.94 3.4.98 6.78.5 8.23-.47.47 0 .47-.5 1.44-.98 2.44-1.94 6.8-5.3 10.2-5.3h6.3l3.4-3.4c1.9-1.96 3.85-3.9 3.85-4.38l-2.9-1.96c-1.46-.5-2.43-1-3.4-1.96-1.45-1.47-3.4-1.95-5.8-1.95s-4.85.97-7.75 2.9c-1 .5-2.45 1.94-3.9 0-1.45-1.93 0-2.9.97-3.4 3.4-2.4 6.77-3.86 9.67-3.86 1.46 0 2.43 0 3.88.47-.5-.95-.97-1.44-1.45-1.92-1.47-.95-2.44-1.44-3.9-1.92h-4.35c-.96 0-2.42 0-2.42-1.95s1-2.4 1.97-2.4c1.93 0 3.4-.45 5.32 0 .43 0 .9 0 1.4.5-.5-.95-.97-2.4-.97-3.4-.97-3.4-1.94-7.24-2.9-11.1-.5-1.46-.5-2.9-.97-4.37 0 1-.5 2.9-2.9 2.44-1.94-.48-1.94-2.42-1.46-3.4.98-5.8.5-12.1-1.93-17.9-1.94-4.84-5.8-8.72-10.17-10.65-.96-.5-2.42-1.45-1.45-3.4.97-1.93 2.42-.96 3.4-.96 5.8 2.44 10.16 7.28 12.58 13.1.97 1.94 1.45 4.36 1.94 6.3v-.97c.46-2.9.95-5.8 1.43-8.22.48-1.45.48-2.4.97-3.4.5-.95.98-1.92.98-3.37 0 0-1 0-1.96-.5s-2.4-.47-3.87-1.44c-5.33-2.43-10.17-6.8-15.5-12.1l-3.4-3.4c-.95-.97-2.4-3.4-4.34-6.3-1.45-2.9-3.4-6.77-5.3-11.13-1.46-3.4-2.4-7.25-3.4-10.63-.5-2.9-.5-5.8 0-8.7 2.4-7.27 2.9-13.57 1.93-18.9-.97-5.32-3.4-10.16-6.3-15.5-2.42-3.86-6.3-8.7-10.16-13.06-2.4-2.9-4.35-5.3-6.8-8.2-5.32-6.78-8.7-12.6-11.13-17.9-2.42-5.8-3.87-11.15-5.32-16.96-1.94-9.2-1.46-19.84-1.46-31V558c-3.88-.5-7.75-1.46-11.63-5.34l-2.42-2.42h-3.37c-7.27-.97-15.02-4.84-20.34-11.62-2.4-2.9-3.87-5.8-5.3-9.2.5 2.43 1 4.85 1.45 7.28.5 1.45-.5 2.9-1.94 2.9 0 .5-.5.5-.96.5z"/><path fill="#FFDA00" d="M-160.16 526.4l-.97.98c-1.94 2.42-4.36 5.32-8.72 8.7h.5c6.77-1.92 13.06-2.9 18.4-1.92.95 0 2.9.48 2.4 2.42-.48 2.42-1.93 1.94-2.9 1.94-4.36-.97-10.17 0-15.98 1.45-5.8 1.93-11.13 4.35-15 7.26-.97.97-2.43 1.94-3.88 0-1.5-1.45 0-2.9.9-3.4 2.9-2.4 6.3-4.35 10.14-6.28-10.17-6.3-16.95-10.17-24.2-14.04-1.47-.9-3.4-1.4-5.8-2.9-1.47-.9-2.9-1.4-4.37-1.9-3.87-1.9-7.26-3.4-11.14-7.7-3.37-2.4-4.83-7.26-6.28-12.1-.5-1.93-1-3.9-1.96-5.8-1-2.4-1.97-4.35-3.4-5.3-1.96-1.96-3.9-1.96-6.3-1.96-3.4.97-1.96.48-3.9 4.36 2.9 0 6.3.97 8.7 2.9 2.44 1.94 3.4 3.9 3.9 5.8 0 1 .48 2.92-1.94 3.4-.5 1.45-.5-.48-.98-1.45 0-.96-.98-2.4-1.95-3.4-.98-.95-2.9-1.43-5.34-1.92h-3.4c-2.9 1.45-2.4 1.94-2.4 6.78 7.25 1.97 10.16 5.8 12.6 8.75 1.44 1.45 4.83 4.35 2.4 6.3-2.4 1.93-4.82-1.95-5.8-3.9-2.4-2.9-4.84-6.8-12.1-7.75-3.4 0-1.44 6.27-1.44 6.76 1.45 1 1.94 1.96 3.87 2.9 1.93 1 4.35 1.96 8.7 4.86.97.5 2.4 1.5 1.45 3.4-1 1.96-2.9 1-3.9.5-3.87-2.4-6.3-3.4-8.22-4.35-3.9 1.42-2.9 5.3-2.42 6.75.97 2.43 2.9 6.3 5.33 9.2 2.9 3.88 6.3 7.27 9.2 9.7 1.93 1.44 3.4 2.4 5.32 2.4 1.92 0 3.86-.96 6.77-2.4 1.95-.98 3.9-1.94 5.34-2.43 4.84-1 4.84 2.4 4.84 5.8.96-.5 1.93-1.47 2.9-2.4 2.42-1.98 4.84-4.4 7.26-4.4 5.8 0 16.46 7.74 20.82 11.6 2.9 1.95 5.3 3.9 8.7 6.3 3.87 2.43 8.23 4.37 12.1 5.8 3.87 1.47 7.26 2.44 11.14 2.44 7.74.5 15.5-1.45 25.2-4.36.95-.5 1.44-.5 2.4-.5.5 0 1.46 0 1.94.5 1.93 1.44 4.35 3.4 7.25 4.83 2.4 1.45 5.8 2.4 8.2 1.93 3.9 0 7.28-3.4 10.18-7.27 1.43-2.4 2.9-5.32 3.4-8.22.94-3.86.94-6.3-.5-9.7-.98-2.9-1.95-5.3-2.9-7.23-8.25-3.87-14.54-15-16.96-25.2-.5 5.35 0 10.68.96 14.06.48 1.47-.97 3.4-2.9 2.9-8.72-2.9-12.6-6.3-14.05-10.15-1.43 2.4-3.37 3.4-4.82 3.88-.5.5-.97.5-.97.5-1 .95-2.9.46-3.4-.5-.98-2.43-1.46-4.85-1.95-6.78-1.94 3.4-4.36 5.8-7.27 7.75-.98.5-2.4 0-2.9-.96s-.98-1.9-.98-2.9c-1.94 2.43-4.36 4.37-7.27 5.34-.98 0-1.46.5-1.94.5z"/><path fill="#FFDA00" d="M-150 494.45c-4.84-5.32-9.2-11.62-13.55-17.9-4.84-6.8-8.72-13.57-10.17-17.44v-.4c-.48-5.8 1.45-7.25 4.36-9.7l1.45-1.42c.9-.97 1.9-2.42 2.9-3.4 1.9-3.4 2.4-7.74 1.9-12.1-.5-4.35-2.4-8.22-5.3-11.6-1-1.47-2.5-2.43-3.9-3.4-1.5-.97-2.9-1.46-4.4-1.46-.5 0-1.94-.5-1.46.97 4.36 2.42 8.23 6.3 10.17 11.14 1.44 4.37 1.44 9.2-1 15-.46 1-.95 1.96-2.9 1-1.92-.98-1.44-1.95-.95-2.9 1.94-4.86 2.42-8.73.97-11.64-1.47-3.9-4.86-6.8-8.24-8.73-2.44-1.43-4.86-1.92-7.28-2.4s-3.88.48-4.37 2.9c4.85.97 9.2 3.4 11.63 8.23 1.9 3.88 2.9 8.7 2.4 15.98 0 .98-.5 2.43-2.4 1.95-1.96-.5-1.96-1.47-1.96-2.4.97-5.84 0-10.2-1.45-13.1-1.94-3.4-5.33-5.3-8.7-5.8-2.4-.5-4.37-.5-6.8 0-.95 0-1.44 3.4-1.44 4.34 3.9 1.44 6.8 3.86 9.2 7.25 3.9 5.33 5.8 12.1 7.28 17.92.5.98.5 2.43-1.44 2.9s-2.4-.47-2.4-1.92c-1.45-5.32-2.9-11.6-6.78-15.97-1.94-2.9-5.32-5.32-9.2-6.3-1.45-.47-5.32 2.43-5.32 4.37 0 .95.5 1.9.5 2.9.5 2.9 1 5.8 2.4 8.7 1.5 4.36 3.9 7.75 6.3 11.14 2.46 2.9 5.36 4.85 7.78 5.33 1.94.5 1.94 3.86 0 4.34-.97.5-1.45.5-1.94 1.46-.47.5-.47 1-.47 1.47 0 0 .5 0 .98.5.5.5 1.46.5 2.43.98 3.88 2.4 4.37 3.38 5.34 6.28.46 1 .94 2.44 1.9 4.38 2.4 4.85 5.33 11.63 8.23 19.86 2.9 8.7 5.8 18.4 7.74 25.65 1.93-1.92 3.38-3.85 4.35-4.82.5-.48.5-.97.98-.97v-.5c0-6.8 1.45-12.1 3.87-16.94 1.44-5.8 4.83-9.68 8.7-13.56zm79.4-114.25c.98-1.95 2.9-2.92 4.37-3.4 1.45-.48 2.9 0 3.87 0 1.94.48 3.87 1.94 5.33 3.87s2.42 4.36 2.9 6.78c.5 3.4 0 6.3-1.45 8.23-.5.97-.97 1.46-1.45 1.94 2.42-1.45 3.38-3.4 4.35-5.33.5-2 .5-3.9 0-6.3-.48-2.5-1.45-4.4-2.9-6.3-2.9-3.9-6.3-6.3-9.7-6.3-1.44 0-2.9.9-4.34 2.9-1.46 1.9-2.9 4.3-3.88 6.8-.48.4-1.45 1.4-1.94 1.4-2.9 0-6.3.5-8.7.93-.98 0-1.46 0-2.92.5-4.84.46-7.74 1.43-10.65 2.9-2.5 1.44-4.4 2.9-6.3 5.8l-.5.5c-2.4 1.43-5.8 2.9-8.7 3.85-4.4 1.46-8.3 1.94-10.2 1.94-2.9 0-4.4 0-4.4.5s0 1.44.5 2.9v.47c0 2.42-.5 4.84-1 6.8-.5 2.4-.97 4.83-.5 8.22 1 4.33 2.9 5.3 4.37 6.3.97.45 1.94.93 2.43 2.4 0 1.44.48 2.4.97 3.86 0-.48.5-.48.5-.97.96-1.44 1.44-3.4 2.9-4.35 2.9-1.92 5.8-1.92 8.7-1.44 2.43.5 6.3 2.9 9.2 5.8 2.43 2.9 4.36 5.8 3.88 8.73-.5 2.9-2.9 5.8-6.3 7.74-2.9 1.93-6.8 3.4-9.2 2.9-3.4-.48-6.3-7.26-7.78-9.68-.5.94-.98 1.9-.98 2.9 0 0-.5.95-.98.95l-1.46 1.42c-1.45 1.46-3.87 2.9-3.87 3.4 0 .97.45 2.4.94 3.4.48 1.44 1.45 3.4 1.45 5.32v.95c0 .48-.5 1.45-.5 2.4 0 1.47 0 2.44.5 3.4.5.97.97 1.46 1.94 1.94h.95c2.9 0 4.84-.48 6.3-1.45 1.44-.5 2.4-.97 3.86-.97s1.94.98 2.9 1.95c.5.47.98.96 1.46 1.44 2.44-.95 4.86-1.43 7.77-1.9 3.86-1 7.73-2.9 11.12-5.8 3.4-2.9 6.8-6.8 8.73-10.68 1.45-3.38 2.42-6.77 2.9-10.16.5-3.86 0-7.25-.97-10.64-.48-1-.96-2.43.97-2.9 1.95-.5 2.9.47 2.9 1.93 1.47 3.87 1.96 7.74 1.47 12.58-.47 3.9-1.44 7.78-3.4 12.14-2.4 4.36-5.8 8.7-9.66 12.1-3.87 3.4-8.22 5.8-13.06 6.78-2.9.5-5.33 1.46-7.75 1.95-.5.5-.97.5-.97.5-5.8 1.93-10.65 4.35-15.5 7.25-6.77 4.35-13.07 10.16-20.33 16.46h1c1.97.98 1.5 1.95 1 2.9-1 1.96-1.47 3.9-2.43 5.8-1.46 3.4-2.42 6.3-3.4 8.75-.48 1.44-.48 2.9-.48 4.34 0 .95 0 1.44.45 1.92 4.35-3.86 6.3-11.13 8.23-16.45.5-1.43.96-2.9 1.44-4.34.5-1.43 1.95-1.92 2.9-1.43s1.95 1.46 1.47 2.9c-.47 1.47-.96 2.43-1.44 4.37 0 .48-.5 1.45-.5 1.94 0 1.45-.46 3.4-.46 5.3 0 2.4 0 5.3 1 8.2 1.9-.93 4.33-2.9 5.3-10.13v-7.77c0-1 .95-1.96 1.92-1.96s2.43.96 2.43 1.93c0 2.9 0 5.33-.5 7.26-.5 6.78.5 11.6 8.7 15-.48-3.86-.48-8.22 0-12.6.5-5.3 1.45-10.14 3.9-12.6.46-.93 1.9-.93 2.9-.93.95.46.95 1.43.95 2.4-1.45 11.1 6.3 31.92 17.9 34.34-.95-4.34-1.44-9.67-1.44-14.5 0-6.3.47-12.6 1.9-17.9.5-.97 1.48-1.94 2.4-1.46 1 0 2 1.45 2 2.42-1.97.45-1.97 2.9-1.97 5.3 0 11.1 3.4 19.83 7.76 25.64 4.83 5.8 11.12 9.2 17.42 9.67-2.4-3.86-4.36-8.22-5.8-12.57-2.9-8.73-4.37-18.9-3.9-26.16 0-.97 0-2.9 2.43-2.4 2.44 0 2.44 1.93 1.95 2.9-.47 7.26.98 16.46 3.88 24.7 2.42 7.25 5.8 13.54 10.16 17.9 3.9 3.87 7.77 4.36 12.1 4.36-3.36-4.83-5.8-10.16-7.24-15-1.94-6.3-2.43-12.6-2.43-19.85 0-4.84.97-9.7 2.42-14.5.5-1 .94-2.45 2.9-1.97 1.92.5 1.43 1.94 1.43 3.4-1.44 4.35-2.4 8.7-2.4 13.07v4.85c0-.47.47-.96 1.93-.96 2.42 0 2.42.95 2.42 1.92 1.44 17.9 13.06 23.74 18.87 24.7-1.45-3.4-2.9-7.25-3.87-11.6-1.45-5.33-1.93-10.65-1.93-15.5 0-3.87 0-7.26.48-11.13.5-3.4.98-6.8 1.95-9.2.5-.98.97-2.9 2.9-2.43 1.94.48 1.46 2.9.97 3.87-.96 1.92-1.45 4.83-1.93 8.2-.5 2.9-.5 6.78-.5 9.7 0-1.95.5-3.4.97-5.34s1-3.86 1-5.8c0-.97.5-2.9 2.9-2.9 2.42.48 1.93 2.4 1.45 3.4-.5 2.4-.96 4.34-1.45 6.28-.94 4.36-1.43 7.75-.46 12.1.48 2.43 4.84 8.24 1.94 9.7-1.93.96-2.9-.5-3.4-1.46-1.43-2.4-2.4-4.34-2.9-6.76 0 1.45.5 2.9.98 3.87 1.93 3.85 3.86 5.8 5.32 6.8.95.44 1.44.93 2.4.93-1.45-5.33-2.4-13.07-2.4-21.3 0-8.24 1.44-16.95 4.83-23.25.48-.97 1.94-1.94 2.9-1.94s1.46 1.93 1.46 2.9c0 1.45 0 3.87-.5 6.3 1.5-4.36 1.97-8.23 2.94-12.6 1.44-6.77 2.4-13.55 1.44-19.36V472c.95-.96 2.4-.47 4.34-.47.95 0 1.9-.5 2.4-1-4.36-1.45-7.26-4.36-9.2-7.26-2.4-3.4-2.9-7.25-3.4-11.12 0-2.42 0-4.36-.47-6.8-.5.5-1.44.98-1.92 1.95-1.95 1.44-4.37 2.9-6.8 4.35-1.93.97-3.86-1.45-2.9-2.9.5-.5.5-1.46.97-1.94l-.48.5c-3.4 3.4-7.76 3.88-12.6 4.37-1.45 0-2.9-1.45-1.94-3.4.5-.95.5-1.44.96-2.4-3.4 4.35-8.25 7.74-14.06 9.68-1.96.47-3.4-1.46-2.9-2.9.94-1.95 1.43-3.9 1.9-5.83-3.4 4.37-7.74 7.28-12.1 9.2-1.45.5-3.4-.95-2.9-2.9 1.46-4.35 2.43-8.22 2.43-12.6 0-3.85-1.46-8.2-3.9-12.57-.46-.98-1.43-2.43.5-3.4 1.94-.97 2.9 0 3.4.97 3.4 5.33 4.85 10.17 4.85 15 0 2.92-.5 6.3-1 9.2 2.44-1.44 4.38-3.38 6.3-5.8 2.4-3.4 4.37-7.26 4.37-10.65 0-.98.96-1.95 2.4-1.95.96 0 1.93 1 2.4 1.95 0 3.4 0 7.24-.5 11.1-.5 1.46-.5 3.4-1 4.85 3.4-1.95 5.8-4.37 8.26-6.8 3.4-3.87 4.84-8.22 4.36-11.13 0-.98.5-2.4 1.48-2.4.96-.5 2.4 0 2.9 1.42.96 2.43.96 5.8.5 9.2-.5 2.43-1 4.85-1.96 7.28 2.43-.46 4.37-1.43 6.3-2.9 2.43-2.4 4.36-6.3 4.36-13.54l-2.9-2.9c-1.94-1.96-3.88-3.9-4.85-6.3-.44-1.47-.92-2.44-1.4-3.4-.5-1.46-.98-2.9-1.95-4.36-1.46-2.4-3.4-4.84-5.8-6.78-1.95-1.95-3.9-3.4-6.3-4.37-1.95-1-3.88-2.44-5.34-4.38-.94-.96-1.43-1.93-1.9-2.9-1.47 2.9-4.37 4.84-8.24 6.78-.96.5-1.93.5-2.9-1.44-.5-.5-.5-.95 0-1.44h-.5c-.95.5-1.92.5-2.9-1.43-.47-1.95.5-2.43 1.46-2.9 1.92-.5 2.9-1.47 3.86-2.43.96-1.46.96-3.4.96-5.33 0-1.44-.98-3.4-1.95-4.35-1-.98-1.96-1.94-2.93-1.94h-1.93s-1 .5-1.48.96c-.5.97-1 1.94-2.9.97-1.48-.46-1-1.43-.5-2.4z"/><path d="M-108.36 400.04c-.96-.97-.96-2.9.5-3.4.96-.96 3.86-2.9 7.25-3.86.9-.5 1.9-.5 3.3-.5s1.93.5 3.4.98c1.43.5 2.4.97 3.4 1.94 1.43.97 2.9 1.93 2.9 2.42s.5 1.45.5 1.45c-.5 1.94-1.97 2.42-4.4 2.9-1.45 0-2.9.5-4.84 1.46-7.28 3.87-8.7 1.93-11.15-.97.5-.97 0-1.94-.96-2.42z"/><path fill="#FFDA00" d="M-103.52 399.07c.5 0 .5 0 0 0 .97 1.45 1.94 2.42 5.8 0 1.47-.97 2.92-.97 4.37-1.45-.48-.48-.97-.48-1.45-.97-.48-.48-1.45-.48-1.94-.48-.48 0-1.45 0-1.93.48-1.94.5-3.4 1.45-4.84 2.42h-.1z"/><path d="M-100.13 409.72c7.27 3.88 11.62 9.7 13.56 16.47 1.45 4.8 1.45 9.2.48 14-.9 4.3-3.3 8.7-6.7 12.1-4.33 4.3-10.63 7.2-18.9 7.2-.93 0-2.4 0-2.4-2.43 0-1.93 1-1.93 2.4-1.93 7.3 0 12.1-2.43 16-6.3 2.9-2.9 4.38-6.3 5.3-9.68 1-3.9.5-7.76-.5-11.63-1.4-5.8-5.3-10.63-11.6-14.02-1-.5-1.9-.96-1-2.9 1.5-1.93 2.48-1.45 3.4-.97zm31.48 59.08c-.5 2.9-.5 7.26.48 11.6.48 2.44 1.94 5.34 3.4 7.28 0-2.9 0-5.8.47-8.23.5-4.85 1.94-8.72 3.4-12.1.48-.98.96-1.95 2.9-.98 1.93.97 1.45 1.94 1.45 2.9-1.45 3.4-2.42 6.8-2.9 11.14-.5 3.9-.5 7.8 0 12.6 0 2-1.94 2.9-3.4 2-5.8-3.84-8.22-8.7-9.68-13.53-.97-4.84-.97-9.7-.48-13.07 0-.97.4-2.4 2.4-1.94 2.4.5 2.4 1.43 1.9 2.4zm23.72-6.3c0 .97-.48 2.42-.48 3.4-.5 4.83.4 10.16 2.9 14.5 1.9 3.4 4.3 6.3 7.7 7.76-1-2.42-1.5-5.33-1.5-8.23 0-5.8 1.45-11.14 3.9-15.5.5-.96.95-1.93 2.9-.96 1.92.97 1.44 1.93.95 2.9-1.94 3.4-3.4 8.23-3.4 13.07 0 3.88 1 7.27 3.4 10.17.5 1 .97 1.5.5 2.5-.98 1.96-3.4 1-5.34 1-6.3-1.45-10.65-5.8-13.56-10.65-2.4-5.33-3.4-11.14-2.9-16.95 0-1.45.5-2.4.5-3.87 0-.97.5-1.94 2.4-1.94 2.43.94 2.43 1.9 1.95 2.9zm-54.23 39.7c-.48 2.42-.48 4.84-.48 7.27 0 2.9.97 6.3 1.94 8.7.48.98.96 1.95-.97 2.9-1.94.98-2.42 0-2.9-.95-1.46-3.4-2.43-6.78-2.43-10.17-.48-4.36 0-8.72.97-11.62-1.45-1.94-1.94-3.88-2.42-5.8-1.46-4.85-.5-10.18.97-14.05.48-.97.96-2.9 3.38-1.94 1.94.48 1.46 2.42.97 3.4-.97 3.38-1.93 7.74-.97 11.6.5 1.46.97 2.9 1.46 3.88 0-1.94 0-3.87.48-5.32.5-3.4 1.94-5.8 3.4-8.23.47-.97 1.44-2.43 3.38-.97 1.94.97.97 2.42.48 3.4-1.45 1.92-2.42 3.86-2.9 6.76s-.48 5.82 0 10.17c.48 1.94-1.94 3.4-3.4 1.94 0-.48-.47-.48-.96-.97zm25.18 8.23v2.42c-.48 5.33-.97 16.95 4.36 21.3.97.5 1.93 1.46.48 2.9-1.45 1.47-2.42.98-2.9 0-6.78-5.8-5.8-18.87-5.8-24.68v-1.94c0-.97 0-2.9 1.92-2.9 1.94 0 1.94 1.94 1.94 2.9zm13.56 5.8c-.5 4.37 0 7.76.48 11.15.48 3.4 1.94 6.3 3.4 9.68.47.97.96 1.94-1.46 2.9-1.94.98-2.42-.48-2.9-1.44-1.46-3.88-2.43-6.78-3.4-10.66-.96-3.87-.96-7.74-.96-12.1 0-.97 0-2.9 2.42-2.42s2.42 1.93 2.42 2.9zm26.14-3.86c-.97 5.33 0 10.65.97 15.98 0 .97.4 2.9-1.5 3.4-2.4.47-2.4-1.46-2.9-2.43-1.5-5.8-2-11.62-1-17.43 0-1 .5-3.4 2.9-3 1.92 0 1.43 1.93 1.43 3.4zm-45.02 73.6c-.98 1.93-2.9 3.87-5.33 5.32-1.94 1.4-3.88 2.4-6.3 2.9-.96 0-2.9.4-2.9-2-.48-2.4 1.45-2.4 2.42-2.4 1.4 0 2.9-1 4.3-1.98 1.9-1.46 3.4-2.9 3.83-4.37.5-.97 1.45-2.4 3.4-1.45 1.93 1.45.96 2.9.47 3.88zm-2.9-8.24c-1.46 2.42-3.88 4.84-6.3 6.78-2.43 2-5.33 3-7.75 3-.97 0-2.42 0-2.42-1.93 0-2.42 1.45-2.42 2.42-2.42 1.94 0 3.87-.5 5.8-1.93 1.95-1.45 3.88-3.4 5.33-5.33.5-.97 1.46-2.43 3.4-1.46.96.98 0 2.44-.5 3.4zm-86.2-22.27c4.36.48 10.17.97 17.44.97 6.77 0 15.5-.97 24.7-2.9.96 0 1.93-.5 2.4 1.93.5 1.94-.47 2.42-1.93 2.42-9.6 1.94-18.4 2.9-25.6 2.9-7.22 0-13.03-.48-17.9-.96-1 0-2.4 0-1.9-2.42.97-1.94 1.94-1.94 2.9-1.94z"/></svg>