<?xml version="1.0" encoding="iso-8859-1"?><!-- Generator: Adobe Illustrator 16.0.0, SVG Export Plug-In . SVG Version: 6.00 Build 0) --><!DOCTYPE svg PUBLIC "-//W3C//DTD SVG 1.1//EN" "http://www.w3.org/Graphics/SVG/1.1/DTD/svg11.dtd"><svg version="1.1" id="Layer_1" xmlns="http://www.w3.org/2000/svg" xmlns:xlink="http://www.w3.org/1999/xlink" x="0px" y="0px" width="192.756px" height="192.756px" viewBox="0 0 192.756 192.756" style="enable-background:new 0 0 192.756 192.756;" xml:space="preserve"><g><polygon style="fill-rule:evenodd;clip-rule:evenodd;fill:#FFFFFF;" points="0,0 192.756,0 192.756,192.756 0,192.756 0,0	"/><path style="fill-rule:evenodd;clip-rule:evenodd;" d="M45.298,161.43c-2.872-1.551-5.652-3.191-8.342-5.061	c-1.368-0.957-2.644-1.914-3.921-2.963c-1.687-1.367-3.328-2.826-4.786-4.422c-1.322-1.459-2.553-2.963-3.693-4.559	c-1.322-1.777-2.461-3.602-3.51-5.561c-0.775-1.504-1.459-3.055-2.052-4.65c-0.501-1.414-0.957-2.826-1.276-4.285	c-0.547-2.461-0.776-4.924-0.913-7.385v-3.328l0.229-3.281c0.183-1.643,0.41-3.238,0.684-4.879	c0.319-1.596,0.638-3.236,1.002-4.832c0.684-2.689,1.459-5.334,2.279-7.932c1.915-6.154,4.148-12.171,6.155-18.28	c1.048-3.464,2.097-6.929,2.735-10.485c0.319-1.869,0.501-3.692,0.501-5.607c-0.046-0.729-0.091-1.414-0.137-2.143	c-0.274-1.778-0.684-3.51-1.231-5.197c-0.228-0.684-0.502-1.368-0.729-2.006c-1.413-3.419-3.19-6.519-5.151-9.665	c-2.233-3.555-4.559-7.065-6.883-10.576L42.973,3.016c2.461,1.368,4.878,2.827,7.385,4.104c0.501,0.273,1.003,0.501,1.458,0.729	c2.371,1.14,4.787,1.96,7.294,2.644c2.096,0.547,4.148,0.912,6.336,1.14c0.638,0.045,1.276,0.091,1.915,0.136	c3.875,0.137,7.704-0.318,11.488-1.23c1.185-0.319,2.325-0.639,3.464-1.048c3.738-1.277,7.249-2.963,10.759-4.787	c1.14-0.593,2.325-1.23,3.465-1.869c3.283,1.732,6.519,3.419,9.892,4.923c1.961,0.821,3.967,1.596,6.018,2.234	c0.775,0.228,1.549,0.41,2.324,0.638c2.6,0.592,5.289,1.094,7.979,1.139c1.686,0,3.373-0.091,5.014-0.228	c2.053-0.182,4.012-0.547,6.018-1.048c1.551-0.365,3.055-0.866,4.559-1.414c1.779-0.684,3.465-1.458,5.197-2.325l6.701-3.829	l26.258,31.455l-5.516,8.434c-0.273,0.411-0.547,0.866-0.775,1.276c-1.732,2.826-3.328,5.698-4.695,8.662	c-0.729,1.641-1.322,3.236-1.824,4.969l-0.318,1.276c-0.41,1.915-0.639,3.83-0.547,5.835c0,0.638,0.045,1.276,0.137,1.914	c0.457,4.513,1.641,8.799,3.008,13.084c1.688,5.242,3.557,10.394,5.289,15.636c1.049,3.145,2.006,6.336,2.826,9.528	c0.455,1.869,0.867,3.738,1.23,5.607c0.365,1.869,0.594,3.738,0.82,5.652c0.092,1.412,0.184,2.826,0.229,4.285l-0.045,2.871	c-0.092,1.414-0.229,2.826-0.41,4.285l-0.273,1.459c-0.275,1.277-0.639,2.553-1.004,3.83c-0.455,1.23-0.865,2.416-1.367,3.602	c-0.547,1.139-1.094,2.279-1.732,3.418l-1.961,3.191l-2.279,3.055c-0.773,0.957-1.641,1.869-2.461,2.826	c-0.912,0.865-1.777,1.732-2.736,2.598c-1.549,1.414-3.189,2.736-4.877,4.012c-1.049,0.73-2.098,1.459-3.145,2.143	c-1.506,0.957-3.055,1.869-4.605,2.736c-1.822,0.957-3.646,1.869-5.471,2.779c-7.748,3.648-15.727,6.748-23.477,10.35	c-2.279,1.049-4.467,2.143-6.656,3.326l-2.553,1.461c-1.275,0.773-2.506,1.549-3.736,2.369c-3.83,2.826-7.432,5.926-10.987,9.072	c-3.464-3.055-6.929-6.062-10.667-8.754c-0.775-0.545-1.504-1.047-2.279-1.594c-3.966-2.645-8.297-4.695-12.673-6.701	c-7.521-3.375-15.226-6.383-22.657-9.893C47.304,162.479,46.301,161.977,45.298,161.43L45.298,161.43z"/><path style="fill-rule:evenodd;clip-rule:evenodd;fill:#FFFFFF;" d="M36.865,151.857c-2.279-1.777-4.468-3.648-6.428-5.791	c-1.368-1.549-2.599-3.145-3.783-4.832c-1.004-1.504-1.915-3.008-2.69-4.604c-0.729-1.412-1.322-2.781-1.824-4.285	c-0.364-1.049-0.684-2.143-0.957-3.236c-0.273-1.23-0.41-2.416-0.592-3.646l-0.183-3.055v-3.055	c0.091-1.549,0.228-3.055,0.365-4.604c0.228-1.551,0.501-3.055,0.774-4.605c0.319-1.549,0.685-3.1,1.094-4.604	c0.958-3.646,2.097-7.248,3.283-10.804c2.279-6.747,4.786-13.448,6.564-20.332c0.638-2.461,1.094-4.877,1.367-7.384	c0.091-1.459,0.137-2.918,0.045-4.422l-0.091-1.231c-0.319-2.325-0.912-4.467-1.641-6.656c-0.639-1.732-1.368-3.374-2.143-5.014	c-1.413-2.735-3.009-5.38-4.65-7.978c-1.55-2.37-3.1-4.741-4.65-7.111L43.793,7.576c2.052,1.185,4.058,2.324,6.2,3.373	c2.644,1.276,5.379,2.234,8.205,3.009c1.596,0.411,3.191,0.729,4.787,1.003c2.097,0.274,4.194,0.411,6.337,0.411	c1.641,0,3.282-0.137,4.923-0.365c1.595-0.183,3.145-0.456,4.695-0.775c1.549-0.411,3.054-0.821,4.513-1.323	c2.963-1.003,5.743-2.233,8.57-3.601c1.55-0.775,3.009-1.595,4.559-2.416c3.237,1.732,6.565,3.374,9.983,4.787	c1.596,0.638,3.191,1.23,4.832,1.732l1.688,0.457c3.145,0.82,6.381,1.413,9.664,1.458c1.777,0.046,3.555-0.045,5.379-0.182	c1.959-0.229,3.875-0.548,5.834-0.958c1.916-0.501,3.785-1.048,5.607-1.732c1.961-0.73,3.785-1.596,5.654-2.508l4.193-2.416	l22.611,27.125l-3.875,5.971c-0.41,0.502-0.729,1.094-1.049,1.641c-1.641,2.735-3.236,5.516-4.559,8.388	c-0.82,1.778-1.551,3.556-2.098,5.425c-0.365,1.186-0.639,2.371-0.865,3.556c-0.137,1.003-0.273,2.006-0.365,3.009	c-0.182,5.06,0.912,10.075,2.279,14.907c2.143,7.293,4.879,14.45,7.203,21.699c0.957,3.1,1.824,6.154,2.553,9.346	c0.365,1.777,0.729,3.51,1.002,5.334c0.139,1.32,0.273,2.643,0.41,4.012c0.047,1.32,0.092,2.643,0.092,3.965l-0.137,2.645	l-0.502,3.875l-0.91,3.463c-0.412,1.141-0.822,2.189-1.277,3.238c-0.455,1.094-0.957,2.098-1.504,3.145	c-0.594,1.004-1.186,1.961-1.824,2.918c-0.684,0.957-1.367,1.869-2.098,2.781c-1.002,1.186-2.004,2.324-3.1,3.465	c-1.139,1.094-2.279,2.143-3.51,3.145c-1.23,1.004-2.461,1.961-3.783,2.873c-1.322,0.91-2.689,1.822-4.057,2.643	c-2.463,1.459-5.016,2.736-7.613,4.012c-6.838,3.191-13.812,5.973-20.697,9.072c-2.324,1.049-4.604,2.143-6.883,3.281	c-3.693,1.916-7.385,3.922-10.668,6.428c-2.643,2.006-5.15,4.104-7.658,6.293c-4.513-3.967-9.209-7.842-14.451-10.76	c-2.462-1.367-4.969-2.598-7.477-3.783c-7.841-3.646-15.91-6.746-23.705-10.395c-4.559-2.188-8.89-4.648-12.993-7.611	L36.865,151.857L36.865,151.857z"/><path style="fill-rule:evenodd;clip-rule:evenodd;" d="M27.565,135.674l138.628-98.877c-6.109,9.3-10.758,17.688-10.758,27.535	c0,20.24,20.742,48.778,11.078,69.565c-12.674,26.85-46.682,25.301-69.976,46.406C73.835,159.697,40.876,160.701,27.565,135.674	L27.565,135.674z"/><path style="fill-rule:evenodd;clip-rule:evenodd;" d="M28.887,97.791l119.755-85.064l0.092,0.045l-0.184-0.273	c-16.318,9.391-33.643,9.026-52.013-1.231C78.212,21.525,60.889,21.89,44.614,12.499L25.422,35.018	c6.61,10.03,12.308,18.828,12.308,29.313C37.73,74.177,32.853,85.939,28.887,97.791L28.887,97.791z"/><polygon style="fill-rule:evenodd;clip-rule:evenodd;" points="143.492,47.738 140.893,44.09 144.586,41.446 147.184,45.139	143.492,47.738	"/><path style="fill-rule:evenodd;clip-rule:evenodd;" d="M136.334,43.543c1.322,2.143,1.688,4.331,1.096,6.564	c-0.594,2.234-2.053,4.194-4.377,5.835c-2.645,1.869-5.334,2.507-7.979,1.915c-2.645-0.592-5.061-2.416-7.203-5.424	c-2.188-3.055-3.1-5.927-2.734-8.662c0.365-2.689,1.961-5.06,4.787-7.066c2.279-1.641,4.512-2.37,6.654-2.188	c2.098,0.183,3.967,1.231,5.562,3.191l-3.646,2.599c-0.912-0.913-1.869-1.368-2.918-1.459c-1.049-0.046-2.188,0.364-3.328,1.185	c-1.641,1.14-2.508,2.553-2.598,4.194c-0.092,1.641,0.592,3.51,2.006,5.516c1.412,1.959,2.871,3.19,4.512,3.646	c1.596,0.456,3.191,0.137,4.742-0.957c1.094-0.821,1.822-1.733,2.143-2.827c0.318-1.094,0.182-2.233-0.365-3.464L136.334,43.543	L136.334,43.543z"/><polygon style="fill-rule:evenodd;clip-rule:evenodd;" points="117.734,66.063 115.137,62.371 118.83,59.772 121.428,63.465	117.734,66.063	"/><polygon style="fill-rule:evenodd;clip-rule:evenodd;" points="106.748,73.904 93.939,55.852 106.521,46.917 108.754,50.062	99.82,56.399 102.738,60.501 110.533,54.94 112.766,58.085 104.926,63.647 110.396,71.306 106.748,73.904	"/><path style="fill-rule:evenodd;clip-rule:evenodd;" d="M92.298,74.861c1.321,2.143,1.641,4.331,1.139,6.564	c-0.592,2.233-2.051,4.148-4.376,5.79c-2.644,1.915-5.333,2.553-7.977,1.96c-2.69-0.638-5.061-2.416-7.203-5.424	c-2.188-3.1-3.1-5.972-2.735-8.662c0.319-2.69,1.915-5.06,4.741-7.065c2.325-1.642,4.559-2.371,6.655-2.188	c2.143,0.137,4.012,1.23,5.562,3.191l-3.646,2.598c-0.866-0.912-1.824-1.413-2.872-1.458c-1.095-0.046-2.188,0.319-3.328,1.14	c-1.642,1.185-2.507,2.598-2.599,4.24c-0.091,1.641,0.547,3.464,2.006,5.516c1.368,1.96,2.872,3.146,4.467,3.647	c1.642,0.456,3.191,0.136,4.787-0.957c1.094-0.821,1.823-1.779,2.142-2.827c0.319-1.094,0.183-2.234-0.365-3.465L92.298,74.861	L92.298,74.861z"/><path style="fill-rule:evenodd;clip-rule:evenodd;" d="M63.168,104.902L50.358,86.85l8.479-6.017	c1.869-1.322,3.556-1.915,5.06-1.823c1.504,0.091,2.826,0.866,3.875,2.371c0.638,0.911,1.003,1.777,1.094,2.644	c0.045,0.866-0.137,1.733-0.639,2.599c1.231-0.32,2.279-0.228,3.237,0.136c0.957,0.365,1.823,1.094,2.599,2.143	c1.23,1.732,1.595,3.51,1.139,5.288c-0.456,1.732-1.732,3.373-3.829,4.878L63.168,104.902L63.168,104.902z"/><polygon style="fill-rule:evenodd;clip-rule:evenodd;" points="37.73,95.832 42.016,92.823 61.299,106.225 57.424,108.959	53.549,106.133 46.575,111.104 48.034,115.66 44.113,118.441 37.73,95.832	"/><path style="fill-rule:evenodd;clip-rule:evenodd;fill:#FFF22D;" d="M124.938,126.191l-3.465,12.172l11.123-7.203l11.123,7.203	l-4.057-12.172l10.029-7.613h-12.354l-4.742-12.262l-4.695,12.262h-12.582L124.938,126.191L124.938,126.191z M39.691,36.021	l-1.687,5.927l5.424-3.51l5.379,3.51l-1.96-5.927l4.832-3.691h-5.926l-2.326-5.973L41.15,32.33h-6.109L39.691,36.021L39.691,36.021	z M57.698,36.021l-1.687,5.927l5.379-3.51l5.425,3.51l-1.96-5.927l4.832-3.691h-5.972l-2.325-5.973l-2.279,5.973h-6.063	L57.698,36.021L57.698,36.021z M75.659,36.021l-1.641,5.927l5.379-3.51l5.379,3.51l-1.915-5.927l4.832-3.691h-5.971l-2.325-5.973	l-2.279,5.973h-6.108L75.659,36.021L75.659,36.021z M93.711,36.021l-1.687,5.927l5.333-3.51l5.426,3.51l-2.006-5.927l4.877-3.691	h-5.971l-2.326-5.973l-2.279,5.973h-6.018L93.711,36.021L93.711,36.021z"/><path style="fill-rule:evenodd;clip-rule:evenodd;fill:#FFFFFF;" d="M58.883,91.318l4.193-3.009	c0.958-0.639,1.504-1.277,1.687-1.915c0.229-0.593,0.046-1.231-0.41-1.915c-0.456-0.684-1.003-1.003-1.642-1.003	c-0.638,0-1.413,0.319-2.37,1.003l-4.194,3.009L58.883,91.318L58.883,91.318z"/><path style="fill-rule:evenodd;clip-rule:evenodd;fill:#FFFFFF;" d="M64.399,99.113l4.376-3.1c1.048-0.775,1.687-1.504,1.869-2.188	c0.229-0.73,0.046-1.459-0.547-2.28c-0.593-0.866-1.23-1.276-1.96-1.322s-1.641,0.319-2.689,1.094l-4.377,3.1L64.399,99.113	L64.399,99.113z"/><polygon style="fill-rule:evenodd;clip-rule:evenodd;fill:#FFFFFF;" points="42.426,97.928 45.39,107.365 50.404,103.809	42.426,97.928	"/></g></svg>