<?xml version="1.0" encoding="UTF-8" standalone="no"?>
<!-- Created with Inkscape (http://www.inkscape.org/) -->
<svg
   xmlns:svg="http://www.w3.org/2000/svg"
   xmlns="http://www.w3.org/2000/svg"
   version="1.0"
   width="565"
   height="603.64313"
   id="svg2527">
  <defs
     id="defs2529" />
  <g
     transform="translate(10.145484,364.94579)"
     id="layer1">
    <path
       d=""
       id="path2617"
       style="fill:#000000" />
    <g
       transform="translate(-220.77885,44.796564)"
       id="g3442" />
    <g
       id="g3517">
      <path
         d="M 133.10452,36.217216 L -10.145484,-166.26299 L -10.145484,-265.60439 L -10.145484,-364.94579 L 272.35451,-364.94579 L 554.85452,-364.94579 L 554.83872,-265.69579 L 554.82292,-166.44579 L 419.72612,30.054216 C 345.42289,138.12921 282.7675,229.28641 280.49192,232.62581 L 276.35451,238.69731 L 133.10452,36.217216 z M 407.93916,19.037916 L 538.85452,-171.42189 L 538.85452,-260.18379 L 538.85452,-348.94579 L 272.35451,-348.94579 L 5.8545158,-348.94579 L 5.8545158,-260.11219 L 5.8545158,-171.27859 L 138.50036,16.137816 C 211.45557,119.21681 272.09306,205.01071 273.25035,206.79081 C 274.40764,208.57101 275.7301,209.90831 276.18916,209.76261 C 276.64822,209.61701 335.93572,123.79091 407.93916,19.037916 z M 285.85451,-0.24578403 L 285.85451,-158.94579 L 396.91353,-158.94579 C 485.50416,-158.94579 507.817,-158.69289 507.20366,-157.69579 C 505.5723,-155.04369 287.60699,156.60621 286.75538,157.50421 C 286.22068,158.06811 285.85451,93.948613 285.85451,-0.24578403 z M 27.854516,-251.94579 L 27.854516,-330.94579 L 272.35451,-330.94579 L 516.85452,-330.94579 L 516.85452,-251.94579 L 516.85452,-172.94579 L 272.35451,-172.94579 L 27.854516,-172.94579 L 27.854516,-251.94579 z M 500.85452,-251.44579 L 500.85452,-313.94579 L 272.35451,-313.94579 L 43.854516,-313.94579 L 43.854516,-251.44579 L 43.854516,-188.94579 L 272.35451,-188.94579 L 500.85452,-188.94579 L 500.85452,-251.44579 z M 245.19569,-201.04139 C 217.55833,-205.65799 201.81925,-229.95859 208.3958,-257.85919 C 212.38183,-274.76959 225.13892,-286.56669 243.69144,-290.49889 C 261.30163,-294.23129 279.905,-290.21909 290.85413,-280.32719 C 294.40991,-277.11469 300.85451,-266.27619 300.85451,-263.50849 C 300.85451,-262.88309 295.67732,-261.34129 289.10451,-260.00929 C 282.64201,-258.69959 276.90421,-257.46939 276.35385,-257.27559 C 275.80348,-257.08179 274.33594,-259.14059 273.09263,-261.85069 C 270.11218,-268.34749 265.08595,-270.94579 255.49895,-270.94579 C 241.33452,-270.94579 233.9619,-262.69309 233.87897,-246.74499 C 233.79242,-230.10309 241.32416,-220.94579 255.09852,-220.94579 C 265.08992,-220.94579 270.36027,-224.50019 273.7982,-233.55709 C 274.81886,-236.24589 276.03656,-238.44579 276.50422,-238.44579 C 276.97188,-238.44579 282.66364,-237.10009 289.15257,-235.45539 C 300.69813,-232.52889 300.93789,-232.41119 300.35494,-229.95539 C 297.9629,-219.87809 287.19109,-207.71199 277.4257,-204.05829 C 267.29884,-200.26939 256.0953,-199.22059 245.19569,-201.04139 z M 385.35451,-201.45179 C 371.73334,-204.27259 360.15675,-211.75689 353.65451,-221.94579 C 347.68099,-231.30619 345.32744,-245.60989 347.9144,-256.83109 C 350.42461,-267.71949 358.38314,-278.54929 368.02817,-284.20169 C 382.71002,-292.80579 407.01232,-294.34249 424.58183,-287.77779 C 432.54341,-284.80289 441.837,-275.54069 444.29513,-268.13099 C 445.26487,-265.20789 445.85492,-262.61289 445.60635,-262.36429 C 445.06893,-261.82689 420.66569,-257.77839 420.34461,-258.17339 C 420.22281,-258.32319 419.38565,-260.02079 418.48426,-261.94579 C 415.74757,-267.79029 410.80033,-270.38669 401.60388,-270.80499 C 391.16633,-271.27979 385.61239,-269.64219 380.28546,-264.51909 C 375.07168,-259.50489 373.45691,-254.21539 374.09135,-244.22929 C 374.71086,-234.47839 377.8177,-228.48069 384.3347,-224.45469 C 388.94677,-221.60559 389.76681,-221.44599 399.77994,-221.44869 C 408.54545,-221.45109 411.16712,-221.82639 415.10451,-223.64249 C 419.25714,-225.55779 419.85451,-226.21769 419.85451,-228.88959 L 419.85451,-231.94579 L 408.35451,-231.94579 L 396.85451,-231.94579 L 396.85451,-241.94579 L 396.85451,-251.94579 L 421.8761,-251.94579 L 446.89771,-251.94579 L 446.62611,-232.69579 L 446.35452,-213.44579 L 437.34362,-208.91729 C 432.38763,-206.42649 424.96263,-203.56469 420.84362,-202.55749 C 410.8426,-200.11209 394.3107,-199.59709 385.35451,-201.45179 z M 63.963706,-212.69579 C 66.720426,-218.60829 75.988346,-238.42089 84.559076,-256.72379 L 100.14224,-290.00179 L 113.05164,-289.72379 L 125.96105,-289.44579 L 147.31929,-245.69579 L 168.67753,-201.94579 L 154.43186,-201.94579 L 140.18618,-201.94579 L 135.90916,-210.94579 L 131.63214,-219.94579 L 113.39324,-219.94579 L 95.154336,-219.94579 L 91.299586,-210.94579 L 87.444826,-201.94579 L 73.198156,-201.94579 L 58.951486,-201.94579 L 63.963706,-212.69579 z M 121.85452,-241.30739 C 121.85452,-242.51819 113.62318,-258.94579 113.01645,-258.94579 C 112.42711,-258.94579 107.77568,-249.07589 105.12257,-242.19579 C 104.75989,-241.25529 106.77153,-240.94579 113.24753,-240.94579 C 117.98138,-240.94579 121.85452,-241.10849 121.85452,-241.30739 z M 174.85452,-212.94579 L 174.85452,-223.94579 L 187.35452,-223.94579 L 199.85452,-223.94579 L 199.85452,-212.94579 L 199.85452,-201.94579 L 187.35452,-201.94579 L 174.85452,-201.94579 L 174.85452,-212.94579 z M 310.85451,-212.94579 L 310.85451,-223.94579 L 323.85451,-223.94579 L 336.85451,-223.94579 L 336.85451,-212.94579 L 336.85451,-201.94579 L 323.85451,-201.94579 L 310.85451,-201.94579 L 310.85451,-212.94579 z M 458.85452,-212.94579 L 458.85452,-223.94579 L 471.35452,-223.94579 L 483.85452,-223.94579 L 483.85452,-212.94579 L 483.85452,-201.94579 L 471.35452,-201.94579 L 458.85452,-201.94579 L 458.85452,-212.94579 z"
         id="path2660"
         style="fill:#000000" />
      <path
         d="M 273.37196,206.87519 C 272.21467,205.09507 211.57717,119.30123 138.62196,16.222216 L 5.976118,-171.19417 L 5.976118,-260.02778 L 5.976118,-348.8614 L 272.47612,-348.8614 L 538.97612,-348.8614 L 538.97612,-260.09944 L 538.97612,-171.33748 L 408.06077,19.122336 C 336.05733,123.87525 276.76983,209.70133 276.31077,209.84697 C 275.85171,209.99262 274.52925,208.65531 273.37196,206.87519 z M 265.51431,-158.6114 C 265.13791,-159.60105 241.89099,-159.8614 153.90052,-159.8614 C 55.126868,-159.8614 42.826698,-159.69317 43.342378,-158.34931 C 43.963908,-156.72963 261.19507,154.38192 263.87719,157.49362 C 265.34368,159.19498 265.49739,146.23185 265.73293,0.99361577 C 265.87417,-86.101644 265.77579,-157.9239 265.51431,-158.6114 z M 397.16712,0.13859577 C 457.33121,-85.936404 506.90237,-156.9239 507.32526,-157.6114 C 507.9386,-158.60851 485.62576,-158.8614 397.03514,-158.8614 L 285.97612,-158.8614 L 285.97612,-0.16140423 C 285.97612,94.03295 286.34229,158.15246 286.87699,157.5886 C 287.37247,157.0661 337.00303,86.2136 397.16712,0.13859577 z M 516.97612,-251.8614 L 516.97612,-330.8614 L 272.47612,-330.8614 L 27.976118,-330.8614 L 27.976118,-251.8614 L 27.976118,-172.8614 L 272.47612,-172.8614 L 516.97612,-172.8614 L 516.97612,-251.8614 z M 43.976118,-251.3614 L 43.976118,-313.8614 L 272.47612,-313.8614 L 500.97612,-313.8614 L 500.97612,-251.3614 L 500.97612,-188.8614 L 272.47612,-188.8614 L 43.976118,-188.8614 L 43.976118,-251.3614 z M 265.76273,-200.89669 C 275.96818,-202.55281 282.4868,-205.51392 288.80561,-211.36402 C 294.24222,-216.39737 299.11093,-224.11781 300.47655,-229.87096 C 301.0595,-232.32682 300.81974,-232.44453 289.27418,-235.37096 C 282.78525,-237.0157 277.09349,-238.3614 276.62583,-238.3614 C 276.15817,-238.3614 274.94047,-236.16147 273.91981,-233.47267 C 270.48188,-224.41578 265.21153,-220.8614 255.22013,-220.8614 C 241.44576,-220.8614 233.91402,-230.01866 234.00057,-246.66062 C 234.0835,-262.60871 241.45612,-270.8614 255.62056,-270.8614 C 265.20756,-270.8614 270.23379,-268.26308 273.21424,-261.76631 C 274.45755,-259.05617 275.92509,-256.99737 276.47546,-257.1912 C 277.02582,-257.38503 282.76362,-258.61519 289.22612,-259.92488 C 295.79893,-261.25693 300.97612,-262.7987 300.97612,-263.42404 C 300.97612,-266.19176 294.53152,-277.03035 290.97574,-280.24278 C 277.0607,-292.81418 250.90161,-295.5078 231.56538,-286.3603 C 224.41151,-282.97598 216.13404,-275.40487 212.71019,-269.11413 C 205.53207,-255.92556 205.2426,-237.06019 212.01467,-223.78584 C 220.79053,-206.58374 242.86876,-197.1815 265.76273,-200.89669 z M 420.96523,-202.47311 C 425.08424,-203.48026 432.50924,-206.34214 437.46523,-208.83285 L 446.47612,-213.3614 L 446.74771,-232.6114 L 447.01931,-251.8614 L 421.99771,-251.8614 L 396.97612,-251.8614 L 396.97612,-241.8614 L 396.97612,-231.8614 L 408.47612,-231.8614 L 419.97612,-231.8614 L 419.97612,-228.80517 C 419.97612,-226.1333 419.37875,-225.47341 415.22612,-223.55808 C 411.28873,-221.74203 408.66706,-221.36672 399.90155,-221.36431 C 389.88842,-221.36155 389.06838,-221.52115 384.45631,-224.37032 C 377.93931,-228.39629 374.83247,-234.39399 374.21296,-244.14493 C 373.57852,-254.13101 375.19329,-259.42047 380.40707,-264.43473 C 385.734,-269.55782 391.28794,-271.19544 401.72549,-270.72065 C 410.92194,-270.3023 415.86918,-267.70587 418.60587,-261.8614 C 419.50726,-259.9364 420.34442,-258.2388 420.46622,-258.08895 C 420.7873,-257.69395 445.19053,-261.74248 445.72795,-262.2799 C 445.97652,-262.52846 445.38647,-265.12349 444.41674,-268.04662 C 441.95861,-275.45633 432.66502,-284.71855 424.70344,-287.69336 C 407.13393,-294.25814 382.83163,-292.72142 368.14978,-284.11728 C 343.48293,-269.66155 339.63617,-233.89045 360.56199,-213.55832 C 365.68636,-208.57934 376.71888,-203.18092 385.47612,-201.36739 C 394.43231,-199.51265 410.96421,-200.02772 420.96523,-202.47311 z M 91.421178,-210.8614 L 95.275938,-219.8614 L 113.51484,-219.8614 L 131.75374,-219.8614 L 136.03076,-210.8614 L 140.30778,-201.8614 L 154.55346,-201.8614 L 168.79913,-201.8614 L 147.44089,-245.6114 L 126.08265,-289.3614 L 113.17324,-289.63942 L 100.26384,-289.91745 L 84.680678,-256.63942 C 76.109938,-238.33651 66.842028,-218.5239 64.085298,-212.6114 L 59.073078,-201.8614 L 73.319748,-201.8614 L 87.566418,-201.8614 L 91.421178,-210.8614 z M 105.24416,-242.1114 C 107.89728,-248.99153 112.54871,-258.8614 113.13805,-258.8614 C 113.74478,-258.8614 121.97612,-242.43385 121.97612,-241.22298 C 121.97612,-241.02411 118.10298,-240.8614 113.36913,-240.8614 C 106.89313,-240.8614 104.88148,-241.17088 105.24416,-242.1114 z M 199.97612,-212.8614 L 199.97612,-223.8614 L 187.47612,-223.8614 L 174.97612,-223.8614 L 174.97612,-212.8614 L 174.97612,-201.8614 L 187.47612,-201.8614 L 199.97612,-201.8614 L 199.97612,-212.8614 z M 336.97612,-212.8614 L 336.97612,-223.8614 L 323.97612,-223.8614 L 310.97612,-223.8614 L 310.97612,-212.8614 L 310.97612,-201.8614 L 323.97612,-201.8614 L 336.97612,-201.8614 L 336.97612,-212.8614 z M 483.97612,-212.8614 L 483.97612,-223.8614 L 471.47612,-223.8614 L 458.97612,-223.8614 L 458.97612,-212.8614 L 458.97612,-201.8614 L 471.47612,-201.8614 L 483.97612,-201.8614 L 483.97612,-212.8614 z"
         id="path3490"
         style="fill:#ffffff;fill-opacity:1" />
      <path
         d="M 263.82168,157.61319 C 261.13948,154.50149 43.908371,-156.61006 43.286871,-158.22974 C 42.771171,-159.5736 55.071271,-159.74183 153.84498,-159.74183 C 241.83548,-159.74183 265.08238,-159.48148 265.45878,-158.49183 C 265.72028,-157.80433 265.81868,-85.98207 265.67738,1.1131947 C 265.44188,146.35142 265.28818,159.31455 263.82168,157.61319 z"
         id="path3505"
         style="fill:#ee4120" />
    </g>
  </g>
</svg>
