<?xml version="1.0" encoding="iso-8859-1"?><!-- Generator: Adobe Illustrator 16.0.0, SVG Export Plug-In . SVG Version: 6.00 Build 0) --><!DOCTYPE svg PUBLIC "-//W3C//DTD SVG 1.1//EN" "http://www.w3.org/Graphics/SVG/1.1/DTD/svg11.dtd"><svg version="1.1" id="Layer_1" xmlns="http://www.w3.org/2000/svg" xmlns:xlink="http://www.w3.org/1999/xlink" x="0px" y="0px" width="192.756px" height="192.756px" viewBox="0 0 192.756 192.756" style="enable-background:new 0 0 192.756 192.756;" xml:space="preserve"><g><polygon style="fill-rule:evenodd;clip-rule:evenodd;fill:#FFFFFF;" points="0,0 192.756,0 192.756,192.756 0,192.756 0,0	"/><path style="fill:#55AB55;" d="M20.136,16.828c10.892,4.725,22.387,7.087,34.788,6.131c12.455-0.96,25.838-5.262,40.456-13.868	l0.995-0.586l0.996,0.586c14.617,8.606,28,12.908,40.455,13.868c12.402,0.956,23.896-1.406,34.789-6.131l2.465-1.069l0.273,2.689	v0.005c0.982,9.653,1.379,19.145,1.164,28.414c-0.213,9.295-1.041,18.426-2.506,27.335c-7.535,45.804-31.936,85.011-76.688,109.533	l-0.944,0.518l-0.941-0.514l-0.001,0.002c-8.694-4.688-16.624-9.955-23.814-15.738c-7.196-5.787-13.647-12.088-19.378-18.836	C22.81,114.502,12.354,68.038,17.398,18.448l0.273-2.689L20.136,16.828L20.136,16.828z M55.218,26.908	c-12.125,0.935-23.425-1.141-34.155-5.42c-4.307,47.561,6.018,91.956,34.191,125.131c5.572,6.562,11.843,12.688,18.838,18.312	c6.74,5.422,14.157,10.381,22.271,14.826c42.99-23.916,66.472-61.881,73.759-106.189c1.428-8.675,2.234-17.622,2.445-26.779	c0.191-8.322-0.107-16.771-0.879-25.303c-10.73,4.281-22.031,6.356-34.156,5.421c-12.727-0.981-26.348-5.284-41.158-13.844	C81.565,21.624,67.944,25.927,55.218,26.908L55.218,26.908z"/><path style="fill-rule:evenodd;clip-rule:evenodd;fill:#55AB55;" d="M76.603,66.531h37.795	c10.244,21.627,16.053,43.699,16.514,66.309c-2.09,4.51-7.059,4.637-8.807,0c0.121-5.711-0.369-11.727-2.201-18.418H71.466	c-0.978,6.139-1.467,12.277-1.467,18.418c-1.277,4.766-6.751,4.51-8.92,0C61.752,108.895,66.146,86.545,76.603,66.531	L76.603,66.531z"/><path style="fill-rule:evenodd;clip-rule:evenodd;fill:#FFFFFF;" d="M72.2,106.686h46.236c-1.314-11.267-4.924-21.766-9.174-32.049	H82.107C77.031,84.766,74.34,95.573,72.2,106.686L72.2,106.686z"/><path style="fill-rule:evenodd;clip-rule:evenodd;fill:#55AB55;" d="M97.152,89.371h32.291c3.596,2.413,3.596,5.114,0,8.104	l-34.126,0.002L97.152,89.371L97.152,89.371z"/><path style="fill-rule:evenodd;clip-rule:evenodd;fill:#55AB55;" d="M72.934,33.746c-4.118,1.708-3.756,6.444,0,7.736h18.347	v111.987c1.495,5.447,7.991,4.043,8.807,0L99.721,41.482h26.787c4.174-1.238,4.174-6.583,0-7.736H72.934L72.934,33.746z"/><path style="fill-rule:evenodd;clip-rule:evenodd;fill:#55AB55;" d="M126.133,67.143c-30.841-28.629-65.547-6.74-67.519,23.945	c0.367,29.977,36.695,55.241,69.353,22.84c4.793-1.572,7.605,1.521,5.504,5.893C86.25,162.658,49,116.104,50.542,91.824	c-0.871-35.38,44.517-65.695,80.585-30.099C132.676,66.129,130.094,68.731,126.133,67.143L126.133,67.143z"/></g></svg>