<svg xmlns="http://www.w3.org/2000/svg" width="288.351" height="300" viewBox="0 0 552.28127 574.59372"><title>Boa Esporte Clube</title>
<g fill="#e63135" stroke-width="0" transform="translate(-21.5,-133.59379)"><path fill="#048546" d="m297.78,208.59c115.03,0,208.31,92.42,208.31,206.38s-93.283,206.38-208.31,206.38-208.31-92.42-208.31-206.38,93.284-206.38,208.31-206.38z"/><path fill="#FFF" d="M294.89,133.77,363.15,332.56,573.63,330.3,405.13,455.01,474.77,658.36,300.1,532.45,130.41,660.46,192.61,458.44,21.649,335.32,231.41,333.48,294.89,133.77z"/><path d="m295.16,161.92,62.667,178.76,187.53-1.46l-149.46,114.22,60,177.99-155.72-109.21-151.27,112.55,54.43-180.21-153.92-110.33,188.08-2.44,57.65-179.87z"/><path fill="#FFF" d="m299.06,330.18c51.402,0,93.088,41.685,93.088,93.087s-41.686,93.088-93.088,93.088-93.087-41.686-93.087-93.088,41.685-93.087,93.087-93.087z"/><path d="m208.32,626.36,33.184,0c5.529,0,9.775,1.376,12.726,4.113,2.965,2.738,4.447,6.129,4.447,10.162,0,3.392-1.055,6.303-3.165,8.734-1.415,1.615-3.472,2.897-6.183,3.832,4.114,0.988,7.145,2.698,9.094,5.102,1.936,2.416,2.911,5.448,2.911,9.094,0,2.977-0.694,5.648-2.069,8.025-1.389,2.377-3.273,4.247-5.676,5.636-1.482,0.853-3.726,1.481-6.73,1.868-3.993,0.521-6.637,0.789-7.946,0.789h-30.593v-57.355zm17.881,22.501,7.705,0c2.764,0,4.687-0.48,5.782-1.428,1.081-0.963,1.616-2.338,1.616-4.127,0-1.669-0.535-2.977-1.616-3.913-1.095-0.948-2.978-1.416-5.662-1.416h-7.825v10.884zm0,22.528,9.04,0c3.058,0,5.208-0.534,6.45-1.615,1.255-1.083,1.882-2.538,1.882-4.367,0-1.696-0.613-3.058-1.855-4.087-1.242-1.028-3.406-1.549-6.517-1.549h-9v11.618zm42.171-16.318c0-9.361,2.617-16.653,7.826-21.86,5.22-5.222,12.485-7.825,21.792-7.825,9.549,0,16.906,2.563,22.074,7.69,5.155,5.116,7.746,12.299,7.746,21.527,0,6.704-1.135,12.206-3.392,16.492-2.257,4.287-5.516,7.625-9.775,10.015-4.273,2.391-9.575,3.58-15.945,3.58-6.462,0-11.818-1.029-16.065-3.085-4.232-2.071-7.665-5.328-10.309-9.789-2.63-4.46-3.952-10.042-3.952-16.745zm17.734,0.08c0,5.796,1.068,9.948,3.218,12.486,2.15,2.524,5.088,3.792,8.786,3.792,3.806,0,6.758-1.241,8.841-3.713,2.083-2.483,3.139-6.93,3.139-13.34,0-5.408-1.095-9.347-3.273-11.844-2.176-2.484-5.127-3.727-8.866-3.727-3.566,0-6.437,1.256-8.601,3.793-2.162,2.524-3.244,6.717-3.244,12.553zm83.795,19.095-20.19,0-2.778,9.469-18.108,0,21.553-57.355,19.323,0,21.567,57.355-18.549,0-2.818-9.469zm-3.712-12.405-6.343-20.618-6.303,20.618,12.646,0z"/><path d="m263.75,371.79,51.27,0c8.541,0,15.101,2.285,19.661,6.834,4.58,4.548,6.87,10.184,6.87,16.884,0,5.636-1.629,10.472-4.889,14.511-2.187,2.684-5.364,4.814-9.553,6.367,6.356,1.642,11.038,4.482,14.051,8.476,2.99,4.016,4.496,9.052,4.496,15.109,0,4.948-1.071,9.386-3.197,13.335-2.145,3.95-5.053,7.055-8.768,9.363-2.29,1.42-5.757,2.463-10.398,3.107-6.17,0.864-10.254,1.308-12.276,1.308h-47.267v-95.294zm27.626,37.386,11.904,0c4.271,0,7.241-0.799,8.933-2.375,1.672-1.597,2.497-3.883,2.497-6.855,0-2.774-0.825-4.948-2.497-6.501-1.692-1.576-4.6-2.353-8.748-2.353h-12.089v18.084zm0,37.429,13.966,0c4.725,0,8.047-0.887,9.966-2.684,1.94-1.797,2.909-4.216,2.909-7.256,0-2.817-0.949-5.081-2.868-6.788-1.918-1.709-5.26-2.575-10.068-2.575h-13.905v19.303z"/><path d="m210.61,693.8,11.648,0,0,3.004-7.291,0,0,2.238,6.765,0,0,2.869-6.765,0,0,2.772,7.505,0,0,3.188-11.862,0,0-14.071zm13.444,9.415,4.138-0.258c0.088,0.671,0.272,1.182,0.547,1.536,0.446,0.571,1.088,0.852,1.919,0.852,0.62,0,1.099-0.144,1.435-0.436,0.335-0.292,0.501-0.628,0.501-1.012,0-0.364-0.156-0.691-0.477-0.98-0.322-0.288-1.062-0.56-2.228-0.815-1.907-0.429-3.266-0.996-4.079-1.708-0.818-0.71-1.228-1.614-1.228-2.716,0-0.722,0.209-1.408,0.628-2.049,0.42-0.643,1.049-1.147,1.891-1.518,0.842-0.367,1.996-0.55,3.46-0.55,1.799,0,3.17,0.334,4.114,1.003,0.943,0.668,1.504,1.733,1.684,3.191l-4.098,0.239c-0.109-0.633-0.338-1.094-0.688-1.383-0.347-0.285-0.829-0.429-1.441-0.429-0.509,0-0.889,0.104-1.144,0.321-0.255,0.213-0.383,0.475-0.383,0.783,0,0.223,0.104,0.423,0.315,0.603,0.206,0.186,0.69,0.357,1.46,0.518,1.9,0.409,3.26,0.825,4.082,1.244,0.823,0.42,1.422,0.938,1.795,1.56,0.374,0.619,0.564,1.314,0.564,2.083,0,0.901-0.252,1.733-0.75,2.494-0.498,0.762-1.196,1.339-2.094,1.732-0.893,0.394-2.024,0.59-3.387,0.59-2.391,0-4.05-0.459-4.97-1.383-0.923-0.92-1.445-2.089-1.566-3.512zm14.937-9.415,7.226,0c1.572,0,2.752,0.374,3.534,1.124,0.783,0.747,1.177,1.815,1.177,3.194,0,1.422-0.426,2.533-1.281,3.332s-2.159,1.199-3.912,1.199h-2.378v5.222h-4.366v-14.071zm4.366,5.999,1.064,0c0.839,0,1.426-0.145,1.767-0.436,0.337-0.291,0.507-0.665,0.507-1.117,0-0.442-0.148-0.82-0.442-1.124-0.291-0.308-0.845-0.461-1.658-0.461h-1.238v3.138zm9.298,1.045c0-2.297,0.641-4.086,1.919-5.363,1.282-1.281,3.063-1.92,5.347-1.92,2.343,0,4.147,0.629,5.415,1.888,1.264,1.253,1.9,3.016,1.9,5.28,0,1.644-0.279,2.994-0.832,4.046-0.554,1.051-1.353,1.871-2.399,2.456-1.047,0.587-2.348,0.879-3.91,0.879-1.586,0-2.9-0.252-3.941-0.757-1.04-0.508-1.882-1.307-2.529-2.401-0.646-1.094-0.97-2.464-0.97-4.108zm4.35,0.019c0,1.422,0.262,2.44,0.79,3.064,0.527,0.619,1.247,0.93,2.155,0.93,0.934,0,1.658-0.305,2.169-0.911,0.511-0.609,0.77-1.7,0.77-3.273,0-1.327-0.268-2.293-0.802-2.905-0.535-0.61-1.259-0.914-2.176-0.914-0.875,0-1.579,0.308-2.11,0.93-0.531,0.619-0.796,1.647-0.796,3.079zm12.63,7.008,0-14.071,7.246,0c1.343,0,2.372,0.115,3.079,0.347,0.711,0.23,1.285,0.656,1.72,1.281,0.436,0.623,0.653,1.383,0.653,2.277,0,0.783-0.168,1.455-0.499,2.021-0.334,0.568-0.793,1.026-1.372,1.38-0.373,0.223-0.882,0.409-1.526,0.553,0.517,0.174,0.893,0.348,1.132,0.521,0.158,0.115,0.391,0.361,0.695,0.737,0.305,0.38,0.508,0.669,0.61,0.876l2.103,4.078h-4.915l-2.322-4.302c-0.295-0.553-0.557-0.917-0.79-1.084-0.311-0.217-0.668-0.324-1.065-0.324h-0.383v5.71h-4.366zm4.366-8.37,1.835,0c0.197,0,0.58-0.062,1.149-0.191,0.289-0.059,0.525-0.206,0.708-0.442,0.181-0.236,0.273-0.507,0.273-0.815,0-0.456-0.145-0.804-0.433-1.046-0.288-0.246-0.829-0.367-1.621-0.367h-1.911v2.861zm9.703-5.701,13.216,0,0,3.476-4.435,0,0,10.595-4.347,0,0-10.595-4.434,0,0-3.476zm15.176,0,11.649,0,0,3.004-7.292,0,0,2.238,6.765,0,0,2.869-6.765,0,0,2.772,7.505,0,0,3.188-11.862,0,0-14.071zm30.126,8.321,3.81,1.153c-0.256,1.069-0.658,1.959-1.209,2.677-0.55,0.717-1.235,1.258-2.051,1.622-0.816,0.366-1.854,0.547-3.112,0.547-1.53,0-2.782-0.224-3.748-0.665-0.97-0.446-1.809-1.229-2.512-2.35-0.702-1.119-1.056-2.551-1.056-4.298,0-2.328,0.62-4.121,1.858-5.369,1.239-1.251,2.992-1.877,5.255-1.877,1.772,0,3.164,0.357,4.18,1.074,1.016,0.718,1.769,1.819,2.26,3.303l-3.839,0.855c-0.134-0.429-0.276-0.743-0.423-0.944-0.242-0.33-0.54-0.586-0.891-0.766-0.354-0.18-0.746-0.269-1.182-0.269-0.984,0-1.74,0.397-2.264,1.189-0.396,0.59-0.597,1.514-0.597,2.775,0,1.563,0.24,2.631,0.711,3.211,0.476,0.579,1.141,0.868,1.996,0.868,0.832,0,1.461-0.233,1.886-0.701,0.426-0.465,0.735-1.143,0.928-2.035zm5.92-8.321,4.351,0,0,10.605,6.784,0,0,3.466-11.135,0,0-14.071zm21.76,0,4.341,0,0,8.39c0,0.832-0.131,1.615-0.39,2.356-0.259,0.736-0.665,1.385-1.219,1.939-0.554,0.553-1.133,0.941-1.742,1.166-0.846,0.312-1.858,0.469-3.045,0.469-0.684,0-1.43-0.047-2.24-0.144-0.809-0.096-1.484-0.285-2.028-0.571-0.543-0.284-1.042-0.691-1.494-1.215s-0.76-1.064-0.926-1.622c-0.27-0.893-0.404-1.686-0.404-2.378v-8.39h4.341v8.59c0,0.77,0.213,1.369,0.635,1.798,0.426,0.433,1.016,0.649,1.773,0.649,0.747,0,1.337-0.213,1.763-0.639,0.422-0.423,0.635-1.029,0.635-1.808v-8.59zm7.227,0,8.141,0c1.356,0,2.398,0.338,3.122,1.009,0.727,0.672,1.091,1.504,1.091,2.493,0,0.832-0.259,1.547-0.777,2.143-0.346,0.396-0.852,0.71-1.517,0.94,1.01,0.242,1.753,0.662,2.231,1.252,0.476,0.593,0.715,1.336,0.715,2.231,0,0.73-0.171,1.385-0.508,1.968-0.341,0.583-0.803,1.042-1.392,1.383-0.364,0.21-0.915,0.363-1.652,0.459-0.979,0.127-1.628,0.193-1.949,0.193h-7.505v-14.071zm4.386,5.521,1.891,0c0.678,0,1.15-0.118,1.418-0.351,0.266-0.236,0.397-0.574,0.397-1.013,0-0.409-0.131-0.73-0.397-0.96-0.268-0.232-0.73-0.347-1.389-0.347h-1.92v2.671zm0,5.526,2.218,0c0.751,0,1.278-0.131,1.582-0.397,0.308-0.265,0.463-0.622,0.463-1.07,0-0.417-0.152-0.751-0.456-1.003-0.305-0.252-0.835-0.38-1.598-0.38h-2.209v2.85zm10.887-11.047,11.649,0,0,3.004-7.292,0,0,2.238,6.765,0,0,2.869-6.765,0,0,2.772,7.506,0,0,3.188-11.863,0,0-14.071z"/></g></svg>