<?xml version="1.0" encoding="iso-8859-1"?><!-- Generator: Adobe Illustrator 16.0.0, SVG Export Plug-In . SVG Version: 6.00 Build 0) --><!DOCTYPE svg PUBLIC "-//W3C//DTD SVG 1.1//EN" "http://www.w3.org/Graphics/SVG/1.1/DTD/svg11.dtd"><svg version="1.1" id="Layer_1" xmlns="http://www.w3.org/2000/svg" xmlns:xlink="http://www.w3.org/1999/xlink" x="0px" y="0px" width="208.119px" height="231.64px" viewBox="0 0 208.119 231.64" style="enable-background:new 0 0 208.119 231.64;" xml:space="preserve"><g><path d="M207.994,54.14l0.125-32c-31.75,8.25-64.625-11.5-64.625-11.5c-22.871-11.5-39.375-10.625-39.375-10.625	S87.495-0.86,64.625,10.64c0,0-32.875,19.75-64.625,11.5l0.125,32c-0.75,126,104.051,177.5,104.051,177.5	S208.744,180.14,207.994,54.14L207.994,54.14z"/><path style="fill:#FFFFFF;" d="M104.166,220.375c0,0-95.587-54.567-95.726-161.3l-0.115-25.44	C47.912,33.473,69.78,19.055,69.78,19.055c21.041-10.58,34.335-9.775,34.335-9.775s13.307-0.805,34.348,9.775	c0,0,21.869,14.418,61.455,14.579l-0.115,25.44C199.664,165.807,104.166,220.375,104.166,220.375L104.166,220.375z M188.422,61.764	L188.422,61.764l0.102-16.388c-30.092,0.098-54.08-14.83-54.08-14.83c-18.518-9.311-30.328-8.603-30.328-8.603	s-11.699-0.708-30.214,8.603c0,0-23.989,14.928-54.081,14.83l0.102,16.388c-0.343,91.376,84.239,145.944,84.239,145.944	S188.764,153.14,188.422,61.764L188.422,61.764z"/><polygon style="fill:#FFFFFF;" points="104.145,38.319 117.602,79.731 161.145,79.731 125.918,105.327 139.375,146.739	104.146,121.146 68.919,146.741 82.373,105.329 47.144,79.736 90.687,79.732 104.145,38.319	"/></g></svg>