<?xml version="1.0" encoding="utf-8"?>
<!-- Generator: Adobe Illustrator 15.1.0, SVG Export Plug-In . SVG Version: 6.00 Build 0)  -->
<!DOCTYPE svg PUBLIC "-//W3C//DTD SVG 1.0//EN" "http://www.w3.org/TR/2001/REC-SVG-20010904/DTD/svg10.dtd">
<svg version="1.0" id="Camada_1" xmlns="http://www.w3.org/2000/svg" xmlns:xlink="http://www.w3.org/1999/xlink" x="0px" y="0px"
	 width="490px" height="485px" viewBox="0 0 490 485" enable-background="new 0 0 490 485" xml:space="preserve">
<path fill-rule="evenodd" clip-rule="evenodd" fill="#FFFFFF" d="M245.065,480.69c-6.622-6.118-26.702-17.009-53.649-31.33
	c-10.453-5.556-19.48-10.354-23.738-12.966c-6.614-4.056-13.46-7.747-20.081-11.316c-6.351-3.424-12.917-6.965-19.253-10.814
	c-13.672-8.309-25.063-16.664-34.823-25.544c-21.206-19.294-37.602-43.342-48.734-71.477
	C33.011,287.481,27.04,252.902,27.04,214.467v-30.721l1.767-71.321C29.243,90.067,17.464,34.249,8.033,9.419
	c22.63,11.905,71.57,29.33,92.578,29.33h6.144c14.88,0,30.567-3.712,45.739-7.303c8.55-2.023,16.625-3.934,23.976-5.024
	c8.257-1.224,16.246-3.089,23.972-4.893c13.877-3.24,28.227-6.589,45.326-6.589h1.535c15.826,0,33.756,4.239,49.575,7.978
	c6.182,1.461,12.021,2.842,17.528,3.938c4.649,0.925,9.973,2.124,15.608,3.393c17.696,3.984,37.753,8.5,53.229,8.5h8.449
	c19.119,0,68.69-18.227,90.541-29.927c-8.609,22.893-20.812,76.072-20.812,91.209l-0.253,18.535l1.79,75.259l-0.001,18.337
	c0,34.938-6.709,74.684-17.51,103.729c-11.959,32.167-24.159,47.747-48.728,72.601c-15.167,15.346-53.214,37.233-73.633,47.426
	C322.404,436.261,257.749,469.92,245.065,480.69z"/>
<g>
	<path fill-rule="evenodd" clip-rule="evenodd" fill="#CD2F32" d="M46.082,223.684c0,47.279,13.209,87.698,30.7,117.528
		c9.597,16.368,20.726,26.94,34.384,39.346c5.586,5.074,38.062,27.431,44.744,28.988v-75.267c-3.681,1.947-9.094,5.376-14.593,5.376
		h-3.84c-20.304,0-35.714-21.378-42.753-35.585c-6.432-12.982-17.921-42.129-17.921-60.417h79.107v-30.722H46.082V223.684
		L46.082,223.684z"/>
	<path fill-rule="evenodd" clip-rule="evenodd" fill="#CD2F32" d="M365.579,304.326h12.287c6.508,0,18.434,1.214,18.434,6.912v0.769
		c0,9.509-21.698,37.065-30.721,39.169V304.326L365.579,304.326z M365.579,243.653h33.793c5.902,0,13.824,2.658,13.824,8.447
		c0,9.322-13.022,27.649-23.04,27.649h-24.577V243.653L365.579,243.653z M421.646,288.965c4.377-6.537,10.059-8.689,14.608-17.646
		c3.073-6.054,6.128-16.165,6.128-25.362v-0.768c0-17.742-10.736-32.258-27.649-32.258h-80.642v196.615
		c10.708-2.495,51.957-33.351,58.938-41.672c9.938-11.843,36.296-45.116,36.296-64.316
		C429.325,297.168,425.56,291.586,421.646,288.965L421.646,288.965z"/>
	<path fill-rule="evenodd" clip-rule="evenodd" fill="#CD2F32" d="M244.999,471.756c-12.549-6.641-24.746-15.878-38.137-22.538
		c-13.315-6.62-25.871-13.712-39.187-20.718c-22.399-11.784-55.673-30.83-72.25-47.563c-21.598-21.798-35.82-41.186-46.715-73.864
		c-10.024-30.067-14.917-65.18-14.917-104.895h422.413c0,39.595-5.482,75.185-15.458,105.123
		c-8.941,26.828-26.736,57.311-46.183,73.63c-24.887,20.888-43.687,31.324-73.028,47.551c-12.744,7.049-26.231,14.591-38.894,21.013
		C269.241,456.291,257.409,465.189,244.999,471.756L244.999,471.756z M272.648,170.69h182.79v19.2h-182.79V170.69L272.648,170.69z
		 M33.793,170.69h183.558v19.2H33.793V170.69L33.793,170.69z M387.853,46.27c24.964,0,64.545-15.349,82.178-23.809
		c-0.087,3.881-8.604,33.797-10.445,41.012c-3.134,12.276-5.683,30.969-5.683,45.776v6.144H272.648V25.533
		c9.175,0,46.018,9.041,56.671,11.682C343.594,40.753,370.828,46.27,387.853,46.27L387.853,46.27z M35.33,100.8
		c0-30.191-10.417-53.818-16.129-78.339c9.938,2.316,25.815,10.972,38.253,14.741c11.748,3.559,27.835,9.068,43.157,9.068h4.608
		c16.167,0,42.522-6.256,57.273-9.544c12.076-2.692,44.354-11.192,54.859-11.192v89.859H35.33V100.8L35.33,100.8z M0,1.725
		c8.884,12.787,25.312,84.781,24.808,110.602l-1.768,71.42v30.721c0,80.209,25.477,138.713,67.789,177.211
		c10.777,9.805,22.587,18.193,35.438,26.003c13.05,7.931,26.481,14.249,39.319,22.123c13.481,8.269,72.092,37.113,77.877,45.007
		h3.072c3.904-5.832,67.077-39.69,78.339-45.313c21.308-10.636,59.227-32.546,74.691-48.192
		c23.35-23.621,36.918-39.822,49.632-74.019c10.307-27.718,17.761-67.319,17.761-105.124v-18.432l-1.79-75.259l0.254-18.44
		c0-18.244,17.853-90.572,24.578-98.307V0.188h-1.537C477.601,9.63,413.5,34.75,391.692,34.75h-8.449
		c-20.01,0-49.174-8.059-68.057-11.816c-19.93-3.966-45.479-11.993-67.884-11.993h-1.535c-27.252,0-47.125,8.15-69.885,11.525
		c-20.491,3.039-46.361,12.284-69.128,12.284h-6.144c-23.936,0-88.239-24.475-99.843-34.561H0V1.725L0,1.725z"/>
	<path fill-rule="evenodd" clip-rule="evenodd" fill="#CD2F32" d="M218.886,243.653h39.169c13.612,0,22.272,11.302,22.272,25.344
		v3.072c0,18.751-13.368,27.648-32.257,27.648h-29.185V243.653L218.886,243.653z M173.573,212.931
		c2.092,2.854,7.68,5.332,7.68,11.521v174.34c0,9.183-2.776,17.666-12.288,17.666l49.984,27.531l-0.063-111.246h24.577
		c18.731,0,26.88,29.083,26.88,49.154v15.36c0,8.422-4.235,22.076-6.472,29.624c-1.697,5.73-8.576,22.681-8.888,26.441
		l61.105-33.778l-0.433-0.783c-19.812-4.616-9.613-28.526-13.247-49.729c-1.77-10.317-2.508-16.371-6.716-24.773
		c-2.437-4.865-11.823-17.173-12.295-19.196c14.642-3.41,32.258-25.449,32.258-44.545v-11.521c0-34.841-16.013-48.083-43.776-55.298
		C260.632,210.775,191.463,212.931,173.573,212.931L173.573,212.931z"/>
</g>
</svg>
