<?xml version="1.0" encoding="iso-8859-1"?><!-- Generator: Adobe Illustrator 16.0.0, SVG Export Plug-In . SVG Version: 6.00 Build 0) --><!DOCTYPE svg PUBLIC "-//W3C//DTD SVG 1.1//EN" "http://www.w3.org/Graphics/SVG/1.1/DTD/svg11.dtd"><svg version="1.1" id="Layer_1" xmlns="http://www.w3.org/2000/svg" xmlns:xlink="http://www.w3.org/1999/xlink" x="0px" y="0px" width="530.412px" height="379.151px" viewBox="0 0 530.412 379.151" style="enable-background:new 0 0 530.412 379.151;" xml:space="preserve"><g><polygon style="fill:#FFF22D;" points="291.053,128.737 291.053,269.712 425.98,121.969 360.316,53.425 291.053,128.737	"/><path d="M357.508,50.842l-70.271,76.406V279.55l143.969-157.644L360.26,47.85L357.508,50.842L357.508,50.842z M360.373,59	L360.373,59c4.951,5.167,56.012,58.468,60.383,63.031c-4.41,4.83-114.117,124.956-125.887,137.842c0-16.83,0-126.941,0-129.649	C296.744,128.183,355.375,64.435,360.373,59L360.373,59z"/><polygon style="fill:#FFF22D;" points="320.283,299.089 456.939,299.089 525.197,223.776 459.533,155.232 320.283,299.089	"/><path d="M456.791,152.579L311.279,302.905h147.352l71.781-79.201l-70.865-73.973L456.791,152.579L456.791,152.579z M459.518,160.734L459.518,160.734c4.838,5.049,56.104,58.562,60.463,63.115c-4.369,4.822-62.611,69.086-64.732,71.424	c-3.078,0-110.453,0-125.959,0C340.477,283.714,454.465,165.954,459.518,160.734L459.518,160.734z"/><polygon style="fill:#FFF22D;" points="239.5,128.737 239.5,269.712 104.428,121.969 169.949,53.425 239.5,128.737	"/><path d="M167.19,50.789l-67.986,71.123l144.112,157.631V127.245l-73.32-79.392L167.19,50.789L167.19,50.789z M169.901,58.997	L169.901,58.997c5.006,5.421,63.897,69.188,65.784,71.231c0,2.717,0,112.835,0,129.653	c-11.769-12.871-121.621-133.029-126.033-137.855C114.014,117.463,164.96,64.166,169.901,58.997L169.901,58.997z"/><polygon style="fill:#FFF22D;" points="210.125,299.089 73.325,299.089 5.213,223.776 70.876,155.232 210.125,299.089	"/><path d="M68.121,152.593L0,223.702l71.631,79.203h147.499L70.862,149.731L68.121,152.593L68.121,152.593z M70.891,160.734	L70.891,160.734c5.053,5.22,119.041,122.98,130.229,134.539c-15.508,0-123.017,0-126.101,0c-2.119-2.344-60.233-66.6-64.593-71.422	C14.781,219.304,66.054,165.784,70.891,160.734L70.891,160.734z"/><path d="M325.611,328.177h-3.6l-18.432,49.68h6.912l5.328-14.977h9.791h9.793l5.328,14.977h7.344l-18.576-49.68H325.611	L325.611,328.177z M325.611,357.12L325.611,357.12h-7.775l7.775-21.744l0.145-0.143l7.633,21.887H325.611L325.611,357.12z"/><path d="M462.844,369.36c-2.592,2.592-5.904,3.889-9.936,3.889c-4.752,0-8.641-1.873-11.52-5.617	c-2.881-3.6-4.32-8.496-4.32-14.688c0-6.336,1.297-11.375,4.176-14.977c2.736-3.312,6.625-5.184,11.664-5.184	c3.887,0,6.912,1.008,9.215,2.736c2.449,1.584,3.889,4.176,4.609,7.488h6.625c-0.578-5.041-2.738-8.928-6.336-11.809	c-3.602-2.881-8.209-4.32-13.824-4.32c-7.059,0-12.672,2.305-16.848,6.768c-4.178,4.465-6.338,10.656-6.338,18.578	c0,8.352,2.018,14.975,6.049,19.871c4.031,4.752,9.504,7.055,16.416,7.055c6.191,0,11.088-1.727,14.975-5.328	c3.889-3.598,5.906-8.496,6.193-14.543h-6.623C466.877,363.456,465.58,366.769,462.844,369.36L462.844,369.36z"/><polygon points="480.268,370.226 480.268,377.856 487.182,377.856 487.182,370.226 480.268,370.226	"/><polygon points="378.893,354.815 405.533,354.815 405.533,349.058 378.893,349.058 378.893,334.368 407.693,334.368	407.693,328.177 372.123,328.177 372.123,377.856 408.268,377.856 408.268,371.663 378.893,371.663 378.893,354.815	"/><polygon points="416.045,377.856 422.955,377.856 422.955,370.226 416.045,370.226 416.045,377.856	"/><polygon points="234.749,311.905 227.981,311.905 221.069,323.712 225.101,323.712 234.749,311.905	"/><path d="M120.701,374.544c-0.432-0.863-0.577-2.158-0.72-3.889l-0.577-8.207c-0.288-3.023-0.72-5.328-1.584-6.48	c-0.72-1.295-2.16-2.305-4.176-2.879c2.304-1.008,4.031-2.449,5.184-4.465c1.153-1.871,1.728-4.176,1.728-6.912	s-0.575-5.184-1.584-7.057c-1.151-2.016-2.735-3.598-4.895-4.75c-1.152-0.721-2.448-1.152-3.888-1.441	c-1.441-0.145-3.745-0.287-6.913-0.287h-1.152H83.981v49.68h6.624v-21.312h10.943c0.144,0,0.288,0,0.576,0	c4.464,0,7.344,0.432,8.496,1.439c1.153,1.008,1.873,3.168,2.016,6.48l0.433,6.48c0,0,0,0.145,0,0.289	c0.289,3.311,0.72,5.615,1.296,6.623h7.92v-1.439C121.565,376.128,120.989,375.409,120.701,374.544L120.701,374.544z M111.052,348.624L111.052,348.624c-1.727,1.441-4.752,2.16-8.928,2.16H90.605v-16.848h11.519c4.32,0,7.344,0.719,9.072,1.871	c1.584,1.008,2.448,3.168,2.448,6.049C113.645,345.024,112.781,347.327,111.052,348.624L111.052,348.624z"/><polygon points="128.045,377.856 134.813,377.856 134.813,328.177 128.045,328.177 128.045,377.856	"/><path d="M278.092,366.048c-0.289,0.721-0.432,1.297-0.574,1.873c-0.289,0.719-0.434,1.439-0.578,2.305	c-0.145-0.434-0.287-1.008-0.432-1.586c-0.143-0.574-0.432-1.439-0.721-2.592l-12.382-37.871h-9.648v49.68h6.192v-42.336	c0.143,0.721,0.288,1.439,0.432,2.16c0.288,0.721,0.433,1.439,0.72,2.016l12.526,38.16h6.336l12.816-38.16	c0.289-0.721,0.434-1.439,0.721-2.16c0.145-0.721,0.287-1.439,0.432-2.016v42.336h6.625v-49.68h-9.648L278.092,366.048	L278.092,366.048z"/><path d="M174.269,369.36c-2.593,2.592-5.904,3.889-10.08,3.889c-4.752,0-8.641-1.873-11.521-5.617	c-2.88-3.6-4.319-8.496-4.319-14.688c0-6.336,1.439-11.375,4.176-14.977c2.735-3.312,6.768-5.184,11.808-5.184	c3.745,0,6.769,1.008,9.216,2.736c2.304,1.584,3.888,4.176,4.463,7.488h6.624c-0.575-5.041-2.591-8.928-6.191-11.809	c-3.601-2.881-8.208-4.32-13.824-4.32c-7.2,0-12.816,2.305-16.992,6.768c-4.176,4.465-6.192,10.656-6.192,18.578	c0,8.352,2.016,14.975,5.904,19.871c4.032,4.752,9.503,7.055,16.56,7.055c6.048,0,11.088-1.727,14.832-5.328	c3.888-3.598,6.048-8.496,6.336-14.543h-6.624C178.3,363.456,176.861,366.769,174.269,369.36L174.269,369.36z"/><path d="M238.636,358.991c0,4.609-1.151,8.066-3.168,10.227c-2.159,2.303-5.328,3.455-9.647,3.455c-4.32,0-7.488-1.152-9.648-3.312	c-2.016-2.303-3.023-5.76-3.023-10.369v-30.814h-6.769v30.672c0,6.768,1.584,11.951,4.608,15.264	c3.168,3.457,7.776,5.039,14.112,5.039c6.624,0,11.664-1.582,15.119-5.039c3.456-3.457,5.185-8.496,5.185-15.264v-30.672h-6.769	V358.991L238.636,358.991z"/><polygon points="191.117,377.856 197.884,377.856 197.884,328.177 191.117,328.177 191.117,377.856	"/><path d="M67.277,369.36c-2.592,2.592-5.904,3.889-10.08,3.889c-4.752,0-8.641-1.873-11.521-5.617	c-2.879-3.6-4.319-8.496-4.319-14.688c0-6.336,1.439-11.375,4.176-14.977c2.736-3.312,6.767-5.184,11.808-5.184	c3.744,0,6.768,1.008,9.215,2.736c2.305,1.584,3.889,4.176,4.465,7.488h6.624c-0.576-5.041-2.593-8.928-6.192-11.809	c-3.6-2.881-8.208-4.32-13.824-4.32c-7.201,0-12.815,2.305-16.993,6.768c-4.176,4.465-6.191,10.656-6.191,18.578	c0,8.352,2.016,14.975,5.904,19.871c4.032,4.752,9.504,7.055,16.56,7.055c6.047,0,11.087-1.727,14.832-5.328	c3.888-3.598,5.904-8.496,6.192-14.543h-6.48C71.309,363.456,69.869,366.769,67.277,369.36L67.277,369.36z"/><polygon points="243.245,56.593 233.021,91.296 264.844,70.704 296.236,91.296 284.861,56.593 313.084,34.704 278.236,34.704	264.844,0 251.309,34.704 215.884,34.704 243.245,56.593	"/></g></svg>