<?xml version="1.0" encoding="UTF-8" standalone="no"?>
<svg xmlns="http://www.w3.org/2000/svg"
   xmlns:dc="http://purl.org/dc/elements/1.1/"
   xmlns:cc="http://creativecommons.org/ns#"
   xmlns:rdf="http://www.w3.org/1999/02/22-rdf-syntax-ns#"
   width="350" height="366">
  <metadata>
    <rdf:RDF>
      <cc:Work rdf:about="">
        <dc:format>image/svg+xml</dc:format>
        <dc:type rdf:resource="http://purl.org/dc/dcmitype/StillImage" />
        <dc:title>Mogi Mirim Esporte Clube</dc:title>
      </cc:Work>
    </rdf:RDF>
  </metadata>
  <path
     d="m 172.85109,364.62889 c -0.84799,0 -1.54181,-0.45 -1.54181,-1 0,-0.55 -0.57566,-1 -1.27924,-1 -0.70358,0 -1.92792,-0.9 -2.72076,-2 -0.79284,-1.1 -2.01718,-2 -2.72076,-2 -0.70358,0 -1.27924,-0.45 -1.27924,-1 0,-0.55 -0.67119,-1 -1.49153,-1 -0.82034,0 -2.05358,-0.9 -2.74054,-2 -0.68696,-1.1 -1.74904,-2 -2.36016,-2 -0.61113,0 -2.52379,-1.35 -4.25035,-3 -1.72657,-1.65 -3.59331,-3 -4.14832,-3 -0.555,0 -1.0091,-0.45 -1.0091,-1 0,-0.55 -0.49446,-1 -1.09879,-1 -0.60433,0 -2.35988,-1.35 -3.90121,-3 -1.54133,-1.65 -3.19753,-3 -3.68045,-3 -0.48292,0 -1.52671,-0.9 -2.31955,-2 -0.79284,-1.1 -1.91784,-2 -2.5,-2 -0.58216,0 -1.70716,-0.9 -2.5,-2 -0.79284,-1.1 -1.91784,-2 -2.5,-2 -0.58216,0 -1.70716,-0.9 -2.5,-2 -0.79284,-1.1 -1.91784,-2 -2.5,-2 -0.58216,0 -1.70716,-0.9 -2.5,-2 -0.79284,-1.1 -1.8171,-2 -2.27614,-2 -0.45904,0 -3.48478,-2.7 -6.72386,-6 -3.23908,-3.3 -6.15484,-6 -6.47946,-6 -0.32463,0 -4.96206,-4.48783 -10.305385,-9.97295 -5.34334,-5.48512 -11.63478,-12.12262 -13.98098,-14.75 -2.3462,-2.62738 -5.49619,-6.18981 -7,-7.91651 -1.5038,-1.72671 -3.40918,-4.13895 -4.23418,-5.36054 -0.825,-1.22159 -2.7375,-3.56892 -4.25,-5.21629 -1.5125,-1.64737 -2.75,-3.32878 -2.75,-3.73646 0,-0.40767 -0.89166,-1.82258 -1.98146,-3.14424 -1.08981,-1.32166 -2.37894,-2.88135 -2.86473,-3.466 -0.4858,-0.58464 -1.45501,-2.13129 -2.1538,-3.43701 -0.6988,-1.30572 -1.66801,-2.85237 -2.15381,-3.43701 -0.48579,-0.58465 -1.69724,-2.05477 -2.69209,-3.26695 -0.99486,-1.21218 -2.62986,-4.02468 -3.63334,-6.25 -1.00348,-2.22532 -2.10565,-4.04604 -2.44927,-4.04604 -0.34361,0 -3.82479,-6.6375 -7.73595,-14.75 -3.91116,-8.1125 -8.71832,-18.35 -10.68258,-22.75 -1.96425,-4.4 -3.8408,-9.125 -4.1701,-10.5 -0.3293,-1.375 -1.21823,-4.075 -1.97539,-6 -0.75716,-1.925 -2.34848,-6.875 -3.53626,-11 -1.18779,-4.125 -2.54254,-8.85 -3.01056,-10.5 -0.46803,-1.65 -1.57853,-5.54302 -2.46778,-8.65115 -0.88926,-3.10814 -2.0568695,-8.50814 -2.5946995,-12 -0.53782,-3.49187 -1.39638,-8.82385 -1.9079,-11.84885 -0.51152,-3.025 -2.1019,-14.275 -3.53418,-25 -2.21592,-16.592984 -2.63037,-23.674196 -2.78011,-47.500006 -0.0968,-15.40001 0.18005,-29.27719 0.6152,-30.83818 0.78174,-2.80429 0.85338,-2.82817 6,-2 2.8648495,0.46099 19.1588195,0.80981 36.2088195,0.77513 18.02077,-0.0366 35.18684,-0.57792 40.99999,-1.29281 5.5,-0.67638 13.15,-1.48108 16.999995,-1.78822 3.85001,-0.30715 7.42751,-0.96288 7.95001,-1.45719 0.5225,-0.4943 2.57,-0.89874 4.55,-0.89874 1.98,0 4.0275,-0.40391 4.55,-0.89757 0.5225,-0.49367 2.75,-1.1514 4.95,-1.46163 2.2,-0.31023 5.69167,-0.85604 7.75927,-1.21292 2.0676,-0.35687 4.00665,-1.04913 4.30902,-1.53837 0.30236,-0.48923 2.07163,-0.88951 3.93171,-0.88951 1.86008,0 3.66008,-0.45 4,-1 0.33992,-0.55 2.16648,-1 4.05902,-1 1.89254,0 3.44098,-0.45 3.44098,-0.9999998 0,-0.55 1.8,-1 4,-1 2.2,0 4,-0.45 4,-1 0,-0.55 1.575,-1 3.5,-1 1.925,0 3.5,-0.45 3.5,-1 0,-0.55 1.32344,-1 2.94098,-1 1.61754,0 3.2191,-0.45 3.55902,-0.9999997 0.33992,-0.55 2.98195,-1 5.87119,-1 3.20664,0 6.86581,0.77916 9.39267,1.9999997 2.27674,1.1 4.83627,2 5.68783,2 0.85157,0 1.54831,0.45 1.54831,1 0,0.55 1.35,1 3,1 1.65,0 3,0.45 3,1 0,0.5499998 1.35,0.9999998 3,0.9999998 1.65,0 3,0.45 3,1 0,0.55 1.35,1 3,1 1.65,0 3,0.45 3,1 0,0.55 1.125,1 2.5,1 1.375,0 2.5,0.45 2.5,1 0,0.55 1.8,1 4,1 2.2,0 4,0.45 4,1 0,0.55 1.54844,1 3.44098,1 1.89254,0 3.7191,0.45 4.05902,1 0.33992,0.55 2.39148,1 4.55902,1 2.16754,0 3.94098,0.45 3.94098,1 0,0.55 1.71,1 3.8,1 2.09,0 4.2275,0.41416 4.75,0.92035 0.5225,0.50619 8.15,1.18439 16.95,1.50712 8.8,0.32272 27.41222,0.84885 41.36049,1.16916 17.68935,0.40623 25.69005,0.25284 26.45,-0.50712 0.59923,-0.59923 3.19441,-1.08951 5.76707,-1.08951 3.12732,0 5.1324,0.54722 6.05,1.65115 1.0347,1.24483 1.45854,6.59715 1.72234,21.75 0.19336,11.10746 -0.13587,23.67772 -0.73595,28.09886 -0.59721,4.4 -1.32172,11.375002 -1.61003,15.500002 -0.28831,4.125004 -0.9422,11.144664 -1.45308,15.599254 -0.51088,4.45459 -1.65222,11.87959 -2.53631,16.5 -0.88409,4.62041 -2.50941,12.45075 -3.61182,17.40075 -1.10241,4.95 -2.46196,10.8 -3.02123,13 -0.55927,2.2 -1.92096,6.7 -3.02599,10 -1.10502,3.3 -2.38109,7.575 -2.8357,9.5 -0.45461,1.925 -1.80375,5.975 -2.99809,9 -1.19434,3.025 -2.52991,6.625 -2.96793,8 -0.43803,1.375 -2.15386,5.425 -3.81295,9 -1.6591,3.575 -4.50394,9.7625 -6.32187,13.75 -1.81793,3.9875 -3.6684,7.25 -4.11214,7.25 -0.44375,0 -0.80681,0.65973 -0.80681,1.46607 0,0.80634 -0.75835,3.05634 -1.68521,5 -0.92687,1.94366 -1.99727,3.53393 -2.37868,3.53393 -0.38141,0 -1.25266,1.35 -1.93611,3 -0.68345,1.65 -1.56112,3 -1.95038,3 -0.38926,0 -1.76159,2.25 -3.04962,5 -1.28803,2.75 -2.66036,5 -3.04962,5 -0.38926,0 -1.26693,1.35 -1.95038,3 -0.68345,1.65 -1.58345,3 -2,3 -0.41655,0 -1.32462,1.3695 -2.01795,3.04333 -0.69332,1.67384 -2.54792,4.42143 -4.12132,6.10576 -1.5734,1.68433 -2.86073,3.42811 -2.86073,3.87507 0,0.44695 -1.6875,2.59483 -3.75,4.77306 -2.0625,2.17823 -4.425,4.96469 -5.25,6.19213 -0.825,1.22745 -2.73433,3.64448 -4.24295,5.37119 -1.50863,1.7267 -4.20863,4.84615 -6,6.9321 -1.79138,2.08596 -8.0802,8.72346 -13.97517,14.75 -5.89496,6.02655 -10.98238,10.95736 -11.30538,10.95736 -0.32299,0 -3.23742,2.7 -6.4765,6 -3.23908,3.3 -6.36416,6 -6.94462,6 -0.58046,0 -1.05538,0.45 -1.05538,1 0,0.55 -0.49446,1 -1.09879,1 -0.60433,0 -2.35988,1.35 -3.90121,3 -1.54133,1.65 -3.29688,3 -3.90121,3 -0.60433,0 -1.09879,0.45 -1.09879,1 0,0.55 -0.57566,1 -1.27924,1 -0.70358,0 -1.92792,0.9 -2.72076,2 -0.79284,1.1 -1.91784,2 -2.5,2 -0.58216,0 -1.70716,0.9 -2.5,2 -0.79284,1.1 -1.91784,2 -2.5,2 -0.58216,0 -1.70716,0.9 -2.5,2 -0.79284,1.1 -2.21185,2 -3.15337,2 -0.94152,0 -1.9975,0.9 -2.34663,2 -0.34913,1.1 -1.27945,2 -2.06739,2 -0.78793,0 -1.43261,0.45 -1.43261,1 0,0.55 -0.80066,1 -1.77924,1 -0.97858,0 -2.42792,0.9 -3.22076,2 -0.79284,1.1 -2.01718,2 -2.72076,2 -0.70358,0 -1.27924,0.45 -1.27924,1 0,0.55 -0.59015,1 -1.31144,1 -0.72129,0 -2.27747,0.9 -3.45819,2 -1.18071,1.1 -2.84056,2 -3.68856,2 z"
     style="fill:#ffffff"/>
  <path
     d="m 173.46793,366.47909 c -0.71234,-6.1e-4 -8.67963,-5.66178 -17.70509,-12.58037 -9.02546,-6.91859 -20.82251,-16.1527 -26.21568,-20.52024 -5.39316,-4.36754 -14.8837,-12.58311 -21.09007,-18.25682 -6.20638,-5.67371 -14.991081,-14.23794 -19.521551,-19.03161 -4.53048,-4.79367 -11.99553,-13.30444 -16.58901,-18.91281 -4.59348,-5.60837 -10.6269,-13.34704 -13.4076,-17.19704 -2.7807,-3.85 -7.41621,-10.825 -10.30112,-15.5 -2.88492,-4.675 -8.25421,-14.35 -11.93176,-21.5 -3.67755,-7.15 -8.9862,-18.85 -11.79698,-26 -2.81079,-7.15 -6.28756,-17.05 -7.72617,-22 -1.4386,-4.95 -3.70145,-13.05957 -5.02854,-18.02128 -1.3271,-4.9617 -3.2994198,-13.7367 -4.3829398,-19.5 -1.08351,-5.76329 -2.47584,-13.85372 -3.09405,-17.97872 -0.61822,-4.125 -1.78408,-14.24999 -2.59081,-22.499991 -0.80673,-8.25 -1.74595002,-26.96853 -2.08716002474,-41.59673 C -0.34181082,40.755269 -0.32436082,27.604909 0.03819918,26.160449 l 0.65915,-2.626296 28.73771982,0.608063 c 18.71431,0.395978 33.79516,0.195367 43.23772,-0.575163 7.975,-0.650775 20.38974,-2.044076 27.588311,-3.096225 7.19857,-1.05215 17.54857,-2.874026 23,-4.048615 5.45143,-1.174588 16.66169,-3.914706 24.91169,-6.089151 8.25,-2.1744444 18.68026,-5.1116734 23.17836,-6.5271754 l 8.17835,-2.573641 18.54108,6.618353 c 10.1976,3.6400964 23.19934,7.9263694 28.89277,9.5250554 5.69343,1.598686 15.04468,3.840426 20.78056,4.981645 5.73588,1.141219 14.25388,2.511428 18.92888,3.044909 4.675,0.533482 14.35,1.261371 21.5,1.617541 7.15,0.35617 22,0.14999 33,-0.45817 11,-0.608153 21.9625,-1.383847 24.36111,-1.72376 l 4.36112,-0.618025 -0.48171,32.880205 c -0.37473,25.57874 -0.9525,36.4604 -2.60181,49.002661 -1.16605,8.86735 -3.23383,21.69235 -4.59506,28.5 -1.36123,6.80765 -4.02294,18.00509 -5.91492,24.8832 -1.89199,6.87812 -5.55225,18.35312 -8.13392,25.5 -2.58167,7.14689 -7.9397,19.74434 -11.90673,27.99434 -3.96703,8.25 -10.4884,20.4 -14.49193,27 -4.00353,6.6 -10.44559,16.43965 -14.3157,21.86589 -3.8701,5.42624 -10.44343,13.97624 -14.60739,19 -4.16396,5.02376 -12.76884,14.47704 -19.12195,21.0073 -6.35311,6.53025 -17.17611,16.82747 -24.05111,22.88272 -6.875,6.05524 -18.62026,15.61572 -26.10057,21.2455 -7.48032,5.62979 -17.0225,12.54507 -21.20484,15.36728 -4.18235,2.82222 -8.18709,5.13081 -8.89943,5.1302 z m 0.46098,-15.00753 c 0.41587,0.005 5.31644,-3.25386 10.89015,-7.24136 5.57371,-3.9875 16.03344,-11.96286 23.24386,-17.72302 7.21042,-5.76017 19.79855,-17.01017 27.97362,-25 8.17508,-7.98984 18.3295,-18.57698 22.56539,-23.52698 4.23588,-4.95 10.39898,-12.6 13.69575,-17 3.29678,-4.4 8.30233,-11.375 11.12345,-15.5 2.82111,-4.125 8.0296,-12.56102 11.57441,-18.74671 3.54481,-6.18569 8.92001,-16.76069 11.94489,-23.5 3.02489,-6.73931 7.15374,-16.69222 9.17523,-22.11759 2.02149,-5.42536 5.42305,-16.00036 7.55901,-23.5 2.13597,-7.49963 5.01946,-19.52482 6.40777,-26.72263 1.3883,-7.19781 3.18666,-18.44781 3.99635,-25 0.80968,-6.552181 1.9935,-20.463061 2.6307,-30.913061 0.6372,-10.45 1.00211,-22.79516 0.81091,-27.4337 l -0.34763,-8.43369 -34,-0.0918 c -27.55074,-0.0744 -36.08653,-0.43083 -45,-1.87902 -6.05,-0.98296 -16.4,-3.08018 -23,-4.6605 -6.6,-1.58032 -17.4,-4.64595 -24,-6.812512 -6.6,-2.166559 -16.36427,-5.532727 -21.69838,-7.480373 L 179.776,14.64744 169.47439,17.640998 c -5.66589,1.646455 -17.27662,4.741749 -25.80162,6.878429 -8.525,2.136682 -21.66281,5.016862 -29.19513,6.400412 -7.53232,1.38354 -20.582321,3.27277 -29.000001,4.19828 -10.76551,1.18366 -23.87372,1.68388 -44.19557,1.68655 l -28.8907,0.004 0.59222,24.58588 c 0.32573,13.52224 1.28306,31.07522 2.12742,39.006621 0.84436,7.9314 1.80384,16.0314 2.13219,18 0.32835,1.96859 1.48038,8.52926 2.56007,14.57926 1.07968,6.05 3.77842,17.75 5.99718,26 2.21877,8.25 6.29803,21.075 9.06502,28.5 2.76699,7.425 8.08669,19.60786 11.82155,27.07302 3.73487,7.46517 8.68771,16.69017 11.00632,20.5 2.3186,3.80984 6.71722,10.52698 9.7747,14.92698 3.05748,4.4 8.80211,12.08634 12.76584,17.08075 3.96372,4.99441 12.5465,14.61995 19.07283,21.39008 6.526331,6.77013 17.070571,16.89682 23.431651,22.50375 6.36107,5.60693 15.82046,13.58177 21.02087,17.72186 5.20041,4.14009 13.94589,10.96067 19.43441,15.15685 5.48852,4.19618 10.31939,7.63331 10.73527,7.63807 z m -0.23537,-9.0058 c -0.28642,-0.008 -6.89646,-4.84543 -14.68897,-10.75 -7.79251,-5.90456 -20.12032,-15.67336 -27.39514,-21.70845 -7.27482,-6.03509 -18.23289,-15.93509 -24.35126,-22 -6.11837,-6.06491 -13.996711,-14.38093 -17.507421,-18.48005 -3.51071,-4.09911 -9.38459,-11.52411 -13.05306,-16.5 -3.66848,-4.97588 -9.39522,-13.55982 -12.72609,-19.07542 -3.33087,-5.51559 -8.13584,-14.1693 -10.6777,-19.23046 -2.54187,-5.06116 -6.36769,-13.5984 -8.50182,-18.97164 -2.13413,-5.37325 -5.49583,-14.78288 -7.47043,-20.91029 -1.97461,-6.12741 -4.95621,-16.52633 -6.62577,-23.1087 -1.66957,-6.58237 -4.12937,-18.44404 -5.46623,-26.35925 -1.33686,-7.91522 -3.12686,-20.46629 -3.97777,-27.891291 -0.85091,-7.425 -1.79263,-20.025 -2.09272,-28 -0.30008,-7.975 -0.76121,-16.8625 -1.02473,-19.75 l -0.47913,-5.25 26.25873,-0.0198 c 15.72073,-0.0118 32.0778,-0.61009 40.75874,-1.49075 7.975,-0.80905 20.125001,-2.41584 27.000001,-3.57064 6.875,-1.15481 19.27304,-3.79932 27.5512,-5.87668 8.27817,-2.07737 20.88496,-5.66716 28.01511,-7.977316 l 12.9639,-4.200282 14.4849,5.433668 c 7.96669,2.98852 18.84115,6.81441 24.16548,8.50197 5.32432,1.68757 14.77432,4.20337 21,5.59068 6.22567,1.3873 15.32681,3.01323 20.22473,3.61316 4.89793,0.59994 18.34529,1.08807 29.88302,1.08475 11.53774,-0.003 24.74284,-0.31156 29.34468,-0.68495 l 8.36698,-0.67889 -0.005,14.38752 c -0.003,7.91313 -0.67942,22.03277 -1.5037,31.37697 -0.82427,9.3442 -2.40689,22.577241 -3.51693,29.406771 -1.11004,6.82953 -3.11825,17.29027 -4.4627,23.24609 -1.34445,5.95583 -3.86817,15.44778 -5.60827,21.09323 -1.7401,5.64545 -5.30108,15.68966 -7.91328,22.32048 -2.6122,6.63082 -7.09274,16.75582 -9.95676,22.5 -2.86401,5.74418 -8.43066,15.77523 -12.37032,22.29121 -3.93966,6.51598 -10.85897,16.77872 -15.37624,22.80608 -4.51727,6.02737 -12.4448,15.77111 -17.61674,21.65277 -5.17193,5.88165 -13.85981,14.96891 -19.30639,20.19391 -5.44659,5.225 -14.39405,13.37313 -19.88327,18.10695 -5.48921,4.73383 -15.82103,13.17133 -22.95961,18.75 -7.13857,5.57868 -13.21357,10.13655 -13.5,10.12861 z m -0.17341,-10.03694 c 0.74105,0.0283 5.46605,-3.17426 10.5,-7.11672 5.03395,-3.94245 13.65264,-11.01776 19.15264,-15.72291 5.5,-4.70515 15.11695,-13.51701 21.371,-19.58191 6.25406,-6.06489 15.28834,-15.52708 20.07619,-21.02708 4.78785,-5.5 11.65742,-13.88335 15.26571,-18.62967 3.60828,-4.74631 8.69493,-11.89938 11.30367,-15.89571 2.60873,-3.99633 7.19213,-11.58798 10.18533,-16.87034 2.99321,-5.28235 6.80302,-12.52928 8.46625,-16.10428 1.66323,-3.575 4.5148,-10.1 6.33682,-14.5 1.82202,-4.4 4.90343,-12.76849 6.84759,-18.59665 1.94415,-5.82815 4.65737,-15.05315 6.02936,-20.5 1.372,-5.44684 3.64217,-15.97835 5.04482,-23.40335 1.40266,-7.425 3.20186,-20.69999 3.99824,-29.499991 0.79637,-8.8 1.58904,-21.82648 1.76148,-28.94773 l 0.31354,-12.94772 -28.5,-0.10269 c -22.00599,-0.0793 -30.97526,-0.50313 -39.36309,-1.8601 -5.97469,-0.96658 -14.97469,-2.82837 -20,-4.13733 -5.0253,-1.30895 -14.53691,-4.17337 -21.13691,-6.36539 -6.6,-2.19202 -16.37138,-5.61256 -21.71417,-7.60121 l -9.71418,-3.61572 -12.28582,3.96568 c -6.75721,2.18113 -15.66083,4.85108 -19.78583,5.93323 -4.125,1.08215 -11.775,2.89638 -17,4.03162 -5.225,1.13524 -13.4254,2.77005 -18.22312,3.63292 -4.79772,0.86287 -14.922721,2.24798 -22.500001,3.07804 -7.57729,0.83005 -25.16426,1.78716 -39.08216,2.12692 l -25.30528,0.61774 0.53457,7.59587 c 0.29402,4.17773 0.78954,11.87087 1.10116,17.09587 0.31163,5.225 1.45872,16.925 2.5491,26.000001 1.09038,9.07499 3.29665,23.02499 4.90283,30.99999 1.60617,7.975 4.53015,20.125 6.49773,27 1.96758,6.875 5.3892,17.45 7.6036,23.5 2.2144,6.05 7.35147,17.75 11.41572,26 4.06424,8.25 10.19387,19.275 13.62139,24.5 3.42752,5.225 8.26941,12.2 10.75976,15.5 2.49035,3.3 8.42173,10.5 13.18085,16 4.759121,5.5 12.678111,13.825 17.597751,18.5 4.91964,4.675 14.09759,12.83164 20.39545,18.12588 6.29786,5.29423 17.07565,13.93361 23.95065,19.19862 6.875,5.26501 13.10631,9.59587 13.84736,9.62412 z m -0.0134,-5.94862 c -0.40159,0 -3.56603,-2.33866 -7.03208,-5.19701 -3.46606,-2.85836 -6.63253,-5.67086 -7.03661,-6.25 -0.40408,-0.57915 -0.74158,-40.10252 -0.75,-87.82972 l -0.0153,-86.77674 14.75,0.27674 14.75,0.27673 0.25558,85.75204 0.25559,85.75204 -7.2235,6.99796 c -3.97293,3.84888 -7.55208,6.99796 -7.95367,6.99796 z m -41.02329,-87.73767 -0.31071,56.76232 -15.25,-15.27405 -15.25,-15.27406 0.003,-45.98827 c 0.002,-25.29355 0.29729,-53.07577 0.65656,-61.73827 l 0.65323,-15.75 14.23343,0 14.23343,0 0.67072,20.25 c 0.3689,11.1375 0.5309,45.79305 0.36001,77.01233 z m 93.70406,39.86113 -10.48907,10.85686 -0.26285,-72.99136 c -0.14457,-40.14524 -0.11285,-73.44081 0.0705,-73.99015 0.19987,-0.59889 5.70541,-0.99881 13.75,-0.99881 l 13.41667,0 -0.016,59.75 -0.016,59.75 -2.9821,3.38331 c -1.64016,1.86081 -7.70219,8.26889 -13.47118,14.24015 z M 76.836509,219.879 c -0.42449,0.26235 -4.06273,-6.10531 -8.08498,-14.15037 -4.02224,-8.04505 -9.00468,-18.9296 -11.07209,-24.1879 -2.0674,-5.25829 -4.69118,-12.26053 -5.83062,-15.56053 -1.13944,-3.3 -3.00153,-9.6 -4.13797,-14 -1.13644,-4.4 -2.31883,-8.79881 -2.62753,-9.77513 -0.52427,-1.65807 0.51535,-1.75699 15.76408,-1.5 l 16.32537,0.27513 0.21777,39.2109 c 0.11977,21.566 -0.12954,39.42555 -0.55403,39.6879 z m 195.539531,-5.00767 c -1.19805,1.63842 -1.46421,-0.38674 -2.03761,-15.50326 -0.36275,-9.56333 -0.66092,-26.05037 -0.6626,-36.63787 l -0.003,-19.25 16,0 c 8.8,0 16,0.19975 16,0.44388 0,0.24414 -2.25036,7.24549 -5.00081,15.55856 -2.75044,8.31307 -6.61726,19.02582 -8.59293,23.80611 -1.97567,4.7803 -6.00701,13.41792 -8.95853,19.19471 -2.95152,5.77679 -5.98653,11.35133 -6.74446,12.38787 z m 30.07148,-77.47008 c -0.70111,-0.0434 -1.72475,-0.23339 -2.27475,-0.42217 -0.55,-0.18877 -58.76255,-0.54516 -129.36121,-0.79198 -104.948421,-0.36691 -128.510201,-0.68981 -129.177991,-1.77033 -0.44923,-0.72687 -1.74651,-6.29745 -2.88284,-12.37907 -1.13633,-6.08163 -2.5405,-16.4575 -3.12038,-23.057491 -0.57987,-6.6 -0.92005,-17.85 -0.75595,-25 l 0.29837,-13 18.5,-0.6568 c 10.175,-0.36124 24.575,-1.1653 32,-1.78679 7.425,-0.62149 18.208171,-1.8211 23.962591,-2.6658 5.75443,-0.8447 16.32943,-2.8562 23.5,-4.47 7.17058,-1.6138 20.62693,-5.48392 29.90301,-8.60025 l 16.86561,-5.66607 4.13439,1.58912 c 2.27392,0.87402 8.88107,3.4035 14.68256,5.62107 5.80149,2.21758 16.60149,5.61854 24,7.55771 7.39851,1.93916 18.079,4.21511 23.73441,5.05766 5.65542,0.84255 18.03042,2.00466 27.5,2.58246 9.46959,0.57781 21.26743,0.98032 26.21743,0.89448 4.95,-0.0858 9.62628,-0.11125 10.39173,-0.0564 1.16026,0.0831 1.29923,3.55073 0.83555,20.84964 -0.42809,15.97151 -1.1672,24.287961 -3.2095,36.113151 -1.45933,8.44973 -3.06169,16.43723 -3.5608,17.75 -0.49911,1.31277 -1.48112,2.35132 -2.18223,2.3079 z m -49.18724,-8.16498 45.08751,0.24393 1.63176,-9.25 c 0.89747,-5.0875 2.09153,-13.3 2.65347,-18.24999 0.56193,-4.950001 1.13826,-14.625001 1.28072,-21.500001 l 0.25903,-12.5 -21.5,-0.59738 c -11.82972,-0.32869 -26.89737,-1.38582 -33.5,-2.35031 -6.6,-0.96411 -18.82005,-3.47967 -27.15566,-5.59013 -8.33561,-2.11045 -21.29216,-6.15092 -28.79233,-8.97881 l -13.63667,-5.14162 -16.70767,5.47662 c -9.18922,3.01215 -22.10767,6.67717 -28.70767,8.14449 -6.6,1.46732 -18.01032,3.51512 -25.35627,4.55066 -7.34595,1.03553 -20.395951,2.36223 -29.000001,2.94821 -8.60405,0.58597 -20.54567,1.332 -26.53692,1.65783 l -10.89319,0.59242 0.5836,19.14401 c 0.32346,10.61062 1.30871,23.129521 2.21033,28.085211 0.89471,4.91766 2.06092,9.75247 2.59158,10.74402 0.91545,1.71053 5.04554,1.81623 80.682851,2.06486 43.84491,0.14413 100.0074,0.37182 124.80553,0.50598 z M 71.172769,113.4802 c -4.22222,0 -5.5,-0.34848 -5.5,-1.5 0,-0.83333 0.88889,-1.5 2,-1.5 1.90191,0 2,-0.66667 2,-13.593611 0,-12.75262 -0.12374,-13.62598 -2,-14.11663 -1.1,-0.28766 -2,-0.92053 -2,-1.40638 0,-0.48586 3.08427,-0.88337 6.85392,-0.88337 l 6.85393,0 4.31174,9.54337 c 2.37146,5.24886 4.62126,9.73466 4.99956,9.96846 0.37829,0.233801 2.62581,-4.06072 4.99447,-9.54337 l 4.30667,-9.96846 6.839861,0 c 3.76192,0 6.83985,0.39751 6.83985,0.88337 0,0.48585 -0.9,1.11872 -2,1.40638 -1.87626,0.49065 -2,1.36401 -2,14.11663 0,12.926941 0.0981,13.593611 2,13.593611 1.11111,0 2,0.66667 2,1.5 0,1.2074 -1.549,1.5 -7.94098,1.5 -4.549161,0 -8.222741,-0.45588 -8.600621,-1.06731 -0.36322,-0.5877 0.2843,-1.31415 1.44098,-1.61663 1.98713,-0.51965 2.09716,-1.17781 2.03666,-12.182691 -0.0597,-10.86735 -0.15868,-11.43582 -1.50258,-8.63336 -0.79125,1.65 -3.00111,6.4875 -4.9108,10.750001 -2.9359,6.55302 -3.84327,7.74999 -5.87497,7.74999 -1.32154,0 -2.85502,-0.5625 -3.40773,-1.25 -0.55272,-0.6875 -2.68622,-5.18749 -4.74112,-9.999991 -2.0549,-4.8125 -4.13278,-8.75 -4.61751,-8.75 -0.48473,0 -0.88133,4.95 -0.88133,11 0,10.333321 0.12121,10.999991 2,10.999991 1.11111,0 2,0.66667 2,1.5 0,1.15152 -1.27778,1.5 -5.5,1.5 z m 50.184021,-0.18694 c -2.09787,0.25122 -2.74198,-0.1958 -3.26081,-2.26299 -0.38424,-1.53095 -0.12962,-3.19889 0.62762,-4.11131 0.70079,-0.8444 2.16758,-1.40106 3.25954,-1.23702 1.09195,0.16404 2.47903,1.08576 3.08239,2.04826 0.79539,1.26884 0.79574,2.23116 0.001,3.5 -0.60266,0.9625 -2.27216,1.89088 -3.71,2.06306 z m 16.42363,0.18694 c -2.62587,0 -5.07432,-0.3 -5.44098,-0.66667 -0.36667,-0.36666 -0.66667,-1.04166 -0.66667,-1.5 0,-0.45833 0.9,-0.83333 2,-0.83333 1.90476,0 2,-0.66667 2,-13.999991 0,-13.33333 -0.0952,-14 -2,-14 -1.1,0 -2,-0.45 -2,-1 0,-0.57177 3.00825,-1 7.02475,-1 6.36389,0 7.10552,0.21167 7.88325,2.25 0.47217,1.2375 2.53896,5.85 4.59286,10.25 l 3.73437,8.000001 4.38238,-9.380161 c 2.41032,-5.15909 4.38239,-9.77159 4.38239,-10.25 0,-0.47841 3.15,-0.86984 7,-0.86984 3.85,0 7,0.39751 7,0.88337 0,0.48585 -0.9,1.11872 -2,1.40638 -1.87626,0.49065 -2,1.36401 -2,14.11663 0,12.926941 0.0981,13.593611 2,13.593611 1.11111,0 2,0.66667 2,1.5 0,1.2074 -1.549,1.5 -7.94098,1.5 -4.36754,0 -8.21962,-0.45084 -8.56018,-1.00187 -0.34055,-0.55103 0.53289,-1.43989 1.94099,-1.97525 2.53322,-0.96313 2.56017,-1.08943 2.56017,-11.998121 0,-6.06361 -0.33849,-11.02475 -0.75219,-11.02475 -0.41371,0 -2.78765,4.6125 -5.27541,10.25 -4.02362,9.117861 -4.82774,10.285291 -7.28028,10.569551 -2.56806,0.29765 -3.01778,-0.25079 -6.56009,-8 -2.09165,-4.575751 -4.12625,-9.206941 -4.52132,-10.291531 -0.60199,-1.65266 -0.86904,-1.73362 -1.64919,-0.5 -0.51199,0.80959 -0.93779,5.64562 -0.94621,10.746731 -0.0149,9.03713 0.0503,9.29968 2.54486,10.24812 1.4081,0.53536 2.28154,1.42422 1.94099,1.97525 -0.34056,0.55103 -2.76764,1.00187 -5.39351,1.00187 z m 50.03996,0 c -1.54785,0 -3.11428,-0.3 -3.48094,-0.66667 -0.36667,-0.36666 -0.66667,-1.62666 -0.66667,-2.8 0,-1.17333 0.54,-2.67333 1.2,-3.33333 0.66,-0.66 1.9549,-1.2 2.87756,-1.2 0.92265,0 2.2329,0.66916 2.91166,1.48701 0.70782,0.85288 0.96514,2.55869 0.6034,4 -0.48673,1.93928 -1.27322,2.51299 -3.44501,2.51299 z m 24.85239,0 c -12.66667,0 -15,-0.23333 -15,-1.5 0,-0.83333 0.88889,-1.5 2,-1.5 1.90476,0 2,-0.66667 2,-13.999991 0,-13.33333 -0.0952,-14 -2,-14 -1.1,0 -2,-0.45 -2,-1 0,-0.62222 5.66667,-1 15,-1 l 15,0 0,3.5 c 0,2.31329 -0.46904,3.5 -1.38337,3.5 -0.76085,0 -1.61872,-0.9 -1.90638,-2 -0.4563,-1.74491 -1.36401,-2 -7.11663,-2 l -6.59362,0 0,5 0,5 3.93261,0 c 3.08947,0 4.07246,-0.4406 4.58486,-2.05505 0.35874,-1.13027 1.17656,-1.8828 1.81739,-1.67228 0.64083,0.21052 1.30514,2.29355 1.47625,4.62895 0.17394,2.37407 -0.23763,4.90738 -0.93351,5.745851 -1.07629,1.29686 -1.43113,1.14369 -2.62379,-1.132581 -1.12028,-2.13813 -1.9775,-2.57431 -4.56649,-2.32358 l -3.18732,0.30869 -0.29676,6.796761 -0.29675,6.79674 6.79675,-0.29675 c 6.18135,-0.26989 6.82569,-0.50049 7.11631,-2.54676 0.17575,-1.2375 0.96325,-2.25 1.75,-2.25 1.00219,0 1.43045,1.19755 1.43045,4 l 0,4 -15,0 z m 26.14761,0 c -1.54785,0 -3.11428,-0.3 -3.48094,-0.66667 -0.36667,-0.36666 -0.66667,-1.62666 -0.66667,-2.8 0,-1.17333 0.54,-2.67333 1.2,-3.33333 0.66,-0.66 1.9549,-1.2 2.87756,-1.2 0.92265,0 2.2329,0.66916 2.91166,1.48701 0.70782,0.85288 0.96514,2.55869 0.6034,4 -0.48673,1.93928 -1.27322,2.51299 -3.44501,2.51299 z m 27.16813,-0.0442 c -3.81586,-0.029 -7.11987,-0.73245 -9.60822,-2.04568 -2.08586,-1.10082 -4.67168,-3.44343 -5.74626,-5.2058 -1.34534,-2.20643 -1.95495,-5.01544 -1.95752,-9.020051 -0.002,-3.19866 0.50124,-6.79866 1.11845,-8 0.6172,-1.20135 2.26001,-3.40466 3.65069,-4.89627 1.64066,-1.75973 4.40682,-3.13235 7.87781,-3.90913 4.16908,-0.933 6.54573,-0.92937 10.77203,0.0164 2.9825,0.66746 5.94001,1.83685 6.57226,2.59866 0.63224,0.76181 1.00452,2.64982 0.82728,4.19558 -0.17724,1.54576 -0.85379,2.81047 -1.50344,2.81047 -0.64965,0 -2.23934,-1.575 -3.53265,-3.5 -1.97565,-2.94064 -3.02461,-3.5491 -6.56352,-3.80724 -3.47858,-0.25374 -4.63323,0.14722 -6.63074,2.30257 -1.53561,1.65695 -2.66616,4.40908 -3.09647,7.53786 -0.37278,2.71043 -0.36781,6.76276 0.0111,9.005201 0.37885,2.24243 1.71156,5.26614 2.96158,6.71937 1.70991,1.98789 3.20715,2.64223 6.04587,2.64223 3.14952,0 4.30605,-0.63476 6.99754,-3.84063 1.8587,-2.21392 3.70389,-3.54429 4.35646,-3.14098 0.62263,0.38481 1.11709,1.2356 1.09879,1.89063 -0.0183,0.65504 -0.82443,2.13741 -1.7914,3.29416 -0.96698,1.15675 -2.72242,2.61925 -3.90099,3.25 -1.17857,0.63075 -4.75994,1.12693 -7.9586,1.10262 z m 23.68426,0.0442 c -2.32945,0 -3.09657,-0.53659 -3.59262,-2.51299 -0.36174,-1.44131 -0.10442,-3.14712 0.6034,-4 0.67876,-0.81785 2.02391,-1.48701 2.98922,-1.48701 0.96531,0 2.31046,0.66916 2.98922,1.48701 0.70782,0.85288 0.96514,2.55869 0.6034,4 -0.49605,1.9764 -1.26317,2.51299 -3.59262,2.51299 z"
     style="fill:#db241c"/>
</svg>
