<?xml version="1.0" encoding="utf-8"?>
<!DOCTYPE svg PUBLIC "-//W3C//DTD SVG 1.1//EN" "http://www.w3.org/Graphics/SVG/1.1/DTD/svg11.dtd" [
<!ENTITY ns_flows "http://ns.adobe.com/Flows/1.0/">
<!ENTITY ns_svg "http://www.w3.org/2000/svg">
<!ENTITY ns_xlink "http://www.w3.org/1999/xlink">
]>
<svg  version="1.1" xmlns="&ns_svg;" xmlns:xlink="&ns_xlink;" xmlns:a="http://ns.adobe.com/AdobeSVGViewerExtensions/3.0/"
width="251" height="251" viewBox="-0.1240234 -0.1240234 251 251" enable-background="new -0.1240234 -0.1240234 251 251"
xml:space="preserve">
<defs>
</defs>
<path fill-rule="evenodd" clip-rule="evenodd" fill="#ED1C24" d="M125,0c69.0244141,0,125,55.9760742,125,125
c0,69.0244141-55.9755859,125-125,125C55.9760742,250,0,194.0244141,0,125C0,55.9760742,55.9760742,0,125,0L125,0z"/>
<path fill-rule="evenodd" clip-rule="evenodd" fill="#FFFFFF" d="M125,7.9609375
c64.6289063,0,117.0400391,52.4106445,117.0400391,117.0390625c0,64.6289063-52.4111328,117.0400391-117.0400391,117.0400391
C60.371582,242.0400391,7.9609375,189.6289063,7.9609375,125C7.9609375,60.371582,60.371582,7.9609375,125,7.9609375L125,7.9609375z
M124.996582,202.3095703l3.6303711,10.3398438l10.7695313,0.1230469l-8.7138672,6.6425781l3.2128906,10.2773438
l-9.0078125-6.2324219l-8.7866211,6.2324219l3.1420898-10.4912109l-8.6396484-6.4287109l10.9555664-0.2539063
L124.996582,202.3095703L124.996582,202.3095703z M104.8398438,199.8066406
c-0.0810547-0.3623047-0.1264648-3.5917969-0.1513672-4.1083984c-0.137207-3.0087891-0.1020508-8.9873047-0.1020508-11.9257813
c0-3.0078125,0.0356445-4.3642578,0.1723633-5.7636719c0-0.1445313-0.3725586-0.3662109-0.5058594-0.2929688
c-1.5498047,0.6650391-4.3056641,1.6923828-6.9628906,1.8710938c-0.1298828,0.1113281-0.2319336,1.1005859-0.1015625,1.2861328
c0.5024414,0.0732422,1.2827148,0.1855469,1.75,0.2919922c0.5024414,0.1123047,0.8085938,0.6279297,0.840332,1.2509766
c0.1054688,0.9873047,0.1054688,3.5996094,0.1054688,6.5302734c-0.0356445,3.0478516-0.0390625,5.3955078-0.1054688,6.8994141
c-0.0175781,0.4248047-0.0385742,3.6132813-0.1162109,3.9609375H104.8398438L104.8398438,199.8066406z M112.1889648,200.1083984
c8.1435547-2.0976563,12.175293-6.8671875,12.175293-13.5097656c0-4.6259766-2.3554688-8.8828125-7.1953125-8.8828125
c-1.3808594,0-2.8608398,0.4404297-3.8696289,1.0273438c-2.5229492,1.4726563-3.9995117,3.9257813-3.9995117,7.1210938
c0,6.6982422,5.2617188,7.7207031,9.5141602,4.9169922c0.105957-0.0742188,0.1865234,0.0322266,0.1337891,0.1865234
c-1.1879883,3.5527344-2.4145508,5.4267578-7.2612305,7.8554688
C111.5844727,199.1152344,111.9887695,200.0351563,112.1889648,200.1083984L112.1889648,200.1083984z M116.1606445,179.1826172
c2.4882813,0,3.4970703,3.3076172,3.4970703,7.0859375c0,0.734375-0.0703125,1.4296875-0.2705078,2.4951172
c-0.0317383,0.2216797-0.2670898,0.5136719-0.3691406,0.5869141c-0.3691406,0.1835938-0.980957,0.3691406-1.3813477,0.3691406
c-2.0771484,0-4.034668-1.8066406-4.034668-6.0556641C113.6020508,180.6972656,114.8813477,179.1826172,116.1606445,179.1826172
L116.1606445,179.1826172z M135.4599609,177.7158203c-1.6132813,0-3.3916016,0.5175781-4.7099609,1.7265625
c-2.3154297,2.0527344-3.2265625,5.8378906-3.2265625,9.2822266c0,4.0390625,0.6748047,8.0039063,3.2265625,10.0556641
c1.1103516,0.9248047,2.4599609,1.2548828,4.1367188,1.2548828c1.3496094,0,2.7939453-0.4462891,3.8730469-1.2158203
c2.8896484-2.1269531,3.7998047-6.1660156,3.7998047-10.4599609c0-3.7822266-0.8408203-6.5664063-2.1542969-8.2167969
C139.4306641,178.7109375,137.7480469,177.7158203,135.4599609,177.7158203L135.4599609,177.7158203z M134.8867188,179.1474609
c1.8564453,0,2.9628906,3.3779297,2.9628906,9.8769531c0,6.34375-0.6748047,8.3251953-1.3769531,9.0605469
c-0.2041016,0.2207031-0.5732422,0.4423828-1.0410156,0.4423828c-1.7851563,0-3.0615234-3.0859375-3.0615234-10.5371094
c0-4.4736328,0.6367188-7.4472656,1.578125-8.4384766C134.1845703,179.2949219,134.5566406,179.1474609,134.8867188,179.1474609
L134.8867188,179.1474609z M152.8681641,199.8066406c-0.0878906-0.3623047-0.1337891-3.5917969-0.1513672-4.1083984
c-0.1367188-3.0058594-0.1015625-8.9873047-0.1015625-11.9257813c0-3.0078125,0.03125-4.3642578,0.1689453-5.7636719
c0-0.1445313-0.3691406-0.3662109-0.5029297-0.2929688c-1.5507813,0.6650391-4.3085938,1.6923828-6.9628906,1.8710938
c-0.1376953,0.1113281-0.2353516,1.1005859-0.1015625,1.2861328c0.5019531,0.0732422,1.2792969,0.1855469,1.75,0.2919922
c0.5029297,0.1123047,0.8056641,0.6279297,0.8398438,1.2509766c0.1015625,0.9873047,0.1015625,3.5996094,0.1015625,6.5302734
c-0.0341797,3.0478516-0.0410156,5.3955078-0.1015625,6.8994141c-0.0205078,0.4248047-0.0380859,3.6132813-0.1220703,3.9609375
H152.8681641L152.8681641,199.8066406z M134.1240234,16.3325195l3.1845703,2.5732422l3.7675781-1.8422852l-1.4619141,3.8242188
l2.9169922,3.015625l-4.0878906-0.2104492l-1.9677734,3.7075195l-1.0654297-3.9541016l-4.1289063-0.7236328l3.4296875-2.2353516
L134.1240234,16.3325195L134.1240234,16.3325195z M115.8759766,16.3325195l-3.1845703,2.5732422l-3.7675781-1.8422852
l1.4619141,3.8242188l-2.9169922,3.015625l4.0878906-0.2104492l1.9677734,3.7075195l1.0654297-3.9541016l4.1293945-0.7236328
l-3.4301758-2.2353516L115.8759766,16.3325195L115.8759766,16.3325195z M68.5332031,31.5195313l-1.4726563,3.8203125
l-4.1826172,0.2919922l3.1772461,2.5795898l-1.019043,4.0668945l3.4370117-2.2246094l3.5571289,2.2246094l-1.0546875-3.9541016
l3.2124023-2.6923828l-4.0874023-0.2211914L68.5332031,31.5195313L68.5332031,31.5195313z M91.7402344,21.2460938
l-2.4106445,3.3076172l-4.1196289-0.8017578l2.4042969,3.3149414l-2.0351563,3.6655273l3.8945313-1.2617188l2.8574219,3.0717773
l0.003418-4.0947266l3.8027344-1.7680664l-3.890625-1.2719727L91.7402344,21.2460938L91.7402344,21.2460938z
M181.4667969,31.5195313l1.4726563,3.8203125l4.1826172,0.2919922l-3.1767578,2.5795898l1.0195313,4.0668945l-3.4375-2.2246094
l-3.5576172,2.2246094l1.0546875-3.9541016l-3.2128906-2.6923828l4.0878906-0.2211914L181.4667969,31.5195313
L181.4667969,31.5195313z M158.2597656,21.2460938l2.4111328,3.3076172l4.1191406-0.8017578l-2.4042969,3.3149414
l2.0351563,3.6655273l-3.8945313-1.2617188l-2.8574219,3.0717773l-0.0039063-4.0947266l-3.8027344-1.7680664l3.890625-1.2719727
L158.2597656,21.2460938L158.2597656,21.2460938z M63.8266602,87.8706055l1.3920898-1.5498047l-2.4428711-2.4814453
l-2.5761719-0.4355469l-1.5327148,1.465332l-0.3652344-0.0175781c0.2880859,0.309082,0.5942383,0.6044922,0.9208984,0.8823242
c1.4902344,1.2651367,3.2333984,2.0771484,5.0961914,2.456543L63.8266602,87.8706055L63.8266602,87.8706055z
M126.1816406,69.5522461c5.0361328-1.3393555,24.7080078-6.2983398,28.2998047-3.2197266
c4.1259766,3.5361328-4.1259766,14.1503906,8.8427734,12.3828125c11.7255859-1.5991211,47.0400391-12.3442383,53.7333984-14.3999023
c-3.7792969-5.7148438-8.0703125-11.0576172-12.8154297-15.9638672
c-10.1503906,3.2827148-45.4697266,14.3505859-47.9931641,10.3154297
c-2.9492188-4.7167969,1.7714844-10.0239258-2.9492188-12.3823242C149.578125,44.421875,133,48.8085938,126.1816406,50.737793
V69.5522461L126.1816406,69.5522461z M225.8857422,80.472168c2.5302734,5.722168,4.5869141,11.6972656,6.1230469,17.8793945
c-19.5908203,5.5742188-59.578125,16.7753906-69.2714844,18.097168c-12.9726563,1.7709961-4.7167969-8.8432617-8.8466797-12.3789063
c-3.4648438-2.9697266-21.8857422,1.5361328-27.7089844,3.0615234v-18.824707
c7.140625-2.003418,22.9111328-6.0947266,26.5322266-4.284668c4.7167969,2.3583984,0,7.6655273,2.9443359,12.3823242
C158.0976563,100.3022461,208.5058594,85.6601563,225.8857422,80.472168L225.8857422,80.472168z M234.9082031,116.1748047
c0.2285156,2.9130859,0.3515625,5.8554688,0.3515625,8.8251953c0,3.5390625-0.1767578,7.0390625-0.4990234,10.4941406
c-22.7724609,5.7373047-65.0185547,16.234375-74.3818359,17.5136719
c-12.9726563,1.7685547-4.7207031-8.8466797-8.8466797-12.3808594c-3.2333984-2.7734375-18.7783203,0.9697266-25.3505859,2.7197266
v-18.8105469c7.5664063-2.0844727,21.9199219-5.6728516,25.3505859-3.9575195c4.7167969,2.3583984,0,7.6655273,2.9492188,12.3823242
C157.0722656,137.1054688,219.7207031,120.3183594,234.9082031,116.1748047L234.9082031,116.1748047z M232.1035156,153.6445313
C219.4716797,200.9736328,176.3046875,235.8505859,125,235.8505859c-40.4399414,0-75.8222656-21.671875-95.1850586-54.0283203
c30.6938477-7.1699219,119.1801758-27.5097656,121.1274414-24.0976563
c2.3574219,4.1259766-1.7685547,11.2021484,4.1298828,14.1513672
C159.0927734,173.8857422,203.9609375,161.6376953,232.1035156,153.6445313L232.1035156,153.6445313z M62.8110352,159.1201172
c0,0-5.2475586,4.8652344-5.1171875,0.7666016c0.1264648-4.0947266,0-25.4746094,0-25.4746094
s-3.3320313-3.328125,2.175293-3.9677734c5.5043945-0.6435547,5.1210938,1.7890625,5.1210938,1.7890625l13.4399414,13.9570313
v-15.6201172c0,0-4.480957-2.0488281-1.2792969-2.9453125c3.2021484-0.8964844,4.3515625-1.2792969,5.6342773-1.5361328
c1.2792969-0.2563477-0.7695313,3.3291016-0.7695313,3.3291016v24.4511719c0,0-2.0493164,3.2021484-5.1210938-0.3828125
c-3.0722656-3.5849609-14.4667969-15.8759766-14.4667969-15.8759766v19.2041016
C62.4277344,156.8144531,63.9638672,157.9677734,62.8110352,159.1201172L62.8110352,159.1201172z M114.6845703,91.4804688
l0.6640625-5.5214844c-12.0869141-3.0615234-22.574707,5.8164063-22.8984375,18.4448242
c-0.4106445,16.0551758,20.0375977,15.6015625,23.5595703,6.0771484c0.6079102-1.434082-1.7646484-2.7099609-2.7070313-1.0512695
c-2.2880859,3.8486328-15.6962891,10.8256836-14.7436523-7.5634766
C99.5112305,83.4736328,115.5664063,87.2836914,114.6845703,91.4804688L114.6845703,91.4804688z M42.7495117,107.6972656
l0.6635742-5.5253906c-12.0869141-3.0576172-22.5742188,5.8203125-22.8979492,18.4453125
c-0.4077148,16.0576172,20.0410156,15.6054688,23.559082,6.0761719c0.6079102-1.4331055-1.7646484-2.7055664-2.706543-1.046875
c-2.2841797,3.8457031-15.6962891,10.8212891-14.7436523-7.5668945
C27.5761719,99.6870117,43.6347656,103.5004883,42.7495117,107.6972656L42.7495117,107.6972656z M32.7255859,147.4482422
c-3.4833984,4.2451172,0.3476563,6.2207031,0.3583984,6.2275391l0.0419922,0.0214844
c2.3833008,1.0898438,3.8452148-0.9140625,4.0136719-1.1591797l33.5058594-40.2612305l32.637207,25.5014648
c0.2177734,0.2011719,2.0561523,1.8242188,4.1298828,0.2646484l0.0351563-0.0253906
c0.0068359-0.0097656,3.2929688-2.7333984-0.9770508-6.0966797c-2.0913086-1.6484375-18.800293-14.5371094-31.7587891-24.5297852
l12.3930664-14.8950195c6.6147461-3.3076172,9.9848633-6.8081055,9.9956055-6.8149414l0.0317383-0.0385742l11.7285156-13.7075195
c1.3178711-1.5463867,1.4545898-2.9067383,0.8325195-4.2211914c-0.5620117-1.1914063-1.7714844-2.2705078-3.2719727-3.4018555
c-1.722168-1.2973633-3.1982422-2.1054688-4.597168-2.2041016c-1.4833984-0.1054688-2.7978516,0.5449219-4.0947266,2.1860352
L88.081543,76.2900391c-3.0927734,3.9082031-5.1625977,10.7299805-5.46875,11.7705078
c-0.6328125,0.7553711-5.9853516,7.1176758-12.9692383,15.4223633l-10.3012695-7.9428711
c-0.5170898-0.9423828-3.9682617-7.0961914-7.7851563-10.2172852l-9.7397461-7.9677734
c-1.6025391-1.3076172-3.0083008-1.6591797-4.4174805-1.2441406c-1.3325195,0.3930664-2.590332,1.4863281-3.9785156,3.1069336
c-1.2089844,1.4125977-2.1508789,2.7128906-2.4428711,3.9853516c-0.3232422,1.4023438,0.0986328,2.6884766,1.7011719,3.9013672
l12.1079102,9.1801758l0.0419922,0.0283203c0.0107422,0.0068359,4.0141602,2.6748047,11.1069336,4.4707031l9.644043,7.5317383
C51.7856445,124.7260742,34.4018555,145.4072266,32.7255859,147.4482422L32.7255859,147.4482422z M106.6113281,137.0244141
c0.0561523-0.0498047,0.2988281-0.2744141,0.4814453-0.6396484L34.3564453,80.1245117
c-1.0654297,1.2441406-1.8842773,2.3686523-2.112793,3.3666992c-0.2036133,0.8862305,0.1020508,1.7329102,1.2163086,2.5766602
l12.1010742,9.1728516c0.3652344,0.2358398,4.1962891,2.6577148,10.8217773,4.3129883l0.1298828,0.0351563L56.625,99.6728516
l47.4980469,37.1152344l0.0454102,0.0351563l0.0141602,0.0136719
C104.1860352,136.8408203,105.3178711,137.9726563,106.6113281,137.0244141L106.6113281,137.0244141z M69.6123047,111.4682617
l-1.5400391-1.2016602l-34.9921875,41.71875c0.2568359,0.3242188,0.5449219,0.4921875,0.6118164,0.53125
c1.4833984,0.6533203,2.3549805-0.7070313,2.3583984-0.7109375l0.0102539-0.0175781l0.0390625-0.0449219L69.6123047,111.4682617
L69.6123047,111.4682617z M72.1425781,105.4125977l1.5322266,1.1772461L86.1875,91.550293l0.0913086-0.1083984l0.1225586-0.0600586
c6.1791992-3.0717773,9.4370117-6.2910156,9.7431641-6.6040039l11.7211914-13.6967773
c0.9174805-1.0751953,1.0371094-1.9750977,0.6430664-2.8046875c-0.4423828-0.9384766-1.4936523-1.8696289-2.8149414-2.8681641
L72.1425781,105.4125977L72.1425781,105.4125977z M56.6777344,84.7109375
c-0.0527344-0.0698242-0.1020508-0.140625-0.1542969-0.2104492l-0.0634766-0.0883789
c-0.0458984-0.0668945-0.0913086-0.1298828-0.137207-0.1967773l-0.0805664-0.1225586l-0.1162109-0.1796875l-0.0805664-0.1298828
l-0.1088867-0.1757813l-0.0703125-0.1230469l-0.1264648-0.2211914l-0.0424805-0.0737305
c-0.0419922-0.0849609-0.0878906-0.1689453-0.1298828-0.253418l-0.0419922-0.0805664l-0.1054688-0.2075195L55.3354492,82.46875
l-0.0561523-0.1269531c-0.0317383-0.0664063-0.0600586-0.1298828-0.0878906-0.1967773l0,0l-0.0527344-0.1191406
c-0.0317383-0.0771484-0.0634766-0.1582031-0.0952148-0.2353516l-0.0493164-0.1196289
c-0.03125-0.0805664-0.0595703-0.1582031-0.0878906-0.2392578l-0.003418-0.003418l-0.0419922-0.1191406l-0.0771484-0.2216797
l-0.0175781-0.0527344c-0.2670898-0.8046875-0.4643555-1.6450195-0.5874023-2.5058594l-0.0170898-0.1333008l-0.0317383-0.25
l-0.0039063-0.03125c-0.03125-0.2568359-0.0556641-0.5097656-0.0732422-0.7666016v-0.0244141
c-0.0073242-0.0844727-0.0107422-0.1650391-0.0146484-0.2495117v-0.0073242l0,0
c-0.1826172-3.6337891,0.840332-7.5668945,3.0581055-11.1201172l0.0249023-0.0385742
c0.2177734-0.3447266,0.4458008-0.6855469,0.6850586-1.0229492l0,0l0.0283203-0.0385742l0.0244141-0.0385742l0.0283203-0.0356445
l0.0419922-0.0595703l0.0844727-0.1162109l0.027832-0.0385742l0.0141602-0.0170898l0.140625-0.1899414l0.1020508-0.137207
l0.027832-0.0351563c0.0566406-0.0742188,0.1162109-0.1474609,0.1723633-0.2182617v-0.0029297l0.0317383-0.0356445
l0.0170898-0.0244141c0.0776367-0.0981445,0.1586914-0.2006836,0.2431641-0.2988281l0.03125-0.0419922
c0.0703125-0.0844727,0.144043-0.168457,0.2143555-0.2495117l0.0703125-0.0844727l0.0703125-0.0805664
c0.0776367-0.0878906,0.1547852-0.1757813,0.2358398-0.2641602l0.0102539-0.0102539l0.0458984-0.0527344
c0.0878906-0.0947266,0.171875-0.1860352,0.2563477-0.2773438l0.003418-0.0039063l0.0351563-0.0385742
c0.0878906-0.0913086,0.1757813-0.1826172,0.2641602-0.2739258l0.0454102-0.0458984
c0.0913086-0.0913086,0.1791992-0.1791992,0.2705078-0.2709961l0.0141602-0.0136719l0.0102539-0.0068359l0.0107422-0.0141602
c0.0913086-0.0844727,0.1791992-0.1723633,0.2705078-0.2568359l0.0737305-0.0703125
c0.0844727-0.0771484,0.1655273-0.1542969,0.2495117-0.2319336l0.0668945-0.0561523
c0.0810547-0.0737305,0.1655273-0.1474609,0.2495117-0.2211914l0.0952148-0.0810547l0.0771484-0.0703125h0.003418
l0.1196289-0.1020508l0.1933594-0.1582031l0.144043-0.1191406l0.2075195-0.1616211l0.137207-0.105957l0.1577148-0.1225586
l0.1547852-0.1162109c0.0917969-0.0664063,0.1831055-0.1333008,0.2744141-0.1967773l0,0
c0.1015625-0.0737305,0.2036133-0.1474609,0.309082-0.2177734l0.0664063-0.0458984
c0.2075195-0.140625,0.421875-0.2807617,0.6333008-0.4145508l0.003418-0.003418
c3.7182617-2.3300781,7.8901367-3.2407227,11.6230469-2.5585938l0,0h0.0068359
c0.4672852,0.0878906,0.9243164,0.1962891,1.3745117,0.3300781l0.0068359,0.003418
c1.3779297,0.4116211,2.6713867,1.0581055,3.8378906,1.9472656l0.0039063,0.003418l0.0141602,0.0107422l0.03125,0.0244141
l0.0102539,0.0073242l0.0141602,0.0136719h0.003418l0.0107422,0.0068359l0.003418,0.0039063l0.0141602,0.0107422l0.0039063,0.003418
l0.0205078,0.0175781l0.0634766,0.0454102l0.0039063,0.0039063l0.0351563,0.03125l0.0102539,0.0073242l0.0209961,0.0175781
c0.0561523,0.0454102,0.112793,0.0908203,0.1689453,0.1367188l0.0102539,0.0073242l0.0068359,0.0107422l0.0107422,0.0068359
l0.0107422,0.0068359l0.027832,0.0249023l0.0385742,0.03125l0.0175781,0.0141602v0.0039063l0.0141602,0.0102539l0.0107422,0.0107422
l0.1298828,0.1123047l0.1298828,0.1191406l0.0107422,0.0107422l0.003418,0.0039063l0.0180664,0.0141602v0.003418
l0.0102539,0.0102539l0.0141602,0.0102539l0.0102539,0.0107422c0.1020508,0.0952148,0.2041016,0.1933594,0.3022461,0.2919922l0,0
c5.3564453,5.3564453,4.9736328,15.1552734-1.0473633,22.409668c-1.746582,2.1049805-3.7851563,3.7709961-5.9433594,4.9731445
l-0.0068359,0.003418h-0.003418l-0.0107422,0.0068359l-0.0068359,0.0039063l-0.0073242,0.003418l-0.0776367,0.0424805
l-0.0068359,0.003418l0,0l-0.0102539,0.0068359l-0.0068359,0.003418l-0.0073242,0.003418
c-0.0878906,0.0493164-0.175293,0.0947266-0.2636719,0.140625l-0.0068359,0.0039063
c-5.5073242,2.8886719-11.7495117,2.769043-16.0341797-0.8754883C57.8027344,86.046875,57.2016602,85.4072266,56.6777344,84.7109375
L56.6777344,84.7109375z M55.0854492,74.9404297l0.0458984-0.0913086l1.7573242,0.9907227l2.875-3.3071289l-0.3583984-4.175293
l-2.5058594,0.5092773l0.0454102-0.703125C55.8588867,70.378418,55.2373047,72.6943359,55.0854492,74.9404297L55.0854492,74.9404297
z M65.7495117,59.1767578c0.0175781,0.0317383,0.0175781,0.0703125-0.0073242,0.1162109l-0.1962891,2.3964844l3.8833008,0.7875977
l3.4692383-2.4848633l-0.6679688-2.4956055l0.2602539-0.0732422C70.2548828,57.472168,67.9423828,58.0698242,65.7495117,59.1767578
L65.7495117,59.1767578z M82.605957,62.5581055l0.2353516,0.9208984l-2.6855469,0.4951172l-0.1894531,4.84375l1.887207,1.2792969
l2.0209961-1.5361328l0.7768555,1.1489258C84.6264648,67.0917969,83.9482422,64.6142578,82.605957,62.5581055L82.605957,62.5581055z
M81.8886719,79.2773438L80.1875,80.2329102l-0.5273438-1.4301758l-3.1523438,0.8012695l-2.3657227,4.7978516l1.6240234,0.6181641
l-0.2988281,0.8125c1.6977539-1.0688477,3.293457-2.4536133,4.6884766-4.1337891
C80.8027344,80.918457,81.3789063,80.1069336,81.8886719,79.2773438L81.8886719,79.2773438z M66.3852539,85.6352539
c1.269043-0.0209961,3.6835938-0.2177734,6.3022461-1.2192383l2.5693359-5.2197266l-3.1811523-1.8974609l-4.7128906,1.6870117
l-3.3706055,4.2241211L66.3852539,85.6352539L66.3852539,85.6352539z M72.6625977,76.1210938l3.4301758,2.0493164
l-0.1191406,0.2104492l3.6376953-0.9243164c0.5375977-0.7592773,1.6132813-2.6884766,1.7431641-6.1118164l-2.4106445-1.6308594
l-0.1196289-0.0810547l-4.2705078,1.578125L72.6625977,76.1210938L72.6625977,76.1210938z M74.0864258,69.980957
l4.6040039-1.6977539l0.1860352-4.7695313c-2.0839844-1.5463867-4.0698242-2.2597656-5.074707-2.5512695l-3.574707,2.5585938
v4.6181641L74.0864258,69.980957L74.0864258,69.980957z M68.9267578,68.7436523v-5.0224609l-3.6240234-0.734375
c-0.6113281,0.4428711-3.0224609,2.2495117-4.6845703,4.2524414l0.3896484,4.5800781l3.7504883,0.3476563L68.9267578,68.7436523
L68.9267578,68.7436523z M60.9692383,73.137207l-0.0493164,0.0527344l-3.1137695,3.5844727
c0.0703125,0.9321289,0.3974609,3.2094727,1.8276367,5.1987305l3.2651367,0.5517578l-0.0175781-0.0141602l3.6694336-4.6005859
l-2.6640625-4.5024414L60.9692383,73.137207L60.9692383,73.137207z"/>
</svg>
