<?xml version="1.0" encoding="UTF-8" standalone="no"?>
<!-- Created with Inkscape (http://www.inkscape.org/) -->

<svg
   xmlns:dc="http://purl.org/dc/elements/1.1/"
   xmlns:cc="http://creativecommons.org/ns#"
   xmlns:rdf="http://www.w3.org/1999/02/22-rdf-syntax-ns#"
   xmlns:svg="http://www.w3.org/2000/svg"
   xmlns="http://www.w3.org/2000/svg"
   xmlns:sodipodi="http://sodipodi.sourceforge.net/DTD/sodipodi-0.dtd"
   xmlns:inkscape="http://www.inkscape.org/namespaces/inkscape"
   width="167.71986"
   height="168.5625"
   id="svg2"
   version="1.1"
   inkscape:version="0.48.4 r9939"
   sodipodi:docname="Oeste.svg"
   inkscape:export-filename="C:\Users\StryfeUAC\Desktop\Pablo\Vestores\Oeste.png"
   inkscape:export-xdpi="268.30453"
   inkscape:export-ydpi="268.30453">
  <defs
     id="defs4">
    <inkscape:perspective
       sodipodi:type="inkscape:persp3d"
       inkscape:vp_x="0 : 100 : 1"
       inkscape:vp_y="0 : 1000 : 0"
       inkscape:vp_z="200 : 100 : 1"
       inkscape:persp3d-origin="100 : 66.666667 : 1"
       id="perspective4238" />
  </defs>
  <sodipodi:namedview
     id="base"
     pagecolor="#ffffff"
     bordercolor="#666666"
     borderopacity="1.0"
     inkscape:pageopacity="0.0"
     inkscape:pageshadow="2"
     inkscape:zoom="1"
     inkscape:cx="188.58011"
     inkscape:cy="115.83549"
     inkscape:document-units="px"
     inkscape:current-layer="layer2"
     showgrid="false"
     fit-margin-top="0"
     fit-margin-left="0"
     fit-margin-right="0"
     fit-margin-bottom="0"
     inkscape:window-width="1366"
     inkscape:window-height="705"
     inkscape:window-x="-4"
     inkscape:window-y="-4"
     inkscape:window-maximized="1" />
  <metadata
     id="metadata7">
    <rdf:RDF>
      <cc:Work
         rdf:about="">
        <dc:format>image/svg+xml</dc:format>
        <dc:type
           rdf:resource="http://purl.org/dc/dcmitype/StillImage" />
        <dc:title></dc:title>
      </cc:Work>
    </rdf:RDF>
  </metadata>
  <g
     inkscape:groupmode="layer"
     id="layer2"
     inkscape:label="Forma"
     style="display:inline"
     transform="translate(-15.78067,-14.78125)">
    <g
       id="g4262">
      <path
         inkscape:connector-curvature="0"
         id="path3959-7-1"
         d="M 16.96875,14.78125 16.5,18.6875 l -0.25,2.125 c 0,0 -4.797002,42.502101 16.28125,89.4375 21.332345,47.50119 63.78125,71.25 63.78125,71.25 l 0.03125,0 1.1875,0.65625 2.125,1.1875 2.125,-1.1875 1.1875,-0.65625 0.0312,0 c 0,0 42.41868,-23.75111 63.75,-71.25 C 187.8282,63.314603 183.0312,20.8125 183.0312,20.8125 l -0.25,-2.125 -0.46875,-3.90625 -3.90625,0 -2.125,0 -153.28125,0 -2.125,0 -3.90625,0 z"
         style="font-size:medium;font-style:normal;font-variant:normal;font-weight:normal;font-stretch:normal;text-indent:0;text-align:start;text-decoration:none;line-height:normal;letter-spacing:normal;word-spacing:normal;text-transform:none;direction:ltr;block-progression:tb;writing-mode:lr-tb;text-anchor:start;baseline-shift:baseline;color:#000000;fill:#000000;fill-opacity:1;fill-rule:nonzero;stroke:none;stroke-width:0;marker:none;visibility:visible;display:inline;overflow:visible;enable-background:accumulate;font-family:Sans;-inkscape-font-specification:Sans" />
      <path
         sodipodi:nodetypes="ccsccccccccccccsccsccccccc"
         inkscape:connector-curvature="0"
         id="path3959-3"
         d="m 23,21.59375 c 0,0 -0.113385,1.227346 -0.21875,2.96875 -0.141793,1.465684 -1.12454,12.579303 0.375,26.5 0.631333,5.860857 1.75653,11.500188 2.90625,16.25 0.778774,4.008627 1.697145,8.161402 2.84375,12.46875 l 0.75,0 52.5,0 88.21875,-2.5e-4 c 1.75114,-6.57834 3.03179,-12.856847 3.96875,-18.68725 l -92.1875,0 0,-18.71875 94.25,0 c 0.75558,-12.804991 -0.125,-20.78125 -0.125,-20.78125 z M 34.96875,98.5 c 1.1416,2.9655 2.395344,5.95231 3.75,8.96875 1.49712,3.33367 3.118324,6.53406 4.8125,9.625 l 112.21875,0 c 1.69387,-3.09094 3.31538,-6.29133 4.8125,-9.625 1.35466,-3.01644 2.6084,-6.00325 3.75,-8.96875 z M 55.75,135.8125 c 5.517765,7.19824 11.302572,13.43719 16.78125,18.6875 l 54.25,0 c 5.47438,-5.2495 11.23586,-11.49103 16.75,-18.6875 z"
         style="fill:#ff0016;fill-opacity:1;stroke:none;display:inline" />
      <path
         sodipodi:nodetypes="cccccccsccccccsccccccccccsccccccccsccccccsccccccsccscccccccsccccccsccccccscccccccsccccccscccccsccccccccsccccccccccccccsccscccscccccccsccc"
         inkscape:connector-curvature="0"
         id="path2999"
         d="m 32.75,28.59375 0,3.59375 6.75,0 0,2.25 -3.875,0 -0.03125,0 -0.03125,0 c 0,0 -1.089679,0.05907 -2.125,0.71875 -1.035321,0.659675 -2.077799,2.054872 -2.28125,4.03125 l 0,0.09375 0,0.09375 0,26.21875 0,0.09375 0,0.09375 c 0.203451,1.976378 1.245929,3.371575 2.28125,4.03125 1.035321,0.65968 2.125,0.71875 2.125,0.71875 l 0.03125,0 0.03125,0 3.875,0 0,3.3125 3.59375,0 0,-3.3125 2.59375,0 0.03125,0 0.03125,0 c 0,0 1.089679,-0.05907 2.125,-0.71875 1.035321,-0.659675 2.077799,-2.054872 2.28125,-4.03125 l 0,-0.09375 0,-0.09375 0,-11.71875 1.34375,0 0,11.71875 0,0.09375 0,0.09375 c 0.203451,1.976378 1.245929,3.371575 2.28125,4.03125 1.035321,0.65968 2.125,0.71875 2.125,0.71875 l 0.03125,0 0.03125,0 c 4.739583,0 9.479167,0 14.21875,0 l 0.03125,0 0.03125,0 c 0,0 1.089679,-0.05907 2.125,-0.71875 1.035321,-0.659675 2.077799,-2.054872 2.28125,-4.03125 l 0,-0.09375 0,-0.09375 0,-6.5625 -3.59375,0 0,6.375 c -0.109049,1.059332 -0.399161,1.231102 -0.625,1.375 -0.22584,0.1439 -0.3125,0.125 -0.3125,0.125 -4.697917,0 -9.395833,0 -14.09375,0 0,0 -0.08666,0.0189 -0.3125,-0.125 -0.225839,-0.143898 -0.515951,-0.315668 -0.625,-1.375 l 0,-11.53125 4.6875,0 0,-1.8125 0,-1.78125 -4.6875,0 0,-10.71875 c 0.109049,-1.059332 0.399161,-1.231102 0.625,-1.375 0.225839,-0.143898 0.3125,-0.125 0.3125,-0.125 l 6.75,0 0,2.03125 3.625,0 0,-2.03125 3.71875,0 c 0,0 0.08666,-0.0189 0.3125,0.125 0.225839,0.143898 0.515951,0.315668 0.625,1.375 l 0,6.4375 3.59375,0 0,-6.625 0,-0.09375 0,-0.09375 C 74.452799,37.211122 73.410321,35.815925 72.375,35.15625 71.339679,34.49657 70.25,34.4375 70.25,34.4375 l -0.03125,0 -0.03125,0 -3.78125,0 0,-1.375 0,-0.03125 0,-0.03125 c 0,0 -0.05907,-1.089679 -0.71875,-2.125 -0.659675,-1.035321 -2.054872,-2.077799 -4.03125,-2.28125 l -0.09375,0 -0.09375,0 z m 10.34375,3.59375 18.1875,0 c 1.059332,0.109049 1.231102,0.399161 1.375,0.625 0.1439,0.22584 0.125,0.3125 0.125,0.3125 l 0,1.3125 -6.8125,0 -0.03125,0 -0.03125,0 c 0,0 -1.089679,0.05907 -2.125,0.71875 -1.035321,0.659675 -2.077799,2.054872 -2.28125,4.03125 l 0,0.09375 0,0.09375 0,10.90625 -1.34375,0 0,-10.90625 0,-0.09375 0,-0.09375 C 49.952799,37.211122 48.910321,35.815925 47.875,35.15625 46.839679,34.49657 45.75,34.4375 45.75,34.4375 l -0.03125,0 -0.03125,0 -2.59375,0 z m -7.46875,5.875 c 0.04989,-0.01326 0.0625,0 0.0625,0 l 3.8125,0 0,12.21875 -2.4375,0 0,3.59375 2.4375,0 0,13.03125 -3.8125,0 c 0,0 -0.08666,0.0189 -0.3125,-0.125 -0.225839,-0.143898 -0.515951,-0.315668 -0.625,-1.375 l 0,-25.84375 c 0.109049,-1.059332 0.399161,-1.231102 0.625,-1.375 0.11292,-0.07195 0.200105,-0.111737 0.25,-0.125 z m 7.46875,0 2.53125,0 c 0,0 0.08666,-0.0189 0.3125,0.125 0.225839,0.143898 0.515951,0.315668 0.625,1.375 l 0,10.71875 -3.46875,0 z m 0,15.8125 3.46875,0 0,11.53125 c -0.109049,1.059332 -0.399161,1.231102 -0.625,1.375 -0.22584,0.1439 -0.3125,0.125 -0.3125,0.125 l -2.53125,0 z"
         style="font-size:medium;font-style:normal;font-variant:normal;font-weight:normal;font-stretch:normal;text-indent:0;text-align:start;text-decoration:none;line-height:normal;letter-spacing:normal;word-spacing:normal;text-transform:none;direction:ltr;block-progression:tb;writing-mode:lr-tb;text-anchor:start;baseline-shift:baseline;color:#000000;fill:#ffffff;fill-opacity:1;stroke:none;stroke-width:3.5999999;marker:none;visibility:visible;display:inline;overflow:visible;enable-background:accumulate;font-family:Sans;-inkscape-font-specification:Sans" />
      <path
         inkscape:connector-curvature="0"
         id="path3959-7"
         d="m 20.875,19.1875 -0.25,2.125 c 0,0 -4.665058,41.318424 15.90625,87.125 20.661749,46.00796 61.9375,69.21875 61.9375,69.21875 l 1.1875,0.65625 1.1875,-0.65625 c 0,0 41.24486,-23.2116 61.90625,-69.21875 20.57131,-45.806574 15.90625,-87.125 15.90625,-87.125 l -0.25,-2.125 -2.125,0 -153.28125,0 -2.125,0 z M 25.28125,24 l 54.375,0 0,53.28125 -49,0 C 23.470441,49.462123 24.916551,28.153492 25.28125,24 z m 56.875,0 L 174,24 c 0.48466,5.519719 2.84569,41.33967 -15.625,82.46875 -19.03222,42.37945 -55.39833,64.30726 -58.71875,66.25 -3.322865,-1.94277 -39.718126,-23.87132 -58.75,-66.25 -4.15879,-9.260468 -7.256652,-18.250586 -9.5625,-26.6875 l 48.3125,0 0.9375,0 1.5625,0 0,-55.78125 z"
         style="font-size:medium;font-style:normal;font-variant:normal;font-weight:normal;font-stretch:normal;text-indent:0;text-align:start;text-decoration:none;line-height:normal;letter-spacing:normal;word-spacing:normal;text-transform:none;direction:ltr;block-progression:tb;writing-mode:lr-tb;text-anchor:start;baseline-shift:baseline;color:#000000;fill:#ffffff;fill-opacity:1;stroke:none;stroke-width:4.80000019;marker:none;visibility:visible;display:inline;overflow:visible;enable-background:accumulate;font-family:Sans;-inkscape-font-specification:Sans" />
    </g>
  </g>
</svg>
