<?xml version="1.0" encoding="iso-8859-1"?><!-- Generator: Adobe Illustrator 16.0.0, SVG Export Plug-In . SVG Version: 6.00 Build 0) --><!DOCTYPE svg PUBLIC "-//W3C//DTD SVG 1.1//EN" "http://www.w3.org/Graphics/SVG/1.1/DTD/svg11.dtd"><svg version="1.1" id="Layer_1" xmlns="http://www.w3.org/2000/svg" xmlns:xlink="http://www.w3.org/1999/xlink" x="0px" y="0px" width="192.756px" height="192.756px" viewBox="0 0 192.756 192.756" style="enable-background:new 0 0 192.756 192.756;" xml:space="preserve"><g><polygon style="fill-rule:evenodd;clip-rule:evenodd;fill:#FFFFFF;" points="0,0 192.756,0 192.756,192.756 0,192.756 0,0	"/><path style="fill-rule:evenodd;clip-rule:evenodd;" d="M87.981,11.849C69.988,31.372,49.189,42.926,26.163,46.191l-9.128,1.294	l-0.648,9.197c-1.055,14.964,0.856,30.876,5.528,46.017l0.076,0.258c11.256,36.461,36.484,67.148,69.214,84.184l5.355,2.781	l5.346-2.775c32.742-17.043,57.971-47.73,69.227-84.197l0.098-0.316l0.008-0.068c4.41-14.938,6.178-30.804,5.111-45.884	l-0.65-9.195l-9.125-1.294c-22.953-3.256-43.197-14.515-61.893-34.42L96.29,2.834L87.981,11.849L87.981,11.849z"/><path style="fill-rule:evenodd;clip-rule:evenodd;fill:#FFFFFF;" d="M91.207,14.823c-18.697,20.285-40.374,32.3-64.429,35.712	l-5.617,0.797l-0.399,5.659c-1.017,14.429,0.832,29.787,5.345,44.414l0.075,0.256c10.914,35.352,35.353,65.092,67.049,81.59	l3.33,1.729l3.325-1.727c31.705-16.502,56.145-46.242,67.057-81.596l0.088-0.291l0.002-0.043c4.264-14.44,5.973-29.77,4.941-44.333	l-0.398-5.657l-5.617-0.797c-23.979-3.401-45.068-15.099-64.473-35.76l-5.165-5.5L91.207,14.823L91.207,14.823z"/><path style="fill-rule:evenodd;clip-rule:evenodd;" d="M160.049,99.336H32.81l0.077,0.25	c10.365,33.574,33.541,61.799,63.584,77.438l0.089,0.047l0.089-0.047c30.048-15.641,53.222-43.865,63.585-77.438l0.076-0.25	H160.049L160.049,99.336z"/><path style="fill-rule:evenodd;clip-rule:evenodd;fill:#CD3529;" d="M160.236,99.555c4.17-14.024,5.688-28.617,4.736-42.071	c-25.393-3.601-48.137-16.109-68.605-37.904C76.28,41.375,53.158,53.883,27.764,57.484c-0.949,13.454,0.758,28.047,5.115,42.071	H160.236L160.236,99.555z"/><path style="fill-rule:evenodd;clip-rule:evenodd;fill:#FFFFFF;" d="M46.725,62.221l14.593-7.58	c-0.19,4.547,0.378,10.043,2.463,14.402l14.214,30.703v17.248L56.768,72.835C54.683,68.666,50.323,65.633,46.725,62.221	L46.725,62.221z"/><path style="fill-rule:evenodd;clip-rule:evenodd;fill:#FFFFFF;" d="M147.547,63.548l-14.596-7.58	c0.191,4.547-0.564,10.042-2.461,14.402l-22.744,51.358l8.908-1.326l20.848-46.241C139.398,69.993,143.949,66.959,147.547,63.548	L147.547,63.548z"/><path style="fill-rule:evenodd;clip-rule:evenodd;fill:#FFFFFF;" d="M76.668,149.207h13.076v-45.102h13.644	c2.846,0,4.547,3.598,6.635,5.496l0.189-18.575c-2.277,1.707-3.793,4.928-6.635,4.928H89.935l-0.19-18.382l-8.719,2.653v61.595	C81.025,144.662,78.182,146.744,76.668,149.207L76.668,149.207z"/><path style="fill-rule:evenodd;clip-rule:evenodd;fill:#FFFFFF;" d="M81.215,66.391V53.883c0-2.843-2.652-4.927-4.359-7.203h40.56	v12.508c-3.223-2.084-5.877-5.874-9.48-5.874H89.935v11.369L81.215,66.391L81.215,66.391z"/><path style="fill-rule:evenodd;clip-rule:evenodd;fill:#FFFFFF;" d="M108.887,149.396h13.455v-12.508	c-0.57,0.572-0.947,5.688-10.803,5.688L108.887,149.396L108.887,149.396z"/><polygon style="fill-rule:evenodd;clip-rule:evenodd;fill:#FFFFFF;" points="92.775,137.65 92.775,149.969 99.219,162.666	111.73,134.428 103.957,134.617 98.273,149.021 92.775,137.65	"/><path style="fill-rule:evenodd;clip-rule:evenodd;fill:#FFFFFF;" d="M77.995,120.402c-10.423-4.551-20.088-12.127-26.913-20.848	c2.085-4.359,6.254-8.715,9.855-10.8l-4.169-7.58c-5.116,3.789-10.614,7.958-13.077,13.644c-0.948,2.084-2.653,3.602-4.359,4.736	c1.707,0.949,2.843,0.76,4.549,3.225c8.339,11.938,21.035,21.227,34.113,25.961C77.995,125.518,77.995,123.625,77.995,120.402	L77.995,120.402z"/><path style="fill-rule:evenodd;clip-rule:evenodd;fill:#FFFFFF;" d="M68.708,73.403l3.792,7.39	c17.435-7.771,34.491-7.958,50.221-2.085l3.033-6.632C108.697,64.684,87.85,65.252,68.708,73.403L68.708,73.403z"/><path style="fill-rule:evenodd;clip-rule:evenodd;fill:#FFFFFF;" d="M138.447,78.519l-2.838,6.635l5.307,2.653	c1.516,0.568,2.082,2.652,3.033,3.979l4.734-10.423c-1.707,0-3.6,0.758-5.115,0L138.447,78.519L138.447,78.519z"/><path style="fill-rule:evenodd;clip-rule:evenodd;fill:#FFFFFF;" d="M92.587,123.246v7.201c19.143,4.17,37.147-1.516,53.825-11.371	l-4.932-7.393C129.734,121.729,109.643,126.658,92.587,123.246L92.587,123.246z"/></g></svg>