<?xml version="1.0" encoding="utf-8"?>
<!-- Generator: Adobe Illustrator 19.1.0, SVG Export Plug-In . SVG Version: 6.00 Build 0)  -->
<svg version="1.1" id="Layer_1" xmlns="http://www.w3.org/2000/svg" xmlns:xlink="http://www.w3.org/1999/xlink" x="0px" y="0px"
	 viewBox="-417.8 603 156.9 191.1" enable-background="new -417.8 603 156.9 191.1" xml:space="preserve">
<g>
	<path fill="#FFFFFF" d="M-339.6,792.1c-85.5-52-76.1-155.3-76.1-155.3c58,0.7,76.1-31.8,76.1-31.8h0c0,0,18.1,32.5,76.1,31.8
		C-263.5,636.8-254.1,740.1-339.6,792.1L-339.6,792.1L-339.6,792.1z"/>
	<path fill="#FFFFFF" d="M-339.6,792.1c-85.5-52-76.1-155.3-76.1-155.3c58,0.7,76.1-31.8,76.1-31.8h0c0,0,18.1,32.5,76.1,31.8
		C-263.5,636.8-254.1,740.1-339.6,792.1L-339.6,792.1L-339.6,792.1z"/>
	<path fill="none" stroke="#000000" stroke-width="1.0001" stroke-linejoin="round" stroke-miterlimit="2.6131" d="M-339.6,781.8
		C-339.6,781.8-339.6,781.8-339.6,781.8C-339.6,781.8-339.6,781.8-339.6,781.8 M-339.6,781.8L-339.6,781.8"/>
	<path stroke="#000000" stroke-width="1.0001" stroke-miterlimit="2.6131" d="M-271.9,643.6c-51.5,0.6-67.7-28.2-67.7-28.3
		c-0.1,0.1-16.2,28.9-67.7,28.3c0,0-1.3,14,1.7,33.8c76.2,0,113.6,0,132.1,0C-270.6,657.6-271.9,643.6-271.9,643.6L-271.9,643.6z"/>
	<path stroke="#000000" stroke-width="1.0001" stroke-miterlimit="2.6131" d="M-350,681.7c0,48.1,0,76.4,0,93.1
		c3.3,2.4,6.7,4.8,10.4,7c3.7-2.3,7.3-4.7,10.6-7.2c0-16.7,0-45,0-92.9C-335.4,681.7-342.4,681.7-350,681.7L-350,681.7z"/>
	<path stroke="#000000" stroke-width="1.0001" stroke-miterlimit="2.6131" d="M-377.5,681.7c0,28.1,0,49.5,0,65.7
		c5.8,7.8,12.8,15.3,21,22.2c0-17.2,0-44.5,0-88C-363.1,681.7-370.1,681.7-377.5,681.7L-377.5,681.7z"/>
	<path stroke="#000000" stroke-width="1.0001" stroke-miterlimit="2.6131" d="M-404.9,681.7c2.9,16.7,8.9,36.9,20.9,56.1
		c0-14.8,0-33.2,0-56.1C-390.7,681.7-397.6,681.7-404.9,681.7L-404.9,681.7z"/>
	<path stroke="#000000" stroke-width="1.0001" stroke-miterlimit="2.6131" d="M-294.9,681.7c0,22.7,0,41,0,55.8
		c11.8-19.2,17.7-39.2,20.6-55.8C-279.5,681.7-286.3,681.7-294.9,681.7L-294.9,681.7z"/>
	<path stroke="#000000" stroke-width="1.0001" stroke-miterlimit="2.6131" d="M-322.4,681.7c0,43.3,0,70.6,0,87.8
		c8.3-7,15.2-14.5,21-22.3c0-16.2,0-37.5,0-65.4C-307.6,681.7-314.5,681.7-322.4,681.7L-322.4,681.7z"/>
	<path fill="#FFFFFF" d="M-367.8,664.3c-1,2.5-2.9,4.2-5,4.2c-3.3,0-5.9-3.9-5.9-8.8c0-4.9,2.6-8.8,5.9-8.8c2.1,0,4,1.7,5,4.2
		c2.6,0,4.7,0,6.2,0c-1.5-5.5-6-9.1-11.8-9.1c-7.1,0-11.2,6.2-11.2,14.1c0,7.9,4.5,13.2,11.6,13.2c5.5,0,9.7-3.7,11.3-9.1
		C-363.2,664.3-365.2,664.3-367.8,664.3L-367.8,664.3z"/>
	<path fill="#FFFFFF" d="M-334.3,672.5h5.8l-10.1-26.4c0,0,0,0-0.6,0c-2.3,0-3.5,0-4.1,0c-0.6,0-0.6,0-0.6,0l-10.1,26.4h5.8l1.7-5.1
		h10.6L-334.3,672.5L-334.3,672.5z M-345,662.8l3.7-10.7l3.7,10.7H-345L-345,662.8z"/>
	<polygon fill="#FFFFFF" points="-320.2,672.6 -320.2,646.1 -312.2,646.1 -307.4,664.2 -302.6,646.1 -294.6,646.1 -294.6,672.6 
		-299.6,672.6 -299.6,651.8 -304.9,672.6 -310,672.6 -315.2,651.8 -315.3,672.6 	"/>
	<path fill="none" stroke="#FFFFFF" stroke-width="10.0001" stroke-linejoin="round" stroke-miterlimit="2.6131" d="M-339.6,786.5
		c-80.4-48.9-71.5-146-71.5-146c54.5,0.7,71.5-29.9,71.5-29.9s17,30.6,71.5,29.9C-268.1,640.5-259.2,737.6-339.6,786.5
		 M-339.6,786.5L-339.6,786.5"/>
	<path fill="none" stroke="#000000" stroke-width="4" stroke-linejoin="round" stroke-miterlimit="2.6131" d="M-339.6,792.1
		c-83-50.5-76-156.8-76.1-155.3c58,0.7,76.1-31.8,76.1-31.8s18.1,32.5,76.1,31.8C-263.4,638.3-251.6,738.5-339.6,792.1L-339.6,792.1
		z"/>
</g>
</svg>
