<?xml version="1.0" encoding="utf-8"?>
<!-- Generator: Adobe Illustrator 16.0.0, SVG Export Plug-In . SVG Version: 6.00 Build 0)  -->
<!DOCTYPE svg PUBLIC "-//W3C//DTD SVG 1.1//EN" "http://www.w3.org/Graphics/SVG/1.1/DTD/svg11.dtd">
<svg version="1.1" id="Layer_1" xmlns="http://www.w3.org/2000/svg" xmlns:xlink="http://www.w3.org/1999/xlink" x="0px" y="0px"
	 width="611.792px" height="597.727px" viewBox="-417.396 719.236 611.792 597.727"
	 enable-background="new -417.396 719.236 611.792 597.727" xml:space="preserve">
<g>
	<path fill="#FFFFFF" d="M-412.975,730.725h599.12c0,0,57.44,401.038-297.993,575.796
		C-448.831,1147.428-412.975,730.725-412.975,730.725z"/>
	<path fill="#016FB4" d="M-407.404,719.236h591.46h8.703l0.348,8.703c7.659,168.492-19.146,289.639-72.062,381.543
		c-52.915,92.252-131.938,154.566-228.369,205.393l-4.177,2.088l-4.178-2.088c-96.43-50.826-175.454-113.141-228.369-205.393
		c-52.915-91.904-79.72-213.051-72.061-381.543l0.348-8.703H-407.404L-407.404,719.236z M-398.354,831.332h573.707
		c1.392-29.59,1.392-60.921,0.348-93.993h-574.055C-399.746,770.411-399.746,801.742-398.354,831.332L-398.354,831.332z
		 M174.309,849.435h-571.618c6.962,104.089,30.982,185.55,68.928,250.997c50.478,87.379,125.324,147.256,216.881,195.992
		c91.556-48.736,166.751-108.613,216.88-195.992C142.978,1034.984,166.998,953.523,174.309,849.435L174.309,849.435z"/>
	<path fill="#016FB4" d="M-329.425,840.384v275.365c-48.389-78.328-73.802-170.929-80.068-275.365H-329.425L-329.425,840.384z"/>
	<polygon fill="#016FB4" points="-267.111,840.384 -204.797,840.384 -204.797,1249.775 -267.111,1197.558 	"/>
	<path fill="#016FB4" d="M106.077,840.384h76.587c-4.874,112.792-33.072,200.866-76.587,271.536V840.384L106.077,840.384z"/>
	<polygon fill="#016FB4" points="-18.203,840.384 44.111,840.384 44.111,1194.424 -18.203,1249.428 	"/>
	<polygon fill="#016FB4" points="-142.831,840.384 -80.517,840.384 -80.517,1290.506 -111.5,1306.52 -142.831,1291.898 	"/>
	<path fill="#016FB4" d="M-308.886,811.141h-27.501l-3.83,12.881h-24.717l29.243-77.979h26.109l29.242,77.979h-25.064
		L-308.886,811.141L-308.886,811.141z M-313.759,794.432l-8.703-27.85l-8.703,27.85H-313.759L-313.759,794.432z M-285.91,746.391
		h25.065l17.406,56.048l17.406-56.048h24.368l-28.894,77.979h-26.109L-285.91,746.391L-285.91,746.391z M-151.882,811.141h-27.501
		l-3.83,12.881h-24.717l29.243-77.979h26.109l29.242,77.979h-25.065L-151.882,811.141L-151.882,811.141z M-157.104,794.432
		l-8.703-27.85l-8.703,27.85H-157.104L-157.104,794.432z M-114.285,746.391h24.021v77.979h-24.021V746.391L-114.285,746.391z
		 M-0.449,746.391H59.08v16.71H23.92v13.577h30.287v15.665H23.92v31.679H-0.101v-77.631H-0.449z M123.831,792.343l21.235,6.266
		c-1.392,5.919-3.481,10.792-6.614,14.97c-3.133,3.829-6.962,6.962-11.488,9.051c-4.526,2.089-10.096,3.133-17.058,3.133
		c-8.355,0-15.317-1.393-20.887-3.829c-5.222-2.437-10.096-6.962-13.925-12.88c-3.829-6.267-5.918-14.273-5.918-23.673
		c0-12.88,3.481-22.628,10.096-29.591c6.962-6.962,16.71-10.443,29.242-10.443c9.748,0,17.406,2.089,22.976,5.918
		c5.57,3.83,9.748,10.096,12.533,18.103l-21.236,4.874c-0.696-2.437-1.392-4.178-2.437-5.222c-1.392-1.741-3.133-3.134-4.874-4.178
		c-2.089-1.044-4.177-1.393-6.614-1.393c-5.57,0-9.748,2.089-12.532,6.614c-2.089,3.134-3.133,8.355-3.133,15.317
		c0,8.703,1.393,14.622,3.83,17.755c2.785,3.133,6.266,4.873,11.14,4.873c4.526,0,8.007-1.393,10.444-3.829
		C121.046,801.046,122.787,797.217,123.831,792.343L123.831,792.343L123.831,792.343z"/>
	<polygon fill="#016FB4" points="-111.5,741.517 -97.923,741.517 -83.998,732.117 -97.227,730.725 	"/>
</g>
</svg>
