<?xml version="1.0" encoding="utf-8"?>
<!-- Generator: Adobe Illustrator 16.0.0, SVG Export Plug-In . SVG Version: 6.00 Build 0)  -->
<!DOCTYPE svg PUBLIC "-//W3C//DTD SVG 1.1//EN" "http://www.w3.org/Graphics/SVG/1.1/DTD/svg11.dtd">
<svg version="1.1" id="Layer_1" xmlns="http://www.w3.org/2000/svg" xmlns:xlink="http://www.w3.org/1999/xlink" x="0px" y="0px"
	 width="372.1px" height="372.11px" viewBox="0 0 372.1 372.11" enable-background="new 0 0 372.1 372.11" xml:space="preserve">
<g>
	<path fill="#165B8E" d="M186.05,0C288.52,0,372.1,83.58,372.1,186.05
		c0,102.47-83.58,186.06-186.05,186.06C83.58,372.11,0,288.52,0,186.05C0,83.58,83.58,0,186.05,0"/>
	<path fill="#FFFFFF" d="M186.05,5.44c99.48,0,180.61,81.14,180.61,180.61
		c0,99.47-81.13,180.61-180.61,180.61c-99.47,0-180.6-81.13-180.6-180.61C5.45,86.58,86.58,5.44,186.05,5.44"/>
	<path fill="#165B8E" d="M186.05,58.05c70.5,0,128,57.5,128,128c0,70.5-57.5,128-128,128
		c-70.5,0-128-57.51-128-128C58.05,115.55,115.55,58.05,186.05,58.05"/>
	<path fill="#165B8E" d="M15.06,161.5l35.52,3.11l-2.76,31.67l-7.66-0.67l1.73-19.77l-5.66-0.49
		l-1.6,18.28l-7.56-0.67l1.6-18.28l-6.89-0.6l-1.79,20.52l-7.76-0.68L15.06,161.5z M27.69,214.92l-0.09,0.02l-0.99,0.13
		c-1.34,0.31-2.19,1.11-2.6,2.42c-0.4,1.31-0.32,3.18,0.24,5.59c0.43,1.85,1.03,3.23,1.81,4.14c0.79,0.91,1.65,1.26,2.59,1.04
		c1.41-0.33,2.1-2.66,2.06-7l-0.01-1.14l-0.01-1.21c-0.1-6.88,0.48-11.45,1.74-13.73c0.58-1.06,1.38-1.97,2.41-2.74
		c0.51-0.37,1.05-0.67,1.63-0.92c0.57-0.25,1.23-0.46,1.98-0.63c3.39-0.79,6.33,0.12,8.85,2.72c2.5,2.6,4.42,6.81,5.76,12.61
		c1.33,5.75,1.48,10.2,0.43,13.34c-1.04,3.14-3.31,5.12-6.79,5.92l-0.4,0.09l-2.52-10.86l0.16-0.04c1.18-0.27,1.96-1.03,2.33-2.27
		c0.18-0.62,0.27-1.34,0.24-2.17c-0.02-0.82-0.16-1.78-0.42-2.88c-0.38-1.67-0.89-2.89-1.53-3.68c-0.64-0.79-1.37-1.08-2.2-0.89
		c-1.43,0.33-2.12,2.98-2.06,7.96l0.05,2.25c0.02,3.63-0.07,6.2-0.27,7.69c-0.2,1.5-0.57,2.86-1.08,4.1
		c-0.58,1.36-1.45,2.51-2.59,3.43c-1.16,0.93-2.5,1.57-4.01,1.92c-3.53,0.81-6.63-0.2-9.29-3.05c-2.66-2.85-4.7-7.36-6.13-13.51
		c-1.4-6.09-1.5-10.72-0.31-13.86c1.21-3.15,3.82-5.18,7.85-6.12l0.52-0.12L27.69,214.92z M56.82,251.44l-6.47,3.74l3.39,5.86
		c0.81,1.39,1.67,2.27,2.59,2.62c0.93,0.35,1.93,0.21,3.04-0.42c1.05-0.61,1.64-1.41,1.8-2.4c0.15-0.99-0.17-2.17-0.96-3.54
		L56.82,251.44z M26.4,255.16l30.88-17.83l10.94,18.95c2.4,4.16,3.41,7.61,3.02,10.34c-0.39,2.74-2.22,5.04-5.46,6.92
		c-3.26,1.88-6.36,2.36-9.32,1.42c-2.96-0.93-5.46-3.17-7.49-6.7l-5.32-9.22l-11.25,6.49L26.4,255.16z M71.62,291.24
		c-2.52,2.61-3.82,5.14-3.92,7.58c-0.08,2.45,1.05,4.8,3.39,7.06c2.35,2.27,4.77,3.35,7.22,3.22c2.46-0.12,4.91-1.45,7.35-3.98
		c2.65-2.75,4.06-5.43,4.25-8.06c0.17-2.63-0.92-5.1-3.31-7.39c-2.19-2.12-4.59-3.04-7.22-2.78
		C76.75,287.16,74.16,288.61,71.62,291.24 M65.66,310.68c-5.09-4.91-7.85-9.78-8.3-14.58c-0.44-4.82,1.45-9.4,5.67-13.77
		c4.08-4.23,8.62-6.14,13.61-5.73c4.99,0.42,10.09,3.14,15.29,8.17c5.15,4.97,7.96,9.91,8.46,14.82c0.49,4.91-1.38,9.56-5.61,13.93
		c-4.13,4.28-8.66,6.18-13.59,5.71C76.24,318.76,71.07,315.91,65.66,310.68 M118.29,313.15l-3.24,6.35l6.03,3.07
		c1.45,0.74,2.65,1.03,3.58,0.86c0.93-0.16,1.69-0.79,2.24-1.88c0.57-1.11,0.65-2.08,0.25-2.92c-0.4-0.85-1.33-1.65-2.83-2.41
		L118.29,313.15z M94.74,333.06l16.19-31.77l18.21,9.28c1.9,0.97,3.48,1.81,4.74,2.52c1.26,0.71,2.21,1.31,2.83,1.79
		c1.26,0.93,2.19,1.93,2.78,3c0.58,1.07,0.86,2.31,0.81,3.74c-0.04,1.43-0.41,2.83-1.1,4.19c-1.07,2.09-2.64,3.44-4.69,4.03
		c-2.06,0.58-4.39,0.35-7-0.71c1.26,0.64,2.29,1.33,3.06,2.04c0.77,0.72,1.34,1.48,1.72,2.28c0.69,1.4,0.63,3.17-0.17,5.29
		l-2.11,5.57c-0.29,0.76-0.57,1.62-0.81,2.6l-0.71,3.33l-11.03-5.62c0.04-0.32,0.09-0.66,0.17-0.99c0.07-0.34,0.2-0.8,0.4-1.39
		c0.19-0.59,0.29-0.93,0.32-1c0.17-0.48,0.37-0.95,0.61-1.42l1.93-4.55c0.36-0.7,0.58-1.33,0.65-1.88c0.07-0.55,0.03-1.05-0.14-1.5
		c-0.29-0.78-1.29-1.6-2.98-2.46l-6.7-3.42l-6.34,12.45L94.74,333.06z M151.46,355.09l5.31-27.32l-13.03-2.53l1.5-7.69l37.99,7.39
		l-1.49,7.69l-13.03-2.53l-5.31,27.31L151.46,355.09z M189.03,359.93l-4.35-35.4l31.56-3.87l0.93,7.63l-19.69,2.42l0.69,5.64
		l18.22-2.24l0.92,7.54l-18.21,2.24l0.84,6.86l20.45-2.51l0.95,7.73L189.03,359.93z M262.77,314.42c-1.05-1.38-2.28-2.21-3.69-2.47
		c-1.42-0.27-2.99,0.04-4.73,0.93c-2.75,1.41-4.43,3.35-5.03,5.85c-0.6,2.51-0.07,5.36,1.56,8.58c1.58,3.09,3.52,5.09,5.84,6.02
		c2.31,0.92,4.83,0.7,7.54-0.69c1.97-1,3.3-2.28,4.01-3.83c0.71-1.56,0.74-3.35,0.09-5.36l11.24-5.73
		c1.71,4.33,1.55,8.29-0.52,11.85c-2.06,3.57-6.16,6.91-12.29,10.03c-5.9,3.01-11.21,3.97-15.92,2.87
		c-4.71-1.09-8.33-4.12-10.86-9.09c-2.76-5.41-3.19-10.47-1.29-15.17c1.9-4.7,6-8.66,12.28-11.86c5.51-2.8,10.17-3.99,13.98-3.57
		c1.99,0.19,3.74,0.76,5.21,1.71c1.58,1,2.83,2.41,3.75,4.22L262.77,314.42z M312.3,293.47l5.41,5.6l-22.15,21.39l-24.77-25.66
		l8.76-8.46l19.37,20.06L312.3,293.47z M294.83,271.95l5.9-10.24l17.59,10.15c2.56,1.47,4.8,1.98,6.71,1.52
		c1.93-0.46,3.6-1.92,5.01-4.38c1.37-2.37,1.77-4.52,1.21-6.45c-0.57-1.93-2.11-3.62-4.63-5.07l-17.58-10.15l5.74-9.94l17.46,10.08
		c4.8,2.77,7.51,6.21,8.14,10.31c0.62,4.1-0.8,9.17-4.28,15.2c-3.47,6-7.09,9.71-10.87,11.13c-3.78,1.42-8.1,0.73-12.95-2.08
		L294.83,271.95z M325.5,223.65l7.25,1.67l1.41-6.12c0.35-1.49,0.31-2.68-0.13-3.55c-0.44-0.88-1.26-1.46-2.47-1.74
		c-1.16-0.27-2.14-0.1-2.94,0.5c-0.8,0.6-1.37,1.64-1.71,3.12L325.5,223.65z M338.52,226.65l7.63,1.77l1.63-7.05
		c0.38-1.66,0.36-3-0.09-4c-0.45-1-1.31-1.65-2.56-1.94c-1.25-0.29-2.3-0.08-3.14,0.62c-0.85,0.71-1.47,1.89-1.85,3.55
		L338.52,226.65z M350.6,241.33l-34.75-8.02l4.97-21.53c0.3-1.33,0.58-2.44,0.84-3.32c0.25-0.87,0.5-1.62,0.77-2.22
		c0.26-0.61,0.52-1.14,0.78-1.57c0.26-0.44,0.58-0.86,0.98-1.28c0.94-1.06,2.08-1.77,3.41-2.13c1.34-0.36,2.82-0.35,4.45,0.02
		c1.95,0.45,3.41,1.38,4.4,2.8c1,1.42,1.59,3.44,1.78,6.05c1.37-2.78,2.94-4.66,4.72-5.65c1.77-0.99,3.9-1.2,6.38-0.62
		c3.05,0.7,5.17,2.16,6.36,4.36c1.18,2.2,1.37,5.09,0.54,8.67L350.6,241.33z M359.92,192.74l-35.53,3.11l-2.77-31.67l7.66-0.67
		l1.73,19.77l5.66-0.5l-1.6-18.28l7.57-0.66l1.6,18.28l6.88-0.6L349.32,161l7.75-0.68L359.92,192.74z M54.27,96.47
		c-1.6-0.68-3.08-0.77-4.43-0.3c-1.36,0.48-2.56,1.53-3.63,3.17c-1.69,2.6-2.17,5.12-1.44,7.59c0.74,2.47,2.62,4.68,5.65,6.65
		c2.91,1.89,5.59,2.65,8.06,2.3c2.47-0.36,4.53-1.82,6.19-4.37c1.21-1.85,1.72-3.63,1.56-5.33c-0.16-1.7-1.03-3.27-2.6-4.69
		l6.88-10.58c3.66,2.9,5.48,6.4,5.48,10.52c0,4.12-1.88,9.07-5.62,14.83c-3.61,5.56-7.73,9.04-12.35,10.45
		c-4.62,1.41-9.27,0.6-13.94-2.44c-5.1-3.31-8-7.48-8.71-12.5c-0.71-5.02,0.86-10.49,4.71-16.41c3.36-5.18,6.8-8.54,10.32-10.08
		c1.82-0.83,3.62-1.21,5.36-1.13c1.88,0.08,3.66,0.68,5.36,1.78L54.27,96.47z M75.66,64.55l4.68,5.38l5.1-4.44
		c1.24-1.07,1.95-2.07,2.14-3c0.2-0.93-0.1-1.85-0.9-2.78c-0.81-0.94-1.69-1.38-2.62-1.33c-0.93,0.05-2.03,0.62-3.29,1.72
		L75.66,64.55z M85.29,93.84L61.91,66.93l15.43-13.42c1.61-1.4,2.97-2.55,4.11-3.44c1.14-0.91,2.04-1.56,2.73-1.96
		c1.34-0.82,2.61-1.3,3.82-1.45c1.21-0.14,2.46,0.07,3.77,0.64c1.31,0.57,2.46,1.43,3.47,2.59c1.54,1.77,2.2,3.73,1.98,5.85
		c-0.23,2.13-1.32,4.2-3.28,6.22c1.07-0.93,2.09-1.62,3.04-2.07c0.95-0.45,1.88-0.69,2.75-0.73c1.56-0.12,3.18,0.6,4.83,2.14
		l4.39,4.04c0.58,0.56,1.29,1.13,2.11,1.73l2.81,1.91l-9.33,8.12c-0.29-0.15-0.58-0.33-0.86-0.52c-0.29-0.19-0.67-0.49-1.14-0.89
		s-0.75-0.62-0.81-0.68c-0.38-0.33-0.74-0.7-1.09-1.1l-3.5-3.5c-0.52-0.6-1.02-1.03-1.5-1.3c-0.48-0.28-0.96-0.42-1.44-0.43
		c-0.84-0.02-1.97,0.58-3.4,1.83l-5.68,4.93l9.17,10.55L85.29,93.84z M104.95,33.99l10.96-4.43l7.61,18.83
		c1.1,2.73,2.56,4.51,4.35,5.33c1.79,0.82,4.02,0.7,6.65-0.36c2.54-1.02,4.18-2.48,4.92-4.34c0.73-1.87,0.56-4.16-0.52-6.85
		l-7.61-18.83l10.65-4.3l7.55,18.7c2.08,5.14,2.1,9.52,0.07,13.14c-2.03,3.61-6.28,6.73-12.73,9.34c-6.42,2.6-11.57,3.29-15.42,2.08
		c-3.85-1.21-6.82-4.41-8.92-9.61L104.95,33.99z M175.73,42.82l21.69-0.38l0.14,7.78l-35.53,0.62l-0.18-9.81l19.77-18.36l-19,0.33
		l-0.14-7.83l33.76-0.59l0.17,9.47L175.73,42.82z M203.58,51.07l7.41-34.88l31.1,6.61l-1.6,7.52l-19.41-4.12l-1.18,5.56l17.95,3.82
		l-1.58,7.43l-17.95-3.81l-1.44,6.76l20.15,4.28l-1.61,7.62L203.58,51.07z M239.98,61.29l16.18-31.78l10.86,5.53l-16.19,31.77
		L239.98,61.29z M284.34,54.65l-4.39,5.62l5.33,4.17c1.29,1,2.4,1.51,3.35,1.52c0.95,0.02,1.8-0.45,2.55-1.42
		c0.77-0.98,1.03-1.92,0.81-2.82c-0.23-0.91-1-1.87-2.33-2.9L284.34,54.65z M257.42,69.71l21.96-28.1l16.12,12.59
		c1.67,1.31,3.07,2.44,4.16,3.38c1.11,0.95,1.91,1.71,2.44,2.3c1.06,1.16,1.78,2.31,2.15,3.48c0.37,1.16,0.41,2.44,0.09,3.83
		c-0.3,1.4-0.93,2.7-1.88,3.9c-1.45,1.85-3.24,2.87-5.36,3.06c-2.14,0.18-4.38-0.49-6.75-2.03c1.12,0.87,1.99,1.74,2.62,2.59
		s1.03,1.71,1.25,2.57c0.41,1.51,0.01,3.23-1.18,5.16l-3.13,5.07c-0.43,0.68-0.86,1.49-1.29,2.4l-1.33,3.12l-9.76-7.62
		c0.1-0.31,0.22-0.62,0.35-0.94c0.13-0.32,0.36-0.75,0.65-1.29c0.3-0.54,0.47-0.85,0.51-0.92c0.26-0.44,0.55-0.86,0.87-1.28
		l2.78-4.1c0.48-0.62,0.81-1.2,0.99-1.72c0.17-0.53,0.23-1.02,0.15-1.5c-0.14-0.82-0.95-1.82-2.45-2.99l-5.92-4.63l-8.6,11.01
		L257.42,69.71z M310.87,96.84c-3.04,1.98-4.88,4.15-5.52,6.51c-0.63,2.36-0.07,4.91,1.71,7.64c1.78,2.74,3.89,4.33,6.31,4.77
		c2.43,0.43,5.11-0.31,8.06-2.22c3.2-2.08,5.18-4.38,5.94-6.91c0.76-2.52,0.25-5.17-1.55-7.94c-1.66-2.55-3.79-4-6.42-4.33
		C316.78,94.02,313.94,94.85,310.87,96.84 M300.69,114.44c-3.86-5.93-5.46-11.29-4.81-16.08c0.65-4.79,3.52-8.83,8.62-12.14
		c4.93-3.2,9.78-4.04,14.55-2.52c4.77,1.53,9.11,5.32,13.07,11.4c3.89,6,5.52,11.45,4.9,16.34c-0.62,4.9-3.49,9-8.61,12.32
		c-4.99,3.24-9.83,4.07-14.52,2.5C309.18,124.7,304.79,120.75,300.69,114.44"/>
	<path fill="#FFFFFF" d="M195.19,257.86l4.75,14.8h15.6l-12.71,9.19l4.95,14.75l-12.72-8.97l-12.46,8.97
		l4.81-14.66l-12.78-9.33l15.77,0.01L195.19,257.86z M264.29,151.13l4.75,14.8h15.6l-12.71,9.19l4.94,14.74l-12.71-8.96l-12.45,8.96
		l4.8-14.65l-12.78-9.33l15.77,0.02L264.29,151.13z M210.61,184.5l3.01,9.36h9.87l-8.04,5.81l3.12,9.33l-8.04-5.68l-7.89,5.68
		l3.04-9.27l-8.08-5.9l9.98,0.01L210.61,184.5z M183.62,83.53l4.75,14.8h15.6l-12.71,9.19l4.95,14.74l-12.72-8.96l-12.46,8.96
		l4.81-14.65l-12.78-9.33l15.77,0.01L183.62,83.53z M111.78,154.87l4.75,14.8h15.6l-12.72,9.19l4.95,14.74l-12.71-8.96l-12.46,8.96
		l4.8-14.65l-12.78-9.33l15.77,0.01L111.78,154.87z"/>
</g>
</svg>
