<?xml version="1.0" encoding="utf-8"?>
<!-- Generator: Adobe Illustrator 16.0.0, SVG Export Plug-In . SVG Version: 6.00 Build 0)  -->
<!DOCTYPE svg PUBLIC "-//W3C//DTD SVG 1.1//EN" "http://www.w3.org/Graphics/SVG/1.1/DTD/svg11.dtd">
<svg version="1.1" id="Layer_1" xmlns="http://www.w3.org/2000/svg" xmlns:xlink="http://www.w3.org/1999/xlink" x="0px" y="0px"
	 width="612px" height="612px" viewBox="-417.5 708.1 612 612" enable-background="new -417.5 708.1 612 612" xml:space="preserve">
<g>
	<path fill="#006238" d="M-417.5,1320.1L-417.5,1320.1L-417.5,1320.1L-417.5,1320.1z M-111.326,1319.752
		c168.587,0,305.826-137.587,305.826-305.826C194.5,845.688,56.913,708.1-111.326,708.1c-168.587,0-305.826,137.588-305.826,305.826
		C-417.151,1182.514-279.913,1319.752-111.326,1319.752L-111.326,1319.752z"/>
	<path fill="#FFFFFF" d="M-111.326,1309.999c-81.507,0-155.351-33.438-208.993-87.08s-86.732-127.834-86.732-208.993
		c0-81.507,33.439-155.351,86.732-208.992c53.99-53.642,127.834-87.08,208.993-87.08c81.507,0,155.699,33.438,208.993,87.08
		c53.641,53.642,87.08,127.834,87.08,208.992c0,81.508-33.439,155.352-87.08,208.993
		C44.374,1276.56-29.819,1309.999-111.326,1309.999L-111.326,1309.999z"/>
	<path fill="#006238" d="M-111.326,1303.729c79.765,0,152.216-32.742,204.812-85.338c52.248-52.248,84.99-125.048,84.99-204.812
		c0-79.418-32.742-152.217-84.99-204.465c-52.596-52.597-125.047-85.339-204.812-85.339c-79.417,0-151.868,32.742-204.464,85.339
		c-52.597,52.248-85.339,125.047-85.339,204.465c0,79.766,32.742,152.216,85.339,204.812
		C-263.194,1270.986-190.743,1303.729-111.326,1303.729L-111.326,1303.729z"/>
	<polygon fill="#FFFFFF" points="-267.722,806.326 -271.205,814.687 -264.587,820.607 -273.644,819.562 -277.475,827.923 
		-279.217,818.866 -287.925,818.17 -280.262,813.642 -282.352,804.585 -275.385,810.854 	"/>
	<polygon fill="#FFFFFF" points="-287.925,830.709 -291.408,841.507 -281.655,848.125 -293.498,848.474 -296.284,859.271 
		-300.464,848.822 -311.959,849.17 -302.902,842.203 -306.734,831.058 -297.329,837.676 	"/>
	<polygon fill="#FFFFFF" points="-309.869,866.238 -310.217,880.171 -296.981,884.699 -310.565,888.879 -310.565,902.463 
		-318.925,891.316 -331.813,895.148 -323.802,884.351 -331.813,872.508 -318.229,877.384 	"/>
	<polygon fill="#FFFFFF" points="-325.543,910.475 -321.712,930.678 -301.509,933.464 -319.622,943.217 -316.139,963.42 
		-330.768,949.139 -348.881,958.891 -340.173,940.43 -354.802,926.149 -334.251,928.936 	"/>
	<polygon fill="#FFFFFF" points="45.07,806.326 48.902,814.687 41.936,820.607 51.34,819.562 54.823,827.923 56.913,818.866 
		65.621,818.17 57.958,813.642 60.048,804.585 53.082,810.854 	"/>
	<polygon fill="#FFFFFF" points="65.621,830.709 68.756,841.507 59.352,848.125 70.846,848.474 73.981,859.271 77.812,848.822 
		89.307,849.17 80.251,842.203 84.431,831.058 74.678,837.676 	"/>
	<polygon fill="#FFFFFF" points="87.565,866.238 87.565,880.171 74.678,884.699 87.914,888.879 87.914,902.463 96.273,891.316 
		109.51,895.148 101.15,884.351 109.162,872.508 95.925,877.384 	"/>
	<polygon fill="#FFFFFF" points="102.892,910.475 99.408,930.678 78.857,933.464 97.318,943.217 93.487,963.42 108.465,949.139 
		126.578,958.891 117.521,940.43 132.499,926.149 111.948,928.936 	"/>
	<path fill="#FFFFFF" d="M-212.339,1056.072c-0.697-0.348-1.742-0.348-2.438,0.349l-97.182,128.879
		c-1.045,1.741-0.696,3.831,0.349,5.225c16.719,18.113,33.787,33.787,53.642,47.72c1.393,0.697,3.483,2.787,4.528,0.349
		l10.45-24.382c0.697-1.395,0-3.484-1.045-4.181c-10.45-6.966-19.158-14.978-28.214-23.337c-1.394-1.394-1.045-4.181,0-5.922
		l76.63-111.114c0.348-0.349,0-1.394-0.697-1.742C-201.889,1063.736-207.462,1060.253-212.339,1056.072L-212.339,1056.072z"/>
	<path fill="#FFFFFF" d="M-121.775,1283.178c1.393,0,1.393-1.045,1.393-1.741l1.394-188.441c0-0.696-0.697-1.394-1.394-1.394
		c-4.528,0-9.405-0.697-14.281-1.394c-0.697-0.349-1.394,0-1.742,1.045l-22.641,52.248c-0.697,1.394-1.045,1.045-1.393-0.348
		l-1.742-58.866c0-0.697-0.349-1.394-0.697-1.394c-5.573-2.09-11.146-4.181-16.371-6.967c-0.348-0.349-1.393-0.349-1.742,0.696
		l-68.271,164.408c-0.348,0.696,0,1.741,0.697,2.09c6.618,4.18,13.236,8.012,20.203,11.494c0.697,0.349,2.438,0.697,2.787-0.696
		l42.146-117.732c0.349-1.394,0.697-1.741,0.697,0.349l1.741,99.968c0,5.225,0.349,5.225,2.787,0.349l40.057-88.822
		c0.348-1.045,0.696-1.045,0.696,0.348l-10.449,129.924c0,0.697,0.696,1.742,1.741,2.09
		C-138.146,1282.133-130.135,1282.83-121.775,1283.178L-121.775,1283.178z"/>
	<path fill="#FFFFFF" d="M-53.504,1103.793c-8.36,2.786-17.765,4.877-31,7.314c-0.697,0-1.394,1.045-1.394,1.742l1.045,49.461
		c0,0.697,0.697,2.09,2.09,1.742c12.191-1.742,24.383-4.181,36.574-6.619c1.742-0.348,2.09,0,2.787,2.09l3.135,19.506
		c0.349,1.045,0.349,2.438-1.045,2.787c-13.236,3.135-26.82,5.922-40.753,8.012c-1.045,0.348-2.09,0.696-2.09,2.438l1.393,51.203
		c0,2.787,1.742,4.181,3.135,3.832c15.675-1.045,31.349-5.225,46.327-9.057c1.045,0,2.438-0.696,2.786,1.742l4.18,26.82
		c0.349,1.394-1.044,2.787-2.786,3.135c-25.428,8.012-49.81,12.54-77.676,13.236c-2.09,0-3.483-0.696-3.483-2.438l1.393-187.048
		c0-1.045,1.742-1.742,3.135-1.742c17.765-1.045,33.091-3.482,48.417-9.404c1.741-0.697,2.438-0.349,2.438,0.348l3.135,18.811
		C-51.763,1103.096-52.459,1103.444-53.504,1103.793L-53.504,1103.793z"/>
	<path fill="#FFFFFF" d="M-13.448,1264.369c-0.697,0-1.742,0-1.742-0.697l-33.787-183.565c0-0.348,0-0.696,0.697-0.696
		c5.225-2.09,10.101-4.877,14.978-7.663c0.348-0.349,1.393-0.349,1.393,0l46.675,176.947c0.349,1.394,0.349,2.09-0.348,2.438
		C5.013,1256.009-3.695,1260.188-13.448,1264.369L-13.448,1264.369z"/>
	<path fill="#FFFFFF" d="M133.195,1025.421c-1.393,5.921-2.786,11.843-4.528,17.416c-0.348,0.348-0.697,1.394-1.742,1.045
		l-4.18-2.09c-0.697-0.349-1.394,0.348-1.742,0.696l-6.27,15.675c-0.348,1.045-0.348,2.09,1.045,3.135l28.214,18.81
		c1.045,0.696,2.787,0.696,3.483-1.742c5.573-22.641,8.012-45.281,7.663-68.271c0-1.045-0.348-2.09-1.741-2.438l-46.675-16.022
		c-1.742-0.696-4.528-0.696-5.921,1.741c-4.18,8.012-8.012,14.281-11.495,20.203c-0.697,0.696-1.742,1.741-3.135,1.045
		l-22.989-11.146c-1.045-0.696-1.742-1.045-1.045-3.135l3.832-8.012c0.348-1.045,1.742-0.696,2.787-0.348l8.011,3.135
		c0.697,0.348,1.742,0.348,2.09-0.697l3.483-9.752c0.348-0.697-0.697-1.742-1.742-2.09l-30.652-10.45
		c-1.045-0.349-2.09,0.349-2.438,1.394c-3.483,10.449-7.663,20.202-12.888,30.304c-1.045,1.741,0,3.135,0.697,4.18l58.169,39.013
		c1.045,0.696,2.787,0.696,3.832-1.394c5.922-9.405,11.146-18.81,16.72-28.214c0.348-0.697,1.045-1.394,2.438-0.697l16.023,6.967
		C132.847,1022.982,133.544,1024.027,133.195,1025.421L133.195,1025.421z"/>
	<path fill="#FFFFFF" d="M-361.769,1104.141c-0.349-1.045,0.697-2.09,1.742-2.786l117.384-74.192c0.696-0.348,1.741,0,2.09,0.349
		c3.483,4.18,6.966,8.011,10.45,12.19c0.348,0.697,1.044,1.742,0.697,2.787l-85.688,140.722c-0.696,0.696-2.786,0-3.135-0.696
		c-3.483-4.528-6.966-8.709-9.753-13.585c-0.696-0.696-0.348-2.09,0-3.135l20.203-32.394c1.045-1.742,1.045-2.787,0.348-4.528
		c-3.483-9.057-6.618-18.113-9.404-27.169c0-0.697-2.09-1.045-2.787-0.697l-32.045,21.596c-0.697,0.349-2.438,0-2.787-0.696
		C-357.24,1115.984-359.679,1110.062-361.769,1104.141L-361.769,1104.141z M-265.98,1064.781l-33.438,22.292
		c-0.697,0.349-1.394,1.741-0.697,2.786c1.742,5.922,3.483,11.146,5.573,16.372c0.349,1.394,1.742,2.09,2.438,0.696
		L-265.98,1064.781C-265.632,1064.781-265.632,1064.781-265.98,1064.781L-265.98,1064.781z"/>
	<path fill="#FFFFFF" d="M88.262,1191.918c-0.697,0.697-1.742,1.394-2.438,0.348l-51.9-62.697c-0.348-0.696-1.393-1.394-2.09-0.696
		l-9.056,6.27c-0.697,0.696-1.742,1.394-1.393,3.135l32.045,84.99c0.348,1.045,0,1.742-0.697,2.09
		c-8.36,6.618-16.719,12.54-25.776,18.113c-0.697,0.348-1.742,0.696-1.742-0.349l-50.854-175.205l1.045-1.394
		c13.236-8.708,22.989-16.022,33.438-27.866c3.832-4.18,8.36-1.393,10.102,1.742l34.135,56.08
		c3.135,5.225,3.135,12.539-0.697,17.067l-1.045,1.045l50.855,56.776c1.045,1.045,0.697,2.09,0,2.786
		C98.015,1180.075,93.487,1185.648,88.262,1191.918L88.262,1191.918z M25.564,1099.265l-13.933-27.518
		c-0.349-1.045-1.394-1.394-2.09-0.696c-3.135,2.09-6.27,4.527-9.405,6.618c-0.348,0.348-0.348,0.696,0,1.394l11.495,31
		c0.348,0.349,0.697,0.697,1.394,0.349l12.191-8.708C25.564,1101.006,26.261,1100.31,25.564,1099.265L25.564,1099.265z"/>
	<path fill="#FFFFFF" d="M138.42,1106.579c0,0.697-0.697,1.394-1.393,0.697l-27.866-19.158c-0.697,0-1.394,0-1.742,0.349
		l-11.495,29.259c-0.348,0.696,0,1.741,0.348,2.09l19.158,32.046c0.349,0.696,0.349,1.393,0.349,1.741
		c-3.483,5.573-6.967,10.798-10.45,16.022c-0.349,0.349-1.045,0.697-1.394,0l-85.338-141.767c-0.348-0.696-0.348-1.045,0-1.741
		c3.483-4.528,6.966-9.404,10.101-14.281c0-0.348,0.697-0.697,1.394-0.348l114.249,73.495c0.349,0.349,0.697,1.045,0.697,1.741
		C142.948,1093.691,140.858,1100.31,138.42,1106.579L138.42,1106.579z M87.914,1074.186l-31.349-21.248
		c-1.045-0.696-1.393-0.696-0.697,0.697l24.383,40.754c0.348,0.696,1.393,2.09,2.09,0c0.696-2.09,4.876-11.844,6.618-17.765
		C89.655,1075.578,88.61,1074.533,87.914,1074.186L87.914,1074.186z"/>
	<path fill="#FFFFFF" d="M-309.869,1059.556c-9.057-11.494-16.719-24.034-24.382-37.967c-0.697-1.394-1.742-1.394-2.787-1.045
		l-37.27,12.54c-2.09,0.696-2.787-0.697-2.787-1.742c-0.697-8.708-0.697-17.416-0.697-25.775c0-2.09,1.045-2.787,2.09-3.135
		l106.586-20.9c1.394-0.348,2.09,0.349,2.438,1.045c5.225,12.889,11.494,24.035,18.809,35.529c0.697,0.697,0,2.09-0.697,2.787
		l-58.169,39.708C-307.431,1060.949-308.476,1060.949-309.869,1059.556L-309.869,1059.556z M-275.733,1017.409
		c-3.135-4.876-6.27-9.405-9.056-14.281c-0.348-0.348-0.697-0.348-1.045,0l-27.518,9.405c-1.393,0-1.045,1.045-0.697,1.393
		c3.483,6.967,7.663,13.236,12.191,19.158c0.697,0.696,2.09,1.394,2.787,0.696l23.337-15.674
		C-275.385,1018.105-275.385,1017.409-275.733,1017.409L-275.733,1017.409z"/>
	<path fill="#FFFFFF" d="M-111.326,1067.219c85.338,0,155.002-69.664,155.002-155.002c0-85.339-69.664-155.352-155.002-155.352
		c-85.339,0-155.003,70.013-155.003,155.352C-266.329,997.903-196.665,1067.219-111.326,1067.219L-111.326,1067.219z"/>
	<path fill="#006238" d="M-111.326,1060.949c-40.754,0-78.024-16.719-105.193-43.889c-27.169-26.82-43.541-64.091-43.541-105.192
		c0-82.204,66.878-149.081,148.733-149.081c40.753,0,78.024,16.719,105.193,43.888s43.889,64.091,43.889,105.193
		C37.407,994.42-29.47,1060.949-111.326,1060.949L-111.326,1060.949z"/>
	<path fill="#FFFFFF" d="M-154.518,795.18c16.022-9.404,28.562-19.506,37.619-27.517c-42.147,1.741-79.417,21.596-105.193,51.899
		C-199.451,816.08-176.81,808.068-154.518,795.18L-154.518,795.18z"/>
	<path fill="#FFFFFF" d="M-68.134,795.18c22.292,12.889,44.933,20.9,67.574,24.035c-2.787-3.135-5.573-6.27-8.36-9.057
		c-25.079-25.079-58.866-41.102-96.485-42.495C-96.696,775.674-83.809,785.775-68.134,795.18L-68.134,795.18z"/>
	<path fill="#FFFFFF" d="M-202.934,954.015c-20.551-41.798-31-87.776-27.866-122.957c-15.675,22.989-25.079,51.203-25.079,81.159
		c0,40.057,16.022,75.934,42.495,102.058c24.73,24.73,58.169,40.753,95.092,42.495
		C-162.529,1024.027-188.653,983.273-202.934,954.015L-202.934,954.015z"/>
	<path fill="#FFFFFF" d="M8.497,831.406c2.787,34.832-7.663,80.811-28.214,122.608c-20.203,41.45-49.462,76.631-84.991,102.755
		c76.283-3.483,137.587-66.878,137.587-144.553C33.228,882.261,24.171,854.395,8.497,831.406L8.497,831.406z"/>
	<path fill="#FFFFFF" d="M-111.326,1056.072c40.057-28.213,68.619-65.832,87.777-104.147c23.337-47.372,31.697-95.44,26.821-127.138
		c-28.911-3.482-53.642-13.933-73.147-25.427c-18.809-11.146-33.09-22.989-41.102-30.652c-8.011,7.663-21.944,19.506-40.753,30.652
		c-19.506,11.494-44.585,21.944-73.496,25.427c-4.528,32.046,3.483,80.114,26.82,127.486
		C-179.945,990.24-151.034,1027.859-111.326,1056.072L-111.326,1056.072z"/>
	<path fill="#006238" d="M-111.326,1050.848c-3.832-2.786-7.663-5.572-11.495-8.708c-31.349-24.73-54.687-56.776-71.406-89.519
		c-19.506-39.012-28.911-79.068-29.607-109.373c0-5.225,0-10.797,0.697-16.022c7.663-0.696,14.978-2.09,22.641-4.18
		c12.888-3.135,24.731-7.663,35.877-12.888c17.068-8.359,31.001-18.113,40.754-25.776c4.528-3.831,8.708-7.314,12.54-11.494
		c3.832,3.831,8.011,7.663,12.54,11.146c9.753,8.011,23.686,17.765,41.102,25.775c12.191,5.922,26.125,11.146,41.102,14.281
		c5.573,1.394,11.495,2.09,17.416,2.786c0.348,5.226,0.697,10.102,0.697,14.979c-0.349,30.304-9.753,70.709-29.607,110.418
		c-16.371,32.742-40.057,64.787-71.754,89.866C-103.663,1045.275-107.494,1048.062-111.326,1050.848L-111.326,1050.848z"/>
	<path fill="#FFFFFF" d="M-94.606,793.09c-7.314-5.572-12.888-10.449-16.719-13.933c-3.483,3.483-9.056,8.36-16.371,13.933H-94.606
		L-94.606,793.09z"/>
	<path fill="#FFFFFF" d="M-67.786,809.81c-7.663-4.18-14.629-8.359-20.899-12.539h-45.282c-5.921,4.18-13.236,8.359-20.899,12.539
		H-67.786L-67.786,809.81z"/>
	<path fill="#FFFFFF" d="M-24.942,826.878c-12.539-3.136-24.034-7.663-34.483-12.888h-103.8
		c-10.45,5.225-22.292,9.404-34.484,12.888H-24.942L-24.942,826.878z"/>
	<path fill="#FFFFFF" d="M-2.998,844.294c0-4.528,0-8.708-0.348-12.888h-215.611c-0.348,4.18-0.348,8.359-0.348,12.888H-2.998
		L-2.998,844.294z"/>
	<path fill="#FFFFFF" d="M-4.391,861.361c0.348-4.18,0.697-8.359,1.045-12.888h-215.959c0.348,4.18,0.697,8.359,1.393,12.888H-4.391
		L-4.391,861.361z"/>
	<path fill="#FFFFFF" d="M-7.178,878.429c1.045-4.18,1.741-8.359,2.09-12.539h-212.824c0.697,4.18,1.394,8.359,2.09,12.539H-7.178
		L-7.178,878.429z"/>
	<path fill="#FFFFFF" d="M-11.009,895.148c1.045-4.18,2.09-8.359,3.135-12.888h-206.903c1.045,4.18,2.09,8.359,3.135,12.888H-11.009
		L-11.009,895.148z"/>
	<path fill="#FFFFFF" d="M-16.234,912.217c1.394-4.181,2.787-8.36,4.18-12.889h-198.195c1.394,4.18,2.438,8.359,3.832,12.889
		H-16.234L-16.234,912.217z"/>
	<path fill="#FFFFFF" d="M-22.504,929.633c1.742-4.528,3.135-8.709,4.876-12.889h-187.048c1.393,4.18,3.135,8.36,4.876,12.889
		H-22.504L-22.504,929.633z"/>
	<path fill="#FFFFFF" d="M-30.167,946.7c2.09-4.181,4.18-8.36,5.921-12.888h-173.812c1.742,4.18,3.483,8.359,5.573,12.888H-30.167
		L-30.167,946.7z"/>
	<path fill="#FFFFFF" d="M-39.224,963.768c2.438-4.18,4.528-8.359,6.967-12.888h-157.79c2.09,4.18,4.528,8.359,6.618,12.888H-39.224
		L-39.224,963.768z"/>
	<path fill="#FFFFFF" d="M-49.673,980.836c2.786-4.181,5.573-8.36,8.011-12.889h-138.98c2.438,4.18,4.876,8.36,8.011,12.889H-49.673
		L-49.673,980.836z"/>
	<path fill="#FFFFFF" d="M-61.864,997.903c3.135-4.181,6.27-8.36,9.405-12.888h-117.384c3.135,4.527,5.921,8.359,9.405,12.888
		H-61.864L-61.864,997.903z"/>
	<path fill="#FFFFFF" d="M-76.494,1014.623c3.832-3.832,7.663-8.012,11.146-12.54h-91.957c3.483,4.528,7.315,8.708,11.146,12.54
		H-76.494L-76.494,1014.623z"/>
	<path fill="#FFFFFF" d="M-93.91,1031.69c4.876-4.18,9.056-8.36,13.236-12.54h-61.304c4.18,4.181,8.708,8.709,13.584,12.54H-93.91
		L-93.91,1031.69z"/>
	<path fill="#FFFFFF" d="M-111.326,1045.275c4.18-3.136,8.359-6.271,12.191-9.405h-24.382
		C-119.337,1039.354-115.506,1042.488-111.326,1045.275L-111.326,1045.275z"/>
	<path fill="#006238" d="M-168.102,980.836c6.27,0,13.236,0.348,17.068-5.573c2.09-3.136,2.09-6.618,2.09-7.663v-72.451
		c0-0.696-0.697-2.09-1.742-3.135c-2.438-2.09-7.663-4.18-10.798-4.528c3.135-0.696,8.359-2.438,11.146-4.528
		c1.045-1.045,1.742-2.09,1.742-2.786v-44.237c0-1.393-0.348-2.438-0.697-3.482c-0.696-1.742-2.09-2.787-3.483-3.832
		c-4.18-2.09-10.798-1.393-14.629-0.348c0.348-1.742,2.09-5.225,2.786-6.27c4.876-8.709,11.146-10.45,17.068-9.754
		c5.573,0.697,10.45,3.832,13.933,6.271c5.225-4.877,11.146-8.36,17.067-11.146c8.36-3.136,16.719-4.528,22.989-4.528
		c14.978,0,28.911,6.618,38.664,16.72c10.45,10.449,16.719,24.382,16.719,39.36c0,13.235-6.618,28.562-17.764,39.708
		c-9.753,10.102-22.641,17.416-36.922,17.765c-7.314,0-14.629-1.742-19.854-5.573c-4.876-3.483-8.36-8.708-8.36-14.978
		c0-0.697,0-1.742,0.349-2.438c0-4.876,1.741-9.405,4.876-12.54c3.135-3.135,7.314-5.572,13.236-5.572c0.697,0,1.045,0,2.09,0l0,0
		c4.18,0.348,7.663,1.393,9.405,3.135c2.787,2.438,3.483,5.573,3.483,8.359c0,5.226-3.135,10.45-8.708,10.799
		c1.045,0.348,2.09,0.696,3.832,0.696c9.057,0,21.248-8.36,22.989-17.765c0.697-3.482,0-6.618-1.045-10.102
		c-1.045-2.786-1.742-5.572-1.742-8.707c-0.348-5.226,1.393-8.012,2.787-11.146c1.742-3.136,3.135-5.922,1.045-11.844
		c-2.09-5.572-5.573-10.449-10.45-13.933c-4.528-3.135-10.101-4.876-17.068-4.876c-5.573,0-11.843,2.786-16.719,6.966
		c-4.528,3.831-8.011,8.708-8.011,13.236v157.789c-4.876-1.394-9.405-2.786-13.236-6.618c-2.09-1.741-3.483-4.18-4.528-6.618
		c-3.135,2.786-6.618,4.528-10.449,4.877C-155.911,991.981-165.664,987.105-168.102,980.836L-168.102,980.836z"/>
	<path fill="#FFFFFF" d="M-159.046,984.318c3.483,2.09,6.618,3.135,9.405,3.135c5.573-0.348,10.798-5.572,12.888-8.707
		c0,3.135,1.741,8.359,5.225,11.843c1.742,1.741,3.832,2.786,6.27,3.831V842.204c0-5.922,4.18-12.191,9.405-16.72
		c5.573-4.877,13.236-8.359,19.506-8.012c8.011,0,14.629,2.09,19.506,5.573c5.573,4.181,9.405,9.753,11.843,16.022
		c2.787,7.315,0.697,10.799-1.393,14.979c-1.045,2.438-2.438,4.876-2.09,9.056c0,2.787,0.697,5.226,1.742,7.663
		c1.394,3.832,2.438,7.663,1.394,12.54c-2.438,11.146-16.023,20.899-27.518,20.899c-3.135-0.349-5.573-1.394-7.663-2.438
		c-4.876-3.483-5.573-8.36-4.528-11.843c0.696,1.393,3.483,3.831,5.921,4.527l0,0c0.697,0.349,1.393,0.349,2.09,0.349
		c3.832,0,5.225-3.135,5.225-6.618c0-2.09-0.349-3.832-2.09-5.225c-1.393-1.045-3.483-2.09-6.966-2.09l0,0l0,0l0,0
		c-0.697,0-1.394,0-1.742,0c-4.876,0-8.011,1.741-10.101,4.18c-2.438,2.786-3.832,6.27-3.832,10.102
		c-0.349,0.696-0.349,1.393-0.349,2.09c0,4.877,2.787,8.708,6.27,11.494c4.876,3.135,11.146,4.877,17.764,4.877
		c12.888-0.349,25.079-6.967,33.787-16.371c10.102-10.45,16.372-24.73,16.372-36.574c0-13.933-5.922-26.82-15.326-36.573
		c-9.057-9.405-21.944-15.326-35.877-15.326c-6.27,0-13.933,1.045-21.596,4.18c-5.921,2.438-11.843,6.27-17.068,11.146l-1.393,1.394
		l-1.393-1.045c-3.135-2.09-8.36-6.27-13.933-6.967c-4.18-0.348-8.36,1.045-11.843,6.618c3.135-0.349,6.618,0.349,9.405,1.741
		c2.438,1.394,4.528,3.136,5.573,5.573c0.696,1.742,1.393,3.136,1.393,5.226v44.236c0,2.09-1.045,4.18-3.135,5.922
		c-0.696,0.348-1.393,0.696-1.741,1.393c0.696,0.349,1.393,0.697,1.741,1.394c2.09,2.09,3.135,4.528,3.135,6.271v72.45
		c0,1.394-0.348,5.573-2.787,9.753C-149.293,980.836-152.776,983.622-159.046,984.318L-159.046,984.318z"/>
</g>
</svg>
