<svg xmlns="http://www.w3.org/2000/svg"><symbol viewBox="-192.7 303.1 160.2 187.1" id="abc"><title>abc</title><style>.st0{fill:#FFFFFF;} .st1{fill:#FFF22D;}</style><path d="M-163.7 461.7c-2.9-1.6-5.7-3.2-8.3-5.1-1.4-1-2.6-1.9-3.9-3-1.7-1.4-3.3-2.8-4.8-4.4-1.3-1.5-2.6-3-3.7-4.6-1.3-1.8-2.5-3.6-3.5-5.6-.8-1.5-1.5-3.1-2.1-4.6-.5-1.4-1-2.8-1.3-4.3-.5-2.5-.8-4.9-.9-7.4v-3.3l.2-3.3c.2-1.6.4-3.2.7-4.9.3-1.6.6-3.2 1-4.8.7-2.7 1.5-5.3 2.3-7.9 1.9-6.2 4.1-12.2 6.2-18.3 1-3.5 2.1-6.9 2.7-10.5.3-1.9.5-3.7.5-5.6 0-.7-.1-1.4-.1-2.1-.3-1.8-.7-3.5-1.2-5.2-.2-.7-.5-1.4-.7-2-1.4-3.4-3.2-6.5-5.2-9.7-2.2-3.6-4.6-7.1-6.9-10.6l26.7-31.3c2.5 1.4 4.9 2.8 7.4 4.1.5.3 1 .5 1.5.7 2.4 1.1 4.8 2 7.3 2.6 2.1.5 4.1.9 6.3 1.1.6 0 1.3.1 1.9.1 3.9.1 7.7-.3 11.5-1.2 1.2-.3 2.3-.6 3.5-1 3.7-1.3 7.2-3 10.8-4.8 1.1-.6 2.3-1.2 3.5-1.9 3.3 1.7 6.5 3.4 9.9 4.9 2 .8 4 1.6 6 2.2l2.3.6c2.6.6 5.3 1.1 8 1.1 1.7 0 3.4-.1 5-.2 2.1-.2 4-.5 6-1 1.6-.4 3.1-.9 4.6-1.4 1.8-.7 3.5-1.5 5.2-2.3l6.7-3.8 26.3 31.5-5.5 8.4c-.3.4-.5.9-.8 1.3-1.7 2.8-3.3 5.7-4.7 8.7-.7 1.6-1.3 3.2-1.8 5l-.3 1.3c-.4 1.9-.6 3.8-.5 5.8 0 .6 0 1.3.1 1.9.5 4.5 1.6 8.8 3 13.1 1.7 5.2 3.6 10.4 5.3 15.6 1 3.1 2 6.3 2.8 9.5.5 1.9.9 3.7 1.2 5.6.4 1.9.6 3.7.8 5.7.1 1.4.2 2.8.2 4.3v2.9c-.1 1.4-.2 2.8-.4 4.3l-.3 1.5c-.3 1.3-.6 2.6-1 3.8-.5 1.2-.9 2.4-1.4 3.6-.5 1.1-1.1 2.3-1.7 3.4l-2 3.2-2.3 3.1c-.8 1-1.6 1.9-2.5 2.8-.9.9-1.8 1.7-2.7 2.6-1.5 1.4-3.2 2.7-4.9 4-1 .7-2.1 1.5-3.1 2.1-1.5 1-3.1 1.9-4.6 2.7-1.8 1-3.6 1.9-5.5 2.8-7.7 3.6-15.7 6.7-23.5 10.4-2.3 1-4.5 2.1-6.7 3.3l-2.6 1.5c-1.3.8-2.5 1.5-3.7 2.4-3.8 2.8-7.4 5.9-11 9.1-3.5-3.1-6.9-6.1-10.7-8.8-.8-.5-1.5-1-2.3-1.6-4-2.6-8.3-4.7-12.7-6.7-7.5-3.4-15.2-6.4-22.7-9.9-.9-.5-1.9-1-2.9-1.5z"/><path class="st0" d="M-172.1 452.1c-2.3-1.8-4.5-3.6-6.4-5.8-1.4-1.5-2.6-3.1-3.8-4.8-1-1.5-1.9-3-2.7-4.6-.7-1.4-1.3-2.8-1.8-4.3-.4-1-.7-2.1-1-3.2-.3-1.2-.4-2.4-.6-3.6l-.2-3.1v-3.1c.1-1.5.2-3.1.4-4.6.2-1.6.5-3.1.8-4.6.3-1.5.7-3.1 1.1-4.6 1-3.6 2.1-7.2 3.3-10.8 2.3-6.7 4.8-13.4 6.6-20.3.6-2.5 1.1-4.9 1.4-7.4.1-1.5.1-2.9 0-4.4l-.1-1.2c-.3-2.3-.9-4.5-1.6-6.7-.6-1.7-1.4-3.4-2.1-5-1.4-2.7-3-5.4-4.7-8-1.5-2.4-3.1-4.7-4.6-7.1l23.1-27c2.1 1.2 4.1 2.3 6.2 3.4 2.6 1.3 5.4 2.2 8.2 3 1.6.4 3.2.7 4.8 1 2.1.3 4.2.4 6.3.4 1.6 0 3.3-.1 4.9-.4 1.6-.2 3.1-.5 4.7-.8 1.5-.4 3.1-.8 4.5-1.3 3-1 5.7-2.2 8.6-3.6 1.6-.8 3-1.6 4.6-2.4 3.2 1.7 6.6 3.4 10 4.8 1.6.6 3.2 1.2 4.8 1.7l1.7.5c3.1.8 6.4 1.4 9.7 1.5 1.8 0 3.6 0 5.4-.2 2-.2 3.9-.5 5.8-1s3.8-1 5.6-1.7c2-.7 3.8-1.6 5.7-2.5l4.2-2.4 22.6 27.1-3.9 6c-.4.5-.7 1.1-1 1.6-1.6 2.7-3.2 5.5-4.6 8.4-.8 1.8-1.6 3.6-2.1 5.4-.4 1.2-.6 2.4-.9 3.6-.1 1-.3 2-.4 3-.2 5.1.9 10.1 2.3 14.9 2.1 7.3 4.9 14.4 7.2 21.7 1 3.1 1.8 6.2 2.6 9.3.4 1.8.7 3.5 1 5.3.1 1.3.3 2.6.4 4 0 1.3.1 2.6.1 4l-.1 2.6-.5 3.9-.9 3.5c-.4 1.1-.8 2.2-1.3 3.2-.5 1.1-1 2.1-1.5 3.1-.6 1-1.2 2-1.8 2.9-.7 1-1.4 1.9-2.1 2.8-1 1.2-2 2.3-3.1 3.5-1.1 1.1-2.3 2.1-3.5 3.1-1.2 1-2.5 2-3.8 2.9-1.3.9-2.7 1.8-4.1 2.6-2.5 1.5-5 2.7-7.6 4-6.8 3.2-13.8 6-20.7 9.1-2.3 1-4.6 2.1-6.9 3.3-3.7 1.9-7.4 3.9-10.7 6.4-2.6 2-5.1 4.1-7.7 6.3-4.5-4-9.2-7.8-14.5-10.8-2.5-1.4-5-2.6-7.5-3.8-7.8-3.6-15.9-6.7-23.7-10.4-4.6-2.2-8.9-4.6-13-7.6l-1.1-.7z"/><path d="M-181.4 435.9L-42.8 337c-6.1 9.3-10.8 17.7-10.8 27.5 0 20.2 20.7 48.8 11.1 69.6-12.7 26.9-46.7 25.3-70 46.4-22.7-20.6-55.6-19.6-68.9-44.6zm1.3-37.9l119.7-85h.1l-.2-.3c-16.3 9.4-33.6 9-52-1.2-18.3 10.3-35.6 10.6-51.9 1.2l-19.2 22.5c6.6 10 12.3 18.8 12.3 29.3 0 9.9-4.8 21.7-8.8 33.5zm114.6-50l-2.6-3.7 3.7-2.6 2.6 3.7zm-7.2-4.2c1.3 2.1 1.7 4.3 1.1 6.6-.6 2.2-2.1 4.2-4.4 5.8-2.6 1.9-5.3 2.5-8 1.9-2.6-.6-5.1-2.4-7.2-5.4-2.2-3.1-3.1-5.9-2.7-8.7.4-2.7 2-5.1 4.8-7.1 2.3-1.6 4.5-2.4 6.7-2.2 2.1.2 4 1.2 5.6 3.2l-3.6 2.6c-.9-.9-1.9-1.4-2.9-1.5-1 0-2.2.4-3.3 1.2-1.6 1.1-2.5 2.6-2.6 4.2-.1 1.6.6 3.5 2 5.5s2.9 3.2 4.5 3.6c1.6.5 3.2.1 4.7-1 1.1-.8 1.8-1.7 2.1-2.8.3-1.1.2-2.2-.4-3.5l3.6-2.4zm-18.6 22.5l-2.6-3.7 3.7-2.6 2.6 3.7zm-11 7.8l-12.8-18 12.6-8.9 2.3 3.1-9 6.3 2.9 4.1 7.8-5.5 2.3 3.1-7.9 5.6 5.5 7.7zm-14.4 1c1.3 2.1 1.6 4.3 1.1 6.6-.6 2.2-2.1 4.1-4.4 5.8-2.6 1.9-5.3 2.6-8 2-2.7-.6-5.1-2.4-7.2-5.4-2.2-3.1-3.1-6-2.7-8.7.3-2.7 1.9-5.1 4.7-7.1 2.3-1.6 4.6-2.4 6.7-2.2 2.1.1 4 1.2 5.6 3.2l-3.6 2.6c-.9-.9-1.8-1.4-2.9-1.5-1.1 0-2.2.3-3.3 1.1-1.6 1.2-2.5 2.6-2.6 4.2-.1 1.6.5 3.5 2 5.5 1.4 2 2.9 3.1 4.5 3.6s3.2.1 4.8-1c1.1-.8 1.8-1.8 2.1-2.8.3-1.1.2-2.2-.4-3.5l3.6-2.4zm-29.1 30l-12.8-18.1 8.5-6c1.9-1.3 3.6-1.9 5.1-1.8 1.5.1 2.8.9 3.9 2.4.6.9 1 1.8 1.1 2.6 0 .9-.1 1.7-.6 2.6 1.2-.3 2.3-.2 3.2.1 1 .4 1.8 1.1 2.6 2.1 1.2 1.7 1.6 3.5 1.1 5.3-.5 1.7-1.7 3.4-3.8 4.9l-8.3 5.9zm-25.5-9l4.3-3 19.3 13.4-3.9 2.7-3.9-2.8-6.9 4.9 1.4 4.6-3.9 2.8z"/><path class="st1" d="M-84.1 426.4l-3.5 12.2 11.1-7.2 11.1 7.2-4.1-12.2 10-7.6h-12.4l-4.7-12.3-4.7 12.3h-12.6l9.8 7.6zm-85.2-90.1l-1.7 5.9 5.4-3.5 5.4 3.5-2-5.9 4.8-3.7h-5.9l-2.3-6-2.3 6h-6.1l4.7 3.7zm18 0l-1.7 5.9 5.4-3.5 5.4 3.5-2-5.9 4.8-3.7h-6l-2.3-6-2.3 6h-6.1l4.8 3.7zm18 0l-1.6 5.9 5.4-3.5 5.4 3.5-1.9-5.9 4.8-3.7h-6l-2.3-6-2.3 6h-6.1l4.6 3.7zm18 0l-1.7 5.9 5.3-3.5 5.4 3.5-2-5.9 4.9-3.7h-6l-2.3-6-2.3 6h-6l4.7 3.7z"/><path class="st0" d="M-150.1 391.6l4.2-3c1-.6 1.5-1.3 1.7-1.9.2-.6 0-1.2-.4-1.9-.5-.7-1-1-1.6-1-.6 0-1.4.3-2.4 1l-4.2 3 2.7 3.8zm5.5 7.8l4.4-3.1c1-.8 1.7-1.5 1.9-2.2.2-.7 0-1.5-.5-2.3-.6-.9-1.2-1.3-2-1.3s-1.6.3-2.7 1.1l-4.4 3.1 3.3 4.7zm-22-1.2l3 9.4 5-3.5z"/></symbol><symbol viewBox="-192.8 308.7 160.4 175.7" id="america-mg"><title>america-mg</title><style>.st0{fill:#FFFFFF;} .st1{fill:#55AB55;}</style><path class="st0" d="M-112.8 310.9s37.8 25.1 77.3 7.8c14.6 120.7-77.7 163.6-77.7 163.6s-87.1-38.3-77.5-163.6c47.8 17.7 77.9-7.8 77.9-7.8z"/><path class="st1" d="M-188.9 317.1c10.9 4.7 22.4 7.1 34.8 6.1 12.5-1 25.8-5.3 40.5-13.9l1-.6 1 .6c14.6 8.6 28 12.9 40.5 13.9 12.4 1 23.9-1.4 34.8-6.1l2.5-1.1.3 2.7c1 9.7 1.4 19.1 1.2 28.4-.2 9.3-1 18.4-2.5 27.3-7.5 45.8-31.9 85-76.7 109.5l-.9.5-.9-.5c-8.7-4.7-16.6-10-23.8-15.7-7.2-5.8-13.6-12.1-19.4-18.8-29.4-34.7-39.9-81.1-34.8-130.7l.3-2.7 2.1 1.1zm35.1 10.1c-12.1.9-23.4-1.1-34.2-5.4-4.3 47.6 6 92 34.2 125.1 5.6 6.6 11.8 12.7 18.8 18.3 6.7 5.4 14.2 10.4 22.3 14.8 43-23.9 66.5-61.9 73.8-106.2 1.4-8.7 2.2-17.6 2.4-26.8.2-8.3-.1-16.8-.9-25.3-10.7 4.3-22 6.4-34.2 5.4-12.7-1-26.3-5.3-41.2-13.8-14.6 8.6-28.3 12.9-41 13.9z"/><path class="st1" d="M-132.4 366.8h37.8c10.2 21.6 16.1 43.7 16.5 66.3-2.1 4.5-7.1 4.6-8.8 0 .1-5.7-.4-11.7-2.2-18.4h-48.4c-1 6.1-1.5 12.3-1.5 18.4-1.3 4.8-6.8 4.5-8.9 0 .7-24 5-46.3 15.5-66.3z"/><path class="st0" d="M-136.8 406.9h46.2c-1.3-11.3-4.9-21.8-9.2-32H-127c-5 10.1-7.7 20.9-9.8 32z"/><path class="st1" d="M-111.8 389.6h32.3c3.6 2.4 3.6 5.1 0 8.1h-34.1l1.8-8.1z"/><path class="st1" d="M-136.1 334c-4.1 1.7-3.8 6.4 0 7.7h18.3v112c1.5 5.4 8 4 8.8 0l-.4-112h26.8c4.2-1.2 4.2-6.6 0-7.7h-53.5z"/><path class="st1" d="M-82.9 367.4c-30.8-28.6-65.5-6.7-67.5 23.9.4 30 36.7 55.2 69.4 22.8 4.8-1.6 7.6 1.5 5.5 5.9-47.2 42.8-84.5-3.7-82.9-28-.9-35.4 44.5-65.7 80.6-30.1 1.5 4.5-1.1 7.1-5.1 5.5z"/></symbol><symbol viewBox="-23 95.4 565 603.6" id="atletico-go"><title>atletico-go</title><style>.st0{fill:none;} .st1{fill:#FFFFFF;} .st2{fill:#EE4120;}</style><g id="svgstore19051296e0cace12de452fe03cb2a2belayer1"><g id="svgstore19051296e0cace12de452fe03cb2a2beg3517"><path id="svgstore19051296e0cace12de452fe03cb2a2bepath2660" d="M120.25 496.55l-143.2-202.5V95.45h565v198.5l-135.2 196.4c-74.3 108.1-137 199.2-139.2 202.6l-4.1 6.1-143.3-202.5zm274.8-17.2l131-190.5v-177.6h-533v177.6l132.6 187.4c73 103.1 133.6 188.9 134.7 190.7 1.2 1.8 2.5 3.1 2.9 3 .5 0 59.8-85.9 131.8-190.6zm-122-19.3v-158.7h111.1c88.6 0 110.9.3 110.3 1.2-1.6 2.7-219.6 314.3-220.4 315.2-.7.6-1-63.5-1-157.7zm-258-251.7v-79h489v158h-489v-79zm473 .5v-62.5h-457v125h457v-62.5zm-255.7 50.4c-27.6-4.6-43.4-28.9-36.8-56.8 4-16.9 16.7-28.7 35.3-32.6 17.6-3.7 36.2.3 47.2 10.2 3.6 3.2 10 14.1 10 16.8 0 .6-5.2 2.2-11.8 3.5-6.5 1.3-12.2 2.5-12.8 2.7-.6.2-2-1.9-3.3-4.6-3-6.5-8-9.1-17.6-9.1-14.2 0-21.5 8.3-21.6 24.2-.1 16.6 7.4 25.8 21.2 25.8 10 0 15.3-3.6 18.7-12.6 1-2.7 2.2-4.9 2.7-4.9s6.2 1.3 12.6 3c11.5 2.9 11.8 3 11.2 5.5-2.4 10.1-13.2 22.2-22.9 25.9-10 3.8-21.2 4.8-32.1 3zm140.2-.4c-13.6-2.8-25.2-10.3-31.7-20.5-6-9.4-8.3-23.7-5.7-34.9 2.5-10.9 10.5-21.7 20.1-27.4 14.7-8.6 39-10.1 56.6-3.6 8 3 17.3 12.2 19.7 19.6 1 2.9 1.6 5.5 1.3 5.8-.5.5-24.9 4.6-25.3 4.2-.1-.1-1-1.8-1.9-3.8-2.7-5.8-7.7-8.4-16.9-8.9-10.4-.5-16 1.2-21.3 6.3-5.2 5-6.8 10.3-6.2 20.3.6 9.8 3.7 15.7 10.2 19.8 4.6 2.8 5.4 3 15.4 3 8.8 0 11.4-.4 15.3-2.2 4.2-1.9 4.8-2.6 4.8-5.2v-3.1h-23v-20h50l-.3 19.2-.3 19.2-9 4.5c-5 2.5-12.4 5.4-16.5 6.4-9.9 2.6-26.4 3.2-35.3 1.3zm-321.4-11.2c2.8-5.9 12-25.7 20.6-44l15.6-33.3 12.9.3 12.9.3 21.4 43.8 21.4 43.8h-28.4l-4.3-9-4.3-9h-36.6l-3.9 9-3.9 9h-28.4l5-10.9zm57.9-28.7c0-1.2-8.2-17.6-8.8-17.6-.6 0-5.2 9.9-7.9 16.8-.4.9 1.6 1.2 8.1 1.2 4.7 0 8.6-.2 8.6-.4zm53 28.4v-11h25v22h-25v-11zm136 0v-11h26v22h-26v-11zm148 0v-11h25v22h-25v-11z"/><path id="svgstore19051296e0cace12de452fe03cb2a2bepath3490" class="st1" d="M260.55 667.15c-1.2-1.8-61.8-87.6-134.7-190.7l-132.7-187.3v-177.6h533v177.4l-130.9 190.5c-72 104.8-131.3 190.6-131.8 190.7-.4.1-1.8-1.2-2.9-3zm-7.9-365.5c-.4-1-23.6-1.2-111.6-1.2-98.8 0-111.1.2-110.6 1.5.6 1.6 217.9 312.7 220.5 315.8 1.5 1.7 1.6-11.3 1.9-156.5.2-87 .1-158.9-.2-159.6zm131.7 158.8c60.1-86.1 109.7-157.1 110.1-157.8.6-1-21.7-1.2-110.3-1.2h-111v158.7c0 94.2.4 158.3.9 157.8.5-.6 50.1-71.4 110.3-157.5zm119.8-252v-79h-489v158h489v-79zm-473 .5v-62.5h457v125h-457v-62.5zm221.8 50.5c10.2-1.7 16.7-4.6 23-10.5 5.4-5 10.3-12.8 11.7-18.5.6-2.5.3-2.6-11.2-5.5-6.5-1.6-12.2-3-12.6-3s-1.7 2.2-2.7 4.9c-3.4 9.1-8.7 12.6-18.7 12.6-13.8 0-21.3-9.2-21.2-25.8.1-15.9 7.5-24.2 21.6-24.2 9.6 0 14.6 2.6 17.6 9.1 1.2 2.7 2.7 4.8 3.3 4.6.6-.2 6.3-1.4 12.8-2.7 6.6-1.3 11.8-2.9 11.8-3.5 0-2.8-6.4-13.6-10-16.8-13.9-12.6-40.1-15.3-59.4-6.1-7.2 3.4-15.4 11-18.9 17.2-7.2 13.2-7.5 32.1-.7 45.3 8.6 17.2 30.7 26.6 53.6 22.9zm155.2-1.6c4.1-1 11.5-3.9 16.5-6.4l9-4.5.3-19.2.3-19.2h-50v20h22.9v3.1c0 2.7-.6 3.3-4.8 5.2-3.9 1.8-6.6 2.2-15.3 2.2-10 0-10.8-.2-15.4-3-6.5-4-9.6-10-10.2-19.8-.6-10 1-15.3 6.2-20.3 5.3-5.1 10.9-6.8 21.3-6.3 9.2.4 14.1 3 16.9 8.9.9 1.9 1.7 3.6 1.9 3.8.3.4 24.7-3.7 25.3-4.2.2-.2-.3-2.8-1.3-5.8-2.5-7.4-11.8-16.7-19.7-19.6-17.6-6.6-41.9-5-56.6 3.6-24.7 14.5-28.5 50.2-7.6 70.6 5.1 5 16.2 10.4 24.9 12.2 8.8 1.6 25.4 1.1 35.4-1.3zm-329.6-8.4l3.9-9h36.4l4.3 9 4.3 9h28.4l-21.4-43.8-21.2-43.7-12.9-.3-12.9-.3-15.6 33.3c-8.6 18.3-17.8 38.1-20.6 44l-5 10.8h28.4l3.9-9zm13.8-31.3c2.7-6.9 7.3-16.7 7.9-16.7.6 0 8.8 16.4 8.8 17.6 0 .2-3.9.4-8.6.4-6.4 0-8.4-.3-8.1-1.3zm94.8 29.3v-11h-25v22h25v-11zm137 0v-11h-26v22h26v-11zm147 0v-11h-25v22h25v-11z"/><path id="svgstore19051296e0cace12de452fe03cb2a2bepath3505" class="st2" d="M250.95 617.95c-2.7-3.1-219.9-314.3-220.5-315.9-.5-1.3 11.8-1.5 110.6-1.5 88 0 111.2.3 111.6 1.2.3.7.4 72.5.2 159.6-.3 145.3-.4 158.3-1.9 156.6z"/></g></g></symbol><symbol viewBox="-200.4 308.7 175.6 175.7" id="bahia"><title>bahia</title><style>.st0{fill:#2762A6;} .st1{fill:#FFFFFF;} .st2{fill:#CD3529;}</style><path class="st0" d="M-200.4 484.5zm87.9-.2c48.3 0 87.7-39.5 87.7-87.8s-39.4-87.8-87.7-87.8c-48.4 0-87.8 39.5-87.8 87.8 0 48.4 39.5 87.8 87.8 87.8z"/><path class="st1" d="M-193.9 396.6c0 44.9 36.6 81.5 81.6 81.5 44.9 0 81.5-36.6 81.5-81.5 0-45-36.6-81.6-81.5-81.6-45 0-81.6 36.6-81.6 81.6zm5.1 0c0-42.2 34.3-76.5 76.5-76.5 42.1 0 76.4 34.3 76.4 76.5 0 42.1-34.3 76.4-76.4 76.4-42.2.1-76.5-34.2-76.5-76.4z"/><path class="st1" d="M-112.3 442.2c-25.1 0-45.5-20.4-45.5-45.4s20.4-45.4 45.5-45.4c24.9 0 45.4 20.4 45.4 45.4s-20.5 45.4-45.4 45.4z"/><path class="st1" d="M-166.6 396.8c0 29.8 24.3 54.1 54.1 54.1s54-24.3 54-54.1-24.3-54.1-54-54.1c-29.8 0-54.1 24.3-54.1 54.1zm5 0c0-27.1 22-49.1 49.1-49.1 27 0 49 22 49 49.1s-22 49.1-49 49.1-49.1-22-49.1-49.1z"/><path class="st2" d="M-144.8 361.4c17.2-8.1 25.5.2 38.1 1.6 11.6 4.3 22.6-.7 33.1-2.2-8.3 33.7 3.6 48.9 5.6 73.3-23.3-1.1-42.1-16.4-69.7-2.9 3.2-23.4.6-46.9-7.1-69.8z"/><path class="st1" d="M-108.1 362.5v16.4h32l2.7-18.2c-13.4 3.1-24.2 5.2-34.7 1.8zm68.6 44.5l.5-3.1-9.1-1.4-6-.9-.4-.1-.4 3.1.8.2 5.9.9-.9 6.1-5-.8-1.8-.3-.5 3.1 2.3.4 6 1 7.2 1.1.5-3.1-6.1-1 .9-6.1zm-14.6 10.9l-3.8-1.3-1 2.9 4.8 1.7 6 2.1 4 1.3 1-2.9-5-1.7zm0-33.1l-1-.3.1 3.3.9.3 2.7.9.2 6.2-2.9 1.2-.5.3.1 3.4.4-.2 6-2.7 8.9-3.9-.1-3.3-8.8-3.1-6-2.1zm11.3 6.9l-5.2 2.1-.5.3-.2-4.3.7.3 5.2 1.6zm-16.4 29.4l-1.7 2.9 2.4 2.9-3.2 5.3-3.7-.6-1.8 2.9 13.2 2.2 3.4.5 1.7-2.9-5.2-6.6-5.1-6.6zm6.3 12.8l-1.2-.3-4.9-.9 2.2-3.6 2.7 3.3 1.2 1.5zm-9.9-72.4l-5.8-6.5 3.1-2.8 5.2 5.8 2-1.7-5.3-5.9 2.6-2.3 5.7 6.2 1.2-1.1.7-.6-.7-.8-7-7.8-9.5 8.5-2.1 1.9 2.1 2.4 5.8 6.5zm2.3 9.8l1.9 5c.7 1.9 1.2 3.1 1.5 3.6.4.7.9 1.3 1.4 1.7.4.3 1 .5 1.6.6h.4c.7.1 1.4 0 2.1-.2.9-.4 1.5-.9 1.9-1.6.4-.7.6-1.6.6-2.5.3.3.6.5 1 .7.3.1.6.2.9.2.7.2 1.4.1 2-.1.6-.2 1.2-.6 1.6-1.1.4-.5.7-1.1.8-1.6.1-.6.1-1.1 0-1.7s-.4-1.5-.9-2.6l-2.2-5.8-2.2.8-6 2.3-6.4 2.3zm12.4-1.4l.9-.3.7 1.7.9 2.5c.1.6.1 1-.1 1.3-.2.4-.5.6-.9.8-.5.2-.9.2-1.3 0h-.1c-.3-.2-.6-.6-.9-1-.1-.2-.4-.9-.9-2.1l-.7-1.9 2.4-1zm-4.8 1.9l.9 2.4c.5 1.4.7 2.2.7 2.7.1.5-.1.8-.3 1.2-.2.3-.5.5-1 .7-.5.2-.9.2-1.4.1 0 0 0-.1-.1-.1-.4-.2-.6-.4-.9-.8-.2-.2-.5-.9-.9-2l-1-2.7 2.8-1.1 1.2-.4zM-72 348.4c.4-.8.6-1.6.5-2.4-.1-.9-.5-1.6-1.2-2.4.7 0 1.4-.1 2-.3l.1-.1c.6-.3 1.2-.8 1.6-1.4.3-.5.5-1.2.5-1.8 0-.6-.1-1.2-.3-1.7-.3-.5-.6-1-1.1-1.4-.2-.2-.4-.4-.7-.5-.4-.3-.9-.6-1.6-1.1l-2.6-1.6-2.7-1.6-7.1 11.8-1 1.6 1 .6 3.6 2.2c1.7 1 2.8 1.6 3.3 1.9.8.3 1.6.5 2.2.4.2 0 .4-.1.7-.1.4-.1.9-.3 1.3-.6.6-.3 1.1-.9 1.5-1.5zm-2.7-1.8v.1c-.3.4-.6.7-1 .8-.4.1-.9.1-1.3-.1-.3 0-.9-.4-1.9-1l-2.5-1.5 2.2-3.5 2.2 1.3c1.2.7 2 1.2 2.3 1.6 0 0 .1 0 .1.1.2.3.4.7.4 1-.1.4-.3.8-.5 1.2zm.5-5.3c-.1-.1-.3-.1-.5-.2-.3-.3-.8-.5-1.4-.9l-1.8-1.1 1.9-3.1 1.4.8.2.1c1.3.7 2.1 1.2 2.3 1.4.4.3.7.7.7 1 0 .4 0 .8-.3 1.2-.3.4-.6.7-1.1.8-.5.3-.9.2-1.4 0zm-9.4-12l-.9-.3-2.1-.7-2.9 8.1c-.4 1.2-.7 2-1 2.5-.3.5-.7.8-1.2 1-.5.3-1.2.2-2.1-.1-.9-.2-1.4-.7-1.8-1.2-.4-.5-.5-1.1-.4-1.7 0-.4.2-1.2.7-2.5l2.8-8-3-1-2.7 7.9c-.5 1.7-.9 2.9-1 3.8 0 .6 0 1.2.3 1.9.2.7.7 1.3 1.2 1.9.6.5 1.6 1.1 3 1.6 1.2.4 2.2.6 3.1.5.8 0 1.5-.2 2.1-.5.6-.4 1.1-.9 1.6-1.5.4-.7.9-1.9 1.5-3.7l1.7-5 1.1-3zm-62.5 17.7l-2.1-3.6 6.6-4.1-1.3-2.2-6.7 4-1.8-3 7.2-4.3-1.3-2.2-8.5 5-1.4.9 1.4 2.5 6.5 10.9 10.2-6.1-1.3-2.3zm25-10.3c-.5.6-1.2 1-2 1.1-1.1.2-2.1-.1-3-.8-.8-.7-1.4-2.1-1.7-4-.3-1.9-.2-3.2.4-4.2.5-.9 1.4-1.5 2.6-1.7.8-.1 1.6 0 2.2.4.7.4 1.2.9 1.5 1.7l2.9-1.2c-.5-1.2-1.2-2-2-2.6-1.4-.9-3-1.2-4.9-1-2.2.4-3.8 1.4-4.9 3-1.1 1.6-1.4 3.7-1 6.3.4 2.4 1.3 4.2 2.9 5.4 1.6 1.2 3.3 1.6 5.4 1.3 1.7-.3 3-.9 3.9-1.9.9-1 1.5-2.4 1.7-4.1l-3.2-.5c0 1.3-.3 2.1-.8 2.8zm11.2-12.8h-3.1l-.6 15.4 11 .4.1-2.6-7.9-.3zm-52.5 23l3-3.5-2.1-1.8-2.2 2.7-5.7 6.8 2 1.8 3-3.6.7.6 9.3 7.7.4-.6 1.5-1.8-1.5-1.3zm-1.3 14.8c-.4.1-.8.1-1 .2-.6.2-1.3.4-2 .9.5-1.3.5-2.4.2-3.4s-1-1.7-2.1-2.3c-.8-.5-1.6-.7-2.5-.6-.3 0-.6.1-.9.2-.4.1-.9.4-1.2.7-.6.5-1.4 1.5-2.2 3l-3.1 5.8 6.6 3.6 7.1 3.9 1.1-2.1.4-.7-.4-.2-5.3-3 .3-.6c.3-.6.6-1 .9-1.3.3-.3.6-.4 1-.5.4-.1 1.4-.3 2.8-.4h.3l3.8-.3 1.9-3.3-3.6.2c-.9.1-1.6.2-2.1.2zm-5.2.2c-.1.4-.5 1.3-1.2 2.6l-1.2 2.1-.7-.4-2.8-1.5 1.2-2.2 1.1-2 .4-.4c.3-.1.5-.2.7-.3.4 0 .9 0 1.4.3.4.2.7.5.9.9.2.2.3.5.2.9zm4.7 59.6l-2.3 1.4 2.8 4.7 1.7 2.7-1.7 1.1-2 1.2-4-6.8-2.2 1.4h-.1l.1.1 3.9 6.6-2.9 1.8-1-1.7-3.3-5.5-2.3 1.3 5.6 9.4.3.6 7.9-4.8 5.5-3.3-5.5-9.3zm-7.7-16.2l2.6-.2-.2-3.1-2.4.2-3.5.2-.1-2.1c-.1-1.4-.2-2.5-.4-3.3-.2-.5-.5-1.1-.9-1.6s-1-.9-1.6-1.2c-.6-.2-1.2-.4-1.9-.4h-.5c-1.2.1-2.2.5-3 1.1-.7.6-1.2 1.4-1.4 2.3-.1.6-.1 1.9 0 3.8l.3 5 4.5-.3 8.5-.4zm-10.6-2.4l-.1-1.6c-.1-1.1-.1-1.9 0-2.2 0-.5.2-1 .5-1.4.4-.3.8-.5 1.4-.5h.3c.4 0 .7.1.9.2.4.2.7.5.9.9.2.4.3 1.2.4 2.5v1.7l-2.3.1-2 .3zm6.3 19.6c1.2-.4 2.1-1.2 2.6-2.3.4-.8.5-2.1.4-3.9 0-1.4-.1-2.2-.1-2.6 0-.5.1-1 .3-1.3.2-.3.4-.5.8-.6.1 0 .2-.1.4-.1.5 0 .9.1 1.3.4.5.4 1 1 1.3 2 .3.9.3 1.7 0 2.4s-.9 1.2-1.8 1.7l1.2 2.9c1.6-.8 2.7-1.7 3.2-3.1.5-1.3.5-2.9-.1-4.8-.4-1.3-.9-2.3-1.6-3-.6-.8-1.4-1.2-2.3-1.5-.4 0-.8-.1-1.2-.1-.4 0-.9.1-1.4.2-.9.3-1.7.8-2.2 1.4-.5.6-.9 1.3-1 2.2-.1.8-.1 2 0 3.5.1 1.6 0 2.6-.1 3.1-.1.4-.4.6-.7.7-.4.1-.7.1-1.1-.2-.5-.4-.9-1-1.2-1.9-.2-.9-.3-1.6-.1-2.1.2-.6.7-1 1.4-1.4l-1.1-3c-.4.1-.7.3-1 .4-.8.5-1.4 1.2-1.8 2.1-.6 1.2-.5 2.7.1 4.7.4 1.1.9 2.1 1.5 2.7.1 0 .1.2.2.2.6.6 1.2.9 1.9 1.1.6.4 1.4.4 2.2.2zm-6.7-37.5c.4.8 1 1.4 1.6 2 .3.3.6.4.8.6.8.5 1.7.9 2.9 1.2 2.2.6 4 .6 5.6-.1l.6-.3c1.7-.9 2.9-2.5 3.6-4.7.6-2.2.4-4.1-.6-5.9-.7-1.3-1.9-2.3-3.6-3-.4-.2-1-.4-1.6-.5-2.4-.7-4.5-.6-6.2.4-.3.1-.4.3-.7.4-1.4 1-2.4 2.4-2.9 4.3-.3 1.2-.4 2.4-.3 3.4.1.7.4 1.5.8 2.2zm2.1-5c.1-.3.2-.5.3-.8.4-.8 1-1.4 1.8-1.8 1.1-.5 2.5-.5 4.2 0 1 .3 1.9.7 2.5 1.2.5.3.8.7 1.1 1.1.6 1 .7 2.2.4 3.3-.2.9-.8 1.7-1.6 2.2-.2.1-.4.2-.6.4-1.1.6-2.5.6-4.2.1-1.7-.5-2.9-1.2-3.6-2.2 0 0 0-.1-.1-.2-.4-1-.5-2.1-.2-3.3zm85.1 71.7l-2.3.6c0 1.1-.5 2-1.1 2.9-.6.9-1.2 1.5-1.9 1.9-.1.1-.1.1-.2.1l.2.7.5 1.9c1.3-.9 2.3-1.9 3.1-3.2l2.9 10.9 2.8-.7-4-15.1zm-6.1 10.6c-.6-.6-1.3-1-2.2-1.2 1.5-.9 2.2-2 2.1-3.4 0-1-.5-1.9-1.2-2.5-.9-.9-2.2-1.3-3.6-1.2-.9 0-1.6.2-2.3.6-.6.4-1.2.8-1.5 1.4-.4.5-.6 1.3-.7 2.3l2.7.3c0-.7.2-1.2.6-1.6.3-.4.7-.5 1.2-.5.5-.1 1 0 1.3.4.3.3.5.8.6 1.2 0 .6-.2 1.1-.6 1.6-.4.4-1 .6-1.8.6l-.2 2.4c.5-.2 1-.3 1.4-.3.5 0 1.1.2 1.5.6.4.4.7 1 .7 1.7 0 .8-.1 1.4-.5 1.9s-.9.7-1.6.8c-.6 0-1-.1-1.5-.5-.4-.4-.7-.9-.8-1.7l-2.9.5c.3 1.3.8 2.4 1.8 3.1 1 .7 2.1 1.1 3.6 1 1.5-.1 2.6-.6 3.7-1.7.5-.6.9-1.2 1.1-1.9.1-.6.2-1.1.2-1.7 0-.5-.1-.8-.2-1.1-.3-.3-.5-.7-.9-1.1zm-15.6-8.3h-.3c-1.3 0-2.4.4-3.3 1.3-1 .9-1.6 2.2-1.6 3.7s.3 2.8 1.1 3.8c.9 1 1.9 1.5 3.1 1.6.3.1.6 0 .7 0 .8-.1 1.6-.5 2.2-1.1-.2 1.7-.5 2.9-1 3.5-.3.4-.7.6-1.1.7h-.5c-.5 0-.9-.2-1.1-.5-.3-.3-.4-.8-.5-1.3l-2.9.2c.1 1.3.5 2.3 1.3 3 .7.7 1.7 1 2.9 1.1h.8c1.4-.1 2.5-.7 3.4-1.7 1.1-1.2 1.7-3.2 1.9-6.1.1-2.8-.2-4.8-1.2-6.1-1-1.4-2.3-2.1-3.9-2.1zm1.1 7.6c-.4.4-.8.5-1.4.5h-.1c-.5 0-1-.2-1.4-.7-.4-.5-.5-1.2-.5-2.2 0-1 .3-1.7.7-2.2.4-.4.9-.6 1.4-.6h.1c.5.1 1 .3 1.5.9.4.5.6 1.3.6 2.3-.2.9-.5 1.6-.9 2zm-12.2-6.9c-1.1.4-2.1.7-2.9.7l-.7 2.6c1.6 0 3-.4 4.3-1.2l-3 10.9 2.9.8 4.1-15.1-2.4-.6c-.4.7-1.2 1.4-2.3 1.9zm52.7-1.8c2.4 0 4.3-1.9 4.3-4.3s-1.9-4.3-4.3-4.3c-2.3 0-4.2 1.9-4.2 4.3s1.9 4.3 4.2 4.3zm-74.1 1.6c2.3 0 4.2-1.9 4.2-4.3s-1.9-4.3-4.2-4.3c-2.4 0-4.3 1.9-4.3 4.3.1 2.3 2 4.3 4.3 4.3zm3.9-96.4l-7.2.9 11 95.5 8-.9-11-95.6z"/><path class="st0" d="M-67.3 434c-.7-8.1-2.5-15.2-4.1-22.2-3.5-14-7-28.5-1.5-50.9l.2-.9-.9.1c-2.8.4-5.6 1.1-8.4 1.7-7.9 1.8-16 3.7-24.4.6h-.2c-3.7-.4-7.1-1.5-10.4-2.5-7.8-2.4-15.8-4.8-28 1l-.5.2.2.5c7.8 23.4 10.2 46.7 7.1 69.5l-.1 1.1 1.1-.5c18.3-8.9 32.3-5.2 47.2-1.2 7.1 1.9 14.5 3.8 22.3 4.2h.7l-.3-.7zm-22.6-4.7c-14.2-3.8-28.8-7.6-47 .9.8-6.1 1.2-12.3 1.2-18.4v-1.3c0-4.4-.3-8.8-.7-13.3 9.1-3.5 18.6-4.7 28.8-3l-.2-30.7c.3 0 .7.1 1 .1 8.7 3.2 17 1.3 25.1-.5 2.6-.6 5-1.1 7.4-1.5-1.9 8.2-2.7 15.3-2.7 21.7 0 4.7.4 9 1 13.2.8 5.4 2 10.4 3.2 15.3 0 .1.1.3.1.5 1.6 6.7 3.3 13.6 4.1 21.3-7.4-.7-14.4-2.5-21.3-4.3z"/><path class="st0" d="M-152.2 359.7l10.8 93.8 6.3-.7-10.8-93.8z"/><path class="st1" d="M-72.8 411.6c-1.2-4.9-2.4-9.9-3.2-15.3-10.7.5-31.6-2.2-31.6-2.2-10.2-1.8-19.7-.5-28.8 3 .4 4.4.7 8.9.7 13.3 22.5-5.7 41.1 2.3 62.9 1.2zm-52.3-20.6c-6.6 0-11.9-6.4-11.9-14.2 0-7.9 5.3-14.3 11.9-14.3 6.5 0 11.9 6.4 11.9 14.3 0 7.8-5.3 14.2-11.9 14.2z"/><path class="st2" d="M-131.6 369.1c3.4-1.6 5.1 0 7.6.3 2.3.9 4.5-.1 6.6-.5-1.6 6.7.7 9.8 1.1 14.7-4.7-.2-8.4-3.3-14-.6.8-4.6.3-9.3-1.3-13.9z"/><path class="st1" d="M-124.2 369.3v3.3h6.4l.5-3.6c-2.7.6-4.8 1-6.9.3zm-7.6-.9l-1.4.2 2.2 19.1 1.6-.2-2.2-19.1z"/><path class="st0" d="M-116.1 383.6c-.1-1.6-.5-3.1-.8-4.4-.7-2.8-1.4-5.7-.3-10.2v-.2h-.2l-1.7.3c-1.6.4-3.2.7-4.9.1-.7-.1-1.4-.3-2.1-.5-1.6-.5-3.1-1-5.6.2h-.1v.1c1.6 4.7 2 9.4 1.4 13.9v.2l.2-.1c3.6-1.8 6.5-1 9.4-.2 1.4.4 2.9.8 4.4.8h.3zm-4.5-.9c-2.8-.7-5.8-1.5-9.4.2.1-1.2.2-2.4.2-3.7v-.3c0-.9-.1-1.8-.1-2.7 1.8-.7 3.7-1 5.7-.6v-6.1h.2c1.7.6 3.4.3 5-.1l1.5-.3c-.4 1.6-.5 3.1-.5 4.3 0 1 .1 1.8.2 2.6.2 1.1.4 2.1.6 3.1v.1c.3 1.3.7 2.7.8 4.2-1.4 0-2.8-.4-4.2-.7z"/><path class="st0" d="M-133 368.8l2.1 18.7 1.3-.1-2.2-18.8z"/><path class="st1" d="M-117.2 379.1c-.2-1-.5-2-.6-3.1-2.1.1-6.3-.5-6.3-.5-2-.4-3.9-.1-5.7.6.1.9.1 1.8.1 2.7 4.5-1 8.2.6 12.5.3zm-10.4-4.1c-1.3 0-2.4-1.3-2.4-2.8 0-1.6 1.1-2.9 2.4-2.9 1.3 0 2.4 1.3 2.4 2.9 0 1.5-1.1 2.8-2.4 2.8z"/></symbol><symbol viewBox="-161 247 288.4 300" id="boa_esporte"><title>Boa Esporte Clube</title><style>.st0{fill:#048546;} .st1{fill:#FFFFFF;} .st2{fill:#E63135;}</style><path class="st0" d="M-16.8 286.1C43.3 286.1 92 334.4 92 393.9S43.3 501.7-16.8 501.7s-108.7-48.3-108.7-107.8 48.7-107.8 108.7-107.8z"/><path class="st1" d="M-18.3 247.1l35.6 103.8 109.9-1.2-88 65.1L75.6 521l-91.1-65.8-88.6 66.8 32.5-105.5-89.3-64.3 109.5-1 33.1-104.1z"/><path class="st2" d="M-18.1 261.8l32.7 93.3 97.9-.7-78 59.6 31.3 92.9-81.3-57-79 58.8 28.4-94.1-80.4-57.6 98.2-1.3 30.2-93.9z"/><path class="st1" d="M-16.1 349.6c26.8 0 48.6 21.8 48.6 48.6s-21.8 48.6-48.6 48.6-48.6-21.8-48.6-48.6 21.8-48.6 48.6-48.6z"/><path class="st2" d="M-63.5 504.3h17.3c2.9 0 5.1.7 6.6 2.1 1.5 1.4 2.3 3.2 2.3 5.3 0 1.8-.6 3.3-1.7 4.6-.7.8-1.8 1.5-3.2 2 2.1.5 3.7 1.4 4.7 2.7 1 1.3 1.5 2.8 1.5 4.7 0 1.6-.4 2.9-1.1 4.2-.7 1.2-1.7 2.2-3 2.9-.8.4-1.9.8-3.5 1-2.1.3-3.5.4-4.1.4h-16l.2-29.9zm9.4 11.7h4c1.4 0 2.4-.3 3-.7.6-.5.8-1.2.8-2.2 0-.9-.3-1.6-.8-2-.6-.5-1.6-.7-3-.7h-4.1v5.6h.1zm0 11.8h4.7c1.6 0 2.7-.3 3.4-.8.7-.6 1-1.3 1-2.3 0-.9-.3-1.6-1-2.1-.6-.5-1.8-.8-3.4-.8h-4.7v6zm22-8.5c0-4.9 1.4-8.7 4.1-11.4 2.7-2.7 6.5-4.1 11.4-4.1 5 0 8.8 1.3 11.5 4 2.7 2.7 4 6.4 4 11.2 0 3.5-.6 6.4-1.8 8.6-1.2 2.2-2.9 4-5.1 5.2-2.2 1.2-5 1.9-8.3 1.9-3.4 0-6.2-.5-8.4-1.6s-4-2.8-5.4-5.1c-1.3-2.3-2-5.2-2-8.7zm9.3 0c0 3 .6 5.2 1.7 6.5 1.1 1.3 2.7 2 4.6 2 2 0 3.5-.6 4.6-1.9 1.1-1.3 1.6-3.6 1.6-7 0-2.8-.6-4.9-1.7-6.2-1.1-1.3-2.7-1.9-4.6-1.9-1.9 0-3.4.7-4.5 2-1.2 1.3-1.7 3.5-1.7 6.5zm43.7 10H10.4l-1.5 4.9H-.5l11.3-29.9h10.1l11.3 29.9h-9.7l-1.6-4.9zm-1.9-6.5L15.7 512l-3.3 10.8H19zm-53.5-151.4h26.8c4.5 0 7.9 1.2 10.3 3.6 2.4 2.4 3.6 5.3 3.6 8.8 0 2.9-.9 5.5-2.6 7.6-1.1 1.4-2.8 2.5-5 3.3 3.3.9 5.8 2.3 7.3 4.4 1.6 2.1 2.3 4.7 2.3 7.9 0 2.6-.6 4.9-1.7 7-1.1 2.1-2.6 3.7-4.6 4.9-1.2.7-3 1.3-5.4 1.6-3.2.5-5.4.7-6.4.7h-24.6v-49.8zm14.4 19.5h6.2c2.2 0 3.8-.4 4.7-1.2.9-.8 1.3-2 1.3-3.6 0-1.4-.4-2.6-1.3-3.4-.9-.8-2.4-1.2-4.6-1.2h-6.3v9.4zm0 19.5h7.3c2.5 0 4.2-.5 5.2-1.4 1-.9 1.5-2.2 1.5-3.8 0-1.5-.5-2.7-1.5-3.5-1-.9-2.7-1.3-5.3-1.3h-7.2v10zm-42.2 129.1h6.1v1.6H-60v1.2h3.5v1.5H-60v1.4h3.9v1.7h-6.2v-7.4zm7.1 4.9l2.2-.1c0 .4.1.6.3.8.2.3.6.4 1 .4.3 0 .6-.1.7-.2.2-.2.3-.3.3-.5s-.1-.4-.2-.5c-.2-.2-.6-.3-1.2-.4-1-.2-1.7-.5-2.1-.9-.4-.4-.6-.8-.6-1.4 0-.4.1-.7.3-1.1.2-.3.5-.6 1-.8.4-.2 1-.3 1.8-.3.9 0 1.7.2 2.1.5.5.3.8.9.9 1.7l-2.1.1c-.1-.3-.2-.6-.4-.7-.2-.1-.4-.2-.8-.2-.3 0-.5.1-.6.2-.1.1-.2.2-.2.4 0 .1.1.2.2.3.1.1.4.2.8.3 1 .2 1.7.4 2.1.6.4.2.7.5.9.8.2.3.3.7.3 1.1 0 .5-.1.9-.4 1.3-.3.4-.6.7-1.1.9-.5.2-1.1.3-1.8.3-1.2 0-2.1-.2-2.6-.7-.5-.5-.8-1.2-.8-1.9zm7.8-4.9h3.8c.8 0 1.4.2 1.8.6.4.4.6.9.6 1.7 0 .7-.2 1.3-.7 1.7-.4.4-1.1.6-2 .6h-1.2v2.7h-2.3v-7.3zm2.2 3.1h.6c.4 0 .7-.1.9-.2.2-.2.3-.3.3-.6 0-.2-.1-.4-.2-.6-.2-.2-.4-.2-.9-.2h-.6c-.1 0-.1 1.6-.1 1.6zm4.9.6c0-1.2.3-2.1 1-2.8.7-.7 1.6-1 2.8-1 1.2 0 2.2.3 2.8 1 .7.7 1 1.6 1 2.8 0 .9-.1 1.6-.4 2.1-.3.5-.7 1-1.3 1.3-.5.3-1.2.5-2 .5s-1.5-.1-2.1-.4c-.5-.3-1-.7-1.3-1.3-.3-.7-.5-1.4-.5-2.2zm2.3 0c0 .7.1 1.3.4 1.6.3.3.7.5 1.1.5.5 0 .9-.2 1.1-.5.3-.3.4-.9.4-1.7 0-.7-.1-1.2-.4-1.5-.3-.3-.7-.5-1.1-.5-.5 0-.8.2-1.1.5-.3.3-.4.8-.4 1.6zm6.6 3.6v-7.3h3.8c.7 0 1.2.1 1.6.2.4.1.7.3.9.7.2.3.3.7.3 1.2 0 .4-.1.8-.3 1.1-.2.3-.4.5-.7.7-.2.1-.5.2-.8.3.3.1.5.2.6.3l.4.4c.2.2.3.3.3.5l1.1 2.1h-2.6l-1.2-2.2c-.2-.3-.3-.5-.4-.6-.2-.1-.3-.2-.6-.2h-.2v3h-2.2zm2.2-4.3h1c.1 0 .3 0 .6-.1.2 0 .3-.1.4-.2.1-.1.1-.3.1-.4 0-.2-.1-.4-.2-.5-.2-.1-.4-.2-.8-.2h-1l-.1 1.4zm5.1-3h6.9v1.8h-2.3v5.5h-2.3v-5.5h-2.3v-1.8zm7.9 0h6.1v1.6h-3.8v1.2h3.5v1.5h-3.5v1.4h3.9v1.7h-6.2v-7.4zm15.8 4.3l2 .6c-.1.6-.3 1-.6 1.4-.3.4-.6.7-1.1.8-.4.2-1 .3-1.6.3-.8 0-1.5-.1-2-.3-.5-.2-.9-.6-1.3-1.2s-.6-1.3-.6-2.2c0-1.2.3-2.2 1-2.8.6-.7 1.6-1 2.7-1 .9 0 1.7.2 2.2.6.5.4.9.9 1.2 1.7l-2 .4c-.1-.2-.1-.4-.2-.5-.1-.2-.3-.3-.5-.4-.2-.1-.4-.1-.6-.1-.5 0-.9.2-1.2.6-.2.3-.3.8-.3 1.4 0 .8.1 1.4.4 1.7.2.3.6.5 1 .5s.8-.1 1-.4c.2-.3.4-.6.5-1.1zm3-4.3h2.3v5.5h3.6v1.8H2.7v-7.3zm11.4 0h2.3v4.4c0 .4-.1.8-.2 1.2-.1.4-.3.7-.6 1-.3.3-.6.5-.9.6-.4.2-1 .2-1.6.2-.4 0-.7 0-1.2-.1-.4-.1-.8-.1-1.1-.3-.3-.1-.5-.4-.8-.6s-.4-.6-.5-.8c-.1-.5-.2-.9-.2-1.2v-4.4h2.3v4.5c0 .4.1.7.3.9.2.2.5.3.9.3s.7-.1.9-.3c.2-.2.3-.5.3-.9l.1-4.5zm3.8 0h4.3c.7 0 1.3.2 1.6.5.4.4.6.8.6 1.3 0 .4-.1.8-.4 1.1-.2.2-.4.4-.8.5.5.1.9.3 1.2.7.2.3.4.7.4 1.2 0 .4-.1.7-.3 1-.2.3-.4.5-.7.7-.2.1-.5.2-.9.2-.5.1-.8.1-1 .1h-3.9l-.1-7.3zm2.3 2.9h1c.4 0 .6-.1.7-.2.1-.1.2-.3.2-.5s-.1-.4-.2-.5c-.1-.1-.4-.2-.7-.2h-1v1.4zm0 2.8h1.2c.4 0 .7-.1.8-.2.2-.1.2-.3.2-.6 0-.2-.1-.4-.2-.5-.2-.1-.4-.2-.8-.2h-1.2v1.5zm5.7-5.7h6.1v1.6h-3.8v1.2h3.5v1.5h-3.5v1.4H32v1.7h-6.2v-7.4z"/></symbol><symbol viewBox="-201 281.4 208.1 231.6" id="botafogo"><title>botafogo</title><style>.st0{fill:#FFFFFF;}</style><path d="M7 335.5l.1-32c-31.8 8.2-64.6-11.5-64.6-11.5-22.9-11.5-39.4-10.6-39.4-10.6s-16.6-.9-39.5 10.6c0 0-32.9 19.8-64.6 11.5l.1 32C-201.6 461.5-96.8 513-96.8 513S7.7 461.5 7 335.5z"/><path class="st0" d="M-96.8 501.7s-95.6-54.6-95.7-161.3l-.1-25.4c39.6-.2 61.5-14.6 61.5-14.6 21-10.6 34.3-9.8 34.3-9.8s13.3-.8 34.3 9.8c0 0 21.9 14.4 61.5 14.6l-.1 25.4c-.2 106.8-95.7 161.3-95.7 161.3zm84.2-158.6l.1-16.4c-30.1.1-54.1-14.8-54.1-14.8-18.5-9.3-30.3-8.6-30.3-8.6s-11.7-.7-30.2 8.6c0 0-24 14.9-54.1 14.8l.1 16.4c-.3 91.4 84.2 145.9 84.2 145.9s84.7-54.5 84.3-145.9z"/><path class="st0" d="M-96.9 319.7l13.5 41.4h43.5l-35.2 25.6 13.5 41.4-35.3-25.6-35.2 25.6 13.5-41.4-35.3-25.6h43.6z"/></symbol><symbol viewBox="-206.2 308.8 187.1 175.6" id="bragantino"><title>bragantino</title><style>.st0{fill:#FFFFFF;} .st1{fill:none;stroke:#000000;stroke-width:2.6154;stroke-miterlimit:2.6131;}</style><path class="st0" d="M-112.6 480.1c-24.6-21.2-67.7-13.3-80.9-33.2-20-30.5 1.6-52.1 1.6-76.5 0-6-1.6-21.4-10.2-29.1l13.9-27.9c27 15.8 51.8 18.4 75.6-.2 23.7 18.6 48.5 16 75.5.2l13.9 27.9c-8.6 7.7-10.2 23-10.2 29.1 0 24.4 21.6 46 1.6 76.5-13.2 20-56.2 12.1-80.8 33.2z"/><path d="M-30.1 370.4c0-6.9 1.9-20.2 9.1-26.6l1.9-1.7-16.6-33.3-3 1.8c-28.1 16.5-50.9 16.5-71.8 0l-2-1.6-2 1.6c-21 16.4-43.8 16.4-71.9 0l-3-1.8-16.6 33.3 1.9 1.7c7.2 6.4 9.1 19.8 9.1 26.6 0 7.7-2.3 15.2-4.8 23.2-4.9 15.8-10.4 33.6 3.7 55.1 7.5 11.3 22.8 14.5 39.1 17.8 15.2 3.1 31 6.3 42.4 16.2l2.1 1.8 2.1-1.8c11.4-9.8 27.2-13.1 42.4-16.2 16.2-3.3 31.6-6.5 39.1-17.8 14.1-21.5 8.6-39.4 3.7-55.1-2.6-8-4.9-15.5-4.9-23.2zm-163.6 25.1c2.5-8.1 5.1-16.4 5.1-25.1 0-2.1-.3-19.5-9.5-29.7 1.6-3.2 9.1-18.3 11.4-22.7 28.1 15.5 52.4 15.3 74.2-.7 18.1 13.3 37.9 15.7 60.2 7.2l-146.3 97.3v-1.5c-.1-8.5 2.4-16.6 4.9-24.8zm104.5 69.2c-5.1 1.5-10.1 3.4-14.8 5.8v-77.3l14.8-10v81.5zm-30.6 6.5c-4.7-2.6-9.7-4.5-14.9-6.1v-51.5l14.9-10v67.6zm-60.9-18.1c-2.5-1.2-4.8-2.6-6.7-4.3l6.7-4.6v8.9zm14.9 4.8v-23.3l15.3-10.2v36.8c-1.8-.4-3.6-.7-5.4-1.1-3.4-.8-6.7-1.5-9.9-2.2zm96.4 2.1c-1.5.3-3 .6-4.4.9v-88l15.8-10.7v95.3c-3.6.9-7.4 1.7-11.4 2.5zm34.9-14.9c-2.1 3.1-5 5.5-8.6 7.4v-100l13.6-8.7c-6.9 10.3-7.1 24.7-7.1 26.6 0 8.7 2.6 17 5.1 25.1 2.6 8.3 5 16.3 5 24.8 0 7.7-2.1 15.8-8 24.8z"/><path class="st1" d="M-159.2 338.9c11.4 0 20.7 9.3 20.7 20.7 0 11.4-9.3 20.7-20.7 20.7-11.4 0-20.7-9.3-20.7-20.7 0-11.4 9.3-20.7 20.7-20.7m-10.2 2.4c1.4 2.6 1.9 5.8 1.2 10-3.7 1.9-2.1 5.1-2.6 8.1-2.1 3.3-3 5.8-1.4 8.6-.5 1.9-1.2 4.2-.9 6.5m-5.4-22.1c2.3 1.4 5.1 2.3 7.4 3.5m-.2 3.5c8.8 5.1 15.1 4.2 23.7 1.4m-1.4-18.6c-1.6 3.3-2.1 6.7-.5 10.7-6.3.5-12.8.2-19.3-.7m10.1-13.7c0 2.6 0 4.6.2 7.2m19.1 8.8c-3.7 1.4-7.2.9-10.2-1.4 3.3 1.2 2.6 4.4 1.9 7.7 1.9 5.1.7 7.4-1.2 9.8.7 1.6 1.6 4 1.9 5.8m-2.4-6.3c-7.9 2.1-16 1.2-22.8-2.1m11.8 3.5c0 2.8.5 5.8 1.2 8.8"/><path class="st0" d="M-183 425c-.7-.6-2-1.7-4.1-.3-1.2.8-2.5 2.8-.2 6.2 1.4 2.2 3.6 3.5 5.7 2.1 1.4-.9 1.8-2.4 1.2-4l2.5-1.7c1.2 3 .7 5.9-2.3 7.9-3.2 2.1-7 1.5-9.7-2.7-2.8-4.2-1.8-8 1.3-10.1 3.6-2.4 6.7-.9 8 .8l-2.4 1.8zm12.3 3.5l-2.5 1.7-1.6-2.5 2.5-1.7zm1.1-14.2l4.7 3.8-3.1 2-1.6-5.8zm2.4 8.3l4.5-3 2.4 2 2.7-1.8-12.3-9.2-2.9 1.9 3.7 14.9 2.7-1.8-.8-3zm13.7-5.5l-2.5 1.7-1.7-2.5 2.6-1.7zm5.6-11.4l3.2-2.1c.9-.6 2.1-.8 2.8.3.8 1.2.5 2.2-.8 3l-3.1 2.1-2.1-3.3zm1.1 7l5.1-3.4c2.5-1.6 2.8-2.5 3.1-3.6.2-1 0-2.2-.6-3.2-.8-1.2-2-2.1-3.8-1.7.3-.6 1-1.7-.2-3.5-.8-1.2-2.8-2.6-5.8-.6l-5.9 3.9 8.1 12.1zm-4.2-11.6l2.9-1.9c1.1-.8 2.1-.9 2.7.1.6 1 .1 1.9-.9 2.5l-3 2-1.7-2.7zm14.5-5l-2.1-3.2 3.1-2.1c1.5-1 2.4-.2 2.8.4.8 1.2.5 2.1-.9 2.9l-2.9 2zm2 8.4l2.5-1.6-3.1-4.7 2.6-1.7c1.9-1.2 2.4-.7 3.5 1 .8 1.2 1.3 1.8 1.9 2.3l2.8-1.9-.2-.3c-.7.2-1-.3-2.1-2-1.5-2.3-2.3-2.3-3.6-2 .9-1.2.8-2.8 0-4.1-.7-1-2.9-3-6.1-.9l-6.1 4.1 7.9 11.8zm10.8-20.7l4.7 3.8-3.1 2-1.6-5.8zm2.4 8.3l4.5-3 2.4 2 2.7-1.8-12.3-9.2-2.9 1.9 3.7 14.9 2.7-1.8-.8-3zm11.9-13.7l5-3.4 4.3 6.5-1.7 1.1-1.3-1.3c-.1 1.2-.3 2.9-2.5 4.3-2.9 1.9-6.9 1.6-9.7-2.6-2.2-3.3-2.4-7.6 1.7-10.3 3.7-2.5 6.8-1 8 .6l-2.5 1.7c-.3-.5-2.2-1.4-4-.2-1.8 1.2-2.6 3.5-.6 6.6 2.2 3.3 4.6 3 6.3 1.8.6-.4 2.3-1.8 1.2-4.6l-2.8 1.9-1.4-2.1zm10.5-11l4.7 3.8-3.1 2-1.6-5.8zm2.3 8.3l4.5-3 2.4 2 2.7-1.8-12.3-9.2-2.9 1.9 3.7 14.9 2.7-1.8-.8-3zm10.7-20.9l2.4-1.6 8 12.1-2.5 1.6-10.7-5.3 5.7 8.6-2.3 1.6-8-12.1 2.6-1.7 10.4 5.2zm18.1 5.3l-2.5 1.7-6.6-9.9-3.6 2.4-1.5-2.1 9.9-6.6 1.4 2.2-3.7 2.4zm7.7-5l-2.6 1.6-8-12 2.5-1.7zm1.8-18.7l2.4-1.5 8 12-2.5 1.7-10.7-5.3 5.7 8.6-2.3 1.6-8.1-12.1 2.7-1.8 10.4 5.3v-.1zm11 1.5c-2.2-3.4-.9-5.5.5-6.4 1.4-.9 3.8-1.3 6.1 2 2.2 3.4.9 5.5-.5 6.4-1.4.9-3.9 1.3-6.1-2zm-2.6 1.6c3.8 5.7 8.4 3.6 10 2.5s5.3-4.5 1.6-10.2c-3.8-5.7-8.4-3.6-10-2.5-1.6 1.1-5.3 4.6-1.6 10.2z"/></symbol><symbol viewBox="-51 89.8 508.6 614.2" id="ceara"><title>ceara</title><style>.st0{fill:#FFFFFF;}</style><path class="st0" d="M269.5 650.6c40.3-18.5 83.1-28.2 119.2-55.5 33.4-24.5 56-61.2 61-102.3 1.9-21.3-.5-43.2-3.6-64.1-6.9-44.6-24.9-88.8-24.9-134.4 1.6-35.9 11.1-61.9 26.1-95.4l-74.6-89.3c-23.3 5.4-44.9 10.5-68.9 10.5-28.5-.9-52.5-5.9-79.8-14.9l-20.7-7.8c-38 14.3-75 25.9-116.5 21.8-18.3-1-34.9-5.7-52.9-9.7L-41 198.9c10.5 23.8 19.4 44.6 23.7 70 6.6 41.5-3.8 80.9-14.3 120.6-9.3 48.4-21.4 96.6-1 144.1C-16 565.2 3 586.8 33.2 606c39.2 21.6 82.6 34.4 122.9 53.6 17.5 10 30.9 21.8 47.2 35.1 23.6-19.8 38.8-32.2 66.2-44.1z"/><path d="M335 188.3l-11.1-6.7-12.3 9-3.6 2.8 3.6 14.2 13.3 51.2 10-7.4 5.2-3.8-3.6-11.6 18.8-14.2 10.4 6.6 15.7-11.8-46.4-28.3zm0 32.5l-2.8 2.1-6.9-21.8 9.7 6.2 9.7 6.2-9.7 7.3zm-23.3-37.1l.5-.4 3.3-21.7-3.8 2.5-7.3 5.6 1.9 18.1zm-14 81.9l-3.3-4c-2.9-3.5-5.4-5.5-7.4-6.2-2.1-.7-4.7-.5-7.8.5 1.9-3.6 2.9-7.1 2.9-10 0-3.1-1.2-6-3.3-9-3.5-4.7-7.8-6.9-13-6.6-3.3.2-6.9 1.4-11.1 3.6-2.4 1.2-4.8 2.9-7.4 4.8l-18.7 14-8.5 6.2 8.5 11.4 26.1 34.7 2.9 4 14.3-10.9-14-18.7 9.8-7.3c2.4-1.9 4.7-2.9 6.6-2.9 1.9 0 3.8.9 5.5 2.6.7.9 2.2 2.6 4.7 5.7 2.4 2.9 4.7 5 6.7 6.2l15.2-11.4-1.4-1.7c-1.6.7-4-1-7.3-5zm-30.8-10.2c-.5 1.9-2.4 4-5.4 6.2l-6.7 5.2-4 2.9-8.6-11.4 11.2-8.5c.5-.3.9-.7 1.4-.9 2.1-1.6 4.1-2.2 5.7-2.4 2.1 0 3.8.9 5.2 2.6 1.6 2.1 1.9 4.2 1.2 6.3zm-76 40.8l-11.1-6.9-15.7 11.9 16.9 65.3 9.9-7.4 5.2-3.8-3.6-11.6 19-14.2 10.2 6.6 7.1-5.4 8.6-6.4-8.6-5.2-37.9-22.9zm0 32.5l-2.8 2.1-6.9-21.8 9.7 6.2 9.7 6.2-9.7 7.3zm-65 63.2l-7.9-10.7 26.1-19.5-7.4-10.1-26.1 19.6-6.8-8.8 28.7-21.5-7.6-10.2-41 30.6-2.2 1.6 2.2 2.9 35.3 47.2 43.9-33-7.6-10.2zm-43.2 20.9L69.3 423c1.4 2.9 1.7 5.9.9 8.8-1 2.9-3.1 5.5-6.4 7.9-4 3.1-8.1 4.1-12.4 3.1-4.1-1-8.1-4-11.9-9-3.6-4.8-5.4-9.7-5-14.2.2-4.7 2.4-8.5 6.4-11.6 3.1-2.2 5.9-3.5 8.6-3.6 2.8-.2 5.5.7 7.9 2.6L71 396.9c-4.8-5-10.5-7.6-17.3-7.6-6.7.2-13.5 2.8-20.4 8-8.8 6.4-13.8 14-15.4 22.8-.3 1.7-.5 3.5-.5 5.2v.2c0 6.7 2.4 13.3 7.3 19.9 5.7 7.8 13 12.1 21.8 13.1 8.6.9 17.1-1.7 25.4-7.9 5.7-4.3 9.7-9 12.1-14.3.3-1 .9-2.2 1.2-3.3 1.6-5.7 1.2-11.6-1.2-17.5-.4-1-.9-1.8-1.3-2.7zM266.5 644s.1 0 .1-.1l-.1.1z"/><path d="M203.2 105.1c3.9 1.5 18.3 6.9 18.3 6.9h.1c29.9 9.8 54.4 14.4 81.9 15.2h.2c23.3 0 44.2-4.7 66.3-9.7l68.9 82.5c-15 33.9-23.4 59.5-24.9 93.9v.4c0 29.2 7.2 57.9 14.1 85.6 4.1 16.4 8.3 33.4 10.9 49.9 2.2 14.5 4.2 31 4.2 47.3 0 5-.2 10-.6 14.9-4.7 38.1-25.8 73.5-58.1 97.3-23.6 17.8-49.8 27.8-77.5 38.3-13.3 5-27 10.3-40.4 16.4-26.9 11.7-43 24.3-63.4 41.3-.5-.4-1.4-1.2-1.4-1.2-13.6-11.2-26.4-21.8-42.1-30.8l-.2-.1-.2-.1c-17.2-8.2-35.1-15.3-52.5-22.2-23.6-9.3-47.8-18.9-70-31.1-28.3-18-46.6-38.1-63-69.3-7.7-18-10.5-36.1-10.5-54.4 0-24 4.8-48.5 9.8-73.7 0 0 2.1-10.9 2.2-11.3 8.2-30.9 16.6-62.6 16.6-95.5 0-9.2-.7-18.5-2.1-27.8-4.1-24.3-11.9-43.8-22.4-67.7 5.1-6.1 64.1-76.5 69.1-82.5 3.1.7 6.4 1.5 6.4 1.5 14.5 3.4 28.1 6.5 43.4 7.4H86c43.4 4.2 81.7-8.1 117.2-21.4zm-2.6-14.4C166 103.8 128.7 116.2 87.4 112H87c-14-.8-27.1-3.8-40.9-7.1L31 101.5l-2.8 3.4-77.7 92.8 1.8 4.1c11 24.9 19.1 44.3 23.2 68.3 1.3 8.5 1.9 17 1.9 25.4 0 31.3-8.2 62.2-16.1 92.2l-.1.2-2.3 11.8c-5 25.1-10 50.7-10 76.5 0 20.1 3.1 40.3 11.7 60.3l.1.3.1.2c17.5 33.4 38 55.9 68.4 75.1l.2.1.2.1c23.1 12.7 47.8 22.5 71.6 32 17 6.8 34.7 13.7 51.3 21.7 14.6 8.4 26.4 18.1 39.9 29.3l10.6 8.8 4.6-3.8c22.6-18.8 37.6-31.2 64.6-43l.1-.1c12.9-5.9 26.5-11.1 39.5-16 27.5-10.4 55.9-21.2 81-40.2 35.4-26 58.7-65.1 63.8-107.2v-.2c.5-5.4.7-10.9.7-16.3 0-17.3-2.1-34.4-4.4-49.5-2.7-17.2-7-34.5-11.2-51.2-6.7-26.8-13.6-54.6-13.6-82 1.5-33.5 9.7-57.5 25.5-92.6l1.8-4.1-80.4-96.2-7 1.6c-21.8 5-42.3 9.7-64.6 9.7-26-.8-49.2-5.1-77.6-14.5-.3-.1-23.1-8.7-23.1-8.7l-2.1.9z"/><path d="M413.6 381.9c-7.4-30.8-14.4-59.9-14.4-85 0-33.1 7-65.1 20.8-95l1.4-3.1-55-65.9-3.3.8c-50.7 12.7-103.9 8.1-158-13.6l-2-.8-2 .8c-54.2 21.7-107.4 26.3-158 13.6l-3.3-.8-55 65.9 1.5 3.1C-.1 231.7 7 263.7 7 296.9c0 25.2-7 54.3-14.5 85.1-12.3 50.9-25 103.5-6.4 143.5 26.2 55.8 76.3 74.6 124.8 92.8 31.1 11.7 63.3 23.7 88.6 45.6l3.6 3.1 3.6-3.1c25.3-21.8 57.5-33.9 88.6-45.6 48.5-18.2 98.7-37 124.8-92.8 18.5-40.1 5.8-92.7-6.5-143.6zM30.7 510.5l50.6-38v122.6c-18.4-7.8-35.7-16.8-50.6-29.1v-55.5zm99.7-74.9l49.2-37v238.2c-15.7-9.1-32.4-16.2-49.2-22.7V435.6zm99-74.4l48.4-36.3v288.4c-16.5 6.3-32.9 13.1-48.4 21.7V361.2zm97.7-73.3l49.8-37.4v314.1c-14.7 12.5-31.6 21.6-49.8 29.4V287.9zM130.4 149.6c16.3-2 32.7-5.5 49.2-10.6v116.3l-49.2 37.3v-143zm99-9.6c16.2 4.8 32.4 8.1 48.4 9.9V181l-48.4 36.6V140zm-185.7 4.9c12.4 2.9 25 4.9 37.7 5.8v179.1l-50.6 38.3V160.5c6.4-7.8 11.6-14.1 12.9-15.6zM-2.1 406l.3.4 337.7-255.7-.7-.9c9.1-1.1 18.2-2.7 27.2-4.8 3.7 4.4 42.6 51.1 46.4 55.6-2.6 5.8-4.9 11.7-7 17.7l-405 304.3c-.2-.5-.5-1-.8-1.5-6-12.9-8.3-27.7-8.3-43.4-.1-22.6 4.6-47 10.2-71.7z"/></symbol><symbol viewBox="-60 154 490 485" id="crb"><title>crb</title><style>.st0{fill:#FFFFFF;} .st1{fill:#CD2F32;}</style><path class="st0" d="M185.1 634.7c-6.6-6.1-26.7-17-53.6-31.3-10.5-5.6-19.5-10.4-23.7-13-6.6-4.1-13.5-7.7-20.1-11.3-6.4-3.4-12.9-7-19.3-10.8-13.7-8.3-25.1-16.7-34.8-25.5-21.2-19.3-37.6-43.3-48.7-71.5C-27 441.5-33 406.9-33 368.5v-30.7l1.8-71.3c.4-22.4-11.3-78.2-20.8-103 22.6 11.9 71.6 29.3 92.6 29.3h6.1c14.9 0 30.6-3.7 45.7-7.3 8.6-2 16.6-3.9 24-5 8.3-1.2 16.2-3.1 24-4.9 13.9-3.2 28.2-6.6 45.3-6.6h1.5c15.8 0 33.8 4.2 49.6 8 6.2 1.5 12 2.8 17.5 3.9 4.6.9 10 2.1 15.6 3.4 17.7 4 37.8 8.5 53.2 8.5h8.4c19.1 0 68.7-18.2 90.5-29.9-8.6 22.9-20.8 76.1-20.8 91.2l-.3 18.5 1.8 75.3v18.3c0 34.9-6.7 74.7-17.5 103.7-12 32.2-24.2 47.7-48.7 72.6-15.2 15.3-53.2 37.2-73.6 47.4-.5.4-65.2 34-77.8 44.8z"/><path class="st1" d="M-13.9 377.7c0 47.3 13.2 87.7 30.7 117.5 9.6 16.4 20.7 26.9 34.4 39.3 5.6 5.1 38.1 27.4 44.7 29v-75.3c-3.7 1.9-9.1 5.4-14.6 5.4h-3.8c-20.3 0-35.7-21.4-42.8-35.6-6.4-13-17.9-42.1-17.9-60.4h79.1v-30.7H-13.9v10.8zm319.5 80.6h12.3c6.5 0 18.4 1.2 18.4 6.9v.8c0 9.5-21.7 37.1-30.7 39.2v-46.9zm0-60.6h33.8c5.9 0 13.8 2.7 13.8 8.4 0 9.3-13 27.6-23 27.6h-24.6v-36zm56 45.3c4.4-6.5 10.1-8.7 14.6-17.6 3.1-6.1 6.1-16.2 6.1-25.4v-.8c0-17.7-10.7-32.3-27.6-32.3h-80.6v196.6c10.7-2.5 52-33.4 58.9-41.7 9.9-11.8 36.3-45.1 36.3-64.3 0-6.3-3.7-11.9-7.7-14.5z"/><path class="st1" d="M185 625.8c-12.5-6.6-24.7-15.9-38.1-22.5-13.3-6.6-25.9-13.7-39.2-20.7C85.3 570.8 52 551.8 35.5 535c-21.6-21.8-35.8-41.2-46.7-73.9-10-30.1-14.9-65.2-14.9-104.9h422.4c0 39.6-5.5 75.2-15.5 105.1-8.9 26.8-26.7 57.3-46.2 73.6-24.9 20.9-43.7 31.3-73 47.6-12.7 7-26.2 14.6-38.9 21-13.5 6.8-25.3 15.7-37.7 22.3zm27.6-301.1h182.8v19.2H212.6v-19.2zm-238.8 0h183.6v19.2H-26.2v-19.2zm354.1-124.4c25 0 64.5-15.3 82.2-23.8-.1 3.9-8.6 33.8-10.4 41-3.1 12.3-5.7 31-5.7 45.8v6.1H212.6v-89.9c9.2 0 46 9 56.7 11.7 14.3 3.6 41.5 9.1 58.6 9.1zm-352.6 54.5c0-30.2-10.4-53.8-16.1-78.3 9.9 2.3 25.8 11 38.3 14.7 11.7 3.6 27.8 9.1 43.2 9.1h4.6c16.2 0 42.5-6.3 57.3-9.5 12.1-2.7 44.4-11.2 54.9-11.2v89.9h-182v-14.7h-.2zM-60 155.7c8.9 12.8 25.3 84.8 24.8 110.6l-1.8 71.4v30.7c0 80.2 25.5 138.7 67.8 177.2 10.8 9.8 22.6 18.2 35.4 26 13.1 7.9 26.5 14.2 39.3 22.1 13.5 8.3 72.1 37.1 77.9 45h3.1c3.9-5.8 67.1-39.7 78.3-45.3 21.3-10.6 59.2-32.5 74.7-48.2 23.4-23.6 36.9-39.8 49.6-74 10.4-27.6 17.9-67.2 17.9-105v-18.4l-1.8-75.3.3-18.4c0-18.2 17.9-90.6 24.6-98.3v-1.5h-1.5c-10.9 9.4-75 34.6-96.8 34.6h-8.4c-20 0-49.2-8.1-68.1-11.8-19.9-4-45.5-12-67.9-12h-1.5c-27.3 0-47.1 8.2-69.9 11.5-20.5 3-46.4 12.3-69.1 12.3h-6.1c-23.9 0-88.2-24.5-99.8-34.6h-1v1.4z"/><path class="st1" d="M158.9 397.7h39.2c13.6 0 22.3 11.3 22.3 25.3v3.1c0 18.8-13.4 27.6-32.3 27.6h-29.2v-56zm-45.3-30.8c2.1 2.9 7.7 5.3 7.7 11.5v174.3c0 9.2-2.8 17.7-12.3 17.7l50 27.5-.1-111.2h24.6c18.7 0 26.9 29.1 26.9 49.2v15.4c0 8.4-4.2 22.1-6.5 29.6-1.7 5.7-8.6 22.7-8.9 26.4l61.1-33.8-.4-.8c-19.8-4.6-9.6-28.5-13.2-49.7-1.8-10.3-2.5-16.4-6.7-24.8-2.4-4.9-11.8-17.2-12.3-19.2 14.6-3.4 32.3-25.4 32.3-44.5V423c0-34.8-16-48.1-43.8-55.3-11.4-2.9-80.5-.8-98.4-.8z"/></symbol><symbol viewBox="-40 207.8 530.4 379.2" id="criciuma"><title>criciuma</title><style>.st0{fill:#FFF22D;}</style><path class="st0" d="M251.1 336.6v141L386 329.8l-65.7-68.5z"/><path d="M317.5 258.7l-70.3 76.4v152.3l144-157.6-70.9-74.1-2.8 3zm2.9 8.1c5 5.2 56 58.5 60.4 63-4.4 4.8-114.1 125-125.9 137.8V338c1.8-2 60.5-65.7 65.5-71.2z"/><path class="st0" d="M280.3 506.9h136.6l68.3-75.3-65.7-68.5z"/><path d="M416.8 360.4L271.3 510.8h147.4l71.8-79.2-70.9-74-2.8 2.8zm2.7 8.2c4.8 5 56.1 58.6 60.5 63.1-4.4 4.8-62.6 69.1-64.7 71.4h-126c11.2-11.5 125.2-129.3 130.2-134.5z"/><path class="st0" d="M199.5 336.6v141L64.4 329.8l65.5-68.5z"/><path d="M127.2 258.6l-68 71.1 144.1 157.6V335.1L130 255.7l-2.8 2.9zm2.7 8.2c5 5.4 63.9 69.2 65.8 71.2v129.7c-11.8-12.9-121.6-133-126-137.9 4.3-4.5 55.3-57.8 60.2-63z"/><path class="st0" d="M170.1 506.9H33.3l-68.1-75.3 65.7-68.5z"/><path d="M28.1 360.4L-40 431.6l71.6 79.2h147.5L30.9 357.6l-2.8 2.8zm2.8 8.2c5.1 5.2 119 123 130.2 134.5H35c-2.1-2.3-60.2-66.6-64.6-71.4 4.4-4.5 55.7-58.1 60.5-63.1zM285.6 536H282l-18.4 49.7h6.9l5.3-15h19.6l5.3 15h7.3L289.5 536h-3.9zm0 29h-7.8l7.8-21.7.1-.1 7.6 21.9h-7.7v-.1zm137.2 12.2c-2.6 2.6-5.9 3.9-9.9 3.9-4.8 0-8.6-1.9-11.5-5.6-2.9-3.6-4.3-8.5-4.3-14.7 0-6.3 1.3-11.4 4.2-15 2.7-3.3 6.6-5.2 11.7-5.2 3.9 0 6.9 1 9.2 2.7 2.4 1.6 3.9 4.2 4.6 7.5h6.6c-.6-5-2.7-8.9-6.3-11.8-3.6-2.9-8.2-4.3-13.8-4.3-7.1 0-12.7 2.3-16.8 6.8-4.2 4.5-6.3 10.7-6.3 18.6 0 8.4 2 15 6 19.9 4 4.8 9.5 7.1 16.4 7.1 6.2 0 11.1-1.7 15-5.3 3.9-3.6 5.9-8.5 6.2-14.5H427c-.1 4-1.4 7.3-4.2 9.9zm17.5.9v7.6h6.9v-7.6zm-101.4-15.4h26.6v-5.8h-26.6v-14.7h28.8V536h-35.6v49.7h36.2v-6.2h-29.4zm37.1 23h7v-7.6h-7zm-181.3-65.9H188l-6.9 11.8h4zm-114 62.6c-.4-.9-.6-2.2-.7-3.9l-.6-8.2c-.3-3-.7-5.3-1.6-6.5-.7-1.3-2.2-2.3-4.2-2.9 2.3-1 4-2.4 5.2-4.5 1.2-1.9 1.7-4.2 1.7-6.9s-.6-5.2-1.6-7.1c-1.2-2-2.7-3.6-4.9-4.8-1.2-.7-2.4-1.2-3.9-1.4-1.4-.1-3.7-.3-6.9-.3H44v49.7h6.6v-21.3h11.5c4.5 0 7.3.4 8.5 1.4 1.2 1 1.9 3.2 2 6.5l.4 6.5v.3c.3 3.3.7 5.6 1.3 6.6h7.9v-1.4c-.6-.2-1.2-.9-1.5-1.8zm-9.6-25.9c-1.7 1.4-4.8 2.2-8.9 2.2H50.6v-16.8h11.5c4.3 0 7.3.7 9.1 1.9 1.6 1 2.4 3.2 2.4 6 0 3.1-.8 5.4-2.5 6.7zM88 585.7h6.8V536H88zm150.1-11.8c-.3.7-.4 1.3-.6 1.9-.3.7-.4 1.4-.6 2.3-.1-.4-.3-1-.4-1.6-.1-.6-.4-1.4-.7-2.6L223.4 536h-9.6v49.7h6.2v-42.3c.1.7.3 1.4.4 2.2.3.7.4 1.4.7 2l12.5 38.2h6.3l12.8-38.2c.3-.7.4-1.4.7-2.2.1-.7.3-1.4.4-2v42.3h6.6V536h-9.6l-12.7 37.9zm-103.8 3.3c-2.6 2.6-5.9 3.9-10.1 3.9-4.8 0-8.6-1.9-11.5-5.6-2.9-3.6-4.3-8.5-4.3-14.7 0-6.3 1.4-11.4 4.2-15 2.7-3.3 6.8-5.2 11.8-5.2 3.7 0 6.8 1 9.2 2.7 2.3 1.6 3.9 4.2 4.5 7.5h6.6c-.6-5-2.6-8.9-6.2-11.8-3.6-2.9-8.2-4.3-13.8-4.3-7.2 0-12.8 2.3-17 6.8-4.2 4.5-6.2 10.7-6.2 18.6 0 8.4 2 15 5.9 19.9 4 4.8 9.5 7.1 16.6 7.1 6 0 11.1-1.7 14.8-5.3 3.9-3.6 6-8.5 6.3-14.5h-6.6c-.2 4-1.6 7.3-4.2 9.9zm64.3-10.4c0 4.6-1.2 8.1-3.2 10.2-2.2 2.3-5.3 3.5-9.6 3.5s-7.5-1.2-9.6-3.3c-2-2.3-3-5.8-3-10.4V536h-6.8v30.7c0 6.8 1.6 12 4.6 15.3 3.2 3.5 7.8 5 14.1 5 6.6 0 11.7-1.6 15.1-5 3.5-3.5 5.2-8.5 5.2-15.3V536h-6.8v30.8zm-47.5 18.9h6.8V536h-6.8zm-123.8-8.5c-2.6 2.6-5.9 3.9-10.1 3.9-4.8 0-8.6-1.9-11.5-5.6-2.9-3.6-4.3-8.5-4.3-14.7 0-6.3 1.4-11.4 4.2-15 2.7-3.3 6.8-5.2 11.8-5.2 3.7 0 6.8 1 9.2 2.7 2.3 1.6 3.9 4.2 4.5 7.5h6.6c-.6-5-2.6-8.9-6.2-11.8-3.6-2.9-8.2-4.3-13.8-4.3-7.2 0-12.8 2.3-17 6.8-4.2 4.5-6.2 10.7-6.2 18.6 0 8.4 2 15 5.9 19.9 4 4.8 9.5 7.1 16.6 7.1 6 0 11.1-1.7 14.8-5.3 3.9-3.6 5.9-8.5 6.2-14.5h-6.5c-.2 4-1.6 7.3-4.2 9.9zm175.9-312.8L193 299.1l31.8-20.5 31.4 20.5-11.3-34.7 28.2-21.8h-34.9l-13.4-34.8-13.5 34.8h-35.4z"/></symbol><symbol viewBox="-177.5 197 245 403.1" id="luverdense"><title>luverdense</title><style>.st0{fill:#FFFFFF;} .st1{fill:#526C3A;} .st2{fill:none;stroke:#526C3A;stroke-width:4.146;} .st3{fill:#9FC54D;} .st4{fill:none;stroke:#9FC54D;stroke-width:4.146;}</style><g id="svgstoree619a132b80ac13f0326538daac8f204Camada_1"><path class="st0" d="M-129.8 381.4s20.8 47.7 50 72.2l121.3-45.9 11-19 13.2-42.9-3-24.5-192.5 60.1z"/><path class="st1" d="M-80.5 197.4l6.5 13.2 14.7 2.2-10.6 10.3 2.5 14.6-13.1-6.9-13.1 6.9 2.5-14.6-10.6-10.3 14.6-2.2z"/><path class="st0" d="M34.5 321.2c10.5 0 20.9.6 31 1.8v-2.3c-.3-12.4-1.9-25.5-5-39.4-37.9-5.8-62.9-34.8-102.7-31.4-34 2.9-56.8 28.9-91.9 31.4-10.1 40.2-7.3 74.4 3.6 102.9 38.6-38.4 98.1-63 165-63z"/><path class="st2" d="M34.5 321.2c10.5 0 20.9.6 31 1.8v-2.3c-.3-12.4-1.9-25.5-5-39.4-37.9-5.8-62.9-34.8-102.7-31.4-34 2.9-56.8 28.9-91.9 31.4-10.1 40.2-7.3 74.4 3.6 102.9 38.6-38.4 98.1-63 165-63z"/><path class="st3" d="M-139.1 599c-.8-3.8-10.6-26-11-47.6-.8-43.5 21.5-83.1 56.5-112.5 36.5-30.7 87.7-50.4 144.7-52.3 3.3-6.9 6.1-14.2 8.3-21.8-2.7-.1-5.4-.1-8.1-.1-63.9 0-121.2 22.5-159.6 57.9-31.3 28.8-50.2 66.2-50.2 107.1 0 8.8.9 17.4 2.6 25.8-2-3.5-3.9-7-5.7-10.6 2.1 7.4 20.4 50.6 22.5 54.1"/><path class="st4" d="M-139.1 599c-.8-3.8-10.6-26-11-47.6-.8-43.5 21.5-83.1 56.5-112.5 36.5-30.7 87.7-50.4 144.7-52.3 3.3-6.9 6.1-14.2 8.3-21.8-2.7-.1-5.4-.1-8.1-.1-63.9 0-121.2 22.5-159.6 57.9-31.3 28.8-50.2 66.2-50.2 107.1 0 8.8.9 17.4 2.6 25.8-2-3.5-3.9-7-5.7-10.6 2.1 7.4 20.4 50.6 22.5 54.1z"/><path class="st1" d="M43 343c7.1 0 14.1.3 21 .8.9-6.7 1.5-13.6 1.5-20.8-10.1-1.2-20.5-1.8-31-1.8-66.9 0-126.5 24.6-164.9 62.9-28.2 28.1-45 63.5-45 102 0 20.7 4.9 40.5 13.7 58.8-3.5-11.9-5.3-24.3-5.3-37 0-39.2 17.4-75.1 46.4-103.4C-82.1 367-23.1 343 43 343"/><path class="st2" d="M43 343c7.1 0 14.1.3 21 .8.9-6.7 1.5-13.6 1.5-20.8-10.1-1.2-20.5-1.8-31-1.8-66.9 0-126.5 24.6-164.9 62.9-28.2 28.1-45 63.5-45 102 0 20.7 4.9 40.5 13.7 58.8-3.5-11.9-5.3-24.3-5.3-37 0-39.2 17.4-75.1 46.4-103.4C-82.1 367-23.1 343 43 343z"/><path class="st1" d="M-42.1 474.9C-12 460 17.1 438.6 37.4 410c-43.8 5.1-83.2 20.8-113.8 43.6 10.8 8.3 22.3 15.4 34.3 21.3"/><path class="st2" d="M-42.1 474.9C-12 460 17.1 438.6 37.4 410c-43.8 5.1-83.2 20.8-113.8 43.6 10.8 8.3 22.3 15.4 34.3 21.3z"/><path class="st1" d="M-62.5 312.5h-1.6s-2.3 0-3.8-.2-3.1-.5-4.9-1c-1.7-.5-3.3-1.3-4.8-2.3s-2.7-2.4-3.7-4.2c-1-1.7-1.5-3.9-1.5-6.5v-25.6h9.3v25.5c0 3 .9 5.2 2.8 6.4 1.8 1.3 4.6 1.9 8.2 2v5.9zm10.7-19.5c2.9-.1 5.5-.4 7.8-1 1-.2 1.9-.6 2.8-1 .9-.4 1.8-.9 2.5-1.4.7-.6 1.3-1.2 1.8-2s.7-1.6.7-2.7c0-.4 0-.9-.1-1.4s-.3-1.1-.5-1.7c-.4-.9-1.2-1.7-2.2-2.4-1-.7-2.6-1.1-4.8-1.1-1.7 0-3.1.3-4.2 1-1.1.6-1.9 1.4-2.4 2.3-.6.9-.9 1.8-1.1 2.8-.2 1-.2 1.7-.2 2.3l-.1 6.3zm24.8-7.4c0 1.8-.4 3.3-1.1 4.6-.7 1.3-1.7 2.5-2.8 3.4-1.2 1-2.5 1.7-4 2.4-1.5.6-3 1.1-4.5 1.5-3.6.9-7.8 1.4-12.3 1.5.2 1.8.8 3.1 1.8 4.2 1 1 2.2 1.8 3.4 2.3s2.4.8 3.4.9c1.1.1 1.7.2 2 .2h6.9v4.2c-.5.3-1.2.6-2 .9-.7.2-1.5.5-2.5.6-1 .2-2.2.3-3.6.3-3.3 0-6-.4-8.2-1.1s-4-1.7-5.4-2.8c-1.4-1.1-2.4-2.3-3.2-3.6-.7-1.3-1.2-2.5-1.5-3.7s-.4-2.2-.5-3v-9c0-.2 0-.7.1-1.6 0-.9.2-2 .5-3.2s.8-2.6 1.5-4 1.7-2.7 3-3.9c1.3-1.2 2.9-2.1 4.9-2.9s4.4-1.2 7.3-1.2c1.9 0 3.8.2 5.8.7s3.8 1.2 5.4 2.2c1.6 1 3 2.4 4 4 1.1 1.6 1.6 3.7 1.6 6.1zm3.5.8c0-1.5.2-2.9.6-4.1s.9-2.4 1.6-3.3c.7-1 1.5-1.8 2.4-2.5s1.9-1.2 2.8-1.7c2-1 4-1.6 6.1-1.8 2-.2 3.8-.4 5.4-.4l3.7-.1c1 0 1.8 0 2.5.1l2 .3c.6.1 1.1.2 1.6.4s.9.4 1.3.6l.8.4v4.2h-9.9c-.6 0-1.3 0-2 .1-.7 0-1.4.1-2.2.3-.8.1-1.5.3-2.2.6-.7.2-1.3.6-1.9.9-.8.5-1.5 1.2-1.9 2-.8 1.1-1.1 2.5-1.1 4.4v11.6c0 .7.1 1.4.2 2 .1.6.3 1.1.5 1.5.4.9 1 1.7 1.7 2.3.7.6 1.5 1.1 2.4 1.5.9.3 1.9.6 2.9.7.7.1 1.3.2 1.9.2.6.1 1.2.1 1.7.1h9.7v4.2l-.8.4c-.4.2-.8.4-1.3.5-.5.2-1 .3-1.6.4l-2 .3c-.7.1-1.5.1-2.5.1l-3.7-.1c-.9 0-1.8 0-2.9-.1-1.1 0-2.1-.2-3.2-.4-1.2-.2-2.3-.5-3.5-.9-1.1-.4-2.3-.9-3.3-1.5-1.5-.9-2.7-2.1-3.7-3.4-.7-1-1.2-2.1-1.6-3.3-.4-1.2-.6-2.6-.6-4.1l.1-12.4z"/><path class="st0" d="M42.9 362.6c6.9 0 12.6-.1 19.3.4.9-6.7 3.4-10 3.4-17.2-9.8-1.2-20.2-.3-30.4-.3-63.4.6-115.4 25.2-155.6 61.5-27.3 28.1-39.3 50.6-43.9 90-1.2 20.2-.6 26.5 4.4 45.6-.9-12.7-.6-1-.6-13.7 0-39.2 17-73.6 45.2-101.9 37.3-37.4 94.1-62.3 158.2-64.4"/><path class="st1" d="M5.1 197l6.5 13.2 14.7 2.2-10.6 10.3 2.5 14.6-13.1-6.9-13.1 6.9 2.5-14.6-10.7-10.3 14.7-2.2z"/></g></symbol><symbol viewBox="-130.2 215.2 350.1 365.2" id="mogimiri"><title>mogimiri</title><style>.st0{fill:#FFFFFF;} .st1{fill:#DB241C;}</style><path class="st0" d="M42.9 578.6c-.8 0-1.5-.5-1.5-1s-.6-1-1.3-1-1.9-.9-2.7-2c-.8-1.1-2-2-2.7-2s-1.3-.5-1.3-1-.7-1-1.5-1-2.1-.9-2.7-2c-.7-1.1-1.7-2-2.4-2-.6 0-2.5-1.3-4.3-3-1.7-1.6-3.6-3-4.1-3-.6 0-1-.5-1-1s-.5-1-1.1-1-2.4-1.3-3.9-3c-1.5-1.6-3.2-3-3.7-3s-1.5-.9-2.3-2c-.8-1.1-1.9-2-2.5-2s-1.7-.9-2.5-2-1.9-2-2.5-2-1.7-.9-2.5-2-1.9-2-2.5-2-1.7-.9-2.5-2-1.8-2-2.3-2-3.5-2.7-6.7-6-6.2-6-6.5-6c-.3 0-5-4.5-10.3-10-5.3-5.5-11.6-12.1-14-14.7s-5.5-6.2-7-7.9c-1.5-1.7-3.4-4.1-4.2-5.4s-2.7-3.6-4.2-5.2-2.8-3.3-2.8-3.7-.9-1.8-2-3.1-2.4-2.9-2.9-3.5c-.5-.6-1.5-2.1-2.2-3.4-.7-1.3-1.7-2.9-2.2-3.4-.5-.6-1.7-2.1-2.7-3.3-1-1.2-2.6-4-3.6-6.2s-2.1-4-2.4-4c-.3 0-3.8-6.6-7.7-14.8-3.9-8.1-8.7-18.4-10.7-22.8s-3.8-9.1-4.2-10.5-1.2-4.1-2-6c-.8-1.9-2.3-6.9-3.5-11-1.2-4.1-2.5-8.9-3-10.5-.5-1.6-1.6-5.5-2.5-8.7-.9-3.1-2.1-8.5-2.6-12s-1.4-8.8-1.9-11.8-2.1-14.3-3.5-25c-2.2-16.6-2.6-23.7-2.8-47.5-.1-15.4.2-29.3.6-30.8.8-2.8.9-2.8 6-2 2.9.5 19.2.8 36.2.8 18 0 35.2-.6 41-1.3 5.5-.7 13.2-1.5 17-1.8 3.9-.3 7.4-1 8-1.5.5-.5 2.6-.9 4.6-.9s4-.4 4.6-.9 2.8-1.2 4.9-1.5 5.7-.9 7.8-1.2 4-1 4.3-1.5c.3-.5 2.1-.9 3.9-.9 1.9 0 3.7-.4 4-1 .3-.5 2.2-1 4.1-1 1.9 0 3.4-.4 3.4-1 0-.5 1.8-1 4-1s4-.4 4-1c0-.5 1.6-1 3.5-1s3.5-.4 3.5-1c0-.5 1.3-1 2.9-1s3.2-.4 3.6-1c.3-.5 3-1 5.9-1 3.2 0 6.9.8 9.4 2 2.3 1.1 4.8 2 5.7 2s1.5.5 1.5 1c0 .6 1.4 1 3 1s3 .5 3 1c0 .6 1.4 1 3 1s3 .5 3 1c0 .6 1.4 1 3 1s3 .5 3 1c0 .6 1.1 1 2.5 1s2.5.5 2.5 1c0 .6 1.8 1 4 1s4 .5 4 1c0 .6 1.5 1 3.4 1s3.7.5 4.1 1c.3.6 2.4 1 4.6 1s3.9.5 3.9 1c0 .6 1.7 1 3.8 1s4.2.4 4.8.9c.5.5 8.2 1.2 17 1.5 8.8.3 27.4.8 41.4 1.2 17.7.4 25.7.3 26.5-.5.6-.6 3.2-1.1 5.8-1.1 3.1 0 5.1.5 6 1.7 1 1.2 1.5 6.6 1.7 21.8.2 11.1-.1 23.7-.7 28.1-.6 4.4-1.3 11.4-1.6 15.5s-.9 11.1-1.5 15.6-1.7 11.9-2.5 16.5c-.9 4.6-2.5 12.5-3.6 17.4-1.1 4.9-2.5 10.8-3 13-.6 2.2-1.9 6.7-3 10s-2.4 7.6-2.8 9.5c-.5 1.9-1.8 6-3 9s-2.5 6.6-3 8-2.2 5.4-3.8 9c-1.7 3.6-4.5 9.8-6.3 13.8-1.8 4-3.7 7.2-4.1 7.2s-.8.7-.8 1.5-.8 3.1-1.7 5c-.9 1.9-2 3.5-2.4 3.5s-1.3 1.4-1.9 3-1.6 3-2 3-1.8 2.2-3 5-2.7 5-3 5-1.3 1.4-2 3-1.6 3-2 3-1.3 1.4-2 3-2.5 4.4-4.1 6.1c-1.6 1.7-2.9 3.4-2.9 3.9s-1.7 2.6-3.8 4.8c-2.1 2.2-4.4 5-5.2 6.2s-2.7 3.6-4.2 5.4c-1.5 1.7-4.2 4.8-6 6.9-1.8 2.1-8.1 8.7-14 14.8-5.9 6-11 11-11.3 11-.3 0-3.2 2.7-6.5 6s-6.4 6-6.9 6-1.1.5-1.1 1-.5 1-1.1 1-2.4 1.4-3.9 3c-1.5 1.7-3.3 3-3.9 3-.6 0-1.1.5-1.1 1s-.6 1-1.3 1-1.9.9-2.7 2c-.8 1.1-1.9 2-2.5 2s-1.7.9-2.5 2-1.9 2-2.5 2-1.7.9-2.5 2-2.2 2-3.2 2-2 .9-2.3 2c-.3 1.1-1.3 2-2.1 2s-1.4.5-1.4 1-.8 1-1.8 1-2.4.9-3.2 2c-.8 1.1-2 2-2.7 2s-1.3.5-1.3 1-.6 1-1.3 1c-.7 0-2.3.9-3.5 2-1.5.8-3.2 1.7-4 1.7z"/><path class="st1" d="M43.5 580.5c-.7 0-8.7-5.7-17.7-12.6-9-6.9-20.8-16.2-26.2-20.5-5.4-4.4-14.9-12.6-21.1-18.3-6.2-5.7-15-14.2-19.5-19-4.5-4.8-12-13.3-16.6-18.9S-68.2 477.9-71 474s-7.4-10.8-10.3-15.5c-2.9-4.7-8.3-14.4-11.9-21.5s-9-18.9-11.8-26-6.3-17.1-7.7-22c-1.4-5-3.7-13.1-5-18-1.3-5-3.3-13.7-4.4-19.5-1.1-5.8-2.5-13.9-3.1-18-.6-4.1-1.8-14.2-2.6-22.5-.8-8.2-1.7-27-2.1-41.6-.3-14.6-.3-27.8 0-29.2l.7-2.6 28.7.6c18.7.4 33.8.2 43.2-.6 8-.7 20.4-2 27.6-3.1 7.2-1.1 17.5-2.9 23-4 5.5-1.2 16.7-3.9 24.9-6.1 8.2-2.2 18.7-5.1 23.2-6.5l8.2-2.6 18.5 6.6c10.2 3.6 23.2 7.9 28.9 9.5 5.7 1.6 15 3.8 20.8 5s14.3 2.5 18.9 3c4.7.5 14.4 1.3 21.5 1.6s22 .1 33-.5 22-1.4 24.4-1.7l4.4-.6-.5 32.9c-.4 25.6-1 36.5-2.6 49-1.2 8.9-3.2 21.7-4.6 28.5s-4 18-5.9 24.9c-1.9 6.9-5.6 18.4-8.1 25.5-2.6 7.1-7.9 19.7-11.9 28s-10.5 20.4-14.5 27-10.4 16.4-14.3 21.9c-3.9 5.4-10.4 14-14.6 19s-12.8 14.5-19.1 21c-6.4 6.5-17.2 16.8-24.1 22.9S81.1 554.4 73.6 560s-17 12.5-21.2 15.4c-4.2 2.8-8.2 5.1-8.9 5.1zm.4-15c.4 0 5.3-3.3 10.9-7.2 5.6-4 16-12 23.2-17.7 7.2-5.8 19.8-17 28-25s18.3-18.6 22.6-23.5c4.2-5 10.4-12.6 13.7-17 3.3-4.4 8.3-11.4 11.1-15.5s8-12.6 11.6-18.7c3.5-6.2 8.9-16.8 11.9-23.5 3-6.7 7.2-16.7 9.2-22.1s5.4-16 7.6-23.5 5-19.5 6.4-26.7c1.4-7.2 3.2-18.4 4-25s2-20.5 2.6-30.9c.6-10.5 1-22.8.8-27.4l-.3-8.4-34-.1c-27.6-.1-36.1-.4-45-1.9-6.1-1-16.4-3.1-23-4.7-6.6-1.6-17.4-4.6-24-6.8s-16.4-5.5-21.7-7.5l-9.7-3.5-10.3 3c-5.7 1.6-17.3 4.7-25.8 6.9-8.5 2.1-21.7 5-29.2 6.4s-20.6 3.3-29 4.2c-10.8 1.2-23.9 1.7-44.2 1.7h-28.9l.6 24.6c.3 13.5 1.3 31.1 2.1 39s1.8 16 2.1 18c.3 2 1.5 8.5 2.6 14.6s3.8 17.8 6 26 6.3 21.1 9.1 28.5c2.8 7.4 8.1 19.6 11.8 27.1 3.7 7.5 8.7 16.7 11 20.5 2.3 3.8 6.7 10.5 9.8 14.9s8.8 12.1 12.8 17.1c4 5 12.5 14.6 19.1 21.4 6.5 6.8 17.1 16.9 23.4 22.5s15.8 13.6 21 17.7 13.9 11 19.4 15.2c5.5 3.8 10.3 7.3 10.7 7.3zm-.2-9c-.3 0-6.9-4.8-14.7-10.8C21.2 539.8 8.9 530 1.6 524c-7.3-6-18.2-15.9-24.4-22s-14-14.4-17.5-18.5-9.3-11.5-13-16.5c-3.7-5-9.4-13.6-12.7-19.1-3.3-5.5-8.1-14.2-10.7-19.2-2.5-5.1-6.4-13.6-8.5-19-2.1-5.4-5.5-14.8-7.5-20.9-2-6.1-5-16.5-6.6-23.1-1.7-6.6-4.1-18.4-5.5-26.4-1.3-7.9-3.1-20.5-4-27.9-.9-7.4-1.8-20-2.1-28-.3-8-.8-16.9-1-19.8l-.5-5.2h26.3c15.7 0 32.1-.6 40.8-1.5 8-.8 20.1-2.4 27-3.6s19.3-3.8 27.6-5.9c8.3-2.1 20.9-5.7 28-8l13-4.2 14.5 5.4c8 3 18.8 6.8 24.2 8.5 5.3 1.7 14.8 4.2 21 5.6 6.2 1.4 15.3 3 20.2 3.6 4.9.6 18.3 1.1 29.9 1.1 11.5 0 24.7-.3 29.3-.7l8.4-.7v14.4c0 7.9-.7 22-1.5 31.4s-2.4 22.6-3.5 29.4-3.1 17.3-4.5 23.2-3.9 15.4-5.6 21.1-5.3 15.7-7.9 22.3c-2.6 6.6-7.1 16.8-10 22.5-2.9 5.7-8.4 15.8-12.4 22.3-3.9 6.5-10.9 16.8-15.4 22.8s-12.4 15.8-17.6 21.7c-5.2 5.9-13.9 15-19.3 20.2-5.4 5.2-14.4 13.4-19.9 18.1-5.5 4.7-15.8 13.2-23 18.8-7.1 5.7-13.2 10.3-13.5 10.3zm-.2-10.1c.7 0 5.5-3.2 10.5-7.1 5-3.9 13.7-11 19.2-15.7s15.1-13.5 21.4-19.6c6.3-6.1 15.3-15.5 20.1-21 4.8-5.5 11.7-13.9 15.3-18.6 3.6-4.7 8.7-11.9 11.3-15.9 2.6-4 7.2-11.6 10.2-16.9 3-5.3 6.8-12.5 8.5-16.1 1.7-3.6 4.5-10.1 6.3-14.5s4.9-12.8 6.8-18.6 4.7-15.1 6-20.5c1.4-5.4 3.6-16 5-23.4 1.4-7.4 3.2-20.7 4-29.5.8-8.8 1.6-21.8 1.8-28.9l.3-12.9-28.5-.1c-22-.1-31-.5-39.4-1.9-6-1-15-2.8-20-4.1-5-1.3-14.5-4.2-21.1-6.4-6.6-2.2-16.4-5.6-21.7-7.6l-9.7-3.6-12.3 4c-6.8 2.2-15.7 4.9-19.8 5.9-4.1 1.1-11.8 2.9-17 4-5.2 1.1-13.4 2.8-18.2 3.6-4.8.9-14.9 2.2-22.5 3.1-7.6.8-25.2 1.8-39.1 2.1l-25.3.6.5 7.6c.3 4.2.8 11.9 1.1 17.1.3 5.2 1.5 16.9 2.5 26 1.1 9.1 3.3 23 4.9 31 1.6 8 4.5 20.1 6.5 27 2 6.9 5.4 17.4 7.6 23.5 2.2 6 7.4 17.8 11.4 26 4.1 8.2 10.2 19.3 13.6 24.5s8.3 12.2 10.8 15.5c2.5 3.3 8.4 10.5 13.2 16s12.7 13.8 17.6 18.5c4.9 4.7 14.1 12.8 20.4 18.1 6.3 5.3 17.1 13.9 24 19.2 6.8 5.3 13.1 9.6 13.8 9.6zm0-5.9c-.4 0-3.6-2.3-7-5.2-3.5-2.9-6.6-5.7-7-6.2-.4-.6-.7-40.1-.8-87.8v-86.8l14.7.3 14.8.3.3 85.8.3 85.8-7.2 7c-4.1 3.6-7.7 6.8-8.1 6.8zm-41-87.8l-.3 56.8-15.2-15.3-15.3-15.2v-46c0-25.3.3-53.1.7-61.7l.7-15.8H1.5l.7 20.2c.3 11.2.5 45.8.3 77zm93.7 39.9l-10.5 10.9-.3-73c-.1-40.1-.1-73.4.1-74 .2-.6 5.7-1 13.8-1h13.4v119.6l-3 3.4c-1.7 1.7-7.7 8.1-13.5 14.1zm-149.4-58.7c-.4.3-4.1-6.1-8.1-14.2-4-8-9-18.9-11.1-24.2-2.1-5.3-4.7-12.3-5.8-15.6-1.1-3.3-3-9.6-4.1-14-1.1-4.4-2.3-8.8-2.6-9.8-.5-1.7.5-1.8 15.8-1.5l16.3.3.2 39.2c.1 21.7-.1 39.5-.6 39.8zm195.6-5c-1.2 1.6-1.5-.4-2-15.5-.4-9.6-.7-26.1-.7-36.6v-19.2h16c8.8 0 16 .2 16 .4s-2.3 7.2-5 15.6c-2.8 8.3-6.6 19-8.6 23.8-2 4.8-6 13.4-9 19.2s-6 11.2-6.7 12.3zm30-77.5c-.7 0-1.7-.2-2.3-.4-.5-.2-58.8-.5-129.4-.8-104.9-.4-128.5-.7-129.2-1.8-.4-.7-1.7-6.3-2.9-12.4-1.1-6.1-2.5-16.5-3.1-23.1-.6-6.6-.9-17.8-.8-25l.3-13 18.5-.7c10.2-.4 24.6-1.2 32-1.8s18.2-1.8 24-2.7c5.8-.8 16.3-2.9 23.5-4.5 7.2-1.6 20.6-5.5 29.9-8.6l16.9-5.7 4.1 1.6c2.3.9 8.9 3.4 14.7 5.6 5.8 2.2 16.6 5.6 24 7.6 7.4 1.9 18.1 4.2 23.7 5.1 5.7.8 18 2 27.5 2.6 9.5.6 21.3 1 26.2.9 5-.1 9.6-.1 10.4-.1 1.2.1 1.3 3.6.8 20.8-.4 16-1.2 24.3-3.2 36.1-1.5 8.4-3.1 16.4-3.6 17.8s-1.3 2.5-2 2.5zm-49.1-8.2l45.1.2 1.6-9.2c.9-5.1 2.1-13.3 2.7-18.2.6-5 1.1-14.6 1.3-21.5l.3-12.5-21.5-.6c-11.8-.3-26.9-1.4-33.5-2.4-6.6-1-18.8-3.5-27.2-5.6-8.3-2.1-21.3-6.2-28.8-9l-13.6-5.1-16.7 5.5c-9.2 3-22.1 6.7-28.7 8.1-6.6 1.5-18 3.5-25.4 4.6-7.3 1-20.4 2.4-29 2.9s-20.5 1.3-26.5 1.7l-10.9.6.6 19.1c.3 10.6 1.3 23.1 2.2 28.1.9 4.9 2.1 9.8 2.6 10.7.9 1.7 5 1.8 80.7 2.1 43.7.2 99.9.4 124.7.5zm-182.1-15.7c-4.2 0-5.5-.3-5.5-1.5 0-.8.9-1.5 2-1.5 1.9 0 2-.7 2-13.6 0-12.8-.1-13.6-2-14.1-1.1-.3-2-.9-2-1.4 0-.5 3.1-.9 6.9-.9h6.9l4.3 9.5c2.4 5.2 4.6 9.7 5 10 .4.2 2.6-4.1 5-9.5l4.3-10h6.8c3.8 0 6.8.4 6.8.9s-.9 1.1-2 1.4c-1.9.5-2 1.4-2 14.1 0 12.9.1 13.6 2 13.6 1.1 0 2 .7 2 1.5 0 1.2-1.5 1.5-7.9 1.5-4.5 0-8.2-.5-8.6-1.1-.4-.6.3-1.3 1.4-1.6 2-.5 2.1-1.2 2-12.2-.1-10.9-.2-11.4-1.5-8.6-.8 1.7-3 6.5-4.9 10.8-2.9 6.6-3.8 7.8-5.9 7.8-1.3 0-2.9-.6-3.4-1.2-.6-.7-2.7-5.2-4.7-10s-4.1-8.8-4.6-8.8-.9 5-.9 11c0 10.3.1 11 2 11 1.1 0 2 .7 2 1.5 0 1-1.3 1.4-5.5 1.4zm50.2-.2c-2.1.3-2.7-.2-3.3-2.3-.4-1.5-.1-3.2.6-4.1.7-.8 2.2-1.4 3.3-1.2 1.1.2 2.5 1.1 3.1 2 .8 1.3.8 2.2 0 3.5-.6 1-2.3 1.9-3.7 2.1zm16.4.2c-2.6 0-5.1-.3-5.4-.7-.4-.4-.7-1-.7-1.5s.9-.8 2-.8c1.9 0 2-.7 2-14s-.1-14-2-14c-1.1 0-2-.4-2-1s3-1 7-1c6.4 0 7.1.2 7.9 2.2.5 1.2 2.5 5.9 4.6 10.2l3.7 8 4.4-9.4c2.4-5.2 4.4-9.8 4.4-10.2 0-.5 3.1-.9 7-.9s7 .4 7 .9-.9 1.1-2 1.4c-1.9.5-2 1.4-2 14.1 0 12.9.1 13.6 2 13.6 1.1 0 2 .7 2 1.5 0 1.2-1.5 1.5-7.9 1.5-4.4 0-8.2-.5-8.6-1-.3-.6.5-1.4 1.9-2 2.5-1 2.6-1.1 2.6-12 0-6.1-.3-11-.8-11s-2.8 4.6-5.3 10.2c-4 9.1-4.8 10.3-7.3 10.6-2.6.3-3-.3-6.6-8-2.1-4.6-4.1-9.2-4.5-10.3-.6-1.7-.9-1.7-1.6-.5-.5.8-.9 5.6-.9 10.7 0 9 .1 9.3 2.5 10.2 1.4.5 2.3 1.4 1.9 2-.3.7-2.7 1.2-5.3 1.2zm50 0c-1.5 0-3.1-.3-3.5-.7s-.7-1.6-.7-2.8.5-2.7 1.2-3.3c.7-.7 2-1.2 2.9-1.2.9 0 2.2.7 2.9 1.5.7.9 1 2.6.6 4-.4 1.9-1.2 2.5-3.4 2.5zm24.9 0c-12.7 0-15-.2-15-1.5 0-.8.9-1.5 2-1.5 1.9 0 2-.7 2-14s-.1-14-2-14c-1.1 0-2-.4-2-1s5.7-1 15-1h15v3.5c0 2.3-.5 3.5-1.4 3.5-.8 0-1.6-.9-1.9-2-.5-1.7-1.4-2-7.1-2h-6.6v10h3.9c3.1 0 4.1-.4 4.6-2.1.4-1.1 1.2-1.9 1.8-1.7s1.3 2.3 1.5 4.6c.2 2.4-.2 4.9-.9 5.7-1.1 1.3-1.4 1.1-2.6-1.1-1.1-2.1-2-2.6-4.6-2.3l-3.2.3-.3 6.8-.3 6.8 6.8-.3c6.2-.3 6.8-.5 7.1-2.5.2-1.2 1-2.2 1.8-2.2 1 0 1.4 1.2 1.4 4v4h-15zm26.1 0c-1.5 0-3.1-.3-3.5-.7s-.7-1.6-.7-2.8.5-2.7 1.2-3.3c.7-.7 2-1.2 2.9-1.2.9 0 2.2.7 2.9 1.5.7.9 1 2.6.6 4-.4 1.9-1.2 2.5-3.4 2.5zm27.2-.1c-3.8 0-7.1-.7-9.6-2-2.1-1.1-4.7-3.4-5.7-5.2-1.3-2.2-2-5-2-9 0-3.2.5-6.8 1.1-8 .6-1.2 2.3-3.4 3.7-4.9 1.6-1.8 4.4-3.1 7.9-3.9 4.2-.9 6.5-.9 10.8 0 3 .7 5.9 1.8 6.6 2.6.6.8 1 2.6.8 4.2-.2 1.5-.9 2.8-1.5 2.8s-2.2-1.6-3.5-3.5c-2-2.9-3-3.5-6.6-3.8-3.5-.3-4.6.1-6.6 2.3-1.5 1.7-2.7 4.4-3.1 7.5-.4 2.7-.4 6.8 0 9s1.7 5.3 3 6.7c1.7 2 3.2 2.6 6 2.6 3.1 0 4.3-.6 7-3.8 1.9-2.2 3.7-3.5 4.4-3.1.6.4 1.1 1.2 1.1 1.9s-.8 2.1-1.8 3.3-2.7 2.6-3.9 3.2c-1.3.7-4.9 1.2-8.1 1.1zm23.7.1c-2.3 0-3.1-.5-3.6-2.5-.4-1.4-.1-3.1.6-4 .7-.8 2-1.5 3-1.5s2.3.7 3 1.5c.7.9 1 2.6.6 4-.5 1.9-1.3 2.5-3.6 2.5z"/></symbol><symbol viewBox="-180 271 251 251" id="nautico"><title>nautico</title><style>.st0{fill:#ED1C24;} .st1{fill:#FFFFFF;}</style><path class="st0" d="M-55 271c69 0 125 56 125 125S14 521-55 521s-125-56-125-125 56-125 125-125z"/><path class="st1" d="M-100.3 349.8l-3.2.8-2.4 4.8 1.6.6-.3.8c1.7-1.1 3.3-2.5 4.7-4.1.6-.8 1.2-1.6 1.7-2.4l-1.7 1-.4-1.5zm4.2-10.2l.8 1.1c0-2.6-.7-5.1-2-7.2l.2.9-2.7.5-.2 4.8 1.9 1.3 2-1.4zm-11.8 8.7l-4.7 1.7-3.4 4.2 2.4 2.4c1.3 0 3.7-.2 6.3-1.2l2.6-5.2-3.2-1.9zm-1.9-9.2l3.9 1.8 4.6-1.7.2-4.8c-2.1-1.5-4.1-2.3-5.1-2.6l-3.6 2.6v4.7zm4.4 3.1l-1.9 4.9 3.4 2-.1.2 3.6-.9c.5-.8 1.6-2.7 1.7-6.1l-2.4-1.6-.1-.1-4.2 1.6zm-1.7-11.2l-.7-2.5.3-.1c-2.2 0-4.5.6-6.7 1.8v.1l-.2 2.4 3.9.8 3.4-2.5zm-8.1 12.2l4.2-3.4v-5l-3.6-.7c-.6.4-3 2.2-4.7 4.3l.4 4.6 3.7.2zm-2 11.6l-2.6-.4-1.5 1.5h-.4l.9.9c1.5 1.3 3.2 2.1 5.1 2.5l-.5-.3 1.4-1.5-2.4-2.7zm65.8 128.8l-3.6-10.3-3.4 10.2-11 .3 8.6 6.4-3.1 10.5 8.8-6.2 9 6.2-3.2-10.3 8.7-6.6zm-9.8-21.8c.1-.1.2 0 .1.2-1.2 3.6-2.4 5.4-7.3 7.9-.1.3.3 1.2.5 1.3 8.1-2.1 12.2-6.9 12.2-13.5 0-4.6-2.4-8.9-7.2-8.9-1.4 0-2.9.4-3.9 1-2.5 1.5-4 3.9-4 7.1.1 6.7 5.4 7.7 9.6 4.9zm-2.6-11.6c2.5 0 3.5 3.3 3.5 7.1 0 .7-.1 1.4-.3 2.5 0 .2-.3.5-.4.6-.4.2-1 .4-1.4.4-2.1 0-4-1.8-4-6.1 0-3 1.3-4.5 2.6-4.5zm19.3-1.5c-1.6 0-3.4.5-4.7 1.7-2.3 2.1-3.2 5.8-3.2 9.3 0 4 .7 8 3.2 10.1 1.1.9 2.5 1.3 4.1 1.3 1.3 0 2.8-.4 3.9-1.2 2.9-2.1 3.8-6.2 3.8-10.5 0-3.8-.8-6.6-2.2-8.2-1-1.5-2.7-2.5-4.9-2.5zm1 20.4c-.2.2-.6.4-1 .4-1.8 0-3.1-3.1-3.1-10.5 0-4.5.6-7.4 1.6-8.4.2-.3.6-.4.9-.4 1.9 0 3 3.4 3 9.9-.1 6.3-.7 8.2-1.4 9zM-120.4 353l3.3.6 3.7-4.6-2.7-4.5-2.9-.3v.1l-3.1 3.6c0 .8.3 3.1 1.7 5.1z"/><path class="st1" d="M-55 279c-64.6 0-117 52.4-117 117s52.4 117 117 117S62 460.6 62 396 9.6 279-55 279zm54.9 27.4l1.6-3.9 1.5 3.8 4.2.3-3.2 2.6 1 4.1-3.4-2.2-3.6 2.2 1.1-4-3.2-2.7 4-.2zm-22.1-10l.5-4.2 2.4 3.3 4.1-.8-2.4 3.3 2 3.7-3.9-1.3-2.9 3.1v-4.1l-3.8-1.8 4-1.2zm-23.7-9.1l3.2 2.6 3.8-1.8-1.5 3.8 2.9 3-4.1-.2-2 3.7-1.1-4-4.1-.7 3.4-2.2-.5-4.2zm-7.9 34.4c6.8-1.9 23.4-6.3 27.1-4.5 4.7 2.4 0 7.7 2.9 12.4 2.5 4 37.8-7 48-10.3 4.7 4.9 9 10.2 12.8 16-6.7 2.1-42 12.8-53.7 14.4-13 1.8-4.7-8.8-8.8-12.4-3.6-3.1-23.3 1.9-28.3 3.2v-18.8zm0 37.6c7.1-2 22.9-6.1 26.5-4.3 4.7 2.4 0 7.7 2.9 12.4 2.4 3.9 52.8-10.7 70.2-15.9 2.5 5.7 4.6 11.7 6.1 17.9-19.6 5.6-59.6 16.8-69.3 18.1-13 1.8-4.7-8.8-8.8-12.4-3.5-3-21.9 1.5-27.7 3.1v-18.9zm-17.3-71.2l3.8 1.8 3.2-2.6-.6 4.2 3.4 2.2-4.1.7-1.1 4-2-3.7-4.1.2 2.9-3-1.4-3.8zm-10.3 84.8c-1 18.4 12.5 11.4 14.7 7.6.9-1.7 3.3-.4 2.7 1.1-3.5 9.5-24 10-23.6-6.1.3-12.6 10.8-21.5 22.9-18.4l-.7 5.5c1-4.3-15.1-8.1-16 10.3zm-9.3-77.3l2.4-3.3.5 4.2 3.9 1.3-3.8 1.8v4.1l-2.9-3.1-3.9 1.3 2-3.7-2.4-3.3 4.2.7zm-22.2 10.7l1.5-3.8 1.6 3.9 4.1.2-3.2 2.7 1.1 4-3.6-2.2-3.4 2.2 1-4.1-3.2-2.6 4.1-.3zm-10 30.6c.2-.4.5-.7.7-1.1v-.1l.1-.1.1-.2.1-.1.2-.2c.1-.1.2-.2.2-.3.1-.1.1-.2.2-.2l.1-.1.1-.1c.1-.1.2-.2.2-.3v-.1l.3-.3.3-.3.3-.3.3-.3.1-.1.2-.2.1-.1c.1-.1.2-.1.2-.2l.1-.1.1-.1.1-.1.2-.2.1-.1.2-.2.1-.1.2-.1.2-.1c.1-.1.2-.1.3-.2.1-.1.2-.1.3-.2h.1c.2-.1.4-.3.6-.4 3.7-2.3 7.9-3.2 11.6-2.6l1.4.3c1.4.4 2.7 1.1 3.8 1.9h.1c.1 0 .1.1.2.1l.1.1.1.1.3.3c5.4 5.4 5 15.2-1 22.4-1.7 2.1-3.8 3.8-5.9 5h-.1c-.1 0-.2.1-.3.1-5.5 2.9-11.7 2.8-16-.9-.7-.6-1.3-1.2-1.8-1.9l-.2-.2-.1-.1c0-.1-.1-.1-.1-.2l-.1-.1-.1-.2-.1-.1-.1-.2-.1-.1-.1-.2v-.1c0-.1-.1-.2-.1-.3v-.1l-.1-.2-.1-.2-.1-.1c0-.1-.1-.1-.1-.2l-.1-.1c0-.1-.1-.2-.1-.2v-.1c0-.1-.1-.2-.1-.2v-.1l-.1-.2v-.1c-.3-.8-.5-1.6-.6-2.5v-.3c0-.3-.1-.5-.1-.8v-.2c.5-3.4 1.5-7.3 3.7-10.9zm-26.1 17.3c.3-1.3 1.2-2.6 2.4-4 1.4-1.6 2.6-2.7 4-3.1 1.4-.4 2.8-.1 4.4 1.2l9.7 8c3.8 3.1 7.3 9.3 7.8 10.2l10.3 7.9c7-8.3 12.3-14.7 13-15.4.3-1 2.4-7.9 5.5-11.8l9.6-12c1.3-1.6 2.6-2.3 4.1-2.2 1.4.1 2.9.9 4.6 2.2 1.5 1.1 2.7 2.2 3.3 3.4.6 1.3.5 2.7-.8 4.2l-11.7 13.7s-3.4 3.5-10 6.8l-12.4 14.9c13 10 29.7 22.9 31.8 24.5 4.3 3.4 1 6.1 1 6.1-2.1 1.6-3.9-.1-4.1-.3l-32.6-25.5-33.5 40.3c-.2.2-1.6 2.2-4 1.2 0 0-3.8-2-.4-6.2 1.7-2 19.1-22.7 32.9-39.1l-9.6-7.5c-7.1-1.8-11.1-4.5-11.1-4.5l-12.1-9.2c-2-1.1-2.4-2.4-2.1-3.8zm31.8 75.9s-5.2 4.9-5.1.8c.1-4.1 0-25.5 0-25.5s-3.3-3.3 2.2-4c5.5-.6 5.1 1.8 5.1 1.8l13.4 14v-15.6s-4.5-2-1.3-2.9c3.2-.9 4.4-1.3 5.6-1.5 1.3-.3-.8 3.3-.8 3.3V425s-2 3.2-5.1-.4c-3.1-3.6-14.5-15.9-14.5-15.9v19.2c.1-.1 1.7 1.1.5 2.2zm-42.3-38.5c.3-12.6 10.8-21.5 22.9-18.4l-.7 5.5c.9-4.2-15.2-8-16.1 10.4-1 18.4 12.5 11.4 14.7 7.6.9-1.7 3.3-.4 2.7 1-3.4 9.5-23.9 10-23.5-6.1zM-55 506.9c-40.4 0-75.8-21.7-95.2-54 30.7-7.2 119.2-27.5 121.1-24.1 2.4 4.1-1.8 11.2 4.1 14.2 4 2 48.9-10.2 77-18.2C39.5 472-3.7 506.9-55 506.9zm35.4-82.9c-13 1.8-4.7-8.8-8.8-12.4-3.2-2.8-18.8 1-25.4 2.7v-18.8c7.6-2.1 21.9-5.7 25.4-4 4.7 2.4 0 7.7 2.9 12.4 2.6 4.1 65.2-12.6 80.4-16.8.2 2.9.4 5.9.4 8.8 0 3.5-.2 7-.5 10.5-22.8 5.8-65.1 16.3-74.4 17.6z"/><path class="st1" d="M-27.4 454.8c0-3 0-4.4.2-5.8 0-.1-.4-.4-.5-.3-1.6.7-4.3 1.7-7 1.9-.1.1-.2 1.1-.1 1.3.5.1 1.3.2 1.8.3.5.1.8.6.8 1.3.1 1 .1 3.6.1 6.5 0 3 0 5.4-.1 6.9 0 .4 0 3.6-.1 4h5.2c-.1-.4-.1-3.6-.2-4.1-.1-3.1-.1-9.1-.1-12zm-95.7-108l2.9-3.3-.4-4.2-2.5.5v-.7c-1.1 2.2-1.7 4.5-1.9 6.8v-.1l1.9 1zm-23.8 76.2c.3.3.5.5.6.5 1.5.7 2.4-.7 2.4-.7l33.5-40.3-1.5-1.2-35 41.7zm71.5 31.8c0-3 0-4.4.2-5.8 0-.1-.4-.4-.5-.3-1.5.7-4.3 1.7-7 1.9-.1.1-.2 1.1-.1 1.3.5.1 1.3.2 1.8.3.5.1.8.6.8 1.3.1 1 .1 3.6.1 6.5 0 3 0 5.4-.1 6.9 0 .4 0 3.6-.1 4h5.2c-.1-.4-.1-3.6-.2-4.1-.1-3.1-.1-9.1-.1-12z"/><path class="st1" d="M-146.5 357.1l12.1 9.2c.4.2 4.2 2.7 10.8 4.3h.1l.1.1 47.5 37.1s1.1 1.1 2.4.2c.1 0 .3-.3.5-.6l-72.7-56.3c-1.1 1.2-1.9 2.4-2.1 3.4-.2.9.1 1.7 1.3 2.6zm52.7 5.5l.1-.1.1-.1c6.2-3.1 9.4-6.3 9.7-6.6l11.7-13.7c.9-1.1 1-2 .6-2.8-.4-.9-1.5-1.9-2.8-2.9l-33.6 40 1.5 1.2 12.7-15z"/></symbol><symbol viewBox="-221 312.4 167.7 168.6" id="oeste"><title>oeste</title><style>.st0{fill:#FF0016;} .st1{fill:#FFFFFF;}</style><g id="svgstoredfb429b007e91eff80aab2c4cdb8490elayer2"><g id="svgstoredfb429b007e91eff80aab2c4cdb8490eg4262"><path id="svgstoredfb429b007e91eff80aab2c4cdb8490epath3959-7-1" d="M-219.78 312.42l-.5 3.9-.2 2.1s-4.8 42.5 16.3 89.4c21.3 47.5 63.8 71.2 63.8 71.2l1.2.7 2.1 1.2 2.1-1.2 1.2-.7s42.4-23.8 63.7-71.2c21.1-46.9 16.3-89.4 16.3-89.4l-.2-2.1-.5-3.9h-165.3z"/><path id="svgstoredfb429b007e91eff80aab2c4cdb8490epath3959-3" class="st0" d="M-213.78 319.22s-.1 1.2-.2 3c-.1 1.5-1.1 12.6.4 26.5.6 5.9 1.8 11.5 2.9 16.2.8 4 1.7 8.2 2.8 12.5h141.5c1.8-6.6 3-12.9 4-18.7h-92.2v-18.7h94.2c.8-12.8-.1-20.8-.1-20.8h-153.3zm12 76.9c1.1 3 2.4 6 3.8 9 1.5 3.3 3.1 6.5 4.8 9.6h112.2c1.7-3.1 3.3-6.3 4.8-9.6 1.4-3 2.6-6 3.8-9h-129.4zm20.8 37.3c5.5 7.2 11.3 13.4 16.8 18.7h54.2c5.5-5.2 11.2-11.5 16.8-18.7h-87.8z"/><path id="svgstoredfb429b007e91eff80aab2c4cdb8490epath2999" class="st1" d="M-203.98 326.22v3.6h6.8v2.2h-3.9s-1.1.1-2.1.7-2.1 2.1-2.3 4v26.7c.2 2 1.2 3.4 2.3 4s2.1.7 2.1.7h3.9v3.3h3.6v-3.2h2.6s1.1-.1 2.1-.7 2.1-2.1 2.3-4v-12h1.3v11.9c.2 2 1.2 3.4 2.3 4s2.1.7 2.1.7h14.2s1.1-.1 2.1-.7 2.1-2.1 2.3-4v-6.8h-3.6v6.4c-.1 1.1-.4 1.2-.6 1.4-.2.1-.3.1-.3.1h-14.1s-.1 0-.3-.1-.5-.3-.6-1.4v-11.5h4.7v-3.6h-4.7v-10.7c.1-1.1.4-1.2.6-1.4.2-.1.3-.1.3-.1h6.8v2h3.6v-2h3.7s.1 0 .3.1c.2.1.5.3.6 1.4v6.4h3.6v-6.8c-.2-2-1.2-3.4-2.3-4s-2.1-.7-2.1-.7h-3.8v-1.4s-.1-1.1-.7-2.1-2.1-2.1-4-2.3h-28.8zm10.3 3.6h18.2c1.1.1 1.2.4 1.4.6s.1.3.1.3v1.3h-6.8s-1.1.1-2.1.7-2.1 2.1-2.3 4v11.1h-1.3v-11.1c-.2-2-1.2-3.4-2.3-4s-2.1-.7-2.1-.7h-2.6v-2.2zm-7.5 5.9c.1 0 .1 0 0 0h3.9v12.2h-2.4v3.6h2.4v13h-3.8s-.1 0-.3-.1-.5-.3-.6-1.4v-25.8c.1-1.1.4-1.2.6-1.4.1 0 .2-.1.2-.1zm7.5 0h2.5s.1 0 .3.1c.2.1.5.3.6 1.4v10.7h-3.5v-12.2zm0 15.8h3.5v11.5c-.1 1.1-.4 1.2-.6 1.4-.2.1-.3.1-.3.1h-2.5v-13z"/><path id="svgstoredfb429b007e91eff80aab2c4cdb8490epath3959-7" class="st1" d="M-215.88 316.82l-.2 2.1s-4.7 41.3 15.9 87.1c20.7 46 61.9 69.2 61.9 69.2l1.2.7 1.2-.7s41.2-23.2 61.9-69.2c20.6-45.8 15.9-87.1 15.9-87.1l-.2-2.1h-157.6zm4.4 4.8h54.4v53.3h-49c-7.2-27.8-5.8-49.1-5.4-53.3zm56.9 0h91.8c.5 5.5 2.8 41.3-15.6 82.5-19 42.4-55.4 64.3-58.7 66.2-3.3-1.9-39.7-23.9-58.8-66.2-4.2-9.3-7.3-18.3-9.6-26.7h50.8v-55.8z"/></g></g></symbol><symbol viewBox="-169 308.7 112.8 175.7" id="parana"><title>parana</title><style>.st0{fill:#CD3529;} .st1{fill:#FFFFFF;} .st2{fill:#304296;}</style><path class="st0" d="M-169 484.5zm112.8-175.8v42.7c-6.1 0-11 4.9-11 11s4.9 11 11 11v71.7c0 12.2-13.9 26.2-26 26.2h-15.1c-3.4 0-10.8 2.2-14.3 10.8l-.9 2.3-1-2.3c-3.5-8.6-10.9-10.8-14.3-10.8h-15.1c-12.2 0-26-14-26-26.2v-71.7c6.1 0 11-4.9 11-11s-4.9-11-11-11v-42.7h112.7z"/><path class="st1" d="M-58.3 310.8v38.8c-6.2 1-10.9 6.3-10.9 12.8 0 6.5 4.7 11.8 10.9 12.8v69.9c0 11-13 24.1-23.9 24.1h-15.1c-5 0-11.6 3.4-15.2 10.5-3.7-7.1-10.3-10.5-15.3-10.5h-15.1c-11 0-24-13.1-24-24.1v-69.9c6.2-1 10.9-6.3 10.9-12.8 0-6.5-4.7-11.8-10.9-12.8v-38.8h108.6z"/><path class="st0" d="M-66.6 319.3v23.5c-7 3.7-11.8 11.1-11.8 19.6 0 8.5 4.8 15.9 11.8 19.6v61.2c-.3 2.6-.8 4.8-1.6 6.8-1.6 3.9-4.2 6.5-7.3 8.2-3.5 1.9-7.7 2.3-12.1 2.4h-9.6s-1.9.1-4.3.7c-3.6.9-7.1 2.2-11 5.3-3.9-3.1-7.4-4.4-11-5.3-2.3-.6-4.3-.7-4.3-.7h-9.6c-4.4-.2-8.6-.6-12.1-2.4-3.1-1.7-5.7-4.3-7.3-8.2-.8-1.9-1.3-4.1-1.6-6.8V382c7-3.7 11.8-11.1 11.8-19.6s-4.8-15.9-11.8-19.6v-23.5h91.8z"/><path class="st2" d="M-126.3 342.1l-.9.5c-.2 0-.2.3-.2.3s-.2.2-.2.3v6.1c0 .3.2.7.2.7s.2.2.5.2c.2 0 .3-.2.3-.2s.2-.3.2-.7l.1-7.2zm3.7-8.2v18.7h-3.6v-.6c-.2.2-.9.5-1.1.5-.3.2-.7.3-1.2.3-1 0-1.6-.3-1.9-.9-.5-.7-.7-1.9-.7-3.5v-5c0-.5.2-1.2.5-1.6.2-.3.7-.9 1.4-1.2l3-1.4v-5.4c0-.3-.2-.5-.2-.5s-.2-.2-.3-.2c-.3 0-.5.2-.5.2 0 .2-.2.5-.2.9v4h-3.7v-4.3c0-1.2.5-2.1 1.1-2.4.3-.5 1.6-.7 2.9-.7 1.7 0 2.9.2 3.5.7.6.3 1 1.2 1 2.4zm9.8 1.1v4.7h-3.8v-6.2c-.3 0-.5-.2-.5-.2-.2 0-.5.2-.5.2v19.3h-3.6V331h3.6v.9c.2-.3.5-.5.7-.9.5-.2.9-.2 1.4-.2.9 0 1.6.2 1.9.9.3.5.8 1.7.8 3.3zm5.2 7.1l-.9.5-.2.3s-.2.2-.2.3v6.1c0 .3.2.7.2.7s.2.2.3.2c.2 0 .4-.2.4-.2.3 0 .3-.3.3-.7l.1-7.2zm3.5-8.2v18.7h-3.5v-.6c-.3.2-.7.5-1 .5-.4.2-.9.3-1.2.3-1 0-1.6-.3-2.1-.9-.2-.7-.5-1.9-.5-3.5v-5c0-.5.2-1.2.3-1.6.2-.3.9-.9 1.4-1.2l3.1-1.4v-5.9c-.3 0-.5-.2-.7-.2-.2 0-.3.2-.3.2 0 .2-.2.5-.2.9v4h-3.6v-4.3c0-1.2.3-2.1 1-2.4.5-.5 1.6-.7 3.1-.7 1.6 0 2.6.2 3.3.7.7.3.9 1.2.9 2.4zm9.9 1.1v17.7h-3.6V334c0-.3-.2-.5-.2-.5s-.2-.2-.3-.2c-.2 0-.3.2-.3.2 0 .2-.3.5-.3.9v18.4h-3.5V331h3.5v.9c.3-.3.7-.5 1-.9.2-.2.9-.2 1.2-.2.9 0 1.6.2 1.9.9.5.5.7 1.7.7 3.7l-.1-.4zm6.1 7.1l-.9.5-.2.3v7.1s.2.2.7.2l.2-.2c.2 0 .2-.3.2-.7v-7.2zm3.6-8.2v18.7h-3.6v-.6c-.2.2-.7.5-1 .5-.2.2-.9.3-1.2.3-.7 0-1.5-.3-1.9-.9-.3-.7-.5-1.9-.5-3.5v-5c0-.5 0-1.2.2-1.6.3-.3.9-.9 1.7-1.2l2.8-1.4v-5.9c-.2 0-.4-.2-.4-.2-.5 0-.7.2-.7.2v4.9h-3.7v-4.3c0-1.2.2-2.1.9-2.4.5-.5 1.7-.7 3.1-.7 1.7 0 3 .2 3.3.7.8.3 1 1.2 1 2.4zm-4.5-7.1h3.3l-2.1 2.8h-2.4l1.2-2.8zm-8.3 61.1c-5.9-6.1-20.5-7.6-26.4-2.8l-34.9 30-4.8 4.2h21.8c8.7 0 11.5 4.7 13.9 10.4l14.7 36.6c.1.1.3.2.4.3 3.8-3.1 7.4-4.4 11-5.3 2.3-.6 4.3-.7 4.3-.7h9.6c4.4-.2 8.6-.6 12.1-2.4 3.1-1.7 5.7-4.3 7.3-8.2.8-1.9 1.3-4.1 1.6-6.8v-24.1l-30.6-31.2zm-22.9 19.6c-2.6 0-4.7-2.1-4.7-4.5 0-2.6 2.1-4.5 4.7-4.5 2.4 0 4.3 1.9 4.3 4.5 0 2.4-1.9 4.5-4.3 4.5zm-16.8-74.1v8.5h.2c.2 0 .7-.3.7-.3.2 0 .2-.5.2-.9v-5.9c0-.5 0-1.2-.2-1.2 0-.2-.5-.2-.7-.2h-.2zm-3.8-2.9h4.3c1.9 0 2.9.2 3.3.7.5.5.9 1.9.9 3.8v5.2c0 2.1-.3 3.3-.7 3.8-.5.5-1.6.9-3.1.9h-.9v7.8h-3.8v-22.2zm1.3 49.4h1.4c0-.2.2-.5.2-.9 0-.3-.2-.7-.2-.7-.2-.2-.5-.5-1-.5h-.4v2.1zm0-3.3h.2c.3 0 .9-.2 1-.2s.2-.3.2-.7c0-.5 0-.7-.2-.7-.2-.2-.7-.3-1-.3h-.2v1.9zm-1.7 4.7v-7.8h1.4c.5 0 1.2.2 1.6.2.2 0 .5.2 1 .2 0 .2.3.7.5.7.2.3.2.7.2 1 0 .5 0 .9-.3 1-.3.3-.9.7-1.2.7.7 0 1.1.2 1.4.5.2.5.7.9.7 1.2 0 .5-.2.9-.5 1 0 .3-.3.7-.7.9-.2 0-.7.2-.9.2-.3 0-1.2.2-1.9.2h-1.3zm16.7 0h-2.3l-1.9-3.6v3.6h-1.6v-7.8h2.4c.9 0 1.6.2 2.1.3.3.5.7 1.2.7 2.1 0 .3-.2 1-.3 1.2-.3.3-.9.5-1.2.5l2.1 3.7zm-4.2-4.3h.3c.5 0 1.2-.3 1.4-.3 0 0 .2-.5.2-.7 0-.3-.2-.7-.2-.9-.2-.2-.9-.3-1.4-.3h-.3v2.2zm13.5 1.3l-1-2.4v-1.2c0 .3-.2.5-.2.5 0 .3-.2.7-.2.7l-.9 2.4h2.3zm-4.8 3l2.8-7.8h1.9l3.1 7.8h-1.9l-.7-1.7h-3l-.5 1.7h-1.7zm12.4-1.1l1.1-1.2c0 .5.3.9.5.9 0 0 .5.2.9.2.2 0 .9-.2.9-.2.2 0 .3-.3.3-.9 0-.2-.3-.7-1-.9-.2 0-.3-.5-.5-.5-.7-.2-1.2-.5-1.2-.7-.5-.5-.7-.9-.7-1.4 0-.7.3-1.2.7-1.7.5-.2 1.4-.5 1.9-.5s1 .2 1.2.3c.3 0 .7.3 1 .9l-1 .7c0-.2-.3-.5-.3-.5-.2 0-.3-.2-.7-.2-.3 0-.5.2-.5.3-.2.2-.3.3-.3.7 0 .3.3.7.9 1l.3.3c.7.2 1 .5 1.4.7.3.5.7 1 .7 1.4 0 .7-.3 1.4-.7 1.7-.7.3-1.4.7-2.3.7-.3 0-1-.2-1.4-.2-.6 0-1.2-.3-1.2-.9zm11.5 1.1v-7.8h1.8v7.8h-1.8zm8 0v-7.8h1.7v6.4h2.6v1.4h-4.3z"/><path class="st1" d="M-94.2 366c-.2.2-.3.9-.3 1-.2.2-.5.5-.7 1-.2.5-.2 1.2-.2 1.4.2.2.3.3.7.3.7 0 1.6-.3 2.6-1 1.2-.7 2.2-1.7 3.3-2.9 0-.2.2-.3.5-.7l.7-.7s.2 0 .2.2c.3.2.3.3.3.5-.3.3-.5.7-.9 1-.3.7-1.2 1.2-1.9 1.9-1 .9-2.1 1.7-2.9 2.1-1 .5-1.7.9-2.6.9-1.1 0-1.4-.3-1.7-.9-.4-.3-.4-1.2.2-2.1.3-1 1-2.4 1.9-4.2.9-1.4 2.1-2.8 3.3-4 .3-.2.9-.5 1-.7.3-.3.7-.3.9-.3h.5c.2 0 .2.3.3.5h.7c.5.2.9.5.7 1.4-.5 1.4-1.4 2.8-2.6 4-1.4 1-2.5 1.6-3.1 1.6h-.5c-.3 0-.3-.2-.5-.3h.1zm1.4-.5c.2 0 .9-.5 1.4-1.2.9-.9 1.2-1.9 1.4-2.6.2 0 0-.3.2-.5-.2 0-.3-.2-.3-.2-.2 0-.7.3-1.6 1.2-.7 1-1.2 1.7-1.4 2.3-.2.3-.2.5 0 .7-.1.3.1.3.3.3zm-1.4-13.2c0-.2-.2-.3-.3-.5h-.3c-.2 0-.7.2-1 .7-.2.5-1 1.2-1.7 2.4-2.4 3.3-4.5 6.4-6.1 9.2-.3.4-.5.8-.7 1.1-.1.1-.2.2-.3.4l-.2.2c-1 1.2-1.9 2.1-2.4 2.8-.7.5-1 .7-1.4.7 0 0-.2 0-.2-.2.2 0 .2-.3.4-.9.3-1.6 1.7-3.8 3.8-6.4.3-.3.5-.7.5-.7.3-.2 0-.9 0-1-.2-.2-.5-.2-.7-.2-.2 0-.7.2-.9.3-.4.2-.7.7-.7 1-2.1 2.8-3.6 4.9-4.7 6.1-1 1.2-2.1 1.7-2.4 1.7-.2 0-.3 0-.3-.2 0 0 0-.3.2-.9.2-.5.5-1.4 1.4-2.6.9-1.2 1.7-2.6 2.9-4 .2 0 .5-.2.5-.3l.2-.2v-1c-.2-.2-.5-.2-.8-.2-.2 0-.4 0-.5.2-.2 0-.7.3-.9.5-1.1 1.2-2.1 2.6-2.8 4-.4.6-.7 1.2-1 1.8-.4.3-.6.7-.9 1-.9.7-1.4 1.5-2.1 1.9-.3.2-1 .5-1.2.5-.2 0-.3-.3-.3-.5s0-1 .2-1.6c.2-.2.2-.7.3-.9 0-.3.3-.7.5-.9 3.1-3.1 5.9-6.2 8.2-9.2 2.2-2.8 3.4-4.7 3.8-5.7 0-.3 0-1-.3-1.4-.3-.5-.9-.9-1.2-.9-.4 0-.9.2-1.4.3-.5.3-.9.7-.9.9-.2.2 0 .3 0 .3l-.2.3c-1.4 2.1-3.1 4.5-4.7 6.8-1.6 2.4-2.9 4.9-4.5 7.5-.2.2-.9.5-1.2.5-.3 0-.7.2-.7.2v.7c0 .2.4.3.5.3h.2l.2-.2v.2c0 .2-.2.7-.3.9 0 .2-.2.5-.2.7-.4.9-.4 1.6 0 2.1.2.5.7 1 1.4 1 .4 0 .9-.2 1.2-.2.3-.3.7-.7 1.2-.9.3-.3.8-.8 1.4-1.2 0 0 0 .1-.1.1 0 .2.2.3.5.5 0 .3.2.7.3.7h.9c.3 0 .9-.2 1.7-.7.3-.3 1.2-1.2 2.2-2.1 0 .1-.1.2-.1.3 0 .2-.4.3-.4.3-.2.9-.2 1.4 0 1.9.4.5.7.7 1.2.7s.9-.2 1.2-.3c.4-.1.9-.4 1.4-.9 0 .2 0 .3.4.3 0 0 .3.2.9.3.3.2.7.7.9.7.2 0 .5.2.9.2.5 0 1.4-.2 1.9-.3.7-.5 1.2-.9 1.9-1.4.9-1 2.1-2.2 3-3.5.9-1.2 1.4-2.4 1.6-3.3.5-.7.5-1.6.2-1.9 0-.7-.3-.9-.9-.9-.7 0-1.2.2-2.1.7-.8.3-1.5.8-2.4 1.6 1.2-2.1 2.3-3.7 3.5-5.2 1.2-1.9 1.9-2.8 2.4-3.3 0 0 .3-.2.5-.3.5-.2.7-.3.7-.3v-.5c-.3.5-.5.3-.8.3zm-19.2 5.2c1.4-1.9 3.1-4.4 4.6-6.8h.7v.3c-.2.7-1.2 2.3-3.1 4.7-1.6 2.4-3.8 5-5.9 7.6l-.2.2c1.1-1.8 2.6-3.7 3.9-6zm16.1 3.8c.2 0 .3.2.3.5v.5c-.3.5-.7 1.5-1.6 2.6-.9 1-1.9 2.4-2.6 3.5-.7.5-1.2 1.2-1.6 1.4-.5.2-.9.2-1.2.2-.5 0-.7 0-.9-.2 0-.2 0-.7.2-1 .2-.9.7-1.6 1.2-2.6.7-.5 1.4-1.4 2.2-2.3.7-.7 1.7-1.5 2.4-1.9.7-.5 1.4-.7 1.6-.7zm-20.6-11.8c.9.2 1.6.7 1.9 1.4.2.5.5 1.2.2 1.9-.2.7-.5 1-.9 1.4-.3.2-.9.3-1.2.3-.2 0-.5 0-.5-.2-.2-.2-.2-.9 0-1.6 0-.3 0-.7-.2-1-.2-.2-.7-.2-1.1-.2-.7 0-1.7.2-2.9.9-1.2 1-2.6 2.1-3.8 3.7-2.1 1.6-4 3.8-5.2 5.9-1.6 2.4-2.8 4.7-3.3 6.4-.3 1.4-.3 2.3 0 3 .2.9 1.1 1.2 2.1 1.2.7 0 1.6 0 2.2-.3.9-.2 1.9-.9 3-1.4.5-.2 1.2-.7 2.1-1 .9-.5 1.2-1 1.6-1 .2 0 .3.3.3.3-.2 0 0 .2 0 .3-.2.3-.3.7-.9 1-.3.3-1.4.9-1.9 1.6-1.2.7-2.4 1.4-3.5 1.6-1.2.7-2.2 1-2.9 1-2.1 0-3.5-.7-4.3-1.7-.9-1-1-2.8-.3-4.5.3-1.9 1.7-4 3.5-6.6 1.7-2.8 4.2-5.6 6.8-8.1 1.4-1.9 2.8-3.3 4.2-4 1-.9 2.1-1.4 2.8-1.4.2 0 .7.3 1.1.3.5.2.9.7 1.2.9l-.1-.1zm41.9 78.4c0 2.2-1.7 4-4 4-1.5 0-2.7-.7-3.4-1.8-.7 1.1-1.9 1.8-3.4 1.8s-2.8-.8-3.5-2c-.5.9-1.3 1.5-2.3 1.8v30.4h-2.1v-30.3c-1.2-.3-2.2-1-2.7-2.1-.6 1.3-2 2.2-3.6 2.2-1.5 0-2.7-.7-3.4-1.8-.7 1.1-1.9 1.8-3.4 1.8-2.2 0-4-1.7-4-4s1.7-4 4-4c1.5 0 2.7.7 3.4 1.9.7-1.1 1.9-1.9 3.4-1.9 1.6 0 2.9.9 3.6 2.2.6-1.3 2-2.2 3.5-2.2s2.8.8 3.5 2c.7-1.2 1.9-2 3.5-2 1.4 0 2.7.7 3.4 1.9.7-1.1 1.9-1.9 3.4-1.9 2.4 0 4.1 1.8 4.1 4z"/></symbol><symbol viewBox="-158 650.1 452 452.4" id="paysandu"><title>paysandu</title><path d="M68 1102.5c-106.9-65.2-205.7-175.8-226-361.6 47.3-13.6 86.1-49.2 109.6-90.8h232.8c23.6 41.7 62.3 77.2 109.6 90.8-20.3 185.8-119 296.4-226 361.6z" fill="#0091CF"/><g fill="#FFF"><path d="M72.5 983.6c-.1-.4-.6-.6-.9-.6-.5.1-2.3.5-1.5 1.2.8.7 2.6-.2 2.4-.6zm8-.9c-.2-.6-.8-.9-1.4-.9-.8.2-3.2.8-2 1.8 1.2 1 3.7-.2 3.4-.9zm105.2-173.3c3.5 3.7 8.8 6.9 15.6 9.6 5.6 2.2 10.6 3.3 14.9 3.1s8.3-1.4 12.1-3.6c3.7-2.2 7.1-5.5 10.2-9.9l-15-11.9c-2.5 3.7-5 6.1-7.8 7.5-2.7 1.3-6 1.3-9.7-.2-3.8-1.5-6.3-4-7.4-7.4s-.3-8.7 2.5-15.7c2.2-5.7 4.8-9.4 7.6-11.4 3.8-2.6 7.9-3.1 12.3-1.3 1.9.8 3.6 1.9 4.8 3.3 1.3 1.4 2.1 3.1 2.6 5 .3 1.2.4 2.8.2 5l18.7 3c.4-7.5-1-13.8-4.3-18.8s-8.9-9.1-16.8-12.2c-10.2-4-19.1-4.3-26.9-.9-7.8 3.4-13.7 10.3-17.9 20.8-3.1 7.8-4 14.9-2.9 21.1 1.3 6.2 3.7 11.2 7.2 14.9zM77.5 762.6c-1.9 1.7-4.7 2.5-8.2 2.5-4.8 0-8.5-1.6-11-4.9-1.6-2-2.6-5-3.1-8.8l-23.8 1.5c.7 8.2 3.7 14.9 9 20.2s14.8 7.9 28.5 7.9c7.8 0 14.3-1.1 19.5-3.4 5.2-2.3 9.2-5.6 12-10 2.9-4.4 4.3-9.1 4.3-14.3 0-4.4-1.1-8.4-3.2-12-2.1-3.6-5.6-6.5-10.3-9-4.7-2.4-12.5-4.8-23.4-7.1-4.4-.9-7.2-1.9-8.4-3-1.2-1-1.8-2.2-1.8-3.5 0-1.8.7-3.3 2.2-4.5s3.6-1.8 6.6-1.8c3.5 0 6.3.8 8.3 2.5s3.3 4.3 4 7.9l23.5-1.4c-1-8.4-4.3-14.5-9.7-18.3s-13.3-5.8-23.6-5.8c-8.4 0-15 1.1-19.9 3.2-4.8 2.1-8.4 5-10.9 8.7-2.4 3.7-3.6 7.6-3.6 11.8 0 6.3 2.4 11.5 7.1 15.6s12.5 7.3 23.4 9.8c6.7 1.5 10.9 3 12.8 4.7 1.8 1.7 2.7 3.5 2.7 5.6-.1 2.2-1 4.2-3 5.9zm-130.3 51.1L-68.4 794l9-7.1c6.6-5.2 10.4-10.7 11.2-16.2.8-5.6-.9-11.1-5.1-16.4-4.1-5.2-8.8-8.1-14-8.5-5.2-.5-10.8 1.6-16.7 6.3l-27.4 21.5 42.1 53.2 16.5-13.1zM-72.9 780l-4 3.2-9.4-11.9 4.7-3.7c3.1-2.4 5.6-3.5 7.7-3.2 2 .3 3.7 1.3 5 2.9 1.4 1.7 1.8 3.6 1.4 5.7-.5 2.2-2.3 4.5-5.4 7zm278 93.9c-5.2.6-10.7.6-13-2.5 9.3-3 35.6-12.3 36.8-26.6-19.2 1.9-68.1-5.3-102.3 1.7-25.8 5.3-41.5 19.9-40.9 39.9 10.5-4.2 28.6 1.4 43.8 4.8-1.5-3.5-2.2-5.6-1.1-7.1 7.5 6.1 15.9 13.1 34.4 10-2.7-2.5-4.5-5.1-3.6-7.6 18.4 1.3 36.7-2.5 45.9-12.6zm-48.4 8.7l-.9 2.7c-.7 2.1-.5 4.1.3 5.9-4.5.2-8.9-.3-13.2-2-4.7-1.8-8.3-4.8-12.1-7.9l-3-2.5-2.3 3.1c-1 1.3-1.3 2.8-1.3 4.2-10.6-2.6-24.4-6-34.6-4.5 2.1-18.5 20.6-28 37.8-31.5 11.7-2.4 24.3-3 36.3-3.1 12.5-.1 25 .6 37.5 1.1 5.3.2 10.5.5 15.8.6 2.3 0 4.7.1 7 0-5.4 9.4-24.8 16.5-32.8 19.1l-4.8 1.6 3 4.1c1.4 1.9 3.3 3 5.5 3.7-10.4 5.4-24.7 6.3-35.2 5.6l-3-.2z"/><path d="M102.2 961.2C93.3 947.7 78 936.3 75.9 921c-4.3-30.2 4.8-67.8 18-87.4-9.5-1.7-16.4 1.6-20.9 8-2.2-7-4.1-14.4-9.6-21.5-5.9 7.7-9.7 15-12.5 22.3-9.2-5.7-17.3-5.5-24.4-5.6C36 851 42.1 866.4 45 882.1c-15.6-20.3-31.8-41-76-41.1-21.4 0-43.4-3.3-66.9-11.5 8.2 19.9 24.6 28.7 39.9 35.9-3 1.8-7.2 1.8-10.4 1.9 7.7 7.8 22.8 13.1 39.5 15.3-1.1 1.9-5.5 3-9.7 4 10.1 5.8 30.9 4.6 41.7 2.5-1.1 2.3-3.7 3.2-6.2 4 8.7 2.9 22.7-3 31.9-2.6 6.8.3 12.7 2.9 17.9 6.8.4 7.4.2 14.8-.7 22.1-.7 6-7.8 10.6-7.2 16.6.6 6.4 7.2 11.6 10.8 16.9 6.1 8.9 8.9 19.9 14.5 26.2.6.6 1.7 3.9 4.3 6.3 1.9 1.7 5.2 1.2 5.4-.3.4-2.9-2.5-6-3.9-8.1 1 1.1 4.6 6.8 5 7.4 1.5 2.5 6.8 2.4 6.8-.7 0-2.4-1.4-5.7-4.1-9 2.1 2.1 4.2 6.4 6.1 7.5 3.2 2 6.3.4 7-.8 1.1-1.9-1.1-6.9-5-10.3 2.9 2.5 5 6.6 6.1 7.8 4.4 4.5 8.6-.3 8.6-2.7 0-1.2-.3-2.1-.7-2.9l-.3-.6c-1.1-1.7-2.7-2.7-3.5-4 .6.9 2 2.2 2.8 3 .4.4.5.7.7 1l.3.6c.1.2.3.3.5.6 1.1 1.1 2.7 2.3 4 2.6 4.7.9 7.5-3.9 6.6-6.9-1.1-4.8-5.4-3.6-8.6-8.4zM29.3 887c-5.1-.2-10.8 1.1-15.8 2-1.9.4-4.2.8-6.5 1.1l2.8-5.9-7.1 1.3c-7.4 1.4-20.1 2.4-30 .8.7-.6 1.4-1.2 1.8-2l2.6-4.7-5.4-.7c-9-1.2-21.5-3.9-30.5-9.1 1-.3 2-.8 2.9-1.3l5.8-3.6-6.2-2.9c-14.1-6.6-26.3-13.6-34.2-26.3 19.4 5.9 39.2 8.9 59.6 8.9 17.6 0 34.3 3.3 48.8 13.8 11 8 18.7 18.6 26.9 29.3.5 1.6.9 3.2 1.4 4.8-5-3.2-10.6-5.2-16.9-5.5zm42.2 95.6s1 0 1.3.9c.3.8-1.9 1.9-3 1-1-1 .6-1.6 1.7-1.9zm7.6-1.2s1.4 0 1.7 1.1c.4 1.1-2.5 2.5-4 1.3-1.4-1.2.8-2 2.3-2.4zm8.6-3.6s1.6.1 2 1.3-2.9 2.9-4.5 1.5c-1.7-1.5.7-2.4 2.5-2.8zm10.9-3.7c.5 1.6-3.7 3.7-5.8 1.9s1-3 3.3-3.5c0-.1 2 0 2.5 1.6zM109 970c-.6 1.8-3.6 2.7-4.9 2.1s-3.5-3.1-3.5-3.1 3.9-2.7 5.8-2.2c1.8.5 3.2 1.4 2.6 3.2z"/><path d="M174 670.1H-37.9c-23.6 37.6-58.5 69-100 85.1 18.9 139.6 87 251.3 206 327.3 119-76.1 187.1-187.8 206-327.3-41.6-16.1-76.5-47.5-100.1-85.1zm-24.8 233.2v98.3c-23.5 25-50.6 47.6-81.2 67.8-30.6-20.2-57.7-42.8-81.2-67.8v-98.3h-13.9V986c-52.9-62.1-85.6-137.3-98.7-223.9 38.3-16.9 70.7-46.1 93.9-80.9h4.9v153.1h13.9V681.2h162.4v153.1h13.9V681.2h4.9c23.1 34.8 55.5 64 93.9 80.9-13.1 86.6-45.8 161.8-98.7 223.9v-82.7h-14.1z"/><path d="M89.3 979.2c-.2-.6-.9-1-1.6-1-.9.2-3.7.9-2.3 2.1 1.3 1.1 4.2-.2 3.9-1.1zm3.8-3.5c1.8 1.5 5.6-.2 5.2-1.5-.3-.9-1.3-1.4-2.1-1.4-1.2.3-5 1.2-3.1 2.9zm13.1-8.5c-1.2-.3-3.8 1.1-5.1 1.9.9.9 2.2 2.2 3.1 2.7 1.3.7 3.9-.5 4.4-1.9.7-1.7-1-2.3-2.4-2.7z"/></g></symbol><symbol viewBox="-206.2 310.3 187.1 172.6" id="santa_cruz"><title>santa_cruz</title><style>.st0{fill:#FFFFFF;} .st1{fill:#CD3529;}</style><path d="M-112.6 482.9c-18-17.3-31.4-10.5-49.6-28l-5 4.2c-15.2-10.6-25.1-24-31.3-39.5-11.9-2.1-9-15.2 3.1-14.2l20.6-39.4-17.6-9.3 23.7-42.9c23.2 5 25.9-13 56.1 3.5 30.3-16.5 33 1.6 56.2-3.5l23.7 42.9-17.6 9.3 20.6 39.4c12.1-1 15 12.1 3.1 14.2-6.2 15.5-16.1 28.9-31.3 39.5l-5-4.2c-18.2 17.5-31.7 10.7-49.7 28z"/><path class="st0" d="M-196.9 409.9h5.7l24.2-46.3-17.5-9.2 18.7-33.9c8.2 1.6 17.2-1.7 25-3.7 5.1-.9 9-.5 13.9.9s9.6 4 14 6.4c7.3-3.7 14.8-7.8 23.2-7.8 8 .8 15.2 4.1 23.3 4.6 2 0 4.7.1 6.6-.3l18.7 33.9-17.5 9.2 24.2 46.3h5.4c5.1 0 4.6 5.8 0 5.8h-2.6c-3.5 8-7.5 16.1-13.2 22.9-4.1 4.9-8.4 9-13.2 12.9l-5.5-4.8c-5.5 5.4-10.9 10.4-18.1 13.4-4.1 1.9-8.6 3.1-12.9 4.7-6.6 2.1-13.1 5.7-18.4 10.1-5.3-4.4-11.9-8-18.4-10.1-6.2-2.4-12.6-4.1-18.3-7.5-4.8-2.8-8.6-6.7-12.6-10.6l-5.5 4.8c-8.9-7.3-15.6-14.9-21.2-25-1.8-3.5-3.5-7.4-5-11h-3.1c-4.1 0-4.3-5.7.1-5.7z"/><path d="M-119 384.2v7h4.5v-7zm-1.4-25.5v7h10.6v-7zm1.1 14.3v6.9h10.8V373zm-2.5-25.3v6.9h18.3v-6.9zm-5.7 83.2v6.9h29v-6.9zm6-15.2v6.9h16.9v-6.9zm2.9-21.8v7h10.8v-7z"/><path d="M-185.1 409.9h2.6c1.8 0 3.2 1.3 3.2 2.8 0 1.7-1.4 3-3.2 3l-5.6-.1c4.7 11.1 11.4 20.8 20.5 28.9l5.6-4.8 4.3 4c2.1 2.1 8.2 9.1 12.7 9.1 37.2.8 35.3-107.9 14.3-129.5-1.8-1.9-6.4-1.8-9.2-1.2-7.6 2.1-15 4.4-22.9 4.2l-14.4 26 17.3 9.1-25.2 48.5z"/><path class="st1" d="M-40.5 409.9h-2.7c-1.8 0-3.2 1.3-3.2 2.8 0 1.7 1.4 3 3.2 3l5.7-.1c-4.6 11.1-11.3 20.8-20.5 28.9l-5.6-4.8-4.4 4c-2.1 2.1-8.2 9.1-12.6 9.1-37.3.8-35.3-107.9-14.3-129.5 1.8-1.9 6.4-1.8 9.2-1.2 7.6 2.1 15 4.4 22.9 4.2l14.4 26-17.4 9.1 25.3 48.5z"/><path class="st0" d="M-110.8 359.7h-16.5v4.9h16.5zm-31.1 5.9c.1-.3.7-.9 1-1h4.6v-4.9h-4.6c-2.9 0-5.9 3-5.9 5.9v6.5h4.9v-6.5zm53 8.4h-4.2v4.9h4.2zm-14 0h-24.2v4.9h24.2zm-45.7 4.9h12.5V374h-12.5c-5.6 0-9.7 5.1-10.1 12.4v1c0 6.8 4.1 11.9 9.5 12.5V395c-3.2-.3-4.6-4.1-4.6-7.6v-.7c.2-3.9 2-7.8 5.2-7.8zm8.9 21h3.3v-5h-3.3zm36.8-5h-23.8v5h23.8zm12.1 21.8h-2.3v4.9h2.3c5.8 0 9-7.3 9-14.1 0-2.2-.3-5.5-1.9-8.2-1.6-2.8-4.1-4.4-7.1-4.4h-2.3v4.9h2.3c.8 0 1.9.2 2.8 1.9.8 1.4 1.2 3.5 1.2 5.8.1 4.8-1.9 9.2-4 9.2zm-36.3 4.9h24.2v-4.9h-24.2zm-12.5 0h2.8v-4.9h-2.8zm-12.7 0h3v-4.9h-3z"/><path class="st0" d="M-129.4 354.5c0-.4.1-.9.8-.9h35c.7 0 1.4 0 1.4 2.1h4.9c0-4.4-2.4-7.1-6.3-7.1h-35c-3.3 0-5.7 2.5-5.7 5.8v27.7h4.9v-27.6zm37.5 75.1v.6c0 .5-.2 1.1-.5 1.5-.2.2-.3.2-.4.2h-35.8c-.5 0-.8-.3-.8-.9v-39h-4.9v39c0 3.3 2.5 5.8 5.7 5.8h35.8c1.6 0 3.1-.7 4.1-2 1-1.3 1.6-3 1.6-4.6 0-.4 0-.2-.1-.6h-4.7z"/><path class="st0" d="M-75.7 372.9v-9.3c0-3.2-2.4-5.8-5.4-5.8h-14.2c-3 0-5.5 2.6-5.5 5.8v58.3c0 3.2 2.5 5.8 5.5 5.8h14.2c3.2 0 5.4-2.3 5.4-5.8v-6.1h-4.9v6.1c0 .5-.1.8-.1.8h-14.5c-.2 0-.5-.3-.5-.9v-58.3c0-.5.3-.9.5-.9H-81c.2 0 .5.4.5.9v9.3l4.8.1zm-39.9 17.3v-4.9h-26.3V381h-5v46.2h5v-37z"/></symbol><symbol viewBox="-192.9 303.1 160.5 187.1" id="vitoria"><title>vitoria</title><style>.st0{fill:#FFFFFF;} .st1{fill:#CD3529;}</style><path d="M-121 312.1c-18 19.5-38.8 31.1-61.8 34.3l-9.1 1.3-.6 9.2c-1.1 15 .9 30.9 5.5 46l.1.3c11.3 36.5 36.5 67.1 69.2 84.2l5.4 2.8 5.3-2.8c32.7-17 58-47.7 69.2-84.2l.1-.3v-.1c4.4-14.9 6.2-30.8 5.1-45.9l-.6-9.2-9.1-1.3c-23-3.3-43.2-14.5-61.9-34.4l-8.4-8.9-8.4 9z"/><path class="st0" d="M-117.8 315.1c-18.7 20.3-40.4 32.3-64.4 35.7l-5.6.8-.4 5.7c-1 14.4.8 29.8 5.3 44.4l.1.3c10.9 35.4 35.4 65.1 67 81.6l3.3 1.7 3.3-1.7c31.7-16.5 56.1-46.2 67.1-81.6l.1-.3c4.3-14.4 6-29.8 4.9-44.3l-.4-5.7-5.6-.8c-24-3.4-45.1-15.1-64.5-35.8l-5.2-5.5-5 5.5z"/><path d="M-49 399.6h-127.2l.1.2c10.4 33.6 33.5 61.8 63.6 77.4h.2c30-15.6 53.2-43.9 63.6-77.4l.1-.2h-.4z"/><path class="st1" d="M-48.8 399.8c4.2-14 5.7-28.6 4.7-42.1-25.4-3.6-48.1-16.1-68.6-37.9-20.1 21.8-43.2 34.3-68.6 37.9-.9 13.5.8 28 5.1 42.1h127.4z"/><path class="st0" d="M-162.3 362.5l14.6-7.6c-.2 4.5.4 10 2.5 14.4L-131 400v17.2l-21.2-44.2c-2.1-4.1-6.5-7.1-10.1-10.5zm100.8 1.3l-14.6-7.6c.2 4.5-.6 10-2.5 14.4l-22.7 51.4 8.9-1.3 20.8-46.2c2-4.3 6.5-7.3 10.1-10.7zm-70.8 85.7h13.1v-45.1h13.6c2.8 0 4.5 3.6 6.6 5.5l.2-18.6c-2.3 1.7-3.8 4.9-6.6 4.9H-119l-.2-18.4-8.7 2.7v61.6c-.1 2.8-2.9 4.9-4.4 7.4zm4.5-82.9v-12.5c0-2.8-2.7-4.9-4.4-7.2h40.6v12.5c-3.2-2.1-5.9-5.9-9.5-5.9h-18v11.4l-8.7 1.7zm27.7 83h13.5v-12.5c-.6.6-.9 5.7-10.8 5.7l-2.7 6.8z"/><path class="st0" d="M-116.2 437.9v12.3l6.4 12.7 12.5-28.2-7.7.2-5.7 14.4zm-14.8-17.3c-10.4-4.6-20.1-12.1-26.9-20.8 2.1-4.4 6.3-8.7 9.9-10.8l-4.2-7.6c-5.1 3.8-10.6 8-13.1 13.6-.9 2.1-2.7 3.6-4.4 4.7 1.7.9 2.8.8 4.5 3.2 8.3 11.9 21 21.2 34.1 26 .1-3.1.1-5 .1-8.3zm-9.3-47l3.8 7.4c17.4-7.8 34.5-8 50.2-2.1l3-6.6c-17-7.4-37.9-6.8-57 1.3zm69.7 5.2l-2.8 6.6 5.3 2.7c1.5.6 2.1 2.7 3 4l4.7-10.4c-1.7 0-3.6.8-5.1 0l-5.1-2.9zm-45.8 44.7v7.2c19.1 4.2 37.1-1.5 53.8-11.4l-4.9-7.4c-11.8 10.1-31.9 15-48.9 11.6z"/></symbol></svg>