<svg xmlns="http://www.w3.org/2000/svg" viewBox="-230.7 311.4 376.5 480.9"><path fill="#FFF" stroke="#FFE501" stroke-width="11.5" d="M114.6 666.3L-42.5 785.1l-157-118.7s-10.7-7.7-17-19.6c-6.3-11.8-8.2-27.8-8.2-27.8l-.2-301.6 365-.2-.3 299.3s-2.6 19.6-8.9 32c-6.3 12.5-16.3 17.8-16.3 17.8z"/><path fill="#FF0D00" d="M-111.3 726.1l-34.9-26.5v-92.5l34.7-35.2.2 154.2zm46.8 35.4l.1-240.9 34.6-31.2v279.2l-12.6 9.3-22.1-16.4zm190.7-116.1c-5.7 11.4-14.8 16.1-14.8 16.1l-13.1 10V357.8l36.2-34.9-.3 293.2c0 .1-2.3 18-8 29.3z"/><path fill="#13007C" d="M-219 618.7l-.2-295.6 353.6-.2-331.1 338.4s-9.7-7.3-15.3-17.9c-5.6-10.6-7-24.7-7-24.7z"/><path fill="#FFF" d="M-170 372.2H16.9L-170 563.6V372.2zm-24-15.2l-12.4 9.2 4.7-14.7-12.6-9h15.5l4.6-14.8 4.9 14.7 15.5-.1-12.5 9.1 5 14.7-12.7-9.1zm134.7-.6l-12.4 9.2 4.7-14.7-12.6-9h15.5l4.6-14.8 4.9 14.7 15.5-.1-12.5 9.1 5 14.7-12.7-9.1zm134.5 0l-12.4 9.2 4.7-14.7-12.6-9h15.5l4.6-14.8 4.9 14.7 15.5-.1-12.5 9.1 5 14.7-12.7-9.1zm-89.8 92.1l-12.4 9.2 4.7-14.7-12.6-9h15.5l4.6-14.8 4.9 14.7 15.5-.1-12.5 9.1 5 14.7-12.7-9.1zm-89.8 91.6l-12.4 9.2 4.7-14.7-12.6-9h15.5l4.6-14.8 4.9 14.7 15.5-.1-12.5 9.1 5 14.7-12.7-9.1zm-89.7 91.6l-12.4 9.2 4.7-14.7-12.6-9h15.5l4.6-14.8 4.9 14.7 15.4-.1-12.5 9.1 5 14.7-12.6-9.1zm.4-137.6l-12.4 9.2 4.7-14.7-12.6-9h15.5l4.6-14.8 4.9 14.7 15.5-.1-12.5 9.1 5 14.7-12.7-9.1z"/><path fill="#4B1F17" d="M-126.5 491.8s15.8-.1 21.4.7c5.7.8 1 3.2 1 3.2h-55.2s-2.6-1.7 1.6-2.7c4.2-1 11.2-.7 11.2-.7s5.2-.4 5.7-1.5.6-3.7.6-3.7l.2-64.2 7-.2-.1 64.3s.5 1.8 1.9 3.2c1.5 1.1 4.7 1.6 4.7 1.6z"/><path fill="#2A4C2C" d="M-105.3 402.3c0 12.4-14.3 22.4-31.9 22.4s-31.9-10-31.9-22.4 14.3-22.4 31.9-22.4 31.9 10 31.9 22.4z"/><path fill="#FF0D00" d="M-152.8 396c0 1.3-1 2.4-2.3 2.4-1.3 0-2.3-1.1-2.3-2.4 0-1.3 1-2.4 2.3-2.4 1.2 0 2.3 1.1 2.3 2.4zm13.5-6.2c0 1.3-1 2.4-2.3 2.4-1.3 0-2.3-1.1-2.3-2.4 0-1.3 1-2.4 2.3-2.4 1.2 0 2.3 1.1 2.3 2.4zm9.7 9.9c0 1.3-1 2.4-2.3 2.4-1.3 0-2.3-1.1-2.3-2.4 0-1.3 1-2.4 2.3-2.4 1.3.1 2.3 1.1 2.3 2.4zm15.3-4.4c0 1.3-1 2.4-2.3 2.4-1.3 0-2.3-1.1-2.3-2.4 0-1.3 1-2.4 2.3-2.4 1.3.1 2.3 1.1 2.3 2.4zm-6.5 13.9c0 1.3-1 2.4-2.3 2.4-1.3 0-2.3-1.1-2.3-2.4 0-1.3 1-2.4 2.3-2.4 1.3 0 2.3 1.1 2.3 2.4zm-20.3.1c0 1.3-1 2.4-2.3 2.4-1.3 0-2.3-1.1-2.3-2.4 0-1.3 1-2.4 2.3-2.4 1.3.1 2.3 1.1 2.3 2.4z"/><path d="M-101.2 463.6c2.1 6.6.1.7 2.3 7.1-2.2-6.4 1.8.5 1.7 3.6s-3.1 1.5-5 2.8c-1.9 1.3-2.5 3.7-2.5 3.7l.1 3.4 1.2 3.4s3.6 4.7.9 5.5c-2.7.8-10.3-1.3-14.9-.4-2.9.6-3.7-1.2-1.2-1.9 2.2-.7 6.4.9 5.5-2.9-.9-3.8-2.5-2.5-4.1-4.5-1.6-2-1.7-2.3-2.5-5.4-.8-3.1 1.3-2.9-.6-7.4-.6-1.5-2.8-1.8-3.8-3.4-2.1-3.2-2.8-5.9-3.6-6.5-.8-.7-5.3-1.5-5.3-1.5l-.1-24.3s5.1 7 7.6 8.8 2.5-1.4 2.5-1.4l.5-5.6.4-6.3s-1.7-.4-2-2.3c-.3-1.9-.8-5.6.7-5.9 1.6-.2 4.8 3.9 4.8 3.9s4.3-1.4 6.7-.6 3 3.7 3 3.7 4.3-1.7 4.8-.7c.4.7.2 3-2.2 7.6-.9 1.7-2 5-1.8 7.4.9 8.8 4.8 13.5 6.9 20.1z"/><path fill="#FF0D00" d="M16.8 442.5l34.7-35.1v299.4l-34.7 26.3V442.5z"/></svg>