<svg xmlns="http://www.w3.org/2000/svg" viewBox="-290 130.4 320.4 662.8"><path fill="#002156" d="M-201.2 577.7c-1.8-.5-3.4-1.6-4.7-3.3-6.2 9.6-8.9 18.2-6.6 25.9 9.6 32.4 38.1 56.2 72.3 59.4-32.6-9.9-56.8-43.9-61-82m-6.7-19.1c-2.1-1.5-3.8-2.8-5.1-4-2.2 8-3.2 16.6-2.8 25.3.1 1.8.2 3.5.4 5.3 1.3-5.2 3.8-10.6 7.3-16.1-.7-3.3-.6-7 .2-10.5zm1.6-5c.9-2 1.9-3.8 3.2-5.3 1-1.2 2.1-2.2 3.3-2.9 3.1-14.5 9.6-27.4 19.1-37.1-14.2 10.1-25 24.4-30.7 41.1.8 1 2.8 2.6 5.1 4.2zM-83.7 628c-7.1-.8-16.5-2.7-20.7-4.1-4.6-1.6-8.7-5.4-11-10.3-.9-2-1.8-4.7-1.9-7.9-.1-1.9.1-4.1.7-6.4-25.9-7.9-53.4-18.9-72.5-29.1-.7 1.2-1.4 2.4-2.3 3.4-1.4 1.7-3.1 2.9-4.7 3.6 1.8 15.9 7.3 31.5 16.1 45.1 11.7 18 27.6 30.4 44.7 34.3 6.1 1.4 14 3.1 21.2 1.5 26.4-5.8 47.9-24.1 58.4-48.1-1.2.2-2.6.3-4.1.4-6 17.6-18.6 18.2-23.9 17.6zm35-54.9c-.4-9.3-2.2-18.1-5.4-26.4-3.9-10.1-16.7-17.2-33.7-21.1-31.3-7.1-72.5 4.6-98.7 26.7 1 4 .7 8.8-.6 13.2 18.9 10.1 46.3 21.1 72.2 29 6.1-14 17.8-16.7 26.9-14.4 6.5 1.6 10.7 2.5 13.8 3.1l3.4.7c4.3 1 8.1 3.9 10.4 7.9 1.6 2.8 3.1 7.3 2.1 13.5 3.2-.2 4.7-.7 5.1-1.1 3.2-9.8 4.9-20.2 4.5-31.1zm-14.9 32.2c1-5.2-.1-8.8-1.3-11-1.6-2.8-4.2-4.8-7.1-5.5l-3.2-.7c-2.9-.6-7.4-1.5-14-3.1-8.9-2.2-16.5 1.8-20.7 10.9 4.3 1.3 8.6 2.4 12.7 3.5.7-3.2.8-5.5.8-5.5.1-1.4 1.3-2.5 2.7-2.4s2.5 1.3 2.4 2.7c0 .2-.2 2.8-.9 6.4.8.2 1.6.4 2.5.6.8.2 1.7.4 2.5.5.7-3.6 1.2-6.6 1.2-6.7.2-1.4 1.5-2.3 2.9-2.1 1.4.2 2.3 1.5 2.1 2.9 0 .2-.5 3.3-1.3 6.9 1.7.3 3.3.6 4.9.9.6-3.1.7-5.5.7-5.6.1-1.4 1.3-2.5 2.7-2.4 1.4.1 2.5 1.3 2.4 2.7 0 .2-.1 2.8-.8 6.1 3.4.5 6.3.8 8.8.9zm-47.1 6.2c2 4.3 5.4 6.8 8 7.7 3.3 1.2 12.2 3 19.6 3.8 8.1.9 14.4-3.6 18-12.7-2.7-.2-5.6-.5-8.6-.9-.6 1.8-1.3 3.6-2.2 5.3-.7 1.2-2.2 1.6-3.5 1-1.2-.7-1.6-2.2-.9-3.5.6-1.1 1.1-2.3 1.5-3.5-1.6-.3-3.2-.6-4.7-.9-.5 2.1-1.2 4.1-1.8 5.6-.6 1.3-2.1 1.9-3.4 1.3-1.3-.6-1.9-2.1-1.3-3.3.5-1.2 1-2.8 1.5-4.6-.8-.2-1.6-.4-2.4-.5l-2.6-.6c-.5 1.5-1 3-1.7 4.6-.5 1.3-2 1.9-3.3 1.4-1.3-.5-1.9-2-1.4-3.3s1-2.6 1.4-3.8c-4.3-1.1-8.7-2.3-13.1-3.6-1.1 4.4-.2 8.1.9 10.5zm-83.7-63.4c-1.1-.2-3.4-.2-5.6 2.2-3.5 3.8-5.2 9-4.9 15.4.1 1.6.3 2.5.8 3.9.8 2.3 2.8 3.9 4.3 4.1 1.7.3 3.7-.7 5.5-2.8 4-4.7 5.7-13.3 3.7-18.8-1-2.3-2.3-3.7-3.8-4z"/><path fill="#FFF" d="M-168.5 130.4c-32.7 0-40.5 16.8-40.5 16.8s37.8-2.7 37.8 34.6c0 16.8-9.1 28.2-18.8 40.2-11.2 14-24 29.8-24 56.5 0 44 28.3 64.7 53.3 82.9 21.7 15.8 42.2 30.8 42.2 59.1 0 28.4-12.5 50.4-18.1 56.1-9.5 9.5-18.1 11.3-25 12.7-7.1 1.4-13.8 2.8-15.2 13-26.2 15.7-42.1 43.8-42.1 74.2 0 1.2 0 2.4.1 3.6.9 23 10.8 44.4 27.8 60.1s39.1 23.8 62.2 22.9c23.1-.9 44.5-10.8 60.2-27.8s23.8-39.1 22.9-62.2c-1.4-35.3-23.8-65.9-57.1-77.9h.1l-.5-.2-.8-.3c-4.2-1.5-9-3.1-9-13.9 0-10.5 4.8-11.3 14.2-13.1 5.6-1 12.5-2.3 19.3-6.4 12-7.3 14.3-16.2 12.1-18.4-3-3-6.3 3.3-18.4 6.9-4.4 1.3-8.7 2.1-11.7 2.1-2.5 0-4.3-.2-5.7-.5 6.4-11.9 13.5-21.6 13.5-21.7l1.6-2.1-1.9-1.9c-2.5-2.5-3.9-7.6-3.9-14.4 0-8.5 2.1-19.6 7.1-31.6 5.9-14.2 29.3-60.7 83.1-60.7h3.1v-3.1c0-19.2-1.8-36.9-5.2-52.5l-.7-3s-5.2 1.5-9.6 2.5c-.5.1-4.6 1.1-4.8.3-.2-.8 3-2.3 4.1-2.9 4.1-2 9.2-4.2 9.2-4.2l-.7-2.4c-3.8-13.4-7.7-19.8-7.9-20l-1.2-2-2.3.7c-44.8 14.1-54.3 43.8-60 61.5-2.8 8.6-4.5 13.5-7.6 13.5-9.2 0-16.9-7.6-19.4-10.1-27.9-27.9-25.8-48-22.5-78.5 1.1-10.7 2.4-22.9 2.4-36.8.2-35.3-13.1-51.6-41.7-51.6"/><path fill="#002156" d="M-115.4 420.5c0 28.3-12.1 51.3-19 58.2-21.6 21.6-39.4 5.9-39.6 27.5-9.8 8.9-16.9 22.4-20.3 37.8.2 0 .4.1.6.1 2 .4 3.8 1.5 5.1 3.4 27.4-22.4 69.7-34.1 102-26.8 10.3 2.3 19 6.1 25.6 11.9-9.9-16-25.1-28.4-43-34.8-4.3-1.5-11.8-3.3-11.8-17.1 0-25.8 28.2-5.7 46.7-33.8.9-1.4-.4-2.6-1.5-1.5-5.6 5.6-19.4 9.5-26.7 9.5-7.3 0-10-1.7-10-1.7 6.9-13.7 15.5-25.4 15.5-25.4-17.2-17.2 11.8-112 88.5-112 0-22-2.3-39.1-5.1-51.9-1.8.4-16.3 3.9-16.9.8-.6-2.7 10.6-8.5 14.5-10.5-3.8-13.1-7.5-19.3-7.5-19.3-65.8 20.7-52.6 75.2-68.6 75.2-10.4 0-18.6-8.1-21.5-11-39.3-39.3-21-65.3-21-117.5 0-35.2-13.7-48.3-38.9-48.3s-34.2 10.9-34.2 10.9 34.6 1.1 34.6 37.4c0 38-42.8 48.5-42.8 96.7-.2 80.4 95.3 78.9 95.3 142.2M-161 181.7c0-4.7-.5-8.9-1.4-12.7 0 0 7.5-.4 7.5-9.5 0-7.5-5-12.7-6.4-12.7-1.1 0-1.4 1.2-3.7 1.2-5.7 0-6.2-7.3-6.2-7.3h2.6c16.4 0 31.7 5 31.7 41.1 0 13.4-1.3 25.3-2.4 35.7-1.1 10.4-2.1 20-1.8 29.4 0 0-28.6-3.4-28.6-24.9 0-14 8.7-17.4 8.7-40.3zm-40.2 396c-1.8-.5-3.4-1.6-4.7-3.3-6.2 9.6-8.9 18.2-6.6 25.9 9.6 32.4 38.1 56.2 72.3 59.4-32.6-9.9-56.8-43.9-61-82zm-6.7-19.1c-2.1-1.5-3.8-2.8-5.1-4-2.2 8-3.2 16.6-2.8 25.3.1 1.8.2 3.5.4 5.3 1.3-5.2 3.8-10.6 7.3-16.1-.7-3.3-.6-7 .2-10.5zm1.6-5c.9-2 1.9-3.8 3.2-5.3 1-1.2 2.1-2.2 3.3-2.9 3.1-14.5 9.6-27.4 19.1-37.1-14.2 10.1-25 24.4-30.7 41.1.8 1 2.8 2.6 5.1 4.2zM-83.7 628c-7.1-.8-16.5-2.7-20.7-4.1-4.6-1.6-8.7-5.4-11-10.3-.9-2-1.8-4.7-1.9-7.9-.1-1.9.1-4.1.7-6.4-25.9-7.9-53.4-18.9-72.5-29.1-.7 1.2-1.4 2.4-2.3 3.4-1.4 1.7-3.1 2.9-4.7 3.6 1.8 15.9 7.3 31.5 16.1 45.1 11.7 18 27.6 30.4 44.7 34.3 6.1 1.4 14 3.1 21.2 1.5 26.4-5.8 47.9-24.1 58.4-48.1-1.2.2-2.6.3-4.1.4-6 17.6-18.6 18.2-23.9 17.6zm29.6-81.3c-3.9-10.1-16.7-17.2-33.7-21.1-31.3-7.1-72.5 4.6-98.7 26.7 1 4 .7 8.8-.6 13.2 18.9 10.1 46.3 21.1 72.2 29 6.1-14 17.8-16.7 26.9-14.4 6.5 1.6 10.7 2.5 13.8 3.1l3.4.7c4.3 1 8.1 3.9 10.4 7.9 1.6 2.8 3.1 7.3 2.1 13.5 3.2-.2 4.7-.7 5.1-1.1 3.4-9.7 5.1-20.2 4.6-31-.5-9.4-2.4-18.3-5.5-26.5zm-56.6 64.8c2 4.3 5.4 6.8 8 7.7 3.3 1.2 12.2 3 19.6 3.8 8.1.9 14.4-3.6 18-12.7-2.7-.2-5.6-.5-8.6-.9-.6 1.8-1.3 3.6-2.2 5.3-.7 1.2-2.2 1.6-3.5 1-1.2-.7-1.6-2.2-.9-3.5.6-1.1 1.1-2.3 1.5-3.5-1.6-.3-3.2-.6-4.7-.9-.5 2.1-1.2 4.1-1.8 5.6-.6 1.3-2.1 1.9-3.4 1.3-1.3-.6-1.9-2.1-1.3-3.3.5-1.2 1-2.8 1.5-4.6-.8-.2-1.6-.4-2.4-.5l-2.6-.6c-.5 1.5-1 3-1.7 4.6-.5 1.3-2 1.9-3.3 1.4-1.3-.5-1.9-2-1.4-3.3s1-2.6 1.4-3.8c-4.3-1.1-8.7-2.3-13.1-3.6-1.1 4.4-.2 8.1.9 10.5zm47.1-6.2c1-5.2-.1-8.8-1.3-11-1.6-2.8-4.2-4.8-7.1-5.5l-3.2-.7c-2.9-.6-7.4-1.5-14-3.1-8.9-2.2-16.5 1.8-20.7 10.9 4.3 1.3 8.6 2.4 12.7 3.5.7-3.2.8-5.5.8-5.5.1-1.4 1.3-2.5 2.7-2.4s2.5 1.3 2.4 2.7c0 .2-.2 2.8-.9 6.4.8.2 1.6.4 2.5.6.8.2 1.7.4 2.5.5.7-3.6 1.2-6.6 1.2-6.7.2-1.4 1.5-2.3 2.9-2.1 1.4.2 2.3 1.5 2.1 2.9 0 .2-.5 3.3-1.3 6.9 1.7.3 3.3.6 4.9.9.6-3.1.7-5.5.7-5.6.1-1.4 1.3-2.5 2.7-2.4 1.4.1 2.5 1.3 2.4 2.7 0 .2-.1 2.8-.8 6.1 3.4.5 6.3.8 8.8.9zm-130.8-57.2c-1.1-.2-3.4-.2-5.6 2.2-3.5 3.8-5.2 9-4.9 15.4.1 1.6.3 2.5.8 3.9.8 2.3 2.8 3.9 4.3 4.1 1.7.3 3.7-.7 5.5-2.8 4-4.7 5.7-13.3 3.7-18.8-1-2.3-2.3-3.7-3.8-4zm-65.8 101.5c6.4 4.2 13.2 8 13.2 8l-2.4 6.2c-.9-3.7-4.6-5.8-9.4-8.7l-15.6 22.6c-1.9 2.7-5.6 8.7-5.9 11 0 0-2.6-1.6-4.9-3.4-2.4-1.8-4.8-3.5-4.8-3.5 2.3-.6 6.4-6.5 8.8-9.8l15.2-21.7c-5.7-4.4-7.9-5.3-12-5.5l5.4-4.1c.1.1 5.3 4.2 12.4 8.9m247.8 76.6l.5.5c-.4 0-.8.2-1.3.5l1.4 2.6c.3.5.6 1.2.9 1.3 0 0-.3.2-.6.3-.3.2-.6.3-.6.3 0-.3-.1-.6-.5-1.3l-1.4-2.8c-.5.2-1 .5-1.2.9l-.1-.8s.7-.3 1.5-.7c.8-.4 1.4-.8 1.4-.8m-237.7-20.5c-10.9-5.2-12.3-17.2-7-28.4 5.4-11.3 15.6-17.6 26.4-12.4 10.8 5.2 12.3 17.1 7 28.4-5.3 11.2-15.5 17.6-26.4 12.4m17.9-37.5c-6.9-3.3-12.4 4.5-16.5 13.2-4.1 8.6-6.8 17.9.1 21.2 6.9 3.3 12.4-4.6 16.6-13.2 4.1-8.7 6.8-17.9-.2-21.2zm30.7 8.3c7.3 2.1 13.3 3.5 13.3 3.5l-.6 6.6c-2-2.8-2.9-3.5-9.1-5.1l-7.6 25.6c-.6 2.3-3.6 11.2-2.7 12.9 0 0-2.1-.4-5.5-1.4-3.8-1.1-5.6-1.8-5.6-1.8 2-1.3 4.4-8.9 5.2-11.9l7.6-25.7c-6.5-2.2-8-2.3-11.1-.9l3.8-5.6c0-.2 4.2 1.5 12.3 3.8m30.3 6.8c7.2 1.1 14.1 1.7 14.1 1.7l.3 6.6c-2.7-2.4-3.7-3.2-10.9-4.1l-4.1 26.3c-.3 2.4-1.8 11.5-.6 13.1 0 0-2.5-.3-6-.8s-5.6-1-5.6-1c1.7-1.3 3.1-10 3.4-12.4l4.2-26.6c-6.2-1.2-7.5-.8-10.4 1l2.7-6.2s5.7 1.3 12.9 2.4m26.9 25l-.5 17.6c9.3.1 15.6-.5 18.4-4.5l-1.4 8s-5.1.1-12.6 0c-8.2-.1-14.7-.7-14.7-.7 1.4-1.4 1.7-10 1.7-12.4l.8-17.3c0-4.6.5-12.1-1.1-13.6 6.7.5 5.8.5 12 .7 8.1.3 12.6.1 12.6.1l1 6.6c-3.1-2.6-7.9-2.9-15.6-3l-.4 14.8 11.8.1c1.1 0 1.1.6 1.1 1.8s0 1.8-1.2 1.8h-11.9m51.7 5.3c.7 6.4 1.4 11 2.8 11.9-.4.7-1.5 1.5-3.1 1.7-1.9.2-3.3-.7-4.5-2.2l-21-24.1.8 15.3c.3 2.4.5 11.5 2 12.7l-7 .3c1.2-1.5.9-10.2.6-12.6l-1-17.3c-.3-2.4-.7-12-2.2-13.2l6.4-.2 21.5 25.5-1.7-14.6c-.3-2.4-1.6-11.2-3-12.4l3.4-.4c2.6-.4 3.6-.5 3.6-.5-1.2 1.5.2 10.5.5 12.9l1.9 17.2m39.4-9.1c.7 3 2.2 10.7 4.4 12.2l-5.3 1.6c-1.8.6-5.8 1.6-5.8 1.6.9-1.7-1.2-10.9-1.7-13.2l-2-8-13.4 3.2 1.5 8.1c.4 2.6 1.8 11.5 3.6 12.6l-5.7 1.2c-3.3.7-5.5 1-5.5 1 1-1.7-.3-9.9-.8-12.5l-3.2-17.2c-.6-3.2-2.1-11.3-3.9-12.3 0 0 1.7-.3 5.5-1.1 3.8-.7 5.7-1.2 5.7-1.2-.9 1.9.7 9.7 1.2 12.4l1 5.5 13.1-3.2-1.4-5.6c-.8-3-2.4-10.1-4.2-11.4 0 0 1.8-.5 5.4-1.6 3.6-1 5.2-1.6 5.2-1.6-.7 2 1.3 8.9 2.1 12.4l4.2 17.1m24.3-10.2l-13 5.1.4 7.1c.3 2.4.3 4.7.8 5.9.3.6.7 1 1.1 1.3 0 0-1.4.5-3.6 1.2l-3.5 1.1c.8-1.3 1-3.2.9-5.5l-1.1-33.9c-.1-1.2-.3-2.4-.7-3.3-.4-.9-1-1.3-1.4-1.7 1.5-1 3.3-2 5.2-2.8 3-1.3 4.2-1.2 6.4 1.3l19.1 23.7c3.5 4.5 6.5 7.6 8.5 8.2 0 0-1.9.9-5.6 2.5-3.7 1.6-6.1 2.6-6.1 2.6.2-.8.2-1.6-.2-2.8-.5-1.3-2.4-3.5-3.6-5.2l-3.6-4.8m-2.4-2.8l-11.6-16 .8 20.1 10.8-4.1zm56.9-9.5c-2.6 1.8-4.6 3.1-4.6 3.1-.2-2.6-5.2-8.9-6.6-10.9L3.2 659.6l9 28.8c-.4.6-1 1.4-1.6 1.8-1.8 1.4-3.5 1.1-5.1-.2l-21.3-17.7 7.5 13.8c1.8 3.5 5.3 10.7 7.7 11.4 0 0-1.5.8-3.3 1.7-1.9.9-3 1.4-3 1.4.4-2-3.1-8-5.1-11.9l-8.3-15.6c-2.5-4.7-5.3-9.5-7.7-10.4l5-2.5c2.2-1.1 4.1-2.2 4.1-2.2l24 20.4-9.5-28.9s1.3-.9 3.7-2.5 4.6-3.2 4.6-3.2c.2 2.6 5.2 9.2 7 11.5l10.3 13.3c2.2 2.7 6.3 8.8 9.2 9.5.1.3-2.2 2.1-4.8 3.9M-7 724.9l1.2 1.5c.3.4.7.9 1.1 1.1l-.6.4-.5.4c-.1-.4-.6-1-.7-1.3l-1.3-1.7 1 3.3c0 .1-.1.2-.2.2-.3.2-.5.1-.6-.1l-2.5-2 1 1.6c.2.4.6 1.2 1 1.3l-.4.2-.4.2c0-.4-.5-1.2-.6-1.4l-1.1-1.8c-.2-.4-.6-1-1-1.1 0 0 .3-.2.7-.4.2-.1.4-.2.5-.3l2.7 2.3-1.1-3.2c.1 0 .3-.1.5-.3l.6-.4c0 .6.5 1.2.7 1.5m-213.3 9.7c2.2.8 5.1 1.8 5.1 1.8-2.4 1.8-4.6 8.7-6.1 12.5l-5.6 15.5c-1.5 4.2-4 10.3-3.2 12.5 0 0-3.1-1.1-5.6-1.9-2.1-.8-3.3-1.2-5.6-2.1 2.7-.7 5.3-9.8 6.2-12.1l2.6-7.2-13.4-5.6-3.9 8.3c-1.3 2.9-4.3 9.4-3.6 11.4 0 0-2.4-1-5.8-2.6-4.1-1.9-5-2.4-5-2.4 2.9-1.4 4.6-6 6.8-10.7l7-15.5c2.4-5.3 4.5-9.9 4.3-12.9 0 0 1.2.7 4.7 2.3 2.7 1.2 4.1 1.8 5.7 2.5-2.2.9-5.2 8.7-6.8 12.2l-2 4.4 13.1 5.4 2-5c.9-2.5 4.2-10.1 3.5-12.7 0-.1 2.7.8 5.6 1.9m15.1 50.3c-11.6-3.1-15.3-14.3-12.3-26.1 3.1-11.8 11.9-19.7 23.5-16.7s15.4 14.3 12.3 26.1c-3.1 11.7-11.8 19.7-23.5 16.7m10.4-39.4c-7.4-2-11.3 6.6-13.7 15.6s-3.2 18.4 4.2 20.4 11.3-6.6 13.7-15.7c2.4-9 3.2-18.3-4.2-20.3zm21.2 43.5s.7-.8 1.2-2.4c.7-2.3 1.2-6.7 1.7-10.1l3.3-25.2c-6.9-.9-8.7-.4-11.8 1.4l2.9-6.5c2.2.5 7 1 12.8 1.7 3.9.5 15.5 1.5 15.5 1.5l.4 6.5c-2.6-3-5.2-3.2-11-3.7l-3.2 25.3c-.3 2.4-1.6 10.5-.3 12.9-1.4-.2-3.7-.4-5.7-.6-2-.1-4.7-.6-5.8-.8m55.3-8.7c.1 7.6-6.1 13.1-15.6 12.9-7.4-.1-11.2-3.1-12.7-4.4l1.5-7.2c2.3 4.6 6.1 7.9 10.4 8 4.5.1 8-2.6 8.1-7 0-3.2-1.7-5.2-9.2-9-7.1-3.7-9.8-7.4-9.8-12.9 0-7.5 6.5-11.3 14.1-11.3 5.6 0 9.5 1.7 12 3l-1.6 6.6c-3.4-4.5-6.5-6.2-10.2-6.3-3.7-.1-6.3 1.9-6.2 5.7 0 4.1 4.5 6.3 10.6 9.7 7 4 8.6 8 8.6 12.2m34.6-23.3c.3.9.4 2 .5 2.8.1.8.1 1.8 0 2.8-.2 2.5-1.4 5.3-3.3 7.3-2.9 3.1-6.8 4.6-11.9 4.8-2 .1-2.4-.5-2.6-1.9v-.3s0-.5.4-.6l.5-.1c1.5-.2 3.7-.7 5.5-2.8 1.7-2.2 2.3-5.2 2-8.4-.3-3.3-1.3-5.7-3.6-7.5-1.9-1.5-4.2-2-6.6-1.8l-2 .2s-.6.1-.6.7l2.5 26.2c.2 2.3.8 10.4 2.7 12.1l-6.2.6c-3.1.3-5.5.3-5.5.3.8-2 .7-5 .5-8.4l-2-20.6c-.2-2.4-.6-10.4-2.5-12.4 0 0 5.2-.8 14.8-1.7 5-.5 9.1.2 12.6 2.6 2.6 1.5 4.1 3.8 4.8 6.1m39.2 8.4c2 9.1-2.2 16.8-11.6 19.1-6.7 1.7-16.2-.7-18.9-12.3l-3.2-13.7c-.9-3.8-2.2-10.6-4.5-12.4 0 0 2.5-.4 6.4-1.1 3.9-.7 5.7-1.2 5.7-1.2-1 1.6.1 8 1.1 12.6l4.1 17.4c.7 3.2 1.8 5.4 3.6 6.7 1.3 1 3.1 1.2 5 .9 1.7-.3 3.4-1.3 4.4-3 1-1.8 1-4.4.2-7.6l-4.6-17.4c-1.3-4.8-2.7-10.8-4.3-11.8 0 0 1.9-.5 5.5-1.5 2.7-.8 4.3-1.2 5.5-1.7-1.1 2.6 1.5 10.7 2 13l3.6 14m42.3-3.5c.9.3 1.9.6 2.7.2-.1.6-.6 1.7-1.5 2.6-3.8 3.9-7.4 3.2-8.6 2.8-6.6-2.5-17.6-12.3-18-13.3 0 0-.1-.3.2-.4l.4-.2c1.7-.7 3.7-2.7 4.4-4.5 1.2-2.7 1-5.1-.2-8.1-1.3-3.1-3.6-5-5.3-5.5-2.6-.8-4.6-.2-5.8.3 0 0-1.6.6-2 1.1 0 0-.3.3.1 1.3l8.3 23.7c1.3 3.5 3.5 10.3 5.4 11.4 0 0-2.2.9-5.6 2.1-3.4 1.2-5.5 1.8-5.5 1.8.7-2.7-1.9-9.9-2.6-11.9l-5.4-16c-1.3-3.9-3.8-10.8-5.8-11.9 0 0 3.9-1.1 12.7-4.8 4.7-2 9.2-2.8 13.3-1.6 2.5.7 4.2 2 5.5 4 .5.8.9 1.5 1.2 2.3.3.7.5 1.6.7 2.3.4 2.4.1 5-1.3 7.4 0 0-1.3 2.4-4 4.4.1.1 8.7 7.4 16.7 10.5"/></svg>