<svg xmlns="http://www.w3.org/2000/svg" width="708.9" height="940.5" viewBox="0 0 708.9 940.5"><path fill="#009BD5" d="M21.3 380.3h666.4c-3.8-24.4-13.3-49.9-25.8-73.8H47.1c-12.6 23.9-22 49.4-25.8 73.8z"/><path fill="#F8DD32" d="M687.6 380.3h-70.1v276.2c42.5-81 72-170.4 72-253.1 0-19.2-4.3-39.7-11.5-60 4.4 12.4 7.7 24.8 9.6 36.9z"/><path fill="#E8302A" d="M543.3 773.3c26.7-35.3 52.2-74.9 74.2-116.8V380.3h-74.2v393z"/><path fill="#F8DD32" d="M469.1 857.2c24.6-23.3 49.9-51.8 74.2-83.9v-393h-74.2v476.9zm-300.5-79.9c25 32.5 50.9 61.2 76 84.4V380.3h-76v397z"/><path fill="#E8302A" d="M94.4 662.1c22.1 41.4 47.6 80.4 74.2 115.1V380.3H94.4v281.8z"/><path fill="#F8DD32" d="M20.1 427.1c5.1 77.8 34.2 160.2 74.2 235V380.3h-73c1.9-12.1 5.2-24.5 9.6-36.9-5.4 15.2-9.1 30.6-10.7 45.4v38.3zm334.3 18.8c14.3 0 27.9 2.8 40.4 7.8v-73.4h-74.2v71c10.6-3.5 22-5.4 33.8-5.4zm0 216.1c-11.8 0-23.2-1.9-33.8-5.4v258.6c12.4 5.4 23.8 8.3 33.8 8.3 11.8 0 25.5-4 40.4-11.3v-258c-12.5 5-26.1 7.8-40.4 7.8z"/><path fill="#E8302A" d="M394.8 380.3v73.4c39.7 16 67.7 54.8 67.7 100.2s-28 84.2-67.7 100.2V912c22.6-11.1 48-30.1 74.2-54.9V380.3h-74.2zM246.4 553.9c0-47.9 31.1-88.4 74.2-102.6v-71h-76v481.3c27.1 25 53.2 43.5 76 53.5V656.6c-43.1-14.2-74.2-54.8-74.2-102.7z"/><circle fill="#A13922" cx="354.4" cy="553.9" r="108.1"/><circle fill="#CF8C27" cx="354.4" cy="553.9" r="100.9"/><path fill="#A13922" d="M430.1 562.5v-2.1c0-41.8-14.1-67.5-30.7-75.9.3-.6 1.1-1.7 2.9-3.1 3.9-3.1 10.1-5.9 16-5.7-1.8-1.5-3.7-2.9-5.6-4.3-5.4 1.1-10.2 3.7-13.3 6.3-1.6 1.3-3.4 3-4.3 5-2.6-.8-5.1-1.2-7.7-1.2-13.3 0-21.3 13.8-25.1 20.4-.6 1-1.1 2-1.4 2.4-2.4 3.3-9.1 5-19.9 5-11.7 0-15.6-2.4-15.6-9.5 0-11.8 15.9-38.5 38.2-46.5-3-.3-6-.4-9-.4h-1.2c-19.7 11.6-32.7 35.2-32.7 46.9 0 1.1.1 2.1.3 3.1-3.8 2.1-11.8 6.1-18.2 6.1-14.6 0-25.8-11.2-29.2-15.5-1 1.3-1.9 2.7-2.9 4 5.4 6.5 17.5 16.2 32 16.2 7 0 15.1-3.8 19.8-6.3 4 6.6 13.3 6.6 18.5 6.6 11 0 18.1-1.7 22.1-5.2 4.7 3.7 17 15 17 33.4 0 11.4-.2 19.7-3.3 21.4-3.5 2-28.3 5.2-44.2 5.2-42.7 0-75.1-15.8-78.8-18.3 0 1.1-.1 2.1-.1 3.2 0 .7 0 1.5.1 2.2 10.4 5.4 41.3 17.6 78.9 17.6 14.4 0 39.4-2.8 45.8-5.5 1.9 3.9 5.1 14.2 5.1 22.5 0 11.8-4.5 27.3-26.2 34.2l-.2.1c-5.1-3-18.2-8.4-27.9-8.4-6.7 0-14.5 2.8-18.8 6.1-4.7-4-18.4-14.9-28.5-14.9-3.9 0-8.9 1.1-11.6 1.8.9 1.4 1.9 2.8 2.9 4.2 2.6-.6 6-1.3 8.7-1.3 8 0 20.6 9.6 25.4 13.7-.2.4-.3.8-.3 1.3 0 3.6 3.9 12.7 9.5 19.9 2.8 1.1 5.6 2.2 8.5 3l.4-.5c-7.3-5.7-13.4-18.5-13.7-22.1 1.2-1.8 8.9-6.5 17.4-6.5 8.3 0 20.5 4.8 25.3 7.6.3 5.6 10.3 17.2 20.9 23.7 2.3-.5 4.6-1.1 6.8-1.7-.2-.1-.4-.1-.5-.2 48.8-23.8 48.5-70.2 48.4-88zm-53.6 85.4c-9.1-6-16.5-15.4-17.3-18.6 23.8-7.8 28.9-25.2 28.9-38.5 0-8.6-3.3-20.7-6.2-25.7 2.7-4.3 2.9-11.9 2.9-22.7 0-20.5-13.6-33.1-18.9-37.2.1-.2.3-.5.5-.8 3.4-5.9 10.4-18.1 21-18.1 18.4 0 38 26 38 74.1v2.1c.1 17.4.3 63.1-48.9 85.4z"/><path d="M468.8 21.6c-11.1 0-23 31.2-53.7 31.2-17.8 0-27.9-13-29-14.2 0-6 8.4-18.7 8.4-30.4 0-3-1.2-8.2-11-8.2s-15.1 7.8-16 9.2c-.9 1.3-4.5-1.6-13.1-1.6s-12.2 2.9-13.1 1.6c-.9-1.4-6.3-9.2-16-9.2-9.8 0-11 5.2-11 8.2 0 11.7 8.4 24.4 8.4 30.4-1.1 1.2-11.3 14.2-29 14.2-30.7 0-42.6-31.2-53.7-31.2-33.9 0-240 142.2-240 366.9 0 272.4 253.7 552 354.4 552 100.7 0 354.4-279.5 354.4-552 .1-224.7-206-366.9-240-366.9zm8.1 16.2c6.1 0 76 78.4 71.3 140.8-9-80-72.5-135.8-72.5-139.4 0-1.1.7-1.4 1.2-1.4zm-241.9 0c.5 0 1.3.3 1.3 1.3 0 3.6-63.5 59.5-72.5 139.4C159 116.2 228.9 37.8 235 37.8zm119.4 885.6c-100.7 0-335.1-286.9-335.1-520 0-86.9 87.7-200.8 137.1-200.8 4.6 0 10.8 1.4 10.8 1.4s19.7-16.4 47.4-16.4c51.9 0 79.2 49.7 79.2 67.9 0 9.3-3.3 7.5-3.3 12.8 0 3 4.1 7.2 7 7.2 3.8 0 16-11.8 18.6-17.2 17.4 0 33.6 19.3 38.4 34.4 4.8-15.1 21-34.4 38.4-34.4 2.6 5.4 14.7 17.2 18.6 17.2 2.9 0 7-4.2 7-7.2 0-5.3-3.3-3.6-3.3-12.8 0-18.2 27.2-67.9 79.2-67.9 27.6 0 47.4 16.4 47.4 16.4s6.1-1.4 10.8-1.4c49.5 0 137.1 113.9 137.1 200.8-.2 233.1-234.6 520-335.3 520z"/><path fill="#EFECEA" d="M58.6 318.8l19.6 52.9h12.5l19.6-52.9H97.1s-11.6 38.4-12.2 38.4S73 318.8 73 318.8H58.6zm89.6 52.9h13.6l-21.1-52.9h-12.9l-21.1 52.9h13.1l4.4-11.7H144l4.2 11.7zm-20.5-20.9l6.7-17.6 6.3 17.6h-13zm335.6 20.9h13.6l-21.1-52.9h-12.9l-21.1 52.9h13.1l4.4-11.7h19.8l4.2 11.7zm-20.5-20.9l6.7-17.6 6.3 17.6h-13zm-274.2-32v52.9h41.6v-11.2h-28.7v-41.7m39.6 0v52.9h41.5v-10.9h-29.4v-12.1h25.4v-9.1h-25.4v-10.2h29.4v-10.6m334.2 0v52.9h12.1v-23h25.4v-9.1h-25.4v-10.2h29.3v-10.6m-361.2 0v52.9h11.2v-34.5l22.7 34.5h13v-52.9h-12.4v35.9l-21.7-35.9m84 18.9h13.8c0-11.2-12.8-19-25.1-19-17.4 0-26.3 15.5-26.3 28 0 15.2 9.8 24.9 25.4 24.9 18.6 0 26.1-10.3 26.1-19.2h-14.1c0 3-1.5 10.8-10.8 10.8s-14.3-8-14.3-16.6 4.9-18.2 14.5-18.2c7.9.1 10.8 4.3 10.8 9.3zm170 0h13.8c0-11.2-12.8-19-25.1-19-17.4 0-26.3 15.5-26.3 28 0 15.2 9.8 24.9 25.4 24.9 18.6 0 26.1-10.3 26.1-19.2h-14.1c0 3-1.5 10.8-10.8 10.8s-14.3-8-14.3-16.6 4.9-18.2 14.5-18.2c8 .1 10.8 4.3 10.8 9.3zm-143.3-18.9h12.7v52.9h-12.7zm169.2 40.4h13.5v12.5h-13.5zm67.8 0H651v12.5h-13.5z"/></svg>