<svg xmlns="http://www.w3.org/2000/svg" width="1745" height="1874" viewBox="0 0 1745 1874"><path fill-rule="evenodd" clip-rule="evenodd" d="M874.5 1641.47c-80.3-66.3-217.6-112.04-342.37-163.36-299.85-122.8-389.94-300.3-287.5-585.5 31.24-86.8 67.9-176.7 73.02-278.9 5.8-88.4-37.72-176.7-114.8-265.2 55.26-59.6 110.48-119.6 165.7-179.4 192.52 93.3 354.42 46.6 505.4-50.6 151.1 97.2 313.03 143.9 505.5 50.68 55.24 59.8 110.5 119.74 165.75 179.4-77.12 88.5-120.6 176.8-114.8 265.2 5.1 102.2 41.63 192.07 72.96 278.9 102.37 285.16 12.52 462.7-287.55 585.5-124.7 51.34-261 97.08-341.3 163.38"/><path fill-rule="evenodd" clip-rule="evenodd" fill="#FFC90D" d="M486.94 364.96l10.57 29.74h33.9L504 413l10.47 29.66-27.5-18.37-27.5 18.3 10.6-29.68-27.54-18.3h34.04m131.45-29.75l10.4 29.74h33.9L624.9 413l10.45 29.66-27.33-18.37-27.6 18.3 10.4-29.68-27.4-18.3h33.95M728.9 364.9l10.4 29.75h34L745.73 413l10.53 29.66-27.37-18.37-27.5 18.3 10.4-29.6-27.4-18.3h33.83m131.5-29.78l10.5 29.74h33.96L866.8 413l10.43 29.66-27.45-18.37-27.52 18.3 10.46-29.6-27.4-18.3h34m281.98 637.6l23.64 66.7h76.6l-61.9 41.3 23.56 66.92-61.9-41.4-61.9 41.4 23.72-66.93-61.97-41.27h76.5"/><path fill-rule="evenodd" clip-rule="evenodd" fill="#FFF" d="M320.88 957.13l935.75-658.43-20.5 2.9-20.38 2-20.3 1.24-20.3.55-19.95-.3-19.6-1-19.74-1.8-19.24-2.5-19.26-3.1-18.85-3.78-18.6-4.5-18.2-5-18.06-5.4-17.9-6.1-17.63-6.66-17.34-7.06-17.04-7.27-16.8-7.97-16.54-8.26-16.34-8.6-9.95-5.4-9.8 5.4-16.4 8.6-16.56 8.3-16.9 8-17.14 7.26-17.22 7.05-17.58 6.7-17.94 6.1-17.97 5.4-18.35 5-18.7 4.5-18.7 3.78-19.3 3.1-19.34 2.48-19.6 1.78-19.75 1.03-19.84.24-20.23-.57-20.25-1.25-20.6-2-20.5-2.9-20.56-3.77-20.66-4.7-20.76-5.37-20.8-6.3-14.1-4.82-1.22 1.24-10.3 11.2-5.2 5.7-15.5 16.8-5.16 5.73-5.15 5.4-10.35 11.3-5.27 5.6-5.1 5.6-9.44 10.32 5.6 7.7 6.44 9.55 6.36 9.6 6.08 9.73 5.97 9.76 5.54 9.75 5.44 9.92 5.12 9.9 4.9 9.9 4.67 10.2 4.47 10 3.97 10.3 3.8 10.2 3.64 10.57 3.3 10.43 2.85 10.5 2.76 10.5 2.14 10.8 2.1 10.65 1.62 10.76 1.3 10.7.96 11.13.53 10.92.24 10.9-.2 11.06-.45 10-.57 10.64-.84 11-1.18 10.77-1.17 10.78-1.54 10.6-1.4 10.5-1.8 10.4-1.9 10.3-2.05 9.98-2.16 10.14-2.25 10.1-2.35 9.8-2.65 9.8-2.52 9.5-2.7 9.7-2.75 9.42-2.84 9.3-2.9 9.22-2.94 9.12-2.97 9.03-2.98 8.9-3.05 8.87-3.02 8.7-3.08 8.66-3 8.7-3.2 8.35-2.9 8.48-3 8.3-3.1 8.2-3 8.15-2.95 8.1-2.65 7.45-8.43 24.6-4.2 13.54zm1024.57-435.6l-1010.2 711.54 2.15 3.52 8.8 12.4 9.94 12.5 10.9 12 12.2 12.3 13.2 11.9 14.48 12 15.8 11.7 17.1 11.72 18.28 11.4 19.8 11.4 21.03 11.2 22.43 11.05 23.8 10.94 25.7 10.9 10.8 4.43 11.3 4.65 11.76 4.64 11.7 4.65 11.8 4.57 11.87 4.8 11.9 4.8 11.9 4.58 11.94 4.68 12.1 4.92 12.1 4.9 11.92 4.78 12.1 4.97 12.06 4.9 11.87 5.26 11.93 4.98 11.9 5.4 11.8 5.2 11.8 5.63 11.8 5.5 11.45 5.53 11.52 5.86 11.34 5.88 11.26 6 11 6.25 10.4 6.32 10.56-6.12 10.9-6.34 11.35-6.1 11.28-5.83 11.5-5.8 11.5-5.65 11.52-5.5 11.8-5.48 11.7-5.38 11.82-5.25 11.94-5.1 11.86-5.05 12.07-5.1 12-4.77 12-4.95 12-4.9 11.97-4.8 11.98-4.84 12.05-4.6 11.95-4.8 11.8-4.8 11.76-4.57 11.7-4.64 11.58-4.65 11.46-4.66 10.95-4.4 25.55-10.93 23.84-10.94 22.4-11.04 21.13-11.2 19.54-11.4 18.46-11.4 17.1-11.76 15.8-11.7 14.47-12 13.3-11.9 12.05-12.3 11-12 9.97-12.5 8.74-12.44 7.9-12.76 6.88-13.1 6.1-13.35 5.37-13.7 4.47-14.37 3.47-14.8 2.73-15.3 1.9-16.2 1.07-16.7v-17.58l-.96-18.3-1.82-19.13-2.82-19.85-4-20.72-4.82-21.55-5.93-22.4-7.2-23.28-8.4-24.57-2.78-7.44-2.93-8.1-2.9-8.16-2.96-8.17-3-8.3-3.1-8.45-3.1-8.4-3.05-8.64-3-8.64-3.08-8.7-3.07-8.83-2.95-8.93-3-9.06-2.9-9.1-2.92-9.24-2.82-9.3-2.76-9.43-2.7-9.47-2.52-9.73-2.62-9.8-2.34-9.8-2.24-10.1-2.1-10.13-2.1-10-1.82-10.33-1.77-10.38-1.6-10.5-1.4-10.65-1.3-10.78-1.08-10.8-.9-11-.6-10.65-.5-10-.1-11.03.2-10.95.64-10.92.92-11.1 1.26-10.7 1.64-10.77 2.1-10.67 2.14-10.37zM299.55 936.58l8.6-25.03 2.7-7.68 2.96-8.17 3.1-8.1 2.97-8.22 3.1-8.4 3.08-8.22 3.04-8.42 2.97-8.7 3.05-8.6 3-8.58 3.06-8.63 2.9-8.9 2.9-8.9 2.88-8.9 2.77-8.96 2.9-9.35 2.66-9.14 2.62-9.3 2.4-9.27 2.4-9.5 2.4-9.6 2.25-9.7 2-9.6 2.06-9.93 1.84-9.9 1.57-9.94 1.6-10.25 1.4-10.2 1.15-10.32 1-10.47.8-10.36.7-10.5.4-9.6.1-10.13-.1-10.1-.57-10.33-.95-10.03-1.2-10.1-1.5-10.08-1.9-10.1-2.18-10-2.5-9.9-2.7-9.9-3.1-9.93-3.23-9.74-3.74-9.77-3.9-9.65-4.28-9.54-4.42-9.55-4.63-9.5-4.9-9.6-5.1-9.4-5.47-9.34-5.56-9.34-5.86-9.3-6.1-9.15-6.15-9.1-6.55-9.26-6.7-9.16-3.4-4.3 1.9-2.04 5.07-5.63 5.3-5.65 10.3-11.15 5.18-5.64 5.3-5.6 10.3-11.2 5.03-5.56 5.2-5.73 15.53-16.65 5.14-5.76 10.46-11.07 5.14-5.73 5.25-5.5 3.13-3.6 11 4.4 19.85 6.7 19.66 6 19.78 5.1 19.73 4.33 19.6 3.56 19.46 2.7 19.14 1.9 19.34 1.3 19 .5 18.96-.24 18.78-.97 18.44-1.6 18.3-2.4 18.14-2.9 17.8-3.66 17.8-4.2 17.36-4.88 17.4-5.24 16.9-5.68 16.8-6.35 16.67-6.7 16.36-6.96 16.24-7.84 15.9-7.8 15.86-8.4 15.66-8.62L874 192l7.8 4.45 15.62 8.62 15.75 8.38 16.03 7.88 16.3 7.84 16.43 7 16.57 6.68 16.74 6.34 17.12 5.6 17.13 5.23 17.6 4.86 17.6 4.2 17.9 3.7 18.1 2.9 18.3 2.4 18.54 1.6 18.7.95 18.9.25 19.03-.5 19.14-1.3 19.3-1.9 19.4-2.7 19.6-3.54 19.7-4.35 19.6-5.04 19.86-6 19.74-6.73 11.23-4.4 8.23 9.1 5.12 5.76 15.52 16.8 5.13 5.5 15.54 16.84 5.2 5.55 15.64 16.76 5.1 5.68 15.54 16.8 5.2 5.62 1.9 2.03-3.4 4.3-6.7 9.14-6.4 9.26-6.37 9.1-6.1 9.13-5.87 9.3-5.53 9.36-5.5 9.3-5.08 9.4-5 9.6-4.6 9.5-4.5 9.6-4.1 9.47-3.93 9.7-3.6 9.75-3.3 9.74-3.16 9.9-2.7 9.9-2.46 9.9-2.2 10.02-1.9 10.1-1.46 10.05-1.3 10.1-.85 10-.53 10.32-.13 10.13.14 10.15.55 9.6.5 10.25.83 10.6 1 10.47 1.17 10.3 1.4 10.2 1.4 10.27 1.82 9.9 1.72 9.94 2.02 9.93 2.06 9.6 2.26 9.83 2.33 9.5 2.4 9.54 2.43 9.27 2.63 9.3 2.6 9.17 2.9 9.24 2.87 9.06 2.84 8.9 2.86 8.8 3 9 3 8.64 2.95 8.6 3.15 8.7 3.1 8.6 3 8.4 2.92 8.2 3.1 8.42 2.85 8.23 3.18 8.1 2.85 8.14 2.74 7.7 8.65 25.03 7.3 23.84 6.3 23.3 5 22.43 4.14 21.53 3.02 21 1.9 20.06.94 19.6-.04 18.64-1 18.05-2.13 17.4-2.9 16.9-3.9 16.07-4.85 15.65-5.82 15.1-6.68 14.7-7.7 14.2-8.6 14.24-9.84 13.6-10.67 13.74-12 13.1-12.92 13.15-14.3 12.76-15.4 12.7-16.67 12.43-17.83 12.4-19.3 12-20.6 11.8-21.75 11.7-23.27 11.45-24.55 11.18-26.16 11.13-11.1 4.52-11.48 4.67-11.83 4.62-11.7 4.62-11.7 4.73-12 4.75-11.8 4.7-11.85 4.58-12.1 4.86-11.93 4.75-11.87 4.9-11.94 4.8-11.9 4.85-11.74 4.98-11.8 5-11.8 5.1-11.52 5.1-11.5 5.24-11.53 5.4-11.3 5.34-11.2 5.6-11.15 5.65-11.05 5.7-10.7 5.76-10.7 6.1-10.42 6.18-10.35 6.37-3.88 2.38-3.85-2.5-10.2-6.24-10.5-6.3-10.76-6-10.9-5.94-10.9-5.67-11.28-5.58-11.26-5.5-11.24-5.42-11.55-5.3-11.62-5.26-11.6-5.1-11.82-5.1-11.8-5-11.9-5-12-4.84-11.9-4.98-11.92-4.7-11.88-4.77-12.03-4.84-12-4.55-11.88-4.7-11.9-4.73-11.8-4.73-11.67-4.6-11.82-4.65-11.4-4.7-11.16-4.52-26.25-11.1-24.43-11.17-23.1-11.5-22.04-11.67-20.45-11.84-19.3-12-17.86-12.35-16.77-12.44-15.38-12.64-14.27-12.76-12.9-13.1-12.04-13.1-10.7-13.76-9.6-13.6-8.74-14.22-7.7-14.2-6.6-14.7-5.86-15.1-4.92-15.65-3.82-16.08-3.04-16.9-2.03-17.4-1-18.04-.14-18.65.9-19.6 1.97-20.03 3-21 4.03-21.54 5.13-22.43 6.34-23.28 7.3-23.85z"/><path fill="#22201F" d="M1283.53 531.6l-21.97-26.4 28.82-20.1 21.9 26.37-28.75 20.12zm-96.2-10.72l36.44-11.94c7.96 18.2 9.8 34.68 5.42 49.3-4.6 14.43-14.8 27.58-31 38.84-19.98 13.86-41.6 19.12-64.8 15.58-23.2-3.55-43.8-16.38-61.8-37.8-19-23-27.3-45.4-24.8-67.2 2.2-21.75 14-39.84 35.02-54.72 18.55-12.64 37.37-18.2 57.14-16.1 11.75 1.07 23.96 5.93 36.53 14.6l-24.65 27.42c-7.66-5.8-16-8.9-25.14-9-9.05-.32-17.5 2.48-25.72 8.12-11.14 7.76-17.1 17.84-17.96 30-.84 11.96 5.5 26.4 19.16 42.88 14.4 17.5 28.2 27.42 41.1 30.02 13.06 2.67 25 .2 35.93-7.45 7.96-5.64 12.87-12.8 14.86-21.57 1.86-8.77-.1-19.13-5.85-30.98m-113.42 158l-21.9-26.62 28.87-20.1 21.8 26.55-28.8 20.2zM969.4 752.1L855.1 614.07l103.1-72 19.37 23.4-72.7 50.74 26.96 32.7 62.78-43.8 19.38 23.4-62.9 43.8 48.83 58.6-30.47 21.3zm-155.6 29.4l36.4-11.97c7.94 18.2 9.67 34.6 5.35 49.15-4.4 14.74-14.7 27.7-30.95 38.85-19.88 14.02-41.47 19.23-64.64 15.64-23.32-3.52-43.84-16.15-61.9-37.83-19.05-23-27.2-45.4-24.86-67.13 2.33-21.6 14.14-39.8 35.1-54.6 18.5-12.7 37.36-18.2 57.2-16.2 11.72 1.17 23.83 6.08 36.52 14.6l-24.7 27.5c-7.66-5.9-16.03-9-25.1-9.1-9.03-.3-17.74 2.48-25.8 8.2-11.03 7.7-17.08 17.8-17.98 29.86-.8 12.25 5.52 26.6 19.16 43.14 14.6 17.4 28.08 27.4 41.14 30 13.05 2.7 24.93.08 35.88-7.45 8.06-5.7 13.1-12.85 15.1-21.74 1.8-8.7-.22-19.02-5.95-30.8m-224 143.8l30.56 36.93 28-19.62c10.92-7.54 17.65-12.7 20.1-15.35 3.8-3.74 6-8.2 6.5-13.2.35-4.95-1.38-9.8-5.5-14.75-3.4-4.08-7.4-6.83-12.03-8.04-4.64-1.5-9.54-1.4-14.7.13-5.18 1.64-14.7 7.13-28.45 16.8l-24.55 17.1zm-45.5-54.9l26.4 31.98 20-13.88c11.65-8.4 18.9-13.57 21.46-15.9 4.8-4.2 7.43-8.76 8.2-13.4.8-4.86-.76-9.6-4.5-13.97-3.6-4.3-7.56-6.8-12.43-7.85-4.73-.68-9.82.2-15.44 3.2-3.28 1.78-11.97 7.72-26.33 17.6l-17.4 12.18zm-49.4-1.74l60.03-42c11.96-8.3 21.17-14.02 27.82-17.13 6.6-3.2 13.38-4.84 20.4-5.3 7.02-.4 14 .86 21.05 3.4 7.1 2.7 13 7.1 18.1 12.98 5.3 6.55 8.33 13.75 9 21.8.6 8.1-1.14 15.76-5.4 22.9 11.12-3.83 21.7-4.8 31.45-2.23 9.8 2.44 18.1 7.68 24.63 15.6 5.2 6.3 8.63 13.5 10.5 21.7 1.6 8.08 1.17 15.97-1.3 23.2-2.67 7.45-7.53 14.4-15.02 21.03-4.54 4-16.5 12.75-35.72 26.35l-51.2 35.8L494.9 868.7zm-3.5 133.3l-62.98-36.8 22 65.4 40.9-28.6zm101.16 15.54l-33 22.94-39.07-22.04-60.26 41.96 13.75 39.94-32.27 22.44L386 943.87l32-22.37 174.52 96z"/></svg>