<svg xmlns="http://www.w3.org/2000/svg" viewBox="-321.9 494.1 288.1 300"><title>Boa Esporte Clube</title><path fill="#048546" d="M-177.8 533.1c60.1 0 108.8 48.3 108.8 107.8s-48.7 107.8-108.8 107.8-108.7-48.3-108.7-107.8 48.7-107.8 108.7-107.8z"/><path fill="#FFF" d="M-179.3 494.1l35.6 103.8 109.9-1.2-88 65.1L-85.4 768l-91.1-65.8-88.6 66.8 32.5-105.5-89.3-64.3 109.5-1 33.1-104.1z"/><path fill="#E63135" d="M-179.1 508.8l32.7 93.3 97.9-.7-78 59.6 31.3 92.9-81.3-57-79 58.8 28.4-94.1-80.4-57.6 98.2-1.3 30.2-93.9z"/><path fill="#FFF" d="M-177.1 596.6c26.8 0 48.6 21.8 48.6 48.6s-21.8 48.6-48.6 48.6-48.6-21.8-48.6-48.6 21.8-48.6 48.6-48.6z"/><path fill="#E63135" d="M-224.5 751.3h17.3c2.9 0 5.1.7 6.6 2.1 1.5 1.4 2.3 3.2 2.3 5.3 0 1.8-.6 3.3-1.7 4.6-.7.8-1.8 1.5-3.2 2 2.1.5 3.7 1.4 4.7 2.7s1.5 2.8 1.5 4.7c0 1.6-.4 2.9-1.1 4.2-.7 1.2-1.7 2.2-3 2.9-.8.4-1.9.8-3.5 1-2.1.3-3.5.4-4.1.4h-16l.2-29.9zm9.4 11.7h4c1.4 0 2.4-.3 3-.7.6-.5.8-1.2.8-2.2 0-.9-.3-1.6-.8-2-.6-.5-1.6-.7-3-.7h-4.1l.1 5.6zm0 11.8h4.7c1.6 0 2.7-.3 3.4-.8.7-.6 1-1.3 1-2.3 0-.9-.3-1.6-1-2.1-.6-.5-1.8-.8-3.4-.8h-4.7v6zm22-8.5c0-4.9 1.4-8.7 4.1-11.4s6.5-4.1 11.4-4.1c5 0 8.8 1.3 11.5 4 2.7 2.7 4 6.4 4 11.2 0 3.5-.6 6.4-1.8 8.6-1.2 2.2-2.9 4-5.1 5.2s-5 1.9-8.3 1.9c-3.4 0-6.2-.5-8.4-1.6s-4-2.8-5.4-5.1c-1.3-2.3-2-5.2-2-8.7zm9.3 0c0 3 .6 5.2 1.7 6.5 1.1 1.3 2.7 2 4.6 2 2 0 3.5-.6 4.6-1.9 1.1-1.3 1.6-3.6 1.6-7 0-2.8-.6-4.9-1.7-6.2s-2.7-1.9-4.6-1.9c-1.9 0-3.4.7-4.5 2-1.2 1.3-1.7 3.5-1.7 6.5zm43.7 10h-10.5l-1.5 4.9h-9.4l11.3-29.9h10.1l11.3 29.9h-9.7l-1.6-4.9zm-1.9-6.5l-3.3-10.8-3.3 10.8h6.6zm-53.5-151.4h26.8c4.5 0 7.9 1.2 10.3 3.6 2.4 2.4 3.6 5.3 3.6 8.8 0 2.9-.9 5.5-2.6 7.6-1.1 1.4-2.8 2.5-5 3.3 3.3.9 5.8 2.3 7.3 4.4 1.6 2.1 2.3 4.7 2.3 7.9 0 2.6-.6 4.9-1.7 7-1.1 2.1-2.6 3.7-4.6 4.9-1.2.7-3 1.3-5.4 1.6-3.2.5-5.4.7-6.4.7h-24.6v-49.8zm14.4 19.5h6.2c2.2 0 3.8-.4 4.7-1.2.9-.8 1.3-2 1.3-3.6 0-1.4-.4-2.6-1.3-3.4-.9-.8-2.4-1.2-4.6-1.2h-6.3v9.4zm0 19.5h7.3c2.5 0 4.2-.5 5.2-1.4s1.5-2.2 1.5-3.8c0-1.5-.5-2.7-1.5-3.5-1-.9-2.7-1.3-5.3-1.3h-7.2v10zm-42.2 129.1h6.1v1.6h-3.8v1.2h3.5v1.5h-3.5v1.4h3.9v1.7h-6.2v-7.4zm7.1 4.9l2.2-.1c0 .4.1.6.3.8.2.3.6.4 1 .4.3 0 .6-.1.7-.2.2-.2.3-.3.3-.5s-.1-.4-.2-.5c-.2-.2-.6-.3-1.2-.4-1-.2-1.7-.5-2.1-.9-.4-.4-.6-.8-.6-1.4 0-.4.1-.7.3-1.1.2-.3.5-.6 1-.8.4-.2 1-.3 1.8-.3.9 0 1.7.2 2.1.5.5.3.8.9.9 1.7l-2.1.1c-.1-.3-.2-.6-.4-.7-.2-.1-.4-.2-.8-.2-.3 0-.5.1-.6.2-.1.1-.2.2-.2.4 0 .1.1.2.2.3.1.1.4.2.8.3 1 .2 1.7.4 2.1.6.4.2.7.5.9.8s.3.7.3 1.1c0 .5-.1.9-.4 1.3-.3.4-.6.7-1.1.9s-1.1.3-1.8.3c-1.2 0-2.1-.2-2.6-.7-.5-.5-.8-1.2-.8-1.9zm7.8-4.9h3.8c.8 0 1.4.2 1.8.6.4.4.6.9.6 1.7 0 .7-.2 1.3-.7 1.7-.4.4-1.1.6-2 .6h-1.2v2.7h-2.3v-7.3zm2.2 3.1h.6c.4 0 .7-.1.9-.2.2-.2.3-.3.3-.6 0-.2-.1-.4-.2-.6-.2-.2-.4-.2-.9-.2h-.6c-.1 0-.1 1.6-.1 1.6zm4.9.6c0-1.2.3-2.1 1-2.8s1.6-1 2.8-1 2.2.3 2.8 1c.7.7 1 1.6 1 2.8 0 .9-.1 1.6-.4 2.1-.3.5-.7 1-1.3 1.3-.5.3-1.2.5-2 .5s-1.5-.1-2.1-.4c-.5-.3-1-.7-1.3-1.3-.3-.7-.5-1.4-.5-2.2zm2.3 0c0 .7.1 1.3.4 1.6.3.3.7.5 1.1.5.5 0 .9-.2 1.1-.5.3-.3.4-.9.4-1.7 0-.7-.1-1.2-.4-1.5-.3-.3-.7-.5-1.1-.5-.5 0-.8.2-1.1.5-.3.3-.4.8-.4 1.6zm6.6 3.6v-7.3h3.8c.7 0 1.2.1 1.6.2.4.1.7.3.9.7.2.3.3.7.3 1.2 0 .4-.1.8-.3 1.1-.2.3-.4.5-.7.7-.2.1-.5.2-.8.3.3.1.5.2.6.3l.4.4c.2.2.3.3.3.5l1.1 2.1h-2.6l-1.2-2.2c-.2-.3-.3-.5-.4-.6-.2-.1-.3-.2-.6-.2h-.2v3h-2.2v-.2zm2.2-4.3h1c.1 0 .3 0 .6-.1.2 0 .3-.1.4-.2.1-.1.1-.3.1-.4 0-.2-.1-.4-.2-.5-.2-.1-.4-.2-.8-.2h-1l-.1 1.4zm5.1-3h6.9v1.8h-2.3v5.5h-2.3v-5.5h-2.3v-1.8zm7.9 0h6.1v1.6h-3.8v1.2h3.5v1.5h-3.5v1.4h3.9v1.7h-6.2v-7.4zm15.8 4.3l2 .6c-.1.6-.3 1-.6 1.4s-.6.7-1.1.8c-.4.2-1 .3-1.6.3-.8 0-1.5-.1-2-.3s-.9-.6-1.3-1.2-.6-1.3-.6-2.2c0-1.2.3-2.2 1-2.8.6-.7 1.6-1 2.7-1 .9 0 1.7.2 2.2.6.5.4.9.9 1.2 1.7l-2 .4c-.1-.2-.1-.4-.2-.5-.1-.2-.3-.3-.5-.4-.2-.1-.4-.1-.6-.1-.5 0-.9.2-1.2.6-.2.3-.3.8-.3 1.4 0 .8.1 1.4.4 1.7.2.3.6.5 1 .5s.8-.1 1-.4c.2-.3.4-.6.5-1.1zm3-4.3h2.3v5.5h3.6v1.8h-5.8l-.1-7.3zm11.4 0h2.3v4.4c0 .4-.1.8-.2 1.2s-.3.7-.6 1-.6.5-.9.6c-.4.2-1 .2-1.6.2-.4 0-.7 0-1.2-.1-.4-.1-.8-.1-1.1-.3-.3-.1-.5-.4-.8-.6-.3-.2-.4-.6-.5-.8-.1-.5-.2-.9-.2-1.2v-4.4h2.3v4.5c0 .4.1.7.3.9.2.2.5.3.9.3s.7-.1.9-.3c.2-.2.3-.5.3-.9l.1-4.5zm3.8 0h4.3c.7 0 1.3.2 1.6.5.4.4.6.8.6 1.3 0 .4-.1.8-.4 1.1-.2.2-.4.4-.8.5.5.1.9.3 1.2.7.2.3.4.7.4 1.2 0 .4-.1.7-.3 1-.2.3-.4.5-.7.7-.2.1-.5.2-.9.2-.5.1-.8.1-1 .1h-3.9l-.1-7.3zm2.3 2.9h1c.4 0 .6-.1.7-.2.1-.1.2-.3.2-.5s-.1-.4-.2-.5c-.1-.1-.4-.2-.7-.2h-1v1.4zm0 2.8h1.2c.4 0 .7-.1.8-.2.2-.1.2-.3.2-.6 0-.2-.1-.4-.2-.5-.2-.1-.4-.2-.8-.2h-1.2v1.5zm5.7-5.7h6.1v1.6h-3.8v1.2h3.5v1.5h-3.5v1.4h3.9v1.7h-6.2v-7.4z"/></svg>