<svg xmlns="http://www.w3.org/2000/svg" viewBox="-100 169 410 455"><path fill="#1F211D" d="M-38.2 544.3c-21.9-11.8-35.1-28.8-42.4-48.2-7.1-18.7-8.6-39.2-7.2-58.8 1.8-25.2 11-45.8 19.6-65.3 15.3-34.4 28.7-64.6-22.2-111.6l-8.6-7.9 7.1-9.3 33.5-43.9 5.1-6.7 8.2 2.1c13.5 3.5 27.1 6.5 40.9 8.2 13 1.6 26 2 38.9.5-.5.1-.6.1.6-.1.2 0 .4-.1.7-.1-.3 0-.5.1-.7.1-.2 0-.4 0-.5.1.4-.1.9-.1 1.3-.2.7-.1.5-.1 0 0 2.6-.3 5.4-.8 8.4-1.4 2.8-.5 5.5-1.2 8.1-1.9 13.4-3.6 25.5-9.4 36-17.2l.4-.3 8.8-6 7.3-5 7.3 5 8.8 6 .4.2h.1c1.6 1.2 3.7 2.6 6.4 4.3 2.6 1.7 4.8 3 6.6 3.9 11.8 6.3 25 10.4 39.6 12.2 13.4 1.7 26.8 1.3 40.2-.4 13.8-1.7 27.4-4.7 40.9-8.2l8.2-2.1 5.1 6.7 33.5 43.9 7.1 9.3-8.6 7.9c-52 48-37.9 78.9-21.7 114.4 8.5 18.7 17.6 38.5 20.6 62.3.7 5.3 1.1 10.7 1.1 16 .1 5.4-.2 10.8-.8 16.4-3.4 28.9-17.5 56.5-51.4 74.8l-137.1 73.9-6.1 3.3-6.1-3.3-137.4-73.6zM-56.7 487c5.3 14 14.8 26.3 30.6 34.8L105 592.4l131.1-70.6c25.1-13.5 35.6-34 38.1-55.3.5-4.2.7-8.6.6-13.1-.1-4.4-.4-8.9-.9-13.2-2.5-20.1-10.7-38-18.4-54.8-19.4-42.5-36.5-79.7 19.2-135.7l-21.5-28.2c-12 2.9-23.9 5.4-35.9 6.9-15.1 1.9-30.6 2.3-46.5.3-17.7-2.2-33.9-7.3-48.5-15-3.4-1.8-6.1-3.4-8.4-4.8-2.1-1.3-4.6-3.1-7.5-5.2l-1.5-1-1.5 1c-13.1 9.8-28 16.9-44.4 21.3-3.2.9-6.5 1.6-9.8 2.3-3 .6-6.4 1.1-10 1.6h-.1c-15.9 2-31.3 1.6-46.4-.3-12-1.5-23.9-3.9-35.9-6.9l-21.5 28.2c54.4 54.9 38.2 91.4 19.8 132.7-7.7 17.3-15.9 35.6-17.3 56.6-1.2 16.4-.1 33.2 5.5 47.8zM36 203.3zm3.1 25.4c-4.3.6 2.2-.3 0 0z"/><path fill="#FFF" d="M-32.1 533.1c-37.7-20.3-45.5-58.7-42.9-94.9 5-71.8 78.2-108.7-6.7-187.2l33.5-43.9c28.2 7.3 56.6 12.6 85.9 8.9 22.5-2.8 42.2-10.6 58.7-22.9l8.8-6 8.8 6c16.5 12.4 36.2 20.1 58.7 22.9 29.3 3.7 57.6-1.6 85.9-8.9l33.5 43.9c-85 78.4-14.1 116.1-5.2 187.7 4.3 34.5-3.5 72.3-44.4 94.4L105 607l-137.1-73.9z"/><path fill="#1F211D" d="M246.9 222.7L-40.7 376.4c6.2-11.8 10.5-25.2 11.9-39.2 4.6-25.8-1.6-53-35.9-87.5l21.3-27.9c11.7 3 23.2 5.1 34.3 6.4.6.1 1.2.2 1.8.2 15.1 1.9 30.5 2.3 46.4.3h.1c3.7-.5 7-1 10-1.6 3.3-.6 6.5-1.4 9.8-2.3 3.7-1 7.3-2.1 10.8-3.3h-.1c13-4.4 24.8-10.4 35.2-18.2 23.7 17.8 52.8 26.9 86.8 26.7 8.6 0 17.1-.6 25.5-1.6 9.5-1.2 18.9-3 28.4-5.1l1.3-.6zm-207.8 6c-4.3.6 2.2-.3 0 0zM-3.7 404.5l12.3-6.7c1.1 1.9 1.9 3.2 2.2 3.8 1.7 3.1 2.6 5.8 2.6 8.1.1 2.5-1.2 5-3.8 7.3-2.6 2.3-7.6 5.5-14.9 9.5-7.7 4.2-13.3 7-16.7 8.5-3.4 1.5-6.2 2.2-8.3 2.3-1.9 0-3.6-.4-5-1.3s-2.9-2.4-4.3-4.6c-1.2-1.7-3.1-5-5.7-9.8-2.5-4.7-4.3-8.1-5.2-10.3-.9-2.2-1.5-4-1.6-5.4-.3-3.2 1.1-6.1 4.1-8.7 3-2.6 9.7-6.8 20.2-12.4 5.2-2.8 9.1-4.8 11.6-5.8s4.6-1.6 6.4-1.7c2.3-.1 4.3.5 6 1.8 1.7 1.3 3.4 3.6 5.2 6.9l1.1 2-12.3 6.7c-.8-1.3-1.4-2.2-1.7-2.6-.4-.4-.8-.6-1.3-.8-.7-.2-2.1.2-4.1 1.1-2 .8-5 2.3-8.9 4.5-3.9 2.1-6.5 3.6-7.9 4.6-1.4 1-2.3 1.9-2.6 2.7-.4 1-.4 2.3.1 3.8.5 1.6 1.6 3.9 3.2 6.9 1.7 3.1 3 5.1 3.9 6.3.9 1.1 1.9 1.7 3 1.9 1 .2 2.3-.1 3.9-.7 1.6-.7 4.3-2 8.2-4.1 4.7-2.6 7.8-4.4 9.3-5.4 1.5-1 2.4-1.9 2.6-2.8.2-1.2-.3-3-1.6-5.6zm5.3-35l44.8-24.4 5.2 9.5L19 372.4l3.2 5.8 31-16.9 4.8 8.9-31 16.9 3.5 6.5 32.9-17.9 5.3 9.7-45 24.5-22.1-40.4zm116.8-11.2l-7.2-5-26.7 14.5.3 8.7-14.1 7.7-.6-52.1 19.1-10.4 43.1 28.9-13.9 7.7zM102 346.9l-16.1-11.1-2.5 1.3.5 19.5 18.1-9.7zm34.2 1.7l-22-40.4L144 292c7-3.8 11.2-6 12.7-6.6 1.5-.6 3-.9 4.8-.8 2 .1 3.8.8 5.3 2.1s3.1 3.7 5 7.2c1.6 2.9 2.6 5.2 3 6.8.4 1.6.3 3.1-.3 4.4-.6 1.5-1.9 3-3.9 4.5 2.7-1.2 4.9-1.5 6.8-.8 1.1.4 2 1.1 2.8 2.1.8 1 2.1 3.3 4 6.8l2 3.8-12.1 6.6-1.2-2.2c-1.2-2.3-2.2-3.8-2.9-4.7-.7-.9-1.4-1.4-2.1-1.7-.7-.2-1.5-.2-2.4.1-.9.3-2.6 1.2-5.1 2.5l-17.4 9.4 5.6 10.3-12.4 6.8zm1.3-27.1l17.3-9.4c3-1.7 4.8-2.7 5.3-3.1.5-.4 1-.8 1.2-1.3.3-.6.5-1.3.3-2.1s-.6-1.8-1.3-3.2c-.7-1.3-1.4-2.2-2-2.8-.6-.5-1.3-.8-2.1-.7-.5 0-1.1.2-1.7.5-.6.3-2.4 1.2-5.2 2.7l-17.3 9.4 5.5 10zm99.3-27.6l-7.2-5-26.7 14.5.3 8.7-14.1 7.7-.6-52.1 19.1-10.4 43.1 28.9-13.9 7.7zm-16.4-11.4l-16.1-11.1-2.5 1.3.5 19.5 18.1-9.7zm-3.5-24.6l2.9-12.6 9.9-2.2-10.4 16.9-2.4-2.1z"/><path fill="#FFF" d="M124.8 234.3c.9 1.6 1.7 3.2 2.6 4.8.9 1.6 1.7 3.2 2.6 4.8h16.8c-2.3 1-4.5 2-6.8 2.9-2.3 1-4.5 2-6.8 2.9.9 1.6 1.7 3.2 2.6 4.8.9 1.6 1.7 3.2 2.6 4.8-2.3-1-4.5-2-6.8-2.9-2.3-1-4.5-2-6.8-2.9-2.3 1-4.5 2-6.8 2.9-2.3 1-4.5 2-6.8 2.9.9-1.6 1.7-3.2 2.6-4.8s1.7-3.2 2.6-4.8c-2.3-1-4.5-2-6.8-2.9-2.3-1-4.5-2-6.8-2.9h16.8c.9-1.6 1.7-3.2 2.6-4.8.9-1.6 1.7-3.2 2.6-4.8zm-44.5-9.6c1.1 1.7 2.2 3.5 3.3 5.2 1.1 1.7 2.2 3.5 3.3 5.2h21.5c-2.9 1.1-5.8 2.1-8.7 3.2-2.9 1.1-5.8 2.1-8.7 3.2 1.1 1.7 2.2 3.5 3.3 5.2 1.1 1.7 2.2 3.5 3.3 5.2-2.9-1.1-5.8-2.1-8.7-3.2-2.9-1.1-5.8-2.1-8.7-3.2-2.9 1.1-5.8 2.1-8.7 3.2-2.9 1.1-5.8 2.1-8.7 3.2 1.1-1.7 2.2-3.5 3.3-5.2 1.1-1.7 2.2-3.5 3.3-5.2-2.9-1.1-5.8-2.1-8.7-3.2-2.9-1.1-5.8-2.1-8.7-3.2h21.5c1.1-1.7 2.2-3.5 3.3-5.2 1.3-1.8 2.4-3.5 3.5-5.2z"/><path fill="#FFF" d="M27.6 233c1.2 1.8 2.4 3.5 3.6 5.3 1.2 1.8 2.4 3.5 3.6 5.3h23.4c-3.2 1.1-6.3 2.2-9.5 3.3-3.2 1.1-6.3 2.2-9.5 3.3 1.2 1.8 2.4 3.5 3.6 5.3 1.2 1.8 2.4 3.5 3.6 5.3-3.2-1.1-6.3-2.2-9.5-3.3-3.2-1.1-6.3-2.2-9.5-3.3-3.2 1.1-6.3 2.2-9.5 3.3-3.2 1.1-6.3 2.2-9.5 3.3 1.2-1.8 2.4-3.5 3.6-5.3 1.2-1.8 2.4-3.5 3.6-5.3-3.2-1.1-6.3-2.2-9.5-3.3-3.2-1.1-6.3-2.2-9.5-3.3H20c1.2-1.8 2.4-3.5 3.6-5.3s2.8-3.5 4-5.3zm-38.4 22.2c1.2 2.1 2.5 4.3 3.7 6.4 1.2 2.1 2.5 4.2 3.7 6.4h24.1c-3.3 1.3-6.5 2.6-9.8 3.9-3.3 1.3-6.5 2.6-9.8 3.9 1.2 2.1 2.5 4.3 3.7 6.4 1.2 2.1 2.5 4.2 3.7 6.4-3.3-1.3-6.5-2.6-9.8-3.9-3.3-1.3-6.5-2.6-9.8-3.9-3.3 1.3-6.5 2.6-9.8 3.9-3.3 1.3-6.5 2.6-9.8 3.9 1.2-2.1 2.5-4.2 3.7-6.4 1.2-2.1 2.5-4.2 3.7-6.4-3.3-1.3-6.5-2.6-9.8-3.9-3.3-1.3-6.5-2.6-9.8-3.9h24.1c1.2-2.1 2.5-4.2 3.7-6.4 1.8-2.1 3.1-4.3 4.3-6.4z"/><path fill="#1F211D" d="M25.7 549.3V422.6l-87.1 46.1c.9 6.4 2.5 12.6 4.7 18.4 5.3 14 14.8 26.3 30.6 34.8l1.5.8-1-.5 51.3 27.1zm79.3 41.9l-48-26.3V406l94.1-49.8v209.1L105 591.2zm76.9-251.4l56.2-29.5c-4.5 26.2 5.9 50.2 17.4 75.2 4.7 10.3 9.6 21.1 13.3 32.5 2.2 7.5 4 15.1 5.1 22.8.5 4.2.8 8.5.9 12.8.1 4.4-.1 8.8-.6 13.1-1.9 15.9-8.2 31.4-21.8 43.8-4.7 4.2-10.3 8.1-16.8 11.7l-9.5 5.2-39.7 21.5 39.7-21.5-44.2 23.6V339.8z"/><path fill="#FFF" d="M24.5 282.6c1.5 2.6 3 5.1 4.5 7.7 1.5 2.6 3 5.1 4.6 7.7H63c-4 1.6-7.9 3.2-11.9 4.8-4 1.6-7.9 3.2-11.9 4.8 1.5 2.6 3 5.1 4.5 7.7s3 5.1 4.6 7.7c-4-1.6-7.9-3.2-11.9-4.7-4-1.6-7.9-3.2-11.9-4.8-4 1.6-7.9 3.2-11.9 4.8-4 1.6-7.9 3.2-11.9 4.7 1.5-2.6 3-5.1 4.5-7.7s3-5.1 4.6-7.7c-4-1.6-7.9-3.2-11.9-4.8-4-1.6-7.9-3.2-11.9-4.8h29.4c1.5-2.6 3-5.1 4.5-7.7s3-5.1 4.6-7.7zM83 564.1v-17.7h-3.9l1.7-3.3H87v21m21.6 0v-17.7h-3.9l1.6-3.3h6.3v21m-11.3-19.5c-1.2-1.2-2.8-1.8-4.8-1.8-2.1 0-3.8.6-5.1 1.8-1.3 1.2-1.9 2.9-1.9 4.9 0 1.8.5 3.2 1.6 4.4 1.1 1.1 2.4 1.7 4.1 1.7.5 0 1 0 1.4-.1.4-.1.8-.2 1.2-.4l-5.6 9.1h4.7c2.4-3.6 4-6.6 5.6-10.7.5-1.4.8-2.7.8-3.9-.2-2.2-.8-3.8-2-5zm-2.9 7c-.5.6-1.2.9-2.1.9-1 0-1.7-.3-2.3-.8-.5-.6-.8-1.3-.8-2.3 0-.9.3-1.7.8-2.2.6-.6 1.3-.9 2.2-.9.9 0 1.6.3 2.2.8.5.6.8 1.3.8 2.3 0 .8-.2 1.6-.8 2.2zm29.2 4.4v-13.3H124l-9.5 14.3v1.8h9.5v5.2h3.6v-5.2h2.1V556h-2.1zm-3.6-8.2v8.3h-5.5l4.2-6.5c.3-.4.5-.9.8-1.3.2-.5.4-.9.6-1.4 0 .2 0 .5-.1.9z"/></svg>