<svg xmlns="http://www.w3.org/2000/svg" viewBox="-360 542 250 250"><path fill="#ED1C24" d="M-235 542c69 0 125 56 125 125s-56 125-125 125-125-56-125-125 56-125 125-125z"/><g fill="#FFF"><path d="M-280.3 620.8l-3.2.8-2.4 4.8 1.6.6-.3.8c1.7-1.1 3.3-2.5 4.7-4.1.6-.8 1.2-1.6 1.7-2.4l-1.7 1-.4-1.5zm4.2-10.2l.8 1.1c0-2.6-.7-5.1-2-7.2l.2.9-2.7.5-.2 4.8 1.9 1.3 2-1.4zm-11.8 8.7l-4.7 1.7-3.4 4.2 2.4 2.4c1.3 0 3.7-.2 6.3-1.2l2.6-5.2-3.2-1.9zm-1.9-9.2l3.9 1.8 4.6-1.7.2-4.8c-2.1-1.5-4.1-2.3-5.1-2.6l-3.6 2.6v4.7zm4.4 3.1l-1.9 4.9 3.4 2-.1.2 3.6-.9c.5-.8 1.6-2.7 1.7-6.1l-2.4-1.6-.1-.1-4.2 1.6zm-1.7-11.2l-.7-2.5.3-.1c-2.2 0-4.5.6-6.7 1.8v.1l-.2 2.4 3.9.8 3.4-2.5zm-8.1 12.2l4.2-3.4v-5l-3.6-.7c-.6.4-3 2.2-4.7 4.3l.4 4.6 3.7.2zm-2 11.6l-2.6-.4-1.5 1.5h-.4l.9.9c1.5 1.3 3.2 2.1 5.1 2.5l-.5-.3 1.4-1.5-2.4-2.7zm65.8 128.8l-3.6-10.3-3.4 10.2-11 .3 8.6 6.4-3.1 10.5 8.8-6.2 9 6.2-3.2-10.3 8.7-6.6m-20.6-22c.1-.1.2 0 .1.2-1.2 3.6-2.4 5.4-7.3 7.9-.1.3.3 1.2.5 1.3 8.1-2.1 12.2-6.9 12.2-13.5 0-4.6-2.4-8.9-7.2-8.9-1.4 0-2.9.4-3.9 1-2.5 1.5-4 3.9-4 7.1.1 6.7 5.4 7.7 9.6 4.9zm-2.6-11.6c2.5 0 3.5 3.3 3.5 7.1 0 .7-.1 1.4-.3 2.5 0 .2-.3.5-.4.6-.4.2-1 .4-1.4.4-2.1 0-4-1.8-4-6.1 0-3 1.3-4.5 2.6-4.5zm19.3-1.5c-1.6 0-3.4.5-4.7 1.7-2.3 2.1-3.2 5.8-3.2 9.3 0 4 .7 8 3.2 10.1 1.1.9 2.5 1.3 4.1 1.3 1.3 0 2.8-.4 3.9-1.2 2.9-2.1 3.8-6.2 3.8-10.5 0-3.8-.8-6.6-2.2-8.2-1-1.5-2.7-2.5-4.9-2.5zm1 20.4c-.2.2-.6.4-1 .4-1.8 0-3.1-3.1-3.1-10.5 0-4.5.6-7.4 1.6-8.4.2-.3.6-.4.9-.4 1.9 0 3 3.4 3 9.9-.1 6.3-.7 8.2-1.4 9zM-300.4 624l3.3.6 3.7-4.6-2.7-4.5-2.9-.3v.1l-3.1 3.6c0 .8.3 3.1 1.7 5.1z"/><path d="M-235 550c-64.6 0-117 52.4-117 117s52.4 117 117 117 117-52.4 117-117-52.4-117-117-117zm54.9 27.4l1.6-3.9 1.5 3.8 4.2.3-3.2 2.6 1 4.1-3.4-2.2-3.6 2.2 1.1-4-3.2-2.7 4-.2zm-22.1-10l.5-4.2 2.4 3.3 4.1-.8-2.4 3.3 2 3.7-3.9-1.3-2.9 3.1v-4.1l-3.8-1.8 4-1.2zm-23.7-9.1l3.2 2.6 3.8-1.8-1.5 3.8 2.9 3-4.1-.2-2 3.7-1.1-4-4.1-.7 3.4-2.2-.5-4.2zm-7.9 34.4c6.8-1.9 23.4-6.3 27.1-4.5 4.7 2.4 0 7.7 2.9 12.4 2.5 4 37.8-7 48-10.3 4.7 4.9 9 10.2 12.8 16-6.7 2.1-42 12.8-53.7 14.4-13 1.8-4.7-8.8-8.8-12.4-3.6-3.1-23.3 1.9-28.3 3.2v-18.8zm0 37.6c7.1-2 22.9-6.1 26.5-4.3 4.7 2.4 0 7.7 2.9 12.4 2.4 3.9 52.8-10.7 70.2-15.9 2.5 5.7 4.6 11.7 6.1 17.9-19.6 5.6-59.6 16.8-69.3 18.1-13 1.8-4.7-8.8-8.8-12.4-3.5-3-21.9 1.5-27.7 3.1v-18.9h.1zm-17.3-71.2l3.8 1.8 3.2-2.6-.6 4.2 3.4 2.2-4.1.7-1.1 4-2-3.7-4.1.2 2.9-3-1.4-3.8zm-10.3 84.8c-1 18.4 12.5 11.4 14.7 7.6.9-1.7 3.3-.4 2.7 1.1-3.5 9.5-24 10-23.6-6.1.3-12.6 10.8-21.5 22.9-18.4l-.7 5.5c1-4.3-15.1-8.1-16 10.3zm-9.3-77.3l2.4-3.3.5 4.2 3.9 1.3-3.8 1.8v4.1l-2.9-3.1-3.9 1.3 2-3.7-2.4-3.3 4.2.7zm-22.2 10.7l1.5-3.8 1.6 3.9 4.1.2-3.2 2.7 1.1 4-3.6-2.2-3.4 2.2 1-4.1-3.2-2.6 4.1-.3zm-10 30.6c.2-.4.5-.7.7-1.1v-.1l.1-.1.1-.2.1-.1.2-.2c.1-.1.2-.2.2-.3.1-.1.1-.2.2-.2l.1-.1.1-.1c.1-.1.2-.2.2-.3v-.1l.3-.3.3-.3.3-.3.3-.3.1-.1.2-.2.1-.1c.1-.1.2-.1.2-.2l.1-.1.1-.1.1-.1.2-.2.1-.1.2-.2.1-.1.2-.1.2-.1c.1-.1.2-.1.3-.2.1-.1.2-.1.3-.2h.1c.2-.1.4-.3.6-.4 3.7-2.3 7.9-3.2 11.6-2.6l1.4.3c1.4.4 2.7 1.1 3.8 1.9h.1c.1 0 .1.1.2.1l.1.1.1.1.3.3c5.4 5.4 5 15.2-1 22.4-1.7 2.1-3.8 3.8-5.9 5h-.1c-.1 0-.2.1-.3.1-5.5 2.9-11.7 2.8-16-.9-.7-.6-1.3-1.2-1.8-1.9l-.2-.2-.1-.1c0-.1-.1-.1-.1-.2l-.1-.1-.1-.2-.1-.1-.1-.2-.1-.1-.1-.2v-.1c0-.1-.1-.2-.1-.3v-.1l-.1-.2-.1-.2-.1-.1c0-.1-.1-.1-.1-.2l-.1-.1c0-.1-.1-.2-.1-.2v-.1c0-.1-.1-.2-.1-.2v-.1l-.1-.2v-.1c-.3-.8-.5-1.6-.6-2.5v-.3c0-.3-.1-.5-.1-.8v-.2c.5-3.4 1.5-7.3 3.7-10.9zm-26.1 17.3c.3-1.3 1.2-2.6 2.4-4 1.4-1.6 2.6-2.7 4-3.1 1.4-.4 2.8-.1 4.4 1.2l9.7 8c3.8 3.1 7.3 9.3 7.8 10.2l10.3 7.9c7-8.3 12.3-14.7 13-15.4.3-1 2.4-7.9 5.5-11.8l9.6-12c1.3-1.6 2.6-2.3 4.1-2.2 1.4.1 2.9.9 4.6 2.2 1.5 1.1 2.7 2.2 3.3 3.4.6 1.3.5 2.7-.8 4.2l-11.7 13.7s-3.4 3.5-10 6.8l-12.4 14.9c13 10 29.7 22.9 31.8 24.5 4.3 3.4 1 6.1 1 6.1-2.1 1.6-3.9-.1-4.1-.3l-32.6-25.5-33.5 40.3c-.2.2-1.6 2.2-4 1.2 0 0-3.8-2-.4-6.2 1.7-2 19.1-22.7 32.9-39.1l-9.6-7.5c-7.1-1.8-11.1-4.5-11.1-4.5l-12.1-9.2c-2-1.1-2.4-2.4-2.1-3.8zm31.8 75.9s-5.2 4.9-5.1.8c.1-4.1 0-25.5 0-25.5s-3.3-3.3 2.2-4c5.5-.6 5.1 1.8 5.1 1.8l13.4 14v-15.6s-4.5-2-1.3-2.9c3.2-.9 4.4-1.3 5.6-1.5 1.3-.3-.8 3.3-.8 3.3V696s-2 3.2-5.1-.4c-3.1-3.6-14.5-15.9-14.5-15.9v19.2c.1-.1 1.7 1.1.5 2.2zm-42.3-38.5c.3-12.6 10.8-21.5 22.9-18.4l-.7 5.5c.9-4.2-15.2-8-16.1 10.4-1 18.4 12.5 11.4 14.7 7.6.9-1.7 3.3-.4 2.7 1-3.4 9.5-23.9 10-23.5-6.1zM-235 777.9c-40.4 0-75.8-21.7-95.2-54 30.7-7.2 119.2-27.5 121.1-24.1 2.4 4.1-1.8 11.2 4.1 14.2 4 2 48.9-10.2 77-18.2-12.5 47.2-55.7 82.1-107 82.1zm35.4-82.9c-13 1.8-4.7-8.8-8.8-12.4-3.2-2.8-18.8 1-25.4 2.7v-18.8c7.6-2.1 21.9-5.7 25.4-4 4.7 2.4 0 7.7 2.9 12.4 2.6 4.1 65.2-12.6 80.4-16.8.2 2.9.4 5.9.4 8.8 0 3.5-.2 7-.5 10.5-22.8 5.8-65.1 16.3-74.4 17.6z"/><path d="M-207.4 725.8c0-3 0-4.4.2-5.8 0-.1-.4-.4-.5-.3-1.6.7-4.3 1.7-7 1.9-.1.1-.2 1.1-.1 1.3.5.1 1.3.2 1.8.3.5.1.8.6.8 1.3.1 1 .1 3.6.1 6.5 0 3 0 5.4-.1 6.9 0 .4 0 3.6-.1 4h5.2c-.1-.4-.1-3.6-.2-4.1-.1-3.1-.1-9.1-.1-12zm-95.7-108l2.9-3.3-.4-4.2-2.5.5v-.7c-1.1 2.2-1.7 4.5-1.9 6.8v-.1l1.9 1zm-23.8 76.2c.3.3.5.5.6.5 1.5.7 2.4-.7 2.4-.7l33.5-40.3-1.5-1.2-35 41.7zm71.5 31.8c0-3 0-4.4.2-5.8 0-.1-.4-.4-.5-.3-1.5.7-4.3 1.7-7 1.9-.1.1-.2 1.1-.1 1.3.5.1 1.3.2 1.8.3.5.1.8.6.8 1.3.1 1 .1 3.6.1 6.5 0 3 0 5.4-.1 6.9 0 .4 0 3.6-.1 4h5.2c-.1-.4-.1-3.6-.2-4.1-.1-3.1-.1-9.1-.1-12z"/><path d="M-326.5 628.1l12.1 9.2c.4.2 4.2 2.7 10.8 4.3h.1l.1.1 47.5 37.1s1.1 1.1 2.4.2c.1 0 .3-.3.5-.6l-72.7-56.3c-1.1 1.2-1.9 2.4-2.1 3.4-.2.9.1 1.7 1.3 2.6zm52.7 5.5l.2-.2c6.2-3.1 9.4-6.3 9.7-6.6l11.7-13.7c.9-1.1 1-2 .6-2.8-.4-.9-1.5-1.9-2.8-2.9l-33.6 40 1.5 1.2 12.7-15z"/></g></svg>