<svg xmlns="http://www.w3.org/2000/svg" width="211.7" height="336.7" viewBox="0 0 211.7 336.7"><path fill-rule="evenodd" clip-rule="evenodd" fill="#FFF" d="M1 1h209.7v92.9c-25.3 0-25.3 38.5 0 38.5v132.2c0 28.7-23.5 52.2-52.2 52.2h-32.9c-10.9.1-19.7 8.9-19.7 19.9 0-10.9-8.8-19.8-19.7-19.9H53.3C24.5 316.8 1 293.4 1 264.7V132.4c25.3 0 25.3-38.5 0-38.5V1z"/><path fill="#03227C" d="M106.8 336.7h-2c0-10.3-8.4-18.8-18.8-18.9H53.1C23.9 317.8 0 294 0 264.7V131.4h1c5.6 0 10.2-2 13.5-5.7 2.9-3.3 4.5-7.8 4.5-12.6 0-8.8-5.6-18.3-18-18.3H0V0h211.7v94.9h-1c-5.6 0-10.2 2-13.5 5.7-2.9 3.3-4.5 7.8-4.5 12.6 0 8.8 5.6 18.3 18 18.3h1v133.2c0 29.3-23.9 53.2-53.2 53.2h-32.9c-10.4 0-18.8 8.4-18.8 18.8zM2 133.4v131.3c0 28.2 23 51.2 51.2 51.2h32.9c9.2 0 17.1 6.1 19.7 14.5 2.7-8.4 10.5-14.4 19.7-14.5h32.9c28.2 0 51.2-23 51.2-51.2V133.4c-13-.5-19-10.7-19-20.2s6-19.7 19-20.2V2H2v90.9c13 .5 19 10.7 19 20.2s-6 19.8-19 20.3"/><path fill-rule="evenodd" clip-rule="evenodd" fill="#D62628" d="M26.8 27.3h158V75c-11.9 8.1-19.8 22-19.8 37.8 0 15.8 7.9 29.7 19.8 37.7v112c0 15.5-12.6 28.1-28.1 28.1h-30.9c-11.1 0-20 9-20 20 0 .4-.8-20-20-20H54.9c-15.5 0-28.1-12.6-28.1-28.1v-112c11.9-8.1 19.8-21.9 19.8-37.7 0-15.8-7.9-29.7-19.8-37.7V27.3z"/><path fill-rule="evenodd" clip-rule="evenodd" fill="#03227C" d="M53.2 44.8h11.6c2.1 0 3.8 1.7 3.8 3.8v17c0 2.1-1.7 3.8-3.8 3.8H60V88h-6.8V44.8zM86.6 88H75c-2.1 0-3.8-1.7-3.8-3.8v-17c0-2.1 1.7-3.8 3.8-3.8h4.3c.4 0 .8-.4.8-.8V51.8c0-.4-.4-.8-.8-.8h-.9c-.4 0-.8.4-.8.8v8.5h-6.5V48.6c0-2.1 1.7-3.8 3.8-3.8h7.9c2.1 0 3.8 1.7 3.8 3.8V88zm71.9 0h-11.6c-2.1 0-3.8-1.7-3.8-3.8v-17c0-2.1 1.7-3.8 3.8-3.8h4.3c.4 0 .8-.4.8-.8V51.8c0-.4-.4-.8-.8-.8h-.9c-.4 0-.8.4-.8.8v8.5H143V48.6c0-2.1 1.7-3.8 3.8-3.8h7.9c2.1 0 3.8 1.7 3.8 3.8V88zm0-47.3h-15.4v2.5h15.4v-2.5zm-7.3 41.1h-.8c-.4 0-.8-.4-.8-.8V70.3c0-.4.4-.8.8-.8h.8c.4 0 .8.4.8.8V81c0 .4-.4.8-.8.8m-26.1-37h11.6c2.1 0 3.8 1.7 3.8 3.8V88H134V51.8c0-.4-.4-.8-.8-.8h-.8c-.4 0-.8.4-.8.8 0 13.2.3 22.1.3 36.2h-6.8V44.8zM122.5 88h-11.6c-2.1 0-3.8-1.7-3.8-3.8v-17c0-2.1 1.7-3.8 3.8-3.8h4.3c.4 0 .8-.4.8-.8V51.8c0-.4-.4-.8-.8-.8h-.9c-.4 0-.8.4-.8.8v8.5H107V48.6c0-2.1 1.7-3.8 3.8-3.8h7.9c2.1 0 3.8 1.7 3.8 3.8V88zm-7.3-6.2h-.8c-.4 0-.8-.4-.8-.8V70.3c0-.4.4-.8.8-.8h.8c.4 0 .8.4.8.8V81c0 .4-.3.8-.8.8m-26.1-37h11.6c2.1 0 3.8 1.7 3.8 3.8v11.6H98v-8.5c0-.4-.4-.8-.8-.8h-.8c-.4 0-.8.4-.8.8 0 13.2.3 22.1.3 36.2h-6.8V44.8zm-9.8 37h-.8c-.4 0-.8-.4-.8-.8V70.3c0-.4.4-.8.8-.8h.8c.4 0 .8.4.8.8V81c0 .4-.4.8-.8.8M60.5 51h.8c.4 0 .8.4.8.8v10.7c0 .4-.4.8-.8.8h-.8c-.4 0-.8-.4-.8-.8V51.8c0-.5.4-.8.8-.8m124.3 151l-38.1-37.8s-34.3-41.1-85.8 0c-33 26.4-51.3 40.3-60.1 46.9H50c8.8 0 18.8 7.2 22.1 16.1L97 293.7c8.4 5.7 8.8 17.2 8.8 16.9 0-11.1 9-20 20-20h30.9c15.5 0 28.1-12.6 28.1-28.1V202zm-87-25.5c4.4 0 8 3.6 8 8s-3.6 8-8 8-8-3.6-8-8 3.6-8 8-8"/><path fill-rule="evenodd" clip-rule="evenodd" fill="#FFF" d="M87.9 91.8l1.2 1s14.4-14.4 9.4-19.6c-5-5.2-17.7 10.7-21.2 15.9-3.5 5.2-9.2 13.2-8.5 22 .7 8.8 8.9 8.9 16 .9 0 0-.8 7.7 7.5 1.2 0 0 1.5 6.9 10.4.6 0 0 2.1 6.3 11.3-2.2 0 0 .6 9.3 8.6-.3 0 0 2.2-3 4-6 0 0-2.1 5.8 1.5 9s7.9-.8 8.8-2.5l-.7-.8s-4.4 3.6-6.3.6c-1.9-3-.5-6.6 1.1-8.2 0 0 3.5.3 8.9-3s2.5-7.9.3-7.9-4.7.3-10.5 7.6c0 0 1.3-2.1-1.1-2.7-2.4-.6-4 2-2.9 3.5 0 0-5 9.3-7.1 10.9-2.1 1.5-1.8-3.5-1.8-3.5l16.3-19.9s8.3-10.2 4.6-12.2c-3.7-2-10 6.9-15.9 13.9s-8.1 15.2-8.1 17.2c0 0-5.6 7.3-7.8 5.8 0 0-1.2-.6 2.6-5.8l7.3-10s.8-.7-.2-1.7-1.7-.6-2.3.3c-.6.8-14.2 21.4-18.1 16.9 0 0-1.2-1.8 3.2-6.8s8.4-10.9 8.4-10.9.8-.7-.4-1.7c-1.2-1-2 0-2 0s-15.1 20.3-16.6 18.8c0 0-.4-1.1.1-3.9 0 0 5.4-4.9 13.3-14.1s10.4-16.8 8.4-18.4c-1.9-1.6-5.6-.2-14.9 12.2-9.3 12.4-9.8 19-9.8 19s-8.4 10.2-12 7.1-.2-14.6 8-25.1c8.2-10.4 13.6-14.9 15.3-13.9 1.6 1-2.4 11-8.3 16.7m24.5 139.6c-3.6 0-6.6 2.9-6.6 6.6 0 3.6 2.9 6.6 6.6 6.6 3.6 0 6.6-2.9 6.6-6.6 0-3.6 2.9-6.6 6.6-6.6 3.6 0 6.6 2.9 6.6 6.6 0 3.2 2.3 5.8 5.2 6.4v46.2h2.7v-46.2c3-.6 5.2-3.3 5.2-6.4 0-3.6 2.9-6.6 6.6-6.6 3.6 0 6.6 2.9 6.6 6.6 0 3.6 2.9 6.6 6.6 6.6 3.6 0 6.6-2.9 6.6-6.6 0-3.6-2.9-6.6-6.6-6.6-3.6 0-6.6 2.9-6.6 6.6 0 3.6-2.9 6.6-6.6 6.6-3.6 0-6.6-2.9-6.6-6.6 0-3.6-2.9-6.6-6.6-6.6-3.6 0-6.6 2.9-6.6 6.6 0 3.6-2.9 6.6-6.6 6.6-3.6 0-6.6-2.9-6.6-6.6.1-3.7-2.9-6.6-6.5-6.6m21.4-131.5s4-5.3 6.2-4.3c0 .1 0 2.7-6.2 4.3m-15.5 1.9s5-11.2 16.8-22c0 0-4.4 8.2-16.8 22m-28.7.7s6.8-15.1 17.8-23.7c0-.1-5.6 12.8-17.8 23.7"/><path fill-rule="evenodd" clip-rule="evenodd" fill="#03227C" d="M55.9 123.8h-2.3v8.8h2.7s1.6.2 2.3-1.7c.7-1.9-.8-3-1.2-3 0 0 1.3-.8.8-2.5s-2.3-1.6-2.3-1.6m98.1 0h1.3v7.5h2.9v1.3H154v-8.8zm-17 0h1.3v8.8H137v-8.8zm-20.6 6.2h1.1s0 1.5 1.5 1.5 1.3-1.8 1.3-1.8.1-1-2-1.4c-2.1-.4-1.8-3.1-1.2-3.8.6-.6 1.3-1.2 2.7-.9 1.4.3 1.6 1.9 1.6 2.2h-1.2s-.1-1.2-1.2-1.2c-1.1 0-1.2 1.1-1.2 1.3 0 .2-.2 1 2 1.4 2.2.4 2.8 4.8-.6 5.3.1.1-2.7.5-2.8-2.6m-22.3 2.6h1.4l1-2.6h3.5l1 2.6h1.4l-3.4-8.8h-1.3l-3.6 8.8zm2.8-3.8l1.3-3.3 1.3 3.3h-2.6zm-21.5 3.8h-1.3v-8.8h2.5s2.4-.2 3.1 1.8c.7 2-.8 3.6-2.3 3.6l2.5 3.4h-1.6l-2.9-4v4zm0-7.6v3.4h1.2s2.1 0 2.1-1.7-2.1-1.6-2.1-1.6h-1.2zm-20.6 0h1.1c.6 0 1.1.5 1.1 1.1v.2c0 .6-.5 1.1-1.1 1.1h-1.1V125zm0 3.5h1.3c.7 0 1.3.6 1.3 1.3v.2c0 .7-.6 1.3-1.3 1.3h-1.3v-2.8z"/></svg>