<svg xmlns="http://www.w3.org/2000/svg" viewBox="-237 820.7 452 452.4"><path fill="#0091CF" d="M-11 1273.1c-106.9-65.2-205.7-175.8-226-361.6 47.3-13.6 86.1-49.2 109.6-90.8h232.8c23.6 41.7 62.3 77.2 109.6 90.8-20.3 185.8-119 296.4-226 361.6z"/><g fill="#FFF"><path d="M-6.5 1154.2c-.1-.4-.6-.6-.9-.6-.5.1-2.3.5-1.5 1.2s2.6-.2 2.4-.6zm8-.9c-.2-.6-.8-.9-1.4-.9-.8.2-3.2.8-2 1.8 1.2 1 3.7-.2 3.4-.9zM106.7 980c3.5 3.7 8.8 6.9 15.6 9.6 5.6 2.2 10.6 3.3 14.9 3.1s8.3-1.4 12.1-3.6c3.7-2.2 7.1-5.5 10.2-9.9l-15-11.9c-2.5 3.7-5 6.1-7.8 7.5-2.7 1.3-6 1.3-9.7-.2-3.8-1.5-6.3-4-7.4-7.4s-.3-8.7 2.5-15.7c2.2-5.7 4.8-9.4 7.6-11.4 3.8-2.6 7.9-3.1 12.3-1.3 1.9.8 3.6 1.9 4.8 3.3 1.3 1.4 2.1 3.1 2.6 5 .3 1.2.4 2.8.2 5l18.7 3c.4-7.5-1-13.8-4.3-18.8s-8.9-9.1-16.8-12.2c-10.2-4-19.1-4.3-26.9-.9-7.8 3.4-13.7 10.3-17.9 20.8-3.1 7.8-4 14.9-2.9 21.1 1.3 6.2 3.7 11.2 7.2 14.9zM-1.5 933.2c-1.9 1.7-4.7 2.5-8.2 2.5-4.8 0-8.5-1.6-11-4.9-1.6-2-2.6-5-3.1-8.8l-23.8 1.5c.7 8.2 3.7 14.9 9 20.2s14.8 7.9 28.5 7.9c7.8 0 14.3-1.1 19.5-3.4 5.2-2.3 9.2-5.6 12-10 2.9-4.4 4.3-9.1 4.3-14.3 0-4.4-1.1-8.4-3.2-12s-5.6-6.5-10.3-9c-4.7-2.4-12.5-4.8-23.4-7.1-4.4-.9-7.2-1.9-8.4-3-1.2-1-1.8-2.2-1.8-3.5 0-1.8.7-3.3 2.2-4.5s3.6-1.8 6.6-1.8c3.5 0 6.3.8 8.3 2.5s3.3 4.3 4 7.9l23.5-1.4c-1-8.4-4.3-14.5-9.7-18.3s-13.3-5.8-23.6-5.8c-8.4 0-15 1.1-19.9 3.2-4.8 2.1-8.4 5-10.9 8.7-2.4 3.7-3.6 7.6-3.6 11.8 0 6.3 2.4 11.5 7.1 15.6s12.5 7.3 23.4 9.8c6.7 1.5 10.9 3 12.8 4.7 1.8 1.7 2.7 3.5 2.7 5.6-.1 2.2-1 4.2-3 5.9zm-130.3 51.1l-15.6-19.7 9-7.1c6.6-5.2 10.4-10.7 11.2-16.2.8-5.6-.9-11.1-5.1-16.4-4.1-5.2-8.8-8.1-14-8.5-5.2-.5-10.8 1.6-16.7 6.3l-27.4 21.5 42.1 53.2 16.5-13.1zm-20.1-33.7l-4 3.2-9.4-11.9 4.7-3.7c3.1-2.4 5.6-3.5 7.7-3.2 2 .3 3.7 1.3 5 2.9 1.4 1.7 1.8 3.6 1.4 5.7-.5 2.2-2.3 4.5-5.4 7zm278 93.9c-5.2.6-10.7.6-13-2.5 9.3-3 35.6-12.3 36.8-26.6-19.2 1.9-68.1-5.3-102.3 1.7-25.8 5.3-41.5 19.9-40.9 39.9 10.5-4.2 28.6 1.4 43.8 4.8-1.5-3.5-2.2-5.6-1.1-7.1 7.5 6.1 15.9 13.1 34.4 10-2.7-2.5-4.5-5.1-3.6-7.6 18.4 1.3 36.7-2.5 45.9-12.6zm-48.4 8.7l-.9 2.7c-.7 2.1-.5 4.1.3 5.9-4.5.2-8.9-.3-13.2-2-4.7-1.8-8.3-4.8-12.1-7.9l-3-2.5-2.3 3.1c-1 1.3-1.3 2.8-1.3 4.2-10.6-2.6-24.4-6-34.6-4.5 2.1-18.5 20.6-28 37.8-31.5 11.7-2.4 24.3-3 36.3-3.1 12.5-.1 25 .6 37.5 1.1 5.3.2 10.5.5 15.8.6 2.3 0 4.7.1 7 0-5.4 9.4-24.8 16.5-32.8 19.1l-4.8 1.6 3 4.1c1.4 1.9 3.3 3 5.5 3.7-10.4 5.4-24.7 6.3-35.2 5.6l-3-.2z"/><path d="M23.2 1131.8c-8.9-13.5-24.2-24.9-26.3-40.2-4.3-30.2 4.8-67.8 18-87.4-9.5-1.7-16.4 1.6-20.9 8-2.2-7-4.1-14.4-9.6-21.5-5.9 7.7-9.7 15-12.5 22.3-9.2-5.7-17.3-5.5-24.4-5.6 9.5 14.2 15.6 29.6 18.5 45.3-15.6-20.3-31.8-41-76-41.1-21.4 0-43.4-3.3-66.9-11.5 8.2 19.9 24.6 28.7 39.9 35.9-3 1.8-7.2 1.8-10.4 1.9 7.7 7.8 22.8 13.1 39.5 15.3-1.1 1.9-5.5 3-9.7 4 10.1 5.8 30.9 4.6 41.7 2.5-1.1 2.3-3.7 3.2-6.2 4 8.7 2.9 22.7-3 31.9-2.6 6.8.3 12.7 2.9 17.9 6.8.4 7.4.2 14.8-.7 22.1-.7 6-7.8 10.6-7.2 16.6.6 6.4 7.2 11.6 10.8 16.9 6.1 8.9 8.9 19.9 14.5 26.2.6.6 1.7 3.9 4.3 6.3 1.9 1.7 5.2 1.2 5.4-.3.4-2.9-2.5-6-3.9-8.1 1 1.1 4.6 6.8 5 7.4 1.5 2.5 6.8 2.4 6.8-.7 0-2.4-1.4-5.7-4.1-9 2.1 2.1 4.2 6.4 6.1 7.5 3.2 2 6.3.4 7-.8 1.1-1.9-1.1-6.9-5-10.3 2.9 2.5 5 6.6 6.1 7.8 4.4 4.5 8.6-.3 8.6-2.7 0-1.2-.3-2.1-.7-2.9l-.3-.6c-1.1-1.7-2.7-2.7-3.5-4 .6.9 2 2.2 2.8 3 .4.4.5.7.7 1l.3.6c.1.2.3.3.5.6 1.1 1.1 2.7 2.3 4 2.6 4.7.9 7.5-3.9 6.6-6.9-1.1-4.8-5.4-3.6-8.6-8.4zm-72.9-74.2c-5.1-.2-10.8 1.1-15.8 2-1.9.4-4.2.8-6.5 1.1l2.8-5.9-7.1 1.3c-7.4 1.4-20.1 2.4-30 .8.7-.6 1.4-1.2 1.8-2l2.6-4.7-5.4-.7c-9-1.2-21.5-3.9-30.5-9.1 1-.3 2-.8 2.9-1.3l5.8-3.6-6.2-2.9c-14.1-6.6-26.3-13.6-34.2-26.3 19.4 5.9 39.2 8.9 59.6 8.9 17.6 0 34.3 3.3 48.8 13.8 11 8 18.7 18.6 26.9 29.3.5 1.6.9 3.2 1.4 4.8-5-3.2-10.6-5.2-16.9-5.5zm42.2 95.6s1 0 1.3.9c.3.8-1.9 1.9-3 1-1-1 .6-1.6 1.7-1.9zm7.6-1.2s1.4 0 1.7 1.1c.4 1.1-2.5 2.5-4 1.3-1.4-1.2.8-2 2.3-2.4zm8.6-3.6s1.6.1 2 1.3c.4 1.2-2.9 2.9-4.5 1.5-1.7-1.5.7-2.4 2.5-2.8zm10.9-3.7c.5 1.6-3.7 3.7-5.8 1.9-2.1-1.8 1-3 3.3-3.5 0-.1 2 0 2.5 1.6zm10.4-4.1c-.6 1.8-3.6 2.7-4.9 2.1-1.3-.6-3.5-3.1-3.5-3.1s3.9-2.7 5.8-2.2c1.8.5 3.2 1.4 2.6 3.2z"/><path d="M95 840.7h-211.9c-23.6 37.6-58.5 69-100 85.1 18.9 139.6 87 251.3 206 327.3 119-76.1 187.1-187.8 206-327.3-41.6-16.1-76.5-47.5-100.1-85.1zm-24.8 233.2v98.3c-23.5 25-50.6 47.6-81.2 67.8-30.6-20.2-57.7-42.8-81.2-67.8v-98.3h-13.9v82.7c-52.9-62.1-85.6-137.3-98.7-223.9 38.3-16.9 70.7-46.1 93.9-80.9h4.9v153.1h13.9V851.8H70.3v153.1h13.9V851.8h4.9c23.1 34.8 55.5 64 93.9 80.9-13.1 86.6-45.8 161.8-98.7 223.9v-82.7H70.2z"/><path d="M10.3 1149.8c-.2-.6-.9-1-1.6-1-.9.2-3.7.9-2.3 2.1 1.3 1.1 4.2-.2 3.9-1.1zm3.8-3.5c1.8 1.5 5.6-.2 5.2-1.5-.3-.9-1.3-1.4-2.1-1.4-1.2.3-5 1.2-3.1 2.9zm13.1-8.5c-1.2-.3-3.8 1.1-5.1 1.9.9.9 2.2 2.2 3.1 2.7 1.3.7 3.9-.5 4.4-1.9.7-1.7-1-2.3-2.4-2.7z"/></g></svg>