<svg xmlns="http://www.w3.org/2000/svg" width="552.2" height="643.5" viewBox="0 0 552.2 643.5"><path fill="#221F1F" d="M247.2 31C185.3 98.1 113.8 137.9 34.6 149.1l-31.4 4.4L1 185.2c-3.6 51.5 3 106.2 19 158.3l.3.9c38.7 125.4 125.4 230.9 238 289.5l18.4 9.6 18.4-9.5c112.6-58.6 199.4-164.2 238.1-289.6l.3-1.1v-.2c15.2-51.4 21.2-106 17.6-157.8l-2.2-31.6-31.4-4.4C438.6 137.9 369 99.2 304.7 30.7L275.8 0l-28.6 31z"/><path fill="#FFF" d="M258.3 41.2C194 111 119.4 152.3 36.7 164.1l-19.3 2.7-1.4 19.5c-3.5 49.6 2.9 102.5 18.4 152.8l.3.9c37.5 121.6 121.6 223.9 230.6 280.6l11.5 6 11.4-5.9c109-56.8 193.1-159 230.6-280.6l.3-1v-.2c14.7-49.7 20.5-102.4 17-152.5l-1.4-19.5-19.3-2.7c-82.5-11.7-155-51.9-221.8-123l-17.8-18.9-17.5 18.9z"/><path fill="#221F1F" d="M495.1 331.9H57.5l.3.9c35.7 115.5 115.4 212.6 218.7 266.3l.3.2.3-.2c103.3-53.8 183-150.9 218.7-266.3l.3-.9h-1z"/><path fill="#EC3325" d="M495.7 332.7c14.4-48.2 19.6-98.4 16.3-144.7-87.3-12.4-165.6-55.4-236-130.4-69.1 75-148.6 118-236 130.4-3.3 46.3 2.6 96.5 17.6 144.7h438.1z"/><path fill="#FFF" d="M105.3 204.3l50.2-26.1c-.7 15.6 1.3 34.5 8.5 49.5l48.9 105.6v59.3l-73-151.9c-7.2-14.3-22.2-24.7-34.6-36.4m346.8 4.5l-50.2-26.1c.7 15.6-1.9 34.5-8.5 49.5l-78.2 176.6 30.7-4.6 71.7-159c6.5-14.2 22.1-24.7 34.5-36.4M208.3 503.4h45V348.3h46.9c9.8 0 15.6 12.4 22.8 18.9l.6-63.9c-7.8 5.9-13 16.9-22.8 16.9h-46.9l-.7-63.2-30 9.1V478c.1 9.8-9.7 17-14.9 25.4M224 218.6v-43c0-9.8-9.1-17-15-24.8h139.5v43c-11.1-7.2-20.2-20.2-32.6-20.2H254v39.1l-30 5.9zm95.1 285.5h46.3v-43c-2 2-3.3 19.5-37.2 19.5l-9.1 23.5z"/><path fill="#FFF" d="M263.7 463.7v42.4l22.2 43.6 43-97.1-26.7.6-19.6 49.6m-69.7-98.4c-35.9-15.6-69.1-41.7-92.6-71.7 7.2-15 21.5-30 33.9-37.2l-14.3-26.1c-17.6 13-36.5 27.4-45 46.9-3.3 7.2-9.1 12.4-15 16.3 5.9 3.3 9.8 2.6 15.7 11.1 28.7 41.1 72.3 73 117.3 89.3v-28.6zm-32-161.7l13 25.4c60-26.7 118.6-27.4 172.7-7.2l10.4-22.8c-58.5-25.4-130.2-23.4-196.1 4.6m239.9 17.6l-9.8 22.8 18.2 9.1c5.2 2 7.2 9.1 10.4 13.7l16.3-35.8c-5.9 0-12.4 2.6-17.6 0l-17.5-9.8zM263.1 414.1v24.8c65.8 14.3 127.8-5.2 185.1-39.1l-17-25.4c-40.4 34.5-109.5 51.5-168.1 39.7"/></svg>