<svg id="Layer_1" xmlns="http://www.w3.org/2000/svg" viewBox="-183.2 313.2 141.2 166.8"><style>.st0{fill:#FFFFFF;} .st1{fill:none;stroke:#9EA176;stroke-width:0.9293;stroke-linecap:round;stroke-linejoin:round;stroke-miterlimit:2.6131;} .st2{fill:#C6232D;} .st3{fill:#9EA176;} .st4{fill:#355170;} .st5{fill:none;stroke:#FFFFFF;stroke-width:0.9492;stroke-linecap:round;stroke-linejoin:round;stroke-miterlimit:2.6131;}</style><path class="st0" d="M-168.3 326.7l24.1-7.2 31.6 152 45.1-149.3 17.8 6.1 3.7 68.9-32.5 56.5-34.1 25-43.2-32.9-19.1-36.1-5.5-38.2 5.2-42.2z"/><path class="st1" d="M-158.1 345.4v.1m14 18.1h.4"/><path class="st2" d="M-58.5 383.3v-.6c.9-16.9-1.5-36.1-7.3-57.5-31.7-10.3-62.9-10.3-93.7-.1-10.5 39-9.8 72 2.3 99 .1.2.2.5.4.7 0 0 1.1 2 3.2 6.2.3.6.7 1.2 1 1.8 8.9 15.8 22.3 29.5 40 40.8 29.8-19 47.3-44.2 52.7-75.7 0-.4.1-.7.2-1.1l1.2-13.5z"/><path class="st3" d="M-48.8 326.6c-42.7-17.9-85.3-17.9-127.6.1-19.1 70.4 2.2 121.5 63.9 153.3 61.5-31.9 82.8-83.1 63.7-153.4zm-14.1-.5c3.5 1.2 6.9 2.5 10.2 3.9v.1c5 19.2 7 36.9 5.8 53.2h-52.3c-4-2.4-8.5-3.6-13.4-3.6h-.9c-4.6.1-8.8 1.3-12.5 3.5h-25.2c-1.7 0-3.2.6-4.3 1.7-1.1.9-1.7 2.1-1.9 3.5h-2.7c-2.4 2.5-2.4 5 0 7.4h2.7c.1 1.3.7 2.6 1.9 3.7s2.6 1.6 4.1 1.7h.2l12.4-.6c-.4 1.8-.6 3.7-.6 5.7 0 1.3 0 2.5.2 3.5-4.6 6.1-10.4 11.1-17.6 14.9l-2.1 1.1c-1.7.8-3.6 1.6-5.8 2.4-15.7-26.6-18.4-59.3-7.9-98.3 3.2-1.4 6.5-2.6 9.8-3.8l3.3-1.1c30.8-10.2 62-10.1 93.7.1l2.9 1zm-57.8 80.5c0 .7 0 1.3.1 1.8l-11.2 6.5c-1.1-2.5-1.7-5.2-1.7-8.2 0-3 .6-5.8 1.7-8.3l11.2 6.5c-.1.5-.1 1.1-.1 1.7zm7.9-3.4c.5 0 1 0 1.4.2.2 0 .5.2 1 .6l.2.2c.5.5.8 1.1 1 1.9v1.2c-.1.6-.5 1.2-.9 1.7-.1 0-.1 0-.2.1-.4.3-.8.6-1.2.7-.4.1-.7.1-1.1.1l-1-.1c-.5-.1-.9-.4-1.2-.7-.1 0-.1-.1-.1-.1-.6-.6-.9-1.1-.9-1.7l-.1-.7v-.5c.1-.8.4-1.4 1-1.9 0-.1 0-.1.1-.1.4-.3.7-.6 1-.6.1-.2.5-.3 1-.3zm-2.4-4.3c-1.2.4-2.2 1-3 1.9l-11.1-6.5c.7-1 1.4-1.7 2-2.3 3.4-3.4 7.4-5.4 12.2-5.9v12.8h-.1zm-12.1 22.4c-.8-.8-1.4-1.5-2-2.3l11.2-6.5c.9.8 2 1.4 3 1.8v12.9c-4.8-.5-8.8-2.5-12.2-5.9zm-6.7 1.4c.5.6 1.2 1.5 2.3 2.6 5.3 5.2 11.5 7.8 18.9 7.8 7.3 0 13.7-2.6 18.9-7.8 5.2-5.2 7.9-11.6 7.9-18.9 0-1 0-2-.1-3l10.8-2.3c2.1-.6 3.3-1.8 3.5-3.5l23.2-1.6c-6.4 33.7-27.7 60-64.1 79-.1 0-.1 0-.1.1l-.4-.2c-21.7-11.6-38-25.6-48.8-42.1 1.7-.2 3.7-.6 6-1.2l2.2-.6c6-1.7 12.6-4.5 19.8-8.3zm23.6 4.6v-12.9c1.3-.4 2.3-1 3.2-1.8L-96 419c-.4.5-1.1 1.3-2 2.3-3.5 3.5-7.6 5.5-12.4 6zm14.4-33l-11.2 6.5c-1-.9-2-1.5-3.2-1.9V386c4.7.5 8.9 2.4 12.4 5.9 1 1.1 1.6 1.8 2 2.4zm2.4 4.1c.9 2 1.4 4.2 1.6 6.5v1.8c0 3.1-.6 5.9-1.7 8.4l-11.2-6.6.1-.6.1-1.3c0-.5-.1-1.1-.2-1.8l11.3-6.4z"/><path class="st3" d="M-104.7 408l12.7-3.1c-.2-2.3-.7-4.5-1.6-6.5l-11.2 6.5c.1.7.2 1.3.2 1.8l-.1 1.3zm-2.5-7.3l11.2-6.5c-.4-.6-1.1-1.3-2-2.3-3.5-3.5-7.7-5.5-12.4-5.9v12.8c1.2.4 2.3 1 3.2 1.9zm-3.2 3.3c-.5-.4-.8-.6-1-.6-.4-.2-.9-.2-1.3-.2h-.1c-.6 0-.9.1-1.1.2-.3.1-.7.3-1 .6-.1 0-.1 0-.1.1-.6.5-.9 1.1-1 1.9v.5l.1.7c0 .6.4 1.2.9 1.7 0 0 0 .1.1.1.3.3.7.6 1.2.7l1 .1c.4 0 .7 0 1.1-.1.4-.1.7-.4 1.2-.7 0-.1.1-.1.2-.1.5-.6.8-1.1.9-1.7V406c-.1-.8-.5-1.4-1-1.9l-.1-.1zm-7.8-3.2c.8-.9 1.9-1.5 3-1.9V386c-4.7.5-8.8 2.5-12.2 5.9-.6.6-1.3 1.3-2 2.3l11.2 6.6zm-2.5 5.8c0-.6 0-1.2.1-1.8l-11.2-6.5c-1.1 2.5-1.7 5.2-1.7 8.3 0 3 .6 5.7 1.7 8.2l11.2-6.5c-.1-.4-.1-1-.1-1.7z"/><path class="st4" d="M-56.7 396.1c-5.6 32.4-24.3 58.7-56 78.9 36.3-19 57.7-45.3 64.1-79.3l-8.1.4zm-99.5 35.1l-5.8 1.6c10.9 16.5 27.1 30.6 48.8 42.1-19.1-12.2-33.4-26.8-43-43.7zM-52.8 330c-3.3-1.4-6.6-2.6-10.2-3.9 6 20.7 8.5 39.9 7.6 57.6l8.3-.1c1.3-16.5-.6-34.3-5.7-53.6zm-110.1-3.9c-3.3 1.2-6.6 2.4-9.8 3.8-10.4 39-7.7 71.9 8.1 98.7l5.8-2.4c-13.7-27.7-15.1-61.1-4.1-100.1z"/><path class="st0" d="M-149.4 340.4l-8.6 1.2c.6 1.1.6 2.4 0 3.8v.1c-2 6.4-4.3 12.4-6.9 18.1h6.2l1.1-4.6h5.9l.8 4.6h6.9c-2.2-7.3-4-15.1-5.4-23.2zm-3.2 14.7h-3.9l2.5-7.5 1.4 7.5z"/><path class="st1" d="M-154 347.6l1.4 7.5h-3.9l2.5-7.5zm-4.1-2.1c-2 6.4-4.3 12.4-6.9 18.1h6.2l1.1-4.6h5.9l.8 4.6h6.9c-2.1-7.3-3.9-15.1-5.3-23.2l-8.6 1.2c.6 1.1.6 2.4 0 3.8"/><path class="st0" d="M-137.2 363.6c-1.1-9.2.6-13.4 5.2-12.7l.4-4.2c-1.8-.7-3.8.3-5.9 3.2l.1-2.8-5.6.2c.5 5.7.3 11.1-.7 16.3h6.5z"/><path class="st1" d="M-132 350.9c-4.6-.7-6.3 3.5-5.2 12.7h-6.5c1-5.2 1.2-10.6.7-16.3l5.6-.2-.1 2.8c2.1-2.9 4.1-3.9 5.9-3.2l-.4 4.2z"/><path class="st0" d="M-70 363.6h6.5c-1.4-6.8-2.4-14.2-3-22l-6.1-1.2c1.7 7.6 2.5 15.4 2.6 23.2z"/><path class="st1" d="M-63.5 363.6c-1.4-6.8-2.4-14.2-3-22l-6.1-1.2c1.7 7.6 2.6 15.3 2.6 23.1h6.5v.1z"/><path class="st0" d="M-103.9 360.5l-1.6-1.8c-3.5 2.7-6 2.3-7.5-1.3 2-.8 5-2 9-3.7 0-1.9-.6-3.7-1.8-5.4-1.3-1.7-3-2.6-5.2-2.6-2.3 0-4.3.8-6.1 2.6-1.7 1.8-2.6 3.9-2.6 6.5 0 2.5.8 4.6 2.6 6.4 1.3 1.3 2.6 2.1 4.2 2.5h4.2c1.5-.4 2.9-1.2 4.2-2.5l.6-.7zm-7.5-11.7c1.8.5 2.4 1.6 1.8 3.5l-4.3 1.8c-.3-2.9.5-4.7 2.5-5.3z"/><path class="st1" d="M-109.6 352.3c.6-1.9 0-3-1.8-3.5-2 .6-2.8 2.3-2.5 5.2l4.3-1.7zm5.6 1.4c-4 1.6-7 2.8-9 3.7 1.5 3.6 4 4 7.5 1.3l1.6 1.8-.7.7c-1.3 1.3-2.6 2.1-4.2 2.5-.8.1-1.5.2-2.1.2-.7 0-1.4-.1-2.1-.2-1.5-.4-2.9-1.2-4.2-2.5-1.7-1.8-2.6-3.9-2.6-6.4 0-2.6.8-4.7 2.6-6.5 1.8-1.8 3.8-2.6 6.1-2.6s4 .9 5.2 2.6c1.3 1.7 1.9 3.5 1.9 5.4z"/><path class="st0" d="M-87.4 363.6c-.7-4.1-1-8.5-.9-13.2-2.4-4.6-5.7-5.1-9.8-1.5l-.5-2.3-5.2-.1c1.3 4.7 1.5 10.5.8 17.2h6c-.6-3.6-.7-7.7-.5-12 1.3-2.1 2.6-2.1 3.6 0 .3 4 .3 8 0 12h6.5v-.1z"/><path class="st1" d="M-97 363.6h-6m15.6 0h-6.4m0 0c.3-3.9.3-7.9 0-12-1.1-2.1-2.3-2.1-3.6 0-.3 4.3-.1 8.4.5 12m-6.1 0c.7-6.7.5-12.5-.8-17.2l5.2.1.5 2.3c4.1-3.6 7.3-3 9.8 1.5-.1 4.7.2 9.2.9 13.2"/><path class="st0" d="M-120.9 350.1v-3.3c-4.8-1.8-8.5-.8-11 2.8l-.1.1c-1.2 2-.7 3.7 1.4 5.1 4.5 1.8 6.4 3.2 5.8 4.2l-.1.2c-1.8 1.9-4.4 1.3-7.8-1.6l-.1 4.6c1.3.6 2.4 1 3.3 1.3 1.8.5 3.5.5 5.1 0 1.4-.5 2.8-1.5 4.2-2.9 2.1-3.7.2-6.7-5.7-9.1-1.9-.8-1.9-1.6 0-2.3 1.2-.1 2.8.1 5 .9z"/><path class="st1" d="M-124.9 359.3c-1.8 1.9-4.4 1.3-7.8-1.6l-.1 4.6c1.3.6 2.4 1 3.3 1.3 1.8.5 3.5.5 5.1 0 1.4-.5 2.8-1.5 4.2-2.9 2.1-3.7.2-6.7-5.7-9.1-1.9-.8-1.9-1.6 0-2.3 1.2-.2 2.8 0 5 .8v-3.3c-4.8-1.8-8.5-.8-11 2.8l-.1.1c-1.2 2-.7 3.7 1.4 5.1 4.5 1.8 6.4 3.2 5.8 4.2"/><path class="st0" d="M-86.2 347.6c0 1 0 2.5.1 4.4 4.4-2.7 6.9-2.6 7.5.3-6.4 1.3-9.2 3.6-8.5 7 .5 2.3 1.4 3.7 2.6 4.3 1.6.7 3.3.7 5.4 0l1.5-1 1.1 1.1h5.2v-.1c-1.2-3.3-1.8-7.2-1.9-12-1.1-3.9-5.5-5.3-13-4zm8 7.7l.2 4.6c-2.3 1-3.6.4-3.9-1.8.5-2 1.6-3 3.5-2.8h.2z"/><path class="st1" d="M-86.1 352c4.4-2.7 6.9-2.6 7.5.3-6.4 1.3-9.2 3.6-8.5 7 .5 2.3 1.4 3.7 2.6 4.3 1.6.7 3.3.7 5.4 0l1.5-1 1.1 1.1h5.2c-1.2-3.3-1.8-7.3-1.9-12.1-1.3-3.9-5.7-5.3-13.2-4l.3 4.4zm7.9 3.3l.2 4.6c-2.3 1-3.6.4-3.9-1.8.5-2 1.6-3 3.5-2.8"/><path class="st5" d="M-56.3 383.3h-43c-4-2.4-8.5-3.6-13.4-3.6h-.9c-4.6.1-8.8 1.3-12.5 3.5h-25.2c-1.7 0-3.2.6-4.3 1.7-1.1.9-1.7 2.1-1.9 3.5h-2.7c-2.4 2.5-2.4 5 0 7.4h2.7c.1 1.3.7 2.6 1.9 3.7s2.6 1.6 4.1 1.7h.2l12.4-.6c-.4 1.8-.6 3.7-.6 5.7 0 1.3 0 2.5.2 3.5-4.5 6-10.2 10.9-17.3 14.7-.5.3-1.1.7-1.6.9m37.5-18.8c0 .7 0 1.3.1 1.8l-11.2 6.5c-1.1-2.5-1.7-5.2-1.7-8.2 0-3 .6-5.8 1.7-8.3l11.2 6.5c-.1.5-.1 1.1-.1 1.7zm7.9-3.4c.5 0 1 0 1.4.2.2 0 .5.2 1 .6l.2.2c.5.5.8 1.1 1 1.9v1.2c-.1.6-.5 1.2-.9 1.7-.1 0-.1 0-.2.1-.4.3-.8.6-1.2.7-.4.1-.7.1-1.1.1l-1-.1c-.5-.1-.9-.4-1.2-.7-.1 0-.1-.1-.1-.1-.6-.6-.9-1.1-.9-1.7l-.1-.7v-.5c.1-.8.4-1.4 1-1.9 0-.1 0-.1.1-.1.4-.3.7-.6 1-.6.1-.2.5-.3 1-.3zm-2.4-4.3c-1.2.4-2.2 1-3 1.9l-11.1-6.5c.7-1 1.4-1.7 2-2.3 3.4-3.4 7.4-5.4 12.2-5.9v12.8h-.1zm-12.1 22.4c-.8-.8-1.4-1.5-2-2.3l11.2-6.5c.9.8 2 1.4 3 1.8v12.9c-4.8-.5-8.8-2.5-12.2-5.9zm-27.8 10c.7-.2 1.2-.3 1.8-.5 5.8-1.7 12.3-4.5 19.4-8.2.5.6 1.2 1.5 2.3 2.6 5.3 5.2 11.5 7.8 18.9 7.8 7.3 0 13.7-2.6 18.9-7.8 5.2-5.2 7.9-11.6 7.9-18.9 0-1 0-2-.1-3l10.8-2.3c2.1-.6 3.3-1.8 3.5-3.5l14.4-1m-53.1 30.8v-12.9c1.3-.4 2.3-1 3.2-1.8L-96 419c-.4.5-1.1 1.3-2 2.3-3.5 3.5-7.6 5.5-12.4 6zm14.4-33l-11.2 6.5c-1-.9-2-1.5-3.2-1.9V386c4.7.5 8.9 2.4 12.4 5.9 1 1.1 1.6 1.8 2 2.4zm2.4 4.1c.9 2 1.4 4.2 1.6 6.5v1.8c0 3.1-.6 5.9-1.7 8.4l-11.2-6.6.1-.6.1-1.3c0-.5-.1-1.1-.2-1.8l11.3-6.4z"/></svg>