<svg id="svg2" xmlns="http://www.w3.org/2000/svg" viewBox="-116 155 378 483"><style>.st0{fill:#FFFFFF;stroke:#FFE501;stroke-width:11.5;} .st1{fill:#FF0D00;} .st2{fill:#13007C;} .st3{fill:#FFFFFF;} .st4{fill:#4B1F17;} .st5{fill:#2A4C2C;}</style><g id="layer2"><path id="path1317" class="st0" d="M230.6 511.3L73.5 630.1l-157-118.7s-10.7-7.7-17-19.6c-6.3-11.8-8.2-27.8-8.2-27.8l-.2-301.6 365-.2-.3 299.3s-2.6 19.6-8.9 32c-6.3 12.5-16.3 17.8-16.3 17.8z"/><path id="path17078" class="st1" d="M4.7 571.1l-34.9-26.5v-92.5l34.7-35.2.2 154.2z"/><path id="path17954" class="st1" d="M51.5 606.5l.1-240.9 34.6-31.2v279.2l-12.6 9.3-22.1-16.4z"/><path id="path19706" class="st1" d="M242.2 490.4c-5.7 11.4-14.8 16.1-14.8 16.1l-13.1 10V202.8l36.2-34.9-.3 293.2c0 .1-2.3 18-8 29.3z"/><path id="path6560" class="st2" d="M-103 463.7l-.2-295.6 353.6-.2-331.1 338.4s-9.7-7.3-15.3-17.9-7-24.7-7-24.7z"/><path id="rect8309" class="st3" d="M-54 217.2h186.9L-54 408.6V217.2z"/><path id="path11806" class="st3" d="M-78 202l-12.4 9.2 4.7-14.7-12.6-9h15.5l4.6-14.8 4.9 14.7 15.5-.1-12.5 9.1 5 14.7L-78 202z"/><path id="path12681" class="st3" d="M56.7 201.4l-12.4 9.2 4.7-14.7-12.6-9h15.5l4.6-14.8 4.9 14.7 15.5-.1-12.5 9.1 5 14.7-12.7-9.1z"/><path id="path12683" class="st3" d="M191.2 201.4l-12.4 9.2 4.7-14.7-12.6-9h15.5l4.6-14.8 4.9 14.7 15.5-.1-12.5 9.1 5 14.7-12.7-9.1z"/><path id="path12685" class="st3" d="M101.4 293.5L89 302.7l4.7-14.7-12.6-9h15.5l4.6-14.8 4.9 14.7 15.5-.1-12.5 9.1 5 14.7-12.7-9.1z"/><path id="path12687" class="st3" d="M11.6 385.1l-12.4 9.2 4.7-14.7-12.6-9H6.8l4.6-14.8 4.9 14.7 15.5-.1-12.5 9.1 5 14.7-12.7-9.1z"/><path id="path12689" class="st3" d="M-78.1 476.7l-12.4 9.2 4.7-14.7-12.6-9h15.5l4.6-14.8 4.9 14.7 15.4-.1-12.5 9.1 5 14.7-12.6-9.1z"/><path id="path12691" class="st3" d="M-77.7 339.1l-12.4 9.2 4.7-14.7-12.6-9h15.5l4.6-14.8 4.9 14.7 15.5-.1-12.5 9.1 5 14.7-12.7-9.1z"/><path id="path13580" class="st4" d="M-10.5 336.8s15.8-.1 21.4.7c5.7.8 1 3.2 1 3.2h-55.2s-2.6-1.7 1.6-2.7c4.2-1 11.2-.7 11.2-.7s5.2-.4 5.7-1.5.6-3.7.6-3.7l.2-64.2 7-.2-.1 64.3s.5 1.8 1.9 3.2c1.5 1.1 4.7 1.6 4.7 1.6z"/><path id="path12693" class="st5" d="M10.7 247.3c0 12.4-14.3 22.4-31.9 22.4s-31.9-10-31.9-22.4 14.3-22.4 31.9-22.4 31.9 10 31.9 22.4z"/><path id="path13568" class="st1" d="M-36.8 241c0 1.3-1 2.4-2.3 2.4-1.3 0-2.3-1.1-2.3-2.4 0-1.3 1-2.4 2.3-2.4 1.2 0 2.3 1.1 2.3 2.4z"/><path id="path13570" class="st1" d="M-23.3 234.8c0 1.3-1 2.4-2.3 2.4-1.3 0-2.3-1.1-2.3-2.4 0-1.3 1-2.4 2.3-2.4 1.2 0 2.3 1.1 2.3 2.4z"/><path id="path13572" class="st1" d="M-13.6 244.7c0 1.3-1 2.4-2.3 2.4-1.3 0-2.3-1.1-2.3-2.4 0-1.3 1-2.4 2.3-2.4 1.3.1 2.3 1.1 2.3 2.4z"/><path id="path13574" class="st1" d="M1.7 240.3c0 1.3-1 2.4-2.3 2.4-1.3 0-2.3-1.1-2.3-2.4 0-1.3 1-2.4 2.3-2.4 1.3.1 2.3 1.1 2.3 2.4z"/><path id="path13576" class="st1" d="M-4.8 254.2c0 1.3-1 2.4-2.3 2.4-1.3 0-2.3-1.1-2.3-2.4 0-1.3 1-2.4 2.3-2.4 1.3 0 2.3 1.1 2.3 2.4z"/><path id="path13578" class="st1" d="M-25.1 254.3c0 1.3-1 2.4-2.3 2.4-1.3 0-2.3-1.1-2.3-2.4 0-1.3 1-2.4 2.3-2.4 1.3.1 2.3 1.1 2.3 2.4z"/><path id="path15329" d="M14.8 308.6c2.1 6.6.1.7 2.3 7.1-2.2-6.4 1.8.5 1.7 3.6-.1 3.1-3.1 1.5-5 2.8s-2.5 3.7-2.5 3.7l.1 3.4 1.2 3.4s3.6 4.7.9 5.5c-2.7.8-10.3-1.3-14.9-.4-2.9.6-3.7-1.2-1.2-1.9 2.2-.7 6.4.9 5.5-2.9-.9-3.8-2.5-2.5-4.1-4.5-1.6-2-1.7-2.3-2.5-5.4-.8-3.1 1.3-2.9-.6-7.4-.6-1.5-2.8-1.8-3.8-3.4-2.1-3.2-2.8-5.9-3.6-6.5-.8-.7-5.3-1.5-5.3-1.5l-.1-24.3s5.1 7 7.6 8.8c2.5 1.8 2.5-1.4 2.5-1.4l.5-5.6.4-6.3s-1.7-.4-2-2.3c-.3-1.9-.8-5.6.7-5.9 1.6-.2 4.8 3.9 4.8 3.9s4.3-1.4 6.7-.6c2.4.8 3 3.7 3 3.7s4.3-1.7 4.8-.7c.4.7.2 3-2.2 7.6-.9 1.7-2 5-1.8 7.4.9 8.8 4.8 13.5 6.9 20.1z"/><path id="rect18830" class="st1" d="M132.8 287.5l34.7-35.1v299.4l-34.7 26.3V287.5z"/></g></svg>