<svg xmlns="http://www.w3.org/2000/svg" viewBox="-50.1 228 559 566.1"><path d="M308.6 232.7c-26.1 18.1-51.2 26.5-79.1 26.5s-53-8.4-79.1-26.5l-6.8-4.7-6.9 4.6c-29.5 19.5-53.4 23.1-89.9 23.1-12.6 0-26.1-2.4-39.1-6.9l-8.7-3-5.3 7.5c-2.8 4-4.9 6.5-6.9 9-2.5 3-4.8 5.9-7.6 10.3l-4.4 7.1 5 6.7c22.3 29.7 30.7 60.2 30.7 88.9 0 53.6-29.3 100.9-52.3 124.8l-8.3 8.6 8.5 8.5c4.5 4.5 12.6 12.9 19.3 20 0 .3-.3 3.7-.3 3.7l-.1.7c-.3 5.2-.4 10.3-.4 15.4 0 54.4 16.1 99.6 47.9 134.6 36.8 40.5 94.4 64.7 162.5 68.4 16.9 15.4 34.1 28.2 34.9 28.7l7.3 5.4 7.3-5.4c.8-.6 17.8-13.3 34.7-28.7 68.1-3.8 125.7-27.9 162.5-68.4 31.8-35 47.9-80.2 47.9-134.6 0-5-.1-10.2-.4-15.4v-.1l-.1-.7s-.2-3.3-.3-3.6c6.2-6.5 14.6-15.2 19.3-20l8.5-8.5-8.3-8.6c-23.1-23.9-52.3-71.3-52.3-124.8 0-28.7 8.4-59.2 30.7-88.9l5-6.7-4.4-7.1c-2.8-4.4-5.1-7.3-7.6-10.3-2-2.4-4.1-5-6.9-9l-5.3-7.5-8.7 3c-13 4.5-26.6 6.9-39.1 6.9-36.5 0-60.5-3.6-89.9-23.1l-6.9-4.6-6.6 4.7z"/><path fill="#E2B900" d="M229.6 778.8s-19.5-14.4-37-30.9C77.6 743.1-17.6 678.6-10.3 542c.4-3.6.1-3.4.7-9.5-6.6-7-17.5-18.4-23.3-24.1C8.3 465.7 56.5 367.8-10.3 279c4.4-7.1 7.6-9.4 14.1-18.7 13.4 4.6 28.2 7.5 43.1 7.5 38.3 0 64.5-3.8 96.6-25.1 25.4 17.7 53 28.7 86 28.7s60.6-11 86-28.7c32.2 21.3 58.3 25.1 96.6 25.1 14.9 0 29.8-2.9 43.1-7.5 6.5 9.3 9.7 11.6 14.1 18.7-66.8 88.8-18.7 186.7 22.6 229.5-5.8 5.8-16.7 17.1-23.3 24.1.6 6.1.3 5.9.7 9.5 7.3 136.6-87.9 201.1-202.9 205.9-17.4 16.4-36.8 30.8-36.8 30.8z"/><path d="M11.5 534H9.9l-.7 5.9-.5 3.8c-2.7 52.6 10.4 95.1 39 126.4 32.7 35.9 85.8 56.4 153.4 59.2h1.1c20.3.1 39.5.2 55.8 0 67.7-2.8 120.7-23.3 153.5-59.2 28.5-31.3 41.7-73.8 39-126.3 0-.1-.5-3.9-.5-3.9l-.7-5.8-1.6-.1H11.5z"/><path fill="#004B95" d="M13.1 537.6c-.2 1.3-.3 2.8-.3 2.8l-.5 3.5c-.2 4.4-.3 8.7-.3 12.9 0 45.6 12.9 82.8 38.4 110.8 6.1 6.7 12.9 12.8 20.4 18.4V537.6H13.1zm433.7 6.4l-.5-3.6s-.2-1.5-.3-2.8h-57.7V686c7.5-5.6 14.3-11.7 20.4-18.4 25.5-28 38.4-65.2 38.4-110.7 0-4.2-.1-8.5-.3-12.9z"/><path fill="#A4234B" d="M134.3 537.6H70.8V686c17.6 13.1 38.9 23 63.5 29.8V537.6zm190.5 0v178.1c24.6-6.7 45.9-16.7 63.5-29.8V537.6h-63.5z"/><path fill="#004B95" d="M168.7 629c0-22 11.7-41.2 29.1-51.9v-39.5h-63.5v178.1c19.3 5.3 40.5 8.5 63.5 9.7v-44.5c-17.5-10.7-29.1-29.9-29.1-51.9zm92.6-91.4v39.5c17.5 10.7 29.1 30 29.1 51.9s-11.7 41.2-29.1 51.9v44.5c23-1.2 44.3-4.4 63.5-9.7V537.6h-63.5z"/><path fill="#A4234B" d="M261.3 577.1v-39.5h-63.5v39.5c9.2-5.7 20.1-8.9 31.8-8.9 11.6-.1 22.4 3.2 31.7 8.9zm-63.5 103.8v44.5c1.1.1 2.2.1 3.4.2h1.1c20.3.1 39.4.2 55.6 0 1.2 0 2.3-.1 3.4-.2v-44.5c-9.2 5.7-20.1 8.9-31.8 8.9-11.6.1-22.5-3.2-31.7-8.9z"/><path fill="#E2B900" d="M198.5 640.1c-11-10-11-30.4-8.1-44 .8-3.8 1.9-7.5 2.9-11.7-12.9 10.5-21.2 26.6-21.2 44.6 0 7.6 1.5 14.9 4.2 21.5 1 .1 2 .2 3 .2 8.5 0 15.4-3.9 19.2-10.6zm59.1 4.3c-1.9 9.6-12.2 16.8-21.9 22.6-10 6-26.1 9-38.3 9.6 9.2 6.2 20.2 9.8 32.1 9.8 21.7 0 40.5-12 50.3-29.7-1.7-14.1-15.1-15.8-22.2-12.3z"/><path fill="#E2B900" d="M193 673.4c12 .1 30.4-2.9 41-9.2 13.6-8.1 24.3-16.8 19.2-28.9-2.5-6.1-11-13.1-22-5.4-.7 9-11.8 16.9-19.8 15.9-4-.5-7.4-1.8-10.2-3.6-4.5 7.7-12.5 12-22 12h-1.4c3.7 7.4 8.9 13.9 15.2 19.2zm36.4-80.2c9.5-3.9 22.7 1.2 32.7 6.8 9.5 5.3 19.4 15.2 24.8 25.5-1.8-30-26.5-53.7-56.9-54-9 6-7.8 17.2-.6 21.7z"/><path fill="#E2B900" d="M227.8 629.9c-11.8-8.6-11-22.1-6-30.1 1.2-2 2.7-3.5 4.3-4.7-6.8-5.5-8.2-16.1-1.6-23.3-9.9.9-19.1 4.2-26.9 9.5-2.5 10.8-5.7 20.6-5.5 31.9.2 15.2 6.5 27.6 19.8 29.3 6.2.7 15.2-5.9 15.9-12.6z"/><path fill="#E2B900" d="M286.8 634.3c-3.3-11.9-15.1-25-26.3-31.3-13.9-7.8-29.1-12-35.7-1.4-4.3 6.8-4.9 18 4.8 25.3 13.2-9.1 23.8-.3 26.8 7 1 2.3 1.5 4.6 1.6 6.7 7.8-2.7 20.5-1 24.4 11.2 2.3-5.4 3.8-11.3 4.4-17.5z"/><path d="M177.2 467.7H137v56.5h12.2v-23.3h16.7V489h-16.7v-9.2h28.5v-12l-.5-.1zm23.3 28.3c0 17.7 9.7 29.1 24.8 29.1 9.8 0 16.9-4.3 21-12.8l.2-.5-10.3-6.1-.3.5c-2.9 4.9-5.7 6.7-10.3 6.7-7.5 0-12.5-6.8-12.5-16.9 0-10.5 4.8-16.9 12.4-16.9 4.5 0 7.6 1.9 9.6 5.7l.3.5 11.3-5.2-.3-.5c-4-8.2-11.2-12.6-20.8-12.6-14.7-.1-25.1 11.8-25.1 29zm114.3-2.4c3.4-2.4 5.4-6.2 5.4-10.7 0-9.5-6.8-15.2-18.1-15.2h-26v56.5h25.7c12.7 0 20.3-6.9 20.3-18.4 0-5.5-2.7-9.8-7.3-12.2zm-26.7-14.5h13.5c5.5 0 6.2 2.5 6.2 4.7 0 3.1-1.8 4.6-5.6 4.6h-14c-.1-1-.1-8.3-.1-9.3zm14.1 33.4h-14.1v-13.1h14.1c5 0 7.3 2.1 7.3 6.5 0 4.3-2.5 6.6-7.3 6.6zm12.7-246.7c-27.4 16.6-55.3 24.6-85.4 24.6s-58-8.1-85.4-24.6l-.9-.6-.9.5c-31.2 17.6-58.6 21.1-95.4 21.1-8.9 0-18-.9-27.1-2.6l-3.9-.8 2 3.5c37.8 64.8 24.4 127.4 6.5 168.5l-1.1 2.6H436l-1.1-2.6c-17.9-41.1-31.4-103.7 6.5-168.5l2-3.5-3.9.8c-9.2 1.8-18.3 2.6-27.1 2.6-36.8 0-64.3-3.4-95.4-21.1l-.9-.5-1.2.6z"/><path fill="#FFF" d="M103 285.3c-17.3 4.1-35.2 5.2-56.1 5.2-7.9 0-16-.8-24.2-2.2 9.7 17.3 15.8 34.4 19.3 51h60.9c.1-.8.1-30 .1-54zm124.7 54v-45.2c-21.9-.2-42.6-4.7-62.8-13.4v58.7c.6-.1 30.6-.1 62.8-.1zm-183.9 62c-2.9 19.8-8.6 37.8-15.1 53.1H103v-53.1H43.8zm121.1 53h62.8v-53.1h-62.8v53.1z"/><path fill="#DB2F36" d="M164.9 339.3v-58.7c-7.3-3.2-14.5-6.9-21.7-11.2-13.8 7.7-26.8 12.7-40.2 15.8v54H42.1c2.6 12.1 3.7 24 3.7 35.4 0 9.2-.7 18-2 26.5H103v53.1h61.9v-53.1h62.8v-61.9c-32.2.1-62.2.1-62.8.1z"/><path fill="#FFDF00" d="M315.9 269.5s-.1 0 0 0l-.1 184.9h21.8V279.6c-7.1-2.7-14.3-6-21.7-10.1zm-43.6 18.9v166h21.8V280.7c-7.2 3.1-14.5 5.7-21.8 7.7zm-40.9 5.7v160.2h19.1V292.7c-6.3.9-12.7 1.3-19.1 1.4zm128-8.1v168.3h21.8v-165c-7.5-.7-14.7-1.8-21.8-3.3zm54 88.7c0-27 6.3-56.4 23-86.4-8.1 1.4-16.3 2.2-24.2 2.2-3.2 0-6.2 0-9.3-.1v163.9h27.4c-9.1-21.8-16.9-49.2-16.9-79.6z"/><path fill="#DB2F36" d="M381.2 289.3v165H403V290.4c-7.7-.1-14.9-.5-21.8-1.1zm-130.7 3.4v161.6h21.8v-166c-7.2 2-14.5 3.5-21.8 4.4zm43.5-12v173.6h21.8V269.5c-7.2 4.3-14.4 8-21.8 11.2zm43.6-1.1v174.7h21.8V286c-7.4-1.6-14.6-3.6-21.8-6.4z"/></svg>