<svg id="Layer_1" xmlns="http://www.w3.org/2000/svg" viewBox="-206.2 303.1 187.1 187.1"><style>.st0{fill:#FFFFFF;} .st1{fill:#346BA5;} .st2{fill:#CC2229;}</style><path class="st0" d="M-112.6 488.6c50.8 0 92-41.2 92-92s-41.2-92-92-92-92 41.2-92 92 41.2 92 92 92z"/><path class="st1" d="M-112.6 487.1c25 0 47.6-10.1 64-26.5s26.5-39 26.5-64-10.1-47.6-26.5-64-39-26.5-64-26.5-47.6 10.1-64 26.5-26.5 39-26.5 64 10.1 47.6 26.5 64 39 26.5 64 26.5zm0 3.1c-25.8 0-49.2-10.5-66.1-27.4-16.9-16.9-27.4-40.3-27.4-66.1 0-25.8 10.5-49.2 27.4-66.1 16.9-16.9 40.3-27.4 66.1-27.4 25.8 0 49.2 10.5 66.1 27.4 16.9 16.9 27.4 40.3 27.4 66.1 0 25.8-10.5 49.2-27.4 66.1-16.9 16.9-40.3 27.4-66.1 27.4z"/><path class="st2" d="M-112.6 450.5c14.9 0 28.4-6 38.1-15.8 9.8-9.8 15.8-23.2 15.8-38.1 0-14.9-6-28.4-15.8-38.1-9.8-9.8-23.2-15.8-38.1-15.8-14.9 0-28.4 6-38.1 15.8-9.8 9.8-15.8 23.2-15.8 38.1 0 14.9 6 28.4 15.8 38.1 9.7 9.8 23.2 15.8 38.1 15.8zm0 32.1c-23.7 0-45.2-9.6-60.8-25.2-15.6-15.6-25.2-37-25.2-60.8 0-23.7 9.6-45.2 25.2-60.8 15.6-15.6 37-25.2 60.8-25.2s45.2 9.6 60.8 25.2c15.6 15.6 25.2 37 25.2 60.8 0 23.7-9.6 45.2-25.2 60.8-15.6 15.5-37.1 25.2-60.8 25.2z"/><path class="st0" d="M-188.3 370.4l5.4-12.5 3.9 1.8-3.2 7.3 3.1 1.4 2.8-6.3 3.6 1.6-2.7 6.3 7.4 3.3-2.3 5zm26.1-20.7l4.3-2.6c.9 1.2 1.6 2.4 1.9 3.6.3 1.2.3 2.3.1 3.4-.3 1.1-.9 2.3-1.9 3.5-1.2 1.5-2.5 2.5-3.8 3-1.3.5-2.8.6-4.6.3-1.8-.3-3.6-1.3-5.5-2.9-2.5-2.1-3.9-4.3-4.3-6.6-.3-2.3.4-4.6 2.3-6.8 1.4-1.7 3-2.7 4.5-3.1 1.6-.3 3.4-.1 5.4.8l-2.2 4.5c-.6-.3-1-.4-1.4-.4-.6-.1-1.1 0-1.6.2s-.9.5-1.2.9c-.8 1-1 2-.6 3.3.3.9 1.1 1.9 2.5 3.1 1.7 1.4 3 2.1 4 2.2 1 .1 1.9-.3 2.6-1.1.7-.8.9-1.6.8-2.5-.1-.9-.5-1.8-1.3-2.8zm16.1-21.2l2.2-1c.8-.3 1.3-.4 1.8-.3.4.2.8.5 1 1 .3.6.3 1.1.1 1.5-.2.4-.6.8-1.4 1.2l-2.2 1-1.5-3.4zm1.5 16.6l8.6-3.9c.4-.2 1.1-.6 2.1-1.3.8-.5 1.3-1 1.6-1.5.5-.7.7-1.6.8-2.5.1-.9-.1-1.9-.6-2.8-.5-1.1-1.2-2-2.1-2.5-.9-.5-2-.6-3.3-.4.6-.6 1-1.3 1.2-2 .2-1 .1-2.1-.4-3.1-.6-1.3-1.5-2.1-2.7-2.6-1.2-.5-2.6-.4-4.2.3l-9.4 4.3 8.4 18zm1.6-9.8l2.5-1.2c.9-.4 1.6-.5 2.1-.4.5.2.9.5 1.1 1 .3.6.3 1.1.1 1.6-.2.5-.7.9-1.6 1.3l-2.6 1.2-1.6-3.5zm19.7-5.5l1-7.3 2.9 6.8-3.9.5zm6.9 6.7l5.7-.7-9.1-18.7-5.9.8-4.1 20.4 5.6-.7.4-3.3 6.2-.8 1.2 3zm5.9-20.3l6 .9 2.6 7.1 4.5-6.1 6 .9-8.5 10.3-1.2 8.2-5.4-.8 1.2-8.2zm25.5 5.1l13.3 6.3-1.8 3.8-8.3-3.9-1.3 2.8 7.7 3.7-1.7 3.6-7.8-3.6-1.6 3.5 8.5 4-1.9 4.1-13.5-6.4zm21.7 17.6l1.8 1.6c.7.7 1.1 1.3 1.2 1.8 0 .5-.2 1-.6 1.5-.3.3-.6.5-1 .6-.4.1-.8 0-1.1-.1-.7-.4-1.1-.6-1.3-.8l-1.7-1.6 2.7-3zm-10.6 11.7l5.4-5.9.4.3c.4.3.6.8.7 1.2.1.4 0 1-.3 1.8l-1.9 6.4 4.6 4.2 1.9-6c.1-.3.2-.8.2-1.4.1-.6.1-1.1 0-1.4-.1-.4-.2-.9-.6-1.5.7.4 1.4.6 2 .7.9.1 1.7 0 2.6-.3.8-.3 1.6-.9 2.4-1.7.8-.9 1.4-1.9 1.5-2.9.2-1 0-2-.4-2.8-.4-.8-1.3-1.8-2.6-3l-6.8-6.1-13.2 14.7 4.1 3.7zm26.5-1l2.5 4.5-6.2 11.2 9.5-5.4 2.6 4.5-17.2 9.8-2.5-4.5 6.1-11.2-9.4 5.4-2.6-4.5zm-126.1 51.7l1.7 7-10.9 5.5 12.3-.2 1.6 7-19 4.6-1-4.3 14.5-3.5-15.3.2-1-4 13.7-6.8-14.5 3.5-1.1-4.3zm12.5 31.3l3 4.5-9.7 6.5c-1 .6-2 1.1-3 1.4s-2.1.4-3.1.2c-1-.1-1.9-.4-2.6-.9-1-.6-1.8-1.6-2.7-2.8-.5-.7-.9-1.5-1.4-2.4s-.7-1.8-.8-2.5c-.1-.8.1-1.6.4-2.5.3-.9.7-1.6 1.2-2.2.8-1 1.7-1.7 2.5-2.3l9.7-6.5 3 4.5-9.9 6.7c-.9.6-1.4 1.3-1.6 2.1-.2.8 0 1.6.5 2.3.5.8 1.2 1.2 2 1.3.8.1 1.6-.1 2.5-.7l10-6.7zm5.4 7l4 3-1.2 12.6 6.5-8.6 4.1 3.1-11.8 15.6-4.1-3.1 1.2-12.5-6.4 8.5-4.1-3.1zm23.8 26.2l4 3c-.8 1.3-1.7 2.3-2.6 3-1 .7-2 1.2-3.1 1.3-1.1.2-2.4 0-3.9-.5-1.8-.6-3.2-1.4-4.2-2.4-.9-1-1.6-2.3-1.9-4.1s-.1-3.8.7-6.1c1-3.1 2.6-5.2 4.6-6.3 2-1.2 4.4-1.3 7.1-.4 2.1.7 3.6 1.7 4.5 3.1.9 1.3 1.3 3.1 1.2 5.2l-4.9-.4c0-.6 0-1.1-.1-1.4-.1-.5-.4-1-.7-1.4-.3-.4-.8-.6-1.3-.8-1.2-.4-2.2-.2-3.2.7-.7.6-1.4 1.8-1.9 3.4-.7 2.1-.9 3.6-.6 4.5.3 1 1 1.6 2 1.9 1 .3 1.8.3 2.5-.2.5-.2 1.2-1 1.8-2.1zm10.6-9h5.5l-.1 6.8h6v-6.8h5.5l-.1 19.5h-5.4v-7.9h-6v7.9h-5.4zm20.3-.7l13.8-4.5 1.3 4-8.6 2.8.9 2.9 8.1-2.6 1.2 3.8-8.1 2.6 1.2 3.7 8.9-2.9 1.4 4.2-14.1 4.6zm16.6-5.8l4.1-3 11.8 4.9-6.4-8.7 4.2-3 11.4 15.8-4.1 3-11.7-4.8 6.3 8.7-4.1 3zm21.7-19.5l6.7-12.9 3.7 1.9-4.2 8.1 2.7 1.4 4-7.4 3.5 1.8-3.9 7.5 3.4 1.8 4.3-8.3 4 2-6.9 13.2zm7.5-14.1l1-5.6 14.5-1.4-13.1-6.4 1-5.4 18 9.9-1 5.8z"/><path class="st0" d="M-163.9 428.4l2.4 3.5-5.6 1.2z"/><path class="st1" d="M-112.6 448.3c28.6 0 51.7-23.2 51.7-51.7 0-28.6-23.2-51.7-51.7-51.7-28.6 0-51.7 23.2-51.7 51.7 0 28.6 23.1 51.7 51.7 51.7z"/><path class="st0" d="M-110.3 350.9v21.2l10.5 17.7v-20.7zm-13 4.6v21.2l10.6 17.7v-20.8zm-13 4.6v21.2l10.6 17.7v-20.8zm-12.9 4.5v21.3l10.5 17.7v-20.8zm-13 18.4v7.4l10.6 17.7v-20.7l-7-12.9zm64.8-36.7v21.3l10.6 17.7v-20.8zm13 7.8l10.5 10.1v16.9L-84.4 363zm-30 87v-20.8l-10.6-18.1v21.2zm12.9-4.6v-20.8l-10.5-18.1v21.2zm13-4.6v-20.7L-99 393v21.2zm13-4.5v-20.8l-10.6-18.2v21.3zm12.9-18.4v-9l-10.5-16.1v21.2l6.9 10.9zm-64.8 36.2v-20.3l-10.5-18.2v21.7zm-13-6.2l-10.5-9.2v-18.5l10.5 18.6z"/><path class="st0" d="M-112.6 446c13.6 0 26-5.5 35-14.5s14.5-21.3 14.5-35c0-13.6-5.5-26-14.5-34.9s-21.3-14.5-34.9-14.5-26 5.5-34.9 14.5c-8.9 8.9-14.5 21.3-14.5 34.9 0 13.6 5.5 26 14.5 35 8.8 9 21.1 14.5 34.8 14.5zm0 4.6c-14.9 0-28.4-6-38.2-15.8-9.8-9.8-15.8-23.3-15.8-38.2 0-14.9 6-28.4 15.8-38.2 9.8-9.8 23.3-15.8 38.2-15.8s28.4 6 38.2 15.8 15.8 23.3 15.8 38.2-6 28.4-15.8 38.2c-9.8 9.8-23.3 15.8-38.2 15.8z"/></svg>