<svg xmlns="http://www.w3.org/2000/svg" viewBox="-392.1 581.3 217.3 213.5"><path d="M-281.9 648c40.4 0 73.4 33 73.4 73.4 0 40.4-33 73.4-73.4 73.4s-73.4-33-73.4-73.4c0-40.4 33-73.4 73.4-73.4z"/><path fill="#ADB9C0" d="M-354.2 721.3c0-39.9 32.5-72.3 72.3-72.3 39.9 0 72.3 32.5 72.3 72.3 0 39.9-32.5 72.3-72.3 72.3s-72.3-32.4-72.3-72.3z"/><path d="M-344.3 721.3c0 34.4 28 62.4 62.4 62.4s62.4-28 62.4-62.4-28-62.4-62.4-62.4-62.4 28-62.4 62.4z"/><path fill="#FFF" d="M-343.3 721.3c0-33.9 27.6-61.4 61.4-61.4 33.9 0 61.4 27.6 61.4 61.4 0 33.9-27.6 61.4-61.4 61.4-33.9 0-61.4-27.5-61.4-61.4z"/><path d="M-339.9 721.3c0 32 26 58 58 58s58-26 58-58-26-58-58-58-58 26.1-58 58z"/><path fill="#FFF" d="M-338.8 721.3c0-31.4 25.5-56.9 56.9-56.9S-225 690-225 721.3c0 31.4-25.5 56.9-56.9 56.9s-56.9-25.5-56.9-56.9z"/><path d="M-224.9 721.8v-1.1h-52.2l51.1-10.2c-.1-.3-.1-.7-.2-1l-50.7 10.2 47.8-19.8c-.1-.3-.3-.6-.4-1l-47.8 19.8 43-28.7-.6-.9-43 28.7 36.5-36.5-.7-.7-36.5 36.5 28.7-42.9-.9-.6-28.7 42.9 18.7-45.1-.9-.4-18.7 45.1 8.5-42.8-1-.2-8.3 42v-44.2h-1.4v44.2l-8.6-43.4-1 .2 8.8 44.2-19.1-46.2-.9.4 19.1 46.2-28.7-42.9-.9.6 28.7 42.9-36.5-36.5-.7.7 36.5 36.5-42.9-28.7-.6.9 42.9 28.7-47.7-19.8c-.1.3-.3.6-.4.9l47.7 19.8-50.7-10.1c-.1.3-.1.7-.2 1l51.1 10.2h-52.1v1.1h51.3l-50.3 10c.1.3.1.7.2 1l50.8-10.1-47.8 19.8c.1.3.3.6.4 1l47.8-19.8-43 28.8.6.9 43.1-28.8-36.6 36.6.7.7 36.6-36.6-28.8 43.1.9.6 28.8-43.1-19.8 47.9c.3.1.6.3.9.4l21.4-51.6 21.4 51.6c.3-.1.6-.3.9-.4l-19.8-47.9 28.8 43.1.9-.6-28.8-43.1 36.6 36.6.7-.7-36.6-36.6 43.1 28.8.6-.9-43.5-28.8 47.9 19.8c.1-.3.3-.6.4-1l-47.9-19.8 50.8 10.1c.1-.3.1-.7.2-1l-50.4-10h51.4z"/><path fill="#4A914E" d="M-309.9 658.1c-3.8-.9-7.1-1.4-9.3-1.1-6.5.8-14.3 4.1-22.4 8-5.2 2.5-11.6 5.8-24.5 13.4l12 .9-1.3 10c7.1-4.6 16.6-11.2 25.4-14.9 3.7-1.6 7.3-2.7 10.5-2.9 2.4-.2 4.5.4 6.9 1 10.4 2.6 20.5 5.6 30.7 5.6v-14.7c-9.7-.1-20.1-3.4-28-5.3z"/><path d="M-237.5 684.9c-15.2 5.8-30.5 8.8-44.4 8.8s-29.2-3-44.4-8.7l-.6-.2-.1.6c-7.7 42.3 7.3 78.9 44.7 109l.3.3.3-.3c37.4-30 52.5-66.7 44.7-109l-.1-.6-.4.1z"/><path fill="#FFF" d="M-281.9 694.7c13.8 0 29-3 44.1-8.6 1.2 6.9 1.9 13.7 1.9 20.3 0 33-15.4 62.2-46 86.8-30.6-24.7-46-53.8-46-86.8 0-6.6.6-13.4 1.9-20.3 15.1 5.6 30.3 8.6 44.1 8.6z"/><path fill="#CD3529" d="M-281.9 788v-88c-14.4 0-27.2-2.3-40.3-6.8-4.8 37.5 10.2 67.5 40.3 94.8z"/><path fill="#ECB731" d="M-281.9 711c13.8 0 25.1 11.3 25.1 25.1s-11.3 25.1-25.1 25.1-25.1-11.3-25.1-25.1 11.3-25.1 25.1-25.1z"/><path d="M-307.5 736.1c0 14.1 11.5 25.6 25.6 25.6s25.6-11.5 25.6-25.6c0-14.1-11.5-25.6-25.6-25.6s-25.6 11.5-25.6 25.6zm1 0c0-13.6 11-24.6 24.6-24.6s24.6 11 24.6 24.6c0 13.6-11 24.6-24.6 24.6s-24.6-11-24.6-24.6z"/><path d="M-307.5 735.6c1.5 2.9 4.1 5.7 7.6 8.1l.6-.8c-3.3-2.4-5.8-5.1-7.3-7.8l-.9.5zm12.1 4.8l.8-.7c-5.8-6.8-4.5-18.3 2.9-26.2l-.8-.7c-7.7 8.3-9 20.4-2.9 27.6zm11.4-15.1l1-.3c-1.9-6.2 0-10.1 6.2-13l-.4-.9c-6.7 3.1-8.8 7.5-6.8 14.2zm13.1 9.5c5.9 6.1 7.2 15.7 2.9 21.5l.8.6c4.6-6.2 3.3-16.2-3-22.8l-.7.7zm5.8-6.3c4.4 3.6 6.9 9.1 6.7 14.8h1c.2-6-2.5-11.8-7.1-15.6l-.6.8zm-13.8 12.9c4.2 7.7 3.5 15.6-1.6 19.2l.6.8c5.5-3.9 6.3-12.3 1.9-20.5l-.9.5z"/><path d="M-288.5 753.5l-.2 1c4.5.7 10.7-1.4 13.1-6.5l-.9-.4c-2.2 4.7-7.9 6.5-12 5.9z"/><path d="M-241.8 692.7c-5.5 1.9-10.7 3.3-16 4.4h-.2l-54.4 54.2.2.3c2.8 5.2 6.2 10.5 10.1 15.5l.4.5 61.4-61.2v-.2c0-4.3-.3-8.7-.9-13.1l-.1-.6-.5.2z"/><path fill="#0094D6" d="M-242.1 693.9c.5 4.1.8 8.2.8 12.1-.3.3-59.4 59.3-60.3 60.1-3.6-4.8-6.8-9.7-9.5-14.6l53.6-53.5c5.1-1 10.2-2.4 15.4-4.1z"/><path fill="#ECB731" d="M-299.5 756.5l1.4-1.4c.6.5 1.2.8 1.8.8.6 0 1.2-.2 1.7-.7.6-.5.8-1.1.8-1.8s-.2-1.2-.8-1.8c-.5-.5-1-.7-1.4-.7-.5 0-1.2.3-2.2.8 0 0-.1.1-.3.2-1.2.7-2.2 1-3.1.9-.4 0-.8-.2-1.2-.3-.4-.2-.7-.4-1-.7-.9-.9-1.3-1.9-1.3-3s.5-2.1 1.4-3c.8-.8 1.8-1.3 2.8-1.3s2 .4 2.9 1.2l-1.5 1.5c-.4-.4-.9-.6-1.4-.6s-1 .2-1.4.6c-.4.4-.7.9-.6 1.5 0 .6.2 1.1.7 1.5.2.2.3.3.5.4.2.1.4.1.6.1.5 0 1.1-.2 2-.8.4-.2.7-.4 1-.6 1-.5 1.9-.7 2.8-.5.9.1 1.6.5 2.3 1.2 1 1 1.5 2.1 1.5 3.3s-.5 2.3-1.5 3.3c-.9.9-2 1.4-3.2 1.4-1.3 0-2.3-.5-3.3-1.5zm17-10.9l-1.5 1.5-1.7-1.7 1.5-1.5 1.7 1.7zm11.6-11.7l-5.2 5.2-10.3-10.3 1.6-1.6 8.9 8.9 3.6-3.6 1.4 1.4zm7.3-7.3l-1.5 1.5-1.7-1.7 1.5-1.5 1.7 1.7zm2-14l.5-.5c.8-.8 1.3-1.5 1.4-2.1.1-.6-.1-1.1-.6-1.7-.5-.5-1-.7-1.5-.6-.5.1-1.1.5-1.8 1.1l-.9.9 2.9 2.9zm4.6 4.6l1.3-1.3c.7-.7 1.2-1.4 1.2-2 .1-.6-.1-1.2-.7-1.7-.6-.6-1.2-.8-1.9-.8-.7.1-1.4.4-2.1 1.2l-1.3 1.3 3.5 3.3zm-8.2-9.7c1.2-1.2 2.3-1.8 3.4-2 1.1-.1 2.1.3 3 1.2.4.4.7.9.8 1.4s.1 1.1-.1 1.7c.7-.4 1.4-.5 2.1-.4.7.1 1.4.5 2 1.1.5.5.8 1 1.1 1.6.2.6.3 1.2.3 1.9-.1.6-.3 1.2-.6 1.7s-.8 1.2-1.6 2l-2.5 2.5-10.3-10.3 2.4-2.4zm22-1.3l-1.5 1.5-1.7-1.7 1.5-1.5 1.7 1.7z"/><path d="M-241.8 692.7c-13.5 4.6-26.3 6.7-40.1 6.7s-26.6-2.1-40.1-6.7l-.6-.2-.1.6c-4.6 35.7 8.2 66 40.4 95.2l.3.3.3-.3c32.2-29.2 45.1-59.5 40.4-95.2l-.1-.6-.4.2zm-80.8 14.2c0-4.3.3-8.6.8-13.1 13.4 4.5 26.1 6.6 39.8 6.6s26.4-2.1 39.8-6.6c.6 4.4.9 8.8.9 13.1 0 29.4-13.2 55.2-40.7 80.3-27.4-25-40.6-50.8-40.6-80.3z"/><path fill="#CD3529" d="M-197.7 678.3c-12.9-7.6-19.3-10.9-24.5-13.4-8.1-3.9-15.9-7.1-22.4-8-2.2-.3-5.4.2-9.3 1.1-7.9 1.9-18.3 5.2-28 5.2v14.7c10.3 0 20.3-3 30.7-5.6 2.4-.6 4.4-1.2 6.9-1 3.2.3 6.8 1.3 10.5 2.9 8.8 3.8 18.3 10.3 25.4 14.9l-1.3-10 12-.8z"/><path d="M-254 657.6l-4.4 1.1c-7.3 1.9-15.5 4-23.4 4-7.9 0-16.2-2.1-23.4-4l-4.4-1.1c-4.1-1-7.3-1.4-9.5-1.1-5.7.7-12.6 3.2-22.6 8-4.9 2.4-11.2 5.5-24.5 13.4l-1.4.8s12.1.9 13.1 1c-.1 1-1.3 10.6-1.3 10.6l3.4-2.2c6.7-4.4 15.1-9.9 22.8-13.2 3.9-1.7 7.4-2.7 10.3-2.9 2.1-.2 3.9.3 6 .8l4.7 1.2c9.2 2.4 17.9 4.6 26.9 4.6s17.7-2.2 26.9-4.6l4.7-1.2c2.1-.5 3.9-1 6-.8 2.9.2 6.4 1.2 10.3 2.9 7.7 3.3 16.1 8.8 22.8 13.2l3.4 2.2s-1.2-9.6-1.3-10.6c1-.1 13.1-1 13.1-1l-1.4-.8c-13.3-7.8-19.6-11-24.5-13.4-10-4.8-16.9-7.3-22.6-8-2.4-.3-5.6.1-9.7 1.1zm-4.2 2.1l4.4-1.1c4-1 7.1-1.4 9.1-1.1 5.5.7 12.4 3.2 22.3 7.9 4.7 2.3 10.7 5.3 23 12.5-2.4.2-10.9.8-10.9.8s1 7.7 1.2 9.4c-.7-.5-1.5-1-1.5-1-6.7-4.4-15.1-10-23-13.3-4.1-1.8-7.6-2.7-10.6-3-2.3-.2-4.2.3-6.3.9l-4.7 1.2c-9.1 2.3-17.8 4.6-26.6 4.6-8.9 0-17.5-2.2-26.6-4.6l-4.7-1.2c-2.1-.5-4-1-6.3-.9-3.1.2-6.5 1.2-10.6 3-7.8 3.4-16.2 8.9-23 13.3 0 0-.8.5-1.5 1 .2-1.8 1.2-9.4 1.2-9.4s-8.4-.6-10.9-.8c12.3-7.2 18.3-10.2 23-12.5 9.9-4.8 16.7-7.2 22.3-7.9 2-.3 5.1.1 9.1 1.1l4.4 1.1c7.3 1.9 15.6 4.1 23.7 4.1s16.2-2.2 23.5-4.1z"/><path d="M-231.9 670.9l-1.4-.5.6-2.4c0-.2.1-.4.2-.6.1-.2.1-.4.2-.7-.1.2-.3.5-.5.8 0 .1-.1.1-.1.1l-1.7 2.2-1-.4.3-2.8v-.2c0-.4.1-.7.1-.9l-.3.6-.3.6-1.2 2.2-1.3-.5 3-5 1.4.6-.3 3.1v.1c0 .3-.1.5-.1.7 0-.1.1-.2.2-.3.1-.1.2-.2.3-.4l1.9-2.4 1.4.6-1.4 5.5zm-13.2-9.6l1.5.2-.4 2.8c-.1.4-.1.7-.1.9v.5s.1.3.3.4c.1.1.3.2.5.2h.6c.2-.1.3-.2.4-.3.1-.1.1-.3.2-.4 0-.2.1-.5.2-.9l.1-.4.3-2.4 1.5.2-.4 3c-.1.6-.2 1.1-.3 1.4-.1.3-.3.5-.5.7s-.5.3-.9.4c-.4.1-.8.1-1.3 0s-.9-.2-1.2-.3c-.3-.2-.6-.4-.7-.6-.1-.2-.2-.5-.3-.8 0-.3 0-.8.1-1.4l.1-.6.3-2.6zm-9 7.8l-1.5-5.5 1.5-.4 2.8 2.3c.1 0 .2.1.3.3.1.2.3.3.5.5-.1-.2-.2-.4-.2-.6s-.1-.3-.1-.5l-.7-2.7 1.4-.4 1.5 5.5-1.4.4-3-2.3c-.1 0-.2-.1-.3-.3l-.5-.5c.1.2.2.4.2.6.1.2.1.3.1.5l.7 2.7-1.3.4zm-9.2-3.6l1.5-.4.7 2.7c.1.4.2.7.3.8.1.2.1.3.2.4.1.1.2.2.4.2h.6c.2-.1.4-.1.5-.2.1-.1.2-.2.2-.4v-.5s-.1-.5-.2-.9l-.1-.4-.6-2.3 1.5-.4.8 2.9c.2.6.2 1.1.2 1.4s-.1.6-.2.8c-.1.3-.3.5-.6.7-.3.2-.7.4-1.2.5-.5.1-.9.2-1.2.2-.4 0-.7-.1-.9-.3l-.6-.6c-.2-.3-.3-.7-.5-1.3l-.2-.6-.6-2.3zm-9.8 5.9c.3.2.5.4.8.5.2.1.5.1.7.1.2 0 .4-.1.5-.3.1-.1.2-.3.1-.5 0-.2-.1-.3-.2-.4-.1-.1-.4-.1-.8-.2-.6-.1-1-.2-1.3-.4-.3-.2-.4-.5-.5-.9-.1-.5 0-1 .3-1.4.3-.4.7-.7 1.3-.8.3-.1.6-.1.9 0 .3 0 .6.1.9.2l-.3 1.2c-.2-.1-.4-.2-.6-.2h-.6s-.3.1-.4.2c-.1.1-.1.2-.1.4 0 .1.1.2.2.3.1.1.3.1.6.1h.1c.7.1 1.1.2 1.3.3.2.1.3.3.4.4.1.2.2.4.2.6.1.6 0 1.1-.3 1.5-.3.4-.8.7-1.5.8-.4.1-.8.1-1.1 0-.3-.1-.7-.2-1-.5l.4-1zm-8.2-3.2l1.6-.1.2 2.8c0 .4.1.7.1.9 0 .2.1.3.1.4l.3.3c.2.1.3.1.5.1s.4-.1.5-.2c.1-.1.2-.2.3-.4 0-.1.1-.3.1-.5v-1.3l-.2-2.4 1.5-.1.2 3v1.4c-.1.3-.2.6-.3.8-.2.2-.4.4-.8.6-.3.1-.7.2-1.2.3-.5 0-.9 0-1.3-.1-.3-.1-.6-.2-.8-.5-.2-.2-.3-.4-.4-.7-.1-.3-.2-.8-.2-1.4v-.6l-.2-2.3zm-50.2 2.6l-2.2-5.3 3.2-1.4.5 1.2-1.8.8.4.9 1.7-.7.5 1.1-1.7.7.4.9 1.8-.8.5 1.2-3.3 1.4zm12.1-3.6l-1.5.1-.2-5.7 1.6-.1h1.3c.3.1.5.2.7.3.2.2.4.4.5.6.1.3.2.5.2.9 0 .3 0 .6-.1.9s-.3.5-.5.7c-.2.1-.3.2-.6.3-.2.1-.6.1-1 .1h-.6l.2 1.9zm-.1-3.1h.3c.4 0 .6-.1.8-.2.1-.1.2-.3.2-.5s-.1-.4-.2-.5c-.1-.1-.4-.1-.8-.1h-.3v1.3zm5.4 3.8l1.5-5.5 1.5.4-1.1 4.2 1.9.5-.3 1.3-3.5-.9zm7.3-4.1l1.5.4-.7 2.7c-.1.4-.2.7-.2.9v.5s.1.3.2.4c.1.1.3.2.5.3.2.1.4.1.6 0 .2 0 .3-.1.4-.2.1-.1.2-.2.2-.4.1-.2.2-.4.3-.8l.1-.4.6-2.3 1.5.4-.8 2.9c-.2.6-.3 1-.5 1.3s-.3.5-.6.6c-.2.2-.6.3-.9.3-.4 0-.8 0-1.2-.2-.5-.1-.9-.3-1.2-.5s-.5-.4-.6-.7c-.1-.2-.2-.5-.2-.8s.1-.8.2-1.4l.2-.6.6-2.4zm6.1 7.5l1.3-5.6 1.6.4c.6.1 1 .3 1.3.4.2.1.4.3.6.4.2.2.3.4.3.7.1.3 0 .5 0 .8-.1.4-.3.8-.6 1-.3.2-.6.3-1.1.3l1 2.6-1.7-.4-.8-2.5-.5 2.2-1.4-.3zm2.1-2.6l.3.1c.3.1.6.1.8 0 .2-.1.3-.2.3-.5.1-.3 0-.5-.1-.6-.1-.2-.3-.3-.7-.3l-.3-.1-.3 1.4zm4.7 4l1-5.6 1.5.3-1 5.6-1.5-.3z"/><path fill="#4A914E" d="M-319.2 662.7h-.4l.1 1.5h.4c.4 0 .7-.1.8-.2.2-.1.2-.3.2-.6s-.1-.4-.3-.5c-.2-.2-.4-.2-.8-.2zm0 .1c.4 0 .6 0 .7.1.1.1.2.2.2.5 0 .2-.1.4-.2.4-.1.1-.4.2-.7.2h-.2v-1.2h.2zm20.9 4.4l-.4 1.5.3.1c.3.1.6.1.8 0 .2-.1.3-.3.4-.5.1-.3 0-.5-.1-.7-.1-.2-.4-.3-.7-.4h-.3zm.1.1c.1 0 .2.1.2.1.3.1.5.2.6.3.1.1.1.2.1.3v.3c-.1.2-.2.4-.3.4-.2.1-.4.1-.7 0 0 0-.2 0-.2-.1s.3-1.2.3-1.3z"/><path d="M-293.7 630.3c.5.1 1.5-.5 2.3-1 .5-.3 1-.5 1.2-.6v-.1c-.2.1-.7.3-1.3.6-.8.4-1.7.9-2.1 1 0-1.7.5-2.7 2-4l-.1-.1c-1.5 1.4-2 2.5-2 4.2z"/><path fill="#ECB731" d="M-256 630.4c-1.1.4-2.4.1-3-1.2-1.2 1-2.7 1.2-4.7.4l-8.1-11.1 1.2-11.2c2.1 1.1 4.4 1.3 5.3 1.2 6.1-.6 1-5.3 9.9-9.3 3.2-5.8 8.3-7.8 11.3-8.4 14.7-2.9 34-1.4 49.1-1.5l19.3-.2c-1.2 2.9-5.3 4.8-9.5 5.7-1.1 2.7-2.5 4.2-5.9 5.6-.2 1.1-1 4.2-8.5 6.8-1.6 4.3-9.3 7.5-16.3 8.8-1.7 3.5-7.9 4.6-10.9 4.1-.3 1-2.4 2.2-3.3 2.1.1.4.3 2.1-1.8 1.7.4 1.3.1 2.1-.5 2.5-.6.4-1.6.4-2.6.3-.2.8-.9 1.1-1.7 1.1-.9 0-1.9-.3-2.5-.6 0 1.1-.7 1.5-1.8 1.4-1.2-.1-2.5-.7-3-1.2-.2 1.2-1.3 1.7-2.5 1.8-.8 0-1.6-.1-2.3-.4-.1 1-.9 1.3-1.7 1.4-1.4 0-3-1.2-3.3-2.1-.2 1-1.2 2-2.2 2.3z"/><path d="M-244.2 590.3c-2.3.5-8 2.2-11.6 8.5-4.8 2.2-5.6 4.7-6.2 6.5-.5 1.6-.8 2.4-3.3 2.7-.9.1-3.1-.1-5-1.1l-.7-.4-1.4 12.2 8.4 11.4.2.1c1.9.7 3.4.6 4.7-.2.8 1 2 1.4 3.4.9.9-.3 1.7-1 2.3-1.9.8.8 2.1 1.5 3.2 1.5.8 0 1.6-.4 2-1.2.6.2 1.3.3 1.9.3 1.3-.1 2.2-.6 2.7-1.4.7.5 1.8.8 2.7.9.8.1 1.4-.1 1.8-.5.2-.2.3-.4.4-.7.6.2 1.4.4 2.1.4 1 0 1.6-.4 2-1.1 1.1.1 2 0 2.6-.4.5-.3.9-.8.9-1.8v-.5c.7 0 1.1-.3 1.3-.6.3-.4.4-.8.4-1.2 1-.2 2.4-1.1 3-2 3.1.3 8.9-.8 10.9-4.2 6.5-1.2 14.4-4.3 16.4-8.8 4.9-1.8 7.8-4.1 8.5-6.9 3.1-1.3 4.7-2.8 5.9-5.5 3.1-.7 8.2-2.4 9.6-6l.3-.8-20.2.3c-4 0-8.3 0-12.8-.1-12-.3-25.6-.5-36.4 1.6zm-21 18.9c3.2-.3 3.7-1.9 4.3-3.5.6-1.7 1.3-3.9 5.8-5.9l.2-.1.1-.2c3.3-6 8.7-7.7 10.9-8.1 10.7-2.1 23.7-1.9 36.2-1.6 4.5.1 8.8.2 12.8.1 0 0 16.6-.1 18.3-.2-1.3 2-4.4 3.6-8.7 4.6l-.3.1-.1.3c-1.1 2.7-2.5 4-5.6 5.2l-.3.1-.1.3c-.5 2.5-3.2 4.7-8.1 6.4l-.3.1-.1.3c-1.5 4-9 7.1-15.9 8.4l-.3.1-.1.3c-1.6 3.3-7.6 4.2-10.3 3.8l-.5-.1-.1.5c-.2.6-2 1.7-2.6 1.6l-.9-.1.3.9c0 .1.1.6-.1.8-.2.3-.8.2-1.1.1l-.9-.2.3.9c.4 1.4-.1 1.7-.2 1.8-.3.2-.9.4-2.2.2l-.5-.1-.1.5c0 .2-.2.7-1.1.7-.8 0-1.7-.3-2.2-.6l-.9-.5v1c0 .3-.1.5-.2.6-.2.2-.5.2-1 .2-1-.1-2.2-.6-2.6-1.1l-.8-.9-.2 1.2c-.2 1.1-1.3 1.3-1.9 1.3-.7 0-1.4-.1-2-.4l-.8-.4-.1.8c-.1.8-.9.8-1.1.8-1.2 0-2.6-1.1-2.8-1.7l-.6-1.6-.5 1.6c-.3.9-1.1 1.8-2 2.1-.5.2-1.7.4-2.3-.9l-.3-.7-.6.5c-1 .9-2.2 1-3.9.4-.2-.3-7.6-10.4-7.9-10.7 0-.4 1-8.9 1.1-10.2 2 1.1 3.9 1.3 4.9 1.2z"/><path fill="#ECB731" d="M-298.8 627.3c-1.1.5-1.9.7-2.8.6-.8 0-1.6-.3-2.3-.8-.8 1.4-2 2-3.1 2-1.3 0-2.3-.9-2.9-2.1-.8 1.1-2.4 3-4.1 3-.7 0-1.2-.4-1.5-1.6-.7.3-1.5.6-2.3.7-1 .1-1.8-.2-1.7-1.4-.9.6-2.3 1.1-3.3 1.1-.9 0-1.5-.4-1.2-1.5-.2.2-1.7 1-2.8.9-.6-.1-1.1-.4-1.3-1.1-1 .1-2-.1-2.8-.6s-1.3-1.4-1.2-2.5c-2.8.6-2.9-1.5-2.7-1.9-.9-.2-2.4-.8-2.8-1.7-3.6-.1-8.3-.3-10.8-3.4 0 0 .1-.3-.1-.3-5.7-.2-13.8-3.2-15.3-7.5-6.7-2.5-8.8-5.3-9.4-6.6-3.7-1.2-6.7-2.6-7.5-5.4-4.4-.7-9.6-3.8-10.6-6.9l21.1-.1c15.1-.1 34.4-1.7 49.1 1.2 3 .6 9.2 3.9 12.3 9.7 5.5.1 7.1 8.9 11.4 9 1.5 0 3.9-1.4 5.9-5-.8.2-1.6.4-2.4.3-.7 0-1.4-.1-2-.3 3.4-1.5 3.2-4.2 3.3-5.3-.8.4-2.2.5-3.2.1.6-.8 1.3-2.5 1-3.7-.9.8-1.6 1.1-2.6 1.3.1-1 0-1.8-.4-2.6-1.6-3.5-6.6-2.4-6.5-6.2.6.7 1.5 1.3 2.5 1.3.5 0 1-.2 1.5-.6.2-.3.3-.7.3-1 0-.5-.2-1.1-.5-1.5-.8-1.1-2-1.5-3.2-1.4-1.8.1-3.6 1-4.2 1.3.2-3.1 3.1-4.6 5.7-4.6 1.5 0 3.2.6 4 1.5 1.8-1.2 3.6-1.3 6-.1 2.7 1.4 8.7 3.1 11.6 2.3-.7 1.5-2.4 2-3.3 2.2 2.2 0 4.3.2 5.9.7-1.2.6-2.2 1.3-3.3 1.8 1.9.2 3.7.3 5.3 1-1.3.3-2.1.8-2.3 1.5.9.9 2.6.9 4.3 1.3 1.6.4 3.2 1.3 4.1 3.6-.9 0-1.9.1-2.8.5 2.2 1.7 3.7 3.4 4.2 4.9-1 0-1.9.2-2.7.6 1.9 1.4 3.5 2.9 4.5 4.5-1.1.1-2.3.4-3.4.7 1.8 1.3 3.2 2.8 3.9 4.3-.7-.2-1.7-.2-2.4-.2 2 1.9 3.7 4.1 4.2 6.1-.7-.3-1.5-.4-2.4-.6.5 1.5.9 3 1 4.5 3.2 2.4 5 5 4.7 9.2-.8-.4-1.6-.7-2.3-.8 1.1 2 1.1 4 .3 6.3-.6-.7-1.2-1.2-1.8-1.5 0 2.5-.3 4.5-1.1 6l-.9-1.5c-1.1 2.4-3.4 5.2-5.4 4.6-1.8 1.8-3.4 2.3-6.2 3.6-.4-.5-1-.8-1.6-1.3-.8.7-1.4 1.4-2 2.4-.6-.8-1.2-1.4-1.8-2l-2.3.8c-4.9-3.3-9.4-4.2-8.9-9-.6.2-1.1.8-1.8 1.4-.5-1.6-.6-4.4-.3-6.8-.9.1-1.3.2-2.1.6-.1-.9-.1-3 1-5.3-1.2.3-1.5.8-2.1 1.4.3-1.4.8-2.9 1.6-4.1z"/><path d="M-302.1 581.4c-2.8 0-6 1.6-6.2 5.1l-.1 1.1.9-.6c.7-.4 2.4-1.2 3.9-1.3 1.2 0 2.1.4 2.7 1.2.3.4.4.8.4 1.2 0 .3-.1.5-.2.7-.3.3-.6.4-1.1.4-1 0-1.7-.7-2.1-1.1l-1-1.1v1.4c-.1 2.4 1.7 3.2 3.3 3.9 1.3.5 2.6 1.1 3.3 2.5.3.7.4 1.4.4 2.4v.7l.7-.2c.7-.1 1.3-.4 1.9-.8-.1.8-.5 1.6-.9 2.2l-.5.6.8.2c.8.3 1.9.3 2.8.1-.1 1.2-.4 2.9-2.9 4l-1.4.6 1.5.4c.7.2 1.4.3 2.2.3.4 0 .8 0 1.2-.1-1.6 2.5-3.5 3.6-4.7 3.6-1.7 0-3-1.9-4.5-3.8-1.7-2.3-3.6-4.9-6.6-5.1-3.2-5.6-9.2-9.1-12.6-9.7-11.2-2.2-25.2-1.8-37.7-1.5-4.1.1-7.9.2-11.6.2l-21.9.1.2.7c1.1 3.4 6.3 6.5 10.7 7.3 1 2.9 4.2 4.3 7.5 5.4.7 1.5 2.9 4.1 9.4 6.6 1.9 4.5 9.9 7.2 15.3 7.6l.1.1c2.6 3.3 7.5 3.5 10.9 3.6.6.9 1.8 1.4 2.5 1.6 0 .5.2 1 .5 1.4.4.4 1.1.8 2.2.7.1.9.6 1.8 1.4 2.3.8.5 1.8.8 2.8.8.3.6.8 1 1.6 1.1.7.1 1.6-.2 2.3-.5.1.2.1.4.3.5.3.4.8.6 1.6.6.9 0 2-.4 2.9-.8.1.2.2.4.4.6.4.4 1 .6 1.8.5.6 0 1.2-.2 1.9-.5.5 1.2 1.3 1.4 1.9 1.4 1.7 0 3.2-1.5 4-2.5.7 1 1.8 1.6 2.9 1.7 1.3 0 2.5-.7 3.3-1.8.7.4 1.3.6 2.1.6.5 0 1 0 1.6-.2-.4 1-.7 2.2-.7 3.3v1.3l1.3-1.2c.1-.1.2-.2.4-.3-.4 1.1-.6 2.2-.6 3.4v.7l.1.9.8-.4c.5-.2.8-.4 1.2-.5-.1.7-.1 1.5-.1 2.3 0 1.4.1 2.9.5 3.9l.3.8.9-.9c.2-.2.4-.3.5-.5.2 3.1 2.6 4.6 5.7 6.3 1.1.6 2.3 1.3 3.5 2.1l.2.2s1.7-.6 2.2-.8c.5.5 1 1 1.5 1.7l.5.7.5-.7c.5-.8 1-1.4 1.6-1.9.4.3.8.6 1 .9l.3.3 1.6-.7c2.1-.9 3.4-1.5 5-3 2 .3 4-1.6 5.3-4 .2.3.9 1.5.9 1.5l.5-.9c.7-1.4 1.1-3.1 1.1-5.3.3.2.6.5.8.9l.7.8.3-1c.4-1.2.6-2.3.6-3.2 0-.8-.2-1.6-.5-2.4.4.1.7.3 1.1.5l.8.4.1-.9v-.9c0-3.5-1.5-6.1-4.8-8.6-.1-1.1-.3-2.3-.7-3.5.5.1 1 .2 1.4.4l1.1.4-.3-1.1c-.6-2-2-3.9-3.4-5.4.3 0 .6.1.9.1l1.1.2-.5-1.1c-.6-1.3-1.7-2.6-3.1-3.8.7-.2 1.4-.3 2.1-.4l.9-.1-.5-.8c-.9-1.5-2.4-2.9-3.8-4 .5-.1 1-.2 1.6-.2h.8l-.3-.7c-.5-1.3-1.7-2.8-3.6-4.4.5-.1 1-.2 1.6-.2h.9l-.3-.8c-1.1-2.7-3-3.6-4.5-4l-1.6-.4c-.8-.2-1.5-.3-2.1-.6.3-.3.9-.6 1.6-.8l1.5-.4-1.4-.7c-1.1-.6-2.4-.8-3.7-.9.5-.3 2.8-1.6 2.8-1.6l-1.2-.4c-1-.3-2.2-.5-3.6-.7.5-.4 1-.9 1.3-1.5l.5-1.1-1.1.3c-2.7.7-8.6-.8-11.2-2.2-2.3-1.2-4.3-1.2-6.2-.1-1.2-.3-2.9-.7-4.2-.7zm0 1.1c1.4 0 2.9.5 3.5 1.3l.3.4.4-.3c1.6-1.1 3.3-1.2 5.4 0 2.4 1.2 7.3 2.6 10.6 2.5-.6.5-1.4.7-2.1.9l-4.4 1.2 4.5-.1c1.6 0 3.1.1 4.3.4-.4.2-.9.5-.9.5l-2.7 1.6 1.8.2h.5c1.1.1 2.2.2 3.2.4-.7.4-1 .9-1.2 1.3l-.1.3.3.2c.8.7 1.8.9 3 1.1l1.5.3c1.2.3 2.5.9 3.4 2.6-.8.1-1.5.2-2.1.5l-.8.4.7.6c1.8 1.4 3.1 2.8 3.7 4-.8.1-1.5.3-2.1.6l-.8.4.7.6c1.8 1.4 3 2.5 3.8 3.6-.9.1-1.7.3-2.6.5l-1.1.3 1 .7c1.4 1 2.5 2.1 3.2 3.1-.5 0-1-.1-1.4 0l-1.2.1.9.9c1.8 1.7 3 3.3 3.7 4.8-.4-.1-.9-.2-1.3-.2l-.9-.1.3.9c.5 1.6.8 3 .9 4.4v.3l.2.2c3.1 2.4 4.5 4.7 4.5 7.9-.6-.2-1.1-.4-1.7-.5l-1.2-.2.6 1c.5.9.8 1.9.8 2.9 0 .6-.1 1.2-.3 1.9-.4-.4-.8-.7-1.3-.9l-.8-.4v.9c0 1.9-.2 3.5-.6 4.7-.1-.2-.9-1.4-.9-1.4l-.5 1c-1.1 2.4-3.2 4.8-4.7 4.3l-.3-.1-.2.2c-1.5 1.5-2.7 2-4.8 3 0 0-.5.2-.9.4-.3-.3-.6-.5-.9-.7l-.8-.6-.4.3c-.6.5-1.2 1.2-1.7 1.9-.5-.6-1-1.1-1.5-1.5l-.3-.2s-1.9.7-2.3.9c-1.1-.8-2.3-1.4-3.3-2-3-1.7-5.1-2.9-5.1-5.7v-.6l.1-.9-.9.3c-.5.2-.8.5-1.2.9-.1-.8-.2-1.7-.2-2.7 0-.9.1-1.9.2-2.9l.1-.7-.7.1c-.6.1-1 .2-1.4.3 0-1.5.3-2.9 1-4.1l.6-1.1-1.2.3c-.6.1-1 .3-1.3.5.2-.9.5-1.8 1.1-2.6l1.1-1.6-1.8.8c-1 .4-1.8.6-2.5.6s-1.3-.2-1.9-.7l-.5-.4-.3.5c-.6 1.1-1.6 1.7-2.6 1.7s-1.9-.7-2.4-1.8l-.4-1-.6.9c-.9 1.3-2.3 2.7-3.6 2.7-.2 0-.7 0-.9-1.2l-.2-.7-.6.3c-.7.3-1.5.6-2.1.6-.5 0-.8 0-1-.2-.1-.1-.2-.3-.2-.6l.1-1.1-.9.6c-.8.5-2.1 1-3 1-.3 0-.6-.1-.7-.2-.1-.1-.1-.4 0-.7l.4-1.8-1.4 1.2c-.2.2-1.4.8-2.3.7-.4 0-.7-.2-.8-.7l-.1-.5-.5.1c-.8.1-1.8-.1-2.4-.6-.5-.3-1.1-1-1-2l.1-.8-.8.2c-.6.1-1.4.2-1.8-.2-.2-.3-.3-.6-.3-.8v-.1l.1-.6-.6-.2c-1-.2-2.1-.7-2.4-1.4l-.1-.3h-.4c-3.1-.1-7.8-.2-10.2-3.1 0-.1 0-.2-.1-.3-.1-.2-.3-.3-.5-.3-5.9-.3-13.4-3.2-14.8-7.1l-.1-.2-.2-.1c-6.9-2.6-8.7-5.3-9.1-6.3l-.1-.2-.2-.1c-3.9-1.3-6.4-2.6-7.1-5.1l-.1-.4-.4-.1c-4.1-.7-8.4-3.3-9.8-5.8l20.2-.1c3.7 0 7.5-.1 11.6-.2 12.3-.3 26.3-.7 37.4 1.4 3.1.6 9 4 11.9 9.4l.2.3h.3c2.6.1 4.3 2.4 6 4.7 1.6 2.2 3.1 4.3 5.4 4.3 1.6 0 4.2-1.3 6.4-5.3l.7-1.2-1.3.4c-.7.2-1.5.3-2.2.3-.1 0-.2 0-.4-.1 2.1-1.6 2.2-3.6 2.2-4.7v-1.2l-.8.4c-.5.2-1.3.3-2 .2.4-.7.7-1.7.7-2.6 0-.3 0-.5-.1-.8l-.2-.9-.7.6c-.6.5-1.1.8-1.6 1 0-.8-.2-1.5-.4-2.1-.8-1.8-2.4-2.5-3.9-3.1-1-.4-1.7-.8-2.1-1.3.5.2.9.3 1.4.3.7 0 1.4-.3 1.9-.8.3-.4.5-.9.5-1.4 0-.6-.2-1.3-.6-1.9-.8-1.1-2.1-1.7-3.6-1.7-1.3 0-2.5.5-3.4.9.6-1.8 2.8-2.7 4.8-2.7zm-46.8 34.1z"/><path fill="#ECB731" d="M-293 637c-.1 3.3-1.1 9.2-4 11.3-2.5 1.8-6 .5-7.8 3l.2 1.5c2.8 0 3.3.2 6.3-1.8-1.9 1.3-3.1 2.2-3.3 4.4.7.2 1.1.8 1.6 1.1.9-.9 2-2 3.2-4-.2 1.6-.9 2.7-.9 4.2.7-.1 1.3-.1 2 0 .6-1.3 2.1-4.1 2.1-5.5 1.7 0 2.9-.3 4.5-.6.7-.1 1.5.1 2.5-.1.1-.7 0-1.4 0-2-1.8-.6-2-1.1-4.2-2.1-.8-1.7.2-4.5.8-7.3-1-.5-1.8-1.4-2.2-2.5-.3 0-.6.2-.8.4z"/><path d="M-292.5 636l-1.1.6v.3c-.1 3.3-1.2 9-3.8 10.9-1 .7-2.2.9-3.4 1.1-1.7.3-3.4.5-4.5 2.1l-.1.2.3 2.2h1.1c1 0 1.7 0 2.4-.1-.3.6-.6 1.2-.6 2.1l-.1.5.5.1c.3.1.5.3.8.5l1 .8.3-.4.3-.4c.4-.4.8-.8 1.2-1.3-.1.5-.2.9-.2 1.5v.7l.7-.1c.6-.1 1.2-.1 1.8 0l.4.1.5-1.1c.8-1.7 1.5-3.3 1.7-4.5 1.2 0 2.1-.2 3.2-.4l.9-.2h1c.4 0 .9 0 1.5-.1l.5-.1v-2.9l-.4-.1c-.9-.3-1.4-.6-2.1-1-.5-.3-1-.6-1.8-1-.1-.3-.2-.7-.2-1.1 0-1 .3-2.3.6-3.7l.5-2.4-.4-.2c-.9-.5-1.6-1.3-1.9-2.2l-.1-.7-.5.3zm-8.1 14c1.3-.2 2.7-.4 3.9-1.3 3-2.2 4.1-7.8 4.3-11.2.4.7 1 1.4 1.7 1.8-.1.5-.4 1.6-.4 1.6-.3 1.4-.6 2.7-.6 3.9 0 .6.1 1.2.3 1.8l.1.2.2.1c.9.4 1.5.8 1.9 1.1.6.4 1.1.7 1.9 1v1h-2l-1 .2c-1.2.2-2.2.4-3.5.4h-.6v.6c0 1.1-1 3.2-1.7 4.5l-.2.4h-1c.1-.5.2-1 .4-1.5.2-.6.4-1.3.5-2.1l.3-2.5-1.3 2.2c-1 1.7-2 2.7-2.8 3.6l-.1-.1c-.2-.2-.5-.4-.8-.6.3-1.7 1.3-2.4 3-3.6l-.7-.9c-2.6 1.8-3.1 1.8-5.3 1.7h-.2c0-.3-.1-.5-.1-.7 1-1.2 2.3-1.4 3.8-1.6z"/><path fill="#ECB731" d="M-302 659c-.4-.6-.7-2.5.1-3.6.5.2 1.5.5 1.9.9-.6.6-1.6 1.9-2 2.7z"/><path d="M-302.4 655.1c-.9 1.3-.7 3.4-.1 4.3l.6.9.4-1c.3-.8 1.3-2 1.8-2.5l.4-.4-.4-.4c-.4-.5-1.2-.8-1.8-1l-.7-.3-.2.4zm.6 2.1c0-.4.1-.8.2-1.1.2.1.5.2.7.3-.3.3-.6.7-.9 1.2v-.4zm17-24.1c.6.6 1.4 2.6 1.4 4.4 0 .4 0 .7-.1 1.1-.2 1-.7 1.7-1.4 2.2-.4-1.2-1.4-3.3-2.8-4.2l-.5-.3-.3.5c-.4.6-.6 1.3-.8 2.1-1.2-.4-2.1-1.3-2.6-2.5l-.2-.6-.6.2c-.9.4-1.8 1.3-2.4 1.9l-.1.1c-.8-1-1.2-1.9-1.2-3.1v-.7l-1.7.3.3 1.1s.2 0 .3-.1c.2 1.3.7 2.4 1.8 3.6l.4.4.4-.4.6-.5c.4-.4 1-1 1.6-1.4.7 1.4 2 2.5 3.6 2.8l.6.1v-.7c0-.7.2-1.2.4-1.7 1.2 1.1 1.9 3.3 2 3.8l.1.8.7-.3c1.4-.6 2.3-1.8 2.7-3.3.5-2.5-.6-5.5-1.6-6.5l-.6.9zm.3-31.9c-.6 2.7-2 3.4-3.5 3.8.1-.5.2-1 .2-1.6 0-.4 0-.7-.1-1.1l-.3-1.3-.7 1.1c-.9 1.5-2.3 2.3-4.1 2.4l.1 1.1c1.6-.1 2.9-.7 3.9-1.6-.1.5-.2 1-.5 1.4l-.8 1.1 1.3-.2c1.6-.3 3.8-.7 4.9-3.4.1.3.1.7.1 1s0 .6-.1 1l-.2 1.2 1-.6c1.9-1.2 2.3-2.4 2.4-4.2h-1.1c0 1.1-.2 1.8-.9 2.5 0-.8-.2-1.7-.8-2.7l-.7-1.2-.1 1.3zm-11.5-16c-.9 0-1.5.6-1.6 1.4 0 .5.2.9.5 1.3s.5.8.5 1.4h1.1c0-.9-.4-1.5-.7-2-.1-.2-.3-.5-.3-.6 0-.2 0-.3.5-.3.7 0 1.5.5 2.4 1 1.4.9 3.2 2 5.8 2v-1.1c-2.2 0-3.8-1-5.2-1.8-1.1-.8-2-1.3-3-1.3z"/><path d="M-296.4 586.1c.2 1.2 1.2 2.7 2.8 3.1.5.1 1.3.2 1.9-.2.2-.2.5-.6.5-1.2h-1.1c0 .1 0 .3-.1.3-.1.1-.5.1-.9 0-1.1-.3-1.8-1.3-2-2.2l-1.1.2zm19.6 13.3c.6.7.9 1.3 1 2-1-.7-2.1-1.1-3.1-1.1v1.1c1 0 2.3.6 3.2 1.5l.7.7.3-.9c.4-1.4.1-2.7-1.1-4.1l-1 .8zm1.6 6.6c.2.4.4.9.5 1.6-.6-.7-1.3-1.2-2.4-1.4l-.3 1.1c1.2.3 1.8.8 2.7 2.2l.6 1 .4-1.1c.5-1.6-.1-3.1-.5-3.9l-1 .5zm-14.6 6.6l.2 1.1.8-.8c.9-.9 2.7-1.7 3.5-1.9l-.2-1.1c-.7.1-2.1.6-3.2 1.4.1-.9.5-1.7 1.2-2.2l-.7-.9c-1.2.9-1.8 2.6-1.6 4.4zm10.4.1c.3.5.5 1.3.5 2 0 .3 0 .6-.1.9-.8-1.4-1.9-2.5-3.1-3.1l-.5 1c1.3.6 2.5 2 3.2 3.7l.4 1.1.6-1c.8-1.5.8-3.8 0-5.3l-1 .7zm6.8-.5c.4.8.6 1.6.6 2.6v.1c-.8-1-1.7-1.9-3.2-2.5l-.4 1.1c1.5.6 2.4 1.7 3.3 2.9l1.1 1.4.2-1.2c.3-1.8.1-3.4-.6-4.8l-1 .4zm.8 6.4c.4.5.5 1.1.5 1.7 0 .2 0 .4-.1.5-.7-1-1.8-2.1-3.2-2.6l-.3 1.1c1.5.5 2.8 2.1 3.2 3.1l.5 1.2.6-1.1c.6-1.2.9-3.1-.2-4.6l-1 .7zm-19.5 2.7l.1 1.3.9-.9c.9-1 2.7-2.2 4-2.5l-.2-1.1c-1.1.2-2.4 1-3.5 1.9.2-1.3 1-2.3 2.1-2.8l-.5-1c-2 .7-3.1 2.7-2.9 5.1zm-5-6.8v1.1l.9-.6c1-.7 2.4-1.4 3-1.6l-.3-1.1c-.6.2-1.5.7-2.3 1.2.2-1.2.6-2.8 2-3.6l-.6-1c-2.4 1.3-2.7 4.3-2.7 5.6zm25.3 11c.8.7 1.9 2 2.3 3.4l.3 1 .7-.7c1.4-1.5 1-3.3.8-4.1v-.2l-1.1.2.1.2c.1.3.2.8.2 1.3 0 .3 0 .6-.1.9-.6-1.2-1.5-2.3-2.2-2.9l-1 .9zm-7.6 2.8l.1 1.2.9-.8c1.1-1.1 2.4-1.8 3.6-2.2l-.4-1.1c-1 .3-1.9.8-2.9 1.5.3-1 .9-1.9 1.6-2.3l-.5-1c-1.5.7-2.5 3-2.4 4.7zm-6.1-3.5c.8.3 1.7 1.5 2 2.6-1-.7-2-1-2.8-1.2l-.7-.2-.4 1.1.7.2c1.1.3 2.2.6 3.5 2l.9.9.1-1.2c.2-1.9-1.4-4.6-3-5.2l-.3 1zm-13.96-39.97l-.04-1.5 1.1-.03.04 1.5zm1.16 35.57v1.2l1.6-1.2c.4-.3.7-.6 1.1-.8-.5 1.1-.8 2.3-.8 3.4 0 .4 0 .7.1 1.1l1.1-.2c-.3-1.6.2-3.4 1.3-5.1l.8-1.2-1.4.3c-.9.2-1.6.6-2.2 1 .5-1.1 1.4-2.1 2.4-2.4l-.3-1.1c-2 .6-3.7 2.9-3.7 5z"/><path d="M-294.8 624.53l-.53-.96.08-.04.55.95z"/><path d="M-299.4 627.2l1 .6c1.3-2.1 3.3-3.4 5.3-3.4v-1.1c-2.5 0-4.8 1.4-6.3 3.9zm-71.3-37c3 4.5 5.8 7 11.9 7 4.8 0 10.4-1.6 14.1-2.6l-.3-1.1c-3.6 1-9.1 2.6-13.7 2.6-5.6 0-8.1-2.2-10.9-6.5l-1.1.6z"/><path d="M-364.4 596.1c1.8 3.6 5 5.3 10 5.3 5.9 0 8.5-.7 11.5-1.5l-.3-1.1c-2.9.8-5.4 1.5-11.2 1.5-4.5 0-7.3-1.4-8.9-4.7l-1.1.5zm20.7 9.8c1.6 3.1 5.4 4.8 10.8 4.8 3.6 0 7.6-.8 11.4-2.3l-.4-1.1c-3.7 1.4-7.6 2.2-11 2.2-4.9 0-8.4-1.4-9.8-4.1l-1 .5z"/><path d="M-355.5 601.3c2.3 2.8 7.3 4.7 12.5 4.8 1.9 0 8.6 0 13.6-2.1l-.4-1.1c-4.8 2-11.3 2.1-13.2 2-5.5-.1-9.9-2.4-11.6-4.4l-.9.8zm17.7 8.7c.8 1.9 2.3 3.3 4.4 4.1 5 1.8 12.3-.3 16-2.3l-.6-1c-3.4 1.9-10.5 3.9-15 2.2-1.8-.6-3.1-1.8-3.7-3.4l-1.1.4zm13.4 7.4c.5 1 1.5 1.7 2.8 2.1 2.3.6 5.4.1 7.6-1.2l-.6-1c-1.9 1.2-4.8 1.6-6.7 1.1-1-.3-1.7-.8-2.1-1.5l-1 .5z"/><path d="M-330.3 614.5c.6.8 1.9 2.8 5.4 3.1 2.5.2 5.9-.5 9.9-2l-.4-1.1c-3.8 1.5-7 2.2-9.3 2-3-.2-4-1.8-4.6-2.6l-1 .6zm10.7 4.8c.1 1 1.3 2.2 2.9 2.7 1.1.4 3.9 1.1 6.4-1.4l-.8-.8c-2 2-4.3 1.5-5.1 1.2-1.3-.5-2.1-1.3-2.2-1.8l-1.2.1z"/><path d="M-307.2 622.1c-.4 1-1.8 1.6-3.4 1.6-1.4 0-3.1-.6-3.8-2l-1 .5c.8 1.6 2.6 2.6 4.8 2.6 1.8 0 3.2-.6 4-1.6.9.9 2.1 1.4 3.3 1.4 1.3 0 2.6-.6 3.7-1.8.9.2 1.9.2 2.8-.1l-.3-1.1c-.8.3-1.7.3-2.5.1l-.3-.1-.2.3c-1 1.1-2 1.6-3.1 1.6s-2.1-.5-2.9-1.5l-.6-.8-.5.9zm-73.2-25.7l-.2 1.1c5.3 1 12 .4 17.3-.2l-.1-1.1c-5.2.6-11.9 1.2-17 .2zm7.3 5.3l-.3 1.1c5.6 1.4 13.9 1.2 19.3-.4l-.3-1.1c-5.2 1.6-13.3 1.8-18.7.4zm9.3 7.8c9.6 3.5 22.3 1.3 25.9.6l-.2-1.1c-3.6.7-16 2.8-25.3-.5l-.4 1zm15.8 6.4v1.1c5 0 12.3-1.4 15-2.8l-.5-1c-2.6 1.4-9.8 2.7-14.5 2.7zm10.5 3.7v1.1c2.5.1 8.8-1.4 11.4-3.4l-.7-.9c-2.5 1.9-8.4 3.3-10.7 3.2zm2.8 1.7l-.1 1.1c3.7.3 9.2-.5 12.6-3.7l-.8-.8c-3.1 3-8.3 3.7-11.7 3.4zm6.3 5.2l.7.9c.8-.7 1.6-1.7 2.4-2.8l-1-.6c-.6 1-1.4 1.9-2.1 2.5zm3.9.4l.7.9c.8-.6 1.4-1.4 2.1-2.5l-1-.6c-.5.9-1.1 1.6-1.8 2.2zm4.8.2l-.1.1.8.8.1-.1 1.4-1.6-.9-.7m3.42 3.1l-.84-.7 1.78-2.17.85.7zm-34.42-33.2c.9 2.1 3 4.3 5.4 4.3 3 .1 7.3-1.2 10.7-3.3l-.6-1c-3.2 1.9-7.3 3.2-10.1 3.1-1.9 0-3.7-1.9-4.4-3.6l-1 .5z"/><path d="M-336.7 600.6c-1.7 0-3-.6-4.2-1.9l-.8.8c1.4 1.5 3 2.2 5 2.2 3.3 0 7-2 10.1-4.1l-.6-1c-2.8 1.9-6.5 4-9.5 4z"/><path d="M-323.8 600c-2 1.4-4.1 2.8-6.1 2.9-1.5 0-2.8-.7-4.1-2.2l-.9.7c1.5 1.8 3.1 2.6 5 2.6 2.3-.1 4.5-1.6 6.7-3.1l1-.7-.6-.9-1 .7z"/><path d="M-325.1 604.5c-1.9.1-2.5-.6-2.8-1.3l-1 .5c.7 1.4 1.9 2.1 3.9 2 2.2-.1 4.8-1.4 7-3.4l-.8-.8c-2 1.7-4.4 2.9-6.3 3z"/><path d="M-322.2 606.2c-.7-.2-1.3-.6-1.6-1.3l-1 .5c.5.9 1.3 1.6 2.3 1.9 1.9.5 4.6-.1 7.8-2l-.6-1c-3.7 2.1-5.8 2.2-6.9 1.9z"/><path d="M-322.5 606.9c.4 1.2 1.1 2.1 2.2 2.6 3.2 1.4 8.1-.8 9.1-1.3l-.5-1c-2 .9-5.9 2.3-8.1 1.3-.8-.4-1.3-1-1.6-1.9l-1.1.3z"/><path d="M-319.3 609.8c2 3.6 4.9 4.1 11.1 1.8l-.4-1.1c-6.3 2.4-8.2 1.4-9.7-1.3l-1 .6z"/><path d="M-314.8 612.8c.6 1.4 1.6 2.3 2.9 2.8 2 .7 4.6.2 7.1-1.2l-.6-1c-2.2 1.3-4.5 1.7-6.1 1.1-1-.4-1.8-1.1-2.2-2.1l-1.1.4z"/><path d="M-309.7 615.8c.6 1.4 1.6 2.3 2.8 2.6 1.5.4 3.2 0 5.2-1.3.7 1.5 1.8 1.9 3.3 1.8v-1.1c-1.3 0-1.9-.1-2.4-1.7l-.2-.7-.6.4c-1.9 1.4-3.6 1.9-4.8 1.5-1.1-.3-1.8-1.3-2.1-2l-1.2.5zm101.8-21.3c-4.9 0-9.2-.5-12.8-1.6l-.3 1.1c3.7 1.1 8.1 1.6 13.1 1.6 5.3 0 8.7-1.7 11.8-5.9l-.9-.7c-2.9 4-5.9 5.5-10.9 5.5z"/><path d="M-213.8 599.9c-2.3 0-5.4-.4-8.4-1.2l-.3 1.1c3.1.8 6.3 1.3 8.7 1.3 4.6 0 7.8-1.8 10.5-5.8l-.9-.6c-2.5 3.6-5.3 5.2-9.6 5.2zm-29.5 6.9c2.7 1.8 6.9 4.2 11.3 4.2 3.1 0 5.9-1.2 8.5-3.5l-.8-.8c-2.4 2.2-4.9 3.2-7.7 3.2-4.1 0-8.1-2.3-10.7-4l-.6.9z"/><path d="M-223.6 606.4c-3.2.1-9.5-1.7-12.6-4.1l-.7.9c3.4 2.6 10 4.4 13.4 4.3 5.5-.2 10.9-4.2 13-6.7l-.9-.7c-2 2.3-7.1 6.1-12.2 6.3zm-23.1 3.6c1.6 3 5.7 5.2 9.7 5.2 3.6 0 6.5-1.5 8.1-4.4l-1-.6c-1.9 3.4-5.3 3.9-7.1 3.9-3.6 0-7.3-2-8.7-4.6l-1 .5zm.8 9.5c-1.9.1-4.1-.6-5.4-1.7l-.7.9c1.5 1.2 4 2 6.1 1.9 2.1-.1 3.8-.9 4.6-2.3l-1-.6c-.8 1.5-2.6 1.7-3.6 1.8z"/><path d="M-251.1 614.2c3.8 3.7 7.4 4.1 9.8 3.8 3-.3 5.1-2 5.8-2.9l-1-.6c-.4.6-2.2 2.1-4.9 2.4-2.1.2-5.3-.2-8.8-3.5l-.9.8zm1.3 7.2c-1 .1-2.5-.1-3.9-1.5l-.8.8c1.7 1.7 3.5 1.9 4.8 1.8 2-.2 3.7-1.4 4.3-2.4l-1-.5c-.4.7-1.8 1.6-3.4 1.8z"/><path d="M-258.2 622.5c-.4 1-1 1.7-1.6 1.7-.6.1-1.1-.4-1.5-.9l-.9.7c1 1.2 1.9 1.4 2.5 1.3.8-.1 1.5-.7 2-1.6 1 1.1 2.3 1.6 3.8 1.4 1.7-.2 3.1-1.3 3.7-2.7l-1.1-.4c-.4 1.1-1.4 1.9-2.7 2-1.3.1-2.5-.5-3.2-1.7l-.6-1-.4 1.2zm56.5-27.8c2.5.9 5.7 1.3 9 1.4 2.6 0 5.3-.2 7.7-.7l-.2-1.1c-2.3.5-4.9.7-7.5.6-3.2-.1-6.2-.5-8.7-1.3l-.3 1.1zm-.4 6.8c-3.4 0-6.6-.6-8.4-1.6l-.5 1c2 1 5.3 1.6 8.9 1.7 3.8 0 7.8-.5 11.2-1.6l-.4-1.1c-3.3 1.1-7.1 1.7-10.8 1.6zm-13.3 8.2c-3.9.1-7.6-.3-10.5-1.1l-.3 1.1c3 .8 6.8 1.2 10.8 1.2 5.8-.1 11.4-1.1 15.8-2.9l-.4-1.1c-4.3 1.7-9.7 2.7-15.4 2.8zm-17.4 4.1c2.2 2.2 11.5 3.5 17.1 2.8l-.1-1.1c-5.6.6-14.3-.7-16.1-2.5l-.9.8zm-4.3 2.4c2.6 1.9 7.7 4.6 10.3 4.5v-1.1c-2.1.1-7-2.3-9.6-4.2l-.7.8zm-4.6 2.1c2.7 3.3 7.9 5 12.6 4.3l-.2-1.1c-4.3.7-9.1-.9-11.6-3.9l-.8.7zm4 5.2l.6.9c.6.9 1.2 1.9 1.8 2.7l.9-.7c-.5-.7-1.2-1.7-1.7-2.6l-.6-.9-1 .6zm-3.4.7l.5 1.2c.3.8.7 1.6 1.1 2l.8-.8c-.3-.3-.6-1-.9-1.7l-.6-1.3-.9.6zm-4.3.8l.4 1c.5 1.3.6 1.7.8 1.9l.9-.7c-.1-.2-.4-1-.6-1.6l-.4-1.2-1.1.6zm-3.86 3.78l-1.27-2.4.97-.5 1.27 2.38zm27.76-30.28c-2.9.1-5.4-1.5-8.4-3.3l-.6 1c3.1 1.9 5.8 3.5 9 3.4 2.3-.1 5.4-2.2 6.3-4.5l-1.1-.4c-.7 1.9-3.3 3.8-5.2 3.8z"/><path d="M-236 598.6l.3.2c3.7 2.1 8.7 4.9 13.3.9l-.8-.9c-4 3.5-8.4 1-12-1l-.3-.2-.5 1z"/><path d="M-242.6 600.3c2.3 1.5 4.1 2.8 6.8 2.8 1.7.1 3.5-.1 5.1-2l-.9-.7c-1.3 1.5-2.7 1.6-4.2 1.6-2.3-.1-3.8-1-6.2-2.7l-.6 1z"/><path d="M-246.7 602.6c1.1 1 4.2 2.3 6.9 2.2 1.6 0 2.9-.7 3.5-1.8l-1-.6c-.5.8-1.3 1.2-2.6 1.2-2.3.1-5.2-1.1-6.1-1.9l-.7.9z"/><path d="M-244.7 606.3c-1.3 0-2.9-.5-4.8-1.6l-.6 1c2 1.2 3.9 1.8 5.4 1.8 1.9 0 3.3-.9 4.3-2.6l-1-.5c-.7 1.3-1.8 1.9-3.3 1.9z"/><path d="M-247.3 608.9c-1.2.1-2.7-.2-3.9-.8l-.5 1c1.5.7 3.1 1 4.5.9 1.9-.2 3.3-1.1 4.1-2.7l-1-.5c-.6 1.3-1.7 2-3.2 2.1z"/><path d="M-250.3 612.6c-1.2 0-2.8-.4-4.9-1.4l-.5 1c2.3 1.1 4 1.6 5.4 1.5 2.4 0 3.6-1.6 4.5-3.2l-1-.6c-1 1.9-2 2.7-3.5 2.7zm-4 14.8h1.1v.7h-1.1z"/><path d="M-253.5 615.3c-1.1.1-2.5-.3-3.4-.9l-1.2-.8.3 1.4c.2.8.1 1.5-.2 2-.2.3-.5.5-.8.6-.6.1-1.3-.2-2-.8l-.8.8c1.2 1.1 2.3 1.2 3 1.1.7-.1 1.2-.5 1.6-1.1.3-.5.5-1.1.5-1.7 1 .4 2.2.7 3.2.6 1.6-.1 2.8-1 3.4-2.4l-1-.5c-.6 1.1-1.4 1.7-2.6 1.7zm-25.1 22c0 1.7.6 3.2 1.7 4.2l.8.7.2-1.1c.1-.6.2-1.2.6-1.9.3.3.6.6.9 1l.5.7.8-1.4c.5-.8 1-1.8 2.1-2.5.7.4 1.7 1.3 2.3 1.9l1.2 1.1.3-.7c.6-1.1 1.3-1.8 2.1-2.4.2.1.5.3.5.3l.7-.9-1.2-.7-.3.3c-.7.5-1.6 1.2-2.3 2.4l-.1-.1c-.8-.8-2-1.9-2.9-2.3l-.3-.2-.2.1c-1.5.9-2.2 2.1-2.8 3-.3-.4-.7-.7-1.1-1l-.5-.4-.3.5c-.4.7-.7 1.3-.8 1.8-.4-.7-.7-1.6-.7-2.5v-.1c0-1.9.8-3.7 1.4-4.2l-.8-.8c-1 .9-1.9 3-1.8 5.2z"/><path fill="#ECB731" d="M-307.1 654.5c-.1-1 .7-3 2.2-3.6-.1.6 0 1.5.3 2.1-.9.1-1.9.8-2.5 1.5z"/><path d="M-305.1 650.3c-1.8.7-2.7 2.9-2.6 4.2l.1 1.2.9-.9c.5-.5 1.4-1.2 2.2-1.3l.8-.2-.4-.7c-.2-.4-.3-1.2-.2-1.8l.1-.9-.9.4zm-.4 1.6c0 .2.1.5.1.7-.3.1-.6.3-.9.4.3-.4.5-.8.8-1.1z"/><path fill="#ECB731" d="M-296.3 659.9c-1-.4-2-1.6-1.5-3.1.6-.1 1.4-.2 2 0-.2 1-.6 2.2-.5 3.1z"/><path d="M-297.9 656.2l-.3.1-.1.3c-.6 1.7.5 3.2 1.8 3.8l.9.4-.1-1c-.1-.6.2-1.6.4-2.4l.3-1-.5-.2c-.8-.2-1.7-.1-2.4 0zm1.5 1.1c-.1.5-.3 1-.3 1.5-.3-.3-.5-.8-.5-1.3v-.2h.8z"/><path fill="#ECB731" d="M-283.8 651.1c-.1-1.3-1.8-2.5-2.9-2.5.1.6 0 1.2 0 1.8 1 .2 2.2.4 2.9.7z"/><path d="M-286.7 648.1h-.7l.1.7c.1.4.1.8 0 1.3v1h.5c.9.1 2.1.4 2.7.6l.9.4-.1-1c-.1-1.6-2-3-3.4-3zm.6 1.3c.4.1.8.4 1.2.8-.4-.1-.8-.2-1.2-.2v-.6zm-8.4-5.1v1.1h3.3v-1.1h-1.3m-1.44-.92l-.02-1.1 3-.05.02 1.1zm3.04-3.08l-2.6.1v1.1l2.9-.1.5-.8c0-.3-.3-.3-.8-.3zm-8.4 8.9c-.9.2-1.7.3-2.6.4.1.1.2.2.3.2l.1 1.4c.6.2.5-.6 1.1-.6l1.1-.3v-1.1zm-2.1 3.4c.5-.1 1-.4 1.6-.7v-.1c-.5 0-1.2.2-1.5.4 0 0 0 .2-.1.4zm1.7-.6c-.8.6-1.4 1.3-1.7 2.2.7 0 1.6 0 2.1.3.2-.7-.3-1.8-.4-2.5zm2.6 1.7c-.2.7-.4 1.3-.6 1.9l1.1-.5c.1-.3 1-1.5 1.4-1.5-.2-.1-1.2 0-1.9.1zm9.6-5.3c-1.4-.3-1.5-1.1-3.2-1.9.2 1.8 1.1 3 3.1 3 .1-.3.1-.7.1-1.1z"/><path fill="#ECB731" d="M-270 637c.1 3.3.7 8.5 3.6 10.6 2.5 1.8 4.4 1.2 6.1 2.8l-.1 1.8c-3.1-1-1.9-.1-4.4-.8 1.9 1.3 2.5 1.4 2.7 3.6-.7.2-1.1.8-1.6 1.1-.9-.9-2.5-1.4-3.8-3.4.2 1.6.4 3.1.4 4.6-.7-.1-1.3-.1-2 0-.6-1.3-1.9-4.1-1.9-5.5-1.7 0-1.8-1.8-3.4-2.1-.7-.1-1.8.4-2.8.3-.1-.7 0-1.4 0-2 1.8-.6 2.3-1.7 4.5-2.7.8-1.7.1-3.9-.4-6.8.5-1 1.2-1.5 2.1-2.2.2.1.8.5 1 .7z"/><path d="M-271.4 635.8l-.3.3c-.7.6-1.4 1.1-1.9 2.1l-.1.2.3 1.5c.3 1.4.5 2.6.5 3.6 0 .5-.1 1-.2 1.4-.9.5-1.6 1-2.1 1.4-.7.5-1.2.9-2 1.2l-.4.1v3h.5c.6.1 1.2 0 1.8-.2.4-.1.8-.2 1-.1.6.1.9.4 1.3.9.4.4.9 1 1.7 1.1.2 1.4 1 3.3 1.8 5l.3.7.4-.1c.6-.1 1.1-.1 1.8 0l.7.1v-.7c0-.9-.1-1.8-.2-2.8.5.5 1 .9 1.5 1.2.4.3.8.5 1.1.8l.4.4.3-.3.6-.5c.3-.3.5-.5.8-.5l.5-.1-.1-.5c-.1-1.5-.5-2.1-1.1-2.7.3 0 .8.1 2.1.5l.7.2.2-2.8-.2-.2c-1-.9-2-1.2-3.1-1.4-1-.3-2-.5-3.1-1.4-2.6-1.9-3.3-6.5-3.4-10.1v-.3l-.5-.4-1.2-.8-.4.2zm.4 1.2c.2.1.4.3.4.3l.1.1c.1 3.8.9 8.7 3.8 10.7 1.3.9 2.5 1.3 3.5 1.5.9.2 1.6.5 2.4 1 0 .2 0 .4-.1.8-1.2-.4-1.7-.3-2.1-.3-.3 0-.6 0-1.7-.3l-3.4-1 3.6 2.5c1.1.8 1.5 1 1.6 2.3l-.9.6-.1.1c-.3-.2-.5-.4-.8-.6-.8-.5-1.7-1.1-2.4-2.4l-1.3-2.2.4 3.9c.1.9.2 1.8.2 2.6h-1c-.6-1.3-1.7-3.7-1.7-4.9v-.6h-.6c-.6 0-.9-.3-1.4-.8-.4-.5-1-1.1-1.9-1.2-.5-.1-.9 0-1.4.1-.3.1-.6.1-.9.1v-1c.8-.3 1.4-.8 2-1.2.6-.5 1.2-.9 2.2-1.4l.2-.1.1-.2c.3-.6.4-1.3.4-2.1 0-1.1-.3-2.4-.6-3.8 0 0-.2-.8-.2-1.1.5-.6.9-.9 1.6-1.4z"/><path fill="#ECB731" d="M-261.8 658.4c.4-.6.7-2.5-.1-3.6-.5.2-1.4.9-1.8 1.3.6.5 1.4 1.4 1.9 2.3z"/><path d="M-262.1 654.2c-.6.2-1.6 1-2 1.5l-.4.4.4.4c.3.3 1.3 1.3 1.8 2.2l.5.8.5-.8c.6-.9.8-3-.1-4.3l-.3-.4-.4.2zm0 1.3c.1.3.2.7.2 1 0 .2 0 .3-.1.5-.3-.3-.6-.7-.8-1 .2-.1.4-.3.7-.5z"/><path fill="#ECB731" d="M-257.9 653.9c.1-1-.7-3-2.2-3.6 0 .6-.1 1.2-.3 1.8.9.3 1.9 1.3 2.5 1.8z"/><path d="M-260.6 650.2c0 .6-.1 1.1-.2 1.7l-.2.5.5.2c.5.2 1.2.8 1.7 1.2l1.4 1.2.1-1.1c.1-1.3-.8-3.5-2.6-4.2l-.7-.3v.8zm1 1c.4.3.6.7.8 1.1l-.9-.6c.1-.1.1-.3.1-.5z"/><path fill="#ECB731" d="M-268.5 660.1c1-.4 2-1.6 1.5-3.1-.6-.1-1.4-.2-2 0 .2 1.1.6 2.2.5 3.1z"/><path d="M-269.2 656.5l-.5.2.3.9c.2.8.5 1.8.4 2.4l-.1 1 .9-.4c1.3-.6 2.4-2.1 1.8-3.8l-.1-.3-.3-.1c-.7-.1-1.7-.2-2.4.1zm1.7 1v.2c0 .5-.2.9-.5 1.3l-.3-1.5h.8z"/><path fill="#ECB731" d="M-279.6 651c-.1-1.3 1.3-3 2.5-3-.1.6 0 1.2 0 1.8-1 .3-1.8.8-2.5 1.2z"/><path d="M-279.1 648.5c-.7.8-1.1 1.8-1.1 2.6l.1.9 1-.6c.6-.4 1.3-.8 2.1-1l.4-.1v-2.2l.1-.7h-.7c-.6.1-1.3.4-1.9 1.1zm.8.8c.2-.2.4-.3.6-.4v.6c-.3.1-.7.2-1 .4.1-.2.3-.4.4-.6zm7.4-5.6h-1.4l-.1 1.1h3.5v-1.1m-3.26-.57l-.03-1.1 2.9-.08.06 1.1zm-.64-2.63l.4 1c.2 0 2.2-.2 2.7-.2v-1.1s-2.8 0-3.1.3zm8.2 8.4c.9.2 1.9.4 2.7.5-.6.6-.6-.1-.6 1-.6.2-.5-.2-1.1-.2l-1.1-.3c0-.1.1-.5.1-1zm-.2 2.5c.8.6 2.1 1.9 2.4 2.8-.7 0-1.4-.2-1.9 0 .2-1.6-1-1.4-.5-2.8zm-3.1 2.4c.2.7.4 1.3.6 1.9l-1.1-.5c-.1-.3-.5-1.5-1-1.5.2-.1.9 0 1.5.1zm-8.2-6.2c1.4-.3 1.5-1.1 3.2-1.9-.2 1.8-1.1 3-3.1 3-.1-.3-.1-.7-.1-1.1zM-287 669h.4c.4 0 .7.1.9.2.1.1.2.3.2.5s-.1.4-.3.4c-.2.1-.5.1-.9.1h-.4l.1-1.2zm-.1 4.8c.7.1 1.3.1 1.6 0 .3 0 .6-.1.8-.2.3-.1.5-.3.7-.5s.3-.5.3-.8c0-.4-.1-.8-.3-1.1-.2-.3-.6-.5-1.1-.5.4-.1.7-.2.9-.4.2-.2.3-.5.3-.8s0-.5-.1-.7c-.1-.2-.3-.4-.5-.5-.2-.1-.5-.2-.7-.3-.3-.1-.8-.1-1.6-.2l-1.8-.1-.4 6 1.9.1zm0-2.5h.7c.4 0 .7.1.9.2.2.1.2.3.2.5s-.1.4-.3.5c-.2.1-.5.1-.9.1h-.6v-1.3z"/></svg>