<svg xmlns="http://www.w3.org/2000/svg" viewBox="155.7 13 766.9 768"><path fill="#FDE100" d="M155.66 410.06c0-212.12 170.87-397 383-397s383.87 171.88 383.87 384-171.87 384-384 384-382.87-159-382.87-371"/><path fill="#231F20" d="M538.6 31.2c-201.87 0-365.37 164-365.37 365.9s163.5 365.5 365.37 365.5 365.38-163.5 365.38-365.4-163.38-366-365.38-366zm0 20.5c190.63 0 345 154.76 345 345.4s-154.25 345-345 345c-190.62 0-345.37-154.26-345.37-345S347.98 51.7 538.6 51.7zm-114.37 55.76l94 290.63h40.5l92.62-290.65h-56.5l-56.5 194-56.12-194h-58zm-145.25 143V537.1h90c72.87 0 109.87-88.26 59.12-142.64v-.37c0-.27.38-.4.38-.4 42.12-47.5 24.37-131.37-54-143.1h-95.5v-.15zm372.37 0V537.1h90.5c72.88 0 109.88-88.26 59.13-142.64v-.37c0-.27.37-.4.37-.4 42.13-47.5 24.38-131.37-54-143.1h-96v-.15zM331.6 304.1h44.38c28.75 0 34.62 55.1 1.75 64H331.6v-64zm373.25 0h43.88c28.75 0 34.75 55.1 1.75 64h-45.63v-64zM331.6 419.33h39.13c32.5 0 44.37 59.12 2.12 67.37h-41.37v-67.36h.12zm373.25 0h38.75c32.5 0 44.38 59.12 2.13 67.37h-40.88v-67.36zm-222.75 124c-23.25 0-42.25 19-42.25 42.25v63.5c0 23.24 19 42.24 42.25 42.24h.88c23.25 0 42.25-19 42.25-42.25v-63.5c0-23.26-19-42.26-42.25-42.26h-.88zm111.75 0c-23.25 0-43.12 18.12-43.12 41.37v10.5c0 23.26 21.25 42 43.12 42.64 0 0 8.88-.13 13.5-2.63l.38 14.4c0 7.25-5.88 13.6-13 13.5-5.88-.13-13.88-3.13-13.88-10.5 0 0 1.25-9.63-5.62-9.63h-24.38c-.12 2.38 0 3.75 0 7 0 22 18.88 41.38 44.38 41.38 24.12-.25 40.87-18.75 40.87-42.63v-63.5c0-23.24-18.12-41.74-41.37-41.74h-.88v-.12zm.5 30c7.63 0 13.5 5.75 13.5 13v8.25c0 7.24-5.75 13-13 13-7.62 0-13.87-5.76-13.87-13v-8.26c-.13-7.25 6.12-13 13.37-13zm-112.25.37c7.75 0 13.88 5.76 13.88 13v63.14c0 7.25-6.25 13-13.5 13-7.63 0-13.5-5.75-13.5-13V586.7c.12-7.24 5.87-13 13.12-13z"/></svg>