<svg xmlns="http://www.w3.org/2000/svg" xmlns:xlink="http://www.w3.org/1999/xlink" viewBox="155.7 13 766.9 768"><defs><path id="a" d="M-1221.6-1350.3h12941.9v18311.9H-1221.6z"/></defs><clipPath id="b"><use xlink:href="#a" overflow="visible"/></clipPath><g transform="matrix(0 -1.25 -1.25 0 77.28 78.2)" clip-path="url(#b)"><path fill="#FDE100" d="M-265.5-62.7c169.7 0 317.6-136.7 317.6-306.4S-85.4-676.2-255.1-676.2-562.3-538.7-562.3-369-435.1-62.7-265.5-62.7"/><path fill="#231F20" d="M37.58-369.05c0 161.5-131.2 292.3-292.7 292.3s-292.4-130.8-292.4-292.3 130.8-292.3 292.3-292.3 292.8 130.7 292.8 292.3zm-16.4 0c0-152.5-123.8-276-276.3-276s-276 123.4-276 276c0 152.5 123.4 276.3 276 276.3s276.3-123.8 276.3-276.3zm-44.6 91.5l-232.5-75.2v-32.4l232.5-74.1v45.2l-155.2 45.2 155.2 44.9v46.4zm-114.4 116.2h-229.3v-72c0-58.3 70.6-87.9 114.1-47.3h.3c.2 0 .3-.3.3-.3 38-33.7 105.1-19.5 114.5 43.2v76.4h.1zm0-297.9h-229.3v-72.4c0-58.3 70.6-87.9 114.1-47.3h.3c.2 0 .3-.3.3-.3 38-33.7 105.1-19.5 114.5 43.2v76.8h.1zm-42.9 255.8v-35.5c0-23-44.1-27.7-51.2-1.4v36.9h51.2zm0-298.6v-35.1c0-23-44.1-27.8-51.2-1.4v36.5h51.2zm-92.2 298.6v-31.3c0-26-47.3-35.5-53.9-1.7v33.1h53.9v-.1zm0-298.6v-31c0-26-47.3-35.5-53.9-1.7v32.7h53.9zm-99.2 178.2c0 18.6-15.2 33.8-33.8 33.8h-50.8c-18.6 0-33.8-15.2-33.8-33.8v-.7c0-18.6 15.2-33.8 33.8-33.8h50.8c18.6 0 33.8 15.2 33.8 33.8v.7zm0-89.4c0 18.6-14.5 34.5-33.1 34.5h-8.4c-18.6 0-33.6-17-34.1-34.5 0 0 .1-7.1 2.1-10.8l-11.5-.3c-5.8 0-10.9 4.7-10.8 10.4.1 4.7 2.5 11.1 8.4 11.1 0 0 7.7-1 7.7 4.5v19.5c-1.9.1-3 0-5.6 0-17.6 0-33.1-15.1-33.1-35.5.2-19.3 15-32.7 34.1-32.7h50.8c18.6 0 33.4 14.5 33.4 33.1v.7h.1zm-24-.4c0-6.1-4.6-10.8-10.4-10.8h-6.6c-5.8 0-10.4 4.6-10.4 10.4 0 6.1 4.6 11.1 10.4 11.1h6.6c5.8.1 10.4-4.9 10.4-10.7zm-.3 89.8c0-6.2-4.6-11.1-10.4-11.1h-50.5c-5.8 0-10.4 5-10.4 10.8 0 6.1 4.6 10.8 10.4 10.8h50.5c5.8-.1 10.4-4.7 10.4-10.5z"/></g></svg>