<svg id="Layer_1" xmlns="http://www.w3.org/2000/svg" viewBox="-200 292.5 209.5 209.5"><style>.st0{fill:#DBA111;} .st1{fill:#034694;} .st2{fill:#FFFFFF;} .st3{fill:#D1D3D4;} .st4{fill:#ED1C24;} .st5{fill:#6A7AB5;} .st6{fill:none;}</style><path id="path3381" class="st0" d="M9.5 397.3C9.5 455.1-37.4 502-95.3 502c-57.8 0-104.7-46.9-104.7-104.7 0-57.8 46.9-104.7 104.7-104.7 57.9-.1 104.8 46.8 104.8 104.7"/><path id="path3383" class="st1" d="M6 397.3c0 55.9-45.3 101.2-101.2 101.2s-101.2-45.3-101.2-101.2S-151.2 296-95.3 296C-39.3 296 6 341.3 6 397.3"/><path id="path3385" class="st0" d="M-23.1 397.3c0 39.8-32.3 72.1-72.2 72.1-39.9 0-72.2-32.3-72.2-72.1 0-39.9 32.3-72.2 72.2-72.2 39.9 0 72.2 32.3 72.2 72.2"/><path id="path3387" class="st2" d="M-25.3 397.3c0 38.6-31.3 70-70 70-38.6 0-70-31.3-70-70 0-38.6 31.3-70 70-70s70 31.3 70 70"/><path id="path3389" class="st0" d="M-155.2 457.6c.8.7 2.7 2.6 2.7 2.6l1.8-1.9-5.4-5.2-.7.7-7.3 7.7 2.8 2.6s2.3-2.5 3.2-3.4c.7.7 2.4 2.3 2.4 2.3l1.8-1.9s-1.7-1.6-2.4-2.3c.4-.5.6-.7 1.1-1.2"/><path id="path3391" class="st0" d="M-142.1 466.4c-.2-1.5-1.1-2.8-2.3-3.7-1.2-.9-2.7-1.2-4.2-1-1.6.3-3 1.2-4 2.6-1 1.4-1.4 3.1-1.1 4.6.2 1.5 1.1 2.8 2.3 3.6 1.2.9 2.7 1.2 4.2 1 1.6-.3 3-1.2 4-2.6.8-1.1 1.2-2.4 1.2-3.7 0-.2 0-.5-.1-.8m-7.8 4.1c-1.3-.9-.2-2.8.5-3.8s2.2-2.7 3.4-1.8c1.3.9.1 3-.5 3.8-.5.9-2.1 2.7-3.4 1.8z"/><path id="path3393" class="st0" d="M-133.5 469.3c-2.9-1.5-6.3-.3-7.9 2.8-.8 1.5-.9 3.2-.4 4.8.5 1.4 1.5 2.6 2.8 3.3 1.4.7 2.9.8 4.3.3 1.5-.5 2.8-1.6 3.6-3.2 1.6-3.1.5-6.5-2.4-8m-3.3 8.6c-.3.1-.7.1-1-.1-.6-.3-.8-.8-.8-1.4 0-.8.4-1.8.7-2.4.6-1.1 1.8-2.9 3.1-2.2.4.2.6.4.7.8.2.7 0 1.9-.6 3.1-.6 1.1-1.4 1.9-2.1 2.2z"/><path id="path3395" class="st0" d="M-127.5 473.5l-.5 1.5s1.4.5 1.8.6c-.5 1.5-3 8.5-3 8.5l3.6 1.3s2.4-6.9 3-8.4c.4.1 1.8.6 1.8.6l.9-2.5-7.2-2.5-.4.9"/><path id="path3397" class="st0" d="M-112.5 476.9l-4.9-1-.2 1-2.2 10.4 5 1.1c1.6.3 2.6-.1 3.2-.4.8-.5 1.3-1.3 1.5-2.3.1-.3.1-.5.1-.8 0-.7-.2-1.3-.6-1.9.6-.4 1-1.1 1.1-1.9 0-.2.1-.4.1-.7 0-1.4-.8-3-3.1-3.5m-1.3 7.9c-.1.2-.1.6-.3.7-.2.1-.5.1-.9 0 0 0-.2 0-.4-.1.2-.7.3-1.2.4-2 .2.1.5.1.5.1.6.1.8.6.8 1-.1.1-.1.2-.1.3zm-.3-5.6c.4.1.7.3.9.4.1.1.1.2.1.3v.3c-.1.3-.2.7-1 .6 0 0-.1 0-.2-.1 0-.5 0-.8.2-1.5z"/><path id="path3399" class="st0" d="M-103.5 478.6l-5.3 10.9 3 .2s.8-1.7 1.1-2.4c.6.1 1.3.1 1.9.1.2.7.8 2.6.8 2.6l4 .3-4.5-14-1 2.3"/><path id="path3401" class="st0" d="M-91.5 487.2c-.1-1.6-.4-8.8-.4-8.8l-3.8.2.5 11.6 7.7-.3-.1-2.8c-.1 0-2.8.1-3.9.1"/><path id="path3403" class="st0" d="M-81 486.1c-.2-1.6-1.4-8.7-1.4-8.7l-1 .2-2.8.4 1.8 11.5 7.6-1.2-.4-2.8s-2.7.5-3.8.6"/><path id="path3405" class="st0" d="M-59 478.4c0 1-.6 1.9-1.5 2.2-.5.2-1 .2-1.5 0-.7-.3-1.4-1.1-1.8-2.2-.5-1.2-.6-2.3-.3-3 .2-.5.6-.9 1.3-1.2.7-.3 1.4 0 2.3.5l.9.5 1.4-2.2-.8-.6c-1.5-1-3.4-1.2-5.1-.6-1.5.6-2.7 1.8-3.3 3.2-.6 1.5-.6 3.2 0 4.8 1.2 3 4.7 4.5 7.7 3.3 2.2-.9 3.4-2.5 3.6-4.8l.1-1-2.8-.2-.2 1.3"/><path id="path3407" class="st0" d="M-50.1 475.2c-.8-1.4-4.3-7.7-4.3-7.7l-.9.5-2.5 1.4 5.7 10.1 6.7-3.7-1.4-2.4s-2.3 1.3-3.3 1.8"/><path id="path3409" class="st0" d="M-42.7 459.6l-.8.6-1.4 1.1 4.7 6.4c.2.3.2.5.2.6 0 .3-.4.7-.7.9-.1.1-.5.2-.8.2-.2 0-.4-.2-.6-.4l-4.6-6.3-3.1 2.3 4.6 6.3c.7.9 1.5 1.5 2.5 1.6 1.1.2 2.4-.2 3.6-1.1 2.4-1.8 2.4-4.1 1.3-5.6l-4.9-6.6"/><path id="path3411" class="st0" d="M-28.6 457.3c-.7-.7-1.6-1.1-2.5-1-.1-.7-.3-1.4-.9-2-1-1-3.1-1.8-5.1.2l-3.6 3.5 8.1 8.3 3.6-3.5c1.2-1.1 1.4-2.2 1.4-2.9.1-1-.3-1.9-1-2.6m-6.1-.3c.1.1.3.3.3.5s-.1.4-.4.6l-.2.2c-.5-.5-.7-.7-1.1-1.2.8-.7 1.2-.4 1.4-.1zm2 2.9c.7-.6 1.3-.1 1.5.1.2.2.4.4.4.6 0 .2-.2.5-.5.8l-.3.3c-.5-.5-.9-.9-1.4-1.5l.3-.3z"/><path id="path3413" class="st2" d="M-155.2 456.5l2.7 2.6.8-.8-4.3-4.1-.2.2-6.8 7.1 1.7 1.6s2.9-3 3.2-3.4l2.4 2.3.8-.8-2.4-2.3c.1-.3 1.8-2.1 2.1-2.4"/><path id="path3415" class="st2" d="M-144.8 463.3c-1.1-.8-2.4-1.1-3.6-.9-1.4.2-2.6 1.1-3.5 2.3-.9 1.2-1.2 2.7-1 4.1.2 1.3.9 2.4 2 3.2 1.1.8 2.4 1.1 3.6.9 1.4-.2 2.6-1 3.5-2.3.7-1 1.1-2.1 1.1-3.2 0-.3 0-.6-.1-.8-.2-1.4-1-2.5-2-3.3m-1 5.9c-.7 1-2.6 3.3-4.5 1.9-1.9-1.3-.4-3.9.3-4.9.7-1 2.6-3.3 4.5-1.9 1.9 1.3.4 3.8-.3 4.9z"/><path id="path3417" class="st2" d="M-133.9 470c-2.5-1.3-5.5-.2-6.9 2.5-.7 1.4-.8 2.8-.4 4.2.4 1.2 1.3 2.2 2.5 2.8 1.2.6 2.5.7 3.7.3 1.3-.4 2.4-1.4 3.1-2.8 1.5-2.7.6-5.7-2-7m-4.2 8.4c-2.1-1-1-3.8-.4-4.9.6-1.1 2.1-3.6 4.2-2.6.5.3.9.7 1.1 1.2.4 1.2-.3 2.8-.7 3.7-.4.8-1.3 2.3-2.6 2.7-.6.3-1.1.2-1.6-.1z"/><path id="path3419" class="st2" d="M-126.7 473.8l-.3.8s1.4.5 1.8.6c-.2.5-3 8.4-3 8.4l2.2.8s2.8-8 3-8.4c.4.1 1.8.6 1.8.6l.4-1.1-5.8-2-.1.3"/><path id="path3421" class="st2" d="M-112.6 477.6l-4.1-.9-.1.2-2 9.6 4.2.9c1.1.2 2 .1 2.7-.3.6-.4 1-1 1.2-1.8 0-.2.1-.4.1-.6 0-.8-.4-1.6-1.2-2.1.9-.2 1.5-.9 1.7-1.8 0-.1.1-.3.1-.5-.2-.9-.7-2.3-2.6-2.7m-1.5.9c.7.1 1.2.4 1.4.8.1.2.2.5.2.8 0 .1 0 .3-.1.5-.3 1.3-1.3 1.3-1.9 1.1 0 0-.6-.1-1-.2.1-.4.6-2.7.6-3.1.4 0 .8.1.8.1zm-.3 4.3c1.2.2 1.4 1.2 1.4 1.7v.4c-.1.6-.3.9-.7 1.1-.3.2-.8.3-1.5.1 0 0-.8-.2-1.2-.2.1-.4.6-3.1.7-3.5.4.2 1.3.4 1.3.4z"/><path id="path3423" class="st2" d="M-102.8 478.9l-4.8 9.9 1.4.1s1-2.1 1.2-2.4c.3 0 2.6.2 2.9.2l.8 2.6 2.4.2-3.6-11.1-.3.5m-.5 4c.2.7.7 2.2.8 2.6-.5 0-1.6-.1-2-.2.2-.4.9-1.7 1.2-2.4z"/><path id="path3425" class="st2" d="M-92.2 488c0-.5-.4-8.8-.4-8.8h-.2l-2.1.1.4 10.1 6.1-.3-.1-1.3c.1.1-3.3.2-3.7.2"/><path id="path3427" class="st2" d="M-81.6 487c-.1-.5-1.4-8.7-1.4-8.7h-.2l-2 .3 1.6 10 6.1-1-.2-1.2c-.1 0-3.5.5-3.9.6"/><path id="path3429" class="st2" d="M-58.3 478.4c0 1.3-.8 2.4-2 2.9-.7.3-1.4.3-2.1 0-.9-.4-1.8-1.3-2.3-2.6-.6-1.4-.6-2.6-.3-3.6.3-.7.9-1.2 1.7-1.6 1.1-.4 2.1.1 3 .6l.2.1.6-1-.2-.1c-1.3-.9-3-1.1-4.4-.5-1.3.5-2.4 1.5-2.9 2.8-.6 1.3-.6 2.8 0 4.2 1.1 2.7 4.1 4 6.7 2.9 1.9-.8 2.9-2.1 3.1-4.1v-.3l-1.2-.1.1.4"/><path id="path3431" class="st2" d="M-50.4 476.3c-.2-.4-4.3-7.7-4.3-7.7l-.2.1-1.8 1 4.9 8.8 5.4-3-.6-1.1s-3 1.7-3.4 1.9"/><path id="path3433" class="st2" d="M-42.8 460.7l-.2.2-.8.6 4.3 5.8c.3.4.4.8.3 1.2-.1.7-.7 1.2-1 1.4-.3.2-.9.4-1.4.3-.4-.1-.8-.3-1.1-.7l-4.2-5.7-1.9 1.4 4.2 5.7c.6.8 1.2 1.2 2 1.3 1.2.2 2.4-.5 3-.9 2-1.5 2-3.3 1.2-4.5l-4.4-6.1"/><path id="path3435" class="st2" d="M-29.1 457.8c-.8-.8-1.8-1-2.8-.6.1-.2.1-.5.1-.7 0-.6-.2-1.2-.7-1.7-.6-.7-2.3-1.5-4 .2l-3 2.9 7 7.2 3.1-3c.8-.8 1.2-1.6 1.2-2.4-.1-.6-.3-1.3-.9-1.9m-4.5-.3c0 .5-.3.9-.6 1.2l-.7.7-2.2-2.3.5-.5c.9-.9 1.8-1 2.5-.2.3.4.5.8.5 1.1zm1.9 5.3l-2.5-2.6c.3-.2.9-.9.9-.9 1.2-1.2 2.5.1 2.5.1.4.4.6.8.6 1.2 0 .4-.2.9-.7 1.3.1 0-.5.6-.8.9z"/><path id="path3437" class="st0" d="M-141.8 328.3l-4.2 1.1.5 1.5c.6 1.8.1 3.8-1.4 5-.8.7-1.7 1-2.7.9-1.5-.1-3.3-1.1-4.7-2.7-1.6-1.9-2.4-3.6-2.3-5.1.1-1.1.6-2.1 1.6-3 1.1-1 2.6-1 4.5-.6l1.4.3.9-4.1-1.5-.4c-3.1-.8-6.4 0-8.7 2-4.6 4-4.9 10.5-.9 15.2 3.8 4.3 10.4 4.8 14.6 1.1 3.1-2.7 4.2-6.1 3.1-10l-.2-1.2"/><path id="path3439" class="st0" d="M-130.3 307l-4.3 2s2.4 5.1 3.2 6.9c-1.2.6-2.4 1.1-3.7 1.7-.8-1.8-3.2-6.9-3.2-6.9l-5.7 2.7 8.7 18.4 5.7-2.7s-2.7-5.7-3.6-7.5c1.2-.6 2.4-1.1 3.7-1.7.9 1.8 3.5 7.5 3.5 7.5l5.7-2.7-8.7-18.4-1.3.7"/><path id="path3441" class="st0" d="M-111 318.4c-.3-1.4-.6-2.8-.8-4.1 1.8-.4 6.4-1.3 6.4-1.3l-.8-4.1s-4.7.9-6.4 1.3c-.3-1.3-.5-2.3-.7-3.6 1.8-.4 6.8-1.4 6.8-1.4l-.8-4.1-1.5.3-11.5 2.3 4 19.9 13.1-2.6-.8-4.1c-.1.1-5.2 1.1-7 1.5"/><path id="path3443" class="st0" d="M-92.4 300.7l-6.3-.1v1.5l-.4 18.8 13.2.3.1-4.4s-5.1-.1-6.9-.1c0-2.5.3-16 .3-16"/><path id="path3445" class="st0" d="M-72 311c-1.6-1.2-2.1-1.7-1.9-2.3.1-.3.5-1.4 1.6-1.1.7.2 1.4.6 1.7 2.1l.3 1.7 4.2-1.4-.3-1.3c-.5-2.6-2.7-4.8-5.4-5.4-2-.5-3.9-.2-5.5.7-1.5.9-2.5 2.3-2.9 3.9-1 4.2 1.8 6.2 3.6 7.5 1.9 1.4 2.4 1.9 2.1 3-.1.4-.3.6-.6.8-.4.2-.9.3-1.2.2-1-.2-1.4-.7-1.9-2l-.5-1.6-4.2 1.7.4 1.3c.8 2.6 2.7 4.2 5.7 5 3.4.9 7.6-.7 8.6-4.9 1.1-4.3-1.8-6.5-3.8-7.9"/><path id="path3447" class="st0" d="M-57 321.8c1.6.8 5.9 3 5.9 3l1.9-3.7s-4.3-2.1-5.9-3c.6-1.1 1.1-2.1 1.6-3.2 1.7.8 6.2 3.1 6.2 3.1l1.9-3.7-11.8-6-.7 1.4-8.5 16.8 11.9 6 1.9-3.7s-4.6-2.3-6.3-3.2c.7-1.3 1.3-2.5 1.9-3.8"/><path id="path3449" class="st0" d="M-33.4 323.7l-19 9.8 3.6 3.2s3.1-1.7 4.3-2.3l2.9 2.5c-.4 1.2-1.6 4.6-1.6 4.6l5 4.4L-30 322l-3.4 1.7"/><path id="path3451" class="st2" d="M-142.5 329.5l-2.2.6.2.5c.7 2.2.1 4.6-1.7 6.1-1 .9-2.2 1.3-3.5 1.2-1.8-.1-3.8-1.2-5.4-3-1.8-2.1-2.7-4.1-2.6-5.9.1-1.4.8-2.6 2-3.7 1.6-1.4 3.6-1.1 5.4-.8l.5.1.5-2.1-.5-.1c-2.8-.7-5.7 0-7.8 1.8-4.1 3.6-4.5 9.5-.8 13.8 3.4 3.9 9.3 4.3 13.2 1 2.8-2.5 3.7-5.5 2.8-8.9l-.1-.6"/><path id="path3453" class="st2" d="M-129.9 307.9l-3.4 1.6s2.9 6.1 3.2 6.9c-.7.3-4.8 2.3-5.5 2.6-.4-.8-3.2-6.9-3.2-6.9l-3.9 1.8 7.8 16.6 3.9-1.8s-3.2-6.7-3.6-7.5c.7-.3 4.8-2.2 5.5-2.6.4.8 3.6 7.5 3.6 7.5l3.9-1.8-7.8-16.6-.5.2"/><path id="path3455" class="st2" d="M-111.8 319.6c-.2-.8-1.1-5.3-1.2-6.1.8-.2 6.4-1.3 6.4-1.3l-.4-2.1s-5.6 1.1-6.4 1.3c-.2-.8-1-4.8-1.1-5.5.9-.2 6.8-1.4 6.8-1.4l-.4-2.1-11 2.2 3.6 17.9 11.1-2.2-.4-2.1c-.1 0-6.2 1.2-7 1.4"/><path id="path3457" class="st2" d="M-93.5 301.7l-4.3-.1v.5l-.4 17.8 11.2.2.1-2.4s-6.1-.1-6.9-.1c0-.9.3-15.9.3-15.9"/><path id="path3459" class="st2" d="M-72.1 306.5c1.4.3 2.1 1.2 2.5 2.9l.1.6 2.2-.8-.1-.4c-.4-2.2-2.3-4.1-4.7-4.7-1.7-.4-3.4-.2-4.8.6-1.2.7-2.1 1.9-2.5 3.3-.9 3.5 1.4 5.1 3.2 6.4 1.8 1.3 3 2.2 2.5 4.1-.2.8-.7 1.2-1.1 1.5-.6.4-1.4.5-2 .3-1.4-.3-2-1.1-2.6-2.7l-.2-.5-2.3.9.1.4c.7 2.2 2.3 3.6 5 4.3 3 .7 6.5-.6 7.4-4.1.9-3.7-1.5-5.5-3.5-6.9-1.7-1.2-2.7-2-2.3-3.4.6-1.1 1.6-2.2 3.1-1.8"/><path id="path3461" class="st2" d="M-53.9 313.5l6.2 3.1 1-1.9-10-5.1-.2.5-8 15.9 10.1 5.1 1-1.9-6.3-3.2c.4-.7 2.4-4.8 2.8-5.6l5.9 3 1-1.9-5.9-3c.2-.7 2.1-4.3 2.4-5"/><path id="path3463" class="st2" d="M-32.9 324.6l-17.6 9.1 2 1.7s3.7-2 4.3-2.3c.4.4 3.5 3.1 4 3.5l-1.6 4.6 3.3 2.9 6.8-20.1-1.2.6m-9.4 7.6c.8-.4 3-1.5 4.3-2.2-.5 1.4-1.3 3.7-1.6 4.5-.7-.6-2-1.8-2.7-2.3z"/><path id="path3465" class="st3" d="M-45.2 394.5c-1.4-3.8-6.4-5.5-11.1-3.7-2 .7-3.6 2-4.7 3.4 3.1-8.9 15.8-10.8 15.8-19 0-13.8-19.6-10-16.8 0 0-4.5 7.2-5.3 7.2 0 0 5.4-12.5 8.9-12.5 17.9 0 10 10 10.9 9 20-.2 1.6-1.9 3.6-4.3 3.6-15.3 0-9.8-18.8-15.1-24.5l.3-3.9c3.1 1.9 11.3-2.5 5.9-9.3 0 3.3-6.9 3.1-6.9-3.1 0-8.5 7.9-4.1 8.3-2.2-.4-3.1-.5-5.1 0-6.8-4.3 1.4-4.7-1.1-4.1-2.1.6-1.1 1.4-2.4 3.1-2.4.9 0 1.4.1 1.8.3.5.4.9-.5.8.3.5-.7.3.2.7-.5.4-.7 1.1-1.5 2.1-2.5v-1.6l1.2.5 1.2-1.9c-1.3-2.7-3-1.4-4.3-4.7-1.1-.3-17.9 1.5-17.4-5.2-1.4 0-4.6.8-2.6 3.5-1.6.2-2.7-1.6-5 3.2 2.9-.6 1.4 2.7 1.4 3.7 0 6.1-8.1 6-8.1 3.1-2 1.9-.8 6 2.1 7.1 0 0-1.1 4.4-3.9 7.2-4.1-.2-10.7-.9-14.5-4.5-1.6-1.5-2.9-2.4-4-2.8v-2c1.6-.8 3.4-2.2 5.2-4.5 1.4-1.8 2.2-4 2-6.4 0-.3-.1-.6-.1-.8 0-.1 0-.2-.1-.3 0-.2-.1-.4-.1-.6 0-.1-.1-.2-.1-.3-.1-.2-.1-.4-.2-.6 0-.1-.1-.2-.1-.2-.1-.2-.2-.5-.3-.7-.1-.1-.1-.2-.2-.3-.1-.1-.2-.3-.3-.4-.1-.1-.1-.2-.2-.3-.1-.1-.2-.2-.2-.3l-.3-.3-.2-.2c-.2-.3-.5-.5-.8-.7l-.1-.1c-.2-.1-.3-.3-.5-.4l-.1-.1c-.2-.1-.3-.2-.5-.3-1.7-1.1-3.8-1.6-6-1.4-5.3.4-9.3 4.9-8.8 9.9.3 3.9 3.2 7.1 7 8.1-1.3.7-2.4 1.2-2.7 1.2 0 0 .1.1.2.1h.1c.1 0 .1.1.2.1h.1c.1 0 .2.1.3.1h.1c.1 0 .2.1.3.1h.1c.2.1.5.2.8.3h.1c.1 0 .2.1.4.1h.1c.2 0 .3.1.5.1v1.1h-.2c-1.7.3-2.8.8-3.4 2.4-.5 1.5 0 2.1.8 3.2-.7 1.2-2.5 1.7-.1 4.4-.2 1 0 2.6 1.5 3.1.5.2.9.3 1.3.3v20.2c-1.5.8-2.2 1.8-2.6 2.7 0 0-1.2-2.6-1.1 2.6 1.3-1 .8 1.2.8 1.2-1.8 2.4.5 2.3.5 2.3 1.6-1.6 1.3.7 1.3.7 0 2.8 1.1 3.9 1.1 3.9V430h-1.3v4.3h2.4c-1.3.5-2.2 1.9-2.1 3.3.2 1.8 1.8 3.2 3.7 3 1.9-.2 3.3-1.7 3.2-3.6-.1-1.3-.9-2.3-2.1-2.8h2.2v-4.3h-1.3v-13.7l.9.3h.6c-.3-1.8.7-3 .7-3 .6-.8 1.3-1.5 2.3-1.9 2.7-1.4 6.4-1 7.5 1.2 7-1.8 13-8.9 13-8.9l3.5 5.9c-7.3 2.4-23.3 16.3-12.2 21.1 0 1.4-.2 11.8-6.8 10.9-9.6-1.2-12 2.8-10.1 7.2-.9 3.8 2 5.1 2 5.1-.4-2.2.6-4 4.6-3.9 0 4 2.5 4.7 2.5 4.7 0-3.4 2.4-4.6 4.5-4.6 0 2.8 3.2 3.9 3.2 3.9s-.8-3.2 2.8-3.9c9.3-1.6.6-11.2 14.7-13.8 0 0-7-1.1-7-4.9 0-3.5 6.4-5.9 8.6-5.9 4.5 8.6 9.4 8.7 10.7 8.7 2 2.2 1.3 9.7-1.6 9.6-10.5-.6-10.1 5.8-9 7.1-.1 2.5 1.8 3.9 1.8 3.9 0-2.7 2.5-3.4 5.8-3.2-.2 3.3 1.9 3.7 1.9 3.7.1-3.3 2.5-3.8 4.2-3.7-.1 2.3 2.1 3 2.1 3S-69 452-66 452c5.8 0-2.6-12.5 8.7-24.8-10 4.6-15.3-6.9-15.3-9.1 5.1 6 21.7 7.2 21.7-3 0-9.8-10.7-13.4-5.7-17.2 2.9-2.2 8.7 2.2 5.4 6.8 4.8-1.8 7.4-6.4 6-10.2m-63.7.3c-3.8 2.2-6.3 5-9.7 6.2-.5.2-.9.2-1.3.2v-19.1c.9.1 3.3.4 6 1.5 2.7 1.5 2.7 4.6-.7 5.3 2.2 4.2 9.7 2.1 11.4-1.3.8-.1 1.5 1.4 2.2 2.7-1.1.7-3.3 1.8-7.9 4.5zm42-31.6c-.4.6-.8 1.1-1.2 1.6 1 1.6 2.7 2.6 4.7 2.4 2.7-.3 4.7-2.7 4.5-5.4v-.3c-.3 1.4-1.9 2.6-4.1 2.8-1.6.1-3-.3-3.9-1.1z"/><path id="path3467" class="st1" d="M-127.6 351.7c0-.1.1-.2.1-.3 0 .1 0 .2-.1.3m.2 80.1zm-.1-88.3zm-1.4 87.8h2.4c-.3.1-.5.3-.8.5.2-.1.5-.1.7-.1 1.2 0 2.1 1 2.1 2.1 0 1.2-1 2.1-2.1 2.1-1 0-1.8-.6-2-1.5v.2c.2 1.8 1.8 3.2 3.7 3 1.9-.1 3.3-1.7 3.2-3.6-.1-1.2-.9-2.3-2.1-2.7h2.2V427h-1.3v-13.7c-1.3-.7-2-2.1-1.7-3.6.8 0 1.5.2 2 .5-.7 1.6 1.1 3.4 1.1 3.4-.3-1.8.7-3 .7-3 .6-.8 1.4-1.5 2.3-1.9 2.7-1.4 6.4-1 7.5 1.2 7-1.8 13-8.9 13-8.9l3.5 5.9c8.1 0 5.3-6.1 4.7-6.6 1.9 0 4.5 1.4 4.5 4.4 0 7.5-21.7 8.5-21.7 17.6 0 3.8 3.8 5.2 3.8 5.2 0 8.2-5.7 13.1-9.5 13.1-6.2 0-10.9-1.3-10.9 5.5h2.2c-2.1 2.1-.1 5.1-.1 5.1-.4-2.2.6-4 4.6-3.9h2.5c-1.6 1.6-.7 3.9.1 4.7 0-3.4 2.4-4.6 4.5-4.6h1.8c-.5.5.3 2.7 1.4 3.9 0 0-.8-3.2 2.8-3.9 9.3-1.6.6-11.2 14.7-13.8 0 0-7-1.1-7-4.9 0-3.5 6.4-5.9 8.5-5.9 1.7-.2 3.4-.2 4.8.1.6 5.5 6.9 5.3 8.3 5.3 5.4 5.4-1.4 14.1-1.4 14.1-8.3 0-11.6 1.1-11.6 6h1.6c-.9.9-.4 3.3.2 3.9 0-2.7 2.5-3.4 5.8-3.2h1.7c-.8.8-.7 2.9.2 3.7 0-3.3 2.5-3.8 4.2-3.7h1.4c-.5.5 0 2.2.7 3 0 0-.2-2.9 2.8-2.9 5.8 0-2.6-12.5 8.7-24.8-10 4.6-15.3-6.9-15.3-9.1 5.1 6 21.7 7.2 21.7-3 0-8.3-7.7-12.1-7-15.4.2-2.5 2.3-4.5 4.9-4.5 2.7 0 4.9 2.2 4.9 4.9 0 2.1-1.3 3.8-3.1 4.5 4.7-1.7 7.3-6.3 5.9-10.1-1.5-3.8-6.4-5.5-11.1-3.7-2 .7-3.6 2-4.7 3.4 3.1-8.9 15.8-10.8 15.8-19 0-13.8-19.7-10-16.8 0v-.4c.5-5.6 10.6-6.8 10.6.6 0 6.3-12.9 9.7-12.9 18.2 0 8.7 9.5 10.8 9.5 20 0 1.1-.6 5.8-6.9 5.8-6.1 0-9-3.4-10.7-7.9-3.1-6-2-15.4-5.5-19.1l.3-3.9c3.1 1.9 11.3-2.5 5.9-9.3 0 3.3-6.9 3.1-6.9-3.1 0-8.5 7.9-4.1 8.3-2.2-.4-3.1-.5-5.1 0-6.8-4.3 1.4-4.7-1.1-4.1-2.1.6-1.1 1.5-2.4 3.1-2.4 2.4 0 2.3.9 2.1 2.1.9-1.4 1.2-2.4 3.3-4.5v-1.6l1.2.5 1.2-1.9c-1.3-2.7-3-1.4-4.3-4.7-1.1-.3-15.2-1.6-14.7-8.3-1.2 0-4.7 4.3-2.4 6.6h-2.9c-1.6.2-5.2-.9-7.6 3.9 5.8-5.8 9.5 8-1.1 8-1.6 0-2.9-.7-3-1.8-1.1 4.7 5.7 6.1 5.7 6.1 0 1.4-3.4 8.9-5 10.5 1.1 1.1 1.4 7.8-3.7 7.8 1.8-5-3.6-9.2-8.8-12-.9-.4-1.9-.8-2.7-1.3-3.2-1.5-5.8-2.3-5.8-2.3v-3.9c1.6-.8 3.4-2.2 5.2-4.5 1.4-1.8 2.2-4 2-6.4 0-.3-.1-.6-.1-.8 0-.1 0-.2-.1-.3 0-.2-.1-.4-.1-.6 0-.1-.1-.2-.1-.3-.1-.2-.1-.4-.2-.6 0-.1-.1-.2-.1-.2-.1-.2-.2-.5-.3-.7 0-.1-.1-.2-.2-.3-.1-.1-.2-.3-.3-.4-.1-.1-.1-.2-.2-.3-.1-.1-.2-.2-.2-.3l-.3-.3-.2-.2c-.2-.3-.5-.5-.8-.7l-.1-.1c-.2-.1-.3-.3-.5-.4l-.1-.1c-.2-.1-.3-.2-.5-.3-1.7-1.1-3.8-1.6-6-1.4-.5 0-.9.1-1.4.2-3.1 1.2-5.3 4.7-5.3 9 0 4 2 7.4 4.8 8.8h.1c-1.3.7-2.4 1.2-2.7 1.2 0 0 .1.1.2.1s.1.1.2.1h.1c.1 0 .2.1.3.1.1 0 .2.1.3.1h.1c.2.1.5.2.8.3h.1c.1 0 .2.1.3.1h.1c.2 0 .3.1.5.1 1 .1 2.2-.2 2.2-.2v2.3c-.2 0-1.8-.5-2.2-.9h-.2c-1.7.3-2.8.8-3.4 2.4-.5 1.5 0 2.1.8 3.2-.7 1.2-2.5 1.7-.1 4.4-.2 1 0 2.6 1.5 3.1.5.2.9.2 1.3.3.9 0 2.2.7 2.2 2.6v17c.8 0 1.7.2 2.5.2v-19.1c.9.1 3.3.4 6 1.5 0 0 .1 0 .1.1.3 0 .5.1.8.2 1.8.6 3 2.2 2.5 3.6-.4 1.4-2.3 2.1-4.1 1.5 2.2 4.2 9.7 2.1 11.4-1.3.8-.1 1.5 1.4 2.2 2.7 0 0 1.9.7 6.6.7 0 0-18.9 12.1-24.4 12.1-2.3 0-7.5 0-7.5 1.8-1.4 0-3.5 2.4-3.5 3.8 1.3-1.1 2.4-1.1 2.4-1.1 1.1 0 1.8.3 1.8.3-.4.4-2.3 2.5-2.3 4.2 1.6-1.6 2.3-1.6 2.3-1.6s1.7-.2 2.2.4c-.4.4-1.1 1.8-1.1 3.5 0 0 1-1.9 2.2-1.9v18.2c0 .6-2.5 1.1-3.5 1.1m.6-52.6c-.5 0-.7-.6-.7-.8 0-.2.2-.8.6-.9 1.1 0 3.3.5 3.3.7.1.3-2.1 1-3.2 1zm-.7-3c-.6 0-.9-.9-.8-1.2 0-.3.4-1.1 1-1.1 1.5.1 4.5 1.2 4.5 1.5-.1.3-3.2.9-4.7.8zm-.2-3.8c-.7-.2-.7-1.2-.7-1.5.1-.3.6-1.1 1.3-1 1.6.4 4.6 2.2 4.5 2.5-.1.3-3.5.4-5.1 0zm5-10.9c.3-.7.2-1.6 0-2.5h-.1c-2 0-3.5-1.6-3.5-3.5 0-.3 0-.7.1-1 .4-1.5 1.8-2.6 3.4-2.6 1.9 0 3.5 1.6 3.5 3.5.1 2.4-1.5 4.5-3.4 6.1z"/><path id="path3469" class="st4" d="M-71.1 361.7c.9 1.6 2.7 2.6 4.7 2.4 2.7-.3 4.7-2.7 4.5-5.4v-.3c-.3 1.4-2 2.6-4.1 2.8-1.6.1-3-.3-3.9-1.1-.4.6-.8 1.2-1.2 1.6"/><path id="path3471" class="st2" d="M-77.7 352.6l1.7.1-.9 1.2c.1-.1-1.1.3-.8-1.3m-4.1 0h2.5s-.1 2 1.7 2.2l-.4.6s-4.8-1.3-3.8-2.8z"/><path id="path3473" class="st5" d="M-124 369.5c.1-.3-2.9-2.1-4.5-2.5-.7-.2-1.2.6-1.3 1-.1.3 0 1.3.7 1.5 1.6.4 5 .3 5.1 0m-.2 3c0-.3-2.9-1.4-4.5-1.5-.6 0-1 .8-1 1.1 0 .3.2 1.2.8 1.2 1.5.1 4.7-.5 4.7-.8zm-3.4-9v1.1c.4.4 2 .9 2.2.9v-2.3c0 .2-1.2.4-2.2.3zm-.6 11.1c-.5 0-.6.6-.6.9 0 .2.2.8.7.8 1.1 0 3.3-.7 3.3-1-.1-.2-2.3-.7-3.4-.7zm-2.3 30.2c-1.8 2.4-.5 4.5-.5 4.5 0-1.7 1.9-3.8 2.3-4.2 0 0-.7-.3-1.8-.3zm5.8 5c-.3 1.5.4 2.9 1.7 3.6l.9.3c.1 0 .3 0 .4.1h.2s-1.9-1.7-1.1-3.4c-.5-.4-1.3-.6-2.1-.6zm-3.3-48.5c-2.8-1.4-4.8-4.8-4.8-8.8 0-4.2 2.2-7.8 5.3-9-4.6 1-7.8 5.1-7.4 9.7.3 3.9 3.2 7 6.9 8.1zm29.5-9.8c3-.6 4 2.1 4 3 0 3.6-2.8 5-5.1 5 10.7 0 6.9-13.8 1.1-8zm-7.1 30.6c5.1 0 4.8-6.7 3.7-7.8 1.6-1.6 5-9.1 5-10.5 0 0-6.7-1.4-5.6-6.1h-.1c-1.8 1.9-.7 6 2.2 7 0 0-1.1 4.4-3.9 7.2-2.8-.1-6.6-.5-10-1.8 5.1 2.9 10.5 7.1 8.7 12zm-19.9-31.9c1.3-.1 2.5.8 2.6 2.1.1 1.3-.9 2.4-2.2 2.5-1.3.1-2.5-.8-2.6-2.1 0 1.9 1.6 3.5 3.5 3.5h.1c.2.9.2 1.8 0 2.5 1.9-1.7 3.5-3.7 3.5-6 0-2-1.6-3.5-3.5-3.5-1.6 0-3 1.1-3.4 2.6.2-.9 1-1.5 2-1.6zm37.5-2.6c-2.3-2.3 1.1-6.6 2.4-6.6-1.4 0-7.3 3.9-5.3 6.6h2.9zm-29.6 38.4c1.8.6 3.7-.1 4.1-1.5.4-1.4-.7-3-2.5-3.6-.3-.1-.5-.1-.8-.2 2.6 1.5 2.6 4.5-.8 5.3zm-5.3-19.5s2.6.8 5.8 2.3c-.6-.4-1.3-.9-1.8-1.4-1.6-1.5-2.9-2.4-4-2.8v1.9zm.9 33.7c5.5 0 24.4-12.1 24.4-12.1-4.7 0-6.6-.7-6.6-.7-1.1.6-3.2 1.6-7.8 4.4-3.8 2.2-6.3 5-9.7 6.2-.5.2-.9.2-1.3.2-.8-.1-1.7-.2-2.5-.2v-17.4c0-1.8-1.3-2.6-2.2-2.6v20.2c-1.5.8-2.2 1.8-2.6 2.7 0 0-2.8-.4-2.7 4.8 0-1.4 2.1-3.8 3.5-3.8 0-1.7 5.2-1.7 7.5-1.7zm47.3 28c-1.4 0-7.8.3-8.3-5.3-1.4-.3-3-.4-4.8-.1 4.5 8.6 9.4 8.7 10.7 8.7 2 2.2 1.3 9.7-1.6 9.6-10.5-.6-10.1 5.8-8.9 7.1 0-4.8 3.3-6 11.6-6-.1.1 6.7-8.6 1.3-14zm2.1 20.7H-74c-.1 2.3 2.2 3 2.2 3-.8-.7-1.3-2.4-.8-3zm-13.3 3.3c-.6-.6-1.1-3-.2-3.9h-1.6c-.1 2.4 1.8 3.9 1.8 3.9zm31.4-79.9c0-7.3-10.1-6.2-10.6-.6.4-4.1 7.2-4.7 7.2.4 0 5.4-12.5 8.9-12.5 17.9 0 10 10 10.9 9 20-.2 1.6-1.9 3.6-4.3 3.6-5.2 0-8.1-2.2-9.7-5.4 1.7 4.5 4.6 7.9 10.7 7.9 6.3 0 6.9-4.7 6.9-5.8 0-9.1-9.5-11.3-9.5-20-.1-8.3 12.8-11.7 12.8-18zm-74.3 35.4c0 2.8 1.1 3.9 1.1 3.9 0-1.7.7-3.1 1.1-3.5-.5-.6-2.2-.4-2.2-.4zm72.8-15.5c-2.6 0-4.6 2-4.9 4.5.1-.6.5-1.2 1.3-1.8 2.9-2.2 8.7 2.2 5.4 6.7 1.8-.7 3.1-2.5 3.1-4.5 0-2.7-2.2-4.9-4.9-4.9zm-22.4 56.7h-1.7c-.2 3.2 1.9 3.7 1.9 3.7-.9-.8-1-2.8-.2-3.7zm-48.2-17.3c-.3 0-.5.1-.7.1-.8.6-1.3 1.6-1.3 2.6.3.9 1.1 1.5 2 1.5 1.2 0 2.1-1 2.1-2.1s-.9-2.1-2.1-2.1zm12 15.8h-2.5c0 4 2.5 4.7 2.5 4.7-.7-.8-1.6-3.2 0-4.7zm7.6-25c0-9 21.7-10.1 21.7-17.6 0-3-2.6-4.4-4.5-4.4.5.5 3.3 6.6-4.7 6.6-7.3 2.4-23.3 16.3-12.2 21.1 0 1.4-.2 11.8-6.8 10.9-9.6-1.2-12 2.8-10.1 7.2 0-6.8 4.7-5.5 10.9-5.5 3.9 0 9.5-4.9 9.5-13.2 0 .1-3.8-1.3-3.8-5.1zm-18.4 5.5v-18.2c-1.2 0-2.2 1.9-2.2 1.9v15.5-.1h-1.3v2c1 0 3.5-.5 3.5-1.1zm3.7 23.4s-1.9-3 .1-5.1h-2.2c-.8 3.8 2.1 5.1 2.1 5.1zm13.4-3.9h-1.8c0 2.8 3.2 3.9 3.2 3.9-1.1-1.2-1.9-3.4-1.4-3.9z"/><path id="path3477" class="st2" d="M-168.6 417.2l-.1-.4-.1-.4c-.2-1.3-.5-3.7-2.4-4.2-.5-.1-1-.1-1.6.2.2-.6.1-1.1 0-1.6-.7-1.8-3.1-1.8-4.5-1.8h-.4l-.4-.1c-1.3-.2-3.7-.7-4.7 1-.3.4-.4 1-.3 1.5-.5-.3-1-.5-1.5-.4-1.9.1-2.7 2.4-3.1 3.7l-.1.4-.2.3c-.6 1.2-1.8 3.3-.5 4.8.3.4.8.6 1.4.8-.5.4-.8.8-.9 1.3-.5 1.9 1.5 3.3 2.6 4l.3.2.3.3c.9 1 2.6 2.7 4.4 2 .5-.2.9-.6 1.2-1.1.2.6.5 1 1 1.2 1.6 1 3.6-.4 4.6-1.2l.3-.2.3-.2c1.2-.6 3.4-1.6 3.2-3.5 0-.5-.3-1-.6-1.4.6 0 1.1-.2 1.5-.5 1.5-1.1.8-3.4.3-4.7"/><path id="path3479" class="st4" d="M-177 418.8c10.8 6.4 7.5-.6 7.2-1.7-.2-1-.3-8.8-7.2 1.7"/><path id="path3481" class="st4" d="M-177.7 420.4c-2.7 12.2 2.9 6.9 3.8 6.4.9-.6 8.3-3.1-3.8-6.4"/><path id="path3483" class="st4" d="M-179.4 420.3c-12.5 1.2-5.7 4.9-4.9 5.6.8.6 5.4 6.9 4.9-5.6"/><path id="path3485" class="st4" d="M-179.8 418.6c-5-11.5-6.4-3.9-6.8-2.9-.5.9-5 7.3 6.8 2.9"/><path id="path3487" class="st2" d="M-1.6 415.6l-.2-.3-.1-.4c-.4-1.3-1.1-3.6-3.1-3.7-.5 0-1 .1-1.5.4 0-.6-.1-1.1-.3-1.5-1-1.7-3.4-1.2-4.7-1l-.4.1h-.4c-1.3 0-3.8 0-4.5 1.8-.2.5-.2 1-.1 1.6-.5-.2-1.1-.3-1.6-.2-1.9.4-2.2 2.9-2.4 4.2l-.1.4-.1.4c-.4 1.2-1.2 3.6.3 4.8.4.3.9.5 1.5.5-.4.5-.6.9-.6 1.4-.2 1.9 2 3 3.2 3.5l.3.2.3.2c1.1.8 3 2.2 4.6 1.2.4-.3.8-.7 1-1.3.3.5.7.9 1.2 1.1 1.8.8 3.5-1 4.4-2l.3-.3.3-.2c1.1-.8 3.1-2.2 2.6-4-.1-.5-.4-.9-.9-1.3.6-.1 1-.4 1.4-.8 1.4-1.5.2-3.7-.4-4.8"/><path id="path3489" class="st4" d="M-11.1 417.7c-9.4-8.3-1.7-7.3-.6-7.4 1-.1 8.4-2.4.6 7.4"/><path id="path3491" class="st4" d="M-12.5 418.8c-10.8 6.4-7.5-.6-7.2-1.7.2-1 .3-8.8 7.2 1.7"/><path id="path3493" class="st4" d="M-11.8 420.4c2.7 12.2-2.9 6.9-3.8 6.4-.9-.6-8.3-3.1 3.8-6.4"/><path id="path3495" class="st4" d="M-10.1 420.3c12.5 1.2 5.7 4.9 4.9 5.6-.8.6-5.4 6.9-4.9-5.6"/><path id="path3497" class="st4" d="M-9.7 418.6c5-11.5 6.4-3.9 6.8-2.9.5.9 5 7.3-6.8 2.9"/><path id="path3499" class="st2" d="M-7.2 418.9c0-.1 0-.2-.1-.3 1-.7 2.1-1.5 2.1-1.5l-.1-.2-2.5.4c-.6-1-1.6-1.7-2.8-1.8-.4-1.1-.8-2.3-.8-2.3h-.3s-.2 1.2-.3 2.4c-.7.2-1.4.6-1.9 1.2-.3.3-.5.7-.6 1.1H-17l-.1.3s1.2.6 2.3 1.1v.3c.1 1 .5 1.9 1.3 2.5-.4 1.2-.8 2.6-.8 2.6l.2.1s1-1 1.9-2c.5.2 1 .2 1.5.2s1-.2 1.4-.4c1 .8 2.2 1.6 2.2 1.6l.2-.2-1.3-2.4c.8-.8 1-1.7 1-2.7"/><path id="path3501" class="st4" d="M-11.2 417c-.6 0-1.1.3-1.5.8-.4.5-.6 1-.5 1.6.1 1.2 1.2 2.1 2.4 2 .6-.1 1.1-.3 1.5-.8.4-.5.6-1 .5-1.6-.1-1.2-1.2-2.1-2.4-2"/><path id="path3503" class="st4" d="M-178.3 417.7c9.4-8.3 1.7-7.3.6-7.4-1-.1-8.4-2.4-.6 7.4"/><path id="path3505" class="st2" d="M-174.8 419.3c1.1-.5 2.3-1.1 2.3-1.1l-.1-.3h-2.5c-.1-.4-.3-.7-.6-1.1-.5-.6-1.2-1-1.9-1.2-.2-1.2-.3-2.4-.3-2.4h-.3s-.4 1.2-.7 2.3c-1.2.1-2.2.8-2.8 1.8l-2.5-.4-.1.2s1.1.8 2.1 1.5c0 .1 0 .2-.1.3-.1 1 .2 1.9.8 2.7l-1.3 2.4.2.2s1.2-.9 2.2-1.6c.4.2.9.4 1.4.4.5 0 1 0 1.5-.2.9.9 1.9 2 1.9 2l.2-.1s-.4-1.4-.8-2.6c.7-.6 1.2-1.5 1.3-2.5.1-.1.1-.2.1-.3"/><path id="path3507" class="st4" d="M-176.8 417.8c-.4-.5-.9-.7-1.5-.8-1.2-.1-2.3.8-2.4 2 0 .6.1 1.2.5 1.6.4.5.9.7 1.5.8 1.2.1 2.3-.8 2.4-2 .1-.6-.1-1.1-.5-1.6"/><path id="path3509" class="st2" d="M-177 365.5c-5.3-.9-10.3 2.6-11.2 7.9-.9 5.3 2.6 10.3 7.8 11.2 5.3.9 10.3-2.6 11.2-7.9 1-5.2-2.5-10.2-7.8-11.2"/><path id="path3511" class="st4" d="M-174.8 372.8c-.1-.1-.2-.1-.4-.3-.8-.5-2.4-1.6-2.4-1.6-.2-.1-.4-.3-.6-.4-.7-.5-1.3-.9-1.9-1.2-.2-.1-.4-.2-.7-.4-.9-.5-1.8-.7-2.9-.8-.8.6-1.5 1.3-2.1 2.1 2.4.9 4.8 2.3 9.6 5.3.4-.5 1.4-2.5 1.4-2.7"/><path id="path3513" class="st4" d="M-177 378c.1-.2.5-1.3.7-1.8-5-3.1-7.3-4.5-9.8-5.3-.4.7-.7 1.4-.8 2.2 1.4 1.9 5.1 3.8 9.9 4.9"/><path id="path3515" class="st4" d="M-177.6 370.1c1.9-1.1 4-.8 5.7-.2-.6-.8-1.4-1.5-2.2-2-1.6-.3-3.7-.4-5.4 1 .6.3 1.2.7 1.9 1.2"/><path id="path3517" class="st4" d="M-185.1 379.1c.3.2.5.3.8.5.6.3 1.2.6 1.8.8.3.1.5.2.8.3.9.3 3.1.9 3.3.9 0-.1.8-2.1 1.1-2.8-3.7-.9-7.8-2.5-9.8-4.7-.1 1-.1 1.9.1 2.9.5.8 1.1 1.5 1.9 2.1"/><path id="path3519" class="st4" d="M-178.3 382.3l-.8-.2c-.7-.2-1.5-.4-2.3-.6.4.8 1 1.5 1.7 2 .9.1 1.7.1 2.6 0-.7-.5-1.2-1.2-1.2-1.2"/><path id="path3521" class="st4" d="M-170.5 372.6c-.2-.6-.4-1.1-.7-1.7-1.5-.7-3.7-1.3-5.7-.3l2.7 1.8c.6 0 1.1-.1 1.6-.1h.7c.5.1 1 .2 1.4.3"/><path id="path3523" class="st4" d="M-171.9 373.1c-.1 4.4-2.2 7.9-4 10 2.8-1 5.1-3.4 5.6-6.6.2-1.1.2-2.1 0-3.1-.4-.1-1-.3-1.6-.3"/><path id="path3525" class="st4" d="M-180.2 368.5c1.3-1.1 2.8-1.5 4.1-1.5l-1.1-.3c-2-.3-3.9 0-5.5.9.9.2 1.7.5 2.5.9"/><path id="path3527" class="st4" d="M-174.1 373.1c-.6 1.3-1 2.2-1.3 2.9-.1.2-.2.4-.3.7-.1.4-.6 1.5-.6 1.5l-.3.7-1.2 3c.3.4.7.8 1.1 1.1 1.8-2 4-5.4 4-9.9-.4-.1-.8-.1-1.4 0"/><path id="path3529" class="st4" d="M-182.3 381.2c-.6-.2-1.2-.4-1.8-.7.2.6.5 1.2.8 1.7.6.4 1.3.7 2.1 1-.4-.6-.9-1.2-1.1-2"/><path id="path3531" class="st4" d="M-184.9 380c-.4-.2-.8-.5-1.1-.8.4.7.9 1.4 1.5 1.9-.2-.3-.3-.7-.4-1.1"/><path id="path3533" class="st2" d="M-21.4 376.7c.9 5.3 6 8.8 11.2 7.9 5.3-.9 8.8-6 7.9-11.2-.9-5.3-6-8.8-11.2-7.9-5.3 1-8.9 6-7.9 11.2"/><path id="path3535" class="st4" d="M-15.8 372.8c.1-.1.2-.1.4-.3.8-.5 2.3-1.6 2.4-1.6.2-.1.4-.3.6-.4.7-.5 1.3-.9 1.9-1.2.2-.1.4-.2.7-.4.9-.5 1.8-.7 2.9-.8.8.6 1.5 1.3 2.1 2.1-2.4.9-4.7 2.3-9.6 5.3-.4-.5-1.3-2.5-1.4-2.7"/><path id="path3537" class="st4" d="M-13.5 378c-.1-.2-.5-1.3-.7-1.8 5-3.1 7.3-4.5 9.7-5.3.4.7.7 1.4.8 2.2-1.3 1.9-5 3.8-9.8 4.9"/><path id="path3539" class="st4" d="M-13 370.1c-1.9-1.1-4-.8-5.7-.2.6-.8 1.4-1.5 2.2-2 1.6-.3 3.7-.4 5.4 1-.5.3-1.2.7-1.9 1.2"/><path id="path3541" class="st4" d="M-5.5 379.1c-.2.2-.5.3-.8.5-.6.3-1.1.6-1.8.8-.3.1-.5.2-.8.3-.9.3-3.1.9-3.3.9 0-.1-.8-2.1-1.1-2.8 3.7-.9 7.8-2.5 9.8-4.7.1 1 .1 1.9-.1 2.9-.4.8-1.1 1.5-1.9 2.1"/><path id="path3543" class="st4" d="M-12.2 382.3l.8-.2c.7-.2 1.5-.4 2.3-.6-.4.8-1 1.5-1.7 2-.9.1-1.7.1-2.6 0 .7-.5 1.2-1.2 1.2-1.2"/><path id="path3545" class="st4" d="M-20 372.6c.2-.6.4-1.1.7-1.7 1.5-.7 3.7-1.3 5.7-.3l-2.7 1.8c-.6 0-1.1-.1-1.6-.1h-.7c-.6.1-1 .2-1.4.3"/><path id="path3547" class="st4" d="M-18.6 373.1c.1 4.4 2.2 7.9 4 10-2.8-1-5.1-3.4-5.6-6.6-.2-1.1-.2-2.1 0-3.1.4-.1.9-.3 1.6-.3"/><path id="path3549" class="st4" d="M-10.3 368.5c-1.3-1.1-2.8-1.5-4.1-1.5.3-.1.7-.2 1.1-.3 2-.3 3.9 0 5.5.9-.9.2-1.7.5-2.5.9"/><path id="path3551" class="st4" d="M-16.4 373.1c.6 1.3 1 2.2 1.3 2.9.1.2.2.4.3.7.2.4.6 1.5.6 1.5l.3.7 1.2 3c-.3.4-.7.8-1.1 1.1-1.8-2-4-5.4-4-9.9.3-.1.8-.1 1.4 0"/><path id="path3553" class="st4" d="M-8.2 381.2c.6-.2 1.2-.4 1.8-.7-.2.6-.5 1.2-.8 1.7-.6.4-1.3.7-2.1 1 .4-.6.8-1.2 1.1-2"/><path id="path3555" class="st4" d="M-5.6 380c.4-.2.8-.5 1.1-.8-.4.7-.9 1.4-1.5 1.9.2-.3.3-.7.4-1.1"/></svg>