<svg xmlns="http://www.w3.org/2000/svg" viewBox="-270.2 517.8 333.6 333.6"><path fill="#7C744F" d="M63.4 684.6c0 92.1-74.7 166.8-166.8 166.8s-166.8-74.7-166.8-166.8 74.7-166.8 166.8-166.8S63.4 592.5 63.4 684.6z"/><path fill="#07367C" d="M50.9 684.6c0 84.5-69.1 153-154.3 153s-154.3-68.5-154.3-153 69.1-153 154.3-153 154.3 68.5 154.3 153z"/><path fill="#7D744C" d="M33.1 684.6c0 74.7-61.1 135.3-136.4 135.3s-136.5-60.5-136.5-135.3 61.1-135.3 136.4-135.3S33.1 609.9 33.1 684.6z"/><path fill="#1B170B" d="M25.2 684.6c0-70.4-57.5-127.5-128.5-127.5s-128.6 57.1-128.6 127.5 57.5 127.5 128.5 127.5S25.2 755 25.2 684.6z"/><path fill="#7D744D" d="M9.1 684.6c0-61.6-50.3-111.5-112.4-111.5S-215.8 623-215.8 684.6s50.3 111.5 112.4 111.5S9.1 746.2 9.1 684.6z"/><path fill="#FFF" d="M-102.7 586.7c-54.5 0-98.8 43.9-98.8 98 0 50.3 38.2 91.7 87.4 97.3v-13c-42-5.5-74.5-41.1-74.5-84.3 0-47 38.4-85.1 85.8-85.1 34.1 0 63.5 19.7 77.4 48.3h14.2c-14.6-35.9-50.1-61.2-91.5-61.2zm84.2 114.4c-7.2 36.3-37.6 64.3-75.2 68.2v12.9c44.8-4 81.1-37.7 88.5-81.1h-13.3z"/><path fill="#FFF" d="M-121 576.5s8 4 9 8h16c1-4 10-8 10-8h-35zm9 26v63h16v-63s-6.8-1.4-16 0zm-30 16v2.8c1.8.2 2.2 1.1 2.2 1.1l-.2 30.1 17 29h38v-14l-38-.1v-33.9h9v-15h-28zm48 0v15l25.2-.1s1.1.3 1 1.5h3v-16.4H-94zm-18 65v100.6h-.1c-1 4-9 8-9 8h35s-8.7-4-9.9-7.8V683.5h-16z"/><path fill="#FFF" d="M-177 722.5c1.8-1.7 2-4 2-4 2.8-19.7 5.4-74.6 5.4-74.6l-2.4-5.4c6.6-9.2 12.6-14.8 12.6-14.8 13.6 22 45.4 77.8 45.4 77.8v27l-39.2-60.5s-4.8 47.6-4.8 78.5c0 0-8-6-19-24zm148 1c-1.8-1.7-2.2-4.1-2.2-4.1-2.8-19.7-6.2-75.4-6.2-75.4l4-5.5c-6.6-9-13.7-15.2-13.7-15.2-13.6 22.1-46.9 78.2-46.9 78.2v27l40.1-60.4s3.9 49.4 3.9 80.4c0 0 8.6-4.7 21-25z"/><path fill="#FFF" d="M-142 757.5c2-2 2-4 2-4v-61l17 26v41c0 3 2 6 2 6s-12-2-21-8z"/></svg>