<svg image-rendering="optimizeQuality" text-rendering="geometricPrecision" shape-rendering="geometricPrecision" xmlns="http://www.w3.org/2000/svg" viewBox="988 -1318.5 500 815.9"><path fill="#1F1A17" d="M1238-1318.5c138 0 250 182.7 250 408s-112 408-250 408-250-182.7-250-408 112-408 250-408z"/><path fill="#FFF" d="M1238-1287c129.8 0 235 166.5 235 371.8s-105.2 371.8-235 371.8-235-166.5-235-371.8 105.2-371.8 235-371.8z"/><path fill="#1F1A17" d="M1238-1275.4c14.5 0 28.7 2.3 42.5 6.5v131c-14.5-1.1-29.3-1.6-44.4-1.6-13.7 0-27.3.5-40.6 1.4v-130.7c13.8-4.3 28-6.6 42.5-6.6zm104.5 41.9c34.8 29.8 64.1 73.9 84.9 127.4v.2c-24.9-9.7-52.4-17.7-81.6-23.3-1-15.9-2.1-31.5-3.3-46.8v-57.5zm-293.9 126c20-50.9 47.8-93.2 80.6-122.6v54.2c-1.2 15.3-2.3 30.9-3.3 46.8-27.6 5.3-53.5 12.6-77.3 21.6zm73.4 140.1c-27 13.1-52.4 30.7-75.6 52V-758c20.3 53.5 49.7 97.8 84.9 128v-69.3c-6.1-73.6-9.4-154.7-9.4-239.9 0-9.4.1-18.8.1-28.2zm160.4-23.2c-14.5-2.5-29.3-3.9-44.4-3.9-13.7 0-27.3 1.1-40.6 3.2v150.1c12.9-6.4 26.5-9.9 40.6-9.9 15.4 0 30.3 4.1 44.4 11.8v-151.3zm147.2 75.3c-23.2-21.3-48.6-38.9-75.6-52 .1 9.4.1 18.8.1 28.2 0 85.2-3.4 166.3-9.4 239.9v72.4c34.8-28.4 64.1-70.5 84.9-121.5v-167z"/><path fill="#F5B400" d="M1234.9-1018.3c81.8 0 160.4 18.5 224.2 50 .9 12.5 1.4 25.1 1.4 38 0 4.8-.1 9.5-.2 14.2-64-54.8-143-87-225.4-87s-156.4 30.1-219.3 81.9c0-3-.1-6.1-.1-9.1 0-13.9.6-27.6 1.6-41.1 62.6-29.6 136-46.9 217.8-46.9z"/><path fill="#1F1A17" d="M1284.6-748.3h-93.2c-11 0-20 8.1-20 18.1v31c0 44.7 15.8 70.3 66.5 112.5 50.7-42.2 66.5-67.8 66.5-112.5v-31c.1-10-8.9-18.1-19.8-18.1z"/><path fill="#FFF" d="M1207.1-737.6s3.5 5.5 2.6 6.2c-1.4.9-6-2-6-2s3 6.6 4.8 9.2c.7 1 2.3 1.8 2.8 3.1 2 5.2-4.4 13.3 1.6 16.9 2 1.2 4.5.6 6.7-.6 0 0 .7-.4 1.1-.2 1.1.6-.1 3.2-.3 3.6-2.5 5.7-4.6 2.7-7.3.3-5.5-4.9-5.9 2-7.7 2.6-6.3 2.2-5.6-.4-7.6.6-1.3.6-1.5 3.2-1.9 4.5-.8 2.6-2.6 9.2 3.1 7.2 3.3-1.1 4.4-9.5 7.6-5.2 3.9 5.1-1.4 10.2 3.9 16.3 1.5 1.7 3.1 2.4 4.8.7.6-.6 1.2-1.5 1.5-2.3.3-1 .4-2.5-.1-4-1.1-3.1-3.8-3.3-2.8-7.6 1.2-.3 1.3-.3 2.5.3 2 1.1 5 1.8 6.6 3.4 2.7 2.6 4.8 5.5 8.1 7.4 1 2.2-1.3 4.9-2.1 6.1-1.3 2.1-3.1 4.8-3.6 7.4-1 4.8 3.6 9.7-1.6 11.4-6.1 1.9-16.1.4-16.7 7-.1 1.2-.4 3.3.6 4.4.8.9 2.9 1.7 4.3 1.7 5.1 0 .6-5.6 4.7-6.8 2-.6 4.4.7 6 .9 1.8.1 4.1 0 5.7 0 6.2-.2 7.1-2.7 10.2-4.6 4-2.5 7.5 4.4 8.9 6.9 1.1 2.1 4 3.1 4.9 5.4.9 2.5 1 6.4.7 8.5-.3 1.8-2.1 1.6-2.9 2.9-1.2 2.3-1.7 11.8 2.1 13 2.9 1 8-2.5 7-5.2-.3-.9-1.7-1.5-1.9-2.5-1.2-6.4 9.7-11.9 9.9-13.4.5-2.4-3.6-2.1-2.7-7.3.6-3.8 4.5-6.3 6.3-9.4 1-1.6.6-4.7 1.8-6.2 1-1.2 2.7-1.7 3.4-3 4.1-7.6-.6-19.5-3.7-28-.9-2.5-5.6-12.4-2.5-13.5.8-.3 1.3.1 1.7.1 1.8 1.9.6 4.8 1.6 6.9 1.2 2.8 4.9 4.1 7.5 5.3-.3.2.6.1.6.1-.7-1.7-1.4-2.9-1.4-4.8-.1-5.4-.9-9.7-4.3-12.1-1.7-1.2-4.8-2.2-7.3-.8-10.3 5.4-.1 22.1 2.5 31.1 1.2 3.9-1.6 6.3-4.8 4.8-2.6-1.2-4-7.4-4.8-10.5-3.2-12.1-7.7-34-13.3-40.3-5.1-5.8-18.8-8.6-28-10.3-1.5-.3-3.8-.6-5.3-1.2-1.5-.5-7.5-4.4-7.5-4.4z"/><path fill="#1F1A17" d="M1415.1-1020.7zm0-46.8l16.2 5.4v-1.4c0-3.3-.1-6.2-.4-8.6-.3-2.4-.7-4.3-1.3-5.8-.6-1.5-1.4-2.9-2.6-4.4-1.2-1.5-2.7-3-4.5-4.5-2.6-2.1-5.5-4-8.9-5.5-.7-.3-1.4-.6-2-.8s-1.4-.5-2.1-.8c-3.3-1.1-6.3-1.7-8.9-1.7h-1.5c-.5 0-.9.1-1.4.1h-.1c-1.5.2-2.8.7-3.9 1.4-1.1.6-1.9 1.5-2.5 2.6-.7 1.1-1.2 2.7-1.5 4.7-.4 2.2-.6 4.8-.6 8 0 2.2.1 4.2.4 6.1.3 1.8.6 3.5 1.1 5.1.7 2.2 1.6 4.2 2.6 5.9.2.3.4.6.6 1l.6.9-1.1.9 1.1-.8c.8 1.1 2 2.5 3.7 4.4 1.7 1.9 3.8 4.1 6.3 6.8 2.6 2.7 4.6 4.9 6.2 6.7 1.6 1.9 2.8 3.3 3.5 4.4.6 1 1.1 2.2 1.4 3.7 0 .2.1.5.2.9.3 1.8.5 4 .5 6.6v.1c0 1.8-.2 3.2-.6 4.3-.1.2-.2.5-.3.7-.1.2-.2.4-.4.6l-1.1-.8 1.1.8c-.5.8-1.2 1.2-2.1 1.4-.7.2-1.6.1-2.5-.2-1.2-.4-2.2-1-2.9-1.9-.1-.2-.3-.3-.4-.5l-.3-.6c-.6-1.3-.9-3.6-.9-7v-9.3l-16.2-5.4v3.6c0 3.1.1 6 .4 8.5.3 2.5.7 4.6 1.3 6.5.6 1.8 1.4 3.5 2.6 5.3 1.2 1.8 2.7 3.5 4.6 5.2 2.7 2.4 5.7 4.5 9.2 6.1.6.3 1.3.6 2.1.9.7.3 1.5.6 2.2.8 2.4.8 4.6 1.3 6.7 1.6 2 .2 4 .2 5.7-.1 2.4-.4 4.2-1.3 5.5-2.5.2-.2.4-.5.6-.7.2-.3.4-.5.5-.8.4-.7.7-1.6 1-2.7.1-.6.3-1.2.4-1.8.3-2 .5-4.5.5-7.4v-.1c0-4.1-.3-7.7-.9-10.8-.6-3.1-1.4-5.7-2.5-7.8-1.1-2.2-3.1-4.9-5.9-8.2-2.8-3.3-6.5-7.2-11-11.6-1.6-1.6-2.9-3-3.9-4.2-1-1.3-1.8-2.4-2.2-3.4-.3-.8-.6-1.7-.8-2.7l-.1-.5c-.2-1.2-.3-2.5-.3-4v-.1c0-1.7.2-3.1.6-4.2.1-.2.2-.5.3-.6.1-.2.2-.4.4-.6.5-.7 1.1-1.2 1.9-1.4.7-.2 1.5-.1 2.3.2.7.2 1.4.6 1.9 1 .6.5 1 1 1.3 1.7.3.5.5 1.2.6 2.1l.1.5c.1 1 .2 2.3.2 3.8v.1l.2 4.8zm-34.6 21.8v-55.7l-18.1-4.6v60.8c0 2.1 0 3.9-.1 5.2-.1 1.4-.3 2.5-.5 3.1-.5 1.3-1.4 2-2.7 2.1h-.7c-.2 0-.5-.1-.7-.1-.8-.2-1.5-.6-2-1.1-.6-.5-1-1.2-1.2-2-.2-.7-.4-1.7-.5-3-.1-1.3-.1-2.8-.1-4.7v-62.6l-18-4.6v48.4c0 4.8 0 8.7.1 11.9.1 3.1.2 5.4.4 6.9.1 1.4.5 2.8 1 4.3s1.2 3 2 4.5 1.9 2.9 3.2 4.3 2.8 2.7 4.6 4c2.5 1.8 5.3 3.3 8.4 4.4l1.8.6c.6.2 1.3.4 1.9.6 2.9.7 5.6 1.1 7.9 1 .5 0 .9 0 1.3-.1.4 0 .8-.1 1.3-.2h.1c1.4-.3 2.7-.7 3.9-1.4 1.1-.6 2.1-1.5 3-2.4.9-1 1.6-2.1 2.1-3.2s.9-2.2 1.1-3.3c.1-1 .3-2.3.4-3.9v-1c.1-2.2.1-4.8.1-7.9v-.3zm-52.5-53.2v-14.2l-43.6-6.3v14.2l11.4 1.7 1.2.2v67.9l18.5 2.7v-67.9l1.6.2 10.9 1.5zm-51.3 62.1v-82.1l-15.2-.6v36.8l-2.7.4-11.7-37.7-15.5-.6v82.1l15.2.6v-37.1l2.7-.4 10.9 38 16.3.6zm-55.5-83.5l-32.9 2.4v82.1l34.3-2.5v-14.2l-14.2 1-1.5.1v-21.5l1.3-.1 12.1-.9v-13.3l-11.9.9-1.5.1v-18.9l1.3-.1 13-.9v-14.2zm-49.6 85.8l10.4-84-19.4 3.5-1.4 15c-.9 9.2-1.7 19.4-2.5 30.6l-.5 6.6-.5 6.8v.1h-2.7c-.8-11.4-2-24.7-3.5-39.7-.3-2.8-.6-5.8-.9-9-.3-2.6-.6-5.3-.9-8.1l-19.5 3.5 11.8 79.9 29.6-5.2zm-59.9 11.1zm11.1-30.1v-54.9l-17.9 5.3v61.5c0 2.1 0 3.9-.1 5.3-.1 1.5-.3 2.6-.5 3.3-.4 1.2-1.1 2.2-2.1 2.8l-.6.3s-.4.2-.7.2c-.9.3-1.6.2-2.3 0-.7-.3-1.3-.9-1.6-1.7-.2-.6-.4-1.6-.5-2.8-.1-1.2-.1-2.8-.1-4.6v-61.8l-17.8 5.3v49.2c0 4.8 0 8.7.1 11.9.1 3 .2 5.3.4 6.7.1 1.3.5 2.5.9 3.7s1.1 2.2 1.9 3.2c.8.9 1.8 1.7 2.9 2.3 1.2.6 2.7 1.1 4.4 1.4 2.4.4 5.1.3 8.1-.2.6-.1 1.2-.2 1.8-.4.6-.1 1.2-.3 1.9-.5h.1c2.9-.9 5.6-2 8-3.4.5-.3.9-.6 1.4-.8.5-.3.9-.6 1.3-.9l.8 1.1-.8-1.1c1.5-1.1 2.8-2.3 4-3.7 1.2-1.3 2.3-2.8 3.2-4.4.9-1.6 1.7-3.1 2.2-4.5.5-1.4.9-2.7 1.1-4 .1-1.1.3-2.5.4-4.2v-1.1c.1-2.3.1-4.9.1-8v-.5zm-54.7 16.1v-54.8l-17.4 6.5v62.9c0 1.2-.1 2.1-.1 2.6-.1.7-.3 1.4-.6 2.1-.3.6-.7 1.3-1.2 1.9-.5.6-1.1 1.2-1.8 1.7s-1.4.9-2.2 1.2c-.4.1-1 .3-1.7.6v11.8l8.2-3.1c3.1-1.2 5.7-2.3 7.7-3.4.4-.2.8-.4 1.1-.6l.9-.6c1.5-1.1 2.7-2.3 3.7-3.7l.6-.9c.2-.3.4-.6.5-.9.8-1.6 1.4-3.2 1.7-4.8.1-.3.1-.7.2-1 0-.3.1-.6.1-.9v-.1c.1-1.2.1-3.2.2-5.9.1-2.6.1-6.1.1-10.6zm211.3 265.7c.2-.8 2.7-4.9 5.6-10 7.5-13.1 17.8-32.7-.7-19.3-4.9 3.5-8 9-13.7 7.2-5.7-1.8-9.1-8-7.2-13.7 5.1-15-12.4-13.1-12.7-1.3-.3 14.7-25.2 14.7-25.5 0-.2-11.7-17.7-13.7-12.7 1.3 1.9 5.7-1.4 11.9-7.2 13.7-5.7 1.8-8.8-3.6-13.7-7.2-25.7-18.6 4.3 26.6 4.9 29.4 22.5-6.8 48.5-9.1 82.9-.1z"/></svg>