<svg text-rendering="geometricPrecision" shape-rendering="geometricPrecision" image-rendering="optimizeQuality" xmlns="http://www.w3.org/2000/svg" viewBox="738 -1307 2088 3407"><path d="M1782-1307c576.4 0 1043.9 762.9 1043.9 1703.5 0 940.7-467.5 1703.5-1043.9 1703.5-576.4 0-1043.9-762.8-1043.9-1703.5C738.1-544.1 1205.6-1307 1782-1307z" fill="#1F1A17"/><path d="M1782-1175.8c541.8 0 981.2 695.3 981.2 1552.6S2323.8 1929.4 1782 1929.4c-541.8 0-981.2-695.3-981.2-1552.6s439.4-1552.6 981.2-1552.6z" fill="#FFF"/><path d="M1782-1127c60.6 0 119.9 9.4 177.3 27.2V-553c-60.6-4.5-122.4-6.8-185.2-6.8-57.4 0-113.9 2-169.4 5.7v-545.7c57.4-17.8 116.6-27.2 177.3-27.2zm436.2 174.9c145.2 124.3 267.7 308.4 354.6 532v.8c-104.1-40.7-218.7-73.7-340.9-97.5-4.1-66.4-8.7-131.5-13.7-195.4v-239.9zm-1227 525.9c83.6-212.7 199.5-389.3 336.5-512V-712c-5 63.9-9.6 129-13.7 195.3-115.3 22.4-223.6 53-322.8 90.5zm306.6 585.3C1185 213.8 1079 287.2 982.1 376.3v657.3c84.6 223.5 207.4 408.5 354.7 534.3v-289.5c-25.3-307.3-39.4-645.9-39.4-1001.6-.1-39.4.1-78.7.4-117.7zm669.4-97.2c-60.6-10.6-122.4-16.1-185.2-16.1-57.4 0-113.9 4.7-169.4 13.5V686c54-26.8 110.8-41.2 169.4-41.2 64.4 0 126.6 17.3 185.2 49.4V61.9zm614.7 314.4c-97-89.1-202.9-162.5-315.8-217.3.3 39.1.5 78.3.5 117.9 0 355.8-14.1 694.5-39.4 1001.8v302.5c145.2-118.5 267.7-294.2 354.6-507.5l.1-697.4z" fill="#1F1A17"/><path d="M1769-53.6c341.5 0 669.7 77.1 936.2 208.8 3.7 52.1 5.7 105 5.7 158.6 0 19.9-.3 39.7-.9 59.4C2442.6 144.2 2112.9 10 1769 10s-653.2 125.8-915.6 341.8c-.2-12.6-.3-25.3-.3-38 0-58.1 2.3-115.3 6.7-171.6C1120.9 18.4 1427.5-53.6 1769-53.6z" fill="#F5B400"/><path d="M1976.5 1073.7h-389c-45.8 0-83.4 33.9-83.4 75.4v129.6c0 186.7 66.1 293.5 277.8 469.6 211.7-176.2 277.8-282.9 277.8-469.6v-129.6c.1-41.4-37.4-75.4-83.2-75.4z" fill="#1F1A17"/><path d="M1653 1118.3s14.6 23.1 10.8 25.7c-5.9 3.8-25.1-8.3-25.1-8.3s12.7 27.4 19.9 38.3c2.9 4.3 9.7 7.4 11.7 13 8.2 21.8-18.2 55.4 6.6 70.5 8.2 5.1 18.6 2.3 27.9-2.4 0 0 2.9-1.7 4.6-.8 4.5 2.3-.6 13.5-1.3 15.2-10.3 23.7-19.1 11.2-30.5 1.2-23.1-20.3-24.8 8.4-32 11-26.2 9.3-23.2-1.5-31.8 2.3-5.4 2.3-6.3 13.3-7.8 18.6-3.2 10.8-10.8 38.3 13 30 13.9-4.8 18.2-39.6 31.7-21.9 16.3 21.2-5.7 42.8 16.4 68 6.1 6.9 13.1 10.1 20.2 2.8 2.5-2.6 5.1-6.3 6.2-9.7 1.1-4 1.6-10.6-.4-16.5-4.5-13.1-15.7-13.7-11.8-31.8 4.9-1.1 5.5-1.4 10.4 1.3 8.4 4.7 20.9 7.5 27.7 14.2 11.1 10.8 20 23.1 34 30.7 4.2 9-5.5 20.5-8.6 25.5-5.5 8.8-13 20.2-15.1 31-4.1 20 15.1 40.6-6.8 47.6-25.5 8-67.1 1.6-69.8 29.2-.5 5.1-1.7 13.6 2.3 18.5 3.2 3.9 12.2 7.2 17.8 7.2 21.4-.2 2.4-23.2 19.5-28.6 8.4-2.6 18.2 3.1 25 3.6 7.5.6 17.1.1 23.6-.1 25.7-.8 29.8-11.2 42.5-19 16.6-10.4 31.4 18.3 37.3 29 4.6 8.8 16.8 12.8 20.4 22.5 3.9 10.6 4.2 26.8 3 35.7-1.1 7.6-8.9 6.5-12.1 12.3-5.1 9.4-7 49.1 8.6 54.4 12.3 4.1 33.6-10.3 29.3-21.6-1.3-3.6-7.2-6.3-8-10.4-5.2-26.8 40.3-49.5 41.5-55.9 2-10.2-15.1-8.7-11.4-30.3 2.6-15.8 18.8-26.4 26.3-39.2 4-6.8 2.5-19.6 7.4-25.7 4.1-5.1 11.3-6.9 14.4-12.7 17.2-31.9-2.7-81.6-15.4-117-3.7-10.3-23.3-51.6-10.4-56.5 3.3-1.3 5.3.3 7.1.4 7.5 7.9 2.6 20 6.5 28.8 5.2 11.9 20.6 17.3 31.4 22.1-1.1.9 2.3.4 2.4.4-3.1-6.9-5.8-12.1-5.9-20.2-.3-22.6-3.6-40.4-18.1-50.5-7.3-5.1-20-9-30.5-3.4-42.9 22.4-.6 92.4 10.3 129.7 4.9 16.4-6.6 26.1-20.1 20-11-5-16.7-31.1-20.1-43.8-13.5-50.6-32.2-141.9-55.7-168.4-21.5-24.4-78.5-36-116.8-43-6.1-1.1-16-2.4-22.1-4.9-5.1-1.7-30.1-18.1-30.1-18.1z" fill="#FFF"/><path d="M2521.3-63.7zm0-195.5l67.5 22.6v-5.9c0-13.9-.6-25.9-1.8-36-1.2-10-3-18.1-5.3-24.3-2.3-6.2-5.9-12.3-10.7-18.5-4.9-6.2-11.1-12.5-18.6-18.7-10.7-8.9-23.1-16.5-37.2-22.8-2.8-1.3-5.7-2.4-8.5-3.5s-5.8-2.2-8.8-3.2h-.1c-13.9-4.7-26.3-7.1-37.1-7.3-2 0-4.1 0-6.1.1-1.9.1-3.8.3-5.7.6h-.3c-6.4 1-11.8 3-16.4 5.7-4.4 2.7-7.9 6.3-10.6 10.7-2.8 4.5-4.9 11.2-6.4 19.8-1.5 9-2.3 20.2-2.3 33.5 0 9.2.5 17.7 1.6 25.5 1.1 7.7 2.7 14.8 4.8 21.3 3.1 9.3 6.8 17.6 11 24.7.8 1.4 1.6 2.7 2.5 4 .8 1.1 1.7 2.4 2.6 3.7l-4.5 3.6 4.6-3.5c3.3 4.4 8.4 10.5 15.4 18.3 7 7.9 15.8 17.3 26.3 28.4 10.7 11.2 19.4 20.6 26 28.1 6.8 7.8 11.7 13.9 14.5 18.2 2.6 4 4.6 9.2 6 15.4.2 1 .5 2.2.7 3.7 1.4 7.5 2.1 16.7 2.1 27.4v.3c0 7.4-.8 13.5-2.5 18.1-.4 1-.8 2-1.2 2.8-.4.8-.9 1.7-1.5 2.5l-.1.1-4.7-3.4 4.6 3.4c-2.2 3.2-5.1 5.2-8.6 6-3.1.7-6.6.5-10.4-.8-5-1.7-9.1-4.3-12-7.8-.6-.7-1.2-1.4-1.7-2.2-.5-.7-1-1.6-1.4-2.4l-.1-.1v-.1c-2.6-5.4-3.9-15.2-3.9-29.4v-38.9l-67.5-22.6v15.1c0 13.1.6 24.9 1.8 35.3 1.2 10.3 3 19.3 5.4 27.1 2.3 7.4 5.9 14.8 10.9 22 5 7.4 11.4 14.6 19.1 21.6 11.1 10.2 23.9 18.6 38.4 25.3 2.6 1.2 5.5 2.5 8.7 3.7 3 1.2 6.1 2.3 9 3.3h.1c10 3.4 19.4 5.5 28 6.5 8.5.9 16.5.7 23.8-.6 10-1.8 17.6-5.3 22.8-10.3.9-.9 1.8-1.9 2.6-3s1.5-2.2 2.1-3.2v-.1l.1-.1c1.5-2.9 2.9-6.6 4-11.1.6-2.4 1.1-4.9 1.5-7.6 1.3-8.5 2-18.9 2-31.1v-.4c0-17.1-1.2-32.1-3.6-45.1-2.3-12.8-5.8-23.7-10.5-32.6-4.7-9.1-12.9-20.5-24.5-34.1-11.8-13.8-27.1-29.9-45.9-48.4-6.7-6.6-12.2-12.5-16.4-17.6-4.3-5.3-7.4-10-9-14-1.4-3.3-2.5-7.1-3.3-11.2v-.1l-.4-2.2v-.1c-.8-4.9-1.2-10.5-1.2-16.7v-.3c0-7.3.8-13.1 2.3-17.4.4-1 .7-1.9 1.1-2.7.5-.9 1-1.8 1.5-2.5v.1-.1l.1-.1c2.1-3 4.8-4.9 8.1-5.7 3-.7 6.3-.5 9.8.7 3 1 5.7 2.5 7.9 4.3 2.3 1.9 4.2 4.3 5.6 7 1.1 2.2 2 5.2 2.5 8.8v.1l.3 1.9v.1c.5 4.2.8 9.5.8 15.8v.5l.3 22.1zM2377-167.9v-232.5l-75.4-19.4V-166c0 8.9-.2 16.2-.6 21.9-.4 6-1.1 10.4-2.1 13.1v.1c-2 5.4-5.8 8.3-11.4 8.6-.9 0-1.9 0-2.9-.1s-1.9-.3-2.8-.5h-.2c-3.3-.9-6.1-2.4-8.5-4.5-2.3-2.1-4-4.9-5.1-8.2-1-2.8-1.7-7-2.1-12.6-.4-5.3-.6-11.8-.6-19.7v-261.4l-75.3-19.4v202.3c0 19.9.2 36.5.5 49.7.3 12.9.8 22.6 1.5 29 .6 5.9 2 11.9 4.1 18 2.1 6.2 5 12.4 8.5 18.7 3.5 6.1 8 12.1 13.4 17.8 5.4 5.7 11.8 11.2 19.2 16.5 10.4 7.5 22.1 13.6 35.1 18.3 2.5.9 5.1 1.8 7.7 2.6 2.6.8 5.3 1.6 8 2.3h.1c12.2 3.1 23.3 4.6 33.1 4.3 1.9-.1 3.8-.2 5.6-.4 1.7-.2 3.5-.4 5.3-.8l.5-.1c6-1.1 11.4-3 16.3-5.7 4.7-2.6 8.9-6.1 12.6-10.2 3.7-4.3 6.7-8.7 8.9-13.2 2.2-4.4 3.6-9 4.4-13.6.6-4.1 1.1-9.6 1.5-16.4l.2-4.3c.4-9.1.6-20.2.6-33.1l-.1-.9zM2157.8-390v-59.1l-182.1-26.4v59.1l47.5 6.9 4.9.7v283.7l77.1 11.2v-283.8l6.5.9 46.1 6.8zm-214.2 259.3v-342.9l-63.3-2.3v153.6l-11.2 1.8-48.9-157.6-64.8-2.3v342.9l63.3 2.3v-155.1l11.2-1.7 45.4 158.8 68.3 2.5zM1712-479.4l-137.4 9.9v342.9l143.3-10.3V-196l-59.4 4.3-6.1.4v-89.8l5.4-.4 50.4-3.6v-55.7l-49.6 3.6-6.1.4v-79l5.4-.4 54.2-3.9-.1-59.3zm-207.4 358.2l43.3-350.6-81 14.7-5.7 62.6c-3.6 38.3-7.1 80.9-10.5 127.6l-2 27.6-1.9 28.5v.6h-11.4c-3.3-47.8-8.2-103.1-14.6-165.7l-3.9-37.5c-1.2-10.7-2.4-22-3.7-33.8l-81.4 14.8 49.1 333.8 123.7-22.6zm-250.1 46.4zm46.5-125.9V-430l-74.6 22.1V-151c0 8.8-.2 16.2-.6 22.2-.4 6.2-1.1 10.8-1.9 13.8v.1c-1.6 5.1-4.5 9-8.8 11.7-.9.5-1.7 1-2.6 1.4-.9.4-1.8.7-2.8 1h-.2c-3.6 1.1-6.8 1-9.6 0-3.1-1.2-5.4-3.6-6.8-7.1-1-2.5-1.8-6.5-2.2-11.8-.4-5-.6-11.5-.6-19.4v-258.1l-74.5 22v205.4c0 19.9.2 36.4.5 49.5.3 12.7.8 22.1 1.5 28.1v.1c.6 5.5 1.9 10.6 3.9 15.3 2 4.7 4.7 9.1 8.1 13.2 3.2 3.9 7.4 7.1 12.3 9.6 5.1 2.6 11.2 4.6 18.2 5.7 10.1 1.7 21.4 1.4 33.9-.9 2.3-.4 4.9-1 7.6-1.6 2.5-.6 5.1-1.3 7.9-2.1l.4-.1c12.3-3.6 23.5-8.4 33.5-14.3 1.9-1.1 3.9-2.3 5.7-3.5 1.9-1.2 3.6-2.5 5.4-3.8l.1-.1 3.4 4.8-3.3-4.8c6.2-4.7 11.9-9.8 16.9-15.4 5-5.6 9.5-11.7 13.3-18.3 3.8-6.6 6.9-12.9 9.2-18.9 2.2-5.9 3.8-11.4 4.5-16.7.6-4.6 1.2-10.4 1.5-17.4l.2-4.4c.4-9.4.6-20.5.6-33.4v-1.5h-.1zm-228.4 67.3v-228.7l-72.7 27.3v245.4c0 6.2-.1 11.8-.2 17.1-.1 4.9-.3 8.6-.6 11-.3 3.1-1.1 6-2.3 8.9-1.2 2.7-2.8 5.5-4.9 8.1-2.1 2.7-4.5 5.1-7.4 7.1-2.8 2-5.9 3.7-9.3 5-1.6.6-4.1 1.4-7.2 2.4v49.1l34.4-12.9c13.1-4.9 23.8-9.7 32.1-14.4 1.7-.9 3.2-1.8 4.5-2.7 1.4-.9 2.6-1.7 3.7-2.5l.2-.1c6.1-4.4 11.3-9.6 15.6-15.6.8-1.1 1.6-2.3 2.4-3.6.9-1.4 1.6-2.7 2.2-3.8v-.1c3.5-6.6 5.9-13.3 7.3-20 .3-1.4.5-2.8.7-4 .2-1.3.3-2.6.4-3.9v-.6c.3-5.2.6-13.5.8-24.7.3-10.4.3-25 .3-43.8zM1955 976c.7-3.2 11.1-20.5 23.3-41.9 31.2-54.7 74.4-136.6-2.9-80.7-20.4 14.7-33.3 37.4-57.3 29.9-23.9-7.5-37.9-33.4-29.9-57.2 21.1-62.6-51.9-54.5-53-5.5-1.3 61.3-105.3 61.3-106.6 0-1-48.9-74-57.1-53 5.5 8 23.8-5.9 49.7-29.9 57.2s-36.9-15.2-57.3-29.9c-107.5-77.8 18.1 111.2 20.4 122.6 93.7-28 202.4-37.4 346.2 0z" fill="#1F1A17"/></svg>