<svg id="Layer_1" xmlns="http://www.w3.org/2000/svg" viewBox="-185.5 308.9 145.8 175.4"><style>.st0{fill:#EDDF3F;stroke:#000000;stroke-width:0.4764;stroke-linecap:round;stroke-linejoin:round;stroke-miterlimit:2.6131;} .st1{fill:#FFF22D;stroke:#000000;stroke-width:0.4764;stroke-linecap:round;stroke-linejoin:round;stroke-miterlimit:2.6131;} .st2{fill:none;stroke:#000000;stroke-width:0.4764;stroke-linecap:round;stroke-linejoin:round;stroke-miterlimit:2.6131;} .st3{fill:#277FBE;} .st4{fill:#EDDF3F;} .st5{fill:#FFFFFF;} .st6{stroke:#000000;stroke-width:0.4764;stroke-linecap:round;stroke-linejoin:round;stroke-miterlimit:2.6131;} .st7{fill:#FFFFFF;stroke:#000000;stroke-width:0.4764;stroke-linecap:round;stroke-linejoin:round;stroke-miterlimit:2.6131;}</style><path class="st0" d="M-147.9 392.4c.4 3.7.6 7.6.6 11.5-.1 11.2-2.1 20.9-5.1 27.6-1 2.2-2.1 4.1-3.3 5.6-.6-5.7-1-11.9-1-18.2 0-2.7.1-5.3.2-7.9l3.2-19.8 5.4 1.2zm72.2 0c-.4 3.7-.6 7.6-.6 11.5.1 11.2 2.1 20.9 5.1 27.6 1 2.2 2.1 4.1 3.3 5.6.7-5.7 1-11.9 1-18.2 0-2.7-.1-5.3-.2-7.9l-3.2-19.8-5.4 1.2z"/><path class="st0" d="M-152.1 388.8c-1.4 20-4.5 37.9-8.4 51.5-.4 1.1-.9 2.1-1.5 2.7-3.3 3.8-7.1 6.7-11.1 8.5 4.6-5 7.7-15.4 8.4-28 3-8 5.1-19.2 5.6-31.9.1.7.2 1.5.1 2.5.6-1.2 1.4-2.1 2.1-2.4.6-.4 1.2-1.1 1.8-2.1.3-.5.5-1 .7-1.5 0-.1.1-.3.1-.4l2.2 1.1zm80.7 0c1.4 20 4.4 37.9 8.4 51.5.4 1.1.9 2.1 1.5 2.7 3.4 3.8 7.1 6.7 11.1 8.5-4.6-5-7.7-15.4-8.4-28-3-8-5-19.2-5.6-31.9-.1.7-.2 1.5-.1 2.5-.6-1.2-1.4-2.1-2.1-2.4-.6-.4-1.3-1.1-1.8-2.1-.3-.5-.5-1-.7-1.5 0-.1-.1-.3-.1-.4l-2.2 1.1z"/><path class="st0" d="M-159 380.2c.6 28.2-5.7 51.6-14.7 55.7-1.6.6-3.1 1.5-4.4 2.5l-.6.6c2.8-3.4 5.2-8.9 6.9-16 1.5-6 2.4-13.2 2.8-21.1l3-14.3 7-7.4zm94.5 0c-.6 28.2 5.7 51.6 14.7 55.7 1.6.6 3.1 1.5 4.4 2.5l.6.6c-2.9-3.4-5.2-8.9-6.9-16-1.5-6-2.4-13.2-2.8-21.1l-3-14.3-7-7.4z"/><path class="st0" d="M-164.7 380.8c.1 8.2-.8 16-2.4 22.8-2.7 11.2-7.6 19-13.9 19.6-.9.1-1.7 0-2.6-.2 4-3.1 7.1-9.4 9.1-17.6.7-2.8 1.2-5.8 1.6-9 3.1-3.1 5.9-8.5 8.2-15.6zm105.9 0c-.1 8.2.8 16 2.4 22.8 2.7 11.2 7.6 19 13.9 19.6.9.1 1.7 0 2.6-.2-3.9-3.1-7.1-9.4-9.1-17.6-.7-2.8-1.2-5.8-1.6-9-3.2-3.1-6-8.5-8.2-15.6z"/><path class="st0" d="M-160.9 363.8c-3.2 20.9-10.1 35.5-18 35.5 2.4-3.4 4.5-8.4 6.1-14.6.7-2.8 1.4-5.8 1.9-9 3.3-2.2 6.3-6 8.1-10.9.1-.3.4-.6.8-.7.4 0 .8-.1 1.1-.3zm98.3 0c3.2 20.9 10 35.5 18 35.5-2.4-3.4-4.5-8.4-6.1-14.6-.7-2.8-1.4-5.8-1.9-9-3.4-2.2-6.3-6-8.1-10.9 0-.3-.4-.6-.8-.7-.5 0-.9-.1-1.1-.3zm-81.1 32.6v20.9c-2-1-3.8-5.2-4.2-10.4-.2-2.7-.1-5.3.4-7.3.1.3.1.5.2.8.6-1.5 1.5-2.6 2.3-3l1.3-1zm63.9 0v20.9c2-1 3.8-5.2 4.2-10.4.2-2.7.1-5.3-.4-7.3-.1.3-.1.5-.2.8-.6-1.5-1.4-2.6-2.2-3l-1.4-1z"/><path class="st0" d="M-142.3 385.6h-1.4v10.9l-1.4 1.1c-.8.3-1.6 1.5-2.3 3-.2-1.2-.5-2.1-1.1-2.6-.4-.5-.9-1.5-1.2-2.6-.2-.8-.3-1.5-.3-2.1 0-1.2.1-2.5.2-3.8.4-3.8 1.4-7.1 2.7-9.4.1.2.3.4.4.6 1.5 1.9 2.3 4.1 3.3-.2-.6 3.6.3 4.2 1.1 5.1zm61.1 0h1.4v10.9l1.4 1.1c.8.3 1.6 1.5 2.2 3 .2-1.2.5-2.1 1.1-2.6.5-.5.9-1.5 1.2-2.6.2-.8.3-1.5.3-2.1 0-1.2-.1-2.5-.2-3.8-.4-3.8-1.4-7.1-2.6-9.4-.1.2-.3.4-.4.6-1.5 1.9-2.3 4.1-3.3-.2.5 3.6-.3 4.2-1.1 5.1zm-38.3-1.8c-1 .7-2.1 1.3-3.3 1.8h-5.1c1-3 3.3-5.1 5.9-6.4 1.8.2 3.6.1 4.5.1-1.1.8-2.6 2-2 4.5zm22.8-8.5c1.7 3.3 1.3 7.2.9 10.2h-.6c-1-.9-2.7-2.9-2.8-3.5.6-4.8-1.1-7.3-3.1-8.7 2.1.6 4 1.3 5.6 2z"/><path class="st0" d="M-164.9 352c1.8-2.2 4.4-3.6 7.2-3.6 4.2 0 7.9 3.1 9.3 7.4 3.3 11.1 9.3 21.9 18 29.7h-11.9c-.8-.9-1.7-1.5-1-5.4-1 4.3-1.8 2.2-3.3.2-1.1-1.4-1.9-1.8-1-5.3-1 3.5-1.9 1.4-3.3-.8-1.3-2.1-.7-3-.3-4.7-.8 2.7-1.5 1.5-2.8-1.2-1.1-2.4-.9-2.5.1-5.2-1.6 3.4-2.3.4-3.1-1.7-.6-1.5.3-2.7.5-3.8-1.5 2.5-1.2 1.3-1.2.6 0-1.1.2-2 .6-2.6 0-.1.1-.2.1-.4 0-.3-.1-.6-.5-.6-1.7 0-3.1 3.2-3.1 7 0 .4.1.8.1 1.3 0 .6-.7 1.1-1.6 1.1-.4 0-.8.3-.8.7-2.6 6.9-7.5 11.9-12.6 12.7 3-6 4.3-11.9 6.4-18.2 1.1-2.8 2.5-5.3 4.2-7.2zm106.3 0c-1.8-2.2-4.4-3.6-7.2-3.6-4.2 0-7.9 3.1-9.3 7.4-3.3 11.1-9.3 21.9-17.9 29.7h11.9c.8-.9 1.7-1.5 1-5.4 1 4.3 1.8 2.2 3.3.2 1.1-1.4 1.9-1.8 1-5.3 1 3.5 1.9 1.4 3.3-.8 1.3-2.1.7-3 .3-4.7.8 2.7 1.5 1.5 2.8-1.2 1.1-2.4.9-2.5-.1-5.2 1.6 3.4 2.3.4 3.1-1.7.6-1.5-.3-2.7-.6-3.8 1.5 2.5 1.2 1.3 1.2.6 0-1.1-.2-2-.6-2.6 0-.1-.1-.2-.1-.4 0-.3.1-.6.5-.6 1.7 0 3.1 3.2 3.1 7v1.3c0 .6.7 1.1 1.6 1.1.4 0 .8.3.8.7 2.6 6.9 7.5 11.9 12.6 12.7-3-6-4.3-11.9-6.4-18.2-1.2-2.8-2.7-5.3-4.3-7.2zm-49.5 33.6h-13.8v-.4c.9-.4 1.7-.9 2.4-1.4.1.3.1.4.2.7 2.2-.7 6.3-1.6 8.3-5.3.2 1.2.7 4.6 2.9 6.4z"/><path class="st1" d="M-107.2 385.6c2-2.1 2.6-5.1 1.3-9.2.8 1.8 3.2 4.2 6.9 5.7.1.6 1.7 2.5 2.7 3.4-.1.1-10.2.1-10.9.1z"/><path class="st0" d="M-120.3 350.9c9.9-.8 12.5 5.2 25.2 4.4-.6 3.9-2.7 4.5-4.4 4.9 2.4.7 4.1 4.8 4.3 7.2-.7.1-1.3-.2-2.4-.1 2.9 1.8 3.1 5.9 3.1 9.4-1.8-1.3-4.7-2.6-7.8-3.3 2 1.4 3.7 3.9 3.1 8.7-3.6-1.5-6.1-3.9-6.9-5.7 1.4 4.3.6 7.5-1.6 9.5-2.6-1.6-3.2-5.4-3.4-6.8-2 3.7-6.2 4.6-8.3 5.3-1-2.9.7-4.3 1.7-5.2-1 0-3.4.2-5.4-.2 1-2.7 4.6-2.9 5.9-3.4 1.3-.5 2-1.6 1.9-2.7-.1-1.2-4.1-.8-6.9-1.1-2.8-.3-5.6-2.2-5.3-4.9 1.1.9 3.1 1.6 5 1.9 2 .3 6.5.3 7.6.3 3 0 4.5.7 7.3 2.2-1.1-.9-4.6-2.3-7.9-4.3-3.2-1.9-3.4-3.6-6.1-4.5-1.5-.5-2.4 0-3.4 2-.8-1.2-1.1-2.6-2.3-2.2-1.5.5-.7 2.2-.6 3.6-.9-.1-3.8-1.9-3.9-4.5-.2-2.7.7-5.6 3.7-5.8 1.1-2.7 5.2-4.5 7.8-4.7z"/><path class="st2" d="M-103.1 379.8c1.1 1.6 2 3.4 2.3 5.4"/><path class="st3" d="M-143.7 385.6h63.9v47.8c0 13.8-12.8 26-31.9 32.8-19.2-6.9-32-19-32-32.8v-47.8z"/><path d="M-79.8 412.1v16.1h-63.9v-16.1z"/><path class="st4" d="M-138.4 424.8v-.6c.5 0 .8-.1.9-.1 0 0 .1 0 .1-.1s.1-.1.1-.2c0-.3.1-.8.1-1.7V420c0-1.8 0-3.3-.1-3.6 0-.1-.1-.2-.3-.2-.3 0-.6-.1-.8-.1v-.6h3.3l.6 1.3.5 1 2.1 4.3c.4-.9.8-1.5 1-2l.9-1.8c1-2.1 1-2.1 1.3-2.8h3.1v.6h-.1c-.9 0-1 .2-1 .8v6c0 .6.1.9.1 1 0 .1.1.2.2.2s.3.1.8.1v.6h-4.2v-.6c1.1 0 1-.1 1.1-.4v-6.4l-1.6 3.1-.7 1.5c-.2.4-.5 1-.8 1.8-.2.5-.4.8-.5 1.2h-.5c-.1-.4-.4-.9-.7-1.5-.5-1.1-.9-1.9-1.1-2.5l-1.8-3.6v3.3c0 1.1 0 3 .1 3.2 0 .2.1.3.3.3.1 0 .4.1.8.1v.6h-1.5c-.8-.2-1.3-.2-1.7-.1zm14.8-2c.6 0 1 .5 1 1 0 .6-.5 1-1 1-.6 0-1.1-.5-1.1-1 .1-.5.5-1 1.1-1zm11.1.6l.1.1-.3.7c-1.1.6-1.8.8-3.1.8-.9 0-1.8-.1-2.5-.4-1.1-.5-1.9-1.3-2.3-2.2-.3-.7-.5-1.5-.5-2.3 0-2.8 2-4.7 5.5-4.7 1.2 0 2 .2 3.3.6v.1c0 .2-.1.5-.1.8-.1.5-.1 1-.1 1.4h-.5v-1.2c-.6-.6-1.3-.9-2.4-.9-2.1 0-3.5 1.4-3.5 3.7 0 1.5.5 2.5 1.2 3.2.4.4.7.6 1.1.8.5.2 1.1.3 1.7.3.7-.1 1.4-.3 2.4-.8zm2.1-.6c.6 0 1 .5 1 1 0 .6-.5 1-1 1-.6 0-1-.5-1-1s.4-1 1-1zm8.2-1.3h-.5c0-.6 0-.9-.1-1 0-.1-.1-.1-.2-.1-.3 0-.8-.1-1.5-.1h-.5v.8c0 2.1 0 2.8.1 3 0 .1 0 .1 1.2.2v.5h-4.4v-.6h.9s.1 0 .1-.1c0 0 .1-.1.1-.3 0-.2.1-1.6.1-2.1v-2.8c0-.1 0-.7-.1-1.9 0-.3 0-.6-.1-.7 0-.1 0-.1-.3-.2-.1 0-.3 0-.8-.1v-.6h5.6c.4 0 .9 0 1.3.1l.1.1c-.1.5-.2 1.4-.2 2h-.5v-1l-.1-.1c-.2-.1-.8-.2-1.6-.2h-1.3c0 .5-.1 1.3-.1 2.4v.9h1.2c.6 0 .9 0 1.1-.1 0 0 .1-.1.1-.2s0-.3.1-.8h.6c-.3.9-.3 1.9-.3 3zm2.8 1.3c.6 0 1 .5 1 1 0 .6-.5 1-1 1-.6 0-1-.5-1-1s.4-1 1-1zm11 .6l.1.1-.3.7c-1.1.6-1.8.8-3.1.8-.9 0-1.8-.1-2.5-.4-1.1-.5-1.9-1.3-2.3-2.2-.3-.7-.5-1.5-.5-2.3 0-2.8 2-4.7 5.5-4.7 1.2 0 2 .2 3.3.6v.1c0 .2-.1.5-.1.8-.1.5-.1 1-.1 1.4h-.6v-1.2c-.6-.6-1.3-.9-2.4-.9-2.1 0-3.5 1.4-3.5 3.7 0 1.5.5 2.5 1.2 3.2.4.4.7.6 1.1.8.5.2 1.1.3 1.7.3.8-.1 1.6-.3 2.5-.8zm2.2-.6c.6 0 1 .5 1 1 0 .6-.5 1-1 1-.6 0-1-.5-1-1s.5-1 1-1z"/><path class="st5" d="M-81.5 441.8c-.9 2.3-2.2 4.5-3.8 6.6l-15.5-20.2h8.9l10.4 13.6zm-8.4 11.8c-1.6 1.5-3.5 3-5.5 4.4l-22.8-29.7h8.8l19.5 25.3zm-11.3 7.9c-2 1.1-4.2 2.1-6.5 3.1l-27.9-36.4h8.9l25.5 33.3z"/><path class="st4" d="M-87.4 408.8c-.9 0-1.5.1-1.8.4-.5.6-1.7 1.1-3.1 1.1-.8 0-1.6-.1-2.2-.4-.6-.2-1.2-.3-1.9-.3-.9 0-1.8.2-2.4.5-.6.4-1.4.6-2.3.6-.8 0-1.5-.2-2.1-.5-.5-.3-1.2-.4-1.9-.4-.8 0-1.5.2-2.1.5-.5.3-1.3.5-2.1.5s-1.6-.2-2.1-.6c-.6-.3-1.4-.5-2.3-.5-.8 0-1.5.1-2 .4-.6.3-1.4.5-2.3.5s-1.7-.2-2.3-.5c-.6-.2-1.3-.4-2.1-.4s-1.6.2-2.2.5c-.7.4-1.7.6-2.9.6-1.4 0-2.7-.4-3.3-.9-.1-.1-.3-.1-.6-.1h-.1c-.5 0-.9.1-1.5.2-.5.1-1 .3-1.5.4-.2 0-.4-.2-.4-.5 0-.2.1-.4.2-.5.5-.2 1.1-.4 1.7-.5.5-.1 1-.2 1.5-.2h.1c.2 0 .4.1.6.1.6.6 1.9.9 3.3.9 1.2 0 2.2-.2 2.9-.7.6-.3 1.4-.5 2.2-.5.8 0 1.5.2 2.1.4.6.3 1.4.5 2.3.5.9 0 1.7-.2 2.3-.5.6-.2 1.3-.4 2-.4.9 0 1.7.2 2.3.5.5.3 1.3.6 2.1.6s1.6-.2 2.1-.5c.6-.3 1.3-.5 2.1-.5.7 0 1.4.1 1.9.4.5.3 1.3.5 2.1.5.9 0 1.7-.2 2.3-.6.6-.3 1.4-.5 2.4-.5.7 0 1.4.1 1.9.3.6.3 1.3.4 2.2.4 1.4 0 2.6-.5 3.1-1.1.2-.2.9-.4 1.8-.4.2 0 .3.3.3.5 0 .5-.2.7-.3.7z"/><path class="st4" d="M-120.1 396.9c.6 0 1.2.1 1.7.3.3.7.6 1.5.7 2.5-.7-.3-1.5-.5-2.3-.5v.6c1 0 1.9.2 2.6.5.4 1 .7 2.1.8 3.4-.8-.5-2-.8-3.3-.8v2.4h9.9v-.7c-.8-.5-2.3-.7-3.9-.5-1.1.2-2.1.5-2.8.9l1.8-5.1c1.5-.4 3.2-.7 5-.8v-.6c-.2-.2-.5-.3-.9-.4-.6-.1-1.5 0-2.4.2-.8.2-1.5.5-2 .9l1.5-4.4c1.1-.4 2.5-.6 3.9-.7v-.2c-.5-.3-1.3-.4-2.1-.3-.6.1-1.2.3-1.6.6l.9-3c.8-.3 1.8-.5 2.9-.5v-1.2c-.2-.2-.5-.3-.8-.3-.3 0-.7.1-.9.3-.1.1-.3.2-.6.2-.4.1-.9 0-1.4-.2-.4-.2-.8-.5-1-.8.3.1.6.2 1 .3.7 0 1.3-.2 1.6-.6.3-.2.7-.4 1.1-.4.4 0 .7.2.9.4v-.4c0-.1.1-.1.2-.1s.2 0 .2.1v2.8c1.1 0 2.2.2 3 .5l.9 3.1c-.4-.3-1-.5-1.7-.6-.9-.1-1.7 0-2.2.3v.2c1.6 0 3.2.3 4.5.7l1.5 4.4c-.2-.2-.4-.3-.7-.5-.6-.3-1.4-.6-2.3-.7-.9-.1-1.8 0-2.4.2-.2 0-.3.1-.5.2v.4c2.1 0 4 .3 5.6.8l1.4 5c-.7-.4-1.7-.8-2.9-.9-1.7-.2-3.3 0-4 .5v.7h7.6c0-4.2.1-7 .1-9v-3.5l.1-.1s.1 0 .1.1v.3c.2-.2.6-.3.9-.3.5 0 .9.2 1.1.5.2.4.8.7 1.5.7h.5c-.1.3-.6.6-1.3.6-.4 0-.8-.1-1-.3-.2-.2-.5-.3-.9-.3-.3 0-.6 0-.8.2v1.6c.9.4 2.2.7 3.8.7 2 0 3.6-.5 4.4-1.1-.8 1-1.3 2.5-1.3 4.2 0 1.8.6 3.3 1.4 4.3-.5-.1-1-.2-1.3-.4-.8-.4-1.8-.8-3-.9-1.5-.2-2.9 0-3.8.5v2.2h6.1l2.1-1.4h.1c.2 0 .3.1.3.2v.1l-2.4 3.5c.6.2 1.3.4 2.1.4 1.4 0 2.6-.4 3.1-1.1.2-.3.9-.4 1.9-.4.1 0 .3.2.3.4s-.1.4-.3.4c-.8 0-1.4.1-1.6.4-.5.6-1.7 1.1-3.1 1.1-.8 0-1.6-.1-2.2-.4-.6-.2-1.2-.3-1.9-.3-.9 0-1.8.2-2.4.5-.6.4-1.4.6-2.3.6-.8 0-1.5-.2-2.1-.5-.5-.2-1.2-.4-1.9-.4-.8 0-1.5.2-2.1.5-.5.3-1.3.5-2.1.5s-1.6-.2-2.1-.6c-.6-.3-1.4-.5-2.3-.5-.8 0-1.5.1-2 .4-.6.3-1.4.5-2.3.5s-1.7-.2-2.3-.5c-.6-.3-1.3-.4-2.1-.4s-1.6.2-2.2.5c-.7.4-1.7.7-2.9.7-1.4 0-2.7-.4-3.3-.9-.1-.1-.3-.1-.6-.1h-.1c-.5 0-.9.1-1.5.2s-1.1.3-1.5.5h-.2c-.3 0-.5-.1-.5-.3 0-.1 0-.2.1-.2.5-.3 1.2-.5 2-.7.5-.1 1-.2 1.5-.2h.1c.2 0 .4.1.6.1.6.6 1.9.9 3.3.9h.9l-3.3-3.1-7.1-3c-.1 0-.1-.1-.1-.2s.3-.3.6-.3h.3l5.2 2.2c.9.3 2.1.6 3.3.8l-4-3.8c.9-2.6 3.8-4.8 7.4-5.6 1-.2 2.1-.3 3.1-.3l.9.6V394c-.2-.2-.5-.3-.8-.3-.3 0-.7.1-.9.3-.1.1-.3.2-.5.3-.4.1-.9.1-1.4-.1-.5-.2-.8-.5-1.1-.8.3.1.6.2 1 .2.7 0 1.3-.3 1.6-.7.2-.3.6-.4 1.1-.4.5 0 .9.2 1.1.4v-.5l.1-.1c.1 0 .1 0 .1.1v3.5c.2.1.2.6.2 1zm-.4 2.3c-1.3 0-2.4.4-3.1.9.1-1 .3-1.9.7-2.7.7-.3 1.6-.5 2.5-.5v-1.2c-1.9.3-3.6 1.4-4.9 3-1.3 1.6-2.2 3.8-2.4 6.1 1.1.2 2.3.3 3.5.3h3.6v-2.4c-1.7 0-3.1.5-4 1.2.1-1.3.4-2.5.8-3.5 0 0 .1 0 .1-.1.8-.4 1.9-.7 3.1-.7.1-.1.1-.2.1-.4zm19.4-3.4v.3c0 1.6.1 3.6.2 6.5.5-.9.8-2 .8-3.3 0-1.3-.4-2.6-1-3.5z"/><path class="st0" d="M-147.6 330l4.2 13-11-8-10.9 8 4.1-13-10.9-7.9h13.5l4.2-12.9 4.2 12.9h13.6z"/><path class="st6" d="M-155.6 327.5c.2-.7.9-1 1.6-.8.7.2 1 .9.8 1.6-.2.7-.9 1-1.6.8-.6-.3-1-1-.8-1.6z"/><path class="st2" d="M-165.3 343l15.2-20.9-15.2 20.9zm28.7-20.9l-24.6 8 24.6-8zm-6.8 20.9l-15.2-20.9 15.2 20.9zm-11-33.8V335v-25.8zm-17.7 12.9l24.5 8-24.5-8z"/><path class="st0" d="M-105 330l4.2 13-11-8-10.9 8 4.1-13-10.9-7.9h13.5l4.2-12.9 4.2 12.9H-94z"/><path class="st6" d="M-113 327.5c.2-.7.9-1 1.6-.8.6.2 1 .9.8 1.6-.2.7-.9 1-1.6.8-.6-.3-1-1-.8-1.6z"/><path class="st2" d="M-122.7 343l15.2-20.9-15.2 20.9zm28.7-20.9l-24.5 8 24.5-8zm-6.8 20.9l-15.2-20.9 15.2 20.9zm-11-33.8V335v-25.8zm-17.7 12.9l24.5 8-24.5-8z"/><path class="st0" d="M-62.4 330l4.2 13-11-8-11 8 4.2-13-11-7.9h13.6l4.2-12.9 4.2 12.9h13.6z"/><path class="st6" d="M-70.4 327.5c.2-.7.9-1 1.6-.8.7.2 1 .9.8 1.6-.2.7-.9 1-1.6.8-.6-.3-1-1-.8-1.6z"/><path class="st0" d="M-80.2 343l15.2-20.9-15.2 20.9z"/><path class="st2" d="M-51.4 322.1l-24.6 8 24.6-8zm-6.8 20.9l-15.2-20.9 15.2 20.9zm-11-33.8V335v-25.8zM-87 322.1l24.6 8-24.6-8z"/><path d="M-162.5 389c.5-1.3.4-2.8.9-4.2-.3 3-.6 6.3-1 9.3-1.2 9.6-2.4 19.4-5.3 28.5 2.8-11 4.4-22.3 5.4-33.6zm101.5 0c-.5-1.3-.5-2.8-.9-4.2.3 3 .6 6.3 1 9.3 1.2 9.6 2.4 19.4 5.4 28.5-2.9-11-4.6-22.3-5.5-33.6z"/><path class="st0" d="M-155.2 365.7c-1 6.8-2.4 13.1-4.2 18.3v.1c-.9 2.7-2.4 4.8-3.7 5.3-.7.2-1.3.6-1.9 1.2.2-1.1.1-2.2-.1-3.1-.2-1.2-.3-2.6-.1-4.1 0-.6.1-1.1.3-1.6 1.7-5.2 3.1-11.2 4.2-18 .3-.2.5-.5.5-.8 0-.4-.1-.8-.1-1.3 0-3.9 1.4-7 3.1-7 .3 0 .5.3.5.6 0 .1 0 .3-.1.4-.4.6-.6 1.6-.6 2.6 0 .7-.3 1.9 1.2-.6-.3 1-1.1 2.2-.5 3.8.8 2.1 1.5 5.1 3.1 1.7-.2.1-1.6 2.1-1.6 2.5zm86.9 0c1 6.8 2.4 13.1 4.2 18.3v.1c.9 2.7 2.5 4.8 3.7 5.3.7.2 1.3.6 1.9 1.2-.2-1.1-.1-2.2.1-3.1.2-1.2.3-2.6.1-4.1-.1-.6-.2-1.1-.3-1.6-1.7-5.2-3.1-11.2-4.1-18-.3-.2-.5-.5-.5-.8v-1.3c0-3.9-1.4-7-3.1-7-.3 0-.5.3-.5.6 0 .1 0 .3.1.4.4.6.6 1.6.6 2.6 0 .7.3 1.9-1.2-.6.3 1 1.1 2.2.6 3.8-.8 2.1-1.5 5.1-3.1 1.7.1.1 1.4 2.1 1.5 2.5z"/><path d="M-161.2 379.2c0-.6.1-1.1.2-1.7 1.8-5.3 3-10.9 3.9-16.5.1.2.1.4.2.6-.8 4.9-1.8 9.8-3.3 14.6-.2 1.1-.5 2.2-1 3zm98.8 0c0-.6-.1-1.1-.2-1.7-1.8-5.3-3-10.9-3.9-16.5-.1.2-.1.4-.2.6.8 4.9 1.8 9.9 3.3 14.6.3 1.1.6 2.2 1 3z"/><path class="st0" d="M-151.6 373.1c-.6 5.3-1.5 10.4-2.9 14.9-.1.5-.4 1-.7 1.5-.6 1-1.2 1.7-1.8 2.1-.7.4-1.5 1.2-2.1 2.4.1-1.6-.1-3-.7-3.7-.4-.9-.7-2.3-.5-3.9 0-.3 0-.6.1-.8.2-.4.4-.9.6-1.4v-.1c1.8-5.3 3.2-11.5 4.2-18.3.1-.4.2-.7.3-1 .3-.1.7-.6 1.1-1.5-1.1 2.6-1.3 2.7-.1 5.2 1.3 2.7 1.9 3.9 2.8 1.2-.2 1.2-.6 2.1-.3 3.4.1-.1.1 0 0 0zm79.6 0c.6 5.3 1.5 10.4 2.9 14.9.1.5.4 1 .7 1.5.6 1 1.2 1.7 1.8 2.1.7.4 1.5 1.2 2.1 2.4-.1-1.6.1-3 .7-3.7.4-.9.7-2.3.6-3.9 0-.3-.1-.6-.1-.8-.2-.4-.4-.9-.6-1.4v-.1c-1.8-5.3-3.2-11.5-4.2-18.3-.1-.4-.2-.7-.3-1-.3-.1-.7-.6-1.1-1.5 1.1 2.6 1.3 2.7.1 5.2-1.3 2.7-1.9 3.9-2.8 1.2.1 1.2.6 2.1.2 3.4 0-.1 0 0 0 0z"/><path d="M-153.6 369.3c.1.2.2.3.3.5-.6 4.6-1.4 9.2-2.5 13.7l-.9 3.1c0-.6.1-1.2.2-1.8 1.3-5.1 2.2-10.3 2.9-15.5zm83.6 0c-.1.2-.2.3-.3.5.6 4.6 1.4 9.2 2.5 13.7l.9 3.1v-.1c0-.6-.1-1.1-.2-1.7-1.2-5.1-2.2-10.3-2.9-15.5z"/><path class="st4" d="M-154.9 389.1c.2-.4.4-.8.5-1.1 1.3-4.5 2.3-9.6 2.9-14.9v-.2c.1.4.3.9.7 1.4 1.4 2.2 2.3 4.3 3.3.8-.8 3-.3 3.7.6 4.7-1.3 2.3-2.2 5.7-2.7 9.4-.1 1.3-.2 2.6-.2 3.8v.3c-.8.4-1.7 1.5-2.3 2.9-.4-1.3-1-2.4-1.6-3.2-.8-.7-1.2-2.2-1.2-3.9zm3.4-18.5v-.2c.1-.2.1-.4.2-.7 0 .3-.1.6-.2.9zm82.8 18.5c-.2-.4-.4-.8-.5-1.1-1.3-4.5-2.3-9.6-2.9-14.9v-.2c-.1.4-.3.9-.7 1.4-1.4 2.2-2.3 4.3-3.3.8.8 3 .3 3.7-.6 4.7 1.2 2.3 2.2 5.7 2.6 9.4.2 1.3.2 2.6.2 3.8v.3c.8.4 1.7 1.5 2.3 2.9.4-1.3 1-2.4 1.6-3.2 1-.7 1.3-2.2 1.3-3.9zm-3.4-18.5v-.2c-.1-.2-.2-.4-.3-.7l.3.9z"/><path d="M-149.8 376.1c.1.2.2.3.3.5-.4 3.6-1 7.2-1.8 10.7-.2 1-.5 2.1-.8 3.1v-.1c0-.6 0-1.1.1-1.7 1-4.1 1.7-8.3 2.2-12.5zm76 0c-.1.2-.2.3-.3.5.4 3.6 1 7.2 1.8 10.7.2 1 .5 2.1.8 3.1v-.1c0-.6 0-1.1-.1-1.7-1-4.1-1.7-8.3-2.2-12.5zm-95.5 15.6c.4-.8.3-.8.7-1.6-.1 1.9-.4 3.6-.7 5.5-1.1 6.8-1.6 10.6-3.9 16.5 2.2-6.6 3.2-12.7 3.9-20.4zm115.1 0c-.4-.8-.3-.8-.7-1.6.1 1.9.4 3.6.7 5.5 1.1 6.8 1.6 10.6 3.9 16.5-2.2-6.6-3.2-12.7-3.9-20.4zm-112.1-20.5c.2-.2.3-.5.5-.7-.2 1.4-.4 2.8-.6 3.8-1.3 5.7-2.4 11.1-5.4 16.2 2.6-6.1 4.3-12.6 5.5-19.3zm109.1 0c-.2-.2-.4-.5-.5-.7.2 1.4.4 2.8.6 3.8 1.3 5.7 2.5 11.1 5.4 16.2-2.7-6.1-4.4-12.6-5.5-19.3zm-99.3 20.1c-.2 2.8-.4 6.3-.6 8.1-1.5 13.2-2.8 25.8-6 38.4 3-15.2 4.9-30.8 6.1-46.2.2-.1.3-.2.5-.3zm89.5 0c.2 2.8.4 6.3.6 8.1 1.5 13.2 2.8 25.8 6 38.4-3-15.2-4.9-30.8-6.2-46.2-.2-.1-.3-.2-.4-.3zm-84.4 3.6c.1-.2.2-.3.3-.5.1 2.1.2 4.2.2 6-.4 9.7-.8 19.1-2.9 28.5 1.8-11.3 2.4-22.6 2.4-34zm79.3 0c0-.2-.2-.3-.3-.5-.1 2.1-.2 4.2-.2 6 .4 9.7.8 19.1 2.9 28.5-1.8-11.3-2.4-22.6-2.4-34zm-72.2-12.3c-.4 3.2-1 6.5-1.6 9.7-.2 1-.4 2.1-.7 3.1v-1.8c.7-3.7 1.4-7.3 1.9-11 .1.1.2.1.4 0zm65.1 0c.4 3.2 1 6.5 1.6 9.7.2 1 .3 2.1.7 3.1v-1.8c-.7-3.7-1.4-7.3-1.9-11-.2.1-.3.1-.4 0zm-29.8-6.1c.3.5.9 1.3 1 2.4.2 1.1.1 1.7 0 2.8.1-1.2-1-4-1-5.2zm4.3-2c.6.3 1.5.6 2.2 1.5.7.9.9 1.3 1.4 2.3-.7-1-2.9-2.8-3.6-3.8z"/><path class="st0" d="M-137.6 363.9c4.5 2 13.7 2.2 17 2.2 1.3 0 3.9.5 5.1.9 3.3 1.9 6.1 2.9 6.7 3.7-1.5-.9-3.1-1.7-6.1-1.6-2.2-.5-4.8-1.5-8.1-1.5-4.7-.2-12.6-1-14.6-3.7z"/><path class="st2" d="M-116.9 372.1c2 .2 6.4-.1 6.3 2m-6.3-2c2 .2 5.5 0 5.3 2.2m-5.3-2.2c2 .2 4.6.1 4.2 2.5m-4.2-2.5c2 .2 3.8.5 3.1 2.7m-3.1-2.7c2 .2 3.2 1.1 1.8 3.1m-3.7-18.3c2.4-.1 3.2 1.1 3.8 1.6-.4.7-1.3 2.4-3.2 2.4-2.8 0-2.9-1.4-3.7-2.5.6-.7.7-1.5 3.1-1.5m.3 3.9c3.3.4 6.3 6.3 9.8 7.8 1.3.6 3 1.6 5.5.8-2.3-1.1-.6-2.2-3-3.5 2.8 1.2 4.3 2.3 6.2 3.4.2-2.2-.1-4.5-3.9-6 2.1.5 3.9 1.2 3.8.4-.2-1.8-3.3-3.1-5.2-3.9 2.5-.5 5.9.5 7 .1m-16.7-1.5c.4.4 1.1.8 1.6 1"/><path class="st6" d="M-119.1 356.7c2.6.2 3.1-2.5 5.5-.2-.6-.8-1.3-1.2-2.2-1.3-1-.1-2.3.9-3.3 1.5z"/><path class="st2" d="M-100.4 362.9c.5 1.2 1.1 2.1 3.3 2m-3 4.4c1.2.7 2.3 1.7 3 2.8m-6.2-2.7c2.7 1.1 3.7 4 5.4 5.4m-28.8-18.9c1.7.8 2.6 2.9 2.4 4.8 1 .6 2.6.5 4.9 0m-6.2-4c.8.7 2.8 2.5 4 1.4"/><path d="M-126.7 358.4c.6 0 .1 1 .6 1.4-.6.2-1.7 0-2 1-.4-.7-.4-.9-.2-1.5s1-.9 1.6-.9zm7.9-1.5c.7 0 1.2 0 1.6.2.2.2.3.6.3.9 0 .8-.7 1.5-1.5 1.5-.9 0-1.6-.7-1.6-1.5 0-.4.2-.8.4-1 .3-.1.5-.1.8-.1zm-25.7 27.9h65.4v48.5c0 7-3.2 13.5-8.7 19.2-5.7 5.8-13.9 10.8-23.7 14.3h-.5c-9.9-3.5-18.1-8.5-23.8-14.3-5.5-5.7-8.7-12.2-8.7-19.2v-48.5zm1.5 1.5v47c0 6.6 3 12.8 8.3 18.2 5.5 5.6 13.4 10.4 22.9 13.9 9.5-3.5 17.4-8.2 22.9-13.8 5.3-5.4 8.3-11.6 8.3-18.2v-47H-143v-.1z"/><path class="st7" d="M-59 460.9c7.7 0 14.5 3 18.4 7.6-.9-.3-2-.4-3-.5-4-.3-7.6 1-9.6 3.1 5.3 3.1 9 7.7 10 13-4-3.2-9.6-5.2-15.8-5.2-2.5 0-4.9.3-7.2.9-1.9.4-3.8.6-5.5.5-2.5-.1-4.3-.7-4.6-1.8-.3-1 .8-2.1 2.6-3 1.7-.8 4-1.5 6.2-1.8.7-.1 1.3-.2 1.9-.2h.1c.5 0 .9-.1 1.5-.3 1.1-.3 2.1-.7 2.7-1.1.1-.1.3-.2.4-.3 1.1-.9 1.8-2 1.9-3.1v-.4c0-1-.1-2.1-.2-3.1-.1-1.4-.3-2.8-.6-4.2.4 0 .6-.1.8-.1zm-90.4 13.9c.3.1.6.3.8.4.6.3 1 .6 1.4.9l.1.1.1.1v.7c0 .6-.8 1.1-2 1.4-1.3.3-3.2.4-5.4.3-.6 0-1.3-.1-1.9-.2-1.9-.3-3.8-.5-5.7-.6-7.1-.2-13.8 1.4-19.1 4.4 2.5-5.4 6.5-9.8 11.2-12.6-2.5-2-5.8-3.2-9.5-3.2-2.2 0-4.3.5-6.1 1.2 5.8-5.4 14.2-9 23.7-9.7l-2.7 9.4c.2-.4.7-.7 1.4-.8h-1l-.1.1h-.2v.9l.1.1.1.2.1.1.1.2.1.2.2.2.2.2.2.2.2.2.2.2.1.1.1.1.1.1.1.1.1.1.1.1.1.1.2.1.2.1.2.1.2.1.2.1.2.1.2.1.2.1.2.1.2.1.2.1.2.1.2.1.2.1.2.1.2.1.2.1.2.1.2.1.2.1.2.1.3.1.2.1.3.1.3.1h2.8l.2.1h.6l.2.1h.4l.2.1h.2l.2.1h.2l.2.1h.2l.2.1h.1l.2.1h.1l.1.1 1.4 1.4z"/><path class="st7" d="M-153.3 446.8c8.4 7.7 24.6 12.9 43.1 12.9 16.8 0 31.7-4.3 40.6-10.8.8-.6 1.8-.9 2.9-.9 2 0 3.7 1.1 4.2 2.5 1.7 4.5 2.9 9.4 3.4 14.7.1 1 .2 2.1.2 3.1 0-.8-.4-1.5-1-1.9-.7-.4-1.6-.6-2.7-.5-1.1.1-2.2.6-3.1 1.2-.1 0-.1.1-.2.1-1.3.8-2.6 1.7-3.9 2.5-10.2 5.7-24.5 9.2-40.1 9-13.7-.1-26.4-3-36.4-7.8-1.7-.9-3.9-1.9-6.4-2.6-2.9-.9-5.6-1.5-7.7-1.6-2.1-.1-3.6.2-3.9.9l6-20.5c.3-.7 1.4-1.3 2.7-1.3 1 .2 1.8.5 2.3 1z"/><path d="M-119.3 472c-.1.1-.3.4-.6.7-.1.1-.6.5-.8.5h-.3c-.2 0-.5-.2-.7-.5-.3-.4-.4-.9-.2-1.7.1-.6.4-1.4.8-2.4.3-.7.4-.9 1-1.4.2-.2.3-.2.8-.4h.4c.3 0 .3.1.7.6 0 .1.1.1.1.1h.2c.2.3.2.3.6.3.4 0 .5.2.5.5v.1s0 .1-.1.1l-.1.1v.3l-.1.1c-.2.3-.2.3-.5 1.4-.1.2-.1.4-.2.6v.5c0 .3.1.5.3.5.1 0 .9-.6 1.1-.9 0-.1.1-.1.1-.1v.8c0 .2-.3.5-.7.8-.2.1-.3.1-.4.1 0 0-.1 0-.3.1 0 0-.2.1-.3.1h-.4s-.1-.1-.4-.3c-.3.1-.4-.1-.5-.6zm.4-4.1c-.1 0-.2 0-.3.2l-.2.2c-.1.1-.3.5-.6 1.1-.3.7-.5 1.3-.6 1.7v.7c0 .2.1.3.1.3s.1 0 .2-.1.1-.2.2-.2l.2-.2s0-.1.1-.3c.2-.4.3-.7.4-.8l.1-.2.1-.3s.1-.1.1-.2 0-.2.1-.3c.1-.3.2-.5.2-.7 0-.2.1-.3.1-.3v-.4c0-.1 0-.1-.2-.2.1 0 .1 0 0 0zm-3.7-2.4h-.4c-.1 0-.4-.3-.5-.6-.1-.1-.1-.3 0-.5 0-.2.1-.3.3-.6.1-.1.2-.2.3-.2h.4l.2.1c.3.1.3.1.4.3.2.3.2.2.1.6v.3c0 .1 0 .1-.1.2s-.2.1-.2.2c-.4.2-.4.2-.5.2z"/><path d="M-123.4 472.8h-.4c-.2 0-.6-.4-.8-.8-.1-.3-.2-.6-.1-.9 0-.2 0-.4.1-.7.1-.5.1-.8.2-.9 0-.1 0-.3.1-.5.1-.6.1-.5.2-1 0-.1.1-.2.1-.2 0-.2 0-.2-.1-.3v-.2s.1-.1.2-.1h.3c.1-.1.3-.1.6-.1.1 0 .1 0 .2.1s.2.3.4.5c.1 0 .1.1.1.2 0 0 0 .1-.2.3 0 .1-.1.3-.1.6 0 .1-.1.4-.3.9-.1.4-.2.8-.2 1.1-.1.7 0 1.1.3 1.1.2 0 .5-.2.7-.5.2-.3.3-.4.3-.4.1 0 .1.1.1.2v.6s0 .1-.1.2l-.1.1-.2.1-.1.1-.2.1-.3.3h-.2c-.3.1-.5.1-.5.1z"/><path d="M-126.6 470.8c-.4.5-.4.5-1.2 1-.1.1-.3.2-.4.2-.1 0-.3-.1-.7-.3-.1-.1-.1-.1-.4-.7-.1-.4-.2-.8-.1-1.2 0-.1.1-.3.1-.5.1-.4.2-.7.2-.7l.2-.8s0-.1.1-.3c0-.2.2-.8.5-1.7.6-2.1.4-1.6.7-2.2 0 0 0-.1.1-.2l.1-.1v-.3c0-.1-.1-.2 0-.3 0 0 0-.1.1-.1 0-.3 0-.3.4-.3.1 0 .1 0 .2-.1h.5c.2 0 .4.1.5.4.1.1.1.2.1.3v.3l.1.1v.2l-.2.2-.2.4s-.1.1-.1.3c-.1.2-.3.7-.6 1.6-.1.4-.3.9-.5 1.5-.2.4-.3.7-.3.8-.1.5-.3 1.8-.3 1.9 0 .3.1.5.3.6.1 0 .3-.1.4-.4 0-.1.1-.2.2-.4.1-.1.1-.1.1-.2v-.2c0-.1 0-.4.1-.9.1-.7.1-1.1.1-1.3 0-.2-.1-.3-.1-.4v-.1s.1-.1.3-.2c.1-.1.3-.2.5-.2.1-.1.2-.1.2-.1l.2.1h.1c.1 0 .6.8.5 1l-.1.3v.2c-.3 1-.2.8-.4 1.1 0 0 0 .1-.1.2-.1.4-.2.6-.3.8-.1.1-.1.2-.1.2s0 .1.1.2c0 .1 0 .1.2.1l.3.1c.1 0 .4-.2.9-.6v-.1.1c0 .1 0 .2-.1.2v.5c0 .1-.1.2-.4.4-.3.1-.5.2-.7.1-.6.1-.7.1-1.1-.5z"/><path d="M-131.9 466.5c0 .1-.1.3-.2.6-.1.4-.6 1.2-.9 1.4-.3.3-.4.5-.4.5l-.2.2s-.1-.1 0-.1c0 0 0-.1.1-.2 0 0 0-.1.1-.1v-.5c0-.1.1-.2.2-.4.1-.1.1-.3.2-.5.1-.4.2-.7.3-.7 0-.1.1-.2.1-.2v-.9l.1-.5.1-.4.1-.5v-.1c0-.1 0-.1.2-.1l.2-.1c.2 0 .3-.1.3-.1l.1.1.1.1c.3.1.3.1.2.4 0 0 0 .1-.1.2 0 0-.1.2-.2.5v.2s0 .1.1.1c.3.1.7 0 .9-.2.1-.1.1-.1.4 0l.1.1c.1.2.1.2.5.4l.2.2c0 .1.1.2.1.2-.2.1-.3.2-.3.3l-.2.4s-.1.1-.1.2c-.1.2-.2.2-.2.3v.2c0 .1-.1.2-.2.3 0 .2-.1.4-.2.6-.1.2-.1.4-.2.6-.2.6-.1.8.4 1h.1l.2-.2c.4-.2.3-.1.5-.4 0-.1.1-.1.1-.1s.1.1.1.2l-.1.3c-.1.5-.1.5-.3.6-.6.4-1.4.8-1.7.7-.1 0-.6-.3-.7-.5l-.3-.6c-.1-.3-.1-.5-.1-.7.2-.8.3-1 .5-1.5l.4-.9c.1-.1.1-.2.1-.2 0-.1-.1-.3-.1-.3h-.1c-.1.1-.1.1-.3.1z"/><path d="M-136 463.4c.2 0 0 .1.8-.1h1.3c.1 0 .2.1.4.4.1.1.2.3.3.4.1.2.2.9.1 1.4-.1.6-.4 1.1-.8 1.4-.6.5-.6.4-.8.5-.2 0-.3.1-.3.1h-.3s-.2 0-.4-.1h-.1c-.1 0-.1 0-.2.1-.1.6.2 1.2.6 1.2.3.1.6 0 1-.2.1 0 .2-.1.5-.3 0 0 .1 0 .2-.1.2-.1.3-.2.4-.3.1-.1.1-.2.2-.2s.1-.1.1-.1v.7c0 .3-.5.7-1 .9-.1.1-.4.2-.7.4-.2.1-1 .2-1.4.2-.3 0-.6-.3-.9-.6-.2-.2-.3-.4-.3-.5-.2-.4-.2-.8-.1-1.3.2-1.1.4-1.8 1-3.1.1-.3.2-.6.4-.8zm1.5.6c-.2-.1-.5.3-.8 1.1-.3.7-.5 1.2-.6 1.5 0 .1 0 .1.1.1l.1.1c.1 0 .1.1.1.1.3.1 1-.9 1.2-1.9v-.7c.1-.2.1-.2-.1-.3zm-4.9-.4c.1-.1.3-.3.5-.4.1 0 .1-.1.2-.2 0-.1.6-.1 1 0 .2.1.2.1.5.4 0 .1.1.2.1.2.1.6 0 1.3-.2 2.1-.3.9-.4 1-1.1 1.9l-.1.1-.4.2-.2.2h-.2c-.1 0-.2.1-.3.1-.1 0-.2.1-.2.1l-.3-.1h-.2c-.1 0-.2-.1-.3-.1l-.1-.1s-.2 0-.2.1v.2l-.2.5v.3l-.2.6c0 .2-.1.4-.1.7v.4s-.1.1-.2.1c-.2 0-.3.1-.3 0-.1 0-.2-.1-.3-.3 0-.1 0-.1-.2-.3l-.2-.4c0-.1 0 .1.3-1.5l.3-.8.5-1.6.7-2 .3-.9c.2-.5.4-.8.4-.9 0-.1 0-.2.1-.3v-.2c0-.1 0-.1.1-.2v-.3c0-.1.1-.1.2-.1h.2c.2 0 .4-.1.4-.1l.1.1s.2.1.4.1c.1 0 .2.1.2.2.1.3.1.4.1.4l-.1.1c-.1.1-.1.1-.2.3 0 0-.1.1-.2.3-.1.2-.2.4-.3.7-.3.2-.3.3-.3.4zm-1.2 3.6l.2.2v.1h.2l.1.1s.1-.1.2-.1c.3-.2.3-.2.6-.9l.2-.5.1-.3.2-.7.1-.4c0-.2 0-.5-.2-.5-.1 0-.3.1-.6.4-.3.3-.3.3-.4.7l-.2.6c-.2.2-.3.7-.5 1.3zm-3.7-2.4c-.6.5-1 .8-1.2.9-.2.1-.6.1-.8 0 0 0-.1 0-.2-.1 0-.1-.1-.1-.2-.2-.1 0-.2-.4-.2-1 0-.3 0-.6.1-.8.3-.7.5-1.2.6-1.5l.1-.2.2-.7c.1-.2.1-.3.2-.4l.1-.1v-.3l.1-.2.2-.5c0-.2.4-.3.6-.2h.1c.1 0 .1.1.1.1h.4l.1.1c.2.6.2.6.2.7 0 .1 0 .1-.1.2 0 .1-.1.1-.1.1v.2l-.1.1c-.1.1-.2.3-.4.6 0 .1-.3.5-.7 1.2-.2.3-.3.6-.4 1-.1.3-.2.6-.1.8 0 .2.1.3.1.3.1 0 .2 0 .3-.1.3-.3.5-.4.5-.5.2-.2.4-.6.6-1 .3-.6.4-.9.5-.9.2-.4.3-.7.4-.9v-.1l.1-.1v-.2c0-.1.1-.1.1-.2.1-.1.2-.1.2-.1l.2.1c.1 0 .2.1.3.1.1.1.2.1.3.2 0 0 .1 0 .3.1h.1c.1 0 .1.1.1.1l-.1.2s0 .1.1.3v.1l-.2.2s-.1.1-.2.3c0 0-.1.3-.4.6-.2.4-.4.7-.5.9l-.2.6c-.1.3 0 .9.2 1 .2.1.5-.1 1.1-.7l.1-.1v.2s-.1.3-.3.8c0 .1-.1.1-.3.2-.1 0-.3.1-.4.2-.1 0-.1 0-.2.1-.4.2-.2.1-.6.2h-.3c-.3-.4-.5-.8-.5-1.7zm-3-9.6h-.2c-.1 0-.1-.1-.2-.1-.2-.1-.5 0-.8.2-.4.2-.6.5-.7.8-.2.5 0 1 .6 1.8.3.4.8 1.1 1.6 2 .5.6.7 1.5.5 2.2-.1.3-.1.3-.8.9-.6.5-.7.6-1.2.8-.6.2-1.3.2-1.9 0-.8-.3-1.4-.7-1.8-1.4-.3-.5-.4-1.4-.3-1.8 0-.1.1-.1.2-.1s.2-.1.2-.1v-.2c.1-.2.2-.2.3-.2.1 0 .1.1.1.2s0 0 .1.1c0 0 .1.1 0 .3 0 .2.3.6.5.9.3.4.8.6 1.3.8.3.1.6.1.8.1h.4c.1 0 .1 0 .2-.2l.3-.6s-.1-.3-.5-.9c-.4-.6-.4-.7-1.1-1.5-.7-.8-1.1-1.4-1.2-1.9-.1-.5-.1-1 .1-1.5.4-1.2 1.1-1.8 2.4-1.9.4 0 .4 0 1.4.2.5.2.8.3.8.4l.1.1h.3s.2.2.2.3v.4c-.1.5-.1.4-.1 1.3v.8c0 .1-.1.2-.3.1-.1 0-.2 0-.4.1-.1.1-.2.1-.3 0-.1 0-.1 0-.2-.1-.1 0-.1-.1-.2-.1-.2-.1-.2 0-.2-.7v-1.5c.2.1.2.1 0 0zm80.8 5.6c0 .1-.1.5-.2.9 0 .1-.3.7-.4.8-.1.1-.2.2-.3.2-.2.1-.5 0-.8-.1-.4-.2-.8-.7-1-1.4-.2-.6-.3-1.4-.5-2.5-.1-.8 0-1 .2-1.7.1-.3.1-.3.6-.7.2-.1.3-.2.3-.3.3-.1.3 0 .8.2.1 0 .1.1.1.1l.1-.1c.3.2.3.1.7 0 .3-.1.5-.1.7.2l.1.1v.3l.1.3v.1c0 .4 0 .4.2 1.5 0 .3.1.5.1.6 0 .2.1.3.2.5.2.3.3.4.5.4.1 0 .5-1 .5-1.4 0-.1 0-.2.1-.2l.1.1v.6c0 .1.1.1.1.1 0 .2 0 .5-.3 1-.1.1-.1.2-.2.3l-.2.2c0 .1-.1.1-.3.2-.1.1-.2.1-.2.2h-.6c.1 0-.2-.2-.5-.5zm-1.5-3.9c-.1 0-.1.1-.1.3v1.6c0 .8.1 1.4.3 1.8.1.3.2.5.3.7l.2.2s.1-.1.1-.2 0-.2.1-.2c0-.1.1-.2.1-.3v-1.4l-.1-.3v-.5c0-.3-.1-.6-.1-.8v-.3c0-.1-.1-.3-.2-.4 0-.1 0-.1-.2-.1-.3-.1-.4-.1-.4-.1z"/><path d="M-72.4 457.6h-.1l-.2.1c-.1.1-.5 0-.8-.1-.2 0-.3-.2-.3-.3-.1-.1-.1-.3-.1-.6 0-.1 0-.3.2-.4 0 0 .1-.1.3-.2l.2-.1c.3-.1.3-.1.5 0 .3.1.3 0 .5.3.1.1.1.2.1.2v.5c-.2.5-.2.6-.3.6zm2.9 6.1l-.2.1-.2.1c-.2.1-.7 0-1.1-.3-.3-.2-.5-.4-.6-.7l-.3-.6c-.2-.5-.3-.8-.3-.9-.1-.1-.1-.3-.2-.5-.2-.6-.2-.5-.3-1 0-.1 0-.2-.1-.3-.1-.2-.1-.2-.3-.2v-.2l.1-.2h.2l.1-.1c0-.1.2-.2.5-.3h.3c.1.1.3.1.6.2.1 0 .1 0 .2.1v.3c0 .1.1.3.2.6 0 .1.1.4.3.9.1.4.2.8.4 1.1.3.6.6.9.8.8.2-.1.3-.4.3-.8v-.5s.1 0 .2.2v.2l.2.4v.3l-.1.2v.1l-.1.1-.1.4-.1.1c-.2.2-.3.4-.4.4z"/><path d="M-74 463c0 .1.1.2.1.3.1.2.3.5.5.7.2.2.5.2.7.2l.1-.1c.1 0 .1-.1.2-.1 0 0 .2-.3.4-.8.1-.4.1-.3.1-.8v-.2c.1 0 .1 0 .1.1v.1l.2.3c.1.2.1.2.1.5-.1.7 0 .5-.2 1-.2.8-.2.8-.6 1.1l-.5.4c-.2.1-1 0-1.3-.2-.3-.1-.8-.6-.9-1-.1-.2-.5-1.2-1.3-3-.3-.6-.9-2.9-1-3.4 0-.3-.1-.6-.1-.6l-.1-.2c-.1-.1 0-.2.1-.4.3-.3.5-.5.6-.5 0 0 .2-.1.6-.1h.5c.3 0 .6.3 1.1.9.2.3.4.7.5.9.6 1.1.6 2.9.1 4.9zm-.5-1.1c.2-1.1.1-2.2-.4-3.4 0-.1-.2-.5-.5-1.1-.2-.4-.4-.6-.5-.5-.1 0 0 .7.4 1.9.4 1.4.7 2.4 1 3.1z"/><path d="M-80 461.9c.2-.1 0 0 .6-.5.1-.1.4-.2.7-.4l.4-.2c.1 0 .3 0 .5.1s.3.1.5.2.7.7.8 1.1c.2.5.2 1.2.1 1.6-.3.7-.3.7-.4.8l-.2.2h-.1l-.1.1c-.1 0-.2.1-.4.1h-.1c-.1 0-.1.1 0 .2.2.5.8.9 1.2.7.3-.1.5-.4.8-.7.1-.1.1-.2.2-.5 0 0 0-.1.1-.3.1-.2.1-.3.1-.4v-.3c0-.1.1-.1.1-.1l.1.1v.2s.1.1.1.2 0 .1.1.2c.1.2 0 .8-.4 1.3-.1.1-.2.4-.3.7-.1.2-.7.8-1.1.9-.3.1-.6.1-1.1 0-.3-.1-.5-.2-.6-.3-.3-.2-.6-.6-.8-1-.4-1.1-.6-1.8-.8-3.2v-.8zm1.6-.4h-.1c-.1 0-.1.5 0 1.4.1.8.2 1.3.3 1.5 0 .1 0 .1.2 0h.3c.3-.1.3-1.3 0-2.2l-.3-.6c-.2-.1-.2-.1-.4-.1zm-3.1 6.1c0 .1-.1.5-.2.9 0 .1-.3.7-.4.8-.1.1-.2.2-.3.2-.2.1-.5 0-.8-.1-.5-.2-.8-.6-1-1.3-.2-.6-.4-1.4-.6-2.5-.1-.8-.1-1 .2-1.7.1-.3.1-.3.6-.7.1-.1.3-.2.3-.3.2-.1.3-.1.8.2h.1c.1 0 .1-.1.1-.1.3.1.3.1.7 0 .3-.1.5-.1.7.2l.1.1v.3l.1.3v.1c0 .4 0 .4.2 1.5 0 .3.1.5.1.6.1.2.1.3.2.5.2.3.4.4.5.3.1 0 .5-1 .5-1.4 0-.1 0-.1.1-.2l.1.1v.4c0 .1 0 .1.1.2 0 .1 0 .1.1.1 0 .2 0 .5-.2 1-.1.2-.2.3-.2.3s-.1.1-.2.3c0 .1-.1.1-.3.3-.1 0-.2.1-.2.1h-.6s-.3-.2-.6-.5zm-1.7-3.9c-.1 0-.1.1-.1.3v.3c0 .1 0 .6.1 1.3.1.8.2 1.4.3 1.8.1.3.2.5.3.6.1.1.2.2.3.2 0 0 .1-.1.1-.2s0-.2.1-.2c0-.1.1-.2.1-.3v-.3c0-.5 0-.8-.1-.9v-.2l-.1-.3v-.2c0-.1-.1-.2-.1-.3 0-.3-.1-.6-.1-.8 0-.2 0-.3-.1-.3 0-.1-.1-.3-.2-.4-.1-.1-.1-.1-.3 0-.1-.1-.1-.1-.2-.1z"/><path d="M-88.1 466.9c0 .1 0 .3.1.7.1.4.1 1.3 0 1.7-.1.4-.1.6-.1.7 0 .2 0 .2-.1.3 0 0-.1 0-.1-.1v-.3c0-.1-.1-.2-.1-.3 0 0 0-.1-.1-.2v-.4c0-.1 0-.3-.1-.6-.1-.5-.2-.7-.1-.7v-.2c0-.1-.1-.2-.3-.4-.1-.1-.2-.2-.2-.3l-.1-.5-.1-.4-.2-.5v-.1c0-.1 0-.1.1-.2l.1-.2c.1-.2.2-.3.2-.3h.3c.2-.1.3 0 .4.2v.2s0 .2.1.6v.1h.2c.3-.1.6-.4.7-.7 0-.1 0-.1.3-.2h.2c.2.1.2.1.7.1.1 0 .2 0 .3.1.1.1.2.1.2.1-.1.2-.1.4-.1.4 0 .2.1.4.1.5v.5l.1.2v.4c.1.2.1.4.2.6 0 .2.1.4.1.6.2.6.4.7.8.6h.1s.1-.1.1-.3c.1-.4.1-.3.2-.7v-.1s.1 0 .1.1l.1.3c.2.5.2.5.1.7-.3.7-.7 1.5-1 1.5-.2.1-.7.1-.8 0l-.6-.3c-.3-.2-.4-.4-.5-.5-.2-.7-.3-1-.4-1.5l-.1-.9v-.3c0-.1-.2-.2-.3-.2l-.1.1c-.2 0-.3 0-.4.1zm-4.9-4.7l.1.3c0 .1 0 .3-.1.4v.7c0 .2 0 .4.1.6v.2c.1.4.3.8.4 1.3.1.3.3.6.4.8l.2-.1.2-.1.1-.1.1-.1.1-.1.1-.2.1-.2v-.2l.1-.2v-1l-.1-.3c0-.1-.1-.2-.1-.3 0-.1-.1-.2-.2-.3-.1-.1-.1-.2-.2-.3-.1-.1-.2-.1-.2-.2-.1-.1-.2-.1-.3-.2l-.2-.1c-.1-.2-.3-.3-.6-.3zm-.4 0c-.2 0-.4 0-.6.1l-.3.1-.3.1-.3.1-.2.1-.2.2-.2.2-.2.2c-.1.2-.3.4-.4.6l-.1.1-.1.2-.1.1v.4l-.1.3v1.4l.1.2.1.1.1.2.1.1.1.1.1.1.1.1.1.1.1.1h.8c.1 0 .2-.1.2-.1l.2-.1.4-.4.1.6-.2.3c-.1.1-.1.2-.2.3-.1.1-.2.1-.2.2-.1.1-.2.1-.3.2l-.2.1c-.1 0-.2.1-.3.1h-1l-.2-.1-.2-.1-.2-.1-.1-.1-.2-.1-.1-.1-.1-.2-.1-.2-.1-.2-.1-.2-.1-.3v-1.2c0-.2.1-.5.2-.7l.1-.2c.2-.4.4-.8.6-1.1.1-.1.2-.3.3-.4.2-.2.3-.4.5-.6.2-.1.3-.3.5-.4.2-.1.4-.2.5-.3l.6-.3c.2-.1.3-.1.5-.2.1 0 .3-.1.4-.1h1.2l.3.1.3.1.3.1.2.1.2.1.2.2.2.2.2.2.1.2.1.3.1.3.1.3v1.2l-.1.3-.1.3-.1.2c-.1.1-.1.2-.2.4l-.3.3-.3.3c-.1.1-.3.2-.4.3-.2.1-.3.2-.5.3.1.2.1.4.2.6 0 .2.1.5.1.8v1.6l-.1.4-.1.4-.1.3-.2.3-.2.3-.2.3-.1.1-.1.1-.1.1-.1.1-.1.1-.2.1-.1.1h-1.8l-.2-.1-.2-.1-.2-.1-.1-.1-.1-.1-.1-.1-.1-.1-.1-.2v-.8l.1-.2.1-.1.1-.1.1-.1.2-.1h.1l1.2.2-.5.5-.1.1-.1.1v.7l.1.1.1.1.2.1h.6l.2-.1c.1 0 .2 0 .3-.1.1 0 .2-.1.3-.2.1 0 .1-.1.2-.2l.2-.2c.1-.1.1-.2.1-.3 0-.1.1-.2.1-.3 0-.1 0-.2.1-.3v-.8c0-.1 0-.3-.1-.4 0-.1-.1-.3-.1-.4l-.9-2.4-.1-.3c0-.2-.1-.5-.1-.7v-1.2c0-.2 0-.4.1-.6 0-.1.1-.3.1-.5.1-.2.1-.5.2-.7l.2-.7zm-13 10.6v-4.5l1.4-.7v.6c0 .1-.1.1-.1.2v.9c.1-.2.3-.4.4-.6l.2-.2.1-.1.1-.1.1-.1.1-.1h.5l.2.1.2.1.1.1.1.2.1.2v3.7c.1 0 .3-.1.3-.2.4-.4.7-.9.9-1.3.1-.3.3-.6.4-.9.1-.3.2-.7.4-1l.5.3c-.1.3-.2.6-.3.8-.1.3-.2.5-.3.8-.1.2-.2.5-.4.7-.1.2-.2.3-.3.5-.1.1-.2.3-.3.4l-.3.3-.2.2c-.1.1-.2.2-.3.2l-.2.1-.2.1h-.5l-.2-.1-.1-.1-.1-.1-.1-.2v-3.9h-.1s-.1 0-.1.1c-.2.2-.4.4-.5.6-.1.2-.3.4-.4.6v2.9l-1.5.7v-.7l.1-.1c.3 0 .3-.2.3-.4zm-5.2.2l.1.1.1.1.1.1.1.1h1.4l.2-.1.2-.1.2-.1.2-.2.2-.2.1-.2.1-.3.1-.3.1-.3c0-.2.1-.4.1-.5v-4c0-.2 0-.4.1-.6l.1-.2c.2-.6.4-1.1.7-1.6-.4.1-.8.4-1.3.6-.2.1-.3.2-.5.3-.2.1-.3.2-.5.4-.1.1-.3.2-.4.3l-.2.2-.2.2-.2.3-.1.2-.1.2v1l.1.1v.1l.1.1.1.1.1.1h1l.1-.1.1-.1.7-.7-.3 1.5v.1l-.1.1-.1.1-.1.1-.2.1h-1.4l-.2-.1-.1-.1-.1-.1-.1-.1-.1-.1-.1-.1-.1-.2-.1-.2-.1-.2V467l.1-.1.2-.3.2-.3.2-.3.3-.3.3-.3.3-.3.4-.2.4-.3.4-.2.5-.2.5-.2c.2-.1.5-.2.8-.3l.3-.3h.5l.1.1v.4l-.1.1c-.1 0-.1.1-.2.1-.1.1-.2.3-.2.4 0 .1-.1.3-.1.4 0 .1-.1.3-.1.5v1.2c0 .6.1 1.2.2 1.8 0 .4.1.7.1 1v.8l-.1.4v.2l-.1.4-.1.2-.1.2-.1.2-.1.2-.1.2-.1.1-.1.2-.1.1-.1.1-.1.1-.2.1-.1.1-.1.1-.2.1-.2.1-.2.1-.2.1-.2.1h-2l-.2-.1-.2-.1-.2-.1-.2-.1-.1-.1-.1-.1-.1-.1-.1-.1-.1-.1v-.8l.1-.2.1-.2.1-.2.1-.1.2-.1.2-.1h.6l.2.1h.1l.4.3-.5.3-.1.1-.1.1-.1.1v.4l-.3.6z"/><path class="st7" d="M-145.2 471.5c-.4 2.1-.9 4.1-1.5 5.9v-.1c0-.6-.6-1.3-1.9-2-1.3-.7-3.1-1.4-5.7-1.9-.7-.1-1.4-.3-2.2-.5-2.8-.8-5.2-1.8-6.4-2.6-1.2-1-1.8-1.8-1.5-2.5.3-.8 1.8-1 3.9-.9 2.1.1 4.8.7 7.7 1.6 2.3.7 4.4 1.6 6.1 2.5.7.2 1.1.3 1.5.5zm67.4 1.9c2.9-1.1 5.6-2.3 8.1-3.7 1.4-.8 2.7-1.6 3.9-2.5.1 0 .1-.1.2-.1.9-.6 2-1.1 3.1-1.2 1.1-.1 2 0 2.7.5.6.4 1 1.1 1 1.9v.4c-.1 1.1-.8 2.2-1.9 3.1-.1.1-.3.2-.4.3-.6.4-1.6.8-2.7 1.1l-1.5.3c-.7 0-1.4.1-2.1.2-2.2.3-4.6 1-6.2 1.8-1.8.9-2.9 2-2.6 3-.6-1.6-1.2-3.3-1.6-5.1z"/></svg>