<svg xmlns="http://www.w3.org/2000/svg" viewBox="-418 616.1 174.7 177"><path d="M-322 785.9c-.7 2.1-3 7.2-8.4 7.2-6.2 0-8.3-6.7-8.5-7l-.2-.6s5.3.4 8.3.4 8-.3 8.8-.4v.4z"/><path d="M-305.7 782.6l1.3.2c-1.5 4-4.2 8.4-9.6 8.4-5.2 0-7.7-3-8.8-5l-.9-.5c-.1-.1 8.9-.4 18-3.1zm-49.1 0l-1.3.2c1.5 4 4.2 8.4 9.6 8.4 5.2 0 8-3.2 9.1-5l.6-.5c0-.1-8.9-.4-18-3.1z"/><path fill="#FFF22D" d="M-326 786.4c-.8 1.2-1.4 1.2-2.4 1.2-.5 0-1.3.4-1.2 1.2 0 .6.5 1.1 1.3 1.1 1.8 0 3.2-2.6 3.6-3.6 0 0 1.1 0 1.4-.1 0 0-1.9 5.8-7 5.8-5 0-7.1-5.7-7.1-5.7s4.2.3 6.7.3 4-.2 4.7-.2zm19.6-2.6c-3.3.9-5.6 1.6-11.1 2.3 0 0 .2.6 1.4.5.5 0 .5-.1.7-.2.3-.1.9.3.8.9 0 .4-.4.9-1.6.9-1.2 0-2.6-1-3.4-1.9 0 0-.7.2-1.5.2 0 0 2.3 3.3 7 3.3 5 0 6.9-4.5 7.7-6z"/><path fill="#FADE2F" d="M-309.8 787c0-.8-.2-1.5-.7-2.1-1.8.4-3.8.8-6.8 1.2 0 .1 0 .2-.1.3.2.1.5.3 1.2.3.5 0 .5-.1.7-.2.3-.1.9.3.8.9 0 .4-.4.9-1.6.9-.3 0-.6-.1-1-.2.2.6.4 1.1.8 1.5.7.2 1.4.3 2.3.3 1.6 0 2.9-.5 4-1.2.3-.5.4-1.1.4-1.7z"/><path fill="#FBE02F" d="M-309.9 787c0-.8-.2-1.5-.7-2.1-1.8.4-3.8.8-6.7 1.2 0 .1-.1.2-.1.3.2.1.5.3 1.1.2.5 0 .5-.1.7-.2.3-.1.9.3.8.9 0 .4-.4.9-1.6.9-.3 0-.6-.1-.9-.2.2.6.5 1.1.8 1.5.7.2 1.4.3 2.2.3 1.6 0 2.9-.4 3.9-1.1.4-.5.5-1.1.5-1.7z"/><path fill="#FCE22F" d="M-309.9 787c0-.8-.2-1.5-.7-2.1-1.7.4-3.7.8-6.6 1.1 0 .1-.1.2-.1.3.2.1.5.2 1.1.2.5 0 .5-.1.7-.2.3-.1.9.3.8.9 0 .4-.4.9-1.6.9-.3 0-.6-.1-.8-.1.2.6.5 1.1.9 1.5.6.1 1.3.2 2.1.2 1.5 0 2.8-.4 3.8-1 .2-.4.4-1 .4-1.7z"/><path fill="#FFF22D" d="M-354.2 783.8c3.3.9 5.6 1.6 11.1 2.3 0 0-.2.6-1.4.5-.5 0-.5-.1-.7-.2-.3-.1-.9.3-.8.9 0 .4.4.9 1.6.9 1.2 0 2.6-1 3.4-1.9 0 0 .7.2 1.5.2 0 0-2.3 3.3-7 3.3-5 0-6.9-4.5-7.7-6z"/><path fill="#FFF22D" d="M-330.8 756.7c17.6 0 37-10.8 50.6-26.3 1.5-1.7 4-4.9 9.9-4.9s13.8 5.4 12.9 15.3c-.7 7.2-10.9 23.4-28.5 33.3s-33.7 12.1-45 12.1c-11.3 0-27.4-2.1-45-12.1s-27.8-26.2-28.5-33.3c-.9-9.8 7-15.3 12.9-15.3s8.4 3.2 9.9 4.9c13.8 15.6 33.3 26.3 50.8 26.3z"/><path d="M-330.8 756.1c8.5 0 17.5-2.6 26-7 8.9-4.6 17.3-11.2 24.2-19.1.8-.9 1.8-2.1 3.4-3.2 1.6-1.1 3.9-1.9 7-1.9.3 0 .7 0 1 .1 2.9.3 6 1.7 8.4 4.1 2.4 2.4 4.1 5.8 4.1 10.2 0 .5 0 1.1-.1 1.6-.4 4.1-3.8 11.1-9.9 18.2-4.8 5.6-11.1 11.2-18.9 15.6-8.8 5-17.3 8.1-25 9.9-7.7 1.8-14.6 2.3-20.3 2.3-5.7 0-12.6-.5-20.3-2.3-7.7-1.8-16.2-4.8-25-9.9-7.8-4.4-14.2-10.1-18.9-15.6-6.1-7.1-9.5-14-9.9-18.2-.1-.6-.1-1.1-.1-1.6 0-4.4 1.7-7.8 4.1-10.2 2.4-2.4 5.6-3.8 8.4-4.1.4 0 .7-.1 1-.1 3.1 0 5.3.8 7 1.9 1.6 1.1 2.7 2.3 3.4 3.2 6.9 7.9 15.3 14.5 24.2 19.1 8.7 4.4 17.7 7 26.2 7zm0 1.3c-8.7 0-17.9-2.6-26.6-7.1-9-4.7-17.5-11.4-24.5-19.4-.7-.8-1.7-2-3.2-2.9-1.5-.9-3.5-1.7-6.3-1.7h-.9c-2.6.2-5.4 1.5-7.7 3.7-2.2 2.2-3.8 5.3-3.8 9.3 0 .5 0 1 .1 1.5.4 3.9 3.7 10.6 9.6 17.5 4.7 5.5 10.9 11 18.6 15.4 8.7 5 17.1 8 24.7 9.7 7.6 1.8 14.4 2.3 20 2.3s12.4-.5 20-2.3 16-4.8 24.7-9.7c7.7-4.4 13.9-9.9 18.6-15.4 5.9-6.9 9.2-13.6 9.6-17.5 0-.5.1-1 .1-1.5 0-4-1.6-7.1-3.8-9.3-2.2-2.2-5.1-3.5-7.7-3.7h-.9c-2.8 0-4.8.8-6.3 1.7-1.5 1-2.4 2.1-3.2 2.9-7 8-15.5 14.7-24.5 19.4-8.7 4.5-17.9 7.1-26.6 7.1z"/><path fill="#C23227" d="M-383.4 732l-.2-.2c-1.4-1.6-3.3-3.8-7.9-3.8-2.7 0-5.7 1.4-7.7 3.6-1.5 1.6-3.2 4.5-2.8 9 .6 6 10.2 21.7 27.3 31.4 13.8 7.8 28.5 11.8 43.8 11.8 15.3 0 30-4 43.8-11.8 17.1-9.7 26.7-25.4 27.3-31.4.4-4.4-1.3-7.3-2.8-9-2-2.2-5-3.6-7.7-3.6-4.6 0-6.5 2.2-7.9 3.8l-.2.2c-14.7 16.7-34.8 27.1-52.5 27.1-17.7 0-37.8-10.4-52.5-27.1z"/><path fill="#FFF22D" d="M-274.4 712.2c0-8.4 6.8-15.2 15.2-15.2 8.4 0 15.2 6.8 15.2 15.2s-6.8 15.2-15.2 15.2c-8.4 0-15.2-6.7-15.2-15.2z"/><path d="M-275 712.2c0-4.4 1.8-8.4 4.7-11.2 2.9-2.9 6.8-4.7 11.2-4.7 4.4 0 8.4 1.8 11.2 4.7 2.9 2.9 4.6 6.8 4.6 11.2s-1.8 8.4-4.6 11.2c-2.8 2.8-6.8 4.6-11.2 4.6-4.4 0-8.4-1.8-11.2-4.6-3-2.8-4.7-6.8-4.7-11.2zm1.2 0c0 4 1.6 7.7 4.3 10.3s6.3 4.3 10.3 4.3c4 0 7.7-1.6 10.3-4.3 2.6-2.6 4.3-6.3 4.3-10.3s-1.6-7.7-4.3-10.3c-2.6-2.6-6.3-4.3-10.3-4.3-4 0-7.7 1.6-10.3 4.3-2.6 2.6-4.3 6.3-4.3 10.3z"/><path fill="#FFF22D" d="M-417.3 712.3c0-8.4 6.8-15.2 15.2-15.2s15.2 6.8 15.2 15.2-6.8 15.2-15.2 15.2-15.2-6.8-15.2-15.2z"/><path d="M-418 712.3c0-4.4 1.8-8.4 4.7-11.2 2.9-2.9 6.8-4.7 11.2-4.7s8.4 1.8 11.2 4.7c2.9 2.9 4.6 6.8 4.6 11.2s-1.8 8.4-4.6 11.2c-2.9 2.9-6.8 4.7-11.2 4.7s-8.4-1.8-11.2-4.7c-2.9-2.9-4.7-6.9-4.7-11.2zm1.3 0c0 4 1.6 7.7 4.3 10.3s6.3 4.3 10.3 4.3 7.7-1.6 10.3-4.3c2.6-2.6 4.3-6.3 4.3-10.3s-1.6-7.7-4.3-10.3c-2.6-2.6-6.3-4.3-10.3-4.3s-7.7 1.6-10.3 4.3c-2.7 2.6-4.3 6.2-4.3 10.3zm161.7-41.1l.1-4.1c1.2.9 3.6 1 5-.5.6-.7 1-1.7.9-2.8-.1-1.2-.6-2.5-1.5-3.4-5.1-5-9.7-10-9.7-10-.5-.7-1.2-1.3-1.6-1.5-.6-.3-2.9-1.3-4.6 1.3-1.5 2.3-1.3 5.6-1 6.8l4.8 6.5c1.7 2.3 6.3 6.7 7.6 7.7zm-102.6-42.4c6.1-2 11.6-3.7 19-4.4l-19 4.4z"/><path d="M-357.6 628.8c6.1-2 11.6-3.7 19-4.4l1.1-.6c-4.2-3.3-8.3-5.5-12.4-5.5-2.6 0-7.8 1.8-9 11l1.3-.5zm53.7 0c-6.1-2-11.6-3.7-19-4.4l-1.1-.6c4.2-3.3 8.3-5.5 12.4-5.5 2.6 0 7.8 1.8 9 11l-1.3-.5zm-31.8-5.3c1.2-.1 4.1-.1 5.2-.1s4.3.1 5 .2l-10.2-.1z"/><path d="M-337.6 624.1c3-5.8 5.8-8 7.4-8 1.9 0 4.2 3.1 6 7l.4.9-1.5-.1c-1-.2-4-.2-5.1-.2s-3.6 0-5.1.1l-2.1.3z"/><path fill="#FFF22D" d="M-343.6 762.3l-2.7 10.2-5.1-12.3-3.1-.8-3.9 14.4 3.4.9 2.8-10.3 5.1 12.4 3.1.8 3.9-14.4m8.4.9l-3.9-.2-.8 14.9 3.9.2m4.3-15l.3 2 4.1-.6 1.8 12.8 3.9-.6-1.8-12.8 4.1-.5-.3-2m28.2-4.4c1.9 3.3 1.5 5.7-1.4 7.4l-1.4.8-5.5-9.5 1.5-.9c3.5-1.9 5.5-.1 6.8 2.2zm-7.6-3.9l-5 2.9 7.5 12.9 5-2.9c5.2-3 5.7-7.6 3.6-11.2-2.5-4.2-6.5-4.3-11.1-1.7zm-9.5 18.3l-1.4-4.5 4.4-1.5-.6-1.9-4.5 1.5-1.2-4 4.5-1.4-.6-1.9-8.3 2.7 4.6 14.1 9.1-2.9-.6-1.9m-62-14.7l-4.4 8c-1.3 2.4-2.7 3.9-4.9 2.6-2.2-1.2-1.7-3.1-.3-5.5l4.4-8-3.6-2-4.7 8.4c-2.6 4.6.7 7.5 3.2 8.9 2.7 1.5 6.6 2.6 9.2-2l4.7-8.5-3.6-1.9zm-2.5-87.4v69.7l33.3 21.4 33.3-21.4v-69.6c-1.1-.9-3.3-3-5-4.1h-56.9c-1.3 1-4.2 3.4-4.7 4z"/><path d="M-363.5 668.5v69.3l32.7 21.1 32.7-21.1.1-69.2h1.2v69.9l-.3.2-33.3 21.4-.4.3-.3-.3-33.4-21.4-.3-.2v-70"/><path d="M-297.8 669.1l-.4-.4c-1.1-1-3-2.8-4.5-3.7l.7-1.1c1.6 1 3.6 2.8 4.7 3.8l.4.4-.9 1z"/><path d="M-302.4 665.1h-56.9v-1.2h56.9"/><path d="M-358.9 665c-.7.5-1.6 1.2-2.5 2-1 .8-2 1.7-2.2 1.9l-.9-.9c.3-.3 1.3-1.2 2.3-2 .9-.8 1.9-1.6 2.6-2l.7 1z"/><path fill="#C23227" d="M-328.4 698.3c-.2-.1-1.1.6-1.4 1.2-.4.6-.5 1.4 0 1.7.5.3 1.2-.1 1.4-1 0-.7.2-1.8 0-1.9zm-6.4 1.8c.1.9.8 1.3 1.4 1 .5-.3.4-1.1 0-1.7s-1.2-1.3-1.4-1.2c-.2.2-.1 1.4 0 1.9zm3.3 9.3c1.1-1.8 1.6-3.7 1.6-3.7h-3.2c0-.1.5 1.9 1.6 3.7zm.6-13.8l2.6-4.5 2 4.5h3.3c-2 1.9-2.8 4.8-2.8 6.7v2.1c0 .9-.4 2.3-.4 2.3s2.9 2.2 3.3 2.6c.2.2.4.2.3.6-.2.7-2.2 1.5-2.4 1.7-.4.4-.6.6-.4 1 .1.4.5.4 1.3.2.8-.3 2.3-1.1 3.7-1.6 1.3-.6 3.1-.4 3.1-.4v-2.5h-5v-8.1l-.9-1.4 2.2-3.9 2.2 3.9-.9 1.4v4.2h2.6v-4.2l-.9-1.4 2.2-3.9 2.2 3.9-.9 1.4v4.2h2.6v-4.2l-.9-1.4 2.2-3.9 2.2 3.9-.9 1.4v8.1h-5v3.7c1.1 1.1 2.2 3.5 2.2 4.9 0 1.5-.9 2.1-.9 2.1.3 1.1.3 1.6.1 2.7-.1 1.1-1.5 2.7-1.5 2.7v19.2c0 1.3-3 1.2-3 .1v-18.9c-1.7-1.9-6.4-3.3-6.4-3.3-1.7 1.7-2.8 4.7-2.8 4.7.8.5 1.9 0 2.3-.5.4-.5 1.3-.6 1.8-.3s.6.4.4 1.2c-.2.8-.5 2-.5 2.9s1 .7 1.8.8c1.5.1 1.8 1.8 1.6 2.8-.1.9-.6 3-.6 4.2 0 1.3.1 2.5.2 3.2s.4 1.5.3 2.3c-.1 1.2-.8 1.4-1.6.6-.8-.8-11.3-12-11.3-12-.7 2.3 2.2 6.2 3.2 7.4.9 1.2.9 2.1.1 2.9-.8.8-2.4 1.3-2.7 2-.3.8.8 3 3 5.9 2.2 2.8-2.5 4.7-5.4 5.3-2.8.6-2.8-1.4-2.7-2.5.2-1.1.2-1.7.1-2.7-.1-.9-.9-2.3-2.1-3.9-1.2-1.6-1.2-3-.7-6.7s.4-6 .4-6-1.3.1-3.1 0-3.3-1.1-3.5-5.5c-.1-4.4-.2-15-.5-16.1-.3-1.1-1.5-1.3-2-1.4-.5-.1-.5-.9 0-1.1 1.3-.7 2.9-2.3 2.3-3.3-.6-1-2.9-.8-4.5 0s-3.2 2.4-3.6 2.9c-.4.5-.8.5-.7 0 0-.5-.3-2.9-.5-3.7-.2-.8-1-2.4-1.2-2.9-.3-.4 0-.6.4-.4.4.2 1.3.5 2.2.8.9.3 1.7-.2 2.1-1 .4-.8 1.2-2.7 1.6-3.5.4-.8 1.1-.6 1.6-.5.5.1 1.1.5 1.6.7.5.2.9.2 1.1-.1.2-.3.4-.3.7-1 .3-.6.7-.3.7-.1 1.5 9.1 5.4 9.5 5.4 9.5-.6 1.5-2 3.9-2.3 4.5-.3.6-.5 1.4-.5 2-.1.6.2 6.6.6 8.8.4 2.2 1.8 1.3 2.2.7.4-.7 1.7-3.5 1.7-3.5s.3-.8.3-1.4-1.1-2-1.3-2.4c-.3-.4-1.2-1.3-1.2-3.4s1.9-3.6 2.6-4.1c.7-.5.7-1.3.6-1.8-.3-1.6-2-5.1-2.9-6.4-.8-1.3-2.5-3.8-2.5-3.8h3.4l2.2-4.5 2.4 4.6 2.7-.1zm13.4 22.9v-2.6s-.7-1.1-2.4-1.1-2.7.5-2.7.9c0 .8 1.5 2.8 5.1 2.8zm-44-32.6h61.5v4.2h-61.5m0-6.4V667h61.5v16.7"/><path fill="#FFF22D" d="M-312.1 684.2v-2.8h-4.5v-1.9h3.7v-8.1h-3.4l-1.1-2.2-1.2 2.2h-3.3v8.1h3.6v1.9h-8.7v-1.9h3.6v-8.1h-3.3l-1.1-2.2-1.2 2.2h-3.3v8.1h3.6v1.9h-8.9v-1.9h3.6v-8.1h-3.3l-1.1-2.2-1.2 2.2h-3.3v8.1h3.6v1.9h-7l-7.1-1.7 1.5 4.5"/><path fill="#FFF22D" d="M-350.9 679.4l4.7 1.1 2.5-7.1v-1.8m4.1-47.7c-7.3.6-11.8 2.2-17.7 4.2.4-2.6 1-4.1 2.1-5.6-.1 1.3 1 2.7 3.1 2.7s3.3-1.2 3.3-2c0-.7-.5-1.8-1.6-1.8-1.2 0-1.4.8-1.3 1.2.1.3-.2.4-.5.5-.3.1-1.2-.4-.9-1.6.4-1.3 1.9-2 3.7-2 0 .1 4.4-.1 9.8 4.4zm35.4 4.3c-5.9-2-10.6-3.5-17.9-4.2 3.4-2.3 6.5-4.3 9.9-4.3 1.8 0 3.3.7 3.7 2 .3 1.2-.6 1.6-.9 1.6-.3-.1-.6-.2-.5-.5s-.2-1.2-1.3-1.2-1.6 1.1-1.6 1.8 1.2 2 3.3 2 3.2-1.4 3.1-2.7c1.1 1.4 1.8 2.9 2.2 5.5zm-30.9-5.6c-.2.3-.4.5-.6.9 1.2-.1 4-.1 5.1-.1s4.2.1 4.9.2c-1.1-2.5-3.1-6-4.6-6-.3 0-.9-.1-2.1 1.2 0 0-.2.6.6.5.9-.1 1.3.8 1.2 1.3-.2 1.1-1.5 2.2-2.8 2.2-1.3 0-1.7-.2-1.7-.2z"/><path d="M-398.7 663.7l4.8-6.5c.3-1.2.5-4.5-1-6.8-1.7-2.6-3.9-1.6-4.6-1.3-.4.2-1.2.7-1.6 1.5 0 0-4.6 5.1-9.7 10.1-.7.7-1.5 2-1.6 3.2-.1 1.1.4 2.2 1 2.8 1.4 1.5 3.8 1.4 5.1.5l.1 4.1c1.3-1.1 5.9-5.5 7.5-7.6z"/><path fill="#FFF22D" d="M-330.8 654.1c27.4 0 43.1 25.8 46.5 30.3 6.1 8.1 13.5 14.6 22.1 12.5 12.6-3.2 12-21.9 12-21.9-3-2.2-8.2-4.9-17.7-18.4-9.3-13.1-30.2-32.6-62.8-32.6s-53.5 19.5-62.8 32.6c-9.5 13.4-14.6 16.2-17.7 18.4 0 0-.7 18.7 12 21.9 8.6 2.2 16-4.4 22.1-12.5 3.2-4.5 18.9-30.3 46.3-30.3z"/><path d="M-330.8 653.5c25.5 0 40.9 21.9 45.9 29 .5.6.8 1.2 1.1 1.5 3 4 6.3 7.6 9.9 9.9 3.5 2.3 7.4 3.3 11.5 2.3 11.2-2.8 11.5-18.6 11.5-21-.2-.2-.5-.4-.8-.5-3.2-2.2-8.3-5.7-16.8-17.8-5.3-7.5-14.5-17.2-27.6-24-9.5-4.9-21.1-8.4-34.7-8.4-13.6 0-25.2 3.4-34.7 8.4-13.1 6.8-22.3 16.4-27.6 24-8.5 12.1-13.6 15.6-16.8 17.8-.3.2-.5.4-.8.5 0 2.4.3 18.1 11.5 21 4.1 1 7.9 0 11.5-2.3s6.9-5.9 9.9-9.9c.2-.3.6-.9 1.1-1.5 5-7.1 20.4-29 45.9-29zm0 1.3c-24.9 0-40 21.5-44.9 28.5-.4.6-.8 1.1-1.1 1.5-3.1 4.1-6.5 7.8-10.2 10.2-3.8 2.5-8 3.6-12.5 2.5-13.1-3.3-12.4-22.5-12.4-22.5v-.3l.3-.2c.3-.2.7-.5 1.1-.7 3.1-2.1 8.1-5.6 16.5-17.5 5.4-7.7 14.8-17.5 28-24.4 9.7-5 21.4-8.5 35.3-8.5 13.8 0 25.6 3.5 35.3 8.5 13.3 6.9 22.6 16.7 28 24.4 8.4 11.9 13.4 15.3 16.5 17.5.4.3.7.5 1.1.7l.3.2v.3c0 .1.7 19.2-12.4 22.5-4.5 1.1-8.6 0-12.5-2.5-3.8-2.4-7.2-6.1-10.2-10.2-.3-.4-.7-.9-1.1-1.5-5.1-7-20.2-28.5-45.1-28.5z"/><path fill="#C23227" d="M-330.8 651.7c26.5 0 42.2 22.4 47.4 29.8.4.6.8 1.1 1 1.5 7 9.3 13.4 13.1 19.5 11.6 8.9-2.2 10-14.4 10.1-18.1v-.1l-.1-.1c-3.1-2.3-8.3-5.9-17.1-18.3-5.2-7.4-25.1-31.6-60.8-31.6s-55.6 24.2-60.8 31.6c-8.7 12.3-14.1 16.1-17.1 18.1l-.1.1v.1c.1 3.7 1.2 15.9 10.1 18.2 6.1 1.6 12.5-2.2 19.5-11.6.3-.3.6-.9 1-1.5 5.2-7.3 21-29.7 47.4-29.7z"/><path fill="#FFF22D" d="M-387.7 662l-2.8 3.3 5.2 10.7-11.1-3.6-2.4 2.8 11.4 9.6 1.8-2-8.1-6.8 10.8 3.5 1.1-1.4-5.1-10.3 8.1 6.8 2.5-3m3-11.8l-2.6 2.8-2.6-5.1 5.2 2.3zm-6-6.8l-2.5 2.7 7.1 14.2 1.7-1.9-1.9-3.8 3.5-3.7 3.9 1.7 2.9-3.1-14.7-6.1zm17.4-13.4l5.6 8.9-12.4-4.7-2.8 1.8 7.9 12.6 3-1.9-5.6-9 12.5 4.7 2.7-1.7-7.9-12.6m44.1 9.2l1.6-4.6 4.4 1.5.6-1.9-4.3-1.5 1.3-3.8 4.5 1.5.6-1.9-8.2-2.8-4.8 14.1 9 3.1.7-1.9m20.1-2.8l-1.3 1.5 3.1 2.8-8.6 9.6 2.9 2.6 8.6-9.6 3.1 2.8 1.3-1.5m-4.8 14.2l3.7-3.1 2.9 3.6 1.6-1.3-3-3.6 3.1-2.6 3.1 3.6 1.5-1.2-5.6-6.7-11.4 9.6 6.2 7.3 1.5-1.3m13.6-.5c1 1.2 1 2.5-.1 3.6-1.2 1.1-2.7.8-3.8-.4l-.7-.7 3.8-3.4.8.9zm-2 7.3s2.3 1.2 4.8-1.1c2.1-1.9 1.4-4.5-.8-6.9l-4.1-4.5-11.1 10 2.6 2.9 4.4-4 1.3 1.4-2.8 6.3 3.3 2.7 2.4-6.8zm-56-47.2l-.1 6-5.8-.1.1-6-3.9-.1-.3 14.9h3.9l.2-6.8 5.8.1-.1 6.8 3.9.1.3-14.9m17.2 22.1c2.8 1.7 5.8 1.4 7.2-.9 1-1.6 1-3-.2-5.4-.3-.7-.7-1.2-1-1.8-.5-1-1-1.9-.6-2.7.5-.9 1.7-.9 2.8-.3 1.1.7 1.6 1.8 1.9 2.6l1.8-.8c-.6-1.5-1.4-2.8-3.2-3.9-3.2-1.9-5.8-1.4-6.9.4s-.8 3.3 0 4.9c0 0 .5.9.8 1.5.7 1.2 1.5 2.7 1 3.7-.7 1.2-2 1.4-3.1.7-1.5-1-1.9-2.1-2.2-3.2l-2 .9c.5 1.4 1.5 2.9 3.7 4.3zm-40.5-21.4c-4.9 1-8.1 4.6-7 9.5.6 2.6 2.9 7.5 10.3 5.9 2-.4 3.2-1.2 4.2-2.2l-1.4-1.6c-.5.6-1.3 1.4-3 1.8-3.6.8-5.7-2.1-6.2-4.6-.8-3.7 1.4-6.3 3.8-6.8 1.7-.4 2.8.1 3.5.4l.5-1.9c-1.2-.6-2.6-.9-4.7-.5zm78.9 24.8c-.2-.9-.5-4.7.9-6.6 1.3-1.8 2.5-1.2 3.2-.9.3.1 1.2.7 1.3 1.8.1.6-.1 1.5-.6 2.1-.9 1.2-3 2-3 2s2.6 5.2 8.2 10.3v3.5c-7.5-7.5-10-12.2-10-12.2z"/><path fill="#FFF22D" d="M-262.4 656.6c.8 1.3 2.7 4.5 7.5 9 .8.7 2.8 1.4 3.9.1.4-.5.7-1.2.7-2-.1-.9-.6-2-1.2-2.5-1-.8-5.1-5-8.1-8.3-.1.6-.6 1.6-.6 1.6-.3.7-.8 1.5-2.2 2.1zm-142.7 13v-3.3c5.6-5.1 8.2-10.3 8.2-10.3s-2.1-.8-3-2c-.5-.6-.7-1.5-.6-2.1.2-1.1 1-1.7 1.3-1.8.6-.3 1.9-.9 3.2.9 1.4 2 1.1 5.7.9 6.6 0 .1-2.6 4.6-10 12z"/><path fill="#FFF22D" d="M-398.9 656.6c-.8 1.3-2.7 4.5-7.5 9-.8.7-2.8 1.4-3.9.1-.4-.5-.7-1.2-.7-2 .1-.9.6-2 1.2-2.5 1-.8 5.1-5 8.1-8.3.1.6.6 1.6.6 1.6.3.7.8 1.5 2.2 2.1z"/><path fill="#C23227" d="M-414.5 712.4c0-6.8 5.6-12.4 12.4-12.4 6.9 0 12.4 5.6 12.4 12.4 0 6.9-5.6 12.4-12.4 12.4s-12.4-5.6-12.4-12.4z"/><path fill="#FFF22D" d="M-395.4 703.4c.2.2.8.6.8.6 1.1 1 2 2.1 2.6 3.4.7 1.7-1.5 4.2-2.1 4.8-2.9 2.7-4.7 2.7-5.7 2.8-1 .1-1.7-.5-1.7-1.3.1-2.3 1.7-6.2 2.1-6.9.3-.5.8-.8.8-.8 1.1-.3 2.1-.8 2.6-1.4.6-.4.6-1.2.6-1.2zm-10.4-1.6c1.1-.4 2.4-.6 3.6-.6 1.9 0 3.8.4 5.4 1.4.4.3.5.6.5 1 0 1.5-2.3 2-3.8 2s-3.4-.6-4.7-1c-1.3-.4-1.6-1.2-1.6-1.5-.1-.5.2-1.2.6-1.3zm-4.9 17.8c-1.6-1.5-2.7-4.3-2.7-7.2 0-1.1.2-2.2.5-3.3 0 0 .3-.5.5-.1.2.3.4.6.7 1 .2.4 1.4 1.3 1.3 2-.4 2.7 0 6.4.1 7 .1.7-.1 1-.4.6zm.3-9.4c-.6-.3-1.2-1.7-1.4-2.1-.2-.3-.1-1.1.1-1.5.9-1.6 2.2-3.1 3.9-3.9.2-.1.5-.1.5.4 0 .3.1.7.1.9 0 .3.1.8-.2 1.2-.3.4-1.9 3.1-2.2 4.6-.1.4-.2.7-.8.4zm8.5 13.4h-.2c-2.1 0-4.3-.8-5.7-1.5-1.4-.8-1.9-4.3-1.9-6.1 0-5.9 2.4-9.4 2.8-10.1.4-.7 1.2-.8 1.9-.6.6.2.9.3 1.6.5.4.1 1.2.3 1.8.4s1.2.3.9 1.4c-.4 1.1-1.7 3.8-1.8 7-.1 2.9.3 5.7.9 7.5.4 1.1.4 1.5-.3 1.5zm3-.4c-.6.2-.9-.2-1.2-.6-1.2-1.3-1.5-4.9-1.5-5.3 0-.5.2-1 .5-1 2.8-.1 4.8-.9 6.6-2.4 1.8-1.5 2.6-3.2 2.8-3.5.2-.3.5-.3.6.2.1.4.2 1.1.2 1.9 0 5-3.4 9.2-8 10.7z"/><path fill="#C23227" d="M-246.6 712.4c0-6.8-5.6-12.4-12.4-12.4-6.9 0-12.4 5.6-12.4 12.4 0 6.9 5.6 12.4 12.4 12.4 6.8 0 12.4-5.6 12.4-12.4z"/><path fill="#FFF22D" d="M-265.1 704.8c.5.6 1.6 1.1 2.6 1.4 0 0 .5.3.8.8.5.7 2.1 4.6 2.1 6.9 0 .8-.6 1.4-1.7 1.3-1-.1-2.8-.1-5.7-2.8-.6-.6-2.8-3.1-2.1-4.8.6-1.3 1.5-2.5 2.6-3.4 0 0 .5-.4.8-.6 0-.2 0 .6.6 1.2zm10.5-1.9c0 .3-.3 1.1-1.6 1.5-1.3.4-3.2 1-4.7 1s-3.8-.5-3.8-2c0-.5.1-.8.5-1 1.6-1 3.4-1.4 5.4-1.4 1.3 0 2.5.2 3.6.6.3.3.6 1 .6 1.3zm3.8 16.2c.1-.6.5-4.3.1-7-.1-.7 1.1-1.6 1.3-2 .2-.4.5-.7.6-1 .3-.4.5.1.5.1.3 1 .5 2.1.5 3.3 0 2.9-1.1 5.7-2.7 7.2-.2.3-.4 0-.3-.6zm-.6-9.3c-.4-1.5-1.9-4.1-2.2-4.6-.3-.4-.2-1-.2-1.2 0-.3.1-.7.1-.9 0-.5.3-.5.5-.4 1.7.8 3 2.3 3.9 3.9.2.4.2 1.2.1 1.5-.2.4-.9 1.8-1.4 2.1-.7.3-.7 0-.8-.4zm-8 12.3c.6-1.8 1-4.6.9-7.5-.1-3.2-1.4-5.9-1.8-7-.4-1.1.3-1.2.9-1.4.6-.2 1.4-.3 1.8-.4.7-.2 1-.4 1.6-.5.6-.2 1.5-.1 1.9.6.4.7 2.8 4.2 2.8 10.1 0 1.8-.5 5.4-1.9 6.1-1.3.8-3.6 1.5-5.7 1.5h-.2c-.7 0-.7-.4-.3-1.5zm-10.8-9.7c0-.8.1-1.5.2-1.9.1-.5.4-.5.6-.2.2.3 1 2 2.8 3.5 1.8 1.5 3.8 2.3 6.6 2.4.3 0 .5.5.5 1s-.3 4-1.5 5.3c-.3.3-.6.8-1.2.6-4.6-1.4-8-5.6-8-10.7z"/><path fill="#FDE62F" d="M-271.4 712.3c0-3.4 1.4-6.6 3.7-8.8 2.3-2.3 5.4-3.7 8.8-3.7s6.6 1.4 8.8 3.7c2.3 2.3 3.6 5.4 3.6 8.8 0 3.4-1.4 6.6-3.6 8.8-2.2 2.2-5.4 3.6-8.8 3.6s-6.6-1.4-8.8-3.6c-2.3-2.2-3.7-5.3-3.7-8.8zm.2 0c0 3.4 1.4 6.5 3.6 8.7 2.2 2.2 5.3 3.6 8.7 3.6s6.5-1.4 8.7-3.6c2.2-2.2 3.6-5.3 3.6-8.7s-1.4-6.5-3.6-8.7c-2.2-2.2-5.3-3.6-8.7-3.6s-6.5 1.4-8.7 3.6c-2.3 2.2-3.6 5.3-3.6 8.7z"/></svg>