<svg xmlns="http://www.w3.org/2000/svg" viewBox="-417.5 607 115.8 187.1"><path fill="#FFF" d="M-359.6 789.3c28.9 0 53.1-39.7 53.1-88.7s-24.1-88.7-53.1-88.7c-28.9 0-53.1 39.7-53.1 88.7 0 48.9 24.2 88.7 53.1 88.7z"/><path d="M-359.6 784.5c12.7 0 24.6-9.1 33.4-23.8 9.2-15.3 14.9-36.6 14.9-60.1 0-23.6-5.7-44.8-14.9-60.1-8.8-14.7-20.7-23.8-33.4-23.8s-24.6 9.1-33.4 23.8c-9.2 15.3-14.9 36.6-14.9 60.1 0 23.6 5.7 44.8 14.9 60.1 8.8 14.7 20.7 23.8 33.4 23.8zm0 9.6c-16.3 0-31.1-10.9-41.6-28.5-10-16.8-16.3-39.8-16.3-65.1 0-25.3 6.3-48.3 16.3-65 10.5-17.6 25.3-28.5 41.6-28.5s31.1 10.9 41.6 28.5c10 16.8 16.3 39.8 16.3 65.1 0 25.3-6.3 48.3-16.3 65-10.6 17.6-25.3 28.5-41.6 28.5z"/><path fill="#CA2E31" d="M-359.6 787.5c13.9 0 26.7-9.7 36-25.3 9.4-15.8 15.3-37.6 15.3-61.7s-5.9-45.9-15.3-61.7c-9.3-15.6-22.1-25.3-36-25.3s-26.7 9.7-36 25.3c-9.4 15.8-15.3 37.6-15.3 61.7s5.9 45.9 15.3 61.7c9.3 15.7 22.1 25.3 36 25.3zm0 3.5c-15.2 0-29-10.3-38.9-27-9.7-16.3-15.8-38.7-15.8-63.5 0-24.7 6.1-47.2 15.8-63.5 10-16.7 23.8-27 38.9-27s29 10.3 38.9 27c9.7 16.3 15.8 38.7 15.8 63.5 0 24.7-6.1 47.2-15.8 63.5-9.9 16.7-23.8 27-38.9 27z"/><path d="M-368.5 749.6v-96.5h-8.9v93"/><path fill="#CA2E31" d="M-377.5 746.1v-93l-8.9 5.5v84.1"/><path d="M-386.4 742.7v-84.1l-8.9 6.8v70.4"/><path fill="#CA2E31" d="M-395.3 735.8v-70.4l-8.9 13.7v43"/><path d="M-404.2 723.5v-46.4l-4.1 10.3v27.9m67.5-60.2v92.7h-3.4v-94.4h3.4m12.4 8.2v79.7h-3.4v-81.4h3.4"/><path d="M-357.9 705h48.3v3.4h-50V705m1.7-12.3h48.3v3.4h-50v-3.4"/><path fill="#CA2E31" d="M-309.3 696.1h-22.6v-35.5l-8.9-5.5v41h-18.8v-45.8l-8.9 1.4v97.9h8.9v-44.7h18.8v41.2l8.9-3.4v-37.8h22.6"/><path d="M-356.2 651.7v99.7h-3.4V649.9h3.4"/><path d="M-359.6 748.3c13.2 0 25.1-5.3 33.8-14 8.7-8.7 14-20.6 14-33.8s-5.3-25.1-14-33.8c-8.6-8.6-20.6-14-33.8-14-13.2 0-25.1 5.3-33.8 14-8.6 8.6-14 20.6-14 33.8 0 13.2 5.3 25.1 14 33.8 8.7 8.6 20.6 14 33.8 14zm0 3.4c-14.1 0-26.9-5.7-36.2-15-9.3-9.3-15-22.1-15-36.2 0-14.1 5.7-26.9 15-36.2 9.3-9.3 22.1-15 36.2-15s26.9 5.7 36.2 15c9.3 9.3 15 22.1 15 36.2 0 14.1-5.7 26.9-15 36.2-9.3 9.3-22.1 15-36.2 15zm-24.9.9l.5.2c3.1 1.1 4.4 0 4.9-1.1l2.6.9-5.3 14.7-3.2-1.1 3.6-10.1-3.8-1.4.7-2.1zm15 8.1c-1.4-.2-2-1.3-1.9-2.2.2-1.1 1.1-1.8 2.6-1.6 1.1.2 1.8 1 1.7 2.2-.2 1.1-1.1 1.8-2.4 1.6zm5.2 5.4c.3-2-.5-3.1-2-4.1 1.5-.4 2.2-1.5 2.4-2.8.3-2.1-1.3-4.3-4.8-4.8-3-.4-5.5.8-5.9 3.4-.2 1.4.4 2.5 1.6 3.3-2.7.7-3 2.7-3.2 3.5-.3 2.1.8 4.9 5.2 5.6 4.5.7 6.4-2.1 6.7-4.1zm-3.5-.4c-.2 1.1-1 2.3-2.8 2.1-1.5-.2-2.3-1.3-2.1-2.8.3-1.7 1.5-2.2 2.7-2 2 .2 2.4 1.7 2.2 2.7zm9.9-5.5c-.2-2.2 1.3-2.8 2.2-2.8 1.7-.1 2.7.9 2.8 2.6.2 1.8-1.1 2.7-2.3 2.8-1.2.1-2.5-.3-2.7-2.6zm-2.5 7c.5 2.4 2.7 3.8 5.6 3.6 3.1-.3 6-2.5 5.5-8.5-.2-2.2-.8-8-6.7-7.5-3.3.3-5.7 2.3-5.4 6.1.2 2.6 2.3 4.7 5.6 4.4 1.2-.1 2.5-.5 3.1-1.6h.1c.2 3.3-1.1 4.4-2.5 4.6-1 .1-1.8-.3-2.1-1.4l-3.2.3zm16.9-9.4c-.7-2.1.6-3 1.5-3.3 1.6-.6 2.8.2 3.4 1.9.6 1.7-.4 2.9-1.5 3.3-1.3.4-2.6.4-3.4-1.9zm-.7 7.5c1.1 2.3 3.6 3 6.3 2.1 2.9-1 5.3-3.9 3.3-9.6-.7-2.1-2.7-7.5-8.3-5.6-3.2 1.1-5 3.6-3.7 7.2.8 2.5 3.4 4 6.5 2.9 1.1-.4 2.3-1.1 2.7-2.3h.1c1 3.1.1 4.6-1.3 5-1 .3-1.8.1-2.4-.8l-3.2 1.1zm-14.6-139c-4.8.1-9 3.8-8.9 8.4.1 4.5 4.4 8.1 9.2 8 2.4 0 4.6-.9 6.1-2.3l2.4 2.2c-2.2 2-5.2 3.2-8.5 3.3-6.9.1-12.6-4.9-12.7-11.1-.1-6.3 5.3-11.5 12.3-11.6 3.3-.1 6.3 1 8.5 3l-2.3 2.3c-1.6-1.5-3.7-2.3-6.1-2.2zm14.3.8l-5.5 19.2 2.7.6 3.5-10.9 2.7 13h1.3l3.5-8.2 4.2 12.4 3.9 2.7-6.1-21.2-2.5-1.5-2.7 7.2-2.4-11.9m-27.6 17.8l-5.3-19.2-4.6 2.7-13.1 26.7 5.3-3.4 3.4-6.9 9.4-3.6 1.4 4.6 3.5-.9zm-12.6-4.2l5.1-10.4 1.8 7.6-6.9 2.8z"/></svg>