<svg xmlns="http://www.w3.org/2000/svg" width="396.8" height="396.8" viewBox="0 0 396.8 396.8"><path fill="#005696" d="M198.4 0C89 0 0 89 0 198.4s89 198.4 198.4 198.4 198.4-89 198.4-198.4S307.8 0 198.4 0"/><path fill="#FFF" d="M95.3 66.5l-19 20.9 33.1 30.1c2.1-2.3 4.2-4.4 6.5-6.6l-10.3-9.4 12.8-14.1c5.8-6.4 5.8-16.6-.6-22.4-6.3-5.7-16.7-4.9-22.5 1.5m16.7 16L99.6 96.1 88.5 86l12.4-13.6c2.8-3.1 7.6-3.3 10.6-.5 3.1 2.7 3.3 7.5.5 10.6m27-38.3l-3.4 51.7c3.1-1.9 6.2-3.6 9.4-5.2l.5-12c6.2-2.7 12.7-5 19.4-6.8l7.9 9.1c3.5-.8 7-1.4 10.6-1.8l-34.8-38.4c-3.2 1.1-6.4 2.2-9.6 3.4m6.9 26.1l.8-19.5 12.8 14.7c-4.7 1.4-9.2 3-13.6 4.8M232 48.8c0-8.6-8.1-15.6-16.7-15.6h-26.2v45.4c3-.2 6.1-.4 9.2-.4V64.4h11.5l10 15.7c3.9.7 7.8 1.6 11.6 2.7l-11.9-19c6.8-1.8 12.5-7.8 12.5-15m-16.7 7.6h-16.9v-15h16.9c4.2 0 7.5 3.4 7.5 7.5s-3.4 7.5-7.5 7.5m74.4 25l4.5 4.7c10.7 11.3 13.2 20.5 6.4 26.9-2.7 2.5-6.9 3.2-11.1 2.3-5.3-1-11.2-4.8-16.7-10.5-4.8-5-8.4-11-10-15.1l6.6-5c7.4 15.7 19.7 24.8 24.1 21.1 4.1-3.4-.4-8.8-5.5-14.2l-5-5.3c-5.2-5.5-8.6-14.1-2.6-19.7 10-9.5 31.1 5.6 36.4 20.7l-6.4 4.8c-2.4-8.4-14.9-20.9-21.8-19.3-1.8.4-3.9 3.3 1.1 8.6m-23.4-34.2l-17.5 42.1c-2.8-1.3-5.8-2.5-8.7-3.6l17.5-42.1c2.9 1.1 5.8 2.3 8.7 3.6"/><path fill="#B79651" d="M197.6 280.4c-.3 1.4-1.2 2.5-2.4 3.3-.2.1-.2.2-.1.4.7 1.4 1.9 3.2 3.4 4.4.2.2.3.2.3.2s.1 0 .3-.2c1.5-1.2 2.7-3 3.4-4.4.1-.2.1-.3-.1-.4-1.2-.7-2.1-1.9-2.4-3.3-.1-.5-.6-.9-1.2-.9-.6-.1-1.1.3-1.2.9m.8-36.4c-2 1.6-6.7 13-6.7 16.9 0 3.1 6.2 11.2 6.2 15.6 0 .4.4.8.8.8.5 0 .8-.4.8-.8 0-4.4 6.2-12.5 6.2-15.6 0-4.1-5.4-17.1-7.1-17.1.1 0-.1.1-.2.2"/><path fill="#B79653" d="M174.8 271.4c0 4 3.2 7.2 7.2 7.2 1.2 0 2.4-.6 3-1.2 1-1.2.8-2.3.7-2.6-.1-.3-.4-.2-.5-.2h-.4c-1.3 0-2.4-1.1-2.4-2.4 0-1.3 1.1-2.4 2.4-2.4 2.4 0 6.5 2.3 8.8 7.1.1.3.5.5.8.5.5 0 .9-.4.9-.9 0-.1 0-.3-.1-.4-2.9-7.7-8-11.9-13.2-11.9-3.9 0-7.2 3.2-7.2 7.2"/><path fill="#B79651" d="M202.1 276.1c-.1.1-.1.2-.1.4 0 .5.4.9.9.9.3 0 .6-.2.8-.5 2.2-4.8 6.4-7.1 8.8-7.1 1.3 0 2.4 1.1 2.4 2.4 0 1.3-1.1 2.4-2.4 2.4h-.4c-.1 0-.4-.1-.5.2-.1.2-.3 1.4.7 2.6.6.7 1.8 1.2 3 1.2 4 0 7.2-3.2 7.2-7.2s-3.2-7.2-7.2-7.2c-5.3 0-10.3 4.2-13.2 11.9"/><path fill="#FFF" d="M199 90.9c-59.5 0-107.8 48.3-107.8 107.7 0 59.4 48.4 107.7 107.8 107.7 59.5 0 107.8-48.3 107.8-107.7.1-59.3-48.3-107.7-107.8-107.7m-89.8 152.9c-6.8-13.6-10.7-28.9-10.7-45.1 0-50.7 37.6-92.6 86.4-99.5-4.5 64.6-31.4 111.4-75.7 144.6m125.9 48.6c-11.2 4.3-23.4 6.7-36.1 6.7s-24.9-2.4-36.1-6.7c-4.1-6.2-6.5-13.5-6.5-21.4 0-22.3 19.1-40.4 42.6-40.4s42.6 18.1 42.6 40.4c0 7.9-2.4 15.2-6.5 21.4m53.8-48.6c-44.3-33.2-71.2-80-75.7-144.6 48.8 6.9 86.4 48.8 86.4 99.5 0 16.2-3.8 31.5-10.7 45.1m39.3-174.9c-34.5-34.5-80.4-53.5-129.3-53.5-48.8 0-94.8 19-129.3 53.5S16 149.3 16 198c0 48.8 19 94.6 53.6 129.1 34.5 34.5 80.4 53.5 129.3 53.5 48.8 0 94.7-19 129.3-53.5 34.5-34.5 53.6-80.4 53.6-129.1 0-48.7-19.1-94.6-53.6-129.1M198.9 373.4c-97 0-175.6-78.7-175.6-175.8 0-97.1 78.6-175.7 175.6-175.7s175.6 78.7 175.6 175.7c0 97.2-78.6 175.8-175.6 175.8"/><path fill="#EF4043" d="M283.5 254.1c-8.1 12.3-18.8 22.8-31.4 30.6.5-2.7.7-5.4.7-8.2 0-27.9-24.2-50.6-54.1-50.6-29.9 0-54.1 22.6-54.1 50.6 0 2.8.2 5.5.7 8.2-12.6-7.8-23.3-18.3-31.4-30.6 18.8-15.1 34.8-32.9 47.2-53.6h75c12.6 20.7 28.6 38.5 47.4 53.6M208 97.6c-3-.3-6.1-.4-9.2-.4-3.1 0-6.2.2-9.3.4-.7 38.4-10.1 71.2-25.9 99h70.3c-15.8-27.8-25.2-60.7-25.9-99"/><path fill="none" stroke="#FFF" stroke-width=".24" stroke-miterlimit="10" d="M283.5 254.1c-8.1 12.3-18.8 22.8-31.4 30.6" opacity=".8"/><path fill="#897438" d="M212.4 269.8c-2.4 0-6.5 2.3-8.8 7.1-.2.3-.5.5-.8.5-.4 0-.7-.2-.8-.6.1-.1.1-.3.2-.4.2.2.4.3.7.3.3 0 .6-.2.8-.5 2.2-4.8 6.4-7.1 8.8-7.1 1.3 0 2.4 1.1 2.4 2.4v.3c-.2-1.1-1.2-2-2.5-2m-26.5 5.2c0 .1 0 .2-.1.4-.1.4-.3.8-.7 1.3-.6.7-1.8 1.2-3 1.2-3.7 0-6.8-2.9-7.1-6.5 0 4 3.2 7.2 7.2 7.2 1.2 0 2.4-.6 3-1.2.5-.6.7-1.2.8-1.7v-.5c-.1-.1-.1-.1-.1-.2m36.6-3.9v.3c-.3 3.7-3.4 6.5-7.1 6.5-1.2 0-2.4-.6-3-1.2-.4-.5-.6-.9-.7-1.3 0 .1 0 .1-.1.3.1.5.3 1.1.8 1.7.6.7 1.8 1.2 3 1.2 4 0 7.2-3.2 7.2-7.1-.1-.2-.1-.3-.1-.4m-24.5 5.4c0 .4.4.8.8.8.5 0 .8-.4.8-.8 0-4.3 6-12.2 6.2-15.4v-.7.3c-.5 3.3-6.2 10.9-6.2 15.2 0 .4-.4.8-.8.8-.5 0-.8-.4-.8-.8 0-4.2-5.7-11.8-6.2-15.2 0 .1 0 .3-.1.4v-.2c0 3.1 6.3 11.2 6.3 15.6zm4.1 7.6c-.7 1.3-1.7 2.7-3 3.7-.2.2-.3.2-.3.2s-.1 0-.3-.2c-1.3-1-2.3-2.4-3-3.7l-.5-.2v.1c0 .1.1.2.1.3.7 1.4 1.9 3 3.3 4.1.2.2.3.2.3.2s.1 0 .3-.2c1.4-1.1 2.5-2.8 3.3-4.1.1-.1.1-.2.1-.3v-.1l-.3.2zm-6.8-7.2zm0-.2v-.2s0-.2-.1-.3c0 .1-.1.2-.2.2l.2.4c.1 0 .1 0 .1-.1m0 .2l-.2-.4c-.2.2-.4.3-.7.3-.3 0-.6-.2-.8-.5-2.2-4.8-6.4-7.1-8.8-7.1-1.3 0-2.4 1.1-2.4 2.4v.3c.2-1.2 1.2-2.1 2.4-2.1 2.4 0 6.5 2.3 8.8 7.1.1.3.5.5.8.5.4 0 .7-.2.9-.5" opacity=".7"/><g opacity=".7"><defs><linearGradient id="a" gradientUnits="userSpaceOnUse" x1="-105.79" y1="103.45" x2="-104.79" y2="103.45" gradientTransform="rotate(120 -3124.9 11629.9) scale(140.4)"><stop offset="0" stop-color="#231F20"/><stop offset="1" stop-color="#939598"/></linearGradient></defs><path fill="url(#a)" d="M165 71.9l7.9 9.1-.5.9-7.8-9 .4-1zm-20 18.8l.9.4.5-11.9-.9-.6-.5 12.1zm.9-20.4l.9-.4.7-16.8-.8-2.4-.8 19.6zm-34.4 1.6c-3.1-2.8-7.8-2.6-10.6.5L88.5 86l.7.6L99 75.1c.8-.9 1.6-1.9 2.5-2.8.8-.9 1.9-1.5 3.1-1.9 2.3-.8 5-.2 6.9 1.5m9.7-2.5l-.4-.5c3.2 5.8 2.3 13.4-2.4 18.6l-12.8 14.1.7.6 7.2-8.3 3.6-4.1c1.2-1.4 2.5-2.7 3.4-4.4 1.9-3.2 2.7-7.1 2.3-10.7-.2-1.9-.8-3.7-1.6-5.3m-11.8 48.1l.1 1.3.6-.7c1.9-2.1 3.4-3.7 5.9-6l-.1-1.2c-2.2 2.2-4.4 4.3-6.5 6.6m139.9-26.9l17-41v-2.4l-17.5 42.1.5 1.3zm61.1 1.4l-.5 1.5 1.1-.8c.3-.2.5-.4.8-.6.3-.2.5-.4.8-.6l3.7-2.9.5-1.4c.1 0-4.4 3.3-6.4 4.8m-90.9-28.2c1.8-.1 3.6-.6 5.2-1.5 1.6-.8 3.1-2 4.3-3.4s2.2-3 2.7-4.8c.6-1.7.7-3.6.3-5.4 0 7.3-5.7 13.3-12.5 15.1m-21.2-22.5v15h.9V42.2l-.9-.9zm0 36.9l.9.9V65.3l-.9-.9v13.8z"/></g><path fill="#FFF" d="M171.2 336.4l-.6 2.4v.1l6 1.3v-.1h.1l.5-2.4m22.4 1.7h-.2v2.6l5.4.1-.2 1.8c-.1 1.5-2.1 2.8-5 2.8-4.3-.1-7.1-3-7-6.3 0-1.3.4-2.5 1.1-3.5.3-.5 1-1.1 1.5-1.4.2-.1.3-.2.5-.3 1.1-.7 2.5-1 4.2-1 3.1.1 4.4 1.6 5.2 2.4l.1.1 1.7-1.7.1-.1c-1-1-3.1-3.1-7.1-3.2h-.1c-5.4-.1-9.4 3.8-9.5 8.7v.2c-.1 5.8 4.7 8.9 9.2 9 1.9 0 3.5-.3 4.8-1 .4-.2.7-.4 1-.7.5-.4.9-.8 1.2-1.3.4-.6.6-1.3.6-2.1l.1-4.5-7.6-.6zM94.9 300.6c.6-.6.6-1.7.8-2.5.3-2-.6-4.1-3-7.4l-1.6-2.1c-1.3-1.7-.9-3-.7-3.6.1-.2.3-.4.5-.6.2-.2.5-.3.8-.3h.3c2.9 0 7.3 4.6 8.3 8.4v.1l.1-.1c.6-.3 1.1-.5 1.5-.8h.1c-.5-1.9-1.6-4-2.9-5.7-2.2-2.8-5.2-4.8-7.7-4.8-.9 0-1.7.3-2.4.8-.2.2-.4.3-.6.5-.3.4-.5.8-.7 1.3-.1.2-.1.4-.1.7v.6c0 1.4.8 3.3 1.9 4.8l1.6 2.2c1.2 1.6 2.4 3.1 2.4 4.5 0 .2 0 .3-.1.7 0 .1-.1.4-.2.5-.1.3-.3.5-.5.7-.1.1-.2.2-.4.3-.3.2-.7.3-1.1.3-1.4 0-3.3-1.4-5.1-3.7-1.4-1.8-2.7-4.2-3.6-6.9l-.1-.2-1.9 1.8s.9 3.3 3 6.2c1.9 2.5 4.2 4.5 6.2 5.1.7.2 1.3.3 1.9.3.9 0 1.8 0 2.3-.4.6-.3.8-.5 1-.7m48.9 19.4l-2.2-1.2-.1.1-6 11.5-2.9-16.3h-.1l-2.1-1.1-8 15.1.1.1h-.1.1l2 1 .1-.2h.1l6.1-11.7 3 16 2.2 1 .1-.2v.1l7.7-14.2m-30.2-19.2l-2.1-1.8-17.1 8.1 1.8 1.6 6-2.7 6.1 5.2-1.9 6v.1l1.8 1.3.1-.2 5.3-17.6zm-2.7 1.1l-2 6.7-4.1-3.5 6.1-3.2zm14.3 7.5l-2.1-1.4-9.6 14.6 2.1 1.3.1-.1m32.8-1.8l-.8 2.3 5.9 2-4.9 13.8v.1l2 .5v-.1h.1l4.6-13.6 5.8 1.9v-.1l.1.1v-.2.1l.8-2.1m66.2 16.7h-.1l-11.7 1.7-.8-5 5.7-.8v-.1h.1v-.1l-.3-2.4h-.2l-5.6.8-.6-4.2 11.2-1.6v-.1h.1v-.1h.1l-.4-2.4h-.2l-13.5 2v.3l2.4 16.6 14-2v-.1h.1v-.1m16.5-11.9c.6-.3 1.5-.6 2-1.3.7-1 1.2-2.5.6-4.5-.4-1.5-1.1-2.5-2.2-3-1.3-.7-2.8-.8-4.2-.3l-9.6 2.9 1.4 4.7 3.5 11.7.8-.2 1.2-.3-2-6.8 6.5-2.1 5.1 6 2-.9.2-.1-5.3-5.8zM242 327c1.4-.4 2.9-.1 3.5 1.8.1.2.1.4.1.5v.5c0 .2 0 .3-.1.5-.3.8-1 1.3-2.1 1.7l-7.6 2.3-1.4-4.6 7.6-2.7zm35.9-21.3l-2.3 1.6 3.7 18.4 2-1.3.1-.1-1.2-6.2 6.3-4.6 5.3 3.2 1.9-1.3.2-.1-16-9.6zm6.3 6.5l-4.5 3.1-1.5-6.6m10.4-11.5l-1.8 1.7 11.7 12.4 1.5-1.3.1-.2m16.2-17.1l-12.5-11.5-1.7 1.8 10.2 9-17-1.4-1.6 1.8 12.8 11.3 1-1.4.1-.1-9.5-9 16.9 1.1 1.2-1.4m-49.6 20.4l-2.2 1.1-.4 12.4-6.1-4.1-3.9-2.9-.3.1-1.8.9v.1l7.6 15.3 1.7-1 .2-.1-5.4-11.2 4.6 3.2 5.6 3.8v-.2h.1l.3-8.3.1-3.5 1.2 2.2 4.6 8.5h.1l1.4-1.2.1-.1h.2"/></svg>