<svg xmlns="http://www.w3.org/2000/svg" viewBox="-417.1 607.1 187 187"><path fill="#353A8E" d="M-323.6 794.1c51.7 0 93.5-41.9 93.5-93.5 0-51.7-41.9-93.5-93.5-93.5s-93.5 41.9-93.5 93.5c-.1 51.6 41.8 93.5 93.5 93.5z"/><path fill="#FFF" d="M-334.9 620.1s6.7 84.2-58.6 132.7l18.7 13 50-103.8v-41.6l-10.1-.3zm21.8 0s-6.7 84.2 58.6 132.7l-18.7 13-50-103.8v-41.6l10.1-.3z"/><path fill="#A93230" d="M-317.9 724.2l4.4 1.1 6.3 1.9 7.8 5 7.4 14.3v31.9l30.5-20.2-3.1-6s-51.1-39.8-51.1-113.4v-19.9h-16.8v19.9c0 73.5-51.1 113.4-51.1 113.4l-3.1 6 30.5 20.2v-31.9l7.4-14.3 7.8-5 6.3-1.9 4.4-1.1h12.4z"/><path fill="#FFF" d="M-350.3 703.2h52.7v2.3h-52.7m26.2 19.2c-27.4 0-28.3 28.1-28.3 28.1 0 12.4 5.5 24.4 5.5 24.4l-11.6.2v-18.3c0-37 34.5-36.3 34.5-36.3h.6s34.5-.8 34.5 36.3v18.3l-11.6-.2s5.5-12 5.5-24.4c0 0-.8-28.1-28.2-28.1h-.9z"/><path fill="#FFF" d="M-323.7 778.8c21.6 0 41.2-8.8 55.3-22.9 14.2-14.2 22.9-33.7 22.9-55.3s-8.8-41.2-22.9-55.3c-14.2-14.2-33.7-22.9-55.3-22.9s-41.2 8.8-55.3 22.9c-14.2 14.2-22.9 33.7-22.9 55.3s8.8 41.2 22.9 55.3c14.1 14.1 33.7 22.9 55.3 22.9zm0 13.7c-25.4 0-48.4-10.3-65-26.9s-26.9-39.6-26.9-65 10.3-48.4 26.9-65c16.6-16.6 39.6-26.9 65-26.9s48.4 10.3 65 26.9c16.6 16.6 26.9 39.6 26.9 65s-10.3 48.4-26.9 65-39.6 26.9-65 26.9z"/><path fill="#353A8E" d="M-411.6 701.3v-.5c0-.6.1-1.1.3-1.3.2-.2.5-.4.9-.4s.7.1.9.4c.2.3.3.7.3 1.3v.5h-2.4zm4.5 0v-1c0-.8 0-1.4-.1-1.8-.1-.4-.2-.7-.5-1-.3-.4-.7-.6-1.1-.8-.4-.2-1-.3-1.5-.3-.6 0-1.1.1-1.5.3-.4.2-.8.5-1.1.8-.3.3-.4.7-.6 1.1-.1.4-.2 1.2-.2 2.3v2.8h9.8v-2.5l-3.2.1zm-2.4-16l-.6-.3-.6-.3c.4 0 .6 0 .9-.1h.5l3.4-.4-.5 2.6-3.1-1.5zm6.5 3.3l-1.6-.8.7-3.7 1.8-.2.5-2.6-10.4 1.6-.6 3.3 9.1 5.1.5-2.7zm-3.1-18.8l.2-.5c.2-.5.5-.9.7-1.1.3-.2.7-.1 1.1 0 .4.2.6.4.7.7.1.3 0 .8-.2 1.3l-.2.5-2.3-.9zm7.2 2.8l-3.6-1.4 4.4-.7 1.1-2.8-4.7 1.1c.1-.7 0-1.3-.3-1.9-.3-.5-.8-.9-1.5-1.2-.5-.2-.9-.3-1.4-.2-.5 0-.9.2-1.2.4-.3.2-.6.5-.9.9-.2.4-.6 1.1-1 2.1l-1 2.6 9.2 3.5.9-2.4zm5.1-11l-8.5-4.9 1.4-2.3 8.5 4.9m2.1-8.9c.6 0 1.1-.1 1.5-.3.4-.2.7-.4 1-.7.2-.3.3-.6.3-.9 0-.3-.1-.5-.4-.7-.3-.2-.5-.3-.8-.2-.3.1-.7.3-1.3.7-.8.6-1.5.9-2.1 1-.6 0-1.1-.2-1.7-.6-.7-.6-1.1-1.3-1.2-2.2-.1-.9.2-1.7.8-2.5.3-.4.7-.8 1.1-1.1.4-.3.9-.5 1.4-.7l1 1.9c-.4.1-.7.2-1.1.4-.3.2-.6.4-.8.6-.2.3-.3.5-.3.8s.1.5.3.6c.2.2.4.2.6.2.2 0 .6-.2 1-.5 0 0 .1 0 .1-.1.9-.7 1.6-1 2.1-1.1.3 0 .7 0 1 .1.3.1.7.3 1 .6.8.7 1.2 1.4 1.3 2.4.1.9-.3 1.8-1 2.7-.4.5-.9.9-1.4 1.2s-1.2.5-1.9.6l-.5-2.2zm17.7-17.3c.6.2 1.1.2 1.5.2s.8-.2 1.1-.4c.3-.2.5-.4.6-.7.1-.3 0-.6-.1-.8-.2-.3-.4-.4-.7-.5-.3 0-.7.1-1.4.3-.9.3-1.7.4-2.3.3-.6-.1-1-.5-1.5-1.1-.5-.8-.7-1.6-.5-2.4.2-.8.7-1.5 1.5-2.1.4-.3.9-.5 1.4-.7s1-.2 1.5-.2l.4 2.1h-1.1c-.3.1-.6.2-.9.4-.3.2-.4.4-.5.6-.1.2-.1.5.1.7.1.2.3.3.6.3.2 0 .6-.1 1.1-.2h.1c1.1-.4 1.8-.5 2.3-.4.3.1.6.2.9.4.3.2.5.5.8.8.6.9.8 1.7.6 2.7-.2.9-.8 1.7-1.7 2.3-.6.4-1.1.6-1.7.8-.6.1-1.2.1-2 0l-.1-2.4zm13.5-12.1c0-.2-.1-.4-.1-.6s-.1-.5-.1-.7c.2.3.4.5.5.7s.2.3.3.4l2.2 2.6-2.4 1.1-.4-3.5zm.9 7.2l-.2-1.8 3.5-1.5 1.2 1.4 2.4-1.1-7.1-7.6-3.1 1.4.9 10.4 2.4-1.2zm13.3-4.9l-2.5-9.5 2.6-.7 2.5 9.5m7.7-1.6l-.7-9.8 2.6-.2 4.1 4.8c.1.1.2.3.4.6s.4.7.6 1.1c-.1-.4-.1-.8-.2-1.1 0-.3-.1-.6-.1-.8l-.4-4.8 2.6-.2.7 9.8-2.6.2-4.1-4.8c-.1-.1-.2-.3-.4-.6s-.4-.6-.6-1.1c.1.4.2.8.2 1.1 0 .3.1.6.1.8l.4 4.8-2.6.2zm18.7-.2l.9-7.4-2.2-.3.2-2.3 7.1.8-.3 2.3-2.2-.2-.8 7.4m8.3-.8l.5-2.1 4.5 1.1-.6 2.2m12.9 3.5l.9-1.9 4.7 2.3c0 .1-.1.1-.1.2s-.1.2-.1.3c-.7 1.5-1.7 2.5-2.9 3s-2.5.3-4-.4c-.7-.3-1.3-.8-1.8-1.2-.5-.5-.8-1.1-1-1.7-.2-.6-.3-1.3-.3-2s.2-1.4.5-2c.3-.7.7-1.2 1.2-1.7.5-.4 1.1-.8 1.7-1 .6-.2 1.3-.3 2-.2.7.1 1.4.2 2 .6.9.4 1.6 1 2.1 1.6.5.7.8 1.4 1 2.3h-2.6c-.1-.5-.2-.9-.5-1.2-.2-.3-.5-.6-.9-.8-.7-.3-1.4-.4-2.1-.1-.6.3-1.2.8-1.6 1.7-.4.8-.5 1.6-.3 2.3.2.7.6 1.2 1.4 1.5.6.3 1.2.4 1.8.3.6-.1 1-.4 1.3-.9l-2.4-1zm9.2 9.5l5.9-7.9 4.8 3.5-1.3 1.8-2.7-2.1-1 1.4 2.6 1.9-1.3 1.7-2.6-1.9-1 1.3 2.8 2.1-1.3 1.7m12.9 1.4l.4.4c.4.4.6.8.6 1.1s-.1.7-.5 1c-.3.3-.6.4-.9.3-.3-.1-.7-.3-1.1-.7l-.3-.4 1.8-1.7zm-5.6 5.4l2.8-2.7-1.2 4.3 2.1 2.2 1-4.7c.6.4 1.2.6 1.8.5.6-.1 1.2-.3 1.7-.9.4-.3.6-.7.8-1.2.2-.4.2-.9.2-1.3s-.2-.8-.4-1.2c-.2-.4-.7-1-1.5-1.8l-1.9-2-7.1 6.8 1.7 2zm13.7 18.6l-1.3-2.1 3.3-2.7c.2-.2.5-.4.8-.6.3-.2.6-.5 1-.7-.4.2-.9.3-1.5.5-.1 0-.2.1-.3.1l-4.6 1.3-.9-1.5 3.2-3.6.2-.2c.4-.5.8-.9 1.1-1.1-.3.2-.7.3-1 .5-.3.2-.7.3-1 .5l-3.9 1.8-1.3-2.1 9.1-3.9 1.4 2.2-3.5 3.9-.1.1c-.3.4-.6.6-.8.8.2-.1.3-.2.5-.2.2-.1.5-.1.8-.2l5.1-1.4 1.4 2.3-7.7 6.3zm10.6 7.4c.2 0 .4 0 .6-.1.2 0 .5 0 .7-.1-.3.2-.5.4-.7.5-.2.1-.3.2-.4.3l-2.7 2-.9-2.5 3.4-.1zm-7.2.4l1.8-.1 1.3 3.6-1.5 1.1.9 2.5 8.1-6.5-1.1-3.2-10.4.1.9 2.5zm4 13.5l9.6-1.7.5 2.6-9.6 1.8m1 7.8l9.8-.1v2.6l-5 3.7c-.1.1-.3.2-.6.4s-.7.3-1.1.5c.4-.1.8-.1 1.1-.1h5.7v2.6l-9.8.1v-2.6l5-3.7c.1-.1.3-.2.6-.4s.7-.3 1.1-.5c-.4.1-.8.1-1.1.1h-5.7v-2.6zm-105.3 92l2-7.3-2-.5 1.7-1.9 3.3.9-2.6 9.4m13.6-2.9c-.2-.3-.3-.7-.3-1.1 0-.5.2-.8.5-1.1.3-.2.7-.3 1.1-.3.5 0 .8.2 1 .5.2.3.3.7.3 1.1 0 .5-.2.8-.5 1.1-.3.3-.7.3-1.1.3-.4-.1-.7-.2-1-.5zm-1.6 5.2l2.7.3 1.6-1.9c.7-.9 1.3-1.7 1.6-2.3s.5-1.2.6-1.8c.1-1.1-.1-2-.8-2.7-.6-.7-1.5-1.1-2.6-1.2-1.1-.1-2.1.1-2.8.7-.7.6-1.2 1.4-1.3 2.5-.1.9.1 1.7.6 2.3s1.1 1 2 1.1h.5s.3 0 .5-.1l-2.6 3.1zm14.9.6l3.2-7.8-4.2.3-.2-2.2 7.5-.5.1.4-3.6 9.6m13.1-9.4c.1-.5.3-.8.8-1 .4-.1.8.1 1.1.5.3.4.6 1.2.9 2.2.3 1 .4 1.8.3 2.4-.1.5-.3.9-.7 1-.4.1-.8 0-1.1-.5-.3-.4-.6-1.2-.9-2.2-.4-1-.5-1.8-.4-2.4zm3.2-2.2c-.9-.7-1.9-.9-3-.6-1.1.3-1.9 1-2.3 2-.4 1-.4 2.3 0 3.9.4 1.5 1 2.7 1.9 3.4.9.7 1.9.9 3 .6 1.1-.3 1.9-.9 2.3-2 .4-1 .4-2.3 0-3.8-.4-1.6-1.1-2.8-1.9-3.5z"/><path fill="#FFF" d="M-315.7 756.9h-27.4s-.9 1 0 1.6c0 0 1.4-.4 1.4 1.8 0 0 .9 7.2 6.2 7.2h.8s1.4 3.6 3.1 0h15.2s1.5 3.6 3.1 0c0 0 9.7 1.3 9.7-10.8 0 0 1.7-15.2-12.1-15.2v15.4zm-19.4-13c.6 0 1.1-.5 1.1-1.1 0-.6-.5-1.1-1.1-1.1s-1.1.5-1.1 1.1c-.1.6.4 1.1 1.1 1.1zm10.2.2c-.6 0-1.1-.5-1.1-1.1 0-.6.5-1.1 1.1-1.1.6 0 1.1.5 1.1 1.1 0 .6-.5 1.1-1.1 1.1z"/><path fill="#FFF" d="M-330.3 751.6c-1.1 0-1-.8-1-.8 0-4.9-3.7-7-3.7-7l1-.8 2.3 2.3c0-1 1.3-1.3 1.3-1.3v-1.4s-3.3-3.1.1-7.4c.3-.4.8 0 .8 0 3.5 4.5.1 7.4.1 7.4v1.4s1.2.4 1.2 1.3l2.5-2.6.8.9s-3.6 2.3-3.7 7.2c0 0 .1.8-1 .8h-.7z"/></svg>