<svg xmlns="http://www.w3.org/2000/svg" viewBox="-454 582.7 156.8 211.6"><circle fill="#33348E" cx="-375.6" cy="715.9" r="78.4"/><path fill="none" stroke="#FFF" stroke-width=".72" d="M-381.4 788.3c-46.9-54.2-26.3-141.9 5.8-150.4m5.8 150.4c46.9-54.2 26.3-141.9-5.8-150.4"/><path fill="none" stroke="#FFF" stroke-width=".72" d="M-368.9 789.5c33.3-6 63.1-37 63.1-77.6 0-43.3-26.5-74.4-69.8-74.4-39.8 0-75.3 31.1-75.3 74.4 0 40.8 33.6 71.7 68.8 77.6"/><ellipse fill="none" stroke="#FFF" stroke-width=".72" cx="-375.6" cy="789.7" rx="6.8" ry="3.2"/><path fill="#FFF" d="M-413.1 772.6l-19.2-21.2 14.4-13 4.1 4.5-8.6 7.7 3.2 3.5 5.6-5.1 4.1 4.5-5.6 5.1 7.8 8.7-5.8 5.3zm42.1.3c-.7 1.7-2.4 2.7-4.6 2.7-3.5 0-5.5-2-5.5-5.3s2.3-5.3 5.2-5.3c2.3 0 3.8.8 4.6 2.1l6.8-5.4c-2.1-3.5-6.1-5.5-12-5.5-7.6 0-13.5 5.3-13.5 13.7 0 8.5 5.4 13.8 14.4 13.8 5.7 0 10-2.6 11.9-7l-7.3-3.8zm38.7-24.9l.9.4c1.7.9 4 2.5 2.9 4.6-1 2-2.7 2-4.6 1l-2-.9 2.8-5.1-4.5-9.3-14.1 26.9 7.3 3.9 5.8-10.9 1.5.7c6.9 3.6 11 1.8 13.6-3.1 2.5-4.8 1.3-9.3-5.6-12.9l-8.5-4.4m22.7-54.3c3.6.9 7.5 2.8 10.1 5.2l.5 2.2c-1.6-1.5-6.5-4.1-9.9-4.9l-.7-2.5zm1.5 6.6c3.6.9 7.5 2.8 10.1 5.2l.5 2.2c-1.6-1.5-6.5-4.1-9.9-4.9l-.7-2.5zm.7 6.6c3.6.9 7.5 2.8 10.1 5.2l.1 2.1c-1.6-1.5-6.5-4.1-9.9-4.9l-.3-2.4zm.4 6.6c3.6.9 7.5 2.8 10.1 5.2l-.1 2.1c-1.6-1.5-6.5-4.1-9.9-4.9l-.1-2.4z"/><path fill="#65493C" d="M-352 640c-10.3-7.5-36.9-5.6-47.7.2"/><path fill="#CC1E4C" stroke="#000" stroke-width=".72" d="M-405.4 617.8c-3.2.2-7.5-.4-9.8-1.5-2.2-1.1-4.5.2-6.7 1.9.5-1.9 2-3.2 4.6-4.1-1.5-.4-4.8-1.6-6.1-3.6 3.5 1.1 7.1 1.1 9.8.5 2.7-.6 7.8-.7 10.1 2.2m53.6-3.3c2.6-.2 4.6-.2 6.6 2.4s7.1 2.5 8.2-.9c.1 1.8-.7 4.1-.7 4.1 1.9-.8 3.2-1.9 3.9-2.7-.4 3.2-4.1 12.3-16.6 6.2m-39-26.2c-1.6-1.1-4.5-2.2-6-.9-1.5 1.3-3.5 2-4.7.6.7 1.2 2.9 2.1 4.6.8 1.6-1.3 3.4-1.1 4.3 0"/><path fill="#CF8C2C" stroke="#000" stroke-width=".72" d="M-379.5 599.7c-.1-2-2.4-7.1-3.6-5.2-.6.9-2.1 1.1-2.8.5-.7-.6-2.7-1.1-3.5-.5-.8.6-2.4 0-2.4-.9s.8-1.3 2-1.1c1.2.2 4.1.2 4.8-.4.7-.6-.1-1.9-1.8-2-1.6-.1-5.8-.2-6.8 1.1-.9-1.1-1.3-4.3 1.1-4 2.3.4 2.7-.6 3.2-1.3.5-.7 2-1.5 3.6-1.6 1.6-.1 2.8-.5 4.6 0 1.8.5 2.3 0 2.6-.8.9 1.4.9 2.7.7 3.2 1.6-.5 4.2.1 4.7 1.2.5 1.1 1.2.9 2.1.9.9 0 1.6.2 2 1.6.4 1.4 1.2.5 1.9.8.7.4 2.7 1.2 3.1 2.4.4 1.2 1.3 1.5 2.9 2.6"/><path fill="#CC1E4C" stroke="#000" stroke-width=".72" d="M-404.7 608.7c-.1-1.9-2.1-4-3.5-5.3-1.4-1.3-1.3-3.2.8-4.7s10.3-4.9 16.6-3.1c6.2 1.9 19.3 3.2 30.1-1.1l11.3 12.2"/><path fill="#7B002B" stroke="#000" stroke-width=".72" d="M-357.1 605.2c5.8 2 9.1.7 9.2-.6.1-1.3-3.6-1-5-.9-1.1.1-2.8 0-3.1-.4"/><path fill="#CC1E4C" stroke="#000" stroke-width=".72" d="M-356 603.4c.3.4 2 .4 3.1.4 1.4-.1 5.1-.4 5 .9.2-.6-.1-1.8-.4-2.5h-7.5"/><path fill="#7B002B" stroke="#000" stroke-width=".72" d="M-346.4 601.3c.9 1.1 0 2.9-2.5 2.2s-5.5-1.5-6.8-.6c-.3.2-.4.4-.3.5-.3-.4-.3-1.7-.7-2.5l8.3-1.1"/><path fill="#CC1E4C" stroke="#000" stroke-width=".72" d="M-357.3 600.5c0 .6.7 1.1 2.8.6 4.5-1.1 7.2-.8 8.1.2-.2-.6-.8-1.8-1-2.6H-358"/><path fill="#7B002B" stroke="#000" stroke-width=".72" d="M-360.3 599.2c-.1-1.1 1.8-3.3 4-2.6 2.2.7 5.3.6 6.9-.4 1.6-.9 4.1-.9 5.3-.1.9.9 0 3.2-1.6 3.6-1.6.5-7.1-.8-9.3-.9-1.2-.1-2.3.9-2.3 1.6-.5-1.1-.9-1.4-1.3-1.8-.5.4-1.3 1-1.7.6z"/><path fill="#CC1E4C" stroke="#000" stroke-width=".72" d="M-344.1 596.1c-.9-.9-1.2-2.1-1.9-3.6s-1.8-2.6-4.1-.8c-2.4 1.8-7.4.8-9.4.4-2-.5-3.4 0-3.6 1.3-.2 1.3 1.4 4.6 2.8 5.9-.1-1.1 1.8-3.3 4-2.6 2.2.7 5.3.6 6.9-.4 1.7-1 4.1-1 5.3-.2z"/><path fill="#CF8C2C" stroke="#000" stroke-width=".72" d="M-348.4 628.8l3.1-4.1c5.8-5.2-.9-9.8-3.4-11 5.1-6.6-.4-8.6-1.9-8.2-.6-1.3-2.4-1.9-3.6-2-1.3-.1-2.3.2-3.4-.8-1.1-1.1-4.2-1.2-6.9.4-2.7 1.5-7.2 1.9-9.8.1-2.6-1.8-8.6-.9-10.8 1.2-2.2 2.1-4.2 3.9-8.2-.5-5.5-5.9-12.3 1.4-11.8 5.9.6 4.5-1.5 8.1-4.3 8.7l5.6 9.2"/><path fill="#F0C560" stroke="#000" stroke-width=".72" d="M-375.6 618.8c1.1 3 7.8 3.7 9.8 1 .8 3 6 4 7.9 1.6.6 3 5.8 4.3 7.2 3 1 2.9 4.5 3.3 6.5 1.3l1.9-2.3c1.6.1 1.8-1.1 2.6-2.1s1.5-1.5 3.4-1.8c-.6-.6-.9-1.6-2-1.4l-4.3-2.5-2.6 5.3 1.4.9c-3.4 5-6.1 2.1-5.7-1.5l-1.2-.3c-1.5 3.8-5.2 2.9-5.2-1.2l-1.7-.6c-2 3.8-7.3 2.4-7.2-2.1l-1.7-.1c-.2 4.3-8 4.2-9-1.1-1 5.3-8.7 5-9 .7l-1.7.1c.1 4.5-5.2 5.4-7.3 1.7l-1.7.6c0 4.1-3.7 5-5.2 1.2l-1.2.2c.5 3.6-2.3 6.5-5.7 1.5l1.4-.9-2.6-5.3-4.3 2.5c-1.1-.2-1.5.8-2 1.4 1.9.2 2.6.8 3.4 1.8.8 1 1 2.3 2.6 2.1l1.9 2.2c1.9 2 5.5 1.6 6.5-1.2 1.4 1.2 6.6 0 7.2-3 1.9 2.4 7.3 1.9 8.1-1.1 1.7 2.8 8.4 2.4 9.5-.6z"/><path fill="#F0C560" stroke="#000" stroke-width=".72" d="M-380.2 608.7h9.2v8h-9.2zm28.1 11V612l-8.8-2.4-.1 7.8zm-47 0l.1-7.7 8.9-2.4-.1 7.8z"/><circle fill="#F0C560" stroke="#000" stroke-width=".72" cx="-401.8" cy="618.1" r="2.2"/><circle fill="#F0C560" stroke="#000" stroke-width=".72" cx="-385.6" cy="613.8" r="2.2"/><circle fill="#F0C560" stroke="#000" stroke-width=".72" cx="-349.4" cy="618.1" r="2.2"/><circle fill="#F0C560" stroke="#000" stroke-width=".72" cx="-365.6" cy="613.8" r="2.2"/><path fill="#F0C560" stroke="#000" stroke-width=".72" d="M-352 640c-10.3-7.5-36.9-5.6-47.7.2-1.8.2-3.2-2.6-1.6-4l-2.5-6.5c-1.1-.1-1.8-1.4-1.1-2.5s9.5-5.9 29.3-5.9c19.7 0 27.4 6.3 28.3 7.3.9.9.5 2.6-.7 2.6l-2.8 4.7c.9 1.5 0 3.8-1.2 4.1z"/><path fill="#F0C560" stroke="#000" stroke-width=".72" d="M-348 631.3c1.2 0 1.6-1.6.7-2.6-.9-.9-8.6-7.3-28.3-7.3s-28.6 4.8-29.3 5.9c-.7 1.1 0 2.4 1.1 2.5 4-1.9 15.9-5.2 28.7-5.2 10.1 0 22 2.8 27.1 6.7zm-4 8.7c-10.3-7.5-36.9-5.6-47.7.2-1.8.2-3.2-2.6-1.6-4 3.4-1.9 16.8-4.9 25.7-4.9s20.9 2.6 24.8 4.7c.9 1.4 0 3.7-1.2 4z"/><circle fill="#CC1E4C" stroke="#000" stroke-width=".72" cx="-375.6" cy="628" r="2.7"/><circle fill="#CC1E4C" stroke="#000" stroke-width=".72" cx="-390.9" cy="629.4" r="2.7"/><circle fill="#CC1E4C" stroke="#000" stroke-width=".72" cx="-400.2" cy="632" r="2.7"/><circle fill="#CC1E4C" stroke="#000" stroke-width=".72" cx="-361.3" cy="629.4" r="2.7"/><circle fill="#CC1E4C" stroke="#000" stroke-width=".72" cx="-352" cy="632" r="2.7"/><circle fill="#CC1E4C" stroke="#000" stroke-width=".72" cx="-395.6" cy="630.5" r="1.2"/><circle fill="#CC1E4C" stroke="#000" stroke-width=".72" cx="-384.7" cy="628.1" r="1.2"/><circle fill="#CC1E4C" stroke="#000" stroke-width=".72" cx="-356.6" cy="630.5" r="1.2"/><path fill="#CC1E4C" stroke="#000" stroke-width=".72" d="M-367.5 629.3c-.7 0-1.2-.5-1.2-1.2s.5-1.2 1.2-1.2 1.2.5 1.2 1.2-.6 1.2-1.2 1.2z"/><path fill="#FFF" stroke="#000" stroke-width=".72" d="M-375.6 720.1c.8-2.1 4-2.9 6.7-2.9h20.6c2 0 3.4-2.2 3.4-3.9v-73.1h-61.3v73.1c0 1.6 1.4 3.9 3.4 3.9h20.6c2.6 0 5.8.8 6.6 2.9z"/><path fill="#CC1E4C" stroke="#000" stroke-width=".72" d="M-405.1 641.4h28.6v36.4h-28.6z"/><path fill="#FFF" stroke="#000" stroke-width=".72" d="M-374.7 641.4h28.6v36.4h-28.6zm-1.8 74.5v-36.4h-28.6v33.7c0 1.2 1.1 2.7 2.5 2.7h26.1z"/><path fill="#CC1E4C" stroke="#000" stroke-width=".72" d="M-346.1 712.8v-33.4h-28.6v36.4h26c1.2.1 2.6-1.6 2.6-3z"/><path d="M-375.6 752.6c-6.1 0-11-4.9-11-11s4.9-11 11-11 11 4.9 11 11-4.9 11-11 11v1c6.6 0 12-5.4 12-12s-5.4-12-12-12-12 5.4-12 12 5.4 12 12 12"/><path fill="#FFF" stroke="#000" stroke-width=".72" d="M-376.9 746.8l.8 5.3h1.1l.7-5.3m-6.4-3.7l-4.2 3.4.5.9 5-2.1m0-7.4l-5-1.9-.5.9 4.2 3.3m6.4-3.7l-.8-5.3h-1.1l-.7 5.3m6.4 3.7l4.2-3.4-.5-.9-5 2m0 7.4l5 2 .6-.9-4.3-3.3"/><circle fill="#FFF" stroke="#000" stroke-width=".72" cx="-375.6" cy="741.6" r="5.7"/><circle fill="#FFF" stroke="#000" stroke-width=".72" cx="-375.6" cy="741.6" r="3"/><path fill="#259271" d="M-337.5 707.5c-1.1.9-1.4 2.4-1.6 3.2-.4-.7-1.5.2-1.5 1.9-.4-.4-1.3 1.9-1.1 3.3-.7 0-.7 2.8-.6 4-.6.2-.6 1.3-.5 2.6l1.1 1.4c1.9-.9 4.2-3.3 3.2-3.2.6-1.9 1.2-3.6.6-3.2.9-2.4 1.3-4.1.7-3.8.9-1.3 2-2.7 1.3-2.5 1.2-1.2 2.5-2.6 1.6-2.5.9-.7 1.3-1.3 1.3-1.6"/><path fill="#259271" d="M-332.5 707.2c-.2 1.3.1 2.4.5 3.4-.7-.2-.8.1-.5 1.4-.7.2-.4 2.2.4 3.5-.5.4-.6 1.5-.1 2.6-.7 0-1.2 2.8-1.1 3.6-.7-.2-1.4.9-2.1 2-.4-.6-1.4-.4-2.1.6-.5-.2-3.9.9-4.8 1.8l.4 3.3c1.4.5 4.8.2 4-.7 1.6.1 3.6-.9 2.9-1.2 2.1-.4 3.8-1.8 2.9-1.9 1.6-.9 2.7-2.8 1.9-2.8 1.1-.5 3.1-3.8 1.9-3.6 1.1-1.4 1.2-4.6.2-3.6.4-1.6.4-4.2-.5-3.5.2-1.9.6-3.2-.2-2.7.1-.8.2-1.8 0-2.2m-46.8 16.6c2.1-1.1 2.8-.7 2.7.1 1.8-.2 4.2.2 3.4 1.1 1.5-.6 3.9-.2 3.2.8 1.5-.5 3.3-1.5 3.3-.7 1.8-.9 4.2-1.1 3.5 0 1.3-.4 2.7-.9 3.9-.6l.1 2.2c-.8.9-2.7 1.4-3.5 1.8.7.5-.1.9-1.4.6 0 .5-1.6 1.1-3.1.2.1.6-.8.8-1.9-.1-.2.5-.7.9-2.2-.4-.5.2-1.4 0-2.1-.9-.5.5-1.8 0-2.6-.9-.7.4-.8.2-1.5-.6s-1.1-1.4-1.8-1.5"/><path fill="#259271" d="M-375.6 728.5c1.2.8 3.9.1 4.6 1.5.5-.2 1.3 0 1.6.8.8-.4 2 0 2.5.9 1.2-.2 2.2 0 3.1.7.9-.7 1.9-.9 2.2-.1 1.6-1.3 3.3-2.1 3.3-.8.5-.7 2.4-1.8 3.2-1.8l.5 1.2c-.6 1.2-1.9 2.4-2.5 2.7.5.4-.8 1.2-1.4 1.4.2.7-.8 1.3-1.9.8-.2.8-1.3.6-2.8-.6.1.8-2.1 1.3-3.2.6-.6.5-2.6-.2-3.2-1.4-.7.4-1.8 0-2.2-1.1-.7.6-1.4.2-1.8-.9-.8.2-2.1-1.4-2-3.1m38.4-54.8c-1.2.9-1.9 2-.9 2.9-.8.9-1.9 1.6-.9 3.1-.2 1.3.1 2.4.9 2.9-.7.7-1.1 2.9 0 3.4-.2 1.2-.5 1.6.8 2.4-.6.9-.4 3.5.7 4.8h2.9c.1-1.9.4-4-.2-4.8.2-.9.5-2.5-.2-3.2.5-1.4.4-3.8-.2-3.2.7-2.2.1-4.1-.5-3.4.7-1.9 1.1-3.4.5-3.2.4-.9 2-3.2.7-2.8m1.6.3c-.4 1.4.8 2.5 1.3 3.3-1.1-.1-.5.9.4 2.6-.9 0-.8.7-.4 2.7-.7.1-.7 1.6-.4 2.9-.7.2-.3 1.8-.1 2.9-.6.2-.6 1.6-.4 2.7-.5.1-1.5 2.6-1.1 3.5l2.2.4c1.5-1.5 2.9-4 2.1-3.8 1.3-1.8 2.8-5.4 1.5-4.9.8-1.5 1.4-4.5.5-3.9.2-2 0-4.2-.5-3.4.2-1.4-.6-3.6-.9-2.9-.1-.8-.1-2.1-1.1-2.7m-8.3-29.3c-.9.9-1.1 2.2-.5 2.8-.6 1.2.4 2.5 1.1 3.1-.8 1.4-.7 3.4 0 3.8-.6.8-.8 2.2-.1 2.8-.7 1.1-.4 2.8.8 3.8l2.6.1c0-1.5.4-2.6-.4-3.6-.7-1.1 0-1.5 0-2.7s0-1.2-.6-2.4 1.2-3.4.2-4.5c-.9-1.1-.4-2.9-.8-3.9s-.6-.9-1.2-1.3"/><path fill="#259271" d="M-334.2 640.6c.2 1.1.5 2.2 1.2 3.2.7.9.4 1.4.9 2.8.6 1.4.2 2.1-.1 3.3-.4 1.2.1 1.9.6 3.1s-.2 1.9-.4 2.8c-.2.9-1.5 3.8-.5 4.8h2.1c.7-1.3.8-2.1.7-3.1-.1-.9.2-1.5.8-2.1.6-.6 1.1-2.6.5-3.1s-.7-1.5-.2-2 .5-1.5.1-1.8c.5-.7.8-2.1.2-2.6.2-1.2 0-2.4-1.2-2.7.1-.9-2.4-4-3.4-4m-80.8 68.3c1.1.9 1.4 2.4 1.6 3.2.4-.7 1.5.2 1.5 1.9.4-.4 1.3 1.9 1.1 3.3.7 0 .7 2.8.6 4 .6.2.6 1.3.5 2.6l-1.1 1.4c-1.9-.9-4.2-3.3-3.2-3.2-.6-1.9-1.2-3.6-.6-3.2-.9-2.4-1.3-4.1-.7-3.8-.9-1.3-2-2.7-1.3-2.5-1.2-1.2-2.5-2.6-1.6-2.5-.9-.7-1.3-1.3-1.3-1.6"/><path fill="#259271" d="M-418.7 707.2c.2 1.3-.1 2.4-.5 3.4.7-.2.8.1.5 1.4.7.2.4 2.2-.4 3.5.5.4.6 1.5.1 2.6.7 0 1.2 2.8 1.1 3.6.7-.2 1.4.9 2.1 2 .4-.6 1.4-.4 2.1.6.5-.2 3.9.9 4.8 1.8l-.4 3.3c-1.4.5-4.8.2-4-.7-1.6.1-3.6-.9-2.9-1.2-2.1-.4-3.8-1.8-2.9-1.9-1.6-.9-2.7-2.8-1.9-2.8-1.1-.5-3.1-3.8-1.9-3.6-1.1-1.4-1.2-4.6-.2-3.6-.4-1.6-.4-4.2.5-3.5-.2-1.9-.6-3.2.2-2.7-.1-.8-.2-1.8 0-2.2m46.8 16.6c-2.1-1.1-2.8-.7-2.7.1-1.8-.2-4.2.2-3.4 1.1-1.5-.6-3.9-.2-3.2.8-1.5-.5-3.3-1.5-3.3-.7-1.8-.9-4.2-1.1-3.5 0-1.3-.4-2.7-.9-3.9-.6l-.1 2.2c.8.9 2.7 1.4 3.5 1.8-.7.5.1.9 1.4.6 0 .5 1.6 1.1 3.1.2-.1.6.8.8 1.9-.1.2.5.7.9 2.2-.4.5.2 1.4 0 2.1-.9.5.5 1.8 0 2.6-.9.7.4.8.2 1.5-.6s1.1-1.4 1.8-1.5"/><path fill="#259271" d="M-375.6 728.5c-1.2.8-3.9.1-4.6 1.5-.5-.2-1.3 0-1.6.8-.8-.4-2 0-2.5.9-1.2-.2-2.2 0-3.1.7-.9-.7-1.9-.9-2.2-.1-1.6-1.3-3.3-2.1-3.3-.8-.5-.7-2.4-1.8-3.2-1.8l-.5 1.2c.6 1.2 1.9 2.4 2.5 2.7-.5.4.8 1.2 1.4 1.4-.2.7.8 1.3 1.9.8.2.8 1.3.6 2.8-.6-.1.8 2.1 1.3 3.2.6.6.5 2.6-.2 3.2-1.4.7.4 1.8 0 2.2-1.1.7.6 1.4.2 1.8-.9.8.2 2.1-1.4 2-3.1m-38.4-54.8c1.2.9 1.9 2 .9 2.9.8.9 1.9 1.6.9 3.1.2 1.3-.1 2.4-.9 2.9.7.7 1.1 2.9 0 3.4.2 1.2.5 1.6-.8 2.4.6.9.4 3.5-.7 4.8h-2.9c-.1-1.9-.4-4 .2-4.8-.2-.9-.5-2.5.2-3.2-.5-1.4-.4-3.8.2-3.2-.7-2.2-.1-4.1.5-3.4-.7-1.9-1.1-3.4-.5-3.2-.4-.9-2-3.2-.7-2.8m-1.6.3c.4 1.4-.8 2.5-1.3 3.3 1.1-.1.5.9-.4 2.6.9 0 .8.7.4 2.7.7.1.7 1.6.4 2.9.7.2.4 1.8.1 2.9.6.2.6 1.6.4 2.7.5.1 1.5 2.6 1.1 3.5l-2.2.4c-1.5-1.5-2.9-4-2.1-3.8-1.3-1.8-2.8-5.4-1.5-4.9-.8-1.5-1.4-4.5-.5-3.9-.2-2 0-4.2.5-3.4-.2-1.4.6-3.6.9-2.9.1-.8.1-2.1 1.1-2.7m8.3-29.3c.9.9 1.1 2.2.5 2.8.6 1.2-.4 2.5-1.1 3.1.8 1.4.7 3.4 0 3.8.6.8.8 2.2.1 2.8.7 1.1.4 2.8-.8 3.8l-2.6.1c0-1.5-.4-2.6.4-3.6.7-1.1 0-1.5 0-2.7s0-1.2.6-2.4-1.2-3.4-.2-4.5c.9-1.1.4-2.9.8-3.9.5-.9.6-.9 1.2-1.3"/><path fill="#259271" d="M-417 640.6c-.2 1.1-.5 2.2-1.2 3.2-.7.9-.4 1.4-.9 2.8-.6 1.4-.2 2.1.1 3.3.4 1.2-.1 1.9-.6 3.1s.2 1.9.4 2.8c.1.9 1.5 3.8.5 4.8h-2.1c-.7-1.3-.8-2.1-.7-3.1.1-.9-.2-1.5-.8-2.1-.6-.6-1.1-2.6-.5-3.1.6-.5.7-1.5.2-2s-.5-1.5-.1-1.8c-.5-.7-.8-2.1-.2-2.6-.2-1.2 0-2.4 1.2-2.7-.1-.9 2.4-4 3.4-4"/><path fill="#F0C560" stroke="#000" stroke-width=".72" d="M-327.5 707.9l-2.6-8.3h-6.5l-2.6 8.3zm-9.1-12.2h6.5v3.9h-6.5zm6.5 0h-6.5l-2.4-2.5c.7-.8 1.2-.8 1.9-1.1l1.1 1.3h1.3v-1.8h2.3v1.9h1.5l.7-1.3c.8.5 1.6 1.1 2 1.5l-1.9 2z"/><path fill="#F0C560" stroke="#000" stroke-width=".72" d="M-334.5 695.7h2v3.9h-2zm-1.5 12.2l.8-3.8c.4-1.9 2.5-1.9 3.1 0l.9 3.8h-4.8zm8.5-33.5l-2.6-8.3h-6.5l-2.6 8.3zm-9.1-12.2h6.5v3.9h-6.5zm6.5 0h-6.5l-2.4-2.5c.7-.8 1.2-.8 1.9-1.1l1.1 1.3h1.3v-1.8h2.3v1.9h1.5l.7-1.3c.8.5 1.6 1.1 2 1.5l-1.9 2z"/><path fill="#F0C560" stroke="#000" stroke-width=".72" d="M-334.5 662.2h2v3.9h-2zm-1.5 12.2l.8-3.9c.4-1.9 2.5-1.9 3.1 0l.9 3.9h-4.8zm5.3-36.1l-7.4-4.7-4.9 4.2 3.4 8z"/><path fill="#F0C560" stroke="#000" stroke-width=".72" d="M-345.57 634.86l4.97-4.2 2.5 3-4.96 4.18z"/><path fill="#F0C560" stroke="#000" stroke-width=".72" d="M-340.6 630.7l-4.9 4.2-3.4-.4c0-1.1.4-1.4.8-2l1.6.3 1-.8-1.1-1.3 1.8-1.5 1.2 1.4 1.2-1-.3-1.4c.9-.2 1.9-.3 2.5-.1l-.4 2.6z"/><path fill="#F0C560" stroke="#000" stroke-width=".72" d="M-343.9 633.45l1.53-1.3 2.5 3-1.52 1.28zm6.7 10.35l-1.9-3.5c-.9-1.7.7-3 2.3-2l3.2 2.3-3.6 3.2zm-18.1 90.4l7.9-3.6-.8-6.4-8.6-1.5z"/><path fill="#F0C560" stroke="#000" stroke-width=".72" d="M-344.4 723.64l.8 6.45-3.86.45-.82-6.45z"/><path fill="#F0C560" stroke="#000" stroke-width=".72" d="M-343.6 730.1l-.8-6.4 2.2-2.6c.9.6 1 1.1 1.3 1.7l-1.1 1.2.2 1.3 1.8-.2.3 2.3-1.9.2.2 1.5 1.4.5c-.4.9-.8 1.8-1.3 2.2l-2.3-1.7z"/><path fill="#F0C560" stroke="#000" stroke-width=".72" d="M-344.13 725.8l.24 1.98-3.83.48-.24-1.98zm-12.27 0l3.9.3c1.9.1 2.2 2.2.4 3l-3.7 1.4-.6-4.7zm-67.3-17.9l2.6-8.3h6.5l2.6 8.3zm2.6-12.2h6.5v3.9h-6.5zm0 0h6.5l2.4-2.5c-.7-.8-1.2-.8-1.9-1.1l-1.1 1.3h-1.3v-1.8h-2.4v1.9h-1.5l-.7-1.3c-.8.5-1.6 1.1-2 1.5l2 2z"/><path fill="#F0C560" stroke="#000" stroke-width=".72" d="M-418.7 695.7h2v3.9h-2zm3.5 12.2l-.8-3.8c-.4-1.9-2.5-1.9-3.1 0l-.9 3.8h4.8zm-8.5-33.5l2.6-8.3h6.5l2.6 8.3zm2.6-12.2h6.5v3.9h-6.5zm0 0h6.5l2.4-2.5c-.7-.8-1.2-.8-1.9-1.1l-1.1 1.3h-1.3v-1.8h-2.4v1.9h-1.5l-.7-1.3c-.8.5-1.6 1.1-2 1.5l2 2z"/><path fill="#F0C560" stroke="#000" stroke-width=".72" d="M-418.7 662.2h2v3.9h-2zm3.5 12.2l-.8-3.9c-.4-1.9-2.5-1.9-3.1 0l-.9 3.9h4.8zm-5.3-36.1l7.4-4.7 4.9 4.2-3.4 8z"/><path fill="#F0C560" stroke="#000" stroke-width=".72" d="M-408.18 637.86l-4.97-4.2 2.5-2.97 4.98 4.15z"/><path fill="#F0C560" stroke="#000" stroke-width=".72" d="M-410.6 630.7l4.9 4.2 3.4-.4c0-1.1-.4-1.4-.8-2l-1.6.3-1-.8 1.1-1.3-1.8-1.5-1.2 1.4-1.2-1 .3-1.4c-.9-.2-1.9-.3-2.5-.1l.4 2.6z"/><path fill="#F0C560" stroke="#000" stroke-width=".72" d="M-409.77 636.5l-1.53-1.3 2.52-2.97 1.53 1.3zm-4.23 7.3l1.9-3.5c.9-1.7-.7-3-2.3-2l-3.2 2.3 3.6 3.2zm18.2 90.4l-8-3.6.8-6.4 8.6-1.5zm-7.2-10.1l-.8 6.45-3.88-.5.8-6.44z"/><path fill="#F0C560" stroke="#000" stroke-width=".72" d="M-407.6 730.1l.8-6.4-2.2-2.6c-.9.6-1 1.1-1.3 1.7l1.2 1.2-.2 1.3-1.8-.2-.3 2.3 1.9.2-.2 1.5-1.4.5c.4.9.8 1.8 1.3 2.2l2.2-1.7z"/><path fill="#F0C560" stroke="#000" stroke-width=".72" d="M-403.2 726.34l-.25 1.98-3.87-.5.25-1.97zm8.4-.54l-3.9.3c-1.9.1-2.2 2.2-.4 3l3.7 1.4.6-4.7z"/><path d="M-343.7 656.4c-.8.7 0 2.4 1.1 1.3l1.9-2c1.1.7 2.1.8 3.4.9-2.1-1.3-4.5-3.9-5.1-5.8-.2 1.2.1 2.8.5 3.8l-1.8 1.8z"/><path d="M-340.9 653.6l14.5-14.2c1.1-.9 1.6-.8 2.3-.9-.2.6-.8 1.3-1.3 2l-14.6 14.2m-3.6 34.6c-.9.6-.2 2.3.9 1.4l2.1-1.8c1 .8 2 1 3.3 1.3-2-1.5-4-4.3-4.4-6.3-.4 1.1-.2 2.8.1 3.8l-2 1.6z"/><path d="M-340.5 686.8l15.9-12.6c1.2-.8 1.7-.6 2.4-.7-.3.6-1 1.2-1.5 1.8l-16 12.6m-6.2 29.3c-1 .3-1 2.1.4 1.6l2.5-1c.7 1.1 1.6 1.6 2.7 2.3-1.4-2.1-2.4-5.4-2.2-7.4-.7 1-1.1 2.6-1.2 3.6l-2.2.9z"/><path d="M-342.2 715.8l19.1-6.8c1.4-.4 1.8-.1 2.5.1-.5.4-1.3.8-2 1.3l-19.2 6.8m-26.2 2.3c-.5-.9-2.3-.5-1.5.8l1.6 2.2c-.9.9-1.2 1.9-1.6 3.2 1.7-1.8 4.7-3.6 6.6-3.8-1.1-.5-2.8-.4-3.8-.3l-1.3-2.1z"/><path d="M-365.8 722.8l11.1 16.9c.7 1.2.5 1.8.5 2.5-.5-.3-1.1-1.1-1.7-1.7l-11.1-17.1m-40.4-67c.8.7 0 2.4-1.1 1.3l-1.9-2c-1.1.7-2.1.8-3.4.9 2.1-1.3 4.5-3.9 5.1-5.8.2 1.2-.1 2.8-.5 3.8l1.8 1.8z"/><path d="M-410.3 653.6l-14.5-14.2c-1.1-.9-1.6-.8-2.4-.9.2.6.8 1.3 1.3 2l14.6 14.2m3.7 34.6c.9.6.3 2.3-.9 1.4l-2.1-1.8c-1 .8-2 1-3.3 1.3 2-1.5 4-4.3 4.4-6.3.4 1.1.2 2.8-.1 3.8l2 1.6z"/><path d="M-410.7 686.8l-15.9-12.6c-1.2-.8-1.7-.6-2.4-.7.3.6 1 1.2 1.5 1.9l16 12.6m6.2 29.2c1 .3 1 2.1-.4 1.6l-2.5-1c-.7 1.1-1.6 1.6-2.7 2.3 1.4-2.1 2.4-5.4 2.2-7.4.7 1 1.1 2.6 1.2 3.6l2.2.9z"/><path d="M-409 715.8l-19.1-6.8c-1.4-.4-1.8-.1-2.5.1.5.4 1.3.8 2 1.3l19.2 6.8m26.2 2.3c.5-.9 2.3-.5 1.5.8l-1.6 2.2c.9.9 1.2 1.9 1.6 3.2-1.7-1.8-4.7-3.6-6.6-3.8 1.1-.5 2.8-.4 3.8-.3l1.3-2.1z"/><path d="M-385.4 722.8l-11.1 16.9c-.7 1.2-.5 1.8-.5 2.5.5-.3 1.1-1.1 1.7-1.7l11.1-17.1"/><circle fill="#CC1E4C" stroke="#000" stroke-width=".72" cx="-375.6" cy="727.4" r="3.7"/><path fill="#F0C560" stroke="#000" stroke-width=".72" d="M-399.5 684.7c4-3.3 12.2-3.6 17.2-.4l2-1.6c-5.8-4-15.9-3.9-21 .2"/><path fill="#65493C" stroke="#000" stroke-width=".72" d="M-387.3 684.4c.7-.4 2 .1 2.1.9.1.8 1.3 2.9 3.6 2.2 2.3-.7.5-4.2 1.6-5.4-1.1.5-2.5 1.4-3.1 2.2-.6.8-1.2.5-1.4-.6-.2-1.1-1.3-1.5-1.9-.8-.5.8-.9 1.5-.9 1.5z"/><path fill="#F0C560" stroke="#000" stroke-width=".72" d="M-386.1 711.3l1.6-22.6h3.8l1.6 22.6z"/><path fill="#F0C560" stroke="#000" stroke-width=".72" d="M-385.2 699.1h5.2l1.9-2.5c-.6-.8-.9-.8-1.5-1.1l-.8 1.3h-1V695h-1.9v1.9h-1.2l-.6-1.3c-.7.5-1.3 1.1-1.6 1.5l1.5 2zm4.2 12.2l-.5-3.8c-.2-1.9-1.5-1.9-1.8 0l-.6 3.8h2.9zm-3.5-22.6h3.8l1.4-1.8c-.4-.6-.7-.6-1.1-.8l-.6 1h-.8v-1.3h-1.4v1.4h-.9l-.4-1c-.5.3-1 .8-1.2 1.1l1.2 1.4z"/><path fill="#65493C" stroke="#000" stroke-width=".72" d="M-395.1 684.4c-.7-.4-2 .1-2.1.9s-1.3 2.9-3.6 2.2-.5-4.2-1.6-5.4c1.1.5 2.5 1.4 3.1 2.2.6.8 1.2.5 1.4-.6.2-1.1 1.3-1.5 1.9-.8.4.8.9 1.5.9 1.5z"/><path fill="#F0C560" stroke="#000" stroke-width=".72" d="M-396.4 711.3l-1.5-22.6h-3.9l-1.5 22.6z"/><path fill="#F0C560" stroke="#000" stroke-width=".72" d="M-397.2 699.1h-5.2l-1.9-2.5c.6-.8.9-.8 1.5-1.1l.8 1.3h1V695h1.9v1.9h1.2l.6-1.3c.7.5 1.3 1.1 1.6 1.5l-1.5 2zm-4.2 12.2l.5-3.8c.2-1.9 1.5-1.9 1.8 0l.6 3.8h-2.9zm3.5-22.6h-3.8l-1.4-1.8c.4-.6.7-.6 1.1-.8l.6 1h.8v-1.3h1.4v1.4h.9l.4-1c.5.3 1 .8 1.2 1.1l-1.2 1.4z"/><path fill="#1879BF" stroke="#000" stroke-width=".72" d="M-394.2 698.4l-.8 13.2h6.9l-1.1-13.4c-.1-.8 0-2 .5-2.8s.4-3.4.4-5.2c0-1.8-.9-2.6-1.5-2.7l-1.3-.2h-1.2c-2 .7-2.2 1.5-2.5 3.1-.2 1.5-.2 3.5-.6 4.3-.3.7-.2 3 1.2 3.7z"/><path fill="#F0C560" stroke="#000" stroke-width=".72" d="M-393 684.3l-.6-1.9 1 .6.7-.8.3 1 1.1-.8.5 1.2.7-.6-.9 2.1"/><path fill="#E6AC86" stroke="#000" stroke-width=".72" d="M-393 687c-.1-.8-.4-3.1.5-3.1s2.4 0 2.4 1.6c-.1 2.7-2.5 3.6-2.9 1.5zm-.7 8.6c-.8.9-.9 2.4-.1 2.6s1.4-.8 1.4-1.6c0-.9-1.1-1.5-1.3-1z"/><path fill="#F0C560" stroke="#000" stroke-width=".72" d="M-368.5 647.8c4-3.3 12.2-3.6 17.2-.4l2-1.6c-5.8-4-15.9-3.9-21 .2"/><path fill="#65493C" stroke="#000" stroke-width=".72" d="M-356.4 647.5c.7-.4 2 .1 2.1.9.1.8 1.3 2.9 3.6 2.2 2.3-.7.5-4.2 1.6-5.4-1.1.5-2.5 1.4-3.1 2.2-.6.8-1.2.5-1.4-.6-.2-1.1-1.3-1.5-1.9-.8-.5.8-.9 1.5-.9 1.5z"/><path fill="#F0C560" stroke="#000" stroke-width=".72" d="M-355.1 674.4l1.5-22.6h3.8l1.6 22.6z"/><path fill="#F0C560" stroke="#000" stroke-width=".72" d="M-354.3 662.2h5.2l1.9-2.5c-.6-.8-.9-.8-1.5-1.1l-.8 1.3h-1v-1.8h-1.9v1.9h-1.2l-.6-1.3c-.7.5-1.3 1.1-1.6 1.5l1.5 2zm4.2 12.2l-.5-3.9c-.2-1.9-1.5-1.9-1.8 0l-.6 3.9h2.9zm-3.5-22.6h3.8l1.4-1.8c-.4-.6-.7-.6-1.1-.8l-.6 1h-.8v-1.3h-1.4v1.4h-.9l-.4-1c-.5.3-1 .8-1.2 1.1l1.2 1.4z"/><path fill="#65493C" stroke="#000" stroke-width=".72" d="M-364.2 647.5c-.7-.4-2 .1-2.1.9-.1.8-1.3 2.9-3.6 2.2-2.3-.7-.5-4.2-1.6-5.4 1.1.5 2.5 1.4 3.1 2.2.6.8 1.2.5 1.4-.6.2-1.1 1.3-1.5 1.9-.8.4.8.9 1.5.9 1.5z"/><path fill="#F0C560" stroke="#000" stroke-width=".72" d="M-365.5 674.4l-1.5-22.6h-3.9l-1.5 22.6z"/><path fill="#F0C560" stroke="#000" stroke-width=".72" d="M-366.3 662.2h-5.2l-1.9-2.5c.6-.8.9-.8 1.5-1.1l.8 1.3h1v-1.8h1.9v1.9h1.2l.6-1.3c.7.5 1.3 1.1 1.6 1.5l-1.5 2zm-4.2 12.2l.5-3.9c.2-1.9 1.5-1.9 1.8 0l.6 3.9h-2.9zm3.5-22.6h-3.8l-1.4-1.8c.4-.6.7-.6 1.1-.8l.6 1h.8v-1.3h1.4v1.4h.9l.4-1c.5.3 1 .8 1.2 1.1l-1.2 1.4z"/><path fill="#1879BF" stroke="#000" stroke-width=".72" d="M-363.3 661.5l-.8 13.2h6.9l-1.1-13.4c-.1-.8 0-2 .5-2.8s.4-3.4.4-5.2-.9-2.6-1.5-2.7l-1.3-.2h-1.2c-2 .7-2.2 1.5-2.5 3.1-.2 1.5-.2 3.5-.6 4.3-.3.7-.2 3 1.2 3.7z"/><path fill="#F0C560" stroke="#000" stroke-width=".72" d="M-362.1 647.4l-.6-1.9 1 .6.7-.8.3 1 1.1-.8.5 1.2.7-.6-.9 2.1"/><path fill="#E6AC86" stroke="#000" stroke-width=".72" d="M-362.1 650.1c-.1-.8-.4-3.1.5-3.1s2.4 0 2.4 1.6c-.1 2.7-2.5 3.6-2.9 1.5zm-.7 8.6c-.8.9-.9 2.4-.1 2.6.8.2 1.4-.8 1.4-1.6s-1-1.5-1.3-1z"/><path fill="#F0C560" stroke="#000" stroke-width=".72" d="M-347.5 713.2l-1.4-4.6h-3.6l-1.4 4.6zm-1.4-4.6h-3.5l-.9-1.4c.4-.5.6-.5 1-.6l.2.7h.7v-1h1.3v1h.5l.4-.7c.5.3.8.6 1 .8l-.7 1.2z"/><path fill="#F0C560" stroke="#000" stroke-width=".72" d="M-352.1 713.2l.5-2.1c.2-1 1.4-1 1.7 0l.5 2.1h-2.7zm4.3-13.6l-1.4-4.5h-3.6l-1.4 4.5zm-1.4-4.5h-3.5l-.9-1.4c.4-.5.6-.5 1-.6l.2.7h.7v-1h1.3v1h.5l.4-.7c.4.3.8.6 1 .8l-.7 1.2z"/><path fill="#F0C560" stroke="#000" stroke-width=".72" d="M-352.5 699.6l.5-2.1c.2-1 1.4-1 1.7 0l.5 2.1h-2.7zm5-11.7l-1.4-4.6h-3.6l-1.4 4.6zm-1.4-4.6h-3.5l-.9-1.4c.4-.5.6-.5 1-.6l.2.7h.7v-1h1.3v1h.5l.4-.7c.5.3.8.6 1 .8l-.7 1.2z"/><path fill="#F0C560" stroke="#000" stroke-width=".72" d="M-352.1 687.9l.5-2.1c.2-1 1.4-1 1.7 0l.5 2.1h-2.7zm-15.6 25.3l-1.4-4.6h-3.6l-1.4 4.6zm-1.4-4.6h-3.5l-.9-1.4c.4-.5.6-.5 1-.6l.2.7h.7v-1h1.3v1h.5l.4-.7c.5.3.8.6 1 .8l-.7 1.2z"/><path fill="#F0C560" stroke="#000" stroke-width=".72" d="M-372.4 713.2l.5-2.1c.2-1 1.4-1 1.7 0l.5 2.1h-2.7zm4.7-13.6l-1.4-4.5h-3.6l-1.4 4.5zm-1.4-4.5h-3.5l-.9-1.4c.4-.5.6-.5 1-.6l.2.7h.7v-1h1.3v1h.5l.4-.7c.5.3.8.6 1 .8l-.7 1.2z"/><path fill="#F0C560" stroke="#000" stroke-width=".72" d="M-372.4 699.6l.5-2.1c.2-1 1.4-1 1.7 0l.5 2.1h-2.7zm4.7-11.7l-1.4-4.6h-3.6l-1.4 4.6zm-1.4-4.6h-3.5l-.9-1.4c.4-.5.6-.5 1-.6l.2.7h.7v-1h1.3v1h.5l.4-.7c.5.3.8.6 1 .8l-.7 1.2z"/><path fill="#F0C560" stroke="#000" stroke-width=".72" d="M-372.4 687.9l.5-2.1c.2-1 1.4-1 1.7 0l.5 2.1h-2.7zm15.1 0l-1.4-4.6h-3.5l-1.5 4.6zm-1.4-4.6h-3.5l-.9-1.4c.4-.5.6-.5 1-.6l.2.7h.7v-1h1.3v1h.5l.4-.7c.5.3.8.6 1 .8l-.7 1.2z"/><path fill="#F0C560" stroke="#000" stroke-width=".72" d="M-361.9 687.9l.4-2.1c.2-1 1.4-1 1.7 0l.5 2.1h-2.6z"/><path fill="#FFF" stroke="#000" stroke-width=".72" d="M-354.4 689v14.5c0 2.1-1 3.4-2.8 3.4h-2.3c-.6 0-1.3.2-1.4.7-.2-.5-.9-.7-1.4-.7h-2.3c-1.9 0-2.8-1.3-2.8-3.4V689h13z"/><path fill="#1879BF" d="M-362.7 690.4l.7 3.4h1.7l.6-3.4m-3 12.6l.7-3.3h1.7l.6 3.3m-7-5l3.3-.7v-1.6l-3.3-.6m10.8 2.9l-3.4-.7v-1.6l3.4-.6m-6.3.3h2v2.5h-2z"/><path fill="#F0C560" stroke="#000" stroke-width=".72" d="M-377.6 676.3l-1.4-4.6h-3.6l-1.4 4.6z"/><path fill="#F0C560" stroke="#000" stroke-width=".72" d="M-379 671.7h-3.5l-.9-1.4c.4-.5.6-.5 1-.6l.2.7h.7v-1h1.3v1h.5l.4-.7c.5.3.8.6 1 .8l-.7 1.2zm-3.2 4.6l.5-2.1c.2-1 1.4-1 1.7 0l.5 2.1h-2.7zm4.3-13.6l-1.4-4.5h-3.6l-1.4 4.5zm-1.4-4.5h-3.5l-.9-1.4c.4-.4.6-.4 1-.6l.2.7h.7v-1h1.3v1h.5l.4-.7c.5.3.8.6 1 .8l-.7 1.2z"/><path fill="#F0C560" stroke="#000" stroke-width=".72" d="M-382.5 662.7l.5-2.1c.2-1 1.4-1 1.7 0l.5 2.1h-2.7zm4.9-11.7l-1.4-4.6h-3.6l-1.4 4.6zm-1.4-4.6h-3.5l-.9-1.4c.4-.5.6-.5 1-.6l.2.7h.7v-1h1.3v1h.5l.4-.7c.5.3.8.6 1 .8l-.7 1.2z"/><path fill="#F0C560" stroke="#000" stroke-width=".72" d="M-382.2 651l.5-2.1c.2-1 1.4-1 1.7 0l.5 2.1h-2.7zm-15.6 25.3l-1.4-4.6h-3.6l-1.4 4.6z"/><path fill="#F0C560" stroke="#000" stroke-width=".72" d="M-399.2 671.7h-3.5l-.9-1.4c.4-.5.6-.5 1-.6l.2.7h.7v-1h1.3v1h.5l.4-.7c.5.3.8.6 1 .8l-.7 1.2zm-3.3 4.6l.5-2.1c.2-1 1.4-1 1.7 0l.5 2.1h-2.7zm4.7-13.6l-1.4-4.5h-3.6l-1.4 4.5zm-1.4-4.5h-3.5l-.9-1.4c.4-.4.6-.4 1-.6l.2.7h.7v-1h1.3v1h.5l.4-.7c.5.3.8.6 1 .8l-.7 1.2z"/><path fill="#F0C560" stroke="#000" stroke-width=".72" d="M-402.5 662.7l.5-2.1c.2-1 1.4-1 1.7 0l.5 2.1h-2.7zm4.7-11.7l-1.4-4.6h-3.6l-1.4 4.6zm-1.4-4.6h-3.5l-.9-1.4c.4-.5.6-.5 1-.6l.2.7h.7v-1h1.3v1h.5l.4-.7c.5.3.8.6 1 .8l-.7 1.2z"/><path fill="#F0C560" stroke="#000" stroke-width=".72" d="M-402.5 651l.5-2.1c.2-1 1.4-1 1.7 0l.5 2.1h-2.7zm15.1 0l-1.4-4.6h-3.5l-1.4 4.6zm-1.4-4.6h-3.5l-.9-1.4c.4-.5.6-.5 1-.6l.2.7h.7v-1h1.3v1h.5l.4-.7c.5.3.8.6 1 .8l-.7 1.2z"/><path fill="#F0C560" stroke="#000" stroke-width=".72" d="M-392 651l.5-2.1c.2-1 1.4-1 1.7 0l.5 2.1h-2.7z"/><path fill="#FFF" stroke="#000" stroke-width=".72" d="M-384.5 652.1v14.5c0 2.1-1 3.4-2.8 3.4h-2.3c-.6 0-1.3.2-1.4.7-.2-.5-.9-.7-1.4-.7h-2.3c-1.9 0-2.8-1.3-2.8-3.4v-14.5h13z"/><path fill="#1879BF" d="M-392.8 653.5l.8 3.4h1.6l.6-3.4m-3 12.6l.8-3.3h1.6l.6 3.3m-7-5l3.3-.7v-1.6l-3.3-.6m10.8 2.9l-3.3-.7v-1.6l3.3-.6m-6.3.3h2v2.5h-2z"/><path fill="#CC1E4C" stroke="#000" stroke-width=".72" d="M-386.2 587.2c-1.2-.4-2-.5-2.7 0s.1 1.2.8.9c.8-.2 1.2-.9 1.9-.9z"/></svg>