<svg id="Layer_1" xmlns="http://www.w3.org/2000/svg" viewBox="-227 291.3 156.8 211.7"><style>.st0{fill:#33348E;} .st1{fill:none;stroke:#FFFFFF;stroke-width:0.7239;} .st2{fill:#FFFFFF;} .st3{fill:#65493C;} .st4{fill:#CC1E4C;stroke:#000000;stroke-width:0.7239;} .st5{fill:#CF8C2C;stroke:#000000;stroke-width:0.7239;} .st6{fill:#7B002B;stroke:#000000;stroke-width:0.7239;} .st7{fill:#F0C560;stroke:#000000;stroke-width:0.7239;} .st8{fill:#FFFFFF;stroke:#000000;stroke-width:0.7239;} .st9{fill:#259271;} .st10{fill:#65493C;stroke:#000000;stroke-width:0.7239;} .st11{fill:#1879BF;stroke:#000000;stroke-width:0.7239;} .st12{fill:#E6AC86;stroke:#000000;stroke-width:0.7239;} .st13{fill:#1879BF;}</style><circle class="st0" cx="-148.6" cy="424.6" r="78.4"/><path class="st1" d="M-154.4 497c-46.9-54.2-26.3-141.9 5.8-150.4m5.8 150.4c46.9-54.2 26.3-141.9-5.8-150.4"/><path class="st1" d="M-141.9 498.2c33.3-6 63.1-37 63.1-77.6 0-43.3-26.5-74.4-69.8-74.4-39.8 0-75.3 31.1-75.3 74.4 0 40.8 33.6 71.7 68.8 77.6"/><ellipse class="st1" cx="-148.6" cy="498.4" rx="6.8" ry="3.2"/><path class="st2" d="M-186.1 481.3l-19.2-21.2 14.4-13 4.1 4.5-8.6 7.7 3.2 3.5 5.6-5.1 4.1 4.5-5.6 5.1 7.8 8.7-5.8 5.3zm42.1.3c-.7 1.7-2.4 2.7-4.6 2.7-3.5 0-5.5-2-5.5-5.3s2.3-5.3 5.2-5.3c2.3 0 3.8.8 4.6 2.1l6.8-5.4c-2.1-3.5-6.1-5.5-12-5.5-7.6 0-13.5 5.3-13.5 13.7 0 8.5 5.4 13.8 14.4 13.8 5.7 0 10-2.6 11.9-7l-7.3-3.8zm38.7-24.9l.9.4c1.7.9 4 2.5 2.9 4.6-1 2-2.7 2-4.6 1l-2-.9 2.8-5.1-4.5-9.3-14.1 26.9 7.3 3.9 5.8-10.9 1.5.7c6.9 3.6 11 1.8 13.6-3.1 2.5-4.8 1.3-9.3-5.6-12.9l-8.5-4.4m22.7-54.3c3.6.9 7.5 2.8 10.1 5.2l.5 2.2c-1.6-1.5-6.5-4.1-9.9-4.9l-.7-2.5zm1.5 6.6c3.6.9 7.5 2.8 10.1 5.2l.5 2.2c-1.6-1.5-6.5-4.1-9.9-4.9l-.7-2.5zm.7 6.6c3.6.9 7.5 2.8 10.1 5.2l.1 2.1c-1.6-1.5-6.5-4.1-9.9-4.9l-.3-2.4zm.4 6.6c3.6.9 7.5 2.8 10.1 5.2l-.1 2.1c-1.6-1.5-6.5-4.1-9.9-4.9l-.1-2.4z"/><path class="st3" d="M-125 348.7c-10.3-7.5-36.9-5.6-47.7.2"/><path class="st4" d="M-178.4 326.5c-3.2.2-7.5-.4-9.8-1.5-2.2-1.1-4.5.2-6.7 1.9.5-1.9 2-3.2 4.6-4.1-1.5-.4-4.8-1.6-6.1-3.6 3.5 1.1 7.1 1.1 9.8.5 2.7-.6 7.8-.7 10.1 2.2m53.6-3.3c2.6-.2 4.6-.2 6.6 2.4s7.1 2.5 8.2-.9c.1 1.8-.7 4.1-.7 4.1 1.9-.8 3.2-1.9 3.9-2.7-.4 3.2-4.1 12.3-16.6 6.2m-39-26.2c-1.6-1.1-4.5-2.2-6-.9-1.5 1.3-3.5 2-4.7.6.7 1.2 2.9 2.1 4.6.8 1.6-1.3 3.4-1.1 4.3 0"/><path class="st5" d="M-152.5 308.4c-.1-2-2.4-7.1-3.6-5.2-.6.9-2.1 1.1-2.8.5-.7-.6-2.7-1.1-3.5-.5-.8.6-2.4 0-2.4-.9s.8-1.3 2-1.1c1.2.2 4.1.2 4.8-.4.7-.6-.1-1.9-1.8-2-1.6-.1-5.8-.2-6.8 1.1-.9-1.1-1.3-4.3 1.1-4 2.3.4 2.7-.6 3.2-1.3.5-.7 2-1.5 3.6-1.6 1.6-.1 2.8-.5 4.6 0 1.8.5 2.3 0 2.6-.8.9 1.4.9 2.7.7 3.2 1.6-.5 4.2.1 4.7 1.2.5 1.1 1.2.9 2.1.9.9 0 1.6.2 2 1.6.4 1.4 1.2.5 1.9.8.7.4 2.7 1.2 3.1 2.4.4 1.2 1.3 1.5 2.9 2.6"/><path class="st4" d="M-177.7 317.4c-.1-1.9-2.1-4-3.5-5.3-1.4-1.3-1.3-3.2.8-4.7s10.3-4.9 16.6-3.1c6.2 1.9 19.3 3.2 30.1-1.1l11.3 12.2"/><path class="st6" d="M-130.1 313.9c5.8 2 9.1.7 9.2-.6s-3.6-1-5-.9c-1.1.1-2.8 0-3.1-.4"/><path class="st4" d="M-129 312.1c.3.4 2 .4 3.1.4 1.4-.1 5.1-.4 5 .9.2-.6-.1-1.8-.4-2.5h-7.5"/><path class="st6" d="M-119.4 310c.9 1.1 0 2.9-2.5 2.2-2.5-.7-5.5-1.5-6.8-.6-.3.2-.4.4-.3.5-.3-.4-.3-1.7-.7-2.5l8.3-1.1"/><path class="st4" d="M-130.3 309.2c0 .6.7 1.1 2.8.6 4.5-1.1 7.2-.8 8.1.2-.2-.6-.8-1.8-1-2.6H-131"/><path class="st6" d="M-133.3 307.9c-.1-1.1 1.8-3.3 4-2.6 2.2.7 5.3.6 6.9-.4 1.6-.9 4.1-.9 5.3-.1.9.9 0 3.2-1.6 3.6-1.6.5-7.1-.8-9.3-.9-1.2-.1-2.3.9-2.3 1.6-.5-1.1-.9-1.4-1.3-1.8-.5.4-1.3 1-1.7.6z"/><path class="st4" d="M-117.1 304.8c-.9-.9-1.2-2.1-1.9-3.6s-1.8-2.6-4.1-.8c-2.4 1.8-7.4.8-9.4.4-2-.5-3.4 0-3.6 1.3-.2 1.3 1.4 4.6 2.8 5.9-.1-1.1 1.8-3.3 4-2.6 2.2.7 5.3.6 6.9-.4 1.7-1 4.1-1 5.3-.2z"/><path class="st5" d="M-121.4 337.5l3.1-4.1c5.8-5.2-.9-9.8-3.4-11 5.1-6.6-.4-8.6-1.9-8.2-.6-1.3-2.4-1.9-3.6-2-1.3-.1-2.3.2-3.4-.8-1.1-1.1-4.2-1.2-6.9.4-2.7 1.5-7.2 1.9-9.8.1-2.6-1.8-8.6-.9-10.8 1.2-2.2 2.1-4.2 3.9-8.2-.5-5.5-5.9-12.3 1.4-11.8 5.9.6 4.5-1.5 8.1-4.3 8.7l5.6 9.2"/><path class="st7" d="M-148.6 327.5c1.1 3 7.8 3.7 9.8 1 .8 3 6 4 7.9 1.6.6 3 5.8 4.3 7.2 3 1 2.9 4.5 3.3 6.5 1.3l1.9-2.3c1.6.1 1.8-1.1 2.6-2.1s1.5-1.5 3.4-1.8c-.6-.6-.9-1.6-2-1.4l-4.3-2.5-2.6 5.3 1.4.9c-3.4 5-6.1 2.1-5.7-1.5l-1.2-.3c-1.5 3.8-5.2 2.9-5.2-1.2l-1.7-.6c-2 3.8-7.3 2.4-7.2-2.1l-1.7-.1c-.2 4.3-8 4.2-9-1.1-1 5.3-8.7 5-9 .7l-1.7.1c.1 4.5-5.2 5.4-7.3 1.7l-1.7.6c0 4.1-3.7 5-5.2 1.2l-1.2.2c.5 3.6-2.3 6.5-5.7 1.5l1.4-.9-2.6-5.3-4.3 2.5c-1.1-.2-1.5.8-2 1.4 1.9.2 2.6.8 3.4 1.8.8 1 1 2.3 2.6 2.1l1.9 2.2c1.9 2 5.5 1.6 6.5-1.2 1.4 1.2 6.6 0 7.2-3 1.9 2.4 7.3 1.9 8.1-1.1 1.7 2.8 8.4 2.4 9.5-.6z"/><path class="st7" d="M-153.2 317.4h9.2v8h-9.2zm28.1 11v-7.7l-8.8-2.4-.1 7.8zm-47 0l.1-7.7 8.9-2.4-.1 7.8z"/><circle class="st7" cx="-174.8" cy="326.8" r="2.2"/><circle class="st7" cx="-158.6" cy="322.5" r="2.2"/><circle class="st7" cx="-122.4" cy="326.8" r="2.2"/><circle class="st7" cx="-138.6" cy="322.5" r="2.2"/><path class="st7" d="M-125 348.7c-10.3-7.5-36.9-5.6-47.7.2-1.8.2-3.2-2.6-1.6-4l-2.5-6.5c-1.1-.1-1.8-1.4-1.1-2.5s9.5-5.9 29.3-5.9c19.7 0 27.4 6.3 28.3 7.3.9.9.5 2.6-.7 2.6l-2.8 4.7c.9 1.5 0 3.8-1.2 4.1z"/><path class="st7" d="M-121 340c1.2 0 1.6-1.6.7-2.6-.9-.9-8.6-7.3-28.3-7.3-19.7 0-28.6 4.8-29.3 5.9-.7 1.1 0 2.4 1.1 2.5 4-1.9 15.9-5.2 28.7-5.2 10.1 0 22 2.8 27.1 6.7zm-4 8.7c-10.3-7.5-36.9-5.6-47.7.2-1.8.2-3.2-2.6-1.6-4 3.4-1.9 16.8-4.9 25.7-4.9 8.9 0 20.9 2.6 24.8 4.7.9 1.4 0 3.7-1.2 4z"/><circle class="st4" cx="-148.6" cy="336.7" r="2.7"/><circle class="st4" cx="-163.9" cy="338.1" r="2.7"/><circle class="st4" cx="-173.2" cy="340.7" r="2.7"/><circle class="st4" cx="-134.3" cy="338.1" r="2.7"/><circle class="st4" cx="-125" cy="340.7" r="2.7"/><circle class="st4" cx="-168.6" cy="339.2" r="1.2"/><circle class="st4" cx="-157.7" cy="336.8" r="1.2"/><circle class="st4" cx="-129.6" cy="339.2" r="1.2"/><path class="st4" d="M-140.5 338c-.7 0-1.2-.5-1.2-1.2s.5-1.2 1.2-1.2 1.2.5 1.2 1.2-.6 1.2-1.2 1.2z"/><path class="st8" d="M-148.6 428.8c.8-2.1 4-2.9 6.7-2.9h20.6c2 0 3.4-2.2 3.4-3.9v-73.1h-61.3V422c0 1.6 1.4 3.9 3.4 3.9h20.6c2.6 0 5.8.8 6.6 2.9z"/><path class="st4" d="M-178.1 350.1h28.6v36.4h-28.6z"/><path class="st8" d="M-147.7 350.1h28.6v36.4h-28.6zm-1.8 74.5v-36.4h-28.6v33.7c0 1.2 1.1 2.7 2.5 2.7h26.1z"/><path class="st4" d="M-119.1 421.5v-33.4h-28.6v36.4h26c1.2.1 2.6-1.6 2.6-3z"/><path d="M-148.6 461.3c-6.1 0-11-4.9-11-11s4.9-11 11-11 11 4.9 11 11-4.9 11-11 11v1c6.6 0 12-5.4 12-12s-5.4-12-12-12-12 5.4-12 12 5.4 12 12 12"/><path class="st8" d="M-149.9 455.5l.8 5.3h1.1l.7-5.3m-6.4-3.7l-4.2 3.4.5.9 5-2.1m0-7.4l-5-1.9-.5.9 4.2 3.3m6.4-3.7l-.8-5.3h-1.1l-.7 5.3m6.4 3.7l4.2-3.4-.5-.9-5 2m0 7.4l5 2 .6-.9-4.3-3.3"/><circle class="st8" cx="-148.6" cy="450.3" r="5.7"/><circle class="st8" cx="-148.6" cy="450.3" r="3"/><path class="st9" d="M-110.5 416.2c-1.1.9-1.4 2.4-1.6 3.2-.4-.7-1.5.2-1.5 1.9-.4-.4-1.3 1.9-1.1 3.3-.7 0-.7 2.8-.6 4-.6.2-.6 1.3-.5 2.6l1.1 1.4c1.9-.9 4.2-3.3 3.2-3.2.6-1.9 1.2-3.6.6-3.2.9-2.4 1.3-4.1.7-3.8.9-1.3 2-2.7 1.3-2.5 1.2-1.2 2.5-2.6 1.6-2.5.9-.7 1.3-1.3 1.3-1.6"/><path class="st9" d="M-105.5 415.9c-.2 1.3.1 2.4.5 3.4-.7-.2-.8.1-.5 1.4-.7.2-.4 2.2.4 3.5-.5.4-.6 1.5-.1 2.6-.7 0-1.2 2.8-1.1 3.6-.7-.2-1.4.9-2.1 2-.4-.6-1.4-.4-2.1.6-.5-.2-3.9.9-4.8 1.8l.4 3.3c1.4.5 4.8.2 4-.7 1.6.1 3.6-.9 2.9-1.2 2.1-.4 3.8-1.8 2.9-1.9 1.6-.9 2.7-2.8 1.9-2.8 1.1-.5 3.1-3.8 1.9-3.6 1.1-1.4 1.2-4.6.2-3.6.4-1.6.4-4.2-.5-3.5.2-1.9.6-3.2-.2-2.7.1-.8.2-1.8 0-2.2m-46.8 16.6c2.1-1.1 2.8-.7 2.7.1 1.8-.2 4.2.2 3.4 1.1 1.5-.6 3.9-.2 3.2.8 1.5-.5 3.3-1.5 3.3-.7 1.8-.9 4.2-1.1 3.5 0 1.3-.4 2.7-.9 3.9-.6l.1 2.2c-.8.9-2.7 1.4-3.5 1.8.7.5-.1.9-1.4.6 0 .5-1.6 1.1-3.1.2.1.6-.8.8-1.9-.1-.2.5-.7.9-2.2-.4-.5.2-1.4 0-2.1-.9-.5.5-1.8 0-2.6-.9-.7.4-.8.2-1.5-.6s-1.1-1.4-1.8-1.5"/><path class="st9" d="M-148.6 437.2c1.2.8 3.9.1 4.6 1.5.5-.2 1.3 0 1.6.8.8-.4 2 0 2.5.9 1.2-.2 2.2 0 3.1.7.9-.7 1.9-.9 2.2-.1 1.6-1.3 3.3-2.1 3.3-.8.5-.7 2.4-1.8 3.2-1.8l.5 1.2c-.6 1.2-1.9 2.4-2.5 2.7.5.4-.8 1.2-1.4 1.4.2.7-.8 1.3-1.9.8-.2.8-1.3.6-2.8-.6.1.8-2.1 1.3-3.2.6-.6.5-2.6-.2-3.2-1.4-.7.4-1.8 0-2.2-1.1-.7.6-1.4.2-1.8-.9-.8.2-2.1-1.4-2-3.1m38.4-54.8c-1.2.9-1.9 2-.9 2.9-.8.9-1.9 1.6-.9 3.1-.2 1.3.1 2.4.9 2.9-.7.7-1.1 2.9 0 3.4-.2 1.2-.5 1.6.8 2.4-.6.9-.4 3.5.7 4.8h2.9c.1-1.9.4-4-.2-4.8.2-.9.5-2.5-.2-3.2.5-1.4.4-3.8-.2-3.2.7-2.2.1-4.1-.5-3.4.7-1.9 1.1-3.4.5-3.2.4-.9 2-3.2.7-2.8m1.6.3c-.4 1.4.8 2.5 1.3 3.3-1.1-.1-.5.9.4 2.6-.9 0-.8.7-.4 2.7-.7.1-.7 1.6-.4 2.9-.7.2-.3 1.8-.1 2.9-.6.2-.6 1.6-.4 2.7-.5.1-1.5 2.6-1.1 3.5l2.2.4c1.5-1.5 2.9-4 2.1-3.8 1.3-1.8 2.8-5.4 1.5-4.9.8-1.5 1.4-4.5.5-3.9.2-2 0-4.2-.5-3.4.2-1.4-.6-3.6-.9-2.9-.1-.8-.1-2.1-1.1-2.7m-8.3-29.3c-.9.9-1.1 2.2-.5 2.8-.6 1.2.4 2.5 1.1 3.1-.8 1.4-.7 3.4 0 3.8-.6.8-.8 2.2-.1 2.8-.7 1.1-.4 2.8.8 3.8l2.6.1c0-1.5.4-2.6-.4-3.6-.7-1.1 0-1.5 0-2.7s0-1.2-.6-2.4 1.2-3.4.2-4.5c-.9-1.1-.4-2.9-.8-3.9s-.6-.9-1.2-1.3"/><path class="st9" d="M-107.2 349.3c.2 1.1.5 2.2 1.2 3.2.7.9.4 1.4.9 2.8.6 1.4.2 2.1-.1 3.3-.4 1.2.1 1.9.6 3.1.5 1.2-.2 1.9-.4 2.8s-1.5 3.8-.5 4.8h2.1c.7-1.3.8-2.1.7-3.1-.1-.9.2-1.5.8-2.1.6-.6 1.1-2.6.5-3.1-.6-.5-.7-1.5-.2-2 .5-.5.5-1.5.1-1.8.5-.7.8-2.1.2-2.6.2-1.2 0-2.4-1.2-2.7.1-.9-2.4-4-3.4-4m-80.8 68.3c1.1.9 1.4 2.4 1.6 3.2.4-.7 1.5.2 1.5 1.9.4-.4 1.3 1.9 1.1 3.3.7 0 .7 2.8.6 4 .6.2.6 1.3.5 2.6l-1.1 1.4c-1.9-.9-4.2-3.3-3.2-3.2-.6-1.9-1.2-3.6-.6-3.2-.9-2.4-1.3-4.1-.7-3.8-.9-1.3-2-2.7-1.3-2.5-1.2-1.2-2.5-2.6-1.6-2.5-.9-.7-1.3-1.3-1.3-1.6"/><path class="st9" d="M-191.7 415.9c.2 1.3-.1 2.4-.5 3.4.7-.2.8.1.5 1.4.7.2.4 2.2-.4 3.5.5.4.6 1.5.1 2.6.7 0 1.2 2.8 1.1 3.6.7-.2 1.4.9 2.1 2 .4-.6 1.4-.4 2.1.6.5-.2 3.9.9 4.8 1.8l-.4 3.3c-1.4.5-4.8.2-4-.7-1.6.1-3.6-.9-2.9-1.2-2.1-.4-3.8-1.8-2.9-1.9-1.6-.9-2.7-2.8-1.9-2.8-1.1-.5-3.1-3.8-1.9-3.6-1.1-1.4-1.2-4.6-.2-3.6-.4-1.6-.4-4.2.5-3.5-.2-1.9-.6-3.2.2-2.7-.1-.8-.2-1.8 0-2.2m46.8 16.6c-2.1-1.1-2.8-.7-2.7.1-1.8-.2-4.2.2-3.4 1.1-1.5-.6-3.9-.2-3.2.8-1.5-.5-3.3-1.5-3.3-.7-1.8-.9-4.2-1.1-3.5 0-1.3-.4-2.7-.9-3.9-.6l-.1 2.2c.8.9 2.7 1.4 3.5 1.8-.7.5.1.9 1.4.6 0 .5 1.6 1.1 3.1.2-.1.6.8.8 1.9-.1.2.5.7.9 2.2-.4.5.2 1.4 0 2.1-.9.5.5 1.8 0 2.6-.9.7.4.8.2 1.5-.6s1.1-1.4 1.8-1.5"/><path class="st9" d="M-148.6 437.2c-1.2.8-3.9.1-4.6 1.5-.5-.2-1.3 0-1.6.8-.8-.4-2 0-2.5.9-1.2-.2-2.2 0-3.1.7-.9-.7-1.9-.9-2.2-.1-1.6-1.3-3.3-2.1-3.3-.8-.5-.7-2.4-1.8-3.2-1.8l-.5 1.2c.6 1.2 1.9 2.4 2.5 2.7-.5.4.8 1.2 1.4 1.4-.2.7.8 1.3 1.9.8.2.8 1.3.6 2.8-.6-.1.8 2.1 1.3 3.2.6.6.5 2.6-.2 3.2-1.4.7.4 1.8 0 2.2-1.1.7.6 1.4.2 1.8-.9.8.2 2.1-1.4 2-3.1m-38.4-54.8c1.2.9 1.9 2 .9 2.9.8.9 1.9 1.6.9 3.1.2 1.3-.1 2.4-.9 2.9.7.7 1.1 2.9 0 3.4.2 1.2.5 1.6-.8 2.4.6.9.4 3.5-.7 4.8h-2.9c-.1-1.9-.4-4 .2-4.8-.2-.9-.5-2.5.2-3.2-.5-1.4-.4-3.8.2-3.2-.7-2.2-.1-4.1.5-3.4-.7-1.9-1.1-3.4-.5-3.2-.4-.9-2-3.2-.7-2.8m-1.6.3c.4 1.4-.8 2.5-1.3 3.3 1.1-.1.5.9-.4 2.6.9 0 .8.7.4 2.7.7.1.7 1.6.4 2.9.7.2.4 1.8.1 2.9.6.2.6 1.6.4 2.7.5.1 1.5 2.6 1.1 3.5l-2.2.4c-1.5-1.5-2.9-4-2.1-3.8-1.3-1.8-2.8-5.4-1.5-4.9-.8-1.5-1.4-4.5-.5-3.9-.2-2 0-4.2.5-3.4-.2-1.4.6-3.6.9-2.9.1-.8.1-2.1 1.1-2.7m8.3-29.3c.9.9 1.1 2.2.5 2.8.6 1.2-.4 2.5-1.1 3.1.8 1.4.7 3.4 0 3.8.6.8.8 2.2.1 2.8.7 1.1.4 2.8-.8 3.8l-2.6.1c0-1.5-.4-2.6.4-3.6.7-1.1 0-1.5 0-2.7s0-1.2.6-2.4-1.2-3.4-.2-4.5c.9-1.1.4-2.9.8-3.9.5-.9.6-.9 1.2-1.3"/><path class="st9" d="M-190 349.3c-.2 1.1-.5 2.2-1.2 3.2-.7.9-.4 1.4-.9 2.8-.6 1.4-.2 2.1.1 3.3.4 1.2-.1 1.9-.6 3.1-.5 1.2.2 1.9.4 2.8.1.9 1.5 3.8.5 4.8h-2.1c-.7-1.3-.8-2.1-.7-3.1.1-.9-.2-1.5-.8-2.1-.6-.6-1.1-2.6-.5-3.1.6-.5.7-1.5.2-2-.5-.5-.5-1.5-.1-1.8-.5-.7-.8-2.1-.2-2.6-.2-1.2 0-2.4 1.2-2.7-.1-.9 2.4-4 3.4-4"/><path class="st7" d="M-100.5 416.6l-2.6-8.3h-6.5l-2.6 8.3zm-9.1-12.2h6.5v3.9h-6.5zm6.5 0h-6.5l-2.4-2.5c.7-.8 1.2-.8 1.9-1.1l1.1 1.3h1.3v-1.8h2.3v1.9h1.5l.7-1.3c.8.5 1.6 1.1 2 1.5l-1.9 2z"/><path class="st7" d="M-107.5 404.4h2v3.9h-2zm-1.5 12.2l.8-3.8c.4-1.9 2.5-1.9 3.1 0l.9 3.8h-4.8zm8.5-33.5l-2.6-8.3h-6.5l-2.6 8.3zm-9.1-12.2h6.5v3.9h-6.5zm6.5 0h-6.5l-2.4-2.5c.7-.8 1.2-.8 1.9-1.1l1.1 1.3h1.3v-1.8h2.3v1.9h1.5l.7-1.3c.8.5 1.6 1.1 2 1.5l-1.9 2z"/><path class="st7" d="M-107.5 370.9h2v3.9h-2zm-1.5 12.2l.8-3.9c.4-1.9 2.5-1.9 3.1 0l.9 3.9h-4.8zm5.3-36.1l-7.4-4.7-4.9 4.2 3.4 8z"/><path class="st7" d="M-111.1 342.32l-4.97 4.2-2.5-3 4.96-4.18z"/><path class="st7" d="M-113.6 339.4l-4.9 4.2-3.4-.4c0-1.1.4-1.4.8-2l1.6.3 1-.8-1.1-1.3 1.8-1.5 1.2 1.4 1.2-1-.3-1.4c.9-.2 1.9-.3 2.5-.1l-.4 2.6z"/><path class="st7" d="M-112.87 343.78l-1.53 1.3-2.52-3 1.53-1.3zm2.67 8.72l-1.9-3.5c-.9-1.7.7-3 2.3-2l3.2 2.3-3.6 3.2zm-18.1 90.4l7.9-3.6-.8-6.4-8.6-1.5z"/><path class="st7" d="M-120.44 439.32l-.82-6.45 3.87-.5.85 6.46z"/><path class="st7" d="M-116.6 438.8l-.8-6.4 2.2-2.6c.9.6 1 1.1 1.3 1.7l-1.1 1.2.2 1.3 1.8-.2.3 2.3-1.9.2.2 1.5 1.4.5c-.4.9-.8 1.8-1.3 2.2l-2.3-1.7z"/><path class="st7" d="M-120.7 436.97l-.26-1.98 3.87-.5.28 2zm-8.7-2.47l3.9.3c1.9.1 2.2 2.2.4 3l-3.7 1.4-.6-4.7zm-67.3-17.9l2.6-8.3h6.5l2.6 8.3zm2.6-12.2h6.5v3.9h-6.5zm0 0h6.5l2.4-2.5c-.7-.8-1.2-.8-1.9-1.1l-1.1 1.3h-1.3v-1.8h-2.4v1.9h-1.5l-.7-1.3c-.8.5-1.6 1.1-2 1.5l2 2z"/><path class="st7" d="M-191.7 404.4h2v3.9h-2zm3.5 12.2l-.8-3.8c-.4-1.9-2.5-1.9-3.1 0l-.9 3.8h4.8zm-8.5-33.5l2.6-8.3h6.5l2.6 8.3zm2.6-12.2h6.5v3.9h-6.5zm0 0h6.5l2.4-2.5c-.7-.8-1.2-.8-1.9-1.1l-1.1 1.3h-1.3v-1.8h-2.4v1.9h-1.5l-.7-1.3c-.8.5-1.6 1.1-2 1.5l2 2z"/><path class="st7" d="M-191.7 370.9h2v3.9h-2zm3.5 12.2l-.8-3.9c-.4-1.9-2.5-1.9-3.1 0l-.9 3.9h4.8zm-5.3-36.1l7.4-4.7 4.9 4.2-3.4 8z"/><path class="st7" d="M-183.6 339.4l4.96 4.18-2.5 2.98-4.98-4.2z"/><path class="st7" d="M-183.6 339.4l4.9 4.2 3.4-.4c0-1.1-.4-1.4-.8-2l-1.6.3-1-.8 1.1-1.3-1.8-1.5-1.2 1.4-1.2-1 .3-1.4c-.9-.2-1.9-.3-2.5-.1l.4 2.6z"/><path class="st7" d="M-181.86 340.9l1.53 1.3-2.5 2.98-1.54-1.3zm-5.14 11.6l1.9-3.5c.9-1.7-.7-3-2.3-2l-3.2 2.3 3.6 3.2zm18.2 90.4l-8-3.6.8-6.4 8.6-1.5z"/><path class="st7" d="M-180.65 438.8l.8-6.44 3.88.48-.8 6.45z"/><path class="st7" d="M-180.6 438.8l.8-6.4-2.2-2.6c-.9.6-1 1.1-1.3 1.7l1.2 1.2-.2 1.3-1.8-.2-.3 2.3 1.9.2-.2 1.5-1.4.5c.4.9.8 1.8 1.3 2.2l2.2-1.7z"/><path class="st7" d="M-180.36 436.52l.25-2 3.84.5-.25 2zm12.56-2.02l-3.9.3c-1.9.1-2.2 2.2-.4 3l3.7 1.4.6-4.7z"/><path d="M-116.7 365.1c-.8.7 0 2.4 1.1 1.3l1.9-2c1.1.7 2.1.8 3.4.9-2.1-1.3-4.5-3.9-5.1-5.8-.2 1.2.1 2.8.5 3.8l-1.8 1.8z"/><path d="M-113.9 362.3l14.5-14.2c1.1-.9 1.6-.8 2.3-.9-.2.6-.8 1.3-1.3 2l-14.6 14.2m-3.6 34.6c-.9.6-.2 2.3.9 1.4l2.1-1.8c1 .8 2 1 3.3 1.3-2-1.5-4-4.3-4.4-6.3-.4 1.1-.2 2.8.1 3.8l-2 1.6z"/><path d="M-113.5 395.5l15.9-12.6c1.2-.8 1.7-.6 2.4-.7-.3.6-1 1.2-1.5 1.8l-16 12.6m-6.2 29.3c-1 .3-1 2.1.4 1.6l2.5-1c.7 1.1 1.6 1.6 2.7 2.3-1.4-2.1-2.4-5.4-2.2-7.4-.7 1-1.1 2.6-1.2 3.6l-2.2.9z"/><path d="M-115.2 424.5l19.1-6.8c1.4-.4 1.8-.1 2.5.1-.5.4-1.3.8-2 1.3l-19.2 6.8m-26.2 2.3c-.5-.9-2.3-.5-1.5.8l1.6 2.2c-.9.9-1.2 1.9-1.6 3.2 1.7-1.8 4.7-3.6 6.6-3.8-1.1-.5-2.8-.4-3.8-.3l-1.3-2.1z"/><path d="M-138.8 431.5l11.1 16.9c.7 1.2.5 1.8.5 2.5-.5-.3-1.1-1.1-1.7-1.7l-11.1-17.1m-40.4-67c.8.7 0 2.4-1.1 1.3l-1.9-2c-1.1.7-2.1.8-3.4.9 2.1-1.3 4.5-3.9 5.1-5.8.2 1.2-.1 2.8-.5 3.8l1.8 1.8z"/><path d="M-183.3 362.3l-14.5-14.2c-1.1-.9-1.6-.8-2.4-.9.2.6.8 1.3 1.3 2l14.6 14.2m3.7 34.6c.9.6.3 2.3-.9 1.4l-2.1-1.8c-1 .8-2 1-3.3 1.3 2-1.5 4-4.3 4.4-6.3.4 1.1.2 2.8-.1 3.8l2 1.6z"/><path d="M-183.7 395.5l-15.9-12.6c-1.2-.8-1.7-.6-2.4-.7.3.6 1 1.2 1.5 1.9l16 12.6m6.2 29.2c1 .3 1 2.1-.4 1.6l-2.5-1c-.7 1.1-1.6 1.6-2.7 2.3 1.4-2.1 2.4-5.4 2.2-7.4.7 1 1.1 2.6 1.2 3.6l2.2.9z"/><path d="M-182 424.5l-19.1-6.8c-1.4-.4-1.8-.1-2.5.1.5.4 1.3.8 2 1.3l19.2 6.8m26.2 2.3c.5-.9 2.3-.5 1.5.8l-1.6 2.2c.9.9 1.2 1.9 1.6 3.2-1.7-1.8-4.7-3.6-6.6-3.8 1.1-.5 2.8-.4 3.8-.3l1.3-2.1z"/><path d="M-158.4 431.5l-11.1 16.9c-.7 1.2-.5 1.8-.5 2.5.5-.3 1.1-1.1 1.7-1.7l11.1-17.1"/><circle class="st4" cx="-148.6" cy="436.1" r="3.7"/><path class="st7" d="M-172.5 393.4c4-3.3 12.2-3.6 17.2-.4l2-1.6c-5.8-4-15.9-3.9-21 .2"/><path class="st10" d="M-160.3 393.1c.7-.4 2 .1 2.1.9.1.8 1.3 2.9 3.6 2.2 2.3-.7.5-4.2 1.6-5.4-1.1.5-2.5 1.4-3.1 2.2-.6.8-1.2.5-1.4-.6-.2-1.1-1.3-1.5-1.9-.8-.5.8-.9 1.5-.9 1.5z"/><path class="st7" d="M-159.1 420l1.6-22.6h3.8l1.6 22.6z"/><path class="st7" d="M-158.2 407.8h5.2l1.9-2.5c-.6-.8-.9-.8-1.5-1.1l-.8 1.3h-1v-1.8h-1.9v1.9h-1.2l-.6-1.3c-.7.5-1.3 1.1-1.6 1.5l1.5 2zm4.2 12.2l-.5-3.8c-.2-1.9-1.5-1.9-1.8 0l-.6 3.8h2.9zm-3.5-22.6h3.8l1.4-1.8c-.4-.6-.7-.6-1.1-.8l-.6 1h-.8v-1.3h-1.4v1.4h-.9l-.4-1c-.5.3-1 .8-1.2 1.1l1.2 1.4z"/><path class="st10" d="M-168.1 393.1c-.7-.4-2 .1-2.1.9-.1.8-1.3 2.9-3.6 2.2-2.3-.7-.5-4.2-1.6-5.4 1.1.5 2.5 1.4 3.1 2.2.6.8 1.2.5 1.4-.6.2-1.1 1.3-1.5 1.9-.8.4.8.9 1.5.9 1.5z"/><path class="st7" d="M-169.4 420l-1.5-22.6h-3.9l-1.5 22.6z"/><path class="st7" d="M-170.2 407.8h-5.2l-1.9-2.5c.6-.8.9-.8 1.5-1.1l.8 1.3h1v-1.8h1.9v1.9h1.2l.6-1.3c.7.5 1.3 1.1 1.6 1.5l-1.5 2zm-4.2 12.2l.5-3.8c.2-1.9 1.5-1.9 1.8 0l.6 3.8h-2.9zm3.5-22.6h-3.8l-1.4-1.8c.4-.6.7-.6 1.1-.8l.6 1h.8v-1.3h1.4v1.4h.9l.4-1c.5.3 1 .8 1.2 1.1l-1.2 1.4z"/><path class="st11" d="M-167.2 407.1l-.8 13.2h6.9l-1.1-13.4c-.1-.8 0-2 .5-2.8.5-.8.4-3.4.4-5.2 0-1.8-.9-2.6-1.5-2.7l-1.3-.2h-1.2c-2 .7-2.2 1.5-2.5 3.1-.2 1.5-.2 3.5-.6 4.3-.3.7-.2 3 1.2 3.7z"/><path class="st7" d="M-166 393l-.6-1.9 1 .6.7-.8.3 1 1.1-.8.5 1.2.7-.6-.9 2.1"/><path class="st12" d="M-166 395.7c-.1-.8-.4-3.1.5-3.1s2.4 0 2.4 1.6c-.1 2.7-2.5 3.6-2.9 1.5zm-.7 8.6c-.8.9-.9 2.4-.1 2.6.8.2 1.4-.8 1.4-1.6 0-.9-1.1-1.5-1.3-1z"/><path class="st7" d="M-141.5 356.5c4-3.3 12.2-3.6 17.2-.4l2-1.6c-5.8-4-15.9-3.9-21 .2"/><path class="st10" d="M-129.4 356.2c.7-.4 2 .1 2.1.9.1.8 1.3 2.9 3.6 2.2 2.3-.7.5-4.2 1.6-5.4-1.1.5-2.5 1.4-3.1 2.2-.6.8-1.2.5-1.4-.6-.2-1.1-1.3-1.5-1.9-.8-.5.8-.9 1.5-.9 1.5z"/><path class="st7" d="M-128.1 383.1l1.5-22.6h3.8l1.6 22.6z"/><path class="st7" d="M-127.3 370.9h5.2l1.9-2.5c-.6-.8-.9-.8-1.5-1.1l-.8 1.3h-1v-1.8h-1.9v1.9h-1.2l-.6-1.3c-.7.5-1.3 1.1-1.6 1.5l1.5 2zm4.2 12.2l-.5-3.9c-.2-1.9-1.5-1.9-1.8 0l-.6 3.9h2.9zm-3.5-22.6h3.8l1.4-1.8c-.4-.6-.7-.6-1.1-.8l-.6 1h-.8v-1.3h-1.4v1.4h-.9l-.4-1c-.5.3-1 .8-1.2 1.1l1.2 1.4z"/><path class="st10" d="M-137.2 356.2c-.7-.4-2 .1-2.1.9-.1.8-1.3 2.9-3.6 2.2-2.3-.7-.5-4.2-1.6-5.4 1.1.5 2.5 1.4 3.1 2.2.6.8 1.2.5 1.4-.6.2-1.1 1.3-1.5 1.9-.8.4.8.9 1.5.9 1.5z"/><path class="st7" d="M-138.5 383.1l-1.5-22.6h-3.9l-1.5 22.6z"/><path class="st7" d="M-139.3 370.9h-5.2l-1.9-2.5c.6-.8.9-.8 1.5-1.1l.8 1.3h1v-1.8h1.9v1.9h1.2l.6-1.3c.7.5 1.3 1.1 1.6 1.5l-1.5 2zm-4.2 12.2l.5-3.9c.2-1.9 1.5-1.9 1.8 0l.6 3.9h-2.9zm3.5-22.6h-3.8l-1.4-1.8c.4-.6.7-.6 1.1-.8l.6 1h.8v-1.3h1.4v1.4h.9l.4-1c.5.3 1 .8 1.2 1.1l-1.2 1.4z"/><path class="st11" d="M-136.3 370.2l-.8 13.2h6.9l-1.1-13.4c-.1-.8 0-2 .5-2.8.5-.8.4-3.4.4-5.2 0-1.8-.9-2.6-1.5-2.7l-1.3-.2h-1.2c-2 .7-2.2 1.5-2.5 3.1-.2 1.5-.2 3.5-.6 4.3-.3.7-.2 3 1.2 3.7z"/><path class="st7" d="M-135.1 356.1l-.6-1.9 1 .6.7-.8.3 1 1.1-.8.5 1.2.7-.6-.9 2.1"/><path class="st12" d="M-135.1 358.8c-.1-.8-.4-3.1.5-3.1s2.4 0 2.4 1.6c-.1 2.7-2.5 3.6-2.9 1.5zm-.7 8.6c-.8.9-.9 2.4-.1 2.6.8.2 1.4-.8 1.4-1.6s-1-1.5-1.3-1z"/><path class="st7" d="M-120.5 421.9l-1.4-4.6h-3.6l-1.4 4.6z"/><path class="st7" d="M-121.9 417.3h-3.5l-.9-1.4c.4-.5.6-.5 1-.6l.2.7h.7v-1h1.3v1h.5l.4-.7c.5.3.8.6 1 .8l-.7 1.2zm-3.2 4.6l.5-2.1c.2-1 1.4-1 1.7 0l.5 2.1h-2.7zm4.3-13.6l-1.4-4.5h-3.6l-1.4 4.5zm-1.4-4.5h-3.5l-.9-1.4c.4-.5.6-.5 1-.6l.2.7h.7v-1h1.3v1h.5l.4-.7c.4.3.8.6 1 .8l-.7 1.2z"/><path class="st7" d="M-125.5 408.3l.5-2.1c.2-1 1.4-1 1.7 0l.5 2.1h-2.7zm5-11.7l-1.4-4.6h-3.6l-1.4 4.6zm-1.4-4.6h-3.5l-.9-1.4c.4-.5.6-.5 1-.6l.2.7h.7v-1h1.3v1h.5l.4-.7c.5.3.8.6 1 .8l-.7 1.2z"/><path class="st7" d="M-125.1 396.6l.5-2.1c.2-1 1.4-1 1.7 0l.5 2.1h-2.7zm-15.6 25.3l-1.4-4.6h-3.6l-1.4 4.6z"/><path class="st7" d="M-142.1 417.3h-3.5l-.9-1.4c.4-.5.6-.5 1-.6l.2.7h.7v-1h1.3v1h.5l.4-.7c.5.3.8.6 1 .8l-.7 1.2zm-3.3 4.6l.5-2.1c.2-1 1.4-1 1.7 0l.5 2.1h-2.7zm4.7-13.6l-1.4-4.5h-3.6l-1.4 4.5zm-1.4-4.5h-3.5l-.9-1.4c.4-.5.6-.5 1-.6l.2.7h.7v-1h1.3v1h.5l.4-.7c.5.3.8.6 1 .8l-.7 1.2z"/><path class="st7" d="M-145.4 408.3l.5-2.1c.2-1 1.4-1 1.7 0l.5 2.1h-2.7zm4.7-11.7l-1.4-4.6h-3.6l-1.4 4.6zm-1.4-4.6h-3.5l-.9-1.4c.4-.5.6-.5 1-.6l.2.7h.7v-1h1.3v1h.5l.4-.7c.5.3.8.6 1 .8l-.7 1.2z"/><path class="st7" d="M-145.4 396.6l.5-2.1c.2-1 1.4-1 1.7 0l.5 2.1h-2.7zm15.1 0l-1.4-4.6h-3.5l-1.5 4.6zm-1.4-4.6h-3.5l-.9-1.4c.4-.5.6-.5 1-.6l.2.7h.7v-1h1.3v1h.5l.4-.7c.5.3.8.6 1 .8l-.7 1.2z"/><path class="st7" d="M-134.9 396.6l.4-2.1c.2-1 1.4-1 1.7 0l.5 2.1h-2.6z"/><path class="st8" d="M-127.4 397.7v14.5c0 2.1-1 3.4-2.8 3.4h-2.3c-.6 0-1.3.2-1.4.7-.2-.5-.9-.7-1.4-.7h-2.3c-1.9 0-2.8-1.3-2.8-3.4v-14.5h13z"/><path class="st13" d="M-135.7 399.1l.7 3.4h1.7l.6-3.4zm0 12.6l.7-3.3h1.7l.6 3.3zm-4-5l3.3-.7v-1.6l-3.3-.6zm10.8 0l-3.4-.7v-1.6l3.4-.6zm-6.3-2.6h2v2.5h-2z"/><path class="st7" d="M-150.6 385l-1.4-4.6h-3.6l-1.4 4.6zm-1.4-4.6h-3.5l-.9-1.4c.4-.5.6-.5 1-.6l.2.7h.7v-1h1.3v1h.5l.4-.7c.5.3.8.6 1 .8l-.7 1.2z"/><path class="st7" d="M-155.2 385l.5-2.1c.2-1 1.4-1 1.7 0l.5 2.1h-2.7zm4.3-13.6l-1.4-4.5h-3.6l-1.4 4.5zm-1.4-4.5h-3.5l-.9-1.4c.4-.4.6-.4 1-.6l.2.7h.7v-1h1.3v1h.5l.4-.7c.5.3.8.6 1 .8l-.7 1.2z"/><path class="st7" d="M-155.5 371.4l.5-2.1c.2-1 1.4-1 1.7 0l.5 2.1h-2.7zm4.9-11.7l-1.4-4.6h-3.6l-1.4 4.6z"/><path class="st7" d="M-152 355.1h-3.5l-.9-1.4c.4-.5.6-.5 1-.6l.2.7h.7v-1h1.3v1h.5l.4-.7c.5.3.8.6 1 .8l-.7 1.2zm-3.2 4.6l.5-2.1c.2-1 1.4-1 1.7 0l.5 2.1h-2.7zm-15.6 25.3l-1.4-4.6h-3.6l-1.4 4.6zm-1.4-4.6h-3.5l-.9-1.4c.4-.5.6-.5 1-.6l.2.7h.7v-1h1.3v1h.5l.4-.7c.5.3.8.6 1 .8l-.7 1.2z"/><path class="st7" d="M-175.5 385l.5-2.1c.2-1 1.4-1 1.7 0l.5 2.1h-2.7zm4.7-13.6l-1.4-4.5h-3.6l-1.4 4.5zm-1.4-4.5h-3.5l-.9-1.4c.4-.4.6-.4 1-.6l.2.7h.7v-1h1.3v1h.5l.4-.7c.5.3.8.6 1 .8l-.7 1.2z"/><path class="st7" d="M-175.5 371.4l.5-2.1c.2-1 1.4-1 1.7 0l.5 2.1h-2.7zm4.7-11.7l-1.4-4.6h-3.6l-1.4 4.6z"/><path class="st7" d="M-172.2 355.1h-3.5l-.9-1.4c.4-.5.6-.5 1-.6l.2.7h.7v-1h1.3v1h.5l.4-.7c.5.3.8.6 1 .8l-.7 1.2zm-3.3 4.6l.5-2.1c.2-1 1.4-1 1.7 0l.5 2.1h-2.7zm15.1 0l-1.4-4.6h-3.5l-1.4 4.6z"/><path class="st7" d="M-161.8 355.1h-3.5l-.9-1.4c.4-.5.6-.5 1-.6l.2.7h.7v-1h1.3v1h.5l.4-.7c.5.3.8.6 1 .8l-.7 1.2zm-3.2 4.6l.5-2.1c.2-1 1.4-1 1.7 0l.5 2.1h-2.7z"/><path class="st8" d="M-157.5 360.8v14.5c0 2.1-1 3.4-2.8 3.4h-2.3c-.6 0-1.3.2-1.4.7-.2-.5-.9-.7-1.4-.7h-2.3c-1.9 0-2.8-1.3-2.8-3.4v-14.5h13z"/><path class="st13" d="M-165.8 362.2l.8 3.4h1.6l.6-3.4zm0 12.6l.8-3.3h1.6l.6 3.3zm-4-5l3.3-.7v-1.6l-3.3-.6zm10.8 0l-3.3-.7v-1.6l3.3-.6zm-6.3-2.6h2v2.5h-2z"/><path class="st4" d="M-159.2 295.9c-1.2-.4-2-.5-2.7 0-.7.5.1 1.2.8.9.8-.2 1.2-.9 1.9-.9z"/></svg>