<svg xmlns="http://www.w3.org/2000/svg" viewBox="-109.5 94.3 499.1 699.2"><path fill="#FFF" d="M378.66 543.95c0 131.82-106.73 238.68-238.6 238.8-131.84 0-238.7-106.72-238.7-238.54v-.1c0-131.84 106.73-238.7 238.58-238.8 131.86 0 238.72 106.7 238.72 238.66 0-.13 0 0 0 0z"/><path fill="#FFF" d="M135.4 95.18v7.76h-7.9v7.9h7.9v9.05s-2.97-.4-4.9.76-3 3.88-3 3.88-4.65-1.68-8.02-.4-5.57 5.44-5.57 5.44-4.5-4.28-9.3-3.24c-5.7 1.3-9.2 8.54-9.2 8.54s-4.8-3.24-9.33-1.17c-6.86 3-7.5 11.27-7.5 11.27s-10.24-1.3-13.48 1.15-2.6 12.94-2.6 12.94-3.63-.66-6.2.12-4.55 3.1-4.55 3.1-2.33-4.9-9.07-4.9c-6.86 0-10.36 7.75-10.36 7.75s-9.57-1.94-12.8 0c-3.38 1.94-3.77 9.57-3.77 9.57s-9.07-1.55-12.7 2.07-1.8 12.7-1.8 12.7-9.6-.92-11.4 2.7c-2.08 4.14-.65 14.36-.65 14.36s-7.38.65-8.94 6.34c-1.3 4.8 3.1 12.68 3.1 12.68s-6.47 2.85-8.02 6.6c-1.55 3.88 1.8 8.8 1.8 8.8l-2.97 15.65s-3.62 6.34 2.85 15.4c6.35 8.8 16.45 2.97 16.45 2.97s3.37 2.6 7.64 3.23c4.28.65 9.6-.5 9.6-.5s-1.3 4.38.4 6.97 6.7 3.5 6.7 3.5l2.2 5.17-1.4 6.2 6.34 5.44 2.2 8.94S73.76 287.8 139.8 287.8c61.4 0 112.7 26 112.7 26l2.33-8.66 6.35-5.43-1.3-6.2 2.2-5.17s4.93-.9 6.74-3.5.4-6.98.4-6.98 5.3 1.17 9.7.52c4.28-.64 7.65-3.23 7.65-3.23s10.1 5.82 16.45-2.98c6.47-8.92 2.84-15.4 2.84-15.4l-2.97-15.65s3.34-4.9 1.8-8.8-8.04-6.6-8.04-6.6 4.4-7.87 3.1-12.66c-1.55-5.7-8.93-6.34-8.93-6.34s1.42-10.23-.65-14.37c-1.82-3.75-11.4-2.7-11.4-2.7s1.8-8.94-1.82-12.7-12.7-2.06-12.7-2.06-.5-7.63-3.75-9.57-12.8 0-12.8 0-3.5-7.76-10.36-7.76c-6.74 0-9.07 4.9-9.07 4.9s-1.8-2.32-4.53-3.1-6.22-.12-6.22-.12.65-10.48-2.6-12.94-13.46-1.16-13.46-1.16-.65-8.15-7.5-11.26c-4.42-1.94-9.34 1.17-9.34 1.17s-3.5-7.38-9.2-8.54c-4.92-1.06-9.32 3.2-9.32 3.2s-2.2-4.13-5.56-5.42c-3.37-1.3-8.03.38-8.03.38s-1.02-2.72-2.96-3.88-4.92-.78-4.92-.78v-9.06h7.9v-7.9h-7.76V95.3l-9.33-.13z"/><path fill="#E1233B" stroke="#173980" d="M118.72 182.6c-5.33 0-11.05.52-16.5 1.7-22.24 4.93-42.65 20.66-42.65 20.66s-1.04.13-1.56.13c.4.77.66 1.68.66 2.6 0 3.24-2.6 5.97-5.98 5.97s-5.98-2.6-5.98-5.98c0-.27 0-.66.13-.92-5.98 1.17-13.13 2.86-20.02 5.6-15.72 6.23-29.63 17.67-29.63 17.67l13.52 32.5-7.94 12.1 25.6 7.92s57.08-28.08 117.53-27.82 124.4 28.73 124.4 28.73l7.02-8.84 13.9 1.43-6.1-15.34 8.32-22.36-4.42-10.8s-7.4-9.1-20.67-14.68c-7.67-3.26-17.42-5.34-24.18-6.64.13.52.26 1.17.26 1.82 0 3.25-2.73 5.98-5.98 5.98s-5.98-2.73-5.98-5.98c0-1.7.65-3.25 1.82-4.3-4.56-3.63-20.03-15.2-38.23-19.36-21.84-4.94-47.58 2.34-47.58 2.34s-13.66-4.16-29.78-4.16zm26 3.77c3.25 0 5.98 2.73 5.98 5.98s-2.6 5.98-5.98 5.98-5.98-2.6-5.98-5.98 2.73-5.98 5.98-5.98zm.4 22.75c6.36 0 11.56 5.2 11.56 11.57s-5.2 11.56-11.57 11.56-11.56-5.2-11.56-11.57 5.2-11.58 11.57-11.58zm82.02 9.5c6.37 0 11.57 5.2 11.57 11.56s-5.2 11.57-11.56 11.57-11.57-5.2-11.57-11.57 5.2-11.57 11.57-11.57zm-164.06.12c6.37 0 11.57 5.2 11.57 11.57s-5.2 11.58-11.57 11.58-11.57-5.2-11.57-11.57 5.2-11.56 11.58-11.56z" stroke-width="1.3"/><path fill="#FABC01" stroke="#173980" stroke-width="1.95" d="M140.43 96.93v7.8h-7.93v7.93h7.93v9.1s-3-.4-4.94.78-3 3.9-3 3.9-4.7-1.7-8.07-.4-5.6 5.47-5.6 5.47-4.54-4.27-9.35-3.23c-5.73 1.3-9.24 8.58-9.24 8.58s-4.8-3.25-9.36-1.17c-6.9 3-7.54 11.3-7.54 11.3s-10.27-1.3-13.52 1.18-2.6 13-2.6 13-3.64-.65-6.24.13c-2.73.77-4.55 3.1-4.55 3.1s-2.34-4.93-9.1-4.93c-6.9 0-10.4 7.8-10.4 7.8s-9.62-1.95-12.87 0c-3.38 1.95-3.77 9.62-3.77 9.62s-9.1-1.57-12.74 2.07-1.82 12.74-1.82 12.74-9.62-.9-11.44 2.74c-2.07 4.16-.64 14.43-.64 14.43s-7.4.65-8.97 6.37c-1.3 4.8 3.1 12.74 3.1 12.74s-6.5 2.86-8.06 6.63 1.82 8.85 1.82 8.85l-3 15.73s-3.63 6.37 2.87 15.47c6.37 8.84 16.5 3 16.5 3s3.4 2.6 7.68 3.24c4.3.64 9.63-.53 9.63-.53s-1.3 4.42.4 7.02c1.8 2.6 6.75 3.5 6.75 3.5l2.2 5.2-1.43 6.24 6.37 5.46 2.2 8.96s46.8-26.26 113.1-26.26c61.63 0 113.1 26.13 113.1 26.13l2.35-8.7 6.36-5.47-1.3-6.24 2.2-5.2s4.95-.9 6.77-3.5c1.82-2.6.4-7.03.4-7.03s5.32 1.15 9.74.5c4.3-.65 7.67-3.25 7.67-3.25s10.15 5.85 16.5-3c6.5-8.96 2.88-15.46 2.88-15.46l-2.98-15.74s3.38-4.94 1.82-8.84-8.06-6.63-8.06-6.63 4.42-7.94 3.12-12.75c-1.56-5.72-8.97-6.37-8.97-6.37s1.44-10.28-.64-14.44c-1.82-3.77-11.44-2.73-11.44-2.73s1.82-8.96-1.82-12.73-12.74-2.1-12.74-2.1-.52-7.66-3.77-9.6-12.87 0-12.87 0-3.5-7.8-10.4-7.8c-6.76 0-9.1 4.93-9.1 4.93s-1.82-2.34-4.55-3.12-6.25-.12-6.25-.12.65-10.53-2.6-13-13.52-1.17-13.52-1.17-.64-8.2-7.53-11.3c-4.43-1.96-9.37 1.16-9.37 1.16s-3.5-7.4-9.23-8.58c-4.94-1.05-9.36 3.24-9.36 3.24s-2.2-4.16-5.6-5.46c-3.36-1.3-8.04.4-8.04.4s-1.05-2.74-3-3.9-4.94-.8-4.94-.8v-9.1h7.93v-7.92h-7.8v-7.8l-9.37-.13zm-13 35.23c1.17-.13 2.47.13 3.5.78 3 1.7 3.9 5.46 2.22 8.32-1.7 3-5.46 4.03-8.45 2.34-3-1.7-3.9-5.46-2.2-8.45 1.16-1.82 2.98-2.86 4.93-3zm33.93 0c1.17-.13 2.34.13 3.5.78 3 1.7 4.04 5.46 2.35 8.32-1.67 3-5.44 4.03-8.43 2.34s-4.03-5.46-2.34-8.45c1.17-1.82 3-2.86 4.94-3zm-50.83 2.34c1.17-.13 2.34.13 3.5.78 3 1.7 4.04 5.46 2.35 8.45-1.7 3-5.46 3.9-8.45 2.2s-4.03-5.45-2.34-8.3c1.02-1.83 2.97-2.87 4.92-3.13zm68 0c1.16-.13 2.46.13 3.5.78 3 1.7 3.9 5.46 2.2 8.45s-5.45 3.9-8.44 2.2-3.9-5.45-2.23-8.3c1.17-1.83 3-2.87 4.94-3.13zm-85.42 6.37c1.2-.13 2.36.13 3.53.78 3 1.7 3.9 5.46 2.2 8.45s-5.45 3.9-8.3 2.2c-3-1.68-4.04-5.45-2.35-8.44 1.17-1.82 3-2.86 4.94-3zm102.46 0c1.17-.13 2.34.13 3.5.78 3 1.7 3.9 5.46 2.22 8.45s-5.46 3.9-8.45 2.2-3.9-5.45-2.2-8.44c1.16-1.82 2.98-2.86 4.93-3zm-50.96 7.02c1.16-.15 2.33.1 3.5.76 3 1.7 4.03 5.46 2.34 8.45-1.7 3-5.46 3.9-8.45 2.2s-4.05-5.44-2.36-8.3c1.04-1.95 3-3 4.94-3.12zm-67.48 3.62c1.17-.13 2.34.13 3.5.78 3 1.7 3.9 5.47 2.22 8.46s-5.46 3.9-8.32 2.2c-3-1.68-4.03-5.45-2.34-8.44 1.04-1.82 2.86-2.86 4.94-3zm134.42 0c1.17-.13 2.34.13 3.5.78 3 1.7 4.04 5.47 2.35 8.46-1.7 3-5.48 3.9-8.47 2.2s-4.03-5.45-2.34-8.44c1.16-1.82 3-2.86 4.93-3zm-56.03 1.7c4.96-.14 26 .5 43.57 14.3 20.15 15.85 23.53 44.97 23.53 44.97s-2.22.64-3.9 2.2-2.74 4.03-2.74 4.03-12.35-.52-12.35 13.26c0 8.83 11.2 12.2 11.2 12.2s-5.33 6-10.27 6c-5.33-.14-10.92-9.9-10.92-9.9s7.03-17.15-9.1-17.15c-13.25 0-10.65 16.12-10.65 16.12s-5.2 5.85-10.8 5.6c-7.8-.4-9.35-10.02-9.35-10.02s14.03 1.04 14.03-10.27c0-11.32-10.14-13.14-10.14-13.14s.5-4.03-1.7-6.5-7.3-3.25-7.3-3.25 4.8-2.6 5.73-6.5c1.04-3.9-1.04-8.7-1.04-8.7v-7.68s1.8-2.73 1.8-5.46-1.8-5.46-1.8-5.46V160c0-.13.9-2.73 1.16-3.77.26-1.16 0-3.24 0-3.24s.4.25 1.04.25zm-23.64.12h3.64s-.27 2.08 0 3.25c.25.9 1.03 3.63 1.16 3.76v7.93s-1.82 2.85-1.82 5.45c0 2.73 1.82 5.46 1.82 5.46v7.68s-2.08 4.67-1.04 8.7c.9 3.77 5.72 6.5 5.72 6.5s-5.07.78-7.28 3.25-1.7 6.5-1.7 6.5-10.13 1.82-10.13 13.13 14.04 10.27 14.04 10.27-1.7 9.62-9.36 10c-5.57.27-10.77-5.58-10.77-5.58s2.6-16.12-10.66-16.12c-16 0-9.1 17.16-9.1 17.16s-5.46 9.75-10.92 9.9c-4.94.1-10.27-6-10.27-6s11.18-3.38 11.18-12.2C86.36 218.6 74 219.1 74 219.1s-1.03-2.47-2.72-4.03c-1.7-1.57-3.9-2.2-3.9-2.2s3.38-29.14 23.53-45c15.35-12.48 33.3-14.43 40.96-14.56zm-84.5 11.18c1.17-.13 2.47.13 3.5.78 3 1.7 3.9 5.47 2.22 8.46s-5.46 4.03-8.45 2.34c-3-1.7-3.9-5.46-2.2-8.45 1.16-1.95 2.98-3 4.93-3.12zm194.22 0c1.17-.13 2.47.13 3.5.78 3 1.7 3.9 5.47 2.22 8.46s-5.47 4.03-8.46 2.34c-3-1.7-3.9-5.46-2.2-8.45 1.16-1.95 2.98-3 4.93-3.12zm-177.2 1.56c1.18-.14 2.35.12 3.52.77 2.98 1.7 3.9 5.46 2.2 8.32-1.7 2.98-5.46 4.02-8.45 2.33-3-1.7-3.9-5.46-2.2-8.45 1.16-1.82 2.98-2.86 4.93-3zm159.78 0c1.17-.14 2.34.12 3.5.77 3 1.7 4.04 5.46 2.35 8.32-1.7 2.98-5.45 4.02-8.44 2.33-3-1.7-3.9-5.46-2.2-8.45 1.03-1.82 2.85-2.86 4.8-3zm-79.56 1.3c1.16-.14 2.33.12 3.5.77 3 1.7 4.03 5.46 2.34 8.45-1.7 3-5.46 3.9-8.45 2.2s-4.05-5.45-2.36-8.44c1.04-1.82 3-2.86 4.94-3zm-113.37 3.76c1.17-.13 2.47.13 3.5.78 3 1.7 3.9 5.46 2.22 8.45s-5.46 4.02-8.45 2.33-3.9-5.46-2.2-8.45c1.16-1.95 2.98-3 4.93-3.12zm226.98 0c1.2-.13 2.5.13 3.53.78 3 1.7 3.9 5.46 2.2 8.45s-5.45 4.02-8.44 2.33-3.9-5.46-2.2-8.45c1.15-1.95 2.97-3 4.92-3.12zm-202 11.44c1.17-.13 2.34.13 3.5.78 3 1.7 3.9 5.46 2.2 8.45s-5.44 4.04-8.43 2.35c-3-1.7-3.9-5.46-2.2-8.45 1.03-1.95 2.98-3 4.93-3.12zm176.4 0c1.18-.13 2.35.13 3.5.78 3 1.7 3.9 5.46 2.23 8.45s-5.46 4.04-8.45 2.35c-3-1.7-3.9-5.46-2.2-8.45 1.03-1.95 2.98-3 4.93-3.12zm-217.6.4c1.16-.14 2.46.12 3.5.77 3 1.7 3.9 5.46 2.2 8.32-1.7 2.98-5.45 4.02-8.44 2.33-3-1.7-3.9-5.46-2.2-8.45 1.16-1.82 2.98-2.86 4.93-3zm259.1 0c1.15-.14 2.45.12 3.5.77 3 1.7 3.9 5.46 2.2 8.32-1.7 2.98-5.46 4.02-8.45 2.33s-3.9-5.46-2.2-8.45c1.16-1.82 2.98-2.86 4.93-3zm-129.5 3.37c1.17-.13 2.34.13 3.5.78 3 1.7 4.04 5.46 2.35 8.32-1.7 3-5.46 4.03-8.45 2.34-3-1.7-4.04-5.46-2.35-8.45 1.04-1.82 3-2.86 4.94-3zm-99.2 1.3s0 3.38 1.05 5.6 3 3.63 3 3.63-8.72 5.2-8.72 10.53c0 7.68 7.54 11.06 7.54 11.06v5.6s-9.23 4.02-6.37 14.8c3.76 14.3 16.63 8.46 16.63 8.46s-.65 9.62-8.97 11.83c-7.28 1.95-10.66-6.9-10.8-6.9 0 0-6.62-11.7-15.85-6.36-11.7 6.76-2.2 17.16-2.2 17.16s-1.94 7.54-6.1 10.14-9.36.4-9.36.4 5.72-3.9 5.72-11.3c0-5.86-6.1-11.97-6.1-11.97s-1.44-20.54 8.7-36.27c10.27-15.6 31.85-26.4 31.85-26.4zm199.17 0s21.58 10.8 31.72 26.52 8.7 36.26 8.7 36.26-6.63 6.1-6.63 11.96c0 7.4 6.24 11.3 6.24 11.3s-5.06 2.2-9.35-.4c-4.16-2.6-6.1-10.13-6.1-10.13s9.48-10.4-2.22-17.16c-9.23-5.32-15.86 6.38-15.86 6.38s-3.38 8.98-10.66 6.9c-8.3-2.2-8.96-11.83-8.96-11.83s12.87 5.85 16.64-8.45c2.86-10.8-6.37-14.82-6.37-14.82v-5.6s7.55-3.37 7.55-11.04c0-5.33-8.7-10.53-8.7-10.53s2.07-2.2 3.1-4.4.92-4.94.92-4.94zM2.63 196.9c1.17-.13 2.47.13 3.5.78 3 1.7 3.9 5.46 2.22 8.45s-5.46 3.9-8.45 2.2-3.9-5.45-2.2-8.44c1.16-1.84 2.98-2.88 4.93-3zm284.05 0c1.17-.13 2.34.13 3.5.78 3 1.7 3.9 5.46 2.22 8.45s-5.46 3.9-8.45 2.2-3.9-5.45-2.2-8.44c1.03-1.84 2.98-2.88 4.93-3zM51.9 201.7c1.17-.12 2.34.14 3.5.8 3 1.68 3.9 5.45 2.22 8.44s-5.46 3.9-8.45 2.2-3.9-5.45-2.2-8.3c1.16-1.83 2.98-3 4.93-3.13zm185.64 0c1.17-.12 2.34.14 3.5.8 3 1.68 4.04 5.45 2.35 8.44-1.7 3-5.48 3.9-8.47 2.2s-4.03-5.45-2.34-8.3c1.16-1.83 3-3 4.93-3.13zm-93.34 8.2c1.95-.13 4.03.26 5.98 1.43 4.94 2.86 6.76 9.23 3.77 14.3-2.86 4.94-9.23 6.76-14.3 3.77-4.94-2.86-6.76-9.23-3.77-14.3 1.82-3.25 5.07-5.07 8.32-5.2zm-149.37 4.16c1.17-.13 2.47.13 3.5.78 3 1.7 3.9 5.46 2.22 8.45s-5.46 4-8.45 2.32c-3-1.7-3.9-5.46-2.2-8.45 1.03-1.82 2.98-3 4.93-3.12zm300.04 0c1.17-.13 2.34.13 3.5.78 3 1.7 3.9 5.46 2.22 8.45s-5.48 4-8.34 2.32c-3-1.7-4.03-5.46-2.34-8.45 1.17-1.82 3-3 4.94-3.12zm-232.7 5.46c1.95-.13 4.03.26 5.98 1.43 4.94 2.86 6.76 9.36 3.9 14.3s-9.36 6.76-14.3 3.77-6.76-9.36-3.77-14.3c1.7-3.12 4.8-4.94 8.2-5.2zm164.2 0c1.94-.13 4.02.26 5.97 1.43 4.94 2.86 6.76 9.36 3.77 14.3-2.84 4.94-9.2 6.76-14.3 3.77s-6.74-9.36-3.75-14.3c1.82-3.12 4.94-4.94 8.32-5.2zm-236.22 13.4c1.17-.14 2.47.12 3.5.77 3 1.67 3.9 5.44 2.22 8.43s-5.46 3.9-8.45 2.2-3.9-5.45-2.2-8.44c1.16-1.83 2.98-2.87 4.93-3zm308.75 0c1.17-.14 2.34.12 3.5.77 3 1.67 3.9 5.44 2.22 8.43s-5.46 3.9-8.45 2.2-3.9-5.45-2.2-8.44c1.03-1.83 2.85-2.87 4.93-3zm-154.18 3.63s1.17 4.42 3.9 8.2 7.02 6.88 7.02 6.88h-21.97s3.64-3.12 6.37-6.9 4.68-8.18 4.68-8.18zm-35.23 8.97s1.54 1.82 3.9 3.5c2.32 1.7 5.2 3 5.2 3l-24.07 2.73s2.86-1.95 5.6-4.42c2.2-1.95 2.6-4.3 2.6-4.3l6.75-.5zm70.2 0l6.6.52s.4 2.47 2.6 4.3c2.74 2.46 5.6 4.4 5.6 4.4l-24.05-2.72s2.86-1.43 5.33-3c2.46-1.68 3.9-3.5 3.9-3.5zm-112.6 1.04s2.34 4.03 6 6.9c3.62 2.85 8.56 4.8 8.56 4.8l-21.32 5.72s2.6-3.9 4.3-8.32c1.68-4.3 2.46-9.1 2.46-9.1zm155.22 0s.78 4.8 2.47 9.1 4.3 8.32 4.3 8.32l-21.2-5.72s4.93-1.82 8.57-4.8c3.5-2.87 5.85-6.9 5.85-6.9zm-230.1 7.4c1.7 0 3.38.53 4.94 1.44 4.94 2.86 6.76 9.23 3.77 14.3-2.86 4.94-9.23 6.76-14.3 3.77-4.94-2.86-6.76-9.23-3.77-14.3 2.08-3.38 5.72-5.33 9.36-5.2zm306.02 0c1.7 0 3.38.53 4.94 1.44 4.93 2.86 6.75 9.23 3.76 14.3-2.86 4.94-9.36 6.76-14.3 3.77s-6.76-9.23-3.77-14.3c1.94-3.38 5.58-5.33 9.35-5.2zm-262.08 9.9s1.95 1.42 4.68 2.46 5.85 1.7 5.85 1.7l-22.63 8.3s2.2-2.6 4.3-5.58c1.68-2.47 1.55-4.8 1.55-4.8l6.24-2.1zm217.62 0l6.36 2.07s-.13 2.47 1.56 4.8c2.08 3 4.42 5.6 4.42 5.6l-22.6-8.33s3.12-.64 5.85-1.68c2.6-1.04 4.42-2.47 4.42-2.47zM109.5 274.9c3.5 0 6.36 2.86 6.36 6.37s-2.86 6.37-6.37 6.37-6.4-2.86-6.4-6.37 2.87-6.37 6.38-6.37zm68.63 0c3.5 0 6.37 2.86 6.37 6.37s-2.86 6.37-6.37 6.37-6.37-2.86-6.37-6.37c-.13-3.5 2.86-6.37 6.37-6.37zM43.97 293.1c3.5 0 6.37 2.86 6.37 6.37s-2.86 6.37-6.37 6.37c-3.5 0-6.37-2.86-6.37-6.37s2.73-6.37 6.37-6.37zm200.33 0c3.5 0 6.37 2.86 6.37 6.37s-2.86 6.37-6.37 6.37c-3.5 0-6.37-2.86-6.37-6.37s2.73-6.37 6.37-6.37z"/><g stroke="#173980" stroke-width="1.5"><path fill="#E1233B" d="M140.6 272.4l19.5 7.42-19.5 7.54-19.5-7.54z" stroke-width="1.9500000000000002"/><path fill="#173980" d="M210.4 281.25l17.03 12.22-20.8 2.2-17.03-12.34zm-139.88 0l-16.9 12.22 20.8 2.2 16.9-12.34z" stroke-width="1.95"/><path fill="#E1233B" d="M25.36 303.4l-4.94 4.94 4.94 4.94 4.94-4.94-4.94-4.94zm231.92 0l-4.94 4.94 4.94 4.94 4.94-4.94-4.94-4.94z" stroke-width="1.9500000000000002"/></g><path fill="none" stroke="#173980" stroke-width="3.87" d="M23.43 294.66c58.5-33.93 175.37-39.4 243.36 0"/><g stroke="#173980"><path fill="#FABC01" stroke-width="3.9000000000000004" d="M145.14 299.16C7.74 299.16-103.8 410.7-103.8 548.1S7.72 797.07 145.13 797.07 394.1 685.52 394.1 548.1 282.54 299.17 145.13 299.17zm0 32.24c119.6 0 216.7 97.1 216.7 216.7s-97.1 216.72-216.7 216.72-216.7-97.1-216.7-216.7 97.1-216.72 216.7-216.72z"/><path fill="#173980" d="M-39.04 486.4L217.7 747.83s35.37-17.55 59.16-38.48 34.84-45.9 34.84-45.9L34.54 383.96-39.04 486.4z" stroke-width="1.3"/><path fill="#FABC01" stroke-width="5.2" d="M238.25 375.5l-49 49.02c-13.27-5.07-26.92-8.06-40.57-9.1-1.56-.13-3.12-.26-4.68-.26-21.45-.9-42.77 3.12-62.27 11.57L31.3 376.3c-30.17 17.54-56.43 42.9-75.15 75.4-44.6 77.34-33.67 171.6 20.54 236.33l28.06-28.6c-66.3-62.14-49.92-177.2 23.53-239.98l23.65 24.83C40.4 453.25 30 464.04 21.4 476.78c-42.37 63.18-24.3 148.2 40.18 189.8 12.22 7.93 25.35 13.65 38.74 17.42v37.44h28.73v-32.5c43.68 2.86 87.5-14.3 116.74-48.75l-23.4-25.9c-22.38 29.13-58.13 43.56-93.36 40.44v-28.2h41.08v-24.97h-41.08V576.6h41.08v-21.05h-69.8V648c-6.77-2.6-13.4-5.86-19.77-10.02-48.5-31.33-62-95.16-30.16-142.6 7-10.4 15.6-19.25 25.34-26.27l58.1 60.86 61.5-64.35.78.4c14.04 8.97 25.1 20.8 33.02 34.06l26.4-23c-9.37-14.05-21.46-26.53-36.15-36.67l20.27-21.2c73.45 62.8 89.83 177.7 23.66 239.85l29.77 29.77c7.94-9.35 15.1-19.5 21.46-30.4 57.07-98.94 23.14-225.56-75.8-282.76-.12.13-.38 0-.5-.13zm-99.2 73.72c2.35 0 4.56.13 6.9.26 5.33.4 10.66 1.17 15.86 2.34l-27.54 27.56-26-26c10-2.86 20.4-4.3 30.8-4.16z"/></g></svg>