<svg id="svg2" xmlns="http://www.w3.org/2000/svg" viewBox="-55 47 500 700"><style>.st0{fill:#FFFFFF;} .st1{fill:#E1233B;stroke:#173980;} .st2{fill:#FABC01;stroke:#173980;stroke-width:1.5;} .st3{fill:#E1233B;stroke:#173980;stroke-width:1.5002;} .st4{fill:#173980;stroke:#173980;stroke-width:1.5002;} .st5{fill:#E1233B;stroke:#173980;stroke-width:1.5;} .st6{fill:none;stroke:#173980;stroke-width:2.9771;} .st7{fill:#FABC01;stroke:#173980;stroke-width:3;} .st8{fill:#173980;stroke:#173980;stroke-width:1.004;} .st9{fill:#FABC01;stroke:#173980;stroke-width:4;}</style><g id="layer1"><g id="g21752"><g id="g21781"><g id="g23567"><g id="g25392"><path id="path23601" class="st0" d="M433.7 497c0 131.8-106.72 238.67-238.58 238.8-131.85 0-238.7-106.73-238.7-238.55v-.13c0-131.82 106.72-238.68 238.57-238.8 131.8 0 238.7 106.72 238.7 238.54v.13z"/><path id="path24490" class="st0" d="M190.46 48.22v7.76h-7.9v7.9h7.9v9.05s-2.98-.4-4.92.78c-1.95 1.2-2.98 3.9-2.98 3.9s-4.67-1.7-8.03-.4c-3.37 1.3-5.57 5.5-5.57 5.5s-4.54-4.25-9.33-3.2c-5.7 1.3-9.2 8.54-9.2 8.54s-4.8-3.24-9.32-1.17c-6.8 3-7.5 11.27-7.5 11.27s-10.2-1.3-13.4 1.14c-3.22 2.45-2.6 12.93-2.6 12.93s-3.6-.65-6.2.13-4.52 3.1-4.52 3.1-2.34-4.9-9.07-4.9c-6.87 0-10.36 7.75-10.36 7.75s-9.6-1.92-12.83 0c-3.36 1.96-3.75 9.6-3.75 9.6s-9.06-1.56-12.7 2.06-1.8 12.7-1.8 12.7-9.6-.9-11.4 2.7c-2.1 4.14-.64 14.36-.64 14.36s-7.4.63-8.93 6.32c-1.3 4.8 3.1 12.66 3.1 12.66s-6.5 2.84-8.03 6.6c-1.56 3.87 1.8 8.8 1.8 8.8l-3 15.64s-3.63 6.35 2.85 15.4c6.34 8.8 16.44 2.98 16.44 2.98s3.33 2.6 7.6 3.23c4.3.6 9.6-.5 9.6-.5s-1.3 4.35.4 6.94 6.72 3.5 6.72 3.5l2.2 5.16-1.42 6.24L80 258.1l2.2 8.93s46.63-26.15 112.7-26.15c61.4 0 112.67 26 112.67 26l2.33-8.66 6.32-5.4-1.3-6.2 2.2-5.2s4.96-.9 6.77-3.5.4-6.98.4-6.98 5.3 1.15 9.7.5c4.3-.64 7.63-3.23 7.63-3.23s10.1 5.8 16.46-3c6.5-8.9 2.86-15.4 2.86-15.4l-2.94-15.63s3.37-4.92 1.82-8.8-8.03-6.6-8.03-6.6 4.4-7.9 3.1-12.68c-1.53-5.7-8.9-6.35-8.9-6.35s1.4-10.22-.64-14.36c-1.8-3.76-11.4-2.7-11.4-2.7s1.8-8.95-1.8-12.7-12.7-2.07-12.7-2.07-.53-7.6-3.77-9.55c-3.25-1.95-12.83 0-12.83 0s-3.5-7.77-10.36-7.77c-6.73 0-9.06 4.9-9.06 4.9s-1.82-2.32-4.54-3.1c-2.73-.77-6.22-.12-6.22-.12s.64-10.48-2.6-12.94c-3.23-2.46-13.46-1.16-13.46-1.16s-.72-8.2-7.6-11.3c-4.4-1.94-9.32 1.17-9.32 1.17s-3.5-7.38-9.2-8.54c-4.92-1.03-9.32 3.24-9.32 3.24s-2.2-4.14-5.57-5.43c-3.4-1.3-8.1.4-8.1.4s-1.03-2.72-3-3.9c-1.92-1.15-4.9-.76-4.9-.76V64h7.9v-7.9h-7.77v-7.75h-9.3z"/><path id="path19002" class="st1" d="M168.83 133.2c-5.3 0-11 .53-16.45 1.7-22.15 4.9-42.5 20.57-42.5 20.57s-1.02.12-1.54.12c.4.7.65 1.6.65 2.5 0 3.23-2.6 5.94-6 5.94s-6-2.57-6-5.94c0-.25 0-.63.1-.9-5.97 1.17-13.1 2.85-19.96 5.57-15.67 6.2-29.53 17.6-29.53 17.6l13.5 32.33-7.9 12.03 25.5 7.9s56.88-27.96 117.1-27.7c60.24.26 123.96 28.6 123.96 28.6l7-8.8 13.85 1.42-6.1-15.28 8.3-22.26-4.4-10.7s-7.4-9.04-20.6-14.6c-7.6-3.24-17.32-5.3-24.1-6.6.18.5.3 1.16.3 1.8 0 3.24-2.7 5.96-5.95 5.96s-5.96-2.73-5.96-5.96c0-1.68.66-3.23 1.8-4.27-4.5-3.62-19.9-15.13-38.06-19.27-21.76-4.9-47.4 2.34-47.4 2.34s-13.6-4.13-29.66-4.13zm25.9 3.77c3.24 0 5.96 2.7 5.96 5.95s-2.6 5.95-6 5.95-6-2.6-6-5.95 2.7-5.95 5.94-5.95zm.4 22.64c6.34 0 11.52 5.2 11.52 11.6s-5.18 11.5-11.53 11.5-11.53-5.15-11.53-11.5 5.1-11.5 11.5-11.5zm81.72 9.5c6.35 0 11.53 5.2 11.53 11.5s-5.18 11.57-11.53 11.57-11.53-5.2-11.53-11.52 5.18-11.5 11.53-11.5zm-163.46.17c6.3 0 11.5 5.17 11.5 11.5s-5.2 11.53-11.6 11.53-11.54-5.18-11.54-11.5 5.2-11.53 11.53-11.53z"/><path id="path9070" class="st2" d="M190.46 47.96v7.76h-7.9v7.9h7.9v9.05s-2.98-.4-4.92.78c-1.95 1.16-2.98 3.88-2.98 3.88s-4.67-1.68-8.03-.4-5.57 5.44-5.57 5.44-4.54-4.26-9.33-3.23c-5.7 1.3-9.2 8.54-9.2 8.54s-4.8-3.24-9.32-1.17c-6.8 3-7.5 11.3-7.5 11.3s-10.2-1.3-13.4 1.2-2.6 12.97-2.6 12.97-3.6-.65-6.2.13c-2.7.77-4.5 3.1-4.5 3.1s-2.35-4.9-9.08-4.9c-6.87 0-10.36 7.75-10.36 7.75s-9.6-1.94-12.83 0c-3.35 1.94-3.74 9.57-3.74 9.57s-9.07-1.54-12.7 2.08-1.8 12.67-1.8 12.67-9.6-.9-11.4 2.7c-2.1 4.13-.65 14.35-.65 14.35s-7.4.63-8.92 6.33c-1.3 4.75 3.1 12.64 3.1 12.64s-6.5 2.83-8.03 6.6 1.8 8.8 1.8 8.8l-3 15.65s-3.62 6.36 2.86 15.4c6.36 8.8 16.46 3 16.46 3s3.37 2.6 7.64 3.22c4.3.7 9.6-.5 9.6-.5s-1.3 4.4.4 7c1.8 2.6 6.72 3.5 6.72 3.5l2.2 5.2-1.4 6.2 6.33 5.43 2.2 8.9s46.64-26.1 112.7-26.1c61.4 0 112.68 26 112.68 26L310 258l6.35-5.44-1.3-6.2 2.2-5.2s4.94-.9 6.75-3.5c1.8-2.57.4-6.96.4-6.96s5.3 1.2 9.7.5c4.28-.6 7.64-3.2 7.64-3.2s10.15 5.83 16.5-2.97c6.47-8.92 2.84-15.4 2.84-15.4l-3-15.68s3.37-4.94 1.82-8.8c-1.57-3.9-8.04-6.6-8.04-6.6s4.4-7.9 3.1-12.7c-1.55-5.7-8.93-6.33-8.93-6.33s1.4-10.23-.66-14.37c-1.8-3.75-11.4-2.7-11.4-2.7s1.82-8.94-1.8-12.7-12.7-2.06-12.7-2.06-.52-7.66-3.76-9.6c-3.22-1.94-12.8 0-12.8 0s-3.5-7.76-10.37-7.76c-6.74 0-9.07 4.9-9.07 4.9s-1.84-2.3-4.56-3.1c-2.75-.76-6.24-.1-6.24-.1s.65-10.5-2.6-12.95c-3.22-2.48-13.45-1.18-13.45-1.18s-.62-8.16-7.5-11.27c-4.4-1.94-9.3 1.17-9.3 1.17s-3.5-7.38-9.2-8.54c-4.93-1.07-9.33 3.2-9.33 3.2s-2.2-4.16-5.56-5.45c-3.4-1.3-8.05.4-8.05.4s-1.05-2.73-3-3.9-4.92-.77-4.92-.77V63.7h7.9v-7.9h-7.78v-7.7h-9.32zM177.5 83.02c1.17-.13 2.47.13 3.5.78 2.98 1.68 3.9 5.43 2.2 8.28-1.68 2.97-5.43 4-8.4 2.33-3-1.6-3.9-5.4-2.22-8.4 1.17-1.8 2.98-2.8 4.93-2.9zm33.8 0c1.18-.13 2.34.13 3.5.78 3 1.68 4.02 5.43 2.34 8.28-1.68 2.97-5.44 4-8.42 2.33s-4-5.4-2.33-8.4c1.1-1.8 2.9-2.8 4.9-2.9zm-50.63 2.33c1.16-.13 2.33.13 3.5.78 2.97 1.68 4 5.43 2.33 8.4-1.7 2.98-5.44 3.9-8.42 2.2-2.98-1.68-4.02-5.43-2.33-8.28 1.03-1.8 2.98-2.84 4.92-3.1zm67.74 0c1.2-.13 2.5.13 3.5.78 3 1.68 3.9 5.43 2.2 8.4-1.6 2.98-5.4 3.9-8.4 2.2s-3.9-5.43-2.2-8.28c1.2-1.8 3-2.84 4.9-3.1zm-85.1 6.34c1.2-.2 2.4.1 3.5.7 3 1.7 3.9 5.4 2.2 8.4-1.6 3-5.4 3.9-8.2 2.2-3-1.7-4-5.4-2.32-8.4 1.17-1.8 2.98-2.87 4.9-3zm102.1 0c1.2-.2 2.4.1 3.5.7 3 1.7 3.9 5.4 2.2 8.4-1.7 3-5.4 3.9-8.4 2.2s-3.9-5.4-2.2-8.4c1.2-1.8 3-2.87 4.9-3zm-50.8 6.9c1.2-.15 2.4.1 3.5.8 3 1.7 4.1 5.4 2.4 8.4-1.7 3-5.42 3.9-8.4 2.2-2.97-1.7-4-5.46-2.32-8.3 1.05-1.94 3-2.98 4.93-3.1zm-67.2 3.6c1.2-.13 2.4.13 3.5.77 3 1.7 3.9 5.44 2.2 8.4-1.7 3-5.4 3.9-8.3 2.2-2.9-1.67-4-5.4-2.3-8.4 1.08-1.8 2.9-2.84 4.9-2.97zm134 0c1.17-.13 2.34.13 3.5.77 2.98 1.7 4 5.44 2.34 8.4-1.7 3-5.44 3.9-8.42 2.2-2.97-1.67-4-5.4-2.32-8.4 1.16-1.8 2.98-2.84 4.9-2.97zm-55.82 1.68c4.94-.13 25.9.52 43.4 14.23 20.08 15.8 23.45 44.78 23.45 44.78s-2.2.67-3.9 2.2c-1.67 1.57-2.7 4-2.7 4s-12.3-.5-12.3 13.2c0 8.8 11.13 12.18 11.13 12.18s-5.3 5.95-10.23 5.95c-5.3-.1-10.9-9.82-10.9-9.82s7-17.08-9.06-17.08c-13.2 0-10.6 16.04-10.6 16.04s-5.2 5.8-10.76 5.55c-7.8-.4-9.33-9.94-9.33-9.94s14 1.02 14-10.23c0-11.26-10.1-13.07-10.1-13.07s.5-4-1.7-6.44-7.24-3.23-7.24-3.23 4.8-2.6 5.7-6.48c1.03-3.87-1.04-8.65-1.04-8.65v-7.64s1.8-2.7 1.8-5.42c0-2.7-1.8-5.42-1.8-5.42v-7.9c0-.1.9-2.7 1.17-3.75.26-1.16 0-3.23 0-3.23s.4.26 1.03.26zm-23.56.13h3.64s-.25 2.1 0 3.25c.27.9 1.04 3.62 1.17 3.75v7.87s-1.8 2.84-1.8 5.43c0 2.7 1.8 5.44 1.8 5.44v7.65s-2.07 4.65-1.03 8.66c.9 3.75 5.7 6.47 5.7 6.47s-5.05.8-7.25 3.23-1.65 6.5-1.65 6.5-10.1 1.8-10.1 13.1c0 11.24 14 10.2 14 10.2s-1.68 9.58-9.3 9.97c-5.6.26-10.77-5.56-10.77-5.56s2.6-16.03-10.63-16.03c-15.93 0-9.07 17.1-9.07 17.1s-5.44 9.7-10.88 9.82c-4.93.12-10.24-5.96-10.24-5.96s11.13-3.34 11.13-12.14c0-13.7-12.3-13.2-12.3-13.2s-1.04-2.46-2.73-4c-1.7-1.57-3.9-2.2-3.9-2.2s3.38-29 23.46-44.77c15.3-12.45 33.18-14.4 40.8-14.5zm-84.2 11.14c1.17-.13 2.46.13 3.5.8 2.98 1.7 3.88 5.43 2.2 8.4-1.7 2.98-5.44 4-8.42 2.34-2.98-1.7-3.9-5.42-2.2-8.4 1.16-1.93 2.98-3 4.92-3.1zm193.5 0c1.17-.13 2.47.13 3.5.8 2.98 1.7 3.9 5.43 2.2 8.4-1.7 2.98-5.43 4-8.4 2.34-3-1.7-3.9-5.42-2.2-8.4 1.15-1.93 2.97-3 4.9-3.1zm-176.56 1.6c1.16-.15 2.33.1 3.5.75 2.97 1.7 3.9 5.43 2.2 8.3-1.7 3-5.44 4-8.4 2.32-3-1.68-3.9-5.43-2.2-8.4 1.14-1.82 2.95-2.86 4.9-2.98zm159.18 0c1.2-.15 2.35.1 3.5.75 3 1.7 4 5.43 2.35 8.3-1.68 3-5.44 4-8.4 2.32-3-1.68-3.9-5.43-2.2-8.4 1.02-1.82 2.83-2.86 4.8-2.98zM194.7 118c1.17-.12 2.33.14 3.5.8 3 1.7 4.02 5.43 2.33 8.4-1.7 3-5.44 3.9-8.42 2.2-2.93-1.68-4-5.43-2.3-8.4 1.06-1.8 3-2.85 4.9-2.98zm-113 3.8c1.16-.13 2.46.13 3.5.78 2.97 1.7 3.88 5.47 2.2 8.45-1.7 2.97-5.44 4-8.42 2.32s-3.9-5.43-2.2-8.4c1.16-1.95 2.98-2.98 4.92-3.1zm226.15 0c1.2-.13 2.5.13 3.5.78 3 1.7 3.9 5.47 2.2 8.45-1.65 2.97-5.4 4-8.4 2.32s-3.9-5.43-2.2-8.4c1.18-1.95 3-2.98 4.9-3.1zm-201.28 11.4c1.16-.1 2.33.14 3.5.8 2.97 1.67 3.88 5.42 2.2 8.4-1.7 2.97-5.44 4-8.42 2.33-2.97-1.68-3.88-5.44-2.2-8.4 1.04-1.95 2.98-3 4.93-3.12zm175.76 0c1.17-.1 2.33.14 3.5.8 2.98 1.67 3.88 5.42 2.2 8.4-1.7 2.97-5.44 4-8.42 2.33-2.92-1.68-3.82-5.44-2.2-8.4 1.1-1.95 3-3 4.98-3.12zm-216.82.4c1.2-.13 2.5.13 3.5.78 3 1.68 3.9 5.43 2.2 8.28-1.7 2.97-5.4 4-8.4 2.33-3-1.7-3.9-5.5-2.2-8.5 1.2-1.8 3-2.86 4.9-3zm258.2 0c1.2-.13 2.48.13 3.5.78 3 1.68 3.9 5.43 2.2 8.28-1.67 2.97-5.42 4-8.4 2.33s-3.9-5.5-2.2-8.5c1.16-1.8 2.98-2.86 4.9-3zm-129 3.37c1.18-.13 2.34.13 3.5.77 3 1.68 4.03 5.44 2.34 8.28-1.7 2.98-5.44 4-8.42 2.33-2.96-1.68-4-5.43-2.3-8.4 1.03-1.82 2.97-2.85 4.9-2.98zm-98.8 1.3s0 3.35 1 5.55 3 3.62 3 3.62-8.7 5.18-8.7 10.48c0 7.64 7.54 11 7.54 11v5.56s-9.2 4-6.35 14.75c3.75 14.23 16.57 8.4 16.57 8.4s-.65 9.58-8.94 11.78c-7.24 2-10.6-6.8-10.74-6.8 0 0-6.6-11.6-15.8-6.3-11.67 6.7-2.2 17.08-2.2 17.08s-1.96 7.5-6.1 10.1c-4.15 2.6-9.33.4-9.33.4s5.7-3.9 5.7-11.27c0-5.83-6.06-11.9-6.06-11.9s-1.5-20.5 8.6-36.12c10.2-15.58 31.7-26.3 31.7-26.3zm198.4 0s21.5 10.73 31.6 26.38c10.1 15.65 8.7 36.1 8.7 36.1s-6.6 6.07-6.6 11.9c0 7.37 6.2 11.25 6.2 11.25s-5.06 2.2-9.33-.4c-4.15-2.58-6.1-10.08-6.1-10.08s9.46-10.35-2.2-17.08c-9.2-5.3-15.8 6.34-15.8 6.34s-3.36 8.93-10.62 6.86c-8.3-2.2-8.93-11.77-8.93-11.77s12.8 5.82 16.6-8.4c2.83-10.75-6.36-14.76-6.36-14.76v-5.5s7.5-3.32 7.5-11c0-5.3-8.67-10.5-8.67-10.5s2.06-2.2 3.1-4.4.9-4.9.9-4.9zm-241.1 9.17c1.2-.12 2.48.13 3.5.78 3 1.68 3.9 5.43 2.2 8.4-1.66 3-5.42 3.9-8.4 2.2s-3.9-5.42-2.2-8.4c1.17-1.8 2.98-2.85 4.9-2.98zm283 0c1.2-.12 2.36.13 3.5.78 3 1.68 3.9 5.43 2.2 8.4-1.65 3-5.4 3.9-8.4 2.2s-3.9-5.42-2.2-8.4c1.05-1.8 3-2.85 4.9-2.98zm-233.9 4.8c1.18-.14 2.34.12 3.5.77 3 1.7 3.9 5.5 2.2 8.5-1.7 2.98-5.43 3.9-8.4 2.2-3-1.7-3.9-5.43-2.2-8.3 1.16-1.8 2.97-3 4.9-3.1zm184.97 0c1.18-.14 2.34.12 3.5.77 3 1.7 4.03 5.5 2.34 8.5-1.7 2.98-5.5 3.9-8.47 2.2-2.98-1.7-4-5.43-2.33-8.3 1.15-1.8 2.96-3 4.9-3.1zm-93 8.14c1.96-.13 4.03.26 5.97 1.42 4.92 2.85 6.74 9.2 3.76 14.23-2.86 4.92-9.2 6.73-14.26 3.76-4.9-2.9-6.72-9.2-3.74-14.3 1.8-3.27 5-5.08 8.22-5.2zm-148.8 4.14c1.16-.13 2.45.13 3.5.78 2.97 1.68 3.87 5.43 2.2 8.4-1.7 2.98-5.45 4.02-8.43 2.33-2.98-1.68-3.88-5.43-2.2-8.4 1.04-1.82 2.98-2.98 4.92-3.1zm298.93 0c1.16-.13 2.32.13 3.5.78 2.97 1.68 3.9 5.43 2.2 8.4-1.7 2.98-5.45 4.02-8.3 2.33-2.98-1.68-4-5.43-2.33-8.4 1.18-1.82 3-2.98 4.93-3.1zm-231.85 5.43c1.93-.13 4 .26 5.94 1.43 4.9 2.84 6.72 9.3 3.9 14.23-2.88 5-9.36 6.8-14.28 3.8s-6.73-9.3-3.75-14.2c1.68-3.1 4.8-4.9 8.16-5.2zm163.57 0c2-.13 4 .26 6 1.43 4.9 2.84 6.75 9.3 3.77 14.23-2.87 5-9.2 6.8-14.27 3.8s-6.73-9.3-3.76-14.2c1.8-3.1 4.93-4.9 8.3-5.2zM40.78 183.28c1.16-.13 2.46.13 3.5.78 2.98 1.68 3.88 5.43 2.2 8.4-1.7 2.98-5.44 3.88-8.42 2.2-2.95-1.68-3.86-5.43-2.2-8.4 1.2-1.82 3-2.85 4.95-2.98zm307.62 0c1.15-.13 2.32.13 3.5.78 2.96 1.68 3.87 5.43 2.2 8.4-1.7 2.98-5.45 3.88-8.43 2.2-2.98-1.68-3.9-5.43-2.2-8.4 1.03-1.82 2.85-2.85 4.92-2.98zm-153.63 3.62s1.17 4.4 3.9 8.15c2.7 3.75 6.98 6.86 6.98 6.86H183.8s3.62-3.1 6.34-6.8c2.7-3.7 4.66-8.1 4.66-8.1zm-35.1 8.93s1.56 1.8 3.9 3.5c2.32 1.67 5.17 2.97 5.17 2.97l-23.96 2.7s2.85-1.93 5.57-4.4c2.2-1.93 2.6-4.26 2.6-4.26l6.75-.5zm69.94 0l6.6.5s.4 2.47 2.6 4.28c2.7 2.5 5.6 4.4 5.6 4.4l-23.97-2.7s2.85-1.4 5.3-2.9c2.47-1.7 3.9-3.5 3.9-3.5zm-112.14 1.03s2.36 4 6 6.86c3.6 2.84 8.53 4.8 8.53 4.8l-21.24 5.68s2.6-3.88 4.26-8.28c1.67-4.27 2.45-9.06 2.45-9.06zm154.68 0s.8 4.8 2.48 9.06c1.7 4.27 4.28 8.28 4.28 8.28l-21.1-5.7s4.9-1.8 8.54-4.78c3.5-2.85 5.83-6.86 5.83-6.86zm-229.3 7.38c1.7 0 3.4.5 4.94 1.42 4.93 2.85 6.74 9.18 3.76 14.23-2.86 4.9-9.2 6.7-14.26 3.7-4.92-2.9-6.73-9.2-3.75-14.28 2.06-3.36 5.7-5.3 9.3-5.17zm304.9 0c1.7 0 3.4.5 4.94 1.42 4.92 2.85 6.74 9.18 3.76 14.23-2.86 4.9-9.34 6.7-14.26 3.7s-6.73-9.2-3.75-14.28c1.93-3.36 5.55-5.3 9.3-5.17zm-261.1 9.83s1.94 1.42 4.66 2.46c2.7 1.03 5.82 1.68 5.82 1.68l-22.54 8.3s2.2-2.6 4.28-5.5c1.7-2.44 1.6-4.8 1.6-4.8l6.2-2.05zm216.8 0l6.37 2.07s-.13 2.46 1.55 4.78c2.1 2.98 4.4 5.57 4.4 5.57l-22.52-8.3s3.1-.7 5.83-1.7c2.6-1.1 4.4-2.5 4.4-2.5zm-143.75 11c3.5 0 6.34 2.84 6.34 6.33s-2.86 6.34-6.36 6.34-6.34-2.84-6.34-6.34 2.8-6.34 6.3-6.34zm68.4 0c3.5 0 6.33 2.84 6.33 6.33s-2.85 6.34-6.35 6.34-6.35-2.84-6.35-6.34c-.14-3.5 2.84-6.34 6.34-6.34zm-133.7 18.1c3.5 0 6.34 2.85 6.34 6.34s-2.84 6.4-6.34 6.4-6.34-2.8-6.34-6.3 2.77-6.33 6.4-6.33zm199.6 0c3.5 0 6.34 2.85 6.34 6.34s-2.84 6.4-6.34 6.4-6.35-2.8-6.35-6.3 2.73-6.33 6.36-6.33z"/><g id="g18995"><g id="g18983"><path id="rect13628" class="st3" d="M195.12 222.37l19.42 7.37-19.42 7.5-19.43-7.5z"/><path id="rect13630" class="st4" d="M264.67 231.17l16.97 12.16-20.73 2.2-16.9-12.3z"/><path id="rect13632" class="st4" d="M125.3 231.17l-16.84 12.16 20.73 2.2 16.8-12.3z"/></g><path id="rect18089" class="st5" d="M79.45 253.34l-4.92 4.92 4.92 4.92 4.92-4.92-4.92-4.92zm231.07 0l-4.92 4.92 4.92 4.92 4.92-4.92-4.92-4.92z"/></g><path id="path19046" class="st6" d="M73.9 244.73c58.27-33.77 174.7-39.2 242.46 0"/><g id="g21727"><path id="path20831" class="st7" d="M195 249.55c-136.9 0-248.03 111-248.03 247.73S58.1 745.02 195 745.02c136.92 0 248.05-111 248.05-247.74S331.92 249.55 195 249.55zm0 32.08c119.17 0 215.93 96.64 215.93 215.65S314.17 712.94 195 712.94-20.9 616.3-20.9 497.28 75.85 281.63 195 281.63z"/><g id="g21723"><path id="path20836" class="st8" d="M22.35 429.76l254.2 258.53s35.02-17.4 58.57-38.1c23.55-20.7 34.5-45.4 34.5-45.4L95.2 328.4 22.35 429.7z"/><path id="path1945" class="st9" d="M296.9 320.1l-48.53 48.47c-13.13-5-26.65-7.97-40.16-9-1.5-.13-3-.26-4.6-.26-21.2-.9-42.3 3.1-61.6 11.5l-50-49.9c-29.85 17.36-55.85 42.4-74.4 74.57-44.13 76.5-33.32 169.7 20.35 233.7l27.8-28.27C.1 539.4 16.3 425.64 89.05 363.57l23.4 24.53C101 397 90.7 407.7 82.2 420.3 40.24 482.78 58.13 566.85 121.97 608c12.1 7.83 25.1 13.5 38.36 17.22v37h28.44v-32.14c43.25 2.83 86.63-14.14 115.6-48.2l-23.18-25.6c-22.2 28.8-57.6 43.08-92.5 40v-27.9h40.7v-24.7h-40.7V519h40.66v-20.83h-69.1v91.4c-6.7-2.57-13.24-5.78-19.55-9.9-48-30.97-61.4-94.1-29.85-141.02 6.92-10.28 15.42-19.02 25.1-25.97l57.5 60.17 60.9-63.64.8.4c13.9 8.9 24.83 20.6 32.68 33.7l26.1-22.8c-9.26-13.84-21.23-26.2-35.77-36.2l20.1-20.96c72.77 62.1 89 175.74 23.47 237.2l29.48 29.43c7.87-9.25 14.95-19.28 21.26-30.08 56.54-97.9 22.94-223.1-75-279.65-.13.1-.4 0-.5-.14zM198.7 393c2.3 0 4.5.12 6.8.25 5.28.4 10.56 1.16 15.7 2.32l-27.28 27.25-25.74-25.7c9.9-2.84 20.2-4.25 30.5-4.12z"/></g></g></g></g></g></g></g></svg>