<svg xmlns="http://www.w3.org/2000/svg" width="550.81" height="770.61" viewBox="-87 93.786 550.808 770.614"><path fill="#FFF" d="M450.97 589.04c0 145.02-117.4 262.65-262.46 262.77-145 0-262.7-117.3-262.7-262.5v-.1c0-145 117.4-262.6 262.5-262.72 145.2 0 262.7 117.5 262.7 262.65 0-.13 0 0 0 0z"/><path fill="#FFF" d="M183.35 95.3v8.55h-8.68v8.67h8.68v9.93s-3.27-.38-5.4.88c-2.15 1.25-3.28 4.27-3.28 4.27s-5.16-1.88-8.8-.38c-3.66 1.4-6.17 6.03-6.17 6.03s-5.04-4.64-10.32-3.5c-6.3 1.37-10.07 9.4-10.07 9.4s-5.2-3.5-10.3-1.25c-7.5 3.27-8.3 12.44-8.3 12.44s-11.2-1.38-14.8 1.26c-3.6 2.64-2.9 14.2-2.9 14.2s-4-.75-6.8.13c-2.9.88-5 3.4-5 3.4s-2.5-5.4-9.92-5.4c-7.55 0-11.45 8.53-11.45 8.53s-10.57-2.13-14.1 0c-3.64 2.14-4.15 10.56-4.15 10.56s-9.96-1.76-13.98 2.26c-4.04 4.02-2.03 13.95-2.03 13.95s-10.55-1-12.57 3c-2.26 4.54-.75 15.85-.75 15.85s-8.17.75-9.8 7.03c-1.4 5.3 3.4 14 3.4 14s-7.18 3.2-8.8 7.3c-1.78 4.3 2 9.7 2 9.7l-3.28 17.2s-4.04 7.07 3.13 17c7.05 9.68 18.12 3.27 18.12 3.27s3.63 2.9 8.4 3.5c4.65.77 10.57-.6 10.57-.6s-1.4 4.9.35 7.65c1.9 2.9 7.45 3.9 7.45 3.9l2.4 5.65-1.53 6.8 7.04 6 2.4 9.8s51.3-28.8 123.9-28.8c67.6 0 123.97 28.66 123.97 28.66l2.52-9.56 6.9-6.04-1.4-6.8 2.4-5.7s5.4-1 7.4-3.9c2.08-2.87.4-7.65.4-7.65s5.8 1.25 10.7.62c4.7-.76 8.47-3.53 8.47-3.53s11.08 6.4 18.13-3.27c7.16-9.8 3.13-16.96 3.13-16.96l-3.27-17.2s3.65-5.4 2.02-9.67c-1.78-4.28-8.8-7.3-8.8-7.3s4.9-8.66 3.4-13.94c-1.8-6.28-9.84-7.04-9.84-7.04s1.5-11.2-.74-15.85c-2.02-4.14-12.6-3-12.6-3s2.03-9.8-2-13.93c-4.03-4.17-13.96-2.3-13.96-2.3s-.64-8.4-4.17-10.54c-3.53-2.15-14.1 0-14.1 0s-3.9-8.56-11.45-8.56c-7.43 0-9.95 5.4-9.95 5.4s-2-2.5-5-3.4c-3-.88-6.78-.1-6.78-.1s.74-11.58-2.9-14.2c-3.5-2.8-14.86-1.28-14.86-1.28s-.76-8.92-8.3-12.44c-4.9-2.14-10.33 1.26-10.33 1.26s-3.9-8.18-10.05-9.44c-5.4-1.13-10.34 3.52-10.34 3.52s-2.4-4.52-6.16-6.03c-3.63-1.4-8.8.4-8.8.4s-1.13-3-3.27-4.3c-2.14-1.27-5.4-.9-5.4-.9v-9.9h8.67v-8.67h-8.54V95.4l-9.7-.13z"/><path fill="#E1233B" stroke="#196496" stroke-width="3.9" d="M164.67 191.27c-5.8 0-12.1.63-18.2 1.9C122 198.6 99.52 215.9 99.52 215.9s-1.15.15-1.77.15c.4.87.75 1.87.75 2.88 0 3.54-2.9 6.57-6.56 6.57s-6.57-2.92-6.57-6.6c0-.25 0-.74.13-1-6.57 1.27-14.4 3.15-21.97 6.18-17.3 6.83-32.6 19.45-32.6 19.45l14.9 35.75-8.7 13.26 28.16 8.7S128 270.3 194.6 270.7c66.53.24 136.9 31.55 136.9 31.55l7.7-9.72 15.25 1.52-6.7-16.93 9.1-24.62-4.93-11.87s-8.2-9.98-22.7-16.16c-8.46-3.53-19.2-5.8-26.66-7.33.12.65.25 1.26.25 2.03 0 3.54-3 6.56-6.52 6.56-3.53 0-6.56-3.04-6.56-6.57 0-1.9.75-3.54 2.03-4.68-5.05-4.03-21.95-16.8-42.04-21.35-24-5.42-52.4 2.54-52.4 2.54s-14.9-4.42-32.6-4.42zm28.55 4.16c3.55 0 6.58 3.03 6.58 6.57 0 3.53-2.9 6.56-6.56 6.56-3.64 0-6.56-2.9-6.56-6.56 0-3.64 3.03-6.57 6.57-6.57zm.52 25c7.07 0 12.74 5.7 12.74 12.78S200.8 246 193.74 246c-7.07 0-12.76-5.67-12.76-12.74s5.7-12.73 12.76-12.73zm90.3 10.5c7.06 0 12.73 5.7 12.73 12.74 0 7.1-5.67 12.77-12.74 12.77s-12.74-5.7-12.74-12.77 5.6-12.74 12.7-12.74zm-180.58.13c7.06 0 12.74 5.7 12.74 12.74s-5.68 12.77-12.74 12.77c-7.1 0-12.77-5.7-12.77-12.77s5.8-12.74 12.7-12.74z"/><path fill="#FABC01" stroke="#196496" stroke-width="3.25" d="M188.55 97.06v8.6h-8.72v8.7h8.72v9.98s-3.3-.38-5.43.88c-2.15 1.26-3.3 4.3-3.3 4.3s-5.16-1.9-8.83-.38c-3.7 1.4-6.2 6.06-6.2 6.06s-5.1-4.67-10.4-3.54c-6.3 1.4-10.1 9.47-10.1 9.47s-5.3-3.53-10.4-1.26c-7.58 3.28-8.34 12.5-8.34 12.5s-11.24-1.4-14.9 1.27c-3.67 2.65-2.9 14.27-2.9 14.27s-4.05-.7-6.83.2c-3.03.9-5.05 3.4-5.05 3.4s-2.53-5.4-9.98-5.4c-7.6 0-11.5 8.6-11.5 8.6s-10.6-2.15-14.15 0c-3.64 2.14-4.15 10.6-4.15 10.6s-9.98-1.76-14 2.28c-4.07 4.05-2.04 14.03-2.04 14.03s-10.6-1-12.6 3.03c-2.3 4.54-.78 15.9-.78 15.9s-8.2.77-9.84 6.95c-1.4 5.3 3.4 14.03 3.4 14.03s-7.2 3.17-8.85 7.33c-1.78 4.15 2 9.7 2 9.7l-3.27 17.3s-4.06 7.1 3.14 17.07c7.07 9.7 18.18 3.26 18.18 3.26s3.66 2.9 8.46 3.55c4.67.77 10.6-.6 10.6-.6s-1.4 4.9.4 7.7c2 2.9 7.44 3.9 7.44 3.9l2.4 5.7-1.5 6.8 7.06 6.06 2.4 9.85s51.55-28.92 124.4-28.92c67.8 0 124.4 28.8 124.4 28.8l2.53-9.6 6.94-6.07-1.4-6.8 2.4-5.64s5.42-1 7.44-3.9c2.05-2.92.4-7.72.4-7.72s5.8 1.28 10.76.65c4.66-.75 8.45-3.53 8.45-3.53s11.1 6.46 18.2-3.27c7.2-9.86 3.16-17.05 3.16-17.05l-3.3-17.3s3.67-5.44 2.02-9.73c-1.77-4.3-8.84-7.34-8.84-7.34s4.9-8.74 3.4-14.04c-1.77-6.3-9.86-6.94-9.86-6.94s1.5-11.24-.77-15.9c-2-4.18-12.62-3.05-12.62-3.05s2.03-9.85-2-14c-4.04-4.18-14-2.3-14-2.3s-.65-8.45-4.2-10.6c-3.52-2.14-14.13 0-14.13 0s-3.9-8.58-11.5-8.58c-7.45 0-9.98 5.4-9.98 5.4s-2-2.53-5.04-3.4c-3.03-.9-6.8-.14-6.8-.14s.74-11.62-2.9-14.27c-3.56-2.8-14.9-1.27-14.9-1.27s-.78-8.98-8.36-12.5c-4.9-2.16-10.33 1.25-10.33 1.25s-3.9-8.2-10.1-9.46c-5.42-1.15-10.34 3.52-10.34 3.52s-2.4-4.54-6.2-6.06c-3.66-1.4-8.84.4-8.84.4s-1.15-3.03-3.3-4.3c-2.14-1.26-5.43-.9-5.43-.9v-9.95h8.74v-8.73h-8.6v-8.6l-9.7-.1zm-14.27 38.77c1.26-.13 2.77.12 3.9.88 3.3 1.9 4.3 6.1 2.4 9.1-1.88 3.3-6.05 4.5-9.33 2.6s-4.3-6.04-2.4-9.32c1.26-1.9 3.28-3.03 5.43-3.16zm37.25 0c1.26-.13 2.53.12 3.9.88 3.3 1.9 4.43 6.1 2.54 9.1-1.9 3.3-6.06 4.5-9.34 2.6s-4.42-6.04-2.53-9.32c1.4-1.9 3.28-3.03 5.43-3.16zm-55.82 2.52c1.3-.12 2.6.13 4 .9 3.3 1.88 4.4 6.05 2.5 9.33-1.9 3.3-6.03 4.3-9.3 2.4-3.28-1.9-4.4-6.06-2.53-9.1 1.15-2.14 3.3-3.27 5.44-3.53zm74.8 0c1.3-.12 2.8.13 3.9.9 3.3 1.88 4.3 6.05 2.4 9.33-1.9 3.3-6 4.3-9.3 2.4-3.3-1.9-4.3-6.06-2.4-9.1 1.28-2.14 3.3-3.27 5.45-3.53zm-93.9 6.95c1.27-.13 2.5.13 3.9.88 3.3 1.9 4.3 6.07 2.4 9.35-1.9 3.28-6.04 4.3-9.1 2.4-3.3-1.9-4.4-6.06-2.5-9.35 1.14-1.9 3.16-3.03 5.3-3.28zm112.65 0c1.27-.13 2.53.13 3.9.88 3.3 1.9 4.3 6.07 2.4 9.35-1.9 3.28-6.06 4.3-9.34 2.4-3.3-1.9-4.3-6.06-2.4-9.35 1.26-1.9 3.3-3.03 5.43-3.28zm-56.07 7.83c1.27-.13 2.53.13 3.9.88 3.3 1.9 4.44 6.1 2.54 9.4-1.9 3.3-6.06 4.3-9.34 2.4-3.3-1.9-4.44-6-2.55-9.1 1.15-2.22 3.3-3.4 5.44-3.5zm-74.25 3.9c1.27-.1 2.53.14 3.9.9 3.3 1.9 4.3 6.06 2.4 9.34-1.87 3.3-6.04 4.3-9.07 2.4-3.3-1.9-4.44-6.06-2.55-9.34 1-1.9 3.04-3.03 5.3-3.3zm148 0c1.27-.1 2.54.14 3.93.9 3.26 1.9 4.4 6.06 2.5 9.34-1.9 3.3-6.07 4.3-9.35 2.4-3.3-1.9-4.4-6.06-2.52-9.34 1.28-1.9 3.3-3.03 5.45-3.3zm-61.74 1.9c5.4-.12 28.64.64 47.83 15.8 22.22 17.42 25.9 49.5 25.9 49.5s-2.4.75-4.3 2.4c-1.9 1.76-3.05 4.42-3.05 4.42s-13.63-.64-13.63 14.64c0 9.7 12.23 13.3 12.23 13.3s-5.8 6.56-11.23 6.56c-5.83-.13-12-10.86-12-10.86s7.7-18.95-10-18.95c-14.65 0-11.74 17.7-11.74 17.7s-5.7 6.4-11.86 6.2c-8.6-.4-10.4-11-10.4-11s15.4 1.1 15.4-11.27-11.1-14.4-11.1-14.4.66-4.4-1.9-7.2-7.92-3.53-7.92-3.53 5.3-2.9 6.3-7.2c1.15-4.3-1.13-9.6-1.13-9.6V187s2-3.02 2-6.05-2.02-6.05-2.02-6.05v-8.7c0-.14 1-3.04 1.27-4.18.26-1.27 0-3.54 0-3.54s.64.4 1.27.4zm-26.04.13h4.02s-.24 2.28 0 3.54c.27 1 1.15 4.04 1.28 4.17v8.7s-2 3.17-2 6.07c0 3.03 2 6.07 2 6.07v8.5s-2.26 5.2-1.13 9.6c1 4.2 6.3 7.2 6.3 7.2s-5.6.9-8 3.6c-2.4 2.8-1.9 7.2-1.9 7.2s-11.1 2.02-11.1 14.4c0 12.5 15.4 11.23 15.4 11.23s-1.9 10.6-10.34 11c-6.2.24-11.9-6.2-11.9-6.2s2.9-17.7-11.74-17.7c-17.55 0-9.98 18.95-9.98 18.95s-6.06 10.73-12 10.85c-5.42.1-11.23-6.58-11.23-6.58s12.28-3.7 12.28-13.4c0-15.15-13.64-14.65-13.64-14.65s-1.15-2.8-3.04-4.43c-1.9-1.77-4.3-2.4-4.3-2.4s3.66-32.08 25.9-49.5c16.9-13.9 36.6-16.04 45.08-16.17zM86.2 171.44c1.25-.13 2.77.13 3.9.88 3.3 1.9 4.3 6.07 2.4 9.35s-6.06 4.42-9.34 2.53c-3.3-1.9-4.3-6.07-2.4-9.35 1.25-2.15 3.27-3.28 5.4-3.4zm213.66 0c1.25-.13 2.77.13 3.9.88 3.3 1.9 4.3 6.07 2.4 9.35-1.9 3.28-6.06 4.42-9.34 2.53-3.3-1.9-4.3-6.07-2.4-9.35 1.26-2.15 3.28-3.28 5.43-3.4zm-195 1.64c1.27-.12 2.54.13 3.93.9 3.27 1.88 4.3 6.05 2.4 9.08-1.9 3.28-6.08 4.42-9.36 2.52s-4.3-6.06-2.4-9.34c1.4-1.9 3.28-3.03 5.43-3.16zm175.9 0c1.28-.12 2.55.13 3.94.9 3.27 1.88 4.4 6.05 2.5 9.08-1.9 3.28-6.06 4.42-9.34 2.52s-4.3-6.06-2.4-9.34c1.14-1.9 3.17-3.03 5.3-3.16zm-87.62 1.52c1.27-.13 2.53.12 3.9.88 3.3 1.9 4.44 6.06 2.54 9.35-1.9 3.28-6.02 4.3-9.3 2.4-3.3-1.9-4.43-6.07-2.54-9.35 1.13-2.02 3.3-3.16 5.42-3.28zM68.5 178.64c1.25-.13 2.77.12 3.9.88 3.3 1.9 4.3 6.06 2.4 9.35-1.9 3.28-6.06 4.42-9.34 2.52-3.3-1.9-4.3-6.1-2.4-9.4 1.25-2 3.27-3.2 5.42-3.4zm249.65 0c1.25-.13 2.8.12 3.9.88 3.3 1.9 4.3 6.06 2.4 9.35-1.9 3.28-6.07 4.42-9.35 2.52-3.28-1.9-4.3-6.1-2.4-9.4 1.26-2 3.3-3.2 5.43-3.4zm-222.3 12.63c1.28-.13 2.54.12 3.93.88 3.28 1.9 4.3 6.06 2.4 9.35-1.9 3.28-6.06 4.42-9.35 2.52-3.28-1.9-4.3-6.06-2.4-9.34 1.14-2.15 3.3-3.3 5.43-3.4zm194.1 0c1.27-.13 2.54.12 3.93.88 3.28 1.9 4.3 6.06 2.4 9.35-1.9 3.28-6.07 4.42-9.35 2.52-3.28-1.9-4.3-6.06-2.4-9.34 1.14-2.15 3.3-3.3 5.43-3.4zm-239.42.5c1.26-.12 2.8.13 3.9.9 3.3 1.88 4.3 6.05 2.4 9.08-1.88 3.28-6.05 4.42-9.33 2.52-3.3-1.9-4.3-6.06-2.4-9.34 1.23-1.9 3.25-3.03 5.4-3.16zm285.14 0c1.27-.12 2.78.13 3.92.9 3.25 1.88 4.3 6.05 2.4 9.08-1.9 3.28-6.1 4.42-9.38 2.52-3.26-1.9-4.3-6.06-2.4-9.34 1.3-1.9 3.3-3.03 5.45-3.16zm-142.57 3.66c1.24-.12 2.5.13 3.9.9 3.3 1.88 4.4 6.05 2.5 9.08-1.9 3.3-6.05 4.5-9.33 2.6-3.3-1.9-4.44-6.04-2.55-9.32 1.12-1.9 3.3-3.03 5.4-3.16zm-109.14 1.4s0 3.66 1.14 6.18c1.15 2.6 3.3 4.1 3.3 4.1s-9.6 5.7-9.6 11.6c0 8.5 8.33 12.1 8.33 12.1v6.2s-10.1 4.4-7.05 16.3c4.16 15.8 18.3 9.4 18.3 9.4s-.75 10.6-9.84 13c-7.93 2.14-11.7-7.58-11.84-7.58 0 0-7.32-12.9-17.43-7.1-12.87 7.46-2.4 18.96-2.4 18.96s-2.13 8.33-6.7 11.1c-4.53 2.9-10.33.4-10.33.4s6.3-4.3 6.3-12.52c0-6.42-6.7-13.1-6.7-13.1s-1.5-22.6 9.6-39.9C60.26 208.74 84 196.88 84 196.88zm219.1 0s23.77 11.87 34.9 29.17c11.1 17.3 9.6 39.9 9.6 39.9s-7.34 6.7-7.34 13.1c0 8.2 6.8 12.5 6.8 12.5s-5.56 2.4-10.36-.38c-4.57-2.9-6.7-11.1-6.7-11.1s10.46-11.5-2.4-18.95c-10.1-5.8-17.44 7.06-17.44 7.06s-3.66 9.85-11.74 7.58c-9.08-2.4-9.84-13-9.84-13s14.15 6.5 18.3-9.3c3.17-11.9-7.06-16.3-7.06-16.3v-6.2s8.34-3.63 8.34-12.1c0-5.82-9.6-11.62-9.6-11.62s2.3-2.4 3.43-4.93c1.4-2.4 1.13-5.43 1.13-5.43zm-266.2 10.22c1.26-.12 2.78.13 3.92.9 3.27 1.88 4.3 6.05 2.4 9.33-1.9 3.28-6.08 4.3-9.36 2.4-3.3-1.9-4.3-6.06-2.4-9.34 1.4-2.02 3.26-3.16 5.4-3.3zm312.55 0c1.27-.12 2.54.13 3.9.9 3.3 1.88 4.3 6.05 2.4 9.33-1.9 3.28-6.04 4.3-9.32 2.4-3.3-1.9-4.3-6.06-2.4-9.34 1.13-2.02 3.27-3.16 5.42-3.3zm-258.24 5.3c1.26-.12 2.53.13 3.92.9 3.27 1.88 4.3 6.05 2.4 9.33-1.9 3.3-6.08 4.3-9.36 2.4-3.26-1.9-4.3-6.06-2.4-9.1 1.28-2.13 3.3-3.4 5.45-3.52zm204.2 0c1.26-.12 2.53.13 3.92.9 3.27 1.88 4.4 6.05 2.5 9.33-1.9 3.3-6.05 4.3-9.33 2.4-3.3-1.9-4.4-6.06-2.5-9.1 1.26-2.13 3.3-3.4 5.43-3.52zm-102.67 8.97c2.15-.12 4.42.25 6.6 1.52 5.4 3.16 7.42 10.1 4.14 15.78-3.16 5.43-10.1 7.45-15.8 4.17-5.42-3.2-7.44-10.1-4.16-15.8 2-3.6 5.67-5.6 9.2-5.7zm-164.4 4.55c1.25-.13 2.76.12 3.9.88 3.3 1.9 4.3 6.06 2.4 9.35-1.9 3.28-6.07 4.42-9.35 2.52-3.26-1.9-4.3-6.06-2.4-9.34 1.16-1.9 3.3-3.28 5.45-3.4zm330.2 0c1.27-.13 2.53.12 3.9.88 3.3 1.9 4.3 6.06 2.4 9.35-1.9 3.28-6.04 4.42-9.1 2.52-3.26-1.9-4.4-6.06-2.5-9.34 1.14-1.9 3.16-3.28 5.3-3.4zm-256.1 6.06c2.15-.13 4.4.25 6.57 1.52 5.4 3.15 7.43 10.35 4.27 15.78-3.15 5.43-10.35 7.45-15.78 4.17-5.44-3.3-7.46-10.36-4.18-15.8 2.02-3.4 5.43-5.42 9.1-5.67zm180.7 0c2.16-.13 4.43.25 6.58 1.52 5.45 3.15 7.47 10.35 4.2 15.78-3.17 5.43-10.1 7.45-15.8 4.17-5.56-3.3-7.45-10.36-4.17-15.8 2.05-3.4 5.46-5.42 9.25-5.67zM23.25 246.58c1.27-.13 2.78.12 3.92.88 3.28 1.9 4.3 6.06 2.4 9.35-1.9 3.3-6.06 4.3-9.35 2.4-3.23-1.9-4.24-6-2.4-9.3 1.3-1.9 3.3-3 5.48-3.3zm339.7 0c1.27-.13 2.53.12 3.92.88 3.28 1.9 4.3 6.06 2.4 9.35-1.9 3.3-6.06 4.3-9.35 2.4-3.23-1.9-4.24-6-2.4-9.3 1.2-1.9 3.2-3 5.48-3.3zm-169.72 4.04s1.26 4.93 4.3 8.97c3.02 4.1 7.7 7.5 7.7 7.5H181.1s4.04-3.4 7.07-7.6c2.9-4.06 5.05-8.98 5.05-8.98zm-38.77 9.85s1.77 2.02 4.3 3.92c2.52 1.8 5.68 3.2 5.68 3.2l-26.52 3s3.2-2.15 6.2-4.92c2.4-2.15 2.9-4.68 2.9-4.68l7.5-.64zm77.28 0l7.33.63s.38 2.78 2.9 4.67c3.03 2.78 6.2 4.93 6.2 4.93l-26.53-3.03s3.16-1.52 5.8-3.3c2.8-1.88 4.3-3.9 4.3-3.9zm-123.88 1.14s2.53 4.5 6.57 7.6c4.04 3.2 9.47 5.3 9.47 5.3l-23.5 6.3s2.9-4.3 4.63-9.1c1.9-4.8 2.78-10.1 2.78-10.1zm170.86 0s.9 5.3 2.8 10 4.7 9.1 4.7 9.1l-23.36-6.3s5.44-2 9.48-5.3c3.8-2.9 6.4-7.4 6.4-7.4zm-253.14 8.2c1.9 0 3.66.7 5.43 1.6 5.42 3.18 7.44 10.1 4.15 15.8-3.14 5.44-10.1 7.47-15.77 4.18-5.43-3.14-7.45-10.1-4.17-15.77 2.2-3.67 6.3-5.8 10.3-5.7zm336.66 0c1.9 0 3.67.7 5.44 1.6 5.43 3.18 7.45 10.1 4.16 15.8-3.17 5.44-10.37 7.47-15.8 4.18-5.43-3.27-7.45-10.1-4.17-15.77 2.27-3.67 6.2-5.8 10.35-5.7zM73.9 280.7s2.15 1.52 5.18 2.78c3.03 1.14 6.44 1.9 6.44 1.9l-24.88 9.1s2.4-2.92 4.68-6.2c1.9-2.78 1.76-5.3 1.76-5.3l6.82-2.28zm239.43 0l7.1 2.28s-.14 2.78 1.75 5.3c2.28 3.28 4.93 6.2 4.93 6.2l-25.1-9.25s3.4-.75 6.5-1.9c2.9-1 4.9-2.65 4.9-2.65zm-158.87 12.1c3.9 0 7.07 3.15 7.07 7.07 0 3.9-3.16 7.07-7.07 7.07-3.92 0-7.07-3.15-7.07-7.07.1-3.92 3.2-7.07 7-7.07zm75.64 0c3.9 0 7.06 3.15 7.06 7.07 0 3.9-3.15 7.07-7.07 7.07s-7.1-3.15-7.1-7.07c-.2-3.92 3.1-7.07 7-7.07zM82.46 312.88c3.9 0 7.07 3.15 7.07 7.07 0 3.9-3.16 7.07-7.07 7.07-3.9 0-7.07-3.16-7.07-7.07 0-3.92 3-7.07 7-7.07zm220.36 0c3.92 0 6.95 3.15 6.95 7.07 0 3.9-3.16 7.07-6.95 7.07-3.9 0-7.07-3.16-7.07-7.07 0-3.92 3.03-7.07 7.07-7.07z"/><path fill="#E1233B" stroke="#173980" stroke-width="1.95" d="M189.2 290.13l21.46 8.1-21.45 8.3-21.4-8.3z"/><path fill="#173980" stroke="#196496" stroke-width="2.6" d="M265.98 299.86l18.82 13.38-22.98 2.4-18.7-13.5zm-153.94 0l-18.56 13.38 22.86 2.4 18.7-13.5z"/><path fill="#E1233B" stroke="#173980" stroke-width="1.95" d="M62.28 324.15l-5.46 5.43 5.46 5.42 5.42-5.4-5.43-5.44zm255.2 0l-5.43 5.43 5.43 5.42 5.46-5.4-5.46-5.44z"/><path fill="none" stroke="#196496" stroke-width="3.87" d="M59.86 314.64c64.4-37.37 192.96-43.3 267.72 0"/><g stroke="#196496"><path fill="#FABC01" stroke-width="6.5" d="M193.76 319.52c-151.16 0-273.9 122.74-273.9 273.9 0 151.16 122.74 273.92 273.9 273.92 151.16 0 273.9-122.76 273.9-273.9 0-151.18-122.74-273.92-273.9-273.92zm0 35.5c131.6 0 238.42 106.8 238.42 238.4 0 131.57-106.83 238.43-238.42 238.43S-44.66 725-44.66 593.43C-44.8 461.96 62.17 355 193.76 355z"/><path fill="#196496" d="M-7.58 525.24l282.5 287.67s38.9-19.3 65.03-42.3c26.13-22.9 38.4-50.5 38.4-50.5l-305-307.5-80.93 112.7z" stroke-width="1.3"/><path fill="#FABC01" stroke-width="7.8" d="M297.52 403.25l-53.92 53.93c-14.65-5.56-29.55-8.84-44.58-9.98-1.77-.13-3.4-.25-5.18-.25-23.62-1-47.1 3.4-68.57 12.75l-55.44-55.44c-33.2 19.33-62.13 47.23-82.7 82.97-49.14 85.12-37 188.8 22.6 260.02l30.93-31.45c-73-68.32-54.93-194.98 25.9-264.05l26 27.28c-12.75 9.84-24.12 21.72-33.6 35.73-46.6 69.58-26.76 163.03 44.2 208.87 13.4 8.72 27.92 15.03 42.7 19.2V784h31.56v-35.87c48.12 3.16 96.23-15.78 128.43-53.67l-25.9-28.4c-24.6 32.06-63.88 47.85-102.65 44.44v-31.06h45.2v-27.4h-45.2v-27.4h45.2V601.4h-76.77v101.64c-7.46-2.9-14.78-6.44-21.73-11C70.6 657.6 55.8 587.38 90.8 535.1c7.7-11.5 17.17-21.22 27.9-28.93l63.9 66.93 67.7-70.84.87.38c15.4 9.85 27.66 22.85 36.37 37.5l29.05-25.25c-10.4-15.5-23.7-29.2-39.8-40.3l22.3-23.4c80.8 69.1 98.9 195.5 26 263.9l32.7 32.7c8.7-10.37 16.53-21.48 23.6-33.48 62.8-108.84 25.53-248.12-83.3-311.14-.26.26-.5.13-.64 0zM188.3 484.33c2.5 0 5.04.12 7.56.25 5.8.38 11.75 1.26 17.43 2.52l-30.4 30.3-28.68-28.65c11.12-3.04 22.6-4.55 34-4.42z"/></g></svg>