<svg id="Layer_1" xmlns="http://www.w3.org/2000/svg" viewBox="-223 290.4 164.7 212.6"><style>.st0{fill:#D35D2C;} .st1{fill:#793022;} .st2{fill:#FFFFFF;}</style><path d="M-60.8 332.1c-4.6-1.2-8.7-2.6-12.4-3.9-26.5-8.8-48.9-21.4-67.4-37.9-20.5 18.3-45.9 31.9-76.3 40.8l-3.5 1c-3.8 22.6-3.4 44.1 1.2 64.3l2.3 9c6.7 22.8 18.8 44 36.5 63.3l7.2 7.6c9.3 9.2 20.1 18 32.6 26.7 12.3-8.6 23.2-17.4 32.6-26.7l7.2-7.6c11.6-12.6 20.8-26 27.6-40.1 5.1-10.4 8.8-21.1 11.1-32.1 4.5-20 5-41.5 1.3-64.4z"/><path class="st0" d="M-215.7 335.4l-.7.3c-3.2 21.6-2.6 41.8 1.8 60.8h147.9c4.4-19 5.1-39.2 1.8-60.8l-9.8-3.1c-25.7-8.6-47.8-20.7-66-36.2-20.5 17.4-45.5 30.4-75 39z"/><path class="st1" d="M-214.6 396.4l1.9 7.8c7 23.7 19.8 45.1 38.4 64.5l7.6 7.6c7.9 7.3 16.6 14.4 26.1 21.2 9.2-6.4 17.9-13.5 26.1-21.2l7.7-7.6c12.7-13.3 22.5-27.3 29.6-42 4.8-9.9 8.3-20 10.6-30.2h-148z"/><path class="st0" d="M-112.4 435.8c1-.7 2.1-1.5 2.9-2.4 2.9-2.9 4.4-6.4 4.4-10.4v-3.9c0-4-1.5-7.5-4.4-10.3-2.9-2.9-6.4-4.4-10.4-4.4h-20.9v17.1h-5.1v-17.1h-14c-5.5 0-10.3 2.1-14.1 6-4 3.9-5.9 8.6-5.9 14.1v20.8h5.7v-9.4h16.8l.9 1.2c1.1 1 2.2 1.7 3.4 2.1l1.5.7v5.4h5.7v-2.7l5.1 2.4v.3h.6l10.6 5.1c.1.2.2.3.3.4.7.7 1.2 1.7 1.2 2.8v.1c0 1.2-.4 2.1-1.2 2.9-.8.8-1.8 1.2-2.9 1.2h-26.6v4.8h26.7c2.5 0 4.6-1 6.4-2.7 1.7-1.8 2.6-3.9 2.6-6.4v-.1c0-2.5-.9-4.6-2.6-6.4-1-1-2.1-1.8-3.4-2.2l-6.1-2.9v-6h14.7l9.4 9.4h8.1l-9.4-9.5zm-41.6-5.4c0-1.2.4-2.2 1.2-3 .4-.3.8-.6 1.2-.8v5.5h-2c-.3-.6-.4-1.2-.4-1.7zm-20.2 1.6v-7.5c0-4 1.4-7.3 4.2-10.2 2.9-2.8 6.2-4.2 10.2-4.2h8.3v11.4c-1.9.3-3.5 1.1-4.9 2.6-1.8 1.7-2.6 3.8-2.6 6.3v.1c0 .5 0 .9.1 1.4h-15.3zm28.3 4.7v-10.5h5.1v13l-5.1-2.5zm29.2-5.2c-1.1.4-2.1.5-3.2.5h-15.2v-5.9h8.6v-4.7h-8.6v-11.3h15.2c2.5 0 4.7.9 6.5 2.6 1.7 1.7 2.6 3.8 2.6 6.3v3.9c0 2.5-.9 4.6-2.6 6.4-1.2 1.2-2.2 1.9-3.3 2.2z"/><path d="M-94.5 393.8c.1-.1.2-.3.4-.4.8-4.9 1.9-8.6 3.4-11.4 1.2-1.6 0-4.8-3.5-9.7-1.2-2.8-2.3-5.3-3.2-7.5-.2-4.9-.9-9.8-2-14.7-1.7-4.5-5-7-10-7.8-.7-.3-1.3-.6-2-.8-2.7-1-5.9-1.2-9.4-.9-9.9.5-20 .6-30.4.1-.8-.3-1.6-.4-2.4-.4-1.2-.1-2.3-.1-3.6 0-3.7.5-7.1.7-10.2.8-3.4 0-6.5-.2-9.2-.8.1-2.5-.7-4.4-2.6-5.9-.1-.1-.2-.1-.4-.2-.1.1-.2.2-.3.4-1.1 1.5-1.7 3.1-1.8 4.9-2.2-.2-4.2-.1-6.1.3-.2-1.9-.7-3.4-1.8-4.4-.7.7-1.4 1.5-2 2.4-.9 1.3-1.5 2.8-1.7 4.3 0 1.2-.1 2.6-.1 3.9-.7.5-1.1 1.1-1.5 1.9 0 .4 0 .9.1 1.3 0 1.4.4 2.7 1.2 3.9.4.1.7.3 1 .8-.1.5-.4.9-.8 1.2.7 1.3 2 1.9 3.7 1.7 1.1-.1 4 .3 9 1.2 4.9 1 9.4 2.4 13.6 4.2 4.2 1.8 5.8 5.7 4.6 11.7-.1 10.1-1.1 15.7-3.2 16.8-1.3.6-2.3 1.6-2.9 3-.5 1-1.2 2-2.2 2.7H-94c.1-.8-.2-1.7-.5-2.6zm-45.8-23.1c-.6.1-1.1.2-1.5.6-.4.4-.9.8-1.2 1.4-.3.5-.4 1.1-.4 1.8 0 .5.1 1 .1 1.5-.6.3-1 .7-1.4 1.2-.2.5-.6 1-1 1.4-.7.2-1 .7-1 1.4 0 .4.1.7.1.9 0 .6.1 1.1.5 1.5.5.6 1 .7 1.5.1.3-.2.4-.5.4-.9.2 0 .4-.1.4-.2.1.3.1.6.1.9v2c-.3 0-.6.1-.9.1-.6.1-1.2.4-1.7 1-.3.3-.5.7-.7 1.2-.2.4-.1 1 .1 1.5.4.5.6.9.8 1.1 1.2 1.1 1.8 2.4 2 4h-2.1c-1.5-.1-3.1-.1-4.7-.2-1.1-.1-2.2-.1-3.3 0-1.8.1-3.1-.1-4-1 0-8.8 1.8-17.1 5.4-24.9 1-.3 1.6.1 2 1.2l1.2 1.7c.4.2 1 .1 1.7-.1l3-4.2c.5-.6 1.2-.5 2.2.2.4 1.4 1.3 2.6 2.9 3.7-.2.4-.4.8-.5 1.1zm9.5 22.3h-4.9c.1-.1.1-.3.1-.6-.1-.6-.2-1.1-.5-1.6.2.1.4.1.7.1.7-.1 1.2-.1 1.9-.1.5 0 1.2.1 1.8.2.2.2.5.4.7.7.4.4.8.8 1.1 1.3h-.9zm7.5-13.6c0 .1-.1.3-.1.5-.2.1-.4.3-.9.4-1.6.3-2.9 1.1-3.8 2.3.3 1.3.7 2.6 1.3 4 .6 1.3.7 2.8.4 4.3-.5-.1-1-.4-1.5-.8-.1-.4-.6-1-1.2-1.5-1.2-1-2.3-1.8-3.5-2.3h-2.9c0-1.7.1-3.4.1-4.9V379c1.5.1 3-.1 4.4-.6 0 0 .1 0 .1-.1.3-.1.5-.3.7-.6-.1-.3-.2-.7-.4-1-.1-.4-.4-.8-.7-1.2-.4-.5-.6-1-.8-1.3-.2-.4-.4-.7-.6-.9-.4-.5-.7-1-1-1.5 0-.4-.1-.7-.3-1.1l-.2-.2c-.5-.2-.8.1-1 .9-.1-.1-.1-.2-.2-.3-.1.1-.1.2-.2.4-.1.4-.2.8-.3 1.3 0 .7.4 1.1 1 1.2v.7c.1.7.2 1.2.7 1.6-.4 0-.9-.1-1.2-.3-.4-.2-.8-.3-1.3-.3v-.7c0-.7 0-1.2.1-1.8.1-.6-.1-1-.4-1.2-.4-.3-.9-.6-1.3-.8-.1-.6-.4-1-.9-1.5 1.4-1.2 2.4-2.7 2.9-4.2.4-1 1-1 2-.3.7 1.5 1.8 2.8 3 3.6.8.1 1.5-.1 2.1-.6 1.1-1.1 1.8-2.6 2.3-4.6 1 1.1 1.9 2.2 3 3.1.5.4.9.5 1.4.6.1-.1.1-.1.3-.1h.2c-.8 1.5-.8 2.9.1 4.2-1.3.7-2.3 1.7-3.1 3.1-.1.3-.4.5-.6.7-.9-.7-1.8-1.5-2.9-2.1.2-1-.1-1.5-1-1.5-.2.2-.3.6-.2 1.1-1.6-.2-2.3.2-2 1.3.9.1 1.5.2 2 .4.7 1.2 1.7 2.1 2.7 2.9l.4.4c.4.3 1 .5 1.5.7.6.1 1.2.2 1.9.1 0-.1 0 .4-.1.9zm1.2 11.7c0-.3-.1-.6-.1-.8-.1-1.5-.2-3-.2-4.5 1.2.4 2.5.4 3.9.1 0 .3 0 .7-.1 1-.2 1.6.1 3.1.5 4.2-1.4-.2-2.7-.2-4 0zm16-3.7c-.1.1-.1.4-.1.6-.1.1-.2.6-.2 1.2-.8-.1-1.5-.1-2.1 0-1.8.4-2.6 1.3-2.9 3-1.1-.1-2.1-.6-2.6-1.3-.2-.6-.3-1.2-.2-1.9.1-1 .1-1.9.1-2.8-.1-1.8-.6-3.1-1.6-4.1 0-.7-.1-1.5-.2-2.1.6-.2 1-.5 1.3-.9l.7-.7c.1-.1.1-.2.1-.4.1-.4.1-.6.1-1 0-.1-.1-.3-.1-.4 0-.4-.1-.6-.2-.9-.1-.3-.2-.5-.3-.8 0-.2-.1-.4-.1-.7-.1-.3-.1-.5-.3-.8-.1-.3-.2-.6-.4-1 0-.3 0-.6.1-1 .1-.2.1-.5.2-.8.1-.2.1-.4.1-.5 4.6 3.7 7.5 7.1 8.6 10.3.3 2.6.3 4.8 0 7zm8.8 2.7h-1.3c-.6 0-1 .1-1.4.4-1 .8-1.5 1.7-1.5 2.8-1.3.3-2.2 0-2.5-.7-.1-.5-.1-.9.1-1.2 1.9-3.1 3.3-7 4.2-11.4-.5-3.1-1.5-5.7-3-7.8 2.8 2.3 4.9 4.9 6.4 8.1.2 1.9-.1 5.3-1 9.8z"/><path class="st2" d="M-178.6 335.4c-.2-.2-.5-.4-.7-.7-.4.7-.8 1.3-1.1 2 .4 1.7.1 2.9-.8 3.7-.7-.1-1.3-.3-2-.4.1.9.7 1.4 1.6 1.5 1.5 1 2.3 2.3 2.1 4-.1.6-.4.9-1 1 .7 1 1 2.2.9 3.8-.1.7-.3 1.4-.7 2.1-.1.4-.3.7-.3 1.1.1 1.2.3 2.4.5 3.6h.8c.1-.1.2-.1.4-.3-.5-.6-.7-1.3-.5-2.1l2 .6c-.2-.4-.3-1-.4-1.5v-1.2c1.2.7 2.5 1.4 3.7 2l-1-2c-.7-1.2-.6-2.2.5-3-.3 1.1-.1 2 .6 2.8.3-.7.4-1.5.1-2.3-.2-1.6-.6-3.1-1.2-4.5.5-.5 1-.9 1.4-1-.1.7 0 1.2 0 1.8.1.7.3 1.3.6 1.9.1 1.8.4 3.3.8 4.5 0-.4.2-.9.7-1.2.7.1 1 .2 1.2.6-.3-.9-.6-1.9-1-2.9.4.3 1 .5 1.5.6 0 1.3.4 2.2 1.5 2.8.1-1-.1-1.8-.7-2.4-.7-.8-.9-1.7-.7-2.6.4.1.7.3 1 .5.1-1.8-.7-2.3-2.3-1.5-.3.2-.6.5-.8.9-.2.1-.2.3-.1.6-.5 1-.7.5-.6-1.3-.6.1-.9-.1-.9-.6 1-.5 1.1-1.2.2-2 0-1.2.3-1.6 1-1.2.1.2.2.6.6 1 .7-.5.5-1.4-.6-2.7-1.6-.1-3.1-.4-4.5-.6-1.5 1-2.2.7-2.3-.8.3-1.6.3-3.2.5-4.6zm4.2 6.9c1 .5.8 1.2-.4 1.8-.4-.4-.5-.7-.5-1.2.1-.6.3-.8.9-.6zm-13.1 2.6c-1.1.3-1.5 1.1-1.2 2.4-1.2.8-1 1.2.4 1.4.7.6.5 1-.4 1.1-.1 0-.3-.1-.4-.1-1.2-1-2.6-1.4-4.2-1.1.8 1.2 1.8 2.2 2.7 3h.1c1.2-.2 2.3-.3 3.4-.1-.7-.3-.9-.8-.8-1.5h.1c.5 0 1 .1 1.3.4v-.1c-.1-.7.1-1.2.6-1.8.1 0 .1.1.1.1.8.5 1.5 1.2 1.9 2 .1 0 .1.1.2.1.6.4 1 .4 1.5-.1v-.1c-.1-1.3-.3-2.6-.6-4 0-.4-.1-.7-.3-1.1-.9-1.3-1.9-2.3-3.1-3-.7.9-1.2 1.7-1.3 2.4.1.1.1.1 0 .1zm-.5-5c-.2-.6-.4-1.3-.9-2.2-.1-.3-.3-.6-.4-.9-1.2 1-2 2.2-2.4 3.6.7-.3 1.7-.4 2.8-.2.3-.1.5-.2.9-.3z"/><path class="st2" d="M-184.3 342.8c1 .9 1.7 1.8 2.4 2.9 0 .1.1.1.1.1.7-2 .1-3-1.9-3h-.6zm17.1-1.4h-1.7c-.7 0-1.4 0-2-.1.4 1.3 1.1 1.5 2.1.6-.2-.1-.2-.3-.1-.5.4 1.5 1.1 1.8 1.9.9 0-.2-.1-.5-.2-.9zm-3.4 3.1c-.7.4-.9.9-.4 1.4 1 .5 1.1 0 .4-1.4zm4.3-1.1c-.6-.1-1 .1-1.4.5.2.4.4.5.4.6.4-.3.7-.7 1-1.1zm-.5-1.4c-.2.3-.1.5.1.7 1.3-.4 1.3-.7-.1-.7z"/><path class="st2" d="M-169.8 343.8c-.1.3.1.4.5.4.2 0 .4-.1.7-.1-.4-1.3-.8-1.4-1.2-.3zm1.2 1.5c-.1.1.1.3.4.6.3.1.4-.1.4-.4v-.2c-.3-1.1-.6-1.1-.8 0zm1.6.6c-.2.3-.4.5-.7.7.4.6.5 1.3.4 2.1-.1.2-.3.4-.4.8 0 .4 0 .8-.1 1.2.7-.1 1.2-.4 1.6-1-.1-1 .1-1.8.4-2.6-.4-.4-.9-.7-1.2-1.2zm4.4-2.3h.5c.1-1.1 0-1.1-.5 0zm-3 .2c.3-.3.6-.7.9-1.1-.9-.5-1.2-.2-.9 1.1zm.2 2.8c.1-.2.4-.3.7-.2-.2-.8-.3-1.4-.1-1.8-1.8.1-2 .8-.6 2 0 .1 0 .1 0 0zm2.3-1.3c.2-.1.3-.2.4-.4.1-.4-.1-.7-.4-.8-.1.4-.1.9 0 1.2zm11.9-3.4c-.7.2-1.2.7-1.7 1.3 2.1.3 2.7-.1 1.7-1.3zm-1.5 3.2c.7.2 1.2.7 1.8 1.3.3-1.4-.3-1.9-1.8-1.3zm15.6-.4c-.1.7-.3 1.2-.5 1.8-.1-.5-.3-1-.6-1.4-.1.2-.3.2-.6.1-.1-.7-.4-1-1-.7.3 1.2.2 2.3-.2 3.1-.1-2-.9-2.9-2.1-2.9.3 1.7 0 2.5-.9 2.5.5 1 1.1 2.1 1.6 3.3.7 1.3 1.1 2.7 1.2 4.1.2 1.7 1.2 2.4 2.8 2.3-.2-.7-.3-1.2-.3-1.9.4.8.8 1.8 1 2.8 1.5.7 3.1 1 4.8.8.1 1.2.4 2.3 1 3.3.5 1.2 1 2.4 1.6 3.6.4-.8.5-1.8.4-2.9.5.3.9.7 1.1 1.2.4-.8.9-1.7 1.5-2.5.3-1.4 1-2.2 2.3-2.5.2-.7.3-1.4.2-2.1.9 1.1 1.4 2.4 1.5 4 .1 1.5.1 3.1.1 4.6 1 1.5 1.8 1.2 2.3-.7.6-1.5.6-3.1 0-4.6-.6-1.5-1.7-2.7-3.2-3.7.1-.4-.2-.7-1-.7-.9.1-1.6.5-2 1.2-.4-.5-1-.9-1.3-1.1-.4.1-.8 0-1.2-.2-1.3-.7-1-1.2.8-1.5.4 0 .4.2.4.7.2-.5.5-.9.9-1.2 1.2-1 1.1-1.6-.5-1.8-.1.8-.5 1-1.2.5.1-.3.3-.5.6-.7 0-.3 0-.7-.1-1-.2-1.5-.8-3-1.7-4.4-.4-1.7-1.3-2.7-2.7-3.1-.2 1.1-.1 2.4.1 3.9-.8-1.3-1.8-2.3-2.8-3.1 0 .8 0 1.5-.1 2.4-.9.3-1.6-.3-2.2-1.5zm-2.1 5.1c-.1-.2-.1-.5-.1-1 .9 1.3 1.2 2.9 1.1 4.5.2.1.3.4.1.7-.2-1.3-.5-2.7-1.1-4.2zm-3.9-1.2c-.4.9-.5 1.8-.4 2.9.2 1.7.6 3.1 1.2 4.2.4-1 .4-2.2.1-3.5-.2-1.2-.5-2.4-.9-3.6zm-1.8 7.1c.5.1.7-.1.7-.5-.4-2-.7-1.8-.7.5zm-9.8-6.6c-.7 1.3-1 2.8-1 4.4.1 1.2-.1 2.2-.9 2.6-.2-1.3-.2-2.6 0-3.8.3-1.6.2-2.9-.2-4-.9 1.3-1.2 2.8-1.1 4.4.1 1.7-.1 3.1-.7 4.3.1 1.3.1 2.7.1 4.2 0 1 .1 2.1.4 3v4.6c-.1 1.1-.3 2.1-.4 2.9-.4.3-.7.9-.6 1.8-.4.1-.7.2-1 .2-.1.9-.1 1.8-.1 2.6-.4 1.6-.4 3.2-.4 4.8.1.1.3.1.4.1h.2c.1-1.6.7-2.9 1.6-4 .3-.3.7-.4 1.1-.4-.1-1.2 0-2.1.6-2.8-.2-1.5 0-2.9.7-4 .4-.7.9-1.6 1.2-2.7.5-1.5.6-3 .2-4.6.4-.4.8-1 1.3-1.5-.1-.9-.3-1.5-.7-1.8.4-.1.7-.4.7-.9-.1-.4-.1-.9 0-1.3.7.1 1.3 0 1.7-.4 0-.7.1-1.6.5-2.6-.6 1-1.3 1.6-2.2 1.7-.1 0-.2 0-.2-.1-.1-.1-.1-.4-.2-.7-.1-.3-.1-.7-.2-1 .4.1.8 0 1.2-.2 1.3-.8 1.5-1.8.5-3.2 0-.6 0-1 .1-1.3.6-1.8.4-3.1-.7-3.7-.7.4-.8 1-.4 2-1.1.6-1.2 1.9-.1 4-.1 1.6-.6 1.8-1.2.4.1-1.1 0-2.1-.2-3zm-1.1 16.3c-.1.9-.1 1.7.1 2.4-.7.8-1.2 1.3-1.7 1.7-.1-1.1.1-2.3.4-3.5 0-.4.1-.7.3-1 .7-1.3 1-1.1.9.4zm-1.4 4.9c.2-.1.3.2.2.9.1 1.2 0 2-.6 2.6-.1-1.3 0-2.5.4-3.5zm11-4.9c.1-1-.1-1.7-1-2.1-1.1.8-1.2 2.1-.4 3.8.6-.5 1.1-1 1.4-1.7zm9-3.2c-1-.1-1.7.1-2.3.8-.1 1.6.1 3.1.4 4.6.5-.1.8-.4.9-1.2 1-1 1.3-2.5 1-4.2zm-2.2 7.9c-.1.1-.1.3-.1.4-.1.6-.3 1.2-.4 1.9.3.4.4 1 .4 1.7-.4.5-.4 1 0 1.5-.1.2 0 .3.4.2.1-.4.5-.7 1-1-.1.4.1.7.4.7.4.1.5-.2.3-.8-.3-.5-.4-1.1-.7-1.6.1-.4.3-.8.6-1.2-.1-.2-.2-.4-.5-.5-.3-.2-.6-.4-.9-.4-.2-.4-.2-.7-.5-.9zm-27.3-17.1c.8-.6.8-1-.1-1.2-.2.3-.2.8.1 1.2zm6.8 35.9c.5-1.2.7-2.9.4-4.9 0-1-.4-1.5-1.2-1.6.4 1.9.2 3.5-.3 4.9-.5 1.5-1.1 2.9-1.8 4.2h2.6v-1c0-.6.1-1.1.3-1.6zm-5 2.8c-.1.7-.2 1.2-.1 1.5.2.3.4.3.4.1.2-.1.4-.2.6-.4.3-1.4 0-1.9-.9-1.2zm61.1 3.8c-1-.4-2.1-.5-3.6-.4-1.2.1-2.5.1-3.7.1 1-.5 2-1.2 3-1.8-1.3-.3-2.6-.4-3.9-.3-.4-.7-1-1-1.5-1-.7-.6-1.5-.8-2.4-.9-.4-.1-.8-.1-1.2.2-.3.3-.7.4-1.5.4-.3.5-.5.8-.9 1-.5.4-1 .7-1.5 1-.4-.4-.5-.9-.5-1.5.1-.4-.1-.5-.5-.4-.1.7-.4.8-.7.3-.2-.4-.7-.4-1.5.1.3 1 .2 1.9-.1 2.7-.1-.6-.3-1.1-.4-1.5.1-.5-.2-.7-.7-.5-.3.5-.4 1.1-.4 1.7-1 .3-1.4 0-1.3-.7-.5.1-1 0-1.4-.1-.8.7-1.8.9-3 .7-.1-.4-.4-.7-.8-.7-.8-.1-1.5 0-2 .2.4-.1.6.2.3.8-.2-.1-.5-.1-.8-.1-.6-.1-1-.4-1.4-1.1-.7-1.2-1.2-2.3-1.6-3.6-.4 0-.7.2-.7.6-1.2-.3-1.8 0-2.1.8.7.3 1.1.7 1.3 1.2h-.4c-.2-.1-.4.1-.6.4-.1.3 0 .5.1.5-1.6 0-2.9.5-4 1.5h-4.6c-1.5-.1-3 .1-4.5.4-.5-.4-1.1-.6-1.8-.7-1.5-.3-2.9-.9-4.2-1.7-.7 0-1-.5-.7-1.5-.4 1.2-1.3 1.9-2.6 2.3-1-.1-2.3.1-3.6.4-.1.9.2 1.7.8 2.2h61.9c.1-.3-.1-.6-.3-1zm-12.8-1.4c-.5-.1-.7-.5-.4-1.2.3-.1.6-.2.8-.4.5.6.3 1.2-.4 1.6zm21.3.4c-.6.3-1.4.4-2.3.4-1.3.4-2.6.4-3.7-.2.1.9.5 1.4 1.1 1.8h5.6c-.3-.7-.5-1.4-.7-2z"/><path class="st2" d="M-112.6 346.1v1.2c.4.6.7 1.2.8 1.8-.1 0-.2-.1-.3-.1-.2-.2-.5-.2-.8 0-.1.3 0 .7.1 1 .1 1.2-.3 1.5-1.1 1 .4-1.4.1-2.4-.7-2.9v2.1c-.2-.6-.6-.9-1.2-.7 0 .3.1.6.3 1-.1 1 .3 1.7 1.2 2.2.4.2.6.5.9.8 1.1 1.4 1.3 2.8.7 4.2-.4 1.3 0 2.6 1.1 3.7 1.3-.1 2.2.7 2.6 2.1.3 1.5 1.3 2.3 3.1 2.5 1 1 1.9 2.3 2.9 3.5.7.4 1.2.8 1.5 1.4.3.2.6.5.8.7 1 1.2 1.8 2.3 2.5 3.4.3.7.7 1.5 1 2.3.6 1.4 1.4 2.8 2.3 4.2.1 1.6-.1 3.1-.3 4.8l-.6 4.6c-.4 0-.7 0-.9.2-1.2.8-1.6 2.1-1.2 3.9 1.3-.1 2.3-.7 2.9-1.7.9-4.8 2-8.5 3.3-11.2 0-.1.1-.1.1-.2.6-1.1.3-2.9-1-5.4.2 2-.2 2.3-1.2 1.1-1-1.2-1.9-2.4-2.9-3.7-.9-1.2-1.5-2.5-2.1-3.8-.7-1.2-1.2-2.6-1.3-4-.1-1.5-.3-3-.4-4.5l-.6-4.4c-.7-2.3-1.1-4.2-1-5.4-1.5-.9-2.6-2.1-3.4-3.4-.1-.3-.3-.4-.7-.6-1.5-.4-2.1-1.6-1.8-3.4-.1-.1-.2-.2-.4-.3-.6-.4-1.2-.7-1.8-1-.7-.3-1.3-.6-2-.8-.1.1-.4.2-.5.3h-3.8c-.1 0-.4 0-1 .1-.4 1.3-.1 2 1 2.1-.1.5-.2 1.1-.1 1.7 1 .1 1.7-.3 2.1-1.1.7.2 1.2.5 1.9.7zm17 30.7c.9.3 1.2.9 1 1.7-.8-.4-1.1-.9-1-1.7zm-41.1-1v.3c.1.1.1.2.1.4-.1.8.2 1.2 1 1 .6-.1.8-.4.7-1.1-.5-.3-1.1-.5-1.8-.6zm-9.2 4.9c.9.1 1.2-.1 1-1-.1-.4-.4-.6-.7-.5-.7.1-.8.6-.7 1.4.2 0 .3 0 .4.1zm2.2-1.2c.1-.9-.2-1.3-.9-1.2-.1.7 0 1.1.4 1.5.4.2.5.1.5-.3zm7.2-.1c.1-.7-.1-1.2-.5-1.7-.6.2-.9.7-.9 1.3-.1.7-.1 1.3-.4 1.8v-1.1c.1-.7-.1-1.2-.7-1.4-.5.1-.7.4-.7.9 0 .6-.1 1.2-.1 1.8-.1.7 0 1.2.4 1.8l.3 2c.1.6.4 1.1.8 1.5.2.1.4 0 .7 0 .1-.1.3-.1.4-.3.2-.6.3-1.2.3-1.8v-1.8c0-.4 0-.8.1-1.2l.3-1.8zm-4.5-1.3c.7.5 1.2.4 1.5-.3-.6-.2-1.1-.1-1.5.3zm.8 10.8c.1-.5 0-.9-.4-1-.1-.1-.2-.1-.3.1 0 .2-.1.4-.2.5-.4.6-.4 1.2 0 1.6.4-.2.7-.5.9-1.2zm-2.8-3.6c-.3-.8-.6-.7-.7.2-.1.6-.1 1.2-.1 1.8.4.3 1 .3 1.7.1.2-.1.3-.2.4-.5.1-.7.1-1-.3-1-.3-.1-.5-.2-.7-.4-.1 0-.2 0-.3-.2zm-1.7.7c-.1 0-.3 0-.4.1-.5.4-.6.8-.1 1.3.2-.1.4-.3.7-.5.3-.5.3-.8-.2-.9zm.4 2.8c.1-.1 0-.3-.1-.3.2.4.5 1 1 1.4.2.2.4.5.5.8.4.1.4-.2.1-.7-.4-.6-.8-1-1.5-1.2zm-37.6-36c.8-.3.9-.7.3-1.2-.3-.1-.4 0-.4.2.1.4.1.8.1 1zm-2.4 1.5c.2.1.4.1.6.1.7-.1.9-.5.5-1.2-1.5-.4-2.5 0-2.9 1.4.5-.6 1.1-.7 1.8-.3zm-6.4 1c.1.2.4.4.6.3.1-.1.2-.3.2-.4v-.3c.1-.3 0-.4-.4-.4-.1 0-.2.1-.4.1 0 .2-.1.5 0 .7zm27.2-9.1c-.6.3-1 .7-1 1.4.8.4 1.2-.1 1-1.4z"/><path class="st2" d="M-107.5 343.4c2.6 1.8 4.8 4.5 6.3 8v.4c0 2.2 1.1 6 3.1 11.4-.2-3.8-.7-7.6-1.5-11.4-.1-.4-.1-.7-.2-1.1-.1-.1-.1-.3-.1-.4-1.5-3.6-3.9-5.9-7.6-6.9zm11.2 29c.7 1.4 1.6 2.6 2.6 3.7.4-.1.8-.1 1.2-.2-.7-1.1-1.4-2.3-2.3-3.7-.9-1.9-1.6-3.7-2.3-5.3-.8.2-1.1.7-.8 1.5.4 1.5.9 2.8 1.6 4zm-24.5-19c-.2-.1-.6-.2-1-.2.2 1.7.7 2.1 1.3 1 .1-.1.1-.3.1-.4l-.2-.2-.2-.2zm-2 .6c.4-1.2.1-1.5-.8-.6.2.3.4.5.8.6zm3.9 11.2v-.2c-.9.9-1.6 1.8-2.3 2.5l.2.1h.1c.6-.3 1.1-.6 1.6-.9.1 0 .1-.1.1-.1.3-.5.4-.9.3-1.4zm-1.8 3.9c.7-.1 1.2 0 1.5.4-.4-.1-.7.1-1 .3-.8.9-.5 1.5.7 1.8 1.4-.1 2.1.6 2 2.1.2-.1.5-.3.8-.3.2.1.5.3.7.4.1.1.1.1.1.2.1.3.1.6.2.9.1.3.1.5 0 .8.4-.1.6 0 .8.2.1.1.2.1.4.1-.3-1.2-.7-2.3-1.2-3.4-.1.5-.4.7-.8.6-.7-1-.4-1.6.9-1.8.1-.6.1-1.1.4-1.6-.1-1.6-.9-2.7-2.2-3.1-1.8.2-2.9 1-3.3 2.4zm2.6-1.3c.1 0 .1 0 .2.1s.1.1.2.1c.4.1.5.4.4.7-.1.2-.2.4-.4.4-.3-.1-.4-.2-.4-.5-.1-.3-.2-.5-.3-.7 0-.1.1-.1.3-.1z"/><path class="st2" d="M-117.5 373.7c-.5.1-.6.4-.2 1 .4.6.8 1.2 1.2 1.9.7-.7.7-1.6.5-2.6-.4-.3-1-.4-1.5-.3z"/><path class="st2" d="M-115.6 376c-.3.3-.6.4-1 .6.4.7.7 1.3.9 2.1.2.1.4.1.8 0 .2-.1.4-.2.5-.5v-.1c.2-.6.2-1 0-1.3-.1-.6-.6-.8-1.2-.8zm-5.1 3.7c-.3 1.2-.1 2 .7 2.6.8.3 1.9.4 3.2.2.5-.8.4-1.7-.2-2.5-1.3-.2-2.5-.2-3.7-.3zm-3.9 3.1c-.4-.5-.7-.4-1 .4-.4 1.3-.3 2.3.5 3.1 1.5.2 1.9-.7.9-2.7-.2-.3-.3-.6-.4-.8.7.6 1 1.2 1 2.1 1-1.6.7-2.2-1-2.1zm.8-5.9c-.4.2-.8.5-1.2.9.6.1 1.2.1 1.8.1-.1-.5-.3-.8-.6-1zm-5.2-3.2c1.5.8 2.1 1.8 2 3.2.7-.5 1.2-1.2 1.4-1.9-.8-.7-1.8-1.4-2.9-2.1-.2.3-.3.6-.5.8zm-3.4.5c-.2-.4-.4-.7-.5-.9-.4-.4-.7-1-1-1.4-.3.1-.6.2-1 .2v.1c0 .4.1.8.1 1.2.4-.1.8-.2 1.1 0 .2.5.4 1 .6 1.7.1.5.3 1.1.6 1.6s.7 1 1.1 1.4l.1.1s.1 0 .1-.1c.3-.1.4-.3.7-.4l-.3-.9c-.2-.4-.4-.8-.8-1.2-.3-.6-.6-1-.8-1.4zm-2.5-2.6c.4.1.7 0 .9-.1-.1-.7-.3-1-.6-.8-.2.2-.4.5-.3.9zm10 15.9c0 .3.1.4.4.4.5.1.9 0 1.2-.1-.3-.4-.9-.6-1.6-.3zm1.7 2c-1 .3-1.2.8-.7 1.6.2.4.5.4.9.4.4-.8.3-1.4-.2-2zm-1.6.8c-.7.1-1 .4-.8.7.2-.1.5 0 .7.2.3-.3.3-.6.1-.9zm9.2-6.4c-1-.9-1.4-.5-1.2 1 .5 0 .9-.4 1.2-1zm8.3 7c-.7-.2-1-.2-.9 0 .5 1.3.8 1.3.9 0zm-8.8-4.6c-.7.9-1 1.9-.7 3 0-.4.2-.6.7-.4.3.4.5.9.7 1.5-.1-1.5-.2-2.9-.7-4.1zm17.6 5.2c-1.6-.2-1.9.5-1 2.2.9 0 1.1-.8 1-2.2z"/></svg>