<svg xmlns="http://www.w3.org/2000/svg" viewBox="-342.1 370.4 268.2 422.8"><path fill="#FFF" d="M-94.7 482.4c-11-24-26.4-46-45.7-65.2-32.8-32.7-65.2-45.9-66.6-46.4l-1-.4-1 .4c-1.4.5-33.7 13.8-66.6 46.4-19.3 19.2-34.7 41.1-45.7 65.2-13.8 30-20.8 63.5-20.8 99.4 0 35.9 7 69.4 20.8 99.4 11 24 26.4 46 45.7 65.2 32.8 32.7 65.2 45.9 66.6 46.4l1 .4 1-.4c1.4-.5 33.7-13.8 66.6-46.4 19.3-19.2 34.7-41.2 45.7-65.2 13.8-30 20.8-63.5 20.8-99.4 0-35.9-7-69.4-20.8-99.4z"/><path d="M-207.9 373.4c-.2.1-131.3 52.9-131.3 208.4 0 155.6 131 208.3 131.3 208.4.2-.1 131.3-52.9 131.3-208.4-.1-155.6-131.1-208.3-131.3-208.4z"/><path fill="#FFF" d="M-207.9 396.4c-.2.1-127.1 44.9-127.1 185.4s126.9 185.3 127.1 185.4c.2-.1 127.1-44.9 127.1-185.4s-126.9-185.3-127.1-185.4z"/><path fill="#EB6A0A" d="M-217.5 577.9c-24.8-13.4-42-40-45.2-70.3-3.2-30 6.5-56.5 29.5-80.9-72.9 41.1-53.6 95.1-44.2 112.2 12.9 23.3 35.6 38 59.9 39z"/><path d="M-207.9 659.8c-38.5 0-74.3-5.6-103.9-15.1 28.2 78.9 103.8 99.4 103.9 99.4 0 0 75.6-20.5 103.9-99.4-29.7 9.5-65.4 15.1-103.9 15.1z"/><path fill="#EB6A0A" d="M-115 496.1c-1.1 50.4-42.3 90.9-92.9 90.9s-91.8-40.5-92.9-90.9c-11.4 22.1-21.4 49.8-21.4 84.6 0 2 0 4 .1 6 31.4 11.7 71.1 18.7 114.2 18.7s82.8-7 114.2-18.7c.1-2 .1-4 .1-6 0-34.8-10-62.6-21.4-84.6z"/><path fill="#EB6A0A" d="M-194.7 484.2c-3.3-8.1-7.8-15.5-13.2-22-5.4 6.5-9.9 13.9-13.2 22-6.2 15.2-8.2 32-5.8 48.6 2.4 16.3 9 31.2 18.9 43.2 0 0 0-.1.1-.1 0 0 0 .1.1.1 10-11.9 16.5-26.9 18.9-43.2 2.4-16.6.4-33.4-5.8-48.6z"/><path fill="#EB6A0A" d="M-198.4 577.9c24.8-13.4 42-40 45.2-70.3 3.2-30-6.5-56.5-29.5-80.9 72.9 41.1 53.6 95.1 44.2 112.2-12.9 23.3-35.6 38-59.9 39z"/><path d="M-207.9 421.3c-33.8 18.1-47.9 52.6-47.9 78.4 0 29.6 13.7 56.6 35.9 71.4-16.4-26.3-19.1-60.5-7.1-89.9 3.6-8.9 8.5-17 14.4-24l4.6-5 4.6 5c5.9 7.1 10.8 15.2 14.4 24 12.1 29.4 9.3 63.6-7.1 89.9 22.3-14.7 35.9-41.8 35.9-71.4.1-25.9-14-60.3-47.7-78.4zm-20.4 228.4s-1.5-2.7-2.1-4.3c0 .1-14.1-33.7-14.1-33.8-.4-1-2.6-1.2-3.3-1.3-1.5-.1-2.4.1-2.5.7 0 0-11.8 35.2-11.8 35.1-.1.5-.1.9.1 1.3.1.2.4.5.9.6l4.2.6c.7.1 1.2-.2 1.4-.9l2.5-9.4c0-.1.1-.1.2-.1l11.4 1.2c.1 0 .2.1.2.1.7 1.9 1.4 3.7 2.2 5.6l1.6 4.4c.3.8.9 1.2 1.6 1.3 2.2.2 4.3.3 6.5.4.5 0 .8-.1 1-.4.2-.2.3-.6 0-1.1zm-23.5-15.2l3.9-12.9c1 2.5 5.1 12.7 5.5 13.9-3.1-.3-6.3-.6-9.4-1zm121.6 8.1s-1.2-2.4-1.6-3.8c0 .1-10.4-30.5-10.4-30.6-.3-.9-2.5-.6-3.2-.5-1.5.3-2.4.7-2.6 1.4 0 0-16 38.7-16 38.6-.2.5-.2.9 0 1.2.1.2.4.4.9.3 1.4-.2 2.8-.3 4.2-.5.7-.1 1.2-.5 1.5-1.2l3.6-10.2c0-.1.1-.1.2-.2 3.8-.5 7.6-1.1 11.4-1.7h.2c.5 1.7 1 3.4 1.6 5.1l1.1 4.1c.2.7.7 1 1.5.8l6.5-1.2c.5-.1.8-.3 1-.7.2 0 .3-.4.1-.9zm-22.2-9.3l5.4-14.1c.7 2.3 3.7 11.6 4 12.7-3.1.5-6.3 1-9.4 1.4zm-53.8-1.7c4-5.7 8.1-11.5 12.2-17.3.3-.4.4-.9.2-1.3-.2-.3-.5-.5-.9-.5-1.5 0-2.9.1-4.4.1-.7 0-1.1.1-1.5.8 0 0-7.4 11.2-8.7 13.2-2.7-4.3-5.4-8.6-8.1-13-.3-.7-1-1.1-1.8-1.1l-6.7-.3c-.5 0-.8.1-1 .4-.2.3-.1.7.2 1.1 0 .1 11.4 17.7 12.4 19.1-3.9 5.6-7.7 11.2-11.4 16.7-.3.4-.3.9-.2 1.2.2.3.5.5.9.6 1.4.1 2.7.1 4.1.2.7 0 1.1-.1 1.5-.7 0 0 7-10.9 8.3-12.9 2.7 4.3 5.4 8.6 8.1 12.8v-.1c.3.7.9 1.1 1.7 1 2 0 4-.1 6-.1.5 0 .8-.2 1-.5.2-.3.1-.7-.1-1.1-3.9-6-7.9-12.1-11.8-18.3zm47.6-20.5c.1-.3 0-.6-.2-.8-.2-.3-.7-.4-1.3-.3-9.4 1.1-18.8 1.8-28.1 2.2-.6 0-1.1.2-1.3.5-.2.2-.3.5-.2.8l.1 2.8c0 .4.2.7.4.9.3.2.7.2 1 .2.1 0 6.4-1.1 9.5-1.3.1 0 .3.2.3.6l-.4 14.6-.6 18.3c0 .8.4 1.3 1.3 1.2 1.8-.1 3.5-.3 5.3-.4.8-.1 1.3-.6 1.4-1.4l.7-18.3.7-14.7c0-.4.3-.6.4-.6 3.1-.3 9.4-.2 9.5-.2.3 0 .7 0 1-.3.2-.2.4-.5.5-.9-.4-.1 0-2.9 0-2.9zm50.1-10.1c-4.6 1.1-9.2 2.1-13.8 3-.9.2-1.4.8-1.5 1.6l-1.6 18.3-1.7 18.3c-.1.8.4 1.2 1.2 1l5.4-1.2c.8-.2 1.4-.8 1.5-1.6l1.4-14.4c0-.2.4-.6.7-.7 1.1-.3 2.2-.5 3.4-.8 9.8-2.3 16.4-8.5 17.3-15.8.9-8.1-5.8-9.2-12.3-7.7zm-7.5 20.7c-.2.1-.5.1-.7.2-.3.1-.6-.2-.6-.4.5-4.8 1-9.5 1.4-14.3 0-.5.6-1 1.1-1.1.3-.1.6-.1 1-.2 6.8-1.5 9.4-.1 8.8 5.1-.6 5.7-4 9.2-11 10.7zm-152.7-12.3c-.1-.8-.6-1.4-1.5-1.5l-5.6-.9c-.9-.1-1.3.3-1.3 1.1l2.5 32.6c0 .5-.4.9-.9.8-1.4-.3-2.9-.5-4.3-.8-1.8-.3-4.7-1.3-6.8-2.1l-3-32.8c0-.4-.2-.8-.5-1-.3-.3-.6-.5-1-.5l-5.6-1.2c-.4-.1-.8 0-1 .1-.2.2-.3.5-.3.9l3.3 32.8c-2-.1-4.9-.4-6.6-.8-1.4-.3-2.9-.7-4.3-1.1-.5-.1-1-.7-1.1-1.2l-3.7-32.6c-.1-.8-.7-1.4-1.5-1.7-1.9-.5-3.8-.9-5.7-1.4-.9-.2-1.3.1-1.2.9l4.5 36.7c.1.8.7 1.5 1.5 1.7 15.1 4.1 30.2 7.3 45.2 9.7.8.1 1.3-.3 1.2-1.1.2-.1-2.3-36.6-2.3-36.6z"/><path fill="#FFF" d="M-225.5 686.8v-12.5c0-.4-.2-.6-.6-.6h-2.2c-.5 0-.6.3-.6.6v12.5c0 .4.2.6.6.6h2.2c.3 0 .6-.3.6-.6zm7.9-13.3c-3.2 0-5.4 1.7-5.4 4.3 0 2.2 1.5 4.4 4.8 4.4 1.6 0 2.1-.3 2.8-.6.1 0 .1-.1.2-.1-.1 2.4-2.2 4.5-5 4.8-.3 0-.5.2-.5.5l.1.5c.1.2.2.4.4.4h.4c4.8-.1 8-3.2 8-7.7 0-2-.6-6.5-5.8-6.5zm.2 7c-1.8 0-2.4-1.5-2.4-2.9 0-2.2 1-2.5 1.8-2.5 2.5 0 2.8 2.7 2.8 3.9 0 .9-.9 1.5-2.2 1.5zm14.5-1.2c1-.9 1.5-1.9 1.5-3 0-2-1.6-3-4.5-3-1.6 0-2.8.2-4 .8h-.1c-.1.1-.3.2-.2.5l.3.6c0 .1.1.2.3.2.1.1.3 0 .4 0 .6-.3 1.2-.5 2.3-.5.7 0 1.9.2 1.9 1.5 0 1.5-1.1 2.7-2.9 2.9-.2.1-.3.2-.3.5v.1c0 .2 0 .6.4.6h1.3c.8 0 1.5.3 2.1.8.5.5.7 1.1.7 1.8 0 2.1-1.2 3.1-3.8 3.1h-.3c-.4 0-.8 0-1.2-.1-.1 0-.2 0-.3.1-.1.1-.2.1-.2.3l-.1.5c0 .4.2.5.3.5.7.2 3.4.3 3.7.3 2.5 0 5.4-1.2 5.4-4.6 0-1.8-1-3.2-2.7-3.9zm11.1-.4c-1.6 0-2.2.3-2.8.6l-.2.1c0-2.3 1.7-4.7 4.1-4.7h1.1c.3-.1.4-.3.4-.4l.1-.5c0-.4-.3-.5-.4-.5-.5-.1-1-.1-1.5-.1h-.2c-4.5 0-6.9 3.9-6.9 7.7 0 1.9.6 6.5 5.8 6.5 3.3 0 5.4-1.7 5.4-4.3-.1-2.7-2-4.4-4.9-4.4zm-.2 7.1c-2.5 0-2.8-2.7-2.8-3.9 0-.9.9-1.5 2.2-1.5 2 0 2.3 1.8 2.3 2.9 0 2.2-.8 2.5-1.7 2.5zm-2.4 18.6l1.2-1.2c.3-.3.3-.7 0-1.1l-2.3-2.3c-.4-.4-.8-.4-1.1 0l-1.2 1.2-4.1-4.1c-.3-.2-.5-.4-.7-.4-.2 0-.3.1-.4.2l-3.1 3.2c-.1.2-.2.4-.2.5 0 .2.2.4.3.5 0 0 3 2.3 4.2 3.6 0 0 0 .2-.1.4 0 0-4.8 4.9-6.2 6.2l-6.2-6.2c-.2-.1-.1-.3-.1-.4 1.3-1.3 4.2-3.6 4.2-3.6.1-.1.3-.3.3-.5s0-.3-.2-.5c0 0-3.1-3.3-3.1-3.2-.1-.1-.3-.2-.4-.2-.2 0-.5.1-.7.4l-4.1 4.1-1.2-1.2c-.3-.3-.7-.3-1.1 0l-2.3 2.3c-.4.4-.4.8 0 1.1l1.2 1.2-4.1 4.1c-.2.3-.4.5-.4.7s.1.3.2.4l3.2 3.1c.2.2.4.2.5.2.2 0 .4-.2.5-.3 0 0 2.3-3 3.6-4.2 0 0 .2 0 .4.1 0 0 4.9 4.8 6.2 6.2-4.6 4.5-10.2 10.2-10.2 10.2-.3.3-.3.7 0 1.1l2.3 2.3c.4.4.8.4 1.1 0 0 0 5.6-5.7 10.2-10.2 4.5 4.6 10.2 10.2 10.2 10.2.3.3.7.3 1.1 0l2.3-2.3c.4-.4.4-.8 0-1.1l-10.2-10.2 6.2-6.2c.1-.1.3-.1.4-.1 1.3 1.3 7.3 5.2 8.1 4.4 1.1-.9-4.2-8.4-4.2-8.4z"/></svg>