<svg id="Layer_1" xmlns="http://www.w3.org/2000/svg" viewBox="-232 290.3 146.1 212.7"><style>.st0{fill:#F0C560;} .st1{fill:#4485C6;} .st2{fill:#FFFFFF;} .st3{fill:#76787A;} .st4{fill:#CD3529;} .st5{fill:#A46C39;}</style><path class="st0" d="M-231.3 357.1c-5.4 86.5 52.6 135 72.3 145.4 19.7-10.4 77.7-58.9 72.3-145.4h-144.6z"/><path class="st1" d="M-87.1 385.2c.9-8.8 1.1-18.2.5-28h-144.6c-.6 9.8-.4 19.2.5 28h143.6z"/><path d="M-86.7 356.8h-145v.3c-1.3 20.1.9 39.6 6.3 57.9 4.6 15.4 11.5 30.1 20.5 43.6 15.5 23 34.3 38.3 45.7 44.3l.2.1.2-.1c11.4-6 30.2-21.3 45.7-44.3 9.1-13.5 16-28.2 20.5-43.6 5.4-18.3 7.5-37.8 6.3-57.9v-.3h-.4zm-.3.7c.2 3.6.3 7.2.3 10.8 0 16.1-2.2 31.7-6.6 46.5-4.5 15.4-11.4 30-20.4 43.4-7.3 10.8-15.7 20.6-25.1 29.2-9.8 8.9-17.2 13.3-20.1 14.8-2.9-1.6-10.3-6-20.1-14.8-9.4-8.5-17.9-18.3-25.1-29.2-9-13.4-15.9-28-20.4-43.4-4.4-14.8-6.6-30.4-6.6-46.5 0-3.6.1-7.2.3-10.8H-87z"/><path class="st2" d="M-222.3 365.3h2.1l2.5 10.6 2.5-10.6h1.9l-3.3 13.5h-2.4l-3.3-13.5zm16 10.3h-3.9l-.8 3.1h-2l3.8-13.5h2.2l3.8 13.5h-2.2l-.9-3.1-.5-2.1-1.4-5.6-1.4 5.6h2.8m4.8-8.2h1.9v11.3h3.8v2.1h-5.7v-13.4zm6.9 0h5.7v2.1h-3.8v3.3h3.5v2.1h-3.5v3.8h3.8v2.1h-5.8l.1-13.4zm7.6 0h2.4l3.7 10.1v-10.1h1.9v13.5h-2.4l-3.7-10.1v10.1h-1.9v-13.5zm17.2 13.2c-.7.2-1.5.4-2.2.4-3.1 0-5.3-2.2-5.3-6.7 0-4.6 2-7.2 5.3-7.2.6 0 1.5.2 2.2.6l-.1 2.3c-.7-.6-1.4-.7-2.1-.7-2 0-3.3 2.1-3.3 4.9 0 2.7 1.2 4.8 3.3 4.8.8 0 1.7-.2 2.1-.6l.1 2.2zm1.3-13.2h1.9v13.5h-1.9v-13.5zm25 13.2c-.7.2-1.5.4-2.2.4-3.1 0-5.3-2.2-5.3-6.7 0-4.6 2-7.2 5.3-7.2.6 0 1.5.2 2.2.6l-.1 2.3c-.7-.6-1.4-.7-2.1-.7-2 0-3.3 2.1-3.3 4.9 0 2.7 1.2 4.8 3.3 4.8.8 0 1.7-.2 2.1-.6l.1 2.2zm1.3-2.5h1.9v2.7h-1.9V376zm9.2-2.3c0 1.4.3 3.2 1.6 3.2 1.2 0 1.6-1.8 1.6-3.2 0-1.4-.5-3.2-1.7-3.2-1.2.1-1.5 1.9-1.5 3.2h-1.9c0-2.7.8-5.2 3-5.2.9 0 1.6.4 2.1 1.4v-5.7h1.9v14.5h-1.8v-1.1c-.6 1-1.3 1.3-2.2 1.3-2.2 0-3-2.5-3-5.2m13.4-.9c-.1-1.3-.5-2.3-1.5-2.3s-1.6 1-1.7 2.3h3.2l1.8 1.8h-4.9c.1 1.6.9 2.5 2 2.5.9 0 1.7-.5 2.4-1v2.1c-.7.5-1.5.8-2.5.8-2.4 0-3.7-1.9-3.7-5.1 0-2.9 1.1-5.2 3.3-5.2 2.7 0 3.4 2.5 3.4 6m5.4-9.4h5.4v2.1h-3.4v3.3h3.3v2.1h-3.3v5.9h-1.9v-13.4zm6.8 10.7h1.9v2.7h-1.9V376zm-51.2-.4h-3.9l-.8 3.1h-2l3.8-13.5h2.2l3.8 13.5h-2.2l-.9-3.1-.5-2.1-1.4-5.6-1.4 5.6h2.8"/><path d="M-88.4 395.2c-3-27-12.1-45.4-22.3-38.8-1.4-12.7-14.5-14.7-22.9-5.7-.2-8.2-7-16.1-15.9-13.8-.7 1.8-2.7 5.2-3.6 6.1.7 1.8 2.7 10 3.6 11.6 2.7-1.4 3.4-1.6 8.6 3.4H-152l-2.7-8.2c-.9-1.8-1.4-1.1-2 0l-2.3 4.8-2.3-4.8c-.7-1.1-1.1-1.8-2 0l-2.7 8.2h-11.1c5.2-5 5.9-4.8 8.6-3.4.9-1.6 2.9-9.7 3.6-11.6-.9-.9-2.9-4.3-3.6-6.1-8.8-2.3-15.6 5.7-15.9 13.8-8.4-9.1-21.5-7-22.9 5.7-10.2-6.6-19.3 11.8-22.3 38.8-1.9-11.7-2.6-24.4-1.8-38 2.9-46.6 35.9-62.2 49.6-66.8-6.7 13-4 33.9 15.9 29.2.3-1.1 1.9-3.6 3.5-4.7-2.2-1-4.4-5.5-3.4-8.9-3.8-.5-4.4-4.6-3.9-6.7.5-2-.3-5.9-1.6-7.1 4.3 1.5 8 5.9 8.9 8.8.9-.9 2.3-1 3.4-1.1 1.1 0 2.5.2 3.4 1.1.8-3 4.6-7.4 8.9-8.8-1.3 1.2-2.1 5-1.6 7.1.5 2-.1 6.1-3.9 6.7 1 3.4-1.2 8-3.4 8.9 1.6 1.1 3.3 3.5 3.5 4.7 19.8 4.7 22.5-16.2 15.9-29.2 13.7 4.7 46.7 20.2 49.6 66.8.8 13.6.1 26.2-1.8 38z"/><path class="st3" d="M-182.2 343.1c-1.3 2.3-2.1 4.9-2.2 7.6-8.8-11.8-18.6-37.2-5.2-53-5.4 11.8-5.6 29.6 7.4 45.4zm46.4 0c1.3 2.3 2.1 4.9 2.2 7.6 8.8-11.8 18.6-37.2 5.2-53 5.5 11.8 5.6 29.6-7.4 45.4zm22.1 5.8c1.6 1.8 2.6 4.3 3 7.5 4.5-7.9 10.2-35.6-12-56.7 6.1 10.9 17.6 26.5 9 49.2z"/><path class="st3" d="M-88.4 395.2c1.9-11.7 2.6-24.4 1.8-38-2.9-46.6-35.9-62.2-49.6-66.8 33.7 13.6 50.7 40.2 47.8 104.8zm-115.9-46.3c-1.6 1.8-2.6 4.3-3 7.5-4.5-7.9-10.2-35.6 12-56.7-6.1 10.9-17.6 26.5-9 49.2z"/><path class="st3" d="M-229.5 395.2c-1.9-11.7-2.6-24.4-1.8-38 2.9-46.6 35.9-62.2 49.6-66.8-33.7 13.6-50.7 40.2-47.8 104.8z"/><path class="st4" d="M-215.4 439.4c4.8 9.7 10.2 18.4 15.9 26v-80.2h-15.9v54.2zm47.6 57.6c-4.7-3.4-10.2-7.9-15.9-13.6v-98.3h15.9V497zm65.3-57.6c-4.8 9.7-10.2 18.4-15.9 26v-80.2h15.9v54.2zm-47.6 57.6c4.7-3.4 10.2-7.9 15.9-13.6v-98.3h-15.9V497z"/><circle cx="-159" cy="430.6" r="23"/><circle class="st5" cx="-159" cy="430.6" r="21.2"/><path d="M-137 425.6c-2.8-3.8-6.4-6.7-10.7-8.6-4.3-1.9-8.2-2.4-11-2.5-.4-1-1.4-1.4-2.2-1.8l-.6-.3c-.1-.3.1-1 .2-1.5l.3-2-2.5-.1c0 .6-.1 1.1-.2 1.7-.3 1.4-.6 3.2 1.1 4.1.2.1.5.2.7.3.3.2.8.4.9.5v.1c-.1.2-.5.6-.8.8-.8.7-1.9 1.7-2.3 3.3-.8 2.8.7 6.3 3.7 9.1-.5 2-1.5 3.5-3 4.2-1.7.8-3.9.6-6-.6-3.4-3.6-5.6-10.8-2.5-18.3l.9-2-3.9 3c-1.1 3.5-1.3 7.1-.6 10.5.6 3 2 5.9 3.8 8-1.5 2.7-3.6 5.1-7.7 3.8v2.6c5.5 1.3 8.4-2.5 9.7-4.9 2.5 1.1 5.2 1.2 7.3.2 2.2-1 3.7-3.1 4.3-5.9 1.6-.4 4-.7 6 .4 1.3.7 2.3 2 2.8 3.8-2 3.5-5 6.5-8.3 8.6-4.6 2.9-10.1 4.1-16.9 3.6l2.5 2.6c5.8.2 11.1-1.2 15.7-4.1 3.7-2.3 7-5.7 9.2-9.5 1.8-.5 3.6-.8 4.9 0 1.1.6 1.9 1.9 2.5 4.9l1.7-3.1c-.6-1.8-1.6-3.2-3-3.9-2.1-1.2-4.5-.9-6.2-.5-.8-2.1-2.1-3.7-3.8-4.6-2.6-1.5-5.6-1.2-7.9-.6-2.6-2.4-3.4-5.1-3-6.6.3-.9.9-1.5 1.6-2.1.5-.4.9-.8 1.2-1.3 3.9 0 13.7 1.2 20.5 11l.9 1.2.7-3.5z"/></svg>