<?xml version="1.0" encoding="utf-8"?>
<!-- Generator: Adobe Illustrator 19.1.0, SVG Export Plug-In . SVG Version: 6.00 Build 0)  -->
<svg version="1.1" id="Layer_1" xmlns="http://www.w3.org/2000/svg" xmlns:xlink="http://www.w3.org/1999/xlink" x="0px" y="0px"
	 viewBox="-192.7 303.1 160.2 187.1" style="enable-background:new -192.7 303.1 160.2 187.1;" xml:space="preserve">
<style type="text/css">
	.st0{fill:#FFFFFF;}
	.st1{fill:#FFF22D;}
</style>
<g>
	<path d="M-163.7,461.7c-2.9-1.6-5.7-3.2-8.3-5.1c-1.4-1-2.6-1.9-3.9-3c-1.7-1.4-3.3-2.8-4.8-4.4c-1.3-1.5-2.6-3-3.7-4.6
		c-1.3-1.8-2.5-3.6-3.5-5.6c-0.8-1.5-1.5-3.1-2.1-4.6c-0.5-1.4-1-2.8-1.3-4.3c-0.5-2.5-0.8-4.9-0.9-7.4v-3.3l0.2-3.3
		c0.2-1.6,0.4-3.2,0.7-4.9c0.3-1.6,0.6-3.2,1-4.8c0.7-2.7,1.5-5.3,2.3-7.9c1.9-6.2,4.1-12.2,6.2-18.3c1-3.5,2.1-6.9,2.7-10.5
		c0.3-1.9,0.5-3.7,0.5-5.6c0-0.7-0.1-1.4-0.1-2.1c-0.3-1.8-0.7-3.5-1.2-5.2c-0.2-0.7-0.5-1.4-0.7-2c-1.4-3.4-3.2-6.5-5.2-9.7
		c-2.2-3.6-4.6-7.1-6.9-10.6l26.7-31.3c2.5,1.4,4.9,2.8,7.4,4.1c0.5,0.3,1,0.5,1.5,0.7c2.4,1.1,4.8,2,7.3,2.6
		c2.1,0.5,4.1,0.9,6.3,1.1c0.6,0,1.3,0.1,1.9,0.1c3.9,0.1,7.7-0.3,11.5-1.2c1.2-0.3,2.3-0.6,3.5-1c3.7-1.3,7.2-3,10.8-4.8
		c1.1-0.6,2.3-1.2,3.5-1.9c3.3,1.7,6.5,3.4,9.9,4.9c2,0.8,4,1.6,6,2.2c0.8,0.2,1.5,0.4,2.3,0.6c2.6,0.6,5.3,1.1,8,1.1
		c1.7,0,3.4-0.1,5-0.2c2.1-0.2,4-0.5,6-1c1.6-0.4,3.1-0.9,4.6-1.4c1.8-0.7,3.5-1.5,5.2-2.3l6.7-3.8l26.3,31.5l-5.5,8.4
		c-0.3,0.4-0.5,0.9-0.8,1.3c-1.7,2.8-3.3,5.7-4.7,8.7c-0.7,1.6-1.3,3.2-1.8,5l-0.3,1.3c-0.4,1.9-0.6,3.8-0.5,5.8
		c0,0.6,0,1.3,0.1,1.9c0.5,4.5,1.6,8.8,3,13.1c1.7,5.2,3.6,10.4,5.3,15.6c1,3.1,2,6.3,2.8,9.5c0.5,1.9,0.9,3.7,1.2,5.6
		c0.4,1.9,0.6,3.7,0.8,5.7c0.1,1.4,0.2,2.8,0.2,4.3l0,2.9c-0.1,1.4-0.2,2.8-0.4,4.3l-0.3,1.5c-0.3,1.3-0.6,2.6-1,3.8
		c-0.5,1.2-0.9,2.4-1.4,3.6c-0.5,1.1-1.1,2.3-1.7,3.4l-2,3.2l-2.3,3.1c-0.8,1-1.6,1.9-2.5,2.8c-0.9,0.9-1.8,1.7-2.7,2.6
		c-1.5,1.4-3.2,2.7-4.9,4c-1,0.7-2.1,1.5-3.1,2.1c-1.5,1-3.1,1.9-4.6,2.7c-1.8,1-3.6,1.9-5.5,2.8c-7.7,3.6-15.7,6.7-23.5,10.4
		c-2.3,1-4.5,2.1-6.7,3.3l-2.6,1.5c-1.3,0.8-2.5,1.5-3.7,2.4c-3.8,2.8-7.4,5.9-11,9.1c-3.5-3.1-6.9-6.1-10.7-8.8
		c-0.8-0.5-1.5-1-2.3-1.6c-4-2.6-8.3-4.7-12.7-6.7c-7.5-3.4-15.2-6.4-22.7-9.9C-161.7,462.7-162.7,462.2-163.7,461.7L-163.7,461.7z"
		/>
	<path class="st0" d="M-172.1,452.1c-2.3-1.8-4.5-3.6-6.4-5.8c-1.4-1.5-2.6-3.1-3.8-4.8c-1-1.5-1.9-3-2.7-4.6
		c-0.7-1.4-1.3-2.8-1.8-4.3c-0.4-1-0.7-2.1-1-3.2c-0.3-1.2-0.4-2.4-0.6-3.6l-0.2-3.1v-3.1c0.1-1.5,0.2-3.1,0.4-4.6
		c0.2-1.6,0.5-3.1,0.8-4.6c0.3-1.5,0.7-3.1,1.1-4.6c1-3.6,2.1-7.2,3.3-10.8c2.3-6.7,4.8-13.4,6.6-20.3c0.6-2.5,1.1-4.9,1.4-7.4
		c0.1-1.5,0.1-2.9,0-4.4l-0.1-1.2c-0.3-2.3-0.9-4.5-1.6-6.7c-0.6-1.7-1.4-3.4-2.1-5c-1.4-2.7-3-5.4-4.7-8c-1.5-2.4-3.1-4.7-4.6-7.1
		l23.1-27c2.1,1.2,4.1,2.3,6.2,3.4c2.6,1.3,5.4,2.2,8.2,3c1.6,0.4,3.2,0.7,4.8,1c2.1,0.3,4.2,0.4,6.3,0.4c1.6,0,3.3-0.1,4.9-0.4
		c1.6-0.2,3.1-0.5,4.7-0.8c1.5-0.4,3.1-0.8,4.5-1.3c3-1,5.7-2.2,8.6-3.6c1.6-0.8,3-1.6,4.6-2.4c3.2,1.7,6.6,3.4,10,4.8
		c1.6,0.6,3.2,1.2,4.8,1.7l1.7,0.5c3.1,0.8,6.4,1.4,9.7,1.5c1.8,0,3.6,0,5.4-0.2c2-0.2,3.9-0.5,5.8-1c1.9-0.5,3.8-1,5.6-1.7
		c2-0.7,3.8-1.6,5.7-2.5l4.2-2.4l22.6,27.1l-3.9,6c-0.4,0.5-0.7,1.1-1,1.6c-1.6,2.7-3.2,5.5-4.6,8.4c-0.8,1.8-1.6,3.6-2.1,5.4
		c-0.4,1.2-0.6,2.4-0.9,3.6c-0.1,1-0.3,2-0.4,3c-0.2,5.1,0.9,10.1,2.3,14.9c2.1,7.3,4.9,14.4,7.2,21.7c1,3.1,1.8,6.2,2.6,9.3
		c0.4,1.8,0.7,3.5,1,5.3c0.1,1.3,0.3,2.6,0.4,4c0,1.3,0.1,2.6,0.1,4l-0.1,2.6l-0.5,3.9l-0.9,3.5c-0.4,1.1-0.8,2.2-1.3,3.2
		c-0.5,1.1-1,2.1-1.5,3.1c-0.6,1-1.2,2-1.8,2.9c-0.7,1-1.4,1.9-2.1,2.8c-1,1.2-2,2.3-3.1,3.5c-1.1,1.1-2.3,2.1-3.5,3.1
		c-1.2,1-2.5,2-3.8,2.9c-1.3,0.9-2.7,1.8-4.1,2.6c-2.5,1.5-5,2.7-7.6,4c-6.8,3.2-13.8,6-20.7,9.1c-2.3,1-4.6,2.1-6.9,3.3
		c-3.7,1.9-7.4,3.9-10.7,6.4c-2.6,2-5.1,4.1-7.7,6.3c-4.5-4-9.2-7.8-14.5-10.8c-2.5-1.4-5-2.6-7.5-3.8c-7.8-3.6-15.9-6.7-23.7-10.4
		c-4.6-2.2-8.9-4.6-13-7.6L-172.1,452.1L-172.1,452.1z"/>
	<path d="M-181.4,435.9L-42.8,337c-6.1,9.3-10.8,17.7-10.8,27.5c0,20.2,20.7,48.8,11.1,69.6c-12.7,26.9-46.7,25.3-70,46.4
		C-135.2,459.9-168.1,460.9-181.4,435.9L-181.4,435.9z"/>
	<path d="M-180.1,398L-60.4,313l0.1,0l-0.2-0.3c-16.3,9.4-33.6,9-52-1.2c-18.3,10.3-35.6,10.6-51.9,1.2l-19.2,22.5
		c6.6,10,12.3,18.8,12.3,29.3C-171.3,374.4-176.1,386.2-180.1,398L-180.1,398z"/>
	<polygon points="-65.5,348 -68.1,344.3 -64.4,341.7 -61.8,345.4 	"/>
	<path d="M-72.7,343.8c1.3,2.1,1.7,4.3,1.1,6.6c-0.6,2.2-2.1,4.2-4.4,5.8c-2.6,1.9-5.3,2.5-8,1.9c-2.6-0.6-5.1-2.4-7.2-5.4
		c-2.2-3.1-3.1-5.9-2.7-8.7c0.4-2.7,2-5.1,4.8-7.1c2.3-1.6,4.5-2.4,6.7-2.2c2.1,0.2,4,1.2,5.6,3.2l-3.6,2.6
		c-0.9-0.9-1.9-1.4-2.9-1.5c-1,0-2.2,0.4-3.3,1.2c-1.6,1.1-2.5,2.6-2.6,4.2c-0.1,1.6,0.6,3.5,2,5.5c1.4,2,2.9,3.2,4.5,3.6
		c1.6,0.5,3.2,0.1,4.7-1c1.1-0.8,1.8-1.7,2.1-2.8c0.3-1.1,0.2-2.2-0.4-3.5L-72.7,343.8L-72.7,343.8z"/>
	<polygon points="-91.3,366.3 -93.9,362.6 -90.2,360 -87.6,363.7 	"/>
	<polygon points="-102.3,374.1 -115.1,356.1 -102.5,347.2 -100.2,350.3 -109.2,356.6 -106.3,360.7 -98.5,355.2 -96.2,358.3 
		-104.1,363.9 -98.6,371.6 	"/>
	<path d="M-116.7,375.1c1.3,2.1,1.6,4.3,1.1,6.6c-0.6,2.2-2.1,4.1-4.4,5.8c-2.6,1.9-5.3,2.6-8,2c-2.7-0.6-5.1-2.4-7.2-5.4
		c-2.2-3.1-3.1-6-2.7-8.7c0.3-2.7,1.9-5.1,4.7-7.1c2.3-1.6,4.6-2.4,6.7-2.2c2.1,0.1,4,1.2,5.6,3.2l-3.6,2.6
		c-0.9-0.9-1.8-1.4-2.9-1.5c-1.1,0-2.2,0.3-3.3,1.1c-1.6,1.2-2.5,2.6-2.6,4.2c-0.1,1.6,0.5,3.5,2,5.5c1.4,2,2.9,3.1,4.5,3.6
		c1.6,0.5,3.2,0.1,4.8-1c1.1-0.8,1.8-1.8,2.1-2.8c0.3-1.1,0.2-2.2-0.4-3.5L-116.7,375.1L-116.7,375.1z"/>
	<path d="M-145.8,405.1l-12.8-18.1l8.5-6c1.9-1.3,3.6-1.9,5.1-1.8c1.5,0.1,2.8,0.9,3.9,2.4c0.6,0.9,1,1.8,1.1,2.6
		c0,0.9-0.1,1.7-0.6,2.6c1.2-0.3,2.3-0.2,3.2,0.1c1,0.4,1.8,1.1,2.6,2.1c1.2,1.7,1.6,3.5,1.1,5.3c-0.5,1.7-1.7,3.4-3.8,4.9
		L-145.8,405.1L-145.8,405.1z"/>
	<polygon points="-171.3,396.1 -167,393.1 -147.7,406.5 -151.6,409.2 -155.5,406.4 -162.4,411.3 -161,415.9 -164.9,418.7 	"/>
	<path class="st1" d="M-84.1,426.4l-3.5,12.2l11.1-7.2l11.1,7.2l-4.1-12.2l10-7.6h-12.4l-4.7-12.3l-4.7,12.3h-12.6L-84.1,426.4
		L-84.1,426.4z M-169.3,336.3l-1.7,5.9l5.4-3.5l5.4,3.5l-2-5.9l4.8-3.7h-5.9l-2.3-6l-2.3,6h-6.1L-169.3,336.3L-169.3,336.3z
		 M-151.3,336.3l-1.7,5.9l5.4-3.5l5.4,3.5l-2-5.9l4.8-3.7h-6l-2.3-6l-2.3,6h-6.1L-151.3,336.3L-151.3,336.3z M-133.3,336.3l-1.6,5.9
		l5.4-3.5l5.4,3.5l-1.9-5.9l4.8-3.7h-6l-2.3-6l-2.3,6h-6.1L-133.3,336.3L-133.3,336.3z M-115.3,336.3l-1.7,5.9l5.3-3.5l5.4,3.5
		l-2-5.9l4.9-3.7h-6l-2.3-6l-2.3,6h-6L-115.3,336.3L-115.3,336.3z"/>
	<path class="st0" d="M-150.1,391.6l4.2-3c1-0.6,1.5-1.3,1.7-1.9c0.2-0.6,0-1.2-0.4-1.9c-0.5-0.7-1-1-1.6-1c-0.6,0-1.4,0.3-2.4,1
		l-4.2,3L-150.1,391.6L-150.1,391.6z"/>
	<path class="st0" d="M-144.6,399.4l4.4-3.1c1-0.8,1.7-1.5,1.9-2.2c0.2-0.7,0-1.5-0.5-2.3c-0.6-0.9-1.2-1.3-2-1.3s-1.6,0.3-2.7,1.1
		l-4.4,3.1L-144.6,399.4L-144.6,399.4z"/>
	<polygon class="st0" points="-166.6,398.2 -163.6,407.6 -158.6,404.1 	"/>
</g>
</svg>
