<?xml version="1.0" encoding="utf-8"?>
<!-- Generator: Adobe Illustrator 19.1.0, SVG Export Plug-In . SVG Version: 6.00 Build 0)  -->
<svg version="1.1" id="svg2527" xmlns:svg="http://www.w3.org/2000/svg"
	 xmlns="http://www.w3.org/2000/svg" xmlns:xlink="http://www.w3.org/1999/xlink" x="0px" y="0px" viewBox="-23 95.4 565 603.6"
	 style="enable-background:new -23 95.4 565 603.6;" xml:space="preserve">
<style type="text/css">
	.st0{fill:none;}
	.st1{fill:#FFFFFF;}
	.st2{fill:#EE4120;}
</style>
<g id="layer1" transform="translate(10.145484,364.94579)">
	<path id="path2617" class="st0" d="M-23,95.4"/>
	<g id="g3442" transform="translate(-220.77885,44.796564)">
	</g>
	<g id="g3517">
		<path id="path2660" d="M110.1,131.6L-33.1-70.9v-99.3v-99.3h282.5h282.5l0,99.2l0,99.3L396.7,125.4
			c-74.3,108.1-137,199.2-139.2,202.6l-4.1,6.1L110.1,131.6z M384.9,114.4L515.9-76.1v-88.8v-88.8H249.4H-17.1v88.8v88.8
			l132.6,187.4c73,103.1,133.6,188.9,134.7,190.7c1.2,1.8,2.5,3.1,2.9,3C253.6,305,312.9,219.1,384.9,114.4z M262.9,95.1V-63.6
			h111.1c88.6,0,110.9,0.3,110.3,1.2c-1.6,2.7-219.6,314.3-220.4,315.2C263.2,253.4,262.9,189.3,262.9,95.1z M4.9-156.6v-79h244.5
			h244.5v79v79H249.4H4.9V-156.6z M477.9-156.1v-62.5H249.4H20.9v62.5v62.5h228.5h228.5V-156.1z M222.2-105.7
			c-27.6-4.6-43.4-28.9-36.8-56.8c4-16.9,16.7-28.7,35.3-32.6c17.6-3.7,36.2,0.3,47.2,10.2c3.6,3.2,10,14.1,10,16.8
			c0,0.6-5.2,2.2-11.8,3.5c-6.5,1.3-12.2,2.5-12.8,2.7c-0.6,0.2-2-1.9-3.3-4.6c-3-6.5-8-9.1-17.6-9.1c-14.2,0-21.5,8.3-21.6,24.2
			c-0.1,16.6,7.4,25.8,21.2,25.8c10,0,15.3-3.6,18.7-12.6c1-2.7,2.2-4.9,2.7-4.9c0.5,0,6.2,1.3,12.6,3c11.5,2.9,11.8,3,11.2,5.5
			c-2.4,10.1-13.2,22.2-22.9,25.9C244.3-104.9,233.1-103.9,222.2-105.7z M362.4-106.1c-13.6-2.8-25.2-10.3-31.7-20.5
			c-6-9.4-8.3-23.7-5.7-34.9c2.5-10.9,10.5-21.7,20.1-27.4c14.7-8.6,39-10.1,56.6-3.6c8,3,17.3,12.2,19.7,19.6
			c1,2.9,1.6,5.5,1.3,5.8c-0.5,0.5-24.9,4.6-25.3,4.2c-0.1-0.1-1-1.8-1.9-3.8c-2.7-5.8-7.7-8.4-16.9-8.9c-10.4-0.5-16,1.2-21.3,6.3
			c-5.2,5-6.8,10.3-6.2,20.3c0.6,9.8,3.7,15.7,10.2,19.8c4.6,2.8,5.4,3,15.4,3c8.8,0,11.4-0.4,15.3-2.2c4.2-1.9,4.8-2.6,4.8-5.2
			v-3.1h-11.5h-11.5v-10v-10h25h25l-0.3,19.2l-0.3,19.2l-9,4.5c-5,2.5-12.4,5.4-16.5,6.4C387.8-104.8,371.3-104.2,362.4-106.1z
			 M41-117.3c2.8-5.9,12-25.7,20.6-44l15.6-33.3l12.9,0.3l12.9,0.3l21.4,43.8l21.4,43.8h-14.2h-14.2l-4.3-9l-4.3-9H90.4H72.2l-3.9,9
			l-3.9,9H50.2H36L41-117.3z M98.9-146c0-1.2-8.2-17.6-8.8-17.6c-0.6,0-5.2,9.9-7.9,16.8c-0.4,0.9,1.6,1.2,8.1,1.2
			C95-145.6,98.9-145.8,98.9-146z M151.9-117.6v-11h12.5h12.5v11v11h-12.5h-12.5V-117.6z M287.9-117.6v-11h13h13v11v11h-13h-13
			V-117.6z M435.9-117.6v-11h12.5h12.5v11v11h-12.5h-12.5V-117.6z"/>
		<path id="path3490" class="st1" d="M250.4,302.2c-1.2-1.8-61.8-87.6-134.7-190.7L-17-75.8v-88.8v-88.8h266.5H516v88.8V-76
			L385.1,114.5c-72,104.8-131.3,190.6-131.8,190.7C252.9,305.3,251.5,304,250.4,302.2z M242.5-63.3c-0.4-1-23.6-1.2-111.6-1.2
			c-98.8,0-111.1,0.2-110.6,1.5c0.6,1.6,217.9,312.7,220.5,315.8c1.5,1.7,1.6-11.3,1.9-156.5C242.9,9.3,242.8-62.6,242.5-63.3z
			 M374.2,95.5C434.3,9.4,483.9-61.6,484.3-62.3c0.6-1-21.7-1.2-110.3-1.2H263V95.2c0,94.2,0.4,158.3,0.9,157.8
			C264.4,252.4,314,181.6,374.2,95.5z M494-156.5v-79H249.5H5v79v79h244.5H494V-156.5z M21-156v-62.5h228.5H478v62.5v62.5H249.5H21
			V-156z M242.8-105.5c10.2-1.7,16.7-4.6,23-10.5c5.4-5,10.3-12.8,11.7-18.5c0.6-2.5,0.3-2.6-11.2-5.5c-6.5-1.6-12.2-3-12.6-3
			s-1.7,2.2-2.7,4.9c-3.4,9.1-8.7,12.6-18.7,12.6c-13.8,0-21.3-9.2-21.2-25.8c0.1-15.9,7.5-24.2,21.6-24.2c9.6,0,14.6,2.6,17.6,9.1
			c1.2,2.7,2.7,4.8,3.3,4.6c0.6-0.2,6.3-1.4,12.8-2.7c6.6-1.3,11.8-2.9,11.8-3.5c0-2.8-6.4-13.6-10-16.8
			c-13.9-12.6-40.1-15.3-59.4-6.1c-7.2,3.4-15.4,11-18.9,17.2c-7.2,13.2-7.5,32.1-0.7,45.3C197.8-111.2,219.9-101.8,242.8-105.5z
			 M398-107.1c4.1-1,11.5-3.9,16.5-6.4l9-4.5l0.3-19.2l0.3-19.2h-25h-25v10v10h11.5H397v3.1c0,2.7-0.6,3.3-4.8,5.2
			c-3.9,1.8-6.6,2.2-15.3,2.2c-10,0-10.8-0.2-15.4-3c-6.5-4-9.6-10-10.2-19.8c-0.6-10,1-15.3,6.2-20.3c5.3-5.1,10.9-6.8,21.3-6.3
			c9.2,0.4,14.1,3,16.9,8.9c0.9,1.9,1.7,3.6,1.9,3.8c0.3,0.4,24.7-3.7,25.3-4.2c0.2-0.2-0.3-2.8-1.3-5.8
			c-2.5-7.4-11.8-16.7-19.7-19.6c-17.6-6.6-41.9-5-56.6,3.6c-24.7,14.5-28.5,50.2-7.6,70.6c5.1,5,16.2,10.4,24.9,12.2
			C371.4-104.2,388-104.7,398-107.1z M68.4-115.5l3.9-9h18.2h18.2l4.3,9l4.3,9h14.2h14.2l-21.4-43.8L103.1-194l-12.9-0.3l-12.9-0.3
			l-15.6,33.3c-8.6,18.3-17.8,38.1-20.6,44l-5,10.8h14.2h14.2L68.4-115.5z M82.2-146.8c2.7-6.9,7.3-16.7,7.9-16.7
			c0.6,0,8.8,16.4,8.8,17.6c0,0.2-3.9,0.4-8.6,0.4C83.9-145.5,81.9-145.8,82.2-146.8z M177-117.5v-11h-12.5H152v11v11h12.5H177
			V-117.5z M314-117.5v-11h-13h-13v11v11h13h13V-117.5z M461-117.5v-11h-12.5H436v11v11h12.5H461V-117.5z"/>
		<path id="path3505" class="st2" d="M240.8,253C238.1,249.9,20.9-61.3,20.3-62.9c-0.5-1.3,11.8-1.5,110.6-1.5
			c88,0,111.2,0.3,111.6,1.2c0.3,0.7,0.4,72.5,0.2,159.6C242.4,241.7,242.3,254.7,240.8,253z"/>
	</g>
</g>
</svg>
