<?xml version="1.0" encoding="utf-8"?>
<!-- Generator: Adobe Illustrator 19.1.0, SVG Export Plug-In . SVG Version: 6.00 Build 0)  -->
<svg version="1.1" id="Layer_1" xmlns="http://www.w3.org/2000/svg" xmlns:xlink="http://www.w3.org/1999/xlink" x="0px" y="0px"
	 viewBox="-192.8 308.7 160.4 175.7" style="enable-background:new -192.8 308.7 160.4 175.7;" xml:space="preserve">
<style type="text/css">
	.st0{fill:#FFFFFF;}
	.st1{fill:#55AB55;}
</style>
<g>
	<path class="st0" d="M-112.8,310.9c0,0,37.8,25.1,77.3,7.8c14.6,120.7-77.7,163.6-77.7,163.6s-87.1-38.3-77.5-163.6
		C-142.9,336.4-112.8,310.9-112.8,310.9z"/>
	<path class="st1" d="M-188.9,317.1c10.9,4.7,22.4,7.1,34.8,6.1c12.5-1,25.8-5.3,40.5-13.9l1-0.6l1,0.6c14.6,8.6,28,12.9,40.5,13.9
		c12.4,1,23.9-1.4,34.8-6.1l2.5-1.1l0.3,2.7v0c1,9.7,1.4,19.1,1.2,28.4c-0.2,9.3-1,18.4-2.5,27.3c-7.5,45.8-31.9,85-76.7,109.5
		l-0.9,0.5l-0.9-0.5l0,0c-8.7-4.7-16.6-10-23.8-15.7c-7.2-5.8-13.6-12.1-19.4-18.8c-29.4-34.7-39.9-81.1-34.8-130.7l0.3-2.7
		L-188.9,317.1L-188.9,317.1z M-153.8,327.2c-12.1,0.9-23.4-1.1-34.2-5.4c-4.3,47.6,6,92,34.2,125.1c5.6,6.6,11.8,12.7,18.8,18.3
		c6.7,5.4,14.2,10.4,22.3,14.8c43-23.9,66.5-61.9,73.8-106.2c1.4-8.7,2.2-17.6,2.4-26.8c0.2-8.3-0.1-16.8-0.9-25.3
		c-10.7,4.3-22,6.4-34.2,5.4c-12.7-1-26.3-5.3-41.2-13.8C-127.4,321.9-141.1,326.2-153.8,327.2L-153.8,327.2z"/>
	<path class="st1" d="M-132.4,366.8h37.8c10.2,21.6,16.1,43.7,16.5,66.3c-2.1,4.5-7.1,4.6-8.8,0c0.1-5.7-0.4-11.7-2.2-18.4h-48.4
		c-1,6.1-1.5,12.3-1.5,18.4c-1.3,4.8-6.8,4.5-8.9,0C-147.2,409.1-142.9,386.8-132.4,366.8L-132.4,366.8z"/>
	<path class="st0" d="M-136.8,406.9h46.2c-1.3-11.3-4.9-21.8-9.2-32h-27.2C-132,385-134.7,395.8-136.8,406.9L-136.8,406.9z"/>
	<path class="st1" d="M-111.8,389.6h32.3c3.6,2.4,3.6,5.1,0,8.1l-34.1,0L-111.8,389.6L-111.8,389.6z"/>
	<path class="st1" d="M-136.1,334c-4.1,1.7-3.8,6.4,0,7.7h18.3v112c1.5,5.4,8,4,8.8,0l-0.4-112h26.8c4.2-1.2,4.2-6.6,0-7.7H-136.1
		L-136.1,334z"/>
	<path class="st1" d="M-82.9,367.4c-30.8-28.6-65.5-6.7-67.5,23.9c0.4,30,36.7,55.2,69.4,22.8c4.8-1.6,7.6,1.5,5.5,5.9
		c-47.2,42.8-84.5-3.7-82.9-28c-0.9-35.4,44.5-65.7,80.6-30.1C-76.3,366.4-78.9,369-82.9,367.4L-82.9,367.4z"/>
</g>
</svg>
