<?xml version="1.0" encoding="utf-8"?>
<!-- Generator: Adobe Illustrator 19.1.0, SVG Export Plug-In . SVG Version: 6.00 Build 0)  -->
<svg version="1.1" id="Layer_1" xmlns="http://www.w3.org/2000/svg" xmlns:xlink="http://www.w3.org/1999/xlink" x="0px" y="0px"
	 viewBox="-161 247 288.4 300" style="enable-background:new -161 247 288.4 300;" xml:space="preserve">
<style type="text/css">
	.st0{fill:#048546;}
	.st1{fill:#FFFFFF;}
	.st2{fill:#E63135;}
</style>
<title>Boa Esporte Clube</title>
<g transform="translate(-21.5,-133.59379)">
	<path class="st0" d="M4.7,419.7c60.1,0,108.8,48.3,108.8,107.8S64.8,635.3,4.7,635.3S-104,587-104,527.5S-55.3,419.7,4.7,419.7
		L4.7,419.7z"/>
	<path class="st1" d="M3.2,380.7l35.6,103.8l109.9-1.2l-88,65.1l36.4,106.2L6,588.8l-88.6,66.8l32.5-105.5l-89.3-64.3l109.5-1
		L3.2,380.7z"/>
	<path class="st2" d="M3.4,395.4l32.7,93.3L134,488l-78,59.6l31.3,92.9L6,583.5l-79,58.8l28.4-94.1l-80.4-57.6l98.2-1.3L3.4,395.4
		L3.4,395.4z"/>
	<path class="st1" d="M5.4,483.2c26.8,0,48.6,21.8,48.6,48.6c0,26.8-21.8,48.6-48.6,48.6s-48.6-21.8-48.6-48.6
		S-21.4,483.2,5.4,483.2L5.4,483.2z"/>
	<path class="st2" d="M-42,637.9h17.3c2.9,0,5.1,0.7,6.6,2.1c1.5,1.4,2.3,3.2,2.3,5.3c0,1.8-0.6,3.3-1.7,4.6c-0.7,0.8-1.8,1.5-3.2,2
		c2.1,0.5,3.7,1.4,4.7,2.7c1,1.3,1.5,2.8,1.5,4.7c0,1.6-0.4,2.9-1.1,4.2c-0.7,1.2-1.7,2.2-3,2.9c-0.8,0.4-1.9,0.8-3.5,1
		c-2.1,0.3-3.5,0.4-4.1,0.4h-16L-42,637.9L-42,637.9z M-32.6,649.6h4c1.4,0,2.4-0.3,3-0.7c0.6-0.5,0.8-1.2,0.8-2.2
		c0-0.9-0.3-1.6-0.8-2c-0.6-0.5-1.6-0.7-3-0.7h-4.1V649.6L-32.6,649.6z M-32.6,661.4h4.7c1.6,0,2.7-0.3,3.4-0.8c0.7-0.6,1-1.3,1-2.3
		c0-0.9-0.3-1.6-1-2.1c-0.6-0.5-1.8-0.8-3.4-0.8h-4.7V661.4z M-10.6,652.9c0-4.9,1.4-8.7,4.1-11.4c2.7-2.7,6.5-4.1,11.4-4.1
		c5,0,8.8,1.3,11.5,4c2.7,2.7,4,6.4,4,11.2c0,3.5-0.6,6.4-1.8,8.6c-1.2,2.2-2.9,4-5.1,5.2c-2.2,1.2-5,1.9-8.3,1.9
		c-3.4,0-6.2-0.5-8.4-1.6c-2.2-1.1-4-2.8-5.4-5.1C-9.9,659.3-10.6,656.4-10.6,652.9z M-1.3,652.9c0,3,0.6,5.2,1.7,6.5
		c1.1,1.3,2.7,2,4.6,2c2,0,3.5-0.6,4.6-1.9c1.1-1.3,1.6-3.6,1.6-7c0-2.8-0.6-4.9-1.7-6.2c-1.1-1.3-2.7-1.9-4.6-1.9
		c-1.9,0-3.4,0.7-4.5,2C-0.8,647.7-1.3,649.9-1.3,652.9z M42.4,662.9H31.9l-1.5,4.9H21l11.3-29.9h10.1l11.3,29.9h-9.7L42.4,662.9
		L42.4,662.9z M40.5,656.4l-3.3-10.8l-3.3,10.8H40.5z"/>
	<path class="st2" d="M-13,505h26.8c4.5,0,7.9,1.2,10.3,3.6c2.4,2.4,3.6,5.3,3.6,8.8c0,2.9-0.9,5.5-2.6,7.6c-1.1,1.4-2.8,2.5-5,3.3
		c3.3,0.9,5.8,2.3,7.3,4.4c1.6,2.1,2.3,4.7,2.3,7.9c0,2.6-0.6,4.9-1.7,7c-1.1,2.1-2.6,3.7-4.6,4.9c-1.2,0.7-3,1.3-5.4,1.6
		c-3.2,0.5-5.4,0.7-6.4,0.7H-13L-13,505L-13,505z M1.4,524.5h6.2c2.2,0,3.8-0.4,4.7-1.2c0.9-0.8,1.3-2,1.3-3.6
		c0-1.4-0.4-2.6-1.3-3.4c-0.9-0.8-2.4-1.2-4.6-1.2H1.4L1.4,524.5L1.4,524.5z M1.4,544h7.3c2.5,0,4.2-0.5,5.2-1.4
		c1-0.9,1.5-2.2,1.5-3.8c0-1.5-0.5-2.7-1.5-3.5c-1-0.9-2.7-1.3-5.3-1.3H1.4V544z"/>
	<path class="st2" d="M-40.8,673.1h6.1v1.6h-3.8v1.2h3.5v1.5h-3.5v1.4h3.9v1.7h-6.2V673.1z M-33.7,678l2.2-0.1
		c0,0.4,0.1,0.6,0.3,0.8c0.2,0.3,0.6,0.4,1,0.4c0.3,0,0.6-0.1,0.7-0.2c0.2-0.2,0.3-0.3,0.3-0.5c0-0.2-0.1-0.4-0.2-0.5
		c-0.2-0.2-0.6-0.3-1.2-0.4c-1-0.2-1.7-0.5-2.1-0.9c-0.4-0.4-0.6-0.8-0.6-1.4c0-0.4,0.1-0.7,0.3-1.1c0.2-0.3,0.5-0.6,1-0.8
		c0.4-0.2,1-0.3,1.8-0.3c0.9,0,1.7,0.2,2.1,0.5c0.5,0.3,0.8,0.9,0.9,1.7l-2.1,0.1c-0.1-0.3-0.2-0.6-0.4-0.7
		c-0.2-0.1-0.4-0.2-0.8-0.2c-0.3,0-0.5,0.1-0.6,0.2c-0.1,0.1-0.2,0.2-0.2,0.4c0,0.1,0.1,0.2,0.2,0.3c0.1,0.1,0.4,0.2,0.8,0.3
		c1,0.2,1.7,0.4,2.1,0.6c0.4,0.2,0.7,0.5,0.9,0.8c0.2,0.3,0.3,0.7,0.3,1.1c0,0.5-0.1,0.9-0.4,1.3c-0.3,0.4-0.6,0.7-1.1,0.9
		c-0.5,0.2-1.1,0.3-1.8,0.3c-1.2,0-2.1-0.2-2.6-0.7C-33.4,679.4-33.7,678.7-33.7,678L-33.7,678z M-25.9,673.1h3.8
		c0.8,0,1.4,0.2,1.8,0.6c0.4,0.4,0.6,0.9,0.6,1.7c0,0.7-0.2,1.3-0.7,1.7c-0.4,0.4-1.1,0.6-2,0.6h-1.2v2.7h-2.3L-25.9,673.1
		L-25.9,673.1z M-23.7,676.2h0.6c0.4,0,0.7-0.1,0.9-0.2c0.2-0.2,0.3-0.3,0.3-0.6c0-0.2-0.1-0.4-0.2-0.6c-0.2-0.2-0.4-0.2-0.9-0.2
		h-0.6C-23.7,674.6-23.7,676.2-23.7,676.2z M-18.8,676.8c0-1.2,0.3-2.1,1-2.8c0.7-0.7,1.6-1,2.8-1c1.2,0,2.2,0.3,2.8,1
		c0.7,0.7,1,1.6,1,2.8c0,0.9-0.1,1.6-0.4,2.1c-0.3,0.5-0.7,1-1.3,1.3c-0.5,0.3-1.2,0.5-2,0.5c-0.8,0-1.5-0.1-2.1-0.4
		c-0.5-0.3-1-0.7-1.3-1.3C-18.6,678.3-18.8,677.6-18.8,676.8L-18.8,676.8z M-16.5,676.8c0,0.7,0.1,1.3,0.4,1.6
		c0.3,0.3,0.7,0.5,1.1,0.5c0.5,0,0.9-0.2,1.1-0.5c0.3-0.3,0.4-0.9,0.4-1.7c0-0.7-0.1-1.2-0.4-1.5c-0.3-0.3-0.7-0.5-1.1-0.5
		c-0.5,0-0.8,0.2-1.1,0.5C-16.4,675.5-16.5,676-16.5,676.8L-16.5,676.8z M-9.9,680.4v-7.3h3.8c0.7,0,1.2,0.1,1.6,0.2
		c0.4,0.1,0.7,0.3,0.9,0.7c0.2,0.3,0.3,0.7,0.3,1.2c0,0.4-0.1,0.8-0.3,1.1c-0.2,0.3-0.4,0.5-0.7,0.7c-0.2,0.1-0.5,0.2-0.8,0.3
		c0.3,0.1,0.5,0.2,0.6,0.3c0.1,0.1,0.2,0.2,0.4,0.4c0.2,0.2,0.3,0.3,0.3,0.5l1.1,2.1h-2.6l-1.2-2.2c-0.2-0.3-0.3-0.5-0.4-0.6
		c-0.2-0.1-0.3-0.2-0.6-0.2h-0.2v3H-9.9z M-7.7,676.1h1c0.1,0,0.3,0,0.6-0.1c0.2,0,0.3-0.1,0.4-0.2c0.1-0.1,0.1-0.3,0.1-0.4
		c0-0.2-0.1-0.4-0.2-0.5c-0.2-0.1-0.4-0.2-0.8-0.2h-1L-7.7,676.1L-7.7,676.1z M-2.6,673.1h6.9v1.8H2v5.5h-2.3v-5.5h-2.3V673.1z
		 M5.3,673.1h6.1v1.6H7.6v1.2h3.5v1.5H7.6v1.4h3.9v1.7H5.3V673.1z M21.1,677.4l2,0.6c-0.1,0.6-0.3,1-0.6,1.4
		c-0.3,0.4-0.6,0.7-1.1,0.8c-0.4,0.2-1,0.3-1.6,0.3c-0.8,0-1.5-0.1-2-0.3c-0.5-0.2-0.9-0.6-1.3-1.2c-0.4-0.6-0.6-1.3-0.6-2.2
		c0-1.2,0.3-2.2,1-2.8c0.6-0.7,1.6-1,2.7-1c0.9,0,1.7,0.2,2.2,0.6c0.5,0.4,0.9,0.9,1.2,1.7l-2,0.4c-0.1-0.2-0.1-0.4-0.2-0.5
		c-0.1-0.2-0.3-0.3-0.5-0.4c-0.2-0.1-0.4-0.1-0.6-0.1c-0.5,0-0.9,0.2-1.2,0.6c-0.2,0.3-0.3,0.8-0.3,1.4c0,0.8,0.1,1.4,0.4,1.7
		c0.2,0.3,0.6,0.5,1,0.5c0.4,0,0.8-0.1,1-0.4C20.8,678.2,21,677.9,21.1,677.4L21.1,677.4z M24.1,673.1h2.3v5.5H30v1.8h-5.8V673.1z
		 M35.5,673.1h2.3v4.4c0,0.4-0.1,0.8-0.2,1.2c-0.1,0.4-0.3,0.7-0.6,1c-0.3,0.3-0.6,0.5-0.9,0.6c-0.4,0.2-1,0.2-1.6,0.2
		c-0.4,0-0.7,0-1.2-0.1c-0.4-0.1-0.8-0.1-1.1-0.3c-0.3-0.1-0.5-0.4-0.8-0.6s-0.4-0.6-0.5-0.8c-0.1-0.5-0.2-0.9-0.2-1.2v-4.4H33v4.5
		c0,0.4,0.1,0.7,0.3,0.9c0.2,0.2,0.5,0.3,0.9,0.3c0.4,0,0.7-0.1,0.9-0.3c0.2-0.2,0.3-0.5,0.3-0.9L35.5,673.1L35.5,673.1z
		 M39.3,673.1h4.3c0.7,0,1.3,0.2,1.6,0.5c0.4,0.4,0.6,0.8,0.6,1.3c0,0.4-0.1,0.8-0.4,1.1c-0.2,0.2-0.4,0.4-0.8,0.5
		c0.5,0.1,0.9,0.3,1.2,0.7c0.2,0.3,0.4,0.7,0.4,1.2c0,0.4-0.1,0.7-0.3,1c-0.2,0.3-0.4,0.5-0.7,0.7c-0.2,0.1-0.5,0.2-0.9,0.2
		c-0.5,0.1-0.8,0.1-1,0.1h-3.9L39.3,673.1L39.3,673.1z M41.6,676h1c0.4,0,0.6-0.1,0.7-0.2c0.1-0.1,0.2-0.3,0.2-0.5
		c0-0.2-0.1-0.4-0.2-0.5c-0.1-0.1-0.4-0.2-0.7-0.2h-1L41.6,676L41.6,676z M41.6,678.8h1.2c0.4,0,0.7-0.1,0.8-0.2
		c0.2-0.1,0.2-0.3,0.2-0.6c0-0.2-0.1-0.4-0.2-0.5c-0.2-0.1-0.4-0.2-0.8-0.2h-1.2V678.8z M47.3,673.1h6.1v1.6h-3.8v1.2h3.5v1.5h-3.5
		v1.4h3.9v1.7h-6.2V673.1z"/>
</g>
</svg>
