<?xml version="1.0" encoding="utf-8"?>
<!-- Generator: Adobe Illustrator 19.1.0, SVG Export Plug-In . SVG Version: 6.00 Build 0)  -->
<svg version="1.1" id="Layer_1" xmlns="http://www.w3.org/2000/svg" xmlns:xlink="http://www.w3.org/1999/xlink" x="0px" y="0px"
	 viewBox="-201 281.4 208.1 231.6" style="enable-background:new -201 281.4 208.1 231.6;" xml:space="preserve">
<style type="text/css">
	.st0{fill:#FFFFFF;}
</style>
<g>
	<path d="M7,335.5l0.1-32c-31.8,8.2-64.6-11.5-64.6-11.5c-22.9-11.5-39.4-10.6-39.4-10.6s-16.6-0.9-39.5,10.6
		c0,0-32.9,19.8-64.6,11.5l0.1,32C-201.6,461.5-96.8,513-96.8,513S7.7,461.5,7,335.5L7,335.5z"/>
	<path class="st0" d="M-96.8,501.7c0,0-95.6-54.6-95.7-161.3l-0.1-25.4c39.6-0.2,61.5-14.6,61.5-14.6c21-10.6,34.3-9.8,34.3-9.8
		s13.3-0.8,34.3,9.8c0,0,21.9,14.4,61.5,14.6l-0.1,25.4C-1.3,447.2-96.8,501.7-96.8,501.7L-96.8,501.7z M-12.6,343.1L-12.6,343.1
		l0.1-16.4c-30.1,0.1-54.1-14.8-54.1-14.8c-18.5-9.3-30.3-8.6-30.3-8.6s-11.7-0.7-30.2,8.6c0,0-24,14.9-54.1,14.8l0.1,16.4
		c-0.3,91.4,84.2,145.9,84.2,145.9S-12.2,434.5-12.6,343.1L-12.6,343.1z"/>
	<polygon class="st0" points="-96.9,319.7 -83.4,361.1 -39.9,361.1 -75.1,386.7 -61.6,428.1 -96.9,402.5 -132.1,428.1 -118.6,386.7 
		-153.9,361.1 -110.3,361.1 	"/>
</g>
</svg>
