<?xml version="1.0" encoding="utf-8"?>
<!-- Generator: Adobe Illustrator 19.1.0, SVG Export Plug-In . SVG Version: 6.00 Build 0)  -->
<svg version="1.1" id="Layer_1" xmlns="http://www.w3.org/2000/svg" xmlns:xlink="http://www.w3.org/1999/xlink" x="0px" y="0px"
	 viewBox="-206.2 308.8 187.1 175.6" style="enable-background:new -206.2 308.8 187.1 175.6;" xml:space="preserve">
<style type="text/css">
	.st0{fill:#FFFFFF;}
	.st1{fill:none;stroke:#000000;stroke-width:2.6154;stroke-miterlimit:2.6131;}
</style>
<g>
	<path class="st0" d="M-112.6,480.1c-24.6-21.2-67.7-13.3-80.9-33.2c-20-30.5,1.6-52.1,1.6-76.5c0-6-1.6-21.4-10.2-29.1l13.9-27.9
		c27,15.8,51.8,18.4,75.6-0.2c23.7,18.6,48.5,16,75.5,0.2l13.9,27.9c-8.6,7.7-10.2,23-10.2,29.1c0,24.4,21.6,46,1.6,76.5
		C-45,466.9-88,459-112.6,480.1L-112.6,480.1z"/>
	<path d="M-30.1,370.4c0-6.9,1.9-20.2,9.1-26.6l1.9-1.7l-16.6-33.3l-3,1.8c-28.1,16.5-50.9,16.5-71.8,0l-2-1.6l-2,1.6
		c-21,16.4-43.8,16.4-71.9,0l-3-1.8l-16.6,33.3l1.9,1.7c7.2,6.4,9.1,19.8,9.1,26.6c0,7.7-2.3,15.2-4.8,23.2
		c-4.9,15.8-10.4,33.6,3.7,55.1c7.5,11.3,22.8,14.5,39.1,17.8c15.2,3.1,31,6.3,42.4,16.2l2.1,1.8l2.1-1.8
		c11.4-9.8,27.2-13.1,42.4-16.2c16.2-3.3,31.6-6.5,39.1-17.8c14.1-21.5,8.6-39.4,3.7-55.1C-27.8,385.6-30.1,378.1-30.1,370.4
		L-30.1,370.4z M-193.7,395.5c2.5-8.1,5.1-16.4,5.1-25.1c0-2.1-0.3-19.5-9.5-29.7c1.6-3.2,9.1-18.3,11.4-22.7
		c28.1,15.5,52.4,15.3,74.2-0.7c18.1,13.3,37.9,15.7,60.2,7.2l-146.3,97.3c0-0.5,0-1,0-1.5C-198.7,411.8-196.2,403.7-193.7,395.5
		L-193.7,395.5z M-89.2,464.7c-5.1,1.5-10.1,3.4-14.8,5.8v-77.3l14.8-10V464.7L-89.2,464.7z M-119.8,471.2
		c-4.7-2.6-9.7-4.5-14.9-6.1v-51.5l14.9-10V471.2L-119.8,471.2z M-180.7,453.1c-2.5-1.2-4.8-2.6-6.7-4.3l6.7-4.6V453.1L-180.7,453.1
		z M-165.8,457.9v-23.3l15.3-10.2v36.8c-1.8-0.4-3.6-0.7-5.4-1.1C-159.3,459.3-162.6,458.6-165.8,457.9L-165.8,457.9z M-69.4,460
		c-1.5,0.3-3,0.6-4.4,0.9v-88l15.8-10.7v95.3C-61.6,458.4-65.4,459.2-69.4,460L-69.4,460z M-34.5,445.1c-2.1,3.1-5,5.5-8.6,7.4v-100
		l13.6-8.7c-6.9,10.3-7.1,24.7-7.1,26.6c0,8.7,2.6,17,5.1,25.1c2.6,8.3,5,16.3,5,24.8C-26.5,428-28.6,436.1-34.5,445.1L-34.5,445.1z
		"/>
	<path class="st1" d="M-159.2,338.9c11.4,0,20.7,9.3,20.7,20.7c0,11.4-9.3,20.7-20.7,20.7c-11.4,0-20.7-9.3-20.7-20.7
		C-179.9,348.2-170.6,338.9-159.2,338.9 M-169.4,341.3c1.4,2.6,1.9,5.8,1.2,10c-3.7,1.9-2.1,5.1-2.6,8.1c-2.1,3.3-3,5.8-1.4,8.6
		c-0.5,1.9-1.2,4.2-0.9,6.5 M-178.5,352.4c2.3,1.4,5.1,2.3,7.4,3.5 M-171.3,359.4c8.8,5.1,15.1,4.2,23.7,1.4 M-149,342.2
		c-1.6,3.3-2.1,6.7-0.5,10.7c-6.3,0.5-12.8,0.2-19.3-0.7 M-158.7,338.5c0,2.6,0,4.6,0.2,7.2 M-139.4,354.5
		c-3.7,1.4-7.2,0.9-10.2-1.4c3.3,1.2,2.6,4.4,1.9,7.7c1.9,5.1,0.7,7.4-1.2,9.8c0.7,1.6,1.6,4,1.9,5.8 M-149.4,370.1
		c-7.9,2.1-16,1.2-22.8-2.1 M-160.4,371.5c0,2.8,0.5,5.8,1.2,8.8"/>
	<path class="st0" d="M-183,425c-0.7-0.6-2-1.7-4.1-0.3c-1.2,0.8-2.5,2.8-0.2,6.2c1.4,2.2,3.6,3.5,5.7,2.1c1.4-0.9,1.8-2.4,1.2-4
		l2.5-1.7c1.2,3,0.7,5.9-2.3,7.9c-3.2,2.1-7,1.5-9.7-2.7c-2.8-4.2-1.8-8,1.3-10.1c3.6-2.4,6.7-0.9,8,0.8L-183,425L-183,425z"/>
	<polygon class="st0" points="-170.7,428.5 -173.2,430.2 -174.8,427.7 -172.3,426 	"/>
	<path class="st0" d="M-169.6,414.3L-169.6,414.3l4.7,3.8l-3.1,2L-169.6,414.3L-169.6,414.3z M-167.2,422.6l4.5-3l2.4,2l2.7-1.8
		l-12.3-9.2l-2.9,1.9l3.7,14.9l2.7-1.8L-167.2,422.6L-167.2,422.6z"/>
	<polygon class="st0" points="-153.5,417.1 -156,418.8 -157.7,416.3 -155.1,414.6 	"/>
	<path class="st0" d="M-147.9,405.7l3.2-2.1c0.9-0.6,2.1-0.8,2.8,0.3c0.8,1.2,0.5,2.2-0.8,3l-3.1,2.1L-147.9,405.7L-147.9,405.7z
		 M-146.8,412.7l5.1-3.4c2.5-1.6,2.8-2.5,3.1-3.6c0.2-1,0-2.2-0.6-3.2c-0.8-1.2-2-2.1-3.8-1.7c0.3-0.6,1-1.7-0.2-3.5
		c-0.8-1.2-2.8-2.6-5.8-0.6l-5.9,3.9L-146.8,412.7L-146.8,412.7z M-151,401.1l2.9-1.9c1.1-0.8,2.1-0.9,2.7,0.1
		c0.6,1,0.1,1.9-0.9,2.5l-3,2L-151,401.1L-151,401.1z"/>
	<path class="st0" d="M-136.5,396.1l-2.1-3.2l3.1-2.1c1.5-1,2.4-0.2,2.8,0.4c0.8,1.2,0.5,2.1-0.9,2.9L-136.5,396.1L-136.5,396.1z
		 M-134.5,404.5l2.5-1.6l-3.1-4.7l2.6-1.7c1.9-1.2,2.4-0.7,3.5,1c0.8,1.2,1.3,1.8,1.9,2.3l2.8-1.9l-0.2-0.3c-0.7,0.2-1-0.3-2.1-2
		c-1.5-2.3-2.3-2.3-3.6-2c0.9-1.2,0.8-2.8,0-4.1c-0.7-1-2.9-3-6.1-0.9l-6.1,4.1L-134.5,404.5L-134.5,404.5z"/>
	<path class="st0" d="M-123.7,383.8L-123.7,383.8l4.7,3.8l-3.1,2L-123.7,383.8L-123.7,383.8z M-121.3,392.1l4.5-3l2.4,2l2.7-1.8
		l-12.3-9.2l-2.9,1.9l3.7,14.9l2.7-1.8L-121.3,392.1L-121.3,392.1z"/>
	<path class="st0" d="M-109.4,378.4l5-3.4l4.3,6.5l-1.7,1.1l-1.3-1.3c-0.1,1.2-0.3,2.9-2.5,4.3c-2.9,1.9-6.9,1.6-9.7-2.6
		c-2.2-3.3-2.4-7.6,1.7-10.3c3.7-2.5,6.8-1,8,0.6l-2.5,1.7c-0.3-0.5-2.2-1.4-4-0.2c-1.8,1.2-2.6,3.5-0.6,6.6c2.2,3.3,4.6,3,6.3,1.8
		c0.6-0.4,2.3-1.8,1.2-4.6l-2.8,1.9L-109.4,378.4L-109.4,378.4z"/>
	<path class="st0" d="M-98.9,367.4L-98.9,367.4l4.7,3.8l-3.1,2L-98.9,367.4L-98.9,367.4z M-96.6,375.7l4.5-3l2.4,2l2.7-1.8
		l-12.3-9.2l-2.9,1.9l3.7,14.9l2.7-1.8L-96.6,375.7L-96.6,375.7z"/>
	<polygon class="st0" points="-85.9,354.8 -83.5,353.2 -75.5,365.3 -78,366.9 -88.7,361.6 -88.7,361.6 -83,370.2 -85.3,371.8 
		-93.3,359.7 -90.7,358 -80.3,363.2 -80.3,363.2 	"/>
	<polygon class="st0" points="-67.8,360.1 -70.3,361.8 -76.9,351.9 -80.5,354.3 -82,352.2 -72.1,345.6 -70.7,347.8 -74.4,350.2 	"/>
	<polygon class="st0" points="-60.1,355.1 -62.7,356.7 -70.7,344.7 -68.2,343 	"/>
	<polygon class="st0" points="-58.3,336.4 -55.9,334.9 -47.9,346.9 -50.4,348.6 -61.1,343.3 -61.1,343.3 -55.4,351.9 -57.7,353.5 
		-65.8,341.4 -63.1,339.6 -52.7,344.9 -52.7,344.8 	"/>
	<path class="st0" d="M-47.3,337.9c-2.2-3.4-0.9-5.5,0.5-6.4c1.4-0.9,3.8-1.3,6.1,2c2.2,3.4,0.9,5.5-0.5,6.4
		C-42.6,340.8-45.1,341.2-47.3,337.9L-47.3,337.9z M-49.9,339.5c3.8,5.7,8.4,3.6,10,2.5s5.3-4.5,1.6-10.2c-3.8-5.7-8.4-3.6-10-2.5
		C-49.9,330.4-53.6,333.9-49.9,339.5L-49.9,339.5z"/>
</g>
</svg>
