<?xml version="1.0" encoding="utf-8"?>
<!-- Generator: Adobe Illustrator 19.1.0, SVG Export Plug-In . SVG Version: 6.00 Build 0)  -->
<svg version="1.1"
	 id="Layer_1" xmlns:rdf="http://www.w3.org/1999/02/22-rdf-syntax-ns#" xmlns:cc="http://creativecommons.org/ns#" xmlns:dc="http://purl.org/dc/elements/1.1/"
	 xmlns="http://www.w3.org/2000/svg" xmlns:xlink="http://www.w3.org/1999/xlink" x="0px" y="0px"
	 viewBox="-130.2 215.2 350.1 365.2" style="enable-background:new -130.2 215.2 350.1 365.2;" xml:space="preserve">
<style type="text/css">
	.st0{fill:#FFFFFF;}
	.st1{fill:#DB241C;}
</style>
<path class="st0" d="M42.9,578.6c-0.8,0-1.5-0.5-1.5-1s-0.6-1-1.3-1s-1.9-0.9-2.7-2c-0.8-1.1-2-2-2.7-2s-1.3-0.5-1.3-1s-0.7-1-1.5-1
	c-0.8,0-2.1-0.9-2.7-2c-0.7-1.1-1.7-2-2.4-2c-0.6,0-2.5-1.3-4.3-3c-1.7-1.6-3.6-3-4.1-3c-0.6,0-1-0.5-1-1s-0.5-1-1.1-1
	s-2.4-1.3-3.9-3c-1.5-1.6-3.2-3-3.7-3s-1.5-0.9-2.3-2c-0.8-1.1-1.9-2-2.5-2s-1.7-0.9-2.5-2c-0.8-1.1-1.9-2-2.5-2s-1.7-0.9-2.5-2
	c-0.8-1.1-1.9-2-2.5-2s-1.7-0.9-2.5-2c-0.8-1.1-1.8-2-2.3-2s-3.5-2.7-6.7-6s-6.2-6-6.5-6c-0.3,0-5-4.5-10.3-10
	c-5.3-5.5-11.6-12.1-14-14.7s-5.5-6.2-7-7.9c-1.5-1.7-3.4-4.1-4.2-5.4s-2.7-3.6-4.2-5.2s-2.8-3.3-2.8-3.7s-0.9-1.8-2-3.1
	s-2.4-2.9-2.9-3.5c-0.5-0.6-1.5-2.1-2.2-3.4c-0.7-1.3-1.7-2.9-2.2-3.4c-0.5-0.6-1.7-2.1-2.7-3.3c-1-1.2-2.6-4-3.6-6.2
	c-1-2.2-2.1-4-2.4-4c-0.3,0-3.8-6.6-7.7-14.8c-3.9-8.1-8.7-18.4-10.7-22.8s-3.8-9.1-4.2-10.5s-1.2-4.1-2-6c-0.8-1.9-2.3-6.9-3.5-11
	c-1.2-4.1-2.5-8.9-3-10.5c-0.5-1.6-1.6-5.5-2.5-8.7c-0.9-3.1-2.1-8.5-2.6-12c-0.5-3.5-1.4-8.8-1.9-11.8c-0.5-3-2.1-14.3-3.5-25
	c-2.2-16.6-2.6-23.7-2.8-47.5c-0.1-15.4,0.2-29.3,0.6-30.8c0.8-2.8,0.9-2.8,6-2c2.9,0.5,19.2,0.8,36.2,0.8c18,0,35.2-0.6,41-1.3
	c5.5-0.7,13.2-1.5,17-1.8c3.9-0.3,7.4-1,8-1.5c0.5-0.5,2.6-0.9,4.6-0.9s4-0.4,4.6-0.9s2.8-1.2,4.9-1.5s5.7-0.9,7.8-1.2s4-1,4.3-1.5
	c0.3-0.5,2.1-0.9,3.9-0.9c1.9,0,3.7-0.4,4-1c0.3-0.5,2.2-1,4.1-1c1.9,0,3.4-0.4,3.4-1c0-0.5,1.8-1,4-1s4-0.4,4-1c0-0.5,1.6-1,3.5-1
	s3.5-0.4,3.5-1c0-0.5,1.3-1,2.9-1s3.2-0.4,3.6-1c0.3-0.5,3-1,5.9-1c3.2,0,6.9,0.8,9.4,2c2.3,1.1,4.8,2,5.7,2s1.5,0.5,1.5,1
	c0,0.6,1.4,1,3,1s3,0.5,3,1c0,0.6,1.4,1,3,1s3,0.5,3,1c0,0.6,1.4,1,3,1s3,0.5,3,1c0,0.6,1.1,1,2.5,1s2.5,0.5,2.5,1c0,0.6,1.8,1,4,1
	s4,0.5,4,1c0,0.6,1.5,1,3.4,1s3.7,0.5,4.1,1c0.3,0.6,2.4,1,4.6,1s3.9,0.5,3.9,1c0,0.6,1.7,1,3.8,1s4.2,0.4,4.8,0.9
	c0.5,0.5,8.2,1.2,17,1.5c8.8,0.3,27.4,0.8,41.4,1.2c17.7,0.4,25.7,0.3,26.5-0.5c0.6-0.6,3.2-1.1,5.8-1.1c3.1,0,5.1,0.5,6,1.7
	c1,1.2,1.5,6.6,1.7,21.8c0.2,11.1-0.1,23.7-0.7,28.1c-0.6,4.4-1.3,11.4-1.6,15.5s-0.9,11.1-1.5,15.6s-1.7,11.9-2.5,16.5
	c-0.9,4.6-2.5,12.5-3.6,17.4c-1.1,4.9-2.5,10.8-3,13c-0.6,2.2-1.9,6.7-3,10c-1.1,3.3-2.4,7.6-2.8,9.5c-0.5,1.9-1.8,6-3,9
	s-2.5,6.6-3,8s-2.2,5.4-3.8,9c-1.7,3.6-4.5,9.8-6.3,13.8c-1.8,4-3.7,7.2-4.1,7.2s-0.8,0.7-0.8,1.5s-0.8,3.1-1.7,5
	c-0.9,1.9-2,3.5-2.4,3.5s-1.3,1.4-1.9,3s-1.6,3-2,3s-1.8,2.2-3,5s-2.7,5-3,5s-1.3,1.4-2,3s-1.6,3-2,3s-1.3,1.4-2,3s-2.5,4.4-4.1,6.1
	c-1.6,1.7-2.9,3.4-2.9,3.9s-1.7,2.6-3.8,4.8c-2.1,2.2-4.4,5-5.2,6.2s-2.7,3.6-4.2,5.4c-1.5,1.7-4.2,4.8-6,6.9
	c-1.8,2.1-8.1,8.7-14,14.8c-5.9,6-11,11-11.3,11c-0.3,0-3.2,2.7-6.5,6s-6.4,6-6.9,6s-1.1,0.5-1.1,1s-0.5,1-1.1,1s-2.4,1.4-3.9,3
	c-1.5,1.7-3.3,3-3.9,3c-0.6,0-1.1,0.5-1.1,1s-0.6,1-1.3,1s-1.9,0.9-2.7,2c-0.8,1.1-1.9,2-2.5,2s-1.7,0.9-2.5,2c-0.8,1.1-1.9,2-2.5,2
	s-1.7,0.9-2.5,2c-0.8,1.1-2.2,2-3.2,2s-2,0.9-2.3,2c-0.3,1.1-1.3,2-2.1,2s-1.4,0.5-1.4,1s-0.8,1-1.8,1s-2.4,0.9-3.2,2
	c-0.8,1.1-2,2-2.7,2s-1.3,0.5-1.3,1s-0.6,1-1.3,1c-0.7,0-2.3,0.9-3.5,2C45.4,577.7,43.7,578.6,42.9,578.6L42.9,578.6z"/>
<path class="st1" d="M43.5,580.5c-0.7,0-8.7-5.7-17.7-12.6c-9-6.9-20.8-16.2-26.2-20.5c-5.4-4.4-14.9-12.6-21.1-18.3
	c-6.2-5.7-15-14.2-19.5-19c-4.5-4.8-12-13.3-16.6-18.9s-10.6-13.3-13.4-17.2s-7.4-10.8-10.3-15.5c-2.9-4.7-8.3-14.4-11.9-21.5
	s-9-18.9-11.8-26s-6.3-17.1-7.7-22c-1.4-5-3.7-13.1-5-18c-1.3-5-3.3-13.7-4.4-19.5c-1.1-5.8-2.5-13.9-3.1-18
	c-0.6-4.1-1.8-14.2-2.6-22.5c-0.8-8.2-1.7-27-2.1-41.6c-0.3-14.6-0.3-27.8,0-29.2l0.7-2.6l28.7,0.6c18.7,0.4,33.8,0.2,43.2-0.6
	c8-0.7,20.4-2,27.6-3.1c7.2-1.1,17.5-2.9,23-4c5.5-1.2,16.7-3.9,24.9-6.1c8.2-2.2,18.7-5.1,23.2-6.5l8.2-2.6l18.5,6.6
	c10.2,3.6,23.2,7.9,28.9,9.5c5.7,1.6,15,3.8,20.8,5s14.3,2.5,18.9,3c4.7,0.5,14.4,1.3,21.5,1.6s22,0.1,33-0.5s22-1.4,24.4-1.7
	l4.4-0.6l-0.5,32.9c-0.4,25.6-1,36.5-2.6,49c-1.2,8.9-3.2,21.7-4.6,28.5s-4,18-5.9,24.9c-1.9,6.9-5.6,18.4-8.1,25.5
	c-2.6,7.1-7.9,19.7-11.9,28s-10.5,20.4-14.5,27s-10.4,16.4-14.3,21.9c-3.9,5.4-10.4,14-14.6,19s-12.8,14.5-19.1,21
	c-6.4,6.5-17.2,16.8-24.1,22.9S81.1,554.4,73.6,560c-7.5,5.6-17,12.5-21.2,15.4C48.2,578.2,44.2,580.5,43.5,580.5L43.5,580.5z
	 M43.9,565.5c0.4,0,5.3-3.3,10.9-7.2c5.6-4,16-12,23.2-17.7c7.2-5.8,19.8-17,28-25c8.2-8,18.3-18.6,22.6-23.5
	c4.2-5,10.4-12.6,13.7-17c3.3-4.4,8.3-11.4,11.1-15.5s8-12.6,11.6-18.7c3.5-6.2,8.9-16.8,11.9-23.5c3-6.7,7.2-16.7,9.2-22.1
	s5.4-16,7.6-23.5s5-19.5,6.4-26.7c1.4-7.2,3.2-18.4,4-25s2-20.5,2.6-30.9c0.6-10.5,1-22.8,0.8-27.4l-0.3-8.4l-34-0.1
	c-27.6-0.1-36.1-0.4-45-1.9c-6.1-1-16.4-3.1-23-4.7c-6.6-1.6-17.4-4.6-24-6.8s-16.4-5.5-21.7-7.5l-9.7-3.5l-10.3,3
	c-5.7,1.6-17.3,4.7-25.8,6.9c-8.5,2.1-21.7,5-29.2,6.4s-20.6,3.3-29,4.2c-10.8,1.2-23.9,1.7-44.2,1.7l-28.9,0l0.6,24.6
	c0.3,13.5,1.3,31.1,2.1,39s1.8,16,2.1,18c0.3,2,1.5,8.5,2.6,14.6c1.1,6.1,3.8,17.8,6,26s6.3,21.1,9.1,28.5
	c2.8,7.4,8.1,19.6,11.8,27.1c3.7,7.5,8.7,16.7,11,20.5c2.3,3.8,6.7,10.5,9.8,14.9s8.8,12.1,12.8,17.1c4,5,12.5,14.6,19.1,21.4
	c6.5,6.8,17.1,16.9,23.4,22.5s15.8,13.6,21,17.7s13.9,11,19.4,15.2C38.7,562,43.5,565.5,43.9,565.5L43.9,565.5z M43.7,556.5
	c-0.3,0-6.9-4.8-14.7-10.8C21.2,539.8,8.9,530,1.6,524c-7.3-6-18.2-15.9-24.4-22s-14-14.4-17.5-18.5S-49.6,472-53.3,467
	c-3.7-5-9.4-13.6-12.7-19.1c-3.3-5.5-8.1-14.2-10.7-19.2c-2.5-5.1-6.4-13.6-8.5-19c-2.1-5.4-5.5-14.8-7.5-20.9
	c-2-6.1-5-16.5-6.6-23.1c-1.7-6.6-4.1-18.4-5.5-26.4c-1.3-7.9-3.1-20.5-4-27.9c-0.9-7.4-1.8-20-2.1-28c-0.3-8-0.8-16.9-1-19.8
	l-0.5-5.2l26.3,0c15.7,0,32.1-0.6,40.8-1.5c8-0.8,20.1-2.4,27-3.6s19.3-3.8,27.6-5.9c8.3-2.1,20.9-5.7,28-8l13-4.2l14.5,5.4
	c8,3,18.8,6.8,24.2,8.5c5.3,1.7,14.8,4.2,21,5.6c6.2,1.4,15.3,3,20.2,3.6c4.9,0.6,18.3,1.1,29.9,1.1c11.5,0,24.7-0.3,29.3-0.7
	l8.4-0.7l0,14.4c0,7.9-0.7,22-1.5,31.4s-2.4,22.6-3.5,29.4s-3.1,17.3-4.5,23.2s-3.9,15.4-5.6,21.1s-5.3,15.7-7.9,22.3
	c-2.6,6.6-7.1,16.8-10,22.5c-2.9,5.7-8.4,15.8-12.4,22.3c-3.9,6.5-10.9,16.8-15.4,22.8c-4.5,6-12.4,15.8-17.6,21.7
	c-5.2,5.9-13.9,15-19.3,20.2c-5.4,5.2-14.4,13.4-19.9,18.1c-5.5,4.7-15.8,13.2-23,18.8C50.1,551.9,44,556.5,43.7,556.5L43.7,556.5z
	 M43.5,546.4c0.7,0,5.5-3.2,10.5-7.1c5-3.9,13.7-11,19.2-15.7s15.1-13.5,21.4-19.6c6.3-6.1,15.3-15.5,20.1-21
	c4.8-5.5,11.7-13.9,15.3-18.6c3.6-4.7,8.7-11.9,11.3-15.9c2.6-4,7.2-11.6,10.2-16.9c3-5.3,6.8-12.5,8.5-16.1
	c1.7-3.6,4.5-10.1,6.3-14.5s4.9-12.8,6.8-18.6s4.7-15.1,6-20.5c1.4-5.4,3.6-16,5-23.4c1.4-7.4,3.2-20.7,4-29.5
	c0.8-8.8,1.6-21.8,1.8-28.9l0.3-12.9l-28.5-0.1c-22-0.1-31-0.5-39.4-1.9c-6-1-15-2.8-20-4.1c-5-1.3-14.5-4.2-21.1-6.4
	c-6.6-2.2-16.4-5.6-21.7-7.6l-9.7-3.6l-12.3,4c-6.8,2.2-15.7,4.9-19.8,5.9c-4.1,1.1-11.8,2.9-17,4c-5.2,1.1-13.4,2.8-18.2,3.6
	c-4.8,0.9-14.9,2.2-22.5,3.1c-7.6,0.8-25.2,1.8-39.1,2.1l-25.3,0.6l0.5,7.6c0.3,4.2,0.8,11.9,1.1,17.1c0.3,5.2,1.5,16.9,2.5,26
	c1.1,9.1,3.3,23,4.9,31c1.6,8,4.5,20.1,6.5,27c2,6.9,5.4,17.4,7.6,23.5c2.2,6,7.4,17.8,11.4,26c4.1,8.2,10.2,19.3,13.6,24.5
	s8.3,12.2,10.8,15.5c2.5,3.3,8.4,10.5,13.2,16s12.7,13.8,17.6,18.5c4.9,4.7,14.1,12.8,20.4,18.1c6.3,5.3,17.1,13.9,24,19.2
	C36.5,542.1,42.8,546.4,43.5,546.4z M43.5,540.5c-0.4,0-3.6-2.3-7-5.2c-3.5-2.9-6.6-5.7-7-6.2c-0.4-0.6-0.7-40.1-0.8-87.8l0-86.8
	l14.7,0.3l14.8,0.3l0.3,85.8l0.3,85.8l-7.2,7C47.5,537.3,43.9,540.5,43.5,540.5L43.5,540.5z M2.5,452.7l-0.3,56.8l-15.2-15.3
	L-28.3,479l0-46c0-25.3,0.3-53.1,0.7-61.7l0.7-15.8h14.2H1.5l0.7,20.2C2.5,386.9,2.7,421.5,2.5,452.7L2.5,452.7z M96.2,492.6
	l-10.5,10.9l-0.3-73c-0.1-40.1-0.1-73.4,0.1-74c0.2-0.6,5.7-1,13.8-1h13.4l0,59.8l0,59.8l-3,3.4C108,480.2,102,486.6,96.2,492.6
	L96.2,492.6z M-53.2,433.9c-0.4,0.3-4.1-6.1-8.1-14.2c-4-8-9-18.9-11.1-24.2c-2.1-5.3-4.7-12.3-5.8-15.6c-1.1-3.3-3-9.6-4.1-14
	c-1.1-4.4-2.3-8.8-2.6-9.8c-0.5-1.7,0.5-1.8,15.8-1.5l16.3,0.3l0.2,39.2C-52.5,415.8-52.7,433.6-53.2,433.9z M142.4,428.9
	c-1.2,1.6-1.5-0.4-2-15.5c-0.4-9.6-0.7-26.1-0.7-36.6l0-19.2h16c8.8,0,16,0.2,16,0.4s-2.3,7.2-5,15.6c-2.8,8.3-6.6,19-8.6,23.8
	c-2,4.8-6,13.4-9,19.2S143.1,427.8,142.4,428.9L142.4,428.9z M172.4,351.4c-0.7,0-1.7-0.2-2.3-0.4c-0.5-0.2-58.8-0.5-129.4-0.8
	c-104.9-0.4-128.5-0.7-129.2-1.8c-0.4-0.7-1.7-6.3-2.9-12.4c-1.1-6.1-2.5-16.5-3.1-23.1c-0.6-6.6-0.9-17.8-0.8-25l0.3-13l18.5-0.7
	c10.2-0.4,24.6-1.2,32-1.8s18.2-1.8,24-2.7c5.8-0.8,16.3-2.9,23.5-4.5c7.2-1.6,20.6-5.5,29.9-8.6l16.9-5.7l4.1,1.6
	c2.3,0.9,8.9,3.4,14.7,5.6c5.8,2.2,16.6,5.6,24,7.6c7.4,1.9,18.1,4.2,23.7,5.1c5.7,0.8,18,2,27.5,2.6c9.5,0.6,21.3,1,26.2,0.9
	c5-0.1,9.6-0.1,10.4-0.1c1.2,0.1,1.3,3.6,0.8,20.8c-0.4,16-1.2,24.3-3.2,36.1c-1.5,8.4-3.1,16.4-3.6,17.8S173.1,351.4,172.4,351.4
	L172.4,351.4z M123.3,343.2l45.1,0.2l1.6-9.2c0.9-5.1,2.1-13.3,2.7-18.2c0.6-5,1.1-14.6,1.3-21.5l0.3-12.5l-21.5-0.6
	c-11.8-0.3-26.9-1.4-33.5-2.4c-6.6-1-18.8-3.5-27.2-5.6c-8.3-2.1-21.3-6.2-28.8-9l-13.6-5.1l-16.7,5.5c-9.2,3-22.1,6.7-28.7,8.1
	c-6.6,1.5-18,3.5-25.4,4.6c-7.3,1-20.4,2.4-29,2.9s-20.5,1.3-26.5,1.7l-10.9,0.6l0.6,19.1c0.3,10.6,1.3,23.1,2.2,28.1
	c0.9,4.9,2.1,9.8,2.6,10.7c0.9,1.7,5,1.8,80.7,2.1C42.3,342.9,98.5,343.1,123.3,343.2L123.3,343.2z M-58.8,327.5
	c-4.2,0-5.5-0.3-5.5-1.5c0-0.8,0.9-1.5,2-1.5c1.9,0,2-0.7,2-13.6c0-12.8-0.1-13.6-2-14.1c-1.1-0.3-2-0.9-2-1.4
	c0-0.5,3.1-0.9,6.9-0.9h6.9l4.3,9.5c2.4,5.2,4.6,9.7,5,10c0.4,0.2,2.6-4.1,5-9.5l4.3-10h6.8c3.8,0,6.8,0.4,6.8,0.9
	c0,0.5-0.9,1.1-2,1.4c-1.9,0.5-2,1.4-2,14.1c0,12.9,0.1,13.6,2,13.6c1.1,0,2,0.7,2,1.5c0,1.2-1.5,1.5-7.9,1.5
	c-4.5,0-8.2-0.5-8.6-1.1c-0.4-0.6,0.3-1.3,1.4-1.6c2-0.5,2.1-1.2,2-12.2c-0.1-10.9-0.2-11.4-1.5-8.6c-0.8,1.7-3,6.5-4.9,10.8
	c-2.9,6.6-3.8,7.8-5.9,7.8c-1.3,0-2.9-0.6-3.4-1.2c-0.6-0.7-2.7-5.2-4.7-10s-4.1-8.8-4.6-8.8c-0.5,0-0.9,5-0.9,11
	c0,10.3,0.1,11,2,11c1.1,0,2,0.7,2,1.5C-53.3,327.1-54.6,327.5-58.8,327.5z M-8.6,327.3c-2.1,0.3-2.7-0.2-3.3-2.3
	c-0.4-1.5-0.1-3.2,0.6-4.1c0.7-0.8,2.2-1.4,3.3-1.2c1.1,0.2,2.5,1.1,3.1,2c0.8,1.3,0.8,2.2,0,3.5C-5.5,326.2-7.2,327.1-8.6,327.3
	L-8.6,327.3z M7.8,327.5c-2.6,0-5.1-0.3-5.4-0.7c-0.4-0.4-0.7-1-0.7-1.5s0.9-0.8,2-0.8c1.9,0,2-0.7,2-14c0-13.3-0.1-14-2-14
	c-1.1,0-2-0.4-2-1c0-0.6,3-1,7-1c6.4,0,7.1,0.2,7.9,2.2c0.5,1.2,2.5,5.9,4.6,10.2l3.7,8l4.4-9.4c2.4-5.2,4.4-9.8,4.4-10.2
	c0-0.5,3.1-0.9,7-0.9s7,0.4,7,0.9c0,0.5-0.9,1.1-2,1.4c-1.9,0.5-2,1.4-2,14.1c0,12.9,0.1,13.6,2,13.6c1.1,0,2,0.7,2,1.5
	c0,1.2-1.5,1.5-7.9,1.5c-4.4,0-8.2-0.5-8.6-1c-0.3-0.6,0.5-1.4,1.9-2c2.5-1,2.6-1.1,2.6-12c0-6.1-0.3-11-0.8-11s-2.8,4.6-5.3,10.2
	c-4,9.1-4.8,10.3-7.3,10.6c-2.6,0.3-3-0.3-6.6-8c-2.1-4.6-4.1-9.2-4.5-10.3c-0.6-1.7-0.9-1.7-1.6-0.5c-0.5,0.8-0.9,5.6-0.9,10.7
	c0,9,0.1,9.3,2.5,10.2c1.4,0.5,2.3,1.4,1.9,2C12.8,327,10.4,327.5,7.8,327.5L7.8,327.5z M57.8,327.5c-1.5,0-3.1-0.3-3.5-0.7
	s-0.7-1.6-0.7-2.8s0.5-2.7,1.2-3.3c0.7-0.7,2-1.2,2.9-1.2c0.9,0,2.2,0.7,2.9,1.5c0.7,0.9,1,2.6,0.6,4
	C60.8,326.9,60,327.5,57.8,327.5z M82.7,327.5c-12.7,0-15-0.2-15-1.5c0-0.8,0.9-1.5,2-1.5c1.9,0,2-0.7,2-14c0-13.3-0.1-14-2-14
	c-1.1,0-2-0.4-2-1c0-0.6,5.7-1,15-1h15v3.5c0,2.3-0.5,3.5-1.4,3.5c-0.8,0-1.6-0.9-1.9-2c-0.5-1.7-1.4-2-7.1-2h-6.6v5v5h3.9
	c3.1,0,4.1-0.4,4.6-2.1c0.4-1.1,1.2-1.9,1.8-1.7s1.3,2.3,1.5,4.6c0.2,2.4-0.2,4.9-0.9,5.7c-1.1,1.3-1.4,1.1-2.6-1.1
	c-1.1-2.1-2-2.6-4.6-2.3l-3.2,0.3l-0.3,6.8l-0.3,6.8l6.8-0.3c6.2-0.3,6.8-0.5,7.1-2.5c0.2-1.2,1-2.2,1.8-2.2c1,0,1.4,1.2,1.4,4v4
	H82.7L82.7,327.5z M108.8,327.5c-1.5,0-3.1-0.3-3.5-0.7s-0.7-1.6-0.7-2.8s0.5-2.7,1.2-3.3c0.7-0.7,2-1.2,2.9-1.2
	c0.9,0,2.2,0.7,2.9,1.5c0.7,0.9,1,2.6,0.6,4C111.8,326.9,111,327.5,108.8,327.5z M136,327.4c-3.8,0-7.1-0.7-9.6-2
	c-2.1-1.1-4.7-3.4-5.7-5.2c-1.3-2.2-2-5-2-9c0-3.2,0.5-6.8,1.1-8c0.6-1.2,2.3-3.4,3.7-4.9c1.6-1.8,4.4-3.1,7.9-3.9
	c4.2-0.9,6.5-0.9,10.8,0c3,0.7,5.9,1.8,6.6,2.6c0.6,0.8,1,2.6,0.8,4.2c-0.2,1.5-0.9,2.8-1.5,2.8s-2.2-1.6-3.5-3.5
	c-2-2.9-3-3.5-6.6-3.8c-3.5-0.3-4.6,0.1-6.6,2.3c-1.5,1.7-2.7,4.4-3.1,7.5c-0.4,2.7-0.4,6.8,0,9c0.4,2.2,1.7,5.3,3,6.7
	c1.7,2,3.2,2.6,6,2.6c3.1,0,4.3-0.6,7-3.8c1.9-2.2,3.7-3.5,4.4-3.1c0.6,0.4,1.1,1.2,1.1,1.9s-0.8,2.1-1.8,3.3s-2.7,2.6-3.9,3.2
	C142.8,327,139.2,327.5,136,327.4L136,327.4z M159.7,327.5c-2.3,0-3.1-0.5-3.6-2.5c-0.4-1.4-0.1-3.1,0.6-4c0.7-0.8,2-1.5,3-1.5
	c1,0,2.3,0.7,3,1.5c0.7,0.9,1,2.6,0.6,4C162.8,326.9,162,327.5,159.7,327.5z"/>
</svg>
