<?xml version="1.0" encoding="utf-8"?>
<!-- Generator: Adobe Illustrator 19.1.0, SVG Export Plug-In . SVG Version: 6.00 Build 0)  -->
<svg version="1.1" id="Layer_1" xmlns="http://www.w3.org/2000/svg" xmlns:xlink="http://www.w3.org/1999/xlink" x="0px" y="0px"
	 viewBox="-180 271 251 251" style="enable-background:new -180 271 251 251;" xml:space="preserve">
<style type="text/css">
	.st0{fill:#ED1C24;}
	.st1{fill:#FFFFFF;}
</style>
<path class="st0" d="M-55,271c69,0,125,56,125,125c0,69-56,125-125,125c-69,0-125-56-125-125C-180,327-124,271-55,271L-55,271z"/>
<g>
	<path class="st1" d="M-100.3,349.8l-3.2,0.8l-2.4,4.8l1.6,0.6l-0.3,0.8c1.7-1.1,3.3-2.5,4.7-4.1c0.6-0.8,1.2-1.6,1.7-2.4l-1.7,1
		L-100.3,349.8z"/>
	<path class="st1" d="M-96.1,339.6l0.8,1.1c0-2.6-0.7-5.1-2-7.2l0.2,0.9l-2.7,0.5l-0.2,4.8l1.9,1.3L-96.1,339.6z"/>
	<path class="st1" d="M-107.9,348.3l-4.7,1.7l-3.4,4.2l2.4,2.4c1.3,0,3.7-0.2,6.3-1.2l2.6-5.2L-107.9,348.3z"/>
	<path class="st1" d="M-109.8,339.1l3.9,1.8l4.6-1.7l0.2-4.8c-2.1-1.5-4.1-2.3-5.1-2.6l-3.6,2.6V339.1z"/>
	<path class="st1" d="M-105.4,342.2l-1.9,4.9l3.4,2l-0.1,0.2l3.6-0.9c0.5-0.8,1.6-2.7,1.7-6.1l-2.4-1.6l-0.1-0.1L-105.4,342.2z"/>
	<path class="st1" d="M-107.1,331l-0.7-2.5l0.3-0.1c-2.2,0-4.5,0.6-6.7,1.8c0,0,0,0.1,0,0.1l-0.2,2.4l3.9,0.8L-107.1,331z"/>
	<path class="st1" d="M-115.2,343.2l4.2-3.4v-5l-3.6-0.7c-0.6,0.4-3,2.2-4.7,4.3l0.4,4.6L-115.2,343.2z"/>
	<path class="st1" d="M-117.2,354.8l-2.6-0.4l-1.5,1.5l-0.4,0c0.3,0.3,0.6,0.6,0.9,0.9c1.5,1.3,3.2,2.1,5.1,2.5l-0.5-0.3l1.4-1.5
		L-117.2,354.8z"/>
	<polygon class="st1" points="-51.4,483.6 -55,473.3 -58.4,483.5 -69.4,483.8 -60.8,490.2 -63.9,500.7 -55.1,494.5 -46.1,500.7 
		-49.3,490.4 -40.6,483.8 	"/>
	<path class="st1" d="M-61.2,461.8c0.1-0.1,0.2,0,0.1,0.2c-1.2,3.6-2.4,5.4-7.3,7.9c-0.1,0.3,0.3,1.2,0.5,1.3
		c8.1-2.1,12.2-6.9,12.2-13.5c0-4.6-2.4-8.9-7.2-8.9c-1.4,0-2.9,0.4-3.9,1c-2.5,1.5-4,3.9-4,7.1C-70.7,463.6-65.4,464.6-61.2,461.8z
		 M-63.8,450.2c2.5,0,3.5,3.3,3.5,7.1c0,0.7-0.1,1.4-0.3,2.5c0,0.2-0.3,0.5-0.4,0.6c-0.4,0.2-1,0.4-1.4,0.4c-2.1,0-4-1.8-4-6.1
		C-66.4,451.7-65.1,450.2-63.8,450.2z"/>
	<path class="st1" d="M-44.5,448.7c-1.6,0-3.4,0.5-4.7,1.7c-2.3,2.1-3.2,5.8-3.2,9.3c0,4,0.7,8,3.2,10.1c1.1,0.9,2.5,1.3,4.1,1.3
		c1.3,0,2.8-0.4,3.9-1.2c2.9-2.1,3.8-6.2,3.8-10.5c0-3.8-0.8-6.6-2.2-8.2C-40.6,449.7-42.3,448.7-44.5,448.7z M-43.5,469.1
		c-0.2,0.2-0.6,0.4-1,0.4c-1.8,0-3.1-3.1-3.1-10.5c0-4.5,0.6-7.4,1.6-8.4c0.2-0.3,0.6-0.4,0.9-0.4c1.9,0,3,3.4,3,9.9
		C-42.2,466.4-42.8,468.3-43.5,469.1z"/>
	<path class="st1" d="M-120.4,353l3.3,0.6l0,0l3.7-4.6l-2.7-4.5l-2.9-0.3l0,0.1l-3.1,3.6C-122.1,348.7-121.8,351-120.4,353z"/>
	<path class="st1" d="M-55,279c-64.6,0-117,52.4-117,117c0,64.6,52.4,117,117,117c64.6,0,117-52.4,117-117C62,331.4,9.6,279-55,279z
		 M-0.1,306.4l1.6-3.9l1.5,3.8l4.2,0.3l-3.2,2.6l1,4.1l-3.4-2.2l-3.6,2.2l1.1-4l-3.2-2.7L-0.1,306.4z M-22.2,296.4l0.5-4.2l2.4,3.3
		l4.1-0.8l-2.4,3.3l2,3.7l-3.9-1.3l-2.9,3.1l0-4.1l-3.8-1.8L-22.2,296.4z M-45.9,287.3l3.2,2.6l3.8-1.8l-1.5,3.8l2.9,3l-4.1-0.2
		l-2,3.7l-1.1-4l-4.1-0.7l3.4-2.2L-45.9,287.3z M-53.8,321.7c6.8-1.9,23.4-6.3,27.1-4.5c4.7,2.4,0,7.7,2.9,12.4
		c2.5,4,37.8-7,48-10.3c4.7,4.9,9,10.2,12.8,16c-6.7,2.1-42,12.8-53.7,14.4c-13,1.8-4.7-8.8-8.8-12.4c-3.6-3.1-23.3,1.9-28.3,3.2
		V321.7z M-53.8,359.3c7.1-2,22.9-6.1,26.5-4.3c4.7,2.4,0,7.7,2.9,12.4c2.4,3.9,52.8-10.7,70.2-15.9c2.5,5.7,4.6,11.7,6.1,17.9
		c-19.6,5.6-59.6,16.8-69.3,18.1c-13,1.8-4.7-8.8-8.8-12.4c-3.5-3-21.9,1.5-27.7,3.1V359.3z M-71.1,288.1l3.8,1.8l3.2-2.6l-0.6,4.2
		l3.4,2.2l-4.1,0.7l-1.1,4l-2-3.7l-4.1,0.2l2.9-3L-71.1,288.1z M-81.4,372.9c-1,18.4,12.5,11.4,14.7,7.6c0.9-1.7,3.3-0.4,2.7,1.1
		c-3.5,9.5-24,10-23.6-6.1c0.3-12.6,10.8-21.5,22.9-18.4l-0.7,5.5C-64.4,358.3-80.5,354.5-81.4,372.9z M-90.7,295.6l2.4-3.3l0.5,4.2
		l3.9,1.3l-3.8,1.8l0,4.1l-2.9-3.1l-3.9,1.3l2-3.7l-2.4-3.3L-90.7,295.6z M-112.9,306.3l1.5-3.8l1.6,3.9l4.1,0.2l-3.2,2.7l1.1,4
		l-3.6-2.2l-3.4,2.2l1-4.1l-3.2-2.6L-112.9,306.3z M-122.9,336.9L-122.9,336.9c0.2-0.4,0.5-0.7,0.7-1.1l0,0l0,0l0,0l0-0.1l0.1-0.1
		l0,0l0,0l0.1-0.2l0.1-0.1l0,0c0.1-0.1,0.1-0.1,0.2-0.2v0l0,0l0,0c0.1-0.1,0.2-0.2,0.2-0.3l0,0c0.1-0.1,0.1-0.2,0.2-0.2l0.1-0.1
		l0.1-0.1c0.1-0.1,0.2-0.2,0.2-0.3l0,0l0-0.1c0.1-0.1,0.2-0.2,0.3-0.3l0,0l0,0c0.1-0.1,0.2-0.2,0.3-0.3l0,0c0.1-0.1,0.2-0.2,0.3-0.3
		l0,0l0,0l0,0c0.1-0.1,0.2-0.2,0.3-0.3l0.1-0.1c0.1-0.1,0.2-0.2,0.2-0.2l0.1-0.1c0.1-0.1,0.2-0.1,0.2-0.2l0.1-0.1l0.1-0.1h0l0.1-0.1
		l0.2-0.2l0.1-0.1l0.2-0.2l0.1-0.1l0.2-0.1l0.2-0.1c0.1-0.1,0.2-0.1,0.3-0.2c0.1-0.1,0.2-0.1,0.3-0.2l0.1,0c0.2-0.1,0.4-0.3,0.6-0.4
		l0,0c3.7-2.3,7.9-3.2,11.6-2.6h0c0.5,0.1,0.9,0.2,1.4,0.3l0,0c1.4,0.4,2.7,1.1,3.8,1.9l0,0l0,0l0,0l0,0l0,0h0l0,0l0,0l0,0l0,0l0,0
		l0.1,0l0,0l0,0l0,0l0,0c0.1,0,0.1,0.1,0.2,0.1l0,0l0,0l0,0l0,0l0,0l0,0l0,0v0l0,0l0,0l0.1,0.1l0.1,0.1l0,0l0,0l0,0v0l0,0l0,0l0,0
		c0.1,0.1,0.2,0.2,0.3,0.3c5.4,5.4,5,15.2-1,22.4c-1.7,2.1-3.8,3.8-5.9,5l0,0h0l0,0l0,0l0,0l-0.1,0l0,0l0,0l0,0l0,0
		c-0.1,0-0.2,0.1-0.3,0.1l0,0c-5.5,2.9-11.7,2.8-16-0.9c-0.7-0.6-1.3-1.2-1.8-1.9c-0.1-0.1-0.1-0.1-0.2-0.2l-0.1-0.1
		c0-0.1-0.1-0.1-0.1-0.2l-0.1-0.1l-0.1-0.2l-0.1-0.1l-0.1-0.2l-0.1-0.1l-0.1-0.2l0-0.1c0-0.1-0.1-0.2-0.1-0.3l0-0.1l-0.1-0.2
		l-0.1-0.2l-0.1-0.1c0-0.1-0.1-0.1-0.1-0.2l-0.1-0.1c0-0.1-0.1-0.2-0.1-0.2l0-0.1c0-0.1-0.1-0.2-0.1-0.2l0,0l0-0.1l-0.1-0.2l0-0.1
		c-0.3-0.8-0.5-1.6-0.6-2.5l0-0.1l0-0.2l0,0c0-0.3-0.1-0.5-0.1-0.8v0c0-0.1,0-0.2,0-0.2v0C-126.1,344.4-125.1,340.5-122.9,336.9z
		 M-149,354.2c0.3-1.3,1.2-2.6,2.4-4c1.4-1.6,2.6-2.7,4-3.1c1.4-0.4,2.8-0.1,4.4,1.2l9.7,8c3.8,3.1,7.3,9.3,7.8,10.2l10.3,7.9
		c7-8.3,12.3-14.7,13-15.4c0.3-1,2.4-7.9,5.5-11.8l9.6-12c1.3-1.6,2.6-2.3,4.1-2.2c1.4,0.1,2.9,0.9,4.6,2.2c1.5,1.1,2.7,2.2,3.3,3.4
		c0.6,1.3,0.5,2.7-0.8,4.2l-11.7,13.7l0,0c0,0-3.4,3.5-10,6.8l-12.4,14.9c13,10,29.7,22.9,31.8,24.5c4.3,3.4,1,6.1,1,6.1l0,0
		c-2.1,1.6-3.9-0.1-4.1-0.3l-32.6-25.5l-33.5,40.3c-0.2,0.2-1.6,2.2-4,1.2l0,0c0,0-3.8-2-0.4-6.2c1.7-2,19.1-22.7,32.9-39.1
		l-9.6-7.5c-7.1-1.8-11.1-4.5-11.1-4.5l0,0l-12.1-9.2C-148.9,356.9-149.3,355.6-149,354.2z M-117.2,430.1c0,0-5.2,4.9-5.1,0.8
		c0.1-4.1,0-25.5,0-25.5s-3.3-3.3,2.2-4c5.5-0.6,5.1,1.8,5.1,1.8l13.4,14v-15.6c0,0-4.5-2-1.3-2.9c3.2-0.9,4.4-1.3,5.6-1.5
		c1.3-0.3-0.8,3.3-0.8,3.3v24.5c0,0-2,3.2-5.1-0.4c-3.1-3.6-14.5-15.9-14.5-15.9v19.2C-117.6,427.8-116,429-117.2,430.1z
		 M-159.5,391.6c0.3-12.6,10.8-21.5,22.9-18.4l-0.7,5.5c0.9-4.2-15.2-8-16.1,10.4c-1,18.4,12.5,11.4,14.7,7.6c0.9-1.7,3.3-0.4,2.7,1
		C-139.4,407.2-159.9,407.7-159.5,391.6z M-55,506.9c-40.4,0-75.8-21.7-95.2-54c30.7-7.2,119.2-27.5,121.1-24.1
		c2.4,4.1-1.8,11.2,4.1,14.2c4,2,48.9-10.2,77-18.2C39.5,472-3.7,506.9-55,506.9z M-19.6,424c-13,1.8-4.7-8.8-8.8-12.4
		c-3.2-2.8-18.8,1-25.4,2.7v-18.8c7.6-2.1,21.9-5.7,25.4-4c4.7,2.4,0,7.7,2.9,12.4c2.6,4.1,65.2-12.6,80.4-16.8
		c0.2,2.9,0.4,5.9,0.4,8.8c0,3.5-0.2,7-0.5,10.5C32,412.2-10.3,422.7-19.6,424z"/>
	<path class="st1" d="M-27.4,454.8c0-3,0-4.4,0.2-5.8c0-0.1-0.4-0.4-0.5-0.3c-1.6,0.7-4.3,1.7-7,1.9c-0.1,0.1-0.2,1.1-0.1,1.3
		c0.5,0.1,1.3,0.2,1.8,0.3c0.5,0.1,0.8,0.6,0.8,1.3c0.1,1,0.1,3.6,0.1,6.5c0,3,0,5.4-0.1,6.9c0,0.4,0,3.6-0.1,4h5.2
		c-0.1-0.4-0.1-3.6-0.2-4.1C-27.4,463.7-27.4,457.7-27.4,454.8z"/>
	<path class="st1" d="M-123.1,346.8l2.9-3.3l-0.4-4.2l-2.5,0.5l0-0.7c-1.1,2.2-1.7,4.5-1.9,6.8l0-0.1L-123.1,346.8z"/>
	<path class="st1" d="M-146.9,423c0.3,0.3,0.5,0.5,0.6,0.5c1.5,0.7,2.4-0.7,2.4-0.7l0,0l0,0l33.5-40.3l-1.5-1.2L-146.9,423z"/>
	<path class="st1" d="M-75.4,454.8c0-3,0-4.4,0.2-5.8c0-0.1-0.4-0.4-0.5-0.3c-1.5,0.7-4.3,1.7-7,1.9c-0.1,0.1-0.2,1.1-0.1,1.3
		c0.5,0.1,1.3,0.2,1.8,0.3c0.5,0.1,0.8,0.6,0.8,1.3c0.1,1,0.1,3.6,0.1,6.5c0,3,0,5.4-0.1,6.9c0,0.4,0,3.6-0.1,4h5.2
		c-0.1-0.4-0.1-3.6-0.2-4.1C-75.4,463.7-75.4,457.7-75.4,454.8z"/>
	<path class="st1" d="M-146.5,357.1l12.1,9.2c0.4,0.2,4.2,2.7,10.8,4.3l0.1,0l0.1,0.1l47.5,37.1l0,0l0,0c0,0,1.1,1.1,2.4,0.2
		c0.1,0,0.3-0.3,0.5-0.6l-72.7-56.3c-1.1,1.2-1.9,2.4-2.1,3.4C-148,355.4-147.7,356.2-146.5,357.1z"/>
	<path class="st1" d="M-93.8,362.6l0.1-0.1l0.1-0.1c6.2-3.1,9.4-6.3,9.7-6.6l11.7-13.7c0.9-1.1,1-2,0.6-2.8
		c-0.4-0.9-1.5-1.9-2.8-2.9l-33.6,40l1.5,1.2L-93.8,362.6z"/>
</g>
</svg>
