<?xml version="1.0" encoding="utf-8"?>
<!-- Generator: Adobe Illustrator 19.1.0, SVG Export Plug-In . SVG Version: 6.00 Build 0)  -->
<svg version="1.1" id="Layer_1" xmlns="http://www.w3.org/2000/svg" xmlns:xlink="http://www.w3.org/1999/xlink" x="0px" y="0px"
	 viewBox="-169 308.7 112.8 175.7" style="enable-background:new -169 308.7 112.8 175.7;" xml:space="preserve">
<style type="text/css">
	.st0{fill:#CD3529;}
	.st1{fill:#FFFFFF;}
	.st2{fill:#304296;}
</style>
<g>
	<path class="st0" d="M-169,484.5L-169,484.5L-169,484.5L-169,484.5z M-56.2,308.7v42.7c-6.1,0-11,4.9-11,11c0,6.1,4.9,11,11,11
		v71.7c0,12.2-13.9,26.2-26,26.2h-15.1c-3.4,0-10.8,2.2-14.3,10.8l-0.9,2.3l-1-2.3c-3.5-8.6-10.9-10.8-14.3-10.8h-15.1
		c-12.2,0-26-14-26-26.2v-71.7c6.1,0,11-4.9,11-11c0-6.1-4.9-11-11-11v-42.7H-56.2L-56.2,308.7z"/>
	<path class="st1" d="M-58.3,310.8c0,0.2,0,17.1,0,38.8c-6.2,1-10.9,6.3-10.9,12.8c0,6.5,4.7,11.8,10.9,12.8c0,34.5,0,69.9,0,69.9
		c0,11-13,24.1-23.9,24.1h-15.1c-5,0-11.6,3.4-15.2,10.5c-3.7-7.1-10.3-10.5-15.3-10.5h-15.1c-11,0-24-13.1-24-24.1
		c0,0,0-35.5,0-69.9c6.2-1,10.9-6.3,10.9-12.8c0-6.5-4.7-11.8-10.9-12.8c0-21.7,0-38.5,0-38.8L-58.3,310.8L-58.3,310.8z"/>
	<path class="st0" d="M-66.6,319.3v23.5c-7,3.7-11.8,11.1-11.8,19.6c0,8.5,4.8,15.9,11.8,19.6v61.2c-0.3,2.6-0.8,4.8-1.6,6.8
		c-1.6,3.9-4.2,6.5-7.3,8.2c-3.5,1.9-7.7,2.3-12.1,2.4l-9.6,0c0,0-1.9,0.1-4.3,0.7c-3.6,0.9-7.1,2.2-11,5.3c-3.9-3.1-7.4-4.4-11-5.3
		c-2.3-0.6-4.3-0.7-4.3-0.7l-9.6,0c-4.4-0.2-8.6-0.6-12.1-2.4c-3.1-1.7-5.7-4.3-7.3-8.2c-0.8-1.9-1.3-4.1-1.6-6.8V382
		c7-3.7,11.8-11.1,11.8-19.6s-4.8-15.9-11.8-19.6v-23.5L-66.6,319.3L-66.6,319.3z"/>
	<path class="st2" d="M-126.3,342.1l-0.9,0.5l0,0c-0.2,0-0.2,0.3-0.2,0.3s-0.2,0.2-0.2,0.3l0,0v0.2v5.9l0,0c0,0.3,0.2,0.7,0.2,0.7
		s0.2,0.2,0.5,0.2c0.2,0,0.3-0.2,0.3-0.2s0.2-0.3,0.2-0.7l0,0L-126.3,342.1L-126.3,342.1L-126.3,342.1z M-122.6,333.9v18.7h-3.6V352
		l0,0c-0.2,0.2-0.9,0.5-1.1,0.5c-0.3,0.2-0.7,0.3-1.2,0.3c-1,0-1.6-0.3-1.9-0.9c-0.5-0.7-0.7-1.9-0.7-3.5l0,0v-5l0,0
		c0-0.5,0.2-1.2,0.5-1.6c0.2-0.3,0.7-0.9,1.4-1.2l0,0l3-1.4v-5.4l0,0c0-0.3-0.2-0.5-0.2-0.5s-0.2-0.2-0.3-0.2
		c-0.3,0-0.5,0.2-0.5,0.2c0,0.2-0.2,0.5-0.2,0.9l0,0v4h-3.7v-4.3l0,0c0-1.2,0.5-2.1,1.1-2.4c0.3-0.5,1.6-0.7,2.9-0.7
		c1.7,0,2.9,0.2,3.5,0.7C-123,331.8-122.6,332.7-122.6,333.9L-122.6,333.9L-122.6,333.9L-122.6,333.9z M-112.8,335v4.7h-3.8v-5.7
		l0,0c0-0.3,0-0.5,0-0.5c-0.3,0-0.5-0.2-0.5-0.2c-0.2,0-0.5,0.2-0.5,0.2c0,0.2,0,0.5,0,0.9l0,0v18.4h-3.6V331h3.6v0.9l0,0
		c0.2-0.3,0.5-0.5,0.7-0.9c0.5-0.2,0.9-0.2,1.4-0.2c0.9,0,1.6,0.2,1.9,0.9C-113.3,332.2-112.8,333.4-112.8,335L-112.8,335
		L-112.8,335z M-107.6,342.1l-0.9,0.5l0,0l-0.2,0.3c0,0-0.2,0.2-0.2,0.3l0,0v0.2v5.9l0,0c0,0.3,0.2,0.7,0.2,0.7s0.2,0.2,0.3,0.2
		c0.2,0,0.4-0.2,0.4-0.2c0.3,0,0.3-0.3,0.3-0.7l0,0L-107.6,342.1L-107.6,342.1L-107.6,342.1z M-104.1,333.9v18.7h-3.5V352l0,0
		c-0.3,0.2-0.7,0.5-1,0.5c-0.4,0.2-0.9,0.3-1.2,0.3c-1,0-1.6-0.3-2.1-0.9c-0.2-0.7-0.5-1.9-0.5-3.5l0,0v-5l0,0
		c0-0.5,0.2-1.2,0.3-1.6c0.2-0.3,0.9-0.9,1.4-1.2l0,0l3.1-1.4v-5.4l0,0c0-0.3,0-0.5,0-0.5c-0.3,0-0.5-0.2-0.7-0.2
		c-0.2,0-0.3,0.2-0.3,0.2c0,0.2-0.2,0.5-0.2,0.9l0,0v4h-3.6v-4.3l0,0c0-1.2,0.3-2.1,1-2.4c0.5-0.5,1.6-0.7,3.1-0.7
		c1.6,0,2.6,0.2,3.3,0.7C-104.3,331.8-104.1,332.7-104.1,333.9L-104.1,333.9L-104.1,333.9L-104.1,333.9z M-94.2,335v17.7h-3.6v-18.7
		l0,0c0-0.3-0.2-0.5-0.2-0.5s-0.2-0.2-0.3-0.2c-0.2,0-0.3,0.2-0.3,0.2c0,0.2-0.3,0.5-0.3,0.9l0,0v18.4h-3.5V331h3.5v0.9l0,0
		c0.3-0.3,0.7-0.5,1-0.9c0.2-0.2,0.9-0.2,1.2-0.2c0.9,0,1.6,0.2,1.9,0.9c0.5,0.5,0.7,1.7,0.7,3.7l0,0L-94.2,335L-94.2,335L-94.2,335
		z M-88.1,342.1l-0.9,0.5l0,0l-0.2,0.3c0,0,0,0.2,0,0.3l0,0v0.2v5.9l0,0c0,0.3,0,0.7,0,0.7s0.2,0.2,0.7,0.2l0.2-0.2
		c0.2,0,0.2-0.3,0.2-0.7l0,0L-88.1,342.1L-88.1,342.1L-88.1,342.1z M-84.5,333.9v18.7h-3.6V352l0,0c-0.2,0.2-0.7,0.5-1,0.5
		c-0.2,0.2-0.9,0.3-1.2,0.3c-0.7,0-1.5-0.3-1.9-0.9c-0.3-0.7-0.5-1.9-0.5-3.5l0,0v-5l0,0c0-0.5,0-1.2,0.2-1.6
		c0.3-0.3,0.9-0.9,1.7-1.2l0,0l2.8-1.4v-5.4l0,0c0-0.3,0-0.5,0-0.5c-0.2,0-0.4-0.2-0.4-0.2c-0.5,0-0.7,0.2-0.7,0.2
		c0,0.2,0,0.5,0,0.9l0,0v4h-3.7v-4.3l0,0c0-1.2,0.2-2.1,0.9-2.4c0.5-0.5,1.7-0.7,3.1-0.7c1.7,0,3,0.2,3.3,0.7
		C-84.7,331.8-84.5,332.7-84.5,333.9L-84.5,333.9L-84.5,333.9L-84.5,333.9z M-89,326.8h3.3l-2.1,2.8h-2.4L-89,326.8L-89,326.8
		L-89,326.8z"/>
	<path class="st2" d="M-97.3,387.9c-5.9-6.1-20.5-7.6-26.4-2.8l-34.9,30l-4.8,4.2h4.8h17c8.7,0,11.5,4.7,13.9,10.4l14.7,36.6
		c0.1,0.1,0.3,0.2,0.4,0.3c3.8-3.1,7.4-4.4,11-5.3c2.3-0.6,4.3-0.7,4.3-0.7l9.6,0c4.4-0.2,8.6-0.6,12.1-2.4c3.1-1.7,5.7-4.3,7.3-8.2
		c0.8-1.9,1.3-4.1,1.6-6.8v-9v-15.1L-97.3,387.9L-97.3,387.9z M-120.2,407.5c-2.6,0-4.7-2.1-4.7-4.5c0-2.6,2.1-4.5,4.7-4.5
		c2.4,0,4.3,1.9,4.3,4.5C-115.9,405.4-117.8,407.5-120.2,407.5L-120.2,407.5z"/>
	<path class="st2" d="M-137,333.4v8.5h0.2l0,0c0.2,0,0.7-0.3,0.7-0.3c0.2,0,0.2-0.5,0.2-0.9l0,0v-5.9l0,0c0-0.5,0-1.2-0.2-1.2
		c0-0.2-0.5-0.2-0.7-0.2l0,0L-137,333.4L-137,333.4L-137,333.4z M-140.8,330.5h4.3l0,0c1.9,0,2.9,0.2,3.3,0.7
		c0.5,0.5,0.9,1.9,0.9,3.8l0,0v5.2l0,0c0,2.1-0.3,3.3-0.7,3.8c-0.5,0.5-1.6,0.9-3.1,0.9l0,0h-0.9v7.8h-3.8L-140.8,330.5
		L-140.8,330.5L-140.8,330.5z"/>
	<path class="st2" d="M-139.5,379.9h0.4l0,0c0.5,0,0.9,0,1,0c0-0.2,0.2-0.5,0.2-0.9c0-0.3-0.2-0.7-0.2-0.7c-0.2-0.2-0.5-0.5-1-0.5
		l0,0h-0.4V379.9L-139.5,379.9L-139.5,379.9z M-139.5,376.6h0.2l0,0c0.3,0,0.9-0.2,1-0.2s0.2-0.3,0.2-0.7c0-0.5,0-0.7-0.2-0.7
		c-0.2-0.2-0.7-0.3-1-0.3l0,0h-0.2V376.6L-139.5,376.6L-139.5,376.6z M-141.2,381.3v-7.8h1.4l0,0c0.5,0,1.2,0.2,1.6,0.2
		c0.2,0,0.5,0.2,1,0.2c0,0.2,0.3,0.7,0.5,0.7c0.2,0.3,0.2,0.7,0.2,1c0,0.5,0,0.9-0.3,1c-0.3,0.3-0.9,0.7-1.2,0.7
		c0.7,0,1.1,0.2,1.4,0.5c0.2,0.5,0.7,0.9,0.7,1.2c0,0.5-0.2,0.9-0.5,1c0,0.3-0.3,0.7-0.7,0.9c-0.2,0-0.7,0.2-0.9,0.2
		c-0.3,0-1.2,0.2-1.9,0.2l0,0h-0.3L-141.2,381.3L-141.2,381.3L-141.2,381.3z M-124.5,381.3h-2.3l-1.9-3.6v3.6h-1.6v-7.8h2.4l0,0
		c0.9,0,1.6,0.2,2.1,0.3c0.3,0.5,0.7,1.2,0.7,2.1c0,0.3-0.2,1-0.3,1.2c-0.3,0.3-0.9,0.5-1.2,0.5l0,0L-124.5,381.3L-124.5,381.3
		L-124.5,381.3z M-128.7,377h0.3l0,0c0.5,0,1.2-0.3,1.4-0.3c0,0,0.2-0.5,0.2-0.7c0-0.3-0.2-0.7-0.2-0.9c-0.2-0.2-0.9-0.3-1.4-0.3
		l0,0h-0.3V377L-128.7,377L-128.7,377z M-115.2,378.3l-1-2.4l0,0v-0.3c0-0.3,0-0.5,0-0.9c0,0.3-0.2,0.5-0.2,0.5
		c0,0.3-0.2,0.7-0.2,0.7l0,0l-0.9,2.4H-115.2L-115.2,378.3L-115.2,378.3z M-120,381.3l2.8-7.8h1.9l3.1,7.8h-1.9l-0.7-1.7h-3
		l-0.5,1.7H-120L-120,381.3L-120,381.3z M-107.6,380.2l1.1-1.2l0,0c0,0.5,0.3,0.9,0.5,0.9c0,0,0.5,0.2,0.9,0.2
		c0.2,0,0.9-0.2,0.9-0.2c0.2,0,0.3-0.3,0.3-0.9c0-0.2-0.3-0.7-1-0.9c-0.2,0-0.3-0.5-0.5-0.5c-0.7-0.2-1.2-0.5-1.2-0.7
		c-0.5-0.5-0.7-0.9-0.7-1.4c0-0.7,0.3-1.2,0.7-1.7c0.5-0.2,1.4-0.5,1.9-0.5c0.5,0,1,0.2,1.2,0.3c0.3,0,0.7,0.3,1,0.9l0,0l-1,0.7l0,0
		c0-0.2-0.3-0.5-0.3-0.5c-0.2,0-0.3-0.2-0.7-0.2c-0.3,0-0.5,0.2-0.5,0.3c-0.2,0.2-0.3,0.3-0.3,0.7c0,0.3,0.3,0.7,0.9,1l0.3,0.3
		c0.7,0.2,1,0.5,1.4,0.7c0.3,0.5,0.7,1,0.7,1.4c0,0.7-0.3,1.4-0.7,1.7c-0.7,0.3-1.4,0.7-2.3,0.7c-0.3,0-1-0.2-1.4-0.2
		C-107,381.1-107.6,380.8-107.6,380.2L-107.6,380.2L-107.6,380.2z M-96.1,381.3v-7.8h1.8v7.8L-96.1,381.3L-96.1,381.3L-96.1,381.3z
		 M-88.1,381.3v-7.8h1.7v6.4h2.6v1.4L-88.1,381.3L-88.1,381.3L-88.1,381.3z"/>
	<path class="st1" d="M-94.2,366c-0.2,0.2-0.3,0.9-0.3,1c-0.2,0.2-0.5,0.5-0.7,1c-0.2,0.5-0.2,1.2-0.2,1.4c0.2,0.2,0.3,0.3,0.7,0.3
		c0.7,0,1.6-0.3,2.6-1c1.2-0.7,2.2-1.7,3.3-2.9c0-0.2,0.2-0.3,0.5-0.7c0.3-0.3,0.7-0.7,0.7-0.7s0.2,0,0.2,0.2
		c0.3,0.2,0.3,0.3,0.3,0.5c-0.3,0.3-0.5,0.7-0.9,1c-0.3,0.7-1.2,1.2-1.9,1.9c-1,0.9-2.1,1.7-2.9,2.1c-1,0.5-1.7,0.9-2.6,0.9
		c-1.1,0-1.4-0.3-1.7-0.9c-0.4-0.3-0.4-1.2,0.2-2.1c0.3-1,1-2.4,1.9-4.2c0.9-1.4,2.1-2.8,3.3-4c0.3-0.2,0.9-0.5,1-0.7
		c0.3-0.3,0.7-0.3,0.9-0.3c0.4,0,0.5,0,0.5,0c0.2,0,0.2,0.3,0.3,0.5c0.2,0,0.3,0,0.7,0c0.5,0.2,0.9,0.5,0.7,1.4
		c-0.5,1.4-1.4,2.8-2.6,4c-1.4,1-2.5,1.6-3.1,1.6c-0.4,0-0.5,0-0.5,0c-0.3,0-0.3-0.2-0.5-0.3l0,0H-94.2L-94.2,366L-94.2,366z
		 M-92.8,365.5c0.2,0,0.9-0.5,1.4-1.2c0.9-0.9,1.2-1.9,1.4-2.6c0.2,0,0-0.3,0.2-0.5c-0.2,0-0.3-0.2-0.3-0.2c-0.2,0-0.7,0.3-1.6,1.2
		c-0.7,1-1.2,1.7-1.4,2.3c-0.2,0.3-0.2,0.5,0,0.7C-93.2,365.5-93,365.5-92.8,365.5L-92.8,365.5L-92.8,365.5z"/>
	<path class="st1" d="M-94.2,352.3c0-0.2-0.2-0.3-0.3-0.5c0,0-0.2,0-0.3,0c-0.2,0-0.7,0.2-1,0.7c-0.2,0.5-1,1.2-1.7,2.4
		c-2.4,3.3-4.5,6.4-6.1,9.2c-0.3,0.4-0.5,0.8-0.7,1.1c-0.1,0.1-0.2,0.2-0.3,0.4l-0.2,0.2c-1,1.2-1.9,2.1-2.4,2.8
		c-0.7,0.5-1,0.7-1.4,0.7c0,0-0.2,0-0.2-0.2c0.2,0,0.2-0.3,0.4-0.9c0.3-1.6,1.7-3.8,3.8-6.4c0.3-0.3,0.5-0.7,0.5-0.7
		c0.3-0.2,0-0.9,0-1c-0.2-0.2-0.5-0.2-0.7-0.2c-0.2,0-0.7,0.2-0.9,0.3c-0.4,0.2-0.7,0.7-0.7,1c-2.1,2.8-3.6,4.9-4.7,6.1
		c-1,1.2-2.1,1.7-2.4,1.7c-0.2,0-0.3,0-0.3-0.2c0,0,0-0.3,0.2-0.9c0.2-0.5,0.5-1.4,1.4-2.6c0.9-1.2,1.7-2.6,2.9-4
		c0.2,0,0.5-0.2,0.5-0.3l0.2-0.2c0-0.3,0-0.9,0-1c-0.2-0.2-0.5-0.2-0.8-0.2c-0.2,0-0.4,0-0.5,0.2c-0.2,0-0.7,0.3-0.9,0.5
		c-1.1,1.2-2.1,2.6-2.8,4c-0.4,0.6-0.7,1.2-1,1.8c-0.4,0.3-0.6,0.7-0.9,1c-0.9,0.7-1.4,1.5-2.1,1.9c-0.3,0.2-1,0.5-1.2,0.5
		c-0.2,0-0.3-0.3-0.3-0.5c0-0.2,0-1,0.2-1.6c0.2-0.2,0.2-0.7,0.3-0.9c0-0.3,0.3-0.7,0.5-0.9c3.1-3.1,5.9-6.2,8.2-9.2
		c2.2-2.8,3.4-4.7,3.8-5.7c0-0.3,0-1-0.3-1.4c-0.3-0.5-0.9-0.9-1.2-0.9c-0.4,0-0.9,0.2-1.4,0.3c-0.5,0.3-0.9,0.7-0.9,0.9
		c-0.2,0.2,0,0.3,0,0.3l-0.2,0.3c-1.4,2.1-3.1,4.5-4.7,6.8c-1.6,2.4-2.9,4.9-4.5,7.5c-0.2,0.2-0.9,0.5-1.2,0.5
		c-0.3,0-0.7,0.2-0.7,0.2c0,0.3,0,0.5,0,0.7c0,0.2,0.4,0.3,0.5,0.3h0.2l0.2-0.2v0.2c0,0.2-0.2,0.7-0.3,0.9c0,0.2-0.2,0.5-0.2,0.7
		c-0.4,0.9-0.4,1.6,0,2.1c0.2,0.5,0.7,1,1.4,1c0.4,0,0.9-0.2,1.2-0.2c0.3-0.3,0.7-0.7,1.2-0.9c0.3-0.3,0.8-0.8,1.4-1.2
		c0,0,0,0.1-0.1,0.1c0,0.2,0.2,0.3,0.5,0.5c0,0.3,0.2,0.7,0.3,0.7s0.5,0,0.9,0c0.3,0,0.9-0.2,1.7-0.7c0.3-0.3,1.2-1.2,2.2-2.1
		c0,0.1-0.1,0.2-0.1,0.3c0,0.2-0.4,0.3-0.4,0.3c-0.2,0.9-0.2,1.4,0,1.9c0.4,0.5,0.7,0.7,1.2,0.7c0.5,0,0.9-0.2,1.2-0.3
		c0.4-0.1,0.9-0.4,1.4-0.9c0,0,0,0,0,0c0,0.2,0,0.3,0.4,0.3c0,0,0.3,0.2,0.9,0.3c0.3,0.2,0.7,0.7,0.9,0.7c0.2,0,0.5,0.2,0.9,0.2
		c0.5,0,1.4-0.2,1.9-0.3c0.7-0.5,1.2-0.9,1.9-1.4c0.9-1,2.1-2.2,3-3.5c0.9-1.2,1.4-2.4,1.6-3.3c0.5-0.7,0.5-1.6,0.2-1.9
		c0-0.7-0.3-0.9-0.9-0.9c-0.7,0-1.2,0.2-2.1,0.7c-0.8,0.3-1.5,0.8-2.4,1.6c1.2-2.1,2.3-3.7,3.5-5.2c1.2-1.9,1.9-2.8,2.4-3.3
		c0,0,0.3-0.2,0.5-0.3c0.5-0.2,0.7-0.3,0.7-0.3s0-0.3,0-0.5C-93.7,352.5-93.9,352.3-94.2,352.3L-94.2,352.3z M-113.4,357.5
		c1.4-1.9,3.1-4.4,4.6-6.8c0.2,0,0.5,0,0.5,0h0.2c0,0,0,0.2,0,0.3c-0.2,0.7-1.2,2.3-3.1,4.7c-1.6,2.4-3.8,5-5.9,7.6l-0.2,0.2
		C-116.2,361.7-114.7,359.8-113.4,357.5L-113.4,357.5z M-97.3,361.3c0.2,0,0.3,0.2,0.3,0.5c0,0,0,0.3,0,0.5
		c-0.3,0.5-0.7,1.5-1.6,2.6c-0.9,1-1.9,2.4-2.6,3.5c-0.7,0.5-1.2,1.2-1.6,1.4c-0.5,0.2-0.9,0.2-1.2,0.2c-0.5,0-0.7,0-0.9-0.2
		c0-0.2,0-0.7,0.2-1c0.2-0.9,0.7-1.6,1.2-2.6c0.7-0.5,1.4-1.4,2.2-2.3c0.7-0.7,1.7-1.5,2.4-1.9C-98.2,361.5-97.5,361.3-97.3,361.3
		L-97.3,361.3z"/>
	<path class="st1" d="M-117.9,349.5c0.9,0.2,1.6,0.7,1.9,1.4c0.2,0.5,0.5,1.2,0.2,1.9c-0.2,0.7-0.5,1-0.9,1.4
		c-0.3,0.2-0.9,0.3-1.2,0.3c-0.2,0-0.5,0-0.5-0.2c-0.2-0.2-0.2-0.9,0-1.6c0-0.3,0-0.7-0.2-1c-0.2-0.2-0.7-0.2-1.1-0.2
		c-0.7,0-1.7,0.2-2.9,0.9c-1.2,1-2.6,2.1-3.8,3.7c-2.1,1.6-4,3.8-5.2,5.9c-1.6,2.4-2.8,4.7-3.3,6.4c-0.3,1.4-0.3,2.3,0,3
		c0.2,0.9,1.1,1.2,2.1,1.2c0.7,0,1.6,0,2.2-0.3c0.9-0.2,1.9-0.9,3-1.4c0.5-0.2,1.2-0.7,2.1-1c0.9-0.5,1.2-1,1.6-1
		c0.2,0,0.3,0.3,0.3,0.3c-0.2,0,0,0.2,0,0.3c-0.2,0.3-0.3,0.7-0.9,1c-0.3,0.3-1.4,0.9-1.9,1.6c-1.2,0.7-2.4,1.4-3.5,1.6
		c-1.2,0.7-2.2,1-2.9,1c-2.1,0-3.5-0.7-4.3-1.7c-0.9-1-1-2.8-0.3-4.5c0.3-1.9,1.7-4,3.5-6.6c1.7-2.8,4.2-5.6,6.8-8.1
		c1.4-1.9,2.8-3.3,4.2-4c1-0.9,2.1-1.4,2.8-1.4c0.2,0,0.7,0.3,1.1,0.3c0.5,0.2,0.9,0.7,1.2,0.9l0,0L-117.9,349.5L-117.9,349.5
		L-117.9,349.5z"/>
	<path class="st1" d="M-76,427.9c0,2.2-1.7,4-4,4c-1.5,0-2.7-0.7-3.4-1.8c-0.7,1.1-1.9,1.8-3.4,1.8c-1.5,0-2.8-0.8-3.5-2
		c-0.5,0.9-1.3,1.5-2.3,1.8v30.4h-2.1v-30.3c-1.2-0.3-2.2-1-2.7-2.1c-0.6,1.3-2,2.2-3.6,2.2c-1.5,0-2.7-0.7-3.4-1.8
		c-0.7,1.1-1.9,1.8-3.4,1.8c-2.2,0-4-1.7-4-4c0-2.3,1.7-4,4-4c1.5,0,2.7,0.7,3.4,1.9c0.7-1.1,1.9-1.9,3.4-1.9c1.6,0,2.9,0.9,3.6,2.2
		c0.6-1.3,2-2.2,3.5-2.2c1.5,0,2.8,0.8,3.5,2c0.7-1.2,1.9-2,3.5-2c1.4,0,2.7,0.7,3.4,1.9c0.7-1.1,1.9-1.9,3.4-1.9
		C-77.7,423.9-76,425.7-76,427.9L-76,427.9z"/>
</g>
</svg>
