<?xml version="1.0" encoding="utf-8"?>
<!-- Generator: Adobe Illustrator 19.1.0, SVG Export Plug-In . SVG Version: 6.00 Build 0)  -->
<svg version="1.1"
	 id="svg2598" sodipodi:docbase="C:\Temp" inkscape:output_extension="org.inkscape.output.svg.inkscape" sodipodi:version="0.32" xmlns:rdf="http://www.w3.org/1999/02/22-rdf-syntax-ns#" xmlns:sodipodi="http://sodipodi.sourceforge.net/DTD/sodipodi-0.dtd" xmlns:svg="http://www.w3.org/2000/svg" xmlns:cc="http://web.resource.org/cc/" xmlns:inkscape="http://www.inkscape.org/namespaces/inkscape" xmlns:dc="http://purl.org/dc/elements/1.1/" sodipodi:docname="Paysandu FC2.svg" inkscape:version="0.45.1"
	 xmlns="http://www.w3.org/2000/svg" xmlns:xlink="http://www.w3.org/1999/xlink" x="0px" y="0px" viewBox="-79 170.6 452 452.4"
	 style="enable-background:new -79 170.6 452 452.4;" xml:space="preserve">
<style type="text/css">
	.st0{fill:#0091CF;}
	.st1{fill:#FFFFFF;}
	.st2{clip-path:url(#SVGID_2_);}
	.st3{clip-path:url(#SVGID_4_);}
	.st4{clip-path:url(#SVGID_6_);}
	.st5{clip-path:url(#SVGID_8_);}
	.st6{clip-path:url(#SVGID_10_);}
	.st7{clip-path:url(#SVGID_12_);}
</style>
<sodipodi:namedview  inkscape:document-units="px" borderopacity="0.0" inkscape:cy="520" inkscape:cx="350" id="base" pagecolor="#ffffff" bordercolor="#ffffff" inkscape:zoom="0.35" inkscape:window-height="573" inkscape:window-y="183" inkscape:window-x="858" inkscape:pageopacity="0.0" inkscape:window-width="744" inkscape:current-layer="layer1" inkscape:pageshadow="0">
	</sodipodi:namedview>
<g>
	<g>
		<path id="path5" class="st0" d="M147,931.9C40.1,866.7-58.7,756.1-79,570.3c47.3-13.6,86.1-49.2,109.6-90.8h232.8
			c23.6,41.7,62.3,77.2,109.6,90.8C352.7,756.1,254,866.7,147,931.9L147,931.9z"/>
		<g>
			<path class="st1" d="M151.5,813c-0.1-0.4-0.6-0.6-0.9-0.6c-0.5,0.1-2.3,0.5-1.5,1.2C149.9,814.3,151.7,813.4,151.5,813z"/>
			<path class="st1" d="M159.5,812.1c-0.2-0.6-0.8-0.9-1.4-0.9c-0.8,0.2-3.2,0.8-2,1.8C157.3,814,159.8,812.8,159.5,812.1z"/>
			<path class="st1" d="M264.7,638.8c3.5,3.7,8.8,6.9,15.6,9.6c5.6,2.2,10.6,3.3,14.9,3.1c4.3-0.2,8.3-1.4,12.1-3.6
				c3.7-2.2,7.1-5.5,10.2-9.9l-15-11.9c-2.5,3.7-5,6.1-7.8,7.5c-2.7,1.3-6,1.3-9.7-0.2c-3.8-1.5-6.3-4-7.4-7.4
				c-1.1-3.4-0.3-8.7,2.5-15.7c2.2-5.7,4.8-9.4,7.6-11.4c3.8-2.6,7.9-3.1,12.3-1.3c1.9,0.8,3.6,1.9,4.8,3.3c1.3,1.4,2.1,3.1,2.6,5
				c0.3,1.2,0.4,2.8,0.2,5l18.7,3c0.4-7.5-1-13.8-4.3-18.8c-3.3-5-8.9-9.1-16.8-12.2c-10.2-4-19.1-4.3-26.9-0.9
				c-7.8,3.4-13.7,10.3-17.9,20.8c-3.1,7.8-4,14.9-2.9,21.1C258.8,630.1,261.2,635.1,264.7,638.8z"/>
			<path class="st1" d="M156.5,592c-1.9,1.7-4.7,2.5-8.2,2.5c-4.8,0-8.5-1.6-11-4.9c-1.6-2-2.6-5-3.1-8.8l-23.8,1.5
				c0.7,8.2,3.7,14.9,9,20.2c5.3,5.3,14.8,7.9,28.5,7.9c7.8,0,14.3-1.1,19.5-3.4c5.2-2.3,9.2-5.6,12-10c2.9-4.4,4.3-9.1,4.3-14.3
				c0-4.4-1.1-8.4-3.2-12c-2.1-3.6-5.6-6.5-10.3-9c-4.7-2.4-12.5-4.8-23.4-7.1c-4.4-0.9-7.2-1.9-8.4-3c-1.2-1-1.8-2.2-1.8-3.5
				c0-1.8,0.7-3.3,2.2-4.5c1.5-1.2,3.6-1.8,6.6-1.8c3.5,0,6.3,0.8,8.3,2.5c2,1.7,3.3,4.3,4,7.9l23.5-1.4c-1-8.4-4.3-14.5-9.7-18.3
				c-5.4-3.8-13.3-5.8-23.6-5.8c-8.4,0-15,1.1-19.9,3.2c-4.8,2.1-8.4,5-10.9,8.7c-2.4,3.7-3.6,7.6-3.6,11.8c0,6.3,2.4,11.5,7.1,15.6
				c4.7,4.1,12.5,7.3,23.4,9.8c6.7,1.5,10.9,3,12.8,4.7c1.8,1.7,2.7,3.5,2.7,5.6C159.4,588.3,158.5,590.3,156.5,592z"/>
			<path class="st1" d="M26.2,643.1l-15.6-19.7l9-7.1c6.6-5.2,10.4-10.7,11.2-16.2c0.8-5.6-0.9-11.1-5.1-16.4
				c-4.1-5.2-8.8-8.1-14-8.5c-5.2-0.5-10.8,1.6-16.7,6.3L-32.4,603l42.1,53.2L26.2,643.1z M6.1,609.4l-4,3.2l-9.4-11.9l4.7-3.7
				c3.1-2.4,5.6-3.5,7.7-3.2c2,0.3,3.7,1.3,5,2.9c1.4,1.7,1.8,3.6,1.4,5.7C11,604.6,9.2,606.9,6.1,609.4z"/>
			<path class="st1" d="M284.1,703.3c-5.2,0.6-10.7,0.6-13-2.5c9.3-3,35.6-12.3,36.8-26.6c-19.2,1.9-68.1-5.3-102.3,1.7
				c-25.8,5.3-41.5,19.9-40.9,39.9c10.5-4.2,28.6,1.4,43.8,4.8c-1.5-3.5-2.2-5.6-1.1-7.1c7.5,6.1,15.9,13.1,34.4,10
				c-2.7-2.5-4.5-5.1-3.6-7.6C256.6,717.2,274.9,713.4,284.1,703.3z M235.7,712l-0.9,2.7c-0.7,2.1-0.5,4.1,0.3,5.9
				c-4.5,0.2-8.9-0.3-13.2-2c-4.7-1.8-8.3-4.8-12.1-7.9l-3-2.5l-2.3,3.1c-1,1.3-1.3,2.8-1.3,4.2c-10.6-2.6-24.4-6-34.6-4.5
				c2.1-18.5,20.6-28,37.8-31.5c11.7-2.4,24.3-3,36.3-3.1c12.5-0.1,25,0.6,37.5,1.1c5.3,0.2,10.5,0.5,15.8,0.6c2.3,0,4.7,0.1,7,0
				c-5.4,9.4-24.8,16.5-32.8,19.1l-4.8,1.6l3,4.1c1.4,1.9,3.3,3,5.5,3.7c-10.4,5.4-24.7,6.3-35.2,5.6L235.7,712z"/>
			<path class="st1" d="M181.2,790.6c-8.9-13.5-24.2-24.9-26.3-40.2c-4.3-30.2,4.8-67.8,18-87.4c-9.5-1.7-16.4,1.6-20.9,8
				c-2.2-7-4.1-14.4-9.6-21.5c-5.9,7.7-9.7,15-12.5,22.3c-9.2-5.7-17.3-5.5-24.4-5.6c9.5,14.2,15.6,29.6,18.5,45.3
				c-15.6-20.3-31.8-41-76-41.1c-21.4,0-43.4-3.3-66.9-11.5c8.2,19.9,24.6,28.7,39.9,35.9c-3,1.8-7.2,1.8-10.4,1.9
				c7.7,7.8,22.8,13.1,39.5,15.3c-1.1,1.9-5.5,3-9.7,4c10.1,5.8,30.9,4.6,41.7,2.5c-1.1,2.3-3.7,3.2-6.2,4c8.7,2.9,22.7-3,31.9-2.6
				c6.8,0.3,12.7,2.9,17.9,6.8c0.4,7.4,0.2,14.8-0.7,22.1c-0.7,6-7.8,10.6-7.2,16.6c0.6,6.4,7.2,11.6,10.8,16.9
				c6.1,8.9,8.9,19.9,14.5,26.2c0.6,0.6,1.7,3.9,4.3,6.3c1.9,1.7,5.2,1.2,5.4-0.3c0.4-2.9-2.5-6-3.9-8.1c1,1.1,4.6,6.8,5,7.4
				c1.5,2.5,6.8,2.4,6.8-0.7c0-2.4-1.4-5.7-4.1-9c2.1,2.1,4.2,6.4,6.1,7.5c3.2,2,6.3,0.4,7-0.8c1.1-1.9-1.1-6.9-5-10.3
				c2.9,2.5,5,6.6,6.1,7.8c4.4,4.5,8.6-0.3,8.6-2.7c0-1.2-0.3-2.1-0.7-2.9c-0.1-0.2-0.2-0.4-0.3-0.6c-1.1-1.7-2.7-2.7-3.5-4
				c0.6,0.9,2,2.2,2.8,3c0.4,0.4,0.5,0.7,0.7,1c0.1,0.2,0.2,0.4,0.3,0.6c0.1,0.2,0.3,0.3,0.5,0.6c1.1,1.1,2.7,2.3,4,2.6
				c4.7,0.9,7.5-3.9,6.6-6.9C188.7,794.2,184.4,795.4,181.2,790.6z M108.3,716.4c-5.1-0.2-10.8,1.1-15.8,2c-1.9,0.4-4.2,0.8-6.5,1.1
				l2.8-5.9l-7.1,1.3c-7.4,1.4-20.1,2.4-30,0.8c0.7-0.6,1.4-1.2,1.8-2l2.6-4.7l-5.4-0.7c-9-1.2-21.5-3.9-30.5-9.1
				c1-0.3,2-0.8,2.9-1.3l5.8-3.6l-6.2-2.9c-14.1-6.6-26.3-13.6-34.2-26.3c19.4,5.9,39.2,8.9,59.6,8.9c17.6,0,34.3,3.3,48.8,13.8
				c11,8,18.7,18.6,26.9,29.3c0.5,1.6,0.9,3.2,1.4,4.8C120.2,718.7,114.6,716.7,108.3,716.4z M150.5,812c0,0,1,0,1.3,0.9
				c0.3,0.8-1.9,1.9-3,1C147.8,812.9,149.4,812.3,150.5,812z M158.1,810.8c0,0,1.4,0,1.7,1.1c0.4,1.1-2.5,2.5-4,1.3
				C154.4,812,156.6,811.2,158.1,810.8z M166.7,807.2c0,0,1.6,0.1,2,1.3c0.4,1.2-2.9,2.9-4.5,1.5
				C162.5,808.5,164.9,807.6,166.7,807.2z M177.6,803.5c0.5,1.6-3.7,3.7-5.8,1.9c-2.1-1.8,1-3,3.3-3.5
				C175.1,801.8,177.1,801.9,177.6,803.5z M188,799.4c-0.6,1.8-3.6,2.7-4.9,2.1s-3.5-3.1-3.5-3.1s3.9-2.7,5.8-2.2
				C187.2,796.7,188.6,797.6,188,799.4z"/>
			<path class="st1" d="M253,499.5H41.1c-23.6,37.6-58.5,69-100,85.1c18.9,139.6,87,251.3,206,327.3c119-76.1,187.1-187.8,206-327.3
				C311.5,568.5,276.6,537.1,253,499.5z M228.2,732.7V831c-23.5,25-50.6,47.6-81.2,67.8c-30.6-20.2-57.7-42.8-81.2-67.8v-98.3H51.9
				v82.7C-1,753.3-33.7,678.1-46.8,591.5c38.3-16.9,70.7-46.1,93.9-80.9h4.9v153.1h13.9V510.6h162.4v153.1h13.9V510.6h4.9
				c23.1,34.8,55.5,64,93.9,80.9c-13.1,86.6-45.8,161.8-98.7,223.9v-82.7H228.2z"/>
			<path class="st1" d="M168.3,808.6c-0.2-0.6-0.9-1-1.6-1c-0.9,0.2-3.7,0.9-2.3,2.1C165.7,810.8,168.6,809.5,168.3,808.6z"/>
			<path class="st1" d="M172.1,805.1c1.8,1.5,5.6-0.2,5.2-1.5c-0.3-0.9-1.3-1.4-2.1-1.4C174,802.5,170.2,803.4,172.1,805.1z"/>
			<path class="st1" d="M185.2,796.6c-1.2-0.3-3.8,1.1-5.1,1.9c0.9,0.9,2.2,2.2,3.1,2.7c1.3,0.7,3.9-0.5,4.4-1.9
				C188.3,797.6,186.6,797,185.2,796.6z"/>
		</g>
		<g>
			<g>
				<defs>
					<path id="SVGID_1_" d="M145.3,321.1c1.2,0.9,4.6,3.6,4.7,4.8c0,0-9.4,6.5-10.4,8.2c0,0-10.2-2.3-12.4-0.9c0,0,0.6-4,0.3-6.1
						C132.5,323.6,138.7,321.4,145.3,321.1L145.3,321.1z"/>
				</defs>
				<clipPath id="SVGID_2_">
					<use xlink:href="#SVGID_1_"  style="overflow:visible;"/>
				</clipPath>
				<g id="g303" class="st2">
					<g id="g311">
						<defs>
							<rect id="SVGID_3_" x="127.1" y="321.1" width="22.9" height="12.9"/>
						</defs>
						<clipPath id="SVGID_4_">
							<use xlink:href="#SVGID_3_"  style="overflow:visible;"/>
						</clipPath>
						<g id="g319" transform="translate(1.620298e-6,-1.65352e-6)" class="st3">
						</g>
					</g>
				</g>
				<g class="st2">
					<g>
						<defs>
							<path id="SVGID_5_" d="M169.5,328.8l-3.5,3.6c0,0,4.3,9,4,11.4c0,0,7.6,3.6,10.2,6.7l1.5-3.3
								C179.6,339.9,175.3,333.5,169.5,328.8L169.5,328.8z"/>
						</defs>
						<clipPath id="SVGID_6_">
							<use xlink:href="#SVGID_5_"  style="overflow:visible;"/>
						</clipPath>
						<g id="g325" class="st4">
							<g id="g333">
								<defs>
									<rect id="SVGID_7_" x="166" y="328.8" width="15.6" height="21.6"/>
								</defs>
								<clipPath id="SVGID_8_">
									<use xlink:href="#SVGID_7_"  style="overflow:visible;"/>
								</clipPath>
								<g id="g341" transform="translate(4.953836e-6,-2.304048e-6)" class="st5">
								</g>
							</g>
						</g>
						
							<g id="layer1" transform="translate(-123.9775,-306.15118)" inkscape:label="Layer 1" inkscape:groupmode="layer" class="st4">
							<g id="g3" transform="translate(123.9775,-2.7828174)">
								<defs>
									<polygon id="SVGID_9_" points="143.8,347 134.3,358.9 144.5,372.7 159.1,368.1 158.8,352.9 									"/>
								</defs>
								<clipPath id="SVGID_10_">
									<use xlink:href="#SVGID_9_"  style="overflow:visible;"/>
								</clipPath>
								<g id="g347" class="st6">
									<g id="g355">
										<defs>
											<rect id="SVGID_11_" x="134.3" y="347" width="24.7" height="25.7"/>
										</defs>
										<clipPath id="SVGID_12_">
											<use xlink:href="#SVGID_11_"  style="overflow:visible;"/>
										</clipPath>
										<g id="g363" transform="translate(1.33735e-6,6.567934e-6)" class="st7">
										</g>
									</g>
								</g>
							</g>
						</g>
					</g>
				</g>
			</g>
		</g>
	</g>
</g>
</svg>
