<?xml version="1.0" encoding="utf-8"?>
<!-- Generator: Adobe Illustrator 19.1.0, SVG Export Plug-In . SVG Version: 6.00 Build 0)  -->
<svg version="1.1" id="Layer_1" xmlns="http://www.w3.org/2000/svg" xmlns:xlink="http://www.w3.org/1999/xlink" x="0px" y="0px"
	 viewBox="-206.2 310.3 187.1 172.6" style="enable-background:new -206.2 310.3 187.1 172.6;" xml:space="preserve">
<style type="text/css">
	.st0{fill:#FFFFFF;}
	.st1{fill:#CD3529;}
</style>
<g>
	<path d="M-112.6,482.9c-18-17.3-31.4-10.5-49.6-28l-5,4.2c-15.2-10.6-25.1-24-31.3-39.5c-11.9-2.1-9-15.2,3.1-14.2l20.6-39.4
		l-17.6-9.3l23.7-42.9c23.2,5,25.9-13,56.1,3.5c30.3-16.5,33,1.6,56.2-3.5l23.7,42.9l-17.6,9.3l20.6,39.4c12.1-1,15,12.1,3.1,14.2
		c-6.2,15.5-16.1,28.9-31.3,39.5l-5-4.2C-81.1,472.4-94.6,465.6-112.6,482.9L-112.6,482.9z"/>
	<path class="st0" d="M-196.9,409.9h5.7l24.2-46.3l-17.5-9.2l18.7-33.9c8.2,1.6,17.2-1.7,25-3.7c5.1-0.9,9-0.5,13.9,0.9
		c4.9,1.4,9.6,4,14,6.4c7.3-3.7,14.8-7.8,23.2-7.8c8,0.8,15.2,4.1,23.3,4.6c2,0,4.7,0.1,6.6-0.3l18.7,33.9l-17.5,9.2l24.2,46.3h5.4
		c5.1,0,4.6,5.8,0,5.8h-2.6c-3.5,8-7.5,16.1-13.2,22.9c-4.1,4.9-8.4,9-13.2,12.9l-5.5-4.8c-5.5,5.4-10.9,10.4-18.1,13.4
		c-4.1,1.9-8.6,3.1-12.9,4.7c-6.6,2.1-13.1,5.7-18.4,10.1c-5.3-4.4-11.9-8-18.4-10.1c-6.2-2.4-12.6-4.1-18.3-7.5
		c-4.8-2.8-8.6-6.7-12.6-10.6l-5.5,4.8c-8.9-7.3-15.6-14.9-21.2-25c-1.8-3.5-3.5-7.4-5-11h-3.1
		C-201.1,415.6-201.3,409.9-196.9,409.9L-196.9,409.9z"/>
	<polygon points="-119,384.2 -119,391.2 -114.5,391.2 -114.5,384.2 	"/>
	<polygon points="-120.4,358.7 -120.4,365.7 -109.8,365.7 -109.8,358.7 	"/>
	<polygon points="-119.3,373 -119.3,379.9 -108.5,379.9 -108.5,373 	"/>
	<polygon points="-121.8,347.7 -121.8,354.6 -103.5,354.6 -103.5,347.7 	"/>
	<polygon points="-127.5,430.9 -127.5,430.9 -127.5,437.8 -98.5,437.8 -98.5,430.9 	"/>
	<polygon points="-121.5,415.7 -121.5,422.6 -104.6,422.6 -104.6,415.7 	"/>
	<polygon points="-118.6,393.9 -118.6,400.9 -107.8,400.9 -107.8,393.9 	"/>
	<path d="M-185.1,409.9h2.6c1.8,0,3.2,1.3,3.2,2.8c0,1.7-1.4,3-3.2,3l-5.6-0.1c4.7,11.1,11.4,20.8,20.5,28.9l5.6-4.8l4.3,4
		c2.1,2.1,8.2,9.1,12.7,9.1c37.2,0.8,35.3-107.9,14.3-129.5c-1.8-1.9-6.4-1.8-9.2-1.2c-7.6,2.1-15,4.4-22.9,4.2l-14.4,26l17.3,9.1
		L-185.1,409.9L-185.1,409.9z"/>
	<path class="st1" d="M-40.5,409.9h-2.7c-1.8,0-3.2,1.3-3.2,2.8c0,1.7,1.4,3,3.2,3l5.7-0.1c-4.6,11.1-11.3,20.8-20.5,28.9l-5.6-4.8
		l-4.4,4c-2.1,2.1-8.2,9.1-12.6,9.1c-37.3,0.8-35.3-107.9-14.3-129.5c1.8-1.9,6.4-1.8,9.2-1.2c7.6,2.1,15,4.4,22.9,4.2l14.4,26
		l-17.4,9.1L-40.5,409.9L-40.5,409.9z"/>
	<polygon class="st0" points="-110.8,359.7 -127.3,359.7 -127.3,364.6 -110.8,364.6 	"/>
	<path class="st0" d="M-141.9,365.6c0.1-0.3,0.7-0.9,1-1c0.1,0,4.6,0,4.6,0v-4.9h-4.6c-2.9,0-5.9,3-5.9,5.9v6.5h4.9
		C-141.9,372.1-141.9,365.7-141.9,365.6L-141.9,365.6z"/>
	<polygon class="st0" points="-88.9,374 -93.1,374 -93.1,378.9 -88.9,378.9 	"/>
	<polygon class="st0" points="-102.9,374 -127.1,374 -127.1,378.9 -102.9,378.9 	"/>
	<path class="st0" d="M-148.6,378.9h12.5V374h-12.5c-5.6,0-9.7,5.1-10.1,12.4c0,0.3,0,0.7,0,1c0,6.8,4.1,11.9,9.5,12.5l0-4.9
		c-3.2-0.3-4.6-4.1-4.6-7.6c0-0.2,0-0.5,0-0.7C-153.6,382.8-151.8,378.9-148.6,378.9L-148.6,378.9z"/>
	<polygon class="st0" points="-139.7,399.9 -136.4,399.9 -136.4,394.9 -139.7,394.9 	"/>
	<polygon class="st0" points="-102.9,394.9 -126.7,394.9 -126.7,399.9 -102.9,399.9 	"/>
	<path class="st0" d="M-90.8,416.7h-2.3v4.9h2.3c5.8,0,9-7.3,9-14.1c0-2.2-0.3-5.5-1.9-8.2c-1.6-2.8-4.1-4.4-7.1-4.4h-2.3v4.9h2.3
		c0.8,0,1.9,0.2,2.8,1.9c0.8,1.4,1.2,3.5,1.2,5.8C-86.7,412.3-88.7,416.7-90.8,416.7L-90.8,416.7z"/>
	<polygon class="st0" points="-127.1,421.6 -102.9,421.6 -102.9,416.7 -127.1,416.7 	"/>
	<polygon class="st0" points="-139.6,421.6 -136.8,421.6 -136.8,416.7 -139.6,416.7 	"/>
	<polygon class="st0" points="-152.3,421.6 -149.3,421.6 -149.3,416.7 -152.3,416.7 	"/>
	<path class="st0" d="M-129.4,354.5c0-0.4,0.1-0.9,0.8-0.9h35c0.7,0,1.4,0,1.4,2.1h4.9c0-4.4-2.4-7.1-6.3-7.1h-35
		c-3.3,0-5.7,2.5-5.7,5.8v27.7h4.9V354.5L-129.4,354.5z"/>
	<path class="st0" d="M-91.9,429.6c0,0.1,0,0.5,0,0.6c0,0.5-0.2,1.1-0.5,1.5c-0.2,0.2-0.3,0.2-0.4,0.2h-35.8c-0.5,0-0.8-0.3-0.8-0.9
		V392h-4.9V431c0,3.3,2.5,5.8,5.7,5.8h35.8c1.6,0,3.1-0.7,4.1-2c1-1.3,1.6-3,1.6-4.6c0-0.4,0-0.2-0.1-0.6L-91.9,429.6L-91.9,429.6z"
		/>
	<path class="st0" d="M-75.7,372.9v-9.3c0-3.2-2.4-5.8-5.4-5.8h-14.2c-3,0-5.5,2.6-5.5,5.8v58.3c0,3.2,2.5,5.8,5.5,5.8h14.2
		c3.2,0,5.4-2.3,5.4-5.8v-6.1h-4.9v6.1c0,0.5-0.1,0.8-0.1,0.8c0,0-0.1,0-0.3,0h-14.2c-0.2,0-0.5-0.3-0.5-0.9v-58.3
		c0-0.5,0.3-0.9,0.5-0.9h14.2c0.2,0,0.5,0.4,0.5,0.9v9.3L-75.7,372.9L-75.7,372.9z"/>
	<polygon class="st0" points="-115.6,390.2 -115.6,385.3 -141.9,385.3 -141.9,381 -146.9,381 -146.9,427.2 -141.9,427.2 
		-141.9,390.2 	"/>
</g>
</svg>
