<?xml version="1.0" encoding="utf-8"?>
<!-- Generator: Adobe Illustrator 19.1.0, SVG Export Plug-In . SVG Version: 6.00 Build 0)  -->
<svg version="1.1" id="Layer_1" xmlns="http://www.w3.org/2000/svg" xmlns:xlink="http://www.w3.org/1999/xlink" x="0px" y="0px"
	 viewBox="-192.9 303.1 160.5 187.1" style="enable-background:new -192.9 303.1 160.5 187.1;" xml:space="preserve">
<style type="text/css">
	.st0{fill:#FFFFFF;}
	.st1{fill:#CD3529;}
</style>
<g>
	<path d="M-121,312.1c-18,19.5-38.8,31.1-61.8,34.3l-9.1,1.3l-0.6,9.2c-1.1,15,0.9,30.9,5.5,46l0.1,0.3
		c11.3,36.5,36.5,67.1,69.2,84.2l5.4,2.8l5.3-2.8c32.7-17,58-47.7,69.2-84.2l0.1-0.3l0-0.1c4.4-14.9,6.2-30.8,5.1-45.9l-0.6-9.2
		l-9.1-1.3c-23-3.3-43.2-14.5-61.9-34.4l-8.4-8.9L-121,312.1L-121,312.1z"/>
	<path class="st0" d="M-117.8,315.1c-18.7,20.3-40.4,32.3-64.4,35.7l-5.6,0.8l-0.4,5.7c-1,14.4,0.8,29.8,5.3,44.4l0.1,0.3
		c10.9,35.4,35.4,65.1,67,81.6l3.3,1.7l3.3-1.7c31.7-16.5,56.1-46.2,67.1-81.6l0.1-0.3l0,0c4.3-14.4,6-29.8,4.9-44.3l-0.4-5.7
		l-5.6-0.8c-24-3.4-45.1-15.1-64.5-35.8l-5.2-5.5L-117.8,315.1L-117.8,315.1z"/>
	<path d="M-49,399.6h-127.2l0.1,0.2c10.4,33.6,33.5,61.8,63.6,77.4l0.1,0l0.1,0c30-15.6,53.2-43.9,63.6-77.4l0.1-0.2H-49L-49,399.6z
		"/>
	<path class="st1" d="M-48.8,399.8c4.2-14,5.7-28.6,4.7-42.1c-25.4-3.6-48.1-16.1-68.6-37.9c-20.1,21.8-43.2,34.3-68.6,37.9
		c-0.9,13.5,0.8,28,5.1,42.1H-48.8L-48.8,399.8z"/>
	<path class="st0" d="M-162.3,362.5l14.6-7.6c-0.2,4.5,0.4,10,2.5,14.4L-131,400v17.2l-21.2-44.2
		C-154.3,368.9-158.7,365.9-162.3,362.5L-162.3,362.5z"/>
	<path class="st0" d="M-61.5,363.8l-14.6-7.6c0.2,4.5-0.6,10-2.5,14.4l-22.7,51.4l8.9-1.3l20.8-46.2
		C-69.6,370.2-65.1,367.2-61.5,363.8L-61.5,363.8z"/>
	<path class="st0" d="M-132.3,449.5h13.1v-45.1h13.6c2.8,0,4.5,3.6,6.6,5.5l0.2-18.6c-2.3,1.7-3.8,4.9-6.6,4.9h-13.6l-0.2-18.4
		l-8.7,2.7v61.6C-128,444.9-130.8,447-132.3,449.5L-132.3,449.5z"/>
	<path class="st0" d="M-127.8,366.6v-12.5c0-2.8-2.7-4.9-4.4-7.2h40.6v12.5c-3.2-2.1-5.9-5.9-9.5-5.9h-18v11.4L-127.8,366.6
		L-127.8,366.6z"/>
	<path class="st0" d="M-100.1,449.6h13.5v-12.5c-0.6,0.6-0.9,5.7-10.8,5.7L-100.1,449.6L-100.1,449.6z"/>
	<polygon class="st0" points="-116.2,437.9 -116.2,450.2 -109.8,462.9 -97.3,434.7 -105,434.9 -110.7,449.3 	"/>
	<path class="st0" d="M-131,420.6c-10.4-4.6-20.1-12.1-26.9-20.8c2.1-4.4,6.3-8.7,9.9-10.8l-4.2-7.6c-5.1,3.8-10.6,8-13.1,13.6
		c-0.9,2.1-2.7,3.6-4.4,4.7c1.7,0.9,2.8,0.8,4.5,3.2c8.3,11.9,21,21.2,34.1,26C-131,425.8-131,423.9-131,420.6L-131,420.6z"/>
	<path class="st0" d="M-140.3,373.6l3.8,7.4c17.4-7.8,34.5-8,50.2-2.1l3-6.6C-100.3,364.9-121.2,365.5-140.3,373.6L-140.3,373.6z"/>
	<path class="st0" d="M-70.6,378.8l-2.8,6.6l5.3,2.7c1.5,0.6,2.1,2.7,3,4l4.7-10.4c-1.7,0-3.6,0.8-5.1,0L-70.6,378.8L-70.6,378.8z"
		/>
	<path class="st0" d="M-116.4,423.5v7.2c19.1,4.2,37.1-1.5,53.8-11.4l-4.9-7.4C-79.3,422-99.4,426.9-116.4,423.5L-116.4,423.5z"/>
</g>
</svg>
