<?xml version="1.0" encoding="utf-8"?>
<!-- Generator: Adobe Illustrator 19.1.0, SVG Export Plug-In . SVG Version: 6.00 Build 0)  -->
<svg version="1.1" id="svg2" xmlns:svg="http://www.w3.org/2000/svg"
	 xmlns="http://www.w3.org/2000/svg" xmlns:xlink="http://www.w3.org/1999/xlink" x="0px" y="0px"
	 viewBox="-230.7 311.4 376.5 480.9" enable-background="new -230.7 311.4 376.5 480.9" xml:space="preserve">
<g id="layer2">
	<path id="path1317" fill="#FFFFFF" stroke="#FFE501" stroke-width="11.5" d="M114.6,666.3L-42.5,785.1l-157-118.7
		c0,0-10.7-7.7-17-19.6c-6.3-11.8-8.2-27.8-8.2-27.8l-0.2-301.6l365-0.2l-0.3,299.3c0,0-2.6,19.6-8.9,32
		C124.6,661,114.6,666.3,114.6,666.3z"/>
	<path id="path17078" fill="#FF0D00" d="M-111.3,726.1l-34.9-26.5v-92.5l34.7-35.2L-111.3,726.1z"/>
	<path id="path17954" fill="#FF0D00" d="M-64.5,761.5l0.1-240.9l34.6-31.2v279.2l-12.6,9.3L-64.5,761.5z"/>
	<path id="path19706" fill="#FF0D00" d="M126.2,645.4c-5.7,11.4-14.8,16.1-14.8,16.1l-13.1,10V357.8l36.2-34.9l-0.3,293.2
		C134.2,616.2,131.9,634.1,126.2,645.4z"/>
	<path id="path6560" fill="#13007C" d="M-219,618.7l-0.2-295.6l353.6-0.2l-331.1,338.4c0,0-9.7-7.3-15.3-17.9
		C-217.6,632.8-219,618.7-219,618.7z"/>
	<path id="rect8309" fill="#FFFFFF" d="M-170,372.2H16.9L-170,563.6V372.2z"/>
	<path id="path11806" fill="#FFFFFF" d="M-194,357l-12.4,9.2l4.7-14.7l-12.6-9h15.5l4.6-14.8l4.9,14.7l15.5-0.1l-12.5,9.1l5,14.7
		L-194,357z"/>
	<path id="path12681" fill="#FFFFFF" d="M-59.3,356.4l-12.4,9.2l4.7-14.7l-12.6-9h15.5l4.6-14.8l4.9,14.7l15.5-0.1l-12.5,9.1l5,14.7
		L-59.3,356.4z"/>
	<path id="path12683" fill="#FFFFFF" d="M75.2,356.4l-12.4,9.2l4.7-14.7l-12.6-9h15.5l4.6-14.8l4.9,14.7l15.5-0.1l-12.5,9.1l5,14.7
		L75.2,356.4z"/>
	<path id="path12685" fill="#FFFFFF" d="M-14.6,448.5l-12.4,9.2l4.7-14.7l-12.6-9h15.5l4.6-14.8l4.9,14.7l15.5-0.1l-12.5,9.1l5,14.7
		L-14.6,448.5z"/>
	<path id="path12687" fill="#FFFFFF" d="M-104.4,540.1l-12.4,9.2l4.7-14.7l-12.6-9h15.5l4.6-14.8l4.9,14.7l15.5-0.1l-12.5,9.1
		l5,14.7L-104.4,540.1z"/>
	<path id="path12689" fill="#FFFFFF" d="M-194.1,631.7l-12.4,9.2l4.7-14.7l-12.6-9h15.5l4.6-14.8l4.9,14.7l15.4-0.1l-12.5,9.1
		l5,14.7L-194.1,631.7z"/>
	<path id="path12691" fill="#FFFFFF" d="M-193.7,494.1l-12.4,9.2l4.7-14.7l-12.6-9h15.5l4.6-14.8l4.9,14.7l15.5-0.1l-12.5,9.1
		l5,14.7L-193.7,494.1z"/>
	<path id="path13580" fill="#4B1F17" d="M-126.5,491.8c0,0,15.8-0.1,21.4,0.7c5.7,0.8,1,3.2,1,3.2h-55.2c0,0-2.6-1.7,1.6-2.7
		c4.2-1,11.2-0.7,11.2-0.7s5.2-0.4,5.7-1.5s0.6-3.7,0.6-3.7l0.2-64.2l7-0.2l-0.1,64.3c0,0,0.5,1.8,1.9,3.2
		C-129.7,491.3-126.5,491.8-126.5,491.8z"/>
	<path id="path12693" fill="#2A4C2C" d="M-105.3,402.3c0,12.4-14.3,22.4-31.9,22.4s-31.9-10-31.9-22.4s14.3-22.4,31.9-22.4
		S-105.3,389.9-105.3,402.3z"/>
	<path id="path13568" fill="#FF0D00" d="M-152.8,396c0,1.3-1,2.4-2.3,2.4c-1.3,0-2.3-1.1-2.3-2.4l0,0c0-1.3,1-2.4,2.3-2.4
		C-153.9,393.6-152.8,394.7-152.8,396L-152.8,396z"/>
	<path id="path13570" fill="#FF0D00" d="M-139.3,389.8c0,1.3-1,2.4-2.3,2.4c-1.3,0-2.3-1.1-2.3-2.4l0,0c0-1.3,1-2.4,2.3-2.4
		C-140.4,387.4-139.3,388.5-139.3,389.8L-139.3,389.8z"/>
	<path id="path13572" fill="#FF0D00" d="M-129.6,399.7c0,1.3-1,2.4-2.3,2.4c-1.3,0-2.3-1.1-2.3-2.4l0,0c0-1.3,1-2.4,2.3-2.4
		C-130.6,397.4-129.6,398.4-129.6,399.7L-129.6,399.7z"/>
	<path id="path13574" fill="#FF0D00" d="M-114.3,395.3c0,1.3-1,2.4-2.3,2.4c-1.3,0-2.3-1.1-2.3-2.4l0,0c0-1.3,1-2.4,2.3-2.4
		C-115.3,393-114.3,394-114.3,395.3L-114.3,395.3z"/>
	<path id="path13576" fill="#FF0D00" d="M-120.8,409.2c0,1.3-1,2.4-2.3,2.4c-1.3,0-2.3-1.1-2.3-2.4l0,0c0-1.3,1-2.4,2.3-2.4
		C-121.8,406.8-120.8,407.9-120.8,409.2L-120.8,409.2z"/>
	<path id="path13578" fill="#FF0D00" d="M-141.1,409.3c0,1.3-1,2.4-2.3,2.4c-1.3,0-2.3-1.1-2.3-2.4l0,0c0-1.3,1-2.4,2.3-2.4
		C-142.1,407-141.1,408-141.1,409.3L-141.1,409.3z"/>
	<path id="path15329" d="M-101.2,463.6c2.1,6.6,0.1,0.7,2.3,7.1c-2.2-6.4,1.8,0.5,1.7,3.6s-3.1,1.5-5,2.8c-1.9,1.3-2.5,3.7-2.5,3.7
		l0.1,3.4l1.2,3.4c0,0,3.6,4.7,0.9,5.5c-2.7,0.8-10.3-1.3-14.9-0.4c-2.9,0.6-3.7-1.2-1.2-1.9c2.2-0.7,6.4,0.9,5.5-2.9
		c-0.9-3.8-2.5-2.5-4.1-4.5c-1.6-2-1.7-2.3-2.5-5.4c-0.8-3.1,1.3-2.9-0.6-7.4c-0.6-1.5-2.8-1.8-3.8-3.4c-2.1-3.2-2.8-5.9-3.6-6.5
		c-0.8-0.7-5.3-1.5-5.3-1.5l-0.1-24.3c0,0,5.1,7,7.6,8.8s2.5-1.4,2.5-1.4l0.5-5.6l0.4-6.3c0,0-1.7-0.4-2-2.3
		c-0.3-1.9-0.8-5.6,0.7-5.9c1.6-0.2,4.8,3.9,4.8,3.9s4.3-1.4,6.7-0.6s3,3.7,3,3.7s4.3-1.7,4.8-0.7c0.4,0.7,0.2,3-2.2,7.6
		c-0.9,1.7-2,5-1.8,7.4C-107.2,452.3-103.3,457-101.2,463.6z"/>
	<path id="rect18830" fill="#FF0D00" d="M16.8,442.5l34.7-35.1v299.4l-34.7,26.3V442.5z"/>
</g>
</svg>
