<?xml version="1.0" encoding="utf-8"?>
<!-- Generator: Adobe Illustrator 19.1.0, SVG Export Plug-In . SVG Version: 6.00 Build 0)  -->
<svg version="1.1" id="Ebene_1" xmlns="http://www.w3.org/2000/svg" xmlns:xlink="http://www.w3.org/1999/xlink" x="0px" y="0px"
	 viewBox="-50.1 228 559 566.1" enable-background="new -50.1 228 559 566.1" xml:space="preserve">
<path d="M308.6,232.7c-26.1,18.1-51.2,26.5-79.1,26.5s-53-8.4-79.1-26.5l-6.8-4.7l-6.9,4.6c-29.5,19.5-53.4,23.1-89.9,23.1
	c-12.6,0-26.1-2.4-39.1-6.9l-8.7-3l-5.3,7.5c-2.8,4-4.9,6.5-6.9,9c-2.5,3-4.8,5.9-7.6,10.3l-4.4,7.1l5,6.7
	c22.3,29.7,30.7,60.2,30.7,88.9c0,53.6-29.3,100.9-52.3,124.8l-8.3,8.6l8.5,8.5c4.5,4.5,12.6,12.9,19.3,20c0,0.3-0.3,3.7-0.3,3.7
	l-0.1,0.7c-0.3,5.2-0.4,10.3-0.4,15.4c0,54.4,16.1,99.6,47.9,134.6c36.8,40.5,94.4,64.7,162.5,68.4c16.9,15.4,34.1,28.2,34.9,28.7
	l7.3,5.4l7.3-5.4c0.8-0.6,17.8-13.3,34.7-28.7c68.1-3.8,125.7-27.9,162.5-68.4c31.8-35,47.9-80.2,47.9-134.6c0-5-0.1-10.2-0.4-15.4
	v-0.1l-0.1-0.7c0,0-0.2-3.3-0.3-3.6c6.2-6.5,14.6-15.2,19.3-20l8.5-8.5l-8.3-8.6c-23.1-23.9-52.3-71.3-52.3-124.8
	c0-28.7,8.4-59.2,30.7-88.9l5-6.7l-4.4-7.1c-2.8-4.4-5.1-7.3-7.6-10.3c-2-2.4-4.1-5-6.9-9l-5.3-7.5l-8.7,3
	c-13,4.5-26.6,6.9-39.1,6.9c-36.5,0-60.5-3.6-89.9-23.1l-6.9-4.6L308.6,232.7z"/>
<path fill="#E2B900" d="M229.6,778.8c0,0-19.5-14.4-37-30.9C77.6,743.1-17.6,678.6-10.3,542c0.4-3.6,0.1-3.4,0.7-9.5
	c-6.6-7-17.5-18.4-23.3-24.1C8.3,465.7,56.5,367.8-10.3,279c4.4-7.1,7.6-9.4,14.1-18.7c13.4,4.6,28.2,7.5,43.1,7.5
	c38.3,0,64.5-3.8,96.6-25.1c25.4,17.7,53,28.7,86,28.7s60.6-11,86-28.7c32.2,21.3,58.3,25.1,96.6,25.1c14.9,0,29.8-2.9,43.1-7.5
	c6.5,9.3,9.7,11.6,14.1,18.7c-66.8,88.8-18.7,186.7,22.6,229.5c-5.8,5.8-16.7,17.1-23.3,24.1c0.6,6.1,0.3,5.9,0.7,9.5
	c7.3,136.6-87.9,201.1-202.9,205.9C249,764.4,229.6,778.8,229.6,778.8L229.6,778.8z"/>
<path d="M11.5,534H9.9l-0.7,5.9l-0.5,3.8c-2.7,52.6,10.4,95.1,39,126.4c32.7,35.9,85.8,56.4,153.4,59.2c0.1,0,1.1,0,1.1,0
	c20.3,0.1,39.5,0.2,55.8,0c67.7-2.8,120.7-23.3,153.5-59.2c28.5-31.3,41.7-73.8,39-126.3c0-0.1-0.5-3.9-0.5-3.9l-0.7-5.8l-1.6-0.1
	H11.5L11.5,534z"/>
<path fill="#004B95" d="M13.1,537.6c-0.2,1.3-0.3,2.8-0.3,2.8l-0.5,3.5c-0.2,4.4-0.3,8.7-0.3,12.9c0,45.6,12.9,82.8,38.4,110.8
	c6.1,6.7,12.9,12.8,20.4,18.4V537.6C36.3,537.6,13.8,537.6,13.1,537.6z"/>
<path fill="#004B95" d="M446.8,544l-0.5-3.6c0,0-0.2-1.5-0.3-2.8c-0.7,0-23.2,0-57.7,0V686c7.5-5.6,14.3-11.7,20.4-18.4
	c25.5-28,38.4-65.2,38.4-110.7C447.1,552.7,447,548.4,446.8,544z"/>
<path fill="#A4234B" d="M134.3,537.6c-23.5,0-45.2,0-63.5,0V686c17.6,13.1,38.9,23,63.5,29.8V537.6z"/>
<path fill="#A4234B" d="M324.8,537.6v178.1c24.6-6.7,45.9-16.7,63.5-29.8V537.6C370,537.6,348.3,537.6,324.8,537.6z"/>
<path fill="#004B95" d="M168.7,629c0-22,11.7-41.2,29.1-51.9v-39.5c-21.9,0-43.4,0-63.5,0v178.1c19.3,5.3,40.5,8.5,63.5,9.7v-44.5
	C180.3,670.2,168.7,651,168.7,629z"/>
<path fill="#004B95" d="M261.3,537.6v39.5c17.5,10.7,29.1,30,29.1,51.9s-11.7,41.2-29.1,51.9v44.5c23-1.2,44.3-4.4,63.5-9.7V537.6
	C304.7,537.6,283.2,537.6,261.3,537.6z"/>
<path fill="#A4234B" d="M261.3,577.1v-39.5c-21,0-42.5,0-63.5,0v39.5c9.2-5.7,20.1-8.9,31.8-8.9C241.2,568.1,252,571.4,261.3,577.1z
	"/>
<path fill="#A4234B" d="M197.8,680.9v44.5c1.1,0.1,2.2,0.1,3.4,0.2h1.1c20.3,0.1,39.4,0.2,55.6,0c1.2,0,2.3-0.1,3.4-0.2v-44.5
	c-9.2,5.7-20.1,8.9-31.8,8.9C217.9,689.9,207,686.6,197.8,680.9z"/>
<path fill="#E2B900" d="M198.5,640.1c-11-10-11-30.4-8.1-44c0.8-3.8,1.9-7.5,2.9-11.7c-12.9,10.5-21.2,26.6-21.2,44.6
	c0,7.6,1.5,14.9,4.2,21.5c1,0.1,2,0.2,3,0.2C187.8,650.7,194.7,646.8,198.5,640.1L198.5,640.1z"/>
<path fill="#E2B900" d="M257.6,644.4c-1.9,9.6-12.2,16.8-21.9,22.6c-10,6-26.1,9-38.3,9.6c9.2,6.2,20.2,9.8,32.1,9.8
	c21.7,0,40.5-12,50.3-29.7C278.1,642.6,264.7,640.9,257.6,644.4L257.6,644.4z"/>
<path fill="#E2B900" d="M193,673.4c12,0.1,30.4-2.9,41-9.2c13.6-8.1,24.3-16.8,19.2-28.9c-2.5-6.1-11-13.1-22-5.4
	c-0.7,9-11.8,16.9-19.8,15.9c-4-0.5-7.4-1.8-10.2-3.6c-4.5,7.7-12.5,12-22,12c-0.5,0-0.9,0-1.4,0C181.5,661.6,186.7,668.1,193,673.4
	L193,673.4z"/>
<path fill="#E2B900" d="M229.4,593.2c9.5-3.9,22.7,1.2,32.7,6.8c9.5,5.3,19.4,15.2,24.8,25.5c-1.8-30-26.5-53.7-56.9-54
	C221,577.5,222.2,588.7,229.4,593.2L229.4,593.2z"/>
<path fill="#E2B900" d="M227.8,629.9c-11.8-8.6-11-22.1-6-30.1c1.2-2,2.7-3.5,4.3-4.7c-6.8-5.5-8.2-16.1-1.6-23.3
	c-9.9,0.9-19.1,4.2-26.9,9.5c-2.5,10.8-5.7,20.6-5.5,31.9c0.2,15.2,6.5,27.6,19.8,29.3C218.1,643.2,227.1,636.6,227.8,629.9
	L227.8,629.9z"/>
<path fill="#E2B900" d="M286.8,634.3c-3.3-11.9-15.1-25-26.3-31.3c-13.9-7.8-29.1-12-35.7-1.4c-4.3,6.8-4.9,18,4.8,25.3
	c13.2-9.1,23.8-0.3,26.8,7c1,2.3,1.5,4.6,1.6,6.7c7.8-2.7,20.5-1,24.4,11.2C284.7,646.4,286.2,640.5,286.8,634.3L286.8,634.3z"/>
<path d="M177.2,467.7H137v56.5h12.2c0,0,0-22.2,0-23.3c1.1,0,16.7,0,16.7,0V489c0,0-15.6,0-16.7,0c0-1,0-8.3,0-9.2
	c1.1,0,28.5,0,28.5,0v-12L177.2,467.7L177.2,467.7z"/>
<path d="M200.5,496c0,17.7,9.7,29.1,24.8,29.1c9.8,0,16.9-4.3,21-12.8l0.2-0.5l-10.3-6.1l-0.3,0.5c-2.9,4.9-5.7,6.7-10.3,6.7
	c-7.5,0-12.5-6.8-12.5-16.9c0-10.5,4.8-16.9,12.4-16.9c4.5,0,7.6,1.9,9.6,5.7l0.3,0.5l11.3-5.2l-0.3-0.5c-4-8.2-11.2-12.6-20.8-12.6
	C210.9,466.9,200.5,478.8,200.5,496z"/>
<path d="M314.8,493.6c3.4-2.4,5.4-6.2,5.4-10.7c0-9.5-6.8-15.2-18.1-15.2h-25.4h-0.6v56.5h25.7c12.7,0,20.3-6.9,20.3-18.4
	C322.1,500.3,319.4,496,314.8,493.6z M288.1,479.1c1.1,0,13.5,0,13.5,0c5.5,0,6.2,2.5,6.2,4.7c0,3.1-1.8,4.6-5.6,4.6
	c0,0-12.9,0-14,0C288.1,487.4,288.1,480.1,288.1,479.1z M302.2,512.5c0,0-13,0-14.1,0c0-1,0-12.1,0-13.1c1.1,0,14.1,0,14.1,0
	c5,0,7.3,2.1,7.3,6.5C309.5,510.2,307,512.5,302.2,512.5z"/>
<path d="M314.9,265.8c-27.4,16.6-55.3,24.6-85.4,24.6s-58-8.1-85.4-24.6l-0.9-0.6l-0.9,0.5c-31.2,17.6-58.6,21.1-95.4,21.1
	c-8.9,0-18-0.9-27.1-2.6l-3.9-0.8l2,3.5c37.8,64.8,24.4,127.4,6.5,168.5l-1.1,2.6H436l-1.1-2.6c-17.9-41.1-31.4-103.7,6.5-168.5
	l2-3.5l-3.9,0.8c-9.2,1.8-18.3,2.6-27.1,2.6c-36.8,0-64.3-3.4-95.4-21.1l-0.9-0.5L314.9,265.8z"/>
<path fill="#FFFFFF" d="M103,285.3c-17.3,4.1-35.2,5.2-56.1,5.2c-7.9,0-16-0.8-24.2-2.2c9.7,17.3,15.8,34.4,19.3,51
	c22.4,0,60,0,60.9,0C103,338.5,103,309.3,103,285.3z"/>
<path fill="#FFFFFF" d="M227.7,339.3v-45.2c-21.9-0.2-42.6-4.7-62.8-13.4c0,24.7,0,57.8,0,58.7C165.5,339.3,195.5,339.3,227.7,339.3
	z"/>
<path fill="#FFFFFF" d="M43.8,401.3c-2.9,19.8-8.6,37.8-15.1,53.1c1.5,0,31.4,0,74.3,0c0-22.7,0-52.2,0-53.1
	C102,401.3,66.3,401.3,43.8,401.3z"/>
<path fill="#FFFFFF" d="M164.9,454.3c20.3,0,41.5,0,62.8,0v-53.1c-32.2,0-62.2,0-62.8,0C164.9,402.1,164.9,431.6,164.9,454.3z"/>
<path fill="#DB2F36" d="M164.9,339.3c0-0.8,0-33.9,0-58.7c-7.3-3.2-14.5-6.9-21.7-11.2c-13.8,7.7-26.8,12.7-40.2,15.8
	c0,24,0,53.2,0,54c-0.9,0-38.5,0-60.9,0c2.6,12.1,3.7,24,3.7,35.4c0,9.2-0.7,18-2,26.5c22.6,0,58.3,0,59.2,0c0,0.8,0,30.4,0,53.1
	c18.6,0,39.7,0,61.9,0c0-22.7,0-52.2,0-53.1c0.6,0,30.6,0,62.8,0v-61.9C195.5,339.3,165.5,339.3,164.9,339.3z"/>
<path fill="#FFDF00" d="M315.9,269.5C315.9,269.5,315.8,269.5,315.9,269.5l-0.1,184.9c7.5,0,14.8,0,21.8,0V279.6
	C330.5,276.9,323.3,273.6,315.9,269.5z"/>
<path fill="#FFDF00" d="M272.3,288.4v166c7.4,0,14.6,0,21.8,0V280.7C286.9,283.8,279.6,286.4,272.3,288.4z"/>
<path fill="#FFDF00" d="M231.4,294.1v160.2c6.4,0,12.8,0,19.1,0V292.7C244.2,293.6,237.8,294,231.4,294.1z"/>
<path fill="#FFDF00" d="M359.4,286v168.3c7.7,0,15,0,21.8,0v-165C373.7,288.6,366.5,287.5,359.4,286z"/>
<path fill="#FFDF00" d="M413.4,374.7c0-27,6.3-56.4,23-86.4c-8.1,1.4-16.3,2.2-24.2,2.2c-3.2,0-6.2,0-9.3-0.1v163.9
	c16.5,0,26.6,0,27.4,0C421.2,432.5,413.4,405.1,413.4,374.7z"/>
<path fill="#DB2F36" d="M381.2,289.3v165c8.1,0,15.4,0,21.8,0V290.4C395.3,290.3,388.1,289.9,381.2,289.3z"/>
<path fill="#DB2F36" d="M250.5,292.7v161.6c7.3,0,14.6,0,21.8,0v-166C265.1,290.3,257.8,291.8,250.5,292.7z"/>
<path fill="#DB2F36" d="M294,280.7v173.6c7.4,0,14.7,0,21.8,0V269.5C308.6,273.8,301.4,277.5,294,280.7z"/>
<path fill="#DB2F36" d="M337.6,279.6v174.7c7.6,0,14.9,0,21.8,0V286C352,284.4,344.8,282.4,337.6,279.6z"/>
</svg>
