<?xml version="1.0" encoding="utf-8"?>
<!-- Generator: Adobe Illustrator 19.1.0, SVG Export Plug-In . SVG Version: 6.00 Build 0)  -->
<svg version="1.1" id="Layer_1" xmlns="http://www.w3.org/2000/svg" xmlns:xlink="http://www.w3.org/1999/xlink" x="0px" y="0px"
	 viewBox="-417.1 607.1 187 187" enable-background="new -417.1 607.1 187 187" xml:space="preserve">
<g>
	<path fill="#FFFFFF" d="M-323.6,792.5c50.8,0,92-41.2,92-92c0-50.8-41.2-92-92-92s-92,41.2-92,92
		C-415.6,751.3-374.4,792.5-323.6,792.5L-323.6,792.5z"/>
	<path fill="#346BA5" d="M-323.6,791c25,0,47.6-10.1,64-26.5c16.4-16.4,26.5-39,26.5-64s-10.1-47.6-26.5-64
		c-16.4-16.4-39-26.5-64-26.5s-47.6,10.1-64,26.5c-16.4,16.4-26.5,39-26.5,64s10.1,47.6,26.5,64C-371.2,780.9-348.6,791-323.6,791
		L-323.6,791z M-323.6,794.1c-25.8,0-49.2-10.5-66.1-27.4c-16.9-16.9-27.4-40.3-27.4-66.1c0-25.8,10.5-49.2,27.4-66.1
		c16.9-16.9,40.3-27.4,66.1-27.4s49.2,10.5,66.1,27.4c16.9,16.9,27.4,40.3,27.4,66.1c0,25.8-10.5,49.2-27.4,66.1
		C-274.4,783.6-297.8,794.1-323.6,794.1L-323.6,794.1z"/>
	<path fill="#CC2229" d="M-323.6,754.4c14.9,0,28.4-6,38.1-15.8c9.8-9.8,15.8-23.2,15.8-38.1c0-14.9-6-28.4-15.8-38.1
		c-9.8-9.8-23.2-15.8-38.1-15.8c-14.9,0-28.4,6-38.1,15.8c-9.8,9.8-15.8,23.2-15.8,38.1c0,14.9,6,28.4,15.8,38.1
		C-352,748.4-338.5,754.4-323.6,754.4L-323.6,754.4z M-323.6,786.5c-23.7,0-45.2-9.6-60.8-25.2c-15.6-15.6-25.2-37-25.2-60.8
		c0-23.7,9.6-45.2,25.2-60.8c15.6-15.6,37-25.2,60.8-25.2s45.2,9.6,60.8,25.2c15.6,15.6,25.2,37,25.2,60.8
		c0,23.7-9.6,45.2-25.2,60.8C-278.4,776.8-299.9,786.5-323.6,786.5L-323.6,786.5z"/>
	<polygon fill="#FFFFFF" points="-399.3,674.3 -393.9,661.8 -390,663.6 -393.2,670.9 -390.1,672.3 -387.3,666 -383.7,667.6 
		-386.4,673.9 -379,677.2 -381.3,682.2 	"/>
	<path fill="#FFFFFF" d="M-373.2,653.6l4.3-2.6c0.9,1.2,1.6,2.4,1.9,3.6c0.3,1.2,0.3,2.3,0.1,3.4c-0.3,1.1-0.9,2.3-1.9,3.5
		c-1.2,1.5-2.5,2.5-3.8,3s-2.8,0.6-4.6,0.3c-1.8-0.3-3.6-1.3-5.5-2.9c-2.5-2.1-3.9-4.3-4.3-6.6c-0.3-2.3,0.4-4.6,2.3-6.8
		c1.4-1.7,3-2.7,4.5-3.1c1.6-0.3,3.4-0.1,5.4,0.8l-2.2,4.5c-0.6-0.3-1-0.4-1.4-0.4c-0.6-0.1-1.1,0-1.6,0.2c-0.5,0.2-0.9,0.5-1.2,0.9
		c-0.8,1-1,2-0.6,3.3c0.3,0.9,1.1,1.9,2.5,3.1c1.7,1.4,3,2.1,4,2.2c1,0.1,1.9-0.3,2.6-1.1c0.7-0.8,0.9-1.6,0.8-2.5
		C-372,655.5-372.4,654.6-373.2,653.6L-373.2,653.6z"/>
	<path fill="#FFFFFF" d="M-357.1,632.4l2.2-1c0.8-0.3,1.3-0.4,1.8-0.3c0.4,0.2,0.8,0.5,1,1c0.3,0.6,0.3,1.1,0.1,1.5
		c-0.2,0.4-0.6,0.8-1.4,1.2l-2.2,1L-357.1,632.4L-357.1,632.4z M-355.6,649l8.6-3.9c0.4-0.2,1.1-0.6,2.1-1.3c0.8-0.5,1.3-1,1.6-1.5
		c0.5-0.7,0.7-1.6,0.8-2.5s-0.1-1.9-0.6-2.8c-0.5-1.1-1.2-2-2.1-2.5s-2-0.6-3.3-0.4c0.6-0.6,1-1.3,1.2-2c0.2-1,0.1-2.1-0.4-3.1
		c-0.6-1.3-1.5-2.1-2.7-2.6c-1.2-0.5-2.6-0.4-4.2,0.3l-9.4,4.3L-355.6,649L-355.6,649z M-354,639.2l2.5-1.2c0.9-0.4,1.6-0.5,2.1-0.4
		c0.5,0.2,0.9,0.5,1.1,1c0.3,0.6,0.3,1.1,0.1,1.6c-0.2,0.5-0.7,0.9-1.6,1.3l-2.6,1.2L-354,639.2L-354,639.2z"/>
	<path fill="#FFFFFF" d="M-334.3,633.7l1-7.3l2.9,6.8L-334.3,633.7L-334.3,633.7z M-327.4,640.4l5.7-0.7l-9.1-18.7l-5.9,0.8
		l-4.1,20.4l5.6-0.7l0.4-3.3l6.2-0.8L-327.4,640.4L-327.4,640.4z"/>
	<polygon fill="#FFFFFF" points="-321.5,620.1 -315.5,621 -312.9,628.1 -308.4,622 -302.4,622.9 -310.9,633.2 -312.1,641.4 
		-317.5,640.6 -316.3,632.4 	"/>
	<polygon fill="#FFFFFF" points="-296,625.2 -282.7,631.5 -284.5,635.3 -292.8,631.4 -294.1,634.2 -286.4,637.9 -288.1,641.5 
		-295.9,637.9 -297.5,641.4 -289,645.4 -290.9,649.5 -304.4,643.1 	"/>
	<path fill="#FFFFFF" d="M-274.3,642.8l1.8,1.6c0.7,0.7,1.1,1.3,1.2,1.8c0,0.5-0.2,1-0.6,1.5c-0.3,0.3-0.6,0.5-1,0.6
		c-0.4,0.1-0.8,0-1.1-0.1c-0.7-0.4-1.1-0.6-1.3-0.8l-1.7-1.6L-274.3,642.8L-274.3,642.8z M-284.9,654.5l5.4-5.9l0.4,0.3
		c0.4,0.3,0.6,0.8,0.7,1.2s0,1-0.3,1.8l-1.9,6.4l4.6,4.2l1.9-6c0.1-0.3,0.2-0.8,0.2-1.4c0.1-0.6,0.1-1.1,0-1.4
		c-0.1-0.4-0.2-0.9-0.6-1.5c0.7,0.4,1.4,0.6,2,0.7c0.9,0.1,1.7,0,2.6-0.3c0.8-0.3,1.6-0.9,2.4-1.7c0.8-0.9,1.4-1.9,1.5-2.9
		c0.2-1,0-2-0.4-2.8s-1.3-1.8-2.6-3l-6.8-6.1l-13.2,14.7L-284.9,654.5L-284.9,654.5z"/>
	<polygon fill="#FFFFFF" points="-258.4,653.5 -255.9,658 -262.1,669.2 -252.6,663.8 -250,668.3 -267.2,678.1 -269.7,673.6 
		-263.6,662.4 -273,667.8 -275.6,663.3 	"/>
	<polygon fill="#FFFFFF" points="-384.5,705.2 -382.8,712.2 -393.7,717.7 -381.4,717.5 -379.8,724.5 -398.8,729.1 -399.8,724.8 
		-385.3,721.3 -400.6,721.5 -401.6,717.5 -387.9,710.7 -402.4,714.2 -403.5,709.9 	"/>
	<path fill="#FFFFFF" d="M-372,736.5l3,4.5l-9.7,6.5c-1,0.6-2,1.1-3,1.4s-2.1,0.4-3.1,0.2c-1-0.1-1.9-0.4-2.6-0.9
		c-1-0.6-1.8-1.6-2.7-2.8c-0.5-0.7-0.9-1.5-1.4-2.4s-0.7-1.8-0.8-2.5c-0.1-0.8,0.1-1.6,0.4-2.5c0.3-0.9,0.7-1.6,1.2-2.2
		c0.8-1,1.7-1.7,2.5-2.3l9.7-6.5l3,4.5l-9.9,6.7c-0.9,0.6-1.4,1.3-1.6,2.1c-0.2,0.8,0,1.6,0.5,2.3c0.5,0.8,1.2,1.2,2,1.3
		s1.6-0.1,2.5-0.7L-372,736.5L-372,736.5z"/>
	<polygon fill="#FFFFFF" points="-366.6,743.5 -362.6,746.5 -363.8,759.1 -357.3,750.5 -353.2,753.6 -365,769.2 -369.1,766.1 
		-367.9,753.6 -374.3,762.1 -378.4,759 	"/>
	<path fill="#FFFFFF" d="M-342.8,769.7l4,3c-0.8,1.3-1.7,2.3-2.6,3c-1,0.7-2,1.2-3.1,1.3c-1.1,0.2-2.4,0-3.9-0.5
		c-1.8-0.6-3.2-1.4-4.2-2.4c-0.9-1-1.6-2.3-1.9-4.1s-0.1-3.8,0.7-6.1c1-3.1,2.6-5.2,4.6-6.3c2-1.2,4.4-1.3,7.1-0.4
		c2.1,0.7,3.6,1.7,4.5,3.1c0.9,1.3,1.3,3.1,1.2,5.2l-4.9-0.4c0-0.6,0-1.1-0.1-1.4c-0.1-0.5-0.4-1-0.7-1.4s-0.8-0.6-1.3-0.8
		c-1.2-0.4-2.2-0.2-3.2,0.7c-0.7,0.6-1.4,1.8-1.9,3.4c-0.7,2.1-0.9,3.6-0.6,4.5c0.3,1,1,1.6,2,1.9s1.8,0.3,2.5-0.2
		C-344.1,771.6-343.4,770.8-342.8,769.7L-342.8,769.7z"/>
	<polygon fill="#FFFFFF" points="-332.2,760.7 -326.7,760.7 -326.8,767.5 -320.8,767.5 -320.8,760.7 -315.3,760.7 -315.4,780.2 
		-320.8,780.2 -320.8,772.3 -326.8,772.3 -326.8,780.2 -332.2,780.2 	"/>
	<polygon fill="#FFFFFF" points="-311.9,760 -298.1,755.5 -296.8,759.5 -305.4,762.3 -304.5,765.2 -296.4,762.6 -295.2,766.4 
		-303.3,769 -302.1,772.7 -293.2,769.8 -291.8,774 -305.9,778.6 	"/>
	<polygon fill="#FFFFFF" points="-295.3,754.2 -291.2,751.2 -279.4,756.1 -285.8,747.4 -281.6,744.4 -270.2,760.2 -274.3,763.2 
		-286,758.4 -279.7,767.1 -283.8,770.1 	"/>
	<polygon fill="#FFFFFF" points="-273.6,734.7 -266.9,721.8 -263.2,723.7 -267.4,731.8 -264.7,733.2 -260.7,725.8 -257.2,727.6 
		-261.1,735.1 -257.7,736.9 -253.4,728.6 -249.4,730.6 -256.3,743.8 	"/>
	<polygon fill="#FFFFFF" points="-266.1,720.6 -265.1,715 -250.6,713.6 -263.7,707.2 -262.7,701.8 -244.7,711.7 -245.7,717.5 	"/>
	<polygon fill="#FFFFFF" points="-374.9,732.3 -372.5,735.8 -378.1,737 	"/>
	<path fill="#346BA5" d="M-323.6,752.2c28.6,0,51.7-23.2,51.7-51.7c0-28.6-23.2-51.7-51.7-51.7c-28.6,0-51.7,23.2-51.7,51.7
		C-375.3,729.1-352.2,752.2-323.6,752.2L-323.6,752.2z"/>
	<polygon fill="#FFFFFF" points="-321.3,654.8 -321.3,676 -310.8,693.7 -310.8,673 	"/>
	<polygon fill="#FFFFFF" points="-334.3,659.4 -334.3,680.6 -323.7,698.3 -323.7,677.5 	"/>
	<polygon fill="#FFFFFF" points="-347.3,664 -347.3,685.2 -336.7,702.9 -336.7,682.1 	"/>
	<polygon fill="#FFFFFF" points="-360.2,668.5 -360.2,689.8 -349.7,707.5 -349.7,686.7 	"/>
	<polygon fill="#FFFFFF" points="-373.2,686.9 -373.2,694.3 -362.6,712 -362.6,691.3 -369.6,678.4 	"/>
	<polygon fill="#FFFFFF" points="-308.4,650.2 -308.4,671.5 -297.8,689.2 -297.8,668.4 	"/>
	<polygon fill="#FFFFFF" points="-295.4,658 -284.9,668.1 -284.9,685 -295.4,666.9 	"/>
	<polygon fill="#FFFFFF" points="-325.4,745 -325.4,724.2 -336,706.1 -336,727.3 	"/>
	<polygon fill="#FFFFFF" points="-312.5,740.4 -312.5,719.6 -323,701.5 -323,722.7 	"/>
	<polygon fill="#FFFFFF" points="-299.5,735.8 -299.5,715.1 -310,696.9 -310,718.1 	"/>
	<polygon fill="#FFFFFF" points="-286.5,731.3 -286.5,710.5 -297.1,692.3 -297.1,713.6 	"/>
	<polygon fill="#FFFFFF" points="-273.6,712.9 -273.6,703.9 -284.1,687.8 -284.1,709 -277.2,719.9 	"/>
	<polygon fill="#FFFFFF" points="-338.4,749.1 -338.4,728.8 -348.9,710.6 -348.9,732.3 	"/>
	<polygon fill="#FFFFFF" points="-351.4,742.9 -361.9,733.7 -361.9,715.2 -351.4,733.8 	"/>
	<path fill="#FFFFFF" d="M-323.6,749.9c13.6,0,26-5.5,35-14.5s14.5-21.3,14.5-35c0-13.6-5.5-26-14.5-34.9
		c-9-8.9-21.3-14.5-34.9-14.5c-13.6,0-26,5.5-34.9,14.5c-8.9,8.9-14.5,21.3-14.5,34.9s5.5,26,14.5,35
		C-349.6,744.4-337.3,749.9-323.6,749.9L-323.6,749.9z M-323.6,754.5c-14.9,0-28.4-6-38.2-15.8c-9.8-9.8-15.8-23.3-15.8-38.2
		s6-28.4,15.8-38.2c9.8-9.8,23.3-15.8,38.2-15.8c14.9,0,28.4,6,38.2,15.8c9.8,9.8,15.8,23.3,15.8,38.2s-6,28.4-15.8,38.2
		C-295.2,748.5-308.7,754.5-323.6,754.5L-323.6,754.5z"/>
</g>
</svg>
