<?xml version="1.0" encoding="utf-8"?>
<!-- Generator: Adobe Illustrator 19.1.0, SVG Export Plug-In . SVG Version: 6.00 Build 0)  -->
<svg version="1.1" id="Layer_1" xmlns="http://www.w3.org/2000/svg" xmlns:xlink="http://www.w3.org/1999/xlink" x="0px" y="0px"
	 viewBox="-392.1 581.3 217.3 213.5" enable-background="new -392.1 581.3 217.3 213.5" xml:space="preserve">
<path d="M-281.9,648c40.4,0,73.4,33,73.4,73.4c0,40.4-33,73.4-73.4,73.4s-73.4-33-73.4-73.4C-355.3,681-322.3,648-281.9,648
	L-281.9,648z"/>
<path fill="#ADB9C0" d="M-354.2,721.3c0-39.9,32.5-72.3,72.3-72.3c39.9,0,72.3,32.5,72.3,72.3c0,39.9-32.5,72.3-72.3,72.3
	S-354.2,761.2-354.2,721.3z"/>
<path d="M-344.3,721.3c0,34.4,28,62.4,62.4,62.4s62.4-28,62.4-62.4c0-34.4-28-62.4-62.4-62.4S-344.3,686.9-344.3,721.3z"/>
<path fill="#FFFFFF" d="M-343.3,721.3c0-33.9,27.6-61.4,61.4-61.4c33.9,0,61.4,27.6,61.4,61.4c0,33.9-27.6,61.4-61.4,61.4
	C-315.8,782.7-343.3,755.2-343.3,721.3z"/>
<path d="M-339.9,721.3c0,32,26,58,58,58s58-26,58-58s-26-58-58-58S-339.9,689.4-339.9,721.3z"/>
<path fill="#FFFFFF" d="M-338.8,721.3c0-31.4,25.5-56.9,56.9-56.9S-225,690-225,721.3c0,31.4-25.5,56.9-56.9,56.9
	S-338.8,752.7-338.8,721.3z"/>
<path d="M-224.9,721.8c0-0.2,0-0.3,0-0.5s0-0.4,0-0.6h-52.2l51.1-10.2c-0.1-0.3-0.1-0.7-0.2-1l-50.7,10.2l47.8-19.8
	c-0.1-0.3-0.3-0.6-0.4-1l-47.8,19.8l43-28.7c-0.2-0.3-0.4-0.6-0.6-0.9l-43,28.7l36.5-36.5c-0.2-0.2-0.5-0.5-0.7-0.7l-36.5,36.5
	l28.7-42.9c-0.3-0.2-0.6-0.4-0.9-0.6l-28.7,42.9l18.7-45.1l-0.9-0.4l-18.7,45.1l8.5-42.8l-1-0.2l-8.3,42v-44.2h-1.4v44.2l-8.6-43.4
	l-1,0.2l8.8,44.2l-19.1-46.2l-0.9,0.4l19.1,46.2l-28.7-42.9c-0.3,0.2-0.6,0.4-0.9,0.6l28.7,42.9l-36.5-36.5
	c-0.2,0.2-0.5,0.5-0.7,0.7l36.5,36.5l-42.9-28.7c-0.2,0.3-0.4,0.6-0.6,0.9l42.9,28.7l-47.7-19.8c-0.1,0.3-0.3,0.6-0.4,0.9l47.7,19.8
	l-50.7-10.1c-0.1,0.3-0.1,0.7-0.2,1l51.1,10.2h-52.1c0,0.2,0,0.4,0,0.6s0,0.3,0,0.5h51.3l-50.3,10c0.1,0.3,0.1,0.7,0.2,1l50.8-10.1
	l-47.8,19.8c0.1,0.3,0.3,0.6,0.4,1l47.8-19.8l-43,28.8c0.2,0.3,0.4,0.6,0.6,0.9l43.1-28.8l-36.6,36.6c0.2,0.2,0.5,0.5,0.7,0.7
	l36.6-36.6l-28.8,43.1c0.3,0.2,0.6,0.4,0.9,0.6l28.8-43.1l-19.8,47.9c0.3,0.1,0.6,0.3,0.9,0.4l21.4-51.6l21.4,51.6
	c0.3-0.1,0.6-0.3,0.9-0.4l-19.8-47.9l28.8,43.1c0.3-0.2,0.6-0.4,0.9-0.6l-28.8-43.1l36.6,36.6c0.2-0.2,0.5-0.5,0.7-0.7l-36.6-36.6
	l43.1,28.8c0.2-0.3,0.4-0.6,0.6-0.9l-43.5-28.8l47.9,19.8c0.1-0.3,0.3-0.6,0.4-1l-47.9-19.8l50.8,10.1c0.1-0.3,0.1-0.7,0.2-1
	l-50.4-10H-224.9L-224.9,721.8z"/>
<path fill="#4A914E" d="M-309.9,658.1c-3.8-0.9-7.1-1.4-9.3-1.1c-6.5,0.8-14.3,4.1-22.4,8c-5.2,2.5-11.6,5.8-24.5,13.4l12,0.9
	l-1.3,10c7.1-4.6,16.6-11.2,25.4-14.9c3.7-1.6,7.3-2.7,10.5-2.9c2.4-0.2,4.5,0.4,6.9,1c10.4,2.6,20.5,5.6,30.7,5.6v-14.7
	C-291.6,663.3-302,660-309.9,658.1z"/>
<path d="M-237.5,684.9c-15.2,5.8-30.5,8.8-44.4,8.8s-29.2-3-44.4-8.7l-0.6-0.2l-0.1,0.6c-7.7,42.3,7.3,78.9,44.7,109l0.3,0.3
	l0.3-0.3c37.4-30,52.5-66.7,44.7-109l-0.1-0.6L-237.5,684.9z"/>
<path fill="#FFFFFF" d="M-281.9,694.7L-281.9,694.7c13.8,0,29-3,44.1-8.6c1.2,6.9,1.9,13.7,1.9,20.3c0,33-15.4,62.2-46,86.8
	c-30.6-24.7-46-53.8-46-86.8c0-6.6,0.6-13.4,1.9-20.3C-310.9,691.7-295.7,694.7-281.9,694.7z"/>
<path fill="#CD3529" d="M-281.9,788v-88l0,0c-14.4,0-27.2-2.3-40.3-6.8C-327,730.7-312,760.7-281.9,788L-281.9,788z"/>
<path fill="#ECB731" d="M-281.9,711c13.8,0,25.1,11.3,25.1,25.1c0,13.8-11.3,25.1-25.1,25.1c-13.8,0-25.1-11.3-25.1-25.1
	S-295.7,711-281.9,711L-281.9,711z"/>
<path d="M-307.5,736.1c0,14.1,11.5,25.6,25.6,25.6s25.6-11.5,25.6-25.6c0-14.1-11.5-25.6-25.6-25.6S-307.5,722-307.5,736.1z
	 M-306.5,736.1c0-13.6,11-24.6,24.6-24.6s24.6,11,24.6,24.6c0,13.6-11,24.6-24.6,24.6S-306.5,749.7-306.5,736.1z"/>
<path d="M-307.5,735.6c1.5,2.9,4.1,5.7,7.6,8.1l0.6-0.8c-3.3-2.4-5.8-5.1-7.3-7.8L-307.5,735.6z"/>
<path d="M-295.4,740.4l0.8-0.7c-5.8-6.8-4.5-18.3,2.9-26.2l-0.8-0.7C-300.2,721.1-301.5,733.2-295.4,740.4z"/>
<path d="M-284,725.3l1-0.3c-1.9-6.2,0-10.1,6.2-13l-0.4-0.9C-283.9,714.2-286,718.6-284,725.3z"/>
<path d="M-270.9,734.8c5.9,6.1,7.2,15.7,2.9,21.5l0.8,0.6c4.6-6.2,3.3-16.2-3-22.8L-270.9,734.8z"/>
<path d="M-265.1,728.5c4.4,3.6,6.9,9.1,6.7,14.8h1c0.2-6-2.5-11.8-7.1-15.6L-265.1,728.5z"/>
<path d="M-278.9,741.4c4.2,7.7,3.5,15.6-1.6,19.2l0.6,0.8c5.5-3.9,6.3-12.3,1.9-20.5L-278.9,741.4z"/>
<path d="M-288.5,753.5l-0.2,1c4.5,0.7,10.7-1.4,13.1-6.5l-0.9-0.4C-278.7,752.3-284.4,754.1-288.5,753.5z"/>
<path d="M-241.8,692.7c-5.5,1.9-10.7,3.3-16,4.4h-0.2l-54.4,54.2l0.2,0.3c2.8,5.2,6.2,10.5,10.1,15.5l0.4,0.5l61.4-61.2v-0.2
	c0-4.3-0.3-8.7-0.9-13.1l-0.1-0.6L-241.8,692.7z"/>
<path fill="#0094D6" d="M-242.1,693.9c0.5,4.1,0.8,8.2,0.8,12.1c-0.3,0.3-59.4,59.3-60.3,60.1c-3.6-4.8-6.8-9.7-9.5-14.6
	c0.5-0.5,53.4-53.3,53.6-53.5C-252.4,697-247.3,695.6-242.1,693.9z"/>
<path fill="#ECB731" d="M-299.5,756.5l1.4-1.4l0,0c0.6,0.5,1.2,0.8,1.8,0.8c0.6,0,1.2-0.2,1.7-0.7c0.6-0.5,0.8-1.1,0.8-1.8
	c0-0.7-0.2-1.2-0.8-1.8c-0.5-0.5-1-0.7-1.4-0.7c-0.5,0-1.2,0.3-2.2,0.8c0,0-0.1,0.1-0.3,0.2c-1.2,0.7-2.2,1-3.1,0.9
	c-0.4,0-0.8-0.2-1.2-0.3c-0.4-0.2-0.7-0.4-1-0.7c-0.9-0.9-1.3-1.9-1.3-3c0-1.1,0.5-2.1,1.4-3c0.8-0.8,1.8-1.3,2.8-1.3s2,0.4,2.9,1.2
	l0,0l-1.5,1.5l0,0c-0.4-0.4-0.9-0.6-1.4-0.6s-1,0.2-1.4,0.6c-0.4,0.4-0.7,0.9-0.6,1.5c0,0.6,0.2,1.1,0.7,1.5
	c0.2,0.2,0.3,0.3,0.5,0.4c0.2,0.1,0.4,0.1,0.6,0.1c0.5,0,1.1-0.2,2-0.8c0.4-0.2,0.7-0.4,1-0.6c1-0.5,1.9-0.7,2.8-0.5
	c0.9,0.1,1.6,0.5,2.3,1.2c1,1,1.5,2.1,1.5,3.3s-0.5,2.3-1.5,3.3c-0.9,0.9-2,1.4-3.2,1.4C-297.5,758-298.5,757.5-299.5,756.5
	L-299.5,756.5z M-282.5,745.6l-1.5,1.5l-1.7-1.7l1.5-1.5L-282.5,745.6L-282.5,745.6z M-270.9,733.9l-5.2,5.2l-10.3-10.3l1.6-1.6
	l8.9,8.9l3.6-3.6L-270.9,733.9L-270.9,733.9z M-263.6,726.6l-1.5,1.5l-1.7-1.7l1.5-1.5L-263.6,726.6L-263.6,726.6z M-261.6,712.6
	l0.5-0.5l0,0c0.8-0.8,1.3-1.5,1.4-2.1c0.1-0.6-0.1-1.1-0.6-1.7c-0.5-0.5-1-0.7-1.5-0.6c-0.5,0.1-1.1,0.5-1.8,1.1l0,0l-0.9,0.9
	L-261.6,712.6L-261.6,712.6z M-257,717.2l1.3-1.3l0,0c0.7-0.7,1.2-1.4,1.2-2c0.1-0.6-0.1-1.2-0.7-1.7c-0.6-0.6-1.2-0.8-1.9-0.8
	c-0.7,0.1-1.4,0.4-2.1,1.2l0,0l-1.3,1.3L-257,717.2L-257,717.2z M-265.2,707.5c1.2-1.2,2.3-1.8,3.4-2c1.1-0.1,2.1,0.3,3,1.2
	c0.4,0.4,0.7,0.9,0.8,1.4s0.1,1.1-0.1,1.7c0.7-0.4,1.4-0.5,2.1-0.4c0.7,0.1,1.4,0.5,2,1.1c0.5,0.5,0.8,1,1.1,1.6
	c0.2,0.6,0.3,1.2,0.3,1.9c-0.1,0.6-0.3,1.2-0.6,1.7s-0.8,1.2-1.6,2l0,0l-2.5,2.5l-10.3-10.3L-265.2,707.5L-265.2,707.5z
	 M-243.2,706.2l-1.5,1.5l-1.7-1.7l1.5-1.5L-243.2,706.2L-243.2,706.2z"/>
<path d="M-241.8,692.7c-13.5,4.6-26.3,6.7-40.1,6.7c-13.8,0-26.6-2.1-40.1-6.7l-0.6-0.2l-0.1,0.6c-4.6,35.7,8.2,66,40.4,95.2
	l0.3,0.3l0.3-0.3c32.2-29.2,45.1-59.5,40.4-95.2l-0.1-0.6L-241.8,692.7z M-322.6,706.9c0-4.3,0.3-8.6,0.8-13.1
	c13.4,4.5,26.1,6.6,39.8,6.6s26.4-2.1,39.8-6.6c0.6,4.4,0.9,8.8,0.9,13.1c0,29.4-13.2,55.2-40.7,80.3
	C-309.4,762.2-322.6,736.4-322.6,706.9z"/>
<path fill="#CD3529" d="M-197.7,678.3c-12.9-7.6-19.3-10.9-24.5-13.4c-8.1-3.9-15.9-7.1-22.4-8c-2.2-0.3-5.4,0.2-9.3,1.1
	c-7.9,1.9-18.3,5.2-28,5.2v14.7c10.3,0,20.3-3,30.7-5.6c2.4-0.6,4.4-1.2,6.9-1c3.2,0.3,6.8,1.3,10.5,2.9
	c8.8,3.8,18.3,10.3,25.4,14.9l-1.3-10L-197.7,678.3z"/>
<path d="M-254,657.6l-4.4,1.1c-7.3,1.9-15.5,4-23.4,4c-7.9,0-16.2-2.1-23.4-4l-4.4-1.1c-4.1-1-7.3-1.4-9.5-1.1
	c-5.7,0.7-12.6,3.2-22.6,8c-4.9,2.4-11.2,5.5-24.5,13.4l-1.4,0.8c0,0,12.1,0.9,13.1,1c-0.1,1-1.3,10.6-1.3,10.6l3.4-2.2
	c6.7-4.4,15.1-9.9,22.8-13.2c3.9-1.7,7.4-2.7,10.3-2.9c2.1-0.2,3.9,0.3,6,0.8l4.7,1.2c9.2,2.4,17.9,4.6,26.9,4.6s17.7-2.2,26.9-4.6
	l4.7-1.2c2.1-0.5,3.9-1,6-0.8c2.9,0.2,6.4,1.2,10.3,2.9c7.7,3.3,16.1,8.8,22.8,13.2l3.4,2.2c0,0-1.2-9.6-1.3-10.6
	c1-0.1,13.1-1,13.1-1l-1.4-0.8c-13.3-7.8-19.6-11-24.5-13.4c-10-4.8-16.9-7.3-22.6-8C-246.7,656.2-249.9,656.6-254,657.6z
	 M-258.2,659.7l4.4-1.1c4-1,7.1-1.4,9.1-1.1c5.5,0.7,12.4,3.2,22.3,7.9c4.7,2.3,10.7,5.3,23,12.5c-2.4,0.2-10.9,0.8-10.9,0.8
	s1,7.7,1.2,9.4c-0.7-0.5-1.5-1-1.5-1c-6.7-4.4-15.1-10-23-13.3c-4.1-1.8-7.6-2.7-10.6-3c-2.3-0.2-4.2,0.3-6.3,0.9l-4.7,1.2
	c-9.1,2.3-17.8,4.6-26.6,4.6c-8.9,0-17.5-2.2-26.6-4.6l-4.7-1.2c-2.1-0.5-4-1-6.3-0.9c-3.1,0.2-6.5,1.2-10.6,3
	c-7.8,3.4-16.2,8.9-23,13.3c0,0-0.8,0.5-1.5,1c0.2-1.8,1.2-9.4,1.2-9.4s-8.4-0.6-10.9-0.8c12.3-7.2,18.3-10.2,23-12.5
	c9.9-4.8,16.7-7.2,22.3-7.9c2-0.3,5.1,0.1,9.1,1.1l4.4,1.1c7.3,1.9,15.6,4.1,23.7,4.1C-273.6,663.8-265.5,661.6-258.2,659.7z"/>
<path d="M-231.9,670.9l-1.4-0.5l0.6-2.4l0,0c0-0.2,0.1-0.4,0.2-0.6c0.1-0.2,0.1-0.4,0.2-0.7c-0.1,0.2-0.3,0.5-0.5,0.8
	c0,0.1-0.1,0.1-0.1,0.1l0,0l-1.7,2.2l-1-0.4l0.3-2.8l0,0c0,0,0-0.1,0-0.2c0-0.4,0.1-0.7,0.1-0.9c-0.1,0.2-0.2,0.4-0.3,0.6
	c-0.1,0.2-0.2,0.4-0.3,0.6l0,0l-1.2,2.2l-1.3-0.5l3-5l1.4,0.6l-0.3,3.1l0,0v0.1c0,0.3-0.1,0.5-0.1,0.7c0-0.1,0.1-0.2,0.2-0.3
	c0.1-0.1,0.2-0.2,0.3-0.4l0,0l1.9-2.4l1.4,0.6L-231.9,670.9L-231.9,670.9z M-245.1,661.3l1.5,0.2l-0.4,2.8l0,0
	c-0.1,0.4-0.1,0.7-0.1,0.9c0,0.2,0,0.3,0,0.5s0.1,0.3,0.3,0.4c0.1,0.1,0.3,0.2,0.5,0.2s0.4,0,0.6,0c0.2-0.1,0.3-0.2,0.4-0.3
	c0.1-0.1,0.1-0.3,0.2-0.4c0-0.2,0.1-0.5,0.2-0.9l0,0l0.1-0.4l0.3-2.4l1.5,0.2l-0.4,3l0,0c-0.1,0.6-0.2,1.1-0.3,1.4
	c-0.1,0.3-0.3,0.5-0.5,0.7s-0.5,0.3-0.9,0.4c-0.4,0.1-0.8,0.1-1.3,0c-0.5-0.1-0.9-0.2-1.2-0.3c-0.3-0.2-0.6-0.4-0.7-0.6
	c-0.1-0.2-0.2-0.5-0.3-0.8c0-0.3,0-0.8,0.1-1.4l0,0l0.1-0.6L-245.1,661.3L-245.1,661.3z M-254.1,669.1l-1.5-5.5l1.5-0.4l2.8,2.3l0,0
	c0.1,0,0.2,0.1,0.3,0.3c0.1,0.2,0.3,0.3,0.5,0.5c-0.1-0.2-0.2-0.4-0.2-0.6s-0.1-0.3-0.1-0.5l0,0l-0.7-2.7l1.4-0.4l1.5,5.5l-1.4,0.4
	l-3-2.3l0,0c-0.1,0-0.2-0.1-0.3-0.3c-0.1-0.1-0.3-0.3-0.5-0.5c0.1,0.2,0.2,0.4,0.2,0.6c0.1,0.2,0.1,0.3,0.1,0.5l0,0l0.7,2.7
	L-254.1,669.1L-254.1,669.1z M-263.3,665.5l1.5-0.4l0.7,2.7l0,0c0.1,0.4,0.2,0.7,0.3,0.8c0.1,0.2,0.1,0.3,0.2,0.4
	c0.1,0.1,0.2,0.2,0.4,0.2s0.3,0,0.6,0c0.2-0.1,0.4-0.1,0.5-0.2c0.1-0.1,0.2-0.2,0.2-0.4c0-0.1,0-0.3,0-0.5s-0.1-0.5-0.2-0.9l0,0
	l-0.1-0.4l-0.6-2.3l1.5-0.4l0.8,2.9l0,0c0.2,0.6,0.2,1.1,0.2,1.4s-0.1,0.6-0.2,0.8c-0.1,0.3-0.3,0.5-0.6,0.7
	c-0.3,0.2-0.7,0.4-1.2,0.5c-0.5,0.1-0.9,0.2-1.2,0.2c-0.4,0-0.7-0.1-0.9-0.3c-0.2-0.2-0.4-0.4-0.6-0.6c-0.2-0.3-0.3-0.7-0.5-1.3l0,0
	l-0.2-0.6L-263.3,665.5L-263.3,665.5z M-273.1,671.4c0.3,0.2,0.5,0.4,0.8,0.5c0.2,0.1,0.5,0.1,0.7,0.1c0.2,0,0.4-0.1,0.5-0.3
	c0.1-0.1,0.2-0.3,0.1-0.5c0-0.2-0.1-0.3-0.2-0.4c-0.1-0.1-0.4-0.1-0.8-0.2c-0.6-0.1-1-0.2-1.3-0.4c-0.3-0.2-0.4-0.5-0.5-0.9
	c-0.1-0.5,0-1,0.3-1.4c0.3-0.4,0.7-0.7,1.3-0.8c0.3-0.1,0.6-0.1,0.9,0c0.3,0,0.6,0.1,0.9,0.2l0,0l-0.3,1.2l0,0
	c-0.2-0.1-0.4-0.2-0.6-0.2c-0.2,0-0.4,0-0.6,0s-0.3,0.1-0.4,0.2c-0.1,0.1-0.1,0.2-0.1,0.4c0,0.1,0.1,0.2,0.2,0.3
	c0.1,0.1,0.3,0.1,0.6,0.1c0,0,0,0,0.1,0c0.7,0.1,1.1,0.2,1.3,0.3c0.2,0.1,0.3,0.3,0.4,0.4c0.1,0.2,0.2,0.4,0.2,0.6
	c0.1,0.6,0,1.1-0.3,1.5c-0.3,0.4-0.8,0.7-1.5,0.8c-0.4,0.1-0.8,0.1-1.1,0c-0.3-0.1-0.7-0.2-1-0.5l0,0L-273.1,671.4L-273.1,671.4z
	 M-281.3,668.2l1.6-0.1l0.2,2.8l0,0c0,0.4,0.1,0.7,0.1,0.9c0,0.2,0.1,0.3,0.1,0.4c0.1,0.1,0.2,0.2,0.3,0.3c0.2,0.1,0.3,0.1,0.5,0.1
	c0.2,0,0.4-0.1,0.5-0.2c0.1-0.1,0.2-0.2,0.3-0.4c0-0.1,0.1-0.3,0.1-0.5s0-0.5,0-0.9l0,0v-0.4l-0.2-2.4l1.5-0.1l0.2,3l0,0
	c0,0.6,0,1.1,0,1.4c-0.1,0.3-0.2,0.6-0.3,0.8c-0.2,0.2-0.4,0.4-0.8,0.6c-0.3,0.1-0.7,0.2-1.2,0.3c-0.5,0-0.9,0-1.3-0.1
	c-0.3-0.1-0.6-0.2-0.8-0.5c-0.2-0.2-0.3-0.4-0.4-0.7c-0.1-0.3-0.2-0.8-0.2-1.4l0,0v-0.6L-281.3,668.2L-281.3,668.2z"/>
<path d="M-331.5,670.8l-2.2-5.3l3.2-1.4l0.5,1.2l-1.8,0.8l0.4,0.9l1.7-0.7l0.5,1.1l-1.7,0.7l0.4,0.9l1.8-0.8l0.5,1.2L-331.5,670.8
	L-331.5,670.8z M-319.4,667.2l-1.5,0.1l-0.2-5.7l1.6-0.1l0,0c0.6,0,1.1,0,1.3,0c0.3,0.1,0.5,0.2,0.7,0.3c0.2,0.2,0.4,0.4,0.5,0.6
	c0.1,0.3,0.2,0.5,0.2,0.9c0,0.3,0,0.6-0.1,0.9s-0.3,0.5-0.5,0.7c-0.2,0.1-0.3,0.2-0.6,0.3c-0.2,0.1-0.6,0.1-1,0.1l0,0h-0.3h-0.3
	L-319.4,667.2L-319.4,667.2z M-319.5,664.1h0.3l0,0c0.4,0,0.6-0.1,0.8-0.2c0.1-0.1,0.2-0.3,0.2-0.5s-0.1-0.4-0.2-0.5
	c-0.1-0.1-0.4-0.1-0.8-0.1l0,0h-0.3V664.1L-319.5,664.1z M-314.1,667.9l1.5-5.5l1.5,0.4l-1.1,4.2l1.9,0.5l-0.3,1.3L-314.1,667.9
	L-314.1,667.9z M-306.8,663.8l1.5,0.4l-0.7,2.7l0,0c-0.1,0.4-0.2,0.7-0.2,0.9s0,0.3,0,0.5s0.1,0.3,0.2,0.4c0.1,0.1,0.3,0.2,0.5,0.3
	c0.2,0.1,0.4,0.1,0.6,0c0.2,0,0.3-0.1,0.4-0.2c0.1-0.1,0.2-0.2,0.2-0.4c0.1-0.2,0.2-0.4,0.3-0.8l0,0l0.1-0.4l0.6-2.3l1.5,0.4
	l-0.8,2.9l0,0c-0.2,0.6-0.3,1-0.5,1.3s-0.3,0.5-0.6,0.6c-0.2,0.2-0.6,0.3-0.9,0.3c-0.4,0-0.8,0-1.2-0.2c-0.5-0.1-0.9-0.3-1.2-0.5
	s-0.5-0.4-0.6-0.7c-0.1-0.2-0.2-0.5-0.2-0.8s0.1-0.8,0.2-1.4l0,0l0.2-0.6L-306.8,663.8L-306.8,663.8z M-300.7,671.3l1.3-5.6l1.6,0.4
	l0,0c0.6,0.1,1,0.3,1.3,0.4c0.2,0.1,0.4,0.3,0.6,0.4c0.2,0.2,0.3,0.4,0.3,0.7c0.1,0.3,0,0.5,0,0.8c-0.1,0.4-0.3,0.8-0.6,1
	c-0.3,0.2-0.6,0.3-1.1,0.3l0,0l1,2.6l-1.7-0.4l-0.8-2.5l-0.5,2.2L-300.7,671.3L-300.7,671.3z M-298.6,668.7l0.3,0.1l0,0
	c0.3,0.1,0.6,0.1,0.8,0c0.2-0.1,0.3-0.2,0.3-0.5c0.1-0.3,0-0.5-0.1-0.6c-0.1-0.2-0.3-0.3-0.7-0.3l0,0l-0.3-0.1L-298.6,668.7
	L-298.6,668.7z M-293.9,672.7l1-5.6l1.5,0.3l-1,5.6L-293.9,672.7L-293.9,672.7z"/>
<path fill="#4A914E" d="M-319.2,662.7h-0.4l0.1,1.5h0.4c0.4,0,0.7-0.1,0.8-0.2c0.2-0.1,0.2-0.3,0.2-0.6s-0.1-0.4-0.3-0.5
	C-318.6,662.7-318.8,662.7-319.2,662.7z M-319.2,662.8c0.4,0,0.6,0,0.7,0.1c0.1,0.1,0.2,0.2,0.2,0.5l0,0c0,0.2-0.1,0.4-0.2,0.4
	c-0.1,0.1-0.4,0.2-0.7,0.2h-0.2c0-0.1,0-1.1,0-1.2C-319.4,662.8-319.2,662.8-319.2,662.8z"/>
<path fill="#4A914E" d="M-298.3,667.2l-0.4,1.5l0.3,0.1c0.3,0.1,0.6,0.1,0.8,0c0.2-0.1,0.3-0.3,0.4-0.5c0.1-0.3,0-0.5-0.1-0.7
	c-0.1-0.2-0.4-0.3-0.7-0.4H-298.3L-298.3,667.2z M-298.2,667.3c0.1,0,0.2,0.1,0.2,0.1c0.3,0.1,0.5,0.2,0.6,0.3
	c0.1,0.1,0.1,0.2,0.1,0.3c0,0.1,0,0.2,0,0.3c-0.1,0.2-0.2,0.4-0.3,0.4c-0.2,0.1-0.4,0.1-0.7,0c0,0-0.2,0-0.2-0.1
	C-298.5,668.5-298.2,667.4-298.2,667.3z"/>
<path d="M-293.7,630.3L-293.7,630.3L-293.7,630.3c0.5,0.1,1.5-0.5,2.3-1c0.5-0.3,1-0.5,1.2-0.6v-0.1c-0.2,0.1-0.7,0.3-1.3,0.6
	c-0.8,0.4-1.7,0.9-2.1,1c0-1.7,0.5-2.7,2-4l-0.1-0.1C-293.2,627.5-293.7,628.6-293.7,630.3z"/>
<path fill="#ECB731" d="M-256,630.4c-1.1,0.4-2.4,0.1-3-1.2c-1.2,1-2.7,1.2-4.7,0.4l0,0l-8.1-11.1l1.2-11.2l0,0
	c2.1,1.1,4.4,1.3,5.3,1.2c6.1-0.6,1-5.3,9.9-9.3c3.2-5.8,8.3-7.8,11.3-8.4c14.7-2.9,34-1.4,49.1-1.5l0,0l19.3-0.2l0,0
	c-1.2,2.9-5.3,4.8-9.5,5.7c-1.1,2.7-2.5,4.2-5.9,5.6c-0.2,1.1-1,4.2-8.5,6.8c-1.6,4.3-9.3,7.5-16.3,8.8c-1.7,3.5-7.9,4.6-10.9,4.1
	c-0.3,1-2.4,2.2-3.3,2.1c0.1,0.4,0.3,2.1-1.8,1.7c0.4,1.3,0.1,2.1-0.5,2.5c-0.6,0.4-1.6,0.4-2.6,0.3c-0.2,0.8-0.9,1.1-1.7,1.1
	c-0.9,0-1.9-0.3-2.5-0.6c0,1.1-0.7,1.5-1.8,1.4c-1.2-0.1-2.5-0.7-3-1.2c-0.2,1.2-1.3,1.7-2.5,1.8c-0.8,0-1.6-0.1-2.3-0.4
	c-0.1,1-0.9,1.3-1.7,1.4c-1.4,0-3-1.2-3.3-2.1C-254,629.1-255,630.1-256,630.4L-256,630.4z"/>
<path d="M-244.2,590.3c-2.3,0.5-8,2.2-11.6,8.5c-4.8,2.2-5.6,4.7-6.2,6.5c-0.5,1.6-0.8,2.4-3.3,2.7c-0.9,0.1-3.1-0.1-5-1.1l-0.7-0.4
	l-1.4,12.2l8.4,11.4l0.2,0.1c1.9,0.7,3.4,0.6,4.7-0.2c0.8,1,2,1.4,3.4,0.9c0.9-0.3,1.7-1,2.3-1.9c0.8,0.8,2.1,1.5,3.2,1.5
	c0.8,0,1.6-0.4,2-1.2c0.6,0.2,1.3,0.3,1.9,0.3c1.3-0.1,2.2-0.6,2.7-1.4c0.7,0.5,1.8,0.8,2.7,0.9c0.8,0.1,1.4-0.1,1.8-0.5
	c0.2-0.2,0.3-0.4,0.4-0.7c0.6,0.2,1.4,0.4,2.1,0.4c1,0,1.6-0.4,2-1.1c1.1,0.1,2,0,2.6-0.4c0.5-0.3,0.9-0.8,0.9-1.8
	c0-0.2,0-0.3,0-0.5c0.7,0,1.1-0.3,1.3-0.6c0.3-0.4,0.4-0.8,0.4-1.2l0,0c1-0.2,2.4-1.1,3-2c3.1,0.3,8.9-0.8,10.9-4.2
	c6.5-1.2,14.4-4.3,16.4-8.8c4.9-1.8,7.8-4.1,8.5-6.9c3.1-1.3,4.7-2.8,5.9-5.5c3.1-0.7,8.2-2.4,9.6-6l0.3-0.8l-20.2,0.3
	c-4,0-8.3,0-12.8-0.1C-219.8,588.4-233.4,588.2-244.2,590.3z M-265.2,609.2c3.2-0.3,3.7-1.9,4.3-3.5c0.6-1.7,1.3-3.9,5.8-5.9
	l0.2-0.1l0.1-0.2c3.3-6,8.7-7.7,10.9-8.1c10.7-2.1,23.7-1.9,36.2-1.6c4.5,0.1,8.8,0.2,12.8,0.1c0,0,16.6-0.1,18.3-0.2
	c-1.3,2-4.4,3.6-8.7,4.6l-0.3,0.1l-0.1,0.3c-1.1,2.7-2.5,4-5.6,5.2l-0.3,0.1l-0.1,0.3c-0.5,2.5-3.2,4.7-8.1,6.4l-0.3,0.1l-0.1,0.3
	c-1.5,4-9,7.1-15.9,8.4l-0.3,0.1l-0.1,0.3c-1.6,3.3-7.6,4.2-10.3,3.8l-0.5-0.1l-0.1,0.5c-0.2,0.6-2,1.7-2.6,1.6l-0.9-0.1l0.3,0.9
	c0,0.1,0.1,0.6-0.1,0.8c-0.2,0.3-0.8,0.2-1.1,0.1l-0.9-0.2l0.3,0.9c0.4,1.4-0.1,1.7-0.2,1.8c-0.3,0.2-0.9,0.4-2.2,0.2l-0.5-0.1
	l-0.1,0.5c0,0.2-0.2,0.7-1.1,0.7c-0.8,0-1.7-0.3-2.2-0.6l-0.9-0.5v1c0,0.3-0.1,0.5-0.2,0.6c-0.2,0.2-0.5,0.2-1,0.2
	c-1-0.1-2.2-0.6-2.6-1.1l-0.8-0.9l-0.2,1.2c-0.2,1.1-1.3,1.3-1.9,1.3c-0.7,0-1.4-0.1-2-0.4l-0.8-0.4l-0.1,0.8
	c-0.1,0.8-0.9,0.8-1.1,0.8c-1.2,0-2.6-1.1-2.8-1.7l-0.6-1.6l-0.5,1.6c-0.3,0.9-1.1,1.8-2,2.1c-0.5,0.2-1.7,0.4-2.3-0.9l-0.3-0.7
	l-0.6,0.5c-1,0.9-2.2,1-3.9,0.4c-0.2-0.3-7.6-10.4-7.9-10.7c0-0.4,1-8.9,1.1-10.2C-268.1,609.1-266.2,609.3-265.2,609.2z"/>
<path fill="#ECB731" d="M-298.8,627.3c-1.1,0.5-1.9,0.7-2.8,0.6c-0.8,0-1.6-0.3-2.3-0.8c-0.8,1.4-2,2-3.1,2c-1.3,0-2.3-0.9-2.9-2.1
	c-0.8,1.1-2.4,3-4.1,3c-0.7,0-1.2-0.4-1.5-1.6c-0.7,0.3-1.5,0.6-2.3,0.7c-1,0.1-1.8-0.2-1.7-1.4c-0.9,0.6-2.3,1.1-3.3,1.1
	c-0.9,0-1.5-0.4-1.2-1.5c-0.2,0.2-1.7,1-2.8,0.9c-0.6-0.1-1.1-0.4-1.3-1.1c-1,0.1-2-0.1-2.8-0.6s-1.3-1.4-1.2-2.5
	c-2.8,0.6-2.9-1.5-2.7-1.9c-0.9-0.2-2.4-0.8-2.8-1.7c-3.6-0.1-8.3-0.3-10.8-3.4c0,0,0.1-0.3-0.1-0.3c-5.7-0.2-13.8-3.2-15.3-7.5
	c-6.7-2.5-8.8-5.3-9.4-6.6c-3.7-1.2-6.7-2.6-7.5-5.4c-4.4-0.7-9.6-3.8-10.6-6.9l0,0l21.1-0.1l0,0c15.1-0.1,34.4-1.7,49.1,1.2
	c3,0.6,9.2,3.9,12.3,9.7c5.5,0.1,7.1,8.9,11.4,9c1.5,0,3.9-1.4,5.9-5c-0.8,0.2-1.6,0.4-2.4,0.3c-0.7,0-1.4-0.1-2-0.3
	c3.4-1.5,3.2-4.2,3.3-5.3c-0.8,0.4-2.2,0.5-3.2,0.1c0.6-0.8,1.3-2.5,1-3.7c-0.9,0.8-1.6,1.1-2.6,1.3c0.1-1,0-1.8-0.4-2.6
	c-1.6-3.5-6.6-2.4-6.5-6.2c0.6,0.7,1.5,1.3,2.5,1.3c0.5,0,1-0.2,1.5-0.6c0.2-0.3,0.3-0.7,0.3-1c0-0.5-0.2-1.1-0.5-1.5
	c-0.8-1.1-2-1.5-3.2-1.4c-1.8,0.1-3.6,1-4.2,1.3c0.2-3.1,3.1-4.6,5.7-4.6c1.5,0,3.2,0.6,4,1.5c1.8-1.2,3.6-1.3,6-0.1
	c2.7,1.4,8.7,3.1,11.6,2.3c-0.7,1.5-2.4,2-3.3,2.2c2.2,0,4.3,0.2,5.9,0.7c-1.2,0.6-2.2,1.3-3.3,1.8c1.9,0.2,3.7,0.3,5.3,1
	c-1.3,0.3-2.1,0.8-2.3,1.5c0.9,0.9,2.6,0.9,4.3,1.3c1.6,0.4,3.2,1.3,4.1,3.6c-0.9,0-1.9,0.1-2.8,0.5c2.2,1.7,3.7,3.4,4.2,4.9
	c-1,0-1.9,0.2-2.7,0.6c1.9,1.4,3.5,2.9,4.5,4.5c-1.1,0.1-2.3,0.4-3.4,0.7c1.8,1.3,3.2,2.8,3.9,4.3c-0.7-0.2-1.7-0.2-2.4-0.2
	c2,1.9,3.7,4.1,4.2,6.1c-0.7-0.3-1.5-0.4-2.4-0.6c0.5,1.5,0.9,3,1,4.5c3.2,2.4,5,5,4.7,9.2c-0.8-0.4-1.6-0.7-2.3-0.8
	c1.1,2,1.1,4,0.3,6.3c-0.6-0.7-1.2-1.2-1.8-1.5c0,2.5-0.3,4.5-1.1,6l0,0l-0.9-1.5l0,0c-1.1,2.4-3.4,5.2-5.4,4.6
	c-1.8,1.8-3.4,2.3-6.2,3.6c-0.4-0.5-1-0.8-1.6-1.3c-0.8,0.7-1.4,1.4-2,2.4c-0.6-0.8-1.2-1.4-1.8-2l0,0l-2.3,0.8l0,0
	c-4.9-3.3-9.4-4.2-8.9-9c-0.6,0.2-1.1,0.8-1.8,1.4c-0.5-1.6-0.6-4.4-0.3-6.8c-0.9,0.1-1.3,0.2-2.1,0.6c-0.1-0.9-0.1-3,1-5.3
	c-1.2,0.3-1.5,0.8-2.1,1.4C-300.1,630-299.6,628.5-298.8,627.3L-298.8,627.3z"/>
<path d="M-302.1,581.4c-2.8,0-6,1.6-6.2,5.1l-0.1,1.1l0.9-0.6c0.7-0.4,2.4-1.2,3.9-1.3c1.2,0,2.1,0.4,2.7,1.2
	c0.3,0.4,0.4,0.8,0.4,1.2c0,0.3-0.1,0.5-0.2,0.7c-0.3,0.3-0.6,0.4-1.1,0.4c-1,0-1.7-0.7-2.1-1.1l-1-1.1v1.4
	c-0.1,2.4,1.7,3.2,3.3,3.9c1.3,0.5,2.6,1.1,3.3,2.5c0.3,0.7,0.4,1.4,0.4,2.4v0.7l0.7-0.2c0.7-0.1,1.3-0.4,1.9-0.8
	c-0.1,0.8-0.5,1.6-0.9,2.2l-0.5,0.6l0.8,0.2c0.8,0.3,1.9,0.3,2.8,0.1c-0.1,1.2-0.4,2.9-2.9,4l-1.4,0.6l1.5,0.4
	c0.7,0.2,1.4,0.3,2.2,0.3c0.4,0,0.8,0,1.2-0.1c-1.6,2.5-3.5,3.6-4.7,3.6c-1.7,0-3-1.9-4.5-3.8c-1.7-2.3-3.6-4.9-6.6-5.1
	c-3.2-5.6-9.2-9.1-12.6-9.7c-11.2-2.2-25.2-1.8-37.7-1.5c-4.1,0.1-7.9,0.2-11.6,0.2l-21.9,0.1l0.2,0.7c1.1,3.4,6.3,6.5,10.7,7.3
	c1,2.9,4.2,4.3,7.5,5.4c0.7,1.5,2.9,4.1,9.4,6.6c1.9,4.5,9.9,7.2,15.3,7.6l0.1,0.1c2.6,3.3,7.5,3.5,10.9,3.6
	c0.6,0.9,1.8,1.4,2.5,1.6c0,0.5,0.2,1,0.5,1.4c0.4,0.4,1.1,0.8,2.2,0.7c0.1,0.9,0.6,1.8,1.4,2.3c0.8,0.5,1.8,0.8,2.8,0.8
	c0.3,0.6,0.8,1,1.6,1.1c0.7,0.1,1.6-0.2,2.3-0.5c0.1,0.2,0.1,0.4,0.3,0.5c0.3,0.4,0.8,0.6,1.6,0.6c0.9,0,2-0.4,2.9-0.8
	c0.1,0.2,0.2,0.4,0.4,0.6c0.4,0.4,1,0.6,1.8,0.5c0.6,0,1.2-0.2,1.9-0.5c0.5,1.2,1.3,1.4,1.9,1.4c1.7,0,3.2-1.5,4-2.5
	c0.7,1,1.8,1.6,2.9,1.7c1.3,0,2.5-0.7,3.3-1.8c0.7,0.4,1.3,0.6,2.1,0.6c0.5,0,1,0,1.6-0.2c-0.4,1-0.7,2.2-0.7,3.3v1.3l1.3-1.2
	c0.1-0.1,0.2-0.2,0.4-0.3c-0.4,1.1-0.6,2.2-0.6,3.4c0,0.2,0,0.5,0,0.7l0.1,0.9l0.8-0.4c0.5-0.2,0.8-0.4,1.2-0.5
	c-0.1,0.7-0.1,1.5-0.1,2.3c0,1.4,0.1,2.9,0.5,3.9l0.3,0.8l0.9-0.9c0.2-0.2,0.4-0.3,0.5-0.5c0.2,3.1,2.6,4.6,5.7,6.3
	c1.1,0.6,2.3,1.3,3.5,2.1l0.2,0.2c0,0,1.7-0.6,2.2-0.8c0.5,0.5,1,1,1.5,1.7l0.5,0.7l0.5-0.7c0.5-0.8,1-1.4,1.6-1.9l0,0
	c0.4,0.3,0.8,0.6,1,0.9l0.3,0.3l1.6-0.7c2.1-0.9,3.4-1.5,5-3c2,0.3,4-1.6,5.3-4c0.2,0.3,0.9,1.5,0.9,1.5l0.5-0.9
	c0.7-1.4,1.1-3.1,1.1-5.3c0.3,0.2,0.6,0.5,0.8,0.9l0.7,0.8l0.3-1c0.4-1.2,0.6-2.3,0.6-3.2c0-0.8-0.2-1.6-0.5-2.4
	c0.4,0.1,0.7,0.3,1.1,0.5l0.8,0.4l0.1-0.9c0-0.3,0-0.6,0-0.9c0-3.5-1.5-6.1-4.8-8.6c-0.1-1.1-0.3-2.3-0.7-3.5c0.5,0.1,1,0.2,1.4,0.4
	l1.1,0.4l-0.3-1.1c-0.6-2-2-3.9-3.4-5.4c0.3,0,0.6,0.1,0.9,0.1l1.1,0.2l-0.5-1.1c-0.6-1.3-1.7-2.6-3.1-3.8c0.7-0.2,1.4-0.3,2.1-0.4
	l0.9-0.1l-0.5-0.8c-0.9-1.5-2.4-2.9-3.8-4c0.5-0.1,1-0.2,1.6-0.2h0.8l-0.3-0.7c-0.5-1.3-1.7-2.8-3.6-4.4c0.5-0.1,1-0.2,1.6-0.2h0.9
	l-0.3-0.8c-1.1-2.7-3-3.6-4.5-4l-1.6-0.4c-0.8-0.2-1.5-0.3-2.1-0.6c0.3-0.3,0.9-0.6,1.6-0.8l1.5-0.4l-1.4-0.7
	c-1.1-0.6-2.4-0.8-3.7-0.9c0.5-0.3,2.8-1.6,2.8-1.6l-1.2-0.4c-1-0.3-2.2-0.5-3.6-0.7c0.5-0.4,1-0.9,1.3-1.5l0.5-1.1l-1.1,0.3
	c-2.7,0.7-8.6-0.8-11.2-2.2c-2.3-1.2-4.3-1.2-6.2-0.1C-299.1,581.8-300.8,581.4-302.1,581.4z M-302.1,582.5c1.4,0,2.9,0.5,3.5,1.3
	l0.3,0.4l0.4-0.3c1.6-1.1,3.3-1.2,5.4,0c2.4,1.2,7.3,2.6,10.6,2.5c-0.6,0.5-1.4,0.7-2.1,0.9l-4.4,1.2l4.5-0.1c1.6,0,3.1,0.1,4.3,0.4
	c-0.4,0.2-0.9,0.5-0.9,0.5l-2.7,1.6l1.8,0.2h0.5c1.1,0.1,2.2,0.2,3.2,0.4c-0.7,0.4-1,0.9-1.2,1.3l-0.1,0.3l0.3,0.2
	c0.8,0.7,1.8,0.9,3,1.1l1.5,0.3c1.2,0.3,2.5,0.9,3.4,2.6c-0.8,0.1-1.5,0.2-2.1,0.5l-0.8,0.4l0.7,0.6c1.8,1.4,3.1,2.8,3.7,4
	c-0.8,0.1-1.5,0.3-2.1,0.6l-0.8,0.4l0.7,0.6c1.8,1.4,3,2.5,3.8,3.6c-0.9,0.1-1.7,0.3-2.6,0.5l-1.1,0.3l1,0.7c1.4,1,2.5,2.1,3.2,3.1
	c-0.5,0-1-0.1-1.4,0l-1.2,0.1l0.9,0.9c1.8,1.7,3,3.3,3.7,4.8c-0.4-0.1-0.9-0.2-1.3-0.2l-0.9-0.1l0.3,0.9c0.5,1.6,0.8,3,0.9,4.4v0.3
	l0.2,0.2c3.1,2.4,4.5,4.7,4.5,7.9c-0.6-0.2-1.1-0.4-1.7-0.5l-1.2-0.2l0.6,1c0.5,0.9,0.8,1.9,0.8,2.9c0,0.6-0.1,1.2-0.3,1.9
	c-0.4-0.4-0.8-0.7-1.3-0.9l-0.8-0.4v0.9c0,1.9-0.2,3.5-0.6,4.7c-0.1-0.2-0.9-1.4-0.9-1.4l-0.5,1c-1.1,2.4-3.2,4.8-4.7,4.3l-0.3-0.1
	l-0.2,0.2c-1.5,1.5-2.7,2-4.8,3c0,0-0.5,0.2-0.9,0.4c-0.3-0.3-0.6-0.5-0.9-0.7l-0.8-0.6l-0.4,0.3c-0.6,0.5-1.2,1.2-1.7,1.9
	c-0.5-0.6-1-1.1-1.5-1.5l-0.3-0.2c0,0-1.9,0.7-2.3,0.9c-1.1-0.8-2.3-1.4-3.3-2c-3-1.7-5.1-2.9-5.1-5.7c0-0.2,0-0.4,0-0.6l0.1-0.9
	l-0.9,0.3c-0.5,0.2-0.8,0.5-1.2,0.9c-0.1-0.8-0.2-1.7-0.2-2.7c0-0.9,0.1-1.9,0.2-2.9l0.1-0.7l-0.7,0.1c-0.6,0.1-1,0.2-1.4,0.3
	c0-1.5,0.3-2.9,1-4.1l0.6-1.1l-1.2,0.3c-0.6,0.1-1,0.3-1.3,0.5c0.2-0.9,0.5-1.8,1.1-2.6l1.1-1.6l-1.8,0.8c-1,0.4-1.8,0.6-2.5,0.6
	c-0.7,0-1.3-0.2-1.9-0.7l-0.5-0.4l-0.3,0.5c-0.6,1.1-1.6,1.7-2.6,1.7s-1.9-0.7-2.4-1.8l-0.4-1l-0.6,0.9c-0.9,1.3-2.3,2.7-3.6,2.7
	c-0.2,0-0.7,0-0.9-1.2l-0.2-0.7l-0.6,0.3c-0.7,0.3-1.5,0.6-2.1,0.6c-0.5,0-0.8,0-1-0.2c-0.1-0.1-0.2-0.3-0.2-0.6l0.1-1.1l-0.9,0.6
	c-0.8,0.5-2.1,1-3,1c-0.3,0-0.6-0.1-0.7-0.2c-0.1-0.1-0.1-0.4,0-0.7l0.4-1.8l-1.4,1.2c-0.2,0.2-1.4,0.8-2.3,0.7
	c-0.4,0-0.7-0.2-0.8-0.7l-0.1-0.5l-0.5,0.1c-0.8,0.1-1.8-0.1-2.4-0.6c-0.5-0.3-1.1-1-1-2l0.1-0.8l-0.8,0.2c-0.6,0.1-1.4,0.2-1.8-0.2
	c-0.2-0.3-0.3-0.6-0.3-0.8c0-0.1,0-0.1,0-0.1l0.1-0.6l-0.6-0.2c-1-0.2-2.1-0.7-2.4-1.4l-0.1-0.3h-0.4c-3.1-0.1-7.8-0.2-10.2-3.1
	c0-0.1,0-0.2-0.1-0.3c-0.1-0.2-0.3-0.3-0.5-0.3c-5.9-0.3-13.4-3.2-14.8-7.1l-0.1-0.2l-0.2-0.1c-6.9-2.6-8.7-5.3-9.1-6.3l-0.1-0.2
	l-0.2-0.1c-3.9-1.3-6.4-2.6-7.1-5.1l-0.1-0.4l-0.4-0.1c-4.1-0.7-8.4-3.3-9.8-5.8c1.6,0,20.2-0.1,20.2-0.1c3.7,0,7.5-0.1,11.6-0.2
	c12.3-0.3,26.3-0.7,37.4,1.4c3.1,0.6,9,4,11.9,9.4l0.2,0.3h0.3c2.6,0.1,4.3,2.4,6,4.7c1.6,2.2,3.1,4.3,5.4,4.3
	c1.6,0,4.2-1.3,6.4-5.3l0.7-1.2l-1.3,0.4c-0.7,0.2-1.5,0.3-2.2,0.3c-0.1,0-0.2,0-0.4-0.1c2.1-1.6,2.2-3.6,2.2-4.7v-1.2l-0.8,0.4
	c-0.5,0.2-1.3,0.3-2,0.2c0.4-0.7,0.7-1.7,0.7-2.6c0-0.3,0-0.5-0.1-0.8l-0.2-0.9l-0.7,0.6c-0.6,0.5-1.1,0.8-1.6,1
	c0-0.8-0.2-1.5-0.4-2.1c-0.8-1.8-2.4-2.5-3.9-3.1c-1-0.4-1.7-0.8-2.1-1.3c0.5,0.2,0.9,0.3,1.4,0.3c0.7,0,1.4-0.3,1.9-0.8
	c0.3-0.4,0.5-0.9,0.5-1.4c0-0.6-0.2-1.3-0.6-1.9c-0.8-1.1-2.1-1.7-3.6-1.7c-1.3,0-2.5,0.5-3.4,0.9
	C-306.3,583.4-304.1,582.5-302.1,582.5z M-348.9,616.6L-348.9,616.6L-348.9,616.6L-348.9,616.6z"/>
<path fill="#ECB731" d="M-293,637c-0.1,3.3-1.1,9.2-4,11.3c-2.5,1.8-6,0.5-7.8,3l0,0l0.2,1.5l0,0c2.8,0,3.3,0.2,6.3-1.8
	c-1.9,1.3-3.1,2.2-3.3,4.4c0.7,0.2,1.1,0.8,1.6,1.1c0.9-0.9,2-2,3.2-4c-0.2,1.6-0.9,2.7-0.9,4.2c0.7-0.1,1.3-0.1,2,0
	c0.6-1.3,2.1-4.1,2.1-5.5c1.7,0,2.9-0.3,4.5-0.6c0.7-0.1,1.5,0.1,2.5-0.1c0.1-0.7,0-1.4,0-2c-1.8-0.6-2-1.1-4.2-2.1
	c-0.8-1.7,0.2-4.5,0.8-7.3c-1-0.5-1.8-1.4-2.2-2.5C-292.5,636.6-292.8,636.8-293,637L-293,637z"/>
<path d="M-292.5,636l-1.1,0.6v0.3c-0.1,3.3-1.2,9-3.8,10.9c-1,0.7-2.2,0.9-3.4,1.1c-1.7,0.3-3.4,0.5-4.5,2.1l-0.1,0.2l0.3,2.2h1.1
	c1,0,1.7,0,2.4-0.1c-0.3,0.6-0.6,1.2-0.6,2.1l-0.1,0.5l0.5,0.1c0.3,0.1,0.5,0.3,0.8,0.5l1,0.8l0.3-0.4l0.3-0.4
	c0.4-0.4,0.8-0.8,1.2-1.3c-0.1,0.5-0.2,0.9-0.2,1.5v0.7l0.7-0.1c0.6-0.1,1.2-0.1,1.8,0l0.4,0.1l0.5-1.1c0.8-1.7,1.5-3.3,1.7-4.5
	c1.2,0,2.1-0.2,3.2-0.4l0.9-0.2h1c0.4,0,0.9,0,1.5-0.1l0.5-0.1v-0.4v-1.5v-1l-0.4-0.1c-0.9-0.3-1.4-0.6-2.1-1c-0.5-0.3-1-0.6-1.8-1
	c-0.1-0.3-0.2-0.7-0.2-1.1c0-1,0.3-2.3,0.6-3.7l0.5-2.4l-0.4-0.2c-0.9-0.5-1.6-1.3-1.9-2.2l-0.1-0.7L-292.5,636z M-300.6,650
	c1.3-0.2,2.7-0.4,3.9-1.3c3-2.2,4.1-7.8,4.3-11.2c0.4,0.7,1,1.4,1.7,1.8c-0.1,0.5-0.4,1.6-0.4,1.6c-0.3,1.4-0.6,2.7-0.6,3.9
	c0,0.6,0.1,1.2,0.3,1.8l0.1,0.2l0.2,0.1c0.9,0.4,1.5,0.8,1.9,1.1c0.6,0.4,1.1,0.7,1.9,1c0,0.1,0,0.2,0,0.2s0,0.4,0,0.8
	c-0.3,0-0.6,0-0.8,0h-1.2l-1,0.2c-1.2,0.2-2.2,0.4-3.5,0.4h-0.6v0.6c0,1.1-1,3.2-1.7,4.5c0,0-0.1,0.2-0.2,0.4c-0.3,0-0.6,0-1,0
	c0.1-0.5,0.2-1,0.4-1.5c0.2-0.6,0.4-1.3,0.5-2.1l0.3-2.5l-1.3,2.2c-1,1.7-2,2.7-2.8,3.6l-0.1-0.1c-0.2-0.2-0.5-0.4-0.8-0.6
	c0.3-1.7,1.3-2.4,3-3.6l-0.7-0.9c-2.6,1.8-3.1,1.8-5.3,1.7c0,0-0.1,0-0.2,0c0-0.3-0.1-0.5-0.1-0.7
	C-303.4,650.4-302.1,650.2-300.6,650z"/>
<path fill="#ECB731" d="M-302,659c-0.4-0.6-0.7-2.5,0.1-3.6c0.5,0.2,1.5,0.5,1.9,0.9C-300.6,656.9-301.6,658.2-302,659L-302,659z"/>
<path d="M-302.4,655.1c-0.9,1.3-0.7,3.4-0.1,4.3l0.6,0.9l0.4-1c0.3-0.8,1.3-2,1.8-2.5l0.4-0.4l-0.4-0.4c-0.4-0.5-1.2-0.8-1.8-1
	l-0.7-0.3L-302.4,655.1z M-301.8,657.2c0-0.4,0.1-0.8,0.2-1.1c0.2,0.1,0.5,0.2,0.7,0.3c-0.3,0.3-0.6,0.7-0.9,1.2
	C-301.8,657.5-301.8,657.4-301.8,657.2z"/>
<path d="M-284.8,633.1c0.6,0.6,1.4,2.6,1.4,4.4c0,0.4,0,0.7-0.1,1.1c-0.2,1-0.7,1.7-1.4,2.2c-0.4-1.2-1.4-3.3-2.8-4.2l-0.5-0.3
	l-0.3,0.5c-0.4,0.6-0.6,1.3-0.8,2.1c-1.2-0.4-2.1-1.3-2.6-2.5l-0.2-0.6l-0.6,0.2c-0.9,0.4-1.8,1.3-2.4,1.9l-0.1,0.1
	c-0.8-1-1.2-1.9-1.2-3.1v-0.7l-1.7,0.3l0.3,1.1c0,0,0.2,0,0.3-0.1c0.2,1.3,0.7,2.4,1.8,3.6l0.4,0.4l0.4-0.4l0.6-0.5
	c0.4-0.4,1-1,1.6-1.4c0.7,1.4,2,2.5,3.6,2.8l0.6,0.1v-0.7c0-0.7,0.2-1.2,0.4-1.7c1.2,1.1,1.9,3.3,2,3.8l0.1,0.8l0.7-0.3
	c1.4-0.6,2.3-1.8,2.7-3.3c0.5-2.5-0.6-5.5-1.6-6.5L-284.8,633.1z"/>
<path d="M-284.5,601.2c-0.6,2.7-2,3.4-3.5,3.8c0.1-0.5,0.2-1,0.2-1.6c0-0.4,0-0.7-0.1-1.1l-0.3-1.3l-0.7,1.1
	c-0.9,1.5-2.3,2.3-4.1,2.4l0.1,1.1c1.6-0.1,2.9-0.7,3.9-1.6c-0.1,0.5-0.2,1-0.5,1.4l-0.8,1.1l1.3-0.2c1.6-0.3,3.8-0.7,4.9-3.4
	c0.1,0.3,0.1,0.7,0.1,1s0,0.6-0.1,1l-0.2,1.2l1-0.6c1.9-1.2,2.3-2.4,2.4-4.2h-1.1c0,1.1-0.2,1.8-0.9,2.5c0-0.8-0.2-1.7-0.8-2.7
	l-0.7-1.2L-284.5,601.2z"/>
<path d="M-296,585.2c-0.9,0-1.5,0.6-1.6,1.4c0,0.5,0.2,0.9,0.5,1.3c0.3,0.4,0.5,0.8,0.5,1.4h1.1c0-0.9-0.4-1.5-0.7-2
	c-0.1-0.2-0.3-0.5-0.3-0.6c0-0.2,0-0.3,0.5-0.3c0.7,0,1.5,0.5,2.4,1c1.4,0.9,3.2,2,5.8,2v-1.1c-2.2,0-3.8-1-5.2-1.8
	C-294.1,585.7-295,585.2-296,585.2z"/>
<path d="M-296.4,586.1c0.2,1.2,1.2,2.7,2.8,3.1c0.5,0.1,1.3,0.2,1.9-0.2c0.2-0.2,0.5-0.6,0.5-1.2h-1.1c0,0.1,0,0.3-0.1,0.3
	c-0.1,0.1-0.5,0.1-0.9,0c-1.1-0.3-1.8-1.3-2-2.2L-296.4,586.1z"/>
<path d="M-276.8,599.4c0.6,0.7,0.9,1.3,1,2c-1-0.7-2.1-1.1-3.1-1.1v1.1c1,0,2.3,0.6,3.2,1.5l0.7,0.7l0.3-0.9
	c0.4-1.4,0.1-2.7-1.1-4.1L-276.8,599.4z"/>
<path d="M-275.2,606c0.2,0.4,0.4,0.9,0.5,1.6c-0.6-0.7-1.3-1.2-2.4-1.4l-0.3,1.1c1.2,0.3,1.8,0.8,2.7,2.2l0.6,1l0.4-1.1
	c0.5-1.6-0.1-3.1-0.5-3.9L-275.2,606z"/>
<path d="M-289.8,612.6l0.2,1.1l0.8-0.8c0.9-0.9,2.7-1.7,3.5-1.9l-0.2-1.1c-0.7,0.1-2.1,0.6-3.2,1.4c0.1-0.9,0.5-1.7,1.2-2.2
	l-0.7-0.9C-289.4,609.1-290,610.8-289.8,612.6z"/>
<path d="M-279.4,612.7c0.3,0.5,0.5,1.3,0.5,2c0,0.3,0,0.6-0.1,0.9c-0.8-1.4-1.9-2.5-3.1-3.1l-0.5,1c1.3,0.6,2.5,2,3.2,3.7l0.4,1.1
	l0.6-1c0.8-1.5,0.8-3.8,0-5.3L-279.4,612.7z"/>
<path d="M-272.6,612.2c0.4,0.8,0.6,1.6,0.6,2.6v0.1c-0.8-1-1.7-1.9-3.2-2.5l-0.4,1.1c1.5,0.6,2.4,1.7,3.3,2.9l1.1,1.4l0.2-1.2
	c0.3-1.8,0.1-3.4-0.6-4.8L-272.6,612.2z"/>
<path d="M-271.8,618.6c0.4,0.5,0.5,1.1,0.5,1.7c0,0.2,0,0.4-0.1,0.5c-0.7-1-1.8-2.1-3.2-2.6l-0.3,1.1c1.5,0.5,2.8,2.1,3.2,3.1
	l0.5,1.2l0.6-1.1c0.6-1.2,0.9-3.1-0.2-4.6L-271.8,618.6z"/>
<path d="M-291.3,621.3l0.1,1.3l0.9-0.9c0.9-1,2.7-2.2,4-2.5l-0.2-1.1c-1.1,0.2-2.4,1-3.5,1.9c0.2-1.3,1-2.3,2.1-2.8l-0.5-1
	C-290.4,616.9-291.5,618.9-291.3,621.3z"/>
<path d="M-296.3,614.5v1.1l0.9-0.6c1-0.7,2.4-1.4,3-1.6l-0.3-1.1c-0.6,0.2-1.5,0.7-2.3,1.2c0.2-1.2,0.6-2.8,2-3.6l-0.6-1
	C-296,610.2-296.3,613.2-296.3,614.5z"/>
<path d="M-271,625.5c0.8,0.7,1.9,2,2.3,3.4l0.3,1l0.7-0.7c1.4-1.5,1-3.3,0.8-4.1v-0.2l-1.1,0.2l0.1,0.2c0.1,0.3,0.2,0.8,0.2,1.3
	c0,0.3,0,0.6-0.1,0.9c-0.6-1.2-1.5-2.3-2.2-2.9L-271,625.5z"/>
<path d="M-278.6,628.3l0.1,1.2l0.9-0.8c1.1-1.1,2.4-1.8,3.6-2.2l-0.4-1.1c-1,0.3-1.9,0.8-2.9,1.5c0.3-1,0.9-1.9,1.6-2.3l-0.5-1
	C-277.7,624.3-278.7,626.6-278.6,628.3z"/>
<path d="M-284.7,624.8c0.8,0.3,1.7,1.5,2,2.6c-1-0.7-2-1-2.8-1.2l-0.7-0.2l-0.4,1.1l0.7,0.2c1.1,0.3,2.2,0.6,3.5,2l0.9,0.9l0.1-1.2
	c0.2-1.9-1.4-4.6-3-5.2L-284.7,624.8z"/>
<rect x="-298.8" y="583.5" transform="matrix(-2.410046e-02 -0.9997 0.9997 -2.410046e-02 -889.1854 300.1813)" width="1.5" height="1.1"/>
<path d="M-297.5,620.4v1.2l1.6-1.2c0.4-0.3,0.7-0.6,1.1-0.8c-0.5,1.1-0.8,2.3-0.8,3.4c0,0.4,0,0.7,0.1,1.1l1.1-0.2
	c-0.3-1.6,0.2-3.4,1.3-5.1l0.8-1.2l-1.4,0.3c-0.9,0.2-1.6,0.6-2.2,1c0.5-1.1,1.4-2.1,2.4-2.4l-0.3-1.1
	C-295.8,616-297.5,618.3-297.5,620.4z"/>
<rect x="-295.5" y="624" transform="matrix(-0.4919 -0.8706 0.8706 -0.4919 -983.4022 674.2154)" width="1.1" height="0.1"/>
<path d="M-299.4,627.2l1,0.6c1.3-2.1,3.3-3.4,5.3-3.4v-1.1C-295.6,623.3-297.9,624.7-299.4,627.2z"/>
<path d="M-370.7,590.2c3,4.5,5.8,7,11.9,7c4.8,0,10.4-1.6,14.1-2.6l-0.3-1.1c-3.6,1-9.1,2.6-13.7,2.6c-5.6,0-8.1-2.2-10.9-6.5
	L-370.7,590.2z"/>
<path d="M-364.4,596.1c1.8,3.6,5,5.3,10,5.3c5.9,0,8.5-0.7,11.5-1.5l-0.3-1.1c-2.9,0.8-5.4,1.5-11.2,1.5c-4.5,0-7.3-1.4-8.9-4.7
	L-364.4,596.1z"/>
<path d="M-343.7,605.9c1.6,3.1,5.4,4.8,10.8,4.8c3.6,0,7.6-0.8,11.4-2.3l-0.4-1.1c-3.7,1.4-7.6,2.2-11,2.2c-4.9,0-8.4-1.4-9.8-4.1
	L-343.7,605.9z"/>
<path d="M-355.5,601.3c2.3,2.8,7.3,4.7,12.5,4.8c1.9,0,8.6,0,13.6-2.1l-0.4-1.1c-4.8,2-11.3,2.1-13.2,2c-5.5-0.1-9.9-2.4-11.6-4.4
	L-355.5,601.3z"/>
<path d="M-337.8,610c0.8,1.9,2.3,3.3,4.4,4.1c5,1.8,12.3-0.3,16-2.3l-0.6-1c-3.4,1.9-10.5,3.9-15,2.2c-1.8-0.6-3.1-1.8-3.7-3.4
	L-337.8,610z"/>
<path d="M-324.4,617.4c0.5,1,1.5,1.7,2.8,2.1c2.3,0.6,5.4,0.1,7.6-1.2l-0.6-1c-1.9,1.2-4.8,1.6-6.7,1.1c-1-0.3-1.7-0.8-2.1-1.5
	L-324.4,617.4z"/>
<path d="M-330.3,614.5c0.6,0.8,1.9,2.8,5.4,3.1c2.5,0.2,5.9-0.5,9.9-2l-0.4-1.1c-3.8,1.5-7,2.2-9.3,2c-3-0.2-4-1.8-4.6-2.6
	L-330.3,614.5z"/>
<path d="M-319.6,619.3c0.1,1,1.3,2.2,2.9,2.7c1.1,0.4,3.9,1.1,6.4-1.4l-0.8-0.8c-2,2-4.3,1.5-5.1,1.2c-1.3-0.5-2.1-1.3-2.2-1.8
	L-319.6,619.3z"/>
<path d="M-307.2,622.1c-0.4,1-1.8,1.6-3.4,1.6c-1.4,0-3.1-0.6-3.8-2l-1,0.5c0.8,1.6,2.6,2.6,4.8,2.6c1.8,0,3.2-0.6,4-1.6
	c0.9,0.9,2.1,1.4,3.3,1.4c1.3,0,2.6-0.6,3.7-1.8c0.9,0.2,1.9,0.2,2.8-0.1l-0.3-1.1c-0.8,0.3-1.7,0.3-2.5,0.1l-0.3-0.1l-0.2,0.3
	c-1,1.1-2,1.6-3.1,1.6c-1.1,0-2.1-0.5-2.9-1.5l-0.6-0.8L-307.2,622.1z"/>
<path d="M-380.4,596.4l-0.2,1.1c5.3,1,12,0.4,17.3-0.2l-0.1-1.1C-368.6,596.8-375.3,597.4-380.4,596.4z"/>
<path d="M-373.1,601.7l-0.3,1.1c5.6,1.4,13.9,1.2,19.3-0.4l-0.3-1.1C-359.6,602.9-367.7,603.1-373.1,601.7z"/>
<path d="M-363.8,609.5c9.6,3.5,22.3,1.3,25.9,0.6l-0.2-1.1c-3.6,0.7-16,2.8-25.3-0.5L-363.8,609.5z"/>
<path d="M-348,615.9v1.1c5,0,12.3-1.4,15-2.8l-0.5-1C-336.1,614.6-343.3,615.9-348,615.9z"/>
<path d="M-337.5,619.6v1.1c2.5,0.1,8.8-1.4,11.4-3.4l-0.7-0.9C-329.3,618.3-335.2,619.7-337.5,619.6z"/>
<path d="M-334.7,621.3l-0.1,1.1c3.7,0.3,9.2-0.5,12.6-3.7l-0.8-0.8C-326.1,620.9-331.3,621.6-334.7,621.3z"/>
<path d="M-328.4,626.5l0.7,0.9c0.8-0.7,1.6-1.7,2.4-2.8l-1-0.6C-326.9,625-327.7,625.9-328.4,626.5z"/>
<path d="M-324.5,626.9l0.7,0.9c0.8-0.6,1.4-1.4,2.1-2.5l-1-0.6C-323.2,625.6-323.8,626.3-324.5,626.9z"/>
<polygon points="-319.7,627.1 -319.8,627.2 -319,628 -318.9,627.9 -317.5,626.3 -318.4,625.6 "/>
<rect x="-315" y="625.8" transform="matrix(-0.7707 -0.6372 0.6372 -0.7707 -956.5071 910.2795)" width="1.1" height="2.8"/>
<path d="M-349.4,595.5c0.9,2.1,3,4.3,5.4,4.3c3,0.1,7.3-1.2,10.7-3.3l-0.6-1c-3.2,1.9-7.3,3.2-10.1,3.1c-1.9,0-3.7-1.9-4.4-3.6
	L-349.4,595.5z"/>
<path d="M-336.7,600.6c-1.7,0-3-0.6-4.2-1.9l-0.8,0.8c1.4,1.5,3,2.2,5,2.2c3.3,0,7-2,10.1-4.1l-0.6-1
	C-330,598.5-333.7,600.6-336.7,600.6z"/>
<path d="M-323.8,600c-2,1.4-4.1,2.8-6.1,2.9c-1.5,0-2.8-0.7-4.1-2.2l-0.9,0.7c1.5,1.8,3.1,2.6,5,2.6c2.3-0.1,4.5-1.6,6.7-3.1l1-0.7
	l-0.6-0.9L-323.8,600z"/>
<path d="M-325.1,604.5c-1.9,0.1-2.5-0.6-2.8-1.3l-1,0.5c0.7,1.4,1.9,2.1,3.9,2c2.2-0.1,4.8-1.4,7-3.4l-0.8-0.8
	C-320.8,603.2-323.2,604.4-325.1,604.5z"/>
<path d="M-322.2,606.2c-0.7-0.2-1.3-0.6-1.6-1.3l-1,0.5c0.5,0.9,1.3,1.6,2.3,1.9c1.9,0.5,4.6-0.1,7.8-2l-0.6-1
	C-319,606.4-321.1,606.5-322.2,606.2z"/>
<path d="M-322.5,606.9c0.4,1.2,1.1,2.1,2.2,2.6c3.2,1.4,8.1-0.8,9.1-1.3l-0.5-1c-2,0.9-5.9,2.3-8.1,1.3c-0.8-0.4-1.3-1-1.6-1.9
	L-322.5,606.9z"/>
<path d="M-319.3,609.8c2,3.6,4.9,4.1,11.1,1.8l-0.4-1.1c-6.3,2.4-8.2,1.4-9.7-1.3L-319.3,609.8z"/>
<path d="M-314.8,612.8c0.6,1.4,1.6,2.3,2.9,2.8c2,0.7,4.6,0.2,7.1-1.2l-0.6-1c-2.2,1.3-4.5,1.7-6.1,1.1c-1-0.4-1.8-1.1-2.2-2.1
	L-314.8,612.8z"/>
<path d="M-309.7,615.8c0.6,1.4,1.6,2.3,2.8,2.6c1.5,0.4,3.2,0,5.2-1.3c0.7,1.5,1.8,1.9,3.3,1.8v-1.1c-1.3,0-1.9-0.1-2.4-1.7
	l-0.2-0.7l-0.6,0.4c-1.9,1.4-3.6,1.9-4.8,1.5c-1.1-0.3-1.8-1.3-2.1-2L-309.7,615.8z"/>
<path d="M-207.9,594.5c-4.9,0-9.2-0.5-12.8-1.6l-0.3,1.1c3.7,1.1,8.1,1.6,13.1,1.6c5.3,0,8.7-1.7,11.8-5.9l-0.9-0.7
	C-199.9,593-202.9,594.5-207.9,594.5z"/>
<path d="M-213.8,599.9c-2.3,0-5.4-0.4-8.4-1.2l-0.3,1.1c3.1,0.8,6.3,1.3,8.7,1.3c4.6,0,7.8-1.8,10.5-5.8l-0.9-0.6
	C-206.7,598.3-209.5,599.9-213.8,599.9z"/>
<path d="M-243.3,606.8c2.7,1.8,6.9,4.2,11.3,4.2c3.1,0,5.9-1.2,8.5-3.5l-0.8-0.8c-2.4,2.2-4.9,3.2-7.7,3.2c-4.1,0-8.1-2.3-10.7-4
	L-243.3,606.8z"/>
<path d="M-223.6,606.4c-3.2,0.1-9.5-1.7-12.6-4.1l-0.7,0.9c3.4,2.6,10,4.4,13.4,4.3c5.5-0.2,10.9-4.2,13-6.7l-0.9-0.7
	C-213.4,602.4-218.5,606.2-223.6,606.4z"/>
<path d="M-246.7,610c1.6,3,5.7,5.2,9.7,5.2c3.6,0,6.5-1.5,8.1-4.4l-1-0.6c-1.9,3.4-5.3,3.9-7.1,3.9c-3.6,0-7.3-2-8.7-4.6L-246.7,610
	z"/>
<path d="M-245.9,619.5c-1.9,0.1-4.1-0.6-5.4-1.7l-0.7,0.9c1.5,1.2,4,2,6.1,1.9c2.1-0.1,3.8-0.9,4.6-2.3l-1-0.6
	C-243.1,619.2-244.9,619.4-245.9,619.5z"/>
<path d="M-251.1,614.2c3.8,3.7,7.4,4.1,9.8,3.8c3-0.3,5.1-2,5.8-2.9l-1-0.6c-0.4,0.6-2.2,2.1-4.9,2.4c-2.1,0.2-5.3-0.2-8.8-3.5
	L-251.1,614.2z"/>
<path d="M-249.8,621.4c-1,0.1-2.5-0.1-3.9-1.5l-0.8,0.8c1.7,1.7,3.5,1.9,4.8,1.8c2-0.2,3.7-1.4,4.3-2.4l-1-0.5
	C-246.8,620.3-248.2,621.2-249.8,621.4z"/>
<path d="M-258.2,622.5c-0.4,1-1,1.7-1.6,1.7c-0.6,0.1-1.1-0.4-1.5-0.9l-0.9,0.7c1,1.2,1.9,1.4,2.5,1.3c0.8-0.1,1.5-0.7,2-1.6
	c1,1.1,2.3,1.6,3.8,1.4c1.7-0.2,3.1-1.3,3.7-2.7l-1.1-0.4c-0.4,1.1-1.4,1.9-2.7,2c-1.3,0.1-2.5-0.5-3.2-1.7l-0.6-1L-258.2,622.5z"/>
<path d="M-201.7,594.7c2.5,0.9,5.7,1.3,9,1.4c2.6,0,5.3-0.2,7.7-0.7l-0.2-1.1c-2.3,0.5-4.9,0.7-7.5,0.6c-3.2-0.1-6.2-0.5-8.7-1.3
	L-201.7,594.7z"/>
<path d="M-202.1,601.5c-3.4,0-6.6-0.6-8.4-1.6l-0.5,1c2,1,5.3,1.6,8.9,1.7c3.8,0,7.8-0.5,11.2-1.6l-0.4-1.1
	C-194.6,601-198.4,601.6-202.1,601.5z"/>
<path d="M-215.4,609.7c-3.9,0.1-7.6-0.3-10.5-1.1l-0.3,1.1c3,0.8,6.8,1.2,10.8,1.2c5.8-0.1,11.4-1.1,15.8-2.9l-0.4-1.1
	C-204.3,608.6-209.7,609.6-215.4,609.7z"/>
<path d="M-232.8,613.8c2.2,2.2,11.5,3.5,17.1,2.8l-0.1-1.1c-5.6,0.6-14.3-0.7-16.1-2.5L-232.8,613.8z"/>
<path d="M-237.1,616.2c2.6,1.9,7.7,4.6,10.3,4.5v-1.1c-2.1,0.1-7-2.3-9.6-4.2L-237.1,616.2z"/>
<path d="M-241.7,618.3c2.7,3.3,7.9,5,12.6,4.3l-0.2-1.1c-4.3,0.7-9.1-0.9-11.6-3.9L-241.7,618.3z"/>
<path d="M-237.7,623.5l0.6,0.9c0.6,0.9,1.2,1.9,1.8,2.7l0.9-0.7c-0.5-0.7-1.2-1.7-1.7-2.6l-0.6-0.9L-237.7,623.5z"/>
<path d="M-241.1,624.2l0.5,1.2c0.3,0.8,0.7,1.6,1.1,2l0.8-0.8c-0.3-0.3-0.6-1-0.9-1.7l-0.6-1.3L-241.1,624.2z"/>
<path d="M-245.4,625l0.4,1c0.5,1.3,0.6,1.7,0.8,1.9l0.9-0.7c-0.1-0.2-0.4-1-0.6-1.6l-0.4-1.2L-245.4,625z"/>
<rect x="-250.7" y="626.8" transform="matrix(-0.4702 -0.8826 0.8826 -0.4702 -920.3507 702.2307)" width="2.7" height="1.1"/>
<path d="M-221.5,598.5c-2.9,0.1-5.4-1.5-8.4-3.3l-0.6,1c3.1,1.9,5.8,3.5,9,3.4c2.3-0.1,5.4-2.2,6.3-4.5l-1.1-0.4
	C-217,596.6-219.6,598.5-221.5,598.5z"/>
<path d="M-236,598.6l0.3,0.2c3.7,2.1,8.7,4.9,13.3,0.9l-0.8-0.9c-4,3.5-8.4,1-12-1l-0.3-0.2L-236,598.6z"/>
<path d="M-242.6,600.3c2.3,1.5,4.1,2.8,6.8,2.8c1.7,0.1,3.5-0.1,5.1-2l-0.9-0.7c-1.3,1.5-2.7,1.6-4.2,1.6c-2.3-0.1-3.8-1-6.2-2.7
	L-242.6,600.3z"/>
<path d="M-246.7,602.6c1.1,1,4.2,2.3,6.9,2.2c1.6,0,2.9-0.7,3.5-1.8l-1-0.6c-0.5,0.8-1.3,1.2-2.6,1.2c-2.3,0.1-5.2-1.1-6.1-1.9
	L-246.7,602.6z"/>
<path d="M-244.7,606.3c-1.3,0-2.9-0.5-4.8-1.6l-0.6,1c2,1.2,3.9,1.8,5.4,1.8c1.9,0,3.3-0.9,4.3-2.6l-1-0.5
	C-242.1,605.7-243.2,606.3-244.7,606.3z"/>
<path d="M-247.3,608.9c-1.2,0.1-2.7-0.2-3.9-0.8l-0.5,1c1.5,0.7,3.1,1,4.5,0.9c1.9-0.2,3.3-1.1,4.1-2.7l-1-0.5
	C-244.7,608.1-245.8,608.8-247.3,608.9z"/>
<path d="M-250.3,612.6c-1.2,0-2.8-0.4-4.9-1.4l-0.5,1c2.3,1.1,4,1.6,5.4,1.5c2.4,0,3.6-1.6,4.5-3.2l-1-0.6
	C-247.8,611.8-248.8,612.6-250.3,612.6z"/>
<rect x="-254.3" y="627.4" width="1.1" height="0.7"/>
<path d="M-253.5,615.3c-1.1,0.1-2.5-0.3-3.4-0.9l-1.2-0.8l0.3,1.4c0.2,0.8,0.1,1.5-0.2,2c-0.2,0.3-0.5,0.5-0.8,0.6
	c-0.6,0.1-1.3-0.2-2-0.8l-0.8,0.8c1.2,1.1,2.3,1.2,3,1.1c0.7-0.1,1.2-0.5,1.6-1.1c0.3-0.5,0.5-1.1,0.5-1.7c1,0.4,2.2,0.7,3.2,0.6
	c1.6-0.1,2.8-1,3.4-2.4l-1-0.5C-251.5,614.7-252.3,615.3-253.5,615.3z"/>
<path d="M-278.6,637.3c0,1.7,0.6,3.2,1.7,4.2l0.8,0.7l0.2-1.1c0.1-0.6,0.2-1.2,0.6-1.9c0.3,0.3,0.6,0.6,0.9,1l0.5,0.7l0.8-1.4
	c0.5-0.8,1-1.8,2.1-2.5c0.7,0.4,1.7,1.3,2.3,1.9l1.2,1.1l0.3-0.7c0.6-1.1,1.3-1.8,2.1-2.4c0.2,0.1,0.5,0.3,0.5,0.3l0.7-0.9l-1.2-0.7
	l-0.3,0.3c-0.7,0.5-1.6,1.2-2.3,2.4l-0.1-0.1c-0.8-0.8-2-1.9-2.9-2.3l-0.3-0.2l-0.2,0.1c-1.5,0.9-2.2,2.1-2.8,3
	c-0.3-0.4-0.7-0.7-1.1-1l-0.5-0.4l-0.3,0.5c-0.4,0.7-0.7,1.3-0.8,1.8c-0.4-0.7-0.7-1.6-0.7-2.5v-0.1c0-1.9,0.8-3.7,1.4-4.2l-0.8-0.8
	C-277.8,633-278.7,635.1-278.6,637.3z"/>
<path fill="#ECB731" d="M-307.1,654.5c-0.1-1,0.7-3,2.2-3.6c-0.1,0.6,0,1.5,0.3,2.1C-305.5,653.1-306.5,653.8-307.1,654.5
	L-307.1,654.5z"/>
<path d="M-305.1,650.3c-1.8,0.7-2.7,2.9-2.6,4.2l0.1,1.2l0.9-0.9c0.5-0.5,1.4-1.2,2.2-1.3l0.8-0.2l-0.4-0.7
	c-0.2-0.4-0.3-1.2-0.2-1.8l0.1-0.9L-305.1,650.3z M-305.5,651.9c0,0.2,0.1,0.5,0.1,0.7c-0.3,0.1-0.6,0.3-0.9,0.4
	C-306,652.6-305.8,652.2-305.5,651.9z"/>
<path fill="#ECB731" d="M-296.3,659.9c-1-0.4-2-1.6-1.5-3.1c0.6-0.1,1.4-0.2,2,0C-296,657.8-296.4,659-296.3,659.9L-296.3,659.9z"/>
<path d="M-297.9,656.2l-0.3,0.1l-0.1,0.3c-0.6,1.7,0.5,3.2,1.8,3.8l0.9,0.4l-0.1-1c-0.1-0.6,0.2-1.6,0.4-2.4l0.3-1l-0.5-0.2
	C-296.3,656-297.2,656.1-297.9,656.2z M-296.4,657.3c-0.1,0.5-0.3,1-0.3,1.5c-0.3-0.3-0.5-0.8-0.5-1.3c0-0.1,0-0.2,0-0.2
	C-297,657.3-296.7,657.3-296.4,657.3z"/>
<path fill="#ECB731" d="M-283.8,651.1c-0.1-1.3-1.8-2.5-2.9-2.5c0.1,0.6,0,1.2,0,1.8C-285.7,650.6-284.5,650.8-283.8,651.1
	L-283.8,651.1z"/>
<path d="M-286.7,648.1h-0.7l0.1,0.7c0.1,0.4,0.1,0.8,0,1.3v1h0.5c0.9,0.1,2.1,0.4,2.7,0.6l0.9,0.4l-0.1-1
	C-283.4,649.5-285.3,648.1-286.7,648.1z M-286.1,649.4L-286.1,649.4c0.4,0.1,0.8,0.4,1.2,0.8c-0.4-0.1-0.8-0.2-1.2-0.2
	C-286.1,649.8-286.1,649.6-286.1,649.4z"/>
<polygon points="-294.5,644.3 -294.5,645.4 -292.5,645.4 -291.2,645.4 -291.2,644.3 -292.5,644.3 "/>
<rect x="-293" y="641.3" transform="matrix(-1.840112e-02 -0.9998 0.9998 -1.840112e-02 -940.5052 362.243)" width="1.1" height="3"/>
<path d="M-290.9,640.3l-2.6,0.1v1.1l2.9-0.1l0.5-0.8C-290.1,640.3-290.4,640.3-290.9,640.3z"/>
<path d="M-299.3,649.2c-0.9,0.2-1.7,0.3-2.6,0.4c0.1,0.1,0.2,0.2,0.3,0.2l0,0l0.1,1.4l0,0c0.6,0.2,0.5-0.6,1.1-0.6l0,0l1.1-0.3l0,0
	C-299.3,650.2-299.3,649.7-299.3,649.2L-299.3,649.2z M-301.4,652.6c0.5-0.1,1-0.4,1.6-0.7v-0.1c-0.5,0-1.2,0.2-1.5,0.4
	C-301.3,652.2-301.3,652.4-301.4,652.6L-301.4,652.6z M-299.7,652c-0.8,0.6-1.4,1.3-1.7,2.2c0.7,0,1.6,0,2.1,0.3
	C-299.1,653.8-299.6,652.7-299.7,652L-299.7,652z M-297.1,653.7c-0.2,0.7-0.4,1.3-0.6,1.9l0,0l1.1-0.5l0,0c0.1-0.3,1-1.5,1.4-1.5
	C-295.4,653.5-296.4,653.6-297.1,653.7L-297.1,653.7z M-287.5,648.4c-1.4-0.3-1.5-1.1-3.2-1.9c0.2,1.8,1.1,3,3.1,3
	C-287.5,649.2-287.5,648.8-287.5,648.4L-287.5,648.4z"/>
<path fill="#ECB731" d="M-270,637c0.1,3.3,0.7,8.5,3.6,10.6c2.5,1.8,4.4,1.2,6.1,2.8l0,0l-0.1,1.8l0,0c-3.1-1-1.9-0.1-4.4-0.8
	c1.9,1.3,2.5,1.4,2.7,3.6c-0.7,0.2-1.1,0.8-1.6,1.1c-0.9-0.9-2.5-1.4-3.8-3.4c0.2,1.6,0.4,3.1,0.4,4.6c-0.7-0.1-1.3-0.1-2,0
	c-0.6-1.3-1.9-4.1-1.9-5.5c-1.7,0-1.8-1.8-3.4-2.1c-0.7-0.1-1.8,0.4-2.8,0.3c-0.1-0.7,0-1.4,0-2c1.8-0.6,2.3-1.7,4.5-2.7
	c0.8-1.7,0.1-3.9-0.4-6.8c0.5-1,1.2-1.5,2.1-2.2C-270.8,636.4-270.2,636.8-270,637L-270,637z"/>
<path d="M-271.4,635.8l-0.3,0.3c-0.7,0.6-1.4,1.1-1.9,2.1l-0.1,0.2l0.3,1.5c0.3,1.4,0.5,2.6,0.5,3.6c0,0.5-0.1,1-0.2,1.4
	c-0.9,0.5-1.6,1-2.1,1.4c-0.7,0.5-1.2,0.9-2,1.2l-0.4,0.1v1v2h0.5c0.6,0.1,1.2,0,1.8-0.2c0.4-0.1,0.8-0.2,1-0.1
	c0.6,0.1,0.9,0.4,1.3,0.9c0.4,0.4,0.9,1,1.7,1.1c0.2,1.4,1,3.3,1.8,5l0.3,0.7l0.4-0.1c0.6-0.1,1.1-0.1,1.8,0l0.7,0.1v-0.7
	c0-0.9-0.1-1.8-0.2-2.8c0.5,0.5,1,0.9,1.5,1.2c0.4,0.3,0.8,0.5,1.1,0.8l0.4,0.4l0.3-0.3l0.6-0.5c0.3-0.3,0.5-0.5,0.8-0.5l0.5-0.1
	l-0.1-0.5c-0.1-1.5-0.5-2.1-1.1-2.7c0.3,0,0.8,0.1,2.1,0.5l0.7,0.2l0.2-2.8l-0.2-0.2c-1-0.9-2-1.2-3.1-1.4c-1-0.3-2-0.5-3.1-1.4
	c-2.6-1.9-3.3-6.5-3.4-10.1v-0.3l-0.5-0.4l-1.2-0.8L-271.4,635.8z M-271,637L-271,637c0.2,0.1,0.4,0.3,0.4,0.3s0,0,0.1,0.1
	c0.1,3.8,0.9,8.7,3.8,10.7c1.3,0.9,2.5,1.3,3.5,1.5c0.9,0.2,1.6,0.5,2.4,1c0,0.2,0,0.4-0.1,0.8c-1.2-0.4-1.7-0.3-2.1-0.3
	c-0.3,0-0.6,0-1.7-0.3l-3.4-1l3.6,2.5c1.1,0.8,1.5,1,1.6,2.3c-0.3,0.2-0.6,0.4-0.9,0.6l-0.1,0.1c-0.3-0.2-0.5-0.4-0.8-0.6
	c-0.8-0.5-1.7-1.1-2.4-2.4l-1.3-2.2l0.4,3.9c0.1,0.9,0.2,1.8,0.2,2.6c-0.3,0-0.7,0-1,0c-0.6-1.3-1.7-3.7-1.7-4.9v-0.6h-0.6
	c-0.6,0-0.9-0.3-1.4-0.8c-0.4-0.5-1-1.1-1.9-1.2c-0.5-0.1-0.9,0-1.4,0.1c-0.3,0.1-0.6,0.1-0.9,0.1c0-0.4,0-0.8,0-0.8s0-0.1,0-0.2
	c0.8-0.3,1.4-0.8,2-1.2c0.6-0.5,1.2-0.9,2.2-1.4l0.2-0.1l0.1-0.2c0.3-0.6,0.4-1.3,0.4-2.1c0-1.1-0.3-2.4-0.6-3.8
	c0,0-0.2-0.8-0.2-1.1C-272.1,637.8-271.7,637.5-271,637z"/>
<path fill="#ECB731" d="M-261.8,658.4c0.4-0.6,0.7-2.5-0.1-3.6c-0.5,0.2-1.4,0.9-1.8,1.3C-263.1,656.6-262.3,657.5-261.8,658.4
	L-261.8,658.4z"/>
<path d="M-262.1,654.2c-0.6,0.2-1.6,1-2,1.5l-0.4,0.4l0.4,0.4c0.3,0.3,1.3,1.3,1.8,2.2l0.5,0.8l0.5-0.8c0.6-0.9,0.8-3-0.1-4.3
	l-0.3-0.4L-262.1,654.2z M-262.1,655.5c0.1,0.3,0.2,0.7,0.2,1c0,0.2,0,0.3-0.1,0.5c-0.3-0.3-0.6-0.7-0.8-1
	C-262.6,655.9-262.4,655.7-262.1,655.5z"/>
<path fill="#ECB731" d="M-257.9,653.9c0.1-1-0.7-3-2.2-3.6c0,0.6-0.1,1.2-0.3,1.8C-259.5,652.4-258.5,653.4-257.9,653.9
	L-257.9,653.9z"/>
<path d="M-260.6,650.2c0,0.6-0.1,1.1-0.2,1.7l-0.2,0.5l0.5,0.2c0.5,0.2,1.2,0.8,1.7,1.2l1.4,1.2l0.1-1.1c0.1-1.3-0.8-3.5-2.6-4.2
	l-0.7-0.3L-260.6,650.2z M-259.6,651.2c0.4,0.3,0.6,0.7,0.8,1.1c-0.3-0.2-0.6-0.4-0.9-0.6C-259.6,651.6-259.6,651.4-259.6,651.2z"/>
<path fill="#ECB731" d="M-268.5,660.1c1-0.4,2-1.6,1.5-3.1c-0.6-0.1-1.4-0.2-2,0C-268.8,658.1-268.4,659.2-268.5,660.1L-268.5,660.1
	z"/>
<path d="M-269.2,656.5l-0.5,0.2l0.3,0.9c0.2,0.8,0.5,1.8,0.4,2.4l-0.1,1l0.9-0.4c1.3-0.6,2.4-2.1,1.8-3.8l-0.1-0.3l-0.3-0.1
	C-267.5,656.3-268.5,656.2-269.2,656.5z M-267.5,657.5c0,0.1,0,0.2,0,0.2c0,0.5-0.2,0.9-0.5,1.3c-0.1-0.5-0.2-1-0.3-1.5
	C-268.1,657.5-267.8,657.5-267.5,657.5z"/>
<path fill="#ECB731" d="M-279.6,651c-0.1-1.3,1.3-3,2.5-3c-0.1,0.6,0,1.2,0,1.8C-278.1,650.1-278.9,650.6-279.6,651L-279.6,651z"/>
<path d="M-279.1,648.5c-0.7,0.8-1.1,1.8-1.1,2.6l0.1,0.9l1-0.6c0.6-0.4,1.3-0.8,2.1-1l0.4-0.1v-0.9c0-0.4,0-0.8,0-1.3l0.1-0.7h-0.7
	C-277.8,647.5-278.5,647.8-279.1,648.5z M-278.3,649.3c0.2-0.2,0.4-0.3,0.6-0.4l0,0c0,0.2,0,0.4,0,0.6l0,0c-0.3,0.1-0.7,0.2-1,0.4
	C-278.6,649.7-278.4,649.5-278.3,649.3z"/>
<polygon points="-270.9,643.7 -272.3,643.7 -272.4,644.8 -270.9,644.8 -268.9,644.8 -268.9,643.7 "/>
<rect x="-271.3" y="641.1" transform="matrix(-2.949792e-02 -0.9996 0.9996 -2.949792e-02 -921.008 390.8541)" width="1.1" height="2.9"/>
<path d="M-272.8,640.5l0.4,1c0.2,0,2.2-0.2,2.7-0.2v-1.1C-269.7,640.2-272.5,640.2-272.8,640.5z"/>
<path d="M-264.6,648.9c0.9,0.2,1.9,0.4,2.7,0.5c-0.6,0.6-0.6-0.1-0.6,1c-0.6,0.2-0.5-0.2-1.1-0.2l0,0l-1.1-0.3l0,0
	C-264.7,649.8-264.6,649.4-264.6,648.9L-264.6,648.9z M-264.8,651.4c0.8,0.6,2.1,1.9,2.4,2.8c-0.7,0-1.4-0.2-1.9,0
	C-264.1,652.6-265.3,652.8-264.8,651.4L-264.8,651.4z M-267.9,653.8c0.2,0.7,0.4,1.3,0.6,1.9l0,0l-1.1-0.5l0,0
	c-0.1-0.3-0.5-1.5-1-1.5C-269.2,653.6-268.5,653.7-267.9,653.8L-267.9,653.8z M-276.1,647.6c1.4-0.3,1.5-1.1,3.2-1.9
	c-0.2,1.8-1.1,3-3.1,3C-276.1,648.4-276.1,648-276.1,647.6L-276.1,647.6z"/>
<path d="M-287,669h0.4c0.4,0,0.7,0.1,0.9,0.2c0.1,0.1,0.2,0.3,0.2,0.5s-0.1,0.4-0.3,0.4c-0.2,0.1-0.5,0.1-0.9,0.1h-0.4L-287,669z
	 M-287.1,673.8c0.7,0.1,1.3,0.1,1.6,0c0.3,0,0.6-0.1,0.8-0.2c0.3-0.1,0.5-0.3,0.7-0.5s0.3-0.5,0.3-0.8c0-0.4-0.1-0.8-0.3-1.1
	c-0.2-0.3-0.6-0.5-1.1-0.5c0.4-0.1,0.7-0.2,0.9-0.4c0.2-0.2,0.3-0.5,0.3-0.8s0-0.5-0.1-0.7c-0.1-0.2-0.3-0.4-0.5-0.5
	c-0.2-0.1-0.5-0.2-0.7-0.3c-0.3-0.1-0.8-0.1-1.6-0.2l-1.8-0.1l-0.4,6L-287.1,673.8z M-287.1,671.3h0.7c0.4,0,0.7,0.1,0.9,0.2
	c0.2,0.1,0.2,0.3,0.2,0.5s-0.1,0.4-0.3,0.5c-0.2,0.1-0.5,0.1-0.9,0.1h-0.6V671.3z"/>
</svg>
