<?xml version="1.0" encoding="utf-8"?>
<!-- Generator: Adobe Illustrator 19.1.0, SVG Export Plug-In . SVG Version: 6.00 Build 0)  -->
<svg version="1.1"
	 id="svg7770" sodipodi:docname="Borussia_Dortmund_Logo.svg" inkscape:version="0.48.1 " xmlns:inkscape="http://www.inkscape.org/namespaces/inkscape" xmlns:dc="http://purl.org/dc/elements/1.1/" xmlns:rdf="http://www.w3.org/1999/02/22-rdf-syntax-ns#" xmlns:sodipodi="http://sodipodi.sourceforge.net/DTD/sodipodi-0.dtd" xmlns:svg="http://www.w3.org/2000/svg" xmlns:cc="http://creativecommons.org/ns#"
	 xmlns="http://www.w3.org/2000/svg" xmlns:xlink="http://www.w3.org/1999/xlink" x="0px" y="0px" viewBox="155.7 13 766.9 768"
	 enable-background="new 155.7 13 766.9 768" xml:space="preserve">
<sodipodi:namedview  inkscape:pageshadow="2" inkscape:window-width="1152" inkscape:current-layer="g22517" inkscape:pageopacity="0" inkscape:window-x="-4" inkscape:window-y="-4" inkscape:window-height="804" inkscape:window-maximized="1" gridtolerance="10" showgrid="false" bordercolor="#666666" pagecolor="#ffffff" guidetolerance="10" objecttolerance="10" inkscape:zoom="0.34244792" id="namedview3004" inkscape:cx="499.85389" inkscape:cy="549.18875" borderopacity="1">
	</sodipodi:namedview>
<g>
	<g>
		<g id="g22511" transform="matrix(0,-1.25,-1.25,0,77.2825,78.187494)">
			<g id="g22517">
				<g id="g22525" transform="translate(40.481995,61.871994)">
				</g>
				<g id="g3825">
					<path id="path22527" inkscape:connector-curvature="0" fill="#FDE100" d="M-265.5-62.7c169.7,0,317.6-136.7,317.6-306.4
						S-85.4-676.2-255.1-676.2S-562.3-538.7-562.3-369S-435.1-62.7-265.5-62.7"/>
					<g id="g22529" transform="translate(40.481995,59.645004)">
						<path id="path22531" inkscape:connector-curvature="0" fill="#231F20" d="M-2.9-428.7c0,161.5-131.2,292.3-292.7,292.3
							S-588-267.2-588-428.7S-457.2-721-295.7-721S-2.9-590.3-2.9-428.7z M-19.3-428.7c0-152.5-123.8-276-276.3-276
							s-276,123.4-276,276c0,152.5,123.4,276.3,276,276.3S-19.3-276.2-19.3-428.7z M-63.9-337.2l-232.5-75.2v-32.4l232.5-74.1v45.2
							l-155.2,45.2l155.2,44.9C-63.9-383.6-63.9-337.2-63.9-337.2z M-178.3-221h-229.3v-72c0-58.3,70.6-87.9,114.1-47.3
							c0,0,0.1,0,0.3,0c0.2,0,0.3-0.3,0.3-0.3c38-33.7,105.1-19.5,114.5,43.2v76.4H-178.3z M-178.3-518.9h-229.3v-72.4
							c0-58.3,70.6-87.9,114.1-47.3c0,0,0.1,0,0.3,0c0.2,0,0.3-0.3,0.3-0.3c38-33.7,105.1-19.5,114.5,43.2v76.8H-178.3z
							 M-221.2-263.1v-35.5c0-23-44.1-27.7-51.2-1.4v36.9H-221.2z M-221.2-561.7v-35.1c0-23-44.1-27.8-51.2-1.4v36.5H-221.2
							L-221.2-561.7z M-313.4-263.1v-31.3c0-26-47.3-35.5-53.9-1.7v33.1h53.9V-263.1z M-313.4-561.7v-31c0-26-47.3-35.5-53.9-1.7
							v32.7L-313.4-561.7L-313.4-561.7z M-412.6-383.5c0,18.6-15.2,33.8-33.8,33.8h-50.8c-18.6,0-33.8-15.2-33.8-33.8v-0.7
							c0-18.6,15.2-33.8,33.8-33.8h50.8c18.6,0,33.8,15.2,33.8,33.8L-412.6-383.5L-412.6-383.5z M-412.6-472.9
							c0,18.6-14.5,34.5-33.1,34.5h-8.4c-18.6,0-33.6-17-34.1-34.5c0,0,0.1-7.1,2.1-10.8l-11.5-0.3c-5.8,0-10.9,4.7-10.8,10.4
							c0.1,4.7,2.5,11.1,8.4,11.1c0,0,7.7-1,7.7,4.5v19.5c-1.9,0.1-3,0-5.6,0c-17.6,0-33.1-15.1-33.1-35.5
							c0.2-19.3,15-32.7,34.1-32.7h50.8c18.6,0,33.4,14.5,33.4,33.1v0.7H-412.6z M-436.6-473.3c0-6.1-4.6-10.8-10.4-10.8h-6.6
							c-5.8,0-10.4,4.6-10.4,10.4c0,6.1,4.6,11.1,10.4,11.1h6.6C-441.2-462.5-436.6-467.5-436.6-473.3z M-436.9-383.5
							c0-6.2-4.6-11.1-10.4-11.1h-50.5c-5.8,0-10.4,5-10.4,10.8c0,6.1,4.6,10.8,10.4,10.8h50.5
							C-441.5-373.1-436.9-377.7-436.9-383.5z"/>
					</g>
				</g>
			</g>
		</g>
	</g>
</g>
</svg>
