<?xml version="1.0" encoding="utf-8"?>
<!-- Generator: Adobe Illustrator 19.1.0, SVG Export Plug-In . SVG Version: 6.00 Build 0)  -->
<svg version="1.1"
	 id="Layer_1" sodipodi:docname="Chelsea_FC.svg" inkscape:version="0.47 r22583" xmlns:inkscape="http://www.inkscape.org/namespaces/inkscape" xmlns:dc="http://purl.org/dc/elements/1.1/" xmlns:rdf="http://www.w3.org/1999/02/22-rdf-syntax-ns#" xmlns:sodipodi="http://sodipodi.sourceforge.net/DTD/sodipodi-0.dtd" xmlns:svg="http://www.w3.org/2000/svg" xmlns:cc="http://creativecommons.org/ns#"
	 xmlns="http://www.w3.org/2000/svg" xmlns:xlink="http://www.w3.org/1999/xlink" x="0px" y="0px" viewBox="-400 585.1 209.5 209.4"
	 enable-background="new -400 585.1 209.5 209.4" xml:space="preserve">
<defs>
	
	
		<inkscape:perspective  inkscape:persp3d-origin="237.67551 : 158.45034 : 1" inkscape:vp_x="0 : 237.67551 : 1" inkscape:vp_y="0 : 1000 : 0" sodipodi:type="inkscape:persp3d" inkscape:vp_z="475.35101 : 237.67551 : 1" id="perspective3563">
		</inkscape:perspective>
</defs>
<sodipodi:namedview  inkscape:pageshadow="2" inkscape:window-width="1280" inkscape:current-layer="Layer_1" inkscape:pageopacity="0" inkscape:window-x="-4" inkscape:window-y="-4" inkscape:window-height="710" inkscape:window-maximized="1" gridtolerance="10" showgrid="false" bordercolor="#666666" pagecolor="#ffffff" guidetolerance="10" objecttolerance="10" inkscape:zoom="1" id="namedview3557" inkscape:cx="104.73836" inkscape:cy="104.73836" borderopacity="1">
	</sodipodi:namedview>
<path id="path3381" fill="#DBA111" d="M-190.5,689.8c0,57.8-46.9,104.7-104.8,104.7c-57.8,0-104.7-46.9-104.7-104.7
	s46.9-104.7,104.7-104.7C-237.4,585-190.5,631.9-190.5,689.8"/>
<path id="path3383" fill="#034694" d="M-194,689.8c0,55.9-45.3,101.2-101.2,101.2s-101.2-45.3-101.2-101.2s45.2-101.3,101.1-101.3
	C-239.3,588.5-194,633.8-194,689.8"/>
<path id="path3385" fill="#DBA111" d="M-223.1,689.8c0,39.8-32.3,72.1-72.2,72.1s-72.2-32.3-72.2-72.1c0-39.9,32.3-72.2,72.2-72.2
	S-223.1,649.9-223.1,689.8"/>
<path id="path3387" fill="#FFFFFF" d="M-225.3,689.8c0,38.6-31.3,70-70,70c-38.6,0-70-31.3-70-70c0-38.6,31.3-70,70-70
	S-225.3,651.1-225.3,689.8"/>
<path id="path3389" fill="#DBA111" d="M-355.2,750.1c0.8,0.7,2.7,2.6,2.7,2.6l1.8-1.9l-5.4-5.2l-0.7,0.7l-7.3,7.7l2.8,2.6
	c0,0,2.3-2.5,3.2-3.4c0.7,0.7,2.4,2.3,2.4,2.3l1.8-1.9c0,0-1.7-1.6-2.4-2.3C-355.9,750.8-355.7,750.6-355.2,750.1"/>
<path id="path3391" fill="#DBA111" d="M-342.1,758.9c-0.2-1.5-1.1-2.8-2.3-3.7c-1.2-0.9-2.7-1.2-4.2-1c-1.6,0.3-3,1.2-4,2.6
	c-1,1.4-1.4,3.1-1.1,4.6c0.2,1.5,1.1,2.8,2.3,3.6c1.2,0.9,2.7,1.2,4.2,1c1.6-0.3,3-1.2,4-2.6c0.8-1.1,1.2-2.4,1.2-3.7
	C-342,759.5-342,759.2-342.1,758.9 M-349.9,763c-1.3-0.9-0.2-2.8,0.5-3.8s2.2-2.7,3.4-1.8c1.3,0.9,0.1,3-0.5,3.8
	C-347,762.1-348.6,763.9-349.9,763z"/>
<path id="path3393" fill="#DBA111" d="M-333.5,761.8c-2.9-1.5-6.3-0.3-7.9,2.8c-0.8,1.5-0.9,3.2-0.4,4.8c0.5,1.4,1.5,2.6,2.8,3.3
	c1.4,0.7,2.9,0.8,4.3,0.3c1.5-0.5,2.8-1.6,3.6-3.2C-329.5,766.7-330.6,763.3-333.5,761.8 M-336.8,770.4c-0.3,0.1-0.7,0.1-1-0.1
	c-0.6-0.3-0.8-0.8-0.8-1.4c0-0.8,0.4-1.8,0.7-2.4c0.6-1.1,1.8-2.9,3.1-2.2c0.4,0.2,0.6,0.4,0.7,0.8c0.2,0.7,0,1.9-0.6,3.1
	C-335.3,769.3-336.1,770.1-336.8,770.4z"/>
<path id="path3395" fill="#DBA111" d="M-327.5,766l-0.5,1.5c0,0,1.4,0.5,1.8,0.6c-0.5,1.5-3,8.5-3,8.5l3.6,1.3c0,0,2.4-6.9,3-8.4
	c0.4,0.1,1.8,0.6,1.8,0.6l0.9-2.5l-7.2-2.5L-327.5,766"/>
<path id="path3397" fill="#DBA111" d="M-312.5,769.4l-4.9-1l-0.2,1l-2.2,10.4l5,1.1c1.6,0.3,2.6-0.1,3.2-0.4
	c0.8-0.5,1.3-1.3,1.5-2.3c0.1-0.3,0.1-0.5,0.1-0.8c0-0.7-0.2-1.3-0.6-1.9c0.6-0.4,1-1.1,1.1-1.9c0-0.2,0.1-0.4,0.1-0.7
	C-309.4,771.5-310.2,769.9-312.5,769.4 M-313.8,777.3c-0.1,0.2-0.1,0.6-0.3,0.7c-0.2,0.1-0.5,0.1-0.9,0c0,0-0.2,0-0.4-0.1
	c0.2-0.7,0.3-1.2,0.4-2c0.2,0.1,0.5,0.1,0.5,0.1c0.6,0.1,0.8,0.6,0.8,1C-313.8,777.1-313.8,777.2-313.8,777.3L-313.8,777.3z
	 M-314.1,771.7c0.4,0.1,0.7,0.3,0.9,0.4c0.1,0.1,0.1,0.2,0.1,0.3c0,0.1,0,0.2,0,0.3c-0.1,0.3-0.2,0.7-1,0.6c0,0-0.1,0-0.2-0.1
	C-314.3,772.7-314.3,772.4-314.1,771.7L-314.1,771.7z"/>
<path id="path3399" fill="#DBA111" d="M-303.5,771.1l-5.3,10.9l3,0.2c0,0,0.8-1.7,1.1-2.4c0.6,0.1,1.3,0.1,1.9,0.1
	c0.2,0.7,0.8,2.6,0.8,2.6l4,0.3l-4.5-14L-303.5,771.1"/>
<path id="path3401" fill="#DBA111" d="M-291.5,779.7c-0.1-1.6-0.4-8.8-0.4-8.8l-3.8,0.2l0.5,11.6l7.7-0.3l-0.1-2.8
	C-287.7,779.6-290.4,779.7-291.5,779.7"/>
<path id="path3403" fill="#DBA111" d="M-281,778.6c-0.2-1.6-1.4-8.7-1.4-8.7l-1,0.2l-2.8,0.4l1.8,11.5l7.6-1.2l-0.4-2.8
	C-277.2,778-279.9,778.5-281,778.6"/>
<path id="path3405" fill="#DBA111" d="M-259,770.9c0,1-0.6,1.9-1.5,2.2c-0.5,0.2-1,0.2-1.5,0c-0.7-0.3-1.4-1.1-1.8-2.2
	c-0.5-1.2-0.6-2.3-0.3-3c0.2-0.5,0.6-0.9,1.3-1.2c0.7-0.3,1.4,0,2.3,0.5l0.9,0.5l1.4-2.2l-0.8-0.6c-1.5-1-3.4-1.2-5.1-0.6
	c-1.5,0.6-2.7,1.8-3.3,3.2c-0.6,1.5-0.6,3.2,0,4.8c1.2,3,4.7,4.5,7.7,3.3c2.2-0.9,3.4-2.5,3.6-4.8l0.1-1l-2.8-0.2L-259,770.9"/>
<path id="path3407" fill="#DBA111" d="M-250.1,767.7c-0.8-1.4-4.3-7.7-4.3-7.7l-0.9,0.5l-2.5,1.4l5.7,10.1l6.7-3.7l-1.4-2.4
	C-246.8,765.9-249.1,767.2-250.1,767.7"/>
<path id="path3409" fill="#DBA111" d="M-242.7,752.1l-0.8,0.6l-1.4,1.1l4.7,6.4c0.2,0.3,0.2,0.5,0.2,0.6c0,0.3-0.4,0.7-0.7,0.9
	c-0.1,0.1-0.5,0.2-0.8,0.2c-0.2,0-0.4-0.2-0.6-0.4l-4.6-6.3l-3.1,2.3l4.6,6.3c0.7,0.9,1.5,1.5,2.5,1.6c1.1,0.2,2.4-0.2,3.6-1.1
	c2.4-1.8,2.4-4.1,1.3-5.6L-242.7,752.1"/>
<path id="path3411" fill="#DBA111" d="M-228.6,749.8c-0.7-0.7-1.6-1.1-2.5-1c-0.1-0.7-0.3-1.4-0.9-2c-1-1-3.1-1.8-5.1,0.2l-3.6,3.5
	l8.1,8.3l3.6-3.5c1.2-1.1,1.4-2.2,1.4-2.9C-227.5,751.4-227.9,750.5-228.6,749.8 M-234.7,749.5c0.1,0.1,0.3,0.3,0.3,0.5
	s-0.1,0.4-0.4,0.6c0,0-0.1,0.1-0.2,0.2c-0.5-0.5-0.7-0.7-1.1-1.2C-235.3,748.9-234.9,749.2-234.7,749.5L-234.7,749.5z M-232.7,752.4
	c0.7-0.6,1.3-0.1,1.5,0.1s0.4,0.4,0.4,0.6l0,0c0,0.2-0.2,0.5-0.5,0.8c0,0-0.1,0.1-0.3,0.3c-0.5-0.5-0.9-0.9-1.4-1.5
	C-232.9,752.6-232.7,752.4-232.7,752.4L-232.7,752.4z"/>
<path id="path3413" fill="#FFFFFF" d="M-355.2,749c0.3,0.3,2.7,2.6,2.7,2.6l0.8-0.8l-4.3-4.1l-0.2,0.2l-6.8,7.1l1.7,1.6
	c0,0,2.9-3,3.2-3.4c0.3,0.3,2.4,2.3,2.4,2.3l0.8-0.8c0,0-2.1-2-2.4-2.3C-357.2,751.1-355.5,749.3-355.2,749"/>
<path id="path3415" fill="#FFFFFF" d="M-344.8,755.8c-1.1-0.8-2.4-1.1-3.6-0.9c-1.4,0.2-2.6,1.1-3.5,2.3c-0.9,1.2-1.2,2.7-1,4.1
	c0.2,1.3,0.9,2.4,2,3.2c1.1,0.8,2.4,1.1,3.6,0.9c1.4-0.2,2.6-1,3.5-2.3c0.7-1,1.1-2.1,1.1-3.2c0-0.3,0-0.6-0.1-0.8
	C-343,757.7-343.8,756.6-344.8,755.8 M-345.8,761.7c-0.7,1-2.6,3.3-4.5,1.9c-1.9-1.3-0.4-3.9,0.3-4.9s2.6-3.3,4.5-1.9
	C-343.6,758.1-345.1,760.6-345.8,761.7z"/>
<path id="path3417" fill="#FFFFFF" d="M-333.9,762.5c-2.5-1.3-5.5-0.2-6.9,2.5c-0.7,1.4-0.8,2.8-0.4,4.2c0.4,1.2,1.3,2.2,2.5,2.8
	s2.5,0.7,3.7,0.3c1.3-0.4,2.4-1.4,3.1-2.8C-330.4,766.8-331.3,763.8-333.9,762.5 M-338.1,770.9c-2.1-1-1-3.8-0.4-4.9
	c0.6-1.1,2.1-3.6,4.2-2.6c0.5,0.3,0.9,0.7,1.1,1.2c0.4,1.2-0.3,2.8-0.7,3.7c-0.4,0.8-1.3,2.3-2.6,2.7
	C-337.1,771.3-337.6,771.2-338.1,770.9z"/>
<path id="path3419" fill="#FFFFFF" d="M-326.7,766.3l-0.3,0.8c0,0,1.4,0.5,1.8,0.6c-0.2,0.5-3,8.4-3,8.4l2.2,0.8c0,0,2.8-8,3-8.4
	c0.4,0.1,1.8,0.6,1.8,0.6l0.4-1.1l-5.8-2L-326.7,766.3"/>
<path id="path3421" fill="#FFFFFF" d="M-312.6,770.1l-4.1-0.9l-0.1,0.2l-2,9.6l4.2,0.9c1.1,0.2,2,0.1,2.7-0.3c0.6-0.4,1-1,1.2-1.8
	c0-0.2,0.1-0.4,0.1-0.6c0-0.8-0.4-1.6-1.2-2.1c0.9-0.2,1.5-0.9,1.7-1.8c0-0.1,0.1-0.3,0.1-0.5C-310.2,771.9-310.7,770.5-312.6,770.1
	 M-314.1,771c0.7,0.1,1.2,0.4,1.4,0.8c0.1,0.2,0.2,0.5,0.2,0.8c0,0.1,0,0.3-0.1,0.5c-0.3,1.3-1.3,1.3-1.9,1.1c0,0-0.6-0.1-1-0.2
	c0.1-0.4,0.6-2.7,0.6-3.1C-314.5,770.9-314.1,771-314.1,771L-314.1,771z M-314.4,775.3c1.2,0.2,1.4,1.2,1.4,1.7c0,0.2,0,0.4,0,0.4
	c-0.1,0.6-0.3,0.9-0.7,1.1c-0.3,0.2-0.8,0.3-1.5,0.1c0,0-0.8-0.2-1.2-0.2c0.1-0.4,0.6-3.1,0.7-3.5
	C-315.3,775.1-314.4,775.3-314.4,775.3L-314.4,775.3z"/>
<path id="path3423" fill="#FFFFFF" d="M-302.8,771.4l-4.8,9.9l1.4,0.1c0,0,1-2.1,1.2-2.4c0.3,0,2.6,0.2,2.9,0.2
	c0.1,0.3,0.8,2.6,0.8,2.6l2.4,0.2l-3.6-11.1L-302.8,771.4 M-303.3,775.4c0.2,0.7,0.7,2.2,0.8,2.6c-0.5,0-1.6-0.1-2-0.2
	C-304.3,777.4-303.6,776.1-303.3,775.4z"/>
<path id="path3425" fill="#FFFFFF" d="M-292.2,780.5c0-0.5-0.4-8.8-0.4-8.8h-0.2l-2.1,0.1l0.4,10.1l6.1-0.3l-0.1-1.3
	C-288.4,780.4-291.8,780.5-292.2,780.5"/>
<path id="path3427" fill="#FFFFFF" d="M-281.6,779.5c-0.1-0.5-1.4-8.7-1.4-8.7h-0.2l-2,0.3l1.6,10l6.1-1l-0.2-1.2
	C-277.8,778.9-281.2,779.4-281.6,779.5"/>
<path id="path3429" fill="#FFFFFF" d="M-258.3,770.9c0,1.3-0.8,2.4-2,2.9c-0.7,0.3-1.4,0.3-2.1,0c-0.9-0.4-1.8-1.3-2.3-2.6
	c-0.6-1.4-0.6-2.6-0.3-3.6c0.3-0.7,0.9-1.2,1.7-1.6c1.1-0.4,2.1,0.1,3,0.6l0.2,0.1l0.6-1l-0.2-0.1c-1.3-0.9-3-1.1-4.4-0.5
	c-1.3,0.5-2.4,1.5-2.9,2.8c-0.6,1.3-0.6,2.8,0,4.2c1.1,2.7,4.1,4,6.7,2.9c1.9-0.8,2.9-2.1,3.1-4.1v-0.3l-1.2-0.1L-258.3,770.9"/>
<path id="path3431" fill="#FFFFFF" d="M-250.4,768.8c-0.2-0.4-4.3-7.7-4.3-7.7l-0.2,0.1l-1.8,1l4.9,8.8l5.4-3l-0.6-1.1
	C-247,766.9-250,768.6-250.4,768.8"/>
<path id="path3433" fill="#FFFFFF" d="M-242.8,753.2l-0.2,0.2l-0.8,0.6l4.3,5.8c0.3,0.4,0.4,0.8,0.3,1.2c-0.1,0.7-0.7,1.2-1,1.4
	s-0.9,0.4-1.4,0.3c-0.4-0.1-0.8-0.3-1.1-0.7l-4.2-5.7l-1.9,1.4l4.2,5.7c0.6,0.8,1.2,1.2,2,1.3c1.2,0.2,2.4-0.5,3-0.9
	c2-1.5,2-3.3,1.2-4.5L-242.8,753.2"/>
<path id="path3435" fill="#FFFFFF" d="M-229.1,750.3c-0.8-0.8-1.8-1-2.8-0.6c0.1-0.2,0.1-0.5,0.1-0.7c0-0.6-0.2-1.2-0.7-1.7
	c-0.6-0.7-2.3-1.5-4,0.2l-3,2.9l7,7.2l3.1-3c0.8-0.8,1.2-1.6,1.2-2.4C-228.3,751.6-228.5,750.9-229.1,750.3 M-233.6,750
	c0,0.5-0.3,0.9-0.6,1.2c0,0-0.5,0.5-0.7,0.7c-0.3-0.3-1.9-2-2.2-2.3c0.2-0.2,0.5-0.5,0.5-0.5c0.9-0.9,1.8-1,2.5-0.2
	C-233.8,749.3-233.6,749.7-233.6,750z M-231.7,755.3c-0.3-0.3-2.2-2.3-2.5-2.6c0.3-0.2,0.9-0.9,0.9-0.9c1.2-1.2,2.5,0.1,2.5,0.1
	c0.4,0.4,0.6,0.8,0.6,1.2l0,0c0,0.4-0.2,0.9-0.7,1.3C-230.8,754.4-231.4,755-231.7,755.3z"/>
<path id="path3437" fill="#DBA111" d="M-341.8,620.8l-4.2,1.1l0.5,1.5c0.6,1.8,0.1,3.8-1.4,5c-0.8,0.7-1.7,1-2.7,0.9
	c-1.5-0.1-3.3-1.1-4.7-2.7c-1.6-1.9-2.4-3.6-2.3-5.1c0.1-1.1,0.6-2.1,1.6-3c1.1-1,2.6-1,4.5-0.6l1.4,0.3l0.9-4.1l-1.5-0.4
	c-3.1-0.8-6.4,0-8.7,2c-4.6,4-4.9,10.5-0.9,15.2c3.8,4.3,10.4,4.8,14.6,1.1c3.1-2.7,4.2-6.1,3.1-10L-341.8,620.8"/>
<path id="path3439" fill="#DBA111" d="M-330.3,599.5l-4.3,2c0,0,2.4,5.1,3.2,6.9c-1.2,0.6-2.4,1.1-3.7,1.7c-0.8-1.8-3.2-6.9-3.2-6.9
	l-5.7,2.7l8.7,18.4l5.7-2.7c0,0-2.7-5.7-3.6-7.5c1.2-0.6,2.4-1.1,3.7-1.7c0.9,1.8,3.5,7.5,3.5,7.5l5.7-2.7l-8.7-18.4L-330.3,599.5"
	/>
<path id="path3441" fill="#DBA111" d="M-311,610.9c-0.3-1.4-0.6-2.8-0.8-4.1c1.8-0.4,6.4-1.3,6.4-1.3l-0.8-4.1c0,0-4.7,0.9-6.4,1.3
	c-0.3-1.3-0.5-2.3-0.7-3.6c1.8-0.4,6.8-1.4,6.8-1.4l-0.8-4.1l-1.5,0.3l-11.5,2.3l4,19.9l13.1-2.6l-0.8-4.1
	C-304.1,609.5-309.2,610.5-311,610.9"/>
<path id="path3443" fill="#DBA111" d="M-292.4,593.2l-6.3-0.1v1.5l-0.4,18.8l13.2,0.3l0.1-4.4c0,0-5.1-0.1-6.9-0.1
	C-292.7,606.7-292.4,593.2-292.4,593.2"/>
<path id="path3445" fill="#DBA111" d="M-272,603.5c-1.6-1.2-2.1-1.7-1.9-2.3c0.1-0.3,0.5-1.4,1.6-1.1c0.7,0.2,1.4,0.6,1.7,2.1
	l0.3,1.7l4.2-1.4l-0.3-1.3c-0.5-2.6-2.7-4.8-5.4-5.4c-2-0.5-3.9-0.2-5.5,0.7c-1.5,0.9-2.5,2.3-2.9,3.9c-1,4.2,1.8,6.2,3.6,7.5
	c1.9,1.4,2.4,1.9,2.1,3c-0.1,0.4-0.3,0.6-0.6,0.8c-0.4,0.2-0.9,0.3-1.2,0.2c-1-0.2-1.4-0.7-1.9-2l-0.5-1.6l-4.2,1.7l0.4,1.3
	c0.8,2.6,2.7,4.2,5.7,5c3.4,0.9,7.6-0.7,8.6-4.9C-267.1,607.1-270,604.9-272,603.5"/>
<path id="path3447" fill="#DBA111" d="M-257,614.3c1.6,0.8,5.9,3,5.9,3l1.9-3.7c0,0-4.3-2.1-5.9-3c0.6-1.1,1.1-2.1,1.6-3.2
	c1.7,0.8,6.2,3.1,6.2,3.1l1.9-3.7l-11.8-6l-0.7,1.4l-8.5,16.8l11.9,6l1.9-3.7c0,0-4.6-2.3-6.3-3.2
	C-258.2,616.8-257.6,615.6-257,614.3"/>
<path id="path3449" fill="#DBA111" d="M-233.4,616.2l-19,9.8l3.6,3.2c0,0,3.1-1.7,4.3-2.3c0.8,0.7,2.1,1.8,2.9,2.5
	c-0.4,1.2-1.6,4.6-1.6,4.6l5,4.4l8.2-23.9L-233.4,616.2"/>
<path id="path3451" fill="#FFFFFF" d="M-342.5,622l-2.2,0.6l0.2,0.5c0.7,2.2,0.1,4.6-1.7,6.1c-1,0.9-2.2,1.3-3.5,1.2
	c-1.8-0.1-3.8-1.2-5.4-3c-1.8-2.1-2.7-4.1-2.6-5.9c0.1-1.4,0.8-2.6,2-3.7c1.6-1.4,3.6-1.1,5.4-0.8l0.5,0.1l0.5-2.1l-0.5-0.1
	c-2.8-0.7-5.7,0-7.8,1.8c-4.1,3.6-4.5,9.5-0.8,13.8c3.4,3.9,9.3,4.3,13.2,1c2.8-2.5,3.7-5.5,2.8-8.9L-342.5,622"/>
<path id="path3453" fill="#FFFFFF" d="M-329.9,600.4l-3.4,1.6c0,0,2.9,6.1,3.2,6.9c-0.7,0.3-4.8,2.3-5.5,2.6
	c-0.4-0.8-3.2-6.9-3.2-6.9l-3.9,1.8l7.8,16.6l3.9-1.8c0,0-3.2-6.7-3.6-7.5c0.7-0.3,4.8-2.2,5.5-2.6c0.4,0.8,3.6,7.5,3.6,7.5l3.9-1.8
	l-7.8-16.6L-329.9,600.4"/>
<path id="path3455" fill="#FFFFFF" d="M-311.8,612.1c-0.2-0.8-1.1-5.3-1.2-6.1c0.8-0.2,6.4-1.3,6.4-1.3l-0.4-2.1
	c0,0-5.6,1.1-6.4,1.3c-0.2-0.8-1-4.8-1.1-5.5c0.9-0.2,6.8-1.4,6.8-1.4l-0.4-2.1l-11,2.2l3.6,17.9l11.1-2.2l-0.4-2.1
	C-304.9,610.7-311,611.9-311.8,612.1"/>
<path id="path3457" fill="#FFFFFF" d="M-293.5,594.2l-4.3-0.1v0.5l-0.4,17.8l11.2,0.2l0.1-2.4c0,0-6.1-0.1-6.9-0.1
	C-293.8,609.2-293.5,594.2-293.5,594.2"/>
<path id="path3459" fill="#FFFFFF" d="M-272.1,599c1.4,0.3,2.1,1.2,2.5,2.9l0.1,0.6l2.2-0.8l-0.1-0.4c-0.4-2.2-2.3-4.1-4.7-4.7
	c-1.7-0.4-3.4-0.2-4.8,0.6c-1.2,0.7-2.1,1.9-2.5,3.3c-0.9,3.5,1.4,5.1,3.2,6.4c1.8,1.3,3,2.2,2.5,4.1c-0.2,0.8-0.7,1.2-1.1,1.5
	c-0.6,0.4-1.4,0.5-2,0.3c-1.4-0.3-2-1.1-2.6-2.7l-0.2-0.5l-2.3,0.9l0.1,0.4c0.7,2.2,2.3,3.6,5,4.3c3,0.7,6.5-0.6,7.4-4.1
	c0.9-3.7-1.5-5.5-3.5-6.9c-1.7-1.2-2.7-2-2.3-3.4C-274.6,599.7-273.6,598.6-272.1,599"/>
<path id="path3461" fill="#FFFFFF" d="M-253.9,606c0.8,0.4,6.2,3.1,6.2,3.1l1-1.9l-10-5.1l-0.2,0.5l-8,15.9l10.1,5.1l1-1.9
	c0,0-5.5-2.8-6.3-3.2c0.4-0.7,2.4-4.8,2.8-5.6c0.8,0.4,5.9,3,5.9,3l1-1.9c0,0-5.1-2.6-5.9-3C-256.1,610.3-254.2,606.7-253.9,606"/>
<path id="path3463" fill="#FFFFFF" d="M-232.9,617.1l-17.6,9.1l2,1.7c0,0,3.7-2,4.3-2.3c0.4,0.4,3.5,3.1,4,3.5
	c-0.2,0.6-1.6,4.6-1.6,4.6l3.3,2.9l6.8-20.1L-232.9,617.1 M-242.3,624.7c0.8-0.4,3-1.5,4.3-2.2c-0.5,1.4-1.3,3.7-1.6,4.5
	C-240.3,626.4-241.6,625.2-242.3,624.7z"/>
<path id="path3465" fill="#D1D3D4" d="M-245.2,687c-1.4-3.8-6.4-5.5-11.1-3.7c-2,0.7-3.6,2-4.7,3.4c3.1-8.9,15.8-10.8,15.8-19
	c0-13.8-19.6-10-16.8,0c0-4.5,7.2-5.3,7.2,0c0,5.4-12.5,8.9-12.5,17.9c0,10,10,10.9,9,20c-0.2,1.6-1.9,3.6-4.3,3.6
	c-15.3,0-9.8-18.8-15.1-24.5l0.3-3.9c3.1,1.9,11.3-2.5,5.9-9.3c0,3.3-6.9,3.1-6.9-3.1c0-8.5,7.9-4.1,8.3-2.2c-0.4-3.1-0.5-5.1,0-6.8
	c-4.3,1.4-4.7-1.1-4.1-2.1c0.6-1.1,1.4-2.4,3.1-2.4c0.9,0,1.4,0.1,1.8,0.3c0.5,0.4,0.9-0.5,0.8,0.3c0.5-0.7,0.3,0.2,0.7-0.5
	s1.1-1.5,2.1-2.5v-1.6l1.2,0.5l1.2-1.9c-1.3-2.7-3-1.4-4.3-4.7c-1.1-0.3-17.9,1.5-17.4-5.2c-1.4,0-4.6,0.8-2.6,3.5
	c-1.6,0.2-2.7-1.6-5,3.2c2.9-0.6,1.4,2.7,1.4,3.7c0,6.1-8.1,6-8.1,3.1c-2,1.9-0.8,6,2.1,7.1c0,0-1.1,4.4-3.9,7.2
	c-4.1-0.2-10.7-0.9-14.5-4.5c-1.6-1.5-2.9-2.4-4-2.8v-2c1.6-0.8,3.4-2.2,5.2-4.5c1.4-1.8,2.2-4,2-6.4c0-0.3-0.1-0.6-0.1-0.8
	c0-0.1,0-0.2-0.1-0.3c0-0.2-0.1-0.4-0.1-0.6c0-0.1-0.1-0.2-0.1-0.3c-0.1-0.2-0.1-0.4-0.2-0.6c0-0.1-0.1-0.2-0.1-0.2
	c-0.1-0.2-0.2-0.5-0.3-0.7c-0.1-0.1-0.1-0.2-0.2-0.3c-0.1-0.1-0.2-0.3-0.3-0.4c-0.1-0.1-0.1-0.2-0.2-0.3c-0.1-0.1-0.2-0.2-0.2-0.3
	c-0.1-0.1-0.2-0.2-0.3-0.3c-0.1-0.1-0.1-0.1-0.2-0.2c-0.2-0.3-0.5-0.5-0.8-0.7c0,0,0,0-0.1-0.1c-0.2-0.1-0.3-0.3-0.5-0.4l-0.1-0.1
	c-0.2-0.1-0.3-0.2-0.5-0.3l0,0c-1.7-1.1-3.8-1.6-6-1.4c-5.3,0.4-9.3,4.9-8.8,9.9c0.3,3.9,3.2,7.1,7,8.1c-1.3,0.7-2.4,1.2-2.7,1.2
	c0,0,0.1,0.1,0.2,0.1c0,0,0,0,0.1,0c0.1,0,0.1,0.1,0.2,0.1c0,0,0,0,0.1,0c0.1,0,0.2,0.1,0.3,0.1c0,0,0,0,0.1,0
	c0.1,0,0.2,0.1,0.3,0.1h0.1c0.2,0.1,0.5,0.2,0.8,0.3h0.1c0.1,0,0.2,0.1,0.4,0.1h0.1c0.2,0,0.3,0.1,0.5,0.1l0,0v1.1
	c-0.1,0-0.1,0-0.2,0c-1.7,0.3-2.8,0.8-3.4,2.4c-0.5,1.5,0,2.1,0.8,3.2c-0.7,1.2-2.5,1.7-0.1,4.4c-0.2,1,0,2.6,1.5,3.1
	c0.5,0.2,0.9,0.3,1.3,0.3v20.2c-1.5,0.8-2.2,1.8-2.6,2.7c0,0-1.2-2.6-1.1,2.6c1.3-1,0.8,1.2,0.8,1.2c-1.8,2.4,0.5,2.3,0.5,2.3
	c1.6-1.6,1.3,0.7,1.3,0.7c0,2.8,1.1,3.9,1.1,3.9v15.4h-1.3v4.3h2.4c-1.3,0.5-2.2,1.9-2.1,3.3c0.2,1.8,1.8,3.2,3.7,3
	c1.9-0.2,3.3-1.7,3.2-3.6c-0.1-1.3-0.9-2.3-2.1-2.8h2.2v-4.3h-1.3v-13.7c0.3,0.1,0.6,0.2,0.9,0.3c0.1,0,0.2,0,0.4,0
	c0.1,0,0.1,0,0.2,0c-0.3-1.8,0.7-3,0.7-3c0.6-0.8,1.3-1.5,2.3-1.9c2.7-1.4,6.4-1,7.5,1.2c7-1.8,13-8.9,13-8.9l3.5,5.9
	c-7.3,2.4-23.3,16.3-12.2,21.1c0,1.4-0.2,11.8-6.8,10.9c-9.6-1.2-12,2.8-10.1,7.2c-0.9,3.8,2,5.1,2,5.1c-0.4-2.2,0.6-4,4.6-3.9
	c0,4,2.5,4.7,2.5,4.7c0-3.4,2.4-4.6,4.5-4.6c0,2.8,3.2,3.9,3.2,3.9s-0.8-3.2,2.8-3.9c9.3-1.6,0.6-11.2,14.7-13.8c0,0-7-1.1-7-4.9
	c0-3.5,6.4-5.9,8.6-5.9c4.5,8.6,9.4,8.7,10.7,8.7c2,2.2,1.3,9.7-1.6,9.6c-10.5-0.6-10.1,5.8-9,7.1c-0.1,2.5,1.8,3.9,1.8,3.9
	c0-2.7,2.5-3.4,5.8-3.2c-0.2,3.3,1.9,3.7,1.9,3.7c0.1-3.3,2.5-3.8,4.2-3.7c-0.1,2.3,2.1,3,2.1,3s-0.8-2.8,2.2-2.8
	c5.8,0-2.6-12.5,8.7-24.8c-10,4.6-15.3-6.9-15.3-9.1c5.1,6,21.7,7.2,21.7-3c0-9.8-10.7-13.4-5.7-17.2c2.9-2.2,8.7,2.2,5.4,6.8
	C-246.4,695.4-243.8,690.8-245.2,687 M-308.9,687.3c-3.8,2.2-6.3,5-9.7,6.2c-0.5,0.2-0.9,0.2-1.3,0.2v-19.1c0.9,0.1,3.3,0.4,6,1.5
	c2.7,1.5,2.7,4.6-0.7,5.3c2.2,4.2,9.7,2.1,11.4-1.3c0.8-0.1,1.5,1.4,2.2,2.7C-302.1,683.5-304.3,684.6-308.9,687.3z M-266.9,655.7
	c-0.4,0.6-0.8,1.1-1.2,1.6c1,1.6,2.7,2.6,4.7,2.4c2.7-0.3,4.7-2.7,4.5-5.4c0-0.1,0-0.2,0-0.3c-0.3,1.4-1.9,2.6-4.1,2.8
	C-264.6,656.9-266,656.5-266.9,655.7z"/>
<path id="path3467" fill="#034694" d="M-327.6,644.2L-327.6,644.2L-327.6,644.2c0-0.1,0.1-0.2,0.1-0.3
	C-327.5,644-327.5,644.1-327.6,644.2 M-327.4,724.3L-327.4,724.3L-327.4,724.3L-327.4,724.3L-327.4,724.3z M-327.5,636L-327.5,636
	L-327.5,636z M-328.9,723.8h2.4c-0.3,0.1-0.5,0.3-0.8,0.5c0.2-0.1,0.5-0.1,0.7-0.1c1.2,0,2.1,1,2.1,2.1c0,1.2-1,2.1-2.1,2.1
	c-1,0-1.8-0.6-2-1.5v0.2c0.2,1.8,1.8,3.2,3.7,3c1.9-0.1,3.3-1.7,3.2-3.6c-0.1-1.2-0.9-2.3-2.1-2.7h2.2v-4.3h-1.3v-13.7
	c-1.3-0.7-2-2.1-1.7-3.6c0.8,0,1.5,0.2,2,0.5c-0.7,1.6,1.1,3.4,1.1,3.4c-0.3-1.8,0.7-3,0.7-3c0.6-0.8,1.4-1.5,2.3-1.9
	c2.7-1.4,6.4-1,7.5,1.2c7-1.8,13-8.9,13-8.9l3.5,5.9c8.1,0,5.3-6.1,4.7-6.6c1.9,0,4.5,1.4,4.5,4.4c0,7.5-21.7,8.5-21.7,17.6
	c0,3.8,3.8,5.2,3.8,5.2c0,8.2-5.7,13.1-9.5,13.1c-6.2,0-10.9-1.3-10.9,5.5h2.2c-2.1,2.1-0.1,5.1-0.1,5.1c-0.4-2.2,0.6-4,4.6-3.9h2.5
	c-1.6,1.6-0.7,3.9,0.1,4.7c0-3.4,2.4-4.6,4.5-4.6c0.8,0,1.8,0,1.8,0c-0.5,0.5,0.3,2.7,1.4,3.9c0,0-0.8-3.2,2.8-3.9
	c9.3-1.6,0.6-11.2,14.7-13.8c0,0-7-1.1-7-4.9c0-3.5,6.4-5.9,8.5-5.9c1.7-0.2,3.4-0.2,4.8,0.1c0.6,5.5,6.9,5.3,8.3,5.3
	c5.4,5.4-1.4,14.1-1.4,14.1c-8.3,0-11.6,1.1-11.6,6h1.6c-0.9,0.9-0.4,3.3,0.2,3.9c0-2.7,2.5-3.4,5.8-3.2h1.7
	c-0.8,0.8-0.7,2.9,0.2,3.7c0-3.3,2.5-3.8,4.2-3.7h1.4c-0.5,0.5,0,2.2,0.7,3c0,0-0.2-2.9,2.8-2.9c5.8,0-2.6-12.5,8.7-24.8
	c-10,4.6-15.3-6.9-15.3-9.1c5.1,6,21.7,7.2,21.7-3c0-8.3-7.7-12.1-7-15.4c0.2-2.5,2.3-4.5,4.9-4.5c2.7,0,4.9,2.2,4.9,4.9
	c0,2.1-1.3,3.8-3.1,4.5l0,0l0,0c4.7-1.7,7.3-6.3,5.9-10.1c-1.5-3.8-6.4-5.5-11.1-3.7c-2,0.7-3.6,2-4.7,3.4
	c3.1-8.9,15.8-10.8,15.8-19c0-13.8-19.7-10-16.8,0c0-0.1,0-0.3,0-0.4c0.5-5.6,10.6-6.8,10.6,0.6c0,6.3-12.9,9.7-12.9,18.2
	c0,8.7,9.5,10.8,9.5,20c0,1.1-0.6,5.8-6.9,5.8c-6.1,0-9-3.4-10.7-7.9l0,0c-3.1-6-2-15.4-5.5-19.1l0.3-3.9c3.1,1.9,11.3-2.5,5.9-9.3
	c0,3.3-6.9,3.1-6.9-3.1c0-8.5,7.9-4.1,8.3-2.2c-0.4-3.1-0.5-5.1,0-6.8c-4.3,1.4-4.7-1.1-4.1-2.1c0.6-1.1,1.5-2.4,3.1-2.4
	c2.4,0,2.3,0.9,2.1,2.1c0.9-1.4,1.2-2.4,3.3-4.5v-1.6l1.2,0.5l1.2-1.9c-1.3-2.7-3-1.4-4.3-4.7c-1.1-0.3-15.2-1.6-14.7-8.3
	c-1.2,0-4.7,4.3-2.4,6.6c0,0-1.8,0-2.9,0c-1.6,0.2-5.2-0.9-7.6,3.9c5.8-5.8,9.5,8-1.1,8l0,0l0,0c-1.6,0-2.9-0.7-3-1.8
	c-1.1,4.7,5.7,6.1,5.7,6.1c0,1.4-3.4,8.9-5,10.5c1.1,1.1,1.4,7.8-3.7,7.8c1.8-5-3.6-9.2-8.8-12l0,0c-0.9-0.4-1.9-0.8-2.7-1.3
	c-3.2-1.5-5.8-2.3-5.8-2.3v-3.9c1.6-0.8,3.4-2.2,5.2-4.5c1.4-1.8,2.2-4,2-6.4c0-0.3-0.1-0.6-0.1-0.8c0-0.1,0-0.2-0.1-0.3
	c0-0.2-0.1-0.4-0.1-0.6c0-0.1-0.1-0.2-0.1-0.3c-0.1-0.2-0.1-0.4-0.2-0.6c0-0.1-0.1-0.2-0.1-0.2c-0.1-0.2-0.2-0.5-0.3-0.7
	c0-0.1-0.1-0.2-0.2-0.3c-0.1-0.1-0.2-0.3-0.3-0.4c-0.1-0.1-0.1-0.2-0.2-0.3c-0.1-0.1-0.2-0.2-0.2-0.3c-0.1-0.1-0.2-0.2-0.3-0.3
	c-0.1-0.1-0.1-0.1-0.2-0.2c-0.2-0.3-0.5-0.5-0.8-0.7l-0.1-0.1c-0.2-0.1-0.3-0.3-0.5-0.4l-0.1-0.1c-0.2-0.1-0.3-0.2-0.5-0.3l0,0
	c-1.7-1.1-3.8-1.6-6-1.4c-0.5,0-0.9,0.1-1.4,0.2c-3.1,1.2-5.3,4.7-5.3,9c0,4,2,7.4,4.8,8.8h0.1c-1.3,0.7-2.4,1.2-2.7,1.2
	c0,0,0.1,0.1,0.2,0.1l0,0c0.1,0,0.1,0.1,0.2,0.1c0,0,0,0,0.1,0s0.2,0.1,0.3,0.1l0,0c0.1,0,0.2,0.1,0.3,0.1h0.1
	c0.2,0.1,0.5,0.2,0.8,0.3h0.1c0.1,0,0.2,0.1,0.3,0.1h0.1c0.2,0,0.3,0.1,0.5,0.1l0,0c1,0.1,2.2-0.2,2.2-0.2v2.3
	c-0.2,0-1.8-0.5-2.2-0.9c-0.1,0-0.1,0-0.2,0c-1.7,0.3-2.8,0.8-3.4,2.4c-0.5,1.5,0,2.1,0.8,3.2c-0.7,1.2-2.5,1.7-0.1,4.4
	c-0.2,1,0,2.6,1.5,3.1c0.5,0.2,0.9,0.2,1.3,0.3c0.9,0,2.2,0.7,2.2,2.6v17c0.8,0,1.7,0.2,2.5,0.2v-19.1c0.9,0.1,3.3,0.4,6,1.5
	c0,0,0.1,0,0.1,0.1l0,0c0.3,0,0.5,0.1,0.8,0.2c1.8,0.6,3,2.2,2.5,3.6c-0.4,1.4-2.3,2.1-4.1,1.5c2.2,4.2,9.7,2.1,11.4-1.3
	c0.8-0.1,1.5,1.4,2.2,2.7c0,0,1.9,0.7,6.6,0.7c0,0-18.9,12.1-24.4,12.1c-2.3,0-7.5,0-7.5,1.8c-1.4,0-3.5,2.4-3.5,3.8
	c1.3-1.1,2.4-1.1,2.4-1.1c1.1,0,1.8,0.3,1.8,0.3c-0.4,0.4-2.3,2.5-2.3,4.2c1.6-1.6,2.3-1.6,2.3-1.6s1.7-0.2,2.2,0.4
	c-0.4,0.4-1.1,1.8-1.1,3.5c0,0,1-1.9,2.2-1.9v18.2c0,0.6-2.5,1.1-3.5,1.1 M-328.2,668.8c-0.5,0-0.7-0.6-0.7-0.8
	c0-0.2,0.2-0.8,0.6-0.9c1.1,0,3.3,0.5,3.3,0.7C-324.9,668.1-327.1,668.8-328.2,668.8L-328.2,668.8z M-328.9,665.8
	c-0.6,0-0.9-0.9-0.8-1.2c0-0.3,0.4-1.1,1-1.1c1.5,0.1,4.5,1.2,4.5,1.5C-324.3,665.3-327.4,665.9-328.9,665.8z M-329.1,662
	c-0.7-0.2-0.7-1.2-0.7-1.5c0.1-0.3,0.6-1.1,1.3-1c1.6,0.4,4.6,2.2,4.5,2.5S-327.5,662.4-329.1,662L-329.1,662z M-324.1,651.1
	c0.3-0.7,0.2-1.6,0-2.5h-0.1c-2,0-3.5-1.6-3.5-3.5c0-0.3,0-0.7,0.1-1l0,0l0,0c0.4-1.5,1.8-2.6,3.4-2.6c1.9,0,3.5,1.6,3.5,3.5
	C-320.6,647.4-322.2,649.5-324.1,651.1L-324.1,651.1z"/>
<path id="path3469" fill="#ED1C24" d="M-271.1,654.2c0.9,1.6,2.7,2.6,4.7,2.4c2.7-0.3,4.7-2.7,4.5-5.4c0-0.1,0-0.2,0-0.3
	c-0.3,1.4-2,2.6-4.1,2.8c-1.6,0.1-3-0.3-3.9-1.1C-270.3,653.2-270.7,653.8-271.1,654.2"/>
<path id="path3471" fill="#FFFFFF" d="M-277.7,645.1l1.7,0.1l-0.9,1.2C-276.8,646.3-278,646.7-277.7,645.1 M-281.8,645.1h2.5
	c0,0-0.1,2,1.7,2.2l-0.4,0.6C-278,647.9-282.8,646.6-281.8,645.1z"/>
<path id="path3473" fill="#6A7AB5" d="M-324,662c0.1-0.3-2.9-2.1-4.5-2.5c-0.7-0.2-1.2,0.6-1.3,1c-0.1,0.3,0,1.3,0.7,1.5
	C-327.5,662.4-324.1,662.3-324,662 M-324.2,665c0-0.3-2.9-1.4-4.5-1.5c-0.6,0-1,0.8-1,1.1s0.2,1.2,0.8,1.2
	C-327.4,665.9-324.2,665.3-324.2,665z M-327.6,656v1.1c0.4,0.4,2,0.9,2.2,0.9v-2.3C-325.4,655.9-326.6,656.1-327.6,656z
	 M-328.2,667.1c-0.5,0-0.6,0.6-0.6,0.9c0,0.2,0.2,0.8,0.7,0.8c1.1,0,3.3-0.7,3.3-1C-324.9,667.6-327.1,667.1-328.2,667.1z
	 M-330.5,697.3c-1.8,2.4-0.5,4.5-0.5,4.5c0-1.7,1.9-3.8,2.3-4.2C-328.7,697.6-329.4,697.3-330.5,697.3z M-324.7,702.3
	c-0.3,1.5,0.4,2.9,1.7,3.6c0.3,0.1,0.6,0.2,0.9,0.3c0.1,0,0.3,0,0.4,0.1c0.1,0,0.1,0,0.2,0c0,0-1.9-1.7-1.1-3.4
	C-323.1,702.5-323.9,702.3-324.7,702.3L-324.7,702.3z M-328,653.8c-2.8-1.4-4.8-4.8-4.8-8.8c0-4.2,2.2-7.8,5.3-9
	c-4.6,1-7.8,5.1-7.4,9.7C-334.6,649.6-331.7,652.7-328,653.8z M-298.5,644c3-0.6,4,2.1,4,3c0,3.6-2.8,5-5.1,5l0,0
	C-288.9,652-292.7,638.2-298.5,644L-298.5,644z M-305.6,674.6c5.1,0,4.8-6.7,3.7-7.8c1.6-1.6,5-9.1,5-10.5c0,0-6.7-1.4-5.6-6.1l0,0
	h-0.1c-1.8,1.9-0.7,6,2.2,7c0,0-1.1,4.4-3.9,7.2c-2.8-0.1-6.6-0.5-10-1.8C-309.2,665.5-303.8,669.7-305.6,674.6L-305.6,674.6z
	 M-325.5,642.7c1.3-0.1,2.5,0.8,2.6,2.1s-0.9,2.4-2.2,2.5c-1.3,0.1-2.5-0.8-2.6-2.1c0,1.9,1.6,3.5,3.5,3.5h0.1
	c0.2,0.9,0.2,1.8,0,2.5c1.9-1.7,3.5-3.7,3.5-6c0-2-1.6-3.5-3.5-3.5c-1.6,0-3,1.1-3.4,2.6C-327.3,643.4-326.5,642.8-325.5,642.7
	L-325.5,642.7z M-288,640.1c-2.3-2.3,1.1-6.6,2.4-6.6c-1.4,0-7.3,3.9-5.3,6.6C-289.8,640.1-288,640.1-288,640.1z M-317.6,678.5
	c1.8,0.6,3.7-0.1,4.1-1.5c0.4-1.4-0.7-3-2.5-3.6c-0.3-0.1-0.5-0.1-0.8-0.2C-314.2,674.7-314.2,677.7-317.6,678.5z M-322.9,659
	c0,0,2.6,0.8,5.8,2.3c-0.6-0.4-1.3-0.9-1.8-1.4c-1.6-1.5-2.9-2.4-4-2.8V659L-322.9,659L-322.9,659z M-322,692.7
	c5.5,0,24.4-12.1,24.4-12.1c-4.7,0-6.6-0.7-6.6-0.7c-1.1,0.6-3.2,1.6-7.8,4.4c-3.8,2.2-6.3,5-9.7,6.2c-0.5,0.2-0.9,0.2-1.3,0.2
	c-0.8-0.1-1.7-0.2-2.5-0.2v-17.4c0-1.8-1.3-2.6-2.2-2.6v20.2c-1.5,0.8-2.2,1.8-2.6,2.7c0,0-2.8-0.4-2.7,4.8c0-1.4,2.1-3.8,3.5-3.8
	C-329.5,692.7-324.3,692.7-322,692.7z M-274.7,720.7c-1.4,0-7.8,0.3-8.3-5.3c-1.4-0.3-3-0.4-4.8-0.1c4.5,8.6,9.4,8.7,10.7,8.7
	c2,2.2,1.3,9.7-1.6,9.6c-10.5-0.6-10.1,5.8-8.9,7.1c0-4.8,3.3-6,11.6-6C-276.1,734.8-269.3,726.1-274.7,720.7z M-272.6,741.4h-1.4
	c-0.1,2.3,2.2,3,2.2,3C-272.6,743.7-273.1,742-272.6,741.4z M-285.9,744.7c-0.6-0.6-1.1-3-0.2-3.9h-1.6
	C-287.8,743.2-285.9,744.7-285.9,744.7z M-254.5,664.8c0-7.3-10.1-6.2-10.6-0.6c0.4-4.1,7.2-4.7,7.2,0.4c0,5.4-12.5,8.9-12.5,17.9
	c0,10,10,10.9,9,20c-0.2,1.6-1.9,3.6-4.3,3.6c-5.2,0-8.1-2.2-9.7-5.4c1.7,4.5,4.6,7.9,10.7,7.9c6.3,0,6.9-4.7,6.9-5.8
	c0-9.1-9.5-11.3-9.5-20C-267.4,674.5-254.5,671.1-254.5,664.8z M-328.8,700.2c0,2.8,1.1,3.9,1.1,3.9c0-1.7,0.7-3.1,1.1-3.5
	C-327.1,700-328.8,700.2-328.8,700.2z M-256,684.7c-2.6,0-4.6,2-4.9,4.5c0.1-0.6,0.5-1.2,1.3-1.8c2.9-2.2,8.7,2.2,5.4,6.7
	c1.8-0.7,3.1-2.5,3.1-4.5C-251.1,686.9-253.3,684.7-256,684.7z M-278.4,741.4h-1.7c-0.2,3.2,1.9,3.7,1.9,3.7
	C-279.1,744.3-279.2,742.3-278.4,741.4z M-326.6,724.1c-0.3,0-0.5,0.1-0.7,0.1c-0.8,0.6-1.3,1.6-1.3,2.6c0.3,0.9,1.1,1.5,2,1.5
	c1.2,0,2.1-1,2.1-2.1C-324.5,725.1-325.4,724.1-326.6,724.1z M-314.6,739.9h-2.5c0,4,2.5,4.7,2.5,4.7
	C-315.3,743.8-316.2,741.4-314.6,739.9L-314.6,739.9z M-307,714.9c0-9,21.7-10.1,21.7-17.6c0-3-2.6-4.4-4.5-4.4
	c0.5,0.5,3.3,6.6-4.7,6.6c-7.3,2.4-23.3,16.3-12.2,21.1c0,1.4-0.2,11.8-6.8,10.9c-9.6-1.2-12,2.8-10.1,7.2c0-6.8,4.7-5.5,10.9-5.5
	c3.9,0,9.5-4.9,9.5-13.2C-303.2,720.1-307,718.7-307,714.9z M-325.4,720.4v-18.2c-1.2,0-2.2,1.9-2.2,1.9v15.5v-0.1h-1.3v2
	C-327.9,721.5-325.4,721-325.4,720.4L-325.4,720.4z M-321.7,743.8c0,0-1.9-3,0.1-5.1h-2.2C-324.6,742.5-321.7,743.8-321.7,743.8z
	 M-308.3,739.9c0,0-1,0-1.8,0c0,2.8,3.2,3.9,3.2,3.9C-308,742.6-308.8,740.4-308.3,739.9z"/>
<line id="line3475" fill="none" x1="-220.2" y1="669" x2="-220.2" y2="669"/>
<path id="path3477" fill="#FFFFFF" d="M-368.6,709.7l-0.1-0.4l-0.1-0.4c-0.2-1.3-0.5-3.7-2.4-4.2c-0.5-0.1-1-0.1-1.6,0.2
	c0.2-0.6,0.1-1.1,0-1.6c-0.7-1.8-3.1-1.8-4.5-1.8h-0.4l-0.4-0.1c-1.3-0.2-3.7-0.7-4.7,1c-0.3,0.4-0.4,1-0.3,1.5
	c-0.5-0.3-1-0.5-1.5-0.4c-1.9,0.1-2.7,2.4-3.1,3.7l-0.1,0.4l-0.2,0.3c-0.6,1.2-1.8,3.3-0.5,4.8c0.3,0.4,0.8,0.6,1.4,0.8
	c-0.5,0.4-0.8,0.8-0.9,1.3c-0.5,1.9,1.5,3.3,2.6,4l0.3,0.2l0.3,0.3c0.9,1,2.6,2.7,4.4,2c0.5-0.2,0.9-0.6,1.2-1.1
	c0.2,0.6,0.5,1,1,1.2c1.6,1,3.6-0.4,4.6-1.2l0.3-0.2l0.3-0.2c1.2-0.6,3.4-1.6,3.2-3.5c0-0.5-0.3-1-0.6-1.4c0.6,0,1.1-0.2,1.5-0.5
	C-367.4,713.3-368.1,711-368.6,709.7"/>
<path id="path3479" fill="#ED1C24" d="M-377,711.3c10.8,6.4,7.5-0.6,7.2-1.7C-370,708.6-370.1,700.8-377,711.3"/>
<path id="path3481" fill="#ED1C24" d="M-377.7,712.9c-2.7,12.2,2.9,6.9,3.8,6.4C-373,718.7-365.6,716.2-377.7,712.9"/>
<path id="path3483" fill="#ED1C24" d="M-379.4,712.8c-12.5,1.2-5.7,4.9-4.9,5.6C-383.5,719-378.9,725.3-379.4,712.8"/>
<path id="path3485" fill="#ED1C24" d="M-379.8,711.1c-5-11.5-6.4-3.9-6.8-2.9C-387.1,709.1-391.6,715.5-379.8,711.1"/>
<path id="path3487" fill="#FFFFFF" d="M-201.6,708.1l-0.2-0.3l-0.1-0.4c-0.4-1.3-1.1-3.6-3.1-3.7c-0.5,0-1,0.1-1.5,0.4
	c0-0.6-0.1-1.1-0.3-1.5c-1-1.7-3.4-1.2-4.7-1l-0.4,0.1h-0.4c-1.3,0-3.8,0-4.5,1.8c-0.2,0.5-0.2,1-0.1,1.6c-0.5-0.2-1.1-0.3-1.6-0.2
	c-1.9,0.4-2.2,2.9-2.4,4.2l-0.1,0.4l-0.1,0.4c-0.4,1.2-1.2,3.6,0.3,4.8c0.4,0.3,0.9,0.5,1.5,0.5c-0.4,0.5-0.6,0.9-0.6,1.4
	c-0.2,1.9,2,3,3.2,3.5l0.3,0.2l0.3,0.2c1.1,0.8,3,2.2,4.6,1.2c0.4-0.3,0.8-0.7,1-1.3c0.3,0.5,0.7,0.9,1.2,1.1c1.8,0.8,3.5-1,4.4-2
	l0.3-0.3l0.3-0.2c1.1-0.8,3.1-2.2,2.6-4c-0.1-0.5-0.4-0.9-0.9-1.3c0.6-0.1,1-0.4,1.4-0.8C-199.8,711.4-201,709.2-201.6,708.1"/>
<path id="path3489" fill="#ED1C24" d="M-211.1,710.2c-9.4-8.3-1.7-7.3-0.6-7.4C-210.7,702.7-203.3,700.4-211.1,710.2"/>
<path id="path3491" fill="#ED1C24" d="M-212.5,711.3c-10.8,6.4-7.5-0.6-7.2-1.7C-219.5,708.6-219.4,700.8-212.5,711.3"/>
<path id="path3493" fill="#ED1C24" d="M-211.8,712.9c2.7,12.2-2.9,6.9-3.8,6.4C-216.5,718.7-223.9,716.2-211.8,712.9"/>
<path id="path3495" fill="#ED1C24" d="M-210.1,712.8c12.5,1.2,5.7,4.9,4.9,5.6C-206,719-210.6,725.3-210.1,712.8"/>
<path id="path3497" fill="#ED1C24" d="M-209.7,711.1c5-11.5,6.4-3.9,6.8-2.9C-202.4,709.1-197.9,715.5-209.7,711.1"/>
<path id="path3499" fill="#FFFFFF" d="M-207.2,711.4c0-0.1,0-0.2-0.1-0.3c1-0.7,2.1-1.5,2.1-1.5l-0.1-0.2c0,0-1.3,0.2-2.5,0.4
	c-0.6-1-1.6-1.7-2.8-1.8c-0.4-1.1-0.8-2.3-0.8-2.3h-0.3c0,0-0.2,1.2-0.3,2.4c-0.7,0.2-1.4,0.6-1.9,1.2c-0.3,0.3-0.5,0.7-0.6,1.1
	c-1.2,0-2.5,0-2.5,0l-0.1,0.3c0,0,1.2,0.6,2.3,1.1c0,0.1,0,0.2,0,0.3c0.1,1,0.5,1.9,1.3,2.5c-0.4,1.2-0.8,2.6-0.8,2.6l0.2,0.1
	c0,0,1-1,1.9-2c0.5,0.2,1,0.2,1.5,0.2s1-0.2,1.4-0.4c1,0.8,2.2,1.6,2.2,1.6l0.2-0.2c0,0-0.7-1.3-1.3-2.4
	C-207.4,713.3-207.2,712.4-207.2,711.4"/>
<path id="path3501" fill="#ED1C24" d="M-211.2,709.5c-0.6,0-1.1,0.3-1.5,0.8c-0.4,0.5-0.6,1-0.5,1.6c0.1,1.2,1.2,2.1,2.4,2
	c0.6-0.1,1.1-0.3,1.5-0.8c0.4-0.5,0.6-1,0.5-1.6C-208.9,710.3-210,709.4-211.2,709.5"/>
<path id="path3503" fill="#ED1C24" d="M-378.3,710.2c9.4-8.3,1.7-7.3,0.6-7.4C-378.7,702.7-386.1,700.4-378.3,710.2"/>
<path id="path3505" fill="#FFFFFF" d="M-374.8,711.8c1.1-0.5,2.3-1.1,2.3-1.1l-0.1-0.3c0,0-1.3,0-2.5,0c-0.1-0.4-0.3-0.7-0.6-1.1
	c-0.5-0.6-1.2-1-1.9-1.2c-0.2-1.2-0.3-2.4-0.3-2.4h-0.3c0,0-0.4,1.2-0.7,2.3c-1.2,0.1-2.2,0.8-2.8,1.8c-1.2-0.2-2.5-0.4-2.5-0.4
	l-0.1,0.2c0,0,1.1,0.8,2.1,1.5c0,0.1,0,0.2-0.1,0.3c-0.1,1,0.2,1.9,0.8,2.7c-0.6,1.1-1.3,2.4-1.3,2.4l0.2,0.2c0,0,1.2-0.9,2.2-1.6
	c0.4,0.2,0.9,0.4,1.4,0.4s1,0,1.5-0.2c0.9,0.9,1.9,2,1.9,2l0.2-0.1c0,0-0.4-1.4-0.8-2.6c0.7-0.6,1.2-1.5,1.3-2.5
	C-374.8,712-374.8,711.9-374.8,711.8"/>
<path id="path3507" fill="#ED1C24" d="M-376.8,710.3c-0.4-0.5-0.9-0.7-1.5-0.8c-1.2-0.1-2.3,0.8-2.4,2c0,0.6,0.1,1.2,0.5,1.6
	c0.4,0.5,0.9,0.7,1.5,0.8c1.2,0.1,2.3-0.8,2.4-2C-376.2,711.3-376.4,710.8-376.8,710.3"/>
<path id="path3509" fill="#FFFFFF" d="M-377,658c-5.3-0.9-10.3,2.6-11.2,7.9c-0.9,5.3,2.6,10.3,7.8,11.2c5.3,0.9,10.3-2.6,11.2-7.9
	C-368.2,664-371.7,659-377,658"/>
<path id="path3511" fill="#ED1C24" d="M-374.8,665.3c-0.1-0.1-0.2-0.1-0.4-0.3c-0.8-0.5-2.4-1.6-2.4-1.6c-0.2-0.1-0.4-0.3-0.6-0.4
	c-0.7-0.5-1.3-0.9-1.9-1.2c-0.2-0.1-0.4-0.2-0.7-0.4c-0.9-0.5-1.8-0.7-2.9-0.8c-0.8,0.6-1.5,1.3-2.1,2.1c2.4,0.9,4.8,2.3,9.6,5.3
	C-375.8,667.5-374.8,665.5-374.8,665.3"/>
<path id="path3513" fill="#ED1C24" d="M-377,670.5c0.1-0.2,0.5-1.3,0.7-1.8c-5-3.1-7.3-4.5-9.8-5.3c-0.4,0.7-0.7,1.4-0.8,2.2
	C-385.5,667.5-381.8,669.4-377,670.5"/>
<path id="path3515" fill="#ED1C24" d="M-377.6,662.6c1.9-1.1,4-0.8,5.7-0.2c-0.6-0.8-1.4-1.5-2.2-2c-1.6-0.3-3.7-0.4-5.4,1
	C-378.9,661.7-378.3,662.1-377.6,662.6"/>
<path id="path3517" fill="#ED1C24" d="M-385.1,671.6c0.3,0.2,0.5,0.3,0.8,0.5c0.6,0.3,1.2,0.6,1.8,0.8c0.3,0.1,0.5,0.2,0.8,0.3
	c0.9,0.3,3.1,0.9,3.3,0.9c0-0.1,0.8-2.1,1.1-2.8c-3.7-0.9-7.8-2.5-9.8-4.7c-0.1,1-0.1,1.9,0.1,2.9
	C-386.5,670.3-385.9,671-385.1,671.6"/>
<path id="path3519" fill="#ED1C24" d="M-378.3,674.8l-0.8-0.2c-0.7-0.2-1.5-0.4-2.3-0.6c0.4,0.8,1,1.5,1.7,2c0.9,0.1,1.7,0.1,2.6,0
	C-377.8,675.5-378.3,674.8-378.3,674.8"/>
<path id="path3521" fill="#ED1C24" d="M-370.5,665.1c-0.2-0.6-0.4-1.1-0.7-1.7c-1.5-0.7-3.7-1.3-5.7-0.3l2.7,1.8
	c0.6,0,1.1-0.1,1.6-0.1c0.3,0,0.5,0,0.7,0C-371.4,664.9-370.9,665-370.5,665.1"/>
<path id="path3523" fill="#ED1C24" d="M-371.9,665.6c-0.1,4.4-2.2,7.9-4,10c2.8-1,5.1-3.4,5.6-6.6c0.2-1.1,0.2-2.1,0-3.1
	C-370.7,665.8-371.3,665.6-371.9,665.6"/>
<path id="path3525" fill="#ED1C24" d="M-380.2,661c1.3-1.1,2.8-1.5,4.1-1.5c-0.4-0.1-0.7-0.2-1.1-0.3c-2-0.3-3.9,0-5.5,0.9
	C-381.8,660.3-381,660.6-380.2,661"/>
<path id="path3527" fill="#ED1C24" d="M-374.1,665.6c-0.6,1.3-1,2.2-1.3,2.9c-0.1,0.2-0.2,0.4-0.3,0.7c-0.1,0.4-0.6,1.5-0.6,1.5
	l-0.3,0.7l-1.2,3c0.3,0.4,0.7,0.8,1.1,1.1c1.8-2,4-5.4,4-9.9C-373.1,665.5-373.5,665.5-374.1,665.6"/>
<path id="path3529" fill="#ED1C24" d="M-382.3,673.7c-0.6-0.2-1.2-0.4-1.8-0.7c0.2,0.6,0.5,1.2,0.8,1.7c0.6,0.4,1.3,0.7,2.1,1
	C-381.6,675.1-382.1,674.5-382.3,673.7"/>
<path id="path3531" fill="#ED1C24" d="M-384.9,672.5c-0.4-0.2-0.8-0.5-1.1-0.8c0.4,0.7,0.9,1.4,1.5,1.9
	C-384.7,673.3-384.8,672.9-384.9,672.5"/>
<path id="path3533" fill="#FFFFFF" d="M-221.4,669.2c0.9,5.3,6,8.8,11.2,7.9c5.3-0.9,8.8-6,7.9-11.2c-0.9-5.3-6-8.8-11.2-7.9
	C-218.8,659-222.4,664-221.4,669.2"/>
<path id="path3535" fill="#ED1C24" d="M-215.8,665.3c0.1-0.1,0.2-0.1,0.4-0.3c0.8-0.5,2.3-1.6,2.4-1.6c0.2-0.1,0.4-0.3,0.6-0.4
	c0.7-0.5,1.3-0.9,1.9-1.2c0.2-0.1,0.4-0.2,0.7-0.4c0.9-0.5,1.8-0.7,2.9-0.8c0.8,0.6,1.5,1.3,2.1,2.1c-2.4,0.9-4.7,2.3-9.6,5.3
	C-214.8,667.5-215.7,665.5-215.8,665.3"/>
<path id="path3537" fill="#ED1C24" d="M-213.5,670.5c-0.1-0.2-0.5-1.3-0.7-1.8c5-3.1,7.3-4.5,9.7-5.3c0.4,0.7,0.7,1.4,0.8,2.2
	C-205,667.5-208.7,669.4-213.5,670.5"/>
<path id="path3539" fill="#ED1C24" d="M-213,662.6c-1.9-1.1-4-0.8-5.7-0.2c0.6-0.8,1.4-1.5,2.2-2c1.6-0.3,3.7-0.4,5.4,1
	C-211.6,661.7-212.3,662.1-213,662.6"/>
<path id="path3541" fill="#ED1C24" d="M-205.5,671.6c-0.2,0.2-0.5,0.3-0.8,0.5c-0.6,0.3-1.1,0.6-1.8,0.8c-0.3,0.1-0.5,0.2-0.8,0.3
	c-0.9,0.3-3.1,0.9-3.3,0.9c0-0.1-0.8-2.1-1.1-2.8c3.7-0.9,7.8-2.5,9.8-4.7c0.1,1,0.1,1.9-0.1,2.9C-204,670.3-204.7,671-205.5,671.6"
	/>
<path id="path3543" fill="#ED1C24" d="M-212.2,674.8l0.8-0.2c0.7-0.2,1.5-0.4,2.3-0.6c-0.4,0.8-1,1.5-1.7,2c-0.9,0.1-1.7,0.1-2.6,0
	C-212.7,675.5-212.2,674.8-212.2,674.8"/>
<path id="path3545" fill="#ED1C24" d="M-220,665.1c0.2-0.6,0.4-1.1,0.7-1.7c1.5-0.7,3.7-1.3,5.7-0.3l-2.7,1.8
	c-0.6,0-1.1-0.1-1.6-0.1c-0.3,0-0.5,0-0.7,0C-219.2,664.9-219.6,665-220,665.1"/>
<path id="path3547" fill="#ED1C24" d="M-218.6,665.6c0.1,4.4,2.2,7.9,4,10c-2.8-1-5.1-3.4-5.6-6.6c-0.2-1.1-0.2-2.1,0-3.1
	C-219.8,665.8-219.3,665.6-218.6,665.6"/>
<path id="path3549" fill="#ED1C24" d="M-210.3,661c-1.3-1.1-2.8-1.5-4.1-1.5c0.3-0.1,0.7-0.2,1.1-0.3c2-0.3,3.9,0,5.5,0.9
	C-208.7,660.3-209.5,660.6-210.3,661"/>
<path id="path3551" fill="#ED1C24" d="M-216.4,665.6c0.6,1.3,1,2.2,1.3,2.9c0.1,0.2,0.2,0.4,0.3,0.7c0.2,0.4,0.6,1.5,0.6,1.5
	l0.3,0.7l1.2,3c-0.3,0.4-0.7,0.8-1.1,1.1c-1.8-2-4-5.4-4-9.9C-217.5,665.5-217,665.5-216.4,665.6"/>
<path id="path3553" fill="#ED1C24" d="M-208.2,673.7c0.6-0.2,1.2-0.4,1.8-0.7c-0.2,0.6-0.5,1.2-0.8,1.7c-0.6,0.4-1.3,0.7-2.1,1
	C-208.9,675.1-208.5,674.5-208.2,673.7"/>
<path id="path3555" fill="#ED1C24" d="M-205.6,672.5c0.4-0.2,0.8-0.5,1.1-0.8c-0.4,0.7-0.9,1.4-1.5,1.9
	C-205.8,673.3-205.7,672.9-205.6,672.5"/>
</svg>
