<?xml version="1.0" encoding="utf-8"?>
<!-- Generator: Adobe Illustrator 19.1.0, SVG Export Plug-In . SVG Version: 6.00 Build 0)  -->
<svg version="1.1" id="Layer_1" xmlns="http://www.w3.org/2000/svg" xmlns:xlink="http://www.w3.org/1999/xlink" x="0px" y="0px"
	 viewBox="-417.5 607 115.8 187.1" enable-background="new -417.5 607 115.8 187.1" xml:space="preserve">
<g>
	<path fill="#FFFFFF" d="M-359.6,789.3c28.9,0,53.1-39.7,53.1-88.7s-24.1-88.7-53.1-88.7c-28.9,0-53.1,39.7-53.1,88.7
		C-412.7,749.5-388.5,789.3-359.6,789.3L-359.6,789.3z"/>
	<path d="M-359.6,784.5c12.7,0,24.6-9.1,33.4-23.8c9.2-15.3,14.9-36.6,14.9-60.1c0-23.6-5.7-44.8-14.9-60.1
		c-8.8-14.7-20.7-23.8-33.4-23.8c-12.7,0-24.6,9.1-33.4,23.8c-9.2,15.3-14.9,36.6-14.9,60.1c0,23.6,5.7,44.8,14.9,60.1
		C-384.2,775.4-372.3,784.5-359.6,784.5L-359.6,784.5z M-359.6,794.1c-16.3,0-31.1-10.9-41.6-28.5c-10-16.8-16.3-39.8-16.3-65.1
		c0-25.3,6.3-48.3,16.3-65c10.5-17.6,25.3-28.5,41.6-28.5c16.3,0,31.1,10.9,41.6,28.5c10,16.8,16.3,39.8,16.3,65.1
		c0,25.3-6.3,48.3-16.3,65C-328.6,783.2-343.3,794.1-359.6,794.1L-359.6,794.1z"/>
	<path fill="#CA2E31" d="M-359.6,787.5c13.9,0,26.7-9.7,36-25.3c9.4-15.8,15.3-37.6,15.3-61.7s-5.9-45.9-15.3-61.7
		c-9.3-15.6-22.1-25.3-36-25.3s-26.7,9.7-36,25.3c-9.4,15.8-15.3,37.6-15.3,61.7s5.9,45.9,15.3,61.7
		C-386.3,777.9-373.5,787.5-359.6,787.5L-359.6,787.5z M-359.6,791c-15.2,0-29-10.3-38.9-27c-9.7-16.3-15.8-38.7-15.8-63.5
		c0-24.7,6.1-47.2,15.8-63.5c10-16.7,23.8-27,38.9-27s29,10.3,38.9,27c9.7,16.3,15.8,38.7,15.8,63.5c0,24.7-6.1,47.2-15.8,63.5
		C-330.6,780.7-344.5,791-359.6,791L-359.6,791z"/>
	<polygon points="-368.5,749.6 -368.5,653.1 -377.4,653.1 -377.4,746.1 	"/>
	<polygon fill="#CA2E31" points="-377.5,746.1 -377.5,653.1 -386.4,658.6 -386.4,742.7 	"/>
	<polygon points="-386.4,742.7 -386.4,658.6 -395.3,665.4 -395.3,735.8 	"/>
	<polygon fill="#CA2E31" points="-395.3,735.8 -395.3,665.4 -404.2,679.1 -404.2,722.1 	"/>
	<polygon points="-404.2,723.5 -404.2,677.1 -408.3,687.4 -408.3,715.3 	"/>
	<polygon points="-340.8,655.1 -340.8,747.8 -344.2,747.8 -344.2,653.4 -340.8,653.4 	"/>
	<polygon points="-328.4,661.6 -328.4,741.3 -331.8,741.3 -331.8,659.9 -328.4,659.9 	"/>
	<polygon points="-357.9,705 -309.6,705 -309.6,708.4 -359.6,708.4 -359.6,705 	"/>
	<polygon points="-357.9,692.7 -309.6,692.7 -309.6,696.1 -359.6,696.1 -359.6,692.7 	"/>
	<polygon fill="#CA2E31" points="-309.3,696.1 -331.9,696.1 -331.9,660.6 -340.8,655.1 -340.8,696.1 -359.6,696.1 -359.6,650.3 
		-368.5,651.7 -368.5,749.6 -359.6,749.6 -359.6,704.9 -340.8,704.9 -340.8,746.1 -331.9,742.7 -331.9,704.9 -309.3,704.9 	"/>
	<polygon points="-356.2,651.7 -356.2,751.4 -359.6,751.4 -359.6,649.9 -356.2,649.9 	"/>
	<path d="M-359.6,748.3c13.2,0,25.1-5.3,33.8-14c8.7-8.7,14-20.6,14-33.8s-5.3-25.1-14-33.8c-8.6-8.6-20.6-14-33.8-14
		c-13.2,0-25.1,5.3-33.8,14c-8.6,8.6-14,20.6-14,33.8c0,13.2,5.3,25.1,14,33.8C-384.7,742.9-372.8,748.3-359.6,748.3L-359.6,748.3z
		 M-359.6,751.7c-14.1,0-26.9-5.7-36.2-15c-9.3-9.3-15-22.1-15-36.2c0-14.1,5.7-26.9,15-36.2c9.3-9.3,22.1-15,36.2-15
		s26.9,5.7,36.2,15c9.3,9.3,15,22.1,15,36.2c0,14.1-5.7,26.9-15,36.2C-332.7,746-345.5,751.7-359.6,751.7L-359.6,751.7z"/>
	<path d="M-384.5,752.6l0.5,0.2c3.1,1.1,4.4,0,4.9-1.1l2.6,0.9l-5.3,14.7l-3.2-1.1l3.6-10.1l-3.8-1.4L-384.5,752.6L-384.5,752.6z"/>
	<path d="M-369.5,760.7c-1.4-0.2-2-1.3-1.9-2.2c0.2-1.1,1.1-1.8,2.6-1.6c1.1,0.2,1.8,1,1.7,2.2
		C-367.3,760.2-368.2,760.9-369.5,760.7L-369.5,760.7z M-364.3,766.1c0.3-2-0.5-3.1-2-4.1c1.5-0.4,2.2-1.5,2.4-2.8
		c0.3-2.1-1.3-4.3-4.8-4.8c-3-0.4-5.5,0.8-5.9,3.4c-0.2,1.4,0.4,2.5,1.6,3.3c-2.7,0.7-3,2.7-3.2,3.5c-0.3,2.1,0.8,4.9,5.2,5.6
		C-366.5,770.9-364.6,768.1-364.3,766.1L-364.3,766.1z M-367.8,765.7c-0.2,1.1-1,2.3-2.8,2.1c-1.5-0.2-2.3-1.3-2.1-2.8
		c0.3-1.7,1.5-2.2,2.7-2C-368,763.2-367.6,764.7-367.8,765.7L-367.8,765.7z"/>
	<path d="M-357.9,760.2c-0.2-2.2,1.3-2.8,2.2-2.8c1.7-0.1,2.7,0.9,2.8,2.6c0.2,1.8-1.1,2.7-2.3,2.8
		C-356.4,762.9-357.7,762.5-357.9,760.2L-357.9,760.2z M-360.4,767.2c0.5,2.4,2.7,3.8,5.6,3.6c3.1-0.3,6-2.5,5.5-8.5
		c-0.2-2.2-0.8-8-6.7-7.5c-3.3,0.3-5.7,2.3-5.4,6.1c0.2,2.6,2.3,4.7,5.6,4.4c1.2-0.1,2.5-0.5,3.1-1.6h0.1c0.2,3.3-1.1,4.4-2.5,4.6
		c-1,0.1-1.8-0.3-2.1-1.4l0,0L-360.4,767.2L-360.4,767.2z"/>
	<path d="M-343.5,757.8c-0.7-2.1,0.6-3,1.5-3.3c1.6-0.6,2.8,0.2,3.4,1.9c0.6,1.7-0.4,2.9-1.5,3.3
		C-341.4,760.1-342.7,760.1-343.5,757.8L-343.5,757.8z M-344.2,765.3c1.1,2.3,3.6,3,6.3,2.1c2.9-1,5.3-3.9,3.3-9.6
		c-0.7-2.1-2.7-7.5-8.3-5.6c-3.2,1.1-5,3.6-3.7,7.2c0.8,2.5,3.4,4,6.5,2.9c1.1-0.4,2.3-1.1,2.7-2.3h0.1c1,3.1,0.1,4.6-1.3,5
		c-1,0.3-1.8,0.1-2.4-0.8l0,0L-344.2,765.3L-344.2,765.3z"/>
	<path d="M-358.8,626.3c-4.8,0.1-9,3.8-8.9,8.4c0.1,4.5,4.4,8.1,9.2,8c2.4,0,4.6-0.9,6.1-2.3l2.4,2.2c-2.2,2-5.2,3.2-8.5,3.3
		c-6.9,0.1-12.6-4.9-12.7-11.1c-0.1-6.3,5.3-11.5,12.3-11.6c3.3-0.1,6.3,1,8.5,3l-2.3,2.3C-354.3,627-356.4,626.2-358.8,626.3
		L-358.8,626.3z"/>
	<polygon points="-344.5,627.1 -350,646.3 -347.3,646.9 -343.8,636 -341.1,649 -339.8,649 -336.3,640.8 -332.1,653.2 -328.2,655.9 
		-334.3,634.7 -336.8,633.2 -339.5,640.4 -341.9,628.5 	"/>
	<path d="M-369.5,646.3l-5.3-19.2l-4.6,2.7l-13.1,26.7l5.3-3.4l3.4-6.9l9.4-3.6l1.4,4.6L-369.5,646.3L-369.5,646.3z M-382.1,642.1
		l5.1-10.4l1.8,7.6L-382.1,642.1L-382.1,642.1z"/>
</g>
</svg>
