<?xml version="1.0" encoding="utf-8"?>
<!-- Generator: Adobe Illustrator 19.1.0, SVG Export Plug-In . SVG Version: 6.00 Build 0)  -->
<svg version="1.1" id="Layer_1" xmlns="http://www.w3.org/2000/svg" xmlns:xlink="http://www.w3.org/1999/xlink" x="0px" y="0px"
	 viewBox="-454 582.7 156.8 211.6" enable-background="new -454 582.7 156.8 211.6" xml:space="preserve">
<circle fill="#33348E" cx="-375.6" cy="715.9" r="78.4"/>
<path fill="none" stroke="#FFFFFF" stroke-width="0.7239" d="M-381.4,788.3c-46.9-54.2-26.3-141.9,5.8-150.4"/>
<path fill="none" stroke="#FFFFFF" stroke-width="0.7239" d="M-369.8,788.3c46.9-54.2,26.3-141.9-5.8-150.4"/>
<path fill="none" stroke="#FFFFFF" stroke-width="0.7239" d="M-368.9,789.5c33.3-6,63.1-37,63.1-77.6c0-43.3-26.5-74.4-69.8-74.4
	c-39.8,0-75.3,31.1-75.3,74.4c0,40.8,33.6,71.7,68.8,77.6"/>
<ellipse fill="none" stroke="#FFFFFF" stroke-width="0.7239" cx="-375.6" cy="789.7" rx="6.8" ry="3.2"/>
<path fill="#FFFFFF" d="M-413.1,772.6l-19.2-21.2l14.4-13l4.1,4.5l-8.6,7.7l3.2,3.5l5.6-5.1l4.1,4.5l-5.6,5.1l7.8,8.7L-413.1,772.6z
	"/>
<path fill="#FFFFFF" d="M-371,772.9c-0.7,1.7-2.4,2.7-4.6,2.7c-3.5,0-5.5-2-5.5-5.3s2.3-5.3,5.2-5.3c2.3,0,3.8,0.8,4.6,2.1l6.8-5.4
	c-2.1-3.5-6.1-5.5-12-5.5c-7.6,0-13.5,5.3-13.5,13.7c0,8.5,5.4,13.8,14.4,13.8c5.7,0,10-2.6,11.9-7L-371,772.9z"/>
<path fill="#FFFFFF" d="M-332.3,748l0.9,0.4c1.7,0.9,4,2.5,2.9,4.6c-1,2-2.7,2-4.6,1l-2-0.9L-332.3,748l-4.5-9.3l-14.1,26.9l7.3,3.9
	l5.8-10.9l1.5,0.7c6.9,3.6,11,1.8,13.6-3.1c2.5-4.8,1.3-9.3-5.6-12.9l-8.5-4.4"/>
<path fill="#FFFFFF" d="M-314.1,684.6c3.6,0.9,7.5,2.8,10.1,5.2l0.5,2.2c-1.6-1.5-6.5-4.1-9.9-4.9L-314.1,684.6z"/>
<path fill="#FFFFFF" d="M-312.6,691.2c3.6,0.9,7.5,2.8,10.1,5.2l0.5,2.2c-1.6-1.5-6.5-4.1-9.9-4.9L-312.6,691.2z"/>
<path fill="#FFFFFF" d="M-311.9,697.8c3.6,0.9,7.5,2.8,10.1,5.2l0.1,2.1c-1.6-1.5-6.5-4.1-9.9-4.9L-311.9,697.8z"/>
<path fill="#FFFFFF" d="M-311.5,704.4c3.6,0.9,7.5,2.8,10.1,5.2l-0.1,2.1c-1.6-1.5-6.5-4.1-9.9-4.9L-311.5,704.4z"/>
<path fill="#65493C" d="M-352,640c-10.3-7.5-36.9-5.6-47.7,0.2"/>
<path fill="#CC1E4C" stroke="#000000" stroke-width="0.7239" d="M-405.4,617.8c-3.2,0.2-7.5-0.4-9.8-1.5c-2.2-1.1-4.5,0.2-6.7,1.9
	c0.5-1.9,2-3.2,4.6-4.1c-1.5-0.4-4.8-1.6-6.1-3.6c3.5,1.1,7.1,1.1,9.8,0.5c2.7-0.6,7.8-0.7,10.1,2.2"/>
<path fill="#CC1E4C" stroke="#000000" stroke-width="0.7239" d="M-349.9,609.9c2.6-0.2,4.6-0.2,6.6,2.4c2,2.6,7.1,2.5,8.2-0.9
	c0.1,1.8-0.7,4.1-0.7,4.1c1.9-0.8,3.2-1.9,3.9-2.7c-0.4,3.2-4.1,12.3-16.6,6.2"/>
<path fill="#CC1E4C" stroke="#000000" stroke-width="0.7239" d="M-387.5,592.8c-1.6-1.1-4.5-2.2-6-0.9c-1.5,1.3-3.5,2-4.7,0.6
	c0.7,1.2,2.9,2.1,4.6,0.8c1.6-1.3,3.4-1.1,4.3,0"/>
<path fill="#CF8C2C" stroke="#000000" stroke-width="0.7239" d="M-379.5,599.7c-0.1-2-2.4-7.1-3.6-5.2c-0.6,0.9-2.1,1.1-2.8,0.5
	c-0.7-0.6-2.7-1.1-3.5-0.5c-0.8,0.6-2.4,0-2.4-0.9c0-0.9,0.8-1.3,2-1.1c1.2,0.2,4.1,0.2,4.8-0.4c0.7-0.6-0.1-1.9-1.8-2
	c-1.6-0.1-5.8-0.2-6.8,1.1c-0.9-1.1-1.3-4.3,1.1-4c2.3,0.4,2.7-0.6,3.2-1.3c0.5-0.7,2-1.5,3.6-1.6c1.6-0.1,2.8-0.5,4.6,0
	c1.8,0.5,2.3,0,2.6-0.8c0.9,1.4,0.9,2.7,0.7,3.2c1.6-0.5,4.2,0.1,4.7,1.2c0.5,1.1,1.2,0.9,2.1,0.9c0.9,0,1.6,0.2,2,1.6
	c0.4,1.4,1.2,0.5,1.9,0.8c0.7,0.4,2.7,1.2,3.1,2.4c0.4,1.2,1.3,1.5,2.9,2.6"/>
<path fill="#CC1E4C" stroke="#000000" stroke-width="0.7239" d="M-404.7,608.7c-0.1-1.9-2.1-4-3.5-5.3c-1.4-1.3-1.3-3.2,0.8-4.7
	s10.3-4.9,16.6-3.1c6.2,1.9,19.3,3.2,30.1-1.1l11.3,12.2"/>
<path fill="#7B002B" stroke="#000000" stroke-width="0.7239" d="M-357.1,605.2c5.8,2,9.1,0.7,9.2-0.6c0.1-1.3-3.6-1-5-0.9
	c-1.1,0.1-2.8,0-3.1-0.4"/>
<path fill="#CC1E4C" stroke="#000000" stroke-width="0.7239" d="M-356,603.4c0.3,0.4,2,0.4,3.1,0.4c1.4-0.1,5.1-0.4,5,0.9
	c0.2-0.6-0.1-1.8-0.4-2.5h-7.5"/>
<path fill="#7B002B" stroke="#000000" stroke-width="0.7239" d="M-346.4,601.3c0.9,1.1,0,2.9-2.5,2.2s-5.5-1.5-6.8-0.6
	c-0.3,0.2-0.4,0.4-0.3,0.5c-0.3-0.4-0.3-1.7-0.7-2.5l8.3-1.1"/>
<path fill="#CC1E4C" stroke="#000000" stroke-width="0.7239" d="M-357.3,600.5c0,0.6,0.7,1.1,2.8,0.6c4.5-1.1,7.2-0.8,8.1,0.2
	c-0.2-0.6-0.8-1.8-1-2.6H-358"/>
<path fill="#7B002B" stroke="#000000" stroke-width="0.7239" d="M-360.3,599.2c-0.1-1.1,1.8-3.3,4-2.6c2.2,0.7,5.3,0.6,6.9-0.4
	c1.6-0.9,4.1-0.9,5.3-0.1c0.9,0.9,0,3.2-1.6,3.6c-1.6,0.5-7.1-0.8-9.3-0.9c-1.2-0.1-2.3,0.9-2.3,1.6c-0.5-1.1-0.9-1.4-1.3-1.8
	C-359.1,599-359.9,599.6-360.3,599.2z"/>
<path fill="#CC1E4C" stroke="#000000" stroke-width="0.7239" d="M-344.1,596.1c-0.9-0.9-1.2-2.1-1.9-3.6s-1.8-2.6-4.1-0.8
	c-2.4,1.8-7.4,0.8-9.4,0.4c-2-0.5-3.4,0-3.6,1.3c-0.2,1.3,1.4,4.6,2.8,5.9c-0.1-1.1,1.8-3.3,4-2.6c2.2,0.7,5.3,0.6,6.9-0.4
	C-347.7,595.3-345.3,595.3-344.1,596.1z"/>
<path fill="#CF8C2C" stroke="#000000" stroke-width="0.7239" d="M-348.4,628.8l3.1-4.1c5.8-5.2-0.9-9.8-3.4-11
	c5.1-6.6-0.4-8.6-1.9-8.2c-0.6-1.3-2.4-1.9-3.6-2c-1.3-0.1-2.3,0.2-3.4-0.8c-1.1-1.1-4.2-1.2-6.9,0.4c-2.7,1.5-7.2,1.9-9.8,0.1
	c-2.6-1.8-8.6-0.9-10.8,1.2c-2.2,2.1-4.2,3.9-8.2-0.5c-5.5-5.9-12.3,1.4-11.8,5.9c0.6,4.5-1.5,8.1-4.3,8.7l5.6,9.2"/>
<path fill="#F0C560" stroke="#000000" stroke-width="0.7239" d="M-375.6,618.8c1.1,3,7.8,3.7,9.8,1c0.8,3,6,4,7.9,1.6
	c0.6,3,5.8,4.3,7.2,3c1,2.9,4.5,3.3,6.5,1.3l1.9-2.3c1.6,0.1,1.8-1.1,2.6-2.1s1.5-1.5,3.4-1.8c-0.6-0.6-0.9-1.6-2-1.4l-4.3-2.5
	l-2.6,5.3l1.4,0.9c-3.4,5-6.1,2.1-5.7-1.5l-1.2-0.3c-1.5,3.8-5.2,2.9-5.2-1.2l-1.7-0.6c-2,3.8-7.3,2.4-7.2-2.1l-1.7-0.1
	c-0.2,4.3-8,4.2-9-1.1c-1,5.3-8.7,5-9,0.7l-1.7,0.1c0.1,4.5-5.2,5.4-7.3,1.7l-1.7,0.6c0,4.1-3.7,5-5.2,1.2l-1.2,0.2
	c0.5,3.6-2.3,6.5-5.7,1.5l1.4-0.9l-2.6-5.3l-4.3,2.5c-1.1-0.2-1.5,0.8-2,1.4c1.9,0.2,2.6,0.8,3.4,1.8c0.8,1,1,2.3,2.6,2.1l1.9,2.2
	c1.9,2,5.5,1.6,6.5-1.2c1.4,1.2,6.6,0,7.2-3c1.9,2.4,7.3,1.9,8.1-1.1C-383.4,622.2-376.7,621.8-375.6,618.8z"/>
<rect x="-380.2" y="608.7" fill="#F0C560" stroke="#000000" stroke-width="0.7239" width="9.2" height="8"/>
<polygon fill="#F0C560" stroke="#000000" stroke-width="0.7239" points="-352.1,619.7 -352.1,612 -360.9,609.6 -361,617.4 "/>
<polygon fill="#F0C560" stroke="#000000" stroke-width="0.7239" points="-399.1,619.7 -399,612 -390.1,609.6 -390.2,617.4 "/>
<circle fill="#F0C560" stroke="#000000" stroke-width="0.7239" cx="-401.8" cy="618.1" r="2.2"/>
<circle fill="#F0C560" stroke="#000000" stroke-width="0.7239" cx="-385.6" cy="613.8" r="2.2"/>
<circle fill="#F0C560" stroke="#000000" stroke-width="0.7239" cx="-349.4" cy="618.1" r="2.2"/>
<circle fill="#F0C560" stroke="#000000" stroke-width="0.7239" cx="-365.6" cy="613.8" r="2.2"/>
<path fill="#F0C560" stroke="#000000" stroke-width="0.7239" d="M-352,640c-10.3-7.5-36.9-5.6-47.7,0.2c-1.8,0.2-3.2-2.6-1.6-4
	l-2.5-6.5c-1.1-0.1-1.8-1.4-1.1-2.5c0.7-1.1,9.5-5.9,29.3-5.9c19.7,0,27.4,6.3,28.3,7.3c0.9,0.9,0.5,2.6-0.7,2.6l-2.8,4.7
	C-349.9,637.4-350.8,639.7-352,640z"/>
<path fill="#F0C560" stroke="#000000" stroke-width="0.7239" d="M-348,631.3c1.2,0,1.6-1.6,0.7-2.6c-0.9-0.9-8.6-7.3-28.3-7.3
	s-28.6,4.8-29.3,5.9c-0.7,1.1,0,2.4,1.1,2.5c4-1.9,15.9-5.2,28.7-5.2C-365,624.6-353.1,627.4-348,631.3z"/>
<path fill="#F0C560" stroke="#000000" stroke-width="0.7239" d="M-352,640c-10.3-7.5-36.9-5.6-47.7,0.2c-1.8,0.2-3.2-2.6-1.6-4
	c3.4-1.9,16.8-4.9,25.7-4.9s20.9,2.6,24.8,4.7C-349.9,637.4-350.8,639.7-352,640z"/>
<circle fill="#CC1E4C" stroke="#000000" stroke-width="0.7239" cx="-375.6" cy="628" r="2.7"/>
<circle fill="#CC1E4C" stroke="#000000" stroke-width="0.7239" cx="-390.9" cy="629.4" r="2.7"/>
<circle fill="#CC1E4C" stroke="#000000" stroke-width="0.7239" cx="-400.2" cy="632" r="2.7"/>
<circle fill="#CC1E4C" stroke="#000000" stroke-width="0.7239" cx="-361.3" cy="629.4" r="2.7"/>
<circle fill="#CC1E4C" stroke="#000000" stroke-width="0.7239" cx="-352" cy="632" r="2.7"/>
<circle fill="#CC1E4C" stroke="#000000" stroke-width="0.7239" cx="-395.6" cy="630.5" r="1.2"/>
<circle fill="#CC1E4C" stroke="#000000" stroke-width="0.7239" cx="-384.7" cy="628.1" r="1.2"/>
<circle fill="#CC1E4C" stroke="#000000" stroke-width="0.7239" cx="-356.6" cy="630.5" r="1.2"/>
<path fill="#CC1E4C" stroke="#000000" stroke-width="0.7239" d="M-367.5,629.3c-0.7,0-1.2-0.5-1.2-1.2s0.5-1.2,1.2-1.2
	s1.2,0.5,1.2,1.2S-366.9,629.3-367.5,629.3z"/>
<path fill="#FFFFFF" stroke="#000000" stroke-width="0.7239" d="M-375.6,720.1c0.8-2.1,4-2.9,6.7-2.9h20.6c2,0,3.4-2.2,3.4-3.9
	v-73.1h-61.3v73.1c0,1.6,1.4,3.9,3.4,3.9h20.6C-379.6,717.2-376.4,718-375.6,720.1z"/>
<rect x="-405.1" y="641.4" fill="#CC1E4C" stroke="#000000" stroke-width="0.7239" width="28.6" height="36.4"/>
<rect x="-374.7" y="641.4" fill="#FFFFFF" stroke="#000000" stroke-width="0.7239" width="28.6" height="36.4"/>
<path fill="#FFFFFF" stroke="#000000" stroke-width="0.7239" d="M-376.5,715.9v-36.4h-28.6v33.7c0,1.2,1.1,2.7,2.5,2.7H-376.5
	L-376.5,715.9z"/>
<path fill="#CC1E4C" stroke="#000000" stroke-width="0.7239" d="M-346.1,712.8v-33.4h-28.6v36.4h26
	C-347.5,715.9-346.1,714.2-346.1,712.8z"/>
<path d="M-375.6,752.6c-6.1,0-11-4.9-11-11c0-6.1,4.9-11,11-11s11,4.9,11,11C-364.6,747.7-369.5,752.6-375.6,752.6v1
	c6.6,0,12-5.4,12-12c0-6.6-5.4-12-12-12s-12,5.4-12,12c0,6.6,5.4,12,12,12"/>
<polyline fill="#FFFFFF" stroke="#000000" stroke-width="0.7239" points="-376.9,746.8 -376.1,752.1 -375,752.1 -374.3,746.8 "/>
<polyline fill="#FFFFFF" stroke="#000000" stroke-width="0.7239" points="-380.7,743.1 -384.9,746.5 -384.4,747.4 -379.4,745.3 "/>
<polyline fill="#FFFFFF" stroke="#000000" stroke-width="0.7239" points="-379.4,737.9 -384.4,736 -384.9,736.9 -380.7,740.2 "/>
<polyline fill="#FFFFFF" stroke="#000000" stroke-width="0.7239" points="-374.3,736.5 -375.1,731.2 -376.2,731.2 -376.9,736.5 "/>
<polyline fill="#FFFFFF" stroke="#000000" stroke-width="0.7239" points="-370.5,740.2 -366.3,736.8 -366.8,735.9 -371.8,737.9 "/>
<polyline fill="#FFFFFF" stroke="#000000" stroke-width="0.7239" points="-371.8,745.3 -366.8,747.3 -366.2,746.4 -370.5,743.1 "/>
<circle fill="#FFFFFF" stroke="#000000" stroke-width="0.7239" cx="-375.6" cy="741.6" r="5.7"/>
<circle fill="#FFFFFF" stroke="#000000" stroke-width="0.7239" cx="-375.6" cy="741.6" r="3"/>
<path fill="#259271" d="M-337.5,707.5c-1.1,0.9-1.4,2.4-1.6,3.2c-0.4-0.7-1.5,0.2-1.5,1.9c-0.4-0.4-1.3,1.9-1.1,3.3
	c-0.7,0-0.7,2.8-0.6,4c-0.6,0.2-0.6,1.3-0.5,2.6l1.1,1.4c1.9-0.9,4.2-3.3,3.2-3.2c0.6-1.9,1.2-3.6,0.6-3.2c0.9-2.4,1.3-4.1,0.7-3.8
	c0.9-1.3,2-2.7,1.3-2.5c1.2-1.2,2.5-2.6,1.6-2.5c0.9-0.7,1.3-1.3,1.3-1.6"/>
<path fill="#259271" d="M-332.5,707.2c-0.2,1.3,0.1,2.4,0.5,3.4c-0.7-0.2-0.8,0.1-0.5,1.4c-0.7,0.2-0.4,2.2,0.4,3.5
	c-0.5,0.4-0.6,1.5-0.1,2.6c-0.7,0-1.2,2.8-1.1,3.6c-0.7-0.2-1.4,0.9-2.1,2c-0.4-0.6-1.4-0.4-2.1,0.6c-0.5-0.2-3.9,0.9-4.8,1.8
	l0.4,3.3c1.4,0.5,4.8,0.2,4-0.7c1.6,0.1,3.6-0.9,2.9-1.2c2.1-0.4,3.8-1.8,2.9-1.9c1.6-0.9,2.7-2.8,1.9-2.8c1.1-0.5,3.1-3.8,1.9-3.6
	c1.1-1.4,1.2-4.6,0.2-3.6c0.4-1.6,0.4-4.2-0.5-3.5c0.2-1.9,0.6-3.2-0.2-2.7c0.1-0.8,0.2-1.8,0-2.2"/>
<path fill="#259271" d="M-375.6,723.8c2.1-1.1,2.8-0.7,2.7,0.1c1.8-0.2,4.2,0.2,3.4,1.1c1.5-0.6,3.9-0.2,3.2,0.8
	c1.5-0.5,3.3-1.5,3.3-0.7c1.8-0.9,4.2-1.1,3.5,0c1.3-0.4,2.7-0.9,3.9-0.6l0.1,2.2c-0.8,0.9-2.7,1.4-3.5,1.8c0.7,0.5-0.1,0.9-1.4,0.6
	c0,0.5-1.6,1.1-3.1,0.2c0.1,0.6-0.8,0.8-1.9-0.1c-0.2,0.5-0.7,0.9-2.2-0.4c-0.5,0.2-1.4,0-2.1-0.9c-0.5,0.5-1.8,0-2.6-0.9
	c-0.7,0.4-0.8,0.2-1.5-0.6s-1.1-1.4-1.8-1.5"/>
<path fill="#259271" d="M-375.6,728.5c1.2,0.8,3.9,0.1,4.6,1.5c0.5-0.2,1.3,0,1.6,0.8c0.8-0.4,2,0,2.5,0.9c1.2-0.2,2.2,0,3.1,0.7
	c0.9-0.7,1.9-0.9,2.2-0.1c1.6-1.3,3.3-2.1,3.3-0.8c0.5-0.7,2.4-1.8,3.2-1.8l0.5,1.2c-0.6,1.2-1.9,2.4-2.5,2.7
	c0.5,0.4-0.8,1.2-1.4,1.4c0.2,0.7-0.8,1.3-1.9,0.8c-0.2,0.8-1.3,0.6-2.8-0.6c0.1,0.8-2.1,1.3-3.2,0.6c-0.6,0.5-2.6-0.2-3.2-1.4
	c-0.7,0.4-1.8,0-2.2-1.1c-0.7,0.6-1.4,0.2-1.8-0.9c-0.8,0.2-2.1-1.4-2-3.1"/>
<path fill="#259271" d="M-337.2,674.5c-1.2,0.9-1.9,2-0.9,2.9c-0.8,0.9-1.9,1.6-0.9,3.1c-0.2,1.3,0.1,2.4,0.9,2.9
	c-0.7,0.7-1.1,2.9,0,3.4c-0.2,1.2-0.5,1.6,0.8,2.4c-0.6,0.9-0.4,3.5,0.7,4.8h2.9c0.1-1.9,0.4-4-0.2-4.8c0.2-0.9,0.5-2.5-0.2-3.2
	c0.5-1.4,0.4-3.8-0.2-3.2c0.7-2.2,0.1-4.1-0.5-3.4c0.7-1.9,1.1-3.4,0.5-3.2c0.4-0.9,2-3.2,0.7-2.8"/>
<path fill="#259271" d="M-332,673.7c-0.4,1.4,0.8,2.5,1.3,3.3c-1.1-0.1-0.5,0.9,0.4,2.6c-0.9,0-0.8,0.7-0.4,2.7
	c-0.7,0.1-0.7,1.6-0.4,2.9c-0.7,0.2-0.3,1.8-0.1,2.9c-0.6,0.2-0.6,1.6-0.4,2.7c-0.5,0.1-1.5,2.6-1.1,3.5l2.2,0.4
	c1.5-1.5,2.9-4,2.1-3.8c1.3-1.8,2.8-5.4,1.5-4.9c0.8-1.5,1.4-4.5,0.5-3.9c0.2-2,0-4.2-0.5-3.4c0.2-1.4-0.6-3.6-0.9-2.9
	c-0.1-0.8-0.1-2.1-1.1-2.7"/>
<path fill="#259271" d="M-337.2,643.8c-0.9,0.9-1.1,2.2-0.5,2.8c-0.6,1.2,0.4,2.5,1.1,3.1c-0.8,1.4-0.7,3.4,0,3.8
	c-0.6,0.8-0.8,2.2-0.1,2.8c-0.7,1.1-0.4,2.8,0.8,3.8l2.6,0.1c0-1.5,0.4-2.6-0.4-3.6c-0.7-1.1,0-1.5,0-2.7s0-1.2-0.6-2.4
	c-0.6-1.2,1.2-3.4,0.2-4.5c-0.9-1.1-0.4-2.9-0.8-3.9s-0.6-0.9-1.2-1.3"/>
<path fill="#259271" d="M-334.2,640.6c0.2,1.1,0.5,2.2,1.2,3.2c0.7,0.9,0.4,1.4,0.9,2.8c0.6,1.4,0.2,2.1-0.1,3.3
	c-0.4,1.2,0.1,1.9,0.6,3.1s-0.2,1.9-0.4,2.8c-0.2,0.9-1.5,3.8-0.5,4.8h2.1c0.7-1.3,0.8-2.1,0.7-3.1c-0.1-0.9,0.2-1.5,0.8-2.1
	c0.6-0.6,1.1-2.6,0.5-3.1s-0.7-1.5-0.2-2s0.5-1.5,0.1-1.8c0.5-0.7,0.8-2.1,0.2-2.6c0.2-1.2,0-2.4-1.2-2.7c0.1-0.9-2.4-4-3.4-4"/>
<path fill="#259271" d="M-413.7,707.5c1.1,0.9,1.4,2.4,1.6,3.2c0.4-0.7,1.5,0.2,1.5,1.9c0.4-0.4,1.3,1.9,1.1,3.3
	c0.7,0,0.7,2.8,0.6,4c0.6,0.2,0.6,1.3,0.5,2.6l-1.1,1.4c-1.9-0.9-4.2-3.3-3.2-3.2c-0.6-1.9-1.2-3.6-0.6-3.2
	c-0.9-2.4-1.3-4.1-0.7-3.8c-0.9-1.3-2-2.7-1.3-2.5c-1.2-1.2-2.5-2.6-1.6-2.5c-0.9-0.7-1.3-1.3-1.3-1.6"/>
<path fill="#259271" d="M-418.7,707.2c0.2,1.3-0.1,2.4-0.5,3.4c0.7-0.2,0.8,0.1,0.5,1.4c0.7,0.2,0.4,2.2-0.4,3.5
	c0.5,0.4,0.6,1.5,0.1,2.6c0.7,0,1.2,2.8,1.1,3.6c0.7-0.2,1.4,0.9,2.1,2c0.4-0.6,1.4-0.4,2.1,0.6c0.5-0.2,3.9,0.9,4.8,1.8l-0.4,3.3
	c-1.4,0.5-4.8,0.2-4-0.7c-1.6,0.1-3.6-0.9-2.9-1.2c-2.1-0.4-3.8-1.8-2.9-1.9c-1.6-0.9-2.7-2.8-1.9-2.8c-1.1-0.5-3.1-3.8-1.9-3.6
	c-1.1-1.4-1.2-4.6-0.2-3.6c-0.4-1.6-0.4-4.2,0.5-3.5c-0.2-1.9-0.6-3.2,0.2-2.7c-0.1-0.8-0.2-1.8,0-2.2"/>
<path fill="#259271" d="M-375.6,723.8c-2.1-1.1-2.8-0.7-2.7,0.1c-1.8-0.2-4.2,0.2-3.4,1.1c-1.5-0.6-3.9-0.2-3.2,0.8
	c-1.5-0.5-3.3-1.5-3.3-0.7c-1.8-0.9-4.2-1.1-3.5,0c-1.3-0.4-2.7-0.9-3.9-0.6l-0.1,2.2c0.8,0.9,2.7,1.4,3.5,1.8
	c-0.7,0.5,0.1,0.9,1.4,0.6c0,0.5,1.6,1.1,3.1,0.2c-0.1,0.6,0.8,0.8,1.9-0.1c0.2,0.5,0.7,0.9,2.2-0.4c0.5,0.2,1.4,0,2.1-0.9
	c0.5,0.5,1.8,0,2.6-0.9c0.7,0.4,0.8,0.2,1.5-0.6s1.1-1.4,1.8-1.5"/>
<path fill="#259271" d="M-375.6,728.5c-1.2,0.8-3.9,0.1-4.6,1.5c-0.5-0.2-1.3,0-1.6,0.8c-0.8-0.4-2,0-2.5,0.9
	c-1.2-0.2-2.2,0-3.1,0.7c-0.9-0.7-1.9-0.9-2.2-0.1c-1.6-1.3-3.3-2.1-3.3-0.8c-0.5-0.7-2.4-1.8-3.2-1.8l-0.5,1.2
	c0.6,1.2,1.9,2.4,2.5,2.7c-0.5,0.4,0.8,1.2,1.4,1.4c-0.2,0.7,0.8,1.3,1.9,0.8c0.2,0.8,1.3,0.6,2.8-0.6c-0.1,0.8,2.1,1.3,3.2,0.6
	c0.6,0.5,2.6-0.2,3.2-1.4c0.7,0.4,1.8,0,2.2-1.1c0.7,0.6,1.4,0.2,1.8-0.9c0.8,0.2,2.1-1.4,2-3.1"/>
<path fill="#259271" d="M-414,674.5c1.2,0.9,1.9,2,0.9,2.9c0.8,0.9,1.9,1.6,0.9,3.1c0.2,1.3-0.1,2.4-0.9,2.9c0.7,0.7,1.1,2.9,0,3.4
	c0.2,1.2,0.5,1.6-0.8,2.4c0.6,0.9,0.4,3.5-0.7,4.8h-2.9c-0.1-1.9-0.4-4,0.2-4.8c-0.2-0.9-0.5-2.5,0.2-3.2c-0.5-1.4-0.4-3.8,0.2-3.2
	c-0.7-2.2-0.1-4.1,0.5-3.4c-0.7-1.9-1.1-3.4-0.5-3.2c-0.4-0.9-2-3.2-0.7-2.8"/>
<path fill="#259271" d="M-419.2,673.7c0.4,1.4-0.8,2.5-1.3,3.3c1.1-0.1,0.5,0.9-0.4,2.6c0.9,0,0.8,0.7,0.4,2.7
	c0.7,0.1,0.7,1.6,0.4,2.9c0.7,0.2,0.4,1.8,0.1,2.9c0.6,0.2,0.6,1.6,0.4,2.7c0.5,0.1,1.5,2.6,1.1,3.5l-2.2,0.4
	c-1.5-1.5-2.9-4-2.1-3.8c-1.3-1.8-2.8-5.4-1.5-4.9c-0.8-1.5-1.4-4.5-0.5-3.9c-0.2-2,0-4.2,0.5-3.4c-0.2-1.4,0.6-3.6,0.9-2.9
	c0.1-0.8,0.1-2.1,1.1-2.7"/>
<path fill="#259271" d="M-414,643.8c0.9,0.9,1.1,2.2,0.5,2.8c0.6,1.2-0.4,2.5-1.1,3.1c0.8,1.4,0.7,3.4,0,3.8
	c0.6,0.8,0.8,2.2,0.1,2.8c0.7,1.1,0.4,2.8-0.8,3.8l-2.6,0.1c0-1.5-0.4-2.6,0.4-3.6c0.7-1.1,0-1.5,0-2.7s0-1.2,0.6-2.4
	c0.6-1.2-1.2-3.4-0.2-4.5c0.9-1.1,0.4-2.9,0.8-3.9c0.5-0.9,0.6-0.9,1.2-1.3"/>
<path fill="#259271" d="M-417,640.6c-0.2,1.1-0.5,2.2-1.2,3.2c-0.7,0.9-0.4,1.4-0.9,2.8c-0.6,1.4-0.2,2.1,0.1,3.3
	c0.4,1.2-0.1,1.9-0.6,3.1s0.2,1.9,0.4,2.8c0.1,0.9,1.5,3.8,0.5,4.8h-2.1c-0.7-1.3-0.8-2.1-0.7-3.1c0.1-0.9-0.2-1.5-0.8-2.1
	c-0.6-0.6-1.1-2.6-0.5-3.1c0.6-0.5,0.7-1.5,0.2-2s-0.5-1.5-0.1-1.8c-0.5-0.7-0.8-2.1-0.2-2.6c-0.2-1.2,0-2.4,1.2-2.7
	c-0.1-0.9,2.4-4,3.4-4"/>
<polygon fill="#F0C560" stroke="#000000" stroke-width="0.7239" points="-327.5,707.9 -330.1,699.6 -336.6,699.6 -339.2,707.9 "/>
<rect x="-336.6" y="695.7" fill="#F0C560" stroke="#000000" stroke-width="0.7239" width="6.5" height="3.9"/>
<path fill="#F0C560" stroke="#000000" stroke-width="0.7239" d="M-330.1,695.7h-6.5l-2.4-2.5c0.7-0.8,1.2-0.8,1.9-1.1l1.1,1.3h1.3
	v-1.8h2.3v1.9h1.5l0.7-1.3c0.8,0.5,1.6,1.1,2,1.5L-330.1,695.7z"/>
<rect x="-334.5" y="695.7" fill="#F0C560" stroke="#000000" stroke-width="0.7239" width="2" height="3.9"/>
<path fill="#F0C560" stroke="#000000" stroke-width="0.7239" d="M-336,707.9l0.8-3.8c0.4-1.9,2.5-1.9,3.1,0l0.9,3.8H-336z"/>
<polygon fill="#F0C560" stroke="#000000" stroke-width="0.7239" points="-327.5,674.4 -330.1,666.1 -336.6,666.1 -339.2,674.4 "/>
<rect x="-336.6" y="662.2" fill="#F0C560" stroke="#000000" stroke-width="0.7239" width="6.5" height="3.9"/>
<path fill="#F0C560" stroke="#000000" stroke-width="0.7239" d="M-330.1,662.2h-6.5l-2.4-2.5c0.7-0.8,1.2-0.8,1.9-1.1l1.1,1.3h1.3
	v-1.8h2.3v1.9h1.5l0.7-1.3c0.8,0.5,1.6,1.1,2,1.5L-330.1,662.2z"/>
<rect x="-334.5" y="662.2" fill="#F0C560" stroke="#000000" stroke-width="0.7239" width="2" height="3.9"/>
<path fill="#F0C560" stroke="#000000" stroke-width="0.7239" d="M-336,674.4l0.8-3.9c0.4-1.9,2.5-1.9,3.1,0l0.9,3.9H-336z"/>
<polygon fill="#F0C560" stroke="#000000" stroke-width="0.7239" points="-330.7,638.3 -338.1,633.6 -343,637.8 -339.6,645.8 "/>
<rect x="-345.1" y="632.3" transform="matrix(0.7647 -0.6444 0.6444 0.7647 -489.1281 -71.0429)" fill="#F0C560" stroke="#000000" stroke-width="0.7239" width="6.5" height="3.9"/>
<path fill="#F0C560" stroke="#000000" stroke-width="0.7239" d="M-340.6,630.7l-4.9,4.2l-3.4-0.4c0-1.1,0.4-1.4,0.8-2l1.6,0.3l1-0.8
	l-1.1-1.3l1.8-1.5l1.2,1.4l1.2-1l-0.3-1.4c0.9-0.2,1.9-0.3,2.5-0.1L-340.6,630.7z"/>
<rect x="-342.9" y="632.3" transform="matrix(0.7646 -0.6446 0.6446 0.7646 -489.2982 -71.0448)" fill="#F0C560" stroke="#000000" stroke-width="0.7239" width="2" height="3.9"/>
<path fill="#F0C560" stroke="#000000" stroke-width="0.7239" d="M-337.2,643.8l-1.9-3.5c-0.9-1.7,0.7-3,2.3-2l3.2,2.3L-337.2,643.8z
	"/>
<polygon fill="#F0C560" stroke="#000000" stroke-width="0.7239" points="-355.3,734.2 -347.4,730.6 -348.2,724.2 -356.8,722.7 "/>
<rect x="-349.2" y="725.2" transform="matrix(0.1248 0.9922 -0.9922 0.1248 418.7173 979.6124)" fill="#F0C560" stroke="#000000" stroke-width="0.7239" width="6.5" height="3.9"/>
<path fill="#F0C560" stroke="#000000" stroke-width="0.7239" d="M-343.6,730.1l-0.8-6.4l2.2-2.6c0.9,0.6,1,1.1,1.3,1.7l-1.1,1.2
	l0.2,1.3l1.8-0.2l0.3,2.3l-1.9,0.2l0.2,1.5l1.4,0.5c-0.4,0.9-0.8,1.8-1.3,2.2L-343.6,730.1z"/>
<rect x="-346.9" y="725.1" transform="matrix(0.1242 0.9923 -0.9923 0.1242 418.467 979.9658)" fill="#F0C560" stroke="#000000" stroke-width="0.7239" width="2" height="3.9"/>
<path fill="#F0C560" stroke="#000000" stroke-width="0.7239" d="M-356.4,725.8l3.9,0.3c1.9,0.1,2.2,2.2,0.4,3l-3.7,1.4L-356.4,725.8
	z"/>
<polygon fill="#F0C560" stroke="#000000" stroke-width="0.7239" points="-423.7,707.9 -421.1,699.6 -414.6,699.6 -412,707.9 "/>
<rect x="-421.1" y="695.7" fill="#F0C560" stroke="#000000" stroke-width="0.7239" width="6.5" height="3.9"/>
<path fill="#F0C560" stroke="#000000" stroke-width="0.7239" d="M-421.1,695.7h6.5l2.4-2.5c-0.7-0.8-1.2-0.8-1.9-1.1l-1.1,1.3h-1.3
	v-1.8h-2.4v1.9h-1.5l-0.7-1.3c-0.8,0.5-1.6,1.1-2,1.5L-421.1,695.7z"/>
<rect x="-418.7" y="695.7" fill="#F0C560" stroke="#000000" stroke-width="0.7239" width="2" height="3.9"/>
<path fill="#F0C560" stroke="#000000" stroke-width="0.7239" d="M-415.2,707.9l-0.8-3.8c-0.4-1.9-2.5-1.9-3.1,0l-0.9,3.8H-415.2z"/>
<polygon fill="#F0C560" stroke="#000000" stroke-width="0.7239" points="-423.7,674.4 -421.1,666.1 -414.6,666.1 -412,674.4 "/>
<rect x="-421.1" y="662.2" fill="#F0C560" stroke="#000000" stroke-width="0.7239" width="6.5" height="3.9"/>
<path fill="#F0C560" stroke="#000000" stroke-width="0.7239" d="M-421.1,662.2h6.5l2.4-2.5c-0.7-0.8-1.2-0.8-1.9-1.1l-1.1,1.3h-1.3
	v-1.8h-2.4v1.9h-1.5l-0.7-1.3c-0.8,0.5-1.6,1.1-2,1.5L-421.1,662.2z"/>
<rect x="-418.7" y="662.2" fill="#F0C560" stroke="#000000" stroke-width="0.7239" width="2" height="3.9"/>
<path fill="#F0C560" stroke="#000000" stroke-width="0.7239" d="M-415.2,674.4l-0.8-3.9c-0.4-1.9-2.5-1.9-3.1,0l-0.9,3.9H-415.2z"/>
<polygon fill="#F0C560" stroke="#000000" stroke-width="0.7239" points="-420.5,638.3 -413.1,633.6 -408.2,637.8 -411.6,645.8 "/>
<rect x="-412.6" y="632.3" transform="matrix(-0.7647 -0.6444 0.6444 -0.7647 -1131.1533 855.5014)" fill="#F0C560" stroke="#000000" stroke-width="0.7239" width="6.5" height="3.9"/>
<path fill="#F0C560" stroke="#000000" stroke-width="0.7239" d="M-410.6,630.7l4.9,4.2l3.4-0.4c0-1.1-0.4-1.4-0.8-2l-1.6,0.3l-1-0.8
	l1.1-1.3l-1.8-1.5l-1.2,1.4l-1.2-1l0.3-1.4c-0.9-0.2-1.9-0.3-2.5-0.1L-410.6,630.7z"/>
<rect x="-410.4" y="632.4" transform="matrix(-0.7645 -0.6447 0.6447 -0.7645 -1131.2271 855.389)" fill="#F0C560" stroke="#000000" stroke-width="0.7239" width="2" height="3.9"/>
<path fill="#F0C560" stroke="#000000" stroke-width="0.7239" d="M-414,643.8l1.9-3.5c0.9-1.7-0.7-3-2.3-2l-3.2,2.3L-414,643.8z"/>
<polygon fill="#F0C560" stroke="#000000" stroke-width="0.7239" points="-395.8,734.2 -403.8,730.6 -403,724.2 -394.4,722.7 "/>
<rect x="-408.6" y="725.2" transform="matrix(-0.1247 0.9922 -0.9922 -0.1247 265.5953 1219.9465)" fill="#F0C560" stroke="#000000" stroke-width="0.7239" width="6.5" height="3.9"/>
<path fill="#F0C560" stroke="#000000" stroke-width="0.7239" d="M-407.6,730.1l0.8-6.4l-2.2-2.6c-0.9,0.6-1,1.1-1.3,1.7l1.2,1.2
	l-0.2,1.3l-1.8-0.2l-0.3,2.3l1.9,0.2l-0.2,1.5l-1.4,0.5c0.4,0.9,0.8,1.8,1.3,2.2L-407.6,730.1z"/>
<rect x="-406.3" y="725.1" transform="matrix(-0.1252 0.9921 -0.9921 -0.1252 265.3062 1220.2083)" fill="#F0C560" stroke="#000000" stroke-width="0.7239" width="2" height="3.9"/>
<path fill="#F0C560" stroke="#000000" stroke-width="0.7239" d="M-394.8,725.8l-3.9,0.3c-1.9,0.1-2.2,2.2-0.4,3l3.7,1.4
	L-394.8,725.8z"/>
<path d="M-343.7,656.4c-0.8,0.7,0,2.4,1.1,1.3l1.9-2c1.1,0.7,2.1,0.8,3.4,0.9c-2.1-1.3-4.5-3.9-5.1-5.8c-0.2,1.2,0.1,2.8,0.5,3.8
	L-343.7,656.4z"/>
<path d="M-340.9,653.6l14.5-14.2c1.1-0.9,1.6-0.8,2.3-0.9c-0.2,0.6-0.8,1.3-1.3,2l-14.6,14.2"/>
<path d="M-343.6,689.3c-0.9,0.6-0.2,2.3,0.9,1.4l2.1-1.8c1,0.8,2,1,3.3,1.3c-2-1.5-4-4.3-4.4-6.3c-0.4,1.1-0.2,2.8,0.1,3.8
	L-343.6,689.3z"/>
<path d="M-340.5,686.8l15.9-12.6c1.2-0.8,1.7-0.6,2.4-0.7c-0.3,0.6-1,1.2-1.5,1.8l-16,12.6"/>
<path d="M-345.9,717.2c-1,0.3-1,2.1,0.4,1.6l2.5-1c0.7,1.1,1.6,1.6,2.7,2.3c-1.4-2.1-2.4-5.4-2.2-7.4c-0.7,1-1.1,2.6-1.2,3.6
	L-345.9,717.2z"/>
<path d="M-342.2,715.8l19.1-6.8c1.4-0.4,1.8-0.1,2.5,0.1c-0.5,0.4-1.3,0.8-2,1.3l-19.2,6.8"/>
<path d="M-368,719.5c-0.5-0.9-2.3-0.5-1.5,0.8l1.6,2.2c-0.9,0.9-1.2,1.9-1.6,3.2c1.7-1.8,4.7-3.6,6.6-3.8c-1.1-0.5-2.8-0.4-3.8-0.3
	L-368,719.5z"/>
<path d="M-365.8,722.8l11.1,16.9c0.7,1.2,0.5,1.8,0.5,2.5c-0.5-0.3-1.1-1.1-1.7-1.7l-11.1-17.1"/>
<path d="M-407.4,656.4c0.8,0.7,0,2.4-1.1,1.3l-1.9-2c-1.1,0.7-2.1,0.8-3.4,0.9c2.1-1.3,4.5-3.9,5.1-5.8c0.2,1.2-0.1,2.8-0.5,3.8
	L-407.4,656.4z"/>
<path d="M-410.3,653.6l-14.5-14.2c-1.1-0.9-1.6-0.8-2.4-0.9c0.2,0.6,0.8,1.3,1.3,2l14.6,14.2"/>
<path d="M-407.6,689.3c0.9,0.6,0.3,2.3-0.9,1.4l-2.1-1.8c-1,0.8-2,1-3.3,1.3c2-1.5,4-4.3,4.4-6.3c0.4,1.1,0.2,2.8-0.1,3.8
	L-407.6,689.3z"/>
<path d="M-410.7,686.8l-15.9-12.6c-1.2-0.8-1.7-0.6-2.4-0.7c0.3,0.6,1,1.2,1.5,1.9l16,12.6"/>
<path d="M-405.3,717.2c1,0.3,1,2.1-0.4,1.6l-2.5-1c-0.7,1.1-1.6,1.6-2.7,2.3c1.4-2.1,2.4-5.4,2.2-7.4c0.7,1,1.1,2.6,1.2,3.6
	L-405.3,717.2z"/>
<path d="M-409,715.8l-19.1-6.8c-1.4-0.4-1.8-0.1-2.5,0.1c0.5,0.4,1.3,0.8,2,1.3l19.2,6.8"/>
<path d="M-383.2,719.5c0.5-0.9,2.3-0.5,1.5,0.8l-1.6,2.2c0.9,0.9,1.2,1.9,1.6,3.2c-1.7-1.8-4.7-3.6-6.6-3.8c1.1-0.5,2.8-0.4,3.8-0.3
	L-383.2,719.5z"/>
<path d="M-385.4,722.8l-11.1,16.9c-0.7,1.2-0.5,1.8-0.5,2.5c0.5-0.3,1.1-1.1,1.7-1.7l11.1-17.1"/>
<circle fill="#CC1E4C" stroke="#000000" stroke-width="0.7239" cx="-375.6" cy="727.4" r="3.7"/>
<path fill="#F0C560" stroke="#000000" stroke-width="0.7239" d="M-399.5,684.7c4-3.3,12.2-3.6,17.2-0.4l2-1.6
	c-5.8-4-15.9-3.9-21,0.2"/>
<path fill="#65493C" stroke="#000000" stroke-width="0.7239" d="M-387.3,684.4c0.7-0.4,2,0.1,2.1,0.9c0.1,0.8,1.3,2.9,3.6,2.2
	c2.3-0.7,0.5-4.2,1.6-5.4c-1.1,0.5-2.5,1.4-3.1,2.2c-0.6,0.8-1.2,0.5-1.4-0.6c-0.2-1.1-1.3-1.5-1.9-0.8
	C-386.9,683.7-387.3,684.4-387.3,684.4z"/>
<polygon fill="#F0C560" stroke="#000000" stroke-width="0.7239" points="-386.1,711.3 -384.5,688.7 -380.7,688.7 -379.1,711.3 "/>
<path fill="#F0C560" stroke="#000000" stroke-width="0.7239" d="M-385.2,699.1h5.2l1.9-2.5c-0.6-0.8-0.9-0.8-1.5-1.1l-0.8,1.3h-1
	V695h-1.9v1.9h-1.2l-0.6-1.3c-0.7,0.5-1.3,1.1-1.6,1.5L-385.2,699.1z"/>
<path fill="#F0C560" stroke="#000000" stroke-width="0.7239" d="M-381,711.3l-0.5-3.8c-0.2-1.9-1.5-1.9-1.8,0l-0.6,3.8H-381z"/>
<path fill="#F0C560" stroke="#000000" stroke-width="0.7239" d="M-384.5,688.7h3.8l1.4-1.8c-0.4-0.6-0.7-0.6-1.1-0.8l-0.6,1h-0.8
	v-1.3h-1.4v1.4h-0.9l-0.4-1c-0.5,0.3-1,0.8-1.2,1.1L-384.5,688.7z"/>
<path fill="#65493C" stroke="#000000" stroke-width="0.7239" d="M-395.1,684.4c-0.7-0.4-2,0.1-2.1,0.9s-1.3,2.9-3.6,2.2
	s-0.5-4.2-1.6-5.4c1.1,0.5,2.5,1.4,3.1,2.2c0.6,0.8,1.2,0.5,1.4-0.6c0.2-1.1,1.3-1.5,1.9-0.8C-395.6,683.7-395.1,684.4-395.1,684.4z
	"/>
<polygon fill="#F0C560" stroke="#000000" stroke-width="0.7239" points="-396.4,711.3 -397.9,688.7 -401.8,688.7 -403.3,711.3 "/>
<path fill="#F0C560" stroke="#000000" stroke-width="0.7239" d="M-397.2,699.1h-5.2l-1.9-2.5c0.6-0.8,0.9-0.8,1.5-1.1l0.8,1.3h1V695
	h1.9v1.9h1.2l0.6-1.3c0.7,0.5,1.3,1.1,1.6,1.5L-397.2,699.1z"/>
<path fill="#F0C560" stroke="#000000" stroke-width="0.7239" d="M-401.4,711.3l0.5-3.8c0.2-1.9,1.5-1.9,1.8,0l0.6,3.8H-401.4z"/>
<path fill="#F0C560" stroke="#000000" stroke-width="0.7239" d="M-397.9,688.7h-3.8l-1.4-1.8c0.4-0.6,0.7-0.6,1.1-0.8l0.6,1h0.8
	v-1.3h1.4v1.4h0.9l0.4-1c0.5,0.3,1,0.8,1.2,1.1L-397.9,688.7z"/>
<path fill="#1879BF" stroke="#000000" stroke-width="0.7239" d="M-394.2,698.4l-0.8,13.2h6.9l-1.1-13.4c-0.1-0.8,0-2,0.5-2.8
	s0.4-3.4,0.4-5.2c0-1.8-0.9-2.6-1.5-2.7l-1.3-0.2h-1.2c-2,0.7-2.2,1.5-2.5,3.1c-0.2,1.5-0.2,3.5-0.6,4.3
	C-395.7,695.4-395.6,697.7-394.2,698.4z"/>
<polyline fill="#F0C560" stroke="#000000" stroke-width="0.7239" points="-393,684.3 -393.6,682.4 -392.6,683 -391.9,682.2 
	-391.6,683.2 -390.5,682.4 -390,683.6 -389.3,683 -390.2,685.1 "/>
<path fill="#E6AC86" stroke="#000000" stroke-width="0.7239" d="M-393,687c-0.1-0.8-0.4-3.1,0.5-3.1s2.4,0,2.4,1.6
	C-390.2,688.2-392.6,689.1-393,687z"/>
<path fill="#E6AC86" stroke="#000000" stroke-width="0.7239" d="M-393.7,695.6c-0.8,0.9-0.9,2.4-0.1,2.6s1.4-0.8,1.4-1.6
	C-392.4,695.7-393.5,695.1-393.7,695.6z"/>
<path fill="#F0C560" stroke="#000000" stroke-width="0.7239" d="M-368.5,647.8c4-3.3,12.2-3.6,17.2-0.4l2-1.6
	c-5.8-4-15.9-3.9-21,0.2"/>
<path fill="#65493C" stroke="#000000" stroke-width="0.7239" d="M-356.4,647.5c0.7-0.4,2,0.1,2.1,0.9c0.1,0.8,1.3,2.9,3.6,2.2
	c2.3-0.7,0.5-4.2,1.6-5.4c-1.1,0.5-2.5,1.4-3.1,2.2c-0.6,0.8-1.2,0.5-1.4-0.6c-0.2-1.1-1.3-1.5-1.9-0.8
	C-356,646.8-356.4,647.5-356.4,647.5z"/>
<polygon fill="#F0C560" stroke="#000000" stroke-width="0.7239" points="-355.1,674.4 -353.6,651.8 -349.8,651.8 -348.2,674.4 "/>
<path fill="#F0C560" stroke="#000000" stroke-width="0.7239" d="M-354.3,662.2h5.2l1.9-2.5c-0.6-0.8-0.9-0.8-1.5-1.1l-0.8,1.3h-1
	v-1.8h-1.9v1.9h-1.2l-0.6-1.3c-0.7,0.5-1.3,1.1-1.6,1.5L-354.3,662.2z"/>
<path fill="#F0C560" stroke="#000000" stroke-width="0.7239" d="M-350.1,674.4l-0.5-3.9c-0.2-1.9-1.5-1.9-1.8,0l-0.6,3.9H-350.1z"/>
<path fill="#F0C560" stroke="#000000" stroke-width="0.7239" d="M-353.6,651.8h3.8l1.4-1.8c-0.4-0.6-0.7-0.6-1.1-0.8l-0.6,1h-0.8
	v-1.3h-1.4v1.4h-0.9l-0.4-1c-0.5,0.3-1,0.8-1.2,1.1L-353.6,651.8z"/>
<path fill="#65493C" stroke="#000000" stroke-width="0.7239" d="M-364.2,647.5c-0.7-0.4-2,0.1-2.1,0.9c-0.1,0.8-1.3,2.9-3.6,2.2
	c-2.3-0.7-0.5-4.2-1.6-5.4c1.1,0.5,2.5,1.4,3.1,2.2c0.6,0.8,1.2,0.5,1.4-0.6c0.2-1.1,1.3-1.5,1.9-0.8
	C-364.7,646.8-364.2,647.5-364.2,647.5z"/>
<polygon fill="#F0C560" stroke="#000000" stroke-width="0.7239" points="-365.5,674.4 -367,651.8 -370.9,651.8 -372.4,674.4 "/>
<path fill="#F0C560" stroke="#000000" stroke-width="0.7239" d="M-366.3,662.2h-5.2l-1.9-2.5c0.6-0.8,0.9-0.8,1.5-1.1l0.8,1.3h1
	v-1.8h1.9v1.9h1.2l0.6-1.3c0.7,0.5,1.3,1.1,1.6,1.5L-366.3,662.2z"/>
<path fill="#F0C560" stroke="#000000" stroke-width="0.7239" d="M-370.5,674.4l0.5-3.9c0.2-1.9,1.5-1.9,1.8,0l0.6,3.9H-370.5z"/>
<path fill="#F0C560" stroke="#000000" stroke-width="0.7239" d="M-367,651.8h-3.8l-1.4-1.8c0.4-0.6,0.7-0.6,1.1-0.8l0.6,1h0.8v-1.3
	h1.4v1.4h0.9l0.4-1c0.5,0.3,1,0.8,1.2,1.1L-367,651.8z"/>
<path fill="#1879BF" stroke="#000000" stroke-width="0.7239" d="M-363.3,661.5l-0.8,13.2h6.9l-1.1-13.4c-0.1-0.8,0-2,0.5-2.8
	s0.4-3.4,0.4-5.2s-0.9-2.6-1.5-2.7l-1.3-0.2h-1.2c-2,0.7-2.2,1.5-2.5,3.1c-0.2,1.5-0.2,3.5-0.6,4.3
	C-364.8,658.5-364.7,660.8-363.3,661.5z"/>
<polyline fill="#F0C560" stroke="#000000" stroke-width="0.7239" points="-362.1,647.4 -362.7,645.5 -361.7,646.1 -361,645.3 
	-360.7,646.3 -359.6,645.5 -359.1,646.7 -358.4,646.1 -359.3,648.2 "/>
<path fill="#E6AC86" stroke="#000000" stroke-width="0.7239" d="M-362.1,650.1c-0.1-0.8-0.4-3.1,0.5-3.1s2.4,0,2.4,1.6
	C-359.3,651.3-361.7,652.2-362.1,650.1z"/>
<path fill="#E6AC86" stroke="#000000" stroke-width="0.7239" d="M-362.8,658.7c-0.8,0.9-0.9,2.4-0.1,2.6c0.8,0.2,1.4-0.8,1.4-1.6
	C-361.5,658.9-362.5,658.2-362.8,658.7z"/>
<polygon fill="#F0C560" stroke="#000000" stroke-width="0.7239" points="-347.5,713.2 -348.9,708.6 -352.5,708.6 -353.9,713.2 "/>
<path fill="#F0C560" stroke="#000000" stroke-width="0.7239" d="M-348.9,708.6h-3.5l-0.9-1.4c0.4-0.5,0.6-0.5,1-0.6l0.2,0.7h0.7v-1
	h1.3v1h0.5l0.4-0.7c0.5,0.3,0.8,0.6,1,0.8L-348.9,708.6z"/>
<path fill="#F0C560" stroke="#000000" stroke-width="0.7239" d="M-352.1,713.2l0.5-2.1c0.2-1,1.4-1,1.7,0l0.5,2.1H-352.1z"/>
<polygon fill="#F0C560" stroke="#000000" stroke-width="0.7239" points="-347.8,699.6 -349.2,695.1 -352.8,695.1 -354.2,699.6 "/>
<path fill="#F0C560" stroke="#000000" stroke-width="0.7239" d="M-349.2,695.1h-3.5l-0.9-1.4c0.4-0.5,0.6-0.5,1-0.6l0.2,0.7h0.7v-1
	h1.3v1h0.5l0.4-0.7c0.4,0.3,0.8,0.6,1,0.8L-349.2,695.1z"/>
<path fill="#F0C560" stroke="#000000" stroke-width="0.7239" d="M-352.5,699.6l0.5-2.1c0.2-1,1.4-1,1.7,0l0.5,2.1H-352.5z"/>
<polygon fill="#F0C560" stroke="#000000" stroke-width="0.7239" points="-347.5,687.9 -348.9,683.3 -352.5,683.3 -353.9,687.9 "/>
<path fill="#F0C560" stroke="#000000" stroke-width="0.7239" d="M-348.9,683.3h-3.5l-0.9-1.4c0.4-0.5,0.6-0.5,1-0.6l0.2,0.7h0.7v-1
	h1.3v1h0.5l0.4-0.7c0.5,0.3,0.8,0.6,1,0.8L-348.9,683.3z"/>
<path fill="#F0C560" stroke="#000000" stroke-width="0.7239" d="M-352.1,687.9l0.5-2.1c0.2-1,1.4-1,1.7,0l0.5,2.1H-352.1z"/>
<polygon fill="#F0C560" stroke="#000000" stroke-width="0.7239" points="-367.7,713.2 -369.1,708.6 -372.7,708.6 -374.1,713.2 "/>
<path fill="#F0C560" stroke="#000000" stroke-width="0.7239" d="M-369.1,708.6h-3.5l-0.9-1.4c0.4-0.5,0.6-0.5,1-0.6l0.2,0.7h0.7v-1
	h1.3v1h0.5l0.4-0.7c0.5,0.3,0.8,0.6,1,0.8L-369.1,708.6z"/>
<path fill="#F0C560" stroke="#000000" stroke-width="0.7239" d="M-372.4,713.2l0.5-2.1c0.2-1,1.4-1,1.7,0l0.5,2.1H-372.4z"/>
<polygon fill="#F0C560" stroke="#000000" stroke-width="0.7239" points="-367.7,699.6 -369.1,695.1 -372.7,695.1 -374.1,699.6 "/>
<path fill="#F0C560" stroke="#000000" stroke-width="0.7239" d="M-369.1,695.1h-3.5l-0.9-1.4c0.4-0.5,0.6-0.5,1-0.6l0.2,0.7h0.7v-1
	h1.3v1h0.5l0.4-0.7c0.5,0.3,0.8,0.6,1,0.8L-369.1,695.1z"/>
<path fill="#F0C560" stroke="#000000" stroke-width="0.7239" d="M-372.4,699.6l0.5-2.1c0.2-1,1.4-1,1.7,0l0.5,2.1H-372.4z"/>
<polygon fill="#F0C560" stroke="#000000" stroke-width="0.7239" points="-367.7,687.9 -369.1,683.3 -372.7,683.3 -374.1,687.9 "/>
<path fill="#F0C560" stroke="#000000" stroke-width="0.7239" d="M-369.1,683.3h-3.5l-0.9-1.4c0.4-0.5,0.6-0.5,1-0.6l0.2,0.7h0.7v-1
	h1.3v1h0.5l0.4-0.7c0.5,0.3,0.8,0.6,1,0.8L-369.1,683.3z"/>
<path fill="#F0C560" stroke="#000000" stroke-width="0.7239" d="M-372.4,687.9l0.5-2.1c0.2-1,1.4-1,1.7,0l0.5,2.1H-372.4z"/>
<polygon fill="#F0C560" stroke="#000000" stroke-width="0.7239" points="-357.3,687.9 -358.7,683.3 -362.2,683.3 -363.7,687.9 "/>
<path fill="#F0C560" stroke="#000000" stroke-width="0.7239" d="M-358.7,683.3h-3.5l-0.9-1.4c0.4-0.5,0.6-0.5,1-0.6l0.2,0.7h0.7v-1
	h1.3v1h0.5l0.4-0.7c0.5,0.3,0.8,0.6,1,0.8L-358.7,683.3z"/>
<path fill="#F0C560" stroke="#000000" stroke-width="0.7239" d="M-361.9,687.9l0.4-2.1c0.2-1,1.4-1,1.7,0l0.5,2.1H-361.9z"/>
<path fill="#FFFFFF" stroke="#000000" stroke-width="0.7239" d="M-354.4,689v14.5c0,2.1-1,3.4-2.8,3.4h-2.3c-0.6,0-1.3,0.2-1.4,0.7
	c-0.2-0.5-0.9-0.7-1.4-0.7h-2.3c-1.9,0-2.8-1.3-2.8-3.4V689H-354.4z"/>
<polygon fill="#1879BF" points="-362.7,690.4 -362,693.8 -360.3,693.8 -359.7,690.4 "/>
<polygon fill="#1879BF" points="-362.7,703 -362,699.7 -360.3,699.7 -359.7,703 "/>
<polygon fill="#1879BF" points="-366.7,698 -363.4,697.3 -363.4,695.7 -366.7,695.1 "/>
<polygon fill="#1879BF" points="-355.9,698 -359.3,697.3 -359.3,695.7 -355.9,695.1 "/>
<rect x="-362.2" y="695.4" fill="#1879BF" width="2" height="2.5"/>
<polygon fill="#F0C560" stroke="#000000" stroke-width="0.7239" points="-377.6,676.3 -379,671.7 -382.6,671.7 -384,676.3 "/>
<path fill="#F0C560" stroke="#000000" stroke-width="0.7239" d="M-379,671.7h-3.5l-0.9-1.4c0.4-0.5,0.6-0.5,1-0.6l0.2,0.7h0.7v-1
	h1.3v1h0.5l0.4-0.7c0.5,0.3,0.8,0.6,1,0.8L-379,671.7z"/>
<path fill="#F0C560" stroke="#000000" stroke-width="0.7239" d="M-382.2,676.3l0.5-2.1c0.2-1,1.4-1,1.7,0l0.5,2.1H-382.2z"/>
<polygon fill="#F0C560" stroke="#000000" stroke-width="0.7239" points="-377.9,662.7 -379.3,658.2 -382.9,658.2 -384.3,662.7 "/>
<path fill="#F0C560" stroke="#000000" stroke-width="0.7239" d="M-379.3,658.2h-3.5l-0.9-1.4c0.4-0.4,0.6-0.4,1-0.6l0.2,0.7h0.7v-1
	h1.3v1h0.5l0.4-0.7c0.5,0.3,0.8,0.6,1,0.8L-379.3,658.2z"/>
<path fill="#F0C560" stroke="#000000" stroke-width="0.7239" d="M-382.5,662.7l0.5-2.1c0.2-1,1.4-1,1.7,0l0.5,2.1H-382.5z"/>
<polygon fill="#F0C560" stroke="#000000" stroke-width="0.7239" points="-377.6,651 -379,646.4 -382.6,646.4 -384,651 "/>
<path fill="#F0C560" stroke="#000000" stroke-width="0.7239" d="M-379,646.4h-3.5l-0.9-1.4c0.4-0.5,0.6-0.5,1-0.6l0.2,0.7h0.7v-1
	h1.3v1h0.5l0.4-0.7c0.5,0.3,0.8,0.6,1,0.8L-379,646.4z"/>
<path fill="#F0C560" stroke="#000000" stroke-width="0.7239" d="M-382.2,651l0.5-2.1c0.2-1,1.4-1,1.7,0l0.5,2.1H-382.2z"/>
<polygon fill="#F0C560" stroke="#000000" stroke-width="0.7239" points="-397.8,676.3 -399.2,671.7 -402.8,671.7 -404.2,676.3 "/>
<path fill="#F0C560" stroke="#000000" stroke-width="0.7239" d="M-399.2,671.7h-3.5l-0.9-1.4c0.4-0.5,0.6-0.5,1-0.6l0.2,0.7h0.7v-1
	h1.3v1h0.5l0.4-0.7c0.5,0.3,0.8,0.6,1,0.8L-399.2,671.7z"/>
<path fill="#F0C560" stroke="#000000" stroke-width="0.7239" d="M-402.5,676.3l0.5-2.1c0.2-1,1.4-1,1.7,0l0.5,2.1H-402.5z"/>
<polygon fill="#F0C560" stroke="#000000" stroke-width="0.7239" points="-397.8,662.7 -399.2,658.2 -402.8,658.2 -404.2,662.7 "/>
<path fill="#F0C560" stroke="#000000" stroke-width="0.7239" d="M-399.2,658.2h-3.5l-0.9-1.4c0.4-0.4,0.6-0.4,1-0.6l0.2,0.7h0.7v-1
	h1.3v1h0.5l0.4-0.7c0.5,0.3,0.8,0.6,1,0.8L-399.2,658.2z"/>
<path fill="#F0C560" stroke="#000000" stroke-width="0.7239" d="M-402.5,662.7l0.5-2.1c0.2-1,1.4-1,1.7,0l0.5,2.1H-402.5z"/>
<polygon fill="#F0C560" stroke="#000000" stroke-width="0.7239" points="-397.8,651 -399.2,646.4 -402.8,646.4 -404.2,651 "/>
<path fill="#F0C560" stroke="#000000" stroke-width="0.7239" d="M-399.2,646.4h-3.5l-0.9-1.4c0.4-0.5,0.6-0.5,1-0.6l0.2,0.7h0.7v-1
	h1.3v1h0.5l0.4-0.7c0.5,0.3,0.8,0.6,1,0.8L-399.2,646.4z"/>
<path fill="#F0C560" stroke="#000000" stroke-width="0.7239" d="M-402.5,651l0.5-2.1c0.2-1,1.4-1,1.7,0l0.5,2.1H-402.5z"/>
<polygon fill="#F0C560" stroke="#000000" stroke-width="0.7239" points="-387.4,651 -388.8,646.4 -392.3,646.4 -393.7,651 "/>
<path fill="#F0C560" stroke="#000000" stroke-width="0.7239" d="M-388.8,646.4h-3.5l-0.9-1.4c0.4-0.5,0.6-0.5,1-0.6l0.2,0.7h0.7v-1
	h1.3v1h0.5l0.4-0.7c0.5,0.3,0.8,0.6,1,0.8L-388.8,646.4z"/>
<path fill="#F0C560" stroke="#000000" stroke-width="0.7239" d="M-392,651l0.5-2.1c0.2-1,1.4-1,1.7,0l0.5,2.1H-392z"/>
<path fill="#FFFFFF" stroke="#000000" stroke-width="0.7239" d="M-384.5,652.1v14.5c0,2.1-1,3.4-2.8,3.4h-2.3
	c-0.6,0-1.3,0.2-1.4,0.7c-0.2-0.5-0.9-0.7-1.4-0.7h-2.3c-1.9,0-2.8-1.3-2.8-3.4v-14.5H-384.5z"/>
<polygon fill="#1879BF" points="-392.8,653.5 -392,656.9 -390.4,656.9 -389.8,653.5 "/>
<polygon fill="#1879BF" points="-392.8,666.1 -392,662.8 -390.4,662.8 -389.8,666.1 "/>
<polygon fill="#1879BF" points="-396.8,661.1 -393.5,660.4 -393.5,658.8 -396.8,658.2 "/>
<polygon fill="#1879BF" points="-386,661.1 -389.3,660.4 -389.3,658.8 -386,658.2 "/>
<rect x="-392.3" y="658.5" fill="#1879BF" width="2" height="2.5"/>
<path fill="#CC1E4C" stroke="#000000" stroke-width="0.7239" d="M-386.2,587.2c-1.2-0.4-2-0.5-2.7,0s0.1,1.2,0.8,0.9
	C-387.3,587.9-386.9,587.2-386.2,587.2z"/>
</svg>
