<?xml version="1.0" encoding="utf-8"?>
<!-- Generator: Adobe Illustrator 16.0.0, SVG Export Plug-In . SVG Version: 6.00 Build 0)  -->
<!DOCTYPE svg PUBLIC "-//W3C//DTD SVG 1.1//EN" "http://www.w3.org/Graphics/SVG/1.1/DTD/svg11.dtd">
<svg version="1.1"
	 id="svg2" xmlns:rdf="http://www.w3.org/1999/02/22-rdf-syntax-ns#" xmlns:inkscape="http://www.inkscape.org/namespaces/inkscape" xmlns:svg="http://www.w3.org/2000/svg" xmlns:sodipodi="http://sodipodi.sourceforge.net/DTD/sodipodi-0.dtd" xmlns:cc="http://web.resource.org/cc/" xmlns:dc="http://purl.org/dc/elements/1.1/" sodipodi:docbase="C:\Documents and Settings\Damian\Pulpit" sodipodi:docname="Logo Real Madryt.svg" sodipodi:version="0.32" inkscape:version="0.44.1"
	 xmlns="http://www.w3.org/2000/svg" xmlns:xlink="http://www.w3.org/1999/xlink" x="0px" y="0px" width="550.808px"
	 height="770.614px" viewBox="-87 93.786 550.808 770.614" enable-background="new -87 93.786 550.808 770.614"
	 xml:space="preserve">
<sodipodi:namedview  id="base" pagecolor="#ffffff" bordercolor="#666666" inkscape:cy="334.2208" borderopacity="1.0" inkscape:cx="290.04901" inkscape:zoom="0.53857134" guidetolerance="10.0" gridtolerance="10.0" objecttolerance="10.0" inkscape:pageopacity="0.0" inkscape:pageshadow="2" inkscape:window-x="44" inkscape:window-height="573" inkscape:current-layer="g25392" inkscape:window-width="853" inkscape:window-y="58">
	</sodipodi:namedview>
<g id="layer1" transform="translate(-152.545, -140.201)">
	<g id="g21752" transform="translate(-686.904, 56.5685)">
		<g id="g20818" transform="translate(1005.84, 113.855)">
			<g id="g19035" transform="translate(18.5714, -43.5714)">
				<g id="g19011" transform="translate(3.53839)">
				</g>
			</g>
			<g id="g21741" transform="translate(0, 4.04061)">
			</g>
		</g>
		<g id="g21781" transform="matrix(1.29524, 0, 0, 1.29365, -393.043, -230.109)">
			<g id="g23567">
				<g id="g25392">
					<path id="path23601" fill="#FFFFFF" d="M1299.73,697.859c0,112.1-90.632,203.024-202.635,203.12
						c-112.003,0-202.829-90.729-202.829-202.926v-0.098c0-112.1,90.632-203.023,202.635-203.12
						C1209.001,494.835,1299.73,585.662,1299.73,697.859C1299.73,697.762,1299.73,697.859,1299.73,697.859z"/>
					<path id="path24490" fill="#FFFFFF" d="M1093.112,316.194v6.606h-6.703v6.703h6.703c0,2.526,0,3.885,0,7.674
						c0,0-2.526-0.291-4.177,0.68c-1.651,0.972-2.525,3.303-2.525,3.303s-3.983-1.457-6.8-0.292c-2.817,1.069-4.76,4.663-4.76,4.663
						s-3.886-3.594-7.965-2.72c-4.857,1.069-7.771,7.285-7.771,7.285s-4.08-2.72-7.966-0.972c-5.828,2.526-6.411,9.617-6.411,9.617
						s-8.646-1.069-11.463,0.971c-2.817,2.04-2.234,10.977-2.234,10.977s-3.108-0.583-5.246,0.097
						c-2.234,0.68-3.885,2.623-3.885,2.623s-1.943-4.177-7.674-4.177c-5.829,0-8.84,6.606-8.84,6.606s-8.159-1.651-10.879,0
						c-2.817,1.651-3.206,8.16-3.206,8.16s-7.674-1.36-10.782,1.748c-3.109,3.109-1.554,10.782-1.554,10.782
						s-8.16-0.777-9.714,2.331c-1.748,3.497-0.583,12.24-0.583,12.24s-6.314,0.583-7.577,5.44
						c-1.068,4.079,2.623,10.782,2.623,10.782s-5.537,2.428-6.8,5.634c-1.36,3.303,1.554,7.48,1.554,7.48l-2.526,13.308
						c0,0-3.109,5.44,2.429,13.114c5.44,7.48,13.988,2.525,13.988,2.525s2.818,2.234,6.509,2.72c3.594,0.583,8.16-0.485,8.16-0.485
						s-1.069,3.788,0.291,5.925c1.457,2.234,5.731,3.011,5.731,3.011l1.846,4.371l-1.166,5.246l5.44,4.663l1.846,7.577
						c0,0,39.633-22.245,95.683-22.245c52.165,0,95.683,22.148,95.683,22.148l1.943-7.382l5.343-4.663l-1.068-5.246l1.846-4.371
						c0,0,4.177-0.777,5.731-3.011c1.554-2.234,0.292-5.926,0.292-5.926s4.468,0.972,8.257,0.486c3.594-0.583,6.508-2.72,6.508-2.72
						s8.548,4.954,13.988-2.526c5.537-7.577,2.428-13.114,2.428-13.114l-2.525-13.308c0,0,2.817-4.177,1.554-7.48
						c-1.36-3.303-6.799-5.634-6.799-5.634s3.788-6.703,2.622-10.782c-1.36-4.857-7.577-5.44-7.577-5.44s1.166-8.645-0.583-12.239
						c-1.554-3.206-9.714-2.331-9.714-2.331s1.554-7.577-1.554-10.782c-3.109-3.206-10.782-1.749-10.782-1.749
						s-0.486-6.508-3.206-8.16c-2.72-1.651-10.88,0-10.88,0s-3.011-6.605-8.839-6.605c-5.732,0-7.675,4.177-7.675,4.177
						s-1.555-1.943-3.885-2.623c-2.332-0.68-5.246-0.097-5.246-0.097s0.583-8.937-2.234-10.977
						c-2.72-2.137-11.463-0.971-11.463-0.971s-0.583-6.897-6.412-9.617c-3.788-1.651-7.966,0.971-7.966,0.971
						s-3.011-6.314-7.771-7.285c-4.177-0.875-7.965,2.72-7.965,2.72s-1.846-3.497-4.76-4.663c-2.817-1.069-6.8,0.291-6.8,0.291
						s-0.874-2.331-2.526-3.303c-1.651-0.972-4.177-0.68-4.177-0.68V329.6h6.703v-6.703h-6.605v-6.606L1093.112,316.194
						L1093.112,316.194z"/>
					<path id="path19002" fill="#E1233B" stroke="#196496" stroke-width="3" d="M1074.753,388.467
						c-4.468,0-9.325,0.486-13.988,1.457c-18.846,4.178-36.136,17.486-36.136,17.486s-0.874,0.097-1.36,0.097
						c0.291,0.68,0.582,1.457,0.582,2.234c0,2.72-2.234,5.051-5.051,5.051c-2.817,0-5.051-2.234-5.051-5.051
						c0-0.194,0-0.583,0.097-0.777c-5.051,0.972-11.074,2.428-16.903,4.76c-13.308,5.245-25.062,14.96-25.062,14.96l11.463,27.49
						l-6.703,10.2l21.662,6.703c0,0,48.279-23.799,99.472-23.508c51.193,0.194,105.3,24.285,105.3,24.285l5.926-7.48l11.754,1.166
						l-5.149-13.017l6.994-18.942l-3.788-9.131c0,0-6.314-7.675-17.485-12.434c-6.508-2.72-14.766-4.469-20.497-5.634
						c0.097,0.486,0.195,0.971,0.195,1.554c0,2.72-2.331,5.051-5.051,5.051c-2.72,0-5.052-2.331-5.052-5.051
						c0-1.457,0.583-2.72,1.554-3.594c-3.885-3.108-16.902-12.92-32.348-16.417c-18.457-4.177-40.313,1.943-40.313,1.943
						S1088.352,388.467,1074.753,388.467z M1096.707,391.672c2.72,0,5.052,2.331,5.052,5.051c0,2.72-2.235,5.051-5.052,5.051
						c-2.817,0-5.052-2.234-5.052-5.051C1091.655,393.907,1093.986,391.672,1096.707,391.672z M1097.095,410.906
						c5.44,0,9.811,4.372,9.811,9.811c0,5.44-4.371,9.811-9.811,9.811c-5.44,0-9.811-4.371-9.811-9.811
						C1087.284,415.278,1091.655,410.906,1097.095,410.906z M1166.551,418.969c5.439,0,9.811,4.372,9.811,9.811
						c0,5.44-4.371,9.811-9.811,9.811c-5.44,0-9.811-4.371-9.811-9.811C1156.739,423.34,1161.111,418.969,1166.551,418.969z
						 M1027.64,419.066c5.44,0,9.811,4.372,9.811,9.811s-4.371,9.811-9.811,9.811c-5.44,0-9.811-4.371-9.811-9.811
						S1022.297,419.066,1027.64,419.066z"/>
					<path id="path9070" fill="#FABC01" stroke="#196496" stroke-width="2.5" d="M1093.112,316v6.606h-6.703v6.703h6.703v7.674
						c0,0-2.526-0.292-4.177,0.68c-1.651,0.971-2.525,3.303-2.525,3.303s-3.983-1.457-6.8-0.291c-2.817,1.068-4.76,4.663-4.76,4.663
						s-3.886-3.594-7.965-2.72c-4.857,1.069-7.771,7.285-7.771,7.285s-4.08-2.72-7.966-0.971c-5.828,2.525-6.411,9.617-6.411,9.617
						s-8.646-1.069-11.463,0.971c-2.817,2.04-2.234,10.977-2.234,10.977s-3.108-0.583-5.246,0.097
						c-2.331,0.68-3.885,2.623-3.885,2.623s-1.943-4.178-7.674-4.178c-5.829,0-8.84,6.606-8.84,6.606s-8.159-1.651-10.879,0
						c-2.817,1.651-3.206,8.16-3.206,8.16s-7.674-1.36-10.782,1.748c-3.109,3.109-1.554,10.782-1.554,10.782
						s-8.16-0.777-9.714,2.332c-1.748,3.497-0.583,12.239-0.583,12.239s-6.314,0.583-7.577,5.343
						c-1.068,4.08,2.623,10.782,2.623,10.782s-5.537,2.429-6.8,5.634c-1.36,3.206,1.554,7.48,1.554,7.48l-2.526,13.308
						c0,0-3.109,5.439,2.429,13.114c5.44,7.48,13.988,2.525,13.988,2.525s2.818,2.234,6.509,2.72c3.594,0.583,8.16-0.485,8.16-0.485
						s-1.069,3.788,0.291,5.925c1.554,2.234,5.731,3.012,5.731,3.012l1.846,4.371l-1.166,5.246l5.44,4.663l1.846,7.577
						c0,0,39.633-22.245,95.683-22.245c52.165,0,95.683,22.148,95.683,22.148l1.943-7.383l5.343-4.663l-1.068-5.246l1.846-4.371
						c0,0,4.177-0.777,5.731-3.011c1.554-2.234,0.292-5.926,0.292-5.926s4.468,0.971,8.257,0.485c3.594-0.582,6.508-2.72,6.508-2.72
						s8.548,4.954,13.988-2.525c5.537-7.577,2.428-13.114,2.428-13.114l-2.525-13.308c0,0,2.817-4.177,1.554-7.48
						c-1.36-3.303-6.799-5.634-6.799-5.634s3.788-6.703,2.622-10.782c-1.36-4.857-7.577-5.343-7.577-5.343s1.166-8.645-0.583-12.239
						c-1.554-3.206-9.714-2.331-9.714-2.331s1.554-7.577-1.554-10.782c-3.109-3.206-10.782-1.749-10.782-1.749
						s-0.486-6.508-3.206-8.16c-2.72-1.652-10.88,0-10.88,0s-3.011-6.606-8.839-6.606c-5.732,0-7.675,4.177-7.675,4.177
						s-1.555-1.943-3.885-2.623c-2.332-0.68-5.246-0.097-5.246-0.097s0.583-8.937-2.234-10.977
						c-2.72-2.137-11.463-0.971-11.463-0.971s-0.583-6.897-6.412-9.617c-3.788-1.651-7.966,0.971-7.966,0.971
						s-3.011-6.314-7.771-7.285c-4.177-0.874-7.965,2.72-7.965,2.72s-1.846-3.497-4.76-4.663c-2.817-1.069-6.8,0.291-6.8,0.291
						s-0.874-2.331-2.526-3.303c-1.651-0.972-4.177-0.68-4.177-0.68v-7.674h6.703v-6.703h-6.605v-6.606L1093.112,316L1093.112,316z
						 M1082.135,345.822c0.972-0.097,2.137,0.097,3.012,0.68c2.525,1.457,3.302,4.662,1.846,6.994
						c-1.458,2.526-4.663,3.4-7.189,1.943s-3.303-4.663-1.846-7.188C1078.93,346.793,1080.484,345.92,1082.135,345.822z
						 M1110.792,345.822c0.971-0.097,1.943,0.097,3.011,0.68c2.526,1.457,3.4,4.662,1.943,6.994c-1.457,2.526-4.663,3.4-7.188,1.943
						s-3.4-4.663-1.943-7.188C1107.684,346.793,1109.141,345.92,1110.792,345.822z M1067.856,347.765
						c0.972-0.097,1.943,0.097,3.011,0.679c2.526,1.457,3.4,4.663,1.943,7.189c-1.457,2.525-4.663,3.303-7.188,1.846
						c-2.525-1.457-3.4-4.663-1.943-6.994C1064.553,348.833,1066.205,347.959,1067.856,347.765z M1125.363,347.765
						c0.972-0.097,2.137,0.097,3.011,0.679c2.526,1.457,3.303,4.663,1.846,7.189c-1.457,2.525-4.662,3.303-7.188,1.846
						c-2.525-1.457-3.303-4.663-1.846-6.994C1122.157,348.833,1123.712,347.959,1125.363,347.765z M1053.091,353.108
						c0.971-0.097,1.943,0.097,3.011,0.68c2.526,1.457,3.303,4.663,1.846,7.188c-1.457,2.525-4.663,3.303-6.994,1.845
						c-2.526-1.457-3.4-4.663-1.943-7.188C1049.885,354.177,1051.439,353.302,1053.091,353.108z M1139.74,353.108
						c0.972-0.097,1.943,0.097,3.012,0.68c2.525,1.457,3.302,4.663,1.845,7.188c-1.457,2.525-4.663,3.303-7.188,1.845
						c-2.526-1.457-3.303-4.663-1.846-7.188C1136.534,354.177,1138.089,353.302,1139.74,353.108z M1096.61,359.13
						c0.971-0.097,1.943,0.097,3.011,0.68c2.526,1.457,3.4,4.663,1.943,7.189c-1.457,2.525-4.663,3.303-7.188,1.846
						c-2.526-1.458-3.4-4.663-1.943-6.994C1093.307,360.102,1094.958,359.228,1096.61,359.13z M1039.491,362.142
						c0.971-0.097,1.943,0.097,3.011,0.68c2.526,1.457,3.303,4.663,1.846,7.189c-1.457,2.525-4.663,3.303-6.994,1.846
						c-2.526-1.458-3.4-4.663-1.943-7.189C1036.188,363.21,1037.742,362.336,1039.491,362.142z M1153.34,362.142
						c0.971-0.097,1.943,0.097,3.011,0.68c2.526,1.457,3.4,4.663,1.943,7.189c-1.457,2.525-4.663,3.303-7.189,1.846
						c-2.526-1.458-3.4-4.663-1.943-7.189C1150.134,363.21,1151.688,362.336,1153.34,362.142z M1105.838,363.599
						c4.177-0.097,22.051,0.486,36.816,12.142c17.097,13.405,19.914,38.079,19.914,38.079s-1.846,0.583-3.303,1.846
						c-1.457,1.36-2.332,3.4-2.332,3.4s-10.491-0.486-10.491,11.268c0,7.48,9.423,10.297,9.423,10.297s-4.469,5.051-8.645,5.051
						c-4.468-0.097-9.229-8.354-9.229-8.354s5.925-14.571-7.674-14.571c-11.268,0-9.034,13.599-9.034,13.599
						s-4.372,4.954-9.132,4.76c-6.605-0.291-7.965-8.451-7.965-8.451s11.851,0.874,11.851-8.646c0-9.52-8.548-11.074-8.548-11.074
						s0.486-3.4-1.457-5.537s-6.12-2.72-6.12-2.72s4.08-2.234,4.857-5.537c0.875-3.303-0.874-7.383-0.874-7.383v-6.508
						c0,0,1.554-2.331,1.554-4.663c0-2.331-1.554-4.663-1.554-4.663v-6.703c0-0.097,0.777-2.331,0.971-3.206
						c0.194-0.971,0-2.72,0-2.72S1105.352,363.599,1105.838,363.599z M1085.827,363.696c0.874,0,1.652,0,2.234,0
						c0.583,0,0.875,0,0.875,0s-0.195,1.749,0,2.72c0.194,0.777,0.874,3.108,0.971,3.206v6.703c0,0-1.555,2.428-1.555,4.663
						c0,2.331,1.555,4.663,1.555,4.663v6.508c0,0-1.749,3.983-0.875,7.383c0.777,3.205,4.857,5.537,4.857,5.537
						s-4.274,0.68-6.12,2.72c-1.846,2.137-1.457,5.537-1.457,5.537s-8.548,1.554-8.548,11.074c0,9.617,11.851,8.645,11.851,8.645
						s-1.457,8.16-7.965,8.451c-4.76,0.194-9.132-4.76-9.132-4.76s2.234-13.6-9.034-13.6c-13.502,0-7.674,14.571-7.674,14.571
						s-4.663,8.257-9.229,8.354c-4.177,0.097-8.645-5.051-8.645-5.051s9.422-2.817,9.422-10.297
						c0-11.657-10.491-11.269-10.491-11.269s-0.875-2.137-2.332-3.4c-1.457-1.36-3.303-1.846-3.303-1.846
						s2.817-24.674,19.914-38.079C1064.164,365.445,1079.319,363.793,1085.827,363.696z M1014.331,373.216
						c0.972-0.097,2.138,0.097,3.011,0.68c2.526,1.457,3.303,4.663,1.846,7.188s-4.663,3.4-7.188,1.943
						c-2.525-1.457-3.303-4.663-1.846-7.188C1011.126,374.187,1012.68,373.313,1014.331,373.216z M1178.693,373.216
						c0.971-0.097,2.137,0.097,3.011,0.68c2.526,1.457,3.303,4.663,1.846,7.188c-1.457,2.525-4.663,3.4-7.189,1.943
						c-2.526-1.457-3.303-4.663-1.846-7.188C1175.488,374.187,1177.042,373.313,1178.693,373.216z M1028.708,374.479
						c0.971-0.097,1.943,0.097,3.012,0.68c2.525,1.457,3.303,4.663,1.846,6.994c-1.457,2.526-4.663,3.4-7.189,1.943
						s-3.303-4.663-1.846-7.188C1025.6,375.45,1027.057,374.576,1028.708,374.479z M1164.025,374.479
						c0.971-0.097,1.943,0.097,3.012,0.68c2.525,1.457,3.4,4.663,1.942,6.994c-1.457,2.526-4.662,3.4-7.188,1.943
						s-3.303-4.663-1.846-7.188C1160.819,375.45,1162.374,374.576,1164.025,374.479z M1096.61,375.644
						c0.971-0.097,1.943,0.097,3.011,0.68c2.526,1.457,3.4,4.663,1.943,7.188c-1.457,2.526-4.663,3.303-7.188,1.846
						c-2.526-1.457-3.4-4.663-1.943-7.188C1093.307,376.616,1094.958,375.741,1096.61,375.644z M1000.732,378.753
						c0.971-0.097,2.138,0.097,3.011,0.68c2.526,1.457,3.303,4.663,1.846,7.188c-1.457,2.525-4.663,3.4-7.188,1.943
						c-2.526-1.457-3.303-4.663-1.846-7.188C997.526,379.821,999.08,378.947,1000.732,378.753z M1192.778,378.753
						c0.972-0.097,2.137,0.097,3.011,0.68c2.526,1.457,3.303,4.663,1.846,7.188c-1.457,2.525-4.663,3.4-7.188,1.943
						c-2.526-1.457-3.303-4.663-1.846-7.188C1189.573,379.821,1191.127,378.947,1192.778,378.753z M1021.811,388.467
						c0.971-0.097,1.943,0.097,3.011,0.68c2.526,1.457,3.303,4.663,1.846,7.188c-1.457,2.526-4.663,3.4-7.189,1.943
						c-2.525-1.457-3.303-4.663-1.845-7.188C1018.509,389.438,1020.16,388.564,1021.811,388.467z M1171.116,388.467
						c0.972-0.097,1.943,0.097,3.012,0.68c2.525,1.457,3.303,4.663,1.846,7.188c-1.458,2.526-4.663,3.4-7.188,1.943
						c-2.526-1.457-3.303-4.663-1.846-7.188C1167.813,389.438,1169.465,388.564,1171.116,388.467z M986.938,388.855
						c0.971-0.097,2.137,0.097,3.011,0.68c2.525,1.457,3.303,4.663,1.846,6.994c-1.457,2.526-4.663,3.4-7.188,1.943
						c-2.526-1.457-3.303-4.663-1.846-7.188C983.732,389.827,985.287,388.952,986.938,388.855z M1206.28,388.855
						c0.972-0.097,2.137,0.097,3.012,0.68c2.525,1.457,3.303,4.663,1.846,6.994c-1.457,2.526-4.663,3.4-7.189,1.943
						c-2.525-1.457-3.302-4.663-1.846-7.188C1203.075,389.827,1204.63,388.952,1206.28,388.855z M1096.61,391.672
						c0.971-0.097,1.943,0.097,3.011,0.68c2.526,1.457,3.4,4.663,1.943,6.994c-1.457,2.525-4.663,3.4-7.188,1.942
						c-2.526-1.457-3.4-4.663-1.943-7.188C1093.307,392.644,1094.958,391.769,1096.61,391.672z M1012.68,392.741
						c0,0,0,2.817,0.874,4.76c0.874,1.943,2.526,3.108,2.526,3.108s-7.383,4.371-7.383,8.937c0,6.509,6.411,9.326,6.411,9.326v4.76
						c0,0-7.771,3.4-5.44,12.531c3.205,12.142,14.086,7.188,14.086,7.188s-0.583,8.16-7.577,10.005
						c-6.12,1.651-9.034-5.829-9.131-5.829c0,0-5.634-9.908-13.405-5.44c-9.908,5.731-1.846,14.571-1.846,14.571
						s-1.652,6.411-5.148,8.548c-3.497,2.234-7.966,0.291-7.966,0.291s4.857-3.303,4.857-9.617c0-4.954-5.148-10.102-5.148-10.102
						s-1.166-17.388,7.383-30.696C994.418,401.872,1012.68,392.741,1012.68,392.741z M1181.219,392.741
						c0,0,18.263,9.131,26.811,22.439c8.548,13.308,7.383,30.696,7.383,30.696s-5.634,5.148-5.634,10.102
						c0,6.314,5.245,9.617,5.245,9.617s-4.273,1.846-7.965-0.292c-3.497-2.234-5.149-8.548-5.149-8.548s8.063-8.84-1.846-14.571
						c-7.772-4.468-13.406,5.44-13.406,5.44s-2.818,7.577-9.034,5.829c-6.995-1.846-7.577-10.006-7.577-10.006
						s10.88,4.954,14.085-7.188c2.429-9.132-5.44-12.532-5.44-12.532v-4.76c0,0,6.411-2.817,6.411-9.325
						c0-4.469-7.383-8.937-7.383-8.937s1.749-1.846,2.623-3.788C1181.412,395.072,1181.219,392.741,1181.219,392.741z
						 M976.447,400.609c0.971-0.097,2.137,0.097,3.011,0.68c2.525,1.457,3.303,4.663,1.846,7.189
						c-1.457,2.525-4.663,3.303-7.189,1.846c-2.526-1.457-3.303-4.663-1.846-7.189C973.338,401.581,974.795,400.706,976.447,400.609
						z M1216.87,400.609c0.971-0.097,1.942,0.097,3.011,0.68c2.526,1.457,3.303,4.663,1.846,7.189
						c-1.457,2.525-4.663,3.303-7.188,1.846c-2.525-1.457-3.302-4.663-1.846-7.189
						C1213.567,401.581,1215.218,400.706,1216.87,400.609z M1018.217,404.689c0.971-0.097,1.943,0.097,3.011,0.68
						c2.526,1.457,3.303,4.663,1.846,7.188c-1.457,2.526-4.663,3.303-7.189,1.846c-2.526-1.457-3.303-4.663-1.846-6.994
						C1015.011,405.758,1016.566,404.786,1018.217,404.689z M1175.293,404.689c0.971-0.097,1.942,0.097,3.012,0.68
						c2.525,1.457,3.399,4.663,1.942,7.188c-1.457,2.526-4.662,3.303-7.189,1.846c-2.525-1.457-3.4-4.663-1.943-6.994
						C1172.087,405.758,1173.642,404.786,1175.293,404.689z M1096.318,411.586c1.651-0.097,3.4,0.194,5.051,1.166
						c4.177,2.429,5.731,7.771,3.206,12.143c-2.428,4.177-7.771,5.731-12.143,3.206c-4.177-2.429-5.731-7.771-3.206-12.143
						C1090.781,413.238,1093.598,411.683,1096.318,411.586z M969.841,415.083c0.971-0.097,2.137,0.097,3.011,0.68
						c2.525,1.457,3.303,4.663,1.845,7.189c-1.457,2.525-4.663,3.4-7.188,1.943c-2.526-1.457-3.303-4.663-1.846-7.188
						C966.539,416.249,968.19,415.181,969.841,415.083z M1223.864,415.083c0.971-0.097,1.943,0.097,3.011,0.68
						c2.526,1.457,3.302,4.663,1.846,7.189c-1.457,2.525-4.663,3.4-6.995,1.943c-2.525-1.457-3.4-4.663-1.942-7.188
						C1220.658,416.249,1222.212,415.181,1223.864,415.083z M1026.863,419.746c1.651-0.097,3.4,0.194,5.052,1.166
						c4.177,2.428,5.731,7.966,3.303,12.142c-2.428,4.177-7.965,5.731-12.143,3.206c-4.177-2.526-5.732-7.966-3.206-12.143
						C1021.423,421.495,1024.046,419.94,1026.863,419.746z M1165.87,419.746c1.651-0.097,3.4,0.194,5.052,1.166
						c4.177,2.428,5.731,7.966,3.206,12.142c-2.429,4.177-7.771,5.731-12.143,3.206c-4.275-2.526-5.731-7.966-3.206-12.143
						C1160.334,421.495,1162.957,419.94,1165.87,419.746z M965.956,431.014c0.971-0.097,2.137,0.097,3.011,0.68
						c2.526,1.457,3.303,4.663,1.846,7.188c-1.457,2.525-4.662,3.303-7.189,1.846c-2.525-1.457-3.302-4.663-1.846-7.188
						C962.75,432.083,964.304,431.209,965.956,431.014z M1227.263,431.014c0.972-0.097,1.943,0.097,3.011,0.68
						c2.526,1.457,3.303,4.663,1.846,7.188c-1.457,2.525-4.662,3.303-7.188,1.846c-2.525-1.457-3.303-4.663-1.846-7.188
						C1223.961,432.083,1225.515,431.209,1227.263,431.014z M1096.707,434.123c0,0,0.971,3.789,3.303,6.897
						c2.332,3.206,5.925,5.828,5.925,5.828h-18.553c0,0,3.109-2.623,5.44-5.828C1095.055,437.911,1096.707,434.123,1096.707,434.123
						z M1066.885,441.7c0,0,1.36,1.554,3.302,3.012c1.943,1.457,4.371,2.526,4.371,2.526l-20.4,2.331c0,0,2.429-1.652,4.76-3.788
						c1.846-1.651,2.234-3.594,2.234-3.594L1066.885,441.7z M1126.334,441.7l5.635,0.486c0,0,0.291,2.137,2.234,3.594
						c2.331,2.137,4.76,3.788,4.76,3.788l-20.4-2.331c0,0,2.429-1.166,4.468-2.526C1125.168,443.254,1126.334,441.7,1126.334,441.7z
						 M1031.04,442.574c0,0,1.943,3.4,5.051,5.828c3.109,2.428,7.286,4.079,7.286,4.079l-18.068,4.857c0,0,2.234-3.303,3.594-6.994
						C1030.36,446.654,1031.04,442.574,1031.04,442.574z M1162.471,442.574c0,0,0.68,4.08,2.137,7.674
						c1.458,3.594,3.595,6.994,3.595,6.994l-17.971-4.857c0,0,4.177-1.555,7.286-4.08
						C1160.431,446.071,1162.471,442.574,1162.471,442.574z M967.704,448.888c1.457,0,2.817,0.485,4.177,1.166
						c4.177,2.428,5.732,7.771,3.206,12.142c-2.429,4.177-7.771,5.731-12.143,3.206c-4.177-2.428-5.731-7.771-3.205-12.142
						C961.487,450.442,964.596,448.791,967.704,448.888z M1226.68,448.888c1.457,0,2.818,0.485,4.178,1.166
						c4.177,2.428,5.731,7.771,3.206,12.142c-2.429,4.177-7.966,5.731-12.143,3.206c-4.177-2.525-5.732-7.771-3.205-12.142
						C1220.464,450.442,1223.474,448.791,1226.68,448.888z M1004.909,457.242c0,0,1.652,1.166,3.983,2.137
						c2.332,0.874,4.954,1.457,4.954,1.457l-19.136,6.994c0,0,1.846-2.234,3.594-4.76c1.457-2.137,1.36-4.08,1.36-4.08
						L1004.909,457.242z M1189.088,457.242l5.439,1.749c0,0-0.097,2.137,1.36,4.08c1.749,2.525,3.789,4.76,3.789,4.76l-19.331-7.091
						c0,0,2.623-0.582,4.954-1.457C1187.532,458.505,1189.088,457.242,1189.088,457.242z M1066.885,466.568
						c3.011,0,5.439,2.428,5.439,5.44c0,3.011-2.428,5.44-5.439,5.44c-3.012,0-5.44-2.428-5.44-5.44
						C1061.542,468.996,1063.97,466.568,1066.885,466.568z M1125.071,466.568c3.011,0,5.44,2.428,5.44,5.44
						c0,3.011-2.428,5.44-5.44,5.44s-5.44-2.428-5.44-5.44C1119.534,468.996,1122.06,466.568,1125.071,466.568z M1011.515,482.013
						c3.011,0,5.44,2.429,5.44,5.44c0,3.011-2.429,5.44-5.44,5.44c-3.011,0-5.44-2.428-5.44-5.44
						C1006.075,484.442,1008.406,482.013,1011.515,482.013z M1181.024,482.013c3.012,0,5.343,2.429,5.343,5.44
						c0,3.011-2.428,5.44-5.343,5.44c-3.011,0-5.439-2.428-5.439-5.44C1175.585,484.442,1177.916,482.013,1181.024,482.013z"/>
					<g id="g18995" transform="translate(768.193, -12.5386)">
						<g id="g18983" transform="translate(181.103, -22.2439)">
							<polygon id="rect13628" fill="#E1233B" stroke="#173980" stroke-width="1.5002" points="147.795,499.133 164.309,505.35 
								147.795,511.761 131.281,505.35 							"/>
							<polygon id="rect13630" fill="#173980" stroke="#196496" stroke-width="2" points="206.857,506.613 221.33,516.909 
								203.651,518.755 189.274,508.361 							"/>
							<polygon id="rect13632" fill="#173980" stroke="#196496" stroke-width="2" points="88.442,506.613 74.163,516.909 
								91.745,518.755 106.122,508.361 							"/>
						</g>
						<path id="rect18089" fill="#E1233B" stroke="#173980" stroke-width="1.5" d="M230.589,503.159l-4.177,4.177l4.177,4.177
							l4.177-4.177L230.589,503.159z M426.91,503.159l-4.177,4.177l4.177,4.177l4.178-4.177L426.91,503.159z"/>
					</g>
					<path id="path19046" fill="none" stroke="#196496" stroke-width="2.9771" d="M994.126,483.373
						c49.542-28.753,148.431-33.319,205.938,0"/>
					<g id="g21727" transform="translate(-28.2843, 52.5279)">
						<path id="path20831" fill="#FABC01" stroke="#196496" stroke-width="5" d="M1125.297,434.855
							c-116.277,0-210.697,94.421-210.697,210.697c0,116.277,94.421,210.699,210.697,210.699
							c116.278,0,210.698-94.422,210.698-210.699C1335.995,529.276,1241.575,434.855,1125.297,434.855z M1125.297,462.152
							c101.221,0,183.401,82.18,183.401,183.4c0,101.221-82.18,183.402-183.401,183.402c-101.22,0-183.401-82.181-183.401-183.402
							C941.799,544.43,1024.077,462.152,1125.297,462.152z"/>
						<g id="g21723" transform="matrix(0.993734, 0, 0, 0.993734, 1451.33, -101.263)">
							<path id="path20836" fill="#196496" stroke="#196496" stroke-width="1.004" d="M-475.599,693.879l217.303,221.285
								c0,0,29.92-14.862,50.027-32.541c20.108-17.681,29.531-38.856,29.531-38.856l-234.594-236.538L-475.599,693.879z"/>
							<path id="path1945" fill="#FABC01" stroke="#196496" stroke-width="6" d="M-240.908,600.041l-41.479,41.479
								c-11.268-4.274-22.731-6.8-34.291-7.674c-1.36-0.098-2.623-0.195-3.983-0.195c-18.166-0.776-36.234,2.623-52.747,9.812
								l-42.645-42.645c-25.548,14.864-47.793,36.331-63.627,63.822c-37.787,65.472-28.462,145.226,17.388,200.013l23.799-24.188
								c-56.147-52.554-42.256-149.985,19.914-203.122l20.011,20.984c-9.811,7.575-18.554,16.708-25.839,27.491
								c-35.844,53.523-20.594,125.407,33.999,160.67c10.297,6.702,21.468,11.56,32.833,14.765v31.667h24.285v-27.587
								c37.01,2.428,74.021-12.143,98.791-41.285l-19.913-21.856c-18.942,24.673-49.153,36.816-78.976,34.193v-23.896h34.777v-21.08
								h-34.777v-21.08h34.777v-17.875h-59.062v78.198c-5.731-2.234-11.365-4.954-16.708-8.45
								c-41.09-26.52-52.456-80.53-25.548-120.745c5.926-8.841,13.211-16.32,21.468-22.246l49.153,51.484l52.067-54.496l0.68,0.292
								c11.852,7.577,21.274,17.582,27.977,28.85l22.342-19.428c-7.966-11.851-18.165-22.439-30.6-30.987l17.195-17.972
								c62.17,53.137,76.061,150.373,20.011,203.025l25.158,25.159c6.703-7.966,12.726-16.513,18.166-25.742
								c48.278-83.735,19.622-190.881-64.113-239.354C-240.617,600.235-240.811,600.139-240.908,600.041z M-324.934,662.405
								c1.943,0,3.886,0.097,5.828,0.194c4.468,0.291,9.034,0.972,13.405,1.942l-23.314,23.314l-22.051-22.051
								C-342.517,663.473-333.677,662.308-324.934,662.405z"/>
						</g>
					</g>
				</g>
			</g>
		</g>
	</g>
</g>
</svg>
