<?xml version="1.0" encoding="utf-8"?>
<!-- Generator: Adobe Illustrator 19.1.0, SVG Export Plug-In . SVG Version: 6.00 Build 0)  -->
<svg version="1.1" id="Layer_1" xmlns="http://www.w3.org/2000/svg" xmlns:xlink="http://www.w3.org/1999/xlink" x="0px" y="0px"
	 viewBox="-290 130.4 320.4 662.8" enable-background="new -290 130.4 320.4 662.8" xml:space="preserve">
<path fill="#002156" d="M-201.2,577.7c-1.8-0.5-3.4-1.6-4.7-3.3c-6.2,9.6-8.9,18.2-6.6,25.9c9.6,32.4,38.1,56.2,72.3,59.4
	C-172.8,649.8-197,615.8-201.2,577.7 M-207.9,558.6c-2.1-1.5-3.8-2.8-5.1-4c-2.2,8-3.2,16.6-2.8,25.3c0.1,1.8,0.2,3.5,0.4,5.3
	c1.3-5.2,3.8-10.6,7.3-16.1C-208.8,565.8-208.7,562.1-207.9,558.6z M-206.3,553.6c0.9-2,1.9-3.8,3.2-5.3c1-1.2,2.1-2.2,3.3-2.9
	c3.1-14.5,9.6-27.4,19.1-37.1c-14.2,10.1-25,24.4-30.7,41.1C-210.6,550.4-208.6,552-206.3,553.6z M-83.7,628
	c-7.1-0.8-16.5-2.7-20.7-4.1c-4.6-1.6-8.7-5.4-11-10.3c-0.9-2-1.8-4.7-1.9-7.9c-0.1-1.9,0.1-4.1,0.7-6.4
	c-25.9-7.9-53.4-18.9-72.5-29.1c-0.7,1.2-1.4,2.4-2.3,3.4c-1.4,1.7-3.1,2.9-4.7,3.6c1.8,15.9,7.3,31.5,16.1,45.1
	c11.7,18,27.6,30.4,44.7,34.3c6.1,1.4,14,3.1,21.2,1.5c26.4-5.8,47.9-24.1,58.4-48.1c-1.2,0.2-2.6,0.3-4.1,0.4
	C-65.8,628-78.4,628.6-83.7,628z M-48.7,573.1c-0.4-9.3-2.2-18.1-5.4-26.4c-3.9-10.1-16.7-17.2-33.7-21.1
	c-31.3-7.1-72.5,4.6-98.7,26.7c1,4,0.7,8.8-0.6,13.2c18.9,10.1,46.3,21.1,72.2,29c6.1-14,17.8-16.7,26.9-14.4
	c6.5,1.6,10.7,2.5,13.8,3.1l3.4,0.7c4.3,1,8.1,3.9,10.4,7.9c1.6,2.8,3.1,7.3,2.1,13.5c3.2-0.2,4.7-0.7,5.1-1.1
	C-50,594.4-48.3,584-48.7,573.1z M-63.6,605.3c1-5.2-0.1-8.8-1.3-11c-1.6-2.8-4.2-4.8-7.1-5.5l-3.2-0.7c-2.9-0.6-7.4-1.5-14-3.1
	c-8.9-2.2-16.5,1.8-20.7,10.9c4.3,1.3,8.6,2.4,12.7,3.5c0.7-3.2,0.8-5.5,0.8-5.5c0.1-1.4,1.3-2.5,2.7-2.4s2.5,1.3,2.4,2.7
	c0,0.2-0.2,2.8-0.9,6.4c0.8,0.2,1.6,0.4,2.5,0.6c0.8,0.2,1.7,0.4,2.5,0.5c0.7-3.6,1.2-6.6,1.2-6.7c0.2-1.4,1.5-2.3,2.9-2.1
	c1.4,0.2,2.3,1.5,2.1,2.9c0,0.2-0.5,3.3-1.3,6.9c1.7,0.3,3.3,0.6,4.9,0.9c0.6-3.1,0.7-5.5,0.7-5.6c0.1-1.4,1.3-2.5,2.7-2.4
	c1.4,0.1,2.5,1.3,2.4,2.7c0,0.2-0.1,2.8-0.8,6.1C-69,604.9-66.1,605.2-63.6,605.3z M-110.7,611.5c2,4.3,5.4,6.8,8,7.7
	c3.3,1.2,12.2,3,19.6,3.8c8.1,0.9,14.4-3.6,18-12.7c-2.7-0.2-5.6-0.5-8.6-0.9c-0.6,1.8-1.3,3.6-2.2,5.3c-0.7,1.2-2.2,1.6-3.5,1
	c-1.2-0.7-1.6-2.2-0.9-3.5c0.6-1.1,1.1-2.3,1.5-3.5c-1.6-0.3-3.2-0.6-4.7-0.9c-0.5,2.1-1.2,4.1-1.8,5.6c-0.6,1.3-2.1,1.9-3.4,1.3
	c-1.3-0.6-1.9-2.1-1.3-3.3c0.5-1.2,1-2.8,1.5-4.6c-0.8-0.2-1.6-0.4-2.4-0.5c-0.9-0.2-1.7-0.4-2.6-0.6c-0.5,1.5-1,3-1.7,4.6
	c-0.5,1.3-2,1.9-3.3,1.4c-1.3-0.5-1.9-2-1.4-3.3s1-2.6,1.4-3.8c-4.3-1.1-8.7-2.3-13.1-3.6C-112.7,605.4-111.8,609.1-110.7,611.5z
	 M-194.4,548.1c-1.1-0.2-3.4-0.2-5.6,2.2c-3.5,3.8-5.2,9-4.9,15.4l0,0c0.1,1.6,0.3,2.5,0.8,3.9c0.8,2.3,2.8,3.9,4.3,4.1
	c1.7,0.3,3.7-0.7,5.5-2.8c4-4.7,5.7-13.3,3.7-18.8C-191.6,549.8-192.9,548.4-194.4,548.1z"/>
<path fill="#FFFFFF" d="M-168.5,130.4c-32.7,0-40.5,16.8-40.5,16.8s37.8-2.7,37.8,34.6c0,16.8-9.1,28.2-18.8,40.2
	c-11.2,14-24,29.8-24,56.5c0,44,28.3,64.7,53.3,82.9c21.7,15.8,42.2,30.8,42.2,59.1c0,28.4-12.5,50.4-18.1,56.1
	c-9.5,9.5-18.1,11.3-25,12.7c-7.1,1.4-13.8,2.8-15.2,13c-26.2,15.7-42.1,43.8-42.1,74.2c0,1.2,0,2.4,0.1,3.6
	c0.9,23,10.8,44.4,27.8,60.1s39.1,23.8,62.2,22.9c23.1-0.9,44.5-10.8,60.2-27.8s23.8-39.1,22.9-62.2c-1.4-35.3-23.8-65.9-57.1-77.9
	h0.1l-0.5-0.2l-0.8-0.3c-4.2-1.5-9-3.1-9-13.9c0-10.5,4.8-11.3,14.2-13.1c5.6-1,12.5-2.3,19.3-6.4c12-7.3,14.3-16.2,12.1-18.4
	c-3-3-6.3,3.3-18.4,6.9c-4.4,1.3-8.7,2.1-11.7,2.1c-2.5,0-4.3-0.2-5.7-0.5c6.4-11.9,13.5-21.6,13.5-21.7l1.6-2.1l-1.9-1.9
	c-2.5-2.5-3.9-7.6-3.9-14.4c0-8.5,2.1-19.6,7.1-31.6c5.9-14.2,29.3-60.7,83.1-60.7h3.1v-3.1c0-19.2-1.8-36.9-5.2-52.5l-0.7-3
	c0,0-5.2,1.5-9.6,2.5c-0.5,0.1-4.6,1.1-4.8,0.3c-0.2-0.8,3-2.3,4.1-2.9c4.1-2,9.2-4.2,9.2-4.2l-0.7-2.4c-3.8-13.4-7.7-19.8-7.9-20
	l-1.2-2l-2.3,0.7c-44.8,14.1-54.3,43.8-60,61.5c-2.8,8.6-4.5,13.5-7.6,13.5c-9.2,0-16.9-7.6-19.4-10.1c-27.9-27.9-25.8-48-22.5-78.5
	c1.1-10.7,2.4-22.9,2.4-36.8C-126.6,146.7-139.9,130.4-168.5,130.4"/>
<path fill="#002156" d="M-115.4,420.5c0,28.3-12.1,51.3-19,58.2c-21.6,21.6-39.4,5.9-39.6,27.5c-9.8,8.9-16.9,22.4-20.3,37.8
	c0.2,0,0.4,0.1,0.6,0.1c2,0.4,3.8,1.5,5.1,3.4c27.4-22.4,69.7-34.1,102-26.8c10.3,2.3,19,6.1,25.6,11.9c-9.9-16-25.1-28.4-43-34.8
	c-4.3-1.5-11.8-3.3-11.8-17.1c0-25.8,28.2-5.7,46.7-33.8c0.9-1.4-0.4-2.6-1.5-1.5c-5.6,5.6-19.4,9.5-26.7,9.5c-7.3,0-10-1.7-10-1.7
	c6.9-13.7,15.5-25.4,15.5-25.4c-17.2-17.2,11.8-112,88.5-112c0-22-2.3-39.1-5.1-51.9c-1.8,0.4-16.3,3.9-16.9,0.8
	c-0.6-2.7,10.6-8.5,14.5-10.5c-3.8-13.1-7.5-19.3-7.5-19.3c-65.8,20.7-52.6,75.2-68.6,75.2c-10.4,0-18.6-8.1-21.5-11
	c-39.3-39.3-21-65.3-21-117.5c0-35.2-13.7-48.3-38.9-48.3s-34.2,10.9-34.2,10.9s34.6,1.1,34.6,37.4c0,38-42.8,48.5-42.8,96.7
	C-210.9,358.7-115.4,357.2-115.4,420.5 M-161,181.7c0-4.7-0.5-8.9-1.4-12.7c0,0,7.5-0.4,7.5-9.5c0-7.5-5-12.7-6.4-12.7
	c-1.1,0-1.4,1.2-3.7,1.2c-5.7,0-6.2-7.3-6.2-7.3c0.8,0,1.7,0,2.6,0c16.4,0,31.7,5,31.7,41.1c0,13.4-1.3,25.3-2.4,35.7
	c-1.1,10.4-2.1,20-1.8,29.4c0,0-28.6-3.4-28.6-24.9C-169.7,208-161,204.6-161,181.7z M-201.2,577.7c-1.8-0.5-3.4-1.6-4.7-3.3
	c-6.2,9.6-8.9,18.2-6.6,25.9c9.6,32.4,38.1,56.2,72.3,59.4C-172.8,649.8-197,615.8-201.2,577.7z M-207.9,558.6
	c-2.1-1.5-3.8-2.8-5.1-4c-2.2,8-3.2,16.6-2.8,25.3c0.1,1.8,0.2,3.5,0.4,5.3c1.3-5.2,3.8-10.6,7.3-16.1
	C-208.8,565.8-208.7,562.1-207.9,558.6z M-206.3,553.6c0.9-2,1.9-3.8,3.2-5.3c1-1.2,2.1-2.2,3.3-2.9c3.1-14.5,9.6-27.4,19.1-37.1
	c-14.2,10.1-25,24.4-30.7,41.1C-210.6,550.4-208.6,552-206.3,553.6z M-83.7,628c-7.1-0.8-16.5-2.7-20.7-4.1
	c-4.6-1.6-8.7-5.4-11-10.3c-0.9-2-1.8-4.7-1.9-7.9c-0.1-1.9,0.1-4.1,0.7-6.4c-25.9-7.9-53.4-18.9-72.5-29.1
	c-0.7,1.2-1.4,2.4-2.3,3.4c-1.4,1.7-3.1,2.9-4.7,3.6c1.8,15.9,7.3,31.5,16.1,45.1c11.7,18,27.6,30.4,44.7,34.3
	c6.1,1.4,14,3.1,21.2,1.5c26.4-5.8,47.9-24.1,58.4-48.1c-1.2,0.2-2.6,0.3-4.1,0.4C-65.8,628-78.4,628.6-83.7,628z M-54.1,546.7
	c-3.9-10.1-16.7-17.2-33.7-21.1c-31.3-7.1-72.5,4.6-98.7,26.7c1,4,0.7,8.8-0.6,13.2c18.9,10.1,46.3,21.1,72.2,29
	c6.1-14,17.8-16.7,26.9-14.4c6.5,1.6,10.7,2.5,13.8,3.1l3.4,0.7c4.3,1,8.1,3.9,10.4,7.9c1.6,2.8,3.1,7.3,2.1,13.5
	c3.2-0.2,4.7-0.7,5.1-1.1c3.4-9.7,5.1-20.2,4.6-31C-49.1,563.8-51,554.9-54.1,546.7z M-110.7,611.5c2,4.3,5.4,6.8,8,7.7
	c3.3,1.2,12.2,3,19.6,3.8c8.1,0.9,14.4-3.6,18-12.7c-2.7-0.2-5.6-0.5-8.6-0.9c-0.6,1.8-1.3,3.6-2.2,5.3c-0.7,1.2-2.2,1.6-3.5,1
	c-1.2-0.7-1.6-2.2-0.9-3.5c0.6-1.1,1.1-2.3,1.5-3.5c-1.6-0.3-3.2-0.6-4.7-0.9c-0.5,2.1-1.2,4.1-1.8,5.6c-0.6,1.3-2.1,1.9-3.4,1.3
	c-1.3-0.6-1.9-2.1-1.3-3.3c0.5-1.2,1-2.8,1.5-4.6c-0.8-0.2-1.6-0.4-2.4-0.5c-0.9-0.2-1.7-0.4-2.6-0.6c-0.5,1.5-1,3-1.7,4.6
	c-0.5,1.3-2,1.9-3.3,1.4c-1.3-0.5-1.9-2-1.4-3.3s1-2.6,1.4-3.8c-4.3-1.1-8.7-2.3-13.1-3.6C-112.7,605.4-111.8,609.1-110.7,611.5z
	 M-63.6,605.3c1-5.2-0.1-8.8-1.3-11c-1.6-2.8-4.2-4.8-7.1-5.5l-3.2-0.7c-2.9-0.6-7.4-1.5-14-3.1c-8.9-2.2-16.5,1.8-20.7,10.9
	c4.3,1.3,8.6,2.4,12.7,3.5c0.7-3.2,0.8-5.5,0.8-5.5c0.1-1.4,1.3-2.5,2.7-2.4s2.5,1.3,2.4,2.7c0,0.2-0.2,2.8-0.9,6.4
	c0.8,0.2,1.6,0.4,2.5,0.6c0.8,0.2,1.7,0.4,2.5,0.5c0.7-3.6,1.2-6.6,1.2-6.7c0.2-1.4,1.5-2.3,2.9-2.1c1.4,0.2,2.3,1.5,2.1,2.9
	c0,0.2-0.5,3.3-1.3,6.9c1.7,0.3,3.3,0.6,4.9,0.9c0.6-3.1,0.7-5.5,0.7-5.6c0.1-1.4,1.3-2.5,2.7-2.4c1.4,0.1,2.5,1.3,2.4,2.7
	c0,0.2-0.1,2.8-0.8,6.1C-69,604.9-66.1,605.2-63.6,605.3z M-194.4,548.1c-1.1-0.2-3.4-0.2-5.6,2.2c-3.5,3.8-5.2,9-4.9,15.4l0,0
	c0.1,1.6,0.3,2.5,0.8,3.9c0.8,2.3,2.8,3.9,4.3,4.1c1.7,0.3,3.7-0.7,5.5-2.8c4-4.7,5.7-13.3,3.7-18.8
	C-191.6,549.8-192.9,548.4-194.4,548.1z"/>
<path fill="#002156" d="M-260.2,649.6c6.4,4.2,13.2,8,13.2,8l-2.4,6.2c-0.9-3.7-4.6-5.8-9.4-8.7l-15.6,22.6c-1.9,2.7-5.6,8.7-5.9,11
	c0,0-2.6-1.6-4.9-3.4c-2.4-1.8-4.8-3.5-4.8-3.5c2.3-0.6,6.4-6.5,8.8-9.8l15.2-21.7c-5.7-4.4-7.9-5.3-12-5.5l5.4-4.1
	C-272.5,640.8-267.3,644.9-260.2,649.6"/>
<path fill="#002156" d="M-12.4,726.2l0.5,0.5c-0.4,0-0.8,0.2-1.3,0.5l1.4,2.6c0.3,0.5,0.6,1.2,0.9,1.3c0,0-0.3,0.2-0.6,0.3
	c-0.3,0.2-0.6,0.3-0.6,0.3c0-0.3-0.1-0.6-0.5-1.3l-1.4-2.8c-0.5,0.2-1,0.5-1.2,0.9l-0.1-0.8c0,0,0.7-0.3,1.5-0.7
	C-13,726.6-12.4,726.2-12.4,726.2"/>
<path fill="#002156" d="M-250.1,705.7c-10.9-5.2-12.3-17.2-7-28.4c5.4-11.3,15.6-17.6,26.4-12.4c10.8,5.2,12.3,17.1,7,28.4
	C-229,704.5-239.2,710.9-250.1,705.7 M-232.2,668.2c-6.9-3.3-12.4,4.5-16.5,13.2c-4.1,8.6-6.8,17.9,0.1,21.2
	c6.9,3.3,12.4-4.6,16.6-13.2C-227.9,680.7-225.2,671.5-232.2,668.2z"/>
<path fill="#002156" d="M-201.5,676.5c7.3,2.1,13.3,3.5,13.3,3.5l-0.6,6.6c-2-2.8-2.9-3.5-9.1-5.1l-7.6,25.6
	c-0.6,2.3-3.6,11.2-2.7,12.9c0,0-2.1-0.4-5.5-1.4c-3.8-1.1-5.6-1.8-5.6-1.8c2-1.3,4.4-8.9,5.2-11.9l7.6-25.7
	c-6.5-2.2-8-2.3-11.1-0.9l3.8-5.6C-213.8,672.5-209.6,674.2-201.5,676.5"/>
<path fill="#002156" d="M-171.2,683.3c7.2,1.1,14.1,1.7,14.1,1.7l0.3,6.6c-2.7-2.4-3.7-3.2-10.9-4.1l-4.1,26.3
	c-0.3,2.4-1.8,11.5-0.6,13.1c0,0-2.5-0.3-6-0.8s-5.6-1-5.6-1c1.7-1.3,3.1-10,3.4-12.4l4.2-26.6c-6.2-1.2-7.5-0.8-10.4,1l2.7-6.2
	C-184.1,680.9-178.4,682.2-171.2,683.3"/>
<path fill="#002156" d="M-144.3,708.3l-0.5,17.6c9.3,0.1,15.6-0.5,18.4-4.5l-1.4,8c0,0-5.1,0.1-12.6,0c-8.2-0.1-14.7-0.7-14.7-0.7
	c1.4-1.4,1.7-10,1.7-12.4l0.8-17.3c0-4.6,0.5-12.1-1.1-13.6c6.7,0.5,5.8,0.5,12,0.7c8.1,0.3,12.6,0.1,12.6,0.1l1,6.6
	c-3.1-2.6-7.9-2.9-15.6-3l-0.4,14.8l11.8,0.1c1.1,0,1.1,0.6,1.1,1.8s0,1.8-1.2,1.8L-144.3,708.3"/>
<path fill="#002156" d="M-92.6,713.6c0.7,6.4,1.4,11,2.8,11.9c-0.4,0.7-1.5,1.5-3.1,1.7c-1.9,0.2-3.3-0.7-4.5-2.2l-21-24.1l0.8,15.3
	c0.3,2.4,0.5,11.5,2,12.7l-7,0.3c1.2-1.5,0.9-10.2,0.6-12.6l-1-17.3c-0.3-2.4-0.7-12-2.2-13.2l6.4-0.2l21.5,25.5l-1.7-14.6
	c-0.3-2.4-1.6-11.2-3-12.4c0,0,0.8-0.1,3.4-0.4c2.6-0.4,3.6-0.5,3.6-0.5c-1.2,1.5,0.2,10.5,0.5,12.9L-92.6,713.6"/>
<path fill="#002156" d="M-53.2,704.5c0.7,3,2.2,10.7,4.4,12.2c0,0-3.3,1-5.3,1.6c-1.8,0.6-5.8,1.6-5.8,1.6
	c0.9-1.7-1.2-10.9-1.7-13.2l-2-8l-13.4,3.2l1.5,8.1c0.4,2.6,1.8,11.5,3.6,12.6c0,0-1.9,0.4-5.7,1.2c-3.3,0.7-5.5,1-5.5,1
	c1-1.7-0.3-9.9-0.8-12.5l-3.2-17.2c-0.6-3.2-2.1-11.3-3.9-12.3c0,0,1.7-0.3,5.5-1.1c3.8-0.7,5.7-1.2,5.7-1.2
	c-0.9,1.9,0.7,9.7,1.2,12.4l1,5.5l13.1-3.2l-1.4-5.6c-0.8-3-2.4-10.1-4.2-11.4c0,0,1.8-0.5,5.4-1.6c3.6-1,5.2-1.6,5.2-1.6
	c-0.7,2,1.3,8.9,2.1,12.4L-53.2,704.5"/>
<path fill="#002156" d="M-28.9,694.3l-13,5.1l0.4,7.1c0.3,2.4,0.3,4.7,0.8,5.9c0.3,0.6,0.7,1,1.1,1.3c0,0-1.4,0.5-3.6,1.2
	s-3.5,1.1-3.5,1.1c0.8-1.3,1-3.2,0.9-5.5l-1.1-33.9c-0.1-1.2-0.3-2.4-0.7-3.3c-0.4-0.9-1-1.3-1.4-1.7c1.5-1,3.3-2,5.2-2.8
	c3-1.3,4.2-1.2,6.4,1.3l19.1,23.7c3.5,4.5,6.5,7.6,8.5,8.2c0,0-1.9,0.9-5.6,2.5c-3.7,1.6-6.1,2.6-6.1,2.6c0.2-0.8,0.2-1.6-0.2-2.8
	c-0.5-1.3-2.4-3.5-3.6-5.2L-28.9,694.3 M-31.3,691.5l-11.6-16l0.8,20.1L-31.3,691.5z"/>
<path fill="#002156" d="M25.6,682c-2.6,1.8-4.6,3.1-4.6,3.1c-0.2-2.6-5.2-8.9-6.6-10.9L3.2,659.6l9,28.8c-0.4,0.6-1,1.4-1.6,1.8
	c-1.8,1.4-3.5,1.1-5.1-0.2l-21.3-17.7l7.5,13.8c1.8,3.5,5.3,10.7,7.7,11.4c0,0-1.5,0.8-3.3,1.7c-1.9,0.9-3,1.4-3,1.4
	c0.4-2-3.1-8-5.1-11.9l-8.3-15.6c-2.5-4.7-5.3-9.5-7.7-10.4c1.8-0.9,2.4-1.2,5-2.5c2.2-1.1,4.1-2.2,4.1-2.2l24,20.4l-9.5-28.9
	c0,0,1.3-0.9,3.7-2.5s4.6-3.2,4.6-3.2c0.2,2.6,5.2,9.2,7,11.5l10.3,13.3c2.2,2.7,6.3,8.8,9.2,9.5C30.5,678.4,28.2,680.2,25.6,682"/>
<path fill="#002156" d="M-7,724.9l1.2,1.5c0.3,0.4,0.7,0.9,1.1,1.1c0,0-0.3,0.2-0.6,0.4s-0.5,0.4-0.5,0.4c-0.1-0.4-0.6-1-0.7-1.3
	l-1.3-1.7l1,3.3c0,0.1-0.1,0.2-0.2,0.2c-0.3,0.2-0.5,0.1-0.6-0.1l-2.5-2l1,1.6c0.2,0.4,0.6,1.2,1,1.3c0,0-0.2,0.1-0.4,0.2
	c-0.2,0.1-0.4,0.2-0.4,0.2c0-0.4-0.5-1.2-0.6-1.4l-1.1-1.8c-0.2-0.4-0.6-1-1-1.1c0,0,0.3-0.2,0.7-0.4c0.2-0.1,0.4-0.2,0.5-0.3
	l2.7,2.3l-1.1-3.2c0.1,0,0.3-0.1,0.5-0.3c0.3-0.2,0.6-0.4,0.6-0.4C-7.7,724-7.2,724.6-7,724.9"/>
<path fill="#002156" d="M-220.3,734.6c2.2,0.8,5.1,1.8,5.1,1.8c-2.4,1.8-4.6,8.7-6.1,12.5l-5.6,15.5c-1.5,4.2-4,10.3-3.2,12.5
	c0,0-3.1-1.1-5.6-1.9c-2.1-0.8-3.3-1.2-5.6-2.1c2.7-0.7,5.3-9.8,6.2-12.1l2.6-7.2l-13.4-5.6l-3.9,8.3c-1.3,2.9-4.3,9.4-3.6,11.4
	c0,0-2.4-1-5.8-2.6c-4.1-1.9-5-2.4-5-2.4c2.9-1.4,4.6-6,6.8-10.7l7-15.5c2.4-5.3,4.5-9.9,4.3-12.9c0,0,1.2,0.7,4.7,2.3
	c2.7,1.2,4.1,1.8,5.7,2.5c-2.2,0.9-5.2,8.7-6.8,12.2l-2,4.4l13.1,5.4l2-5c0.9-2.5,4.2-10.1,3.5-12.7
	C-225.9,732.6-223.2,733.5-220.3,734.6"/>
<path fill="#002156" d="M-205.2,784.9c-11.6-3.1-15.3-14.3-12.3-26.1c3.1-11.8,11.9-19.7,23.5-16.7s15.4,14.3,12.3,26.1
	C-184.8,779.9-193.5,787.9-205.2,784.9 M-194.8,745.5c-7.4-2-11.3,6.6-13.7,15.6s-3.2,18.4,4.2,20.4c7.4,2,11.3-6.6,13.7-15.7
	C-188.2,756.8-187.4,747.5-194.8,745.5z"/>
<path fill="#002156" d="M-173.6,789c0,0,0.7-0.8,1.2-2.4c0.7-2.3,1.2-6.7,1.7-10.1l3.3-25.2c-6.9-0.9-8.7-0.4-11.8,1.4l2.9-6.5
	c2.2,0.5,7,1,12.8,1.7c3.9,0.5,15.5,1.5,15.5,1.5l0.4,6.5c-2.6-3-5.2-3.2-11-3.7l-3.2,25.3c-0.3,2.4-1.6,10.5-0.3,12.9
	c-1.4-0.2-3.7-0.4-5.7-0.6C-169.8,789.7-172.5,789.2-173.6,789"/>
<path fill="#002156" d="M-118.3,780.3c0.1,7.6-6.1,13.1-15.6,12.9c-7.4-0.1-11.2-3.1-12.7-4.4l1.5-7.2c2.3,4.6,6.1,7.9,10.4,8
	c4.5,0.1,8-2.6,8.1-7c0-3.2-1.7-5.2-9.2-9c-7.1-3.7-9.8-7.4-9.8-12.9c0-7.5,6.5-11.3,14.1-11.3c5.6,0,9.5,1.7,12,3l-1.6,6.6
	c-3.4-4.5-6.5-6.2-10.2-6.3c-3.7-0.1-6.3,1.9-6.2,5.7c0,4.1,4.5,6.3,10.6,9.7C-119.9,772.1-118.3,776.1-118.3,780.3"/>
<path fill="#002156" d="M-83.7,757c0.3,0.9,0.4,2,0.5,2.8c0.1,0.8,0.1,1.8,0,2.8c-0.2,2.5-1.4,5.3-3.3,7.3
	c-2.9,3.1-6.8,4.6-11.9,4.8c-2,0.1-2.4-0.5-2.6-1.9v-0.3c0,0,0-0.5,0.4-0.6l0.5-0.1c1.5-0.2,3.7-0.7,5.5-2.8c1.7-2.2,2.3-5.2,2-8.4
	c-0.3-3.3-1.3-5.7-3.6-7.5c-1.9-1.5-4.2-2-6.6-1.8c0,0-0.9,0.1-2,0.2c0,0-0.6,0.1-0.6,0.7l2.5,26.2c0.2,2.3,0.8,10.4,2.7,12.1
	c0,0-2.1,0.2-6.2,0.6c-3.1,0.3-5.5,0.3-5.5,0.3c0.8-2,0.7-5,0.5-8.4l-2-20.6c-0.2-2.4-0.6-10.4-2.5-12.4c0,0,5.2-0.8,14.8-1.7
	c5-0.5,9.1,0.2,12.6,2.6C-85.9,752.4-84.4,754.7-83.7,757"/>
<path fill="#002156" d="M-44.5,765.4c2,9.1-2.2,16.8-11.6,19.1c-6.7,1.7-16.2-0.7-18.9-12.3l-3.2-13.7c-0.9-3.8-2.2-10.6-4.5-12.4
	c0,0,2.5-0.4,6.4-1.1c3.9-0.7,5.7-1.2,5.7-1.2c-1,1.6,0.1,8,1.1,12.6l4.1,17.4c0.7,3.2,1.8,5.4,3.6,6.7c1.3,1,3.1,1.2,5,0.9
	c1.7-0.3,3.4-1.3,4.4-3c1-1.8,1-4.4,0.2-7.6l-4.6-17.4c-1.3-4.8-2.7-10.8-4.3-11.8c0,0,1.9-0.5,5.5-1.5c2.7-0.8,4.3-1.2,5.5-1.7
	c-1.1,2.6,1.5,10.7,2,13L-44.5,765.4"/>
<path fill="#002156" d="M-2.2,761.9c0.9,0.3,1.9,0.6,2.7,0.2c-0.1,0.6-0.6,1.7-1.5,2.6c-3.8,3.9-7.4,3.2-8.6,2.8
	c-6.6-2.5-17.6-12.3-18-13.3c0,0-0.1-0.3,0.2-0.4l0.4-0.2c1.7-0.7,3.7-2.7,4.4-4.5c1.2-2.7,1-5.1-0.2-8.1c-1.3-3.1-3.6-5-5.3-5.5
	c-2.6-0.8-4.6-0.2-5.8,0.3c0,0-1.6,0.6-2,1.1c0,0-0.3,0.3,0.1,1.3l8.3,23.7c1.3,3.5,3.5,10.3,5.4,11.4c0,0-2.2,0.9-5.6,2.1
	c-3.4,1.2-5.5,1.8-5.5,1.8c0.7-2.7-1.9-9.9-2.6-11.9l-5.4-16c-1.3-3.9-3.8-10.8-5.8-11.9c0,0,3.9-1.1,12.7-4.8
	c4.7-2,9.2-2.8,13.3-1.6c2.5,0.7,4.2,2,5.5,4c0.5,0.8,0.9,1.5,1.2,2.3c0.3,0.7,0.5,1.6,0.7,2.3c0.4,2.4,0.1,5-1.3,7.4
	c0,0-1.3,2.4-4,4.4C-18.8,751.5-10.2,758.8-2.2,761.9"/>
</svg>
