<?xml version="1.0" encoding="utf-8"?>
<!-- Generator: Adobe Illustrator 16.0.0, SVG Export Plug-In . SVG Version: 6.00 Build 0)  -->
<!DOCTYPE svg PUBLIC "-//W3C//DTD SVG 1.1//EN" "http://www.w3.org/Graphics/SVG/1.1/DTD/svg11.dtd">
<svg version="1.1" id="Capa_1" xmlns="http://www.w3.org/2000/svg" xmlns:xlink="http://www.w3.org/1999/xlink" x="0px" y="0px"
	 width="708.9px" height="940.5px" viewBox="0 0 708.9 940.5" enable-background="new 0 0 708.9 940.5" xml:space="preserve">
<path fill="#009BD5" d="M21.3,380.3h666.4c-3.8-24.4-13.3-49.9-25.8-73.8H47.1C34.5,330.4,25.1,355.9,21.3,380.3z"/>
<path fill="#F8DD32" d="M687.6,380.3h-70.1v276.2c42.5-81,72-170.4,72-253.1c0-19.2-4.3-39.7-11.5-60h0
	C682.4,355.8,685.7,368.2,687.6,380.3z"/>
<path fill="#E8302A" d="M543.3,773.3c26.7-35.3,52.2-74.9,74.2-116.8V380.3h-74.2V773.3z"/>
<path fill="#F8DD32" d="M469.1,857.2c24.6-23.3,49.9-51.8,74.2-83.9v-393h-74.2V857.2z"/>
<path fill="#F8DD32" d="M168.6,777.3c25,32.5,50.9,61.2,76,84.4V380.3h-76V777.3z"/>
<path fill="#E8302A" d="M94.4,662.1c22.1,41.4,47.6,80.4,74.2,115.1V380.3H94.4V662.1z"/>
<path fill="#F8DD32" d="M20.1,427.1c5.1,77.8,34.2,160.2,74.2,235V380.3H21.3c1.9-12.1,5.2-24.5,9.6-36.9h0
	c-5.4,15.2-9.1,30.6-10.7,45.4V427.1z"/>
<g>
	<path fill="#F8DD32" d="M354.4,445.9c14.3,0,27.9,2.8,40.4,7.8v-73.4h-74.2v71C331.2,447.8,342.6,445.9,354.4,445.9z"/>
	<path fill="#F8DD32" d="M354.4,662c-11.8,0-23.2-1.9-33.8-5.4v258.6c12.4,5.4,23.8,8.3,33.8,8.3c11.8,0,25.5-4,40.4-11.3V654.2
		C382.3,659.2,368.7,662,354.4,662z"/>
</g>
<path fill="#E8302A" d="M394.8,380.3v73.4c39.7,16,67.7,54.8,67.7,100.2s-28,84.2-67.7,100.2v257.9c22.6-11.1,48-30.1,74.2-54.9
	V380.3H394.8z"/>
<path fill="#E8302A" d="M246.4,553.9c0-47.9,31.1-88.4,74.2-102.6v-71h-76v481.3c27.1,25,53.2,43.5,76,53.5V656.6
	C277.5,642.4,246.4,601.8,246.4,553.9z"/>
<circle fill="#A13922" cx="354.4" cy="553.9" r="108.1"/>
<circle fill="#CF8C27" cx="354.4" cy="553.9" r="100.9"/>
<path fill="#A13922" d="M430.1,562.5l0-2.1c0-41.8-14.1-67.5-30.7-75.9c0.3-0.6,1.1-1.7,2.9-3.1c3.9-3.1,10.1-5.9,16-5.7
	c-1.8-1.5-3.7-2.9-5.6-4.3c-5.4,1.1-10.2,3.7-13.3,6.3c-1.6,1.3-3.4,3-4.3,5c-2.6-0.8-5.1-1.2-7.7-1.2c-13.3,0-21.3,13.8-25.1,20.4
	c-0.6,1-1.1,2-1.4,2.4c-2.4,3.3-9.1,5-19.9,5c-11.7,0-15.6-2.4-15.6-9.5c0-11.8,15.9-38.5,38.2-46.5c-3-0.3-6-0.4-9-0.4
	c-0.4,0-0.8,0-1.2,0c-19.7,11.6-32.7,35.2-32.7,46.9c0,1.1,0.1,2.1,0.3,3.1c-3.8,2.1-11.8,6.1-18.2,6.1c-14.6,0-25.8-11.2-29.2-15.5
	c-1,1.3-1.9,2.7-2.9,4c5.4,6.5,17.5,16.2,32,16.2c7,0,15.1-3.8,19.8-6.3c4,6.6,13.3,6.6,18.5,6.6c11,0,18.1-1.7,22.1-5.2
	c4.7,3.7,17,15,17,33.4c0,11.4-0.2,19.7-3.3,21.4c-3.5,2-28.3,5.2-44.2,5.2c-42.7,0-75.1-15.8-78.8-18.3c0,1.1-0.1,2.1-0.1,3.2
	c0,0.7,0,1.5,0.1,2.2c10.4,5.4,41.3,17.6,78.9,17.6c14.4,0,39.4-2.8,45.8-5.5c1.9,3.9,5.1,14.2,5.1,22.5c0,11.8-4.5,27.3-26.2,34.2
	l-0.2,0.1c-5.1-3-18.2-8.4-27.9-8.4c-6.7,0-14.5,2.8-18.8,6.1c-4.7-4-18.4-14.9-28.5-14.9c-3.9,0-8.9,1.1-11.6,1.8
	c0.9,1.4,1.9,2.8,2.9,4.2c2.6-0.6,6-1.3,8.7-1.3c8,0,20.6,9.6,25.4,13.7c-0.2,0.4-0.3,0.8-0.3,1.3c0,3.6,3.9,12.7,9.5,19.9
	c2.8,1.1,5.6,2.2,8.5,3l0.4-0.5c-7.3-5.7-13.4-18.5-13.7-22.1c1.2-1.8,8.9-6.5,17.4-6.5c8.3,0,20.5,4.8,25.3,7.6
	c0.3,5.6,10.3,17.2,20.9,23.7c2.3-0.5,4.6-1.1,6.8-1.7c-0.2-0.1-0.4-0.1-0.5-0.2C430.5,626.7,430.2,580.3,430.1,562.5z M376.5,647.9
	c-9.1-6-16.5-15.4-17.3-18.6c23.8-7.8,28.9-25.2,28.9-38.5c0-8.6-3.3-20.7-6.2-25.7c2.7-4.3,2.9-11.9,2.9-22.7
	c0-20.5-13.6-33.1-18.9-37.2c0.1-0.2,0.3-0.5,0.5-0.8c3.4-5.9,10.4-18.1,21-18.1c18.4,0,38,26,38,74.1l0,2.1
	C425.5,579.9,425.7,625.6,376.5,647.9z"/>
<path d="M468.8,21.6c-11.1,0-23,31.2-53.7,31.2c-17.8,0-27.9-13-29-14.2c0-6,8.4-18.7,8.4-30.4c0-3-1.2-8.2-11-8.2
	c-9.8,0-15.1,7.8-16,9.2c-0.9,1.3-4.5-1.6-13.1-1.6s-12.2,2.9-13.1,1.6c-0.9-1.4-6.3-9.2-16-9.2c-9.8,0-11,5.2-11,8.2
	c0,11.7,8.4,24.4,8.4,30.4c-1.1,1.2-11.3,14.2-29,14.2c-30.7,0-42.6-31.2-53.7-31.2C206.1,21.6,0,163.8,0,388.5
	c0,272.4,253.7,552,354.4,552c100.7,0,354.4-279.5,354.4-552C708.9,163.8,502.8,21.6,468.8,21.6z M476.9,37.8
	c6.1,0,76,78.4,71.3,140.8c-9-80-72.5-135.8-72.5-139.4C475.7,38.1,476.4,37.8,476.9,37.8z M235,37.8c0.5,0,1.3,0.3,1.3,1.3
	c0,3.6-63.5,59.5-72.5,139.4C159,116.2,228.9,37.8,235,37.8z M354.4,923.4c-100.7,0-335.1-286.9-335.1-520
	c0-86.9,87.7-200.8,137.1-200.8c4.6,0,10.8,1.4,10.8,1.4s19.7-16.4,47.4-16.4c51.9,0,79.2,49.7,79.2,67.9c0,9.3-3.3,7.5-3.3,12.8
	c0,3,4.1,7.2,7,7.2c3.8,0,16-11.8,18.6-17.2c17.4,0,33.6,19.3,38.4,34.4c4.8-15.1,21-34.4,38.4-34.4c2.6,5.4,14.7,17.2,18.6,17.2
	c2.9,0,7-4.2,7-7.2c0-5.3-3.3-3.6-3.3-12.8c0-18.2,27.2-67.9,79.2-67.9c27.6,0,47.4,16.4,47.4,16.4s6.1-1.4,10.8-1.4
	c49.5,0,137.1,113.9,137.1,200.8C689.5,636.5,455.1,923.4,354.4,923.4z"/>
<path fill="#EFECEA" d="M58.6,318.8l19.6,52.9h12.5l19.6-52.9H97.1c0,0-11.6,38.4-12.2,38.4S73,318.8,73,318.8H58.6z"/>
<path fill="#EFECEA" d="M148.2,371.7h13.6l-21.1-52.9h-12.9l-21.1,52.9h13.1l4.4-11.7H144L148.2,371.7z M127.7,350.8l6.7-17.6
	l6.3,17.6H127.7z"/>
<path fill="#EFECEA" d="M463.3,371.7h13.6l-21.1-52.9h-12.9l-21.1,52.9h13.1l4.4-11.7h19.8L463.3,371.7z M442.8,350.8l6.7-17.6
	l6.3,17.6H442.8z"/>
<polygon fill="#EFECEA" points="168.6,318.8 168.6,371.7 210.2,371.7 210.2,360.5 181.5,360.5 181.5,318.8 "/>
<polygon fill="#EFECEA" points="221.1,318.8 221.1,371.7 262.6,371.7 262.6,360.8 233.2,360.8 233.2,348.7 258.6,348.7 258.6,339.6 
	233.2,339.6 233.2,329.4 262.6,329.4 262.6,318.8 "/>
<polygon fill="#EFECEA" points="596.8,318.8 596.8,371.7 608.9,371.7 608.9,348.7 634.3,348.7 634.3,339.6 608.9,339.6 608.9,329.4 
	638.2,329.4 638.2,318.8 "/>
<polygon fill="#EFECEA" points="277,318.8 277,371.7 288.2,371.7 288.2,337.2 310.9,371.7 323.9,371.7 323.9,318.8 311.5,318.8 
	311.5,354.7 289.8,318.8 "/>
<path fill="#EFECEA" d="M373.8,337.7h13.8c0-11.2-12.8-19-25.1-19c-17.4,0-26.3,15.5-26.3,28c0,15.2,9.8,24.9,25.4,24.9
	c18.6,0,26.1-10.3,26.1-19.2h-14.1c0,3-1.5,10.8-10.8,10.8s-14.3-8-14.3-16.6s4.9-18.2,14.5-18.2
	C370.9,328.5,373.8,332.7,373.8,337.7z"/>
<path fill="#EFECEA" d="M543.8,337.7h13.8c0-11.2-12.8-19-25.1-19c-17.4,0-26.3,15.5-26.3,28c0,15.2,9.8,24.9,25.4,24.9
	c18.6,0,26.1-10.3,26.1-19.2h-14.1c0,3-1.5,10.8-10.8,10.8c-9.3,0-14.3-8-14.3-16.6s4.9-18.2,14.5-18.2
	C541,328.5,543.8,332.7,543.8,337.7z"/>
<rect x="400.5" y="318.8" fill="#EFECEA" width="12.7" height="52.9"/>
<rect x="569.7" y="359.2" fill="#EFECEA" width="13.5" height="12.5"/>
<rect x="637.5" y="359.2" fill="#EFECEA" width="13.5" height="12.5"/>
</svg>
