<?xml version="1.0" encoding="utf-8"?>
<!-- Generator: Adobe Illustrator 19.1.0, SVG Export Plug-In . SVG Version: 6.00 Build 0)  -->
<svg version="1.1" id="Layer_1" xmlns="http://www.w3.org/2000/svg" xmlns:xlink="http://www.w3.org/1999/xlink" x="0px" y="0px"
	 viewBox="-190.777 301.078 156.875 191.088" style="enable-background:new -190.777 301.078 156.875 191.088;"
	 xml:space="preserve">
<style type="text/css">
	.st0{fill:#FFFFFF;}
	.st1{fill:none;stroke:#000000;stroke-width:1.0001;stroke-linejoin:round;stroke-miterlimit:2.6131;}
	.st2{stroke:#000000;stroke-width:1.0001;stroke-miterlimit:2.6131;}
	.st3{fill:none;stroke:#FFFFFF;stroke-width:10.0001;stroke-linejoin:round;stroke-miterlimit:2.6131;}
	.st4{fill:none;stroke:#000000;stroke-width:4;stroke-linejoin:round;stroke-miterlimit:2.6131;}
</style>
<g>
	<path class="st0" d="M-112.587,490.167c-85.514-52.01-76.092-155.304-76.092-155.304c57.975,0.722,76.092-31.784,76.092-31.784
		h-0.007c0,0,18.118,32.505,76.092,31.783c0,0,9.422,103.294-76.092,155.304h0.007V490.167z"/>
	<path class="st0" d="M-112.588,490.166c-85.514-52.01-76.092-155.304-76.092-155.304c57.975,0.722,76.092-31.784,76.092-31.784
		h-0.007c0,0,18.118,32.505,76.092,31.783c0,0,9.422,103.294-76.092,155.304L-112.588,490.166L-112.588,490.166z"/>
	<path class="st1" d="M-112.588,479.875c-0.001,0-0.002-0.002-0.003-0.002s-0.002,0.002-0.003,0.002 M-112.594,479.875h0.006"/>
	<path class="st2" d="M-44.871,341.655c-51.494,0.642-67.654-28.164-67.72-28.282c-0.066,0.118-16.227,28.923-67.72,28.282
		c0,0-1.275,13.986,1.685,33.792c76.186,0,113.643,0,132.069,0C-43.596,355.641-44.871,341.655-44.871,341.655L-44.871,341.655z"/>
	<path class="st2" d="M-122.994,379.782c0,48.063,0,76.405,0,93.089c3.284,2.428,6.736,4.771,10.403,7.002
		c3.747-2.279,7.274-4.678,10.622-7.162c0-16.703,0-45.014,0-92.929C-108.401,379.782-115.383,379.782-122.994,379.782
		L-122.994,379.782z"/>
	<path class="st2" d="M-150.542,379.782c0,28.114,0,49.485,0,65.712c5.823,7.803,12.765,15.316,21.025,22.242
		c0-17.168,0-44.494,0-87.954C-136.087,379.782-143.087,379.782-150.542,379.782L-150.542,379.782z"/>
	<path class="st2" d="M-177.922,379.782c2.916,16.72,8.896,36.888,20.857,56.144c0-14.812,0-33.244,0-56.144
		C-163.674,379.782-170.613,379.782-177.922,379.782L-177.922,379.782z"/>
	<path class="st2" d="M-67.899,379.782c0,22.718,0,41.042,0,55.794c11.816-19.15,17.74-39.176,20.639-55.794
		C-52.512,379.782-59.252,379.782-67.899,379.782L-67.899,379.782z"/>
	<path class="st2" d="M-95.448,379.782c0,43.306,0,70.591,0,87.771c8.268-6.961,15.211-14.512,21.025-22.348
		c0-16.191,0-37.475,0-65.423C-80.569,379.782-87.533,379.782-95.448,379.782L-95.448,379.782z"/>
	<path class="st0" d="M-140.77,362.428c-1.033,2.534-2.886,4.243-5.02,4.243c-3.254,0-5.892-3.933-5.892-8.785
		c0-4.852,2.638-8.785,5.892-8.785c2.124,0,3.97,1.692,5.006,4.207c2.647,0,4.681,0,6.199,0c-1.534-5.517-6.044-9.074-11.75-9.074
		c-7.075,0-11.233,6.187-11.233,14.085s4.52,13.218,11.595,13.218c5.539,0,9.722-3.711,11.282-9.11
		C-136.23,362.428-138.218,362.428-140.77,362.428L-140.77,362.428z"/>
	<path class="st0" d="M-107.293,370.6h5.799l-10.147-26.366c0,0-0.008,0-0.633,0c-2.309,0-3.477,0-4.077,0c-0.624,0-0.633,0-0.633,0
		l-10.147,26.366h5.798l1.737-5.057h10.566L-107.293,370.6L-107.293,370.6z M-117.982,360.848l3.669-10.681l3.67,10.681H-117.982
		L-117.982,360.848z"/>
	<polygon class="st0" points="-93.229,370.645 -93.229,344.234 -85.199,344.234 -80.422,362.25 -75.647,344.234 -67.615,344.234 
		-67.615,370.645 -72.574,370.645 -72.608,349.855 -77.922,370.645 -82.996,370.645 -88.235,349.855 -88.27,370.645 	"/>
	<path class="st3" d="M-112.588,484.553c-80.383-48.889-71.527-145.986-71.527-145.986c54.497,0.678,71.521-29.876,71.521-29.876
		s17.03,30.555,71.528,29.876c0,0,8.855,97.097-71.528,145.986 M-112.594,484.553h0.007"/>
	<path class="st4" d="M-112.588,490.166c-82.989-50.474-75.952-156.84-76.092-155.304c57.975,0.722,76.086-31.784,76.086-31.784
		s18.118,32.505,76.092,31.783c0.14,1.536,11.947,101.758-76.092,155.304L-112.588,490.166z M-122.593,490.166"/>
</g>
</svg>
