<?xml version="1.0" encoding="utf-8"?>
<!-- Generator: Adobe Illustrator 19.1.0, SVG Export Plug-In . SVG Version: 6.00 Build 0)  -->
<svg version="1.1" id="Layer_1" xmlns="http://www.w3.org/2000/svg" xmlns:xlink="http://www.w3.org/1999/xlink" x="0px" y="0px"
	 viewBox="-200.501 310.789 175.758 171.666" style="enable-background:new -200.501 310.789 175.758 171.666;"
	 xml:space="preserve">
<style type="text/css">
	.st0{fill:#FFFFFF;}
	.st1{fill:#323991;}
</style>
<g>
	<path class="st0" d="M-199.195,314.054h172.145c0,0,16.549,115.19-85.573,165.395C-209.5,433.744-199.195,314.054-199.195,314.054z
		"/>
	<path class="st1" d="M-197.552,310.789h169.861h2.469l0.113,2.471c2.189,48.38-5.52,83.201-20.709,109.611
		c-15.225,26.469-37.895,44.381-65.604,58.953l-1.2,0.631l-1.2-0.631c-27.71-14.572-50.378-32.482-65.603-58.953
		c-15.19-26.41-22.899-61.231-20.709-109.611l0.112-2.471H-197.552L-197.552,310.789z M-195.007,342.98h164.769
		c0.406-8.485,0.436-17.479,0.068-27.028h-164.904C-195.442,325.501-195.413,334.495-195.007,342.98L-195.007,342.98z
		 M-30.533,348.143H-194.71c2.023,29.929,8.924,53.302,19.763,72.146c14.455,25.133,35.984,42.318,62.326,56.342
		c26.341-14.023,47.87-31.209,62.325-56.342C-39.457,401.445-32.557,378.072-30.533,348.143L-30.533,348.143z"/>
	<path class="st1" d="M-175.177,345.562v79.069c-13.916-22.5-21.209-49.089-23.017-79.069H-175.177L-175.177,345.562z"/>
	<polygon class="st1" points="-157.304,345.562 -139.431,345.562 -139.431,463.201 -157.304,448.123 	"/>
	<path class="st1" d="M-50.066,345.562h22.016c-1.424,32.43-9.457,57.668-22.016,77.987V345.562L-50.066,345.562z"/>
	<polygon class="st1" points="-85.812,345.562 -67.939,345.562 -67.939,447.306 -85.812,463.029 	"/>
	<polygon class="st1" points="-121.559,345.562 -103.686,345.562 -103.686,474.908 -112.622,479.449 -121.559,475.258 	"/>
	<path class="st1" d="M-169.295,337.196l-7.871,0.004l-1.083,3.688h-7.06l8.403-22.352h7.53l8.403,22.352h-7.227L-169.295,337.196
		L-169.295,337.196z M-170.744,332.364l-2.475-8.034l-2.455,8.038L-170.744,332.364L-170.744,332.364z M-162.693,318.532
		l7.226,0.004l5.032,16.087l4.954-16.087h7.016l-8.295,22.352h-7.49L-162.693,318.532L-162.693,318.532z M-124.22,337.196
		l-7.872,0.004l-1.083,3.688h-7.06l8.403-22.352h7.53l8.403,22.352h-7.227L-124.22,337.196L-124.22,337.196z M-125.668,332.364
		l-2.476-8.034l-2.454,8.038L-125.668,332.364L-125.668,332.364z M-113.411,318.532l6.923,0.004v22.352h-6.923V318.532
		L-113.411,318.532z M-80.672,318.532l17.078,0.004v4.804h-10.139v3.902h8.662v4.512h-8.662v9.133h-6.939V318.532L-80.672,318.532z
		 M-44.986,331.755l6.051,1.83c-0.406,1.696-1.047,3.12-1.92,4.256c-0.871,1.136-1.959,2-3.254,2.576
		c-1.299,0.576-2.949,0.869-4.949,0.869c-2.428,0-4.416-0.353-5.953-1.059c-1.541-0.706-2.873-1.952-3.988-3.729
		c-1.119-1.777-1.68-4.058-1.68-6.833c0-3.701,0.986-6.544,2.949-8.529c1.969-1.988,4.756-2.982,8.352-2.982
		c2.814,0,5.031,0.572,6.637,1.708c1.611,1.136,2.812,2.889,3.596,5.247l-6.104,1.354c-0.211-0.682-0.434-1.181-0.67-1.493
		c-0.385-0.527-0.859-0.938-1.414-1.222c-0.561-0.284-1.189-0.426-1.879-0.426c-1.562,0-2.764,0.633-3.6,1.891
		c-0.629,0.933-0.945,2.406-0.945,4.406c0,2.479,0.377,4.184,1.129,5.101c0.754,0.917,1.812,1.379,3.172,1.379
		c1.322,0,2.326-0.374,2.998-1.112c0.674-0.738,1.17-1.822,1.469-3.234h0.003V331.755z"/>
	<polygon class="st1" points="-112.622,317.181 -108.676,317.181 -104.73,314.471 -108.469,314.054 	"/>
</g>
</svg>
