<?xml version="1.0" encoding="utf-8"?>
<!-- Generator: Adobe Illustrator 19.1.0, SVG Export Plug-In . SVG Version: 6.00 Build 0)  -->
<svg version="1.1"
	 id="svg4334" xmlns:rdf="http://www.w3.org/1999/02/22-rdf-syntax-ns#" xmlns:sodipodi="http://sodipodi.sourceforge.net/DTD/sodipodi-0.dtd" xmlns:svg="http://www.w3.org/2000/svg" xmlns:cc="http://creativecommons.org/ns#" xmlns:inkscape="http://www.inkscape.org/namespaces/inkscape" xmlns:dc="http://purl.org/dc/elements/1.1/" sodipodi:docname="Modificado_Símbolo_da_Chapecoense.svg" inkscape:version="0.48.5 r10040"
	 xmlns="http://www.w3.org/2000/svg" xmlns:xlink="http://www.w3.org/1999/xlink" x="0px" y="0px" viewBox="-80 231.6 450 415.4"
	 style="enable-background:new -80 231.6 450 415.4;" xml:space="preserve">
<style type="text/css">
	.st0{fill:#026B38;}
	.st1{fill:#FFFFFF;}
</style>
<sodipodi:namedview  showgrid="false" gridtolerance="10" borderopacity="1" inkscape:cy="132.62957" inkscape:cx="435.80197" id="namedview4497" objecttolerance="10" guidetolerance="10" pagecolor="#ffffff" bordercolor="#666666" inkscape:zoom="2" inkscape:window-maximized="1" inkscape:window-height="705" inkscape:window-y="-8" inkscape:window-x="-8" inkscape:pageopacity="0" inkscape:window-width="1366" inkscape:current-layer="svg4334" inkscape:pageshadow="2">
	</sodipodi:namedview>
<g id="_x23_026b38ff" transform="matrix(1.0000244,0,0,1.0000267,-0.00823975,5.2512e-5)">
	<path id="path4346" inkscape:connector-curvature="0" class="st0" d="M113.3,233.8c28.3-4,57.3-2.6,85.1,4.2
		c27.7,6.8,54,18.9,77.1,35.5c44.1,31.4,76.3,79.2,88.4,132.1c3.9,16.2,5.3,33,6.2,49.6v2.9c-0.7,13-1.6,26.1-4,38.9
		c-7.4,41.2-26.8,80.1-55.2,110.8c-8.8,9.6-18.5,18.5-28.8,26.4c-5.6,4.3-11.2,8.5-16.8,12.7c0-14.8,0.1-29.7,0.1-44.5
		c-19.5,16-42.2,28.2-66.5,35.4c-26.7,8-55.1,9.9-82.7,5.7c-26.2-4-51.6-13.7-73.9-28.1c-7.2-4.6-13.9-9.8-20.4-15.1
		c0.6,15.5,1.4,30.9,2,46.4c-9.8-7.6-19.8-14.9-29.1-23.2c-31.2-27.8-54.5-64.5-66-104.8c-5.5-19.1-8.3-38.8-8.8-58.7v-6.2
		c0.4-26.8,5.4-53.5,15.1-78.5c18.2-47.3,52.9-87.9,96.7-113.3C56.8,247.5,84.6,237.8,113.3,233.8 M88,246.7
		c-28.1,7.6-54.6,20.9-77.4,38.9c-38.3,29.9-66.2,72.9-77.5,120.2c-8.8,36.3-8.1,74.8,2.1,110.7c6.7,23.8,17.6,46.4,32,66.6
		c13.5,19,30.3,35.7,49,49.6c-0.6-12.4-1.1-24.7-1.7-37.1c3.3-0.6,6.5-1.3,9.8-1.8c21.7,19.2,48.2,33.2,76.3,40.2
		c31.3,7.9,64.8,7.2,95.7-2c24.9-7.3,48.1-20.1,67.8-37c2.7,0.5,5.4,1.1,8.1,1.6c0,12.4-0.1,24.8-0.1,37.1
		c24.6-17.9,45.6-40.6,60.9-66.9c15.1-25.8,24.8-54.7,28.1-84.4c3.6-31.8,0.4-64.4-9.9-94.7c-15.6-46.7-47.7-87.7-89.2-114.1
		c-27.7-17.8-59.5-29.2-92.2-32.9C142.6,237.4,114.6,239.5,88,246.7L88,246.7z"/>
	<path id="path4348" inkscape:connector-curvature="0" class="st0" d="M94.6,249.8c24.4-5.9,49.9-7.4,74.8-4.6
		c32.8,3.7,64.7,15.3,92.3,33.5c21.5,14.1,40.4,32.2,55.6,53c16.2,22.1,28,47.5,34.6,74.1c7.8,31.7,8.3,65.3,1.2,97.2
		c-5.3,24.3-15,47.6-28.5,68.5c-12.8,19.9-29.1,37.7-47.7,52.4c0-10.4,0-20.8,0.1-31.2c-9.8-2-19.7-3.9-29.5-5.8
		c18.1-14.5,33.3-32.6,44-53.1c14.5-27.3,21.1-58.7,18.7-89.5c-2.1-29.3-12.4-58-29.3-82.1c-15.7-22.5-37-41-61.5-53.3
		c-36.5-18.6-79.9-22.7-119.3-11.6c-23.8,6.6-46.1,18.8-64.6,35.2c-19.8,17.4-35.5,39.6-45.1,64.2c-14,35.6-15,76.1-2.9,112.3
		c8.5,25.8,23.6,49.3,43.4,67.8c3.2,3.2,6.8,5.9,10.1,9c-10.4,2-20.8,3.9-31.2,5.8c0.5,10.3,0.9,20.5,1.4,30.8
		c-17.5-14.3-33-31.1-45.3-50.1c-12-18.3-21.1-38.6-26.8-59.7c-8.6-31.3-9.7-64.6-3.5-96.5c5.3-27,15.8-53,31-76
		c14.1-21.6,32.2-40.5,53.1-55.7C42,268.2,67.6,256.3,94.6,249.8 M145.6,257.3c-3.1,2.7-4.6,6.9-4.9,11c-0.4,4.5,0.2,9.3,3.1,12.9
		c3.8,4.7,11,5.8,16.4,3.4c3.7-1.7,5.9-5.4,7-9.2c-2.1-0.1-4.1-0.2-6.2-0.3c-0.6,1.4-1.2,2.9-2.4,3.9c-2.8,2.4-7.7,1.8-9.8-1.3
		c-1.6-2.3-1.9-5.2-1.8-7.9c0.2-2.9,0.8-6,2.9-8.1c2.3-2.4,6.3-2.5,9-0.8c1.5,0.9,2,2.8,2.6,4.3c2.1,0.1,4.2,0.2,6.3,0.3
		c-0.5-3.7-2.3-7.4-5.6-9.2C157.1,253.3,150.1,253.4,145.6,257.3 M112.6,257c1,10,2.1,20,3.2,29.9c7.6-0.7,15.2-1.6,22.8-2.4
		c-0.2-1.8-0.4-3.5-0.6-5.3c-5.5,0.6-11.1,1.2-16.6,1.8c-0.3-2.6-0.6-5.2-0.8-7.8c4.9-0.5,9.7-1,14.6-1.6c-0.2-1.8-0.4-3.5-0.6-5.3
		c-4.9,0.5-9.7,1-14.6,1.6c-0.2-2.1-0.4-4.2-0.7-6.3c5.3-0.6,10.6-1.1,15.9-1.7c-0.2-1.8-0.4-3.5-0.6-5.3
		C127.3,255.4,120,256.2,112.6,257 M181.5,258.5c-4.7,0.8-8.4,4.5-9.9,8.9c-1.8,5-2.6,11,0.3,15.8c4.2,6.5,13.8,8.7,20.4,4.6
		c4.1-2.6,6.1-7.5,6.8-12.1c0.7-4.1,0.3-8.7-2.4-12C193,259.3,187,257.3,181.5,258.5 M83.8,263.8c2.5,9.7,5,19.4,7.6,29.2
		c2-0.5,4.1-1,6.1-1.6c-0.9-3.5-1.8-7-2.7-10.5c3.8-1.2,8.1-1.5,11.3-4c4.4-3.9,3.6-11.5-0.8-15.1c-2.2-1.8-5.2-2.1-7.9-1.4
		C92.8,261.4,88.3,262.7,83.8,263.8 M197.5,292.7c7.1,2.8,14.2,5.6,21.3,8.4c0.6-1.6,1.4-3.2,1.9-4.8c-4.9-2.4-10.3-4.1-15.4-6.3
		c0.9-2.4,1.9-4.9,2.8-7.3c4.6,1.8,9.1,3.6,13.7,5.4c0.7-1.7,1.3-3.3,2-5c-4.6-1.8-9.1-3.6-13.7-5.4c0.8-2,1.6-3.9,2.3-5.9
		c5,2,9.9,3.9,14.9,5.9c0.7-1.7,1.3-3.3,2-5c-6.9-2.7-13.7-5.4-20.6-8.1C204.9,274,201.2,283.4,197.5,292.7 M61.8,272.6
		c0.7,10.6,1.4,21.3,2.1,31.9c2-0.9,4.1-1.7,6.1-2.6c-0.1-2.2-0.7-4.5-0.3-6.6c3.3-1.6,6.7-2.9,10-4.3c1.4,1.7,2.8,3.3,4.2,4.9
		c2.1-0.9,4.2-1.8,6.2-2.7c-7.1-7.9-14.5-15.6-21.7-23.5C66.2,270.6,64,271.6,61.8,272.6 M220.6,302c1.7,1,3.4,2,5.1,3
		c3.7-6.2,7.3-12.4,10.9-18.6c-0.1,8.3-0.1,16.6-0.2,24.9c1.8,1.1,3.6,2.1,5.4,3.2c5.1-8.7,10.2-17.3,15.2-26c-1.7-1-3.4-2-5.1-3
		c-3.6,6.1-7.1,12.1-10.7,18.2c0.1-8.1,0.1-16.1,0.3-24.2c-1.9-1.2-3.8-2.3-5.7-3.4C230.8,284.6,225.7,293.3,220.6,302 M41.6,283
		c2,3.2,4.1,6.4,6.1,9.7c-3.3,2.1-6.6,4.2-9.9,6.3c-2.1-3.2-4.1-6.4-6.1-9.6c-1.8,1.1-3.6,2.3-5.3,3.4c5.4,8.5,10.8,16.9,16.2,25.4
		c1.8-1.1,3.5-2.3,5.3-3.4c-2.4-3.8-4.9-7.6-7.3-11.4c3.3-2.1,6.6-4.2,9.9-6.3c2.4,3.8,4.8,7.6,7.3,11.4c1.8-1.1,3.5-2.3,5.3-3.4
		c-5.4-8.5-10.8-16.9-16.2-25.4C45.2,280.8,43.4,281.9,41.6,283 M260.1,296.4c-3.4,1.8-6.1,6-4.5,9.9c1.8,4.3,5.6,7.3,7.6,11.5
		c1.3,2.3-1.6,5-3.9,4c-4-1.2-8.6-5.6-5.7-9.9c-1.6-1.3-3.1-2.6-4.7-3.8c-1.1,1.9-2.2,4-2.1,6.3c0.1,3.7,2.6,6.9,5.3,9.2
		c2.9,2.5,6.8,4.5,10.8,3.7c4.4-1,8.3-5.9,6.6-10.5c-1.8-4.3-5.4-7.5-7.8-11.5c-1.3-2,0.7-4.6,2.9-4.3c4,0.6,8.2,5.1,5.8,9.2
		c1.6,1.3,3.1,2.5,4.7,3.8c1.2-2.1,2.2-4.4,1.9-6.8c-0.5-4.3-3.8-7.6-7.3-9.8C266.9,295.5,263.2,294.8,260.1,296.4 M6.4,316.2
		c0.6,4.4,3.3,8.2,6.5,11.2c3,2.8,6.9,4.8,11.1,4.5c5.5-0.5,10.5-4.7,12.2-10c1.1-3.6-0.1-7.4-1.7-10.6c-1.6,1.4-3.1,2.7-4.7,4.1
		c0.5,1.4,1.1,2.7,1,4.2c-0.2,3.8-4.3,7-8,6.2c-3-0.6-5.4-2.7-7.2-5c-1.8-2.2-3.4-4.9-3.1-7.9c0.3-3,2.8-5.5,5.7-6.2
		c1.8-0.5,3.5,0.5,5,1.2c1.6-1.4,3.2-2.8,4.7-4.2c-1.6-1.1-3.2-2.2-5.1-2.7C14.2,299.2,5,307.5,6.4,316.2 M263.8,332.4
		c5.2,5.6,10.3,11.2,15.5,16.8c1.3-1.2,2.6-2.4,3.9-3.6c-3.8-4.1-7.6-8.2-11.3-12.3c1.9-1.8,3.8-3.5,5.8-5.3
		c3.3,3.6,6.6,7.2,9.9,10.8c1.3-1.2,2.6-2.4,3.9-3.6c-3.3-3.6-6.6-7.2-9.9-10.8c1.6-1.4,3.1-2.9,4.7-4.3c3.6,3.9,7.2,7.8,10.8,11.8
		c1.3-1.2,2.6-2.4,4-3.6c-5-5.4-10-10.9-15-16.3C278.6,318.8,271.2,325.6,263.8,332.4 M-12.4,332.7c-7.7,2.7-12.7,12.5-8.7,20
		c2.9,5,8,8.7,13.7,10c9.7,1.9,18.5-8.7,16.2-17.9c-1.2-4.4-4.7-7.8-8.5-10.1C-3.4,332.4-8.1,331.1-12.4,332.7 M286.4,358.8
		c2.3,3.8,4.5,7.7,6.9,11.5c1.6,2.7,4.3,4.8,7.4,5.2c4.3,0.7,8.7-0.7,12.4-2.9c3.4-2.1,6.5-5.1,7.6-9c0.8-2.9,0-6-1.5-8.5
		c-2.2-3.9-4.6-7.8-6.9-11.7C303.7,348.5,295,353.7,286.4,358.8 M-40.4,356.6c-0.4,0.8-0.8,1.5-1.1,2.3c0.2,0.8,0.9,1.6,0.6,2.5
		c-1.2,2.2-4.1,3.5-4.4,6.2c-0.4,2.2,1.4,3.8,2.8,5.3c0.4-0.8,0.8-1.5,1.1-2.3c-0.4-0.8-0.7-1.6-0.8-2.4c1.2-2.3,3.8-3.7,4.6-6.2
		C-37,359.8-38.9,358-40.4,356.6 M-34.5,364.1c-1.1,2.2-2.1,4.3-3.2,6.5c7.4,7.7,14.9,15.3,22.3,23c1-2,2-4,2.9-6
		c-1.5-1.5-3.1-3.1-4.6-4.6c1.6-3.3,3.3-6.6,4.9-9.9c2.2,0.3,4.3,0.6,6.5,1c1-2,2-4.1,3-6.1C-13.3,366.6-23.9,365.3-34.5,364.1
		 M300.1,382.6c2.8,7.1,5.7,14.2,8.5,21.2c1.6-0.7,3.3-1.3,4.9-2c-2.1-5.2-4.1-10.3-6.2-15.5c2.4-1,4.8-1.9,7.2-2.9
		c1.8,4.5,3.7,9.1,5.5,13.6c1.6-0.7,3.3-1.3,4.9-2c-1.8-4.5-3.6-9.1-5.5-13.6c2-0.8,3.9-1.6,5.9-2.4c2,5,4,9.9,6,14.9
		c1.6-0.7,3.3-1.3,4.9-2c-2.8-6.9-5.5-13.7-8.3-20.6C318.7,375.1,309.4,378.8,300.1,382.6 M-41.2,387.8c-5.4,2.2-8.3,8.3-8,13.9
		c0.2,4.9,3.7,9.1,8,11.2c5,2.4,11.1,3.7,16.3,1.2c3.2-1.5,5.3-4.6,6.5-7.9c1.2,0.8,2.4,1.6,3.6,2.4c0-1.6,0-3.1-0.1-4.7
		c-0.9-0.6-1.8-1.2-2.7-1.8c0.2-5.2-3.1-9.7-7.5-12c-0.6,2-1.2,4-1.8,6c1.2,1,2.5,1.9,3.2,3.3c1.6,3.4-0.3,8-3.9,9.2
		c-2.5,0.8-5.3,0.5-7.8-0.2c-2.8-0.9-5.7-2.2-7.3-4.8c-1.9-2.9-1-6.9,1.5-9.1c1.3-1.2,3.1-1.2,4.7-1.4c0.6-2,1.3-4,1.8-6
		C-36.8,387-39.1,386.9-41.2,387.8 M311.7,415.3c0.4,2.1,0.8,4.1,1.1,6.2c4.2-0.7,8.3-1.5,12.5-2.3c0.8,4.3,1.6,8.7,2.4,13
		c1.7-0.3,3.5-0.7,5.2-1c-0.8-4.3-1.6-8.7-2.4-13c2.2-0.4,4.5-0.8,6.7-1.2c0.9,5,1.8,9.9,2.8,14.9c1.7-0.3,3.5-0.7,5.2-1
		c-1.3-7-2.6-14.1-4-21.1C331.4,411.6,321.6,413.5,311.7,415.3 M-54.1,423.2c-0.4,2.4-0.7,4.8-1.1,7.2c9.4,5,18.8,10,28.3,15
		c0.3-2.2,0.6-4.4,1-6.5c-1.9-1-3.9-2-5.8-3c0.5-3.7,1.1-7.3,1.6-11c2.1-0.3,4.3-0.7,6.4-1c0.3-2.3,0.7-4.5,1-6.8
		C-33.2,419.1-43.7,421.2-54.1,423.2 M319.2,439.5c-2.8,2.2-3.8,6-3.8,9.5c0,3.5,0.8,7.3,3.4,9.9c2.2,2.2,5.5,2.8,8.5,2.7
		c6.5-0.2,13-0.5,19.5-0.7c-0.1-2.1-0.2-4.3-0.2-6.4c-6.4,0.2-12.9,0.5-19.3,0.7c-1.8,0.1-3.9-0.1-5.2-1.6c-1.4-1.7-1.6-4.2-1.1-6.3
		c0.7-2.4,3.3-3.6,5.7-3.6c6.5-0.3,13-0.5,19.4-0.7c-0.1-2.1-0.2-4.3-0.2-6.4c-6.2,0.2-12.4,0.5-18.5,0.7
		C324.5,437.3,321.5,437.6,319.2,439.5 M-56.5,445.4c-0.1,2.1-0.2,4.2-0.2,6.3c10,0.4,20.1,0.8,30.1,1.1c0.1-2.1,0.2-4.2,0.2-6.3
		C-36.5,446.1-46.5,445.8-56.5,445.4 M-37.5,455.5c0.1,2.1,0.3,4.2,0.4,6.2c1.3,0.5,2.8,0.8,3.9,1.7c3,2.5,3,7.8-0.1,10.3
		c-2.4,2-5.7,2.6-8.7,2.6c-2.5,0-5.3-0.4-7.3-2.1c-2.6-2.1-3.1-6-1.6-8.9c0.8-1.5,2.5-2.1,3.9-2.9c-0.1-2.1-0.3-4.2-0.5-6.3
		c-2.1,0.6-4.2,1.4-5.8,2.9c-4.5,4-5,11.1-2.5,16.3c2.1,4.5,7,7,11.8,7.3c5,0.3,10.4-0.6,14.3-3.9c5-4.4,5.4-12.5,1.8-17.9
		C-30,457.6-33.8,456.1-37.5,455.5 M341.3,465.4c-0.3,3-0.7,6-1,9.1c-8.2-0.9-16.4-1.8-24.7-2.7c-0.2,2.1-0.5,4.2-0.7,6.3
		c8.2,0.9,16.4,1.8,24.7,2.7c-0.3,3-0.7,6-1,9.1c1.8,0.2,3.5,0.4,5.3,0.6c0.9-8.1,1.8-16.3,2.6-24.4
		C344.9,465.8,343.1,465.6,341.3,465.4 M-40.3,486.1c-4.2,1.1-8.5,3.3-10.5,7.3c-3.3,6.4-1.2,15,4.7,19.1c3.5,2.5,8.2,2.6,12.2,1.7
		c4.5-0.9,9-3,11.4-7.1c3.7-6.5,1.5-15.5-4.6-19.7C-30.9,484.8-36,484.9-40.3,486.1 M308.1,510.2c1.7,0.4,3.4,0.9,5.1,1.3
		c1.5-5.4,2.8-10.8,4.2-16.2c2.5,0.6,5,1.3,7.6,1.9c-1.2,4.7-2.4,9.5-3.6,14.2c1.7,0.4,3.4,0.9,5.2,1.3c1.2-4.7,2.4-9.5,3.6-14.2
		c2,0.5,4.1,1,6.2,1.5c-1.3,5.2-2.6,10.3-3.9,15.5c1.7,0.4,3.4,0.9,5.2,1.3c1.8-7.2,3.6-14.3,5.5-21.5c-9.7-2.5-19.5-4.9-29.2-7.4
		C311.9,495.5,310,502.8,308.1,510.2 M301.3,526.9c-1,2.5-1.2,5.5,0.2,7.9c2.2,4.5,8.9,6.6,12.7,2.8c0.3,4.9,6.3,7.6,10.5,5.5
		c2.4-1.2,3.8-3.6,4.8-5.9c1.9-4.3,3.7-8.6,5.5-12.9c-9.2-3.9-18.5-7.9-27.7-11.8C305.4,517.2,303.1,522,301.3,526.9 M-31,519.7
		c-0.7,4.9,1.3,9.7,1.4,14.6c-0.1,2.3-3.2,3.3-4.8,1.9c-3.1-2.5-4.5-8.2-0.6-10.7c-0.7-1.9-1.5-3.7-2.4-5.5
		c-1.8,1.3-3.7,2.7-4.6,4.8c-1.8,4-0.5,8.5,1.5,12.2c1.6,2.9,4.5,5.5,8,5.6c3.8,0.1,8.2-2.2,8.8-6.3c0.7-4.9-1.7-9.7-1.2-14.6
		c0.5-2.3,3.9-2.8,5.4-1c1.9,2.1,3.2,4.9,3,7.8c-0.1,1.6-1.5,2.7-2.7,3.7c0.8,1.8,1.5,3.6,2.3,5.5c2-1.1,4-2.5,5-4.7
		c1.8-4,0.5-8.6-1.3-12.4c-1.8-3.5-5.1-6.9-9.2-6.8C-26.3,513.8-30.3,515.9-31,519.7 M-19.8,544.9c0.1,4.9,2.7,9.3,3.5,14.1
		c0.1,2.1-2.5,3.6-4.3,2.7c-3.6-1.9-6-7.5-2.3-10.6c-1-1.7-2.1-3.4-3.1-5.1c-1.8,1.5-3.5,3.2-4.1,5.6c-1.1,4.1,0.8,8.3,3.2,11.6
		c2,2.8,5.4,5,8.9,4.4c3.9-0.5,7.9-3.7,7.6-7.9c-0.3-4.6-2.8-8.8-3.3-13.4c-0.3-2.4,3-3.9,4.8-2.5c2.4,1.7,4.1,4.4,4.4,7.3
		c0.2,1.7-1.1,3-2.1,4.2c1,1.7,2.1,3.4,3.1,5.1c3-2.1,5.2-5.6,4.5-9.4c-0.9-5.1-3.8-10.1-8.5-12.5
		C-12.2,535.7-19.6,539.2-19.8,544.9 M296.3,542c-7.9,2.8-12.8,13.1-8.4,20.6c3.2,5.1,8.9,8.7,14.9,9.5c9.6,0.8,17.4-10.1,14.5-19
		c-1.5-4.3-5.2-7.4-9.1-9.5C304.6,541.6,300.2,540.6,296.3,542 M-12.1,582.7c1.6,1.9,3.1,3.7,4.7,5.6c10-3.7,20-7.4,30-11.1
		c-1.4-1.7-2.8-3.4-4.2-5.1c-2.1,0.8-4.1,1.6-6.1,2.4c-2.4-2.8-4.8-5.7-7.1-8.5c1.2-1.8,2.4-3.6,3.5-5.5c-1.5-1.7-2.9-3.5-4.4-5.2
		C-1.3,564.4-6.7,573.6-12.1,582.7 M265.8,578.3c1.4,1.2,2.7,2.4,4.1,3.6c3.3-3.8,6.6-7.5,9.9-11.2c6.1,5.5,12.3,10.9,18.5,16.3
		c1.4-1.6,2.8-3.2,4.2-4.7c-7.5-6.6-15-13.3-22.6-19.8C275,567.5,270.5,573,265.8,578.3L265.8,578.3z"/>
	<path id="path4350" inkscape:connector-curvature="0" class="st0" d="M182.3,264.1c4-1.7,9.2,0.7,10.3,5c1,4.3,0,9.1-2.6,12.6
		c-2.7,3.6-8.6,3.7-11.6,0.4c-2.4-2.6-2.5-6.5-1.7-9.8C177.3,269,179,265.4,182.3,264.1z"/>
	<path id="path4352" inkscape:connector-curvature="0" class="st0" d="M91.2,267.2c2.5-0.6,4.9-1.4,7.5-1.6c4.1-0.4,5.6,6.4,2.1,8
		c-2.3,1-4.9,1.5-7.3,2.1C92.7,273,91.9,270.1,91.2,267.2z"/>
	<path id="path4354" inkscape:connector-curvature="0" class="st0" d="M68.9,289.9c-0.4-4.2-0.8-8.4-1.2-12.6
		c2.7,3.2,5.5,6.4,8.3,9.6C73.6,287.8,71.3,288.8,68.9,289.9z"/>
	<path id="path4356" inkscape:connector-curvature="0" class="st0" d="M109.3,299.7c38.6-8.8,80.5-2.8,114.9,17
		c23.1,13.1,42.9,32,57,54.4c15.5,24.4,24.1,53,24.7,81.8c0.8,30.8-7.7,61.8-23.8,88c-11.6,19.1-27.4,35.5-45.5,48.4
		c7.3,1.4,14.5,2.9,21.7,4.3c-20.6,17-45,29.5-71,35.8c-30.4,7.6-62.9,6.8-93-2.2c-23.6-6.9-45.6-18.9-64.3-34.8
		c7.3-1.4,14.5-2.7,21.8-4.1C31.9,574,14.7,555.3,3,533.4c-14.5-26.7-21-57.6-18.9-87.9c1.5-22,7.6-43.7,17.9-63.3
		c10.8-20.7,26.2-39,44.7-53.2C65.2,315,86.6,304.8,109.3,299.7 M126.7,309c-24.3,2.9-47.8,12-67.8,26.2
		c-21.8,15.4-39.5,36.7-50.3,61.2c-9.2,20.4-13.5,43-12.8,65.3c0.8,29.1,10.5,57.8,27.4,81.4C38.6,564.7,59.8,582.1,84,593
		c26.4,11.9,56.2,15.6,84.8,11.1c-0.5,1.4-1,2.8-1.5,4.2c1.1-0.2,2.3-0.4,3.4-0.6c0.5-1.4,1-2.8,1.5-4.3c32.7-6,63.1-23.5,84.9-48.6
		c17.9-20.4,30-45.7,34.6-72.4c5.1-29,1.3-59.5-10.8-86.3c-10.9-24.4-28.5-45.7-50.3-61C200.8,313.8,163,304.4,126.7,309 M216,597.7
		c0.2,3.9,2.3,7.6,5.5,9.8c4,2.8,10,0.6,12-3.7c1-2,0.6-4.2,0.2-6.3c-1.1,0.6-2.2,1.2-3.4,1.8c0.6,2.6-0.9,5.4-3.6,5.7
		c-3.5,0.2-5.6-3.3-6.6-6.2c-1-2.5,0.5-5.6,3.2-6.2c1.5-0.5,2.7,0.6,3.9,1.2c1.1-0.6,2.2-1.3,3.3-1.9c-1.1-1.1-2.3-2.3-3.8-2.7
		C221.8,588.1,215.8,592.3,216,597.7 M60.9,590.5c-3.6,2.4-6,6.9-5.6,11.3c0.7,4.9,6.6,8.3,11.2,6.4c1.3-0.6,2.4-1.6,3.5-2.5
		c-1.1-0.7-2.2-1.3-3.3-1.9c-0.9,0.5-1.7,1.2-2.7,1.5c-2.7,0.4-5.4-2-4.9-4.8c0.4-2.7,1.9-5.3,4.1-6.8c2.1-1.5,5.3-0.4,6.4,1.8
		c0.3,1,0.1,2,0.2,3c1.1,0.6,2.2,1.3,3.3,1.9c0.2-1.3,0.7-2.6,0.5-3.9C72.9,590.8,65.6,587.3,60.9,590.5 M77.7,595.6
		c-2.5,5.7-5,11.4-7.4,17.2c1.2,0.5,2.4,1,3.6,1.5c1.1-2.6,2.2-5.1,3.3-7.7c2.2,1,4.5,1.9,6.7,2.9c-1.1,2.6-2.2,5.1-3.3,7.7
		c1.2,0.5,2.4,1,3.6,1.5c2.5-5.7,4.9-11.4,7.4-17.1c-1.2-0.5-2.4-1-3.6-1.5c-0.9,2.2-1.9,4.3-2.8,6.5c-2.2-1-4.5-1.9-6.7-2.9
		c0.9-2.2,1.9-4.3,2.8-6.5C80.1,596.7,78.9,596.1,77.7,595.6 M201.1,600.7c-2.4,2.6-1.1,7.5,2.3,8.5c3.1,0.6,6.1-0.9,9.2-0.8
		c1.3,0.1,2.1,1.9,1.2,2.9c-1.7,2.3-5.6,3.3-7.6,0.7c-1.1,0.5-2.2,1-3.3,1.5c2.7,5.4,10.3,3.7,13.5-0.2c2.3-2.5,1.3-7.3-1.9-8.5
		c-3.3-0.8-6.6,0.8-10,0.7c-1.2-0.4-1.7-1.9-0.9-2.9c1.6-2.1,5-2.7,6.7-0.5c1.1-0.5,2.2-1,3.4-1.5c-1.1-1.5-2.5-3.1-4.5-3.3
		C206.3,597.2,203.2,598.5,201.1,600.7 M87.3,620c1.3,0.4,2.6,0.8,3.9,1.2c0.8-1.1,1.6-2.2,2.4-3.3c2.2,0.7,4.4,1.3,6.6,2
		c0,1.3,0,2.7,0.1,4c1.4,0.4,2.7,0.8,4.1,1.2c-0.3-6.6-0.6-13.2-1-19.8c-1.4-0.4-2.8-0.8-4.3-1.2C95.1,609.3,91.2,614.7,87.3,620
		 M111.1,607.4c-1.1,6.1-2.2,12.3-3.3,18.4c1.3,0.2,2.5,0.5,3.8,0.5c0.5-2.1,0.8-4.3,1.2-6.4c2.4,0.3,4.8,1.1,7.2,0.7
		c4.8-1.1,6-8.9,1.4-11C118.1,608.3,114.5,608.1,111.1,607.4 M166.9,609.2c-6.3,2.3-6.4,11-2.9,15.8c3.7,4.9,12.4,3.7,14.9-1.8
		c1.5-3.6,0.8-7.9-1.2-11.2C175.4,608.5,170.5,607.6,166.9,609.2 M183.7,612.8c0.4,1.3,0.7,2.5,1.1,3.8c3.9-1.1,7.8-2.1,11.7-3.2
		c-0.4-1.3-0.7-2.5-1.1-3.8C191.5,610.6,187.6,611.7,183.7,612.8 M125.9,628.7c4.7,0.3,9.4,0.7,14.1,1c0.1-1.1,0.1-2.2,0.2-3.3
		c-3.4-0.2-6.9-0.5-10.3-0.7c0.1-1.6,0.2-3.2,0.3-4.8c3,0.2,6.1,0.4,9.1,0.6c0.1-1.1,0.1-2.2,0.2-3.3c-3-0.2-6-0.4-9.1-0.6
		c0.1-1.3,0.2-2.6,0.3-3.9c3.3,0.2,6.6,0.5,9.9,0.7c0.1-1.1,0.2-2.2,0.2-3.3c-4.6-0.3-9.1-0.7-13.7-1
		C126.7,616.3,126.3,622.5,125.9,628.7 M144.2,614.5c-1.7,3.5-1.6,7.9,0.2,11.4c2.4,4.8,9.9,5.4,13.4,1.4c1.2-1.3,1.6-3,2.1-4.6
		c-1.3,0-2.6,0.1-3.9,0.1c-0.6,1.3-1.2,2.9-2.7,3.4c-2.1,0.9-4.7-0.2-5.5-2.3c-0.9-2.5-1.1-5.3-0.1-7.8c1-2.4,4.2-3.1,6.3-1.9
		c0.8,0.6,1.2,1.6,1.8,2.5c1.3-0.1,2.6-0.1,3.9-0.2c-0.6-1.5-1.1-3.1-2.4-4.2C153.6,609,146.6,609.9,144.2,614.5L144.2,614.5z"/>
	<path id="path4358" inkscape:connector-curvature="0" class="st0" d="M134.4,312.9c35.1-2.7,70.9,8.1,98.6,29.7
		c20.8,16,37.1,37.8,46.5,62.2c10.6,27,12.5,57.3,5.8,85.5c-5.8,24.5-18.3,47.4-35.6,65.7c-17.7,18.8-40.6,32.8-65.5,39.8
		c-23.2,6.5-48,7.2-71.5,1.8c-25.2-5.7-48.8-18.5-67.5-36.4c-18.2-17.3-31.8-39.5-38.9-63.6c-5.1-17.2-6.9-35.4-5.3-53.3
		c1.9-23,9.6-45.5,22.1-65c13.5-21.2,32.7-38.8,54.9-50.4C95.4,319.8,114.7,314.3,134.4,312.9 M165.9,343.6
		c-1.7,2.8-1.6,6.2-1.9,9.3c-3,0.8-4.5,3.7-7,5.3c-2.8,0.4-5.6-0.8-8.4-0.3c-2.9,0.5-5.7,1.7-8.6,2.3c-2.9,0.7-6,0.5-8.9,1.3
		c-3.7,1-7.5,2.3-10.4,5c-2.6,2.4-3.2,6-5.1,8.9c-2.2,2.7-4.3,5.6-6.5,8.2c-0.9,2.6-0.5,5.4-0.9,8.1c1.4,1.7,2.7,3.6,2.6,5.9
		c0.1,2.9-1.6,5.7-4.4,6.7c-1.6,0.9-4.3,1.1-4.7,3.3c-0.9,4.6,2.5,8.4,4.5,12.2c3.6,5.4,3.2,12.3,5.7,18.1c2.8,4.8,7.7,8.1,10.4,13
		c2.4-0.7,5.1-1.2,6.9-3.1c1.3-1.9,2.4-3.8,3.3-5.9c1-2.2-0.9-4.2-1.9-6c-1.7-2.4-2.7-5.3-3-8.2c-1.7-13.7-2-27.8,1.8-41.2
		c0.7-2.7,2.4-5,4.1-7.2c2.8-3.6,6.1-6.9,10-9.1c3.2-1.8,7.3-2,10.6-0.4c1.8,0.9,2.7,2.8,3.8,4.4c1.2,1.9,3.5,2.6,5.1,4.2
		c3.2,2.8,4.6,7.2,4,11.3c-0.7,5-2.4,10.2-6.1,13.8c-2.2,2.2-5.9,2.3-7.5,5.1c-0.7,1,0,2.5,1.1,2.9c2.4,1.2,5.3,1.3,7.9,0.5
		c3-1,5.2-3.5,7.5-5.5c1.5-1.4,3.2-2.6,4.5-4.2c1.5-2,1.1-4.7,2.5-6.8c1.5-2.3,1.8-5.2,1.7-7.8c-0.2-2.4-2-4.3-2.1-6.7
		c0.4-2.7,2.4-5.1,2.1-8c-0.2-3.7-2.9-6.6-3.9-10c-0.5-3.9,0.6-7.9,0-11.7c-0.9-1.9-3-2.9-3.8-4.8c-0.6-1.2-0.7-2.7-1.9-3.4
		C168.3,342.1,166.6,342.4,165.9,343.6 M70.7,398c-2.9,0.3-5.8-0.7-8.7-0.3c-1.1,0.1-2.3,1.2-1.8,2.4c1.4,1,4.1,1.3,3.9,3.5
		c-0.3,5.7-3.5,10.6-5.8,15.6c-1.9,4.5-1.1,9.4-2,14.1c-1,2-3,3.3-4.1,5.2c-2.1,3.2-1.6,7.3-3.3,10.7c-1.5,2-4.2,3.2-4.8,5.7
		c-0.5,2.5,0.7,4.9,0.4,7.4c-0.4,2.4-0.9,4.7-1.5,7.1c-0.7,2.8-3.8,4.2-4.8,6.9c-0.5,2.9-0.2,5.8-0.7,8.7c-0.5,3.7-2.8,6.8-4.7,9.9
		c-2.1,3.1-3.8,6.4-6.3,9.1c-1.4,1.7-3.9,1.6-5.4,3.2c-0.9,0.9-1.9,2.2-1.4,3.5c1.3,0.8,3,0.6,4.5,0.7c9.5-0.1,19.1,0.1,28.6-0.1
		c2.3-0.2,5.2-3.1,3.8-5.4c-4.1-0.4-8.8-1.6-10.6-5.7c-0.9-2.3,1.9-3.8,2.2-5.9c0.4-2.6,0.6-5.4,2.5-7.4c15.4,0.1,30.8,0,46.1,0
		c3.2-0.1,7.1,1.8,7.4,5.3c0.2,2.6,0.8,5.3,0,7.8c-2.8,2.2-6.4,4.1-7.6,7.7c0.4,1.6,2.5,1.4,3.8,1.6c7.5,0.1,15,0,22.5,0
		c3.4,0.4,5.9-3.1,9.4-2.4c2.4,0.7,4.6,2.3,7.3,2.2c3.1,0,6.9,0.2,9.1-2.5c0.9-1.1,1.7-3.4,0-4.1c-2.3-0.9-4.9-0.4-7.2-0.8
		c-1.1-0.7-1.7-1.9-2.5-2.9c-3.4-5.8-5.9-12.1-9.3-17.9c-1.4-2.5-4-4.4-4.4-7.4c-0.2-2.2-0.3-4.6,1.3-6.3c1.5-1.7,2.4-4,1.6-6.2
		c-0.8-2.5-3.7-3.1-5.7-4.2c-1.8-0.8-3-2.4-4-4.1c-2.8-4.6-7.6-7.7-10.1-12.4c-2.4-4.8-2.4-10.3-4.3-15.3c-2-4.8-5.8-8.8-6.6-14.1
		c-0.3-2.9,0-6.3,2.4-8.3c1.8-1.6,4.2-2,6.2-3.2c1.9-3.4-2.3-6.1-5.2-6.6c-3.2-1.2-5.5,2.5-8.6,1.8c-2.3-1.4-4.4-3.5-7.3-3.5
		C79,390.3,75.6,396.2,70.7,398 M192.8,396.3c-1.9,0.9-4.7,1.5-5,4c0.3,1.9,2.4,2.8,3.5,4.2c2.6,2.3,2.3,6,2.6,9.1
		c0.5,7.1,2.9,14.3,1.6,21.4c-0.5,2.9-0.7,5.8-0.9,8.7c-0.3,3.1-2.3,5.6-3,8.5c-0.4,3.3,2.9,5.5,2.8,8.8c-0.1,10.7-0.3,21.3-0.5,32
		c0,2.9-1.6,5.3-2.6,8c-0.8,2-2.5,3.8-4.7,4.1c-1.5,0.2-2.9,0.8-3.9,2c1.2,1,2.6,1.8,4,2.5c0.7,1,1.2,2.5,2.7,2.4
		c4.9,0.3,8.5-4.3,13.3-4.6c2.4,0.3,3.8,2.6,6,3.2c1.6,0.4,3.2-0.1,4.7-0.4c3.6-1,7.5-1.2,11.2-0.4c2.5,0.6,4.8,2,7.4,2.6
		c2.2,0.3,4.8,0.1,6.4-1.6c1.7-1.8,3.1-4,3.6-6.4c0.4-1.2-0.8-2.3-2-1.8c-1.3,0.7-1.7,2.8-3.3,3c-2.9,0.4-5.9-0.1-8.8-0.5
		c-2-0.4-3.4-2.1-3.9-4c-0.8-2.5-3.6-3.9-3.8-6.6c-0.4-3.5,0.1-7.2-0.7-10.7c-0.5-2.2-1.3-4.5-0.7-6.8c0.6-2.6,1.3-5.2,1.1-7.9
		c0-2.2-0.7-4.7,0.8-6.5c1.2-1.5,2.2-3.4,3.9-4.4c2.1-0.3,3.7,1.2,5.1,2.4c1.8,1.6,4.1,2.2,5.8,3.9c-0.7,3.2-0.4,7.1,2.4,9.3
		c1.3,1,3-0.4,3.4-1.8c0.5-1.9,0.8-3.8,1.5-5.6c1-2.2-0.9-4.3-0.8-6.5c-0.5-2.8,1.6-4.9,2.4-7.3c0.3-2.4-2.6-3.6-2.6-6
		c-0.1-4.3,0.8-9-1.2-13.1c-1.1-2-4.7-3.2-6-0.9c-0.7,3.1,1.1,6.1,0.8,9.2c-0.6,3-3.7,4-5.7,5.9c-1.8,2.5-5.8,2.8-8.2,1.1
		c-1.7-2.1-1.8-5-1.9-7.6c-0.2-10.4-0.3-20.9,1.8-31.1c1-2.2,3.6-2.8,5.7-3.6c2.6-0.9,4.5-3.4,7.4-3.4c5-0.1,9.6,1.9,14,4.1
		c4,1.8,7.3,5.6,7.7,10c0.6,3.8,2.8,7.3,2.8,11.3c-0.3,4-6.4,5.1-6,9.3c1.9,1.9,5.2,2.2,7.4,0.7c6.6-2.8,11.4-9.5,11.7-16.7
		c0.3-4-1.9-7.6-2.7-11.3c-0.9-4.3,0.1-8.6,1.3-12.8c0.5-1.2-0.2-2.9-1.7-3c-1.2-0.1-1.6,1.4-2.3,2.1c-1.2,2.1-4,3.3-6.3,2.2
		c-2.4-1-5.2-0.6-7.4-2c-4.9-3.1-11.1-3.2-16.7-2.7c-2.5,0.2-4.9,1.2-6.9,2.6c-2.4,1.8-5.8,1.5-8.4,0.1c-2.1-1.1-4.1-2.8-6.7-2.7
		c-4.2-0.3-7,4.3-11.3,3.6c-2.4-0.1-3.7-2.2-5.4-3.5C195.9,393.4,194.5,395.7,192.8,396.3 M161,480.2c0.6,1.8,2,3.2,3.1,4.7
		c1.3,1.6,0.4,4,1.8,5.5c1.4,1.7,2.2,3.8,2.2,6c0.1,3.6,1.8,7,1.4,10.6c-0.1,4.8-2.5,9-4.3,13.3c-0.8,1.5-1.5,3.4-3.3,4
		c-2.5,0.9-4.4,3.3-7.2,3.3c-3,0.1-6.3,0-8.9-1.7c-2.6-1.7-3.8-4.7-6.2-6.6c-2.9-2.4-6.3-4.5-8.4-7.8c-2.4,0.9-4.8,2-7.3,2.5
		c-4.5,0.2-9-0.1-13.4,0.1c-2.2,1.7-4.8,3.9-4.6,6.9c0.7,2,3,3,3.9,4.9c1.9,3.7,4.7,6.9,7.3,10.1c2.4,2.7,4.8,5.6,8.2,7
		c2.4,1,4.7,2.7,7.4,2.9c6,0.6,12.3,0.6,18.1-1.4c2.9-0.9,5.6-2.4,8.7-2.4c2.3,0,4.7-0.1,7,0.4c1.2,0.2,1.5,1.6,2.2,2.4
		c1,1.8,2.9,3,3.1,5.2c0.2,1.4,1,4,2.9,2.8c2.8-2,4-5.4,6-8.1c0.8-1.1,1.4-2.4,1.5-3.7c1-8.1,0.3-16.3,1.4-24.3
		c0.4-2.6-2.3-4-3.6-5.9c-2.6-3-1.6-7.2-1.1-10.7c-0.5-1.9-3-2.5-3.3-4.5c-0.6-2.1-1.3-4.1-2.5-5.9c-1.6-3-4.6-5-5.8-8.2
		C166.4,479.1,163.1,479.2,161,480.2 M120,562c-1.6,2.5-4,4.4-6.6,5.7c0,0.9,0,1.8,0,2.7c2-0.9,3.9-2,5.6-3.3
		c-0.1,5.9,0,11.8,0,17.7c0.9,0,1.9,0,2.8,0c0-7.6,0-15.2,0-22.8C121.1,561.9,120.6,562,120,562 M132.1,563.1
		c-4.7,3.1-4.2,11.5,1.2,13.5c2.9,1.2,5.9-0.3,7.9-2.4c-0.4,2.3-0.4,4.9-1.9,6.8c-1.1,1.7-3.5,2.3-5.3,1.4c-1.3-0.6-1.6-2.1-2.1-3.2
		c-0.9,0.1-1.8,0.1-2.7,0.2c0.6,1.6,1,3.5,2.6,4.5c2.9,1.9,7.2,1.4,9.4-1.3c2.1-2.5,2.5-5.9,2.6-9.1c0-3.1-0.1-6.5-2.1-9
		C139.5,561.8,135.1,561.1,132.1,563.1 M146.7,562.4c0,0.9,0,1.8,0,2.7c3.7,0,7.4,0,11,0c-4.5,5.6-7.4,12.5-7.9,19.7
		c1,0,1.9,0,2.9,0c0.7-7,3.5-13.8,7.9-19.3c0.9-0.8,0.8-2,1-3.1C156.5,562.3,151.6,562.4,146.7,562.4 M166.7,563.6
		c-1.3,1.1-1.7,2.7-2.3,4.2c0.9,0.2,1.8,0.4,2.7,0.6c0.6-1.5,1.2-3.4,2.9-3.9c2.4-1,5.6,1.1,5,3.9c-0.2,2.5-3,3.2-5,3.4
		c-0.1,0.5-0.3,1.6-0.3,2.1c2.1-0.3,4.8-0.1,5.9,2.1c1.9,3.2-1.3,7.6-4.9,6.8c-2.2-0.2-3.2-2.5-3.8-4.4c-0.9,0.1-1.9,0.2-2.8,0.4
		c0.5,1.6,1,3.4,2.3,4.5c3.6,3.3,10.1,2,12.1-2.4c1.5-3.1,0.1-7.5-3.5-8.4c2.2-1.2,3.6-3.6,2.8-6C176.5,561.8,170,560.6,166.7,563.6
		L166.7,563.6z"/>
	<path id="path4360" inkscape:connector-curvature="0" class="st0" d="M-11.8,338.6c3.7-1.5,7.7,0.5,10.6,2.8
		c2.7,2.1,5.1,5.4,4.4,8.9c-0.6,4.2-5.1,7.4-9.2,6.3c-4-1-7.7-3.7-9.8-7.3C-18,345.6-15.9,340.2-11.8,338.6L-11.8,338.6z"/>
	<path id="path4362" inkscape:connector-curvature="0" class="st0" d="M294,361.4c5.7-3.3,11.3-6.7,16.9-10c1.4,2.7,3.7,5.2,4.2,8.3
		c0.2,3.9-3.5,6.4-6.4,8.1c-3,1.6-7.1,3-10.1,0.6C296.6,366.5,295.5,363.8,294,361.4z"/>
	<path id="path4364" inkscape:connector-curvature="0" class="st0" d="M-30.1,370.3c4.2,0.6,8.3,1.3,12.5,1.9
		c-1.1,2.3-2.3,4.6-3.4,6.9C-24.1,376.2-27.1,373.3-30.1,370.3z"/>
	<path id="path4366" inkscape:connector-curvature="0" class="st0" d="M72,427c1.4-1.8,4.8-3.5,6.4-1.1c1.4,6.8,4.8,13,7.3,19.4
		c2.7,5.8-0.1,12.7,3,18.4c1.5,3.1,4.7,4.7,6.6,7.5c1,1.5,0,3.1-0.6,4.4c-13,0.1-26,0-39,0c0.1-1.7,0.3-3.4,0.7-5
		c0.7-2.9,1.1-6,2.8-8.5c1.1-2.1,3.4-3.6,3.7-6.1c0.4-3,0-6.1,1.2-8.9c0.8-2.7,3.2-4.6,3.7-7.3C69,435.4,69.3,430.7,72,427L72,427z"
		/>
	<path id="path4368" inkscape:connector-curvature="0" class="st0" d="M-48,427.8c4.1-0.7,8.3-1.3,12.4-2c-0.4,2.5-0.7,5-1.1,7.6
		C-40.5,431.6-44.3,429.7-48,427.8z"/>
	<path id="path4370" inkscape:connector-curvature="0" class="st0" d="M204,448.3c0.4-2.2,1.4-4.2,2.6-6c1.6,1.8,4,3.4,4.1,6.1
		c0,1.9,2.2,2.9,2.2,4.7c-1.8,1.5-4.5,1.8-6.6,1C204.8,452.5,203.8,450.4,204,448.3L204,448.3z"/>
	<path id="path4372" inkscape:connector-curvature="0" class="st0" d="M50.7,454.4c1.8-0.8,3.2-2.1,4.7-3.3c0.3,1.8,1.4,3.4,1.4,5.2
		c-1.3,1.2-2.7,2.4-4.1,3.5C49.5,461,48,455.7,50.7,454.4z"/>
	<path id="path4374" inkscape:connector-curvature="0" class="st0" d="M101.6,451.9c1.4-1,2.4,0.9,3.6,1.4c1,1.1,3.3,0.5,3.5,2.3
		c0.2,1.6,2,3.4,0.9,4.9c-2.6,0.5-6.1,2.7-8.3,0.4C101.4,457.9,99.3,454.5,101.6,451.9L101.6,451.9z"/>
	<path id="path4376" inkscape:connector-curvature="0" class="st0" d="M-38.3,492.1c3.2-0.8,7.1-0.8,9.7,1.5c3.5,3,3.4,9-0.3,11.8
		c-3.5,2.6-8.1,3.7-12.4,2.8c-4.4-1-6.9-6.3-5.1-10.3C-45.1,494.5-41.6,492.8-38.3,492.1L-38.3,492.1z"/>
	<path id="path4378" inkscape:connector-curvature="0" class="st0" d="M306.2,529c0.8-3.1,2.4-6,3.5-9c2.5,1,5,2.1,7.4,3.2
		c-1.5,3-2.3,6.5-4.4,9.2C310.5,535.2,305.3,532.4,306.2,529z"/>
	<path id="path4380" inkscape:connector-curvature="0" class="st0" d="M318.4,534.4c0.5-3.3,2.3-6.1,3.4-9.2c2,0.9,4.1,1.7,6.1,2.6
		c-1.4,2.9-2.3,6.2-4.2,8.9C322,538.9,318,537,318.4,534.4z"/>
	<path id="path4382" inkscape:connector-curvature="0" class="st0" d="M296.9,548c3.3-1.2,6.8,0.1,9.6,1.9c2.7,1.8,5.4,4.4,5.7,7.8
		c0.4,4.4-3.6,8.7-8,8.3c-4.4-0.5-8.5-3.1-11-6.7C290.4,555.4,292.5,549.5,296.9,548L296.9,548z"/>
	<path id="path4384" inkscape:connector-curvature="0" class="st0" d="M134.8,564.5c3.2-1.4,6.2,2.1,5.9,5.2
		c0.2,3.1-2.9,5.9-5.9,4.7C130.5,572.9,130.9,566.1,134.8,564.5z"/>
	<path id="path4386" inkscape:connector-curvature="0" class="st0" d="M2.2,570.7c1.7,2,3.3,3.9,4.9,5.9c-3.9,1.6-7.8,3.2-11.7,4.7
		C-2.4,577.7-0.1,574.2,2.2,570.7L2.2,570.7z"/>
	<path id="path4388" inkscape:connector-curvature="0" class="st0" d="M95.5,615.1c1.5-2.2,3-4.3,4.4-6.4c0,2.6,0.1,5.2,0.1,7.8
		C98.6,616,97.1,615.5,95.5,615.1L95.5,615.1z"/>
	<path id="path4390" inkscape:connector-curvature="0" class="st0" d="M114.4,611.2c1.6,0.3,3.3,0.5,4.8,1.2c2.1,1,1.2,5-1.2,4.9
		c-1.6,0-3.1-0.4-4.6-0.7C113.7,614.9,114,613,114.4,611.2L114.4,611.2z"/>
	<path id="path4392" inkscape:connector-curvature="0" class="st0" d="M168.9,612c2.2-0.7,4.7,0.3,5.7,2.3c1.2,2.5,1.7,5.7,0.3,8.3
		c-1.8,2.9-6.7,2.8-8.2-0.3C164.9,619.1,164.6,613.3,168.9,612z"/>
</g>
<g id="_x23_ffffffff" transform="matrix(1.0000244,0,0,1.0000267,-0.00823975,5.2512e-5)">
	<path id="path4395" inkscape:connector-curvature="0" class="st1" d="M88,246.7c26.6-7.2,54.6-9.2,81.9-6.1
		c32.7,3.7,64.5,15.1,92.2,32.9c41.5,26.5,73.6,67.4,89.2,114.1c10.3,30.3,13.5,62.9,9.9,94.7c-3.4,29.7-13,58.7-28.1,84.4
		c-15.3,26.3-36.4,49-60.9,66.9c0-12.4,0.1-24.8,0.1-37.1c-2.7-0.5-5.4-1.1-8.1-1.6c-19.6,16.9-42.9,29.7-67.8,37
		c-31,9.2-64.4,9.9-95.7,2c-28.2-7-54.6-20.9-76.3-40.2c-3.3,0.5-6.5,1.2-9.8,1.8c0.6,12.4,1.1,24.7,1.7,37.1
		c-18.7-14-35.5-30.6-49-49.6c-14.4-20.1-25.3-42.7-32-66.6c-10.2-35.9-10.9-74.4-2.1-110.7c11.3-47.3,39.2-90.4,77.5-120.2
		C33.4,267.6,59.9,254.2,88,246.7 M94.6,249.8c-27,6.5-52.6,18.4-75,34.8c-20.8,15.2-38.9,34.1-53.1,55.7c-15.2,23-25.7,49-31,76
		c-6.1,31.9-5.1,65.2,3.5,96.5c5.7,21.1,14.8,41.4,26.8,59.7c12.3,19,27.8,35.8,45.3,50.1c-0.5-10.3-0.9-20.5-1.4-30.8
		c10.4-2,20.8-3.8,31.2-5.8c-3.3-3.1-6.9-5.8-10.1-9C11.1,558.3-4,534.8-12.6,509c-12.1-36.3-11.1-76.7,2.9-112.3
		c9.6-24.6,25.2-46.8,45.1-64.2c18.6-16.4,40.8-28.5,64.6-35.2c39.4-11.2,82.8-7,119.3,11.6c24.5,12.3,45.8,30.9,61.5,53.3
		c16.9,24.1,27.2,52.7,29.3,82.1c2.4,30.8-4.2,62.2-18.7,89.5c-10.8,20.5-26,38.6-44,53.1c9.8,1.9,19.7,3.9,29.5,5.8
		c0,10.4-0.1,20.8-0.1,31.2c18.6-14.7,34.9-32.4,47.7-52.4c13.5-20.9,23.2-44.2,28.5-68.5c7.1-31.9,6.6-65.5-1.2-97.2
		c-6.6-26.6-18.4-51.9-34.6-74.1c-15.1-20.8-34.1-38.8-55.6-53c-27.6-18.2-59.4-29.8-92.3-33.5C144.5,242.3,119,243.8,94.6,249.8
		 M109.3,299.7c-22.7,5.1-44.1,15.2-62.5,29.4C28.2,343.4,12.8,361.6,2,382.3c-10.3,19.5-16.4,41.2-17.9,63.3
		c-2.2,30.3,4.3,61.2,18.9,87.9c11.7,21.9,28.9,40.6,48.9,55.1c-7.3,1.3-14.5,2.7-21.8,4.1c18.8,15.8,40.8,27.8,64.3,34.8
		c30.1,9,62.5,9.7,93,2.2c26-6.4,50.4-18.8,71-35.8c-7.2-1.4-14.5-2.9-21.7-4.3c18.2-12.9,34-29.3,45.5-48.4
		c16.2-26.2,24.6-57.2,23.8-88c-0.6-28.8-9.3-57.5-24.7-81.8c-14.1-22.5-33.9-41.4-57-54.4C189.8,297,147.9,290.9,109.3,299.7
		L109.3,299.7z"/>
	<path id="path4397" inkscape:connector-curvature="0" class="st1" d="M145.6,257.3c4.5-3.9,11.5-4,16.5-1.2
		c3.3,1.9,5.2,5.5,5.6,9.2c-2.1-0.1-4.2-0.2-6.3-0.3c-0.6-1.6-1.1-3.4-2.6-4.3c-2.7-1.8-6.7-1.6-9,0.8c-2.1,2.1-2.7,5.3-2.9,8.1
		c-0.1,2.7,0.2,5.6,1.8,7.9c2.1,3.1,7,3.7,9.8,1.3c1.2-1,1.8-2.5,2.4-3.9c2.1,0.1,4.1,0.2,6.2,0.3c-1.1,3.8-3.2,7.6-7,9.2
		c-5.4,2.4-12.6,1.3-16.4-3.4c-2.9-3.6-3.5-8.4-3.1-12.9C141,264.3,142.5,260.1,145.6,257.3L145.6,257.3z"/>
	<path id="path4399" inkscape:connector-curvature="0" class="st1" d="M112.6,257c7.4-0.8,14.7-1.6,22.1-2.4
		c0.2,1.8,0.4,3.5,0.6,5.3c-5.3,0.6-10.6,1.1-15.9,1.7c0.2,2.1,0.4,4.2,0.7,6.3c4.9-0.5,9.7-1,14.6-1.6c0.2,1.8,0.4,3.5,0.6,5.3
		c-4.9,0.6-9.7,1.1-14.6,1.6c0.2,2.6,0.5,5.2,0.8,7.8c5.5-0.6,11.1-1.2,16.6-1.8c0.2,1.8,0.4,3.5,0.6,5.3
		c-7.6,0.8-15.2,1.7-22.8,2.4C114.8,276.9,113.7,266.9,112.6,257L112.6,257z"/>
	<path id="path4401" inkscape:connector-curvature="0" class="st1" d="M181.5,258.5c5.5-1.1,11.6,0.9,15.1,5.2
		c2.7,3.3,3.1,7.9,2.4,12c-0.7,4.6-2.7,9.5-6.8,12.1c-6.6,4.1-16.2,1.9-20.4-4.6c-2.9-4.8-2.1-10.8-0.3-15.8
		C173.1,263,176.8,259.3,181.5,258.5 M182.3,264.1c-3.3,1.4-5,4.9-5.7,8.2c-0.7,3.3-0.7,7.2,1.7,9.8c3,3.3,8.9,3.2,11.6-0.4
		c2.6-3.5,3.6-8.3,2.6-12.6C191.5,264.8,186.3,262.4,182.3,264.1z"/>
	<path id="path4403" inkscape:connector-curvature="0" class="st1" d="M83.8,263.8c4.5-1.1,9-2.4,13.5-3.5c2.7-0.7,5.7-0.4,7.9,1.4
		c4.3,3.6,5.2,11.3,0.8,15.1c-3.2,2.6-7.5,2.8-11.3,4c0.9,3.5,1.8,7,2.7,10.5c-2,0.5-4.1,1-6.1,1.6
		C88.8,283.3,86.3,273.5,83.8,263.8 M91.2,267.2c0.7,2.9,1.4,5.7,2.2,8.6c2.4-0.7,5-1.1,7.3-2.1c3.6-1.7,2-8.5-2.1-8
		C96.1,265.8,93.7,266.6,91.2,267.2L91.2,267.2z"/>
	<path id="path4405" inkscape:connector-curvature="0" class="st1" d="M197.5,292.7c3.7-9.3,7.4-18.7,11.1-28
		c6.9,2.7,13.7,5.4,20.6,8.1c-0.6,1.7-1.3,3.3-2,5c-5-2-9.9-3.9-14.9-5.9c-0.8,2-1.6,3.9-2.3,5.9c4.6,1.8,9.1,3.6,13.7,5.4
		c-0.6,1.7-1.3,3.3-2,5c-4.5-1.8-9.1-3.6-13.7-5.4c-1,2.4-1.9,4.8-2.8,7.3c5.1,2.1,10.5,3.8,15.4,6.3c-0.5,1.7-1.2,3.2-1.9,4.8
		C211.7,298.3,204.6,295.5,197.5,292.7z"/>
	<path id="path4407" inkscape:connector-curvature="0" class="st1" d="M61.8,272.6c2.2-1,4.4-2,6.7-2.9c7.2,7.8,14.5,15.6,21.7,23.5
		c-2.1,0.9-4.2,1.8-6.2,2.7c-1.4-1.6-2.8-3.3-4.2-4.9c-3.3,1.5-6.7,2.8-10,4.3c-0.5,2.1,0.2,4.4,0.3,6.6c-2,0.9-4.1,1.8-6.1,2.6
		C63.2,293.8,62.5,283.2,61.8,272.6 M68.9,289.9c2.4-1,4.7-2,7.1-3c-2.8-3.2-5.5-6.4-8.3-9.6C68.1,281.4,68.5,285.6,68.9,289.9z"/>
	<path id="path4409" inkscape:connector-curvature="0" class="st1" d="M220.6,302c5.1-8.7,10.1-17.3,15.2-26
		c1.9,1.1,3.8,2.2,5.7,3.4c-0.1,8.1-0.2,16.1-0.3,24.2c3.6-6,7.1-12.1,10.7-18.2c1.7,1,3.4,2,5.1,3c-5.1,8.7-10.2,17.3-15.2,26
		c-1.8-1.1-3.6-2.1-5.4-3.2c0.1-8.3,0.2-16.6,0.2-24.9c-3.7,6.2-7.3,12.4-10.9,18.6C224,304,222.3,303,220.6,302L220.6,302z"/>
	<path id="path4411" inkscape:connector-curvature="0" class="st1" d="M41.6,283c1.8-1.1,3.5-2.3,5.3-3.4
		c5.4,8.5,10.8,16.9,16.2,25.4c-1.8,1.1-3.5,2.3-5.3,3.4c-2.4-3.8-4.9-7.6-7.3-11.4c-3.3,2.1-6.6,4.2-9.9,6.3
		c2.4,3.8,4.8,7.6,7.3,11.4c-1.8,1.1-3.5,2.3-5.3,3.4c-5.4-8.5-10.8-16.9-16.2-25.4c1.8-1.1,3.5-2.3,5.3-3.4c2,3.2,4.1,6.4,6.1,9.6
		c3.3-2.1,6.6-4.2,9.9-6.3C45.8,289.4,43.7,286.3,41.6,283L41.6,283z"/>
	<path id="path4413" inkscape:connector-curvature="0" class="st1" d="M260.1,296.4c3-1.6,6.7-0.9,9.5,0.9c3.5,2.2,6.9,5.5,7.3,9.8
		c0.3,2.4-0.7,4.8-1.9,6.8c-1.6-1.2-3.1-2.5-4.7-3.8c2.4-4.1-1.8-8.6-5.8-9.2c-2.2-0.3-4.2,2.4-2.9,4.3c2.4,4,6,7.2,7.8,11.5
		c1.7,4.6-2.2,9.4-6.6,10.5c-4,0.8-7.9-1.2-10.8-3.7c-2.7-2.3-5.2-5.5-5.3-9.2c-0.2-2.3,1-4.4,2.1-6.3c1.6,1.2,3.2,2.5,4.7,3.8
		c-2.8,4.3,1.8,8.8,5.7,9.9c2.3,0.9,5.2-1.7,3.9-4c-2-4.1-5.9-7.2-7.6-11.5C254.1,302.4,256.8,298.2,260.1,296.4L260.1,296.4z"/>
	<path id="path4415" inkscape:connector-curvature="0" class="st1" d="M6.4,316.2c-1.4-8.7,7.8-17.1,16.3-15
		c1.9,0.4,3.5,1.6,5.1,2.7c-1.5,1.4-3.1,2.8-4.7,4.2c-1.6-0.7-3.2-1.7-5-1.2c-2.9,0.7-5.4,3.2-5.7,6.2c-0.2,2.9,1.3,5.7,3.1,7.9
		c1.9,2.3,4.3,4.4,7.2,5c3.8,0.8,7.8-2.3,8-6.2c0.1-1.5-0.6-2.8-1-4.2c1.5-1.4,3.1-2.8,4.7-4.1c1.7,3.2,2.8,7,1.7,10.6
		c-1.7,5.3-6.7,9.4-12.2,10c-4.2,0.3-8.1-1.7-11.1-4.5C9.7,324.5,7,320.6,6.4,316.2L6.4,316.2z"/>
	<path id="path4417" inkscape:connector-curvature="0" class="st1" d="M126.7,309c36.3-4.6,74.1,4.9,103.9,26.1
		c21.8,15.4,39.4,36.6,50.3,61c12.1,26.8,15.8,57.3,10.8,86.3c-4.6,26.7-16.7,52-34.6,72.4c-21.8,25.1-52.2,42.6-84.9,48.6
		c-0.5,1.4-1,2.8-1.5,4.3c-1.1,0.2-2.3,0.4-3.4,0.6c0.5-1.4,1-2.8,1.5-4.2c-28.5,4.6-58.4,0.8-84.8-11.1
		c-24.2-10.8-45.4-28.3-60.8-49.9C6.4,519.4-3.3,490.7-4.2,461.6c-0.7-22.4,3.6-44.9,12.8-65.3c10.9-24.4,28.5-45.8,50.3-61.2
		C78.9,321,102.4,311.9,126.7,309 M134.4,312.9c-19.7,1.4-39,6.9-56.4,16.1c-22.3,11.7-41.4,29.2-54.9,50.4
		c-12.5,19.4-20.1,41.9-22.1,65c-1.6,17.9,0.2,36.1,5.3,53.3c7.1,24.1,20.7,46.3,38.9,63.6c18.7,17.9,42.3,30.7,67.5,36.4
		c23.5,5.4,48.3,4.7,71.5-1.8c24.9-7,47.8-21,65.5-39.8c17.4-18.3,29.8-41.2,35.6-65.7c6.7-28.2,4.8-58.5-5.8-85.5
		c-9.5-24.5-25.8-46.2-46.5-62.2C205.3,321,169.5,310.2,134.4,312.9L134.4,312.9z"/>
	<path id="path4419" inkscape:connector-curvature="0" class="st1" d="M263.8,332.4c7.4-6.8,14.8-13.6,22.2-20.4
		c5,5.4,10,10.9,15,16.3c-1.3,1.2-2.6,2.4-4,3.6c-3.6-3.9-7.2-7.8-10.8-11.8c-1.6,1.4-3.1,2.8-4.7,4.3c3.3,3.6,6.6,7.2,9.9,10.8
		c-1.3,1.2-2.6,2.4-3.9,3.6c-3.3-3.6-6.6-7.2-9.9-10.8c-1.9,1.7-3.8,3.5-5.8,5.3c3.8,4.1,7.5,8.2,11.3,12.3
		c-1.3,1.2-2.6,2.4-3.9,3.6C274.1,343.6,269,338,263.8,332.4L263.8,332.4z"/>
	<path id="path4421" inkscape:connector-curvature="0" class="st1" d="M-12.4,332.7c4.2-1.6,9-0.3,12.7,2c3.8,2.4,7.3,5.7,8.5,10.1
		c2.4,9.3-6.5,19.8-16.2,17.9c-5.6-1.3-10.8-5-13.7-10C-25.1,345.3-20.1,335.5-12.4,332.7 M-11.8,338.6c-4.1,1.6-6.2,6.9-4,10.8
		c2.1,3.6,5.8,6.3,9.8,7.3c4.2,1.1,8.6-2.1,9.2-6.3c0.7-3.6-1.7-6.9-4.4-8.9C-4.1,339.1-8,337.2-11.8,338.6L-11.8,338.6z"/>
	<path id="path4423" inkscape:connector-curvature="0" class="st1" d="M165.9,343.6c0.7-1.2,2.4-1.4,3.4-0.6
		c1.2,0.7,1.3,2.3,1.9,3.4c0.8,1.9,2.9,3,3.8,4.8c0.6,3.9-0.6,7.8,0,11.7c1,3.5,3.7,6.3,3.9,10c0.2,2.9-1.7,5.2-2.1,8
		c0.1,2.4,1.9,4.3,2.1,6.7c0.1,2.7-0.1,5.5-1.7,7.8c-1.4,2-0.9,4.8-2.5,6.8c-1.3,1.6-3,2.8-4.5,4.2c-2.3,2.1-4.5,4.5-7.5,5.5
		c-2.5,0.8-5.5,0.7-7.9-0.5c-1.1-0.5-1.8-1.9-1.1-2.9c1.6-2.8,5.3-2.9,7.5-5.1c3.7-3.6,5.4-8.8,6.1-13.8c0.7-4.1-0.8-8.6-4-11.3
		c-1.6-1.5-3.9-2.2-5.1-4.2c-1.1-1.6-1.9-3.6-3.8-4.4c-3.3-1.6-7.4-1.4-10.6,0.4c-4,2.2-7.2,5.6-10,9.1c-1.7,2.2-3.4,4.5-4.1,7.2
		c-3.8,13.4-3.5,27.5-1.8,41.2c0.3,2.9,1.3,5.8,3,8.2c1,1.8,2.9,3.8,1.9,6c-0.9,2-2,4-3.3,5.9c-1.8,1.9-4.5,2.4-6.9,3.1
		c-2.8-4.9-7.6-8.1-10.4-13c-2.5-5.8-2.2-12.7-5.7-18.1c-1.9-3.8-5.3-7.6-4.5-12.2c0.3-2.3,3-2.4,4.7-3.3c2.7-1,4.5-3.8,4.4-6.7
		c0.1-2.3-1.3-4.2-2.6-5.9c0.4-2.7,0-5.5,0.9-8.1c2.3-2.7,4.3-5.5,6.5-8.2c1.9-2.9,2.5-6.5,5.1-8.9c2.9-2.7,6.7-4,10.4-5
		c2.9-0.8,5.9-0.6,8.9-1.3c2.9-0.6,5.6-1.8,8.6-2.3c2.8-0.5,5.6,0.7,8.4,0.3c2.5-1.6,4-4.5,7-5.3
		C164.3,349.7,164.2,346.3,165.9,343.6L165.9,343.6z"/>
	<path id="path4425" inkscape:connector-curvature="0" class="st1" d="M286.4,358.8c8.7-5.1,17.3-10.3,26-15.4
		c2.2,3.9,4.6,7.8,6.9,11.7c1.5,2.5,2.3,5.6,1.5,8.5c-1.1,4-4.2,7-7.6,9c-3.7,2.2-8.1,3.7-12.4,2.9c-3.1-0.5-5.8-2.6-7.4-5.2
		C290.9,366.5,288.7,362.6,286.4,358.8 M294,361.4c1.5,2.4,2.6,5,4.6,7c3,2.3,7.1,1,10.1-0.6c3-1.7,6.6-4.2,6.4-8.1
		c-0.5-3.1-2.8-5.6-4.2-8.3C305.3,354.7,299.7,358.1,294,361.4z"/>
	<path id="path4427" inkscape:connector-curvature="0" class="st1" d="M-40.4,356.6c1.4,1.5,3.3,3.2,2.7,5.5
		c-0.8,2.6-3.3,3.9-4.6,6.2c0.1,0.8,0.4,1.6,0.8,2.4c-0.4,0.8-0.8,1.5-1.1,2.3c-1.3-1.5-3.1-3.1-2.8-5.3c0.3-2.8,3.2-4,4.4-6.2
		c0.4-0.9-0.3-1.7-0.6-2.5C-41.1,358.1-40.7,357.3-40.4,356.6z"/>
	<path id="path4429" inkscape:connector-curvature="0" class="st1" d="M-34.5,364.1c10.6,1.3,21.2,2.5,31.7,3.8c-1,2-2,4.1-3,6.1
		c-2.2-0.3-4.3-0.7-6.5-1c-1.6,3.3-3.2,6.6-4.9,9.9c1.6,1.5,3.1,3.1,4.6,4.6c-1,2-2,4-2.9,6c-7.4-7.7-14.9-15.3-22.3-23
		C-36.6,368.4-35.6,366.2-34.5,364.1 M-30.1,370.3c3,2.9,6,5.9,9.1,8.8c1.1-2.3,2.3-4.6,3.4-6.9C-21.8,371.6-26,371-30.1,370.3z"/>
	<path id="path4431" inkscape:connector-curvature="0" class="st1" d="M300.1,382.6c9.3-3.7,18.7-7.5,28-11.2
		c2.8,6.9,5.5,13.7,8.3,20.6c-1.7,0.7-3.3,1.3-4.9,2c-2-5-4-9.9-6-14.9c-2,0.8-3.9,1.6-5.9,2.4c1.8,4.5,3.6,9.1,5.5,13.6
		c-1.7,0.7-3.3,1.3-4.9,2c-1.8-4.5-3.7-9.1-5.5-13.6c-2.4,1-4.8,1.9-7.2,2.9c2.1,5.2,4.1,10.3,6.2,15.5c-1.6,0.7-3.3,1.3-4.9,2
		C305.7,396.7,302.9,389.6,300.1,382.6L300.1,382.6z"/>
	<path id="path4433" inkscape:connector-curvature="0" class="st1" d="M-41.2,387.8c2.1-0.9,4.4-0.9,6.6-0.7c-0.6,2-1.2,4-1.8,6
		c-1.6,0.2-3.4,0.2-4.7,1.4c-2.5,2.2-3.4,6.2-1.5,9.1c1.6,2.6,4.5,3.9,7.3,4.8c2.5,0.7,5.2,1.1,7.8,0.2c3.6-1.2,5.5-5.8,3.9-9.2
		c-0.7-1.4-2-2.4-3.2-3.3c0.6-2,1.2-4,1.8-6c4.4,2.3,7.8,6.8,7.5,12c0.9,0.6,1.8,1.2,2.7,1.8c0,1.6,0,3.1,0.1,4.7
		c-1.2-0.8-2.4-1.6-3.6-2.4c-1.2,3.3-3.3,6.4-6.5,7.9c-5.2,2.5-11.3,1.2-16.3-1.2c-4.3-2.1-7.8-6.3-8-11.2
		C-49.5,396.2-46.6,390-41.2,387.8L-41.2,387.8z"/>
	<path id="path4435" inkscape:connector-curvature="0" class="st1" d="M70.7,398c4.9-1.7,8.4-7.6,14.1-6.7c2.9,0,5,2,7.3,3.5
		c3.1,0.7,5.4-3,8.6-1.8c2.9,0.5,7,3.2,5.2,6.6c-2,1.3-4.4,1.6-6.2,3.2c-2.4,2-2.6,5.4-2.4,8.3c0.8,5.3,4.6,9.3,6.6,14.1
		c1.9,5,1.9,10.5,4.3,15.3c2.5,4.8,7.3,7.8,10.1,12.4c1,1.6,2.1,3.3,4,4.1c2,1.1,4.9,1.7,5.7,4.2c0.8,2.2-0.1,4.6-1.6,6.2
		c-1.6,1.7-1.5,4.2-1.3,6.3c0.5,3,3.1,4.9,4.4,7.4c3.3,5.8,5.9,12.1,9.3,17.9c0.7,1,1.3,2.2,2.5,2.9c2.4,0.4,4.9-0.2,7.2,0.8
		c1.7,0.8,0.8,3,0,4.1c-2.2,2.7-6,2.5-9.1,2.5c-2.6,0.1-4.8-1.5-7.3-2.2c-3.4-0.8-6,2.7-9.4,2.4c-7.5,0-15,0-22.5,0
		c-1.3-0.2-3.4,0-3.8-1.6c1.2-3.6,4.8-5.5,7.6-7.7c0.8-2.5,0.3-5.3,0-7.8c-0.3-3.6-4.1-5.5-7.4-5.3c-15.4,0-30.8,0-46.1,0
		c-1.9,2-2.2,4.8-2.5,7.4c-0.2,2.1-3,3.6-2.2,5.9c1.8,4.1,6.5,5.3,10.6,5.7c1.4,2.2-1.5,5.1-3.8,5.4c-9.5,0.2-19.1,0-28.6,0.1
		c-1.5-0.1-3.1,0.2-4.5-0.7c-0.5-1.4,0.5-2.6,1.4-3.5c1.5-1.6,4-1.5,5.4-3.2c2.6-2.7,4.3-6,6.3-9.1c1.9-3.1,4.2-6.2,4.7-9.9
		c0.5-2.9,0.2-5.8,0.7-8.7c1-2.7,4-4.1,4.8-6.9c0.6-2.3,1.2-4.7,1.5-7.1c0.3-2.5-0.9-4.9-0.4-7.4c0.7-2.6,3.3-3.7,4.8-5.7
		c1.7-3.3,1.1-7.5,3.3-10.7c1.1-1.9,3.1-3.2,4.1-5.2c0.9-4.6,0.1-9.6,2-14.1c2.3-5,5.5-9.9,5.8-15.6c0.1-2.3-2.5-2.5-3.9-3.5
		c-0.5-1.2,0.7-2.3,1.8-2.4C64.9,397.3,67.8,398.3,70.7,398 M72,427c-2.7,3.7-3,8.5-4.1,12.7c-0.5,2.8-2.9,4.7-3.7,7.3
		c-1.2,2.8-0.9,5.9-1.2,8.9c-0.3,2.5-2.6,4-3.7,6.1c-1.7,2.5-2,5.6-2.8,8.5c-0.4,1.6-0.7,3.3-0.7,5c13,0,26,0,39,0
		c0.6-1.4,1.6-3,0.6-4.4c-1.9-2.8-5-4.5-6.6-7.5c-3.1-5.7-0.3-12.6-3-18.4c-2.6-6.4-6-12.6-7.3-19.4C76.8,423.5,73.3,425.2,72,427
		 M50.7,454.4c-2.6,1.3-1.2,6.7,2,5.4c1.4-1.1,2.8-2.3,4.1-3.5c0-1.8-1.2-3.4-1.4-5.2C53.8,452.2,52.4,453.6,50.7,454.4
		 M101.6,451.9c-2.2,2.6-0.1,6-0.3,9c2.2,2.3,5.7,0.1,8.3-0.4c1-1.5-0.8-3.3-0.9-4.9c-0.2-1.8-2.5-1.2-3.5-2.3
		C104,452.7,102.9,450.9,101.6,451.9L101.6,451.9z"/>
	<path id="path4437" inkscape:connector-curvature="0" class="st1" d="M192.8,396.3c1.7-0.7,3.1-2.9,5.2-1.9
		c1.7,1.2,3.1,3.4,5.4,3.5c4.3,0.7,7.1-3.9,11.3-3.6c2.5-0.1,4.6,1.6,6.7,2.7c2.5,1.4,5.9,1.7,8.4-0.1c2.1-1.4,4.4-2.4,6.9-2.6
		c5.6-0.5,11.7-0.4,16.7,2.7c2.2,1.4,5,1,7.4,2c2.2,1.2,5.1,0,6.3-2.2c0.7-0.8,1-2.2,2.3-2.1c1.5,0,2.1,1.7,1.7,3
		c-1.2,4.1-2.2,8.5-1.3,12.8c0.9,3.8,3,7.3,2.7,11.3c-0.3,7.2-5.1,13.8-11.7,16.7c-2.2,1.6-5.6,1.2-7.4-0.7c-0.4-4.2,5.6-5.3,6-9.3
		c-0.1-3.9-2.2-7.4-2.8-11.3c-0.4-4.5-3.7-8.2-7.7-10c-4.4-2.2-9-4.2-14-4.1c-2.9-0.1-4.8,2.5-7.4,3.4c-2.1,0.8-4.7,1.3-5.7,3.6
		c-2.1,10.2-1.9,20.7-1.8,31.1c0.1,2.6,0.2,5.5,1.9,7.6c2.4,1.7,6.4,1.5,8.2-1.1c1.9-1.9,5.1-2.9,5.7-5.9c0.3-3.1-1.5-6.1-0.8-9.2
		c1.3-2.3,4.9-1.1,6,0.9c2,4,1.2,8.7,1.2,13.1c-0.1,2.3,2.9,3.6,2.6,6c-0.8,2.5-2.9,4.6-2.4,7.3c-0.1,2.2,1.8,4.3,0.8,6.5
		c-0.7,1.8-1,3.7-1.5,5.6c-0.4,1.3-2.1,2.8-3.4,1.8c-2.8-2.2-3.1-6-2.4-9.3c-1.7-1.6-4.1-2.3-5.8-3.9c-1.4-1.2-3.1-2.7-5.1-2.4
		c-1.7,1-2.7,2.9-3.9,4.4c-1.5,1.8-0.8,4.4-0.8,6.5c0.2,2.7-0.5,5.3-1.1,7.9c-0.6,2.3,0.2,4.6,0.7,6.8c0.8,3.5,0.3,7.1,0.7,10.7
		c0.2,2.7,3,4.1,3.8,6.6c0.6,1.9,1.9,3.6,3.9,4c2.9,0.5,5.9,0.9,8.8,0.5c1.6-0.2,2-2.3,3.3-3c1.1-0.5,2.3,0.6,2,1.8
		c-0.5,2.4-2,4.6-3.6,6.4c-1.6,1.7-4.2,1.9-6.4,1.6c-2.6-0.6-4.8-2-7.4-2.6c-3.7-0.8-7.6-0.7-11.2,0.4c-1.5,0.4-3.1,0.8-4.7,0.4
		c-2.2-0.6-3.7-2.9-6-3.2c-4.8,0.3-8.4,4.9-13.3,4.6c-1.5,0.1-2-1.4-2.7-2.4c-1.4-0.7-2.8-1.5-4-2.5c1-1.2,2.4-1.8,3.9-2
		c2.2-0.3,3.9-2.1,4.7-4.1c1-2.6,2.6-5.1,2.6-8c0.2-10.7,0.4-21.3,0.5-32c0.1-3.2-3.3-5.5-2.8-8.8c0.7-2.9,2.8-5.5,3-8.5
		c0.2-2.9,0.4-5.8,0.9-8.7c1.3-7.2-1.1-14.3-1.6-21.4c-0.3-3.1,0-6.8-2.6-9.1c-1.1-1.4-3.2-2.2-3.5-4.2
		C188.1,397.8,190.9,397.3,192.8,396.3 M204,448.3c-0.2,2.1,0.9,4.2,2.3,5.8c2.1,0.8,4.9,0.4,6.6-1c0-1.8-2.1-2.8-2.2-4.7
		c-0.1-2.7-2.4-4.3-4.1-6.1C205.3,444.1,204.3,446.1,204,448.3L204,448.3z"/>
	<path id="path4439" inkscape:connector-curvature="0" class="st1" d="M311.7,415.3c9.9-1.8,19.7-3.7,29.6-5.5
		c1.4,7,2.6,14.1,4,21.1c-1.7,0.3-3.5,0.7-5.2,1c-0.9-5-1.9-9.9-2.8-14.9c-2.2,0.4-4.5,0.8-6.7,1.2c0.8,4.3,1.6,8.7,2.4,13
		c-1.7,0.3-3.5,0.7-5.2,1c-0.8-4.4-1.6-8.7-2.4-13c-4.2,0.8-8.3,1.6-12.5,2.3C312.5,419.4,312.1,417.4,311.7,415.3L311.7,415.3z"/>
	<path id="path4441" inkscape:connector-curvature="0" class="st1" d="M-54.1,423.2c10.5-2,20.9-4.1,31.4-6.1
		c-0.3,2.3-0.7,4.5-1,6.8c-2.1,0.3-4.3,0.7-6.4,1c-0.5,3.7-1.1,7.3-1.6,11c1.9,1,3.9,2,5.8,3c-0.3,2.2-0.6,4.4-1,6.5
		c-9.4-5-18.8-10-28.3-15C-54.8,428-54.5,425.6-54.1,423.2 M-48,427.8c3.8,1.9,7.6,3.8,11.3,5.6c0.4-2.5,0.7-5.1,1.1-7.6
		C-39.7,426.5-43.9,427.2-48,427.8z"/>
	<path id="path4443" inkscape:connector-curvature="0" class="st1" d="M319.2,439.5c2.3-1.9,5.3-2.2,8.2-2.3
		c6.2-0.2,12.4-0.5,18.5-0.7c0.1,2.1,0.2,4.3,0.2,6.4c-6.5,0.3-13,0.5-19.4,0.7c-2.4,0-5,1.1-5.7,3.6c-0.5,2.1-0.3,4.5,1.1,6.3
		c1.2,1.5,3.4,1.7,5.2,1.6c6.4-0.2,12.9-0.5,19.3-0.7c0.1,2.1,0.2,4.3,0.2,6.4c-6.5,0.2-13,0.5-19.5,0.7c-3,0.1-6.3-0.5-8.5-2.7
		c-2.6-2.5-3.4-6.4-3.4-9.9C315.4,445.5,316.4,441.7,319.2,439.5L319.2,439.5z"/>
	<path id="path4445" inkscape:connector-curvature="0" class="st1" d="M-56.5,445.4c10,0.4,20.1,0.8,30.1,1.1
		c-0.1,2.1-0.2,4.2-0.2,6.3c-10-0.4-20.1-0.8-30.1-1.1C-56.7,449.6-56.6,447.5-56.5,445.4z"/>
	<path id="path4447" inkscape:connector-curvature="0" class="st1" d="M-37.5,455.5c3.7,0.6,7.5,2.1,9.7,5.3
		c3.6,5.4,3.2,13.5-1.8,17.9c-3.9,3.4-9.3,4.2-14.3,3.9c-4.8-0.3-9.7-2.8-11.8-7.3c-2.5-5.2-2-12.3,2.5-16.3
		c1.6-1.5,3.7-2.3,5.8-2.9c0.2,2.1,0.3,4.2,0.5,6.3c-1.4,0.8-3.1,1.4-3.9,2.9c-1.5,2.8-1,6.8,1.6,8.9c2,1.7,4.8,2.1,7.3,2.1
		c3.1,0,6.3-0.6,8.7-2.6c3.1-2.4,3.1-7.8,0.1-10.3c-1.1-0.9-2.6-1.3-3.9-1.7C-37.2,459.7-37.4,457.6-37.5,455.5L-37.5,455.5z"/>
	<path id="path4449" inkscape:connector-curvature="0" class="st1" d="M341.3,465.4c1.8,0.2,3.5,0.4,5.3,0.6
		c-0.9,8.1-1.8,16.3-2.6,24.4c-1.8-0.2-3.5-0.4-5.3-0.6c0.3-3,0.7-6,1-9.1c-8.2-0.9-16.5-1.8-24.7-2.7c0.2-2.1,0.4-4.2,0.7-6.3
		c8.2,0.9,16.4,1.8,24.7,2.7C340.7,471.4,341,468.4,341.3,465.4L341.3,465.4z"/>
	<path id="path4451" inkscape:connector-curvature="0" class="st1" d="M161,480.2c2.1-1,5.4-1.1,6.3,1.5c1.3,3.2,4.2,5.2,5.8,8.2
		c1.1,1.8,1.9,3.8,2.5,5.9c0.3,2,2.8,2.6,3.3,4.5c-0.5,3.5-1.5,7.7,1.1,10.7c1.2,1.9,3.9,3.3,3.6,5.9c-1.1,8.1-0.3,16.3-1.4,24.3
		c-0.1,1.4-0.6,2.7-1.5,3.7c-2,2.7-3.2,6.1-6,8.1c-1.9,1.2-2.7-1.4-2.9-2.8c-0.2-2.2-2.1-3.4-3.1-5.2c-0.7-0.9-1-2.2-2.2-2.4
		c-2.3-0.5-4.7-0.5-7-0.4c-3.1,0-5.9,1.5-8.7,2.4c-5.8,2-12.1,2-18.1,1.4c-2.7-0.2-4.9-1.9-7.4-2.9c-3.4-1.4-5.8-4.4-8.2-7
		c-2.6-3.2-5.3-6.4-7.3-10.1c-0.9-1.9-3.1-2.9-3.9-4.9c-0.2-3.1,2.5-5.2,4.6-6.9c4.5-0.2,9,0.1,13.4-0.1c2.5-0.5,4.9-1.6,7.3-2.5
		c2.1,3.3,5.5,5.3,8.4,7.8c2.4,1.9,3.6,4.9,6.2,6.6c2.6,1.8,5.9,1.9,8.9,1.7c2.8,0,4.7-2.4,7.2-3.3c1.8-0.6,2.5-2.5,3.3-4
		c1.8-4.3,4.2-8.5,4.3-13.3c0.4-3.6-1.3-7-1.4-10.6c0-2.2-0.8-4.3-2.2-6c-1.4-1.5-0.5-3.9-1.8-5.5C163,483.4,161.6,482,161,480.2
		L161,480.2z"/>
	<path id="path4453" inkscape:connector-curvature="0" class="st1" d="M-40.3,486.1c4.4-1.1,9.4-1.2,13.3,1.4
		c6.1,4.2,8.2,13.3,4.6,19.7c-2.4,4.1-7,6.2-11.4,7.1c-4.1,0.9-8.7,0.7-12.2-1.7c-5.8-4.2-7.9-12.7-4.7-19.1
		C-48.8,489.4-44.6,487.1-40.3,486.1 M-38.3,492.1c-3.3,0.8-6.8,2.4-8.1,5.7c-1.8,4.1,0.8,9.4,5.1,10.3c4.2,0.9,8.9-0.2,12.4-2.8
		c3.7-2.7,3.8-8.8,0.3-11.8C-31.3,491.2-35.1,491.3-38.3,492.1L-38.3,492.1z"/>
	<path id="path4455" inkscape:connector-curvature="0" class="st1" d="M308.1,510.2c1.9-7.4,3.8-14.8,5.7-22.2
		c9.7,2.5,19.5,5,29.2,7.4c-1.8,7.2-3.6,14.3-5.5,21.5c-1.7-0.4-3.4-0.9-5.2-1.3c1.3-5.2,2.6-10.3,3.9-15.5c-2.1-0.5-4.1-1-6.2-1.5
		c-1.2,4.7-2.4,9.5-3.6,14.2c-1.7-0.4-3.4-0.9-5.2-1.3c1.2-4.7,2.4-9.5,3.6-14.2c-2.5-0.6-5.1-1.3-7.6-1.9
		c-1.4,5.4-2.7,10.8-4.2,16.2C311.5,511.1,309.8,510.7,308.1,510.2L308.1,510.2z"/>
	<path id="path4457" inkscape:connector-curvature="0" class="st1" d="M301.3,526.9c1.8-4.9,4-9.7,6-14.5
		c9.2,3.9,18.5,7.9,27.7,11.8c-1.8,4.3-3.7,8.6-5.5,12.9c-1,2.3-2.4,4.8-4.8,5.9c-4.2,2.1-10.1-0.7-10.5-5.5
		c-3.8,3.8-10.5,1.7-12.7-2.8C300.1,532.4,300.4,529.4,301.3,526.9 M306.2,529c-0.9,3.4,4.3,6.2,6.5,3.5c2.1-2.7,2.9-6.2,4.4-9.2
		c-2.5-1.1-4.9-2.2-7.4-3.2C308.6,523,307,525.8,306.2,529 M318.4,534.4c-0.4,2.7,3.6,4.6,5.3,2.3c2-2.7,2.8-6,4.2-8.9
		c-2-0.9-4-1.8-6.1-2.6C320.7,528.2,318.9,531.1,318.4,534.4z"/>
	<path id="path4459" inkscape:connector-curvature="0" class="st1" d="M-31,519.7c0.7-3.8,4.8-5.9,8.3-6c4.2-0.1,7.5,3.3,9.2,6.8
		c1.8,3.8,3.2,8.4,1.3,12.4c-0.9,2.2-2.9,3.6-5,4.7c-0.8-1.8-1.5-3.6-2.3-5.5c1.1-1,2.5-2,2.7-3.7c0.2-2.8-1.1-5.7-3-7.8
		c-1.4-1.8-4.9-1.3-5.4,1c-0.5,4.9,1.9,9.7,1.2,14.6c-0.6,4-5,6.3-8.8,6.3c-3.5-0.1-6.4-2.6-8-5.6c-2-3.6-3.3-8.2-1.5-12.2
		c0.9-2.1,2.8-3.5,4.6-4.8c0.9,1.8,1.7,3.7,2.4,5.5c-4,2.4-2.6,8.2,0.6,10.7c1.7,1.4,4.7,0.3,4.8-1.9
		C-29.7,529.4-31.7,524.6-31,519.7L-31,519.7z"/>
	<path id="path4461" inkscape:connector-curvature="0" class="st1" d="M-19.8,544.9c0.2-5.7,7.6-9.2,12.4-6.5
		c4.6,2.5,7.6,7.5,8.5,12.5c0.7,3.8-1.5,7.3-4.5,9.4c-1-1.7-2.1-3.4-3.1-5.1c1.1-1.2,2.3-2.5,2.1-4.2c-0.3-2.9-2-5.6-4.4-7.3
		c-1.8-1.4-5.1,0.1-4.8,2.5c0.5,4.6,3.1,8.7,3.3,13.4c0.2,4.2-3.8,7.4-7.6,7.9c-3.6,0.5-6.9-1.7-8.9-4.4c-2.5-3.2-4.4-7.4-3.2-11.6
		c0.6-2.3,2.2-4.1,4.1-5.6c1,1.7,2.1,3.4,3.1,5.1c-3.6,3-1.3,8.7,2.3,10.6c1.8,0.9,4.4-0.6,4.3-2.7
		C-17.1,554.2-19.7,549.8-19.8,544.9L-19.8,544.9z"/>
	<path id="path4463" inkscape:connector-curvature="0" class="st1" d="M296.3,542c3.9-1.4,8.3-0.4,11.9,1.6c3.9,2.1,7.6,5.2,9.1,9.5
		c3,8.9-4.9,19.8-14.5,19c-6-0.7-11.7-4.4-14.9-9.5C283.4,555.1,288.3,544.7,296.3,542 M296.9,548c-4.4,1.6-6.5,7.4-3.8,11.3
		c2.5,3.6,6.6,6.2,11,6.7c4.5,0.4,8.4-3.9,8-8.3c-0.3-3.4-2.9-6-5.7-7.8C303.7,548.1,300.1,546.7,296.9,548L296.9,548z"/>
	<path id="path4465" inkscape:connector-curvature="0" class="st1" d="M-12.1,582.7c5.4-9.2,10.8-18.4,16.3-27.5
		c1.5,1.7,2.9,3.5,4.4,5.2c-1.2,1.8-2.3,3.6-3.5,5.5c2.4,2.9,4.8,5.7,7.1,8.5c2-0.8,4.1-1.6,6.1-2.4c1.4,1.7,2.8,3.4,4.2,5.1
		c-10,3.7-20,7.4-30,11.1C-9,586.5-10.6,584.6-12.1,582.7 M2.2,570.7c-2.2,3.5-4.5,7.1-6.8,10.6c3.9-1.6,7.8-3.1,11.7-4.7
		C5.5,574.6,3.8,572.6,2.2,570.7L2.2,570.7z"/>
	<path id="path4467" inkscape:connector-curvature="0" class="st1" d="M118.3,562c0.6,0,1.2-0.1,1.7-0.1c0,7.6,0,15.2,0,22.8
		c-0.9,0-1.9,0-2.8,0c0-5.9,0-11.8,0-17.7c-1.7,1.3-3.6,2.4-5.6,3.3c0-0.9,0-1.8,0-2.7C114.3,566.4,116.7,564.5,118.3,562L118.3,562
		z"/>
	<path id="path4469" inkscape:connector-curvature="0" class="st1" d="M130.4,563.1c3-2,7.4-1.3,9.6,1.6c2,2.5,2.1,5.9,2.1,9
		c-0.1,3.1-0.5,6.6-2.6,9.1c-2.2,2.7-6.6,3.2-9.4,1.3c-1.6-1-2-2.9-2.6-4.5c0.9-0.1,1.8-0.1,2.7-0.2c0.6,1.1,0.9,2.6,2.1,3.2
		c1.8,0.8,4.2,0.2,5.3-1.4c1.5-2,1.5-4.5,1.9-6.8c-1.9,2.1-5,3.6-7.9,2.4C126.1,574.6,125.7,566.2,130.4,563.1 M133.1,564.5
		c-4,1.6-4.3,8.4-0.1,9.8c3,1.2,6.1-1.6,5.9-4.7C139.4,566.6,136.4,563.1,133.1,564.5z"/>
	<path id="path4471" inkscape:connector-curvature="0" class="st1" d="M145,562.4c4.9,0,9.9,0,14.8,0c-0.1,1.1-0.1,2.3-1,3.1
		c-4.4,5.5-7.2,12.2-7.9,19.3c-1,0-1.9,0-2.9,0c0.5-7.2,3.4-14.1,7.9-19.7c-3.7,0-7.4,0-11,0C145,564.2,145,563.3,145,562.4
		L145,562.4z"/>
	<path id="path4473" inkscape:connector-curvature="0" class="st1" d="M165,563.6c3.3-3,9.8-1.8,11.1,2.8c0.8,2.4-0.6,4.9-2.8,6
		c3.6,0.9,5,5.3,3.5,8.4c-2,4.5-8.6,5.7-12.1,2.4c-1.3-1.1-1.8-2.9-2.3-4.5c0.9-0.1,1.9-0.3,2.8-0.4c0.6,1.9,1.5,4.2,3.8,4.4
		c3.7,0.8,6.8-3.6,4.9-6.8c-1.1-2.2-3.8-2.4-5.9-2.1c0.1-0.5,0.3-1.6,0.3-2.1c2.1-0.2,4.8-0.9,5-3.4c0.6-2.8-2.6-4.8-5-3.9
		c-1.8,0.5-2.3,2.4-2.9,3.9c-0.9-0.2-1.8-0.4-2.7-0.6C163.2,566.3,163.7,564.7,165,563.6L165,563.6z"/>
	<path id="path4475" inkscape:connector-curvature="0" class="st1" d="M265.8,578.3c4.7-5.3,9.2-10.7,14.1-15.8
		c7.6,6.5,15,13.2,22.6,19.8c-1.4,1.6-2.8,3.2-4.2,4.7c-6.2-5.5-12.4-10.9-18.5-16.3c-3.3,3.7-6.6,7.5-9.9,11.2
		C268.5,580.7,267.2,579.5,265.8,578.3L265.8,578.3z"/>
	<path id="path4477" inkscape:connector-curvature="0" class="st1" d="M216,597.7c-0.3-5.4,5.7-9.6,10.8-8.2
		c1.6,0.4,2.7,1.6,3.8,2.7c-1.1,0.6-2.2,1.3-3.3,1.9c-1.2-0.6-2.5-1.8-3.9-1.2c-2.7,0.5-4.3,3.6-3.2,6.2c1,2.9,3.1,6.4,6.6,6.2
		c2.8-0.3,4.3-3.2,3.6-5.7c1.1-0.6,2.2-1.2,3.4-1.8c0.3,2.1,0.8,4.3-0.2,6.3c-2,4.3-8,6.5-12,3.7C218.3,605.3,216.2,601.5,216,597.7
		L216,597.7z"/>
	<path id="path4479" inkscape:connector-curvature="0" class="st1" d="M60.9,590.5c4.7-3.2,12,0.3,12.7,5.9c0.2,1.3-0.2,2.6-0.5,3.9
		c-1.1-0.6-2.2-1.2-3.3-1.9c-0.1-1,0.1-2.1-0.2-3c-1.1-2.2-4.3-3.3-6.4-1.8c-2.2,1.6-3.6,4.2-4.1,6.8c-0.5,2.7,2.2,5.2,4.9,4.8
		c1-0.3,1.8-0.9,2.7-1.5c1.1,0.6,2.2,1.3,3.3,1.9c-1.1,0.9-2.2,1.9-3.5,2.5c-4.6,1.9-10.4-1.5-11.2-6.4
		C54.9,597.3,57.3,592.9,60.9,590.5L60.9,590.5z"/>
	<path id="path4481" inkscape:connector-curvature="0" class="st1" d="M77.7,595.6c1.2,0.5,2.4,1,3.6,1.6c-1,2.2-1.9,4.3-2.8,6.5
		c2.2,1,4.5,1.9,6.7,2.9c0.9-2.2,1.9-4.3,2.8-6.5c1.2,0.5,2.4,1,3.6,1.5c-2.5,5.7-4.9,11.4-7.4,17.1c-1.2-0.5-2.4-1-3.6-1.5
		c1.1-2.6,2.2-5.1,3.3-7.7c-2.2-1-4.5-1.9-6.7-2.9c-1.1,2.6-2.2,5.1-3.3,7.7c-1.2-0.5-2.4-1-3.6-1.5C72.7,607,75.2,601.3,77.7,595.6
		L77.7,595.6z"/>
	<path id="path4483" inkscape:connector-curvature="0" class="st1" d="M201.1,600.7c2-2.2,5.2-3.6,8.3-3.2c2,0.2,3.4,1.8,4.5,3.3
		c-1.1,0.5-2.2,1-3.4,1.5c-1.8-2.2-5.1-1.6-6.7,0.5c-0.8,1-0.3,2.5,0.9,2.9c3.3,0.1,6.6-1.5,10-0.7c3.2,1.2,4.1,6,1.9,8.5
		c-3.3,3.9-10.8,5.5-13.5,0.2c1.1-0.5,2.2-1,3.3-1.5c2,2.6,5.8,1.7,7.6-0.7c0.9-1,0.1-2.8-1.2-2.9c-3.1-0.2-6.1,1.3-9.2,0.8
		C200,608.3,198.8,603.3,201.1,600.7L201.1,600.7z"/>
	<path id="path4485" inkscape:connector-curvature="0" class="st1" d="M87.3,620c3.9-5.3,7.8-10.7,11.7-16c1.4,0.4,2.8,0.8,4.3,1.2
		c0.4,6.6,0.7,13.2,1,19.8c-1.4-0.4-2.7-0.8-4.1-1.2c0-1.4,0-2.7-0.1-4c-2.2-0.6-4.4-1.3-6.6-2c-0.8,1.1-1.6,2.2-2.4,3.3
		C90,620.8,88.6,620.4,87.3,620 M95.5,615.1c1.5,0.4,3,0.9,4.6,1.4c0-2.6-0.1-5.2-0.1-7.8C98.5,610.7,97,612.9,95.5,615.1
		L95.5,615.1z"/>
	<path id="path4487" inkscape:connector-curvature="0" class="st1" d="M111.1,607.4c3.4,0.7,7,0.9,10.3,2.1c4.6,2.1,3.4,9.9-1.4,11
		c-2.4,0.4-4.8-0.4-7.2-0.7c-0.4,2.1-0.7,4.3-1.2,6.4c-1.3,0.1-2.6-0.3-3.8-0.5C108.9,619.6,110,613.5,111.1,607.4 M114.4,611.2
		c-0.3,1.8-0.7,3.6-1,5.4c1.5,0.2,3,0.6,4.6,0.7c2.4,0.1,3.3-3.9,1.2-4.9C117.7,611.7,116,611.6,114.4,611.2L114.4,611.2z"/>
	<path id="path4489" inkscape:connector-curvature="0" class="st1" d="M166.9,609.2c3.7-1.6,8.6-0.7,10.8,2.8
		c2,3.3,2.7,7.6,1.2,11.2c-2.5,5.6-11.2,6.7-14.9,1.8C160.4,620.2,160.5,611.5,166.9,609.2 M168.9,612c-4.3,1.3-4,7.1-2.2,10.3
		c1.5,3.1,6.4,3.2,8.2,0.3c1.4-2.5,0.9-5.8-0.3-8.3C173.6,612.3,171.1,611.3,168.9,612z"/>
	<path id="path4491" inkscape:connector-curvature="0" class="st1" d="M183.7,612.8c3.9-1.1,7.8-2.2,11.7-3.2
		c0.4,1.3,0.7,2.5,1.1,3.8c-3.9,1.1-7.8,2.2-11.7,3.2C184.4,615.3,184.1,614,183.7,612.8z"/>
	<path id="path4493" inkscape:connector-curvature="0" class="st1" d="M125.9,628.7c0.4-6.2,0.9-12.4,1.3-18.6
		c4.6,0.3,9.1,0.6,13.7,1c-0.1,1.1-0.2,2.2-0.2,3.3c-3.3-0.2-6.6-0.5-9.9-0.7c-0.1,1.3-0.2,2.6-0.3,3.9c3,0.2,6,0.4,9.1,0.6
		c-0.1,1.1-0.2,2.2-0.2,3.3c-3-0.2-6.1-0.4-9.1-0.6c-0.1,1.6-0.2,3.2-0.3,4.8c3.4,0.2,6.9,0.5,10.3,0.7c-0.1,1.1-0.2,2.2-0.2,3.3
		C135.3,629.4,130.6,629.1,125.9,628.7z"/>
	<path id="path4495" inkscape:connector-curvature="0" class="st1" d="M144.2,614.5c2.4-4.6,9.3-5.5,13.1-2.1
		c1.2,1.1,1.8,2.7,2.4,4.2c-1.3,0.1-2.6,0.1-3.9,0.2c-0.6-0.8-1-1.8-1.8-2.5c-2.1-1.3-5.3-0.5-6.3,1.9c-1.1,2.4-0.9,5.3,0.1,7.8
		c0.8,2.1,3.4,3.2,5.5,2.3c1.6-0.4,2.1-2.1,2.7-3.4c1.3-0.1,2.6-0.1,3.9-0.1c-0.5,1.6-0.9,3.3-2.1,4.6c-3.5,4-10.9,3.4-13.4-1.4
		C142.6,622.5,142.5,618.1,144.2,614.5L144.2,614.5z"/>
</g>
</svg>
