<?xml version="1.0" encoding="utf-8"?>
<!-- Generator: Adobe Illustrator 19.1.0, SVG Export Plug-In . SVG Version: 6.00 Build 0)  -->
<svg version="1.1" id="Layer_1" xmlns="http://www.w3.org/2000/svg" xmlns:xlink="http://www.w3.org/1999/xlink" x="0px" y="0px"
	 viewBox="0 0 144.8 175.7" style="enable-background:new 0 0 144.8 175.7;" xml:space="preserve">
<g>
	<path style="fill-rule:evenodd;clip-rule:evenodd;fill:#FFFFFF;" d="M139.7,104.4l-5.2,6.6l-12.6,6.9l7.2,1.9l-10.5,16.7l-11.7-13
		c8.4-7.8,14-18.3,15.3-30.1c1.5,0.1,2.9,0,3.2,0c0.8,0,1.5-0.6,1.5-1.4s-0.7-1.4-1.5-1.4c-0.3,0-1.6,0-3,0.1c0-0.4,0-0.7,0-1.1
		c1.5,0.1,2.8,0,3.1,0c0.8,0,1.5-0.6,1.5-1.4s-0.7-1.4-1.5-1.4c-0.3,0-1.7,0-3.1,0.1c0-0.4,0-0.9,0-1.3c1.4,0,2.7,0,3,0
		c0.8,0,1.5-0.6,1.5-1.4s-0.7-1.4-1.5-1.4c-0.3,0-1.7,0-3.2,0.1c-1.2-11.2-6.3-21.2-13.9-28.8l2.5-1.2l10.3-1.6l15.3-12.9
		l-14.9-14.9l-12.3,15.5l-2,14.2c-7.8-7.4-18-12.4-29.4-13.6v-6.5h11.1v-8.6H55.8v8.6h10.8v6.5c-11.2,1.2-21.2,6-28.9,13.2l-1.2-2.9
		l-1.2-10.9L22.6,22L6.2,36.8l15.6,13.6l15,2.8C28.9,61,23.6,71.2,22.4,82.7c-1.4-0.1-2.7,0-3.1,0c-0.8,0-1.5,0.6-1.5,1.4
		s0.7,1.4,1.5,1.4c0.3,0,1.5,0,2.8,0c0,0.4,0,0.7,0,1.1c-1.4,0-2.6,0-3,0c-0.8,0-1.5,0.6-1.5,1.4s0.7,1.4,1.5,1.4c0.3,0,1.6,0,3-0.1
		c0,0.4,0,0.9,0,1.3c-1.3,0-2.5,0-2.8,0c-0.8,0-1.5,0.6-1.5,1.4s0.7,1.4,1.5,1.4c0.3,0,1.6,0,3.1-0.1c1.3,11.9,7.1,22.5,15.5,30.3
		l-12.4,12.1L15,120.6l6.7-2.8L4.6,104.4l0.8,18.5L7,129l3.9-5.7l4.6,6.9l6.9,9.6l-10.1,10.8l-0.4,2.8l2.5-0.1l10.2-10.5l6.5,6.2
		l14.4,8.2l19.2,6.8l7.7,7.2l3.5-6.8l14.5-4.6l19.7-8.3l9.9-8.8l10.1,10.2l3,0.8l0.2-2.7l-11.2-11.4l12.2-16.8l3.3,6.5l2.4-9.9
		L139.7,104.4z M52.8,153.8l-24.9-15l12.6-12.9c7.3,5.8,16.2,9.7,26.1,10.8v3.5l1.6,1l0.5,2.1L52.8,153.8z M104.2,147.3l-27.6,4.8
		l-0.7-10.4l2.6-2.3l-0.1-2.8c9.8-1.1,18.7-5,25.9-10.8l12.2,12.5L104.2,147.3z"/>
	<path style="fill-rule:evenodd;clip-rule:evenodd;fill:#FFFFFF;" d="M71.5,21.1c5.5,0,10.1-4.5,10.1-10.1v0C81.6,5.5,77,1,71.5,1
		C65.9,1,61.4,5.5,61.4,11v0C61.4,16.6,65.9,21.1,71.5,21.1z"/>
</g>
<g>
	<path style="fill-rule:evenodd;clip-rule:evenodd;" d="M66.3,39.4c-2.1-0.1-4.3,0.4-5.6,1.4c-2.7-0.2-5.9,0.8-7.3,2.4
		c-2.7,0.2-5.7,1.7-6.9,3.4c-2.6,0.6-5.4,2.4-6.3,4.3c-2.5,1-5,3.2-5.5,5.2c-2.3,1.3-4.4,3.9-4.7,5.9c-2.1,1.6-3.8,4.5-3.7,6.5
		c-1.8,1.9-3.1,5.1-2.6,7.2c-1.3,1.9-2,4.5-1.7,6.4h-2.8c-1,0-1.9,0.8-1.9,1.8c0,1,0.8,1.9,1.9,1.9h2.4v0.1v0.2h-2.4
		c-1,0-1.9,0.9-1.9,1.9c0,1,0.8,1.8,1.9,1.8h2.4v0.1v0.2h-2.4c-1,0-1.9,0.9-1.9,1.9c0,1,0.8,1.9,1.9,1.9h3.1c-0.6,2,0.1,5.1,1.7,7.2
		c-0.4,2.1,0.9,5.1,2.7,7c0,2.1,1.7,4.9,3.8,6.5c0.3,2.1,2.5,4.6,4.8,5.9c0.6,2,3.2,4.2,5.6,5.1c1,1.9,3.8,3.7,6.4,4.3
		c1.2,1.7,4.3,3.2,6.9,3.3c1.5,1.6,4.9,2.5,7.5,2.2c1.1,0.8,2.9,1.3,4.7,1.4v2.7c0,1,0.9,1.8,1.9,1.8c1.1,0,1.9-0.8,1.9-1.8v-2.6
		h0.2h0.2v2.6c0,1,0.8,1.8,1.9,1.8c1,0,1.9-0.8,1.9-1.8v-2.6h0.1h0.2v2.6c0,1,0.9,1.8,1.9,1.8c1.1,0,1.9-0.8,1.9-1.8v-2.8
		c2.1,0,4.3-0.5,5.5-1.5c2.7,0.2,5.9-0.8,7.3-2.3c2.7-0.2,5.7-1.6,6.9-3.4c2.6-0.6,5.4-2.4,6.3-4.3c2.5-1,5-3.2,5.6-5.2
		c2.3-1.3,4.4-3.9,4.7-5.9c2-1.6,3.7-4.5,3.7-6.5c1.8-1.9,3.1-5.1,2.6-7.2c1.3-1.8,2-4.5,1.7-6.4h2.9c1,0,1.8-0.9,1.8-1.9
		c0-1-0.8-1.9-1.8-1.9h-2.6v-0.2v-0.1h2.6c1,0,1.8-0.8,1.8-1.8c0-1-0.8-1.9-1.8-1.9h-2.6v-0.2v-0.1h2.6c1,0,1.8-0.8,1.8-1.9
		c0-1-0.8-1.8-1.8-1.8h-3.2c0.6-2-0.1-5.1-1.6-7.2c0.3-2-0.9-5.1-2.8-7c0-2.1-1.7-4.9-3.8-6.5c-0.3-2.1-2.5-4.6-4.8-5.9
		c-0.6-2-3.2-4.2-5.6-5.1c-0.9-1.9-3.8-3.7-6.3-4.3c-1.2-1.7-4.3-3.2-7-3.3c-1.5-1.6-4.9-2.6-7.5-2.3c-1.1-0.8-2.9-1.3-4.7-1.3v-2.8
		c0-1-0.9-1.8-1.9-1.8c-1,0-1.9,0.8-1.9,1.8v2.7c-0.1,0-0.1,0-0.2,0c0,0-0.1,0-0.1,0v-2.7c0-1-0.9-1.8-1.9-1.8
		c-1.1,0-1.9,0.8-1.9,1.8v2.7c-0.1,0-0.1,0-0.2,0c-0.1,0-0.1,0-0.2,0v-2.7c0-1-0.8-1.8-1.9-1.8c-1,0-1.9,0.8-1.9,1.8V39.4L66.3,39.4
		z M71.8,64.8c0.1,1.2,0.2,2.3,0.4,3.5c3.9-1.1,7.2-1.9,9.9,1.3c-0.1,0.6-0.1,1.2-0.2,1.9c-2.6-1.6-5.3-1.8-9.2-0.5
		c0.1,0.8,0.3,1.6,0.5,2.4c2.9-0.8,5.2-1.2,8.4,0.1l-0.2,2.2c0,0.2-0.1,0.3-0.1,0.5c-2.6-0.9-4.9-0.9-7.5,0c0.2,1,0.5,2,0.8,3l0,0.1
		l0-0.1c2.4-0.3,4.6-0.2,6.4,0.5C81,80.4,81,81.3,81,82.1c-4.6-2.4-16.3,1.7-22.6,6.1l-0.7-1.8l-0.1-0.3c-0.2,0.1-0.4,0.2-0.6,0.4
		c2.7,6.9,4.5,13.7,5.6,20.8L50.4,71.8l1.4-0.6l-3.9-4.5c6-6.5,14.8-10.5,24.5-10.5c8.9,0,17.1,3.4,23,9.1c-4.4,1.1-8.3,2.4-12.2,5
		c0.2-5.5-4.6-6.7-10-5.7C72.8,64.6,72.3,64.7,71.8,64.8L71.8,64.8z M24.9,77c-0.1-0.3-0.3-0.6-0.4-0.9c-0.5-1.2-0.2-2.6,0.2-3.7
		l0.2-0.5c0.4-0.9,0.9-1.8,1.6-2.5c0.2,0.8,0.4,1.5,0.5,2.4c0.1,1-0.2,2.1-0.5,3.1c-0.4,0.9-0.8,1.9-1.3,2.8
		C25.1,77.4,25,77.2,24.9,77L24.9,77z M62.6,107.3c2.9-2.1,6.5-4.2,10.6-6.1c-0.9,3.6-1,6.4,0.7,8.7c2.2,2.9,6.8,1.7,10.5-0.5
		c7.2-4.2,12-8.1,19.2-11.5c-4.4,12.6-16.8,21.8-31.3,21.8c-1.9,0-3.8-0.2-5.7-0.5L62.6,107.3L62.6,107.3z M104.1,96.6
		c-6.2-9.7-7.9-18.4-8.1-30.7c5.7,5.7,9.3,13.5,9.3,22.1C105.3,90.9,104.9,93.8,104.1,96.6L104.1,96.6z M64.1,118.8
		c-14.2-3.6-24.6-16.1-24.6-30.8c0-7.5,2.7-14.4,7.3-19.9l0.3,5.2l1.3-0.6L64.1,118.8L64.1,118.8z M74.2,44.3
		c0.1-0.1,0.1-0.3,0.1-0.4v-0.4h0.1c0.1,0,0.2,0,0.2,0v0.4c0,0.2,0,0.3,0.1,0.4H74.2L74.2,44.3z M78.3,44.7c0.1-0.2,0.2-0.5,0.2-0.7
		v-1.2c1.8,0.9,4.6,1.1,6.5,1.1l-0.1-0.2c0,0,0,0,0,0.1c1.5,1.4,4.8,2.2,7,2.5c1.3,1.6,4.4,2.9,6.4,3.4c1,1.7,3.9,3.5,5.8,4.3
		c0.7,1.8,3.3,4,5.1,5.1c0.5,1.9,2.6,4.4,4.2,5.8c0.2,2,1.9,4.7,3.3,6.3c-0.2,2,1.1,4.9,2.3,6.7c-0.3,1.2-0.1,2.8,0.3,4.3h-1.2
		c-0.3,0-0.5,0.1-0.8,0.2C114.6,62.8,98.5,47.2,78.3,44.7L78.3,44.7z M117.6,85.8c0.1,0.1,0.3,0.1,0.4,0.1h0.6v0.1v0.2h-0.6
		c-0.1,0-0.3,0.1-0.4,0.1C117.6,86.1,117.6,85.9,117.6,85.8L117.6,85.8z M117.6,89.8c0.1,0,0.3,0,0.4,0h0.6v0.1v0.2h-0.6
		c-0.1,0-0.3,0.1-0.4,0.1C117.6,90.1,117.6,89.9,117.6,89.8L117.6,89.8z M117.3,93.7c0.2,0.1,0.5,0.2,0.8,0.2h1.1
		c-0.3,1.3-0.3,2.6-0.1,3.6l0.1,0.1c-1.1,1.8-2.4,4.8-2.2,6.7c-1.3,1.6-3.1,4.4-3.2,6.3c-1.6,1.4-3.8,3.9-4.2,5.8
		c-1.8,1.2-4.3,3.3-5,5.2c-2,0.9-4.8,2.7-5.8,4.4c-2.1,0.6-5.1,1.9-6.4,3.5c-2.1,0.3-5.3,1.2-6.8,2.6c-2.2-0.1-5.5,0.4-7.2,1.5v-1.5
		c0-0.3-0.1-0.5-0.2-0.7C98.5,128.8,114.6,113.2,117.3,93.7L117.3,93.7z M74.7,131.7c-0.1,0.1-0.1,0.3-0.1,0.4v0.5h-0.2h-0.1v-0.5
		c0-0.1,0-0.3-0.1-0.4H74.7L74.7,131.7z M70.5,131.7c0,0.1,0,0.3,0,0.4v0.5h-0.2h-0.2v-0.5c0-0.1,0-0.3,0-0.4H70.5L70.5,131.7z
		 M66.5,131.4c-0.1,0.2-0.2,0.5-0.2,0.7v1.2c-1.8-0.8-4.6-1.1-6.5-1l0.1,0.1h0c-1.5-1.4-4.8-2.3-7-2.6c-1.3-1.5-4.4-2.8-6.4-3.4
		c-1-1.7-3.9-3.5-5.8-4.3c-0.7-1.9-3.3-4-5.1-5.1c-0.4-1.9-2.6-4.4-4.2-5.8c-0.1-2-1.9-4.7-3.3-6.3c0.2-2-1.2-5-2.3-6.7
		c0.3-1.2,0.1-2.8-0.3-4.3h1.2c0.2,0,0.5-0.1,0.7-0.2C30.2,113.3,46.3,128.8,66.5,131.4L66.5,131.4z M27.1,90.2
		c-0.1,0-0.2-0.1-0.4-0.1h-0.9v-0.2v-0.1h0.9c0.1,0,0.2,0,0.3,0C27.1,89.9,27.1,90.1,27.1,90.2L27.1,90.2z M27.1,86.2
		c-0.1-0.1-0.2-0.1-0.3-0.1h-0.9v-0.2v-0.1h0.9c0.1,0,0.2,0,0.4,0C27.1,85.9,27.1,86.1,27.1,86.2L27.1,86.2z M27.5,82.3
		c-0.2-0.1-0.5-0.1-0.7-0.1h-1.2c0.3-1.3,0.3-2.7,0.1-3.7l-0.1-0.1c1.1-1.8,2.4-4.7,2.2-6.7c1.3-1.6,3.1-4.4,3.2-6.3
		c1.6-1.4,3.8-3.9,4.2-5.8c1.8-1.1,4.3-3.3,5-5.2c2-0.9,4.8-2.6,5.8-4.4c2.1-0.6,5.1-1.9,6.4-3.5c2.1-0.3,5.4-1.1,6.8-2.5
		c2.2,0,5.5-0.4,7.2-1.6v1.5c0,0.3,0.1,0.5,0.2,0.7C46.3,47.2,30.2,62.7,27.5,82.3L27.5,82.3z M70.1,44.3c0-0.1,0-0.2,0-0.4v-0.4
		h0.2c0.1,0,0.1,0,0.2,0v0.4c0,0.1,0,0.3,0,0.4H70.1L70.1,44.3z M66.3,41.5c-0.1,0.1-0.2,0.2-0.4,0.3c-0.9,0.6-2,0.9-3,1.1
		c-1,0.2-2.1,0.3-3.2,0.4c0.1-0.2,0.2-0.4,0.4-0.6c0.2-0.3,0.4-0.5,0.6-0.8c0.8-1,2.2-1.4,3.5-1.7l0.6-0.1c0.5,0,1.1-0.1,1.6-0.1
		V41.5L66.3,41.5z M78.5,40c0.2,0,0.5,0,0.8,0.1l0.6,0.1c1.2,0.2,2.7,0.6,3.5,1.6c0.2,0.2,0.4,0.5,0.6,0.8c0.1,0.1,0.3,0.3,0.4,0.5
		c-1.1,0-2.1-0.1-3.2-0.3c-0.9-0.2-1.9-0.4-2.7-0.9V40L78.5,40z M119.9,93.8h2.1c0.2,0.8,0.1,1.7-0.1,2.5l-0.1,0.6
		c-0.3,0.9-0.6,1.8-1.1,2.7c-0.4-0.7-0.7-1.5-0.9-2.2c-0.3-1.1-0.2-2.1,0-3.2C119.8,94.2,119.9,94,119.9,93.8L119.9,93.8z
		 M78.5,135.9v-1.5l0.3-0.2c0.9-0.6,2-0.9,3-1.1c1-0.2,2.1-0.3,3.2-0.3c-0.1,0.2-0.3,0.4-0.4,0.5c-0.2,0.3-0.4,0.6-0.6,0.8
		c-0.8,1.1-2.2,1.5-3.5,1.7l-0.6,0.1C79.5,135.9,79,135.9,78.5,135.9L78.5,135.9z M66.3,136c-0.3,0-0.6-0.1-0.8-0.1l-0.6-0.1
		c-1.2-0.2-2.7-0.6-3.5-1.7c-0.2-0.3-0.4-0.6-0.6-0.8c-0.1-0.2-0.3-0.3-0.4-0.5c1.1,0,2.1,0.1,3.2,0.3c1,0.1,1.9,0.4,2.7,0.9V136
		L66.3,136z M24.8,93.8c0.1,0.3,0.1,0.7,0.2,1.1c0.2,1,0.3,2.1,0.1,3.1c-0.2,0.8-0.5,1.5-0.9,2.2c-0.5-0.8-0.9-1.7-1.2-2.7l-0.1-0.6
		c-0.2-1-0.3-2.2,0.1-3.2H24.8L24.8,93.8z M24.8,82.1h-2.1c-0.2-0.9-0.1-1.7,0.1-2.6l0.1-0.6c0.3-0.9,0.6-1.9,1.1-2.7
		c0.4,0.7,0.7,1.5,0.9,2.2c0.3,1,0.2,2.1,0,3.1C24.9,81.9,24.9,82,24.8,82.1L24.8,82.1z M120,82.1c-0.1-0.4-0.2-0.7-0.3-1.1
		c-0.2-1-0.3-2.1-0.1-3.1c0.2-0.8,0.5-1.6,0.9-2.3c0.5,0.8,0.9,1.8,1.2,2.7l0.1,0.5c0.2,1.1,0.3,2.2-0.1,3.2H120L120,82.1z
		 M27.3,70.2c-0.1-0.4-0.2-0.7-0.2-1c-0.4-1.2,0.2-2.6,0.8-3.7l0.2-0.5c0.6-0.8,1.2-1.6,1.9-2.2c0.1,0.7,0.2,1.6,0.1,2.4
		c-0.1,1-0.5,2-0.9,2.9c-0.5,0.9-1.1,1.8-1.7,2.7C27.4,70.6,27.4,70.4,27.3,70.2L27.3,70.2z M30.8,63.8c-0.1-0.3-0.1-0.6-0.1-1
		c-0.2-1.3,0.6-2.5,1.4-3.5l0.3-0.5c0.7-0.7,1.4-1.4,2.3-1.9c0,0.8-0.1,1.6-0.2,2.4c-0.2,1-0.8,1.9-1.4,2.8
		c-0.6,0.9-1.3,1.6-2.1,2.4C30.9,64.3,30.8,64,30.8,63.8L30.8,63.8z M35.2,58c0-0.4,0.1-0.7,0.1-1c0.1-1.3,1-2.4,1.9-3.3l0.4-0.4
		c0.7-0.6,1.6-1.2,2.5-1.6c-0.1,0.8-0.3,1.6-0.6,2.3c-0.4,1-1.1,1.8-1.9,2.6c-0.8,0.7-1.6,1.4-2.5,2C35.2,58.4,35.2,58.2,35.2,58
		L35.2,58z M40.5,52.9c0.1-0.3,0.1-0.7,0.2-1c0.3-1.2,1.4-2.2,2.4-2.9l0.5-0.4c0.8-0.5,1.8-1,2.8-1.2c-0.2,0.8-0.6,1.5-1,2.2
		c-0.5,0.9-1.4,1.7-2.2,2.3c-0.9,0.6-1.8,1.2-2.7,1.7C40.3,53.3,40.4,53.1,40.5,52.9L40.5,52.9z M46.4,48.6c0.2-0.3,0.3-0.7,0.4-1
		c0.5-1.2,1.7-2,2.8-2.6l0.6-0.2c0.9-0.4,1.9-0.7,2.9-0.8c-0.4,0.7-0.8,1.4-1.3,2c-0.7,0.9-1.6,1.4-2.6,1.9c-0.9,0.5-1.9,0.9-3,1.2
		C46.3,49,46.4,48.8,46.4,48.6L46.4,48.6z M53,45.2c0.2-0.3,0.3-0.6,0.5-0.9c0.6-1.2,2-1.8,3.2-2.2l0.6-0.2c0.9-0.2,2-0.4,3-0.4
		c-0.4,0.7-1,1.3-1.6,1.9c-0.8,0.7-1.8,1.2-2.8,1.5c-1,0.4-2.1,0.6-3.1,0.8C52.8,45.5,52.9,45.4,53,45.2L53,45.2z M25.2,99.5
		c0.1-0.2,0.2-0.4,0.3-0.6c0.5,0.9,0.9,1.9,1.3,2.9c0.3,1,0.6,2,0.5,3.1c-0.1,0.8-0.2,1.6-0.5,2.3c-0.6-0.7-1.1-1.6-1.5-2.5
		l-0.2-0.5c-0.4-1.2-0.7-2.6-0.2-3.7C25,100.2,25.1,99.9,25.2,99.5L25.2,99.5z M27.7,106.3c0.1-0.2,0.1-0.4,0.2-0.6
		c0.6,0.8,1.2,1.7,1.8,2.6c0.4,0.9,0.9,1.9,1,3c0,0.8,0,1.6-0.1,2.4c-0.7-0.6-1.4-1.4-1.9-2.2l-0.3-0.5c-0.6-1.1-1.2-2.4-0.8-3.7
		C27.5,107,27.6,106.7,27.7,106.3L27.7,106.3z M31.2,112.7c0-0.2,0.1-0.4,0.1-0.6c0.8,0.7,1.5,1.5,2.2,2.4c0.6,0.8,1.2,1.7,1.5,2.7
		c0.1,0.8,0.2,1.6,0.2,2.4c-0.9-0.5-1.6-1.2-2.3-1.9l-0.4-0.5c-0.7-0.9-1.5-2.2-1.4-3.4L31.2,112.7L31.2,112.7z M35.7,118.5
		c0-0.2,0-0.4,0-0.7c0.9,0.6,1.7,1.3,2.5,2c0.8,0.8,1.5,1.6,1.9,2.6c0.3,0.7,0.5,1.5,0.6,2.3c-0.9-0.4-1.8-0.9-2.5-1.6l-0.5-0.4
		c-0.9-0.9-1.9-2-1.9-3.3C35.7,119.1,35.7,118.8,35.7,118.5L35.7,118.5z M41,123.6c-0.1-0.2-0.1-0.4-0.1-0.7
		c0.9,0.5,1.9,1.1,2.7,1.7s1.7,1.3,2.3,2.2c0.4,0.7,0.7,1.5,1,2.2c-1-0.3-1.9-0.7-2.8-1.2l-0.5-0.4c-1-0.7-2.1-1.7-2.4-2.9
		C41.1,124.2,41.1,123.9,41,123.6L41,123.6z M47,127.8c-0.1-0.2-0.1-0.4-0.2-0.6c1,0.3,2,0.7,2.9,1.2c1,0.5,1.9,1.1,2.6,1.9
		c0.4,0.6,0.9,1.3,1.2,2c-1-0.1-1.9-0.4-2.9-0.8l-0.5-0.2c-1.2-0.6-2.4-1.4-2.9-2.6C47.3,128.4,47.2,128.1,47,127.8L47,127.8z
		 M53.7,131.2c-0.1-0.2-0.2-0.4-0.3-0.6c1.1,0.2,2.1,0.4,3.2,0.8c1,0.4,2.1,0.8,2.9,1.5c0.6,0.6,1.1,1.2,1.6,1.9c-1,0-2-0.1-3-0.4
		l-0.5-0.2c-1.2-0.4-2.6-1-3.2-2.1C54,131.7,53.8,131.4,53.7,131.2L53.7,131.2z M119.5,76.5c-0.1,0.2-0.2,0.4-0.2,0.6
		c-0.6-0.9-1-1.8-1.4-2.8c-0.3-1-0.7-2.1-0.5-3.1c0.1-0.8,0.2-1.6,0.5-2.4c0.6,0.7,1.1,1.6,1.6,2.5l0.2,0.5c0.4,1.2,0.8,2.6,0.3,3.7
		C119.8,75.8,119.7,76.2,119.5,76.5L119.5,76.5z M117.1,69.6c0,0.2-0.1,0.4-0.2,0.6c-0.6-0.8-1.2-1.7-1.7-2.6c-0.5-0.9-1-1.9-1.1-3
		c0-0.8,0-1.6,0.2-2.4c0.7,0.6,1.4,1.4,1.9,2.2l0.3,0.5c0.6,1.1,1.2,2.4,0.8,3.6C117.2,69,117.1,69.3,117.1,69.6L117.1,69.6z
		 M113.5,63.3c0,0.2-0.1,0.4-0.1,0.6c-0.8-0.7-1.5-1.5-2.1-2.3c-0.6-0.9-1.2-1.8-1.5-2.8c-0.1-0.8-0.2-1.6-0.2-2.4
		c0.9,0.5,1.6,1.2,2.3,1.9l0.4,0.5c0.7,1,1.5,2.2,1.4,3.5L113.5,63.3L113.5,63.3z M109.1,57.5c0,0.2,0,0.4,0,0.6
		c-0.9-0.6-1.7-1.2-2.5-2c-0.7-0.7-1.5-1.6-1.9-2.5c-0.3-0.8-0.5-1.6-0.6-2.4c0.9,0.4,1.8,1,2.5,1.6l0.5,0.4c0.9,0.9,1.8,2,1.9,3.3
		C109,56.8,109.1,57.2,109.1,57.5L109.1,57.5z M103.7,52.4c0.1,0.2,0.1,0.4,0.1,0.6c-0.9-0.4-1.9-1-2.7-1.6
		c-0.9-0.6-1.7-1.3-2.3-2.2c-0.4-0.7-0.7-1.4-0.9-2.2c1,0.2,1.9,0.7,2.7,1.2l0.5,0.3c1,0.7,2.1,1.7,2.4,2.9
		C103.6,51.8,103.7,52.1,103.7,52.4L103.7,52.4z M97.7,48.2l0.2,0.6c-1.1-0.3-2.1-0.7-3-1.2c-1-0.5-1.9-1.1-2.6-1.9
		c-0.5-0.7-1-1.4-1.3-2.1c1,0.1,2,0.4,2.9,0.8l0.6,0.2c1.1,0.6,2.4,1.4,2.8,2.6C97.5,47.5,97.6,47.9,97.7,48.2L97.7,48.2z
		 M91.1,44.9c0.1,0.1,0.2,0.3,0.3,0.5c-1.1-0.2-2.1-0.4-3.1-0.8c-1-0.3-2.1-0.8-2.9-1.5c-0.6-0.5-1.1-1.2-1.6-1.8
		c1-0.1,2.1,0.1,3,0.4l0.6,0.2c1.2,0.4,2.6,1,3.2,2.1C90.7,44.2,90.9,44.5,91.1,44.9L91.1,44.9z M119.8,99c0.2,0.3,0.3,0.7,0.4,1
		c0.5,1.1,0.2,2.6-0.2,3.7l-0.2,0.6c-0.4,0.9-0.9,1.7-1.5,2.4c-0.3-0.7-0.5-1.5-0.6-2.3c-0.1-1.1,0.2-2.1,0.5-3.1
		c0.4-1,0.8-1.9,1.3-2.9C119.6,98.6,119.7,98.8,119.8,99L119.8,99z M117.4,105.8c0.1,0.3,0.2,0.6,0.2,1c0.4,1.2-0.2,2.6-0.7,3.6
		l-0.3,0.5c-0.5,0.8-1.1,1.6-1.9,2.2c-0.1-0.8-0.2-1.6-0.1-2.4c0.1-1.1,0.5-2.1,1-3c0.5-0.9,1-1.8,1.7-2.6
		C117.3,105.4,117.4,105.6,117.4,105.8L117.4,105.8z M114,112.2c0.1,0.4,0.1,0.7,0.1,1c0.2,1.3-0.6,2.5-1.4,3.5l-0.3,0.5
		c-0.7,0.7-1.4,1.4-2.2,1.9c0-0.7,0.1-1.6,0.2-2.4c0.2-1,0.8-1.9,1.4-2.7c0.6-0.9,1.3-1.7,2.1-2.4C113.9,111.8,113.9,112,114,112.2
		L114,112.2z M109.6,118c0,0.3-0.1,0.7-0.1,1c-0.1,1.3-1,2.4-1.9,3.3l-0.4,0.4c-0.8,0.6-1.6,1.2-2.5,1.6c0.1-0.8,0.3-1.6,0.6-2.3
		c0.4-1,1.1-1.8,1.9-2.6c0.7-0.7,1.6-1.4,2.5-2C109.6,117.6,109.6,117.8,109.6,118L109.6,118z M104.3,123.1c-0.1,0.3-0.1,0.7-0.2,1
		c-0.3,1.3-1.4,2.2-2.4,3l-0.5,0.3c-0.8,0.5-1.8,1-2.7,1.2c0.2-0.8,0.5-1.6,0.9-2.2c0.5-0.9,1.4-1.6,2.2-2.3
		c0.9-0.6,1.8-1.2,2.7-1.6C104.4,122.7,104.4,122.9,104.3,123.1L104.3,123.1z M98.3,127.5c-0.1,0.3-0.3,0.6-0.4,0.9
		c-0.4,1.2-1.7,2-2.8,2.6l-0.6,0.2c-0.9,0.4-1.9,0.7-2.9,0.8c0.4-0.7,0.8-1.4,1.3-2.1c0.7-0.8,1.6-1.4,2.6-1.9
		c0.9-0.5,1.9-0.9,3-1.2C98.5,127,98.4,127.2,98.3,127.5L98.3,127.5z M91.7,130.8c-0.1,0.3-0.3,0.6-0.5,0.9c-0.6,1.1-2,1.8-3.2,2.2
		l-0.6,0.1c-1,0.2-2,0.4-3,0.4c0.5-0.6,1-1.3,1.6-1.8c0.8-0.7,1.8-1.2,2.8-1.6c1.1-0.3,2.1-0.6,3.2-0.8
		C91.9,130.4,91.8,130.6,91.7,130.8L91.7,130.8z M74.3,40.1h0.1c0.1,0,0.2,0,0.2,0v2.5c-0.1,0-0.1,0-0.2,0h-0.1V40.1L74.3,40.1z
		 M70.5,40.1v2.5c-0.1,0-0.1,0-0.2,0c-0.1,0-0.1,0-0.2,0v-2.5h0.2C70.4,40.1,70.4,40.1,70.5,40.1L70.5,40.1z M74.3,133.4h0.1h0.2
		v2.5h-0.2h-0.1V133.4L74.3,133.4z M70.5,133.4v2.5h-0.2h-0.2v-2.5h0.2H70.5L70.5,133.4z M122.1,89.8L122.1,89.8v0.3h-2.5v-0.2v-0.1
		H122.1L122.1,89.8z M122.1,86.1h-2.5v-0.2v-0.1h2.5v0.1V86.1L122.1,86.1z M25,89.8L25,89.8v0.3h-2.5v-0.2v-0.1H25L25,89.8z
		 M25,86.1h-2.5v-0.2v-0.1H25v0.1V86.1L25,86.1z M50.8,71l-3.3,1.4l-0.3-5.6L50.8,71L50.8,71z M63.2,114.9l2,1l1.1,3.2l-2-1
		L63.2,114.9L63.2,114.9z M60.4,106.9l2,0.9l1.1,3.2l-2-1L60.4,106.9L60.4,106.9z M57.6,98.8l2.1,1l1.1,3.1l-2-0.9L57.6,98.8
		L57.6,98.8z M54.8,90.6l2,1l1.1,3.2l-2-0.9L54.8,90.6L54.8,90.6z M52,82.5l2,1l1.1,3.2l-2-1L52,82.5L52,82.5z M49.3,74.4l2,1
		l1.1,3.2l-1.9-1L49.3,74.4L49.3,74.4z M82.6,73.1c4.4-3.4,6.6-4.5,12.3-5.9c0,1,0.1,1.9,0.1,2.8c-5.5,1.3-7.8,2.4-12.6,5.8
		C82.3,75.9,82.4,74.5,82.6,73.1L82.6,73.1z M82,79.2c4.4-3.4,7.6-4.6,13.1-6c0.1,0.9,0.2,1.8,0.3,2.7c-5.4,1.2-8.7,2.6-13.4,6V79.2
		L82,79.2z M81.9,84.7c4.6-3.2,8.3-4.8,14-6.3l0.1,0.4c0.1,0.9,0.3,1.7,0.5,2.6c-5.6,1.3-9.4,2.9-14.2,6.4
		C82,86.7,81.8,85.8,81.9,84.7L81.9,84.7z M82.6,91.1c4.3-3.3,8.8-5.3,14.6-6.8l0.9,2.9c-5.5,1.2-10.2,3.3-15,6.8L82.6,91.1
		L82.6,91.1z M84.7,99.4c-0.3-0.9-0.6-1.7-0.9-2.6c4.4-3.3,9.3-5.7,15.3-7.2l0,0.1c0.3,0.8,0.7,1.5,1,2.2
		C94.9,93.5,89.7,96.1,84.7,99.4L84.7,99.4z M74.1,102.1c2.9-1.3,6-2.7,8.5-2.6l0.2,0.7c-2.8,1.7-5.9,3.5-9,5.1
		C73.7,104.4,73.9,103.2,74.1,102.1L74.1,102.1z M74.5,108c9.9-3.4,17.2-9.6,26.8-13.7c0.5,0.8,0.9,1.6,1.4,2.4
		c-6.7,3.2-11.2,5.7-19.1,10.6C79.7,109.8,75.4,110,74.5,108L74.5,108z M62.9,101.9c5.3-3.7,13.6-8.8,19.4-6.9
		c0.2,0.8,0.5,1.7,0.7,2.5c-4.7-2.1-13.3,2.1-19.7,6.9L62.9,101.9L62.9,101.9z M61.4,96.5c5.3-4,14.3-8.2,20.1-5.7
		c0.1,0.7,0.2,1.5,0.4,2.2c-4.3-2.2-13.8,1.4-19.8,5.8L61.4,96.5L61.4,96.5z M59.8,91.5c5.3-4.3,14.8-8.5,21.3-5.9
		c0,0.8,0.1,1.7,0.1,2.6c-4.6-2.4-14.5,0.9-20.8,5.5L59.8,91.5L59.8,91.5z M74.6,129.5l-0.2-3.9c0,0-0.3,0.4-0.7,0.6
		c-0.3,0.1-0.6-0.1-0.4-0.6c0.2-0.6,0.7-0.6,1-2c0.1-0.4,0.1-0.8,0.2-1.3c0.1-0.7,1-0.7,1.1,0l0.3,7L74.6,129.5L74.6,129.5z
		 M37.4,93.4l-1.3,0.1L36,92.3l1.3-0.2L37.4,93.4L37.4,93.4z M43.3,107.6l-1.1,0.7l-0.7-1.1l1.1-0.6L43.3,107.6L43.3,107.6z
		 M47.1,115.6l-0.8-0.8c0.4-0.4,0.6-0.7,0.6-1.1c0.1-0.9-1.3-2.4-2.2-2.6c-0.5-0.2-1,0-1.2,0.3c-0.5,0.5-0.1,1.1,0.2,1.6
		c0.9,1.3,1.7,2.4,1.6,3.2c-0.1,1-1.2,1.9-2.4,1.7c-1.5-0.2-3.1-2.1-3.2-3.4c-0.1-0.6,0.2-1.1,0.8-1.7l0.7,0.8
		c-0.3,0.3-0.4,0.7-0.4,1c0,0.7,1.2,2,2,2.3c0.8,0.2,1.4-0.3,1.3-0.9c-0.1-1-2.1-2.9-2.1-4.2c0-1,1.1-2.1,2.5-1.8
		c1.5,0.2,3.5,2.2,3.5,3.7C48,114.3,47.7,115,47.1,115.6L47.1,115.6z M41.3,65.7l-1.2,1.4l2.6,2L42,69.9l-6-4.7l2.5-2.9
		c0.9-1.1,2.1-1.9,3.4-1c1.4,1,1,2.5,0.1,3.5l4,0.2L45.1,66L41.3,65.7L41.3,65.7z M38.9,63.3L37.4,65l1.9,1.6l1.4-1.7
		c0.7-0.9,1.5-1.8,0.4-2.6C40.3,61.6,39.5,62.4,38.9,63.3L38.9,63.3z M34.7,95.7c0,0,2.1-0.5,3.5,1.4c1,1.3,1.4,3.4,0.4,4.7
		c-1.1,1.6-3.9,2.5-5.7,1.3c-1.2-0.8-2.1-2.7-1.9-4.3c0.2-1.9,1.9-2.5,1.9-2.4l0.3,1.1c-1.2,0.6-1.4,1.9-1,3.1
		c0.5,1.4,1.8,2.5,3.8,1.9s2.5-2.2,2-3.7c-0.7-2.3-2.9-1.9-2.9-1.9L34.7,95.7L34.7,95.7z M40,74.7c-1,2.7-3.4,3.3-5.5,2.4
		c-1.8-0.7-3-2.5-2.3-4.7c0.7-2.4,2.9-3.9,5.6-2.8C39.6,70.4,40.9,72.2,40,74.7L40,74.7z M34.9,76.1c1.5,0.6,3.3,0.4,4.1-1.8
		c0.7-1.8-0.3-3.2-1.8-3.7c-2-0.7-3.4,0.3-3.9,1.7C32.7,73.8,33,75.3,34.9,76.1L34.9,76.1z M47.6,63.7l-5.3-5.4l0.8-0.7l5.2,5.5
		L47.6,63.7L47.6,63.7z M49.6,61.5l-4.1-6.3l1.2-0.8l7.6,2.9L50.8,52l0.9-0.6l4.1,6.3l-1.2,0.7L47,55.5l3.5,5.4L49.6,61.5L49.6,61.5
		z M57.9,49.8l2.4,6l-1,0.4l-2.4-6l-2.7,1l-0.4-0.9l6.5-2.4l0.4,0.9L57.9,49.8L57.9,49.8z M63.8,54.5l-1-7.4l1.1-0.2l0.4,3l4.7-0.6
		l-0.4-3l1.1-0.1l0.9,7.4l-1.1,0.1l-0.4-3.4L64.4,51l0.4,3.4L63.8,54.5L63.8,54.5z M72.4,53.8l0.2-7.4h1.1l-0.1,7.5L72.4,53.8
		L72.4,53.8z M74.4,53.6l4.9-6.7l1.2,0.2l2,7.9l-1.1-0.2l-0.6-2.2L77,51.8l-1.4,1.9L74.4,53.6L74.4,53.6z M77.6,51l3,0.5l-0.9-3.4
		L77.6,51L77.6,51z M83.4,55.4l3.1-6.8l1.3,0.6l1.8,7.7l2.7-5.8l1,0.4l-3.1,6.8l-1.3-0.6L87,50l-2.7,5.8L83.4,55.4L83.4,55.4z
		 M100.1,66.7l6.2-4.4l2,2.7c0.9,1.2,1.4,2.5-0.1,3.6c-1.5,1.1-2.7,0.2-3.6-1l-1.3-1.8l-2.6,1.8L100.1,66.7L100.1,66.7z M104,65.2
		l1.1,1.5c0.7,0.9,1.4,1.9,2.6,0.9c0.8-0.7,0.3-1.6-0.3-2.4l-1.2-1.6L104,65.2L104,65.2z M103.6,71.1l8.5,0.5l0.4,1l-5.8,5.8l-0.4-1
		l1.7-1.7l-1.5-3.5l-2.4-0.2L103.6,71.1L103.6,71.1z M107.5,72.3l1.1,2.7l2.5-2.5L107.5,72.3L107.5,72.3z M115.6,84.3l-4.6,0.9
		c-2.5,0.5-3.5-1-3.8-2.6c-0.3-1.7-0.1-3.4,2.6-3.9l4.5-0.8l0.2,1.1l-4.1,0.8c-1.7,0.3-2.5,0.9-2.1,2.7c0.2,1.1,0.9,2.1,3,1.7
		l4.2-0.8L115.6,84.3L115.6,84.3z M107.9,87.4l7.7,0.5l-0.1,1l-6.7-0.4l-0.3,4.5l-1.1-0.1L107.9,87.4L107.9,87.4z M107.2,94l7.6,1.3
		l-0.2,1l-7.6-1.3L107.2,94L107.2,94z M107.9,109.9l-5.7-3.4l0.6-0.9l5.6,3.4l1.6-2.4l0.9,0.5l-3.7,5.7l-0.9-0.5L107.9,109.9
		L107.9,109.9z M101.1,108.4l3.2,7.7l-0.8,0.8l-8-2.6l0.7-0.8l2.3,0.8l2.6-2.8l-0.9-2.2L101.1,108.4L101.1,108.4z M101.6,112.4
		l-2.1,2.2l3.4,1.1L101.6,112.4L101.6,112.4z M63.8,126.7l1.4,0.2c0,0.7,0.7,1.6,2.2,1.7c3,0.3,3.1-2.9,3.1-2.9
		c-1,0.9-2.4,1-3.5,0.7c-0.9-0.2-1.9-0.5-2.6-1.5c-0.8-1.1-0.5-2.6,0.9-3.2c1.8-0.9,4.7-0.2,5.9,0.9c1.3,1.3,1.1,4.8-0.6,6.2
		c-1.2,1-3.6,0.9-5.2,0.1C64.2,128.4,63.8,127.4,63.8,126.7L63.8,126.7z M70,123.1c-0.8-0.9-2.7-1.3-3.9-0.7
		c-0.9,0.5-1.2,1.5-0.3,2.4c0.6,0.6,2.1,1.1,3.3,0.8C70.4,125.2,70.8,124,70,123.1L70,123.1z M60.3,127.8l1.1-3.8
		c0,0-0.5,0.3-0.9,0.3c-0.3,0-0.5-0.3-0.2-0.7c0.4-0.5,0.8-0.3,1.6-1.6c0.2-0.3,0.4-0.7,0.6-1.1c0.3-0.6,1.2-0.3,1,0.4l-2,6.8
		L60.3,127.8L60.3,127.8z M80.4,120.3c2.7-0.6,5,1.2,5.4,3.4c0.4,2.4-1.2,4.2-3.1,4.7c-2.6,0.7-4.9-0.9-5.4-3.2
		C76.7,123.1,78.1,120.9,80.4,120.3L80.4,120.3z M80.8,121.2c-1.7,0.3-2.8,2-2.4,3.7c0.4,1.8,2,2.9,3.7,2.7c1.7-0.3,2.8-2,2.5-3.7
		C84.2,122.1,82.5,120.9,80.8,121.2L80.8,121.2z M49.5,122.6l2.3-2l-1.2-2.7l2.6,1.4l2.2-1.9l-0.7,2.8l2.6,1.5l-3,0.4l-0.6,2.9
		l-1.2-2.7L49.5,122.6L49.5,122.6z M96.4,122l-3-0.3l-1.2,2.7l-0.7-2.9l-3-0.4l2.6-1.5l-0.6-2.8l2.2,1.9l2.6-1.5l-1.2,2.7L96.4,122
		L96.4,122z M34.9,79c0,0,2.1,0.5,2.6,2.8c0.3,1.7-0.3,3.6-1.7,4.4c-1.7,0.9-4.6,0.5-5.7-1.4c-0.8-1.3-0.7-3.3,0.2-4.7
		c1.1-1.6,2.8-1.3,2.8-1.3l-0.2,1.1c-1.4,0-2.1,1.1-2.3,2.3c-0.2,1.5,0.4,3,2.5,3.4c2,0.4,3.2-0.8,3.5-2.4c0.4-2.4-1.8-3-1.7-3
		L34.9,79L34.9,79z M93,56.9l0.9,0.7c-0.3,0.4-0.4,0.8-0.4,1.2c0.1,0.9,1.6,2.2,2.5,2.3c0.5,0.1,1-0.2,1.2-0.5
		c0.4-0.6,0-1.1-0.4-1.6c-1.1-1.1-2-2.1-2.1-3c-0.1-1,0.9-2.1,2.1-2c1.5,0,3.4,1.6,3.7,2.9c0.1,0.6-0.1,1.2-0.6,1.7l-0.8-0.7
		c0.2-0.3,0.3-0.7,0.3-1.1c-0.1-0.7-1.5-1.8-2.3-1.9c-0.8-0.1-1.3,0.5-1.2,1c0.2,0.9,2.5,2.6,2.7,3.9c0.2,1-0.8,2.2-2.2,2.2
		c-1.5,0-3.7-1.7-4-3.2C92.3,58.2,92.5,57.6,93,56.9L93,56.9z M109.2,97.1l-0.3,1.1c-0.5-0.1-0.9-0.1-1.3,0
		c-0.9,0.4-1.5,2.2-1.3,3.1c0.1,0.5,0.5,0.8,0.8,0.9c0.7,0.2,1-0.4,1.3-1c0.7-1.4,1.3-2.6,2.1-3c0.9-0.4,2.2,0.2,2.6,1.3
		c0.5,1.4-0.4,3.8-1.5,4.5c-0.5,0.3-1.1,0.3-1.9,0.1l0.4-1c0.4,0.1,0.8,0.1,1.1-0.1c0.6-0.3,1.2-2.1,1.1-2.9
		c-0.2-0.8-0.9-1.1-1.4-0.8c-0.8,0.5-1.6,3.2-2.7,3.9c-0.9,0.5-2.3,0-2.8-1.3c-0.5-1.4,0.3-4.1,1.7-4.8
		C107.7,96.9,108.4,96.9,109.2,97.1L109.2,97.1z M77.5,39.7c0,0.1,0.1,0.2,0.2,0.2v2.8c-0.1,0.1-0.2,0.2-0.2,0.2
		c0,0.1,0.1,0.2,0.2,0.3v0.5c0,1.5-2.4,1.5-2.4,0v-3.7l1,1.1c0.2,0.2,0.4,0.4,0.7,0.2c0.2-0.1,0.2-0.4,0.1-0.6l-1.7-2.4v-1.7
		c0-1.6,2.4-1.6,2.4,0v2.8C77.6,39.5,77.5,39.6,77.5,39.7L77.5,39.7z M73.4,39.7c0,0.1,0.1,0.2,0.2,0.2v2.8
		c-0.1,0.1-0.2,0.2-0.2,0.2c0,0.1,0.1,0.2,0.2,0.3v0.5c0,1.5-2.4,1.5-2.4,0v-3.7l1,1.1c0.2,0.2,0.4,0.4,0.6,0.2
		c0.2-0.1,0.2-0.4,0.1-0.6l-1.7-2.4v-1.7c0-1.6,2.4-1.6,2.4,0v2.8C73.5,39.5,73.4,39.6,73.4,39.7L73.4,39.7z M69.3,39.7
		c0,0.1,0.1,0.2,0.2,0.2v2.8c-0.1,0.1-0.2,0.2-0.2,0.2c0,0.1,0.1,0.2,0.2,0.3v0.5c0,1.5-2.4,1.5-2.4,0v-3.7l1,1.1
		c0.2,0.2,0.4,0.4,0.7,0.2c0.2-0.1,0.2-0.4,0.1-0.6l-1.7-2.4v-1.7c0-1.6,2.4-1.6,2.4,0v2.8C69.3,39.5,69.3,39.6,69.3,39.7L69.3,39.7
		z M23.5,84.9c-0.1,0-0.2,0.1-0.3,0.2h-2.9c-0.1-0.1-0.2-0.2-0.3-0.2c-0.1,0-0.2,0.1-0.3,0.2h-0.6c-1.6,0-1.6-2.3,0-2.3h3.9l-1.1,1
		c-0.2,0.2-0.4,0.4-0.2,0.6c0.2,0.2,0.4,0.2,0.7,0.1l2.5-1.7h1.8c1.6,0,1.6,2.3-0.1,2.3h-2.9C23.7,85,23.6,84.9,23.5,84.9L23.5,84.9
		z M23.5,88.9c-0.1,0-0.2,0.1-0.3,0.2h-2.9c-0.1-0.1-0.2-0.2-0.3-0.2c-0.1,0-0.2,0.1-0.3,0.2h-0.6c-1.6,0-1.6-2.3,0-2.3h3.9l-1.1,1
		c-0.2,0.2-0.4,0.4-0.2,0.6c0.2,0.2,0.4,0.2,0.7,0.1l2.5-1.7h1.8c1.6,0,1.6,2.3-0.1,2.3h-2.9C23.7,89,23.6,88.9,23.5,88.9L23.5,88.9
		z M23.5,93c-0.1,0-0.2,0.1-0.3,0.2h-2.9C20.2,93.1,20.1,93,20,93c-0.1,0-0.2,0.1-0.3,0.2h-0.6c-1.6,0-1.6-2.3,0-2.3h3.9l-1.1,1
		c-0.2,0.2-0.4,0.4-0.2,0.6c0.2,0.2,0.4,0.2,0.7,0.1l2.5-1.7h1.8c1.6,0,1.6,2.3-0.1,2.3h-2.9C23.7,93.1,23.6,93,23.5,93L23.5,93z
		 M122.4,84.9c-0.1,0-0.2,0.1-0.3,0.2h-2.9c-0.1-0.1-0.2-0.2-0.3-0.2c-0.1,0-0.2,0.1-0.3,0.2h-0.5c-1.6,0-1.6-2.3,0-2.3h3.9l-1.1,1
		c-0.2,0.2-0.4,0.4-0.2,0.6c0.2,0.2,0.4,0.2,0.7,0.1l2.5-1.7h1.7c1.6,0,1.6,2.3,0,2.3h-2.9C122.6,85,122.5,84.9,122.4,84.9
		L122.4,84.9z M122.4,88.9c-0.1,0-0.2,0.1-0.3,0.2h-2.9c-0.1-0.1-0.2-0.2-0.3-0.2c-0.1,0-0.2,0.1-0.3,0.2h-0.5c-1.6,0-1.6-2.3,0-2.3
		h3.9l-1.1,1c-0.2,0.2-0.4,0.4-0.2,0.6c0.2,0.2,0.4,0.2,0.7,0.1l2.5-1.7h1.7c1.6,0,1.6,2.3,0,2.3h-2.9
		C122.6,89,122.5,88.9,122.4,88.9L122.4,88.9z M122.4,93c-0.1,0-0.2,0.1-0.3,0.2h-2.9c-0.1-0.1-0.2-0.2-0.3-0.2
		c-0.1,0-0.2,0.1-0.3,0.2h-0.5c-1.6,0-1.6-2.3,0-2.3h3.9l-1.1,1c-0.2,0.2-0.4,0.4-0.2,0.6c0.2,0.2,0.4,0.2,0.7,0.1l2.5-1.7h1.7
		c1.6,0,1.6,2.3,0,2.3h-2.9C122.6,93.1,122.5,93,122.4,93L122.4,93z M77.5,135.2c0,0.1,0.1,0.2,0.2,0.3v2.8
		c-0.1,0.1-0.2,0.2-0.2,0.3c0,0.1,0.1,0.2,0.2,0.2v0.5c0,1.5-2.4,1.5-2.4,0v-3.7l1,1.1c0.2,0.2,0.4,0.3,0.7,0.2
		c0.2-0.2,0.2-0.4,0.1-0.7l-1.7-2.4v-1.7c0-1.6,2.4-1.6,2.4,0v2.8C77.6,135,77.5,135.2,77.5,135.2L77.5,135.2z M73.4,135.2
		c0,0.1,0.1,0.2,0.2,0.3v2.8c-0.1,0.1-0.2,0.2-0.2,0.3c0,0.1,0.1,0.2,0.2,0.2v0.5c0,1.5-2.4,1.5-2.4,0v-3.7l1,1.1
		c0.2,0.2,0.4,0.3,0.6,0.2c0.2-0.2,0.2-0.4,0.1-0.7l-1.7-2.4v-1.7c0-1.6,2.4-1.6,2.4,0v2.8C73.5,135,73.4,135.2,73.4,135.2h-4.2
		c0,0.1,0.1,0.2,0.2,0.3v2.8c-0.1,0.1-0.2,0.2-0.2,0.3c0,0.1,0.1,0.2,0.2,0.2v0.5c0,1.5-2.4,1.5-2.4,0v-3.7l1,1.1
		c0.2,0.2,0.4,0.3,0.7,0.2c0.2-0.2,0.2-0.4,0.1-0.7l-1.7-2.4v-1.7c0-1.6,2.4-1.6,2.4,0v2.8c-0.1,0.1-0.2,0.2-0.2,0.3H73.4
		L73.4,135.2z"/>
	<path style="fill-rule:evenodd;clip-rule:evenodd;fill:#ED1C24;" d="M39.7,125.1l-11.1,11.8c-0.4-0.4-0.8-0.8-1.2-1.2l10.9-11.5
		c-0.4-0.3-0.8-0.6-1.2-0.9l-10.8,11.3c-4.1-4.4-6.7-9.3-8.7-14.2c1.8-1.1,4.6-1.8,7-2.2c-8.6-4.3-16.5-10.9-20.2-17.4
		c-2.7,9.8-1.9,20.3,2.5,30.8c1-2.2,1.7-5,3.9-6.4c3.1,5.7,6.4,10.7,10,15.1l-10,10.4c-2.9,3.1,1.1,6,4,2.9l9-9.7
		c6.1,6.7,13,11.5,21,14.6c6.9,2.7,12.2,3.5,16.4,5.7c4.5,2.4,8.9,6.3,10.8,11.5c1.9-5.2,6.3-9.1,10.8-11.5c4.2-2.3,9.5-3,16.4-5.7
		c8-3.1,14.9-8,21.1-14.6l9,9.7c2.9,3.1,7,0.3,4.1-2.9l-10-10.4c3.5-4.4,6.8-9.4,10-15.1c2.2,1.4,2.9,4.3,3.9,6.4
		c4.3-10.6,5.2-21,2.5-30.8c-3.7,6.5-11.5,13.1-20.2,17.4c2.4,0.4,5.3,1.1,7,2.2c-2,4.8-4.6,9.7-8.7,14.2l-10.8-11.3
		c-0.4,0.3-0.8,0.6-1.3,0.9l11,11.5c-0.4,0.4-0.8,0.8-1.1,1.1L104.9,125c-0.1,0-0.2,0.1-0.3,0.1c-0.1,0.3-0.3,0.5-0.5,0.8l11,11.8
		c-5.5,4.7-13.2,8.5-24.5,10.5c-6,1.1-11.9-2.9-14-7.1c0,0-0.1,0-0.1,0c-1,0-1.9-0.8-1.9-1.8v-1.2h-0.3v1.2c0,1-0.9,1.8-1.9,1.8
		c-1.1,0-1.9-0.8-1.9-1.8v-1.2h-0.4v1.2c0,1-0.8,1.8-1.9,1.8c0,0-0.1,0-0.1,0c-2.1,4.2-8,8.2-14,7.1c-11.2-2-18.9-5.9-24.4-10.5
		l11.1-12c-0.1-0.1-0.1-0.2-0.1-0.2C40.4,125.4,40.1,125.2,39.7,125.1L39.7,125.1z M22.2,141.5c0.4,0.5,0.7,0.9,1.1,1.3l-8.8,9.3
		c-0.9,1-2.4,0-1.2-1.2L22.2,141.5L22.2,141.5z M19.1,129.9c6.5,9.6,15,16.9,21,20.1c8.4,4.5,18.2,7,24,6.9c4.4-0.1,7.1-6.5,8.3-9.8
		v21.2c-1-3-4.3-9.1-8-9.7c-2.1-0.3-14.8-1.2-26.2-7.7c-6.2-3.6-13.4-9.4-20.9-20.2c-2.2-3.1-4.1-6.2-5.6-9
		c-0.3-0.6-0.7-0.7-1.2-0.3c-0.7,0.6-1.8,2.2-2.8,4.3c-0.2,0.6-0.7,0.4-0.5-0.2c2-5.3,2.1-10.2-0.5-16.6c-0.6-1.4,0-1.7,0.6-0.3
		c2.6,5.7,3.4,8,11.8,8.7c0.9,0.1,0.8,0.6-0.1,0.7c-1.1,0.1-3.5,0.2-4.8,0.9c-0.7,0.4-1,0.9-0.5,1.9C15.2,123.6,17,126.7,19.1,129.9
		L19.1,129.9z M131.4,120.2c0.7-1.9-4-2.1-5.6-2.2c-1.2-0.1-0.7-0.6-0.3-0.6c8.7-0.7,9.4-3,12.1-8.8c0.7-1.5,1.2-1.2,0.6,0.2
		c-2.6,6.4-2.5,11.3-0.5,16.7c0.2,0.5-0.4,0.6-0.5,0.4c-1.7-3.6-3.4-5.7-3.9-4.4c-0.9,2.1-5,8.5-8,12.6
		c-7.4,9.7-18.7,19.9-36.2,23.3c-4.2,0.8-9.4,1.4-11,1.3c-1.9-0.1-2-1.1-0.2-1.4c1.6-0.3,5.2-0.3,11-1.4
		c17.2-3.5,27.9-13.4,34.8-22.8C126.7,128.7,130.7,122.1,131.4,120.2l-8.6,21.3l9,9.4c1.1,1.2-0.3,2.2-1.2,1.2l-8.8-9.3
		c0.3-0.4,0.7-0.8,1.1-1.2L131.4,120.2L131.4,120.2z"/>
	<path style="fill-rule:evenodd;clip-rule:evenodd;fill:#ED1C24;" d="M35.4,54.6c0.7-1,1.6-1.9,2.7-2.6c-1.8-3.6,0-10.4-3.5-14.7
		L17.8,15.7C11.2,20.2,5.3,25.4,0,31.4l20.7,18.4C24.8,53.4,31.2,50.3,35.4,54.6L35.4,54.6z M19.9,34.9c4.7,4.6,10.7,8.8,13.8,8.1
		c-0.1,3.5,0.7,6.7,3.2,9.6c-3.4-2.1-6.9-3.8-10.5-3.8C27.3,45.4,23.5,39.7,19.9,34.9L19.9,34.9z M7.7,36.8c-0.8-0.7,0-1.6,0.7-0.9
		L21.9,48c1.1,1,1.8,1.1,2.8,1.3c1.3,0.4,1.8,0.9,0.7,0.9c-2.4,0.1-3.6-0.8-4.5-1.6L7.7,36.8L7.7,36.8z M106.7,52
		c1.1,0.8,2,1.8,2.5,2.7l0.1,0c4.2-4.5,10.8-1.3,14.8-4.9l20.7-18.4c-5.3-6-11.2-11.2-17.8-15.7l-17,21.5
		C106.7,41.6,108.5,48.3,106.7,52L106.7,52z M121.2,24.5c0.6-0.8,1.5-0.1,0.9,0.6l-10.9,13.7c-0.6,0.7-0.8,1.4-0.9,2.2
		c-0.3,1.5-0.7,2.1-0.8,0.8c-0.1-1.3-0.2-2.5,1.1-4.1L121.2,24.5L121.2,24.5z M125,34.9c-3.7,4.8-7.5,10.4-6.5,13.9
		c-3.7,0-7.2,1.7-10.5,3.8c2.5-2.9,3.2-6.1,3.2-9.6C114.3,43.7,120.2,39.5,125,34.9L125,34.9z M66.3,37.8v-1.3c0-1,0.9-1.8,1.9-1.8
		c1.1,0,1.9,0.8,1.9,1.8v2.1c0.1,0,0.2,0,0.4,0v-2.1c0-1,0.8-1.8,1.9-1.8c1,0,1.9,0.8,1.9,1.8v2.2c0.1,0,0.2,0,0.3,0v-2.2
		c0-1,0.9-1.8,1.9-1.8c1.1,0,1.9,0.8,1.9,1.8v1.6c4.1-1,7.7-2.9,11.6-6.1v-7.5c-3.9-2.1-7.8-3.3-11.6-4c3.1-2,5.2-5.4,5.2-9.4
		C83.7,5,78.7,0,72.4,0c-6.2,0-11.2,5-11.2,11.1c0,3.9,2.1,7.4,5.2,9.4c-3.9,0.7-7.8,2.1-11.9,4V32C58.4,34.8,62.6,36.8,66.3,37.8
		L66.3,37.8z M72.3,5.9c2.9,0,5.3,2.3,5.3,5.2s-2.4,5.2-5.3,5.2c-2.9,0-5.3-2.4-5.3-5.2S69.4,5.9,72.3,5.9L72.3,5.9z M65.6,6.7
		c-1.4,2-2,4.8-0.8,7.6c0.4,1-1.1,1.8-1.5,0.8c-1.6-3.3-1.3-6.8,1.1-9.7C65,4.5,66.3,5.6,65.6,6.7L65.6,6.7z M78.5,9.1
		C77.9,8,79,7.3,79.7,8.2c1.7,2.5,1.4,5-0.5,7c-0.6,0.6-1.8,0.1-1.3-0.6C79.3,12.8,79.5,10.8,78.5,9.1L78.5,9.1z M87.9,24.8
		c0.4,0,0.8,0.3,0.8,0.7c0,0.4-0.4,0.7-0.8,0.7h-28c-0.6,0-1.2,0.5-1.6,1.1c-0.6,0.9-0.7,1.7-0.8,2.1c-0.1,0.7-1.2,0.6-1.2-0.1v-3.9
		c0-0.5,0.5-0.7,0.9-0.7H87.9v6.2c0.4,0,0.8,0.3,0.8,0.7s-0.4,0.7-0.8,0.7H57.2c-0.5,0-0.9-0.4-0.9-0.7s0.4-0.7,0.9-0.7h30.7V24.8
		L87.9,24.8z"/>
	<path style="fill-rule:evenodd;clip-rule:evenodd;fill:#ED1C24;" d="M71.8,64.8c-7.4,1.6-14.1,4.7-20.7,8.9
		c2.2,4.4,4.2,8.6,5.9,12.8c5.4-3.5,11.3-6.7,17.7-7.3C73.3,74.4,72.3,69.8,71.8,64.8L71.8,64.8z M63.1,69.5c3.5,0,6.3,2.4,6.3,5.5
		c0,3-2.8,5.5-6.3,5.5c-3.5,0-6.3-2.5-6.3-5.5C56.8,71.9,59.6,69.5,63.1,69.5L63.1,69.5z"/>
	<path style="fill-rule:evenodd;clip-rule:evenodd;fill:#F4E21C;" d="M54.1,76.1l0.8-1.1l1.4,0.5l-0.9-1.2l0.9-1.1l-1.4,0.4
		l-0.8-1.1l0,1.3l-1.4,0.4l1.4,0.5V76.1L54.1,76.1z M57.8,84.2l0.7-1l1.2,0.4l-0.7-1l0.7-1L58.5,82l-0.7-1v1.2l-1.2,0.4l1.2,0.4
		L57.8,84.2L57.8,84.2z M70.9,78.8l0.8-1l1.2,0.4l-0.7-1l0.7-1l-1.2,0.4l-0.7-1l0,1.2l-1.2,0.3l1.2,0.4L70.9,78.8L69,69.9l0.8-1.1
		l1.4,0.5l-0.8-1.2l0.8-1.1l-1.4,0.4L69,66.3L69,67.7l-1.3,0.4l1.3,0.5v1.4L70.9,78.8L70.9,78.8z"/>
	<path style="fill-rule:evenodd;clip-rule:evenodd;fill:#474288;" d="M63.9,72.2c0-0.1-0.1-0.1-0.2,0c-0.1,0-0.1,0.1-0.1,0.1
		c0,0-0.1,0-0.1,0c-0.1,0-0.1,0-0.1,0.1c0,0.1,0,0.1,0,0.1c0,0.2,0.1,0.2,0.2,0.1c0,0,0.1,0,0.1,0c0,0,0.1-0.1,0.1-0.1
		c0,0,0.1-0.1,0.1-0.1C63.9,72.3,63.9,72.2,63.9,72.2L63.9,72.2z M63.8,78.8c0.1,0,0.1,0,0.1,0c0.1,0,0.1,0.1,0.1,0.1c0,0,0,0,0,0
		l0,0c0,0,0,0,0.1,0c0.3,0,0.2,0.2,0.4,0.3c0,0.1,0,0.1,0,0.1c0,0,0.1,0,0.1,0c0,0,0-0.1,0-0.1c0-0.1,0.2-0.5,0.2-0.6c0,0,0,0,0,0h0
		c0,0,0,0,0,0c0,0,0,0,0,0.1c0,0,0,0,0,0c0,0,0,0.1-0.1,0.1c0,0,0,0,0,0c0,0,0,0,0,0.1c0,0,0,0,0,0h0c0,0,0,0,0-0.1l0,0
		c0-0.1,0.1-0.1,0.1-0.2c0.1-0.2,0.2-0.7,0.2-0.9v-0.1l0,0c0,0,0-0.1-0.1-0.1c0,0,0,0,0-0.1l0,0c0,0,0,0,0-0.1
		c0-0.3,0.4-0.4,0.6-0.6c0,0,0,0,0,0s0.1-0.1,0.1-0.1c0,0,0,0,0.1,0h0c0,0,0,0,0.1,0c0.5,0,0.7-1.2,0.7-1.7c0-0.1-0.1-0.1-0.1-0.2
		c0-0.2-0.1-0.2-0.1-0.4v-0.1l0,0c0,0,0,0,0.1,0c0.2,0,0.6-1.1,0.6-1.2c0,0,0,0,0-0.1c0,0,0,0,0,0l0,0c0,0,0,0,0,0c0,0,0,0,0-0.1
		c0,0,0,0,0-0.1c0,0,0,0,0,0c0,0,0-0.1,0-0.1c-0.1,0-0.1-0.1-0.1-0.1l0,0l0,0h-0.1c0,0-0.1,0-0.1,0.1c0,0,0,0,0,0h0l0,0
		c-0.1,0-0.1,0-0.1,0c-0.1-0.1-0.2-0.1-0.2-0.1v0c-0.1,0-0.1-0.1-0.1-0.1c0,0-0.1,0-0.1,0c-0.1-0.1-0.4-0.1-0.4-0.1c0,0,0,0,0,0
		c0,0,0,0.1-0.1,0.1l0,0c0,0,0,0,0,0c0,0,0,0-0.1,0l0,0c-0.1,0-0.1,0-0.1,0c0,0,0,0,0,0c0-0.1,0,0,0,0c0,0,0,0,0,0s0,0,0,0
		c0,0,0,0-0.1,0c0,0,0,0,0,0v0c0,0,0,0,0,0h-0.2c-0.1,0-0.2,0.2-0.2,0.1c0,0,0,0,0-0.1h0c0,0,0,0,0,0l0,0c0,0,0,0,0-0.1h0
		c0,0,0,0,0,0c0,0,0,0,0,0c0,0,0,0-0.1,0c0,0-0.1,0-0.1,0s0-0.1,0-0.1h-0.2h-0.3c-0.1,0-0.1,0.1-0.2,0.2c0,0,0,0,0,0h0v0l0,0l0,0
		c-0.1,0-0.2,0.1-0.2,0.1c0,0-0.1,0-0.2,0c-0.1,0,0-0.1,0-0.1l0,0c0,0-0.1,0-0.1,0v0c0,0,0-0.1,0-0.1v0c0,0,0,0,0,0v0.1
		c0,0-0.1,0.1-0.1,0.1c0,0-0.1,0-0.1,0.1c0,0,0,0,0,0.1c0,0.1,0,0.1,0,0.1c0,0,0,0,0,0c0,0,0,0,0,0c0,0,0,0,0,0c0,0,0,0,0,0.1h0
		c0,0,0,0,0,0c0,0,0,0,0,0c0,0,0,0,0,0c0,0,0,0,0-0.1v-0.1c0,0,0-0.1,0-0.1c0,0,0-0.1,0-0.2l0,0c0,0,0-0.1,0.1-0.1c0,0,0,0,0,0
		c0,0,0,0,0.1,0l0,0v0c0,0,0-0.1,0.1-0.1c0,0,0,0,0-0.1c0-0.1,0-0.1,0-0.1c-0.1-0.1-0.1,0-0.2-0.1c0,0-0.1-0.1-0.1-0.2l0,0
		c0,0,0,0-0.1-0.1c0,0,0,0,0,0c-0.3-0.3-0.1-0.1-0.2,0c0,0,0,0,0,0c0,0.1,0,0.2-0.1,0.3c0,0,0,0,0,0c0-0.1,0,0-0.1,0l0,0
		c0,0,0,0,0,0s0,0,0,0l0,0c0,0,0,0,0,0s0,0,0,0c-0.1,0-0.2,0-0.3,0c0,0,0,0.1-0.1,0.1c0,0,0,0,0,0c0,0,0,0,0,0c0,0,0,0,0,0
		c0,0,0,0,0.1,0c0,0,0,0,0,0c0,0,0,0,0,0.1c0,0,0,0,0,0l0,0c0,0,0,0-0.1,0c-0.1,0-0.1,0-0.2,0.1c0,0,0,0,0,0c0,0,0,0.1-0.1,0.1h0
		c0,0,0,0,0,0c0,0,0,0-0.1,0s-0.1,0-0.1,0c0,0,0,0,0,0v0c0,0,0,0-0.1,0h-0.1c-0.2,0.2-0.3-0.3-0.3-0.3c0.1-0.1,0-0.2-0.1-0.2
		c0,0,0,0,0,0v-0.1c0,0,0-0.1,0-0.1c-0.1,0-0.2,0.2-0.2,0.2c0,0,0,0-0.1,0c0,0,0,0,0,0h0c0,0,0,0,0,0c0,0,0,0,0,0c0,0-0.1,0-0.1,0
		c0,0,0,0,0,0l0,0c0,0,0,0,0,0c0,0.1-0.1,0.1-0.1,0.1h-0.3c0,0,0,0,0,0h0c0,0,0,0,0,0h0v0c0,0,0,0,0,0.1c0,0,0,0,0.1,0
		c0,0,0,0.1,0.1,0.1c0,0,0,0,0,0c0,0,0,0,0.1,0c0.2,0,0.1,0.1,0,0.2c-0.1,0.1-0.1,0.1-0.1,0.1c-0.1,0.1-0.1,0.2-0.2,0.2
		c0,0-0.1,0-0.1,0c0,0,0,0,0,0c0,0,0,0,0,0l0,0h-0.1c-0.1,0-0.1-0.1-0.1-0.1c0,0,0,0,0,0c0,0-0.1,0-0.1,0L59.5,73
		c-0.1,0.1-0.2,0.1-0.3,0.1c0,0,0,0,0,0c0,0,0,0,0,0.1c0,0,0,0,0.1,0c0,0.1,0,0.1,0.1,0c0,0,0.1,0,0.1,0c0,0.1,0,0.1,0,0.1
		c-0.4,0-0.1,0.2-0.1,0.3h0h0.1c0,0,0,0,0,0c0,0,0.1,0,0.1,0.1l0.1,0.7c0,0.1,0,0.1-0.1,0.1c-0.4,0-0.5,0.3-0.5,0.6
		c0,0.1,0,0.1,0,0.1c-0.1,0-0.1,0.2-0.1,0.3c0,0,0.1,0,0.1,0.1c0,0,0.1,0,0.1,0.1c0,0,0,0,0.1,0c0,0,0,0,0,0v0c0,0,0,0,0,0.1l0,0
		c0.1,0,0.2-0.1,0.2,0l0,0h0.1c0.1,0,0.2-0.1,0.3-0.1l0,0c0,0,0,0,0,0c0,0,0,0,0,0.1c0,0.2,0.1,0.1,0.2,0.1c0,0,0,0,0.1,0v0
		c0,0,0,0,0,0c0.1,0,0.4-0.1,0.4-0.2c0,0,0,0,0,0l0,0l0,0c0,0,0,0,0,0c0,0,0,0,0,0c0,0,0-0.1,0.1-0.1c0,0,0,0,0,0
		c0.1-0.1,0.2-0.1,0.3,0c0,0,0,0,0,0c0,0.4,0.9,0.4,1.2,0.4c0.1,0,0.1,0,0.1,0.1c0,0,0,0.1,0,0.1c0,0,0.1,0.1,0.1,0.1c0,0,0,0,0,0.1
		c0,0,0,0.1,0,0.1c-0.1,0.1,0,0.1,0.1,0.2c0.1,0,0.2-0.1,0.3-0.1l0,0v0c0,0,0.1,0,0.1,0.1c0,0-0.1,0.1,0,0.1c0,0.1,0.2,0.1,0.2,0.3
		c0,0,0,0.1,0,0.1c0,0,0.1,0,0.1,0c0,0.1-0.1,0.1,0,0.1s0.1,0,0.1,0v0c0,0,0,0.1-0.1,0.1c0,0,0,0,0,0v0c0,0,0,0,0,0c0,0,0,0,0,0
		l0.1,0.1c0,0,0,0,0,0l0,0c0,0.1,0,0.1,0,0.2c0,0,0,0.1,0.1,0.1c0.1,0,0.2-0.1,0.3-0.1l0.4,0.4c0,0,0,0.1,0,0.1v0.1c0,0,0,0,0,0v0
		c0,0,0,0,0,0v0c0,0,0,0,0.1,0c0.3,0,0.1,0.1,0.1,0.3c0,0,0,0,0,0C63.9,78.3,63.8,78.6,63.8,78.8C63.7,78.8,63.7,78.8,63.8,78.8
		L63.8,78.8z"/>
</g>
</svg>
