<?xml version="1.0" encoding="utf-8"?>
<!-- Generator: Adobe Illustrator 19.1.0, SVG Export Plug-In . SVG Version: 6.00 Build 0)  -->
<svg version="1.1" id="Layer_1" xmlns="http://www.w3.org/2000/svg" xmlns:xlink="http://www.w3.org/1999/xlink" x="0px" y="0px"
	 viewBox="-198.307 310.938 171.369 171.369" style="enable-background:new -198.307 310.938 171.369 171.369;"
	 xml:space="preserve">
<style type="text/css">
	.st0{fill:#305A8A;}
	.st1{fill:#FFFFFF;}
</style>
<g>
	<path class="st0" d="M-112.622,310.938c47.192,0,85.684,38.491,85.684,85.684c0,47.194-38.492,85.685-85.684,85.685
		c-47.193,0-85.685-38.49-85.685-85.685C-198.307,349.429-159.815,310.938-112.622,310.938L-112.622,310.938z"/>
	<path class="st1" d="M-112.622,313.444c45.813,0,83.178,37.365,83.178,83.178s-37.365,83.179-83.178,83.179
		s-83.178-37.366-83.178-83.179S-158.435,313.444-112.622,313.444L-112.622,313.444z"/>
	<path class="st0" d="M-112.622,337.673c32.469,0,58.95,26.481,58.95,58.949s-26.48,58.95-58.95,58.95
		c-32.469,0-58.95-26.482-58.95-58.95S-145.09,337.673-112.622,337.673L-112.622,337.673z"/>
	<path class="st0" d="M-191.372,385.318l16.361,1.431l-1.276,14.584l-3.526-0.309l0.797-9.107l-2.606-0.228l-0.737,8.418
		l-3.484-0.305l0.737-8.419l-3.172-0.277l-0.827,9.45l-3.571-0.312L-191.372,385.318L-191.372,385.318z M-185.553,409.916
		l-0.042,0.01l-0.454,0.062c-0.617,0.143-1.014,0.512-1.199,1.115c-0.186,0.602-0.148,1.463,0.109,2.576
		c0.197,0.852,0.475,1.488,0.835,1.908c0.36,0.42,0.757,0.578,1.19,0.479c0.65-0.148,0.967-1.223,0.947-3.223l-0.007-0.525
		l-0.003-0.557c-0.046-3.166,0.222-5.273,0.802-6.324c0.268-0.488,0.639-0.908,1.113-1.262c0.236-0.168,0.485-0.309,0.748-0.424
		c0.264-0.113,0.569-0.211,0.916-0.291c1.563-0.361,2.918,0.057,4.072,1.254c1.151,1.197,2.037,3.135,2.654,5.809
		c0.611,2.646,0.678,4.697,0.196,6.145c-0.479,1.447-1.524,2.355-3.127,2.727l-0.186,0.041l-1.155-5l0.075-0.018
		c0.542-0.125,0.9-0.475,1.072-1.047c0.086-0.285,0.124-0.619,0.112-0.998c-0.011-0.377-0.076-0.82-0.193-1.326
		c-0.176-0.766-0.412-1.332-0.704-1.695c-0.294-0.361-0.632-0.498-1.016-0.408c-0.658,0.15-0.973,1.373-0.946,3.666l0.022,1.037
		c0.012,1.674-0.029,2.854-0.124,3.543c-0.095,0.688-0.261,1.316-0.494,1.889c-0.268,0.627-0.667,1.154-1.195,1.58
		c-0.53,0.428-1.146,0.721-1.846,0.883c-1.628,0.375-3.053-0.094-4.277-1.406c-1.225-1.312-2.166-3.387-2.82-6.223
		c-0.647-2.805-0.695-4.936-0.143-6.383c0.552-1.449,1.756-2.389,3.614-2.816l0.239-0.057L-185.553,409.916L-185.553,409.916z
		 M-172.139,426.736l-2.979,1.721l1.559,2.699c0.371,0.643,0.768,1.045,1.191,1.209c0.427,0.162,0.893,0.096,1.398-0.195
		c0.484-0.279,0.758-0.648,0.83-1.105c0.07-0.455-0.076-0.998-0.439-1.629L-172.139,426.736L-172.139,426.736z M-186.154,428.451
		l14.224-8.211l5.038,8.727c1.106,1.914,1.569,3.504,1.388,4.764c-0.179,1.262-1.019,2.322-2.517,3.188
		c-1.499,0.865-2.928,1.086-4.29,0.654c-1.364-0.432-2.514-1.459-3.453-3.086l-2.45-4.244l-5.179,2.99L-186.154,428.451
		L-186.154,428.451z M-165.323,445.066c-1.16,1.201-1.761,2.365-1.802,3.49c-0.039,1.129,0.48,2.211,1.559,3.254
		c1.085,1.047,2.192,1.541,3.324,1.484c1.134-0.057,2.262-0.668,3.385-1.83c1.221-1.266,1.873-2.502,1.955-3.715
		c0.08-1.211-0.427-2.346-1.521-3.402c-1.009-0.975-2.119-1.4-3.329-1.281C-162.963,443.189-164.152,443.855-165.323,445.066
		L-165.323,445.066z M-168.071,454.017c-2.344-2.262-3.617-4.502-3.821-6.715c-0.206-2.217,0.664-4.328,2.609-6.342
		c1.881-1.947,3.97-2.826,6.267-2.637c2.297,0.193,4.644,1.445,7.043,3.762c2.371,2.287,3.667,4.562,3.895,6.824
		c0.225,2.262-0.637,4.4-2.585,6.418c-1.902,1.971-3.988,2.846-6.259,2.629C-163.195,457.74-165.578,456.426-168.071,454.017
		L-168.071,454.017z M-143.833,455.156l-1.491,2.926l2.778,1.416c0.668,0.34,1.218,0.473,1.647,0.395
		c0.429-0.076,0.774-0.365,1.03-0.867c0.26-0.51,0.297-0.959,0.116-1.346c-0.182-0.389-0.615-0.758-1.303-1.107L-143.833,455.156
		L-143.833,455.156z M-154.678,464.328l7.458-14.635l8.391,4.275c0.874,0.445,1.602,0.832,2.181,1.162
		c0.584,0.33,1.017,0.605,1.304,0.824c0.581,0.432,1.008,0.893,1.278,1.385c0.268,0.492,0.395,1.064,0.377,1.721
		c-0.019,0.66-0.187,1.303-0.507,1.93c-0.492,0.967-1.213,1.584-2.158,1.857c-0.946,0.27-2.021,0.162-3.223-0.324
		c0.582,0.295,1.052,0.609,1.408,0.941c0.356,0.332,0.619,0.684,0.789,1.051c0.32,0.646,0.294,1.459-0.079,2.436l-0.97,2.568
		c-0.135,0.346-0.259,0.748-0.373,1.197l-0.33,1.531l-5.079-2.588c0.015-0.148,0.042-0.303,0.075-0.455
		c0.031-0.156,0.095-0.367,0.183-0.639c0.087-0.273,0.136-0.428,0.148-0.463c0.076-0.219,0.171-0.436,0.283-0.654l0.892-2.096
		c0.164-0.322,0.264-0.613,0.297-0.865c0.034-0.256,0.012-0.484-0.067-0.691c-0.134-0.359-0.59-0.738-1.37-1.137l-3.085-1.572
		l-2.922,5.736L-154.678,464.328L-154.678,464.328z M-128.554,474.473l2.445-12.58l-5.999-1.166l0.688-3.541l17.499,3.4
		l-0.688,3.543l-6.002-1.168l-2.445,12.58L-128.554,474.473L-128.554,474.473z M-111.25,476.701l-2.001-16.301l14.53-1.785
		l0.432,3.514l-9.074,1.115l0.32,2.596l8.389-1.029l0.426,3.471l-8.389,1.031l0.389,3.16l9.414-1.156l0.438,3.559L-111.25,476.701
		L-111.25,476.701z M-77.293,455.744c-0.48-0.639-1.049-1.018-1.695-1.139c-0.65-0.123-1.375,0.02-2.178,0.428
		c-1.27,0.648-2.041,1.545-2.318,2.697c-0.273,1.154-0.035,2.469,0.721,3.949c0.725,1.422,1.619,2.346,2.686,2.771
		c1.067,0.425,2.227,0.32,3.477-0.316c0.906-0.461,1.521-1.051,1.848-1.766c0.328-0.719,0.34-1.541,0.043-2.471l5.178-2.639
		c0.791,1.998,0.713,3.816-0.238,5.459c-0.949,1.641-2.838,3.182-5.66,4.619c-2.719,1.387-5.162,1.828-7.33,1.324
		c-2.168-0.502-3.836-1.898-5-4.186c-1.271-2.492-1.469-4.822-0.594-6.99c0.875-2.162,2.762-3.984,5.656-5.459
		c2.535-1.293,4.682-1.84,6.438-1.643c0.92,0.088,1.723,0.352,2.4,0.785c0.73,0.463,1.303,1.111,1.729,1.945L-77.293,455.744
		L-77.293,455.744z M-54.479,446.092l2.492,2.578l-10.203,9.854L-73.6,446.71l4.035-3.896l8.918,9.234L-54.479,446.092
		L-54.479,446.092z M-62.527,436.185l2.723-4.715l8.098,4.676c1.176,0.678,2.209,0.912,3.094,0.699
		c0.885-0.213,1.654-0.885,2.309-2.018c0.631-1.092,0.814-2.084,0.555-2.971c-0.264-0.891-0.973-1.668-2.131-2.336l-8.1-4.678
		l2.645-4.578l8.041,4.645c2.211,1.273,3.461,2.857,3.75,4.746c0.289,1.889-0.369,4.225-1.973,7.002
		c-1.594,2.762-3.262,4.471-5.002,5.125s-3.729,0.336-5.965-0.955L-62.527,436.185L-62.527,436.185z M-48.402,413.937l3.342,0.771
		l0.65-2.818c0.158-0.689,0.139-1.234-0.061-1.637c-0.203-0.404-0.58-0.672-1.139-0.801c-0.533-0.123-0.986-0.047-1.355,0.23
		c-0.367,0.277-0.631,0.756-0.787,1.436L-48.402,413.937L-48.402,413.937z M-42.404,415.324l3.518,0.811l0.748-3.244
		c0.178-0.766,0.164-1.381-0.043-1.844c-0.207-0.459-0.6-0.758-1.178-0.893c-0.572-0.131-1.053-0.035-1.443,0.287
		c-0.391,0.326-0.676,0.871-0.852,1.639L-42.404,415.324L-42.404,415.324z M-36.844,422.08l-16.002-3.693l2.289-9.916
		c0.141-0.613,0.27-1.123,0.387-1.527c0.117-0.404,0.234-0.746,0.357-1.025c0.121-0.281,0.24-0.521,0.359-0.723
		s0.27-0.398,0.453-0.592c0.432-0.488,0.957-0.814,1.572-0.98c0.617-0.168,1.297-0.162,2.045,0.01
		c0.896,0.207,1.574,0.637,2.031,1.291c0.459,0.654,0.73,1.582,0.818,2.785c0.633-1.279,1.357-2.148,2.176-2.602
		c0.814-0.457,1.797-0.551,2.939-0.287c1.402,0.322,2.379,0.994,2.926,2.006c0.547,1.014,0.629,2.346,0.248,3.996L-36.844,422.08
		L-36.844,422.08z M-32.551,399.701l-16.361,1.432l-1.275-14.584l3.525-0.309l0.797,9.107l2.607-0.229l-0.736-8.419l3.484-0.305
		l0.736,8.419l3.172-0.277l-0.826-9.45l3.57-0.312L-32.551,399.701L-32.551,399.701z M-173.312,355.366
		c-0.736-0.312-1.417-0.356-2.039-0.138c-0.625,0.22-1.181,0.705-1.672,1.46c-0.776,1.195-0.995,2.358-0.658,3.495
		c0.341,1.135,1.204,2.155,2.598,3.06c1.338,0.869,2.575,1.221,3.711,1.058c1.137-0.166,2.089-0.836,2.853-2.012
		c0.554-0.854,0.793-1.67,0.717-2.454c-0.074-0.786-0.475-1.505-1.197-2.161l3.166-4.874c1.683,1.334,2.524,2.948,2.522,4.846
		c-0.001,1.896-0.866,4.175-2.591,6.832c-1.663,2.561-3.558,4.164-5.687,4.811c-2.128,0.65-4.271,0.275-6.424-1.124
		c-2.345-1.523-3.682-3.441-4.007-5.756c-0.324-2.311,0.399-4.833,2.168-7.558c1.549-2.386,3.135-3.933,4.755-4.641
		c0.839-0.382,1.666-0.557,2.471-0.52c0.863,0.037,1.684,0.312,2.468,0.821L-173.312,355.366L-173.312,355.366z M-163.466,340.667
		l2.154,2.479l2.354-2.046c0.566-0.492,0.895-0.952,0.983-1.381c0.091-0.425-0.047-0.854-0.417-1.279
		c-0.375-0.433-0.778-0.634-1.204-0.612c-0.43,0.022-0.934,0.286-1.517,0.793L-163.466,340.667L-163.466,340.667z M-159.025,354.157
		l-10.775-12.395l7.107-6.178c0.74-0.643,1.371-1.174,1.896-1.587c0.524-0.418,0.941-0.716,1.253-0.9
		c0.616-0.377,1.204-0.601,1.762-0.667c0.556-0.064,1.135,0.033,1.737,0.296c0.604,0.264,1.138,0.661,1.6,1.192
		c0.711,0.817,1.014,1.718,0.913,2.696c-0.105,0.979-0.606,1.936-1.508,2.867c0.493-0.429,0.959-0.748,1.4-0.953
		c0.44-0.206,0.864-0.318,1.27-0.338c0.719-0.055,1.461,0.274,2.228,0.986l2.018,1.861c0.271,0.255,0.596,0.521,0.971,0.795
		l1.296,0.878l-4.302,3.74c-0.133-0.07-0.265-0.151-0.394-0.239c-0.133-0.088-0.305-0.226-0.525-0.408
		c-0.219-0.184-0.344-0.287-0.373-0.311c-0.175-0.154-0.341-0.323-0.502-0.508l-1.608-1.611c-0.237-0.273-0.47-0.476-0.691-0.6
		c-0.224-0.127-0.443-0.193-0.665-0.196c-0.384-0.011-0.906,0.27-1.566,0.844l-2.614,2.272l4.222,4.857L-159.025,354.157
		L-159.025,354.157z M-149.974,326.592l5.048-2.04l3.503,8.671c0.508,1.258,1.178,2.079,2.006,2.455
		c0.829,0.378,1.849,0.322,3.062-0.167c1.168-0.472,1.925-1.14,2.266-2c0.34-0.863,0.26-1.913-0.24-3.153l-3.503-8.671l4.902-1.98
		l3.479,8.61c0.955,2.366,0.966,4.384,0.031,6.05c-0.935,1.666-2.891,3.102-5.864,4.303c-2.957,1.195-5.325,1.515-7.099,0.958
		c-1.774-0.556-3.145-2.031-4.112-4.425L-149.974,326.592L-149.974,326.592z M-117.375,330.658l9.986-0.175l0.064,3.585
		l-16.365,0.286l-0.078-4.52l9.106-8.455l-8.75,0.152l-0.063-3.608l15.553-0.271l0.076,4.364L-117.375,330.658L-117.375,330.658z
		 M-104.549,334.456l3.414-16.065l14.32,3.044l-0.736,3.463l-8.941-1.901l-0.545,2.56l8.268,1.757l-0.727,3.42l-8.268-1.757
		l-0.662,3.115l9.279,1.972l-0.746,3.507L-104.549,334.456L-104.549,334.456z M-87.785,339.163l7.455-14.634l5.002,2.548
		l-7.457,14.634L-87.785,339.163L-87.785,339.163z M-67.357,336.107l-2.021,2.587l2.457,1.92c0.592,0.461,1.105,0.697,1.543,0.702
		c0.436,0.007,0.828-0.209,1.176-0.654c0.354-0.451,0.475-0.885,0.371-1.298c-0.104-0.417-0.459-0.861-1.068-1.337L-67.357,336.107
		L-67.357,336.107z M-79.752,343.041l10.111-12.942l7.422,5.798c0.771,0.604,1.412,1.122,1.92,1.558
		c0.51,0.435,0.881,0.787,1.121,1.058c0.488,0.533,0.82,1.066,0.992,1.602c0.168,0.534,0.184,1.121,0.041,1.762
		c-0.145,0.644-0.432,1.243-0.865,1.798c-0.668,0.854-1.492,1.323-2.473,1.41c-0.98,0.084-2.016-0.226-3.102-0.933
		c0.514,0.401,0.916,0.799,1.201,1.192c0.287,0.394,0.477,0.788,0.574,1.183c0.191,0.695,0.01,1.487-0.543,2.375l-1.441,2.336
		c-0.199,0.315-0.396,0.685-0.596,1.104l-0.615,1.44l-4.492-3.51c0.043-0.144,0.1-0.288,0.16-0.432
		c0.061-0.147,0.164-0.343,0.301-0.593c0.139-0.25,0.217-0.392,0.234-0.425c0.117-0.201,0.252-0.396,0.402-0.589l1.275-1.887
		c0.223-0.286,0.377-0.552,0.457-0.793c0.082-0.244,0.105-0.472,0.066-0.691c-0.062-0.378-0.438-0.837-1.127-1.376l-2.73-2.133
		l-3.963,5.072L-79.752,343.041L-79.752,343.041z M-55.137,355.538c-1.402,0.91-2.25,1.908-2.541,2.996
		c-0.291,1.09-0.031,2.263,0.787,3.52c0.82,1.265,1.787,1.996,2.904,2.196c1.117,0.199,2.354-0.143,3.709-1.022
		c1.475-0.958,2.389-2.017,2.74-3.18c0.35-1.162,0.113-2.381-0.717-3.657c-0.764-1.176-1.748-1.841-2.953-1.997
		C-52.416,354.24-53.725,354.621-55.137,355.538L-55.137,355.538z M-59.83,363.643c-1.773-2.732-2.51-5.201-2.211-7.404
		c0.299-2.205,1.621-4.067,3.969-5.591c2.27-1.475,4.504-1.862,6.699-1.16c2.195,0.706,4.199,2.452,6.016,5.249
		c1.795,2.764,2.547,5.272,2.26,7.525c-0.289,2.255-1.609,4.146-3.963,5.674c-2.297,1.491-4.525,1.875-6.689,1.153
		C-55.916,368.367-57.941,366.55-59.83,363.643L-59.83,363.643z"/>
	<path class="st1" d="M-108.412,429.695l2.188,6.814h7.186l-5.855,4.23l2.277,6.791l-5.855-4.129l-5.736,4.129l2.212-6.748
		l-5.886-4.297l7.265,0.006L-108.412,429.695L-108.412,429.695z M-76.594,380.539l2.188,6.814h7.186l-5.855,4.231l2.279,6.79
		l-5.857-4.129l-5.734,4.129l2.211-6.749l-5.885-4.296l7.264,0.006L-76.594,380.539L-76.594,380.539z M-101.311,395.906l1.385,4.313
		h4.549l-3.707,2.678l1.441,4.297l-3.705-2.613l-3.631,2.613l1.4-4.271l-3.725-2.719l4.598,0.004L-101.311,395.906L-101.311,395.906
		z M-113.741,349.407l2.187,6.814h7.186l-5.855,4.231l2.277,6.79l-5.854-4.13l-5.736,4.13l2.212-6.748l-5.886-4.296l7.264,0.006
		L-113.741,349.407L-113.741,349.407z M-146.833,382.264l2.187,6.814h7.186l-5.855,4.231l2.277,6.79l-5.855-4.129l-5.736,4.129
		l2.212-6.748l-5.886-4.296l7.264,0.006L-146.833,382.264L-146.833,382.264z"/>
</g>
</svg>
