<?xml version="1.0" encoding="utf-8"?>
<!-- Generator: Adobe Illustrator 19.1.0, SVG Export Plug-In . SVG Version: 6.00 Build 0)  -->
<svg version="1.1" id="Layer_1" xmlns="http://www.w3.org/2000/svg" xmlns:xlink="http://www.w3.org/1999/xlink" x="0px" y="0px"
	 viewBox="-195.9 303.1 166.6 187.1" style="enable-background:new -195.9 303.1 166.6 187.1;" xml:space="preserve">
<style type="text/css">
	.st0{fill:#FFFFFF;}
	.st1{fill:#738B60;}
</style>
<g>
	<path d="M-37.4,351.6c0.4-1.5,1.1-2.8,1.5-4.4c0.6-1.5,1.3-2.8,2-3.9c1.1-2,2.2-3.3,3.5-4.4c0.2-0.4,0.7-0.9,1.1-1.1L-65,303.1
		c-2.2,1.7-5.7,3.3-10.9,4.6c-1.3,0.4-2.8,0.9-4.1,1.1c-2,0.4-3.9,0.9-6.1,1.3c-6.5,0.9-13.9,1.5-22,1.5c0,0,0,0-0.2,0
		c-0.9,0-1.7,0-2.4,0h-3.7c-0.7,0-1.1,0-1.7,0c-0.2,0-0.7,0-1.1,0c-8.5,0-16.1-0.6-22.8-1.7c-1.7-0.4-3.5-0.7-5-1.1
		c-1.5-0.2-2.8-0.7-4.4-1.1c-5-1.3-8.7-2.8-10.9-4.6l-35.7,34.8c0.4,0.2,0.9,0.7,1.3,1.1c2,1.7,3.7,4.6,5.2,8.3
		c2.8,6.5,4.4,14.4,4.6,23.3c0,1.1,0,2.2,0,3.3c0,7.4-0.7,14.1-2.4,20c-0.2,0.9-0.4,1.5-0.7,2.2c-0.4,1.3-0.9,2.8-1.5,4.1
		c-0.4,1.1-0.9,2.4-1.5,3.3c0,0.4-0.2,0.9-0.4,1.1c-0.2,0.9-0.4,1.5-0.9,2.4c0,0.4-0.2,0.9-0.4,1.3c-1.3,4.6-2.2,9.6-2.4,14.8
		c-0.2,1.1-0.2,2,0,2.8c0,2.2,0,4.1,0.4,6.1c0.4,4.1,1.7,8,3.3,11.7c2.8,6.3,6.7,12,11.5,16.7c5,4.8,10.7,8.1,17.4,9.6
		c6.5,1.7,13.3,2.8,20,3.5c1.3,0,2.4,0.2,3.5,0.4c5.7,0.9,10.7,2.8,15,5.9c4.1,2.8,7.6,6.1,10.9,9.6c0,0.2,0.2,0.4,0.4,0.9
		c0.2-0.4,0.4-0.7,0.7-0.9c2-2.2,4.1-4.6,6.7-6.5c1.3-1.1,2.6-2.2,3.9-3c2.8-2,5.9-3.5,9.4-4.6c2.8-0.9,5.9-1.5,9.1-1.7
		c5.4-0.4,10.7-1.3,15.9-2.4c1.3-0.2,2.8-0.7,4.4-1.1c5.2-1.3,10-3.7,14.4-7c0.9-0.9,2-1.7,2.8-2.6c3.7-3.7,6.7-7.6,9.4-12
		c0.7-1.5,1.5-3,2.2-4.8c0,0,0,0,0-0.2c1.7-3.7,2.8-7.6,3.5-11.5c0-0.2,0-0.4,0-0.7c0.4-2.8,0.4-5.4,0.4-8.3
		c-0.2-5.9-1.3-11.1-3-16.1c-0.2-0.7-0.4-1.5-0.9-2.2c0,0,0,0,0-0.2c0-0.2-1.3-3.3-2-4.4c-0.2-0.7-0.4-1.3-0.7-2
		c-0.2-0.7-0.7-1.5-0.9-2.2c-2-6.5-3-13.9-3-22.2c0-0.2,0-0.2,0-0.4C-40.4,365.1-39.3,357.9-37.4,351.6L-37.4,351.6z"/>
	<path class="st0" d="M-40.8,348.8c0.2-1.1,0.7-2.2,1.1-3c0.7-1.7,1.3-3,2.2-4.4c0-0.2,0-0.2,0.2-0.2c0.4-1.3,1.1-2.2,2-3.3
		l-30.2-29.4c-2.2,1.3-5.2,2.4-8.9,3.5c-0.2,0-0.4,0-0.7,0c-1.3,0.4-2.6,0.6-3.9,1.1c-0.9,0.2-1.7,0.4-2.6,0.4L-40.8,348.8
		L-40.8,348.8z"/>
	<path class="st0" d="M-190.5,429.9c0,0.4,0,0.9,0.2,1.3c0.4,3.7,1.5,7.2,3,10.7c2.4,5.7,5.9,10.7,10,15c0.2,0,0.4,0.2,0.4,0.2
		c4.4,4.4,9.6,7.2,15.4,8.7c5.2,1.3,10.9,2.4,16.5,3L-190.5,429.9L-190.5,429.9z"/>
	<path class="st0" d="M-185.1,346.2c3,7.6,4.6,16.8,4.6,27.6c0,0,0,0.2,0,0.4l16.9,14.4c1.2-6.4,3.7-12.4,7.4-17.9L-185.1,346.2
		L-185.1,346.2z"/>
	<path class="st0" d="M-71.3,467.5c2.6-0.7,5-1.1,7.6-1.7c4.4-1.1,8.5-3,12-5.7l-25.5-21.8c-5.1,4.5-10.6,7.8-16.7,9.9L-71.3,467.5
		L-71.3,467.5z"/>
	<path class="st0" d="M-166.4,315l-12,12l35.2,30c5.1-3.7,10.5-6.5,16.4-8.2L-166.4,315L-166.4,315z"/>
	<path class="st0" d="M-34.3,427.7l-25.2-21.5c-0.8,6.3-2.6,12.1-5.5,17.4l25.5,21.8c0.7-1.1,1.1-2.2,1.7-3.3c0-0.2,0-0.4,0.2-0.4
		h-0.2c1.5-3.3,2.4-7,2.8-10.4C-34.7,429.9-34.5,428.8-34.3,427.7L-34.3,427.7z"/>
	<path class="st0" d="M-66.5,372.1c0.2,0.3,0.4,0.6,0.6,1l23.3,19.9c-1.5-5.7-2.2-12.2-2.2-19.1c0-1.5,0-2.8,0-4.1l-62.9-53.7
		c-0.2,0-0.2,0-0.4,0c0,0,0,0-0.2,0c-0.9,0-1.7,0-2.4,0h-3.7c-0.7,0-1.1,0-1.7,0c-0.2,0-0.7,0-1.1,0c-5.9,0-11.5-0.4-16.8-0.9
		l41.3,35.2c3.8,1.5,7.5,3.4,10.9,5.8l16.2,2.4C-65.1,363.4-65.4,367.9-66.5,372.1L-66.5,372.1z"/>
	<path class="st0" d="M-162.9,423.6c0.7-1.7,1.3-3.3,2-4.9c-0.4-1.1-0.8-2.1-1.2-3.2l-21.5-18.4c-0.2,0-0.2,0-0.2,0.2
		c-0.4,1.5-1.1,3-1.5,4.4c-0.7,1.3-1.1,2.4-1.5,3.5c-0.2,0.2-0.2,0.4-0.4,0.9c0,0,0,0,0,0.2c-0.2,0.4-0.4,1.1-0.7,1.7
		c-0.2,0.2-0.2,0.2-0.2,0.4c-0.2,1.1-0.7,2-0.9,2.8l80.3,68.7c1.5-1.3,3.3-2.6,5-3.9c2.4-1.5,5-2.8,7.8-3.9l-25.3-21.7
		c-8.8-1.5-16.7-5-23.8-10.8c-0.5,0.7-1,1.3-1.6,2L-162.9,423.6L-162.9,423.6z"/>
	<path class="st0" d="M-147.2,401.4c4.8-3.7,10.4-7.2,17.2-10c5.7-2.6,11.5-5.2,17.6-7.8c6.3-2.6,11.5-6.5,15.4-11.3
		c4-4.6,5.5-10.2,5.2-16.8c-6.1-2.8-12.8-4.3-20-4.3c-13.5,0-24.8,4.8-34.4,14.1v-0.2c-9.4,9.4-14.1,20.7-14.1,33.9
		c0,5,0.7,9.8,2.1,14.3C-155.5,408.9-151.9,404.8-147.2,401.4L-147.2,401.4z"/>
	<path class="st0" d="M-77.2,392.9c-3.7,4.8-8.9,8.5-15.2,11.1c-6.3,2.4-12.4,4.8-18.3,7.6c-6.1,2.6-12,5.7-17.6,9.6
		c-5.7,3.7-10.2,8.5-13.7,14.1c-0.2,0.3-0.4,0.5-0.6,0.8c8.8,7.2,18.9,10.7,30.8,10.7c13.3,0,24.8-4.6,34.2-13.9
		c9.6-9.4,14.1-20.7,14.1-33.9c0-7.8-1.6-15-4.9-21.4C-70.5,382.8-73.5,388.1-77.2,392.9L-77.2,392.9z"/>
	<path class="st0" d="M-93.5,375.1c-4.6,5.4-10.2,9.6-17.2,12.6c-6.1,2.4-12,5-17.6,7.6c-6.3,2.8-11.7,5.9-16.3,9.6
		c-4.8,3.5-8.3,7.8-10.9,12.4c-0.9,2-1.5,3.5-2.4,5.2l11.1,12.2c0.2-0.4,0.7-1.1,1.1-1.7c3.7-6.1,8.7-11.1,15.2-15.4
		c5.7-3.7,11.7-7.2,18.1-10c5.9-2.6,12-5,18.1-7.4c0,0,0.2,0,0.2-0.2c5.7-2.2,10.2-5.4,13.5-9.6c3.9-5.2,6.7-10.7,8.9-16.1
		c0-0.2,0.2-0.4,0.2-0.7c1.3-3.5,2-7.2,2-11.3l-17.8-2.6C-87.8,365.7-89.8,370.7-93.5,375.1L-93.5,375.1z"/>
	<path d="M-94.3,387.5c-1.3-1.7-1.5-3.5-0.9-5.2c0.4-1.5,2-3,3.9-4.6c1.7-1.1,3.3-1.5,4.6-1.7c1.3,0,2.6,0.2,3.7,1.1l-3.3,3
		c-0.4-0.4-0.7-0.4-0.9-0.4c-0.2-0.2-0.7-0.2-1.1-0.2c-0.7,0.2-1.1,0.2-1.3,0.6c-1.1,0.4-1.5,1.3-1.5,2.2c-0.2,0.7,0,1.5,0.7,2.4
		c0.9,1.3,1.5,2,2.4,2c0.4,0.2,1.3,0,2.2-0.6c0.7-0.4,1.3-0.9,1.5-1.5c0-0.7,0-1.3-0.2-2.2l4.1-1.3c0.4,0.9,0.4,1.7,0.2,2.6
		c-0.2,0.9-0.7,1.7-1.3,2.6c-0.4,0.7-1.3,1.5-2.6,2.2c-1.3,1.1-2.6,1.5-3.7,1.7c-1.1,0.2-2.4,0.2-3.7-0.2
		C-92.6,389.4-93.7,388.6-94.3,387.5L-94.3,387.5z"/>
	<polygon points="-139.6,407.9 -138.3,409.7 -133.1,406.4 -131.8,408.4 -137,411.8 -134.2,416.2 -138.3,418.8 -145,408.4 
		-135,401.8 -133.5,404 	"/>
	<polygon points="-109.8,403.8 -114.4,405.8 -118.9,394.2 -107.8,389.7 -106.7,392.3 -113.5,394.9 -112.6,396.8 -107,394.4 
		-105.9,396.8 -111.8,399.2 	"/>
	<path class="st1" d="M-130,391.4c5.7-2.6,11.5-5.2,17.6-7.8c6.3-2.6,11.5-6.5,15.4-11.3c1.9-2.2,3.2-4.6,4.1-7.3
		c-2-0.5-4-0.7-5.8-0.7c-1.7,0-3.5,0.2-5,0.9c-1.1-2-2.8-3.3-5-3.5c-3-0.6-4.6,0.4-5,3c-1.7,0-3.3,0.4-5,1.1c-0.2,0-0.4,0-0.9,0
		c-1.5,0-3.3,0-4.8,0.4c-2.8,0.4-4.8,1.7-6.3,3.7c-0.4-0.2-0.7-0.2-0.9-0.2c-0.4,0-0.7,0-0.7,0.2c-0.9,1.3-2,2.8-3.3,4.1
		c-1.3,1.5-2.4,3.3-3,5.2c-0.2-0.2-0.4-0.4-0.7-0.4c-2.8-1.3-4.6-0.9-5,1.5c-1.3-0.2-1.7,0.4-1.3,1.7c-0.2,0-0.4,0-0.9,0
		c-0.2-0.2-0.4,0-0.4,0c-1.1,1.5-1.5,3.3-1.7,5c-0.9-0.2-1.7,0-2.4,0.6c-1.7,1.7-2.6,4.1-2,7.2c0.4,3.3,2,5.4,4.4,6.7
		c0,0.3,0,0.5,0,0.8c0.4-0.3,0.8-0.7,1.3-1C-142.4,397.7-136.8,394.2-130,391.4L-130,391.4z"/>
	<path class="st1" d="M-92.4,404c-6.3,2.4-12.4,4.8-18.3,7.6c-6.1,2.6-12,5.7-17.6,9.6c-2.2,1.5-4.3,3.2-6.2,4.9
		c0.4,0.3,0.9,0.7,1.4,0.9c1.1,0.4,2.6,0.9,3.9,0.9c1.5,0,2.8,0,4.1-0.4c1.5-0.2,2-0.7,1.3-1.5c0.7-0.9,1.5-1.1,2.6-1.3
		c1.5,0,2.8,0.4,4.1,1.1c0.7,0.4,1.5,0.7,2.2,0.9c0,0.2,0,0.2,0,0.4c0,0.9,0,2,0,3c-1.1-0.2-2.2,0.2-2.8,1.3c-0.2,0-0.2,0.2-0.2,0.2
		c-1.1,0-2,0-2.8-0.2c-1.5-0.2-2.6,0.4-3,1.7c-0.9,0-1.5,0.2-2.4,0.7c-1.3,0.6-2.2,1.7-2,3.3c0.2,0.4,0.4,0.9,0.9,0.9
		c0.9,0.2,1.5,0.4,2.2,0.4c-0.4,0.7-0.4,1.3,0,2.4c0,0,0.2,0.2,0.7,0.2c0.9,0,2,0,2.8,0c1.1,0,2.2,0,3.3,0s2,0,3-0.2
		c1.3,0,2.6-0.2,3.9-0.2c0.4-0.2,0.9-0.2,1.3-0.4c1.5,0.2,2.4-0.2,2.4-1.3c1.1,0,2,0,2.8,0c1.1,0.2,2.2,0.2,3.3,0.2
		c1.3,0.2,2.2,0,3-0.7c1.3-0.9,1.5-1.7,0.9-2.8c-0.4-0.4-0.9-0.6-1.3-0.6c-0.2,0-0.4,0-0.4,0c-0.7-0.9-1.5-1.3-2.4-2
		c-0.4,0-0.9-0.2-1.3-0.2s-0.7,0.2-0.9,0.2c0,0-0.2,0-0.2-0.2c-0.7-0.2-1.5-0.4-2.4-0.4c-0.7,0-1.3,0-2,0c0-0.4,0-1.1,0-1.7
		c0-1.5,0-2.8,0-4.1c0-0.2,0-0.4,0-0.7c0.9,0,1.7,0,2.4-0.2c1.5,0,2.8,0,4.1,0c1.1-0.2,2.2-0.4,3.3-0.7c0.7-0.2,1.3-0.7,1.5-1.3
		c0.9,0,1.5,0,2.6,0c1.1,0.2,2.2-0.2,3-0.9c0.2-0.2,0.4-0.2,0.9-0.6c0.7-1.1,1.1-2.2,1.1-3.5c1.3,0,2.4-0.2,3.5-0.9
		c1.1-0.4,2.2-1.3,3.3-2.2c0.2-0.2,0.7-0.7,0.9-1.3c0.7,0.2,1.3,0.4,2.2,0.4c1.1,0,1.7-0.7,1.7-1.7c1.1,0,2-0.9,2.4-2.4
		c0.2-0.4,0.4-0.9,0.4-1.5c0.2-0.2,0.4-0.4,0.7-0.4c0.7,0,1.1-0.2,1.3-0.9c0-0.2,0.4-0.2,1.1-0.2s0.9-0.9,0.9-2.2
		c0-1.5,0.4-2.6,0.9-3.7c0.7-1.3,0.7-2.6,0.2-4.1c-0.7-1.1-1.1-2.4-1.5-3.7c-0.2-0.2-0.2-0.4-0.4-0.4c-0.4-1.1-1.3-2-2.6-2.4
		c-0.3-0.1-0.5-0.3-0.7-0.4c-0.5,0.8-1.1,1.6-1.7,2.3C-80.9,397.7-86.1,401.4-92.4,404L-92.4,404z"/>
</g>
</svg>
