<?xml version="1.0" encoding="utf-8"?>
<!-- Generator: Adobe Illustrator 19.1.0, SVG Export Plug-In . SVG Version: 6.00 Build 0)  -->
<svg version="1.1" id="Layer_1" xmlns="http://www.w3.org/2000/svg" xmlns:xlink="http://www.w3.org/1999/xlink" x="0px" y="0px"
	 viewBox="-199 291.6 211.4 211.4" style="enable-background:new -199 291.6 211.4 211.4;" xml:space="preserve">
<style type="text/css">
	.st0{fill:#416F37;}
	.st1{fill:#FFFFFF;}
	.st2{fill:#416F37;stroke:#416F37;stroke-width:0.4867;}
</style>
<path class="st0" d="M-93.3,291.6c58.2,0,105.7,47.5,105.7,105.7C12.4,455.5-35.1,503-93.3,503S-199,455.5-199,397.3
	C-199,339.1-151.5,291.6-93.3,291.6L-93.3,291.6z"/>
<path class="st1" d="M-93.3,296.1c55.7,0,101.2,45.5,101.2,101.2S-37.5,498.5-93.3,498.5c-55.7,0-101.2-45.5-101.2-101.2
	C-194.5,341.5-149,296.1-93.3,296.1L-93.3,296.1z"/>
<path class="st2" d="M-93.3,330.9c25.4,0,47.5,14.4,58.7,35.5l0,0h-21.5l0,0c-8.9-10.7-22.2-17.5-37.2-17.5
	c-26.6,0-48.4,21.7-48.4,48.4s21.7,48.4,48.4,48.4c20.3,0,37.7-12.6,44.9-30.3l0,0h-62.8v-18h66.3h7.6h10.3l0,0
	c0,36.5-29.8,66.3-66.3,66.3s-66.3-29.8-66.3-66.3C-159.6,360.7-129.8,330.9-93.3,330.9L-93.3,330.9z"/>
<path class="st2" d="M-130,468.7l-2.7-1.4l0,0c0.3-0.6,0.4-1,0.3-1.5c-0.1-0.4-0.4-0.8-0.8-1c-0.5-0.4-1.2-0.4-1.9-0.2
	c-0.7,0.2-1.6,1.1-2.7,2.6c1.1-0.3,2.2-0.2,3.1,0.4c1.1,0.7,1.7,1.7,2,3c0.2,1.3-0.1,2.6-0.9,3.9c-0.9,1.4-2,2.2-3.4,2.5
	c-1.4,0.3-2.7,0.1-3.9-0.8c-1.4-0.9-2.1-2.1-2.3-3.8c-0.2-1.6,0.5-3.7,2.1-6.1c1.6-2.5,3.2-4,4.8-4.5c1.6-0.5,3.2-0.3,4.6,0.7
	c1,0.7,1.7,1.5,2,2.5C-129.3,466.3-129.4,467.4-130,468.7L-130,468.7z M-139.5,470.5c-0.5,0.8-0.8,1.6-0.7,2.3s0.4,1.2,0.9,1.5
	c0.5,0.3,1,0.4,1.6,0.2c0.6-0.2,1.1-0.7,1.7-1.5c0.6-0.9,0.8-1.6,0.7-2.3c-0.1-0.6-0.4-1.1-0.9-1.5c-0.5-0.3-1-0.4-1.6-0.2
	S-139,469.7-139.5,470.5L-139.5,470.5z M-129.7,477.2l1.3-2.8l5.5,2.6l-1.3,2.8L-129.7,477.2L-129.7,477.2z M-115.8,486.5l0.9-3.1
	l-6.3-1.8l0.7-2.6l9.5-7.9l2.5,0.7l-2.8,9.8l1.9,0.6l-0.7,2.6l-1.9-0.6l-0.9,3.1L-115.8,486.5L-115.8,486.5z M-114.2,480.8l1.5-5.3
	l-5.1,4.3L-114.2,480.8L-114.2,480.8z M-105.4,484.1l0.4-3.1l6,0.8l-0.4,3.1L-105.4,484.1L-105.4,484.1z M-87.9,489.2l-3.1,0.1
	l-0.4-11.6l0,0c-1.1,1.1-2.4,1.9-3.9,2.5l0,0l-0.1-2.8l0,0c0.8-0.3,1.7-0.8,2.6-1.6c0.9-0.8,1.5-1.6,1.9-2.6l0,0l2.5-0.1
	L-87.9,489.2L-87.9,489.2z M-80.7,484.8l2.9-0.9l0,0c0.2,0.6,0.5,1,0.8,1.2c0.4,0.2,0.8,0.3,1.3,0.2c0.6-0.1,1.1-0.5,1.4-1.2
	c0.3-0.7,0.4-1.9,0.1-3.7c-0.6,1-1.5,1.7-2.6,1.9c-1.2,0.2-2.4,0-3.5-0.8c-1.1-0.8-1.8-1.9-2.1-3.5c-0.3-1.6-0.1-3,0.7-4.2
	c0.8-1.2,1.9-1.9,3.4-2.2c1.6-0.3,3,0.1,4.3,1.1c1.3,1,2.2,3,2.7,5.8c0.6,2.9,0.4,5.1-0.4,6.6c-0.8,1.5-2.1,2.4-3.8,2.7
	c-1.2,0.2-2.3,0.1-3.2-0.4C-79.6,486.9-80.2,486-80.7,484.8L-80.7,484.8z M-75.1,476.8c-0.2-1-0.6-1.7-1.1-2.1
	c-0.6-0.5-1.1-0.6-1.7-0.5c-0.6,0.1-1,0.4-1.3,0.9c-0.3,0.5-0.3,1.3-0.1,2.3c0.2,1,0.5,1.7,1,2.1c0.5,0.4,1,0.5,1.6,0.4
	c0.6-0.1,1-0.4,1.3-1C-75,478.4-75,477.7-75.1,476.8L-75.1,476.8z M-59,482.6l-1.2-3l-6.1,2.5l-1-2.5l2.6-12.1l2.4-1l3.8,9.5
	l1.9-0.7l1,2.5l-1.9,0.7l1.2,3L-59,482.6L-59,482.6z M-61.2,477.1l-2.1-5.1l-1.4,6.5L-61.2,477.1L-61.2,477.1z M-52.5,475.1l2.4-1.8
	l0,0c0.5,0.6,1,1,1.6,1.1c0.6,0.1,1.1,0,1.6-0.3c0.5-0.3,0.9-0.8,1-1.4c0.1-0.6,0-1.3-0.4-2c-0.4-0.7-0.9-1.1-1.5-1.3
	c-0.6-0.2-1.1-0.1-1.7,0.2c-0.3,0.2-0.7,0.5-1.1,0.9l0,0l-1-2.3l0,0c0.7-0.4,1.2-0.9,1.4-1.5c0.2-0.6,0.1-1.1-0.2-1.7
	c-0.3-0.5-0.6-0.8-1.1-0.9c-0.4-0.1-0.9,0-1.4,0.2c-0.5,0.3-0.7,0.7-0.9,1.2c-0.1,0.5-0.1,1.1,0.2,1.7l0,0l-2.7,1.1l0,0
	c-0.3-0.9-0.5-1.8-0.4-2.5c0-0.7,0.3-1.4,0.7-2c0.4-0.7,1-1.2,1.8-1.7c1.3-0.8,2.6-1,3.9-0.6c1.1,0.3,1.8,0.9,2.4,1.7
	c0.7,1.2,0.6,2.6-0.2,4.1c0.9-0.3,1.8-0.3,2.6,0c0.8,0.3,1.5,0.9,2,1.7c0.7,1.2,0.9,2.5,0.5,3.9c-0.4,1.4-1.2,2.5-2.5,3.3
	c-1.2,0.8-2.5,1-3.8,0.8C-50.7,476.8-51.7,476.1-52.5,475.1L-52.5,475.1z M-168.7,428l-2.5,1l-2.5-6.5l6-2.3l0,0
	c0.9,0.4,1.8,1.1,2.7,2.1c0.9,1,1.6,2.2,2.1,3.4c0.6,1.6,0.8,3.1,0.6,4.5c-0.2,1.4-0.8,2.7-1.8,3.7c-1,1.1-2.2,1.9-3.7,2.4
	c-1.6,0.6-3.1,0.8-4.6,0.6c-1.5-0.2-2.8-0.8-3.9-1.8c-0.9-0.8-1.6-1.9-2.1-3.3c-0.7-1.9-0.9-3.5-0.5-4.8c0.4-1.3,1.2-2.4,2.5-3.3
	l0,0l1.7,2.8l0,0c-0.7,0.5-1.1,1.1-1.3,1.9c-0.2,0.8-0.1,1.6,0.2,2.4c0.5,1.3,1.3,2.2,2.5,2.7c1.1,0.5,2.5,0.4,4.2-0.3
	c1.8-0.7,3-1.6,3.6-2.7c0.6-1.1,0.6-2.3,0.1-3.6c-0.2-0.6-0.6-1.2-1.1-1.8c-0.5-0.5-1-1-1.5-1.3l0,0l-1.9,0.7L-168.7,428L-168.7,428
	z M-174.9,415.5c-1.6,0.2-3,0.1-4.2-0.2c-0.9-0.3-1.6-0.7-2.4-1.2c-0.7-0.5-1.3-1.2-1.7-1.9c-0.5-0.9-0.9-2.1-1.1-3.4
	c-0.3-2.4,0.2-4.3,1.5-5.9c1.3-1.6,3.2-2.5,5.8-2.9c2.6-0.3,4.7,0.1,6.3,1.4c1.6,1.2,2.6,3,2.9,5.4c0.3,2.4-0.2,4.4-1.5,5.9
	C-170.5,414.2-172.4,415.2-174.9,415.5L-174.9,415.5z M-175.5,412.2c1.8-0.2,3.1-0.8,4-1.8c0.8-1,1.2-2.1,1-3.4
	c-0.2-1.3-0.8-2.3-1.8-3c-1-0.7-2.5-1-4.3-0.7c-1.8,0.2-3.1,0.8-4,1.7c-0.8,0.9-1.1,2-1,3.4c0.2,1.3,0.8,2.3,1.8,3
	C-178.7,412.2-177.3,412.4-175.5,412.2L-175.5,412.2z M-168.7,393.9l-16-1.4l0.3-3.2l16,1.4L-168.7,393.9L-168.7,393.9z
	 M-164.5,370.7l-0.8,3.4l-3.9,0.5l-1.4,6.3l3.3,2.1l-0.8,3.4l-14.3-9.7l0.8-3.4L-164.5,370.7L-164.5,370.7z M-172.1,375.1l-6.3,0.8
	l5.3,3.5L-172.1,375.1L-172.1,375.1z M-167.4,365.1l1.2-2.9l0,0c1,0.3,1.9,0.4,2.6,0.1c0.7-0.3,1.3-0.9,1.8-1.7
	c0.5-0.9,0.7-1.7,0.5-2.4c-0.1-0.7-0.5-1.2-1-1.4c-0.3-0.2-0.7-0.2-1-0.2c-0.3,0.1-0.7,0.3-1.2,0.7c-0.3,0.3-0.9,0.9-1.8,2
	c-1.2,1.3-2.2,2.2-3.1,2.5c-1.2,0.5-2.4,0.4-3.6-0.2c-0.7-0.4-1.3-0.9-1.7-1.7c-0.4-0.7-0.6-1.6-0.5-2.5c0.1-0.9,0.4-2,1-3.1
	c0.9-1.8,2.1-2.9,3.3-3.4c1.3-0.5,2.6-0.4,3.9,0.2l0,0l-1.4,2.9l0,0c-0.8-0.3-1.5-0.3-2,0c-0.5,0.2-1,0.8-1.4,1.6
	c-0.4,0.8-0.6,1.6-0.5,2.2c0.1,0.4,0.3,0.7,0.6,0.9c0.3,0.2,0.7,0.2,1.1,0c0.5-0.2,1.3-0.9,2.4-2.1c1.1-1.2,2-2.1,2.7-2.6
	c0.7-0.5,1.5-0.7,2.3-0.8c0.8-0.1,1.7,0.2,2.6,0.6c0.8,0.4,1.5,1.1,1.9,1.9c0.5,0.8,0.7,1.8,0.6,2.8c-0.1,1-0.5,2.1-1.1,3.4
	c-1,1.8-2.1,3-3.4,3.5C-164.2,365.8-165.8,365.7-167.4,365.1L-167.4,365.1z M-149.1,346.2l-11-11.8l8.7-8.1l1.9,2l-6.4,5.9l2.4,2.6
	l5.9-5.5l1.9,2l-5.9,5.5l3,3.2l6.6-6.1l1.8,2L-149.1,346.2L-149.1,346.2z M-138.9,330.5l2.6-1.8l0,0c0.7,0.8,1.4,1.3,2.1,1.5
	c0.8,0.2,1.6,0,2.4-0.5c0.9-0.5,1.5-1.1,1.7-1.7c0.2-0.6,0.2-1.2-0.1-1.7c-0.2-0.3-0.4-0.6-0.8-0.7c-0.3-0.1-0.8-0.1-1.4,0
	c-0.4,0.1-1.3,0.3-2.6,0.6c-1.7,0.5-3.1,0.6-4,0.4c-1.3-0.3-2.2-1-2.9-2.1c-0.4-0.7-0.6-1.5-0.5-2.4c0.1-0.9,0.4-1.6,1-2.4
	c0.6-0.8,1.4-1.4,2.5-2c1.8-1,3.3-1.3,4.6-1.1c1.3,0.3,2.4,1.1,3.1,2.3l0,0l-2.8,1.7l0,0c-0.5-0.7-1.1-1-1.6-1.1
	c-0.6-0.1-1.3,0.1-2.1,0.5c-0.8,0.5-1.4,1-1.7,1.6c-0.2,0.4-0.2,0.8,0,1.1c0.2,0.3,0.5,0.5,0.9,0.6c0.5,0.1,1.6-0.1,3.1-0.5
	c1.6-0.4,2.8-0.7,3.6-0.7c0.9,0,1.6,0.2,2.4,0.6c0.7,0.4,1.3,1,1.8,1.9c0.4,0.8,0.6,1.7,0.6,2.6c-0.1,1-0.4,1.8-1,2.6
	c-0.6,0.8-1.6,1.5-2.8,2.2c-1.8,1-3.4,1.3-4.8,1C-136.6,332.8-137.9,331.9-138.9,330.5L-138.9,330.5z M-120.1,326.4l-4.4-15.5l5-1.4
	l0,0c1.9-0.5,3.2-0.8,3.8-0.8c1,0,1.8,0.3,2.7,0.9c0.8,0.6,1.4,1.5,1.8,2.8c0.3,1,0.3,1.8,0.2,2.5c-0.2,0.7-0.4,1.4-0.9,1.9
	c-0.4,0.5-0.9,0.9-1.4,1.2c-0.7,0.4-1.8,0.7-3.2,1.2l0,0l-2,0.6l1.7,5.8L-120.1,326.4L-120.1,326.4z M-120.7,312.7l1.3,4.4l1.7-0.5
	l0,0c1.2-0.4,2-0.7,2.4-1c0.4-0.3,0.6-0.6,0.8-1c0.1-0.4,0.1-0.8,0-1.3c-0.2-0.6-0.5-1-0.9-1.3c-0.4-0.3-0.9-0.4-1.5-0.3
	c-0.4,0-1.2,0.2-2.3,0.5l0,0L-120.7,312.7L-120.7,312.7z M-103.6,314.2c0-1.6,0.2-3,0.7-4.1c0.4-0.8,0.8-1.6,1.5-2.2
	c0.6-0.7,1.3-1.2,2.1-1.5c1-0.4,2.1-0.7,3.5-0.7c2.4,0,4.3,0.7,5.7,2.1c1.4,1.4,2.2,3.5,2.2,6.1c0,2.6-0.6,4.6-2,6.1
	c-1.4,1.5-3.3,2.3-5.6,2.3c-2.4,0-4.3-0.7-5.7-2.1C-102.8,318.8-103.5,316.8-103.6,314.2L-103.6,314.2z M-100.2,314
	c0,1.8,0.5,3.2,1.3,4.1c0.9,0.9,1.9,1.4,3.2,1.4c1.3,0,2.4-0.5,3.2-1.5c0.8-0.9,1.2-2.4,1.2-4.2c0-1.8-0.5-3.2-1.3-4.1
	c-0.8-0.9-1.9-1.3-3.2-1.3c-1.3,0-2.4,0.5-3.2,1.4C-99.9,310.8-100.3,312.2-100.2,314L-100.2,314z M-82.6,322.5l3.3-15.7l6.7,1.4
	l0,0c1.7,0.4,2.9,0.8,3.6,1.2c0.7,0.4,1.2,1.1,1.5,1.9c0.3,0.8,0.4,1.7,0.2,2.6c-0.3,1.2-0.8,2.1-1.7,2.7c-0.9,0.6-2,0.9-3.4,0.8
	c0.6,0.5,1.1,1.1,1.4,1.7c0.3,0.6,0.8,1.6,1.3,2.9l0,0l1.3,3.5l-3.8-0.8l-1.6-3.9l0,0c-0.6-1.4-1-2.3-1.2-2.7
	c-0.2-0.4-0.5-0.7-0.8-0.9c-0.3-0.2-0.8-0.4-1.6-0.5l0,0l-0.6-0.1l-1.4,6.6L-82.6,322.5L-82.6,322.5z M-77.5,314.1l2.4,0.5l0,0
	c1.5,0.3,2.5,0.5,2.9,0.4c0.4,0,0.8-0.2,1-0.5c0.3-0.3,0.5-0.6,0.6-1.1c0.1-0.5,0.1-1-0.1-1.4c-0.2-0.4-0.6-0.7-1.1-0.9
	c-0.2-0.1-1-0.3-2.3-0.5l0,0l-2.5-0.5L-77.5,314.1L-77.5,314.1z M-61.3,329l6.1-11.9l-4.3-2.2l1.2-2.4l11.4,5.8l-1.2,2.4l-4.2-2.2
	l-6.1,11.9L-61.3,329L-61.3,329z M-50.1,335.3l9.9-12.7l9.4,7.4l-1.7,2.1l-6.8-5.3l-2.2,2.8l6.4,5l-1.7,2.1l-6.4-5l-2.7,3.5l7.1,5.5
	l-1.7,2.1L-50.1,335.3L-50.1,335.3z M-22,357.7l0.9,3.2l0,0c-1.7,0.6-3.3,0.6-4.6,0.1c-1.3-0.5-2.5-1.4-3.4-2.9
	c-1.2-1.8-1.5-3.7-1-5.6c0.5-1.9,1.8-3.6,3.9-5c2.2-1.5,4.4-2,6.4-1.7c2,0.4,3.6,1.5,4.8,3.4c1.1,1.6,1.5,3.3,1.1,5
	c-0.2,1-0.7,2-1.6,3l0,0l-2.4-2.3l0,0c0.6-0.6,0.9-1.3,1-2.1c0.1-0.8-0.1-1.5-0.6-2.2c-0.6-1-1.5-1.6-2.7-1.7
	c-1.1-0.2-2.5,0.3-4.1,1.3c-1.7,1.1-2.7,2.2-3,3.3c-0.3,1.1-0.2,2.1,0.5,3.1c0.5,0.7,1.1,1.2,1.9,1.4
	C-24.1,358.2-23.2,358.2-22,357.7L-22,357.7z M-23.2,368.8l15.1-5.2l1.1,3.1l-12.5,4.3l2.6,7.6l-2.6,0.9L-23.2,368.8L-23.2,368.8z
	 M-2.7,383.1l0.3,3.2l-8.7,0.8l0,0c-1.4,0.1-2.3,0.2-2.7,0.4c-0.6,0.2-1.1,0.6-1.5,1.1c-0.4,0.6-0.5,1.3-0.4,2.2
	c0.1,0.9,0.3,1.6,0.7,2c0.4,0.4,0.9,0.7,1.5,0.7c0.6,0,1.5,0,2.7-0.1l0,0l8.9-0.8l0.3,3.2l-8.4,0.7l0,0c-1.9,0.2-3.3,0.2-4.1,0.1
	c-0.8-0.1-1.5-0.4-2.1-0.8c-0.6-0.4-1.1-1-1.5-1.8c-0.4-0.8-0.6-1.8-0.8-3c-0.1-1.5-0.1-2.7,0.2-3.5c0.3-0.8,0.7-1.5,1.2-2
	c0.5-0.5,1.1-0.9,1.7-1.1c0.9-0.3,2.2-0.5,4-0.7l0,0L-2.7,383.1L-2.7,383.1z M-2,405.9l-1,6.4l0,0c-0.2,1.3-0.4,2.2-0.6,2.8
	c-0.2,0.6-0.5,1.1-0.9,1.6c-0.4,0.4-0.9,0.8-1.5,1c-0.6,0.2-1.2,0.3-1.9,0.2c-0.7-0.1-1.4-0.4-2-0.9c-0.6-0.5-0.9-1.1-1.1-1.9
	c-0.4,0.9-1,1.6-1.8,2c-0.8,0.4-1.6,0.5-2.5,0.4c-0.7-0.1-1.4-0.4-2-0.8c-0.6-0.4-1.1-1-1.4-1.6c-0.3-0.6-0.5-1.4-0.4-2.3
	c0-0.5,0.2-1.8,0.5-3.9l0,0l0.9-5.4L-2,405.9L-2,405.9z M-5.2,408.7l-3.7-0.6l-0.3,2.1l0,0c-0.2,1.3-0.3,2-0.3,2.3
	c0,0.6,0.1,1,0.4,1.4c0.3,0.4,0.7,0.6,1.2,0.7c0.5,0.1,0.9,0,1.3-0.2c0.3-0.2,0.6-0.6,0.8-1.1c0.1-0.3,0.2-1.2,0.5-2.7l0,0
	L-5.2,408.7L-5.2,408.7z M-11.5,407.7l-4.3-0.7l-0.5,3l0,0c-0.2,1.2-0.3,1.9-0.3,2.2c0,0.5,0.2,0.9,0.5,1.3c0.3,0.4,0.7,0.6,1.3,0.7
	c0.5,0.1,0.9,0,1.3-0.2c0.4-0.2,0.7-0.5,0.9-0.9c0.2-0.4,0.4-1.4,0.7-2.8l0,0L-11.5,407.7L-11.5,407.7z M-21.7,421.9l14.7,6.5
	l-4.9,10.9l-2.5-1.1l3.5-7.9l-3.3-1.5l-3.3,7.4l-2.5-1.1l3.3-7.4l-4-1.8l-3.7,8.2l-2.5-1.1L-21.7,421.9L-21.7,421.9z M-31.5,447.7
	c-3.4,0-6.1,2.7-6.1,6.1c0,3.4,2.7,6.1,6.1,6.1c3.4,0,6.1-2.7,6.1-6.1C-25.4,450.5-28.1,447.7-31.5,447.7L-31.5,447.7z
	 M-155.1,447.7c3.4,0,6.1,2.7,6.1,6.1c0,3.4-2.7,6.1-6.1,6.1c-3.4,0-6.1-2.7-6.1-6.1C-161.2,450.5-158.4,447.7-155.1,447.7
	L-155.1,447.7z M-184.3,375.9l0.8-2.9l0,0c-1.3-0.6-1.5-2.2-1.5-3.2l0,0l-1.9,0.7l0,0C-187.3,373.7-185.7,374.9-184.3,375.9
	L-184.3,375.9z"/>
</svg>
