<?xml version="1.0" encoding="utf-8"?>
<!-- Generator: Adobe Illustrator 19.1.0, SVG Export Plug-In . SVG Version: 6.00 Build 0)  -->
<svg version="1.1"
	 id="svg2" inkscape:output_extension="org.inkscape.output.svg.inkscape" sodipodi:version="0.32" xmlns:rdf="http://www.w3.org/1999/02/22-rdf-syntax-ns#" xmlns:sodipodi="http://sodipodi.sourceforge.net/DTD/sodipodi-0.dtd" xmlns:svg="http://www.w3.org/2000/svg" xmlns:cc="http://creativecommons.org/ns#" xmlns:inkscape="http://www.inkscape.org/namespaces/inkscape" xmlns:dc="http://purl.org/dc/elements/1.1/" sodipodi:docname="novo-escudo.svg" inkscape:version="0.46"
	 xmlns="http://www.w3.org/2000/svg" xmlns:xlink="http://www.w3.org/1999/xlink" x="0px" y="0px" viewBox="408.1 -122.1 996 996"
	 style="enable-background:new 408.1 -122.1 996 996;" xml:space="preserve">
<style type="text/css">
	.st0{fill:#FFFFFF;stroke:#E5050F;stroke-width:12;}
	.st1{fill:#E5050F;}
	.st2{fill:#FFFFFF;}
	.st3{font-family:'Arial-Black';}
	.st4{font-size:75.0134px;}
</style>
<defs>
	
	
		<inkscape:perspective  inkscape:persp3d-origin="372.04724 : 350.78739 : 1" inkscape:vp_z="744.09448 : 526.18109 : 1" sodipodi:type="inkscape:persp3d" inkscape:vp_y="0 : 1000 : 0" inkscape:vp_x="0 : 526.18109 : 1" id="perspective10">
		</inkscape:perspective>
	
		<inkscape:perspective  inkscape:persp3d-origin="372.04724 : 350.78739 : 1" inkscape:vp_z="744.09448 : 526.18109 : 1" sodipodi:type="inkscape:persp3d" inkscape:vp_y="0 : 1000 : 0" inkscape:vp_x="0 : 526.18109 : 1" id="perspective2410">
		</inkscape:perspective>
</defs>
<sodipodi:namedview  inkscape:guide-bbox="true" inkscape:document-units="px" showguides="true" showgrid="false" borderopacity="1.0" inkscape:cy="590.29421" inkscape:cx="575.0953" id="base" pagecolor="#ffffff" bordercolor="#666666" inkscape:zoom="0.1726111" inkscape:window-height="753" inkscape:window-y="-4" inkscape:window-x="-4" inkscape:pageopacity="0.0" inkscape:window-width="1280" inkscape:current-layer="layer1" inkscape:pageshadow="2">
	</sodipodi:namedview>
<g id="layer1" inkscape:label="Camada 1" inkscape:groupmode="layer">
	<g id="g3460">
		<g id="g3313">
			
				<path id="path3294" sodipodi:ry="419.44708" sodipodi:rx="419.44708" sodipodi:type="arc" sodipodi:cy="682.94574" sodipodi:cx="-1224.0469" class="st0" d="
				M1398.2,375.9c0,271.7-220.3,492-492,492s-492-220.3-492-492l0,0c0-271.7,220.3-492,492-492S1398.2,104.2,1398.2,375.9z"/>
			<g id="g3296" transform="translate(1259.98, 3.93111e-07)">
				
					<path id="path3278" sodipodi:ry="419.44708" sodipodi:rx="419.44708" sodipodi:type="arc" sodipodi:cy="682.94574" sodipodi:cx="-1224.0469" class="st0" d="
					M41.1,375.3c0,216.7-175.7,392.4-392.4,392.4S-743.7,592-743.7,375.3l0,0c0-216.7,175.7-392.4,392.4-392.4
					S41.1,158.6,41.1,375.3z"/>
				
					<path id="path2416" sodipodi:ry="484.5752" sodipodi:rx="484.5752" sodipodi:type="arc" sodipodi:cy="778.63025" sodipodi:cx="385.25232" class="st1" d="
					M25,375.1c0,208-168.6,376.6-376.6,376.7c-208,0-376.6-168.6-376.7-376.6c0,0,0-0.1,0-0.1c0-208,168.6-376.6,376.6-376.7
					C-143.7-1.6,25,167,25,375C25,375.1,25,375.1,25,375.1z"/>
				<g id="g3246" transform="translate(220.968, 51.6129)">
					<path id="path3188" sodipodi:nodetypes="cccccccc" class="st2" d="M-420.4,227.8c2.2-17.3,9.5-33,18.1-48.2l24.9,11.2
						l22.5-30.5l22.5,6.8c0.3,40.1-0.8,81.5,14.1,109.2l-11.2,14.1C-355.1,266.4-382.3,243.4-420.4,227.8z"/>
					<path id="path3190" sodipodi:nodetypes="csccccc" class="st2" d="M-462.3,269.4c-49.8-0.2-13.7-58.5-6.4-80.7
						c6.5-20-3.4-60.3-41.5-74.6V62.9c75.1,21.8,83.5,71.8,126.7,48.8v25.3C-450.9,206.2-421.4,269-462.3,269.4z"/>
					<path id="path3192" sodipodi:nodetypes="ccccc" class="st2" d="M-662.8,157.9c73.8-18.7,129.2-12.8,181.1-2.3
						c7.5,21.8,1,36.6-6,51.2c-50.8-8.3-105.1-10.4-170.5,6.9C-669.2,196.9-670.1,178.2-662.8,157.9z"/>
					<path id="path3194" sodipodi:nodetypes="cccc" class="st2" d="M-619,114c-88.5,15-68.6,119.9,0,148.2v91.5
						c-194.5-56.1-159.3-267.6,0-289V114z"/>
					<path id="path3196" sodipodi:nodetypes="ccccc" class="st2" d="M-523.3,442.7c-26.3,3.6-53.7,2.9-81.7,0V214
						c27.2-2.8,54.5-3.7,81.7,0V442.7z"/>
					<path id="path3202" sodipodi:nodetypes="cccccc" class="st2" d="M-891.6,328.6c47.4-22.9,57.8-73.2,126.8-123.8
						c2,23.5,4.7,46.4,14.6,63.4c-29.2,42.2-27.3,82.4,16.5,131.1c-10.2,23.3-22.6,40.1-36,53.7
						C-831.2,416.4-845.4,368.8-891.6,328.6z"/>
					<path id="path3204" sodipodi:nodetypes="ccccc" class="st2" d="M-671.4,497.5c17.5-19.4,22.4-33.7,29.9-49
						c46.6,9.8,100.8,13.8,182.2-2.8c8.5,17,5.3,33,2.4,49C-505.1,512-595,516.1-671.4,497.5z"/>
					<path id="path3206" sodipodi:nodetypes="ccccccssc" class="st2" d="M-805.8,489.9l6,25.9l35.9,2.4
						c41.4,29.3,85.6,56.8,145.9,74.6v-50.6c-32.7-5.6-53.7-22-69.4-43.5c46.4-50,55.9-112.7,26.5-125.5c-39.1-17-56.6,23-78.9,59.1
						C-754.3,455.9-775.3,479.3-805.8,489.9z"/>
					<path id="path3208" sodipodi:nodetypes="cccccccccc" class="st2" d="M-523.1,61.6c0.2-38.7,29.9-34,43.9-20.1
						c-2-48.6-41.4-54.3-60.3-36.8c-5.6-9.2-12.8-16.2-24.4-21.9c-10.3,4.9-18.6,12.1-24.9,21.4c-17.8-16.3-58.5-12.3-60.3,36.6
						c15-13,43.3-17.5,43.3,21l0.2,74.1c26.5-2,54-2.2,82.5-0.2L-523.1,61.6z"/>
					<path id="path3216" sodipodi:nodetypes="cccccccccc" class="st2" d="M-523,594.6c0.2,38.7,29.9,34,43.9,20.1
						c-2,48.6-41.4,54.3-60.3,36.8c-5.6,9.2-12.8,16.2-24.4,21.9c-10.3-4.9-18.6-12.1-24.9-21.4c-17.8,16.3-58.5,12.3-60.3-36.6
						c15,13,43.3,17.5,43.3-21l0.2-74.1c26.5,2,54,2.2,82.5,0.2L-523,594.6z"/>
					<path id="path3218" sodipodi:nodetypes="ccccsc" class="st2" d="M-511,299v87.6c100.2,33.3,84.3,158.1,1.3,155.1v50.4
						c107.4-10.6,149-77.3,149.6-142.2C-359.3,375.6-418.1,322.9-511,299z"/>
					<path id="path3222" sodipodi:nodetypes="ccccc" class="st2" d="M-349,446.8c0.1-11.4,1.1-21.6-6.4-44l23.1-15.4l26.1,21.4
						C-316.5,424.2-332,436-349,446.8z"/>
				</g>
			</g>
		</g>
		<text transform="matrix(0.1271 -0.9919 0.9919 0.1271 488.1589 385.3375)" class="st1 st3 st4">S</text>
		<text transform="matrix(9.156010e-02 -0.9958 0.9958 9.156010e-02 495.4752 325.9607)" class="st1 st3 st4">.</text>
		<text transform="matrix(0.2859 -0.9582 0.9582 0.2859 507.0052 267.7718)" class="st1 st3 st4">C</text>
		<text transform="matrix(0.3638 -0.9315 0.9315 0.3638 527.4652 209.4831)" class="st1 st3 st4">.</text>
		<text transform="matrix(0.5604 -0.8282 0.8282 0.5604 549.6368 161.019)" class="st1 st3 st4">I</text>
		<text transform="matrix(0.6797 -0.7335 0.7335 0.6797 585.3694 110.2577)" class="st1 st3 st4">N</text>
		<text transform="matrix(0.8421 -0.5393 0.5393 0.8421 654.4539 43.222)" class="st1 st3 st4">T</text>
		<text transform="matrix(0.9218 -0.3878 0.3878 0.9218 727.5827 1.4786)" class="st1 st3 st4">E</text>
		<text transform="matrix(0.9825 -0.1862 0.1862 0.9825 805.3453 -28.7707)" class="st1 st3 st4">R</text>
		<text transform="matrix(1 2.734490e-03 -2.734490e-03 1 897.3246 -39.857)" class="st1 st3 st4">N</text>
		<text transform="matrix(0.9694 0.2457 -0.2457 0.9694 996.6415 -32.3383)" class="st1 st3 st4">A</text>
		<text transform="matrix(0.839 0.5442 -0.5442 0.839 1082.1757 -5.4428)" class="st1 st3 st4">C</text>
		<text transform="matrix(0.787 0.617 -0.617 0.787 1159.5092 42.855)" class="st1 st3 st4">I</text>
		<text transform="matrix(0.6864 0.7272 -0.7272 0.6864 1204.0676 82.2446)" class="st1 st3 st4">O</text>
		<text transform="matrix(0.4774 0.8787 -0.8787 0.4774 1264.23 159.2636)" class="st1 st3 st4">N</text>
		<text transform="matrix(0.2386 0.9711 -0.9711 0.2386 1307.1508 249.4109)" class="st1 st3 st4">A</text>
		<text transform="matrix(4.443410e-02 0.999 -0.999 4.443410e-02 1324.5544 336.4919)" class="st1 st3 st4">L</text>
		<text transform="matrix(0.9678 0.2517 -0.2517 0.9678 753.0425 821.521)" class="st1 st3 st4">1</text>
		<text transform="matrix(0.9903 0.1391 -0.1391 0.9903 837.8169 841.0042)" class="st1 st3 st4">9</text>
		<text transform="matrix(0.9909 -0.1343 0.1343 0.9909 928.2297 847.8018)" class="st1 st3 st4">0</text>
		<text transform="matrix(0.9838 -0.1792 0.1792 0.9838 1012.905 832.2304)" class="st1 st3 st4">9</text>
	</g>
</g>
</svg>
