<?xml version="1.0" encoding="utf-8"?>
<!-- Generator: Adobe Illustrator 19.1.0, SVG Export Plug-In . SVG Version: 6.00 Build 0)  -->
<svg version="1.1" id="Layer_1" xmlns="http://www.w3.org/2000/svg" xmlns:xlink="http://www.w3.org/1999/xlink" x="0px" y="0px"
	 viewBox="-190.4 303.1 155.6 187.1" style="enable-background:new -190.4 303.1 155.6 187.1;" xml:space="preserve">
<style type="text/css">
	.st0{fill:#FFFFFF;}
	.st1{fill:#CD3529;}
	.st2{fill:none;stroke:#000000;stroke-width:2.0521;stroke-miterlimit:2.6131;}
	.st3{fill:none;stroke:#000000;stroke-width:1.0256;stroke-linecap:round;stroke-linejoin:round;stroke-miterlimit:2.6131;}
</style>
<g>
	<path d="M-153.8,326.4c-2,0-26.4,0-26.4,0c-3.6,0-10.3,2.5-10.3,11.3c0,0,0,0,0,0c0,0.6,0.2,6.3,4.4,9.5c0,2,0,59.6,0,59.6
		c0,0.3,0.2,6.2,4.2,10.2l-0.1-0.1l61.6,69.5c0.1,0.2,3.4,3.8,7.8,3.8c4.4,0,7.6-3.6,7.8-3.8l61.6-69.5l-0.1,0.1
		c4-4,4.2-9.9,4.2-10.1c0,0,0-57.6,0-59.6c4.2-3.1,4.4-8.8,4.4-9.5c0,0,0-0.1,0-0.1c0-8.8-6.7-11.2-10.2-11.3c0,0-24.4,0-26.4,0
		c-8.7-14.4-24.3-23.4-41.2-23.4C-129.5,303.1-145.1,312-153.8,326.4L-153.8,326.4z M-117.3,483.7l-61.6-69.5l0,0
		c-2.8-2.8-3-7.3-3-7.3l0-61.8l-1.1-0.6c-3.3-1.8-3.3-6.6-3.3-6.6c0-6.7,5.2-7.2,6.2-7.2l28.6,0l0.6-1c7.8-13.8,22.5-22.3,38.3-22.3
		c15.8,0,30.5,8.5,38.3,22.3l0.6,1l28.7,0c1,0,6.2,0.5,6.2,7.2c0,0,0,0,0,0c0,0.1,0,4.9-3.3,6.6l-1.1,0.6v61.8c0,0-0.2,4.5-3,7.3
		l0,0l-61.6,69.6c0,0-2.2,2.4-4.7,2.4C-115.1,486.1-117.3,483.7-117.3,483.7L-117.3,483.7z"/>
	<path class="st0" d="M-45.1,328.5l-27.5,0c-0.1-0.1-0.1-0.2-0.2-0.4c-0.4-0.6-0.7-1.2-1.1-1.9c-0.1-0.2-0.2-0.3-0.3-0.5
		c-0.5-0.8-1-1.5-1.6-2.3c0,0-0.1-0.1-0.1-0.1c-0.5-0.7-1.1-1.4-1.6-2c-0.1-0.2-0.3-0.3-0.4-0.5c-0.5-0.6-1-1.2-1.6-1.7
		c-0.1-0.1-0.2-0.2-0.3-0.3c-0.7-0.7-1.3-1.3-2-1.9c-0.1-0.1-0.1-0.1-0.2-0.2c-0.6-0.5-1.3-1.1-1.9-1.6c-0.2-0.1-0.3-0.3-0.5-0.4
		c-0.6-0.5-1.3-1-1.9-1.4c-0.1-0.1-0.2-0.1-0.3-0.2c-0.8-0.5-1.6-1-2.4-1.5c-0.1-0.1-0.2-0.1-0.4-0.2c-0.7-0.4-1.4-0.8-2-1.1
		c-0.2-0.1-0.4-0.2-0.6-0.3c-0.7-0.4-1.5-0.7-2.2-1c-0.1,0-0.2-0.1-0.3-0.1c-0.9-0.4-1.7-0.7-2.6-1c-0.2-0.1-0.4-0.1-0.6-0.2
		c-0.7-0.2-1.4-0.5-2.1-0.7c-0.2-0.1-0.5-0.1-0.7-0.2c-0.8-0.2-1.7-0.4-2.5-0.6c-0.1,0-0.2,0-0.2-0.1c-0.9-0.2-1.8-0.3-2.8-0.5
		c-0.3,0-0.5-0.1-0.8-0.1c-0.7-0.1-1.4-0.2-2.1-0.2c-0.3,0-0.5,0-0.8-0.1c-0.9-0.1-1.9-0.1-2.9-0.1s-1.9,0-2.9,0.1
		c-0.3,0-0.5,0-0.8,0.1c-0.7,0.1-1.4,0.1-2.1,0.2c-0.3,0-0.5,0.1-0.8,0.1c-0.9,0.1-1.9,0.3-2.8,0.5c-0.1,0-0.2,0-0.2,0.1
		c-0.8,0.2-1.7,0.4-2.5,0.6c-0.2,0.1-0.5,0.1-0.7,0.2c-0.7,0.2-1.4,0.4-2.1,0.7c-0.2,0.1-0.4,0.1-0.6,0.2c-0.9,0.3-1.7,0.6-2.6,1
		c-0.1,0-0.2,0.1-0.3,0.1c-0.8,0.3-1.5,0.7-2.2,1c-0.2,0.1-0.4,0.2-0.6,0.3c-0.7,0.4-1.4,0.7-2,1.1c-0.1,0.1-0.3,0.1-0.4,0.2
		c-0.8,0.5-1.6,1-2.3,1.5c-0.1,0.1-0.2,0.1-0.3,0.2c-0.7,0.5-1.3,0.9-1.9,1.4c-0.2,0.1-0.3,0.3-0.5,0.4c-0.6,0.5-1.3,1-1.9,1.6
		c-0.1,0.1-0.1,0.1-0.2,0.2c-0.7,0.6-1.4,1.3-2,1.9c-0.1,0.1-0.2,0.2-0.3,0.3c-0.5,0.6-1.1,1.1-1.6,1.7c-0.1,0.2-0.3,0.3-0.4,0.5
		c-0.6,0.7-1.1,1.3-1.6,2c0,0-0.1,0.1-0.1,0.1c-0.6,0.7-1.1,1.5-1.6,2.3c-0.1,0.2-0.2,0.3-0.3,0.5c-0.4,0.6-0.8,1.2-1.1,1.9
		c-0.1,0.1-0.2,0.2-0.2,0.4l-27.5,0c0,0-8.2,0.1-8.2,9.2c0,0-0.1,6.1,4.4,8.5v60.6c0,0,0.1,5.3,3.6,8.7l61.6,69.5
		c0,0,2.7,3.1,6.2,3.1c3.5,0,6.2-3.1,6.2-3.1l61.6-69.5c3.5-3.5,3.6-8.7,3.6-8.7v-60.6c4.4-2.4,4.4-8.5,4.4-8.5
		C-36.9,328.6-45.1,328.5-45.1,328.5L-45.1,328.5z M-142.5,448.4l-30.6-34.2c-3.8-3.8-4.1-11.5-4.1-11.5v-54
		c0-9.7-5.3-13.7-5.3-13.7h26.7c-1.9,5-2.9,10.4-2.9,16.1c0,14,6.3,26.6,16.2,35V448.4L-142.5,448.4z M-48.1,348.8v54
		c0,0-0.3,7.7-4.1,11.5l-30.6,34.2v-62.3c9.9-8.4,16.2-21,16.2-35c0-5.7-1-11.1-2.9-16.1h26.7C-42.8,335.1-48.1,339-48.1,348.8
		L-48.1,348.8z"/>
	<path class="st0" d="M-89.4,311.4c0.1,0.1,0.2,0.1,0.4,0.2C-89.1,311.6-89.3,311.5-89.4,311.4L-89.4,311.4z"/>
	<path class="st0" d="M-122.2,306.1c0.1,0,0.2,0,0.2-0.1C-122.1,306.1-122.1,306.1-122.2,306.1L-122.2,306.1z"/>
	<path class="st0" d="M-92,310c0.2,0.1,0.4,0.2,0.6,0.3C-91.6,310.2-91.8,310.1-92,310L-92,310z"/>
	<path class="st0" d="M-86.7,313.1c0.1,0.1,0.2,0.1,0.3,0.2C-86.5,313.3-86.6,313.2-86.7,313.1L-86.7,313.1z"/>
	<path class="st0" d="M-84.4,314.8c0.2,0.1,0.3,0.3,0.5,0.4C-84.1,315-84.3,314.9-84.4,314.8L-84.4,314.8z"/>
	<path class="st0" d="M-128.1,307.8c0.2-0.1,0.4-0.1,0.6-0.2C-127.7,307.7-127.9,307.7-128.1,307.8L-128.1,307.8z"/>
	<path class="st0" d="M-125.4,307c0.2-0.1,0.5-0.1,0.7-0.2C-124.9,306.8-125.2,306.9-125.4,307L-125.4,307z"/>
	<path class="st0" d="M-116.3,305.3c0.3,0,0.5,0,0.8-0.1C-115.8,305.2-116,305.3-116.3,305.3L-116.3,305.3z"/>
	<path class="st0" d="M-100.5,306.7c0.2,0.1,0.5,0.1,0.7,0.2C-100.1,306.9-100.3,306.8-100.5,306.7L-100.5,306.7z"/>
	<path class="st0" d="M-109.8,305.2c0.3,0,0.5,0,0.8,0.1C-109.2,305.3-109.5,305.2-109.8,305.2L-109.8,305.2z"/>
	<path class="st0" d="M-106.8,305.5c0.3,0,0.5,0.1,0.8,0.1C-106.3,305.6-106.5,305.5-106.8,305.5L-106.8,305.5z"/>
	<path class="st0" d="M-97.7,307.6c0.2,0.1,0.4,0.1,0.6,0.2C-97.3,307.7-97.5,307.7-97.7,307.6L-97.7,307.6z"/>
	<path class="st0" d="M-119.2,305.6c0.3,0,0.5-0.1,0.8-0.1C-118.7,305.5-119,305.6-119.2,305.6L-119.2,305.6z"/>
	<path class="st0" d="M-94.5,308.8c0.1,0,0.2,0.1,0.3,0.1C-94.4,308.9-94.5,308.9-94.5,308.8L-94.5,308.8z"/>
	<path class="st0" d="M-131,308.9c0.1,0,0.2-0.1,0.3-0.1C-130.8,308.9-130.9,308.9-131,308.9L-131,308.9z"/>
	<path class="st0" d="M-145.7,319.2c0.1-0.1,0.2-0.2,0.3-0.3C-145.5,319-145.6,319.1-145.7,319.2L-145.7,319.2z"/>
	<path class="st0" d="M-147.7,321.4c0.1-0.2,0.3-0.3,0.4-0.5C-147.4,321.1-147.6,321.2-147.7,321.4L-147.7,321.4z"/>
	<path class="st0" d="M-143.4,316.9c0.1-0.1,0.1-0.1,0.2-0.2C-143.3,316.8-143.3,316.9-143.4,316.9L-143.4,316.9z"/>
	<path class="st0" d="M-149.4,323.5c0,0,0.1-0.1,0.1-0.1C-149.3,323.4-149.4,323.5-149.4,323.5L-149.4,323.5z"/>
	<path class="st0" d="M-82.1,316.8c0.1,0.1,0.1,0.1,0.2,0.2C-81.9,316.9-82,316.8-82.1,316.8L-82.1,316.8z"/>
	<path class="st0" d="M-74.2,325.8c0.1,0.2,0.2,0.3,0.3,0.5C-74,326.1-74.1,325.9-74.2,325.8L-74.2,325.8z"/>
	<path class="st0" d="M-151.3,326.3c0.1-0.2,0.2-0.3,0.3-0.5C-151.1,325.9-151.2,326.1-151.3,326.3L-151.3,326.3z"/>
	<path class="st0" d="M-103.3,306.1c0.1,0,0.2,0,0.2,0.1C-103.1,306.1-103.2,306.1-103.3,306.1L-103.3,306.1z"/>
	<path class="st0" d="M-79.8,318.9c0.1,0.1,0.2,0.2,0.3,0.3C-79.6,319.1-79.7,319-79.8,318.9L-79.8,318.9z"/>
	<path class="st0" d="M-136.2,311.6c0.1-0.1,0.3-0.1,0.4-0.2C-136,311.5-136.1,311.6-136.2,311.6L-136.2,311.6z"/>
	<path class="st0" d="M-133.8,310.3c0.2-0.1,0.4-0.2,0.6-0.3C-133.4,310.1-133.6,310.2-133.8,310.3L-133.8,310.3z"/>
	<path class="st0" d="M-75.9,323.4c0,0,0.1,0.1,0.1,0.1C-75.9,323.5-75.9,323.4-75.9,323.4L-75.9,323.4z"/>
	<path class="st0" d="M-78,320.9c0.1,0.2,0.3,0.3,0.4,0.5C-77.7,321.2-77.8,321.1-78,320.9L-78,320.9z"/>
	<path class="st0" d="M-141.3,315.2c0.2-0.1,0.3-0.3,0.5-0.4C-141,314.9-141.1,315-141.3,315.2L-141.3,315.2z"/>
	<path class="st0" d="M-138.9,313.4c0.1-0.1,0.2-0.1,0.3-0.2C-138.7,313.2-138.8,313.3-138.9,313.4L-138.9,313.4z"/>
	<path d="M-158.6,351.2c0-5.7,1-11.1,2.9-16.1h-26.7c0,0,5.3,3.9,5.3,13.7v54c0,0,0.3,7.7,4.1,11.5l30.6,34.2v-62.3
		C-152.4,377.7-158.6,365.2-158.6,351.2L-158.6,351.2z"/>
	<path class="st1" d="M-82.8,386.2v62.3l30.6-34.2c3.8-3.8,4.1-11.5,4.1-11.5v-54c0-9.7,5.3-13.7,5.3-13.7h-26.7
		c1.9,5,2.9,10.4,2.9,16.1C-66.6,365.2-72.9,377.7-82.8,386.2L-82.8,386.2z"/>
	<path class="st0" d="M-77.5,321.4c0.6,0.7,1.1,1.3,1.6,2C-76.4,322.7-77,322-77.5,321.4L-77.5,321.4z"/>
	<path class="st0" d="M-140.8,314.8c0.6-0.5,1.3-1,1.9-1.4C-139.5,313.8-140.2,314.3-140.8,314.8L-140.8,314.8z"/>
	<path class="st0" d="M-138.6,313.1c0.8-0.5,1.6-1,2.3-1.5C-137,312.1-137.8,312.6-138.6,313.1L-138.6,313.1z"/>
	<path class="st0" d="M-135.8,311.4c0.7-0.4,1.3-0.8,2-1.1C-134.5,310.7-135.2,311-135.8,311.4L-135.8,311.4z"/>
	<path class="st0" d="M-75.8,323.5c0.6,0.7,1.1,1.5,1.6,2.3C-74.8,325-75.3,324.2-75.8,323.5L-75.8,323.5z"/>
	<path class="st0" d="M-81.9,316.9c0.7,0.6,1.4,1.3,2,1.9C-80.5,318.2-81.2,317.6-81.9,316.9L-81.9,316.9z"/>
	<path class="st0" d="M-79.5,319.2c0.5,0.6,1.1,1.1,1.6,1.7C-78.5,320.3-79,319.7-79.5,319.2L-79.5,319.2z"/>
	<path class="st0" d="M-149.3,323.4c0.5-0.7,1.1-1.3,1.6-2C-148.3,322-148.8,322.7-149.3,323.4L-149.3,323.4z"/>
	<path class="st0" d="M-143.2,316.8c0.6-0.5,1.2-1.1,1.9-1.6C-141.9,315.7-142.6,316.2-143.2,316.8L-143.2,316.8z"/>
	<path class="st0" d="M-133.2,310c0.7-0.4,1.5-0.7,2.2-1C-131.7,309.3-132.5,309.6-133.2,310L-133.2,310z"/>
	<path class="st0" d="M-152.5,328.1c0.4-0.6,0.7-1.2,1.1-1.9C-151.7,326.9-152.1,327.5-152.5,328.1L-152.5,328.1z"/>
	<path class="st0" d="M-151,325.8c0.5-0.8,1-1.5,1.6-2.3C-150,324.2-150.5,325-151,325.8L-151,325.8z"/>
	<path class="st0" d="M-73.9,326.3c0.4,0.6,0.8,1.2,1.1,1.9C-73.1,327.5-73.5,326.9-73.9,326.3L-73.9,326.3z"/>
	<path class="st0" d="M-147.3,320.9c0.5-0.6,1-1.1,1.6-1.7C-146.3,319.7-146.8,320.3-147.3,320.9L-147.3,320.9z"/>
	<path class="st0" d="M-145.4,318.9c0.7-0.7,1.3-1.3,2-1.9C-144.1,317.6-144.8,318.2-145.4,318.9L-145.4,318.9z"/>
	<path class="st0" d="M-115.5,305.2c1-0.1,1.9-0.1,2.9-0.1C-113.6,305.1-114.5,305.2-115.5,305.2L-115.5,305.2z"/>
	<path class="st0" d="M-97.1,307.8c0.9,0.3,1.7,0.6,2.6,1C-95.4,308.5-96.3,308.1-97.1,307.8L-97.1,307.8z"/>
	<path class="st0" d="M-106,305.6c0.9,0.1,1.9,0.3,2.8,0.5C-104.2,305.9-105.1,305.7-106,305.6L-106,305.6z"/>
	<path class="st0" d="M-118.5,305.5c0.7-0.1,1.4-0.2,2.1-0.2C-117,305.3-117.7,305.4-118.5,305.5L-118.5,305.5z"/>
	<path class="st0" d="M-112.6,305.1c1,0,1.9,0,2.9,0.1C-110.7,305.2-111.7,305.1-112.6,305.1L-112.6,305.1z"/>
	<path class="st0" d="M-94.3,308.9c0.8,0.3,1.5,0.7,2.2,1C-92.8,309.6-93.5,309.3-94.3,308.9L-94.3,308.9z"/>
	<path class="st0" d="M-108.9,305.3c0.7,0.1,1.4,0.1,2.1,0.2C-107.5,305.4-108.2,305.3-108.9,305.3L-108.9,305.3z"/>
	<path class="st0" d="M-99.8,307c0.7,0.2,1.4,0.4,2.1,0.7C-98.4,307.4-99.1,307.2-99.8,307L-99.8,307z"/>
	<path class="st0" d="M-84,315.2c0.6,0.5,1.3,1,1.9,1.6C-82.7,316.2-83.3,315.7-84,315.2L-84,315.2z"/>
	<path class="st0" d="M-86.4,313.4c0.7,0.5,1.3,0.9,1.9,1.4C-85.1,314.3-85.7,313.8-86.4,313.4L-86.4,313.4z"/>
	<path class="st0" d="M-89,311.6c0.8,0.5,1.6,1,2.4,1.5C-87.4,312.6-88.2,312.1-89,311.6L-89,311.6z"/>
	<path class="st0" d="M-122,306.1c0.9-0.2,1.8-0.3,2.8-0.5C-120.1,305.7-121.1,305.9-122,306.1L-122,306.1z"/>
	<path class="st0" d="M-127.5,307.6c0.7-0.2,1.4-0.5,2.1-0.7C-126.1,307.2-126.8,307.4-127.5,307.6L-127.5,307.6z"/>
	<path class="st0" d="M-130.7,308.8c0.9-0.4,1.7-0.7,2.6-1C-129,308.1-129.8,308.5-130.7,308.8L-130.7,308.8z"/>
	<path class="st0" d="M-103,306.1c0.8,0.2,1.7,0.4,2.5,0.6C-101.4,306.5-102.2,306.3-103,306.1L-103,306.1z"/>
	<path class="st0" d="M-91.4,310.3c0.7,0.4,1.4,0.7,2,1.1C-90.1,311-90.7,310.7-91.4,310.3L-91.4,310.3z"/>
	<path class="st0" d="M-124.7,306.7c0.8-0.2,1.6-0.4,2.5-0.6C-123,306.3-123.9,306.5-124.7,306.7L-124.7,306.7z"/>
	<path class="st2" d="M-80.4,351.2c0,17.8-14.4,32.2-32.2,32.2c-17.8,0-32.2-14.4-32.2-32.2c0-17.8,14.4-32.2,32.2-32.2
		C-94.8,318.9-80.4,333.4-80.4,351.2"/>
	<polygon class="st1" points="-141.9,319.5 -140.9,322.8 -137.3,322.8 -140.2,324.9 -139.1,328.2 -141.9,326.2 -144.8,328.2 
		-143.7,324.9 -146.6,322.8 -143,322.8 	"/>
	<polygon class="st1" points="-124,308.2 -122.9,311.5 -119.4,311.5 -122.2,313.6 -121.1,317 -124,314.9 -126.8,317 -125.8,313.6 
		-128.6,311.5 -125.1,311.5 	"/>
	<polygon class="st1" points="-151.2,338.5 -150.1,341.8 -146.6,341.8 -149.4,343.9 -148.3,347.2 -151.2,345.2 -154,347.2 
		-152.9,343.9 -155.8,341.8 -152.3,341.8 	"/>
	<polygon class="st1" points="-150.2,359 -149.1,362.3 -145.5,362.3 -148.4,364.4 -147.3,367.7 -150.2,365.7 -153,367.7 
		-151.9,364.4 -154.8,362.3 -151.2,362.3 	"/>
	<polygon class="st1" points="-139.4,375.4 -138.3,378.7 -134.8,378.7 -137.6,380.8 -136.5,384.2 -139.4,382.1 -142.2,384.2 
		-141.1,380.8 -144,378.7 -140.5,378.7 	"/>
	<polygon class="st1" points="-83.3,319.5 -84.4,322.8 -87.9,322.8 -85.1,324.9 -86.1,328.2 -83.3,326.2 -80.5,328.2 -81.5,324.9 
		-78.7,322.8 -82.2,322.8 	"/>
	<polygon class="st1" points="-101.3,308.2 -102.3,311.5 -105.9,311.5 -103,313.6 -104.1,317 -101.3,314.9 -98.4,317 -99.5,313.6 
		-96.6,311.5 -100.2,311.5 	"/>
	<polygon class="st1" points="-74.1,338.5 -75.2,341.8 -78.7,341.8 -75.8,343.9 -76.9,347.2 -74.1,345.2 -71.2,347.2 -72.3,343.9 
		-69.5,341.8 -73,341.8 	"/>
	<polygon class="st1" points="-75.1,359 -76.2,362.3 -79.7,362.3 -76.9,364.4 -77.9,367.7 -75.1,365.7 -72.2,367.7 -73.3,364.4 
		-70.5,362.3 -74,362.3 	"/>
	<polygon class="st1" points="-85.9,375.4 -87,378.7 -90.5,378.7 -87.6,380.8 -88.7,384.2 -85.9,382.1 -83,384.2 -84.1,380.8 
		-81.3,378.7 -84.8,378.7 	"/>
	<path d="M-126,459.6h0.2c1.7,0,2.1-0.9,2.1-1.5h1.4v8.7h-1.7v-6h-2.1L-126,459.6L-126,459.6z"/>
	<path d="M-118,461c0-1.3,0.8-1.5,1.2-1.5c0.9,0,1.3,0.6,1.3,1.6c0,1-0.7,1.5-1.3,1.5C-117.3,462.6-118,462.3-118,461L-118,461z
		 M-119.5,464.8c0.1,1.4,1.2,2.3,2.7,2.3c1.6,0,3.2-1.1,3.2-4.5c0-1.2-0.1-4.5-3.1-4.5c-1.7,0-3,1-3,3.1c0,1.5,1,2.7,2.6,2.7
		c0.6,0,1.3-0.1,1.7-0.7l0,0c0,1.8-0.7,2.4-1.4,2.4c-0.5,0-0.9-0.3-1-0.9v0L-119.5,464.8L-119.5,464.8z"/>
	<path d="M-106.8,459.6c-0.8,0.9-3,3.5-3.2,7.3h-1.8c0.2-3.5,2.4-6.3,3.1-7.1h-4.3l0-1.5h6.2L-106.8,459.6L-106.8,459.6z"/>
	<path d="M-101.9,464c0,1.2-0.6,1.7-1.2,1.7c-0.8,0-1.4-0.7-1.4-1.6c0-1.1,0.7-1.5,1.3-1.5C-102.6,462.6-101.9,462.9-101.9,464
		L-101.9,464z M-100.3,460.3c-0.2-0.9-0.3-1.2-0.8-1.6c-0.4-0.4-1.4-0.6-1.8-0.6c-3,0-3.2,2.9-3.2,4.6c0,2.2,0.5,4.4,3.2,4.4
		c1.7,0,2.9-1.3,2.9-3.2c0-1.3-0.9-2.7-2.7-2.7c-1,0-1.4,0.4-1.6,0.7l0,0c0.1-1.1,0.3-2.4,1.4-2.4c0.6,0,1,0.3,1,0.8L-100.3,460.3
		L-100.3,460.3z"/>
	<path class="st1" d="M-93,343.5c-0.3,0.8-0.6,1.2-1.3,1.9c-1,0.8-2.1,1.4-3.2,1.8c-1.1,0.4-2.2,0.5-3.2,0.3
		c-0.9-0.1-1.7-0.4-2.3-0.8c-0.6-0.4-1.2-1.1-1.6-1.8L-90,338c-0.8-2.1-1.9-3.8-3.4-5.1c-1.5-1.3-3.1-2.1-5-2.3
		c-2.9-0.4-5.5,0.3-7.8,2c-2.3,1.7-3.6,4.1-4.1,7.1c-0.4,3.1,0.2,5.8,1.9,8.2c1.7,2.4,3.9,3.8,6.8,4.2c1.5,0.2,3,0.1,4.5-0.3
		c1.5-0.4,2.8-1.1,4-2c0,0,2.3-1.6,3.4-4.5L-93,343.5L-93,343.5z M-105.5,340.4c0-0.2,0-0.5,0.1-0.7c0.2-1.6,0.9-2.8,2.2-3.7
		c1.2-0.9,2.7-1.3,4.2-1.1c0.6,0.1,1.2,0.3,1.7,0.5c0.5,0.3,1,0.6,1.4,1.1l-9.6,4.7C-105.5,340.9-105.5,340.7-105.5,340.4
		L-105.5,340.4z"/>
	<path class="st1" d="M-92.4,355.3l-2.2,4.2c-1-0.6-1.8-1-2.5-1.3s-1.5-0.4-2.2-0.4c-1.6,0-3,0.6-4,1.7s-1.6,2.6-1.6,4.3
		c0,1.7,0.5,3.2,1.6,4.3c1.1,1.1,2.4,1.7,4,1.7c0.8,0,1.6-0.2,2.4-0.5c0.9-0.4,1.8-0.9,2.8-1.6l1.9,4.7c-1.1,0.8-2.3,1.3-3.6,1.8
		s-2.4,0.6-3.5,0.6c-3.1,0-5.7-1-7.7-3.1c-2.1-2.1-3.1-4.6-3.1-7.7c0-3.1,1-5.6,3.1-7.7c2.1-2.1,4.7-3.1,7.8-3.1
		c1,0,2.2,0.2,3.3,0.6C-94.8,354-93.6,354.6-92.4,355.3L-92.4,355.3z"/>
	<path d="M-112.2,333.2h-7.1v26.7c0,5.5-5.1,5.6-5.1,5.6c-6.4,0-5.8-5.6-5.8-5.6v-5.1h-7.1v7.1c0,0,0.8,10.7,12.7,10.7
		c0,0,12.3-0.1,12.3-10.7V333.2L-112.2,333.2z"/>
	<path d="M-111.9,328.5c0,2.2-1.8,4.1-4.1,4.1c-2.2,0-4.1-1.8-4.1-4.1c0-2.2,1.8-4.1,4.1-4.1S-111.9,326.2-111.9,328.5L-111.9,328.5
		z"/>
	<path class="st3" d="M-123.1,426.7c0,0,11.6-4.6,19-2.6c0,0-7.4,6.3-20,4.8 M-121.9,431.3c0,0,1.5-1.7,4.8-1.7c0,0,6.1,0.1,6.1,1.9
		c0,0-0.1,0.7-1.7,1.4c-0.5,0.2-1,0.5-2.2,1.4c-0.7,0.6-4.1,5.9-6.7,5.9 M-121.6,440.3h-0.8v-0.9 M-122.3,439.4c0,0,0.2-4.2,7.2-7.2
		 M-115.2,432.2l-4.1,0 M-119.2,432.2c0,0,1.7,0.3,2.4,0.8 M-113.3,424.1c0,0,3.1-1.9,3.6-5.4c0,0-12,2.4-20.9,13.2
		c0,0-0.9,1.2-0.9,2.3c0,0-0.1,3.5,4.2,4.2 M-128.3,439.4c0,0,2.2-3.1,5.6-3.1c0,0,1.3,0.1,1.7,0.5 M-128.8,430c0,0-4.3-0.1-9.3,5.2
		c0,0-0.8,0.8-0.8,1.3c0,0,0,0.9,1,0.9c0,0,0.8-0.1,1.4-0.6c0.6-0.6,3.6-4.1,5.9-4.8 M-115.5,435.1c1-1,3.2-0.9,3.2-0.9
		c3.2,0,6.8,4.2,6.8,4.2 M-105.5,438.4h3.8 M-101.7,438.4c0,0-0.3,2.2-1.4,3.1c0,0,1.3-0.3,1.7-1.2c0,0,1.8,0.1,2.6,0.5
		c0.8,0.4,2.1,1,4.2,0.4c2.2-0.6,4.1-0.1,5.4,0.9c1.3,1,1.9,2.4,1.9,3.5c0,0-6.4-2.8-10.9-2.8c0,0-3.7-0.1-5.5,1.3
		c-2.1,1.6-3.8,2.8-6.7,1.7c-2.8-1.2-6.2-0.5-8.1,0.6c-1.9,1.2-2.9,1.5-5.5,0.4c-2.6-1.2-9.9,0.1-10.8,0.8c0,0,2.3-4.1,6.2-4.1
		s5.1,1.2,5.1,1.2s1.9,1.2,2.6,1.2c0,0,3.1-4.7,6.3-6.5 M-118.3,438.4c0,0,0.2,2.8,2.2,1.8 M-128.5,434.5c0,0,0.9-0.8,1.8-0.9"/>
</g>
</svg>
