<?xml version="1.0" encoding="utf-8"?>
<!-- Generator: Adobe Illustrator 19.1.0, SVG Export Plug-In . SVG Version: 6.00 Build 0)  -->
<svg version="1.1" id="Layer_1" xmlns="http://www.w3.org/2000/svg" xmlns:xlink="http://www.w3.org/1999/xlink" x="0px" y="0px"
	 viewBox="-200.5 308.8 175.7 175.7" style="enable-background:new -200.5 308.8 175.7 175.7;" xml:space="preserve">
<style type="text/css">
	.st0{fill:#3F7249;}
	.st1{fill:#FFFFFF;}
</style>
<g>
	<path class="st0" d="M-200.5,484.5L-200.5,484.5L-200.5,484.5L-200.5,484.5z M-112.6,484.4c48.4,0,87.8-39.5,87.8-87.8
		c0-48.3-39.5-87.8-87.8-87.8c-48.4,0-87.8,39.5-87.8,87.8C-200.4,445-161,484.4-112.6,484.4L-112.6,484.4z"/>
	<path class="st1" d="M-112.6,481.6c-23.4,0-44.6-9.6-60-25c-15.4-15.4-24.9-36.7-24.9-60c0-23.4,9.6-44.6,24.9-60
		c15.5-15.4,36.7-25,60-25c23.4,0,44.7,9.6,60,25c15.4,15.4,25,36.7,25,60c0,23.4-9.6,44.6-25,60C-67.9,472-89.2,481.6-112.6,481.6
		L-112.6,481.6z"/>
	<path class="st0" d="M-112.6,479.8c22.9,0,43.7-9.4,58.8-24.5c15-15,24.4-35.9,24.4-58.8c0-22.8-9.4-43.7-24.4-58.7
		c-15.1-15.1-35.9-24.5-58.8-24.5c-22.8,0-43.6,9.4-58.7,24.5c-15.1,15-24.5,35.9-24.5,58.7c0,22.9,9.4,43.7,24.5,58.8
		C-156.2,470.4-135.4,479.8-112.6,479.8L-112.6,479.8z"/>
	<polygon class="st1" points="-157.5,337 -158.5,339.4 -156.6,341.1 -159.2,340.8 -160.3,343.2 -160.8,340.6 -163.3,340.4 
		-161.1,339.1 -161.7,336.5 -159.7,338.3 	"/>
	<polygon class="st1" points="-163.3,344 -164.3,347.1 -161.5,349 -164.9,349.1 -165.7,352.2 -166.9,349.2 -170.2,349.3 
		-167.6,347.3 -168.7,344.1 -166,346 	"/>
	<polygon class="st1" points="-169.6,354.2 -169.7,358.2 -165.9,359.5 -169.8,360.7 -169.8,364.6 -172.2,361.4 -175.9,362.5 
		-173.6,359.4 -175.9,356 -172,357.4 	"/>
	<polygon class="st1" points="-174.1,366.9 -173,372.7 -167.2,373.5 -172.4,376.3 -171.4,382.1 -175.6,378 -180.8,380.8 
		-178.3,375.5 -182.5,371.4 -176.6,372.2 	"/>
	<polygon class="st1" points="-67.7,337 -66.6,339.4 -68.6,341.1 -65.9,340.8 -64.9,343.2 -64.3,340.6 -61.8,340.4 -64,339.1 
		-63.4,336.5 -65.4,338.3 	"/>
	<polygon class="st1" points="-61.8,344 -60.9,347.1 -63.6,349 -60.3,349.1 -59.4,352.2 -58.3,349.2 -55,349.3 -57.6,347.3 
		-56.4,344.1 -59.2,346 	"/>
	<polygon class="st1" points="-55.5,354.2 -55.5,358.2 -59.2,359.5 -55.4,360.7 -55.4,364.6 -53,361.4 -49.2,362.5 -51.6,359.4 
		-49.3,356 -53.1,357.4 	"/>
	<polygon class="st1" points="-51.1,366.9 -52.1,372.7 -58,373.5 -52.7,376.3 -53.8,382.1 -49.5,378 -44.3,380.8 -46.9,375.5 
		-42.6,371.4 -48.5,372.2 	"/>
	<path class="st1" d="M-141.6,408.7c-0.2-0.1-0.5-0.1-0.7,0.1l-27.9,37c-0.3,0.5-0.2,1.1,0.1,1.5c4.8,5.2,9.7,9.7,15.4,13.7
		c0.4,0.2,1,0.8,1.3,0.1l3-7c0.2-0.4,0-1-0.3-1.2c-3-2-5.5-4.3-8.1-6.7c-0.4-0.4-0.3-1.2,0-1.7l22-31.9c0.1-0.1,0-0.4-0.2-0.5
		C-138.6,410.9-140.2,409.9-141.6,408.7L-141.6,408.7z"/>
	<path class="st1" d="M-115.6,473.9c0.4,0,0.4-0.3,0.4-0.5l0.4-54.1c0-0.2-0.2-0.4-0.4-0.4c-1.3,0-2.7-0.2-4.1-0.4
		c-0.2-0.1-0.4,0-0.5,0.3l-6.5,15c-0.2,0.4-0.3,0.3-0.4-0.1l-0.5-16.9c0-0.2-0.1-0.4-0.2-0.4c-1.6-0.6-3.2-1.2-4.7-2
		c-0.1-0.1-0.4-0.1-0.5,0.2l-19.6,47.2c-0.1,0.2,0,0.5,0.2,0.6c1.9,1.2,3.8,2.3,5.8,3.3c0.2,0.1,0.7,0.2,0.8-0.2l12.1-33.8
		c0.1-0.4,0.2-0.5,0.2,0.1l0.5,28.7c0,1.5,0.1,1.5,0.8,0.1l11.5-25.5c0.1-0.3,0.2-0.3,0.2,0.1l-3,37.3c0,0.2,0.2,0.5,0.5,0.6
		C-120.3,473.6-118,473.8-115.6,473.9L-115.6,473.9z"/>
	<path class="st1" d="M-96,422.4c-2.4,0.8-5.1,1.4-8.9,2.1c-0.2,0-0.4,0.3-0.4,0.5l0.3,14.2c0,0.2,0.2,0.6,0.6,0.5
		c3.5-0.5,7-1.2,10.5-1.9c0.5-0.1,0.6,0,0.8,0.6l0.9,5.6c0.1,0.3,0.1,0.7-0.3,0.8c-3.8,0.9-7.7,1.7-11.7,2.3
		c-0.3,0.1-0.6,0.2-0.6,0.7l0.4,14.7c0,0.8,0.5,1.2,0.9,1.1c4.5-0.3,9-1.5,13.3-2.6c0.3,0,0.7-0.2,0.8,0.5l1.2,7.7
		c0.1,0.4-0.3,0.8-0.8,0.9c-7.3,2.3-14.3,3.6-22.3,3.8c-0.6,0-1-0.2-1-0.7l0.4-53.7c0-0.3,0.5-0.5,0.9-0.5c5.1-0.3,9.5-1,13.9-2.7
		c0.5-0.2,0.7-0.1,0.7,0.1l0.9,5.4C-95.5,422.2-95.7,422.3-96,422.4L-96,422.4z"/>
	<path class="st1" d="M-84.5,468.5c-0.2,0-0.5,0-0.5-0.2l-9.7-52.7c0-0.1,0-0.2,0.2-0.2c1.5-0.6,2.9-1.4,4.3-2.2
		c0.1-0.1,0.4-0.1,0.4,0l13.4,50.8c0.1,0.4,0.1,0.6-0.1,0.7C-79.2,466.1-81.7,467.3-84.5,468.5L-84.5,468.5z"/>
	<path class="st1" d="M-42.4,399.9c-0.4,1.7-0.8,3.4-1.3,5c-0.1,0.1-0.2,0.4-0.5,0.3l-1.2-0.6c-0.2-0.1-0.4,0.1-0.5,0.2l-1.8,4.5
		c-0.1,0.3-0.1,0.6,0.3,0.9l8.1,5.4c0.3,0.2,0.8,0.2,1-0.5c1.6-6.5,2.3-13,2.2-19.6c0-0.3-0.1-0.6-0.5-0.7l-13.4-4.6
		c-0.5-0.2-1.3-0.2-1.7,0.5c-1.2,2.3-2.3,4.1-3.3,5.8c-0.2,0.2-0.5,0.5-0.9,0.3l-6.6-3.2c-0.3-0.2-0.5-0.3-0.3-0.9l1.1-2.3
		c0.1-0.3,0.5-0.2,0.8-0.1l2.3,0.9c0.2,0.1,0.5,0.1,0.6-0.2l1-2.8c0.1-0.2-0.2-0.5-0.5-0.6l-8.8-3c-0.3-0.1-0.6,0.1-0.7,0.4
		c-1,3-2.2,5.8-3.7,8.7c-0.3,0.5,0,0.9,0.2,1.2l16.7,11.2c0.3,0.2,0.8,0.2,1.1-0.4c1.7-2.7,3.2-5.4,4.8-8.1c0.1-0.2,0.3-0.4,0.7-0.2
		l4.6,2C-42.5,399.2-42.3,399.5-42.4,399.9L-42.4,399.9z"/>
	<path class="st1" d="M-184.5,422.5c-0.1-0.3,0.2-0.6,0.5-0.8l33.7-21.3c0.2-0.1,0.5,0,0.6,0.1c1,1.2,2,2.3,3,3.5
		c0.1,0.2,0.3,0.5,0.2,0.8l-24.6,40.4c-0.2,0.2-0.8,0-0.9-0.2c-1-1.3-2-2.5-2.8-3.9c-0.2-0.2-0.1-0.6,0-0.9l5.8-9.3
		c0.3-0.5,0.3-0.8,0.1-1.3c-1-2.6-1.9-5.2-2.7-7.8c0-0.2-0.6-0.3-0.8-0.2l-9.2,6.2c-0.2,0.1-0.7,0-0.8-0.2
		C-183.2,425.9-183.9,424.2-184.5,422.5L-184.5,422.5z M-157,411.2l-9.6,6.4c-0.2,0.1-0.4,0.5-0.2,0.8c0.5,1.7,1,3.2,1.6,4.7
		c0.1,0.4,0.5,0.6,0.7,0.2L-157,411.2C-156.9,411.2-156.9,411.2-157,411.2L-157,411.2z"/>
	<path class="st1" d="M-55.3,447.7c-0.2,0.2-0.5,0.4-0.7,0.1l-14.9-18c-0.1-0.2-0.4-0.4-0.6-0.2l-2.6,1.8c-0.2,0.2-0.5,0.4-0.4,0.9
		l9.2,24.4c0.1,0.3,0,0.5-0.2,0.6c-2.4,1.9-4.8,3.6-7.4,5.2c-0.2,0.1-0.5,0.2-0.5-0.1L-88,412.1l0.3-0.4c3.8-2.5,6.6-4.6,9.6-8
		c1.1-1.2,2.4-0.4,2.9,0.5l9.8,16.1c0.9,1.5,0.9,3.6-0.2,4.9l-0.3,0.3l14.6,16.3c0.3,0.3,0.2,0.6,0,0.8
		C-52.5,444.3-53.8,445.9-55.3,447.7L-55.3,447.7z M-73.3,421.1l-4-7.9c-0.1-0.3-0.4-0.4-0.6-0.2c-0.9,0.6-1.8,1.3-2.7,1.9
		c-0.1,0.1-0.1,0.2,0,0.4l3.3,8.9c0.1,0.1,0.2,0.2,0.4,0.1l3.5-2.5C-73.3,421.6-73.1,421.4-73.3,421.1L-73.3,421.1z"/>
	<path class="st1" d="M-40.9,423.2c0,0.2-0.2,0.4-0.4,0.2l-8-5.5c-0.2,0-0.4,0-0.5,0.1l-3.3,8.4c-0.1,0.2,0,0.5,0.1,0.6l5.5,9.2
		c0.1,0.2,0.1,0.4,0.1,0.5c-1,1.6-2,3.1-3,4.6c-0.1,0.1-0.3,0.2-0.4,0l-24.5-40.7c-0.1-0.2-0.1-0.3,0-0.5c1-1.3,2-2.7,2.9-4.1
		c0-0.1,0.2-0.2,0.4-0.1l32.8,21.1c0.1,0.1,0.2,0.3,0.2,0.5C-39.6,419.5-40.2,421.4-40.9,423.2L-40.9,423.2z M-55.4,413.9l-9-6.1
		c-0.3-0.2-0.4-0.2-0.2,0.2l7,11.7c0.1,0.2,0.4,0.6,0.6,0c0.2-0.6,1.4-3.4,1.9-5.1C-54.9,414.3-55.2,414-55.4,413.9L-55.4,413.9z"/>
	<path class="st1" d="M-169.6,409.7c-2.6-3.3-4.8-6.9-7-10.9c-0.2-0.4-0.5-0.4-0.8-0.3l-10.7,3.6c-0.6,0.2-0.8-0.2-0.8-0.5
		c-0.2-2.5-0.2-5-0.2-7.4c0-0.6,0.3-0.8,0.6-0.9l30.6-6c0.4-0.1,0.6,0.1,0.7,0.3c1.5,3.7,3.3,6.9,5.4,10.2c0.2,0.2,0,0.6-0.2,0.8
		l-16.7,11.4C-168.9,410.1-169.2,410.1-169.6,409.7L-169.6,409.7z M-159.8,397.6c-0.9-1.4-1.8-2.7-2.6-4.1c-0.1-0.1-0.2-0.1-0.3,0
		l-7.9,2.7c-0.4,0-0.3,0.3-0.2,0.4c1,2,2.2,3.8,3.5,5.5c0.2,0.2,0.6,0.4,0.8,0.2l6.7-4.5C-159.7,397.8-159.7,397.6-159.8,397.6
		L-159.8,397.6z"/>
	<path class="st1" d="M-112.6,411.9c24.5,0,44.5-20,44.5-44.5c0-24.5-20-44.6-44.5-44.6c-24.5,0-44.5,20.1-44.5,44.6
		C-157.1,392-137.1,411.9-112.6,411.9L-112.6,411.9z"/>
	<path class="st0" d="M-112.6,410.1c-11.7,0-22.4-4.8-30.2-12.6c-7.8-7.7-12.5-18.4-12.5-30.2c0-23.6,19.2-42.8,42.7-42.8
		c11.7,0,22.4,4.8,30.2,12.6c7.8,7.8,12.6,18.4,12.6,30.2C-69.9,391-89.1,410.1-112.6,410.1L-112.6,410.1z"/>
	<path class="st1" d="M-125,333.8c4.6-2.7,8.2-5.6,10.8-7.9c-12.1,0.5-22.8,6.2-30.2,14.9C-137.9,339.8-131.4,337.5-125,333.8
		L-125,333.8z"/>
	<path class="st1" d="M-100.2,333.8c6.4,3.7,12.9,6,19.4,6.9c-0.8-0.9-1.6-1.8-2.4-2.6c-7.2-7.2-16.9-11.8-27.7-12.2
		C-108.4,328.2-104.7,331.1-100.2,333.8L-100.2,333.8z"/>
	<path class="st1" d="M-138.9,379.4c-5.9-12-8.9-25.2-8-35.3c-4.5,6.6-7.2,14.7-7.2,23.3c0,11.5,4.6,21.8,12.2,29.3
		c7.1,7.1,16.7,11.7,27.3,12.2C-127.3,399.5-134.8,387.8-138.9,379.4L-138.9,379.4z"/>
	<path class="st1" d="M-78.2,344.2c0.8,10-2.2,23.2-8.1,35.2c-5.8,11.9-14.2,22-24.4,29.5c21.9-1,39.5-19.2,39.5-41.5
		C-71.1,358.8-73.7,350.8-78.2,344.2L-78.2,344.2z"/>
	<path class="st1" d="M-112.6,408.7c11.5-8.1,19.7-18.9,25.2-29.9c6.7-13.6,9.1-27.4,7.7-36.5c-8.3-1-15.4-4-21-7.3
		c-5.4-3.2-9.5-6.6-11.8-8.8c-2.3,2.2-6.3,5.6-11.7,8.8c-5.6,3.3-12.8,6.3-21.1,7.3c-1.3,9.2,1,23,7.7,36.6
		C-132.3,389.8-124,400.6-112.6,408.7L-112.6,408.7z"/>
	<path class="st0" d="M-112.6,407.2c-1.1-0.8-2.2-1.6-3.3-2.5c-9-7.1-15.7-16.3-20.5-25.7c-5.6-11.2-8.3-22.7-8.5-31.4
		c0-1.5,0-3.1,0.2-4.6c2.2-0.2,4.3-0.6,6.5-1.2c3.7-0.9,7.1-2.2,10.3-3.7c4.9-2.4,8.9-5.2,11.7-7.4c1.3-1.1,2.5-2.1,3.6-3.3
		c1.1,1.1,2.3,2.2,3.6,3.2c2.8,2.3,6.8,5.1,11.8,7.4c3.5,1.7,7.5,3.2,11.8,4.1c1.6,0.4,3.3,0.6,5,0.8c0.1,1.5,0.2,2.9,0.2,4.3
		c-0.1,8.7-2.8,20.3-8.5,31.7c-4.7,9.4-11.5,18.6-20.6,25.8C-110.4,405.6-111.5,406.4-112.6,407.2L-112.6,407.2z"/>
	<path class="st1" d="M-107.8,333.2c-2.1-1.6-3.7-3-4.8-4c-1,1-2.6,2.4-4.7,4H-107.8L-107.8,333.2z"/>
	<path class="st1" d="M-100.1,338c-2.2-1.2-4.2-2.4-6-3.6h-13c-1.7,1.2-3.8,2.4-6,3.6H-100.1L-100.1,338z"/>
	<path class="st1" d="M-87.8,342.9c-3.6-0.9-6.9-2.2-9.9-3.7h-29.8c-3,1.5-6.4,2.7-9.9,3.7H-87.8L-87.8,342.9z"/>
	<path class="st1" d="M-81.5,347.9c0-1.3,0-2.5-0.1-3.7h-61.9c-0.1,1.2-0.1,2.4-0.1,3.7H-81.5L-81.5,347.9z"/>
	<path class="st1" d="M-81.9,352.8c0.1-1.2,0.2-2.4,0.3-3.7h-62c0.1,1.2,0.2,2.4,0.4,3.7H-81.9L-81.9,352.8z"/>
	<path class="st1" d="M-82.7,357.7c0.3-1.2,0.5-2.4,0.6-3.6h-61.1c0.2,1.2,0.4,2.4,0.6,3.6H-82.7L-82.7,357.7z"/>
	<path class="st1" d="M-83.8,362.5c0.3-1.2,0.6-2.4,0.9-3.7h-59.4c0.3,1.2,0.6,2.4,0.9,3.7H-83.8L-83.8,362.5z"/>
	<path class="st1" d="M-85.3,367.4c0.4-1.2,0.8-2.4,1.2-3.7H-141c0.4,1.2,0.7,2.4,1.1,3.7H-85.3L-85.3,367.4z"/>
	<path class="st1" d="M-87.1,372.4c0.5-1.3,0.9-2.5,1.4-3.7h-53.7c0.4,1.2,0.9,2.4,1.4,3.7H-87.1L-87.1,372.4z"/>
	<path class="st1" d="M-89.3,377.3c0.6-1.2,1.2-2.4,1.7-3.7h-49.9c0.5,1.2,1,2.4,1.6,3.7H-89.3L-89.3,377.3z"/>
	<path class="st1" d="M-91.9,382.2c0.7-1.2,1.3-2.4,2-3.7h-45.3c0.6,1.2,1.3,2.4,1.9,3.7H-91.9L-91.9,382.2z"/>
	<path class="st1" d="M-94.9,387.1c0.8-1.2,1.6-2.4,2.3-3.7h-39.9c0.7,1.2,1.4,2.4,2.3,3.7H-94.9L-94.9,387.1z"/>
	<path class="st1" d="M-98.4,392c0.9-1.2,1.8-2.4,2.7-3.7h-33.7c0.9,1.3,1.7,2.4,2.7,3.7H-98.4L-98.4,392z"/>
	<path class="st1" d="M-102.6,396.8c1.1-1.1,2.2-2.3,3.2-3.6h-26.4c1,1.3,2.1,2.5,3.2,3.6H-102.6L-102.6,396.8z"/>
	<path class="st1" d="M-107.6,401.7c1.4-1.2,2.6-2.4,3.8-3.6h-17.6c1.2,1.2,2.5,2.5,3.9,3.6H-107.6L-107.6,401.7z"/>
	<path class="st1" d="M-112.6,405.6c1.2-0.9,2.4-1.8,3.5-2.7h-7C-114.9,403.9-113.8,404.8-112.6,405.6L-112.6,405.6z"/>
	<path class="st0" d="M-128.9,387.1c1.8,0,3.8,0.1,4.9-1.6c0.6-0.9,0.6-1.9,0.6-2.2v-20.8c0-0.2-0.2-0.6-0.5-0.9
		c-0.7-0.6-2.2-1.2-3.1-1.3c0.9-0.2,2.4-0.7,3.2-1.3c0.3-0.3,0.5-0.6,0.5-0.8v-12.7c0-0.4-0.1-0.7-0.2-1c-0.2-0.5-0.6-0.8-1-1.1
		c-1.2-0.6-3.1-0.4-4.2-0.1c0.1-0.5,0.6-1.5,0.8-1.8c1.4-2.5,3.2-3,4.9-2.8c1.6,0.2,3,1.1,4,1.8c1.5-1.4,3.2-2.4,4.9-3.2
		c2.4-0.9,4.8-1.3,6.6-1.3c4.3,0,8.3,1.9,11.1,4.8c3,3,4.8,7,4.8,11.3c0,3.8-1.9,8.2-5.1,11.4c-2.8,2.9-6.5,5-10.6,5.1
		c-2.1,0-4.2-0.5-5.7-1.6c-1.4-1-2.4-2.5-2.4-4.3c0-0.2,0-0.5,0.1-0.7c0-1.4,0.5-2.7,1.4-3.6c0.9-0.9,2.1-1.6,3.8-1.6
		c0.2,0,0.3,0,0.6,0l0,0c1.2,0.1,2.2,0.4,2.7,0.9c0.8,0.7,1,1.6,1,2.4c0,1.5-0.9,3-2.5,3.1c0.3,0.1,0.6,0.2,1.1,0.2
		c2.6,0,6.1-2.4,6.6-5.1c0.2-1,0-1.9-0.3-2.9c-0.3-0.8-0.5-1.6-0.5-2.5c-0.1-1.5,0.4-2.3,0.8-3.2c0.5-0.9,0.9-1.7,0.3-3.4
		c-0.6-1.6-1.6-3-3-4c-1.3-0.9-2.9-1.4-4.9-1.4c-1.6,0-3.4,0.8-4.8,2c-1.3,1.1-2.3,2.5-2.3,3.8v45.3c-1.4-0.4-2.7-0.8-3.8-1.9
		c-0.6-0.5-1-1.2-1.3-1.9c-0.9,0.8-1.9,1.3-3,1.4C-125.4,390.3-128.2,388.9-128.9,387.1L-128.9,387.1z"/>
	<path class="st1" d="M-126.3,388.1c1,0.6,1.9,0.9,2.7,0.9c1.6-0.1,3.1-1.6,3.7-2.5c0,0.9,0.5,2.4,1.5,3.4c0.5,0.5,1.1,0.8,1.8,1.1
		v-43.7c0-1.7,1.2-3.5,2.7-4.8c1.6-1.4,3.8-2.4,5.6-2.3c2.3,0,4.2,0.6,5.6,1.6c1.6,1.2,2.7,2.8,3.4,4.6c0.8,2.1,0.2,3.1-0.4,4.3
		c-0.3,0.7-0.7,1.4-0.6,2.6c0,0.8,0.2,1.5,0.5,2.2c0.4,1.1,0.7,2.2,0.4,3.6c-0.7,3.2-4.6,6-7.9,6c-0.9-0.1-1.6-0.4-2.2-0.7
		c-1.4-1-1.6-2.4-1.3-3.4c0.2,0.4,1,1.1,1.7,1.3l0,0c0.2,0.1,0.4,0.1,0.6,0.1c1.1,0,1.5-0.9,1.5-1.9c0-0.6-0.1-1.1-0.6-1.5
		c-0.4-0.3-1-0.6-2-0.6l0,0l0,0l0,0c-0.2,0-0.4,0-0.5,0c-1.4,0-2.3,0.5-2.9,1.2c-0.7,0.8-1.1,1.8-1.1,2.9c-0.1,0.2-0.1,0.4-0.1,0.6
		c0,1.4,0.8,2.5,1.8,3.3c1.4,0.9,3.2,1.4,5.1,1.4c3.7-0.1,7.2-2,9.7-4.7c2.9-3,4.7-7.1,4.7-10.5c0-4-1.7-7.7-4.4-10.5
		c-2.6-2.7-6.3-4.4-10.3-4.4c-1.8,0-4,0.3-6.2,1.2c-1.7,0.7-3.4,1.8-4.9,3.2l-0.4,0.4l-0.4-0.3c-0.9-0.6-2.4-1.8-4-2
		c-1.2-0.1-2.4,0.3-3.4,1.9c0.9-0.1,1.9,0.1,2.7,0.5c0.7,0.4,1.3,0.9,1.6,1.6c0.2,0.5,0.4,0.9,0.4,1.5v12.7c0,0.6-0.3,1.2-0.9,1.7
		c-0.2,0.1-0.4,0.2-0.5,0.4c0.2,0.1,0.4,0.2,0.5,0.4c0.6,0.6,0.9,1.3,0.9,1.8v20.8c0,0.4-0.1,1.6-0.8,2.8
		C-123.5,387.1-124.5,387.9-126.3,388.1L-126.3,388.1z"/>
</g>
</svg>
