<?xml version="1.0" encoding="utf-8"?>
<!-- Generator: Adobe Illustrator 19.1.0, SVG Export Plug-In . SVG Version: 6.00 Build 0)  -->
<svg version="1.1" id="Layer_1" xmlns="http://www.w3.org/2000/svg" xmlns:xlink="http://www.w3.org/1999/xlink" x="0px" y="0px"
	 viewBox="-194.2 303.1 163.1 187.1" style="enable-background:new -194.2 303.1 163.1 187.1;" xml:space="preserve">
<style type="text/css">
	.st0{fill:#FFFFFF;}
</style>
<g>
	<path d="M-31.1,418.6L-31.1,418.6c-0.2-14.6-5-25.5-9.7-36c-3.3-8-4.7-13.6-5.2-20.6c0.4-8.5,3-15.1,7.2-23.1l3.5-6.8l-30.1-29
		l-0.5,0.3l-6.2,3.7c-11.6,7-25.9,10.9-40.5,11.2c-15.2,0.3-29.3-3.4-40.7-10.7l-6.7-4.3l-30.1,28.7l3.5,6.8c3,5.8,5,10.9,6.5,16.3
		c0.3,2.3,0.5,4.4,0.5,6.5c0,7.9-2.4,14.8-5,21c-3.2,7.1-7.1,16.1-9,25.7l-0.1,0.4l0,0.4c-0.3,2.5-0.4,5.1-0.4,7.6
		c0,10.7,2.6,21,7.6,29.7l0.3,0.6l0.4,0.6c3.8,4.9,7.9,8.9,12.7,12l0.2,0.2l0.2,0.1c8,4.6,16.3,7.7,24.4,10.7
		c10.7,4,20.7,7.7,28.9,14.5l6.4,5.3l6.5-5.2c5.3-4.2,10.6-7.3,17.3-10.1c3.6-1.5,7.3-2.8,11.2-4.2c8.4-3,17-6.2,25.3-10.9l0.4-0.2
		l0.3-0.2c16.3-11.1,19.7-25.7,20.9-39.7l0-0.5L-31.1,418.6L-31.1,418.6z"/>
	<path class="st0" d="M-69.4,311.6c-12.3,7.4-27.6,11.7-43.1,11.9c-16.2,0.3-31.3-3.7-43.6-11.5l-3.3-2.1l-24.3,23.2l1.7,3.3
		c3.2,6.2,5.4,11.8,7,17.6c0.4,2.6,0.6,5.1,0.6,7.5c0,8.2-2.2,15.4-5.4,23.1c-3.1,7-6.9,15.6-8.7,24.6l0,0.2l0,0.2
		c-0.3,2.3-0.4,4.7-0.4,7c0,9.7,2.4,19.1,6.9,27.1l0.2,0.3l0.2,0.3c3.4,4.5,7.1,7.9,11.4,10.7l0.1,0.1l0.1,0.1
		c7.6,4.4,15.8,7.4,23.6,10.3c11.1,4.1,21.6,8,30.4,15.3l3.1,2.5l3.1-2.5c5.7-4.5,11.4-7.9,18.5-10.8c3.7-1.5,7.6-2.9,11.4-4.3
		c8.1-3,16.6-6,24.5-10.5l0.2-0.1l0.2-0.1c13.7-9.3,17.4-21.1,18.7-35.8l0-0.2l0-0.3c-0.2-13.5-4.8-23.9-9.3-34
		c-3.6-8.7-5.2-14.9-5.6-22.6c0.4-9.5,3.2-16.8,7.8-25.6l1.7-3.3l-24.4-23.5L-69.4,311.6L-69.4,311.6z"/>
	<path d="M-40,418.7c-0.2-11.9-3.7-20.7-9-32.7c-3.8-9-5.4-15.8-5.9-24c0.4-10.2,3.5-18.3,8.2-27.3l0.5-0.9l-20.5-19.7l-0.9,0.5
		c-12.9,7.7-28.8,12.2-44.9,12.5c-16.9,0.3-32.7-3.9-45.6-12.1l-0.9-0.6l-20.3,19.3l0.4,0.9c3.4,6.5,5.7,12.4,7.3,18.5
		c0.5,2.9,0.7,5.7,0.7,8.3c0,8.8-2.3,16.3-5.7,24.5c-3,6.8-6.7,15.3-8.4,23.9l0,0.1l0,0c-0.3,2.2-0.4,4.4-0.4,6.6
		c0,9.1,2.2,17.9,6.4,25.3l0,0.1l0.1,0.1c3.2,4.2,6.5,7.3,10.5,9.9l0,0l0,0c7.3,4.2,15.3,7.2,23.1,10.1c10.9,4,22.1,8.2,31.5,15.9
		l0.8,0.7l0.8-0.7c6-4.8,11.9-8.3,19.4-11.4c3.8-1.6,7.8-3,11.6-4.4c8-2.9,16.3-5.9,23.9-10.3l0,0l0,0c12.5-8.5,15.9-19.4,17.1-33.1
		L-40,418.7L-40,418.7L-40,418.7z M-52.9,341.8l-7.7,3.3v-21.5c4.7,4.6,10.4,10,11.2,10.8C-50.7,336.9-51.9,339.4-52.9,341.8
		L-52.9,341.8z M-142.9,325.2c6.1,2.1,12.6,3.5,19.4,4.2v42.8l-19.4,8.3V325.2L-142.9,325.2z M-102,329.1c6.8-0.9,13.5-2.4,19.9-4.7
		v30l-19.9,8.6V329.1L-102,329.1z M-174.1,387.1c3.6-8.4,6-16.3,6-25.5c0-2.8-0.2-5.7-0.7-8.9l0-0.1l0-0.1c-1.6-6-3.9-11.8-7.1-18.2
		c0.8-0.7,6.8-6.5,11.5-11v66.3l-13.2,5.7C-176.4,392.4-175.2,389.7-174.1,387.1L-174.1,387.1z M-182.3,410.4
		c0.8-3.9,2-7.8,3.4-11.6l124.7-53.5c-1.9,5.2-3,10.6-3.2,16.7l0,0.1l0,0.1c0.4,6.9,1.7,12.5,3.5,18l0-0.1l-125.6,54.1
		c-2-5.4-3.1-11.4-3.1-17.5C-182.7,414.6-182.5,412.5-182.3,410.4L-182.3,410.4z M-123.5,468.4c-6.3-3.3-12.9-5.9-19.4-8.3v-39
		l19.4-8.3L-123.5,468.4L-123.5,468.4z M-176.6,440.6c-0.7-1.3-1.4-2.6-2-4l14.2-6.1v20.7c-0.8-0.4-1.7-0.9-2.5-1.4
		C-170.6,447.4-173.7,444.5-176.6,440.6L-176.6,440.6z M-93.7,464.3c-3,1.2-5.8,2.6-8.4,4v-64.6l19.9-8.6v64.9
		C-85.9,461.3-89.9,462.7-93.7,464.3L-93.7,464.3z M-58.5,449.8c-0.7,0.4-1.4,0.8-2.1,1.2v-65.2l7.5-3.2c0.6,1.5,1.2,3,1.8,4.6
		c5.2,11.7,8.6,20.3,8.8,31.6C-43.8,432-46.8,441.8-58.5,449.8L-58.5,449.8z"/>
	<path d="M-176.1,428.9l3.7-27.5l5.3-2.3l12.8,20.3l-5.3,2.3l-2.3-4.3l-8.5,3.7l-0.7,5.7L-176.1,428.9L-176.1,428.9z M-169.9,416.2
		l5.7-2.5l-4.6-8.3L-169.9,416.2L-169.9,416.2z M-146.8,410.7l0.9,4.8l-4.8,2.1l-1.1-4.8L-146.8,410.7L-146.8,410.7z M-142.7,414.1
		l3.6-27.4l5.5-2.5l12.8,20.4l-5.3,2.1l-2.3-4.1l-8.5,3.6l-0.5,5.7L-142.7,414.1L-142.7,414.1z M-136.5,401.7l5.7-2.7l-4.6-8.4
		L-136.5,401.7L-136.5,401.7z M-113.4,396l0.9,4.8l-5,2.3l-0.9-5L-113.4,396L-113.4,396z M-107.4,398.7l-4.6-23.8l10.1-4.4
		c2.1-1.1,3.7-1.1,5.2-0.5c1.2,0.5,2.3,1.6,3,3c0.5,1.6,0.7,3,0.5,4.8c-0.2,1.6-0.9,3.2-1.8,4.4c-1.1,1.4-2.3,2.5-4.1,3.4l-5.3,2.3
		l1.8,8.7L-107.4,398.7L-107.4,398.7z M-105.1,383.9l4.6-2.1c0.7-0.2,1.2-0.9,1.6-1.4c0.7-0.5,0.9-1.4,0.9-2.1c0-0.9,0-1.6-0.4-2.5
		c-0.4-0.7-1.1-1.2-1.6-1.4c-0.7,0-1.6,0.2-2.7,0.5l-4.1,1.8L-105.1,383.9L-105.1,383.9z M-85.9,383.9l0.9,5l-5,2.1l-0.9-5
		L-85.9,383.9L-85.9,383.9z M-80,386.6l-4.4-23.8l10.1-4.4c2-1.1,3.6-1.1,5-0.5c1.4,0.5,2.5,1.6,3,3c0.7,1.6,0.9,3.2,0.7,4.8
		c-0.2,1.6-0.9,3.2-1.8,4.6c-1.1,1.2-2.3,2.3-4.1,3.2l-5.5,2.3l2,8.7L-80,386.6L-80,386.6z M-77.5,371.8l4.6-2.1
		c0.7-0.2,1.2-0.9,1.6-1.4c0.5-0.5,0.9-1.4,0.9-2.1c0-0.9,0-1.6-0.5-2.3c-0.4-0.9-0.9-1.4-1.4-1.6c-0.7,0-1.6,0.2-2.7,0.5l-4.1,1.8
		L-77.5,371.8L-77.5,371.8z M-58.5,371.8l1.1,5l-5,2.1l-0.9-5L-58.5,371.8L-58.5,371.8z"/>
</g>
</svg>
