<?xml version="1.0" encoding="utf-8"?>
<!-- Generator: Adobe Illustrator 19.1.0, SVG Export Plug-In . SVG Version: 6.00 Build 0)  -->
<svg version="1.1" id="Layer_1" xmlns="http://www.w3.org/2000/svg" xmlns:xlink="http://www.w3.org/1999/xlink" x="0px" y="0px"
	 viewBox="-200.5 312 175.8 169.2" style="enable-background:new -200.5 312 175.8 169.2;" xml:space="preserve">
<style type="text/css">
	.st0{fill:#FFFFFF;}
</style>
<g>
	<path d="M-200.5,481.2L-200.5,481.2L-200.5,481.2L-200.5,481.2z M-112.6,481.1l-3.3-3.4l-1.8-1.5l-2-1.4l-2.2-1.3l-2.4-1.2
		l-2.5-1.2l-2.7-1.1l-2.8-1.1l-2.9-1l-3-0.9l-3.1-0.9l-3.1-0.9l-3.2-0.9l-3.3-1l-3.2-0.9l-3.3-1l-3.3-1.1l-3.2-1.1l-3.2-1.2
		l-3.2-1.3l-3.1-1.4l-3-1.6l-2.9-1.7l-2.9-1.9l-2.7-2l-2.6-2.2l-2.4-2.4l-2.2-2.6l-2.1-2.8l-1.8-3.1l-1.6-3.4l-1.3-3.6l-0.7-2.4
		l-0.5-2.4l-0.4-2.4l-0.1-2.3l0.1-2.4l0.2-2.2l0.3-2.3l0.5-2.2l0.6-2.2l0.7-2.1l0.8-2.1l0.8-2.1l1-2l1-2l1-1.9l1.1-2l1-1.9l1.1-1.9
		l1.1-1.9l1.1-1.9l1.1-1.9l1.1-1.9l1.1-1.8l1-1.8l1-1.8l0.9-1.8l0.8-1.8l0.7-1.8l0.7-1.7l0.5-1.8l0.4-1.8l0.3-1.8l0.1-0.8l0.1-0.8
		l0.1-0.8v-0.8v-0.8v-0.8l-0.1-0.8l-0.1-0.8l-0.1-0.8l-0.1-0.8l-0.1-0.8l-0.2-0.8l-0.2-0.8l-0.2-0.8l-0.3-0.8l-0.2-0.8l-0.3-0.8
		l-0.3-0.8l-0.3-0.8l-0.3-0.8l-0.4-0.7l-0.3-0.8l-0.4-0.8l-0.4-0.8l-0.4-0.7l-0.5-0.7l-0.4-0.7l-0.5-0.7l-0.5-0.7l-0.5-0.7l-0.5-0.7
		l-2-2.3l26.4-25.8l2.9,1.5l1.4,0.6l1.4,0.7l1.4,0.6l1.4,0.6l1.4,0.6l1.5,0.6l1.4,0.6l1.5,0.5l1.4,0.5l1.5,0.5l1.5,0.5l1.5,0.5
		l1.5,0.4l1.5,0.4l1.5,0.4l1.5,0.3l1.5,0.4l1.5,0.3l1.5,0.3l1.5,0.2l1.5,0.3l1.5,0.2l1.5,0.2l1.6,0.2l1.6,0.2l1.5,0.1l1.6,0.1
		l1.5,0.1l1.6,0l1.5,0.1h1.6h1.5l1.5-0.1l1.6,0l1.5-0.1l1.5-0.1l1.6-0.1l1.6-0.2l1.5-0.2l1.5-0.2l1.6-0.2l1.5-0.3l1.6-0.2l1.5-0.3
		l1.5-0.3l1.6-0.4l1.5-0.3l1.5-0.4l1.5-0.4l1.5-0.4l1.5-0.5l1.5-0.5l1.5-0.5l1.4-0.5l1.5-0.5l1.4-0.6l1.5-0.6l1.4-0.6l1.4-0.6
		l1.4-0.6l1.4-0.7l1.4-0.6l2.9-1.5l26.3,25.8l-2,2.3l-0.6,0.7l-0.5,0.7l-0.5,0.7l-0.5,0.7l-0.5,0.7l-0.5,0.7l-0.4,0.7l-0.4,0.8
		l-0.4,0.8l-0.3,0.8l-0.4,0.7l-0.3,0.8l-0.3,0.8l-0.3,0.8l-0.3,0.8l-0.3,0.8l-0.2,0.8l-0.2,0.8l-0.2,0.8l-0.2,0.8l-0.1,0.8l-0.1,0.8
		l-0.1,0.8l-0.1,0.8l0,0.8v0.8v0.8v0.8l0,0.8l0.1,0.8l0.1,0.8l0.3,1.8l0.4,1.8l0.5,1.8l0.6,1.7l0.7,1.8l0.8,1.8l0.9,1.8l0.9,1.8
		l1,1.8l1.1,1.8l1.1,1.9l1.1,1.9l1.1,1.9l1.1,1.9l1.1,1.9l1,1.9l1.1,2l1,1.9l1,2l1,2l0.8,2.1l0.8,2.1l0.6,2.1l0.6,2.2l0.5,2.2
		l0.3,2.3l0.2,2.2l0.1,2.4l-0.1,2.3l-0.4,2.4l-0.5,2.4l-0.7,2.4l-1.3,3.6l-1.6,3.4l-1.8,3.1l-2.1,2.8l-2.1,2.6l-2.4,2.4l-2.6,2.2
		l-2.7,2l-2.8,1.9l-3,1.7l-3,1.6l-3.1,1.4l-3.2,1.3l-3.2,1.2l-3.2,1.1l-3.3,1.1l-3.3,1l-3.2,0.9l-3.2,1l-3.2,0.9L-84,466l-3.1,0.9
		l-3,0.9l-2.9,1l-2.8,1.1l-2.7,1.1l-2.5,1.2l-2.4,1.2l-2.2,1.3l-2,1.4l-1.8,1.5L-112.6,481.1L-112.6,481.1L-112.6,481.1z"/>
	<path class="st0" d="M-118.7,471.3l-1.5-0.9l-2.5-1.3l-2.7-1.2l-2.8-1.1l-2.9-1.1l-1.2-0.4v-54.9l13.6-10.2L-118.7,471.3
		L-118.7,471.3L-118.7,471.3z M-146.2,420.8V461l-0.4-0.1l-3.3-1l-3.2-0.9l-3.2-1l-2.3-0.8v-27L-146.2,420.8L-146.2,420.8
		L-146.2,420.8z M-172,440.2V452l-2.8-1.5l-2.8-1.6l-2.7-1.8l-0.6-0.4L-172,440.2L-172,440.2L-172,440.2z M-196.6,412.7l0.1-0.6
		l0.5-2l0.5-2l0.6-2l0.8-1.9l0.8-1.9l0.9-1.9l1-1.9l1-1.9l1-1.9l1.1-1.9l1.1-1.9l1.1-1.9l1.1-1.8l1.1-1.9l1.1-1.9l1.1-1.9l1-1.8
		l1-1.9l1-1.9l0.8-1.9l0.8-1.9l0.6-2l0.6-1.9l0.5-1.9l0.3-2l0.1-0.9l0-0.9l0.1-0.9l0.1-0.9v-1l-0.1-0.9l-0.1-0.8l0-0.9l-0.1-0.9
		l-0.1-0.9l-0.2-0.9l-0.2-0.9l-0.2-0.9l-0.2-0.8l-0.2-0.9l-0.3-0.9l-0.3-0.9l-0.3-0.8l-0.3-0.9l-0.4-0.8l-0.3-0.8l-0.5-0.9l-0.4-0.8
		l-0.4-0.8l-0.5-0.8l-0.5-0.8l-0.5-0.8l-0.5-0.8l-0.6-0.8l-0.6-0.8l-0.5-0.6l22.2-21.8l0.7,0.3l1.4,0.7l1.4,0.7l1.5,0.7l1.5,0.6
		l1.5,0.6l1.5,0.6l1.4,0.6l1.5,0.5l1.6,0.5l1.5,0.5l1.5,0.5l1.5,0.5l1.5,0.4l1.6,0.5l1.5,0.3l1.6,0.4l1.5,0.3l1.6,0.4l1.6,0.3
		l1.6,0.3l1.5,0.3l1.6,0.2l1.6,0.2l1.6,0.2l1.6,0.2l1.6,0.1l1.6,0.1l1.6,0.1l1.6,0.1h1.6h1.6h1.6h1.6l1.6-0.1l1.6-0.1l1.6-0.1
		l1.6-0.1l1.6-0.2l1.6-0.2l1.6-0.2l1.6-0.2l1.6-0.3l1.6-0.3l1.6-0.3l1.6-0.4l1.5-0.3l1.6-0.4l1.5-0.3l1.6-0.5l1.5-0.4l1.5-0.5
		l1.5-0.5l1.5-0.5l1.5-0.5l1.5-0.5l1.5-0.6l1.5-0.6l0.5-0.2L-196.6,412.7L-196.6,412.7L-196.6,412.7z M-57.6,354v99.9l-1.7,0.8
		l-3.1,1.2l-3.2,1.1l-3.2,1.1l-3.2,1l-0.5,0.1v-93.8L-57.6,354L-57.6,354L-57.6,354z M-88.7,377.4v86.4l-2.5,0.8l-2.9,1l-3,1.1
		l-2.7,1.1l-2.7,1.2l-1.2,0.6v-81L-88.7,377.4L-88.7,377.4L-88.7,377.4z M-41.4,385.1l0.1,0.2l1.1,1.9l1.1,1.8l1.1,1.9l1.1,1.9
		l1.1,1.9l1.1,1.9l1,1.9l0.9,1.9l0.9,1.9l0.8,1.9l0.7,1.9l0.7,2l0.5,2l0.4,2l0.3,2l0.2,2.1l0.1,2.1l-0.2,2.1l-0.3,2.1l-0.4,2.1
		l-0.6,2.2l-1.2,3.3l-1.5,3L-34,436l-1.8,2.6l-2.1,2.4l-2.2,2.2l-1.3,1.1L-41.4,385.1L-41.4,385.1L-41.4,385.1z"/>
	<path class="st0" d="M-167.1,419.5l4.6-2.8l0,0c0,1.1,0.4,2.1,1.8,2.5c1.2,0.3,5.5-2.5,6.5-4.3c1.4-2.4,0.9-6.7-0.7-6.7
		c-2,0-6.4,4.8-9.2,4.8c-0.3,0-2.1,0.6-2.8-2.1c-0.2-0.7-0.2-7.5-0.2-8.8c0-5.6,2.1-6.7,6.6-9.6c1.6-1,5.5-2.8,8.2-3.4l0,0l0.8-2.8
		l2.9-1.6l0,10.2l-4.4,1.7l0,0c0-1-0.8-1.3-1.2-1.2c-1.8,0.3-4.8,2.2-6.6,4.3c0,0-1.2,4.6,0.3,5.7c0.8,0.7,7.5-5.5,10.2-4.8
		c0,0,2.1,0.7,2.3,1.3c0.8,2.3,0.7,11.2,0,12.7c-1.4,3.2-7.2,6.9-10.1,8.2c-0.1,0-4.3,1.2-5.2,2.3l0,0v2.4l-3.8,2.2L-167.1,419.5
		L-167.1,419.5L-167.1,419.5z M-142.1,406.9c0.3-0.1,0.6-0.3,0.9-0.5c0.3,0,0.5,0.1,0.7,0.3c0.1,0.2,0.3,0.4,0.3,0.8
		c0,0.3-0.1,0.7-0.3,1.1c-0.2,0.4-0.4,0.8-0.7,1.2c-0.3,0.4-0.6,0.8-0.9,1c-0.5,0.3-0.9,0.4-1.3,0.3c-0.3-0.2-0.5-0.5-0.5-0.9
		c0-0.4,0.1-0.8,0.2-1.2c0.2-0.4,0.4-0.8,0.7-1.2C-142.7,407.5-142.4,407.1-142.1,406.9L-142.1,406.9L-142.1,406.9z M-132.9,373.9
		l20.9-15.4v8.9l-4.2,2.7v-1.2l0,0c0-0.7-0.2-2-0.2-2.1c0-0.2-0.3-0.3-0.7-0.3c-0.5,0-5.8,4.3-7.3,5.8l0,0v8.3l4.7-3.4v5.2l-4.8,3.2
		l0.1,4.1l0,0c0,0.5-0.2,2.5,1.2,2.4c0.3,0,2-1.6,3.1-2.2l0,0l0.1,3.9l-12.7,9.4v-3.9l0,0c1.7-1.1,2.6-1.6,2.6-4.3l0,0v-16.7l0,0
		c0-1.9-0.8-2.4-2.7-1.7l0,0L-132.9,373.9L-132.9,373.9L-132.9,373.9z M-112.7,385c0.3-0.3,0.6-0.3,0.9-0.5c0.3,0,0.5,0.1,0.7,0.2
		c0.1,0.2,0.2,0.4,0.2,0.8c0,0.3-0.1,0.7-0.2,1c-0.2,0.5-0.4,0.8-0.7,1.3c-0.3,0.4-0.6,0.7-0.9,0.9c-0.5,0.4-0.9,0.5-1.3,0.4
		c-0.3-0.2-0.4-0.4-0.4-1c0-0.4,0.1-0.8,0.2-1.2c0.3-0.4,0.4-0.8,0.7-1.2C-113.3,385.6-113,385.2-112.7,385L-112.7,385L-112.7,385z
		 M-84.9,347.1l0.2-2l0,0c0.2-1.4-0.7-1.8-1.9-1.1c-1.1,0.6-3,1.4-5.2,3.2c-1.1,0.9-1.3,3.4-1.3,5.3l0,0v11.9l0,0c0,3.2,1.5,3,1.5,3
		c2.7-0.2,6.8-3.4,6.7-4.6l0,0l-0.2-5.3l5.3-3.7l-0.3,8.1l0,0c-0.1,3.4-4.9,6.5-8.3,9c-2.5,1.8-5,3.3-6.2,3.9
		c-3,1.5-5.1,0.5-5.1-5.1l0,0l-0.1-12.7l0,0c0-11.2,2.9-13,10.3-17c0.9-0.5,3.3-1.4,4.8-1.2c0.3-0.7,0.1-3,0.9-4l0,0l4-2.1
		l-0.1,10.6L-84.9,347.1L-84.9,347.1L-84.9,347.1z M-72.2,355c0.3-0.2,0.5-0.3,0.8-0.5c0.3,0,0.5,0.1,0.7,0.2
		c0.1,0.2,0.2,0.4,0.2,0.8c0,0.3-0.1,0.7-0.2,1.1c-0.2,0.4-0.4,0.8-0.7,1.2c-0.3,0.5-0.6,0.8-0.8,1c-0.5,0.4-0.9,0.4-1.4,0.4
		c-0.3-0.3-0.5-0.5-0.5-1c0-0.4,0.1-0.8,0.2-1.2c0.2-0.4,0.4-0.8,0.7-1.2C-72.9,355.6-72.6,355.2-72.2,355L-72.2,355L-72.2,355z"/>
	<path d="M-148.3,359.3c-0.3,0.5-0.6,0.9-1,1.3c-0.5,0.6-1,1.1-1.5,1.6c-2.2,1.9-4.8,3.2-7.1,3.8c1.7,0.5,3.4,0.8,5.3,0.8h0h0
		c2,0,4-0.3,5.8-1c0.6-1.5,1-3.1,1-4.8c0-0.3,0-0.7,0-1.1c0-0.2,0-0.4-0.1-0.5C-146.8,359.6-147.6,359.5-148.3,359.3L-148.3,359.3z
		 M-159.8,365.2c2.5-0.2,5.7-1.5,8.3-3.8c0.5-0.4,1-0.9,1.4-1.5c0.3-0.4,0.6-0.8,0.9-1.1c-0.1-0.1-0.2-0.2-0.3-0.4l0,0l0,0
		c-0.1-0.1-0.2-0.3-0.2-0.4c-4.1,1-7.8,0.8-11.2-0.2c-3.1-0.8-5.9-2.2-8.6-3.8c0.9,2.9,2.4,5.5,4.5,7.5
		C-163.6,363-161.8,364.3-159.8,365.2L-159.8,365.2z M-152.7,330.2L-152.7,330.2c5.2,0,9.9,2.1,13.4,5.5c3.5,3.4,5.6,8.1,5.6,13.3v0
		l0,0c0,5.2-2.2,9.9-5.6,13.3c-3.5,3.4-8.2,5.5-13.4,5.5h0h0c-5.1,0-9.8-2.1-13.2-5.5c-2.4-2.5-4.2-5.6-5-9.1
		c-0.1,0-0.1-0.1-0.2-0.1l0.1-0.2c-0.3-1.3-0.4-2.6-0.4-4v0v0c0-5.2,2.1-9.9,5.5-13.3C-162.5,332.2-157.8,330.2-152.7,330.2
		L-152.7,330.2L-152.7,330.2z M-152.7,331.2L-152.7,331.2L-152.7,331.2c-1.2,0-2.4,0.1-3.5,0.4c2.5,3.1,4.5,6.3,6.2,9.7
		c1.7,3.4,3.1,6.8,4.5,10.4c0.6-0.2,1.2-0.4,1.8-0.4c0.1,0,0.2,0,0.3,0c0.8-3.1,1.2-6.1,1-9.1c-0.2-3.1-1-6.1-2.7-9.1l0.2-0.1
		C-147.3,331.8-149.9,331.2-152.7,331.2L-152.7,331.2z M-157.3,331.8c-3,0.8-5.7,2.4-7.9,4.6c-0.8,0.8-1.6,1.7-2.2,2.7
		c3.7,4.8,8,8.8,12.9,12c1,0.6,1.9,1.2,3,1.8c0.8,0.5,1.7,0.9,2.6,1.4c0.5-0.6,1.1-1.2,1.8-1.7l0,0l0,0h0c0.3-0.2,0.5-0.3,0.8-0.5
		c-1.4-3.5-2.8-7-4.5-10.4C-152.6,338.3-154.7,334.9-157.3,331.8L-157.3,331.8z M-168,340.1c-1.5,2.6-2.4,5.6-2.4,8.9v0v0
		c0,1.2,0.1,2.4,0.4,3.6c2.9,1.8,5.9,3.4,9.2,4.3c3.3,0.9,6.9,1.1,10.8,0.2c0-0.1,0-0.1,0-0.2c0-0.5,0.2-1,0.4-1.5
		c-0.9-0.4-1.7-0.9-2.5-1.4c-1-0.6-2-1.2-3-1.9C-160,348.8-164.3,344.8-168,340.1L-168,340.1z M-145.5,365.2
		c2.1-0.9,3.9-2.2,5.5-3.7c1.1-1.1,2.1-2.4,2.9-3.8c-1.1-0.1-2.2-0.3-3.4-0.6c-0.4-0.1-0.9-0.2-1.3-0.3c-0.3,0.4-0.7,0.7-1.2,1.1h0
		c-0.1,0.1-0.2,0.2-0.4,0.3l0,0c-0.3,0.2-0.6,0.4-1,0.6l0,0c-0.2,0.1-0.5,0.2-0.7,0.3c0,0.3,0.1,0.5,0.1,0.8c0,0.4,0,0.7,0,1.1
		C-144.8,362.4-145.1,363.9-145.5,365.2L-145.5,365.2z M-136.5,356.7c1.2-2.3,1.8-5,1.8-7.8l0,0v0c0-0.2,0-0.3,0-0.5
		c-0.9,1.2-2.2,2.4-3.7,3.4c-0.4,0.3-0.8,0.5-1.2,0.7c-0.3,0.1-0.6,0.3-0.8,0.4c0.2,0.7,0.1,1.5-0.2,2.3c-0.1,0.2-0.2,0.5-0.4,0.7
		c0.3,0.1,0.6,0.1,0.8,0.2C-138.9,356.4-137.7,356.7-136.5,356.7L-136.5,356.7z M-134.8,346.8c-0.5-4.1-2.4-7.7-5.2-10.4
		c-1.1-1-2.3-2-3.6-2.7c1.4,2.8,2.1,5.6,2.3,8.4c0.2,3.1-0.2,6.1-1,9.3c0.5,0.1,0.9,0.4,1.2,0.7c0.3-0.1,0.6-0.3,0.9-0.4
		c0.4-0.2,0.8-0.4,1.1-0.7C-137.2,349.8-135.7,348.2-134.8,346.8L-134.8,346.8z M-146.6,353.4L-146.6,353.4L-146.6,353.4
		L-146.6,353.4c-1.4,1-2.3,2.3-2.4,3.4c0,0.2,0,0.4,0,0.5c0,0.2,0.1,0.3,0.2,0.4c0.6,0.7,1.8,0.8,3.2,0.4c0.3-0.1,0.6-0.2,0.8-0.4h0
		c0.3-0.1,0.6-0.3,0.8-0.5l0,0c0,0,0,0,0,0l0,0c0,0,0,0,0,0l0,0c0.1-0.1,0.2-0.2,0.3-0.2v0c0.9-0.7,1.6-1.5,1.9-2.3
		c0.3-0.7,0.3-1.3,0-1.8c0,0,0,0,0,0l0,0c0,0,0,0,0,0l0,0c-0.4-0.5-1.1-0.7-1.9-0.7C-144.5,352.3-145.6,352.7-146.6,353.4
		L-146.6,353.4z M-143.9,357.3L-143.9,357.3L-143.9,357.3L-143.9,357.3z"/>
</g>
</svg>
