<?xml version="1.0" encoding="utf-8"?>
<!-- Generator: Adobe Illustrator 19.1.0, SVG Export Plug-In . SVG Version: 6.00 Build 0)  -->
<svg version="1.1" id="Layer_1" xmlns="http://www.w3.org/2000/svg" xmlns:xlink="http://www.w3.org/1999/xlink" x="0px" y="0px"
	 viewBox="-204.5 306 183.7 181.5" style="enable-background:new -204.5 306 183.7 181.5;" xml:space="preserve">
<style type="text/css">
	.st0{fill:#FFFFFF;stroke:#000000;stroke-width:0.9639;stroke-miterlimit:2.6131;}
	.st1{fill:#CD3529;}
	.st2{fill:#FFFFFF;}
</style>
<g>
	<polygon class="st0" points="-21.3,306.5 -78.9,306.5 -146.4,306.5 -204,306.5 -204,374.5 -111.3,486.7 -21.3,374.5 	"/>
	<path class="st1" d="M-124.9,455.5c0-87.1,0-87.1,0-87.1h-71.2L-124.9,455.5L-124.9,455.5z"/>
	<path d="M-100.6,455.5c0-87.1,0-87.1,0-87.1h71.2L-100.6,455.5L-100.6,455.5z"/>
	<polygon points="-29.6,362 -29.6,312.6 -196.2,312.6 -196.2,362 	"/>
	<polygon class="st2" points="-178.2,328.1 -159.3,328.1 -159.3,321.2 -184.5,321.2 -184.5,341.3 -165.9,341.3 -165.9,347.1 
		-184.5,347.1 -184.5,353.7 -159.3,353.7 -159.3,334 -178.2,334 	"/>
	<path class="st2" d="M-120.2,341.1v-19.9h-25.2v32.5h6.4v-12.6H-120.2L-120.2,341.1z M-138.9,327.7h13.1v7h-13.1V327.7
		L-138.9,327.7z"/>
	<polygon class="st2" points="-100,334.4 -100,327.9 -81.3,327.9 -81.3,320.9 -106.5,320.9 -106.5,353.4 -100,353.4 -100,341.1 
		-81.3,341.1 -81.3,334.4 	"/>
	<polygon class="st2" points="-60,327.9 -41.3,327.9 -41.3,320.9 -66.5,320.9 -66.5,353.4 -41.3,353.4 -41.3,346.4 -60,346.4 	"/>
</g>
</svg>
